<svg xmlns="http://www.w3.org/2000/svg" viewBox="0 0 1122.2 631.24"><defs><style>.cls-1{fill:none;}.cls-2,.cls-3{fill:#fdfdfb;}.cls-2{opacity:0.52;}.cls-4{fill:#f9f1e5;}.cls-5{fill:#f4e5ce;}.cls-6{fill:#eba342;}.cls-7{fill:#4a1d0e;}.cls-8{fill:#de706e;}.cls-9{fill:#f3c376;}.cls-10{fill:#c19546;}.cls-11{fill:#c8a15b;}.cls-12{fill:#e1c498;}.cls-13{fill:#d8c381;}.cls-14{fill:#94bf00;}.cls-15{fill:#b8d25f;}.cls-16{fill:#f6f3ea;}.cls-17{fill:#b8c318;}.cls-18{fill:#584938;}</style></defs><g id="底"><rect class="cls-1" width="1122.2" height="631.24"/></g><g id="白底"><path class="cls-2" d="M944.94,220.32c0,41.41-9.15,86.42-35.69,120.91C832.47,441,739.5,439.57,595.91,439.57c-87.21,0-216.47,8.51-290.36-18.11-110.4-39.76-148.29-90.09-148.29-163.09,0-60.85,44.6-144.9,109.42-179.62C331.7,43.92,417.11,20.46,526,20.46c134.46,0,260.65,18.34,339,69.89C913.46,122.19,944.94,173.79,944.94,220.32Z"/><path class="cls-3" d="M924.11,220.86c0,39.23-8.67,81.85-33.81,114.52-72.71,94.49-160.77,93.14-296.76,93.14-82.6,0-205,8.06-275-17.15C214,373.72,178.09,326,178.09,256.9c0-57.62,42.24-137.23,103.64-170.12,61.58-33,142.47-55.2,245.62-55.2,127.36,0,246.87,17.37,321.1,66.2C894.29,127.93,924.11,176.8,924.11,220.86Z"/></g><g id="水文字"><path class="cls-4" d="M677.86,194.45S669,175.21,663.7,175s-20.17,11.94-33.15,9.5-7.09,17.65-7.09,17.65"/><path class="cls-4" d="M639.47,229.11s-19,5-19.55,11.6,4.84,17.72,4.84,17.72,11.32-3.43,22.32-19.87"/><path class="cls-5" d="M606,231.09c67.44,33.68,111.35-1.51,111.93-14.35s-21.08-20.23-21.08-20.23C631.88,179.08,603,208,603,208s-15.14-16.51-20.26-12.94S587,218.63,587,218.63s-10.87,17.3-8.87,24.53S606,231.09,606,231.09Z"/><path class="cls-4" d="M680.52,240.13c-2.46,19.63-11,27.77-11,27.77s-9.82-7.53-12.27-13.66,12.27-19.14,12.27-19.14"/><path class="cls-6" d="M644.89,202.36c4.15,3.32,8.11,7,12.85,9.45a23.21,23.21,0,0,0,17.18,1.95,29,29,0,0,0,7.55-4,72.07,72.07,0,0,1,7.92-4.74c3.91-2,9.1-2.54,11-6.61a49,49,0,0,0-4.54-1.88c-29.11-7.81-51-6.31-66.22-2.27C635.93,195.86,640.55,198.91,644.89,202.36Z"/><path class="cls-6" d="M649.7,224.07c-6.9-6.12-16.08-7.13-24.47-10-3.5-.11-7.29.49-10.14,2.56-3.19,2.32-3.69,6.58-1.89,10,1.61,3,5,4.5,8.15,5.37a77.75,77.75,0,0,0,9.7,1.8,37.13,37.13,0,0,0,16.56-1.32c1.64-.55,3.93-1.42,4.68-3.13C653.17,227.31,651,225.24,649.7,224.07Z"/><circle class="cls-7" cx="691.06" cy="207.12" r="4.68"/><path class="cls-6" d="M700.91,222a2.85,2.85,0,0,0-3.44,1c-.9,1.12-.88,2.52-1.19,3.86a4.64,4.64,0,0,1-4.26,3.52c-1.28,0-1.29,2,0,2a6.68,6.68,0,0,0,5.61-3.48,12.89,12.89,0,0,0,.93-3.52,2.43,2.43,0,0,1,.61-1.29,1.44,1.44,0,0,1,.41-.27s.32-.07.17-.05h.15a1,1,0,0,0,1.37-.35A1,1,0,0,0,700.91,222Z"/><path class="cls-6" d="M719.59,222.64a1,1,0,0,0-1.41,0,1,1,0,0,0,0,1.41l.13.17.22.3c.14.2.27.42.4.63s.21.38.31.58.1.22.16.33l0,.05s0,.1.05.15a8.88,8.88,0,0,1,.41,1.33,5.58,5.58,0,0,1,.13.69s0,.22,0,.24l0,.38a1,1,0,0,0,2,0A10.82,10.82,0,0,0,719.59,222.64Z"/><ellipse class="cls-8" cx="711.08" cy="215.87" rx="11.28" ry="7.84" transform="translate(399.7 890.61) rotate(-82.12)"/><path class="cls-9" d="M710.3,228.59a6.85,6.85,0,0,1-2.09-.32c-5-1.54-7.65-8.15-6.13-15.06.88-4,3.09-7.32,5.91-9a7.29,7.29,0,0,1,6-.78c5,1.54,7.66,8.16,6.13,15.06-.87,4-3.08,7.33-5.9,9A7.64,7.64,0,0,1,710.3,228.59Zm1.57-22.44a4.82,4.82,0,0,0-2.38.68c-2.11,1.23-3.79,3.85-4.49,7-1.15,5.23.73,10.52,4.1,11.57a4.45,4.45,0,0,0,3.57-.51c2.11-1.22,3.79-3.85,4.49-7,1.15-5.22-.73-10.52-4.1-11.57A4.22,4.22,0,0,0,711.87,206.15Z"/><path class="cls-10" d="M676.33,207.34c-3,6.34-3.66,14.89.24,20.95a19.82,19.82,0,0,0,8,6.82c.7.34,3.36-.73,2.35-1.24-5.21-2.62-9-7.07-9.89-12.91a25,25,0,0,1,1.25-11.68,20.38,20.38,0,0,1,.93-2.39c.29-.62-2.49-.36-2.88.45Z"/><line class="cls-11" x1="599.13" y1="213.69" x2="590.94" y2="206.94"/><path class="cls-12" d="M600,213.11l-7.17-5.91-1-.84c-.66-.55-2.61.42-1.7,1.17l7.17,5.91,1,.84c.66.54,2.61-.42,1.7-1.17Z"/><line class="cls-11" x1="599.13" y1="219.18" x2="593.02" y2="218.1"/><path class="cls-12" d="M600.33,218.66l-5.34-.95-.77-.13a3.65,3.65,0,0,0-2,.39c-.21.1-1,.55-.38.66l5.34.94.77.14a3.75,3.75,0,0,0,2-.4c.21-.1,1-.54.38-.65Z"/><line class="cls-11" x1="600.66" y1="224.08" x2="590.94" y2="229.9"/><path class="cls-12" d="M600.18,223.43l-8.52,5.1-1.2.72c-.37.22-.85.67-.51,1.13a1.25,1.25,0,0,0,1.48.17l8.51-5.1,1.21-.72c.37-.22.84-.67.51-1.13a1.23,1.23,0,0,0-1.48-.17Z"/><line class="cls-11" x1="673.82" y1="244.37" x2="668.73" y2="255.8"/><path class="cls-12" d="M672.74,244.53l-4.46,10-.64,1.43c-.19.43.73.4.92.37a1.6,1.6,0,0,0,1.25-.68l4.45-10,.64-1.43c.19-.43-.73-.4-.92-.37-.42.06-1.05.25-1.24.69Z"/><line class="cls-11" x1="668.73" y1="241.98" x2="663.59" y2="248.63"/><path class="cls-12" d="M667.74,242l-4.5,5.82-.65.83c-.28.38.26.44.54.42a2.25,2.25,0,0,0,1.45-.53l4.49-5.82.65-.83c.28-.38-.26-.44-.53-.42a2.21,2.21,0,0,0-1.45.53Z"/><line class="cls-11" x1="633.28" y1="245.48" x2="627.51" y2="251.71"/><path class="cls-12" d="M632.38,245.51,627.32,251l-.71.77c-.31.33.26.43.49.43a2,2,0,0,0,1.31-.5l5.06-5.47.71-.76c.32-.34-.26-.44-.49-.44a2,2,0,0,0-1.31.5Z"/><line class="cls-11" x1="630.53" y1="242.83" x2="625.77" y2="245.98"/><path class="cls-12" d="M629.9,242.45l-4.16,2.76-.6.39c-.3.2-.55.68-.14.91a1.41,1.41,0,0,0,1.4-.15l4.16-2.75.61-.4c.3-.2.54-.68.13-.91a1.46,1.46,0,0,0-1.4.15Z"/><path class="cls-11" d="M660.05,180.7a41.81,41.81,0,0,1,3.54,7.87"/><path class="cls-12" d="M659.05,181.17c.1.15.19.32.28.48s.22.39.33.59l.4.77a54.28,54.28,0,0,1,2.44,5.85c.17.5.84.53,1.27.41s1.08-.49.9-1a53,53,0,0,0-2.47-5.93,23,23,0,0,0-1.16-2.12c-.49-.77-2.58,0-2,.94Z"/><line class="cls-11" x1="651.77" y1="184.64" x2="653.22" y2="187.73"/><path class="cls-12" d="M650.68,184.93l1.28,2.71.18.38a.71.71,0,0,0,.45.41,1.52,1.52,0,0,0,.82,0,1.45,1.45,0,0,0,.71-.41c.12-.15.28-.39.19-.58L653,184.73l-.18-.38a.7.7,0,0,0-.45-.42,1.56,1.56,0,0,0-.83,0,1.39,1.39,0,0,0-.71.42c-.12.14-.28.38-.19.58Z"/><path class="cls-13" d="M467.35,249.09c-2.06-.24-5.13-.25-6.5,1.4a9.7,9.7,0,0,0-1.66,3.9,11.33,11.33,0,0,1-1.2,3.66c-1.07,1.55-3.12,2.26-5,2.86-2.13.69-4.44,1.41-5.7,3.16-.42.59,1.59.66,1.9.67a12,12,0,0,0,2.08-.1c.33-.05,1.05-.11,1.23-.37,2.05-2.84,6.63-2.75,9.44-4.82,2.35-1.73,2.3-4.6,3.16-7a5.94,5.94,0,0,1,.93-1.78,2.79,2.79,0,0,1,.67-.61s.18-.16.28-.12-.9.15-.59.11a4.09,4.09,0,0,1-1.16.05c-.81,0-1,0-.61,0a7.41,7.41,0,0,0,3.69-.28c1-.47-.57-.71-1-.76Z"/><path class="cls-13" d="M460.06,255.49a28.17,28.17,0,0,0-10,1.82c-.51.2-1,.73-.66,1.21a1.62,1.62,0,0,0,1.77.27,23.57,23.57,0,0,1,4.19-1.2,23.23,23.23,0,0,1,4.37-.35c.59,0,1.38-.33,1.47-.9s-.63-.85-1.18-.85Z"/><path class="cls-13" d="M461.76,254.27c.72,2.93,1.89,5.86,1,8.86-.17.55.67.81,1.15.81a1.54,1.54,0,0,0,1.5-.83c1-3.14-.22-6.23-1-9.3-.26-1.06-2.91-.6-2.64.46Z"/><path class="cls-14" d="M469.36,216.2s-8.43-23.74-2.79-35.23,14.8-5.3,14.8-5.3"/><path class="cls-15" d="M500,174.58s-19-9.6-24.8,4.88a57.35,57.35,0,0,0-3.88,27.35s-.87,14.1-10.47,29.72c0,0-8.06,12.25,4,15.69s11.42-4.57,18.23-18.44,15.76-12.76,27.71-24.33S515.62,171.28,500,174.58Z"/><path class="cls-16" d="M489.3,201.55c-.74,1.48-10.28,18.85-10.95,20.37-4,9.21-8.46,15.42-13.48,24.13-2.07,3.58,4,4.29,5.6,1.59,5.26-9.11,23.82-49.41,28-59C499.18,187.1,496.83,186.44,489.3,201.55Z"/><path class="cls-16" d="M500.51,205.42a14.7,14.7,0,0,1-6,4c-2.38.74-4.88,1-7.25,1.79-1.14.37-.7,2.2.45,1.82,2.54-.83,5.25-1.08,7.77-2a17,17,0,0,0,6.36-4.28C502.67,205.91,501.36,204.57,500.51,205.42Z"/><path class="cls-16" d="M490.85,191.15a8.27,8.27,0,0,0-1.07,4.77c.23,1.61.87,3.13,1.07,4.75.1.77-1.48,1.13-1.57.35-.22-1.73-.95-3.36-1.11-5.1a9.55,9.55,0,0,1,1.18-5.07C489.73,190.08,491.23,190.37,490.85,191.15Z"/><path class="cls-16" d="M480.73,195.8l-.43,13.59a.94.94,0,0,0,1.88.06l.43-13.6A.94.94,0,0,0,480.73,195.8Z"/><path class="cls-16" d="M504.92,194.34l-7.14,4.74c-.63.42-1.67-1.14-1-1.57l7.2-3.93C504.59,193.16,505.55,193.92,504.92,194.34Z"/><path class="cls-13" d="M403,243.58c1.86,1.36,4.34,3.68,4.2,6A10.72,10.72,0,0,1,405.6,254a12.81,12.81,0,0,0-1.79,3.88c-.31,2.06.81,4.17,1.85,6.05,1.2,2.17,2.52,4.5,2.21,6.87-.1.8-1.78-.67-2-.9a13.86,13.86,0,0,1-1.6-1.65c-.23-.28-.76-.88-.72-1.23.5-3.84-3.27-7.23-4-11-.59-3.18,1.62-5.46,2.72-8a6.37,6.37,0,0,0,.6-2.13,3.38,3.38,0,0,0-.08-1s0-.26-.13-.31.6.8.38.53a4.62,4.62,0,0,0,.9.92c.68.59.84.74.49.47a8.22,8.22,0,0,1-2.77-3c-.42-1.11,1-.15,1.37.13Z"/><path class="cls-13" d="M404.07,254.26a30.92,30.92,0,0,1,6.66,9c.27.54.28,1.35-.37,1.47s-1.36-.54-1.64-1.12a24.64,24.64,0,0,0-5.74-7.72c-.48-.45-.87-1.31-.51-1.83s1.15-.21,1.6.2Z"/><path class="cls-13" d="M403.62,252c-2.8,1.82-6,3.3-7.48,6.42-.28.57-1.16.15-1.54-.22a1.69,1.69,0,0,1-.58-1.81c1.59-3.26,4.88-4.86,7.81-6.77,1-.65,2.8,1.72,1.79,2.38Z"/><circle class="cls-14" cx="412.9" cy="213.41" r="38.41"/><path class="cls-15" d="M403.2,175s20.09,1.16,20.42,11.7,9.55,12.87,10.87,18.79,5.6,12,0,22.45-2.33,22.45-21.59,23.87-39.73-10.1-42.32-26.24S370.25,186.68,403.2,175Z"/><path class="cls-16" d="M386.72,246s-10.18-20.46,14.61-53.38c0,0,2.44.72,0,5.1s-16.32,30.59-7.8,48.87C393.53,246.58,394.38,251.51,386.72,246Z"/><path class="cls-16" d="M385.76,234.53a21.14,21.14,0,0,0,5,2.71,28.12,28.12,0,0,0,12.69,2,32.81,32.81,0,0,0,10-2.4c.3-.12,1.31-.51.92-1s-1.68,0-2,.14a24.19,24.19,0,0,1-13.68,1.51,25.77,25.77,0,0,1-8.52-3.19,13.29,13.29,0,0,1-1.41-.94c-.5-.38-1.54,0-2.05.14-.22.08-1.39.6-.92,1Z"/><path class="cls-16" d="M393.31,206.63a12.94,12.94,0,0,0,3.94,1.61,22.38,22.38,0,0,0,10.85-.14,30.84,30.84,0,0,0,8.23-3.45c.55-.31.36-.72-.2-.77a3.88,3.88,0,0,0-2.24.6,19.68,19.68,0,0,1-10.33,3,16.19,16.19,0,0,1-3.73-.51,15.49,15.49,0,0,1-1.51-.46l-.6-.23-.22-.1-.15-.06a6.89,6.89,0,0,1-1.07-.58c-.54-.36-1.5-.07-2,.14-.19.07-1.42.64-.92,1Z"/><path class="cls-16" d="M388.15,221.89a31,31,0,0,0,6.22,1.52,63.52,63.52,0,0,0,17.31.43,79.65,79.65,0,0,0,13.94-2.78,7.59,7.59,0,0,0,2.15-.92c.26-.18.83-.61.72-1-.27-1-2.92-.41-3.45-.25-.94.28-1.88.54-2.83.78l-1.5.37-.5.11c.9-.15-.2,0-.37.08-1.74.35-3.5.65-5.27.87-.18,0-.71.11,0,0l-.66.07-1.09.1c-.84.07-1.67.13-2.51.17l-2.18.06h-.58c.62,0,.26,0,.12,0l-1.29,0a61.41,61.41,0,0,1-7-.64c-.45-.06.41.07.11,0l-.32-.05-.72-.13-1.2-.24c-.68-.15-1.36-.31-2-.5a18.14,18.14,0,0,1-1.9-.59,4.59,4.59,0,0,0-2,0,8.12,8.12,0,0,0-2.4.77c-.69.36-2.06,1.29-.73,1.8Z"/><path class="cls-16" d="M388.46,234.83a12.37,12.37,0,0,1-3.86.46,10,10,0,0,1-6.94-2.72,12.41,12.41,0,0,1-3.06-5.34c-.06-.21-.28-.86.17-1.09s.76.56.84.81a8.3,8.3,0,0,0,5.23,5.87,11.63,11.63,0,0,0,5.76.38,9.32,9.32,0,0,0,1.2-.27c.46-.13.72.48.84.81.05.14.26,1-.18,1.09Z"/><path class="cls-16" d="M396.65,207.73a9.77,9.77,0,0,1-3.51-.65,14.65,14.65,0,0,1-6.89-5.42,22.35,22.35,0,0,1-3.21-6.77c-.16-.52.21-.75.6-.52a2.79,2.79,0,0,1,1.07,1.57,13.71,13.71,0,0,0,4.84,7.43,11,11,0,0,0,2.71,1.43c.41.14.83.26,1.25.36l.52.11.21,0,.14,0a6.94,6.94,0,0,0,1,.07c.57,0,1,.67,1.23,1.1.08.15.53,1.21,0,1.23Z"/><path class="cls-16" d="M389.75,221.66a12,12,0,0,1-3.71-.92,20.52,20.52,0,0,1-8-5.57,29.07,29.07,0,0,1-4.59-7,3.66,3.66,0,0,1-.4-1.46,1.5,1.5,0,0,1,.29-1.07c.74-.72,1.56.67,1.71,1,.25.55.51,1.08.79,1.59.15.27.3.54.46.81.05.08.1.18.15.25-.31-.42.07.11.12.19a24.4,24.4,0,0,0,1.84,2.5h0a3.45,3.45,0,0,0,.26.28l.42.45c.33.34.68.67,1,1s.62.54.94.8l.26.2c-.29-.2-.11-.09,0,0l.59.42a20.37,20.37,0,0,0,3.54,1.9c.25.1-.22-.09-.05,0l.17.07.4.14.69.22c.4.12.8.22,1.21.3a7.83,7.83,0,0,0,1.21.18c.38,0,.72.43.91.69a3.39,3.39,0,0,1,.62,1.43c.09.53.14,1.73-.77,1.69Z"/><path class="cls-17" d="M657.33,295.53a2.21,2.21,0,0,1-.57.22,9.27,9.27,0,0,1-1.47.25l-.87.05-1.21.05c-.43,0-.82,0-1.18,0a4.89,4.89,0,0,1-.74-.06.69.69,0,0,0-.21.42,8.76,8.76,0,0,0-.4.84l-.5,1.2c-.18.44-.35.88-.51,1.31s-.28.81-.38,1.13a2.4,2.4,0,0,0-.16.67,4.66,4.66,0,0,0-.26,1c0,.26-.08.42-.16.47a.4.4,0,0,1-.43.35.72.72,0,0,1-.56-.21,1.43,1.43,0,0,1-.7-.67,1.23,1.23,0,0,1,0-.93q.06-.3.24-.9l.4-1.33c.15-.49.31-1,.47-1.42a11.59,11.59,0,0,1,.48-1.14,2.88,2.88,0,0,0,.33-.81,4.07,4.07,0,0,1,.19-.67.9.9,0,0,1,0-.34,1,1,0,0,1,.19-.29,2.33,2.33,0,0,0,.29-.34,4.28,4.28,0,0,0,.41-.77c0-.15.12-.37.23-.64s.2-.56.29-.85.18-.54.26-.74a1.75,1.75,0,0,0,.11-.33,2.6,2.6,0,0,0,.15-.36c.06-.18.11-.33.14-.44l.15-.54c0-.14,0-.21,0-.21a4,4,0,0,1-.75.07l-.41.06-.22,0a.94.94,0,0,1-.42,0,.27.27,0,0,1-.19-.28,2.14,2.14,0,0,1,.27-.78.69.69,0,0,1,.57-.42,3,3,0,0,1,.37-.08l.55-.13a2.22,2.22,0,0,1,.79-.06,2.59,2.59,0,0,1,.48.08l.2-.15a.41.41,0,0,0,.1-.18,1.1,1.1,0,0,1,.43-.64,1.13,1.13,0,0,1,.64-.24.73.73,0,0,1,.55.19.63.63,0,0,1,.12.64.17.17,0,0,0,0,.12s.15,0,.36,0l1.12-.22c.28,0,.64-.07,1.07-.1a3.08,3.08,0,0,1,1,.07,4.86,4.86,0,0,1,.72-.06.62.62,0,0,0,.43-.08c.33.07.57.11.72.13a.74.74,0,0,1,.36.15.26.26,0,0,1,0,.26c-.06,0-.07,0,0,0a1.08,1.08,0,0,1,.19.13.32.32,0,0,1,.18.29,2.26,2.26,0,0,1,0,.45l-.06.29a.27.27,0,0,1-.24.25,7.73,7.73,0,0,1-1.06,0,10.11,10.11,0,0,0-1.86-.1c-.58,0-1.29.1-2.15.22a5.78,5.78,0,0,0-1.25.23c-.06,0-.17.11-.33.32a3.69,3.69,0,0,0-.44.93,6.94,6.94,0,0,0-.32.68c-.15.35-.3.72-.46,1.12l-.42,1.05a2.39,2.39,0,0,1-.24.51,4.25,4.25,0,0,0,1,.09q.69,0,1.53-.06l1.6-.12c.24-.05.48-.09.73-.12a2.76,2.76,0,0,1,.52,0,.51.51,0,0,1,.42.37,1.3,1.3,0,0,1,.09.7A.63.63,0,0,1,657.33,295.53Z"/><path class="cls-17" d="M659.89,302.2a1.17,1.17,0,0,1-.27-.56,3.12,3.12,0,0,1-.06-.74,1.61,1.61,0,0,1,.12-.55.61.61,0,0,1,.06-.3.24.24,0,0,0,0-.2.74.74,0,0,1,.05-.32c0-.16.09-.31.14-.45s.24-.58.38-1,.28-.8.42-1.22.26-.77.35-1.08.15-.49.17-.55.12-.29.37-.31a.75.75,0,0,1,.68.24,3,3,0,0,1,.64.7.57.57,0,0,1,.14.5,3.42,3.42,0,0,1-.31.87,4.86,4.86,0,0,0-.22.62,5.09,5.09,0,0,0-.17.72,4.78,4.78,0,0,0-.23.52c-.08.23-.16.45-.22.65a2.31,2.31,0,0,0-.09.43l-.12.65a1.72,1.72,0,0,1-.19.52c-.14.64-.39,1-.74,1.13A.86.86,0,0,1,659.89,302.2Zm2.54-9.42a1.29,1.29,0,0,1-.39-.45,1.32,1.32,0,0,1-.14-.49c0-.14,0-.22,0-.26a2.4,2.4,0,0,0,.41-.68,5,5,0,0,1,.38-.77,1.4,1.4,0,0,0,.13-.2.3.3,0,0,1,.18-.15.82.82,0,0,1,.79,0,1.59,1.59,0,0,1,.74.59,1.51,1.51,0,0,1,.13.91,2.24,2.24,0,0,1-.51,1,1.55,1.55,0,0,1-.89.6A1,1,0,0,1,662.43,292.78Z"/><path class="cls-17" d="M666.85,302.74a3.59,3.59,0,0,1-1.17-.69c-.24-.24-.34-.46-.29-.65a.56.56,0,0,1,.16-.25.76.76,0,0,1,.53-.11,7,7,0,0,1,1.28.22,4.52,4.52,0,0,0,.52,0l.48-.07a1.26,1.26,0,0,0,.36-.12c.08,0,.11-.07.07-.13a.61.61,0,0,0-.16-.17.46.46,0,0,0-.21-.16l-.21,0a.61.61,0,0,0-.2-.24l-.37-.25c-.34-.29-.65-.54-.94-.76s-.39-.38-.32-.49v-.12c-.11,0-.22-.15-.31-.45a3.07,3.07,0,0,1-.14-.84,2.48,2.48,0,0,1,.2-.94,3.83,3.83,0,0,1,.52-.89,7,7,0,0,1,.64-.75c.3-.29.62-.56,1-.84a7.93,7.93,0,0,1,1.11-.74,5.49,5.49,0,0,1,1.32-.51,3.45,3.45,0,0,1,.76-.07,1.32,1.32,0,0,1,.61.11.44.44,0,0,1,.47.06,3.34,3.34,0,0,1,.56.48,2.39,2.39,0,0,1,.42.61c0,.19,0,.42,0,.7a6.52,6.52,0,0,1-.06.71c0,.21-.1.31-.21.31a.13.13,0,0,0-.12.14.78.78,0,0,1-.35.54,6.43,6.43,0,0,1-.84.49c-.27.13-.47.14-.61,0a2,2,0,0,1-.26-.19.83.83,0,0,1-.21-.24.74.74,0,0,1-.12-.3.44.44,0,0,1,.14-.26,3,3,0,0,0,.5-.56,2.41,2.41,0,0,0,.25-.46.93.93,0,0,0,.07-.32c0-.09,0-.15-.06-.17a.45.45,0,0,0-.24,0,1.54,1.54,0,0,0-.51.19,6.84,6.84,0,0,0-.81.46,5.74,5.74,0,0,0-.66.48,1.15,1.15,0,0,1-.13.21.14.14,0,0,1-.13.05c0-.07,0-.06-.11,0a3.73,3.73,0,0,0-.29.33,5.15,5.15,0,0,0-.32.45l-.26.37a1.25,1.25,0,0,1-.11.39.76.76,0,0,0-.06.36.77.77,0,0,0,.24.45c.14.14.34.32.61.54q.82.61,1.23,1a4.47,4.47,0,0,1,.58.57,1,1,0,0,1,.21.42,1.23,1.23,0,0,1,.09,1.26,1.94,1.94,0,0,1-.94.81,3.71,3.71,0,0,1-.82.22,6.14,6.14,0,0,1-1.23.09A2.69,2.69,0,0,1,666.85,302.74Z"/><path class="cls-17" d="M675.91,301.71a.47.47,0,0,1-.36-.13l-.37-.27a2.35,2.35,0,0,1-.32-.49,1,1,0,0,1-.1-.47,4.82,4.82,0,0,1,0-.61c.08-.25.17-.59.28-1s.24-.88.4-1.37a4.28,4.28,0,0,1,.18-.67q.12-.37.27-.75l.21-.55c.11-.39.22-.77.34-1.13s.26-.77.43-1.24.39-1.07.64-1.79l.77-2.11c.17-.47.3-.81.38-1a3.84,3.84,0,0,0,.16-.49c0-.13.09-.25.27-.37a.9.9,0,0,1,.48-.18,1,1,0,0,1,.64.39,2.2,2.2,0,0,1,.42.87,1.31,1.31,0,0,1-.16,1c-.25.56-.5,1.19-.74,1.89s-.48,1.39-.72,2.08-.47,1.32-.7,1.9a2.44,2.44,0,0,1-.16.4c-.08.19-.16.34-.22.47l-.26.52c0,.09-.05.22-.09.39s-.1.33-.14.45l-.07.31a1.61,1.61,0,0,0-.07.37,3,3,0,0,1,.32-.34l.54-.5.66-.57q.28-.23.57-.42l.7-.52.11-.16a.29.29,0,0,1,.13-.12l.16-.13.24-.17a1.88,1.88,0,0,1,.44-.24,2.63,2.63,0,0,1,.5-.14,2.81,2.81,0,0,1,.49,0,1,1,0,0,1,.59.23,2.28,2.28,0,0,1,.56.62,1.45,1.45,0,0,1,.29.71,4.88,4.88,0,0,1,0,1.1,4.12,4.12,0,0,1-.1.7q-.1.53-.15.78l-.21.8h.18a1.24,1.24,0,0,1,.75,0l.23.17a.81.81,0,0,0,.2.14c.09.12.08.3,0,.54a1.23,1.23,0,0,1-.42.49,3,3,0,0,1-1,.47,1.32,1.32,0,0,1-.91-.16,1.56,1.56,0,0,1-.59-.73,2.93,2.93,0,0,1-.13-1.15c.06-.69.1-1.19.11-1.49s-.06-.46-.23-.46a1.69,1.69,0,0,0-.76.27,7.58,7.58,0,0,0-1.07.73,15,15,0,0,0-1.17,1,12.86,12.86,0,0,0-1,1.11c-.19.24-.39.47-.61.7A1.19,1.19,0,0,1,675.91,301.71Z"/><path class="cls-18" d="M618.66,291.29A1,1,0,0,1,619,290a21.14,21.14,0,0,0,5.21-6.8,1.87,1.87,0,0,1,2.59-1,1.54,1.54,0,0,1,1,2.13h2.06a2.25,2.25,0,0,1,2.67-.39,1.83,1.83,0,0,1,.65,2.84,13.66,13.66,0,0,1-1.31,1.67h3.93a1.42,1.42,0,0,1,1.57,1.57V297a1.42,1.42,0,0,1-1.57,1.57H622.85a1.42,1.42,0,0,1-1.58-1.57v-6c-.46.24-.92.48-1.4.7A.86.86,0,0,1,618.66,291.29Zm4.92,9a11.48,11.48,0,0,1-1.87,3.71,1.67,1.67,0,0,1-2.64.24,1.5,1.5,0,0,1,.17-2.37,17.66,17.66,0,0,0,2.5-2.59,1,1,0,0,1,1.35-.34A1,1,0,0,1,623.58,300.25Zm5.76-13.78h-2.91a15.42,15.42,0,0,1-1.84,2h4.19a17.93,17.93,0,0,0,.78-1.7C629.63,286.59,629.53,286.47,629.34,286.47Zm-2,6.08v-2h-2a.28.28,0,0,0-.29.29v1.72Zm-2,4h2v-2.06H625.1v1.77A.28.28,0,0,0,625.39,296.55Zm3.68,6c.34.89,0,1.69-1.14,2a1.43,1.43,0,0,1-2-1.21c-.21-1.29-.41-2.59-.53-3.42a.92.92,0,0,1,.68-1,1,1,0,0,1,1.21.36A15,15,0,0,1,629.07,302.58Zm5.06-.39a1.44,1.44,0,0,1-.82,2.3,1.46,1.46,0,0,1-2.18-1.11c-.31-1.17-.63-2.35-.9-3.18a.93.93,0,0,1,.49-1.16,1,1,0,0,1,1.28.2A14.89,14.89,0,0,1,634.13,302.19Zm-.92-11.65h-2.1v2h2.39v-1.72A.28.28,0,0,0,633.21,290.54Zm.29,5.72v-1.77h-2.39v2.06h2.1A.28.28,0,0,0,633.5,296.26Zm5.69,8a1.54,1.54,0,0,1-2.44-.8c-.46-1.12-1-2.18-1.41-3.22a1,1,0,0,1,.29-1.26,1,1,0,0,1,1.34.05,18.23,18.23,0,0,1,2.66,2.73A1.58,1.58,0,0,1,639.19,304.3Z"/><path class="cls-17" d="M415.68,304a.3.3,0,0,1-.17-.14,1.62,1.62,0,0,1-.09-.37.48.48,0,0,0-.14-.38,1.43,1.43,0,0,0-.54-.21,2,2,0,0,1-.43-.6,3.82,3.82,0,0,1-.25-1.1c-.07-.51-.13-1.27-.19-2.27,0-.55.06-1,.08-1.39s.05-.73.08-1.05.07-.69.11-1.06.1-.85.17-1.41a4.84,4.84,0,0,1,.06-1.18,3,3,0,0,0,0-1,5,5,0,0,0,.21-1.18,5.07,5.07,0,0,1,.21-1.19c0-.26.07-.52.11-.75a3.66,3.66,0,0,0,.06-.59,2.4,2.4,0,0,1,.1-1,1.18,1.18,0,0,1,.67-.76,1.37,1.37,0,0,1,.39,0,1.41,1.41,0,0,1,.39,0,.68.68,0,0,1,.43.52,2.74,2.74,0,0,1,0,.61,6.91,6.91,0,0,1,.06.89c0,.43,0,.89-.05,1.4a10.29,10.29,0,0,1-.23,1.49c-.12.65-.22,1.3-.29,2s-.12,1.32-.15,2c-.06,1.28-.13,2.35-.19,3.19a10.27,10.27,0,0,0,0,1.83,1.56,1.56,0,0,0,0,.2.53.53,0,0,0,.06.21c0,.06.07.09.11.09a.27.27,0,0,0,.16-.14c0-.08.08-.2.14-.36s.13-.33.22-.54c.21-.39.41-.82.62-1.28s.4-.9.56-1.32a14.19,14.19,0,0,1,.84-1.7,13.5,13.5,0,0,0,.8-1.57,9.88,9.88,0,0,1,.51-1.09c.24-.48.47-.92.69-1.33l.76-1.17c.24-.38.53-.88.86-1.51a10.67,10.67,0,0,1,1.17-1.65,1.31,1.31,0,0,1,.87-.53,1.1,1.1,0,0,1,.44,0,.55.55,0,0,1,.34.27,1.29,1.29,0,0,1,.23.58,1.69,1.69,0,0,1-.15.85,6.68,6.68,0,0,1-.81,1.38c-.31.48-.66,1-1,1.65s-.74,1.22-1.06,1.77-.55,1-.69,1.24-.15.35-.22.54a1.5,1.5,0,0,1-.28.51,4.9,4.9,0,0,0-.63,1l-.78,1.53c-.28.66-.5,1.17-.67,1.54s-.3.67-.4.9l-.29.68-.35.83a2.52,2.52,0,0,1-.32.68,1.2,1.2,0,0,0-.22.42,2.05,2.05,0,0,1-.58.54,4.1,4.1,0,0,1-.81.45A.79.79,0,0,1,415.68,304Z"/><path class="cls-17" d="M428.34,302.13a3.5,3.5,0,0,1-1.49.46,3.25,3.25,0,0,1-1.47-.21,2.61,2.61,0,0,1-1.11-.81,3.39,3.39,0,0,1-.44-1,4.35,4.35,0,0,1-.07-1.82,7.18,7.18,0,0,1,.67-2.18,7.63,7.63,0,0,1,1.3-1.95,4.06,4.06,0,0,1,1.69-1.15,4.16,4.16,0,0,1,.67-.18,3.81,3.81,0,0,1,.91,0,3.37,3.37,0,0,1,1,.27,1.71,1.71,0,0,1,.61.43,1.77,1.77,0,0,1,.59,1.41,4.31,4.31,0,0,1-.67,1.63,3.43,3.43,0,0,1-1.54,1.29,3.17,3.17,0,0,1-.94.21,5.85,5.85,0,0,1-1.48-.14c-.38-.08-.62,0-.74.11a1.53,1.53,0,0,0-.15.92,2.29,2.29,0,0,0,.2.74.85.85,0,0,0,.57.44,1.84,1.84,0,0,0,.78,0l.59-.25a4.06,4.06,0,0,0,.36-.26l.35-.28.3-.21a.57.57,0,0,1,.23-.12l.24,0a.76.76,0,0,1,.49.28,1.32,1.32,0,0,1,.3.49,1,1,0,0,1-.23.53,5.41,5.41,0,0,1-.62.71A5.49,5.49,0,0,1,428.34,302.13Zm-.31-5.24a2,2,0,0,0,.48-.32,4.42,4.42,0,0,0,.58-.56.84.84,0,0,0,.26-.46c0-.17-.11-.32-.34-.44a1.21,1.21,0,0,0-.88-.07,1.19,1.19,0,0,0-.45.26c-.17.14-.34.3-.52.48a6.09,6.09,0,0,0-.44.51,3.2,3.2,0,0,0-.26.39.7.7,0,0,0,.38.19,3,3,0,0,0,1.19,0Z"/><path class="cls-17" d="M435.5,307.3a1.65,1.65,0,0,1-1.37-.08,3.21,3.21,0,0,1-1.23-1.07,4.07,4.07,0,0,1-.29-.51q-.18-.36-.36-.78a6.69,6.69,0,0,1-.26-.73c-.05-.2-.06-.32,0-.35a.46.46,0,0,1,.42-.31,1.64,1.64,0,0,1,.66,0c.22.05.34.13.38.22s.09.22.14.34a1.29,1.29,0,0,0,.17.33l.2.27a1.48,1.48,0,0,0,.57.55.48.48,0,0,0,.47,0,2.27,2.27,0,0,0,.6-.72,12.9,12.9,0,0,0,.52-1.44c.18-.58.33-1.08.45-1.51s.26-.81.4-1.17a2.2,2.2,0,0,1,.18-.48,1.11,1.11,0,0,1,.2-.3h.14a5.47,5.47,0,0,0-.87.66,3.28,3.28,0,0,1-1,.59c-.09.11-.32.17-.69.2a3,3,0,0,1-1.07-.13,3,3,0,0,1-.53-.39,1.52,1.52,0,0,1-.32-.46,5.21,5.21,0,0,1-.27-.61,2.14,2.14,0,0,1-.05-1.15,8.05,8.05,0,0,1,.42-1.6,7.24,7.24,0,0,1,.82-1.27,11.28,11.28,0,0,1,1.15-1.23,2.9,2.9,0,0,1,1.11-.69,4.15,4.15,0,0,1,.66-.23,1.79,1.79,0,0,1,.89,0,1.47,1.47,0,0,1,.61.18,6.32,6.32,0,0,1,.68.53c.2.2.45.46.75.79a2.63,2.63,0,0,1,.57.81,1.15,1.15,0,0,1,.07.76,2.16,2.16,0,0,1-.33.72c-.14.2-.29.4-.45.61a2,2,0,0,0-.35.84,8.9,8.9,0,0,1-.45,1.59,14.16,14.16,0,0,0-.51,1.63l-.38,1.46a9,9,0,0,1-1.29,2.9A4.41,4.41,0,0,1,435.5,307.3Zm-.49-8.08a4.41,4.41,0,0,0,.81-.11,1.44,1.44,0,0,0,.65-.37,5.38,5.38,0,0,0,.7-.91,4.16,4.16,0,0,0,.57-1,2.77,2.77,0,0,0,.11-1.06.56.56,0,0,0-.21-.49.7.7,0,0,0-.49-.07,1.67,1.67,0,0,0-.8.36,5.58,5.58,0,0,0-.82.91,4.15,4.15,0,0,0-.59,1.13,2.94,2.94,0,0,0-.2,1.12C434.76,299,434.85,299.16,435,299.22Z"/><path class="cls-17" d="M447.08,302.13a3.42,3.42,0,0,1-1.49.46,3.29,3.29,0,0,1-1.47-.21,2.58,2.58,0,0,1-1.1-.81,3.36,3.36,0,0,1-.45-1,4.53,4.53,0,0,1-.07-1.82,7.47,7.47,0,0,1,.67-2.18,7.93,7.93,0,0,1,1.31-1.95,4,4,0,0,1,1.69-1.15,3.9,3.9,0,0,1,.67-.18,3.74,3.74,0,0,1,.9,0,3.54,3.54,0,0,1,1,.27,1.8,1.8,0,0,1,.61.43,2,2,0,0,1,.49.73,1.66,1.66,0,0,1,.09.68,4.15,4.15,0,0,1-.67,1.63,3.4,3.4,0,0,1-1.53,1.29,3.17,3.17,0,0,1-.94.21,5.81,5.81,0,0,1-1.48-.14c-.38-.08-.63,0-.74.11a1.6,1.6,0,0,0-.16.92,2.29,2.29,0,0,0,.2.74.87.87,0,0,0,.58.44,1.79,1.79,0,0,0,.77,0c.16-.06.36-.14.59-.25a3.09,3.09,0,0,0,.37-.26l.35-.28.29-.21a.68.68,0,0,1,.24-.12l.23,0a.74.74,0,0,1,.49.28,1.36,1.36,0,0,1,.31.49,1.06,1.06,0,0,1-.24.53,4.24,4.24,0,0,1-.62.71A5.06,5.06,0,0,1,447.08,302.13Zm-.3-5.24a2,2,0,0,0,.48-.32,6.16,6.16,0,0,0,.58-.56.84.84,0,0,0,.26-.46c0-.17-.12-.32-.35-.44a1.21,1.21,0,0,0-.88-.07,1.24,1.24,0,0,0-.44.26,4.62,4.62,0,0,0-.52.48q-.26.27-.45.51a2.87,2.87,0,0,0-.25.39.66.66,0,0,0,.37.19,3,3,0,0,0,1.2,0Z"/><path class="cls-17" d="M453.24,302.63a1.3,1.3,0,0,1-.56-.32,3.62,3.62,0,0,1-.56-.61,2,2,0,0,1-.31-.58s0-.09-.12-.19-.1-.25-.11-.62,0-.78.06-1.23a7.71,7.71,0,0,1,.17-1.08c.08-.25.19-.59.35-1s.29-.82.4-1.17l.63-1.36-.94-.26A.47.47,0,0,1,452,294a.4.4,0,0,1-.1-.23,1.17,1.17,0,0,1,.21-.54c.14-.24.24-.35.3-.35l.44,0,.62,0a2.29,2.29,0,0,0,.38-.05.92.92,0,0,0,.19-.13.59.59,0,0,0,.14-.25,2.84,2.84,0,0,1,.21-.4c.06-.09.15-.23.26-.42l.27-.51a5.4,5.4,0,0,1,.34-.59l.26-.4a1.35,1.35,0,0,1,.35-.4,1.31,1.31,0,0,1,.69-.27,1,1,0,0,1,.83.22.94.94,0,0,1,.22.45,1,1,0,0,1-.19.54,4,4,0,0,1-.44.72,5.4,5.4,0,0,0-.45.71c-.26.35-.3.54-.15.59a4.14,4.14,0,0,0,1.32-.1,1.21,1.21,0,0,1,1,.15,1,1,0,0,1,.35.65q.08.57-.12.69a3,3,0,0,1-1.08.11,8.32,8.32,0,0,1-1,.11h-.59l-.4,0a1.38,1.38,0,0,0-.28.05.44.44,0,0,0-.27.15,1.81,1.81,0,0,0-.18.3,2.25,2.25,0,0,0-.28.49,7.64,7.64,0,0,1-.47.87c-.22.66-.4,1.29-.55,1.89s-.28,1.2-.39,1.8a1,1,0,0,0,0,.64c.07.14.27.22.6.25a4.83,4.83,0,0,0,.75,0,4,4,0,0,0,.82-.13l.54-.25a3.63,3.63,0,0,0,.52-.27l.63-.37c.08-.13.19-.11.34.05a1.57,1.57,0,0,1,.32.53,2.26,2.26,0,0,1-.12.67q-.12.39-.87.81a5.24,5.24,0,0,1-2.11.8A5.58,5.58,0,0,1,453.24,302.63Z"/><path class="cls-17" d="M461.09,302.11a1.06,1.06,0,0,0-.42-.38c-.21-.12-.31-.22-.31-.28a.76.76,0,0,0-.11-.29,1.72,1.72,0,0,0-.2-.3c-.08-.09-.05-.32.07-.69s.32-.82.57-1.35.52-1.07.82-1.62a3,3,0,0,0,.37-.49,2,2,0,0,1,.29-.4.26.26,0,0,1,.07-.18.21.21,0,0,1,.16-.08l.19-.38a2.41,2.41,0,0,1,.29-.37q.25-.29.6-.63c.24-.22.48-.44.72-.64a5.78,5.78,0,0,1,.6-.45,1.64,1.64,0,0,1,1-.3,1.42,1.42,0,0,1,.9.33l.32.28.56.47c.22.17.4.33.56.47l.87.77-.4,1.18a3.23,3.23,0,0,0-.17,1.64,3.82,3.82,0,0,0,.45,1.22.87.87,0,0,0,.32.4,1.07,1.07,0,0,0,.52.19.8.8,0,0,1,.36.14.43.43,0,0,1,.16.38,1.34,1.34,0,0,1-.2.81.77.77,0,0,1-.43.29,3.2,3.2,0,0,1-1.48-.16,2.6,2.6,0,0,1-1.27-1.34,3.42,3.42,0,0,1-.25-.53,3.13,3.13,0,0,1-.17-.51l-.25.3c-.1.11-.2.22-.3.31a9.9,9.9,0,0,1-2.85,2.2A2,2,0,0,1,461.09,302.11Zm1.8-2.13a6.43,6.43,0,0,0,.94-.67l1.32-1.12a6.9,6.9,0,0,0,1-1.15l.52-.85a2.14,2.14,0,0,0-.43-.71.55.55,0,0,0-.37-.16,1.17,1.17,0,0,0-.73.39,7.46,7.46,0,0,0-.95,1.12c-.35.5-.75,1.11-1.19,1.85a8.57,8.57,0,0,0-.63,1.48A.93.93,0,0,0,462.89,300Z"/><path class="cls-17" d="M475.2,302.46a1.41,1.41,0,0,1-.74-.25,1.33,1.33,0,0,1-.41-.5,1,1,0,0,1-.22-.33.38.38,0,0,1,0-.21H474a.15.15,0,0,0,.12-.08c0-.05,0-.08.08-.1h.18a2.19,2.19,0,0,0,1.09-.3,9.45,9.45,0,0,0,1.42-.93c.52-.4,1-.84,1.55-1.31s.69-.92.86-1.17a1.43,1.43,0,0,0,.26-.58.82.82,0,0,0-.11-.41q-.09-.18-.45-.18a2.35,2.35,0,0,0-1.08.47,12.76,12.76,0,0,0-1.62,1.17A8.78,8.78,0,0,0,475.2,299c-.12.16-.26.33-.41.51l-.53.64q0,.09-.27.24a1.08,1.08,0,0,1-.45.14,1,1,0,0,1-.25-.18.59.59,0,0,1-.2-.34l-.35-.29a.56.56,0,0,1-.14-.44,2.4,2.4,0,0,1,.06-.47c0-.18.09-.43.17-.73s.2-.83.31-1.28.21-.83.31-1.15a1.72,1.72,0,0,1,.23-.53,1.89,1.89,0,0,0,.19-.7,1.66,1.66,0,0,1,.15-.49.81.81,0,0,0,.1-.31,1.48,1.48,0,0,0,.29-.56l.47-1.29a2,2,0,0,1,.16-.46c.11-.26.24-.57.4-.92s.32-.72.48-1.1.3-.73.41-1a5.3,5.3,0,0,0,.48-.82,1.07,1.07,0,0,1,.37-.48,1,1,0,0,1,.41.1,5.59,5.59,0,0,1,.6.3,1.33,1.33,0,0,1,.42.38.58.58,0,0,1,.08.23,1,1,0,0,1-.1.39c-.08.18-.21.47-.4.87l-.8,1.68c-.44.94-.78,1.72-1,2.35s-.44,1.17-.59,1.62-.3.89-.46,1.29l-.12.52.61-.68c.16-.16.33-.31.5-.45s.36-.28.56-.42a2.89,2.89,0,0,1,.51-.29,6.64,6.64,0,0,1,.62-.28,4,4,0,0,1,.45-.14l.48-.1a3.71,3.71,0,0,1,.81-.08,1.29,1.29,0,0,1,.9.36,4.17,4.17,0,0,1,.7.88,2.25,2.25,0,0,1,.18,1.26,2.89,2.89,0,0,1-.4,1.3,1.94,1.94,0,0,0-.23.25.44.44,0,0,0-.12.24,1.85,1.85,0,0,1-.42.67c-.27.34-.53.66-.8,1a7.84,7.84,0,0,1-1,.88,12.77,12.77,0,0,1-1.21.77,5.31,5.31,0,0,1-1,.48l-.54.09Z"/><path class="cls-17" d="M484.76,302.86a.75.75,0,0,1-.79-.25,2.06,2.06,0,0,1-.5-1.06,3.88,3.88,0,0,1,0-1.58,4.5,4.5,0,0,0,.19-.55,2.29,2.29,0,0,0,.07-.44,6.61,6.61,0,0,1,.19-.69c.09-.3.19-.62.3-1s.22-.62.32-.88.17-.42.2-.48.12-.06.16-.17a.78.78,0,0,0,.07-.33,1.22,1.22,0,0,1,.09-.42,1,1,0,0,1,.17-.33.74.74,0,0,1,.06-.27.69.69,0,0,0,.06-.24.33.33,0,0,1,.06-.19.35.35,0,0,0,.06-.19c.11-.2.25-.53.43-1s.38-.95.59-1.5.41-1.08.6-1.62.34-1,.46-1.35a4,4,0,0,0,.17-.67.56.56,0,0,1,.14-.35.44.44,0,0,1,.33-.16.59.59,0,0,1,.33-.11l.35,0,.38.38a3.28,3.28,0,0,1,.36.38.72.72,0,0,1,.18.49,2.33,2.33,0,0,1-.08.59c-.06.18-.16.44-.3.76s-.36.8-.65,1.42c-.13.32-.26.61-.4.88a1.68,1.68,0,0,0-.22.51.71.71,0,0,1-.08.28c-.05.12-.11.28-.17.47s-.15.31-.26.55-.23.5-.34.78l-.3.7a2.54,2.54,0,0,0-.11.34,1.23,1.23,0,0,1,0,.19.3.3,0,0,1-.1.19c-.06,0-.1.08-.12.26a5.49,5.49,0,0,1-.37,1.24c-.26.86-.49,1.65-.7,2.37a6.52,6.52,0,0,0-.31,1.74,1.71,1.71,0,0,1-.18.87A1,1,0,0,1,484.76,302.86Z"/><path class="cls-17" d="M493.67,302.13a3.5,3.5,0,0,1-1.49.46,3.25,3.25,0,0,1-1.47-.21,2.61,2.61,0,0,1-1.11-.81,3.39,3.39,0,0,1-.44-1,4.35,4.35,0,0,1-.07-1.82,6.91,6.91,0,0,1,.67-2.18,7.63,7.63,0,0,1,1.3-1.95,4.06,4.06,0,0,1,1.69-1.15,3.9,3.9,0,0,1,.67-.18,3.81,3.81,0,0,1,.91,0,3.37,3.37,0,0,1,1,.27,1.8,1.8,0,0,1,.61.43,2,2,0,0,1,.49.73,1.87,1.87,0,0,1,.1.68,4.31,4.31,0,0,1-.67,1.63,3.43,3.43,0,0,1-1.54,1.29,3.17,3.17,0,0,1-.94.21,5.85,5.85,0,0,1-1.48-.14c-.38-.08-.62,0-.74.11a1.53,1.53,0,0,0-.15.92,2.06,2.06,0,0,0,.2.74.85.85,0,0,0,.57.44,1.84,1.84,0,0,0,.78,0c.15-.06.35-.14.58-.25a3.09,3.09,0,0,0,.37-.26l.35-.28.29-.21a.68.68,0,0,1,.24-.12l.23,0a.76.76,0,0,1,.5.28,1.32,1.32,0,0,1,.3.49,1.11,1.11,0,0,1-.23.53,5.41,5.41,0,0,1-.62.71A5.49,5.49,0,0,1,493.67,302.13Zm-.31-5.24a2,2,0,0,0,.48-.32,4.42,4.42,0,0,0,.58-.56.84.84,0,0,0,.26-.46c0-.17-.12-.32-.34-.44a1.21,1.21,0,0,0-.88-.07,1.19,1.19,0,0,0-.45.26c-.17.14-.34.3-.52.48a6.09,6.09,0,0,0-.44.51,3.2,3.2,0,0,0-.26.39.7.7,0,0,0,.37.19,2.48,2.48,0,0,0,.63.07A2.37,2.37,0,0,0,493.36,296.89Z"/><path class="cls-18" d="M404.26,302.33a1.88,1.88,0,0,1-2.69,1.17,15.2,15.2,0,0,1-6-4v3.71c0,1.13-.7,1.67-2,1.67s-2-.54-2-1.67v-3.27a17.74,17.74,0,0,1-7.56,3.85.86.86,0,0,1-1.16-.53c-.19-.51,0-.9.56-1.19a17,17,0,0,0,6.15-4.24h-5.19a1.09,1.09,0,0,1,0-2.18h7.2v-.58a1.53,1.53,0,0,1,1.38-1.62,1.65,1.65,0,0,1-.22-.44c-.29-.82-.68-1.69-1-2.32a1.84,1.84,0,0,1-.12-.32c-1.4.05-2.86.05-4.21,0a9.69,9.69,0,0,1,2.42,2c.8.9.77,1.7-.15,2.35a1.37,1.37,0,0,1-2.27-.68,22.87,22.87,0,0,0-1.34-2.42.89.89,0,0,1,.05-1.23l.05,0c-.39,0-.77,0-1.14-.05-.7-.05-1-.36-1-.92s.29-.82,1-.85a67.63,67.63,0,0,0,11.31-1.11,1.49,1.49,0,0,1-.87-1.5h-4.07v.26c0,1.19-.65,1.72-1.84,1.72s-1.84-.53-1.84-1.72v-.26h-3.85a1,1,0,0,1-1.09-1.09c0-.71.39-1,1.09-1h3.85v-.13a1.63,1.63,0,0,1,1.84-1.71c1.19,0,1.84.53,1.84,1.71v.13h4.07v-.1a1.63,1.63,0,0,1,1.86-1.74c1.22,0,1.87.53,1.87,1.74v.1h4a1.07,1.07,0,1,1,0,2.13h-4a2,2,0,0,1-.24.92l1.21-.34a1.54,1.54,0,0,1,2.1,1,1.44,1.44,0,0,1-1.18,2,2.86,2.86,0,0,0-.46.09,1.92,1.92,0,0,1,.43.17c1,.56,1.05,1.53.34,2.45a9.47,9.47,0,0,1-3.07,2.64,1,1,0,0,1-1.24-.08.89.89,0,0,1-.09-1.26,14.15,14.15,0,0,0,1.62-2.85,2,2,0,0,1,.65-.85c-1.48.19-3.24.34-5.13.44a7.59,7.59,0,0,1,1.16,1.3,1.4,1.4,0,0,1-.41,2.16,1.46,1.46,0,0,1,.63,1.33v.58h7.26a1.09,1.09,0,0,1,0,2.18h-5.91a22.09,22.09,0,0,0,5.77,2.13C404.11,300.3,404.64,301.2,404.26,302.33Z"/></g></svg>