<svg xmlns="http://www.w3.org/2000/svg" viewBox="0 0 1122.2 631.24"><defs><style>.cls-1{fill:none;}.cls-2,.cls-3{fill:#fdfdfb;}.cls-2{opacity:0.52;}.cls-4{fill:#b8c318;}.cls-5{fill:#584938;}.cls-6{fill:#c3e2f1;}.cls-7{fill:#f9f1e5;}.cls-8{fill:#f4e5ce;}.cls-9{fill:#eba342;}.cls-10{fill:#4a1d0e;}.cls-11{fill:#de706e;}.cls-12{fill:#f3c376;}.cls-13{fill:#c19546;}.cls-14{fill:#c8a15b;}.cls-15{fill:#e1c498;}.cls-16{fill:#e9a425;}.cls-17{fill:#f0db8e;}.cls-18{fill:#d8c381;}.cls-19{fill:#94bf00;}.cls-20{fill:#b8d25f;}.cls-21{fill:#f6f3ea;}.cls-22{opacity:0.6;}.cls-23{fill:#50abd5;}.cls-24{fill:#d0e9f9;}.cls-25{opacity:0.8;}</style></defs><g id="底"><rect class="cls-1" width="1122.2" height="631.24"/></g><g id="白底"><path class="cls-2" d="M944.94,220.32c0,41.41-9.15,86.42-35.69,120.91C832.47,441,739.5,439.57,595.91,439.57c-87.21,0-216.47,8.51-290.36-18.11-110.4-39.76-148.29-90.09-148.29-163.09,0-60.85,44.6-144.9,109.42-179.62C331.7,43.92,417.11,20.46,526,20.46c134.46,0,260.65,18.34,339,69.89C913.46,122.19,944.94,173.79,944.94,220.32Z"/><path class="cls-3" d="M924.11,220.86c0,39.23-8.67,81.85-33.81,114.52-72.71,94.49-160.77,93.14-296.76,93.14-82.6,0-205,8.06-275-17.15C214,373.72,178.09,326,178.09,256.9c0-57.62,42.24-137.23,103.64-170.12,61.58-33,142.47-55.2,245.62-55.2,127.36,0,246.87,17.37,321.1,66.2C894.29,127.93,924.11,176.8,924.11,220.86Z"/></g><path class="cls-4" d="M492.62,265.73c-.35-.2-.54-.41-.57-.65a2.58,2.58,0,0,1,.4-1.23c.29-.59.75-1.5,1.38-2.74a13.71,13.71,0,0,0,.95-2.07,5.27,5.27,0,0,0,.28-1.07c0-.22,0-.35,0-.41a.51.51,0,0,1,.06-.43,1,1,0,0,1,.38-.28,8.42,8.42,0,0,1,.68-.53,2.63,2.63,0,0,0,.82-.91q.27-.61.6-1.26c.23-.43.53-1,.9-1.63S499.4,251,500,250c.39-.69.86-1.46,1.4-2.33s1.07-1.64,1.6-2.35a2.86,2.86,0,0,1,.67-.64,1.16,1.16,0,0,1,.62-.24,2.83,2.83,0,0,1,1.29.34,4.37,4.37,0,0,1,1.15.84,2.75,2.75,0,0,1,.67.94,2,2,0,0,1,.12,1c0,.51-.06,1.12-.12,1.85s-.12,1.5-.2,2.32-.15,1.75-.27,2.85-.23,2.24-.33,3.44-.19,2.34-.25,3.45a23.26,23.26,0,0,0,0,2.9,2.09,2.09,0,0,1,0,.5,3,3,0,0,0,0,.38,1.1,1.1,0,0,1-.77.16,4,4,0,0,1-1.14-.19c-.37-.12-.58-.27-.62-.44a.64.64,0,0,1-.12-.15,2.3,2.3,0,0,1,0-.57c0-.34.05-1,.09-1.9l.15-4.49-.38,0-1,.05-1.5.16-1.48.21a6.41,6.41,0,0,0-.94.19,1,1,0,0,0-.63.35,3.81,3.81,0,0,0-.69.92,3,3,0,0,1-.43.86,1.55,1.55,0,0,0-.31.61,2,2,0,0,0-.47.55,3.81,3.81,0,0,1-.26.87c-.18.46-.4,1-.65,1.53a11.26,11.26,0,0,1-.79,1.45l-.8,1.12Zm7-10.11,1.1-.19a5,5,0,0,1,.81-.08l1.13-.26a5.2,5.2,0,0,1,.75-.1,1,1,0,0,1,.47.07.6.6,0,0,0,.32.21,4.8,4.8,0,0,0,.12-.62q.09-.56.21-1.38c.07-.55.15-1.12.23-1.72s.15-1.16.21-1.68.09-.92.11-1.22a9.27,9.27,0,0,0-.08-1.47c-.12,0-.34.21-.67.64a18.49,18.49,0,0,0-1.11,1.67c-.42.7-.84,1.45-1.25,2.25a6.58,6.58,0,0,1-.55.88c-.16.22-.29.32-.39.32a4.32,4.32,0,0,0-.31.46c-.17.26-.34.56-.53.88s-.34.62-.47.88S499.59,255.58,499.65,255.62Z"/><path class="cls-4" d="M514.25,271.54a7.9,7.9,0,0,1-.7-.52,1.61,1.61,0,0,1-.5-.89,7.12,7.12,0,0,1,0-2,19.34,19.34,0,0,1,.48-2.68c.25-1,.55-2,.9-3a4.37,4.37,0,0,0,.32-.65,1.13,1.13,0,0,0,.15-.53c-.9.47-1.58.82-2,1a2.64,2.64,0,0,1-1.17.34,1.34,1.34,0,0,1-.86-.45,4.39,4.39,0,0,1-.8-1.08,2.27,2.27,0,0,1-.34-1.08,3.82,3.82,0,0,1,.45-1.43,11.57,11.57,0,0,1,1.05-1.78,4.21,4.21,0,0,1,.88-1c.43-.38.88-.75,1.36-1.1s.85-.61,1.11-.77a3,3,0,0,1,.47-.25l.47-.22a2.67,2.67,0,0,1,.44-.23.87.87,0,0,1,.32-.09,3.47,3.47,0,0,1,1.1-.07,3.77,3.77,0,0,1,1,.16,4,4,0,0,1,.86.91,3.13,3.13,0,0,1,.64,1.26,4.39,4.39,0,0,1,0,.54,3.39,3.39,0,0,1-.19.67c-.11.27-.3.7-.58,1.29a10.85,10.85,0,0,0-.78,1.38,3.71,3.71,0,0,0-.3.79c-.1.26-.24.59-.43,1l-.51,1.13c-.16.35-.27.58-.33.7s-.13.54-.26,1-.28,1-.43,1.64-.28,1.16-.39,1.69a12.72,12.72,0,0,0-.24,2.27,2.56,2.56,0,0,0,.24,1.32c.07.23-.05.44-.37.62A1,1,0,0,1,514.25,271.54ZM512,260.32a2.51,2.51,0,0,0,1.79-.46,12.72,12.72,0,0,0,1.77-1.45,6.84,6.84,0,0,0,.91-1.07,5.74,5.74,0,0,0,.61-1.12,1.12,1.12,0,0,0,.12-.75c-.08-.16-.32-.14-.72.05a8.63,8.63,0,0,0-1.54,1A13.16,13.16,0,0,0,513.3,258a5.43,5.43,0,0,0-1,1.49Z"/><path class="cls-4" d="M529.15,264.7a2.25,2.25,0,0,1-.47-.81c-.12-.34-.23-.74-.35-1.19a1.79,1.79,0,0,1,0-.53,3.18,3.18,0,0,0,0-.47,4.05,4.05,0,0,1-.28.53,1.78,1.78,0,0,1-.37.47c-.07.08-.25.23-.52.46a4.88,4.88,0,0,1-.83.54,3,3,0,0,1-1.72.57,1.76,1.76,0,0,1-1.3-.75,2.76,2.76,0,0,1-.77-1,2.18,2.18,0,0,1-.12-1.41,11.34,11.34,0,0,1,.3-2,15.42,15.42,0,0,1,1-2.63c.41-.8.72-1.43.94-1.88a5.57,5.57,0,0,1,.41-.79,1.92,1.92,0,0,1,1.09,0c.43.11.66.3.7.57a1.67,1.67,0,0,1,0,1.11,7.91,7.91,0,0,1-.7,1.83c-.28.67-.54,1.31-.78,1.94a6.45,6.45,0,0,0-.44,1.59c-.05.43.06.69.33.79a1,1,0,0,0,.78,0,3,3,0,0,0,1.22-1.06,11.78,11.78,0,0,0,1.5-2.79,7.06,7.06,0,0,0,.35-1,5,5,0,0,0,.15-1,1.06,1.06,0,0,1,.19-.74,2,2,0,0,1,.6-.59,1.35,1.35,0,0,1,.33-.28c.13-.09.22-.08.26,0l.47,0c.08,0,.17.06.27.23a1.31,1.31,0,0,0,.29.39c.22.17.31.55.3,1.14a7.61,7.61,0,0,1-.71,2.47,17.11,17.11,0,0,0-.75,1.82,4.83,4.83,0,0,0-.22,1.21,3.75,3.75,0,0,0,.09.89,1.45,1.45,0,0,0,.53.75.85.85,0,0,1,.36.69,4.91,4.91,0,0,1,0,.84c0,.18-.19.3-.46.37a2.18,2.18,0,0,1-.85,0A1.67,1.67,0,0,1,529.15,264.7Z"/><path class="cls-4" d="M535.26,264.14a1.24,1.24,0,0,0-.51-.47c-.26-.16-.4-.27-.4-.35a.9.9,0,0,0-.13-.37,1.56,1.56,0,0,0-.25-.37c-.1-.12-.07-.4.09-.87s.39-1,.7-1.68.66-1.35,1-2a3,3,0,0,0,.47-.62,3.5,3.5,0,0,1,.36-.5.37.37,0,0,1,.08-.22.26.26,0,0,1,.21-.1l.24-.47a2.47,2.47,0,0,1,.36-.47q.32-.36.75-.78c.3-.29.59-.56.9-.81a6.49,6.49,0,0,1,.75-.56,2.11,2.11,0,0,1,1.28-.38,1.92,1.92,0,0,1,1.13.41l.39.36c.21.17.44.37.71.58l.69.59,1.09,1-.5,1.47a4,4,0,0,0-.21,2.06,5.05,5.05,0,0,0,.56,1.52,1.13,1.13,0,0,0,.4.5,1.43,1.43,0,0,0,.66.24,1.09,1.09,0,0,1,.44.17.54.54,0,0,1,.2.48,1.67,1.67,0,0,1-.24,1,1,1,0,0,1-.55.37,4,4,0,0,1-1.85-.21,3.2,3.2,0,0,1-1.59-1.67,4.27,4.27,0,0,1-.31-.66c-.12-.33-.2-.54-.22-.64-.07.1-.18.22-.3.37l-.37.4a12.27,12.27,0,0,1-3.57,2.74A2.54,2.54,0,0,1,535.26,264.14Zm2.27-2.66a10.9,10.9,0,0,0,1.17-.84c.67-.57,1.22-1,1.65-1.41a7.63,7.63,0,0,0,1.26-1.44l.65-1.06a2.7,2.7,0,0,0-.53-.88.75.75,0,0,0-.47-.2,1.47,1.47,0,0,0-.91.48,9.49,9.49,0,0,0-1.19,1.41c-.44.62-.94,1.39-1.49,2.31a10.47,10.47,0,0,0-.79,1.85A1.18,1.18,0,0,0,537.53,261.48Z"/><path class="cls-4" d="M548,271.61h-.34a.41.41,0,0,1-.37-.25,5.46,5.46,0,0,1-.35-.57,1.75,1.75,0,0,1-.09-1.19,9.48,9.48,0,0,0,.24-1,4.3,4.3,0,0,0,.09-.72,2.34,2.34,0,0,1,.07-.45,2.52,2.52,0,0,0,.07-.49,2,2,0,0,0,.24-.65,3.45,3.45,0,0,0,.09-.73.84.84,0,0,1,.35-.65,2.07,2.07,0,0,1,.1-.58,2.09,2.09,0,0,0,.1-.48c.06-.27.2-.75.4-1.45s.46-1.48.77-2.37.6-1.74.89-2.58.56-1.56.79-2.15a15.11,15.11,0,0,0,.59-1.52,3.73,3.73,0,0,0,.24-1,.27.27,0,0,1,.06-.19c0-.05.12-.16.26-.31a.85.85,0,0,1,.78-.22,1.83,1.83,0,0,1,.81.3,4,4,0,0,1,.34.7,2.18,2.18,0,0,1,0,.95,1.73,1.73,0,0,1-.2.81c-.14.24-.26.44-.37.59s-.14.21-.1.19a5.31,5.31,0,0,1,2.33-.87,2.83,2.83,0,0,1,2.87,1.51,3.45,3.45,0,0,1,.38,1.59,2.63,2.63,0,0,1-.24.94,7.46,7.46,0,0,1-.53,1.1,2.89,2.89,0,0,1-.47.69c-.07,0-.15.07-.23.2a3.92,3.92,0,0,0-.24.42,3.19,3.19,0,0,1-.77.66,5.68,5.68,0,0,1-1.11.59,1.21,1.21,0,0,1-.79.13.34.34,0,0,0-.15.27s-.13.11-.41.23a6.82,6.82,0,0,1-1,.33,4.38,4.38,0,0,1-1,.14,1.36,1.36,0,0,1-.88-.23,1.47,1.47,0,0,0-.13.17.4.4,0,0,0-.07.21,2,2,0,0,1-.14.56,4.35,4.35,0,0,1-.3.69c-.12.2-.23.31-.33.31a.24.24,0,0,0,0,.32,2.25,2.25,0,0,1-.17.91,4.21,4.21,0,0,1-.09.71,2.81,2.81,0,0,1-.21.7,2.26,2.26,0,0,1-.1.69c-.07.23-.14.34-.22.34s-.13.14-.15.37,0,.38,0,.48a2.07,2.07,0,0,1-.47,1.28C548.49,271.42,548.22,271.61,548,271.61Zm3.76-10.29a3.19,3.19,0,0,0,.85-.21,13.85,13.85,0,0,0,1.3-.51A4.82,4.82,0,0,0,555,260a6.45,6.45,0,0,0,1.19-1.33,1.24,1.24,0,0,0-.07-1.44.68.68,0,0,0-.75-.33,2.88,2.88,0,0,0-1.13.48,10,10,0,0,0-1.26,1,4.56,4.56,0,0,0-.65.88,8,8,0,0,0-.49,1,3.14,3.14,0,0,0-.22.78C551.55,261.22,551.61,261.32,551.75,261.32Z"/><path class="cls-4" d="M563.71,264.55a1.07,1.07,0,0,1-.6-.15,3.56,3.56,0,0,1-1.44-1.67,1.89,1.89,0,0,1-.25-1.18,1.62,1.62,0,0,0,.06-.67c-.1-.1-.13-.16-.09-.19a.55.55,0,0,0,.12-.16c.11,0,.15-.11.11-.33a2.41,2.41,0,0,1,.2-1,6.1,6.1,0,0,1,.69-1.49,8.55,8.55,0,0,1,.53-.77c.23-.33.49-.65.77-1a7.89,7.89,0,0,1,.78-.77,10.87,10.87,0,0,1,1.37-1,4.24,4.24,0,0,1,1.28-.53,5.83,5.83,0,0,1,1.33-.15,1.52,1.52,0,0,1,1.14.47,1.92,1.92,0,0,1,.95.8,3.34,3.34,0,0,1,.37,1.29,7.17,7.17,0,0,1-.18,2.16,10.42,10.42,0,0,1-2.88,4.6,11.31,11.31,0,0,1-1.56,1.08,2.85,2.85,0,0,1-1.32.5Zm3-3.58a3.32,3.32,0,0,0,.92-1.24c.19-.45.39-1,.61-1.59a1.46,1.46,0,0,0,.16-.58,4.4,4.4,0,0,0,0-.81c0-.27-.09-.42-.2-.46a.53.53,0,0,0-.53-.1,3.32,3.32,0,0,0-.68.4,10.91,10.91,0,0,0-1.63,1.69,5.47,5.47,0,0,0-1,2.33,1.58,1.58,0,0,0,.16,1.1.67.67,0,0,0,.82.21A3.73,3.73,0,0,0,566.71,261Z"/><path class="cls-4" d="M583.9,264.05a2.83,2.83,0,0,1-1.07-.28,1.55,1.55,0,0,1-.69-.89,3.63,3.63,0,0,1-.11-1c0-.34,0-.67.08-1a6.88,6.88,0,0,0,.06-.84v-.55A.81.81,0,0,0,582,259c-.11-.07-.29-.05-.55.05a9.32,9.32,0,0,0-1.34.78,18.47,18.47,0,0,0-1.49,1.11c-.52.42-1.06.87-1.61,1.34a11.88,11.88,0,0,0-1,1.15c-.21.29-.42.44-.63.44a.51.51,0,0,1-.5-.06c-.18-.12-.37-.26-.56-.41s-.3-.36-.49-.61a4.24,4.24,0,0,1-.33-.48,4.43,4.43,0,0,1,.07-.85,4.5,4.5,0,0,1,.24-.8c.1-.27.23-.58.39-.94.08-.13.15-.28.22-.42s.15-.31.25-.49a8.58,8.58,0,0,1,.34-.94l.43-1c.21-.51.38-.95.5-1.32a11.34,11.34,0,0,0,.29-1.21s0-.09,0-.17a.27.27,0,0,1,.18-.15h0a1.1,1.1,0,0,1,.78,0,1.91,1.91,0,0,1,.87.34,1.65,1.65,0,0,1,.59,1.38,5.1,5.1,0,0,1-.88,2.23c-.14.32-.28.6-.43.87a1.36,1.36,0,0,0-.22.54c.31-.23.58-.43.79-.6s.4-.3.56-.4.31-.28.65-.54.69-.55,1.09-.84.7-.52.94-.68a6.17,6.17,0,0,1,.82-.48,2.08,2.08,0,0,1,.62-.25,1.75,1.75,0,0,1,.72.21,4.9,4.9,0,0,1,.79.48,1.05,1.05,0,0,1,.42.51,1.84,1.84,0,0,1,0,.31,2.24,2.24,0,0,0,0,.34c0,.32,0,.69,0,1.13s0,.88,0,1.32a5.48,5.48,0,0,1-.12,1.2.56.56,0,0,1,.09.17s0,.08,0,.18.08.27.13.41a4,4,0,0,0,.19.45,6.41,6.41,0,0,1,.26.64,1.2,1.2,0,0,1-.42.75A1.87,1.87,0,0,1,583.9,264.05Z"/><path class="cls-4" d="M588.87,264.26a1.43,1.43,0,0,1-.34-.71,3.22,3.22,0,0,1-.08-.92,1.77,1.77,0,0,1,.15-.69.75.75,0,0,1,.08-.37.38.38,0,0,0,0-.25.88.88,0,0,1,.06-.41c.06-.2.12-.38.17-.56s.3-.72.47-1.22.36-1,.53-1.53.33-1,.44-1.35.19-.61.21-.69c0-.24.16-.36.47-.38a.93.93,0,0,1,.85.29,3.82,3.82,0,0,1,.8.88.69.69,0,0,1,.17.62,4.44,4.44,0,0,1-.38,1.09,4.78,4.78,0,0,0-.28.78,7.52,7.52,0,0,0-.22.89c-.08.16-.17.38-.28.66s-.2.56-.28.81a2.78,2.78,0,0,0-.12.55,7.9,7.9,0,0,1-.14.8,2,2,0,0,1-.24.65c-.17.8-.48,1.27-.92,1.41A1,1,0,0,1,588.87,264.26ZM592,252.47a1.38,1.38,0,0,1-.48-.57,1.61,1.61,0,0,1-.18-.6c0-.18,0-.29,0-.33a2.87,2.87,0,0,0,.52-.85,8,8,0,0,1,.48-1l.16-.25a.42.42,0,0,1,.22-.19,1,1,0,0,1,1,0,1.6,1.6,0,0,1,1.09,1.88,2.74,2.74,0,0,1-.64,1.24,1.92,1.92,0,0,1-1.11.75A1.31,1.31,0,0,1,592,252.47Z"/><path class="cls-4" d="M599.56,264.87a3.36,3.36,0,0,1-1.69-.14,3.08,3.08,0,0,1-1.38-1,2.44,2.44,0,0,1-.54-1.6,6.94,6.94,0,0,1,.16-2.1,13.79,13.79,0,0,1,.76-2.45,9,9,0,0,1,1.19-2.09c.4-.47.79-.9,1.18-1.29a3.71,3.71,0,0,1,1.06-.8,5,5,0,0,1,1-.28,7.29,7.29,0,0,1,.84-.1,6.74,6.74,0,0,1,1,.38c.38.18.57.39.57.62l.15.15c.12,0,.25.14.4.42a4,4,0,0,1,.34,1,1.29,1.29,0,0,1-.06.87,3.31,3.31,0,0,1-.46,1.09c-.22.35-.41.53-.57.53h-.22c-.07,0-.1.06-.1.16s-.11.15-.31.15a1.76,1.76,0,0,1-.63-.12.63.63,0,0,1-.42-.35,1.54,1.54,0,0,1,.06-.38c0-.16.1-.42.18-.8a1.85,1.85,0,0,0,0-1.1c-.1-.18-.34-.2-.74,0a4.31,4.31,0,0,0-1.2.95,5.34,5.34,0,0,0-.84,1.52q-.36,1-.81,2.7a2,2,0,0,0,0,1.06c.09.25.16.39.22.41a2.06,2.06,0,0,0,.9,0,2.36,2.36,0,0,0,.8-.25,4.26,4.26,0,0,0,.84-.51l.81-.6a.68.68,0,0,0,.26-.34.76.76,0,0,1,.36-.37.74.74,0,0,1,.6-.37H604a1.31,1.31,0,0,1,.5.29,2,2,0,0,1,.4.46c.08.15.07.25,0,.31s-.13,0-.15.14,0,.26-.24.53a8.37,8.37,0,0,1-.78.88,10.25,10.25,0,0,1-.9.81,1.24,1.24,0,0,1-.6.34q-.3,0-.3.18s-.14.14-.42.29-.61.31-1,.47A4.3,4.3,0,0,1,599.56,264.87Z"/><path class="cls-4" d="M609.73,264.93a4.38,4.38,0,0,1-1.45-.86c-.31-.31-.43-.58-.37-.81a.83.83,0,0,1,.2-.32,1,1,0,0,1,.67-.14,9.4,9.4,0,0,1,1.6.28c.21,0,.43,0,.64,0a5.24,5.24,0,0,0,.61-.09,1.59,1.59,0,0,0,.45-.14c.1,0,.13-.1.09-.16a.71.71,0,0,0-.21-.22.5.5,0,0,0-.26-.2.92.92,0,0,0-.26,0,.81.81,0,0,0-.25-.29l-.46-.33-1.18-.94c-.35-.27-.49-.48-.41-.61v-.15c-.13,0-.26-.19-.38-.57a3.56,3.56,0,0,1-.18-1.05,3.08,3.08,0,0,1,.25-1.17,5.73,5.73,0,0,1,.65-1.12,8.58,8.58,0,0,1,.81-.94c.37-.35.77-.7,1.19-1a9,9,0,0,1,1.38-.93,7.45,7.45,0,0,1,1.66-.65,5.32,5.32,0,0,1,.94-.08,1.53,1.53,0,0,1,.77.14.52.52,0,0,1,.58.08,3.15,3.15,0,0,1,.71.6,3.18,3.18,0,0,1,.53.76c0,.24,0,.53,0,.87a7.5,7.5,0,0,1-.07.9c0,.25-.13.38-.27.38a.16.16,0,0,0-.14.17,1,1,0,0,1-.44.68,8.21,8.21,0,0,1-1.06.62c-.33.16-.59.17-.76,0l-.33-.24a1.22,1.22,0,0,1-.26-.29,1,1,0,0,1-.15-.38.6.6,0,0,1,.18-.33,4.71,4.71,0,0,0,.63-.7,2.57,2.57,0,0,0,.31-.58,1.17,1.17,0,0,0,.09-.39c0-.12,0-.19-.08-.22a.66.66,0,0,0-.31-.05,2,2,0,0,0-.63.24c-.32.16-.66.35-1,.57a7.65,7.65,0,0,0-.83.6,1.86,1.86,0,0,1-.16.27.18.18,0,0,1-.16.06q0-.12-.15,0c-.09.1-.21.23-.35.41s-.27.36-.41.56-.24.35-.32.47a1.78,1.78,0,0,1-.13.48.82.82,0,0,0-.08.46.94.94,0,0,0,.3.56c.17.17.43.4.76.67.69.51,1.2.91,1.54,1.21a5.41,5.41,0,0,1,.72.7,1.34,1.34,0,0,1,.27.53,1.53,1.53,0,0,1,.11,1.57,2.46,2.46,0,0,1-1.17,1,4.81,4.81,0,0,1-1,.28,8.53,8.53,0,0,1-1.54.11A3.64,3.64,0,0,1,609.73,264.93Z"/><path class="cls-5" d="M477.85,212a1.48,1.48,0,0,1,.45-2,32.64,32.64,0,0,0,8.1-10.58,2.93,2.93,0,0,1,4-1.51,2.4,2.4,0,0,1,1.58,3.32h3.2a3.48,3.48,0,0,1,4.15-.6,2.84,2.84,0,0,1,1,4.4,21,21,0,0,1-2,2.6h6.1a2.21,2.21,0,0,1,2.45,2.45v10.77a2.21,2.21,0,0,1-2.45,2.45H484.37a2.21,2.21,0,0,1-2.45-2.45v-9.38c-.72.38-1.43.76-2.18,1.09A1.35,1.35,0,0,1,477.85,212Zm7.65,13.94a17.76,17.76,0,0,1-2.9,5.76,2.59,2.59,0,0,1-4.11.37,2.34,2.34,0,0,1,.27-3.69,27.88,27.88,0,0,0,3.88-4,1.63,1.63,0,0,1,2.1-.52A1.59,1.59,0,0,1,485.5,225.94Zm9-21.43h-4.52a25.91,25.91,0,0,1-2.86,3.16h6.51A23.82,23.82,0,0,0,494.8,205C494.91,204.7,494.76,204.51,494.46,204.51Zm-3,9.45v-3.13h-3.09a.44.44,0,0,0-.45.46V214Zm-3.09,6.21h3.09V217h-3.54v2.75A.43.43,0,0,0,488.32,220.17Zm5.73,9.38c.52,1.39.07,2.64-1.77,3.13s-2.87-.27-3.13-1.89c-.34-2-.64-4-.83-5.31a1.44,1.44,0,0,1,1.06-1.62,1.58,1.58,0,0,1,1.88.57A22.82,22.82,0,0,1,494.05,229.55Zm7.87-.6c.86,1.62.49,2.86-1.28,3.58s-2.94,0-3.39-1.74-1-3.65-1.4-4.93a1.44,1.44,0,0,1,.76-1.81,1.62,1.62,0,0,1,2,.3A24.34,24.34,0,0,1,501.92,229Zm-1.43-18.12h-3.28V214h3.73v-2.67A.44.44,0,0,0,500.49,210.83Zm.45,8.89V217h-3.73v3.2h3.28A.43.43,0,0,0,500.94,219.72Zm8.85,12.5A2.39,2.39,0,0,1,506,231c-.71-1.73-1.47-3.39-2.18-5a1.56,1.56,0,0,1,.45-1.95,1.59,1.59,0,0,1,2.07.07,27.64,27.64,0,0,1,4.15,4.26A2.46,2.46,0,0,1,509.79,232.22Z"/><path class="cls-5" d="M550.42,229.17c-.64,1.89-2.23,2.53-4.18,1.81a23.56,23.56,0,0,1-9.38-6.21v5.76c0,1.77-1.09,2.6-3.09,2.6s-3.09-.83-3.09-2.6v-5.08a27.32,27.32,0,0,1-11.75,6,1.34,1.34,0,0,1-1.81-.82c-.3-.8,0-1.4.87-1.85a26.41,26.41,0,0,0,9.57-6.59H519.5c-1,0-1.58-.6-1.58-1.7a1.48,1.48,0,0,1,1.58-1.69h11.18v-.9a2.39,2.39,0,0,1,2.15-2.53,3,3,0,0,1-.34-.67c-.45-1.29-1-2.64-1.51-3.62a3.81,3.81,0,0,1-.18-.49c-2.19.08-4.45.08-6.56,0A14.61,14.61,0,0,1,528,213.7c1.24,1.39,1.2,2.63-.23,3.65s-2.71.75-3.54-1.06a33.93,33.93,0,0,0-2.07-3.76,1.38,1.38,0,0,1,.08-1.92l.07-.08c-.6,0-1.2,0-1.77-.07-1.09-.08-1.5-.57-1.5-1.43s.45-1.28,1.5-1.32A105.48,105.48,0,0,0,538.14,206a2.32,2.32,0,0,1-1.36-2.34h-6.32v.42c0,1.84-1,2.67-2.87,2.67s-2.86-.83-2.86-2.67v-.42h-6a1.54,1.54,0,0,1-1.69-1.69,1.47,1.47,0,0,1,1.69-1.62h6v-.19a2.54,2.54,0,0,1,2.86-2.68c1.85,0,2.87.83,2.87,2.68v.19h6.32v-.15c0-1.89,1.21-2.72,2.9-2.72,1.89,0,2.9.83,2.9,2.72v.15h6.29a1.53,1.53,0,0,1,1.66,1.69,1.51,1.51,0,0,1-1.66,1.62h-6.29a3.16,3.16,0,0,1-.37,1.43l1.88-.53a2.42,2.42,0,0,1,3.28,1.55,2.24,2.24,0,0,1-1.85,3.16c-.23,0-.45.08-.72.15a2.3,2.3,0,0,1,.68.27c1.58.86,1.62,2.37.53,3.8a14.8,14.8,0,0,1-4.78,4.11,1.52,1.52,0,0,1-1.92-.12,1.37,1.37,0,0,1-.15-2,21.84,21.84,0,0,0,2.52-4.44,3,3,0,0,1,1-1.32c-2.3.3-5.05.53-8,.68a11.68,11.68,0,0,1,1.81,2,2.16,2.16,0,0,1-.64,3.35,2.3,2.3,0,0,1,1,2.08v.9h11.3a1.7,1.7,0,0,1,0,3.39H539a34.57,34.57,0,0,0,9,3.31C550.19,226,551,227.4,550.42,229.17Z"/><path class="cls-5" d="M556.36,219.38a1.52,1.52,0,0,1,1.66-1.69h6.06v-8.44h-4.26a1.7,1.7,0,0,1,0-3.39h4.26v-5.38c0-1.66,1-2.56,2.94-2.56s2.93.9,2.93,2.56v5.38h6.56v-5.38c0-1.66,1-2.56,2.93-2.56s2.94.9,2.94,2.56v5.38h4.37a1.7,1.7,0,0,1,0,3.39h-4.37v8.44h6.14a1.7,1.7,0,0,1,0,3.39H558A1.52,1.52,0,0,1,556.36,219.38Zm13.9,7.76A32.91,32.91,0,0,1,558.54,233a1.54,1.54,0,0,1-1.2-2.83,45.81,45.81,0,0,0,8.81-7.34,3,3,0,0,1,4.56-.12C572.18,224.13,572,225.82,570.26,227.14Zm-.31-9.45h6.56v-8.44H570Zm19.29,14c-1.28,1.69-3.09,1.81-4.71.3-2.49-2.3-5.76-5.08-8.25-7a1.65,1.65,0,0,1-.56-2.34c.45-.86,1.16-1.05,2.26-.71A41.14,41.14,0,0,1,588.37,227,3,3,0,0,1,589.24,231.66Z"/><path class="cls-5" d="M629.41,229.59a1.66,1.66,0,0,1-1.84,1.81H598.08a1.81,1.81,0,1,1,0-3.62h12.16v-8h-7.9a1.77,1.77,0,0,1,0-3.54h7.9v-6.4H604.6a25.43,25.43,0,0,1-5.58,7.19c-.71.6-1.39.71-2,.22a1.42,1.42,0,0,1-.27-2,38,38,0,0,0,4.48-13.52c.34-2.19,1.62-3,3.62-2.71s2.9,1.54,2.37,3.88a25.63,25.63,0,0,1-1.09,3.54h4.1v-6c0-1.84,1.13-2.86,3.24-2.86s3.24,1,3.24,2.86v5.87h8.85a1.78,1.78,0,0,1,0,3.55h-8.85v6.4h7.8a1.56,1.56,0,0,1,1.73,1.77,1.58,1.58,0,0,1-1.73,1.77h-7.8v8h10.85A1.66,1.66,0,0,1,629.41,229.59Z"/><path class="cls-6" d="M479.78,110.76c1.84-.28,1.14-1.9.31-2.93a10,10,0,0,0-2.57-2.29,5.08,5.08,0,0,0-2.6-1c-19.45,1.58-33.43,7.58-52.43,19.22C410.6,131,393,148.29,386,160.11c-.83,1.4-2.37,8.65,2.31,5C389.06,164.44,424.56,119.3,479.78,110.76Z"/><path class="cls-6" d="M462.73,101.51l18,6.71,2.59,1-3.22-5.81-6.9,15.26-1,2.18a4.21,4.21,0,0,0,2.12,5.34c1.67.86,4.7,1.13,5.66-1l6.91-15.26,1-2.17c1.19-2.64-.83-4.93-3.21-5.81l-18-6.7-2.59-1c-1.83-.68-4.6.23-4.89,2.39-.33,2.38,1.49,4.12,3.54,4.88Z"/><path class="cls-6" d="M722,162c1.09,1.5,2.21.13,2.74-1.08a9.91,9.91,0,0,0,.85-3.33,5,5,0,0,0-.29-2.78c-10.36-16.53-22.12-26.19-41.2-37.7-11.94-7.21-35.36-14.91-49.09-15.7-1.62-.1-8.76,1.87-3.34,4.32C632.58,106.16,689,116.91,722,162Z"/><path class="cls-6" d="M722.34,142.62l2.35,19.1.34,2.74,3.67-5.53-16.72.89-2.39.13a4.2,4.2,0,0,0-3.77,4.34c0,1.87,1.16,4.69,3.49,4.56L726,168l2.39-.12c2.88-.16,4-3,3.67-5.53l-2.35-19.1-.33-2.74c-.24-1.94-2.32-4-4.37-3.25-2.27.81-3,3.22-2.71,5.4Z"/><path class="cls-6" d="M637.94,346.23c-1.83.28-1.13,1.9-.3,2.94a9.65,9.65,0,0,0,2.57,2.28,5,5,0,0,0,2.6,1c19.44-1.59,33.42-7.58,52.43-19.23,11.89-7.28,29.5-24.53,36.52-36.36.83-1.4,2.37-8.64-2.3-4.95C728.66,292.56,693.17,337.69,637.94,346.23Z"/><path class="cls-6" d="M655,355.48l-18-6.7-2.58-1,3.21,5.8,6.91-15.26,1-2.18a4.19,4.19,0,0,0-2.12-5.34c-1.66-.85-4.69-1.13-5.66,1l-6.9,15.26-1,2.18c-1.19,2.63.84,4.92,3.22,5.8l18,6.71,2.59,1c1.83.68,4.6-.23,4.89-2.38.33-2.39-1.49-4.12-3.55-4.89Z"/><path class="cls-6" d="M390.3,291.22c-1.1-1.5-2.21-.14-2.75,1.08a9.85,9.85,0,0,0-.85,3.33,5.09,5.09,0,0,0,.3,2.77c10.36,16.54,22.11,26.19,41.2,37.71,11.93,7.2,35.35,14.9,49.08,15.7,1.63.09,8.77-1.88,3.34-4.33C479.7,347.06,423.29,336.32,390.3,291.22Z"/><path class="cls-6" d="M389.93,310.61l-2.35-19.1-.33-2.74-3.68,5.53,16.73-.89,2.38-.13a4.21,4.21,0,0,0,3.77-4.34c0-1.87-1.15-4.69-3.49-4.57l-16.73.89-2.38.13c-2.89.15-4,3-3.68,5.53l2.35,19.1.34,2.74c.24,1.94,2.32,4,4.37,3.25,2.26-.81,3-3.22,2.7-5.4Z"/><path class="cls-7" d="M770.77,204.45s-8.84-19.24-14.16-19.45-20.16,11.94-33.15,9.5-7.09,17.65-7.09,17.65"/><path class="cls-7" d="M732.38,239.11s-19,5-19.55,11.6,4.84,17.72,4.84,17.72S729,265,740,248.56"/><path class="cls-8" d="M698.92,241.09c67.44,33.68,111.35-1.51,111.94-14.35s-21.09-20.23-21.09-20.23C724.8,189.08,696,218,696,218s-15.14-16.51-20.25-12.94S680,228.63,680,228.63s-10.88,17.3-8.88,24.53S698.92,241.09,698.92,241.09Z"/><path class="cls-7" d="M773.43,250.13c-2.46,19.63-11,27.77-11,27.77s-9.81-7.53-12.27-13.66,12.27-19.14,12.27-19.14"/><path class="cls-9" d="M737.8,212.36c4.15,3.32,8.12,7,12.86,9.45a23.17,23.17,0,0,0,17.17,1.95,29,29,0,0,0,7.55-4A72.07,72.07,0,0,1,783.3,215c3.91-2,9.1-2.54,11-6.61a49,49,0,0,0-4.54-1.88c-29.1-7.81-50.95-6.31-66.21-2.27C728.85,205.86,733.46,208.91,737.8,212.36Z"/><path class="cls-9" d="M742.61,234.07c-6.9-6.12-16.07-7.13-24.47-10-3.5-.11-7.28.49-10.14,2.56-3.19,2.32-3.69,6.58-1.89,10,1.61,3,5,4.5,8.15,5.37a77.75,77.75,0,0,0,9.7,1.8,37.18,37.18,0,0,0,16.57-1.32c1.63-.55,3.92-1.42,4.67-3.13C746.08,237.31,743.93,235.24,742.61,234.07Z"/><circle class="cls-10" cx="783.97" cy="217.12" r="4.68"/><path class="cls-9" d="M793.82,232a2.86,2.86,0,0,0-3.44,1c-.9,1.12-.88,2.52-1.19,3.86a4.64,4.64,0,0,1-4.26,3.52c-1.28,0-1.29,2,0,2a6.68,6.68,0,0,0,5.61-3.48,12.89,12.89,0,0,0,.93-3.52,2.43,2.43,0,0,1,.61-1.29,1.78,1.78,0,0,1,.41-.27s.32-.07.17-.05h.15a1,1,0,0,0,1.37-.35A1,1,0,0,0,793.82,232Z"/><path class="cls-9" d="M812.5,232.64a1,1,0,0,0-1.41,0,1,1,0,0,0,0,1.41l.13.17.22.3c.14.2.28.42.4.63s.21.38.31.58.1.22.16.33l0,.05.06.15a12,12,0,0,1,.41,1.33q.08.34.12.69s0,.22,0,.24l0,.38a1,1,0,1,0,2,0A10.76,10.76,0,0,0,812.5,232.64Z"/><ellipse class="cls-11" cx="803.99" cy="225.87" rx="11.28" ry="7.84" transform="translate(469.96 991.28) rotate(-82.12)"/><path class="cls-12" d="M803.21,238.59a6.74,6.74,0,0,1-2.08-.32c-5-1.54-7.66-8.15-6.13-15.06.87-4,3.08-7.32,5.9-9a7.3,7.3,0,0,1,6-.78c5,1.54,7.66,8.16,6.13,15.06-.87,4-3.08,7.33-5.9,9A7.64,7.64,0,0,1,803.21,238.59Zm1.57-22.44a4.82,4.82,0,0,0-2.38.68c-2.11,1.23-3.79,3.85-4.49,7-1.15,5.23.73,10.52,4.1,11.57a4.45,4.45,0,0,0,3.57-.51c2.11-1.22,3.79-3.85,4.49-7,1.15-5.22-.73-10.52-4.1-11.57A4.22,4.22,0,0,0,804.78,216.15Z"/><path class="cls-13" d="M769.24,217.34c-3,6.34-3.65,14.89.25,20.95a19.72,19.72,0,0,0,8,6.82c.7.34,3.36-.73,2.35-1.24-5.2-2.62-9-7.07-9.89-12.91a25,25,0,0,1,1.25-11.68,20.38,20.38,0,0,1,.93-2.39c.29-.62-2.49-.36-2.88.45Z"/><line class="cls-14" x1="692.04" y1="223.69" x2="683.85" y2="216.94"/><path class="cls-15" d="M692.89,223.11l-7.17-5.91-1-.84c-.66-.55-2.61.42-1.7,1.17l7.17,5.91,1,.84c.66.54,2.61-.42,1.7-1.17Z"/><line class="cls-14" x1="692.04" y1="229.18" x2="685.93" y2="228.1"/><path class="cls-15" d="M693.24,228.66l-5.34-.95-.77-.13a3.65,3.65,0,0,0-2,.39c-.21.1-1,.55-.38.66l5.34.94.77.14a3.75,3.75,0,0,0,2-.4c.21-.1,1-.54.38-.65Z"/><line class="cls-14" x1="693.57" y1="234.08" x2="683.85" y2="239.9"/><path class="cls-15" d="M693.09,233.43l-8.52,5.1-1.2.72c-.37.22-.85.67-.51,1.13a1.25,1.25,0,0,0,1.48.17l8.51-5.1,1.21-.72c.37-.22.84-.67.51-1.13a1.23,1.23,0,0,0-1.48-.17Z"/><line class="cls-14" x1="766.73" y1="254.37" x2="761.64" y2="265.8"/><path class="cls-15" d="M765.65,254.53l-4.46,10-.63,1.43c-.19.43.72.4.91.37a1.6,1.6,0,0,0,1.25-.68l4.45-10,.64-1.43c.19-.43-.73-.4-.91-.37-.43.06-1.06.25-1.25.69Z"/><line class="cls-14" x1="761.64" y1="251.98" x2="756.5" y2="258.63"/><path class="cls-15" d="M760.65,252l-4.5,5.82-.64.83c-.29.38.25.44.53.42a2.23,2.23,0,0,0,1.45-.53l4.5-5.82.64-.83c.29-.38-.26-.44-.53-.42a2.23,2.23,0,0,0-1.45.53Z"/><line class="cls-14" x1="726.19" y1="255.48" x2="720.42" y2="261.71"/><path class="cls-15" d="M725.29,255.51,720.23,261l-.71.77c-.31.33.27.43.49.43a2,2,0,0,0,1.31-.5l5.06-5.47.72-.76c.31-.34-.27-.44-.5-.44a2,2,0,0,0-1.31.5Z"/><line class="cls-14" x1="723.44" y1="252.83" x2="718.68" y2="255.98"/><path class="cls-15" d="M722.81,252.45l-4.16,2.76-.6.39c-.3.2-.55.68-.14.91a1.43,1.43,0,0,0,1.41-.15l4.16-2.75.6-.4c.3-.2.55-.68.13-.91a1.47,1.47,0,0,0-1.4.15Z"/><path class="cls-14" d="M753,190.7a41.81,41.81,0,0,1,3.54,7.87"/><path class="cls-15" d="M752,191.17c.1.15.19.32.28.48s.23.39.33.59.32.6.4.77a52.33,52.33,0,0,1,2.44,5.85c.18.5.84.53,1.27.41s1.08-.49.9-1a53,53,0,0,0-2.47-5.93c-.36-.71-.72-1.44-1.15-2.12s-2.58,0-2,.94Z"/><line class="cls-14" x1="744.68" y1="194.64" x2="746.13" y2="197.73"/><path class="cls-15" d="M743.59,194.93l1.28,2.71.18.38a.71.71,0,0,0,.45.41A1.61,1.61,0,0,0,747,198c.11-.15.27-.39.18-.58L746,194.73l-.18-.38a.7.7,0,0,0-.45-.42,1.56,1.56,0,0,0-.83,0,1.48,1.48,0,0,0-.71.42c-.12.14-.28.38-.19.58Z"/><g id="魚"><path class="cls-7" d="M770.77,204.45s-8.84-19.24-14.16-19.45-20.16,11.94-33.15,9.5-7.09,17.65-7.09,17.65"/><path class="cls-7" d="M732.38,239.11s-19,5-19.55,11.6,4.84,17.72,4.84,17.72S729,265,740,248.56"/><path class="cls-8" d="M698.92,241.09c67.44,33.68,111.35-1.51,111.94-14.35s-21.09-20.23-21.09-20.23C724.8,189.08,696,218,696,218s-15.14-16.51-20.25-12.94S680,228.63,680,228.63s-10.88,17.3-8.88,24.53S698.92,241.09,698.92,241.09Z"/><path class="cls-7" d="M773.43,250.13c-2.46,19.63-11,27.77-11,27.77s-9.81-7.53-12.27-13.66,12.27-19.14,12.27-19.14"/><path class="cls-9" d="M737.8,212.36c4.15,3.32,8.12,7,12.86,9.45a23.17,23.17,0,0,0,17.17,1.95,29,29,0,0,0,7.55-4A72.07,72.07,0,0,1,783.3,215c3.91-2,9.1-2.54,11-6.61a49,49,0,0,0-4.54-1.88c-29.1-7.81-50.95-6.31-66.21-2.27C728.85,205.86,733.46,208.91,737.8,212.36Z"/><path class="cls-9" d="M742.61,234.07c-6.9-6.12-16.07-7.13-24.47-10-3.5-.11-7.28.49-10.14,2.56-3.19,2.32-3.69,6.58-1.89,10,1.61,3,5,4.5,8.15,5.37a77.75,77.75,0,0,0,9.7,1.8,37.18,37.18,0,0,0,16.57-1.32c1.63-.55,3.92-1.42,4.67-3.13C746.08,237.31,743.93,235.24,742.61,234.07Z"/><circle class="cls-10" cx="783.97" cy="217.12" r="4.68"/><path class="cls-9" d="M793.82,232a2.86,2.86,0,0,0-3.44,1c-.9,1.12-.88,2.52-1.19,3.86a4.64,4.64,0,0,1-4.26,3.52c-1.28,0-1.29,2,0,2a6.68,6.68,0,0,0,5.61-3.48,12.89,12.89,0,0,0,.93-3.52,2.43,2.43,0,0,1,.61-1.29,1.78,1.78,0,0,1,.41-.27s.32-.07.17-.05h.15a1,1,0,0,0,1.37-.35A1,1,0,0,0,793.82,232Z"/><path class="cls-9" d="M812.5,232.64a1,1,0,0,0-1.41,0,1,1,0,0,0,0,1.41l.13.17.22.3c.14.2.28.42.4.63s.21.38.31.58.1.22.16.33l0,.05.06.15a12,12,0,0,1,.41,1.33q.08.34.12.69s0,.22,0,.24l0,.38a1,1,0,1,0,2,0A10.76,10.76,0,0,0,812.5,232.64Z"/><ellipse class="cls-11" cx="803.99" cy="225.87" rx="11.28" ry="7.84" transform="translate(469.96 991.28) rotate(-82.12)"/><path class="cls-12" d="M803.21,238.59a6.74,6.74,0,0,1-2.08-.32c-5-1.54-7.66-8.15-6.13-15.06.87-4,3.08-7.32,5.9-9a7.3,7.3,0,0,1,6-.78c5,1.54,7.66,8.16,6.13,15.06-.87,4-3.08,7.33-5.9,9A7.64,7.64,0,0,1,803.21,238.59Zm1.57-22.44a4.82,4.82,0,0,0-2.38.68c-2.11,1.23-3.79,3.85-4.49,7-1.15,5.23.73,10.52,4.1,11.57a4.45,4.45,0,0,0,3.57-.51c2.11-1.22,3.79-3.85,4.49-7,1.15-5.22-.73-10.52-4.1-11.57A4.22,4.22,0,0,0,804.78,216.15Z"/><path class="cls-13" d="M769.24,217.34c-3,6.34-3.65,14.89.25,20.95a19.72,19.72,0,0,0,8,6.82c.7.34,3.36-.73,2.35-1.24-5.2-2.62-9-7.07-9.89-12.91a25,25,0,0,1,1.25-11.68,20.38,20.38,0,0,1,.93-2.39c.29-.62-2.49-.36-2.88.45Z"/><line class="cls-14" x1="692.04" y1="223.69" x2="683.85" y2="216.94"/><path class="cls-15" d="M692.89,223.11l-7.17-5.91-1-.84c-.66-.55-2.61.42-1.7,1.17l7.17,5.91,1,.84c.66.54,2.61-.42,1.7-1.17Z"/><line class="cls-14" x1="692.04" y1="229.18" x2="685.93" y2="228.1"/><path class="cls-15" d="M693.24,228.66l-5.34-.95-.77-.13a3.65,3.65,0,0,0-2,.39c-.21.1-1,.55-.38.66l5.34.94.77.14a3.75,3.75,0,0,0,2-.4c.21-.1,1-.54.38-.65Z"/><line class="cls-14" x1="693.57" y1="234.08" x2="683.85" y2="239.9"/><path class="cls-15" d="M693.09,233.43l-8.52,5.1-1.2.72c-.37.22-.85.67-.51,1.13a1.25,1.25,0,0,0,1.48.17l8.51-5.1,1.21-.72c.37-.22.84-.67.51-1.13a1.23,1.23,0,0,0-1.48-.17Z"/><line class="cls-14" x1="766.73" y1="254.37" x2="761.64" y2="265.8"/><path class="cls-15" d="M765.65,254.53l-4.46,10-.63,1.43c-.19.43.72.4.91.37a1.6,1.6,0,0,0,1.25-.68l4.45-10,.64-1.43c.19-.43-.73-.4-.91-.37-.43.06-1.06.25-1.25.69Z"/><line class="cls-14" x1="761.64" y1="251.98" x2="756.5" y2="258.63"/><path class="cls-15" d="M760.65,252l-4.5,5.82-.64.83c-.29.38.25.44.53.42a2.23,2.23,0,0,0,1.45-.53l4.5-5.82.64-.83c.29-.38-.26-.44-.53-.42a2.23,2.23,0,0,0-1.45.53Z"/><line class="cls-14" x1="726.19" y1="255.48" x2="720.42" y2="261.71"/><path class="cls-15" d="M725.29,255.51,720.23,261l-.71.77c-.31.33.27.43.49.43a2,2,0,0,0,1.31-.5l5.06-5.47.72-.76c.31-.34-.27-.44-.5-.44a2,2,0,0,0-1.31.5Z"/><line class="cls-14" x1="723.44" y1="252.83" x2="718.68" y2="255.98"/><path class="cls-15" d="M722.81,252.45l-4.16,2.76-.6.39c-.3.2-.55.68-.14.91a1.43,1.43,0,0,0,1.41-.15l4.16-2.75.6-.4c.3-.2.55-.68.13-.91a1.47,1.47,0,0,0-1.4.15Z"/><path class="cls-14" d="M753,190.7a41.81,41.81,0,0,1,3.54,7.87"/><path class="cls-15" d="M752,191.17c.1.15.19.32.28.48s.23.39.33.59.32.6.4.77a52.33,52.33,0,0,1,2.44,5.85c.18.5.84.53,1.27.41s1.08-.49.9-1a53,53,0,0,0-2.47-5.93c-.36-.71-.72-1.44-1.15-2.12s-2.58,0-2,.94Z"/><line class="cls-14" x1="744.68" y1="194.64" x2="746.13" y2="197.73"/><path class="cls-15" d="M743.59,194.93l1.28,2.71.18.38a.71.71,0,0,0,.45.41A1.61,1.61,0,0,0,747,198c.11-.15.27-.39.18-.58L746,194.73l-.18-.38a.7.7,0,0,0-.45-.42,1.56,1.56,0,0,0-.83,0,1.48,1.48,0,0,0-.71.42c-.12.14-.28.38-.19.58Z"/></g><g id="菌"><path class="cls-16" d="M514.9,343.94a5.68,5.68,0,0,1-4.69-8.85,55,55,0,0,1,29.36-19.72,5.68,5.68,0,0,1,3,10.94,44.35,44.35,0,0,0-23,15.18A5.69,5.69,0,0,1,514.9,343.94Z"/><path class="cls-17" d="M514.9,345.56a7.29,7.29,0,0,1-6-11.38,56.76,56.76,0,0,1,30.26-20.37,7.3,7.3,0,0,1,3.93,14.06,43.15,43.15,0,0,0-22.15,14.55A7.32,7.32,0,0,1,514.9,345.56Zm26.19-28.77a4.15,4.15,0,0,0-1.09.15c-18.93,5.28-28.07,18.5-28.45,19.06a4.05,4.05,0,0,0,6.7,4.56,45.72,45.72,0,0,1,23.94-15.81,4.06,4.06,0,0,0-1.1-8Z"/><path class="cls-16" d="M580.71,345.71a5.68,5.68,0,0,1-5.2-3.39c-4.47-10.19-15.76-18.6-15.87-18.69a5.67,5.67,0,0,1,6.72-9.14c.56.41,13.83,10.26,19.54,23.26a5.68,5.68,0,0,1-2.91,7.48A5.59,5.59,0,0,1,580.71,345.71Z"/><path class="cls-17" d="M580.71,347.33A7.29,7.29,0,0,1,574,343c-4.28-9.74-15.25-18-15.36-18a7.3,7.3,0,0,1,8.65-11.76c.58.43,14.19,10.54,20.07,23.92a7.32,7.32,0,0,1-3.75,9.62A7.23,7.23,0,0,1,580.71,347.33ZM563,315a4.06,4.06,0,0,0-2.41,7.32c.12.09,11.75,8.76,16.39,19.34a4.07,4.07,0,0,0,3.72,2.42,4,4,0,0,0,1.63-.34,4.06,4.06,0,0,0,2.08-5.34c-5.53-12.6-18.47-22.21-19-22.62A4.08,4.08,0,0,0,563,315Z"/><path class="cls-16" d="M566.18,370.27a5.57,5.57,0,0,1-1.45-.2c-13.39-3.54-25-11.74-25.46-12.09a5.68,5.68,0,1,1,6.6-9.24h0c.1.07,10.42,7.36,21.76,10.36a5.68,5.68,0,0,1-1.45,11.17Z"/><path class="cls-17" d="M566.18,371.89a7.39,7.39,0,0,1-1.87-.25c-13.68-3.62-25.48-12-26-12.34a7.29,7.29,0,0,1-1.7-10.18,7.32,7.32,0,0,1,10.18-1.7c.1.07,10.2,7.19,21.24,10.12a7.3,7.3,0,0,1-1.87,14.35Zm-23.6-22.58a4.05,4.05,0,0,0-2.37,7.35c.48.34,11.81,8.37,24.93,11.85a4.06,4.06,0,0,0,2.08-7.84c-11.75-3.11-22.2-10.54-22.3-10.61A4,4,0,0,0,542.58,349.31Z"/><path class="cls-16" d="M514.91,386.52l-.49,0a5.68,5.68,0,0,1-5.17-6.15,153.88,153.88,0,0,1,4-22.82,5.68,5.68,0,0,1,11,2.89,144.86,144.86,0,0,0-3.71,20.91A5.69,5.69,0,0,1,514.91,386.52Z"/><path class="cls-17" d="M514.91,388.14l-.63,0a7.28,7.28,0,0,1-6.64-7.9,156.36,156.36,0,0,1,4.08-23.1,7.3,7.3,0,0,1,14.11,3.73,143.59,143.59,0,0,0-3.66,20.63A7.34,7.34,0,0,1,514.91,388.14Zm3.87-33.22a4.06,4.06,0,0,0-3.92,3,150.86,150.86,0,0,0-4,22.55,4,4,0,0,0,.93,3,4,4,0,0,0,2.76,1.43l.35,0a4.08,4.08,0,0,0,4-3.71A145.75,145.75,0,0,1,522.7,360a4.06,4.06,0,0,0-2.89-4.95A3.65,3.65,0,0,0,518.78,354.92Z"/><path class="cls-16" d="M570.74,394.7c-2,.71-3.11,1.11-3.27,1.16a5.68,5.68,0,1,1-3.62-10.76,264.82,264.82,0,0,0,28.49-12,5.67,5.67,0,0,1,5,10.18A279.4,279.4,0,0,1,570.74,394.7Z"/><path class="cls-17" d="M565.67,397.78a7.33,7.33,0,0,1-6.93-5,7.31,7.31,0,0,1,4.59-9.24,263.81,263.81,0,0,0,28.29-11.88,7.3,7.3,0,0,1,6.43,13.1,284,284,0,0,1-26.75,11.43h0c-1.95.71-3.12,1.11-3.3,1.17A7.35,7.35,0,0,1,565.67,397.78Zm29.17-23.6a4,4,0,0,0-1.78.42,271.17,271.17,0,0,1-28.71,12,4,4,0,0,0-2.32,2,4,4,0,0,0,4.92,5.64c.18-.06,1.33-.45,3.23-1.14a283,283,0,0,0,26.44-11.3,4,4,0,0,0,2-2.33,4,4,0,0,0-3.83-5.37Z"/></g><g id="菜"><path class="cls-18" d="M383.27,259.09c-2.06-.24-5.13-.25-6.5,1.4a9.7,9.7,0,0,0-1.66,3.9,11.33,11.33,0,0,1-1.2,3.66c-1.07,1.55-3.12,2.26-5,2.86-2.13.69-4.44,1.41-5.7,3.16-.42.59,1.59.66,1.9.67a12,12,0,0,0,2.08-.1c.33-.05,1-.11,1.23-.37,2.05-2.84,6.63-2.75,9.44-4.82,2.35-1.73,2.3-4.6,3.16-7a5.94,5.94,0,0,1,.93-1.78,2.79,2.79,0,0,1,.67-.61s.18-.16.28-.12-.9.15-.59.11a4.09,4.09,0,0,1-1.16.05c-.81,0-1,0-.61,0a7.41,7.41,0,0,0,3.69-.28c1-.47-.56-.71-1-.76Z"/><path class="cls-18" d="M376,265.49a28.17,28.17,0,0,0-10,1.82c-.51.2-1,.73-.66,1.21a1.62,1.62,0,0,0,1.77.27,23.57,23.57,0,0,1,4.19-1.2,23.23,23.23,0,0,1,4.37-.35c.59,0,1.38-.33,1.47-.9s-.63-.85-1.18-.85Z"/><path class="cls-18" d="M377.68,264.27c.72,2.93,1.89,5.86,1,8.86-.17.55.67.81,1.15.81a1.54,1.54,0,0,0,1.5-.83c1-3.14-.22-6.23-1-9.3-.26-1.06-2.91-.6-2.64.46Z"/><path class="cls-19" d="M385.28,226.2s-8.43-23.74-2.79-35.23,14.8-5.3,14.8-5.3"/><path class="cls-20" d="M415.92,184.58s-19-9.6-24.8,4.88a57.35,57.35,0,0,0-3.88,27.35s-.87,14.1-10.46,29.72c0,0-8.07,12.25,4,15.69s11.42-4.57,18.23-18.44,15.76-12.76,27.71-24.33S431.54,181.28,415.92,184.58Z"/><path class="cls-21" d="M405.22,211.55c-.74,1.48-10.28,18.85-11,20.37-4,9.21-8.46,15.42-13.48,24.13-2.07,3.58,4,4.29,5.6,1.59,5.26-9.11,23.82-49.41,28.05-59C415.1,197.1,412.76,196.44,405.22,211.55Z"/><path class="cls-21" d="M416.43,215.42a14.7,14.7,0,0,1-6,4c-2.38.74-4.88,1-7.25,1.79-1.14.37-.7,2.2.45,1.82,2.55-.83,5.25-1.08,7.78-2a17,17,0,0,0,6.35-4.28C418.59,215.91,417.28,214.57,416.43,215.42Z"/><path class="cls-21" d="M406.77,201.15a8.27,8.27,0,0,0-1.07,4.77c.23,1.61.87,3.13,1.07,4.75.1.77-1.48,1.13-1.57.35-.22-1.73-.95-3.36-1.11-5.1a9.47,9.47,0,0,1,1.19-5.07C405.65,200.08,407.15,200.37,406.77,201.15Z"/><path class="cls-21" d="M396.66,205.8l-.44,13.59a.94.94,0,0,0,1.88.06l.43-13.6A.94.94,0,0,0,396.66,205.8Z"/><path class="cls-21" d="M420.84,204.34l-7.14,4.74c-.63.42-1.67-1.14-1-1.57l7.21-3.93C420.51,203.16,421.47,203.92,420.84,204.34Z"/><path class="cls-18" d="M318.93,253.58c1.86,1.36,4.34,3.68,4.2,6a10.72,10.72,0,0,1-1.61,4.39,12.81,12.81,0,0,0-1.79,3.88c-.31,2.06.81,4.17,1.85,6.05,1.2,2.17,2.52,4.5,2.21,6.87-.1.8-1.78-.67-2-.9a13.86,13.86,0,0,1-1.6-1.65c-.23-.28-.76-.88-.72-1.23.5-3.84-3.27-7.23-4-11-.59-3.18,1.62-5.46,2.72-8a6.37,6.37,0,0,0,.6-2.13,3.38,3.38,0,0,0-.08-1s0-.26-.13-.31.6.8.38.53a4.62,4.62,0,0,0,.9.92c.68.59.84.74.49.47a8.22,8.22,0,0,1-2.77-3c-.42-1.11,1-.15,1.37.13Z"/><path class="cls-18" d="M320,264.26a31.14,31.14,0,0,1,6.67,9c.26.54.27,1.35-.38,1.47s-1.36-.54-1.64-1.12a25.12,25.12,0,0,0-2.48-4.13,26.06,26.06,0,0,0-3.26-3.59c-.47-.45-.87-1.31-.51-1.83s1.15-.21,1.6.2Z"/><path class="cls-18" d="M319.54,262c-2.8,1.82-6,3.3-7.48,6.42-.28.57-1.16.15-1.54-.22a1.71,1.71,0,0,1-.58-1.81c1.59-3.26,4.88-4.86,7.81-6.77,1-.65,2.8,1.72,1.79,2.38Z"/><circle class="cls-19" cx="328.82" cy="223.41" r="38.41"/><path class="cls-20" d="M319.12,185s20.09,1.16,20.42,11.7,9.55,12.87,10.87,18.79,5.6,12,0,22.45-2.33,22.45-21.59,23.87-39.73-10.1-42.32-26.24S286.17,196.68,319.12,185Z"/><path class="cls-21" d="M302.64,256s-10.18-20.46,14.61-53.38c0,0,2.44.72,0,5.1s-16.32,30.59-7.8,48.87C309.45,256.58,310.3,261.51,302.64,256Z"/><path class="cls-21" d="M301.68,244.53a21.14,21.14,0,0,0,5,2.71,28.14,28.14,0,0,0,12.7,2,32.82,32.82,0,0,0,10-2.4c.3-.12,1.31-.51.92-1s-1.68,0-2,.14a24.19,24.19,0,0,1-13.68,1.51,25.85,25.85,0,0,1-8.52-3.19,13.29,13.29,0,0,1-1.41-.94c-.5-.38-1.54,0-2,.14-.22.08-1.39.6-.92,1Z"/><path class="cls-21" d="M309.23,216.63a13.15,13.15,0,0,0,3.94,1.61A22.38,22.38,0,0,0,324,218.1a30.84,30.84,0,0,0,8.23-3.45c.55-.31.36-.72-.2-.77a3.88,3.88,0,0,0-2.24.6,19.68,19.68,0,0,1-10.33,3,16.19,16.19,0,0,1-3.73-.51c-.51-.13-1-.28-1.51-.46l-.59-.23-.23-.1-.15-.06a6.89,6.89,0,0,1-1.07-.58c-.54-.36-1.5-.07-2.05.14-.19.07-1.42.64-.92,1Z"/><path class="cls-21" d="M304.07,231.89a31,31,0,0,0,6.22,1.52,63.52,63.52,0,0,0,17.31.43,80,80,0,0,0,13.95-2.78,7.53,7.53,0,0,0,2.14-.92c.26-.18.83-.61.72-1-.27-1-2.92-.41-3.45-.25-.94.28-1.88.54-2.83.78l-1.5.37-.5.11c.9-.15-.2,0-.37.08-1.74.35-3.5.65-5.27.87-.18,0-.71.11,0,0l-.66.07-1.09.1c-.83.07-1.67.13-2.51.17l-2.18.06h-.58c.62,0,.26,0,.12,0l-1.29,0a61,61,0,0,1-7-.64c-.46-.06.4.07.1,0l-.32-.05-.72-.13-1.2-.24c-.68-.15-1.36-.31-2-.5a18.91,18.91,0,0,1-1.9-.59,4.59,4.59,0,0,0-2,0,8.12,8.12,0,0,0-2.4.77c-.69.36-2.06,1.29-.73,1.8Z"/><path class="cls-21" d="M304.39,244.83a12.46,12.46,0,0,1-3.87.46,10,10,0,0,1-6.94-2.72,12.41,12.41,0,0,1-3.06-5.34c-.06-.21-.28-.86.17-1.09s.76.56.84.81a8.3,8.3,0,0,0,5.23,5.87,11.63,11.63,0,0,0,5.76.38,9.32,9.32,0,0,0,1.2-.27c.46-.13.73.48.84.81.05.14.26,1-.17,1.09Z"/><path class="cls-21" d="M312.57,217.73a9.77,9.77,0,0,1-3.51-.65,14.65,14.65,0,0,1-6.89-5.42,22.59,22.59,0,0,1-3.21-6.77c-.16-.52.21-.75.6-.52a2.74,2.74,0,0,1,1.07,1.57,13.71,13.71,0,0,0,4.84,7.43,11,11,0,0,0,2.71,1.43c.41.14.83.26,1.25.36l.52.11.21,0,.14,0a6.94,6.94,0,0,0,1,.07c.57,0,1,.67,1.23,1.1.08.15.53,1.21,0,1.23Z"/><path class="cls-21" d="M305.68,231.66a12,12,0,0,1-3.72-.92,20.52,20.52,0,0,1-8-5.57,29.07,29.07,0,0,1-4.59-7,3.66,3.66,0,0,1-.4-1.46,1.5,1.5,0,0,1,.29-1.07c.75-.72,1.56.67,1.71,1,.25.55.52,1.08.79,1.59.15.27.3.54.46.81.05.08.1.18.15.25-.31-.42.07.11.13.19a23,23,0,0,0,1.84,2.5c.06.08.25.33,0,0a3.45,3.45,0,0,0,.26.28l.42.45c.34.34.68.67,1,1s.62.54.94.8l.26.2c-.29-.2-.11-.09-.05,0l.59.42a20.37,20.37,0,0,0,3.54,1.9c.25.1-.22-.09,0,0l.17.07.4.14.69.22c.4.12.8.22,1.21.3a7.83,7.83,0,0,0,1.21.18c.38,0,.72.43.91.69a3.39,3.39,0,0,1,.62,1.43c.09.53.14,1.73-.76,1.69Z"/></g><g id="水"><g class="cls-22"><path class="cls-23" d="M546.16,67.69a2.41,2.41,0,0,0-3.75,0c-3.14,3.63-8.88,11.42-6.82,17.87,2.79,8.72,14.56,9.06,17,0C554.45,78.88,549.13,71.28,546.16,67.69Z"/><path class="cls-24" d="M547.11,87a.89.89,0,0,1-.73-.38,1.07,1.07,0,0,1,.15-1.42c3.34-2.84.44-8.85.41-8.92-.28-.47-.76-1.28-.33-1.57a.89.89,0,0,1,1.29.32c.18.31,4.44,7.79-.22,11.76A.89.89,0,0,1,547.11,87Z"/></g><g class="cls-25"><path class="cls-23" d="M534.62,112.42a3,3,0,0,0-4.63,0c-3.88,4.48-11,14.1-8.42,22.07,3.44,10.77,18,11.18,21,0C544.86,126.25,538.29,116.85,534.62,112.42Z"/><path class="cls-24" d="M535.8,136.32a1.14,1.14,0,0,1-.91-.48,1.32,1.32,0,0,1,.2-1.75c4.12-3.51.4-10.84.36-10.92-.34-.58-.8-1.68-.26-2a1.09,1.09,0,0,1,1.58.39c.23.39,5.48,9.63-.26,14.53A1.09,1.09,0,0,1,535.8,136.32Z"/></g><path class="cls-23" d="M573.47,89.88a3.58,3.58,0,0,0-5.58-.06c-4.67,5.4-13.21,17-10.14,26.57,4.15,13,21.66,13.47,25.34,0C585.79,106.52,577.88,95.21,573.47,89.88Z"/><path class="cls-24" d="M574.88,118.65a1.34,1.34,0,0,1-1.09-.58A1.58,1.58,0,0,1,574,116c5-4.23.42-13.23.37-13.32-.4-.71-.89-1.85-.25-2.29a1.32,1.32,0,0,1,1.91.48c.28.47,6.6,11.59-.31,17.48A1.33,1.33,0,0,1,574.88,118.65Z"/></g></svg>