<svg width="282" height="77" viewBox="0 0 282 77" fill="none" xmlns="http://www.w3.org/2000/svg">
<path d="M7.18 75.9825C6.80667 75.7959 6.15333 75.2825 5.22 74.4425C4.38 73.6025 3.54 72.6692 2.7 71.6425C1.86 70.5225 1.3 69.6825 1.02 69.1225C0.740001 68.6559 0.740001 67.8159 1.02 66.6025C1.39333 65.3892 1.76667 64.7825 2.14 64.7825C2.42 64.9692 2.79333 64.6425 3.26 63.8025C3.72667 62.9625 4.19333 62.0759 4.66 61.1425C5.12667 60.1159 5.36 59.5092 5.36 59.3225C5.45333 58.9492 5.68667 58.6692 6.06 58.4825C6.52667 58.2025 6.94667 57.9225 7.32 57.6425C7.78667 56.8959 8.39334 56.1492 9.14 55.4025C9.98 54.5625 10.6333 53.8625 11.1 53.3025C11.8467 52.3692 13.2 50.9692 15.16 49.1025C17.12 47.2359 19.0333 45.3225 20.9 43.3625C22.86 41.2159 24.5867 39.3492 26.08 37.7625C27.5733 36.0825 28.3667 34.9159 28.46 34.2625C28.46 34.2625 28.6 34.1225 28.88 33.8425C29.2533 33.4692 29.6733 33.1425 30.14 32.8625C30.6067 32.5825 31.2133 32.1159 31.96 31.4625C32.8 30.8092 33.5 30.2025 34.06 29.6425C34.2467 28.8959 34.6667 28.0559 35.32 27.1225C36.0667 26.0959 36.9067 25.1159 37.84 24.1825C38.5867 23.0625 39.2867 21.8492 39.94 20.5425C40.5933 19.1425 41.0133 18.1159 41.2 17.4625C41.48 16.4359 41.3867 15.8292 40.92 15.6425C40.4533 15.3625 39.1933 14.8959 37.14 14.2425C34.9 13.4959 32.8 13.3559 30.84 13.8225C28.88 14.2892 26.2667 15.6892 23 18.0225C21.6933 18.3025 20.48 18.6759 19.36 19.1425C18.3333 19.6092 17.4467 19.7959 16.7 19.7025C16.3267 19.5159 15.9067 19.0959 15.44 18.4425C14.9733 17.7892 14.46 17.1825 13.9 16.6225L12.5 10.6025L16.84 8.22254C20.6667 5.79587 24.3067 3.97587 27.76 2.76254C31.3067 1.45587 34.3867 1.22254 37 2.06254C38.0267 2.06254 38.96 2.20254 39.8 2.48253C40.64 2.6692 41.06 2.76254 41.06 2.76254C41.8067 2.6692 42.88 3.04254 44.28 3.88254C45.7733 4.72254 47.22 5.79587 48.62 7.10254C50.1133 8.4092 51.14 9.71587 51.7 11.0225C53.1933 13.2625 53.7533 15.9692 53.38 19.1425C53.0067 22.3159 51.6533 25.6292 49.32 29.0825C48.8533 29.6425 47.8267 30.8092 46.24 32.5825C44.6533 34.3559 42.8333 36.3625 40.78 38.6025C38.82 40.7492 37 42.6625 35.32 44.3425C33.7333 46.0225 32.7067 47.0959 32.24 47.5625C31.5867 47.8425 30.4667 48.7292 28.88 50.2225C27.3867 51.7159 25.7533 53.3959 23.98 55.2625C22.3 57.0359 20.8533 58.6225 19.64 60.0225C18.52 61.3292 18.0533 61.9825 18.24 61.9825C18.1467 62.3559 18.6133 62.3559 19.64 61.9825C20.76 61.5159 21.74 61.1425 22.58 60.8625C23.98 60.3959 25.6133 59.9759 27.48 59.6025C29.44 59.1359 31.4 58.7625 33.36 58.4825C35.32 58.2025 37 58.0159 38.4 57.9225C39.8933 57.8292 40.78 57.9225 41.06 58.2025C41.2467 58.6692 41.3867 58.8559 41.48 58.7625C41.6667 58.5759 41.76 58.4825 41.76 58.4825C41.9467 57.8292 43.1133 57.6425 45.26 57.9225C47.5 58.2025 49.5067 58.6225 51.28 59.1825C52.3067 59.4625 53.1 59.8359 53.66 60.3025C54.3133 60.7692 54.64 61.1892 54.64 61.5625C54.64 61.5625 54.7333 61.7959 54.92 62.2625C55.2 62.6359 55.62 63.1492 56.18 63.8025C57.6733 65.0159 57.6733 66.3225 56.18 67.7225C54.78 69.1225 52.2133 69.4959 48.48 68.8425C46.0533 68.8425 44.0467 68.9825 42.46 69.2625C42.0867 69.4492 41.2933 69.5425 40.08 69.5425C38.8667 69.5425 37.7 69.5892 36.58 69.6825C34.9 69.4959 33.22 69.5892 31.54 69.9625C29.86 70.2425 27.8533 70.7559 25.52 71.5025C24.68 71.7825 23.3733 72.2025 21.6 72.7625C19.8267 73.3225 17.9133 73.8825 15.86 74.4425C13.8067 75.0025 11.94 75.4225 10.26 75.7025C8.67334 75.9825 7.64667 76.0759 7.18 75.9825ZM99.7473 76.6825C99.094 76.6825 97.8807 76.4492 96.1073 75.9825C94.4273 75.5159 92.654 74.9559 90.7873 74.3025C89.014 73.5559 87.614 72.7625 86.5873 71.9225C83.414 69.2159 81.1273 66.2292 79.7273 62.9625C78.3273 59.6025 77.4873 56.1959 77.2073 52.7425C77.0207 49.2892 77.1607 46.0225 77.6273 42.9425C78.654 36.9692 80.8007 31.0425 84.0673 25.1625C87.334 19.1892 91.254 14.2425 95.8273 10.3225C98.254 8.17587 100.681 6.35587 103.107 4.86253C105.534 3.3692 108.147 2.29587 110.947 1.64253C111.974 1.36253 113.421 1.22253 115.287 1.22253C117.247 1.1292 118.554 1.08253 119.207 1.08253C121.074 1.08253 123.127 1.50253 125.367 2.34253C127.701 3.0892 129.707 4.02254 131.387 5.14254C133.067 6.1692 133.907 7.1492 133.907 8.08253C133.907 8.73587 133.861 9.3892 133.767 10.0425C133.674 10.6959 133.254 10.8359 132.507 10.4625H131.107L132.507 14.6625C132.881 15.4092 133.207 16.4359 133.487 17.7425C133.767 18.9559 133.907 20.0759 133.907 21.1025C133.907 22.0359 133.767 23.4359 133.487 25.3025C133.301 27.0759 132.974 28.9892 132.507 31.0425C132.134 33.0959 131.714 35.0092 131.247 36.7825C130.874 38.5559 130.501 39.8625 130.127 40.7025C129.847 41.2625 129.661 41.8225 129.567 42.3825C129.567 42.8492 129.567 43.2692 129.567 43.6425C129.194 44.3892 128.587 45.6959 127.747 47.5625C126.907 49.4292 126.301 50.7359 125.927 51.4825C125.554 51.8559 125.227 52.1825 124.947 52.4625C124.761 52.7425 124.854 53.0692 125.227 53.4425C125.227 53.7225 124.994 54.3759 124.527 55.4025C124.061 56.3359 123.547 57.2225 122.987 58.0625C122.521 58.9025 122.147 59.3225 121.867 59.3225C121.867 59.3225 121.727 59.3692 121.447 59.4625C121.261 59.4625 121.167 59.6025 121.167 59.8825C121.167 60.2559 120.514 61.2359 119.207 62.8225C117.994 64.4092 116.547 66.0425 114.867 67.7225C113.934 68.6559 112.441 69.8692 110.387 71.3625C108.334 72.7625 106.281 74.0225 104.227 75.1425C102.267 76.1692 100.774 76.6825 99.7473 76.6825ZM99.4673 63.2425C100.494 63.2425 101.474 63.1025 102.407 62.8225C103.341 62.4492 104.134 61.9359 104.787 61.2825C106.467 60.1625 108.054 58.6692 109.547 56.8025C111.134 54.9359 112.441 52.7892 113.467 50.3625C114.494 48.9625 115.287 47.5159 115.847 46.0225C116.501 44.4359 117.481 41.7759 118.787 38.0425C119.534 37.0159 120.047 35.7559 120.327 34.2625C120.607 32.7692 120.747 31.5092 120.747 30.4825C120.747 29.4559 120.747 28.0559 120.747 26.2825C120.841 24.5092 121.074 23.0159 121.447 21.8025C121.447 19.3759 121.401 17.9759 121.307 17.6025C121.214 17.1359 120.841 16.5292 120.187 15.7825C119.814 15.5025 119.301 15.2225 118.647 14.9425C118.087 14.6625 117.481 14.5225 116.827 14.5225C116.174 14.5225 115.287 14.7092 114.167 15.0825C113.141 15.3625 112.254 15.7359 111.507 16.2025C110.854 16.5759 110.107 16.6225 109.267 16.3425C108.521 16.0625 108.147 15.6892 108.147 15.2225C108.147 13.9159 107.494 14.0092 106.187 15.5025C104.974 16.9025 103.341 18.8625 101.287 21.3825C99.6073 23.0625 98.1607 24.7892 96.9473 26.5625C95.8273 28.2425 95.2673 29.2692 95.2673 29.6425C95.2673 30.0159 95.1273 30.4825 94.8473 31.0425C94.5673 31.6025 94.2873 32.2559 94.0073 33.0025C93.5407 33.6559 92.9807 34.7292 92.3273 36.2225C91.674 37.7159 91.0207 39.2092 90.3673 40.7025C89.8073 42.1025 89.434 43.1759 89.2473 43.9225C89.2473 44.2959 89.2473 45.3225 89.2473 47.0025C89.2473 48.5892 89.2473 50.0825 89.2473 51.4825C89.2473 53.0692 89.294 54.2359 89.3873 54.9825C89.4807 55.7292 89.6207 56.3359 89.8073 56.8025C90.0873 57.2692 90.4607 57.9692 90.9273 58.9025C91.3007 59.5559 91.8607 60.3492 92.6073 61.2825C93.4473 62.1225 94.0073 62.7292 94.2873 63.1025C95.314 64.0359 95.9673 64.4092 96.2473 64.2225C96.6207 63.9425 97.694 63.6159 99.4673 63.2425ZM155.635 75.9825C155.261 75.7959 154.608 75.2825 153.675 74.4425C152.835 73.6025 151.995 72.6692 151.155 71.6425C150.315 70.5225 149.755 69.6825 149.475 69.1225C149.195 68.6559 149.195 67.8159 149.475 66.6025C149.848 65.3892 150.221 64.7825 150.595 64.7825C150.875 64.9692 151.248 64.6425 151.715 63.8025C152.181 62.9625 152.648 62.0759 153.115 61.1425C153.581 60.1159 153.815 59.5092 153.815 59.3225C153.908 58.9492 154.141 58.6692 154.515 58.4825C154.981 58.2025 155.401 57.9225 155.775 57.6425C156.241 56.8959 156.848 56.1492 157.595 55.4025C158.435 54.5625 159.088 53.8625 159.555 53.3025C160.301 52.3692 161.655 50.9692 163.615 49.1025C165.575 47.2359 167.488 45.3225 169.355 43.3625C171.315 41.2159 173.041 39.3492 174.535 37.7625C176.028 36.0825 176.821 34.9159 176.915 34.2625C176.915 34.2625 177.055 34.1225 177.335 33.8425C177.708 33.4692 178.128 33.1425 178.595 32.8625C179.061 32.5825 179.668 32.1159 180.415 31.4625C181.255 30.8092 181.955 30.2025 182.515 29.6425C182.701 28.8959 183.121 28.0559 183.775 27.1225C184.521 26.0959 185.361 25.1159 186.295 24.1825C187.041 23.0625 187.741 21.8492 188.395 20.5425C189.048 19.1425 189.468 18.1159 189.655 17.4625C189.935 16.4359 189.841 15.8292 189.375 15.6425C188.908 15.3625 187.648 14.8959 185.595 14.2425C183.355 13.4959 181.255 13.3559 179.295 13.8225C177.335 14.2892 174.721 15.6892 171.455 18.0225C170.148 18.3025 168.935 18.6759 167.815 19.1425C166.788 19.6092 165.901 19.7959 165.155 19.7025C164.781 19.5159 164.361 19.0959 163.895 18.4425C163.428 17.7892 162.915 17.1825 162.355 16.6225L160.955 10.6025L165.295 8.22254C169.121 5.79587 172.761 3.97587 176.215 2.76254C179.761 1.45587 182.841 1.22254 185.455 2.06254C186.481 2.06254 187.415 2.20254 188.255 2.48253C189.095 2.6692 189.515 2.76254 189.515 2.76254C190.261 2.6692 191.335 3.04254 192.735 3.88254C194.228 4.72254 195.675 5.79587 197.075 7.10254C198.568 8.4092 199.595 9.71587 200.155 11.0225C201.648 13.2625 202.208 15.9692 201.835 19.1425C201.461 22.3159 200.108 25.6292 197.775 29.0825C197.308 29.6425 196.281 30.8092 194.695 32.5825C193.108 34.3559 191.288 36.3625 189.235 38.6025C187.275 40.7492 185.455 42.6625 183.775 44.3425C182.188 46.0225 181.161 47.0959 180.695 47.5625C180.041 47.8425 178.921 48.7292 177.335 50.2225C175.841 51.7159 174.208 53.3959 172.435 55.2625C170.755 57.0359 169.308 58.6225 168.095 60.0225C166.975 61.3292 166.508 61.9825 166.695 61.9825C166.601 62.3559 167.068 62.3559 168.095 61.9825C169.215 61.5159 170.195 61.1425 171.035 60.8625C172.435 60.3959 174.068 59.9759 175.935 59.6025C177.895 59.1359 179.855 58.7625 181.815 58.4825C183.775 58.2025 185.455 58.0159 186.855 57.9225C188.348 57.8292 189.235 57.9225 189.515 58.2025C189.701 58.6692 189.841 58.8559 189.935 58.7625C190.121 58.5759 190.215 58.4825 190.215 58.4825C190.401 57.8292 191.568 57.6425 193.715 57.9225C195.955 58.2025 197.961 58.6225 199.735 59.1825C200.761 59.4625 201.555 59.8359 202.115 60.3025C202.768 60.7692 203.095 61.1892 203.095 61.5625C203.095 61.5625 203.188 61.7959 203.375 62.2625C203.655 62.6359 204.075 63.1492 204.635 63.8025C206.128 65.0159 206.128 66.3225 204.635 67.7225C203.235 69.1225 200.668 69.4959 196.935 68.8425C194.508 68.8425 192.501 68.9825 190.915 69.2625C190.541 69.4492 189.748 69.5425 188.535 69.5425C187.321 69.5425 186.155 69.5892 185.035 69.6825C183.355 69.4959 181.675 69.5892 179.995 69.9625C178.315 70.2425 176.308 70.7559 173.975 71.5025C173.135 71.7825 171.828 72.2025 170.055 72.7625C168.281 73.3225 166.368 73.8825 164.315 74.4425C162.261 75.0025 160.395 75.4225 158.715 75.7025C157.128 75.9825 156.101 76.0759 155.635 75.9825ZM229.862 75.9825C229.489 75.7959 228.835 75.2825 227.902 74.4425C227.062 73.6025 226.222 72.6692 225.382 71.6425C224.542 70.5225 223.982 69.6825 223.702 69.1225C223.422 68.6559 223.422 67.8159 223.702 66.6025C224.075 65.3892 224.449 64.7825 224.822 64.7825C225.102 64.9692 225.475 64.6425 225.942 63.8025C226.409 62.9625 226.875 62.0759 227.342 61.1425C227.809 60.1159 228.042 59.5092 228.042 59.3225C228.135 58.9492 228.369 58.6692 228.742 58.4825C229.209 58.2025 229.629 57.9225 230.002 57.6425C230.469 56.8959 231.075 56.1492 231.822 55.4025C232.662 54.5625 233.315 53.8625 233.782 53.3025C234.529 52.3692 235.882 50.9692 237.842 49.1025C239.802 47.2359 241.715 45.3225 243.582 43.3625C245.542 41.2159 247.269 39.3492 248.762 37.7625C250.255 36.0825 251.049 34.9159 251.142 34.2625C251.142 34.2625 251.282 34.1225 251.562 33.8425C251.935 33.4692 252.355 33.1425 252.822 32.8625C253.289 32.5825 253.895 32.1159 254.642 31.4625C255.482 30.8092 256.182 30.2025 256.742 29.6425C256.929 28.8959 257.349 28.0559 258.002 27.1225C258.749 26.0959 259.589 25.1159 260.522 24.1825C261.269 23.0625 261.969 21.8492 262.622 20.5425C263.275 19.1425 263.695 18.1159 263.882 17.4625C264.162 16.4359 264.069 15.8292 263.602 15.6425C263.135 15.3625 261.875 14.8959 259.822 14.2425C257.582 13.4959 255.482 13.3559 253.522 13.8225C251.562 14.2892 248.949 15.6892 245.682 18.0225C244.375 18.3025 243.162 18.6759 242.042 19.1425C241.015 19.6092 240.129 19.7959 239.382 19.7025C239.009 19.5159 238.589 19.0959 238.122 18.4425C237.655 17.7892 237.142 17.1825 236.582 16.6225L235.182 10.6025L239.522 8.22254C243.349 5.79587 246.989 3.97587 250.442 2.76254C253.989 1.45587 257.069 1.22254 259.682 2.06254C260.709 2.06254 261.642 2.20254 262.482 2.48253C263.322 2.6692 263.742 2.76254 263.742 2.76254C264.489 2.6692 265.562 3.04254 266.962 3.88254C268.455 4.72254 269.902 5.79587 271.302 7.10254C272.795 8.4092 273.822 9.71587 274.382 11.0225C275.875 13.2625 276.435 15.9692 276.062 19.1425C275.689 22.3159 274.335 25.6292 272.002 29.0825C271.535 29.6425 270.509 30.8092 268.922 32.5825C267.335 34.3559 265.515 36.3625 263.462 38.6025C261.502 40.7492 259.682 42.6625 258.002 44.3425C256.415 46.0225 255.389 47.0959 254.922 47.5625C254.269 47.8425 253.149 48.7292 251.562 50.2225C250.069 51.7159 248.435 53.3959 246.662 55.2625C244.982 57.0359 243.535 58.6225 242.322 60.0225C241.202 61.3292 240.735 61.9825 240.922 61.9825C240.829 62.3559 241.295 62.3559 242.322 61.9825C243.442 61.5159 244.422 61.1425 245.262 60.8625C246.662 60.3959 248.295 59.9759 250.162 59.6025C252.122 59.1359 254.082 58.7625 256.042 58.4825C258.002 58.2025 259.682 58.0159 261.082 57.9225C262.575 57.8292 263.462 57.9225 263.742 58.2025C263.929 58.6692 264.069 58.8559 264.162 58.7625C264.349 58.5759 264.442 58.4825 264.442 58.4825C264.629 57.8292 265.795 57.6425 267.942 57.9225C270.182 58.2025 272.189 58.6225 273.962 59.1825C274.989 59.4625 275.782 59.8359 276.342 60.3025C276.995 60.7692 277.322 61.1892 277.322 61.5625C277.322 61.5625 277.415 61.7959 277.602 62.2625C277.882 62.6359 278.302 63.1492 278.862 63.8025C280.355 65.0159 280.355 66.3225 278.862 67.7225C277.462 69.1225 274.895 69.4959 271.162 68.8425C268.735 68.8425 266.729 68.9825 265.142 69.2625C264.769 69.4492 263.975 69.5425 262.762 69.5425C261.549 69.5425 260.382 69.5892 259.262 69.6825C257.582 69.4959 255.902 69.5892 254.222 69.9625C252.542 70.2425 250.535 70.7559 248.202 71.5025C247.362 71.7825 246.055 72.2025 244.282 72.7625C242.509 73.3225 240.595 73.8825 238.542 74.4425C236.489 75.0025 234.622 75.4225 232.942 75.7025C231.355 75.9825 230.329 76.0759 229.862 75.9825Z" fill="#B8C318"/>
</svg>
