<svg width="420" height="413" viewBox="0 0 420 413" fill="none" xmlns="http://www.w3.org/2000/svg">
<g clip-path="url(#clip0_744_3229)">
<path d="M168.019 170.088H158.048C130.882 168.695 103.722 172.938 78.2756 182.552C61.1909 189.18 45.8388 199.61 33.3825 213.051C20.9263 226.492 11.6927 242.595 6.3811 260.133C0.320995 280.111 -1.51288 301.131 0.996396 321.856C2.79127 335.218 38.2897 329.037 36.3951 315.176C30.0134 268.908 50.0562 213.765 97.8197 197.213C121.186 190.424 145.735 188.724 169.814 192.227L173.803 185.547L168.019 170.088Z" fill="#EE7941"/>
<path d="M170.016 191.827C172.209 191.827 174.503 191.827 176.696 192.425L173.805 185.146L170.016 191.827Z" fill="#C375AD"/>
<path d="M96.7247 385.872C93.5338 386.969 100.115 385.274 96.7247 385.872V385.872Z" fill="#A03C83"/>
<path d="M270.527 21.0157H271.325C278.106 20.1183 288.277 17.5226 289.673 10.3431C291.069 3.1636 280.798 0.371582 275.015 0.371582C223.362 4.85876 168.519 33.8803 150.171 84.7351C143.162 105.931 141.316 128.49 144.786 150.543C148.185 170.155 153.154 189.462 159.644 208.279L185.171 166.898C181.522 153.687 179.381 140.105 178.789 126.413C177.702 109.248 181.113 92.0998 188.685 76.6575C196.258 61.2153 207.729 48.0134 221.966 38.3636C227.645 34.7158 233.654 31.6141 239.915 29.0932C243.006 27.8967 246.197 26.6968 249.288 25.6996L254.274 24.2049H254.972C259.359 23.108 263.747 22.2127 268.134 21.415H270.428H269.231L270.527 21.0157Z" fill="#B65D41"/>
<path d="M339.706 108.541L243.399 17.9446C239.869 14.624 234.331 14.7774 231.03 18.2872C227.728 21.797 227.913 27.3342 231.443 30.6548L327.75 121.251C331.279 124.572 336.818 124.418 340.119 120.909C343.421 117.399 343.236 111.862 339.706 108.541Z" fill="#F0D55C"/>
<path d="M305.6 146.318L200.505 47.4544C196.975 44.1338 191.437 44.2872 188.135 47.797C184.833 51.3068 185.018 56.844 188.548 60.1645L293.643 159.028C297.173 162.349 302.711 162.195 306.013 158.685C309.315 155.176 309.13 149.638 305.6 146.318Z" fill="#F0D55C"/>
<path d="M253.378 167.992L176.198 95.4015C175.367 94.6158 174.389 94.0028 173.32 93.5951C172.251 93.1874 171.112 92.993 169.969 93.0255C168.825 93.0579 167.699 93.3126 166.655 93.7801C165.611 94.2477 164.669 94.9205 163.883 95.752C163.098 96.5836 162.484 97.5607 162.076 98.6296C161.668 99.6984 161.475 100.836 161.507 101.979C161.54 103.123 161.797 104.251 162.265 105.295C162.732 106.339 163.401 107.28 164.232 108.065L241.412 180.758C242.227 181.653 243.219 182.368 244.324 182.862C245.43 183.355 246.626 183.612 247.836 183.621C249.047 183.63 250.246 183.387 251.358 182.91C252.471 182.433 253.473 181.734 254.3 180.851C255.128 179.968 255.765 178.919 256.169 177.778C256.574 176.637 256.738 175.427 256.651 174.219C256.565 173.012 256.229 171.834 255.666 170.762C255.102 169.691 254.323 168.748 253.378 167.992Z" fill="#F0D55C"/>
<path d="M102.378 187.89C98.8485 184.569 93.3112 184.723 90.0095 188.233C86.7078 191.743 86.8919 197.279 90.4218 200.6L180.627 285.457C184.157 288.777 189.694 288.623 192.996 285.113C196.298 281.603 196.114 276.067 192.584 272.747L102.378 187.89Z" fill="#F0D55C"/>
<path d="M171.235 322.534L57.7157 215.745C54.1858 212.425 48.6477 212.578 45.3459 216.088C42.0442 219.598 42.2292 225.135 45.7591 228.456L159.279 335.244C162.809 338.565 168.347 338.412 171.649 334.902C174.95 331.392 174.765 325.855 171.235 322.534Z" fill="#F0D55C"/>
<path d="M138.128 362.181L32.0164 262.362C28.4866 259.041 22.9484 259.194 19.6467 262.704C16.345 266.214 16.53 271.751 20.0599 275.072L126.172 374.892C129.701 378.212 135.24 378.059 138.541 374.549C141.843 371.039 141.658 365.502 138.128 362.181Z" fill="#F0D55C"/>
<path d="M168.02 170.087L174.002 185.146L182.678 171.187L168.02 170.087Z" fill="#C375AD"/>
<path d="M373.033 58.7077C373.033 45.9442 337.235 51.1286 337.634 65.3878C337.634 66.6841 337.634 68.084 337.634 69.3803C337.634 68.3832 337.634 69.3801 337.634 71.6736C337.634 73.967 337.634 75.8605 336.936 77.9545C335.377 89.5668 332.223 100.907 327.563 111.657C320.621 127.167 309.901 140.688 296.383 150.983C282.865 161.278 266.98 168.021 250.184 170.59C227.963 173.63 205.446 173.832 183.175 171.189L174.5 185.148L177.392 192.427C207.387 195.866 237.751 194.076 267.135 187.14C286.403 182.961 304.548 174.694 320.341 162.892C336.134 151.091 349.207 136.03 358.674 118.736C368.314 100.209 373.246 79.5924 373.033 58.7077Z" fill="#EE7941"/>
<path d="M169.019 244.377C176.198 284.263 172.21 329.334 141.797 359.448C138.665 362.492 135.334 365.325 131.825 367.925C129.555 369.742 127.192 371.437 124.745 373.008C121.654 374.903 118.463 376.698 115.272 378.393L111.084 380.487H110.287C105.799 382.282 101.312 383.677 96.825 385.273C93.6341 386.37 100.215 384.674 96.825 385.273H95.9276C90.2438 386.37 78.6769 390.558 80.0729 398.336C81.4689 406.114 94.2325 405.913 100.016 404.817C126.981 399.648 151.699 386.301 170.807 366.586C189.916 346.871 202.487 321.746 206.811 294.633C209.741 267.461 207.268 239.978 199.532 213.766C195.144 197.712 189.56 182.154 185.671 166.299L160.144 207.68C163.843 219.72 166.807 231.976 169.019 244.377Z" fill="#B65D41"/>
<path d="M306.698 285.175L294.203 297.356L320.373 324.201L332.868 312.02L306.698 285.175Z" fill="#D1C6B0"/>
<path d="M322.281 300.789L309.358 313.387C305.454 317.193 305.372 323.441 309.178 327.345L389.853 410.102C393.659 414.006 399.907 414.084 403.811 410.278L416.734 397.68C420.638 393.874 420.72 387.626 416.914 383.722L336.24 300.965C332.434 297.061 326.185 296.983 322.281 300.789Z" fill="#908576"/>
<path d="M238.019 327.739C293.806 327.739 339.031 282.514 339.031 226.727C339.031 170.94 293.806 125.716 238.019 125.716C182.232 125.716 137.008 170.94 137.008 226.727C137.008 282.514 182.232 327.739 238.019 327.739Z" fill="#D1C6B0"/>
<path d="M238.019 303.109C280.203 303.109 314.4 268.911 314.4 226.727C314.4 184.543 280.203 150.345 238.019 150.345C195.834 150.345 161.637 184.543 161.637 226.727C161.637 268.911 195.834 303.109 238.019 303.109Z" fill="#FBFDFC"/>
<path d="M214.787 167.994C209.132 170.258 203.828 173.315 199.031 177.069C194.721 180.528 190.898 184.555 187.664 189.037L274.616 275.09L276.111 273.995C284.795 267.128 291.448 258.027 295.356 247.668L214.787 167.994Z" fill="#F0D55C"/>
<g clip-path="url(#clip1_744_3229)">
<path d="M293.314 214.02C292.378 214.024 291.469 213.708 290.737 213.125C290.005 212.543 289.493 211.727 289.288 210.815C288.246 203.256 285.003 196.174 279.962 190.446C274.921 184.719 268.306 180.601 260.941 178.607C259.875 178.408 258.932 177.795 258.316 176.902C257.701 176.01 257.463 174.908 257.655 173.841C257.733 173.312 257.919 172.804 258.2 172.349C258.481 171.893 258.852 171.501 259.291 171.193C259.729 170.886 260.225 170.673 260.749 170.563C261.273 170.454 261.813 170.449 262.338 170.555C271.329 172.77 279.457 177.609 285.69 184.457C291.923 191.304 295.978 199.851 297.34 209.009C297.461 209.538 297.476 210.087 297.384 210.622C297.293 211.157 297.096 211.668 296.806 212.126C296.516 212.585 296.137 212.978 295.693 213.29C295.249 213.601 294.747 213.823 294.217 213.94L293.314 214.02Z" fill="#CFE6F4"/>
</g>
</g>
<defs>
<clipPath id="clip0_744_3229">
<rect width="420" height="412.322" fill="white" transform="translate(0 0.473633)"/>
</clipPath>
<clipPath id="clip1_744_3229">
<rect width="39.8491" height="43.5464" fill="white" transform="translate(257.574 170.474)"/>
</clipPath>
</defs>
</svg>
