<svg width="429" height="167" viewBox="0 0 429 167" fill="none" xmlns="http://www.w3.org/2000/svg">
<path d="M168.025 46.9847C170.43 48.9347 170.885 51.6647 168.545 53.8097C166.335 55.8897 163.995 55.5647 162.045 53.0947C160.29 50.8197 158.145 48.4147 155.935 46.0747V54.5897C155.935 62.5847 147.615 64.0147 138.32 59.6597C137.02 59.0747 136.63 57.9697 137.02 56.6697C137.41 55.3697 138.255 54.8497 139.815 55.0447C145.21 55.6297 146.055 55.2397 146.055 51.9897V47.2447C144.105 49.0647 141.96 50.6897 139.88 51.9247C138.06 52.9647 136.37 53.0297 135.135 51.9247C135.33 53.5497 134.55 54.5247 132.795 55.0447C130.65 55.6947 129.155 54.9147 128.7 52.7697C127.855 48.9347 126.685 45.2297 125.71 42.4347C125.255 41.1347 125.71 40.2897 126.685 39.7697C127.725 39.3147 128.57 39.7047 129.35 40.6797C130.845 42.5647 132.405 45.0347 133.64 47.6997C133.835 46.2697 134.875 45.0347 136.435 44.6447C139.36 43.8647 142.74 42.6947 146.055 41.0697V28.3297H135.265C133.575 28.3297 132.6 27.3547 132.6 25.6647C132.6 23.9747 133.575 22.9997 135.265 22.9997H151.32L152.1 20.0097H144.495C143.52 22.0897 141.57 22.8047 139.035 22.2847C136.37 21.7647 135.59 20.1397 136.305 17.6047C137.605 12.7947 139.035 6.74965 139.75 3.69466C140.27 1.48466 142.61 0.639656 144.82 0.964656C147.225 1.35465 148.655 2.84965 148.395 4.92966H154.505C155.61 3.17465 157.755 2.39466 160.095 2.84965C162.63 3.36966 164.32 5.25465 163.605 8.76466C162.955 11.8847 161.33 18.0597 159.835 22.9997H166.855C168.545 22.9997 169.52 23.9747 169.52 25.6647C169.52 27.3547 168.545 28.3297 166.855 28.3297H155.935V38.2747C157.365 36.1947 158.665 33.9197 159.705 31.7097C160.875 29.4347 163.28 28.7197 165.425 30.1497C167.7 31.6447 167.96 33.9197 166.14 35.8047C163.995 38.0797 161.655 40.0297 159.575 41.3947C162.76 43.0847 165.555 44.9697 168.025 46.9847ZM115.18 32.2297H116.415C118.235 29.4997 119.86 26.8347 121.29 24.2347C119.665 24.8847 117.975 25.4697 116.35 25.8597C113.425 26.5747 111.215 25.0147 111.02 21.9597C110.825 19.1647 112.385 17.3447 115.05 17.4747C116.545 12.7297 117.455 8.56965 118.04 4.66965C118.495 1.61466 121.16 0.574657 123.89 1.09465C126.685 1.61465 127.92 3.95466 127.075 6.55466C125.905 10.0647 123.435 14.4197 120.9 17.7997C122.07 17.8647 123.305 17.8647 124.475 17.9297C125.32 16.0447 126.1 14.2897 126.75 12.5347C127.79 9.67466 130.39 9.02466 132.73 9.99966C135.33 11.1047 136.435 13.3797 134.94 16.0447C131.95 21.3747 128.05 26.8347 122.98 31.9047C124.605 31.8397 126.165 31.6447 127.725 31.4497C127.595 31.0597 127.53 30.6047 127.4 30.2147C127.01 28.7197 127.465 27.7447 128.57 27.2897C129.74 26.8347 130.585 27.2897 131.43 28.3947C133.055 30.5397 134.55 33.3347 135.655 36.1297C136.565 38.3397 135.785 40.2247 133.38 40.8747C131.105 41.4597 129.61 40.4847 129.22 38.3397L128.7 35.8697C124.93 37.8847 120.9 39.3797 116.415 40.6797C113.295 41.5897 111.085 40.1597 110.76 37.1697C110.37 34.3097 111.8 32.2947 115.18 32.2297ZM145.99 14.8097H153.465C153.79 13.3147 154.115 12.0147 154.31 10.9747C154.44 10.4547 154.115 10.1297 153.595 10.1297H147.225C146.835 11.6897 146.445 13.2497 145.99 14.8097ZM143.195 40.4847C141.115 41.7847 138.71 41.1347 137.93 39.0547C137.15 36.9747 136.175 34.5697 135.265 32.8147C134.615 31.5797 134.875 30.5397 135.785 29.7597C136.695 28.9797 137.865 29.1097 138.905 29.9547C141.05 31.7097 142.805 33.3997 144.235 35.4797C145.535 37.3647 145.08 39.3147 143.195 40.4847ZM124.15 42.6947C125.645 46.2047 127.075 50.9497 127.79 55.0447C128.245 57.5797 127.335 59.0097 124.8 59.2697C122.265 59.5297 120.705 58.4897 120.705 55.7597C120.705 51.5347 120.445 46.8547 119.99 43.6047C119.86 42.1097 120.445 41.2647 121.68 41.0047C122.915 40.7447 123.63 41.4597 124.15 42.6947ZM116.155 41.9147C117.455 41.9797 118.17 42.9547 118.365 44.5147C119.015 48.9997 119.21 53.4197 119.015 57.5147C118.885 60.5047 116.675 61.8047 113.75 61.0897C111.02 60.4397 110.175 58.5547 111.02 56.0847C112.385 52.2497 113.165 48.4147 113.75 44.0597C113.945 42.5647 114.985 41.8497 116.155 41.9147Z" fill="#594A39"/>
<path d="M196.235 20.9847C196.235 23.9747 194.545 25.3397 191.555 25.3397C188.565 25.3397 186.875 23.9747 186.875 20.9847V15.0697C186.875 12.3397 188.37 10.8447 191.1 10.8447H209.105V8.30965H193.635C191.945 8.30965 191.035 7.39965 191.035 5.70966C191.035 4.01965 191.945 3.10966 193.635 3.10966H235.04C236.73 3.10966 237.64 4.01965 237.64 5.70966C237.64 7.39965 236.73 8.30965 235.04 8.30965H219.635V10.8447H237.64C240.37 10.8447 241.865 12.3397 241.865 15.0697V20.9847C241.865 23.9747 240.175 25.3397 237.185 25.3397C234.195 25.3397 232.505 23.9747 232.505 20.9847V16.5647C232.505 16.1097 232.18 15.7847 231.725 15.7847H218.985V25.5997C218.985 28.1997 217.36 29.5647 214.37 29.5647C211.38 29.5647 209.755 28.1997 209.755 25.5997V15.7847H197.015C196.56 15.7847 196.235 16.1097 196.235 16.5647V20.9847ZM206.765 17.7997C208.13 17.7997 208.91 18.5797 208.91 19.9447C208.91 21.3097 208.13 22.0897 206.765 22.0897H199.42C198.055 22.0897 197.275 21.3097 197.275 19.9447C197.275 18.5797 198.055 17.7997 199.42 17.7997H206.765ZM222.105 22.0897C220.74 22.0897 219.96 21.3097 219.96 19.9447C219.96 18.5797 220.74 17.7997 222.105 17.7997H229.45C230.88 17.7997 231.595 18.5797 231.595 19.9447C231.595 21.3097 230.88 22.0897 229.45 22.0897H222.105ZM206.765 23.7797C208.13 23.7797 208.91 24.5597 208.91 25.9247C208.91 27.2897 208.13 28.0697 206.765 28.0697H197.795C196.365 28.0697 195.65 27.2897 195.65 25.9247C195.65 24.5597 196.365 23.7797 197.795 23.7797H206.765ZM222.105 28.0697C220.74 28.0697 219.96 27.2897 219.96 25.9247C219.96 24.5597 220.74 23.7797 222.105 23.7797H230.815C232.18 23.7797 232.96 24.5597 232.96 25.9247C232.96 27.2897 232.18 28.0697 230.815 28.0697H222.105ZM242.515 46.5947C244.53 56.1497 242.645 59.8547 236.47 60.2447C230.425 60.6347 224.445 60.6997 218.27 60.3097C211.445 59.8547 209.105 58.4897 209.105 51.3397V50.2997H196.235C193.505 50.2997 192.01 48.8047 192.01 46.0747V34.6997C192.01 31.9697 193.505 30.4747 196.235 30.4747H231.92C234.65 30.4747 236.145 31.9697 236.145 34.6997V46.0747C236.145 48.8047 234.65 50.2997 231.92 50.2997H219.245C219.31 52.1197 219.96 52.6397 222.04 52.7697C225.81 52.9647 231.335 52.8997 235.56 52.5747C237.25 52.4447 237.77 50.8197 237.835 46.5947C237.835 44.9047 238.745 44.0597 240.045 44.0597C241.345 44.0597 242.125 44.7097 242.515 46.5947ZM201.11 36.0647V37.9497H209.105V35.2847H201.89C201.435 35.2847 201.11 35.6097 201.11 36.0647ZM227.045 36.0647C227.045 35.6097 226.72 35.2847 226.265 35.2847H219.245V37.9497H227.045V36.0647ZM201.89 45.4897H209.105V42.4997H201.11V44.7097C201.11 45.1647 201.435 45.4897 201.89 45.4897ZM227.045 44.7097V42.4997H219.245V45.4897H226.265C226.72 45.4897 227.045 45.1647 227.045 44.7097Z" fill="#594A39"/>
<path d="M314.015 51.3397C317.265 52.3797 318.305 54.9797 317.265 58.3597C316.16 61.8697 313.43 62.4547 310.05 61.3497C304.33 59.4647 299.195 56.6697 294.84 53.0947C288.47 57.4497 280.605 60.5697 271.115 62.1297C269.555 62.3897 268.645 61.4797 268.255 60.1147C267.93 58.8147 268.515 57.6447 270.14 57.0597C278.005 54.1997 284.115 51.1447 288.925 47.3097C285.025 42.6947 282.035 37.2997 280.28 31.5147C277.875 44.7747 272.74 54.5247 263.51 61.3497C262.275 62.2597 260.585 62.1297 259.74 61.1547C258.83 60.1147 258.765 58.6847 259.675 57.4497C268.125 45.9447 271.245 33.2697 271.505 9.60966H264.68C262.86 9.60966 261.885 8.69966 261.885 6.68466C261.885 4.86466 262.86 3.75965 264.68 3.75965H297.7C301.925 3.75965 303.55 6.48965 302.9 9.60966C301.99 13.7047 300.885 17.9947 299.585 22.1547H306.215C311.09 22.1547 312.715 24.9497 311.415 29.5647C309.595 36.0647 306.475 41.7847 302.185 46.5947C305.63 48.4147 309.53 49.9747 314.015 51.3397ZM291.2 9.60966H282.165C282.1 14.0297 281.905 18.2547 281.58 22.1547H289.575C290.615 17.7997 291.46 13.2497 291.85 10.4547C291.915 9.93466 291.72 9.60966 291.2 9.60966ZM301.015 28.9147C301.21 28.3297 300.95 28.0047 300.365 28.0047H284.18C286.715 33.3997 290.03 37.8847 294.645 41.6547C297.44 38.0797 299.52 33.9197 301.015 28.9147Z" fill="#594A39"/>
<path d="M11.18 166.325C7.865 166.325 6.045 164.765 6.045 161.84V147.345H2.73C1.04 147.345 0 146.045 0 144.03C0 142.145 1.04 140.845 2.73 140.845H6.045V122.385C6.045 119.655 7.54 118.03 10.27 118.03H23.725V113.675H3.77C1.95 113.675 0.78 112.57 0.78 110.425C0.78 108.41 1.95 107.305 3.77 107.305H54.275C56.095 107.305 57.265 108.54 57.265 110.49C57.265 112.635 56.095 113.675 54.275 113.675H34.125V118.03H47.58C50.31 118.03 51.805 119.655 51.805 122.385V140.845H55.38C57.07 140.845 58.11 142.21 58.11 144.095C58.11 146.11 57.07 147.345 55.38 147.345H51.805V157.94C51.805 165.87 45.175 167.885 33.475 164.44C31.85 163.985 31.265 162.88 31.395 161.32C31.525 159.955 32.435 159.24 34.125 159.305C39.91 159.565 41.535 158.915 41.535 155.34V147.345H16.315V161.84C16.315 164.765 14.495 166.325 11.18 166.325ZM16.315 129.275H23.725V123.88H17.095C16.64 123.88 16.315 124.205 16.315 124.66V129.275ZM34.125 129.275H41.535V124.66C41.535 124.205 41.21 123.88 40.755 123.88H34.125V129.275ZM16.315 140.845H23.725V134.605H16.315V140.845ZM34.125 140.845H41.535V134.605H34.125V140.845Z" fill="#594A39"/>
<path d="M128.7 157.03C130.715 157.03 131.885 158.135 131.885 160.15C131.885 162.165 130.715 163.27 128.7 163.27H77.805C75.79 163.27 74.62 162.165 74.62 160.15C74.62 158.135 75.79 157.03 77.805 157.03H98.8V143.25H85.15C83.265 143.25 82.16 142.21 82.16 140.195C82.16 138.18 83.265 137.14 85.15 137.14H98.8V126.09H89.05C86.45 130.965 83.07 135.385 79.43 138.505C78.195 139.545 77.025 139.74 75.985 138.895C74.88 137.985 74.75 136.75 75.53 135.45C79.43 128.82 81.77 121.28 83.265 112.115C83.85 108.345 86.06 106.915 89.505 107.435C92.885 107.955 94.51 110.1 93.6 114.13C93.145 116.145 92.495 118.225 91.715 120.24H98.8V109.84C98.8 106.655 100.75 104.9 104.39 104.9C108.03 104.9 109.98 106.655 109.98 109.84V119.98H125.255C127.205 119.98 128.245 121.02 128.245 123.035C128.245 125.05 127.14 126.09 125.255 126.09H109.98V137.14H123.435C125.385 137.14 126.425 138.18 126.425 140.195C126.425 142.21 125.32 143.25 123.435 143.25H109.98V157.03H128.7Z" fill="#594A39"/>
<path d="M171.665 113.61C174.135 115.885 176.345 118.875 177.905 121.865C179.335 124.53 178.685 126.675 176.085 127.845C173.55 129.015 171.795 128.105 170.69 125.05L170.3 123.88C165.555 125.96 159.25 127.585 153.335 128.3C150.345 128.69 148.525 127.325 148.33 124.465C148.135 121.735 149.435 120.045 152.75 120.045H153.075C154.44 116.535 155.61 112.635 156.585 108.93C157.56 105.29 159.64 104.315 162.955 105.16C166.075 105.94 166.92 108.28 165.49 111.335C164.125 114.325 162.24 117.25 160.16 119.85C163.02 119.655 165.88 119.46 168.61 119.07C168.285 118.095 167.895 117.12 167.505 116.145C166.92 114.715 167.245 113.675 168.415 113.025C169.585 112.375 170.56 112.635 171.665 113.61ZM188.305 133.695C181.285 133.305 179.465 132.265 179.465 124.92V109.19C179.465 106.59 181.09 105.225 184.08 105.225C187.07 105.225 188.695 106.59 188.695 109.19V114.39C191.035 112.895 193.245 111.27 195.325 109.45C197.73 107.305 200.265 107.305 202.02 109.515C203.905 111.855 203.515 114.195 200.46 116.015C197.34 117.9 193.05 119.395 188.695 120.37V122.58C188.695 124.725 189.215 125.245 191.23 125.375C193.245 125.505 195.845 125.505 197.86 125.375C199.875 125.245 200.46 124.465 200.46 120.825C200.46 119.265 201.305 118.55 202.475 118.55C203.71 118.55 204.555 119.07 204.88 120.695C206.505 128.82 205.465 133.37 199.42 133.695C195.91 133.89 192.01 133.89 188.305 133.695ZM172.25 129.47C174.98 129.47 176.475 130.965 176.475 133.695V158.33C176.475 164.7 171.015 166.715 163.8 164.245C162.11 163.66 161.395 162.555 161.72 161.19C162.045 159.89 162.89 159.37 164.385 159.5C167.05 159.695 167.375 159.175 167.375 156.9V152.285H160.225V161.645C160.225 164.245 158.6 165.61 155.61 165.61C152.62 165.61 150.995 164.245 150.995 161.645V133.695C150.995 130.965 152.49 129.47 155.22 129.47H172.25ZM161.005 134.67C160.55 134.67 160.225 134.995 160.225 135.45V138.505H167.375V135.45C167.375 134.995 167.05 134.67 166.595 134.67H161.005ZM206.18 150.66C208.065 159.695 206.765 164.505 200.59 164.83C197.08 165.025 192.335 165.025 188.63 164.83C181.61 164.44 179.465 163.4 179.465 156.055V139.415C179.465 136.815 181.09 135.45 184.08 135.45C187.07 135.45 188.695 136.815 188.695 139.415V143.64C191.1 142.145 193.505 140.26 195.975 138.05C198.315 135.97 200.72 135.905 202.54 138.115C204.425 140.39 204.36 142.795 201.305 144.68C197.665 146.89 193.18 148.645 188.695 149.685V153.26C188.695 155.405 189.215 155.925 191.23 156.055C193.245 156.185 196.95 156.185 198.965 156.055C201.045 155.925 201.5 155.015 201.5 150.595C201.5 148.97 202.345 148.255 203.645 148.255C204.945 148.255 205.855 148.97 206.18 150.66ZM160.225 147.345H167.375V143.445H160.225V147.345Z" fill="#594A39"/>
<path d="M230.035 116.535C227.825 113.805 225.68 111.335 223.795 109.32C222.885 108.345 222.755 107.24 223.47 106.2C224.185 105.16 225.095 105.03 226.33 105.485C229.06 106.46 232.765 108.41 235.495 110.49C238.16 112.57 238.225 114.975 236.275 117.055C234.39 119.07 232.05 119.07 230.035 116.535ZM272.87 142.99H267.67V157.81C267.67 165.09 261.69 167.56 252.85 163.335C251.485 162.685 251.095 161.58 251.485 160.345C251.875 159.11 252.655 158.59 254.15 158.785C257.725 159.24 258.05 158.85 258.05 155.795V142.99H253.695C250.965 142.99 249.47 141.495 249.47 138.765V123.49C249.47 120.76 250.965 119.265 253.695 119.265H258.83C259.025 117.25 259.09 115.3 259.22 113.48H248.885C248.43 113.48 248.105 113.805 248.105 114.26V129.73C248.105 145.785 245.18 155.925 238.29 163.79C237.315 164.895 236.145 165.09 235.105 164.375C234.065 163.66 233.87 162.62 234.39 161.32C237.445 153.65 238.615 145.2 238.615 129.925V112.115C238.615 109.385 240.11 107.89 242.84 107.89H277.16C278.98 107.89 279.955 108.865 279.955 110.685C279.955 112.505 278.98 113.48 277.16 113.48H268.19C267.15 115.56 265.98 117.51 264.615 119.265H272.87C275.6 119.265 277.095 120.76 277.095 123.49V138.765C277.095 141.495 275.6 142.99 272.87 142.99ZM229.45 130.575C227.5 128.235 225.55 126.09 223.015 123.36C222.105 122.32 222.04 121.15 222.69 120.175C223.405 119.135 224.38 119.005 225.68 119.46C228.605 120.5 231.92 122.19 234.91 124.27C237.64 126.155 237.9 128.56 235.95 130.835C234 133.11 231.4 132.98 229.45 130.575ZM258.57 125.375V128.43H267.995V125.375C267.995 124.92 267.67 124.595 267.215 124.595H259.35C258.895 124.595 258.57 124.92 258.57 125.375ZM258.57 133.5V136.88C258.57 137.335 258.895 137.66 259.35 137.66H267.215C267.67 137.66 267.995 137.335 267.995 136.88V133.5H258.57ZM234.455 135.84C235.755 136.165 236.275 137.075 236.08 138.505C235.235 145.72 233.74 154.17 231.985 160.605C231.01 164.18 228.28 165.22 225.225 163.855C222.17 162.49 221.65 160.15 223.21 156.965C226.07 151.18 229.515 143.51 231.725 137.465C232.245 136.035 233.285 135.515 234.455 135.84ZM254.54 144.42C257.14 145.265 257.725 147.15 256.49 150.075C254.28 155.34 250.64 159.76 246.935 162.62C245.765 163.53 244.855 163.465 243.88 162.685C242.84 161.84 242.905 160.735 243.62 159.565C246.025 155.6 247.585 151.765 249.015 147.345C249.99 144.355 251.81 143.51 254.54 144.42ZM279.695 155.21C281.06 157.875 280.605 160.475 277.81 161.71C275.015 162.945 273.26 161.71 272.22 158.395C270.985 154.495 269.945 150.66 268.775 147.605C268.255 146.24 268.58 145.265 269.685 144.68C270.79 144.095 271.83 144.29 272.805 145.33C275.275 147.93 277.875 151.635 279.695 155.21Z" fill="#594A39"/>
<path d="M351.975 158.395C353.73 158.395 354.77 159.37 354.77 161.19C354.77 163.01 353.73 163.985 351.975 163.985H309.205C307.385 163.985 306.41 162.945 306.41 161.19C306.41 159.435 307.385 158.395 309.205 158.395H325.585V154.04H316.03C314.275 154.04 313.3 153.195 313.235 151.505C312.455 152.22 311.675 152.805 310.83 153.39C309.595 154.235 308.685 154.04 307.84 153.13L307.645 152.935C306.345 157.81 304.135 162.035 300.69 165.025C299.585 166 298.155 166.26 296.985 165.415C295.815 164.57 295.555 163.4 296.14 162.1C298.935 155.86 299.585 150.66 299.585 138.7V131.16C299.585 128.43 301.08 126.935 303.81 126.935H309.205C308.945 126.675 308.75 126.285 308.75 125.765C308.685 124.725 309.01 124.01 310.44 123.815C314.73 123.36 318.63 122.515 322.205 121.41C319.215 120.565 316.16 119.98 313.105 119.46C311.74 119.265 311.22 118.485 311.35 117.315C311.415 116.47 311.935 116.015 312.78 115.82H304.46C302.77 115.82 301.795 114.78 301.795 113.025C301.795 111.27 302.77 110.23 304.46 110.23H321.945V108.28C321.945 105.68 323.895 104.12 327.665 104.12C331.435 104.12 333.385 105.68 333.385 108.28V110.23H349.7C351.39 110.23 352.365 111.27 352.365 113.025C352.365 114.78 351.39 115.82 349.7 115.82H342.94C343.525 117.12 343.07 118.485 341.315 119.655C340.86 119.98 340.34 120.305 339.82 120.565C341.12 121.02 342.42 121.41 343.59 121.865C345.995 122.775 346.775 124.53 345.8 126.545L345.605 126.935H350.805C352.625 126.935 353.6 127.91 353.6 129.665C353.6 131.42 352.625 132.395 350.805 132.395H310.115C309.66 132.395 309.335 132.72 309.335 133.175V138.57C309.335 141.95 309.14 145.265 308.62 148.385C310.31 145.33 311.545 141.625 312.39 137.335C313.04 134.085 315.445 133.045 318.305 133.825C320.775 134.475 321.685 136.295 321.165 138.895H325.585V137.595C325.585 134.605 327.405 133.37 330.785 133.37C334.165 133.37 335.985 134.8 335.985 137.595V138.895H348.075C349.83 138.895 350.87 139.87 350.87 141.625C350.87 143.38 349.83 144.355 348.075 144.355H335.985V148.58H346.775C348.53 148.58 349.57 149.555 349.57 151.31C349.57 153.065 348.53 154.04 346.775 154.04H335.985V158.395H351.975ZM315.12 115.82C319.865 116.08 325.13 116.86 330.33 118.03C331.63 117.315 332.93 116.6 334.165 115.82H315.12ZM331.5 124.335C327.795 125.57 323.7 126.48 319.41 126.935H337.935C335.855 126.025 333.71 125.115 331.5 124.335ZM316.03 148.58H325.585V144.355H318.955C318.11 145.85 317.135 147.28 316.03 148.58Z" fill="#594A39"/>
<path d="M424.97 155.015C427.895 155.535 429.065 157.55 428.48 160.475C427.83 163.595 425.815 164.44 422.435 163.725C416.26 162.425 409.175 158.46 404.82 153.585V161.71C404.82 164.635 403 166.26 399.62 166.26C396.24 166.26 394.42 164.635 394.42 161.71V154.3C389.285 158.785 381.745 162.165 373.945 163.66C372.255 163.985 370.89 163.465 370.565 161.97C370.175 160.54 370.695 159.37 372.32 158.785C378.885 156.38 384.15 153.195 388.375 148.97H374.01C372.32 148.97 371.41 147.995 371.41 146.175C371.41 144.355 372.32 143.38 374.01 143.38H394.42V141.3H379.795C378.17 141.3 377.26 140.325 377.26 138.635C377.26 136.945 378.17 135.97 379.795 135.97H394.42V133.955H376.74C375.05 133.955 374.14 132.98 374.14 131.16C374.14 129.34 375.05 128.3 376.74 128.3H387.335C386.23 126.415 385.19 124.66 384.41 123.49C384.215 123.23 384.15 122.97 384.085 122.71H375.245C373.555 122.71 372.645 121.735 372.645 119.915C372.645 118.095 373.555 117.12 375.245 117.12H380.51C380.38 116.99 380.25 116.795 380.185 116.6C379.015 114.26 377.585 111.79 376.48 110.165C375.635 108.865 375.96 107.565 376.87 106.785C377.845 106.005 378.82 105.94 379.99 106.72C382.2 108.215 384.605 110.165 386.36 112.375C387.79 114.065 387.855 115.69 386.685 117.12H389.285V108.345C389.285 105.81 390.91 104.575 393.77 104.575C396.63 104.575 398.255 105.81 398.255 108.345V117.12H400.92V108.345C400.92 105.81 402.545 104.575 405.405 104.575C408.265 104.575 409.89 105.81 409.89 108.345V117.12H411.45C412.88 114.39 414.115 111.335 415.415 108.41C416.52 105.875 418.925 105.615 421.2 106.98C423.41 108.28 423.735 110.425 422.24 112.57C421.265 114 419.835 115.56 418.145 117.12H424.06C425.75 117.12 426.66 118.095 426.66 119.915C426.66 121.735 425.75 122.71 424.06 122.71H414.765C415.22 123.88 414.895 125.18 413.79 126.48C413.205 127.13 412.62 127.715 412.035 128.3H422.435C424.125 128.3 425.035 129.34 425.035 131.16C425.035 132.98 424.125 133.955 422.435 133.955H404.82V135.97H419.445C421.07 135.97 421.98 136.945 421.98 138.635C421.98 140.325 421.07 141.3 419.445 141.3H404.82V143.38H425.295C426.985 143.38 427.895 144.355 427.895 146.175C427.895 147.995 426.985 148.97 425.295 148.97H407.68C411.775 151.505 417.495 153.585 424.97 155.015ZM393.51 124.66C394.875 126.025 395.2 127.195 394.875 128.3H404.95C405.86 126.48 406.64 124.595 407.225 122.97C407.29 122.905 407.29 122.775 407.355 122.71H391.3C392.08 123.36 392.86 124.01 393.51 124.66Z" fill="#594A39"/>
</svg>
