<svg width="281" height="166" viewBox="0 0 281 166" fill="none" xmlns="http://www.w3.org/2000/svg">
<path d="M88.4 2.55363C91.13 2.55363 92.625 4.04863 92.625 6.77863V57.6086C92.625 60.4036 90.935 61.5086 87.815 61.5086C84.695 61.5086 83.265 60.3386 83.265 57.6086V57.4136H48.88V57.6736C48.88 60.4686 47.45 61.5736 44.33 61.5736C41.21 61.5736 39.52 60.5986 39.52 57.6736V6.77863C39.52 4.04863 41.015 2.55363 43.745 2.55363H88.4ZM48.88 51.9536H83.265V8.79363C83.265 8.33864 82.94 8.01364 82.485 8.01364H76.635C76.895 8.14363 77.155 8.27363 77.35 8.40364C78.325 9.05363 79.17 9.83364 80.275 11.0036C81.705 12.5636 81.38 13.9936 79.82 15.0986C81.445 15.0986 82.29 16.0086 82.29 17.6986C82.29 19.3886 81.38 20.2986 79.69 20.2986H73.06C73.125 23.6786 73.32 26.6686 73.515 29.2686C74.035 27.9686 74.49 26.5386 75.01 25.0436C75.79 22.7686 77.415 21.9236 79.43 22.5086C81.38 23.0936 82.29 24.7186 81.445 26.9936C79.69 31.7386 77.675 35.8336 75.205 39.2786C75.725 40.7736 76.245 41.7486 76.895 42.2686C77.545 42.8536 77.935 41.4236 77.935 37.2636C77.935 35.7036 78.845 34.9886 80.08 34.9886C81.315 34.9886 82.225 35.5736 82.42 37.1336C83.655 48.7036 80.99 52.1486 76.7 51.1086C74.1 50.4586 71.89 48.5086 70.2 45.0636C67.405 47.6636 64.22 49.7436 60.58 51.2386C59.215 51.8236 58.045 51.4336 57.525 50.2636C57.005 49.0936 57.2 47.9236 58.5 47.1436C62.79 44.6086 65.78 42.1386 68.185 39.2136C66.95 34.4686 66.17 28.2286 65.845 20.2986H52.325C50.635 20.2986 49.66 19.3886 49.66 17.6986C49.66 16.0086 50.635 15.0986 52.325 15.0986H65.715V11.5886C65.715 9.24864 67.145 8.27363 69.29 8.27363C71.435 8.27363 72.93 9.18364 72.93 11.5236V15.0986H76.505C76.375 14.9686 76.245 14.7736 76.115 14.5786C75.335 13.1486 74.685 12.1086 73.84 10.8086C73.32 9.96363 73.515 8.92364 74.295 8.27363C74.425 8.14363 74.555 8.07864 74.685 8.01364H49.66C49.205 8.01364 48.88 8.33864 48.88 8.79363V51.9536ZM54.145 36.9386C51.415 36.9386 50.31 35.8986 50.31 33.1686V26.1486C50.31 23.4186 51.415 22.3136 54.145 22.3136H61.36C64.09 22.3136 65.195 23.4186 65.195 26.1486V33.1686C65.195 35.8986 64.09 36.9386 61.36 36.9386H54.145ZM56.29 27.7736V31.4786C56.29 31.9336 56.55 32.1286 57.005 32.1286H58.76C59.215 32.1286 59.475 31.9336 59.475 31.4786V27.7736C59.475 27.3186 59.215 27.1236 58.76 27.1236H57.005C56.55 27.1236 56.29 27.3186 56.29 27.7736ZM67.21 38.1086C67.6 39.3436 67.275 40.1236 66.105 40.8386C62.14 43.1786 57.07 45.1936 53.3 46.1686C50.83 46.8186 49.53 45.5836 49.14 43.6986C48.685 41.4236 49.595 39.4736 51.87 39.2136C55.445 38.7586 60.255 38.0436 64.48 36.9386C65.715 36.6136 66.755 36.8736 67.21 38.1086Z" fill="#594A39"/>
<path d="M149.5 17.4386V21.6636C149.5 23.1586 149.5 24.6536 149.435 26.0836H162.565C165.295 26.0836 166.79 27.5786 166.79 30.3736C166.725 38.4986 166.14 47.1436 165.425 52.7336C164.32 61.3136 155.48 62.5486 145.925 57.4136C144.625 56.6986 144.3 55.6586 144.69 54.3586C145.08 53.0586 145.86 52.4736 147.485 52.6686C155.415 53.7736 155.935 53.1886 156.39 49.6786C156.91 45.5836 157.3 38.8236 157.43 32.1936C157.43 31.6736 157.105 31.4136 156.65 31.4136H149.045C147.68 45.4536 142.74 54.4236 131.04 60.6636C129.675 61.3786 128.375 60.9886 127.66 59.8186C126.945 58.6486 127.14 57.5436 128.31 56.5686C137.02 48.9636 140.01 40.4486 140.01 21.7936V17.4386H136.435C134.68 17.4386 133.835 16.4636 133.835 14.7086C133.835 12.9536 134.68 11.9786 136.435 11.9786H146.77V4.82863C146.77 2.16363 148.525 0.473633 151.645 0.473633C154.765 0.473633 156.52 2.16363 156.52 4.82863V11.9786H166.66C168.415 11.9786 169.39 12.9536 169.39 14.7086C169.39 16.4636 168.415 17.4386 166.66 17.4386H149.5ZM135.85 38.9536C135.85 46.3636 129.87 50.0036 122.785 46.7536V57.0886C122.785 59.6886 121.095 61.1186 118.17 61.1186C115.245 61.1186 113.555 59.6886 113.555 57.0886V5.47863C113.555 2.94364 115.245 1.44864 118.17 1.44864C120.185 1.44864 121.615 2.16363 122.33 3.46363H126.815C128.18 1.77364 130.91 1.44864 133.25 2.42363C135.46 3.33363 136.695 5.54363 135.59 8.66364C133.575 14.4486 130.715 19.6486 128.57 22.8336C128.31 23.2236 128.31 23.5486 128.7 23.9386C133.38 28.6186 135.85 33.3636 135.85 38.9536ZM126.75 9.63863C126.815 9.11863 126.49 8.79363 125.97 8.79363H122.785V41.1636C127.01 41.6186 127.855 40.5786 127.855 37.2636C127.855 34.9886 127.075 30.8936 124.67 26.2136C123.63 24.1986 123.565 22.9636 124.085 21.0786C125.125 17.3086 126.165 13.1486 126.75 9.63863Z" fill="#594A39"/>
<path d="M239.85 50.3936C243.1 51.4336 244.14 54.0336 243.1 57.4136C241.995 60.9236 239.265 61.5086 235.885 60.4036C230.165 58.5186 225.03 55.7236 220.675 52.1486C214.305 56.5036 206.44 59.6236 196.95 61.1836C195.39 61.4436 194.48 60.5336 194.09 59.1686C193.765 57.8686 194.35 56.6986 195.975 56.1136C203.84 53.2536 209.95 50.1986 214.76 46.3636C210.86 41.7486 207.87 36.3536 206.115 30.5686C203.71 43.8286 198.575 53.5786 189.345 60.4036C188.11 61.3136 186.42 61.1836 185.575 60.2086C184.665 59.1686 184.6 57.7386 185.51 56.5036C193.96 44.9986 197.08 32.3236 197.34 8.66364H190.515C188.695 8.66364 187.72 7.75364 187.72 5.73863C187.72 3.91863 188.695 2.81363 190.515 2.81363H223.535C227.76 2.81363 229.385 5.54363 228.735 8.66364C227.825 12.7586 226.72 17.0486 225.42 21.2086H232.05C236.925 21.2086 238.55 24.0036 237.25 28.6186C235.43 35.1186 232.31 40.8386 228.02 45.6486C231.465 47.4686 235.365 49.0286 239.85 50.3936ZM217.035 8.66364H208C207.935 13.0836 207.74 17.3086 207.415 21.2086H215.41C216.45 16.8536 217.295 12.3036 217.685 9.50864C217.75 8.98864 217.555 8.66364 217.035 8.66364ZM226.85 27.9686C227.045 27.3836 226.785 27.0586 226.2 27.0586H210.015C212.55 32.4536 215.865 36.9386 220.48 40.7086C223.275 37.1336 225.355 32.9736 226.85 27.9686Z" fill="#594A39"/>
<path d="M58.175 148.089C59.67 161.284 57.59 166.094 51.61 164.859C47.71 164.079 44.59 161.089 42.185 155.564C38.025 159.399 33.41 162.194 28.86 163.754C27.365 164.274 26.195 163.754 25.675 162.584C25.09 161.284 25.415 160.309 26.845 159.529C31.915 156.799 36.205 152.899 39.78 148.219C38.48 143.084 37.57 136.714 36.92 128.979L36.465 129.044C34.58 129.239 33.54 128.264 33.345 126.574C33.15 124.884 33.995 123.844 35.88 123.649C36.14 123.649 36.335 123.584 36.595 123.584L36.4 120.204C36.27 116.564 36.205 112.404 36.14 107.789C36.14 105.124 37.7 103.824 40.625 103.824C43.55 103.824 45.24 105.189 45.175 107.984C45.11 112.599 45.11 115.524 45.24 118.449L45.435 122.349C48.425 121.894 51.35 121.374 54.275 120.724C56.225 120.334 57.525 121.179 57.85 122.804C58.175 124.494 57.59 125.664 55.38 126.119C52.715 126.704 49.465 127.289 45.825 127.809C46.085 130.734 46.41 133.464 46.735 135.999C47.255 134.764 47.71 133.529 48.165 132.229C49.27 129.174 51.285 128.134 53.82 129.174C56.485 130.279 57.265 132.489 56.095 135.349C54.21 140.094 51.74 144.319 48.945 148.089C49.855 151.339 50.83 153.419 51.805 154.134C53.17 155.174 53.43 153.224 53.495 148.024C53.495 146.269 54.34 145.359 55.64 145.359C56.94 145.359 57.915 146.074 58.175 148.089ZM48.75 116.759C48.165 114.484 47.255 112.209 46.345 109.804C45.825 108.439 46.085 107.529 47.19 106.879C48.36 106.229 49.205 106.424 50.245 107.334C52.195 109.089 53.95 111.429 55.38 113.704C56.875 116.109 56.225 118.124 53.82 119.229C51.48 120.334 49.465 119.554 48.75 116.759ZM6.045 121.569C3.315 121.569 1.95 120.074 1.95 117.344V110.714C1.95 107.984 3.445 106.489 6.045 106.489H12.805C15.535 106.489 17.03 107.984 17.03 110.714V117.344C17.03 120.074 15.535 121.569 12.805 121.569H6.045ZM22.75 121.569C20.15 121.569 18.655 120.074 18.655 117.344V110.714C18.655 107.984 20.15 106.489 22.75 106.489H29.51C32.24 106.489 33.735 107.984 33.735 110.714V117.344C33.735 120.074 32.24 121.569 29.51 121.569H22.75ZM8.515 112.339V115.719C8.515 116.174 8.84 116.499 9.295 116.499H9.75C10.205 116.499 10.53 116.174 10.53 115.719V112.339C10.53 111.884 10.205 111.559 9.75 111.559H9.295C8.84 111.559 8.515 111.884 8.515 112.339ZM25.025 112.339V115.719C25.025 116.174 25.35 116.499 25.805 116.499H26.26C26.715 116.499 27.04 116.174 27.04 115.719V112.339C27.04 111.884 26.715 111.559 26.26 111.559H25.805C25.35 111.559 25.025 111.884 25.025 112.339ZM32.045 153.224H22.555V161.219C22.555 164.079 20.8 165.574 17.55 165.574C14.3 165.574 12.545 164.079 12.545 161.219V153.224H2.665C0.975 153.224 0 152.249 0 150.494C0 148.739 0.975 147.764 2.665 147.764H12.545V145.424H6.695C3.965 145.424 2.47 143.929 2.47 141.199V127.224C2.47 124.494 3.965 122.999 6.695 122.999H28.34C31.07 122.999 32.565 124.494 32.565 127.224V141.199C32.565 143.929 31.07 145.424 28.34 145.424H22.555V147.764H32.045C33.735 147.764 34.71 148.739 34.71 150.494C34.71 152.249 33.735 153.224 32.045 153.224ZM10.79 128.979V131.579H13.65V128.199H11.57C11.115 128.199 10.79 128.524 10.79 128.979ZM21.71 128.199V131.579H24.505V128.979C24.505 128.524 24.18 128.199 23.725 128.199H21.71ZM10.79 139.444C10.79 139.899 11.115 140.224 11.57 140.224H13.65V136.649H10.79V139.444ZM21.71 136.649V140.224H23.725C24.18 140.224 24.505 139.899 24.505 139.444V136.649H21.71Z" fill="#594A39"/>
<path d="M129.285 130.539C132.86 131.514 134.16 134.049 132.99 137.039C132.08 139.314 130.52 140.354 128.44 140.159C129.155 140.874 129.545 141.979 129.545 143.344V161.219C129.545 164.209 127.92 165.249 124.93 165.249C121.94 165.249 120.315 164.209 120.315 161.219V160.829H111.15V161.544C111.15 164.469 109.525 165.509 106.6 165.509C103.675 165.509 102.05 164.469 102.05 161.544V143.344C102.05 142.044 102.375 141.069 103.025 140.354C102.635 140.484 102.245 140.549 101.855 140.679C101.01 140.874 100.36 140.939 99.905 140.809V154.264C99.905 156.344 98.735 157.384 96.655 157.384C94.575 157.384 93.405 156.344 93.405 154.264V153.289H84.175V155.499C84.175 157.969 82.81 159.074 80.34 159.074C77.87 159.074 76.505 157.969 76.505 155.499V114.094C76.505 111.364 78 109.869 80.73 109.869H95.68C98.41 109.869 99.905 111.364 99.905 114.094V122.089C99.97 121.959 99.97 121.894 100.035 121.829C102.05 118.254 103.805 113.119 105.17 107.724C106.015 104.539 108.03 103.694 110.955 104.474C113.685 105.189 114.92 107.139 113.88 109.999H120.055C122.135 108.439 124.475 108.114 126.88 109.284C129.74 110.649 130.52 113.054 129.09 116.564C127.335 120.854 124.93 124.624 122.135 127.874C124.345 128.914 126.685 129.824 129.285 130.539ZM85.93 128.134V115.069H84.955C84.5 115.069 84.175 115.394 84.175 115.849V128.134H85.93ZM91.585 115.069V128.134H93.405V115.849C93.405 115.394 93.08 115.069 92.625 115.069H91.585ZM119.73 116.239C119.925 115.654 119.6 115.329 119.08 115.329H111.215C110.63 116.304 110.045 117.279 109.395 118.189C111.15 120.334 113.165 122.219 115.44 123.909C117.195 121.504 118.625 118.904 119.73 116.239ZM100.295 136.454C104.52 134.504 108.16 131.904 111.28 128.849C109.46 126.704 107.835 124.364 106.47 121.829C105.495 122.934 104.52 123.909 103.48 124.819C102.375 125.859 101.205 125.989 100.295 125.079L99.905 124.624V136.649L100.295 136.454ZM91.585 148.089H93.405V133.334H91.585V148.089ZM85.93 148.089V133.464H84.175V148.089H85.93ZM106.405 139.119H124.995C121.745 137.689 118.755 135.804 116.09 133.594C113.1 135.869 109.785 137.754 106.405 139.119ZM111.15 155.499H120.315V145.229C120.315 144.774 119.99 144.449 119.535 144.449H111.93C111.475 144.449 111.15 144.774 111.15 145.229V155.499Z" fill="#594A39"/>
<path d="M203.71 157.449C205.465 157.449 206.505 158.424 206.505 160.244C206.505 162.064 205.465 163.039 203.71 163.039H160.94C159.12 163.039 158.145 161.999 158.145 160.244C158.145 158.489 159.12 157.449 160.94 157.449H177.32V153.094H167.765C166.01 153.094 165.035 152.249 164.97 150.559C164.19 151.274 163.41 151.859 162.565 152.444C161.33 153.289 160.42 153.094 159.575 152.184L159.38 151.989C158.08 156.864 155.87 161.089 152.425 164.079C151.32 165.054 149.89 165.314 148.72 164.469C147.55 163.624 147.29 162.454 147.875 161.154C150.67 154.914 151.32 149.714 151.32 137.754V130.214C151.32 127.484 152.815 125.989 155.545 125.989H160.94C160.68 125.729 160.485 125.339 160.485 124.819C160.42 123.779 160.745 123.064 162.175 122.869C166.465 122.414 170.365 121.569 173.94 120.464C170.95 119.619 167.895 119.034 164.84 118.514C163.475 118.319 162.955 117.539 163.085 116.369C163.15 115.524 163.67 115.069 164.515 114.874H156.195C154.505 114.874 153.53 113.834 153.53 112.079C153.53 110.324 154.505 109.284 156.195 109.284H173.68V107.334C173.68 104.734 175.63 103.174 179.4 103.174C183.17 103.174 185.12 104.734 185.12 107.334V109.284H201.435C203.125 109.284 204.1 110.324 204.1 112.079C204.1 113.834 203.125 114.874 201.435 114.874H194.675C195.26 116.174 194.805 117.539 193.05 118.709C192.595 119.034 192.075 119.359 191.555 119.619C192.855 120.074 194.155 120.464 195.325 120.919C197.73 121.829 198.51 123.584 197.535 125.599L197.34 125.989H202.54C204.36 125.989 205.335 126.964 205.335 128.719C205.335 130.474 204.36 131.449 202.54 131.449H161.85C161.395 131.449 161.07 131.774 161.07 132.229V137.624C161.07 141.004 160.875 144.319 160.355 147.439C162.045 144.384 163.28 140.679 164.125 136.389C164.775 133.139 167.18 132.099 170.04 132.879C172.51 133.529 173.42 135.349 172.9 137.949H177.32V136.649C177.32 133.659 179.14 132.424 182.52 132.424C185.9 132.424 187.72 133.854 187.72 136.649V137.949H199.81C201.565 137.949 202.605 138.924 202.605 140.679C202.605 142.434 201.565 143.409 199.81 143.409H187.72V147.634H198.51C200.265 147.634 201.305 148.609 201.305 150.364C201.305 152.119 200.265 153.094 198.51 153.094H187.72V157.449H203.71ZM166.855 114.874C171.6 115.134 176.865 115.914 182.065 117.084C183.365 116.369 184.665 115.654 185.9 114.874H166.855ZM183.235 123.389C179.53 124.624 175.435 125.534 171.145 125.989H189.67C187.59 125.079 185.445 124.169 183.235 123.389ZM167.765 147.634H177.32V143.409H170.69C169.845 144.904 168.87 146.334 167.765 147.634Z" fill="#594A39"/>
<path d="M276.705 154.069C279.63 154.589 280.8 156.604 280.215 159.529C279.565 162.649 277.55 163.494 274.17 162.779C267.995 161.479 260.91 157.514 256.555 152.639V160.764C256.555 163.689 254.735 165.314 251.355 165.314C247.975 165.314 246.155 163.689 246.155 160.764V153.354C241.02 157.839 233.48 161.219 225.68 162.714C223.99 163.039 222.625 162.519 222.3 161.024C221.91 159.594 222.43 158.424 224.055 157.839C230.62 155.434 235.885 152.249 240.11 148.024H225.745C224.055 148.024 223.145 147.049 223.145 145.229C223.145 143.409 224.055 142.434 225.745 142.434H246.155V140.354H231.53C229.905 140.354 228.995 139.379 228.995 137.689C228.995 135.999 229.905 135.024 231.53 135.024H246.155V133.009H228.475C226.785 133.009 225.875 132.034 225.875 130.214C225.875 128.394 226.785 127.354 228.475 127.354H239.07C237.965 125.469 236.925 123.714 236.145 122.544C235.95 122.284 235.885 122.024 235.82 121.764H226.98C225.29 121.764 224.38 120.789 224.38 118.969C224.38 117.149 225.29 116.174 226.98 116.174H232.245C232.115 116.044 231.985 115.849 231.92 115.654C230.75 113.314 229.32 110.844 228.215 109.219C227.37 107.919 227.695 106.619 228.605 105.839C229.58 105.059 230.555 104.994 231.725 105.774C233.935 107.269 236.34 109.219 238.095 111.429C239.525 113.119 239.59 114.744 238.42 116.174H241.02V107.399C241.02 104.864 242.645 103.629 245.505 103.629C248.365 103.629 249.99 104.864 249.99 107.399V116.174H252.655V107.399C252.655 104.864 254.28 103.629 257.14 103.629C260 103.629 261.625 104.864 261.625 107.399V116.174H263.185C264.615 113.444 265.85 110.389 267.15 107.464C268.255 104.929 270.66 104.669 272.935 106.034C275.145 107.334 275.47 109.479 273.975 111.624C273 113.054 271.57 114.614 269.88 116.174H275.795C277.485 116.174 278.395 117.149 278.395 118.969C278.395 120.789 277.485 121.764 275.795 121.764H266.5C266.955 122.934 266.63 124.234 265.525 125.534C264.94 126.184 264.355 126.769 263.77 127.354H274.17C275.86 127.354 276.77 128.394 276.77 130.214C276.77 132.034 275.86 133.009 274.17 133.009H256.555V135.024H271.18C272.805 135.024 273.715 135.999 273.715 137.689C273.715 139.379 272.805 140.354 271.18 140.354H256.555V142.434H277.03C278.72 142.434 279.63 143.409 279.63 145.229C279.63 147.049 278.72 148.024 277.03 148.024H259.415C263.51 150.559 269.23 152.639 276.705 154.069ZM245.245 123.714C246.61 125.079 246.935 126.249 246.61 127.354H256.685C257.595 125.534 258.375 123.649 258.96 122.024C259.025 121.959 259.025 121.829 259.09 121.764H243.035C243.815 122.414 244.595 123.064 245.245 123.714Z" fill="#594A39"/>
</svg>
