<svg width="420" height="421" viewBox="0 0 420 421" fill="none" xmlns="http://www.w3.org/2000/svg">
<g clip-path="url(#clip0_746_3304)">
<path d="M44.9198 79.0347H375.081C377.938 79.0347 380.678 80.1716 382.698 82.1954C384.718 84.2192 385.853 86.964 385.853 89.826V311.589H34.3633V89.5023C34.4457 86.7337 35.5876 84.1028 37.5527 82.1543C39.5178 80.2058 42.1555 79.0888 44.9198 79.0347Z" fill="#BAC2CC"/>
<path d="M420 383.351H0L34.3627 311.589H385.637L420 383.351Z" fill="#F0E3EE"/>
<path d="M420 383.352H0V420.474H420V383.352Z" fill="#BAC2CC"/>
<path d="M354.722 108.279H65.1713C61.7802 108.279 59.0312 111.033 59.0312 114.43V276.193C59.0312 279.59 61.7802 282.344 65.1713 282.344H354.722C358.113 282.344 360.862 279.59 360.862 276.193V114.43C360.862 111.033 358.113 108.279 354.722 108.279Z" fill="#FEFDFC"/>
<path d="M210.053 0.797363C179.999 0.797363 117.845 21.3012 98.2398 27.9918C96.4702 28.6016 94.9361 29.7504 93.8538 31.2798C92.7716 32.8093 92.1956 34.6427 92.2072 36.5174V176.805C116.66 241.553 210.053 266.698 210.053 266.698C210.053 266.698 303.339 241.23 327.791 176.805V36.5174C327.803 34.6427 327.227 32.8093 326.144 31.2798C325.062 29.7504 323.528 28.6016 321.759 27.9918C302.261 20.9774 240.107 0.797363 210.053 0.797363Z" fill="#D9B2CE"/>
<path d="M122.262 56.156V165.798C140.466 213.82 210.053 232.812 210.053 232.812C210.053 232.812 279.641 213.82 297.845 165.798V56.156C297.845 56.156 236.876 34.5732 210.053 34.5732C183.231 34.5732 122.262 56.156 122.262 56.156Z" fill="#C375AD"/>
<path d="M93.8243 338.893H62.5852C61.9995 338.989 61.4 338.958 60.8281 338.798C60.2562 338.639 59.7259 338.356 59.2736 337.971C58.8212 337.586 58.4577 337.109 58.2085 336.57C57.9592 336.03 57.8301 335.441 57.8301 334.847C57.8301 334.252 57.9592 333.663 58.2085 333.124C58.4577 332.584 58.8212 332.107 59.2736 331.722C59.7259 331.337 60.2562 331.054 60.8281 330.895C61.4 330.736 61.9995 330.704 62.5852 330.8H93.8243C94.41 330.704 95.0095 330.736 95.5814 330.895C96.1533 331.054 96.6839 331.337 97.1363 331.722C97.5886 332.107 97.9518 332.584 98.2011 333.124C98.4503 333.663 98.5794 334.252 98.5794 334.847C98.5794 335.441 98.4503 336.03 98.2011 336.57C97.9518 337.109 97.5886 337.586 97.1363 337.971C96.6839 338.356 96.1533 338.639 95.5814 338.798C95.0095 338.958 94.41 338.989 93.8243 338.893Z" fill="#C375AD"/>
<path d="M159.748 338.893H128.509C127.924 338.989 127.324 338.958 126.752 338.798C126.18 338.639 125.65 338.356 125.197 337.971C124.745 337.586 124.381 337.109 124.132 336.57C123.883 336.03 123.754 335.441 123.754 334.847C123.754 334.252 123.883 333.663 124.132 333.124C124.381 332.584 124.745 332.107 125.197 331.722C125.65 331.337 126.18 331.054 126.752 330.895C127.324 330.736 127.924 330.704 128.509 330.8H159.748C160.334 330.704 160.933 330.736 161.505 330.895C162.077 331.054 162.608 331.337 163.06 331.722C163.512 332.107 163.876 332.584 164.125 333.124C164.374 333.663 164.503 334.252 164.503 334.847C164.503 335.441 164.374 336.03 164.125 336.57C163.876 337.109 163.512 337.586 163.06 337.971C162.608 338.356 162.077 338.639 161.505 338.798C160.933 338.958 160.334 338.989 159.748 338.893Z" fill="#C375AD"/>
<path d="M225.672 338.893H194.326C193.368 338.736 192.496 338.244 191.868 337.502C191.239 336.761 190.895 335.819 190.895 334.847C190.895 333.874 191.239 332.932 191.868 332.191C192.496 331.45 193.368 330.957 194.326 330.8H225.672C226.258 330.704 226.858 330.736 227.429 330.895C228.001 331.054 228.532 331.337 228.984 331.722C229.437 332.107 229.8 332.584 230.049 333.124C230.298 333.663 230.428 334.252 230.428 334.847C230.428 335.441 230.298 336.03 230.049 336.57C229.8 337.109 229.437 337.586 228.984 337.971C228.532 338.356 228.001 338.639 227.429 338.798C226.858 338.958 226.258 338.989 225.672 338.893Z" fill="#C375AD"/>
<path d="M291.598 338.893H260.252C259.294 338.736 258.423 338.244 257.794 337.502C257.165 336.761 256.82 335.819 256.82 334.847C256.82 333.874 257.165 332.932 257.794 332.191C258.423 331.45 259.294 330.957 260.252 330.8H291.598C292.184 330.704 292.784 330.736 293.356 330.895C293.927 331.054 294.458 331.337 294.91 331.722C295.363 332.107 295.726 332.584 295.975 333.124C296.225 333.663 296.353 334.252 296.353 334.847C296.353 335.441 296.225 336.03 295.975 336.57C295.726 337.109 295.363 337.586 294.91 337.971C294.458 338.356 293.927 338.639 293.356 338.798C292.784 338.958 292.184 338.989 291.598 338.893Z" fill="#C375AD"/>
<path d="M357.954 338.893H326.607C325.649 338.736 324.778 338.244 324.149 337.502C323.521 336.761 323.176 335.819 323.176 334.847C323.176 333.874 323.521 332.932 324.149 332.191C324.778 331.45 325.649 330.957 326.607 330.8H357.954C358.539 330.704 359.139 330.736 359.711 330.895C360.283 331.054 360.813 331.337 361.266 331.722C361.718 332.107 362.081 332.584 362.33 333.124C362.58 333.663 362.709 334.252 362.709 334.847C362.709 335.441 362.58 336.03 362.33 336.57C362.081 337.109 361.718 337.586 361.266 337.971C360.813 338.356 360.283 338.639 359.711 338.798C359.139 338.958 358.539 338.989 357.954 338.893Z" fill="#C375AD"/>
<path d="M83.375 364.685H49.3354C48.5018 364.923 47.6243 364.965 46.772 364.806C45.9196 364.647 45.1156 364.291 44.4235 363.768C43.7313 363.245 43.1701 362.569 42.7834 361.792C42.3968 361.014 42.1953 360.157 42.1953 359.289C42.1953 358.42 42.3968 357.563 42.7834 356.786C43.1701 356.009 43.7313 355.328 44.4235 354.805C45.1156 354.282 45.9196 353.931 46.772 353.772C47.6243 353.613 48.5018 353.655 49.3354 353.893H83.375C84.2086 353.655 85.0861 353.613 85.9385 353.772C86.7908 353.931 87.5945 354.282 88.2866 354.805C88.9787 355.328 89.5404 356.009 89.927 356.786C90.3136 357.563 90.5148 358.42 90.5148 359.289C90.5148 360.157 90.3136 361.014 89.927 361.792C89.5404 362.569 88.9787 363.245 88.2866 363.768C87.5945 364.291 86.7908 364.647 85.9385 364.806C85.0861 364.965 84.2086 364.923 83.375 364.685Z" fill="#C375AD"/>
<path d="M298.923 364.685H120.97C120.137 364.923 119.259 364.965 118.407 364.806C117.554 364.647 116.75 364.291 116.058 363.768C115.366 363.245 114.805 362.569 114.418 361.792C114.032 361.014 113.83 360.157 113.83 359.289C113.83 358.42 114.032 357.563 114.418 356.786C114.805 356.009 115.366 355.328 116.058 354.805C116.75 354.282 117.554 353.931 118.407 353.772C119.259 353.613 120.137 353.655 120.97 353.893H298.708C299.542 353.655 300.419 353.613 301.272 353.772C302.124 353.931 302.928 354.282 303.62 354.805C304.312 355.328 304.873 356.009 305.26 356.786C305.647 357.563 305.848 358.42 305.848 359.289C305.848 360.157 305.647 361.014 305.26 361.792C304.873 362.569 304.312 363.245 303.62 363.768C302.928 364.291 302.124 364.647 301.272 364.806C300.419 364.965 299.542 364.923 298.708 364.685H298.923Z" fill="#C375AD"/>
<path d="M370.772 364.685H336.41C335.576 364.923 334.699 364.965 333.846 364.806C332.994 364.647 332.19 364.291 331.498 363.768C330.806 363.245 330.244 362.569 329.858 361.792C329.471 361.014 329.27 360.157 329.27 359.289C329.27 358.42 329.471 357.563 329.858 356.786C330.244 356.009 330.806 355.328 331.498 354.805C332.19 354.282 332.994 353.931 333.846 353.772C334.699 353.613 335.576 353.655 336.41 353.893H370.557C371.391 353.655 372.268 353.613 373.12 353.772C373.973 353.931 374.777 354.282 375.469 354.805C376.161 355.328 376.722 356.009 377.109 356.786C377.496 357.563 377.697 358.42 377.697 359.289C377.697 360.157 377.496 361.014 377.109 361.792C376.722 362.569 376.161 363.245 375.469 363.768C374.777 364.291 373.973 364.647 373.12 364.806C372.268 364.965 371.391 364.923 370.557 364.685H370.772Z" fill="#C375AD"/>
<path d="M210.485 31.011C180.539 31.5505 149.408 43.2084 121.401 53.1364C120.001 53.1364 117.523 54.7532 117.523 56.5878V145.617C116.091 156.715 118.004 167.99 123.017 177.991C134.999 196.691 151.98 211.647 172.029 221.156C182.919 227.763 194.765 232.639 207.146 235.615C216.737 235.044 226.032 232.078 234.184 226.984C253.793 219.044 271.492 207.015 286.104 191.696C293.722 184.362 299.388 175.237 302.586 165.15C302.855 161.81 302.855 158.452 302.586 155.112V55.6182C302.603 55.0019 302.41 54.3966 302.038 53.9057C301.665 53.4149 301.137 53.0681 300.539 52.9204C272.747 42.9923 241.509 31.3345 211.67 30.7949C207.361 30.7949 202.083 37.2735 208.331 37.3814C237.523 37.3814 267.9 49.252 295.153 58.9642L293.106 56.2663V137.739C294.373 147.911 294.009 158.222 292.029 168.279C284.489 188.891 263.483 204.32 245.063 214.464C237.571 218.606 229.796 222.212 221.796 225.256C220.072 226.011 211.024 227.847 209.624 229.466C209.624 229.466 213.394 230.976 211.778 229.466C210.076 228.652 208.26 228.107 206.392 227.848C199.563 225.497 192.874 222.756 186.356 219.644C167.385 211.464 150.623 198.89 137.451 182.954C132.284 177.45 128.58 170.733 126.679 163.421C126.41 158.497 126.41 153.565 126.679 148.641V55.8343L122.801 59.2856C149.947 49.5734 180.324 37.7029 208.977 37.7029C214.794 37.487 216.841 30.903 210.485 31.011Z" fill="#FEFDFC"/>
<path d="M210.054 119.826C220.882 119.826 229.659 111.033 229.659 100.186C229.659 89.3387 220.882 80.5454 210.054 80.5454C199.227 80.5454 190.449 89.3387 190.449 100.186C190.449 111.033 199.227 119.826 210.054 119.826Z" fill="#505D6D"/>
<path d="M214.148 168.063H205.853C204.147 168.064 202.459 167.696 200.905 166.988C199.351 166.281 197.967 165.252 196.844 163.964C195.722 162.676 194.887 161.16 194.397 159.522C193.908 157.884 193.774 156.163 194.004 154.469L199.929 113.026H220.073L225.997 154.469C226.246 156.166 226.125 157.897 225.642 159.543C225.16 161.189 224.326 162.709 223.2 164.001C222.074 165.293 220.682 166.324 219.119 167.025C217.556 167.727 215.86 168.082 214.148 168.063Z" fill="#505D6D"/>
</g>
<defs>
<clipPath id="clip0_746_3304">
<rect width="420" height="420" fill="white" transform="translate(0 0.473633)"/>
</clipPath>
</defs>
</svg>
