<svg width="420" height="428" viewBox="0 0 420 428" fill="none" xmlns="http://www.w3.org/2000/svg">
<g clip-path="url(#clip0_736_3162)">
<path d="M34.0719 383.764C32.8794 383.475 31.7568 382.957 30.7691 382.236C29.7815 381.515 28.9483 380.607 28.3178 379.565C27.6873 378.524 27.272 377.369 27.096 376.169C26.9199 374.968 26.9865 373.745 27.2921 372.57C37.2295 330.812 85.2447 154.874 188.797 141.107C294.115 127.341 368.413 245.09 415.313 320.072C417.495 323.522 418.956 327.37 419.609 331.387C420.263 335.404 420.095 339.508 419.117 343.46C418.139 347.412 416.37 351.129 413.914 354.394C411.458 357.659 408.366 360.408 404.819 362.474C355.875 391.108 236.255 438.647 34.0719 383.764Z" fill="#8DC357"/>
<path d="M34.8922 233.042L0.371605 348.391C-0.0315144 349.619 -0.144042 350.923 0.0428167 352.202C0.229676 353.48 0.710975 354.697 1.44859 355.758C2.18621 356.82 3.16 357.697 4.29357 358.319C5.42713 358.94 6.68945 359.288 7.98104 359.338H110.8C113.446 359.29 115.997 358.346 118.036 356.66C120.076 354.975 121.483 352.647 122.029 350.058L149.868 232.485C150.193 231.256 150.233 229.971 149.986 228.724C149.738 227.478 149.209 226.305 148.44 225.294C147.67 224.283 146.68 223.459 145.544 222.888C144.409 222.317 143.158 222.014 141.887 222L45.6567 224.506C43.191 224.611 40.8219 225.491 38.8883 227.025C36.9548 228.559 35.5559 230.665 34.8922 233.042Z" fill="#DFE1E6"/>
<path d="M44.3571 245.2L15.0334 338.831C14.831 339.51 14.7898 340.227 14.9136 340.924C15.0374 341.622 15.3225 342.282 15.7462 342.85C16.1699 343.418 16.7204 343.878 17.3539 344.196C17.9874 344.513 18.6864 344.677 19.3949 344.676H100.871C103.029 344.724 105.136 344.02 106.829 342.682C108.523 341.344 109.698 339.455 110.151 337.345L133.535 243.156C133.689 242.476 133.687 241.77 133.529 241.09C133.372 240.41 133.064 239.777 132.627 239.233C132.19 238.689 131.635 238.25 131.006 237.95C130.376 237.65 129.686 237.494 128.988 237.497L51.781 239.445C50.1019 239.524 48.4879 240.119 47.1593 241.149C45.8306 242.179 44.8519 243.594 44.3571 245.2Z" fill="#578DAE"/>
<path d="M49.9244 271.555C49.3337 271.555 48.7672 271.32 48.3495 270.902C47.9319 270.485 47.6973 269.921 47.6973 269.33C47.6849 269.038 47.7301 268.744 47.8307 268.469C47.9313 268.194 48.0853 267.941 48.2835 267.726C48.4818 267.511 48.7205 267.337 48.9861 267.214C49.2518 267.091 49.5392 267.022 49.8318 267.01L107.737 265.429C108.025 265.416 108.313 265.463 108.582 265.565C108.852 265.666 109.098 265.823 109.307 266.022C109.515 266.222 109.68 266.459 109.793 266.725C109.906 266.99 109.964 267.275 109.964 267.563C109.99 267.858 109.954 268.157 109.858 268.437C109.763 268.718 109.61 268.976 109.409 269.194C109.208 269.412 108.964 269.587 108.692 269.706C108.42 269.825 108.127 269.884 107.83 269.883L49.8318 271.555H49.9244Z" fill="#DBE6EF"/>
<path d="M39.9032 304.589C39.3788 304.482 38.9072 304.197 38.5685 303.782C38.2299 303.368 38.0449 302.849 38.0449 302.314C38.0449 301.779 38.2299 301.261 38.5685 300.846C38.9072 300.432 39.3788 300.146 39.9032 300.04L97.9015 298.463C99.015 298.463 100.129 299.391 100.129 300.597C100.154 300.893 100.118 301.191 100.023 301.472C99.927 301.752 99.7737 302.01 99.5729 302.228C99.3721 302.447 99.128 302.622 98.8561 302.74C98.5843 302.859 98.2907 302.918 97.9941 302.917L40.0887 304.589H39.9032Z" fill="#DBE6EF"/>
<path d="M47.3259 332.427H46.6762C46.1062 332.254 45.6245 331.866 45.3308 331.348C45.0371 330.83 44.9541 330.222 45.0988 329.644L69.1333 248.261C69.1652 247.92 69.2724 247.587 69.4473 247.291C69.6222 246.996 69.8606 246.745 70.1449 246.553C70.4291 246.361 70.7523 246.233 71.0913 246.181C71.4303 246.129 71.7767 246.156 72.1054 246.254C72.4341 246.352 72.7371 246.519 72.9924 246.748C73.2477 246.977 73.4491 247.261 73.582 247.577C73.7149 247.893 73.7757 248.236 73.7607 248.578C73.7456 248.921 73.6549 249.254 73.4948 249.557L49.4603 330.94C49.3178 331.388 49.0312 331.777 48.6453 332.046C48.2594 332.314 47.7955 332.449 47.3259 332.427Z" fill="#DBE6EF"/>
<path d="M76.8365 332.427H76.2797C75.7049 332.254 75.2151 331.872 74.9062 331.357C74.5974 330.843 74.4916 330.233 74.6095 329.645L95.6743 248.261C95.8277 247.694 96.1911 247.203 96.6907 246.893C97.1903 246.583 97.7888 246.475 98.3655 246.589C98.9404 246.762 99.4301 247.144 99.739 247.659C100.048 248.174 100.154 248.783 100.036 249.372L78.9709 330.755C78.8485 331.229 78.5729 331.654 78.1871 331.956C77.8012 332.258 77.3265 332.422 76.8365 332.427Z" fill="#DBE6EF"/>
<path d="M124.812 301.711L90.0135 417.06C89.6285 418.295 89.5324 419.601 89.7326 420.88C89.9329 422.158 90.4241 423.374 91.1684 424.432C91.9127 425.49 92.8901 426.362 94.0253 426.983C95.1605 427.603 96.4231 427.952 97.7156 428.007H200.442C203.099 427.963 205.663 427.023 207.718 425.338C209.773 423.654 211.199 421.324 211.763 418.727L239.603 301.063C239.93 299.84 239.971 298.554 239.724 297.312C239.476 296.069 238.946 294.904 238.175 293.9C237.403 292.895 236.411 292.081 235.275 291.521C234.139 290.961 232.889 290.669 231.622 290.669L135.391 293.079C132.955 293.255 130.631 294.181 128.738 295.726C126.845 297.27 125.474 299.359 124.812 301.711Z" fill="#DFE1E6"/>
<path d="M134.278 313.869L104.954 407.5C104.734 408.185 104.68 408.915 104.795 409.625C104.911 410.335 105.193 411.007 105.618 411.587C106.044 412.167 106.601 412.633 107.244 412.955C107.887 413.278 108.597 413.446 109.316 413.44H190.792C192.95 413.488 195.057 412.785 196.751 411.447C198.445 410.109 199.619 408.219 200.072 406.109L223.364 311.826C223.534 311.151 223.548 310.449 223.403 309.768C223.258 309.088 222.959 308.448 222.529 307.902C222.098 307.355 221.548 306.916 220.921 306.615C220.293 306.314 219.605 306.159 218.91 306.166L141.702 308.21C140.031 308.268 138.419 308.845 137.089 309.859C135.759 310.873 134.777 312.273 134.278 313.869Z" fill="#578DAE"/>
<path d="M139.846 340.131C139.256 340.131 138.689 339.896 138.271 339.478C137.854 339.061 137.619 338.492 137.619 337.902C137.619 337.311 137.854 336.747 138.271 336.329C138.689 335.912 139.256 335.677 139.846 335.677L197.752 334.005C198.342 334.005 198.909 334.24 199.326 334.657C199.744 335.075 199.979 335.644 199.979 336.234C199.979 336.834 199.748 337.41 199.332 337.843C198.917 338.275 198.351 338.53 197.752 338.554L139.846 340.131Z" fill="#DBE6EF"/>
<path d="M129.823 372.701C129.535 372.713 129.248 372.671 128.978 372.569C128.708 372.468 128.462 372.311 128.254 372.112C128.045 371.912 127.88 371.67 127.767 371.405C127.654 371.14 127.596 370.855 127.596 370.566C127.57 370.271 127.606 369.973 127.702 369.692C127.798 369.411 127.951 369.154 128.152 368.935C128.352 368.717 128.597 368.546 128.868 368.428C129.14 368.309 129.434 368.245 129.73 368.247L187.636 366.579C188.226 366.579 188.793 366.814 189.211 367.232C189.628 367.649 189.863 368.213 189.863 368.804C189.876 369.096 189.83 369.39 189.729 369.665C189.629 369.94 189.475 370.192 189.277 370.408C189.079 370.623 188.84 370.797 188.574 370.92C188.309 371.043 188.021 371.112 187.729 371.124L129.73 372.701H129.823Z" fill="#DBE6EF"/>
<path d="M137.247 401.194H136.412C136.123 401.119 135.852 400.986 135.615 400.804C135.379 400.623 135.181 400.393 135.034 400.134C134.886 399.874 134.793 399.587 134.759 399.291C134.725 398.994 134.75 398.694 134.834 398.407L158.869 316.933C158.954 316.653 159.093 316.39 159.279 316.163C159.465 315.937 159.694 315.748 159.953 315.61C160.211 315.472 160.495 315.389 160.786 315.361C161.078 315.333 161.373 315.361 161.653 315.447C162.223 315.62 162.705 316.007 162.998 316.526C163.292 317.044 163.375 317.656 163.231 318.234L139.196 399.617C139.067 400.045 138.812 400.423 138.465 400.705C138.117 400.986 137.693 401.157 137.247 401.194Z" fill="#DBE6EF"/>
<path d="M166.757 401.38H166.201C165.913 401.314 165.642 401.193 165.402 401.022C165.162 400.851 164.959 400.633 164.804 400.383C164.648 400.133 164.544 399.854 164.497 399.563C164.45 399.272 164.462 398.975 164.53 398.689L185.503 317.21C185.675 316.64 186.061 316.158 186.579 315.864C187.097 315.571 187.709 315.488 188.286 315.633C188.574 315.699 188.845 315.82 189.085 315.991C189.324 316.162 189.528 316.38 189.683 316.63C189.839 316.88 189.943 317.159 189.99 317.45C190.037 317.741 190.025 318.038 189.957 318.325L168.892 399.799C168.752 400.256 168.47 400.656 168.085 400.94C167.701 401.225 167.235 401.381 166.757 401.38Z" fill="#DBE6EF"/>
<path d="M312.726 347.257L309.199 194.051L306.601 148.391C306.601 146.151 305.711 144.007 304.127 142.423C302.544 140.84 300.396 139.949 298.156 139.949C295.917 139.949 293.769 140.84 292.185 142.423C290.602 144.007 289.712 146.151 289.712 148.391L285.165 193.865L274.957 346.885C274.957 349.391 283.309 351.618 293.516 351.897C303.724 352.175 312.076 350.224 312.076 347.719L312.726 347.257Z" fill="#D5D5D5"/>
<path d="M414.246 200.914L347.618 134.751C344.237 131.332 339.99 128.893 335.332 127.7C330.674 126.507 325.779 126.604 321.17 127.977L305.024 132.617L305.488 131.04L304.003 131.688L315.046 11.9802C315.307 9.32338 314.554 6.66502 312.938 4.54011C311.322 2.4152 308.962 0.978926 306.332 0.521014C303.702 0.0631017 300.996 0.616953 298.757 2.07065C296.518 3.52435 294.911 5.77107 294.259 8.35984L270.132 99.1135C268.906 103.755 268.948 108.64 270.253 113.26C271.559 117.879 274.081 122.063 277.556 125.376L289.619 137.071H288.042L289.341 137.999L180.211 188.295C178.008 189.284 176.209 190.995 175.114 193.148C174.019 195.301 173.694 197.767 174.193 200.13C174.691 202.494 175.984 204.616 177.856 206.143C179.727 207.67 182.065 208.507 184.48 208.522C185.486 208.496 186.484 208.342 187.45 208.06L278.02 183.56C282.654 182.312 286.871 179.85 290.232 176.423C293.593 172.997 295.977 168.729 297.136 164.071L301.219 147.741L302.333 148.856V147.279L400.419 216.596C402.576 218.263 405.293 219.032 408.004 218.744C410.714 218.456 413.209 217.133 414.968 215.051C416.727 212.969 417.615 210.291 417.445 207.57C417.276 204.85 416.064 202.3 414.06 200.452L414.246 200.914Z" fill="#E1E1E1"/>
<path d="M306.603 127.978C308.828 129.565 310.533 131.774 311.502 134.33C312.471 136.886 312.66 139.673 312.046 142.337C311.433 145 310.043 147.422 308.053 149.297C306.064 151.171 303.563 152.413 300.867 152.867C298.171 153.321 295.402 152.967 292.908 151.848C290.415 150.728 288.309 148.894 286.857 146.578C285.405 144.262 284.673 141.567 284.752 138.834C284.831 136.102 285.718 133.455 287.301 131.226C288.346 129.734 289.677 128.461 291.217 127.488C292.757 126.516 294.476 125.86 296.272 125.558C298.068 125.256 299.907 125.315 301.68 125.73C303.454 126.145 305.127 126.91 306.603 127.978Z" fill="#908576"/>
<path d="M220.314 25.9589C204.344 8.08554 171.719 4.55507 155.863 24.5914C146.965 35.9757 162.935 52.1432 172.061 40.6451C174.859 37.7007 178.454 35.6299 182.409 34.6861C186.364 33.7423 190.508 33.9628 194.338 35.3254C198.168 36.6879 201.519 39.1352 203.984 42.3627C206.449 45.5902 207.921 49.4611 208.222 53.508C209.933 80.3749 179.818 92.5541 157.459 88.4558C130.424 83.5605 111.83 60.3399 84.9086 54.8754C72.8984 52.52 60.4867 53.2254 48.8222 56.9266C37.1577 60.6278 26.6171 67.2037 18.1753 76.0487C8.1368 86.7499 24.2213 102.915 34.2597 92.2135C44.2982 81.5123 64.4893 68.0788 79.8893 69.4449C95.2893 70.811 109.663 81.3986 123.351 89.5953C150.501 105.989 181.643 120.559 208.679 99.6122C229.896 82.4219 240.277 48.0444 220.314 25.9589Z" fill="#CFE6F4"/>
</g>
<defs>
<clipPath id="clip0_736_3162">
<rect width="420" height="427.424" fill="white" transform="translate(0 0.473633)"/>
</clipPath>
</defs>
</svg>
