<svg width="420" height="379" viewBox="0 0 420 379" fill="none" xmlns="http://www.w3.org/2000/svg">
<g clip-path="url(#clip0_746_3283)">
<path d="M116.737 194.145L22.0874 184.756C20.9047 184.626 19.708 184.741 18.5704 185.089C17.4329 185.438 16.3786 186.013 15.4716 186.783L3.30681 196.708C1.46357 198.229 0.295339 200.416 0.0555689 202.794C-0.184201 205.172 0.523917 207.548 2.02637 209.406L40.6544 256.466L98.7032 208.874L116.737 194.145Z" fill="#D3D6D9"/>
<path d="M175.641 265.642L166.251 360.292C166.155 361.47 165.822 362.613 165.272 363.658C164.722 364.703 163.966 365.627 163.049 366.373L150.885 376.403C149.026 377.905 146.65 378.617 144.272 378.377C141.895 378.137 139.708 376.964 138.187 375.121L99.5586 328.066L157.607 280.475L175.641 265.642Z" fill="#D3D6D9"/>
<path d="M277.865 61.9374L113.323 32.166L58.2617 77.3032L153.658 193.721L277.865 61.9374Z" fill="#C8CBCF"/>
<path d="M336.661 133.645L333.78 300.855L278.612 345.992L183.109 229.681L336.661 133.645Z" fill="#C8CBCF"/>
<path d="M414.878 9.54166L70.1071 292.316L36.8145 251.769L306.891 30.2423C310.222 27.6618 313.796 25.4117 317.561 23.5209C335.915 14.024 395.564 -13.7205 414.878 9.54166Z" fill="#9399A1"/>
<path d="M128.333 12.6007L128.265 12.5181C122.51 5.50104 112.155 4.47868 105.138 10.2344L38.8852 64.5775C31.8682 70.3332 30.8453 80.6879 36.601 87.705L36.6688 87.7876C42.4245 94.8047 52.779 95.8268 59.7961 90.0711L126.049 35.728C133.066 29.9723 134.089 19.6178 128.333 12.6007Z" fill="#868B91"/>
<path d="M414.879 9.54395L70.1074 292.318L103.4 332.974L373.476 111.447C376.646 108.83 379.541 105.9 382.12 102.699C395.565 86.1596 433.979 32.9128 414.879 9.54395Z" fill="#9399A1"/>
<path d="M264.179 365.163L264.246 365.246C270.002 372.263 280.357 373.285 287.374 367.529L353.622 313.189C360.64 307.434 361.662 297.079 355.907 290.062L355.839 289.98C350.083 282.963 339.729 281.94 332.712 287.696L266.463 342.036C259.446 347.791 258.423 358.146 264.179 365.163Z" fill="#868B91"/>
<path d="M123.671 248.327L123.603 248.245C119.455 243.187 111.993 242.449 106.935 246.598L58.0089 286.729C52.9512 290.877 52.2152 298.34 56.3638 303.397L56.4315 303.48C60.5801 308.538 68.0421 309.276 73.0999 305.127L122.026 264.996C127.084 260.847 127.82 253.385 123.671 248.327Z" fill="#BFC2C7"/>
<path d="M368.716 77.4233C387.808 61.7633 396.711 41.0535 388.601 31.1658C380.491 21.2781 358.436 25.9541 339.344 41.614C320.252 57.274 311.353 77.9877 319.463 87.8754C327.573 97.7631 349.624 93.0833 368.716 77.4233Z" fill="#CFE6F4"/>
<path d="M302.515 187.962L304.755 273.327V285.598C304.755 290.613 314.359 289.439 314.252 284.957L312.012 199.591V187.425C312.012 182.303 302.408 183.48 302.515 187.962Z" fill="#FEFDFC"/>
<path d="M223.658 74.8485L140.427 56.8156L128.582 54.1479C123.78 53.1875 119.299 60.0159 125.488 61.2964L208.719 79.4336L220.564 81.997C225.366 83.0641 229.847 76.2357 223.658 74.8485Z" fill="#FEFDFC"/>
<path d="M172.226 215.062L268.262 136.209L281.921 125.001C288.43 119.666 278.613 114.332 273.598 118.921L177.561 197.779L163.902 208.45C157.393 213.785 167.21 219.119 172.226 214.53V215.062Z" fill="#E4E5E7"/>
</g>
<defs>
<clipPath id="clip0_746_3283">
<rect width="420" height="378.171" fill="white" transform="translate(0 0.473633)"/>
</clipPath>
</defs>
</svg>
