<svg width="531" height="434" viewBox="0 0 531 434" fill="none" xmlns="http://www.w3.org/2000/svg">
<g clip-path="url(#clip0_863_811)">
<path d="M388.49 179.074C388.49 179.074 445.557 199.855 500.263 183.677C501.748 183.226 503.326 183.172 504.839 183.516C506.353 183.861 507.75 184.594 508.894 185.643C510.038 186.692 510.888 188.021 511.361 189.499C511.835 190.977 511.915 192.553 511.595 194.071C505.49 223.985 477.653 290.114 351.671 316.082" fill="#5E9A33"/>
<path d="M159.454 143.616C159.454 143.616 98.7753 146.168 51.5226 114.205C50.2402 113.338 48.7554 112.819 47.2126 112.696C45.6697 112.573 44.1206 112.85 42.717 113.503C41.3135 114.155 40.1038 115.161 39.2033 116.419C38.3028 117.678 37.7426 119.147 37.5784 120.686C34.3516 151.045 40.8889 222.496 153.121 285.344" fill="#5E9A33"/>
<g opacity="0.2">
<path d="M152.49 284.528C152.49 284.528 102.635 266.298 54.8415 280.52C53.5405 280.896 52.1645 280.929 50.8466 280.617C49.5288 280.305 48.3135 279.66 47.3186 278.741C46.3238 277.822 45.5821 276.662 45.1668 275.373C44.7514 274.084 44.6754 272.709 44.9466 271.382C50.2994 245.294 74.6102 187.54 184.638 164.836" fill="#5E9A33"/>
<path d="M352.518 315.496C352.518 315.496 405.553 313.195 446.847 341.209C447.973 341.951 449.272 342.39 450.617 342.487C451.963 342.583 453.311 342.331 454.531 341.757C455.751 341.182 456.803 340.305 457.586 339.206C458.369 338.108 458.856 336.826 459.002 335.485C461.827 309.005 456.118 246.603 358.068 191.686" fill="#5E9A33"/>
</g>
<path d="M180.477 387.451C178.821 387.191 177.324 386.317 176.281 385.005C175.238 383.693 174.723 382.039 174.843 380.367L178.133 335.205C178.371 333.529 179.235 332.006 180.552 330.942C181.869 329.879 183.541 329.355 185.229 329.475C186.918 329.595 188.499 330.35 189.652 331.589C190.805 332.828 191.445 334.459 191.444 336.151L188.194 381.318C188.134 382.196 187.901 383.055 187.508 383.842C187.114 384.63 186.568 385.331 185.901 385.905C185.235 386.48 184.459 386.915 183.622 387.188C182.786 387.461 181.903 387.566 181.026 387.495L180.477 387.451Z" fill="#695D41"/>
<path d="M190.696 389.589C189.965 389.493 189.257 389.262 188.61 388.908C187.832 388.505 187.142 387.952 186.578 387.281C186.014 386.61 185.588 385.833 185.325 384.997C185.063 384.161 184.967 383.28 185.046 382.407C185.124 381.534 185.377 380.686 185.784 379.91L206.871 339.375C207.267 338.58 207.819 337.873 208.492 337.293C209.165 336.713 209.946 336.273 210.79 335.998C211.635 335.724 212.526 335.621 213.411 335.694C214.297 335.768 215.158 336.017 215.946 336.427C216.734 336.837 217.433 337.4 218.001 338.083C218.569 338.766 218.994 339.554 219.254 340.404C219.514 341.253 219.601 342.146 219.512 343.029C219.423 343.913 219.161 344.771 218.737 345.552L197.648 386.086C197.005 387.327 195.986 388.334 194.738 388.962C193.49 389.591 192.076 389.809 190.696 389.589Z" fill="#695D41"/>
<path d="M294.993 405.18L294.448 405.096C293.595 404.894 292.791 404.523 292.081 404.008C291.371 403.493 290.768 402.843 290.311 402.095C289.853 401.347 289.547 400.517 289.412 399.65C289.277 398.783 289.315 397.899 289.523 397.047L300.046 353.004C300.461 351.278 301.543 349.787 303.057 348.86C304.571 347.933 306.391 347.646 308.117 348.061C309.843 348.476 311.332 349.56 312.258 351.074C313.185 352.588 313.473 354.409 313.058 356.134L302.538 400.175C302.128 401.798 301.128 403.21 299.733 404.135C298.339 405.06 296.648 405.434 294.993 405.18Z" fill="#695D41"/>
<path d="M284.605 404.128C283.223 403.921 281.941 403.285 280.942 402.309C279.942 401.332 279.276 400.064 279.037 398.687L271.193 353.673C271.025 352.801 271.032 351.904 271.214 351.034C271.397 350.165 271.75 349.341 272.255 348.61C272.759 347.879 273.404 347.256 274.152 346.776C274.9 346.297 275.737 345.972 276.612 345.82C277.487 345.667 278.384 345.69 279.25 345.888C280.116 346.085 280.934 346.453 281.656 346.97C282.378 347.487 282.989 348.143 283.455 348.899C283.921 349.655 284.233 350.496 284.371 351.374L292.213 396.388C292.511 398.134 292.104 399.926 291.082 401.372C290.059 402.819 288.505 403.802 286.759 404.104C286.049 404.248 285.318 404.255 284.605 404.128Z" fill="#695D41"/>
<path d="M216.496 363.417C221.738 349.044 216.87 334.067 205.621 329.963C194.372 325.86 181.001 334.185 175.759 348.558C170.516 362.93 175.386 377.909 186.635 382.012C197.884 386.116 211.253 377.79 216.496 363.417Z" fill="#FEFAE9"/>
<path d="M291.374 397.546C303.338 397.036 312.509 384.232 311.858 368.946C311.207 353.661 300.98 341.683 289.016 342.192C277.053 342.702 267.883 355.507 268.535 370.792C269.186 386.077 279.411 398.056 291.374 397.546Z" fill="#FEFAE9"/>
<path d="M292.127 36.6206C292.127 36.6206 284.249 65.9005 228.587 81.5719C213.094 85.9019 199.09 94.4094 188.108 106.164C154.01 142.773 95.5943 224.833 146.471 318.517C146.471 318.517 174.749 362.713 240.544 372.899C240.544 372.899 302.388 387.252 347.281 352.154C388.713 319.866 420.439 228.618 369.918 131.605C362.591 117.595 351.4 105.982 337.67 98.1429C319.772 87.7269 293.212 69.4789 292.127 36.6206Z" fill="#FEFAE9"/>
<path d="M388.454 178.274C383.99 162.113 377.815 146.474 370.034 131.623C362.707 117.614 351.515 106.001 337.786 98.1614C319.759 87.8051 293.211 69.4796 292.115 36.699C292.115 36.699 284.237 65.9789 228.575 81.6503C213.082 85.9803 199.078 94.4878 188.095 106.242C177.408 117.706 167.715 130.061 159.124 143.169C167.72 157.6 201.14 206.134 264.524 215.947C264.536 215.869 324.058 226.439 388.454 178.274Z" fill="#7DBE37"/>
<path d="M159.398 142.692C159.398 142.692 177.454 263.706 255.692 275.819C333.931 287.931 388.724 179.111 388.724 179.111C388.724 179.111 386.58 161.578 354.455 156.127C322.33 150.676 197.395 131.812 197.395 131.812C197.395 131.812 166.275 128.109 159.398 142.692Z" fill="#F2E865"/>
<path d="M219.029 160.286C239.238 163.415 258.157 149.569 261.286 129.36C264.414 109.151 250.568 90.2321 230.359 87.1034C210.15 83.9748 191.231 97.821 188.103 118.03C184.974 138.239 198.82 157.158 219.029 160.286Z" fill="white"/>
<path d="M324.797 176.66C345.006 179.789 363.924 165.943 367.053 145.734C370.182 125.525 356.336 106.606 336.127 103.477C315.918 100.349 296.999 114.195 293.87 134.404C290.742 154.613 304.588 173.532 324.797 176.66Z" fill="white"/>
<path d="M254.869 141.745L280.678 89.996C281.054 89.2576 281.654 88.6558 282.392 88.2783C283.13 87.9008 283.968 87.766 284.787 87.8927C285.606 88.0195 286.364 88.4015 286.953 88.9844C287.542 89.5673 287.932 90.3225 288.067 91.1401L296.166 148.139L270.43 205.314C270.062 206.068 269.461 206.686 268.717 207.075C267.973 207.463 267.123 207.603 266.293 207.475C265.463 207.346 264.697 206.956 264.105 206.361C263.513 205.765 263.126 204.995 263.003 204.164L254.869 141.745Z" fill="#84765B"/>
<path d="M262.885 143.462L280.444 99.9938C280.624 99.4825 280.977 99.0502 281.442 98.7718C281.907 98.4933 282.454 98.386 282.99 98.4689C283.525 98.5519 284.015 98.8197 284.374 99.2256C284.732 99.6316 284.939 100.151 284.955 100.692L288.049 147.319L270.32 195.224C270.228 195.822 269.901 196.357 269.413 196.714C268.924 197.072 268.314 197.221 267.716 197.128C267.118 197.036 266.581 196.709 266.223 196.22C265.866 195.732 265.716 195.123 265.809 194.525L262.885 143.462Z" fill="#695D41"/>
<path d="M363.124 171.127C362.598 171.057 362.099 170.854 361.674 170.536C361.248 170.219 360.911 169.796 360.695 169.312C360.478 168.827 360.389 168.295 360.436 167.767C360.483 167.238 360.666 166.732 360.966 166.293L368.098 155.452C368.323 155.105 368.617 154.805 368.959 154.573C369.301 154.34 369.686 154.179 370.092 154.097C370.498 154.015 370.915 154.015 371.321 154.096C371.727 154.178 372.112 154.34 372.454 154.573C373.149 155.044 373.631 155.77 373.794 156.593C373.958 157.416 373.79 158.268 373.328 158.968L366.23 169.576C365.925 170.114 365.466 170.55 364.912 170.826C364.359 171.102 363.737 171.207 363.124 171.127Z" fill="#E27E7C"/>
<path d="M371.703 175.88C371.26 175.815 370.836 175.655 370.462 175.41C369.769 174.948 369.287 174.228 369.122 173.412C368.958 172.595 369.123 171.747 369.583 171.053L376.649 160.4C377.119 159.705 377.843 159.225 378.666 159.061C379.489 158.898 380.343 159.066 381.043 159.529C381.388 159.761 381.683 160.059 381.911 160.406C382.139 160.752 382.296 161.14 382.374 161.548C382.451 161.956 382.449 162.377 382.363 162.783C382.278 163.19 382.112 163.575 381.877 163.917L374.819 174.531C374.479 175.026 374.006 175.417 373.455 175.655C372.904 175.894 372.297 175.972 371.703 175.88Z" fill="#E27E7C"/>
<path d="M173.027 140.82C172.566 140.757 172.127 140.579 171.752 140.304C171.059 139.842 170.577 139.124 170.413 138.308C170.248 137.491 170.413 136.643 170.873 135.949L177.971 125.339C178.454 124.697 179.163 124.264 179.955 124.128C180.747 123.992 181.56 124.164 182.229 124.609C182.898 125.053 183.373 125.738 183.555 126.521C183.736 127.303 183.612 128.126 183.207 128.819L176.103 139.465C175.774 139.962 175.309 140.355 174.763 140.595C174.218 140.835 173.616 140.913 173.027 140.82Z" fill="#E27E7C"/>
<path d="M181.723 145.591C181.275 145.53 180.849 145.354 180.488 145.081C180.141 144.856 179.843 144.562 179.61 144.22C179.378 143.878 179.214 143.492 179.133 143.086C179.051 142.681 179.052 142.264 179.134 141.858C179.216 141.452 179.378 141.067 179.611 140.724L186.669 130.111C187.131 129.412 187.852 128.925 188.673 128.757C189.494 128.589 190.348 128.754 191.048 129.216C191.747 129.678 192.234 130.399 192.402 131.22C192.57 132.041 192.405 132.896 191.943 133.595L184.839 144.242C184.503 144.741 184.032 145.132 183.48 145.371C182.928 145.61 182.317 145.688 181.723 145.591Z" fill="#E27E7C"/>
<path d="M326.838 148.308C335.493 149.648 343.595 143.718 344.935 135.063C346.275 126.408 340.345 118.306 331.69 116.966C323.036 115.626 314.933 121.556 313.593 130.211C312.254 138.866 318.183 146.968 326.838 148.308Z" fill="#4A1E0E"/>
<path d="M230.168 133.342C238.823 134.682 246.925 128.752 248.265 120.097C249.605 111.443 243.675 103.34 235.021 102C226.366 100.66 218.263 106.59 216.923 115.245C215.584 123.9 221.513 132.002 230.168 133.342Z" fill="#4A1E0E"/>
<path d="M180.477 387.451C178.821 387.191 177.324 386.317 176.281 385.005C175.238 383.693 174.723 382.039 174.843 380.367L178.133 335.205C178.371 333.529 179.235 332.006 180.552 330.942C181.869 329.879 183.541 329.355 185.229 329.475C186.918 329.595 188.499 330.35 189.652 331.589C190.805 332.828 191.445 334.459 191.444 336.151L188.194 381.318C188.134 382.196 187.901 383.055 187.508 383.842C187.114 384.63 186.568 385.331 185.901 385.905C185.235 386.48 184.459 386.915 183.622 387.188C182.786 387.461 181.903 387.566 181.026 387.495L180.477 387.451Z" fill="#695D41"/>
<path d="M190.696 389.589C189.965 389.493 189.257 389.262 188.61 388.908C187.832 388.505 187.142 387.952 186.578 387.281C186.014 386.61 185.588 385.833 185.325 384.997C185.063 384.161 184.967 383.28 185.046 382.407C185.124 381.534 185.377 380.686 185.784 379.91L206.871 339.375C207.267 338.58 207.819 337.873 208.492 337.293C209.165 336.713 209.946 336.273 210.79 335.998C211.635 335.724 212.526 335.621 213.411 335.694C214.297 335.768 215.158 336.017 215.946 336.427C216.734 336.837 217.433 337.4 218.001 338.083C218.569 338.766 218.994 339.554 219.254 340.404C219.514 341.253 219.601 342.146 219.512 343.029C219.423 343.913 219.161 344.771 218.737 345.552L197.648 386.086C197.005 387.327 195.986 388.334 194.738 388.962C193.49 389.591 192.076 389.809 190.696 389.589Z" fill="#695D41"/>
<path d="M294.993 405.18L294.448 405.096C293.595 404.894 292.791 404.523 292.081 404.008C291.371 403.493 290.768 402.843 290.311 402.095C289.853 401.347 289.547 400.517 289.412 399.65C289.277 398.783 289.315 397.899 289.523 397.047L300.046 353.004C300.461 351.278 301.543 349.787 303.057 348.86C304.571 347.933 306.391 347.646 308.117 348.061C309.843 348.476 311.332 349.56 312.258 351.074C313.185 352.588 313.473 354.409 313.058 356.134L302.538 400.175C302.128 401.798 301.128 403.21 299.733 404.135C298.339 405.06 296.648 405.434 294.993 405.18Z" fill="#695D41"/>
<path d="M284.605 404.128C283.223 403.921 281.941 403.285 280.942 402.309C279.942 401.332 279.276 400.064 279.037 398.687L271.193 353.673C271.025 352.801 271.032 351.904 271.214 351.034C271.397 350.165 271.75 349.341 272.255 348.61C272.759 347.879 273.404 347.256 274.152 346.776C274.9 346.297 275.737 345.972 276.612 345.82C277.487 345.667 278.384 345.69 279.25 345.888C280.116 346.085 280.934 346.453 281.656 346.97C282.378 347.487 282.989 348.143 283.455 348.899C283.921 349.655 284.233 350.496 284.371 351.374L292.213 396.388C292.511 398.134 292.104 399.926 291.082 401.372C290.059 402.819 288.505 403.802 286.759 404.104C286.049 404.248 285.318 404.255 284.605 404.128Z" fill="#695D41"/>
</g>
<defs>
<clipPath id="clip0_863_811">
<rect width="479.703" height="364.371" fill="white" transform="translate(56.2461 0.102539) rotate(8.80044)"/>
</clipPath>
</defs>
</svg>
