<svg width="1888" height="333" viewBox="0 0 1888 333" fill="none" xmlns="http://www.w3.org/2000/svg">
<rect width="1888" height="333" rx="80" fill="#F9F8F3"/>
<rect x="54" y="70.5" width="192" height="192" rx="96" fill="#FDFDFB"/>
<rect x="54" y="70.5" width="192" height="192" rx="96" stroke="#F2EEE4" stroke-width="8"/>
<path d="M188.556 108.223L160.97 115.119C149.165 117.74 137.786 122.015 127.174 127.811C120.329 131.468 114.396 136.618 109.811 142.881C105.227 149.143 102.11 156.354 100.692 163.984C99.275 171.615 99.5924 179.466 101.622 186.957C103.651 194.448 107.343 201.388 112.418 207.26C112.418 207.26 149.793 234.845 184.138 192.224C193.887 180.597 199.593 166.115 200.389 150.962C201.186 135.81 197.033 120.807 188.556 108.223Z" fill="#B8C318"/>
<path d="M112.265 224.502C112.797 224.333 113.287 224.046 113.693 223.664C114.099 223.282 114.408 222.813 114.609 222.293C123.848 195.445 138.603 170.826 157.921 150.018C158.652 149.382 159.147 148.518 159.322 147.566C159.498 146.614 159.341 145.632 158.885 144.778C158.626 144.378 158.289 144.04 157.888 143.784C157.487 143.529 157.032 143.362 156.561 143.296C156.09 143.231 155.609 143.267 155.153 143.404C154.698 143.541 154.278 143.773 153.921 144.087C132.167 164.523 114.643 189.033 102.338 216.225C101.511 218.018 107.991 223.675 109.922 224.364C110.278 224.558 110.675 224.67 111.08 224.694C111.485 224.718 111.889 224.653 112.265 224.502Z" fill="#DADD8D"/>
<path d="M344.226 88.928V85.31H340.662V88.928H344.226ZM336.504 88.928V85.31H333.102V88.928H336.504ZM328.89 88.928V85.31H325.488V88.928H328.89ZM349.68 80.99V93.248H320.304V80.99H349.68ZM351.408 94.976V100.052H318.36V94.976H351.408ZM327.162 106.37V109.394H342.336V106.37H327.162ZM347.034 113.822L351.246 117.602C349.14 118.682 347.034 119.762 345.036 120.626C347.196 122.192 349.68 123.434 352.596 124.19C351.3 125.378 349.572 127.538 348.816 129.104C341.58 126.674 336.936 121.652 334.128 114.74C332.562 116.09 330.834 117.278 328.89 118.412V123.056L336.504 121.598C336.342 123.002 336.288 125.108 336.396 126.296C326.46 128.456 324.678 128.942 323.652 129.59C323.382 128.348 322.356 126.296 321.6 125.27C322.572 124.838 323.76 123.758 323.76 121.598V121.112C322.248 121.76 320.79 122.246 319.332 122.732C318.738 121.814 317.766 120.626 316.848 119.6L316.902 119.978C311.934 121.436 306.642 122.786 302.268 123.974L301.188 118.142C302.754 117.818 304.482 117.386 306.48 116.9V103.616H302.268V98.054H306.48V88.01H301.89V82.394H316.524V88.01H312.096V98.054H316.038V103.616H312.096V115.55L316.146 114.47L316.632 118.142C320.466 117.116 324.462 115.604 327.702 113.768H321.492V101.942H348.384V113.768H339.366C339.96 115.118 340.77 116.36 341.688 117.44C343.632 116.306 345.684 114.902 347.034 113.822ZM407.406 82.502V87.686H379.704V82.502H390.396C390.072 81.638 389.748 80.72 389.478 79.964L395.526 78.83C396.012 79.91 396.552 81.314 396.984 82.502H407.406ZM408.81 92.33V97.622H378.192V92.33H384.726C384.456 91.142 383.97 89.846 383.538 88.766L388.722 87.74C389.37 89.09 390.072 90.98 390.396 92.33H396.498C397.092 90.818 397.686 89.09 398.064 87.74L403.896 88.82C403.248 90.062 402.708 91.25 402.114 92.33H408.81ZM377.112 110.852L378.354 116.684C372.792 119.006 366.636 121.49 361.776 123.38L359.67 116.792C361.452 116.252 363.558 115.604 365.88 114.794V98.162H360.642V92.06H365.88V79.964H372.144V92.06H376.734V98.162H372.144V112.634C373.818 112.04 375.438 111.446 377.112 110.852ZM386.184 109.448V111.716H400.008V109.448H386.184ZM386.184 103.454V105.722H400.008V103.454H386.184ZM401.79 123.974H403.248C403.68 123.974 404.112 123.974 404.382 123.866C404.652 123.758 404.868 123.434 405.03 122.786C405.138 122.138 405.192 120.68 405.246 118.736C406.326 119.762 408.648 120.842 410.16 121.382C409.998 123.38 409.782 125.54 409.35 126.458C408.864 127.376 408.108 128.024 407.082 128.456C406.272 128.78 404.76 128.942 403.734 128.942H400.278C398.874 128.942 397.146 128.51 396.174 127.646C395.148 126.728 394.662 125.594 394.662 122.3V115.766H390.774C389.856 122.894 387.156 127.322 377.058 129.86C376.518 128.402 375.006 126.026 373.764 124.946C382.08 123.326 384.024 120.572 384.78 115.766H380.298V99.458H406.164V115.766H400.602V122.462C400.602 123.164 400.602 123.542 400.818 123.758C401.034 123.92 401.358 123.974 401.79 123.974ZM430.464 79.37L436.404 81.314C434.946 85.04 433.164 88.874 431.058 92.492V129.536H424.956V101.78C423.714 103.346 422.418 104.804 421.176 106.154C420.582 104.588 418.8 101.132 417.72 99.566C422.742 94.706 427.656 87.038 430.464 79.37ZM440.076 112.418L445.854 114.146C443.64 118.79 440.346 124.028 437.592 127.322C436.458 126.35 434.082 124.622 432.624 123.866C435.324 120.896 438.24 116.414 440.076 112.418ZM443.586 87.254V94.49H459.408V87.254H443.586ZM468.534 110.744H454.548V129.698H448.068V110.744H433.974V104.912H448.068V100.16H437.484V81.584H465.834V100.16H454.548V104.912H468.534V110.744ZM456.384 115.01L461.136 112.364C464.214 115.928 467.508 120.572 469.074 123.758L463.998 126.836C462.54 123.65 459.246 118.682 456.384 115.01ZM492.132 93.734L510.114 93.248C508.98 92.384 507.9 91.52 506.874 90.764L509.088 89.468H497.532C495.696 91.034 493.914 92.438 492.132 93.734ZM525.828 83.852V89.468H514.65C518.16 92.114 521.994 95.408 524.1 97.838L519.186 100.916H521.454V122.84C521.454 126.296 520.536 127.7 517.944 128.51C515.406 129.266 511.464 129.212 506.28 129.212C506.064 127.538 505.416 125.378 504.714 123.758C507.684 123.974 512.112 123.974 513.03 123.92C514.11 123.866 514.434 123.596 514.434 122.732V118.844C506.496 120.572 498.558 122.192 492.24 123.488L490.35 117.818C494.832 117.224 501.528 116.252 508.548 115.172C504.282 113.444 497.154 111.608 491.592 110.798L493.482 106.964C499.53 107.666 507.576 109.556 511.896 111.338L510.222 114.902L514.434 114.254V106.208H490.296V109.556C490.296 115.874 489.324 124.676 484.41 130.292C483.33 129.158 480.576 127.106 479.118 126.512C483.546 121.544 483.978 114.578 483.978 109.448V100.916H518.052C517.35 100.052 516.432 99.08 515.406 98.054C489.054 99.08 485.868 99.134 483.546 99.944C483.222 98.702 482.25 95.732 481.602 94.058C483.114 93.788 484.41 92.87 486.462 91.412C487.056 91.034 487.866 90.332 488.892 89.468H477.984V83.852H494.94C496.56 82.178 498.18 80.45 499.53 78.614L506.064 81.098C505.254 82.016 504.39 82.934 503.472 83.852H525.828ZM533.928 134.72L548.94 81.854H553.26L538.248 134.72H533.928ZM570.023 119.624L573.593 121.136C570.821 123.446 566.747 125.966 563.513 127.52C562.841 126.806 561.371 125.546 560.531 124.958C563.891 123.656 567.671 121.598 570.023 119.624ZM568.133 99.884V102.782H577.625V99.884H568.133ZM568.133 94.172V97.028H577.625V94.172H568.133ZM591.233 97.028V94.172H581.405V97.028H591.233ZM591.233 102.782V99.884H581.405V102.782H591.233ZM592.031 117.482L581.783 117.986V124.37C581.783 126.26 581.405 127.184 579.977 127.73C578.591 128.318 576.617 128.318 573.845 128.318C573.635 127.268 573.005 125.756 572.501 124.832C574.433 124.874 576.449 124.874 576.995 124.832C577.583 124.832 577.751 124.706 577.751 124.244V118.154C566.831 118.7 565.109 118.826 563.807 119.288C563.681 118.616 563.177 116.894 562.841 115.886C564.311 115.802 565.991 115.298 568.427 114.416C569.645 113.996 571.997 113.114 574.769 111.854C567.881 112.316 566.663 112.526 565.865 112.82C565.697 112.148 565.193 110.426 564.857 109.502C565.655 109.418 566.621 109.04 567.713 108.494C568.553 108.158 570.527 107.15 572.585 105.806H564.479V91.106H595.097V105.806H578.297C576.491 107.024 574.685 108.116 572.837 109.082L581.237 108.662C582.875 107.822 584.471 106.856 586.025 105.932L588.923 108.2C584.093 111.014 579.137 113.324 574.265 115.172L589.133 114.584C588.167 113.702 587.117 112.82 586.193 112.106L588.965 110.216C591.989 112.358 595.349 115.55 596.987 117.734L594.089 119.96C593.543 119.204 592.829 118.406 592.031 117.482ZM584.555 121.64L587.369 119.624C590.729 121.178 595.181 123.656 597.533 125.462L594.509 127.73C592.367 125.966 587.999 123.362 584.555 121.64ZM621.389 112.4L619.121 115.466C618.533 114.374 617.273 112.568 616.055 110.93V128.234H612.275V111.56C610.721 115.256 608.873 118.742 607.067 121.052C606.647 119.96 605.765 118.364 605.135 117.44C607.697 114.5 610.385 109.376 611.981 104.882H606.227V101.228H612.275V95.6C610.469 95.936 608.663 96.188 606.983 96.398C606.815 95.516 606.311 94.214 605.849 93.374C610.343 92.744 615.551 91.568 618.533 90.308L621.221 93.29C619.709 93.878 617.945 94.382 616.055 94.844V101.228H620.297V100.514H630.167V98.666H622.439V96.23H630.167V94.424H621.599V91.904H630.167V89.762H634.073V91.904H643.187V94.424H634.073V96.23H642.179V98.666H634.073V100.514H644.153V103.076H620.549V104.882H616.055V106.94C617.441 108.158 620.633 111.476 621.389 112.4ZM638.273 109.67V107.402H626.555V109.67H638.273ZM638.273 114.374V112.064H626.555V114.374H638.273ZM638.273 119.078V116.768H626.555V119.078H638.273ZM641.927 104.882V121.598H627.941L630.839 123.446C628.319 125.42 624.203 127.436 620.843 128.486C620.255 127.73 619.163 126.638 618.365 125.966C621.641 125.042 625.463 123.236 627.479 121.598H623.027V104.882H641.927ZM634.073 123.488L636.677 121.598C639.449 123.194 642.683 125.168 644.615 126.47L641.213 128.36C639.575 127.1 636.635 125.084 634.073 123.488ZM682.919 96.734V94.004H670.151V96.734H682.919ZM682.919 102.152V99.38H670.151V102.152H682.919ZM686.657 91.106V105.05H666.581V91.106H686.657ZM664.145 111.308L659.567 112.736V123.614C659.567 125.546 659.189 126.596 658.097 127.184C656.963 127.814 655.283 127.94 652.637 127.94C652.553 127.016 652.091 125.336 651.587 124.328C653.267 124.37 654.821 124.37 655.283 124.37C655.787 124.37 655.997 124.202 655.997 123.614V113.87L651.587 115.214L650.705 111.434C652.175 111.056 654.023 110.552 655.997 110.006V101.564H651.125V97.952H655.997V89.846H659.567V97.952H664.019V101.564H659.567V108.956L663.599 107.78L664.145 111.308ZM678.341 118.28V124.118C679.475 124.286 680.651 124.328 681.869 124.328C683.045 124.328 688.463 124.328 690.059 124.286C689.597 125.126 689.093 126.764 688.967 127.73H681.743C675.905 127.73 671.537 126.68 668.807 121.136C667.673 124.076 666.119 126.47 664.061 128.318C663.473 127.688 662.003 126.47 661.163 125.966C664.775 123.068 666.581 118.364 667.253 112.442L670.781 112.862C670.571 114.416 670.319 115.886 669.983 117.272C671.075 120.296 672.671 122.102 674.687 123.068V110.804H664.607V107.612H688.883V110.804H678.341V115.172H686.741V118.28H678.341ZM707.573 107.654L708.203 111.098C706.985 111.56 705.725 112.064 704.507 112.568V123.866C704.507 125.714 704.129 126.68 703.079 127.268C702.029 127.856 700.433 127.982 697.997 127.982C697.871 127.058 697.451 125.504 696.947 124.538C698.543 124.622 700.013 124.622 700.433 124.58C700.937 124.58 701.105 124.454 701.105 123.908V113.828L697.325 115.256L696.317 111.476C697.703 111.056 699.341 110.468 701.105 109.88V101.564H696.821V97.952H701.105V89.804H704.507V97.952H707.615V101.564H704.507V108.704L707.573 107.654ZM729.203 117.272H722.609C723.953 118.322 725.465 119.498 726.977 120.716C727.859 119.708 728.657 118.532 729.203 117.272ZM731.345 114.374L733.319 114.962C732.479 118.112 731.177 120.632 729.413 122.69C731.009 123.95 732.395 125.21 733.445 126.134L731.177 128.318C730.211 127.31 728.867 126.05 727.271 124.748C725.297 126.386 722.987 127.562 720.425 128.402C720.089 127.562 719.291 126.302 718.661 125.63C720.971 125.042 723.113 124.034 724.877 122.648C723.281 121.304 721.643 119.96 720.131 118.784L721.895 117.272H720.257V114.458H730.715L731.345 114.374ZM732.605 95.642L734.915 97.658C733.529 98.834 731.933 99.968 730.589 100.85C732.017 102.11 733.697 103.076 735.629 103.748C734.873 104.462 733.865 105.806 733.403 106.73C732.311 106.268 731.345 105.764 730.421 105.176V109.208C730.421 110.048 730.463 110.342 730.883 110.342H731.765C732.185 110.342 732.899 110.3 733.319 110.132C733.403 110.93 733.445 111.98 733.529 112.694C733.109 112.862 732.437 112.904 731.807 112.904H730.421C727.859 112.904 727.397 111.812 727.397 109.166V106.1H724.289V107.024C724.289 109.46 723.743 112.358 721.013 114.248C720.635 113.66 719.543 112.61 718.871 112.148V112.736H712.235C712.067 113.912 711.899 115.088 711.731 116.18H718.871C718.871 116.18 718.829 117.104 718.745 117.566C718.283 123.362 717.821 125.882 716.897 126.848C716.225 127.604 715.469 127.856 714.335 127.94C713.453 128.024 711.899 128.024 710.303 127.94C710.261 126.974 709.883 125.714 709.337 124.832C710.891 125 712.361 125 712.991 125C713.537 125 713.873 124.958 714.209 124.664C714.713 124.118 715.091 122.606 715.385 119.036H708.203C708.665 116.558 709.253 112.778 709.589 109.754H715.721V106.226H710.513V105.848C709.799 106.31 709.043 106.688 708.245 107.024C707.909 106.226 706.985 104.924 706.313 104.294C708.371 103.454 710.303 102.194 711.983 100.556C711.059 99.632 709.799 98.582 708.707 97.826L710.723 95.726C711.815 96.398 713.075 97.364 714.041 98.246C714.881 97.07 715.637 95.81 716.225 94.424H709.379V91.358H717.737L718.325 91.232L720.425 91.988C719.207 96.734 716.855 100.556 713.873 103.286H718.871V111.98C720.971 110.426 721.223 108.662 721.223 106.94V103.286H727.985C724.667 100.262 722.483 95.978 721.181 90.728L724.373 90.182C724.751 91.694 725.255 93.122 725.885 94.466C726.935 93.5 728.153 92.24 728.909 91.358L731.219 93.374C729.917 94.634 728.405 95.894 727.145 96.818C727.607 97.616 728.153 98.372 728.741 99.002C730.043 98.036 731.639 96.608 732.605 95.642ZM752.681 102.068H770.027C766.751 100.094 763.643 97.784 761.123 95.264C758.687 97.91 755.831 100.178 752.681 102.068ZM771.917 105.68H763.055V110.762H777.125V114.29H763.055V123.656H779.141V127.226H743.105V123.656H758.897V114.29H745.037V110.762H758.897V105.68H750.119V103.496C748.145 104.504 746.129 105.428 744.029 106.184C743.483 105.05 742.391 103.538 741.425 102.572C749.237 100.178 756.839 95.558 760.829 89.384L764.483 91.022C764.105 91.568 763.769 92.114 763.391 92.618C767.507 96.734 774.563 100.724 780.863 102.572C779.981 103.412 778.763 104.966 778.175 105.974C776.117 105.26 774.017 104.252 771.917 103.118V105.68ZM769.229 123.488L766.247 122.228C767.675 120.212 769.439 117.02 770.321 114.71L774.101 116.096C772.505 118.742 770.657 121.598 769.229 123.488ZM748.229 115.97L751.421 114.71C753.017 116.936 754.697 120.002 755.369 121.976L751.967 123.446C751.379 121.472 749.741 118.322 748.229 115.97ZM820.553 104.84V101.606H811.775V104.84H820.553ZM820.553 111.014V107.78H811.775V111.014H820.553ZM820.553 117.23V113.912H811.775V117.23H820.553ZM808.247 98.54H813.623C813.875 97.448 814.085 96.146 814.295 94.97H807.113V91.652H825.425V94.97H817.907C817.571 96.188 817.235 97.448 816.857 98.54H824.249V120.296H808.247V98.54ZM790.859 96.986V101.06H787.961V93.836H795.437C795.101 92.828 794.681 91.82 794.345 90.938L797.453 89.846C797.999 91.022 798.629 92.618 799.133 93.836H805.937V101.06H802.913V96.986H790.859ZM793.925 123.908H800.519V118.532H793.925V123.908ZM791.909 115.466H803.249C801.779 114.416 799.721 112.988 797.537 111.644C795.773 113.156 793.883 114.458 791.909 115.466ZM806.147 113.114L803.963 115.718V128.15H800.519V126.974H793.925V128.192H790.607V116.138C789.977 116.432 789.389 116.684 788.759 116.936C788.381 116.012 787.457 114.458 786.827 113.702C789.557 112.82 792.245 111.476 794.555 109.754C793.589 109.166 792.665 108.62 791.783 108.116L794.009 105.764C794.975 106.31 796.025 106.898 797.117 107.528C798.209 106.436 799.217 105.134 799.973 103.79H794.345C793.085 105.596 791.573 107.276 789.641 108.704C789.263 107.906 788.339 106.646 787.667 106.142C790.901 103.958 792.917 100.85 793.841 97.994L796.907 98.582C796.655 99.338 796.319 100.052 795.983 100.808H801.737L802.283 100.682L804.257 102.11C803.165 104.798 801.695 107.192 799.931 109.208C802.325 110.636 804.635 112.106 806.147 113.114ZM812.783 120.716L815.261 123.11C812.825 125.084 809.255 127.184 806.525 128.528C806.147 127.73 805.349 126.428 804.803 125.63C807.407 124.454 810.893 122.354 812.783 120.716ZM816.815 122.942L818.915 120.548C821.225 121.934 824.333 124.16 825.887 125.672L823.661 128.36C822.191 126.848 819.167 124.496 816.815 122.942Z" fill="#594A39"/>
<path d="M307.8 247V232.6H323.6V190.3H309.9V179.3C317.9 177.8 323.1 175.8 328.3 172.5H341.4V232.6H354.8V247H307.8ZM395.438 248.4C383.538 248.4 375.338 243.9 369.438 238.1L377.538 226.9C381.738 230.9 386.938 234 392.838 234C400.038 234 404.538 230.1 404.538 222.4C404.538 214.9 400.038 210.9 393.638 210.9C389.538 210.9 387.538 211.7 383.138 214.5L375.338 209.4L377.238 172.5H419.038V187.4H392.538L391.438 200C394.138 198.9 396.337 198.5 399.138 198.5C411.738 198.5 422.338 205.9 422.338 222C422.338 238.7 409.738 248.4 395.438 248.4ZM465.575 212.3C461.875 212.3 457.775 214.2 455.075 219C456.575 231.4 461.175 235.1 465.875 235.1C470.575 235.1 474.575 231.6 474.575 223.1C474.575 215 470.475 212.3 465.575 212.3ZM466.275 248.4C452.275 248.4 438.475 237.5 438.475 210.4C438.475 183.5 452.675 171.2 468.075 171.2C477.875 171.2 485.075 175.3 489.775 180.1L480.375 190.6C477.975 188 473.375 185.4 469.275 185.4C461.575 185.4 455.475 190.9 454.775 207.1C458.475 202.4 464.775 199.8 468.975 199.8C481.375 199.8 490.775 207 490.775 223.1C490.775 238.9 479.575 248.4 466.275 248.4ZM509.713 269.7L506.113 260.2C514.813 257.2 519.413 251.8 519.313 246.3H518.413C512.913 246.3 507.813 242.7 507.813 236.3C507.813 230.3 512.713 226.3 518.913 226.3C526.713 226.3 531.013 232.5 531.013 242.9C531.013 255.8 523.613 265.5 509.713 269.7ZM559.771 247C561.171 222.5 564.971 206.8 578.971 187.4H546.971V172.5H597.971V183.4C580.771 203.8 578.971 217.9 577.671 247H559.771ZM639.109 248.4C624.509 248.4 613.609 240.3 613.609 228.5C613.609 219.2 618.909 213.3 625.809 209.7V209.2C620.009 204.9 616.109 199.2 616.109 191.3C616.109 178.9 626.009 171.2 639.709 171.2C653.109 171.2 662.009 179 662.009 191.1C662.009 198.2 657.709 204.1 652.609 207.6V208.1C659.709 211.8 665.109 218 665.109 228.2C665.109 239.7 654.709 248.4 639.109 248.4ZM643.609 203.3C646.409 199.9 647.609 196.1 647.609 192.3C647.609 186.9 644.509 183.5 639.309 183.5C635.209 183.5 631.709 186 631.709 191.3C631.709 197.2 636.309 200.4 643.609 203.3ZM639.509 236C644.709 236 648.609 233.4 648.609 227.5C648.609 221 642.909 218.2 633.809 214.3C630.809 217.2 628.809 221.7 628.809 226.4C628.809 232.5 633.709 236 639.509 236ZM693.646 247C695.046 222.5 698.846 206.8 712.846 187.4H680.846V172.5H731.846V183.4C714.646 203.8 712.846 217.9 711.546 247H693.646ZM751.584 269.7L747.984 260.2C756.684 257.2 761.284 251.8 761.184 246.3H760.284C754.784 246.3 749.684 242.7 749.684 236.3C749.684 230.3 754.584 226.3 760.784 226.3C768.584 226.3 772.884 232.5 772.884 242.9C772.884 255.8 765.484 265.5 751.584 269.7ZM814.242 248.4C798.542 248.4 787.842 235 787.842 209.4C787.842 183.8 798.542 171.2 814.242 171.2C829.942 171.2 840.542 183.9 840.542 209.4C840.542 235 829.942 248.4 814.242 248.4ZM814.242 234.6C819.542 234.6 823.742 229.8 823.742 209.4C823.742 189.1 819.542 184.8 814.242 184.8C808.942 184.8 804.642 189.1 804.642 209.4C804.642 229.8 808.942 234.6 814.242 234.6ZM881.18 248.4C865.48 248.4 854.78 235 854.78 209.4C854.78 183.8 865.48 171.2 881.18 171.2C896.88 171.2 907.48 183.9 907.48 209.4C907.48 235 896.88 248.4 881.18 248.4ZM881.18 234.6C886.48 234.6 890.68 229.8 890.68 209.4C890.68 189.1 886.48 184.8 881.18 184.8C875.88 184.8 871.58 189.1 871.58 209.4C871.58 229.8 875.88 234.6 881.18 234.6ZM948.117 248.4C932.417 248.4 921.717 235 921.717 209.4C921.717 183.8 932.417 171.2 948.117 171.2C963.817 171.2 974.417 183.9 974.417 209.4C974.417 235 963.817 248.4 948.117 248.4ZM948.117 234.6C953.417 234.6 957.617 229.8 957.617 209.4C957.617 189.1 953.417 184.8 948.117 184.8C942.817 184.8 938.517 189.1 938.517 209.4C938.517 229.8 942.817 234.6 948.117 234.6Z" fill="#B8C318"/>
<rect x="1054" y="70.5" width="192" height="192" rx="96" fill="#FDFDFB"/>
<rect x="1054" y="70.5" width="192" height="192" rx="96" stroke="#F2EEE4" stroke-width="8"/>
<path d="M1139.72 218.433C1127.31 210.872 1116.83 200.529 1109.1 188.224C1101.1 175.396 1088.41 140.364 1105.38 124.64C1126.2 105.329 1146.76 118.296 1148.96 125.468C1153.46 121.787 1158.63 119.037 1164.2 117.379C1169.76 115.722 1175.6 115.187 1181.37 115.81C1197.65 119.672 1211.17 143.397 1197.52 168.225C1187.62 182.765 1174.62 194.922 1159.44 203.812C1149.93 210.295 1139.72 218.433 1139.72 218.433Z" fill="#EEB690"/>
<path d="M1176.56 145.052C1177.04 147.604 1177.04 150.225 1176.56 152.777C1175.58 159.7 1172.66 166.202 1168.14 171.534C1163.91 176.817 1158.94 181.463 1153.38 185.327C1153.38 185.327 1152 186.156 1152.14 186.707C1152.28 187.259 1153.66 187.947 1155.31 188.085C1158.24 188.246 1161.14 187.474 1163.59 185.879C1170.63 181.849 1176.47 176.023 1180.52 168.995C1184.56 161.967 1186.67 153.99 1186.63 145.88C1186.76 144.92 1186.76 143.945 1186.63 142.984C1186.63 140.915 1176 143.811 1176.69 145.742L1176.56 145.052Z" fill="#F8D0B5"/>
<path d="M1302.32 92.168H1351.57V98.432H1302.32V92.168ZM1309.67 80.72H1316.42V120.626H1350.22V126.944H1309.67V80.72ZM1323.71 79.586H1330.19V108.638H1337.64V80.126H1344.44V114.578H1323.71V79.586ZM1372.58 94.922V98.864H1398.06V94.922H1372.58ZM1372.58 86.228V90.062H1398.06V86.228H1372.58ZM1366.1 80.99H1404.81V104.048H1366.1V80.99ZM1392.72 100.646C1396.28 105.506 1403.3 109.502 1410.86 111.392C1409.4 112.688 1407.46 115.226 1406.54 116.9C1398.6 114.308 1391.58 109.124 1387.26 102.644L1392.72 100.646ZM1377.98 100.592L1383.7 102.806C1379.33 109.07 1372.04 114.362 1364.37 117.116C1363.4 115.496 1361.45 113.066 1360.05 111.77C1367.34 109.718 1374.41 105.452 1377.98 100.592ZM1374.14 110.474H1380.84V114.2C1380.84 119.384 1379.27 126.296 1368.47 130.238C1367.61 128.618 1365.45 126.188 1364.04 124.946C1373.06 122.03 1374.14 117.44 1374.14 113.984V110.474ZM1382.03 83.636H1388.56V101.456H1382.03V83.636ZM1390.61 110.582H1397.36V129.698H1390.61V110.582ZM1448.66 110.474L1454.98 107.612C1459.35 113.552 1464.38 121.274 1467.02 126.296L1460.33 129.914C1458 124.784 1452.82 116.522 1448.66 110.474ZM1432.52 80.396L1439.75 82.718C1435.76 91.574 1429.44 100.808 1423.55 106.478C1422.31 105.02 1419.45 102.212 1417.77 100.97C1423.55 96.11 1429.22 88.226 1432.52 80.396ZM1424.9 127.97C1424.47 126.566 1423.23 122.948 1422.26 121.004C1424.09 120.518 1425.5 119.06 1427.6 116.684C1429.92 114.308 1436.78 105.074 1440.99 96.11L1448.61 99.296C1443.32 108.584 1436.35 117.71 1429.76 124.136V124.298C1429.76 124.298 1424.9 126.62 1424.9 127.97ZM1424.9 127.97L1424.69 122.408L1429.01 120.032L1460 118.034C1460.33 119.978 1461.03 122.732 1461.46 124.244C1431.65 126.62 1427.71 126.836 1424.9 127.97ZM1448.39 80.45H1456.01C1458.33 88.064 1463.3 95.678 1469.99 99.782C1468.48 101.186 1466.1 104.264 1465.02 106.316C1457.95 100.862 1452.6 92.114 1449.8 84.068H1448.39V80.45ZM1442.34 80.45H1453.63V87.146H1442.34V80.45ZM1477.17 122.462H1526.64V128.186H1477.17V122.462ZM1477.93 89.36H1525.99V95.03H1477.93V89.36ZM1483.44 106.694H1520.59V124.568H1514.54V112.148H1509.95V124.568H1504.01V112.148H1499.58V124.568H1493.64V112.148H1489.16V124.568H1483.44V106.694ZM1485.92 81.584L1491.48 79.1C1493.7 81.8 1496.02 85.418 1497.1 87.794L1491.32 90.764C1490.35 88.28 1487.97 84.392 1485.92 81.584ZM1511.9 79.1L1518.48 81.098C1516.43 84.446 1514.16 87.848 1512.27 90.17L1506.87 88.334C1508.6 85.796 1510.76 81.962 1511.9 79.1ZM1506.17 99.998L1509.57 95.462C1514.76 97.244 1522.48 100.268 1526.48 102.266L1522.8 107.396C1519.13 105.29 1511.57 102.05 1506.17 99.998ZM1493.37 95.516L1497.91 98.756C1493.7 101.834 1486.46 105.83 1481.33 108.098C1480.47 106.586 1478.9 104.156 1477.55 102.806C1482.68 101.294 1489.76 98.108 1493.37 95.516ZM1533.93 134.72L1548.94 81.854H1553.21L1538.25 134.72H1533.93ZM1577.58 92.324H1581.45V104.126H1577.58V92.324ZM1584.56 121.808L1587.45 119.75C1590.86 121.346 1595.39 123.824 1597.74 125.63L1594.64 127.94C1592.49 126.176 1588.04 123.53 1584.56 121.808ZM1569.9 119.75L1573.47 121.262C1570.74 123.656 1566.62 126.218 1563.35 127.772C1562.63 127.058 1561.2 125.756 1560.32 125.126C1563.72 123.824 1567.5 121.766 1569.9 119.75ZM1568.05 99.8V102.698H1591.36V99.8H1568.05ZM1568.05 94.004V96.86H1591.36V94.004H1568.05ZM1564.31 90.938H1595.27V105.806H1564.31V90.938ZM1586.24 112.148L1589.05 110.216C1592.07 112.4 1595.52 115.634 1597.2 117.818L1594.26 120.086C1592.54 117.776 1589.13 114.374 1586.24 112.148ZM1563.6 119.456C1563.47 118.742 1562.97 117.02 1562.63 116.012C1564.1 115.886 1565.78 115.382 1568.26 114.5C1570.99 113.576 1579.43 110.09 1586.07 105.89L1589.05 108.242C1581.49 112.652 1573.68 115.76 1566.24 117.986V118.112C1566.24 118.112 1563.6 118.784 1563.6 119.456ZM1563.6 119.456V116.852L1566.03 115.592L1592.7 114.542C1592.79 115.508 1593.04 116.81 1593.25 117.566C1567.97 118.784 1565.4 118.826 1563.6 119.456ZM1565.7 112.904C1565.57 112.148 1565.03 110.468 1564.65 109.502C1565.49 109.418 1566.45 109.04 1567.59 108.494C1568.89 107.948 1572.84 105.848 1575.82 103.37L1579.22 105.092C1575.65 107.654 1571.7 109.838 1568.18 111.182V111.308C1568.18 111.308 1565.7 112.148 1565.7 112.904ZM1565.7 112.904L1565.66 110.426L1567.59 109.334L1582.12 108.62C1581.57 109.46 1580.94 110.804 1580.69 111.518C1568.34 112.274 1566.71 112.484 1565.7 112.904ZM1577.67 116.516H1581.83V124.538C1581.83 126.47 1581.41 127.436 1579.98 128.024C1578.55 128.57 1576.53 128.57 1573.76 128.57C1573.55 127.478 1572.92 126.008 1572.38 125C1574.35 125.084 1576.37 125.084 1576.95 125.042C1577.5 125 1577.67 124.916 1577.67 124.412V116.516ZM1612.11 93.248H1615.97V128.486H1612.11V93.248ZM1605.98 101.144H1620.47V104.882H1605.98V101.144ZM1612.4 102.866L1614.8 103.874C1613.16 109.838 1610.01 117.272 1606.82 121.262C1606.44 120.128 1605.51 118.49 1604.88 117.524C1607.87 114.164 1610.97 107.822 1612.4 102.866ZM1618.45 90.098L1621.14 93.164C1617.19 94.676 1611.52 95.726 1606.77 96.272C1606.61 95.432 1606.06 94.088 1605.6 93.206C1610.18 92.534 1615.38 91.4 1618.45 90.098ZM1615.64 106.646C1616.69 107.57 1620.51 111.476 1621.31 112.442L1619 115.592C1618.03 113.744 1615.13 109.796 1613.83 108.242L1615.64 106.646ZM1630.21 89.552H1634.16V102.614H1630.21V89.552ZM1621.52 91.736H1643.4V94.256H1621.52V91.736ZM1622.4 96.104H1642.35V98.54H1622.4V96.104ZM1620.26 100.43H1644.36V103.034H1620.26V100.43ZM1626.56 112.106V114.458H1638.36V112.106H1626.56ZM1626.56 116.852V119.204H1638.36V116.852H1626.56ZM1626.56 107.444V109.712H1638.36V107.444H1626.56ZM1622.99 104.84H1642.1V121.808H1622.99V104.84ZM1634.12 123.698L1636.8 121.766C1639.58 123.362 1642.89 125.336 1644.83 126.68L1641.34 128.612C1639.7 127.31 1636.76 125.294 1634.12 123.698ZM1627.69 121.598L1630.88 123.614C1628.36 125.63 1624.2 127.646 1620.8 128.738C1620.21 127.982 1619.08 126.89 1618.28 126.218C1621.68 125.21 1625.72 123.278 1627.69 121.598ZM1670.15 99.296V102.068H1683V99.296H1670.15ZM1670.15 93.836V96.608H1683V93.836H1670.15ZM1666.5 90.896H1686.83V105.008H1666.5V90.896ZM1664.52 107.57H1689.05V110.846H1664.52V107.57ZM1674.69 109.292H1678.43V126.428L1674.69 124.832V109.292ZM1669.82 116.894C1671.96 123.53 1676.41 124.496 1681.95 124.496C1683.17 124.496 1688.67 124.496 1690.31 124.412C1689.81 125.252 1689.3 126.932 1689.18 127.94H1681.83C1674.86 127.94 1670.03 126.428 1667.42 117.734L1669.82 116.894ZM1677.33 115.214H1686.91V118.406H1677.33V115.214ZM1667.17 112.526L1670.78 112.946C1669.9 119.834 1667.76 125.126 1663.98 128.528C1663.39 127.898 1661.88 126.68 1661.04 126.134C1664.69 123.236 1666.54 118.532 1667.17 112.526ZM1650.45 111.434C1653.77 110.636 1658.73 109.166 1663.52 107.738L1664.06 111.35C1659.69 112.736 1655.03 114.206 1651.38 115.298L1650.45 111.434ZM1650.87 97.826H1663.94V101.48H1650.87V97.826ZM1655.79 89.594H1659.48V123.782C1659.48 125.756 1659.11 126.806 1657.93 127.394C1656.84 128.024 1655.07 128.15 1652.43 128.15C1652.3 127.184 1651.84 125.546 1651.34 124.496C1653.06 124.538 1654.61 124.538 1655.12 124.496C1655.62 124.496 1655.79 124.328 1655.79 123.74V89.594ZM1696.11 111.518C1699.01 110.636 1703.29 109.124 1707.45 107.612L1708.16 111.182C1704.38 112.61 1700.35 114.122 1697.12 115.34L1696.11 111.518ZM1696.57 97.826H1707.49V101.48H1696.57V97.826ZM1700.94 89.552H1704.38V124.034C1704.38 125.882 1704 126.89 1702.95 127.478C1701.86 128.108 1700.27 128.192 1697.75 128.192C1697.66 127.268 1697.2 125.714 1696.74 124.706C1698.33 124.748 1699.76 124.748 1700.22 124.706C1700.73 124.706 1700.94 124.58 1700.94 124.034V89.552ZM1709.3 91.148H1718.16V94.298H1709.3V91.148ZM1717.11 91.148H1717.74L1718.37 91.022L1720.47 91.778C1718.54 99.296 1713.83 104.42 1708.2 107.024C1707.78 106.184 1706.9 104.882 1706.23 104.21C1711.19 102.194 1715.6 97.532 1717.11 91.652V91.148ZM1708.62 97.742L1710.68 95.6C1712.19 96.608 1714.17 98.12 1715.09 99.086L1712.99 101.48C1712.07 100.43 1710.14 98.792 1708.62 97.742ZM1724.46 89.972C1726.14 96.44 1729.79 101.564 1735.84 103.664C1735.08 104.378 1734.03 105.764 1733.57 106.688C1726.98 104 1723.16 98.288 1721.22 90.518L1724.46 89.972ZM1710.85 109.796H1715.68V106.226H1710.47V103.202H1718.91V112.82H1710.85V109.796ZM1709.51 109.796H1712.57C1712.19 112.946 1711.65 116.768 1711.19 119.162H1708.08C1708.58 116.642 1709.17 112.82 1709.51 109.796ZM1710.47 116.306H1716.81V119.162H1709.67L1710.47 116.306ZM1715.55 116.306H1718.91C1718.91 116.306 1718.87 117.23 1718.79 117.65C1718.33 123.53 1717.86 126.05 1716.9 127.058C1716.18 127.814 1715.43 128.066 1714.29 128.15C1713.41 128.276 1711.86 128.234 1710.22 128.192C1710.14 127.184 1709.76 125.882 1709.25 125.042C1710.77 125.21 1712.28 125.21 1712.91 125.21C1713.5 125.21 1713.83 125.168 1714.17 124.832C1714.8 124.244 1715.22 122.102 1715.55 116.768V116.306ZM1721.27 103.202H1724.37V107.024C1724.37 109.502 1723.83 112.4 1721.06 114.332C1720.64 113.744 1719.38 112.526 1718.79 112.106C1721.01 110.552 1721.27 108.704 1721.27 106.94V103.202ZM1723.28 103.202H1729.37V106.1H1723.28V103.202ZM1720.3 114.542H1731.18V117.356H1720.3V114.542ZM1730.21 114.542H1730.88L1731.47 114.458L1733.49 115.046C1731.6 122.438 1726.73 126.596 1720.47 128.612C1720.09 127.772 1719.38 126.47 1718.7 125.798C1724.16 124.328 1728.7 120.716 1730.21 115.004V114.542ZM1729.04 91.148L1731.39 93.206C1729.92 94.676 1728.15 96.062 1726.77 97.07L1724.88 95.264C1726.18 94.214 1728.03 92.408 1729.04 91.148ZM1732.77 95.516L1735.08 97.532C1733.49 98.918 1731.51 100.262 1730.04 101.186L1728.15 99.422C1729.54 98.414 1731.64 96.65 1732.77 95.516ZM1727.48 103.202H1730.59V109.208C1730.59 110.09 1730.63 110.342 1731.05 110.342C1731.26 110.342 1731.64 110.342 1731.93 110.342C1732.35 110.342 1733.07 110.342 1733.49 110.174C1733.57 110.93 1733.61 112.022 1733.7 112.778C1733.28 112.946 1732.61 112.946 1731.98 112.946C1731.6 112.946 1731.05 112.946 1730.59 112.946C1727.99 112.946 1727.48 111.854 1727.48 109.166V103.202ZM1720.13 118.952L1722.32 117.104C1726.01 119.918 1731.05 123.908 1733.61 126.344L1731.3 128.528C1728.87 126.008 1723.91 121.892 1720.13 118.952ZM1749.99 101.942H1772.04V105.638H1749.99V101.942ZM1744.83 110.762H1777.29V114.374H1744.83V110.762ZM1742.9 123.824H1779.31V127.478H1742.9V123.824ZM1758.86 103.664H1763.1V125.588H1758.86V103.664ZM1748.06 116.138L1751.3 114.794C1752.89 117.02 1754.61 120.128 1755.29 122.144L1751.84 123.614C1751.21 121.64 1749.62 118.448 1748.06 116.138ZM1770.45 114.794L1774.23 116.222C1772.63 118.868 1770.78 121.766 1769.31 123.656L1766.33 122.396C1767.72 120.338 1769.48 117.146 1770.45 114.794ZM1762.55 91.526C1766.5 96.02 1774.27 100.472 1781.12 102.488C1780.19 103.328 1778.97 104.924 1778.34 105.932C1771.5 103.496 1763.85 98.498 1759.28 93.164L1762.55 91.526ZM1760.79 89.132L1764.53 90.812C1759.86 97.952 1752.18 103.118 1743.86 106.142C1743.27 105.008 1742.18 103.454 1741.17 102.488C1749.11 100.052 1756.8 95.39 1760.79 89.132ZM1787.71 93.626H1805.94V100.976H1802.87V96.86H1790.65V100.976H1787.71V93.626ZM1790.4 115.55H1803.92V128.402H1800.44V118.7H1793.76V128.444H1790.4V115.55ZM1791.62 124.076H1802.75V127.226H1791.62V124.076ZM1793.67 97.91L1796.78 98.498C1795.4 102.362 1793.17 105.974 1789.43 108.746C1789.01 107.906 1788.09 106.604 1787.42 106.1C1790.69 103.874 1792.71 100.766 1793.67 97.91ZM1794.43 100.724H1801.82V103.748H1793.17L1794.43 100.724ZM1800.98 100.724H1801.65L1802.24 100.598L1804.22 102.026C1801.28 109.67 1794.98 114.5 1788.51 116.978C1788.17 116.054 1787.21 114.458 1786.53 113.786C1792.79 111.77 1798.67 107.444 1800.98 101.354V100.724ZM1794.18 90.728L1797.33 89.594C1798.08 91.19 1798.97 93.332 1799.39 94.676L1796.07 96.02C1795.69 94.634 1794.85 92.408 1794.18 90.728ZM1807.07 91.442H1825.68V94.802H1807.07V91.442ZM1811.82 107.78V111.056H1820.68V107.78H1811.82ZM1811.82 113.996V117.356H1820.68V113.996H1811.82ZM1811.82 101.564V104.798H1820.68V101.564H1811.82ZM1808.29 98.414H1824.46V120.464H1808.29V98.414ZM1814.59 93.206L1818.33 93.836C1817.66 96.188 1816.9 98.666 1816.35 100.346L1813.41 99.632C1813.83 97.784 1814.34 95.096 1814.59 93.206ZM1812.83 120.8L1815.39 123.32C1812.87 125.294 1809.3 127.436 1806.48 128.78C1806.11 127.94 1805.35 126.638 1804.76 125.84C1807.41 124.622 1810.94 122.48 1812.83 120.8ZM1816.94 123.11L1819.04 120.632C1821.39 122.06 1824.54 124.328 1826.14 125.882L1823.87 128.654C1822.36 127.058 1819.25 124.664 1816.94 123.11ZM1791.62 108.116L1793.84 105.722C1797.71 107.906 1803.25 111.182 1806.15 113.198L1803.8 115.97C1801.11 113.912 1795.61 110.468 1791.62 108.116Z" fill="#594A39"/>
<path d="M1328.5 248.4C1316.6 248.4 1308.4 243.9 1302.5 238.1L1310.6 226.9C1314.8 230.9 1320 234 1325.9 234C1333.1 234 1337.6 230.1 1337.6 222.4C1337.6 214.9 1333.1 210.9 1326.7 210.9C1322.6 210.9 1320.6 211.7 1316.2 214.5L1308.4 209.4L1310.3 172.5H1352.1V187.4H1325.6L1324.5 200C1327.2 198.9 1329.4 198.5 1332.2 198.5C1344.8 198.5 1355.4 205.9 1355.4 222C1355.4 238.7 1342.8 248.4 1328.5 248.4ZM1394.84 248.4C1383.04 248.4 1374.74 244.3 1369.34 238L1377.54 226.8C1382.04 231 1387.24 234 1393.04 234C1399.94 234 1404.44 231.1 1404.44 225.5C1404.44 219.1 1401.04 215.3 1385.44 215.3V202.7C1398.14 202.7 1402.14 198.9 1402.14 193C1402.14 187.9 1399.14 185.1 1393.64 185.1C1388.64 185.1 1384.84 187.3 1380.34 191.3L1371.34 180.4C1378.24 174.6 1385.64 171.2 1394.44 171.2C1409.84 171.2 1419.94 178.4 1419.94 191.7C1419.94 199.1 1415.94 204.9 1408.04 208.1V208.6C1416.24 211.1 1422.34 217.1 1422.34 226.7C1422.34 240.6 1409.64 248.4 1394.84 248.4ZM1453.88 196.4C1453.88 204.4 1457.88 207.3 1462.88 207.3C1466.58 207.3 1470.68 205.3 1473.28 200.3C1471.88 188 1467.18 184.5 1462.58 184.5C1457.88 184.5 1453.88 187.8 1453.88 196.4ZM1460.58 248.4C1450.58 248.4 1443.38 244.2 1438.68 239.5L1448.08 228.8C1450.58 231.6 1455.18 234 1459.38 234C1466.98 234 1472.98 228.6 1473.68 212.5C1469.98 217.1 1463.78 219.8 1459.48 219.8C1446.98 219.8 1437.68 212.4 1437.68 196.4C1437.68 180.6 1448.88 171.2 1462.18 171.2C1476.28 171.2 1489.98 181.9 1489.98 208.9C1489.98 235.9 1475.78 248.4 1460.58 248.4ZM1509.71 269.7L1506.11 260.2C1514.81 257.2 1519.41 251.8 1519.31 246.3H1518.41C1512.91 246.3 1507.81 242.7 1507.81 236.3C1507.81 230.3 1512.71 226.3 1518.91 226.3C1526.71 226.3 1531.01 232.5 1531.01 242.9C1531.01 255.8 1523.61 265.5 1509.71 269.7ZM1572.37 248.4C1556.67 248.4 1545.97 235 1545.97 209.4C1545.97 183.8 1556.67 171.2 1572.37 171.2C1588.07 171.2 1598.67 183.9 1598.67 209.4C1598.67 235 1588.07 248.4 1572.37 248.4ZM1572.37 234.6C1577.67 234.6 1581.87 229.8 1581.87 209.4C1581.87 189.1 1577.67 184.8 1572.37 184.8C1567.07 184.8 1562.77 189.1 1562.77 209.4C1562.77 229.8 1567.07 234.6 1572.37 234.6ZM1639.31 248.4C1623.61 248.4 1612.91 235 1612.91 209.4C1612.91 183.8 1623.61 171.2 1639.31 171.2C1655.01 171.2 1665.61 183.9 1665.61 209.4C1665.61 235 1655.01 248.4 1639.31 248.4ZM1639.31 234.6C1644.61 234.6 1648.81 229.8 1648.81 209.4C1648.81 189.1 1644.61 184.8 1639.31 184.8C1634.01 184.8 1629.71 189.1 1629.71 209.4C1629.71 229.8 1634.01 234.6 1639.31 234.6ZM1706.25 248.4C1690.55 248.4 1679.85 235 1679.85 209.4C1679.85 183.8 1690.55 171.2 1706.25 171.2C1721.95 171.2 1732.55 183.9 1732.55 209.4C1732.55 235 1721.95 248.4 1706.25 248.4ZM1706.25 234.6C1711.55 234.6 1715.75 229.8 1715.75 209.4C1715.75 189.1 1711.55 184.8 1706.25 184.8C1700.95 184.8 1696.65 189.1 1696.65 209.4C1696.65 229.8 1700.95 234.6 1706.25 234.6Z" fill="#EEB690"/>
</svg>
