<svg width="1442" height="284" viewBox="0 0 1442 284" fill="none" xmlns="http://www.w3.org/2000/svg">
<path d="M10.999 77.38C9.09104 75.9667 7.60704 73.9527 6.54704 71.338C5.55771 68.6527 5.09837 66.1793 5.16904 63.918C5.09837 59.5367 5.45171 55.014 6.22904 50.35C7.07704 45.686 8.17237 41.34 9.51504 37.312C10.4337 34.768 11.423 32.1887 12.483 29.574C13.543 26.9593 14.6384 24.486 15.769 22.154C16.8997 19.7513 17.995 17.7373 19.055 16.112C21.2457 12.3667 23.4717 9.36333 25.733 7.102C28.065 4.84066 29.8317 3.35666 31.033 2.65C33.0117 1.66066 35.379 0.918665 38.135 0.424001C40.891 -0.141334 43.5764 -0.141334 46.191 0.424001C48.0284 0.918665 49.8304 1.62533 51.597 2.544C53.4344 3.46267 55.0244 4.59333 56.367 5.936C57.1444 6.64267 57.745 7.38466 58.169 8.162C58.593 8.93933 58.805 9.752 58.805 10.6C58.805 11.66 58.3104 12.6847 57.321 13.674C56.3317 14.6633 55.2364 15.3347 54.035 15.688C52.8337 16.0413 51.915 15.8293 51.279 15.052C50.3604 13.6387 49.477 12.5787 48.629 11.872C47.781 11.0947 46.8977 10.5293 45.979 10.176C45.2017 9.68133 44.1417 9.434 42.799 9.434C41.527 9.434 40.149 9.68133 38.665 10.176C37.181 10.6 35.7677 11.3773 34.425 12.508C33.9304 12.932 33.259 13.5327 32.411 14.31C31.6337 15.0873 30.7857 16.0413 29.867 17.172C29.019 18.232 28.2417 19.398 27.535 20.67C25.5564 23.9207 23.8604 27.242 22.447 30.634C21.1044 33.9553 19.903 37.5947 18.843 41.552C18.3484 43.1773 17.8184 45.1913 17.253 47.594C16.6877 49.926 16.1577 52.258 15.663 54.59C15.239 56.922 14.9564 58.9713 14.815 60.738C14.603 63.2113 14.6737 65.1547 15.027 66.568C15.3804 67.9813 16.1224 68.9353 17.253 69.43C18.3837 69.854 19.9737 69.8187 22.023 69.324C23.8604 68.9 25.6977 68.1933 27.535 67.204C29.443 66.144 31.2804 64.8367 33.047 63.282C34.8137 61.6567 36.4037 59.7487 37.817 57.558C39.089 55.1553 40.1137 52.9647 40.891 50.986C41.739 49.0073 42.163 47.4527 42.163 46.322C42.2337 45.1207 41.633 44.5553 40.361 44.626C37.4637 44.6967 35.1317 44.5907 33.365 44.308C31.669 44.0253 30.503 43.3187 29.867 42.188C28.9484 41.976 28.4537 41.1987 28.383 39.856C28.383 38.5133 29.0544 37.418 30.397 36.57C31.5984 35.934 33.259 35.5453 35.379 35.404C37.499 35.2627 39.6544 35.3333 41.845 35.616C44.1064 35.828 45.9084 36.3227 47.251 37.1C48.8057 37.8773 49.8657 39.0433 50.431 40.598C51.067 42.082 51.385 43.672 51.385 45.368C51.4557 47.064 51.3497 48.654 51.067 50.138C50.431 52.6113 49.5477 55.014 48.417 57.346C47.357 59.678 45.9084 62.0453 44.071 64.448C43.011 65.932 41.5624 67.4867 39.725 69.112C37.8877 70.7373 35.9444 72.186 33.895 73.458C31.9164 74.8007 30.0437 75.8607 28.277 76.638C25.4504 77.91 22.4824 78.8287 19.373 79.394C16.3344 79.9593 13.543 79.288 10.999 77.38Z" fill="#B8C318"/>
<path d="M67.6179 69.642C66.9819 69.1473 66.2753 68.5113 65.4979 67.734C64.7913 66.9567 64.5439 65.8613 64.7559 64.448C64.9679 62.4693 65.2506 60.738 65.6039 59.254C65.9573 57.6993 66.3813 55.9327 66.8759 53.954C67.0173 53.106 67.3706 51.6573 67.9359 49.608C68.5719 47.5587 69.3139 45.3327 70.1619 42.93C71.0099 40.5273 71.8933 38.266 72.8119 36.146C73.7306 33.9553 74.5433 32.33 75.2499 31.27C76.0273 30.5633 77.1579 30.21 78.6419 30.21C80.1966 30.21 81.2566 30.4927 81.8219 31.058C82.5993 31.694 82.8466 32.8247 82.5639 34.45C82.2813 36.0047 81.2919 38.4427 79.5959 41.764C79.2426 42.612 78.7833 43.5307 78.2179 44.52C77.7233 45.4387 77.3699 46.216 77.1579 46.852C76.9459 47.4173 77.0166 47.6647 77.3699 47.594C77.794 46.8167 78.5713 45.9333 79.7019 44.944C80.8326 43.884 82.0339 42.8593 83.3059 41.87C84.5779 40.8807 85.7793 39.9973 86.91 39.22C88.0406 38.4427 88.8179 37.948 89.2419 37.736C89.8073 37.3827 90.4433 37.1 91.1499 36.888C91.9273 36.6053 92.4573 36.3933 92.7399 36.252C94.3653 35.4747 96.132 35.192 98.0399 35.404C100.019 35.5453 101.22 36.146 101.644 37.206C101.715 37.7713 101.927 38.1953 102.28 38.478C102.704 38.7607 102.916 38.902 102.916 38.902C103.199 38.902 103.34 39.008 103.34 39.22C103.411 39.432 103.446 39.538 103.446 39.538C103.446 40.0327 102.951 40.7393 101.962 41.658C101.043 42.5767 100.019 43.0713 98.8879 43.142C97.9693 43.2127 97.1566 43.3893 96.45 43.672C95.7433 43.9547 94.8953 44.308 93.9059 44.732C91.2206 46.2867 88.7826 47.6647 86.5919 48.866C84.4719 50.0673 82.2813 51.9047 80.0199 54.378C79.5253 54.9433 78.9953 55.4733 78.4299 55.968C77.8646 56.4627 77.2993 57.1693 76.7339 58.088C76.3806 58.4413 76.0273 59.2187 75.6739 60.42C75.3206 61.6213 75.0026 62.7873 74.7199 63.918C74.5079 64.978 74.4019 65.614 74.4019 65.826C74.4019 65.826 74.2959 66.1793 74.0839 66.886C73.8719 67.522 73.5186 68.158 73.0239 68.794C72.1759 69.9247 71.3279 70.6313 70.4799 70.914C69.7026 71.1967 68.7486 70.7727 67.6179 69.642Z" fill="#B8C318"/>
<path d="M132.739 70.384C130.619 71.5853 128.358 72.292 125.955 72.504C123.623 72.6453 121.433 72.3273 119.383 71.55C117.334 70.702 115.673 69.4653 114.401 67.84C113.695 66.9213 113.023 65.4727 112.387 63.494C111.751 61.4447 111.645 58.6887 112.069 55.226C112.493 51.9753 113.483 48.6893 115.037 45.368C116.663 42.0467 118.641 39.114 120.973 36.57C123.305 34.026 125.849 32.2947 128.605 31.376C129.595 31.0227 130.584 30.7753 131.573 30.634C132.633 30.422 134.011 30.3867 135.707 30.528C137.333 30.74 138.781 31.164 140.053 31.8C141.325 32.3653 142.244 33.0013 142.809 33.708C143.94 34.8387 144.682 35.934 145.035 36.994C145.389 38.054 145.53 39.0787 145.459 40.068C145.106 42.3293 144.081 44.7673 142.385 47.382C140.76 49.9967 138.463 51.94 135.495 53.212C134.294 53.7067 132.881 54.0247 131.255 54.166C129.63 54.3073 127.404 54.0953 124.577 53.53C122.881 53.1767 121.751 53.3533 121.185 54.06C120.691 54.7667 120.479 56.1447 120.549 58.194C120.691 59.466 120.973 60.5967 121.397 61.586C121.892 62.5047 122.775 63.1407 124.047 63.494C125.673 63.7767 126.839 63.812 127.545 63.6C128.252 63.3173 129.135 62.9287 130.195 62.434C130.761 62.0807 131.291 61.692 131.785 61.268C132.351 60.844 132.881 60.42 133.375 59.996C133.941 59.572 134.4 59.254 134.753 59.042C135.107 58.7593 135.46 58.5827 135.813 58.512C136.167 58.4413 136.52 58.406 136.873 58.406C137.651 58.4767 138.393 58.9007 139.099 59.678C139.806 60.4553 140.265 61.1973 140.477 61.904C140.477 62.4693 140.124 63.282 139.417 64.342C138.711 65.3313 137.757 66.3913 136.555 67.522C135.425 68.582 134.153 69.536 132.739 70.384ZM131.361 46.746C131.856 46.534 132.563 46.0393 133.481 45.262C134.471 44.4847 135.354 43.672 136.131 42.824C136.909 41.9053 137.297 41.1987 137.297 40.704C137.297 39.9267 136.767 39.2553 135.707 38.69C134.718 38.1247 133.411 38.0187 131.785 38.372C131.22 38.5133 130.549 38.902 129.771 39.538C128.994 40.174 128.217 40.916 127.439 41.764C126.662 42.5413 125.991 43.3187 125.425 44.096C124.86 44.8027 124.471 45.368 124.259 45.792C124.542 46.1453 125.107 46.428 125.955 46.64C126.803 46.852 127.722 46.958 128.711 46.958C129.771 46.958 130.655 46.8873 131.361 46.746Z" fill="#B8C318"/>
<path d="M166.87 74.412C162.983 74.412 159.98 73.2813 157.86 71.02C155.81 68.7587 154.786 65.296 154.786 60.632C154.786 58.088 155.245 55.2967 156.164 52.258C157.153 49.2193 158.425 46.2513 159.98 43.354C161.605 40.4567 163.372 37.948 165.28 35.828C167.188 33.6373 169.096 32.118 171.004 31.27C171.71 30.9167 172.452 30.6693 173.23 30.528C174.078 30.316 174.89 30.21 175.668 30.21C176.516 30.21 177.434 30.2807 178.424 30.422C179.484 30.4927 180.473 30.7047 181.392 31.058C183.017 31.5527 184.43 32.5067 185.632 33.92C186.904 35.3333 187.54 37.3827 187.54 40.068C187.54 40.7747 187.469 41.552 187.328 42.4C187.186 43.1773 186.939 43.9547 186.586 44.732C185.667 47.064 184.254 49.29 182.346 51.41C180.508 53.53 178.565 55.014 176.516 55.862C175.95 56.1447 175.385 56.3567 174.82 56.498C174.325 56.5687 173.795 56.604 173.23 56.604C171.746 56.604 170.403 56.392 169.202 55.968C168.071 55.544 167.011 54.9787 166.022 54.272L165.174 53.53L164.644 54.59C164.149 55.9327 163.796 57.0633 163.584 57.982C163.442 58.9007 163.372 59.572 163.372 59.996C163.372 60.844 163.407 61.7273 163.478 62.646C163.548 63.494 163.76 64.2007 164.114 64.766C164.396 65.1193 164.75 65.402 165.174 65.614C165.668 65.826 166.269 65.932 166.976 65.932C167.4 65.932 167.788 65.932 168.142 65.932C168.566 65.8613 168.919 65.7907 169.202 65.72C170.474 65.4373 171.498 64.978 172.276 64.342C173.124 63.6353 174.007 63.0347 174.926 62.54L175.35 62.328L175.244 62.01C176.445 61.374 177.258 60.9853 177.682 60.844C178.106 60.632 178.424 60.4553 178.636 60.314C178.918 60.0313 179.236 59.89 179.59 59.89C180.579 59.7487 181.533 60.0313 182.452 60.738C183.441 61.374 183.936 62.1867 183.936 63.176C183.936 63.6 183.618 64.2713 182.982 65.19C182.416 66.1087 181.674 67.0273 180.756 67.946C179.908 68.794 179.024 69.4653 178.106 69.96C177.894 70.0307 177.682 70.1367 177.47 70.278C177.258 70.3487 177.046 70.4547 176.834 70.596H176.94C176.304 71.444 175.668 71.868 175.032 71.868H174.184C173.901 72.3627 172.982 72.8927 171.428 73.458C169.873 74.094 168.354 74.412 166.87 74.412ZM172.382 48.866C173.018 48.866 173.583 48.76 174.078 48.548C174.643 48.336 175.173 48.0887 175.668 47.806C177.364 46.6047 178.459 45.05 178.954 43.142C179.448 41.234 179.272 39.7853 178.424 38.796C178.282 38.584 178.106 38.4427 177.894 38.372C177.682 38.2307 177.434 38.16 177.152 38.16C176.374 38.16 175.491 38.4073 174.502 38.902C173.583 39.3967 172.664 40.1033 171.746 41.022C170.827 41.9407 169.979 43.036 169.202 44.308L167.824 46.534C167.965 46.4633 168.071 46.428 168.142 46.428C168.283 46.3573 168.389 46.322 168.46 46.322C169.096 46.322 169.52 46.534 169.732 46.958C169.944 47.382 170.191 47.806 170.474 48.23C170.827 48.654 171.463 48.866 172.382 48.866Z" fill="#B8C318"/>
<path d="M233.86 72.08C232.8 72.08 231.775 71.762 230.786 71.126C229.797 70.4193 228.984 69.4653 228.348 68.264C227.712 66.992 227.394 65.508 227.394 63.812C227.394 62.752 227.571 61.268 227.924 59.36C228.348 57.3813 228.949 54.908 229.726 51.94C229.867 50.9507 229.973 50.3147 230.044 50.032C230.185 49.7493 230.256 49.4667 230.256 49.184C230.256 49.0427 230.221 48.9367 230.15 48.866C230.15 48.7247 230.079 48.654 229.938 48.654C229.373 48.654 228.595 49.0427 227.606 49.82C226.687 50.5267 225.627 51.3747 224.426 52.364C224.214 52.5053 223.967 52.682 223.684 52.894C223.472 53.106 223.225 53.318 222.942 53.53C222.73 53.742 222.483 53.954 222.2 54.166C221.493 54.59 220.398 55.4027 218.914 56.604C217.501 57.8053 216.017 59.0773 214.462 60.42C212.978 61.7627 211.671 62.8933 210.54 63.812C209.975 64.236 209.48 64.5893 209.056 64.872C208.703 65.1547 208.455 65.296 208.314 65.296C208.173 65.296 207.607 65.1193 206.618 64.766C205.699 64.342 204.781 63.7767 203.862 63.07C203.014 62.2927 202.59 61.4093 202.59 60.42C202.59 59.784 202.837 58.512 203.332 56.604C203.897 54.696 204.675 52.4347 205.664 49.82C206.653 47.2053 207.784 44.5553 209.056 41.87C209.339 41.234 209.551 40.386 209.692 39.326C209.833 38.266 209.975 37.2413 210.116 36.252C210.328 35.192 210.681 34.4147 211.176 33.92C211.388 33.5667 211.635 33.3193 211.918 33.178C212.271 32.966 212.625 32.86 212.978 32.86C213.685 32.86 214.356 33.0367 214.992 33.39C215.628 33.6727 216.229 34.1673 216.794 34.874C217.854 36.0047 218.419 37.3473 218.49 38.902C218.631 40.386 218.525 41.8347 218.172 43.248C217.819 44.6613 217.43 45.8273 217.006 46.746C216.582 47.594 216.37 47.9473 216.37 47.806C216.653 47.6647 217.041 47.3113 217.536 46.746C218.101 46.1807 219.055 45.5093 220.398 44.732C222.235 43.3187 223.649 42.3293 224.638 41.764C225.627 41.128 226.369 40.6687 226.864 40.386C227.429 40.1033 227.924 39.7853 228.348 39.432C228.701 39.1493 228.949 38.9727 229.09 38.902C229.302 38.8313 229.408 38.796 229.408 38.796C229.62 38.796 229.973 38.6547 230.468 38.372C231.033 38.0893 231.563 37.948 232.058 37.948C232.765 37.948 233.507 38.1247 234.284 38.478C235.061 38.7607 235.733 39.1847 236.298 39.75C236.863 40.2447 237.146 40.7747 237.146 41.34C237.146 41.552 237.217 41.7287 237.358 41.87C237.499 42.0113 237.641 42.188 237.782 42.4C238.135 42.824 238.524 43.4247 238.948 44.202C239.443 44.9087 239.69 46.0747 239.69 47.7C239.69 48.8307 239.443 50.4913 238.948 52.682C238.453 54.8727 237.923 57.028 237.358 59.148C236.793 61.3387 236.51 63.1053 236.51 64.448C236.581 65.72 236.722 66.7093 236.934 67.416C237.146 68.052 237.252 68.582 237.252 69.006C237.252 69.5713 236.969 70.2427 236.404 71.02C235.839 71.7267 234.991 72.08 233.86 72.08Z" fill="#B8C318"/>
<path d="M314.014 77.91C312.883 77.9807 311.258 77.91 309.138 77.698C307.089 77.486 304.898 76.956 302.566 76.108C300.305 75.26 298.255 74.0233 296.418 72.398C294.651 70.702 293.485 68.4407 292.92 65.614C292.072 61.6567 291.895 57.346 292.39 52.682C292.885 48.018 293.733 43.4247 294.934 38.902C295.287 37.63 295.959 36.0047 296.948 34.026C297.937 31.9767 299.103 29.786 300.446 27.454C301.859 25.122 303.308 22.8607 304.792 20.67C306.276 18.4087 307.654 16.4653 308.926 14.84C309.845 13.78 311.011 12.5787 312.424 11.236C313.908 9.82267 315.427 8.48 316.982 7.208C318.607 5.86533 320.056 4.73466 321.328 3.816C322.671 2.82666 323.625 2.226 324.19 2.014C325.109 1.59 326.027 1.34267 326.946 1.272C327.865 1.13066 328.96 1.23667 330.232 1.59C331.221 1.66066 332.281 2.014 333.412 2.65C334.543 3.21533 335.532 3.85133 336.38 4.558C337.228 5.26466 337.687 5.936 337.758 6.572C337.829 6.996 338.606 6.96066 340.09 6.466C340.585 5.90066 341.327 5.47666 342.316 5.194C343.305 4.84066 344.224 4.664 345.072 4.664C345.92 4.59333 346.379 4.80533 346.45 5.3C346.026 5.936 346.097 6.50133 346.662 6.996C346.874 6.92533 346.909 7.42 346.768 8.48C346.627 9.54 346.379 10.7767 346.026 12.19C345.673 13.5327 345.249 14.5927 344.754 15.37C344.754 15.37 344.683 15.5467 344.542 15.9C344.471 16.2533 344.436 16.43 344.436 16.43C344.577 16.7833 344.507 17.1367 344.224 17.49C343.941 17.8433 343.694 18.1613 343.482 18.444C343.27 18.7973 342.987 19.5393 342.634 20.67C342.351 21.73 342.033 22.9667 341.68 24.38C341.397 25.7227 341.15 26.9593 340.938 28.09C340.726 29.15 340.62 29.8567 340.62 30.21C340.761 30.7047 340.125 30.9873 338.712 31.058C337.369 31.058 336.097 30.846 334.896 30.422C333.341 29.8567 332.352 29.1147 331.928 28.196C331.575 27.2773 331.787 25.4753 332.564 22.79C333.553 19.5393 334.119 17.1367 334.26 15.582C334.401 14.0273 333.977 12.8613 332.988 12.084C332.635 11.448 331.857 11.0593 330.656 10.918C329.455 10.706 328.465 10.8473 327.688 11.342C326.628 11.766 325.179 12.7553 323.342 14.31C321.505 15.794 319.597 17.5607 317.618 19.61C315.639 21.6593 313.873 23.7793 312.318 25.97C309.067 30.4927 306.594 35.0153 304.898 39.538C303.202 44.0607 302.248 48.4067 302.036 52.576C301.824 56.7453 302.319 60.6673 303.52 64.342C303.661 64.6247 304.085 65.2253 304.792 66.144C305.499 67.0627 306.064 67.6633 306.488 67.946C308.679 68.4407 311.823 68.476 315.922 68.052C318.961 67.4867 321.187 66.6387 322.6 65.508C324.084 64.3773 325.497 62.8227 326.84 60.844C327.617 59.7133 328.465 59.254 329.384 59.466C330.303 59.6073 331.115 60.1727 331.822 61.162C332.529 62.0807 332.953 63.176 333.094 64.448C333.094 64.8013 332.776 65.5433 332.14 66.674C331.575 67.734 330.903 68.7587 330.126 69.748C329.419 70.7373 328.854 71.3027 328.43 71.444C328.147 71.5147 327.971 71.5853 327.9 71.656C327.9 71.7267 327.935 71.9387 328.006 72.292C328.006 72.5747 327.547 72.9987 326.628 73.564C325.709 74.1293 324.543 74.6947 323.13 75.26C321.717 75.896 320.197 76.426 318.572 76.85C316.947 77.3447 315.427 77.698 314.014 77.91Z" fill="#B8C318"/>
<path d="M362.266 73.458C361.348 73.5287 360.606 73.4227 360.04 73.14C359.475 72.928 358.768 72.5747 357.92 72.08C356.366 70.8787 355.058 69.3947 353.998 67.628C353.009 65.8613 352.55 64.3773 352.62 63.176C352.762 62.54 352.762 61.9747 352.62 61.48C352.55 60.9853 352.514 60.738 352.514 60.738C352.09 60.3847 351.949 60.1727 352.09 60.102C352.232 59.9607 352.338 59.7487 352.408 59.466C352.974 59.3247 353.044 58.936 352.62 58.3C352.408 57.7347 352.514 56.4627 352.938 54.484C353.433 52.4347 354.069 50.5267 354.846 48.76C355.2 47.9827 355.694 46.958 356.33 45.686C357.037 44.414 357.814 43.142 358.662 41.87C359.51 40.5273 360.288 39.4673 360.994 38.69C362.549 36.9233 363.927 35.4747 365.128 34.344C366.4 33.2133 367.814 32.3653 369.368 31.8C370.782 31.2347 372.195 30.9873 373.608 31.058C375.092 31.1287 376.4 31.6233 377.53 32.542C379.226 33.0367 380.746 33.814 382.088 34.874C383.431 35.8633 384.35 37.2767 384.844 39.114C385.41 41.1633 385.586 43.6013 385.374 46.428C385.233 49.184 384.032 52.7527 381.77 57.134C380.428 59.89 379.085 62.116 377.742 63.812C376.47 65.508 374.916 67.1333 373.078 68.688C371.736 69.8187 370.004 70.808 367.884 71.656C365.764 72.504 363.892 73.1047 362.266 73.458ZM371.488 57.452C372.407 56.18 373.114 54.9433 373.608 53.742C374.174 52.5407 374.704 50.88 375.198 48.76C375.41 47.9827 375.516 47.0287 375.516 45.898C375.587 44.7673 375.552 43.7427 375.41 42.824C375.34 41.8347 375.092 41.3047 374.668 41.234C373.75 40.8807 372.796 40.8807 371.806 41.234C370.888 41.5167 369.792 42.3647 368.52 43.778C367.39 45.05 366.471 46.2513 365.764 47.382C365.128 48.442 364.528 49.7493 363.962 51.304C363.468 52.788 362.902 54.7313 362.266 57.134C361.701 59.466 361.666 61.3387 362.16 62.752C362.726 64.1653 363.786 64.554 365.34 63.918C366.895 63.282 368.944 61.1267 371.488 57.452Z" fill="#B8C318"/>
<path d="M404.275 68.9C403.992 68.9 403.321 68.6527 402.261 68.158C401.201 67.5927 400.529 67.1687 400.247 66.886C399.752 66.3207 399.434 65.72 399.293 65.084C399.151 64.3773 399.081 63.0347 399.081 61.056C399.081 58.7947 399.54 56.2507 400.459 53.424C401.377 50.5267 402.932 46.6753 405.123 41.87L409.469 33.072C409.822 32.5773 410.14 32.1533 410.423 31.8C410.705 31.376 411.023 30.9873 411.377 30.634C411.518 30.634 411.695 30.634 411.907 30.634C412.189 30.634 412.401 30.6693 412.543 30.74C413.179 30.8107 414.168 31.1993 415.511 31.906C416.924 32.6127 417.772 33.6727 418.055 35.086C418.055 36.0047 417.913 37.1 417.631 38.372C417.348 39.5733 416.5 41.1633 415.087 43.142C414.521 43.8487 413.956 44.8733 413.391 46.216C412.896 47.5587 412.437 48.8307 412.013 50.032C411.942 50.1733 411.73 50.5267 411.377 51.092C411.094 51.5867 410.811 52.1167 410.529 52.682C410.246 53.1767 410.105 53.4947 410.105 53.636L409.681 54.59L414.239 50.138C417.419 46.958 420.104 44.6967 422.295 43.354C424.485 42.0113 426.323 41.446 427.807 41.658C429.361 41.87 430.598 42.7533 431.517 44.308C432.011 45.0147 432.365 45.792 432.577 46.64C432.789 47.4173 432.93 48.336 433.001 49.396C433.071 50.456 433.036 51.7987 432.895 53.424V59.466C434.237 59.1127 435.262 58.83 435.969 58.618C436.675 58.3353 437.382 58.088 438.089 57.876C438.654 57.7347 439.219 57.5933 439.785 57.452C440.421 57.3107 441.198 57.2047 442.117 57.134C442.046 58.0527 441.657 59.1833 440.951 60.526C440.244 61.8687 439.361 63.2113 438.301 64.554C437.311 65.8967 436.216 67.0273 435.015 67.946C433.884 68.8647 432.824 69.324 431.835 69.324C430.916 69.324 429.856 69.0413 428.655 68.476C427.453 67.84 426.429 66.6387 425.581 64.872C425.298 63.9533 425.015 62.8933 424.733 61.692C424.45 60.4907 424.309 59.2187 424.309 57.876V53.212C424.309 52.788 424.273 52.5053 424.203 52.364C424.203 52.152 424.167 52.046 424.097 52.046C423.814 52.046 422.895 52.788 421.341 54.272C419.857 55.756 418.337 57.3107 416.783 58.936C413.532 62.328 410.811 64.8367 408.621 66.462C406.501 68.0873 405.052 68.9 404.275 68.9Z" fill="#B8C318"/>
<path d="M461.513 73.14C459.11 72.1507 457.344 71.126 456.213 70.066C455.153 68.9353 454.729 67.946 454.941 67.098C455.082 66.674 455.33 66.2853 455.683 65.932C456.036 65.5787 456.814 65.4373 458.015 65.508C459.287 65.508 461.23 65.826 463.845 66.462C464.622 66.462 465.4 66.4267 466.177 66.356C466.954 66.2853 467.661 66.1793 468.297 66.038C469.004 65.8967 469.569 65.72 469.993 65.508C470.346 65.3667 470.452 65.19 470.311 64.978C470.17 64.6953 469.922 64.4127 469.569 64.13C469.286 63.7767 468.968 63.5647 468.615 63.494C468.262 63.3527 467.944 63.282 467.661 63.282C467.52 62.9287 467.202 62.5753 466.707 62.222C466.283 61.8687 465.753 61.48 465.117 61.056C463.562 59.784 462.149 58.6533 460.877 57.664C459.605 56.6747 459.11 55.9327 459.393 55.438C459.393 55.1553 459.393 55.014 459.393 55.014C459.393 54.9433 459.393 54.908 459.393 54.908C458.898 54.908 458.439 54.2367 458.015 52.894C457.591 51.4807 457.379 50.2087 457.379 49.078C457.379 47.6647 457.662 46.2513 458.227 44.838C458.863 43.4247 459.64 42.082 460.559 40.81C461.548 39.538 462.538 38.4073 463.527 37.418C464.87 36.146 466.283 34.9093 467.767 33.708C469.322 32.436 470.982 31.3053 472.749 30.316C474.586 29.3267 476.6 28.5493 478.791 27.984C479.78 27.772 480.911 27.666 482.183 27.666C483.455 27.666 484.374 27.8427 484.939 28.196C485.504 27.8427 486.211 27.9487 487.059 28.514C487.907 29.0087 488.755 29.7153 489.603 30.634C490.451 31.5527 491.087 32.4713 491.511 33.39C491.511 34.238 491.476 35.298 491.405 36.57C491.405 37.7713 491.334 38.8313 491.193 39.75C491.052 40.6687 490.734 41.128 490.239 41.128C490.239 41.128 490.133 41.1633 489.921 41.234C489.78 41.234 489.709 41.4107 489.709 41.764C489.709 42.4707 489.179 43.2833 488.119 44.202C486.776 45.1207 485.504 45.8627 484.303 46.428C483.102 46.9933 482.183 47.0287 481.547 46.534C481.123 46.2513 480.734 45.9687 480.381 45.686C480.028 45.4033 479.71 45.05 479.427 44.626C479.427 44.626 479.321 44.4847 479.109 44.202C478.968 43.8487 478.897 43.5307 478.897 43.248C478.897 42.9653 479.003 42.718 479.215 42.506C479.427 42.2233 479.533 42.082 479.533 42.082C480.522 41.1633 481.264 40.3153 481.759 39.538C482.324 38.7607 482.713 38.0893 482.925 37.524C483.137 36.888 483.243 36.3933 483.243 36.04C483.243 35.616 483.137 35.3687 482.925 35.298C482.784 35.1567 482.43 35.086 481.865 35.086C481.512 35.086 480.734 35.3687 479.533 35.934C478.402 36.4993 477.201 37.206 475.929 38.054C474.657 38.8313 473.668 39.538 472.961 40.174C472.678 40.6687 472.466 40.9867 472.325 41.128C472.254 41.2693 472.078 41.34 471.795 41.34C471.795 41.0573 471.618 41.0927 471.265 41.446C470.912 41.7993 470.488 42.294 469.993 42.93C469.498 43.566 469.004 44.2373 468.509 44.944C468.014 45.6507 467.626 46.216 467.343 46.64C467.272 47.276 467.096 47.8767 466.813 48.442C466.601 48.9367 466.53 49.4667 466.601 50.032C466.672 50.7387 467.025 51.41 467.661 52.046C468.297 52.682 469.216 53.4947 470.417 54.484C472.89 56.3213 474.728 57.77 475.929 58.83C477.201 59.89 478.084 60.738 478.579 61.374C479.074 62.01 479.392 62.646 479.533 63.282C480.734 65.4727 480.876 67.3807 479.957 69.006C479.038 70.5607 477.625 71.762 475.717 72.61C475.01 72.9633 473.774 73.2813 472.007 73.564C470.24 73.9173 468.368 74.0587 466.389 73.988C464.481 73.988 462.856 73.7053 461.513 73.14Z" fill="#B8C318"/>
<path d="M526.45 72.292C525.743 71.5853 525.178 70.6313 524.754 69.43C524.33 68.158 523.906 66.7093 523.482 65.084C523.34 64.5187 523.27 63.8827 523.27 63.176C523.34 62.4693 523.34 61.904 523.27 61.48C523.058 61.9747 522.704 62.6107 522.21 63.388C521.786 64.1653 521.362 64.7307 520.938 65.084C520.655 65.3667 520.019 65.932 519.03 66.78C518.04 67.5573 517.051 68.1933 516.062 68.688C513.73 70.172 511.645 70.8787 509.808 70.808C508.041 70.6667 506.486 69.748 505.144 68.052C504.013 67.1333 503.094 65.9673 502.388 64.554C501.681 63.1407 501.54 61.4447 501.964 59.466C502.105 56.9927 502.458 54.59 503.024 52.258C503.589 49.8553 504.755 46.6753 506.522 42.718C508.006 39.8207 509.136 37.5593 509.914 35.934C510.691 34.3087 511.186 33.3547 511.398 33.072C512.458 32.7187 513.765 32.754 515.32 33.178C516.874 33.5313 517.722 34.2027 517.864 35.192C518.288 35.8987 518.288 37.2413 517.864 39.22C517.44 41.128 516.592 43.3187 515.32 45.792C514.33 48.1947 513.376 50.5267 512.458 52.788C511.61 55.0493 511.08 56.9573 510.868 58.512C510.726 60.0667 511.15 61.0207 512.14 61.374C512.776 61.7273 513.694 61.692 514.896 61.268C516.168 60.844 517.652 59.572 519.348 57.452C521.044 55.332 522.846 51.9753 524.754 47.382C525.319 45.9687 525.743 44.732 526.026 43.672C526.308 42.5413 526.485 41.3047 526.556 39.962C526.414 39.114 526.626 38.2307 527.192 37.312C527.828 36.3933 528.57 35.6867 529.418 35.192C529.7 34.8387 530.089 34.5207 530.584 34.238C531.078 33.8847 531.396 33.8847 531.538 34.238L533.234 34.132C533.516 34.0613 533.834 34.344 534.188 34.98C534.541 35.616 534.894 36.0753 535.248 36.358C536.025 36.994 536.378 38.372 536.308 40.492C536.237 42.612 535.389 45.58 533.764 49.396C532.421 52.2933 531.502 54.484 531.008 55.968C530.584 57.452 530.336 58.9007 530.266 60.314C530.266 61.586 530.372 62.6813 530.584 63.6C530.796 64.448 531.432 65.3313 532.492 66.25C533.269 66.7447 533.693 67.5927 533.764 68.794C533.905 69.9247 533.94 70.914 533.87 71.762C533.728 72.398 533.163 72.822 532.174 73.034C531.255 73.3167 530.23 73.3873 529.1 73.246C528.04 73.1047 527.156 72.7867 526.45 72.292Z" fill="#B8C318"/>
<path d="M552.114 68.582C551.902 68.2993 551.443 67.946 550.736 67.522C550.029 67.098 549.676 66.7447 549.676 66.462C549.676 66.3207 549.641 66.144 549.57 65.932C549.57 65.72 549.429 65.614 549.146 65.614C548.934 65.402 549.04 64.6247 549.464 63.282C549.959 61.9393 550.595 60.3493 551.372 58.512C552.22 56.6747 553.103 54.908 554.022 53.212C554.941 51.4453 555.718 50.032 556.354 48.972C556.707 48.76 556.919 48.4773 556.99 48.124C557.131 47.7 557.131 47.488 556.99 47.488C556.99 47.488 557.167 47.17 557.52 46.534C557.944 45.8273 558.262 45.368 558.474 45.156C559.039 44.1667 559.463 43.1773 559.746 42.188C560.029 41.128 560.099 40.2447 559.958 39.538C559.675 39.1847 559.357 39.0787 559.004 39.22C558.651 39.3613 558.474 39.432 558.474 39.432C558.191 39.5027 557.767 39.644 557.202 39.856C556.707 39.9973 556.248 40.2093 555.824 40.492C554.199 41.6227 552.997 42.188 552.22 42.188C551.513 42.188 550.807 41.34 550.1 39.644C549.817 38.8667 549.711 38.1247 549.782 37.418C549.853 36.7113 550.135 36.146 550.63 35.722C551.195 35.2273 551.902 34.7327 552.75 34.238C553.598 33.6727 554.163 33.284 554.446 33.072C555.223 32.5773 556.319 32.0473 557.732 31.482C559.145 30.9167 559.993 30.5987 560.276 30.528C562.113 29.9627 563.668 29.9627 564.94 30.528C566.212 31.0227 567.166 32.012 567.802 33.496C568.791 34.6973 569.286 35.9693 569.286 37.312C569.286 38.6547 568.791 40.3153 567.802 42.294L566.742 43.884C566.389 44.5907 566.318 44.944 566.53 44.944C566.813 44.944 567.131 44.6967 567.484 44.202C567.696 43.9193 568.12 43.4953 568.756 42.93C569.392 42.3647 569.816 42.082 570.028 42.082C570.028 42.082 570.099 42.0467 570.24 41.976C570.452 41.9053 570.558 41.6227 570.558 41.128C570.77 40.916 570.982 40.704 571.194 40.492C571.477 40.28 571.618 40.174 571.618 40.174C571.901 40.174 572.254 40.0327 572.678 39.75C573.173 39.3967 573.985 38.7607 575.116 37.842C575.893 37.2767 576.6 36.994 577.236 36.994C578.861 36.4993 580.169 37.0293 581.158 38.584C582.218 40.1387 582.748 42.1527 582.748 44.626L580.522 50.35L584.338 45.686C584.762 45.1207 585.186 44.626 585.61 44.202C586.105 43.778 586.529 43.4247 586.882 43.142C587.023 42.6473 587.235 42.3647 587.518 42.294C587.801 42.2233 587.942 42.188 587.942 42.188C587.942 42.188 588.013 42.188 588.154 42.188C588.295 42.1173 588.366 41.976 588.366 41.764C588.719 41.4813 589.108 41.234 589.532 41.022C589.956 40.7393 590.239 40.4567 590.38 40.174C591.581 39.6793 593.03 39.6087 594.726 39.962C596.422 40.2447 597.623 41.128 598.33 42.612C598.825 43.46 599.284 44.202 599.708 44.838C600.132 45.474 600.344 46.428 600.344 47.7C600.203 48.76 600.061 49.502 599.92 49.926C599.849 50.35 599.779 50.8093 599.708 51.304C599.637 51.728 599.531 52.5053 599.39 53.636C599.107 54.2013 598.931 54.802 598.86 55.438C598.86 56.074 598.86 56.6747 598.86 57.24C598.86 58.1587 598.895 58.7947 598.966 59.148C599.037 59.4307 599.319 59.572 599.814 59.572C600.803 59.36 601.616 59.042 602.252 58.618C602.959 58.1233 603.736 57.4873 604.584 56.71C605.644 55.7207 606.563 55.5793 607.34 56.286C608.188 56.922 608.718 57.664 608.93 58.512C609.071 58.7947 608.93 59.4307 608.506 60.42C608.082 61.4093 607.587 62.3633 607.022 63.282C606.457 64.2007 605.997 64.66 605.644 64.66C605.432 64.66 605.008 64.9427 604.372 65.508C603.736 66.0733 603.241 66.462 602.888 66.674C602.393 67.1687 601.899 67.628 601.404 68.052C600.98 68.476 600.485 68.688 599.92 68.688C599.637 68.688 599.284 68.794 598.86 69.006C598.507 69.1473 598.083 69.218 597.588 69.218C596.881 69.43 595.786 69.324 594.302 68.9C592.889 68.476 591.97 67.4867 591.546 65.932C591.263 65.1547 590.839 64.1653 590.274 62.964C589.779 61.7627 589.673 60.2787 589.956 58.512C590.239 57.24 590.415 56.074 590.486 55.014C590.557 53.954 590.698 53.212 590.91 52.788C590.91 52.576 590.91 52.0813 590.91 51.304C590.91 50.456 590.804 50.032 590.592 50.032C590.309 50.032 589.779 50.3853 589.002 51.092C588.225 51.7987 587.306 52.7527 586.246 53.954C585.186 55.0847 584.091 56.3213 582.96 57.664C581.9 59.0067 580.946 60.3493 580.098 61.692C579.462 62.4693 578.897 63.4233 578.402 64.554C577.907 65.6847 577.554 66.3207 577.342 66.462C576.847 67.0273 575.999 67.098 574.798 66.674C573.667 66.25 572.819 65.5787 572.254 64.66C572.042 64.236 571.795 63.9887 571.512 63.918C571.229 63.7767 570.982 63.5647 570.77 63.282C570.629 62.9287 570.629 62.2573 570.77 61.268C570.982 60.2787 571.441 58.6887 572.148 56.498C572.925 54.0953 573.597 51.94 574.162 50.032C574.798 48.0533 575.116 47.064 575.116 47.064C575.116 46.7813 574.586 47.064 573.526 47.912C572.466 48.6893 571.229 49.6787 569.816 50.88C569.18 51.6573 568.332 52.6467 567.272 53.848C566.283 55.0493 565.117 56.4627 563.774 58.088C562.502 59.7133 561.053 61.6213 559.428 63.812C557.379 66.7093 555.824 68.476 554.764 69.112C553.775 69.748 552.891 69.5713 552.114 68.582Z" fill="#B8C318"/>
<path d="M617.972 98.262C617.478 98.05 616.7 97.52 615.64 96.672C614.651 95.824 613.732 94.9053 612.884 93.916C612.107 92.9973 611.718 92.326 611.718 91.902C611.718 91.478 611.895 90.3473 612.248 88.51C612.602 86.7433 613.061 84.5527 613.626 81.938C614.262 79.394 614.934 76.7793 615.64 74.094C616.418 71.4793 617.195 69.1473 617.972 67.098C618.114 66.7447 618.573 65.5787 619.35 63.6C620.198 61.5507 621.011 59.0773 621.788 56.18C622.354 54.3427 623.096 52.258 624.014 49.926C624.933 47.594 625.887 45.262 626.876 42.93C627.866 40.5273 628.678 38.4073 629.314 36.57C629.95 34.7327 630.657 32.8953 631.434 31.058C632.212 29.15 632.636 28.0547 632.706 27.772C632.848 27.348 633.236 26.9947 633.872 26.712C634.579 26.3587 635.286 26.076 635.992 25.864C636.699 25.5813 637.158 25.4047 637.37 25.334C638.642 24.9807 639.738 25.5107 640.656 26.924C641.01 27.56 641.08 28.4433 640.868 29.574C640.727 30.634 640.374 31.8 639.808 33.072L639.066 35.192L642.882 34.344C643.518 34.344 644.402 34.3793 645.532 34.45C646.663 34.5207 647.758 34.5913 648.818 34.662C649.949 34.7327 650.726 34.8387 651.15 34.98C652.846 35.0507 654.012 35.3687 654.648 35.934C655.355 36.4993 655.956 37.2413 656.45 38.16C656.804 38.5133 657.228 39.008 657.722 39.644C658.217 40.2093 658.5 40.7747 658.57 41.34C658.853 42.5413 658.747 43.9547 658.252 45.58C657.828 47.2053 657.157 48.866 656.238 50.562C655.39 52.1873 654.366 53.7067 653.164 55.12C652.034 56.4627 650.938 57.4873 649.878 58.194C649.172 58.4767 648.536 58.7947 647.97 59.148C647.405 59.4307 647.122 59.572 647.122 59.572C647.052 59.9253 646.31 60.526 644.896 61.374C643.554 62.222 641.964 63.0347 640.126 63.812C638.36 64.5187 636.77 64.978 635.356 65.19C634.862 65.2607 634.155 65.3313 633.236 65.402C632.318 65.4727 631.611 65.3667 631.116 65.084C630.339 64.9427 629.809 64.872 629.526 64.872C629.244 64.872 629.102 65.0133 629.102 65.296C629.032 65.4373 628.537 66.568 627.618 68.688C626.7 70.808 625.746 73.7407 624.756 77.486C623.414 81.5847 622.318 84.9413 621.47 87.556C620.622 90.2413 619.951 92.326 619.456 93.81C619.032 95.294 618.714 96.354 618.502 96.99C618.29 97.6967 618.114 98.1207 617.972 98.262ZM631.646 55.968C631.858 56.392 632.6 56.5333 633.872 56.392C635.144 56.18 636.593 55.756 638.218 55.12C639.844 54.484 641.292 53.742 642.564 52.894C643.907 51.9753 644.684 51.0213 644.896 50.032C646.451 48.2653 647.546 46.9933 648.182 46.216C648.818 45.368 648.783 44.6967 648.076 44.202C647.299 43.0713 646.168 42.5413 644.684 42.612C643.271 42.6827 641.01 43.566 637.9 45.262C636.699 45.686 635.886 46.0747 635.462 46.428C635.038 46.7107 634.685 47.17 634.402 47.806C634.19 48.442 633.766 49.4667 633.13 50.88C632.494 52.4347 632.07 53.6007 631.858 54.378C631.646 55.1553 631.576 55.6853 631.646 55.968Z" fill="#B8C318"/>
<path d="M678.597 72.61C677.82 72.4687 676.972 72.0093 676.053 71.232C675.134 70.384 674.286 69.4653 673.509 68.476C672.802 67.416 672.343 66.5327 672.131 65.826C672.131 65.6847 672.025 65.508 671.813 65.296C671.672 65.084 671.601 64.978 671.601 64.978C671.318 64.766 671.142 63.8473 671.071 62.222C671.071 60.526 671.177 58.6533 671.389 56.604C671.601 54.5547 671.848 52.9293 672.131 51.728C672.484 50.5973 673.014 49.078 673.721 47.17C674.428 45.1913 675.028 43.4247 675.523 41.87L678.385 35.722L674.145 34.556C673.65 34.4147 673.226 34.132 672.873 33.708C672.59 33.284 672.449 32.9307 672.449 32.648C672.449 32.0827 672.767 31.27 673.403 30.21C674.039 29.15 674.498 28.62 674.781 28.62C675.134 28.6907 675.77 28.726 676.689 28.726C677.678 28.726 678.632 28.6907 679.551 28.62C680.47 28.5493 681.035 28.4787 681.247 28.408C681.53 28.2667 681.812 28.09 682.095 27.878C682.378 27.5953 682.59 27.2067 682.731 26.712C683.084 25.9347 683.402 25.334 683.685 24.91C683.968 24.486 684.356 23.85 684.851 23.002C685.346 22.0833 685.734 21.306 686.017 20.67C686.37 20.034 686.9 19.1507 687.607 18.02C687.96 17.5253 688.349 16.9247 688.773 16.218C689.197 15.5113 689.727 14.9107 690.363 14.416C690.999 13.8507 692.024 13.462 693.437 13.25C694.921 12.9673 696.193 13.2853 697.253 14.204C697.818 14.9107 698.136 15.582 698.207 16.218C698.278 16.854 697.995 17.6667 697.359 18.656C696.794 19.8573 696.122 20.9527 695.345 21.942C694.638 22.8607 693.967 23.9207 693.331 25.122C692.2 26.6767 691.988 27.56 692.695 27.772C693.402 27.984 695.38 27.8427 698.631 27.348C700.68 26.9947 702.164 27.2067 703.083 27.984C704.002 28.7613 704.532 29.7507 704.673 30.952C704.885 32.648 704.708 33.6727 704.143 34.026C703.578 34.3793 701.952 34.556 699.267 34.556C697.571 34.8387 696.122 35.0153 694.921 35.086C693.72 35.086 692.836 35.086 692.271 35.086C691.352 35.1567 690.752 35.192 690.469 35.192C690.186 35.192 689.762 35.2627 689.197 35.404C688.632 35.5453 688.208 35.7927 687.925 36.146C687.713 36.4287 687.466 36.8527 687.183 37.418C686.9 37.7007 686.476 38.4427 685.911 39.644C685.346 40.8453 684.639 42.1527 683.791 43.566C682.802 46.534 681.954 49.396 681.247 52.152C680.611 54.8373 680.046 57.5227 679.551 60.208C679.339 61.5507 679.374 62.54 679.657 63.176C680.01 63.7413 680.929 64.0947 682.413 64.236C683.19 64.3067 684.321 64.3067 685.805 64.236C687.289 64.0947 688.526 63.8827 689.515 63.6C690.292 63.2467 691.105 62.8933 691.953 62.54C692.801 62.116 693.578 61.692 694.285 61.268C694.921 60.9147 695.557 60.5613 696.193 60.208C696.829 59.784 697.147 59.572 697.147 59.572C697.5 59.0067 697.995 59.1127 698.631 59.89C699.338 60.5967 699.832 61.374 700.115 62.222C700.115 63.07 699.938 64.0947 699.585 65.296C699.232 66.4267 697.924 67.628 695.663 68.9C692.483 70.8787 689.303 72.08 686.123 72.504C682.943 72.928 680.434 72.9633 678.597 72.61Z" fill="#B8C318"/>
<path d="M722.169 72.398C720.473 72.398 718.989 71.5147 717.717 69.748C716.515 67.9107 715.773 65.72 715.491 63.176C715.561 62.6107 715.632 61.798 715.703 60.738C715.844 59.678 715.985 58.5827 716.127 57.452C716.409 56.1093 716.798 54.378 717.293 52.258C717.787 50.138 718.317 48.018 718.883 45.898C719.448 43.7073 719.943 41.8347 720.367 40.28C720.791 38.6547 721.038 37.7007 721.109 37.418C721.533 36.4287 722.487 36.1813 723.971 36.676C725.455 37.1707 726.727 38.2307 727.787 39.856C728.211 40.4213 728.458 41.0927 728.529 41.87C728.67 42.6473 728.564 43.778 728.211 45.262C727.928 46.746 727.363 48.9367 726.515 51.834C725.737 54.6607 725.137 56.9573 724.713 58.724C724.359 60.42 724.218 62.222 724.289 64.13C724.006 67.3807 723.723 69.6067 723.441 70.808C723.158 71.9387 722.734 72.4687 722.169 72.398ZM731.921 28.408C731.638 28.62 731.355 28.726 731.073 28.726C730.861 28.6553 730.472 28.4433 729.907 28.09C729.412 28.0193 728.776 27.7013 727.999 27.136C727.292 26.5 726.656 25.864 726.091 25.228C725.596 24.592 725.349 24.2033 725.349 24.062C725.278 23.3553 725.313 22.2247 725.455 20.67C725.667 19.1153 726.055 17.6667 726.621 16.324C727.257 14.9107 728.105 14.1687 729.165 14.098C729.447 14.098 730.048 14.2393 730.967 14.522C731.956 14.8047 732.981 15.158 734.041 15.582C734.606 16.642 735.136 18.02 735.631 19.716C736.125 21.412 736.161 23.0727 735.737 24.698C735.383 26.2527 734.111 27.4893 731.921 28.408Z" fill="#B8C318"/>
<path d="M754.317 73.458C753.399 73.5287 752.657 73.4227 752.091 73.14C751.526 72.928 750.819 72.5747 749.971 72.08C748.417 70.8787 747.109 69.3947 746.049 67.628C745.06 65.8613 744.601 64.3773 744.671 63.176C744.813 62.54 744.813 61.9747 744.671 61.48C744.601 60.9853 744.565 60.738 744.565 60.738C744.141 60.3847 744 60.1727 744.141 60.102C744.283 59.9607 744.389 59.7487 744.459 59.466C745.025 59.3247 745.095 58.936 744.671 58.3C744.459 57.7347 744.565 56.4627 744.989 54.484C745.484 52.4347 746.12 50.5267 746.897 48.76C747.251 47.9827 747.745 46.958 748.381 45.686C749.088 44.414 749.865 43.142 750.713 41.87C751.561 40.5273 752.339 39.4673 753.045 38.69C754.6 36.9233 755.978 35.4747 757.179 34.344C758.451 33.2133 759.865 32.3653 761.419 31.8C762.833 31.2347 764.246 30.9873 765.659 31.058C767.143 31.1287 768.451 31.6233 769.581 32.542C771.277 33.0367 772.797 33.814 774.139 34.874C775.482 35.8633 776.401 37.2767 776.895 39.114C777.461 41.1633 777.637 43.6013 777.425 46.428C777.284 49.184 776.083 52.7527 773.821 57.134C772.479 59.89 771.136 62.116 769.793 63.812C768.521 65.508 766.967 67.1333 765.129 68.688C763.787 69.8187 762.055 70.808 759.935 71.656C757.815 72.504 755.943 73.1047 754.317 73.458ZM763.539 57.452C764.458 56.18 765.165 54.9433 765.659 53.742C766.225 52.5407 766.755 50.88 767.249 48.76C767.461 47.9827 767.567 47.0287 767.567 45.898C767.638 44.7673 767.603 43.7427 767.461 42.824C767.391 41.8347 767.143 41.3047 766.719 41.234C765.801 40.8807 764.847 40.8807 763.857 41.234C762.939 41.5167 761.843 42.3647 760.571 43.778C759.441 45.05 758.522 46.2513 757.815 47.382C757.179 48.442 756.579 49.7493 756.013 51.304C755.519 52.788 754.953 54.7313 754.317 57.134C753.752 59.466 753.717 61.3387 754.211 62.752C754.777 64.1653 755.837 64.554 757.391 63.918C758.946 63.282 760.995 61.1267 763.539 57.452Z" fill="#B8C318"/>
<path d="M824.628 72.08C823.568 72.08 822.543 71.762 821.554 71.126C820.564 70.4193 819.752 69.4653 819.116 68.264C818.48 66.992 818.162 65.508 818.162 63.812C818.162 62.752 818.338 61.268 818.692 59.36C819.116 57.3813 819.716 54.908 820.494 51.94C820.635 50.9507 820.741 50.3147 820.812 50.032C820.953 49.7493 821.024 49.4667 821.024 49.184C821.024 49.0427 820.988 48.9367 820.918 48.866C820.918 48.7247 820.847 48.654 820.706 48.654C820.14 48.654 819.363 49.0427 818.374 49.82C817.455 50.5267 816.395 51.3747 815.194 52.364C814.982 52.5053 814.734 52.682 814.452 52.894C814.24 53.106 813.992 53.318 813.71 53.53C813.498 53.742 813.25 53.954 812.968 54.166C812.261 54.59 811.166 55.4027 809.682 56.604C808.268 57.8053 806.784 59.0773 805.23 60.42C803.746 61.7627 802.438 62.8933 801.308 63.812C800.742 64.236 800.248 64.5893 799.824 64.872C799.47 65.1547 799.223 65.296 799.082 65.296C798.94 65.296 798.375 65.1193 797.386 64.766C796.467 64.342 795.548 63.7767 794.63 63.07C793.782 62.2927 793.358 61.4093 793.358 60.42C793.358 59.784 793.605 58.512 794.1 56.604C794.665 54.696 795.442 52.4347 796.432 49.82C797.421 47.2053 798.552 44.5553 799.824 41.87C800.106 41.234 800.318 40.386 800.46 39.326C800.601 38.266 800.742 37.2413 800.884 36.252C801.096 35.192 801.449 34.4147 801.944 33.92C802.156 33.5667 802.403 33.3193 802.686 33.178C803.039 32.966 803.392 32.86 803.746 32.86C804.452 32.86 805.124 33.0367 805.76 33.39C806.396 33.6727 806.996 34.1673 807.562 34.874C808.622 36.0047 809.187 37.3473 809.258 38.902C809.399 40.386 809.293 41.8347 808.94 43.248C808.586 44.6613 808.198 45.8273 807.774 46.746C807.35 47.594 807.138 47.9473 807.138 47.806C807.42 47.6647 807.809 47.3113 808.304 46.746C808.869 46.1807 809.823 45.5093 811.166 44.732C813.003 43.3187 814.416 42.3293 815.406 41.764C816.395 41.128 817.137 40.6687 817.632 40.386C818.197 40.1033 818.692 39.7853 819.116 39.432C819.469 39.1493 819.716 38.9727 819.858 38.902C820.07 38.8313 820.176 38.796 820.176 38.796C820.388 38.796 820.741 38.6547 821.236 38.372C821.801 38.0893 822.331 37.948 822.826 37.948C823.532 37.948 824.274 38.1247 825.052 38.478C825.829 38.7607 826.5 39.1847 827.066 39.75C827.631 40.2447 827.914 40.7747 827.914 41.34C827.914 41.552 827.984 41.7287 828.126 41.87C828.267 42.0113 828.408 42.188 828.55 42.4C828.903 42.824 829.292 43.4247 829.716 44.202C830.21 44.9087 830.458 46.0747 830.458 47.7C830.458 48.8307 830.21 50.4913 829.716 52.682C829.221 54.8727 828.691 57.028 828.126 59.148C827.56 61.3387 827.278 63.1053 827.278 64.448C827.348 65.72 827.49 66.7093 827.702 67.416C827.914 68.052 828.02 68.582 828.02 69.006C828.02 69.5713 827.737 70.2427 827.172 71.02C826.606 71.7267 825.758 72.08 824.628 72.08Z" fill="#B8C318"/>
<path d="M884.642 70.278C884.359 69.7127 883.723 69.1473 882.734 68.582C881.815 68.0167 881.356 67.5927 881.356 67.31C881.356 67.0273 881.179 66.6033 880.826 66.038C880.543 65.402 880.261 64.9427 879.978 64.66C879.625 64.236 879.731 63.2113 880.296 61.586C880.861 59.89 881.709 57.8407 882.84 55.438C883.971 53.0353 885.207 50.5973 886.55 48.124C887.115 47.5587 887.681 46.8167 888.246 45.898C888.811 44.9793 889.235 44.3787 889.518 44.096C889.518 43.8133 889.624 43.566 889.836 43.354C890.048 43.0713 890.295 42.93 890.578 42.93L891.426 41.234C891.567 40.9513 891.991 40.386 892.698 39.538C893.475 38.69 894.394 37.7713 895.454 36.782C896.514 35.722 897.574 34.7327 898.634 33.814C899.765 32.8953 900.683 32.224 901.39 31.8C902.874 30.8107 904.393 30.3513 905.948 30.422C907.573 30.4927 908.951 30.9873 910.082 31.906C910.294 32.118 910.753 32.542 911.46 33.178C912.237 33.814 913.085 34.5207 914.004 35.298C914.993 36.0753 915.841 36.782 916.548 37.418L920.47 40.916L918.668 46.216C917.749 49.0427 917.502 51.516 917.926 53.636C918.35 55.756 919.021 57.5933 919.94 59.148C920.293 59.9253 920.753 60.526 921.318 60.95C921.954 61.374 922.767 61.6567 923.756 61.798C924.321 61.8687 924.851 62.0807 925.346 62.434C925.841 62.7873 926.088 63.3527 926.088 64.13C926.088 65.826 925.77 67.0627 925.134 67.84C924.569 68.5467 923.933 68.9707 923.226 69.112C920.894 69.3947 918.668 69.1473 916.548 68.37C914.428 67.5927 912.52 65.5787 910.824 62.328C910.541 61.904 910.153 61.1267 909.658 59.996C909.234 58.7947 908.987 58.0173 908.916 57.664C908.633 58.0173 908.245 58.4767 907.75 59.042C907.326 59.5367 906.902 59.996 906.478 60.42C901.461 65.508 897.15 68.8293 893.546 70.384C890.013 71.868 887.045 71.8327 884.642 70.278ZM890.472 61.48C890.967 61.5507 891.744 61.3033 892.804 60.738C893.864 60.102 895.277 59.0773 897.044 57.664C899.447 55.6147 901.425 53.9187 902.98 52.576C904.535 51.2333 906.054 49.502 907.538 47.382L909.87 43.566C909.163 41.9407 908.527 40.8807 907.962 40.386C907.397 39.8913 906.831 39.644 906.266 39.644C905.347 39.644 904.252 40.2447 902.98 41.446C901.708 42.5767 900.259 44.2727 898.634 46.534C897.079 48.7247 895.313 51.4807 893.334 54.802C892.415 56.3567 891.709 57.876 891.214 59.36C890.719 60.7733 890.472 61.48 890.472 61.48Z" fill="#B8C318"/>
<path d="M947.743 78.864C944.28 78.7933 942.054 77.804 941.065 75.896C940.146 74.0587 939.899 71.7267 940.323 68.9C940.747 67.5573 940.994 66.356 941.065 65.296C941.206 64.1653 941.524 63.4587 942.019 63.176C942.019 63.176 942.054 63.07 942.125 62.858C942.266 62.646 942.231 62.434 942.019 62.222C942.019 61.3033 942.337 60.0313 942.973 58.406C943.114 57.982 943.291 57.4873 943.503 56.922C943.785 56.286 943.927 55.968 943.927 55.968C943.573 55.4027 943.573 54.9433 943.927 54.59C944.28 54.2367 944.633 53.9187 944.987 53.636C945.411 53.2827 945.446 52.894 945.093 52.47C944.951 52.1873 945.128 51.5513 945.623 50.562C946.117 49.502 946.683 48.4067 947.319 47.276C947.955 46.1453 948.379 45.262 948.591 44.626C948.591 44.4847 948.767 43.99 949.121 43.142C949.474 42.294 949.898 41.3047 950.393 40.174C950.887 39.0433 951.347 38.0187 951.771 37.1C952.265 36.1813 952.583 35.5807 952.725 35.298C953.431 34.9447 953.149 34.6973 951.877 34.556C950.605 34.4147 949.262 34.3793 947.849 34.45C945.658 34.3793 943.891 34.2733 942.549 34.132C941.277 33.9907 940.217 33.6727 939.369 33.178C938.521 32.1887 938.415 31.0227 939.051 29.68C939.687 28.2667 940.711 27.5247 942.125 27.454C943.043 27.3833 943.75 27.348 944.245 27.348C944.81 27.348 945.517 27.3127 946.365 27.242C947.283 27.1007 948.697 26.924 950.605 26.712L956.011 26.288L956.329 24.486C956.894 23.5673 957.283 22.9667 957.495 22.684C957.707 22.4013 957.848 22.1187 957.919 21.836C957.989 21.4827 958.095 20.882 958.237 20.034C958.237 20.034 958.555 19.4687 959.191 18.338C959.827 17.1367 960.215 15.9 960.357 14.628C961.205 13.2147 961.947 11.9427 962.583 10.812C963.219 9.61066 963.607 8.86866 963.749 8.586C964.95 6.81933 966.116 5.86533 967.247 5.724C968.448 5.58266 969.579 5.86533 970.639 6.572C971.275 6.92533 971.875 7.38466 972.441 7.95C973.006 8.44466 973.359 9.116 973.501 9.964C973.642 10.7413 973.324 11.766 972.547 13.038C972.405 13.3207 972.193 13.8507 971.911 14.628C971.628 15.3347 971.416 15.9353 971.275 16.43C970.851 16.9247 970.321 17.7373 969.685 18.868C969.119 19.928 968.731 21.0233 968.519 22.154C967.953 23.3553 967.6 24.0973 967.459 24.38C967.317 24.6627 967.105 24.804 966.823 24.804C966.964 25.5107 967.388 25.864 968.095 25.864C968.801 25.7933 969.967 25.7227 971.593 25.652C972.935 25.5107 973.854 25.3693 974.349 25.228C974.914 25.016 975.55 25.0867 976.257 25.44C976.61 25.9347 976.787 26.6767 976.787 27.666C976.857 28.5847 976.751 29.5033 976.469 30.422C976.186 31.27 975.797 31.8 975.303 32.012C974.949 32.012 974.207 32.224 973.077 32.648C972.017 33.0013 970.674 33.2133 969.049 33.284L963.431 33.814L961.629 37.418C961.134 38.3367 960.71 39.1847 960.357 39.962C960.003 40.6687 959.756 41.0927 959.615 41.234C959.615 41.658 959.367 42.294 958.873 43.142C958.449 43.99 957.989 44.9087 957.495 45.898C957.071 47.0993 956.576 48.1947 956.011 49.184C955.516 50.1733 955.269 50.668 955.269 50.668C954.986 50.668 954.845 50.88 954.845 51.304C955.198 52.152 955.092 52.788 954.527 53.212C954.173 53.424 953.855 53.742 953.573 54.166C953.361 54.5193 953.255 54.696 953.255 54.696C953.537 54.9787 953.573 55.332 953.361 55.756C953.219 56.18 953.007 56.6393 952.725 57.134C952.725 57.6993 952.548 58.512 952.195 59.572C951.912 60.632 951.594 61.6213 951.241 62.54C951.311 63.812 951.382 64.6247 951.453 64.978C951.523 65.3313 951.7 65.4727 951.983 65.402C952.336 65.4727 952.831 65.4727 953.467 65.402C954.103 65.3313 954.562 65.296 954.845 65.296C955.905 64.8013 955.41 67.2747 953.361 72.716C952.23 74.4827 951.099 75.9313 949.969 77.062C948.838 78.2633 948.096 78.864 947.743 78.864Z" fill="#B8C318"/>
<path d="M1060.13 40.598C1059.7 40.8807 1058.82 41.234 1057.48 41.658C1056.21 42.0113 1054.02 42.3647 1050.91 42.718C1049.99 42.7887 1048.68 42.8593 1046.98 42.93C1045.29 43.0007 1043.45 43.0713 1041.47 43.142C1039.56 43.2127 1037.8 43.248 1036.17 43.248C1034.62 43.1773 1033.52 43.0713 1032.89 42.93C1032.89 42.93 1032.71 43.1067 1032.36 43.46C1032.07 43.8133 1031.93 44.2727 1031.93 44.838C1031.44 45.686 1030.84 46.958 1030.13 48.654C1029.42 50.2793 1028.65 52.0813 1027.8 54.06C1027.02 56.0387 1026.28 58.0173 1025.57 59.996C1024.87 61.904 1024.26 63.6 1023.77 65.084C1023.35 66.4973 1023.13 67.4867 1023.13 68.052C1022.5 69.748 1022.11 71.1967 1021.97 72.398C1021.83 73.5993 1021.58 74.306 1021.23 74.518C1021.01 75.578 1020.34 76.108 1019.21 76.108C1018.15 76.108 1017.34 75.79 1016.77 75.154C1015.22 74.3767 1014.16 73.3873 1013.59 72.186C1013.03 70.914 1012.99 69.5007 1013.49 67.946C1013.7 67.0273 1014.05 65.6847 1014.55 63.918C1015.11 62.0807 1015.71 60.0667 1016.35 57.876C1017.06 55.6853 1017.76 53.5653 1018.47 51.516C1019.25 49.396 1019.99 47.6647 1020.7 46.322C1021.47 44.9793 1021.97 43.778 1022.18 42.718C1022.39 41.5873 1022.67 40.5627 1023.03 39.644C1022.96 38.8667 1022.96 38.372 1023.03 38.16C1023.1 37.8773 1023.38 37.418 1023.88 36.782C1024.23 36.4993 1024.65 36.0047 1025.15 35.298C1025.71 34.5207 1026.35 33.3547 1027.06 31.8C1027.27 31.0933 1027.59 30.1393 1028.01 28.938C1028.5 27.666 1028.96 26.394 1029.39 25.122C1029.81 23.7793 1030.2 22.6487 1030.55 21.73C1030.91 20.8113 1031.08 20.3167 1031.08 20.246C1031.23 19.9633 1031.44 19.4333 1031.72 18.656C1032 17.808 1032.21 17.1367 1032.36 16.642C1032.64 15.6527 1032.85 14.84 1032.99 14.204C1033.2 13.568 1033.17 13.25 1032.89 13.25C1032.32 13.3913 1031.19 13.4973 1029.49 13.568C1028.65 13.7093 1028.01 13.8153 1027.59 13.886C1027.23 13.886 1026.91 13.9213 1026.63 13.992C1025.93 14.0627 1025.29 13.992 1024.72 13.78C1024.16 13.568 1023.88 13.144 1023.88 12.508C1024.02 11.3773 1024.41 10.2113 1025.04 9.01C1025.75 7.80866 1026.63 7.17266 1027.69 7.102C1028.19 6.96067 1028.72 6.85467 1029.28 6.784C1029.92 6.64266 1030.77 6.43066 1031.83 6.148C1033.17 5.86533 1034.33 5.79466 1035.32 5.936C1036.38 6.00667 1037.13 6.11267 1037.55 6.254C1037.9 6.042 1038.19 5.83 1038.4 5.618C1038.68 5.33533 1038.86 5.05266 1038.93 4.77C1039.28 3.498 1039.92 2.544 1040.84 1.908C1041.76 1.20133 1042.71 0.847995 1043.7 0.847995C1044.76 0.77733 1045.61 1.06 1046.24 1.696C1046.88 2.26133 1047.05 3.21533 1046.77 4.558C1046.84 4.77 1046.91 4.94667 1046.98 5.088C1047.13 5.22933 1047.66 5.22933 1048.57 5.088C1049.56 4.876 1051.26 4.52266 1053.66 4.028C1054.93 3.88667 1056.52 3.74533 1058.43 3.604C1060.41 3.46267 1061.97 3.56867 1063.1 3.922C1064.3 3.71 1065.36 3.63933 1066.28 3.71C1067.27 3.71 1067.94 3.56866 1068.29 3.286C1069.77 3.56866 1070.83 3.78066 1071.47 3.922C1072.18 3.99267 1072.74 4.20467 1073.17 4.558C1073.45 4.84067 1073.55 5.12333 1073.48 5.406C1073.41 5.618 1073.38 5.724 1073.38 5.724C1073.1 5.58266 1073.06 5.58266 1073.27 5.724C1073.48 5.79467 1073.77 5.97133 1074.12 6.254C1074.61 6.466 1074.86 6.92533 1074.86 7.632C1074.93 8.268 1074.9 8.93933 1074.76 9.646C1074.69 10.282 1074.61 10.706 1074.54 10.918C1074.47 11.554 1074.12 11.9427 1073.48 12.084C1072.85 12.1547 1071.26 12.1547 1068.71 12.084C1065.68 11.66 1062.85 11.5187 1060.23 11.66C1057.69 11.7307 1054.47 12.0487 1050.59 12.614C1049.03 12.6847 1047.69 12.8967 1046.56 13.25C1045.5 13.5327 1044.97 13.674 1044.97 13.674C1044.69 13.674 1044.19 14.1687 1043.49 15.158C1042.78 16.0767 1042.11 17.4547 1041.47 19.292C1041.19 19.7867 1040.69 20.8113 1039.99 22.366C1039.35 23.9207 1038.68 25.6167 1037.97 27.454C1037.27 29.2207 1036.63 30.8107 1036.07 32.224C1035.5 33.5667 1035.15 34.3087 1035.01 34.45C1036 34.7327 1037.51 34.874 1039.56 34.874C1041.68 34.874 1044.02 34.8033 1046.56 34.662C1049.1 34.45 1051.51 34.238 1053.77 34.026C1054.83 33.814 1055.92 33.6373 1057.05 33.496C1058.18 33.3547 1058.96 33.3193 1059.39 33.39C1060.23 33.4607 1060.87 34.026 1061.29 35.086C1061.72 36.0753 1061.86 37.1353 1061.72 38.266C1061.58 39.326 1061.05 40.1033 1060.13 40.598Z" fill="#B8C318"/>
<path d="M1080.99 72.398C1079.3 72.398 1077.81 71.5147 1076.54 69.748C1075.34 67.9107 1074.6 65.72 1074.31 63.176C1074.38 62.6107 1074.45 61.798 1074.53 60.738C1074.67 59.678 1074.81 58.5827 1074.95 57.452C1075.23 56.1093 1075.62 54.378 1076.12 52.258C1076.61 50.138 1077.14 48.018 1077.71 45.898C1078.27 43.7073 1078.77 41.8347 1079.19 40.28C1079.61 38.6547 1079.86 37.7007 1079.93 37.418C1080.36 36.4287 1081.31 36.1813 1082.79 36.676C1084.28 37.1707 1085.55 38.2307 1086.61 39.856C1087.03 40.4213 1087.28 41.0927 1087.35 41.87C1087.49 42.6473 1087.39 43.778 1087.03 45.262C1086.75 46.746 1086.19 48.9367 1085.34 51.834C1084.56 54.6607 1083.96 56.9573 1083.54 58.724C1083.18 60.42 1083.04 62.222 1083.11 64.13C1082.83 67.3807 1082.55 69.6067 1082.26 70.808C1081.98 71.9387 1081.56 72.4687 1080.99 72.398ZM1090.74 28.408C1090.46 28.62 1090.18 28.726 1089.9 28.726C1089.68 28.6553 1089.29 28.4433 1088.73 28.09C1088.23 28.0193 1087.6 27.7013 1086.82 27.136C1086.11 26.5 1085.48 25.864 1084.91 25.228C1084.42 24.592 1084.17 24.2033 1084.17 24.062C1084.1 23.3553 1084.14 22.2247 1084.28 20.67C1084.49 19.1153 1084.88 17.6667 1085.44 16.324C1086.08 14.9107 1086.93 14.1687 1087.99 14.098C1088.27 14.098 1088.87 14.2393 1089.79 14.522C1090.78 14.8047 1091.8 15.158 1092.86 15.582C1093.43 16.642 1093.96 18.02 1094.45 19.716C1094.95 21.412 1094.98 23.0727 1094.56 24.698C1094.21 26.2527 1092.93 27.4893 1090.74 28.408Z" fill="#B8C318"/>
<path d="M1104.77 69.642C1104.13 69.1473 1103.42 68.5113 1102.65 67.734C1101.94 66.9567 1101.69 65.8613 1101.9 64.448C1102.12 62.4693 1102.4 60.738 1102.75 59.254C1103.11 57.6993 1103.53 55.9327 1104.02 53.954C1104.17 53.106 1104.52 51.6573 1105.08 49.608C1105.72 47.5587 1106.46 45.3327 1107.31 42.93C1108.16 40.5273 1109.04 38.266 1109.96 36.146C1110.88 33.9553 1111.69 32.33 1112.4 31.27C1113.18 30.5633 1114.31 30.21 1115.79 30.21C1117.34 30.21 1118.4 30.4927 1118.97 31.058C1119.75 31.694 1119.99 32.8247 1119.71 34.45C1119.43 36.0047 1118.44 38.4427 1116.74 41.764C1116.39 42.612 1115.93 43.5307 1115.37 44.52C1114.87 45.4387 1114.52 46.216 1114.31 46.852C1114.09 47.4173 1114.16 47.6647 1114.52 47.594C1114.94 46.8167 1115.72 45.9333 1116.85 44.944C1117.98 43.884 1119.18 42.8593 1120.45 41.87C1121.73 40.8807 1122.93 39.9973 1124.06 39.22C1125.19 38.4427 1125.97 37.948 1126.39 37.736C1126.96 37.3827 1127.59 37.1 1128.3 36.888C1129.08 36.6053 1129.61 36.3933 1129.89 36.252C1131.51 35.4747 1133.28 35.192 1135.19 35.404C1137.17 35.5453 1138.37 36.146 1138.79 37.206C1138.86 37.7713 1139.07 38.1953 1139.43 38.478C1139.85 38.7607 1140.06 38.902 1140.06 38.902C1140.35 38.902 1140.49 39.008 1140.49 39.22C1140.56 39.432 1140.59 39.538 1140.59 39.538C1140.59 40.0327 1140.1 40.7393 1139.11 41.658C1138.19 42.5767 1137.17 43.0713 1136.04 43.142C1135.12 43.2127 1134.3 43.3893 1133.6 43.672C1132.89 43.9547 1132.04 44.308 1131.05 44.732C1128.37 46.2867 1125.93 47.6647 1123.74 48.866C1121.62 50.0673 1119.43 51.9047 1117.17 54.378C1116.67 54.9433 1116.14 55.4733 1115.58 55.968C1115.01 56.4627 1114.45 57.1693 1113.88 58.088C1113.53 58.4413 1113.18 59.2187 1112.82 60.42C1112.47 61.6213 1112.15 62.7873 1111.87 63.918C1111.66 64.978 1111.55 65.614 1111.55 65.826C1111.55 65.826 1111.44 66.1793 1111.23 66.886C1111.02 67.522 1110.67 68.158 1110.17 68.794C1109.32 69.9247 1108.48 70.6313 1107.63 70.914C1106.85 71.1967 1105.9 70.7727 1104.77 69.642Z" fill="#B8C318"/>
<path d="M1159.39 73.14C1157.13 73.14 1155.05 72.6453 1153.14 71.656C1151.3 70.596 1149.82 69.324 1148.69 67.84C1147.56 66.2853 1146.99 64.8013 1146.99 63.388C1146.99 62.752 1147.1 62.2927 1147.31 62.01C1147.59 61.7273 1147.98 61.586 1148.48 61.586C1148.83 61.6567 1149.25 61.8333 1149.75 62.116C1150.24 62.3987 1150.74 62.7167 1151.23 63.07C1152.36 63.8473 1153.6 64.342 1154.94 64.554C1156.28 64.766 1157.49 64.6953 1158.55 64.342C1159.61 63.918 1160.21 63.282 1160.35 62.434C1160.35 62.1513 1160.21 61.5507 1159.92 60.632C1159.64 59.7133 1159.29 58.83 1158.86 57.982C1157.1 55.3673 1156 52.894 1155.58 50.562C1155.15 48.1593 1154.87 45.7567 1154.73 43.354C1154.73 42.3647 1155.19 41.2693 1156.11 40.068C1157.03 38.796 1158.16 37.5593 1159.5 36.358C1160.98 35.086 1162.61 33.8847 1164.38 32.754C1166.21 31.6233 1168.01 30.6693 1169.78 29.892C1171.55 29.1147 1173.03 28.6553 1174.23 28.514C1175.51 28.514 1176.85 28.5847 1178.26 28.726C1179.75 28.7967 1180.73 29.044 1181.23 29.468C1182.22 30.2453 1183.14 31.5173 1183.99 33.284C1184.83 35.0507 1185.26 36.5347 1185.26 37.736C1185.26 38.3013 1184.94 39.008 1184.3 39.856C1183.74 40.6333 1183.21 41.5167 1182.71 42.506C1182.43 43.0007 1182.18 43.5307 1181.97 44.096C1181.76 44.6613 1181.51 45.2267 1181.23 45.792C1180.81 46.7813 1180.03 47.2053 1178.9 47.064C1177.84 46.852 1176.85 46.2867 1175.93 45.368C1175.01 44.3787 1174.55 43.248 1174.55 41.976C1174.55 40.916 1174.87 39.9973 1175.51 39.22C1176.14 38.4427 1176.46 37.9127 1176.46 37.63C1176.46 37.4887 1176.39 37.3827 1176.25 37.312C1176.11 37.2413 1175.86 37.206 1175.51 37.206C1175.01 37.206 1174.2 37.418 1173.07 37.842C1172.01 38.1953 1170.88 38.7253 1169.68 39.432C1168.47 40.1387 1167.38 40.9867 1166.39 41.976C1165.68 42.7533 1165.08 43.6013 1164.59 44.52C1164.16 45.368 1163.95 46.2867 1163.95 47.276C1163.95 48.2653 1164.13 49.4313 1164.48 50.774C1164.91 52.046 1165.36 53.106 1165.86 53.954C1166 54.0953 1166.21 54.484 1166.5 55.12C1166.85 55.6853 1167.24 56.392 1167.66 57.24C1170.28 62.6107 1170.7 66.6033 1168.93 69.218C1167.24 71.8327 1164.06 73.14 1159.39 73.14Z" fill="#B8C318"/>
<path d="M1204.83 78.864C1201.36 78.7933 1199.14 77.804 1198.15 75.896C1197.23 74.0587 1196.98 71.7267 1197.41 68.9C1197.83 67.5573 1198.08 66.356 1198.15 65.296C1198.29 64.1653 1198.61 63.4587 1199.1 63.176C1199.1 63.176 1199.14 63.07 1199.21 62.858C1199.35 62.646 1199.31 62.434 1199.1 62.222C1199.1 61.3033 1199.42 60.0313 1200.06 58.406C1200.2 57.982 1200.37 57.4873 1200.59 56.922C1200.87 56.286 1201.01 55.968 1201.01 55.968C1200.66 55.4027 1200.66 54.9433 1201.01 54.59C1201.36 54.2367 1201.72 53.9187 1202.07 53.636C1202.49 53.2827 1202.53 52.894 1202.18 52.47C1202.03 52.1873 1202.21 51.5513 1202.71 50.562C1203.2 49.502 1203.77 48.4067 1204.4 47.276C1205.04 46.1453 1205.46 45.262 1205.67 44.626C1205.67 44.4847 1205.85 43.99 1206.2 43.142C1206.56 42.294 1206.98 41.3047 1207.48 40.174C1207.97 39.0433 1208.43 38.0187 1208.85 37.1C1209.35 36.1813 1209.67 35.5807 1209.81 35.298C1210.51 34.9447 1210.23 34.6973 1208.96 34.556C1207.69 34.4147 1206.34 34.3793 1204.93 34.45C1202.74 34.3793 1200.97 34.2733 1199.63 34.132C1198.36 33.9907 1197.3 33.6727 1196.45 33.178C1195.6 32.1887 1195.5 31.0227 1196.13 29.68C1196.77 28.2667 1197.79 27.5247 1199.21 27.454C1200.13 27.3833 1200.83 27.348 1201.33 27.348C1201.89 27.348 1202.6 27.3127 1203.45 27.242C1204.37 27.1007 1205.78 26.924 1207.69 26.712L1213.09 26.288L1213.41 24.486C1213.98 23.5673 1214.37 22.9667 1214.58 22.684C1214.79 22.4013 1214.93 22.1187 1215 21.836C1215.07 21.4827 1215.18 20.882 1215.32 20.034C1215.32 20.034 1215.64 19.4687 1216.27 18.338C1216.91 17.1367 1217.3 15.9 1217.44 14.628C1218.29 13.2147 1219.03 11.9427 1219.67 10.812C1220.3 9.61066 1220.69 8.86866 1220.83 8.586C1222.03 6.81933 1223.2 5.86533 1224.33 5.724C1225.53 5.58266 1226.66 5.86533 1227.72 6.572C1228.36 6.92533 1228.96 7.38466 1229.52 7.95C1230.09 8.44466 1230.44 9.116 1230.58 9.964C1230.73 10.7413 1230.41 11.766 1229.63 13.038C1229.49 13.3207 1229.28 13.8507 1228.99 14.628C1228.71 15.3347 1228.5 15.9353 1228.36 16.43C1227.93 16.9247 1227.4 17.7373 1226.77 18.868C1226.2 19.928 1225.81 21.0233 1225.6 22.154C1225.04 23.3553 1224.68 24.0973 1224.54 24.38C1224.4 24.6627 1224.19 24.804 1223.91 24.804C1224.05 25.5107 1224.47 25.864 1225.18 25.864C1225.88 25.7933 1227.05 25.7227 1228.68 25.652C1230.02 25.5107 1230.94 25.3693 1231.43 25.228C1232 25.016 1232.63 25.0867 1233.34 25.44C1233.69 25.9347 1233.87 26.6767 1233.87 27.666C1233.94 28.5847 1233.83 29.5033 1233.55 30.422C1233.27 31.27 1232.88 31.8 1232.39 32.012C1232.03 32.012 1231.29 32.224 1230.16 32.648C1229.1 33.0013 1227.76 33.2133 1226.13 33.284L1220.51 33.814L1218.71 37.418C1218.22 38.3367 1217.79 39.1847 1217.44 39.962C1217.09 40.6687 1216.84 41.0927 1216.7 41.234C1216.7 41.658 1216.45 42.294 1215.96 43.142C1215.53 43.99 1215.07 44.9087 1214.58 45.898C1214.15 47.0993 1213.66 48.1947 1213.09 49.184C1212.6 50.1733 1212.35 50.668 1212.35 50.668C1212.07 50.668 1211.93 50.88 1211.93 51.304C1212.28 52.152 1212.18 52.788 1211.61 53.212C1211.26 53.424 1210.94 53.742 1210.66 54.166C1210.44 54.5193 1210.34 54.696 1210.34 54.696C1210.62 54.9787 1210.66 55.332 1210.44 55.756C1210.3 56.18 1210.09 56.6393 1209.81 57.134C1209.81 57.6993 1209.63 58.512 1209.28 59.572C1208.99 60.632 1208.68 61.6213 1208.32 62.54C1208.39 63.812 1208.46 64.6247 1208.54 64.978C1208.61 65.3313 1208.78 65.4727 1209.07 65.402C1209.42 65.4727 1209.91 65.4727 1210.55 65.402C1211.19 65.3313 1211.65 65.296 1211.93 65.296C1212.99 64.8013 1212.49 67.2747 1210.44 72.716C1209.31 74.4827 1208.18 75.9313 1207.05 77.062C1205.92 78.2633 1205.18 78.864 1204.83 78.864Z" fill="#B8C318"/>
<path d="M1252.21 71.868C1250.8 71.7267 1249.67 71.3733 1248.82 70.808C1248.04 70.172 1247.44 69.3947 1247.02 68.476C1246.45 67.84 1246.1 67.3453 1245.96 66.992C1245.89 66.6387 1245.89 66.3207 1245.96 66.038C1246.31 66.038 1246.63 66.038 1246.91 66.038C1247.2 65.9673 1247.37 65.826 1247.44 65.614C1247.44 65.402 1247.55 65.2607 1247.76 65.19C1248.04 65.1193 1248.33 65.1193 1248.61 65.19C1249.95 65.2607 1251.58 64.8013 1253.49 63.812C1255.46 62.8227 1257.62 61.4447 1259.95 59.678C1262.28 57.8407 1264.62 55.862 1266.95 53.742C1268.78 51.3393 1270.06 49.5727 1270.76 48.442C1271.54 47.3113 1271.93 46.4633 1271.93 45.898C1272 45.262 1271.86 44.626 1271.51 43.99C1271.22 43.4247 1270.55 43.142 1269.49 43.142C1268.43 43.142 1266.81 43.8487 1264.62 45.262C1261.58 47.17 1259.14 48.9367 1257.3 50.562C1255.46 52.1873 1253.77 54.0247 1252.21 56.074C1251.65 56.7807 1251.01 57.558 1250.31 58.406C1249.67 59.1833 1249.1 59.8547 1248.61 60.42C1248.19 60.9853 1247.97 61.268 1247.97 61.268C1247.97 61.5507 1247.55 61.904 1246.7 62.328C1245.92 62.752 1245.25 62.964 1244.69 62.964C1244.4 62.8227 1244.02 62.5753 1243.52 62.222C1243.1 61.798 1242.81 61.268 1242.67 60.632C1242.04 60.1373 1241.51 59.7133 1241.08 59.36C1240.66 58.936 1240.45 58.2647 1240.45 57.346C1240.45 56.7807 1240.52 56.074 1240.66 55.226C1240.87 54.378 1241.15 53.2827 1241.51 51.94C1241.93 50.1027 1242.39 48.1947 1242.89 46.216C1243.38 44.1667 1243.84 42.4353 1244.26 41.022C1244.76 39.538 1245.11 38.7253 1245.32 38.584C1245.32 38.584 1245.46 38.266 1245.75 37.63C1246.03 36.994 1246.17 36.252 1246.17 35.404C1246.31 34.556 1246.52 33.814 1246.81 33.178C1247.16 32.542 1247.34 32.0827 1247.34 31.8C1247.62 31.588 1248.04 30.74 1248.61 29.256C1249.17 27.772 1249.88 25.8287 1250.73 23.426C1250.73 23.214 1250.98 22.5427 1251.47 21.412C1251.97 20.2107 1252.57 18.8327 1253.27 17.278C1253.98 15.6527 1254.69 13.992 1255.39 12.296C1256.17 10.5293 1256.81 8.97466 1257.3 7.632C1258.15 6.43067 1258.86 5.22933 1259.42 4.028C1260.06 2.756 1260.62 2.014 1261.12 1.802C1261.47 1.73133 1262.07 1.87266 1262.92 2.226C1263.84 2.57933 1264.76 3.03866 1265.68 3.604C1266.59 4.16933 1267.23 4.73467 1267.58 5.3C1267.8 5.65333 1267.9 6.00667 1267.9 6.36C1267.97 6.71333 1267.83 7.314 1267.48 8.162C1267.12 8.93933 1266.52 10.2467 1265.68 12.084C1264.83 13.8507 1263.63 16.3593 1262.07 19.61C1260.09 23.85 1258.54 27.3833 1257.41 30.21C1256.35 33.0367 1255.46 35.4747 1254.76 37.524C1254.12 39.5733 1253.45 41.5167 1252.74 43.354L1252.21 45.686L1254.97 42.612C1255.68 41.9053 1256.42 41.234 1257.2 40.598C1257.97 39.962 1258.82 39.326 1259.74 38.69C1260.3 38.266 1261.05 37.842 1261.97 37.418C1262.95 36.9233 1263.91 36.4993 1264.83 36.146C1265.75 35.7927 1266.42 35.5807 1266.84 35.51C1267.05 35.4393 1267.76 35.298 1268.96 35.086C1270.23 34.8033 1271.47 34.662 1272.67 34.662C1274.23 34.662 1275.57 35.2273 1276.7 36.358C1277.9 37.418 1278.96 38.7253 1279.88 40.28C1280.66 41.764 1280.94 43.672 1280.73 46.004C1280.52 48.2653 1279.91 50.2087 1278.93 51.834C1278.57 52.1167 1278.22 52.5053 1277.87 53C1277.51 53.424 1277.34 53.7773 1277.34 54.06C1277.26 54.5547 1276.63 55.5793 1275.43 57.134C1274.23 58.618 1273.02 60.0313 1271.82 61.374C1270.55 62.7167 1269 64.0593 1267.16 65.402C1265.32 66.674 1263.48 67.84 1261.65 68.9C1259.88 69.8893 1258.36 70.596 1257.09 71.02C1256.52 71.0907 1255.71 71.232 1254.65 71.444C1253.59 71.5853 1252.78 71.7267 1252.21 71.868Z" fill="#B8C318"/>
<path d="M1300.37 70.596C1299.53 70.808 1298.57 70.5607 1297.51 69.854C1296.45 69.1473 1295.5 68.264 1294.65 67.204C1293.8 66.144 1293.27 65.19 1293.06 64.342C1292.78 62.858 1292.85 61.056 1293.27 58.936C1293.77 56.7453 1294.58 54.4487 1295.71 52.046C1296.84 49.5727 1298.25 47.17 1299.95 44.838C1301.65 42.4353 1303.55 40.28 1305.67 38.372C1307.79 36.464 1310.09 34.98 1312.56 33.92C1313.62 33.3547 1314.37 33.0013 1314.79 32.86C1315.21 32.648 1315.64 32.648 1316.06 32.86C1316.48 33.0013 1317.23 33.3547 1318.29 33.92C1319.28 34.2027 1320.27 34.556 1321.26 34.98C1322.32 35.3333 1323.23 36.04 1324.01 37.1C1324.58 38.16 1325 39.22 1325.28 40.28C1325.57 41.34 1325.81 42.5413 1326.03 43.884C1326.59 45.6507 1326.8 46.8167 1326.66 47.382C1326.52 47.8767 1326.31 48.2653 1326.03 48.548C1325.46 49.2547 1325.32 49.608 1325.6 49.608C1325.6 49.608 1325.57 49.7493 1325.5 50.032C1325.5 50.244 1325.35 50.5973 1325.07 51.092C1324.58 52.6467 1324.19 54.1307 1323.91 55.544C1323.69 56.8867 1323.73 58.088 1324.01 59.148C1324.58 60.7027 1325.32 61.6213 1326.24 61.904C1327.23 62.1867 1328.5 61.5507 1330.05 59.996C1330.83 59.4307 1331.71 59.0773 1332.7 58.936C1333.69 58.724 1334.19 58.9007 1334.19 59.466C1334.19 59.466 1334.29 59.572 1334.51 59.784C1334.72 59.9253 1334.96 59.996 1335.25 59.996C1335.6 59.996 1335.74 60.3493 1335.67 61.056C1335.6 61.692 1335.46 62.434 1335.25 63.282C1335.04 64.13 1334.75 64.8367 1334.4 65.402C1333.34 66.462 1332.81 67.1687 1332.81 67.522C1332.81 67.522 1332.67 67.6633 1332.39 67.946C1332.17 68.158 1331.78 68.5113 1331.22 69.006C1329.95 69.7833 1328.32 70.172 1326.34 70.172C1324.44 70.172 1322.95 69.7833 1321.89 69.006C1320.83 68.2287 1319.77 67.2747 1318.71 66.144C1317.72 65.0133 1317.09 63.9533 1316.8 62.964L1316.27 61.904L1313.2 63.918C1312.42 64.6953 1311.86 65.296 1311.5 65.72C1311.15 66.0733 1310.83 66.3913 1310.55 66.674C1310.34 66.9567 1310.09 67.204 1309.81 67.416C1309.59 67.628 1309.35 67.734 1309.07 67.734C1308.78 67.734 1308.54 67.734 1308.32 67.734C1308.11 67.734 1308.01 67.734 1308.01 67.734C1308.01 68.0167 1307.51 68.4053 1306.52 68.9C1305.53 69.324 1304.44 69.7127 1303.24 70.066C1302.03 70.4193 1301.08 70.596 1300.37 70.596ZM1302.6 61.692C1303.02 61.692 1303.66 61.4447 1304.51 60.95C1305.43 60.3847 1306.42 59.7133 1307.48 58.936C1308.54 58.1587 1309.49 57.3813 1310.34 56.604C1311.26 55.8267 1311.93 55.1907 1312.35 54.696C1312.63 54.4133 1312.95 53.954 1313.31 53.318C1313.73 52.682 1314.19 52.1167 1314.68 51.622C1316.31 49.7847 1317.33 48.336 1317.76 47.276C1318.18 46.1453 1318 44.944 1317.23 43.672C1316.94 42.8947 1316.59 42.4707 1316.17 42.4C1315.74 42.3293 1314.86 42.5767 1313.52 43.142C1312.67 43.6367 1311.75 44.4493 1310.76 45.58C1309.77 46.7107 1308.75 47.9827 1307.69 49.396C1306.7 50.8093 1305.78 52.258 1304.93 53.742C1304.08 55.226 1303.38 56.5687 1302.81 57.77C1302.32 58.9713 1302.07 59.9253 1302.07 60.632C1302.07 60.9147 1302.14 61.162 1302.28 61.374C1302.49 61.586 1302.6 61.692 1302.6 61.692Z" fill="#B8C318"/>
<path d="M1380.82 72.08C1379.76 72.08 1378.74 71.762 1377.75 71.126C1376.76 70.4193 1375.95 69.4653 1375.31 68.264C1374.67 66.992 1374.36 65.508 1374.36 63.812C1374.36 62.752 1374.53 61.268 1374.89 59.36C1375.31 57.3813 1375.91 54.908 1376.69 51.94C1376.83 50.9507 1376.93 50.3147 1377.01 50.032C1377.15 49.7493 1377.22 49.4667 1377.22 49.184C1377.22 49.0427 1377.18 48.9367 1377.11 48.866C1377.11 48.7247 1377.04 48.654 1376.9 48.654C1376.33 48.654 1375.56 49.0427 1374.57 49.82C1373.65 50.5267 1372.59 51.3747 1371.39 52.364C1371.18 52.5053 1370.93 52.682 1370.65 52.894C1370.43 53.106 1370.19 53.318 1369.9 53.53C1369.69 53.742 1369.44 53.954 1369.16 54.166C1368.45 54.59 1367.36 55.4027 1365.88 56.604C1364.46 57.8053 1362.98 59.0773 1361.42 60.42C1359.94 61.7627 1358.63 62.8933 1357.5 63.812C1356.94 64.236 1356.44 64.5893 1356.02 64.872C1355.66 65.1547 1355.42 65.296 1355.28 65.296C1355.13 65.296 1354.57 65.1193 1353.58 64.766C1352.66 64.342 1351.74 63.7767 1350.82 63.07C1349.98 62.2927 1349.55 61.4093 1349.55 60.42C1349.55 59.784 1349.8 58.512 1350.29 56.604C1350.86 54.696 1351.64 52.4347 1352.63 49.82C1353.61 47.2053 1354.75 44.5553 1356.02 41.87C1356.3 41.234 1356.51 40.386 1356.65 39.326C1356.79 38.266 1356.94 37.2413 1357.08 36.252C1357.29 35.192 1357.64 34.4147 1358.14 33.92C1358.35 33.5667 1358.6 33.3193 1358.88 33.178C1359.23 32.966 1359.59 32.86 1359.94 32.86C1360.65 32.86 1361.32 33.0367 1361.95 33.39C1362.59 33.6727 1363.19 34.1673 1363.76 34.874C1364.82 36.0047 1365.38 37.3473 1365.45 38.902C1365.59 40.386 1365.49 41.8347 1365.13 43.248C1364.78 44.6613 1364.39 45.8273 1363.97 46.746C1363.54 47.594 1363.33 47.9473 1363.33 47.806C1363.61 47.6647 1364 47.3113 1364.5 46.746C1365.06 46.1807 1366.02 45.5093 1367.36 44.732C1369.2 43.3187 1370.61 42.3293 1371.6 41.764C1372.59 41.128 1373.33 40.6687 1373.83 40.386C1374.39 40.1033 1374.89 39.7853 1375.31 39.432C1375.66 39.1493 1375.91 38.9727 1376.05 38.902C1376.26 38.8313 1376.37 38.796 1376.37 38.796C1376.58 38.796 1376.93 38.6547 1377.43 38.372C1377.99 38.0893 1378.52 37.948 1379.02 37.948C1379.73 37.948 1380.47 38.1247 1381.25 38.478C1382.02 38.7607 1382.69 39.1847 1383.26 39.75C1383.82 40.2447 1384.11 40.7747 1384.11 41.34C1384.11 41.552 1384.18 41.7287 1384.32 41.87C1384.46 42.0113 1384.6 42.188 1384.74 42.4C1385.1 42.824 1385.49 43.4247 1385.91 44.202C1386.4 44.9087 1386.65 46.0747 1386.65 47.7C1386.65 48.8307 1386.4 50.4913 1385.91 52.682C1385.41 54.8727 1384.88 57.028 1384.32 59.148C1383.75 61.3387 1383.47 63.1053 1383.47 64.448C1383.54 65.72 1383.68 66.7093 1383.9 67.416C1384.11 68.052 1384.21 68.582 1384.21 69.006C1384.21 69.5713 1383.93 70.2427 1383.37 71.02C1382.8 71.7267 1381.95 72.08 1380.82 72.08Z" fill="#B8C318"/>
<path d="M1425.87 73.352C1425.59 73.0693 1425.16 72.716 1424.6 72.292C1424.03 71.7973 1423.61 71.3027 1423.33 70.808C1423.18 70.596 1422.83 70.2073 1422.27 69.642C1421.7 69.006 1421.14 68.4053 1420.57 67.84C1420 67.204 1419.62 66.8153 1419.4 66.674C1419.26 66.3207 1419.02 65.932 1418.66 65.508C1418.31 65.0133 1417.92 64.5187 1417.5 64.024C1417.07 63.4587 1416.58 62.9287 1416.01 62.434C1415.23 61.374 1414.6 60.5613 1414.1 59.996C1413.68 59.4307 1413.33 59.148 1413.04 59.148C1413.04 59.148 1412.83 59.8193 1412.41 61.162C1411.98 62.434 1411.52 63.918 1411.03 65.614C1410.54 67.2393 1410.11 68.582 1409.76 69.642C1409.47 70.1367 1409.19 70.5253 1408.91 70.808C1408.63 71.0907 1408.34 71.3027 1408.06 71.444C1407.85 71.5853 1407.6 71.6913 1407.32 71.762C1407.04 71.762 1406.75 71.762 1406.47 71.762C1405.69 71.762 1404.7 71.4087 1403.5 70.702C1402.3 69.9953 1401.7 68.9707 1401.7 67.628C1401.42 66.6387 1401.77 64.4833 1402.76 61.162C1403.75 57.8407 1405.27 53.6007 1407.32 48.442C1407.6 47.382 1407.96 46.2867 1408.38 45.156C1408.8 43.9547 1409.16 42.9653 1409.44 42.188C1410.5 38.7253 1411.67 35.5453 1412.94 32.648C1414.21 29.68 1415.62 26.394 1417.18 22.79C1417.81 21.518 1418.27 20.5993 1418.56 20.034C1418.84 19.398 1419.16 18.762 1419.51 18.126C1419.86 17.4193 1420.39 16.3947 1421.1 15.052C1422.65 12.1547 1423.89 9.89333 1424.81 8.268C1425.73 6.64267 1426.44 5.44133 1426.93 4.664C1427.42 3.88666 1427.85 3.32133 1428.2 2.968C1428.56 2.61467 1429.12 2.36733 1429.9 2.226C1430.68 2.08467 1431.45 2.08467 1432.23 2.226C1433.08 2.29666 1433.68 2.544 1434.03 2.968C1434.6 3.53333 1435.02 4.09867 1435.3 4.664C1435.59 5.15867 1435.59 5.86533 1435.3 6.784C1435.09 7.632 1434.46 8.93933 1433.4 10.706C1432.83 11.978 1432.37 12.8967 1432.02 13.462C1431.66 14.0273 1431.31 14.5927 1430.96 15.158C1430.6 15.7233 1430.04 16.7127 1429.26 18.126C1429.19 18.4087 1429.05 18.7267 1428.84 19.08C1428.7 19.3627 1428.52 19.6453 1428.31 19.928C1428.1 20.14 1427.88 20.246 1427.67 20.246C1427.67 20.458 1427.57 20.882 1427.35 21.518C1427.14 22.154 1426.89 22.7547 1426.61 23.32C1426.4 24.0973 1426.05 24.9453 1425.55 25.864C1425.13 26.712 1424.81 27.4187 1424.6 27.984C1424.03 29.3267 1423.26 30.952 1422.27 32.86C1421.35 34.6973 1420.78 36.1813 1420.57 37.312C1420.57 37.4533 1420.68 37.4887 1420.89 37.418C1421.1 37.2767 1421.35 37.1 1421.63 36.888C1421.98 36.6053 1422.3 36.3933 1422.58 36.252C1424.21 34.98 1425.94 33.7787 1427.78 32.648C1429.69 31.5173 1431.28 30.846 1432.55 30.634C1433.25 30.422 1433.89 30.316 1434.46 30.316C1435.02 30.2453 1435.55 30.2453 1436.05 30.316C1436.54 30.3867 1437.04 30.528 1437.53 30.74C1438.31 31.2347 1439.01 32.1533 1439.65 33.496C1440.29 34.8387 1440.74 36.1813 1441.03 37.524C1441.03 38.16 1440.71 39.326 1440.07 41.022C1439.51 42.6473 1438.8 44.2727 1437.95 45.898C1437.18 47.4527 1436.43 48.5127 1435.73 49.078C1435.37 49.2193 1435.06 49.3607 1434.77 49.502C1434.56 49.6433 1434.39 49.7847 1434.24 49.926C1434.17 49.9967 1434.14 50.032 1434.14 50.032C1434.14 50.3147 1434 50.668 1433.71 51.092C1433.5 51.516 1433.11 51.8693 1432.55 52.152C1432.27 52.4347 1431.95 52.788 1431.59 53.212C1431.24 53.636 1431.06 53.954 1431.06 54.166C1431.06 54.166 1431.06 54.272 1431.06 54.484C1431.06 54.6253 1431.06 54.696 1431.06 54.696C1430.78 54.696 1430.53 54.7313 1430.32 54.802C1430.18 54.802 1429.72 55.0847 1428.94 55.65C1428.17 56.4273 1427.6 56.8513 1427.25 56.922C1426.96 56.9927 1426.54 57.134 1425.98 57.346C1425.69 57.6287 1425.34 57.8053 1424.92 57.876C1424.56 57.9467 1424.39 58.1233 1424.39 58.406C1424.39 58.6887 1424.67 59.2187 1425.23 59.996C1425.8 60.7733 1426.47 61.6213 1427.25 62.54C1428.1 63.4587 1428.91 64.3067 1429.69 65.084C1430.46 65.8613 1431.06 66.3913 1431.49 66.674C1431.98 66.886 1432.34 67.2747 1432.55 67.84C1432.76 68.4053 1432.87 69.006 1432.87 69.642C1432.94 70.278 1432.9 70.8787 1432.76 71.444C1432.69 72.0093 1432.58 72.4333 1432.44 72.716C1432.3 72.8573 1431.81 73.034 1430.96 73.246C1430.18 73.5287 1429.3 73.7053 1428.31 73.776C1427.39 73.8467 1426.58 73.7053 1425.87 73.352ZM1419.72 53.106C1420.08 52.8233 1420.71 52.2933 1421.63 51.516C1422.62 50.7387 1423.68 49.8907 1424.81 48.972C1425.94 47.9827 1426.96 47.0287 1427.88 46.11C1428.87 45.1913 1429.58 44.4847 1430 43.99C1430.5 43.4953 1431.03 42.6827 1431.59 41.552C1432.16 40.4213 1432.27 39.5027 1431.91 38.796C1431.84 38.5133 1431.31 38.69 1430.32 39.326C1429.33 39.962 1428.06 40.6687 1426.51 41.446C1425.3 42.1527 1423.96 42.9653 1422.48 43.884C1421.06 44.732 1419.72 45.686 1418.45 46.746C1417.18 47.7353 1416.19 48.8307 1415.48 50.032C1415.34 50.5267 1415.48 51.092 1415.91 51.728C1416.33 52.364 1416.9 52.8587 1417.6 53.212C1418.31 53.4947 1419.02 53.4593 1419.72 53.106Z" fill="#B8C318"/>
<path d="M114.655 253.174C119.465 257.074 120.375 262.534 115.695 266.824C111.275 270.984 106.595 270.334 102.695 265.394C99.185 260.844 94.895 256.034 90.475 251.354V268.384C90.475 284.374 73.835 287.234 55.245 278.524C52.645 277.354 51.865 275.144 52.645 272.544C53.425 269.944 55.115 268.904 58.235 269.294C69.025 270.464 70.715 269.684 70.715 263.184V253.694C66.815 257.334 62.525 260.584 58.365 263.054C54.725 265.134 51.345 265.264 48.875 263.054C49.265 266.304 47.705 268.254 44.195 269.294C39.905 270.594 36.915 269.034 36.005 264.744C34.315 257.074 31.975 249.664 30.025 244.074C29.115 241.474 30.025 239.784 31.975 238.744C34.055 237.834 35.745 238.614 37.305 240.564C40.295 244.334 43.415 249.274 45.885 254.604C46.275 251.744 48.355 249.274 51.475 248.494C57.325 246.934 64.085 244.594 70.715 241.344V215.864H49.135C45.755 215.864 43.805 213.914 43.805 210.534C43.805 207.154 45.755 205.204 49.135 205.204H81.245L82.805 199.224H67.595C65.645 203.384 61.745 204.814 56.675 203.774C51.345 202.734 49.785 199.484 51.215 194.414C53.815 184.794 56.675 172.704 58.105 166.594C59.145 162.174 63.825 160.484 68.245 161.134C73.055 161.914 75.915 164.904 75.395 169.064H87.615C89.825 165.554 94.115 163.994 98.795 164.904C103.865 165.944 107.245 169.714 105.815 176.734C104.515 182.974 101.265 195.324 98.275 205.204H112.315C115.695 205.204 117.645 207.154 117.645 210.534C117.645 213.914 115.695 215.864 112.315 215.864H90.475V235.754C93.335 231.594 95.9351 227.044 98.015 222.624C100.355 218.074 105.165 216.644 109.455 219.504C114.005 222.494 114.525 227.044 110.885 230.814C106.595 235.364 101.915 239.264 97.755 241.994C104.125 245.374 109.715 249.144 114.655 253.174ZM8.96504 223.664H11.435C15.075 218.204 18.325 212.874 21.185 207.674C17.935 208.974 14.555 210.144 11.305 210.924C5.45504 212.354 1.03504 209.234 0.645039 203.124C0.255039 197.534 3.37504 193.894 8.70504 194.154C11.695 184.664 13.515 176.344 14.685 168.544C15.595 162.434 20.925 160.354 26.385 161.394C31.975 162.434 34.445 167.114 32.755 172.314C30.415 179.334 25.475 188.044 20.405 194.804C22.745 194.934 25.215 194.934 27.555 195.064C29.245 191.294 30.805 187.784 32.105 184.274C34.185 178.554 39.385 177.254 44.065 179.204C49.265 181.414 51.475 185.964 48.485 191.294C42.505 201.954 34.705 212.874 24.565 223.014C27.815 222.884 30.935 222.494 34.055 222.104C33.795 221.324 33.665 220.414 33.405 219.634C32.625 216.644 33.535 214.694 35.745 213.784C38.085 212.874 39.775 213.784 41.465 215.994C44.715 220.284 47.705 225.874 49.915 231.464C51.735 235.884 50.175 239.654 45.365 240.954C40.815 242.124 37.825 240.174 37.045 235.884L36.005 230.944C28.465 234.974 20.405 237.964 11.435 240.564C5.19504 242.384 0.775039 239.524 0.125039 233.544C-0.654961 227.824 2.20504 223.794 8.96504 223.664ZM70.585 188.824H85.535C86.185 185.834 86.8351 183.234 87.225 181.154C87.485 180.114 86.835 179.464 85.795 179.464H73.055C72.275 182.584 71.495 185.704 70.585 188.824ZM64.995 240.174C60.835 242.774 56.025 241.474 54.465 237.314C52.905 233.154 50.955 228.344 49.135 224.834C47.835 222.364 48.355 220.284 50.175 218.724C51.995 217.164 54.335 217.424 56.415 219.114C60.705 222.624 64.215 226.004 67.075 230.164C69.675 233.934 68.765 237.834 64.995 240.174ZM26.905 244.594C29.895 251.614 32.755 261.104 34.185 269.294C35.095 274.364 33.275 277.224 28.205 277.744C23.135 278.264 20.015 276.184 20.015 270.724C20.015 262.274 19.495 252.914 18.585 246.414C18.325 243.424 19.495 241.734 21.965 241.214C24.435 240.694 25.865 242.124 26.905 244.594ZM10.915 243.034C13.515 243.164 14.945 245.114 15.335 248.234C16.635 257.204 17.025 266.044 16.635 274.234C16.375 280.214 11.955 282.814 6.10504 281.384C0.645039 280.084 -1.04496 276.314 0.645039 271.374C3.37504 263.704 4.93504 256.034 6.10504 247.324C6.49504 244.334 8.57504 242.904 10.915 243.034Z" fill="#594A39"/>
<path d="M265.585 244.724C271.045 274.494 265.975 278.914 244.135 279.564C222.815 280.214 204.485 280.344 188.105 279.694C166.135 278.784 161.975 275.274 161.975 257.204V216.124C159.895 217.554 157.945 218.724 155.995 219.764C153.005 221.324 150.145 220.934 148.455 218.204C146.765 215.604 147.285 213.134 150.015 210.664C161.455 200.524 171.725 184.014 177.965 167.244C180.565 160.354 186.545 158.664 193.175 161.264C198.895 163.474 200.325 168.414 198.505 174.004H213.325C217.485 170.364 223.985 169.584 228.795 172.054C234.125 174.784 236.465 180.114 231.915 187.524C229.835 190.904 226.975 194.414 223.855 197.534H244.915C250.375 197.534 253.365 200.524 253.365 205.984V232.244C253.365 237.704 250.375 240.694 244.915 240.694H182.515V249.664C182.515 259.544 183.685 260.714 193.955 261.234C209.295 262.014 228.275 261.884 242.445 261.234C253.495 260.714 254.925 259.024 254.925 245.634C254.925 241.994 256.875 240.044 259.735 240.044C262.855 240.044 264.935 241.474 265.585 244.724ZM212.285 187.784C212.675 186.614 212.025 185.964 210.985 185.964H192.005C189.405 189.864 186.285 193.894 182.905 197.534H207.995C209.815 194.154 211.115 191.164 212.285 187.784ZM198.505 228.994V209.234H184.075C183.165 209.234 182.515 209.884 182.515 210.794V228.994H198.505ZM234.125 210.794C234.125 209.884 233.475 209.234 232.565 209.234H218.005V228.994H232.045C233.735 228.994 234.125 228.474 234.125 226.784V210.794Z" fill="#594A39"/>
<path d="M398.835 198.054C404.295 198.054 407.285 201.044 407.285 206.504V266.824C407.285 282.424 392.595 287.234 374.915 279.044C371.795 277.614 370.755 275.664 371.405 273.064C372.055 270.594 373.615 269.424 376.735 269.814C385.965 270.854 386.745 269.294 386.745 263.964V251.744H356.195V274.364C356.195 280.214 352.555 283.334 345.925 283.334C339.295 283.334 335.655 280.214 335.655 274.364V206.504C335.655 201.044 338.645 198.054 344.105 198.054H362.045V169.584C362.045 163.994 365.555 161.004 371.925 161.004C378.295 161.004 381.805 163.994 381.805 169.584V198.054H398.835ZM327.985 172.834C333.575 177.384 334.485 182.454 329.675 187.134C324.865 191.814 319.275 191.034 315.245 185.184C311.865 180.244 307.185 174.394 303.675 170.104C301.855 167.764 301.725 165.424 303.285 163.474C304.845 161.524 307.185 161.264 309.655 162.174C315.115 164.124 322.655 168.544 327.985 172.834ZM386.095 195.194C383.625 193.374 383.235 191.164 384.535 188.304C386.485 184.014 388.565 179.074 390.775 172.444C392.985 165.944 397.925 163.604 403.775 166.334C410.145 169.324 410.405 175.304 406.245 180.894C401.435 187.394 397.535 191.554 393.245 194.804C390.645 196.754 388.565 197.014 386.095 195.194ZM353.985 194.934C348.265 198.054 343.845 195.974 341.635 189.214C339.945 184.144 337.735 178.684 335.395 173.094C334.095 169.844 334.875 167.634 337.215 166.074C339.555 164.514 342.155 165.034 344.495 167.114C348.915 171.014 353.595 176.474 357.105 181.544C361.135 187.264 359.445 191.944 353.985 194.934ZM311.735 214.564C308.095 209.884 303.675 204.164 300.165 200.394C297.955 198.054 297.955 195.844 299.385 193.764C300.815 191.684 303.285 191.164 305.885 192.204C311.345 194.284 319.145 198.054 323.955 201.564C330.065 205.984 330.455 210.924 325.905 215.864C321.225 220.934 315.895 220.024 311.735 214.564ZM357.755 208.714C356.845 208.714 356.195 209.364 356.195 210.274V219.634H386.745V210.274C386.745 209.364 386.095 208.714 385.185 208.714H357.755ZM326.945 223.274C329.285 223.924 330.455 226.134 330.065 229.384C328.245 243.684 324.345 260.714 320.445 271.244C317.455 279.304 311.735 281.904 304.975 278.394C298.085 274.884 297.305 269.684 301.985 262.274C308.095 252.654 314.985 239.264 321.095 226.264C322.395 223.534 324.605 222.624 326.945 223.274ZM356.195 241.344H386.745V230.034H356.195V241.344Z" fill="#594A39"/>
<path d="M552.755 266.824C558.085 268.644 560.685 272.674 558.345 278.134C556.135 283.464 551.715 284.504 546.515 282.164C534.295 276.314 522.855 271.374 514.535 268.644C511.545 267.734 510.375 265.394 511.155 262.794C511.415 262.014 511.675 261.364 512.195 260.844H494.775L495.165 261.494C498.025 266.044 496.725 270.984 490.745 273.584C480.215 278.004 466.825 282.164 451.355 282.814C448.495 282.944 446.675 281.644 446.285 278.914C445.895 276.054 447.195 274.624 450.315 273.714C461.885 270.334 472.545 265.654 480.995 260.844H469.815C464.355 260.844 461.365 257.854 461.365 252.394V224.054C458.505 224.964 455.515 225.744 452.265 226.524C449.145 227.174 447.065 226.004 446.415 223.274C445.765 220.804 446.675 218.724 449.535 217.684C459.025 214.044 465.915 209.364 470.855 202.864H458.245C453.045 202.864 450.055 201.174 451.095 195.064L453.045 187.004C454.215 182.064 456.685 181.154 463.055 181.284H479.305C479.565 180.114 479.695 178.814 479.955 177.514H455.515C452.655 177.514 450.965 175.824 450.965 172.964C450.965 170.104 452.655 168.414 455.515 168.414H480.735V167.764C480.995 162.304 484.375 159.704 490.355 159.704C496.335 159.704 499.845 162.174 499.715 167.894V168.414H507.515V168.024C507.515 162.174 510.895 159.704 517.005 159.704C523.115 159.704 526.495 162.174 526.495 168.024V168.414H544.955C550.415 168.414 553.405 171.404 553.405 176.864V181.674C553.405 187.134 550.415 190.124 544.955 190.124H526.495V194.284H551.325C556.915 194.284 559.385 197.014 558.995 202.084C558.735 205.334 558.475 208.064 557.695 210.924C556.265 216.124 551.455 218.074 545.475 217.684C545.995 218.854 546.255 220.284 546.255 221.974V252.394C546.255 257.854 543.265 260.844 537.805 260.844H527.145C535.595 262.144 544.825 264.224 552.755 266.824ZM499.065 177.514L498.675 181.284H507.515V177.514H499.065ZM533.775 177.514H526.495V181.284H533.775C534.685 181.284 535.205 180.894 535.205 179.984V178.944C535.205 178.034 534.685 177.514 533.775 177.514ZM470.075 194.284H475.665C476.315 192.984 476.705 191.554 477.225 190.124H470.725C469.685 190.124 469.035 190.124 468.645 191.034L468.255 192.854C468.125 194.024 468.775 194.284 470.075 194.284ZM507.515 194.284V190.124H496.725C496.335 191.554 495.815 192.984 495.295 194.284H507.515ZM491.135 202.864C488.535 206.894 485.415 210.404 481.645 213.524H531.435C530.265 212.484 530.135 210.924 530.655 209.234C531.305 207.284 532.865 206.504 535.465 206.894C537.935 207.284 539.495 207.284 539.755 205.984C539.885 205.334 540.015 204.814 540.015 204.164C540.015 203.124 539.625 202.864 538.585 202.864H526.495V206.244C526.495 210.924 523.115 212.874 517.005 212.874C510.895 212.874 507.515 210.924 507.515 206.244V202.864H491.135ZM481.125 226.524H526.495V224.184C526.495 223.274 525.845 222.624 524.935 222.624H482.685C481.775 222.624 481.125 223.274 481.125 224.184V226.524ZM526.495 235.104H481.125V239.134H526.495V235.104ZM482.685 251.744H524.935C525.845 251.744 526.495 251.094 526.495 250.184V247.844H481.125V250.184C481.125 251.094 481.775 251.744 482.685 251.744Z" fill="#594A39"/>
<path d="M645.835 193.894C641.675 203.254 636.345 212.744 629.845 221.194V273.584C629.845 280.474 626.075 283.204 619.185 283.204C612.295 283.204 608.525 280.474 608.525 273.584V241.994C606.055 243.684 603.585 245.114 600.985 246.414C598.125 247.844 595.135 247.454 593.315 244.724C591.755 242.384 591.885 239.004 594.225 236.924C606.315 225.744 615.675 211.704 622.825 193.894H600.335C596.305 193.894 594.095 191.684 594.095 187.654C594.095 183.624 596.305 181.414 600.335 181.414H627.375C628.935 176.734 630.365 171.924 631.665 166.854C633.225 160.874 637.905 158.274 644.925 159.834C652.205 161.394 654.545 165.684 653.115 172.054C652.465 175.044 651.685 178.164 650.645 181.414H703.295C707.325 181.414 709.535 183.624 709.535 187.654C709.535 191.684 707.325 193.894 703.295 193.894H645.835ZM701.735 266.564C705.765 266.564 707.975 268.774 707.975 272.804C707.975 276.834 705.765 279.044 701.735 279.044H638.425C634.395 279.044 632.185 276.704 632.185 272.804C632.185 268.904 634.395 266.564 638.425 266.564H658.055V237.574H640.765C636.865 237.574 634.655 235.364 634.655 231.334C634.655 227.304 636.865 225.354 640.765 225.354H658.055V208.064C658.055 201.824 661.825 198.314 668.585 198.314C675.345 198.314 679.115 201.824 679.115 208.064V225.354H696.795C700.695 225.354 702.905 227.694 702.905 231.594C702.905 235.494 700.695 237.574 696.795 237.574H679.115V266.564H701.735Z" fill="#594A39"/>
<path d="M748.535 201.694C745.805 203.254 743.335 203.384 741.775 201.174C740.215 198.964 740.605 196.624 742.425 194.414C749.445 185.964 754.775 175.564 757.765 165.944C759.455 160.614 764.785 158.274 770.505 160.614C775.575 162.564 777.135 166.464 775.445 171.404H797.415C800.795 171.404 802.615 173.354 802.615 176.994C802.615 180.634 800.795 182.584 797.415 182.584H787.925C788.705 183.494 789.485 184.404 790.135 185.444C793.385 190.124 791.175 194.154 785.845 195.714C780.775 197.144 777.005 195.194 775.965 189.734C775.445 187.134 775.055 184.794 774.535 182.584H769.335C763.745 190.644 756.595 197.274 748.535 201.694ZM852.535 171.404C855.915 171.404 857.735 173.354 857.735 176.994C857.735 180.634 855.915 182.584 852.535 182.584H839.535C840.185 183.364 840.835 184.274 841.485 185.184C844.995 190.124 842.655 194.024 837.585 195.714C832.385 197.404 828.225 195.324 827.315 189.864C826.925 187.134 826.405 184.794 826.015 182.584H820.165C816.395 187.784 811.845 192.074 805.995 195.844C803.525 197.404 801.055 197.274 799.105 195.324C797.025 193.244 797.935 190.644 799.365 188.434C803.395 181.934 805.995 175.044 808.595 166.334C810.285 160.614 815.095 159.054 820.945 160.874C826.145 162.434 827.835 166.854 826.275 171.404H852.535ZM846.685 233.024C852.535 233.024 855.135 236.274 854.875 241.994C854.615 249.404 853.835 255.904 852.795 261.494C850.195 275.404 836.155 278.394 819.515 269.424C816.915 267.994 816.005 265.784 816.785 263.184C817.565 260.714 819.515 259.674 822.765 260.064C830.825 261.104 832.775 260.194 833.425 256.554C833.945 253.694 834.465 249.664 834.725 244.984C834.725 243.944 834.335 243.424 833.295 243.424H812.105V274.104C812.105 280.084 808.465 283.204 801.705 283.204C794.945 283.204 791.305 280.084 791.305 274.104V258.114C780.385 267.474 764.395 275.404 748.925 278.784C745.545 279.434 743.465 278.394 742.555 275.664C741.775 272.934 743.075 270.724 746.195 269.294C760.885 262.664 772.975 254.344 784.025 243.424H768.035L767.645 244.464C765.825 250.054 761.795 252.264 756.075 250.704C750.095 249.144 748.275 244.984 749.965 239.134C751.785 232.894 753.995 223.924 755.555 217.554C756.985 211.574 761.275 209.624 766.605 210.794C770.505 211.704 772.845 213.264 773.625 215.994H791.305V207.414H759.585C756.335 207.414 754.515 205.594 754.515 202.344C754.515 199.094 756.335 197.274 759.585 197.274H840.445C845.905 197.274 848.895 200.264 848.895 205.724V217.684C848.895 223.144 845.905 226.134 840.445 226.134H812.105V233.024H846.685ZM812.105 207.414V215.994H827.835C828.745 215.994 829.395 215.344 829.395 214.434V208.974C829.395 208.064 828.745 207.414 827.835 207.414H812.105ZM772.455 226.134C772.065 228.344 771.415 230.684 770.895 233.024H791.305V226.134H772.455Z" fill="#594A39"/>
<path d="M900.635 224.054C895.175 224.054 892.445 221.194 892.445 215.994C892.445 210.794 895.175 207.934 900.635 207.934H996.185C1001.52 207.934 1004.38 210.794 1004.38 215.994C1004.38 221.194 1001.52 224.054 996.185 224.054H900.635Z" fill="#594A39"/>
<path d="M1089.79 256.424C1091.09 259.024 1090.7 261.494 1088.1 263.184C1078.48 269.424 1063.92 275.144 1050.01 278.914C1043.64 280.604 1039.35 278.914 1038.18 273.064C1037.01 266.954 1039.09 263.054 1045.46 262.014C1049.1 261.494 1052.61 260.844 1055.99 260.324V253.694C1055.21 255.254 1053.52 256.294 1051.18 256.814C1047.02 257.724 1044.16 256.034 1043.51 251.354C1042.85 246.414 1042.08 239.784 1041.43 234.324C1041.17 231.724 1042.34 230.034 1044.55 229.384C1046.76 228.734 1048.96 229.514 1050.14 231.724C1052.47 236.404 1054.69 241.344 1055.99 247.064V226.914H1045.33C1041.82 226.914 1039.87 224.964 1039.87 221.454C1039.87 217.944 1041.82 215.994 1045.33 215.994H1055.99V206.634H1052.61C1051.31 206.634 1050.14 206.374 1049.36 205.724C1047.8 206.894 1046.24 207.934 1044.68 208.844C1042.21 210.274 1039.99 210.014 1038.31 207.934C1036.62 205.854 1036.88 203.774 1038.7 201.564C1045.98 193.244 1052.47 181.414 1056.77 167.504C1058.33 162.434 1062.49 159.964 1068.6 161.654C1073.8 163.084 1075.75 166.854 1074.71 171.534C1080.04 174.524 1085.36 178.554 1089.27 182.454C1092.91 186.354 1093.04 190.774 1088.75 194.414C1087.19 195.714 1085.5 196.494 1083.94 196.494C1085.62 197.404 1086.54 198.964 1086.54 201.304C1086.54 204.684 1084.59 206.634 1081.21 206.634H1074.45V215.994H1084.2C1087.71 215.994 1089.66 217.944 1089.66 221.454C1089.66 224.964 1087.71 226.914 1084.2 226.914H1074.45V248.754C1074.45 248.494 1074.58 248.364 1074.58 248.104C1075.62 244.464 1076.4 240.044 1077.31 234.844C1078.09 230.164 1080.95 228.474 1085.11 229.384C1089.14 230.294 1090.57 233.414 1089.14 237.444C1087.06 243.554 1084.72 248.234 1082.25 251.874C1080.69 254.084 1078.86 254.474 1076.79 253.434C1075.48 252.784 1074.71 251.874 1074.45 250.704V256.554L1084.07 254.214C1086.93 253.434 1088.74 254.214 1089.79 256.424ZM1151.15 265.004C1156.09 268.644 1156.87 274.234 1152.97 279.044C1148.94 283.984 1142.7 284.764 1137.37 279.434C1124.76 266.824 1117.87 244.984 1116.31 221.064H1110.98V261.494L1118.13 259.934C1120.73 259.284 1122.55 260.194 1123.46 262.404C1124.37 264.744 1124.23 266.564 1122.03 268.124C1113.83 273.844 1102.27 278.784 1090.7 281.904C1084.98 283.464 1080.56 281.904 1079.26 276.314C1078.08 270.984 1080.17 267.084 1086.54 266.044C1088.61 265.654 1090.57 265.394 1092.52 265.004V175.304C1092.52 169.844 1095.51 166.854 1100.97 166.854H1141.27C1146.72 166.854 1149.72 169.844 1149.72 175.304V212.614C1149.72 218.074 1146.72 221.064 1141.27 221.064H1126.32C1127.49 227.304 1129.05 233.284 1131.26 238.744C1133.59 236.014 1135.55 233.154 1137.5 230.034C1140.23 225.614 1144.65 224.314 1149.07 227.694C1153.49 231.204 1153.36 235.884 1148.94 239.784C1145.56 242.904 1141.27 245.764 1136.2 248.364C1140.1 254.864 1145.04 260.324 1151.15 265.004ZM1110.98 179.074V188.824H1131.52V179.074C1131.52 178.164 1130.87 177.514 1129.96 177.514H1112.54C1111.62 177.514 1110.98 178.164 1110.98 179.074ZM1080.95 195.974C1079.39 195.324 1078.09 193.894 1076.92 191.944C1075.1 188.824 1072.89 185.314 1070.29 181.674C1067.43 186.874 1063.92 191.684 1060.02 195.974H1080.95ZM1110.98 199.224V210.404H1129.96C1130.87 210.404 1131.52 209.754 1131.52 208.844V199.224H1110.98Z" fill="#594A39"/>
<path d="M1194.95 205.334C1192.22 206.764 1189.89 206.374 1188.2 204.164C1186.64 202.084 1186.9 199.614 1189.1 197.404C1196.78 189.474 1203.93 178.944 1209.12 167.634C1212.11 161.004 1217.19 159.574 1223.17 162.304C1228.76 164.904 1229.93 170.364 1225.9 176.474C1217.83 188.434 1206.27 199.094 1194.95 205.334ZM1243.7 178.814C1239.93 178.814 1237.85 176.734 1237.85 172.834C1237.85 168.934 1239.93 166.854 1243.7 166.854H1294.15C1297.92 166.854 1299.99 168.934 1299.99 172.834C1299.99 176.734 1297.92 178.814 1294.15 178.814H1243.7ZM1229.15 190.644C1234.47 193.244 1235.65 198.704 1231.35 205.464C1228.89 209.364 1226.03 213.264 1222.78 216.904V273.974C1222.78 279.954 1219.14 283.074 1212.38 283.074C1205.61 283.074 1201.97 279.954 1201.97 273.974V235.364C1199.24 237.054 1196.65 238.744 1193.92 240.174C1190.8 241.864 1188.72 241.344 1187.16 239.004C1185.59 236.664 1186.11 234.324 1188.45 232.114C1198.46 223.014 1207.56 210.144 1214.97 195.714C1218.48 188.954 1223.43 187.784 1229.15 190.644ZM1298.05 202.344C1301.69 202.344 1303.77 204.424 1303.77 208.194C1303.77 211.964 1301.69 214.044 1298.05 214.044H1284.92V266.174C1284.92 283.594 1266.97 287.624 1245.14 277.614C1242.02 276.184 1240.97 273.974 1241.62 271.114C1242.28 268.384 1244.48 267.214 1247.99 267.604C1262.43 269.424 1263.85 267.994 1263.85 259.804V214.044H1239.03C1235.26 214.044 1233.31 211.964 1233.31 208.194C1233.31 204.424 1235.26 202.344 1239.03 202.344H1298.05Z" fill="#594A39"/>
</svg>
