<svg width="1034" height="585" viewBox="0 0 1034 585" fill="none" xmlns="http://www.w3.org/2000/svg">
<g clip-path="url(#clip0_75_238)">
<path d="M151.467 285.889C151.467 285.889 97.676 358.064 79.6203 437.846C61.5646 517.628 42.7983 534.287 30.3583 550.289C53.4097 552.532 76.6657 549.336 98.2549 540.955C85.6849 638.076 108.164 736.495 161.655 818.541C161.655 818.541 191.692 856.087 212.942 876.89C224.13 889.284 232.598 903.884 237.803 919.747C246.566 914.461 253.928 907.141 259.262 898.41C264.596 889.678 267.747 879.789 268.449 869.582C268.449 869.582 292.854 950.744 417.404 979.779C417.404 979.779 577.377 1003.63 681.537 982.758C768.575 935.756 844.747 870.974 905.102 792.619C939.27 743.883 959.86 686.941 964.767 627.629C964.767 627.629 975.016 658.125 994.811 661.382C994.959 646.573 996.184 631.791 998.478 617.16C1010.41 569.962 1007.46 520.234 990.035 474.774C971.565 424.442 945.398 377.275 912.463 334.964C928.68 333.177 944.13 327.116 957.236 317.402C957.236 317.402 936.664 310.011 899.735 272.498C862.806 234.984 826.875 193.733 764.738 164.55C764.738 164.55 802.093 102.872 754.271 58.087C741.835 46.5838 726.396 38.8349 709.739 35.7369C680.09 30.055 630.065 31.9642 607.174 99.5091C607.174 99.5091 436.311 59.0086 278.794 162.556C278.794 162.556 221.14 107.459 153.548 165.122C153.14 165.299 100.151 207.578 151.467 285.889Z" fill="#EBB14E"/>
<path d="M272.741 322.035C302.121 273.28 343.691 233.01 393.36 205.186C443.03 177.362 499.089 162.943 556.025 163.345C556.025 163.345 719.333 158.523 797.482 283.887C797.482 283.887 894.906 384.934 866.023 482.302C837.14 579.669 756.783 637.048 643 680.955C529.218 724.863 341.304 749.125 265.254 588.34C264.955 588.324 209.062 468.742 272.741 322.035Z" fill="#F7E6C7"/>
<path d="M359.317 223.166C358.257 224.564 357.584 226.219 357.368 227.96C357.152 229.701 357.4 231.467 358.086 233.081C360.196 237.155 363.237 240.674 366.961 243.353C370.686 246.033 374.99 247.799 379.524 248.506C383.171 249.4 396.727 253.521 387.529 266.802C376.724 282.093 329.532 298.231 287.823 288.409" fill="#EBB14E"/>
<path d="M208.637 273.681C238.549 275.285 264.097 252.344 265.7 222.441C267.303 192.539 244.354 166.998 214.442 165.394C184.53 163.791 158.982 186.732 157.379 216.634C155.776 246.537 178.725 272.078 208.637 273.681Z" fill="#F7E6C7"/>
<path d="M636.848 106.592C636.848 106.592 706.27 130.277 735.295 147.603C735.295 147.603 758.324 111.007 735.551 81.3391C730.574 74.9054 724.216 69.6721 716.947 66.0178C709.679 62.3635 701.683 60.3845 693.549 60.226C675.392 59.9513 651.018 67.6251 636.848 106.592Z" fill="#F7E6C7"/>
<path d="M660.141 348.192C676.857 349.088 691.134 336.268 692.03 319.558C692.926 302.848 680.101 288.575 663.385 287.679C646.67 286.783 632.393 299.603 631.497 316.313C630.601 333.023 643.426 347.296 660.141 348.192Z" fill="#4A1E0E"/>
<path d="M484.999 421.05C501.714 421.946 515.991 409.126 516.887 392.416C517.783 375.705 504.958 361.433 488.243 360.537C471.527 359.64 457.25 372.46 456.355 389.171C455.459 405.881 468.283 420.154 484.999 421.05Z" fill="#4A1E0E"/>
<path d="M606.731 278.824C617.397 275.871 624.352 267.37 622.265 259.837C620.178 252.304 609.839 248.592 599.173 251.546C588.506 254.499 581.551 262.999 583.638 270.532C585.726 278.065 596.064 281.777 606.731 278.824Z" fill="#4A1E0E"/>
<path d="M478.846 330.146C488.995 325.732 494.692 316.34 491.573 309.172C488.453 302.004 477.697 299.772 467.548 304.186C457.399 308.6 451.7 317.988 454.82 325.156C457.939 332.323 468.697 334.56 478.846 330.146Z" fill="#4A1E0E"/>
<path d="M645.793 576.7L642.111 576.502C640.967 576.39 639.856 576.048 638.844 575.503C637.832 574.958 636.94 574.218 636.216 573.325C635.493 572.432 634.953 571.404 634.631 570.301C634.308 569.198 634.209 568.04 634.338 566.898C634.638 564.629 635.805 562.566 637.594 561.137C639.382 559.707 641.653 559.023 643.934 559.23C646.124 559.347 693.619 563.688 701.875 523.307C702.051 522.147 702.46 521.039 703.078 520.043C703.697 519.046 704.513 518.183 705.474 517.51C706.435 516.837 707.522 516.367 708.67 516.127C709.819 515.886 711.004 515.878 712.155 516.109C713.305 516.339 714.396 516.8 715.363 517.465C716.33 518.13 717.153 518.986 717.781 519.978C718.408 520.969 718.826 522.078 719.013 523.236C719.199 524.394 719.15 525.575 718.865 526.713C710.498 569.185 669.389 577.964 645.793 576.7Z" fill="#EAC5AC"/>
<path d="M728.656 332.9L727.363 332.831C725.084 332.364 723.083 331.013 721.801 329.072C720.52 327.132 720.063 324.761 720.529 322.483L726.983 291.486C727.19 290.349 727.623 289.266 728.256 288.299C728.888 287.331 729.707 286.501 730.666 285.854C731.624 285.208 732.701 284.762 733.835 284.538C734.969 284.314 736.137 284.318 737.269 284.551C738.401 284.785 739.476 285.241 740.429 285.895C741.382 286.55 742.193 287.39 742.817 288.363C743.441 289.335 743.864 290.425 744.062 291.563C744.26 292.702 744.228 293.868 743.968 294.994L737.614 325.992C737.176 328.014 736.035 329.819 734.396 331.083C732.757 332.347 730.724 332.99 728.656 332.9Z" fill="#EAC5AC"/>
<path d="M756.768 330.016L755.475 329.946C753.229 329.434 751.271 328.065 750.014 326.135C748.757 324.205 748.298 321.864 748.738 319.604L755.089 288.704C755.555 286.439 756.901 284.45 758.833 283.178C760.764 281.905 763.121 281.45 765.387 281.916C767.652 282.381 769.639 283.727 770.912 285.658C772.185 287.588 772.64 289.947 772.175 292.212L765.826 323.113C765.384 325.152 764.227 326.966 762.568 328.231C760.908 329.496 758.852 330.13 756.768 330.016Z" fill="#EAC5AC"/>
<path d="M405.46 478.071L404.164 478.002C403.039 477.771 401.972 477.32 401.022 476.673C400.073 476.027 399.261 475.202 398.635 474.24C398.008 473.278 397.581 472.202 397.374 471.073C397.167 469.944 397.185 468.781 397.43 467.659L403.779 436.759C404.269 434.501 405.629 432.525 407.567 431.265C409.504 430.004 411.861 429.561 414.124 430.027C415.256 430.245 416.333 430.69 417.289 431.333C418.245 431.975 419.06 432.801 419.689 433.767C420.318 434.732 420.746 435.814 420.947 436.948C421.148 438.083 421.117 439.247 420.859 440.37L414.51 471.27C414.066 473.3 412.91 475.106 411.248 476.354C409.587 477.602 407.533 478.21 405.46 478.071Z" fill="#EAC5AC"/>
<path d="M434.07 475.212L432.777 475.143C431.642 474.924 430.563 474.484 429.602 473.842C428.641 473.201 427.817 472.371 427.18 471.407C426.543 470.443 426.108 469.364 425.895 468.229C425.682 467.094 425.698 465.924 425.943 464.795L432.391 433.9C432.599 432.764 433.032 431.68 433.664 430.713C434.297 429.746 435.116 428.915 436.074 428.269C437.033 427.623 438.109 427.176 439.243 426.952C440.377 426.728 441.545 426.732 442.677 426.966C443.809 427.199 444.882 427.655 445.835 428.31C446.788 428.964 447.602 429.804 448.226 430.777C448.85 431.75 449.273 432.834 449.471 433.973C449.668 435.111 449.636 436.278 449.377 437.404L443.028 468.309C442.589 470.331 441.449 472.131 439.81 473.395C438.171 474.659 436.138 475.303 434.07 475.212Z" fill="#EAC5AC"/>
<path d="M602.959 491.056C602.959 491.056 628.226 548.703 667.174 529.93C706.122 511.157 687.224 468.822 676.991 439.927L617.746 427.568L602.959 491.056Z" fill="#E27E7C"/>
<path d="M545.912 411.639C518.896 420.172 474.62 437.758 460.93 467.767C460.93 467.767 442.762 510.512 484.202 527.207C525.642 543.901 601.966 505.875 618.705 487.907C639.871 465.585 633.288 450.557 631.067 443.551C631.067 443.551 642.245 464.115 702.246 441.879C712.266 438.224 721.693 433.114 730.22 426.71C746.45 414.505 767.385 392.768 753.264 369.353C731.829 333.369 679.348 349.419 632.831 380.862C601.758 401.754 583.363 405.86 574.25 406.369C564.626 406.977 555.112 408.748 545.912 411.639Z" fill="#EAC5AC"/>
<path d="M581.542 385.799C581.542 385.799 543.174 401.211 554.319 441.036C565.464 480.86 630.766 443.535 630.766 443.535C630.766 443.535 673.881 419.698 646.938 389.607C646.938 389.607 624.501 364.845 581.542 385.799Z" fill="#4A1E0E"/>
</g>
<defs>
<clipPath id="clip0_75_238">
<rect width="974.698" height="1118.21" fill="white" transform="translate(59.8594) rotate(3.06855)"/>
</clipPath>
</defs>
</svg>
