<svg width="455" height="345" viewBox="0 0 455 345" fill="none" xmlns="http://www.w3.org/2000/svg">
<path d="M51.8787 178.798C80.058 178.798 102.902 155.954 102.902 127.775C102.902 99.5956 80.058 76.7517 51.8787 76.7517C23.6993 76.7517 0.855469 99.5956 0.855469 127.775C0.855469 155.954 23.6993 178.798 51.8787 178.798Z" fill="#F2D400"/>
<path d="M51.8859 159.815C69.5812 159.815 83.9261 145.471 83.9261 127.775C83.9261 110.08 69.5812 95.7351 51.8859 95.7351C34.1906 95.7351 19.8457 110.08 19.8457 127.775C19.8457 145.471 34.1906 159.815 51.8859 159.815Z" fill="#F8E78F"/>
<path d="M58.9197 111.705C59.0355 111.71 59.1438 111.744 59.2433 111.803C59.3429 111.863 59.4289 111.944 59.4886 112.043C59.5482 112.143 59.5811 112.256 59.5866 112.372C59.5922 112.488 59.5678 112.606 59.518 112.71L57.7132 116.124C57.5551 116.368 57.3258 116.555 57.056 116.663C56.7863 116.771 56.4853 116.795 56.2027 116.727C53.7452 116.055 51.1294 116.343 48.8757 117.531C47.4853 118.109 46.2666 119.045 45.3545 120.243C45.0336 120.755 44.864 121.346 44.864 121.95C44.864 122.554 45.0336 123.145 45.3545 123.657C45.5633 124.085 45.8716 124.456 46.2568 124.736C46.6421 125.016 47.0995 125.199 47.5712 125.265C48.8317 125.509 50.1262 125.509 51.3867 125.265H56.1046C57.7436 125.165 59.3895 125.165 61.0285 125.265C62.5696 125.33 64.0602 125.818 65.3443 126.673C66.8111 127.505 67.9494 128.814 68.5615 130.385C69.056 131.544 69.3069 132.794 69.3069 134.054C69.3069 135.314 69.056 136.558 68.5615 137.717C67.7282 140.02 66.1316 141.972 64.0397 143.244C63.7231 143.434 63.4838 143.731 63.3727 144.083C63.2617 144.435 63.281 144.815 63.4316 145.152L65.0402 148.767C65.0402 148.767 65.0402 149.672 65.0402 149.772L62.2349 150.375C61.9812 150.447 61.7094 150.427 61.4699 150.316C61.2304 150.206 61.0305 150.012 60.9206 149.772L59.2139 146.055C57.1429 146.773 54.98 147.18 52.7893 147.261C51.0653 147.605 49.2952 147.605 47.5712 147.261C46.9685 147.261 46.8603 146.657 47.0611 146.055L48.3657 142.538C48.4104 142.412 48.4813 142.299 48.5717 142.2C48.662 142.101 48.7737 142.021 48.8953 141.964C49.017 141.908 49.1537 141.876 49.2877 141.871C49.4216 141.867 49.5549 141.887 49.68 141.935C52.6067 142.667 55.6969 142.238 58.3115 140.733C62.53 138.925 64.1366 136.616 62.9314 134.005C62.7051 133.56 62.3809 133.173 61.9799 132.877C61.579 132.58 61.1175 132.379 60.6263 132.293C59.3623 132.089 58.0748 132.089 56.8108 132.293H52.0831C50.4441 132.394 48.808 132.394 47.169 132.293C45.6146 132.206 44.0974 131.76 42.7454 130.989C41.3778 130.068 40.3026 128.779 39.6361 127.271C39.1442 126.129 38.8906 124.9 38.8906 123.657C38.8906 122.413 39.1442 121.184 39.6361 120.042C40.3797 117.827 41.9154 115.966 43.9518 114.819C44.1262 114.744 44.2823 114.634 44.4128 114.496C44.5434 114.357 44.6414 114.193 44.7071 114.015C44.7728 113.837 44.8051 113.646 44.7954 113.456C44.7856 113.266 44.7416 113.082 44.658 112.911L43.0494 109.395C43.0494 108.893 43.0475 108.49 43.5497 108.39L46.3647 107.787C46.4899 107.739 46.6231 107.718 46.7571 107.723C46.891 107.727 47.0179 107.76 47.1396 107.816C47.2613 107.872 47.373 107.952 47.4633 108.051C47.5536 108.15 47.6245 108.263 47.6693 108.39L48.8757 111.004C48.9209 111.18 48.9985 111.341 49.1111 111.484C49.2237 111.627 49.3623 111.747 49.5231 111.833C49.6838 111.918 49.8615 111.967 50.0429 111.98C50.2244 111.992 50.4113 111.968 50.5824 111.906C53.277 110.998 56.1844 110.928 58.9197 111.705Z" fill="#5F3621"/>
<path d="M258.269 87.8991C280.607 67.4213 301.802 45.7296 321.75 22.9176C328.982 14.0789 292.919 2.82736 283.477 0.416816C265.095 -1.13079 246.65 2.52672 230.246 10.9659C222.257 15.7391 213.157 18.3304 203.852 18.489C194.546 18.6477 185.359 16.3665 177.212 11.8683C147.08 -2.69543 123.384 -3.09994 124.589 6.54225C127.702 30.8486 170.389 81.3733 171.895 88.2032C168.983 93.1247 138.547 107.585 133.927 110.498C122.315 117.006 111.353 124.609 101.186 133.2C83.1867 149.523 69.4029 169.954 61.0099 192.757C52.5452 215.702 50.2891 240.48 54.4774 264.575C56.6259 277.088 61.9073 288.85 69.8278 298.773C77.7482 308.695 88.0476 316.454 99.7732 321.323C150.87 346.114 209.34 351.084 263.89 335.28C313.005 321.42 363.326 289.785 365.536 233.639C368.549 166.646 306.782 124.861 258.269 87.8991Z" fill="#E0E598"/>
<path opacity="0.91" d="M257.054 233.355C264.086 196.973 241.707 162.056 207.069 155.361C172.43 148.665 138.651 172.728 131.619 209.109C124.587 245.49 146.965 280.408 181.604 287.103C216.242 293.798 250.021 269.736 257.054 233.355Z" fill="#498F71"/>
<path d="M218.105 193.363C219.109 194.367 219.009 195.271 218.105 195.874L211.573 199.993C211.147 200.382 210.599 200.597 210.023 200.597C209.447 200.597 208.889 200.382 208.463 199.993C204.828 196.281 199.895 194.12 194.702 193.966C191.668 193.477 188.562 193.897 185.766 195.173C184.707 195.7 183.8 196.5 183.147 197.487C182.495 198.475 182.119 199.616 182.049 200.798C181.997 201.774 182.177 202.746 182.578 203.637C182.98 204.528 183.588 205.31 184.354 205.918C186.292 207.585 188.503 208.911 190.886 209.836C193.598 210.941 196.514 212.346 199.528 213.853C202.488 215.346 205.365 216.991 208.159 218.777C210.805 220.503 212.953 222.892 214.388 225.707C216.109 228.754 216.743 232.294 216.192 235.75C215.971 238.294 215.244 240.769 214.054 243.028C212.864 245.288 211.24 247.287 209.268 248.909C205.46 252.038 200.735 253.835 195.81 254.029C195.441 254.001 195.063 254.049 194.712 254.166C194.36 254.283 194.04 254.468 193.76 254.71C193.48 254.953 193.249 255.247 193.083 255.578C192.918 255.91 192.824 256.273 192.799 256.643L191.995 264.475C191.995 265.78 191.189 266.181 189.984 265.779L184.462 263.975C184.197 263.929 183.939 263.825 183.716 263.675C183.494 263.526 183.309 263.334 183.167 263.106C183.025 262.879 182.929 262.622 182.892 262.356C182.855 262.09 182.877 261.819 182.951 261.562L183.756 253.528C179.443 252.603 175.258 251.151 171.299 249.208C168.022 247.697 165.057 245.584 162.559 242.979C161.756 242.075 161.957 241.272 162.559 240.468L168.386 235.647C168.573 235.45 168.802 235.294 169.053 235.186C169.303 235.079 169.575 235.025 169.847 235.025C170.119 235.025 170.391 235.079 170.642 235.186C170.892 235.294 171.111 235.45 171.299 235.647C175.706 239.897 181.548 242.336 187.669 242.479C196.91 243.383 201.838 241.073 202.441 235.348C202.52 234.349 202.354 233.346 201.97 232.42C201.586 231.495 200.988 230.671 200.224 230.022C198.287 228.276 196.089 226.853 193.701 225.805C190.99 224.7 188.076 223.295 184.962 221.788C182.034 220.295 179.178 218.655 176.419 216.869C173.798 215.169 171.628 212.856 170.092 210.135C168.568 207.201 167.942 203.886 168.287 200.597C168.464 198.067 169.162 195.6 170.337 193.353C171.513 191.106 173.137 189.124 175.114 187.537C178.656 184.474 183.193 182.8 187.875 182.819C189.783 182.819 190.784 181.814 190.984 180.107L191.789 172.471C191.789 171.165 192.597 170.764 193.701 171.166L199.322 172.976C199.579 173.035 199.823 173.141 200.038 173.295C200.253 173.448 200.437 173.645 200.577 173.868C200.717 174.092 200.808 174.339 200.852 174.599C200.895 174.86 200.892 175.127 200.832 175.384L200.224 181.21C200.133 181.938 200.325 182.674 200.754 183.27C201.182 183.866 201.82 184.281 202.539 184.427C208.558 185.647 214.018 188.78 218.105 193.363Z" fill="#FEFDFC"/>
<path d="M188.471 89.2041C188.471 89.2041 220.21 102.564 238.69 95.2314L188.471 89.2041Z" fill="white"/>
<path d="M225.628 101.66C212.233 101.078 199.045 98.1561 186.659 93.0233C186.127 92.8041 185.641 92.48 185.236 92.0719C184.831 91.6637 184.51 91.178 184.295 90.6447C184.08 90.1115 183.973 89.5424 183.981 88.9675C183.989 88.3925 184.113 87.8219 184.344 87.2951C184.81 86.2137 185.679 85.3569 186.767 84.9067C187.855 84.4565 189.076 84.4509 190.17 84.8871C190.17 84.8871 220.307 97.4405 237.683 90.8115C238.789 90.4175 240.008 90.4711 241.076 90.9586C242.145 91.446 242.983 92.3316 243.411 93.4254C243.619 93.9725 243.714 94.5519 243.695 95.137C243.677 95.7222 243.536 96.3013 243.293 96.8339C243.05 97.3666 242.713 97.8438 242.283 98.2414C241.853 98.6391 241.342 98.9476 240.792 99.1487C235.935 100.914 230.795 101.766 225.628 101.66Z" fill="#C6CA6C"/>
<path d="M268.142 32.9626C267.95 32.4265 267.621 31.9449 267.201 31.5599C266.781 31.175 266.28 30.8962 265.729 30.7507C264.294 30.3311 262.765 30.3061 261.316 30.6772C259.867 31.0483 258.548 31.8014 257.49 32.8596C250.973 41.2041 244.999 49.9591 239.609 59.0729C238.203 61.5839 240.921 63.4967 243.131 63.6976C244.587 63.8542 246.06 63.6061 247.387 62.9865C248.715 62.3669 249.848 61.3983 250.664 60.1813C253.175 55.8624 255.884 51.6414 258.697 47.5233L259.805 46.0177V45.3164L262.012 42.3003L266.534 36.3759C267.082 36.0021 267.516 35.4905 267.799 34.8899C268.082 34.2894 268.204 33.6234 268.142 32.9626Z" fill="#C6CA6C"/>
<path d="M384.742 317.705C423.072 317.705 454.145 286.632 454.145 248.302C454.145 209.971 423.072 178.898 384.742 178.898C346.411 178.898 315.338 209.971 315.338 248.302C315.338 286.632 346.411 317.705 384.742 317.705Z" fill="#F2D400"/>
<path d="M384.74 291.793C408.759 291.793 428.231 272.322 428.231 248.303C428.231 224.284 408.759 204.812 384.74 204.812C360.721 204.812 341.25 224.284 341.25 248.303C341.25 272.322 360.721 291.793 384.74 291.793Z" fill="#F8E78F"/>
<path d="M391.768 224.7C392.672 224.7 393.07 225.304 392.768 226.108L390.865 230.929C390.728 231.303 390.453 231.611 390.1 231.797C389.748 231.982 389.339 232.033 388.953 231.934C385.432 231.384 381.835 232.212 378.909 234.244C377.071 235.174 375.566 236.646 374.593 238.462C374.176 239.141 373.955 239.925 373.955 240.722C373.955 241.52 374.176 242.299 374.593 242.978C374.943 243.547 375.427 244.023 376.005 244.357C376.584 244.69 377.241 244.869 377.908 244.886C379.631 244.95 381.351 244.783 383.028 244.386C384.937 243.884 387.045 243.483 389.355 243.081C391.546 242.677 393.761 242.408 395.985 242.277C398.101 242.081 400.232 242.501 402.116 243.484C404.187 244.403 405.881 245.993 406.932 248C407.869 249.477 408.499 251.134 408.776 252.861C409.052 254.588 408.97 256.349 408.54 258.044C407.756 261.316 405.875 264.225 403.214 266.283C403.038 266.452 402.898 266.653 402.802 266.877C402.707 267.101 402.665 267.344 402.665 267.588C402.665 267.832 402.707 268.075 402.802 268.299C402.898 268.524 403.038 268.724 403.214 268.893L405.931 273.512C406.056 273.595 406.155 273.71 406.226 273.841C406.296 273.972 406.333 274.118 406.333 274.268C406.333 274.417 406.296 274.563 406.226 274.694C406.155 274.826 406.056 274.936 405.931 275.018L402.116 276.224C401.782 276.362 401.403 276.365 401.066 276.234C400.73 276.103 400.455 275.85 400.301 275.523L397.496 270.8C394.8 272.033 391.97 272.944 389.061 273.512C386.676 274.017 384.206 274.017 381.822 273.512C381.018 273.512 380.817 272.81 381.018 272.007L382.224 267.186C382.249 267 382.316 266.823 382.41 266.661C382.505 266.5 382.624 266.357 382.773 266.244C382.923 266.132 383.092 266.054 383.274 266.009C383.455 265.963 383.648 265.951 383.833 265.979C387.936 266.623 392.128 265.614 395.485 263.169C400.808 259.955 402.614 256.741 400.605 253.125C400.242 252.561 399.757 252.086 399.183 251.737C398.609 251.389 397.959 251.176 397.29 251.115C395.565 250.776 393.796 250.776 392.072 251.115L385.745 252.321C383.554 252.725 381.339 252.994 379.115 253.125C377.013 253.265 374.905 252.887 372.984 252.022C370.957 251.085 369.277 249.536 368.168 247.598C367.231 246.121 366.601 244.47 366.324 242.743C366.048 241.016 366.13 239.25 366.56 237.554C367.287 234.472 369.062 231.738 371.582 229.82C371.8 229.695 371.987 229.529 372.141 229.33C372.294 229.131 372.409 228.905 372.474 228.663C372.54 228.42 372.556 228.167 372.523 227.917C372.491 227.668 372.404 227.429 372.278 227.211L369.571 222.689C369.46 222.571 369.38 222.427 369.345 222.268C369.311 222.109 369.323 221.941 369.375 221.787C369.426 221.633 369.517 221.496 369.64 221.39C369.763 221.284 369.911 221.212 370.071 221.184L373.887 219.977C374.05 219.895 374.234 219.849 374.416 219.84C374.599 219.831 374.776 219.862 374.946 219.928C375.117 219.995 375.278 220.098 375.407 220.228C375.536 220.357 375.636 220.513 375.701 220.684L377.702 223.999C377.796 224.233 377.94 224.44 378.124 224.612C378.308 224.784 378.531 224.913 378.771 224.99C379.011 225.066 379.267 225.091 379.517 225.058C379.767 225.025 380.001 224.935 380.213 224.798C383.957 223.552 388.003 223.52 391.768 224.7Z" fill="#5F3621"/>
</svg>
