<svg width="1276" height="1671" viewBox="0 0 1276 1671" fill="none" xmlns="http://www.w3.org/2000/svg">
<g clip-path="url(#clip0_79_953)">
<path d="M313.939 1412.23C302.64 1398.82 287.19 1389.57 270.038 1385.94C252.886 1382.32 235.015 1384.52 219.258 1392.21C219.258 1392.21 179.028 1417.68 151.802 1384.27C151.802 1384.27 121.654 1449.39 186.723 1484.26C186.723 1484.26 279.797 1528.09 326.942 1437.94C326.699 1437.79 327.673 1425.18 313.939 1412.23Z" fill="#F3DAAC"/>
<path d="M245.313 1428.06C231.286 1416.61 234.598 1397.03 237.959 1385.97C231.448 1387.36 225.098 1389.41 219.013 1392.11C219.013 1392.11 178.783 1417.58 151.558 1384.17C151.558 1384.17 121.411 1449.29 186.479 1484.21C206.433 1492.73 228.189 1496.16 249.795 1494.2C274.975 1470.57 264.6 1443.84 245.313 1428.06Z" fill="#EAB04E"/>
<path d="M968.036 993.03C968.036 993.03 1021.61 1216.24 1010.75 1367.32C1007.83 1408.43 986.787 1439.45 963.263 1461.66C933.627 1489.22 896.208 1506.96 856.114 1512.46C772.878 1524.34 563.206 1546.55 394.933 1498.87C327.478 1479.83 289.538 1401.46 289.538 1401.46C235.622 1237.33 296.404 1004.28 296.404 1004.28C296.404 1004.28 544.699 856.268 968.036 993.03Z" fill="#F7E6C7"/>
<path d="M782.911 1479.78C782.911 1479.78 848.467 1582.4 855.968 1623.02C855.968 1623.02 832.54 1644.84 845.496 1665C848.954 1670.31 856.942 1670.12 863.176 1670.12H913C921.523 1670.12 932.481 1668.65 934.429 1658.43C937.595 1642.01 926.296 1627.3 926.296 1627.3C941.735 1596.23 964.968 1546.55 994.921 1433.66C1018.44 1344.82 933.31 1265.77 853.679 1303.37C851.682 1304.35 849.588 1305.32 847.542 1306.39C714.141 1373.6 782.911 1479.78 782.911 1479.78Z" fill="#F7E6C7"/>
<path d="M512.701 1479.78C512.701 1479.78 447.145 1582.4 439.644 1623.02C439.644 1623.02 463.071 1644.84 450.067 1665C446.657 1670.31 438.622 1670.12 432.436 1670.12H382.757C374.234 1670.12 363.276 1668.65 361.328 1658.43C358.113 1642.01 369.461 1627.3 369.461 1627.3C354.022 1596.23 330.498 1546.55 300.838 1433.66C277.313 1344.82 362.4 1265.77 442.08 1303.37C444.125 1304.35 446.171 1305.32 448.265 1306.39C581.471 1373.6 512.701 1479.78 512.701 1479.78Z" fill="#F7E6C7"/>
<path d="M1026.58 976.227C1056.73 989.182 1112.54 1002.04 1199.82 982.17C1199.82 982.17 1186.13 948.076 1226.36 943.547C1232.63 942.663 1239.02 943.07 1245.12 944.745C1251.23 946.421 1256.93 949.328 1261.87 953.288C1275.7 965.025 1286.8 988.842 1253.69 1034.14C1199.14 1108.7 1125.69 1169.83 976.072 1173.82C863.76 1176.84 844.327 1057.85 907.886 995.854C939.057 965.365 986.349 958.888 1026.58 976.227Z" fill="#F7E6C7"/>
<path d="M265.235 984.847C233.821 994.588 176.983 1001.65 92.2868 972.866C92.2868 972.866 109.43 940.332 69.8337 931.663C63.6862 930.164 57.2984 929.934 51.0595 930.99C44.8205 932.045 38.8619 934.361 33.5493 937.798C18.5484 948.026 5.00863 970.577 33.5493 1019.04C80.1105 1098.91 146.787 1167.29 295.334 1186.77C406.769 1201.39 438.378 1085.03 381.589 1016.8C353.243 983.338 306.926 971.989 265.235 984.847Z" fill="#F7E6C7"/>
<path d="M213.949 975.593C213.949 975.593 289.392 1196.9 657.157 1262.46C657.157 1262.46 929.024 1211.56 1043.33 975.593C1043.38 975.593 657.206 812.872 213.949 975.593Z" fill="#24A564"/>
<path d="M1060.57 215.322C1100.32 250.925 1150 302.99 1173.23 371.176C1196.46 439.361 1242.78 459.818 1242.78 459.818C1211.31 482.173 1171.52 464.689 1171.52 464.689C1220.23 580.069 1237.08 728.032 1193.34 805.325C1149.61 882.619 1160.56 902.149 1160.56 902.149C1132.46 885.784 1126.47 847.502 1126.47 847.502C1034.32 1114.25 657.45 1174.11 657.45 1174.11C176.447 1104.42 185.847 897.423 185.847 897.423C161.836 943.838 129.205 945.74 129.205 945.74C136.072 919.245 115.323 871.661 98.1794 838.591C57.5439 761.807 40.435 674.751 48.9889 588.299C54.7095 533.753 68.0371 480.276 88.5848 429.426C58.5231 434.289 27.6927 429.553 0.478516 415.887C39.8698 391.243 71.559 356.042 91.9451 314.288C124.139 246.102 197 173.631 197 173.631C255.067 123.474 319.014 80.5607 387.434 45.8325C656.087 -67.8918 886.506 71.4022 886.506 71.4022C949.522 112.995 1007.88 161.246 1060.57 215.322Z" fill="#EBB14E"/>
<path d="M893.956 198.712C942.076 251.361 1016.79 251.801 1060.57 215.273C1060.57 215.273 1108.94 161.162 1077.62 96.6778C1069.35 79.7236 1057.14 64.9936 1042.02 53.7168C1026.89 42.44 1009.29 34.9432 990.682 31.8522C960.436 26.9818 921.425 31.8527 886.406 71.3031C886.406 71.3031 845.836 146.014 893.956 198.712Z" fill="#EBB14E"/>
<path d="M975.925 69.5487C962.584 69.5487 949.543 73.5065 938.45 80.9186C927.357 88.3306 918.711 98.864 913.605 111.19C908.5 123.516 907.164 137.08 909.767 150.165C912.37 163.25 918.793 175.269 928.227 184.703C937.661 194.137 949.681 200.561 962.766 203.164C975.851 205.767 989.414 204.431 1001.74 199.326C1014.07 194.22 1024.6 185.574 1032.01 174.481C1039.42 163.389 1043.38 150.346 1043.38 137.004C1043.38 119.114 1036.27 101.957 1023.62 89.3062C1010.97 76.6559 993.816 69.5487 975.925 69.5487Z" fill="#F7E6C7"/>
<path d="M267.037 216.247C267.037 216.247 354.705 232.368 391.233 152.931C416.851 96.8729 387.336 45.7822 387.336 45.7822C387.336 45.7822 317.982 -39.0596 224.372 22.4051C224.372 22.4051 150.147 71.9373 196.903 173.388C197.049 173.534 208.933 201.782 267.037 216.247Z" fill="#EBB14E"/>
<path d="M289.586 37.3083C276.254 37.3083 263.221 41.2596 252.136 48.6663C241.051 56.073 232.413 66.6016 227.311 78.9186C222.209 91.2355 220.874 104.79 223.475 117.865C226.076 130.941 232.495 142.95 241.922 152.377C251.349 161.804 263.36 168.225 276.436 170.826C289.512 173.427 303.065 172.092 315.381 166.99C327.698 161.889 338.226 153.248 345.633 142.163C353.039 131.078 356.993 118.046 356.993 104.714C356.98 86.8408 349.874 69.7019 337.235 57.0635C324.597 44.4251 307.459 37.3212 289.586 37.3083Z" fill="#F7E6C7"/>
<path d="M604.167 172.12C604.167 172.12 505.785 171.439 437.307 224.672C437.307 224.672 250.526 326.562 266.842 586.984C266.842 586.984 277.654 861.286 693.831 830.504C693.831 830.504 1158.08 802.939 1002.42 437.998C1002.32 438.144 944.025 176.942 604.167 172.12Z" fill="#F7E6C7"/>
<path d="M886.799 531.898C884.688 531.915 882.619 531.305 880.856 530.146C878.42 528.553 876.714 526.059 876.111 523.211C875.509 520.363 876.059 517.393 877.642 514.949L899.364 481.637C900.117 480.366 901.119 479.259 902.31 478.386C903.501 477.512 904.857 476.889 906.296 476.552C907.734 476.216 909.225 476.174 910.68 476.428C912.135 476.683 913.525 477.229 914.763 478.034C916.002 478.839 917.064 479.885 917.888 481.111C918.712 482.337 919.28 483.719 919.556 485.17C919.833 486.622 919.813 488.112 919.498 489.556C919.183 490.999 918.581 492.363 917.725 493.568L896.003 526.931C895.005 528.46 893.639 529.716 892.032 530.583C890.424 531.451 888.626 531.903 886.799 531.898Z" fill="#EAC5AC"/>
<path d="M921.621 541.64C919.499 541.632 917.422 541.025 915.631 539.887C913.205 538.286 911.507 535.792 910.906 532.948C910.304 530.104 910.846 527.138 912.416 524.691L934.139 491.328C934.925 490.123 935.941 489.085 937.129 488.272C938.317 487.46 939.655 486.887 941.064 486.591C942.473 486.295 943.925 486.28 945.34 486.546C946.755 486.811 948.104 487.352 949.31 488.139C950.516 488.926 951.554 489.943 952.367 491.131C953.18 492.319 953.751 493.655 954.047 495.064C954.343 496.473 954.359 497.925 954.094 499.34C953.828 500.755 953.287 502.104 952.5 503.309L930.826 536.672C929.821 538.196 928.455 539.446 926.849 540.313C925.242 541.18 923.447 541.636 921.621 541.64Z" fill="#EAC5AC"/>
<path d="M374.233 558.15C372.118 558.146 370.052 557.519 368.291 556.348C365.858 554.764 364.154 552.279 363.551 549.439C362.949 546.599 363.497 543.637 365.077 541.201L386.799 507.839C387.585 506.633 388.602 505.593 389.79 504.78C390.979 503.967 392.315 503.398 393.724 503.101C395.133 502.805 396.586 502.788 398.001 503.054C399.416 503.319 400.764 503.86 401.97 504.647C403.176 505.434 404.214 506.451 405.027 507.639C405.84 508.827 406.411 510.163 406.707 511.572C407.004 512.981 407.019 514.436 406.754 515.85C406.488 517.265 405.947 518.614 405.16 519.82L383.438 553.132C382.452 554.678 381.091 555.949 379.481 556.826C377.872 557.703 376.066 558.159 374.233 558.15Z" fill="#EAC5AC"/>
<path d="M409.057 567.988C407.086 567.995 405.149 567.467 403.453 566.461C401.758 565.455 400.365 564.009 399.426 562.276C398.487 560.542 398.036 558.586 398.119 556.616C398.203 554.646 398.818 552.735 399.9 551.087L421.575 517.724C422.328 516.453 423.33 515.349 424.521 514.475C425.712 513.602 427.067 512.978 428.506 512.642C429.944 512.305 431.436 512.261 432.891 512.516C434.346 512.77 435.735 513.318 436.973 514.123C438.212 514.928 439.276 515.974 440.099 517.201C440.923 518.427 441.49 519.807 441.766 521.258C442.043 522.709 442.024 524.202 441.709 525.645C441.395 527.089 440.792 528.453 439.936 529.657L418.262 563.02C417.26 564.547 415.895 565.799 414.288 566.666C412.681 567.533 410.883 567.989 409.057 567.988Z" fill="#EAC5AC"/>
<path d="M772.196 472.771C793.311 472.771 810.429 455.654 810.429 434.539C810.429 413.423 793.311 396.306 772.196 396.306C751.08 396.306 733.963 413.423 733.963 434.539C733.963 455.654 751.08 472.771 772.196 472.771Z" fill="#4A1E0E"/>
<path d="M533.254 477.642C554.37 477.642 571.487 460.525 571.487 439.409C571.487 418.294 554.37 401.176 533.254 401.176C512.139 401.176 495.021 418.294 495.021 439.409C495.021 460.525 512.139 477.642 533.254 477.642Z" fill="#4A1E0E"/>
<path d="M800.347 359.875C825.576 357.392 877.542 355.005 901.602 374.487C925.662 393.968 915.337 479.883 887.819 508.716C860.302 537.549 793.431 540.568 756.318 523.327C719.206 506.086 700.794 433.565 707.905 406.437C715.016 379.309 725.927 367.181 800.347 359.875Z" fill="#BAC51A"/>
<path d="M507.294 374.487C481.968 374.487 429.855 373.806 407.84 395.479C385.826 417.153 404.869 505.159 435.114 531.118C465.359 557.078 532.182 553.426 567.249 532.678C602.316 511.93 613.567 437.85 603.826 411.501C594.085 385.152 582.104 374.341 507.294 374.487Z" fill="#BAC51A"/>
<path d="M942.224 340.781C911.15 334.401 826.795 329.288 796.111 333.428C765.427 337.568 677.029 353.982 677.029 353.982C660.742 356.311 644.285 357.254 627.838 356.805C627.838 356.805 538.028 350.815 508.075 349.987C477.245 349.11 393.619 358.9 363.374 368.348C353.974 371.271 356.848 402.441 362.985 405.071C373.749 409.455 375.892 435.317 380.129 458.646C386.071 491.521 405.357 531.702 420.504 545.096C457.324 577.533 538.611 573.053 581.228 547.289C615.32 526.784 630.614 464.149 629.543 422.848C636.792 416.434 646.02 412.7 655.689 412.265C665.358 411.831 674.884 414.725 682.679 420.463C686.38 461.618 707.908 520.354 742.975 537.01C787.978 558.44 869.605 558.245 902.87 522.399C916.556 507.788 931.752 465.66 934.43 432.346C936.281 408.676 935.844 382.668 946.12 377.262C951.965 374.144 951.623 342.729 942.224 340.781ZM567.494 532.677C532.427 553.425 465.604 557.028 435.359 531.117C405.113 505.207 386.071 417.2 408.085 395.478C430.099 373.756 482.212 374.535 507.539 374.486C582.348 374.486 594.281 385.199 604.071 411.5C613.86 437.8 602.317 511.978 567.201 532.677H567.494ZM888.064 508.325C860.546 537.158 793.675 540.178 756.563 522.937C719.45 505.695 701.04 433.175 708.151 406.046C715.262 378.918 726.025 367.083 800.445 359.583C825.674 357.099 877.641 354.712 901.701 374.194C925.761 393.675 915.339 479.687 887.821 508.52L888.064 508.325Z" fill="white"/>
<path opacity="0.5" d="M758.705 524.155C776.381 531.183 795.313 534.498 814.325 533.896L911.733 391.776C910.178 385.134 906.666 379.112 901.651 374.487C892.362 367.777 881.612 363.369 870.286 361.629L758.705 524.155Z" fill="white"/>
<path opacity="0.5" d="M508.365 549.042L603.387 410.38C598.517 397.571 592.867 388.514 579.035 382.718L467.016 546.072C480.582 549.06 494.511 550.06 508.365 549.042Z" fill="white"/>
<path d="M739.061 310.226C750.299 301.989 754.678 288.857 748.843 280.895C743.007 272.933 729.166 273.156 717.928 281.393C706.69 289.63 702.311 302.762 708.147 310.724C713.983 318.686 727.823 318.463 739.061 310.226Z" fill="#4A1E0E"/>
<path d="M556.564 303.167C560.216 293.986 552.672 282.363 539.714 277.208C526.756 272.053 513.289 275.316 509.637 284.497C505.984 293.678 513.529 305.299 526.487 310.455C539.445 315.61 552.911 312.348 556.564 303.167Z" fill="#4A1E0E"/>
<path d="M678.78 759.981C661.854 759.815 645.191 755.765 630.076 748.145C627.493 746.802 625.549 744.487 624.672 741.71C623.795 738.933 624.057 735.922 625.401 733.339C626.744 730.755 629.059 728.813 631.836 727.936C634.612 727.059 637.623 727.32 640.207 728.663C642.496 729.881 696.607 757.058 724.66 713.225C725.406 711.953 726.399 710.845 727.583 709.966C728.767 709.088 730.116 708.457 731.55 708.112C732.983 707.767 734.472 707.713 735.926 707.957C737.38 708.201 738.77 708.736 740.012 709.529C741.255 710.322 742.325 711.359 743.157 712.575C743.99 713.792 744.569 715.163 744.859 716.609C745.149 718.054 745.144 719.543 744.845 720.987C744.546 722.43 743.96 723.799 743.119 725.011C736.421 735.986 726.944 744.999 715.647 751.139C704.35 757.279 691.633 760.329 678.78 759.981Z" fill="#EAC5AC"/>
<path d="M623.648 629.989C623.648 629.989 626.668 709.181 681.022 705.138C735.376 701.096 732.599 642.651 733.963 604.077L670.647 562.484L623.648 629.989Z" fill="#E27E7C"/>
<path d="M603.436 1233.24C603.436 1233.24 473.396 1210.69 460.732 1353.39C460.732 1353.39 565.544 1378.52 609.768 1266.7L603.436 1233.24Z" fill="#52B665"/>
<path d="M687.451 1277.46C687.451 1277.46 695.585 1371.65 827.476 1355.73C827.476 1355.73 819.343 1217.8 692.907 1239.47L687.451 1277.46Z" fill="#52B665"/>
<path d="M593.258 510.614C557.656 507.984 497.701 508.471 467.748 537.304C467.748 537.304 426.787 579.092 467.748 617.763C508.708 656.434 615.564 646.986 643.618 633.494C678.295 616.935 677.711 596.432 678.052 586.983C678.052 586.983 681.754 616.206 762.262 617.813C775.691 618.122 789.094 616.482 802.053 612.943C826.794 606.075 861.326 590.245 855.627 556.298C846.958 504.233 778.041 498.975 709.515 514.609C663.879 525.081 639.965 521.281 629.055 517.579C617.456 513.787 605.433 511.447 593.258 510.614Z" fill="#EAC5AC"/>
<path d="M646.978 496.734C646.978 496.734 594.866 497.173 589.557 548.946C584.102 602.033 678.052 586.984 678.052 586.984C678.052 586.984 739.614 578.997 721.886 531.267C721.886 531.267 706.982 491.863 646.978 496.734Z" fill="#4A1E0E"/>
<path d="M523.366 222.042C510.265 210.791 507.975 199.055 508.316 191.749C508.491 189.418 509.282 187.173 510.609 185.247C511.935 183.322 513.75 181.785 515.866 180.791L395.664 212.351C437.014 248.441 500.329 258.474 521.564 247.466C539.73 238.018 526.922 225.061 523.366 222.042Z" fill="#EBB14E"/>
<path d="M641.278 1367.61C691.068 1367.61 731.43 1327.25 731.43 1277.46C731.43 1227.67 691.068 1187.31 641.278 1187.31C591.489 1187.31 551.127 1227.67 551.127 1277.46C551.127 1327.25 591.489 1367.61 641.278 1367.61Z" fill="white"/>
<path d="M641.34 1255.67L620.094 1276.93L641.346 1298.17L662.592 1276.92L641.34 1255.67Z" fill="#B1853C"/>
<path d="M641.279 1256.18L662.514 1277.46H660.42L641.279 1258.32V1256.18Z" fill="#C19647"/>
<path d="M641.28 1258.32L622.139 1277.41H619.996L641.28 1256.18V1258.32Z" fill="#D7BA90"/>
<path d="M641.28 1298.7L619.996 1277.46H622.139L641.28 1296.55V1298.7Z" fill="#C19647"/>
<path d="M641.279 1296.55L660.42 1277.46H662.514L641.279 1298.7V1296.55Z" fill="#8D5F3E"/>
<mask id="mask0_79_953" style="mask-type:luminance" maskUnits="userSpaceOnUse" x="574" y="1212" width="113" height="118">
<path d="M574.895 1277.51C575.331 1288.27 578.935 1298.67 585.255 1307.39C591.575 1316.11 600.329 1322.77 610.42 1326.54C620.511 1330.3 631.489 1331.01 641.978 1328.56C652.467 1326.11 662 1320.62 669.38 1312.77L669.088 1312.48C659.979 1320.06 648.452 1324.12 636.602 1323.93C630.247 1324.06 623.93 1322.92 618.016 1320.59C612.102 1318.26 606.71 1314.78 602.153 1310.35C597.595 1305.92 593.962 1300.62 591.465 1294.78C588.968 1288.93 587.656 1282.65 587.606 1276.29C587.709 1260.63 594.025 1245.65 605.167 1234.65C616.309 1223.64 631.364 1217.51 647.025 1217.61C661.173 1217.58 674.875 1222.57 685.697 1231.68L686.183 1231.19C676.961 1222.31 665.344 1216.31 652.758 1213.94C640.172 1211.56 627.167 1212.92 615.343 1217.84C603.519 1222.76 593.391 1231.03 586.205 1241.63C579.019 1252.24 575.087 1264.7 574.895 1277.51Z" fill="white"/>
</mask>
<g mask="url(#mask0_79_953)">
<path d="M629.364 1156.33L516.418 1271.91L631.926 1384.79L744.872 1269.21L629.364 1156.33Z" fill="url(#paint0_linear_79_953)"/>
</g>
<mask id="mask1_79_953" style="mask-type:luminance" maskUnits="userSpaceOnUse" x="596" y="1224" width="112" height="119">
<path d="M613.176 1242.1L613.517 1242.44C622.621 1234.85 634.151 1230.79 646.002 1231C652.353 1230.87 658.667 1232 664.578 1234.33C670.488 1236.66 675.878 1240.13 680.435 1244.56C684.992 1248.99 688.626 1254.27 691.126 1260.11C693.626 1265.95 694.942 1272.23 694.999 1278.58C694.835 1289.87 691.467 1300.89 685.288 1310.34C679.109 1319.79 670.371 1327.29 660.094 1331.97C649.817 1336.65 638.423 1338.31 627.236 1336.77C616.05 1335.22 605.534 1330.53 596.909 1323.24L596.373 1323.73C605.595 1332.62 617.213 1338.62 629.799 1340.99C642.385 1343.36 655.389 1342 667.213 1337.08C679.037 1332.16 689.166 1323.89 696.352 1313.29C703.539 1302.69 707.47 1290.22 707.663 1277.41C707.213 1266.66 703.602 1256.27 697.282 1247.56C690.962 1238.85 682.213 1232.19 672.13 1228.42C662.046 1224.65 651.077 1223.94 640.591 1226.37C630.105 1228.81 620.569 1234.28 613.176 1242.1Z" fill="white"/>
</mask>
<g mask="url(#mask1_79_953)">
<path d="M649.564 1169.25L537.836 1286L654.484 1397.63L766.212 1280.88L649.564 1169.25Z" fill="url(#paint1_linear_79_953)"/>
</g>
<mask id="mask2_79_953" style="mask-type:luminance" maskUnits="userSpaceOnUse" x="587" y="1217" width="99" height="107">
<path d="M587.605 1276.29C587.656 1282.65 588.968 1288.93 591.465 1294.78C593.962 1300.62 597.595 1305.92 602.153 1310.35C606.71 1314.78 612.102 1318.26 618.016 1320.59C623.93 1322.92 630.247 1324.06 636.602 1323.93C648.452 1324.13 659.979 1320.06 669.087 1312.48L668.504 1311.95C660.635 1318.31 650.81 1321.75 640.694 1321.69C628.888 1321.71 617.545 1317.1 609.116 1308.83C600.686 1300.57 595.847 1289.31 595.642 1277.51C595.642 1241.91 621.601 1221.4 652.529 1221.4C664.297 1221.37 675.772 1225.08 685.306 1231.97L685.696 1231.58C674.875 1222.47 661.173 1217.48 647.024 1217.51C631.364 1217.42 616.309 1223.55 605.167 1234.55C594.025 1245.56 587.708 1260.54 587.605 1276.2" fill="white"/>
</mask>
<g mask="url(#mask2_79_953)">
<path d="M592.067 1198.82L566.658 1320.34L681.933 1344.45L707.342 1222.93L592.067 1198.82Z" fill="url(#paint2_linear_79_953)"/>
</g>
<mask id="mask3_79_953" style="mask-type:luminance" maskUnits="userSpaceOnUse" x="587" y="1217" width="99" height="108">
<path d="M587.363 1276.39C587.433 1282.76 588.765 1289.06 591.284 1294.92C593.802 1300.77 597.457 1306.07 602.036 1310.5C606.615 1314.94 612.028 1318.42 617.962 1320.75C623.895 1323.08 630.231 1324.21 636.604 1324.07C648.499 1324.28 660.075 1320.22 669.235 1312.63C660.184 1319.88 648.885 1323.76 637.285 1323.58C630.962 1323.74 624.671 1322.64 618.777 1320.34C612.883 1318.05 607.504 1314.61 602.951 1310.22C598.397 1305.83 594.761 1300.57 592.253 1294.77C589.744 1288.96 588.414 1282.71 588.338 1276.39C588.421 1268.68 590.022 1261.05 593.051 1253.96C596.079 1246.86 600.476 1240.44 605.989 1235.04C611.502 1229.65 618.023 1225.39 625.182 1222.51C632.34 1219.64 639.995 1218.2 647.708 1218.29C661.606 1218.24 675.088 1223.03 685.844 1231.83C675 1222.76 661.306 1217.81 647.172 1217.85C639.388 1217.78 631.669 1219.25 624.453 1222.17C617.237 1225.09 610.667 1229.4 605.117 1234.86C599.568 1240.32 595.148 1246.82 592.11 1253.99C589.072 1261.15 587.476 1268.85 587.412 1276.63" fill="white"/>
</mask>
<g mask="url(#mask3_79_953)">
<path d="M591.708 1201.7L568.986 1322.42L683.429 1343.96L706.151 1223.25L591.708 1201.7Z" fill="url(#paint3_linear_79_953)"/>
</g>
<mask id="mask4_79_953" style="mask-type:luminance" maskUnits="userSpaceOnUse" x="596" y="1231" width="99" height="107">
<path d="M613.518 1242.44L614.054 1242.98C621.936 1236.65 631.752 1233.21 641.864 1233.24C653.678 1233.2 665.033 1237.81 673.473 1246.08C681.913 1254.35 686.759 1265.6 686.964 1277.41C686.964 1313.02 661.004 1333.52 630.028 1333.52C618.261 1333.54 606.787 1329.84 597.25 1322.95L596.91 1323.34C605.534 1330.63 616.051 1335.32 627.237 1336.87C638.423 1338.41 649.818 1336.75 660.095 1332.07C670.372 1327.39 679.109 1319.89 685.289 1310.44C691.468 1300.98 694.836 1289.97 695 1278.68C694.943 1272.33 693.627 1266.05 691.127 1260.21C688.627 1254.37 684.993 1249.08 680.436 1244.66C675.879 1240.23 670.489 1236.76 664.579 1234.43C658.668 1232.1 652.354 1230.97 646.003 1231.1C634.152 1230.89 622.622 1234.95 613.518 1242.54" fill="white"/>
</mask>
<g mask="url(#mask4_79_953)">
<path d="M600.92 1209.87L574.508 1331.72L690.221 1356.8L716.633 1234.95L600.92 1209.87Z" fill="url(#paint4_linear_79_953)"/>
</g>
<path d="M613.322 1242.3C622.382 1235.02 633.703 1231.14 645.321 1231.34C651.62 1231.21 657.881 1232.34 663.743 1234.65C669.606 1236.95 674.955 1240.4 679.482 1244.78C684.009 1249.16 687.623 1254.39 690.119 1260.18C692.615 1265.96 693.943 1272.18 694.025 1278.48C693.949 1286.2 692.352 1293.83 689.326 1300.93C686.301 1308.03 681.905 1314.46 676.392 1319.86C670.878 1325.26 664.354 1329.53 657.193 1332.4C650.031 1335.28 642.373 1336.72 634.655 1336.64C620.752 1336.67 607.269 1331.87 596.52 1323.05C607.359 1332.12 621.055 1337.07 635.19 1337.03C650.907 1337.14 666.028 1331.02 677.232 1320C688.437 1308.97 694.809 1293.96 694.951 1278.24C694.888 1271.86 693.558 1265.56 691.038 1259.69C688.519 1253.83 684.861 1248.53 680.275 1244.09C675.689 1239.66 670.269 1236.18 664.327 1233.85C658.385 1231.53 652.041 1230.41 645.662 1230.56C633.768 1230.36 622.194 1234.42 613.03 1242" fill="url(#paint5_linear_79_953)"/>
<mask id="mask5_79_953" style="mask-type:luminance" maskUnits="userSpaceOnUse" x="596" y="1230" width="99" height="108">
<path d="M613.322 1242.3C622.382 1235.02 633.703 1231.14 645.321 1231.34C651.62 1231.21 657.881 1232.34 663.743 1234.65C669.606 1236.95 674.955 1240.4 679.482 1244.78C684.009 1249.16 687.623 1254.39 690.119 1260.18C692.615 1265.96 693.943 1272.18 694.025 1278.48C693.949 1286.2 692.352 1293.83 689.326 1300.93C686.301 1308.03 681.905 1314.46 676.392 1319.86C670.878 1325.26 664.354 1329.53 657.193 1332.4C650.031 1335.28 642.373 1336.72 634.655 1336.64C620.752 1336.67 607.269 1331.87 596.52 1323.05C607.359 1332.12 621.055 1337.07 635.19 1337.03C650.907 1337.14 666.028 1331.02 677.232 1320C688.437 1308.97 694.809 1293.96 694.951 1278.24C694.888 1271.86 693.558 1265.56 691.038 1259.69C688.519 1253.83 684.861 1248.53 680.275 1244.09C675.689 1239.66 670.269 1236.18 664.327 1233.85C658.385 1231.53 652.041 1230.41 645.662 1230.56C633.768 1230.36 622.194 1234.42 613.03 1242" fill="white"/>
</mask>
<g mask="url(#mask5_79_953)">
<path d="M599.721 1209.79L575.104 1331.23L690.379 1354.6L714.996 1233.16L599.721 1209.79Z" fill="url(#paint6_linear_79_953)"/>
</g>
</g>
<defs>
<linearGradient id="paint0_linear_79_953" x1="670.538" y1="1196.05" x2="761.056" y2="1103.43" gradientUnits="userSpaceOnUse">
<stop stop-color="#B1853C"/>
<stop offset="0.13" stop-color="#B2873F"/>
<stop offset="0.24" stop-color="#B78D49"/>
<stop offset="0.33" stop-color="#BE9759"/>
<stop offset="0.42" stop-color="#C9A670"/>
<stop offset="0.5" stop-color="#D6B88E"/>
<stop offset="0.58" stop-color="#C9A670"/>
<stop offset="0.67" stop-color="#BE9759"/>
<stop offset="0.76" stop-color="#B78D49"/>
<stop offset="0.87" stop-color="#B2873F"/>
<stop offset="1" stop-color="#B1853C"/>
</linearGradient>
<linearGradient id="paint1_linear_79_953" x1="721.353" y1="1199.6" x2="632.318" y2="1292.64" gradientUnits="userSpaceOnUse">
<stop stop-color="#00563D"/>
<stop offset="0.2" stop-color="#02583F"/>
<stop offset="0.3" stop-color="#0A5F45"/>
<stop offset="0.38" stop-color="#176A51"/>
<stop offset="0.44" stop-color="#2A7A60"/>
<stop offset="0.5" stop-color="#408D73"/>
<stop offset="0.56" stop-color="#2A7A60"/>
<stop offset="0.62" stop-color="#176A51"/>
<stop offset="0.7" stop-color="#0A5F45"/>
<stop offset="0.8" stop-color="#02583F"/>
<stop offset="1" stop-color="#00563D"/>
</linearGradient>
<linearGradient id="paint2_linear_79_953" x1="651.703" y1="1160.24" x2="634.742" y2="1241.36" gradientUnits="userSpaceOnUse">
<stop stop-color="#7D4B2E"/>
<stop offset="0.01" stop-color="#7D4B2E"/>
<stop offset="0.15" stop-color="#956634"/>
<stop offset="0.3" stop-color="#B1853C"/>
<stop offset="0.63" stop-color="#976835"/>
<stop offset="1" stop-color="#7D4B2E"/>
</linearGradient>
<linearGradient id="paint3_linear_79_953" x1="651.094" y1="1137.02" x2="635.714" y2="1218.73" gradientUnits="userSpaceOnUse">
<stop stop-color="#C49B4F"/>
<stop offset="0.34" stop-color="#DCC291"/>
<stop offset="1" stop-color="#C49B4F"/>
</linearGradient>
<linearGradient id="paint4_linear_79_953" x1="647.588" y1="1310.14" x2="630.061" y2="1391" gradientUnits="userSpaceOnUse">
<stop stop-color="#004731"/>
<stop offset="0.01" stop-color="#004731"/>
<stop offset="0.7" stop-color="#00563D"/>
<stop offset="1" stop-color="#004731"/>
</linearGradient>
<linearGradient id="paint5_linear_79_953" x1="596.812" y1="1284.09" x2="695.243" y2="1284.09" gradientUnits="userSpaceOnUse">
<stop stop-color="#047257"/>
<stop offset="0.3" stop-color="#E9F4F3"/>
<stop offset="0.55" stop-color="#98C6BC"/>
<stop offset="1" stop-color="#047257"/>
</linearGradient>
<linearGradient id="paint6_linear_79_953" x1="635.131" y1="1450.23" x2="651.517" y2="1369.4" gradientUnits="userSpaceOnUse">
<stop stop-color="#047257"/>
<stop offset="0.4" stop-color="#84A38F"/>
<stop offset="1" stop-color="#047257"/>
</linearGradient>
<clipPath id="clip0_79_953">
<rect width="1275.03" height="1670.12" fill="white" transform="translate(0.380859)"/>
</clipPath>
</defs>
</svg>
