<svg width="63" height="73" viewBox="0 0 63 73" fill="none" xmlns="http://www.w3.org/2000/svg">
<g clip-path="url(#clip0_154_188)">
<path d="M55.8831 2.30763C55.2821 1.42026 54.4226 0.739321 53.4213 0.357278C52.4199 -0.0247645 51.3253 -0.0894041 50.2859 0.172132L35.9483 3.75915C29.3454 5.2312 22.9814 7.62143 17.042 10.8601C12.7803 13.1472 9.08396 16.3583 6.2235 20.2584C3.37208 24.1617 1.43099 28.654 0.542744 33.4056C-0.332073 38.149 -0.135841 43.028 1.11709 47.6858C1.74226 49.9682 2.61779 52.1746 3.72773 54.2646C2.60515 56.4106 1.53479 58.5826 0.532307 60.8017C0.196335 61.5532 0.0226713 62.3672 0.0226713 63.1904C0.0226713 64.0136 0.196335 64.8276 0.532307 65.5791C1.57656 68.0906 4.77198 70.837 6.85005 71.876C7.68549 72.3119 8.60361 72.5663 9.54424 72.6226C9.67477 72.6226 9.8053 72.6226 9.93583 72.6226C10.7157 72.6228 11.4897 72.4867 12.2228 72.2206C13.1819 71.8863 14.0592 71.3524 14.7968 70.6542C15.5772 69.9193 16.1822 69.0181 16.5669 68.0175C16.5926 67.9578 16.6153 67.8968 16.6347 67.8347C16.9271 66.9924 17.2282 66.1535 17.538 65.3181C19.3969 65.8865 21.3035 66.285 23.2344 66.5085C24.3731 66.6409 25.5185 66.7071 26.6648 66.7069C34.1991 66.7069 44.0517 63.8405 53.2934 52.3693C59.0725 45.4246 62.4613 36.8034 62.958 27.7823C63.4039 18.7505 60.9226 9.81599 55.8831 2.30763Z" fill="#FDFDFB"/>
<path d="M51.5551 5.22656L37.1444 8.82403C30.9804 10.195 25.0397 12.4254 19.4964 15.4498C15.9247 17.3618 12.8273 20.0507 10.4323 23.3183C8.0405 26.5899 6.41327 30.3564 5.67049 34.3404C4.92981 38.3292 5.09576 42.4335 6.15607 46.3494C7.21592 50.2611 9.14328 53.8838 11.7951 56.9486C11.7951 56.9486 31.307 71.3541 49.2421 49.1167C54.3302 43.0449 57.3079 35.4844 57.7267 27.5736C58.1518 19.652 55.9854 11.8073 51.5551 5.22656Z" fill="#B8C318"/>
<path d="M10.4426 67.3232C10.7204 67.2331 10.9753 67.0834 11.1892 66.8846C11.402 66.6861 11.5663 66.4414 11.6696 66.1693C16.4934 52.1503 24.1961 39.2953 34.283 28.4299C34.6639 28.0981 34.9215 27.6473 35.0139 27.1506C35.1036 26.653 35.0226 26.1398 34.7842 25.6939C34.6494 25.4846 34.4714 25.3066 34.2621 25.1718C34.0511 25.0387 33.8145 24.9515 33.5677 24.9159C33.321 24.8828 33.07 24.9024 32.8315 24.9734C32.5949 25.0454 32.3761 25.1664 32.1892 25.3284C20.8308 35.998 11.6803 48.796 5.25785 62.9948C4.82448 63.9294 8.20788 66.8846 9.21558 67.2449C9.40237 67.3461 9.60916 67.4049 9.82125 67.4172C10.0327 67.4314 10.2448 67.3994 10.4426 67.3232Z" fill="#DADD8D"/>
</g>
<defs>
<clipPath id="clip0_154_188">
<rect width="63" height="72.6437" fill="white"/>
</clipPath>
</defs>
</svg>
