<svg width="1972" height="333" viewBox="0 0 1972 333" fill="none" xmlns="http://www.w3.org/2000/svg">
<rect width="1972" height="333" rx="80" fill="#F9F8F3"/>
<rect x="54" y="70.5" width="192" height="192" rx="96" fill="#FDFDFB"/>
<rect x="54" y="70.5" width="192" height="192" rx="96" stroke="#F2EEE4" stroke-width="8"/>
<path d="M188.556 108.223L160.97 115.119C149.165 117.74 137.786 122.015 127.174 127.811C120.329 131.468 114.396 136.618 109.811 142.881C105.227 149.143 102.11 156.354 100.692 163.984C99.275 171.615 99.5924 179.466 101.622 186.957C103.651 194.448 107.343 201.388 112.418 207.26C112.418 207.26 149.793 234.845 184.138 192.224C193.887 180.597 199.593 166.115 200.389 150.962C201.186 135.81 197.033 120.807 188.556 108.223Z" fill="#B8C318"/>
<path d="M112.265 224.502C112.796 224.333 113.287 224.046 113.693 223.664C114.099 223.282 114.408 222.813 114.609 222.293C123.848 195.445 138.602 170.826 157.921 150.018C158.652 149.382 159.146 148.518 159.322 147.566C159.497 146.614 159.34 145.632 158.884 144.778C158.626 144.378 158.289 144.04 157.887 143.785C157.486 143.529 157.032 143.362 156.561 143.296C156.089 143.231 155.609 143.267 155.153 143.404C154.697 143.541 154.278 143.774 153.92 144.088C132.166 164.523 114.643 189.033 102.338 216.225C101.51 218.018 107.99 223.675 109.921 224.364C110.278 224.559 110.674 224.671 111.08 224.694C111.485 224.718 111.888 224.653 112.265 224.502Z" fill="#DADD8D"/>
<path d="M344.226 88.928V85.31H340.662V88.928H344.226ZM336.504 88.928V85.31H333.102V88.928H336.504ZM328.89 88.928V85.31H325.488V88.928H328.89ZM349.68 80.99V93.248H320.304V80.99H349.68ZM351.408 94.976V100.052H318.36V94.976H351.408ZM327.162 106.37V109.394H342.336V106.37H327.162ZM347.034 113.822L351.246 117.602C349.14 118.682 347.034 119.762 345.036 120.626C347.196 122.192 349.68 123.434 352.596 124.19C351.3 125.378 349.572 127.538 348.816 129.104C341.58 126.674 336.936 121.652 334.128 114.74C332.562 116.09 330.834 117.278 328.89 118.412V123.056L336.504 121.598C336.342 123.002 336.288 125.108 336.396 126.296C326.46 128.456 324.678 128.942 323.652 129.59C323.382 128.348 322.356 126.296 321.6 125.27C322.572 124.838 323.76 123.758 323.76 121.598V121.112C322.248 121.76 320.79 122.246 319.332 122.732C318.738 121.814 317.766 120.626 316.848 119.6L316.902 119.978C311.934 121.436 306.642 122.786 302.268 123.974L301.188 118.142C302.754 117.818 304.482 117.386 306.48 116.9V103.616H302.268V98.054H306.48V88.01H301.89V82.394H316.524V88.01H312.096V98.054H316.038V103.616H312.096V115.55L316.146 114.47L316.632 118.142C320.466 117.116 324.462 115.604 327.702 113.768H321.492V101.942H348.384V113.768H339.366C339.96 115.118 340.77 116.36 341.688 117.44C343.632 116.306 345.684 114.902 347.034 113.822ZM407.406 82.502V87.686H379.704V82.502H390.396C390.072 81.638 389.748 80.72 389.478 79.964L395.526 78.83C396.012 79.91 396.552 81.314 396.984 82.502H407.406ZM408.81 92.33V97.622H378.192V92.33H384.726C384.456 91.142 383.97 89.846 383.538 88.766L388.722 87.74C389.37 89.09 390.072 90.98 390.396 92.33H396.498C397.092 90.818 397.686 89.09 398.064 87.74L403.896 88.82C403.248 90.062 402.708 91.25 402.114 92.33H408.81ZM377.112 110.852L378.354 116.684C372.792 119.006 366.636 121.49 361.776 123.38L359.67 116.792C361.452 116.252 363.558 115.604 365.88 114.794V98.162H360.642V92.06H365.88V79.964H372.144V92.06H376.734V98.162H372.144V112.634C373.818 112.04 375.438 111.446 377.112 110.852ZM386.184 109.448V111.716H400.008V109.448H386.184ZM386.184 103.454V105.722H400.008V103.454H386.184ZM401.79 123.974H403.248C403.68 123.974 404.112 123.974 404.382 123.866C404.652 123.758 404.868 123.434 405.03 122.786C405.138 122.138 405.192 120.68 405.246 118.736C406.326 119.762 408.648 120.842 410.16 121.382C409.998 123.38 409.782 125.54 409.35 126.458C408.864 127.376 408.108 128.024 407.082 128.456C406.272 128.78 404.76 128.942 403.734 128.942H400.278C398.874 128.942 397.146 128.51 396.174 127.646C395.148 126.728 394.662 125.594 394.662 122.3V115.766H390.774C389.856 122.894 387.156 127.322 377.058 129.86C376.518 128.402 375.006 126.026 373.764 124.946C382.08 123.326 384.024 120.572 384.78 115.766H380.298V99.458H406.164V115.766H400.602V122.462C400.602 123.164 400.602 123.542 400.818 123.758C401.034 123.92 401.358 123.974 401.79 123.974ZM430.464 79.37L436.404 81.314C434.946 85.04 433.164 88.874 431.058 92.492V129.536H424.956V101.78C423.714 103.346 422.418 104.804 421.176 106.154C420.582 104.588 418.8 101.132 417.72 99.566C422.742 94.706 427.656 87.038 430.464 79.37ZM440.076 112.418L445.854 114.146C443.64 118.79 440.346 124.028 437.592 127.322C436.458 126.35 434.082 124.622 432.624 123.866C435.324 120.896 438.24 116.414 440.076 112.418ZM443.586 87.254V94.49H459.408V87.254H443.586ZM468.534 110.744H454.548V129.698H448.068V110.744H433.974V104.912H448.068V100.16H437.484V81.584H465.834V100.16H454.548V104.912H468.534V110.744ZM456.384 115.01L461.136 112.364C464.214 115.928 467.508 120.572 469.074 123.758L463.998 126.836C462.54 123.65 459.246 118.682 456.384 115.01ZM492.132 93.734L510.114 93.248C508.98 92.384 507.9 91.52 506.874 90.764L509.088 89.468H497.532C495.696 91.034 493.914 92.438 492.132 93.734ZM525.828 83.852V89.468H514.65C518.16 92.114 521.994 95.408 524.1 97.838L519.186 100.916H521.454V122.84C521.454 126.296 520.536 127.7 517.944 128.51C515.406 129.266 511.464 129.212 506.28 129.212C506.064 127.538 505.416 125.378 504.714 123.758C507.684 123.974 512.112 123.974 513.03 123.92C514.11 123.866 514.434 123.596 514.434 122.732V118.844C506.496 120.572 498.558 122.192 492.24 123.488L490.35 117.818C494.832 117.224 501.528 116.252 508.548 115.172C504.282 113.444 497.154 111.608 491.592 110.798L493.482 106.964C499.53 107.666 507.576 109.556 511.896 111.338L510.222 114.902L514.434 114.254V106.208H490.296V109.556C490.296 115.874 489.324 124.676 484.41 130.292C483.33 129.158 480.576 127.106 479.118 126.512C483.546 121.544 483.978 114.578 483.978 109.448V100.916H518.052C517.35 100.052 516.432 99.08 515.406 98.054C489.054 99.08 485.868 99.134 483.546 99.944C483.222 98.702 482.25 95.732 481.602 94.058C483.114 93.788 484.41 92.87 486.462 91.412C487.056 91.034 487.866 90.332 488.892 89.468H477.984V83.852H494.94C496.56 82.178 498.18 80.45 499.53 78.614L506.064 81.098C505.254 82.016 504.39 82.934 503.472 83.852H525.828ZM533.928 134.72L548.94 81.854H553.26L538.248 134.72H533.928ZM570.023 119.624L573.593 121.136C570.821 123.446 566.747 125.966 563.513 127.52C562.841 126.806 561.371 125.546 560.531 124.958C563.891 123.656 567.671 121.598 570.023 119.624ZM568.133 99.884V102.782H577.625V99.884H568.133ZM568.133 94.172V97.028H577.625V94.172H568.133ZM591.233 97.028V94.172H581.405V97.028H591.233ZM591.233 102.782V99.884H581.405V102.782H591.233ZM592.031 117.482L581.783 117.986V124.37C581.783 126.26 581.405 127.184 579.977 127.73C578.591 128.318 576.617 128.318 573.845 128.318C573.635 127.268 573.005 125.756 572.501 124.832C574.433 124.874 576.449 124.874 576.995 124.832C577.583 124.832 577.751 124.706 577.751 124.244V118.154C566.831 118.7 565.109 118.826 563.807 119.288C563.681 118.616 563.177 116.894 562.841 115.886C564.311 115.802 565.991 115.298 568.427 114.416C569.645 113.996 571.997 113.114 574.769 111.854C567.881 112.316 566.663 112.526 565.865 112.82C565.697 112.148 565.193 110.426 564.857 109.502C565.655 109.418 566.621 109.04 567.713 108.494C568.553 108.158 570.527 107.15 572.585 105.806H564.479V91.106H595.097V105.806H578.297C576.491 107.024 574.685 108.116 572.837 109.082L581.237 108.662C582.875 107.822 584.471 106.856 586.025 105.932L588.923 108.2C584.093 111.014 579.137 113.324 574.265 115.172L589.133 114.584C588.167 113.702 587.117 112.82 586.193 112.106L588.965 110.216C591.989 112.358 595.349 115.55 596.987 117.734L594.089 119.96C593.543 119.204 592.829 118.406 592.031 117.482ZM584.555 121.64L587.369 119.624C590.729 121.178 595.181 123.656 597.533 125.462L594.509 127.73C592.367 125.966 587.999 123.362 584.555 121.64ZM621.389 112.4L619.121 115.466C618.533 114.374 617.273 112.568 616.055 110.93V128.234H612.275V111.56C610.721 115.256 608.873 118.742 607.067 121.052C606.647 119.96 605.765 118.364 605.135 117.44C607.697 114.5 610.385 109.376 611.981 104.882H606.227V101.228H612.275V95.6C610.469 95.936 608.663 96.188 606.983 96.398C606.815 95.516 606.311 94.214 605.849 93.374C610.343 92.744 615.551 91.568 618.533 90.308L621.221 93.29C619.709 93.878 617.945 94.382 616.055 94.844V101.228H620.297V100.514H630.167V98.666H622.439V96.23H630.167V94.424H621.599V91.904H630.167V89.762H634.073V91.904H643.187V94.424H634.073V96.23H642.179V98.666H634.073V100.514H644.153V103.076H620.549V104.882H616.055V106.94C617.441 108.158 620.633 111.476 621.389 112.4ZM638.273 109.67V107.402H626.555V109.67H638.273ZM638.273 114.374V112.064H626.555V114.374H638.273ZM638.273 119.078V116.768H626.555V119.078H638.273ZM641.927 104.882V121.598H627.941L630.839 123.446C628.319 125.42 624.203 127.436 620.843 128.486C620.255 127.73 619.163 126.638 618.365 125.966C621.641 125.042 625.463 123.236 627.479 121.598H623.027V104.882H641.927ZM634.073 123.488L636.677 121.598C639.449 123.194 642.683 125.168 644.615 126.47L641.213 128.36C639.575 127.1 636.635 125.084 634.073 123.488ZM682.919 96.734V94.004H670.151V96.734H682.919ZM682.919 102.152V99.38H670.151V102.152H682.919ZM686.657 91.106V105.05H666.581V91.106H686.657ZM664.145 111.308L659.567 112.736V123.614C659.567 125.546 659.189 126.596 658.097 127.184C656.963 127.814 655.283 127.94 652.637 127.94C652.553 127.016 652.091 125.336 651.587 124.328C653.267 124.37 654.821 124.37 655.283 124.37C655.787 124.37 655.997 124.202 655.997 123.614V113.87L651.587 115.214L650.705 111.434C652.175 111.056 654.023 110.552 655.997 110.006V101.564H651.125V97.952H655.997V89.846H659.567V97.952H664.019V101.564H659.567V108.956L663.599 107.78L664.145 111.308ZM678.341 118.28V124.118C679.475 124.286 680.651 124.328 681.869 124.328C683.045 124.328 688.463 124.328 690.059 124.286C689.597 125.126 689.093 126.764 688.967 127.73H681.743C675.905 127.73 671.537 126.68 668.807 121.136C667.673 124.076 666.119 126.47 664.061 128.318C663.473 127.688 662.003 126.47 661.163 125.966C664.775 123.068 666.581 118.364 667.253 112.442L670.781 112.862C670.571 114.416 670.319 115.886 669.983 117.272C671.075 120.296 672.671 122.102 674.687 123.068V110.804H664.607V107.612H688.883V110.804H678.341V115.172H686.741V118.28H678.341ZM707.573 107.654L708.203 111.098C706.985 111.56 705.725 112.064 704.507 112.568V123.866C704.507 125.714 704.129 126.68 703.079 127.268C702.029 127.856 700.433 127.982 697.997 127.982C697.871 127.058 697.451 125.504 696.947 124.538C698.543 124.622 700.013 124.622 700.433 124.58C700.937 124.58 701.105 124.454 701.105 123.908V113.828L697.325 115.256L696.317 111.476C697.703 111.056 699.341 110.468 701.105 109.88V101.564H696.821V97.952H701.105V89.804H704.507V97.952H707.615V101.564H704.507V108.704L707.573 107.654ZM729.203 117.272H722.609C723.953 118.322 725.465 119.498 726.977 120.716C727.859 119.708 728.657 118.532 729.203 117.272ZM731.345 114.374L733.319 114.962C732.479 118.112 731.177 120.632 729.413 122.69C731.009 123.95 732.395 125.21 733.445 126.134L731.177 128.318C730.211 127.31 728.867 126.05 727.271 124.748C725.297 126.386 722.987 127.562 720.425 128.402C720.089 127.562 719.291 126.302 718.661 125.63C720.971 125.042 723.113 124.034 724.877 122.648C723.281 121.304 721.643 119.96 720.131 118.784L721.895 117.272H720.257V114.458H730.715L731.345 114.374ZM732.605 95.642L734.915 97.658C733.529 98.834 731.933 99.968 730.589 100.85C732.017 102.11 733.697 103.076 735.629 103.748C734.873 104.462 733.865 105.806 733.403 106.73C732.311 106.268 731.345 105.764 730.421 105.176V109.208C730.421 110.048 730.463 110.342 730.883 110.342H731.765C732.185 110.342 732.899 110.3 733.319 110.132C733.403 110.93 733.445 111.98 733.529 112.694C733.109 112.862 732.437 112.904 731.807 112.904H730.421C727.859 112.904 727.397 111.812 727.397 109.166V106.1H724.289V107.024C724.289 109.46 723.743 112.358 721.013 114.248C720.635 113.66 719.543 112.61 718.871 112.148V112.736H712.235C712.067 113.912 711.899 115.088 711.731 116.18H718.871C718.871 116.18 718.829 117.104 718.745 117.566C718.283 123.362 717.821 125.882 716.897 126.848C716.225 127.604 715.469 127.856 714.335 127.94C713.453 128.024 711.899 128.024 710.303 127.94C710.261 126.974 709.883 125.714 709.337 124.832C710.891 125 712.361 125 712.991 125C713.537 125 713.873 124.958 714.209 124.664C714.713 124.118 715.091 122.606 715.385 119.036H708.203C708.665 116.558 709.253 112.778 709.589 109.754H715.721V106.226H710.513V105.848C709.799 106.31 709.043 106.688 708.245 107.024C707.909 106.226 706.985 104.924 706.313 104.294C708.371 103.454 710.303 102.194 711.983 100.556C711.059 99.632 709.799 98.582 708.707 97.826L710.723 95.726C711.815 96.398 713.075 97.364 714.041 98.246C714.881 97.07 715.637 95.81 716.225 94.424H709.379V91.358H717.737L718.325 91.232L720.425 91.988C719.207 96.734 716.855 100.556 713.873 103.286H718.871V111.98C720.971 110.426 721.223 108.662 721.223 106.94V103.286H727.985C724.667 100.262 722.483 95.978 721.181 90.728L724.373 90.182C724.751 91.694 725.255 93.122 725.885 94.466C726.935 93.5 728.153 92.24 728.909 91.358L731.219 93.374C729.917 94.634 728.405 95.894 727.145 96.818C727.607 97.616 728.153 98.372 728.741 99.002C730.043 98.036 731.639 96.608 732.605 95.642ZM750.035 133.358C746.129 126.974 743.819 120.212 743.819 111.854C743.819 103.58 746.129 96.734 750.035 90.392L753.059 91.694C749.447 97.742 747.767 104.84 747.767 111.854C747.767 118.91 749.447 126.008 753.059 132.014L750.035 133.358ZM794.239 92.87V96.65H764.671V92.87H794.239ZM788.233 123.908H792.979C794.533 123.908 794.785 122.816 794.953 116.6C795.877 117.314 797.557 117.986 798.607 118.28C798.187 125.546 797.179 127.604 793.273 127.604H787.687C783.529 127.604 782.437 126.302 782.437 122.186V108.158H775.255C774.499 117.02 772.609 124.286 762.739 128.234C762.319 127.226 761.185 125.84 760.303 125.084C769.081 121.808 770.509 115.55 771.097 108.158H760.975V104.378H797.893V108.158H786.469V122.144C786.469 123.656 786.721 123.908 788.233 123.908ZM808.687 133.358L805.663 132.014C809.275 126.008 810.955 118.91 810.955 111.854C810.955 104.84 809.275 97.742 805.663 91.694L808.687 90.392C812.635 96.734 814.945 103.58 814.945 111.854C814.945 120.212 812.635 126.974 808.687 133.358Z" fill="#594A39"/>
<path d="M304.2 247V236.8C322.8 219.9 335.3 206.4 335.3 195.6C335.3 188.8 331.6 185.1 325.6 185.1C320.5 185.1 316.6 188.5 313 192.3L303.3 182.7C310.6 174.9 317.4 171.2 328 171.2C342.4 171.2 352.4 180.4 352.4 194.6C352.4 207.4 341.4 221.5 330 233C333.7 232.5 338.8 232 342.2 232H355.8V247H304.2ZM397.438 248.4C381.738 248.4 371.038 235 371.038 209.4C371.038 183.8 381.738 171.2 397.438 171.2C413.138 171.2 423.738 183.9 423.738 209.4C423.738 235 413.138 248.4 397.438 248.4ZM397.438 234.6C402.738 234.6 406.938 229.8 406.938 209.4C406.938 189.1 402.738 184.8 397.438 184.8C392.138 184.8 387.838 189.1 387.838 209.4C387.838 229.8 392.138 234.6 397.438 234.6ZM461.775 248.4C449.975 248.4 441.675 244.3 436.275 238L444.475 226.8C448.975 231 454.175 234 459.975 234C466.875 234 471.375 231.1 471.375 225.5C471.375 219.1 467.975 215.3 452.375 215.3V202.7C465.075 202.7 469.075 198.9 469.075 193C469.075 187.9 466.075 185.1 460.575 185.1C455.575 185.1 451.775 187.3 447.275 191.3L438.275 180.4C445.175 174.6 452.575 171.2 461.375 171.2C476.775 171.2 486.875 178.4 486.875 191.7C486.875 199.1 482.875 204.9 474.975 208.1V208.6C483.175 211.1 489.275 217.1 489.275 226.7C489.275 240.6 476.575 248.4 461.775 248.4ZM509.713 269.7L506.113 260.2C514.813 257.2 519.413 251.8 519.313 246.3H518.413C512.913 246.3 507.813 242.7 507.813 236.3C507.813 230.3 512.713 226.3 518.913 226.3C526.713 226.3 531.013 232.5 531.013 242.9C531.013 255.8 523.613 265.5 509.713 269.7ZM549.671 247V232.6H565.471V190.3H551.771V179.3C559.771 177.8 564.971 175.8 570.171 172.5H583.271V232.6H596.671V247H549.671ZM637.309 248.4C625.409 248.4 617.209 243.9 611.309 238.1L619.409 226.9C623.609 230.9 628.809 234 634.709 234C641.909 234 646.409 230.1 646.409 222.4C646.409 214.9 641.909 210.9 635.509 210.9C631.409 210.9 629.409 211.7 625.009 214.5L617.209 209.4L619.109 172.5H660.909V187.4H634.409L633.309 200C636.009 198.9 638.209 198.5 641.009 198.5C653.609 198.5 664.209 205.9 664.209 222C664.209 238.7 651.609 248.4 637.309 248.4ZM707.446 212.3C703.746 212.3 699.646 214.2 696.946 219C698.446 231.4 703.046 235.1 707.746 235.1C712.446 235.1 716.446 231.6 716.446 223.1C716.446 215 712.346 212.3 707.446 212.3ZM708.146 248.4C694.146 248.4 680.346 237.5 680.346 210.4C680.346 183.5 694.546 171.2 709.946 171.2C719.746 171.2 726.946 175.3 731.646 180.1L722.246 190.6C719.846 188 715.246 185.4 711.146 185.4C703.446 185.4 697.346 190.9 696.646 207.1C700.346 202.4 706.646 199.8 710.846 199.8C723.246 199.8 732.646 207 732.646 223.1C732.646 238.9 721.446 248.4 708.146 248.4ZM751.584 269.7L747.984 260.2C756.684 257.2 761.284 251.8 761.184 246.3H760.284C754.784 246.3 749.684 242.7 749.684 236.3C749.684 230.3 754.584 226.3 760.784 226.3C768.584 226.3 772.884 232.5 772.884 242.9C772.884 255.8 765.484 265.5 751.584 269.7ZM814.242 248.4C798.542 248.4 787.842 235 787.842 209.4C787.842 183.8 798.542 171.2 814.242 171.2C829.942 171.2 840.542 183.9 840.542 209.4C840.542 235 829.942 248.4 814.242 248.4ZM814.242 234.6C819.542 234.6 823.742 229.8 823.742 209.4C823.742 189.1 819.542 184.8 814.242 184.8C808.942 184.8 804.642 189.1 804.642 209.4C804.642 229.8 808.942 234.6 814.242 234.6ZM881.18 248.4C865.48 248.4 854.78 235 854.78 209.4C854.78 183.8 865.48 171.2 881.18 171.2C896.88 171.2 907.48 183.9 907.48 209.4C907.48 235 896.88 248.4 881.18 248.4ZM881.18 234.6C886.48 234.6 890.68 229.8 890.68 209.4C890.68 189.1 886.48 184.8 881.18 184.8C875.88 184.8 871.58 189.1 871.58 209.4C871.58 229.8 875.88 234.6 881.18 234.6ZM948.117 248.4C932.417 248.4 921.717 235 921.717 209.4C921.717 183.8 932.417 171.2 948.117 171.2C963.817 171.2 974.417 183.9 974.417 209.4C974.417 235 963.817 248.4 948.117 248.4ZM948.117 234.6C953.417 234.6 957.617 229.8 957.617 209.4C957.617 189.1 953.417 184.8 948.117 184.8C942.817 184.8 938.517 189.1 938.517 209.4C938.517 229.8 942.817 234.6 948.117 234.6Z" fill="#B8C318"/>
<rect x="1054" y="70.5" width="192" height="192" rx="96" fill="#FDFDFB"/>
<rect x="1054" y="70.5" width="192" height="192" rx="96" stroke="#F2EEE4" stroke-width="8"/>
<path d="M1139.72 218.434C1127.31 210.873 1116.83 200.529 1109.1 188.224C1101.1 175.397 1088.41 140.364 1105.38 124.64C1126.2 105.33 1146.76 118.296 1148.96 125.468C1153.46 121.787 1158.63 119.037 1164.2 117.38C1169.76 115.722 1175.6 115.187 1181.37 115.81C1197.65 119.673 1211.17 143.397 1197.52 168.225C1187.62 182.765 1174.62 194.922 1159.44 203.812C1149.93 210.295 1139.72 218.434 1139.72 218.434Z" fill="#EEB690"/>
<path d="M1176.56 145.052C1177.04 147.604 1177.04 150.225 1176.56 152.777C1175.58 159.7 1172.66 166.202 1168.14 171.534C1163.91 176.817 1158.94 181.463 1153.38 185.327C1153.38 185.327 1152 186.156 1152.14 186.707C1152.28 187.259 1153.66 187.947 1155.31 188.085C1158.24 188.246 1161.14 187.474 1163.59 185.879C1170.63 181.849 1176.47 176.023 1180.52 168.995C1184.56 161.967 1186.67 153.99 1186.63 145.88C1186.76 144.92 1186.76 143.945 1186.63 142.984C1186.63 140.915 1176 143.811 1176.69 145.742L1176.56 145.052Z" fill="#F8D0B5"/>
<path d="M1337.64 98.432H1330.19V108.584H1337.64V98.432ZM1344.39 114.47H1323.81V98.432H1316.47V120.572H1350.11V126.782H1309.77V98.432H1302.48V92.222H1309.77V80.828H1316.47V92.222H1323.81V79.694H1330.19V92.222H1337.64V80.18H1344.39V92.222H1351.52V98.432H1344.39V114.47ZM1372.63 94.976V98.864H1382.08V94.976H1372.63ZM1372.63 86.282V90.17H1382.08V86.282H1372.63ZM1398.01 90.17V86.282H1388.56V90.17H1398.01ZM1398.01 98.864V94.976H1388.56V98.864H1398.01ZM1404.71 104.048H1395.9C1399.79 107.288 1405.14 109.934 1410.7 111.338C1409.35 112.634 1407.41 115.118 1406.43 116.846C1403.19 115.766 1400.12 114.308 1397.31 112.472V129.536H1390.61V110.528H1394.66C1392.23 108.584 1390.07 106.478 1388.34 104.048H1382.78C1381 106.424 1378.73 108.53 1376.3 110.474H1380.89V114.2C1380.89 119.33 1379.33 126.134 1368.58 130.076C1367.72 128.51 1365.56 126.08 1364.15 124.838C1373.17 121.922 1374.25 117.386 1374.25 113.93V111.986C1371.17 114.092 1367.88 115.766 1364.42 117.008C1363.5 115.442 1361.61 113.066 1360.21 111.716C1365.61 110.15 1370.96 107.342 1374.79 104.048H1366.2V81.098H1404.71V104.048ZM1442.34 80.558H1455.95C1458.27 88.118 1463.24 95.732 1469.83 99.782C1468.37 101.186 1466.05 104.264 1464.97 106.262C1458.81 101.564 1454.01 94.328 1450.98 87.2H1442.34V80.558ZM1432.62 80.45L1439.81 82.772C1435.86 91.628 1429.55 100.808 1423.71 106.424C1422.47 105.02 1419.61 102.212 1417.99 100.916C1423.71 96.11 1429.38 88.28 1432.62 80.45ZM1448.66 110.42L1454.93 107.558C1459.3 113.498 1464.27 121.166 1466.91 126.188L1460.27 129.698C1459.57 128.186 1458.6 126.35 1457.46 124.406C1431.38 126.458 1427.71 126.782 1425.06 127.808C1424.63 126.404 1423.39 122.84 1422.42 120.896C1424.25 120.41 1425.66 118.952 1427.76 116.576C1430.09 114.254 1436.84 105.02 1441.1 96.11L1448.61 99.296C1444.45 106.586 1439.27 113.768 1434.03 119.6L1453.85 118.304C1452.12 115.604 1450.34 112.796 1448.66 110.42ZM1525.88 89.414V95.084H1478.04V89.414H1490.78C1489.65 87.038 1487.7 84.014 1486.03 81.638L1491.48 79.262C1493.75 81.908 1496.07 85.526 1497.1 87.902L1494.18 89.414H1509.9L1506.93 88.388C1508.6 85.904 1510.76 82.07 1511.9 79.262L1518.43 81.206C1516.59 84.176 1514.6 87.2 1512.92 89.414H1525.88ZM1506.23 99.998L1509.57 95.516C1514.76 97.298 1522.43 100.268 1526.37 102.32L1522.8 107.396C1519.08 105.29 1511.57 102.05 1506.23 99.998ZM1489.22 112.094V122.354H1493.7V112.094H1489.22ZM1504.07 112.094H1499.58V122.354H1504.07V112.094ZM1514.54 112.094H1509.95V122.354H1514.54V112.094ZM1520.54 122.354H1526.53V128.024H1477.34V122.354H1483.55V107.126C1482.79 107.45 1482.09 107.774 1481.39 108.098C1480.58 106.532 1479.06 104.156 1477.71 102.806C1482.79 101.294 1489.86 98.162 1493.43 95.57L1497.91 98.756C1494.51 101.294 1489.11 104.372 1484.41 106.694H1520.54V122.354ZM1533.93 134.72L1548.94 81.854H1553.26L1538.25 134.72H1533.93ZM1570.02 119.624L1573.59 121.136C1570.82 123.446 1566.75 125.966 1563.51 127.52C1562.84 126.806 1561.37 125.546 1560.53 124.958C1563.89 123.656 1567.67 121.598 1570.02 119.624ZM1568.13 99.884V102.782H1577.63V99.884H1568.13ZM1568.13 94.172V97.028H1577.63V94.172H1568.13ZM1591.23 97.028V94.172H1581.41V97.028H1591.23ZM1591.23 102.782V99.884H1581.41V102.782H1591.23ZM1592.03 117.482L1581.78 117.986V124.37C1581.78 126.26 1581.41 127.184 1579.98 127.73C1578.59 128.318 1576.62 128.318 1573.85 128.318C1573.64 127.268 1573.01 125.756 1572.5 124.832C1574.43 124.874 1576.45 124.874 1577 124.832C1577.58 124.832 1577.75 124.706 1577.75 124.244V118.154C1566.83 118.7 1565.11 118.826 1563.81 119.288C1563.68 118.616 1563.18 116.894 1562.84 115.886C1564.31 115.802 1565.99 115.298 1568.43 114.416C1569.65 113.996 1572 113.114 1574.77 111.854C1567.88 112.316 1566.66 112.526 1565.87 112.82C1565.7 112.148 1565.19 110.426 1564.86 109.502C1565.66 109.418 1566.62 109.04 1567.71 108.494C1568.55 108.158 1570.53 107.15 1572.59 105.806H1564.48V91.106H1595.1V105.806H1578.3C1576.49 107.024 1574.69 108.116 1572.84 109.082L1581.24 108.662C1582.88 107.822 1584.47 106.856 1586.03 105.932L1588.92 108.2C1584.09 111.014 1579.14 113.324 1574.27 115.172L1589.13 114.584C1588.17 113.702 1587.12 112.82 1586.19 112.106L1588.97 110.216C1591.99 112.358 1595.35 115.55 1596.99 117.734L1594.09 119.96C1593.54 119.204 1592.83 118.406 1592.03 117.482ZM1584.56 121.64L1587.37 119.624C1590.73 121.178 1595.18 123.656 1597.53 125.462L1594.51 127.73C1592.37 125.966 1588 123.362 1584.56 121.64ZM1621.39 112.4L1619.12 115.466C1618.53 114.374 1617.27 112.568 1616.06 110.93V128.234H1612.28V111.56C1610.72 115.256 1608.87 118.742 1607.07 121.052C1606.65 119.96 1605.77 118.364 1605.14 117.44C1607.7 114.5 1610.39 109.376 1611.98 104.882H1606.23V101.228H1612.28V95.6C1610.47 95.936 1608.66 96.188 1606.98 96.398C1606.82 95.516 1606.31 94.214 1605.85 93.374C1610.34 92.744 1615.55 91.568 1618.53 90.308L1621.22 93.29C1619.71 93.878 1617.95 94.382 1616.06 94.844V101.228H1620.3V100.514H1630.17V98.666H1622.44V96.23H1630.17V94.424H1621.6V91.904H1630.17V89.762H1634.07V91.904H1643.19V94.424H1634.07V96.23H1642.18V98.666H1634.07V100.514H1644.15V103.076H1620.55V104.882H1616.06V106.94C1617.44 108.158 1620.63 111.476 1621.39 112.4ZM1638.27 109.67V107.402H1626.56V109.67H1638.27ZM1638.27 114.374V112.064H1626.56V114.374H1638.27ZM1638.27 119.078V116.768H1626.56V119.078H1638.27ZM1641.93 104.882V121.598H1627.94L1630.84 123.446C1628.32 125.42 1624.2 127.436 1620.84 128.486C1620.26 127.73 1619.16 126.638 1618.37 125.966C1621.64 125.042 1625.46 123.236 1627.48 121.598H1623.03V104.882H1641.93ZM1634.07 123.488L1636.68 121.598C1639.45 123.194 1642.68 125.168 1644.62 126.47L1641.21 128.36C1639.58 127.1 1636.64 125.084 1634.07 123.488ZM1682.92 96.734V94.004H1670.15V96.734H1682.92ZM1682.92 102.152V99.38H1670.15V102.152H1682.92ZM1686.66 91.106V105.05H1666.58V91.106H1686.66ZM1664.15 111.308L1659.57 112.736V123.614C1659.57 125.546 1659.19 126.596 1658.1 127.184C1656.96 127.814 1655.28 127.94 1652.64 127.94C1652.55 127.016 1652.09 125.336 1651.59 124.328C1653.27 124.37 1654.82 124.37 1655.28 124.37C1655.79 124.37 1656 124.202 1656 123.614V113.87L1651.59 115.214L1650.71 111.434C1652.18 111.056 1654.02 110.552 1656 110.006V101.564H1651.13V97.952H1656V89.846H1659.57V97.952H1664.02V101.564H1659.57V108.956L1663.6 107.78L1664.15 111.308ZM1678.34 118.28V124.118C1679.48 124.286 1680.65 124.328 1681.87 124.328C1683.05 124.328 1688.46 124.328 1690.06 124.286C1689.6 125.126 1689.09 126.764 1688.97 127.73H1681.74C1675.91 127.73 1671.54 126.68 1668.81 121.136C1667.67 124.076 1666.12 126.47 1664.06 128.318C1663.47 127.688 1662 126.47 1661.16 125.966C1664.78 123.068 1666.58 118.364 1667.25 112.442L1670.78 112.862C1670.57 114.416 1670.32 115.886 1669.98 117.272C1671.08 120.296 1672.67 122.102 1674.69 123.068V110.804H1664.61V107.612H1688.88V110.804H1678.34V115.172H1686.74V118.28H1678.34ZM1707.57 107.654L1708.2 111.098C1706.99 111.56 1705.73 112.064 1704.51 112.568V123.866C1704.51 125.714 1704.13 126.68 1703.08 127.268C1702.03 127.856 1700.43 127.982 1698 127.982C1697.87 127.058 1697.45 125.504 1696.95 124.538C1698.54 124.622 1700.01 124.622 1700.43 124.58C1700.94 124.58 1701.11 124.454 1701.11 123.908V113.828L1697.33 115.256L1696.32 111.476C1697.7 111.056 1699.34 110.468 1701.11 109.88V101.564H1696.82V97.952H1701.11V89.804H1704.51V97.952H1707.62V101.564H1704.51V108.704L1707.57 107.654ZM1729.2 117.272H1722.61C1723.95 118.322 1725.47 119.498 1726.98 120.716C1727.86 119.708 1728.66 118.532 1729.2 117.272ZM1731.35 114.374L1733.32 114.962C1732.48 118.112 1731.18 120.632 1729.41 122.69C1731.01 123.95 1732.4 125.21 1733.45 126.134L1731.18 128.318C1730.21 127.31 1728.87 126.05 1727.27 124.748C1725.3 126.386 1722.99 127.562 1720.43 128.402C1720.09 127.562 1719.29 126.302 1718.66 125.63C1720.97 125.042 1723.11 124.034 1724.88 122.648C1723.28 121.304 1721.64 119.96 1720.13 118.784L1721.9 117.272H1720.26V114.458H1730.72L1731.35 114.374ZM1732.61 95.642L1734.92 97.658C1733.53 98.834 1731.93 99.968 1730.59 100.85C1732.02 102.11 1733.7 103.076 1735.63 103.748C1734.87 104.462 1733.87 105.806 1733.4 106.73C1732.31 106.268 1731.35 105.764 1730.42 105.176V109.208C1730.42 110.048 1730.46 110.342 1730.88 110.342H1731.77C1732.19 110.342 1732.9 110.3 1733.32 110.132C1733.4 110.93 1733.45 111.98 1733.53 112.694C1733.11 112.862 1732.44 112.904 1731.81 112.904H1730.42C1727.86 112.904 1727.4 111.812 1727.4 109.166V106.1H1724.29V107.024C1724.29 109.46 1723.74 112.358 1721.01 114.248C1720.64 113.66 1719.54 112.61 1718.87 112.148V112.736H1712.24C1712.07 113.912 1711.9 115.088 1711.73 116.18H1718.87C1718.87 116.18 1718.83 117.104 1718.75 117.566C1718.28 123.362 1717.82 125.882 1716.9 126.848C1716.23 127.604 1715.47 127.856 1714.34 127.94C1713.45 128.024 1711.9 128.024 1710.3 127.94C1710.26 126.974 1709.88 125.714 1709.34 124.832C1710.89 125 1712.36 125 1712.99 125C1713.54 125 1713.87 124.958 1714.21 124.664C1714.71 124.118 1715.09 122.606 1715.39 119.036H1708.2C1708.67 116.558 1709.25 112.778 1709.59 109.754H1715.72V106.226H1710.51V105.848C1709.8 106.31 1709.04 106.688 1708.25 107.024C1707.91 106.226 1706.99 104.924 1706.31 104.294C1708.37 103.454 1710.3 102.194 1711.98 100.556C1711.06 99.632 1709.8 98.582 1708.71 97.826L1710.72 95.726C1711.82 96.398 1713.08 97.364 1714.04 98.246C1714.88 97.07 1715.64 95.81 1716.23 94.424H1709.38V91.358H1717.74L1718.33 91.232L1720.43 91.988C1719.21 96.734 1716.86 100.556 1713.87 103.286H1718.87V111.98C1720.97 110.426 1721.22 108.662 1721.22 106.94V103.286H1727.99C1724.67 100.262 1722.48 95.978 1721.18 90.728L1724.37 90.182C1724.75 91.694 1725.26 93.122 1725.89 94.466C1726.94 93.5 1728.15 92.24 1728.91 91.358L1731.22 93.374C1729.92 94.634 1728.41 95.894 1727.15 96.818C1727.61 97.616 1728.15 98.372 1728.74 99.002C1730.04 98.036 1731.64 96.608 1732.61 95.642ZM1750.04 133.358C1746.13 126.974 1743.82 120.212 1743.82 111.854C1743.82 103.58 1746.13 96.734 1750.04 90.392L1753.06 91.694C1749.45 97.742 1747.77 104.84 1747.77 111.854C1747.77 118.91 1749.45 126.008 1753.06 132.014L1750.04 133.358ZM1794.24 92.87V96.65H1764.67V92.87H1794.24ZM1788.23 123.908H1792.98C1794.53 123.908 1794.78 122.816 1794.95 116.6C1795.88 117.314 1797.56 117.986 1798.61 118.28C1798.19 125.546 1797.18 127.604 1793.27 127.604H1787.69C1783.53 127.604 1782.44 126.302 1782.44 122.186V108.158H1775.25C1774.5 117.02 1772.61 124.286 1762.74 128.234C1762.32 127.226 1761.18 125.84 1760.3 125.084C1769.08 121.808 1770.51 115.55 1771.1 108.158H1760.97V104.378H1797.89V108.158H1786.47V122.144C1786.47 123.656 1786.72 123.908 1788.23 123.908ZM1817.13 109.04C1817.13 117.566 1813.6 124.286 1808.81 129.116L1805.62 127.604C1810.2 122.816 1813.35 116.768 1813.35 109.04C1813.35 101.312 1810.2 95.264 1805.62 90.476L1808.81 88.964C1813.6 93.794 1817.13 100.514 1817.13 109.04Z" fill="#594A39"/>
<path d="M1307.8 247V232.6H1323.6V190.3H1309.9V179.3C1317.9 177.8 1323.1 175.8 1328.3 172.5H1341.4V232.6H1354.8V247H1307.8ZM1397.44 248.4C1381.74 248.4 1371.04 235 1371.04 209.4C1371.04 183.8 1381.74 171.2 1397.44 171.2C1413.14 171.2 1423.74 183.9 1423.74 209.4C1423.74 235 1413.14 248.4 1397.44 248.4ZM1397.44 234.6C1402.74 234.6 1406.94 229.8 1406.94 209.4C1406.94 189.1 1402.74 184.8 1397.44 184.8C1392.14 184.8 1387.84 189.1 1387.84 209.4C1387.84 229.8 1392.14 234.6 1397.44 234.6ZM1442.78 269.7L1439.18 260.2C1447.88 257.2 1452.48 251.8 1452.38 246.3H1451.48C1445.98 246.3 1440.88 242.7 1440.88 236.3C1440.88 230.3 1445.78 226.3 1451.98 226.3C1459.78 226.3 1464.08 232.5 1464.08 242.9C1464.08 255.8 1456.68 265.5 1442.78 269.7ZM1494.93 196.4C1494.93 204.4 1498.93 207.3 1503.93 207.3C1507.63 207.3 1511.73 205.3 1514.33 200.3C1512.93 188 1508.23 184.5 1503.63 184.5C1498.93 184.5 1494.93 187.8 1494.93 196.4ZM1501.63 248.4C1491.63 248.4 1484.43 244.2 1479.73 239.5L1489.13 228.8C1491.63 231.6 1496.23 234 1500.43 234C1508.03 234 1514.03 228.6 1514.73 212.5C1511.03 217.1 1504.83 219.8 1500.53 219.8C1488.03 219.8 1478.73 212.4 1478.73 196.4C1478.73 180.6 1489.93 171.2 1503.23 171.2C1517.33 171.2 1531.03 181.9 1531.03 208.9C1531.03 235.9 1516.83 248.4 1501.63 248.4ZM1572.17 248.4C1557.57 248.4 1546.67 240.3 1546.67 228.5C1546.67 219.2 1551.97 213.3 1558.87 209.7V209.2C1553.07 204.9 1549.17 199.2 1549.17 191.3C1549.17 178.9 1559.07 171.2 1572.77 171.2C1586.17 171.2 1595.07 179 1595.07 191.1C1595.07 198.2 1590.77 204.1 1585.67 207.6V208.1C1592.77 211.8 1598.17 218 1598.17 228.2C1598.17 239.7 1587.77 248.4 1572.17 248.4ZM1576.67 203.3C1579.47 199.9 1580.67 196.1 1580.67 192.3C1580.67 186.9 1577.57 183.5 1572.37 183.5C1568.27 183.5 1564.77 186 1564.77 191.3C1564.77 197.2 1569.37 200.4 1576.67 203.3ZM1572.57 236C1577.77 236 1581.67 233.4 1581.67 227.5C1581.67 221 1575.97 218.2 1566.87 214.3C1563.87 217.2 1561.87 221.7 1561.87 226.4C1561.87 232.5 1566.77 236 1572.57 236ZM1628.81 196.4C1628.81 204.4 1632.81 207.3 1637.81 207.3C1641.51 207.3 1645.61 205.3 1648.21 200.3C1646.81 188 1642.11 184.5 1637.51 184.5C1632.81 184.5 1628.81 187.8 1628.81 196.4ZM1635.51 248.4C1625.51 248.4 1618.31 244.2 1613.61 239.5L1623.01 228.8C1625.51 231.6 1630.11 234 1634.31 234C1641.91 234 1647.91 228.6 1648.61 212.5C1644.91 217.1 1638.71 219.8 1634.41 219.8C1621.91 219.8 1612.61 212.4 1612.61 196.4C1612.61 180.6 1623.81 171.2 1637.11 171.2C1651.21 171.2 1664.91 181.9 1664.91 208.9C1664.91 235.9 1650.71 248.4 1635.51 248.4ZM1684.65 269.7L1681.05 260.2C1689.75 257.2 1694.35 251.8 1694.25 246.3H1693.35C1687.85 246.3 1682.75 242.7 1682.75 236.3C1682.75 230.3 1687.65 226.3 1693.85 226.3C1701.65 226.3 1705.95 232.5 1705.95 242.9C1705.95 255.8 1698.55 265.5 1684.65 269.7ZM1747.3 248.4C1731.6 248.4 1720.9 235 1720.9 209.4C1720.9 183.8 1731.6 171.2 1747.3 171.2C1763 171.2 1773.6 183.9 1773.6 209.4C1773.6 235 1763 248.4 1747.3 248.4ZM1747.3 234.6C1752.6 234.6 1756.8 229.8 1756.8 209.4C1756.8 189.1 1752.6 184.8 1747.3 184.8C1742 184.8 1737.7 189.1 1737.7 209.4C1737.7 229.8 1742 234.6 1747.3 234.6ZM1814.24 248.4C1798.54 248.4 1787.84 235 1787.84 209.4C1787.84 183.8 1798.54 171.2 1814.24 171.2C1829.94 171.2 1840.54 183.9 1840.54 209.4C1840.54 235 1829.94 248.4 1814.24 248.4ZM1814.24 234.6C1819.54 234.6 1823.74 229.8 1823.74 209.4C1823.74 189.1 1819.54 184.8 1814.24 184.8C1808.94 184.8 1804.64 189.1 1804.64 209.4C1804.64 229.8 1808.94 234.6 1814.24 234.6ZM1881.18 248.4C1865.48 248.4 1854.78 235 1854.78 209.4C1854.78 183.8 1865.48 171.2 1881.18 171.2C1896.88 171.2 1907.48 183.9 1907.48 209.4C1907.48 235 1896.88 248.4 1881.18 248.4ZM1881.18 234.6C1886.48 234.6 1890.68 229.8 1890.68 209.4C1890.68 189.1 1886.48 184.8 1881.18 184.8C1875.88 184.8 1871.58 189.1 1871.58 209.4C1871.58 229.8 1875.88 234.6 1881.18 234.6Z" fill="#EEB690"/>
</svg>
