<svg width="1972" height="356" viewBox="0 0 1972 356" fill="none" xmlns="http://www.w3.org/2000/svg">
<rect width="1972" height="356" rx="80" fill="#F9F8F3"/>
<rect x="54" y="82" width="192" height="192" rx="96" fill="#FDFDFB"/>
<rect x="54" y="82" width="192" height="192" rx="96" stroke="#F2EEE4" stroke-width="8"/>
<path d="M188.556 119.723L160.97 126.619C149.166 129.24 137.787 133.515 127.174 139.311C120.329 142.968 114.396 148.118 109.812 154.381C105.227 160.643 102.11 167.854 100.693 175.484C99.2752 183.115 99.5926 190.966 101.622 198.457C103.652 205.948 107.343 212.888 112.418 218.76C112.418 218.76 149.793 246.345 184.138 203.724C193.887 192.097 199.593 177.615 200.39 162.462C201.186 147.31 197.033 132.307 188.556 119.723Z" fill="#B8C318"/>
<path d="M112.265 236.001C112.796 235.833 113.287 235.545 113.693 235.163C114.099 234.781 114.408 234.312 114.609 233.792C123.848 206.944 138.602 182.325 157.921 161.517C158.652 160.881 159.146 160.017 159.322 159.065C159.497 158.113 159.34 157.131 158.884 156.277C158.626 155.877 158.289 155.539 157.887 155.284C157.486 155.028 157.032 154.861 156.561 154.795C156.089 154.73 155.609 154.766 155.153 154.903C154.697 155.04 154.278 155.273 153.92 155.587C132.166 176.022 114.643 200.532 102.338 227.724C101.51 229.517 107.99 235.174 109.921 235.863C110.278 236.058 110.674 236.17 111.08 236.193C111.485 236.217 111.888 236.152 112.265 236.001Z" fill="#DADD8D"/>
<path d="M303.784 111V78.22H324.552V84.776H311.66V90.848H322.616V97.448H311.66V104.4H325.036V111H303.784ZM332.643 111V85.964H339.023L339.595 89.088H339.727C341.795 87.064 344.347 85.348 347.735 85.348C353.191 85.348 355.523 89.264 355.523 95.512V111H347.691V96.48C347.691 93.004 346.767 92.036 344.787 92.036C343.027 92.036 341.971 92.828 340.475 94.28V111H332.643ZM369.128 111L360.812 85.964H368.688L371.724 97.492C372.384 99.956 372.956 102.552 373.616 105.192H373.836C374.452 102.552 375.068 99.956 375.684 97.492L378.764 85.964H386.288L378.192 111H369.128ZM391.85 111V85.964H399.682V111H391.85ZM395.766 82.488C393.126 82.488 391.41 80.904 391.41 78.44C391.41 76.02 393.126 74.436 395.766 74.436C398.362 74.436 400.122 76.02 400.122 78.44C400.122 80.904 398.362 82.488 395.766 82.488ZM407.747 111V85.964H414.127L414.699 90.32H414.831C416.679 86.976 419.451 85.348 421.959 85.348C423.455 85.348 424.291 85.568 424.995 85.876L423.719 92.608C422.795 92.388 422.047 92.212 420.947 92.212C419.099 92.212 416.855 93.4 415.579 96.7V111H407.747ZM440.27 111.616C433.89 111.616 427.994 106.776 427.994 98.46C427.994 90.188 433.89 85.348 440.27 85.348C446.606 85.348 452.502 90.188 452.502 98.46C452.502 106.776 446.606 111.616 440.27 111.616ZM440.27 105.28C443.174 105.28 444.494 102.64 444.494 98.46C444.494 94.324 443.174 91.684 440.27 91.684C437.322 91.684 436.002 94.324 436.002 98.46C436.002 102.64 437.322 105.28 440.27 105.28ZM459.177 111V85.964H465.557L466.129 89.088H466.261C468.329 87.064 470.881 85.348 474.269 85.348C479.725 85.348 482.057 89.264 482.057 95.512V111H474.225V96.48C474.225 93.004 473.301 92.036 471.321 92.036C469.561 92.036 468.505 92.828 467.009 94.28V111H459.177ZM489.898 111V85.964H496.278L496.85 89.132H496.982C499.05 87.064 501.206 85.348 504.594 85.348C508.07 85.348 510.182 86.8 511.458 89.484C513.614 87.284 515.946 85.348 519.29 85.348C524.746 85.348 527.122 89.264 527.122 95.512V111H519.29V96.48C519.29 93.004 518.41 92.036 516.43 92.036C515.286 92.036 513.922 92.74 512.426 94.28V111H504.594V96.48C504.594 93.004 503.67 92.036 501.69 92.036C500.546 92.036 499.182 92.74 497.73 94.28V111H489.898ZM546.366 111.616C539.15 111.616 533.606 106.776 533.606 98.46C533.606 90.364 539.458 85.348 545.486 85.348C552.702 85.348 556.222 90.584 556.222 97.404C556.222 98.812 556.046 100.176 555.87 100.792H541.174C541.878 104.224 544.254 105.632 547.422 105.632C549.226 105.632 550.898 105.104 552.702 104.048L555.298 108.756C552.702 110.604 549.27 111.616 546.366 111.616ZM541.042 95.644H549.578C549.578 93.18 548.478 91.332 545.618 91.332C543.462 91.332 541.57 92.696 541.042 95.644ZM562.985 111V85.964H569.365L569.937 89.088H570.069C572.137 87.064 574.689 85.348 578.077 85.348C583.533 85.348 585.865 89.264 585.865 95.512V111H578.033V96.48C578.033 93.004 577.109 92.036 575.129 92.036C573.369 92.036 572.313 92.828 570.817 94.28V111H562.985ZM603.562 111.616C597.27 111.616 594.718 107.612 594.718 101.716V92.08H591.33V86.272L595.202 85.964L596.082 79.32H602.55V85.964H608.446V92.08H602.55V101.628C602.55 104.4 603.87 105.5 605.718 105.5C606.51 105.5 607.39 105.236 608.006 105.016L609.238 110.692C607.918 111.088 606.114 111.616 603.562 111.616ZM620.364 111.616C615.744 111.616 612.928 108.184 612.928 104.004C612.928 98.724 617.064 95.864 626.832 94.808C626.656 92.784 625.6 91.596 623.048 91.596C621.068 91.596 619 92.388 616.492 93.796L613.764 88.648C617.064 86.668 620.628 85.348 624.544 85.348C631.012 85.348 634.664 88.956 634.664 96.788V111H628.284L627.756 108.492H627.536C625.468 110.34 623.136 111.616 620.364 111.616ZM623.048 105.544C624.632 105.544 625.688 104.796 626.832 103.564V99.56C621.948 100.176 620.364 101.628 620.364 103.388C620.364 104.84 621.42 105.544 623.048 105.544ZM649.6 111.616C644.232 111.616 642.472 108.096 642.472 102.86V75.844H650.304V103.124C650.304 104.796 651.052 105.28 651.668 105.28C651.932 105.28 652.108 105.28 652.548 105.192L653.472 110.956C652.636 111.308 651.36 111.616 649.6 111.616ZM681.7 111.616C674.66 111.616 669.248 106.776 669.248 98.46C669.248 90.188 675.408 85.348 682.404 85.348C685.44 85.348 687.816 86.404 689.708 88.032L686.056 93.004C684.912 92.08 683.944 91.684 682.888 91.684C679.412 91.684 677.256 94.324 677.256 98.46C677.256 102.64 679.544 105.28 682.58 105.28C684.164 105.28 685.66 104.532 686.936 103.52L689.972 108.668C687.508 110.824 684.34 111.616 681.7 111.616ZM705.456 111.616C699.076 111.616 693.18 106.776 693.18 98.46C693.18 90.188 699.076 85.348 705.456 85.348C711.792 85.348 717.688 90.188 717.688 98.46C717.688 106.776 711.792 111.616 705.456 111.616ZM705.456 105.28C708.36 105.28 709.68 102.64 709.68 98.46C709.68 94.324 708.36 91.684 705.456 91.684C702.508 91.684 701.188 94.324 701.188 98.46C701.188 102.64 702.508 105.28 705.456 105.28ZM724.363 111V85.964H730.743L731.315 89.088H731.447C733.515 87.064 736.067 85.348 739.455 85.348C744.911 85.348 747.243 89.264 747.243 95.512V111H739.411V96.48C739.411 93.004 738.487 92.036 736.507 92.036C734.747 92.036 733.691 92.828 732.195 94.28V111H724.363ZM762.564 111.616C759.308 111.616 755.48 110.208 752.928 108.096L756.404 103.212C758.692 104.928 760.76 105.852 762.74 105.852C764.808 105.852 765.688 105.104 765.688 103.872C765.688 102.376 763.268 101.672 760.716 100.66C757.724 99.472 754.336 97.448 754.336 93.268C754.336 88.56 758.164 85.348 764.016 85.348C767.932 85.348 770.836 86.932 772.948 88.56L769.472 93.224C767.668 91.948 765.908 91.112 764.28 91.112C762.476 91.112 761.64 91.728 761.64 92.916C761.64 94.412 763.796 94.984 766.392 95.908C769.516 97.096 772.992 98.9 772.992 103.432C772.992 108.052 769.384 111.616 762.564 111.616ZM790.626 111.616C783.41 111.616 777.866 106.776 777.866 98.46C777.866 90.364 783.718 85.348 789.746 85.348C796.962 85.348 800.482 90.584 800.482 97.404C800.482 98.812 800.306 100.176 800.13 100.792H785.434C786.138 104.224 788.514 105.632 791.682 105.632C793.486 105.632 795.158 105.104 796.962 104.048L799.558 108.756C796.962 110.604 793.53 111.616 790.626 111.616ZM785.302 95.644H793.838C793.838 93.18 792.738 91.332 789.878 91.332C787.722 91.332 785.83 92.696 785.302 95.644ZM807.245 111V85.964H813.625L814.197 90.32H814.329C816.177 86.976 818.949 85.348 821.457 85.348C822.953 85.348 823.789 85.568 824.493 85.876L823.217 92.608C822.293 92.388 821.545 92.212 820.445 92.212C818.597 92.212 816.353 93.4 815.077 96.7V111H807.245ZM835.394 111L827.078 85.964H834.954L837.99 97.492C838.65 99.956 839.222 102.552 839.882 105.192H840.102C840.718 102.552 841.334 99.956 841.95 97.492L845.03 85.964H852.554L844.458 111H835.394ZM863.421 111.616C858.801 111.616 855.985 108.184 855.985 104.004C855.985 98.724 860.121 95.864 869.889 94.808C869.713 92.784 868.657 91.596 866.105 91.596C864.125 91.596 862.057 92.388 859.549 93.796L856.821 88.648C860.121 86.668 863.685 85.348 867.601 85.348C874.069 85.348 877.721 88.956 877.721 96.788V111H871.341L870.813 108.492H870.593C868.525 110.34 866.193 111.616 863.421 111.616ZM866.105 105.544C867.689 105.544 868.745 104.796 869.889 103.564V99.56C865.005 100.176 863.421 101.628 863.421 103.388C863.421 104.84 864.477 105.544 866.105 105.544ZM894.396 111.616C888.104 111.616 885.552 107.612 885.552 101.716V92.08H882.164V86.272L886.036 85.964L886.916 79.32H893.384V85.964H899.28V92.08H893.384V101.628C893.384 104.4 894.704 105.5 896.552 105.5C897.344 105.5 898.224 105.236 898.84 105.016L900.072 110.692C898.752 111.088 896.948 111.616 894.396 111.616ZM905.894 111V85.964H913.726V111H905.894ZM909.81 82.488C907.17 82.488 905.454 80.904 905.454 78.44C905.454 76.02 907.17 74.436 909.81 74.436C912.406 74.436 914.166 76.02 914.166 78.44C914.166 80.904 912.406 82.488 909.81 82.488ZM932.659 111.616C926.279 111.616 920.383 106.776 920.383 98.46C920.383 90.188 926.279 85.348 932.659 85.348C938.995 85.348 944.891 90.188 944.891 98.46C944.891 106.776 938.995 111.616 932.659 111.616ZM932.659 105.28C935.563 105.28 936.883 102.64 936.883 98.46C936.883 94.324 935.563 91.684 932.659 91.684C929.711 91.684 928.391 94.324 928.391 98.46C928.391 102.64 929.711 105.28 932.659 105.28ZM951.566 111V85.964H957.946L958.518 89.088H958.65C960.718 87.064 963.27 85.348 966.658 85.348C972.114 85.348 974.446 89.264 974.446 95.512V111H966.614V96.48C966.614 93.004 965.69 92.036 963.71 92.036C961.95 92.036 960.894 92.828 959.398 94.28V111H951.566Z" fill="#594A39"/>
<path d="M306.188 152.6L305.408 155.174H310.634L309.88 152.6C309.23 150.52 308.658 148.388 308.086 146.23H307.956C307.41 148.414 306.812 150.52 306.188 152.6ZM300 163L306.344 143.838H309.828L316.172 163H312.974L311.362 157.54H304.706L303.068 163H300ZM325.3 163.338C321.426 163.338 318.462 160.608 318.462 155.85C318.462 151.092 321.764 148.336 325.534 148.336C327.354 148.336 328.68 149.064 329.72 149.974L328.238 151.924C327.458 151.222 326.652 150.806 325.69 150.806C323.272 150.806 321.556 152.834 321.556 155.85C321.556 158.892 323.22 160.894 325.586 160.894C326.782 160.894 327.848 160.322 328.706 159.594L329.954 161.57C328.628 162.74 326.938 163.338 325.3 163.338ZM339.086 163.338C335.212 163.338 332.248 160.608 332.248 155.85C332.248 151.092 335.55 148.336 339.32 148.336C341.14 148.336 342.466 149.064 343.506 149.974L342.024 151.924C341.244 151.222 340.438 150.806 339.476 150.806C337.058 150.806 335.342 152.834 335.342 155.85C335.342 158.892 337.006 160.894 339.372 160.894C340.568 160.894 341.634 160.322 342.492 159.594L343.74 161.57C342.414 162.74 340.724 163.338 339.086 163.338ZM351.946 163.338C348.878 163.338 347.552 161.336 347.552 157.696V148.7H350.542V157.332C350.542 159.776 351.244 160.764 352.934 160.764C354.26 160.764 355.17 160.14 356.366 158.632V148.7H359.356V163H356.912L356.678 160.842H356.6C355.3 162.35 353.896 163.338 351.946 163.338ZM364.897 163V148.7H367.341L367.575 150.702H367.653C368.875 149.402 370.305 148.336 372.073 148.336C374.205 148.336 375.401 149.324 376.025 150.962C377.429 149.454 378.885 148.336 380.679 148.336C383.669 148.336 385.073 150.364 385.073 154.004V163H382.083V154.368C382.083 151.898 381.303 150.91 379.691 150.91C378.703 150.91 377.663 151.56 376.467 152.86V163H373.477V154.368C373.477 151.898 372.723 150.91 371.085 150.91C370.123 150.91 369.057 151.56 367.887 152.86V163H364.897ZM394.651 163.338C391.583 163.338 390.257 161.336 390.257 157.696V148.7H393.247V157.332C393.247 159.776 393.949 160.764 395.639 160.764C396.965 160.764 397.875 160.14 399.071 158.632V148.7H402.061V163H399.617L399.383 160.842H399.305C398.005 162.35 396.601 163.338 394.651 163.338ZM410.566 163.338C408.408 163.338 407.602 161.96 407.602 159.646V142.278H410.592V159.802C410.592 160.608 410.93 160.894 411.294 160.894C411.424 160.894 411.528 160.894 411.788 160.842L412.178 163.104C411.814 163.234 411.32 163.338 410.566 163.338ZM419.766 163.338C417.296 163.338 415.554 161.726 415.554 159.204C415.554 156.136 418.154 154.55 424.108 153.9C424.082 152.236 423.484 150.78 421.378 150.78C419.87 150.78 418.466 151.456 417.244 152.236L416.126 150.208C417.608 149.272 419.61 148.336 421.898 148.336C425.46 148.336 427.098 150.598 427.098 154.394V163H424.654L424.42 161.362H424.316C423.016 162.48 421.482 163.338 419.766 163.338ZM420.676 160.972C421.924 160.972 422.938 160.374 424.108 159.308V155.798C419.87 156.292 418.44 157.384 418.44 158.996C418.44 160.4 419.402 160.972 420.676 160.972ZM436.759 163.338C433.535 163.338 432.417 161.336 432.417 158.32V151.092H430.337V148.856L432.573 148.7L432.911 144.748H435.407V148.7H439.125V151.092H435.407V158.346C435.407 160.062 436.005 160.946 437.487 160.946C437.981 160.946 438.605 160.79 439.021 160.608L439.567 162.818C438.761 163.078 437.799 163.338 436.759 163.338ZM448.82 163.338C444.946 163.338 441.852 160.582 441.852 155.85C441.852 151.222 445.05 148.336 448.378 148.336C452.174 148.336 454.228 151.066 454.228 155.096C454.228 155.694 454.15 156.266 454.072 156.63H444.79C445.024 159.36 446.74 160.998 449.21 160.998C450.484 160.998 451.576 160.608 452.616 159.932L453.656 161.83C452.33 162.714 450.692 163.338 448.82 163.338ZM444.764 154.55H451.628C451.628 152.106 450.51 150.676 448.43 150.676C446.636 150.676 445.05 152.054 444.764 154.55ZM463.547 163.338C459.959 163.338 457.645 160.608 457.645 155.85C457.645 151.222 460.583 148.336 463.781 148.336C465.419 148.336 466.459 148.96 467.629 149.948L467.499 147.582V142.278H470.489V163H468.045L467.811 161.388H467.707C466.641 162.48 465.159 163.338 463.547 163.338ZM464.249 160.868C465.445 160.868 466.459 160.322 467.499 159.126V152.132C466.433 151.17 465.419 150.832 464.353 150.832C462.351 150.832 460.739 152.73 460.739 155.824C460.739 159.074 462.013 160.868 464.249 160.868ZM486.83 152.6L486.05 155.174H491.276L490.522 152.6C489.872 150.52 489.3 148.388 488.728 146.23H488.598C488.052 148.414 487.454 150.52 486.83 152.6ZM480.642 163L486.986 143.838H490.47L496.814 163H493.616L492.004 157.54H485.348L483.71 163H480.642ZM503.082 163.338C500.924 163.338 500.118 161.96 500.118 159.646V142.278H503.108V159.802C503.108 160.608 503.446 160.894 503.81 160.894C503.94 160.894 504.044 160.894 504.304 160.842L504.694 163.104C504.33 163.234 503.836 163.338 503.082 163.338ZM511.866 163.338C509.708 163.338 508.902 161.96 508.902 159.646V142.278H511.892V159.802C511.892 160.608 512.23 160.894 512.594 160.894C512.724 160.894 512.828 160.894 513.088 160.842L513.478 163.104C513.114 163.234 512.62 163.338 511.866 163.338ZM523.406 163.338C519.87 163.338 516.672 160.608 516.672 155.85C516.672 151.092 519.87 148.336 523.406 148.336C526.942 148.336 530.14 151.092 530.14 155.85C530.14 160.608 526.942 163.338 523.406 163.338ZM523.406 160.894C525.668 160.894 527.072 158.892 527.072 155.85C527.072 152.834 525.668 150.806 523.406 150.806C521.17 150.806 519.766 152.834 519.766 155.85C519.766 158.892 521.17 160.894 523.406 160.894ZM540.521 163.338C536.647 163.338 533.683 160.608 533.683 155.85C533.683 151.092 536.985 148.336 540.755 148.336C542.575 148.336 543.901 149.064 544.941 149.974L543.459 151.924C542.679 151.222 541.873 150.806 540.911 150.806C538.493 150.806 536.777 152.834 536.777 155.85C536.777 158.892 538.441 160.894 540.807 160.894C542.003 160.894 543.069 160.322 543.927 159.594L545.175 161.57C543.849 162.74 542.159 163.338 540.521 163.338ZM552.269 163.338C549.799 163.338 548.057 161.726 548.057 159.204C548.057 156.136 550.657 154.55 556.611 153.9C556.585 152.236 555.987 150.78 553.881 150.78C552.373 150.78 550.969 151.456 549.747 152.236L548.629 150.208C550.111 149.272 552.113 148.336 554.401 148.336C557.963 148.336 559.601 150.598 559.601 154.394V163H557.157L556.923 161.362H556.819C555.519 162.48 553.985 163.338 552.269 163.338ZM553.179 160.972C554.427 160.972 555.441 160.374 556.611 159.308V155.798C552.373 156.292 550.943 157.384 550.943 158.996C550.943 160.4 551.905 160.972 553.179 160.972ZM569.263 163.338C566.039 163.338 564.921 161.336 564.921 158.32V151.092H562.841V148.856L565.077 148.7L565.415 144.748H567.911V148.7H571.629V151.092H567.911V158.346C567.911 160.062 568.509 160.946 569.991 160.946C570.485 160.946 571.109 160.79 571.525 160.608L572.071 162.818C571.265 163.078 570.303 163.338 569.263 163.338ZM575.801 163V148.7H578.791V163H575.801ZM577.283 146.022C576.191 146.022 575.437 145.32 575.437 144.228C575.437 143.162 576.191 142.46 577.283 142.46C578.375 142.46 579.155 143.162 579.155 144.228C579.155 145.32 578.375 146.022 577.283 146.022ZM590.026 163.338C586.49 163.338 583.292 160.608 583.292 155.85C583.292 151.092 586.49 148.336 590.026 148.336C593.562 148.336 596.76 151.092 596.76 155.85C596.76 160.608 593.562 163.338 590.026 163.338ZM590.026 160.894C592.288 160.894 593.692 158.892 593.692 155.85C593.692 152.834 592.288 150.806 590.026 150.806C587.79 150.806 586.386 152.834 586.386 155.85C586.386 158.892 587.79 160.894 590.026 160.894ZM601.317 163V148.7H603.761L603.995 150.676H604.073C605.399 149.402 606.855 148.336 608.805 148.336C611.847 148.336 613.199 150.364 613.199 154.004V163H610.209V154.368C610.209 151.898 609.481 150.91 607.791 150.91C606.465 150.91 605.555 151.586 604.307 152.86V163H601.317ZM629.387 152.6L628.607 155.174H633.833L633.079 152.6C632.429 150.52 631.857 148.388 631.285 146.23H631.155C630.609 148.414 630.011 150.52 629.387 152.6ZM623.199 163L629.543 143.838H633.027L639.371 163H636.173L634.561 157.54H627.905L626.267 163H623.199ZM642.675 163V148.7H645.119L645.353 150.702H645.431C646.653 149.402 648.083 148.336 649.851 148.336C651.983 148.336 653.179 149.324 653.803 150.962C655.207 149.454 656.663 148.336 658.457 148.336C661.447 148.336 662.851 150.364 662.851 154.004V163H659.861V154.368C659.861 151.898 659.081 150.91 657.469 150.91C656.481 150.91 655.441 151.56 654.245 152.86V163H651.255V154.368C651.255 151.898 650.501 150.91 648.863 150.91C647.901 150.91 646.835 151.56 645.665 152.86V163H642.675ZM673.937 163.338C670.401 163.338 667.203 160.608 667.203 155.85C667.203 151.092 670.401 148.336 673.937 148.336C677.473 148.336 680.671 151.092 680.671 155.85C680.671 160.608 677.473 163.338 673.937 163.338ZM673.937 160.894C676.199 160.894 677.603 158.892 677.603 155.85C677.603 152.834 676.199 150.806 673.937 150.806C671.701 150.806 670.297 152.834 670.297 155.85C670.297 158.892 671.701 160.894 673.937 160.894ZM689.44 163.338C686.372 163.338 685.046 161.336 685.046 157.696V148.7H688.036V157.332C688.036 159.776 688.738 160.764 690.428 160.764C691.754 160.764 692.664 160.14 693.86 158.632V148.7H696.85V163H694.406L694.172 160.842H694.094C692.794 162.35 691.39 163.338 689.44 163.338ZM702.391 163V148.7H704.835L705.069 150.676H705.147C706.473 149.402 707.929 148.336 709.879 148.336C712.921 148.336 714.273 150.364 714.273 154.004V163H711.283V154.368C711.283 151.898 710.555 150.91 708.865 150.91C707.539 150.91 706.629 151.586 705.381 152.86V163H702.391ZM724.465 163.338C721.241 163.338 720.123 161.336 720.123 158.32V151.092H718.043V148.856L720.279 148.7L720.617 144.748H723.113V148.7H726.831V151.092H723.113V158.346C723.113 160.062 723.711 160.946 725.193 160.946C725.687 160.946 726.311 160.79 726.727 160.608L727.273 162.818C726.467 163.078 725.505 163.338 724.465 163.338ZM741.784 168.174C739.366 164.222 737.936 160.036 737.936 154.862C737.936 149.74 739.366 145.502 741.784 141.576L743.656 142.382C741.42 146.126 740.38 150.52 740.38 154.862C740.38 159.23 741.42 163.624 743.656 167.342L741.784 168.174ZM748.426 163V143.838H751.52L757.864 155.096L759.866 159.152H759.996C759.84 157.176 759.606 154.862 759.606 152.782V143.838H762.466V163H759.372L753.028 151.716L751.026 147.712H750.896C751.052 149.688 751.286 151.898 751.286 153.978V163H748.426ZM772.46 163V146.386H766.844V143.838H781.118V146.386H775.476V163H772.46ZM785.469 163V143.838H790.435C796.311 143.838 799.665 147.114 799.665 153.354C799.665 159.568 796.311 163 790.591 163H785.469ZM788.485 160.53H790.227C794.335 160.53 796.545 158.112 796.545 153.354C796.545 148.57 794.335 146.308 790.227 146.308H788.485V160.53ZM805.235 168.174L803.363 167.342C805.599 163.624 806.639 159.23 806.639 154.862C806.639 150.52 805.599 146.126 803.363 142.382L805.235 141.576C807.679 145.502 809.109 149.74 809.109 154.862C809.109 160.036 807.679 164.222 805.235 168.174Z" fill="#594A39"/>
<path d="M304.2 270V259.8C322.8 242.9 335.3 229.4 335.3 218.6C335.3 211.8 331.6 208.1 325.6 208.1C320.5 208.1 316.6 211.5 313 215.3L303.3 205.7C310.6 197.9 317.4 194.2 328 194.2C342.4 194.2 352.4 203.4 352.4 217.6C352.4 230.4 341.4 244.5 330 256C333.7 255.5 338.8 255 342.2 255H355.8V270H304.2ZM397.438 271.4C381.738 271.4 371.038 258 371.038 232.4C371.038 206.8 381.738 194.2 397.438 194.2C413.138 194.2 423.738 206.9 423.738 232.4C423.738 258 413.138 271.4 397.438 271.4ZM397.438 257.6C402.738 257.6 406.938 252.8 406.938 232.4C406.938 212.1 402.738 207.8 397.438 207.8C392.138 207.8 387.838 212.1 387.838 232.4C387.838 252.8 392.138 257.6 397.438 257.6ZM461.775 271.4C449.975 271.4 441.675 267.3 436.275 261L444.475 249.8C448.975 254 454.175 257 459.975 257C466.875 257 471.375 254.1 471.375 248.5C471.375 242.1 467.975 238.3 452.375 238.3V225.7C465.075 225.7 469.075 221.9 469.075 216C469.075 210.9 466.075 208.1 460.575 208.1C455.575 208.1 451.775 210.3 447.275 214.3L438.275 203.4C445.175 197.6 452.575 194.2 461.375 194.2C476.775 194.2 486.875 201.4 486.875 214.7C486.875 222.1 482.875 227.9 474.975 231.1V231.6C483.175 234.1 489.275 240.1 489.275 249.7C489.275 263.6 476.575 271.4 461.775 271.4ZM509.713 292.7L506.113 283.2C514.813 280.2 519.413 274.8 519.313 269.3H518.413C512.913 269.3 507.813 265.7 507.813 259.3C507.813 253.3 512.713 249.3 518.913 249.3C526.713 249.3 531.013 255.5 531.013 265.9C531.013 278.8 523.613 288.5 509.713 292.7ZM549.671 270V255.6H565.471V213.3H551.771V202.3C559.771 200.8 564.971 198.8 570.171 195.5H583.271V255.6H596.671V270H549.671ZM637.309 271.4C625.409 271.4 617.209 266.9 611.309 261.1L619.409 249.9C623.609 253.9 628.809 257 634.709 257C641.909 257 646.409 253.1 646.409 245.4C646.409 237.9 641.909 233.9 635.509 233.9C631.409 233.9 629.409 234.7 625.009 237.5L617.209 232.4L619.109 195.5H660.909V210.4H634.409L633.309 223C636.009 221.9 638.209 221.5 641.009 221.5C653.609 221.5 664.209 228.9 664.209 245C664.209 261.7 651.609 271.4 637.309 271.4ZM707.446 235.3C703.746 235.3 699.646 237.2 696.946 242C698.446 254.4 703.046 258.1 707.746 258.1C712.446 258.1 716.446 254.6 716.446 246.1C716.446 238 712.346 235.3 707.446 235.3ZM708.146 271.4C694.146 271.4 680.346 260.5 680.346 233.4C680.346 206.5 694.546 194.2 709.946 194.2C719.746 194.2 726.946 198.3 731.646 203.1L722.246 213.6C719.846 211 715.246 208.4 711.146 208.4C703.446 208.4 697.346 213.9 696.646 230.1C700.346 225.4 706.646 222.8 710.846 222.8C723.246 222.8 732.646 230 732.646 246.1C732.646 261.9 721.446 271.4 708.146 271.4ZM751.584 292.7L747.984 283.2C756.684 280.2 761.284 274.8 761.184 269.3H760.284C754.784 269.3 749.684 265.7 749.684 259.3C749.684 253.3 754.584 249.3 760.784 249.3C768.584 249.3 772.884 255.5 772.884 265.9C772.884 278.8 765.484 288.5 751.584 292.7ZM814.242 271.4C798.542 271.4 787.842 258 787.842 232.4C787.842 206.8 798.542 194.2 814.242 194.2C829.942 194.2 840.542 206.9 840.542 232.4C840.542 258 829.942 271.4 814.242 271.4ZM814.242 257.6C819.542 257.6 823.742 252.8 823.742 232.4C823.742 212.1 819.542 207.8 814.242 207.8C808.942 207.8 804.642 212.1 804.642 232.4C804.642 252.8 808.942 257.6 814.242 257.6ZM881.18 271.4C865.48 271.4 854.78 258 854.78 232.4C854.78 206.8 865.48 194.2 881.18 194.2C896.88 194.2 907.48 206.9 907.48 232.4C907.48 258 896.88 271.4 881.18 271.4ZM881.18 257.6C886.48 257.6 890.68 252.8 890.68 232.4C890.68 212.1 886.48 207.8 881.18 207.8C875.88 207.8 871.58 212.1 871.58 232.4C871.58 252.8 875.88 257.6 881.18 257.6ZM948.117 271.4C932.417 271.4 921.717 258 921.717 232.4C921.717 206.8 932.417 194.2 948.117 194.2C963.817 194.2 974.417 206.9 974.417 232.4C974.417 258 963.817 271.4 948.117 271.4ZM948.117 257.6C953.417 257.6 957.617 252.8 957.617 232.4C957.617 212.1 953.417 207.8 948.117 207.8C942.817 207.8 938.517 212.1 938.517 232.4C938.517 252.8 942.817 257.6 948.117 257.6Z" fill="#B8C318"/>
<rect x="1054" y="82" width="192" height="192" rx="96" fill="#FDFDFB"/>
<rect x="1054" y="82" width="192" height="192" rx="96" stroke="#F2EEE4" stroke-width="8"/>
<path d="M1139.72 229.933C1127.31 222.372 1116.83 212.029 1109.1 199.724C1101.1 186.896 1088.41 151.864 1105.38 136.139C1126.2 116.829 1146.76 129.795 1148.96 136.968C1153.46 133.287 1158.63 130.537 1164.2 128.879C1169.76 127.221 1175.6 126.686 1181.37 127.31C1197.65 131.172 1211.17 154.897 1197.52 179.724C1187.62 194.265 1174.62 206.422 1159.44 215.312C1149.93 221.794 1139.72 229.933 1139.72 229.933Z" fill="#EEB690"/>
<path d="M1176.56 156.551C1177.04 159.103 1177.04 161.724 1176.56 164.276C1175.58 171.199 1172.66 177.701 1168.14 183.033C1163.91 188.316 1158.94 192.962 1153.38 196.826C1153.38 196.826 1152 197.655 1152.14 198.206C1152.28 198.758 1153.66 199.446 1155.31 199.584C1158.24 199.745 1161.14 198.973 1163.59 197.378C1170.63 193.348 1176.47 187.522 1180.52 180.494C1184.56 173.466 1186.67 165.489 1186.63 157.379C1186.76 156.419 1186.76 155.444 1186.63 154.483C1186.63 152.414 1176 155.31 1176.69 157.241L1176.56 156.551Z" fill="#F8D0B5"/>
<path d="M1303.78 111V78.22H1315.31C1322.48 78.22 1328.42 80.816 1328.42 88.912C1328.42 96.7 1322.44 100.132 1315.49 100.132H1311.66V111H1303.78ZM1311.66 93.928H1315.09C1318.92 93.928 1320.77 92.124 1320.77 88.912C1320.77 85.612 1318.66 84.468 1314.87 84.468H1311.66V93.928ZM1342.7 111.616C1337.2 111.616 1334.87 107.7 1334.87 101.452V85.964H1342.7V100.484C1342.7 103.916 1343.63 104.928 1345.61 104.928C1347.37 104.928 1348.47 104.224 1349.79 102.376V85.964H1357.62V111H1351.24L1350.67 107.568H1350.49C1348.42 110.032 1346.09 111.616 1342.7 111.616ZM1379.06 111.616C1376.86 111.616 1374.57 110.472 1372.64 108.316H1372.42L1371.8 111H1365.68V75.844H1373.52V84.292L1373.3 88.032C1375.14 86.36 1377.48 85.348 1379.76 85.348C1385.75 85.348 1389.58 90.364 1389.58 98.02C1389.58 106.688 1384.43 111.616 1379.06 111.616ZM1377.21 105.192C1379.59 105.192 1381.52 103.212 1381.52 98.196C1381.52 93.796 1380.25 91.728 1377.48 91.728C1376.02 91.728 1374.84 92.388 1373.52 93.84V103.74C1374.7 104.84 1376.02 105.192 1377.21 105.192ZM1403.53 111.616C1398.17 111.616 1396.41 108.096 1396.41 102.86V75.844H1404.24V103.124C1404.24 104.796 1404.99 105.28 1405.6 105.28C1405.87 105.28 1406.04 105.28 1406.48 105.192L1407.41 110.956C1406.57 111.308 1405.29 111.616 1403.53 111.616ZM1412.77 111V85.964H1420.61V111H1412.77ZM1416.69 82.488C1414.05 82.488 1412.33 80.904 1412.33 78.44C1412.33 76.02 1414.05 74.436 1416.69 74.436C1419.29 74.436 1421.05 76.02 1421.05 78.44C1421.05 80.904 1419.29 82.488 1416.69 82.488ZM1439.72 111.616C1432.68 111.616 1427.26 106.776 1427.26 98.46C1427.26 90.188 1433.42 85.348 1440.42 85.348C1443.46 85.348 1445.83 86.404 1447.72 88.032L1444.07 93.004C1442.93 92.08 1441.96 91.684 1440.9 91.684C1437.43 91.684 1435.27 94.324 1435.27 98.46C1435.27 102.64 1437.56 105.28 1440.6 105.28C1442.18 105.28 1443.68 104.532 1444.95 103.52L1447.99 108.668C1445.52 110.824 1442.36 111.616 1439.72 111.616ZM1470.1 111L1463.94 85.964H1471.69L1473.93 97.14C1474.33 99.648 1474.59 102.112 1474.99 104.664H1475.21C1475.65 102.112 1476.04 99.604 1476.66 97.14L1479.25 85.964H1485.99L1488.67 97.14C1489.24 99.648 1489.68 102.112 1490.21 104.664H1490.43C1490.83 102.112 1491.09 99.648 1491.53 97.14L1493.69 85.964H1500.95L1495.05 111H1485.9L1483.79 101.452C1483.3 99.12 1482.91 96.832 1482.47 94.104H1482.25C1481.85 96.832 1481.5 99.12 1481.06 101.452L1479.03 111H1470.1ZM1518.01 111.616C1510.79 111.616 1505.25 106.776 1505.25 98.46C1505.25 90.364 1511.1 85.348 1517.13 85.348C1524.34 85.348 1527.86 90.584 1527.86 97.404C1527.86 98.812 1527.69 100.176 1527.51 100.792H1512.81C1513.52 104.224 1515.89 105.632 1519.06 105.632C1520.87 105.632 1522.54 105.104 1524.34 104.048L1526.94 108.756C1524.34 110.604 1520.91 111.616 1518.01 111.616ZM1512.68 95.644H1521.22C1521.22 93.18 1520.12 91.332 1517.26 91.332C1515.1 91.332 1513.21 92.696 1512.68 95.644ZM1541.75 111.616C1536.39 111.616 1534.63 108.096 1534.63 102.86V75.844H1542.46V103.124C1542.46 104.796 1543.21 105.28 1543.82 105.28C1544.09 105.28 1544.26 105.28 1544.7 105.192L1545.63 110.956C1544.79 111.308 1543.51 111.616 1541.75 111.616ZM1552.31 111V92.08H1548.97V86.272L1552.31 86.008V84.996C1552.31 79.716 1554.82 75.228 1561.77 75.228C1563.97 75.228 1565.78 75.668 1566.88 76.064L1565.47 81.872C1564.68 81.52 1563.75 81.344 1562.92 81.344C1561.2 81.344 1560.15 82.268 1560.15 84.776V85.964H1564.59V92.08H1560.15V111H1552.31ZM1575.59 111.616C1570.97 111.616 1568.15 108.184 1568.15 104.004C1568.15 98.724 1572.29 95.864 1582.06 94.808C1581.88 92.784 1580.83 91.596 1578.27 91.596C1576.29 91.596 1574.23 92.388 1571.72 93.796L1568.99 88.648C1572.29 86.668 1575.85 85.348 1579.77 85.348C1586.24 85.348 1589.89 88.956 1589.89 96.788V111H1583.51L1582.98 108.492H1582.76C1580.69 110.34 1578.36 111.616 1575.59 111.616ZM1578.27 105.544C1579.86 105.544 1580.91 104.796 1582.06 103.564V99.56C1577.17 100.176 1575.59 101.628 1575.59 103.388C1575.59 104.84 1576.65 105.544 1578.27 105.544ZM1597.7 111V85.964H1604.08L1604.65 90.32H1604.78C1606.63 86.976 1609.4 85.348 1611.91 85.348C1613.41 85.348 1614.24 85.568 1614.95 85.876L1613.67 92.608C1612.75 92.388 1612 92.212 1610.9 92.212C1609.05 92.212 1606.81 93.4 1605.53 96.7V111H1597.7ZM1630.7 111.616C1623.49 111.616 1617.94 106.776 1617.94 98.46C1617.94 90.364 1623.8 85.348 1629.82 85.348C1637.04 85.348 1640.56 90.584 1640.56 97.404C1640.56 98.812 1640.38 100.176 1640.21 100.792H1625.51C1626.22 104.224 1628.59 105.632 1631.76 105.632C1633.56 105.632 1635.24 105.104 1637.04 104.048L1639.64 108.756C1637.04 110.604 1633.61 111.616 1630.7 111.616ZM1625.38 95.644H1633.92C1633.92 93.18 1632.82 91.332 1629.96 91.332C1627.8 91.332 1625.91 92.696 1625.38 95.644Z" fill="#594A39"/>
<path d="M1306.19 152.6L1305.41 155.174H1310.63L1309.88 152.6C1309.23 150.52 1308.66 148.388 1308.09 146.23H1307.96C1307.41 148.414 1306.81 150.52 1306.19 152.6ZM1300 163L1306.34 143.838H1309.83L1316.17 163H1312.97L1311.36 157.54H1304.71L1303.07 163H1300ZM1325.3 163.338C1321.43 163.338 1318.46 160.608 1318.46 155.85C1318.46 151.092 1321.76 148.336 1325.53 148.336C1327.35 148.336 1328.68 149.064 1329.72 149.974L1328.24 151.924C1327.46 151.222 1326.65 150.806 1325.69 150.806C1323.27 150.806 1321.56 152.834 1321.56 155.85C1321.56 158.892 1323.22 160.894 1325.59 160.894C1326.78 160.894 1327.85 160.322 1328.71 159.594L1329.95 161.57C1328.63 162.74 1326.94 163.338 1325.3 163.338ZM1339.09 163.338C1335.21 163.338 1332.25 160.608 1332.25 155.85C1332.25 151.092 1335.55 148.336 1339.32 148.336C1341.14 148.336 1342.47 149.064 1343.51 149.974L1342.02 151.924C1341.24 151.222 1340.44 150.806 1339.48 150.806C1337.06 150.806 1335.34 152.834 1335.34 155.85C1335.34 158.892 1337.01 160.894 1339.37 160.894C1340.57 160.894 1341.63 160.322 1342.49 159.594L1343.74 161.57C1342.41 162.74 1340.72 163.338 1339.09 163.338ZM1351.95 163.338C1348.88 163.338 1347.55 161.336 1347.55 157.696V148.7H1350.54V157.332C1350.54 159.776 1351.24 160.764 1352.93 160.764C1354.26 160.764 1355.17 160.14 1356.37 158.632V148.7H1359.36V163H1356.91L1356.68 160.842H1356.6C1355.3 162.35 1353.9 163.338 1351.95 163.338ZM1364.9 163V148.7H1367.34L1367.57 150.702H1367.65C1368.87 149.402 1370.3 148.336 1372.07 148.336C1374.2 148.336 1375.4 149.324 1376.02 150.962C1377.43 149.454 1378.88 148.336 1380.68 148.336C1383.67 148.336 1385.07 150.364 1385.07 154.004V163H1382.08V154.368C1382.08 151.898 1381.3 150.91 1379.69 150.91C1378.7 150.91 1377.66 151.56 1376.47 152.86V163H1373.48V154.368C1373.48 151.898 1372.72 150.91 1371.08 150.91C1370.12 150.91 1369.06 151.56 1367.89 152.86V163H1364.9ZM1394.65 163.338C1391.58 163.338 1390.26 161.336 1390.26 157.696V148.7H1393.25V157.332C1393.25 159.776 1393.95 160.764 1395.64 160.764C1396.96 160.764 1397.87 160.14 1399.07 158.632V148.7H1402.06V163H1399.62L1399.38 160.842H1399.3C1398 162.35 1396.6 163.338 1394.65 163.338ZM1410.57 163.338C1408.41 163.338 1407.6 161.96 1407.6 159.646V142.278H1410.59V159.802C1410.59 160.608 1410.93 160.894 1411.29 160.894C1411.42 160.894 1411.53 160.894 1411.79 160.842L1412.18 163.104C1411.81 163.234 1411.32 163.338 1410.57 163.338ZM1419.77 163.338C1417.3 163.338 1415.55 161.726 1415.55 159.204C1415.55 156.136 1418.15 154.55 1424.11 153.9C1424.08 152.236 1423.48 150.78 1421.38 150.78C1419.87 150.78 1418.47 151.456 1417.24 152.236L1416.13 150.208C1417.61 149.272 1419.61 148.336 1421.9 148.336C1425.46 148.336 1427.1 150.598 1427.1 154.394V163H1424.65L1424.42 161.362H1424.32C1423.02 162.48 1421.48 163.338 1419.77 163.338ZM1420.68 160.972C1421.92 160.972 1422.94 160.374 1424.11 159.308V155.798C1419.87 156.292 1418.44 157.384 1418.44 158.996C1418.44 160.4 1419.4 160.972 1420.68 160.972ZM1436.76 163.338C1433.54 163.338 1432.42 161.336 1432.42 158.32V151.092H1430.34V148.856L1432.57 148.7L1432.91 144.748H1435.41V148.7H1439.13V151.092H1435.41V158.346C1435.41 160.062 1436.01 160.946 1437.49 160.946C1437.98 160.946 1438.61 160.79 1439.02 160.608L1439.57 162.818C1438.76 163.078 1437.8 163.338 1436.76 163.338ZM1448.82 163.338C1444.95 163.338 1441.85 160.582 1441.85 155.85C1441.85 151.222 1445.05 148.336 1448.38 148.336C1452.17 148.336 1454.23 151.066 1454.23 155.096C1454.23 155.694 1454.15 156.266 1454.07 156.63H1444.79C1445.02 159.36 1446.74 160.998 1449.21 160.998C1450.48 160.998 1451.58 160.608 1452.62 159.932L1453.66 161.83C1452.33 162.714 1450.69 163.338 1448.82 163.338ZM1444.76 154.55H1451.63C1451.63 152.106 1450.51 150.676 1448.43 150.676C1446.64 150.676 1445.05 152.054 1444.76 154.55ZM1463.55 163.338C1459.96 163.338 1457.65 160.608 1457.65 155.85C1457.65 151.222 1460.58 148.336 1463.78 148.336C1465.42 148.336 1466.46 148.96 1467.63 149.948L1467.5 147.582V142.278H1470.49V163H1468.05L1467.81 161.388H1467.71C1466.64 162.48 1465.16 163.338 1463.55 163.338ZM1464.25 160.868C1465.45 160.868 1466.46 160.322 1467.5 159.126V152.132C1466.43 151.17 1465.42 150.832 1464.35 150.832C1462.35 150.832 1460.74 152.73 1460.74 155.824C1460.74 159.074 1462.01 160.868 1464.25 160.868ZM1486.83 152.6L1486.05 155.174H1491.28L1490.52 152.6C1489.87 150.52 1489.3 148.388 1488.73 146.23H1488.6C1488.05 148.414 1487.45 150.52 1486.83 152.6ZM1480.64 163L1486.99 143.838H1490.47L1496.81 163H1493.62L1492 157.54H1485.35L1483.71 163H1480.64ZM1503.08 163.338C1500.92 163.338 1500.12 161.96 1500.12 159.646V142.278H1503.11V159.802C1503.11 160.608 1503.45 160.894 1503.81 160.894C1503.94 160.894 1504.04 160.894 1504.3 160.842L1504.69 163.104C1504.33 163.234 1503.84 163.338 1503.08 163.338ZM1511.87 163.338C1509.71 163.338 1508.9 161.96 1508.9 159.646V142.278H1511.89V159.802C1511.89 160.608 1512.23 160.894 1512.59 160.894C1512.72 160.894 1512.83 160.894 1513.09 160.842L1513.48 163.104C1513.11 163.234 1512.62 163.338 1511.87 163.338ZM1523.41 163.338C1519.87 163.338 1516.67 160.608 1516.67 155.85C1516.67 151.092 1519.87 148.336 1523.41 148.336C1526.94 148.336 1530.14 151.092 1530.14 155.85C1530.14 160.608 1526.94 163.338 1523.41 163.338ZM1523.41 160.894C1525.67 160.894 1527.07 158.892 1527.07 155.85C1527.07 152.834 1525.67 150.806 1523.41 150.806C1521.17 150.806 1519.77 152.834 1519.77 155.85C1519.77 158.892 1521.17 160.894 1523.41 160.894ZM1540.52 163.338C1536.65 163.338 1533.68 160.608 1533.68 155.85C1533.68 151.092 1536.98 148.336 1540.75 148.336C1542.57 148.336 1543.9 149.064 1544.94 149.974L1543.46 151.924C1542.68 151.222 1541.87 150.806 1540.91 150.806C1538.49 150.806 1536.78 152.834 1536.78 155.85C1536.78 158.892 1538.44 160.894 1540.81 160.894C1542 160.894 1543.07 160.322 1543.93 159.594L1545.17 161.57C1543.85 162.74 1542.16 163.338 1540.52 163.338ZM1552.27 163.338C1549.8 163.338 1548.06 161.726 1548.06 159.204C1548.06 156.136 1550.66 154.55 1556.61 153.9C1556.59 152.236 1555.99 150.78 1553.88 150.78C1552.37 150.78 1550.97 151.456 1549.75 152.236L1548.63 150.208C1550.11 149.272 1552.11 148.336 1554.4 148.336C1557.96 148.336 1559.6 150.598 1559.6 154.394V163H1557.16L1556.92 161.362H1556.82C1555.52 162.48 1553.99 163.338 1552.27 163.338ZM1553.18 160.972C1554.43 160.972 1555.44 160.374 1556.61 159.308V155.798C1552.37 156.292 1550.94 157.384 1550.94 158.996C1550.94 160.4 1551.91 160.972 1553.18 160.972ZM1569.26 163.338C1566.04 163.338 1564.92 161.336 1564.92 158.32V151.092H1562.84V148.856L1565.08 148.7L1565.41 144.748H1567.91V148.7H1571.63V151.092H1567.91V158.346C1567.91 160.062 1568.51 160.946 1569.99 160.946C1570.48 160.946 1571.11 160.79 1571.52 160.608L1572.07 162.818C1571.26 163.078 1570.3 163.338 1569.26 163.338ZM1575.8 163V148.7H1578.79V163H1575.8ZM1577.28 146.022C1576.19 146.022 1575.44 145.32 1575.44 144.228C1575.44 143.162 1576.19 142.46 1577.28 142.46C1578.38 142.46 1579.16 143.162 1579.16 144.228C1579.16 145.32 1578.38 146.022 1577.28 146.022ZM1590.03 163.338C1586.49 163.338 1583.29 160.608 1583.29 155.85C1583.29 151.092 1586.49 148.336 1590.03 148.336C1593.56 148.336 1596.76 151.092 1596.76 155.85C1596.76 160.608 1593.56 163.338 1590.03 163.338ZM1590.03 160.894C1592.29 160.894 1593.69 158.892 1593.69 155.85C1593.69 152.834 1592.29 150.806 1590.03 150.806C1587.79 150.806 1586.39 152.834 1586.39 155.85C1586.39 158.892 1587.79 160.894 1590.03 160.894ZM1601.32 163V148.7H1603.76L1603.99 150.676H1604.07C1605.4 149.402 1606.85 148.336 1608.8 148.336C1611.85 148.336 1613.2 150.364 1613.2 154.004V163H1610.21V154.368C1610.21 151.898 1609.48 150.91 1607.79 150.91C1606.46 150.91 1605.55 151.586 1604.31 152.86V163H1601.32ZM1629.39 152.6L1628.61 155.174H1633.83L1633.08 152.6C1632.43 150.52 1631.86 148.388 1631.29 146.23H1631.16C1630.61 148.414 1630.01 150.52 1629.39 152.6ZM1623.2 163L1629.54 143.838H1633.03L1639.37 163H1636.17L1634.56 157.54H1627.91L1626.27 163H1623.2ZM1642.68 163V148.7H1645.12L1645.35 150.702H1645.43C1646.65 149.402 1648.08 148.336 1649.85 148.336C1651.98 148.336 1653.18 149.324 1653.8 150.962C1655.21 149.454 1656.66 148.336 1658.46 148.336C1661.45 148.336 1662.85 150.364 1662.85 154.004V163H1659.86V154.368C1659.86 151.898 1659.08 150.91 1657.47 150.91C1656.48 150.91 1655.44 151.56 1654.25 152.86V163H1651.26V154.368C1651.26 151.898 1650.5 150.91 1648.86 150.91C1647.9 150.91 1646.84 151.56 1645.67 152.86V163H1642.68ZM1673.94 163.338C1670.4 163.338 1667.2 160.608 1667.2 155.85C1667.2 151.092 1670.4 148.336 1673.94 148.336C1677.47 148.336 1680.67 151.092 1680.67 155.85C1680.67 160.608 1677.47 163.338 1673.94 163.338ZM1673.94 160.894C1676.2 160.894 1677.6 158.892 1677.6 155.85C1677.6 152.834 1676.2 150.806 1673.94 150.806C1671.7 150.806 1670.3 152.834 1670.3 155.85C1670.3 158.892 1671.7 160.894 1673.94 160.894ZM1689.44 163.338C1686.37 163.338 1685.05 161.336 1685.05 157.696V148.7H1688.04V157.332C1688.04 159.776 1688.74 160.764 1690.43 160.764C1691.75 160.764 1692.66 160.14 1693.86 158.632V148.7H1696.85V163H1694.41L1694.17 160.842H1694.09C1692.79 162.35 1691.39 163.338 1689.44 163.338ZM1702.39 163V148.7H1704.83L1705.07 150.676H1705.15C1706.47 149.402 1707.93 148.336 1709.88 148.336C1712.92 148.336 1714.27 150.364 1714.27 154.004V163H1711.28V154.368C1711.28 151.898 1710.55 150.91 1708.86 150.91C1707.54 150.91 1706.63 151.586 1705.38 152.86V163H1702.39ZM1724.47 163.338C1721.24 163.338 1720.12 161.336 1720.12 158.32V151.092H1718.04V148.856L1720.28 148.7L1720.62 144.748H1723.11V148.7H1726.83V151.092H1723.11V158.346C1723.11 160.062 1723.71 160.946 1725.19 160.946C1725.69 160.946 1726.31 160.79 1726.73 160.608L1727.27 162.818C1726.47 163.078 1725.51 163.338 1724.47 163.338ZM1741.78 168.174C1739.37 164.222 1737.94 160.036 1737.94 154.862C1737.94 149.74 1739.37 145.502 1741.78 141.576L1743.66 142.382C1741.42 146.126 1740.38 150.52 1740.38 154.862C1740.38 159.23 1741.42 163.624 1743.66 167.342L1741.78 168.174ZM1748.43 163V143.838H1751.52L1757.86 155.096L1759.87 159.152H1760C1759.84 157.176 1759.61 154.862 1759.61 152.782V143.838H1762.47V163H1759.37L1753.03 151.716L1751.03 147.712H1750.9C1751.05 149.688 1751.29 151.898 1751.29 153.978V163H1748.43ZM1772.46 163V146.386H1766.84V143.838H1781.12V146.386H1775.48V163H1772.46ZM1785.47 163V143.838H1790.43C1796.31 143.838 1799.66 147.114 1799.66 153.354C1799.66 159.568 1796.31 163 1790.59 163H1785.47ZM1788.48 160.53H1790.23C1794.33 160.53 1796.54 158.112 1796.54 153.354C1796.54 148.57 1794.33 146.308 1790.23 146.308H1788.48V160.53ZM1805.23 168.174L1803.36 167.342C1805.6 163.624 1806.64 159.23 1806.64 154.862C1806.64 150.52 1805.6 146.126 1803.36 142.382L1805.23 141.576C1807.68 145.502 1809.11 149.74 1809.11 154.862C1809.11 160.036 1807.68 164.222 1805.23 168.174Z" fill="#594A39"/>
<path d="M1307.8 270V255.6H1323.6V213.3H1309.9V202.3C1317.9 200.8 1323.1 198.8 1328.3 195.5H1341.4V255.6H1354.8V270H1307.8ZM1397.44 271.4C1381.74 271.4 1371.04 258 1371.04 232.4C1371.04 206.8 1381.74 194.2 1397.44 194.2C1413.14 194.2 1423.74 206.9 1423.74 232.4C1423.74 258 1413.14 271.4 1397.44 271.4ZM1397.44 257.6C1402.74 257.6 1406.94 252.8 1406.94 232.4C1406.94 212.1 1402.74 207.8 1397.44 207.8C1392.14 207.8 1387.84 212.1 1387.84 232.4C1387.84 252.8 1392.14 257.6 1397.44 257.6ZM1442.78 292.7L1439.18 283.2C1447.88 280.2 1452.48 274.8 1452.38 269.3H1451.48C1445.98 269.3 1440.88 265.7 1440.88 259.3C1440.88 253.3 1445.78 249.3 1451.98 249.3C1459.78 249.3 1464.08 255.5 1464.08 265.9C1464.08 278.8 1456.68 288.5 1442.78 292.7ZM1494.93 219.4C1494.93 227.4 1498.93 230.3 1503.93 230.3C1507.63 230.3 1511.73 228.3 1514.33 223.3C1512.93 211 1508.23 207.5 1503.63 207.5C1498.93 207.5 1494.93 210.8 1494.93 219.4ZM1501.63 271.4C1491.63 271.4 1484.43 267.2 1479.73 262.5L1489.13 251.8C1491.63 254.6 1496.23 257 1500.43 257C1508.03 257 1514.03 251.6 1514.73 235.5C1511.03 240.1 1504.83 242.8 1500.53 242.8C1488.03 242.8 1478.73 235.4 1478.73 219.4C1478.73 203.6 1489.93 194.2 1503.23 194.2C1517.33 194.2 1531.03 204.9 1531.03 231.9C1531.03 258.9 1516.83 271.4 1501.63 271.4ZM1572.17 271.4C1557.57 271.4 1546.67 263.3 1546.67 251.5C1546.67 242.2 1551.97 236.3 1558.87 232.7V232.2C1553.07 227.9 1549.17 222.2 1549.17 214.3C1549.17 201.9 1559.07 194.2 1572.77 194.2C1586.17 194.2 1595.07 202 1595.07 214.1C1595.07 221.2 1590.77 227.1 1585.67 230.6V231.1C1592.77 234.8 1598.17 241 1598.17 251.2C1598.17 262.7 1587.77 271.4 1572.17 271.4ZM1576.67 226.3C1579.47 222.9 1580.67 219.1 1580.67 215.3C1580.67 209.9 1577.57 206.5 1572.37 206.5C1568.27 206.5 1564.77 209 1564.77 214.3C1564.77 220.2 1569.37 223.4 1576.67 226.3ZM1572.57 259C1577.77 259 1581.67 256.4 1581.67 250.5C1581.67 244 1575.97 241.2 1566.87 237.3C1563.87 240.2 1561.87 244.7 1561.87 249.4C1561.87 255.5 1566.77 259 1572.57 259ZM1628.81 219.4C1628.81 227.4 1632.81 230.3 1637.81 230.3C1641.51 230.3 1645.61 228.3 1648.21 223.3C1646.81 211 1642.11 207.5 1637.51 207.5C1632.81 207.5 1628.81 210.8 1628.81 219.4ZM1635.51 271.4C1625.51 271.4 1618.31 267.2 1613.61 262.5L1623.01 251.8C1625.51 254.6 1630.11 257 1634.31 257C1641.91 257 1647.91 251.6 1648.61 235.5C1644.91 240.1 1638.71 242.8 1634.41 242.8C1621.91 242.8 1612.61 235.4 1612.61 219.4C1612.61 203.6 1623.81 194.2 1637.11 194.2C1651.21 194.2 1664.91 204.9 1664.91 231.9C1664.91 258.9 1650.71 271.4 1635.51 271.4ZM1684.65 292.7L1681.05 283.2C1689.75 280.2 1694.35 274.8 1694.25 269.3H1693.35C1687.85 269.3 1682.75 265.7 1682.75 259.3C1682.75 253.3 1687.65 249.3 1693.85 249.3C1701.65 249.3 1705.95 255.5 1705.95 265.9C1705.95 278.8 1698.55 288.5 1684.65 292.7ZM1747.3 271.4C1731.6 271.4 1720.9 258 1720.9 232.4C1720.9 206.8 1731.6 194.2 1747.3 194.2C1763 194.2 1773.6 206.9 1773.6 232.4C1773.6 258 1763 271.4 1747.3 271.4ZM1747.3 257.6C1752.6 257.6 1756.8 252.8 1756.8 232.4C1756.8 212.1 1752.6 207.8 1747.3 207.8C1742 207.8 1737.7 212.1 1737.7 232.4C1737.7 252.8 1742 257.6 1747.3 257.6ZM1814.24 271.4C1798.54 271.4 1787.84 258 1787.84 232.4C1787.84 206.8 1798.54 194.2 1814.24 194.2C1829.94 194.2 1840.54 206.9 1840.54 232.4C1840.54 258 1829.94 271.4 1814.24 271.4ZM1814.24 257.6C1819.54 257.6 1823.74 252.8 1823.74 232.4C1823.74 212.1 1819.54 207.8 1814.24 207.8C1808.94 207.8 1804.64 212.1 1804.64 232.4C1804.64 252.8 1808.94 257.6 1814.24 257.6ZM1881.18 271.4C1865.48 271.4 1854.78 258 1854.78 232.4C1854.78 206.8 1865.48 194.2 1881.18 194.2C1896.88 194.2 1907.48 206.9 1907.48 232.4C1907.48 258 1896.88 271.4 1881.18 271.4ZM1881.18 257.6C1886.48 257.6 1890.68 252.8 1890.68 232.4C1890.68 212.1 1886.48 207.8 1881.18 207.8C1875.88 207.8 1871.58 212.1 1871.58 232.4C1871.58 252.8 1875.88 257.6 1881.18 257.6Z" fill="#EEB690"/>
</svg>
