<svg width="1206" height="765" viewBox="0 0 1206 765" fill="none" xmlns="http://www.w3.org/2000/svg">
<g clip-path="url(#clip0_1557_31)">
<path d="M566.957 103C179.924 103 -34.3952 222.322 4.52302 422.944C51.9618 668.038 215.77 655.605 471.541 677.143C472.34 694.171 477.719 710.804 487.247 725.714C496.775 740.625 510.191 753.403 526.426 763.032C528.262 764.203 530.454 764.882 532.731 764.986C535.008 765.09 537.269 764.613 539.237 763.616C541.206 762.619 542.794 761.144 543.805 759.374C544.815 757.604 545.205 755.618 544.925 753.658C541.087 735.377 543.468 708.786 574.326 682.927C607.64 684.057 777.437 677.011 813.515 672.69C1066.83 642.311 1205 574.974 1205 371.095C1205 167.216 953.99 103 566.957 103Z" fill="#F4F5DE"/>
<path d="M203.35 340.1C203.35 341.95 202.35 343 200.45 343H186.4C182.95 343 181.4 341.3 181.4 337.85V309.75C181.4 307.1 183 305.65 185.7 305.6C188.4 305.55 190 307.1 190 309.75V336.65C190 337.1 190.2 337.2 190.55 337.2H200.45C202.3 337.2 203.35 338.2 203.35 340.1Z" fill="#594A39"/>
<path d="M230.503 336.45C231.853 335.45 233.303 335.55 234.253 336.65C235.203 337.7 235.253 339.15 234.203 340.3C232.603 342.1 228.703 343.75 223.753 343.75C215.903 343.75 209.853 339.8 209.853 330.6C209.853 321.75 215.053 316.2 223.403 316.2C231.603 316.2 235.703 322.3 235.703 328.2C235.703 331.05 234.253 332.55 231.203 332.55H218.503C219.003 336.7 220.853 338.25 224.403 338.35C226.853 338.4 228.853 337.7 230.503 336.45ZM223.503 321.45C220.353 321.45 218.953 323.6 218.503 327.05H227.603C227.903 327.05 228.053 326.9 228.053 326.6C228.053 323.15 226.303 321.45 223.503 321.45Z" fill="#594A39"/>
<path d="M259.898 337C261.348 337 262.248 338.75 262.248 340C262.248 342.6 258.548 343.35 255.798 343.35C250.048 343.35 247.448 340.6 247.448 334.65V322.7H244.648C243.048 322.7 242.148 321.6 242.148 319.85C242.148 318.05 243.098 317 244.648 317H247.448V313.85C247.448 311.15 248.948 309.7 251.698 309.7C254.448 309.7 255.948 311.15 255.948 313.85V317H259.198C260.798 317 261.698 318.1 261.698 319.85C261.698 321.65 260.748 322.7 259.198 322.7H255.948V334.55C255.948 336.55 256.498 337.45 257.398 337.45C258.348 337.45 258.998 337 259.898 337Z" fill="#594A39"/>
<path d="M275.163 321.3C273.163 321.3 271.863 320.1 271.713 318.4L271.013 310.35C270.763 307.5 272.213 305.75 275.163 305.75C278.063 305.75 279.413 307.5 279.163 310.4L278.513 318.4C278.363 320.05 277.163 321.3 275.163 321.3Z" fill="#594A39"/>
<path d="M286.215 336.8C287.064 335.75 288.464 335.55 289.764 336.35C291.264 337.25 293.414 338.15 295.614 338.15C297.814 338.15 298.864 337.6 298.864 336.3C298.864 335.05 298.314 334.2 294.014 332.3C288.914 330.05 286.264 327.95 286.264 323.85C286.264 319.35 290.614 316.25 297.014 316.25C301.314 316.25 304.264 317.6 305.715 318.85C306.865 319.85 307.064 321.35 306.215 322.5C305.365 323.65 303.515 323.95 302.115 322.95C300.914 322.1 299.314 321.8 297.465 321.8C295.564 321.8 294.614 322.5 294.614 323.55C294.614 324.75 295.615 325.35 299.314 327.05C305.164 329.7 307.464 331.9 307.464 335.85C307.464 341.25 302.364 343.75 297.014 343.75C293.214 343.75 288.764 342.8 286.614 340.65C285.414 339.45 285.215 338 286.215 336.8Z" fill="#594A39"/>
<path d="M357.144 336.45C358.494 335.45 359.944 335.55 360.894 336.65C361.844 337.7 361.894 339.15 360.844 340.3C359.244 342.1 355.344 343.75 350.394 343.75C342.544 343.75 336.494 339.8 336.494 330.6C336.494 321.75 341.694 316.2 350.044 316.2C358.244 316.2 362.344 322.3 362.344 328.2C362.344 331.05 360.894 332.55 357.844 332.55H345.144C345.644 336.7 347.494 338.25 351.044 338.35C353.494 338.4 355.494 337.7 357.144 336.45ZM350.144 321.45C346.994 321.45 345.594 323.6 345.144 327.05H354.244C354.544 327.05 354.694 326.9 354.694 326.6C354.694 323.15 352.944 321.45 350.144 321.45Z" fill="#594A39"/>
<path d="M370.5 343C368.65 341.6 368.3 339.8 369.8 338C372 335.4 374.15 332.7 376.2 329.9L370.2 322.15C368.8 320.35 369.45 318.4 371.4 316.95C373.1 315.7 375.1 316.15 376.45 317.95L381.6 324.75H381.8C383.4 322.5 384.95 320.45 386.5 318C387.7 316.1 389.55 315.65 391.5 316.8C393.45 317.95 393.85 320 392.5 321.9C390.55 324.65 388.6 327.1 386.5 329.65L392.7 337.45C394.25 339.4 393.95 341.5 391.9 343C390.05 344.35 387.95 343.8 386.55 341.9L381.45 334.95H381.25C379.4 337.6 377.3 339.75 375.4 342.2C374.05 343.95 372.2 344.25 370.5 343Z" fill="#594A39"/>
<path d="M417.436 316.25C423.236 316.25 428.736 319.65 428.736 329.85C428.736 338.35 424.336 343.75 417.486 343.75C413.936 343.75 412.186 342.2 411.186 341.15V352.25C411.186 355.05 409.736 356.4 406.886 356.4C404.186 356.4 402.686 354.95 402.686 352.15V320.2C402.686 317.7 404.086 316.25 406.586 316.25C408.786 316.25 410.336 317.4 410.686 319.4C412.386 317.55 414.736 316.25 417.436 316.25ZM415.736 338.1C418.936 338.1 420.636 335.3 420.636 329.75C420.636 324.8 418.586 321.85 415.186 321.85C413.236 321.85 411.736 323.2 410.736 325.15V334.45C411.286 335.95 412.686 338.1 415.736 338.1Z" fill="#594A39"/>
<path d="M445.431 343.75C440.181 343.75 438.131 341.8 438.131 335.5V308.1C438.131 305.45 439.631 304 442.381 304C445.031 304 446.581 305.45 446.581 308.1V335.55C446.581 337 446.731 337.5 447.781 337.5C448.381 337.5 448.731 337.25 449.331 337.25C450.231 337.25 451.531 337.95 451.531 340.1C451.531 342.9 448.781 343.75 445.431 343.75Z" fill="#594A39"/>
<path d="M471.56 343.8C462.71 343.8 458.06 338.5 458.06 329.55C458.06 321.45 463.66 316.25 471.91 316.25C480.06 316.25 485.26 321.4 485.31 329.55C485.36 338.7 480.06 343.8 471.56 343.8ZM471.66 338.25C475.11 338.15 476.61 335.65 476.61 329.7C476.61 324.3 475.16 321.7 471.66 321.75C468.26 321.8 466.71 324.35 466.76 329.7C466.81 335.35 468.06 338.35 471.66 338.25Z" fill="#594A39"/>
<path d="M513.065 319.25C513.315 322 511.565 322.85 509.115 323.15C506.465 323.5 503.965 326.1 503.215 329.4V339.75C503.215 342.55 501.515 343.75 498.765 343.75C496.015 343.75 494.715 342.5 494.715 339.75V319.7C494.715 317.3 496.315 316.25 498.765 316.25C501.065 316.25 502.565 317.45 502.565 319.9V322.25C503.615 318.1 505.965 316.4 508.915 316.3C511.165 316.25 512.865 317 513.065 319.25Z" fill="#594A39"/>
<path d="M539.786 336.45C541.136 335.45 542.586 335.55 543.536 336.65C544.486 337.7 544.536 339.15 543.486 340.3C541.886 342.1 537.986 343.75 533.036 343.75C525.186 343.75 519.136 339.8 519.136 330.6C519.136 321.75 524.336 316.2 532.686 316.2C540.886 316.2 544.986 322.3 544.986 328.2C544.986 331.05 543.536 332.55 540.486 332.55H527.786C528.286 336.7 530.136 338.25 533.686 338.35C536.136 338.4 538.136 337.7 539.786 336.45ZM532.786 321.45C529.636 321.45 528.236 323.6 527.786 327.05H536.886C537.186 327.05 537.336 326.9 537.336 326.6C537.336 323.15 535.586 321.45 532.786 321.45Z" fill="#594A39"/>
<path d="M590.661 337C592.111 337 593.011 338.75 593.011 340C593.011 342.6 589.311 343.35 586.561 343.35C580.811 343.35 578.211 340.6 578.211 334.65V322.7H575.411C573.811 322.7 572.911 321.6 572.911 319.85C572.911 318.05 573.861 317 575.411 317H578.211V313.85C578.211 311.15 579.711 309.7 582.461 309.7C585.211 309.7 586.711 311.15 586.711 313.85V317H589.961C591.561 317 592.461 318.1 592.461 319.85C592.461 321.65 591.511 322.7 589.961 322.7H586.711V334.55C586.711 336.55 587.261 337.45 588.161 337.45C589.111 337.45 589.761 337 590.661 337Z" fill="#594A39"/>
<path d="M617.727 316.25C623.327 316.25 626.877 320.15 626.877 326.2V339.8C626.877 342.45 625.477 343.75 622.727 343.75C619.977 343.75 618.577 342.45 618.577 339.8V326.55C618.577 323.75 617.427 322.25 615.177 322.25C612.827 322.25 611.327 323.7 610.377 326.25V339.8C610.377 342.45 608.877 343.75 606.127 343.75C603.377 343.75 601.877 342.45 601.877 339.8V308.05C601.877 305.35 603.327 304 606.127 304C608.927 304 610.377 305.35 610.377 308.05V319.85C611.927 317.5 614.427 316.25 617.727 316.25Z" fill="#594A39"/>
<path d="M656.421 336.45C657.771 335.45 659.221 335.55 660.171 336.65C661.121 337.7 661.171 339.15 660.121 340.3C658.521 342.1 654.621 343.75 649.671 343.75C641.821 343.75 635.771 339.8 635.771 330.6C635.771 321.75 640.971 316.2 649.321 316.2C657.521 316.2 661.621 322.3 661.621 328.2C661.621 331.05 660.171 332.55 657.121 332.55H644.421C644.921 336.7 646.771 338.25 650.321 338.35C652.771 338.4 654.771 337.7 656.421 336.45ZM649.421 321.45C646.271 321.45 644.871 323.6 644.421 327.05H653.521C653.821 327.05 653.971 326.9 653.971 326.6C653.971 323.15 652.221 321.45 649.421 321.45Z" fill="#594A39"/>
<path d="M711.296 336.45C712.646 335.45 714.096 335.55 715.046 336.65C715.996 337.7 716.046 339.15 714.996 340.3C713.396 342.1 709.496 343.75 704.546 343.75C696.696 343.75 690.646 339.8 690.646 330.6C690.646 321.75 695.846 316.2 704.196 316.2C712.396 316.2 716.496 322.3 716.496 328.2C716.496 331.05 715.046 332.55 711.996 332.55H699.296C699.796 336.7 701.646 338.25 705.196 338.35C707.646 338.4 709.646 337.7 711.296 336.45ZM704.296 321.45C701.146 321.45 699.746 323.6 699.296 327.05H708.396C708.696 327.05 708.846 326.9 708.846 326.6C708.846 323.15 707.096 321.45 704.296 321.45Z" fill="#594A39"/>
<path d="M737.641 343.75C729.091 343.75 724.041 338.75 724.041 330.2C724.041 321.65 729.291 316.25 737.691 316.25C742.341 316.25 745.541 318.15 746.841 319.8C747.841 320.95 747.791 322.45 746.691 323.45C745.391 324.6 743.941 324.65 742.791 323.55C741.691 322.5 740.041 322.05 738.391 322.05C734.691 322.05 732.541 324.75 732.541 329.8C732.541 335.35 734.641 337.85 738.491 337.85C740.441 337.85 741.991 337.4 743.141 336.4C744.291 335.4 745.741 335.5 746.841 336.5C748.041 337.55 748.041 339 746.991 340.4C745.391 342.5 741.791 343.75 737.641 343.75Z" fill="#594A39"/>
<path d="M768.25 343.8C759.4 343.8 754.75 338.5 754.75 329.55C754.75 321.45 760.35 316.25 768.6 316.25C776.75 316.25 781.95 321.4 782 329.55C782.05 338.7 776.75 343.8 768.25 343.8ZM768.35 338.25C771.8 338.15 773.3 335.65 773.3 329.7C773.3 324.3 771.85 321.7 768.35 321.75C764.95 321.8 763.4 324.35 763.45 329.7C763.5 335.35 764.75 338.35 768.35 338.25Z" fill="#594A39"/>
<path d="M794.154 332.95C792.054 332.95 790.904 331.8 790.904 329.7C790.904 327.6 792.054 326.45 794.154 326.45H806.654C808.754 326.45 809.904 327.6 809.904 329.7C809.904 331.8 808.754 332.95 806.654 332.95H794.154Z" fill="#594A39"/>
<path d="M836.504 304.85C837.654 305.65 838.054 307.05 837.504 308.3C836.904 309.65 835.504 310.2 834.304 309.6C833.804 309.35 833.354 309.25 832.904 309.25C831.554 309.25 831.054 310.1 831.054 312.3V317H834.154C835.754 317 836.654 318.1 836.654 319.85C836.654 321.65 835.704 322.7 834.154 322.7H831.054V339.65C831.054 342.45 829.454 343.75 826.804 343.75C824.104 343.75 822.554 342.35 822.554 339.65V322.7H820.154C818.554 322.7 817.554 321.65 817.554 319.85C817.554 318.05 818.554 317 820.154 317H822.554V312.15C822.554 306.7 825.704 303.5 831.104 303.5C833.254 303.5 835.354 304.05 836.504 304.85Z" fill="#594A39"/>
<path d="M863.213 319.25C863.463 322 861.713 322.85 859.263 323.15C856.613 323.5 854.113 326.1 853.363 329.4V339.75C853.363 342.55 851.663 343.75 848.913 343.75C846.163 343.75 844.863 342.5 844.863 339.75V319.7C844.863 317.3 846.463 316.25 848.913 316.25C851.213 316.25 852.713 317.45 852.713 319.9V322.25C853.763 318.1 856.113 316.4 859.063 316.3C861.313 316.25 863.013 317 863.213 319.25Z" fill="#594A39"/>
<path d="M876.223 313.2C873.473 313.2 871.173 311.1 871.173 308.4C871.173 305.6 873.423 303.55 876.223 303.55C879.073 303.55 881.073 305.55 881.073 308.4C881.073 311.15 879.023 313.2 876.223 313.2ZM876.123 343.75C873.323 343.75 871.873 342.3 871.873 339.6V320.9C871.873 318.2 873.323 316.75 876.123 316.75C878.923 316.75 880.373 318.2 880.373 320.9V339.6C880.373 342.3 878.923 343.75 876.123 343.75Z" fill="#594A39"/>
<path d="M910.927 336.45C912.277 335.45 913.727 335.55 914.677 336.65C915.627 337.7 915.677 339.15 914.627 340.3C913.027 342.1 909.127 343.75 904.177 343.75C896.327 343.75 890.277 339.8 890.277 330.6C890.277 321.75 895.477 316.2 903.827 316.2C912.027 316.2 916.127 322.3 916.127 328.2C916.127 331.05 914.677 332.55 911.627 332.55H898.927C899.427 336.7 901.277 338.25 904.827 338.35C907.277 338.4 909.277 337.7 910.927 336.45ZM903.927 321.45C900.777 321.45 899.377 323.6 898.927 327.05H908.027C908.327 327.05 908.477 326.9 908.477 326.6C908.477 323.15 906.727 321.45 903.927 321.45Z" fill="#594A39"/>
<path d="M941.072 316.25C947.022 316.25 950.722 320.05 950.722 326.2V339.6C950.722 342.3 949.222 343.75 946.472 343.75C943.722 343.75 942.222 342.3 942.222 339.6V326.85C942.222 323.7 940.922 321.8 938.622 321.8C936.422 321.8 934.422 323.8 933.772 326.6V339.6C933.772 342.3 932.272 343.75 929.522 343.75C926.772 343.75 925.272 342.3 925.272 339.6V320.15C925.272 317.65 926.672 316.3 929.172 316.3C931.721 316.3 933.122 317.55 933.122 320.1V320.9C934.622 317.85 937.722 316.25 941.072 316.25Z" fill="#594A39"/>
<path d="M981.755 304C984.455 304 985.955 305.55 985.955 308.35V339.8C985.955 342.3 984.555 343.75 982.055 343.75C980.005 343.75 978.505 342.75 978.055 341C976.455 342.7 973.705 343.75 971.205 343.75C965.405 343.75 959.605 340.35 959.605 330.15C959.605 321.65 964.605 316.25 971.155 316.25C974.355 316.25 976.355 317.5 977.455 318.5V308.25C977.455 305.45 978.905 304 981.755 304ZM973.455 338.05C975.155 338.05 976.805 337.2 977.905 335.7V325.3C977.255 323.85 975.805 321.9 972.905 321.9C970.005 321.9 967.705 324.7 967.705 330.25C967.705 335.2 970.055 338.05 973.455 338.05Z" fill="#594A39"/>
<path d="M1004.34 343.75C999.091 343.75 997.041 341.8 997.041 335.5V308.1C997.041 305.45 998.541 304 1001.29 304C1003.94 304 1005.49 305.45 1005.49 308.1V335.55C1005.49 337 1005.64 337.5 1006.69 337.5C1007.29 337.5 1007.64 337.25 1008.24 337.25C1009.14 337.25 1010.44 337.95 1010.44 340.1C1010.44 342.9 1007.69 343.75 1004.34 343.75Z" fill="#594A39"/>
<path d="M1021.03 355.3C1018.28 355.3 1015.48 354.3 1015.48 351.8C1015.48 350.1 1016.43 348.85 1017.93 348.85C1018.93 348.85 1019.73 349.05 1020.23 349.05C1021.83 349.05 1022.63 348.7 1023.33 347.6C1023.88 346.7 1025.13 344.05 1025.73 342.5C1022.73 336.15 1018.83 327.65 1016.18 321.7C1015.08 319.2 1015.68 317.75 1018.13 316.65C1020.13 315.75 1022.33 316.7 1023.33 319.15C1025.63 324.75 1028.63 332.45 1029.53 334.8H1029.73C1030.63 332.25 1032.83 324.6 1034.33 319.1C1035.03 316.55 1036.63 315.85 1039.13 316.55C1041.38 317.2 1042.28 318.65 1041.48 320.85C1039.28 326.95 1035.38 337.35 1033.13 342.55C1031.93 345.25 1030.43 348.8 1028.88 351.3C1027.23 354 1024.53 355.3 1021.03 355.3Z" fill="#594A39"/>
<path d="M179.15 411.8C180 410.75 181.4 410.55 182.7 411.35C184.2 412.25 186.35 413.15 188.55 413.15C190.75 413.15 191.8 412.6 191.8 411.3C191.8 410.05 191.25 409.2 186.95 407.3C181.85 405.05 179.2 402.95 179.2 398.85C179.2 394.35 183.55 391.25 189.95 391.25C194.25 391.25 197.2 392.6 198.65 393.85C199.8 394.85 200 396.35 199.15 397.5C198.3 398.65 196.45 398.95 195.05 397.95C193.85 397.1 192.25 396.8 190.4 396.8C188.5 396.8 187.55 397.5 187.55 398.55C187.55 399.75 188.55 400.35 192.25 402.05C198.1 404.7 200.4 406.9 200.4 410.85C200.4 416.25 195.3 418.75 189.95 418.75C186.15 418.75 181.7 417.8 179.55 415.65C178.35 414.45 178.15 413 179.15 411.8Z" fill="#594A39"/>
<path d="M225.399 391.25C230.999 391.25 234.549 395.15 234.549 401.2V414.8C234.549 417.45 233.149 418.75 230.399 418.75C227.649 418.75 226.249 417.45 226.249 414.8V401.55C226.249 398.75 225.099 397.25 222.849 397.25C220.499 397.25 218.999 398.7 218.049 401.25V414.8C218.049 417.45 216.549 418.75 213.799 418.75C211.049 418.75 209.549 417.45 209.549 414.8V383.05C209.549 380.35 210.999 379 213.799 379C216.599 379 218.049 380.35 218.049 383.05V394.85C219.599 392.5 222.099 391.25 225.399 391.25Z" fill="#594A39"/>
<path d="M256.943 418.8C248.093 418.8 243.443 413.5 243.443 404.55C243.443 396.45 249.043 391.25 257.293 391.25C265.443 391.25 270.643 396.4 270.693 404.55C270.743 413.7 265.443 418.8 256.943 418.8ZM257.043 413.25C260.493 413.15 261.993 410.65 261.993 404.7C261.993 399.3 260.543 396.7 257.043 396.75C253.643 396.8 252.093 399.35 252.143 404.7C252.193 410.35 253.443 413.35 257.043 413.25Z" fill="#594A39"/>
<path d="M294.848 391.25C300.648 391.25 306.148 394.65 306.148 404.85C306.148 413.35 301.748 418.75 294.898 418.75C291.348 418.75 289.598 417.2 288.598 416.15V427.25C288.598 430.05 287.148 431.4 284.298 431.4C281.598 431.4 280.098 429.95 280.098 427.15V395.2C280.098 392.7 281.498 391.25 283.998 391.25C286.198 391.25 287.748 392.4 288.098 394.4C289.798 392.55 292.148 391.25 294.848 391.25ZM293.148 413.1C296.348 413.1 298.048 410.3 298.048 404.75C298.048 399.8 295.998 396.85 292.598 396.85C290.648 396.85 289.148 398.2 288.148 400.15V409.45C288.698 410.95 290.098 413.1 293.148 413.1Z" fill="#594A39"/>
<path d="M330.293 391.25C336.093 391.25 341.593 394.65 341.593 404.85C341.593 413.35 337.193 418.75 330.343 418.75C326.793 418.75 325.043 417.2 324.043 416.15V427.25C324.043 430.05 322.593 431.4 319.743 431.4C317.043 431.4 315.543 429.95 315.543 427.15V395.2C315.543 392.7 316.943 391.25 319.443 391.25C321.643 391.25 323.193 392.4 323.543 394.4C325.243 392.55 327.593 391.25 330.293 391.25ZM328.593 413.1C331.793 413.1 333.493 410.3 333.493 404.75C333.493 399.8 331.443 396.85 328.043 396.85C326.093 396.85 324.593 398.2 323.593 400.15V409.45C324.143 410.95 325.543 413.1 328.593 413.1Z" fill="#594A39"/>
<path d="M355.838 388.2C353.088 388.2 350.788 386.1 350.788 383.4C350.788 380.6 353.038 378.55 355.838 378.55C358.688 378.55 360.688 380.55 360.688 383.4C360.688 386.15 358.638 388.2 355.838 388.2ZM355.738 418.75C352.938 418.75 351.488 417.3 351.488 414.6V395.9C351.488 393.2 352.938 391.75 355.738 391.75C358.538 391.75 359.988 393.2 359.988 395.9V414.6C359.988 417.3 358.538 418.75 355.738 418.75Z" fill="#594A39"/>
<path d="M387.292 391.25C393.242 391.25 396.942 395.05 396.942 401.2V414.6C396.942 417.3 395.442 418.75 392.692 418.75C389.942 418.75 388.442 417.3 388.442 414.6V401.85C388.442 398.7 387.142 396.8 384.842 396.8C382.642 396.8 380.642 398.8 379.992 401.6V414.6C379.992 417.3 378.492 418.75 375.742 418.75C372.992 418.75 371.492 417.3 371.492 414.6V395.15C371.492 392.65 372.892 391.3 375.392 391.3C377.942 391.3 379.342 392.55 379.342 395.1V395.9C380.842 392.85 383.942 391.25 387.292 391.25Z" fill="#594A39"/>
<path d="M427.976 391.3C430.726 391.3 431.676 392.7 431.676 395.4V417.45C431.676 426.25 427.076 430.6 418.376 430.6C415.226 430.6 411.676 429.65 409.626 428.3C407.926 427.2 407.326 425.75 408.176 424.15C408.976 422.6 410.626 422.3 412.126 423.25C413.676 424.2 415.326 424.95 418.076 424.95C421.976 424.95 423.676 422.85 423.676 417.75V415.8C422.126 417.15 419.876 418 417.676 418C411.776 418 405.826 415.05 405.826 405.05C405.826 396.35 410.526 391.25 417.426 391.25C420.576 391.25 422.776 392.45 424.126 394.3C424.476 392.4 425.826 391.3 427.976 391.3ZM419.576 412.35C421.326 412.35 422.976 411.55 424.026 410.15V400.5C423.476 399.05 422.126 396.9 419.176 396.9C415.926 396.9 413.926 399.4 413.926 405.15C413.926 409.85 416.176 412.35 419.576 412.35Z" fill="#594A39"/>
<path d="M479.206 412C480.656 412 481.556 413.75 481.556 415C481.556 417.6 477.856 418.35 475.106 418.35C469.356 418.35 466.756 415.6 466.756 409.65V397.7H463.956C462.356 397.7 461.456 396.6 461.456 394.85C461.456 393.05 462.406 392 463.956 392H466.756V388.85C466.756 386.15 468.256 384.7 471.006 384.7C473.756 384.7 475.256 386.15 475.256 388.85V392H478.506C480.106 392 481.006 393.1 481.006 394.85C481.006 396.65 480.056 397.7 478.506 397.7H475.256V409.55C475.256 411.55 475.806 412.45 476.706 412.45C477.656 412.45 478.306 412 479.206 412Z" fill="#594A39"/>
<path d="M501.834 418.8C492.984 418.8 488.334 413.5 488.334 404.55C488.334 396.45 493.934 391.25 502.184 391.25C510.334 391.25 515.534 396.4 515.584 404.55C515.634 413.7 510.334 418.8 501.834 418.8ZM501.934 413.25C505.384 413.15 506.884 410.65 506.884 404.7C506.884 399.3 505.434 396.7 501.934 396.75C498.534 396.8 496.984 399.35 497.034 404.7C497.084 410.35 498.334 413.35 501.934 413.25Z" fill="#594A39"/>
<path d="M536.888 418.8C528.038 418.8 523.388 413.5 523.388 404.55C523.388 396.45 528.988 391.25 537.238 391.25C545.388 391.25 550.588 396.4 550.638 404.55C550.688 413.7 545.388 418.8 536.888 418.8ZM536.988 413.25C540.438 413.15 541.938 410.65 541.938 404.7C541.938 399.3 540.488 396.7 536.988 396.75C533.588 396.8 532.038 399.35 532.088 404.7C532.138 410.35 533.388 413.35 536.988 413.25Z" fill="#594A39"/>
<path d="M567.343 418.75C562.093 418.75 560.043 416.8 560.043 410.5V383.1C560.043 380.45 561.543 379 564.293 379C566.943 379 568.493 380.45 568.493 383.1V410.55C568.493 412 568.643 412.5 569.693 412.5C570.293 412.5 570.643 412.25 571.243 412.25C572.143 412.25 573.443 412.95 573.443 415.1C573.443 417.9 570.693 418.75 567.343 418.75Z" fill="#594A39"/>
<path d="M607.903 388.2C605.153 388.2 602.853 386.1 602.853 383.4C602.853 380.6 605.103 378.55 607.903 378.55C610.753 378.55 612.753 380.55 612.753 383.4C612.753 386.15 610.703 388.2 607.903 388.2ZM607.803 418.75C605.003 418.75 603.553 417.3 603.553 414.6V395.9C603.553 393.2 605.003 391.75 607.803 391.75C610.603 391.75 612.053 393.2 612.053 395.9V414.6C612.053 417.3 610.603 418.75 607.803 418.75Z" fill="#594A39"/>
<path d="M639.357 391.25C645.307 391.25 649.007 395.05 649.007 401.2V414.6C649.007 417.3 647.507 418.75 644.757 418.75C642.007 418.75 640.507 417.3 640.507 414.6V401.85C640.507 398.7 639.207 396.8 636.907 396.8C634.707 396.8 632.707 398.8 632.057 401.6V414.6C632.057 417.3 630.557 418.75 627.807 418.75C625.057 418.75 623.557 417.3 623.557 414.6V395.15C623.557 392.65 624.957 391.3 627.457 391.3C630.007 391.3 631.407 392.55 631.407 395.1V395.9C632.907 392.85 636.007 391.25 639.357 391.25Z" fill="#594A39"/>
<path d="M673.808 412C675.258 412 676.158 413.75 676.158 415C676.158 417.6 672.458 418.35 669.708 418.35C663.958 418.35 661.358 415.6 661.358 409.65V397.7H658.558C656.958 397.7 656.058 396.6 656.058 394.85C656.058 393.05 657.008 392 658.558 392H661.358V388.85C661.358 386.15 662.858 384.7 665.608 384.7C668.358 384.7 669.858 386.15 669.858 388.85V392H673.108C674.708 392 675.608 393.1 675.608 394.85C675.608 396.65 674.658 397.7 673.108 397.7H669.858V409.55C669.858 411.55 670.408 412.45 671.308 412.45C672.258 412.45 672.908 412 673.808 412Z" fill="#594A39"/>
<path d="M703.373 394.25C703.623 397 701.873 397.85 699.423 398.15C696.773 398.5 694.273 401.1 693.523 404.4V414.75C693.523 417.55 691.823 418.75 689.073 418.75C686.323 418.75 685.023 417.5 685.023 414.75V394.7C685.023 392.3 686.623 391.25 689.073 391.25C691.373 391.25 692.873 392.45 692.873 394.9V397.25C693.923 393.1 696.273 391.4 699.224 391.3C701.474 391.25 703.173 392 703.373 394.25Z" fill="#594A39"/>
<path d="M722.945 418.8C714.095 418.8 709.445 413.5 709.445 404.55C709.445 396.45 715.045 391.25 723.295 391.25C731.445 391.25 736.645 396.4 736.695 404.55C736.745 413.7 731.445 418.8 722.945 418.8ZM723.045 413.25C726.495 413.15 727.995 410.65 727.995 404.7C727.995 399.3 726.545 396.7 723.045 396.75C719.645 396.8 718.095 399.35 718.145 404.7C718.195 410.35 719.445 413.35 723.045 413.25Z" fill="#594A39"/>
<path d="M766.65 379C769.35 379 770.85 380.55 770.85 383.35V414.8C770.85 417.3 769.45 418.75 766.95 418.75C764.9 418.75 763.4 417.75 762.95 416C761.35 417.7 758.6 418.75 756.1 418.75C750.3 418.75 744.5 415.35 744.5 405.15C744.5 396.65 749.5 391.25 756.05 391.25C759.25 391.25 761.25 392.5 762.35 393.5V383.25C762.35 380.45 763.8 379 766.65 379ZM758.35 413.05C760.05 413.05 761.7 412.2 762.8 410.7V400.3C762.15 398.85 760.7 396.9 757.8 396.9C754.9 396.9 752.6 399.7 752.6 405.25C752.6 410.2 754.95 413.05 758.35 413.05Z" fill="#594A39"/>
<path d="M802.386 391.25C805.086 391.25 806.536 392.7 806.536 395.3V415.1C806.536 417.35 805.236 418.75 802.786 418.75C800.386 418.75 799.036 417.4 798.986 415.15V414.65C797.536 417.2 794.686 418.7 791.136 418.7C785.086 418.7 781.436 415 781.436 408.8V395.35C781.436 392.7 782.936 391.25 785.686 391.25C788.436 391.25 789.936 392.7 789.936 395.35V407.7C789.936 411.25 791.036 412.95 793.536 412.95C796.286 412.95 797.786 409.65 798.236 407.65V395.3C798.236 392.7 799.736 391.25 802.386 391.25Z" fill="#594A39"/>
<path d="M829.527 418.75C820.977 418.75 815.927 413.75 815.927 405.2C815.927 396.65 821.177 391.25 829.577 391.25C834.227 391.25 837.427 393.15 838.727 394.8C839.727 395.95 839.677 397.45 838.577 398.45C837.277 399.6 835.827 399.65 834.677 398.55C833.577 397.5 831.927 397.05 830.277 397.05C826.577 397.05 824.427 399.75 824.427 404.8C824.427 410.35 826.527 412.85 830.377 412.85C832.327 412.85 833.877 412.4 835.027 411.4C836.177 410.4 837.627 410.5 838.727 411.5C839.927 412.55 839.927 414 838.877 415.4C837.277 417.5 833.677 418.75 829.527 418.75Z" fill="#594A39"/>
<path d="M867.286 411.45C868.636 410.45 870.086 410.55 871.036 411.65C871.986 412.7 872.036 414.15 870.986 415.3C869.386 417.1 865.486 418.75 860.536 418.75C852.686 418.75 846.636 414.8 846.636 405.6C846.636 396.75 851.836 391.2 860.186 391.2C868.386 391.2 872.486 397.3 872.486 403.2C872.486 406.05 871.036 407.55 867.986 407.55H855.286C855.786 411.7 857.636 413.25 861.186 413.35C863.636 413.4 865.636 412.7 867.286 411.45ZM860.286 396.45C857.136 396.45 855.736 398.6 855.286 402.05H864.386C864.686 402.05 864.836 401.9 864.836 401.6C864.836 398.15 863.086 396.45 860.286 396.45Z" fill="#594A39"/>
<path d="M902.181 379C904.881 379 906.381 380.55 906.381 383.35V414.8C906.381 417.3 904.981 418.75 902.481 418.75C900.431 418.75 898.931 417.75 898.481 416C896.881 417.7 894.131 418.75 891.631 418.75C885.831 418.75 880.031 415.35 880.031 405.15C880.031 396.65 885.031 391.25 891.581 391.25C894.781 391.25 896.781 392.5 897.881 393.5V383.25C897.881 380.45 899.331 379 902.181 379ZM893.881 413.05C895.581 413.05 897.231 412.2 898.331 410.7V400.3C897.681 398.85 896.231 396.9 893.331 396.9C890.431 396.9 888.131 399.7 888.131 405.25C888.131 410.2 890.481 413.05 893.881 413.05Z" fill="#594A39"/>
<path d="M953.647 391.25C959.447 391.25 964.947 394.65 964.947 404.85C964.947 413.35 960.547 418.75 953.697 418.75C949.747 418.75 947.747 416.7 946.797 415.35C946.647 417.5 945.597 418.75 942.747 418.75C940.347 418.75 938.947 417.2 938.947 414.55V382.95C938.947 380.45 940.347 379 943.097 379C945.897 379 947.447 380.5 947.447 382.95V393.85C949.097 392.35 951.247 391.25 953.647 391.25ZM951.947 413.1C955.147 413.1 956.847 410.3 956.847 404.75C956.847 399.95 954.797 397 951.397 397C949.447 397 947.947 398.3 946.947 400.15V409.45C947.497 410.95 948.897 413.1 951.947 413.1Z" fill="#594A39"/>
<path d="M976.561 430.3C973.811 430.3 971.011 429.3 971.011 426.8C971.011 425.1 971.961 423.85 973.461 423.85C974.461 423.85 975.261 424.05 975.761 424.05C977.361 424.05 978.161 423.7 978.861 422.6C979.411 421.7 980.661 419.05 981.261 417.5C978.261 411.15 974.361 402.65 971.711 396.7C970.611 394.2 971.211 392.75 973.661 391.65C975.661 390.75 977.861 391.7 978.861 394.15C981.161 399.75 984.161 407.45 985.061 409.8H985.261C986.161 407.25 988.361 399.6 989.861 394.1C990.561 391.55 992.161 390.85 994.661 391.55C996.911 392.2 997.811 393.65 997.011 395.85C994.811 401.95 990.911 412.35 988.661 417.55C987.461 420.25 985.961 423.8 984.411 426.3C982.761 429 980.061 430.3 976.561 430.3Z" fill="#594A39"/>
<path d="M190.45 462C190.2 462 190 462.15 190 462.45V471.2H199.9C201.65 471.2 202.6 472.2 202.6 474.05C202.6 475.9 201.65 476.9 199.9 476.9H190V489.4C190 492.25 188.4 493.75 185.7 493.75C182.95 493.75 181.4 492.25 181.4 489.4V460.45C181.4 457.8 182.85 456.3 185.45 456.3H201.45C203.2 456.3 204.15 457.3 204.15 459.15C204.15 461 203.2 462 201.45 462H190.45Z" fill="#594A39"/>
<path d="M216.645 463.2C213.895 463.2 211.595 461.1 211.595 458.4C211.595 455.6 213.845 453.55 216.645 453.55C219.495 453.55 221.495 455.55 221.495 458.4C221.495 461.15 219.445 463.2 216.645 463.2ZM216.545 493.75C213.745 493.75 212.295 492.3 212.295 489.6V470.9C212.295 468.2 213.745 466.75 216.545 466.75C219.345 466.75 220.795 468.2 220.795 470.9V489.6C220.795 492.3 219.345 493.75 216.545 493.75Z" fill="#594A39"/>
<path d="M250.649 469.25C250.899 472 249.149 472.85 246.699 473.15C244.049 473.5 241.549 476.1 240.799 479.4V489.75C240.799 492.55 239.099 493.75 236.349 493.75C233.599 493.75 232.299 492.5 232.299 489.75V469.7C232.299 467.3 233.899 466.25 236.349 466.25C238.649 466.25 240.149 467.45 240.149 469.9V472.25C241.199 468.1 243.549 466.4 246.499 466.3C248.749 466.25 250.449 467 250.649 469.25Z" fill="#594A39"/>
<path d="M257.459 486.8C258.309 485.75 259.709 485.55 261.009 486.35C262.509 487.25 264.659 488.15 266.859 488.15C269.059 488.15 270.109 487.6 270.109 486.3C270.109 485.05 269.559 484.2 265.259 482.3C260.159 480.05 257.509 477.95 257.509 473.85C257.509 469.35 261.859 466.25 268.259 466.25C272.559 466.25 275.509 467.6 276.959 468.85C278.109 469.85 278.309 471.35 277.459 472.5C276.609 473.65 274.759 473.95 273.359 472.95C272.159 472.1 270.559 471.8 268.709 471.8C266.809 471.8 265.859 472.5 265.859 473.55C265.859 474.75 266.859 475.35 270.559 477.05C276.409 479.7 278.709 481.9 278.709 485.85C278.709 491.25 273.609 493.75 268.259 493.75C264.459 493.75 260.009 492.8 257.859 490.65C256.659 489.45 256.459 488 257.459 486.8Z" fill="#594A39"/>
<path d="M302.566 487C304.016 487 304.916 488.75 304.916 490C304.916 492.6 301.216 493.35 298.466 493.35C292.716 493.35 290.116 490.6 290.116 484.65V472.7H287.316C285.716 472.7 284.816 471.6 284.816 469.85C284.816 468.05 285.766 467 287.316 467H290.116V463.85C290.116 461.15 291.616 459.7 294.366 459.7C297.116 459.7 298.616 461.15 298.616 463.85V467H301.866C303.466 467 304.366 468.1 304.366 469.85C304.366 471.65 303.416 472.7 301.866 472.7H298.616V484.55C298.616 486.55 299.166 487.45 300.066 487.45C301.016 487.45 301.666 487 302.566 487Z" fill="#594A39"/>
<path d="M328.481 466.25C334.281 466.25 339.781 469.65 339.781 479.85C339.781 488.35 335.381 493.75 328.531 493.75C324.581 493.75 322.581 491.7 321.631 490.35C321.481 492.5 320.431 493.75 317.581 493.75C315.181 493.75 313.781 492.2 313.781 489.55V457.95C313.781 455.45 315.181 454 317.931 454C320.731 454 322.281 455.5 322.281 457.95V468.85C323.931 467.35 326.081 466.25 328.481 466.25ZM326.781 488.1C329.981 488.1 331.681 485.3 331.681 479.75C331.681 474.95 329.631 472 326.231 472C324.281 472 322.781 473.3 321.781 475.15V484.45C322.331 485.95 323.731 488.1 326.781 488.1Z" fill="#594A39"/>
<path d="M369.928 469.55C371.428 471.15 372.178 473.4 372.178 476.3V489.6C372.178 492.3 371.128 493.75 368.528 493.75C365.878 493.75 364.678 492.3 364.678 489.6V489.45C363.028 492.35 359.928 493.75 355.978 493.75C350.678 493.75 347.428 490.65 347.428 485.7C347.428 479.75 352.978 476.05 361.378 476.05C362.378 476.05 363.428 476.1 364.078 476.2V475.75C364.078 473.25 362.678 471.75 360.028 471.65C357.878 471.55 355.578 472.5 353.678 474.55C352.478 475.85 350.728 476.05 349.478 474.95C348.178 473.9 348.028 472.25 349.178 470.8C350.978 468.6 354.928 466.25 360.178 466.25C364.828 466.25 367.778 467.3 369.928 469.55ZM364.178 483.85V481.3C363.528 481.2 362.428 481.1 361.478 481.15C356.678 481.4 355.028 483.25 355.128 485.2C355.228 486.9 356.278 487.9 358.328 487.9C360.678 487.9 363.028 486.25 364.178 483.85Z" fill="#594A39"/>
<path d="M398.47 466.25C404.42 466.25 408.12 470.05 408.12 476.2V489.6C408.12 492.3 406.62 493.75 403.87 493.75C401.12 493.75 399.62 492.3 399.62 489.6V476.85C399.62 473.7 398.32 471.8 396.02 471.8C393.82 471.8 391.82 473.8 391.17 476.6V489.6C391.17 492.3 389.67 493.75 386.92 493.75C384.17 493.75 382.67 492.3 382.67 489.6V470.15C382.67 467.65 384.07 466.3 386.57 466.3C389.12 466.3 390.52 467.55 390.52 470.1V470.9C392.02 467.85 395.12 466.25 398.47 466.25Z" fill="#594A39"/>
<path d="M422.854 493.75C420.104 493.75 418.604 492.4 418.604 489.75V458.15C418.604 455.45 420.104 454 422.854 454C425.554 454 427.104 455.45 427.104 458.15V475.4C429.904 473 433.204 470.3 436.304 467.35C437.904 465.85 439.704 465.9 441.204 467.3C442.804 468.8 442.554 470.75 440.704 472.3L434.154 477.65L441.704 487.65C443.204 489.6 443.054 491.45 441.304 492.8C439.404 494.3 437.004 494 435.754 492.1L428.704 481.35L427.104 482.8V489.75C427.104 492.4 425.554 493.75 422.854 493.75Z" fill="#594A39"/>
<path d="M488.187 487C489.637 487 490.537 488.75 490.537 490C490.537 492.6 486.837 493.35 484.087 493.35C478.337 493.35 475.737 490.6 475.737 484.65V472.7H472.937C471.337 472.7 470.437 471.6 470.437 469.85C470.437 468.05 471.387 467 472.937 467H475.737V463.85C475.737 461.15 477.237 459.7 479.987 459.7C482.737 459.7 484.237 461.15 484.237 463.85V467H487.487C489.087 467 489.987 468.1 489.987 469.85C489.987 471.65 489.037 472.7 487.487 472.7H484.237V484.55C484.237 486.55 484.787 487.45 485.687 487.45C486.637 487.45 487.287 487 488.187 487Z" fill="#594A39"/>
<path d="M510.814 493.8C501.964 493.8 497.314 488.5 497.314 479.55C497.314 471.45 502.914 466.25 511.164 466.25C519.314 466.25 524.514 471.4 524.564 479.55C524.614 488.7 519.314 493.8 510.814 493.8ZM510.914 488.25C514.364 488.15 515.864 485.65 515.864 479.7C515.864 474.3 514.414 471.7 510.914 471.75C507.514 471.8 505.964 474.35 506.014 479.7C506.064 485.35 507.314 488.35 510.914 488.25Z" fill="#594A39"/>
<path d="M554.519 466.3C557.269 466.3 558.219 467.7 558.219 470.4V492.45C558.219 501.25 553.619 505.6 544.919 505.6C541.769 505.6 538.219 504.65 536.169 503.3C534.469 502.2 533.869 500.75 534.719 499.15C535.519 497.6 537.169 497.3 538.669 498.25C540.219 499.2 541.869 499.95 544.619 499.95C548.519 499.95 550.219 497.85 550.219 492.75V490.8C548.669 492.15 546.419 493 544.219 493C538.319 493 532.369 490.05 532.369 480.05C532.369 471.35 537.069 466.25 543.969 466.25C547.119 466.25 549.319 467.45 550.669 469.3C551.019 467.4 552.369 466.3 554.519 466.3ZM546.119 487.35C547.869 487.35 549.519 486.55 550.569 485.15V475.5C550.019 474.05 548.669 471.9 545.719 471.9C542.469 471.9 540.469 474.4 540.469 480.15C540.469 484.85 542.719 487.35 546.119 487.35Z" fill="#594A39"/>
<path d="M588.269 486.45C589.619 485.45 591.069 485.55 592.019 486.65C592.969 487.7 593.019 489.15 591.969 490.3C590.369 492.1 586.469 493.75 581.519 493.75C573.669 493.75 567.619 489.8 567.619 480.6C567.619 471.75 572.819 466.2 581.169 466.2C589.369 466.2 593.469 472.3 593.469 478.2C593.469 481.05 592.019 482.55 588.969 482.55H576.269C576.769 486.7 578.619 488.25 582.169 488.35C584.619 488.4 586.619 487.7 588.269 486.45ZM581.269 471.45C578.119 471.45 576.719 473.6 576.269 477.05H585.369C585.669 477.05 585.819 476.9 585.819 476.6C585.819 473.15 584.069 471.45 581.269 471.45Z" fill="#594A39"/>
<path d="M617.663 487C619.113 487 620.013 488.75 620.013 490C620.013 492.6 616.313 493.35 613.563 493.35C607.813 493.35 605.213 490.6 605.213 484.65V472.7H602.413C600.813 472.7 599.913 471.6 599.913 469.85C599.913 468.05 600.863 467 602.413 467H605.213V463.85C605.213 461.15 606.713 459.7 609.463 459.7C612.213 459.7 613.713 461.15 613.713 463.85V467H616.963C618.563 467 619.463 468.1 619.463 469.85C619.463 471.65 618.513 472.7 616.963 472.7H613.713V484.55C613.713 486.55 614.263 487.45 615.163 487.45C616.113 487.45 616.763 487 617.663 487Z" fill="#594A39"/>
<path d="M644.729 466.25C650.329 466.25 653.879 470.15 653.879 476.2V489.8C653.879 492.45 652.479 493.75 649.729 493.75C646.979 493.75 645.579 492.45 645.579 489.8V476.55C645.579 473.75 644.429 472.25 642.179 472.25C639.829 472.25 638.329 473.7 637.379 476.25V489.8C637.379 492.45 635.879 493.75 633.129 493.75C630.379 493.75 628.879 492.45 628.879 489.8V458.05C628.879 455.35 630.329 454 633.129 454C635.929 454 637.379 455.35 637.379 458.05V469.85C638.929 467.5 641.429 466.25 644.729 466.25Z" fill="#594A39"/>
<path d="M683.423 486.45C684.773 485.45 686.223 485.55 687.173 486.65C688.123 487.7 688.173 489.15 687.123 490.3C685.523 492.1 681.623 493.75 676.673 493.75C668.823 493.75 662.773 489.8 662.773 480.6C662.773 471.75 667.973 466.2 676.323 466.2C684.523 466.2 688.623 472.3 688.623 478.2C688.623 481.05 687.173 482.55 684.123 482.55H671.423C671.923 486.7 673.773 488.25 677.323 488.35C679.773 488.4 681.773 487.7 683.423 486.45ZM676.423 471.45C673.273 471.45 671.873 473.6 671.423 477.05H680.523C680.823 477.05 680.973 476.9 680.973 476.6C680.973 473.15 679.223 471.45 676.423 471.45Z" fill="#594A39"/>
<path d="M716.118 469.25C716.368 472 714.618 472.85 712.168 473.15C709.518 473.5 707.018 476.1 706.268 479.4V489.75C706.268 492.55 704.568 493.75 701.818 493.75C699.068 493.75 697.768 492.5 697.768 489.75V469.7C697.768 467.3 699.368 466.25 701.818 466.25C704.118 466.25 705.618 467.45 705.618 469.9V472.25C706.668 468.1 709.018 466.4 711.968 466.3C714.218 466.25 715.918 467 716.118 469.25Z" fill="#594A39"/>
<path d="M729.277 481.35C727.327 481.35 725.927 480.3 725.777 478.35L724.277 460.55C723.977 457.2 725.977 455.35 729.277 455.35C732.627 455.35 734.577 457.2 734.277 460.55L732.727 478.35C732.577 480.3 731.227 481.35 729.277 481.35ZM729.327 493.9C726.527 493.9 724.227 491.7 724.227 488.9C724.227 486.35 726.527 484.1 729.327 484.1C732.027 484.1 734.327 486.3 734.327 488.9C734.327 491.7 732.027 493.9 729.327 493.9Z" fill="#594A39"/>
</g>
<defs>
<clipPath id="clip0_1557_31">
<rect width="1205.45" height="764.58" fill="white"/>
</clipPath>
</defs>
</svg>
