<svg width="719" height="393" viewBox="0 0 719 393" fill="none" xmlns="http://www.w3.org/2000/svg">
<path d="M380.708 0C611.643 0 739.523 70.8202 716.301 189.893C687.995 335.362 590.254 327.983 437.641 340.766C437.164 350.872 433.954 360.744 428.269 369.594C422.584 378.443 414.579 386.028 404.892 391.743C403.796 392.438 402.488 392.841 401.13 392.902C399.771 392.964 398.422 392.681 397.247 392.089C396.073 391.498 395.126 390.622 394.522 389.572C393.919 388.521 393.687 387.342 393.854 386.179C396.144 375.329 394.724 359.547 376.311 344.199C356.433 344.87 255.119 340.687 233.592 338.123C82.4441 320.092 0 280.126 0 159.12C0 38.1132 149.773 0 380.708 0Z" fill="#F4F5DE"/>
<path d="M210.716 160.63C201.56 160.63 196.184 154.792 196.184 144.208C196.184 134.548 201.812 128.5 211.052 128.5C214.706 128.5 217.436 129.592 218.906 130.684C220.124 131.566 220.544 132.952 219.914 134.044C219.2 135.304 217.814 135.598 216.554 134.842C215.168 133.96 213.614 133.456 211.262 133.456C206.516 133.456 203.618 137.362 203.618 144.124C203.618 151.6 206.432 155.674 211.094 155.674C213.866 155.674 215.378 154.834 216.596 153.952C217.814 153.07 219.158 153.364 220.124 154.582C220.964 155.632 220.796 156.976 219.62 158.026C218.108 159.412 214.874 160.63 210.716 160.63Z" fill="#594A39"/>
<path d="M234.569 160.63C230.159 160.63 228.437 158.992 228.437 153.7V130.684C228.437 128.458 229.697 127.24 232.007 127.24C234.233 127.24 235.535 128.458 235.535 130.684V153.742C235.535 154.96 235.661 155.38 236.543 155.38C237.047 155.38 237.341 155.17 237.845 155.17C238.601 155.17 239.693 155.758 239.693 157.564C239.693 159.916 237.383 160.63 234.569 160.63Z" fill="#594A39"/>
<path d="M250.759 134.968C248.449 134.968 246.517 133.204 246.517 130.936C246.517 128.584 248.407 126.862 250.759 126.862C253.153 126.862 254.833 128.542 254.833 130.936C254.833 133.246 253.111 134.968 250.759 134.968ZM250.675 160.63C248.323 160.63 247.105 159.412 247.105 157.144V141.436C247.105 139.168 248.323 137.95 250.675 137.95C253.027 137.95 254.245 139.168 254.245 141.436V157.144C254.245 159.412 253.027 160.63 250.675 160.63Z" fill="#594A39"/>
<path d="M273.989 160.63C266.807 160.63 262.565 156.43 262.565 149.248C262.565 142.066 266.975 137.53 274.031 137.53C277.937 137.53 280.625 139.126 281.717 140.512C282.557 141.478 282.515 142.738 281.591 143.578C280.499 144.544 279.281 144.586 278.315 143.662C277.391 142.78 276.005 142.402 274.619 142.402C271.511 142.402 269.705 144.67 269.705 148.912C269.705 153.574 271.469 155.674 274.703 155.674C276.341 155.674 277.643 155.296 278.609 154.456C279.575 153.616 280.793 153.7 281.717 154.54C282.725 155.422 282.725 156.64 281.843 157.816C280.499 159.58 277.475 160.63 273.989 160.63Z" fill="#594A39"/>
<path d="M293.52 160.63C291.21 160.63 289.95 159.496 289.95 157.27V130.726C289.95 128.458 291.21 127.24 293.52 127.24C295.788 127.24 297.09 128.458 297.09 130.726V145.216C299.442 143.2 302.214 140.932 304.818 138.454C306.162 137.194 307.674 137.236 308.934 138.412C310.278 139.672 310.068 141.31 308.514 142.612L303.012 147.106L309.354 155.506C310.614 157.144 310.488 158.698 309.018 159.832C307.422 161.092 305.406 160.84 304.356 159.244L298.434 150.214L297.09 151.432V157.27C297.09 159.496 295.788 160.63 293.52 160.63Z" fill="#594A39"/>
<path d="M348.4 154.96C349.618 154.96 350.374 156.43 350.374 157.48C350.374 159.664 347.266 160.294 344.956 160.294C340.126 160.294 337.942 157.984 337.942 152.986V142.948H335.59C334.246 142.948 333.49 142.024 333.49 140.554C333.49 139.042 334.288 138.16 335.59 138.16H337.942V135.514C337.942 133.246 339.202 132.028 341.512 132.028C343.822 132.028 345.082 133.246 345.082 135.514V138.16H347.812C349.156 138.16 349.912 139.084 349.912 140.554C349.912 142.066 349.114 142.948 347.812 142.948H345.082V152.902C345.082 154.582 345.544 155.338 346.3 155.338C347.098 155.338 347.644 154.96 348.4 154.96Z" fill="#594A39"/>
<path d="M371.135 137.53C375.839 137.53 378.821 140.806 378.821 145.888V157.312C378.821 159.538 377.645 160.63 375.335 160.63C373.025 160.63 371.849 159.538 371.849 157.312V146.182C371.849 143.83 370.883 142.57 368.993 142.57C367.019 142.57 365.759 143.788 364.961 145.93V157.312C364.961 159.538 363.701 160.63 361.391 160.63C359.081 160.63 357.821 159.538 357.821 157.312V130.642C357.821 128.374 359.039 127.24 361.391 127.24C363.743 127.24 364.961 128.374 364.961 130.642V140.554C366.263 138.58 368.363 137.53 371.135 137.53Z" fill="#594A39"/>
<path d="M403.638 154.498C404.772 153.658 405.99 153.742 406.788 154.666C407.586 155.548 407.628 156.766 406.746 157.732C405.402 159.244 402.126 160.63 397.968 160.63C391.374 160.63 386.292 157.312 386.292 149.584C386.292 142.15 390.66 137.488 397.674 137.488C404.562 137.488 408.006 142.612 408.006 147.568C408.006 149.962 406.788 151.222 404.226 151.222H393.558C393.978 154.708 395.532 156.01 398.514 156.094C400.572 156.136 402.252 155.548 403.638 154.498ZM397.758 141.898C395.112 141.898 393.936 143.704 393.558 146.602H401.202C401.454 146.602 401.58 146.476 401.58 146.224C401.58 143.326 400.11 141.898 397.758 141.898Z" fill="#594A39"/>
<path d="M443.811 160.63C436.629 160.63 432.387 156.43 432.387 149.248C432.387 142.066 436.797 137.53 443.853 137.53C447.759 137.53 450.447 139.126 451.539 140.512C452.379 141.478 452.337 142.738 451.413 143.578C450.321 144.544 449.103 144.586 448.137 143.662C447.213 142.78 445.827 142.402 444.441 142.402C441.333 142.402 439.527 144.67 439.527 148.912C439.527 153.574 441.291 155.674 444.525 155.674C446.163 155.674 447.465 155.296 448.431 154.456C449.397 153.616 450.615 153.7 451.539 154.54C452.547 155.422 452.547 156.64 451.665 157.816C450.321 159.58 447.297 160.63 443.811 160.63Z" fill="#594A39"/>
<path d="M477.203 140.302C478.463 141.646 479.093 143.536 479.093 145.972V157.144C479.093 159.412 478.211 160.63 476.027 160.63C473.801 160.63 472.793 159.412 472.793 157.144V157.018C471.407 159.454 468.803 160.63 465.485 160.63C461.033 160.63 458.303 158.026 458.303 153.868C458.303 148.87 462.965 145.762 470.021 145.762C470.861 145.762 471.743 145.804 472.289 145.888V145.51C472.289 143.41 471.113 142.15 468.887 142.066C467.081 141.982 465.149 142.78 463.553 144.502C462.545 145.594 461.075 145.762 460.025 144.838C458.933 143.956 458.807 142.57 459.773 141.352C461.285 139.504 464.603 137.53 469.013 137.53C472.919 137.53 475.397 138.412 477.203 140.302ZM472.373 152.314V150.172C471.827 150.088 470.903 150.004 470.105 150.046C466.073 150.256 464.687 151.81 464.771 153.448C464.855 154.876 465.737 155.716 467.459 155.716C469.433 155.716 471.407 154.33 472.373 152.314Z" fill="#594A39"/>
<path d="M503.32 140.05C503.53 142.36 502.06 143.074 500.002 143.326C497.776 143.62 495.676 145.804 495.046 148.576V157.27C495.046 159.622 493.618 160.63 491.308 160.63C488.998 160.63 487.906 159.58 487.906 157.27V140.428C487.906 138.412 489.25 137.53 491.308 137.53C493.24 137.53 494.5 138.538 494.5 140.596V142.57C495.382 139.084 497.356 137.656 499.834 137.572C501.724 137.53 503.152 138.16 503.32 140.05Z" fill="#594A39"/>
<path d="M527.026 127.24C529.294 127.24 530.555 128.542 530.555 130.894V157.312C530.555 159.412 529.378 160.63 527.279 160.63C525.557 160.63 524.297 159.79 523.919 158.32C522.575 159.748 520.264 160.63 518.164 160.63C513.292 160.63 508.421 157.774 508.421 149.206C508.421 142.066 512.62 137.53 518.122 137.53C520.81 137.53 522.49 138.58 523.414 139.42V130.81C523.414 128.458 524.633 127.24 527.026 127.24ZM520.055 155.842C521.482 155.842 522.868 155.128 523.792 153.868V145.132C523.246 143.914 522.029 142.276 519.593 142.276C517.157 142.276 515.224 144.628 515.224 149.29C515.224 153.448 517.198 155.842 520.055 155.842Z" fill="#594A39"/>
<path d="M571.434 127.954C572.4 128.626 572.736 129.802 572.274 130.852C571.77 131.986 570.594 132.448 569.586 131.944C569.166 131.734 568.788 131.65 568.41 131.65C567.276 131.65 566.856 132.364 566.856 134.212V138.16H569.46C570.804 138.16 571.56 139.084 571.56 140.554C571.56 142.066 570.762 142.948 569.46 142.948H566.856V157.186C566.856 159.538 565.512 160.63 563.286 160.63C561.018 160.63 559.716 159.454 559.716 157.186V142.948H557.7C556.356 142.948 555.516 142.066 555.516 140.554C555.516 139.042 556.356 138.16 557.7 138.16H559.716V134.086C559.716 129.508 562.362 126.82 566.898 126.82C568.704 126.82 570.468 127.282 571.434 127.954Z" fill="#594A39"/>
<path d="M588.042 160.672C580.608 160.672 576.702 156.22 576.702 148.702C576.702 141.898 581.406 137.53 588.336 137.53C595.182 137.53 599.55 141.856 599.592 148.702C599.634 156.388 595.182 160.672 588.042 160.672ZM588.126 156.01C591.024 155.926 592.284 153.826 592.284 148.828C592.284 144.292 591.066 142.108 588.126 142.15C585.27 142.192 583.968 144.334 584.01 148.828C584.052 153.574 585.102 156.094 588.126 156.01Z" fill="#594A39"/>
<path d="M622.906 140.05C623.116 142.36 621.646 143.074 619.588 143.326C617.362 143.62 615.262 145.804 614.632 148.576V157.27C614.632 159.622 613.204 160.63 610.894 160.63C608.584 160.63 607.492 159.58 607.492 157.27V140.428C607.492 138.412 608.836 137.53 610.894 137.53C612.826 137.53 614.086 138.538 614.086 140.596V142.57C614.968 139.084 616.942 137.656 619.42 137.572C621.31 137.53 622.738 138.16 622.906 140.05Z" fill="#594A39"/>
<path d="M222.896 200.53C227.978 200.53 230.96 203.47 230.96 208.552V220.228C230.96 222.454 229.742 223.63 227.432 223.63C225.122 223.63 223.904 222.454 223.904 220.228V208.468C223.904 206.326 222.896 205.066 221.258 205.066C219.662 205.066 218.402 206.116 217.604 208.09V220.228C217.604 222.454 216.386 223.63 214.118 223.63C211.808 223.63 210.59 222.454 210.59 220.228V208.594C210.59 206.368 209.582 205.15 207.902 205.15C206.264 205.15 204.752 206.704 204.08 208.972V220.144C204.08 222.412 202.82 223.63 200.51 223.63C198.2 223.63 196.94 222.412 196.94 220.144V203.932C196.94 201.748 198.242 200.572 200.384 200.572C202.4 200.572 203.702 201.622 203.702 203.722V204.184C204.752 201.79 207.23 200.53 210.002 200.53C212.942 200.53 215.168 201.664 216.428 203.68C217.898 201.664 220.124 200.53 222.896 200.53ZM203.744 210.988L203.786 210.526C203.744 210.652 203.744 210.82 203.744 210.988Z" fill="#594A39"/>
<path d="M249.794 223.672C242.36 223.672 238.454 219.22 238.454 211.702C238.454 204.898 243.158 200.53 250.088 200.53C256.934 200.53 261.302 204.856 261.344 211.702C261.386 219.388 256.934 223.672 249.794 223.672ZM249.878 219.01C252.776 218.926 254.036 216.826 254.036 211.828C254.036 207.292 252.818 205.108 249.878 205.15C247.022 205.192 245.72 207.334 245.762 211.828C245.804 216.574 246.854 219.094 249.878 219.01Z" fill="#594A39"/>
<path d="M284.658 203.05C284.868 205.36 283.398 206.074 281.34 206.326C279.114 206.62 277.014 208.804 276.384 211.576V220.27C276.384 222.622 274.956 223.63 272.646 223.63C270.336 223.63 269.244 222.58 269.244 220.27V203.428C269.244 201.412 270.588 200.53 272.646 200.53C274.578 200.53 275.838 201.538 275.838 203.596V205.57C276.72 202.084 278.694 200.656 281.172 200.572C283.062 200.53 284.49 201.16 284.658 203.05Z" fill="#594A39"/>
<path d="M307.104 217.498C308.238 216.658 309.456 216.742 310.254 217.666C311.052 218.548 311.094 219.766 310.212 220.732C308.868 222.244 305.592 223.63 301.434 223.63C294.84 223.63 289.758 220.312 289.758 212.584C289.758 205.15 294.126 200.488 301.14 200.488C308.028 200.488 311.472 205.612 311.472 210.568C311.472 212.962 310.254 214.222 307.692 214.222H297.024C297.444 217.708 298.998 219.01 301.98 219.094C304.038 219.136 305.718 218.548 307.104 217.498ZM301.224 204.898C298.578 204.898 297.402 206.704 297.024 209.602H304.668C304.92 209.602 305.046 209.476 305.046 209.224C305.046 206.326 303.576 204.898 301.224 204.898Z" fill="#594A39"/>
<path d="M354.459 190.24C356.727 190.24 357.987 191.542 357.987 193.894V220.312C357.987 222.412 356.811 223.63 354.711 223.63C352.989 223.63 351.729 222.79 351.351 221.32C350.007 222.748 347.697 223.63 345.597 223.63C340.725 223.63 335.853 220.774 335.853 212.206C335.853 205.066 340.053 200.53 345.555 200.53C348.243 200.53 349.923 201.58 350.847 202.42V193.81C350.847 191.458 352.065 190.24 354.459 190.24ZM347.487 218.842C348.915 218.842 350.301 218.128 351.225 216.868V208.132C350.679 206.914 349.461 205.276 347.025 205.276C344.589 205.276 342.657 207.628 342.657 212.29C342.657 216.448 344.631 218.842 347.487 218.842Z" fill="#594A39"/>
<path d="M383.301 217.498C384.435 216.658 385.653 216.742 386.451 217.666C387.249 218.548 387.291 219.766 386.409 220.732C385.065 222.244 381.789 223.63 377.631 223.63C371.037 223.63 365.955 220.312 365.955 212.584C365.955 205.15 370.323 200.488 377.337 200.488C384.225 200.488 387.669 205.612 387.669 210.568C387.669 212.962 386.451 214.222 383.889 214.222H373.221C373.641 217.708 375.195 219.01 378.177 219.094C380.235 219.136 381.915 218.548 383.301 217.498ZM377.421 204.898C374.775 204.898 373.599 206.704 373.221 209.602H380.865C381.117 209.602 381.243 209.476 381.243 209.224C381.243 206.326 379.773 204.898 377.421 204.898Z" fill="#594A39"/>
<path d="M407.993 217.96C409.211 217.96 409.967 219.43 409.967 220.48C409.967 222.664 406.859 223.294 404.549 223.294C399.719 223.294 397.535 220.984 397.535 215.986V205.948H395.183C393.839 205.948 393.083 205.024 393.083 203.554C393.083 202.042 393.881 201.16 395.183 201.16H397.535V198.514C397.535 196.246 398.795 195.028 401.105 195.028C403.415 195.028 404.675 196.246 404.675 198.514V201.16H407.405C408.749 201.16 409.505 202.084 409.505 203.554C409.505 205.066 408.707 205.948 407.405 205.948H404.675V215.902C404.675 217.582 405.137 218.338 405.893 218.338C406.691 218.338 407.237 217.96 407.993 217.96Z" fill="#594A39"/>
<path d="M434.844 203.302C436.104 204.646 436.734 206.536 436.734 208.972V220.144C436.734 222.412 435.852 223.63 433.668 223.63C431.442 223.63 430.434 222.412 430.434 220.144V220.018C429.048 222.454 426.444 223.63 423.126 223.63C418.674 223.63 415.944 221.026 415.944 216.868C415.944 211.87 420.606 208.762 427.662 208.762C428.502 208.762 429.384 208.804 429.93 208.888V208.51C429.93 206.41 428.754 205.15 426.528 205.066C424.722 204.982 422.79 205.78 421.194 207.502C420.186 208.594 418.716 208.762 417.666 207.838C416.574 206.956 416.448 205.57 417.414 204.352C418.926 202.504 422.244 200.53 426.654 200.53C430.56 200.53 433.038 201.412 434.844 203.302ZM430.014 215.314V213.172C429.468 213.088 428.544 213.004 427.746 213.046C423.714 213.256 422.328 214.81 422.412 216.448C422.496 217.876 423.378 218.716 425.1 218.716C427.074 218.716 429.048 217.33 430.014 215.314Z" fill="#594A39"/>
<path d="M449.621 197.968C447.311 197.968 445.379 196.204 445.379 193.936C445.379 191.584 447.269 189.862 449.621 189.862C452.015 189.862 453.695 191.542 453.695 193.936C453.695 196.246 451.973 197.968 449.621 197.968ZM449.537 223.63C447.185 223.63 445.967 222.412 445.967 220.144V204.436C445.967 202.168 447.185 200.95 449.537 200.95C451.889 200.95 453.107 202.168 453.107 204.436V220.144C453.107 222.412 451.889 223.63 449.537 223.63Z" fill="#594A39"/>
<path d="M469.108 223.63C464.698 223.63 462.976 221.992 462.976 216.7V193.684C462.976 191.458 464.236 190.24 466.546 190.24C468.772 190.24 470.074 191.458 470.074 193.684V216.742C470.074 217.96 470.2 218.38 471.082 218.38C471.586 218.38 471.88 218.17 472.384 218.17C473.14 218.17 474.232 218.758 474.232 220.564C474.232 222.916 471.922 223.63 469.108 223.63Z" fill="#594A39"/>
<path d="M479.926 217.792C480.64 216.91 481.816 216.742 482.908 217.414C484.168 218.17 485.974 218.926 487.822 218.926C489.67 218.926 490.552 218.464 490.552 217.372C490.552 216.322 490.09 215.608 486.478 214.012C482.194 212.122 479.968 210.358 479.968 206.914C479.968 203.134 483.622 200.53 488.998 200.53C492.61 200.53 495.088 201.664 496.306 202.714C497.272 203.554 497.44 204.814 496.726 205.78C496.012 206.746 494.458 206.998 493.282 206.158C492.274 205.444 490.93 205.192 489.376 205.192C487.78 205.192 486.982 205.78 486.982 206.662C486.982 207.67 487.822 208.174 490.93 209.602C495.844 211.828 497.776 213.676 497.776 216.994C497.776 221.53 493.492 223.63 488.998 223.63C485.806 223.63 482.068 222.832 480.262 221.026C479.254 220.018 479.086 218.8 479.926 217.792Z" fill="#594A39"/>
<path d="M509.661 213.214C508.023 213.214 506.847 212.332 506.721 210.694L505.461 195.742C505.209 192.928 506.889 191.374 509.661 191.374C512.475 191.374 514.113 192.928 513.861 195.742L512.559 210.694C512.433 212.332 511.299 213.214 509.661 213.214ZM509.703 223.756C507.351 223.756 505.419 221.908 505.419 219.556C505.419 217.414 507.351 215.524 509.703 215.524C511.971 215.524 513.903 217.372 513.903 219.556C513.903 221.908 511.971 223.756 509.703 223.756Z" fill="#594A39"/>
</svg>
