<svg width="530" height="434" viewBox="0 0 530 434" fill="none" xmlns="http://www.w3.org/2000/svg">
<g clip-path="url(#clip0_87_1185)">
<path d="M387.99 179.252C387.99 179.252 445.057 200.032 499.763 183.855C501.248 183.404 502.826 183.349 504.339 183.694C505.853 184.039 507.25 184.772 508.394 185.821C509.538 186.87 510.388 188.199 510.861 189.677C511.335 191.155 511.415 192.73 511.095 194.249C504.99 224.163 477.153 290.292 351.171 316.26" fill="#5E9A33"/>
<path d="M158.954 143.794C158.954 143.794 98.2753 146.346 51.0226 114.383C49.7402 113.516 48.2554 112.997 46.7126 112.874C45.1697 112.751 43.6206 113.028 42.217 113.681C40.8135 114.333 39.6038 115.339 38.7033 116.597C37.8028 117.856 37.2426 119.325 37.0784 120.864C33.8516 151.223 40.3889 222.675 152.621 285.522" fill="#5E9A33"/>
<g opacity="0.2">
<path d="M151.99 284.707C151.99 284.707 102.135 266.477 54.3415 280.699C53.0405 281.074 51.6645 281.107 50.3466 280.796C49.0288 280.484 47.8135 279.838 46.8186 278.92C45.8238 278.001 45.0821 276.84 44.6668 275.552C44.2514 274.263 44.1754 272.888 44.4466 271.561C49.7994 245.473 74.1102 187.718 184.138 165.014" fill="#5E9A33"/>
<path d="M352.018 315.674C352.018 315.674 405.053 313.373 446.347 341.387C447.473 342.13 448.772 342.569 450.117 342.665C451.463 342.761 452.811 342.51 454.031 341.935C455.251 341.361 456.303 340.483 457.086 339.385C457.869 338.287 458.356 337.004 458.502 335.663C461.327 309.184 455.618 246.782 357.568 191.864" fill="#5E9A33"/>
</g>
<path d="M179.977 387.629C178.321 387.369 176.824 386.495 175.781 385.183C174.738 383.872 174.223 382.217 174.343 380.545L177.633 335.383C177.871 333.707 178.735 332.184 180.052 331.12C181.369 330.057 183.041 329.533 184.729 329.653C186.418 329.773 187.999 330.528 189.152 331.767C190.305 333.006 190.945 334.637 190.944 336.33L187.694 381.496C187.634 382.375 187.401 383.233 187.008 384.021C186.614 384.808 186.068 385.509 185.401 386.084C184.735 386.658 183.959 387.093 183.122 387.366C182.286 387.639 181.403 387.744 180.526 387.674L179.977 387.629Z" fill="#695D41"/>
<path d="M190.196 389.767C189.465 389.671 188.757 389.441 188.11 389.087C187.332 388.683 186.642 388.131 186.078 387.46C185.514 386.788 185.088 386.012 184.825 385.176C184.563 384.339 184.467 383.458 184.546 382.585C184.624 381.712 184.877 380.865 185.284 380.089L206.371 339.554C206.767 338.759 207.319 338.051 207.992 337.472C208.665 336.892 209.446 336.451 210.29 336.177C211.135 335.902 212.026 335.799 212.911 335.873C213.797 335.946 214.658 336.195 215.446 336.606C216.234 337.016 216.933 337.578 217.501 338.261C218.069 338.944 218.494 339.733 218.754 340.582C219.014 341.432 219.101 342.324 219.012 343.208C218.923 344.092 218.661 344.95 218.237 345.73L197.148 386.265C196.505 387.505 195.486 388.512 194.238 389.141C192.99 389.77 191.576 389.988 190.196 389.767Z" fill="#695D41"/>
<path d="M294.493 405.358L293.948 405.274C293.095 405.071 292.291 404.701 291.581 404.186C290.871 403.671 290.268 403.021 289.811 402.273C289.353 401.525 289.047 400.695 288.912 399.828C288.777 398.961 288.815 398.076 289.023 397.224L299.546 353.182C299.961 351.456 301.043 349.965 302.557 349.038C304.071 348.111 305.891 347.824 307.617 348.239C309.343 348.654 310.832 349.738 311.758 351.252C312.685 352.766 312.973 354.586 312.558 356.312L302.038 400.353C301.628 401.976 300.628 403.388 299.233 404.313C297.839 405.238 296.148 405.612 294.493 405.358Z" fill="#695D41"/>
<path d="M284.105 404.306C282.723 404.099 281.441 403.463 280.442 402.486C279.442 401.51 278.776 400.242 278.537 398.865L270.693 353.851C270.525 352.979 270.532 352.082 270.714 351.212C270.897 350.343 271.25 349.519 271.755 348.788C272.259 348.056 272.904 347.434 273.652 346.954C274.4 346.475 275.237 346.15 276.112 345.998C276.987 345.845 277.884 345.868 278.75 346.066C279.616 346.263 280.434 346.631 281.156 347.148C281.878 347.665 282.489 348.321 282.955 349.077C283.421 349.833 283.733 350.674 283.871 351.552L291.713 396.565C292.011 398.312 291.604 400.104 290.582 401.55C289.559 402.997 288.005 403.98 286.259 404.281C285.549 404.425 284.818 404.433 284.105 404.306Z" fill="#695D41"/>
<path d="M215.996 363.595C221.238 349.222 216.37 334.245 205.121 330.141C193.872 326.038 180.501 334.363 175.259 348.736C170.016 363.108 174.886 378.087 186.135 382.19C197.384 386.294 210.753 377.968 215.996 363.595Z" fill="#FEFAE9"/>
<path d="M290.874 397.724C302.838 397.215 312.009 384.41 311.358 369.125C310.707 353.839 300.48 341.861 288.516 342.371C276.553 342.881 267.383 355.685 268.035 370.97C268.686 386.256 278.911 398.234 290.874 397.724Z" fill="#FEFAE9"/>
<path d="M291.627 36.7992C291.627 36.7992 283.749 66.079 228.087 81.7504C212.594 86.0804 198.59 94.588 187.608 106.342C153.51 142.952 95.0943 225.012 145.971 318.696C145.971 318.696 174.249 362.891 240.044 373.077C240.044 373.077 301.888 387.43 346.781 352.333C388.213 320.045 419.939 228.796 369.418 131.783C362.091 117.774 350.9 106.161 337.17 98.3214C319.272 87.9055 292.712 69.6574 291.627 36.7992Z" fill="#FEFAE9"/>
<path d="M387.954 178.452C383.49 162.291 377.315 146.652 369.534 131.801C362.207 117.792 351.015 106.179 337.286 98.3393C319.259 87.9831 292.711 69.6575 291.615 36.877C291.615 36.877 283.737 66.1569 228.075 81.8283C212.582 86.1583 198.578 94.6658 187.595 106.42C176.908 117.884 167.215 130.239 158.624 143.347C167.22 157.778 200.64 206.312 264.024 216.125C264.036 216.047 323.558 226.617 387.954 178.452Z" fill="#7DBE37"/>
<path d="M158.898 142.871C158.898 142.871 176.954 263.885 255.192 275.997C333.431 288.11 388.224 179.29 388.224 179.29C388.224 179.29 386.08 161.757 353.955 156.305C321.83 150.854 196.895 131.99 196.895 131.99C196.895 131.99 165.775 128.287 158.898 142.871Z" fill="#F2E865"/>
<path d="M218.529 160.464C238.738 163.593 257.657 149.747 260.786 129.538C263.914 109.329 250.068 90.41 229.859 87.2813C209.65 84.1527 190.731 97.9989 187.603 118.208C184.474 138.417 198.32 157.336 218.529 160.464Z" fill="white"/>
<path d="M324.297 176.839C344.506 179.968 363.424 166.121 366.553 145.912C369.682 125.704 355.836 106.785 335.627 103.656C315.418 100.527 296.499 114.374 293.37 134.583C290.242 154.792 304.088 173.71 324.297 176.839Z" fill="white"/>
<path d="M254.369 141.924L280.178 90.1745C280.554 89.4361 281.154 88.8343 281.892 88.4568C282.63 88.0792 283.468 87.9444 284.287 88.0712C285.106 88.198 285.864 88.5799 286.453 89.1629C287.042 89.7458 287.432 90.501 287.567 91.3185L295.666 148.317L269.93 205.492C269.562 206.247 268.961 206.864 268.217 207.253C267.473 207.642 266.623 207.782 265.793 207.653C264.963 207.525 264.197 207.135 263.605 206.539C263.013 205.943 262.626 205.173 262.503 204.342L254.369 141.924Z" fill="#84765B"/>
<path d="M262.385 143.641L279.944 100.172C280.124 99.6612 280.477 99.2289 280.942 98.9505C281.407 98.672 281.954 98.5648 282.49 98.6477C283.025 98.7306 283.515 98.9984 283.874 99.4043C284.232 99.8103 284.439 100.329 284.455 100.871L287.549 147.498L269.82 195.402C269.728 196 269.401 196.536 268.913 196.893C268.424 197.251 267.814 197.399 267.216 197.307C266.618 197.214 266.081 196.888 265.723 196.399C265.366 195.911 265.216 195.302 265.309 194.704L262.385 143.641Z" fill="#695D41"/>
<path d="M362.624 171.305C362.098 171.235 361.599 171.032 361.174 170.715C360.748 170.397 360.411 169.974 360.195 169.49C359.978 169.005 359.889 168.474 359.936 167.945C359.983 167.416 360.166 166.91 360.466 166.472L367.598 155.63C367.823 155.283 368.117 154.984 368.459 154.751C368.801 154.518 369.186 154.357 369.592 154.275C369.998 154.193 370.415 154.193 370.821 154.275C371.227 154.357 371.612 154.519 371.954 154.751C372.649 155.222 373.131 155.948 373.294 156.771C373.458 157.594 373.29 158.446 372.828 159.146L365.73 169.754C365.425 170.292 364.966 170.728 364.412 171.004C363.859 171.28 363.237 171.385 362.624 171.305Z" fill="#E27E7C"/>
<path d="M371.203 176.058C370.76 175.993 370.336 175.833 369.962 175.588C369.269 175.125 368.787 174.406 368.622 173.59C368.458 172.773 368.623 171.925 369.083 171.231L376.149 160.577C376.619 159.883 377.343 159.402 378.166 159.239C378.989 159.076 379.843 159.244 380.543 159.706C380.888 159.939 381.183 160.236 381.411 160.583C381.639 160.93 381.796 161.318 381.874 161.726C381.951 162.134 381.949 162.555 381.863 162.961C381.778 163.368 381.612 163.753 381.377 164.095L374.319 174.709C373.979 175.204 373.506 175.594 372.955 175.833C372.404 176.072 371.797 176.149 371.203 176.058Z" fill="#E27E7C"/>
<path d="M172.527 140.998C172.066 140.935 171.627 140.757 171.252 140.482C170.559 140.02 170.077 139.303 169.913 138.486C169.748 137.669 169.913 136.822 170.373 136.127L177.471 125.518C177.954 124.876 178.663 124.442 179.455 124.307C180.247 124.171 181.06 124.342 181.729 124.787C182.398 125.232 182.873 125.917 183.055 126.699C183.236 127.482 183.112 128.304 182.707 128.998L175.603 139.643C175.274 140.14 174.809 140.533 174.263 140.773C173.718 141.014 173.116 141.091 172.527 140.998Z" fill="#E27E7C"/>
<path d="M181.223 145.77C180.775 145.709 180.349 145.533 179.988 145.26C179.641 145.035 179.343 144.741 179.11 144.399C178.878 144.056 178.714 143.671 178.633 143.265C178.551 142.859 178.552 142.442 178.634 142.037C178.716 141.631 178.878 141.245 179.111 140.903L186.169 130.29C186.631 129.59 187.352 129.103 188.173 128.936C188.994 128.768 189.848 128.933 190.548 129.395C191.247 129.857 191.734 130.578 191.902 131.399C192.07 132.22 191.905 133.074 191.443 133.774L184.339 144.421C184.003 144.92 183.532 145.311 182.98 145.55C182.428 145.789 181.817 145.866 181.223 145.77Z" fill="#E27E7C"/>
<path d="M326.338 148.486C334.993 149.826 343.095 143.896 344.435 135.241C345.775 126.586 339.845 118.484 331.19 117.144C322.536 115.804 314.433 121.734 313.093 130.389C311.754 139.044 317.683 147.146 326.338 148.486Z" fill="#4A1E0E"/>
<path d="M229.668 133.52C238.323 134.86 246.425 128.93 247.765 120.275C249.105 111.62 243.175 103.518 234.521 102.178C225.866 100.838 217.763 106.768 216.423 115.423C215.084 124.078 221.013 132.18 229.668 133.52Z" fill="#4A1E0E"/>
<path d="M179.977 387.629C178.321 387.369 176.824 386.495 175.781 385.183C174.738 383.872 174.223 382.217 174.343 380.545L177.633 335.383C177.871 333.707 178.735 332.184 180.052 331.12C181.369 330.057 183.041 329.533 184.729 329.653C186.418 329.773 187.999 330.528 189.152 331.767C190.305 333.006 190.945 334.637 190.944 336.33L187.694 381.496C187.634 382.375 187.401 383.233 187.008 384.021C186.614 384.808 186.068 385.509 185.401 386.084C184.735 386.658 183.959 387.093 183.122 387.366C182.286 387.639 181.403 387.744 180.526 387.674L179.977 387.629Z" fill="#695D41"/>
<path d="M190.196 389.767C189.465 389.671 188.757 389.441 188.11 389.087C187.332 388.683 186.642 388.131 186.078 387.46C185.514 386.788 185.088 386.012 184.825 385.176C184.563 384.339 184.467 383.458 184.546 382.585C184.624 381.712 184.877 380.865 185.284 380.089L206.371 339.554C206.767 338.759 207.319 338.051 207.992 337.472C208.665 336.892 209.446 336.451 210.29 336.177C211.135 335.902 212.026 335.799 212.911 335.873C213.797 335.946 214.658 336.195 215.446 336.606C216.234 337.016 216.933 337.578 217.501 338.261C218.069 338.944 218.494 339.733 218.754 340.582C219.014 341.432 219.101 342.324 219.012 343.208C218.923 344.092 218.661 344.95 218.237 345.73L197.148 386.265C196.505 387.505 195.486 388.512 194.238 389.141C192.99 389.77 191.576 389.988 190.196 389.767Z" fill="#695D41"/>
<path d="M294.493 405.358L293.948 405.274C293.095 405.071 292.291 404.701 291.581 404.186C290.871 403.671 290.268 403.021 289.811 402.273C289.353 401.525 289.047 400.695 288.912 399.828C288.777 398.961 288.815 398.076 289.023 397.224L299.546 353.182C299.961 351.456 301.043 349.965 302.557 349.038C304.071 348.111 305.891 347.824 307.617 348.239C309.343 348.654 310.832 349.738 311.758 351.252C312.685 352.766 312.973 354.586 312.558 356.312L302.038 400.353C301.628 401.976 300.628 403.388 299.233 404.313C297.839 405.238 296.148 405.612 294.493 405.358Z" fill="#695D41"/>
<path d="M284.105 404.306C282.723 404.099 281.441 403.463 280.442 402.486C279.442 401.51 278.776 400.242 278.537 398.865L270.693 353.851C270.525 352.979 270.532 352.082 270.714 351.212C270.897 350.343 271.25 349.519 271.755 348.788C272.259 348.056 272.904 347.434 273.652 346.954C274.4 346.475 275.237 346.15 276.112 345.998C276.987 345.845 277.884 345.868 278.75 346.066C279.616 346.263 280.434 346.631 281.156 347.148C281.878 347.665 282.489 348.321 282.955 349.077C283.421 349.833 283.733 350.674 283.871 351.552L291.713 396.565C292.011 398.312 291.604 400.104 290.582 401.55C289.559 402.997 288.005 403.98 286.259 404.281C285.549 404.425 284.818 404.433 284.105 404.306Z" fill="#695D41"/>
</g>
<defs>
<clipPath id="clip0_87_1185">
<rect width="479.703" height="364.371" fill="white" transform="translate(55.7461 0.280823) rotate(8.80044)"/>
</clipPath>
</defs>
</svg>
