<svg width="632" height="550" viewBox="0 0 632 550" fill="none" xmlns="http://www.w3.org/2000/svg">
<path opacity="0.7" d="M437.11 0C569.666 0 642.551 50.7446 629.756 136.21C619.008 208 561.975 235.816 474.353 244.799C474.137 251.89 472.336 258.844 469.082 265.146C465.829 271.449 461.207 276.941 455.554 281.219C454.91 281.715 454.128 282.005 453.316 282.046C452.504 282.087 451.698 281.879 451.006 281.45C450.315 281.022 449.771 280.394 449.446 279.648C449.121 278.902 449.029 278.073 449.185 277.274C450.142 271.782 449.732 266.14 447.986 260.846C446.241 255.551 443.215 250.768 439.181 246.924C427.7 247.41 435.756 247.654 423.345 247.654C290.79 247.654 200.135 198.184 200.135 111.444C200.135 24.7039 304.555 0 437.11 0Z" fill="#EEB690"/>
<path d="M302.614 110.718C302.083 110.371 301.594 109.963 301.157 109.503C300.47 108.855 299.803 108.128 299.156 107.318C298.665 106.704 298.221 106.056 297.823 105.377C297.611 104.747 297.611 104.063 297.823 103.433C297.823 102.522 298.37 102.037 298.673 102.037C298.976 102.037 299.156 102.039 299.52 101.31L300.613 99.1854C300.856 98.7467 301.039 98.2772 301.157 97.7894C301.201 97.6394 301.28 97.502 301.385 97.3863C301.49 97.2706 301.619 97.1806 301.764 97.1225L302.673 96.5149C303.1 95.8821 303.589 95.2923 304.13 94.7544L305.584 93.1747C306.561 92.0132 307.615 90.9179 308.737 89.8967C310.253 88.4399 311.708 86.9832 313.164 85.4657L317.167 81.097C317.984 80.371 318.608 79.4537 318.985 78.4265C319.387 78.0372 319.815 77.6713 320.261 77.3329C320.801 77.0193 321.309 76.6523 321.777 76.2392C322.308 75.8029 322.814 75.3369 323.293 74.8433C323.539 74.1296 323.886 73.4576 324.323 72.8427C324.918 72.0699 325.566 71.3376 326.263 70.6553C326.849 69.7185 327.377 68.7455 327.841 67.7419C328.249 67.0118 328.573 66.2388 328.809 65.436C329.051 64.6671 329.051 64.1801 328.809 63.9778C327.862 63.5723 326.89 63.2281 325.898 62.9463C324.291 62.5016 322.593 62.5016 320.986 62.9463C318.779 63.6239 316.722 64.7173 314.922 66.1651C313.97 66.3669 313.037 66.6491 312.133 67.0128C311.477 67.349 310.747 67.5163 310.01 67.4988C309.642 67.2234 309.317 66.8983 309.042 66.5296C308.692 66.0182 308.307 65.53 307.89 65.0714L306.798 60.4597L310.132 58.5776C312.794 56.8481 315.644 55.4216 318.624 54.3275C320.867 53.3727 323.366 53.2012 325.718 53.8414C326.788 53.8894 327.847 54.075 328.871 54.3897C329.785 54.4173 330.67 54.7106 331.417 55.2374C332.603 55.9623 333.719 56.7964 334.751 57.727C335.723 58.5658 336.508 59.5999 337.055 60.762C338.178 62.5738 338.65 64.7155 338.39 66.832C337.975 69.6184 336.893 72.2632 335.237 74.5409L332.871 77.2736C331.598 78.609 330.264 80.1858 328.688 81.8854L324.445 86.3786L322.017 88.8652C321.057 89.4037 320.196 90.1035 319.47 90.931L315.713 94.7544C314.379 96.1505 313.225 97.3651 312.376 98.397C311.527 99.4289 311.042 99.9738 311.224 99.9738C311.406 99.9738 311.527 100.277 312.376 99.9738L314.558 99.1854C315.811 98.7674 317.088 98.4233 318.381 98.154C319.897 97.8505 321.413 97.5447 322.929 97.3626C324.234 97.1501 325.549 97.0093 326.87 96.9388C327.521 96.7337 328.22 96.7337 328.871 96.9388C328.871 97.303 329.173 97.3637 329.416 96.9388C329.658 96.5139 330.448 96.2721 332.146 96.5149C333.709 96.6909 335.251 97.0141 336.753 97.4841C337.433 97.631 338.074 97.9215 338.633 98.3347C339.118 98.6989 339.361 99.0034 339.361 99.3069C339.696 99.9247 340.081 100.514 340.513 101.067C340.779 101.214 340.999 101.428 341.153 101.69C341.307 101.951 341.39 102.249 341.39 102.552C341.39 102.856 341.307 103.156 341.153 103.418C340.999 103.679 340.779 103.893 340.513 104.04C339.643 104.653 338.64 105.056 337.588 105.214C336.535 105.372 335.461 105.28 334.449 104.95C332.907 104.907 331.363 105.01 329.839 105.255C329.221 105.396 328.578 105.396 327.959 105.255H325.291C323.984 105.074 322.658 105.074 321.351 105.255C319.787 105.572 318.248 105.998 316.743 106.53L313.711 107.502L309.285 108.776C307.868 109.177 306.431 109.499 304.98 109.746C304.244 110.184 303.446 110.513 302.614 110.718Z" fill="#FDFDFB"/>
<path d="M376.287 111.262C375.34 111.186 374.404 111.004 373.498 110.716C372.164 110.352 370.829 109.867 369.374 109.32C368.185 108.937 367.075 108.34 366.099 107.56C363.823 105.674 362.019 103.285 360.826 100.58C359.741 98.0987 359.083 95.4507 358.883 92.7495C358.705 90.2168 358.809 87.6723 359.188 85.162C360.055 80.3014 361.735 75.6236 364.16 71.3238C367.634 64.9306 372.713 59.5521 378.896 55.7221C381.698 53.8485 384.986 52.8359 388.356 52.8086H391.326C392.962 52.8437 394.581 53.1508 396.116 53.7185C397.717 54.3013 399.259 55.035 400.723 55.9058C401.997 56.7556 402.666 57.5426 402.666 58.271C402.693 58.7764 402.693 59.283 402.666 59.7885C402.666 60.2741 402.301 60.3972 401.694 60.0937H400.605L401.694 63.3095C402.038 64.0694 402.301 64.8635 402.482 65.6776C402.662 66.5366 402.766 67.4113 402.787 68.2888C402.854 69.3601 402.854 70.4333 402.787 71.5046C402.787 72.9007 402.303 74.4166 401.999 75.9948C401.696 77.573 401.331 79.0933 401.028 80.4287C400.838 81.471 400.534 82.4888 400.119 83.4637C399.888 83.8491 399.762 84.2886 399.755 84.7382C399.726 85.0815 399.726 85.4263 399.755 85.7696C399.452 86.3159 398.967 87.3478 398.361 88.8046L396.904 91.8396L396.238 92.5687C396.238 92.5687 396.238 93.0536 396.238 93.3571C396.127 93.8583 395.964 94.345 395.752 94.8123C395.388 95.5407 394.964 96.2711 394.6 96.8781C394.236 97.4851 393.873 97.8473 393.691 97.8473C393.509 97.8473 393.143 97.8478 393.143 98.3334C392.802 99.1662 392.31 99.9286 391.69 100.58C390.622 101.91 389.469 103.168 388.234 104.344C387.178 105.388 386.018 106.323 384.776 107.136C383.199 108.229 381.623 109.2 380.107 110.049C378.947 110.751 377.639 111.166 376.287 111.262ZM376.287 100.823C377.07 100.825 377.847 100.702 378.591 100.458C379.29 100.245 379.92 99.8467 380.412 99.3055C381.821 98.3349 383.085 97.1682 384.169 95.8437C385.374 94.3229 386.375 92.6503 387.142 90.8674C387.907 89.8172 388.539 88.6749 389.022 87.4679C389.507 86.3146 390.234 84.2508 391.204 81.3979C391.823 80.5311 392.239 79.535 392.418 78.4844C392.52 77.5159 392.52 76.5395 392.418 75.571C392.418 74.7819 392.418 73.6891 392.418 72.293C392.464 71.1264 392.627 69.9684 392.904 68.8341C392.904 66.9525 392.904 65.8596 392.904 65.5561C392.696 65.0529 392.384 64.597 391.992 64.2194C391.654 63.9566 391.29 63.7334 390.902 63.5526C390.429 63.3294 389.909 63.2264 389.386 63.2502C388.706 63.284 388.033 63.4067 387.385 63.6148C386.658 63.821 385.965 64.1268 385.324 64.5247C385.057 64.6454 384.767 64.7085 384.474 64.7085C384.181 64.7085 383.891 64.6454 383.624 64.5247C383.018 64.5247 382.715 63.9776 382.715 63.6741C382.715 63.3706 382.229 62.7029 381.259 63.6741L377.38 68.2888C376.168 69.4992 375.072 70.8195 374.105 72.2337C373.525 72.9607 373.072 73.7813 372.77 74.6611C372.743 75.0502 372.617 75.4272 372.406 75.7547C372.406 76.1796 371.983 76.7259 371.802 77.2722C371.287 78.0624 370.84 78.893 370.466 79.7589L369.009 83.1584C368.639 83.9827 368.335 84.8347 368.1 85.7074V91.7773C368.054 92.667 368.054 93.5581 368.1 94.4478C368.134 94.9318 368.257 95.4052 368.465 95.8437L369.252 97.4827C369.679 98.1179 370.145 98.7279 370.647 99.3055C371.088 99.7587 371.495 100.244 371.861 100.761C372.649 101.489 373.193 101.734 373.436 101.552C374.267 101.189 375.146 100.943 376.044 100.823H376.287Z" fill="#FDFDFB"/>
<path d="M421.889 110.718C421.37 110.355 420.882 109.948 420.432 109.503C419.785 108.855 419.121 108.128 418.433 107.318C417.935 106.722 417.508 106.072 417.16 105.377C417.16 105.013 417.16 104.404 417.16 103.433C417.16 102.461 417.645 102.037 417.948 102.037C418.251 102.037 418.434 102.039 418.798 101.31L419.887 99.1854C420.131 98.7467 420.314 98.2772 420.432 97.7894C420.546 97.5003 420.762 97.2636 421.039 97.1225L421.948 96.5149C422.375 95.8821 422.863 95.2923 423.405 94.7544L424.861 93.1747C425.855 92.0286 426.905 90.9343 428.012 89.8967C429.528 88.4399 430.986 86.9832 432.441 85.4657L436.441 81.097C437.259 80.371 437.886 79.4537 438.262 78.4265L439.595 77.3329C440.123 77.03 440.613 76.662 441.051 76.2392L442.627 74.8433C442.842 74.117 443.191 73.4401 443.657 72.8427C444.23 72.0701 444.859 71.3377 445.537 70.6553C446.083 69.7448 446.629 68.8345 447.174 67.7419C447.72 66.6493 447.964 65.9216 448.146 65.436C448.328 64.9504 448.146 64.1599 448.146 63.9778C447.198 63.5723 446.226 63.2281 445.235 62.9463C443.649 62.5006 441.969 62.5006 440.382 62.9463C438.178 63.6306 436.121 64.7234 434.318 66.1651C433.366 66.3669 432.433 66.6491 431.529 67.0128C430.895 67.3489 430.186 67.5166 429.468 67.4988C429.066 67.2445 428.716 66.9168 428.438 66.5296C428.107 66.0042 427.721 65.5144 427.286 65.0714L426.194 60.4597L429.528 58.5776C432.197 56.8608 435.046 55.4351 438.019 54.3275C440.263 53.3727 442.761 53.2012 445.114 53.8414C446.184 53.8833 447.245 54.069 448.267 54.3897C449.181 54.4173 450.066 54.7106 450.813 55.2374C452.009 55.9472 453.126 56.7823 454.147 57.727C455.138 58.5479 455.929 59.5865 456.454 60.762C457.632 62.5511 458.105 64.7132 457.786 66.832C457.371 69.6184 456.289 72.2632 454.633 74.5409L452.267 77.2736L448.083 81.8854C446.567 83.585 445.112 85.0432 443.9 86.3786L441.475 88.8652C440.494 89.3715 439.627 90.0759 438.928 90.931C437.716 92.1046 436.443 93.3786 435.109 94.7544C433.775 96.1505 432.682 97.3651 431.772 98.397C430.862 99.4289 430.499 99.9738 430.62 99.9738C430.742 99.9738 430.923 100.277 431.772 99.9738L434.016 99.1854C435.264 98.7519 436.54 98.4076 437.836 98.154C439.291 97.8505 440.809 97.5447 442.325 97.3626C443.63 97.1501 444.945 97.0093 446.265 96.9388C446.917 96.7337 447.616 96.7337 448.267 96.9388C448.267 97.303 448.266 97.3637 448.812 96.9388C449.358 96.5139 449.844 96.2721 451.542 96.5149C453.106 96.6844 454.649 97.0077 456.149 97.4841C456.833 97.6174 457.477 97.9092 458.029 98.3347C458.514 98.6989 458.757 99.0034 458.757 99.3069C459.091 99.9396 459.496 100.531 459.968 101.067C460.219 101.226 460.426 101.445 460.569 101.705C460.712 101.965 460.788 102.256 460.788 102.552C460.788 102.849 460.712 103.143 460.569 103.403C460.426 103.663 460.219 103.881 459.968 104.04C459.092 104.64 458.093 105.035 457.043 105.193C455.993 105.351 454.918 105.266 453.904 104.95C452.362 104.909 450.821 105.012 449.297 105.255C448.679 105.396 448.036 105.396 447.417 105.255H444.749C443.462 105.073 442.155 105.073 440.868 105.255C439.284 105.571 437.723 105.997 436.199 106.53L433.167 107.502L428.74 108.776C427.325 109.183 425.888 109.505 424.435 109.746C423.644 110.204 422.784 110.533 421.889 110.718Z" fill="#FDFDFB"/>
<path d="M481.07 110.718C480.564 110.339 480.08 109.932 479.617 109.503C478.929 108.855 478.262 108.128 477.615 107.318C477.138 106.707 476.713 106.058 476.342 105.377C476.342 105.013 476.342 104.404 476.342 103.433C476.342 102.462 476.826 102.037 477.129 102.037C477.433 102.037 477.676 102.039 477.979 101.311L479.072 99.1855C479.315 98.7468 479.498 98.2774 479.617 97.7896C479.731 97.5004 479.947 97.2638 480.223 97.1227L481.132 96.5151C481.559 95.8823 482.045 95.2925 482.586 94.7546L484.043 93.1748C485.037 92.0288 486.09 90.9345 487.196 89.8968C488.712 88.44 490.167 86.9834 491.623 85.4659L495.626 81.0971C496.433 80.3491 497.074 79.4394 497.506 78.4267C497.895 78.0227 498.321 77.6558 498.779 77.3331C499.307 77.0302 499.795 76.6621 500.233 76.2394L501.811 74.8434C502.027 74.1172 502.376 73.4403 502.842 72.8428C503.415 72.0703 504.044 71.3379 504.722 70.6555C505.351 69.734 505.899 68.7592 506.359 67.742C506.741 66.9992 507.063 66.2288 507.327 65.4362C507.327 64.6471 507.327 64.16 507.327 63.9779C506.38 63.5724 505.408 63.2282 504.417 62.9465C502.831 62.4976 501.153 62.4976 499.567 62.9465C497.368 63.6436 495.314 64.7352 493.503 66.1653C492.568 66.3578 491.652 66.6404 490.773 67.0129C490.115 67.3444 489.386 67.5115 488.65 67.499C488.268 67.2398 487.941 66.9122 487.682 66.5298C487.311 66.0174 486.905 65.5292 486.468 65.0716L485.378 60.4598L488.771 58.5778C491.428 56.8377 494.279 55.4106 497.263 54.3276C499.485 53.3728 501.963 53.2011 504.295 53.8416C505.366 53.8834 506.426 54.0692 507.449 54.3899C508.365 54.4024 509.254 54.6972 509.995 55.2375C511.191 55.9474 512.311 56.7825 513.332 57.7272C514.339 58.5475 515.148 59.585 515.698 60.7622C516.828 62.57 517.28 64.7216 516.971 66.8321C516.556 69.6185 515.474 72.2634 513.817 74.5411L511.452 77.2738L507.268 81.8855C505.752 83.5851 504.358 85.0433 503.084 86.3787L500.659 88.8654C499.678 89.3716 498.809 90.0761 498.11 90.9312L494.291 94.7546C492.957 96.1507 491.866 97.3653 490.957 98.3972C490.047 99.429 489.684 99.9739 489.805 99.9739C489.926 99.9739 490.108 100.277 490.957 99.9739L493.198 99.1855C494.448 98.7598 495.726 98.4156 497.02 98.1541C498.476 97.8506 499.99 97.5449 501.506 97.3628C502.812 97.1534 504.127 97.0126 505.447 96.9389C506.097 96.7258 506.799 96.7258 507.449 96.9389C507.449 97.3031 507.754 97.3638 507.996 96.9389C508.239 96.514 509.086 96.2723 510.723 96.5151C512.288 96.6845 513.833 97.0079 515.333 97.4843C516.031 97.6317 516.691 97.9218 517.273 98.3349C517.697 98.6991 517.939 99.0036 517.939 99.3071C518.293 99.9266 518.7 100.516 519.153 101.068C519.403 101.226 519.608 101.445 519.751 101.705C519.894 101.965 519.97 102.256 519.97 102.552C519.97 102.849 519.894 103.143 519.751 103.403C519.608 103.663 519.403 103.882 519.153 104.04C518.28 104.649 517.279 105.047 516.228 105.205C515.176 105.363 514.102 105.276 513.089 104.95C511.527 104.907 509.963 105.01 508.42 105.256C507.821 105.391 507.201 105.391 506.602 105.256H503.872C502.585 105.074 501.277 105.074 499.99 105.256C498.406 105.571 496.846 105.997 495.321 106.53L492.289 107.502L487.863 108.777C486.466 109.176 485.051 109.498 483.62 109.746C482.825 110.197 481.963 110.525 481.07 110.718Z" fill="#FDFDFB"/>
<path opacity="0.2" d="M348.26 411.303C348.26 411.303 395.133 382.775 446.433 387.63C447.829 387.766 449.237 387.535 450.516 386.961C451.795 386.386 452.902 385.486 453.729 384.352C454.555 383.219 455.07 381.891 455.227 380.496C455.383 379.102 455.175 377.689 454.62 376.4C444.008 351.028 407.746 297.491 291.684 296.338" fill="#7DBE37"/>
<path opacity="0.2" d="M157.797 468.603C126.281 481.509 97.4802 500.249 72.903 523.84C71.9246 524.838 70.7017 525.564 69.3589 525.948C68.016 526.331 66.5972 526.358 65.2403 526.028C63.8834 525.697 62.636 525.021 61.6192 524.063C60.6023 523.104 59.8514 521.898 59.44 520.562C51.2538 494.219 44.5221 429.513 132.872 354.367" fill="#7DBE37"/>
<path d="M315.092 269.205C315.092 269.205 377.124 259.677 418.601 217.673C419.731 216.546 421.134 215.73 422.672 215.304C424.209 214.879 425.828 214.858 427.377 215.242C428.925 215.627 430.349 216.405 431.51 217.501C432.67 218.596 433.529 219.971 434.003 221.496C443.341 251.846 451.042 325.474 349.897 411.728" fill="#5E9A33"/>
<path d="M361.569 505.447C372.165 499.016 374.112 482.835 365.917 469.305C357.721 455.775 342.486 450.019 331.891 456.45C321.295 462.881 319.352 479.063 327.547 492.593C335.743 506.124 350.974 511.878 361.569 505.447Z" fill="#FEFAE9"/>
<path d="M258.246 544.437C270.492 542.55 278.47 528.345 276.065 512.706C273.661 497.067 261.785 485.917 249.538 487.804C237.291 489.691 229.311 503.9 231.716 519.539C234.12 535.178 245.999 546.324 258.246 544.437Z" fill="#FEFAE9"/>
<path d="M184.963 177.852C184.963 177.852 198.848 206.016 258.395 210.75C274.963 212.046 290.86 217.862 304.359 227.564C346.261 257.914 421.937 329.419 389.253 434.672C389.253 434.672 369.484 485.233 304.783 508.603C304.783 508.603 244.995 535.616 192.3 509.029C143.789 484.75 93.3965 398.373 125.171 289.781C129.767 274.109 138.779 260.096 151.126 249.417C167.195 235.274 190.481 211.358 184.963 177.852Z" fill="#FEFAE9"/>
<path d="M115.711 340.952C117 323.612 120.131 306.458 125.049 289.781C129.646 274.109 138.658 260.096 151.004 249.417C167.195 235.274 190.481 211.358 184.963 177.852C184.963 177.852 198.848 206.016 258.395 210.75C274.963 212.046 290.86 217.862 304.359 227.564C317.473 237.055 329.766 247.634 341.107 259.189C335.043 275.577 311.212 331.481 248.876 354.183C248.876 354.183 190.781 376.826 115.711 340.952Z" fill="#7DBE37"/>
<path d="M340.8 258.887C354.369 276.187 364.646 295.835 371.119 316.854C378.396 343.926 361.478 379.92 333.099 390.239C220.614 431.211 115.709 341.679 115.709 341.679C115.709 341.679 114.375 323.469 146.028 311.329C177.682 299.189 300.417 255.123 300.417 255.123C300.417 255.123 330.916 245.472 340.8 258.887Z" fill="#F2E865"/>
<path d="M289.622 284.076C310.754 284.076 327.885 266.928 327.885 245.774C327.885 224.621 310.754 207.473 289.622 207.473C268.49 207.473 251.359 224.621 251.359 245.774C251.359 266.928 268.49 284.076 289.622 284.076Z" fill="white"/>
<path d="M192.419 319.525C213.551 319.525 230.682 302.377 230.682 281.223C230.682 260.07 213.551 242.922 192.419 242.922C171.287 242.922 154.156 260.07 154.156 281.223C154.156 302.377 171.287 319.525 192.419 319.525Z" fill="white"/>
<path d="M330.253 260.524H329.948C329.52 260.486 329.105 260.361 328.725 260.16C328.345 259.958 328.008 259.681 327.736 259.347C327.465 259.014 327.264 258.629 327.144 258.215C327.024 257.802 326.987 257.368 327.038 256.941L328.311 243.832C328.466 243.034 328.913 242.321 329.563 241.834C330.213 241.347 331.023 241.118 331.831 241.194C332.64 241.27 333.39 241.644 333.939 242.243C334.488 242.842 334.796 243.623 334.801 244.436L333.466 257.611C333.404 258.416 333.036 259.164 332.438 259.706C331.84 260.248 331.059 260.542 330.253 260.524Z" fill="#E27E7C"/>
<path d="M340.501 260.646H340.196C339.337 260.554 338.55 260.125 338.005 259.455C337.46 258.784 337.2 257.923 337.285 257.063L338.621 243.954C338.658 243.525 338.78 243.107 338.982 242.727C339.183 242.346 339.46 242.011 339.793 241.74C340.127 241.468 340.511 241.264 340.924 241.144C341.337 241.024 341.77 240.99 342.197 241.04C342.624 241.077 343.04 241.199 343.417 241.402C343.794 241.604 344.125 241.882 344.391 242.217C344.658 242.552 344.853 242.939 344.966 243.352C345.079 243.765 345.108 244.196 345.049 244.62L343.776 257.733C343.699 258.543 343.317 259.293 342.71 259.834C342.102 260.375 341.314 260.665 340.501 260.646Z" fill="#E27E7C"/>
<path d="M149.003 322.38C148.574 322.342 148.157 322.217 147.777 322.015C147.397 321.813 147.062 321.54 146.791 321.206C146.52 320.872 146.319 320.484 146.199 320.071C146.079 319.657 146.042 319.224 146.092 318.796L147.365 305.687C147.457 304.827 147.886 304.037 148.556 303.491C149.226 302.945 150.082 302.689 150.942 302.774C151.371 302.811 151.788 302.934 152.168 303.135C152.548 303.337 152.882 303.613 153.154 303.947C153.425 304.281 153.629 304.666 153.749 305.08C153.869 305.493 153.903 305.927 153.853 306.354L152.52 319.466C152.482 319.889 152.36 320.299 152.162 320.675C151.964 321.051 151.695 321.386 151.368 321.656C151.041 321.927 150.664 322.131 150.258 322.255C149.852 322.379 149.425 322.421 149.003 322.38Z" fill="#E27E7C"/>
<path d="M159.495 322.56C159.072 322.522 158.662 322.402 158.286 322.204C157.911 322.006 157.577 321.734 157.306 321.407C157.036 321.079 156.832 320.702 156.708 320.295C156.584 319.889 156.542 319.461 156.584 319.039L157.919 305.867C158.026 305.025 158.447 304.257 159.101 303.715C159.754 303.174 160.587 302.901 161.434 302.954C161.862 302.991 162.28 303.117 162.66 303.318C163.04 303.52 163.374 303.793 163.646 304.127C163.917 304.461 164.121 304.849 164.241 305.263C164.361 305.676 164.395 306.109 164.344 306.537L163.071 319.646C162.965 320.5 162.536 321.279 161.869 321.822C161.203 322.364 160.351 322.629 159.495 322.56Z" fill="#E27E7C"/>
<path d="M199.999 286.928C209.042 286.928 216.372 279.591 216.372 270.539C216.372 261.488 209.042 254.15 199.999 254.15C190.957 254.15 183.627 261.488 183.627 270.539C183.627 279.591 190.957 286.928 199.999 286.928Z" fill="#4A1E0E"/>
<path d="M289.441 254.393C298.483 254.393 305.813 247.056 305.813 238.004C305.813 228.953 298.483 221.615 289.441 221.615C280.399 221.615 273.068 228.953 273.068 238.004C273.068 247.056 280.399 254.393 289.441 254.393Z" fill="#4A1E0E"/>
<path d="M373.728 509.031C372.92 509.038 372.117 508.892 371.362 508.604C369.643 507.974 368.242 506.688 367.469 505.026C366.696 503.365 366.616 501.465 367.241 499.742L383.067 456.769C383.377 455.917 383.853 455.135 384.467 454.469C385.082 453.803 385.823 453.265 386.646 452.886C387.47 452.508 388.359 452.296 389.264 452.264C390.169 452.232 391.072 452.38 391.92 452.7C393.629 453.342 395.019 454.632 395.79 456.289C396.561 457.946 396.653 459.838 396.044 461.562L380.215 504.537C379.721 505.859 378.835 506.998 377.675 507.801C376.515 508.604 375.138 509.034 373.728 509.031Z" fill="#695D41"/>
<path d="M363.847 513.279C362.162 513.277 360.534 512.66 359.272 511.542C358.011 510.424 357.2 508.883 356.993 507.209L351.841 473.886C351.562 472.076 352.01 470.226 353.09 468.747C354.17 467.268 355.791 466.278 357.6 465.994C358.497 465.838 359.419 465.866 360.306 466.074C361.193 466.282 362.028 466.668 362.763 467.206C363.499 467.744 364.117 468.424 364.584 469.206C365.052 469.989 365.359 470.858 365.484 471.761L370.636 505.087C370.915 506.898 370.467 508.744 369.387 510.223C368.307 511.702 366.686 512.693 364.877 512.977L363.847 513.279Z" fill="#695D41"/>
<path d="M261.242 550.002H260.395C259.487 549.905 258.607 549.627 257.808 549.184C257.009 548.742 256.306 548.142 255.741 547.424C255.176 546.706 254.76 545.884 254.518 545.002C254.276 544.121 254.213 543.2 254.332 542.293L259.122 503.325C259.238 502.42 259.528 501.547 259.981 500.755C260.433 499.963 261.037 499.268 261.757 498.71C262.478 498.152 263.303 497.74 264.182 497.501C265.062 497.261 265.979 497.198 266.883 497.314C267.786 497.43 268.659 497.723 269.45 498.177C270.241 498.63 270.935 499.233 271.493 499.955C272.05 500.676 272.459 501.499 272.698 502.379C272.937 503.259 273.003 504.181 272.887 505.085L268.034 543.992C267.828 545.649 267.026 547.177 265.775 548.283C264.525 549.39 262.911 550.001 261.242 550.002Z" fill="#695D41"/>
<path d="M271.551 546.904C270.28 546.944 269.03 546.584 267.975 545.873C266.41 544.928 265.282 543.403 264.839 541.628C264.396 539.854 264.673 537.974 265.609 536.403L292.716 491.364C293.66 489.799 295.183 488.672 296.956 488.229C298.728 487.785 300.603 488.059 302.173 488.996C303.741 489.953 304.871 491.492 305.314 493.276C305.757 495.06 305.477 496.948 304.538 498.528L277.435 543.567C276.822 544.581 275.957 545.421 274.927 546.006C273.897 546.591 272.735 546.898 271.551 546.904Z" fill="#695D41"/>
<path d="M272.582 267.808L257.544 206.744C257.34 205.981 256.893 205.309 256.268 204.829C255.643 204.348 254.876 204.088 254.088 204.088C253.3 204.088 252.534 204.348 251.909 204.829C251.284 205.309 250.833 205.981 250.63 206.744L232.439 276.187C232.001 277.827 232.089 279.562 232.687 281.151C233.285 282.74 234.365 284.105 235.775 285.048L292.716 322.559C293.374 323.022 294.166 323.25 294.969 323.205C295.772 323.16 296.537 322.846 297.139 322.313C297.742 321.78 298.148 321.06 298.291 320.268C298.434 319.476 298.308 318.658 297.93 317.947L272.703 267.929L272.582 267.808Z" fill="#695D41"/>
<path d="M232.38 276.124L250.572 206.683C250.729 206.001 251.093 205.384 251.614 204.917C252.135 204.45 252.788 204.154 253.482 204.072C253.029 204.568 252.79 205.224 252.816 205.895L248.511 270.234C248.446 271.86 248.705 273.484 249.278 275.006C249.851 276.529 250.724 277.921 251.845 279.099L294.837 321.589C295.039 321.833 295.29 322.033 295.571 322.179C295.852 322.325 296.158 322.412 296.474 322.437C295.902 322.826 295.227 323.035 294.535 323.035C293.843 323.035 293.168 322.826 292.595 322.437L235.655 284.926C234.267 283.978 233.207 282.623 232.62 281.046C232.034 279.47 231.95 277.749 232.38 276.124Z" fill="#84765B"/>
<path d="M10.2615 366.386C59.1967 370.999 104.615 349.084 118.38 341.679C121.555 339.919 125.24 339.319 128.809 339.981C136.972 341.244 144.598 344.845 150.763 350.348C156.929 355.852 161.37 363.023 163.554 370.998C171.559 398.373 171.255 443.838 163.554 462.776C162.741 464.814 161.292 466.536 159.424 467.684C157.556 468.833 155.369 469.344 153.185 469.148C47.068 458.89 11.8362 405.659 0.739332 379.255C0.106959 377.766 -0.125595 376.137 0.0642548 374.53C0.254105 372.924 0.861069 371.394 1.82301 370.094C2.78495 368.793 4.07073 367.765 5.55073 367.115C7.03074 366.465 8.65422 366.215 10.2615 366.386Z" fill="#5E9A33"/>
</svg>
