<svg width="525" height="210" viewBox="0 0 525 210" fill="none" xmlns="http://www.w3.org/2000/svg">
<g style="mix-blend-mode:multiply">
<path d="M144.838 64.7818C148.168 67.4818 148.798 71.2618 145.558 74.2318C142.498 77.1118 139.258 76.6618 136.558 73.2418C134.128 70.0918 131.158 66.7618 128.098 63.5218V75.3118C128.098 86.3818 116.578 88.3618 103.708 82.3318C101.908 81.5218 101.368 79.9918 101.908 78.1918C102.448 76.3918 103.618 75.6718 105.778 75.9418C113.248 76.7518 114.418 76.2118 114.418 71.7118V65.1418C111.718 67.6618 108.748 69.9118 105.868 71.6218C103.348 73.0618 101.008 73.1518 99.2975 71.6218C99.5675 73.8718 98.4875 75.2218 96.0575 75.9418C93.0875 76.8418 91.0175 75.7618 90.3875 72.7918C89.2175 67.4818 87.5975 62.3518 86.2475 58.4818C85.6175 56.6818 86.2475 55.5118 87.5975 54.7918C89.0375 54.1618 90.2075 54.7018 91.2875 56.0518C93.3575 58.6618 95.5175 62.0818 97.2275 65.7718C97.4975 63.7918 98.9375 62.0818 101.098 61.5418C105.148 60.4618 109.828 58.8418 114.418 56.5918V38.9518H99.4775C97.1375 38.9518 95.7875 37.6018 95.7875 35.2618C95.7875 32.9218 97.1375 31.5718 99.4775 31.5718H121.708L122.788 27.4318H112.258C110.908 30.3118 108.208 31.3018 104.698 30.5818C101.008 29.8618 99.9275 27.6118 100.918 24.1018C102.718 17.4418 104.698 9.07179 105.688 4.84179C106.408 1.78179 109.648 0.611788 112.708 1.06179C116.038 1.60179 118.018 3.67179 117.658 6.55179H126.118C127.648 4.12179 130.618 3.04179 133.858 3.67179C137.368 4.39179 139.708 7.00179 138.718 11.8618C137.818 16.1818 135.568 24.7318 133.498 31.5718H143.218C145.558 31.5718 146.908 32.9218 146.908 35.2618C146.908 37.6018 145.558 38.9518 143.218 38.9518H128.098V52.7218C130.078 49.8418 131.878 46.6918 133.318 43.6318C134.938 40.4818 138.268 39.4918 141.238 41.4718C144.388 43.5418 144.748 46.6918 142.228 49.3018C139.258 52.4518 136.018 55.1518 133.138 57.0418C137.548 59.3818 141.418 61.9918 144.838 64.7818ZM71.6675 44.3518H73.3775C75.8975 40.5718 78.1475 36.8818 80.1275 33.2818C77.8775 34.1818 75.5375 34.9918 73.2875 35.5318C69.2375 36.5218 66.1775 34.3618 65.9075 30.1318C65.6375 26.2618 67.7975 23.7418 71.4875 23.9218C73.5575 17.3518 74.8175 11.5918 75.6275 6.19179C76.2575 1.96179 79.9475 0.521789 83.7275 1.24179C87.5975 1.96179 89.3075 5.20179 88.1375 8.80179C86.5175 13.6618 83.0975 19.6918 79.5875 24.3718C81.2075 24.4618 82.9175 24.4618 84.5375 24.5518C85.7075 21.9418 86.7875 19.5118 87.6875 17.0818C89.1275 13.1218 92.7275 12.2218 95.9675 13.5718C99.5675 15.1018 101.098 18.2518 99.0275 21.9418C94.8875 29.3218 89.4875 36.8818 82.4675 43.9018C84.7175 43.8118 86.8775 43.5418 89.0375 43.2718C88.8575 42.7318 88.7675 42.1018 88.5875 41.5618C88.0475 39.4918 88.6775 38.1418 90.2075 37.5118C91.8275 36.8818 92.9975 37.5118 94.1675 39.0418C96.4175 42.0118 98.4875 45.8818 100.018 49.7518C101.278 52.8118 100.198 55.4218 96.8675 56.3218C93.7175 57.1318 91.6475 55.7818 91.1075 52.8118L90.3875 49.3918C85.1675 52.1818 79.5875 54.2518 73.3775 56.0518C69.0575 57.3118 65.9975 55.3318 65.5475 51.1918C65.0075 47.2318 66.9875 44.4418 71.6675 44.3518ZM114.328 20.2318H124.678C125.128 18.1618 125.578 16.3618 125.848 14.9218C126.028 14.2018 125.578 13.7518 124.858 13.7518H116.038C115.498 15.9118 114.958 18.0718 114.328 20.2318ZM110.458 55.7818C107.578 57.5818 104.248 56.6818 103.168 53.8018C102.088 50.9218 100.738 47.5918 99.4775 45.1618C98.5775 43.4518 98.9375 42.0118 100.198 40.9318C101.458 39.8518 103.078 40.0318 104.518 41.2018C107.488 43.6318 109.918 45.9718 111.898 48.8518C113.698 51.4618 113.068 54.1618 110.458 55.7818ZM84.0875 58.8418C86.1575 63.7018 88.1375 70.2718 89.1275 75.9418C89.7575 79.4518 88.4975 81.4318 84.9875 81.7918C81.4775 82.1518 79.3175 80.7118 79.3175 76.9318C79.3175 71.0818 78.9575 64.6018 78.3275 60.1018C78.1475 58.0318 78.9575 56.8618 80.6675 56.5018C82.3775 56.1418 83.3675 57.1318 84.0875 58.8418ZM73.0175 57.7618C74.8175 57.8518 75.8075 59.2018 76.0775 61.3618C76.9775 67.5718 77.2475 73.6918 76.9775 79.3618C76.7975 83.5018 73.7375 85.3018 69.6875 84.3118C65.9075 83.4118 64.7375 80.8018 65.9075 77.3818C67.7975 72.0718 68.8775 66.7618 69.6875 60.7318C69.9575 58.6618 71.3975 57.6718 73.0175 57.7618Z" fill="#594A39"/>
<path d="M249.328 58.9318C253.108 79.5418 249.598 82.6018 234.478 83.0518C219.717 83.5018 207.027 83.5918 195.688 83.1418C180.478 82.5118 177.598 80.0818 177.598 67.5718V39.1318C176.158 40.1218 174.808 40.9318 173.458 41.6518C171.388 42.7318 169.408 42.4618 168.238 40.5718C167.068 38.7718 167.428 37.0618 169.318 35.3518C177.238 28.3318 184.348 16.9018 188.668 5.29179C190.467 0.521789 194.608 -0.648212 199.198 1.15179C203.158 2.68179 204.147 6.10179 202.887 9.97179H213.148C216.028 7.45179 220.527 6.91179 223.857 8.62179C227.548 10.5118 229.168 14.2018 226.018 19.3318C224.577 21.6718 222.598 24.1018 220.438 26.2618H235.018C238.798 26.2618 240.868 28.3318 240.868 32.1118V50.2918C240.868 54.0718 238.798 56.1418 235.018 56.1418H191.818V62.3518C191.818 69.1918 192.628 70.0018 199.738 70.3618C210.358 70.9018 223.498 70.8118 233.308 70.3618C240.958 70.0018 241.948 68.8318 241.948 59.5618C241.948 57.0418 243.298 55.6918 245.278 55.6918C247.438 55.6918 248.878 56.6818 249.328 58.9318ZM212.428 19.5118C212.697 18.7018 212.247 18.2518 211.527 18.2518H198.387C196.587 20.9518 194.428 23.7418 192.088 26.2618H209.458C210.718 23.9218 211.618 21.8518 212.428 19.5118ZM202.887 48.0418V34.3618H192.897C192.268 34.3618 191.818 34.8118 191.818 35.4418V48.0418H202.887ZM227.548 35.4418C227.548 34.8118 227.098 34.3618 226.467 34.3618H216.387V48.0418H226.108C227.278 48.0418 227.548 47.6818 227.548 46.5118V35.4418Z" fill="#594A39"/>
<path d="M298.107 40.7518C296.757 42.1018 295.318 43.4518 293.698 44.7118V75.8518C293.698 84.7618 285.057 88.3618 272.997 83.3218C271.197 82.5118 270.747 80.8918 271.107 79.0918C271.467 77.2918 272.457 76.5718 274.527 76.5718C279.207 76.6618 280.378 76.5718 280.378 73.6018V53.5318L280.107 53.7118C276.327 55.8718 272.997 54.5218 271.557 50.3818C270.207 46.4218 271.737 43.4518 275.697 42.1918C277.227 41.7418 278.758 41.2018 280.378 40.6618V27.3418H274.798C272.548 27.3418 271.288 26.0818 271.288 23.8318C271.288 21.5818 272.548 20.3218 274.798 20.3218H280.378V6.64179C280.378 2.68179 282.808 0.701787 287.038 0.701787C291.268 0.701787 293.698 2.68179 293.698 6.64179V20.3218H298.917C301.167 20.3218 302.428 21.5818 302.428 23.8318C302.428 26.0818 301.167 27.3418 298.917 27.3418H293.698V35.5318L294.598 35.1718C296.038 34.5418 297.387 34.4518 298.197 35.1718C298.738 32.3818 300.717 30.8518 303.958 30.8518H307.557C306.837 30.2218 306.208 29.2318 305.848 27.9718C305.038 25.2718 303.868 22.4818 302.518 19.4218C301.798 17.7118 302.247 16.3618 303.598 15.5518C304.948 14.7418 306.298 14.9218 307.557 16.0918C309.988 18.1618 312.418 20.7718 314.398 23.5618C316.468 26.5318 315.928 29.2318 313.048 30.8518H322.767C321.507 30.3118 320.518 28.9618 320.158 26.9818C319.527 24.1918 318.717 20.9518 317.637 17.8018C317.188 16.4518 317.367 15.4618 317.997 14.7418C311.967 14.8318 306.027 14.8318 300.988 14.4718C298.917 14.2918 297.658 13.2118 297.658 11.1418C297.658 9.07179 298.738 8.17179 300.717 7.99179C313.497 7.09178 328.708 4.66179 339.508 1.51179C342.928 0.521789 345.988 1.78179 346.888 5.29179C347.878 8.98179 346.168 11.9518 342.298 12.6718L340.948 12.9418C341.758 12.9418 342.568 13.1218 343.467 13.3918C347.068 14.5618 347.337 17.7118 346.168 20.2318C344.277 24.4618 342.028 27.9718 339.418 30.8518H343.378C347.158 30.8518 349.228 32.9218 349.228 36.7018V41.5618C349.228 45.4318 346.707 47.0518 342.747 47.0518C338.788 47.0518 336.538 45.1618 336.538 41.5618V39.3118C336.538 38.6818 336.087 38.2318 335.457 38.2318H311.607C310.978 38.2318 310.527 38.6818 310.527 39.3118V40.9318C310.527 44.5318 308.188 46.3318 304.227 46.3318C300.267 46.3318 298.107 44.5318 298.107 40.9318V40.7518ZM329.068 23.6518C330.777 26.8918 329.697 29.4118 326.457 30.6718C326.277 30.7618 326.098 30.7618 325.918 30.8518H333.027C332.848 30.4018 332.848 29.7718 333.117 29.0518C334.288 25.7218 335.098 22.3018 336.087 17.1718C336.448 15.1018 337.527 13.7518 339.057 13.2118C334.647 13.7518 328.978 14.2918 322.858 14.5618C323.038 14.6518 323.128 14.8318 323.307 15.0118C325.557 17.6218 327.358 20.4118 329.068 23.6518ZM345.177 72.0718C349.857 72.9718 351.748 76.0318 350.578 80.8918C349.408 85.5718 345.808 86.4718 341.578 85.4818C334.828 83.9518 328.978 80.8018 323.938 76.6618C316.648 81.1618 308.008 84.4018 298.738 85.5718C296.307 85.8418 294.958 85.0318 294.508 82.8718C294.148 80.8918 295.048 79.5418 297.387 78.8218C305.128 76.3918 311.607 73.1518 316.917 69.4618C313.048 64.6918 310.077 59.2918 308.098 53.8918H305.217C302.878 53.8918 301.527 52.5418 301.527 50.2018C301.527 47.8618 302.878 46.5118 305.217 46.5118H336.988C342.838 46.5118 344.908 50.5618 342.658 55.8718C340.677 60.5518 337.617 64.8718 333.927 68.7418C337.257 70.0918 340.947 71.1718 345.177 72.0718ZM328.708 53.8918H315.208C317.728 57.4918 320.607 60.5518 324.117 63.2518C326.457 60.6418 328.348 58.0318 329.608 55.2418C329.968 54.4318 329.518 53.8918 328.708 53.8918Z" fill="#594A39"/>
<path d="M449.577 14.4718C452.097 14.4718 453.538 15.9118 453.538 18.4318C453.538 20.9518 452.097 22.3918 449.577 22.3918H403.408C400.888 22.3918 399.447 20.9518 399.447 18.4318C399.447 15.9118 400.888 14.4718 403.408 14.4718H418.077V6.46179C418.077 3.13179 420.777 0.611788 425.818 0.611788C430.768 0.611788 433.557 3.04179 433.557 6.46179V14.4718H449.577ZM400.707 10.5118C399.717 14.7418 398.277 19.0618 396.477 23.3818V79.6318C396.477 83.7718 394.047 85.5718 389.637 85.5718C385.227 85.5718 382.797 83.7718 382.797 79.6318V45.5218C381.447 47.1418 380.008 48.5818 378.568 49.9318C376.858 51.4618 375.147 51.7318 373.887 50.6518C372.357 49.2118 372.268 47.6818 373.348 45.7918C379.378 35.3518 384.147 21.1318 386.397 7.72179C387.297 2.32179 390.358 0.431785 395.217 1.33179C399.987 2.23179 401.878 5.29179 400.707 10.5118ZM445.617 27.7918C448.137 27.7918 449.577 29.2318 449.577 31.7518C449.577 34.2718 448.137 35.7118 445.617 35.7118H406.107C403.587 35.7118 402.147 34.2718 402.147 31.7518C402.147 29.2318 403.587 27.7918 406.107 27.7918H445.617ZM445.438 40.0318C447.957 40.0318 449.397 41.4718 449.397 43.9918C449.397 46.5118 447.957 47.9518 445.438 47.9518H406.378C403.858 47.9518 402.417 46.5118 402.417 43.9918C402.417 41.4718 403.858 40.0318 406.378 40.0318H445.438ZM442.827 53.2618C446.607 53.2618 448.677 55.3318 448.677 59.1118V79.7218C448.677 83.7718 446.158 85.5718 441.568 85.5718C436.978 85.5718 434.457 83.7718 434.457 79.7218V78.3718H417.267V79.7218C417.267 83.7718 414.747 85.5718 410.158 85.5718C405.568 85.5718 403.047 83.7718 403.047 79.7218V59.1118C403.047 55.3318 405.117 53.2618 408.897 53.2618H442.827ZM417.267 70.8118H434.457V61.9018C434.457 61.2718 434.008 60.8218 433.378 60.8218H418.348C417.717 60.8218 417.267 61.2718 417.267 61.9018V70.8118Z" fill="#594A39"/>
</g>
<g style="mix-blend-mode:multiply">
<path d="M14.5439 175.182C13.3039 175.102 12.0639 174.642 10.8239 173.802C9.58392 173.002 8.44392 172.242 7.40392 171.522C6.72392 170.842 6.20392 170.122 5.84392 169.362C5.48392 168.562 5.18392 167.522 4.94392 166.242C4.78392 165.482 4.78392 164.482 4.94392 163.242C5.10392 162.002 5.36392 160.762 5.72392 159.522C6.08392 158.242 6.42392 157.242 6.74392 156.522C7.22392 155.402 7.82392 154.202 8.54392 152.922C9.30392 151.602 10.0439 150.362 10.7639 149.202C11.5239 148.002 12.1239 147.042 12.5639 146.322C12.8439 146.042 12.9639 145.902 12.9239 145.902C12.9239 145.862 12.9239 145.842 12.9239 145.842C12.9239 145.642 13.1239 145.142 13.5239 144.342C13.9639 143.502 14.3439 142.762 14.6639 142.122C15.2639 141.482 15.6039 140.962 15.6839 140.562C15.7639 140.162 15.7039 139.842 15.5039 139.602C15.4239 139.442 15.5839 139.102 15.9839 138.582C16.4239 138.062 17.0239 137.482 17.7839 136.842C18.5439 136.162 19.3839 135.562 20.3039 135.042C21.2639 134.282 22.1839 133.882 23.0639 133.842C23.9839 133.762 24.5239 133.942 24.6839 134.382C24.6839 134.502 24.9039 134.542 25.3439 134.502C25.8239 134.422 26.3639 134.322 26.9639 134.202C27.6039 134.042 28.1639 133.922 28.6439 133.842C28.8439 133.602 29.3039 133.422 30.0239 133.302C30.7839 133.142 31.6639 133.002 32.6639 132.882C33.1839 132.922 33.7639 132.942 34.4039 132.942C35.0439 132.902 35.6039 132.862 36.0839 132.822C36.6039 132.782 36.8639 132.762 36.8639 132.762C37.1439 132.682 37.5439 132.862 38.0639 133.302C38.6239 133.702 39.0639 134.262 39.3839 134.982C39.6639 135.702 39.4239 136.322 38.6639 136.842C37.9039 137.362 36.7039 137.722 35.0639 137.922C33.8639 138.082 32.9239 138.222 32.2439 138.342C31.6039 138.422 30.9039 138.542 30.1439 138.702C29.4239 138.822 28.3639 139.042 26.9639 139.362C25.9639 139.562 25.1239 139.722 24.4439 139.842C23.7639 139.962 23.1639 140.202 22.6439 140.562C22.1639 140.922 21.6239 141.562 21.0239 142.482C20.7439 142.682 20.3839 143.202 19.9439 144.042C19.5039 144.882 19.0639 145.722 18.6239 146.562C17.5039 148.122 16.6639 149.282 16.1039 150.042C15.5839 150.762 15.4039 151.222 15.5639 151.422C15.5639 151.422 15.8439 151.482 16.4039 151.602C16.9639 151.722 17.3239 151.782 17.4839 151.782C17.8839 151.582 18.3639 151.442 18.9239 151.362C19.5239 151.282 20.0039 151.202 20.3639 151.122C22.8439 150.482 24.6639 150.022 25.8239 149.742C27.0239 149.422 27.8639 149.202 28.3439 149.082C28.8639 148.962 29.3239 148.882 29.7239 148.842C30.2839 148.402 30.8439 148.442 31.4039 148.962C32.0039 149.442 32.4239 150.022 32.6639 150.702C32.9439 151.502 32.9439 152.122 32.6639 152.562C32.3839 153.002 31.7639 153.362 30.8039 153.642C29.8839 153.922 28.5639 154.262 26.8439 154.662C25.1239 155.022 22.9639 155.562 20.3639 156.282C18.1639 156.922 16.3839 157.302 15.0239 157.422C13.6639 157.542 13.0239 157.202 13.1039 156.402C12.8239 156.242 12.5039 156.402 12.1439 156.882C11.8239 157.322 11.5239 157.942 11.2439 158.742C10.9639 159.542 10.7039 160.402 10.4639 161.322C10.2639 162.242 10.1439 163.102 10.1039 163.902C10.0639 164.702 10.1239 165.322 10.2839 165.762C10.6039 166.682 11.1039 167.482 11.7839 168.162C12.5039 168.802 13.5439 169.322 14.9039 169.722C15.7039 169.762 16.4839 169.822 17.2439 169.902C18.0039 169.982 18.8639 169.822 19.8239 169.422C22.1839 169.022 23.8239 168.602 24.7439 168.162C25.6639 167.722 26.2239 167.422 26.4239 167.262C26.7439 167.102 26.9439 166.942 27.0239 166.782C27.1439 166.622 27.3039 166.542 27.5039 166.542C27.3839 166.742 27.4239 166.742 27.6239 166.542C27.8239 166.342 28.1439 166.062 28.5839 165.702C29.4239 164.982 30.2639 164.542 31.1039 164.382C31.9439 164.222 32.6439 164.222 33.2039 164.382C33.7639 164.502 34.0639 164.662 34.1039 164.862C34.3439 165.262 34.2239 165.902 33.7439 166.782C33.2639 167.622 32.5239 168.522 31.5239 169.482C30.5639 170.442 29.4239 171.302 28.1039 172.062C25.9839 173.182 23.6839 173.962 21.2039 174.402C18.7239 174.882 16.5039 175.142 14.5439 175.182ZM50.6124 176.742C49.8924 176.542 49.3124 176.362 48.8724 176.202C48.4324 176.082 48.2124 176.022 48.2124 176.022C48.2924 175.822 48.2524 175.642 48.0924 175.482C47.9724 175.322 47.6924 175.222 47.2524 175.182C46.6524 174.782 46.0324 174.222 45.3924 173.502C44.7524 172.782 44.1924 172.042 43.7124 171.282C43.2324 170.522 42.9124 169.962 42.7524 169.602C42.4724 169.002 42.4924 168.642 42.8124 168.522C43.1324 168.362 43.5124 168.182 43.9524 167.982C44.3924 167.662 44.8524 167.422 45.3324 167.262C45.8524 167.102 46.2724 167.362 46.5924 168.042C47.1124 168.962 47.9124 169.742 48.9924 170.382C50.1124 171.022 51.3724 171.402 52.7724 171.522C54.2124 171.642 55.6524 171.402 57.0924 170.802C58.0524 170.362 58.5724 169.762 58.6524 169.002C58.7324 168.202 58.4324 167.282 57.7524 166.242C57.6324 165.922 57.4524 165.662 57.2124 165.462C57.0124 165.262 56.6924 165.002 56.2524 164.682C55.8524 164.362 55.2724 163.842 54.5124 163.122C53.9124 162.842 53.3524 162.582 52.8324 162.342C52.3524 162.102 51.8324 161.842 51.2724 161.562C50.6324 161.242 49.9124 160.802 49.1124 160.242C48.3124 159.642 47.5724 159.002 46.8924 158.322C46.2124 157.602 45.6924 156.922 45.3324 156.282C44.6924 155.682 44.2924 154.862 44.1324 153.822C43.9724 152.742 43.9924 151.602 44.1924 150.402C44.4324 149.202 44.8124 148.122 45.3324 147.162C45.5724 146.602 46.0124 145.882 46.6524 145.002C47.2924 144.082 48.0124 143.142 48.8124 142.182C49.6124 141.222 50.3724 140.362 51.0924 139.602C51.8524 138.802 52.4524 138.262 52.8924 137.982C53.2124 137.662 53.5524 137.342 53.9124 137.022C54.2724 136.662 54.4524 136.482 54.4524 136.482C54.4924 136.282 54.5524 136.182 54.6324 136.182C54.7524 136.182 54.8124 136.182 54.8124 136.182C55.0124 136.062 55.4524 135.862 56.1324 135.582C56.8124 135.302 57.5524 134.782 58.3524 134.022C61.0324 132.742 63.3124 131.882 65.1924 131.442C67.0724 130.962 68.5524 130.722 69.6324 130.722C70.6324 130.762 71.6124 131.042 72.5724 131.562C73.5324 132.042 74.3524 132.662 75.0324 133.422C75.7524 134.182 76.1724 135.042 76.2924 136.002C76.5724 136.962 76.4324 138.122 75.8724 139.482C75.3524 140.802 74.6124 142.062 73.6524 143.262C72.7324 144.422 71.7724 145.282 70.7724 145.842C69.6524 146.322 68.6924 146.382 67.8924 146.022C67.1324 145.662 66.7724 145.102 66.8124 144.342C66.8124 144.022 66.9124 143.642 67.1124 143.202C67.3524 142.762 67.9724 141.982 68.9724 140.862C70.2524 138.982 70.9324 137.642 71.0124 136.842C71.0924 136.042 70.7324 135.582 69.9324 135.462C69.6924 135.382 69.2324 135.402 68.5524 135.522C67.8724 135.642 67.1324 135.802 66.3324 136.002C65.5724 136.162 64.8924 136.342 64.2924 136.542C63.7324 136.742 63.4524 136.882 63.4524 136.962C63.4524 136.962 63.4524 137.022 63.4524 137.142C63.4524 137.262 63.3724 137.302 63.2124 137.262C63.1324 137.262 62.8524 137.402 62.3724 137.682C61.9324 137.922 61.3924 138.242 60.7524 138.642C60.1124 139.042 59.4724 139.462 58.8324 139.902C58.2324 140.302 57.7124 140.662 57.2724 140.982C56.8324 141.302 56.5924 141.502 56.5524 141.582C56.4724 142.022 56.0124 142.422 55.1724 142.782C54.3724 143.262 53.6724 143.942 53.0724 144.822C52.4724 145.702 51.7724 146.822 50.9724 148.182C50.2924 149.102 49.8124 150.102 49.5324 151.182C49.2524 152.222 49.2524 153.062 49.5324 153.702C49.7324 154.342 50.2724 154.982 51.1524 155.622C52.0724 156.222 53.3124 156.982 54.8724 157.902C56.2324 158.662 57.5124 159.462 58.7124 160.302C59.9124 161.142 60.9324 161.962 61.7724 162.762C62.6124 163.522 63.1524 164.162 63.3924 164.682C63.8724 165.362 64.1524 166.142 64.2324 167.022C64.3524 167.902 64.3524 168.762 64.2324 169.602C64.1524 170.402 64.0324 171.062 63.8724 171.582C63.5924 172.222 63.1524 172.902 62.5524 173.622C61.9924 174.342 61.4724 174.682 60.9924 174.642C60.5524 174.762 60.2124 174.902 59.9724 175.062C59.7724 175.222 59.5324 175.362 59.2524 175.482C58.9724 175.642 58.3124 175.822 57.2724 176.022C56.2324 176.262 55.0924 176.442 53.8524 176.562C52.6124 176.722 51.5324 176.782 50.6124 176.742ZM80.4394 176.022C79.8794 175.662 79.2594 175.002 78.5794 174.042C77.9394 173.122 77.3794 171.982 76.8994 170.622C76.4594 169.262 76.2594 167.822 76.2994 166.302C76.2994 164.702 76.4394 162.822 76.7194 160.662C77.0394 158.462 77.5594 156.142 78.2794 153.702C78.7594 151.942 79.2994 150.282 79.8994 148.722C80.4994 147.162 81.0994 145.742 81.6994 144.462C82.3394 143.182 82.8994 142.082 83.3794 141.162C84.5394 139.122 85.6994 137.462 86.8594 136.182C88.0194 134.862 89.0994 133.902 90.0994 133.302C90.5794 133.022 91.2394 132.722 92.0794 132.402C92.9594 132.082 93.9194 131.842 94.9594 131.682C95.9994 131.482 97.0194 131.482 98.0194 131.682C99.0594 131.882 100.059 132.182 101.019 132.582C102.019 132.982 102.679 133.322 102.999 133.602C103.559 134.322 104.079 135.022 104.559 135.702C105.079 136.342 105.339 137.062 105.339 137.862C105.379 138.742 105.179 139.462 104.739 140.022C104.299 140.582 103.779 140.902 103.179 140.982C102.579 141.062 102.039 140.842 101.559 140.322C101.359 139.562 101.059 138.982 100.659 138.582C100.259 138.142 99.6194 137.742 98.7394 137.382C98.1794 137.142 97.5594 136.982 96.8794 136.902C96.2394 136.782 95.5794 136.802 94.8994 136.962C94.2194 137.082 93.5594 137.402 92.9194 137.922C92.4394 138.282 91.8994 138.802 91.2994 139.482C90.6994 140.122 90.0994 140.842 89.4994 141.642C88.9394 142.442 88.4394 143.282 87.9994 144.162C86.9994 146.082 86.1194 148.002 85.3594 149.922C84.6394 151.842 83.9994 153.862 83.4394 155.982C83.2794 156.662 83.0994 157.422 82.8994 158.262C82.6994 159.062 82.5194 159.942 82.3594 160.902C82.1994 161.822 82.0594 162.882 81.9394 164.082C81.7394 166.042 81.8194 167.702 82.1794 169.062C82.5394 170.382 83.1994 171.222 84.1594 171.582C85.1594 171.942 86.4394 171.662 87.9994 170.742C88.9594 170.422 89.8194 169.962 90.5794 169.362C91.3394 168.762 92.0594 168.042 92.7394 167.202C93.4194 166.362 94.1194 165.422 94.8394 164.382C95.6394 162.982 96.2394 161.742 96.6394 160.662C97.0794 159.582 97.2394 158.742 97.1194 158.142C97.0394 157.502 96.5994 157.202 95.7994 157.242C94.3194 157.242 93.1794 157.242 92.3794 157.242C91.5794 157.202 90.8194 157.082 90.0994 156.882C89.4594 156.522 89.1394 155.962 89.1394 155.202C89.1794 154.442 89.6994 153.742 90.6994 153.102C91.4194 152.742 92.3394 152.482 93.4594 152.322C94.5794 152.162 95.7394 152.142 96.9394 152.262C98.1794 152.342 99.2594 152.602 100.179 153.042C101.219 153.482 101.959 154.362 102.399 155.682C102.839 156.962 102.919 158.302 102.639 159.702C102.439 160.342 102.039 161.402 101.439 162.882C100.879 164.322 100.139 165.722 99.2194 167.082C98.6194 167.962 97.8794 168.922 96.9994 169.962C96.1194 170.962 95.0994 171.922 93.9394 172.842C92.7794 173.802 91.4794 174.642 90.0394 175.362C88.4394 176.122 86.7594 176.642 84.9994 176.922C83.2394 177.242 81.7194 176.942 80.4394 176.022ZM139.361 176.982C137.641 176.902 136.201 176.662 135.041 176.262C133.881 175.862 132.561 175.162 131.081 174.162C130.921 173.882 130.721 173.422 130.481 172.782C130.241 172.102 130.001 171.382 129.761 170.622C129.521 169.862 129.321 169.202 129.161 168.642C129.041 168.042 129.001 167.682 129.041 167.562C129.201 167.362 129.281 167.122 129.281 166.842C129.281 166.522 129.261 166.282 129.221 166.122C129.061 165.522 129.181 164.462 129.581 162.942C129.981 161.422 130.601 159.522 131.441 157.242C132.321 154.962 133.361 152.442 134.561 149.682C135.321 148.042 136.341 146.262 137.621 144.342C138.901 142.422 140.281 140.582 141.761 138.822C143.281 137.022 144.761 135.482 146.201 134.202C147.641 132.882 148.861 132.002 149.861 131.562C150.541 131.282 151.161 131.142 151.721 131.142C152.281 131.102 152.861 131.122 153.461 131.202C154.541 131.362 155.561 131.742 156.521 132.342C157.481 132.902 158.281 133.682 158.921 134.682C159.601 135.722 160.041 136.882 160.241 138.162C160.441 139.442 160.501 140.682 160.421 141.882C160.341 143.082 160.181 144.082 159.941 144.882C159.701 145.522 159.461 146.002 159.221 146.322C158.981 146.602 158.621 146.782 158.141 146.862C157.981 146.902 157.521 146.822 156.761 146.622C156.041 146.382 155.461 146.142 155.021 145.902C154.541 145.582 154.221 145.262 154.061 144.942C153.941 144.582 153.881 144.402 153.881 144.402C153.881 144.402 153.901 144.162 153.941 143.682C154.021 143.162 154.141 142.662 154.301 142.182C154.861 140.342 155.061 139.022 154.901 138.222C154.741 137.422 154.201 136.862 153.281 136.542C152.401 136.502 151.321 137.042 150.041 138.162C148.761 139.282 147.501 140.562 146.261 142.002C144.461 144.202 142.921 146.362 141.641 148.482C140.361 150.602 139.221 152.902 138.221 155.382C137.341 157.942 136.641 160.102 136.121 161.862C135.641 163.582 135.321 164.962 135.161 166.002C135.241 166.522 135.281 166.962 135.281 167.322C135.321 167.642 135.261 167.802 135.101 167.802C135.181 168.282 135.341 168.842 135.581 169.482C135.821 170.122 136.321 170.722 137.081 171.282C137.241 171.442 137.481 171.582 137.801 171.702C138.121 171.782 138.481 171.802 138.881 171.762C139.521 171.722 140.181 171.622 140.861 171.462C141.581 171.302 142.221 171.122 142.781 170.922C143.381 170.682 143.801 170.462 144.041 170.262C144.041 170.262 144.221 170.242 144.581 170.202C144.941 170.122 145.381 169.962 145.901 169.722C146.261 169.522 146.721 169.302 147.281 169.062C147.841 168.822 148.461 168.562 149.141 168.282C150.341 167.722 151.341 167.442 152.141 167.442C152.981 167.442 153.661 167.522 154.181 167.682C154.181 167.682 154.121 167.962 154.001 168.522C153.921 169.082 153.801 169.582 153.641 170.022C153.441 170.302 153.181 170.642 152.861 171.042C152.581 171.402 152.201 171.762 151.721 172.122C151.241 172.482 150.641 172.822 149.921 173.142C149.721 173.182 149.401 173.302 148.961 173.502C148.521 173.742 148.041 174.022 147.521 174.342C146.401 175.022 145.181 175.602 143.861 176.082C142.581 176.562 141.081 176.862 139.361 176.982ZM168.053 172.422C167.533 172.422 167.113 172.322 166.793 172.122C166.513 171.922 166.153 171.642 165.713 171.282C164.953 170.482 164.333 169.622 163.853 168.702C163.413 167.782 163.253 166.982 163.373 166.302C163.493 165.982 163.533 165.682 163.493 165.402C163.493 165.082 163.493 164.922 163.493 164.922C163.293 164.722 163.233 164.602 163.313 164.562C163.393 164.482 163.473 164.362 163.553 164.202C163.793 164.202 163.873 163.982 163.793 163.542C163.713 163.222 163.833 162.542 164.153 161.502C164.513 160.422 164.993 159.402 165.593 158.442C165.833 158.042 166.193 157.522 166.673 156.882C167.153 156.202 167.673 155.542 168.233 154.902C168.833 154.222 169.373 153.682 169.853 153.282C170.853 152.442 171.773 151.762 172.613 151.242C173.493 150.722 174.373 150.362 175.253 150.162C176.133 149.962 177.033 149.862 177.953 149.862C178.913 149.862 179.693 150.182 180.293 150.822C181.213 151.222 181.853 151.762 182.213 152.442C182.613 153.122 182.873 154.002 182.993 155.082C183.113 156.282 182.993 157.762 182.633 159.522C182.273 161.242 181.293 163.242 179.693 165.522C178.693 166.962 177.713 168.082 176.753 168.882C175.793 169.682 174.733 170.422 173.573 171.102C172.733 171.662 171.833 172.002 170.873 172.122C169.913 172.242 168.973 172.342 168.053 172.422ZM174.173 165.102C175.053 164.342 175.673 163.502 176.033 162.582C176.433 161.662 176.853 160.582 177.293 159.342C177.453 159.102 177.553 158.702 177.593 158.142C177.673 157.582 177.693 157.042 177.653 156.522C177.613 155.962 177.473 155.642 177.233 155.562C176.873 155.282 176.513 155.222 176.153 155.382C175.793 155.502 175.333 155.762 174.773 156.162C173.573 157.162 172.453 158.322 171.413 159.642C170.413 160.922 169.713 162.502 169.313 164.382C169.193 165.382 169.293 166.142 169.613 166.662C169.973 167.142 170.533 167.282 171.293 167.082C172.093 166.842 173.053 166.182 174.173 165.102ZM211.092 171.402C210.212 171.322 209.472 171.142 208.872 170.862C208.312 170.542 207.852 169.922 207.492 169.002C207.332 168.362 207.252 167.702 207.252 167.022C207.292 166.302 207.352 165.622 207.432 164.982C207.512 164.302 207.552 163.722 207.552 163.242C207.552 163.162 207.552 163.002 207.552 162.762C207.552 162.522 207.552 162.302 207.552 162.102C207.472 161.502 207.312 161.142 207.072 161.022C206.872 160.862 206.512 160.882 205.992 161.082C205.152 161.482 204.232 162.022 203.232 162.702C202.272 163.342 201.252 164.102 200.172 164.982C199.132 165.822 198.052 166.722 196.932 167.682C196.052 168.642 195.392 169.422 194.952 170.022C194.552 170.622 194.132 170.922 193.692 170.922C193.372 171.082 193.032 171.042 192.672 170.802C192.312 170.562 191.932 170.282 191.532 169.962C191.252 169.642 190.912 169.242 190.512 168.762C190.152 168.242 189.932 167.902 189.852 167.742C189.852 167.102 189.892 166.522 189.972 166.002C190.092 165.482 190.252 164.942 190.452 164.382C190.692 163.822 190.972 163.182 191.292 162.462C191.452 162.182 191.592 161.902 191.712 161.622C191.872 161.302 192.052 160.962 192.252 160.602C192.412 160.042 192.632 159.402 192.912 158.682C193.232 157.962 193.532 157.282 193.812 156.642C194.252 155.602 194.592 154.702 194.832 153.942C195.072 153.182 195.272 152.362 195.432 151.482C195.392 151.402 195.412 151.282 195.492 151.122C195.572 150.962 195.692 150.862 195.852 150.822H195.912H195.972C196.252 150.622 196.772 150.602 197.532 150.762C198.332 150.882 198.932 151.102 199.332 151.422C200.172 152.142 200.572 153.082 200.532 154.242C200.492 155.402 199.892 156.922 198.732 158.802C198.452 159.442 198.152 160.042 197.832 160.602C197.552 161.122 197.412 161.482 197.412 161.682C197.412 161.682 197.572 161.562 197.892 161.322C198.212 161.082 198.592 160.802 199.032 160.482C199.472 160.122 199.852 159.842 200.172 159.642C200.372 159.442 200.812 159.082 201.492 158.562C202.172 158.002 202.912 157.422 203.712 156.822C204.512 156.222 205.152 155.762 205.632 155.442C206.072 155.122 206.632 154.802 207.312 154.482C207.992 154.122 208.412 153.942 208.572 153.942C208.972 153.942 209.452 154.082 210.012 154.362C210.612 154.642 211.152 154.982 211.632 155.382C212.152 155.742 212.452 156.082 212.532 156.402C212.532 156.562 212.512 156.782 212.472 157.062C212.432 157.302 212.412 157.522 212.412 157.722C212.372 158.362 212.352 159.142 212.352 160.062C212.392 160.942 212.412 161.842 212.412 162.762C212.412 163.642 212.332 164.442 212.172 165.162C212.172 165.162 212.192 165.202 212.232 165.282C212.272 165.322 212.312 165.402 212.352 165.522C212.312 165.562 212.292 165.642 212.292 165.762C212.332 165.842 212.352 165.882 212.352 165.882C212.432 166.162 212.512 166.442 212.592 166.722C212.712 167.002 212.852 167.322 213.012 167.682C213.172 168.002 213.352 168.422 213.552 168.942C213.512 169.462 213.212 169.982 212.652 170.502C212.132 170.982 211.612 171.282 211.092 171.402ZM228.491 173.202C227.211 173.202 226.031 172.922 224.951 172.362C223.911 171.762 223.071 171.042 222.431 170.202C221.791 169.322 221.471 168.482 221.471 167.682C221.471 167.322 221.531 167.062 221.651 166.902C221.811 166.742 222.031 166.662 222.311 166.662C222.511 166.702 222.751 166.802 223.031 166.962C223.311 167.122 223.591 167.302 223.871 167.502C224.511 167.942 225.211 168.222 225.971 168.342C226.731 168.462 227.411 168.422 228.011 168.222C228.611 167.982 228.951 167.622 229.031 167.142C229.031 166.982 228.951 166.642 228.791 166.122C228.631 165.602 228.431 165.102 228.191 164.622C227.191 163.142 226.571 161.742 226.331 160.422C226.091 159.062 225.931 157.702 225.851 156.342C225.851 155.782 226.111 155.162 226.631 154.482C227.151 153.762 227.791 153.062 228.551 152.382C229.391 151.662 230.311 150.982 231.311 150.342C232.351 149.702 233.371 149.162 234.371 148.722C235.371 148.282 236.211 148.022 236.891 147.942C237.611 147.942 238.371 147.982 239.171 148.062C240.011 148.102 240.571 148.242 240.851 148.482C241.411 148.922 241.931 149.642 242.411 150.642C242.891 151.642 243.131 152.482 243.131 153.162C243.131 153.482 242.951 153.882 242.591 154.362C242.271 154.802 241.971 155.302 241.691 155.862C241.531 156.142 241.391 156.442 241.271 156.762C241.151 157.082 241.011 157.402 240.851 157.722C240.611 158.282 240.171 158.522 239.531 158.442C238.931 158.322 238.371 158.002 237.851 157.482C237.331 156.922 237.071 156.282 237.071 155.562C237.071 154.962 237.251 154.442 237.611 154.002C237.971 153.562 238.151 153.262 238.151 153.102C238.151 153.022 238.111 152.962 238.031 152.922C237.951 152.882 237.811 152.862 237.611 152.862C237.331 152.862 236.871 152.982 236.231 153.222C235.631 153.422 234.991 153.722 234.311 154.122C233.631 154.522 233.011 155.002 232.451 155.562C232.051 156.002 231.711 156.482 231.431 157.002C231.191 157.482 231.071 158.002 231.071 158.562C231.071 159.122 231.171 159.782 231.371 160.542C231.611 161.262 231.871 161.862 232.151 162.342C232.231 162.422 232.351 162.642 232.511 163.002C232.711 163.322 232.931 163.722 233.171 164.202C234.651 167.242 234.891 169.502 233.891 170.982C232.931 172.462 231.131 173.202 228.491 173.202ZM263.207 173.202C262.927 173.362 262.547 173.302 262.067 173.022C261.627 172.742 261.187 172.322 260.747 171.762C260.467 171.282 260.247 170.802 260.087 170.322C259.967 169.802 259.907 169.042 259.907 168.042C259.947 167.242 259.947 166.702 259.907 166.422C259.907 166.102 259.727 166.082 259.367 166.362C259.047 166.602 258.387 167.202 257.387 168.162C256.387 169.162 255.427 170.022 254.507 170.742C253.627 171.422 252.907 171.742 252.347 171.702C252.067 171.702 251.687 171.522 251.207 171.162C250.727 170.802 250.267 170.362 249.827 169.842C249.387 169.282 249.067 168.762 248.867 168.282C248.627 167.322 248.607 166.082 248.807 164.562C249.047 163.042 249.427 161.462 249.947 159.822C250.467 158.142 251.047 156.582 251.687 155.142C252.367 153.662 253.027 152.482 253.667 151.602C254.347 150.682 254.927 150.242 255.407 150.282C256.087 150.362 256.667 150.702 257.147 151.302C257.667 151.862 258.067 152.482 258.347 153.162C258.507 153.442 258.567 153.682 258.527 153.882C258.527 154.082 258.367 154.322 258.047 154.602C257.687 155.082 257.247 155.782 256.727 156.702C256.247 157.582 255.747 158.542 255.227 159.582C254.747 160.622 254.307 161.622 253.907 162.582C253.547 163.502 253.287 164.262 253.127 164.862C252.967 165.462 252.967 165.762 253.127 165.762C253.687 165.762 254.207 165.622 254.687 165.342C255.167 165.022 255.767 164.522 256.487 163.842C257.327 163.002 258.067 162.162 258.707 161.322C259.347 160.442 260.007 159.442 260.687 158.322C261.207 157.522 261.747 156.642 262.307 155.682C262.907 154.722 263.287 154.042 263.447 153.642C264.007 152.602 264.427 151.822 264.707 151.302C264.987 150.782 265.327 150.462 265.727 150.342C265.927 150.342 266.207 150.342 266.567 150.342C266.927 150.342 267.107 150.342 267.107 150.342C267.347 150.382 267.627 150.562 267.947 150.882C268.267 151.042 268.587 151.262 268.907 151.542C269.267 151.822 269.447 152.062 269.447 152.262C269.287 152.662 269.027 153.262 268.667 154.062C268.347 154.822 268.107 155.382 267.947 155.742C267.187 157.462 266.447 159.162 265.727 160.842C265.047 162.482 264.547 164.162 264.227 165.882C264.147 166.442 264.127 167.102 264.167 167.862C264.247 168.582 264.367 169.102 264.527 169.422C264.647 169.662 264.787 169.942 264.947 170.262C265.147 170.542 265.367 170.782 265.607 170.982C265.967 171.222 265.947 171.522 265.547 171.882C265.187 172.242 264.727 172.562 264.167 172.842C263.647 173.082 263.327 173.202 263.207 173.202ZM278.754 170.862C277.994 170.542 277.374 170.062 276.894 169.422C276.454 168.742 276.234 167.922 276.234 166.962C276.234 166.562 276.314 165.882 276.474 164.922C276.634 163.962 276.854 162.882 277.134 161.682C277.414 160.482 277.694 159.362 277.974 158.322C278.374 157.602 278.634 156.882 278.754 156.162C278.914 155.442 278.994 155.002 278.994 154.842C279.074 154.362 279.214 153.722 279.414 152.922C279.614 152.122 279.814 151.402 280.014 150.762C280.254 150.082 280.414 149.702 280.494 149.622C280.694 149.422 281.034 149.302 281.514 149.262C281.994 149.222 282.474 149.282 282.954 149.442C283.434 149.562 283.754 149.822 283.914 150.222C284.354 150.702 284.594 151.422 284.634 152.382C284.714 153.342 284.534 154.462 284.094 155.742C283.734 156.542 283.374 157.482 283.014 158.562C282.654 159.642 282.334 160.642 282.054 161.562C281.814 162.442 281.674 163.042 281.634 163.362L279.474 163.302C280.154 162.662 280.794 162.002 281.394 161.322C281.994 160.602 282.434 160.042 282.714 159.642C283.394 158.722 283.974 157.962 284.454 157.362C284.974 156.722 285.634 155.962 286.434 155.082C287.234 154.162 288.094 153.522 289.014 153.162C289.934 152.762 290.614 152.562 291.054 152.562C291.934 152.722 292.714 153.182 293.394 153.942C294.114 154.662 294.554 155.742 294.714 157.182C294.714 157.742 294.654 158.402 294.534 159.162C294.454 159.922 294.414 160.302 294.414 160.302C294.414 160.302 294.734 159.902 295.374 159.102C296.054 158.302 296.954 157.402 298.074 156.402C298.834 155.842 299.574 155.522 300.294 155.442C301.014 155.322 301.654 155.562 302.214 156.162C303.254 156.722 304.014 157.702 304.494 159.102C304.974 160.502 305.134 162.082 304.974 163.842C304.854 164.882 304.854 165.722 304.974 166.362C305.134 166.962 305.294 167.502 305.454 167.982C305.974 168.702 306.054 169.342 305.694 169.902C305.334 170.422 305.014 170.682 304.734 170.682C304.334 170.682 303.734 170.602 302.934 170.442C302.134 170.282 301.394 170.002 300.714 169.602C300.074 169.202 299.754 168.662 299.754 167.982V164.262C299.754 163.382 299.714 162.742 299.634 162.342C299.594 161.902 299.494 161.622 299.334 161.502C298.894 161.262 298.354 161.442 297.714 162.042C297.074 162.642 296.374 163.502 295.614 164.622C294.894 165.702 294.114 166.922 293.274 168.282C292.514 169.522 291.894 170.282 291.414 170.562C290.934 170.802 290.474 170.782 290.034 170.502C289.154 170.222 288.594 169.842 288.354 169.362C288.154 168.842 288.134 168.262 288.294 167.622C288.494 166.942 288.734 166.062 289.014 164.982C289.334 163.902 289.634 162.862 289.914 161.862C290.194 160.822 290.374 160.062 290.454 159.582C290.294 159.262 290.014 159.162 289.614 159.282C289.254 159.362 288.874 159.542 288.474 159.822C287.994 160.142 287.474 160.482 286.914 160.842C286.394 161.202 285.774 161.962 285.054 163.122C284.574 163.882 284.034 164.722 283.434 165.642C282.834 166.522 282.274 167.322 281.754 168.042C281.274 168.762 280.874 169.262 280.554 169.542C280.274 170.262 280.014 170.722 279.774 170.922C279.534 171.082 279.194 171.062 278.754 170.862ZM318.615 172.302C317.055 171.662 315.975 170.622 315.375 169.182C314.775 167.742 314.615 165.822 314.895 163.422C314.975 162.182 314.935 161.362 314.775 160.962C314.615 160.522 314.315 160.102 313.875 159.702C313.755 159.542 313.475 159.282 313.035 158.922C312.595 158.522 312.395 158.222 312.435 158.022C312.395 157.742 312.455 157.402 312.615 157.002C312.775 156.562 312.915 156.322 313.035 156.282C313.315 156.162 313.595 156.022 313.875 155.862C314.195 155.702 314.435 155.662 314.595 155.742C314.755 155.742 314.995 155.842 315.315 156.042C315.675 156.242 315.855 156.422 315.855 156.582C316.015 156.862 316.255 156.742 316.575 156.222C316.935 155.702 317.315 155.042 317.715 154.242C318.115 153.602 318.615 153.002 319.215 152.442C319.815 151.882 320.415 151.382 321.015 150.942C321.655 150.462 322.195 150.102 322.635 149.862C322.835 149.782 323.215 149.662 323.775 149.502C324.375 149.342 324.995 149.222 325.635 149.142C326.275 149.022 326.755 148.982 327.075 149.022C327.795 149.062 328.555 149.362 329.355 149.922C330.155 150.482 330.775 151.002 331.215 151.482C331.735 151.842 332.075 152.402 332.235 153.162C332.435 153.882 332.515 154.642 332.475 155.442C332.435 156.242 332.275 156.922 331.995 157.482C331.875 157.882 331.455 158.442 330.735 159.162C330.015 159.882 329.215 160.582 328.335 161.262C327.495 161.902 326.775 162.342 326.175 162.582C325.655 162.702 325.035 162.802 324.315 162.882C323.595 162.922 322.915 162.922 322.275 162.882C321.675 162.802 321.255 162.702 321.015 162.582C320.735 162.422 320.495 162.482 320.295 162.762C320.135 163.002 319.995 163.682 319.875 164.802C319.835 165.242 319.835 165.622 319.875 165.942C319.955 166.262 320.035 166.502 320.115 166.662C320.395 167.142 320.675 167.502 320.955 167.742C321.235 167.942 321.755 168.002 322.515 167.922C323.275 167.842 324.035 167.382 324.795 166.542C325.595 165.662 326.315 164.962 326.955 164.442C327.115 164.162 327.455 163.982 327.975 163.902C328.535 163.782 329.195 163.822 329.955 164.022C330.395 164.302 330.595 164.742 330.555 165.342C330.555 165.942 330.235 166.822 329.595 167.982C329.475 168.262 329.135 168.682 328.575 169.242C328.055 169.762 327.475 170.302 326.835 170.862C326.235 171.382 325.735 171.762 325.335 172.002C324.135 172.642 322.955 172.942 321.795 172.902C320.635 172.862 319.575 172.662 318.615 172.302ZM323.055 158.802C323.655 158.642 324.155 158.482 324.555 158.322C324.995 158.162 325.415 157.902 325.815 157.542C326.215 157.182 326.675 156.642 327.195 155.922C327.355 155.482 327.435 155.102 327.435 154.782C327.475 154.462 327.455 154.262 327.375 154.182C327.055 153.862 326.695 153.762 326.295 153.882C325.935 153.962 325.535 154.162 325.095 154.482C324.815 154.602 324.415 154.862 323.895 155.262C323.415 155.622 322.935 156.042 322.455 156.522C322.015 156.962 321.655 157.382 321.375 157.782C321.135 158.142 321.095 158.362 321.255 158.442C321.175 158.602 321.395 158.702 321.915 158.742C322.475 158.782 322.855 158.802 323.055 158.802ZM340.574 171.222C340.214 170.942 339.814 170.582 339.374 170.142C338.974 169.702 338.834 169.082 338.954 168.282C339.074 167.162 339.234 166.182 339.434 165.342C339.634 164.462 339.874 163.462 340.154 162.342C340.234 161.862 340.434 161.042 340.754 159.882C341.114 158.722 341.534 157.462 342.014 156.102C342.494 154.742 342.994 153.462 343.514 152.262C344.034 151.022 344.494 150.102 344.894 149.502C345.334 149.102 345.974 148.902 346.814 148.902C347.694 148.902 348.294 149.062 348.614 149.382C349.054 149.742 349.194 150.382 349.034 151.302C348.874 152.182 348.314 153.562 347.354 155.442C347.154 155.922 346.894 156.442 346.574 157.002C346.294 157.522 346.094 157.962 345.974 158.322C345.854 158.642 345.894 158.782 346.094 158.742C346.334 158.302 346.774 157.802 347.414 157.242C348.054 156.642 348.734 156.062 349.454 155.502C350.174 154.942 350.854 154.442 351.494 154.002C352.134 153.562 352.574 153.282 352.814 153.162C353.134 152.962 353.494 152.802 353.894 152.682C354.334 152.522 354.634 152.402 354.794 152.322C355.714 151.882 356.714 151.722 357.794 151.842C358.914 151.922 359.594 152.262 359.834 152.862C359.874 153.182 359.994 153.422 360.194 153.582C360.434 153.742 360.554 153.822 360.554 153.822C360.714 153.822 360.794 153.882 360.794 154.002C360.834 154.122 360.854 154.182 360.854 154.182C360.854 154.462 360.574 154.862 360.014 155.382C359.494 155.902 358.914 156.182 358.274 156.222C357.754 156.262 357.294 156.362 356.894 156.522C356.494 156.682 356.014 156.882 355.454 157.122C353.934 158.002 352.554 158.782 351.314 159.462C350.114 160.142 348.874 161.182 347.594 162.582C347.314 162.902 347.014 163.202 346.694 163.482C346.374 163.762 346.054 164.162 345.734 164.682C345.534 164.882 345.334 165.322 345.134 166.002C344.934 166.682 344.754 167.342 344.594 167.982C344.474 168.582 344.414 168.942 344.414 169.062C344.414 169.062 344.354 169.262 344.234 169.662C344.114 170.022 343.914 170.382 343.634 170.742C343.154 171.382 342.674 171.782 342.194 171.942C341.754 172.102 341.214 171.862 340.574 171.222ZM390.826 176.502C389.226 176.102 387.926 175.262 386.926 173.982C385.966 172.742 385.186 171.242 384.586 169.482C384.546 168.962 384.526 168.242 384.526 167.322C384.566 166.402 384.626 165.542 384.706 164.742C384.786 163.942 384.866 163.482 384.946 163.362C385.066 163.282 385.126 163.042 385.126 162.642C385.086 162.482 385.106 162.222 385.186 161.862C385.306 161.462 385.426 161.062 385.546 160.662C385.746 160.182 385.846 159.802 385.846 159.522C385.846 159.202 385.826 158.962 385.786 158.802C385.786 158.802 385.846 158.682 385.966 158.442C386.086 158.162 386.226 157.942 386.386 157.782C386.626 157.542 386.726 157.302 386.686 157.062C386.686 156.822 386.686 156.702 386.686 156.702C386.646 156.542 386.686 156.322 386.806 156.042C386.926 155.762 387.046 155.542 387.166 155.382C387.246 155.302 387.346 155.142 387.466 154.902C387.626 154.622 387.706 154.482 387.706 154.482C387.706 154.362 387.786 154.042 387.946 153.522C388.146 153.002 388.366 152.442 388.606 151.842C388.846 151.202 389.066 150.622 389.266 150.102C389.506 149.582 389.686 149.242 389.806 149.082V148.962C389.966 148.562 390.186 148.142 390.466 147.702C390.506 147.502 390.606 147.182 390.766 146.742C390.926 146.262 391.106 145.802 391.306 145.362C391.746 144.402 392.286 143.322 392.926 142.122C393.606 140.882 394.326 139.662 395.086 138.462C395.846 137.222 396.566 136.122 397.246 135.162C397.966 134.162 398.586 133.422 399.106 132.942C399.786 132.182 400.466 131.642 401.146 131.322C401.866 130.962 402.526 131.082 403.126 131.682C403.406 131.962 403.646 132.382 403.846 132.942C404.046 133.462 404.126 133.962 404.086 134.442C404.086 134.882 403.926 135.122 403.606 135.162C403.326 135.322 402.946 135.782 402.466 136.542C401.986 137.262 401.446 138.122 400.846 139.122C400.286 140.122 399.726 141.162 399.166 142.242C398.606 143.282 398.086 144.222 397.606 145.062C397.086 146.222 396.606 147.242 396.166 148.122C395.726 148.962 395.506 149.382 395.506 149.382C395.466 149.502 395.426 149.602 395.386 149.682C395.346 149.762 395.306 149.842 395.266 149.922C394.666 151.162 394.166 152.302 393.766 153.342C393.366 154.342 392.966 155.402 392.566 156.522C392.326 156.802 392.186 157.082 392.146 157.362C392.106 157.642 392.086 157.782 392.086 157.782C392.006 157.742 391.946 157.842 391.906 158.082C391.866 158.282 391.786 158.522 391.666 158.802C391.466 158.962 391.346 159.222 391.306 159.582C391.266 159.902 391.246 160.222 391.246 160.542C390.966 161.262 390.706 162.142 390.466 163.182C390.226 164.182 390.046 165.162 389.926 166.122C389.846 167.042 389.826 167.762 389.866 168.282C389.946 168.962 390.126 169.542 390.406 170.022C390.726 170.462 391.166 170.822 391.726 171.102C392.166 171.302 392.566 171.482 392.926 171.642C393.286 171.762 393.606 171.822 393.886 171.822C394.206 171.862 394.606 171.862 395.086 171.822C395.606 171.742 396.306 171.622 397.186 171.462H397.126C397.646 171.382 398.186 171.282 398.746 171.162C399.346 171.002 399.906 170.862 400.426 170.742C400.906 170.662 401.366 170.582 401.806 170.502C402.246 170.382 402.586 170.282 402.826 170.202C403.706 169.962 404.406 169.762 404.926 169.602C405.486 169.442 405.866 169.442 406.066 169.602C406.266 169.762 406.486 170.062 406.726 170.502C406.966 170.942 407.026 171.342 406.906 171.702C406.826 171.902 406.426 172.302 405.706 172.902C404.986 173.542 404.166 174.162 403.246 174.762C402.326 175.402 401.486 175.842 400.726 176.082C399.926 176.442 398.846 176.682 397.486 176.802C396.166 176.962 394.886 177.002 393.646 176.922C392.406 176.842 391.466 176.702 390.826 176.502ZM419.613 172.422C419.093 172.422 418.673 172.322 418.353 172.122C418.073 171.922 417.713 171.642 417.273 171.282C416.513 170.482 415.893 169.622 415.413 168.702C414.973 167.782 414.813 166.982 414.933 166.302C415.053 165.982 415.093 165.682 415.053 165.402C415.053 165.082 415.053 164.922 415.053 164.922C414.853 164.722 414.793 164.602 414.873 164.562C414.953 164.482 415.033 164.362 415.113 164.202C415.353 164.202 415.433 163.982 415.353 163.542C415.273 163.222 415.393 162.542 415.713 161.502C416.073 160.422 416.553 159.402 417.153 158.442C417.393 158.042 417.753 157.522 418.233 156.882C418.713 156.202 419.233 155.542 419.793 154.902C420.393 154.222 420.933 153.682 421.413 153.282C422.413 152.442 423.333 151.762 424.173 151.242C425.053 150.722 425.933 150.362 426.813 150.162C427.693 149.962 428.593 149.862 429.513 149.862C430.473 149.862 431.253 150.182 431.853 150.822C432.773 151.222 433.413 151.762 433.773 152.442C434.173 153.122 434.433 154.002 434.553 155.082C434.673 156.282 434.553 157.762 434.193 159.522C433.833 161.242 432.853 163.242 431.253 165.522C430.253 166.962 429.273 168.082 428.313 168.882C427.353 169.682 426.293 170.422 425.133 171.102C424.293 171.662 423.393 172.002 422.433 172.122C421.473 172.242 420.533 172.342 419.613 172.422ZM425.733 165.102C426.613 164.342 427.233 163.502 427.593 162.582C427.993 161.662 428.413 160.582 428.853 159.342C429.013 159.102 429.113 158.702 429.153 158.142C429.233 157.582 429.253 157.042 429.213 156.522C429.173 155.962 429.033 155.642 428.793 155.562C428.433 155.282 428.073 155.222 427.713 155.382C427.353 155.502 426.893 155.762 426.333 156.162C425.133 157.162 424.013 158.322 422.973 159.642C421.973 160.922 421.273 162.502 420.873 164.382C420.753 165.382 420.853 166.142 421.173 166.662C421.533 167.142 422.093 167.282 422.853 167.082C423.653 166.842 424.613 166.182 425.733 165.102ZM447.411 172.002C447.091 172.082 446.671 172.122 446.151 172.122C445.631 172.082 445.171 172.022 444.771 171.942C444.411 171.822 444.231 171.702 444.231 171.582C444.231 171.382 444.131 171.282 443.931 171.282C443.931 171.282 443.711 171.122 443.271 170.802C442.831 170.442 442.431 170.182 442.071 170.022C441.711 169.462 441.471 168.822 441.351 168.102C441.271 167.342 441.511 166.022 442.071 164.142C442.111 162.862 442.471 161.522 443.151 160.122C443.831 158.682 444.691 157.282 445.731 155.922C446.771 154.562 447.851 153.362 448.971 152.322C450.091 151.242 451.091 150.442 451.971 149.922C452.531 149.362 453.271 149.062 454.191 149.022C455.151 148.982 455.991 149.162 456.711 149.562C457.111 149.762 457.551 150.162 458.031 150.762C458.511 151.362 458.971 152.002 459.411 152.682C459.851 153.322 460.191 153.902 460.431 154.422C460.551 154.862 460.651 155.262 460.731 155.622C460.851 155.942 460.931 156.342 460.971 156.822C461.011 157.302 460.971 158.022 460.851 158.982C460.651 159.702 460.471 160.442 460.311 161.202C460.191 161.922 460.131 162.662 460.131 163.422C460.051 164.182 460.131 164.722 460.371 165.042C460.651 165.362 461.051 165.382 461.571 165.102C462.051 164.862 462.551 164.842 463.071 165.042C463.591 165.202 463.951 165.522 464.151 166.002C464.391 166.442 464.331 167.022 463.971 167.742C463.731 168.262 463.351 168.762 462.831 169.242C462.311 169.722 461.731 170.122 461.091 170.442C460.451 170.722 459.831 170.862 459.231 170.862C458.791 170.862 458.351 170.702 457.911 170.382C457.471 170.022 457.071 169.542 456.711 168.942C456.351 168.342 456.051 167.682 455.811 166.962L455.451 165.582L453.291 167.562C452.771 168.122 452.251 168.642 451.731 169.122C451.251 169.562 450.951 169.882 450.831 170.082C450.631 170.442 450.231 170.762 449.631 171.042C449.071 171.322 448.331 171.642 447.411 172.002ZM449.031 166.242C449.711 165.842 450.291 165.362 450.771 164.802C451.291 164.242 451.791 163.622 452.271 162.942C452.751 162.222 453.271 161.462 453.831 160.662C454.511 159.742 454.991 159.002 455.271 158.442C455.591 157.882 455.831 157.282 455.991 156.642C455.831 156.202 455.611 155.742 455.331 155.262C455.051 154.742 454.771 154.462 454.491 154.422C453.931 154.422 453.251 154.762 452.451 155.442C451.691 156.122 450.851 157.102 449.931 158.382C449.771 158.582 449.571 158.902 449.331 159.342C449.091 159.782 448.851 160.202 448.611 160.602C448.411 160.962 448.271 161.202 448.191 161.322C448.071 161.482 447.891 161.862 447.651 162.462C447.451 163.022 447.271 163.602 447.111 164.202C446.951 164.762 446.871 165.162 446.871 165.402C446.871 165.642 446.891 165.902 446.931 166.182C447.011 166.462 447.211 166.642 447.531 166.722C447.851 166.802 448.351 166.642 449.031 166.242ZM490.62 172.602C490.02 172.602 489.44 172.422 488.88 172.062C488.32 171.662 487.86 171.122 487.5 170.442C487.14 169.722 486.96 168.882 486.96 167.922C486.96 167.322 487.06 166.482 487.26 165.402C487.5 164.282 487.84 162.882 488.28 161.202C488.36 160.642 488.42 160.282 488.46 160.122C488.54 159.962 488.58 159.802 488.58 159.642C488.58 159.562 488.56 159.502 488.52 159.462C488.52 159.382 488.48 159.342 488.4 159.342C488.08 159.342 487.64 159.562 487.08 160.002C486.56 160.402 485.96 160.882 485.28 161.442C485.16 161.522 485.02 161.622 484.86 161.742C484.74 161.862 484.6 161.982 484.44 162.102C484.32 162.222 484.18 162.342 484.02 162.462C483.62 162.702 483 163.162 482.16 163.842C481.36 164.522 480.52 165.242 479.64 166.002C478.8 166.762 478.06 167.402 477.42 167.922C477.1 168.162 476.82 168.362 476.58 168.522C476.38 168.682 476.24 168.762 476.16 168.762C476.08 168.762 475.76 168.662 475.2 168.462C474.68 168.222 474.16 167.902 473.64 167.502C473.16 167.062 472.92 166.562 472.92 166.002C472.92 165.642 473.06 164.922 473.34 163.842C473.66 162.762 474.1 161.482 474.66 160.002C475.22 158.522 475.86 157.022 476.58 155.502C476.74 155.142 476.86 154.662 476.94 154.062C477.02 153.462 477.1 152.882 477.18 152.322C477.3 151.722 477.5 151.282 477.78 151.002C477.9 150.802 478.04 150.662 478.2 150.582C478.4 150.462 478.6 150.402 478.8 150.402C479.2 150.402 479.58 150.502 479.94 150.702C480.3 150.862 480.64 151.142 480.96 151.542C481.56 152.182 481.88 152.942 481.92 153.822C482 154.662 481.94 155.482 481.74 156.282C481.54 157.082 481.32 157.742 481.08 158.262C480.84 158.742 480.72 158.942 480.72 158.862C480.88 158.782 481.1 158.582 481.38 158.262C481.7 157.942 482.24 157.562 483 157.122C484.04 156.322 484.84 155.762 485.4 155.442C485.96 155.082 486.38 154.822 486.66 154.662C486.98 154.502 487.26 154.322 487.5 154.122C487.7 153.962 487.84 153.862 487.92 153.822C488.04 153.782 488.1 153.762 488.1 153.762C488.22 153.762 488.42 153.682 488.7 153.522C489.02 153.362 489.32 153.282 489.6 153.282C490 153.282 490.42 153.382 490.86 153.582C491.3 153.742 491.68 153.982 492 154.302C492.32 154.582 492.48 154.882 492.48 155.202C492.48 155.322 492.52 155.422 492.6 155.502C492.68 155.582 492.76 155.682 492.84 155.802C493.04 156.042 493.26 156.382 493.5 156.822C493.78 157.222 493.92 157.882 493.92 158.802C493.92 159.442 493.78 160.382 493.5 161.622C493.22 162.862 492.92 164.082 492.6 165.282C492.28 166.522 492.12 167.522 492.12 168.282C492.16 169.002 492.24 169.562 492.36 169.962C492.48 170.322 492.54 170.622 492.54 170.862C492.54 171.182 492.38 171.562 492.06 172.002C491.74 172.402 491.26 172.602 490.62 172.602ZM509.76 173.262C507.64 173.262 506.08 172.582 505.08 171.222C504.8 170.582 504.66 169.942 504.66 169.302C504.7 168.622 504.86 168.142 505.14 167.862C505.42 167.542 505.76 167.602 506.16 168.042C506.68 168.362 507.42 168.522 508.38 168.522C508.86 168.522 509.28 168.522 509.64 168.522C510.04 168.482 510.5 168.442 511.02 168.402C511.94 168.322 512.52 168.042 512.76 167.562C513.04 167.082 512.98 166.682 512.58 166.362H512.64C511.56 166.082 510.5 165.682 509.46 165.162C508.42 164.642 507.54 164.062 506.82 163.422C506.1 162.742 505.68 162.102 505.56 161.502C505.24 160.182 505.32 158.822 505.8 157.422C506.28 156.022 506.98 154.802 507.9 153.762C508.26 153.522 508.76 153.182 509.4 152.742C510.04 152.262 510.5 152.002 510.78 151.962V152.022C511.54 151.222 512.4 150.582 513.36 150.102C514.32 149.582 515.44 149.102 516.72 148.662L517.68 148.542C518.16 148.462 518.58 148.422 518.94 148.422C518.9 148.422 519 148.462 519.24 148.542C519.48 148.622 519.68 148.682 519.84 148.722C520.08 148.842 520.32 148.902 520.56 148.902C521.12 148.982 521.66 149.282 522.18 149.802C522.74 150.282 523.18 150.862 523.5 151.542C523.86 152.182 524 152.782 523.92 153.342C523.8 154.262 523.46 155.182 522.9 156.102C522.34 156.982 521.74 157.482 521.1 157.602C521.18 157.562 521.1 157.482 520.86 157.362C520.62 157.242 520.4 157.122 520.2 157.002L519.96 157.122C519.96 157.122 519.94 157.062 519.9 156.942C519.9 156.822 519.86 156.682 519.78 156.522C519.62 156.242 519.5 155.942 519.42 155.622C519.38 155.302 519.38 154.942 519.42 154.542C519.5 154.102 519.52 153.842 519.48 153.762C519.44 153.682 519.2 153.622 518.76 153.582C518.24 153.462 517.58 153.522 516.78 153.762C515.98 153.962 515.24 154.322 514.56 154.842C513.76 155.362 513.16 155.782 512.76 156.102C512.4 156.422 512.12 156.742 511.92 157.062C511.72 157.342 511.5 157.762 511.26 158.322C511.1 158.602 510.96 158.862 510.84 159.102C510.72 159.302 510.66 159.502 510.66 159.702C510.66 160.102 511 160.522 511.68 160.962C512.36 161.362 513.38 161.842 514.74 162.402C515.82 162.842 516.52 163.442 516.84 164.202C517.2 164.962 517.52 165.682 517.8 166.362C517.88 166.522 517.96 166.822 518.04 167.262C518.16 167.662 518.18 167.902 518.1 167.982C518.18 168.062 518.22 168.142 518.22 168.222V168.162C518.54 168.762 518.48 169.402 518.04 170.082C517.64 170.722 517 171.322 516.12 171.882C515.24 172.402 514.24 172.782 513.12 173.022H513.18C512.58 173.102 511.98 173.162 511.38 173.202C510.82 173.242 510.28 173.262 509.76 173.262Z" fill="#B8C318"/>
</g>
</svg>
