<svg width="390" height="136" viewBox="0 0 390 136" fill="none" xmlns="http://www.w3.org/2000/svg">
<path d="M107.477 45.9923C94.0972 45.9923 86.1172 37.7123 86.1172 22.4723C86.1172 8.91234 94.6372 0.152344 108.077 0.152344C115.337 0.152344 120.317 3.03234 122.537 5.25234C124.037 6.75234 124.157 8.61234 122.717 10.1723C121.217 11.7923 119.357 11.8523 117.557 10.3523C115.817 8.91234 112.817 7.17234 107.897 7.17234C101.117 7.17234 96.7972 13.0523 96.7972 22.5923C96.7972 33.3923 100.517 38.9123 107.537 38.9123C110.417 38.9123 112.757 38.3723 113.957 37.6523C114.437 37.3523 114.617 37.1123 114.617 36.5723V28.1723C114.617 27.8723 114.437 27.6323 114.077 27.6323H108.497C106.277 27.6323 105.077 26.4923 105.077 24.2723C105.077 22.0523 106.277 20.9123 108.497 20.9123H119.957C122.537 20.9123 124.037 22.3523 124.037 24.9923V37.6523C124.037 39.9323 123.377 41.3723 121.697 42.5723C118.697 44.7323 113.417 45.9923 107.477 45.9923Z" fill="#594A39"/>
<path d="M158.783 16.5923C159.083 19.8923 156.983 20.9123 154.043 21.2723C150.863 21.6923 147.863 24.8123 146.963 28.7723V41.1923C146.963 44.5523 144.923 45.9923 141.623 45.9923C138.323 45.9923 136.763 44.4923 136.763 41.1923V17.1323C136.763 14.2523 138.683 12.9923 141.623 12.9923C144.383 12.9923 146.183 14.4323 146.183 17.3723V20.1923C147.443 15.2123 150.263 13.1723 153.803 13.0523C156.503 12.9923 158.543 13.8923 158.783 16.5923Z" fill="#594A39"/>
<path d="M190.849 37.2323C192.469 36.0323 194.209 36.1523 195.349 37.4723C196.489 38.7323 196.549 40.4723 195.289 41.8523C193.369 44.0123 188.689 45.9923 182.749 45.9923C173.329 45.9923 166.069 41.2523 166.069 30.2123C166.069 19.5923 172.309 12.9323 182.329 12.9323C192.169 12.9323 197.089 20.2523 197.089 27.3323C197.089 30.7523 195.349 32.5523 191.689 32.5523H176.449C177.049 37.5323 179.269 39.3923 183.529 39.5123C186.469 39.5723 188.869 38.7323 190.849 37.2323ZM182.449 19.2323C178.669 19.2323 176.989 21.8123 176.449 25.9523H187.369C187.729 25.9523 187.909 25.7723 187.909 25.4123C187.909 21.2723 185.809 19.2323 182.449 19.2323Z" fill="#594A39"/>
<path d="M230.922 37.2323C232.542 36.0323 234.282 36.1523 235.422 37.4723C236.562 38.7323 236.622 40.4723 235.362 41.8523C233.442 44.0123 228.762 45.9923 222.822 45.9923C213.402 45.9923 206.142 41.2523 206.142 30.2123C206.142 19.5923 212.382 12.9323 222.402 12.9323C232.242 12.9323 237.162 20.2523 237.162 27.3323C237.162 30.7523 235.422 32.5523 231.762 32.5523H216.522C217.122 37.5323 219.342 39.3923 223.602 39.5123C226.542 39.5723 228.942 38.7323 230.922 37.2323ZM222.522 19.2323C218.742 19.2323 217.062 21.8123 216.522 25.9523H227.442C227.802 25.9523 227.982 25.7723 227.982 25.4123C227.982 21.2723 225.882 19.2323 222.522 19.2323Z" fill="#594A39"/>
<path d="M267.095 12.9923C274.235 12.9923 278.675 17.5523 278.675 24.9323V41.0123C278.675 44.2523 276.875 45.9923 273.575 45.9923C270.275 45.9923 268.475 44.2523 268.475 41.0123V25.7123C268.475 21.9323 266.915 19.6523 264.155 19.6523C261.515 19.6523 259.115 22.0523 258.335 25.4123V41.0123C258.335 44.2523 256.535 45.9923 253.235 45.9923C249.935 45.9923 248.135 44.2523 248.135 41.0123V17.6723C248.135 14.6723 249.815 13.0523 252.815 13.0523C255.875 13.0523 257.555 14.5523 257.555 17.6123V18.5723C259.355 14.9123 263.075 12.9923 267.095 12.9923Z" fill="#594A39"/>
<path d="M21.4885 135.992C8.40852 135.992 0.728516 127.652 0.728516 112.532C0.728516 98.7323 8.76852 90.0923 21.9685 90.0923C27.1885 90.0923 31.0885 91.6523 33.1885 93.2123C34.9285 94.4723 35.5285 96.4523 34.6285 98.0123C33.6085 99.8123 31.6285 100.232 29.8285 99.1523C27.8485 97.8923 25.6285 97.1723 22.2685 97.1723C15.4885 97.1723 11.3485 102.752 11.3485 112.412C11.3485 123.092 15.3685 128.912 22.0285 128.912C25.9885 128.912 28.1485 127.712 29.8885 126.452C31.6285 125.192 33.5485 125.612 34.9285 127.352C36.1285 128.852 35.8885 130.772 34.2085 132.272C32.0485 134.252 27.4285 135.992 21.4885 135.992Z" fill="#594A39"/>
<path d="M68.8238 106.592C69.1238 109.892 67.0238 110.912 64.0838 111.272C60.9038 111.692 57.9038 114.812 57.0038 118.772V131.192C57.0038 134.552 54.9638 135.992 51.6638 135.992C48.3638 135.992 46.8038 134.492 46.8038 131.192V107.132C46.8038 104.252 48.7238 102.992 51.6638 102.992C54.4238 102.992 56.2238 104.432 56.2238 107.372V110.192C57.4838 105.212 60.3038 103.172 63.8438 103.052C66.5438 102.992 68.5838 103.892 68.8238 106.592Z" fill="#594A39"/>
<path d="M100.89 127.232C102.51 126.032 104.25 126.152 105.39 127.472C106.53 128.732 106.59 130.472 105.33 131.852C103.41 134.012 98.7296 135.992 92.7896 135.992C83.3696 135.992 76.1096 131.252 76.1096 120.212C76.1096 109.592 82.3496 102.932 92.3696 102.932C102.21 102.932 107.13 110.252 107.13 117.332C107.13 120.752 105.39 122.552 101.73 122.552H86.4896C87.0896 127.532 89.3096 129.392 93.5696 129.512C96.5096 129.572 98.9096 128.732 100.89 127.232ZM92.4896 109.232C88.7096 109.232 87.0296 111.812 86.4896 115.952H97.4096C97.7696 115.952 97.9496 115.772 97.9496 115.412C97.9496 111.272 95.8496 109.232 92.4896 109.232Z" fill="#594A39"/>
<path d="M142.763 88.2923C146.003 88.2923 147.803 90.1523 147.803 93.5123V131.252C147.803 134.252 146.123 135.992 143.123 135.992C140.663 135.992 138.863 134.792 138.323 132.692C136.403 134.732 133.103 135.992 130.103 135.992C123.143 135.992 116.183 131.912 116.183 119.672C116.183 109.472 122.183 102.992 130.043 102.992C133.883 102.992 136.283 104.492 137.603 105.692V93.3923C137.603 90.0323 139.343 88.2923 142.763 88.2923ZM132.803 129.152C134.843 129.152 136.823 128.132 138.143 126.332V113.852C137.363 112.112 135.623 109.772 132.143 109.772C128.663 109.772 125.903 113.132 125.903 119.792C125.903 125.732 128.723 129.152 132.803 129.152Z" fill="#594A39"/>
<path d="M166.926 99.3323C163.626 99.3323 160.866 96.8123 160.866 93.5723C160.866 90.2123 163.566 87.7523 166.926 87.7523C170.346 87.7523 172.746 90.1523 172.746 93.5723C172.746 96.8723 170.286 99.3323 166.926 99.3323ZM166.806 135.992C163.446 135.992 161.706 134.252 161.706 131.012V108.572C161.706 105.332 163.446 103.592 166.806 103.592C170.166 103.592 171.906 105.332 171.906 108.572V131.012C171.906 134.252 170.166 135.992 166.806 135.992Z" fill="#594A39"/>
<path d="M203.771 127.892C205.511 127.892 206.591 129.992 206.591 131.492C206.591 134.612 202.151 135.512 198.851 135.512C191.951 135.512 188.831 132.212 188.831 125.072V110.732H185.471C183.551 110.732 182.471 109.412 182.471 107.312C182.471 105.152 183.611 103.892 185.471 103.892H188.831V100.112C188.831 96.8723 190.631 95.1323 193.931 95.1323C197.231 95.1323 199.031 96.8723 199.031 100.112V103.892H202.931C204.851 103.892 205.931 105.212 205.931 107.312C205.931 109.472 204.791 110.732 202.931 110.732H199.031V124.952C199.031 127.352 199.691 128.432 200.771 128.432C201.911 128.432 202.691 127.892 203.771 127.892Z" fill="#594A39"/>
<path d="M262.686 135.992C249.606 135.992 241.926 127.652 241.926 112.532C241.926 98.7323 249.966 90.0923 263.166 90.0923C268.386 90.0923 272.286 91.6523 274.386 93.2123C276.126 94.4723 276.726 96.4523 275.826 98.0123C274.806 99.8123 272.826 100.232 271.026 99.1523C269.046 97.8923 266.826 97.1723 263.466 97.1723C256.686 97.1723 252.546 102.752 252.546 112.412C252.546 123.092 256.566 128.912 263.226 128.912C267.186 128.912 269.346 127.712 271.086 126.452C272.826 125.192 274.746 125.612 276.126 127.352C277.326 128.852 277.086 130.772 275.406 132.272C273.246 134.252 268.626 135.992 262.686 135.992Z" fill="#594A39"/>
<path d="M312.901 106.952C314.701 108.872 315.601 111.572 315.601 115.052V131.012C315.601 134.252 314.341 135.992 311.221 135.992C308.041 135.992 306.601 134.252 306.601 131.012V130.832C304.621 134.312 300.901 135.992 296.161 135.992C289.801 135.992 285.901 132.272 285.901 126.332C285.901 119.192 292.561 114.752 302.641 114.752C303.841 114.752 305.101 114.812 305.881 114.932V114.392C305.881 111.392 304.201 109.592 301.021 109.472C298.441 109.352 295.681 110.492 293.401 112.952C291.961 114.512 289.861 114.752 288.361 113.432C286.801 112.172 286.621 110.192 288.001 108.452C290.161 105.812 294.901 102.992 301.201 102.992C306.781 102.992 310.322 104.252 312.901 106.952ZM306.001 124.112V121.052C305.221 120.932 303.901 120.812 302.761 120.872C297.001 121.172 295.021 123.392 295.141 125.732C295.261 127.772 296.521 128.972 298.981 128.972C301.801 128.972 304.621 126.992 306.001 124.112Z" fill="#594A39"/>
<path d="M350.212 106.592C350.512 109.892 348.412 110.912 345.472 111.272C342.292 111.692 339.292 114.812 338.392 118.772V131.192C338.392 134.552 336.352 135.992 333.052 135.992C329.752 135.992 328.192 134.492 328.192 131.192V107.132C328.192 104.252 330.112 102.992 333.052 102.992C335.812 102.992 337.612 104.432 337.612 107.372V110.192C338.872 105.212 341.692 103.172 345.232 103.052C347.932 102.992 349.972 103.892 350.212 106.592Z" fill="#594A39"/>
<path d="M384.078 88.2923C387.318 88.2923 389.118 90.1523 389.118 93.5123V131.252C389.118 134.252 387.438 135.992 384.438 135.992C381.978 135.992 380.178 134.792 379.638 132.692C377.718 134.732 374.418 135.992 371.418 135.992C364.458 135.992 357.498 131.912 357.498 119.672C357.498 109.472 363.498 102.992 371.358 102.992C375.198 102.992 377.598 104.492 378.918 105.692V93.3923C378.918 90.0323 380.658 88.2923 384.078 88.2923ZM374.118 129.152C376.158 129.152 378.138 128.132 379.458 126.332V113.852C378.678 112.112 376.938 109.772 373.458 109.772C369.978 109.772 367.218 113.132 367.218 119.792C367.218 125.732 370.038 129.152 374.118 129.152Z" fill="#594A39"/>
</svg>
