<svg width="458" height="359" viewBox="0 0 458 359" fill="none" xmlns="http://www.w3.org/2000/svg">
<path d="M353.431 9.22168L30.9943 107.124C14.2216 112.217 4.752 129.944 9.84476 146.717L64.8216 327.781C69.9144 344.554 87.6419 354.023 104.415 348.93L426.851 251.028C443.624 245.935 453.094 228.208 448.001 211.435L393.024 30.3712C387.931 13.5985 370.204 4.12893 353.431 9.22168Z" fill="#CAD348"/>
<path d="M315.216 131.17C309.913 129.955 305.295 126.711 302.357 122.132C296.698 115.03 289.342 109.469 280.965 105.963C282.135 103.241 282.517 100.245 282.073 97.3163C281.629 94.3875 280.377 91.6388 278.454 89.3861C276.655 87.4597 274.421 85.9906 271.941 85.0997C269.461 84.2089 266.806 83.9242 264.192 84.266C261.472 84.6182 258.889 85.6888 256.718 87.3655C254.547 89.0422 252.862 91.2618 251.833 93.8048C240.012 91.4073 227.809 91.6689 216.101 94.5699C204.393 97.4709 193.479 102.943 184.145 110.582C180.609 108.217 176.313 107.263 172.11 107.914C167.906 108.565 164.093 110.77 161.438 114.094C159.15 117.318 158.139 121.274 158.584 125.202C159.028 129.13 160.9 132.757 163.851 135.388C160.022 142.668 157.216 150.445 155.514 158.492C154.492 164.885 151.711 170.865 147.48 175.765C151.653 176.468 155.939 175.834 159.731 173.955C159.079 181.608 159.486 189.316 160.938 196.858C163.341 208.728 169.134 219.646 177.612 228.295C181.655 231.694 184.617 236.196 186.146 241.252C186.146 241.252 190.47 239.744 191.776 232.512C191.776 232.512 198.903 260.538 265.997 250.393C265.997 250.393 313.906 227.089 315.412 187.717C316.793 190.497 319.208 192.628 322.141 193.646C322.141 193.646 319.929 191.432 322.641 179.379C325.353 167.327 317.118 148.146 305.869 134.687C307.593 134.891 309.344 134.676 310.969 134.064C312.595 133.452 314.054 132.461 315.216 131.17Z" fill="#FEFDFC"/>
<path d="M239.082 262.246C222.344 263.614 205.664 258.951 192.069 249.093C191.274 249.605 190.434 250.041 189.558 250.397C188.094 250.912 186.537 251.078 184.997 250.888C183.457 250.697 181.976 250.155 180.682 249.299C179.387 248.442 178.311 247.297 177.533 245.954C176.755 244.611 176.307 243.108 176.209 241.56C174.497 239.187 172.578 236.968 170.481 234.929C160.552 224.923 153.811 212.201 151.099 198.368C150.352 194.182 149.845 189.959 149.588 185.715C148.137 185.67 146.695 185.499 145.273 185.21C143.553 184.808 141.97 183.961 140.682 182.753C139.395 181.544 138.445 180.02 137.936 178.329C137.427 176.638 137.373 174.839 137.779 173.121C138.185 171.402 139.039 169.825 140.251 168.54C143.079 165.141 144.951 161.048 145.675 156.686C146.958 149.559 149.179 142.636 152.296 136.098C149.609 131.744 148.308 126.677 148.559 121.567C148.81 116.457 150.608 111.542 153.708 107.472C157.064 103.212 161.649 100.085 166.842 98.5218C172.035 96.9585 177.581 97.0333 182.731 98.7327C201.432 85.5184 224.39 79.7539 247.115 82.5633C251.129 77.8586 256.753 74.8145 262.887 74.025C267.092 73.4822 271.359 73.9575 275.344 75.408C279.328 76.8585 282.908 79.2428 285.78 82.3623C288.007 84.7514 289.726 87.5674 290.831 90.6407C291.936 93.7139 292.41 96.9783 292.214 100.238C299.335 104.129 305.531 109.511 310.39 116.01C311.857 118.404 314.146 120.188 316.824 121.032C318.528 121.362 320.114 122.123 321.434 123.249C322.754 124.376 323.764 125.826 324.357 127.457C324.97 129.021 325.176 130.714 324.965 132.381C324.755 134.048 324.133 135.638 323.151 137.001L321.444 138.908C330.23 151.228 334.16 166.355 332.488 181.394C331.793 184.017 331.419 186.714 331.38 189.427C332.029 190.905 332.32 192.52 332.214 194.131C332.107 195.741 331.609 197.302 330.772 198.682C329.934 200.061 328.777 201.219 327.398 202.056C326.018 202.893 324.457 203.387 322.846 203.493C311.999 238.647 272.629 258.331 270.42 259.235C269.556 259.729 268.595 260.035 267.605 260.137C258.162 261.544 248.629 262.248 239.082 262.246ZM201.417 229.804C201.417 229.804 209.353 248.286 262.887 240.451C269.918 236.635 304.263 216.649 305.368 187.019C305.459 184.903 306.218 182.867 307.535 181.208C308.852 179.548 310.664 178.35 312.704 177.78C312.704 177.78 312.704 177.174 312.704 176.872C314.512 168.837 307.884 152.668 298.041 140.816C296.903 139.437 296.155 137.781 295.873 136.015C295.59 134.249 295.782 132.438 296.432 130.772L294.019 127.859C289.443 122.046 283.412 117.545 276.54 114.804C274.156 113.671 272.313 111.645 271.41 109.164C270.508 106.683 270.624 103.943 271.724 101.543C272.083 100.632 272.199 99.6427 272.058 98.6738C271.917 97.705 271.523 96.7919 270.92 96.0206C270.238 95.2259 269.356 94.6221 268.37 94.2698C267.384 93.9176 266.321 93.8271 265.29 94.0099C264.246 94.1261 263.264 94.5385 262.445 95.1967C261.627 95.8549 261.007 96.7328 260.67 97.7273C259.692 99.8275 258.019 101.527 255.933 102.534C253.846 103.54 251.476 103.796 249.224 103.254C238.932 101.214 228.317 101.476 218.14 104.029C207.963 106.582 198.473 111.36 190.363 118.016C188.71 119.401 186.659 120.219 184.507 120.346C182.354 120.472 180.22 119.899 178.416 118.718C177.677 118.097 176.815 117.646 175.885 117.389C174.955 117.131 173.974 117.079 173.021 117.232C172.068 117.384 171.166 117.737 170.363 118.271C169.56 118.806 168.88 119.506 168.372 120.326C167.669 121.331 166.76 124.146 170.677 128.565C172.022 130.1 172.866 132.006 173.1 134.034C173.333 136.061 172.943 138.113 171.981 139.914C168.6 146.219 166.166 152.988 164.752 160.002C164.752 161.81 164.056 163.517 163.654 165.225C164.057 165.399 164.424 165.634 164.752 165.926C166.229 166.961 167.404 168.373 168.146 170.016C168.888 171.66 169.17 173.476 168.97 175.269C168.405 181.983 168.78 188.744 170.078 195.357C172.034 205.314 176.888 214.466 184.036 221.668C184.858 222.42 185.634 223.228 186.351 224.081C187.695 223.409 189.165 223.034 190.667 222.977C192.947 222.905 195.187 223.609 197.013 224.978C198.838 226.348 200.141 228.301 200.711 230.51L201.417 229.804Z" fill="#F9F7F1"/>
<path d="M163.851 135.093C160.022 142.373 157.216 150.145 155.514 158.192C154.492 164.585 151.711 170.569 147.48 175.47C151.653 176.173 155.939 175.539 159.731 173.66C159.079 181.313 159.486 189.017 160.938 196.558C163.341 208.428 169.134 219.351 177.612 228C181.655 231.399 184.617 235.901 186.146 240.957C186.146 240.957 190.47 239.449 191.776 232.217C191.776 232.217 198.903 260.238 265.997 250.093C265.997 250.093 313.906 226.794 315.412 187.422C316.793 190.202 319.208 192.328 322.141 193.346C322.141 193.346 319.929 191.137 322.641 179.084C325.353 167.032 317.118 147.846 305.869 134.387C307.593 134.591 309.344 134.381 310.969 133.769C312.595 133.157 314.054 132.166 315.216 130.875C309.913 129.66 305.295 126.411 302.357 121.832C296.698 114.73 289.342 109.169 280.965 105.663C282.135 102.941 282.517 99.9451 282.073 97.0163C281.629 94.0875 280.377 91.3437 278.454 89.091C276.655 87.1646 274.421 85.6955 271.941 84.8047C269.461 83.9138 266.806 83.6242 264.192 83.966C261.472 84.3182 258.889 85.3888 256.718 87.0655C254.547 88.7423 252.862 90.9667 251.833 93.5098C240.012 91.1122 227.809 91.3738 216.101 94.2748C204.393 97.1758 193.479 102.643 184.145 110.282C180.609 107.917 176.313 106.968 172.11 107.619C167.906 108.27 164.093 110.475 161.438 113.799C159.15 117.023 158.139 120.979 158.584 124.907C159.028 128.835 160.9 132.462 163.851 135.093Z" fill="#EBB14E"/>
<path d="M266.506 108.071C271.72 108.071 275.947 103.844 275.947 98.6295C275.947 93.4152 271.72 89.1882 266.506 89.1882C261.291 89.1882 257.064 93.4152 257.064 98.6295C257.064 103.844 261.291 108.071 266.506 108.071Z" fill="#F7E6C7"/>
<path d="M173.394 131.575C178.609 131.575 182.836 127.347 182.836 122.133C182.836 116.919 178.609 112.692 173.394 112.692C168.18 112.692 163.953 116.919 163.953 122.133C163.953 127.347 168.18 131.575 173.394 131.575Z" fill="#F7E6C7"/>
<path d="M198.095 132.177C191.727 139.732 187.595 148.913 186.158 158.689C184.721 168.465 186.03 178.448 189.954 187.516C189.954 187.516 202.518 223.675 256.956 202.783C256.956 202.783 317.818 180.187 282.262 137.802C282.262 137.802 263.783 105.258 218.183 118.415C210.283 120.933 203.297 125.72 198.095 132.177Z" fill="#F7E6C7"/>
<path d="M252.14 154.575C255.08 154.575 257.463 152.192 257.463 149.252C257.463 146.312 255.08 143.928 252.14 143.928C249.2 143.928 246.816 146.312 246.816 149.252C246.816 152.192 249.2 154.575 252.14 154.575Z" fill="#4A1E0E"/>
<path d="M220.403 164.919C223.343 164.919 225.727 162.536 225.727 159.596C225.727 156.656 223.343 154.272 220.403 154.272C217.463 154.272 215.08 156.656 215.08 159.596C215.08 162.536 217.463 164.919 220.403 164.919Z" fill="#4A1E0E"/>
<path d="M244.256 138.167C246.162 137.798 247.499 136.394 247.235 135.032C246.972 133.671 245.207 132.867 243.301 133.236C241.395 133.606 240.067 135.008 240.331 136.369C240.595 137.731 242.35 138.536 244.256 138.167Z" fill="#4A1E0E"/>
<path d="M214.836 147.915C216.672 147.284 217.791 145.71 217.34 144.399C216.889 143.087 215.039 142.535 213.203 143.166C211.367 143.798 210.239 145.375 210.69 146.686C211.141 147.997 213 148.547 214.836 147.915Z" fill="#4A1E0E"/>
<path d="M252.142 193.848C249.868 194.43 247.481 194.43 245.207 193.848C245.011 193.825 244.827 193.757 244.658 193.657C244.489 193.556 244.34 193.42 244.226 193.259C244.113 193.098 244.039 192.918 244.001 192.725C243.962 192.532 243.967 192.328 244.01 192.136C244.035 191.938 244.097 191.746 244.197 191.572C244.296 191.399 244.43 191.248 244.589 191.126C244.748 191.004 244.925 190.917 245.119 190.866C245.312 190.815 245.519 190.804 245.717 190.832C245.717 190.832 254.451 192.338 256.359 185.408C256.477 185.015 256.74 184.681 257.095 184.476C257.45 184.27 257.873 184.21 258.272 184.304C258.665 184.421 258.999 184.685 259.204 185.04C259.409 185.395 259.465 185.813 259.371 186.212C258.988 188.028 258.117 189.705 256.84 191.052C255.563 192.4 253.935 193.368 252.142 193.848Z" fill="#EAC5AC"/>
<path d="M264.298 152.764H263.396C263.022 152.627 262.708 152.356 262.523 152.004C262.337 151.651 262.287 151.242 262.386 150.856L263.896 145.535C264.013 145.142 264.277 144.809 264.632 144.603C264.986 144.398 265.41 144.333 265.809 144.427C266.202 144.544 266.535 144.808 266.741 145.162C266.946 145.517 267.001 145.935 266.907 146.334L265.299 151.66C265.233 151.912 265.111 152.145 264.936 152.337C264.761 152.53 264.543 152.675 264.298 152.764Z" fill="#EAC5AC"/>
<path d="M269.316 152.668H268.413C268.039 152.531 267.726 152.261 267.54 151.908C267.355 151.555 267.304 151.146 267.403 150.76L269.012 145.434C269.058 145.233 269.144 145.042 269.267 144.875C269.39 144.709 269.549 144.572 269.728 144.468C269.907 144.365 270.111 144.301 270.316 144.277C270.522 144.253 270.727 144.271 270.924 144.331C271.299 144.468 271.612 144.739 271.797 145.091C271.983 145.444 272.024 145.853 271.925 146.239L270.316 151.56C270.251 151.812 270.128 152.044 269.953 152.237C269.778 152.429 269.56 152.579 269.316 152.668Z" fill="#EAC5AC"/>
<path d="M205.63 173.659C205.337 173.758 205.02 173.758 204.727 173.659C204.526 173.615 204.332 173.528 204.168 173.404C204.004 173.279 203.872 173.12 203.776 172.938C203.68 172.756 203.629 172.555 203.619 172.349C203.609 172.144 203.639 171.941 203.717 171.751L205.228 166.425C205.285 166.232 205.375 166.055 205.502 165.9C205.63 165.745 205.795 165.616 205.973 165.523C206.151 165.429 206.342 165.373 206.542 165.356C206.742 165.339 206.939 165.363 207.13 165.424C207.323 165.482 207.505 165.576 207.66 165.704C207.815 165.831 207.949 165.987 208.043 166.165C208.136 166.343 208.192 166.539 208.209 166.739C208.227 166.939 208.203 167.141 208.141 167.332L206.63 172.653C206.551 172.886 206.422 173.097 206.248 173.271C206.074 173.445 205.863 173.579 205.63 173.659Z" fill="#EAC5AC"/>
<path d="M210.667 173.559H209.765C209.391 173.422 209.078 173.146 208.892 172.794C208.706 172.441 208.656 172.032 208.755 171.646L210.265 166.227C210.441 165.903 210.719 165.647 211.06 165.506C211.401 165.365 211.785 165.346 212.139 165.452C212.492 165.558 212.794 165.784 213.002 166.09C213.209 166.395 213.308 166.762 213.276 167.129L211.668 172.45C211.633 172.715 211.524 172.964 211.344 173.162C211.165 173.359 210.928 173.499 210.667 173.559Z" fill="#EAC5AC"/>
<path d="M239.385 178.783C239.385 178.783 242.994 188.822 250.125 186.512C257.256 184.202 254.442 176.472 253.136 170.848L243.092 167.832L239.385 178.783Z" fill="#E27E7C"/>
<path d="M212.758 120.527C212.758 120.527 208.635 123.542 210.443 126.957C211.044 128.119 211.997 129.067 213.16 129.669C213.337 129.73 213.492 129.844 213.601 129.997C213.71 130.15 213.768 130.334 213.768 130.522C213.768 130.71 213.71 130.894 213.601 131.047C213.492 131.2 213.337 131.314 213.16 131.375C210.243 132.677 207.11 133.429 203.92 133.587C201.281 133.893 198.752 134.838 196.564 136.343C194.375 137.849 192.594 139.868 191.365 142.224L192.268 126.756C192.374 124.822 192.985 122.948 194.043 121.326C195.101 119.705 196.564 118.393 198.29 117.516C200.189 116.507 202.348 116.074 204.489 116.27C206.63 116.466 208.661 117.283 210.345 118.619L212.758 120.527Z" fill="#EBB14E"/>
<path d="M230.534 164.016C224.394 164.844 218.8 167.967 214.87 172.756C214.347 173.666 214.019 174.67 213.899 175.713C213.778 176.755 213.872 177.812 214.173 178.817C214.474 179.823 214.971 180.759 215.644 181.564C216.317 182.369 217.151 183.027 218.087 183.501C222.232 184.408 226.517 184.43 230.671 183.565C234.825 182.699 238.748 180.966 242.186 178.479C246.204 174.763 245.305 172.053 244.903 170.848C244.502 169.643 246.611 174.562 257.458 171.549C259.265 171.023 260.987 170.246 262.578 169.239C265.591 167.331 269.504 163.816 267.394 159.195C264.18 152.566 254.745 154.676 246.208 159.195C243.058 161.356 239.369 162.605 235.556 162.81C233.848 163.053 232.166 163.457 230.534 164.016Z" fill="#EAC5AC"/>
<path d="M237.172 159.999C235.244 160.583 233.601 161.863 232.562 163.588C231.523 165.314 231.166 167.359 231.551 169.336C232.958 176.668 244.911 170.847 244.911 170.847C244.911 170.847 252.839 167.227 248.52 161.602C247.076 160.111 245.181 159.147 243.126 158.856C241.07 158.565 238.973 158.967 237.172 159.999Z" fill="#4A1E0E"/>
<path d="M104.647 186.573L66.9741 198.012C60.6577 199.93 57.0878 206.606 59.0056 212.922L65.9219 235.701C67.8397 242.017 74.5188 245.581 80.8351 243.663L118.508 232.224C124.825 230.306 128.395 223.631 126.477 217.314L119.56 194.536C117.643 188.219 110.964 184.656 104.647 186.573Z" fill="#F9F7F0"/>
<path d="M93.0281 279.925L182.119 252.805L195.076 248.891C199.194 247.686 205.114 244.07 203.708 238.847C202.301 233.624 195.17 233.321 191.153 234.527L102.17 261.647L89.2125 265.561C85.0945 266.766 79.1674 270.382 80.4731 275.605C81.7788 280.828 89.1109 281.131 93.0281 279.925Z" fill="#706456"/>
<path d="M101.491 307.843L152.711 292.276L160.146 289.967C162.557 289.263 165.871 287.256 165.168 284.243C164.465 281.23 160.149 281.029 157.939 281.732L106.709 297.298L99.2843 299.608C96.8738 300.311 93.4588 302.318 94.2623 305.332C95.0658 308.345 99.1811 308.546 101.491 307.843Z" fill="#706456"/>
<g opacity="0.91">
<path d="M309.474 64.882L353.269 51.6258L359.596 49.7181C362.968 48.8268 366.026 47.0188 368.433 44.495C369.391 43.5379 370.097 42.355 370.483 41.0571C370.869 39.7592 370.919 38.385 370.64 37.0601C368.531 30.8329 360.595 30.029 354.77 31.636L311.083 44.8972L304.658 46.903C301.308 47.7216 298.269 49.5047 295.919 52.028C294.979 52.9997 294.28 54.1749 293.879 55.4659C293.477 56.7568 293.381 58.1247 293.604 59.4579C295.713 65.6852 304.151 66.5895 309.474 64.882Z" fill="#0C8362"/>
</g>
<path d="M421.98 187.72C420.574 186.515 418.262 187.723 417.056 188.627C411.555 193.603 406.73 199.272 402.697 205.498L399.577 209.617C398.962 210.433 398.299 211.205 397.577 211.927L396.87 212.732C395.665 208.915 394.959 204.898 394.055 200.981C393.151 197.064 389.741 199.374 388.435 200.981C384.86 205.095 381.886 209.692 379.597 214.639C378.894 215.845 378.29 217.051 377.587 218.156L376.979 218.857C376.979 217.752 375.973 216.145 375.772 215.743C375.571 215.341 374.872 212.33 374.37 210.623C373.867 208.915 370.248 209.116 368.641 210.623C364.438 214.319 360.729 218.538 357.597 223.178C355.387 226.191 353.279 229.605 350.868 232.618C350.868 231.514 350.868 230.406 350.868 230.004C350.718 227.864 350.718 225.72 350.868 223.58C351.147 219.327 351.885 215.117 353.075 211.025C353.075 209.217 351.37 208.514 350.064 208.715C349.137 208.889 348.275 209.316 347.582 209.956C346.89 210.595 346.398 211.42 346.15 212.329C344.433 218.197 343.649 224.296 343.836 230.407C343.836 234.525 343.835 243.665 350.564 240.45C352.898 238.903 354.883 236.886 356.39 234.526C358.299 232.316 359.911 229.904 361.618 227.493C363.826 224.286 366.207 221.203 368.749 218.254C369.125 220.631 370.085 222.875 371.554 224.781C372.172 225.351 372.905 225.786 373.703 226.052C374.5 226.317 375.348 226.412 376.184 226.326C377.02 226.241 377.821 225.978 378.548 225.556C379.275 225.135 379.903 224.562 380.392 223.879C383.827 219.778 386.676 215.212 388.837 210.319L389.435 213.232C389.938 215.14 390.143 217.551 391.75 218.857C395.266 221.669 400.08 217.952 402.491 215.341C408.278 207.187 414.694 199.496 421.676 192.34C422.881 190.833 423.386 188.825 421.98 187.72Z" fill="#067455"/>
</svg>
