<svg width="492" height="210" viewBox="0 0 492 210" fill="none" xmlns="http://www.w3.org/2000/svg">
<g style="mix-blend-mode:multiply">
<path d="M79.3766 64.7721C82.7066 67.4721 83.3366 71.2521 80.0966 74.2221C77.0366 77.1021 73.7966 76.6521 71.0966 73.2321C68.6666 70.0821 65.6966 66.7521 62.6366 63.5121V75.3021C62.6366 86.3721 51.1166 88.3521 38.2466 82.3221C36.4466 81.5121 35.9066 79.9821 36.4466 78.1821C36.9866 76.3821 38.1566 75.6621 40.3166 75.9321C47.7866 76.7421 48.9566 76.2021 48.9566 71.7021V65.1321C46.2566 67.6521 43.2866 69.9021 40.4066 71.6121C37.8866 73.0521 35.5466 73.1421 33.8366 71.6121C34.1066 73.8621 33.0266 75.2121 30.5966 75.9321C27.6266 76.8321 25.5566 75.7521 24.9266 72.7821C23.7566 67.4721 22.1366 62.3421 20.7866 58.4721C20.1566 56.6721 20.7866 55.5021 22.1366 54.7821C23.5766 54.1521 24.7466 54.6921 25.8266 56.0421C27.8966 58.6521 30.0566 62.0721 31.7666 65.7621C32.0366 63.7821 33.4766 62.0721 35.6366 61.5321C39.6866 60.4521 44.3666 58.8321 48.9566 56.5821V38.9421H34.0166C31.6766 38.9421 30.3266 37.5921 30.3266 35.2521C30.3266 32.9121 31.6766 31.5621 34.0166 31.5621H56.2466L57.3266 27.4221H46.7966C45.4466 30.3021 42.7466 31.2921 39.2366 30.5721C35.5466 29.8521 34.4666 27.6021 35.4566 24.0921C37.2566 17.4321 39.2366 9.0621 40.2266 4.8321C40.9466 1.7721 44.1866 0.602099 47.2466 1.0521C50.5766 1.5921 52.5566 3.6621 52.1966 6.5421H60.6566C62.1866 4.1121 65.1566 3.0321 68.3966 3.6621C71.9066 4.3821 74.2466 6.9921 73.2566 11.8521C72.3566 16.1721 70.1066 24.7221 68.0366 31.5621H77.7566C80.0966 31.5621 81.4466 32.9121 81.4466 35.2521C81.4466 37.5921 80.0966 38.9421 77.7566 38.9421H62.6366V52.7121C64.6166 49.8321 66.4166 46.6821 67.8566 43.6221C69.4766 40.4721 72.8066 39.4821 75.7766 41.4621C78.9266 43.5321 79.2866 46.6821 76.7666 49.2921C73.7966 52.4421 70.5566 55.1421 67.6766 57.0321C72.0866 59.3721 75.9566 61.9821 79.3766 64.7721ZM6.20657 44.3421H7.91657C10.4366 40.5621 12.6866 36.8721 14.6666 33.2721C12.4166 34.1721 10.0766 34.9821 7.82657 35.5221C3.77657 36.5121 0.716566 34.3521 0.446565 30.1221C0.176565 26.2521 2.33657 23.7321 6.02657 23.9121C8.09657 17.3421 9.35657 11.5821 10.1666 6.1821C10.7966 1.9521 14.4866 0.5121 18.2666 1.2321C22.1366 1.9521 23.8466 5.1921 22.6766 8.7921C21.0566 13.6521 17.6366 19.6821 14.1266 24.3621C15.7466 24.4521 17.4566 24.4521 19.0766 24.5421C20.2466 21.9321 21.3266 19.5021 22.2266 17.0721C23.6666 13.1121 27.2666 12.2121 30.5066 13.5621C34.1066 15.0921 35.6366 18.2421 33.5666 21.9321C29.4266 29.3121 24.0266 36.8721 17.0066 43.8921C19.2566 43.8021 21.4166 43.5321 23.5766 43.2621C23.3966 42.7221 23.3066 42.0921 23.1266 41.5521C22.5866 39.4821 23.2166 38.1321 24.7466 37.5021C26.3666 36.8721 27.5366 37.5021 28.7066 39.0321C30.9566 42.0021 33.0266 45.8721 34.5566 49.7421C35.8166 52.8021 34.7366 55.4121 31.4066 56.3121C28.2566 57.1221 26.1866 55.7721 25.6466 52.8021L24.9266 49.3821C19.7066 52.1721 14.1266 54.2421 7.91657 56.0421C3.59657 57.3021 0.536565 55.3221 0.0865656 51.1821C-0.453434 47.2221 1.52657 44.4321 6.20657 44.3421ZM48.8666 20.2221H59.2166C59.6666 18.1521 60.1166 16.3521 60.3866 14.9121C60.5666 14.1921 60.1166 13.7421 59.3966 13.7421H50.5766C50.0366 15.9021 49.4966 18.0621 48.8666 20.2221ZM44.9966 55.7721C42.1166 57.5721 38.7866 56.6721 37.7066 53.7921C36.6266 50.9121 35.2766 47.5821 34.0166 45.1521C33.1166 43.4421 33.4766 42.0021 34.7366 40.9221C35.9966 39.8421 37.6166 40.0221 39.0566 41.1921C42.0266 43.6221 44.4566 45.9621 46.4366 48.8421C48.2366 51.4521 47.6066 54.1521 44.9966 55.7721ZM18.6266 58.8321C20.6966 63.6921 22.6766 70.2621 23.6666 75.9321C24.2966 79.4421 23.0366 81.4221 19.5266 81.7821C16.0166 82.1421 13.8566 80.7021 13.8566 76.9221C13.8566 71.0721 13.4966 64.5921 12.8666 60.0921C12.6866 58.0221 13.4966 56.8521 15.2066 56.4921C16.9166 56.1321 17.9066 57.1221 18.6266 58.8321ZM7.55657 57.7521C9.35657 57.8421 10.3466 59.1921 10.6166 61.3521C11.5166 67.5621 11.7866 73.6821 11.5166 79.3521C11.3366 83.4921 8.27657 85.2921 4.22657 84.3021C0.446565 83.4021 -0.723435 80.7921 0.446565 77.3721C2.33657 72.0621 3.41657 66.7521 4.22657 60.7221C4.49657 58.6521 5.93657 57.6621 7.55657 57.7521Z" fill="#594A39"/>
<path d="M183.867 58.9221C187.647 79.5321 184.137 82.5921 169.017 83.0421C154.257 83.4921 141.567 83.5821 130.227 83.1321C115.017 82.5021 112.137 80.0721 112.137 67.5621V39.1221C110.697 40.1121 109.347 40.9221 107.997 41.6421C105.927 42.7221 103.947 42.4521 102.777 40.5621C101.607 38.7621 101.967 37.0521 103.857 35.3421C111.777 28.3221 118.887 16.8921 123.207 5.2821C125.007 0.5121 129.147 -0.657901 133.737 1.1421C137.697 2.6721 138.687 6.0921 137.427 9.9621H147.687C150.567 7.4421 155.067 6.9021 158.397 8.6121C162.087 10.5021 163.707 14.1921 160.557 19.3221C159.117 21.6621 157.137 24.0921 154.977 26.2521H169.557C173.337 26.2521 175.407 28.3221 175.407 32.1021V50.2821C175.407 54.0621 173.337 56.1321 169.557 56.1321H126.357V62.3421C126.357 69.1821 127.167 69.9921 134.277 70.3521C144.897 70.8921 158.037 70.8021 167.847 70.3521C175.497 69.9921 176.487 68.8221 176.487 59.5521C176.487 57.0321 177.837 55.6821 179.817 55.6821C181.977 55.6821 183.417 56.6721 183.867 58.9221ZM146.967 19.5021C147.237 18.6921 146.787 18.2421 146.067 18.2421H132.927C131.127 20.9421 128.967 23.7321 126.627 26.2521H143.997C145.257 23.9121 146.157 21.8421 146.967 19.5021ZM137.427 48.0321V34.3521H127.437C126.807 34.3521 126.357 34.8021 126.357 35.4321V48.0321H137.427ZM162.087 35.4321C162.087 34.8021 161.637 34.3521 161.007 34.3521H150.927V48.0321H160.647C161.817 48.0321 162.087 47.6721 162.087 46.5021V35.4321Z" fill="#594A39"/>
<path d="M281.517 14.4621C284.037 14.4621 285.477 15.9021 285.477 18.4221C285.477 20.9421 284.037 22.3821 281.517 22.3821H235.347C232.827 22.3821 231.387 20.9421 231.387 18.4221C231.387 15.9021 232.827 14.4621 235.347 14.4621H250.017V6.4521C250.017 3.1221 252.717 0.602099 257.757 0.602099C262.707 0.602099 265.497 3.0321 265.497 6.4521V14.4621H281.517ZM232.647 10.5021C231.657 14.7321 230.217 19.0521 228.417 23.3721V79.6221C228.417 83.7621 225.987 85.5621 221.577 85.5621C217.167 85.5621 214.737 83.7621 214.737 79.6221V45.5121C213.387 47.1321 211.947 48.5721 210.507 49.9221C208.797 51.4521 207.087 51.7221 205.827 50.6421C204.297 49.2021 204.207 47.6721 205.287 45.7821C211.317 35.3421 216.087 21.1221 218.337 7.7121C219.237 2.3121 222.297 0.422096 227.157 1.3221C231.927 2.2221 233.817 5.2821 232.647 10.5021ZM277.557 27.7821C280.077 27.7821 281.517 29.2221 281.517 31.7421C281.517 34.2621 280.077 35.7021 277.557 35.7021H238.047C235.527 35.7021 234.087 34.2621 234.087 31.7421C234.087 29.2221 235.527 27.7821 238.047 27.7821H277.557ZM277.377 40.0221C279.897 40.0221 281.337 41.4621 281.337 43.9821C281.337 46.5021 279.897 47.9421 277.377 47.9421H238.317C235.797 47.9421 234.357 46.5021 234.357 43.9821C234.357 41.4621 235.797 40.0221 238.317 40.0221H277.377ZM274.767 53.2521C278.547 53.2521 280.617 55.3221 280.617 59.1021V79.7121C280.617 83.7621 278.097 85.5621 273.507 85.5621C268.917 85.5621 266.397 83.7621 266.397 79.7121V78.3621H249.207V79.7121C249.207 83.7621 246.687 85.5621 242.097 85.5621C237.507 85.5621 234.987 83.7621 234.987 79.7121V59.1021C234.987 55.3221 237.057 53.2521 240.837 53.2521H274.767ZM249.207 70.8021H266.397V61.8921C266.397 61.2621 265.947 60.8121 265.317 60.8121H250.287C249.657 60.8121 249.207 61.2621 249.207 61.8921V70.8021Z" fill="#594A39"/>
<path d="M377.457 5.3721C381.237 5.3721 383.307 7.4421 383.307 11.2221V75.3921C383.307 85.4721 372.957 88.2621 360.627 82.6821C358.827 81.8721 358.467 80.4321 358.827 78.6321C359.187 76.7421 360.177 75.9321 362.517 76.1121C368.457 76.5621 369.897 75.6621 369.897 72.6921V54.9621H356.307V77.2821C356.307 81.6921 354.237 83.8521 349.827 83.8521C345.417 83.8521 342.987 81.4221 342.987 77.2821V54.9621H329.127C327.867 68.6421 324.177 77.8221 315.987 84.7521C314.367 86.1021 312.567 86.1021 311.127 84.8421C309.597 83.5821 309.597 81.9621 310.587 80.0721C314.997 71.5221 315.987 64.0521 315.987 42.9021V11.2221C315.987 7.4421 318.057 5.3721 321.837 5.3721H377.457ZM342.987 25.8921V13.2921H330.747C330.117 13.2921 329.667 13.7421 329.667 14.3721V25.8921H342.987ZM369.627 25.8921V14.3721C369.627 13.7421 369.177 13.2921 368.547 13.2921H356.307V25.8921H369.627ZM342.987 47.2221V33.6321H329.667V41.2821C329.667 43.3521 329.667 45.3321 329.577 47.2221H342.987ZM369.627 47.2221V33.6321H356.307V47.2221H369.627Z" fill="#594A39"/>
<path d="M487.527 31.6521C490.317 31.6521 491.847 33.2721 491.847 36.1521C491.847 39.0321 490.317 40.6521 487.527 40.6521H455.937V44.8821C463.587 47.4921 472.407 51.1821 480.147 55.7721C484.467 58.3821 485.637 63.1521 482.667 66.9321C479.877 70.5321 475.827 71.5221 472.047 67.9221C467.097 63.1521 461.337 58.1121 455.937 53.8821V79.1721C455.937 83.2221 453.237 85.9221 448.287 85.9221C443.337 85.9221 440.637 83.2221 440.637 79.1721V40.6521H415.077C412.287 40.6521 410.757 39.0321 410.757 36.1521C410.757 33.2721 412.287 31.6521 415.077 31.6521H440.637V6.9021C440.637 2.8521 443.337 0.1521 448.287 0.1521C453.237 0.1521 455.937 2.8521 455.937 6.9021V13.4721H480.147C482.847 13.4721 484.287 15.0921 484.287 17.7921C484.287 20.4921 482.757 22.1121 480.147 22.1121H455.937V31.6521H487.527Z" fill="#594A39"/>
</g>
<g style="mix-blend-mode:multiply">
<path d="M30.1498 175.682C29.0698 174.882 28.2298 173.742 27.6298 172.262C27.0698 170.742 26.8098 169.342 26.8498 168.062C26.8098 165.582 27.0098 163.022 27.4498 160.382C27.9298 157.742 28.5498 155.282 29.3098 153.002C29.8298 151.562 30.3898 150.102 30.9898 148.622C31.5898 147.142 32.2098 145.742 32.8498 144.422C33.4898 143.062 34.1098 141.922 34.7098 141.002C35.9498 138.882 37.2098 137.182 38.4898 135.902C39.8098 134.622 40.8098 133.782 41.4898 133.382C42.6098 132.822 43.9498 132.402 45.5098 132.122C47.0698 131.802 48.5898 131.802 50.0698 132.122C51.1098 132.402 52.1298 132.802 53.1298 133.322C54.1698 133.842 55.0698 134.482 55.8298 135.242C56.2698 135.642 56.6098 136.062 56.8498 136.502C57.0898 136.942 57.2098 137.402 57.2098 137.882C57.2098 138.482 56.9298 139.062 56.3698 139.622C55.8098 140.182 55.1898 140.562 54.5098 140.762C53.8298 140.962 53.3098 140.842 52.9498 140.402C52.4298 139.602 51.9298 139.002 51.4498 138.602C50.9698 138.162 50.4698 137.842 49.9498 137.642C49.5098 137.362 48.9098 137.222 48.1498 137.222C47.4298 137.222 46.6498 137.362 45.8098 137.642C44.9698 137.882 44.1698 138.322 43.4098 138.962C43.1298 139.202 42.7498 139.542 42.2698 139.982C41.8298 140.422 41.3498 140.962 40.8298 141.602C40.3498 142.202 39.9098 142.862 39.5098 143.582C38.3898 145.422 37.4298 147.302 36.6298 149.222C35.8698 151.102 35.1898 153.162 34.5898 155.402C34.3098 156.322 34.0098 157.462 33.6898 158.822C33.3698 160.142 33.0698 161.462 32.7898 162.782C32.5498 164.102 32.3898 165.262 32.3098 166.262C32.1898 167.662 32.2298 168.762 32.4298 169.562C32.6298 170.362 33.0498 170.902 33.6898 171.182C34.3298 171.422 35.2298 171.402 36.3898 171.122C37.4298 170.882 38.4698 170.482 39.5098 169.922C40.5898 169.322 41.6298 168.582 42.6298 167.702C43.6298 166.782 44.5298 165.702 45.3298 164.462C46.0498 163.102 46.6298 161.862 47.0698 160.742C47.5498 159.622 47.7898 158.742 47.7898 158.102C47.8298 157.422 47.4898 157.102 46.7698 157.142C45.1298 157.182 43.8098 157.122 42.8098 156.962C41.8498 156.802 41.1898 156.402 40.8298 155.762C40.3098 155.642 40.0298 155.202 39.9898 154.442C39.9898 153.682 40.3698 153.062 41.1298 152.582C41.8098 152.222 42.7498 152.002 43.9498 151.922C45.1498 151.842 46.3698 151.882 47.6098 152.042C48.8898 152.162 49.9098 152.442 50.6698 152.882C51.5498 153.322 52.1498 153.982 52.4698 154.862C52.8298 155.702 53.0098 156.602 53.0098 157.562C53.0498 158.522 52.9898 159.422 52.8298 160.262C52.4698 161.662 51.9698 163.022 51.3298 164.342C50.7298 165.662 49.9098 167.002 48.8698 168.362C48.2698 169.202 47.4498 170.082 46.4098 171.002C45.3698 171.922 44.2698 172.742 43.1098 173.462C41.9898 174.222 40.9298 174.822 39.9298 175.262C38.3298 175.982 36.6498 176.502 34.8898 176.822C33.1698 177.142 31.5898 176.762 30.1498 175.682ZM62.1982 171.302C61.8382 171.022 61.4382 170.662 60.9982 170.222C60.5982 169.782 60.4582 169.162 60.5782 168.362C60.6982 167.242 60.8582 166.262 61.0582 165.422C61.2582 164.542 61.4982 163.542 61.7782 162.422C61.8582 161.942 62.0582 161.122 62.3782 159.962C62.7382 158.802 63.1582 157.542 63.6382 156.182C64.1182 154.822 64.6182 153.542 65.1382 152.342C65.6582 151.102 66.1182 150.182 66.5182 149.582C66.9582 149.182 67.5982 148.982 68.4382 148.982C69.3182 148.982 69.9182 149.142 70.2382 149.462C70.6782 149.822 70.8182 150.462 70.6582 151.382C70.4982 152.262 69.9382 153.642 68.9782 155.522C68.7782 156.002 68.5182 156.522 68.1982 157.082C67.9182 157.602 67.7182 158.042 67.5982 158.402C67.4782 158.722 67.5182 158.862 67.7182 158.822C67.9582 158.382 68.3982 157.882 69.0382 157.322C69.6782 156.722 70.3582 156.142 71.0782 155.582C71.7982 155.022 72.4782 154.522 73.1182 154.082C73.7582 153.642 74.1982 153.362 74.4382 153.242C74.7582 153.042 75.1182 152.882 75.5182 152.762C75.9582 152.602 76.2582 152.482 76.4182 152.402C77.3382 151.962 78.3382 151.802 79.4182 151.922C80.5382 152.002 81.2182 152.342 81.4582 152.942C81.4982 153.262 81.6182 153.502 81.8182 153.662C82.0582 153.822 82.1782 153.902 82.1782 153.902C82.3382 153.902 82.4182 153.962 82.4182 154.082C82.4582 154.202 82.4782 154.262 82.4782 154.262C82.4782 154.542 82.1982 154.942 81.6382 155.462C81.1182 155.982 80.5382 156.262 79.8982 156.302C79.3782 156.342 78.9182 156.442 78.5182 156.602C78.1182 156.762 77.6382 156.962 77.0782 157.202C75.5582 158.082 74.1782 158.862 72.9382 159.542C71.7382 160.222 70.4982 161.262 69.2182 162.662C68.9382 162.982 68.6382 163.282 68.3182 163.562C67.9982 163.842 67.6782 164.242 67.3582 164.762C67.1582 164.962 66.9582 165.402 66.7582 166.082C66.5582 166.762 66.3782 167.422 66.2182 168.062C66.0982 168.662 66.0382 169.022 66.0382 169.142C66.0382 169.142 65.9782 169.342 65.8582 169.742C65.7382 170.102 65.5382 170.462 65.2582 170.822C64.7782 171.462 64.2982 171.862 63.8182 172.022C63.3782 172.182 62.8382 171.942 62.1982 171.302ZM99.0593 171.722C97.8593 172.402 96.5793 172.802 95.2193 172.922C93.8993 173.002 92.6593 172.822 91.4993 172.382C90.3393 171.902 89.3993 171.202 88.6793 170.282C88.2793 169.762 87.8993 168.942 87.5393 167.822C87.1793 166.662 87.1193 165.102 87.3593 163.142C87.5993 161.302 88.1593 159.442 89.0393 157.562C89.9593 155.682 91.0793 154.022 92.3993 152.582C93.7193 151.142 95.1593 150.162 96.7193 149.642C97.2793 149.442 97.8393 149.302 98.3993 149.222C98.9993 149.102 99.7793 149.082 100.739 149.162C101.659 149.282 102.479 149.522 103.199 149.882C103.919 150.202 104.439 150.562 104.759 150.962C105.399 151.602 105.819 152.222 106.019 152.822C106.219 153.422 106.299 154.002 106.259 154.562C106.059 155.842 105.479 157.222 104.519 158.702C103.599 160.182 102.299 161.282 100.619 162.002C99.9393 162.282 99.1393 162.462 98.2193 162.542C97.2993 162.622 96.0393 162.502 94.4393 162.182C93.4793 161.982 92.8393 162.082 92.5193 162.482C92.2393 162.882 92.1193 163.662 92.1593 164.822C92.2393 165.542 92.3993 166.182 92.6393 166.742C92.9193 167.262 93.4193 167.622 94.1393 167.822C95.0593 167.982 95.7193 168.002 96.1193 167.882C96.5193 167.722 97.0193 167.502 97.6193 167.222C97.9393 167.022 98.2393 166.802 98.5193 166.562C98.8393 166.322 99.1393 166.082 99.4193 165.842C99.7393 165.602 99.9993 165.422 100.199 165.302C100.399 165.142 100.599 165.042 100.799 165.002C100.999 164.962 101.199 164.942 101.399 164.942C101.839 164.982 102.259 165.222 102.659 165.662C103.059 166.102 103.319 166.522 103.439 166.922C103.439 167.242 103.239 167.702 102.839 168.302C102.439 168.862 101.899 169.462 101.219 170.102C100.579 170.702 99.8593 171.242 99.0593 171.722ZM98.2793 158.342C98.5593 158.222 98.9593 157.942 99.4793 157.502C100.039 157.062 100.539 156.602 100.979 156.122C101.419 155.602 101.639 155.202 101.639 154.922C101.639 154.482 101.339 154.102 100.739 153.782C100.179 153.462 99.4393 153.402 98.5193 153.602C98.1993 153.682 97.8193 153.902 97.3793 154.262C96.9393 154.622 96.4993 155.042 96.0593 155.522C95.6193 155.962 95.2393 156.402 94.9193 156.842C94.5993 157.242 94.3793 157.562 94.2593 157.802C94.4193 158.002 94.7393 158.162 95.2193 158.282C95.6993 158.402 96.2193 158.462 96.7793 158.462C97.3793 158.462 97.8793 158.422 98.2793 158.342ZM118.378 174.002C116.178 174.002 114.478 173.362 113.278 172.082C112.118 170.802 111.538 168.842 111.538 166.202C111.538 164.762 111.798 163.182 112.318 161.462C112.878 159.742 113.598 158.062 114.478 156.422C115.398 154.782 116.398 153.362 117.478 152.162C118.558 150.922 119.638 150.062 120.718 149.582C121.118 149.382 121.538 149.242 121.978 149.162C122.458 149.042 122.918 148.982 123.358 148.982C123.838 148.982 124.358 149.022 124.918 149.102C125.518 149.142 126.078 149.262 126.598 149.462C127.518 149.742 128.318 150.282 128.998 151.082C129.718 151.882 130.078 153.042 130.078 154.562C130.078 154.962 130.038 155.402 129.958 155.882C129.878 156.322 129.738 156.762 129.538 157.202C129.018 158.522 128.218 159.782 127.138 160.982C126.098 162.182 124.998 163.022 123.838 163.502C123.518 163.662 123.198 163.782 122.878 163.862C122.598 163.902 122.298 163.922 121.978 163.922C121.138 163.922 120.378 163.802 119.698 163.562C119.058 163.322 118.458 163.002 117.898 162.602L117.418 162.182L117.118 162.782C116.838 163.542 116.638 164.182 116.518 164.702C116.438 165.222 116.398 165.602 116.398 165.842C116.398 166.322 116.418 166.822 116.458 167.342C116.498 167.822 116.618 168.222 116.818 168.542C116.978 168.742 117.178 168.902 117.418 169.022C117.698 169.142 118.038 169.202 118.438 169.202C118.678 169.202 118.898 169.202 119.098 169.202C119.338 169.162 119.538 169.122 119.698 169.082C120.418 168.922 120.998 168.662 121.438 168.302C121.918 167.902 122.418 167.562 122.938 167.282L123.178 167.162L123.118 166.982C123.798 166.622 124.258 166.402 124.498 166.322C124.738 166.202 124.918 166.102 125.038 166.022C125.198 165.862 125.378 165.782 125.578 165.782C126.138 165.702 126.678 165.862 127.198 166.262C127.758 166.622 128.038 167.082 128.038 167.642C128.038 167.882 127.858 168.262 127.498 168.782C127.178 169.302 126.758 169.822 126.238 170.342C125.758 170.822 125.258 171.202 124.738 171.482C124.618 171.522 124.498 171.582 124.378 171.662C124.258 171.702 124.138 171.762 124.018 171.842H124.078C123.718 172.322 123.358 172.562 122.998 172.562H122.518C122.358 172.842 121.838 173.142 120.958 173.462C120.078 173.822 119.218 174.002 118.378 174.002ZM121.498 159.542C121.858 159.542 122.178 159.482 122.458 159.362C122.778 159.242 123.078 159.102 123.358 158.942C124.318 158.262 124.938 157.382 125.218 156.302C125.498 155.222 125.398 154.402 124.918 153.842C124.838 153.722 124.738 153.642 124.618 153.602C124.498 153.522 124.358 153.482 124.198 153.482C123.758 153.482 123.258 153.622 122.698 153.902C122.178 154.182 121.658 154.582 121.138 155.102C120.618 155.622 120.138 156.242 119.698 156.962L118.918 158.222C118.998 158.182 119.058 158.162 119.098 158.162C119.178 158.122 119.238 158.102 119.278 158.102C119.638 158.102 119.878 158.222 119.998 158.462C120.118 158.702 120.258 158.942 120.418 159.182C120.618 159.422 120.978 159.542 121.498 159.542ZM156.297 172.682C155.697 172.682 155.117 172.502 154.557 172.142C153.997 171.742 153.537 171.202 153.177 170.522C152.817 169.802 152.637 168.962 152.637 168.002C152.637 167.402 152.737 166.562 152.937 165.482C153.177 164.362 153.517 162.962 153.957 161.282C154.037 160.722 154.097 160.362 154.137 160.202C154.217 160.042 154.257 159.882 154.257 159.722C154.257 159.642 154.237 159.582 154.197 159.542C154.197 159.462 154.157 159.422 154.077 159.422C153.757 159.422 153.317 159.642 152.757 160.082C152.237 160.482 151.637 160.962 150.957 161.522C150.837 161.602 150.697 161.702 150.537 161.822C150.417 161.942 150.277 162.062 150.117 162.182C149.997 162.302 149.857 162.422 149.697 162.542C149.297 162.782 148.677 163.242 147.837 163.922C147.037 164.602 146.197 165.322 145.317 166.082C144.477 166.842 143.737 167.482 143.097 168.002C142.777 168.242 142.497 168.442 142.257 168.602C142.057 168.762 141.917 168.842 141.837 168.842C141.757 168.842 141.437 168.742 140.877 168.542C140.357 168.302 139.837 167.982 139.317 167.582C138.837 167.142 138.597 166.642 138.597 166.082C138.597 165.722 138.737 165.002 139.017 163.922C139.337 162.842 139.777 161.562 140.337 160.082C140.897 158.602 141.537 157.102 142.257 155.582C142.417 155.222 142.537 154.742 142.617 154.142C142.697 153.542 142.777 152.962 142.857 152.402C142.977 151.802 143.177 151.362 143.457 151.082C143.577 150.882 143.717 150.742 143.877 150.662C144.077 150.542 144.277 150.482 144.477 150.482C144.877 150.482 145.257 150.582 145.617 150.782C145.977 150.942 146.317 151.222 146.637 151.622C147.237 152.262 147.557 153.022 147.597 153.902C147.677 154.742 147.617 155.562 147.417 156.362C147.217 157.162 146.997 157.822 146.757 158.342C146.517 158.822 146.397 159.022 146.397 158.942C146.557 158.862 146.777 158.662 147.057 158.342C147.377 158.022 147.917 157.642 148.677 157.202C149.717 156.402 150.517 155.842 151.077 155.522C151.637 155.162 152.057 154.902 152.337 154.742C152.657 154.582 152.937 154.402 153.177 154.202C153.377 154.042 153.517 153.942 153.597 153.902C153.717 153.862 153.777 153.842 153.777 153.842C153.897 153.842 154.097 153.762 154.377 153.602C154.697 153.442 154.997 153.362 155.277 153.362C155.677 153.362 156.097 153.462 156.537 153.662C156.977 153.822 157.357 154.062 157.677 154.382C157.997 154.662 158.157 154.962 158.157 155.282C158.157 155.402 158.197 155.502 158.277 155.582C158.357 155.662 158.437 155.762 158.517 155.882C158.717 156.122 158.937 156.462 159.177 156.902C159.457 157.302 159.597 157.962 159.597 158.882C159.597 159.522 159.457 160.462 159.177 161.702C158.897 162.942 158.597 164.162 158.277 165.362C157.957 166.602 157.797 167.602 157.797 168.362C157.837 169.082 157.917 169.642 158.037 170.042C158.157 170.402 158.217 170.702 158.217 170.942C158.217 171.262 158.057 171.642 157.737 172.082C157.417 172.482 156.937 172.682 156.297 172.682ZM201.668 175.982C201.028 176.022 200.108 175.982 198.908 175.862C197.748 175.742 196.508 175.442 195.188 174.962C193.908 174.482 192.748 173.782 191.708 172.862C190.708 171.902 190.048 170.622 189.728 169.022C189.248 166.782 189.148 164.342 189.428 161.702C189.708 159.062 190.188 156.462 190.868 153.902C191.068 153.182 191.448 152.262 192.008 151.142C192.568 149.982 193.228 148.742 193.988 147.422C194.788 146.102 195.608 144.822 196.448 143.582C197.288 142.302 198.068 141.202 198.788 140.282C199.308 139.682 199.968 139.002 200.768 138.242C201.608 137.442 202.468 136.682 203.348 135.962C204.268 135.202 205.088 134.562 205.808 134.042C206.568 133.482 207.108 133.142 207.428 133.022C207.948 132.782 208.468 132.642 208.988 132.602C209.508 132.522 210.128 132.582 210.848 132.782C211.408 132.822 212.008 133.022 212.648 133.382C213.288 133.702 213.848 134.062 214.328 134.462C214.808 134.862 215.068 135.242 215.108 135.602C215.148 135.842 215.588 135.822 216.428 135.542C216.708 135.222 217.128 134.982 217.688 134.822C218.248 134.622 218.768 134.522 219.248 134.522C219.728 134.482 219.988 134.602 220.028 134.882C219.788 135.242 219.828 135.562 220.148 135.842C220.268 135.802 220.288 136.082 220.208 136.682C220.128 137.282 219.988 137.982 219.788 138.782C219.588 139.542 219.348 140.142 219.068 140.582C219.068 140.582 219.028 140.682 218.948 140.882C218.908 141.082 218.888 141.182 218.888 141.182C218.968 141.382 218.928 141.582 218.768 141.782C218.608 141.982 218.468 142.162 218.348 142.322C218.228 142.522 218.068 142.942 217.868 143.582C217.708 144.182 217.528 144.882 217.328 145.682C217.168 146.442 217.028 147.142 216.908 147.782C216.788 148.382 216.728 148.782 216.728 148.982C216.808 149.262 216.448 149.422 215.648 149.462C214.888 149.462 214.168 149.342 213.488 149.102C212.608 148.782 212.048 148.362 211.808 147.842C211.608 147.322 211.728 146.302 212.168 144.782C212.728 142.942 213.048 141.582 213.128 140.702C213.208 139.822 212.968 139.162 212.408 138.722C212.208 138.362 211.768 138.142 211.088 138.062C210.408 137.942 209.848 138.022 209.408 138.302C208.808 138.542 207.988 139.102 206.948 139.982C205.908 140.822 204.828 141.822 203.708 142.982C202.588 144.142 201.588 145.342 200.708 146.582C198.868 149.142 197.468 151.702 196.508 154.262C195.548 156.822 195.008 159.282 194.888 161.642C194.768 164.002 195.048 166.222 195.728 168.302C195.808 168.462 196.048 168.802 196.448 169.322C196.848 169.842 197.168 170.182 197.408 170.342C198.648 170.622 200.428 170.642 202.748 170.402C204.468 170.082 205.728 169.602 206.528 168.962C207.368 168.322 208.168 167.442 208.928 166.322C209.368 165.682 209.848 165.422 210.368 165.542C210.888 165.622 211.348 165.942 211.748 166.502C212.148 167.022 212.388 167.642 212.468 168.362C212.468 168.562 212.288 168.982 211.928 169.622C211.608 170.222 211.228 170.802 210.788 171.362C210.388 171.922 210.068 172.242 209.828 172.322C209.668 172.362 209.568 172.402 209.528 172.442C209.528 172.482 209.548 172.602 209.588 172.802C209.588 172.962 209.328 173.202 208.808 173.522C208.288 173.842 207.628 174.162 206.828 174.482C206.028 174.842 205.168 175.142 204.248 175.382C203.328 175.662 202.468 175.862 201.668 175.982ZM224.9 172.022C224.62 172.022 224.24 171.822 223.76 171.422C223.32 171.022 223.06 170.662 222.98 170.342C222.86 170.022 222.86 169.562 222.98 168.962C223.14 168.322 223.36 167.582 223.64 166.742C223.96 165.422 224.18 164.462 224.3 163.862C224.42 163.262 224.54 162.742 224.66 162.302C224.78 161.862 224.94 161.222 225.14 160.382C225.38 159.862 225.56 159.362 225.68 158.882C225.84 158.362 226 157.842 226.16 157.322C226.36 156.802 226.58 156.282 226.82 155.762C227.1 154.722 227.44 153.742 227.84 152.822C228.28 151.862 228.7 151.062 229.1 150.422C229.18 150.302 229.36 150.082 229.64 149.762C229.92 149.442 230.14 149.282 230.3 149.282C230.62 148.962 231.06 148.862 231.62 148.982C232.18 149.062 232.66 149.262 233.06 149.582C233.54 150.102 233.8 150.722 233.84 151.442C233.92 152.122 233.64 153.082 233 154.322C232.52 155.562 232.06 156.542 231.62 157.262C231.22 157.942 230.82 158.742 230.42 159.662C230.86 159.022 231.4 158.362 232.04 157.682C232.68 157.002 233.18 156.462 233.54 156.062C234.06 155.502 234.54 155.062 234.98 154.742C235.46 154.382 236.1 153.942 236.9 153.422C237.58 152.942 238.26 152.502 238.94 152.102C239.66 151.702 240.52 151.582 241.52 151.742C241.92 151.702 242.34 151.902 242.78 152.342C243.26 152.782 243.62 153.362 243.86 154.082C244.14 154.762 244.14 155.502 243.86 156.302C242.94 156.102 242.12 156.142 241.4 156.422C240.68 156.662 240.06 156.962 239.54 157.322C239.06 157.682 238.68 157.962 238.4 158.162C238 158.402 237.54 158.722 237.02 159.122C236.5 159.482 235.94 159.902 235.34 160.382C234.74 160.822 234.1 161.322 233.42 161.882C232.46 162.682 231.74 163.382 231.26 163.982C230.78 164.582 230.4 165.222 230.12 165.902C229.88 166.502 229.58 167.222 229.22 168.062C228.86 168.902 228.52 169.662 228.2 170.342C227.88 170.982 227.62 171.382 227.42 171.542C227.22 171.942 226.8 172.162 226.16 172.202C225.56 172.242 225.14 172.182 224.9 172.022ZM253.541 172.382C251.981 171.742 250.901 170.702 250.301 169.262C249.701 167.822 249.541 165.902 249.821 163.502C249.901 162.262 249.861 161.442 249.701 161.042C249.541 160.602 249.241 160.182 248.801 159.782C248.681 159.622 248.401 159.362 247.961 159.002C247.521 158.602 247.321 158.302 247.361 158.102C247.321 157.822 247.381 157.482 247.541 157.082C247.701 156.642 247.841 156.402 247.961 156.362C248.241 156.242 248.521 156.102 248.801 155.942C249.121 155.782 249.361 155.742 249.521 155.822C249.681 155.822 249.921 155.922 250.241 156.122C250.601 156.322 250.781 156.502 250.781 156.662C250.941 156.942 251.181 156.822 251.501 156.302C251.861 155.782 252.241 155.122 252.641 154.322C253.041 153.682 253.541 153.082 254.141 152.522C254.741 151.962 255.341 151.462 255.941 151.022C256.581 150.542 257.121 150.182 257.561 149.942C257.761 149.862 258.141 149.742 258.701 149.582C259.301 149.422 259.921 149.302 260.561 149.222C261.201 149.102 261.681 149.062 262.001 149.102C262.721 149.142 263.481 149.442 264.281 150.002C265.081 150.562 265.701 151.082 266.141 151.562C266.661 151.922 267.001 152.482 267.161 153.242C267.361 153.962 267.441 154.722 267.401 155.522C267.361 156.322 267.201 157.002 266.921 157.562C266.801 157.962 266.381 158.522 265.661 159.242C264.941 159.962 264.141 160.662 263.261 161.342C262.421 161.982 261.701 162.422 261.101 162.662C260.581 162.782 259.961 162.882 259.241 162.962C258.521 163.002 257.841 163.002 257.201 162.962C256.601 162.882 256.181 162.782 255.941 162.662C255.661 162.502 255.421 162.562 255.221 162.842C255.061 163.082 254.921 163.762 254.801 164.882C254.761 165.322 254.761 165.702 254.801 166.022C254.881 166.342 254.961 166.582 255.041 166.742C255.321 167.222 255.601 167.582 255.881 167.822C256.161 168.022 256.681 168.082 257.441 168.002C258.201 167.922 258.961 167.462 259.721 166.622C260.521 165.742 261.241 165.042 261.881 164.522C262.041 164.242 262.381 164.062 262.901 163.982C263.461 163.862 264.121 163.902 264.881 164.102C265.321 164.382 265.521 164.822 265.481 165.422C265.481 166.022 265.161 166.902 264.521 168.062C264.401 168.342 264.061 168.762 263.501 169.322C262.981 169.842 262.401 170.382 261.761 170.942C261.161 171.462 260.661 171.842 260.261 172.082C259.061 172.722 257.881 173.022 256.721 172.982C255.561 172.942 254.501 172.742 253.541 172.382ZM257.981 158.882C258.581 158.722 259.081 158.562 259.481 158.402C259.921 158.242 260.341 157.982 260.741 157.622C261.141 157.262 261.601 156.722 262.121 156.002C262.281 155.562 262.361 155.182 262.361 154.862C262.401 154.542 262.381 154.342 262.301 154.262C261.981 153.942 261.621 153.842 261.221 153.962C260.861 154.042 260.461 154.242 260.021 154.562C259.741 154.682 259.341 154.942 258.821 155.342C258.341 155.702 257.861 156.122 257.381 156.602C256.941 157.042 256.581 157.462 256.301 157.862C256.061 158.222 256.021 158.442 256.181 158.522C256.101 158.682 256.321 158.782 256.841 158.822C257.401 158.862 257.781 158.882 257.981 158.882ZM290.801 174.062C290.281 174.182 289.761 174.042 289.241 173.642C288.761 173.282 288.421 172.882 288.221 172.442C287.981 171.802 287.821 171.202 287.741 170.642C287.701 170.042 287.661 169.362 287.621 168.602L287.561 166.562L285.101 168.782C283.741 170.062 282.461 170.982 281.261 171.542C280.101 172.062 279.041 172.322 278.081 172.322C277.641 172.242 277.101 171.962 276.461 171.482C275.861 170.962 275.301 170.402 274.781 169.802C274.301 169.162 273.961 168.642 273.761 168.242C273.521 167.682 273.441 166.902 273.521 165.902C273.641 164.902 273.881 163.802 274.241 162.602C274.641 161.402 275.121 160.222 275.681 159.062C276.281 157.902 276.961 156.902 277.721 156.062C279.041 154.062 280.681 152.822 282.641 152.342C284.601 151.822 286.341 151.982 287.861 152.822C288.581 153.182 289.101 153.322 289.421 153.242C289.741 153.162 289.941 152.902 290.021 152.462C290.181 151.822 290.361 151.222 290.561 150.662C290.761 150.102 291.041 149.262 291.401 148.142C292.401 145.102 293.261 142.722 293.981 141.002C294.741 139.282 295.421 137.782 296.021 136.502C296.461 135.582 296.901 134.942 297.341 134.582C297.781 134.222 298.161 134.062 298.481 134.102C298.921 134.102 299.461 134.262 300.101 134.582C300.781 134.902 301.221 135.342 301.421 135.902C301.581 136.262 301.641 136.642 301.601 137.042C301.601 137.442 301.481 137.862 301.241 138.302C300.721 139.262 300.101 140.542 299.381 142.142C298.701 143.702 298.001 145.422 297.281 147.302C296.601 149.182 295.961 151.042 295.361 152.882C294.761 154.722 294.261 156.342 293.861 157.742C293.621 158.622 293.421 159.742 293.261 161.102C293.141 162.462 293.041 163.862 292.961 165.302C292.921 166.702 292.921 167.962 292.961 169.082C293.001 170.162 293.061 170.862 293.141 171.182C293.381 171.982 293.381 172.582 293.141 172.982C292.901 173.382 292.561 173.642 292.121 173.762C291.681 173.922 291.241 174.022 290.801 174.062ZM280.901 166.802C281.461 166.602 281.961 166.362 282.401 166.082C282.841 165.802 283.361 165.442 283.961 165.002C285.161 164.082 286.021 163.282 286.541 162.602C287.101 161.922 287.541 161.082 287.861 160.082C288.061 159.482 288.061 158.962 287.861 158.522C287.701 158.082 287.401 157.662 286.961 157.262C286.521 156.902 285.961 156.762 285.281 156.842C284.601 156.882 283.821 157.302 282.941 158.102C281.981 158.982 281.161 160.002 280.481 161.162C279.801 162.322 279.241 163.982 278.801 166.142C278.721 166.542 278.861 166.822 279.221 166.982C279.581 167.142 280.141 167.082 280.901 166.802ZM303.481 171.902C303.161 171.582 302.921 171.102 302.761 170.462C302.641 169.822 302.601 169.202 302.641 168.602C302.681 167.962 302.781 167.482 302.941 167.162C302.941 166.842 302.981 166.602 303.061 166.442C303.181 166.242 303.221 166.062 303.181 165.902C303.141 165.742 303.181 165.462 303.301 165.062C303.421 164.662 303.541 164.282 303.661 163.922C303.941 163.282 304.261 162.462 304.621 161.462C304.981 160.422 305.341 159.382 305.701 158.342C306.061 157.262 306.361 156.342 306.601 155.582C306.841 154.782 306.981 154.302 307.021 154.142C307.021 153.662 307.341 153.402 307.981 153.362C308.461 153.202 309.041 153.402 309.721 153.962C310.401 154.522 310.941 155.122 311.341 155.762C311.661 156.082 311.781 156.502 311.701 157.022C311.621 157.542 311.361 158.282 310.921 159.242C310.761 159.562 310.561 160.102 310.321 160.862C310.121 161.582 309.981 162.182 309.901 162.662C309.741 162.982 309.541 163.442 309.301 164.042C309.101 164.602 308.921 165.142 308.761 165.662C308.681 165.862 308.601 166.242 308.521 166.802C308.441 167.322 308.341 167.862 308.221 168.422C308.101 168.982 307.941 169.422 307.741 169.742C307.381 171.382 306.741 172.342 305.821 172.622C304.941 172.902 304.161 172.662 303.481 171.902ZM309.961 147.842C309.521 147.522 309.181 147.142 308.941 146.702C308.741 146.222 308.621 145.802 308.581 145.442C308.581 145.082 308.621 144.862 308.701 144.782C309.101 144.342 309.441 143.762 309.721 143.042C310.041 142.322 310.381 141.662 310.741 141.062C310.821 140.942 310.921 140.782 311.041 140.582C311.201 140.342 311.361 140.202 311.521 140.162C312.001 139.842 312.661 139.862 313.501 140.222C314.381 140.582 315.021 141.082 315.421 141.722C315.781 142.482 315.881 143.262 315.721 144.062C315.601 144.862 315.181 145.702 314.461 146.582C313.861 147.382 313.101 147.902 312.181 148.142C311.261 148.342 310.521 148.242 309.961 147.842ZM327.679 173.282C327.119 173.122 326.559 172.842 325.999 172.442C325.439 172.042 324.859 171.582 324.259 171.062C323.779 170.422 323.439 169.842 323.239 169.322C323.039 168.762 322.919 168.122 322.879 167.402C322.879 166.642 322.879 165.682 322.879 164.522C322.879 164.042 322.959 163.362 323.119 162.482C323.319 161.602 323.519 160.682 323.719 159.722C323.959 158.762 324.179 157.922 324.379 157.202C324.579 156.442 324.699 155.942 324.739 155.702C324.859 155.182 324.659 154.882 324.139 154.802C323.619 154.722 323.039 154.702 322.399 154.742C321.799 154.742 321.399 154.682 321.199 154.562C321.039 154.522 320.959 154.322 320.959 153.962C320.959 153.562 320.959 153.362 320.959 153.362C320.959 153.202 320.879 153.102 320.719 153.062C320.559 152.982 320.419 152.842 320.299 152.642C320.219 152.482 320.319 152.182 320.599 151.742C320.879 151.302 321.239 151.042 321.679 150.962C322.039 150.882 322.579 150.822 323.299 150.782C324.019 150.702 324.739 150.562 325.459 150.362C326.219 150.122 326.799 149.762 327.199 149.282C327.559 148.402 327.959 147.462 328.399 146.462C328.839 145.422 329.259 144.522 329.659 143.762C330.059 142.962 330.339 142.462 330.499 142.262C331.179 141.902 331.879 141.762 332.599 141.842C333.319 141.882 333.879 142.222 334.279 142.862C334.479 143.142 334.639 143.342 334.759 143.462C334.919 143.582 334.979 143.762 334.939 144.002C334.939 144.242 334.779 144.682 334.459 145.322C334.179 145.922 333.699 146.862 333.019 148.142C332.819 148.542 332.639 148.902 332.479 149.222C332.319 149.502 332.239 149.642 332.239 149.642C332.399 149.682 332.639 149.702 332.959 149.702C333.279 149.702 333.679 149.682 334.159 149.642C334.599 149.562 335.079 149.502 335.599 149.462C336.119 149.382 336.579 149.382 336.979 149.462C337.899 149.462 338.579 149.722 339.019 150.242C339.459 150.762 339.699 151.422 339.739 152.222C339.819 152.662 339.659 153.042 339.259 153.362C338.859 153.682 338.119 153.842 337.039 153.842C336.679 153.842 336.159 153.862 335.479 153.902C334.799 153.942 334.099 153.982 333.379 154.022C332.659 154.062 332.039 154.122 331.519 154.202C331.039 154.242 330.799 154.302 330.799 154.382C330.679 154.462 330.479 154.782 330.199 155.342C329.959 155.862 329.699 156.502 329.419 157.262C329.179 158.022 328.959 158.742 328.759 159.422C328.479 160.782 328.279 162.102 328.159 163.382C328.039 164.662 328.019 165.782 328.099 166.742C328.219 167.662 328.459 168.322 328.819 168.722C329.179 169.082 329.719 169.082 330.439 168.722C331.199 168.322 331.899 167.862 332.539 167.342C333.259 166.742 333.879 166.562 334.399 166.802C334.919 167.002 335.239 167.442 335.359 168.122C335.519 168.762 335.339 169.462 334.819 170.222C334.339 170.982 333.659 171.622 332.779 172.142C331.899 172.662 330.999 173.022 330.079 173.222C329.159 173.462 328.359 173.482 327.679 173.282ZM371.133 176.882C370.533 176.642 369.833 176.302 369.033 175.862C368.233 175.462 367.473 174.922 366.753 174.242C366.033 173.562 365.473 172.742 365.073 171.782C364.673 170.622 364.393 169.482 364.233 168.362C364.113 167.242 364.073 165.942 364.113 164.462C364.113 162.382 364.253 160.582 364.533 159.062C364.853 157.502 365.333 155.922 365.973 154.322C366.053 154.202 366.193 153.862 366.393 153.302C366.633 152.702 366.893 152.062 367.173 151.382C367.493 150.702 367.733 150.182 367.893 149.822C368.213 149.142 368.693 148.242 369.333 147.122C370.013 145.962 370.733 144.842 371.493 143.762C372.653 142.042 373.633 140.642 374.433 139.562C375.233 138.442 375.993 137.502 376.713 136.742C377.473 135.982 378.293 135.242 379.173 134.522C380.093 133.802 381.233 132.982 382.593 132.062C383.473 131.422 384.593 131.022 385.953 130.862C387.353 130.702 388.713 130.922 390.033 131.522C391.353 132.082 392.333 133.162 392.973 134.762C393.413 135.602 393.613 136.662 393.573 137.942C393.533 139.182 393.293 140.522 392.853 141.962C392.413 143.362 391.853 144.682 391.173 145.922C390.493 147.162 389.733 148.162 388.893 148.922C388.373 149.402 387.673 149.482 386.793 149.162C385.953 148.842 385.253 148.422 384.693 147.902C384.333 147.222 384.133 146.822 384.093 146.702C384.093 146.582 384.173 146.502 384.333 146.462C384.573 146.182 384.893 145.702 385.293 145.022C385.693 144.342 386.093 143.622 386.493 142.862C386.893 142.062 387.173 141.422 387.333 140.942C387.653 139.262 387.873 138.162 387.993 137.642C388.113 137.082 387.993 136.622 387.633 136.262C387.473 136.102 387.233 136.042 386.913 136.082C386.633 136.122 386.153 136.322 385.473 136.682C384.553 137.082 383.453 137.902 382.173 139.142C380.933 140.342 379.693 141.782 378.453 143.462C376.853 145.582 375.513 147.462 374.433 149.102C373.353 150.742 372.533 152.422 371.973 154.142C371.893 154.302 371.753 154.602 371.553 155.042C371.393 155.482 371.313 155.702 371.313 155.702C371.353 155.862 371.293 156.262 371.133 156.902C370.973 157.502 370.793 158.022 370.593 158.462C370.153 160.302 369.893 162.082 369.813 163.802C369.733 165.482 369.833 166.962 370.113 168.242C370.433 169.482 370.893 170.402 371.493 171.002C372.013 171.362 372.673 171.482 373.473 171.362C374.273 171.242 375.193 170.962 376.233 170.522C377.273 170.082 378.393 169.602 379.593 169.082C380.553 168.682 381.433 168.242 382.233 167.762C383.033 167.282 383.633 166.862 384.033 166.502C384.353 166.262 384.753 166.022 385.233 165.782C385.753 165.502 386.193 165.362 386.553 165.362C387.113 165.162 387.533 165.322 387.813 165.842C388.093 166.362 388.233 167.022 388.233 167.822C388.233 168.382 387.833 169.062 387.033 169.862C386.233 170.662 385.353 171.342 384.393 171.902C384.073 172.222 383.633 172.522 383.073 172.802C382.553 173.042 382.013 173.262 381.453 173.462C380.613 174.102 379.573 174.722 378.333 175.322C377.093 175.922 375.833 176.382 374.553 176.702C373.313 177.022 372.173 177.082 371.133 176.882ZM402.607 172.082C402.287 172.162 401.867 172.202 401.347 172.202C400.827 172.162 400.367 172.102 399.967 172.022C399.607 171.902 399.427 171.782 399.427 171.662C399.427 171.462 399.327 171.362 399.127 171.362C399.127 171.362 398.907 171.202 398.467 170.882C398.027 170.522 397.627 170.262 397.267 170.102C396.907 169.542 396.667 168.902 396.547 168.182C396.467 167.422 396.707 166.102 397.267 164.222C397.307 162.942 397.667 161.602 398.347 160.202C399.027 158.762 399.887 157.362 400.927 156.002C401.967 154.642 403.047 153.442 404.167 152.402C405.287 151.322 406.287 150.522 407.167 150.002C407.727 149.442 408.467 149.142 409.387 149.102C410.347 149.062 411.187 149.242 411.907 149.642C412.307 149.842 412.747 150.242 413.227 150.842C413.707 151.442 414.167 152.082 414.607 152.762C415.047 153.402 415.387 153.982 415.627 154.502C415.747 154.942 415.847 155.342 415.927 155.702C416.047 156.022 416.127 156.422 416.167 156.902C416.207 157.382 416.167 158.102 416.047 159.062C415.847 159.782 415.667 160.522 415.507 161.282C415.387 162.002 415.327 162.742 415.327 163.502C415.247 164.262 415.327 164.802 415.567 165.122C415.847 165.442 416.247 165.462 416.767 165.182C417.247 164.942 417.747 164.922 418.267 165.122C418.787 165.282 419.147 165.602 419.347 166.082C419.587 166.522 419.527 167.102 419.167 167.822C418.927 168.342 418.547 168.842 418.027 169.322C417.507 169.802 416.927 170.202 416.287 170.522C415.647 170.802 415.027 170.942 414.427 170.942C413.987 170.942 413.547 170.782 413.107 170.462C412.667 170.102 412.267 169.622 411.907 169.022C411.547 168.422 411.247 167.762 411.007 167.042L410.647 165.662L408.487 167.642C407.967 168.202 407.447 168.722 406.927 169.202C406.447 169.642 406.147 169.962 406.027 170.162C405.827 170.522 405.427 170.842 404.827 171.122C404.267 171.402 403.527 171.722 402.607 172.082ZM404.227 166.322C404.907 165.922 405.487 165.442 405.967 164.882C406.487 164.322 406.987 163.702 407.467 163.022C407.947 162.302 408.467 161.542 409.027 160.742C409.707 159.822 410.187 159.082 410.467 158.522C410.787 157.962 411.027 157.362 411.187 156.722C411.027 156.282 410.807 155.822 410.527 155.342C410.247 154.822 409.967 154.542 409.687 154.502C409.127 154.502 408.447 154.842 407.647 155.522C406.887 156.202 406.047 157.182 405.127 158.462C404.967 158.662 404.767 158.982 404.527 159.422C404.287 159.862 404.047 160.282 403.807 160.682C403.607 161.042 403.467 161.282 403.387 161.402C403.267 161.562 403.087 161.942 402.847 162.542C402.647 163.102 402.467 163.682 402.307 164.282C402.147 164.842 402.067 165.242 402.067 165.482C402.067 165.722 402.087 165.982 402.127 166.262C402.207 166.542 402.407 166.722 402.727 166.802C403.047 166.882 403.547 166.722 404.227 166.322ZM428.476 172.022C428.196 172.022 427.816 171.822 427.336 171.422C426.896 171.022 426.636 170.662 426.556 170.342C426.436 170.022 426.436 169.562 426.556 168.962C426.716 168.322 426.936 167.582 427.216 166.742C427.536 165.422 427.756 164.462 427.876 163.862C427.996 163.262 428.116 162.742 428.236 162.302C428.356 161.862 428.516 161.222 428.716 160.382C428.956 159.862 429.136 159.362 429.256 158.882C429.416 158.362 429.576 157.842 429.736 157.322C429.936 156.802 430.156 156.282 430.396 155.762C430.676 154.722 431.016 153.742 431.416 152.822C431.856 151.862 432.276 151.062 432.676 150.422C432.756 150.302 432.936 150.082 433.216 149.762C433.496 149.442 433.716 149.282 433.876 149.282C434.196 148.962 434.636 148.862 435.196 148.982C435.756 149.062 436.236 149.262 436.636 149.582C437.116 150.102 437.376 150.722 437.416 151.442C437.496 152.122 437.216 153.082 436.576 154.322C436.096 155.562 435.636 156.542 435.196 157.262C434.796 157.942 434.396 158.742 433.996 159.662C434.436 159.022 434.976 158.362 435.616 157.682C436.256 157.002 436.756 156.462 437.116 156.062C437.636 155.502 438.116 155.062 438.556 154.742C439.036 154.382 439.676 153.942 440.476 153.422C441.156 152.942 441.836 152.502 442.516 152.102C443.236 151.702 444.096 151.582 445.096 151.742C445.496 151.702 445.916 151.902 446.356 152.342C446.836 152.782 447.196 153.362 447.436 154.082C447.716 154.762 447.716 155.502 447.436 156.302C446.516 156.102 445.696 156.142 444.976 156.422C444.256 156.662 443.636 156.962 443.116 157.322C442.636 157.682 442.256 157.962 441.976 158.162C441.576 158.402 441.116 158.722 440.596 159.122C440.076 159.482 439.516 159.902 438.916 160.382C438.316 160.822 437.676 161.322 436.996 161.882C436.036 162.682 435.316 163.382 434.836 163.982C434.356 164.582 433.976 165.222 433.696 165.902C433.456 166.502 433.156 167.222 432.796 168.062C432.436 168.902 432.096 169.662 431.776 170.342C431.456 170.982 431.196 171.382 430.996 171.542C430.796 171.942 430.376 172.162 429.736 172.202C429.136 172.242 428.716 172.182 428.476 172.022ZM469.537 174.062C469.017 174.182 468.497 174.042 467.977 173.642C467.497 173.282 467.157 172.882 466.957 172.442C466.717 171.802 466.557 171.202 466.477 170.642C466.437 170.042 466.397 169.362 466.357 168.602L466.297 166.562L463.837 168.782C462.477 170.062 461.197 170.982 459.997 171.542C458.837 172.062 457.777 172.322 456.817 172.322C456.377 172.242 455.837 171.962 455.197 171.482C454.597 170.962 454.037 170.402 453.517 169.802C453.037 169.162 452.697 168.642 452.497 168.242C452.257 167.682 452.177 166.902 452.257 165.902C452.377 164.902 452.617 163.802 452.977 162.602C453.377 161.402 453.857 160.222 454.417 159.062C455.017 157.902 455.697 156.902 456.457 156.062C457.777 154.062 459.417 152.822 461.377 152.342C463.337 151.822 465.077 151.982 466.597 152.822C467.317 153.182 467.837 153.322 468.157 153.242C468.477 153.162 468.677 152.902 468.757 152.462C468.917 151.822 469.097 151.222 469.297 150.662C469.497 150.102 469.777 149.262 470.137 148.142C471.137 145.102 471.997 142.722 472.717 141.002C473.477 139.282 474.157 137.782 474.757 136.502C475.197 135.582 475.637 134.942 476.077 134.582C476.517 134.222 476.897 134.062 477.217 134.102C477.657 134.102 478.197 134.262 478.837 134.582C479.517 134.902 479.957 135.342 480.157 135.902C480.317 136.262 480.377 136.642 480.337 137.042C480.337 137.442 480.217 137.862 479.977 138.302C479.457 139.262 478.837 140.542 478.117 142.142C477.437 143.702 476.737 145.422 476.017 147.302C475.337 149.182 474.697 151.042 474.097 152.882C473.497 154.722 472.997 156.342 472.597 157.742C472.357 158.622 472.157 159.742 471.997 161.102C471.877 162.462 471.777 163.862 471.697 165.302C471.657 166.702 471.657 167.962 471.697 169.082C471.737 170.162 471.797 170.862 471.877 171.182C472.117 171.982 472.117 172.582 471.877 172.982C471.637 173.382 471.297 173.642 470.857 173.762C470.417 173.922 469.977 174.022 469.537 174.062ZM459.637 166.802C460.197 166.602 460.697 166.362 461.137 166.082C461.577 165.802 462.097 165.442 462.697 165.002C463.897 164.082 464.757 163.282 465.277 162.602C465.837 161.922 466.277 161.082 466.597 160.082C466.797 159.482 466.797 158.962 466.597 158.522C466.437 158.082 466.137 157.662 465.697 157.262C465.257 156.902 464.697 156.762 464.017 156.842C463.337 156.882 462.557 157.302 461.677 158.102C460.717 158.982 459.897 160.002 459.217 161.162C458.537 162.322 457.977 163.982 457.537 166.142C457.457 166.542 457.597 166.822 457.957 166.982C458.317 167.142 458.877 167.082 459.637 166.802Z" fill="#B8C318"/>
</g>
</svg>
