<svg width="401" height="161" viewBox="0 0 401 161" fill="none" xmlns="http://www.w3.org/2000/svg">
<path d="M21.0596 35.8615C19.5196 35.8615 18.6396 34.9265 18.6396 33.3315C18.6396 31.7365 19.5196 30.8015 21.0596 30.8015H38.9346V19.7465C38.9346 17.5465 40.3096 16.3915 42.7296 16.3915C45.2046 16.3915 46.5246 17.5465 46.5246 19.7465V30.8015H64.5646C66.1046 30.8015 66.9846 31.7365 66.9846 33.3315C66.9846 34.9265 66.1046 35.8615 64.5646 35.8615H21.0596ZM36.6246 40.0965C39.1546 41.1415 39.6496 43.0665 38.3846 45.6515C34.5896 53.9565 27.7696 62.7015 21.6096 66.8265C20.5096 67.4865 19.4646 67.3215 18.8046 66.4965C18.1446 65.6165 18.1996 64.5715 18.9696 63.6915C23.5346 58.4665 28.1546 50.4365 30.9596 42.4065C31.8396 39.8215 34.1496 38.9415 36.6246 40.0965ZM66.8196 60.3915C68.1946 62.6465 68.0846 64.9565 65.4446 66.4965C63.0246 67.9265 60.5496 67.1015 59.5046 64.6265C56.6996 58.0815 51.7496 48.7315 48.1746 42.9565C47.5146 41.9115 47.7346 40.9215 48.6146 40.3165C49.4396 39.6015 50.3196 39.6565 51.2546 40.4815C56.4246 45.1565 62.6946 53.8465 66.8196 60.3915Z" fill="#594A39"/>
<path d="M127.87 59.2915C130.29 60.8315 130.95 62.9215 129.63 65.2315C128.31 67.5415 125.78 67.9815 123.525 66.2215C117.035 61.2715 109.83 51.2615 107.3 38.6115C104.165 53.0215 95.8596 62.9765 83.2646 67.3765C82.1096 67.8165 81.2296 67.4315 80.7896 66.4965C80.4046 65.5615 80.7346 64.6815 81.7796 64.0215C91.9546 58.0265 98.1696 49.3915 100.37 34.7615H84.1996C82.7146 34.7615 81.8896 33.9365 81.8896 32.4515C81.8896 30.9115 82.7146 30.1415 84.1996 30.1415H100.92C101.03 29.1515 101.085 28.1615 101.14 27.1165C101.305 24.9165 101.36 22.2765 101.36 19.3615C101.415 16.9965 102.79 15.7315 105.155 15.7315C107.575 15.7865 108.95 16.9965 108.95 19.3065C108.895 22.4415 108.895 25.4115 108.565 28.7115C108.565 29.2065 108.51 29.6465 108.455 30.1415H126.825C128.31 30.1415 129.135 30.9115 129.135 32.4515C129.135 33.9365 128.31 34.7615 126.825 34.7615H109.94C113.515 46.4765 119.895 54.2865 127.87 59.2915Z" fill="#594A39"/>
<path d="M163.84 27.6665C162.575 27.6665 161.86 26.8965 161.86 25.5765C161.86 24.3115 162.575 23.5965 163.84 23.5965H173.96V18.8665C173.96 16.8865 175.17 15.6765 177.425 15.6765C179.625 15.6765 180.89 16.8315 180.89 18.8665V23.5965H191.065C192.33 23.5965 193.045 24.3115 193.045 25.5765C193.045 26.8965 192.33 27.6665 191.065 27.6665H178.58C176.325 31.7915 174.07 35.1465 171.87 37.6215C174.125 37.6215 176.38 37.5665 178.635 37.4015C179.405 36.0265 180.12 34.5415 180.78 33.0015C181.715 30.8565 183.42 30.1965 185.51 31.1865C187.49 32.1215 187.765 34.0465 186.335 36.5765C180.945 46.6415 173.465 53.7365 163.785 57.2565C162.74 57.6415 161.97 57.4765 161.53 56.5415C161.09 55.6615 161.31 54.7815 162.355 54.2315C167.745 51.4265 172.255 47.1365 175.94 41.8565C172.97 42.6815 169.89 43.2865 166.92 43.7265C164.72 44.0565 163.51 43.0115 163.29 40.8665C163.125 38.7215 164.17 37.5665 166.535 37.5665H167.47C168.845 34.5415 170.165 30.9115 170.88 27.6665H163.84ZM162.85 46.4765C161.31 47.4665 159.825 46.9715 159.11 45.2115C158.615 43.8915 158.065 42.6815 157.515 41.5265V64.4615C157.515 66.4415 156.305 67.5415 154.16 67.5415C152.015 67.5415 150.805 66.4415 150.805 64.4615V47.0265C149.595 49.9415 148.055 52.8015 146.295 55.1115C145.58 56.1015 144.59 56.2665 143.82 55.6065C142.995 54.9465 142.94 54.1215 143.49 53.1865C146.46 47.9615 149.045 40.2065 150.365 32.1765H145.525C144.26 32.1765 143.545 31.4065 143.545 30.1965C143.545 28.9315 144.26 28.2715 145.525 28.2715H150.805V19.3065C150.805 17.3815 152.015 16.2815 154.16 16.2815C156.305 16.2815 157.515 17.3815 157.515 19.3065V28.2715H161.86C163.125 28.2715 163.84 28.9315 163.84 30.1965C163.84 31.4065 163.125 32.1765 161.86 32.1765H157.515V35.8065C159.55 37.5115 161.695 39.8215 163.51 42.5165C164.61 44.0015 164.445 45.4315 162.85 46.4765ZM191.67 61.2165C193.485 62.9765 193.54 64.9565 191.67 66.4965C189.8 67.9815 187.82 67.5415 186.555 65.2315C185.07 62.5365 183.145 59.7865 181.385 57.5315C176.105 62.0415 169.78 65.4515 162.685 67.2665C161.53 67.5965 160.815 67.2665 160.375 66.3315C159.99 65.2865 160.375 64.5715 161.53 64.0765C172.2 59.4565 180.065 52.5815 185.62 42.2415C186.775 40.1515 188.48 39.7115 190.46 40.7015C192.385 41.6915 192.66 43.6715 191.395 45.7615C189.415 49.0615 186.995 52.0865 184.3 54.8365C186.72 56.5965 189.415 58.9615 191.67 61.2165Z" fill="#594A39"/>
<path d="M240.73 28.4915C239.08 30.4715 236.77 30.3615 234.79 28.2715C231.985 25.2465 228.41 22.1665 224.34 19.2515C223.35 18.5365 223.24 17.7115 223.625 16.8315C224.065 15.8415 224.945 15.6215 226.045 15.9515C230.5 17.3265 235.395 19.8565 239.465 22.7715C241.775 24.3115 242.49 26.3465 240.73 28.4915ZM228.3 65.8915C222.14 65.5065 220.49 63.9115 220.49 57.6965V30.6915C220.49 28.3265 221.755 27.0615 224.175 27.0615C226.485 27.0615 227.75 28.3265 227.75 30.6915V55.8265C227.75 58.1915 228.3 58.9065 230.61 59.0715C232.7 59.2365 235.23 59.2365 237.43 59.0715C240.29 58.7965 240.675 58.1365 240.675 48.4015C240.675 47.0815 241.28 46.4765 242.38 46.4765C243.48 46.4765 244.14 46.9715 244.415 48.4015C246.89 61.5465 245.295 65.3965 239.025 65.8365C235.34 66.1115 232.04 66.1115 228.3 65.8915ZM253.6 54.0115C251.235 54.8915 249.255 53.9565 248.595 51.2065C247.11 45.4865 245.24 40.8665 243.095 36.3015C242.6 35.2015 242.93 34.4315 243.755 33.9365C244.58 33.4415 245.35 33.6615 246.175 34.4315C249.75 38.1715 253.27 43.5065 255.525 48.5115C256.68 50.9865 256.13 53.0215 253.6 54.0115ZM208.17 56.3215C205.86 54.8915 205.695 52.9115 207.18 50.7665C209.875 46.8615 211.745 42.0765 212.955 36.5215C213.23 35.2565 214.055 34.7615 215.1 34.8715C216.2 35.0365 216.805 35.6415 216.805 36.9065C216.585 42.9565 215.65 49.5015 213.78 54.2315C212.735 56.8715 210.48 57.7515 208.17 56.3215Z" fill="#594A39"/>
<path d="M317.95 53.4065C319.435 63.8015 317.84 68.5315 313.11 67.3215C309.59 66.3865 306.895 63.3065 304.97 58.5215C301.285 62.0415 297.27 64.6265 292.98 66.2765C291.935 66.6615 291.055 66.3865 290.67 65.5065C290.23 64.5715 290.45 63.8565 291.495 63.3065C296.17 60.6115 300.02 57.3665 303.21 53.1865C302 48.5115 301.175 42.8465 300.735 36.4665L299.25 36.6315C297.875 36.7965 297.105 36.1365 296.94 34.9265C296.775 33.6615 297.38 32.8915 298.755 32.7265C299.305 32.6715 299.91 32.6165 300.46 32.5065C300.46 32.1215 300.405 31.6815 300.405 31.2965C300.24 27.6665 300.13 23.4315 300.13 18.7565C300.13 16.7765 301.175 15.8415 303.21 15.8415C305.245 15.8415 306.4 16.8315 306.345 18.8665C306.29 23.5965 306.345 27.2265 306.51 30.4165C306.51 30.8565 306.565 31.2415 306.565 31.6815C309.645 31.1865 312.615 30.6915 315.42 30.1965C316.795 29.9765 317.675 30.5815 317.895 31.7915C318.06 33.0015 317.62 33.8815 316.135 34.1015C313.44 34.5965 310.25 35.0915 306.84 35.5865C307.115 39.0515 307.5 42.2965 307.94 45.2665C308.82 43.4515 309.59 41.4715 310.36 39.3265C311.13 37.1265 312.56 36.4115 314.375 37.1265C316.3 37.8965 316.85 39.4365 316.025 41.5265C314.265 45.9815 312.065 49.8315 309.645 53.1865C310.635 56.7065 311.845 59.1265 313.22 60.0065C314.43 60.8315 314.54 59.2365 314.595 53.3515C314.595 52.1415 315.2 51.4815 316.08 51.4815C317.015 51.4815 317.73 51.9765 317.95 53.4065ZM274.005 30.2515C271.915 30.2515 270.87 29.0965 270.87 27.0615V21.2315C270.87 19.1965 271.97 18.0415 274.005 18.0415H280.165C282.2 18.0415 283.355 19.1965 283.355 21.2315V27.0615C283.355 29.0965 282.2 30.2515 280.165 30.2515H274.005ZM288.36 30.2515C286.325 30.2515 285.225 29.0965 285.225 27.0615V21.2315C285.225 19.1965 286.325 18.0415 288.36 18.0415H294.3C296.39 18.0415 297.545 19.1965 297.545 21.2315V27.0615C297.545 29.0965 296.39 30.2515 294.3 30.2515H288.36ZM310.745 26.9515C309.975 24.9165 308.985 22.8265 307.995 20.8465C307.5 19.8565 307.665 19.1965 308.435 18.6465C309.205 18.1515 309.865 18.2065 310.69 18.8665C312.56 20.4615 314.1 22.2765 315.585 24.3665C316.685 26.0715 316.355 27.5015 314.705 28.4365C313 29.4265 311.46 28.9315 310.745 26.9515ZM275.82 22.4415V25.8515C275.82 26.2365 276.095 26.5115 276.48 26.5115H277.8C278.185 26.5115 278.46 26.2365 278.46 25.8515V22.4415C278.46 22.0565 278.185 21.7815 277.8 21.7815H276.48C276.095 21.7815 275.82 22.0565 275.82 22.4415ZM290.065 22.4415V25.8515C290.065 26.2365 290.34 26.5115 290.725 26.5115H291.88C292.265 26.5115 292.54 26.2365 292.54 25.8515V22.4415C292.54 22.0565 292.265 21.7815 291.88 21.7815H290.725C290.34 21.7815 290.065 22.0565 290.065 22.4415ZM296.61 57.1465H287.315V64.6265C287.315 66.6615 286.105 67.7065 283.905 67.7065C281.705 67.7065 280.495 66.6615 280.495 64.6265V57.1465H271.035C269.825 57.1465 269.11 56.3765 269.11 55.1665C269.11 53.9015 269.825 53.2415 271.035 53.2415H280.495V50.5465H274.885C272.85 50.5465 271.695 49.3915 271.695 47.3565V35.2565C271.695 33.1665 272.85 32.0665 274.885 32.0665H292.925C295.015 32.0665 296.115 33.1665 296.115 35.2565V47.3565C296.115 49.3915 295.015 50.5465 292.925 50.5465H287.315V53.2415H296.61C297.875 53.2415 298.59 53.9015 298.59 55.1665C298.59 56.4315 297.875 57.1465 296.61 57.1465ZM277.58 36.4665V39.3265H281.045V35.8065H278.24C277.855 35.8065 277.58 36.0815 277.58 36.4665ZM286.875 35.8065V39.3265H290.34V36.4665C290.34 36.0815 290.065 35.8065 289.68 35.8065H286.875ZM277.58 46.0915C277.58 46.4765 277.855 46.7515 278.24 46.7515H281.045V43.0115H277.58V46.0915ZM286.875 43.0115V46.7515H289.68C290.065 46.7515 290.34 46.4765 290.34 46.0915V43.0115H286.875Z" fill="#594A39"/>
<path d="M378.89 39.4365C381.31 40.0965 382.245 41.9665 381.42 44.1115C380.54 46.3665 378.725 46.8615 376.58 46.0365C373.005 44.6065 369.815 42.6815 367.12 40.3715C363.49 43.2315 359.255 45.3765 354.69 46.6965C353.92 46.8615 353.425 46.8615 353.04 46.6415V58.6315C353.04 60.2265 352.16 61.0515 350.565 61.0515C349.025 61.0515 348.09 60.2265 348.09 58.6315V57.2565H339.4V59.7865C339.4 61.6015 338.41 62.4265 336.65 62.4265C334.835 62.4265 333.845 61.6015 333.845 59.7865V24.2015C333.845 22.1665 335 21.0115 337.09 21.0115H349.85C351.94 21.0115 353.04 22.1665 353.04 24.2015V43.9465C353.205 43.8365 353.37 43.7265 353.59 43.6165C357.55 41.8015 360.85 39.5465 363.6 36.9615C361.785 34.9265 360.245 32.7265 359.035 30.4165C358.1 31.5165 357.055 32.5615 356.01 33.4965C355.185 34.2115 354.36 34.3215 353.7 33.6615C353.04 33.0015 352.985 32.1765 353.535 31.2965C355.735 27.9415 357.275 23.4315 358.54 18.3165C359.145 16.0615 360.685 15.5115 362.72 16.0615C364.755 16.6115 365.69 18.2065 364.755 20.3515C364.645 20.6815 364.48 21.0665 364.315 21.3965H371.08C372.455 20.2965 374.16 20.0215 375.865 20.7915C377.845 21.6715 378.615 23.4865 377.625 25.9615C376.14 29.9215 373.995 33.4415 371.355 36.4115C373.665 37.6765 376.195 38.6665 378.89 39.4365ZM341.545 36.6315V24.8065H340.06C339.675 24.8065 339.4 25.0815 339.4 25.4665V36.6315H341.545ZM345.945 24.8065V36.6315H348.09V25.4665C348.09 25.0815 347.815 24.8065 347.43 24.8065H345.945ZM362.5 25.2465C362.005 26.0715 361.51 26.8965 361.015 27.6665C362.665 29.9215 364.59 31.8465 366.735 33.4965C368.55 31.1865 369.87 28.6565 370.86 26.0165C371.025 25.5215 370.75 25.2465 370.31 25.2465H362.5ZM345.945 53.5165H348.09V40.3715H345.945V53.5165ZM341.545 53.5165V40.4815H339.4V53.5165H341.545ZM374.82 45.7615C376.855 45.7615 378.01 46.9715 378.01 48.9515V64.5715C378.01 66.6615 376.91 67.5415 374.82 67.5415C372.73 67.5415 371.575 66.6615 371.575 64.5715V63.6365H362.005V64.8465C362.005 66.8815 360.905 67.7615 358.815 67.7615C356.78 67.7615 355.625 66.8815 355.625 64.8465V48.9515C355.625 46.8615 356.78 45.7615 358.87 45.7615H374.82ZM362.005 59.7865H371.575V50.2165C371.575 49.8315 371.3 49.5565 370.915 49.5565H362.665C362.28 49.5565 362.005 49.8315 362.005 50.2165V59.7865Z" fill="#594A39"/>
<path d="M95.8046 97.2965C95.0896 100.817 93.9896 104.502 92.5596 108.077V141.517C92.5596 143.552 91.4046 144.487 89.3146 144.487C87.2796 144.487 86.1246 143.552 86.1246 141.517V120.122C85.2996 121.277 84.4196 122.322 83.5396 123.257C82.8246 124.082 81.7796 124.027 81.1196 123.422C80.4596 122.817 80.3496 121.992 80.8996 121.112C85.1346 114.182 87.6096 105.327 89.0946 95.7015C89.4796 93.2815 91.0746 92.5115 93.3296 92.8965C95.5296 93.2265 96.4096 94.8215 95.8046 97.2965ZM97.9496 98.8365C96.8496 98.8365 96.1896 98.1765 96.1896 97.0765C96.1896 95.9765 96.8496 95.3165 97.9496 95.3165H125.065C126.275 95.3165 126.88 95.9215 126.88 97.0215C126.88 98.2315 126.275 98.8365 125.065 98.8365H114.175C113.68 99.4965 113.185 100.102 112.635 100.652H120.28C122.26 100.652 123.305 101.752 123.305 103.732V113.687H125.34C127.32 113.687 128.42 114.787 128.42 116.767V119.737C128.42 121.552 127.43 122.322 125.67 122.322C125.945 122.652 126.165 122.982 126.385 123.312C127.32 124.577 127.045 125.787 125.725 126.612C124.35 127.382 123.195 126.942 122.535 125.457C121.82 123.807 120.83 121.827 119.95 120.232C119.565 119.517 119.62 118.967 120.225 118.527C120.775 118.032 121.325 118.142 121.93 118.582L122.81 119.297V117.757C122.81 117.372 122.535 117.097 122.15 117.097H100.205C99.8196 117.097 99.5446 117.372 99.5446 117.757V119.352C99.9296 118.692 100.48 118.417 101.25 118.637C101.965 118.802 102.24 119.462 102.075 120.232C101.745 122.432 100.92 125.127 99.9846 126.832C99.2146 128.152 98.0046 128.372 96.7396 127.602C95.5296 126.722 95.4196 125.457 96.4096 124.357C96.9046 123.807 97.3446 123.202 97.7846 122.597C97.4546 122.652 97.1246 122.707 96.7396 122.707C94.9246 122.707 93.9346 121.882 93.9346 120.067V116.767C93.9346 114.787 95.0346 113.687 97.0146 113.687H98.7746V103.732C98.7746 101.752 99.8746 100.652 101.855 100.652H107.795C107.85 100.047 107.96 99.4415 108.015 98.8365H97.9496ZM117.475 104.557C117.475 104.172 117.2 103.897 116.815 103.897H105.32C104.935 103.897 104.66 104.172 104.66 104.557V105.162H117.475V104.557ZM104.66 108.077V109.397H117.475V108.077H104.66ZM104.66 113.687H117.475V112.312H104.66V113.687ZM109.28 117.207C110.82 117.482 112.47 118.032 114.12 118.747C115.275 119.297 115.715 120.232 115.11 121.387C114.505 122.542 113.46 122.817 112.415 122.102C110.985 121.112 109.61 120.287 108.4 119.627C107.74 119.297 107.575 118.637 107.795 117.977C108.015 117.372 108.51 117.042 109.28 117.207ZM126.66 138.382C128.695 138.492 129.465 139.647 129.245 141.682C128.97 143.717 127.595 144.432 125.615 144.212C120.775 143.662 116.32 142.562 112.47 140.857C107.795 142.837 102.13 143.992 95.5846 144.487C94.5396 144.542 93.8796 144.102 93.7146 143.167C93.5496 142.067 94.0446 141.462 95.1996 141.297C100.15 140.527 104.165 139.537 107.52 138.217C105.705 137.062 104.11 135.742 102.735 134.257C100.975 135.467 98.9396 136.567 96.8496 137.392C95.8596 137.777 95.0896 137.502 94.7046 136.677C94.2646 135.852 94.4846 135.082 95.4196 134.477C99.4896 131.947 102.295 129.362 104.33 126.117C103.23 125.567 102.735 124.632 102.735 122.982V119.682C102.735 118.252 103.56 117.427 105.045 117.427C106.42 117.427 107.3 118.197 107.3 119.682V121.442C107.3 122.542 107.685 122.982 109.39 123.037C111.645 123.202 113.295 123.202 114.945 123.037C116.265 122.872 116.595 122.432 116.595 120.342C116.595 119.407 117.09 118.967 117.915 118.967C118.685 118.967 119.235 119.462 119.4 120.397C120.17 124.962 118.96 126.447 116.1 126.722C114.285 126.887 111.975 126.942 109.775 126.887C109.555 127.272 109.28 127.712 108.95 128.152H120.06C123.36 128.152 124.46 130.737 122.59 133.157C121.435 134.752 120.005 136.182 118.465 137.392C120.995 137.887 123.745 138.162 126.66 138.382ZM105.32 132.222C107.52 133.762 109.83 134.917 112.36 135.797C113.845 134.807 115.165 133.652 116.21 132.387C116.54 131.947 116.32 131.562 115.77 131.562H106.035C105.76 131.782 105.54 132.002 105.32 132.222Z" fill="#594A39"/>
<path d="M146.13 100.817C144.92 100.817 144.205 100.102 144.205 98.8915C144.205 97.6265 144.92 96.9115 146.13 96.9115H164.61V95.7565C164.61 93.6665 165.82 92.6765 168.075 92.6765C170.385 92.6765 171.595 93.6665 171.595 95.7565V96.9115H190.24C191.45 96.9115 192.165 97.6265 192.165 98.8915C192.165 100.157 191.45 100.817 190.24 100.817H171.595V103.182H183.86C185.895 103.182 187.05 104.337 187.05 106.427V116.052C187.05 117.977 186.005 119.132 184.135 119.242C186.115 120.287 188.095 121.607 189.855 123.092C191.56 124.412 191.725 125.952 190.295 127.437C188.865 128.812 187.325 128.702 185.95 127.052C185.235 126.172 184.52 125.292 183.695 124.467C179.735 125.402 174.345 126.227 168.35 126.832C170.165 127.492 172.2 128.537 174.07 129.802C175.775 130.902 176.105 132.607 174.84 134.092C173.465 135.687 171.705 135.577 170.385 134.037C169.01 132.442 167.305 130.682 165.655 129.197C164.995 128.647 164.885 127.767 165.27 127.107C160.045 127.602 154.49 127.932 149.1 128.152C146.79 128.207 145.47 127.052 145.415 124.962C145.415 122.982 146.405 121.772 148.825 121.937C153.61 122.157 159.165 122.212 164.61 122.102V119.187H152.565C150.475 119.187 149.32 118.032 149.32 115.997V106.427C149.32 104.337 150.475 103.182 152.565 103.182H164.61V100.817H146.13ZM156.085 107.637V109.342H164.61V106.977H156.745C156.36 106.977 156.085 107.252 156.085 107.637ZM179.68 106.977H171.595V109.342H180.34V107.637C180.34 107.252 180.065 106.977 179.68 106.977ZM156.745 115.392H164.61V112.917H156.085V114.732C156.085 115.117 156.36 115.392 156.745 115.392ZM180.34 114.732V112.917H171.595V115.392H179.68C180.065 115.392 180.34 115.117 180.34 114.732ZM171.595 119.242V121.937C174.95 121.827 178.085 121.662 180.78 121.442C180.45 121.112 180.12 120.837 179.79 120.562C179.35 120.177 179.185 119.682 179.185 119.242H171.595ZM191.945 136.072C193.21 137.997 192.605 140.032 190.68 140.967C188.59 141.957 187.215 141.077 186.39 138.877C185.29 135.962 184.3 133.762 182.65 130.792C182.155 129.857 182.32 129.032 183.09 128.482C183.86 127.932 184.52 127.987 185.29 128.647C187.71 130.682 190.02 133.102 191.945 136.072ZM179.57 130.407C180.56 130.352 181.11 130.957 181.44 131.947C183.585 138.987 182.815 142.452 176.93 142.837C172.53 143.112 167.965 143.167 164.17 142.947C157.735 142.672 155.315 141.517 155.315 137.062V131.562C155.315 129.527 156.525 128.482 158.725 128.482C160.98 128.537 162.19 129.527 162.19 131.562V134.257C162.19 136.347 162.85 137.007 165.655 137.172C168.57 137.392 172.255 137.282 175.5 137.062C177.645 136.897 177.975 136.292 177.975 132.112C177.975 130.957 178.58 130.462 179.57 130.407ZM151.85 129.582C152.84 129.967 153.17 130.517 153.115 131.562C152.785 135.247 151.575 138.217 150.035 140.747C148.935 142.507 146.955 143.167 145.25 141.737C143.545 140.362 143.6 138.437 145.195 136.952C147.01 135.302 148.66 133.102 149.705 130.682C150.2 129.692 150.915 129.252 151.85 129.582Z" fill="#594A39"/>
<path d="M255.525 140.197C255.91 141.957 255.47 143.057 253.765 143.497C252.06 143.937 250.74 143.222 250.41 141.517L249.915 138.547C245.955 140.527 241.555 141.847 236.935 142.672C234.9 143.112 233.47 142.342 233.25 140.362C232.975 138.492 233.635 137.227 235.89 137.007C237.43 136.842 239.025 136.622 240.62 136.457V125.732H237.045C235.01 125.732 233.855 124.577 233.855 122.542V106.977C233.855 104.887 235.01 103.732 237.045 103.732H240.565V96.2515C240.565 94.4365 241.61 93.5015 243.645 93.5015C245.625 93.5015 246.67 94.4365 246.67 96.2515V103.732H250.3C252.39 103.732 253.49 104.887 253.49 106.977V122.542C253.49 124.577 252.39 125.732 250.3 125.732H246.725V135.467C247.55 135.302 248.375 135.192 249.2 135.027C248.815 133.267 248.43 131.562 248.1 130.187C247.825 129.087 248.21 128.317 249.09 127.987C249.97 127.657 250.85 127.932 251.4 128.922C253.105 132.002 254.755 136.677 255.525 140.197ZM231.215 95.3165C232.535 95.3165 233.25 96.0315 233.25 97.2415C233.25 98.5615 232.535 99.2765 231.215 99.2765H209.105C207.785 99.2765 207.07 98.5065 207.07 97.2415C207.07 96.0315 207.785 95.3165 209.105 95.3165H231.215ZM227.255 112.807H213.395C211.305 112.807 210.205 111.652 210.205 109.562V104.502C210.205 102.467 211.305 101.312 213.395 101.312H227.255C229.345 101.312 230.445 102.467 230.445 104.502V109.562C230.445 111.652 229.345 112.807 227.255 112.807ZM215.87 105.712V108.407C215.87 108.792 216.145 109.067 216.53 109.067H224.175C224.56 109.067 224.835 108.792 224.835 108.407V105.712C224.835 105.327 224.56 105.052 224.175 105.052H216.53C216.145 105.052 215.87 105.327 215.87 105.712ZM239.41 121.772H241.225V107.692H239.41C239.025 107.692 238.75 107.967 238.75 108.352V121.112C238.75 121.497 239.025 121.772 239.41 121.772ZM246.175 107.692V121.772H247.935C248.32 121.772 248.595 121.497 248.595 121.112V108.352C248.595 107.967 248.32 107.692 247.935 107.692H246.175ZM229.51 114.732C231.6 114.732 232.7 115.887 232.7 117.922V139.592C232.7 143.937 227.86 144.982 223.68 143.057C222.635 142.617 222.305 141.847 222.525 140.912C222.525 140.802 222.58 140.692 222.635 140.637C222.14 141.187 221.37 141.462 220.38 141.462C218.62 141.462 217.575 140.527 217.575 138.822V130.847H214.495C214.055 130.847 213.67 130.737 213.395 130.572V141.407C213.395 143.112 212.46 144.047 210.645 144.047C208.83 144.047 207.84 143.112 207.84 141.407V117.922C207.84 115.887 208.995 114.732 211.085 114.732H229.51ZM213.395 127.272C213.67 127.107 214.055 126.997 214.495 126.997H217.245C216.64 126.887 216.145 126.447 215.87 125.622C215.265 124.082 214.66 122.597 214.165 121.112C213.89 120.342 214.11 119.792 214.715 119.407C215.375 119.077 216.035 119.187 216.585 119.792C217.685 121.057 218.73 122.487 219.5 123.972C220.16 125.182 219.775 126.227 218.565 126.777C218.29 126.887 218.07 126.942 217.85 126.997H220.6C221.26 125.017 221.81 122.927 222.305 120.892C222.635 119.352 223.735 118.912 225.055 119.352C226.43 119.737 226.87 120.782 226.375 122.102C225.66 123.862 224.835 125.512 223.9 126.997H226.155C226.595 126.997 226.98 127.107 227.255 127.272V119.187C227.255 118.802 226.98 118.527 226.595 118.527H214.055C213.67 118.527 213.395 118.802 213.395 119.187V127.272ZM224.505 139.702C226.87 139.977 227.255 139.702 227.255 138.107V130.572C226.98 130.737 226.595 130.847 226.155 130.847H223.185V138.822C223.185 139.317 223.075 139.812 222.91 140.142C223.24 139.812 223.79 139.647 224.505 139.702Z" fill="#594A39"/>
<path d="M283.63 106.977C283.025 106.207 283.025 105.547 283.63 104.667C285.555 102.192 287.15 98.7265 288.195 95.0415C288.745 93.1165 290.065 92.5115 291.935 93.0065C293.585 93.5015 294.19 94.6565 293.75 96.3065H309.095C310.25 95.2615 312.175 94.9315 313.66 95.9215C315.255 96.9665 315.64 98.8365 314.375 100.597C312.67 103.072 310.635 104.832 309.205 105.822C308.49 106.317 307.72 106.427 307.06 105.822C306.4 105.217 306.345 104.557 306.84 103.787C307.5 102.797 308.105 101.752 308.49 100.872C308.655 100.432 308.38 100.157 307.94 100.157H302.88C302.605 101.257 302.165 102.302 301.67 103.292C304.915 106.537 308.325 107.802 314.265 108.682C316.575 109.067 317.125 110.332 316.74 112.092C316.355 113.907 314.76 114.622 312.835 114.182C307.115 112.862 302.66 110.222 299.855 106.097C296.5 110.222 291.165 112.752 284.675 113.357C283.63 113.412 282.915 112.917 282.75 112.037C282.64 111.102 282.97 110.497 284.07 110.222C291.385 108.297 294.465 105.382 296.06 100.157H292.045C290.45 103.017 288.195 105.492 285.995 107.087C285.225 107.692 284.235 107.692 283.63 106.977ZM271.915 96.6915C271.035 96.0865 270.925 95.2615 271.365 94.4365C271.805 93.6115 272.52 93.4465 273.51 93.6665C275.82 94.1615 278.79 95.0965 281.43 96.4715C283.41 97.4615 283.685 99.1665 282.53 100.762C281.32 102.467 279.725 102.687 278.075 101.312C275.985 99.5515 273.785 97.9565 271.915 96.6915ZM274.555 114.677C272.74 115.942 270.87 115.777 269.935 114.072C268.945 112.257 269.44 110.772 271.475 109.782C274.775 108.022 277.47 106.152 279.78 104.172C280.605 103.567 281.485 103.512 282.2 104.227C282.86 104.832 282.915 105.767 282.365 106.647C280.495 109.342 277.8 112.367 274.555 114.677ZM314.43 137.997C316.685 138.657 317.62 140.307 316.795 142.342C315.97 144.432 314.265 144.982 312.12 143.937C308.215 142.067 302.66 140.032 298.095 138.492C296.995 137.997 296.555 137.227 296.83 136.182C296.94 135.742 297.105 135.467 297.325 135.247H289.405C289.625 135.412 289.79 135.632 289.955 135.852C291.055 137.557 290.395 139.427 288.14 140.362C283.135 142.507 277.47 144.047 271.585 144.432C270.43 144.487 269.715 144.047 269.55 143.057C269.33 142.012 269.66 141.132 270.87 140.802C276.04 139.537 280.77 137.502 284.73 135.247H279.23C277.14 135.247 276.04 134.092 276.04 132.002V117.097C276.04 115.007 277.14 113.852 279.23 113.852H307.995C310.03 113.852 311.185 115.007 311.185 117.097V132.002C311.185 134.092 310.03 135.247 307.995 135.247H301.89C306.015 135.797 310.635 136.787 314.43 137.997ZM283.025 118.252V119.847H304.145V118.252C304.145 117.867 303.87 117.592 303.485 117.592H283.685C283.3 117.592 283.025 117.867 283.025 118.252ZM283.025 123.312V125.567H304.145V123.312H283.025ZM283.025 130.847C283.025 131.232 283.3 131.507 283.685 131.507H303.485C303.87 131.507 304.145 131.232 304.145 130.847V129.032H283.025V130.847Z" fill="#594A39"/>
</svg>
