<svg width="401" height="161" viewBox="0 0 401 161" fill="none" xmlns="http://www.w3.org/2000/svg">
<path d="M35.3285 19.4322C34.3385 19.0472 33.9535 18.1122 34.2285 17.1772C34.5035 16.2422 35.2185 15.9122 36.2635 16.0772C40.5535 16.5172 45.8885 17.7272 50.0685 19.3222C52.4335 20.2572 53.3135 21.9072 52.2135 23.9972C51.1135 26.1422 49.2985 26.4722 47.1535 25.2622C43.7435 23.1172 39.7835 21.1372 35.3285 19.4322ZM66.2385 55.2372C68.7685 56.8322 69.1535 58.9222 67.5585 61.2322C66.0185 63.4872 63.7085 63.3772 61.4535 61.6722C56.3935 57.8222 51.7185 51.6622 48.5835 43.6872V60.0772C48.5835 67.0622 42.4235 69.2072 32.4685 64.4222C31.4785 63.9272 31.1485 63.1572 31.4235 62.2222C31.6985 61.3422 32.3585 61.0122 33.5135 61.1772C40.3335 62.1672 41.2685 61.5622 41.2685 58.9222V31.3672C41.2685 30.9822 40.9935 30.7072 40.6085 30.7072H29.3885C28.0135 30.7072 27.2985 29.8822 27.2985 28.5622C27.2985 27.1872 28.0685 26.4722 29.3885 26.4722H45.3935C47.4835 26.4722 48.5835 27.5722 48.5835 29.6622V33.2372C49.2985 35.4922 50.0685 37.5272 51.0585 39.4522C53.1485 37.4722 55.3485 34.9422 57.6585 31.5872C59.0885 29.5522 61.0135 29.1672 62.9935 30.7622C64.9735 32.3572 64.7535 34.4472 62.6635 36.2072C59.1985 39.2322 55.5135 41.3222 52.7635 42.4772C56.0635 47.5922 60.5185 51.6072 66.2385 55.2372ZM36.3735 36.7022C38.8485 36.7022 40.2785 38.5722 39.6185 40.9922C37.3085 50.0672 31.0935 58.8672 21.7985 63.5422C20.6985 64.1472 19.9285 63.9272 19.3235 63.0472C18.8285 62.1672 18.9935 61.2322 19.9835 60.5172C26.9685 55.1272 30.7635 48.0872 32.3035 41.3772C32.4135 40.9372 32.0835 40.6622 31.6435 40.6622H22.6235C21.3035 40.6622 20.5885 39.8922 20.5885 38.6272C20.5885 37.4172 21.3035 36.7022 22.6235 36.7022H36.3735Z" fill="#B8C318"/>
<path d="M101.769 23.0622C100.559 23.0622 99.8985 22.3472 99.8985 21.2472C99.8985 20.0922 100.559 19.4322 101.769 19.4322H111.614V18.6622C111.614 16.6822 112.769 15.6922 114.914 15.6922C117.004 15.6922 118.159 16.6822 118.159 18.6622V19.4322H127.949C129.159 19.4322 129.764 20.0922 129.764 21.2472C129.764 22.3472 129.159 23.0622 127.949 23.0622H118.159V24.9872H125.749C126.904 24.9872 127.564 25.5922 127.564 26.7472C127.564 27.8472 126.904 28.5072 125.749 28.5072H104.024C102.869 28.5072 102.209 27.8472 102.209 26.7472C102.209 25.5922 102.869 24.9872 104.024 24.9872H111.614V23.0622H101.769ZM84.5535 43.3022C84.8285 43.3022 85.1035 43.2472 85.3785 43.2472C87.3585 40.7172 89.0635 37.8572 90.5485 34.9972C88.7335 35.5472 86.9185 36.0422 85.2135 36.2622C83.2885 36.5372 82.0235 35.8222 81.8585 33.8972C81.6935 32.0272 82.4635 31.0372 84.7185 30.9822H84.9935C86.4785 27.4072 87.6885 23.0072 88.6235 18.9372C89.1185 16.6822 90.5485 15.9672 92.5285 16.4072C94.5085 16.9022 95.1685 18.4422 94.3435 20.5322C92.8585 24.2172 91.0985 27.8472 89.0085 30.8172C90.2735 30.7622 91.4835 30.7072 92.6385 30.5972C93.2985 29.0572 93.9585 27.4622 94.5635 25.9772C95.3335 23.9972 96.8185 23.4472 98.6335 24.1622C100.394 24.8772 100.834 26.4172 99.8985 28.3422C97.5885 33.1272 94.0135 38.5722 89.8885 42.9172C91.8135 42.6972 93.6835 42.4772 95.4985 42.1472C95.2785 41.4322 95.0585 40.7722 94.7835 40.0572C94.4535 39.0672 94.6185 38.4072 95.3885 37.9672C96.1035 37.5272 96.8185 37.6922 97.4235 38.4072C99.1285 40.4422 100.669 42.8622 101.604 45.0622C102.264 46.6022 101.659 47.7572 100.174 48.4172C98.6335 49.0772 97.3685 48.5822 96.8735 46.7672C96.7635 46.2722 96.6535 45.7772 96.4885 45.2822C92.9135 47.0972 89.0085 48.4172 85.2685 49.0222C83.2335 49.3522 81.9685 48.5272 81.7485 46.6022C81.4735 44.6772 82.2985 43.4122 84.5535 43.3022ZM126.299 29.7722C128.279 29.7722 129.324 30.8722 129.324 32.8522V36.6472C129.324 38.6272 128.279 39.7272 126.299 39.7272H103.309C101.329 39.7272 100.229 38.6272 100.229 36.6472V32.8522C100.229 30.8722 101.329 29.7722 103.309 29.7722H126.299ZM108.479 36.4272V33.0172H106.114C105.729 33.0172 105.454 33.2922 105.454 33.6772V35.7672C105.454 36.1522 105.729 36.4272 106.114 36.4272H108.479ZM116.234 36.4272V33.0172H113.319V36.4272H116.234ZM124.154 35.7672V33.6772C124.154 33.2922 123.879 33.0172 123.494 33.0172H121.074V36.4272H123.494C123.879 36.4272 124.154 36.1522 124.154 35.7672ZM129.159 61.7272C131.029 62.6622 131.414 64.2572 130.479 65.9072C129.489 67.6122 127.839 67.7222 126.134 66.5672C123.879 65.1372 120.689 63.2122 117.389 61.3422C116.454 60.7922 116.179 60.0772 116.454 59.2522C116.564 58.9772 116.729 58.7572 116.949 58.5922H112.219C112.384 58.7022 112.494 58.8672 112.659 59.0322C113.814 60.3522 113.649 61.8922 111.834 62.9372C108.424 65.0272 103.584 66.5122 99.5135 67.0622C98.5235 67.2272 97.8085 66.9522 97.5885 66.0722C97.3135 65.3022 97.4785 64.5322 98.5785 64.0922C101.934 62.7172 105.729 60.8472 108.534 58.8672C108.699 58.7572 108.809 58.6472 108.974 58.5922H105.729C103.639 58.5922 102.539 57.4922 102.539 55.4022V44.1822C102.539 42.1472 103.639 40.9922 105.729 40.9922H124.044C126.134 40.9922 127.289 42.1472 127.289 44.1822V55.4022C127.289 57.4922 126.134 58.5922 124.044 58.5922H119.864C123.109 59.2522 126.464 60.4622 129.159 61.7272ZM108.534 44.8422V45.8322H121.239V44.8422C121.239 44.4572 120.964 44.1822 120.579 44.1822H109.194C108.809 44.1822 108.534 44.4572 108.534 44.8422ZM100.724 60.8472C98.9635 61.6172 97.5885 60.9572 97.1485 59.0872C96.4885 56.3372 95.5535 53.0372 94.7285 50.8922C94.3985 49.9022 94.6185 49.2422 95.2785 48.8572C95.9935 48.4722 96.7085 48.5822 97.2585 49.2972C98.9635 51.2772 100.889 54.6322 101.989 57.2172C102.704 58.9222 102.264 60.2422 100.724 60.8472ZM108.534 48.8572V50.5072H121.239V48.8572H108.534ZM92.9135 51.1672C93.9035 54.1372 94.9485 57.9872 95.4435 61.2322C95.7185 63.1572 94.8935 64.3672 93.0235 64.5322C91.0435 64.7522 89.9985 63.7622 90.1085 61.7272C90.2185 58.5372 90.1085 54.6872 89.8885 51.6622C89.8335 50.7272 90.3285 50.1772 91.1535 50.0122C91.9785 49.9022 92.5835 50.2322 92.9135 51.1672ZM86.9735 50.5622C87.7985 50.6172 88.2935 51.1672 88.2935 52.3222C88.3485 55.9522 87.9635 60.5172 87.1385 63.5972C86.6435 65.6872 85.0485 66.4572 83.1235 65.6872C81.2535 64.9172 80.9235 63.4872 81.9685 61.5622C83.3435 59.0872 84.4435 55.2922 85.1585 51.8822C85.4335 50.8372 86.0935 50.4522 86.9735 50.5622ZM108.534 54.7972C108.534 55.1822 108.809 55.4572 109.194 55.4572H120.579C120.964 55.4572 121.239 55.1822 121.239 54.7972V53.5322H108.534V54.7972Z" fill="#B8C318"/>
<path d="M165.514 23.7772C164.249 23.7772 163.644 23.0622 163.644 21.9072C163.644 20.7522 164.249 20.1472 165.514 20.1472H174.589V18.7172C174.589 16.7922 175.799 15.6922 177.944 15.6922C180.089 15.6922 181.299 16.7922 181.299 18.7172V20.1472H190.759C191.969 20.1472 192.629 20.7522 192.629 21.9072C192.629 23.1172 191.969 23.7772 190.759 23.7772H181.299V25.7572H188.834C189.989 25.7572 190.649 26.3622 190.649 27.5172C190.649 28.7272 189.989 29.3322 188.834 29.3322H181.299V31.6422H191.364C192.574 31.6422 193.234 32.3022 193.234 33.4572C193.234 34.6672 192.574 35.3272 191.364 35.3272H164.689C163.424 35.3272 162.819 34.6122 162.819 33.4572C162.819 32.3022 163.424 31.6422 164.689 31.6422H174.589V29.3322H167.109C165.954 29.3322 165.294 28.6722 165.294 27.5172C165.294 26.3622 165.954 25.7572 167.109 25.7572H174.589V23.7772H165.514ZM147.419 42.9172H148.299C150.279 40.4422 152.094 37.5822 153.689 34.6122C151.874 35.1622 150.004 35.6572 148.079 35.9322C146.154 36.2072 144.889 35.4922 144.669 33.5122C144.504 31.5322 145.384 30.5422 147.584 30.5422H148.024C149.509 27.0222 150.719 22.7872 151.654 18.6072C152.094 16.3522 153.579 15.5822 155.669 16.0772C157.704 16.5722 158.474 18.1672 157.649 20.2572C156.164 23.9422 154.239 27.5722 152.094 30.4872C153.414 30.4322 154.624 30.3772 155.834 30.2672C156.494 28.8372 157.044 27.4072 157.594 26.0322C158.419 23.9422 160.069 23.4472 161.884 24.1622C163.644 24.8222 164.139 26.6372 163.259 28.3972C160.839 33.4022 156.989 38.6822 152.919 42.6422C154.899 42.5322 156.879 42.2572 158.804 41.9822C158.584 41.1572 158.309 40.3322 158.034 39.5622C157.704 38.5722 157.814 37.9122 158.584 37.4722C159.299 37.0322 160.124 37.1972 160.674 37.9672C162.379 40.0022 163.919 42.6422 164.689 44.9522C165.239 46.6022 164.964 47.8122 163.424 48.4172C161.774 49.0222 160.454 48.5272 160.069 46.7122L159.739 45.3372C156.164 46.9322 151.874 48.2522 148.079 48.8572C146.044 49.1322 144.614 48.3622 144.339 46.3272C144.119 44.2372 144.999 42.9722 147.419 42.9172ZM175.414 57.7672C175.634 57.9322 175.799 58.0972 176.019 58.3172C177.229 59.6372 177.119 61.2322 175.469 62.3872C171.839 64.9172 166.889 66.7322 162.434 67.4472C161.389 67.6122 160.619 67.3372 160.344 66.3472C160.069 65.5222 160.399 64.7522 161.389 64.3672C165.404 62.8272 168.979 60.5172 171.729 58.2072C171.949 58.0422 172.169 57.8772 172.389 57.7672H168.869C166.834 57.7672 165.679 56.6672 165.679 54.5772V40.0022C165.679 37.9122 166.834 36.7572 168.869 36.7572H186.964C189.054 36.7572 190.154 37.9122 190.154 40.0022V54.5772C190.154 56.6672 189.054 57.7672 186.964 57.7672H175.414ZM172.224 40.9922V42.5322H183.554V40.9922C183.554 40.6072 183.279 40.3322 182.894 40.3322H172.884C172.499 40.3322 172.224 40.6072 172.224 40.9922ZM172.224 45.9972V48.3072H183.554V45.9972H172.224ZM158.529 48.9672C159.299 48.5272 160.014 48.6922 160.619 49.4622C162.269 51.3322 164.194 54.5222 165.239 56.9972C165.899 58.5922 165.514 59.9122 163.919 60.5722C162.159 61.2872 160.729 60.6822 160.344 58.8122C159.739 56.3372 158.749 52.9822 157.924 51.0022C157.539 50.0672 157.759 49.4072 158.529 48.9672ZM156.054 51.3322C157.264 54.1922 158.199 57.9322 158.584 61.0672C158.914 63.1022 158.034 64.2572 156.054 64.3672C154.074 64.5322 152.974 63.6522 153.084 61.5072C153.249 58.5372 153.194 54.9622 153.029 51.8272C152.974 50.8372 153.414 50.2322 154.294 50.1222C155.119 50.0122 155.669 50.3422 156.054 51.3322ZM149.729 50.6722C150.609 50.7822 151.159 51.3322 151.214 52.5422C151.324 56.2822 150.994 60.5172 150.004 63.7622C149.399 65.8522 147.694 66.6772 145.824 65.8522C144.009 65.0272 143.514 63.5422 144.614 61.5622C146.099 58.9772 147.254 55.5672 147.969 52.1572C148.189 51.0572 148.849 50.5622 149.729 50.6722ZM172.224 51.7172V53.5322C172.224 53.9172 172.499 54.1922 172.884 54.1922H182.894C183.279 54.1922 183.554 53.9172 183.554 53.5322V51.7172H172.224ZM192.299 61.6172C194.224 62.6072 194.664 64.1472 193.674 65.8522C192.684 67.6672 190.924 68.0522 189.164 66.7872C186.249 64.6972 182.894 62.6072 180.034 61.0672C179.044 60.5172 178.824 59.7472 179.154 58.9222C179.429 58.0422 180.199 57.7672 181.244 57.9322C184.764 58.5922 188.889 59.8572 192.299 61.6172Z" fill="#B8C318"/>
<path d="M209.459 28.2322C208.194 28.2322 207.479 27.4622 207.479 26.1972C207.479 24.9872 208.194 24.2172 209.459 24.2172H217.709V18.7722C217.709 16.7922 218.864 15.6372 221.064 15.6372C223.264 15.6372 224.474 16.7922 224.474 18.7722V24.2172H232.614C233.879 24.2172 234.649 24.9872 234.649 26.1972C234.649 27.5172 233.879 28.2322 232.614 28.2322H209.459ZM254.614 59.5272C256.814 61.2322 257.364 63.2122 255.934 65.3572C254.504 67.4472 252.304 67.7222 250.159 65.7972C247.574 63.5972 245.264 60.7922 243.284 57.4372C239.874 61.5072 235.474 64.8072 229.974 67.2272C228.929 67.7222 228.214 67.5572 227.609 66.6772C227.114 65.7972 227.224 64.9722 228.214 64.2572C233.934 60.6272 237.894 56.6672 240.589 51.9372C239.049 48.1422 237.949 43.9622 237.234 39.3972C236.244 41.2672 235.144 42.9172 233.989 44.2372C233.329 45.0072 232.394 45.1722 231.679 44.6222C230.909 44.1272 230.744 43.4122 231.184 42.4222C231.734 41.2122 232.284 39.8372 232.834 38.4622C232.779 38.4622 232.779 38.5172 232.724 38.5172C231.294 39.7272 229.754 39.4522 228.654 37.8572C227.169 35.7122 225.629 33.7872 224.199 32.1922C223.374 31.3122 223.539 30.3772 224.034 29.6622C224.584 28.9472 225.464 28.7822 226.454 29.3322C228.434 30.5422 230.964 32.3572 232.999 34.3922C233.384 34.7222 233.604 35.1072 233.769 35.5472C235.199 30.7622 236.189 25.1522 236.629 19.1572C236.794 16.6822 238.169 15.5272 240.479 15.8572C242.789 16.1322 243.779 17.5072 243.394 19.9272C243.009 22.3472 242.459 24.7122 241.909 26.9672H254.504C255.824 26.9672 256.484 27.7372 256.484 28.9472C256.484 30.2122 255.824 30.9822 254.504 30.9822H252.579C252.029 39.1772 250.269 46.2722 246.969 52.1572C249.114 54.9622 251.644 57.3822 254.614 59.5272ZM210.119 44.7872C209.184 45.5022 208.304 45.4472 207.699 44.6772C207.039 43.9072 206.984 43.1372 207.754 42.2022C209.954 39.3422 211.934 35.7122 213.419 31.3672C214.079 29.4972 215.509 28.5622 217.599 29.3872C219.634 30.1572 220.019 31.6972 219.139 33.6772C217.269 37.7472 213.639 42.1472 210.119 44.7872ZM239.709 33.8972C240.479 38.5172 241.634 42.5322 243.229 45.9422C244.714 41.6522 245.484 36.7022 245.869 30.9822H240.754C240.424 31.9722 240.094 32.9622 239.709 33.8972ZM232.064 59.9672C230.249 61.5072 228.379 61.1222 226.894 59.1422C225.739 57.5472 224.474 56.0072 223.154 54.5222C219.579 59.9122 214.849 64.1472 209.844 66.5672C208.799 67.0622 207.919 66.9522 207.369 66.0722C206.819 65.1922 206.984 64.4222 207.919 63.5972C212.814 59.8572 216.499 55.6772 219.194 50.2322C217.544 48.5272 215.839 46.9322 214.134 45.4472C213.254 44.6772 213.144 43.7972 213.694 42.8622C214.244 41.9822 215.179 41.7622 216.169 42.3122C217.819 43.2472 219.524 44.2922 221.174 45.4472C221.724 43.8522 222.219 42.1472 222.604 40.3322C223.044 38.2972 224.474 37.3622 226.564 37.9672C228.544 38.5172 229.259 39.8372 228.764 41.7072C228.104 44.3472 227.224 46.8222 226.124 49.1872C228.324 50.9472 230.414 52.8722 232.284 54.7972C233.989 56.5022 233.879 58.4272 232.064 59.9672Z" fill="#B8C318"/>
<path d="M301.749 59.0872C299.548 59.0872 298.284 58.0422 298.284 56.2272V52.0472H287.064C285.743 52.0472 285.029 51.2772 285.029 50.0122C285.029 48.7472 285.743 48.0872 287.064 48.0872H298.284V45.0622H290.749C288.714 45.0622 287.559 43.9622 287.559 41.8722V30.5422C287.559 28.4522 288.714 27.3522 290.749 27.3522H298.284V24.6572H287.833C286.568 24.6572 285.854 23.8322 285.854 22.6222C285.854 21.4122 286.568 20.7522 287.833 20.7522H298.284V18.3872C298.284 16.5722 299.548 15.5272 301.749 15.5272C304.004 15.5272 305.268 16.5722 305.268 18.3872V20.7522H315.993C317.259 20.7522 317.974 21.4122 317.974 22.6222C317.974 23.8872 317.259 24.6572 315.993 24.6572H305.268V27.3522H312.859C314.949 27.3522 316.104 28.4522 316.104 30.5422V41.8722C316.104 43.9622 314.949 45.0622 312.859 45.0622H305.268V48.0872H316.928C318.194 48.0872 318.909 48.7472 318.909 50.0122C318.909 51.3322 318.194 52.0472 316.928 52.0472H305.268V56.2272C305.268 58.0422 304.004 59.0872 301.749 59.0872ZM283.434 24.8222C282.059 26.4172 280.354 26.4172 278.759 24.6572C277.164 22.7322 275.294 20.8072 273.644 19.2672C272.929 18.6072 272.874 17.7272 273.368 16.9572C273.863 16.1872 274.689 15.9122 275.624 16.2422C277.824 17.1222 280.518 18.4972 282.719 20.0922C284.699 21.4122 284.918 23.1172 283.434 24.8222ZM281.729 35.9322C280.244 37.5272 278.484 37.5822 276.889 35.7122C275.184 33.6222 273.314 31.5872 271.719 29.8822C271.004 29.1672 270.949 28.3422 271.499 27.5172C271.993 26.8022 272.708 26.6372 273.699 26.9672C276.064 27.9022 278.869 29.4972 281.014 31.1472C282.939 32.5772 283.269 34.2272 281.729 35.9322ZM293.939 34.2822H298.613V31.0922H294.599C294.214 31.0922 293.939 31.3672 293.939 31.7522V34.2822ZM304.939 34.2822H309.724V31.7522C309.724 31.3672 309.449 31.0922 309.064 31.0922H304.939V34.2822ZM293.939 40.6622C293.939 41.0472 294.214 41.3222 294.599 41.3222H298.613V38.0222H293.939V40.6622ZM304.939 41.3222H309.064C309.449 41.3222 309.724 41.0472 309.724 40.6622V38.0222H304.939V41.3222ZM270.454 66.1822C269.189 64.6972 269.243 63.1572 270.839 61.6722C272.874 59.9122 275.073 57.8772 276.339 56.2272V44.5672C276.339 44.1822 276.064 43.9072 275.678 43.9072H271.884C270.619 43.9072 269.904 43.1922 269.904 41.9272C269.904 40.6622 270.619 39.9472 271.884 39.9472H280.023C282.113 39.9472 283.268 41.1022 283.268 43.1922V55.1272C285.469 58.3722 289.374 59.6372 295.368 59.7472C302.793 59.8572 309.779 59.4722 315.389 58.9772C317.919 58.7572 319.238 59.6922 319.238 61.9472C319.238 64.3122 318.359 65.6322 315.664 65.7422C309.504 66.1272 302.134 66.0722 296.469 65.7972C288.714 65.4122 283.984 63.3222 281.014 58.7572C280.684 58.3172 280.244 58.3172 280.079 58.7572C278.924 61.0122 277.329 63.7622 275.349 66.1272C274.084 67.7772 271.719 67.6672 270.454 66.1822Z" fill="#B8C318"/>
<path d="M379.794 28.6722H370.499V36.9222H378.199C379.519 36.9222 380.179 37.6372 380.179 38.9022C380.179 40.2222 379.519 40.9372 378.199 40.9372H355.814C354.493 40.9372 353.779 40.2222 353.779 38.9022C353.779 37.6372 354.493 36.9222 355.814 36.9222H363.404V28.6722H354.329C353.009 28.6722 352.294 27.9022 352.294 26.5822C352.294 25.2622 353.009 24.6022 354.329 24.6022H363.404V18.9922C363.404 16.8472 364.669 15.7472 366.924 15.7472C369.234 15.7472 370.499 16.8472 370.499 18.9922V24.6022H379.794C381.169 24.6022 381.829 25.2622 381.829 26.5822C381.829 27.9572 381.169 28.6722 379.794 28.6722ZM349.819 38.8472C351.359 40.6622 352.624 42.9722 353.559 45.1722C354.329 46.9872 353.889 48.1972 352.349 48.8022C350.699 49.4622 349.489 48.8572 348.994 46.9872C348.884 46.4922 348.719 45.9972 348.554 45.5022C344.869 47.2072 340.579 48.5822 336.289 49.4072C334.364 49.7922 332.769 49.0772 332.494 47.0422C332.219 45.0622 333.209 43.7422 335.134 43.6322C335.684 43.6322 336.234 43.5772 336.729 43.5772C338.599 41.0472 340.414 38.1322 342.064 35.0522C340.194 35.6572 338.214 36.0972 336.344 36.4272C334.419 36.7572 332.989 35.9872 332.824 34.0622C332.659 32.1372 333.594 31.0922 335.574 31.0922H336.014C337.499 27.4072 338.764 22.9522 339.754 18.6072C340.249 16.4622 341.734 15.7472 343.934 16.2422C345.969 16.7372 346.574 18.4972 345.749 20.6972C344.319 24.3822 342.339 28.0672 340.139 30.9822C341.569 30.8722 342.944 30.8172 344.319 30.7072C344.868 29.4972 345.419 28.3422 345.914 27.1872C346.684 25.3722 348.224 24.7672 350.149 25.5922C352.019 26.4172 352.294 28.1222 351.359 29.9922C348.994 34.5572 345.364 39.4522 341.789 43.1922C343.824 42.9722 345.803 42.6972 347.564 42.4222C347.344 41.7072 347.124 41.0472 346.904 40.4422C346.519 39.3972 346.794 38.6272 347.619 38.1872C348.444 37.8022 349.159 37.9672 349.819 38.8472ZM376.164 45.0622C378.254 45.0622 379.409 46.2172 379.409 48.3072V64.3672C379.409 66.3472 378.144 67.4472 375.999 67.4472C373.799 67.4472 372.589 66.3472 372.589 64.3672V63.1572H361.424V64.4222C361.424 66.4572 360.269 67.5022 358.069 67.5022C355.868 67.5022 354.659 66.4572 354.659 64.4222V48.3072C354.659 46.2172 355.814 45.0622 357.849 45.0622H376.164ZM348.499 49.2422C350.039 51.0572 352.184 54.1372 353.284 56.6672C354.053 58.4272 353.833 59.6922 352.129 60.4622C350.479 61.2322 349.159 60.5172 348.664 58.8122C347.894 56.2272 346.794 52.9822 345.914 50.7822C345.529 49.8472 345.804 49.1872 346.519 48.8022C347.234 48.4172 347.893 48.5822 348.499 49.2422ZM361.424 59.1972H372.589V49.6822C372.589 49.2972 372.314 49.0222 371.929 49.0222H362.084C361.699 49.0222 361.424 49.2972 361.424 49.6822V59.1972ZM343.989 51.3872C345.254 54.1372 346.409 58.1522 346.904 61.2872C347.234 63.2672 346.574 64.4772 344.539 64.6972C342.669 64.8622 341.514 64.0372 341.514 61.9472C341.459 58.9772 341.294 55.0172 340.964 52.0472C340.854 51.0572 341.294 50.4522 342.119 50.2322C342.889 50.0672 343.549 50.4522 343.989 51.3872ZM337.664 50.8922C338.544 50.9472 339.094 51.6072 339.149 52.5422C339.259 56.5022 338.984 60.7922 338.269 63.8172C337.829 66.0172 336.399 66.7322 334.529 66.1272C332.494 65.4122 332.054 63.8172 332.989 61.9472C334.309 59.2522 335.244 56.0072 336.014 52.2672C336.179 51.2772 336.839 50.8372 337.664 50.8922Z" fill="#B8C318"/>
<path d="M98.1385 116.782C97.0935 117.827 95.9385 118.817 94.7835 119.752V139.057C94.7835 144.117 89.7235 146.042 82.7385 142.852C81.8035 142.412 81.5285 141.587 81.7485 140.707C81.9135 139.827 82.5185 139.442 83.6185 139.497C87.4135 139.882 88.2385 139.717 88.2385 137.627V124.207C87.6335 124.592 87.0835 124.922 86.4785 125.252C84.5535 126.407 82.7385 125.802 81.9135 123.657C81.1985 121.677 81.8585 120.137 84.0035 119.312C85.3235 118.817 86.7535 118.212 88.2385 117.607V108.477H83.8385C82.6285 108.477 81.9685 107.762 81.9685 106.607C81.9685 105.397 82.6285 104.737 83.8385 104.737H88.2385V95.6622C88.2385 93.6272 89.4485 92.5822 91.5385 92.5822C93.6285 92.5822 94.7835 93.6272 94.7835 95.6622V104.737H98.9085C100.119 104.737 100.779 105.397 100.779 106.607C100.779 107.817 100.119 108.477 98.9085 108.477H94.7835V114.692C95.2785 114.472 95.7185 114.197 96.2135 113.977C96.9835 113.537 97.6985 113.482 98.1935 113.867C98.3035 111.997 99.4035 111.007 101.384 111.007H105.124C104.354 110.787 103.749 110.182 103.364 109.137C102.649 107.047 101.879 105.287 100.889 103.252C100.504 102.372 100.724 101.657 101.494 101.217C102.154 100.777 102.924 100.832 103.584 101.492C105.179 102.922 106.829 104.792 108.094 106.772C109.194 108.367 108.809 109.797 107.104 110.677C106.774 110.842 106.499 110.952 106.224 111.007H120.084C119.589 110.622 119.424 110.127 119.699 109.412C120.524 107.267 121.184 104.792 121.844 101.602C122.284 99.6222 123.659 98.7422 125.749 99.4572C127.674 100.117 127.949 101.657 127.289 103.252C125.969 106.332 124.264 108.972 122.614 110.842L122.449 111.007H126.244C128.334 111.007 129.434 112.107 129.434 114.197V117.827C129.434 119.807 128.224 120.742 126.189 120.742C124.209 120.742 123.054 119.752 123.054 117.827V115.462C123.054 115.077 122.779 114.802 122.394 114.802H105.124C104.739 114.802 104.464 115.077 104.464 115.462V117.552C104.464 119.422 103.309 120.412 101.329 120.412C99.2935 120.412 98.1935 119.422 98.1935 117.552V116.727L98.1385 116.782ZM99.6785 100.502C98.6885 100.447 97.9735 99.9522 97.9185 98.8522C97.9185 97.8072 98.4685 97.2572 99.5685 97.1472C107.379 96.5422 116.784 95.0572 123.714 92.9672C125.584 92.4172 127.179 93.0222 127.729 94.9472C128.279 96.9272 127.399 98.5222 125.309 98.9072C122.174 99.5672 117.334 100.062 112.384 100.337C112.604 100.447 112.824 100.667 113.044 100.942C114.529 102.757 115.739 104.627 116.839 106.882C117.719 108.642 117.059 109.962 115.354 110.622C113.594 111.282 112.329 110.567 111.889 108.642C111.394 106.497 110.844 104.517 110.074 102.372C109.744 101.437 110.019 100.777 110.734 100.392C106.829 100.612 102.869 100.612 99.6785 100.502ZM127.619 137.407C130.204 137.847 131.139 139.442 130.534 141.917C129.984 144.337 128.059 144.887 125.804 144.337C121.789 143.402 117.829 141.367 114.309 138.562C109.524 141.697 103.804 143.732 97.9735 144.447C96.8185 144.557 96.1035 144.172 95.8285 143.127C95.6085 142.082 96.1035 141.367 97.2035 141.037C102.484 139.497 106.939 137.462 110.459 134.877C107.819 131.907 105.674 128.387 104.299 124.372H102.484C101.274 124.372 100.559 123.657 100.559 122.447C100.559 121.237 101.274 120.577 102.484 120.577H122.174C125.254 120.577 126.519 122.667 125.364 125.527C123.934 129.047 121.789 132.127 119.094 134.712C121.679 135.922 124.539 136.802 127.619 137.407ZM118.104 124.372H107.929C109.524 127.342 111.614 129.762 114.199 131.742C116.124 129.762 117.609 127.562 118.654 125.142C118.819 124.702 118.599 124.372 118.104 124.372Z" fill="#B8C318"/>
<path d="M191.254 101.272C192.519 101.272 193.289 102.042 193.289 103.307C193.289 104.627 192.519 105.342 191.254 105.342H161.719C160.399 105.342 159.629 104.627 159.629 103.307C159.629 102.042 160.399 101.272 161.719 101.272H172.334V95.6072C172.334 93.7922 173.599 92.5822 176.019 92.5822C178.439 92.5822 179.759 93.7922 179.759 95.6072V101.272H191.254ZM160.674 97.7522C159.904 100.887 158.804 104.077 157.429 107.157V141.367C157.429 143.457 156.274 144.447 154.074 144.447C151.874 144.447 150.719 143.457 150.719 141.367V118.487C149.508 120.082 148.189 121.512 146.869 122.722C145.989 123.602 145.109 123.657 144.394 123.052C143.624 122.282 143.624 121.457 144.174 120.522C148.409 114.087 151.709 105.507 153.524 96.1572C153.964 93.5172 155.559 92.4722 157.979 92.9672C160.399 93.4622 161.334 95.1122 160.674 97.7522ZM188.504 109.247C189.769 109.247 190.539 110.017 190.539 111.282C190.539 112.602 189.769 113.317 188.504 113.317H163.864C162.544 113.317 161.774 112.602 161.774 111.282C161.774 110.017 162.544 109.247 163.864 109.247H188.504ZM188.394 116.837C189.659 116.837 190.429 117.607 190.429 118.927C190.429 120.192 189.659 120.962 188.394 120.962H164.029C162.709 120.962 161.939 120.192 161.939 118.927C161.939 117.607 162.709 116.837 164.029 116.837H188.394ZM186.634 124.977C188.724 124.977 189.879 126.132 189.879 128.222V141.422C189.879 143.457 188.614 144.447 186.414 144.447C184.159 144.447 182.949 143.457 182.949 141.422V140.157H169.364V141.422C169.364 143.457 168.154 144.447 165.899 144.447C163.644 144.447 162.434 143.457 162.434 141.422V128.222C162.434 126.132 163.589 124.977 165.624 124.977H186.634ZM169.364 136.252H182.949V129.542C182.949 129.157 182.674 128.882 182.289 128.882H170.024C169.639 128.882 169.364 129.157 169.364 129.542V136.252Z" fill="#B8C318"/>
<path d="M254.559 128.002C255.769 128.002 256.484 128.717 256.484 129.982C256.484 131.302 255.769 131.962 254.559 131.962H246.309V138.452C246.309 144.447 240.204 145.877 232.559 142.577C231.569 142.192 231.184 141.422 231.459 140.377C231.679 139.387 232.394 139.057 233.549 139.167C238.719 139.662 239.214 139.277 239.214 137.352V131.962H221.559C223.704 132.787 225.959 133.832 227.829 135.042C229.699 136.142 230.084 137.792 228.874 139.442C227.719 141.092 226.014 141.312 224.364 139.772C222.604 138.012 220.459 136.142 218.534 134.602C217.654 133.887 217.489 133.172 217.874 132.292C217.929 132.182 217.984 132.072 218.094 131.962H209.074C207.809 131.962 207.094 131.247 207.094 129.982C207.094 128.717 207.809 128.002 209.074 128.002H239.214V126.682C239.214 125.692 239.544 124.922 240.149 124.427C231.844 125.252 221.614 125.857 211.329 126.077C209.514 126.077 208.469 125.142 208.469 123.382C208.469 121.677 209.349 120.687 211.274 120.742C216.664 120.852 222.549 120.907 228.159 120.852V118.102H215.729C213.694 118.102 212.539 116.947 212.539 114.912V106.167C212.539 104.132 213.694 102.977 215.729 102.977H228.159V100.832H210.559C209.294 100.832 208.634 100.117 208.634 98.8522C208.634 97.5872 209.294 96.8722 210.559 96.8722H228.159V95.7172C228.159 93.7372 229.424 92.5822 231.734 92.5822C234.099 92.5822 235.364 93.7372 235.364 95.7172V96.8722H253.074C254.339 96.8722 254.999 97.5872 254.999 98.8522C254.999 100.117 254.339 100.832 253.074 100.832H235.364V102.977H247.904C249.939 102.977 251.094 104.132 251.094 106.167V114.912C251.094 116.562 250.324 117.607 249.004 117.992C250.544 119.147 252.139 120.467 253.514 122.007C254.779 123.382 254.559 124.867 253.184 126.022C251.699 127.232 250.104 126.902 249.169 125.417L248.014 123.547C246.859 123.712 245.704 123.822 244.494 123.987C245.704 124.427 246.309 125.307 246.309 126.682V128.002H254.559ZM219.194 107.322V108.807H228.269V106.662H219.854C219.469 106.662 219.194 106.937 219.194 107.322ZM243.779 106.662H235.254V108.807H244.439V107.322C244.439 106.937 244.164 106.662 243.779 106.662ZM219.854 114.417H228.269V112.162H219.194V113.757C219.194 114.142 219.469 114.417 219.854 114.417ZM244.439 112.162H235.254V114.417H243.779C244.164 114.417 244.439 114.142 244.439 113.757V112.162ZM235.364 118.102V120.742L245.649 120.412C245.374 120.082 245.154 119.807 244.934 119.532C244.549 119.037 244.384 118.542 244.439 118.102H235.364Z" fill="#B8C318"/>
<path d="M274.964 106.497C272.874 106.497 271.719 105.562 271.719 103.747V100.557C271.719 98.4672 272.874 97.1472 274.909 97.1472H290.859V95.3872C290.859 93.5172 292.124 92.3622 294.434 92.3622C296.743 92.3622 298.064 93.4622 298.064 95.3872V97.1472H314.124C316.159 97.1472 317.314 98.4672 317.314 100.557V103.637C317.314 105.562 316.159 106.442 314.069 106.442C311.924 106.442 310.769 105.452 310.769 103.912V101.987C310.769 101.602 310.494 101.327 310.109 101.327H278.923C278.538 101.327 278.264 101.547 278.264 101.987V103.857C278.264 105.562 277.108 106.497 274.964 106.497ZM316.434 135.867C318.578 136.362 319.624 137.957 318.964 140.157C318.358 142.357 316.654 142.962 314.454 142.302C308.569 140.542 302.134 136.967 298.118 132.897V141.202C298.118 143.512 296.854 144.502 294.544 144.502C292.234 144.502 290.969 143.457 290.969 141.202V133.502C286.184 137.737 278.374 141.312 272.104 142.522C271.059 142.687 270.288 142.302 270.014 141.312C269.684 140.267 270.124 139.387 271.169 138.947C277.493 136.747 282.664 134.052 286.789 130.092H272.984C271.773 130.092 271.004 129.322 271.004 128.002C271.004 126.737 271.773 125.967 272.984 125.967H290.969V124.427C290.969 123.327 291.354 122.502 292.069 122.007C287.504 123.382 282.113 124.152 276.064 124.317C275.019 124.317 274.414 123.712 274.304 122.722C274.139 121.732 274.689 120.907 275.844 120.797C282.499 120.192 287.448 119.147 291.243 117.607C289.594 117.167 287.889 116.727 286.129 116.342L285.359 117.112C283.874 118.597 282.333 118.872 280.738 117.387C279.363 116.122 279.584 114.747 280.794 113.427C281.564 112.602 282.224 111.777 282.939 110.952H273.534C272.324 110.952 271.664 110.237 271.664 109.027C271.664 107.817 272.324 107.102 273.534 107.102H285.909C286.844 105.837 287.724 104.627 288.604 103.362C289.704 101.822 291.298 101.437 293.059 102.482C294.928 103.527 295.039 105.177 293.939 106.882L293.773 107.102H315.224C316.379 107.102 317.094 107.817 317.094 109.027C317.094 110.237 316.379 110.952 315.224 110.952H307.579C306.479 112.877 305.048 114.527 303.344 116.067C306.259 116.727 309.009 117.497 311.594 118.322C313.904 119.092 314.674 120.742 313.794 122.722C312.859 124.647 311.154 125.032 309.118 124.097C305.379 122.392 301.804 120.962 298.009 119.642C296.743 120.302 295.423 120.852 293.993 121.347H294.544C296.744 121.347 298.118 122.337 298.118 124.427V125.967H315.993C317.259 125.967 317.974 126.682 317.974 128.002C317.974 129.322 317.259 130.092 315.993 130.092H300.154C304.444 132.567 310.493 134.602 316.434 135.867ZM288.824 113.427C291.354 113.757 293.994 114.142 296.579 114.637C297.954 113.537 299.108 112.327 300.154 110.952H290.969C290.309 111.777 289.594 112.602 288.824 113.427Z" fill="#B8C318"/>
</svg>
