<svg width="400" height="160" viewBox="0 0 400 160" fill="none" xmlns="http://www.w3.org/2000/svg">
<path d="M44.7946 66.8554C36.5436 66.8554 31.6226 61.7494 31.6226 52.3514C31.6226 43.9894 36.8766 38.5874 45.1646 38.5874C49.6416 38.5874 52.7126 40.3634 54.0816 41.7324C55.0066 42.6574 55.0806 43.8044 54.1926 44.7664C53.2676 45.7654 52.1206 45.8024 51.0106 44.8774C49.9376 43.9894 48.0876 42.9164 45.0536 42.9164C40.8726 42.9164 38.2086 46.5424 38.2086 52.4254C38.2086 59.0854 40.5026 62.4894 44.8316 62.4894C46.6076 62.4894 48.0506 62.1564 48.7906 61.7124C49.0866 61.5274 49.1976 61.3794 49.1976 61.0464V55.8664C49.1976 55.6814 49.0866 55.5334 48.8646 55.5334H45.4236C44.0546 55.5334 43.3146 54.8304 43.3146 53.4614C43.3146 52.0924 44.0546 51.3894 45.4236 51.3894H52.4906C54.0816 51.3894 55.0066 52.2774 55.0066 53.9054V61.7124C55.0066 63.1184 54.5996 64.0064 53.5636 64.7464C51.7136 66.0784 48.4576 66.8554 44.7946 66.8554Z" fill="#594A39"/>
<path d="M74.9531 48.7254C75.1381 50.7604 73.8431 51.3894 72.0301 51.6114C70.0691 51.8704 68.2191 53.7944 67.6641 56.2364V63.8954C67.6641 65.9674 66.4061 66.8554 64.3711 66.8554C62.3361 66.8554 61.3741 65.9304 61.3741 63.8954V49.0584C61.3741 47.2824 62.5581 46.5054 64.3711 46.5054C66.0731 46.5054 67.1831 47.3934 67.1831 49.2064V50.9454C67.9601 47.8744 69.6991 46.6164 71.8821 46.5424C73.5471 46.5054 74.8051 47.0604 74.9531 48.7254Z" fill="#594A39"/>
<path d="M93.247 61.4534C94.246 60.7134 95.319 60.7874 96.022 61.6014C96.725 62.3784 96.762 63.4514 95.985 64.3024C94.801 65.6344 91.915 66.8554 88.252 66.8554C82.443 66.8554 77.966 63.9324 77.966 57.1244C77.966 50.5754 81.814 46.4684 87.993 46.4684C94.061 46.4684 97.095 50.9824 97.095 55.3484C97.095 57.4574 96.0219 58.5674 93.765 58.5674H84.367C84.737 61.6384 86.106 62.7854 88.733 62.8594C90.546 62.8964 92.026 62.3784 93.247 61.4534ZM88.067 50.3534C85.736 50.3534 84.7 51.9444 84.367 54.4974H91.101C91.323 54.4974 91.434 54.3864 91.434 54.1644C91.434 51.6114 90.139 50.3534 88.067 50.3534Z" fill="#594A39"/>
<path d="M116.479 61.4534C117.478 60.7134 118.551 60.7874 119.254 61.6014C119.957 62.3784 119.994 63.4514 119.217 64.3024C118.033 65.6344 115.147 66.8554 111.484 66.8554C105.675 66.8554 101.198 63.9324 101.198 57.1244C101.198 50.5754 105.046 46.4684 111.225 46.4684C117.293 46.4684 120.327 50.9824 120.327 55.3484C120.327 57.4574 119.254 58.5674 116.997 58.5674H107.599C107.969 61.6384 109.338 62.7854 111.965 62.8594C113.778 62.8964 115.258 62.3784 116.479 61.4534ZM111.299 50.3534C108.968 50.3534 107.932 51.9444 107.599 54.4974H114.333C114.555 54.4974 114.666 54.3864 114.666 54.1644C114.666 51.6114 113.371 50.3534 111.299 50.3534Z" fill="#594A39"/>
<path d="M137.306 46.5054C141.709 46.5054 144.447 49.3174 144.447 53.8684V63.7844C144.447 65.7824 143.337 66.8554 141.302 66.8554C139.267 66.8554 138.157 65.7824 138.157 63.7844V54.3494C138.157 52.0184 137.195 50.6124 135.493 50.6124C133.865 50.6124 132.385 52.0924 131.904 54.1644V63.7844C131.904 65.7824 130.794 66.8554 128.759 66.8554C126.724 66.8554 125.614 65.7824 125.614 63.7844V49.3914C125.614 47.5414 126.65 46.5424 128.5 46.5424C130.387 46.5424 131.423 47.4674 131.423 49.3544V49.9464C132.533 47.6894 134.827 46.5054 137.306 46.5054Z" fill="#594A39"/>
<path d="M172.503 43.3604C172.318 43.3604 172.17 43.4714 172.17 43.6934V50.1684H179.496C180.791 50.1684 181.494 50.9084 181.494 52.2774C181.494 53.6464 180.791 54.3864 179.496 54.3864H172.17V63.6364C172.17 65.7454 170.986 66.8554 168.988 66.8554C166.953 66.8554 165.806 65.7454 165.806 63.6364V42.2134C165.806 40.2524 166.879 39.1424 168.803 39.1424H180.643C181.938 39.1424 182.641 39.8824 182.641 41.2514C182.641 42.6204 181.938 43.3604 180.643 43.3604H172.503Z" fill="#594A39"/>
<path d="M190.408 44.2484C188.373 44.2484 186.671 42.6944 186.671 40.6964C186.671 38.6244 188.336 37.1074 190.408 37.1074C192.517 37.1074 193.997 38.5874 193.997 40.6964C193.997 42.7314 192.48 44.2484 190.408 44.2484ZM190.334 66.8554C188.262 66.8554 187.189 65.7824 187.189 63.7844V49.9464C187.189 47.9484 188.262 46.8754 190.334 46.8754C192.406 46.8754 193.479 47.9484 193.479 49.9464V63.7844C193.479 65.7824 192.406 66.8554 190.334 66.8554Z" fill="#594A39"/>
<path d="M212.203 46.5054C216.606 46.5054 219.344 49.3174 219.344 53.8684V63.7844C219.344 65.7824 218.234 66.8554 216.199 66.8554C214.164 66.8554 213.054 65.7824 213.054 63.7844V54.3494C213.054 52.0184 212.092 50.6124 210.39 50.6124C208.762 50.6124 207.282 52.0924 206.801 54.1644V63.7844C206.801 65.7824 205.691 66.8554 203.656 66.8554C201.621 66.8554 200.511 65.7824 200.511 63.7844V49.3914C200.511 47.5414 201.547 46.5424 203.397 46.5424C205.284 46.5424 206.32 47.4674 206.32 49.3544V49.9464C207.43 47.6894 209.724 46.5054 212.203 46.5054Z" fill="#594A39"/>
<path d="M240.977 48.9474C242.087 50.1314 242.642 51.7964 242.642 53.9424V63.7844C242.642 65.7824 241.865 66.8554 239.941 66.8554C237.98 66.8554 237.092 65.7824 237.092 63.7844V63.6734C235.871 65.8194 233.577 66.8554 230.654 66.8554C226.732 66.8554 224.327 64.5614 224.327 60.8984C224.327 56.4954 228.434 53.7574 234.65 53.7574C235.39 53.7574 236.167 53.7944 236.648 53.8684V53.5354C236.648 51.6854 235.612 50.5754 233.651 50.5014C232.06 50.4274 230.358 51.1304 228.952 52.6474C228.064 53.6094 226.769 53.7574 225.844 52.9434C224.882 52.1664 224.771 50.9454 225.622 49.8724C226.954 48.2444 229.877 46.5054 233.762 46.5054C237.203 46.5054 239.386 47.2824 240.977 48.9474ZM236.722 59.5294V57.6424C236.241 57.5684 235.427 57.4944 234.724 57.5314C231.172 57.7164 229.951 59.0854 230.025 60.5284C230.099 61.7864 230.876 62.5264 232.393 62.5264C234.132 62.5264 235.871 61.3054 236.722 59.5294Z" fill="#594A39"/>
<path d="M260.618 46.5054C265.021 46.5054 267.759 49.3174 267.759 53.8684V63.7844C267.759 65.7824 266.649 66.8554 264.614 66.8554C262.579 66.8554 261.469 65.7824 261.469 63.7844V54.3494C261.469 52.0184 260.507 50.6124 258.805 50.6124C257.177 50.6124 255.697 52.0924 255.216 54.1644V63.7844C255.216 65.7824 254.106 66.8554 252.071 66.8554C250.036 66.8554 248.926 65.7824 248.926 63.7844V49.3914C248.926 47.5414 249.962 46.5424 251.812 46.5424C253.699 46.5424 254.735 47.4674 254.735 49.3544V49.9464C255.845 47.6894 258.139 46.5054 260.618 46.5054Z" fill="#594A39"/>
<path d="M282.917 66.8554C276.59 66.8554 272.853 63.1554 272.853 56.8284C272.853 50.5014 276.738 46.5054 282.954 46.5054C286.395 46.5054 288.763 47.9114 289.725 49.1324C290.465 49.9834 290.428 51.0934 289.614 51.8334C288.652 52.6844 287.579 52.7214 286.728 51.9074C285.914 51.1304 284.693 50.7974 283.472 50.7974C280.734 50.7974 279.143 52.7954 279.143 56.5324C279.143 60.6394 280.697 62.4894 283.546 62.4894C284.989 62.4894 286.136 62.1564 286.987 61.4164C287.838 60.6764 288.911 60.7504 289.725 61.4904C290.613 62.2674 290.613 63.3404 289.836 64.3764C288.652 65.9304 285.988 66.8554 282.917 66.8554Z" fill="#594A39"/>
<path d="M299.088 44.2484C297.053 44.2484 295.351 42.6944 295.351 40.6964C295.351 38.6244 297.016 37.1074 299.088 37.1074C301.197 37.1074 302.677 38.5874 302.677 40.6964C302.677 42.7314 301.16 44.2484 299.088 44.2484ZM299.014 66.8554C296.942 66.8554 295.869 65.7824 295.869 63.7844V49.9464C295.869 47.9484 296.942 46.8754 299.014 46.8754C301.086 46.8754 302.159 47.9484 302.159 49.9464V63.7844C302.159 65.7824 301.086 66.8554 299.014 66.8554Z" fill="#594A39"/>
<path d="M320.884 46.5054C325.287 46.5054 328.025 49.3174 328.025 53.8684V63.7844C328.025 65.7824 326.915 66.8554 324.88 66.8554C322.845 66.8554 321.735 65.7824 321.735 63.7844V54.3494C321.735 52.0184 320.773 50.6124 319.071 50.6124C317.443 50.6124 315.963 52.0924 315.482 54.1644V63.7844C315.482 65.7824 314.372 66.8554 312.337 66.8554C310.302 66.8554 309.192 65.7824 309.192 63.7844V49.3914C309.192 47.5414 310.228 46.5424 312.078 46.5424C313.965 46.5424 315.001 47.4674 315.001 49.3544V49.9464C316.111 47.6894 318.405 46.5054 320.884 46.5054Z" fill="#594A39"/>
<path d="M349.51 46.5424C351.545 46.5424 352.248 47.5784 352.248 49.5764V65.8934C352.248 72.4054 348.844 75.6244 342.406 75.6244C340.075 75.6244 337.448 74.9214 335.931 73.9224C334.673 73.1084 334.229 72.0354 334.858 70.8514C335.45 69.7044 336.671 69.4824 337.781 70.1854C338.928 70.8884 340.149 71.4434 342.184 71.4434C345.07 71.4434 346.328 69.8894 346.328 66.1154V64.6724C345.181 65.6714 343.516 66.3004 341.888 66.3004C337.522 66.3004 333.119 64.1174 333.119 56.7174C333.119 50.2794 336.597 46.5054 341.703 46.5054C344.034 46.5054 345.662 47.3934 346.661 48.7624C346.92 47.3564 347.919 46.5424 349.51 46.5424ZM343.294 62.1194C344.589 62.1194 345.81 61.5274 346.587 60.4914V53.3504C346.18 52.2774 345.181 50.6864 342.998 50.6864C340.593 50.6864 339.113 52.5364 339.113 56.7914C339.113 60.2694 340.778 62.1194 343.294 62.1194Z" fill="#594A39"/>
<path d="M37.384 94.8834C44.821 94.8834 48.8911 98.0654 48.8911 103.578C48.8911 110.127 43.304 112.421 37.754 112.421C36.903 112.421 36.015 112.421 35.238 112.384V119.636C35.238 121.745 34.054 122.855 32.019 122.855C29.873 122.855 28.8 121.745 28.8 119.636V98.3984C28.8 96.5854 29.651 95.4384 31.427 95.1794C32.907 94.9574 35.312 94.8834 37.384 94.8834ZM37.495 108.314C40.566 108.314 42.527 106.612 42.527 103.615C42.527 100.803 40.566 99.0274 37.532 99.0274C36.792 99.0274 35.904 99.0644 35.46 99.1384C35.275 99.1754 35.164 99.2864 35.164 99.5084V108.277C35.941 108.314 36.755 108.314 37.495 108.314Z" fill="#594A39"/>
<path d="M66.86 104.725C67.045 106.76 65.75 107.389 63.937 107.611C61.976 107.87 60.126 109.794 59.571 112.236V119.895C59.571 121.967 58.313 122.855 56.278 122.855C54.243 122.855 53.281 121.93 53.281 119.895V105.058C53.281 103.282 54.465 102.505 56.278 102.505C57.98 102.505 59.09 103.393 59.09 105.206V106.945C59.867 103.874 61.606 102.616 63.789 102.542C65.454 102.505 66.712 103.06 66.86 104.725Z" fill="#594A39"/>
<path d="M85.1539 117.453C86.1529 116.713 87.2259 116.787 87.9289 117.601C88.6319 118.378 88.6689 119.451 87.8919 120.302C86.7079 121.634 83.8219 122.855 80.1589 122.855C74.3499 122.855 69.8729 119.932 69.8729 113.124C69.8729 106.575 73.7209 102.468 79.8999 102.468C85.9679 102.468 89.0019 106.982 89.0019 111.348C89.0019 113.457 87.9289 114.567 85.6719 114.567H76.2739C76.6439 117.638 78.0129 118.785 80.6399 118.859C82.4529 118.896 83.9329 118.378 85.1539 117.453ZM79.9739 106.353C77.6429 106.353 76.6069 107.944 76.2739 110.497H83.0079C83.2299 110.497 83.3409 110.386 83.3409 110.164C83.3409 107.611 82.0459 106.353 79.9739 106.353Z" fill="#594A39"/>
<path d="M106.203 94.0694C107.054 94.6614 107.35 95.6974 106.943 96.6224C106.499 97.6214 105.463 98.0284 104.575 97.5844C104.205 97.3994 103.872 97.3254 103.539 97.3254C102.54 97.3254 102.17 97.9544 102.17 99.5824V103.06H104.464C105.648 103.06 106.314 103.874 106.314 105.169C106.314 106.501 105.611 107.278 104.464 107.278H102.17V119.821C102.17 121.893 100.986 122.855 99.0249 122.855C97.0269 122.855 95.8799 121.819 95.8799 119.821V107.278H94.1039C92.9199 107.278 92.1799 106.501 92.1799 105.169C92.1799 103.837 92.9199 103.06 94.1039 103.06H95.8799V99.4714C95.8799 95.4384 98.2109 93.0704 102.207 93.0704C103.798 93.0704 105.352 93.4774 106.203 94.0694Z" fill="#594A39"/>
<path d="M124.644 117.453C125.643 116.713 126.716 116.787 127.419 117.601C128.122 118.378 128.159 119.451 127.382 120.302C126.198 121.634 123.312 122.855 119.649 122.855C113.84 122.855 109.363 119.932 109.363 113.124C109.363 106.575 113.211 102.468 119.39 102.468C125.458 102.468 128.492 106.982 128.492 111.348C128.492 113.457 127.419 114.567 125.162 114.567H115.764C116.134 117.638 117.503 118.785 120.13 118.859C121.943 118.896 123.423 118.378 124.644 117.453ZM119.464 106.353C117.133 106.353 116.097 107.944 115.764 110.497H122.498C122.72 110.497 122.831 110.386 122.831 110.164C122.831 107.611 121.536 106.353 119.464 106.353Z" fill="#594A39"/>
<path d="M147.358 104.725C147.543 106.76 146.248 107.389 144.435 107.611C142.474 107.87 140.624 109.794 140.069 112.236V119.895C140.069 121.967 138.811 122.855 136.776 122.855C134.741 122.855 133.779 121.93 133.779 119.895V105.058C133.779 103.282 134.963 102.505 136.776 102.505C138.478 102.505 139.588 103.393 139.588 105.206V106.945C140.365 103.874 142.104 102.616 144.287 102.542C145.952 102.505 147.21 103.06 147.358 104.725Z" fill="#594A39"/>
<path d="M165.652 117.453C166.651 116.713 167.724 116.787 168.427 117.601C169.13 118.378 169.167 119.451 168.39 120.302C167.206 121.634 164.32 122.855 160.657 122.855C154.848 122.855 150.371 119.932 150.371 113.124C150.371 106.575 154.219 102.468 160.398 102.468C166.466 102.468 169.5 106.982 169.5 111.348C169.5 113.457 168.427 114.567 166.17 114.567H156.772C157.142 117.638 158.511 118.785 161.138 118.859C162.951 118.896 164.431 118.378 165.652 117.453ZM160.472 106.353C158.141 106.353 157.105 107.944 156.772 110.497H163.506C163.728 110.497 163.839 110.386 163.839 110.164C163.839 107.611 162.544 106.353 160.472 106.353Z" fill="#594A39"/>
<path d="M186.479 102.505C190.882 102.505 193.62 105.317 193.62 109.868V119.784C193.62 121.782 192.51 122.855 190.475 122.855C188.44 122.855 187.33 121.782 187.33 119.784V110.349C187.33 108.018 186.368 106.612 184.666 106.612C183.038 106.612 181.558 108.092 181.077 110.164V119.784C181.077 121.782 179.967 122.855 177.932 122.855C175.897 122.855 174.787 121.782 174.787 119.784V105.391C174.787 103.541 175.823 102.542 177.673 102.542C179.56 102.542 180.596 103.467 180.596 105.354V105.946C181.706 103.689 184 102.505 186.479 102.505Z" fill="#594A39"/>
<path d="M210.493 117.86C211.566 117.86 212.232 119.155 212.232 120.08C212.232 122.004 209.494 122.559 207.459 122.559C203.204 122.559 201.28 120.524 201.28 116.121V107.278H199.208C198.024 107.278 197.358 106.464 197.358 105.169C197.358 103.837 198.061 103.06 199.208 103.06H201.28V100.729C201.28 98.7314 202.39 97.6584 204.425 97.6584C206.46 97.6584 207.57 98.7314 207.57 100.729V103.06H209.975C211.159 103.06 211.825 103.874 211.825 105.169C211.825 106.501 211.122 107.278 209.975 107.278H207.57V116.047C207.57 117.527 207.977 118.193 208.643 118.193C209.346 118.193 209.827 117.86 210.493 117.86Z" fill="#594A39"/>
<path d="M220.901 100.248C218.866 100.248 217.164 98.6944 217.164 96.6964C217.164 94.6244 218.829 93.1074 220.901 93.1074C223.01 93.1074 224.49 94.5874 224.49 96.6964C224.49 98.7314 222.973 100.248 220.901 100.248ZM220.827 122.855C218.755 122.855 217.682 121.782 217.682 119.784V105.946C217.682 103.948 218.755 102.875 220.827 102.875C222.899 102.875 223.972 103.948 223.972 105.946V119.784C223.972 121.782 222.899 122.855 220.827 122.855Z" fill="#594A39"/>
<path d="M246.36 104.947C247.47 106.131 248.025 107.796 248.025 109.942V119.784C248.025 121.782 247.248 122.855 245.324 122.855C243.363 122.855 242.475 121.782 242.475 119.784V119.673C241.254 121.819 238.96 122.855 236.037 122.855C232.115 122.855 229.71 120.561 229.71 116.898C229.71 112.495 233.817 109.757 240.033 109.757C240.773 109.757 241.55 109.794 242.031 109.868V109.535C242.031 107.685 240.995 106.575 239.034 106.501C237.443 106.427 235.741 107.13 234.335 108.647C233.447 109.609 232.152 109.757 231.227 108.943C230.265 108.166 230.154 106.945 231.005 105.872C232.337 104.244 235.26 102.505 239.145 102.505C242.586 102.505 244.769 103.282 246.36 104.947ZM242.105 115.529V113.642C241.624 113.568 240.81 113.494 240.107 113.531C236.555 113.716 235.334 115.085 235.408 116.528C235.482 117.786 236.259 118.526 237.776 118.526C239.515 118.526 241.254 117.305 242.105 115.529Z" fill="#594A39"/>
<path d="M259.712 122.855C255.827 122.855 254.31 121.412 254.31 116.75V96.4744C254.31 94.5134 255.42 93.4404 257.455 93.4404C259.416 93.4404 260.563 94.5134 260.563 96.4744V116.787C260.563 117.86 260.674 118.23 261.451 118.23C261.895 118.23 262.154 118.045 262.598 118.045C263.264 118.045 264.226 118.563 264.226 120.154C264.226 122.226 262.191 122.855 259.712 122.855Z" fill="#594A39"/>
<path d="M300.086 120.154C300.086 121.523 299.346 122.3 297.94 122.3H287.543C284.99 122.3 283.843 121.042 283.843 118.489V97.6954C283.843 95.7344 285.027 94.6614 287.025 94.6244C289.023 94.5874 290.207 95.7344 290.207 97.6954V117.601C290.207 117.934 290.355 118.008 290.614 118.008H297.94C299.309 118.008 300.086 118.748 300.086 120.154Z" fill="#594A39"/>
<path d="M313.408 122.892C306.859 122.892 303.418 118.97 303.418 112.347C303.418 106.353 307.562 102.505 313.667 102.505C319.698 102.505 323.546 106.316 323.583 112.347C323.62 119.118 319.698 122.892 313.408 122.892ZM313.482 118.785C316.035 118.711 317.145 116.861 317.145 112.458C317.145 108.462 316.072 106.538 313.482 106.575C310.966 106.612 309.819 108.499 309.856 112.458C309.893 116.639 310.818 118.859 313.482 118.785Z" fill="#594A39"/>
<path d="M344.418 104.947C345.528 106.131 346.083 107.796 346.083 109.942V119.784C346.083 121.782 345.306 122.855 343.382 122.855C341.421 122.855 340.533 121.782 340.533 119.784V119.673C339.312 121.819 337.018 122.855 334.095 122.855C330.173 122.855 327.768 120.561 327.768 116.898C327.768 112.495 331.875 109.757 338.091 109.757C338.831 109.757 339.608 109.794 340.089 109.868V109.535C340.089 107.685 339.053 106.575 337.092 106.501C335.501 106.427 333.799 107.13 332.393 108.647C331.505 109.609 330.21 109.757 329.285 108.943C328.323 108.166 328.212 106.945 329.063 105.872C330.395 104.244 333.318 102.505 337.203 102.505C340.644 102.505 342.827 103.282 344.418 104.947ZM340.163 115.529V113.642C339.682 113.568 338.868 113.494 338.165 113.531C334.613 113.716 333.392 115.085 333.466 116.528C333.54 117.786 334.317 118.526 335.834 118.526C337.573 118.526 339.312 117.305 340.163 115.529Z" fill="#594A39"/>
<path d="M364.059 102.505C368.462 102.505 371.2 105.317 371.2 109.868V119.784C371.2 121.782 370.09 122.855 368.055 122.855C366.02 122.855 364.91 121.782 364.91 119.784V110.349C364.91 108.018 363.948 106.612 362.246 106.612C360.618 106.612 359.138 108.092 358.657 110.164V119.784C358.657 121.782 357.547 122.855 355.512 122.855C353.477 122.855 352.367 121.782 352.367 119.784V105.391C352.367 103.541 353.403 102.542 355.253 102.542C357.14 102.542 358.176 103.467 358.176 105.354V105.946C359.286 103.689 361.58 102.505 364.059 102.505Z" fill="#594A39"/>
</svg>
