<svg width="401" height="161" viewBox="0 0 401 161" fill="none" xmlns="http://www.w3.org/2000/svg">
<path d="M21.0596 35.9177C19.5196 35.9177 18.6396 34.9827 18.6396 33.3877C18.6396 31.7927 19.5196 30.8577 21.0596 30.8577H38.9346V19.8027C38.9346 17.6027 40.3096 16.4477 42.7296 16.4477C45.2046 16.4477 46.5246 17.6027 46.5246 19.8027V30.8577H64.5646C66.1046 30.8577 66.9846 31.7927 66.9846 33.3877C66.9846 34.9827 66.1046 35.9177 64.5646 35.9177H21.0596ZM36.6246 40.1527C39.1546 41.1977 39.6496 43.1227 38.3846 45.7077C34.5896 54.0127 27.7696 62.7577 21.6096 66.8827C20.5096 67.5427 19.4646 67.3777 18.8046 66.5527C18.1446 65.6727 18.1996 64.6277 18.9696 63.7477C23.5346 58.5227 28.1546 50.4927 30.9596 42.4627C31.8396 39.8777 34.1496 38.9977 36.6246 40.1527ZM66.8196 60.4477C68.1946 62.7027 68.0846 65.0127 65.4446 66.5527C63.0246 67.9827 60.5496 67.1577 59.5046 64.6827C56.6996 58.1377 51.7496 48.7877 48.1746 43.0127C47.5146 41.9677 47.7346 40.9777 48.6146 40.3727C49.4396 39.6577 50.3196 39.7127 51.2546 40.5377C56.4246 45.2127 62.6946 53.9027 66.8196 60.4477Z" fill="#B8C318"/>
<path d="M127.87 59.3477C130.29 60.8877 130.95 62.9777 129.63 65.2877C128.31 67.5977 125.78 68.0377 123.525 66.2777C117.035 61.3277 109.83 51.3177 107.3 38.6677C104.165 53.0777 95.8596 63.0327 83.2646 67.4327C82.1096 67.8727 81.2296 67.4877 80.7896 66.5527C80.4046 65.6177 80.7346 64.7377 81.7796 64.0777C91.9546 58.0827 98.1696 49.4477 100.37 34.8177H84.1996C82.7146 34.8177 81.8896 33.9927 81.8896 32.5077C81.8896 30.9677 82.7146 30.1977 84.1996 30.1977H100.92C101.03 29.2077 101.085 28.2177 101.14 27.1727C101.305 24.9727 101.36 22.3327 101.36 19.4177C101.415 17.0527 102.79 15.7877 105.155 15.7877C107.575 15.8427 108.95 17.0527 108.95 19.3627C108.895 22.4977 108.895 25.4677 108.565 28.7677C108.565 29.2627 108.51 29.7027 108.455 30.1977H126.825C128.31 30.1977 129.135 30.9677 129.135 32.5077C129.135 33.9927 128.31 34.8177 126.825 34.8177H109.94C113.515 46.5327 119.895 54.3427 127.87 59.3477Z" fill="#B8C318"/>
<path d="M163.84 27.7227C162.575 27.7227 161.86 26.9527 161.86 25.6327C161.86 24.3677 162.575 23.6527 163.84 23.6527H173.96V18.9227C173.96 16.9427 175.17 15.7327 177.425 15.7327C179.625 15.7327 180.89 16.8877 180.89 18.9227V23.6527H191.065C192.33 23.6527 193.045 24.3677 193.045 25.6327C193.045 26.9527 192.33 27.7227 191.065 27.7227H178.58C176.325 31.8477 174.07 35.2027 171.87 37.6777C174.125 37.6777 176.38 37.6227 178.635 37.4577C179.405 36.0827 180.12 34.5977 180.78 33.0577C181.715 30.9127 183.42 30.2527 185.51 31.2427C187.49 32.1777 187.765 34.1027 186.335 36.6327C180.945 46.6977 173.465 53.7927 163.785 57.3127C162.74 57.6977 161.97 57.5327 161.53 56.5977C161.09 55.7177 161.31 54.8377 162.355 54.2877C167.745 51.4827 172.255 47.1927 175.94 41.9127C172.97 42.7377 169.89 43.3427 166.92 43.7827C164.72 44.1127 163.51 43.0677 163.29 40.9227C163.125 38.7777 164.17 37.6227 166.535 37.6227H167.47C168.845 34.5977 170.165 30.9677 170.88 27.7227H163.84ZM162.85 46.5327C161.31 47.5227 159.825 47.0277 159.11 45.2677C158.615 43.9477 158.065 42.7377 157.515 41.5827V64.5177C157.515 66.4977 156.305 67.5977 154.16 67.5977C152.015 67.5977 150.805 66.4977 150.805 64.5177V47.0827C149.595 49.9977 148.055 52.8577 146.295 55.1677C145.58 56.1577 144.59 56.3227 143.82 55.6627C142.995 55.0027 142.94 54.1777 143.49 53.2427C146.46 48.0177 149.045 40.2627 150.365 32.2327H145.525C144.26 32.2327 143.545 31.4627 143.545 30.2527C143.545 28.9877 144.26 28.3277 145.525 28.3277H150.805V19.3627C150.805 17.4377 152.015 16.3377 154.16 16.3377C156.305 16.3377 157.515 17.4377 157.515 19.3627V28.3277H161.86C163.125 28.3277 163.84 28.9877 163.84 30.2527C163.84 31.4627 163.125 32.2327 161.86 32.2327H157.515V35.8627C159.55 37.5677 161.695 39.8777 163.51 42.5727C164.61 44.0577 164.445 45.4877 162.85 46.5327ZM191.67 61.2727C193.485 63.0327 193.54 65.0127 191.67 66.5527C189.8 68.0377 187.82 67.5977 186.555 65.2877C185.07 62.5927 183.145 59.8427 181.385 57.5877C176.105 62.0977 169.78 65.5077 162.685 67.3227C161.53 67.6527 160.815 67.3227 160.375 66.3877C159.99 65.3427 160.375 64.6277 161.53 64.1327C172.2 59.5127 180.065 52.6377 185.62 42.2977C186.775 40.2077 188.48 39.7677 190.46 40.7577C192.385 41.7477 192.66 43.7277 191.395 45.8177C189.415 49.1177 186.995 52.1427 184.3 54.8927C186.72 56.6527 189.415 59.0177 191.67 61.2727Z" fill="#B8C318"/>
<path d="M240.73 28.5477C239.08 30.5277 236.77 30.4177 234.79 28.3277C231.985 25.3027 228.41 22.2227 224.34 19.3077C223.35 18.5927 223.24 17.7677 223.625 16.8877C224.065 15.8977 224.945 15.6777 226.045 16.0077C230.5 17.3827 235.395 19.9127 239.465 22.8277C241.775 24.3677 242.49 26.4027 240.73 28.5477ZM228.3 65.9477C222.14 65.5627 220.49 63.9677 220.49 57.7527V30.7477C220.49 28.3827 221.755 27.1177 224.175 27.1177C226.485 27.1177 227.75 28.3827 227.75 30.7477V55.8827C227.75 58.2477 228.3 58.9627 230.61 59.1277C232.7 59.2927 235.23 59.2927 237.43 59.1277C240.29 58.8527 240.675 58.1927 240.675 48.4577C240.675 47.1377 241.28 46.5327 242.38 46.5327C243.48 46.5327 244.14 47.0277 244.415 48.4577C246.89 61.6027 245.295 65.4527 239.025 65.8927C235.34 66.1677 232.04 66.1677 228.3 65.9477ZM253.6 54.0677C251.235 54.9477 249.255 54.0127 248.595 51.2627C247.11 45.5427 245.24 40.9227 243.095 36.3577C242.6 35.2577 242.93 34.4877 243.755 33.9927C244.58 33.4977 245.35 33.7177 246.175 34.4877C249.75 38.2277 253.27 43.5627 255.525 48.5677C256.68 51.0427 256.13 53.0777 253.6 54.0677ZM208.17 56.3777C205.86 54.9477 205.695 52.9677 207.18 50.8227C209.875 46.9177 211.745 42.1327 212.955 36.5777C213.23 35.3127 214.055 34.8177 215.1 34.9277C216.2 35.0927 216.805 35.6977 216.805 36.9627C216.585 43.0127 215.65 49.5577 213.78 54.2877C212.735 56.9277 210.48 57.8077 208.17 56.3777Z" fill="#B8C318"/>
<path d="M317.95 53.4627C319.435 63.8577 317.84 68.5877 313.11 67.3777C309.59 66.4427 306.895 63.3627 304.97 58.5777C301.285 62.0977 297.27 64.6827 292.98 66.3327C291.935 66.7177 291.055 66.4427 290.67 65.5627C290.23 64.6277 290.45 63.9127 291.495 63.3627C296.17 60.6677 300.02 57.4227 303.21 53.2427C302 48.5677 301.175 42.9027 300.735 36.5227L299.25 36.6877C297.875 36.8527 297.105 36.1927 296.94 34.9827C296.775 33.7177 297.38 32.9477 298.755 32.7827C299.305 32.7277 299.91 32.6727 300.46 32.5627C300.46 32.1777 300.405 31.7377 300.405 31.3527C300.24 27.7227 300.13 23.4877 300.13 18.8127C300.13 16.8327 301.175 15.8977 303.21 15.8977C305.245 15.8977 306.4 16.8877 306.345 18.9227C306.29 23.6527 306.345 27.2827 306.51 30.4727C306.51 30.9127 306.565 31.2977 306.565 31.7377C309.645 31.2427 312.615 30.7477 315.42 30.2527C316.795 30.0327 317.675 30.6377 317.895 31.8477C318.06 33.0577 317.62 33.9377 316.135 34.1577C313.44 34.6527 310.25 35.1477 306.84 35.6427C307.115 39.1077 307.5 42.3527 307.94 45.3227C308.82 43.5077 309.59 41.5277 310.36 39.3827C311.13 37.1827 312.56 36.4677 314.375 37.1827C316.3 37.9527 316.85 39.4927 316.025 41.5827C314.265 46.0377 312.065 49.8877 309.645 53.2427C310.635 56.7627 311.845 59.1827 313.22 60.0627C314.43 60.8877 314.54 59.2927 314.595 53.4077C314.595 52.1977 315.2 51.5377 316.08 51.5377C317.015 51.5377 317.73 52.0327 317.95 53.4627ZM274.005 30.3077C271.915 30.3077 270.87 29.1527 270.87 27.1177V21.2877C270.87 19.2527 271.97 18.0977 274.005 18.0977H280.165C282.2 18.0977 283.355 19.2527 283.355 21.2877V27.1177C283.355 29.1527 282.2 30.3077 280.165 30.3077H274.005ZM288.36 30.3077C286.325 30.3077 285.225 29.1527 285.225 27.1177V21.2877C285.225 19.2527 286.325 18.0977 288.36 18.0977H294.3C296.39 18.0977 297.545 19.2527 297.545 21.2877V27.1177C297.545 29.1527 296.39 30.3077 294.3 30.3077H288.36ZM310.745 27.0077C309.975 24.9727 308.985 22.8827 307.995 20.9027C307.5 19.9127 307.665 19.2527 308.435 18.7027C309.205 18.2077 309.865 18.2627 310.69 18.9227C312.56 20.5177 314.1 22.3327 315.585 24.4227C316.685 26.1277 316.355 27.5577 314.705 28.4927C313 29.4827 311.46 28.9877 310.745 27.0077ZM275.82 22.4977V25.9077C275.82 26.2927 276.095 26.5677 276.48 26.5677H277.8C278.185 26.5677 278.46 26.2927 278.46 25.9077V22.4977C278.46 22.1127 278.185 21.8377 277.8 21.8377H276.48C276.095 21.8377 275.82 22.1127 275.82 22.4977ZM290.065 22.4977V25.9077C290.065 26.2927 290.34 26.5677 290.725 26.5677H291.88C292.265 26.5677 292.54 26.2927 292.54 25.9077V22.4977C292.54 22.1127 292.265 21.8377 291.88 21.8377H290.725C290.34 21.8377 290.065 22.1127 290.065 22.4977ZM296.61 57.2027H287.315V64.6827C287.315 66.7177 286.105 67.7627 283.905 67.7627C281.705 67.7627 280.495 66.7177 280.495 64.6827V57.2027H271.035C269.825 57.2027 269.11 56.4327 269.11 55.2227C269.11 53.9577 269.825 53.2977 271.035 53.2977H280.495V50.6027H274.885C272.85 50.6027 271.695 49.4477 271.695 47.4127V35.3127C271.695 33.2227 272.85 32.1227 274.885 32.1227H292.925C295.015 32.1227 296.115 33.2227 296.115 35.3127V47.4127C296.115 49.4477 295.015 50.6027 292.925 50.6027H287.315V53.2977H296.61C297.875 53.2977 298.59 53.9577 298.59 55.2227C298.59 56.4877 297.875 57.2027 296.61 57.2027ZM277.58 36.5227V39.3827H281.045V35.8627H278.24C277.855 35.8627 277.58 36.1377 277.58 36.5227ZM286.875 35.8627V39.3827H290.34V36.5227C290.34 36.1377 290.065 35.8627 289.68 35.8627H286.875ZM277.58 46.1477C277.58 46.5327 277.855 46.8077 278.24 46.8077H281.045V43.0677H277.58V46.1477ZM286.875 43.0677V46.8077H289.68C290.065 46.8077 290.34 46.5327 290.34 46.1477V43.0677H286.875Z" fill="#B8C318"/>
<path d="M378.89 39.4927C381.31 40.1527 382.245 42.0227 381.42 44.1677C380.54 46.4227 378.725 46.9177 376.58 46.0927C373.005 44.6627 369.815 42.7377 367.12 40.4277C363.49 43.2877 359.255 45.4327 354.69 46.7527C353.92 46.9177 353.425 46.9177 353.04 46.6977V58.6877C353.04 60.2827 352.16 61.1077 350.565 61.1077C349.025 61.1077 348.09 60.2827 348.09 58.6877V57.3127H339.4V59.8427C339.4 61.6577 338.41 62.4827 336.65 62.4827C334.835 62.4827 333.845 61.6577 333.845 59.8427V24.2577C333.845 22.2227 335 21.0677 337.09 21.0677H349.85C351.94 21.0677 353.04 22.2227 353.04 24.2577V44.0027C353.205 43.8927 353.37 43.7827 353.59 43.6727C357.55 41.8577 360.85 39.6027 363.6 37.0177C361.785 34.9827 360.245 32.7827 359.035 30.4727C358.1 31.5727 357.055 32.6177 356.01 33.5527C355.185 34.2677 354.36 34.3777 353.7 33.7177C353.04 33.0577 352.985 32.2327 353.535 31.3527C355.735 27.9977 357.275 23.4877 358.54 18.3727C359.145 16.1177 360.685 15.5677 362.72 16.1177C364.755 16.6677 365.69 18.2627 364.755 20.4077C364.645 20.7377 364.48 21.1227 364.315 21.4527H371.08C372.455 20.3527 374.16 20.0777 375.865 20.8477C377.845 21.7277 378.615 23.5427 377.625 26.0177C376.14 29.9777 373.995 33.4977 371.355 36.4677C373.665 37.7327 376.195 38.7227 378.89 39.4927ZM341.545 36.6877V24.8627H340.06C339.675 24.8627 339.4 25.1377 339.4 25.5227V36.6877H341.545ZM345.945 24.8627V36.6877H348.09V25.5227C348.09 25.1377 347.815 24.8627 347.43 24.8627H345.945ZM362.5 25.3027C362.005 26.1277 361.51 26.9527 361.015 27.7227C362.665 29.9777 364.59 31.9027 366.735 33.5527C368.55 31.2427 369.87 28.7127 370.86 26.0727C371.025 25.5777 370.75 25.3027 370.31 25.3027H362.5ZM345.945 53.5727H348.09V40.4277H345.945V53.5727ZM341.545 53.5727V40.5377H339.4V53.5727H341.545ZM374.82 45.8177C376.855 45.8177 378.01 47.0277 378.01 49.0077V64.6277C378.01 66.7177 376.91 67.5977 374.82 67.5977C372.73 67.5977 371.575 66.7177 371.575 64.6277V63.6927H362.005V64.9027C362.005 66.9377 360.905 67.8177 358.815 67.8177C356.78 67.8177 355.625 66.9377 355.625 64.9027V49.0077C355.625 46.9177 356.78 45.8177 358.87 45.8177H374.82ZM362.005 59.8427H371.575V50.2727C371.575 49.8877 371.3 49.6127 370.915 49.6127H362.665C362.28 49.6127 362.005 49.8877 362.005 50.2727V59.8427Z" fill="#B8C318"/>
<path d="M95.8046 97.3527C95.0896 100.873 93.9896 104.558 92.5596 108.133V141.573C92.5596 143.608 91.4046 144.543 89.3146 144.543C87.2796 144.543 86.1246 143.608 86.1246 141.573V120.178C85.2996 121.333 84.4196 122.378 83.5396 123.313C82.8246 124.138 81.7796 124.083 81.1196 123.478C80.4596 122.873 80.3496 122.048 80.8996 121.168C85.1346 114.238 87.6096 105.383 89.0946 95.7577C89.4796 93.3377 91.0746 92.5677 93.3296 92.9527C95.5296 93.2827 96.4096 94.8777 95.8046 97.3527ZM97.9496 98.8927C96.8496 98.8927 96.1896 98.2327 96.1896 97.1327C96.1896 96.0327 96.8496 95.3727 97.9496 95.3727H125.065C126.275 95.3727 126.88 95.9777 126.88 97.0777C126.88 98.2877 126.275 98.8927 125.065 98.8927H114.175C113.68 99.5527 113.185 100.158 112.635 100.708H120.28C122.26 100.708 123.305 101.808 123.305 103.788V113.743H125.34C127.32 113.743 128.42 114.843 128.42 116.823V119.793C128.42 121.608 127.43 122.378 125.67 122.378C125.945 122.708 126.165 123.038 126.385 123.368C127.32 124.633 127.045 125.843 125.725 126.668C124.35 127.438 123.195 126.998 122.535 125.513C121.82 123.863 120.83 121.883 119.95 120.288C119.565 119.573 119.62 119.023 120.225 118.583C120.775 118.088 121.325 118.198 121.93 118.638L122.81 119.353V117.813C122.81 117.428 122.535 117.153 122.15 117.153H100.205C99.8196 117.153 99.5446 117.428 99.5446 117.813V119.408C99.9296 118.748 100.48 118.473 101.25 118.693C101.965 118.858 102.24 119.518 102.075 120.288C101.745 122.488 100.92 125.183 99.9846 126.888C99.2146 128.208 98.0046 128.428 96.7396 127.658C95.5296 126.778 95.4196 125.513 96.4096 124.413C96.9046 123.863 97.3446 123.258 97.7846 122.653C97.4546 122.708 97.1246 122.763 96.7396 122.763C94.9246 122.763 93.9346 121.938 93.9346 120.123V116.823C93.9346 114.843 95.0346 113.743 97.0146 113.743H98.7746V103.788C98.7746 101.808 99.8746 100.708 101.855 100.708H107.795C107.85 100.103 107.96 99.4977 108.015 98.8927H97.9496ZM117.475 104.613C117.475 104.228 117.2 103.953 116.815 103.953H105.32C104.935 103.953 104.66 104.228 104.66 104.613V105.218H117.475V104.613ZM104.66 108.133V109.453H117.475V108.133H104.66ZM104.66 113.743H117.475V112.368H104.66V113.743ZM109.28 117.263C110.82 117.538 112.47 118.088 114.12 118.803C115.275 119.353 115.715 120.288 115.11 121.443C114.505 122.598 113.46 122.873 112.415 122.158C110.985 121.168 109.61 120.343 108.4 119.683C107.74 119.353 107.575 118.693 107.795 118.033C108.015 117.428 108.51 117.098 109.28 117.263ZM126.66 138.438C128.695 138.548 129.465 139.703 129.245 141.738C128.97 143.773 127.595 144.488 125.615 144.268C120.775 143.718 116.32 142.618 112.47 140.913C107.795 142.893 102.13 144.048 95.5846 144.543C94.5396 144.598 93.8796 144.158 93.7146 143.223C93.5496 142.123 94.0446 141.518 95.1996 141.353C100.15 140.583 104.165 139.593 107.52 138.273C105.705 137.118 104.11 135.798 102.735 134.313C100.975 135.523 98.9396 136.623 96.8496 137.448C95.8596 137.833 95.0896 137.558 94.7046 136.733C94.2646 135.908 94.4846 135.138 95.4196 134.533C99.4896 132.003 102.295 129.418 104.33 126.173C103.23 125.623 102.735 124.688 102.735 123.038V119.738C102.735 118.308 103.56 117.483 105.045 117.483C106.42 117.483 107.3 118.253 107.3 119.738V121.498C107.3 122.598 107.685 123.038 109.39 123.093C111.645 123.258 113.295 123.258 114.945 123.093C116.265 122.928 116.595 122.488 116.595 120.398C116.595 119.463 117.09 119.023 117.915 119.023C118.685 119.023 119.235 119.518 119.4 120.453C120.17 125.018 118.96 126.503 116.1 126.778C114.285 126.943 111.975 126.998 109.775 126.943C109.555 127.328 109.28 127.768 108.95 128.208H120.06C123.36 128.208 124.46 130.793 122.59 133.213C121.435 134.808 120.005 136.238 118.465 137.448C120.995 137.943 123.745 138.218 126.66 138.438ZM105.32 132.278C107.52 133.818 109.83 134.973 112.36 135.853C113.845 134.863 115.165 133.708 116.21 132.443C116.54 132.003 116.32 131.618 115.77 131.618H106.035C105.76 131.838 105.54 132.058 105.32 132.278Z" fill="#B8C318"/>
<path d="M146.13 100.873C144.92 100.873 144.205 100.158 144.205 98.9477C144.205 97.6827 144.92 96.9677 146.13 96.9677H164.61V95.8127C164.61 93.7227 165.82 92.7327 168.075 92.7327C170.385 92.7327 171.595 93.7227 171.595 95.8127V96.9677H190.24C191.45 96.9677 192.165 97.6827 192.165 98.9477C192.165 100.213 191.45 100.873 190.24 100.873H171.595V103.238H183.86C185.895 103.238 187.05 104.393 187.05 106.483V116.108C187.05 118.033 186.005 119.188 184.135 119.298C186.115 120.343 188.095 121.663 189.855 123.148C191.56 124.468 191.725 126.008 190.295 127.493C188.865 128.868 187.325 128.758 185.95 127.108C185.235 126.228 184.52 125.348 183.695 124.523C179.735 125.458 174.345 126.283 168.35 126.888C170.165 127.548 172.2 128.593 174.07 129.858C175.775 130.958 176.105 132.663 174.84 134.148C173.465 135.743 171.705 135.633 170.385 134.093C169.01 132.498 167.305 130.738 165.655 129.253C164.995 128.703 164.885 127.823 165.27 127.163C160.045 127.658 154.49 127.988 149.1 128.208C146.79 128.263 145.47 127.108 145.415 125.018C145.415 123.038 146.405 121.828 148.825 121.993C153.61 122.213 159.165 122.268 164.61 122.158V119.243H152.565C150.475 119.243 149.32 118.088 149.32 116.053V106.483C149.32 104.393 150.475 103.238 152.565 103.238H164.61V100.873H146.13ZM156.085 107.693V109.398H164.61V107.033H156.745C156.36 107.033 156.085 107.308 156.085 107.693ZM179.68 107.033H171.595V109.398H180.34V107.693C180.34 107.308 180.065 107.033 179.68 107.033ZM156.745 115.448H164.61V112.973H156.085V114.788C156.085 115.173 156.36 115.448 156.745 115.448ZM180.34 114.788V112.973H171.595V115.448H179.68C180.065 115.448 180.34 115.173 180.34 114.788ZM171.595 119.298V121.993C174.95 121.883 178.085 121.718 180.78 121.498C180.45 121.168 180.12 120.893 179.79 120.618C179.35 120.233 179.185 119.738 179.185 119.298H171.595ZM191.945 136.128C193.21 138.053 192.605 140.088 190.68 141.023C188.59 142.013 187.215 141.133 186.39 138.933C185.29 136.018 184.3 133.818 182.65 130.848C182.155 129.913 182.32 129.088 183.09 128.538C183.86 127.988 184.52 128.043 185.29 128.703C187.71 130.738 190.02 133.158 191.945 136.128ZM179.57 130.463C180.56 130.408 181.11 131.013 181.44 132.003C183.585 139.043 182.815 142.508 176.93 142.893C172.53 143.168 167.965 143.223 164.17 143.003C157.735 142.728 155.315 141.573 155.315 137.118V131.618C155.315 129.583 156.525 128.538 158.725 128.538C160.98 128.593 162.19 129.583 162.19 131.618V134.313C162.19 136.403 162.85 137.063 165.655 137.228C168.57 137.448 172.255 137.338 175.5 137.118C177.645 136.953 177.975 136.348 177.975 132.168C177.975 131.013 178.58 130.518 179.57 130.463ZM151.85 129.638C152.84 130.023 153.17 130.573 153.115 131.618C152.785 135.303 151.575 138.273 150.035 140.803C148.935 142.563 146.955 143.223 145.25 141.793C143.545 140.418 143.6 138.493 145.195 137.008C147.01 135.358 148.66 133.158 149.705 130.738C150.2 129.748 150.915 129.308 151.85 129.638Z" fill="#B8C318"/>
<path d="M255.525 140.253C255.91 142.013 255.47 143.113 253.765 143.553C252.06 143.993 250.74 143.278 250.41 141.573L249.915 138.603C245.955 140.583 241.555 141.903 236.935 142.728C234.9 143.168 233.47 142.398 233.25 140.418C232.975 138.548 233.635 137.283 235.89 137.063C237.43 136.898 239.025 136.678 240.62 136.513V125.788H237.045C235.01 125.788 233.855 124.633 233.855 122.598V107.033C233.855 104.943 235.01 103.788 237.045 103.788H240.565V96.3077C240.565 94.4927 241.61 93.5577 243.645 93.5577C245.625 93.5577 246.67 94.4927 246.67 96.3077V103.788H250.3C252.39 103.788 253.49 104.943 253.49 107.033V122.598C253.49 124.633 252.39 125.788 250.3 125.788H246.725V135.523C247.55 135.358 248.375 135.248 249.2 135.083C248.815 133.323 248.43 131.618 248.1 130.243C247.825 129.143 248.21 128.373 249.09 128.043C249.97 127.713 250.85 127.988 251.4 128.978C253.105 132.058 254.755 136.733 255.525 140.253ZM231.215 95.3727C232.535 95.3727 233.25 96.0877 233.25 97.2977C233.25 98.6177 232.535 99.3327 231.215 99.3327H209.105C207.785 99.3327 207.07 98.5627 207.07 97.2977C207.07 96.0877 207.785 95.3727 209.105 95.3727H231.215ZM227.255 112.863H213.395C211.305 112.863 210.205 111.708 210.205 109.618V104.558C210.205 102.523 211.305 101.368 213.395 101.368H227.255C229.345 101.368 230.445 102.523 230.445 104.558V109.618C230.445 111.708 229.345 112.863 227.255 112.863ZM215.87 105.768V108.463C215.87 108.848 216.145 109.123 216.53 109.123H224.175C224.56 109.123 224.835 108.848 224.835 108.463V105.768C224.835 105.383 224.56 105.108 224.175 105.108H216.53C216.145 105.108 215.87 105.383 215.87 105.768ZM239.41 121.828H241.225V107.748H239.41C239.025 107.748 238.75 108.023 238.75 108.408V121.168C238.75 121.553 239.025 121.828 239.41 121.828ZM246.175 107.748V121.828H247.935C248.32 121.828 248.595 121.553 248.595 121.168V108.408C248.595 108.023 248.32 107.748 247.935 107.748H246.175ZM229.51 114.788C231.6 114.788 232.7 115.943 232.7 117.978V139.648C232.7 143.993 227.86 145.038 223.68 143.113C222.635 142.673 222.305 141.903 222.525 140.968C222.525 140.858 222.58 140.748 222.635 140.693C222.14 141.243 221.37 141.518 220.38 141.518C218.62 141.518 217.575 140.583 217.575 138.878V130.903H214.495C214.055 130.903 213.67 130.793 213.395 130.628V141.463C213.395 143.168 212.46 144.103 210.645 144.103C208.83 144.103 207.84 143.168 207.84 141.463V117.978C207.84 115.943 208.995 114.788 211.085 114.788H229.51ZM213.395 127.328C213.67 127.163 214.055 127.053 214.495 127.053H217.245C216.64 126.943 216.145 126.503 215.87 125.678C215.265 124.138 214.66 122.653 214.165 121.168C213.89 120.398 214.11 119.848 214.715 119.463C215.375 119.133 216.035 119.243 216.585 119.848C217.685 121.113 218.73 122.543 219.5 124.028C220.16 125.238 219.775 126.283 218.565 126.833C218.29 126.943 218.07 126.998 217.85 127.053H220.6C221.26 125.073 221.81 122.983 222.305 120.948C222.635 119.408 223.735 118.968 225.055 119.408C226.43 119.793 226.87 120.838 226.375 122.158C225.66 123.918 224.835 125.568 223.9 127.053H226.155C226.595 127.053 226.98 127.163 227.255 127.328V119.243C227.255 118.858 226.98 118.583 226.595 118.583H214.055C213.67 118.583 213.395 118.858 213.395 119.243V127.328ZM224.505 139.758C226.87 140.033 227.255 139.758 227.255 138.163V130.628C226.98 130.793 226.595 130.903 226.155 130.903H223.185V138.878C223.185 139.373 223.075 139.868 222.91 140.198C223.24 139.868 223.79 139.703 224.505 139.758Z" fill="#B8C318"/>
<path d="M283.63 107.033C283.025 106.263 283.025 105.603 283.63 104.723C285.555 102.248 287.15 98.7827 288.195 95.0977C288.745 93.1727 290.065 92.5677 291.935 93.0627C293.585 93.5577 294.19 94.7127 293.75 96.3627H309.095C310.25 95.3177 312.175 94.9877 313.66 95.9777C315.255 97.0227 315.64 98.8927 314.375 100.653C312.67 103.128 310.635 104.888 309.205 105.878C308.49 106.373 307.72 106.483 307.06 105.878C306.4 105.273 306.345 104.613 306.84 103.843C307.5 102.853 308.105 101.808 308.49 100.928C308.655 100.488 308.38 100.213 307.94 100.213H302.88C302.605 101.313 302.165 102.358 301.67 103.348C304.915 106.593 308.325 107.858 314.265 108.738C316.575 109.123 317.125 110.388 316.74 112.148C316.355 113.963 314.76 114.678 312.835 114.238C307.115 112.918 302.66 110.278 299.855 106.153C296.5 110.278 291.165 112.808 284.675 113.413C283.63 113.468 282.915 112.973 282.75 112.093C282.64 111.158 282.97 110.553 284.07 110.278C291.385 108.353 294.465 105.438 296.06 100.213H292.045C290.45 103.073 288.195 105.548 285.995 107.143C285.225 107.748 284.235 107.748 283.63 107.033ZM271.915 96.7477C271.035 96.1427 270.925 95.3177 271.365 94.4927C271.805 93.6677 272.52 93.5027 273.51 93.7227C275.82 94.2177 278.79 95.1527 281.43 96.5277C283.41 97.5177 283.685 99.2227 282.53 100.818C281.32 102.523 279.725 102.743 278.075 101.368C275.985 99.6077 273.785 98.0127 271.915 96.7477ZM274.555 114.733C272.74 115.998 270.87 115.833 269.935 114.128C268.945 112.313 269.44 110.828 271.475 109.838C274.775 108.078 277.47 106.208 279.78 104.228C280.605 103.623 281.485 103.568 282.2 104.283C282.86 104.888 282.915 105.823 282.365 106.703C280.495 109.398 277.8 112.423 274.555 114.733ZM314.43 138.053C316.685 138.713 317.62 140.363 316.795 142.398C315.97 144.488 314.265 145.038 312.12 143.993C308.215 142.123 302.66 140.088 298.095 138.548C296.995 138.053 296.555 137.283 296.83 136.238C296.94 135.798 297.105 135.523 297.325 135.303H289.405C289.625 135.468 289.79 135.688 289.955 135.908C291.055 137.613 290.395 139.483 288.14 140.418C283.135 142.563 277.47 144.103 271.585 144.488C270.43 144.543 269.715 144.103 269.55 143.113C269.33 142.068 269.66 141.188 270.87 140.858C276.04 139.593 280.77 137.558 284.73 135.303H279.23C277.14 135.303 276.04 134.148 276.04 132.058V117.153C276.04 115.063 277.14 113.908 279.23 113.908H307.995C310.03 113.908 311.185 115.063 311.185 117.153V132.058C311.185 134.148 310.03 135.303 307.995 135.303H301.89C306.015 135.853 310.635 136.843 314.43 138.053ZM283.025 118.308V119.903H304.145V118.308C304.145 117.923 303.87 117.648 303.485 117.648H283.685C283.3 117.648 283.025 117.923 283.025 118.308ZM283.025 123.368V125.623H304.145V123.368H283.025ZM283.025 130.903C283.025 131.288 283.3 131.563 283.685 131.563H303.485C303.87 131.563 304.145 131.288 304.145 130.903V129.088H283.025V130.903Z" fill="#B8C318"/>
</svg>
