<svg width="400" height="160" viewBox="0 0 400 160" fill="none" xmlns="http://www.w3.org/2000/svg">
<path d="M30.7687 60.5108C31.5087 59.5118 32.8407 59.3268 33.8397 60.1038C35.3567 61.2878 37.0217 62.4348 39.5747 62.4348C41.8317 62.4348 43.2007 61.4728 43.2377 59.6968C43.2747 58.2538 42.7567 56.7738 38.4647 54.5538C32.9147 51.6308 30.5467 49.3738 30.5467 45.5628C30.5467 41.3448 34.3577 38.6068 40.3147 38.6068C43.9407 38.6068 46.7527 39.6428 48.0107 40.8638C49.0467 41.8628 49.2687 43.1578 48.5657 44.2308C47.7887 45.3778 46.3457 45.5998 45.1987 44.6378C43.9407 43.6018 42.4977 42.9728 40.2777 43.0098C38.2427 43.0468 37.0587 43.8608 37.0587 45.1188C37.0587 46.5248 37.5767 47.7828 41.9057 50.0028C47.4927 52.9258 49.8237 55.2568 49.8237 58.9568C49.8237 63.9148 46.0867 66.8748 39.9077 66.8748C35.6527 66.8748 32.6187 65.4688 31.1017 63.9518C30.1027 62.9528 29.9917 61.5838 30.7687 60.5108Z" fill="#594A39"/>
<path d="M70.7666 46.5248C72.7646 46.5248 73.8376 47.5978 73.8376 49.5218V64.1738C73.8376 65.8388 72.8756 66.8748 71.0626 66.8748C69.2866 66.8748 68.2876 65.8758 68.2506 64.2108V63.8408C67.1776 65.7278 65.0686 66.8378 62.4416 66.8378C57.9646 66.8378 55.2636 64.0998 55.2636 59.5118V49.5588C55.2636 47.5978 56.3736 46.5248 58.4086 46.5248C60.4436 46.5248 61.5536 47.5978 61.5536 49.5588V58.6978C61.5536 61.3248 62.3676 62.5828 64.2176 62.5828C66.2526 62.5828 67.3626 60.1408 67.6956 58.6608V49.5218C67.6956 47.5978 68.8056 46.5248 70.7666 46.5248Z" fill="#594A39"/>
<path d="M79.4925 61.7318C80.1215 60.9548 81.1575 60.8068 82.1195 61.3988C83.2295 62.0648 84.8205 62.7308 86.4485 62.7308C88.0765 62.7308 88.8535 62.3238 88.8535 61.3618C88.8535 60.4368 88.4465 59.8078 85.2645 58.4018C81.4905 56.7368 79.5295 55.1828 79.5295 52.1488C79.5295 48.8188 82.7485 46.5248 87.4845 46.5248C90.6665 46.5248 92.8495 47.5238 93.9225 48.4488C94.7735 49.1888 94.9215 50.2988 94.2925 51.1498C93.6635 52.0008 92.2945 52.2228 91.2585 51.4828C90.3705 50.8538 89.1865 50.6318 87.8175 50.6318C86.4115 50.6318 85.7085 51.1498 85.7085 51.9268C85.7085 52.8148 86.4485 53.2588 89.1865 54.5168C93.5155 56.4778 95.2175 58.1058 95.2175 61.0288C95.2175 65.0248 91.4435 66.8748 87.4845 66.8748C84.6725 66.8748 81.3795 66.1718 79.7885 64.5808C78.9005 63.6928 78.7525 62.6198 79.4925 61.7318Z" fill="#594A39"/>
<path d="M111.392 61.8798C112.465 61.8798 113.131 63.1748 113.131 64.0998C113.131 66.0238 110.393 66.5788 108.358 66.5788C104.103 66.5788 102.179 64.5438 102.179 60.1408V51.2978H100.107C98.9227 51.2978 98.2567 50.4838 98.2567 49.1888C98.2567 47.8568 98.9597 47.0798 100.107 47.0798H102.179V44.7488C102.179 42.7508 103.289 41.6778 105.324 41.6778C107.359 41.6778 108.469 42.7508 108.469 44.7488V47.0798H110.874C112.058 47.0798 112.724 47.8938 112.724 49.1888C112.724 50.5208 112.021 51.2978 110.874 51.2978H108.469V60.0668C108.469 61.5468 108.876 62.2128 109.542 62.2128C110.245 62.2128 110.726 61.8798 111.392 61.8798Z" fill="#594A39"/>
<path d="M133.566 48.9668C134.676 50.1508 135.231 51.8158 135.231 53.9618V63.8038C135.231 65.8018 134.454 66.8748 132.53 66.8748C130.569 66.8748 129.681 65.8018 129.681 63.8038V63.6928C128.46 65.8388 126.166 66.8748 123.243 66.8748C119.321 66.8748 116.916 64.5808 116.916 60.9178C116.916 56.5148 121.023 53.7768 127.239 53.7768C127.979 53.7768 128.756 53.8138 129.237 53.8878V53.5548C129.237 51.7048 128.201 50.5948 126.24 50.5208C124.649 50.4468 122.947 51.1498 121.541 52.6668C120.653 53.6288 119.358 53.7768 118.433 52.9628C117.471 52.1858 117.36 50.9648 118.211 49.8918C119.543 48.2638 122.466 46.5248 126.351 46.5248C129.792 46.5248 131.975 47.3018 133.566 48.9668ZM129.311 59.5488V57.6618C128.83 57.5878 128.016 57.5138 127.313 57.5508C123.761 57.7358 122.54 59.1048 122.614 60.5478C122.688 61.8058 123.465 62.5458 124.982 62.5458C126.721 62.5458 128.46 61.3248 129.311 59.5488Z" fill="#594A39"/>
<path d="M145.104 44.2678C143.069 44.2678 141.367 42.7138 141.367 40.7158C141.367 38.6438 143.032 37.1268 145.104 37.1268C147.213 37.1268 148.693 38.6068 148.693 40.7158C148.693 42.7508 147.176 44.2678 145.104 44.2678ZM145.03 66.8748C142.958 66.8748 141.885 65.8018 141.885 63.8038V49.9658C141.885 47.9678 142.958 46.8948 145.03 46.8948C147.102 46.8948 148.175 47.9678 148.175 49.9658V63.8038C148.175 65.8018 147.102 66.8748 145.03 66.8748Z" fill="#594A39"/>
<path d="M166.9 46.5248C171.303 46.5248 174.041 49.3368 174.041 53.8878V63.8038C174.041 65.8018 172.931 66.8748 170.896 66.8748C168.861 66.8748 167.751 65.8018 167.751 63.8038V54.3688C167.751 52.0378 166.789 50.6318 165.087 50.6318C163.459 50.6318 161.979 52.1118 161.498 54.1838V63.8038C161.498 65.8018 160.388 66.8748 158.353 66.8748C156.318 66.8748 155.208 65.8018 155.208 63.8038V49.4108C155.208 47.5608 156.244 46.5618 158.094 46.5618C159.981 46.5618 161.017 47.4868 161.017 49.3738V49.9658C162.127 47.7088 164.421 46.5248 166.9 46.5248Z" fill="#594A39"/>
<path d="M195.674 48.9668C196.784 50.1508 197.339 51.8158 197.339 53.9618V63.8038C197.339 65.8018 196.562 66.8748 194.638 66.8748C192.677 66.8748 191.789 65.8018 191.789 63.8038V63.6928C190.568 65.8388 188.274 66.8748 185.351 66.8748C181.429 66.8748 179.024 64.5808 179.024 60.9178C179.024 56.5148 183.131 53.7768 189.347 53.7768C190.087 53.7768 190.864 53.8138 191.345 53.8878V53.5548C191.345 51.7048 190.309 50.5948 188.348 50.5208C186.757 50.4468 185.055 51.1498 183.649 52.6668C182.761 53.6288 181.466 53.7768 180.541 52.9628C179.579 52.1858 179.468 50.9648 180.319 49.8918C181.651 48.2638 184.574 46.5248 188.459 46.5248C191.9 46.5248 194.083 47.3018 195.674 48.9668ZM191.419 59.5488V57.6618C190.938 57.5878 190.124 57.5138 189.421 57.5508C185.869 57.7358 184.648 59.1048 184.722 60.5478C184.796 61.8058 185.573 62.5458 187.09 62.5458C188.829 62.5458 190.568 61.3248 191.419 59.5488Z" fill="#594A39"/>
<path d="M214.501 46.5248C218.793 46.5248 222.863 49.0408 222.863 56.5888C222.863 62.8788 219.607 66.8748 214.538 66.8748C211.615 66.8748 210.135 65.3578 209.432 64.3588C209.321 65.9498 208.544 66.8748 206.435 66.8748C204.659 66.8748 203.623 65.7278 203.623 63.7668V40.3828C203.623 38.5328 204.659 37.4598 206.694 37.4598C208.766 37.4598 209.913 38.5698 209.913 40.3828V48.4488C211.134 47.3388 212.725 46.5248 214.501 46.5248ZM213.243 62.6938C215.611 62.6938 216.869 60.6218 216.869 56.5148C216.869 52.9628 215.352 50.7798 212.836 50.7798C211.393 50.7798 210.283 51.7418 209.543 53.1108V59.9928C209.95 61.1028 210.986 62.6938 213.243 62.6938Z" fill="#594A39"/>
<path d="M233.739 66.8748C229.854 66.8748 228.337 65.4318 228.337 60.7698V40.4938C228.337 38.5328 229.447 37.4598 231.482 37.4598C233.443 37.4598 234.59 38.5328 234.59 40.4938V60.8068C234.59 61.8798 234.701 62.2498 235.478 62.2498C235.922 62.2498 236.181 62.0648 236.625 62.0648C237.291 62.0648 238.253 62.5828 238.253 64.1738C238.253 66.2458 236.218 66.8748 233.739 66.8748Z" fill="#594A39"/>
<path d="M256.886 61.4728C257.885 60.7328 258.958 60.8068 259.661 61.6208C260.364 62.3978 260.401 63.4708 259.624 64.3218C258.44 65.6538 255.554 66.8748 251.891 66.8748C246.082 66.8748 241.605 63.9518 241.605 57.1438C241.605 50.5948 245.453 46.4878 251.632 46.4878C257.7 46.4878 260.734 51.0018 260.734 55.3678C260.734 57.4768 259.661 58.5868 257.404 58.5868H248.006C248.376 61.6578 249.745 62.8048 252.372 62.8788C254.185 62.9158 255.665 62.3978 256.886 61.4728ZM251.706 50.3728C249.375 50.3728 248.339 51.9638 248.006 54.5168H254.74C254.962 54.5168 255.073 54.4058 255.073 54.1838C255.073 51.6308 253.778 50.3728 251.706 50.3728Z" fill="#594A39"/>
<path d="M289.686 38.9028C297.123 38.9028 301.193 42.0848 301.193 47.5978C301.193 54.1468 295.606 56.4408 290.056 56.4408C289.205 56.4408 288.317 56.4408 287.54 56.4038V63.6558C287.54 65.7648 286.356 66.8748 284.321 66.8748C282.175 66.8748 281.102 65.7648 281.102 63.6558V42.4178C281.102 40.6048 281.953 39.4578 283.729 39.1988C285.209 38.9768 287.614 38.9028 289.686 38.9028ZM289.797 52.3338C292.868 52.3338 294.829 50.6318 294.829 47.6348C294.829 44.8228 292.868 43.0468 289.834 43.0468C289.094 43.0468 288.206 43.0838 287.762 43.1578C287.577 43.1948 287.466 43.3058 287.466 43.5278V52.2968C288.243 52.3338 289.057 52.3338 289.797 52.3338Z" fill="#594A39"/>
<path d="M318.632 61.4728C319.631 60.7328 320.704 60.8068 321.407 61.6208C322.11 62.3978 322.147 63.4708 321.37 64.3218C320.186 65.6538 317.3 66.8748 313.637 66.8748C307.828 66.8748 303.351 63.9518 303.351 57.1438C303.351 50.5948 307.199 46.4878 313.378 46.4878C319.446 46.4878 322.48 51.0018 322.48 55.3678C322.48 57.4768 321.407 58.5868 319.15 58.5868H309.752C310.122 61.6578 311.491 62.8048 314.118 62.8788C315.931 62.9158 317.411 62.3978 318.632 61.4728ZM313.452 50.3728C311.121 50.3728 310.085 51.9638 309.752 54.5168H316.486C316.708 54.5168 316.819 54.4058 316.819 54.1838C316.819 51.6308 315.524 50.3728 313.452 50.3728Z" fill="#594A39"/>
<path d="M341.346 48.7448C341.531 50.7798 340.236 51.4088 338.423 51.6308C336.462 51.8898 334.612 53.8138 334.057 56.2558V63.9148C334.057 65.9868 332.799 66.8748 330.764 66.8748C328.729 66.8748 327.767 65.9498 327.767 63.9148V49.0778C327.767 47.3018 328.951 46.5248 330.764 46.5248C332.466 46.5248 333.576 47.4128 333.576 49.2258V50.9648C334.353 47.8938 336.092 46.6358 338.275 46.5618C339.94 46.5248 341.198 47.0798 341.346 48.7448Z" fill="#594A39"/>
<path d="M357.818 38.0888C358.669 38.6808 358.965 39.7168 358.558 40.6418C358.114 41.6408 357.078 42.0478 356.19 41.6038C355.82 41.4188 355.487 41.3448 355.154 41.3448C354.155 41.3448 353.785 41.9738 353.785 43.6018V47.0798H356.079C357.263 47.0798 357.929 47.8938 357.929 49.1888C357.929 50.5208 357.226 51.2978 356.079 51.2978H353.785V63.8408C353.785 65.9128 352.601 66.8748 350.64 66.8748C348.642 66.8748 347.495 65.8388 347.495 63.8408V51.2978H345.719C344.535 51.2978 343.795 50.5208 343.795 49.1888C343.795 47.8568 344.535 47.0798 345.719 47.0798H347.495V43.4908C347.495 39.4578 349.826 37.0898 353.822 37.0898C355.413 37.0898 356.967 37.4968 357.818 38.0888Z" fill="#594A39"/>
<path d="M369.739 63.3228C369.813 65.2468 368.111 66.9858 366.15 66.9118C364.115 66.8378 362.487 65.2468 362.487 63.3228C362.487 61.2878 364.115 59.6968 366.15 59.6968C368.111 59.6968 369.665 61.2878 369.739 63.3228Z" fill="#594A39"/>
<path d="M107.66 120.174C107.66 121.543 106.92 122.32 105.514 122.32H95.117C92.564 122.32 91.417 121.062 91.417 118.509V97.7148C91.417 95.7538 92.601 94.6808 94.599 94.6438C96.597 94.6068 97.781 95.7538 97.781 97.7148V117.621C97.781 117.954 97.929 118.028 98.188 118.028H105.514C106.883 118.028 107.66 118.768 107.66 120.174Z" fill="#594A39"/>
<path d="M116.307 100.268C114.272 100.268 112.57 98.7138 112.57 96.7158C112.57 94.6438 114.235 93.1268 116.307 93.1268C118.416 93.1268 119.896 94.6068 119.896 96.7158C119.896 98.7508 118.379 100.268 116.307 100.268ZM116.233 122.875C114.161 122.875 113.088 121.802 113.088 119.804V105.966C113.088 103.968 114.161 102.895 116.233 102.895C118.305 102.895 119.378 103.968 119.378 105.966V119.804C119.378 121.802 118.305 122.875 116.233 122.875Z" fill="#594A39"/>
<path d="M138.103 102.525C142.506 102.525 145.244 105.337 145.244 109.888V119.804C145.244 121.802 144.134 122.875 142.099 122.875C140.064 122.875 138.954 121.802 138.954 119.804V110.369C138.954 108.038 137.992 106.632 136.29 106.632C134.662 106.632 133.182 108.112 132.701 110.184V119.804C132.701 121.802 131.591 122.875 129.556 122.875C127.521 122.875 126.411 121.802 126.411 119.804V105.411C126.411 103.561 127.447 102.562 129.297 102.562C131.184 102.562 132.22 103.487 132.22 105.374V105.966C133.33 103.709 135.624 102.525 138.103 102.525Z" fill="#594A39"/>
<path d="M154.667 122.875C152.632 122.875 151.522 121.876 151.522 119.915V96.5308C151.522 94.5328 152.632 93.4598 154.667 93.4598C156.665 93.4598 157.812 94.5328 157.812 96.5308V109.296C159.884 107.52 162.326 105.522 164.62 103.339C165.804 102.229 167.136 102.266 168.246 103.302C169.43 104.412 169.245 105.855 167.876 107.002L163.029 110.961L168.616 118.361C169.726 119.804 169.615 121.173 168.32 122.172C166.914 123.282 165.138 123.06 164.213 121.654L158.996 113.699L157.812 114.772V119.915C157.812 121.876 156.665 122.875 154.667 122.875Z" fill="#594A39"/>
<path d="M188.237 117.473C189.236 116.733 190.309 116.807 191.012 117.621C191.715 118.398 191.752 119.471 190.975 120.322C189.791 121.654 186.905 122.875 183.242 122.875C177.433 122.875 172.956 119.952 172.956 113.144C172.956 106.595 176.804 102.488 182.983 102.488C189.051 102.488 192.085 107.002 192.085 111.368C192.085 113.477 191.012 114.587 188.755 114.587H179.357C179.727 117.658 181.096 118.805 183.723 118.879C185.536 118.916 187.016 118.398 188.237 117.473ZM183.057 106.373C180.726 106.373 179.69 107.964 179.357 110.517H186.091C186.313 110.517 186.424 110.406 186.424 110.184C186.424 107.631 185.129 106.373 183.057 106.373Z" fill="#594A39"/>
<path d="M212.579 93.4598C214.577 93.4598 215.687 94.6068 215.687 96.6788V119.952C215.687 121.802 214.651 122.875 212.801 122.875C211.284 122.875 210.174 122.135 209.841 120.84C208.657 122.098 206.622 122.875 204.772 122.875C200.48 122.875 196.188 120.359 196.188 112.811C196.188 106.521 199.888 102.525 204.735 102.525C207.103 102.525 208.583 103.45 209.397 104.19V96.6048C209.397 94.5328 210.47 93.4598 212.579 93.4598ZM206.437 118.657C207.695 118.657 208.916 118.028 209.73 116.918V109.222C209.249 108.149 208.176 106.706 206.03 106.706C203.884 106.706 202.182 108.778 202.182 112.885C202.182 116.548 203.921 118.657 206.437 118.657Z" fill="#594A39"/>
<path d="M253.735 120.174C253.735 121.543 252.995 122.32 251.589 122.32H241.192C238.639 122.32 237.492 121.062 237.492 118.509V97.7148C237.492 95.7538 238.676 94.6808 240.674 94.6438C242.672 94.6068 243.856 95.7538 243.856 97.7148V117.621C243.856 117.954 244.004 118.028 244.263 118.028H251.589C252.958 118.028 253.735 118.768 253.735 120.174Z" fill="#594A39"/>
<path d="M267.057 122.912C260.508 122.912 257.067 118.99 257.067 112.367C257.067 106.373 261.211 102.525 267.316 102.525C273.347 102.525 277.195 106.336 277.232 112.367C277.269 119.138 273.347 122.912 267.057 122.912ZM267.131 118.805C269.684 118.731 270.794 116.881 270.794 112.478C270.794 108.482 269.721 106.558 267.131 106.595C264.615 106.632 263.468 108.519 263.505 112.478C263.542 116.659 264.467 118.879 267.131 118.805Z" fill="#594A39"/>
<path d="M298.067 104.967C299.177 106.151 299.732 107.816 299.732 109.962V119.804C299.732 121.802 298.955 122.875 297.031 122.875C295.07 122.875 294.182 121.802 294.182 119.804V119.693C292.961 121.839 290.667 122.875 287.744 122.875C283.822 122.875 281.417 120.581 281.417 116.918C281.417 112.515 285.524 109.777 291.74 109.777C292.48 109.777 293.257 109.814 293.738 109.888V109.555C293.738 107.705 292.702 106.595 290.741 106.521C289.15 106.447 287.448 107.15 286.042 108.667C285.154 109.629 283.859 109.777 282.934 108.963C281.972 108.186 281.861 106.965 282.712 105.892C284.044 104.264 286.967 102.525 290.852 102.525C294.293 102.525 296.476 103.302 298.067 104.967ZM293.812 115.549V113.662C293.331 113.588 292.517 113.514 291.814 113.551C288.262 113.736 287.041 115.105 287.115 116.548C287.189 117.806 287.966 118.546 289.483 118.546C291.222 118.546 292.961 117.325 293.812 115.549Z" fill="#594A39"/>
<path d="M317.708 102.525C322.111 102.525 324.849 105.337 324.849 109.888V119.804C324.849 121.802 323.739 122.875 321.704 122.875C319.669 122.875 318.559 121.802 318.559 119.804V110.369C318.559 108.038 317.597 106.632 315.895 106.632C314.267 106.632 312.787 108.112 312.306 110.184V119.804C312.306 121.802 311.196 122.875 309.161 122.875C307.126 122.875 306.016 121.802 306.016 119.804V105.411C306.016 103.561 307.052 102.562 308.902 102.562C310.789 102.562 311.825 103.487 311.825 105.374V105.966C312.935 103.709 315.229 102.525 317.708 102.525Z" fill="#594A39"/>
</svg>
