<svg width="400" height="160" viewBox="0 0 400 160" fill="none" xmlns="http://www.w3.org/2000/svg">
<path d="M37.9127 62.3232C29.6617 62.3232 24.7407 57.2172 24.7407 47.8192C24.7407 39.4572 29.9947 34.0552 38.2827 34.0552C42.7597 34.0552 45.8307 35.8312 47.1997 37.2002C48.1247 38.1252 48.1987 39.2722 47.3107 40.2342C46.3857 41.2332 45.2387 41.2702 44.1287 40.3452C43.0557 39.4572 41.2057 38.3842 38.1717 38.3842C33.9907 38.3842 31.3267 42.0102 31.3267 47.8932C31.3267 54.5532 33.6207 57.9572 37.9497 57.9572C39.7257 57.9572 41.1687 57.6242 41.9087 57.1802C42.2047 56.9952 42.3157 56.8472 42.3157 56.5142V51.3342C42.3157 51.1492 42.2047 51.0012 41.9827 51.0012H38.5417C37.1727 51.0012 36.4327 50.2982 36.4327 48.9292C36.4327 47.5602 37.1727 46.8572 38.5417 46.8572H45.6087C47.1997 46.8572 48.1247 47.7452 48.1247 49.3732V57.1802C48.1247 58.5862 47.7177 59.4742 46.6817 60.2142C44.8317 61.5462 41.5757 62.3232 37.9127 62.3232Z" fill="#594A39"/>
<path d="M68.0712 44.1932C68.2562 46.2282 66.9612 46.8572 65.1482 47.0792C63.1872 47.3382 61.3372 49.2622 60.7822 51.7042V59.3632C60.7822 61.4352 59.5242 62.3232 57.4892 62.3232C55.4542 62.3232 54.4922 61.3982 54.4922 59.3632V44.5262C54.4922 42.7502 55.6762 41.9732 57.4892 41.9732C59.1912 41.9732 60.3012 42.8612 60.3012 44.6742V46.4132C61.0782 43.3422 62.8172 42.0842 65.0002 42.0102C66.6652 41.9732 67.9232 42.5282 68.0712 44.1932Z" fill="#594A39"/>
<path d="M86.3651 56.9212C87.3641 56.1812 88.4371 56.2552 89.1401 57.0692C89.8431 57.8462 89.8801 58.9192 89.1031 59.7702C87.9191 61.1022 85.0331 62.3232 81.3701 62.3232C75.5611 62.3232 71.0841 59.4002 71.0841 52.5922C71.0841 46.0432 74.9321 41.9362 81.1111 41.9362C87.1791 41.9362 90.2131 46.4502 90.2131 50.8162C90.2131 52.9252 89.1401 54.0352 86.8831 54.0352H77.4851C77.8551 57.1062 79.2241 58.2532 81.8511 58.3272C83.6641 58.3642 85.1441 57.8462 86.3651 56.9212ZM81.1851 45.8212C78.8541 45.8212 77.8181 47.4122 77.4851 49.9652H84.2191C84.4411 49.9652 84.5521 49.8542 84.5521 49.6322C84.5521 47.0792 83.2571 45.8212 81.1851 45.8212Z" fill="#594A39"/>
<path d="M109.597 56.9212C110.596 56.1812 111.669 56.2552 112.372 57.0692C113.075 57.8462 113.112 58.9192 112.335 59.7702C111.151 61.1022 108.265 62.3232 104.602 62.3232C98.7931 62.3232 94.3161 59.4002 94.3161 52.5922C94.3161 46.0432 98.1641 41.9362 104.343 41.9362C110.411 41.9362 113.445 46.4502 113.445 50.8162C113.445 52.9252 112.372 54.0352 110.115 54.0352H100.717C101.087 57.1062 102.456 58.2532 105.083 58.3272C106.896 58.3642 108.376 57.8462 109.597 56.9212ZM104.417 45.8212C102.086 45.8212 101.05 47.4122 100.717 49.9652H107.451C107.673 49.9652 107.784 49.8542 107.784 49.6322C107.784 47.0792 106.489 45.8212 104.417 45.8212Z" fill="#594A39"/>
<path d="M130.424 41.9732C134.827 41.9732 137.565 44.7852 137.565 49.3362V59.2522C137.565 61.2502 136.455 62.3232 134.42 62.3232C132.385 62.3232 131.275 61.2502 131.275 59.2522V49.8172C131.275 47.4862 130.313 46.0802 128.611 46.0802C126.983 46.0802 125.503 47.5602 125.022 49.6322V59.2522C125.022 61.2502 123.912 62.3232 121.877 62.3232C119.842 62.3232 118.732 61.2502 118.732 59.2522V44.8592C118.732 43.0092 119.768 42.0102 121.618 42.0102C123.505 42.0102 124.541 42.9352 124.541 44.8222V45.4142C125.651 43.1572 127.945 41.9732 130.424 41.9732Z" fill="#594A39"/>
<path d="M173.428 47.7452C176.129 48.2262 179.385 50.1872 179.385 54.2942C179.385 60.3622 173.539 62.0642 167.915 62.0642C165.843 62.0642 163.586 62.0642 161.958 61.8422C159.923 61.5462 158.924 60.5472 158.924 58.6602V37.7922C158.924 35.9052 159.886 34.8692 161.847 34.6102C162.92 34.4622 165.103 34.3882 166.99 34.3882C172.984 34.3882 178.386 36.1642 178.386 41.4552C178.386 45.0812 175.87 46.9312 173.428 47.4492V47.7452ZM165.621 38.6802C165.362 38.7172 165.288 38.8282 165.288 39.0132V45.8212H166.509C170.024 45.8212 172.17 45.1182 172.17 42.0102C172.17 39.6792 170.246 38.6062 166.731 38.6062C166.361 38.6062 165.991 38.6432 165.621 38.6802ZM167.323 57.7352C170.468 57.7352 173.058 56.6252 173.058 53.6652C173.058 50.8162 170.949 49.5582 166.583 49.5582H165.288V57.2912C165.288 57.5132 165.399 57.6242 165.621 57.6612C166.065 57.7352 166.694 57.7352 167.323 57.7352Z" fill="#594A39"/>
<path d="M194.018 62.3602C187.469 62.3602 184.028 58.4382 184.028 51.8152C184.028 45.8212 188.172 41.9732 194.277 41.9732C200.308 41.9732 204.156 45.7842 204.193 51.8152C204.23 58.5862 200.308 62.3602 194.018 62.3602ZM194.092 58.2532C196.645 58.1792 197.755 56.3292 197.755 51.9262C197.755 47.9302 196.682 46.0062 194.092 46.0432C191.576 46.0802 190.429 47.9672 190.466 51.9262C190.503 56.1072 191.428 58.3272 194.092 58.2532Z" fill="#594A39"/>
<path d="M221.365 41.9732C225.768 41.9732 228.506 44.7852 228.506 49.3362V59.2522C228.506 61.2502 227.396 62.3232 225.361 62.3232C223.326 62.3232 222.216 61.2502 222.216 59.2522V49.8172C222.216 47.4862 221.254 46.0802 219.552 46.0802C217.924 46.0802 216.444 47.5602 215.963 49.6322V59.2522C215.963 61.2502 214.853 62.3232 212.818 62.3232C210.783 62.3232 209.673 61.2502 209.673 59.2522V44.8592C209.673 43.0092 210.709 42.0102 212.559 42.0102C214.446 42.0102 215.482 42.9352 215.482 44.8222V45.4142C216.592 43.1572 218.886 41.9732 221.365 41.9732Z" fill="#594A39"/>
<path d="M249.99 32.9082C251.988 32.9082 253.098 34.0552 253.098 36.1272V59.4002C253.098 61.2502 252.062 62.3232 250.212 62.3232C248.695 62.3232 247.585 61.5832 247.252 60.2882C246.068 61.5462 244.033 62.3232 242.183 62.3232C237.891 62.3232 233.599 59.8072 233.599 52.2592C233.599 45.9692 237.299 41.9732 242.146 41.9732C244.514 41.9732 245.994 42.8982 246.808 43.6382V36.0532C246.808 33.9812 247.881 32.9082 249.99 32.9082ZM243.848 58.1052C245.106 58.1052 246.327 57.4762 247.141 56.3662V48.6702C246.66 47.5972 245.587 46.1542 243.441 46.1542C241.295 46.1542 239.593 48.2262 239.593 52.3332C239.593 55.9962 241.332 58.1052 243.848 58.1052Z" fill="#594A39"/>
<path d="M258.823 57.1802C259.452 56.4032 260.488 56.2552 261.45 56.8472C262.56 57.5132 264.151 58.1792 265.779 58.1792C267.407 58.1792 268.184 57.7722 268.184 56.8102C268.184 55.8852 267.777 55.2562 264.595 53.8502C260.821 52.1852 258.86 50.6312 258.86 47.5972C258.86 44.2672 262.079 41.9732 266.815 41.9732C269.997 41.9732 272.18 42.9722 273.253 43.8972C274.104 44.6372 274.252 45.7472 273.623 46.5982C272.994 47.4492 271.625 47.6712 270.589 46.9312C269.701 46.3022 268.517 46.0802 267.148 46.0802C265.742 46.0802 265.039 46.5982 265.039 47.3752C265.039 48.2632 265.779 48.7072 268.517 49.9652C272.846 51.9262 274.548 53.5542 274.548 56.4772C274.548 60.4732 270.774 62.3232 266.815 62.3232C264.003 62.3232 260.71 61.6202 259.119 60.0292C258.231 59.1412 258.083 58.0682 258.823 57.1802Z" fill="#594A39"/>
<path d="M309.609 44.4152C310.719 45.5992 311.274 47.2642 311.274 49.4102V59.2522C311.274 61.2502 310.497 62.3232 308.573 62.3232C306.612 62.3232 305.724 61.2502 305.724 59.2522V59.1412C304.503 61.2872 302.209 62.3232 299.286 62.3232C295.364 62.3232 292.959 60.0292 292.959 56.3662C292.959 51.9632 297.066 49.2252 303.282 49.2252C304.022 49.2252 304.799 49.2622 305.28 49.3362V49.0032C305.28 47.1532 304.244 46.0432 302.283 45.9692C300.692 45.8952 298.99 46.5982 297.584 48.1152C296.696 49.0772 295.401 49.2252 294.476 48.4112C293.514 47.6342 293.403 46.4132 294.254 45.3402C295.586 43.7122 298.509 41.9732 302.394 41.9732C305.835 41.9732 308.018 42.7502 309.609 44.4152ZM305.354 54.9972V53.1102C304.873 53.0362 304.059 52.9622 303.356 52.9992C299.804 53.1842 298.583 54.5532 298.657 55.9962C298.731 57.2542 299.508 57.9942 301.025 57.9942C302.764 57.9942 304.503 56.7732 305.354 54.9972Z" fill="#594A39"/>
<path d="M329.25 41.9732C333.653 41.9732 336.391 44.7852 336.391 49.3362V59.2522C336.391 61.2502 335.281 62.3232 333.246 62.3232C331.211 62.3232 330.101 61.2502 330.101 59.2522V49.8172C330.101 47.4862 329.139 46.0802 327.437 46.0802C325.809 46.0802 324.329 47.5602 323.848 49.6322V59.2522C323.848 61.2502 322.738 62.3232 320.703 62.3232C318.668 62.3232 317.558 61.2502 317.558 59.2522V44.8592C317.558 43.0092 318.594 42.0102 320.444 42.0102C322.331 42.0102 323.367 42.9352 323.367 44.8222V45.4142C324.477 43.1572 326.771 41.9732 329.25 41.9732Z" fill="#594A39"/>
<path d="M357.876 32.9082C359.874 32.9082 360.984 34.0552 360.984 36.1272V59.4002C360.984 61.2502 359.948 62.3232 358.098 62.3232C356.581 62.3232 355.471 61.5832 355.138 60.2882C353.954 61.5462 351.919 62.3232 350.069 62.3232C345.777 62.3232 341.485 59.8072 341.485 52.2592C341.485 45.9692 345.185 41.9732 350.032 41.9732C352.4 41.9732 353.88 42.8982 354.694 43.6382V36.0532C354.694 33.9812 355.767 32.9082 357.876 32.9082ZM351.734 58.1052C352.992 58.1052 354.213 57.4762 355.027 56.3662V48.6702C354.546 47.5972 353.473 46.1542 351.327 46.1542C349.181 46.1542 347.479 48.2262 347.479 52.3332C347.479 55.9962 349.218 58.1052 351.734 58.1052Z" fill="#594A39"/>
<path d="M19.9264 111.959C20.6664 110.96 21.9984 110.775 22.9974 111.552C24.5144 112.736 26.1794 113.883 28.7324 113.883C30.9894 113.883 32.3584 112.921 32.3954 111.145C32.4324 109.702 31.9144 108.222 27.6224 106.002C22.0724 103.079 19.7044 100.822 19.7044 97.0112C19.7044 92.7932 23.5154 90.0552 29.4724 90.0552C33.0984 90.0552 35.9104 91.0912 37.1684 92.3122C38.2044 93.3112 38.4264 94.6062 37.7234 95.6792C36.9464 96.8262 35.5034 97.0482 34.3564 96.0862C33.0984 95.0502 31.6554 94.4212 29.4354 94.4582C27.4004 94.4952 26.2164 95.3092 26.2164 96.5672C26.2164 97.9732 26.7344 99.2312 31.0634 101.451C36.6504 104.374 38.9814 106.705 38.9814 110.405C38.9814 115.363 35.2444 118.323 29.0654 118.323C24.8104 118.323 21.7764 116.917 20.2594 115.4C19.2604 114.401 19.1494 113.032 19.9264 111.959Z" fill="#594A39"/>
<path d="M53.5973 118.36C47.0483 118.36 43.6073 114.438 43.6073 107.815C43.6073 101.821 47.7513 97.9732 53.8563 97.9732C59.8873 97.9732 63.7353 101.784 63.7723 107.815C63.8093 114.586 59.8873 118.36 53.5973 118.36ZM53.6713 114.253C56.2243 114.179 57.3343 112.329 57.3343 107.926C57.3343 103.93 56.2613 102.006 53.6713 102.043C51.1553 102.08 50.0083 103.967 50.0453 107.926C50.0823 112.107 51.0073 114.327 53.6713 114.253Z" fill="#594A39"/>
<path d="M74.6537 118.323C70.7687 118.323 69.2517 116.88 69.2517 112.218V91.9422C69.2517 89.9812 70.3617 88.9082 72.3967 88.9082C74.3577 88.9082 75.5047 89.9812 75.5047 91.9422V112.255C75.5047 113.328 75.6157 113.698 76.3927 113.698C76.8367 113.698 77.0957 113.513 77.5397 113.513C78.2057 113.513 79.1677 114.031 79.1677 115.622C79.1677 117.694 77.1327 118.323 74.6537 118.323Z" fill="#594A39"/>
<path d="M99.3475 100.415C100.457 101.599 101.012 103.264 101.012 105.41V115.252C101.012 117.25 100.235 118.323 98.3115 118.323C96.3505 118.323 95.4625 117.25 95.4625 115.252V115.141C94.2415 117.287 91.9475 118.323 89.0245 118.323C85.1025 118.323 82.6975 116.029 82.6975 112.366C82.6975 107.963 86.8045 105.225 93.0205 105.225C93.7605 105.225 94.5375 105.262 95.0185 105.336V105.003C95.0185 103.153 93.9825 102.043 92.0215 101.969C90.4305 101.895 88.7285 102.598 87.3225 104.115C86.4345 105.077 85.1395 105.225 84.2145 104.411C83.2525 103.634 83.1415 102.413 83.9925 101.34C85.3245 99.7122 88.2475 97.9732 92.1325 97.9732C95.5735 97.9732 97.7565 98.7502 99.3475 100.415ZM95.0925 110.997V109.11C94.6115 109.036 93.7975 108.962 93.0945 108.999C89.5425 109.184 88.3215 110.553 88.3955 111.996C88.4695 113.254 89.2465 113.994 90.7635 113.994C92.5025 113.994 94.2415 112.773 95.0925 110.997Z" fill="#594A39"/>
<path d="M120.876 100.193C121.061 102.228 119.766 102.857 117.953 103.079C115.992 103.338 114.142 105.262 113.587 107.704V115.363C113.587 117.435 112.329 118.323 110.294 118.323C108.259 118.323 107.297 117.398 107.297 115.363V100.526C107.297 98.7502 108.481 97.9732 110.294 97.9732C111.996 97.9732 113.106 98.8612 113.106 100.674V102.413C113.883 99.3422 115.622 98.0842 117.805 98.0102C119.47 97.9732 120.728 98.5282 120.876 100.193Z" fill="#594A39"/>
<path d="M157.757 115.659C157.757 117.028 157.054 117.768 155.722 117.768H143.586C141.625 117.768 140.515 116.695 140.515 114.66V93.6812C140.515 91.7202 141.588 90.6102 143.586 90.6102H155.537C156.832 90.6102 157.572 91.3502 157.572 92.7192C157.572 94.0882 156.869 94.8282 155.537 94.8282H147.212C147.027 94.8282 146.879 94.9392 146.879 95.1612V101.636H154.464C155.722 101.636 156.499 102.376 156.499 103.745C156.499 105.077 155.759 105.854 154.464 105.854H146.879V113.217C146.879 113.402 146.99 113.55 147.212 113.55H155.722C157.017 113.55 157.757 114.253 157.757 115.659Z" fill="#594A39"/>
<path d="M174.773 97.9732C179.176 97.9732 181.914 100.785 181.914 105.336V115.252C181.914 117.25 180.804 118.323 178.769 118.323C176.734 118.323 175.624 117.25 175.624 115.252V105.817C175.624 103.486 174.662 102.08 172.96 102.08C171.332 102.08 169.852 103.56 169.371 105.632V115.252C169.371 117.25 168.261 118.323 166.226 118.323C164.191 118.323 163.081 117.25 163.081 115.252V100.859C163.081 99.0092 164.117 98.0102 165.967 98.0102C167.854 98.0102 168.89 98.9352 168.89 100.822V101.414C170 99.1572 172.294 97.9732 174.773 97.9732Z" fill="#594A39"/>
<path d="M202.289 112.921C203.288 112.181 204.361 112.255 205.064 113.069C205.767 113.846 205.804 114.919 205.027 115.77C203.843 117.102 200.957 118.323 197.294 118.323C191.485 118.323 187.008 115.4 187.008 108.592C187.008 102.043 190.856 97.9362 197.035 97.9362C203.103 97.9362 206.137 102.45 206.137 106.816C206.137 108.925 205.064 110.035 202.807 110.035H193.409C193.779 113.106 195.148 114.253 197.775 114.327C199.588 114.364 201.068 113.846 202.289 112.921ZM197.109 101.821C194.778 101.821 193.742 103.412 193.409 105.965H200.143C200.365 105.965 200.476 105.854 200.476 105.632C200.476 103.079 199.181 101.821 197.109 101.821Z" fill="#594A39"/>
<path d="M225.003 100.193C225.188 102.228 223.893 102.857 222.08 103.079C220.119 103.338 218.269 105.262 217.714 107.704V115.363C217.714 117.435 216.456 118.323 214.421 118.323C212.386 118.323 211.424 117.398 211.424 115.363V100.526C211.424 98.7502 212.608 97.9732 214.421 97.9732C216.123 97.9732 217.233 98.8612 217.233 100.674V102.413C218.01 99.3422 219.749 98.0842 221.932 98.0102C223.597 97.9732 224.855 98.5282 225.003 100.193Z" fill="#594A39"/>
<path d="M244.407 98.0102C246.442 98.0102 247.145 99.0462 247.145 101.044V117.361C247.145 123.873 243.741 127.092 237.303 127.092C234.972 127.092 232.345 126.389 230.828 125.39C229.57 124.576 229.126 123.503 229.755 122.319C230.347 121.172 231.568 120.95 232.678 121.653C233.825 122.356 235.046 122.911 237.081 122.911C239.967 122.911 241.225 121.357 241.225 117.583V116.14C240.078 117.139 238.413 117.768 236.785 117.768C232.419 117.768 228.016 115.585 228.016 108.185C228.016 101.747 231.494 97.9732 236.6 97.9732C238.931 97.9732 240.559 98.8612 241.558 100.23C241.817 98.8242 242.816 98.0102 244.407 98.0102ZM238.191 113.587C239.486 113.587 240.707 112.995 241.484 111.959V104.818C241.077 103.745 240.078 102.154 237.895 102.154C235.49 102.154 234.01 104.004 234.01 108.259C234.01 111.737 235.675 113.587 238.191 113.587Z" fill="#594A39"/>
<path d="M255.988 126.87C253.953 126.87 251.881 126.13 251.881 124.28C251.881 123.022 252.584 122.097 253.694 122.097C254.434 122.097 255.026 122.245 255.396 122.245C256.58 122.245 257.172 121.986 257.69 121.172C258.097 120.506 259.022 118.545 259.466 117.398C257.246 112.699 254.36 106.409 252.399 102.006C251.585 100.156 252.029 99.0832 253.842 98.2692C255.322 97.6032 256.95 98.3062 257.69 100.119C259.392 104.263 261.612 109.961 262.278 111.7H262.426C263.092 109.813 264.72 104.152 265.83 100.082C266.348 98.1952 267.532 97.6772 269.382 98.1952C271.047 98.6762 271.713 99.7492 271.121 101.377C269.493 105.891 266.607 113.587 264.942 117.435C264.054 119.433 262.944 122.06 261.797 123.91C260.576 125.908 258.578 126.87 255.988 126.87Z" fill="#594A39"/>
<path d="M297.985 94.8282C297.8 94.8282 297.652 94.9392 297.652 95.1612V101.636H304.978C306.273 101.636 306.976 102.376 306.976 103.745C306.976 105.114 306.273 105.854 304.978 105.854H297.652V115.104C297.652 117.213 296.468 118.323 294.47 118.323C292.435 118.323 291.288 117.213 291.288 115.104V93.6812C291.288 91.7202 292.361 90.6102 294.285 90.6102H306.125C307.42 90.6102 308.123 91.3502 308.123 92.7192C308.123 94.0882 307.42 94.8282 306.125 94.8282H297.985Z" fill="#594A39"/>
<path d="M327.433 97.9732C329.431 97.9732 330.504 99.0462 330.504 100.97V115.622C330.504 117.287 329.542 118.323 327.729 118.323C325.953 118.323 324.954 117.324 324.917 115.659V115.289C323.844 117.176 321.735 118.286 319.108 118.286C314.631 118.286 311.93 115.548 311.93 110.96V101.007C311.93 99.0462 313.04 97.9732 315.075 97.9732C317.11 97.9732 318.22 99.0462 318.22 101.007V110.146C318.22 112.773 319.034 114.031 320.884 114.031C322.919 114.031 324.029 111.589 324.362 110.109V100.97C324.362 99.0462 325.472 97.9732 327.433 97.9732Z" fill="#594A39"/>
<path d="M348.85 97.9732C353.253 97.9732 355.991 100.785 355.991 105.336V115.252C355.991 117.25 354.881 118.323 352.846 118.323C350.811 118.323 349.701 117.25 349.701 115.252V105.817C349.701 103.486 348.739 102.08 347.037 102.08C345.409 102.08 343.929 103.56 343.448 105.632V115.252C343.448 117.25 342.338 118.323 340.303 118.323C338.268 118.323 337.158 117.25 337.158 115.252V100.859C337.158 99.0092 338.194 98.0102 340.044 98.0102C341.931 98.0102 342.967 98.9352 342.967 100.822V101.414C344.077 99.1572 346.371 97.9732 348.85 97.9732Z" fill="#594A39"/>
<path d="M377.476 88.9082C379.474 88.9082 380.584 90.0552 380.584 92.1272V115.4C380.584 117.25 379.548 118.323 377.698 118.323C376.181 118.323 375.071 117.583 374.738 116.288C373.554 117.546 371.519 118.323 369.669 118.323C365.377 118.323 361.085 115.807 361.085 108.259C361.085 101.969 364.785 97.9732 369.632 97.9732C372 97.9732 373.48 98.8982 374.294 99.6382V92.0532C374.294 89.9812 375.367 88.9082 377.476 88.9082ZM371.334 114.105C372.592 114.105 373.813 113.476 374.627 112.366V104.67C374.146 103.597 373.073 102.154 370.927 102.154C368.781 102.154 367.079 104.226 367.079 108.333C367.079 111.996 368.818 114.105 371.334 114.105Z" fill="#594A39"/>
</svg>
