<svg width="400" height="160" viewBox="0 0 400 160" fill="none" xmlns="http://www.w3.org/2000/svg">
<path d="M14.5088 39.0127C14.3238 39.0127 14.1758 39.1237 14.1758 39.3457V45.8207H21.5018C22.7968 45.8207 23.4998 46.5607 23.4998 47.9297C23.4998 49.2987 22.7968 50.0387 21.5018 50.0387H14.1758V59.2887C14.1758 61.3977 12.9918 62.5077 10.9938 62.5077C8.95877 62.5077 7.81177 61.3977 7.81177 59.2887V37.8657C7.81177 35.9047 8.88477 34.7947 10.8088 34.7947H22.6488C23.9438 34.7947 24.6468 35.5347 24.6468 36.9037C24.6468 38.2727 23.9438 39.0127 22.6488 39.0127H14.5088Z" fill="#B8C318"/>
<path d="M30.563 39.9007C28.528 39.9007 26.826 38.3467 26.826 36.3487C26.826 34.2767 28.491 32.7597 30.563 32.7597C32.672 32.7597 34.152 34.2397 34.152 36.3487C34.152 38.3837 32.635 39.9007 30.563 39.9007ZM30.489 62.5077C28.417 62.5077 27.344 61.4347 27.344 59.4367V45.5987C27.344 43.6007 28.417 42.5277 30.489 42.5277C32.561 42.5277 33.634 43.6007 33.634 45.5987V59.4367C33.634 61.4347 32.561 62.5077 30.489 62.5077Z" fill="#B8C318"/>
<path d="M50.5089 42.1577C54.9119 42.1577 57.6499 44.9697 57.6499 49.5207V59.4367C57.6499 61.4347 56.5399 62.5077 54.5049 62.5077C52.4699 62.5077 51.3599 61.4347 51.3599 59.4367V50.0017C51.3599 47.6707 50.3979 46.2647 48.6959 46.2647C47.0679 46.2647 45.5879 47.7447 45.1069 49.8167V59.4367C45.1069 61.4347 43.9969 62.5077 41.9619 62.5077C39.9269 62.5077 38.8169 61.4347 38.8169 59.4367V45.0437C38.8169 43.1937 39.8529 42.1947 41.7029 42.1947C43.5899 42.1947 44.6259 43.1197 44.6259 45.0067V45.5987C45.7359 43.3417 48.0299 42.1577 50.5089 42.1577Z" fill="#B8C318"/>
<path d="M77.4328 44.5997C78.5428 45.7837 79.0978 47.4487 79.0978 49.5947V59.4367C79.0978 61.4347 78.3208 62.5077 76.3968 62.5077C74.4358 62.5077 73.5478 61.4347 73.5478 59.4367V59.3257C72.3268 61.4717 70.0328 62.5077 67.1098 62.5077C63.1878 62.5077 60.7828 60.2137 60.7828 56.5507C60.7828 52.1477 64.8898 49.4097 71.1058 49.4097C71.8458 49.4097 72.6228 49.4467 73.1038 49.5207V49.1877C73.1038 47.3377 72.0678 46.2277 70.1068 46.1537C68.5158 46.0797 66.8138 46.7827 65.4078 48.2997C64.5198 49.2617 63.2248 49.4097 62.2998 48.5957C61.3378 47.8187 61.2268 46.5977 62.0778 45.5247C63.4098 43.8967 66.3328 42.1577 70.2178 42.1577C73.6588 42.1577 75.8418 42.9347 77.4328 44.5997ZM73.1778 55.1817V53.2947C72.6968 53.2207 71.8828 53.1467 71.1798 53.1837C67.6278 53.3687 66.4068 54.7377 66.4808 56.1807C66.5548 57.4387 67.3318 58.1787 68.8488 58.1787C70.5878 58.1787 72.3268 56.9577 73.1778 55.1817Z" fill="#B8C318"/>
<path d="M95.224 42.1577C99.627 42.1577 102.365 44.9697 102.365 49.5207V59.4367C102.365 61.4347 101.255 62.5077 99.22 62.5077C97.185 62.5077 96.075 61.4347 96.075 59.4367V50.0017C96.075 47.6707 95.113 46.2647 93.411 46.2647C91.783 46.2647 90.303 47.7447 89.822 49.8167V59.4367C89.822 61.4347 88.712 62.5077 86.677 62.5077C84.642 62.5077 83.532 61.4347 83.532 59.4367V45.0437C83.532 43.1937 84.568 42.1947 86.418 42.1947C88.305 42.1947 89.341 43.1197 89.341 45.0067V45.5987C90.451 43.3417 92.745 42.1577 95.224 42.1577Z" fill="#B8C318"/>
<path d="M115.673 62.5077C109.346 62.5077 105.609 58.8077 105.609 52.4807C105.609 46.1537 109.494 42.1577 115.71 42.1577C119.151 42.1577 121.519 43.5637 122.481 44.7847C123.221 45.6357 123.184 46.7457 122.37 47.4857C121.408 48.3367 120.335 48.3737 119.484 47.5597C118.67 46.7827 117.449 46.4497 116.228 46.4497C113.49 46.4497 111.899 48.4477 111.899 52.1847C111.899 56.2917 113.453 58.1417 116.302 58.1417C117.745 58.1417 118.892 57.8087 119.743 57.0687C120.594 56.3287 121.667 56.4027 122.481 57.1427C123.369 57.9197 123.369 58.9927 122.592 60.0287C121.408 61.5827 118.744 62.5077 115.673 62.5077Z" fill="#B8C318"/>
<path d="M129.993 39.9007C127.958 39.9007 126.256 38.3467 126.256 36.3487C126.256 34.2767 127.921 32.7597 129.993 32.7597C132.102 32.7597 133.582 34.2397 133.582 36.3487C133.582 38.3837 132.065 39.9007 129.993 39.9007ZM129.919 62.5077C127.847 62.5077 126.774 61.4347 126.774 59.4367V45.5987C126.774 43.6007 127.847 42.5277 129.919 42.5277C131.991 42.5277 133.064 43.6007 133.064 45.5987V59.4367C133.064 61.4347 131.991 62.5077 129.919 62.5077Z" fill="#B8C318"/>
<path d="M149.939 42.1577C154.342 42.1577 157.08 44.9697 157.08 49.5207V59.4367C157.08 61.4347 155.97 62.5077 153.935 62.5077C151.9 62.5077 150.79 61.4347 150.79 59.4367V50.0017C150.79 47.6707 149.828 46.2647 148.126 46.2647C146.498 46.2647 145.018 47.7447 144.537 49.8167V59.4367C144.537 61.4347 143.427 62.5077 141.392 62.5077C139.357 62.5077 138.247 61.4347 138.247 59.4367V45.0437C138.247 43.1937 139.283 42.1947 141.133 42.1947C143.02 42.1947 144.056 43.1197 144.056 45.0067V45.5987C145.166 43.3417 147.46 42.1577 149.939 42.1577Z" fill="#B8C318"/>
<path d="M176.715 42.1947C178.75 42.1947 179.453 43.2307 179.453 45.2287V61.5457C179.453 68.0577 176.049 71.2767 169.611 71.2767C167.28 71.2767 164.653 70.5737 163.136 69.5747C161.878 68.7607 161.434 67.6877 162.063 66.5037C162.655 65.3567 163.876 65.1347 164.986 65.8377C166.133 66.5407 167.354 67.0957 169.389 67.0957C172.275 67.0957 173.533 65.5417 173.533 61.7677V60.3247C172.386 61.3237 170.721 61.9527 169.093 61.9527C164.727 61.9527 160.324 59.7697 160.324 52.3697C160.324 45.9317 163.802 42.1577 168.908 42.1577C171.239 42.1577 172.867 43.0457 173.866 44.4147C174.125 43.0087 175.124 42.1947 176.715 42.1947ZM170.499 57.7717C171.794 57.7717 173.015 57.1797 173.792 56.1437V49.0027C173.385 47.9297 172.386 46.3387 170.203 46.3387C167.798 46.3387 166.318 48.1887 166.318 52.4437C166.318 55.9217 167.983 57.7717 170.499 57.7717Z" fill="#B8C318"/>
<path d="M208.743 33.7217C209.594 34.3137 209.89 35.3497 209.483 36.2747C209.039 37.2737 208.003 37.6807 207.115 37.2367C206.745 37.0517 206.412 36.9777 206.079 36.9777C205.08 36.9777 204.71 37.6067 204.71 39.2347V42.7127H207.004C208.188 42.7127 208.854 43.5267 208.854 44.8217C208.854 46.1537 208.151 46.9307 207.004 46.9307H204.71V59.4737C204.71 61.5457 203.526 62.5077 201.565 62.5077C199.567 62.5077 198.42 61.4717 198.42 59.4737V46.9307H196.644C195.46 46.9307 194.72 46.1537 194.72 44.8217C194.72 43.4897 195.46 42.7127 196.644 42.7127H198.42V39.1237C198.42 35.0907 200.751 32.7227 204.747 32.7227C206.338 32.7227 207.892 33.1297 208.743 33.7217Z" fill="#B8C318"/>
<path d="M220.043 62.5447C213.494 62.5447 210.053 58.6227 210.053 51.9997C210.053 46.0057 214.197 42.1577 220.302 42.1577C226.333 42.1577 230.181 45.9687 230.218 51.9997C230.255 58.7707 226.333 62.5447 220.043 62.5447ZM220.117 58.4377C222.67 58.3637 223.78 56.5137 223.78 52.1107C223.78 48.1147 222.707 46.1907 220.117 46.2277C217.601 46.2647 216.454 48.1517 216.491 52.1107C216.528 56.2917 217.453 58.5117 220.117 58.4377Z" fill="#B8C318"/>
<path d="M247.426 44.3777C247.611 46.4127 246.316 47.0417 244.503 47.2637C242.542 47.5227 240.692 49.4467 240.137 51.8887V59.5477C240.137 61.6197 238.879 62.5077 236.844 62.5077C234.809 62.5077 233.847 61.5827 233.847 59.5477V44.7107C233.847 42.9347 235.031 42.1577 236.844 42.1577C238.546 42.1577 239.656 43.0457 239.656 44.8587V46.5977C240.433 43.5267 242.172 42.2687 244.355 42.1947C246.02 42.1577 247.278 42.7127 247.426 44.3777Z" fill="#B8C318"/>
<path d="M262.404 56.1437C263.144 55.1447 264.476 54.9597 265.475 55.7367C266.992 56.9207 268.657 58.0677 271.21 58.0677C273.467 58.0677 274.836 57.1057 274.873 55.3297C274.91 53.8867 274.392 52.4067 270.1 50.1867C264.55 47.2637 262.182 45.0067 262.182 41.1957C262.182 36.9777 265.993 34.2397 271.95 34.2397C275.576 34.2397 278.388 35.2757 279.646 36.4967C280.682 37.4957 280.904 38.7907 280.201 39.8637C279.424 41.0107 277.981 41.2327 276.834 40.2707C275.576 39.2347 274.133 38.6057 271.913 38.6427C269.878 38.6797 268.694 39.4937 268.694 40.7517C268.694 42.1577 269.212 43.4157 273.541 45.6357C279.128 48.5587 281.459 50.8897 281.459 54.5897C281.459 59.5477 277.722 62.5077 271.543 62.5077C267.288 62.5077 264.254 61.1017 262.737 59.5847C261.738 58.5857 261.627 57.2167 262.404 56.1437Z" fill="#B8C318"/>
<path d="M289.008 39.9007C286.973 39.9007 285.271 38.3467 285.271 36.3487C285.271 34.2767 286.936 32.7597 289.008 32.7597C291.117 32.7597 292.597 34.2397 292.597 36.3487C292.597 38.3837 291.08 39.9007 289.008 39.9007ZM288.934 62.5077C286.862 62.5077 285.789 61.4347 285.789 59.4367V45.5987C285.789 43.6007 286.862 42.5277 288.934 42.5277C291.006 42.5277 292.079 43.6007 292.079 45.5987V59.4367C292.079 61.4347 291.006 62.5077 288.934 62.5077Z" fill="#B8C318"/>
<path d="M296.892 61.9527C295.523 60.9167 295.264 59.5847 296.374 58.2527C298.002 56.3287 299.593 54.3307 301.11 52.2587L296.67 46.5237C295.634 45.1917 296.115 43.7487 297.558 42.6757C298.816 41.7507 300.296 42.0837 301.295 43.4157L305.106 48.4477H305.254C306.438 46.7827 307.585 45.2657 308.732 43.4527C309.62 42.0467 310.989 41.7137 312.432 42.5647C313.875 43.4157 314.171 44.9327 313.172 46.3387C311.729 48.3737 310.286 50.1867 308.732 52.0737L313.32 57.8457C314.467 59.2887 314.245 60.8427 312.728 61.9527C311.359 62.9517 309.805 62.5447 308.769 61.1387L304.995 55.9957H304.847C303.478 57.9567 301.924 59.5477 300.518 61.3607C299.519 62.6557 298.15 62.8777 296.892 61.9527Z" fill="#B8C318"/>
<path d="M333.756 62.5077C331.758 62.5077 330.611 61.5087 330.611 59.4737V37.3107C330.611 35.2387 331.832 34.2397 333.793 34.2397C335.828 34.2397 336.975 35.2757 336.975 37.3107V46.0797C337.937 45.0807 338.381 44.6367 340.823 41.7137L346.114 35.3867C347.224 34.0547 348.778 33.8697 350.147 34.8687C351.442 35.8307 351.553 37.3477 350.443 38.6427C348.297 41.1587 345.855 43.9707 343.561 46.3757L351.035 57.9567C352.071 59.5477 351.775 60.9907 350.184 61.9897C348.667 62.9517 347.002 62.5447 346.04 60.9537L339.491 49.8907L336.901 52.4437V59.4737C336.901 61.5087 335.754 62.5077 333.756 62.5077Z" fill="#B8C318"/>
<path d="M367.375 57.1057C368.374 56.3657 369.447 56.4397 370.15 57.2537C370.853 58.0307 370.89 59.1037 370.113 59.9547C368.929 61.2867 366.043 62.5077 362.38 62.5077C356.571 62.5077 352.094 59.5847 352.094 52.7767C352.094 46.2277 355.942 42.1207 362.121 42.1207C368.189 42.1207 371.223 46.6347 371.223 51.0007C371.223 53.1097 370.15 54.2197 367.893 54.2197H358.495C358.865 57.2907 360.234 58.4377 362.861 58.5117C364.674 58.5487 366.154 58.0307 367.375 57.1057ZM362.195 46.0057C359.864 46.0057 358.828 47.5967 358.495 50.1497H365.229C365.451 50.1497 365.562 50.0387 365.562 49.8167C365.562 47.2637 364.267 46.0057 362.195 46.0057Z" fill="#B8C318"/>
<path d="M376.843 71.0547C374.808 71.0547 372.736 70.3147 372.736 68.4647C372.736 67.2067 373.439 66.2817 374.549 66.2817C375.289 66.2817 375.881 66.4297 376.251 66.4297C377.435 66.4297 378.027 66.1707 378.545 65.3567C378.952 64.6907 379.877 62.7297 380.321 61.5827C378.101 56.8837 375.215 50.5937 373.254 46.1907C372.44 44.3407 372.884 43.2677 374.697 42.4537C376.177 41.7877 377.805 42.4907 378.545 44.3037C380.247 48.4477 382.467 54.1457 383.133 55.8847H383.281C383.947 53.9977 385.575 48.3367 386.685 44.2667C387.203 42.3797 388.387 41.8617 390.237 42.3797C391.902 42.8607 392.568 43.9337 391.976 45.5617C390.348 50.0757 387.462 57.7717 385.797 61.6197C384.909 63.6177 383.799 66.2447 382.652 68.0947C381.431 70.0927 379.433 71.0547 376.843 71.0547Z" fill="#B8C318"/>
<path d="M19.1306 112.144C19.8706 111.145 21.2026 110.96 22.2016 111.737C23.7186 112.921 25.3836 114.068 27.9366 114.068C30.1936 114.068 31.5626 113.106 31.5996 111.33C31.6366 109.887 31.1186 108.407 26.8266 106.187C21.2766 103.264 18.9086 101.007 18.9086 97.1957C18.9086 92.9777 22.7196 90.2397 28.6766 90.2397C32.3026 90.2397 35.1146 91.2757 36.3726 92.4967C37.4086 93.4957 37.6306 94.7907 36.9276 95.8637C36.1506 97.0107 34.7076 97.2327 33.5606 96.2707C32.3026 95.2347 30.8596 94.6057 28.6396 94.6427C26.6046 94.6797 25.4206 95.4937 25.4206 96.7517C25.4206 98.1577 25.9386 99.4157 30.2676 101.636C35.8546 104.559 38.1856 106.89 38.1856 110.59C38.1856 115.548 34.4486 118.508 28.2696 118.508C24.0146 118.508 20.9806 117.102 19.4636 115.585C18.4646 114.586 18.3536 113.217 19.1306 112.144Z" fill="#B8C318"/>
<path d="M53.2825 113.513C54.3555 113.513 55.0215 114.808 55.0215 115.733C55.0215 117.657 52.2835 118.212 50.2485 118.212C45.9935 118.212 44.0695 116.177 44.0695 111.774V102.931H41.9975C40.8135 102.931 40.1475 102.117 40.1475 100.822C40.1475 99.4897 40.8505 98.7127 41.9975 98.7127H44.0695V96.3817C44.0695 94.3837 45.1795 93.3107 47.2145 93.3107C49.2495 93.3107 50.3595 94.3837 50.3595 96.3817V98.7127H52.7645C53.9485 98.7127 54.6145 99.5267 54.6145 100.822C54.6145 102.154 53.9115 102.931 52.7645 102.931H50.3595V111.7C50.3595 113.18 50.7665 113.846 51.4325 113.846C52.1355 113.846 52.6165 113.513 53.2825 113.513Z" fill="#B8C318"/>
<path d="M71.831 100.378C72.016 102.413 70.721 103.042 68.908 103.264C66.947 103.523 65.097 105.447 64.542 107.889V115.548C64.542 117.62 63.284 118.508 61.249 118.508C59.214 118.508 58.252 117.583 58.252 115.548V100.711C58.252 98.9347 59.436 98.1577 61.249 98.1577C62.951 98.1577 64.061 99.0457 64.061 100.859V102.598C64.838 99.5267 66.577 98.2687 68.76 98.1947C70.425 98.1577 71.683 98.7127 71.831 100.378Z" fill="#B8C318"/>
<path d="M89.7497 100.6C90.8597 101.784 91.4147 103.449 91.4147 105.595V115.437C91.4147 117.435 90.6377 118.508 88.7137 118.508C86.7527 118.508 85.8647 117.435 85.8647 115.437V115.326C84.6437 117.472 82.3497 118.508 79.4267 118.508C75.5047 118.508 73.0997 116.214 73.0997 112.551C73.0997 108.148 77.2067 105.41 83.4227 105.41C84.1627 105.41 84.9397 105.447 85.4207 105.521V105.188C85.4207 103.338 84.3847 102.228 82.4237 102.154C80.8327 102.08 79.1307 102.783 77.7247 104.3C76.8367 105.262 75.5417 105.41 74.6167 104.596C73.6547 103.819 73.5437 102.598 74.3947 101.525C75.7267 99.8967 78.6497 98.1577 82.5347 98.1577C85.9757 98.1577 88.1587 98.9347 89.7497 100.6ZM85.4947 111.182V109.295C85.0137 109.221 84.1997 109.147 83.4967 109.184C79.9447 109.369 78.7237 110.738 78.7977 112.181C78.8717 113.439 79.6487 114.179 81.1657 114.179C82.9047 114.179 84.6437 112.958 85.4947 111.182Z" fill="#B8C318"/>
<path d="M106.444 113.513C107.517 113.513 108.183 114.808 108.183 115.733C108.183 117.657 105.445 118.212 103.41 118.212C99.1549 118.212 97.2309 116.177 97.2309 111.774V102.931H95.1589C93.9749 102.931 93.3089 102.117 93.3089 100.822C93.3089 99.4897 94.0119 98.7127 95.1589 98.7127H97.2309V96.3817C97.2309 94.3837 98.3409 93.3107 100.376 93.3107C102.411 93.3107 103.521 94.3837 103.521 96.3817V98.7127H105.926C107.11 98.7127 107.776 99.5267 107.776 100.822C107.776 102.154 107.073 102.931 105.926 102.931H103.521V111.7C103.521 113.18 103.928 113.846 104.594 113.846C105.297 113.846 105.778 113.513 106.444 113.513Z" fill="#B8C318"/>
<path d="M125.149 113.106C126.148 112.366 127.221 112.44 127.924 113.254C128.627 114.031 128.664 115.104 127.887 115.955C126.703 117.287 123.817 118.508 120.154 118.508C114.345 118.508 109.868 115.585 109.868 108.777C109.868 102.228 113.716 98.1207 119.895 98.1207C125.963 98.1207 128.997 102.635 128.997 107.001C128.997 109.11 127.924 110.22 125.667 110.22H116.269C116.639 113.291 118.008 114.438 120.635 114.512C122.448 114.549 123.928 114.031 125.149 113.106ZM119.969 102.006C117.638 102.006 116.602 103.597 116.269 106.15H123.003C123.225 106.15 123.336 106.039 123.336 105.817C123.336 103.264 122.041 102.006 119.969 102.006Z" fill="#B8C318"/>
<path d="M147.641 98.1947C149.676 98.1947 150.379 99.2307 150.379 101.229V117.546C150.379 124.058 146.975 127.277 140.537 127.277C138.206 127.277 135.579 126.574 134.062 125.575C132.804 124.761 132.36 123.688 132.989 122.504C133.581 121.357 134.802 121.135 135.912 121.838C137.059 122.541 138.28 123.096 140.315 123.096C143.201 123.096 144.459 121.542 144.459 117.768V116.325C143.312 117.324 141.647 117.953 140.019 117.953C135.653 117.953 131.25 115.77 131.25 108.37C131.25 101.932 134.728 98.1577 139.834 98.1577C142.165 98.1577 143.793 99.0457 144.792 100.415C145.051 99.0087 146.05 98.1947 147.641 98.1947ZM141.425 113.772C142.72 113.772 143.941 113.18 144.718 112.144V105.003C144.311 103.93 143.312 102.339 141.129 102.339C138.724 102.339 137.244 104.189 137.244 108.444C137.244 111.922 138.909 113.772 141.425 113.772Z" fill="#B8C318"/>
<path d="M158.778 95.9007C156.743 95.9007 155.041 94.3467 155.041 92.3487C155.041 90.2767 156.706 88.7597 158.778 88.7597C160.887 88.7597 162.367 90.2397 162.367 92.3487C162.367 94.3837 160.85 95.9007 158.778 95.9007ZM158.704 118.508C156.632 118.508 155.559 117.435 155.559 115.437V101.599C155.559 99.6007 156.632 98.5277 158.704 98.5277C160.776 98.5277 161.849 99.6007 161.849 101.599V115.437C161.849 117.435 160.776 118.508 158.704 118.508Z" fill="#B8C318"/>
<path d="M175.912 118.508C169.585 118.508 165.848 114.808 165.848 108.481C165.848 102.154 169.733 98.1577 175.949 98.1577C179.39 98.1577 181.758 99.5637 182.72 100.785C183.46 101.636 183.423 102.746 182.609 103.486C181.647 104.337 180.574 104.374 179.723 103.56C178.909 102.783 177.688 102.45 176.467 102.45C173.729 102.45 172.138 104.448 172.138 108.185C172.138 112.292 173.692 114.142 176.541 114.142C177.984 114.142 179.131 113.809 179.982 113.069C180.833 112.329 181.906 112.403 182.72 113.143C183.608 113.92 183.608 114.993 182.831 116.029C181.647 117.583 178.983 118.508 175.912 118.508Z" fill="#B8C318"/>
<path d="M203.057 118.471C201.022 118.471 199.875 117.546 199.875 115.585V93.1997C199.875 91.3127 201.059 90.2397 203.057 90.2397C205.055 90.2397 206.239 91.3497 206.239 93.1997V115.585C206.239 117.509 205.092 118.471 203.057 118.471Z" fill="#B8C318"/>
<path d="M223.467 98.1577C227.87 98.1577 230.608 100.97 230.608 105.521V115.437C230.608 117.435 229.498 118.508 227.463 118.508C225.428 118.508 224.318 117.435 224.318 115.437V106.002C224.318 103.671 223.356 102.265 221.654 102.265C220.026 102.265 218.546 103.745 218.065 105.817V115.437C218.065 117.435 216.955 118.508 214.92 118.508C212.885 118.508 211.775 117.435 211.775 115.437V101.044C211.775 99.1937 212.811 98.1947 214.661 98.1947C216.548 98.1947 217.584 99.1197 217.584 101.007V101.599C218.694 99.3417 220.988 98.1577 223.467 98.1577Z" fill="#B8C318"/>
<path d="M250.242 89.0927C252.24 89.0927 253.35 90.2397 253.35 92.3117V115.585C253.35 117.435 252.314 118.508 250.464 118.508C248.947 118.508 247.837 117.768 247.504 116.473C246.32 117.731 244.285 118.508 242.435 118.508C238.143 118.508 233.851 115.992 233.851 108.444C233.851 102.154 237.551 98.1577 242.398 98.1577C244.766 98.1577 246.246 99.0827 247.06 99.8227V92.2377C247.06 90.1657 248.133 89.0927 250.242 89.0927ZM244.1 114.29C245.358 114.29 246.579 113.661 247.393 112.551V104.855C246.912 103.782 245.839 102.339 243.693 102.339C241.547 102.339 239.845 104.411 239.845 108.518C239.845 112.181 241.584 114.29 244.1 114.29Z" fill="#B8C318"/>
<path d="M273.357 98.1577C275.355 98.1577 276.428 99.2307 276.428 101.155V115.807C276.428 117.472 275.466 118.508 273.653 118.508C271.877 118.508 270.878 117.509 270.841 115.844V115.474C269.768 117.361 267.659 118.471 265.032 118.471C260.555 118.471 257.854 115.733 257.854 111.145V101.192C257.854 99.2307 258.964 98.1577 260.999 98.1577C263.034 98.1577 264.144 99.2307 264.144 101.192V110.331C264.144 112.958 264.958 114.216 266.808 114.216C268.843 114.216 269.953 111.774 270.286 110.294V101.155C270.286 99.2307 271.396 98.1577 273.357 98.1577Z" fill="#B8C318"/>
<path d="M280.233 113.365C280.862 112.588 281.898 112.44 282.86 113.032C283.97 113.698 285.561 114.364 287.189 114.364C288.817 114.364 289.594 113.957 289.594 112.995C289.594 112.07 289.187 111.441 286.005 110.035C282.231 108.37 280.27 106.816 280.27 103.782C280.27 100.452 283.489 98.1577 288.225 98.1577C291.407 98.1577 293.59 99.1567 294.663 100.082C295.514 100.822 295.662 101.932 295.033 102.783C294.404 103.634 293.035 103.856 291.999 103.116C291.111 102.487 289.927 102.265 288.558 102.265C287.152 102.265 286.449 102.783 286.449 103.56C286.449 104.448 287.189 104.892 289.927 106.15C294.256 108.111 295.958 109.739 295.958 112.662C295.958 116.658 292.184 118.508 288.225 118.508C285.413 118.508 282.12 117.805 280.529 116.214C279.641 115.326 279.493 114.253 280.233 113.365Z" fill="#B8C318"/>
<path d="M310.282 113.513C311.355 113.513 312.021 114.808 312.021 115.733C312.021 117.657 309.283 118.212 307.248 118.212C302.993 118.212 301.069 116.177 301.069 111.774V102.931H298.997C297.813 102.931 297.147 102.117 297.147 100.822C297.147 99.4897 297.85 98.7127 298.997 98.7127H301.069V96.3817C301.069 94.3837 302.179 93.3107 304.214 93.3107C306.249 93.3107 307.359 94.3837 307.359 96.3817V98.7127H309.764C310.948 98.7127 311.614 99.5267 311.614 100.822C311.614 102.154 310.911 102.931 309.764 102.931H307.359V111.7C307.359 113.18 307.766 113.846 308.432 113.846C309.135 113.846 309.616 113.513 310.282 113.513Z" fill="#B8C318"/>
<path d="M328.831 100.378C329.016 102.413 327.721 103.042 325.908 103.264C323.947 103.523 322.097 105.447 321.542 107.889V115.548C321.542 117.62 320.284 118.508 318.249 118.508C316.214 118.508 315.252 117.583 315.252 115.548V100.711C315.252 98.9347 316.436 98.1577 318.249 98.1577C319.951 98.1577 321.061 99.0457 321.061 100.859V102.598C321.838 99.5267 323.577 98.2687 325.76 98.1947C327.425 98.1577 328.683 98.7127 328.831 100.378Z" fill="#B8C318"/>
<path d="M335.128 95.9007C333.093 95.9007 331.391 94.3467 331.391 92.3487C331.391 90.2767 333.056 88.7597 335.128 88.7597C337.237 88.7597 338.717 90.2397 338.717 92.3487C338.717 94.3837 337.2 95.9007 335.128 95.9007ZM335.054 118.508C332.982 118.508 331.909 117.435 331.909 115.437V101.599C331.909 99.6007 332.982 98.5277 335.054 98.5277C337.126 98.5277 338.199 99.6007 338.199 101.599V115.437C338.199 117.435 337.126 118.508 335.054 118.508Z" fill="#B8C318"/>
<path d="M357.479 113.106C358.478 112.366 359.551 112.44 360.254 113.254C360.957 114.031 360.994 115.104 360.217 115.955C359.033 117.287 356.147 118.508 352.484 118.508C346.675 118.508 342.198 115.585 342.198 108.777C342.198 102.228 346.046 98.1207 352.225 98.1207C358.293 98.1207 361.327 102.635 361.327 107.001C361.327 109.11 360.254 110.22 357.997 110.22H348.599C348.969 113.291 350.338 114.438 352.965 114.512C354.778 114.549 356.258 114.031 357.479 113.106ZM352.299 102.006C349.968 102.006 348.932 103.597 348.599 106.15H355.333C355.555 106.15 355.666 106.039 355.666 105.817C355.666 103.264 354.371 102.006 352.299 102.006Z" fill="#B8C318"/>
<path d="M363.765 113.365C364.394 112.588 365.43 112.44 366.392 113.032C367.502 113.698 369.093 114.364 370.721 114.364C372.349 114.364 373.126 113.957 373.126 112.995C373.126 112.07 372.719 111.441 369.537 110.035C365.763 108.37 363.802 106.816 363.802 103.782C363.802 100.452 367.021 98.1577 371.757 98.1577C374.939 98.1577 377.122 99.1567 378.195 100.082C379.046 100.822 379.194 101.932 378.565 102.783C377.936 103.634 376.567 103.856 375.531 103.116C374.643 102.487 373.459 102.265 372.09 102.265C370.684 102.265 369.981 102.783 369.981 103.56C369.981 104.448 370.721 104.892 373.459 106.15C377.788 108.111 379.49 109.739 379.49 112.662C379.49 116.658 375.716 118.508 371.757 118.508C368.945 118.508 365.652 117.805 364.061 116.214C363.173 115.326 363.025 114.253 363.765 113.365Z" fill="#B8C318"/>
</svg>
