<svg width="229" height="124" viewBox="0 0 229 124" fill="none" xmlns="http://www.w3.org/2000/svg">
<rect width="229" height="124" rx="60" fill="#B8C318"/>
<path d="M69.396 80.72C66.756 80.72 65.268 79.472 65.268 76.784V64.544H52.98V76.736C52.98 79.472 51.492 80.72 48.852 80.72C46.212 80.72 44.724 79.472 44.724 76.736V48.032C44.724 45.296 46.26 44.048 48.852 44.048C51.492 44.048 52.98 45.296 52.98 48.032V59.072H65.268V47.984C65.268 45.296 66.756 44.048 69.396 44.048C72.036 44.048 73.524 45.296 73.524 47.984V76.784C73.524 79.472 72.036 80.72 69.396 80.72ZM94.4809 80.768C85.9849 80.768 81.5209 75.68 81.5209 67.088C81.5209 59.312 86.8969 54.32 94.8169 54.32C102.641 54.32 107.633 59.264 107.681 67.088C107.729 75.872 102.641 80.768 94.4809 80.768ZM94.5769 75.44C97.8889 75.344 99.3289 72.944 99.3289 67.232C99.3289 62.048 97.9369 59.552 94.5769 59.6C91.3129 59.648 89.8249 62.096 89.8729 67.232C89.9209 72.656 91.1209 75.536 94.5769 75.44ZM144.933 54.32C150.741 54.32 154.149 57.68 154.149 63.488V76.832C154.149 79.376 152.757 80.72 150.117 80.72C147.477 80.72 146.085 79.376 146.085 76.832V63.392C146.085 60.944 144.933 59.504 143.061 59.504C141.237 59.504 139.797 60.704 138.885 62.96V76.832C138.885 79.376 137.493 80.72 134.901 80.72C132.261 80.72 130.869 79.376 130.869 76.832V63.536C130.869 60.992 129.717 59.6 127.797 59.6C125.925 59.6 124.197 61.376 123.429 63.968V76.736C123.429 79.328 121.989 80.72 119.349 80.72C116.709 80.72 115.269 79.328 115.269 76.736V58.208C115.269 55.712 116.757 54.368 119.205 54.368C121.509 54.368 122.997 55.568 122.997 57.968V58.496C124.197 55.76 127.029 54.32 130.197 54.32C133.557 54.32 136.101 55.616 137.541 57.92C139.221 55.616 141.765 54.32 144.933 54.32ZM123.045 66.272L123.093 65.744C123.045 65.888 123.045 66.08 123.045 66.272ZM181.098 73.712C182.394 72.752 183.786 72.848 184.698 73.904C185.61 74.912 185.658 76.304 184.65 77.408C183.114 79.136 179.37 80.72 174.618 80.72C167.082 80.72 161.274 76.928 161.274 68.096C161.274 59.6 166.266 54.272 174.282 54.272C182.154 54.272 186.09 60.128 186.09 65.792C186.09 68.528 184.698 69.968 181.77 69.968H169.578C170.058 73.952 171.834 75.44 175.242 75.536C177.594 75.584 179.514 74.912 181.098 73.712ZM174.378 59.312C171.354 59.312 170.01 61.376 169.578 64.688H178.314C178.602 64.688 178.746 64.544 178.746 64.256C178.746 60.944 177.066 59.312 174.378 59.312Z" fill="#FDFDFB"/>
</svg>
