<svg width="401" height="160" viewBox="0 0 401 160" fill="none" xmlns="http://www.w3.org/2000/svg">
<path d="M53.0914 43.1919C53.4214 43.1919 53.7514 43.1369 54.0814 43.1369C56.1714 40.4419 58.0964 37.4719 59.8014 34.5019C57.8764 35.1619 55.8964 35.7669 53.8614 36.1519C51.8264 36.5919 50.3414 35.6019 50.1764 33.5119C50.0114 31.4219 51.0564 30.2119 53.1464 30.3219H53.3664C55.0714 26.0319 56.1714 22.0169 56.9414 18.3869C57.3814 16.1319 59.1414 15.3619 61.1764 15.8569C63.0464 16.2419 63.9264 17.8369 63.3214 19.7069C62.3314 22.6769 59.7464 27.2419 57.3814 30.4319C58.8664 30.4319 60.4064 30.4319 61.9464 30.3769C62.7714 28.7269 63.4864 27.0769 64.1464 25.4819C64.9714 23.3919 66.6764 22.8419 68.4914 23.6119C70.3614 24.4369 71.0764 26.0869 69.9214 28.1219C67.1714 33.1819 63.2114 38.5169 58.8114 42.8069C60.7364 42.5869 62.7164 42.3669 64.5314 42.0919L63.8714 40.0569C63.5414 39.0119 63.8164 38.3519 64.5864 37.9119C65.3564 37.5269 66.0164 37.7469 66.6764 38.5719C68.2714 40.4419 69.7014 42.9719 70.8014 45.4469C71.5164 47.0969 70.9114 48.4719 69.2064 49.0219C67.5564 49.6269 66.4564 48.9119 66.0164 47.2619C65.8514 46.5469 65.6314 45.8869 65.4664 45.1719C61.7814 46.8769 57.7114 48.2519 53.9714 49.1869C51.8264 49.7369 50.2864 48.8019 50.0114 46.6569C49.7364 44.6219 50.6714 43.2469 53.0914 43.1919ZM98.3014 55.0169C100.116 56.4469 100.446 58.3719 98.8514 60.0219C97.2564 61.6169 95.4964 61.3969 93.9564 59.5819C91.9764 57.2169 89.6664 54.7419 87.3014 52.4869V61.3969C87.3014 67.5019 81.3614 69.2069 73.2214 65.3019C72.2864 64.8619 71.9564 64.0919 72.2314 63.1569C72.5614 62.2219 73.1664 61.8369 74.3214 62.0019C79.8214 62.7169 80.5914 62.3869 80.5914 59.6369V53.6969C78.6664 55.6769 76.3564 57.6019 73.9914 59.0319C72.1214 60.1319 70.5264 59.6919 69.7014 57.9319C68.8764 56.0619 69.6464 54.4669 71.5164 53.7519C74.4864 52.6519 77.4564 51.3319 80.5914 49.2969V38.6269H70.3064C69.0414 38.6269 68.3814 37.9119 68.3814 36.7019C68.3814 35.4919 69.0414 34.7769 70.3064 34.7769H84.7164L85.5414 31.6419H77.5664C76.9614 33.5119 75.5314 34.2819 73.5514 33.7869C71.6814 33.3469 71.1314 32.1919 71.6814 30.3769C72.9464 26.4169 74.1564 21.3569 74.9264 18.0569C75.2564 16.4069 76.7964 15.7469 78.5014 15.9669C80.2614 16.2969 81.1964 17.4519 80.8114 19.1019C80.7564 19.2669 80.7564 19.4319 80.7014 19.5969H87.4664C88.2364 18.3319 89.7764 17.7819 91.5364 18.1669C93.4614 18.6069 94.4514 19.9819 93.8464 22.6769C93.1864 25.7019 91.8114 30.8719 90.6564 34.7769H97.3664C98.6314 34.7769 99.2914 35.4919 99.2914 36.7019C99.2914 37.9119 98.6314 38.6269 97.3664 38.6269H87.3014V48.1419C87.3564 48.1419 87.3564 48.1969 87.4114 48.1969C89.0064 46.2169 90.4364 43.8519 91.7014 41.4869C92.6364 39.7819 94.2864 39.2869 95.8814 40.3869C97.5864 41.4869 97.7514 43.1369 96.3764 44.6769C94.5614 46.6569 92.4164 48.4719 90.4914 49.7369C93.3514 51.3319 96.0464 53.1469 98.3014 55.0169ZM78.6664 27.9019H86.4764C86.8614 26.4169 87.1914 25.0419 87.4114 24.1069C87.5214 23.6669 87.2464 23.3919 86.8064 23.3919H79.8214C79.4914 24.8769 79.0514 26.4169 78.6664 27.9019ZM73.9364 48.1969C73.0014 46.2719 71.9564 44.2919 71.0214 42.6969C70.4714 41.8169 70.5814 41.0469 71.2414 40.4419C71.9014 39.8919 72.7264 40.0019 73.4964 40.5519C75.3114 41.9269 77.0164 43.6319 78.5014 45.4469C79.5464 46.8219 79.2714 48.3619 77.8414 49.2969C76.3564 50.2869 74.6514 49.8469 73.9364 48.1969ZM65.0264 49.2419C66.7314 51.5519 68.4914 54.7969 69.5364 57.7669C70.2514 59.5819 69.7014 60.7369 67.9964 61.3419C66.3464 61.8919 65.1364 61.2319 64.7514 59.5269C64.0914 56.3369 63.1564 53.1469 62.2214 50.5619C61.8914 49.5719 62.1664 48.8569 62.9914 48.4719C63.8164 48.1419 64.4214 48.4719 65.0264 49.2419ZM60.6814 50.9469C61.8914 54.1369 62.9364 58.2069 63.5414 61.5619C63.8714 63.4869 63.1014 64.5869 61.1764 64.8069C59.2514 65.0269 58.1514 64.1469 58.1514 62.1119C58.1514 58.6469 57.9864 54.6319 57.6564 51.5519C57.6014 50.5619 57.9864 49.9019 58.8664 49.7369C59.7464 49.5169 60.3514 50.0119 60.6814 50.9469ZM54.5764 50.2319C55.4564 50.2869 56.0064 51.0019 56.0614 52.2669C56.2814 56.3369 56.1714 60.5169 55.7864 63.9819C55.5664 66.1269 53.9164 67.0619 51.7714 66.4569C49.7364 65.8519 49.2964 64.3669 50.0114 62.4969C51.2764 59.3069 52.1014 55.7869 52.7614 51.7719C52.9264 50.6719 53.6414 50.1769 54.5764 50.2319Z" fill="#594A39"/>
<path d="M161.936 51.2769C163.916 63.8719 162.046 65.4669 154.181 65.7419C145.051 66.0719 137.351 66.0719 129.266 65.7969C120.851 65.4669 118.926 63.9269 118.926 56.7769V37.8019C117.716 38.7369 116.506 39.5619 115.296 40.2769C114.196 40.9369 113.206 40.7719 112.601 39.7819C111.996 38.8469 112.161 37.9669 113.151 37.0869C119.311 31.8069 123.381 24.8219 125.966 18.0019C126.901 15.5819 128.936 15.0319 131.191 15.8569C133.446 16.7919 133.886 18.7719 132.731 21.1369L132.566 21.5219H141.091C142.466 20.1469 144.886 19.8719 146.591 20.8619C148.516 21.8519 149.286 23.9419 147.691 26.4719C146.536 28.2319 144.941 30.0469 143.456 31.5319H153.136C155.171 31.5319 156.326 32.6869 156.326 34.7219V45.8319C156.326 47.9769 155.336 49.0219 152.971 49.0219H125.911V54.7969C125.911 58.8669 126.681 59.3069 132.016 59.5269C138.341 59.8019 146.481 59.8019 152.751 59.4719C157.646 59.2519 158.086 58.5919 158.086 51.5519C158.086 50.2869 158.801 49.5169 159.846 49.5169C160.946 49.5169 161.716 50.0119 161.936 51.2769ZM130.091 25.8119C128.771 27.7919 127.286 29.7169 125.636 31.5319H138.121C139.111 29.8269 139.991 28.1769 140.651 26.5819C140.816 26.0869 140.596 25.8119 140.156 25.8119H130.091ZM134.656 44.7869V35.7669H126.571C126.186 35.7669 125.911 36.0419 125.911 36.4269V44.7869H134.656ZM149.671 36.4269C149.671 36.0419 149.396 35.7669 149.011 35.7669H141.311V44.7869H148.846C149.396 44.7869 149.671 44.5669 149.671 44.0169V36.4269Z" fill="#594A39"/>
<path d="M190.481 19.7069C189.876 22.5119 189.051 25.3169 188.061 27.9569V64.5319C188.061 66.4569 186.906 67.5019 184.761 67.5019C182.616 67.5019 181.406 66.4569 181.406 64.5319V40.8819C180.306 42.4769 179.206 43.8519 178.106 45.0069C177.281 45.8869 176.401 45.8869 175.686 45.1719C174.971 44.5119 174.971 43.6869 175.521 42.8069C179.151 36.8119 181.956 28.6169 183.441 18.6069C183.771 16.1869 185.421 15.3619 187.676 15.7469C189.821 16.0769 190.866 17.7819 190.481 19.7069ZM191.141 35.4919C189.931 35.4919 189.271 34.8319 189.271 33.6219C189.271 32.4669 189.931 31.8069 191.141 31.8069H203.351V29.6069H194.881C193.671 29.6069 193.011 28.9469 193.011 27.7919C193.011 26.6369 193.671 25.9769 194.881 25.9769H203.351V23.9969H193.066C191.856 23.9969 191.196 23.3369 191.196 22.1269C191.196 20.9719 191.856 20.3119 193.066 20.3119H203.351V18.8269C203.351 16.7369 204.616 15.6919 206.871 15.6919C209.071 15.6919 210.336 16.7369 210.336 18.8269V20.3119H220.786C221.996 20.3119 222.656 20.9719 222.656 22.1269C222.656 23.3369 221.996 23.9969 220.786 23.9969H210.336V25.9769H218.971C220.126 25.9769 220.786 26.6369 220.786 27.7919C220.786 28.9469 220.126 29.6069 218.971 29.6069H210.336V31.8069H222.876C224.086 31.8069 224.746 32.4669 224.746 33.6219C224.746 34.8319 224.086 35.4919 222.876 35.4919H191.141ZM223.261 61.4519C225.131 62.2769 225.516 63.9269 224.526 65.8519C223.591 67.5569 221.886 67.8869 220.236 66.7869C217.046 64.7519 213.581 62.7719 210.061 61.1219C209.071 60.6269 208.796 59.7469 209.126 58.9219C209.236 58.5369 209.456 58.2619 209.676 58.0969H204.121C204.286 58.2069 204.396 58.3719 204.561 58.5369C205.826 60.0219 205.496 61.7819 203.791 62.7719C200.381 64.9169 195.816 66.5669 191.911 67.3919C190.866 67.5569 190.151 67.1169 189.821 66.1819C189.546 65.3019 189.821 64.4769 190.921 64.0369C194.276 62.6619 197.246 60.9569 200.216 58.2619C200.271 58.2069 200.326 58.1519 200.436 58.0969H196.091C194.056 58.0969 192.901 56.9969 192.901 54.9069V40.9369C192.901 38.9019 194.056 37.7469 196.091 37.7469H217.596C219.631 37.7469 220.786 38.9019 220.786 40.9369V54.9069C220.786 56.9969 219.631 58.0969 217.596 58.0969H212.481C215.726 58.7019 219.851 59.8569 223.261 61.4519ZM199.446 42.2019V43.4669H214.186V42.2019C214.186 41.8169 213.911 41.5419 213.526 41.5419H200.106C199.721 41.5419 199.446 41.8169 199.446 42.2019ZM199.446 46.8769V48.8569H214.186V46.8769H199.446ZM199.446 53.6969C199.446 54.0819 199.721 54.3569 200.106 54.3569H213.526C213.911 54.3569 214.186 54.0819 214.186 53.6969V52.2669H199.446V53.6969Z" fill="#594A39"/>
<path d="M284.916 47.4269C287.611 48.3619 288.546 49.8469 287.831 52.2119C287.006 54.7419 284.696 55.5119 282.386 54.3019C280.516 53.3119 278.646 52.1019 276.941 50.6169C276.556 55.9519 276.061 59.9119 275.621 62.4419C274.686 67.3369 269.901 69.1519 260.771 64.9719C259.836 64.5869 259.561 63.8169 259.836 62.9369C260.111 62.0569 260.826 61.6169 261.926 61.7819C268.251 62.6619 268.911 62.1669 269.351 59.4719C269.626 57.3819 270.066 53.5319 270.341 49.4619C270.341 49.0219 270.176 48.7469 269.736 48.7469H263.136C260.991 58.5919 253.181 65.4119 241.796 67.5569C240.641 67.7769 239.816 67.2819 239.541 66.2919C239.266 65.3019 239.706 64.6419 240.916 64.1469C250.431 60.6269 254.886 55.5669 256.261 48.7469H252.411C251.641 48.7469 251.036 48.4719 250.706 48.0319C247.736 50.5069 244.381 52.5969 240.531 54.1919C239.376 54.6319 238.496 54.3019 238.056 53.3669C237.616 52.4319 237.891 51.5519 238.991 50.8369C244.051 47.8669 248.066 44.2369 251.146 39.8919H241.026C239.761 39.8919 239.046 39.1219 239.046 37.8019C239.046 36.4819 239.761 35.7669 241.026 35.7669H253.621C254.226 34.6119 254.776 33.4569 255.271 32.2469H244.491C243.226 32.2469 242.511 31.4769 242.511 30.2119C242.511 28.9469 243.226 28.2869 244.491 28.2869H256.646C257.581 25.2619 258.241 22.0169 258.626 18.5519C258.846 16.5169 260.166 15.3619 262.751 15.5269C265.061 15.6919 266.161 17.1219 265.831 19.4319C265.391 22.4569 264.676 25.4269 263.741 28.2869H269.296L269.076 28.1219C268.361 27.5169 268.306 26.7469 268.801 25.8119C270.066 23.7219 271.221 21.3569 272.156 18.7719C273.036 16.4619 274.741 15.8569 276.831 16.8469C278.921 17.9469 279.141 19.9819 277.601 22.0719C275.511 24.8769 273.366 26.9669 271.441 28.2319L271.386 28.2869H280.901C282.166 28.2869 282.881 28.9469 282.881 30.2119C282.881 31.5319 282.166 32.2469 280.901 32.2469H262.256C261.761 33.4569 261.211 34.6119 260.606 35.7669H284.696C285.961 35.7669 286.676 36.4819 286.676 37.8019C286.676 39.1219 285.961 39.8919 284.696 39.8919H272.541C275.676 43.1919 279.911 45.7219 284.916 47.4269ZM249.056 26.1969C248.176 23.7219 247.131 21.5219 246.031 19.3219C245.481 18.2769 245.701 17.5069 246.526 16.8469C247.351 16.2419 248.286 16.4069 249.111 17.1219C250.926 18.6069 252.851 20.6969 254.391 23.0619C255.601 24.8769 255.216 26.4169 253.236 27.5719C251.531 28.5619 249.771 28.0119 249.056 26.1969ZM254.171 44.7869H271.606C270.506 43.2469 269.516 41.5969 268.746 39.8919H258.076C256.921 41.5969 255.601 43.2469 254.171 44.7869Z" fill="#594A39"/>
<path d="M302.846 53.9719C301.471 53.9719 300.756 53.2019 300.756 51.8269C300.756 50.3969 301.471 49.6819 302.846 49.6819H305.486C305.266 41.5419 304.936 31.5869 304.441 23.2269C304.276 21.0819 305.431 19.9819 307.466 19.8719C308.401 19.8169 309.171 19.9819 309.666 20.4219C311.041 19.4869 312.306 18.3869 313.571 17.1219C315.001 15.7469 316.926 15.8019 318.081 17.3419C319.346 18.9919 318.961 20.6419 317.091 21.6869C315.056 22.8419 312.911 23.6119 310.821 24.1069C310.931 25.6469 310.986 27.3519 311.041 29.0569H315.166C316.431 29.0569 317.201 29.7719 317.201 30.9819C317.201 32.2469 316.431 33.0169 315.166 33.0169H311.206C311.261 34.7769 311.316 36.5919 311.426 38.4069H315.276C316.541 38.4069 317.256 39.1219 317.256 40.3319C317.256 41.5969 316.486 42.3669 315.276 42.3669H311.536L311.701 49.6819H317.476C318.026 46.1069 318.411 42.8619 318.686 39.2319C318.851 37.4719 319.951 36.7569 321.656 36.8669C323.416 37.0319 324.241 37.9119 324.076 39.5619C323.801 43.1919 323.361 46.4369 322.866 49.6819H326.111C326.606 45.0069 327.046 39.8919 327.266 35.5469C327.266 35.1069 327.101 34.8869 326.606 34.8869H321.656C319.511 34.8869 318.466 33.6219 318.741 31.4219C319.401 26.4719 319.841 21.8519 320.171 18.3319C320.336 16.3519 321.491 15.5819 323.416 15.7469C325.286 15.8569 326.111 16.7919 325.946 18.5519C325.836 19.8169 325.671 21.1919 325.561 22.6219H331.886C333.151 22.6219 333.866 23.3369 333.866 24.5469C333.866 25.7569 333.151 26.4719 331.886 26.4719H325.176C325.011 27.7919 324.846 29.1119 324.736 30.3219C324.681 30.7619 324.901 31.0369 325.341 31.0369H330.071C332.216 31.0369 333.261 32.1919 333.151 34.3369C332.876 39.5619 332.381 44.8969 331.831 49.6819H338.926C339.091 47.3169 339.311 44.9519 339.476 42.5869H335.846C334.581 42.5869 333.811 41.8169 333.811 40.6069C333.811 39.3419 334.581 38.6269 335.846 38.6269H339.751C339.861 36.7569 339.971 34.8869 340.136 33.0169H335.791C334.526 33.0169 333.811 32.3019 333.811 31.0369C333.811 29.7719 334.526 29.0569 335.791 29.0569H340.356C340.466 27.1869 340.521 25.2619 340.631 23.3919C340.631 22.9519 340.466 22.7319 340.026 22.7319H335.296C334.086 22.7319 333.316 21.9619 333.316 20.7519C333.316 19.5419 334.086 18.7719 335.296 18.7719H343.601C345.746 18.7719 346.846 19.9269 346.736 22.0719C346.351 31.3119 345.746 40.4419 345.086 49.6819H348.111C349.431 49.6819 350.146 50.3969 350.146 51.8269C350.146 53.2019 349.431 53.9719 348.111 53.9719H302.846ZM316.981 54.8519C318.356 53.6419 320.556 53.6419 321.931 55.3469C323.306 57.0519 322.976 59.0869 321.161 60.2419C315.606 63.7619 308.841 66.3469 302.956 67.5569C301.636 67.7769 300.976 67.2819 300.756 66.3469C300.481 65.4119 300.811 64.5869 302.021 64.1469C307.136 62.1669 312.361 58.9219 316.981 54.8519ZM347.946 60.4069C350.201 61.5069 350.971 63.3769 349.816 65.5219C348.606 67.8319 346.351 68.1619 344.206 66.6219C339.806 63.3769 334.801 60.5719 330.016 58.1519C328.916 57.6019 328.641 56.5019 329.081 55.4569C329.466 54.4669 330.291 54.1369 331.666 54.4669C336.891 55.7319 342.556 57.6569 347.946 60.4069Z" fill="#594A39"/>
<path d="M97.7514 136.472C99.7864 137.792 100.501 139.827 99.1814 142.082C97.7514 144.392 95.4414 144.557 93.4614 143.182C86.6964 138.507 78.8314 126.902 76.5214 114.362C75.5864 118.597 74.2114 122.502 72.3964 126.022C72.5614 126.132 72.7264 126.242 72.8914 126.407C75.6414 128.717 78.6664 131.852 81.4164 135.647C82.7914 137.462 82.5714 139.552 80.4264 140.817C78.3914 142.027 76.3564 141.532 75.4764 139.332C73.9364 135.537 72.1214 131.907 70.5814 129.267C66.2914 135.922 60.2964 140.982 52.6514 144.117C51.4964 144.612 50.6164 144.337 50.1764 143.292C49.6814 142.357 50.0114 141.422 51.0014 140.762C61.2864 134.217 67.7764 125.252 69.8664 112.217H53.3664C51.9914 112.217 51.1664 111.337 51.1664 109.852C51.1664 108.312 51.9914 107.487 53.3664 107.487H70.4164C70.4714 106.992 70.4714 106.442 70.5264 105.947C70.6914 102.042 70.8014 98.9069 70.8014 96.2119C70.8014 93.8469 72.1764 92.6919 74.4864 92.6919C76.8514 92.6919 78.0614 93.8469 78.1164 96.2119C78.1164 99.5119 78.0064 103.032 77.6764 106.497C77.6764 106.827 77.6214 107.157 77.5664 107.487H96.1564C97.5864 107.487 98.3564 108.312 98.3564 109.852C98.3564 111.337 97.5864 112.217 96.1564 112.217H79.4364C82.5714 122.447 89.1714 130.752 97.7514 136.472Z" fill="#594A39"/>
<path d="M160.176 118.597H142.741C142.301 119.532 141.861 120.412 141.366 121.292H157.206C159.241 121.292 160.396 122.447 160.341 124.592C160.286 129.542 159.846 135.867 159.296 139.277C158.471 144.557 152.806 145.712 146.041 142.302C144.941 141.752 144.611 140.927 145.051 139.882C145.381 139.002 145.986 138.672 147.196 138.892C152.201 139.717 153.026 139.387 153.301 137.572C153.741 134.547 154.126 129.487 154.236 125.912C154.236 125.472 153.961 125.252 153.576 125.252H152.971C150.276 134.162 143.346 140.707 134.711 143.732C133.501 144.117 132.621 143.787 132.236 142.852C131.796 141.917 132.016 140.982 133.226 140.377C139.276 137.297 144.831 132.292 147.306 125.252H145.491C142.796 131.247 137.186 136.087 131.686 138.287C130.586 138.727 129.761 138.507 129.321 137.517C128.936 136.637 129.046 135.812 130.146 135.207C134.216 132.842 137.791 129.487 139.881 125.252H138.451C136.581 127.397 134.381 129.157 132.071 130.367C131.576 130.642 131.136 130.697 130.751 130.587C128.881 133.887 124.426 133.997 121.071 131.962C121.071 131.962 121.016 131.962 121.016 131.907V141.697C121.016 143.457 119.916 144.502 117.881 144.502C115.846 144.502 114.746 143.457 114.746 141.697V96.9269C114.746 95.1119 115.846 94.0669 117.881 94.0669C119.311 94.0669 120.301 94.6169 120.741 95.5519H125.416C126.406 94.4519 128.111 94.0119 129.761 94.6719C131.466 95.2769 132.346 96.9269 131.576 99.6219C130.201 104.407 128.111 108.862 126.131 111.997C125.911 112.382 125.966 112.602 126.241 112.932C129.651 116.727 131.576 121.622 131.686 126.352C133.831 124.207 135.481 121.402 136.526 118.597H132.511C131.246 118.597 130.531 117.882 130.531 116.617C130.531 115.407 131.246 114.692 132.511 114.692H160.176C161.441 114.692 162.156 115.407 162.156 116.617C162.156 117.882 161.441 118.597 160.176 118.597ZM137.681 112.382C135.646 112.382 134.491 111.227 134.491 109.192V97.9719C134.491 95.9369 135.646 94.7819 137.681 94.7819H154.456C156.491 94.7819 157.646 95.9369 157.646 97.9719V109.192C157.646 111.227 156.491 112.382 154.456 112.382H137.681ZM141.476 98.6319C141.091 98.6319 140.816 98.9069 140.816 99.2919V101.712H151.321V99.2919C151.321 98.9069 151.046 98.6319 150.661 98.6319H141.476ZM126.241 125.967C126.296 122.887 125.471 118.377 123.381 114.527C122.611 113.042 122.501 112.107 122.941 110.622C124.041 107.102 124.976 103.582 125.471 100.117C125.526 99.6769 125.251 99.4019 124.811 99.4019H121.016V128.882C121.346 128.717 121.731 128.717 122.336 128.772C125.361 129.267 126.241 128.992 126.241 125.967ZM150.661 108.532C151.046 108.532 151.321 108.257 151.321 107.872V105.397H140.816V107.872C140.816 108.257 141.091 108.532 141.476 108.532H150.661Z" fill="#594A39"/>
<path d="M195.266 100.062C197.411 102.262 199.391 105.067 200.766 107.927C201.701 109.852 201.261 111.337 199.336 112.162C197.521 113.042 196.146 112.327 195.431 110.182C195.266 109.632 195.046 109.082 194.826 108.477C190.481 110.292 184.651 111.722 179.426 112.272C177.281 112.547 175.906 111.612 175.741 109.522C175.576 107.487 176.566 106.222 178.876 106.222H179.976C181.406 102.977 182.781 99.0169 183.771 95.5519C184.486 93.0219 186.081 92.3069 188.446 92.9669C190.591 93.5719 191.141 95.2769 190.096 97.6419C188.831 100.447 186.906 103.472 184.871 106.002C187.896 105.837 190.866 105.507 193.616 105.122L192.296 101.877C191.856 100.832 192.076 100.117 192.901 99.5669C193.781 99.0719 194.496 99.2919 195.266 100.062ZM209.401 116.947C203.736 116.617 202.251 115.627 202.251 109.797V95.9369C202.251 94.0669 203.406 93.0219 205.496 93.0219C207.586 93.0219 208.741 94.0669 208.741 95.9369V101.987C211.216 100.612 213.691 98.9069 216.056 96.9269C217.761 95.4419 219.576 95.3869 220.951 96.9819C222.326 98.6869 222.051 100.392 219.851 101.712C216.716 103.637 212.756 105.122 208.741 106.112V108.532C208.741 110.567 209.181 111.117 211.216 111.227C213.141 111.337 215.891 111.337 217.651 111.227C219.851 111.117 220.181 110.292 220.181 106.112C220.181 104.902 220.786 104.352 221.666 104.352C222.656 104.352 223.261 104.847 223.481 106.002C224.911 113.317 223.976 116.672 218.916 116.947C216.001 117.112 212.481 117.112 209.401 116.947ZM196.091 113.702C198.126 113.702 199.281 114.802 199.281 116.892V138.562C199.281 143.567 194.661 145.327 188.171 142.852C187.016 142.412 186.576 141.697 186.851 140.707C187.071 139.772 187.676 139.442 188.831 139.497C192.406 139.772 192.791 139.332 192.791 137.077V132.402H184.541V141.202C184.541 143.127 183.386 144.117 181.296 144.117C179.206 144.117 178.106 143.127 178.106 141.202V116.892C178.106 114.802 179.206 113.702 181.296 113.702H196.091ZM185.201 117.442C184.816 117.442 184.541 117.717 184.541 118.102V121.182H192.791V118.102C192.791 117.717 192.516 117.442 192.131 117.442H185.201ZM224.306 131.137C225.956 139.607 224.911 143.127 219.796 143.402C216.881 143.567 212.646 143.567 209.621 143.402C203.901 143.072 202.251 142.082 202.251 136.252V121.622C202.251 119.697 203.406 118.707 205.496 118.707C207.586 118.707 208.741 119.697 208.741 121.622V126.792C211.326 125.362 213.911 123.547 216.441 121.292C218.201 119.752 220.016 119.642 221.391 121.292C222.821 122.942 222.601 124.812 220.456 126.132C217.101 128.222 213.031 129.927 208.741 130.917V134.712C208.741 136.692 209.181 137.242 211.216 137.352C213.141 137.462 216.606 137.462 218.366 137.352C220.566 137.242 220.841 136.362 220.841 131.192C220.841 129.982 221.446 129.377 222.436 129.377C223.481 129.377 224.086 129.982 224.306 131.137ZM184.541 128.717H192.791V124.867H184.541V128.717Z" fill="#594A39"/>
<path d="M284.971 128.662C287.391 129.597 288.106 131.302 287.226 133.337C286.291 135.482 284.476 135.812 282.276 134.877C279.911 133.887 277.656 132.512 275.621 130.752V131.137C275.621 132.457 274.906 133.172 273.641 133.172H266.271V138.287H283.431C284.696 138.287 285.411 139.057 285.411 140.322C285.411 141.587 284.696 142.357 283.431 142.357H242.456C241.191 142.357 240.476 141.587 240.476 140.322C240.476 139.057 241.191 138.287 242.456 138.287H259.231V133.172H251.861C250.651 133.172 249.936 132.402 249.936 131.192C249.936 131.027 249.936 130.862 249.991 130.697C246.911 132.842 243.501 134.547 240.201 135.482C239.156 135.812 238.331 135.592 237.946 134.657C237.561 133.722 237.836 132.952 238.881 132.457C243.886 129.872 248.396 126.242 251.146 121.402H240.806C239.541 121.402 238.881 120.742 238.881 119.477C238.881 118.157 239.541 117.497 240.806 117.497H249.771V102.152H243.171C241.961 102.152 241.246 101.382 241.246 100.172C241.246 99.0169 241.961 98.2469 243.171 98.2469H249.771V95.4969C249.771 93.4619 250.926 92.5269 253.071 92.5269C255.161 92.5269 256.316 93.4619 256.316 95.4969V98.2469H269.076V95.4419C269.076 93.4619 270.231 92.4719 272.376 92.4719C274.466 92.4719 275.621 93.4619 275.621 95.4419V98.2469H282.331C283.541 98.2469 284.256 99.0169 284.256 100.172C284.256 101.437 283.541 102.152 282.331 102.152H275.621V117.497H284.861C286.126 117.497 286.786 118.212 286.786 119.477C286.786 120.742 286.126 121.402 284.861 121.402H272.266C275.676 124.427 279.911 126.902 284.971 128.662ZM256.316 102.152V104.792H269.076V102.152H256.316ZM256.316 108.477V111.117H269.076V108.477H256.316ZM256.316 114.747V117.497H269.076V114.747H256.316ZM273.861 129.212C271.496 126.957 269.461 124.262 267.866 121.402H258.681C257.031 124.317 254.666 126.957 251.916 129.212H259.231V126.187C259.231 123.987 260.496 122.942 262.751 122.942C265.006 122.942 266.271 123.987 266.271 126.187V129.212H273.861Z" fill="#594A39"/>
<path d="M347.616 108.972C350.091 109.852 350.861 111.887 349.981 114.032C349.101 116.397 347.011 117.057 344.646 116.012C342.501 115.077 340.356 113.812 338.266 112.327C338.046 113.207 337.276 113.812 336.286 113.812H329.136V119.642H344.206C345.581 119.642 346.296 120.412 346.296 121.787C346.296 123.162 345.581 123.877 344.206 123.877H329.136V138.562H346.571C347.891 138.562 348.661 139.332 348.661 140.652C348.661 141.972 347.891 142.797 346.571 142.797H304.386C303.066 142.797 302.296 142.027 302.296 140.652C302.296 139.332 303.066 138.562 304.386 138.562H321.876V123.877H306.861C305.541 123.877 304.771 123.107 304.771 121.732C304.771 120.357 305.541 119.642 306.861 119.642H321.876V113.812H314.781C313.901 113.812 313.241 113.372 312.966 112.712C309.611 114.692 306.201 116.232 303.066 117.332C301.911 117.662 301.031 117.222 300.646 116.232C300.261 115.297 300.536 114.472 301.581 113.867C309.006 109.797 316.871 103.582 322.536 94.0669C323.581 92.3069 325.396 91.7569 327.486 92.9119C329.356 93.8469 330.071 95.7719 328.916 97.8069C333.976 102.592 340.246 106.332 347.616 108.972ZM317.421 109.742H334.911C331.721 107.102 328.861 104.022 326.716 100.942C324.076 104.242 320.831 107.212 317.421 109.742ZM317.146 137.242C315.166 138.342 313.296 137.792 312.471 135.812C311.316 133.007 309.886 130.037 308.566 127.507C308.016 126.407 308.236 125.637 309.061 124.977C309.886 124.317 310.876 124.317 311.756 125.142C314.011 127.177 316.651 130.147 318.191 132.567C319.456 134.492 318.961 136.142 317.146 137.242ZM336.616 126.517C337.386 124.592 339.256 124.152 341.071 125.087C342.886 126.022 343.546 127.892 342.556 129.432C340.521 132.677 338.101 135.317 335.626 137.352C334.746 138.067 333.536 138.012 332.766 137.297C332.051 136.582 331.831 135.757 332.436 134.767C333.866 132.457 335.296 129.542 336.616 126.517Z" fill="#594A39"/>
</svg>
