<svg width="400" height="161" viewBox="0 0 400 161" fill="none" xmlns="http://www.w3.org/2000/svg">
<path d="M84.4158 44.1253C84.7458 44.1253 85.0758 44.0703 85.4058 44.0703C87.4958 41.3753 89.4208 38.4053 91.1258 35.4353C89.2008 36.0953 87.2208 36.7003 85.1858 37.0853C83.1508 37.5253 81.6658 36.5353 81.5008 34.4453C81.3358 32.3553 82.3808 31.1453 84.4708 31.2553H84.6908C86.3958 26.9653 87.4958 22.9503 88.2658 19.3203C88.7058 17.0653 90.4658 16.2953 92.5008 16.7903C94.3708 17.1753 95.2508 18.7703 94.6458 20.6403C93.6558 23.6103 91.0708 28.1753 88.7058 31.3653C90.1908 31.3653 91.7308 31.3653 93.2708 31.3103C94.0958 29.6603 94.8108 28.0103 95.4708 26.4153C96.2958 24.3253 98.0008 23.7753 99.8158 24.5453C101.686 25.3703 102.401 27.0203 101.246 29.0553C98.4958 34.1153 94.5358 39.4503 90.1358 43.7403C92.0608 43.5203 94.0408 43.3003 95.8558 43.0253L95.1958 40.9903C94.8658 39.9453 95.1408 39.2853 95.9108 38.8453C96.6808 38.4603 97.3408 38.6803 98.0008 39.5053C99.5958 41.3753 101.026 43.9053 102.126 46.3803C102.841 48.0303 102.236 49.4053 100.531 49.9553C98.8808 50.5603 97.7808 49.8453 97.3408 48.1953C97.1758 47.4803 96.9558 46.8203 96.7908 46.1053C93.1058 47.8103 89.0358 49.1853 85.2958 50.1203C83.1508 50.6703 81.6108 49.7353 81.3358 47.5903C81.0608 45.5553 81.9958 44.1803 84.4158 44.1253ZM129.626 55.9503C131.441 57.3803 131.771 59.3053 130.176 60.9553C128.581 62.5503 126.821 62.3303 125.281 60.5153C123.301 58.1503 120.991 55.6753 118.626 53.4203V62.3303C118.626 68.4353 112.686 70.1403 104.546 66.2353C103.611 65.7953 103.281 65.0253 103.556 64.0903C103.886 63.1553 104.491 62.7703 105.646 62.9353C111.146 63.6503 111.916 63.3203 111.916 60.5703V54.6303C109.991 56.6103 107.681 58.5353 105.316 59.9653C103.446 61.0653 101.851 60.6253 101.026 58.8653C100.201 56.9953 100.971 55.4003 102.841 54.6853C105.811 53.5853 108.781 52.2653 111.916 50.2303V39.5603H101.631C100.366 39.5603 99.7058 38.8453 99.7058 37.6353C99.7058 36.4253 100.366 35.7103 101.631 35.7103H116.041L116.866 32.5753H108.891C108.286 34.4453 106.856 35.2153 104.876 34.7203C103.006 34.2803 102.456 33.1253 103.006 31.3103C104.271 27.3503 105.481 22.2903 106.251 18.9903C106.581 17.3403 108.121 16.6803 109.826 16.9003C111.586 17.2303 112.521 18.3853 112.136 20.0353C112.081 20.2003 112.081 20.3653 112.026 20.5303H118.791C119.561 19.2653 121.101 18.7153 122.861 19.1003C124.786 19.5403 125.776 20.9153 125.171 23.6103C124.511 26.6353 123.136 31.8053 121.981 35.7103H128.691C129.956 35.7103 130.616 36.4253 130.616 37.6353C130.616 38.8453 129.956 39.5603 128.691 39.5603H118.626V49.0753C118.681 49.0753 118.681 49.1303 118.736 49.1303C120.331 47.1503 121.761 44.7853 123.026 42.4203C123.961 40.7153 125.611 40.2203 127.206 41.3203C128.911 42.4203 129.076 44.0703 127.701 45.6103C125.886 47.5903 123.741 49.4053 121.816 50.6703C124.676 52.2653 127.371 54.0803 129.626 55.9503ZM109.991 28.8353H117.801C118.186 27.3503 118.516 25.9753 118.736 25.0403C118.846 24.6003 118.571 24.3253 118.131 24.3253H111.146C110.816 25.8103 110.376 27.3503 109.991 28.8353ZM105.261 49.1303C104.326 47.2053 103.281 45.2253 102.346 43.6303C101.796 42.7503 101.906 41.9803 102.566 41.3753C103.226 40.8253 104.051 40.9353 104.821 41.4853C106.636 42.8603 108.341 44.5653 109.826 46.3803C110.871 47.7553 110.596 49.2953 109.166 50.2303C107.681 51.2203 105.976 50.7803 105.261 49.1303ZM96.3508 50.1753C98.0558 52.4853 99.8158 55.7303 100.861 58.7003C101.576 60.5153 101.026 61.6703 99.3208 62.2753C97.6708 62.8253 96.4608 62.1653 96.0758 60.4603C95.4158 57.2703 94.4808 54.0803 93.5458 51.4953C93.2158 50.5053 93.4908 49.7903 94.3158 49.4053C95.1408 49.0753 95.7458 49.4053 96.3508 50.1753ZM92.0058 51.8803C93.2158 55.0703 94.2608 59.1403 94.8658 62.4953C95.1958 64.4203 94.4258 65.5203 92.5008 65.7403C90.5758 65.9603 89.4758 65.0803 89.4758 63.0453C89.4758 59.5803 89.3108 55.5653 88.9808 52.4853C88.9258 51.4953 89.3108 50.8353 90.1908 50.6703C91.0708 50.4503 91.6758 50.9453 92.0058 51.8803ZM85.9008 51.1653C86.7808 51.2203 87.3308 51.9353 87.3858 53.2003C87.6058 57.2703 87.4958 61.4503 87.1108 64.9153C86.8908 67.0603 85.2408 67.9953 83.0958 67.3903C81.0608 66.7853 80.6208 65.3003 81.3358 63.4303C82.6008 60.2403 83.4258 56.7203 84.0858 52.7053C84.2508 51.6053 84.9658 51.1103 85.9008 51.1653Z" fill="#594A39"/>
<path d="M193.261 52.2103C195.241 64.8053 193.371 66.4003 185.506 66.6753C176.376 67.0053 168.676 67.0053 160.591 66.7303C152.176 66.4003 150.251 64.8603 150.251 57.7103V38.7353C149.041 39.6703 147.831 40.4953 146.621 41.2103C145.521 41.8703 144.531 41.7053 143.926 40.7153C143.321 39.7803 143.486 38.9003 144.476 38.0203C150.636 32.7403 154.706 25.7553 157.291 18.9353C158.226 16.5153 160.261 15.9653 162.516 16.7903C164.771 17.7253 165.211 19.7053 164.056 22.0703L163.891 22.4553H172.416C173.791 21.0803 176.211 20.8053 177.916 21.7953C179.841 22.7853 180.611 24.8753 179.016 27.4053C177.861 29.1653 176.266 30.9803 174.781 32.4653H184.461C186.496 32.4653 187.651 33.6203 187.651 35.6553V46.7653C187.651 48.9103 186.661 49.9553 184.296 49.9553H157.236V55.7303C157.236 59.8003 158.006 60.2403 163.341 60.4603C169.666 60.7353 177.806 60.7353 184.076 60.4053C188.971 60.1853 189.411 59.5253 189.411 52.4853C189.411 51.2203 190.126 50.4503 191.171 50.4503C192.271 50.4503 193.041 50.9453 193.261 52.2103ZM161.416 26.7453C160.096 28.7253 158.611 30.6503 156.961 32.4653H169.446C170.436 30.7603 171.316 29.1103 171.976 27.5153C172.141 27.0203 171.921 26.7453 171.481 26.7453H161.416ZM165.981 45.7203V36.7003H157.896C157.511 36.7003 157.236 36.9753 157.236 37.3603V45.7203H165.981ZM180.996 37.3603C180.996 36.9753 180.721 36.7003 180.336 36.7003H172.636V45.7203H180.171C180.721 45.7203 180.996 45.5003 180.996 44.9503V37.3603Z" fill="#594A39"/>
<path d="M256.071 64.0353C256.456 65.7953 256.016 66.8953 254.311 67.3353C252.606 67.7753 251.286 67.0603 250.956 65.3553L250.461 62.3853C246.501 64.3653 242.101 65.6853 237.481 66.5103C235.446 66.9503 234.016 66.1803 233.796 64.2003C233.521 62.3303 234.181 61.0653 236.436 60.8453C237.976 60.6803 239.571 60.4603 241.166 60.2953V49.5703H237.591C235.556 49.5703 234.401 48.4153 234.401 46.3803V30.8153C234.401 28.7253 235.556 27.5703 237.591 27.5703H241.111V20.0903C241.111 18.2753 242.156 17.3403 244.191 17.3403C246.171 17.3403 247.216 18.2753 247.216 20.0903V27.5703H250.846C252.936 27.5703 254.036 28.7253 254.036 30.8153V46.3803C254.036 48.4153 252.936 49.5703 250.846 49.5703H247.271V59.3053C248.096 59.1403 248.921 59.0303 249.746 58.8653C249.361 57.1053 248.976 55.4003 248.646 54.0253C248.371 52.9253 248.756 52.1553 249.636 51.8253C250.516 51.4953 251.396 51.7703 251.946 52.7603C253.651 55.8403 255.301 60.5153 256.071 64.0353ZM231.761 19.1553C233.081 19.1553 233.796 19.8703 233.796 21.0803C233.796 22.4003 233.081 23.1153 231.761 23.1153H209.651C208.331 23.1153 207.616 22.3453 207.616 21.0803C207.616 19.8703 208.331 19.1553 209.651 19.1553H231.761ZM227.801 36.6453H213.941C211.851 36.6453 210.751 35.4903 210.751 33.4003V28.3403C210.751 26.3053 211.851 25.1503 213.941 25.1503H227.801C229.891 25.1503 230.991 26.3053 230.991 28.3403V33.4003C230.991 35.4903 229.891 36.6453 227.801 36.6453ZM216.416 29.5503V32.2453C216.416 32.6303 216.691 32.9053 217.076 32.9053H224.721C225.106 32.9053 225.381 32.6303 225.381 32.2453V29.5503C225.381 29.1653 225.106 28.8903 224.721 28.8903H217.076C216.691 28.8903 216.416 29.1653 216.416 29.5503ZM239.956 45.6103H241.771V31.5303H239.956C239.571 31.5303 239.296 31.8053 239.296 32.1903V44.9503C239.296 45.3353 239.571 45.6103 239.956 45.6103ZM246.721 31.5303V45.6103H248.481C248.866 45.6103 249.141 45.3353 249.141 44.9503V32.1903C249.141 31.8053 248.866 31.5303 248.481 31.5303H246.721ZM230.056 38.5703C232.146 38.5703 233.246 39.7253 233.246 41.7603V63.4303C233.246 67.7753 228.406 68.8203 224.226 66.8953C223.181 66.4553 222.851 65.6853 223.071 64.7503C223.071 64.6403 223.126 64.5303 223.181 64.4753C222.686 65.0253 221.916 65.3003 220.926 65.3003C219.166 65.3003 218.121 64.3653 218.121 62.6603V54.6853H215.041C214.601 54.6853 214.216 54.5753 213.941 54.4103V65.2453C213.941 66.9503 213.006 67.8853 211.191 67.8853C209.376 67.8853 208.386 66.9503 208.386 65.2453V41.7603C208.386 39.7253 209.541 38.5703 211.631 38.5703H230.056ZM213.941 51.1103C214.216 50.9453 214.601 50.8353 215.041 50.8353H217.791C217.186 50.7253 216.691 50.2853 216.416 49.4603C215.811 47.9203 215.206 46.4353 214.711 44.9503C214.436 44.1803 214.656 43.6303 215.261 43.2453C215.921 42.9153 216.581 43.0253 217.131 43.6303C218.231 44.8953 219.276 46.3253 220.046 47.8103C220.706 49.0203 220.321 50.0653 219.111 50.6153C218.836 50.7253 218.616 50.7803 218.396 50.8353H221.146C221.806 48.8553 222.356 46.7653 222.851 44.7303C223.181 43.1903 224.281 42.7503 225.601 43.1903C226.976 43.5753 227.416 44.6203 226.921 45.9403C226.206 47.7003 225.381 49.3503 224.446 50.8353H226.701C227.141 50.8353 227.526 50.9453 227.801 51.1103V43.0253C227.801 42.6403 227.526 42.3653 227.141 42.3653H214.601C214.216 42.3653 213.941 42.6403 213.941 43.0253V51.1103ZM225.051 63.5403C227.416 63.8153 227.801 63.5403 227.801 61.9453V54.4103C227.526 54.5753 227.141 54.6853 226.701 54.6853H223.731V62.6603C223.731 63.1553 223.621 63.6503 223.456 63.9803C223.786 63.6503 224.336 63.4853 225.051 63.5403Z" fill="#594A39"/>
<path d="M284.176 30.8153C283.571 30.0453 283.571 29.3853 284.176 28.5053C286.101 26.0303 287.696 22.5653 288.741 18.8803C289.291 16.9553 290.611 16.3503 292.481 16.8453C294.131 17.3403 294.736 18.4953 294.296 20.1453H309.641C310.796 19.1003 312.721 18.7703 314.206 19.7603C315.801 20.8053 316.186 22.6753 314.921 24.4353C313.216 26.9103 311.181 28.6703 309.751 29.6603C309.036 30.1553 308.266 30.2653 307.606 29.6603C306.946 29.0553 306.891 28.3953 307.386 27.6253C308.046 26.6353 308.651 25.5903 309.036 24.7103C309.201 24.2703 308.926 23.9953 308.486 23.9953H303.426C303.151 25.0953 302.711 26.1403 302.216 27.1303C305.461 30.3753 308.871 31.6403 314.811 32.5203C317.121 32.9053 317.671 34.1703 317.286 35.9303C316.901 37.7453 315.306 38.4603 313.381 38.0203C307.661 36.7003 303.206 34.0603 300.401 29.9353C297.046 34.0603 291.711 36.5903 285.221 37.1953C284.176 37.2503 283.461 36.7553 283.296 35.8753C283.186 34.9403 283.516 34.3353 284.616 34.0603C291.931 32.1353 295.011 29.2203 296.606 23.9953H292.591C290.996 26.8553 288.741 29.3303 286.541 30.9253C285.771 31.5303 284.781 31.5303 284.176 30.8153ZM272.461 20.5303C271.581 19.9253 271.471 19.1003 271.911 18.2753C272.351 17.4503 273.066 17.2853 274.056 17.5053C276.366 18.0003 279.336 18.9353 281.976 20.3103C283.956 21.3003 284.231 23.0053 283.076 24.6003C281.866 26.3053 280.271 26.5253 278.621 25.1503C276.531 23.3903 274.331 21.7953 272.461 20.5303ZM275.101 38.5153C273.286 39.7803 271.416 39.6153 270.481 37.9103C269.491 36.0953 269.986 34.6103 272.021 33.6203C275.321 31.8603 278.016 29.9903 280.326 28.0103C281.151 27.4053 282.031 27.3503 282.746 28.0653C283.406 28.6703 283.461 29.6053 282.911 30.4853C281.041 33.1803 278.346 36.2053 275.101 38.5153ZM314.976 61.8353C317.231 62.4953 318.166 64.1453 317.341 66.1803C316.516 68.2703 314.811 68.8203 312.666 67.7753C308.761 65.9053 303.206 63.8703 298.641 62.3303C297.541 61.8353 297.101 61.0653 297.376 60.0203C297.486 59.5803 297.651 59.3053 297.871 59.0853H289.951C290.171 59.2503 290.336 59.4703 290.501 59.6903C291.601 61.3953 290.941 63.2653 288.686 64.2003C283.681 66.3453 278.016 67.8853 272.131 68.2703C270.976 68.3253 270.261 67.8853 270.096 66.8953C269.876 65.8503 270.206 64.9703 271.416 64.6403C276.586 63.3753 281.316 61.3403 285.276 59.0853H279.776C277.686 59.0853 276.586 57.9303 276.586 55.8403V40.9353C276.586 38.8453 277.686 37.6903 279.776 37.6903H308.541C310.576 37.6903 311.731 38.8453 311.731 40.9353V55.8403C311.731 57.9303 310.576 59.0853 308.541 59.0853H302.436C306.561 59.6353 311.181 60.6253 314.976 61.8353ZM283.571 42.0903V43.6853H304.691V42.0903C304.691 41.7053 304.416 41.4303 304.031 41.4303H284.231C283.846 41.4303 283.571 41.7053 283.571 42.0903ZM283.571 47.1503V49.4053H304.691V47.1503H283.571ZM283.571 54.6853C283.571 55.0703 283.846 55.3453 284.231 55.3453H304.031C304.416 55.3453 304.691 55.0703 304.691 54.6853V52.8703H283.571V54.6853Z" fill="#594A39"/>
<path d="M96.3508 98.1353C95.6358 101.655 94.5358 105.34 93.1058 108.915V142.355C93.1058 144.39 91.9508 145.325 89.8608 145.325C87.8258 145.325 86.6708 144.39 86.6708 142.355V120.96C85.8458 122.115 84.9658 123.16 84.0858 124.095C83.3708 124.92 82.3258 124.865 81.6658 124.26C81.0058 123.655 80.8958 122.83 81.4458 121.95C85.6808 115.02 88.1558 106.165 89.6408 96.5403C90.0258 94.1203 91.6208 93.3503 93.8758 93.7353C96.0758 94.0653 96.9558 95.6603 96.3508 98.1353ZM98.4958 99.6753C97.3958 99.6753 96.7358 99.0153 96.7358 97.9153C96.7358 96.8153 97.3958 96.1553 98.4958 96.1553H125.611C126.821 96.1553 127.426 96.7603 127.426 97.8603C127.426 99.0703 126.821 99.6753 125.611 99.6753H114.721C114.226 100.335 113.731 100.94 113.181 101.49H120.826C122.806 101.49 123.851 102.59 123.851 104.57V114.525H125.886C127.866 114.525 128.966 115.625 128.966 117.605V120.575C128.966 122.39 127.976 123.16 126.216 123.16C126.491 123.49 126.711 123.82 126.931 124.15C127.866 125.415 127.591 126.625 126.271 127.45C124.896 128.22 123.741 127.78 123.081 126.295C122.366 124.645 121.376 122.665 120.496 121.07C120.111 120.355 120.166 119.805 120.771 119.365C121.321 118.87 121.871 118.98 122.476 119.42L123.356 120.135V118.595C123.356 118.21 123.081 117.935 122.696 117.935H100.751C100.366 117.935 100.091 118.21 100.091 118.595V120.19C100.476 119.53 101.026 119.255 101.796 119.475C102.511 119.64 102.786 120.3 102.621 121.07C102.291 123.27 101.466 125.965 100.531 127.67C99.7608 128.99 98.5508 129.21 97.2858 128.44C96.0758 127.56 95.9658 126.295 96.9558 125.195C97.4508 124.645 97.8908 124.04 98.3308 123.435C98.0008 123.49 97.6708 123.545 97.2858 123.545C95.4708 123.545 94.4808 122.72 94.4808 120.905V117.605C94.4808 115.625 95.5808 114.525 97.5608 114.525H99.3208V104.57C99.3208 102.59 100.421 101.49 102.401 101.49H108.341C108.396 100.885 108.506 100.28 108.561 99.6753H98.4958ZM118.021 105.395C118.021 105.01 117.746 104.735 117.361 104.735H105.866C105.481 104.735 105.206 105.01 105.206 105.395V106H118.021V105.395ZM105.206 108.915V110.235H118.021V108.915H105.206ZM105.206 114.525H118.021V113.15H105.206V114.525ZM109.826 118.045C111.366 118.32 113.016 118.87 114.666 119.585C115.821 120.135 116.261 121.07 115.656 122.225C115.051 123.38 114.006 123.655 112.961 122.94C111.531 121.95 110.156 121.125 108.946 120.465C108.286 120.135 108.121 119.475 108.341 118.815C108.561 118.21 109.056 117.88 109.826 118.045ZM127.206 139.22C129.241 139.33 130.011 140.485 129.791 142.52C129.516 144.555 128.141 145.27 126.161 145.05C121.321 144.5 116.866 143.4 113.016 141.695C108.341 143.675 102.676 144.83 96.1308 145.325C95.0858 145.38 94.4258 144.94 94.2608 144.005C94.0958 142.905 94.5908 142.3 95.7458 142.135C100.696 141.365 104.711 140.375 108.066 139.055C106.251 137.9 104.656 136.58 103.281 135.095C101.521 136.305 99.4858 137.405 97.3958 138.23C96.4058 138.615 95.6358 138.34 95.2508 137.515C94.8108 136.69 95.0308 135.92 95.9658 135.315C100.036 132.785 102.841 130.2 104.876 126.955C103.776 126.405 103.281 125.47 103.281 123.82V120.52C103.281 119.09 104.106 118.265 105.591 118.265C106.966 118.265 107.846 119.035 107.846 120.52V122.28C107.846 123.38 108.231 123.82 109.936 123.875C112.191 124.04 113.841 124.04 115.491 123.875C116.811 123.71 117.141 123.27 117.141 121.18C117.141 120.245 117.636 119.805 118.461 119.805C119.231 119.805 119.781 120.3 119.946 121.235C120.716 125.8 119.506 127.285 116.646 127.56C114.831 127.725 112.521 127.78 110.321 127.725C110.101 128.11 109.826 128.55 109.496 128.99H120.606C123.906 128.99 125.006 131.575 123.136 133.995C121.981 135.59 120.551 137.02 119.011 138.23C121.541 138.725 124.291 139 127.206 139.22ZM105.866 133.06C108.066 134.6 110.376 135.755 112.906 136.635C114.391 135.645 115.711 134.49 116.756 133.225C117.086 132.785 116.866 132.4 116.316 132.4H106.581C106.306 132.62 106.086 132.84 105.866 133.06Z" fill="#594A39"/>
<path d="M146.676 101.655C145.466 101.655 144.751 100.94 144.751 99.7303C144.751 98.4653 145.466 97.7503 146.676 97.7503H165.156V96.5953C165.156 94.5053 166.366 93.5153 168.621 93.5153C170.931 93.5153 172.141 94.5053 172.141 96.5953V97.7503H190.786C191.996 97.7503 192.711 98.4653 192.711 99.7303C192.711 100.995 191.996 101.655 190.786 101.655H172.141V104.02H184.406C186.441 104.02 187.596 105.175 187.596 107.265V116.89C187.596 118.815 186.551 119.97 184.681 120.08C186.661 121.125 188.641 122.445 190.401 123.93C192.106 125.25 192.271 126.79 190.841 128.275C189.411 129.65 187.871 129.54 186.496 127.89C185.781 127.01 185.066 126.13 184.241 125.305C180.281 126.24 174.891 127.065 168.896 127.67C170.711 128.33 172.746 129.375 174.616 130.64C176.321 131.74 176.651 133.445 175.386 134.93C174.011 136.525 172.251 136.415 170.931 134.875C169.556 133.28 167.851 131.52 166.201 130.035C165.541 129.485 165.431 128.605 165.816 127.945C160.591 128.44 155.036 128.77 149.646 128.99C147.336 129.045 146.016 127.89 145.961 125.8C145.961 123.82 146.951 122.61 149.371 122.775C154.156 122.995 159.711 123.05 165.156 122.94V120.025H153.111C151.021 120.025 149.866 118.87 149.866 116.835V107.265C149.866 105.175 151.021 104.02 153.111 104.02H165.156V101.655H146.676ZM156.631 108.475V110.18H165.156V107.815H157.291C156.906 107.815 156.631 108.09 156.631 108.475ZM180.226 107.815H172.141V110.18H180.886V108.475C180.886 108.09 180.611 107.815 180.226 107.815ZM157.291 116.23H165.156V113.755H156.631V115.57C156.631 115.955 156.906 116.23 157.291 116.23ZM180.886 115.57V113.755H172.141V116.23H180.226C180.611 116.23 180.886 115.955 180.886 115.57ZM172.141 120.08V122.775C175.496 122.665 178.631 122.5 181.326 122.28C180.996 121.95 180.666 121.675 180.336 121.4C179.896 121.015 179.731 120.52 179.731 120.08H172.141ZM192.491 136.91C193.756 138.835 193.151 140.87 191.226 141.805C189.136 142.795 187.761 141.915 186.936 139.715C185.836 136.8 184.846 134.6 183.196 131.63C182.701 130.695 182.866 129.87 183.636 129.32C184.406 128.77 185.066 128.825 185.836 129.485C188.256 131.52 190.566 133.94 192.491 136.91ZM180.116 131.245C181.106 131.19 181.656 131.795 181.986 132.785C184.131 139.825 183.361 143.29 177.476 143.675C173.076 143.95 168.511 144.005 164.716 143.785C158.281 143.51 155.861 142.355 155.861 137.9V132.4C155.861 130.365 157.071 129.32 159.271 129.32C161.526 129.375 162.736 130.365 162.736 132.4V135.095C162.736 137.185 163.396 137.845 166.201 138.01C169.116 138.23 172.801 138.12 176.046 137.9C178.191 137.735 178.521 137.13 178.521 132.95C178.521 131.795 179.126 131.3 180.116 131.245ZM152.396 130.42C153.386 130.805 153.716 131.355 153.661 132.4C153.331 136.085 152.121 139.055 150.581 141.585C149.481 143.345 147.501 144.005 145.796 142.575C144.091 141.2 144.146 139.275 145.741 137.79C147.556 136.14 149.206 133.94 150.251 131.52C150.746 130.53 151.461 130.09 152.396 130.42Z" fill="#594A39"/>
<path d="M208.826 110.125C207.726 110.455 207.011 110.235 206.626 109.355C206.241 108.53 206.516 107.705 207.451 107.21C212.071 104.57 216.361 100.335 219.716 95.4403C221.091 93.4603 222.906 92.9653 224.886 94.1203C226.591 95.1653 226.756 97.2003 225.216 99.0703C224.171 100.335 223.016 101.545 221.696 102.7V110.62C221.696 112.71 220.541 113.59 218.451 113.59C216.361 113.59 215.206 112.71 215.206 110.62V107.32C213.116 108.475 210.916 109.465 208.826 110.125ZM231.431 102.48C230.606 101.105 229.781 99.6203 229.121 97.9703C228.296 95.8803 228.736 94.6703 230.386 93.9553C231.981 93.2403 233.411 94.0103 234.346 95.8253C235.446 97.9703 236.656 99.8403 237.921 101.435C240.066 101.105 242.211 100.72 244.356 100.39C244.081 100.28 243.751 100.17 243.476 99.9503C241.826 98.7953 239.791 97.5303 238.306 96.5953C237.426 96.0453 237.151 95.3303 237.536 94.4503C237.866 93.6803 238.581 93.4053 239.571 93.6253C241.551 94.1203 244.026 95.0003 246.006 95.8803C247.656 96.5953 248.096 97.9153 247.161 99.2903C246.996 99.6203 246.776 99.8403 246.556 100.06C247.931 99.7853 249.361 99.5653 250.791 99.3453C251.946 99.1803 252.716 99.7303 252.881 100.885C253.046 102.095 252.496 102.81 251.341 102.975C247.876 103.525 244.411 104.075 240.946 104.68C243.201 106.55 245.621 107.76 248.426 108.365C250.241 108.805 251.231 108.475 251.286 105.175C251.341 104.02 251.781 103.525 252.661 103.47C253.486 103.415 254.201 103.965 254.366 105.065C255.521 111.72 254.641 115.075 248.261 114.085C242.761 113.26 237.756 110.51 233.796 105.835C230.881 106.33 227.911 106.77 224.996 107.265C223.841 107.43 223.071 106.935 222.906 105.725C222.741 104.57 223.291 103.8 224.446 103.635L231.431 102.48ZM252.881 139.22C255.026 139.88 255.851 141.42 255.026 143.4C254.201 145.38 252.551 145.93 250.516 145.05C245.951 142.85 240.506 140.54 235.831 139.055C234.731 138.725 234.346 137.9 234.566 136.965C234.731 136.47 234.951 136.14 235.336 135.975H227.471L227.856 136.47C229.011 138.12 228.571 139.77 226.371 140.705C221.366 143.015 215.041 144.555 209.486 145.105C208.441 145.215 207.781 144.885 207.616 143.95C207.396 143.07 207.891 142.41 208.881 142.135C214.106 140.815 218.946 138.505 222.851 136.03C222.906 136.03 222.906 135.975 222.961 135.975H217.076C215.041 135.975 213.886 134.82 213.886 132.785V117.55C213.886 115.515 215.041 114.36 217.076 114.36H245.841C247.931 114.36 249.031 115.515 249.031 117.55V132.785C249.031 134.82 247.931 135.975 245.841 135.975H237.701C242.651 136.525 248.426 137.735 252.881 139.22ZM220.871 118.595V120.3H242.101V118.595C242.101 118.21 241.826 117.935 241.441 117.935H221.531C221.146 117.935 220.871 118.21 220.871 118.595ZM220.871 123.82V126.185H242.101V123.82H220.871ZM220.871 131.63C220.871 132.015 221.146 132.29 221.531 132.29H241.441C241.826 132.29 242.101 132.015 242.101 131.63V129.65H220.871V131.63Z" fill="#594A39"/>
<path d="M293.911 116.395C293.141 115.845 292.976 115.13 293.526 114.195C296.056 109.685 297.266 103.965 297.926 96.7053C298.091 94.4503 299.576 93.4053 301.941 93.7353C303.921 94.0103 304.911 95.3853 304.581 97.6403C304.251 99.5653 303.866 101.38 303.316 103.14H311.346C312.501 101.985 314.316 101.49 316.131 102.37C318.056 103.305 318.606 105.34 317.671 107.43C316.131 110.895 314.206 114.085 312.006 116.395C311.291 117.22 310.411 117.33 309.696 116.78C308.926 116.23 308.761 115.57 309.146 114.635C310.081 112.215 310.961 109.685 311.401 107.76C311.511 107.32 311.291 107.045 310.851 107.045H301.886C300.346 110.62 298.366 113.645 296.166 116.01C295.451 116.78 294.681 116.945 293.911 116.395ZM271.691 103.965C270.426 103.965 269.766 103.25 269.766 102.04C269.766 100.775 270.426 100.115 271.691 100.115H279.501V96.8153C279.501 94.7803 280.711 93.6803 282.966 93.6803C285.166 93.6803 286.376 94.7803 286.376 96.8153V100.115H294.186C295.451 100.115 296.166 100.775 296.166 102.04C296.166 103.305 295.451 103.965 294.186 103.965H286.376V108.09H292.206C293.416 108.09 294.131 108.75 294.131 109.96C294.131 111.225 293.416 111.94 292.206 111.94H273.561C272.296 111.94 271.636 111.225 271.636 109.96C271.636 108.805 272.296 108.09 273.561 108.09H279.501V103.965H271.691ZM317.561 138.12C319.431 139.935 319.486 142.08 317.561 143.84C315.911 145.435 313.601 145.38 311.841 143.07C308.156 138.67 306.066 130.09 305.846 122.61C304.636 132.785 299.796 140.375 291.821 144.885C290.666 145.49 289.786 145.325 289.181 144.5C288.576 143.565 288.796 142.74 289.731 141.915C291.766 140.21 293.471 138.395 294.901 136.36C294.626 136.69 294.186 137.02 293.691 137.295C291.986 138.23 290.336 137.57 289.841 135.81C289.291 133.665 288.576 131.355 287.751 129.265C287.421 128.33 287.696 127.615 288.411 127.12C289.071 126.735 289.841 126.735 290.611 127.45C292.151 128.99 293.966 131.465 294.956 133.28C295.506 134.27 295.561 135.205 295.121 135.975C298.861 130.475 300.401 123.71 300.401 115.24V112.765C300.401 110.73 301.666 109.575 303.921 109.575C306.176 109.575 307.496 110.73 307.496 112.765V116.23C308.376 125.305 311.511 132.455 317.561 138.12ZM274.331 114.8H291.161C292.371 114.8 293.086 115.46 293.086 116.67C293.086 117.935 292.371 118.65 291.161 118.65H274.331C273.066 118.65 272.406 117.935 272.406 116.67C272.406 115.46 273.066 114.8 274.331 114.8ZM293.911 125.47H286.266V139.44C286.266 144.665 280.711 146.535 274.331 143.565C273.341 143.07 273.121 142.3 273.396 141.42C273.616 140.595 274.221 140.265 275.211 140.375C279.171 140.76 279.666 140.54 279.666 138.67V125.47H271.636C270.371 125.47 269.656 124.7 269.656 123.435C269.656 122.28 270.371 121.565 271.636 121.565H293.911C295.176 121.565 295.891 122.28 295.891 123.435C295.891 124.755 295.176 125.47 293.911 125.47ZM276.201 126.955C278.181 127.45 278.566 128.99 278.071 130.475C276.806 134.435 274.221 138.505 271.856 140.705C271.141 141.42 270.261 141.585 269.546 140.98C268.666 140.375 268.556 139.605 269.106 138.615C270.481 136.305 271.801 132.785 272.571 128.99C272.956 127.12 274.386 126.46 276.201 126.955Z" fill="#594A39"/>
</svg>
