<svg width="624" height="557" viewBox="0 0 624 557" fill="none" xmlns="http://www.w3.org/2000/svg">
<path opacity="0.7" d="M428.976 0C561.531 0 634.416 50.7446 621.621 136.21C610.874 208 553.841 235.816 466.218 244.799C466.003 251.89 464.201 258.844 460.948 265.146C457.695 271.449 453.072 276.941 447.419 281.219C446.775 281.715 445.993 282.005 445.181 282.046C444.369 282.087 443.563 281.879 442.872 281.45C442.18 281.022 441.637 280.394 441.311 279.648C440.986 278.902 440.894 278.073 441.051 277.274C442.007 271.782 441.597 266.14 439.852 260.846C438.106 255.551 435.08 250.768 431.046 246.924C419.565 247.41 427.621 247.654 415.211 247.654C282.655 247.654 192 198.184 192 111.444C192 24.7039 296.42 0 428.976 0Z" fill="#B8C318"/>
<path d="M294.479 110.718C293.949 110.371 293.459 109.963 293.023 109.503C292.335 108.855 291.668 108.128 291.021 107.318C290.53 106.704 290.086 106.056 289.689 105.377C289.476 104.747 289.476 104.063 289.689 103.433C289.689 102.522 290.235 102.037 290.538 102.037C290.842 102.037 291.021 102.039 291.385 101.31L292.478 99.1854C292.722 98.7467 292.904 98.2772 293.023 97.7894C293.067 97.6394 293.146 97.502 293.251 97.3863C293.356 97.2706 293.485 97.1806 293.63 97.1225L294.539 96.5149C294.965 95.8821 295.454 95.2923 295.995 94.7544L297.449 93.1747C298.426 92.0132 299.48 90.9179 300.602 89.8967C302.118 88.4399 303.574 86.9832 305.029 85.4657L309.032 81.097C309.85 80.371 310.474 79.4537 310.85 78.4265C311.252 78.0372 311.68 77.6713 312.126 77.3329C312.666 77.0193 313.174 76.6523 313.642 76.2392C314.173 75.8029 314.679 75.3369 315.158 74.8433C315.404 74.1296 315.751 73.4576 316.188 72.8427C316.784 72.0699 317.431 71.3376 318.128 70.6553C318.714 69.7185 319.243 68.7455 319.706 67.7419C320.115 67.0118 320.438 66.2388 320.674 65.436C320.917 64.6671 320.917 64.1801 320.674 63.9778C319.727 63.5723 318.755 63.2281 317.764 62.9463C316.157 62.5016 314.459 62.5016 312.852 62.9463C310.645 63.6239 308.587 64.7173 306.788 66.1651C305.835 66.3669 304.902 66.6491 303.999 67.0128C303.343 67.349 302.612 67.5163 301.876 67.4988C301.507 67.2234 301.183 66.8983 300.907 66.5296C300.557 66.0182 300.173 65.53 299.756 65.0714L298.663 60.4597L301.997 58.5776C304.659 56.8481 307.509 55.4216 310.489 54.3275C312.732 53.3727 315.231 53.2012 317.583 53.8414C318.653 53.8894 319.713 54.075 320.736 54.3897C321.65 54.4173 322.535 54.7106 323.283 55.2374C324.469 55.9623 325.584 56.7964 326.617 57.727C327.589 58.5658 328.373 59.5999 328.92 60.762C330.043 62.5738 330.515 64.7155 330.256 66.832C329.84 69.6184 328.758 72.2632 327.102 74.5409L324.736 77.2736C323.463 78.609 322.129 80.1858 320.553 81.8854L316.31 86.3786L313.882 88.8652C312.922 89.4037 312.062 90.1035 311.336 90.931L307.578 94.7544C306.244 96.1505 305.09 97.3651 304.241 98.397C303.392 99.4289 302.908 99.9738 303.09 99.9738C303.272 99.9738 303.392 100.277 304.241 99.9738L306.424 99.1854C307.676 98.7674 308.954 98.4233 310.246 98.154C311.762 97.8505 313.278 97.5447 314.794 97.3626C316.099 97.1501 317.414 97.0093 318.735 96.9388C319.386 96.7337 320.085 96.7337 320.736 96.9388C320.736 97.303 321.039 97.3637 321.281 96.9388C321.524 96.5139 322.313 96.2721 324.011 96.5149C325.575 96.6909 327.116 97.0141 328.618 97.4841C329.298 97.631 329.939 97.9215 330.498 98.3347C330.983 98.6989 331.227 99.0034 331.227 99.3069C331.561 99.9247 331.946 100.514 332.378 101.067C332.644 101.214 332.864 101.428 333.018 101.69C333.172 101.951 333.255 102.249 333.255 102.552C333.255 102.856 333.172 103.156 333.018 103.418C332.864 103.679 332.644 103.893 332.378 104.04C331.508 104.653 330.506 105.056 329.453 105.214C328.401 105.372 327.327 105.28 326.315 104.95C324.772 104.907 323.228 105.01 321.705 105.255C321.086 105.396 320.443 105.396 319.824 105.255H317.157C315.849 105.074 314.523 105.074 313.216 105.255C311.652 105.572 310.113 105.998 308.609 106.53L305.577 107.502L301.15 108.776C299.733 109.177 298.297 109.499 296.845 109.746C296.109 110.184 295.311 110.513 294.479 110.718Z" fill="#FDFDFB"/>
<path d="M368.153 111.262C367.205 111.186 366.269 111.004 365.363 110.716C364.029 110.352 362.694 109.867 361.239 109.32C360.05 108.937 358.94 108.34 357.964 107.56C355.689 105.674 353.885 103.285 352.691 100.58C351.606 98.0987 350.948 95.4507 350.749 92.7495C350.571 90.2168 350.674 87.6723 351.054 85.162C351.92 80.3014 353.6 75.6236 356.025 71.3238C359.499 64.9306 364.579 59.5521 370.761 55.7221C373.563 53.8485 376.851 52.8359 380.221 52.8086H383.191C384.827 52.8437 386.446 53.1508 387.981 53.7185C389.582 54.3013 391.124 55.035 392.589 55.9058C393.862 56.7556 394.531 57.5426 394.531 58.271C394.558 58.7764 394.558 59.283 394.531 59.7885C394.531 60.2741 394.166 60.3972 393.56 60.0937H392.47L393.56 63.3095C393.903 64.0694 394.166 64.8635 394.347 65.6776C394.528 66.5366 394.631 67.4113 394.652 68.2888C394.719 69.3601 394.719 70.4333 394.652 71.5046C394.652 72.9007 394.168 74.4166 393.865 75.9948C393.561 77.573 393.197 79.0933 392.893 80.4287C392.703 81.471 392.399 82.4888 391.985 83.4637C391.753 83.8491 391.627 84.2886 391.62 84.7382C391.591 85.0815 391.591 85.4263 391.62 85.7696C391.317 86.3159 390.832 87.3478 390.226 88.8046L388.769 91.8396L388.103 92.5687C388.103 92.5687 388.103 93.0536 388.103 93.3571C387.992 93.8583 387.829 94.345 387.617 94.8123C387.253 95.5407 386.829 96.2711 386.465 96.8781C386.102 97.4851 385.738 97.8473 385.556 97.8473C385.375 97.8473 385.009 97.8478 385.009 98.3334C384.668 99.1662 384.176 99.9286 383.555 100.58C382.488 101.91 381.334 103.168 380.1 104.344C379.043 105.388 377.883 106.323 376.641 107.136C375.065 108.229 373.488 109.2 371.972 110.049C370.813 110.751 369.504 111.166 368.153 111.262ZM368.153 100.823C368.935 100.825 369.712 100.702 370.456 100.458C371.155 100.245 371.785 99.8467 372.277 99.3055C373.686 98.3349 374.95 97.1682 376.034 95.8437C377.239 94.3229 378.24 92.6503 379.007 90.8674C379.773 89.8172 380.405 88.6749 380.887 87.4679C381.372 86.3146 382.099 84.2508 383.069 81.3979C383.689 80.5311 384.105 79.535 384.283 78.4844C384.385 77.5159 384.385 76.5395 384.283 75.571C384.283 74.7819 384.283 73.6891 384.283 72.293C384.33 71.1264 384.493 69.9684 384.769 68.8341C384.769 66.9525 384.769 65.8596 384.769 65.5561C384.561 65.0529 384.249 64.597 383.857 64.2194C383.519 63.9566 383.155 63.7334 382.767 63.5526C382.294 63.3294 381.774 63.2264 381.251 63.2502C380.571 63.284 379.898 63.4067 379.25 63.6148C378.524 63.821 377.831 64.1268 377.189 64.5247C376.922 64.6454 376.632 64.7085 376.339 64.7085C376.047 64.7085 375.756 64.6454 375.49 64.5247C374.883 64.5247 374.581 63.9776 374.581 63.6741C374.581 63.3706 374.094 62.7029 373.124 63.6741L369.245 68.2888C368.033 69.4992 366.937 70.8195 365.97 72.2337C365.39 72.9607 364.938 73.7813 364.635 74.6611C364.608 75.0502 364.482 75.4272 364.271 75.7547C364.271 76.1796 363.849 76.7259 363.667 77.2722C363.152 78.0624 362.705 78.893 362.331 79.7589L360.875 83.1584C360.504 83.9827 360.201 84.8347 359.966 85.7074V91.7773C359.919 92.667 359.919 93.5581 359.966 94.4478C359.999 94.9318 360.123 95.4052 360.33 95.8437L361.117 97.4827C361.544 98.1179 362.01 98.7279 362.512 99.3055C362.954 99.7587 363.36 100.244 363.726 100.761C364.514 101.489 365.059 101.734 365.301 101.552C366.132 101.189 367.011 100.943 367.91 100.823H368.153Z" fill="#FDFDFB"/>
<path d="M413.754 110.718C413.235 110.355 412.747 109.948 412.297 109.503C411.65 108.855 410.986 108.128 410.299 107.318C409.8 106.722 409.373 106.072 409.025 105.377C409.025 105.013 409.025 104.404 409.025 103.433C409.025 102.461 409.51 102.037 409.813 102.037C410.116 102.037 410.299 102.039 410.663 101.31L411.752 99.1854C411.996 98.7467 412.179 98.2772 412.297 97.7894C412.411 97.5003 412.627 97.2636 412.904 97.1225L413.813 96.5149C414.24 95.8821 414.729 95.2923 415.27 94.7544L416.727 93.1747C417.721 92.0286 418.77 90.9343 419.877 89.8967C421.393 88.4399 422.851 86.9832 424.306 85.4657L428.307 81.097C429.124 80.371 429.751 79.4537 430.127 78.4265L431.46 77.3329C431.988 77.03 432.478 76.662 432.917 76.2392L434.492 74.8433C434.707 74.117 435.057 73.4401 435.522 72.8427C436.096 72.0701 436.724 71.3377 437.402 70.6553C437.948 69.7448 438.494 68.8345 439.04 67.7419C439.585 66.6493 439.829 65.9216 440.011 65.436C440.193 64.9504 440.011 64.1599 440.011 63.9778C439.063 63.5723 438.091 63.2281 437.1 62.9463C435.514 62.5006 433.834 62.5006 432.247 62.9463C430.043 63.6306 427.987 64.7234 426.184 66.1651C425.231 66.3669 424.298 66.6491 423.394 67.0128C422.76 67.3489 422.051 67.5166 421.334 67.4988C420.931 67.2445 420.581 66.9168 420.303 66.5296C419.972 66.0042 419.587 65.5144 419.152 65.0714L418.059 60.4597L421.393 58.5776C424.062 56.8608 426.911 55.4351 429.885 54.3275C432.128 53.3727 434.627 53.2012 436.979 53.8414C438.049 53.8833 439.11 54.069 440.132 54.3897C441.046 54.4173 441.931 54.7106 442.679 55.2374C443.875 55.9472 444.991 56.7823 446.012 57.727C447.003 58.5479 447.794 59.5865 448.319 60.762C449.497 62.5511 449.97 64.7132 449.651 66.832C449.236 69.6184 448.154 72.2632 446.498 74.5409L444.132 77.2736L439.949 81.8854C438.433 83.585 436.978 85.0432 435.765 86.3786L433.34 88.8652C432.359 89.3715 431.493 90.0759 430.794 90.931C429.581 92.1046 428.308 93.3786 426.974 94.7544C425.64 96.1505 424.547 97.3651 423.637 98.397C422.728 99.4289 422.364 99.9738 422.485 99.9738C422.607 99.9738 422.788 100.277 423.637 99.9738L425.882 99.1854C427.129 98.7519 428.405 98.4076 429.701 98.154C431.156 97.8505 432.674 97.5447 434.19 97.3626C435.495 97.1501 436.81 97.0093 438.131 96.9388C438.782 96.7337 439.481 96.7337 440.132 96.9388C440.132 97.303 440.131 97.3637 440.677 96.9388C441.223 96.5139 441.709 96.2721 443.407 96.5149C444.972 96.6844 446.514 97.0077 448.014 97.4841C448.698 97.6174 449.342 97.9092 449.894 98.3347C450.379 98.6989 450.623 99.0034 450.623 99.3069C450.956 99.9396 451.361 100.531 451.834 101.067C452.084 101.226 452.292 101.445 452.435 101.705C452.578 101.965 452.654 102.256 452.654 102.552C452.654 102.849 452.578 103.143 452.435 103.403C452.292 103.663 452.084 103.881 451.834 104.04C450.957 104.64 449.958 105.035 448.908 105.193C447.858 105.351 446.784 105.266 445.77 104.95C444.227 104.909 442.686 105.012 441.163 105.255C440.544 105.396 439.901 105.396 439.282 105.255H436.615C435.328 105.073 434.02 105.073 432.733 105.255C431.149 105.571 429.589 105.997 428.064 106.53L425.032 107.502L420.605 108.776C419.19 109.183 417.753 109.505 416.3 109.746C415.509 110.204 414.65 110.533 413.754 110.718Z" fill="#FDFDFB"/>
<path d="M472.936 110.718C472.43 110.339 471.945 109.932 471.482 109.503C470.795 108.855 470.127 108.128 469.48 107.318C469.003 106.707 468.578 106.058 468.207 105.377C468.207 105.013 468.207 104.404 468.207 103.433C468.207 102.462 468.691 102.037 468.995 102.037C469.298 102.037 469.541 102.039 469.844 101.311L470.937 99.1855C471.181 98.7468 471.363 98.2774 471.482 97.7896C471.596 97.5004 471.812 97.2638 472.089 97.1227L472.998 96.5151C473.424 95.8823 473.91 95.2925 474.451 94.7546L475.908 93.1748C476.902 92.0288 477.955 90.9345 479.062 89.8968C480.578 88.44 482.033 86.9834 483.488 85.4659L487.491 81.0971C488.298 80.3491 488.939 79.4394 489.371 78.4267C489.76 78.0227 490.186 77.6558 490.644 77.3331C491.173 77.0302 491.66 76.6621 492.098 76.2394L493.676 74.8434C493.892 74.1172 494.241 73.4403 494.707 72.8428C495.28 72.0703 495.909 71.3379 496.587 70.6555C497.217 69.734 497.765 68.7592 498.224 67.742C498.606 66.9992 498.929 66.2288 499.192 65.4362C499.192 64.6471 499.192 64.16 499.192 63.9779C498.245 63.5724 497.273 63.2282 496.282 62.9465C494.696 62.4976 493.018 62.4976 491.432 62.9465C489.233 63.6436 487.179 64.7352 485.368 66.1653C484.433 66.3578 483.518 66.6404 482.638 67.0129C481.981 67.3444 481.252 67.5115 480.515 67.499C480.133 67.2398 479.806 66.9122 479.547 66.5298C479.176 66.0174 478.77 65.5292 478.333 65.0716L477.244 60.4598L480.637 58.5778C483.293 56.8377 486.144 55.4106 489.128 54.3276C491.351 53.3728 493.829 53.2011 496.161 53.8416C497.231 53.8834 498.292 54.0692 499.314 54.3899C500.23 54.4024 501.12 54.6972 501.86 55.2375C503.056 55.9474 504.176 56.7825 505.197 57.7272C506.204 58.5475 507.013 59.585 507.563 60.7622C508.694 62.57 509.145 64.7216 508.836 66.8321C508.421 69.6185 507.339 72.2634 505.683 74.5411L503.317 77.2738L499.133 81.8855C497.617 83.5851 496.223 85.0433 494.95 86.3787L492.525 88.8654C491.544 89.3716 490.674 90.0761 489.975 90.9312L486.156 94.7546C484.822 96.1507 483.731 97.3653 482.822 98.3972C481.912 99.429 481.549 99.9739 481.67 99.9739C481.791 99.9739 481.973 100.277 482.822 99.9739L485.063 99.1855C486.313 98.7598 487.591 98.4156 488.886 98.1541C490.341 97.8506 491.855 97.5449 493.371 97.3628C494.677 97.1534 495.992 97.0126 497.312 96.9389C497.962 96.7258 498.664 96.7258 499.314 96.9389C499.314 97.3031 499.619 97.3638 499.862 96.9389C500.104 96.514 500.951 96.2723 502.589 96.5151C504.153 96.6845 505.699 97.0079 507.199 97.4843C507.897 97.6317 508.556 97.9218 509.138 98.3349C509.562 98.6991 509.804 99.0036 509.804 99.3071C510.159 99.9266 510.566 100.516 511.018 101.068C511.269 101.226 511.473 101.445 511.616 101.705C511.759 101.965 511.835 102.256 511.835 102.552C511.835 102.849 511.759 103.143 511.616 103.403C511.473 103.663 511.269 103.882 511.018 104.04C510.145 104.649 509.145 105.047 508.093 105.205C507.041 105.363 505.967 105.276 504.954 104.95C503.392 104.907 501.829 105.01 500.285 105.256C499.686 105.391 499.066 105.391 498.467 105.256H495.737C494.45 105.074 493.143 105.074 491.855 105.256C490.271 105.571 488.711 105.997 487.186 106.53L484.154 107.502L479.728 108.777C478.331 109.176 476.916 109.498 475.485 109.746C474.69 110.197 473.829 110.525 472.936 110.718Z" fill="#FDFDFB"/>
<path d="M294.761 166.69C295.363 168.625 294.761 169.872 292.998 170.388C291.063 170.99 289.73 170.431 289.171 168.539C288.354 165.744 287.494 162.949 286.634 160.154H275.626L272.831 168.711C272.315 170.388 271.197 170.947 269.52 170.431C267.843 169.915 267.241 168.754 267.843 167.034L276.787 141.234C277.561 138.912 278.894 137.794 281.13 137.794C283.366 137.794 285.172 138.912 285.989 141.234C288.655 148.63 292.052 158.219 294.761 166.69ZM276.916 156.198H285.43C284.097 151.898 282.764 147.641 281.431 143.513H281.087L276.916 156.198Z" fill="#594A39"/>
<path d="M314.444 146.996C319.045 146.996 322.442 150.092 322.442 155.51V167.765C322.442 169.614 321.41 170.646 319.518 170.646C317.626 170.646 316.594 169.614 316.594 167.765V155.983C316.594 152.801 315.175 150.995 312.81 150.995C310.273 150.995 308.381 153.059 307.736 155.596V167.765C307.736 169.614 306.704 170.646 304.769 170.646C302.92 170.646 301.845 169.614 301.845 167.765V149.705C301.845 147.985 302.834 147.039 304.597 147.039C306.317 146.996 307.306 147.899 307.306 149.662V150.995C308.768 148.329 311.348 146.996 314.444 146.996Z" fill="#594A39"/>
<path d="M343.081 146.996C347.682 146.996 351.079 150.092 351.079 155.51V167.765C351.079 169.614 350.047 170.646 348.155 170.646C346.263 170.646 345.231 169.614 345.231 167.765V155.983C345.231 152.801 343.812 150.995 341.447 150.995C338.91 150.995 337.018 153.059 336.373 155.596V167.765C336.373 169.614 335.341 170.646 333.406 170.646C331.557 170.646 330.482 169.614 330.482 167.765V149.705C330.482 147.985 331.471 147.039 333.234 147.039C334.954 146.996 335.943 147.899 335.943 149.662V150.995C337.405 148.329 339.985 146.996 343.081 146.996Z" fill="#594A39"/>
<path d="M376.276 146.996C378.125 146.996 379.157 148.028 379.157 149.834V168.066C379.157 169.7 378.211 170.646 376.534 170.646C374.857 170.646 373.911 169.7 373.868 168.109V166.776C372.578 169.27 370.041 170.603 366.902 170.603C361.699 170.603 358.732 167.593 358.732 162.304V149.877C358.732 148.028 359.764 146.996 361.656 146.996C363.548 146.996 364.623 148.028 364.623 149.877V161.487C364.623 165.013 365.698 166.561 368.278 166.561C371.073 166.561 372.922 163.68 373.395 161.659V149.834C373.395 148.028 374.427 146.996 376.276 146.996Z" fill="#594A39"/>
<path d="M404.401 149.576C405.691 150.909 406.336 152.844 406.336 155.424V167.851C406.336 169.657 405.519 170.646 403.756 170.646C401.95 170.646 401.047 169.657 401.047 167.851V166.69C399.499 169.313 396.661 170.646 393.264 170.646C388.749 170.646 385.997 168.023 385.997 163.852C385.997 158.821 390.684 155.596 397.865 155.51C398.983 155.467 400.101 155.553 400.703 155.682V155.252C400.703 152.457 399.284 150.909 396.618 150.866C394.253 150.823 392.275 152.027 390.727 153.618C389.867 154.521 388.577 154.693 387.674 153.919C386.771 153.188 386.642 151.984 387.459 150.909C388.921 149.06 392.146 146.996 396.704 146.996C400.23 146.996 402.724 147.856 404.401 149.576ZM400.703 162.562V159.294C400.015 159.208 398.94 159.122 397.908 159.165C393.221 159.337 391.501 161.358 391.544 163.465C391.587 165.4 392.576 166.475 394.64 166.518C397.048 166.561 399.499 164.841 400.703 162.562Z" fill="#594A39"/>
<path d="M420.053 170.646C415.968 170.603 414.377 168.883 414.377 164.239V139.342C414.377 137.493 415.409 136.461 417.301 136.461C419.15 136.461 420.225 137.493 420.225 139.342V164.368C420.225 165.787 420.483 166.217 421.472 166.217C422.203 166.217 422.461 165.916 423.192 165.916C423.966 165.916 424.869 166.561 424.869 167.98C424.869 170.087 422.633 170.646 420.053 170.646Z" fill="#594A39"/>
<path d="M457.691 170.259C454.896 170.259 453.133 170.13 451.585 169.915C449.607 169.614 448.618 168.496 448.618 166.561V141.836C448.618 139.901 449.65 138.783 451.671 138.568C453.176 138.396 454.681 138.267 457.433 138.267C467.882 138.267 474.375 143.685 474.375 153.704C474.375 164.454 468.57 170.259 457.691 170.259ZM457.433 166.174C465.259 166.174 468.269 161.917 468.269 153.962C468.269 146.222 464.528 142.352 457.261 142.352C456.358 142.352 455.541 142.438 455.025 142.481C454.724 142.524 454.595 142.696 454.595 142.954V165.486C454.595 165.744 454.724 165.916 455.025 166.002C455.584 166.088 456.487 166.174 457.433 166.174Z" fill="#594A39"/>
<path d="M498.835 149.576C500.125 150.909 500.77 152.844 500.77 155.424V167.851C500.77 169.657 499.953 170.646 498.19 170.646C496.384 170.646 495.481 169.657 495.481 167.851V166.69C493.933 169.313 491.095 170.646 487.698 170.646C483.183 170.646 480.431 168.023 480.431 163.852C480.431 158.821 485.118 155.596 492.299 155.51C493.417 155.467 494.535 155.553 495.137 155.682V155.252C495.137 152.457 493.718 150.909 491.052 150.866C488.687 150.823 486.709 152.027 485.161 153.618C484.301 154.521 483.011 154.693 482.108 153.919C481.205 153.188 481.076 151.984 481.893 150.909C483.355 149.06 486.58 146.996 491.138 146.996C494.664 146.996 497.158 147.856 498.835 149.576ZM495.137 162.562V159.294C494.449 159.208 493.374 159.122 492.342 159.165C487.655 159.337 485.935 161.358 485.978 163.465C486.021 165.4 487.01 166.475 489.074 166.518C491.482 166.561 493.933 164.841 495.137 162.562Z" fill="#594A39"/>
<path d="M519.838 165.529C520.913 165.529 521.601 166.819 521.601 167.765C521.601 169.786 518.548 170.302 516.312 170.302C512.012 170.302 510.034 168.195 510.034 163.508V151.683H507.411C506.25 151.683 505.562 150.952 505.562 149.662C505.562 148.372 506.25 147.641 507.411 147.641H510.034V144.244C510.034 142.395 511.066 141.363 512.958 141.363C514.85 141.363 515.882 142.395 515.882 144.244V147.641H519.58C520.741 147.641 521.386 148.372 521.386 149.662C521.386 150.952 520.741 151.683 519.58 151.683H515.882V163.465C515.882 165.443 516.398 166.174 517.387 166.088C518.333 166.002 518.935 165.529 519.838 165.529Z" fill="#594A39"/>
<path d="M544.897 149.576C546.187 150.909 546.832 152.844 546.832 155.424V167.851C546.832 169.657 546.015 170.646 544.252 170.646C542.446 170.646 541.543 169.657 541.543 167.851V166.69C539.995 169.313 537.157 170.646 533.76 170.646C529.245 170.646 526.493 168.023 526.493 163.852C526.493 158.821 531.18 155.596 538.361 155.51C539.479 155.467 540.597 155.553 541.199 155.682V155.252C541.199 152.457 539.78 150.909 537.114 150.866C534.749 150.823 532.771 152.027 531.223 153.618C530.363 154.521 529.073 154.693 528.17 153.919C527.267 153.188 527.138 151.984 527.955 150.909C529.417 149.06 532.642 146.996 537.2 146.996C540.726 146.996 543.22 147.856 544.897 149.576ZM541.199 162.562V159.294C540.511 159.208 539.436 159.122 538.404 159.165C533.717 159.337 531.997 161.358 532.04 163.465C532.083 165.4 533.072 166.475 535.136 166.518C537.544 166.561 539.995 164.841 541.199 162.562Z" fill="#594A39"/>
<g clip-path="url(#clip0_1574_572)">
<path d="M151.041 280.173C151.041 280.173 89.3564 285.862 39.5673 255.651C38.2143 254.83 36.6705 254.375 35.0888 254.33C33.5072 254.284 31.9416 254.649 30.5431 255.391C29.1445 256.132 27.9606 257.225 27.1092 258.561C26.2577 259.897 25.7678 261.431 25.685 263.014C23.9736 294.115 34.2393 366.677 151.741 425.088" fill="#5E9A33"/>
<path opacity="0.2" d="M153.252 424.515C153.252 424.515 101.582 408.456 53.5727 425.391C52.2696 425.839 50.8746 425.944 49.5197 425.695C48.1648 425.446 46.895 424.852 45.8359 423.97C44.7767 423.089 43.9639 421.948 43.4722 420.659C42.9804 419.371 42.8275 417.978 43.0293 416.613C47.1661 389.726 69.0211 329.526 180.001 300.773" fill="#5E9A33"/>
<path d="M193.264 498.723C197.879 483.793 192.164 468.762 180.497 465.148C168.83 461.533 155.631 470.705 151.015 485.635C146.399 500.565 152.116 515.598 163.783 519.213C175.449 522.827 188.648 513.653 193.264 498.723Z" fill="#FEFAE9"/>
<path d="M271.233 529.677C283.395 528.548 292.091 515.019 290.657 499.457C289.222 483.896 278.199 472.196 266.038 473.324C253.877 474.453 245.182 487.982 246.616 503.543C248.051 519.105 259.072 530.805 271.233 529.677Z" fill="#FEFAE9"/>
<path d="M253.814 161.452C253.814 161.452 247.26 191.764 191.351 210.542C175.796 215.768 161.973 225.175 151.392 237.735C118.468 276.774 63.0967 363.503 119.656 456.453C119.656 456.453 150.691 500.104 218.23 507.15C218.23 507.15 281.956 518.649 325.918 480.559C366.496 445.511 394.209 350.845 337.853 254.4C329.682 240.48 317.693 229.201 303.311 221.901C284.553 212.185 256.577 194.919 253.814 161.452Z" fill="#FEFAE9"/>
<path d="M359.128 301.113C353.742 284.853 346.648 269.212 337.969 254.451C329.798 240.531 317.811 229.252 303.429 221.953C284.543 212.304 256.57 194.998 253.803 161.57C253.803 161.57 247.249 191.884 191.34 210.663C175.784 215.888 161.962 225.294 151.381 237.854C141.051 250.069 131.788 263.151 123.696 276.955C133.181 291.24 169.673 339.058 234.778 345.851C234.79 345.731 295.842 353.473 359.128 301.113Z" fill="#7DBE37"/>
<path d="M123.914 276.413C123.914 276.413 109.361 307.225 108.764 339.25C108.298 366.925 133.085 397.356 162.704 400.446C280.219 412.706 359.366 301.907 359.366 301.907C359.366 301.907 356.295 284.168 323.338 280.205C290.381 276.241 162.075 263.38 162.075 263.38C162.075 263.38 130.263 261.193 123.914 276.413Z" fill="#F2E865"/>
<path d="M165.909 289.28C186.653 291.445 205.227 276.356 207.395 255.58C209.563 234.803 194.503 216.206 173.758 214.042C153.013 211.878 134.439 226.966 132.272 247.742C130.104 268.519 145.164 287.116 165.909 289.28Z" fill="white"/>
<path d="M267.457 299.876C288.202 302.04 306.776 286.952 308.944 266.176C311.111 245.399 296.052 226.802 275.307 224.638C254.562 222.473 235.988 237.561 233.82 258.338C231.653 279.115 246.713 297.712 267.457 299.876Z" fill="white"/>
<path d="M306.256 292.324C305.72 292.261 305.209 292.067 304.768 291.758C304.326 291.449 303.969 291.034 303.727 290.552C303.485 290.07 303.365 289.536 303.381 288.997C303.397 288.457 303.548 287.931 303.817 287.464L310.537 276.041C310.753 275.679 311.037 275.363 311.375 275.112C311.713 274.861 312.098 274.681 312.506 274.581C312.915 274.48 313.34 274.462 313.755 274.528C314.17 274.593 314.568 274.74 314.925 274.961C315.655 275.398 316.182 276.107 316.391 276.932C316.6 277.756 316.474 278.63 316.041 279.362L309.345 290.544C309.072 291.121 308.629 291.6 308.077 291.918C307.525 292.236 306.89 292.377 306.256 292.324Z" fill="#E27E7C"/>
<path d="M315.477 296.762C314.946 296.694 314.441 296.494 314.005 296.182C313.569 295.871 313.217 295.457 312.98 294.976C312.743 294.496 312.628 293.964 312.645 293.428C312.662 292.892 312.81 292.369 313.078 291.904L319.734 280.717C320.17 279.987 320.876 279.459 321.7 279.249C322.523 279.04 323.397 279.165 324.128 279.599C324.493 279.811 324.812 280.094 325.066 280.431C325.32 280.768 325.506 281.155 325.61 281.565C325.713 281.975 325.733 282.4 325.67 282.819C325.607 283.237 325.461 283.638 325.241 283.999L318.587 295.186C318.275 295.721 317.815 296.154 317.263 296.433C316.711 296.713 316.092 296.827 315.477 296.762Z" fill="#E27E7C"/>
<path d="M118.541 271.811C118.073 271.77 117.62 271.627 117.214 271.39C116.483 270.946 115.957 270.23 115.749 269.398C115.541 268.567 115.667 267.689 116.103 266.951L122.798 255.766C123.258 255.087 123.959 254.609 124.758 254.43C125.558 254.251 126.395 254.385 127.099 254.804C127.803 255.224 128.322 255.899 128.546 256.688C128.77 257.477 128.685 258.322 128.307 259.05L121.608 270.272C121.298 270.796 120.844 271.221 120.3 271.493C119.757 271.766 119.146 271.876 118.541 271.811Z" fill="#E27E7C"/>
<path d="M127.646 276.236C127.191 276.193 126.751 276.049 126.357 275.817C125.628 275.381 125.101 274.674 124.892 273.849C124.683 273.024 124.811 272.149 125.244 271.417L131.903 260.191C132.119 259.824 132.405 259.504 132.746 259.249C133.086 258.994 133.475 258.809 133.888 258.705C134.3 258.602 134.729 258.582 135.149 258.645C135.57 258.709 135.972 258.856 136.336 259.077C136.697 259.292 137.013 259.577 137.263 259.916C137.513 260.254 137.693 260.639 137.793 261.048C137.893 261.458 137.911 261.883 137.846 262.299C137.78 262.715 137.631 263.115 137.41 263.473L130.751 274.701C130.431 275.224 129.97 275.644 129.421 275.916C128.871 276.187 128.255 276.299 127.646 276.236Z" fill="#E27E7C"/>
<path d="M259.921 269.992C268.805 270.919 276.76 264.457 277.688 255.559C278.617 246.662 272.167 238.697 263.283 237.77C254.399 236.843 246.444 243.305 245.516 252.203C244.587 261.101 251.037 269.065 259.921 269.992Z" fill="#4A1E0E"/>
<path d="M166.437 260.238C175.321 261.165 183.276 254.703 184.204 245.806C185.132 236.908 178.683 228.943 169.799 228.016C160.914 227.089 152.959 233.551 152.031 242.449C151.103 251.347 157.552 259.312 166.437 260.238Z" fill="#4A1E0E"/>
<path d="M149.831 524.224C148.844 524.123 147.89 523.807 147.037 523.299C146.184 522.791 145.451 522.103 144.891 521.283L119.495 483.917C118.916 483.181 118.494 482.334 118.256 481.428C118.017 480.522 117.967 479.577 118.11 478.65C118.252 477.724 118.584 476.835 119.083 476.042C119.583 475.25 120.241 474.569 121.014 474.042C121.788 473.514 122.661 473.151 123.58 472.975C124.5 472.8 125.447 472.816 126.359 473.023C127.272 473.229 128.132 473.621 128.887 474.174C129.642 474.728 130.275 475.432 130.746 476.241L156.187 513.57C157.19 515.075 157.564 516.914 157.227 518.693C156.891 520.471 155.873 522.047 154.389 523.081C153.053 523.99 151.437 524.396 149.831 524.224Z" fill="#695D41"/>
<path d="M160.306 525.922C158.733 525.76 157.265 525.056 156.153 523.93C155.042 522.804 154.354 521.326 154.21 519.749L151.211 486.62C151.122 484.862 151.713 483.138 152.862 481.806C154.012 480.474 155.632 479.636 157.381 479.469C159.131 479.303 160.878 479.82 162.257 480.911C163.636 482.003 164.539 483.585 164.781 485.328L167.818 518.501C167.975 520.306 167.411 522.101 166.253 523.494C165.095 524.886 163.435 525.765 161.634 525.938C161.191 525.972 160.748 525.968 160.306 525.922Z" fill="#695D41"/>
<path d="M267.346 536.484C266.103 536.349 264.92 535.875 263.925 535.116C262.93 534.357 262.161 533.34 261.702 532.175L247.763 496.006C247.309 495.155 247.041 494.217 246.976 493.255C246.911 492.292 247.05 491.327 247.384 490.422C247.718 489.517 248.24 488.693 248.915 488.005C249.589 487.316 250.401 486.78 251.298 486.428C252.195 486.076 253.156 485.917 254.118 485.964C255.08 486.012 256.02 486.263 256.879 486.7C257.737 487.138 258.494 487.753 259.098 488.505C259.702 489.256 260.14 490.127 260.384 491.06L274.323 527.229C274.956 528.922 274.903 530.796 274.173 532.45C273.442 534.104 272.093 535.405 270.415 536.076C269.434 536.434 268.387 536.574 267.346 536.484Z" fill="#695D41"/>
<path d="M256.744 535.984C255.191 535.811 253.743 535.118 252.632 534.018L216.102 497.393C215.458 496.763 214.945 496.01 214.593 495.181C214.24 494.352 214.056 493.46 214.048 492.559C214.041 491.658 214.212 490.765 214.551 489.93C214.891 489.095 215.392 488.334 216.026 487.694C216.66 487.054 217.414 486.546 218.245 486.199C219.076 485.852 219.965 485.672 220.865 485.671C221.765 485.67 222.657 485.848 223.488 486.193C224.319 486.539 225.074 487.047 225.709 487.686L262.44 524.332C263.382 525.342 263.997 526.615 264.206 527.981C264.416 529.348 264.209 530.745 263.613 531.992C263.016 533.24 262.057 534.278 260.863 534.971C259.668 535.665 258.293 535.981 256.916 535.88L256.744 535.984Z" fill="#695D41"/>
<path d="M191.388 268.62L191.209 206.527C191.199 205.736 191.453 204.964 191.932 204.335C192.411 203.706 193.086 203.257 193.851 203.057C194.615 202.858 195.423 202.921 196.147 203.236C196.871 203.551 197.47 204.099 197.846 204.794L231.91 266.989C232.74 268.448 233.093 270.129 232.919 271.8C232.745 273.471 232.052 275.045 230.938 276.302L185.416 325.869C184.889 326.444 184.188 326.826 183.42 326.96C182.653 327.093 181.863 326.971 181.173 326.609C180.484 326.246 179.934 325.666 179.608 324.958C179.282 324.249 179.199 323.452 179.371 322.691L191.579 268.72L191.388 268.62Z" fill="#695D41"/>
<path d="M231.908 266.988L197.828 204.954C197.505 204.339 197 203.838 196.383 203.521C195.766 203.203 195.067 203.084 194.38 203.18C194.653 203.35 194.89 203.572 195.078 203.834C195.265 204.097 195.399 204.394 195.471 204.708L214.927 265.376C215.393 266.915 215.547 268.532 215.38 270.132C215.213 271.732 214.729 273.282 213.955 274.692L182.963 325.773C182.667 326.327 182.177 326.751 181.587 326.964C182.226 327.197 182.921 327.23 183.579 327.061C184.238 326.892 184.83 326.527 185.278 326.015L230.801 276.449C231.968 275.196 232.705 273.603 232.905 271.901C233.104 270.199 232.754 268.477 231.908 266.988Z" fill="#84765B"/>
<path d="M466.237 300.164C420.447 316.321 371.707 306.225 356.728 302.44C353.272 301.534 349.61 301.836 346.348 303.296C338.824 306.464 332.377 311.745 327.784 318.502C323.191 325.258 320.65 333.202 320.466 341.372C319.343 369.544 330.515 412.902 342.319 429.329C343.577 431.093 345.371 432.403 347.433 433.063C349.495 433.722 351.713 433.695 353.759 432.987C452.916 397.665 474.011 338.196 478.301 310.233C478.546 308.668 478.382 307.065 477.824 305.582C477.267 304.099 476.336 302.786 475.121 301.772C473.905 300.757 472.447 300.077 470.89 299.795C469.333 299.513 467.73 299.64 466.237 300.164Z" fill="#5E9A33"/>
<path opacity="0.2" d="M349.35 433.499C349.35 433.499 400.32 439.625 443.8 466.105C444.983 466.812 446.326 467.202 447.703 467.238C449.08 467.275 450.443 466.956 451.662 466.312C452.88 465.667 453.913 464.719 454.66 463.56C455.407 462.401 455.844 461.069 455.928 459.692C457.43 432.53 448.471 369.116 345.616 318.053" fill="#5E9A33"/>
</g>
<defs>
<clipPath id="clip0_1574_572">
<rect width="455.073" height="372.205" fill="white" transform="translate(38.6222 139) rotate(5.95607)"/>
</clipPath>
</defs>
</svg>
