<svg width="624" height="557" viewBox="0 0 624 557" fill="none" xmlns="http://www.w3.org/2000/svg">
<path opacity="0.7" d="M428.975 0C561.53 0 634.415 50.7446 621.62 136.21C610.873 208 553.84 235.816 466.217 244.799C466.002 251.89 464.2 258.844 460.947 265.146C457.694 271.449 453.072 276.941 447.419 281.219C446.774 281.715 445.992 282.005 445.18 282.046C444.368 282.087 443.562 281.879 442.871 281.45C442.179 281.022 441.636 280.394 441.31 279.648C440.985 278.902 440.894 278.073 441.05 277.274C442.006 271.782 441.596 266.14 439.851 260.846C438.105 255.551 435.079 250.768 431.045 246.924C419.564 247.41 427.62 247.654 415.21 247.654C282.654 247.654 191.999 198.184 191.999 111.444C191.999 24.7039 296.419 0 428.975 0Z" fill="#B8C318"/>
<g clip-path="url(#clip0_3233_1191)">
<path d="M151.041 280.173C151.041 280.173 89.3564 285.862 39.5673 255.651C38.2143 254.83 36.6705 254.375 35.0888 254.33C33.5072 254.284 31.9416 254.649 30.5431 255.391C29.1445 256.132 27.9606 257.225 27.1092 258.561C26.2577 259.897 25.7678 261.431 25.685 263.014C23.9736 294.115 34.2393 366.677 151.741 425.088" fill="#5E9A33"/>
<path opacity="0.2" d="M153.252 424.515C153.252 424.515 101.582 408.456 53.5727 425.391C52.2696 425.839 50.8746 425.944 49.5197 425.695C48.1648 425.446 46.895 424.852 45.8359 423.97C44.7767 423.089 43.9639 421.948 43.4722 420.659C42.9804 419.371 42.8275 417.978 43.0293 416.613C47.1661 389.726 69.0211 329.526 180.001 300.773" fill="#5E9A33"/>
<path d="M193.264 498.723C197.879 483.793 192.164 468.762 180.497 465.148C168.83 461.533 155.631 470.705 151.015 485.635C146.399 500.565 152.116 515.598 163.783 519.213C175.449 522.827 188.648 513.653 193.264 498.723Z" fill="#FEFAE9"/>
<path d="M271.233 529.677C283.395 528.548 292.091 515.019 290.657 499.457C289.222 483.896 278.199 472.196 266.038 473.324C253.877 474.453 245.182 487.982 246.616 503.543C248.051 519.105 259.072 530.805 271.233 529.677Z" fill="#FEFAE9"/>
<path d="M253.814 161.452C253.814 161.452 247.26 191.764 191.351 210.542C175.796 215.768 161.973 225.175 151.392 237.735C118.468 276.774 63.0967 363.503 119.656 456.453C119.656 456.453 150.691 500.104 218.23 507.15C218.23 507.15 281.956 518.649 325.918 480.559C366.496 445.511 394.209 350.845 337.853 254.4C329.682 240.48 317.693 229.201 303.311 221.901C284.553 212.185 256.577 194.919 253.814 161.452Z" fill="#FEFAE9"/>
<path d="M359.128 301.113C353.742 284.853 346.648 269.212 337.969 254.451C329.798 240.531 317.811 229.252 303.429 221.953C284.543 212.304 256.57 194.998 253.803 161.57C253.803 161.57 247.249 191.884 191.34 210.663C175.784 215.888 161.962 225.294 151.381 237.854C141.051 250.069 131.788 263.151 123.696 276.955C133.181 291.24 169.673 339.058 234.778 345.851C234.79 345.731 295.842 353.473 359.128 301.113Z" fill="#7DBE37"/>
<path d="M123.914 276.413C123.914 276.413 109.361 307.225 108.764 339.25C108.298 366.925 133.085 397.356 162.704 400.446C280.219 412.706 359.366 301.907 359.366 301.907C359.366 301.907 356.295 284.168 323.338 280.205C290.381 276.241 162.075 263.38 162.075 263.38C162.075 263.38 130.263 261.193 123.914 276.413Z" fill="#F2E865"/>
<path d="M165.909 289.28C186.653 291.445 205.227 276.356 207.395 255.58C209.563 234.803 194.503 216.206 173.758 214.042C153.013 211.878 134.439 226.966 132.272 247.742C130.104 268.519 145.164 287.116 165.909 289.28Z" fill="white"/>
<path d="M267.457 299.876C288.202 302.04 306.776 286.952 308.944 266.176C311.111 245.399 296.052 226.802 275.307 224.638C254.562 222.473 235.988 237.561 233.82 258.338C231.653 279.115 246.713 297.712 267.457 299.876Z" fill="white"/>
<path d="M306.256 292.324C305.72 292.261 305.209 292.067 304.768 291.758C304.326 291.449 303.969 291.034 303.727 290.552C303.485 290.07 303.365 289.536 303.381 288.997C303.397 288.457 303.548 287.931 303.817 287.464L310.537 276.041C310.753 275.679 311.037 275.363 311.375 275.112C311.713 274.861 312.098 274.681 312.506 274.581C312.915 274.48 313.34 274.462 313.755 274.528C314.17 274.593 314.568 274.74 314.925 274.961C315.655 275.398 316.182 276.107 316.391 276.932C316.6 277.756 316.474 278.63 316.041 279.362L309.345 290.544C309.072 291.121 308.629 291.6 308.077 291.918C307.525 292.236 306.89 292.377 306.256 292.324Z" fill="#E27E7C"/>
<path d="M315.477 296.762C314.946 296.694 314.44 296.494 314.005 296.182C313.569 295.871 313.217 295.457 312.98 294.976C312.743 294.496 312.628 293.964 312.645 293.428C312.662 292.892 312.81 292.369 313.078 291.904L319.734 280.717C320.17 279.987 320.876 279.459 321.7 279.249C322.523 279.04 323.397 279.165 324.128 279.599C324.493 279.811 324.812 280.094 325.066 280.431C325.32 280.768 325.506 281.155 325.61 281.565C325.713 281.975 325.733 282.4 325.67 282.819C325.607 283.237 325.461 283.638 325.241 283.999L318.587 295.186C318.275 295.721 317.815 296.154 317.263 296.433C316.711 296.713 316.092 296.827 315.477 296.762Z" fill="#E27E7C"/>
<path d="M118.541 271.811C118.073 271.77 117.62 271.627 117.214 271.39C116.483 270.946 115.957 270.23 115.749 269.398C115.541 268.567 115.667 267.689 116.103 266.951L122.798 255.766C123.258 255.087 123.959 254.609 124.758 254.43C125.558 254.251 126.395 254.385 127.099 254.804C127.803 255.224 128.322 255.899 128.546 256.688C128.77 257.477 128.685 258.322 128.307 259.05L121.608 270.272C121.298 270.796 120.844 271.221 120.3 271.493C119.757 271.766 119.146 271.876 118.541 271.811Z" fill="#E27E7C"/>
<path d="M127.646 276.236C127.191 276.193 126.751 276.049 126.357 275.817C125.628 275.381 125.101 274.674 124.892 273.849C124.683 273.024 124.811 272.149 125.244 271.417L131.903 260.191C132.119 259.824 132.405 259.504 132.746 259.249C133.086 258.994 133.475 258.809 133.888 258.705C134.3 258.602 134.729 258.582 135.149 258.645C135.57 258.709 135.972 258.856 136.336 259.077C136.697 259.292 137.013 259.577 137.263 259.916C137.513 260.254 137.693 260.639 137.793 261.048C137.893 261.458 137.911 261.883 137.846 262.299C137.78 262.715 137.631 263.115 137.41 263.473L130.751 274.701C130.431 275.224 129.97 275.644 129.421 275.916C128.871 276.187 128.255 276.299 127.646 276.236Z" fill="#E27E7C"/>
<path d="M259.921 269.992C268.805 270.919 276.76 264.457 277.688 255.559C278.617 246.662 272.167 238.697 263.283 237.77C254.399 236.843 246.444 243.305 245.516 252.203C244.587 261.101 251.037 269.065 259.921 269.992Z" fill="#4A1E0E"/>
<path d="M166.437 260.238C175.321 261.165 183.276 254.703 184.204 245.806C185.132 236.908 178.683 228.943 169.799 228.016C160.914 227.089 152.959 233.551 152.031 242.449C151.103 251.347 157.552 259.312 166.437 260.238Z" fill="#4A1E0E"/>
<path d="M149.831 524.224C148.844 524.123 147.89 523.807 147.037 523.299C146.184 522.791 145.451 522.103 144.891 521.283L119.495 483.917C118.916 483.181 118.494 482.334 118.256 481.428C118.017 480.522 117.967 479.577 118.11 478.65C118.252 477.724 118.584 476.835 119.083 476.042C119.583 475.25 120.241 474.569 121.014 474.042C121.788 473.514 122.661 473.151 123.58 472.975C124.5 472.8 125.447 472.816 126.359 473.023C127.272 473.229 128.132 473.621 128.887 474.174C129.642 474.728 130.275 475.432 130.746 476.241L156.187 513.57C157.19 515.075 157.564 516.914 157.227 518.693C156.891 520.471 155.873 522.047 154.389 523.081C153.053 523.99 151.437 524.396 149.831 524.224Z" fill="#695D41"/>
<path d="M160.306 525.922C158.733 525.76 157.265 525.056 156.153 523.93C155.042 522.804 154.354 521.326 154.21 519.749L151.211 486.62C151.122 484.862 151.713 483.138 152.862 481.806C154.012 480.474 155.632 479.636 157.381 479.469C159.131 479.303 160.878 479.82 162.257 480.911C163.636 482.003 164.539 483.585 164.781 485.328L167.818 518.501C167.975 520.306 167.411 522.101 166.253 523.494C165.095 524.886 163.435 525.765 161.634 525.938C161.191 525.972 160.748 525.968 160.306 525.922Z" fill="#695D41"/>
<path d="M267.346 536.484C266.103 536.349 264.92 535.875 263.925 535.116C262.93 534.357 262.161 533.34 261.702 532.175L247.763 496.006C247.309 495.155 247.041 494.217 246.976 493.255C246.911 492.292 247.05 491.327 247.384 490.422C247.718 489.517 248.24 488.693 248.915 488.005C249.589 487.316 250.401 486.78 251.298 486.428C252.195 486.076 253.156 485.917 254.118 485.964C255.08 486.012 256.02 486.263 256.879 486.7C257.737 487.138 258.494 487.753 259.098 488.505C259.702 489.256 260.14 490.127 260.384 491.06L274.323 527.229C274.956 528.922 274.903 530.796 274.173 532.45C273.442 534.104 272.093 535.405 270.415 536.076C269.434 536.434 268.387 536.574 267.346 536.484Z" fill="#695D41"/>
<path d="M256.744 535.984C255.191 535.811 253.743 535.118 252.632 534.018L216.102 497.393C215.458 496.763 214.945 496.01 214.593 495.181C214.24 494.352 214.056 493.46 214.048 492.559C214.041 491.658 214.212 490.765 214.551 489.93C214.891 489.095 215.392 488.334 216.026 487.694C216.66 487.054 217.414 486.546 218.245 486.199C219.075 485.852 219.965 485.672 220.865 485.671C221.765 485.67 222.657 485.848 223.488 486.193C224.319 486.539 225.074 487.047 225.709 487.686L262.44 524.332C263.382 525.342 263.997 526.615 264.206 527.981C264.416 529.348 264.209 530.745 263.613 531.992C263.016 533.24 262.057 534.278 260.863 534.971C259.668 535.665 258.293 535.981 256.916 535.88L256.744 535.984Z" fill="#695D41"/>
<path d="M191.388 268.62L191.209 206.527C191.199 205.736 191.453 204.964 191.932 204.335C192.411 203.706 193.086 203.257 193.851 203.057C194.615 202.858 195.423 202.921 196.147 203.236C196.871 203.551 197.47 204.099 197.846 204.794L231.91 266.989C232.74 268.448 233.093 270.129 232.919 271.8C232.745 273.471 232.052 275.045 230.938 276.302L185.416 325.869C184.889 326.444 184.188 326.826 183.42 326.96C182.653 327.093 181.863 326.971 181.173 326.609C180.484 326.246 179.934 325.666 179.608 324.958C179.282 324.249 179.199 323.452 179.371 322.691L191.579 268.72L191.388 268.62Z" fill="#695D41"/>
<path d="M231.908 266.988L197.828 204.954C197.505 204.339 197 203.838 196.383 203.521C195.766 203.203 195.067 203.084 194.38 203.18C194.653 203.35 194.89 203.572 195.078 203.834C195.265 204.097 195.399 204.394 195.471 204.708L214.927 265.376C215.393 266.915 215.547 268.532 215.38 270.132C215.213 271.732 214.729 273.282 213.955 274.692L182.963 325.773C182.667 326.327 182.177 326.751 181.587 326.964C182.226 327.197 182.921 327.23 183.579 327.061C184.238 326.892 184.83 326.527 185.278 326.015L230.801 276.449C231.968 275.196 232.705 273.603 232.905 271.901C233.104 270.199 232.754 268.477 231.908 266.988Z" fill="#84765B"/>
<path d="M466.237 300.164C420.447 316.321 371.707 306.225 356.728 302.44C353.272 301.534 349.61 301.836 346.348 303.296C338.824 306.464 332.377 311.745 327.784 318.502C323.191 325.258 320.65 333.202 320.466 341.372C319.343 369.544 330.515 412.902 342.319 429.329C343.577 431.093 345.371 432.403 347.433 433.063C349.495 433.722 351.713 433.695 353.759 432.987C452.916 397.665 474.011 338.196 478.301 310.233C478.546 308.668 478.382 307.065 477.824 305.582C477.267 304.099 476.336 302.786 475.121 301.772C473.905 300.757 472.447 300.077 470.89 299.795C469.333 299.513 467.73 299.64 466.237 300.164Z" fill="#5E9A33"/>
<path opacity="0.2" d="M349.35 433.499C349.35 433.499 400.32 439.625 443.8 466.105C444.983 466.812 446.326 467.202 447.703 467.238C449.08 467.275 450.443 466.956 451.662 466.312C452.88 465.667 453.913 464.719 454.66 463.56C455.407 462.401 455.844 461.069 455.928 459.692C457.43 432.53 448.471 369.116 345.616 318.053" fill="#5E9A33"/>
</g>
<path d="M294.774 110.26C294.494 110.119 294.004 109.732 293.305 109.098C292.675 108.464 292.046 107.759 291.416 106.984C290.787 106.138 290.367 105.504 290.157 105.082C289.948 104.729 289.948 104.095 290.157 103.179C290.437 102.263 290.717 101.805 290.997 101.805C291.207 101.946 291.486 101.7 291.836 101.065C292.186 100.431 292.535 99.7619 292.885 99.0573C293.235 98.2823 293.41 97.8243 293.41 97.6834C293.48 97.4016 293.655 97.1902 293.934 97.0493C294.284 96.8379 294.599 96.6265 294.879 96.4151C295.228 95.8515 295.683 95.2878 296.243 94.7241C296.872 94.09 297.362 93.5616 297.711 93.1388C298.271 92.4342 299.285 91.3774 300.754 89.9682C302.223 88.559 303.657 87.1146 305.056 85.635C306.524 84.0145 307.818 82.6053 308.937 81.4075C310.057 80.1393 310.651 79.2585 310.721 78.7653C310.721 78.7653 310.826 78.6597 311.036 78.4483C311.316 78.1664 311.63 77.9198 311.98 77.7085C312.33 77.4971 312.784 77.1448 313.344 76.6516C313.973 76.1584 314.498 75.7004 314.918 75.2777C315.058 74.714 315.372 74.0799 315.862 73.3753C316.422 72.6002 317.051 71.8604 317.75 71.1558C318.31 70.3103 318.835 69.3944 319.324 68.408C319.814 67.3511 320.129 66.5761 320.268 66.0828C320.478 65.3078 320.408 64.8498 320.059 64.7089C319.709 64.4975 318.765 64.1452 317.226 63.652C315.547 63.0884 313.973 62.9827 312.505 63.335C311.036 63.6873 309.077 64.7441 306.629 66.5056C305.65 66.717 304.741 66.9988 303.901 67.3511C303.132 67.7034 302.468 67.8443 301.908 67.7738C301.628 67.6329 301.314 67.3159 300.964 66.8227C300.614 66.3295 300.229 65.8715 299.81 65.4487L298.761 60.9042L302.013 59.1075C304.881 57.2756 307.609 55.9016 310.196 54.9857C312.854 53.9993 315.163 53.8231 317.121 54.4572C317.89 54.4572 318.59 54.5629 319.219 54.7743C319.849 54.9152 320.164 54.9857 320.164 54.9857C320.723 54.9152 321.528 55.197 322.577 55.8312C323.696 56.4653 324.78 57.2756 325.829 58.262C326.948 59.2484 327.718 60.2348 328.137 61.2212C329.256 62.9122 329.676 64.9555 329.396 67.3511C329.116 69.7467 328.102 72.2479 326.354 74.8549C326.004 75.2777 325.235 76.1584 324.046 77.4971C322.856 78.8358 321.493 80.3506 319.954 82.0416C318.485 83.6622 317.121 85.1066 315.862 86.3748C314.673 87.6431 313.904 88.4534 313.554 88.8056C313.064 89.017 312.225 89.6864 311.036 90.8137C309.917 91.941 308.693 93.2093 307.364 94.6185C306.105 95.9572 305.021 97.1549 304.111 98.2118C303.272 99.1982 302.922 99.6914 303.062 99.6914C302.992 99.9733 303.342 99.9733 304.111 99.6914C304.951 99.3392 305.685 99.0573 306.315 98.8459C307.364 98.4937 308.588 98.1766 309.987 97.8948C311.455 97.5425 312.924 97.2606 314.393 97.0493C315.862 96.8379 317.121 96.697 318.17 96.6265C319.289 96.5561 319.954 96.6265 320.164 96.8379C320.303 97.1902 320.408 97.3311 320.478 97.2606C320.618 97.1197 320.688 97.0493 320.688 97.0493C320.828 96.5561 321.702 96.4151 323.311 96.6265C324.99 96.8379 326.494 97.1549 327.823 97.5777C328.592 97.7891 329.186 98.0709 329.606 98.4232C330.096 98.7755 330.341 99.0926 330.341 99.3744C330.341 99.3744 330.41 99.5505 330.55 99.9028C330.76 100.185 331.075 100.572 331.495 101.065C332.614 101.981 332.614 102.968 331.495 104.025C330.445 105.082 328.522 105.363 325.724 104.87C323.906 104.87 322.402 104.976 321.213 105.187C320.933 105.328 320.338 105.399 319.429 105.399C318.52 105.399 317.646 105.434 316.806 105.504C315.547 105.363 314.288 105.434 313.029 105.716C311.77 105.927 310.266 106.315 308.518 106.878C307.888 107.09 306.909 107.407 305.58 107.829C304.251 108.252 302.817 108.675 301.279 109.098C299.74 109.52 298.341 109.837 297.082 110.049C295.893 110.26 295.123 110.331 294.774 110.26Z" fill="#FDFDFB"/>
<path d="M368.144 110.789C367.655 110.789 366.745 110.612 365.416 110.26C364.157 109.908 362.828 109.485 361.43 108.992C360.101 108.428 359.051 107.829 358.282 107.195C355.904 105.152 354.19 102.897 353.141 100.431C352.092 97.8948 351.462 95.323 351.253 92.7161C351.113 90.1091 351.218 87.6431 351.567 85.318C352.337 80.8086 353.945 76.3345 356.394 71.8957C358.842 67.3863 361.779 63.652 365.207 60.6928C367.025 59.0722 368.844 57.6983 370.662 56.571C372.481 55.4436 374.439 54.6334 376.538 54.1402C377.307 53.9288 378.391 53.8231 379.79 53.8231C381.259 53.7526 382.238 53.7174 382.728 53.7174C384.127 53.7174 385.665 54.0345 387.344 54.6686C389.093 55.2323 390.596 55.9369 391.855 56.7824C393.114 57.5574 393.744 58.2972 393.744 59.0018C393.744 59.495 393.709 59.9882 393.639 60.4814C393.569 60.9746 393.254 61.0803 392.695 60.7985H391.646L392.695 63.9691C392.975 64.5328 393.219 65.3078 393.429 66.2942C393.639 67.2102 393.744 68.0557 393.744 68.8307C393.744 69.5353 393.639 70.5922 393.429 72.0013C393.289 73.3401 393.044 74.7844 392.695 76.3345C392.415 77.8846 392.1 79.329 391.75 80.6677C391.471 82.0064 391.191 82.9928 390.911 83.627C390.701 84.0497 390.561 84.4725 390.491 84.8952C390.491 85.2475 390.491 85.5646 390.491 85.8464C390.212 86.4101 389.757 87.3965 389.128 88.8056C388.498 90.2148 388.043 91.2012 387.764 91.7649C387.484 92.0467 387.239 92.2933 387.029 92.5047C386.889 92.7161 386.959 92.9627 387.239 93.2445C387.239 93.4559 387.064 93.9491 386.714 94.7241C386.365 95.4287 385.98 96.0981 385.56 96.7322C385.211 97.3663 384.931 97.6834 384.721 97.6834C384.721 97.6834 384.616 97.7186 384.406 97.7891C384.266 97.7891 384.196 97.8948 384.196 98.1061C384.196 98.388 383.707 99.1278 382.728 100.326C381.818 101.523 380.734 102.756 379.475 104.025C378.776 104.729 377.657 105.645 376.118 106.773C374.579 107.829 373.04 108.781 371.502 109.626C370.033 110.401 368.914 110.789 368.144 110.789ZM367.934 100.643C368.704 100.643 369.438 100.537 370.138 100.326C370.837 100.044 371.432 99.6562 371.921 99.163C373.18 98.3175 374.369 97.1902 375.488 95.781C376.677 94.3718 377.657 92.7513 378.426 90.9194C379.195 89.8625 379.79 88.7704 380.21 87.6431C380.699 86.4453 381.434 84.4372 382.413 81.6189C382.972 80.8439 383.357 79.8927 383.567 78.7653C383.777 77.638 383.882 76.6868 383.882 75.9118C383.882 75.1367 383.882 74.0799 383.882 72.7412C383.952 71.4024 384.127 70.2751 384.406 69.3592C384.406 67.5272 384.371 66.4704 384.301 66.1885C384.231 65.8362 383.952 65.3783 383.462 64.8146C383.182 64.6032 382.798 64.3918 382.308 64.1805C381.888 63.9691 381.434 63.8634 380.944 63.8634C380.454 63.8634 379.79 64.0043 378.951 64.2862C378.181 64.4975 377.517 64.7794 376.957 65.1317C376.468 65.4135 375.908 65.4487 375.279 65.2373C374.719 65.026 374.439 64.7441 374.439 64.3918C374.439 63.4054 373.95 63.4759 372.97 64.6032C372.061 65.6601 370.837 67.1397 369.298 69.0421C368.039 70.3103 366.955 71.6138 366.046 72.9525C365.207 74.2208 364.787 74.9958 364.787 75.2777C364.787 75.5595 364.682 75.9118 364.472 76.3345C364.262 76.7573 364.052 77.2505 363.843 77.8142C363.493 78.3074 363.073 79.1176 362.584 80.245C362.094 81.3723 361.604 82.4996 361.115 83.627C360.695 84.6838 360.415 85.4941 360.275 86.0578C360.275 86.3396 360.275 87.1146 360.275 88.3829C360.275 89.5807 360.275 90.708 360.275 91.7649C360.275 92.9627 360.31 93.8434 360.38 94.4071C360.45 94.9707 360.555 95.4287 360.695 95.781C360.905 96.1333 361.185 96.6617 361.534 97.3663C361.814 97.8595 362.234 98.4584 362.793 99.163C363.423 99.7971 363.843 100.255 364.052 100.537C364.822 101.242 365.311 101.523 365.521 101.382C365.801 101.171 366.605 100.924 367.934 100.643Z" fill="#FDFDFB"/>
<path d="M415.026 110.26C414.747 110.119 414.257 109.732 413.558 109.098C412.928 108.464 412.299 107.759 411.669 106.984C411.04 106.138 410.62 105.504 410.41 105.082C410.2 104.729 410.2 104.095 410.41 103.179C410.69 102.263 410.97 101.805 411.249 101.805C411.459 101.946 411.739 101.7 412.089 101.065C412.439 100.431 412.788 99.7619 413.138 99.0573C413.488 98.2823 413.663 97.8243 413.663 97.6834C413.733 97.4016 413.907 97.1902 414.187 97.0493C414.537 96.8379 414.852 96.6265 415.131 96.4151C415.481 95.8515 415.936 95.2878 416.495 94.7241C417.125 94.09 417.614 93.5616 417.964 93.1388C418.524 92.4342 419.538 91.3774 421.007 89.9682C422.476 88.559 423.909 87.1146 425.308 85.635C426.777 84.0145 428.071 82.6053 429.19 81.4075C430.309 80.1393 430.904 79.2585 430.974 78.7653C430.974 78.7653 431.079 78.6597 431.289 78.4483C431.568 78.1664 431.883 77.9198 432.233 77.7085C432.583 77.4971 433.037 77.1448 433.597 76.6516C434.226 76.1584 434.751 75.7004 435.171 75.2777C435.31 74.714 435.625 74.0799 436.115 73.3753C436.674 72.6002 437.304 71.8604 438.003 71.1558C438.563 70.3103 439.087 69.3944 439.577 68.408C440.067 67.3511 440.381 66.5761 440.521 66.0828C440.731 65.3078 440.661 64.8498 440.311 64.7089C439.962 64.4975 439.017 64.1452 437.479 63.652C435.8 63.0884 434.226 62.9827 432.757 63.335C431.289 63.6873 429.33 64.7441 426.882 66.5056C425.903 66.717 424.994 66.9988 424.154 67.3511C423.385 67.7034 422.72 67.8443 422.161 67.7738C421.881 67.6329 421.566 67.3159 421.217 66.8227C420.867 66.3295 420.482 65.8715 420.062 65.4487L419.013 60.9042L422.266 59.1075C425.133 57.2756 427.861 55.9016 430.449 54.9857C433.107 53.9993 435.415 53.8231 437.374 54.4572C438.143 54.4572 438.843 54.5629 439.472 54.7743C440.102 54.9152 440.416 54.9857 440.416 54.9857C440.976 54.9152 441.78 55.197 442.829 55.8312C443.949 56.4653 445.033 57.2756 446.082 58.262C447.201 59.2484 447.97 60.2348 448.39 61.2212C449.509 62.9122 449.929 64.9555 449.649 67.3511C449.369 69.7467 448.355 72.2479 446.606 74.8549C446.257 75.2777 445.487 76.1584 444.298 77.4971C443.109 78.8358 441.745 80.3506 440.207 82.0416C438.738 83.6622 437.374 85.1066 436.115 86.3748C434.926 87.6431 434.156 88.4534 433.807 88.8056C433.317 89.017 432.478 89.6864 431.289 90.8137C430.169 91.941 428.945 93.2093 427.617 94.6185C426.358 95.9572 425.273 97.1549 424.364 98.2118C423.525 99.1982 423.175 99.6914 423.315 99.6914C423.245 99.9733 423.595 99.9733 424.364 99.6914C425.203 99.3392 425.938 99.0573 426.567 98.8459C427.617 98.4937 428.841 98.1766 430.239 97.8948C431.708 97.5425 433.177 97.2606 434.646 97.0493C436.115 96.8379 437.374 96.697 438.423 96.6265C439.542 96.5561 440.207 96.6265 440.416 96.8379C440.556 97.1902 440.661 97.3311 440.731 97.2606C440.871 97.1197 440.941 97.0493 440.941 97.0493C441.081 96.5561 441.955 96.4151 443.564 96.6265C445.243 96.8379 446.746 97.1549 448.075 97.5777C448.845 97.7891 449.439 98.0709 449.859 98.4232C450.348 98.7755 450.593 99.0926 450.593 99.3744C450.593 99.3744 450.663 99.5505 450.803 99.9028C451.013 100.185 451.328 100.572 451.747 101.065C452.866 101.981 452.866 102.968 451.747 104.025C450.698 105.082 448.775 105.363 445.977 104.87C444.158 104.87 442.655 104.976 441.466 105.187C441.186 105.328 440.591 105.399 439.682 105.399C438.773 105.399 437.898 105.434 437.059 105.504C435.8 105.363 434.541 105.434 433.282 105.716C432.023 105.927 430.519 106.315 428.771 106.878C428.141 107.09 427.162 107.407 425.833 107.829C424.504 108.252 423.07 108.675 421.531 109.098C419.993 109.52 418.594 109.837 417.335 110.049C416.146 110.26 415.376 110.331 415.026 110.26Z" fill="#FDFDFB"/>
<path d="M483.256 111C481.507 111 479.794 110.683 478.115 110.049C476.506 109.344 475.212 108.534 474.233 107.618C473.254 106.702 472.799 105.821 472.869 104.976C472.939 103.848 473.324 102.968 474.023 102.334C474.723 101.7 475.842 101.488 477.381 101.7C479.759 102.193 482.172 102.369 484.62 102.228C487.068 102.017 489.341 101.523 491.44 100.748C493.608 99.9733 495.356 98.9164 496.685 97.5777C498.574 95.7458 499.553 94.1957 499.623 92.9275C499.693 91.5887 498.714 90.25 496.685 88.9113C495.776 88.2772 494.657 87.6783 493.328 87.1146C491.999 86.551 490.67 86.1282 489.341 85.8464C488.082 85.4941 486.963 85.3532 485.984 85.4236C485.354 85.4941 484.585 85.3884 483.676 85.1066C482.766 84.7543 481.857 84.3315 480.948 83.8383C480.528 83.3451 480.144 82.5349 479.794 81.4075C479.444 80.2802 479.199 79.5756 479.059 79.2938C478.989 78.9415 479.234 78.5187 479.794 78.0255C480.353 77.5323 481.473 76.7925 483.151 75.8061C484.83 74.7492 487.278 73.3401 490.495 71.5786C493.433 69.9581 495.671 68.725 497.21 67.8795C498.819 66.9636 500.043 66.259 500.882 65.7658C501.791 65.2021 502.561 64.6385 503.19 64.0748C504.03 63.0884 504.414 62.3486 504.344 61.8554C504.274 61.3621 503.33 60.9394 501.512 60.5871C499.763 60.4462 498.364 60.4462 497.315 60.5871C496.266 60.6576 495.741 60.8337 495.741 61.1155C495.741 61.1155 495.706 61.1155 495.636 61.1155C495.636 61.1155 495.531 61.1155 495.322 61.1155C494.972 60.9746 494.202 61.0099 493.013 61.2212C491.824 61.4326 490.67 61.6792 489.551 61.961C488.502 62.2429 487.942 62.4895 487.872 62.7008C487.802 62.8418 487.313 63.0884 486.404 63.4407C485.564 63.7225 484.69 63.9691 483.781 64.1805C482.941 64.3918 482.417 64.4975 482.207 64.4975C481.857 64.3566 481.438 63.8634 480.948 63.0179C480.528 62.1724 480.179 61.2917 479.899 60.3757C479.619 59.3893 479.549 58.72 479.689 58.3677C479.829 58.0858 480.318 57.6631 481.158 57.0994C482.067 56.4653 483.081 55.8312 484.2 55.197C485.319 54.4925 486.264 53.964 487.033 53.6117C488.012 53.3299 489.446 53.0833 491.335 52.8719C493.293 52.5901 495.217 52.3787 497.105 52.2378C499.064 52.0264 500.462 51.956 501.302 52.0264C504.519 52.3787 507.107 53.2242 509.066 54.5629C511.024 55.8312 512.283 57.8745 512.843 60.6928C513.052 61.6792 513.052 62.7008 512.843 63.7577C512.633 64.8146 512.178 65.8715 511.479 66.9283C510.779 67.9852 509.73 69.1478 508.331 70.416C506.583 71.5434 505.219 72.4946 504.239 73.2696C503.33 73.9742 502.071 74.714 500.462 75.489C499.973 75.8413 499.203 76.2288 498.154 76.6516C497.105 77.0743 496.126 77.4619 495.217 77.8142C494.307 78.1664 493.853 78.413 493.853 78.554C493.853 78.554 494.167 78.6244 494.797 78.7653C495.496 78.8358 496.231 78.9767 497 79.1881C497.84 79.329 498.434 79.5756 498.784 79.9279C500.812 80.6325 502.666 81.8655 504.344 83.627C506.093 85.318 507.317 86.6567 508.016 87.6431C508.996 89.8273 509.101 92.2229 508.331 94.8298C507.632 97.3663 506.338 99.7971 504.449 102.122C502.631 104.377 500.497 106.244 498.049 107.724C496.091 108.851 493.678 109.661 490.81 110.155C488.012 110.577 485.494 110.859 483.256 111Z" fill="#FDFDFB"/>
<path d="M294.761 166.69C295.363 168.625 294.761 169.872 292.998 170.388C291.063 170.99 289.73 170.431 289.171 168.539C288.354 165.744 287.494 162.949 286.634 160.154H275.626L272.831 168.711C272.315 170.388 271.197 170.947 269.52 170.431C267.843 169.915 267.241 168.754 267.843 167.034L276.787 141.234C277.561 138.912 278.894 137.794 281.13 137.794C283.366 137.794 285.172 138.912 285.989 141.234C288.655 148.63 292.052 158.219 294.761 166.69ZM276.916 156.198H285.43C284.097 151.898 282.764 147.641 281.431 143.513H281.087L276.916 156.198Z" fill="#594A39"/>
<path d="M314.444 146.996C319.045 146.996 322.442 150.092 322.442 155.51V167.765C322.442 169.614 321.41 170.646 319.518 170.646C317.626 170.646 316.594 169.614 316.594 167.765V155.983C316.594 152.801 315.175 150.995 312.81 150.995C310.273 150.995 308.381 153.059 307.736 155.596V167.765C307.736 169.614 306.704 170.646 304.769 170.646C302.92 170.646 301.845 169.614 301.845 167.765V149.705C301.845 147.985 302.834 147.039 304.597 147.039C306.317 146.996 307.306 147.899 307.306 149.662V150.995C308.768 148.329 311.348 146.996 314.444 146.996Z" fill="#594A39"/>
<path d="M343.081 146.996C347.682 146.996 351.079 150.092 351.079 155.51V167.765C351.079 169.614 350.047 170.646 348.155 170.646C346.263 170.646 345.231 169.614 345.231 167.765V155.983C345.231 152.801 343.812 150.995 341.447 150.995C338.91 150.995 337.018 153.059 336.373 155.596V167.765C336.373 169.614 335.341 170.646 333.406 170.646C331.557 170.646 330.482 169.614 330.482 167.765V149.705C330.482 147.985 331.471 147.039 333.234 147.039C334.954 146.996 335.943 147.899 335.943 149.662V150.995C337.405 148.329 339.985 146.996 343.081 146.996Z" fill="#594A39"/>
<path d="M376.276 146.996C378.125 146.996 379.157 148.028 379.157 149.834V168.066C379.157 169.7 378.211 170.646 376.534 170.646C374.857 170.646 373.911 169.7 373.868 168.109V166.776C372.578 169.27 370.041 170.603 366.902 170.603C361.699 170.603 358.732 167.593 358.732 162.304V149.877C358.732 148.028 359.764 146.996 361.656 146.996C363.548 146.996 364.623 148.028 364.623 149.877V161.487C364.623 165.013 365.698 166.561 368.278 166.561C371.073 166.561 372.922 163.68 373.395 161.659V149.834C373.395 148.028 374.427 146.996 376.276 146.996Z" fill="#594A39"/>
<path d="M404.401 149.576C405.691 150.909 406.336 152.844 406.336 155.424V167.851C406.336 169.657 405.519 170.646 403.756 170.646C401.95 170.646 401.047 169.657 401.047 167.851V166.69C399.499 169.313 396.661 170.646 393.264 170.646C388.749 170.646 385.997 168.023 385.997 163.852C385.997 158.821 390.684 155.596 397.865 155.51C398.983 155.467 400.101 155.553 400.703 155.682V155.252C400.703 152.457 399.284 150.909 396.618 150.866C394.253 150.823 392.275 152.027 390.727 153.618C389.867 154.521 388.577 154.693 387.674 153.919C386.771 153.188 386.642 151.984 387.459 150.909C388.921 149.06 392.146 146.996 396.704 146.996C400.23 146.996 402.724 147.856 404.401 149.576ZM400.703 162.562V159.294C400.015 159.208 398.94 159.122 397.908 159.165C393.221 159.337 391.501 161.358 391.544 163.465C391.587 165.4 392.576 166.475 394.64 166.518C397.048 166.561 399.499 164.841 400.703 162.562Z" fill="#594A39"/>
<path d="M420.053 170.646C415.968 170.603 414.377 168.883 414.377 164.239V139.342C414.377 137.493 415.409 136.461 417.301 136.461C419.15 136.461 420.225 137.493 420.225 139.342V164.368C420.225 165.787 420.483 166.217 421.472 166.217C422.203 166.217 422.461 165.916 423.192 165.916C423.966 165.916 424.869 166.561 424.869 167.98C424.869 170.087 422.633 170.646 420.053 170.646Z" fill="#594A39"/>
<path d="M457.691 170.259C454.896 170.259 453.133 170.13 451.585 169.915C449.607 169.614 448.618 168.496 448.618 166.561V141.836C448.618 139.901 449.65 138.783 451.671 138.568C453.176 138.396 454.681 138.267 457.433 138.267C467.882 138.267 474.375 143.685 474.375 153.704C474.375 164.454 468.57 170.259 457.691 170.259ZM457.433 166.174C465.259 166.174 468.269 161.917 468.269 153.962C468.269 146.222 464.528 142.352 457.261 142.352C456.358 142.352 455.541 142.438 455.025 142.481C454.724 142.524 454.595 142.696 454.595 142.954V165.486C454.595 165.744 454.724 165.916 455.025 166.002C455.584 166.088 456.487 166.174 457.433 166.174Z" fill="#594A39"/>
<path d="M498.835 149.576C500.125 150.909 500.77 152.844 500.77 155.424V167.851C500.77 169.657 499.953 170.646 498.19 170.646C496.384 170.646 495.481 169.657 495.481 167.851V166.69C493.933 169.313 491.095 170.646 487.698 170.646C483.183 170.646 480.431 168.023 480.431 163.852C480.431 158.821 485.118 155.596 492.299 155.51C493.417 155.467 494.535 155.553 495.137 155.682V155.252C495.137 152.457 493.718 150.909 491.052 150.866C488.687 150.823 486.709 152.027 485.161 153.618C484.301 154.521 483.011 154.693 482.108 153.919C481.205 153.188 481.076 151.984 481.893 150.909C483.355 149.06 486.58 146.996 491.138 146.996C494.664 146.996 497.158 147.856 498.835 149.576ZM495.137 162.562V159.294C494.449 159.208 493.374 159.122 492.342 159.165C487.655 159.337 485.935 161.358 485.978 163.465C486.021 165.4 487.01 166.475 489.074 166.518C491.482 166.561 493.933 164.841 495.137 162.562Z" fill="#594A39"/>
<path d="M519.838 165.529C520.913 165.529 521.601 166.819 521.601 167.765C521.601 169.786 518.548 170.302 516.312 170.302C512.012 170.302 510.034 168.195 510.034 163.508V151.683H507.411C506.25 151.683 505.562 150.952 505.562 149.662C505.562 148.372 506.25 147.641 507.411 147.641H510.034V144.244C510.034 142.395 511.066 141.363 512.958 141.363C514.85 141.363 515.882 142.395 515.882 144.244V147.641H519.58C520.741 147.641 521.386 148.372 521.386 149.662C521.386 150.952 520.741 151.683 519.58 151.683H515.882V163.465C515.882 165.443 516.398 166.174 517.387 166.088C518.333 166.002 518.935 165.529 519.838 165.529Z" fill="#594A39"/>
<path d="M544.897 149.576C546.187 150.909 546.832 152.844 546.832 155.424V167.851C546.832 169.657 546.015 170.646 544.252 170.646C542.446 170.646 541.543 169.657 541.543 167.851V166.69C539.995 169.313 537.157 170.646 533.76 170.646C529.245 170.646 526.493 168.023 526.493 163.852C526.493 158.821 531.18 155.596 538.361 155.51C539.479 155.467 540.597 155.553 541.199 155.682V155.252C541.199 152.457 539.78 150.909 537.114 150.866C534.749 150.823 532.771 152.027 531.223 153.618C530.363 154.521 529.073 154.693 528.17 153.919C527.267 153.188 527.138 151.984 527.955 150.909C529.417 149.06 532.642 146.996 537.2 146.996C540.726 146.996 543.22 147.856 544.897 149.576ZM541.199 162.562V159.294C540.511 159.208 539.436 159.122 538.404 159.165C533.717 159.337 531.997 161.358 532.04 163.465C532.083 165.4 533.072 166.475 535.136 166.518C537.544 166.561 539.995 164.841 541.199 162.562Z" fill="#594A39"/>
<defs>
<clipPath id="clip0_3233_1191">
<rect width="455.073" height="372.205" fill="white" transform="translate(38.6222 139) rotate(5.95607)"/>
</clipPath>
</defs>
</svg>
