<svg width="624" height="557" viewBox="0 0 624 557" fill="none" xmlns="http://www.w3.org/2000/svg">
<path opacity="0.7" d="M428.975 0C561.53 0 634.415 50.7446 621.62 136.21C610.873 208 553.84 235.816 466.217 244.799C466.002 251.89 464.2 258.844 460.947 265.146C457.694 271.449 453.072 276.941 447.419 281.219C446.774 281.715 445.992 282.005 445.18 282.046C444.368 282.087 443.562 281.879 442.871 281.45C442.179 281.022 441.636 280.394 441.31 279.648C440.985 278.902 440.894 278.073 441.05 277.274C442.006 271.782 441.596 266.14 439.851 260.846C438.105 255.551 435.079 250.768 431.045 246.924C419.564 247.41 427.62 247.654 415.21 247.654C282.654 247.654 191.999 198.184 191.999 111.444C191.999 24.7039 296.419 0 428.975 0Z" fill="#B8C318"/>
<g clip-path="url(#clip0_3226_45)">
<path d="M151.041 280.171C151.041 280.171 89.3564 285.86 39.5673 255.649C38.2143 254.828 36.6705 254.373 35.0888 254.328C33.5072 254.282 31.9416 254.647 30.5431 255.389C29.1445 256.13 27.9606 257.223 27.1092 258.559C26.2577 259.895 25.7678 261.429 25.685 263.012C23.9736 294.113 34.2393 366.675 151.741 425.086" fill="#5E9A33"/>
<path opacity="0.2" d="M153.252 424.515C153.252 424.515 101.582 408.456 53.5727 425.391C52.2696 425.839 50.8746 425.944 49.5197 425.695C48.1648 425.446 46.895 424.852 45.8359 423.97C44.7767 423.089 43.9639 421.948 43.4722 420.659C42.9804 419.371 42.8275 417.978 43.0293 416.613C47.1661 389.726 69.0211 329.526 180.001 300.773" fill="#5E9A33"/>
<path d="M193.264 498.723C197.879 483.793 192.164 468.762 180.497 465.147C168.83 461.533 155.631 470.704 151.015 485.634C146.399 500.564 152.116 515.598 163.783 519.212C175.449 522.826 188.648 513.653 193.264 498.723Z" fill="#FEFAE9"/>
<path d="M271.233 529.677C283.395 528.548 292.091 515.019 290.657 499.457C289.222 483.896 278.199 472.196 266.038 473.324C253.877 474.453 245.182 487.982 246.616 503.543C248.051 519.105 259.072 530.805 271.233 529.677Z" fill="#FEFAE9"/>
<path d="M253.814 161.451C253.814 161.451 247.26 191.763 191.351 210.542C175.796 215.767 161.973 225.175 151.392 237.735C118.468 276.774 63.0967 363.502 119.656 456.453C119.656 456.453 150.691 500.104 218.23 507.15C218.23 507.15 281.956 518.649 325.918 480.559C366.496 445.511 394.209 350.845 337.853 254.4C329.682 240.48 317.693 229.201 303.311 221.901C284.553 212.185 256.577 194.919 253.814 161.451Z" fill="#FEFAE9"/>
<path d="M359.128 301.113C353.742 284.853 346.648 269.212 337.969 254.451C329.798 240.531 317.811 229.252 303.429 221.953C284.543 212.304 256.57 194.998 253.803 161.57C253.803 161.57 247.249 191.884 191.34 210.663C175.784 215.888 161.962 225.294 151.381 237.854C141.051 250.069 131.788 263.151 123.696 276.955C133.181 291.24 169.673 339.058 234.778 345.851C234.79 345.731 295.842 353.473 359.128 301.113Z" fill="#7DBE37"/>
<path d="M123.914 276.412C123.914 276.412 109.361 307.224 108.764 339.25C108.298 366.924 133.085 397.355 162.704 400.445C280.219 412.705 359.366 301.906 359.366 301.906C359.366 301.906 356.295 284.168 323.338 280.204C290.381 276.24 162.075 263.38 162.075 263.38C162.075 263.38 130.263 261.192 123.914 276.412Z" fill="#F2E865"/>
<path d="M165.909 289.28C186.653 291.444 205.227 276.356 207.395 255.579C209.563 234.803 194.503 216.206 173.758 214.041C153.013 211.877 134.439 226.965 132.272 247.742C130.104 268.518 145.164 287.116 165.909 289.28Z" fill="white"/>
<path d="M267.457 299.875C288.202 302.039 306.776 286.951 308.944 266.174C311.111 245.398 296.052 226.8 275.307 224.636C254.562 222.472 235.988 237.56 233.82 258.337C231.653 279.113 246.713 297.71 267.457 299.875Z" fill="white"/>
<path d="M306.256 292.323C305.72 292.261 305.209 292.067 304.768 291.758C304.326 291.448 303.969 291.034 303.727 290.552C303.485 290.07 303.365 289.536 303.381 288.996C303.397 288.457 303.548 287.93 303.817 287.463L310.537 276.04C310.753 275.678 311.037 275.362 311.375 275.111C311.713 274.861 312.098 274.681 312.506 274.58C312.915 274.48 313.34 274.461 313.755 274.527C314.17 274.593 314.568 274.74 314.925 274.961C315.655 275.397 316.182 276.106 316.391 276.931C316.6 277.756 316.474 278.629 316.041 279.361L309.345 290.544C309.072 291.12 308.629 291.599 308.077 291.917C307.525 292.235 306.89 292.377 306.256 292.323Z" fill="#E27E7C"/>
<path d="M315.477 296.762C314.946 296.693 314.441 296.493 314.005 296.182C313.569 295.87 313.217 295.456 312.98 294.976C312.743 294.495 312.628 293.963 312.645 293.427C312.662 292.891 312.81 292.368 313.078 291.904L319.734 280.717C320.17 279.986 320.876 279.458 321.7 279.249C322.523 279.039 323.397 279.165 324.128 279.599C324.493 279.811 324.812 280.093 325.066 280.431C325.32 280.768 325.506 281.155 325.61 281.565C325.713 281.975 325.733 282.4 325.67 282.818C325.607 283.236 325.461 283.638 325.241 283.999L318.587 295.186C318.275 295.72 317.815 296.154 317.263 296.433C316.711 296.712 316.092 296.827 315.477 296.762Z" fill="#E27E7C"/>
<path d="M118.541 271.81C118.073 271.768 117.62 271.625 117.214 271.389C116.483 270.944 115.957 270.228 115.749 269.397C115.541 268.566 115.667 267.687 116.103 266.95L122.798 255.765C123.258 255.085 123.959 254.607 124.758 254.428C125.558 254.249 126.395 254.383 127.099 254.803C127.803 255.222 128.322 255.897 128.546 256.686C128.77 257.475 128.685 258.321 128.307 259.049L121.608 270.271C121.298 270.795 120.844 271.219 120.3 271.492C119.757 271.765 119.146 271.874 118.541 271.81Z" fill="#E27E7C"/>
<path d="M127.646 276.236C127.191 276.193 126.751 276.049 126.357 275.817C125.628 275.381 125.101 274.674 124.892 273.849C124.683 273.024 124.811 272.149 125.244 271.417L131.903 260.191C132.119 259.824 132.405 259.504 132.746 259.249C133.086 258.994 133.475 258.809 133.888 258.705C134.3 258.602 134.729 258.582 135.149 258.645C135.57 258.709 135.972 258.856 136.336 259.077C136.697 259.292 137.013 259.577 137.263 259.916C137.513 260.254 137.693 260.639 137.793 261.048C137.893 261.458 137.911 261.883 137.846 262.299C137.78 262.715 137.631 263.115 137.41 263.473L130.751 274.701C130.431 275.224 129.97 275.644 129.421 275.916C128.871 276.187 128.255 276.299 127.646 276.236Z" fill="#E27E7C"/>
<path d="M259.921 269.991C268.805 270.918 276.76 264.456 277.688 255.558C278.617 246.66 272.167 238.696 263.283 237.769C254.399 236.842 246.444 243.304 245.516 252.201C244.587 261.099 251.037 269.064 259.921 269.991Z" fill="#4A1E0E"/>
<path d="M166.437 260.237C175.321 261.164 183.276 254.703 184.204 245.805C185.132 236.907 178.683 228.942 169.799 228.015C160.914 227.088 152.959 233.55 152.031 242.448C151.103 251.346 157.552 259.311 166.437 260.237Z" fill="#4A1E0E"/>
<path d="M149.831 524.223C148.844 524.122 147.89 523.806 147.037 523.298C146.184 522.79 145.451 522.102 144.891 521.282L119.495 483.916C118.916 483.18 118.494 482.333 118.256 481.427C118.017 480.521 117.967 479.576 118.11 478.649C118.252 477.723 118.584 476.834 119.083 476.041C119.583 475.249 120.241 474.568 121.014 474.041C121.788 473.513 122.661 473.15 123.58 472.974C124.5 472.799 125.447 472.815 126.359 473.022C127.272 473.228 128.132 473.62 128.887 474.173C129.642 474.727 130.275 475.431 130.746 476.24L156.187 513.569C157.19 515.074 157.564 516.913 157.227 518.692C156.891 520.47 155.873 522.046 154.389 523.08C153.053 523.989 151.437 524.395 149.831 524.223Z" fill="#695D41"/>
<path d="M160.306 525.921C158.733 525.759 157.265 525.055 156.153 523.929C155.042 522.803 154.354 521.325 154.21 519.748L151.211 486.62C151.122 484.861 151.713 483.137 152.862 481.805C154.012 480.473 155.632 479.635 157.381 479.469C159.131 479.302 160.878 479.819 162.257 480.911C163.636 482.002 164.539 483.584 164.781 485.328L167.818 518.5C167.975 520.306 167.411 522.1 166.253 523.493C165.095 524.886 163.435 525.764 161.634 525.938C161.191 525.972 160.748 525.967 160.306 525.921Z" fill="#695D41"/>
<path d="M267.346 536.483C266.103 536.348 264.92 535.874 263.925 535.115C262.93 534.356 262.161 533.339 261.702 532.174L247.763 496.006C247.309 495.154 247.041 494.216 246.976 493.254C246.911 492.291 247.05 491.326 247.384 490.421C247.718 489.516 248.24 488.692 248.915 488.004C249.589 487.315 250.401 486.779 251.298 486.427C252.195 486.075 253.156 485.916 254.118 485.963C255.08 486.011 256.02 486.262 256.879 486.699C257.737 487.137 258.494 487.752 259.098 488.504C259.702 489.255 260.14 490.126 260.384 491.059L274.323 527.228C274.956 528.921 274.903 530.795 274.173 532.449C273.442 534.103 272.093 535.404 270.415 536.075C269.434 536.433 268.387 536.573 267.346 536.483Z" fill="#695D41"/>
<path d="M256.744 535.982C255.191 535.809 253.743 535.116 252.632 534.016L216.102 497.391C215.458 496.761 214.945 496.009 214.593 495.179C214.24 494.35 214.056 493.459 214.048 492.557C214.041 491.656 214.212 490.763 214.551 489.928C214.891 489.093 215.392 488.332 216.026 487.692C216.66 487.052 217.414 486.544 218.245 486.197C219.076 485.85 219.965 485.67 220.865 485.669C221.765 485.668 222.657 485.846 223.488 486.191C224.319 486.537 225.074 487.045 225.709 487.684L262.44 524.33C263.382 525.34 263.997 526.613 264.206 527.979C264.416 529.346 264.209 530.743 263.613 531.99C263.016 533.238 262.057 534.276 260.863 534.969C259.668 535.663 258.293 535.979 256.916 535.878L256.744 535.982Z" fill="#695D41"/>
<path d="M191.388 268.619L191.209 206.526C191.199 205.735 191.453 204.963 191.932 204.334C192.411 203.705 193.086 203.256 193.851 203.056C194.615 202.857 195.423 202.92 196.147 203.235C196.871 203.55 197.47 204.098 197.846 204.793L231.91 266.988C232.74 268.447 233.093 270.128 232.919 271.799C232.745 273.47 232.052 275.044 230.938 276.301L185.416 325.868C184.889 326.443 184.188 326.825 183.42 326.959C182.653 327.092 181.863 326.97 181.173 326.608C180.484 326.245 179.934 325.665 179.608 324.957C179.282 324.248 179.199 323.451 179.371 322.69L191.579 268.719L191.388 268.619Z" fill="#695D41"/>
<path d="M231.908 266.988L197.828 204.954C197.505 204.339 197 203.838 196.383 203.521C195.766 203.203 195.067 203.084 194.38 203.18C194.653 203.35 194.89 203.572 195.078 203.834C195.265 204.097 195.399 204.394 195.471 204.708L214.927 265.376C215.393 266.915 215.547 268.532 215.38 270.132C215.213 271.732 214.729 273.282 213.955 274.692L182.963 325.773C182.667 326.327 182.177 326.751 181.587 326.964C182.226 327.197 182.921 327.23 183.579 327.061C184.238 326.892 184.83 326.527 185.278 326.015L230.801 276.449C231.968 275.196 232.705 273.603 232.905 271.901C233.104 270.199 232.754 268.477 231.908 266.988Z" fill="#84765B"/>
<path d="M466.237 300.164C420.447 316.321 371.707 306.225 356.728 302.44C353.272 301.534 349.61 301.836 346.348 303.296C338.824 306.464 332.377 311.745 327.784 318.502C323.191 325.258 320.65 333.202 320.466 341.372C319.343 369.544 330.515 412.902 342.319 429.329C343.577 431.093 345.371 432.403 347.433 433.063C349.495 433.722 351.713 433.695 353.759 432.987C452.916 397.665 474.011 338.196 478.301 310.233C478.546 308.668 478.382 307.065 477.824 305.582C477.267 304.099 476.336 302.786 475.121 301.772C473.905 300.757 472.447 300.077 470.89 299.795C469.333 299.513 467.73 299.64 466.237 300.164Z" fill="#5E9A33"/>
<path opacity="0.2" d="M349.35 433.497C349.35 433.497 400.32 439.623 443.8 466.103C444.983 466.81 446.326 467.2 447.703 467.237C449.08 467.273 450.443 466.954 451.662 466.31C452.88 465.665 453.913 464.717 454.66 463.558C455.407 462.399 455.844 461.067 455.928 459.69C457.43 432.528 448.471 369.114 345.616 318.051" fill="#5E9A33"/>
</g>
<path d="M334.302 169.5C335.652 169.5 336.408 170.256 336.408 171.606C336.408 173.01 335.652 173.766 334.302 173.766H318.426V184.62C318.426 186.888 317.13 187.968 314.862 187.968C312.594 187.968 311.298 186.888 311.298 184.62V173.766H289.806C288.402 173.766 287.646 173.01 287.646 171.606C287.646 170.256 288.402 169.5 289.806 169.5H296.988V158.268C296.988 156.216 298.122 155.136 300.174 155.136H311.298V148.008H301.308C298.77 152.328 295.422 156.27 292.29 158.538C291.426 159.24 290.616 159.24 289.968 158.538C289.266 157.782 289.212 156.972 289.86 156.108C293.208 151.734 295.746 145.794 297.42 139.422C298.068 136.884 299.742 136.236 302.172 136.83C304.548 137.37 305.304 139.26 304.278 141.906C304.008 142.554 303.792 143.202 303.468 143.85H332.844C334.194 143.85 334.95 144.552 334.95 145.902C334.95 147.252 334.194 148.008 332.844 148.008H318.426V155.136H330.036C331.332 155.136 332.034 155.838 332.034 157.134C332.034 158.43 331.332 159.132 330.036 159.132H318.426V169.5H334.302ZM311.298 169.5V159.132H304.494C304.116 159.132 303.846 159.402 303.846 159.78V169.5H311.298Z" fill="#594A39"/>
<path d="M359.952 147.306V157.998C359.952 172.2 357.63 181.596 352.662 187.158C351.96 188.022 350.88 188.13 350.124 187.482C349.314 186.888 349.098 186.132 349.584 185.16C352.338 179.544 353.094 172.2 353.094 157.35V145.74C353.094 143.634 354.174 142.446 356.226 142.446H372.048V140.286C372.048 138.288 373.344 137.154 375.72 137.154C378.042 137.154 379.392 138.288 379.392 140.286V142.446H395.214C396.51 142.446 397.212 143.256 397.212 144.552C397.212 145.848 396.51 146.604 395.214 146.604H360.6C360.222 146.604 359.952 146.928 359.952 147.306ZM369.996 163.614C367.944 163.614 366.864 162.48 366.864 160.482V156.162H362.328C361.086 156.162 360.438 155.406 360.438 154.164C360.438 152.976 361.086 152.274 362.328 152.274H366.864V149.844C366.864 148.17 367.998 147.198 370.05 147.198C371.994 147.198 373.236 148.17 373.236 149.844V152.274H381.768V149.79C381.768 148.116 382.902 147.144 384.954 147.144C386.952 147.144 388.14 148.116 388.14 149.79V152.274H393.54C394.782 152.274 395.484 152.976 395.484 154.164C395.484 155.46 394.782 156.162 393.54 156.162H388.14V160.482C388.14 162.48 387.006 163.614 385.008 163.614H369.996ZM373.236 156.162V159.186C373.236 159.564 373.506 159.834 373.884 159.834H381.12C381.498 159.834 381.768 159.564 381.768 159.186V156.162H373.236ZM394.404 181.326C396.51 181.596 397.482 183.108 397.158 185.214C396.726 187.428 395.16 188.022 393.162 187.806C387.762 187.104 382.632 185.484 378.204 182.892C372.912 185.646 366.486 187.266 359.412 187.752C358.332 187.806 357.576 187.374 357.414 186.348C357.252 185.43 357.684 184.566 358.872 184.296C364.92 183.054 369.726 181.542 373.56 179.652C370.482 177.006 367.998 173.82 366.378 170.094H363.57C362.382 170.094 361.626 169.284 361.626 168.096C361.626 166.908 362.382 166.206 363.57 166.206H387.276C390.408 166.206 391.812 168.474 390.3 171.336C388.734 174.36 386.574 176.952 383.928 179.166C387.06 180.192 390.57 180.894 394.404 181.326ZM370.428 170.094C372.588 172.848 375.18 175.008 378.258 176.682C380.31 175.062 381.984 173.172 383.334 170.958C383.658 170.472 383.388 170.094 382.902 170.094H370.428Z" fill="#594A39"/>
<path d="M457.746 181.11C459.474 182.622 459.96 184.512 458.502 186.294C456.99 188.13 454.992 188.184 453.156 186.348C451.104 184.404 449.268 182.082 447.702 179.436C445.272 182.838 442.14 185.538 438.198 187.59C437.226 188.13 436.362 187.86 435.876 187.05C435.498 186.402 435.498 185.862 435.876 185.322C435.012 185.7 433.986 185.592 432.96 184.944C431.664 184.026 430.314 183.216 429.018 182.406C425.13 185.43 419.784 187.32 413.358 187.86C412.278 187.914 411.576 187.428 411.468 186.51C411.36 185.538 411.738 184.89 412.98 184.674C417.678 183.81 421.512 182.244 424.374 179.922C423.294 179.382 422.106 178.896 420.918 178.41C420.756 178.734 420.54 179.058 420.378 179.328C419.406 180.84 417.894 181.056 416.49 180.246C415.086 179.382 414.816 178.248 415.788 176.574C416.328 175.548 417.03 174.36 417.678 173.064H413.25C412.062 173.064 411.36 172.362 411.36 171.174C411.36 169.986 412.062 169.338 413.25 169.338H419.568L420.648 167.124H416.328C414.33 167.124 413.358 166.152 413.358 164.154V160.374C413.358 158.322 414.33 157.404 416.328 157.404H422.754V155.73H417.516C415.518 155.73 414.384 154.65 414.384 152.652V150.168H412.764C411.63 150.168 410.982 149.52 410.982 148.386C410.982 147.198 411.684 146.496 412.764 146.496H414.384V144.12C414.384 142.122 415.518 141.042 417.516 141.042H422.754V139.53C422.754 137.802 423.78 136.992 425.724 136.992C427.668 136.992 428.694 137.802 428.694 139.53V141.042H433.932C435.984 141.042 437.064 142.122 437.064 144.12V146.496H438.522C439.548 146.496 440.196 147.144 440.196 148.332C440.196 149.52 439.548 150.168 438.522 150.168H437.064V152.652C437.064 154.65 435.984 155.73 433.932 155.73H428.694V157.404H435.012C436.686 157.404 437.658 158.052 437.928 159.402C440.142 154.11 441.276 146.928 441.762 140.124C441.924 137.748 443.112 136.938 445.164 137.1C447.216 137.262 448.188 138.342 447.918 140.61C447.594 143.31 447.108 146.01 446.46 148.602H457.044C458.286 148.602 458.988 149.304 458.988 150.546C458.988 151.788 458.286 152.544 457.044 152.544H455.316C454.884 160.914 453.534 168.042 450.942 173.874C452.832 176.574 455.1 178.896 457.746 181.11ZM419.73 145.038V146.604H422.862V144.39H420.378C420 144.39 419.73 144.66 419.73 145.038ZM428.586 144.39V146.604H431.772V145.038C431.772 144.66 431.502 144.39 431.124 144.39H428.586ZM420.378 152.382H422.862V150.006H419.73V151.734C419.73 152.112 420 152.382 420.378 152.382ZM428.586 150.006V152.382H431.124C431.502 152.382 431.772 152.112 431.772 151.734V150.006H428.586ZM449.16 152.544H445.272C445.056 153.192 444.84 153.894 444.57 154.542C445.11 159.726 446.082 163.992 447.54 167.556C448.566 163.344 448.998 158.484 449.16 152.544ZM437.118 184.242C440.79 181.218 443.382 178.032 445.218 174.252C443.544 170.148 442.41 165.396 441.87 160.05C441.384 160.806 440.898 161.508 440.412 162.102C439.71 162.858 438.9 162.966 438.144 162.534C438.09 162.534 438.09 162.48 438.036 162.426V164.154C438.036 166.152 437.064 167.124 435.012 167.124H426.696C426.372 167.826 426.048 168.582 425.67 169.338H438.846C440.034 169.338 440.736 169.986 440.736 171.174C440.736 172.416 440.034 173.064 438.846 173.064H435.498C434.904 175.116 433.986 177.006 432.69 178.734C433.77 179.166 434.796 179.598 435.768 180.084C437.712 181.002 438.144 182.352 437.226 184.026C437.172 184.08 437.172 184.134 437.118 184.242ZM418.92 163.128C418.92 163.506 419.19 163.776 419.568 163.776H422.754V160.752H419.568C419.19 160.752 418.92 161.022 418.92 161.4V163.128ZM431.88 160.752H428.694V163.776H431.88C432.258 163.776 432.528 163.506 432.528 163.128V161.4C432.528 161.022 432.258 160.752 431.88 160.752ZM423.834 173.064C423.402 173.928 422.97 174.792 422.538 175.602C424.05 175.926 425.724 176.358 427.344 176.844C428.154 175.71 428.856 174.468 429.342 173.064H423.834Z" fill="#594A39"/>
<path d="M519.09 178.464C520.602 179.652 520.818 181.38 519.522 182.73C518.172 184.08 516.552 183.972 515.364 182.568C513.15 180.03 511.746 176.304 510.882 172.254L509.748 172.578C510.504 174.63 510.936 176.898 510.936 179.22C510.936 187.86 505.104 189.912 498.3 185.862C497.49 185.43 497.328 184.674 497.598 183.864C497.868 183.108 498.516 182.838 499.488 183C504.132 183.972 505.59 183.594 505.752 179.058C502.296 181.164 497.598 183.108 493.116 183.81C492.144 183.972 491.55 183.648 491.334 182.784C491.064 181.974 491.442 181.218 492.414 180.894C497.868 179.274 502.188 176.952 505.374 174.09L505.158 173.064C502.35 175.062 498.678 176.79 495.222 177.708C494.196 177.978 493.602 177.546 493.278 176.736C492.144 180.57 490.47 183.594 488.148 186.24C487.392 187.104 486.42 187.212 485.664 186.618C484.962 186.024 484.854 185.268 485.286 184.458C487.986 179.328 488.904 172.902 488.904 159.888V147.522C488.904 145.632 490.038 144.552 492.036 144.552C493.602 144.552 494.628 145.092 494.952 146.226H500.568V140.016C500.568 137.964 501.702 137.1 503.7 137.1C505.752 137.1 506.832 137.964 506.832 139.908V140.88H515.31C516.444 140.88 517.092 141.528 517.092 142.608C517.092 143.742 516.444 144.39 515.31 144.39H506.832V146.226H516.39C519.036 146.226 520.116 148.332 518.766 150.384C517.686 152.058 516.714 153.138 515.904 153.84C515.202 154.326 514.5 154.38 513.852 153.894C513.258 153.408 513.096 152.868 513.42 152.22C513.69 151.68 513.96 151.14 514.122 150.654C514.284 150.114 514.068 149.844 513.636 149.844H504.618V151.68C506.562 151.464 508.56 151.194 510.774 150.924C511.8 150.816 512.502 151.194 512.664 152.274C512.826 153.3 512.34 154.002 511.206 154.11C509.046 154.434 506.832 154.704 504.672 154.974C504.834 156.054 505.59 156.378 507.966 156.378C510.126 156.378 512.286 156.108 513.96 155.514C515.148 155.136 516.012 155.298 516.498 156.54C517.038 157.836 516.714 158.862 515.472 159.402C513.798 160.104 511.854 160.266 506.832 160.266C500.73 160.266 499.488 159.294 499.434 155.622C498.192 155.784 497.004 155.946 495.816 156.054H495.114V161.562C495.384 161.4 495.762 161.292 496.194 161.292H517.362C518.442 161.292 519.09 161.886 519.09 162.966C519.09 164.046 518.442 164.586 517.362 164.586H508.506C507.804 165.234 506.994 165.936 506.076 166.638C507.048 167.664 507.858 168.798 508.56 170.094C510.072 169.068 511.476 167.88 512.934 166.26C513.96 165.126 515.526 164.964 516.66 166.206C517.848 167.556 517.578 168.906 516.012 169.878C515.202 170.418 514.284 170.904 513.366 171.282C514.77 174.144 516.876 176.682 519.09 178.464ZM487.014 148.71C488.202 148.71 488.904 149.412 488.904 150.6C488.904 151.788 488.202 152.49 487.014 152.49H484.368V160.806C485.07 160.536 485.772 160.266 486.474 159.942C487.392 159.564 488.094 159.726 488.58 160.536C489.012 161.346 488.85 162.102 488.094 162.696C487.014 163.614 485.718 164.586 484.368 165.45V182.136C484.368 187.59 479.4 189.048 473.352 186.186C472.434 185.754 472.164 184.998 472.38 184.08C472.596 183.162 473.19 182.838 474.324 182.946C477.402 183.378 478.05 182.946 478.05 181.218V169.014C477.51 169.23 476.97 169.5 476.43 169.716C474.486 170.58 473.082 169.986 472.434 167.88C471.732 165.882 472.488 164.478 474.486 163.992L478.05 163.02V152.49H474.864C473.622 152.49 472.974 151.788 472.974 150.6C472.974 149.412 473.622 148.71 474.864 148.71H478.05V140.34C478.05 138.342 479.184 137.37 481.182 137.37C483.234 137.37 484.368 138.234 484.368 140.286V148.71H487.014ZM499.434 152.274V149.844H495.114V152.76C495.222 152.76 495.33 152.706 495.492 152.706C496.788 152.598 498.084 152.436 499.434 152.274ZM496.194 164.586C495.708 164.586 495.33 164.478 495.006 164.316C494.952 166.044 494.844 167.664 494.682 169.176C494.844 168.96 495.114 168.744 495.438 168.636C497.814 167.556 500.244 166.152 501.918 164.586H496.194ZM494.196 174.684C498.246 173.118 501.162 171.606 503.754 169.122C503.646 168.852 503.538 168.636 503.376 168.366C501.27 169.608 498.84 170.742 496.356 171.39C495.384 171.66 494.844 171.282 494.52 170.472C494.358 172.092 494.088 173.55 493.764 174.954C493.872 174.846 494.034 174.738 494.196 174.684Z" fill="#594A39"/>
<path d="M294.774 110.26C294.494 110.119 294.004 109.732 293.305 109.098C292.675 108.464 292.046 107.759 291.416 106.984C290.787 106.138 290.367 105.504 290.157 105.082C289.948 104.729 289.948 104.095 290.157 103.179C290.437 102.263 290.717 101.805 290.997 101.805C291.207 101.946 291.486 101.7 291.836 101.065C292.186 100.431 292.535 99.7619 292.885 99.0573C293.235 98.2823 293.41 97.8243 293.41 97.6834C293.48 97.4016 293.655 97.1902 293.934 97.0493C294.284 96.8379 294.599 96.6265 294.879 96.4151C295.228 95.8515 295.683 95.2878 296.243 94.7241C296.872 94.09 297.362 93.5616 297.711 93.1388C298.271 92.4342 299.285 91.3774 300.754 89.9682C302.223 88.559 303.657 87.1146 305.056 85.635C306.524 84.0145 307.818 82.6053 308.937 81.4075C310.057 80.1393 310.651 79.2585 310.721 78.7653C310.721 78.7653 310.826 78.6597 311.036 78.4483C311.316 78.1664 311.63 77.9198 311.98 77.7085C312.33 77.4971 312.784 77.1448 313.344 76.6516C313.973 76.1584 314.498 75.7004 314.918 75.2777C315.058 74.714 315.372 74.0799 315.862 73.3753C316.422 72.6002 317.051 71.8604 317.75 71.1558C318.31 70.3103 318.835 69.3944 319.324 68.408C319.814 67.3511 320.129 66.5761 320.268 66.0828C320.478 65.3078 320.408 64.8498 320.059 64.7089C319.709 64.4975 318.765 64.1452 317.226 63.652C315.547 63.0884 313.973 62.9827 312.505 63.335C311.036 63.6873 309.077 64.7441 306.629 66.5056C305.65 66.717 304.741 66.9988 303.901 67.3511C303.132 67.7034 302.468 67.8443 301.908 67.7738C301.628 67.6329 301.314 67.3159 300.964 66.8227C300.614 66.3295 300.229 65.8715 299.81 65.4487L298.761 60.9042L302.013 59.1075C304.881 57.2756 307.609 55.9016 310.196 54.9857C312.854 53.9993 315.163 53.8231 317.121 54.4572C317.89 54.4572 318.59 54.5629 319.219 54.7743C319.849 54.9152 320.164 54.9857 320.164 54.9857C320.723 54.9152 321.528 55.197 322.577 55.8312C323.696 56.4653 324.78 57.2756 325.829 58.262C326.948 59.2484 327.718 60.2348 328.137 61.2212C329.256 62.9122 329.676 64.9555 329.396 67.3511C329.116 69.7467 328.102 72.2479 326.354 74.8549C326.004 75.2777 325.235 76.1584 324.046 77.4971C322.856 78.8358 321.493 80.3506 319.954 82.0416C318.485 83.6622 317.121 85.1066 315.862 86.3748C314.673 87.6431 313.904 88.4534 313.554 88.8056C313.064 89.017 312.225 89.6864 311.036 90.8137C309.917 91.941 308.693 93.2093 307.364 94.6185C306.105 95.9572 305.021 97.1549 304.111 98.2118C303.272 99.1982 302.922 99.6914 303.062 99.6914C302.992 99.9733 303.342 99.9733 304.111 99.6914C304.951 99.3392 305.685 99.0573 306.315 98.8459C307.364 98.4937 308.588 98.1766 309.987 97.8948C311.455 97.5425 312.924 97.2606 314.393 97.0493C315.862 96.8379 317.121 96.697 318.17 96.6265C319.289 96.5561 319.954 96.6265 320.164 96.8379C320.303 97.1902 320.408 97.3311 320.478 97.2606C320.618 97.1197 320.688 97.0493 320.688 97.0493C320.828 96.5561 321.702 96.4151 323.311 96.6265C324.99 96.8379 326.494 97.1549 327.823 97.5777C328.592 97.7891 329.186 98.0709 329.606 98.4232C330.096 98.7755 330.341 99.0926 330.341 99.3744C330.341 99.3744 330.41 99.5505 330.55 99.9028C330.76 100.185 331.075 100.572 331.495 101.065C332.614 101.981 332.614 102.968 331.495 104.025C330.445 105.082 328.522 105.363 325.724 104.87C323.906 104.87 322.402 104.976 321.213 105.187C320.933 105.328 320.338 105.399 319.429 105.399C318.52 105.399 317.646 105.434 316.806 105.504C315.547 105.363 314.288 105.434 313.029 105.716C311.77 105.927 310.266 106.315 308.518 106.878C307.888 107.09 306.909 107.407 305.58 107.829C304.251 108.252 302.817 108.675 301.279 109.098C299.74 109.52 298.341 109.837 297.082 110.049C295.893 110.26 295.123 110.331 294.774 110.26Z" fill="#FDFDFB"/>
<path d="M368.144 110.789C367.655 110.789 366.745 110.612 365.416 110.26C364.157 109.908 362.828 109.485 361.43 108.992C360.101 108.428 359.051 107.829 358.282 107.195C355.904 105.152 354.19 102.897 353.141 100.431C352.092 97.8948 351.462 95.323 351.253 92.7161C351.113 90.1091 351.218 87.6431 351.567 85.318C352.337 80.8086 353.945 76.3345 356.394 71.8957C358.842 67.3863 361.779 63.652 365.207 60.6928C367.025 59.0722 368.844 57.6983 370.662 56.571C372.481 55.4436 374.439 54.6334 376.538 54.1402C377.307 53.9288 378.391 53.8231 379.79 53.8231C381.259 53.7526 382.238 53.7174 382.728 53.7174C384.127 53.7174 385.665 54.0345 387.344 54.6686C389.093 55.2323 390.596 55.9369 391.855 56.7824C393.114 57.5574 393.744 58.2972 393.744 59.0018C393.744 59.495 393.709 59.9882 393.639 60.4814C393.569 60.9746 393.254 61.0803 392.695 60.7985H391.646L392.695 63.9691C392.975 64.5328 393.219 65.3078 393.429 66.2942C393.639 67.2102 393.744 68.0557 393.744 68.8307C393.744 69.5353 393.639 70.5922 393.429 72.0013C393.289 73.3401 393.044 74.7844 392.695 76.3345C392.415 77.8846 392.1 79.329 391.75 80.6677C391.471 82.0064 391.191 82.9928 390.911 83.627C390.701 84.0497 390.561 84.4725 390.491 84.8952C390.491 85.2475 390.491 85.5646 390.491 85.8464C390.212 86.4101 389.757 87.3965 389.128 88.8056C388.498 90.2148 388.043 91.2012 387.764 91.7649C387.484 92.0467 387.239 92.2933 387.029 92.5047C386.889 92.7161 386.959 92.9627 387.239 93.2445C387.239 93.4559 387.064 93.9491 386.714 94.7241C386.365 95.4287 385.98 96.0981 385.56 96.7322C385.211 97.3663 384.931 97.6834 384.721 97.6834C384.721 97.6834 384.616 97.7186 384.406 97.7891C384.266 97.7891 384.196 97.8948 384.196 98.1061C384.196 98.388 383.707 99.1278 382.728 100.326C381.818 101.523 380.734 102.756 379.475 104.025C378.776 104.729 377.657 105.645 376.118 106.773C374.579 107.829 373.04 108.781 371.502 109.626C370.033 110.401 368.914 110.789 368.144 110.789ZM367.934 100.643C368.704 100.643 369.438 100.537 370.138 100.326C370.837 100.044 371.432 99.6562 371.921 99.163C373.18 98.3175 374.369 97.1902 375.488 95.781C376.677 94.3718 377.657 92.7513 378.426 90.9194C379.195 89.8625 379.79 88.7704 380.21 87.6431C380.699 86.4453 381.434 84.4372 382.413 81.6189C382.972 80.8439 383.357 79.8927 383.567 78.7653C383.777 77.638 383.882 76.6868 383.882 75.9118C383.882 75.1367 383.882 74.0799 383.882 72.7412C383.952 71.4024 384.127 70.2751 384.406 69.3592C384.406 67.5272 384.371 66.4704 384.301 66.1885C384.231 65.8362 383.952 65.3783 383.462 64.8146C383.182 64.6032 382.798 64.3918 382.308 64.1805C381.888 63.9691 381.434 63.8634 380.944 63.8634C380.454 63.8634 379.79 64.0043 378.951 64.2862C378.181 64.4975 377.517 64.7794 376.957 65.1317C376.468 65.4135 375.908 65.4487 375.279 65.2373C374.719 65.026 374.439 64.7441 374.439 64.3918C374.439 63.4054 373.95 63.4759 372.97 64.6032C372.061 65.6601 370.837 67.1397 369.298 69.0421C368.039 70.3103 366.955 71.6138 366.046 72.9525C365.207 74.2208 364.787 74.9958 364.787 75.2777C364.787 75.5595 364.682 75.9118 364.472 76.3345C364.262 76.7573 364.052 77.2505 363.843 77.8142C363.493 78.3074 363.073 79.1176 362.584 80.245C362.094 81.3723 361.604 82.4996 361.115 83.627C360.695 84.6838 360.415 85.4941 360.275 86.0578C360.275 86.3396 360.275 87.1146 360.275 88.3829C360.275 89.5807 360.275 90.708 360.275 91.7649C360.275 92.9627 360.31 93.8434 360.38 94.4071C360.45 94.9707 360.555 95.4287 360.695 95.781C360.905 96.1333 361.185 96.6617 361.534 97.3663C361.814 97.8595 362.234 98.4584 362.793 99.163C363.423 99.7971 363.843 100.255 364.052 100.537C364.822 101.242 365.311 101.523 365.521 101.382C365.801 101.171 366.605 100.924 367.934 100.643Z" fill="#FDFDFB"/>
<path d="M415.026 110.26C414.747 110.119 414.257 109.732 413.558 109.098C412.928 108.464 412.299 107.759 411.669 106.984C411.04 106.138 410.62 105.504 410.41 105.082C410.2 104.729 410.2 104.095 410.41 103.179C410.69 102.263 410.97 101.805 411.249 101.805C411.459 101.946 411.739 101.7 412.089 101.065C412.439 100.431 412.788 99.7619 413.138 99.0573C413.488 98.2823 413.663 97.8243 413.663 97.6834C413.733 97.4016 413.907 97.1902 414.187 97.0493C414.537 96.8379 414.852 96.6265 415.131 96.4151C415.481 95.8515 415.936 95.2878 416.495 94.7241C417.125 94.09 417.614 93.5616 417.964 93.1388C418.524 92.4342 419.538 91.3774 421.007 89.9682C422.476 88.559 423.909 87.1146 425.308 85.635C426.777 84.0145 428.071 82.6053 429.19 81.4075C430.309 80.1393 430.904 79.2585 430.974 78.7653C430.974 78.7653 431.079 78.6597 431.289 78.4483C431.568 78.1664 431.883 77.9198 432.233 77.7085C432.583 77.4971 433.037 77.1448 433.597 76.6516C434.226 76.1584 434.751 75.7004 435.171 75.2777C435.31 74.714 435.625 74.0799 436.115 73.3753C436.674 72.6002 437.304 71.8604 438.003 71.1558C438.563 70.3103 439.087 69.3944 439.577 68.408C440.067 67.3511 440.381 66.5761 440.521 66.0828C440.731 65.3078 440.661 64.8498 440.311 64.7089C439.962 64.4975 439.017 64.1452 437.479 63.652C435.8 63.0884 434.226 62.9827 432.757 63.335C431.289 63.6873 429.33 64.7441 426.882 66.5056C425.903 66.717 424.994 66.9988 424.154 67.3511C423.385 67.7034 422.72 67.8443 422.161 67.7738C421.881 67.6329 421.566 67.3159 421.217 66.8227C420.867 66.3295 420.482 65.8715 420.062 65.4487L419.013 60.9042L422.266 59.1075C425.133 57.2756 427.861 55.9016 430.449 54.9857C433.107 53.9993 435.415 53.8231 437.374 54.4572C438.143 54.4572 438.843 54.5629 439.472 54.7743C440.102 54.9152 440.416 54.9857 440.416 54.9857C440.976 54.9152 441.78 55.197 442.829 55.8312C443.949 56.4653 445.033 57.2756 446.082 58.262C447.201 59.2484 447.97 60.2348 448.39 61.2212C449.509 62.9122 449.929 64.9555 449.649 67.3511C449.369 69.7467 448.355 72.2479 446.606 74.8549C446.257 75.2777 445.487 76.1584 444.298 77.4971C443.109 78.8358 441.745 80.3506 440.207 82.0416C438.738 83.6622 437.374 85.1066 436.115 86.3748C434.926 87.6431 434.156 88.4534 433.807 88.8056C433.317 89.017 432.478 89.6864 431.289 90.8137C430.169 91.941 428.945 93.2093 427.617 94.6185C426.358 95.9572 425.273 97.1549 424.364 98.2118C423.525 99.1982 423.175 99.6914 423.315 99.6914C423.245 99.9733 423.595 99.9733 424.364 99.6914C425.203 99.3392 425.938 99.0573 426.567 98.8459C427.617 98.4937 428.841 98.1766 430.239 97.8948C431.708 97.5425 433.177 97.2606 434.646 97.0493C436.115 96.8379 437.374 96.697 438.423 96.6265C439.542 96.5561 440.207 96.6265 440.416 96.8379C440.556 97.1902 440.661 97.3311 440.731 97.2606C440.871 97.1197 440.941 97.0493 440.941 97.0493C441.081 96.5561 441.955 96.4151 443.564 96.6265C445.243 96.8379 446.746 97.1549 448.075 97.5777C448.845 97.7891 449.439 98.0709 449.859 98.4232C450.348 98.7755 450.593 99.0926 450.593 99.3744C450.593 99.3744 450.663 99.5505 450.803 99.9028C451.013 100.185 451.328 100.572 451.747 101.065C452.866 101.981 452.866 102.968 451.747 104.025C450.698 105.082 448.775 105.363 445.977 104.87C444.158 104.87 442.655 104.976 441.466 105.187C441.186 105.328 440.591 105.399 439.682 105.399C438.773 105.399 437.898 105.434 437.059 105.504C435.8 105.363 434.541 105.434 433.282 105.716C432.023 105.927 430.519 106.315 428.771 106.878C428.141 107.09 427.162 107.407 425.833 107.829C424.504 108.252 423.07 108.675 421.531 109.098C419.993 109.52 418.594 109.837 417.335 110.049C416.146 110.26 415.376 110.331 415.026 110.26Z" fill="#FDFDFB"/>
<path d="M483.256 111C481.507 111 479.794 110.683 478.115 110.049C476.506 109.344 475.212 108.534 474.233 107.618C473.254 106.702 472.799 105.821 472.869 104.976C472.939 103.848 473.324 102.968 474.023 102.334C474.723 101.7 475.842 101.488 477.381 101.7C479.759 102.193 482.172 102.369 484.62 102.228C487.068 102.017 489.341 101.523 491.44 100.748C493.608 99.9733 495.356 98.9164 496.685 97.5777C498.574 95.7458 499.553 94.1957 499.623 92.9275C499.693 91.5887 498.714 90.25 496.685 88.9113C495.776 88.2772 494.657 87.6783 493.328 87.1146C491.999 86.551 490.67 86.1282 489.341 85.8464C488.082 85.4941 486.963 85.3532 485.984 85.4236C485.354 85.4941 484.585 85.3884 483.676 85.1066C482.766 84.7543 481.857 84.3315 480.948 83.8383C480.528 83.3451 480.144 82.5349 479.794 81.4075C479.444 80.2802 479.199 79.5756 479.059 79.2938C478.989 78.9415 479.234 78.5187 479.794 78.0255C480.353 77.5323 481.473 76.7925 483.151 75.8061C484.83 74.7492 487.278 73.3401 490.495 71.5786C493.433 69.9581 495.671 68.725 497.21 67.8795C498.819 66.9636 500.043 66.259 500.882 65.7658C501.791 65.2021 502.561 64.6385 503.19 64.0748C504.03 63.0884 504.414 62.3486 504.344 61.8554C504.274 61.3621 503.33 60.9394 501.512 60.5871C499.763 60.4462 498.364 60.4462 497.315 60.5871C496.266 60.6576 495.741 60.8337 495.741 61.1155C495.741 61.1155 495.706 61.1155 495.636 61.1155C495.636 61.1155 495.531 61.1155 495.322 61.1155C494.972 60.9746 494.202 61.0099 493.013 61.2212C491.824 61.4326 490.67 61.6792 489.551 61.961C488.502 62.2429 487.942 62.4895 487.872 62.7008C487.802 62.8418 487.313 63.0884 486.404 63.4407C485.564 63.7225 484.69 63.9691 483.781 64.1805C482.941 64.3918 482.417 64.4975 482.207 64.4975C481.857 64.3566 481.438 63.8634 480.948 63.0179C480.528 62.1724 480.179 61.2917 479.899 60.3757C479.619 59.3893 479.549 58.72 479.689 58.3677C479.829 58.0858 480.318 57.6631 481.158 57.0994C482.067 56.4653 483.081 55.8312 484.2 55.197C485.319 54.4925 486.264 53.964 487.033 53.6117C488.012 53.3299 489.446 53.0833 491.335 52.8719C493.293 52.5901 495.217 52.3787 497.105 52.2378C499.064 52.0264 500.462 51.956 501.302 52.0264C504.519 52.3787 507.107 53.2242 509.066 54.5629C511.024 55.8312 512.283 57.8745 512.843 60.6928C513.052 61.6792 513.052 62.7008 512.843 63.7577C512.633 64.8146 512.178 65.8715 511.479 66.9283C510.779 67.9852 509.73 69.1478 508.331 70.416C506.583 71.5434 505.219 72.4946 504.239 73.2696C503.33 73.9742 502.071 74.714 500.462 75.489C499.973 75.8413 499.203 76.2288 498.154 76.6516C497.105 77.0743 496.126 77.4619 495.217 77.8142C494.307 78.1664 493.853 78.413 493.853 78.554C493.853 78.554 494.167 78.6244 494.797 78.7653C495.496 78.8358 496.231 78.9767 497 79.1881C497.84 79.329 498.434 79.5756 498.784 79.9279C500.812 80.6325 502.666 81.8655 504.344 83.627C506.093 85.318 507.317 86.6567 508.016 87.6431C508.996 89.8273 509.101 92.2229 508.331 94.8298C507.632 97.3663 506.338 99.7971 504.449 102.122C502.631 104.377 500.497 106.244 498.049 107.724C496.091 108.851 493.678 109.661 490.81 110.155C488.012 110.577 485.494 110.859 483.256 111Z" fill="#FDFDFB"/>
<defs>
<clipPath id="clip0_3226_45">
<rect width="455.073" height="372.205" fill="white" transform="translate(38.6222 139) rotate(5.95607)"/>
</clipPath>
</defs>
</svg>
