<svg width="624" height="557" viewBox="0 0 624 557" fill="none" xmlns="http://www.w3.org/2000/svg">
<path opacity="0.7" d="M428.975 0C561.53 0 634.415 50.7446 621.62 136.21C610.873 208 553.84 235.816 466.217 244.799C466.002 251.89 464.2 258.844 460.947 265.146C457.694 271.449 453.072 276.941 447.419 281.219C446.774 281.715 445.992 282.005 445.18 282.046C444.368 282.087 443.562 281.879 442.871 281.45C442.179 281.022 441.636 280.394 441.31 279.648C440.985 278.902 440.894 278.073 441.05 277.274C442.006 271.782 441.596 266.14 439.851 260.846C438.105 255.551 435.079 250.768 431.045 246.924C419.564 247.41 427.62 247.654 415.21 247.654C282.654 247.654 191.999 198.184 191.999 111.444C191.999 24.7039 296.419 0 428.975 0Z" fill="#B8C318"/>
<g clip-path="url(#clip0_3548_283)">
<path d="M151.041 280.171C151.041 280.171 89.3564 285.86 39.5673 255.649C38.2143 254.828 36.6705 254.373 35.0888 254.328C33.5072 254.282 31.9416 254.647 30.5431 255.389C29.1445 256.13 27.9606 257.223 27.1092 258.559C26.2577 259.895 25.7678 261.429 25.685 263.012C23.9736 294.113 34.2393 366.675 151.741 425.086" fill="#5E9A33"/>
<path opacity="0.2" d="M153.252 424.515C153.252 424.515 101.582 408.456 53.5727 425.391C52.2696 425.839 50.8746 425.944 49.5197 425.695C48.1648 425.446 46.895 424.852 45.8359 423.97C44.7767 423.089 43.9639 421.948 43.4722 420.659C42.9804 419.371 42.8275 417.978 43.0293 416.613C47.1661 389.726 69.0211 329.526 180.001 300.773" fill="#5E9A33"/>
<path d="M193.264 498.721C197.879 483.791 192.164 468.76 180.497 465.146C168.83 461.532 155.631 470.703 151.015 485.633C146.399 500.563 152.116 515.596 163.783 519.211C175.449 522.825 188.648 513.651 193.264 498.721Z" fill="#FEFAE9"/>
<path d="M271.233 529.677C283.395 528.548 292.091 515.019 290.657 499.457C289.222 483.896 278.199 472.196 266.038 473.324C253.877 474.453 245.182 487.982 246.616 503.543C248.051 519.105 259.072 530.805 271.233 529.677Z" fill="#FEFAE9"/>
<path d="M253.814 161.45C253.814 161.45 247.26 191.762 191.351 210.54C175.796 215.766 161.973 225.173 151.392 237.733C118.468 276.772 63.0967 363.501 119.656 456.451C119.656 456.451 150.691 500.102 218.23 507.148C218.23 507.148 281.956 518.647 325.918 480.557C366.496 445.509 394.209 350.843 337.853 254.398C329.682 240.478 317.693 229.199 303.311 221.899C284.553 212.183 256.577 194.917 253.814 161.45Z" fill="#FEFAE9"/>
<path d="M359.128 301.113C353.742 284.853 346.648 269.212 337.969 254.451C329.798 240.531 317.811 229.252 303.429 221.953C284.543 212.304 256.57 194.998 253.803 161.57C253.803 161.57 247.249 191.884 191.34 210.663C175.784 215.888 161.962 225.294 151.381 237.854C141.051 250.069 131.788 263.151 123.696 276.955C133.181 291.24 169.673 339.058 234.778 345.851C234.79 345.731 295.842 353.473 359.128 301.113Z" fill="#7DBE37"/>
<path d="M123.914 276.411C123.914 276.411 109.361 307.223 108.764 339.248C108.298 366.923 133.085 397.354 162.704 400.444C280.219 412.704 359.366 301.905 359.366 301.905C359.366 301.905 356.295 284.166 323.338 280.203C290.381 276.239 162.075 263.378 162.075 263.378C162.075 263.378 130.263 261.191 123.914 276.411Z" fill="#F2E865"/>
<path d="M165.909 289.278C186.653 291.443 205.227 276.354 207.395 255.578C209.563 234.801 194.503 216.204 173.758 214.04C153.013 211.876 134.439 226.964 132.272 247.74C130.104 268.517 145.164 287.114 165.909 289.278Z" fill="white"/>
<path d="M267.457 299.874C288.202 302.038 306.776 286.95 308.944 266.174C311.111 245.397 296.052 226.8 275.307 224.636C254.562 222.471 235.988 237.56 233.82 258.336C231.653 279.113 246.713 297.71 267.457 299.874Z" fill="white"/>
<path d="M306.255 292.322C305.72 292.259 305.209 292.065 304.768 291.756C304.326 291.447 303.969 291.032 303.727 290.55C303.485 290.068 303.365 289.534 303.381 288.995C303.397 288.455 303.548 287.929 303.817 287.462L310.537 276.039C310.753 275.677 311.037 275.361 311.375 275.11C311.713 274.859 312.098 274.679 312.506 274.579C312.915 274.478 313.34 274.46 313.755 274.526C314.17 274.591 314.568 274.738 314.925 274.959C315.655 275.396 316.182 276.105 316.391 276.93C316.6 277.754 316.474 278.628 316.041 279.36L309.345 290.543C309.072 291.119 308.629 291.598 308.077 291.916C307.525 292.234 306.89 292.375 306.255 292.322Z" fill="#E27E7C"/>
<path d="M315.477 296.76C314.946 296.692 314.44 296.492 314.005 296.18C313.569 295.869 313.217 295.455 312.98 294.974C312.743 294.494 312.628 293.962 312.645 293.426C312.662 292.89 312.81 292.367 313.078 291.902L319.734 280.715C320.17 279.985 320.876 279.457 321.7 279.247C322.523 279.038 323.397 279.163 324.128 279.597C324.493 279.809 324.812 280.092 325.066 280.429C325.32 280.767 325.506 281.153 325.61 281.563C325.713 281.973 325.733 282.398 325.67 282.817C325.607 283.235 325.461 283.636 325.241 283.997L318.587 295.184C318.275 295.719 317.815 296.152 317.263 296.431C316.711 296.711 316.092 296.825 315.477 296.76Z" fill="#E27E7C"/>
<path d="M118.541 271.809C118.073 271.768 117.62 271.625 117.214 271.388C116.483 270.944 115.957 270.228 115.749 269.397C115.541 268.565 115.667 267.687 116.103 266.949L122.798 255.764C123.258 255.085 123.959 254.607 124.758 254.428C125.558 254.249 126.395 254.383 127.099 254.802C127.803 255.222 128.322 255.897 128.546 256.686C128.77 257.475 128.685 258.32 128.307 259.049L121.608 270.27C121.298 270.794 120.844 271.219 120.3 271.491C119.757 271.764 119.146 271.874 118.541 271.809Z" fill="#E27E7C"/>
<path d="M127.646 276.236C127.191 276.193 126.751 276.049 126.357 275.817C125.628 275.381 125.101 274.674 124.892 273.849C124.683 273.024 124.811 272.149 125.244 271.417L131.903 260.191C132.119 259.824 132.405 259.504 132.746 259.249C133.086 258.994 133.475 258.809 133.888 258.705C134.3 258.602 134.729 258.582 135.149 258.645C135.57 258.709 135.972 258.856 136.336 259.077C136.697 259.292 137.013 259.577 137.263 259.916C137.513 260.254 137.693 260.639 137.793 261.048C137.893 261.458 137.911 261.883 137.846 262.299C137.78 262.715 137.631 263.115 137.41 263.473L130.751 274.701C130.431 275.224 129.97 275.644 129.421 275.916C128.871 276.187 128.255 276.299 127.646 276.236Z" fill="#E27E7C"/>
<path d="M259.921 269.99C268.805 270.917 276.76 264.455 277.689 255.558C278.617 246.66 272.167 238.695 263.283 237.768C254.399 236.841 246.444 243.303 245.516 252.201C244.587 261.099 251.037 269.063 259.921 269.99Z" fill="#4A1E0E"/>
<path d="M166.437 260.236C175.321 261.163 183.276 254.702 184.204 245.804C185.132 236.906 178.683 228.941 169.799 228.014C160.914 227.087 152.959 233.549 152.031 242.447C151.103 251.345 157.552 259.31 166.437 260.236Z" fill="#4A1E0E"/>
<path d="M149.831 524.222C148.844 524.121 147.89 523.805 147.037 523.297C146.184 522.789 145.451 522.102 144.891 521.281L119.495 483.915C118.916 483.179 118.494 482.332 118.256 481.426C118.017 480.52 117.967 479.575 118.11 478.648C118.252 477.722 118.584 476.833 119.083 476.04C119.583 475.248 120.241 474.567 121.014 474.04C121.788 473.512 122.661 473.149 123.58 472.973C124.5 472.798 125.447 472.814 126.359 473.021C127.272 473.227 128.132 473.619 128.887 474.172C129.642 474.726 130.275 475.43 130.746 476.239L156.187 513.568C157.19 515.073 157.564 516.912 157.227 518.691C156.891 520.469 155.873 522.045 154.389 523.079C153.053 523.988 151.437 524.394 149.831 524.222Z" fill="#695D41"/>
<path d="M160.306 525.92C158.733 525.758 157.265 525.054 156.153 523.928C155.042 522.802 154.354 521.324 154.21 519.747L151.211 486.618C151.122 484.86 151.713 483.136 152.862 481.804C154.012 480.472 155.632 479.634 157.381 479.467C159.131 479.301 160.878 479.818 162.257 480.909C163.636 482.001 164.539 483.583 164.781 485.326L167.818 518.499C167.975 520.304 167.411 522.099 166.253 523.492C165.095 524.885 163.435 525.763 161.634 525.936C161.191 525.97 160.748 525.966 160.306 525.92Z" fill="#695D41"/>
<path d="M267.346 536.482C266.103 536.347 264.92 535.873 263.925 535.114C262.93 534.355 262.161 533.338 261.702 532.173L247.763 496.005C247.309 495.153 247.041 494.215 246.976 493.253C246.911 492.29 247.05 491.325 247.384 490.42C247.718 489.515 248.24 488.691 248.915 488.003C249.589 487.314 250.401 486.778 251.298 486.426C252.195 486.074 253.156 485.915 254.118 485.962C255.08 486.01 256.02 486.261 256.879 486.698C257.737 487.136 258.494 487.751 259.098 488.503C259.702 489.254 260.14 490.125 260.384 491.058L274.323 527.227C274.956 528.92 274.903 530.794 274.173 532.448C273.442 534.102 272.093 535.404 270.415 536.074C269.434 536.432 268.387 536.572 267.346 536.482Z" fill="#695D41"/>
<path d="M256.744 535.982C255.191 535.809 253.743 535.116 252.632 534.016L216.102 497.391C215.458 496.761 214.945 496.009 214.593 495.179C214.24 494.35 214.056 493.459 214.048 492.557C214.041 491.656 214.212 490.763 214.551 489.928C214.891 489.093 215.392 488.332 216.026 487.692C216.66 487.052 217.414 486.544 218.245 486.197C219.076 485.85 219.965 485.67 220.865 485.669C221.765 485.668 222.657 485.846 223.488 486.191C224.319 486.537 225.074 487.045 225.709 487.684L262.44 524.33C263.382 525.34 263.997 526.613 264.206 527.979C264.416 529.346 264.209 530.743 263.613 531.99C263.016 533.238 262.057 534.276 260.863 534.969C259.668 535.663 258.293 535.979 256.916 535.878L256.744 535.982Z" fill="#695D41"/>
<path d="M191.389 268.618L191.209 206.525C191.199 205.734 191.453 204.962 191.932 204.333C192.411 203.704 193.087 203.255 193.851 203.055C194.615 202.856 195.423 202.919 196.147 203.234C196.871 203.549 197.47 204.097 197.846 204.792L231.91 266.987C232.74 268.446 233.093 270.127 232.919 271.798C232.745 273.469 232.052 275.043 230.938 276.3L185.416 325.867C184.889 326.442 184.188 326.824 183.42 326.958C182.653 327.091 181.863 326.969 181.173 326.607C180.484 326.244 179.934 325.664 179.608 324.956C179.282 324.247 179.199 323.45 179.371 322.689L191.579 268.718L191.389 268.618Z" fill="#695D41"/>
<path d="M231.908 266.988L197.828 204.954C197.505 204.339 197 203.838 196.383 203.521C195.766 203.203 195.067 203.084 194.38 203.18C194.653 203.35 194.89 203.572 195.078 203.834C195.265 204.097 195.399 204.394 195.471 204.708L214.927 265.376C215.393 266.915 215.547 268.532 215.38 270.132C215.213 271.732 214.729 273.282 213.955 274.692L182.963 325.773C182.667 326.327 182.177 326.751 181.587 326.964C182.226 327.197 182.921 327.23 183.579 327.061C184.238 326.892 184.83 326.527 185.278 326.015L230.801 276.449C231.968 275.196 232.705 273.603 232.905 271.901C233.104 270.199 232.754 268.477 231.908 266.988Z" fill="#84765B"/>
<path d="M466.237 300.164C420.447 316.321 371.707 306.225 356.728 302.44C353.272 301.534 349.61 301.836 346.348 303.296C338.824 306.464 332.377 311.745 327.784 318.502C323.191 325.258 320.65 333.202 320.466 341.372C319.343 369.544 330.515 412.902 342.319 429.329C343.577 431.093 345.371 432.403 347.433 433.063C349.495 433.722 351.713 433.695 353.759 432.987C452.916 397.665 474.011 338.196 478.301 310.233C478.546 308.668 478.382 307.065 477.824 305.582C477.267 304.099 476.336 302.786 475.121 301.772C473.905 300.757 472.447 300.077 470.89 299.795C469.333 299.513 467.73 299.64 466.237 300.164Z" fill="#5E9A33"/>
<path opacity="0.2" d="M349.35 433.497C349.35 433.497 400.32 439.623 443.8 466.103C444.983 466.81 446.326 467.2 447.703 467.237C449.08 467.273 450.443 466.954 451.662 466.31C452.88 465.665 453.913 464.717 454.66 463.558C455.407 462.399 455.844 461.067 455.928 459.69C457.43 432.528 448.471 369.114 345.616 318.051" fill="#5E9A33"/>
</g>
<path d="M294.761 166.69C295.363 168.625 294.761 169.872 292.998 170.388C291.063 170.99 289.73 170.431 289.171 168.539C288.354 165.744 287.494 162.949 286.634 160.154H275.626L272.831 168.711C272.315 170.388 271.197 170.947 269.52 170.431C267.843 169.915 267.241 168.754 267.843 167.034L276.787 141.234C277.561 138.912 278.894 137.794 281.13 137.794C283.366 137.794 285.172 138.912 285.989 141.234C288.655 148.63 292.052 158.219 294.761 166.69ZM276.916 156.198H285.43C284.097 151.898 282.764 147.641 281.431 143.513H281.087L276.916 156.198Z" fill="#594A39"/>
<path d="M314.444 146.996C319.045 146.996 322.442 150.092 322.442 155.51V167.765C322.442 169.614 321.41 170.646 319.518 170.646C317.626 170.646 316.594 169.614 316.594 167.765V155.983C316.594 152.801 315.175 150.995 312.81 150.995C310.273 150.995 308.381 153.059 307.736 155.596V167.765C307.736 169.614 306.704 170.646 304.769 170.646C302.92 170.646 301.845 169.614 301.845 167.765V149.705C301.845 147.985 302.834 147.039 304.597 147.039C306.317 146.996 307.306 147.899 307.306 149.662V150.995C308.768 148.329 311.348 146.996 314.444 146.996Z" fill="#594A39"/>
<path d="M343.081 146.996C347.682 146.996 351.079 150.092 351.079 155.51V167.765C351.079 169.614 350.047 170.646 348.155 170.646C346.263 170.646 345.231 169.614 345.231 167.765V155.983C345.231 152.801 343.812 150.995 341.447 150.995C338.91 150.995 337.018 153.059 336.373 155.596V167.765C336.373 169.614 335.341 170.646 333.406 170.646C331.557 170.646 330.482 169.614 330.482 167.765V149.705C330.482 147.985 331.471 147.039 333.234 147.039C334.954 146.996 335.943 147.899 335.943 149.662V150.995C337.405 148.329 339.985 146.996 343.081 146.996Z" fill="#594A39"/>
<path d="M376.276 146.996C378.125 146.996 379.157 148.028 379.157 149.834V168.066C379.157 169.7 378.211 170.646 376.534 170.646C374.857 170.646 373.911 169.7 373.868 168.109V166.776C372.578 169.27 370.041 170.603 366.902 170.603C361.699 170.603 358.732 167.593 358.732 162.304V149.877C358.732 148.028 359.764 146.996 361.656 146.996C363.548 146.996 364.623 148.028 364.623 149.877V161.487C364.623 165.013 365.698 166.561 368.278 166.561C371.073 166.561 372.922 163.68 373.395 161.659V149.834C373.395 148.028 374.427 146.996 376.276 146.996Z" fill="#594A39"/>
<path d="M404.401 149.576C405.691 150.909 406.336 152.844 406.336 155.424V167.851C406.336 169.657 405.519 170.646 403.756 170.646C401.95 170.646 401.047 169.657 401.047 167.851V166.69C399.499 169.313 396.661 170.646 393.264 170.646C388.749 170.646 385.997 168.023 385.997 163.852C385.997 158.821 390.684 155.596 397.865 155.51C398.983 155.467 400.101 155.553 400.703 155.682V155.252C400.703 152.457 399.284 150.909 396.618 150.866C394.253 150.823 392.275 152.027 390.727 153.618C389.867 154.521 388.577 154.693 387.674 153.919C386.771 153.188 386.642 151.984 387.459 150.909C388.921 149.06 392.146 146.996 396.704 146.996C400.23 146.996 402.724 147.856 404.401 149.576ZM400.703 162.562V159.294C400.015 159.208 398.94 159.122 397.908 159.165C393.221 159.337 391.501 161.358 391.544 163.465C391.587 165.4 392.576 166.475 394.64 166.518C397.048 166.561 399.499 164.841 400.703 162.562Z" fill="#594A39"/>
<path d="M420.053 170.646C415.968 170.603 414.377 168.883 414.377 164.239V139.342C414.377 137.493 415.409 136.461 417.301 136.461C419.15 136.461 420.225 137.493 420.225 139.342V164.368C420.225 165.787 420.483 166.217 421.472 166.217C422.203 166.217 422.461 165.916 423.192 165.916C423.966 165.916 424.869 166.561 424.869 167.98C424.869 170.087 422.633 170.646 420.053 170.646Z" fill="#594A39"/>
<path d="M457.691 170.259C454.896 170.259 453.133 170.13 451.585 169.915C449.607 169.614 448.618 168.496 448.618 166.561V141.836C448.618 139.901 449.65 138.783 451.671 138.568C453.176 138.396 454.681 138.267 457.433 138.267C467.882 138.267 474.375 143.685 474.375 153.704C474.375 164.454 468.57 170.259 457.691 170.259ZM457.433 166.174C465.259 166.174 468.269 161.917 468.269 153.962C468.269 146.222 464.528 142.352 457.261 142.352C456.358 142.352 455.541 142.438 455.025 142.481C454.724 142.524 454.595 142.696 454.595 142.954V165.486C454.595 165.744 454.724 165.916 455.025 166.002C455.584 166.088 456.487 166.174 457.433 166.174Z" fill="#594A39"/>
<path d="M498.835 149.576C500.125 150.909 500.77 152.844 500.77 155.424V167.851C500.77 169.657 499.953 170.646 498.19 170.646C496.384 170.646 495.481 169.657 495.481 167.851V166.69C493.933 169.313 491.095 170.646 487.698 170.646C483.183 170.646 480.431 168.023 480.431 163.852C480.431 158.821 485.118 155.596 492.299 155.51C493.417 155.467 494.535 155.553 495.137 155.682V155.252C495.137 152.457 493.718 150.909 491.052 150.866C488.687 150.823 486.709 152.027 485.161 153.618C484.301 154.521 483.011 154.693 482.108 153.919C481.205 153.188 481.076 151.984 481.893 150.909C483.355 149.06 486.58 146.996 491.138 146.996C494.664 146.996 497.158 147.856 498.835 149.576ZM495.137 162.562V159.294C494.449 159.208 493.374 159.122 492.342 159.165C487.655 159.337 485.935 161.358 485.978 163.465C486.021 165.4 487.01 166.475 489.074 166.518C491.482 166.561 493.933 164.841 495.137 162.562Z" fill="#594A39"/>
<path d="M519.838 165.529C520.913 165.529 521.601 166.819 521.601 167.765C521.601 169.786 518.548 170.302 516.312 170.302C512.012 170.302 510.034 168.195 510.034 163.508V151.683H507.411C506.25 151.683 505.562 150.952 505.562 149.662C505.562 148.372 506.25 147.641 507.411 147.641H510.034V144.244C510.034 142.395 511.066 141.363 512.958 141.363C514.85 141.363 515.882 142.395 515.882 144.244V147.641H519.58C520.741 147.641 521.386 148.372 521.386 149.662C521.386 150.952 520.741 151.683 519.58 151.683H515.882V163.465C515.882 165.443 516.398 166.174 517.387 166.088C518.333 166.002 518.935 165.529 519.838 165.529Z" fill="#594A39"/>
<path d="M544.897 149.576C546.187 150.909 546.832 152.844 546.832 155.424V167.851C546.832 169.657 546.015 170.646 544.252 170.646C542.446 170.646 541.543 169.657 541.543 167.851V166.69C539.995 169.313 537.157 170.646 533.76 170.646C529.245 170.646 526.493 168.023 526.493 163.852C526.493 158.821 531.18 155.596 538.361 155.51C539.479 155.467 540.597 155.553 541.199 155.682V155.252C541.199 152.457 539.78 150.909 537.114 150.866C534.749 150.823 532.771 152.027 531.223 153.618C530.363 154.521 529.073 154.693 528.17 153.919C527.267 153.188 527.138 151.984 527.955 150.909C529.417 149.06 532.642 146.996 537.2 146.996C540.726 146.996 543.22 147.856 544.897 149.576ZM541.199 162.562V159.294C540.511 159.208 539.436 159.122 538.404 159.165C533.717 159.337 531.997 161.358 532.04 163.465C532.083 165.4 533.072 166.475 535.136 166.518C537.544 166.561 539.995 164.841 541.199 162.562Z" fill="#594A39"/>
<path d="M489.689 112C489.41 112 488.714 111.507 487.599 110.522C486.553 109.537 486.031 108.06 486.031 106.09C486.1 103.909 486.449 101.622 487.076 99.2301C487.773 96.7676 488.435 94.5865 489.062 92.6869C489.48 91.4204 489.829 90.3651 490.107 89.5208C490.456 88.6765 490.63 88.1488 490.63 87.9377C490.56 87.9377 490.177 88.0081 489.48 88.1488C488.853 88.2895 488.052 88.4654 487.076 88.6765C483.661 89.3801 481.048 89.7318 479.236 89.7318C477.494 89.7318 475.996 88.6765 474.741 86.5657C474.323 86.1436 473.766 85.3697 473.069 84.2439C472.372 83.1182 471.884 81.887 471.605 80.5502C471.396 79.2134 471.745 78.0877 472.651 77.173C473.347 75.4141 473.905 74.1476 474.323 73.3737C474.741 72.5998 475.02 72.0369 475.159 71.6851C475.368 71.3333 475.473 70.9815 475.473 70.6298C475.543 70.489 475.647 70.278 475.786 69.9965C475.926 69.7151 476.1 69.4337 476.309 69.1523C476.936 68.0969 477.807 66.7249 478.922 65.0363C480.107 63.3478 481.327 61.6592 482.581 59.9706C483.905 58.2116 485.09 56.6638 486.135 55.327C487.18 53.9198 487.947 53.0052 488.435 52.583C488.853 52.372 489.585 52.0554 490.63 51.6332C491.745 51.2111 492.546 51 493.034 51C493.592 51 494.114 51.387 494.602 52.1609C495.16 52.8645 495.613 53.6032 495.961 54.3772C496.31 55.1511 496.484 55.6788 496.484 55.9602C496.484 55.9602 496.449 56.0306 496.379 56.1713C496.31 56.312 496.17 56.5582 495.961 56.91C495.682 57.3322 495.264 57.895 494.707 58.5986C494.219 59.3022 493.487 60.2168 492.512 61.3426C491.675 62.3276 490.63 63.7699 489.376 65.6696C488.121 67.4988 486.867 69.4689 485.612 71.5796C484.428 73.62 483.417 75.4493 482.581 77.0675C481.745 78.6857 481.327 79.7762 481.327 80.3391C481.327 80.6909 481.431 80.9723 481.64 81.1834C481.919 81.3241 482.407 81.3945 483.104 81.3945C484.01 81.2538 484.811 81.113 485.508 80.9723C486.275 80.8316 486.971 80.6909 487.599 80.5502C488.365 80.4095 489.027 80.2687 489.585 80.128C490.142 79.917 490.665 79.7411 491.153 79.6003C491.71 79.3893 492.198 79.2134 492.616 79.0727C493.104 78.8616 493.522 78.6153 493.871 78.3339C494.707 77.6303 495.334 76.6805 495.752 75.4844C496.17 74.2884 496.832 72.6701 497.738 70.6298C498.296 69.2226 498.853 67.9562 499.411 66.8305C500.038 65.6344 500.595 64.5438 501.083 63.5588C502.825 60.3224 504.289 57.9654 505.474 56.4879C506.658 54.94 507.32 54.1661 507.46 54.1661C507.669 54.1661 508.157 54.4475 508.923 55.0104C509.69 55.5732 510.421 56.1713 511.118 56.8045C511.676 57.297 512.129 57.7543 512.477 58.1765C512.826 58.5283 513 58.7745 513 58.9152C513 59.7595 512.791 60.639 512.373 61.5536C512.024 62.3979 511.502 63.3829 510.805 64.5087C510.108 65.6344 509.306 67.0767 508.4 68.8356C507.355 70.876 506.38 72.9164 505.474 74.9567C504.568 76.9268 503.697 78.8968 502.86 80.8668C502.024 82.7664 501.257 84.6309 500.561 86.4602C499.864 88.2895 499.202 90.0133 498.574 91.6315C497.041 95.7826 495.996 98.8431 495.439 100.813C494.881 102.783 494.602 104.155 494.602 104.929C494.672 105.633 494.811 106.231 495.02 106.723C495.02 107.638 494.742 108.517 494.184 109.362C493.627 110.136 492.93 110.769 492.093 111.261C491.257 111.754 490.456 112 489.689 112Z" fill="white"/>
<path d="M294.774 110.262C294.494 110.121 294.004 109.733 293.305 109.099C292.675 108.465 292.046 107.76 291.416 106.985C290.787 106.14 290.367 105.506 290.157 105.083C289.948 104.731 289.948 104.096 290.157 103.18C290.437 102.265 290.717 101.807 290.997 101.807C291.207 101.947 291.486 101.701 291.836 101.067C292.186 100.433 292.535 99.7632 292.885 99.0587C293.235 98.2836 293.41 97.8256 293.41 97.6847C293.48 97.4029 293.655 97.1915 293.934 97.0506C294.284 96.8392 294.599 96.6278 294.879 96.4165C295.228 95.8528 295.683 95.2891 296.243 94.7255C296.872 94.0913 297.362 93.5629 297.711 93.1402C298.271 92.4356 299.285 91.3787 300.754 89.9695C302.223 88.5604 303.657 87.116 305.056 85.6364C306.524 84.0158 307.818 82.6066 308.937 81.4089C310.057 80.1406 310.651 79.2599 310.721 78.7667C310.721 78.7667 310.826 78.661 311.036 78.4496C311.316 78.1678 311.63 77.9212 311.98 77.7098C312.33 77.4984 312.784 77.1461 313.344 76.6529C313.973 76.1597 314.498 75.7017 314.918 75.279C315.058 74.7153 315.372 74.0812 315.862 73.3766C316.422 72.6016 317.051 71.8618 317.75 71.1572C318.31 70.3117 318.835 69.3957 319.324 68.4093C319.814 67.3524 320.129 66.5774 320.268 66.0842C320.478 65.3091 320.408 64.8512 320.059 64.7102C319.709 64.4989 318.765 64.1466 317.226 63.6534C315.547 63.0897 313.973 62.984 312.505 63.3363C311.036 63.6886 309.077 64.7455 306.629 66.5069C305.65 66.7183 304.741 67.0001 303.901 67.3524C303.132 67.7047 302.468 67.8456 301.908 67.7752C301.628 67.6343 301.314 67.3172 300.964 66.824C300.614 66.3308 300.229 65.8728 299.81 65.4501L298.761 60.9055L302.013 59.1088C304.881 57.2769 307.609 55.903 310.196 54.987C312.854 54.0006 315.163 53.8244 317.121 54.4586C317.89 54.4586 318.59 54.5643 319.219 54.7756C319.849 54.9165 320.164 54.987 320.164 54.987C320.723 54.9165 321.528 55.1984 322.577 55.8325C323.696 56.4666 324.78 57.2769 325.829 58.2633C326.948 59.2497 327.718 60.2361 328.137 61.2226C329.256 62.9136 329.676 64.9568 329.396 67.3524C329.116 69.748 328.102 72.2493 326.354 74.8562C326.004 75.279 325.235 76.1597 324.046 77.4984C322.856 78.8371 321.493 80.352 319.954 82.043C318.485 83.6635 317.121 85.1079 315.862 86.3762C314.673 87.6444 313.904 88.4547 313.554 88.807C313.064 89.0184 312.225 89.6877 311.036 90.815C309.917 91.9424 308.693 93.2106 307.364 94.6198C306.105 95.9585 305.021 97.1563 304.111 98.2132C303.272 99.1996 302.922 99.6928 303.062 99.6928C302.992 99.9746 303.342 99.9746 304.111 99.6928C304.951 99.3405 305.685 99.0587 306.315 98.8473C307.364 98.495 308.588 98.1779 309.987 97.8961C311.455 97.5438 312.924 97.262 314.393 97.0506C315.862 96.8392 317.121 96.6983 318.17 96.6278C319.289 96.5574 319.954 96.6278 320.164 96.8392C320.303 97.1915 320.408 97.3324 320.478 97.262C320.618 97.1211 320.688 97.0506 320.688 97.0506C320.828 96.5574 321.702 96.4165 323.311 96.6278C324.99 96.8392 326.494 97.1563 327.823 97.579C328.592 97.7904 329.186 98.0722 329.606 98.4245C330.096 98.7768 330.341 99.0939 330.341 99.3757C330.341 99.3757 330.41 99.5519 330.55 99.9042C330.76 100.186 331.075 100.574 331.495 101.067C332.614 101.983 332.614 102.969 331.495 104.026C330.445 105.083 328.522 105.365 325.724 104.871C323.906 104.871 322.402 104.977 321.213 105.189C320.933 105.329 320.338 105.4 319.429 105.4C318.52 105.4 317.646 105.435 316.806 105.506C315.547 105.365 314.288 105.435 313.029 105.717C311.77 105.928 310.266 106.316 308.518 106.88C307.888 107.091 306.909 107.408 305.58 107.831C304.251 108.253 302.817 108.676 301.279 109.099C299.74 109.522 298.341 109.839 297.082 110.05C295.893 110.262 295.123 110.332 294.774 110.262Z" fill="#FDFDFB"/>
<path d="M368.144 110.79C367.655 110.79 366.745 110.614 365.416 110.262C364.157 109.909 362.828 109.486 361.43 108.993C360.101 108.43 359.051 107.831 358.282 107.197C355.904 105.153 354.19 102.899 353.141 100.433C352.092 97.8961 351.462 95.3244 351.253 92.7174C351.113 90.1105 351.218 87.6444 351.567 85.3193C352.337 80.81 353.945 76.3359 356.394 71.897C358.842 67.3877 361.779 63.6534 365.207 60.6941C367.025 59.0736 368.844 57.6996 370.662 56.5723C372.481 55.445 374.439 54.6347 376.538 54.1415C377.307 53.9301 378.391 53.8244 379.79 53.8244C381.259 53.754 382.238 53.7188 382.728 53.7188C384.127 53.7188 385.665 54.0358 387.344 54.6699C389.093 55.2336 390.596 55.9382 391.855 56.7837C393.114 57.5587 393.744 58.2985 393.744 59.0031C393.744 59.4963 393.709 59.9895 393.639 60.4827C393.569 60.976 393.254 61.0816 392.695 60.7998H391.646L392.695 63.9704C392.975 64.5341 393.219 65.3091 393.429 66.2956C393.639 67.2115 393.744 68.057 393.744 68.8321C393.744 69.5366 393.639 70.5935 393.429 72.0027C393.289 73.3414 393.044 74.7858 392.695 76.3359C392.415 77.8859 392.1 79.3303 391.75 80.669C391.471 82.0078 391.191 82.9942 390.911 83.6283C390.701 84.051 390.561 84.4738 390.491 84.8965C390.491 85.2488 390.491 85.5659 390.491 85.8477C390.212 86.4114 389.757 87.3978 389.128 88.807C388.498 90.2161 388.043 91.2026 387.764 91.7662C387.484 92.0481 387.239 92.2947 387.029 92.506C386.889 92.7174 386.959 92.964 387.239 93.2458C387.239 93.4572 387.064 93.9504 386.714 94.7255C386.365 95.4301 385.98 96.0994 385.56 96.7335C385.211 97.3677 384.931 97.6847 384.721 97.6847C384.721 97.6847 384.616 97.7199 384.406 97.7904C384.266 97.7904 384.196 97.8961 384.196 98.1075C384.196 98.3893 383.707 99.1291 382.728 100.327C381.818 101.525 380.734 102.758 379.475 104.026C378.776 104.731 377.657 105.647 376.118 106.774C374.579 107.831 373.04 108.782 371.502 109.627C370.033 110.402 368.914 110.79 368.144 110.79ZM367.934 100.644C368.704 100.644 369.438 100.538 370.138 100.327C370.837 100.045 371.432 99.6575 371.921 99.1643C373.18 98.3188 374.369 97.1915 375.488 95.7823C376.677 94.3732 377.657 92.7526 378.426 90.9207C379.195 89.8638 379.79 88.7717 380.21 87.6444C380.699 86.4466 381.434 84.4386 382.413 81.6202C382.972 80.8452 383.357 79.894 383.567 78.7667C383.777 77.6393 383.882 76.6882 383.882 75.9131C383.882 75.1381 383.882 74.0812 383.882 72.7425C383.952 71.4038 384.127 70.2764 384.406 69.3605C384.406 67.5286 384.371 66.4717 384.301 66.1899C384.231 65.8376 383.952 65.3796 383.462 64.8159C383.182 64.6046 382.798 64.3932 382.308 64.1818C381.888 63.9704 381.434 63.8647 380.944 63.8647C380.454 63.8647 379.79 64.0057 378.951 64.2875C378.181 64.4989 377.517 64.7807 376.957 65.133C376.468 65.4148 375.908 65.4501 375.279 65.2387C374.719 65.0273 374.439 64.7455 374.439 64.3932C374.439 63.4068 373.95 63.4772 372.97 64.6046C372.061 65.6614 370.837 67.1411 369.298 69.0434C368.039 70.3117 366.955 71.6152 366.046 72.9539C365.207 74.2221 364.787 74.9972 364.787 75.279C364.787 75.5608 364.682 75.9131 364.472 76.3359C364.262 76.7586 364.052 77.2518 363.843 77.8155C363.493 78.3087 363.073 79.119 362.584 80.2463C362.094 81.3736 361.604 82.501 361.115 83.6283C360.695 84.6852 360.415 85.4954 360.275 86.0591C360.275 86.3409 360.275 87.116 360.275 88.3842C360.275 89.582 360.275 90.7093 360.275 91.7662C360.275 92.964 360.31 93.8447 360.38 94.4084C360.45 94.9721 360.555 95.43 360.695 95.7823C360.905 96.1346 361.185 96.6631 361.534 97.3677C361.814 97.8609 362.234 98.4598 362.793 99.1643C363.423 99.7985 363.843 100.256 364.052 100.538C364.822 101.243 365.311 101.525 365.521 101.384C365.801 101.172 366.605 100.926 367.934 100.644Z" fill="#FDFDFB"/>
<path d="M415.026 110.262C414.747 110.121 414.257 109.733 413.558 109.099C412.928 108.465 412.299 107.76 411.669 106.985C411.04 106.14 410.62 105.506 410.41 105.083C410.2 104.731 410.2 104.096 410.41 103.18C410.69 102.265 410.97 101.807 411.249 101.807C411.459 101.947 411.739 101.701 412.089 101.067C412.439 100.433 412.788 99.7632 413.138 99.0587C413.488 98.2836 413.663 97.8256 413.663 97.6847C413.733 97.4029 413.907 97.1915 414.187 97.0506C414.537 96.8392 414.852 96.6278 415.131 96.4165C415.481 95.8528 415.936 95.2891 416.495 94.7255C417.125 94.0913 417.614 93.5629 417.964 93.1402C418.524 92.4356 419.538 91.3787 421.007 89.9695C422.476 88.5604 423.909 87.116 425.308 85.6364C426.777 84.0158 428.071 82.6066 429.19 81.4089C430.309 80.1406 430.904 79.2599 430.974 78.7667C430.974 78.7667 431.079 78.661 431.289 78.4496C431.568 78.1678 431.883 77.9212 432.233 77.7098C432.583 77.4984 433.037 77.1461 433.597 76.6529C434.226 76.1597 434.751 75.7017 435.171 75.279C435.31 74.7153 435.625 74.0812 436.115 73.3766C436.674 72.6016 437.304 71.8618 438.003 71.1572C438.563 70.3117 439.087 69.3957 439.577 68.4093C440.067 67.3524 440.381 66.5774 440.521 66.0842C440.731 65.3091 440.661 64.8512 440.311 64.7102C439.962 64.4989 439.017 64.1466 437.479 63.6534C435.8 63.0897 434.226 62.984 432.757 63.3363C431.289 63.6886 429.33 64.7455 426.882 66.5069C425.903 66.7183 424.994 67.0001 424.154 67.3524C423.385 67.7047 422.72 67.8456 422.161 67.7752C421.881 67.6343 421.566 67.3172 421.217 66.824C420.867 66.3308 420.482 65.8728 420.062 65.4501L419.013 60.9055L422.266 59.1088C425.133 57.2769 427.861 55.903 430.449 54.987C433.107 54.0006 435.415 53.8244 437.374 54.4586C438.143 54.4586 438.843 54.5643 439.472 54.7756C440.102 54.9165 440.416 54.987 440.416 54.987C440.976 54.9165 441.78 55.1984 442.829 55.8325C443.949 56.4666 445.033 57.2769 446.082 58.2633C447.201 59.2497 447.97 60.2361 448.39 61.2226C449.509 62.9136 449.929 64.9568 449.649 67.3524C449.369 69.748 448.355 72.2493 446.606 74.8562C446.257 75.279 445.487 76.1597 444.298 77.4984C443.109 78.8371 441.745 80.352 440.207 82.043C438.738 83.6635 437.374 85.1079 436.115 86.3762C434.926 87.6444 434.156 88.4547 433.807 88.807C433.317 89.0184 432.478 89.6877 431.289 90.815C430.169 91.9424 428.945 93.2106 427.617 94.6198C426.358 95.9585 425.273 97.1563 424.364 98.2132C423.525 99.1996 423.175 99.6928 423.315 99.6928C423.245 99.9746 423.595 99.9746 424.364 99.6928C425.203 99.3405 425.938 99.0587 426.567 98.8473C427.617 98.495 428.841 98.1779 430.239 97.8961C431.708 97.5438 433.177 97.262 434.646 97.0506C436.115 96.8392 437.374 96.6983 438.423 96.6278C439.542 96.5574 440.207 96.6278 440.416 96.8392C440.556 97.1915 440.661 97.3324 440.731 97.262C440.871 97.1211 440.941 97.0506 440.941 97.0506C441.081 96.5574 441.955 96.4165 443.564 96.6278C445.243 96.8392 446.746 97.1563 448.075 97.579C448.845 97.7904 449.439 98.0722 449.859 98.4245C450.348 98.7768 450.593 99.0939 450.593 99.3757C450.593 99.3757 450.663 99.5519 450.803 99.9042C451.013 100.186 451.328 100.574 451.747 101.067C452.866 101.983 452.866 102.969 451.747 104.026C450.698 105.083 448.775 105.365 445.977 104.871C444.158 104.871 442.655 104.977 441.466 105.189C441.186 105.329 440.591 105.4 439.682 105.4C438.773 105.4 437.898 105.435 437.059 105.506C435.8 105.365 434.541 105.435 433.282 105.717C432.023 105.928 430.519 106.316 428.771 106.88C428.141 107.091 427.162 107.408 425.833 107.831C424.504 108.253 423.07 108.676 421.531 109.099C419.993 109.522 418.594 109.839 417.335 110.05C416.146 110.262 415.376 110.332 415.026 110.262Z" fill="#FDFDFB"/>
<defs>
<clipPath id="clip0_3548_283">
<rect width="455.073" height="372.205" fill="white" transform="translate(38.6222 139) rotate(5.95607)"/>
</clipPath>
</defs>
</svg>
