<svg width="1335" height="165" viewBox="0 0 1335 165" fill="none" xmlns="http://www.w3.org/2000/svg">
<g clip-path="url(#clip0_1300_890)">
<path d="M202.075 25.8128C185.064 25.4692 168.1 23.9086 151.312 21.1431C123.219 16.3228 22.5951 38.3154 22.5951 135.098C22.5951 135.098 70.9486 164.321 129.169 127.566C187.389 90.8113 202.075 25.8128 202.075 25.8128Z" fill="#C7D04F"/>
<path d="M8.58614 161.459C9.18509 161.411 9.76591 161.231 10.2868 160.931C10.8077 160.632 11.2558 160.22 11.5988 159.727C12.0507 159.049 26.2856 130.429 73.434 94.6532C74.3233 94.1749 75.0194 93.4032 75.4039 92.4694C75.7884 91.5357 75.8375 90.4976 75.5429 89.5317C75.3652 89.0519 75.0877 88.6153 74.7288 88.2507C74.3698 87.8861 73.9375 87.6019 73.4605 87.4168C72.9836 87.2317 72.4727 87.1499 71.9618 87.1769C71.4509 87.2039 70.9515 87.3391 70.4967 87.5735C43.1347 103.757 19.1894 125.118 1.76728e-05 150.463C-1.28037 152.271 4.21777 159.576 5.95006 160.782C6.32093 161.067 6.74569 161.274 7.19875 161.39C7.6518 161.507 8.12375 161.53 8.58614 161.459Z" fill="#E2E5A7"/>
</g>
<path d="M187.835 89.4496C192.275 93.0496 193.115 98.0896 188.795 102.05C184.715 105.89 180.395 105.29 176.795 100.73C173.555 96.5296 169.595 92.0896 165.515 87.7696V103.49C165.515 118.25 150.155 120.89 132.995 112.85C130.595 111.77 129.875 109.73 130.595 107.33C131.315 104.93 132.875 103.97 135.755 104.33C145.715 105.41 147.275 104.69 147.275 98.6896V89.9296C143.675 93.2896 139.715 96.2896 135.875 98.5696C132.515 100.49 129.395 100.61 127.115 98.5696C127.475 101.57 126.035 103.37 122.795 104.33C118.835 105.53 116.075 104.09 115.235 100.13C113.675 93.0496 111.515 86.2096 109.715 81.0496C108.875 78.6496 109.715 77.0896 111.515 76.1296C113.435 75.2896 114.995 76.0096 116.435 77.8096C119.195 81.2896 122.075 85.8496 124.355 90.7696C124.715 88.1296 126.635 85.8496 129.515 85.1296C134.915 83.6896 141.155 81.5296 147.275 78.5296V55.0096H127.355C124.235 55.0096 122.435 53.2096 122.435 50.0896C122.435 46.9696 124.235 45.1696 127.355 45.1696H156.995L158.435 39.6496H144.395C142.595 43.4896 138.995 44.8096 134.315 43.8496C129.395 42.8896 127.955 39.8896 129.275 35.2096C131.675 26.3296 134.315 15.1696 135.635 9.52961C136.595 5.44961 140.915 3.88961 144.995 4.48961C149.435 5.20961 152.075 7.96961 151.595 11.8096H162.875C164.915 8.56961 168.875 7.12961 173.195 7.96961C177.875 8.92961 180.995 12.4096 179.675 18.8896C178.475 24.6496 175.475 36.0496 172.715 45.1696H185.675C188.795 45.1696 190.595 46.9696 190.595 50.0896C190.595 53.2096 188.795 55.0096 185.675 55.0096H165.515V73.3696C168.155 69.5296 170.555 65.3296 172.475 61.2496C174.635 57.0496 179.075 55.7296 183.035 58.3696C187.235 61.1296 187.715 65.3296 184.355 68.8096C180.395 73.0096 176.075 76.6096 172.235 79.1296C178.115 82.2496 183.275 85.7296 187.835 89.4496ZM90.2754 62.2096H92.5554C95.9154 57.1696 98.9154 52.2496 101.555 47.4496C98.5554 48.6496 95.4354 49.7296 92.4354 50.4496C87.0354 51.7696 82.9554 48.8896 82.5954 43.2496C82.2354 38.0896 85.1154 34.7296 90.0354 34.9696C92.7954 26.2096 94.4754 18.5296 95.5554 11.3296C96.3954 5.68961 101.315 3.76961 106.355 4.72961C111.515 5.68961 113.795 10.0096 112.235 14.8096C110.075 21.2896 105.515 29.3296 100.835 35.5696C102.995 35.6896 105.275 35.6896 107.435 35.8096C108.995 32.3296 110.435 29.0896 111.635 25.8496C113.555 20.5696 118.355 19.3696 122.675 21.1696C127.475 23.2096 129.515 27.4096 126.755 32.3296C121.235 42.1696 114.035 52.2496 104.675 61.6096C107.675 61.4896 110.555 61.1296 113.435 60.7696C113.195 60.0496 113.075 59.2096 112.835 58.4896C112.115 55.7296 112.955 53.9296 114.995 53.0896C117.155 52.2496 118.715 53.0896 120.275 55.1296C123.275 59.0896 126.035 64.2496 128.075 69.4096C129.755 73.4896 128.315 76.9696 123.875 78.1696C119.675 79.2496 116.915 77.4496 116.195 73.4896L115.235 68.9296C108.275 72.6496 100.835 75.4096 92.5554 77.8096C86.7954 79.4896 82.7154 76.8496 82.1154 71.3296C81.3954 66.0496 84.0354 62.3296 90.2754 62.2096ZM147.155 30.0496H160.955C161.555 27.2896 162.155 24.8896 162.515 22.9696C162.755 22.0096 162.155 21.4096 161.195 21.4096H149.435C148.715 24.2896 147.995 27.1696 147.155 30.0496ZM141.995 77.4496C138.155 79.8496 133.715 78.6496 132.275 74.8096C130.835 70.9696 129.035 66.5296 127.355 63.2896C126.155 61.0096 126.635 59.0896 128.315 57.6496C129.995 56.2096 132.155 56.4496 134.075 58.0096C138.035 61.2496 141.275 64.3696 143.915 68.2096C146.315 71.6896 145.475 75.2896 141.995 77.4496ZM106.835 81.5296C109.595 88.0096 112.235 96.7696 113.555 104.33C114.395 109.01 112.715 111.65 108.035 112.13C103.355 112.61 100.475 110.69 100.475 105.65C100.475 97.8496 99.9954 89.2096 99.1554 83.2096C98.9154 80.4496 99.9954 78.8896 102.275 78.4096C104.555 77.9296 105.875 79.2496 106.835 81.5296ZM92.0754 80.0896C94.4754 80.2096 95.7954 82.0096 96.1554 84.8896C97.3554 93.1696 97.7154 101.33 97.3554 108.89C97.1154 114.41 93.0354 116.81 87.6354 115.49C82.5954 114.29 81.0354 110.81 82.5954 106.25C85.1154 99.1696 86.5554 92.0896 87.6354 84.0496C87.9954 81.2896 89.9154 79.9696 92.0754 80.0896Z" fill="#594A39"/>
<path d="M327.155 81.6496C332.195 109.13 327.515 113.21 307.355 113.81C287.675 114.41 270.755 114.53 255.635 113.93C235.355 113.09 231.515 109.85 231.515 93.1696V55.2496C229.595 56.5696 227.795 57.6496 225.995 58.6096C223.235 60.0496 220.595 59.6896 219.035 57.1696C217.475 54.7696 217.955 52.4896 220.475 50.2096C231.035 40.8496 240.515 25.6096 246.275 10.1296C248.675 3.76961 254.195 2.20961 260.315 4.60961C265.595 6.64961 266.915 11.2096 265.235 16.3696H278.915C282.755 13.0096 288.755 12.2896 293.195 14.5696C298.115 17.0896 300.275 22.0096 296.075 28.8496C294.155 31.9696 291.515 35.2096 288.635 38.0896H308.075C313.115 38.0896 315.875 40.8496 315.875 45.8896V70.1296C315.875 75.1696 313.115 77.9296 308.075 77.9296H250.475V86.2096C250.475 95.3296 251.555 96.4096 261.035 96.8896C275.195 97.6096 292.715 97.4896 305.795 96.8896C315.995 96.4096 317.315 94.8496 317.315 82.4896C317.315 79.1296 319.115 77.3296 321.755 77.3296C324.635 77.3296 326.555 78.6496 327.155 81.6496ZM277.955 29.0896C278.315 28.0096 277.715 27.4096 276.755 27.4096H259.235C256.835 31.0096 253.955 34.7296 250.835 38.0896H273.995C275.675 34.9696 276.875 32.2096 277.955 29.0896ZM265.235 67.1296V48.8896H251.915C251.075 48.8896 250.475 49.4896 250.475 50.3296V67.1296H265.235ZM298.115 50.3296C298.115 49.4896 297.515 48.8896 296.675 48.8896H283.235V67.1296H296.195C297.755 67.1296 298.115 66.6496 298.115 65.0896V50.3296Z" fill="#594A39"/>
<path d="M392.195 57.4096C390.395 59.2096 388.475 61.0096 386.315 62.6896V104.21C386.315 116.09 374.795 120.89 358.715 114.17C356.315 113.09 355.715 110.93 356.195 108.53C356.675 106.13 357.995 105.17 360.755 105.17C366.995 105.29 368.555 105.17 368.555 101.21V74.4496L368.195 74.6896C363.155 77.5696 358.715 75.7696 356.795 70.2496C354.995 64.9696 357.035 61.0096 362.315 59.3296C364.355 58.7296 366.395 58.0096 368.555 57.2896V39.5296H361.115C358.115 39.5296 356.435 37.8496 356.435 34.8496C356.435 31.8496 358.115 30.1696 361.115 30.1696H368.555V11.9296C368.555 6.64961 371.795 4.00961 377.435 4.00961C383.075 4.00961 386.315 6.64961 386.315 11.9296V30.1696H393.275C396.275 30.1696 397.955 31.8496 397.955 34.8496C397.955 37.8496 396.275 39.5296 393.275 39.5296H386.315V50.4496L387.515 49.9696C389.435 49.1296 391.235 49.0096 392.315 49.9696C393.035 46.2496 395.675 44.2096 399.995 44.2096H404.795C403.835 43.3696 402.995 42.0496 402.515 40.3696C401.435 36.7696 399.875 33.0496 398.075 28.9696C397.115 26.6896 397.715 24.8896 399.515 23.8096C401.315 22.7296 403.115 22.9696 404.795 24.5296C408.035 27.2896 411.275 30.7696 413.915 34.4896C416.675 38.4496 415.955 42.0496 412.115 44.2096H425.075C423.395 43.4896 422.075 41.6896 421.595 39.0496C420.755 35.3296 419.675 31.0096 418.235 26.8096C417.635 25.0096 417.875 23.6896 418.715 22.7296C410.675 22.8496 402.755 22.8496 396.035 22.3696C393.275 22.1296 391.595 20.6896 391.595 17.9296C391.595 15.1696 393.035 13.9696 395.675 13.7296C412.715 12.5296 432.995 9.28961 447.395 5.08961C451.955 3.76961 456.035 5.44961 457.235 10.1296C458.555 15.0496 456.275 19.0096 451.115 19.9696L449.315 20.3296C450.395 20.3296 451.475 20.5696 452.675 20.9296C457.475 22.4896 457.835 26.6896 456.275 30.0496C453.755 35.6896 450.755 40.3696 447.275 44.2096H452.555C457.595 44.2096 460.355 46.9696 460.355 52.0096V58.4896C460.355 63.6496 456.995 65.8096 451.715 65.8096C446.435 65.8096 443.435 63.2896 443.435 58.4896V55.4896C443.435 54.6496 442.835 54.0496 441.995 54.0496H410.195C409.355 54.0496 408.755 54.6496 408.755 55.4896V57.6496C408.755 62.4496 405.635 64.8496 400.355 64.8496C395.075 64.8496 392.195 62.4496 392.195 57.6496V57.4096ZM433.475 34.6096C435.755 38.9296 434.315 42.2896 429.995 43.9696C429.755 44.0896 429.515 44.0896 429.275 44.2096H438.755C438.515 43.6096 438.515 42.7696 438.875 41.8096C440.435 37.3696 441.515 32.8096 442.835 25.9696C443.315 23.2096 444.755 21.4096 446.795 20.6896C440.915 21.4096 433.355 22.1296 425.195 22.4896C425.435 22.6096 425.555 22.8496 425.795 23.0896C428.795 26.5696 431.195 30.2896 433.475 34.6096ZM454.955 99.1696C461.195 100.37 463.715 104.45 462.155 110.93C460.595 117.17 455.795 118.37 450.155 117.05C441.155 115.01 433.355 110.81 426.635 105.29C416.915 111.29 405.395 115.61 393.035 117.17C389.795 117.53 387.995 116.45 387.395 113.57C386.915 110.93 388.115 109.13 391.235 108.17C401.555 104.93 410.195 100.61 417.275 95.6896C412.115 89.3296 408.155 82.1296 405.515 74.9296H401.675C398.555 74.9296 396.755 73.1296 396.755 70.0096C396.755 66.8896 398.555 65.0896 401.675 65.0896H444.035C451.835 65.0896 454.595 70.4896 451.595 77.5696C448.955 83.8096 444.875 89.5696 439.955 94.7296C444.395 96.5296 449.315 97.9696 454.955 99.1696ZM432.995 74.9296H414.995C418.355 79.7296 422.195 83.8096 426.875 87.4096C429.995 83.9296 432.515 80.4496 434.195 76.7296C434.675 75.6496 434.075 74.9296 432.995 74.9296Z" fill="#594A39"/>
<path d="M594.155 22.3696C597.515 22.3696 599.435 24.2896 599.435 27.6496C599.435 31.0096 597.515 32.9296 594.155 32.9296H532.595C529.235 32.9296 527.315 31.0096 527.315 27.6496C527.315 24.2896 529.235 22.3696 532.595 22.3696H552.155V11.6896C552.155 7.24961 555.755 3.88961 562.475 3.88961C569.075 3.88961 572.795 7.12961 572.795 11.6896V22.3696H594.155ZM528.995 17.0896C527.675 22.7296 525.755 28.4896 523.355 34.2496V109.25C523.355 114.77 520.115 117.17 514.235 117.17C508.355 117.17 505.115 114.77 505.115 109.25V63.7696C503.315 65.9296 501.395 67.8496 499.475 69.6496C497.195 71.6896 494.915 72.0496 493.235 70.6096C491.195 68.6896 491.075 66.6496 492.515 64.1296C500.555 50.2096 506.915 31.2496 509.915 13.3696C511.115 6.16961 515.195 3.64961 521.675 4.84961C528.035 6.04961 530.555 10.1296 528.995 17.0896ZM588.875 40.1296C592.235 40.1296 594.155 42.0496 594.155 45.4096C594.155 48.7696 592.235 50.6896 588.875 50.6896H536.195C532.835 50.6896 530.915 48.7696 530.915 45.4096C530.915 42.0496 532.835 40.1296 536.195 40.1296H588.875ZM588.635 56.4496C591.995 56.4496 593.915 58.3696 593.915 61.7296C593.915 65.0896 591.995 67.0096 588.635 67.0096H536.555C533.195 67.0096 531.275 65.0896 531.275 61.7296C531.275 58.3696 533.195 56.4496 536.555 56.4496H588.635ZM585.155 74.0896C590.195 74.0896 592.955 76.8496 592.955 81.8896V109.37C592.955 114.77 589.595 117.17 583.475 117.17C577.355 117.17 573.995 114.77 573.995 109.37V107.57H551.075V109.37C551.075 114.77 547.715 117.17 541.595 117.17C535.475 117.17 532.115 114.77 532.115 109.37V81.8896C532.115 76.8496 534.875 74.0896 539.915 74.0896H585.155ZM551.075 97.4896H573.995V85.6096C573.995 84.7696 573.395 84.1696 572.555 84.1696H552.515C551.675 84.1696 551.075 84.7696 551.075 85.6096V97.4896Z" fill="#594A39"/>
<path d="M655.555 118.12C653.902 118.013 652.249 117.4 650.595 116.28C648.942 115.213 647.422 114.2 646.035 113.24C645.129 112.333 644.435 111.373 643.955 110.36C643.475 109.293 643.075 107.907 642.755 106.2C642.542 105.187 642.542 103.853 642.755 102.2C642.969 100.547 643.315 98.8933 643.795 97.24C644.275 95.5333 644.729 94.2 645.155 93.24C645.795 91.7467 646.595 90.1467 647.555 88.44C648.569 86.68 649.555 85.0267 650.515 83.48C651.529 81.88 652.329 80.6 652.915 79.64C653.289 79.2667 653.449 79.08 653.395 79.08C653.395 79.0267 653.395 79 653.395 79C653.395 78.7333 653.662 78.0667 654.195 77C654.782 75.88 655.289 74.8933 655.715 74.04C656.515 73.1867 656.969 72.4933 657.075 71.96C657.182 71.4267 657.102 71 656.835 70.68C656.729 70.4667 656.942 70.0133 657.475 69.32C658.062 68.6267 658.862 67.8533 659.875 67C660.889 66.0933 662.009 65.2933 663.235 64.6C664.515 63.5867 665.742 63.0533 666.915 63C668.142 62.8933 668.862 63.1333 669.075 63.72C669.075 63.88 669.369 63.9333 669.955 63.88C670.595 63.7733 671.315 63.64 672.115 63.48C672.969 63.2667 673.715 63.1067 674.355 63C674.622 62.68 675.235 62.44 676.195 62.28C677.209 62.0667 678.382 61.88 679.715 61.72C680.409 61.7733 681.182 61.8 682.035 61.8C682.889 61.7467 683.635 61.6933 684.275 61.64C684.969 61.5867 685.315 61.56 685.315 61.56C685.689 61.4533 686.222 61.6933 686.915 62.28C687.662 62.8133 688.249 63.56 688.675 64.52C689.049 65.48 688.729 66.3067 687.715 67C686.702 67.6933 685.102 68.1733 682.915 68.44C681.315 68.6533 680.062 68.84 679.155 69C678.302 69.1067 677.369 69.2667 676.355 69.48C675.395 69.64 673.982 69.9333 672.115 70.36C670.782 70.6267 669.662 70.84 668.755 71C667.849 71.16 667.049 71.48 666.355 71.96C665.715 72.44 664.995 73.2933 664.195 74.52C663.822 74.7867 663.342 75.48 662.755 76.6C662.169 77.72 661.582 78.84 660.995 79.96C659.502 82.04 658.382 83.5867 657.635 84.6C656.942 85.56 656.702 86.1733 656.915 86.44C656.915 86.44 657.289 86.52 658.035 86.68C658.782 86.84 659.262 86.92 659.475 86.92C660.009 86.6533 660.649 86.4667 661.395 86.36C662.195 86.2533 662.835 86.1467 663.315 86.04C666.622 85.1867 669.049 84.5733 670.595 84.2C672.195 83.7733 673.315 83.48 673.955 83.32C674.649 83.16 675.262 83.0533 675.795 83C676.542 82.4133 677.289 82.4667 678.035 83.16C678.835 83.8 679.395 84.5733 679.715 85.48C680.089 86.5467 680.089 87.3733 679.715 87.96C679.342 88.5467 678.515 89.0267 677.235 89.4C676.009 89.7733 674.249 90.2267 671.955 90.76C669.662 91.24 666.782 91.96 663.315 92.92C660.382 93.7733 658.009 94.28 656.195 94.44C654.382 94.6 653.529 94.1467 653.635 93.08C653.262 92.8667 652.835 93.08 652.355 93.72C651.929 94.3067 651.529 95.1333 651.155 96.2C650.782 97.2667 650.435 98.4133 650.115 99.64C649.849 100.867 649.689 102.013 649.635 103.08C649.582 104.147 649.662 104.973 649.875 105.56C650.302 106.787 650.969 107.853 651.875 108.76C652.835 109.613 654.222 110.307 656.035 110.84C657.102 110.893 658.142 110.973 659.155 111.08C660.169 111.187 661.315 110.973 662.595 110.44C665.742 109.907 667.929 109.347 669.155 108.76C670.382 108.173 671.129 107.773 671.395 107.56C671.822 107.347 672.089 107.133 672.195 106.92C672.355 106.707 672.569 106.6 672.835 106.6C672.675 106.867 672.729 106.867 672.995 106.6C673.262 106.333 673.689 105.96 674.275 105.48C675.395 104.52 676.515 103.933 677.635 103.72C678.755 103.507 679.689 103.507 680.435 103.72C681.182 103.88 681.582 104.093 681.635 104.36C681.955 104.893 681.795 105.747 681.155 106.92C680.515 108.04 679.529 109.24 678.195 110.52C676.915 111.8 675.395 112.947 673.635 113.96C670.809 115.453 667.742 116.493 664.435 117.08C661.129 117.72 658.169 118.067 655.555 118.12ZM703.647 120.2C702.687 119.933 701.913 119.693 701.327 119.48C700.74 119.32 700.447 119.24 700.447 119.24C700.553 118.973 700.5 118.733 700.287 118.52C700.127 118.307 699.753 118.173 699.167 118.12C698.367 117.587 697.54 116.84 696.687 115.88C695.833 114.92 695.087 113.933 694.447 112.92C693.807 111.907 693.38 111.16 693.167 110.68C692.793 109.88 692.82 109.4 693.247 109.24C693.673 109.027 694.18 108.787 694.767 108.52C695.353 108.093 695.967 107.773 696.607 107.56C697.3 107.347 697.86 107.693 698.287 108.6C698.98 109.827 700.047 110.867 701.487 111.72C702.98 112.573 704.66 113.08 706.527 113.24C708.447 113.4 710.367 113.08 712.287 112.28C713.567 111.693 714.26 110.893 714.367 109.88C714.473 108.813 714.073 107.587 713.167 106.2C713.007 105.773 712.767 105.427 712.447 105.16C712.18 104.893 711.753 104.547 711.167 104.12C710.633 103.693 709.86 103 708.847 102.04C708.047 101.667 707.3 101.32 706.607 101C705.967 100.68 705.273 100.333 704.527 99.96C703.673 99.5333 702.713 98.9467 701.647 98.2C700.58 97.4 699.593 96.5467 698.687 95.64C697.78 94.68 697.087 93.7733 696.607 92.92C695.753 92.12 695.22 91.0267 695.007 89.64C694.793 88.2 694.82 86.68 695.087 85.08C695.407 83.48 695.913 82.04 696.607 80.76C696.927 80.0133 697.513 79.0533 698.367 77.88C699.22 76.6533 700.18 75.4 701.247 74.12C702.313 72.84 703.327 71.6933 704.287 70.68C705.3 69.6133 706.1 68.8933 706.687 68.52C707.113 68.0933 707.567 67.6667 708.047 67.24C708.527 66.76 708.767 66.52 708.767 66.52C708.82 66.2533 708.9 66.12 709.007 66.12C709.167 66.12 709.247 66.12 709.247 66.12C709.513 65.96 710.1 65.6933 711.007 65.32C711.913 64.9467 712.9 64.2533 713.967 63.24C717.54 61.5333 720.58 60.3867 723.087 59.8C725.593 59.16 727.567 58.84 729.007 58.84C730.34 58.8933 731.647 59.2667 732.927 59.96C734.207 60.6 735.3 61.4267 736.207 62.44C737.167 63.4533 737.727 64.6 737.887 65.88C738.26 67.16 738.073 68.7067 737.327 70.52C736.633 72.28 735.647 73.96 734.367 75.56C733.14 77.1067 731.86 78.2533 730.527 79C729.033 79.64 727.753 79.72 726.687 79.24C725.673 78.76 725.193 78.0133 725.247 77C725.247 76.5733 725.38 76.0667 725.647 75.48C725.967 74.8933 726.793 73.8533 728.127 72.36C729.833 69.8533 730.74 68.0667 730.847 67C730.953 65.9333 730.473 65.32 729.407 65.16C729.087 65.0533 728.473 65.08 727.567 65.24C726.66 65.4 725.673 65.6133 724.607 65.88C723.593 66.0933 722.687 66.3333 721.887 66.6C721.14 66.8667 720.767 67.0533 720.767 67.16C720.767 67.16 720.767 67.24 720.767 67.4C720.767 67.56 720.66 67.6133 720.447 67.56C720.34 67.56 719.967 67.7467 719.327 68.12C718.74 68.44 718.02 68.8667 717.167 69.4C716.313 69.9333 715.46 70.4933 714.607 71.08C713.807 71.6133 713.113 72.0933 712.527 72.52C711.94 72.9467 711.62 73.2133 711.567 73.32C711.46 73.9067 710.847 74.44 709.727 74.92C708.66 75.56 707.727 76.4667 706.927 77.64C706.127 78.8133 705.193 80.3067 704.127 82.12C703.22 83.3467 702.58 84.68 702.207 86.12C701.833 87.5067 701.833 88.6267 702.207 89.48C702.473 90.3333 703.193 91.1867 704.367 92.04C705.593 92.84 707.247 93.8533 709.327 95.08C711.14 96.0933 712.847 97.16 714.447 98.28C716.047 99.4 717.407 100.493 718.527 101.56C719.647 102.573 720.367 103.427 720.687 104.12C721.327 105.027 721.7 106.067 721.807 107.24C721.967 108.413 721.967 109.56 721.807 110.68C721.7 111.747 721.54 112.627 721.327 113.32C720.953 114.173 720.367 115.08 719.567 116.04C718.82 117 718.127 117.453 717.487 117.4C716.9 117.56 716.447 117.747 716.127 117.96C715.86 118.173 715.54 118.36 715.167 118.52C714.793 118.733 713.913 118.973 712.527 119.24C711.14 119.56 709.62 119.8 707.967 119.96C706.313 120.173 704.873 120.253 703.647 120.2ZM743.416 119.24C742.669 118.76 741.843 117.88 740.936 116.6C740.083 115.373 739.336 113.853 738.696 112.04C738.109 110.227 737.843 108.307 737.896 106.28C737.896 104.147 738.083 101.64 738.456 98.76C738.883 95.8267 739.576 92.7333 740.536 89.48C741.176 87.1333 741.896 84.92 742.696 82.84C743.496 80.76 744.296 78.8667 745.096 77.16C745.949 75.4533 746.696 73.9867 747.336 72.76C748.883 70.04 750.429 67.8267 751.976 66.12C753.523 64.36 754.963 63.08 756.296 62.28C756.936 61.9067 757.816 61.5067 758.936 61.08C760.109 60.6533 761.389 60.3333 762.776 60.12C764.163 59.8533 765.523 59.8533 766.856 60.12C768.243 60.3867 769.576 60.7867 770.856 61.32C772.189 61.8533 773.069 62.3067 773.496 62.68C774.243 63.64 774.936 64.5733 775.576 65.48C776.269 66.3333 776.616 67.2933 776.616 68.36C776.669 69.5333 776.403 70.4933 775.816 71.24C775.229 71.9867 774.536 72.4133 773.736 72.52C772.936 72.6267 772.216 72.3333 771.576 71.64C771.309 70.6267 770.909 69.8533 770.376 69.32C769.843 68.7333 768.989 68.2 767.816 67.72C767.069 67.4 766.243 67.1867 765.336 67.08C764.483 66.92 763.603 66.9467 762.696 67.16C761.789 67.32 760.909 67.7467 760.056 68.44C759.416 68.92 758.696 69.6133 757.896 70.52C757.096 71.3733 756.296 72.3333 755.496 73.4C754.749 74.4667 754.083 75.5867 753.496 76.76C752.163 79.32 750.989 81.88 749.976 84.44C749.016 87 748.163 89.6933 747.416 92.52C747.203 93.4267 746.963 94.44 746.696 95.56C746.429 96.6267 746.189 97.8 745.976 99.08C745.763 100.307 745.576 101.72 745.416 103.32C745.149 105.933 745.256 108.147 745.736 109.96C746.216 111.72 747.096 112.84 748.376 113.32C749.709 113.8 751.416 113.427 753.496 112.2C754.776 111.773 755.923 111.16 756.936 110.36C757.949 109.56 758.909 108.6 759.816 107.48C760.723 106.36 761.656 105.107 762.616 103.72C763.683 101.853 764.483 100.2 765.016 98.76C765.603 97.32 765.816 96.2 765.656 95.4C765.549 94.5467 764.963 94.1467 763.896 94.2C761.923 94.2 760.403 94.2 759.336 94.2C758.269 94.1467 757.256 93.9867 756.296 93.72C755.443 93.24 755.016 92.4933 755.016 91.48C755.069 90.4667 755.763 89.5333 757.096 88.68C758.056 88.2 759.283 87.8533 760.776 87.64C762.269 87.4267 763.816 87.4 765.416 87.56C767.069 87.6667 768.509 88.0133 769.736 88.6C771.123 89.1867 772.109 90.36 772.696 92.12C773.283 93.8267 773.389 95.6133 773.016 97.48C772.749 98.3333 772.216 99.7467 771.416 101.72C770.669 103.64 769.683 105.507 768.456 107.32C767.656 108.493 766.669 109.773 765.496 111.16C764.323 112.493 762.963 113.773 761.416 115C759.869 116.28 758.136 117.4 756.216 118.36C754.083 119.373 751.843 120.067 749.496 120.44C747.149 120.867 745.123 120.467 743.416 119.24ZM821.978 120.52C819.685 120.413 817.765 120.093 816.218 119.56C814.671 119.027 812.911 118.093 810.938 116.76C810.725 116.387 810.458 115.773 810.138 114.92C809.818 114.013 809.498 113.053 809.178 112.04C808.858 111.027 808.591 110.147 808.378 109.4C808.218 108.6 808.165 108.12 808.218 107.96C808.431 107.693 808.538 107.373 808.538 107C808.538 106.573 808.511 106.253 808.458 106.04C808.245 105.24 808.405 103.827 808.938 101.8C809.471 99.7733 810.298 97.24 811.418 94.2C812.591 91.16 813.978 87.8 815.578 84.12C816.591 81.9333 817.951 79.56 819.658 77C821.365 74.44 823.205 71.9867 825.178 69.64C827.205 67.24 829.178 65.1867 831.098 63.48C833.018 61.72 834.645 60.5467 835.978 59.96C836.885 59.5867 837.711 59.4 838.458 59.4C839.205 59.3467 839.978 59.3733 840.778 59.48C842.218 59.6933 843.578 60.2 844.858 61C846.138 61.7467 847.205 62.7867 848.058 64.12C848.965 65.5067 849.551 67.0533 849.818 68.76C850.085 70.4667 850.165 72.12 850.058 73.72C849.951 75.32 849.738 76.6533 849.418 77.72C849.098 78.5733 848.778 79.2133 848.458 79.64C848.138 80.0133 847.658 80.2533 847.018 80.36C846.805 80.4133 846.191 80.3067 845.178 80.04C844.218 79.72 843.445 79.4 842.858 79.08C842.218 78.6533 841.791 78.2267 841.578 77.8C841.418 77.32 841.338 77.08 841.338 77.08C841.338 77.08 841.365 76.76 841.418 76.12C841.525 75.4267 841.685 74.76 841.898 74.12C842.645 71.6667 842.911 69.9067 842.698 68.84C842.485 67.7733 841.765 67.0267 840.538 66.6C839.365 66.5467 837.925 67.2667 836.218 68.76C834.511 70.2533 832.831 71.96 831.178 73.88C828.778 76.8133 826.725 79.6933 825.018 82.52C823.311 85.3467 821.791 88.4133 820.458 91.72C819.285 95.1333 818.351 98.0133 817.658 100.36C817.018 102.653 816.591 104.493 816.378 105.88C816.485 106.573 816.538 107.16 816.538 107.64C816.591 108.067 816.511 108.28 816.298 108.28C816.405 108.92 816.618 109.667 816.938 110.52C817.258 111.373 817.925 112.173 818.938 112.92C819.151 113.133 819.471 113.32 819.898 113.48C820.325 113.587 820.805 113.613 821.338 113.56C822.191 113.507 823.071 113.373 823.978 113.16C824.938 112.947 825.791 112.707 826.538 112.44C827.338 112.12 827.898 111.827 828.218 111.56C828.218 111.56 828.458 111.533 828.938 111.48C829.418 111.373 830.005 111.16 830.698 110.84C831.178 110.573 831.791 110.28 832.538 109.96C833.285 109.64 834.111 109.293 835.018 108.92C836.618 108.173 837.951 107.8 839.018 107.8C840.138 107.8 841.045 107.907 841.738 108.12C841.738 108.12 841.658 108.493 841.498 109.24C841.391 109.987 841.231 110.653 841.018 111.24C840.751 111.613 840.405 112.067 839.978 112.6C839.605 113.08 839.098 113.56 838.458 114.04C837.818 114.52 837.018 114.973 836.058 115.4C835.791 115.453 835.365 115.613 834.778 115.88C834.191 116.2 833.551 116.573 832.858 117C831.365 117.907 829.738 118.68 827.978 119.32C826.271 119.96 824.271 120.36 821.978 120.52ZM860.235 114.44C859.541 114.44 858.981 114.307 858.555 114.04C858.181 113.773 857.701 113.4 857.115 112.92C856.101 111.853 855.275 110.707 854.635 109.48C854.048 108.253 853.835 107.187 853.995 106.28C854.155 105.853 854.208 105.453 854.155 105.08C854.155 104.653 854.155 104.44 854.155 104.44C853.888 104.173 853.808 104.013 853.915 103.96C854.021 103.853 854.128 103.693 854.235 103.48C854.555 103.48 854.661 103.187 854.555 102.6C854.448 102.173 854.608 101.267 855.035 99.88C855.515 98.44 856.155 97.08 856.955 95.8C857.275 95.2667 857.755 94.5733 858.395 93.72C859.035 92.8133 859.728 91.9333 860.475 91.08C861.275 90.1733 861.995 89.4533 862.635 88.92C863.968 87.8 865.195 86.8933 866.315 86.2C867.488 85.5067 868.661 85.0267 869.835 84.76C871.008 84.4933 872.208 84.36 873.435 84.36C874.715 84.36 875.755 84.7867 876.555 85.64C877.781 86.1733 878.635 86.8933 879.115 87.8C879.648 88.7067 879.995 89.88 880.155 91.32C880.315 92.92 880.155 94.8933 879.675 97.24C879.195 99.5333 877.888 102.2 875.755 105.24C874.421 107.16 873.115 108.653 871.835 109.72C870.555 110.787 869.141 111.773 867.595 112.68C866.475 113.427 865.275 113.88 863.995 114.04C862.715 114.2 861.461 114.333 860.235 114.44ZM868.395 104.68C869.568 103.667 870.395 102.547 870.875 101.32C871.408 100.093 871.968 98.6533 872.555 97C872.768 96.68 872.901 96.1467 872.955 95.4C873.061 94.6533 873.088 93.9333 873.035 93.24C872.981 92.4933 872.795 92.0667 872.475 91.96C871.995 91.5867 871.515 91.5067 871.035 91.72C870.555 91.88 869.941 92.2267 869.195 92.76C867.595 94.0933 866.101 95.64 864.715 97.4C863.381 99.1067 862.448 101.213 861.915 103.72C861.755 105.053 861.888 106.067 862.315 106.76C862.795 107.4 863.541 107.587 864.555 107.32C865.621 107 866.901 106.12 868.395 104.68ZM917.619 113.08C916.446 112.973 915.459 112.733 914.659 112.36C913.913 111.933 913.299 111.107 912.819 109.88C912.606 109.027 912.499 108.147 912.499 107.24C912.553 106.28 912.633 105.373 912.739 104.52C912.846 103.613 912.899 102.84 912.899 102.2C912.899 102.093 912.899 101.88 912.899 101.56C912.899 101.24 912.899 100.947 912.899 100.68C912.793 99.88 912.579 99.4 912.259 99.24C911.993 99.0267 911.513 99.0533 910.819 99.32C909.699 99.8533 908.473 100.573 907.139 101.48C905.859 102.333 904.499 103.347 903.059 104.52C901.673 105.64 900.233 106.84 898.739 108.12C897.566 109.4 896.686 110.44 896.099 111.24C895.566 112.04 895.006 112.44 894.419 112.44C893.993 112.653 893.539 112.6 893.059 112.28C892.579 111.96 892.073 111.587 891.539 111.16C891.166 110.733 890.713 110.2 890.179 109.56C889.699 108.867 889.406 108.413 889.299 108.2C889.299 107.347 889.353 106.573 889.459 105.88C889.619 105.187 889.833 104.467 890.099 103.72C890.419 102.973 890.793 102.12 891.219 101.16C891.433 100.787 891.619 100.413 891.779 100.04C891.993 99.6133 892.233 99.16 892.499 98.68C892.713 97.9333 893.006 97.08 893.379 96.12C893.806 95.16 894.206 94.2533 894.579 93.4C895.166 92.0133 895.619 90.8133 895.939 89.8C896.259 88.7867 896.526 87.6933 896.739 86.52C896.686 86.4133 896.713 86.2533 896.819 86.04C896.926 85.8267 897.086 85.6933 897.299 85.64H897.379H897.459C897.833 85.3733 898.526 85.3467 899.539 85.56C900.606 85.72 901.406 86.0133 901.939 86.44C903.059 87.4 903.593 88.6533 903.539 90.2C903.486 91.7467 902.686 93.7733 901.139 96.28C900.766 97.1333 900.366 97.9333 899.939 98.68C899.566 99.3733 899.379 99.8533 899.379 100.12C899.379 100.12 899.593 99.96 900.019 99.64C900.446 99.32 900.953 98.9467 901.539 98.52C902.126 98.04 902.633 97.6667 903.059 97.4C903.326 97.1333 903.913 96.6533 904.819 95.96C905.726 95.2133 906.713 94.44 907.779 93.64C908.846 92.84 909.699 92.2267 910.339 91.8C910.926 91.3733 911.673 90.9467 912.579 90.52C913.486 90.04 914.046 89.8 914.259 89.8C914.793 89.8 915.433 89.9867 916.179 90.36C916.979 90.7333 917.699 91.1867 918.339 91.72C919.033 92.2 919.433 92.6533 919.539 93.08C919.539 93.2933 919.513 93.5867 919.459 93.96C919.406 94.28 919.379 94.5733 919.379 94.84C919.326 95.6933 919.299 96.7333 919.299 97.96C919.353 99.1333 919.379 100.333 919.379 101.56C919.379 102.733 919.273 103.8 919.059 104.76C919.059 104.76 919.086 104.813 919.139 104.92C919.193 104.973 919.246 105.08 919.299 105.24C919.246 105.293 919.219 105.4 919.219 105.56C919.273 105.667 919.299 105.72 919.299 105.72C919.406 106.093 919.513 106.467 919.619 106.84C919.779 107.213 919.966 107.64 920.179 108.12C920.393 108.547 920.633 109.107 920.899 109.8C920.846 110.493 920.446 111.187 919.699 111.88C919.006 112.52 918.313 112.92 917.619 113.08ZM940.818 115.48C939.111 115.48 937.538 115.107 936.098 114.36C934.711 113.56 933.591 112.6 932.738 111.48C931.885 110.307 931.458 109.187 931.458 108.12C931.458 107.64 931.538 107.293 931.698 107.08C931.911 106.867 932.205 106.76 932.578 106.76C932.845 106.813 933.165 106.947 933.538 107.16C933.911 107.373 934.285 107.613 934.658 107.88C935.511 108.467 936.445 108.84 937.458 109C938.471 109.16 939.378 109.107 940.178 108.84C940.978 108.52 941.431 108.04 941.538 107.4C941.538 107.187 941.431 106.733 941.218 106.04C941.005 105.347 940.738 104.68 940.418 104.04C939.085 102.067 938.258 100.2 937.938 98.44C937.618 96.6267 937.405 94.8133 937.298 93C937.298 92.2533 937.645 91.4267 938.338 90.52C939.031 89.56 939.885 88.6267 940.898 87.72C942.018 86.76 943.245 85.8533 944.578 85C945.965 84.1467 947.325 83.4267 948.658 82.84C949.991 82.2533 951.111 81.9067 952.018 81.8C952.978 81.8 953.991 81.8533 955.058 81.96C956.178 82.0133 956.925 82.2 957.298 82.52C958.045 83.1067 958.738 84.0667 959.378 85.4C960.018 86.7333 960.338 87.8533 960.338 88.76C960.338 89.1867 960.098 89.72 959.618 90.36C959.191 90.9467 958.791 91.6133 958.418 92.36C958.205 92.7333 958.018 93.1333 957.858 93.56C957.698 93.9867 957.511 94.4133 957.298 94.84C956.978 95.5867 956.391 95.9067 955.538 95.8C954.738 95.64 953.991 95.2133 953.298 94.52C952.605 93.7733 952.258 92.92 952.258 91.96C952.258 91.16 952.498 90.4667 952.978 89.88C953.458 89.2933 953.698 88.8933 953.698 88.68C953.698 88.5733 953.645 88.4933 953.538 88.44C953.431 88.3867 953.245 88.36 952.978 88.36C952.605 88.36 951.991 88.52 951.138 88.84C950.338 89.1067 949.485 89.5067 948.578 90.04C947.671 90.5733 946.845 91.2133 946.098 91.96C945.565 92.5467 945.111 93.1867 944.738 93.88C944.418 94.52 944.258 95.2133 944.258 95.96C944.258 96.7067 944.391 97.5867 944.658 98.6C944.978 99.56 945.325 100.36 945.698 101C945.805 101.107 945.965 101.4 946.178 101.88C946.445 102.307 946.738 102.84 947.058 103.48C949.031 107.533 949.351 110.547 948.018 112.52C946.738 114.493 944.338 115.48 940.818 115.48ZM987.107 115.48C986.733 115.693 986.227 115.613 985.587 115.24C985 114.867 984.413 114.307 983.827 113.56C983.453 112.92 983.16 112.28 982.947 111.64C982.787 110.947 982.707 109.933 982.707 108.6C982.76 107.533 982.76 106.813 982.707 106.44C982.707 106.013 982.467 105.987 981.987 106.36C981.56 106.68 980.68 107.48 979.347 108.76C978.013 110.093 976.733 111.24 975.507 112.2C974.333 113.107 973.373 113.533 972.627 113.48C972.253 113.48 971.747 113.24 971.107 112.76C970.467 112.28 969.853 111.693 969.267 111C968.68 110.253 968.253 109.56 967.987 108.92C967.667 107.64 967.64 105.987 967.907 103.96C968.227 101.933 968.733 99.8267 969.427 97.64C970.12 95.4 970.893 93.32 971.747 91.4C972.653 89.4267 973.533 87.8533 974.387 86.68C975.293 85.4533 976.067 84.8667 976.707 84.92C977.613 85.0267 978.387 85.48 979.027 86.28C979.72 87.0267 980.253 87.8533 980.627 88.76C980.84 89.1333 980.92 89.4533 980.867 89.72C980.867 89.9867 980.653 90.3067 980.227 90.68C979.747 91.32 979.16 92.2533 978.467 93.48C977.827 94.6533 977.16 95.9333 976.467 97.32C975.827 98.7067 975.24 100.04 974.707 101.32C974.227 102.547 973.88 103.56 973.667 104.36C973.453 105.16 973.453 105.56 973.667 105.56C974.413 105.56 975.107 105.373 975.747 105C976.387 104.573 977.187 103.907 978.147 103C979.267 101.88 980.253 100.76 981.107 99.64C981.96 98.4667 982.84 97.1333 983.747 95.64C984.44 94.5733 985.16 93.4 985.907 92.12C986.707 90.84 987.213 89.9333 987.427 89.4C988.173 88.0133 988.733 86.9733 989.107 86.28C989.48 85.5867 989.933 85.16 990.467 85C990.733 85 991.107 85 991.587 85C992.067 85 992.307 85 992.307 85C992.627 85.0533 993 85.2933 993.427 85.72C993.853 85.9333 994.28 86.2267 994.707 86.6C995.187 86.9733 995.427 87.2933 995.427 87.56C995.213 88.0933 994.867 88.8933 994.387 89.96C993.96 90.9733 993.64 91.72 993.427 92.2C992.413 94.4933 991.427 96.76 990.467 99C989.56 101.187 988.893 103.427 988.467 105.72C988.36 106.467 988.333 107.347 988.387 108.36C988.493 109.32 988.653 110.013 988.867 110.44C989.027 110.76 989.213 111.133 989.427 111.56C989.693 111.933 989.987 112.253 990.307 112.52C990.787 112.84 990.76 113.24 990.227 113.72C989.747 114.2 989.133 114.627 988.387 115C987.693 115.32 987.267 115.48 987.107 115.48ZM1007.84 112.36C1006.82 111.933 1006 111.293 1005.36 110.44C1004.77 109.533 1004.48 108.44 1004.48 107.16C1004.48 106.627 1004.58 105.72 1004.8 104.44C1005.01 103.16 1005.3 101.72 1005.68 100.12C1006.05 98.52 1006.42 97.0267 1006.8 95.64C1007.33 94.68 1007.68 93.72 1007.84 92.76C1008.05 91.8 1008.16 91.2133 1008.16 91C1008.26 90.36 1008.45 89.5067 1008.72 88.44C1008.98 87.3733 1009.25 86.4133 1009.52 85.56C1009.84 84.6533 1010.05 84.1467 1010.16 84.04C1010.42 83.7733 1010.88 83.6133 1011.52 83.56C1012.16 83.5067 1012.8 83.5867 1013.44 83.8C1014.08 83.96 1014.5 84.3067 1014.72 84.84C1015.3 85.48 1015.62 86.44 1015.68 87.72C1015.78 89 1015.54 90.4933 1014.96 92.2C1014.48 93.2667 1014 94.52 1013.52 95.96C1013.04 97.4 1012.61 98.7333 1012.24 99.96C1011.92 101.133 1011.73 101.933 1011.68 102.36L1008.8 102.28C1009.7 101.427 1010.56 100.547 1011.36 99.64C1012.16 98.68 1012.74 97.9333 1013.12 97.4C1014.02 96.1733 1014.8 95.16 1015.44 94.36C1016.13 93.5067 1017.01 92.4933 1018.08 91.32C1019.14 90.0933 1020.29 89.24 1021.52 88.76C1022.74 88.2267 1023.65 87.96 1024.24 87.96C1025.41 88.1733 1026.45 88.7867 1027.36 89.8C1028.32 90.76 1028.9 92.2 1029.12 94.12C1029.12 94.8667 1029.04 95.7467 1028.88 96.76C1028.77 97.7733 1028.72 98.28 1028.72 98.28C1028.72 98.28 1029.14 97.7467 1030 96.68C1030.9 95.6133 1032.1 94.4133 1033.6 93.08C1034.61 92.3333 1035.6 91.9067 1036.56 91.8C1037.52 91.64 1038.37 91.96 1039.12 92.76C1040.5 93.5067 1041.52 94.8133 1042.16 96.68C1042.8 98.5467 1043.01 100.653 1042.8 103C1042.64 104.387 1042.64 105.507 1042.8 106.36C1043.01 107.16 1043.22 107.88 1043.44 108.52C1044.13 109.48 1044.24 110.333 1043.76 111.08C1043.28 111.773 1042.85 112.12 1042.48 112.12C1041.94 112.12 1041.14 112.013 1040.08 111.8C1039.01 111.587 1038.02 111.213 1037.12 110.68C1036.26 110.147 1035.84 109.427 1035.84 108.52V103.56C1035.84 102.387 1035.78 101.533 1035.68 101C1035.62 100.413 1035.49 100.04 1035.28 99.88C1034.69 99.56 1033.97 99.8 1033.12 100.6C1032.26 101.4 1031.33 102.547 1030.32 104.04C1029.36 105.48 1028.32 107.107 1027.2 108.92C1026.18 110.573 1025.36 111.587 1024.72 111.96C1024.08 112.28 1023.46 112.253 1022.88 111.88C1021.7 111.507 1020.96 111 1020.64 110.36C1020.37 109.667 1020.34 108.893 1020.56 108.04C1020.82 107.133 1021.14 105.96 1021.52 104.52C1021.94 103.08 1022.34 101.693 1022.72 100.36C1023.09 98.9733 1023.33 97.96 1023.44 97.32C1023.22 96.8933 1022.85 96.76 1022.32 96.92C1021.84 97.0267 1021.33 97.2667 1020.8 97.64C1020.16 98.0667 1019.46 98.52 1018.72 99C1018.02 99.48 1017.2 100.493 1016.24 102.04C1015.6 103.053 1014.88 104.173 1014.08 105.4C1013.28 106.573 1012.53 107.64 1011.84 108.6C1011.2 109.56 1010.66 110.227 1010.24 110.6C1009.86 111.56 1009.52 112.173 1009.2 112.44C1008.88 112.653 1008.42 112.627 1007.84 112.36ZM1060.98 114.28C1058.9 113.427 1057.46 112.04 1056.66 110.12C1055.86 108.2 1055.65 105.64 1056.02 102.44C1056.13 100.787 1056.08 99.6933 1055.86 99.16C1055.65 98.5733 1055.25 98.0133 1054.66 97.48C1054.5 97.2667 1054.13 96.92 1053.54 96.44C1052.96 95.9067 1052.69 95.5067 1052.74 95.24C1052.69 94.8667 1052.77 94.4133 1052.98 93.88C1053.2 93.2933 1053.38 92.9733 1053.54 92.92C1053.92 92.76 1054.29 92.5733 1054.66 92.36C1055.09 92.1467 1055.41 92.0933 1055.62 92.2C1055.84 92.2 1056.16 92.3333 1056.58 92.6C1057.06 92.8667 1057.3 93.1067 1057.3 93.32C1057.52 93.6933 1057.84 93.5333 1058.26 92.84C1058.74 92.1467 1059.25 91.2667 1059.78 90.2C1060.32 89.3467 1060.98 88.5467 1061.78 87.8C1062.58 87.0533 1063.38 86.3867 1064.18 85.8C1065.04 85.16 1065.76 84.68 1066.34 84.36C1066.61 84.2533 1067.12 84.0933 1067.86 83.88C1068.66 83.6667 1069.49 83.5067 1070.34 83.4C1071.2 83.24 1071.84 83.1867 1072.26 83.24C1073.22 83.2933 1074.24 83.6933 1075.3 84.44C1076.37 85.1867 1077.2 85.88 1077.78 86.52C1078.48 87 1078.93 87.7467 1079.14 88.76C1079.41 89.72 1079.52 90.7333 1079.46 91.8C1079.41 92.8667 1079.2 93.7733 1078.82 94.52C1078.66 95.0533 1078.1 95.8 1077.14 96.76C1076.18 97.72 1075.12 98.6533 1073.94 99.56C1072.82 100.413 1071.86 101 1071.06 101.32C1070.37 101.48 1069.54 101.613 1068.58 101.72C1067.62 101.773 1066.72 101.773 1065.86 101.72C1065.06 101.613 1064.5 101.48 1064.18 101.32C1063.81 101.107 1063.49 101.187 1063.22 101.56C1063.01 101.88 1062.82 102.787 1062.66 104.28C1062.61 104.867 1062.61 105.373 1062.66 105.8C1062.77 106.227 1062.88 106.547 1062.98 106.76C1063.36 107.4 1063.73 107.88 1064.1 108.2C1064.48 108.467 1065.17 108.547 1066.18 108.44C1067.2 108.333 1068.21 107.72 1069.22 106.6C1070.29 105.427 1071.25 104.493 1072.1 103.8C1072.32 103.427 1072.77 103.187 1073.46 103.08C1074.21 102.92 1075.09 102.973 1076.1 103.24C1076.69 103.613 1076.96 104.2 1076.9 105C1076.9 105.8 1076.48 106.973 1075.62 108.52C1075.46 108.893 1075.01 109.453 1074.26 110.2C1073.57 110.893 1072.8 111.613 1071.94 112.36C1071.14 113.053 1070.48 113.56 1069.94 113.88C1068.34 114.733 1066.77 115.133 1065.22 115.08C1063.68 115.027 1062.26 114.76 1060.98 114.28ZM1066.9 96.28C1067.7 96.0667 1068.37 95.8533 1068.9 95.64C1069.49 95.4267 1070.05 95.08 1070.58 94.6C1071.12 94.12 1071.73 93.4 1072.42 92.44C1072.64 91.8533 1072.74 91.3467 1072.74 90.92C1072.8 90.4933 1072.77 90.2267 1072.66 90.12C1072.24 89.6933 1071.76 89.56 1071.22 89.72C1070.74 89.8267 1070.21 90.0933 1069.62 90.52C1069.25 90.68 1068.72 91.0267 1068.02 91.56C1067.38 92.04 1066.74 92.6 1066.1 93.24C1065.52 93.8267 1065.04 94.3867 1064.66 94.92C1064.34 95.4 1064.29 95.6933 1064.5 95.8C1064.4 96.0133 1064.69 96.1467 1065.38 96.2C1066.13 96.2533 1066.64 96.28 1066.9 96.28ZM1090.26 112.84C1089.78 112.467 1089.25 111.987 1088.66 111.4C1088.13 110.813 1087.94 109.987 1088.1 108.92C1088.26 107.427 1088.48 106.12 1088.74 105C1089.01 103.827 1089.33 102.493 1089.7 101C1089.81 100.36 1090.08 99.2667 1090.5 97.72C1090.98 96.1733 1091.54 94.4933 1092.18 92.68C1092.82 90.8667 1093.49 89.16 1094.18 87.56C1094.88 85.9067 1095.49 84.68 1096.02 83.88C1096.61 83.3467 1097.46 83.08 1098.58 83.08C1099.76 83.08 1100.56 83.2933 1100.98 83.72C1101.57 84.2 1101.76 85.0533 1101.54 86.28C1101.33 87.4533 1100.58 89.2933 1099.3 91.8C1099.04 92.44 1098.69 93.1333 1098.26 93.88C1097.89 94.5733 1097.62 95.16 1097.46 95.64C1097.3 96.0667 1097.36 96.2533 1097.62 96.2C1097.94 95.6133 1098.53 94.9467 1099.38 94.2C1100.24 93.4 1101.14 92.6267 1102.1 91.88C1103.06 91.1333 1103.97 90.4667 1104.82 89.88C1105.68 89.2933 1106.26 88.92 1106.58 88.76C1107.01 88.4933 1107.49 88.28 1108.02 88.12C1108.61 87.9067 1109.01 87.7467 1109.22 87.64C1110.45 87.0533 1111.78 86.84 1113.22 87C1114.72 87.1067 1115.62 87.56 1115.94 88.36C1116 88.7867 1116.16 89.1067 1116.42 89.32C1116.74 89.5333 1116.9 89.64 1116.9 89.64C1117.12 89.64 1117.22 89.72 1117.22 89.88C1117.28 90.04 1117.3 90.12 1117.3 90.12C1117.3 90.4933 1116.93 91.0267 1116.18 91.72C1115.49 92.4133 1114.72 92.7867 1113.86 92.84C1113.17 92.8933 1112.56 93.0267 1112.02 93.24C1111.49 93.4533 1110.85 93.72 1110.1 94.04C1108.08 95.2133 1106.24 96.2533 1104.58 97.16C1102.98 98.0667 1101.33 99.4533 1099.62 101.32C1099.25 101.747 1098.85 102.147 1098.42 102.52C1098 102.893 1097.57 103.427 1097.14 104.12C1096.88 104.387 1096.61 104.973 1096.34 105.88C1096.08 106.787 1095.84 107.667 1095.62 108.52C1095.46 109.32 1095.38 109.8 1095.38 109.96C1095.38 109.96 1095.3 110.227 1095.14 110.76C1094.98 111.24 1094.72 111.72 1094.34 112.2C1093.7 113.053 1093.06 113.587 1092.42 113.8C1091.84 114.013 1091.12 113.693 1090.26 112.84ZM1157.26 119.88C1155.13 119.347 1153.4 118.227 1152.06 116.52C1150.78 114.867 1149.74 112.867 1148.94 110.52C1148.89 109.827 1148.86 108.867 1148.86 107.64C1148.92 106.413 1149 105.267 1149.1 104.2C1149.21 103.133 1149.32 102.52 1149.42 102.36C1149.58 102.253 1149.66 101.933 1149.66 101.4C1149.61 101.187 1149.64 100.84 1149.74 100.36C1149.9 99.8267 1150.06 99.2933 1150.22 98.76C1150.49 98.12 1150.62 97.6133 1150.62 97.24C1150.62 96.8133 1150.6 96.4933 1150.54 96.28C1150.54 96.28 1150.62 96.12 1150.78 95.8C1150.94 95.4267 1151.13 95.1333 1151.34 94.92C1151.66 94.6 1151.8 94.28 1151.74 93.96C1151.74 93.64 1151.74 93.48 1151.74 93.48C1151.69 93.2667 1151.74 92.9733 1151.9 92.6C1152.06 92.2267 1152.22 91.9333 1152.38 91.72C1152.49 91.6133 1152.62 91.4 1152.78 91.08C1153 90.7067 1153.1 90.52 1153.1 90.52C1153.1 90.36 1153.21 89.9333 1153.42 89.24C1153.69 88.5467 1153.98 87.8 1154.3 87C1154.62 86.1467 1154.92 85.3733 1155.18 84.68C1155.5 83.9867 1155.74 83.5333 1155.9 83.32V83.16C1156.12 82.6267 1156.41 82.0667 1156.78 81.48C1156.84 81.2133 1156.97 80.7867 1157.18 80.2C1157.4 79.56 1157.64 78.9467 1157.9 78.36C1158.49 77.08 1159.21 75.64 1160.06 74.04C1160.97 72.3867 1161.93 70.76 1162.94 69.16C1163.96 67.5067 1164.92 66.04 1165.82 64.76C1166.78 63.4267 1167.61 62.44 1168.3 61.8C1169.21 60.7867 1170.12 60.0667 1171.02 59.64C1171.98 59.16 1172.86 59.32 1173.66 60.12C1174.04 60.4933 1174.36 61.0533 1174.62 61.8C1174.89 62.4933 1175 63.16 1174.94 63.8C1174.94 64.3867 1174.73 64.7067 1174.3 64.76C1173.93 64.9733 1173.42 65.5867 1172.78 66.6C1172.14 67.56 1171.42 68.7067 1170.62 70.04C1169.88 71.3733 1169.13 72.76 1168.38 74.2C1167.64 75.5867 1166.94 76.84 1166.3 77.96C1165.61 79.5067 1164.97 80.8667 1164.38 82.04C1163.8 83.16 1163.5 83.72 1163.5 83.72C1163.45 83.88 1163.4 84.0133 1163.34 84.12C1163.29 84.2267 1163.24 84.3333 1163.18 84.44C1162.38 86.0933 1161.72 87.6133 1161.18 89C1160.65 90.3333 1160.12 91.7467 1159.58 93.24C1159.26 93.6133 1159.08 93.9867 1159.02 94.36C1158.97 94.7333 1158.94 94.92 1158.94 94.92C1158.84 94.8667 1158.76 95 1158.7 95.32C1158.65 95.5867 1158.54 95.9067 1158.38 96.28C1158.12 96.4933 1157.96 96.84 1157.9 97.32C1157.85 97.7467 1157.82 98.1733 1157.82 98.6C1157.45 99.56 1157.1 100.733 1156.78 102.12C1156.46 103.453 1156.22 104.76 1156.06 106.04C1155.96 107.267 1155.93 108.227 1155.98 108.92C1156.09 109.827 1156.33 110.6 1156.7 111.24C1157.13 111.827 1157.72 112.307 1158.46 112.68C1159.05 112.947 1159.58 113.187 1160.06 113.4C1160.54 113.56 1160.97 113.64 1161.34 113.64C1161.77 113.693 1162.3 113.693 1162.94 113.64C1163.64 113.533 1164.57 113.373 1165.74 113.16H1165.66C1166.36 113.053 1167.08 112.92 1167.82 112.76C1168.62 112.547 1169.37 112.36 1170.06 112.2C1170.7 112.093 1171.32 111.987 1171.9 111.88C1172.49 111.72 1172.94 111.587 1173.26 111.48C1174.44 111.16 1175.37 110.893 1176.06 110.68C1176.81 110.467 1177.32 110.467 1177.58 110.68C1177.85 110.893 1178.14 111.293 1178.46 111.88C1178.78 112.467 1178.86 113 1178.7 113.48C1178.6 113.747 1178.06 114.28 1177.1 115.08C1176.14 115.933 1175.05 116.76 1173.82 117.56C1172.6 118.413 1171.48 119 1170.46 119.32C1169.4 119.8 1167.96 120.12 1166.14 120.28C1164.38 120.493 1162.68 120.547 1161.02 120.44C1159.37 120.333 1158.12 120.147 1157.26 119.88ZM1195.65 114.44C1194.95 114.44 1194.39 114.307 1193.97 114.04C1193.59 113.773 1193.11 113.4 1192.53 112.92C1191.51 111.853 1190.69 110.707 1190.05 109.48C1189.46 108.253 1189.25 107.187 1189.41 106.28C1189.57 105.853 1189.62 105.453 1189.57 105.08C1189.57 104.653 1189.57 104.44 1189.57 104.44C1189.3 104.173 1189.22 104.013 1189.33 103.96C1189.43 103.853 1189.54 103.693 1189.65 103.48C1189.97 103.48 1190.07 103.187 1189.97 102.6C1189.86 102.173 1190.02 101.267 1190.45 99.88C1190.93 98.44 1191.57 97.08 1192.37 95.8C1192.69 95.2667 1193.17 94.5733 1193.81 93.72C1194.45 92.8133 1195.14 91.9333 1195.89 91.08C1196.69 90.1733 1197.41 89.4533 1198.05 88.92C1199.38 87.8 1200.61 86.8933 1201.73 86.2C1202.9 85.5067 1204.07 85.0267 1205.25 84.76C1206.42 84.4933 1207.62 84.36 1208.85 84.36C1210.13 84.36 1211.17 84.7867 1211.97 85.64C1213.19 86.1733 1214.05 86.8933 1214.53 87.8C1215.06 88.7067 1215.41 89.88 1215.57 91.32C1215.73 92.92 1215.57 94.8933 1215.09 97.24C1214.61 99.5333 1213.3 102.2 1211.17 105.24C1209.83 107.16 1208.53 108.653 1207.25 109.72C1205.97 110.787 1204.55 111.773 1203.01 112.68C1201.89 113.427 1200.69 113.88 1199.41 114.04C1198.13 114.2 1196.87 114.333 1195.65 114.44ZM1203.81 104.68C1204.98 103.667 1205.81 102.547 1206.29 101.32C1206.82 100.093 1207.38 98.6533 1207.97 97C1208.18 96.68 1208.31 96.1467 1208.37 95.4C1208.47 94.6533 1208.5 93.9333 1208.45 93.24C1208.39 92.4933 1208.21 92.0667 1207.89 91.96C1207.41 91.5867 1206.93 91.5067 1206.45 91.72C1205.97 91.88 1205.35 92.2267 1204.61 92.76C1203.01 94.0933 1201.51 95.64 1200.13 97.4C1198.79 99.1067 1197.86 101.213 1197.33 103.72C1197.17 105.053 1197.3 106.067 1197.73 106.76C1198.21 107.4 1198.95 107.587 1199.97 107.32C1201.03 107 1202.31 106.12 1203.81 104.68ZM1232.71 113.88C1232.29 113.987 1231.73 114.04 1231.03 114.04C1230.34 113.987 1229.73 113.907 1229.19 113.8C1228.71 113.64 1228.47 113.48 1228.47 113.32C1228.47 113.053 1228.34 112.92 1228.07 112.92C1228.07 112.92 1227.78 112.707 1227.19 112.28C1226.61 111.8 1226.07 111.453 1225.59 111.24C1225.11 110.493 1224.79 109.64 1224.63 108.68C1224.53 107.667 1224.85 105.907 1225.59 103.4C1225.65 101.693 1226.13 99.9067 1227.03 98.04C1227.94 96.12 1229.09 94.2533 1230.47 92.44C1231.86 90.6267 1233.3 89.0267 1234.79 87.64C1236.29 86.2 1237.62 85.1333 1238.79 84.44C1239.54 83.6933 1240.53 83.2933 1241.75 83.24C1243.03 83.1867 1244.15 83.4267 1245.11 83.96C1245.65 84.2267 1246.23 84.76 1246.87 85.56C1247.51 86.36 1248.13 87.2133 1248.71 88.12C1249.3 88.9733 1249.75 89.7467 1250.07 90.44C1250.23 91.0267 1250.37 91.56 1250.47 92.04C1250.63 92.4667 1250.74 93 1250.79 93.64C1250.85 94.28 1250.79 95.24 1250.63 96.52C1250.37 97.48 1250.13 98.4667 1249.91 99.48C1249.75 100.44 1249.67 101.427 1249.67 102.44C1249.57 103.453 1249.67 104.173 1249.99 104.6C1250.37 105.027 1250.9 105.053 1251.59 104.68C1252.23 104.36 1252.9 104.333 1253.59 104.6C1254.29 104.813 1254.77 105.24 1255.03 105.88C1255.35 106.467 1255.27 107.24 1254.79 108.2C1254.47 108.893 1253.97 109.56 1253.27 110.2C1252.58 110.84 1251.81 111.373 1250.95 111.8C1250.1 112.173 1249.27 112.36 1248.47 112.36C1247.89 112.36 1247.3 112.147 1246.71 111.72C1246.13 111.24 1245.59 110.6 1245.11 109.8C1244.63 109 1244.23 108.12 1243.91 107.16L1243.43 105.32L1240.55 107.96C1239.86 108.707 1239.17 109.4 1238.47 110.04C1237.83 110.627 1237.43 111.053 1237.27 111.32C1237.01 111.8 1236.47 112.227 1235.67 112.6C1234.93 112.973 1233.94 113.4 1232.71 113.88ZM1234.87 106.2C1235.78 105.667 1236.55 105.027 1237.19 104.28C1237.89 103.533 1238.55 102.707 1239.19 101.8C1239.83 100.84 1240.53 99.8267 1241.27 98.76C1242.18 97.5333 1242.82 96.5467 1243.19 95.8C1243.62 95.0533 1243.94 94.2533 1244.15 93.4C1243.94 92.8133 1243.65 92.2 1243.27 91.56C1242.9 90.8667 1242.53 90.4933 1242.15 90.44C1241.41 90.44 1240.5 90.8933 1239.43 91.8C1238.42 92.7067 1237.3 94.0133 1236.07 95.72C1235.86 95.9867 1235.59 96.4133 1235.27 97C1234.95 97.5867 1234.63 98.1467 1234.31 98.68C1234.05 99.16 1233.86 99.48 1233.75 99.64C1233.59 99.8533 1233.35 100.36 1233.03 101.16C1232.77 101.907 1232.53 102.68 1232.31 103.48C1232.1 104.227 1231.99 104.76 1231.99 105.08C1231.99 105.4 1232.02 105.747 1232.07 106.12C1232.18 106.493 1232.45 106.733 1232.87 106.84C1233.3 106.947 1233.97 106.733 1234.87 106.2ZM1290.32 114.68C1289.52 114.68 1288.75 114.44 1288 113.96C1287.26 113.427 1286.64 112.707 1286.16 111.8C1285.68 110.84 1285.44 109.72 1285.44 108.44C1285.44 107.64 1285.58 106.52 1285.84 105.08C1286.16 103.587 1286.62 101.72 1287.2 99.48C1287.31 98.7333 1287.39 98.2533 1287.44 98.04C1287.55 97.8267 1287.6 97.6133 1287.6 97.4C1287.6 97.2933 1287.58 97.2133 1287.52 97.16C1287.52 97.0533 1287.47 97 1287.36 97C1286.94 97 1286.35 97.2933 1285.6 97.88C1284.91 98.4133 1284.11 99.0533 1283.2 99.8C1283.04 99.9067 1282.86 100.04 1282.64 100.2C1282.48 100.36 1282.3 100.52 1282.08 100.68C1281.92 100.84 1281.74 101 1281.52 101.16C1280.99 101.48 1280.16 102.093 1279.04 103C1277.98 103.907 1276.86 104.867 1275.68 105.88C1274.56 106.893 1273.58 107.747 1272.72 108.44C1272.3 108.76 1271.92 109.027 1271.6 109.24C1271.34 109.453 1271.15 109.56 1271.04 109.56C1270.94 109.56 1270.51 109.427 1269.76 109.16C1269.07 108.84 1268.38 108.413 1267.68 107.88C1267.04 107.293 1266.72 106.627 1266.72 105.88C1266.72 105.4 1266.91 104.44 1267.28 103C1267.71 101.56 1268.3 99.8533 1269.04 97.88C1269.79 95.9067 1270.64 93.9067 1271.6 91.88C1271.82 91.4 1271.98 90.76 1272.08 89.96C1272.19 89.16 1272.3 88.3867 1272.4 87.64C1272.56 86.84 1272.83 86.2533 1273.2 85.88C1273.36 85.6133 1273.55 85.4267 1273.76 85.32C1274.03 85.16 1274.3 85.08 1274.56 85.08C1275.1 85.08 1275.6 85.2133 1276.08 85.48C1276.56 85.6933 1277.02 86.0667 1277.44 86.6C1278.24 87.4533 1278.67 88.4667 1278.72 89.64C1278.83 90.76 1278.75 91.8533 1278.48 92.92C1278.22 93.9867 1277.92 94.8667 1277.6 95.56C1277.28 96.2 1277.12 96.4667 1277.12 96.36C1277.34 96.2533 1277.63 95.9867 1278 95.56C1278.43 95.1333 1279.15 94.6267 1280.16 94.04C1281.55 92.9733 1282.62 92.2267 1283.36 91.8C1284.11 91.32 1284.67 90.9733 1285.04 90.76C1285.47 90.5467 1285.84 90.3067 1286.16 90.04C1286.43 89.8267 1286.62 89.6933 1286.72 89.64C1286.88 89.5867 1286.96 89.56 1286.96 89.56C1287.12 89.56 1287.39 89.4533 1287.76 89.24C1288.19 89.0267 1288.59 88.92 1288.96 88.92C1289.5 88.92 1290.06 89.0533 1290.64 89.32C1291.23 89.5333 1291.74 89.8533 1292.16 90.28C1292.59 90.6533 1292.8 91.0533 1292.8 91.48C1292.8 91.64 1292.86 91.7733 1292.96 91.88C1293.07 91.9867 1293.18 92.12 1293.28 92.28C1293.55 92.6 1293.84 93.0533 1294.16 93.64C1294.54 94.1733 1294.72 95.0533 1294.72 96.28C1294.72 97.1333 1294.54 98.3867 1294.16 100.04C1293.79 101.693 1293.39 103.32 1292.96 104.92C1292.54 106.573 1292.32 107.907 1292.32 108.92C1292.38 109.88 1292.48 110.627 1292.64 111.16C1292.8 111.64 1292.88 112.04 1292.88 112.36C1292.88 112.787 1292.67 113.293 1292.24 113.88C1291.82 114.413 1291.18 114.68 1290.32 114.68ZM1315.84 115.56C1313.02 115.56 1310.94 114.653 1309.6 112.84C1309.23 111.987 1309.04 111.133 1309.04 110.28C1309.1 109.373 1309.31 108.733 1309.68 108.36C1310.06 107.933 1310.51 108.013 1311.04 108.6C1311.74 109.027 1312.72 109.24 1314 109.24C1314.64 109.24 1315.2 109.24 1315.68 109.24C1316.22 109.187 1316.83 109.133 1317.52 109.08C1318.75 108.973 1319.52 108.6 1319.84 107.96C1320.22 107.32 1320.14 106.787 1319.6 106.36H1319.68C1318.24 105.987 1316.83 105.453 1315.44 104.76C1314.06 104.067 1312.88 103.293 1311.92 102.44C1310.96 101.533 1310.4 100.68 1310.24 99.88C1309.82 98.12 1309.92 96.3067 1310.56 94.44C1311.2 92.5733 1312.14 90.9467 1313.36 89.56C1313.84 89.24 1314.51 88.7867 1315.36 88.2C1316.22 87.56 1316.83 87.2133 1317.2 87.16V87.24C1318.22 86.1733 1319.36 85.32 1320.64 84.68C1321.92 83.9867 1323.42 83.3467 1325.12 82.76L1326.4 82.6C1327.04 82.4933 1327.6 82.44 1328.08 82.44C1328.03 82.44 1328.16 82.4933 1328.48 82.6C1328.8 82.7067 1329.07 82.7867 1329.28 82.84C1329.6 83 1329.92 83.08 1330.24 83.08C1330.99 83.1867 1331.71 83.5867 1332.4 84.28C1333.15 84.92 1333.74 85.6933 1334.16 86.6C1334.64 87.4533 1334.83 88.2533 1334.72 89C1334.56 90.2267 1334.11 91.4533 1333.36 92.68C1332.62 93.8533 1331.82 94.52 1330.96 94.68C1331.07 94.6267 1330.96 94.52 1330.64 94.36C1330.32 94.2 1330.03 94.04 1329.76 93.88L1329.44 94.04C1329.44 94.04 1329.42 93.96 1329.36 93.8C1329.36 93.64 1329.31 93.4533 1329.2 93.24C1328.99 92.8667 1328.83 92.4667 1328.72 92.04C1328.67 91.6133 1328.67 91.1333 1328.72 90.6C1328.83 90.0133 1328.86 89.6667 1328.8 89.56C1328.75 89.4533 1328.43 89.3733 1327.84 89.32C1327.15 89.16 1326.27 89.24 1325.2 89.56C1324.14 89.8267 1323.15 90.3067 1322.24 91C1321.18 91.6933 1320.38 92.2533 1319.84 92.68C1319.36 93.1067 1318.99 93.5333 1318.72 93.96C1318.46 94.3333 1318.16 94.8933 1317.84 95.64C1317.63 96.0133 1317.44 96.36 1317.28 96.68C1317.12 96.9467 1317.04 97.2133 1317.04 97.48C1317.04 98.0133 1317.5 98.5733 1318.4 99.16C1319.31 99.6933 1320.67 100.333 1322.48 101.08C1323.92 101.667 1324.86 102.467 1325.28 103.48C1325.76 104.493 1326.19 105.453 1326.56 106.36C1326.67 106.573 1326.78 106.973 1326.88 107.56C1327.04 108.093 1327.07 108.413 1326.96 108.52C1327.07 108.627 1327.12 108.733 1327.12 108.84V108.76C1327.55 109.56 1327.47 110.413 1326.88 111.32C1326.35 112.173 1325.5 112.973 1324.32 113.72C1323.15 114.413 1321.82 114.92 1320.32 115.24H1320.4C1319.6 115.347 1318.8 115.427 1318 115.48C1317.26 115.533 1316.54 115.56 1315.84 115.56Z" fill="#B8C318"/>
<defs>
<clipPath id="clip0_1300_890">
<rect width="202" height="140.918" fill="white" transform="translate(0 20.541)"/>
</clipPath>
</defs>
</svg>
