<svg width="719" height="395" viewBox="0 0 719 395" fill="none" xmlns="http://www.w3.org/2000/svg">
<path d="M338.292 0C107.357 0 -20.523 71.1967 2.6988 190.903C31.0046 337.145 128.746 329.727 281.359 342.578C281.836 352.738 285.046 362.663 290.731 371.559C296.416 380.456 304.421 388.08 314.108 393.826C315.204 394.524 316.511 394.93 317.87 394.992C319.229 395.054 320.578 394.769 321.753 394.174C322.927 393.579 323.874 392.699 324.478 391.643C325.081 390.587 325.313 389.402 325.146 388.232C322.856 377.325 324.276 361.459 342.689 346.029C362.567 346.703 463.881 342.499 485.408 339.921C636.556 321.794 719 281.616 719 159.966C719 38.3159 569.227 0 338.292 0Z" fill="#F4F5DE"/>
<path d="M143.238 165.854H135.392V175.211H140.268C142.342 175.211 143.518 176.324 143.518 178.441V198.714C143.518 200.608 142.342 201.61 140.268 201.61C138.25 201.61 137.073 200.608 137.073 198.714V197.099H127.881V198.77C127.881 200.608 126.76 201.61 124.687 201.61C122.669 201.61 121.548 200.608 121.548 198.77V195.317C121.324 195.595 120.987 195.818 120.595 195.985C119.138 196.598 117.905 196.152 117.513 194.537C116.952 192.588 116.111 190.415 115.271 188.466C114.878 187.519 115.103 186.962 115.887 186.517C116.616 186.127 117.288 186.238 117.905 186.962C119.194 188.41 120.707 190.582 121.548 192.476V178.441C121.548 176.324 122.669 175.211 124.799 175.211H128.61V153.211C128.61 151.206 129.787 150.148 131.973 150.148C134.159 150.148 135.392 151.206 135.392 153.211V161.677H143.238C144.527 161.677 145.256 162.456 145.256 163.737C145.256 165.074 144.527 165.854 143.238 165.854ZM99.129 188.132C97.1113 188.299 95.7662 187.519 95.6541 185.57C95.486 183.565 96.4388 182.674 98.5686 182.618C100.867 182.507 103.22 182.395 105.574 182.228V178.664H98.4004C97.1113 178.664 96.4388 177.94 96.4388 176.714C96.4388 175.489 97.1113 174.821 98.4004 174.821H105.574V172.036H99.9698C97.84 172.036 96.719 170.866 96.719 168.806V154.826C96.719 152.765 97.84 151.596 99.9698 151.596H118.073C120.203 151.596 121.324 152.765 121.324 154.826V168.806C121.324 170.866 120.203 172.036 118.073 172.036H112.3V174.821H118.634C119.867 174.821 120.595 175.489 120.595 176.714C120.595 177.995 119.867 178.664 118.634 178.664H112.3V181.671C114.542 181.448 116.728 181.17 118.802 180.891C119.923 180.724 120.595 181.114 120.819 182.117C120.987 183.175 120.483 183.899 119.474 184.233C113.365 186.127 105.743 187.464 99.129 188.132ZM102.548 168.304H106.639V155.383H102.548C102.156 155.383 101.875 155.662 101.875 156.051V167.636C101.875 168.026 102.156 168.304 102.548 168.304ZM111.291 155.383V168.304H115.495C115.887 168.304 116.167 168.026 116.167 167.636V156.051C116.167 155.662 115.887 155.383 115.495 155.383H111.291ZM114.542 156.943C115.719 157.054 116.167 157.778 115.999 158.892C115.663 161.454 114.99 164.127 114.15 166.077C113.869 166.912 113.253 167.19 112.412 166.968C111.74 166.801 111.235 166.299 111.459 165.353C111.964 163.403 112.3 160.73 112.58 158.502C112.749 157.277 113.421 156.775 114.542 156.943ZM104.622 157.945C105.406 160.006 106.191 162.623 106.527 164.963C106.695 166.188 106.247 166.856 105.07 167.023C103.949 167.19 103.22 166.745 103.108 165.464C102.828 163.125 102.436 160.563 102.1 158.558C101.931 157.667 102.268 157.165 102.996 156.998C103.725 156.831 104.285 157.11 104.622 157.945ZM136.4 179.165H128.554C128.162 179.165 127.881 179.443 127.881 179.833V193.144H137.073V179.833C137.073 179.443 136.793 179.165 136.4 179.165ZM112.58 188.633C113.926 190.805 114.99 193.2 115.719 195.539C116.223 197.21 115.831 198.38 114.15 198.825C112.356 199.271 111.347 198.491 111.123 196.765C110.731 194.258 110.17 191.808 109.61 189.636C109.33 188.633 109.722 188.02 110.563 187.742C111.403 187.464 112.076 187.798 112.58 188.633ZM107.032 189.803C107.928 192.198 108.657 195.372 109.049 197.99C109.274 199.772 108.545 200.775 106.808 200.942C105.07 201.053 104.061 200.273 104.117 198.491C104.173 196.152 104.173 193.033 103.893 190.36C103.837 189.357 104.397 188.689 105.238 188.633C106.079 188.522 106.695 188.912 107.032 189.803ZM100.25 188.967C101.147 189.079 101.651 189.524 101.651 190.582C101.707 193.479 101.427 196.876 100.698 199.494C100.194 201.61 98.6246 202.278 96.7751 201.499C94.8695 200.719 94.5332 199.271 95.5981 197.489C96.8311 195.484 97.7839 192.81 98.4004 190.193C98.6807 189.246 99.3532 188.856 100.25 188.967Z" fill="#594A39"/>
<path d="M160.557 171.59C159.604 171.59 158.931 170.978 158.931 169.975C158.931 168.973 159.604 168.36 160.557 168.36H169.524V167.135H164.424C162.743 167.135 161.79 166.188 161.79 164.517V159.226C161.79 157.555 162.743 156.553 164.424 156.553H169.524V155.383H161.285C160.221 155.383 159.66 154.826 159.66 153.824C159.66 152.821 160.221 152.264 161.285 152.264H169.524V151.429C169.524 149.925 170.589 149.089 172.439 149.089C174.288 149.089 175.353 149.925 175.353 151.429V152.264H183.592C184.601 152.264 185.162 152.821 185.162 153.824C185.162 154.826 184.601 155.383 183.592 155.383H175.353V156.553H180.398C182.079 156.553 183.088 157.555 183.088 159.226V164.517C183.088 166.188 182.079 167.135 180.398 167.135H175.353V168.36H184.321C185.274 168.36 185.946 168.973 185.946 169.975C185.946 170.978 185.274 171.59 184.321 171.59H175.353V175.155H178.156C178.492 175.155 178.772 174.988 178.772 174.598V174.152C178.772 172.704 179.669 172.036 181.294 172.036C182.92 172.036 183.76 172.704 183.76 174.152V175.545C183.76 177.383 182.696 178.497 180.846 178.497H164.088C162.182 178.497 161.117 177.383 161.117 175.545V174.097C161.117 172.704 162.07 172.036 163.696 172.036C165.265 172.036 166.218 172.704 166.218 174.097V174.598C166.218 174.932 166.442 175.155 166.778 175.155H169.524V171.59H160.557ZM183.424 163.682C183.088 162.902 183.256 162.122 183.985 161.565C186.619 159.727 187.684 157.722 187.852 153.712C187.908 151.707 188.917 150.76 190.822 150.76H199.398C201.303 150.76 202.368 151.763 202.368 153.712V156.33C202.368 157.611 202.76 157.834 204.386 157.834C204.89 157.834 205.619 157.778 206.067 157.667C207.412 157.277 208.253 157.611 208.701 158.836C209.206 160.173 208.814 161.231 207.524 161.732C206.404 162.178 204.834 162.345 202.985 162.345C198.333 162.345 197.212 161.565 197.212 158.446V155.16C197.212 154.77 196.932 154.492 196.539 154.492H193.793C193.401 154.492 193.176 154.715 193.12 155.105C192.728 158.836 190.935 161.621 187.684 163.403H202.032C204.834 163.403 205.955 165.575 204.442 168.193C203.377 169.975 202.032 171.59 200.35 172.927C201.808 173.373 203.321 173.707 204.946 173.985C206.852 174.319 207.637 175.489 207.188 177.327C206.796 179.054 205.339 179.555 203.601 179.165C200.463 178.441 197.828 177.327 195.586 175.823C192.952 176.993 189.926 177.828 186.395 178.385C185.33 178.552 184.657 178.051 184.433 177.049C184.209 176.102 184.657 175.322 185.722 175.043C188.188 174.431 190.318 173.707 192.111 172.927C190.542 171.201 189.309 169.307 188.356 167.19H187.46C186.283 167.19 185.554 166.466 185.554 165.297C185.554 164.907 185.61 164.573 185.778 164.294C185.722 164.294 185.666 164.35 185.61 164.35C184.657 164.684 183.816 164.517 183.424 163.682ZM166.442 160.006V160.618H169.861V159.393H167.058C166.666 159.393 166.442 159.616 166.442 160.006ZM175.017 159.393V160.618H178.436V160.006C178.436 159.616 178.212 159.393 177.875 159.393H175.017ZM167.058 164.35H169.861V163.125H166.442V163.737C166.442 164.127 166.666 164.35 167.058 164.35ZM175.017 163.125V164.35H177.875C178.212 164.35 178.436 164.127 178.436 163.737V163.125H175.017ZM198.501 167.97C198.837 167.525 198.557 167.19 198.052 167.19H191.831C192.952 168.75 194.241 169.92 195.642 170.811C196.763 169.975 197.716 169.028 198.501 167.97ZM207.188 190.304C208.421 190.304 209.094 190.972 209.094 192.198C209.094 193.423 208.421 194.091 207.188 194.091H187.796V195.874C187.796 201.053 183.032 203.671 173.111 200.106C172.103 199.716 171.71 198.992 171.878 198.101C172.103 197.099 172.831 196.709 174.064 196.876C180.173 197.6 180.678 197.377 180.678 195.094V194.091H160.501C159.268 194.091 158.595 193.423 158.595 192.198C158.595 191.028 159.268 190.304 160.501 190.304H180.678V188.745H164.592C163.471 188.745 162.799 188.076 162.799 186.907C162.799 185.737 163.471 185.069 164.592 185.069H180.678V183.565C176.138 183.732 171.486 183.732 167.114 183.621C166.05 183.565 165.433 182.952 165.433 181.95C165.433 180.891 165.937 180.335 167.058 180.279C177.539 180.112 187.684 179.555 196.763 177.55C198.445 177.16 199.734 177.995 200.07 179.388C200.406 180.836 199.454 182.172 197.66 182.395C194.634 182.785 191.271 183.064 187.796 183.286V185.069H203.097C204.274 185.069 204.946 185.737 204.946 186.907C204.946 188.076 204.274 188.745 203.097 188.745H187.796V190.304H207.188Z" fill="#594A39"/>
<path d="M246.477 199.16C245.412 198.714 245.076 197.934 245.244 196.932C245.469 195.985 246.141 195.484 247.43 195.595C256.678 196.653 257.743 196.208 257.743 192.198V157.388H225.011C223.61 157.388 222.825 156.553 222.825 155.049C222.825 153.545 223.61 152.71 225.011 152.71H270.802C272.203 152.71 273.044 153.489 273.044 154.993C273.044 156.553 272.203 157.388 270.802 157.388H265.253V194.425C265.253 201.777 257.575 203.782 246.477 199.16ZM230.728 185.904C228.598 185.904 227.421 184.734 227.421 182.618V167.636C227.421 165.52 228.598 164.35 230.728 164.35H246.87C248.999 164.35 250.12 165.52 250.12 167.636V182.618C250.12 184.734 248.999 185.904 246.87 185.904H230.728ZM234.539 180.947C234.539 181.337 234.82 181.616 235.212 181.616H242.386C242.778 181.616 243.058 181.337 243.058 180.947V169.251C243.058 168.861 242.778 168.583 242.386 168.583H235.212C234.82 168.583 234.539 168.861 234.539 169.251V180.947Z" fill="#594A39"/>
<path d="M336.882 194.982C338.227 197.099 337.778 199.271 335.649 200.385C333.575 201.554 331.613 200.942 330.548 198.547C328.699 194.481 326.625 190.805 324.607 187.631C320.516 194.258 313.958 198.881 304.094 201.499C302.917 201.833 302.132 201.387 301.796 200.273C301.46 199.271 301.852 198.436 302.973 197.934C318.386 191.028 322.926 181.56 322.926 163.849V153.879C322.926 151.651 324.215 150.593 326.513 150.593C328.811 150.593 330.044 151.763 330.044 153.879V163.515C330.044 171.368 329.035 177.995 326.737 183.565C330.212 186.517 334.416 190.917 336.882 194.982ZM315.191 180.502C315.864 181.393 315.752 182.451 315.023 183.175C309.25 188.633 300.787 194.258 292.044 198.046C289.41 199.16 287.448 198.436 286.495 196.041C285.598 193.646 286.327 191.696 289.185 190.75C290.306 190.36 291.483 189.97 292.604 189.524V154.158C292.604 152.153 293.893 150.927 296.135 150.927C298.377 150.927 299.61 152.153 299.61 154.158V186.684C304.206 184.679 308.69 182.395 312.501 180.167C313.51 179.499 314.463 179.611 315.191 180.502ZM310.708 170.699C308.97 166.522 306.784 162.456 304.767 159.17C304.15 158.112 304.318 157.11 305.215 156.497C306.168 155.829 307.064 156.051 307.961 156.775C311.156 159.393 314.967 163.403 317.545 167.246C319.059 169.53 318.274 171.479 316.088 172.704C313.958 173.93 311.829 173.261 310.708 170.699Z" fill="#594A39"/>
<path d="M398.085 166.299C399.374 166.299 400.103 167.023 400.103 168.249C400.103 169.53 399.374 170.254 398.085 170.254H372.584C371.911 171.256 371.183 172.259 370.398 173.261H390.967C393.041 173.261 394.218 174.431 394.218 176.492V198.714C394.218 200.775 392.985 201.889 390.687 201.889C388.445 201.889 387.212 200.775 387.212 198.714V198.046H368.997V198.825C368.997 200.886 367.764 202 365.466 202C363.224 202 361.991 200.886 361.991 198.825V181.783C359.188 184.066 356.162 186.015 353.079 187.519C351.958 188.02 351.118 187.742 350.613 186.851C350.109 185.96 350.333 185.124 351.398 184.4C356.778 180.613 361.43 175.712 364.961 170.254H353.472C352.183 170.254 351.51 169.53 351.51 168.249C351.51 167.023 352.183 166.299 353.472 166.299H367.259C367.764 165.408 368.156 164.517 368.548 163.626H356.386C355.153 163.626 354.424 162.902 354.424 161.677C354.424 160.451 355.153 159.783 356.386 159.783H370.062C370.342 158.948 370.566 158.168 370.79 157.332C365.914 157.499 360.982 157.499 356.554 157.332C355.265 157.277 354.705 156.72 354.649 155.606C354.649 154.548 355.209 153.935 356.442 153.879C368.997 153.378 380.206 152.041 390.967 149.201C393.097 148.644 394.891 149.201 395.395 151.429C395.955 153.712 395.059 155.216 392.817 155.494C389.006 156.107 384.13 156.608 378.973 156.943C378.693 157.889 378.413 158.836 378.02 159.783H395.115C396.348 159.783 397.076 160.451 397.076 161.677C397.076 162.902 396.348 163.626 395.115 163.626H376.451C376.003 164.517 375.554 165.408 375.05 166.299H398.085ZM387.212 177.773C387.212 177.383 386.932 177.104 386.54 177.104H369.669C369.277 177.104 368.997 177.383 368.997 177.773V180.223H387.212V177.773ZM387.212 187.185V183.955H368.997V187.185H387.212ZM368.997 194.203H387.212V190.917H368.997V194.203Z" fill="#594A39"/>
<path d="M460.074 193.144C462.988 193.144 464.277 194.648 464.109 197.099C463.997 199.605 462.596 200.663 459.681 200.608C451.498 200.496 442.979 198.937 435.469 195.706C431.377 199.104 425.604 201.22 417.534 201.889C416.301 201.944 415.628 201.443 415.46 200.385C415.292 199.327 415.796 198.547 417.029 198.324C422.97 197.099 427.118 195.317 429.976 192.922C426.725 190.972 423.699 188.633 421.121 185.904C420.336 185.069 420.392 183.955 421.121 183.119C421.793 182.395 422.634 182.228 423.811 183.008C427.062 185.236 430.256 187.074 433.507 188.522C434.572 186.572 435.189 184.345 435.581 181.783H424.427C421.961 181.783 421.121 180.613 421.121 178.552V163.515C421.121 161.454 422.298 160.284 424.427 160.284H436.141V156.33H418.711C417.253 156.33 416.413 155.494 416.413 154.046C416.413 152.654 417.253 151.819 418.711 151.819H460.354C461.811 151.819 462.652 152.598 462.652 154.046C462.652 155.494 461.811 156.33 460.354 156.33H443.428V160.284H455.254C457.383 160.284 458.504 161.454 458.504 163.515V178.552C458.504 180.613 457.327 181.783 455.254 181.783H442.755C442.194 185.18 441.186 188.188 439.616 190.75C445.725 192.532 452.283 193.256 460.074 193.144ZM428.071 165.13V168.973H436.141V164.461H428.743C428.351 164.461 428.071 164.74 428.071 165.13ZM450.882 164.461H443.428V168.973H451.554V165.13C451.554 164.74 451.274 164.461 450.882 164.461ZM428.743 177.661H436.029C436.085 176.213 436.141 174.709 436.141 173.094V173.038H428.071V176.993C428.071 177.383 428.351 177.661 428.743 177.661ZM451.554 176.993V173.038H443.428V173.484C443.428 174.932 443.371 176.324 443.259 177.661H450.882C451.274 177.661 451.554 177.383 451.554 176.993Z" fill="#594A39"/>
<path d="M524.864 173.428C526.938 174.765 527.386 176.826 526.097 179.276C518.251 193.868 502.389 200.886 482.941 201.777C481.764 201.833 480.923 201.332 480.811 200.051C480.699 199.048 481.147 198.268 482.492 198.046C501.212 194.927 512.029 189.524 518.587 178.664C518.811 178.218 518.643 177.884 518.139 177.884H508.947C507.321 179.499 505.528 180.947 503.622 182.284C504.855 183.119 505.976 184.01 506.929 185.013C508.442 186.517 508.162 188.243 506.481 189.413C504.799 190.582 503.006 190.304 501.997 188.355C501.268 187.018 500.596 185.793 499.867 184.734C496.336 186.739 492.581 188.243 488.77 189.134C487.593 189.469 486.752 188.967 486.472 187.965C486.192 186.962 486.528 186.127 487.593 185.681C495.271 182.729 501.829 177.661 506.761 171.201C500.259 176.714 491.964 180.502 482.717 182.172C481.484 182.34 480.755 181.95 480.475 180.78C480.195 179.833 480.587 178.942 481.82 178.497C495.495 174.097 503.566 168.471 508.891 159.449C509.171 159.003 508.947 158.669 508.442 158.669H499.531C498.354 159.839 497.121 160.897 495.832 161.955C496.953 162.679 498.018 163.57 499.082 164.461C500.708 165.965 500.54 167.636 498.914 168.806C497.289 170.031 495.495 169.808 494.543 167.97C493.87 166.801 493.198 165.687 492.413 164.517C489.723 166.411 486.92 167.97 484.342 169.084C483.333 169.53 482.38 169.251 481.932 168.304C481.428 167.358 481.708 166.522 482.717 165.854C488.097 162.568 493.366 157.388 497.233 151.039C498.466 148.978 500.259 148.533 502.333 149.591C504.351 150.649 504.575 152.654 503.062 154.659H509.675C511.357 153.378 513.318 153.155 515.112 154.213C517.13 155.383 517.466 157.555 516.233 159.727C514.776 162.345 513.038 164.796 511.077 167.023C511.637 166.968 512.31 167.135 513.038 167.58C514.832 168.639 515.168 170.365 513.991 172.036C513.543 172.649 513.15 173.261 512.646 173.818H519.259C520.773 172.537 523.127 172.259 524.864 173.428Z" fill="#594A39"/>
<path d="M567.124 184.4C565.386 184.4 564.209 183.398 564.097 181.616L562.752 159.115C562.528 155.996 564.097 154.325 567.124 154.325C570.206 154.325 571.72 155.996 571.496 159.115L570.094 181.616C569.982 183.398 568.917 184.4 567.124 184.4ZM567.18 198.213C564.49 198.213 562.248 196.041 562.248 193.423C562.248 190.861 564.49 188.8 567.18 188.8C569.758 188.8 572 190.861 572 193.423C572 196.041 569.758 198.213 567.18 198.213Z" fill="#594A39"/>
</svg>
