<svg width="719" height="395" viewBox="0 0 719 395" fill="none" xmlns="http://www.w3.org/2000/svg">
<path d="M338.292 0C107.357 0 -20.523 71.1967 2.6988 190.903C31.0046 337.145 128.746 329.727 281.359 342.578C281.836 352.738 285.046 362.663 290.731 371.559C296.416 380.456 304.421 388.08 314.108 393.826C315.204 394.524 316.511 394.93 317.87 394.992C319.229 395.054 320.578 394.769 321.753 394.174C322.927 393.579 323.874 392.699 324.478 391.643C325.081 390.587 325.313 389.402 325.146 388.232C322.856 377.325 324.276 361.459 342.689 346.029C362.567 346.703 463.881 342.499 485.408 339.921C636.556 321.794 719 281.616 719 159.966C719 38.3159 569.227 0 338.292 0Z" fill="#F4F5DE"/>
<path d="M104.928 189.862C94.8926 189.862 89 183.489 89 171.936C89 161.39 95.1688 154.788 105.297 154.788C109.302 154.788 112.294 155.98 113.905 157.172C115.24 158.135 115.701 159.648 115.01 160.84C114.228 162.216 112.708 162.537 111.327 161.711C109.808 160.748 108.105 160.198 105.527 160.198C100.325 160.198 97.1483 164.462 97.1483 171.844C97.1483 180.005 100.233 184.452 105.343 184.452C108.381 184.452 110.038 183.535 111.373 182.572C112.708 181.61 114.182 181.931 115.24 183.26C116.161 184.406 115.977 185.874 114.688 187.02C113.031 188.533 109.486 189.862 104.928 189.862Z" fill="#594A39"/>
<path d="M131.073 189.862C126.239 189.862 124.352 188.074 124.352 182.297V157.172C124.352 154.742 125.733 153.413 128.265 153.413C130.705 153.413 132.132 154.742 132.132 157.172V182.343C132.132 183.673 132.27 184.131 133.237 184.131C133.789 184.131 134.112 183.902 134.664 183.902C135.493 183.902 136.69 184.544 136.69 186.515C136.69 189.083 134.158 189.862 131.073 189.862Z" fill="#594A39"/>
<path d="M148.82 161.849C146.288 161.849 144.17 159.923 144.17 157.447C144.17 154.88 146.242 153 148.82 153C151.444 153 153.285 154.834 153.285 157.447C153.285 159.969 151.398 161.849 148.82 161.849ZM148.728 189.862C146.15 189.862 144.815 188.533 144.815 186.057V168.91C144.815 166.434 146.15 165.104 148.728 165.104C151.306 165.104 152.641 166.434 152.641 168.91V186.057C152.641 188.533 151.306 189.862 148.728 189.862Z" fill="#594A39"/>
<path d="M174.281 189.862C166.409 189.862 161.759 185.278 161.759 177.437C161.759 169.597 166.593 164.646 174.327 164.646C178.608 164.646 181.555 166.388 182.752 167.901C183.672 168.955 183.626 170.331 182.614 171.248C181.417 172.302 180.082 172.348 179.023 171.34C178.01 170.377 176.491 169.964 174.972 169.964C171.565 169.964 169.585 172.44 169.585 177.071C169.585 182.16 171.519 184.452 175.064 184.452C176.859 184.452 178.286 184.04 179.345 183.123C180.404 182.206 181.739 182.297 182.752 183.214C183.857 184.177 183.857 185.507 182.89 186.791C181.417 188.716 178.102 189.862 174.281 189.862Z" fill="#594A39"/>
<path d="M195.69 189.862C193.158 189.862 191.776 188.625 191.776 186.195V157.218C191.776 154.742 193.158 153.413 195.69 153.413C198.175 153.413 199.603 154.742 199.603 157.218V173.036C202.181 170.835 205.219 168.359 208.073 165.654C209.546 164.279 211.204 164.325 212.585 165.608C214.058 166.984 213.828 168.772 212.124 170.193L206.094 175.099L213.045 184.269C214.426 186.057 214.288 187.753 212.677 188.991C210.927 190.367 208.718 190.092 207.567 188.349L201.076 178.492L199.603 179.822V186.195C199.603 188.625 198.175 189.862 195.69 189.862Z" fill="#594A39"/>
<path d="M255.843 183.673C257.178 183.673 258.007 185.278 258.007 186.424C258.007 188.808 254.6 189.496 252.068 189.496C246.774 189.496 244.38 186.974 244.38 181.518V170.56H241.802C240.329 170.56 239.5 169.551 239.5 167.947C239.5 166.296 240.375 165.333 241.802 165.333H244.38V162.445C244.38 159.969 245.761 158.639 248.293 158.639C250.825 158.639 252.206 159.969 252.206 162.445V165.333H255.198C256.672 165.333 257.5 166.342 257.5 167.947C257.5 169.597 256.626 170.56 255.198 170.56H252.206V181.426C252.206 183.26 252.712 184.085 253.541 184.085C254.416 184.085 255.014 183.673 255.843 183.673Z" fill="#594A39"/>
<path d="M276.676 189.908C268.528 189.908 264.247 185.048 264.247 176.841C264.247 169.414 269.403 164.646 276.999 164.646C284.502 164.646 289.29 169.368 289.336 176.841C289.382 185.232 284.502 189.908 276.676 189.908ZM276.768 184.819C279.945 184.727 281.326 182.435 281.326 176.979C281.326 172.027 279.991 169.643 276.768 169.689C273.638 169.735 272.211 172.073 272.257 176.979C272.303 182.16 273.454 184.911 276.768 184.819Z" fill="#594A39"/>
<path d="M316.53 183.489C317.312 182.527 318.601 182.343 319.798 183.077C321.179 183.902 323.159 184.727 325.184 184.727C327.21 184.727 328.177 184.223 328.177 183.031C328.177 181.885 327.67 181.105 323.711 179.363C319.016 177.3 316.576 175.374 316.576 171.615C316.576 167.488 320.581 164.646 326.473 164.646C330.433 164.646 333.149 165.884 334.484 167.03C335.542 167.947 335.727 169.322 334.944 170.377C334.161 171.431 332.458 171.706 331.169 170.789C330.064 170.01 328.591 169.735 326.888 169.735C325.138 169.735 324.264 170.377 324.264 171.34C324.264 172.44 325.184 172.99 328.591 174.549C333.977 176.979 336.095 178.996 336.095 182.618C336.095 187.57 331.399 189.862 326.473 189.862C322.975 189.862 318.878 188.991 316.898 187.02C315.793 185.919 315.609 184.59 316.53 183.489Z" fill="#594A39"/>
<path d="M362.058 183.169C363.301 182.252 364.636 182.343 365.511 183.352C366.385 184.315 366.431 185.644 365.465 186.699C363.992 188.349 360.401 189.862 355.843 189.862C348.616 189.862 343.045 186.24 343.045 177.804C343.045 169.689 347.833 164.6 355.521 164.6C363.071 164.6 366.846 170.193 366.846 175.603C366.846 178.217 365.511 179.592 362.703 179.592H351.009C351.47 183.398 353.173 184.819 356.442 184.911C358.697 184.957 360.539 184.315 362.058 183.169ZM355.613 169.414C352.713 169.414 351.424 171.385 351.009 174.549H359.388C359.664 174.549 359.802 174.411 359.802 174.136C359.802 170.973 358.191 169.414 355.613 169.414Z" fill="#594A39"/>
<path d="M392.805 183.169C394.048 182.252 395.383 182.343 396.258 183.352C397.132 184.315 397.178 185.644 396.212 186.699C394.738 188.349 391.148 189.862 386.59 189.862C379.363 189.862 373.792 186.24 373.792 177.804C373.792 169.689 378.58 164.6 386.268 164.6C393.818 164.6 397.593 170.193 397.593 175.603C397.593 178.217 396.258 179.592 393.449 179.592H381.756C382.217 183.398 383.92 184.819 387.189 184.911C389.444 184.957 391.286 184.315 392.805 183.169ZM386.36 169.414C383.46 169.414 382.171 171.385 381.756 174.549H390.135C390.411 174.549 390.549 174.411 390.549 174.136C390.549 170.973 388.938 169.414 386.36 169.414Z" fill="#594A39"/>
<path d="M454.24 164.646C459.81 164.646 463.079 167.855 463.079 173.403V186.149C463.079 188.579 461.744 189.862 459.212 189.862C456.68 189.862 455.345 188.579 455.345 186.149V173.311C455.345 170.973 454.24 169.597 452.444 169.597C450.695 169.597 449.314 170.743 448.439 172.898V186.149C448.439 188.579 447.104 189.862 444.618 189.862C442.086 189.862 440.751 188.579 440.751 186.149V173.449C440.751 171.019 439.646 169.689 437.805 169.689C436.01 169.689 434.352 171.385 433.616 173.861V186.057C433.616 188.533 432.235 189.862 429.703 189.862C427.171 189.862 425.79 188.533 425.79 186.057V168.359C425.79 165.975 427.217 164.691 429.565 164.691C431.774 164.691 433.201 165.838 433.201 168.13V168.634C434.352 166.021 437.068 164.646 440.107 164.646C443.329 164.646 445.769 165.884 447.15 168.084C448.762 165.884 451.201 164.646 454.24 164.646ZM433.247 176.062L433.294 175.558C433.247 175.695 433.247 175.879 433.247 176.062Z" fill="#594A39"/>
<path d="M483.723 189.908C475.574 189.908 471.293 185.048 471.293 176.841C471.293 169.414 476.449 164.646 484.045 164.646C491.549 164.646 496.336 169.368 496.382 176.841C496.428 185.232 491.549 189.908 483.723 189.908ZM483.815 184.819C486.991 184.727 488.372 182.435 488.372 176.979C488.372 172.027 487.037 169.643 483.815 169.689C480.684 169.735 479.257 172.073 479.303 176.979C479.349 182.16 480.5 184.911 483.815 184.819Z" fill="#594A39"/>
<path d="M521.937 167.397C522.167 169.918 520.556 170.698 518.3 170.973C515.86 171.294 513.558 173.678 512.868 176.704V186.195C512.868 188.762 511.302 189.862 508.77 189.862C506.238 189.862 505.041 188.716 505.041 186.195V167.809C505.041 165.608 506.515 164.646 508.77 164.646C510.888 164.646 512.269 165.746 512.269 167.993V170.147C513.236 166.342 515.4 164.783 518.116 164.691C520.187 164.646 521.752 165.333 521.937 167.397Z" fill="#594A39"/>
<path d="M546.54 183.169C547.783 182.252 549.118 182.343 549.992 183.352C550.867 184.315 550.913 185.644 549.946 186.699C548.473 188.349 544.882 189.862 540.325 189.862C533.097 189.862 527.527 186.24 527.527 177.804C527.527 169.689 532.314 164.6 540.002 164.6C547.552 164.6 551.327 170.193 551.327 175.603C551.327 178.217 549.992 179.592 547.184 179.592H535.491C535.951 183.398 537.655 184.819 540.923 184.911C543.179 184.957 545.02 184.315 546.54 183.169ZM540.095 169.414C537.194 169.414 535.905 171.385 535.491 174.549H543.87C544.146 174.549 544.284 174.411 544.284 174.136C544.284 170.973 542.673 169.414 540.095 169.414Z" fill="#594A39"/>
<path d="M564.35 178.492C562.555 178.492 561.266 177.529 561.128 175.741L559.747 159.419C559.471 156.347 561.312 154.651 564.35 154.651C567.435 154.651 569.23 156.347 568.954 159.419L567.527 175.741C567.389 177.529 566.146 178.492 564.35 178.492ZM564.396 190C561.818 190 559.701 187.983 559.701 185.415C559.701 183.077 561.818 181.014 564.396 181.014C566.882 181.014 569 183.031 569 185.415C569 187.983 566.882 190 564.396 190Z" fill="#594A39"/>
</svg>
