<svg width="1274" height="141" viewBox="0 0 1274 141" fill="none" xmlns="http://www.w3.org/2000/svg">
<path d="M202.267 5.28837C185.256 4.94476 168.291 3.38422 151.503 0.618714C123.41 -4.20157 22.7865 17.791 22.7865 114.573C22.7865 114.573 71.14 143.796 129.36 107.042C187.58 70.2869 202.267 5.28837 202.267 5.28837Z" fill="#C7D04F"/>
<path d="M8.77755 140.934C9.3765 140.886 9.95732 140.706 10.4782 140.406C10.9991 140.106 11.4472 139.695 11.7902 139.202C12.2421 138.524 26.477 109.904 73.6254 74.128C74.5147 73.6497 75.2108 72.878 75.5953 71.9442C75.9798 71.0105 76.0289 69.9724 75.7343 69.0065C75.5566 68.5267 75.2791 68.0901 74.9202 67.7255C74.5612 67.3609 74.1289 67.0766 73.6519 66.8915C73.175 66.7065 72.6641 66.6247 72.1532 66.6517C71.6423 66.6787 71.1429 66.8139 70.6881 67.0482C43.3261 83.2318 19.3808 104.593 0.191424 129.938C-1.08896 131.745 4.40918 139.051 6.14147 140.256C6.51234 140.541 6.9371 140.748 7.39015 140.865C7.8432 140.981 8.31515 141.005 8.77755 140.934Z" fill="#E2E5A7"/>
<path d="M137.591 130.316C137.591 134.016 135.691 136.016 132.091 136.016H99.2914C93.9914 136.016 90.9914 133.116 90.9914 127.616V70.9162C90.9914 65.6162 93.8914 62.6162 99.2914 62.6162H131.591C135.091 62.6162 137.091 64.6162 137.091 68.3162C137.091 72.0162 135.191 74.0162 131.591 74.0162H109.091C108.591 74.0162 108.191 74.3162 108.191 74.9162V92.4162H128.691C132.091 92.4162 134.191 94.4162 134.191 98.1162C134.191 101.716 132.191 103.816 128.691 103.816H108.191V123.716C108.191 124.216 108.491 124.616 109.091 124.616H132.091C135.591 124.616 137.591 126.516 137.591 130.316Z" fill="#594A39"/>
<path d="M156.157 120.316C158.157 117.616 161.757 117.116 164.457 119.216C168.557 122.416 173.057 125.516 179.957 125.516C186.057 125.516 189.757 122.916 189.857 118.116C189.957 114.216 188.557 110.216 176.957 104.216C161.957 96.3162 155.557 90.2162 155.557 79.9162C155.557 68.5162 165.857 61.1162 181.957 61.1162C191.757 61.1162 199.357 63.9162 202.757 67.2162C205.557 69.9162 206.157 73.4162 204.257 76.3162C202.157 79.4162 198.257 80.0162 195.157 77.4162C191.757 74.6162 187.857 72.9162 181.857 73.0162C176.357 73.1162 173.157 75.3162 173.157 78.7162C173.157 82.5162 174.557 85.9162 186.257 91.9162C201.357 99.8162 207.657 106.116 207.657 116.116C207.657 129.516 197.557 137.516 180.857 137.516C169.357 137.516 161.157 133.716 157.057 129.616C154.357 126.916 154.057 123.216 156.157 120.316Z" fill="#594A39"/>
<path d="M261.159 137.516C238.859 137.516 225.559 123.716 225.559 98.3162C225.559 75.7162 239.759 61.1162 262.159 61.1162C274.259 61.1162 282.559 65.9162 286.259 69.6162C288.759 72.1162 288.959 75.2162 286.559 77.8162C284.059 80.5162 280.959 80.6162 277.959 78.1162C275.059 75.7162 270.059 72.8162 261.859 72.8162C250.559 72.8162 243.359 82.6162 243.359 98.5162C243.359 116.516 249.559 125.716 261.259 125.716C266.059 125.716 269.959 124.816 271.959 123.616C272.759 123.116 273.059 122.716 273.059 121.816V107.816C273.059 107.316 272.759 106.916 272.159 106.916H262.859C259.159 106.916 257.159 105.016 257.159 101.316C257.159 97.6162 259.159 95.7162 262.859 95.7162H281.959C286.259 95.7162 288.759 98.1162 288.759 102.516V123.616C288.759 127.416 287.659 129.816 284.859 131.816C279.859 135.416 271.059 137.516 261.159 137.516Z" fill="#594A39"/>
<path d="M385.73 137.516C363.93 137.516 351.13 123.616 351.13 98.4162C351.13 75.4162 364.53 61.0162 386.53 61.0162C395.23 61.0162 401.73 63.6162 405.23 66.2162C408.13 68.3162 409.13 71.6162 407.63 74.2162C405.93 77.2162 402.63 77.9162 399.63 76.1162C396.33 74.0162 392.63 72.8162 387.03 72.8162C375.73 72.8162 368.83 82.1162 368.83 98.2162C368.83 116.016 375.53 125.716 386.63 125.716C393.23 125.716 396.83 123.716 399.73 121.616C402.63 119.516 405.83 120.216 408.13 123.116C410.13 125.616 409.73 128.816 406.93 131.316C403.33 134.616 395.63 137.516 385.73 137.516Z" fill="#594A39"/>
<path d="M450.745 137.616C433.045 137.616 423.745 127.016 423.745 109.116C423.745 92.9162 434.945 82.5162 451.445 82.5162C467.745 82.5162 478.145 92.8162 478.245 109.116C478.345 127.416 467.745 137.616 450.745 137.616ZM450.945 126.516C457.845 126.316 460.845 121.316 460.845 109.416C460.845 98.6162 457.945 93.4162 450.945 93.5162C444.145 93.6162 441.045 98.7162 441.145 109.416C441.245 120.716 443.745 126.716 450.945 126.516Z" fill="#594A39"/>
<path d="M528.655 82.5162C540.555 82.5162 547.955 90.1162 547.955 102.416V129.216C547.955 134.616 544.955 137.516 539.455 137.516C533.955 137.516 530.955 134.616 530.955 129.216V103.716C530.955 97.4162 528.355 93.6162 523.755 93.6162C519.355 93.6162 515.355 97.6162 514.055 103.216V129.216C514.055 134.616 511.055 137.516 505.555 137.516C500.055 137.516 497.055 134.616 497.055 129.216V90.3162C497.055 85.3162 499.855 82.6162 504.855 82.6162C509.955 82.6162 512.755 85.1162 512.755 90.2162V91.8162C515.755 85.7162 521.955 82.5162 528.655 82.5162Z" fill="#594A39"/>
<path d="M566.222 123.616C567.922 121.516 570.722 121.116 573.322 122.716C576.322 124.516 580.622 126.316 585.022 126.316C589.422 126.316 591.522 125.216 591.522 122.616C591.522 120.116 590.422 118.416 581.822 114.616C571.622 110.116 566.322 105.916 566.322 97.7162C566.322 88.7162 575.022 82.5162 587.822 82.5162C596.422 82.5162 602.322 85.2162 605.222 87.7162C607.522 89.7162 607.922 92.7162 606.222 95.0162C604.522 97.3162 600.822 97.9162 598.022 95.9162C595.622 94.2162 592.422 93.6162 588.722 93.6162C584.922 93.6162 583.022 95.0162 583.022 97.1162C583.022 99.5162 585.022 100.716 592.422 104.116C604.122 109.416 608.722 113.816 608.722 121.716C608.722 132.516 598.522 137.516 587.822 137.516C580.222 137.516 571.322 135.616 567.022 131.316C564.622 128.916 564.222 126.016 566.222 123.616Z" fill="#594A39"/>
<path d="M667.92 82.5162C673.32 82.5162 676.22 85.4162 676.22 90.6162V130.216C676.22 134.716 673.62 137.516 668.72 137.516C663.92 137.516 661.22 134.816 661.12 130.316V129.316C658.22 134.416 652.52 137.416 645.42 137.416C633.32 137.416 626.02 130.016 626.02 117.616V90.7162C626.02 85.4162 629.02 82.5162 634.52 82.5162C640.02 82.5162 643.02 85.4162 643.02 90.7162V115.416C643.02 122.516 645.22 125.916 650.22 125.916C655.72 125.916 658.72 119.316 659.62 115.316V90.6162C659.62 85.4162 662.62 82.5162 667.92 82.5162Z" fill="#594A39"/>
<path d="M760.003 82.5162C772.103 82.5162 779.203 89.5162 779.203 101.616V129.416C779.203 134.716 776.303 137.516 770.803 137.516C765.303 137.516 762.403 134.716 762.403 129.416V101.416C762.403 96.3162 760.003 93.3162 756.103 93.3162C752.303 93.3162 749.303 95.8162 747.403 100.516V129.416C747.403 134.716 744.503 137.516 739.103 137.516C733.603 137.516 730.703 134.716 730.703 129.416V101.716C730.703 96.4162 728.303 93.5162 724.303 93.5162C720.403 93.5162 716.803 97.2162 715.203 102.616V129.216C715.203 134.616 712.203 137.516 706.703 137.516C701.203 137.516 698.203 134.616 698.203 129.216V90.6162C698.203 85.4162 701.303 82.6162 706.403 82.6162C711.203 82.6162 714.303 85.1162 714.303 90.1162V91.2162C716.803 85.5162 722.703 82.5162 729.303 82.5162C736.303 82.5162 741.603 85.2162 744.603 90.0162C748.103 85.2162 753.403 82.5162 760.003 82.5162ZM714.403 107.416L714.503 106.316C714.403 106.616 714.403 107.016 714.403 107.416Z" fill="#594A39"/>
<path d="M838.346 122.916C841.046 120.916 843.946 121.116 845.846 123.316C847.746 125.416 847.846 128.316 845.746 130.616C842.546 134.216 834.746 137.516 824.846 137.516C809.146 137.516 797.046 129.616 797.046 111.216C797.046 93.5162 807.446 82.4162 824.146 82.4162C840.546 82.4162 848.746 94.6162 848.746 106.416C848.746 112.116 845.846 115.116 839.746 115.116H814.346C815.346 123.416 819.046 126.516 826.146 126.716C831.046 126.816 835.046 125.416 838.346 122.916ZM824.346 92.9162C818.046 92.9162 815.246 97.2162 814.346 104.116H832.546C833.146 104.116 833.446 103.816 833.446 103.216C833.446 96.3162 829.946 92.9162 824.346 92.9162Z" fill="#594A39"/>
<path d="M903.735 88.5162C904.235 94.0162 900.735 95.7162 895.835 96.3162C890.535 97.0162 885.535 102.216 884.035 108.816V129.516C884.035 135.116 880.635 137.516 875.135 137.516C869.635 137.516 867.035 135.016 867.035 129.516V89.4162C867.035 84.6162 870.235 82.5162 875.135 82.5162C879.735 82.5162 882.735 84.9162 882.735 89.8162V94.5162C884.835 86.2162 889.535 82.8162 895.435 82.6162C899.935 82.5162 903.335 84.0162 903.735 88.5162Z" fill="#594A39"/>
<path d="M1008.72 130.216C1008.72 133.916 1006.72 136.016 1002.92 136.016H974.816C967.916 136.016 964.816 132.616 964.816 125.716V69.5162C964.816 64.2162 968.016 61.3162 973.416 61.2162C978.816 61.1162 982.016 64.2162 982.016 69.5162V123.316C982.016 124.216 982.416 124.416 983.116 124.416H1002.92C1006.62 124.416 1008.72 126.416 1008.72 130.216Z" fill="#594A39"/>
<path d="M1048.72 137.616C1031.02 137.616 1021.72 127.016 1021.72 109.116C1021.72 92.9162 1032.92 82.5162 1049.42 82.5162C1065.72 82.5162 1076.12 92.8162 1076.22 109.116C1076.32 127.416 1065.72 137.616 1048.72 137.616ZM1048.92 126.516C1055.82 126.316 1058.82 121.316 1058.82 109.416C1058.82 98.6162 1055.92 93.4162 1048.92 93.5162C1042.12 93.6162 1039.02 98.7162 1039.12 109.416C1039.22 120.716 1041.72 126.716 1048.92 126.516Z" fill="#594A39"/>
<path d="M1136.53 89.1162C1139.53 92.3162 1141.03 96.8162 1141.03 102.616V129.216C1141.03 134.616 1138.93 137.516 1133.73 137.516C1128.43 137.516 1126.03 134.616 1126.03 129.216V128.916C1122.73 134.716 1116.53 137.516 1108.63 137.516C1098.03 137.516 1091.53 131.316 1091.53 121.416C1091.53 109.516 1102.63 102.116 1119.43 102.116C1121.43 102.116 1123.53 102.216 1124.83 102.416V101.516C1124.83 96.5162 1122.03 93.5162 1116.73 93.3162C1112.43 93.1162 1107.83 95.0162 1104.03 99.1162C1101.63 101.716 1098.13 102.116 1095.63 99.9162C1093.03 97.8162 1092.73 94.5162 1095.03 91.6162C1098.63 87.2162 1106.53 82.5162 1117.03 82.5162C1126.33 82.5162 1132.23 84.6162 1136.53 89.1162ZM1125.03 117.716V112.616C1123.73 112.416 1121.53 112.216 1119.63 112.316C1110.03 112.816 1106.73 116.516 1106.93 120.416C1107.13 123.816 1109.23 125.816 1113.33 125.816C1118.03 125.816 1122.73 122.516 1125.03 117.716Z" fill="#594A39"/>
<path d="M1193.62 82.5162C1205.52 82.5162 1212.92 90.1162 1212.92 102.416V129.216C1212.92 134.616 1209.92 137.516 1204.42 137.516C1198.92 137.516 1195.92 134.616 1195.92 129.216V103.716C1195.92 97.4162 1193.32 93.6162 1188.72 93.6162C1184.32 93.6162 1180.32 97.6162 1179.02 103.216V129.216C1179.02 134.616 1176.02 137.516 1170.52 137.516C1165.02 137.516 1162.02 134.616 1162.02 129.216V90.3162C1162.02 85.3162 1164.82 82.6162 1169.82 82.6162C1174.92 82.6162 1177.72 85.1162 1177.72 90.2162V91.8162C1180.72 85.7162 1186.92 82.5162 1193.62 82.5162Z" fill="#594A39"/>
<path d="M1231.18 123.616C1232.88 121.516 1235.68 121.116 1238.28 122.716C1241.28 124.516 1245.58 126.316 1249.98 126.316C1254.38 126.316 1256.48 125.216 1256.48 122.616C1256.48 120.116 1255.38 118.416 1246.78 114.616C1236.58 110.116 1231.28 105.916 1231.28 97.7162C1231.28 88.7162 1239.98 82.5162 1252.78 82.5162C1261.38 82.5162 1267.28 85.2162 1270.18 87.7162C1272.48 89.7162 1272.88 92.7162 1271.18 95.0162C1269.48 97.3162 1265.78 97.9162 1262.98 95.9162C1260.58 94.2162 1257.38 93.6162 1253.68 93.6162C1249.88 93.6162 1247.98 95.0162 1247.98 97.1162C1247.98 99.5162 1249.98 100.716 1257.38 104.116C1269.08 109.416 1273.68 113.816 1273.68 121.716C1273.68 132.516 1263.48 137.516 1252.78 137.516C1245.18 137.516 1236.28 135.616 1231.98 131.316C1229.58 128.916 1229.18 126.016 1231.18 123.616Z" fill="#594A39"/>
</svg>
