<svg width="1034" height="709" viewBox="0 0 1034 709" fill="none" xmlns="http://www.w3.org/2000/svg">
<g clip-path="url(#clip0_713_2702)">
<path d="M911.511 326.633C911.511 326.633 957.278 404.145 966.701 485.4C976.123 566.655 993.001 585.224 1003.66 602.465C980.5 602.231 957.719 596.567 937.15 585.925C939.264 683.834 906.392 779.285 844.437 855.142C844.437 855.142 810.558 889.262 787.205 907.674C774.757 918.801 764.776 932.412 757.906 947.627C749.758 941.435 743.221 933.37 738.851 924.118C734.48 914.867 732.405 904.697 732.798 894.473C732.798 894.473 699.856 972.561 572.916 988.115C572.916 988.115 411.311 994.722 309.979 962.839C228.465 906.801 159.655 834.247 108.022 749.889C79.2611 697.779 64.8761 638.962 66.338 579.466C66.338 579.466 52.8878 608.691 32.8584 609.814C34.2942 595.073 34.6565 580.245 33.9396 565.452C27.1239 517.249 35.373 468.122 57.5568 424.785C81.3015 376.716 112.361 332.618 149.631 294.07C133.698 290.56 118.984 282.882 106.992 271.822C106.992 271.822 128.236 266.673 168.964 233.322C209.692 199.972 249.827 162.798 314.728 140.425C314.728 140.425 284.18 75.1078 336.516 35.692C350.11 25.5842 366.29 19.5304 383.182 18.2308C413.269 15.7513 462.803 22.9976 478.342 92.6026C478.342 92.6026 652.555 70.6009 798.099 190.395C798.099 190.395 861.313 141.777 922.352 206.335C922.74 206.556 970.905 254.257 911.511 326.633Z" fill="#EBB14E"/>
<path d="M787.069 349.607C763.069 297.991 726.044 253.507 679.633 220.532C633.223 187.558 579.026 167.229 522.374 161.542C522.374 161.542 360.517 139.288 269.414 255.579C269.414 255.579 161.746 345.631 180.054 445.528C198.362 545.426 272.124 611.066 380.56 666.886C488.996 722.706 673.239 766.919 766.043 615.185C766.342 615.201 834.698 502.281 787.069 349.607Z" fill="#F7E6C7"/>
<path d="M711.558 242.048C712.463 243.552 712.955 245.269 712.983 247.023C713.012 248.777 712.577 250.506 711.722 252.039C709.188 255.863 705.789 259.037 701.799 261.303C697.81 263.569 693.341 264.865 688.758 265.083C685.037 265.582 671.117 268.23 678.843 282.418C687.951 298.777 733.148 319.867 775.667 314.561" fill="#EBB14E"/>
<path d="M855.976 308.383C826.064 306.78 803.115 281.239 804.718 251.336C806.321 221.434 831.869 198.493 861.781 200.097C891.693 201.7 914.642 227.241 913.039 257.143C911.436 287.046 885.888 309.987 855.976 308.383Z" fill="#F7E6C7"/>
<path d="M448.082 96.4721C448.082 96.4721 376.526 112.6 345.815 126.724C345.815 126.724 326.83 87.8754 352.644 60.8122C358.281 54.9475 365.162 50.424 372.779 47.5677C380.397 44.7113 388.558 43.5985 396.662 44.3105C414.745 45.9786 438.159 56.2141 448.082 96.4721Z" fill="#F7E6C7"/>
<path d="M399.093 334.197C382.378 333.301 369.553 319.028 370.449 302.318C371.345 285.608 385.622 272.788 402.337 273.684C419.053 274.58 431.877 288.853 430.982 305.563C430.086 322.273 415.809 335.093 399.093 334.197Z" fill="#4A1E0E"/>
<path d="M565.443 425.362C548.727 424.466 535.903 410.193 536.799 393.483C537.694 376.773 551.971 363.953 568.687 364.849C585.402 365.745 598.227 380.018 597.331 396.728C596.435 413.438 582.158 426.258 565.443 425.362Z" fill="#4A1E0E"/>
<path d="M459.612 270.937C449.322 266.86 443.316 257.665 446.197 250.399C449.077 243.132 459.754 240.546 470.043 244.623C480.332 248.7 486.339 257.895 483.458 265.161C480.578 272.428 469.901 275.013 459.612 270.937Z" fill="#4A1E0E"/>
<path d="M581.278 335.637C571.659 330.163 566.999 320.215 570.867 313.422C574.734 306.629 585.667 305.56 595.286 311.033C604.905 316.507 609.568 326.45 605.7 333.244C601.832 340.037 590.897 341.11 581.278 335.637Z" fill="#4A1E0E"/>
<path d="M388.929 562.929L392.611 563.127C393.761 563.137 394.901 562.916 395.966 562.483C397.03 562.049 397.997 561.409 398.812 560.598C399.626 559.787 400.273 558.823 400.712 557.761C401.15 556.699 401.372 555.558 401.367 554.409C401.311 552.12 400.371 549.945 398.745 548.332C397.12 546.72 394.935 545.797 392.645 545.758C390.455 545.641 342.768 544.88 338.877 503.847C338.826 502.675 338.538 501.53 338.03 500.473C337.521 499.416 336.802 498.471 335.919 497.699C335.035 496.927 334.004 496.343 332.888 495.981C331.772 495.62 330.594 495.485 329.426 495.591C328.257 495.698 327.123 496.039 326.091 496.597C325.058 497.154 324.148 497.918 323.418 498.837C322.689 499.755 322.154 500.813 321.845 501.945C321.536 503.076 321.459 504.255 321.62 505.417C325.399 548.54 365.333 561.664 388.929 562.929Z" fill="#EAC5AC"/>
<path d="M596.886 457.224L596.136 456.168C595.085 454.093 594.899 451.686 595.621 449.476C596.344 447.265 597.917 445.434 599.99 444.382L628.28 430.162C629.299 429.618 630.416 429.283 631.567 429.177C632.718 429.07 633.878 429.196 634.98 429.544C636.082 429.893 637.101 430.458 637.982 431.207C638.862 431.956 639.585 432.873 640.106 433.905C640.627 434.937 640.939 436.063 641.019 437.216C641.099 438.369 640.945 439.527 640.571 440.62C640.198 441.714 639.608 442.723 638.839 443.585C638.07 444.448 637.137 445.149 636.094 445.645L607.866 459.944C606.01 460.858 603.887 461.087 601.878 460.59C599.869 460.092 598.101 458.899 596.886 457.224Z" fill="#EAC5AC"/>
<path d="M616.623 477.444L615.873 476.389C614.878 474.311 614.733 471.926 615.463 469.742C616.193 467.557 617.74 465.743 619.784 464.682L647.934 450.442C649.997 449.398 652.392 449.215 654.589 449.937C656.786 450.658 658.608 452.221 659.653 454.285C660.697 456.349 660.879 458.742 660.158 460.939C659.437 463.137 657.873 464.96 655.809 466.004L627.662 480.246C625.79 481.168 623.65 481.39 621.627 480.877C619.605 480.363 617.829 479.148 616.623 477.444Z" fill="#EAC5AC"/>
<path d="M282.224 294.378L281.473 293.32C280.954 292.295 280.644 291.178 280.56 290.033C280.476 288.888 280.617 287.739 280.981 286.65C281.345 285.561 281.921 284.557 282.677 283.693C283.433 282.829 284.355 282.121 285.385 281.615L313.533 267.373C315.606 266.352 318 266.189 320.191 266.923C322.383 267.656 324.196 269.226 325.238 271.289C325.771 272.311 326.093 273.431 326.184 274.579C326.275 275.728 326.135 276.88 325.77 277.972C325.405 279.065 324.824 280.073 324.06 280.936C323.297 281.798 322.366 282.499 321.326 282.994L293.178 297.236C291.312 298.151 289.179 298.368 287.168 297.843C285.158 297.319 283.405 296.087 282.224 294.378Z" fill="#EAC5AC"/>
<path d="M302.252 315.005L301.503 313.949C300.969 312.925 300.642 311.805 300.547 310.654C300.452 309.503 300.59 308.341 300.949 307.243C301.308 306.145 301.882 305.133 302.639 304.261C303.396 303.388 304.321 302.674 305.357 302.163L333.563 288.002C334.582 287.458 335.7 287.123 336.851 287.017C338.001 286.911 339.162 287.036 340.264 287.385C341.365 287.734 342.385 288.299 343.265 289.048C344.145 289.797 344.869 290.714 345.39 291.746C345.911 292.777 346.221 293.901 346.301 295.054C346.381 296.207 346.229 297.367 345.855 298.461C345.481 299.555 344.895 300.56 344.126 301.423C343.358 302.286 342.424 302.986 341.381 303.483L313.229 317.728C311.373 318.642 309.254 318.869 307.245 318.371C305.236 317.873 303.468 316.681 302.252 315.005Z" fill="#EAC5AC"/>
<path d="M440.675 482.356C440.675 482.356 409.39 536.972 372.672 514.142C335.954 491.313 359.27 451.241 372.533 423.605L432.76 417.651L440.675 482.356Z" fill="#E27E7C"/>
<path d="M505.885 409.493C531.835 420.866 573.976 443.083 584.38 474.384C584.38 474.384 597.874 518.827 554.887 530.995C511.9 543.164 440.078 497.196 425.356 477.541C406.698 453.085 414.85 438.847 417.807 432.118C417.807 432.118 404.495 451.369 347.215 422.846C337.644 418.141 328.817 412.052 321.023 404.774C306.191 390.903 287.7 367.053 304.243 345.282C329.402 311.795 379.866 333.364 422.755 369.6C451.417 393.694 469.267 399.743 478.274 401.224C487.778 402.857 497.048 405.635 505.885 409.493Z" fill="#EAC5AC"/>
<path d="M473.221 379.992C473.221 379.992 509.721 399.418 494.382 437.822C479.044 476.227 418.106 432.135 418.106 432.135C418.106 432.135 377.787 403.825 407.793 376.786C407.793 376.786 432.748 354.565 473.221 379.992Z" fill="#4A1E0E"/>
</g>
<defs>
<clipPath id="clip0_713_2702">
<rect width="974.697" height="1118.21" fill="white" transform="matrix(-0.998566 -0.0535308 -0.0535308 0.998566 1033.16 52.1763)"/>
</clipPath>
</defs>
</svg>
