<svg width="1668" height="901" viewBox="0 0 1668 901" fill="none" xmlns="http://www.w3.org/2000/svg">
<path d="M1667.44 0.609375H0V900.609H1667.44V0.609375Z" fill="#FDFDFB"/>
<path d="M1421.44 610.404H269.936V613.998H1421.44V610.404Z" fill="#EAE8E6"/>
<path d="M1421.44 483.345H269.936V486.938H1421.44V483.345Z" fill="#EAE8E6"/>
<path d="M1421.44 356.281H269.936V359.875H1421.44V356.281Z" fill="#EAE8E6"/>
<path d="M1421.44 356.281H269.936V359.875H1421.44V356.281Z" fill="#EAE8E6"/>
<path d="M1421.44 229.183H269.936V232.776H1421.44V229.183Z" fill="#EAE8E6"/>
<path d="M278.2 88.718C278.2 78.1204 269.609 69.5293 259.012 69.5293C248.414 69.5293 239.823 78.1204 239.823 88.718C239.823 99.3156 248.414 107.907 259.012 107.907C269.609 107.907 278.2 99.3156 278.2 88.718Z" fill="#8C6F67"/>
<path d="M313.523 73.5555V78.2987H324.375V98.1342H320.853V96.3735H313.523V104.926H309.893V96.3735H302.419V98.3498H298.898V78.2628H309.893V73.5195H313.523V73.5555ZM309.893 85.7011V81.6047H302.419V85.7011H309.893ZM309.893 93.0316V88.8992H302.419V93.0316H309.893ZM320.853 85.7011V81.6047H313.523V85.7011H320.853ZM320.853 93.0316V88.8992H313.523V93.0316H320.853Z" fill="#584938"/>
<path d="M331.921 89.5806V86.4903H337.454C337.993 84.6576 338.389 82.7531 338.64 80.7768L341.515 81.1721C341.192 83.0766 340.796 84.8373 340.257 86.4903H342.449V89.5806H338.676C338.676 90.7305 338.604 91.8085 338.532 92.8146H341.803V95.869H338.245L338.03 97.2345C337.455 100.433 336.125 103.092 333.969 105.212L331.885 102.696C333.43 100.9 334.472 98.7797 334.939 96.3362L335.011 95.869H332.352V92.8146H335.37C335.442 91.7726 335.478 90.7305 335.514 89.5806H331.957H331.921ZM346.833 73.5541V79.8425H351.181C351.181 91.3054 351.038 98.3844 350.786 101.043C350.499 103.559 349.313 104.817 347.157 104.817C346.797 104.817 346.115 104.745 345.252 104.637L344.498 101.726C345.324 101.834 346.043 101.906 346.654 101.906C347.336 101.906 347.768 101.115 347.875 99.6061C348.055 97.9891 348.163 92.3834 348.235 82.7532H346.869C346.761 92.9584 345.037 100.397 341.659 105.104L339.287 103.02C342.234 98.8156 343.779 92.06 343.851 82.7532H342.27V80.2018H332.316V77.1115H335.586C335.227 75.9257 334.867 74.8118 334.472 73.8056L337.814 73.2666C338.137 74.4165 338.425 75.7101 338.784 77.1475H342.413V79.8425H343.887V73.5541H346.905H346.833ZM336.844 85.3045L334.256 86.4184C333.717 84.6936 333.107 83.1484 332.424 81.8548L335.011 80.7768C335.694 82.1782 336.305 83.6874 336.844 85.3045ZM351.936 89.5087V86.4184H357.973C358.584 84.5498 359.051 82.6453 359.338 80.669L362.213 81.0643C361.854 82.9688 361.386 84.7654 360.776 86.4184H363.327V89.5087H359.23V92.8506H363.111V95.9409H359.23V105.104H355.996V95.9409H352.187V92.8506H355.996V89.5087H351.936ZM359.123 77.1834H363.147V80.2737H352.08V77.1834H355.925C355.637 76.0335 355.314 74.9555 354.954 73.9493L358.296 73.4103C358.584 74.5243 358.835 75.8179 359.123 77.1834ZM357.11 85.1248L354.631 86.1669C354.092 84.5139 353.517 83.0766 352.834 81.8548L355.385 80.8127C356.032 82.1063 356.607 83.5437 357.11 85.1248Z" fill="#584938"/>
<path d="M396.709 76.6817C390.205 77.8675 382.875 78.5503 374.79 78.7659V81.9281H396.817V93.6425H374.179C373.46 98.1702 372.202 102.015 370.334 105.105L367.711 102.374C369.975 98.5295 371.196 93.1754 371.376 86.3839V75.6396C380.18 75.5318 388.013 74.8132 394.912 73.5195L396.709 76.7536V76.6817ZM393.331 90.2288V85.3777H374.79V86.3839C374.79 87.7134 374.682 89.007 374.574 90.2647H393.331V90.2288Z" fill="#584938"/>
<path d="M410.868 75.0994V73.4465H414.102V75.0994H419.42V78.8365H420.714V81.7112H419.42V85.4843H414.102V86.6342H419.887V87.4966C421.72 83.9391 422.942 79.124 423.588 73.123L427.11 73.7339C426.894 75.3509 426.679 76.8602 426.391 78.2975H434.908V81.6753H432.931C432.716 87.5685 431.602 92.5273 429.589 96.6597C431.099 98.9236 433.075 100.828 435.519 102.445L433.362 105.32C431.099 103.775 429.194 101.978 427.685 99.8938C426.211 101.942 424.451 103.739 422.403 105.248L420.714 102.553L418.917 104.925C417.084 103.918 415.288 103.056 413.419 102.301C411.335 103.415 408.82 104.421 405.909 105.248L403.969 102.661C406.16 102.122 408.065 101.511 409.754 100.828C408.46 100.361 407.167 99.8938 405.909 99.5704C406.556 98.6002 407.167 97.6659 407.777 96.7316H404.004V94.0725H409.431C409.682 93.6413 409.898 93.2101 410.149 92.8148H405.082V86.706H410.832V85.5562H405.55V81.7831H404.292V78.9084H405.55V75.1713H410.832L410.868 75.0994ZM410.868 88.9699H408.137V90.4791H410.868V88.9699ZM410.868 79.1599V77.507H408.604V79.1599H410.868ZM410.868 81.4238H408.604V83.0767H410.868V81.4238ZM416.114 96.6957H411.335C410.976 97.2706 410.616 97.8096 410.329 98.2768C411.227 98.5283 412.162 98.7798 413.06 99.1392C414.282 98.3846 415.288 97.5581 416.078 96.6957H416.114ZM420.426 102.122C422.546 100.684 424.307 98.8876 425.672 96.6957C424.451 94.2881 423.552 91.629 423.049 88.6824C422.726 89.2574 422.438 89.7964 422.079 90.3713L419.851 87.6403V92.7789H413.527C413.276 93.2101 413.06 93.6413 412.844 94.0366H419.959V96.2645C419.097 97.7737 417.911 99.1392 416.33 100.361C417.695 100.9 419.097 101.511 420.462 102.229L420.39 102.122H420.426ZM416.402 79.1599V77.507H414.102V79.1599H416.402ZM416.402 81.4238H414.102V83.0767H416.402V81.4238ZM416.869 88.9699H414.102V90.4791H416.869V88.9699ZM425.852 86.1311C426.14 88.6105 426.715 90.8384 427.577 92.8867C428.799 89.6886 429.518 85.9514 429.661 81.6753H425.637C425.17 83.5079 424.595 85.1968 423.984 86.706L425.816 86.1311H425.852Z" fill="#584938"/>
<path d="M453.629 73.2296C452.192 75.6012 451.078 77.9729 450.323 80.3086C449.281 83.2551 448.814 86.2376 448.814 89.2202C448.814 92.2027 449.281 95.1492 450.323 98.1318C451.078 100.467 452.192 102.839 453.629 105.211H450.359C448.706 102.947 447.484 100.611 446.586 98.2036C445.508 95.3289 445.005 92.3105 445.005 89.2202C445.005 86.1298 445.508 83.0755 446.586 80.2008C447.484 77.7213 448.706 75.4215 450.359 73.1577H453.629V73.2296Z" fill="#584938"/>
<path d="M486.975 76.6817C480.471 77.8675 473.141 78.5503 465.056 78.7659V81.9281H487.083V93.6425H464.445C463.726 98.1702 462.469 102.015 460.6 105.105L457.977 102.374C460.241 98.5295 461.462 93.1754 461.642 86.3839V75.6396C470.446 75.5318 478.279 74.8132 485.179 73.5195L486.975 76.7536V76.6817ZM483.562 90.2288V85.3777H465.02V86.3839C465.02 87.7134 464.912 89.007 464.804 90.2647H483.562V90.2288Z" fill="#584938"/>
<path d="M497.397 73.2314C499.014 75.4593 500.271 77.7951 501.17 80.2745C502.212 83.1492 502.751 86.1317 502.751 89.2939C502.751 92.4561 502.212 95.4027 501.17 98.2774C500.271 100.685 499.014 103.021 497.397 105.284H494.127C495.528 102.877 496.642 100.505 497.433 98.2055C498.439 95.223 498.942 92.2405 498.942 89.2939C498.942 86.3473 498.439 83.3289 497.433 80.3823C496.642 78.0107 495.564 75.639 494.127 73.3033H497.397V73.2314Z" fill="#584938"/>
<path d="M185.167 598.403V601.601H173.705L172.986 608.501H173.094C173.848 607.746 174.675 607.207 175.645 606.848C176.508 606.488 177.514 606.309 178.592 606.309C180.82 606.309 182.688 607.063 184.09 608.537C185.491 610.01 186.246 612.022 186.246 614.609C186.246 617.197 185.311 619.101 183.515 620.682C181.79 622.084 179.777 622.802 177.37 622.802C175.214 622.802 173.381 622.192 171.836 621.042C170.111 619.784 169.177 617.987 169.033 615.795H172.627C172.77 617.125 173.309 618.167 174.208 618.85C174.998 619.461 176.076 619.748 177.442 619.748C178.915 619.748 180.173 619.281 181.179 618.383C182.185 617.448 182.688 616.227 182.688 614.681C182.688 612.992 182.257 611.699 181.394 610.765C180.532 609.83 179.31 609.363 177.693 609.363C176.615 609.363 175.717 609.543 174.926 609.938C174.064 610.333 173.417 610.98 172.95 611.843H169.536L170.83 598.439H185.239L185.167 598.403Z" fill="#584938"/>
<path d="M205.973 601.494C207.375 603.722 208.093 606.668 208.093 610.37C208.093 614.071 207.375 617.053 205.973 619.245C204.428 621.581 202.272 622.803 199.433 622.803C196.595 622.803 194.439 621.581 192.893 619.245C191.492 617.017 190.773 614.071 190.773 610.37C190.773 606.668 191.492 603.65 192.893 601.494C194.439 599.122 196.595 597.937 199.433 597.937C202.272 597.937 204.428 599.122 205.973 601.494ZM195.265 604.261C194.654 605.734 194.403 607.782 194.403 610.37C194.403 612.957 194.654 614.969 195.265 616.478C196.055 618.634 197.457 619.712 199.433 619.712C201.41 619.712 202.775 618.599 203.602 616.478C204.177 614.969 204.464 612.921 204.464 610.37C204.464 607.818 204.177 605.734 203.602 604.261C202.811 602.069 201.374 601.027 199.433 601.027C197.493 601.027 196.091 602.105 195.265 604.261Z" fill="#584938"/>
<path d="M227.749 601.494C229.151 603.722 229.869 606.668 229.869 610.37C229.869 614.071 229.151 617.053 227.749 619.245C226.204 621.581 224.048 622.803 221.21 622.803C218.371 622.803 216.215 621.581 214.67 619.245C213.268 617.017 212.549 614.071 212.549 610.37C212.549 606.668 213.268 603.65 214.67 601.494C216.215 599.122 218.371 597.937 221.21 597.937C224.048 597.937 226.204 599.122 227.749 601.494ZM217.077 604.261C216.466 605.734 216.215 607.782 216.215 610.37C216.215 612.957 216.466 614.969 217.077 616.478C217.868 618.634 219.269 619.712 221.245 619.712C223.222 619.712 224.587 618.599 225.414 616.478C225.989 614.969 226.276 612.921 226.276 610.37C226.276 607.818 225.989 605.734 225.414 604.261C224.623 602.069 223.186 601.027 221.245 601.027C219.305 601.027 217.903 602.105 217.077 604.261Z" fill="#584938"/>
<path d="M151.964 471.34V495.272H148.299V475.724C146.862 477.089 145.029 478.095 142.801 478.742V475.113C143.879 474.861 144.993 474.358 146.179 473.711C147.401 472.957 148.407 472.202 149.197 471.34H151.928H151.964Z" fill="#584938"/>
<path d="M163.535 491.5C164.074 492.254 164.325 493.153 164.325 494.267C164.325 495.991 163.822 497.465 162.852 498.722C161.846 499.98 160.516 500.878 158.828 501.345V499.261C159.69 498.938 160.48 498.435 161.055 497.68C161.63 496.926 161.918 496.135 161.918 495.344C161.702 495.416 161.451 495.452 161.091 495.452C160.409 495.452 159.834 495.201 159.366 494.734C158.899 494.266 158.648 493.656 158.648 492.973C158.648 492.218 158.899 491.607 159.402 491.14C159.87 490.673 160.516 490.458 161.307 490.458C162.169 490.458 162.888 490.781 163.499 491.5H163.535Z" fill="#584938"/>
<path d="M184.161 474.395C185.563 476.623 186.281 479.57 186.281 483.271C186.281 486.972 185.563 489.955 184.161 492.147C182.616 494.482 180.46 495.704 177.621 495.704C174.783 495.704 172.627 494.482 171.081 492.147C169.68 489.919 168.961 486.972 168.961 483.271C168.961 479.57 169.68 476.551 171.081 474.395C172.627 472.024 174.783 470.838 177.621 470.838C180.46 470.838 182.616 472.024 184.161 474.395ZM173.489 477.198C172.878 478.671 172.627 480.72 172.627 483.307C172.627 485.894 172.878 487.906 173.489 489.416C174.279 491.572 175.681 492.65 177.657 492.65C179.634 492.65 180.999 491.536 181.826 489.416C182.401 487.906 182.688 485.858 182.688 483.307C182.688 480.756 182.401 478.671 181.826 477.198C181.035 475.006 179.598 473.964 177.657 473.964C175.717 473.964 174.315 475.042 173.489 477.198Z" fill="#584938"/>
<path d="M205.973 474.395C207.375 476.623 208.093 479.57 208.093 483.271C208.093 486.972 207.375 489.955 205.973 492.147C204.428 494.482 202.272 495.704 199.433 495.704C196.595 495.704 194.439 494.482 192.893 492.147C191.492 489.919 190.773 486.972 190.773 483.271C190.773 479.57 191.492 476.551 192.893 474.395C194.439 472.024 196.595 470.838 199.433 470.838C202.272 470.838 204.428 472.024 205.973 474.395ZM195.265 477.198C194.654 478.671 194.403 480.72 194.403 483.307C194.403 485.894 194.654 487.906 195.265 489.416C196.055 491.572 197.457 492.65 199.433 492.65C201.41 492.65 202.775 491.536 203.602 489.416C204.177 487.906 204.464 485.858 204.464 483.307C204.464 480.756 204.177 478.671 203.602 477.198C202.811 475.006 201.374 473.964 199.433 473.964C197.493 473.964 196.091 475.042 195.265 477.198Z" fill="#584938"/>
<path d="M227.749 474.395C229.15 476.623 229.869 479.57 229.869 483.271C229.869 486.972 229.15 489.955 227.749 492.147C226.204 494.482 224.048 495.704 221.209 495.704C218.37 495.704 216.214 494.482 214.669 492.147C213.267 489.919 212.549 486.972 212.549 483.271C212.549 479.57 213.267 476.551 214.669 474.395C216.214 472.024 218.37 470.838 221.209 470.838C224.048 470.838 226.204 472.024 227.749 474.395ZM217.076 477.198C216.465 478.671 216.214 480.72 216.214 483.307C216.214 485.894 216.465 487.906 217.076 489.416C217.867 491.572 219.268 492.65 221.245 492.65C223.221 492.65 224.586 491.536 225.413 489.416C225.988 487.906 226.275 485.858 226.275 483.307C226.275 480.756 225.988 478.671 225.413 477.198C224.622 475.006 223.185 473.964 221.245 473.964C219.304 473.964 217.903 475.042 217.076 477.198Z" fill="#584938"/>
<path d="M151.964 344.244V368.176H148.299V348.628C146.861 349.994 145.029 351 142.801 351.647V348.017C143.879 347.766 144.993 347.263 146.179 346.616C147.401 345.861 148.407 345.107 149.197 344.244H151.928H151.964Z" fill="#584938"/>
<path d="M163.535 364.404C164.074 365.159 164.325 366.057 164.325 367.171C164.325 368.896 163.822 370.369 162.852 371.627C161.846 372.884 160.516 373.783 158.827 374.25V372.166C159.69 371.842 160.48 371.339 161.055 370.585C161.63 369.83 161.918 369.039 161.918 368.249C161.702 368.321 161.45 368.357 161.091 368.357C160.408 368.357 159.833 368.105 159.366 367.638C158.899 367.171 158.647 366.56 158.647 365.877C158.647 365.123 158.899 364.512 159.402 364.045C159.869 363.577 160.516 363.362 161.307 363.362C162.169 363.362 162.888 363.685 163.499 364.404H163.535Z" fill="#584938"/>
<path d="M185.167 344.244V347.442H173.704L172.986 354.342H173.094C173.848 353.587 174.675 353.048 175.645 352.689C176.507 352.329 177.513 352.15 178.591 352.15C180.819 352.15 182.688 352.904 184.089 354.377C185.491 355.851 186.245 357.863 186.245 360.45C186.245 363.038 185.311 364.942 183.514 366.523C181.79 367.925 179.777 368.643 177.37 368.643C175.214 368.643 173.381 368.032 171.836 366.882C170.111 365.625 169.177 363.828 169.033 361.636H172.626C172.77 362.966 173.309 364.008 174.207 364.691C174.998 365.301 176.076 365.589 177.442 365.589C178.915 365.589 180.172 365.122 181.179 364.223C182.185 363.289 182.688 362.067 182.688 360.522C182.688 358.833 182.257 357.54 181.394 356.605C180.532 355.671 179.31 355.204 177.693 355.204C176.615 355.204 175.717 355.384 174.926 355.779C174.064 356.174 173.417 356.821 172.95 357.683H169.536L170.83 344.28H185.239L185.167 344.244Z" fill="#584938"/>
<path d="M205.973 347.335C207.375 349.563 208.093 352.509 208.093 356.21C208.093 359.912 207.375 362.894 205.973 365.086C204.428 367.422 202.272 368.644 199.433 368.644C196.595 368.644 194.439 367.422 192.893 365.086C191.492 362.858 190.773 359.912 190.773 356.21C190.773 352.509 191.492 349.491 192.893 347.335C194.439 344.963 196.595 343.777 199.433 343.777C202.272 343.777 204.428 344.963 205.973 347.335ZM195.265 350.102C194.654 351.575 194.403 353.623 194.403 356.21C194.403 358.798 194.654 360.81 195.265 362.319C196.055 364.475 197.457 365.553 199.433 365.553C201.41 365.553 202.775 364.439 203.602 362.319C204.177 360.81 204.464 358.762 204.464 356.21C204.464 353.659 204.177 351.575 203.602 350.102C202.811 347.91 201.374 346.868 199.433 346.868C197.493 346.868 196.091 347.946 195.265 350.102Z" fill="#584938"/>
<path d="M227.749 347.335C229.15 349.563 229.868 352.509 229.868 356.21C229.868 359.912 229.15 362.894 227.749 365.086C226.203 367.422 224.047 368.644 221.209 368.644C218.37 368.644 216.214 367.422 214.669 365.086C213.267 362.858 212.548 359.912 212.548 356.21C212.548 352.509 213.267 349.491 214.669 347.335C216.214 344.963 218.37 343.777 221.209 343.777C224.047 343.777 226.203 344.963 227.749 347.335ZM217.076 350.102C216.465 351.575 216.214 353.623 216.214 356.21C216.214 358.798 216.465 360.81 217.076 362.319C217.867 364.475 219.268 365.553 221.244 365.553C223.221 365.553 224.586 364.439 225.413 362.319C225.988 360.81 226.275 358.762 226.275 356.21C226.275 353.659 225.988 351.575 225.413 350.102C224.622 347.91 223.185 346.868 221.244 346.868C219.304 346.868 217.903 347.946 217.076 350.102Z" fill="#584938"/>
<path d="M151.066 218.69C152.504 220.019 153.258 221.744 153.258 223.864C153.258 225.985 152.468 227.817 150.923 229.542C149.988 230.512 148.335 231.77 145.964 233.387C143.376 235.112 141.831 236.585 141.328 237.915H153.294V241.113H136.801C136.801 238.741 137.555 236.657 139.172 234.86C140.034 233.818 141.867 232.381 144.562 230.512C146.179 229.362 147.293 228.464 147.976 227.781C149.054 226.559 149.629 225.266 149.629 223.864C149.629 222.463 149.27 221.529 148.515 220.846C147.76 220.163 146.682 219.84 145.281 219.84C143.772 219.84 142.622 220.343 141.867 221.385C141.077 222.391 140.645 223.828 140.61 225.769H136.944C136.944 223.074 137.735 220.954 139.244 219.337C140.789 217.612 142.873 216.75 145.425 216.75C147.688 216.75 149.629 217.396 151.102 218.726L151.066 218.69Z" fill="#584938"/>
<path d="M163.536 237.341C164.075 238.096 164.326 238.994 164.326 240.108C164.326 241.833 163.823 243.306 162.853 244.564C161.847 245.821 160.517 246.72 158.829 247.187V245.103C159.691 244.779 160.481 244.276 161.056 243.522C161.631 242.767 161.919 241.976 161.919 241.186C161.703 241.258 161.452 241.294 161.092 241.294C160.41 241.294 159.835 241.042 159.367 240.575C158.9 240.108 158.649 239.497 158.649 238.814C158.649 238.06 158.9 237.449 159.403 236.982C159.871 236.514 160.517 236.299 161.308 236.299C162.17 236.299 162.889 236.622 163.5 237.341H163.536Z" fill="#584938"/>
<path d="M184.161 220.237C185.563 222.465 186.281 225.411 186.281 229.112C186.281 232.814 185.563 235.796 184.161 237.988C182.616 240.324 180.46 241.545 177.621 241.545C174.783 241.545 172.627 240.324 171.081 237.988C169.68 235.76 168.961 232.814 168.961 229.112C168.961 225.411 169.68 222.393 171.081 220.237C172.627 217.865 174.783 216.679 177.621 216.679C180.46 216.679 182.616 217.865 184.161 220.237ZM173.489 223.039C172.878 224.513 172.627 226.561 172.627 229.148C172.627 231.735 172.878 233.748 173.489 235.257C174.279 237.413 175.681 238.491 177.657 238.491C179.634 238.491 180.999 237.377 181.826 235.257C182.401 233.748 182.688 231.7 182.688 229.148C182.688 226.597 182.401 224.513 181.826 223.039C181.035 220.848 179.598 219.805 177.657 219.805C175.717 219.805 174.315 220.883 173.489 223.039Z" fill="#584938"/>
<path d="M205.973 220.237C207.375 222.465 208.093 225.411 208.093 229.112C208.093 232.814 207.375 235.796 205.973 237.988C204.428 240.324 202.272 241.545 199.433 241.545C196.595 241.545 194.439 240.324 192.893 237.988C191.492 235.76 190.773 232.814 190.773 229.112C190.773 225.411 191.492 222.393 192.893 220.237C194.439 217.865 196.595 216.679 199.433 216.679C202.272 216.679 204.428 217.865 205.973 220.237ZM195.265 223.039C194.654 224.513 194.403 226.561 194.403 229.148C194.403 231.735 194.654 233.748 195.265 235.257C196.055 237.413 197.457 238.491 199.433 238.491C201.41 238.491 202.775 237.377 203.602 235.257C204.177 233.748 204.464 231.7 204.464 229.148C204.464 226.597 204.177 224.513 203.602 223.039C202.811 220.848 201.374 219.805 199.433 219.805C197.493 219.805 196.091 220.883 195.265 223.039Z" fill="#584938"/>
<path d="M227.749 220.237C229.151 222.465 229.869 225.411 229.869 229.112C229.869 232.814 229.151 235.796 227.749 237.988C226.204 240.324 224.048 241.545 221.21 241.545C218.371 241.545 216.215 240.324 214.67 237.988C213.268 235.76 212.549 232.814 212.549 229.112C212.549 225.411 213.268 222.393 214.67 220.237C216.215 217.865 218.371 216.679 221.21 216.679C224.048 216.679 226.204 217.865 227.749 220.237ZM217.077 223.039C216.466 224.513 216.215 226.561 216.215 229.148C216.215 231.735 216.466 233.748 217.077 235.257C217.868 237.413 219.269 238.491 221.245 238.491C223.222 238.491 224.587 237.377 225.414 235.257C225.989 233.748 226.276 231.7 226.276 229.148C226.276 226.597 225.989 224.513 225.414 223.039C224.623 220.848 223.186 219.805 221.245 219.805C219.305 219.805 217.903 220.883 217.077 223.039Z" fill="#584938"/>
<path d="M227.749 728.557C229.151 730.785 229.869 733.732 229.869 737.433C229.869 741.134 229.151 744.117 227.749 746.309C226.204 748.645 224.048 749.866 221.21 749.866C218.371 749.866 216.215 748.645 214.67 746.309C213.268 744.081 212.549 741.134 212.549 737.433C212.549 733.732 213.268 730.714 214.67 728.557C216.215 726.186 218.371 725 221.21 725C224.048 725 226.204 726.186 227.749 728.557ZM217.077 731.324C216.466 732.798 216.215 734.846 216.215 737.433C216.215 740.02 216.466 742.033 217.077 743.542C217.868 745.698 219.269 746.776 221.245 746.776C223.222 746.776 224.587 745.662 225.414 743.542C225.989 742.033 226.276 739.984 226.276 737.433C226.276 734.882 225.989 732.798 225.414 731.324C224.623 729.132 223.186 728.09 221.245 728.09C219.305 728.09 217.903 729.168 217.077 731.324Z" fill="#584938"/>
<path d="M1473.86 598.403V601.601H1462.4L1461.68 608.501H1461.79C1462.55 607.746 1463.37 607.207 1464.34 606.848C1465.2 606.488 1466.21 606.309 1467.29 606.309C1469.52 606.309 1471.39 607.063 1472.79 608.537C1474.19 610.01 1474.94 612.022 1474.94 614.609C1474.94 617.197 1474.01 619.101 1472.21 620.682C1470.49 622.084 1468.47 622.802 1466.07 622.802C1463.91 622.802 1462.08 622.192 1460.53 621.042C1458.81 619.784 1457.87 617.987 1457.73 615.795H1461.32C1461.47 617.125 1462.01 618.167 1462.9 618.85C1463.7 619.461 1464.77 619.748 1466.14 619.748C1467.61 619.748 1468.87 619.281 1469.88 618.383C1470.88 617.448 1471.39 616.227 1471.39 614.681C1471.39 612.992 1470.95 611.699 1470.09 610.765C1469.23 609.83 1468.01 609.363 1466.39 609.363C1465.31 609.363 1464.41 609.543 1463.62 609.938C1462.76 610.333 1462.11 610.98 1461.65 611.843H1458.23L1459.53 598.439H1473.94L1473.86 598.403Z" fill="#584938"/>
<path d="M1494.63 601.494C1496.04 603.722 1496.75 606.668 1496.75 610.37C1496.75 614.071 1496.04 617.053 1494.63 619.245C1493.09 621.581 1490.93 622.803 1488.09 622.803C1485.26 622.803 1483.1 621.581 1481.55 619.245C1480.15 617.017 1479.43 614.071 1479.43 610.37C1479.43 606.668 1480.15 603.65 1481.55 601.494C1483.1 599.122 1485.26 597.937 1488.09 597.937C1490.93 597.937 1493.09 599.122 1494.63 601.494ZM1483.96 604.261C1483.35 605.734 1483.1 607.782 1483.1 610.37C1483.1 612.957 1483.35 614.969 1483.96 616.478C1484.75 618.634 1486.15 619.712 1488.13 619.712C1490.11 619.712 1491.47 618.599 1492.3 616.478C1492.87 614.969 1493.16 612.921 1493.16 610.37C1493.16 607.818 1492.87 605.734 1492.3 604.261C1491.51 602.069 1490.07 601.027 1488.13 601.027C1486.19 601.027 1484.79 602.105 1483.96 604.261Z" fill="#584938"/>
<path d="M1466.79 471.34V495.272H1463.12V475.724C1461.68 477.089 1459.85 478.095 1457.62 478.742V475.113C1458.7 474.861 1459.81 474.358 1461 473.711C1462.22 472.957 1463.23 472.202 1464.02 471.34H1466.75H1466.79Z" fill="#584938"/>
<path d="M1488.2 474.395C1489.6 476.623 1490.32 479.57 1490.32 483.271C1490.32 486.972 1489.6 489.955 1488.2 492.147C1486.66 494.482 1484.5 495.704 1481.66 495.704C1478.82 495.704 1476.67 494.482 1475.12 492.147C1473.72 489.919 1473 486.972 1473 483.271C1473 479.57 1473.72 476.551 1475.12 474.395C1476.67 472.024 1478.82 470.838 1481.66 470.838C1484.5 470.838 1486.66 472.024 1488.2 474.395ZM1477.53 477.198C1476.92 478.671 1476.67 480.72 1476.67 483.307C1476.67 485.894 1476.92 487.906 1477.53 489.416C1478.32 491.572 1479.72 492.65 1481.7 492.65C1483.67 492.65 1485.04 491.536 1485.87 489.416C1486.44 487.906 1486.73 485.858 1486.73 483.307C1486.73 480.756 1486.44 478.671 1485.87 477.198C1485.08 475.006 1483.64 473.964 1481.7 473.964C1479.76 473.964 1478.36 475.042 1477.53 477.198Z" fill="#584938"/>
<path d="M1510.01 474.395C1511.41 476.623 1512.13 479.57 1512.13 483.271C1512.13 486.972 1511.41 489.955 1510.01 492.147C1508.47 494.482 1506.31 495.704 1503.47 495.704C1500.63 495.704 1498.48 494.482 1496.93 492.147C1495.53 489.919 1494.81 486.972 1494.81 483.271C1494.81 479.57 1495.53 476.551 1496.93 474.395C1498.48 472.024 1500.63 470.838 1503.47 470.838C1506.31 470.838 1508.47 472.024 1510.01 474.395ZM1499.31 477.198C1498.69 478.671 1498.44 480.72 1498.44 483.307C1498.44 485.894 1498.69 487.906 1499.31 489.416C1500.1 491.572 1501.5 492.65 1503.47 492.65C1505.45 492.65 1506.82 491.536 1507.64 489.416C1508.22 487.906 1508.5 485.858 1508.5 483.307C1508.5 480.756 1508.22 478.671 1507.64 477.198C1506.85 475.006 1505.41 473.964 1503.47 473.964C1501.53 473.964 1500.13 475.042 1499.31 477.198Z" fill="#584938"/>
<path d="M1466.79 344.244V368.176H1463.12V348.628C1461.68 349.994 1459.85 351 1457.62 351.647V348.017C1458.7 347.766 1459.81 347.263 1461 346.616C1462.22 345.861 1463.23 345.107 1464.02 344.244H1466.75H1466.79Z" fill="#584938"/>
<path d="M1489.21 344.244V347.442H1477.75L1477.03 354.342H1477.13C1477.89 353.587 1478.72 353.048 1479.69 352.689C1480.55 352.329 1481.55 352.15 1482.63 352.15C1484.86 352.15 1486.73 352.904 1488.13 354.377C1489.53 355.851 1490.29 357.863 1490.29 360.45C1490.29 363.038 1489.35 364.942 1487.56 366.523C1485.83 367.925 1483.82 368.643 1481.41 368.643C1479.25 368.643 1477.42 368.032 1475.88 366.882C1474.15 365.625 1473.22 363.828 1473.07 361.636H1476.67C1476.81 362.966 1477.35 364.008 1478.25 364.691C1479.04 365.301 1480.12 365.589 1481.48 365.589C1482.96 365.589 1484.21 365.122 1485.22 364.223C1486.23 363.289 1486.73 362.067 1486.73 360.522C1486.73 358.833 1486.3 357.54 1485.44 356.605C1484.57 355.671 1483.35 355.204 1481.73 355.204C1480.66 355.204 1479.76 355.384 1478.97 355.779C1478.11 356.174 1477.46 356.821 1476.99 357.683H1473.58L1474.87 344.28H1489.28L1489.21 344.244Z" fill="#584938"/>
<path d="M1510.01 347.335C1511.41 349.563 1512.13 352.509 1512.13 356.21C1512.13 359.912 1511.41 362.894 1510.01 365.086C1508.47 367.422 1506.31 368.644 1503.47 368.644C1500.63 368.644 1498.48 367.422 1496.93 365.086C1495.53 362.858 1494.81 359.912 1494.81 356.21C1494.81 352.509 1495.53 349.491 1496.93 347.335C1498.48 344.963 1500.63 343.777 1503.47 343.777C1506.31 343.777 1508.47 344.963 1510.01 347.335ZM1499.31 350.102C1498.69 351.575 1498.44 353.623 1498.44 356.21C1498.44 358.798 1498.69 360.81 1499.31 362.319C1500.1 364.475 1501.5 365.553 1503.47 365.553C1505.45 365.553 1506.82 364.439 1507.64 362.319C1508.22 360.81 1508.5 358.762 1508.5 356.21C1508.5 353.659 1508.22 351.575 1507.64 350.102C1506.85 347.91 1505.41 346.868 1503.47 346.868C1501.53 346.868 1500.13 347.946 1499.31 350.102Z" fill="#584938"/>
<path d="M1472.35 218.69C1473.79 220.019 1474.55 221.744 1474.55 223.864C1474.55 225.985 1473.76 227.817 1472.21 229.542C1471.28 230.512 1469.62 231.77 1467.25 233.387C1464.67 235.112 1463.12 236.585 1462.62 237.915H1474.58V241.113H1458.09C1458.09 238.741 1458.84 236.657 1460.46 234.86C1461.32 233.818 1463.16 232.381 1465.85 230.512C1467.47 229.362 1468.58 228.464 1469.26 227.781C1470.34 226.559 1470.92 225.266 1470.92 223.864C1470.92 222.463 1470.56 221.529 1469.8 220.846C1469.05 220.163 1467.97 219.84 1466.57 219.84C1465.06 219.84 1463.91 220.343 1463.16 221.385C1462.37 222.391 1461.93 223.828 1461.9 225.769H1458.23C1458.23 223.074 1459.02 220.954 1460.53 219.337C1462.08 217.612 1464.16 216.75 1466.71 216.75C1468.98 216.75 1470.92 217.396 1472.39 218.726L1472.35 218.69Z" fill="#584938"/>
<path d="M1494.63 220.237C1496.04 222.465 1496.75 225.411 1496.75 229.112C1496.75 232.814 1496.04 235.796 1494.63 237.988C1493.09 240.324 1490.93 241.545 1488.09 241.545C1485.26 241.545 1483.1 240.324 1481.55 237.988C1480.15 235.76 1479.43 232.814 1479.43 229.112C1479.43 225.411 1480.15 222.393 1481.55 220.237C1483.1 217.865 1485.26 216.679 1488.09 216.679C1490.93 216.679 1493.09 217.865 1494.63 220.237ZM1483.96 223.039C1483.35 224.513 1483.1 226.561 1483.1 229.148C1483.1 231.735 1483.35 233.748 1483.96 235.257C1484.75 237.413 1486.15 238.491 1488.13 238.491C1490.11 238.491 1491.47 237.377 1492.3 235.257C1492.87 233.748 1493.16 231.7 1493.16 229.148C1493.16 226.597 1492.87 224.513 1492.3 223.039C1491.51 220.848 1490.07 219.805 1488.13 219.805C1486.19 219.805 1484.79 220.883 1483.96 223.039Z" fill="#584938"/>
<path d="M1516.45 220.237C1517.85 222.465 1518.57 225.411 1518.57 229.112C1518.57 232.814 1517.85 235.796 1516.45 237.988C1514.9 240.324 1512.74 241.545 1509.91 241.545C1507.07 241.545 1504.91 240.324 1503.37 237.988C1501.96 235.76 1501.25 232.814 1501.25 229.112C1501.25 225.411 1501.96 222.393 1503.37 220.237C1504.91 217.865 1507.07 216.679 1509.91 216.679C1512.74 216.679 1514.9 217.865 1516.45 220.237ZM1505.77 223.039C1505.16 224.513 1504.91 226.561 1504.91 229.148C1504.91 231.735 1505.16 233.748 1505.77 235.257C1506.56 237.413 1507.97 238.491 1509.94 238.491C1511.92 238.491 1513.28 237.377 1514.11 235.257C1514.69 233.748 1514.97 231.7 1514.97 229.148C1514.97 226.597 1514.69 224.513 1514.11 223.039C1513.32 220.848 1511.88 219.805 1509.94 219.805C1508 219.805 1506.6 220.883 1505.77 223.039Z" fill="#584938"/>
<path d="M1472.86 728.557C1474.26 730.785 1474.98 733.732 1474.98 737.433C1474.98 741.134 1474.26 744.117 1472.86 746.309C1471.31 748.645 1469.16 749.866 1466.32 749.866C1463.48 749.866 1461.32 748.645 1459.78 746.309C1458.38 744.081 1457.66 741.134 1457.66 737.433C1457.66 733.732 1458.38 730.714 1459.78 728.557C1461.32 726.186 1463.48 725 1466.32 725C1469.16 725 1471.31 726.186 1472.86 728.557ZM1462.19 731.324C1461.58 732.798 1461.32 734.846 1461.32 737.433C1461.32 740.02 1461.58 742.033 1462.19 743.542C1462.98 745.698 1464.38 746.776 1466.35 746.776C1468.33 746.776 1469.7 745.662 1470.52 743.542C1471.1 742.033 1471.39 739.984 1471.39 737.433C1471.39 734.882 1471.1 732.798 1470.52 731.324C1469.73 729.132 1468.29 728.09 1466.35 728.09C1464.41 728.09 1463.01 729.168 1462.19 731.324Z" fill="#584938"/>
<path d="M595.82 88.718C595.82 78.1204 587.229 69.5293 576.631 69.5293C566.034 69.5293 557.443 78.1204 557.443 88.718C557.443 99.3156 566.034 107.907 576.631 107.907C587.229 107.907 595.82 99.3156 595.82 88.718Z" fill="#C9D250"/>
<path d="M615.584 86.3096L613.5 83.2912C619.429 80.7399 624.244 77.4699 627.873 73.4453H630.748C633.91 77.3621 638.654 80.6321 645.014 83.2553L642.966 86.2737C641.349 85.591 639.839 84.8723 638.474 84.0817V85.8425H631.107V89.6515H642.894V92.9574H631.107V101.043H634.054C635.096 98.9224 635.959 96.6945 636.749 94.3229L639.983 95.5087C639.264 97.5569 638.474 99.3896 637.647 101.043H644.115V104.42H614.47V101.043H621.046C620.435 99.174 619.644 97.4132 618.71 95.7602L621.98 94.5744C622.914 96.3711 623.777 98.5631 624.531 101.043H627.55V92.9574H615.728V89.6515H627.55V85.8425H620.183V83.938C618.71 84.8004 617.201 85.591 615.62 86.3096H615.584ZM629.311 76.8231C627.191 79.0151 624.819 80.9196 622.268 82.6444H636.066C633.443 80.9196 631.215 78.9791 629.311 76.8231Z" fill="#584938"/>
<path d="M651.266 89.5804L649.433 87.2088C651.913 85.3043 653.602 82.9326 654.5 80.1657L657.483 80.5969L656.98 82.0702H661.328V79.1596H653.027V82.1062H649.937V76.213H655.47C655.183 75.3865 654.931 74.6319 654.608 73.9492L658.094 73.4102C658.381 74.2366 658.597 75.2069 658.848 76.213H664.382V82.1062H662.837V84.4419C662.046 86.0948 661.148 87.5681 660.214 88.8258C662.082 90.0835 663.699 91.3771 665.208 92.5988L662.873 94.9345C662.873 94.9345 662.585 94.683 662.513 94.6471V104.816H659.351V103.199H654.644V104.996H651.518V95.0424C651.23 95.1502 650.979 95.258 650.691 95.3298L649.29 92.491C651.697 91.8802 653.817 90.8022 655.578 89.2929L653.206 87.7478C652.56 88.3946 651.877 89.0055 651.158 89.5804H651.266ZM654.536 93.7487H661.615C660.573 92.8504 659.459 91.952 658.237 91.0896C657.123 92.1317 655.866 92.9941 654.536 93.7487ZM659.423 100.145V96.6594H654.716V100.145H659.423ZM659.423 84.8012H655.578C655.399 85.0887 655.219 85.3043 655.111 85.5558C656.045 86.0948 656.944 86.6338 657.734 87.1728C658.345 86.4182 658.884 85.6277 659.423 84.8012ZM670.599 79.9861L670.814 77.6504H664.957V74.4882H680.588V77.6504H674.336L674.12 79.9861H679.546V98.3483H676.42C678.324 99.8575 679.941 101.367 681.235 102.84L678.827 105.212C677.713 103.702 676.096 102.049 673.976 100.361L676.025 98.3842H669.377L671.641 100.361C670.131 102.265 668.263 103.954 666.071 105.427L663.987 102.732C666.035 101.475 667.76 100.037 669.089 98.3842H665.855V80.022H670.599V79.9861ZM676.24 85.1605V82.8967H669.197V85.1605H676.24ZM676.24 90.1194V87.9634H669.197V90.1194H676.24ZM676.24 92.9223H669.197V95.258H676.24V92.9223Z" fill="#584938"/>
<path d="M699.274 73.2296C697.836 75.6012 696.722 77.9729 695.968 80.3086C694.926 83.2551 694.459 86.2376 694.459 89.2202C694.459 92.2027 694.926 95.1492 695.968 98.1318C696.722 100.467 697.836 102.839 699.274 105.211H696.004C694.351 102.947 693.129 100.611 692.231 98.2036C691.153 95.3289 690.65 92.3105 690.65 89.2202C690.65 86.1298 691.153 83.0755 692.231 80.2008C693.129 77.7213 694.351 75.4215 696.004 73.1577H699.274V73.2296Z" fill="#584938"/>
<path d="M713.54 74.775C712.929 76.9311 712.138 78.9793 711.168 80.9916V105.211H707.754V86.8129C706.784 88.1425 705.814 89.4361 704.7 90.6938L703.55 87.0285C706.605 83.1117 708.869 78.5481 710.306 73.3018L713.576 74.811L713.54 74.775ZM716.918 97.8087C716.271 100.683 715.373 103.163 714.223 105.283L711.671 103.666C712.821 101.654 713.648 99.4976 714.187 97.1978L716.918 97.8087ZM714.007 78.5122V75.5656H721.553C721.23 75.0266 720.942 74.4876 720.583 74.0204L724.428 73.4096C724.787 74.0564 725.075 74.7751 725.398 75.5656H733.483V78.5122H730.141L729.423 80.6682H734.561V83.6867H713.073V80.6682H718.319L717.744 78.5122H714.043H714.007ZM732.333 84.8725V95.6526H724.643C725.793 96.8744 726.692 98.0243 727.339 98.9945L724.967 100.683C724.212 99.4976 723.206 98.1321 721.984 96.6947L723.673 95.6167H715.121V84.8365H732.333V84.8725ZM721.481 104.995C719.253 104.995 718.139 103.846 718.139 101.654V97.2697H721.374V101.007C721.374 101.654 721.733 102.013 722.416 102.013H726.261C726.8 102.013 727.195 101.905 727.41 101.69C727.734 101.474 727.913 100.827 728.021 99.785L730.896 100.683C730.608 102.803 730.213 104.025 729.602 104.42C728.991 104.78 728.057 104.995 726.835 104.995H721.481ZM729.099 89.0767V87.4238H718.355V89.0767H729.099ZM729.099 91.4843H718.355V93.1013H729.099V91.4843ZM726.045 80.6682L726.764 78.5122H721.014L721.589 80.6682H726.045ZM735.568 103.235L732.908 104.456C731.83 101.905 730.68 99.6772 729.387 97.7368L732.154 96.8025C733.447 98.7789 734.633 100.935 735.568 103.199V103.235Z" fill="#584938"/>
<path d="M770.351 85.0148V88.4645H761.26V100.035C761.26 100.934 761.619 101.365 762.41 101.365H766.183C766.578 101.365 766.938 101.077 767.153 100.574C767.405 100.035 767.548 98.3463 767.62 95.5794L770.854 96.6214C770.603 100.502 770.172 102.802 769.561 103.521C768.95 104.203 768.051 104.563 766.866 104.563H761.404C758.96 104.563 757.774 103.305 757.774 100.79V88.4645H752.708V89.1472C752.528 93.4952 751.594 96.9808 749.833 99.604C748.108 102.012 745.377 103.88 741.532 105.21L739.628 102.191C743.329 100.898 745.808 99.2446 747.102 97.3401C748.396 95.22 749.078 92.525 749.222 89.1472V88.4645H740.706V85.0148H770.351ZM767.369 74.9893V78.403H743.365V74.9893H767.369Z" fill="#584938"/>
<path d="M779.011 73.228C780.628 75.4559 781.886 77.7916 782.784 80.2711C783.826 83.1458 784.365 86.1283 784.365 89.2905C784.365 92.4527 783.826 95.3992 782.784 98.2739C781.886 100.682 780.628 103.017 779.011 105.281H775.741C777.142 102.873 778.256 100.502 779.047 98.2021C780.053 95.2196 780.556 92.2371 780.556 89.2905C780.556 86.3439 780.053 83.3255 779.047 80.3789C778.256 78.0072 777.178 75.6356 775.741 73.2999H779.011V73.228Z" fill="#584938"/>
<path d="M584.032 650.759H497.755V738.473H584.032V650.759Z" fill="#C9D250"/>
<path d="M888.968 529.805H802.69V738.473H888.968V529.805Z" fill="#C9D250"/>
<path d="M1193.87 248.766H1107.59V738.473H1193.87V248.766Z" fill="#C9D250"/>
<path d="M540.911 669.012C539.402 669.012 537.893 668.222 537.066 666.82C535.773 664.7 536.492 661.933 538.612 660.675L842.253 478.311C842.253 478.311 842.505 478.167 842.648 478.095L1148.8 332.455C1151.03 331.377 1153.73 332.348 1154.81 334.575C1155.88 336.803 1154.91 339.498 1152.69 340.576L846.709 486.109L543.247 668.365C542.529 668.796 541.738 669.012 540.947 669.012H540.911Z" fill="#8C6F67"/>
<path d="M1421.44 737.502H269.935V741.096H1421.44V737.502Z" fill="#584938"/>
<path d="M522.442 708.397C521.472 707.822 521.076 706.564 521.58 705.558C522.047 704.66 523.089 704.301 523.987 704.696C524.957 705.127 526.287 705.702 527.509 705.702C530.024 705.702 531.964 704.696 531.964 702.432C531.964 699.557 530.455 698.695 526.538 698.587C525.424 698.587 524.742 697.904 524.742 696.79C524.742 695.712 525.389 694.994 526.538 694.994C529.988 694.994 531.569 693.844 531.569 691.688C531.569 689.532 530.347 688.813 528.156 688.813C527.006 688.813 525.928 689.388 525.173 689.963C524.346 690.646 522.801 690.646 522.119 689.46C521.544 688.418 521.903 687.34 522.945 686.585C524.418 685.543 527.042 685.04 528.874 685.04C533.222 685.04 536.887 687.016 536.887 691.221C536.887 693.772 535.127 695.712 532.216 696.467C535.809 697.078 537.786 699.234 537.786 702.432C537.786 706.96 534.085 709.727 528.156 709.727C526.143 709.727 523.772 709.331 522.37 708.505L522.442 708.397Z" fill="#584938"/>
<path d="M549.321 709.869C547.74 709.869 545.943 709.546 544.793 708.899C543.679 708.288 543.248 707.174 543.751 706.132C544.218 705.162 545.189 705.018 546.231 705.342C546.878 705.521 547.704 706.06 548.926 706.06C552.124 706.06 553.849 704.12 553.813 701.317C553.813 698.981 552.735 697.795 550.794 697.795C549.968 697.795 549.177 697.939 548.674 698.263C547.884 698.694 546.662 699.053 545.476 698.694C544.147 698.263 543.679 697.544 543.715 696.071C543.787 693.411 543.967 690.752 544.147 688.093C544.254 686.44 545.26 685.542 547.021 685.542H556.759C557.909 685.542 558.592 686.333 558.592 687.411C558.592 688.489 557.909 689.207 556.759 689.207H550.04C549.824 689.207 549.609 689.351 549.609 689.603C549.609 691.076 549.285 693.196 549.213 694.669C550.076 694.382 551.046 694.238 552.196 694.238C556.22 694.238 559.131 696.717 559.275 700.49C559.526 706.671 555.897 709.797 549.321 709.941V709.869Z" fill="#584938"/>
<path d="M831.078 638.183C828.886 637.356 826.622 635.38 826.658 632.613C826.658 629.63 829.461 626.36 835.138 626.36C840.816 626.36 843.403 629.666 843.403 632.397C843.403 634.949 841.643 637.392 838.768 638.254C842.289 639.297 844.338 641.524 844.338 644.471C844.338 648.567 840.996 651.442 834.923 651.442C829.533 651.442 825.652 648.963 825.652 644.723C825.652 642.063 827.449 639.8 831.078 638.147V638.183ZM835.031 647.885C837.366 647.885 838.84 646.411 838.768 644.291C838.696 642.423 837.007 641.417 834.707 640.267L834.384 640.123C832.084 641.776 831.294 643.106 831.294 644.471C831.294 646.375 832.444 647.921 835.031 647.921V647.885ZM835.21 636.242L835.785 636.458C837.51 635.164 838.085 633.906 838.085 632.613C838.085 631.319 837.043 629.81 835.138 629.81C833.234 629.81 832.156 631.391 832.12 632.685C832.12 634.41 833.126 635.416 835.174 636.206L835.21 636.242Z" fill="#584938"/>
<path d="M848.219 648.244C848.219 646.843 848.542 646.304 850.015 645.19C852.387 643.393 854.291 641.884 855.908 640.051C857.705 638.003 858.855 636.278 858.891 634.05C858.891 632.002 857.561 630.78 855.621 630.565C854.255 630.421 852.818 630.924 851.74 631.93C850.842 632.792 849.548 632.792 848.758 631.822C848.003 630.924 848.183 629.666 849.081 628.84C850.59 627.474 853.106 626.432 856.34 626.504C861.011 626.612 864.461 628.983 864.461 633.547C864.461 636.673 861.694 640.159 860.077 641.776C858.46 643.393 856.663 644.938 854.902 646.232C854.543 646.483 854.687 646.735 855.118 646.735H862.88C864.281 646.735 865 647.418 865 648.639C865 649.969 864.245 650.688 862.88 650.688H851.165C848.937 650.688 848.254 649.645 848.219 648.244Z" fill="#584938"/>
<path d="M1124.26 484.026C1122.93 484.817 1121.57 484.206 1121.17 483.2C1120.71 482.122 1121.32 481.044 1122.29 480.469L1128.11 476.983C1129.44 476.157 1130.98 476.157 1131.95 476.516C1133.39 477.019 1133.79 478.169 1133.79 479.498V498.22C1133.79 500.053 1132.85 500.987 1131.05 500.987C1129.37 500.987 1128.36 500.053 1128.36 498.22V481.583L1124.26 483.99V484.026Z" fill="#584938"/>
<path d="M1144.31 500.519C1143.45 500.052 1142.98 499.081 1143.31 498.075C1143.56 497.249 1144.24 496.818 1145.03 496.854C1145.79 496.854 1146.51 497.321 1147.8 497.321C1151.72 497.321 1153.8 494.985 1153.8 491.068C1152.79 492.11 1150.93 492.721 1148.91 492.721C1144.53 492.721 1141.73 489.415 1141.73 484.744C1141.73 479.39 1145.5 476.228 1150.49 476.228C1156.1 476.228 1159.48 479.965 1159.66 485.75C1159.94 495.776 1156.17 501.094 1147.33 501.094C1146.29 501.094 1145 500.914 1144.28 500.555L1144.31 500.519ZM1153.94 487.187C1154.16 486.612 1154.23 485.786 1154.23 485.031C1154.23 482.408 1153.01 479.893 1150.64 479.893C1148.27 479.893 1147.26 481.941 1147.26 484.277C1147.26 487.331 1148.59 488.948 1150.49 488.948C1152.29 488.948 1153.55 488.194 1153.91 487.223L1153.94 487.187Z" fill="#584938"/>
<path d="M1165.44 499.764C1164.47 499.189 1164.08 497.931 1164.58 496.925C1165.05 496.027 1166.09 495.667 1166.99 496.063C1167.96 496.494 1169.29 497.069 1170.51 497.069C1173.03 497.069 1174.97 496.063 1174.97 493.799C1174.97 490.924 1173.46 490.062 1169.54 489.954C1168.43 489.954 1167.74 489.271 1167.74 488.157C1167.74 487.079 1168.39 486.36 1169.54 486.36C1172.99 486.36 1174.57 485.211 1174.57 483.054C1174.57 480.898 1173.35 480.18 1171.16 480.18C1170.01 480.18 1168.93 480.755 1168.17 481.33C1167.35 482.012 1165.8 482.012 1165.12 480.827C1164.55 479.785 1164.9 478.706 1165.95 477.952C1167.42 476.91 1170.04 476.407 1171.88 476.407C1176.22 476.407 1179.89 478.383 1179.89 482.587C1179.89 485.139 1178.13 487.079 1175.22 487.834C1178.81 488.445 1180.79 490.565 1180.79 493.799C1180.79 498.326 1177.09 501.093 1171.16 501.093C1169.14 501.093 1166.77 500.698 1165.37 499.872L1165.44 499.764Z" fill="#584938"/>
<path d="M510.116 609.685C510.116 608.283 510.44 607.744 511.913 606.631C514.285 604.834 516.189 603.325 517.806 601.492C519.603 599.444 520.753 597.719 520.789 595.491C520.789 593.443 519.459 592.221 517.519 592.005C516.153 591.862 514.716 592.365 513.638 593.371C512.74 594.233 511.446 594.233 510.655 593.263C509.901 592.365 510.08 591.107 510.979 590.281C512.488 588.915 515.003 587.873 518.237 587.945C522.909 588.053 526.358 590.424 526.358 594.952C526.358 598.078 523.592 601.564 521.975 603.181C520.358 604.798 518.561 606.343 516.8 607.637C516.441 607.888 516.584 608.14 517.016 608.14H524.777C526.179 608.14 526.897 608.823 526.897 610.044C526.897 611.374 526.143 612.092 524.777 612.092H513.063C510.835 612.092 510.152 611.05 510.116 609.685Z" fill="#584938"/>
<path d="M533.832 612.201C532.97 611.734 532.503 610.764 532.826 609.757C533.078 608.931 533.76 608.5 534.551 608.536C535.306 608.536 536.024 609.003 537.318 609.003C541.235 609.003 543.319 606.667 543.319 602.75C542.313 603.792 540.444 604.403 538.432 604.403C534.048 604.403 531.245 601.097 531.245 596.426C531.245 591.072 535.018 587.91 540.013 587.91C545.618 587.91 548.996 591.647 549.176 597.432C549.464 607.458 545.69 612.776 536.851 612.776C535.808 612.776 534.515 612.596 533.796 612.237L533.832 612.201ZM543.462 598.87C543.678 598.295 543.75 597.468 543.75 596.713C543.75 594.09 542.528 591.575 540.157 591.575C537.785 591.575 536.779 593.623 536.779 595.959C536.779 599.013 538.108 600.63 540.013 600.63C541.809 600.63 543.067 599.876 543.427 598.905L543.462 598.87Z" fill="#584938"/>
<path d="M554.962 611.446C553.992 610.871 553.597 609.613 554.1 608.607C554.567 607.709 555.609 607.349 556.543 607.745C557.514 608.176 558.843 608.751 560.065 608.751C562.58 608.751 564.521 607.745 564.521 605.481C564.521 602.606 563.011 601.744 559.094 601.636C557.981 601.636 557.298 600.953 557.298 599.839C557.298 598.761 557.945 598.043 559.094 598.043C562.544 598.043 564.125 596.893 564.125 594.737C564.125 592.581 562.904 591.862 560.712 591.862C559.562 591.862 558.484 592.437 557.729 593.012C556.903 593.695 555.357 593.695 554.675 592.509C554.1 591.467 554.459 590.389 555.501 589.634C556.974 588.592 559.598 588.089 561.43 588.089C565.778 588.089 569.443 590.065 569.443 594.269C569.443 596.821 567.683 598.761 564.772 599.516C568.366 600.127 570.342 602.247 570.342 605.481C570.342 610.009 566.641 612.775 560.712 612.775C558.699 612.775 556.328 612.38 554.926 611.554L554.962 611.446Z" fill="#584938"/>
<path d="M802.367 403.677C801.037 404.467 799.672 403.856 799.277 402.85C798.809 401.772 799.42 400.694 800.39 400.119L806.212 396.633C807.541 395.807 809.086 395.807 810.057 396.166C811.494 396.669 811.889 397.819 811.889 399.149V417.87C811.889 419.703 810.955 420.637 809.158 420.637C807.469 420.637 806.463 419.703 806.463 417.87V401.233L802.367 403.641V403.677Z" fill="#584938"/>
<path d="M820.478 422.833C820.837 421.288 821.268 418.305 821.448 416.58C821.627 414.963 822.741 414.101 824.215 414.316C825.904 414.604 826.55 416.005 826.263 417.479C825.904 419.239 824.466 422.33 823.532 423.731C822.921 424.701 822.31 425.097 821.34 424.737C820.549 424.45 820.334 423.695 820.513 422.833H820.478Z" fill="#584938"/>
<path d="M830.467 407.954C830.467 400.732 833.845 395.917 840.026 395.917C846.206 395.917 849.189 400.48 849.153 408.062C849.153 415.393 846.53 420.711 839.846 420.711C833.162 420.711 830.467 415.249 830.467 407.918V407.954ZM843.224 407.99C843.152 402.492 842.397 399.51 839.882 399.546C837.438 399.546 836.468 402.492 836.468 407.954C836.468 413.632 837.295 417.01 839.918 416.974C842.577 416.974 843.26 413.56 843.188 407.99H843.224Z" fill="#584938"/>
<path d="M856.698 403.677C855.369 404.467 854.003 403.856 853.608 402.85C853.141 401.772 853.752 400.694 854.722 400.119L860.543 396.633C861.873 395.807 863.418 395.807 864.388 396.166C865.826 396.669 866.221 397.819 866.221 399.149V417.87C866.221 419.703 865.287 420.637 863.49 420.637C861.801 420.637 860.795 419.703 860.795 417.87V401.233L856.698 403.641V403.677Z" fill="#584938"/>
<path d="M873.803 407.954C873.803 400.732 877.181 395.917 883.362 395.917C889.542 395.917 892.525 400.48 892.489 408.062C892.489 415.393 889.865 420.711 883.182 420.711C876.498 420.711 873.803 415.249 873.803 407.918V407.954ZM886.559 407.99C886.488 402.492 885.733 399.51 883.218 399.546C880.774 399.546 879.804 402.492 879.804 407.954C879.804 413.632 880.63 417.01 883.254 416.974C885.913 416.974 886.595 413.56 886.523 407.99H886.559Z" fill="#584938"/>
<path d="M1107.95 279.848C1106.62 280.639 1105.25 280.028 1104.86 279.022C1104.39 277.944 1105 276.866 1105.97 276.291L1111.79 272.805C1113.12 271.979 1114.67 271.979 1115.64 272.338C1117.08 272.841 1117.47 273.991 1117.47 275.321V294.042C1117.47 295.875 1116.54 296.809 1114.74 296.809C1113.05 296.809 1112.04 295.875 1112.04 294.042V277.405L1107.95 279.812V279.848Z" fill="#584938"/>
<path d="M1126.06 299.004C1126.42 297.459 1126.85 294.476 1127.03 292.752C1127.21 291.135 1128.32 290.272 1129.8 290.488C1131.49 290.775 1132.13 292.177 1131.85 293.65C1131.49 295.411 1130.05 298.501 1129.11 299.902C1128.5 300.873 1127.89 301.268 1126.92 300.909C1126.13 300.621 1125.92 299.867 1126.1 299.004H1126.06Z" fill="#584938"/>
<path d="M1143.63 297.026C1142.05 297.026 1140.25 296.703 1139.1 296.056C1137.99 295.445 1137.56 294.331 1138.06 293.289C1138.56 292.319 1139.53 292.175 1140.54 292.498C1141.19 292.678 1142.01 293.217 1143.24 293.217C1146.43 293.217 1148.16 291.277 1148.12 288.474C1148.12 286.138 1147.04 284.952 1145.1 284.952C1144.28 284.952 1143.49 285.096 1142.98 285.419C1142.19 285.886 1140.97 286.21 1139.79 285.851C1138.46 285.419 1137.99 284.701 1138.03 283.227C1138.1 280.568 1138.28 277.873 1138.46 275.25C1138.56 273.597 1139.57 272.699 1141.33 272.699H1151.07C1152.22 272.699 1152.9 273.489 1152.9 274.567C1152.9 275.645 1152.22 276.364 1151.07 276.364H1144.35C1144.13 276.364 1143.92 276.508 1143.92 276.759C1143.92 278.233 1143.59 280.353 1143.52 281.826C1144.39 281.538 1145.36 281.395 1146.51 281.395C1150.53 281.395 1153.44 283.874 1153.58 287.647C1153.84 293.828 1150.21 296.954 1143.63 297.098V297.026Z" fill="#584938"/>
<path d="M1163.14 283.767C1160.95 282.94 1158.69 281 1158.72 278.197C1158.72 275.214 1161.53 271.944 1167.2 271.944C1172.88 271.944 1175.47 275.25 1175.47 277.981C1175.47 280.533 1173.71 282.976 1170.83 283.838C1174.35 284.881 1176.4 287.108 1176.4 290.055C1176.4 294.151 1173.06 297.026 1166.99 297.026C1161.6 297.026 1157.72 294.547 1157.72 290.342C1157.72 287.683 1159.51 285.42 1163.14 283.767ZM1167.13 293.469C1169.47 293.469 1170.94 291.995 1170.87 289.875C1170.8 288.007 1169.11 287.001 1166.81 285.851L1166.49 285.707C1164.19 287.36 1163.39 288.69 1163.39 290.055C1163.39 291.96 1164.54 293.505 1167.13 293.505V293.469ZM1167.28 281.826L1167.85 282.042C1169.58 280.748 1170.15 279.49 1170.15 278.197C1170.15 276.975 1169.11 275.43 1167.2 275.43C1165.3 275.43 1164.22 277.011 1164.19 278.305C1164.19 280.029 1165.19 281.036 1167.24 281.826H1167.28Z" fill="#584938"/>
<path d="M1198.29 289.658C1198.29 290.772 1197.64 291.455 1196.42 291.455H1194.48V294.402C1194.48 295.947 1193.54 296.881 1191.89 296.881C1190.24 296.881 1189.34 295.947 1189.34 294.402V291.455H1182.65C1181.11 291.455 1179.89 290.952 1179.35 289.766C1178.81 288.509 1179.06 287.538 1179.82 286.209C1182.55 281.358 1184.88 276.974 1186.9 273.416C1187.61 272.159 1188.98 271.691 1190.42 272.374C1191.89 273.057 1192.18 274.315 1191.39 275.716C1189.34 279.381 1187.15 283.226 1184.77 286.963C1184.38 287.574 1184.78 287.862 1185.57 287.862H1189.34V281.214C1189.34 279.633 1190.2 278.735 1191.89 278.735C1193.58 278.735 1194.48 279.633 1194.48 281.214V287.862H1196.42C1197.64 287.862 1198.29 288.616 1198.29 289.658Z" fill="#584938"/>
<path d="M594.095 794.532L591.687 791.478C595.065 788.926 597.365 785.549 598.551 781.272L602.252 781.955C601.928 783.069 601.605 784.075 601.21 785.046H621.872V788.495H611.451V792.915H620.686V796.257H611.451V802.581H622.914V806.067H611.451V813.361H607.857V806.067H592.442V802.581H597.724V792.879H607.857V788.459H599.485C598.047 790.867 596.215 792.843 594.059 794.496L594.095 794.532ZM607.857 802.617V796.293H601.317V802.617H607.857Z" fill="#584938"/>
<path d="M465.128 812.929C465.128 812.929 464.697 812.642 464.301 812.246C463.906 811.887 463.547 811.456 463.188 810.989C462.828 810.522 462.577 810.162 462.469 809.911C462.361 809.695 462.361 809.336 462.469 808.797C462.613 808.258 462.757 808.006 462.936 808.006C463.044 808.078 463.223 807.934 463.439 807.575C463.655 807.216 463.835 806.82 464.05 806.389C464.266 805.958 464.337 805.706 464.337 805.635C464.373 805.491 464.481 805.347 464.661 805.239C464.841 805.132 465.02 805.024 465.164 804.916C465.38 804.593 465.631 804.269 465.99 803.91C466.35 803.55 466.601 803.263 466.817 803.011C467.14 802.616 467.715 802.005 468.578 801.179C469.44 800.352 470.267 799.526 471.093 798.663C471.955 797.729 472.71 796.903 473.357 796.184C474.004 795.465 474.363 794.962 474.399 794.675C474.686 794.387 474.938 794.172 475.118 794.064C475.297 793.956 475.585 793.74 475.944 793.453C476.304 793.166 476.591 792.914 476.843 792.662C476.914 792.339 477.13 791.944 477.417 791.549C477.705 791.117 478.064 790.686 478.495 790.291C478.819 789.788 479.142 789.249 479.394 788.674C479.681 788.099 479.861 787.632 479.933 787.344C480.041 786.913 480.005 786.626 479.825 786.518C479.609 786.41 479.07 786.23 478.172 785.943C477.202 785.619 476.268 785.548 475.405 785.763C474.543 785.979 473.393 786.59 471.991 787.596C471.416 787.704 470.913 787.883 470.446 788.099C469.979 788.314 469.584 788.386 469.26 788.35C469.081 788.279 468.901 788.099 468.721 787.811C468.542 787.524 468.29 787.272 468.039 787.021L467.428 784.398L469.332 783.356C470.985 782.314 472.602 781.487 474.112 780.948C475.621 780.409 476.986 780.301 478.1 780.661C478.531 780.661 479.142 780.768 479.861 780.948C480.184 780.912 480.652 781.056 481.298 781.451C481.945 781.81 482.556 782.278 483.203 782.853C483.85 783.427 484.281 784.002 484.532 784.577C485.179 785.548 485.431 786.733 485.251 788.135C485.071 789.536 484.496 790.974 483.49 792.483C483.275 792.734 482.843 793.237 482.161 793.992C481.478 794.783 480.687 795.645 479.825 796.579C478.963 797.549 478.172 798.376 477.453 799.131C476.735 799.849 476.268 800.316 476.088 800.532C475.8 800.64 475.333 801.035 474.65 801.682C473.968 802.329 473.249 803.047 472.53 803.838C471.776 804.628 471.129 805.311 470.626 805.922C470.123 806.497 469.907 806.82 469.979 806.82C469.943 806.964 470.159 806.964 470.626 806.82C471.093 806.677 471.524 806.497 471.884 806.353C472.495 806.138 473.213 805.958 474.04 805.778C474.866 805.599 475.729 805.455 476.591 805.311C477.453 805.203 478.172 805.096 478.819 805.06C479.466 805.024 479.825 805.06 479.933 805.167C480.005 805.383 480.113 805.419 480.22 805.275C480.292 804.988 480.831 804.916 481.766 805.024C482.736 805.132 483.598 805.311 484.353 805.563C484.784 805.671 485.143 805.85 485.431 806.066C485.682 806.281 485.826 806.461 485.826 806.605C486.042 806.964 486.257 807.288 486.509 807.575C487.156 808.114 487.156 808.689 486.509 809.3C485.862 809.911 484.748 810.054 483.131 809.803C482.089 809.803 481.19 809.875 480.508 809.983C480.328 810.054 480.005 810.09 479.466 810.09C478.927 810.09 478.424 810.09 477.957 810.162C477.238 810.09 476.483 810.126 475.764 810.27C475.046 810.414 474.147 810.665 473.141 810.989C472.782 811.097 472.207 811.276 471.417 811.528C470.626 811.779 469.799 812.031 468.901 812.246C468.003 812.498 467.212 812.678 466.494 812.785C465.775 812.893 465.308 812.929 465.128 812.893V812.929Z" fill="#B8C318"/>
<path d="M503.685 813.218C503.398 813.218 502.895 813.11 502.14 812.93C501.386 812.75 500.631 812.463 499.805 812.175C499.014 811.888 498.403 811.529 497.936 811.169C496.535 809.984 495.564 808.69 494.954 807.217C494.343 805.779 493.983 804.306 493.876 802.797C493.768 801.288 493.84 799.85 494.019 798.521C494.45 795.933 495.421 793.31 496.822 790.723C498.26 788.136 499.948 785.98 501.961 784.291C503.003 783.356 504.081 782.566 505.123 781.919C506.165 781.272 507.315 780.805 508.536 780.518C508.968 780.41 509.615 780.338 510.477 780.302C511.339 780.266 511.878 780.302 512.166 780.302C512.992 780.302 513.891 780.482 514.897 780.805C515.903 781.165 516.766 781.56 517.484 782.027C518.203 782.494 518.598 782.925 518.598 783.357C518.598 783.644 518.598 783.931 518.526 784.219C518.454 784.506 518.311 784.578 517.987 784.399H517.376L517.987 786.231C518.167 786.555 518.275 786.986 518.418 787.561C518.526 788.1 518.598 788.603 518.598 789.07C518.598 789.465 518.562 790.076 518.454 790.867C518.346 791.657 518.203 792.52 518.023 793.418C517.843 794.316 517.664 795.143 517.484 795.933C517.305 796.724 517.125 797.263 516.981 797.658C516.873 797.91 516.801 798.125 516.765 798.377C516.73 798.628 516.765 798.808 516.765 798.952C516.586 799.275 516.334 799.85 515.975 800.677C515.615 801.503 515.328 802.078 515.184 802.401C515.005 802.581 514.897 802.689 514.789 802.833C514.681 802.976 514.717 803.084 514.897 803.264C514.897 803.372 514.789 803.659 514.609 804.09C514.394 804.522 514.178 804.917 513.963 805.276C513.747 805.635 513.567 805.815 513.46 805.815C513.244 805.851 513.172 805.923 513.172 806.067C513.172 806.21 512.885 806.642 512.346 807.36C511.807 808.043 511.16 808.762 510.405 809.516C510.01 809.912 509.363 810.451 508.465 811.061C507.566 811.708 506.668 812.247 505.806 812.714C504.943 813.182 504.26 813.433 503.829 813.433L503.685 813.218ZM503.578 807.36C504.009 807.36 504.44 807.288 504.871 807.145C505.267 807.001 505.626 806.785 505.913 806.498C506.632 805.995 507.351 805.348 508.034 804.557C508.716 803.767 509.255 802.797 509.722 801.755C510.154 801.144 510.513 800.497 510.8 799.814C511.052 799.131 511.483 797.982 512.058 796.365C512.382 795.933 512.597 795.358 512.741 794.712C512.849 794.065 512.921 793.526 512.921 793.059C512.921 792.592 512.921 792.017 512.921 791.226C512.921 790.471 513.028 789.789 513.208 789.286C513.208 788.243 513.208 787.597 513.136 787.417C513.1 787.237 512.92 786.986 512.633 786.662C512.453 786.555 512.274 786.411 511.986 786.303C511.735 786.195 511.447 786.123 511.16 786.123C510.872 786.123 510.513 786.195 510.046 786.339C509.579 786.483 509.183 786.662 508.86 786.842C508.573 786.986 508.249 787.022 507.926 786.914C507.602 786.806 507.423 786.626 507.423 786.411C507.423 785.836 507.135 785.872 506.596 786.519C506.057 787.166 505.339 788.028 504.44 789.106C503.722 789.825 503.075 790.579 502.572 791.334C502.068 792.088 501.817 792.556 501.817 792.699C501.817 792.843 501.745 793.059 501.637 793.31C501.529 793.562 501.386 793.849 501.278 794.173C501.062 794.46 500.847 794.927 500.559 795.574C500.272 796.221 499.984 796.868 499.733 797.514C499.481 798.161 499.302 798.628 499.23 798.952V802.258C499.23 802.94 499.23 803.444 499.302 803.803C499.338 804.126 499.409 804.378 499.517 804.593C499.625 804.809 499.769 805.097 499.984 805.492C500.128 805.779 500.415 806.103 500.739 806.498C501.098 806.893 501.314 807.145 501.458 807.324C501.889 807.72 502.212 807.899 502.356 807.792C502.5 807.684 502.967 807.54 503.721 807.396L503.578 807.36Z" fill="#B8C318"/>
<path d="M526.216 812.929C526.216 812.929 525.784 812.642 525.389 812.246C524.994 811.887 524.635 811.456 524.275 810.989C523.916 810.522 523.664 810.162 523.557 809.911C523.449 809.695 523.449 809.336 523.557 808.797C523.7 808.258 523.844 808.006 524.024 808.006C524.132 808.078 524.311 807.934 524.527 807.575C524.742 807.216 524.922 806.82 525.138 806.389C525.353 805.958 525.425 805.706 525.425 805.635C525.461 805.491 525.569 805.347 525.749 805.239C525.928 805.132 526.108 805.024 526.252 804.916C526.467 804.593 526.719 804.269 527.078 803.91C527.437 803.55 527.689 803.263 527.905 803.011C528.228 802.616 528.803 802.005 529.665 801.179C530.528 800.352 531.354 799.526 532.181 798.663C533.043 797.729 533.798 796.903 534.445 796.184C535.091 795.465 535.451 794.962 535.487 794.675C535.774 794.387 536.026 794.172 536.205 794.064C536.385 793.956 536.673 793.74 537.032 793.453C537.391 793.166 537.679 792.914 537.93 792.662C538.002 792.339 538.218 791.944 538.505 791.549C538.793 791.117 539.152 790.686 539.583 790.291C539.906 789.788 540.23 789.249 540.481 788.674C540.769 788.099 540.949 787.632 541.02 787.344C541.128 786.913 541.092 786.626 540.913 786.518C540.697 786.41 540.158 786.23 539.26 785.943C538.29 785.619 537.355 785.548 536.493 785.763C535.63 785.979 534.48 786.59 533.079 787.596C532.504 787.704 532.001 787.883 531.534 788.099C531.067 788.314 530.671 788.386 530.348 788.35C530.168 788.279 529.989 788.099 529.809 787.811C529.629 787.524 529.378 787.272 529.126 787.021L528.516 784.398L530.42 783.356C532.073 782.314 533.69 781.487 535.199 780.948C536.708 780.409 538.074 780.301 539.188 780.661C539.619 780.661 540.23 780.768 540.949 780.948C541.272 780.912 541.739 781.056 542.386 781.451C543.033 781.81 543.644 782.278 544.29 782.853C544.937 783.427 545.368 784.002 545.62 784.577C546.267 785.548 546.518 786.733 546.339 788.135C546.159 789.536 545.584 790.974 544.578 792.483C544.362 792.734 543.931 793.237 543.248 793.992C542.566 794.783 541.775 795.645 540.913 796.579C540.05 797.549 539.26 798.376 538.541 799.131C537.822 799.849 537.355 800.316 537.176 800.532C536.888 800.64 536.421 801.035 535.738 801.682C535.055 802.329 534.337 803.047 533.618 803.838C532.864 804.628 532.217 805.311 531.714 805.922C531.21 806.497 530.995 806.82 531.067 806.82C531.031 806.964 531.246 806.964 531.714 806.82C532.181 806.677 532.612 806.497 532.971 806.353C533.582 806.138 534.301 805.958 535.127 805.778C535.954 805.599 536.816 805.455 537.679 805.311C538.541 805.203 539.26 805.096 539.907 805.06C540.553 805.024 540.913 805.06 541.02 805.167C541.092 805.383 541.2 805.419 541.308 805.275C541.38 804.988 541.919 804.916 542.853 805.024C543.823 805.132 544.686 805.311 545.44 805.563C545.871 805.671 546.231 805.85 546.518 806.066C546.77 806.281 546.914 806.461 546.914 806.605C547.129 806.964 547.345 807.288 547.596 807.575C548.243 808.114 548.243 808.689 547.596 809.3C546.95 809.911 545.836 810.054 544.219 809.803C543.177 809.803 542.278 809.875 541.595 809.983C541.416 810.054 541.092 810.09 540.553 810.09C540.014 810.09 539.511 810.09 539.044 810.162C538.325 810.09 537.571 810.126 536.852 810.27C536.133 810.414 535.235 810.665 534.229 810.989C533.87 811.097 533.295 811.276 532.504 811.528C531.714 811.779 530.887 812.031 529.989 812.246C529.09 812.498 528.3 812.678 527.581 812.785C526.863 812.893 526.395 812.929 526.216 812.893V812.929Z" fill="#B8C318"/>
<path d="M569.049 814.512C569.049 814.512 568.618 814.619 568.151 814.583C567.684 814.548 567.181 814.44 566.677 814.26C566.174 814.08 565.779 813.865 565.492 813.613C565.312 813.469 565.168 813.254 564.988 813.038C564.809 812.823 564.773 812.427 564.773 811.852C564.773 811.278 564.917 810.379 565.168 809.121C565.312 808.295 565.528 807.469 565.779 806.57C566.031 805.672 566.354 804.558 566.749 803.264C566.965 803.192 567.252 802.582 567.648 801.432C568.043 800.282 568.474 798.916 568.977 797.263C569.157 796.688 569.408 795.754 569.84 794.389C570.271 793.023 570.666 791.729 571.061 790.472C571.421 789.286 571.924 788.064 572.606 786.735C571.636 787.31 570.738 787.849 569.983 788.316C569.193 788.819 568.402 789.358 567.54 790.041C566.857 790.436 566.066 791.011 565.204 791.73C564.342 792.448 563.515 793.023 562.797 793.49C561.683 794.353 560.964 794.892 560.569 795.143C560.173 795.395 559.814 795.395 559.455 795.215C558.916 794.784 558.413 794.101 557.945 793.239C557.478 792.376 557.371 791.729 557.622 791.298C557.694 791.262 557.981 791.083 558.448 790.759C558.916 790.436 559.455 790.041 560.066 789.609C560.676 789.178 561.251 788.747 561.755 788.388C562.258 788.028 562.617 787.777 562.833 787.669C562.94 787.669 563.192 787.525 563.515 787.238C563.839 786.95 564.198 786.699 564.557 786.447C564.773 786.196 565.456 785.657 566.713 784.794C567.935 783.932 569.265 782.998 570.666 781.92C572.175 780.985 573.505 780.231 574.691 779.656C575.876 779.081 576.559 778.829 576.703 778.865C576.811 778.865 577.134 779.009 577.601 779.296C578.068 779.584 578.536 779.907 578.967 780.267C579.398 780.626 579.65 780.949 579.686 781.165C579.937 781.452 579.793 782.099 579.326 783.105C579.146 783.465 578.895 784.147 578.536 785.082C578.176 786.016 577.781 787.13 577.35 788.388C576.919 789.645 576.523 790.867 576.128 792.053C575.733 793.239 575.409 794.281 575.194 795.143C574.87 796.401 574.583 797.371 574.295 798.09C574.044 798.773 573.792 799.455 573.577 800.066C573.361 800.713 573.11 801.575 572.822 802.653C572.535 803.3 572.247 804.127 571.924 805.133C571.6 806.139 571.349 807.109 571.097 808.079C570.846 809.05 570.666 809.84 570.558 810.451C570.235 811.349 569.983 812.212 569.768 813.074C569.552 813.937 569.373 814.44 569.157 814.583L569.049 814.512Z" fill="#B8C318"/>
<path d="M898.994 794.532L896.586 791.478C899.964 788.926 902.264 785.549 903.449 781.272L907.151 781.955C906.827 783.069 906.504 784.075 906.109 785.046H926.771V788.495H916.35V792.915H925.585V796.257H916.35V802.581H927.813V806.067H916.35V813.361H912.756V806.067H897.341V802.581H902.623V792.879H912.756V788.459H904.384C902.946 790.867 901.114 792.843 898.958 794.496L898.994 794.532ZM912.792 802.617V796.293H906.252V802.617H912.792Z" fill="#584938"/>
<path d="M770.062 812.929C770.062 812.929 769.631 812.642 769.236 812.246C768.841 811.887 768.481 811.456 768.122 810.989C767.763 810.522 767.511 810.162 767.403 809.911C767.296 809.695 767.296 809.336 767.403 808.797C767.547 808.258 767.691 808.006 767.871 808.006C767.978 808.078 768.158 807.934 768.374 807.575C768.589 807.216 768.769 806.82 768.984 806.389C769.2 805.958 769.272 805.706 769.272 805.635C769.308 805.491 769.416 805.347 769.595 805.239C769.775 805.132 769.955 805.024 770.098 804.916C770.314 804.593 770.565 804.269 770.925 803.91C771.284 803.55 771.536 803.263 771.751 803.011C772.075 802.616 772.65 802.005 773.512 801.179C774.375 800.352 775.201 799.526 776.027 798.663C776.89 797.729 777.644 796.903 778.291 796.184C778.938 795.465 779.298 794.962 779.333 794.675C779.621 794.387 779.872 794.172 780.052 794.064C780.232 793.956 780.519 793.74 780.879 793.453C781.238 793.166 781.525 792.914 781.777 792.662C781.849 792.339 782.064 791.944 782.352 791.549C782.639 791.117 782.999 790.686 783.43 790.291C783.753 789.788 784.077 789.249 784.328 788.674C784.616 788.099 784.795 787.632 784.867 787.344C784.975 786.913 784.939 786.626 784.759 786.518C784.544 786.41 784.005 786.23 783.106 785.943C782.136 785.619 781.202 785.548 780.339 785.763C779.477 785.979 778.327 786.59 776.926 787.596C776.351 787.704 775.848 787.883 775.381 788.099C774.913 788.314 774.518 788.386 774.195 788.35C774.015 788.279 773.835 788.099 773.656 787.811C773.476 787.524 773.225 787.272 772.973 787.021L772.362 784.398L774.267 783.356C775.92 782.314 777.537 781.487 779.046 780.948C780.555 780.409 781.921 780.301 783.035 780.661C783.466 780.661 784.077 780.768 784.795 780.948C785.119 780.912 785.586 781.056 786.233 781.451C786.879 781.81 787.49 782.278 788.137 782.853C788.784 783.427 789.215 784.002 789.467 784.577C790.114 785.548 790.365 786.733 790.185 788.135C790.006 789.536 789.431 790.974 788.425 792.483C788.209 792.734 787.778 793.237 787.095 793.992C786.412 794.783 785.622 795.645 784.759 796.579C783.897 797.549 783.106 798.376 782.388 799.131C781.669 799.849 781.202 800.316 781.022 800.532C780.735 800.64 780.268 801.035 779.585 801.682C778.902 802.329 778.183 803.047 777.465 803.838C776.71 804.628 776.063 805.311 775.56 805.922C775.057 806.497 774.842 806.82 774.913 806.82C774.877 806.964 775.093 806.964 775.56 806.82C776.028 806.677 776.459 806.497 776.818 806.353C777.429 806.138 778.147 805.958 778.974 805.778C779.8 805.599 780.663 805.455 781.525 805.311C782.388 805.203 783.106 805.096 783.753 805.06C784.4 805.024 784.759 805.06 784.867 805.167C784.939 805.383 785.047 805.419 785.155 805.275C785.227 804.988 785.766 804.916 786.7 805.024C787.67 805.132 788.532 805.311 789.287 805.563C789.718 805.671 790.078 805.85 790.365 806.066C790.617 806.281 790.76 806.461 790.76 806.605C790.976 806.964 791.192 807.288 791.443 807.575C792.09 808.114 792.09 808.689 791.443 809.3C790.796 809.911 789.682 810.054 788.065 809.803C787.023 809.803 786.125 809.875 785.442 809.983C785.263 810.054 784.939 810.09 784.4 810.09C783.861 810.09 783.358 810.09 782.891 810.162C782.172 810.09 781.418 810.126 780.699 810.27C779.98 810.414 779.082 810.665 778.076 810.989C777.716 811.097 777.141 811.276 776.351 811.528C775.56 811.779 774.734 812.031 773.835 812.246C772.937 812.498 772.147 812.678 771.428 812.785C770.709 812.893 770.242 812.929 770.062 812.893V812.929Z" fill="#B8C318"/>
<path d="M808.583 813.218C808.296 813.218 807.793 813.11 807.038 812.93C806.283 812.75 805.529 812.463 804.702 812.175C803.912 811.888 803.301 811.529 802.834 811.169C801.432 809.984 800.462 808.69 799.851 807.217C799.24 805.779 798.881 804.306 798.773 802.797C798.665 801.288 798.737 799.85 798.917 798.521C799.348 795.933 800.318 793.31 801.72 790.723C803.157 788.136 804.846 785.98 806.858 784.291C807.9 783.356 808.979 782.566 810.021 781.919C811.063 781.272 812.213 780.805 813.434 780.518C813.866 780.41 814.512 780.338 815.375 780.302C816.237 780.266 816.776 780.302 817.064 780.302C817.89 780.302 818.789 780.482 819.795 780.805C820.801 781.165 821.663 781.56 822.382 782.027C823.101 782.494 823.496 782.925 823.496 783.357C823.496 783.644 823.496 783.931 823.424 784.219C823.352 784.506 823.208 784.578 822.885 784.399H822.274L822.885 786.231C823.065 786.555 823.172 786.986 823.316 787.561C823.424 788.1 823.496 788.603 823.496 789.07C823.496 789.465 823.46 790.076 823.352 790.867C823.244 791.657 823.101 792.52 822.921 793.418C822.741 794.316 822.562 795.143 822.382 795.933C822.202 796.724 822.022 797.263 821.879 797.658C821.771 797.91 821.699 798.125 821.663 798.377C821.627 798.628 821.663 798.808 821.663 798.952C821.483 799.275 821.232 799.85 820.873 800.677C820.513 801.503 820.226 802.078 820.082 802.401C819.902 802.581 819.795 802.689 819.687 802.833C819.579 802.976 819.615 803.084 819.795 803.264C819.795 803.372 819.687 803.659 819.507 804.09C819.292 804.522 819.076 804.917 818.86 805.276C818.645 805.635 818.465 805.815 818.357 805.815C818.142 805.851 818.07 805.923 818.07 806.067C818.07 806.21 817.782 806.642 817.243 807.36C816.704 808.043 816.058 808.762 815.303 809.516C814.908 809.912 814.261 810.451 813.362 811.061C812.464 811.708 811.566 812.247 810.703 812.714C809.841 813.182 809.158 813.433 808.727 813.433L808.583 813.218ZM808.475 807.36C808.907 807.36 809.338 807.288 809.769 807.145C810.164 807.001 810.524 806.785 810.811 806.498C811.53 805.995 812.248 805.348 812.931 804.557C813.614 803.767 814.153 802.797 814.62 801.755C815.051 801.144 815.411 800.497 815.698 799.814C815.95 799.131 816.381 797.982 816.956 796.365C817.279 795.933 817.495 795.358 817.639 794.712C817.746 794.065 817.818 793.526 817.818 793.059C817.818 792.592 817.818 792.017 817.818 791.226C817.818 790.471 817.926 789.789 818.106 789.286C818.106 788.243 818.106 787.597 818.034 787.417C817.998 787.237 817.818 786.986 817.531 786.662C817.351 786.555 817.172 786.411 816.884 786.303C816.633 786.195 816.345 786.123 816.057 786.123C815.77 786.123 815.411 786.195 814.944 786.339C814.476 786.483 814.081 786.662 813.758 786.842C813.47 786.986 813.147 787.022 812.824 786.914C812.5 786.806 812.32 786.626 812.32 786.411C812.32 785.836 812.033 785.872 811.494 786.519C810.955 787.166 810.236 788.028 809.338 789.106C808.619 789.825 807.972 790.579 807.469 791.334C806.966 792.088 806.715 792.556 806.715 792.699C806.715 792.843 806.643 793.059 806.535 793.31C806.427 793.562 806.283 793.849 806.176 794.173C805.96 794.46 805.744 794.927 805.457 795.574C805.169 796.221 804.882 796.868 804.631 797.514C804.379 798.161 804.199 798.628 804.127 798.952V802.258C804.127 802.94 804.127 803.444 804.199 803.803C804.235 804.126 804.307 804.378 804.415 804.593C804.523 804.809 804.666 805.097 804.882 805.492C805.026 805.779 805.313 806.103 805.637 806.498C805.996 806.893 806.212 807.145 806.355 807.324C806.786 807.72 807.11 807.899 807.254 807.792C807.397 807.684 807.865 807.54 808.619 807.396L808.475 807.36Z" fill="#B8C318"/>
<path d="M831.15 812.929C831.15 812.929 830.719 812.642 830.324 812.246C829.928 811.887 829.569 811.456 829.21 810.989C828.85 810.522 828.599 810.162 828.491 809.911C828.383 809.695 828.383 809.336 828.491 808.797C828.635 808.258 828.778 808.006 828.958 808.006C829.066 808.078 829.246 807.934 829.461 807.575C829.677 807.216 829.857 806.82 830.072 806.389C830.288 805.958 830.36 805.706 830.36 805.635C830.396 805.491 830.503 805.347 830.683 805.239C830.863 805.132 831.042 805.024 831.186 804.916C831.402 804.593 831.653 804.269 832.012 803.91C832.372 803.55 832.623 803.263 832.839 803.011C833.162 802.616 833.737 802.005 834.6 801.179C835.462 800.352 836.289 799.526 837.115 798.663C837.977 797.729 838.732 796.903 839.379 796.184C840.026 795.465 840.385 794.962 840.421 794.675C840.709 794.387 840.96 794.172 841.14 794.064C841.319 793.956 841.607 793.74 841.966 793.453C842.326 793.166 842.613 792.914 842.865 792.662C842.936 792.339 843.152 791.944 843.439 791.549C843.727 791.117 844.086 790.686 844.517 790.291C844.841 789.788 845.164 789.249 845.416 788.674C845.703 788.099 845.883 787.632 845.955 787.344C846.063 786.913 846.027 786.626 845.847 786.518C845.632 786.41 845.092 786.23 844.194 785.943C843.224 785.619 842.29 785.548 841.427 785.763C840.565 785.979 839.415 786.59 838.013 787.596C837.438 787.704 836.935 787.883 836.468 788.099C836.001 788.314 835.606 788.386 835.283 788.35C835.103 788.279 834.923 788.099 834.743 787.811C834.564 787.524 834.312 787.272 834.061 787.021L833.45 784.398L835.354 783.356C837.007 782.314 838.624 781.487 840.134 780.948C841.643 780.409 843.008 780.301 844.122 780.661C844.553 780.661 845.164 780.768 845.883 780.948C846.206 780.912 846.674 781.056 847.32 781.451C847.967 781.81 848.578 782.278 849.225 782.853C849.872 783.427 850.303 784.002 850.554 784.577C851.201 785.548 851.453 786.733 851.273 788.135C851.093 789.536 850.518 790.974 849.512 792.483C849.297 792.734 848.865 793.237 848.183 793.992C847.5 794.783 846.71 795.645 845.847 796.579C844.985 797.549 844.194 798.376 843.475 799.131C842.757 799.849 842.29 800.316 842.11 800.532C841.822 800.64 841.355 801.035 840.673 801.682C839.99 802.329 839.271 803.047 838.552 803.838C837.798 804.628 837.151 805.311 836.648 805.922C836.145 806.497 835.929 806.82 836.001 806.82C835.965 806.964 836.181 806.964 836.648 806.82C837.115 806.677 837.546 806.497 837.906 806.353C838.517 806.138 839.235 805.958 840.062 805.778C840.888 805.599 841.751 805.455 842.613 805.311C843.475 805.203 844.194 805.096 844.841 805.06C845.488 805.024 845.847 805.06 845.955 805.167C846.027 805.383 846.135 805.419 846.242 805.275C846.314 804.988 846.853 804.916 847.787 805.024C848.758 805.132 849.62 805.311 850.375 805.563C850.806 805.671 851.165 805.85 851.453 806.066C851.704 806.281 851.848 806.461 851.848 806.605C852.064 806.964 852.279 807.288 852.531 807.575C853.178 808.114 853.178 808.689 852.531 809.3C851.884 809.911 850.77 810.054 849.153 809.803C848.111 809.803 847.213 809.875 846.53 809.983C846.35 810.054 846.027 810.09 845.488 810.09C844.949 810.09 844.446 810.09 843.979 810.162C843.26 810.09 842.505 810.126 841.787 810.27C841.068 810.414 840.169 810.665 839.163 810.989C838.804 811.097 838.229 811.276 837.439 811.528C836.648 811.779 835.821 812.031 834.923 812.246C834.025 812.498 833.234 812.678 832.516 812.785C831.797 812.893 831.33 812.929 831.15 812.893V812.929Z" fill="#B8C318"/>
<path d="M861.694 812.929C861.694 812.929 861.263 812.642 860.867 812.246C860.472 811.887 860.113 811.456 859.753 810.989C859.394 810.522 859.143 810.162 859.035 809.911C858.927 809.695 858.927 809.336 859.035 808.797C859.178 808.258 859.322 808.006 859.502 808.006C859.61 808.078 859.789 807.934 860.005 807.575C860.221 807.216 860.4 806.82 860.616 806.389C860.831 805.958 860.903 805.706 860.903 805.635C860.939 805.491 861.047 805.347 861.227 805.239C861.406 805.132 861.586 805.024 861.73 804.916C861.945 804.593 862.197 804.269 862.556 803.91C862.915 803.55 863.167 803.263 863.383 803.011C863.706 802.616 864.281 802.005 865.144 801.179C866.006 800.352 866.832 799.526 867.659 798.663C868.521 797.729 869.276 796.903 869.923 796.184C870.569 795.465 870.929 794.962 870.965 794.675C871.252 794.387 871.504 794.172 871.684 794.064C871.863 793.956 872.151 793.74 872.51 793.453C872.869 793.166 873.157 792.914 873.408 792.662C873.48 792.339 873.696 791.944 873.983 791.549C874.271 791.117 874.63 790.686 875.061 790.291C875.384 789.788 875.708 789.249 875.959 788.674C876.247 788.099 876.427 787.632 876.499 787.344C876.606 786.913 876.571 786.626 876.391 786.518C876.175 786.41 875.636 786.23 874.738 785.943C873.768 785.619 872.833 785.548 871.971 785.763C871.108 785.979 869.958 786.59 868.557 787.596C867.982 787.704 867.479 787.883 867.012 788.099C866.545 788.314 866.15 788.386 865.826 788.35C865.647 788.279 865.467 788.099 865.287 787.811C865.107 787.524 864.856 787.272 864.604 787.021L863.994 784.398L865.898 783.356C867.551 782.314 869.168 781.487 870.677 780.948C872.186 780.409 873.552 780.301 874.666 780.661C875.097 780.661 875.708 780.768 876.427 780.948C876.75 780.912 877.217 781.056 877.864 781.451C878.511 781.81 879.122 782.278 879.769 782.853C880.415 783.427 880.847 784.002 881.098 784.577C881.745 785.548 881.996 786.733 881.817 788.135C881.637 789.536 881.062 790.974 880.056 792.483C879.84 792.734 879.409 793.237 878.726 793.992C878.044 794.783 877.253 795.645 876.391 796.579C875.528 797.549 874.738 798.376 874.019 799.131C873.3 799.849 872.833 800.316 872.654 800.532C872.366 800.64 871.899 801.035 871.216 801.682C870.534 802.329 869.815 803.047 869.096 803.838C868.342 804.628 867.695 805.311 867.192 805.922C866.689 806.497 866.473 806.82 866.545 806.82C866.509 806.964 866.725 806.964 867.192 806.82C867.659 806.677 868.09 806.497 868.449 806.353C869.06 806.138 869.779 805.958 870.605 805.778C871.432 805.599 872.294 805.455 873.157 805.311C874.019 805.203 874.738 805.096 875.385 805.06C876.031 805.024 876.391 805.06 876.499 805.167C876.57 805.383 876.678 805.419 876.786 805.275C876.858 804.988 877.397 804.916 878.331 805.024C879.301 805.132 880.164 805.311 880.918 805.563C881.35 805.671 881.709 805.85 881.997 806.066C882.248 806.281 882.392 806.461 882.392 806.605C882.607 806.964 882.823 807.288 883.074 807.575C883.721 808.114 883.721 808.689 883.074 809.3C882.428 809.911 881.314 810.054 879.697 809.803C878.655 809.803 877.756 809.875 877.074 809.983C876.894 810.054 876.57 810.09 876.031 810.09C875.492 810.09 874.989 810.09 874.522 810.162C873.804 810.09 873.049 810.126 872.33 810.27C871.612 810.414 870.713 810.665 869.707 810.989C869.348 811.097 868.773 811.276 867.982 811.528C867.192 811.779 866.365 812.031 865.467 812.246C864.568 812.498 863.778 812.678 863.059 812.785C862.341 812.893 861.873 812.929 861.694 812.893V812.929Z" fill="#B8C318"/>
<path d="M1203.93 794.532L1201.52 791.478C1204.9 788.926 1207.2 785.549 1208.38 781.272L1212.09 781.955C1211.76 783.069 1211.44 784.075 1211.04 785.046H1231.7V788.495H1221.28V792.915H1230.52V796.257H1221.28V802.581H1232.75V806.067H1221.28V813.361H1217.69V806.067H1202.28V802.581H1207.56V792.879H1217.69V788.459H1209.32C1207.88 790.867 1206.05 792.843 1203.89 794.496L1203.93 794.532ZM1217.69 802.617V796.293H1211.15V802.617H1217.69Z" fill="#584938"/>
<path d="M1074.96 812.929C1074.96 812.929 1074.53 812.642 1074.14 812.246C1073.74 811.887 1073.38 811.456 1073.02 810.989C1072.66 810.522 1072.41 810.162 1072.3 809.911C1072.19 809.695 1072.19 809.336 1072.3 808.797C1072.45 808.258 1072.59 808.006 1072.77 808.006C1072.88 808.078 1073.06 807.934 1073.27 807.575C1073.49 807.216 1073.67 806.82 1073.88 806.389C1074.1 805.958 1074.17 805.706 1074.17 805.635C1074.21 805.491 1074.31 805.347 1074.49 805.239C1074.67 805.132 1074.85 805.024 1075 804.916C1075.21 804.593 1075.46 804.269 1075.82 803.91C1076.18 803.55 1076.44 803.263 1076.65 803.011C1076.97 802.616 1077.55 802.005 1078.41 801.179C1079.27 800.352 1080.1 799.526 1080.93 798.663C1081.79 797.729 1082.54 796.903 1083.19 796.184C1083.84 795.465 1084.2 794.962 1084.23 794.675C1084.52 794.387 1084.77 794.172 1084.95 794.064C1085.13 793.956 1085.42 793.74 1085.78 793.453C1086.14 793.166 1086.42 792.914 1086.68 792.662C1086.75 792.339 1086.96 791.944 1087.25 791.549C1087.54 791.117 1087.9 790.686 1088.33 790.291C1088.65 789.788 1088.98 789.249 1089.23 788.674C1089.52 788.099 1089.69 787.632 1089.77 787.344C1089.87 786.913 1089.84 786.626 1089.66 786.518C1089.44 786.41 1088.9 786.23 1088.01 785.943C1087.04 785.619 1086.1 785.548 1085.24 785.763C1084.38 785.979 1083.23 786.59 1081.83 787.596C1081.25 787.704 1080.75 787.883 1080.28 788.099C1079.81 788.314 1079.42 788.386 1079.09 788.35C1078.91 788.279 1078.73 788.099 1078.56 787.811C1078.38 787.524 1078.12 787.272 1077.87 787.021L1077.26 784.398L1079.17 783.356C1080.82 782.314 1082.44 781.487 1083.95 780.948C1085.45 780.409 1086.82 780.301 1087.93 780.661C1088.37 780.661 1088.98 780.768 1089.69 780.948C1090.02 780.912 1090.49 781.056 1091.13 781.451C1091.78 781.81 1092.39 782.278 1093.04 782.853C1093.68 783.427 1094.11 784.002 1094.37 784.577C1095.01 785.548 1095.26 786.733 1095.08 788.135C1094.91 789.536 1094.33 790.974 1093.32 792.483C1093.11 792.734 1092.68 793.237 1091.99 793.992C1091.31 794.783 1090.52 795.645 1089.66 796.579C1088.8 797.549 1088.01 798.376 1087.29 799.131C1086.57 799.849 1086.1 800.316 1085.92 800.532C1085.63 800.64 1085.17 801.035 1084.48 801.682C1083.8 802.329 1083.08 803.047 1082.36 803.838C1081.61 804.628 1080.96 805.311 1080.46 805.922C1079.96 806.497 1079.74 806.82 1079.81 806.82C1079.78 806.964 1079.99 806.964 1080.46 806.82C1080.93 806.677 1081.36 806.497 1081.72 806.353C1082.33 806.138 1083.05 805.958 1083.87 805.778C1084.7 805.599 1085.56 805.455 1086.42 805.311C1087.29 805.203 1088.01 805.096 1088.65 805.06C1089.3 805.024 1089.66 805.06 1089.77 805.167C1089.84 805.383 1089.95 805.419 1090.05 805.275C1090.13 804.988 1090.66 804.916 1091.6 805.024C1092.57 805.132 1093.43 805.311 1094.19 805.563C1094.62 805.671 1094.98 805.85 1095.26 806.066C1095.52 806.281 1095.66 806.461 1095.66 806.605C1095.88 806.964 1096.09 807.288 1096.34 807.575C1096.99 808.114 1096.99 808.689 1096.34 809.3C1095.7 809.911 1094.58 810.054 1092.96 809.803C1091.92 809.803 1091.02 809.875 1090.34 809.983C1090.16 810.054 1089.84 810.09 1089.3 810.09C1088.76 810.09 1088.26 810.09 1087.79 810.162C1087.07 810.09 1086.32 810.126 1085.6 810.27C1084.88 810.414 1083.98 810.665 1082.98 810.989C1082.62 811.097 1082.04 811.276 1081.25 811.528C1080.46 811.779 1079.63 812.031 1078.73 812.246C1077.84 812.498 1077.05 812.678 1076.33 812.785C1075.61 812.893 1075.14 812.929 1074.96 812.893V812.929Z" fill="#B8C318"/>
<path d="M1113.52 813.218C1113.23 813.218 1112.73 813.11 1111.97 812.93C1111.22 812.75 1110.46 812.463 1109.64 812.175C1108.85 811.888 1108.24 811.529 1107.77 811.169C1106.37 809.984 1105.4 808.69 1104.79 807.217C1104.18 805.779 1103.82 804.306 1103.71 802.797C1103.6 801.288 1103.67 799.85 1103.85 798.521C1104.28 795.933 1105.25 793.31 1106.66 790.723C1108.09 788.136 1109.78 785.98 1111.79 784.291C1112.84 783.356 1113.91 782.566 1114.96 781.919C1116 781.272 1117.15 780.805 1118.37 780.518C1118.8 780.41 1119.45 780.338 1120.31 780.302C1121.17 780.266 1121.71 780.302 1122 780.302C1122.83 780.302 1123.72 780.482 1124.73 780.805C1125.74 781.165 1126.6 781.56 1127.32 782.027C1128.04 782.494 1128.43 782.925 1128.43 783.357C1128.43 783.644 1128.43 783.931 1128.36 784.219C1128.29 784.506 1128.14 784.578 1127.82 784.399H1127.21L1127.82 786.231C1128 786.555 1128.11 786.986 1128.25 787.561C1128.36 788.1 1128.43 788.603 1128.43 789.07C1128.43 789.465 1128.4 790.076 1128.29 790.867C1128.18 791.657 1128.04 792.52 1127.86 793.418C1127.68 794.316 1127.5 795.143 1127.32 795.933C1127.14 796.724 1126.96 797.263 1126.81 797.658C1126.71 797.91 1126.64 798.125 1126.6 798.377C1126.56 798.628 1126.6 798.808 1126.6 798.952C1126.42 799.275 1126.17 799.85 1125.81 800.677C1125.45 801.503 1125.16 802.078 1125.02 802.401C1124.84 802.581 1124.73 802.689 1124.62 802.833C1124.52 802.976 1124.55 803.084 1124.73 803.264C1124.73 803.372 1124.62 803.659 1124.44 804.09C1124.23 804.522 1124.01 804.917 1123.8 805.276C1123.58 805.635 1123.4 805.815 1123.29 805.815C1123.08 805.851 1123.01 805.923 1123.01 806.067C1123.01 806.21 1122.72 806.642 1122.18 807.36C1121.64 808.043 1120.99 808.762 1120.24 809.516C1119.84 809.912 1119.2 810.451 1118.3 811.061C1117.4 811.708 1116.5 812.247 1115.64 812.714C1114.78 813.182 1114.09 813.433 1113.66 813.433L1113.52 813.218ZM1113.38 807.36C1113.81 807.36 1114.24 807.288 1114.67 807.145C1115.06 807.001 1115.42 806.785 1115.71 806.498C1116.43 805.995 1117.15 805.348 1117.83 804.557C1118.51 803.767 1119.05 802.797 1119.52 801.755C1119.95 801.144 1120.31 800.497 1120.6 799.814C1120.85 799.131 1121.28 797.982 1121.86 796.365C1122.18 795.933 1122.4 795.358 1122.54 794.712C1122.65 794.065 1122.72 793.526 1122.72 793.059C1122.72 792.592 1122.72 792.017 1122.72 791.226C1122.72 790.471 1122.83 789.789 1123.01 789.286C1123.01 788.243 1123.01 787.597 1122.93 787.417C1122.9 787.237 1122.72 786.986 1122.43 786.662C1122.25 786.555 1122.07 786.411 1121.78 786.303C1121.53 786.195 1121.25 786.123 1120.96 786.123C1120.67 786.123 1120.31 786.195 1119.84 786.339C1119.38 786.483 1118.98 786.662 1118.66 786.842C1118.37 786.986 1118.05 787.022 1117.72 786.914C1117.4 786.806 1117.22 786.626 1117.22 786.411C1117.22 785.836 1116.93 785.872 1116.39 786.519C1115.86 787.166 1115.14 788.028 1114.24 789.106C1113.52 789.825 1112.87 790.579 1112.37 791.334C1111.87 792.088 1111.61 792.556 1111.61 792.699C1111.61 792.843 1111.54 793.059 1111.44 793.31C1111.33 793.562 1111.18 793.849 1111.08 794.173C1110.86 794.46 1110.64 794.927 1110.36 795.574C1110.07 796.221 1109.78 796.868 1109.53 797.514C1109.28 798.161 1109.1 798.628 1109.03 798.952V802.258C1109.03 802.94 1109.03 803.444 1109.1 803.803C1109.14 804.126 1109.21 804.378 1109.31 804.593C1109.42 804.809 1109.57 805.097 1109.78 805.492C1109.93 805.779 1110.21 806.103 1110.54 806.498C1110.9 806.893 1111.11 807.145 1111.26 807.324C1111.69 807.72 1112.01 807.899 1112.15 807.792C1112.3 807.684 1112.76 807.54 1113.52 807.396L1113.38 807.36Z" fill="#B8C318"/>
<path d="M1136.05 812.929C1136.05 812.929 1135.62 812.642 1135.22 812.246C1134.83 811.887 1134.47 811.456 1134.11 810.989C1133.75 810.522 1133.5 810.162 1133.39 809.911C1133.28 809.695 1133.28 809.336 1133.39 808.797C1133.53 808.258 1133.68 808.006 1133.86 808.006C1133.97 808.078 1134.14 807.934 1134.36 807.575C1134.58 807.216 1134.76 806.82 1134.97 806.389C1135.19 805.958 1135.26 805.706 1135.26 805.635C1135.29 805.491 1135.4 805.347 1135.58 805.239C1135.76 805.132 1135.94 805.024 1136.09 804.916C1136.3 804.593 1136.55 804.269 1136.91 803.91C1137.27 803.55 1137.52 803.263 1137.74 803.011C1138.06 802.616 1138.64 802.005 1139.5 801.179C1140.36 800.352 1141.19 799.526 1142.01 798.663C1142.88 797.729 1143.63 796.903 1144.28 796.184C1144.93 795.465 1145.28 794.962 1145.32 794.675C1145.61 794.387 1145.86 794.172 1146.04 794.064C1146.22 793.956 1146.51 793.74 1146.87 793.453C1147.22 793.166 1147.51 792.914 1147.76 792.662C1147.84 792.339 1148.05 791.944 1148.34 791.549C1148.63 791.117 1148.99 790.686 1149.42 790.291C1149.74 789.788 1150.06 789.249 1150.32 788.674C1150.6 788.099 1150.78 787.632 1150.85 787.344C1150.96 786.913 1150.93 786.626 1150.75 786.518C1150.53 786.41 1149.99 786.23 1149.09 785.943C1148.12 785.619 1147.19 785.548 1146.33 785.763C1145.46 785.979 1144.31 786.59 1142.91 787.596C1142.34 787.704 1141.83 787.883 1141.37 788.099C1140.9 788.314 1140.51 788.386 1140.18 788.35C1140 788.279 1139.82 788.099 1139.64 787.811C1139.46 787.524 1139.21 787.272 1138.96 787.021L1138.35 784.398L1140.25 783.356C1141.91 782.314 1143.52 781.487 1145.03 780.948C1146.54 780.409 1147.91 780.301 1149.02 780.661C1149.45 780.661 1150.06 780.768 1150.78 780.948C1151.11 780.912 1151.57 781.056 1152.22 781.451C1152.87 781.81 1153.48 782.278 1154.12 782.853C1154.77 783.427 1155.2 784.002 1155.45 784.577C1156.1 785.548 1156.35 786.733 1156.17 788.135C1155.99 789.536 1155.42 790.974 1154.41 792.483C1154.2 792.734 1153.76 793.237 1153.08 793.992C1152.4 794.783 1151.61 795.645 1150.75 796.579C1149.88 797.549 1149.09 798.376 1148.37 799.131C1147.66 799.849 1147.19 800.316 1147.01 800.532C1146.72 800.64 1146.25 801.035 1145.57 801.682C1144.89 802.329 1144.17 803.047 1143.45 803.838C1142.7 804.628 1142.05 805.311 1141.55 805.922C1141.04 806.497 1140.83 806.82 1140.9 806.82C1140.86 806.964 1141.08 806.964 1141.55 806.82C1142.01 806.677 1142.45 806.497 1142.8 806.353C1143.42 806.138 1144.13 805.958 1144.96 805.778C1145.79 805.599 1146.65 805.455 1147.51 805.311C1148.37 805.203 1149.09 805.096 1149.74 805.06C1150.39 805.024 1150.75 805.06 1150.85 805.167C1150.93 805.383 1151.03 805.419 1151.14 805.275C1151.21 804.988 1151.75 804.916 1152.69 805.024C1153.66 805.132 1154.52 805.311 1155.27 805.563C1155.71 805.671 1156.06 805.85 1156.35 806.066C1156.6 806.281 1156.75 806.461 1156.75 806.605C1156.96 806.964 1157.18 807.288 1157.43 807.575C1158.08 808.114 1158.08 808.689 1157.43 809.3C1156.78 809.911 1155.67 810.054 1154.05 809.803C1153.01 809.803 1152.11 809.875 1151.43 809.983C1151.25 810.054 1150.93 810.09 1150.39 810.09C1149.85 810.09 1149.34 810.09 1148.88 810.162C1148.16 810.09 1147.4 810.126 1146.69 810.27C1145.97 810.414 1145.07 810.665 1144.06 810.989C1143.7 811.097 1143.13 811.276 1142.34 811.528C1141.55 811.779 1140.72 812.031 1139.82 812.246C1138.92 812.498 1138.13 812.678 1137.41 812.785C1136.7 812.893 1136.23 812.929 1136.05 812.893V812.929Z" fill="#B8C318"/>
<path d="M1171.59 813.361C1170.58 813.361 1169.58 813.181 1168.64 812.786C1167.67 812.391 1166.92 811.923 1166.34 811.42C1165.77 810.881 1165.52 810.378 1165.55 809.875C1165.59 809.228 1165.8 808.725 1166.23 808.366C1166.63 808.007 1167.28 807.863 1168.17 808.007C1169.58 808.294 1170.98 808.366 1172.38 808.294C1173.82 808.186 1175.15 807.935 1176.37 807.468C1177.59 807 1178.63 806.425 1179.39 805.635C1180.5 804.593 1181.04 803.659 1181.11 802.904C1181.15 802.149 1180.57 801.395 1179.39 800.604C1178.85 800.245 1178.2 799.885 1177.45 799.562C1176.66 799.239 1175.9 798.987 1175.15 798.808C1174.39 798.628 1173.74 798.556 1173.17 798.592C1172.81 798.628 1172.34 798.592 1171.84 798.376C1171.34 798.161 1170.8 797.945 1170.26 797.658C1170.01 797.37 1169.79 796.903 1169.58 796.256C1169.36 795.609 1169.22 795.214 1169.14 795.034C1169.11 794.819 1169.25 794.603 1169.58 794.316C1169.9 794.028 1170.55 793.597 1171.52 792.986C1172.49 792.375 1173.92 791.585 1175.79 790.579C1177.52 789.644 1178.81 788.926 1179.75 788.423C1180.64 787.92 1181.36 787.524 1181.9 787.201C1182.4 786.913 1182.84 786.59 1183.23 786.267C1183.73 785.692 1183.95 785.26 1183.91 784.973C1183.88 784.685 1183.34 784.434 1182.26 784.254C1181.25 784.182 1180.43 784.146 1179.82 784.254C1179.21 784.326 1178.92 784.434 1178.92 784.578H1178.67C1178.45 784.506 1178.02 784.506 1177.34 784.65C1176.66 784.757 1175.97 784.901 1175.36 785.081C1174.71 785.26 1174.39 785.368 1174.36 785.512C1174.32 785.584 1174.03 785.728 1173.53 785.907C1173.03 786.087 1172.52 786.231 1172.02 786.374C1171.52 786.482 1171.19 786.554 1171.09 786.554C1170.87 786.482 1170.65 786.195 1170.37 785.692C1170.12 785.189 1169.9 784.685 1169.72 784.146C1169.54 783.607 1169.5 783.212 1169.61 783.033C1169.68 782.889 1169.97 782.601 1170.51 782.278C1171.05 781.954 1171.59 781.559 1172.24 781.164C1172.88 780.769 1173.42 780.481 1173.89 780.266C1174.46 780.122 1175.29 779.942 1176.44 779.798C1177.55 779.655 1178.67 779.547 1179.82 779.439C1180.97 779.331 1181.76 779.295 1182.22 779.331C1184.09 779.547 1185.6 780.014 1186.75 780.769C1187.9 781.523 1188.62 782.709 1188.94 784.326C1189.05 784.901 1189.05 785.476 1188.94 786.087C1188.84 786.698 1188.55 787.309 1188.15 787.92C1187.76 788.53 1187.15 789.213 1186.32 789.932C1185.32 790.579 1184.52 791.118 1183.99 791.549C1183.45 791.98 1182.69 792.411 1181.76 792.878C1181.47 793.094 1181.04 793.31 1180.43 793.561C1179.82 793.813 1179.24 794.028 1178.7 794.244C1178.16 794.459 1177.91 794.603 1177.91 794.675C1178.67 794.783 1179.31 794.927 1179.78 794.999C1180.25 795.07 1180.57 795.25 1180.79 795.466C1181.97 795.861 1183.05 796.58 1184.06 797.586C1185.06 798.592 1185.75 799.382 1186.18 799.921C1186.75 801.179 1186.82 802.545 1186.39 804.054C1185.96 805.527 1185.21 806.964 1184.13 808.258C1183.05 809.552 1181.79 810.666 1180.36 811.528C1179.21 812.175 1177.8 812.642 1176.19 812.894C1174.54 813.145 1173.06 813.325 1171.77 813.397L1171.59 813.361Z" fill="#B8C318"/>
</svg>
