<svg width="1668" height="901" viewBox="0 0 1668 901" fill="none" xmlns="http://www.w3.org/2000/svg">
<path d="M1667.44 0.609375H0V900.609H1667.44V0.609375Z" fill="#FDFDFB"/>
<path d="M594.095 794.533L591.687 791.478C595.063 788.951 597.482 785.353 598.551 781.273L602.144 781.956C601.851 782.992 601.503 784.011 601.102 785.01H621.764V788.604H611.343V793.023H620.578V796.365H611.343V802.725H622.806V806.319H611.343V813.506H607.75V806.319H592.334V802.725H597.616V793.023H607.75V788.604H599.413C598.018 790.889 596.215 792.899 594.095 794.533ZM607.857 802.618V796.258H601.317V802.618H607.857Z" fill="#584938"/>
<path d="M465.129 812.928L464.302 812.246C463.895 811.86 463.522 811.439 463.189 810.988C462.915 810.644 462.663 810.284 462.434 809.909C462.308 809.561 462.308 809.18 462.434 808.832C462.434 808.293 462.721 808.041 462.901 808.041C463.081 808.041 463.189 808.041 463.404 807.61C463.62 807.179 463.799 806.819 464.015 806.388C464.144 806.15 464.241 805.897 464.302 805.633C464.355 805.465 464.471 805.324 464.626 805.239L465.165 804.915C465.396 804.546 465.674 804.207 465.991 803.909L466.818 803.01C467.37 802.367 467.958 801.756 468.579 801.178C469.441 800.351 470.267 799.525 471.094 798.662L473.358 796.219C473.803 795.791 474.157 795.277 474.4 794.709C474.608 794.472 474.85 794.266 475.118 794.099L475.945 793.488L476.843 792.698C476.952 792.278 477.148 791.886 477.418 791.548C477.727 791.098 478.089 790.688 478.496 790.326C478.831 789.795 479.131 789.243 479.395 788.673C479.616 788.26 479.797 787.826 479.934 787.379C479.934 786.912 479.934 786.66 479.934 786.552L478.281 785.978C477.389 785.714 476.441 785.714 475.55 785.978C474.241 786.342 473.019 786.965 471.956 787.81C471.428 787.918 470.91 788.074 470.411 788.277C470.046 788.467 469.636 788.554 469.225 788.529C468.994 788.409 468.806 788.221 468.686 787.99C468.487 787.703 468.259 787.438 468.004 787.2L467.393 784.577L469.261 783.534C470.767 782.547 472.383 781.739 474.076 781.126C475.335 780.58 476.741 780.479 478.065 780.839C478.673 780.869 479.275 780.965 479.862 781.126C480.378 781.16 480.875 781.334 481.299 781.63C481.972 782.026 482.599 782.496 483.168 783.031C483.731 783.503 484.184 784.091 484.497 784.756C485.183 785.819 485.44 787.103 485.216 788.349C484.991 789.92 484.386 791.413 483.455 792.698L482.126 794.207L479.754 796.83C478.892 797.764 478.101 798.626 477.382 799.345L476.017 800.747C475.486 801.075 475.002 801.473 474.579 801.932C473.885 802.579 473.166 803.298 472.423 804.089L470.519 806.173C470.016 806.748 469.8 807.071 469.908 807.071C470.016 807.071 469.908 807.071 470.519 807.071L471.777 806.604C472.494 806.364 473.226 806.173 473.969 806.029C474.795 806.029 475.621 805.669 476.484 805.561L478.712 805.311C479.359 805.311 479.718 805.311 479.862 805.311C480.005 805.311 480.041 805.526 480.149 805.311C480.257 805.095 480.76 804.951 481.694 805.059C482.583 805.18 483.46 805.372 484.318 805.633C484.696 805.708 485.052 805.869 485.36 806.101C485.647 806.317 485.791 806.496 485.791 806.64C485.955 807.005 486.173 807.345 486.438 807.646C487.084 808.149 487.12 808.724 486.438 809.335C485.951 809.673 485.394 809.895 484.808 809.982C484.222 810.069 483.624 810.019 483.06 809.837C482.182 809.811 481.303 809.872 480.437 810.017C480.092 810.072 479.74 810.072 479.395 810.017H477.849C477.123 809.91 476.384 809.91 475.657 810.017C474.771 810.195 473.895 810.424 473.034 810.701L471.309 811.239L468.83 811.994C468.027 812.223 467.211 812.403 466.386 812.532C465.989 812.725 465.565 812.858 465.129 812.928Z" fill="#B8C318"/>
<path d="M503.685 813.219C503.162 813.17 502.645 813.074 502.14 812.931C501.347 812.71 500.568 812.447 499.804 812.14C499.133 811.903 498.503 811.563 497.936 811.134C496.653 810.076 495.632 808.735 494.953 807.217C494.354 805.8 493.99 804.295 493.875 802.761C493.729 801.34 493.729 799.907 493.875 798.485C494.387 795.759 495.346 793.137 496.714 790.724C498.647 787.093 501.512 784.042 505.014 781.884C506.069 781.235 507.222 780.761 508.428 780.482C509.049 780.316 509.691 780.243 510.333 780.267H512.057C512.988 780.292 513.91 780.462 514.789 780.77C515.695 781.076 516.563 781.486 517.376 781.991C518.13 782.458 518.49 782.926 518.49 783.321C518.507 783.608 518.507 783.896 518.49 784.184C518.49 784.471 518.274 784.507 517.951 784.364H517.34L517.951 786.196C518.127 786.616 518.271 787.048 518.382 787.489C518.487 787.986 518.547 788.492 518.562 788.999C518.536 789.601 518.477 790.201 518.382 790.796C518.295 791.653 518.163 792.504 517.987 793.347L517.412 795.826C517.287 796.413 517.119 796.989 516.908 797.551C516.773 797.766 516.698 798.015 516.693 798.269C516.676 798.461 516.676 798.654 516.693 798.845C516.693 799.168 516.262 799.743 515.902 800.534C515.543 801.324 515.256 801.935 515.112 802.259L514.717 802.689C514.717 802.689 514.717 802.941 514.717 803.121C514.655 803.407 514.558 803.685 514.429 803.947C514.213 804.379 513.998 804.774 513.782 805.133C513.567 805.493 513.387 805.672 513.279 805.672C513.172 805.672 512.956 805.672 512.956 805.924C512.956 806.175 512.668 806.498 512.129 807.217C511.536 807.96 510.9 808.668 510.225 809.337C509.606 809.913 508.946 810.441 508.249 810.918C507.395 811.509 506.507 812.049 505.589 812.535C505.009 812.892 504.36 813.125 503.685 813.219ZM503.685 807.361C504.114 807.365 504.54 807.291 504.943 807.145C505.337 807.017 505.695 806.796 505.985 806.498C506.775 805.949 507.488 805.296 508.105 804.558C508.787 803.688 509.355 802.735 509.794 801.72C510.224 801.134 510.574 800.493 510.836 799.815C511.123 799.133 511.519 797.983 512.093 796.222C512.428 795.721 512.66 795.159 512.776 794.568C512.879 794.023 512.939 793.47 512.956 792.915C512.956 792.484 512.956 791.873 512.956 791.083C512.951 790.427 513.035 789.775 513.207 789.143C513.207 788.065 513.207 787.454 513.207 787.274C513.093 786.98 512.922 786.711 512.704 786.483L512.057 786.124C511.797 786.009 511.516 785.948 511.231 785.944C510.851 785.962 510.476 786.035 510.117 786.16C509.698 786.282 509.298 786.463 508.931 786.699C508.779 786.77 508.614 786.807 508.446 786.807C508.279 786.807 508.113 786.77 507.961 786.699C507.638 786.699 507.458 786.412 507.458 786.232C507.458 786.052 507.17 785.693 506.631 786.232L504.475 788.855C503.772 789.526 503.145 790.273 502.607 791.083C502.276 791.489 502.02 791.952 501.852 792.449C501.83 792.667 501.756 792.876 501.637 793.059L501.277 793.922C501.007 794.372 500.767 794.841 500.559 795.324L499.732 797.228C499.481 797.875 499.301 798.342 499.193 798.665V801.971C499.167 802.485 499.167 803.002 499.193 803.517C499.217 803.791 499.29 804.059 499.409 804.307L499.876 805.205C500.082 805.572 500.336 805.911 500.631 806.212L501.349 807.038C501.78 807.433 502.068 807.613 502.212 807.505C502.657 807.388 503.117 807.339 503.577 807.361H503.685Z" fill="#B8C318"/>
<path d="M526.217 812.928L525.39 812.246C524.983 811.86 524.61 811.439 524.276 810.988C524.003 810.644 523.751 810.284 523.521 809.909C523.395 809.561 523.395 809.18 523.521 808.832C523.521 808.293 523.809 808.041 523.989 808.041C524.168 808.041 524.276 808.041 524.492 807.61C524.707 807.179 524.887 806.819 525.103 806.388C525.232 806.15 525.329 805.897 525.39 805.633C525.443 805.465 525.559 805.324 525.713 805.239L526.252 804.915C526.484 804.546 526.762 804.207 527.079 803.909L527.905 803.01C528.458 802.367 529.046 801.756 529.666 801.178C530.529 800.351 531.355 799.525 532.181 798.662L534.445 796.219C534.89 795.791 535.245 795.277 535.488 794.709C535.696 794.472 535.938 794.266 536.206 794.099L537.033 793.488L537.931 792.698C538.04 792.278 538.236 791.886 538.506 791.548C538.815 791.098 539.176 790.688 539.584 790.326C539.919 789.795 540.219 789.243 540.482 788.673C540.704 788.26 540.884 787.826 541.021 787.379C541.021 786.912 541.021 786.66 541.021 786.552L539.368 785.978C538.477 785.714 537.529 785.714 536.637 785.978C535.329 786.342 534.107 786.965 533.044 787.81C532.516 787.918 531.998 788.074 531.499 788.277C531.134 788.467 530.724 788.554 530.313 788.529C530.082 788.409 529.894 788.221 529.774 787.99C529.575 787.703 529.346 787.438 529.091 787.2L528.48 784.577L530.349 783.534C531.855 782.547 533.471 781.739 535.164 781.126C536.422 780.58 537.829 780.479 539.153 780.839C539.76 780.869 540.363 780.965 540.949 781.126C541.465 781.16 541.962 781.334 542.387 781.63C543.059 782.026 543.686 782.496 544.255 783.031C544.818 783.503 545.272 784.091 545.585 784.756C546.271 785.819 546.528 787.103 546.304 788.349C546.078 789.92 545.474 791.413 544.543 792.698L543.213 794.207L540.842 796.83C539.979 797.764 539.189 798.626 538.47 799.345L537.104 800.747C536.574 801.075 536.09 801.473 535.667 801.932C534.972 802.579 534.254 803.298 533.511 804.089L531.607 806.173C531.104 806.748 530.888 807.071 530.996 807.071C531.104 807.071 530.996 807.071 531.607 807.071L532.864 806.604C533.581 806.364 534.314 806.173 535.056 806.029C535.883 806.029 536.709 805.669 537.572 805.561L539.799 805.311C540.446 805.311 540.806 805.311 540.949 805.311C541.093 805.311 541.129 805.526 541.237 805.311C541.345 805.095 541.848 804.951 542.782 805.059C543.67 805.18 544.548 805.372 545.405 805.633C545.783 805.708 546.14 805.869 546.447 806.101C546.735 806.317 546.878 806.496 546.878 806.64C547.043 807.005 547.261 807.345 547.525 807.646C548.172 808.149 548.208 808.724 547.525 809.335C547.039 809.673 546.481 809.895 545.895 809.982C545.309 810.069 544.711 810.019 544.147 809.837C543.269 809.811 542.391 809.872 541.524 810.017C541.179 810.072 540.827 810.072 540.482 810.017H538.937C538.21 809.91 537.472 809.91 536.745 810.017C535.859 810.195 534.983 810.424 534.122 810.701L532.397 811.239L529.918 811.994C529.115 812.223 528.299 812.403 527.474 812.532C527.076 812.725 526.653 812.858 526.217 812.928Z" fill="#B8C318"/>
<path d="M564.772 813.219C564.25 813.17 563.732 813.074 563.227 812.931C562.435 812.71 561.655 812.447 560.892 812.14C560.221 811.903 559.591 811.563 559.023 811.134C557.74 810.076 556.719 808.735 556.041 807.217C555.442 805.8 555.077 804.295 554.963 802.761C554.817 801.34 554.817 799.907 554.963 798.485C555.474 795.759 556.434 793.137 557.801 790.724C559.735 787.093 562.6 784.042 566.102 781.884C567.156 781.235 568.309 780.761 569.516 780.482C570.136 780.316 570.778 780.243 571.42 780.267H573.145C574.076 780.292 574.997 780.462 575.876 780.77C576.783 781.076 577.651 781.486 578.463 781.991C579.218 782.458 579.577 782.926 579.577 783.321C579.595 783.608 579.595 783.896 579.577 784.184C579.577 784.471 579.362 784.507 579.038 784.364H578.427L579.038 786.196C579.215 786.616 579.359 787.048 579.47 787.489C579.574 787.986 579.634 788.492 579.649 788.999C579.624 789.601 579.564 790.201 579.47 790.796C579.382 791.653 579.251 792.504 579.074 793.347L578.499 795.826C578.375 796.413 578.206 796.989 577.996 797.551C577.86 797.766 577.786 798.015 577.781 798.269C577.764 798.461 577.764 798.654 577.781 798.845C577.781 799.168 577.349 799.743 576.99 800.534C576.631 801.324 576.343 801.935 576.199 802.259L575.804 802.689C575.804 802.689 575.804 802.941 575.804 803.121C575.742 803.407 575.646 803.685 575.517 803.947C575.301 804.379 575.085 804.774 574.87 805.133C574.654 805.493 574.475 805.672 574.367 805.672C574.259 805.672 574.043 805.672 574.043 805.924C574.043 806.175 573.756 806.498 573.217 807.217C572.624 807.96 571.988 808.668 571.312 809.337C570.694 809.913 570.033 810.441 569.336 810.918C568.482 811.509 567.595 812.049 566.677 812.535C566.096 812.892 565.448 813.125 564.772 813.219ZM564.772 807.361C565.201 807.365 565.627 807.291 566.03 807.145C566.425 807.017 566.783 806.796 567.072 806.498C567.862 805.949 568.576 805.296 569.193 804.558C569.875 803.688 570.442 802.735 570.881 801.72C571.311 801.134 571.662 800.493 571.923 799.815C572.211 799.133 572.606 797.983 573.181 796.222C573.515 795.721 573.748 795.159 573.864 794.568C573.966 794.023 574.026 793.47 574.043 792.915C574.043 792.484 574.043 791.873 574.043 791.083C574.038 790.427 574.123 789.775 574.295 789.143C574.295 788.065 574.295 787.454 574.295 787.274C574.181 786.98 574.01 786.711 573.792 786.483L573.145 786.124C572.885 786.009 572.603 785.948 572.319 785.944C571.939 785.962 571.564 786.035 571.205 786.16C570.786 786.282 570.386 786.463 570.019 786.699C569.867 786.77 569.701 786.807 569.534 786.807C569.366 786.807 569.201 786.77 569.049 786.699C568.725 786.699 568.545 786.412 568.545 786.232C568.545 786.052 568.258 785.693 567.719 786.232L565.563 788.855C564.859 789.526 564.233 790.273 563.695 791.083C563.363 791.489 563.108 791.952 562.94 792.449C562.918 792.667 562.844 792.876 562.724 793.059L562.365 793.922C562.094 794.372 561.854 794.841 561.646 795.324L560.82 797.228C560.568 797.875 560.389 798.342 560.281 798.665V801.971C560.255 802.485 560.255 803.002 560.281 803.517C560.305 803.791 560.378 804.059 560.496 804.307L560.964 805.205C561.17 805.572 561.424 805.911 561.718 806.212L562.437 807.038C562.868 807.433 563.156 807.613 563.299 807.505C563.745 807.388 564.205 807.339 564.665 807.361H564.772Z" fill="#B8C318"/>
<path d="M898.994 794.533L896.586 791.478C899.983 788.971 902.408 785.365 903.449 781.273L907.043 781.956C906.75 782.992 906.402 784.011 906.001 785.01H926.699V788.604H916.278V793.023H925.477V796.365H916.278V802.725H927.705V806.319H916.278V813.506H912.684V806.319H897.269V802.725H902.551V793.023H912.684V788.604H904.348C902.952 790.899 901.136 792.911 898.994 794.533ZM912.756 802.618V796.258H906.216V802.618H912.756Z" fill="#584938"/>
<path d="M770.063 812.928C769.762 812.733 769.485 812.504 769.237 812.245C768.818 811.861 768.433 811.439 768.087 810.987C767.809 810.655 767.568 810.293 767.368 809.909C767.368 809.73 767.368 809.335 767.368 808.832C767.368 808.329 767.656 808.041 767.799 808.041C767.943 808.041 768.087 808.041 768.302 807.61L768.913 806.388C769.06 806.159 769.158 805.902 769.201 805.633C769.28 805.469 769.404 805.333 769.56 805.239L770.063 804.915C770.306 804.554 770.583 804.217 770.89 803.909L771.716 803.01C772.04 802.615 772.65 802.004 773.477 801.178C774.303 800.351 775.166 799.525 775.992 798.662L778.256 796.219C778.714 795.802 779.071 795.285 779.298 794.709C779.515 794.48 779.756 794.275 780.017 794.099C780.308 793.916 780.584 793.713 780.843 793.488L781.742 792.698C781.866 792.284 782.061 791.895 782.317 791.548C782.646 791.115 783.007 790.706 783.395 790.325C783.73 789.795 784.03 789.243 784.293 788.673C784.507 788.252 784.699 787.819 784.868 787.379C784.868 786.911 784.868 786.66 784.868 786.552C784.33 786.326 783.778 786.134 783.215 785.978C782.324 785.712 781.375 785.712 780.484 785.978C779.235 786.354 778.074 786.977 777.07 787.81C776.53 787.918 776.001 788.074 775.489 788.277C775.124 788.467 774.714 788.554 774.303 788.529C774.081 788.398 773.895 788.213 773.765 787.99C773.566 787.703 773.337 787.438 773.082 787.2L772.471 784.577L774.375 783.534C775.869 782.548 777.473 781.739 779.155 781.126C780.426 780.58 781.844 780.479 783.179 780.839C783.775 780.869 784.366 780.965 784.94 781.126C785.456 781.16 785.953 781.334 786.377 781.63C787.056 782.034 787.694 782.503 788.282 783.031C788.824 783.513 789.264 784.1 789.575 784.756C790.255 785.822 790.523 787.099 790.33 788.349C790.091 789.922 789.475 791.415 788.533 792.698C788.533 792.949 787.886 793.452 787.204 794.207L784.832 796.83C783.97 797.764 783.179 798.626 782.46 799.345L781.095 800.747C780.571 801.085 780.089 801.482 779.657 801.932C778.963 802.579 778.244 803.298 777.502 804.088C776.747 804.879 776.136 805.562 775.633 806.173C775.13 806.784 774.914 807.071 774.986 807.071C775.058 807.071 775.166 807.071 775.633 807.071C776.1 807.071 776.495 806.711 776.891 806.604C777.597 806.368 778.317 806.177 779.047 806.029C779.873 806.029 780.736 805.669 781.562 805.561L783.79 805.31C784.437 805.31 784.832 805.31 784.94 805.31C785.048 805.31 785.12 805.526 785.227 805.31C785.335 805.095 785.838 804.951 786.809 805.059C787.684 805.183 788.549 805.375 789.396 805.633C789.782 805.716 790.149 805.875 790.474 806.101C790.725 806.317 790.869 806.496 790.869 806.64C791.046 807.007 791.276 807.346 791.552 807.646C792.199 808.149 792.199 808.724 791.552 809.335C791.067 809.676 790.509 809.898 789.922 809.986C789.336 810.073 788.737 810.022 788.174 809.837C787.296 809.812 786.417 809.873 785.551 810.017C785.206 810.074 784.854 810.074 784.509 810.017H783C782.261 809.909 781.51 809.909 780.772 810.017C779.886 810.199 779.01 810.428 778.148 810.701L776.46 811.239L773.944 811.994C773.153 812.223 772.349 812.402 771.537 812.532C771.07 812.743 770.573 812.877 770.063 812.928Z" fill="#B8C318"/>
<path d="M808.584 813.218C808.062 813.169 807.544 813.073 807.039 812.93C806.247 812.71 805.467 812.446 804.703 812.14C804.033 811.902 803.402 811.563 802.835 811.133C801.552 810.075 800.531 808.734 799.852 807.216C799.253 805.799 798.889 804.294 798.774 802.76C798.687 801.333 798.748 799.9 798.954 798.484C799.436 795.756 800.384 793.13 801.757 790.723C803.719 787.113 806.578 784.069 810.058 781.883C811.167 781.215 812.382 780.741 813.651 780.482C814.284 780.318 814.937 780.245 815.591 780.266H817.28C818.199 780.295 819.108 780.465 819.975 780.769C820.882 781.075 821.75 781.485 822.562 781.99C823.317 782.458 823.676 782.925 823.676 783.32C823.694 783.608 823.694 783.896 823.676 784.183C823.676 784.47 823.461 784.506 823.138 784.363H822.527L823.138 786.195C823.346 786.602 823.491 787.038 823.569 787.488C823.613 787.991 823.613 788.496 823.569 788.998C823.608 789.597 823.608 790.197 823.569 790.795C823.569 791.586 823.317 792.448 823.138 793.346C822.958 794.244 822.778 795.071 822.598 795.825C822.465 796.414 822.285 796.991 822.06 797.55C821.955 797.779 821.882 798.02 821.844 798.269C821.844 798.484 821.844 798.664 821.844 798.844L821.053 800.533C820.694 801.359 820.443 801.934 820.263 802.258L819.867 802.688C819.867 802.688 819.867 802.94 819.867 803.12C819.803 803.411 819.694 803.689 819.544 803.946C819.329 804.378 819.113 804.773 818.897 805.133C818.682 805.492 818.502 805.671 818.394 805.671C818.286 805.671 818.071 805.671 818.071 805.923C818.071 806.175 817.819 806.497 817.244 807.216C816.651 807.959 816.015 808.667 815.34 809.337C814.722 809.912 814.061 810.44 813.363 810.917C812.51 811.508 811.622 812.048 810.704 812.534C810.062 812.927 809.335 813.162 808.584 813.218ZM808.584 807.36C809.024 807.359 809.461 807.286 809.878 807.144C810.258 807.007 810.601 806.786 810.884 806.498C811.674 805.948 812.387 805.296 813.004 804.557C813.699 803.696 814.268 802.741 814.693 801.719C815.121 801.126 815.483 800.487 815.771 799.814C816.023 799.132 816.454 797.982 816.993 796.221C817.356 795.736 817.591 795.167 817.675 794.567C817.795 794.025 817.855 793.47 817.855 792.915C817.855 792.483 817.855 791.872 817.855 791.082C817.862 790.425 817.959 789.773 818.143 789.142C818.183 788.52 818.183 787.896 818.143 787.274C818.028 786.98 817.857 786.71 817.64 786.482L817.029 786.123C816.767 786.013 816.487 785.952 816.202 785.944C815.811 785.961 815.424 786.034 815.052 786.159C814.633 786.281 814.234 786.462 813.867 786.698C813.721 786.768 813.561 786.805 813.399 786.805C813.238 786.805 813.078 786.768 812.932 786.698C812.573 786.698 812.393 786.411 812.393 786.231C812.393 786.052 812.142 785.692 811.567 786.231L809.411 788.854C808.717 789.535 808.091 790.28 807.542 791.082C807.211 791.488 806.956 791.951 806.788 792.448C806.764 792.66 806.703 792.867 806.608 793.058C806.46 793.333 806.34 793.622 806.249 793.921C805.949 794.361 805.696 794.831 805.494 795.323C805.206 795.97 804.955 796.616 804.667 797.227C804.469 797.695 804.301 798.175 804.164 798.664V801.97C804.164 802.653 804.164 803.156 804.164 803.516C804.222 803.783 804.294 804.047 804.38 804.306L804.847 805.205C805.078 805.555 805.33 805.891 805.602 806.211L806.32 807.037C806.752 807.432 807.075 807.612 807.219 807.504C807.628 807.392 808.052 807.344 808.476 807.36H808.584Z" fill="#B8C318"/>
<path d="M831.151 812.928C830.85 812.733 830.573 812.504 830.324 812.245C829.905 811.861 829.52 811.439 829.175 810.987C828.897 810.655 828.656 810.293 828.456 809.909C828.456 809.73 828.456 809.335 828.456 808.832C828.456 808.329 828.743 808.041 828.887 808.041C829.031 808.041 829.175 808.041 829.39 807.61L830.001 806.388C830.148 806.159 830.246 805.902 830.288 805.633C830.367 805.469 830.492 805.333 830.648 805.239L831.151 804.915C831.393 804.554 831.67 804.217 831.977 803.909L832.804 803.01C833.127 802.615 833.738 802.004 834.565 801.178C835.391 800.351 836.254 799.525 837.08 798.662L839.344 796.219C839.802 795.802 840.158 795.285 840.386 794.709C840.602 794.48 840.843 794.275 841.105 794.099C841.395 793.916 841.672 793.713 841.931 793.488L842.829 792.698C842.954 792.284 843.148 791.895 843.404 791.548C843.734 791.115 844.094 790.706 844.482 790.325C844.818 789.795 845.118 789.243 845.381 788.673C845.595 788.252 845.786 787.819 845.956 787.379C845.956 786.911 845.956 786.66 845.956 786.552C845.417 786.326 844.865 786.134 844.303 785.978C843.412 785.712 842.463 785.712 841.572 785.978C840.323 786.354 839.162 786.977 838.158 787.81C837.618 787.918 837.089 788.074 836.577 788.277C836.212 788.467 835.802 788.554 835.391 788.529C835.168 788.398 834.983 788.213 834.852 787.99C834.653 787.703 834.424 787.438 834.169 787.2L833.558 784.577L835.463 783.534C836.957 782.548 838.561 781.739 840.242 781.126C841.513 780.58 842.931 780.479 844.267 780.839C844.863 780.869 845.453 780.965 846.028 781.126C846.544 781.16 847.041 781.334 847.465 781.63C848.144 782.034 848.781 782.503 849.369 783.031C849.912 783.513 850.351 784.1 850.663 784.756C851.342 785.822 851.61 787.099 851.418 788.349C851.179 789.922 850.562 791.415 849.621 792.698C849.621 792.949 848.974 793.452 848.291 794.207L845.92 796.83C845.057 797.764 844.267 798.626 843.548 799.345L842.183 800.747C841.659 801.085 841.176 801.482 840.745 801.932C840.05 802.579 839.332 803.298 838.589 804.088C837.835 804.879 837.224 805.562 836.721 806.173C836.217 806.784 836.002 807.071 836.074 807.071C836.146 807.071 836.253 807.071 836.721 807.071C837.188 807.071 837.583 806.711 837.978 806.604C838.685 806.368 839.405 806.177 840.134 806.029C840.961 806.029 841.823 805.669 842.65 805.561L844.878 805.31C845.524 805.31 845.92 805.31 846.028 805.31C846.135 805.31 846.207 805.526 846.315 805.31C846.423 805.095 846.926 804.951 847.896 805.059C848.772 805.183 849.637 805.375 850.483 805.633C850.87 805.716 851.236 805.875 851.561 806.101C851.813 806.317 851.957 806.496 851.957 806.64C852.133 807.007 852.364 807.346 852.639 807.646C853.286 808.149 853.286 808.724 852.639 809.335C852.154 809.676 851.597 809.898 851.01 809.986C850.424 810.073 849.825 810.022 849.262 809.837C848.384 809.812 847.505 809.873 846.638 810.017C846.293 810.074 845.941 810.074 845.596 810.017H844.087C843.348 809.909 842.598 809.909 841.859 810.017C840.974 810.199 840.098 810.428 839.236 810.701L837.547 811.239L835.032 811.994C834.241 812.223 833.437 812.402 832.624 812.532C832.158 812.743 831.66 812.877 831.151 812.928Z" fill="#B8C318"/>
<path d="M873.948 814.513C873.667 814.602 873.366 814.602 873.085 814.513C872.582 814.471 872.087 814.363 871.612 814.191C871.18 814.052 870.777 813.832 870.426 813.543C870.241 813.368 870.073 813.175 869.923 812.969C869.73 812.605 869.654 812.191 869.708 811.782C869.782 810.853 869.914 809.929 870.103 809.015C870.283 808.225 870.462 807.363 870.714 806.464C870.965 805.566 871.289 804.452 871.684 803.159C871.9 803.159 872.187 802.476 872.582 801.326C872.978 800.176 873.409 798.811 873.912 797.194C873.912 796.619 874.343 795.649 874.738 794.319L875.96 790.402C876.392 789.17 876.909 787.97 877.505 786.809L874.882 788.389C874.091 788.893 873.301 789.467 872.439 790.114C871.603 790.611 870.81 791.177 870.067 791.804C869.316 792.448 868.51 793.025 867.66 793.529C866.581 794.391 865.827 794.93 865.432 795.181C865.265 795.287 865.072 795.343 864.875 795.343C864.677 795.343 864.484 795.287 864.318 795.181C863.7 794.619 863.188 793.949 862.808 793.205C862.329 792.319 862.222 791.672 862.485 791.264L863.311 790.726L864.928 789.54L866.581 788.318L867.66 787.599C867.66 787.599 868.019 787.599 868.342 787.168C868.674 786.885 869.022 786.621 869.384 786.378C870.034 785.758 870.745 785.203 871.504 784.724C872.726 783.862 874.056 782.928 875.493 781.85C876.796 781.028 878.139 780.272 879.518 779.586C880.14 779.213 880.82 778.946 881.53 778.795C881.852 778.885 882.157 779.031 882.428 779.227C882.9 779.526 883.356 779.849 883.794 780.196C884.13 780.42 884.382 780.749 884.513 781.131C884.764 781.418 884.512 782.065 884.153 783.071C884.153 783.431 883.722 784.114 883.363 785.048L882.177 788.354C881.746 789.611 881.35 790.833 880.955 791.947C880.56 793.061 880.236 794.175 880.021 795.038C879.805 795.9 879.374 797.266 879.122 797.984C878.871 798.703 878.619 799.313 878.368 799.96C878.116 800.607 877.901 801.47 877.613 802.548C877.27 803.354 876.982 804.182 876.751 805.027C876.427 806.033 876.14 807.004 875.924 807.974C875.709 808.944 875.493 809.699 875.349 810.309C875.041 811.17 874.778 812.045 874.559 812.933C874.508 813.507 874.297 814.055 873.948 814.513Z" fill="#B8C318"/>
<path d="M1203.89 794.533L1201.52 791.478C1204.9 788.959 1207.31 785.356 1208.35 781.273L1211.94 781.956C1211.66 782.992 1211.33 784.011 1210.94 785.01H1231.6V788.604H1221.18V793.023H1230.38V796.365H1221.18V802.725H1232.6V806.319H1221.18V813.506H1217.58V806.319H1202.17V802.725H1207.45V793.023H1217.58V788.604H1209.18C1207.81 790.901 1206.02 792.914 1203.89 794.533ZM1217.69 802.618V796.258H1211.15V802.618H1217.69Z" fill="#584938"/>
<path d="M1074.96 812.93C1074.67 812.726 1074.39 812.498 1074.14 812.248C1073.73 811.853 1073.34 811.433 1072.99 810.99C1072.71 810.657 1072.47 810.295 1072.27 809.911C1072.14 809.563 1072.14 809.182 1072.27 808.834C1072.27 808.295 1072.55 808.043 1072.73 808.043C1072.91 808.043 1072.99 808.043 1073.2 807.612L1073.81 806.39C1073.96 806.159 1074.07 805.904 1074.14 805.635C1074.19 805.467 1074.3 805.326 1074.46 805.241L1074.96 804.917C1075.21 804.556 1075.48 804.219 1075.79 803.911C1076.09 803.632 1076.36 803.332 1076.62 803.012C1077.18 802.372 1077.78 801.76 1078.41 801.18C1079.24 800.353 1080.1 799.527 1080.89 798.665L1083.16 796.221C1083.61 795.804 1083.97 795.287 1084.2 794.711C1084.42 794.472 1084.67 794.266 1084.95 794.101L1085.78 793.49L1086.64 792.7C1086.77 792.286 1086.96 791.897 1087.22 791.55C1087.55 791.117 1087.91 790.709 1088.29 790.328C1088.64 789.798 1088.95 789.246 1089.23 788.675C1089.43 788.255 1089.61 787.823 1089.77 787.381C1089.77 786.914 1089.77 786.662 1089.77 786.554C1089.24 786.332 1088.7 786.14 1088.15 785.98C1087.25 785.715 1086.29 785.715 1085.38 785.98C1084.14 786.363 1082.98 786.985 1081.97 787.812C1081.44 787.92 1080.92 788.076 1080.42 788.279C1080.05 788.466 1079.62 788.553 1079.2 788.531C1078.99 788.391 1078.8 788.208 1078.66 787.992C1078.46 787.705 1078.24 787.44 1077.98 787.202L1077.37 784.579L1079.27 783.537C1080.78 782.549 1082.4 781.741 1084.09 781.128C1085.35 780.579 1086.75 780.478 1088.08 780.841C1088.67 780.871 1089.26 780.967 1089.84 781.128C1090.36 781.156 1090.85 781.331 1091.28 781.632C1091.96 782.028 1092.6 782.497 1093.18 783.033C1093.73 783.505 1094.18 784.094 1094.47 784.758C1095.17 785.816 1095.44 787.101 1095.23 788.351C1094.99 789.924 1094.37 791.417 1093.43 792.7C1093.43 792.951 1092.79 793.454 1092.1 794.209L1089.77 796.832L1087.36 799.347C1086.64 800.102 1086.21 800.569 1085.99 800.749C1085.47 801.087 1084.99 801.484 1084.56 801.934C1083.87 802.581 1083.19 803.3 1082.44 804.091C1081.68 804.881 1081.04 805.564 1080.53 806.175C1080.03 806.786 1079.81 807.073 1079.89 807.073C1079.96 807.073 1079.89 807.073 1080.53 807.073L1081.79 806.606C1082.5 806.371 1083.22 806.179 1083.95 806.031C1084.77 806.031 1085.63 805.671 1086.5 805.564C1087.36 805.456 1088.08 805.349 1088.73 805.313C1089.37 805.277 1089.73 805.313 1089.84 805.313C1089.95 805.313 1089.84 805.528 1090.16 805.313C1090.49 805.097 1090.74 804.953 1091.71 805.061C1092.58 805.178 1093.45 805.37 1094.29 805.635C1094.69 805.704 1095.06 805.864 1095.37 806.103C1095.62 806.319 1095.77 806.498 1095.77 806.642C1095.96 807.001 1096.19 807.339 1096.45 807.648C1097.1 808.151 1097.1 808.726 1096.45 809.337C1095.94 809.704 1095.34 809.942 1094.72 810.03C1094.09 810.117 1093.45 810.052 1092.86 809.839C1091.98 809.815 1091.1 809.875 1090.23 810.019C1089.89 810.079 1089.54 810.079 1089.19 810.019H1087.68C1086.96 809.911 1086.22 809.911 1085.49 810.019C1084.59 810.197 1083.7 810.425 1082.83 810.703L1081.14 811.241L1078.63 811.996C1077.84 812.225 1077.03 812.405 1076.22 812.535C1075.82 812.725 1075.4 812.858 1074.96 812.93Z" fill="#B8C318"/>
<path d="M1113.48 813.218C1112.96 813.166 1112.44 813.07 1111.94 812.93C1111.16 812.709 1110.39 812.446 1109.64 812.14C1108.96 811.919 1108.33 811.578 1107.77 811.133C1106.47 810.085 1105.43 808.742 1104.75 807.216C1104.15 805.803 1103.79 804.295 1103.71 802.76C1103.55 801.34 1103.55 799.905 1103.71 798.484C1104.19 795.756 1105.14 793.13 1106.51 790.723C1107.82 788.277 1109.57 786.086 1111.65 784.255C1112.63 783.374 1113.69 782.58 1114.81 781.883C1115.93 781.222 1117.14 780.748 1118.41 780.482C1119.04 780.318 1119.69 780.245 1120.35 780.266H1122.04C1122.96 780.292 1123.86 780.462 1124.73 780.769C1125.65 781.083 1126.53 781.492 1127.35 781.99C1128.07 782.458 1128.43 782.925 1128.43 783.32C1128.45 783.608 1128.45 783.896 1128.43 784.183C1128.43 784.47 1128.18 784.506 1127.86 784.363H1127.25L1127.86 786.195C1128.07 786.602 1128.21 787.038 1128.29 787.488C1128.35 787.99 1128.35 788.497 1128.29 788.998C1128.33 789.597 1128.33 790.197 1128.29 790.795C1128.29 791.586 1128.04 792.448 1127.86 793.346C1127.68 794.244 1127.5 795.071 1127.32 795.825C1127.2 796.418 1127.02 796.997 1126.78 797.55C1126.67 797.779 1126.6 798.02 1126.56 798.269V798.844C1126.56 799.168 1126.13 799.742 1125.74 800.533C1125.34 801.323 1125.13 801.934 1124.95 802.258L1124.55 802.688C1124.55 802.688 1124.55 802.94 1124.55 803.12C1124.49 803.411 1124.38 803.689 1124.23 803.946C1124.05 804.356 1123.85 804.753 1123.62 805.133C1123.35 805.492 1123.17 805.671 1123.08 805.671C1122.86 805.671 1122.79 805.671 1122.79 805.923C1122.79 806.175 1122.5 806.497 1121.96 807.216C1121.42 807.935 1120.74 808.618 1120.02 809.337C1119.43 809.922 1118.78 810.451 1118.08 810.917C1117.22 811.501 1116.34 812.04 1115.42 812.534C1114.83 812.893 1114.17 813.126 1113.48 813.218ZM1113.48 807.36C1113.92 807.361 1114.36 807.288 1114.78 807.144C1115.17 807.007 1115.52 806.787 1115.82 806.498C1116.6 805.949 1117.3 805.296 1117.9 804.557C1118.61 803.703 1119.18 802.746 1119.59 801.719C1120.03 801.134 1120.4 800.494 1120.67 799.814C1120.92 799.132 1121.35 797.982 1121.93 796.221C1122.27 795.726 1122.49 795.16 1122.58 794.567C1122.63 794.018 1122.63 793.464 1122.58 792.915C1122.58 792.483 1122.58 791.872 1122.58 791.082C1122.58 790.425 1122.68 789.773 1122.86 789.142C1122.9 788.52 1122.9 787.896 1122.86 787.274C1122.77 786.98 1122.61 786.709 1122.4 786.482L1121.75 786.123C1121.49 786.013 1121.21 785.952 1120.92 785.944C1120.53 785.961 1120.14 786.034 1119.77 786.159C1119.35 786.281 1118.95 786.462 1118.59 786.698C1118.44 786.771 1118.28 786.809 1118.12 786.809C1117.96 786.809 1117.8 786.771 1117.65 786.698C1117.29 786.698 1117.11 786.411 1117.11 786.231C1117.11 786.052 1116.86 785.692 1116.32 786.231C1115.78 786.77 1115.03 787.74 1114.13 788.854C1113.44 789.535 1112.81 790.28 1112.26 791.082C1111.93 791.488 1111.68 791.951 1111.51 792.448C1111.48 792.66 1111.42 792.867 1111.33 793.058C1111.33 793.31 1111.08 793.597 1110.97 793.921C1110.67 794.361 1110.42 794.831 1110.21 795.323C1109.93 795.97 1109.67 796.616 1109.39 797.227C1109.19 797.695 1109.02 798.175 1108.88 798.664V801.97C1108.86 802.485 1108.86 803.001 1108.88 803.516C1108.91 803.79 1108.98 804.058 1109.1 804.306L1109.53 805.205C1109.76 805.563 1110.03 805.9 1110.32 806.211L1111 807.037C1111.47 807.432 1111.76 807.612 1111.9 807.504C1112.38 807.375 1112.88 807.327 1113.38 807.36H1113.48Z" fill="#B8C318"/>
<path d="M1136.05 812.93C1135.76 812.726 1135.48 812.498 1135.22 812.248C1134.81 811.853 1134.43 811.433 1134.07 810.99C1133.8 810.657 1133.56 810.295 1133.36 809.911C1133.23 809.563 1133.23 809.182 1133.36 808.834C1133.36 808.295 1133.64 808.043 1133.82 808.043C1134 808.043 1134.07 808.043 1134.29 807.612L1134.9 806.39C1135.05 806.159 1135.16 805.904 1135.22 805.635C1135.28 805.467 1135.39 805.326 1135.55 805.241L1136.05 804.917C1136.29 804.556 1136.57 804.219 1136.88 803.911C1137.17 803.632 1137.45 803.332 1137.7 803.012C1138.27 802.372 1138.87 801.76 1139.5 801.18C1140.33 800.353 1141.19 799.527 1141.98 798.665L1144.24 796.221C1144.7 795.804 1145.06 795.287 1145.28 794.711C1145.51 794.472 1145.76 794.266 1146.04 794.101L1146.87 793.49L1147.73 792.7C1147.85 792.286 1148.05 791.897 1148.3 791.55C1148.63 791.117 1148.99 790.709 1149.38 790.328C1149.73 789.798 1150.04 789.246 1150.32 788.675C1150.52 788.255 1150.7 787.823 1150.85 787.381C1150.85 786.914 1150.85 786.662 1150.85 786.554C1150.33 786.332 1149.79 786.14 1149.24 785.98C1148.33 785.715 1147.37 785.715 1146.47 785.98C1145.22 786.363 1144.06 786.985 1143.06 787.812C1142.53 787.92 1142.01 788.076 1141.51 788.279C1141.13 788.466 1140.71 788.553 1140.29 788.531C1140.07 788.391 1139.89 788.208 1139.75 787.992C1139.55 787.705 1139.32 787.44 1139.07 787.202L1138.46 784.579L1140.36 783.537C1141.87 782.549 1143.48 781.741 1145.18 781.128C1146.43 780.579 1147.84 780.478 1149.17 780.841C1149.76 780.871 1150.35 780.967 1150.93 781.128C1151.44 781.156 1151.94 781.331 1152.36 781.632C1153.05 782.028 1153.69 782.497 1154.27 783.033C1154.82 783.505 1155.26 784.094 1155.56 784.758C1156.26 785.816 1156.53 787.101 1156.32 788.351C1156.08 789.924 1155.46 791.417 1154.52 792.7C1154.52 792.951 1153.87 793.454 1153.19 794.209L1150.85 796.832L1148.45 799.347C1147.73 800.102 1147.3 800.569 1147.08 800.749C1146.56 801.087 1146.08 801.484 1145.64 801.934C1144.96 802.581 1144.28 803.3 1143.52 804.091C1142.77 804.881 1142.12 805.564 1141.62 806.175C1141.12 806.786 1140.9 807.073 1140.97 807.073C1141.04 807.073 1140.97 807.073 1141.62 807.073L1142.88 806.606C1143.58 806.371 1144.3 806.179 1145.03 806.031C1145.86 806.031 1146.72 805.671 1147.58 805.564C1148.45 805.456 1149.17 805.349 1149.81 805.313C1150.46 805.277 1150.82 805.313 1150.93 805.313C1151.03 805.313 1150.93 805.528 1151.25 805.313C1151.57 805.097 1151.83 804.953 1152.8 805.061C1153.67 805.178 1154.54 805.37 1155.38 805.635C1155.77 805.704 1156.14 805.864 1156.46 806.103C1156.71 806.319 1156.86 806.498 1156.86 806.642C1157.05 807.001 1157.27 807.339 1157.54 807.648C1158.19 808.151 1158.19 808.726 1157.54 809.337C1157.02 809.704 1156.43 809.942 1155.8 810.03C1155.18 810.117 1154.54 810.052 1153.95 809.839C1153.07 809.815 1152.19 809.875 1151.32 810.019C1150.98 810.079 1150.62 810.079 1150.28 810.019H1148.77C1148.04 809.911 1147.31 809.911 1146.58 810.019C1145.68 810.197 1144.79 810.425 1143.92 810.703L1142.23 811.241L1139.72 811.996C1138.92 812.225 1138.12 812.405 1137.31 812.535C1136.91 812.725 1136.49 812.858 1136.05 812.93Z" fill="#B8C318"/>
<path d="M1166.59 812.93C1166.3 812.726 1166.02 812.498 1165.77 812.248C1165.36 811.853 1164.97 811.433 1164.62 810.99C1164.34 810.657 1164.1 810.295 1163.9 809.911C1163.77 809.563 1163.77 809.182 1163.9 808.834C1163.9 808.295 1164.19 808.043 1164.37 808.043C1164.55 808.043 1164.62 808.043 1164.83 807.612L1165.44 806.39C1165.59 806.159 1165.7 805.904 1165.77 805.635C1165.82 805.467 1165.94 805.326 1166.09 805.241L1166.59 804.917C1166.84 804.556 1167.11 804.219 1167.42 803.911C1167.72 803.632 1167.99 803.332 1168.25 803.012C1168.81 802.372 1169.41 801.76 1170.04 801.18C1170.87 800.353 1171.73 799.527 1172.52 798.665L1174.79 796.221C1175.24 795.804 1175.6 795.287 1175.83 794.711C1176.05 794.472 1176.3 794.266 1176.58 794.101L1177.41 793.49L1178.27 792.7C1178.4 792.286 1178.59 791.897 1178.85 791.55C1179.18 791.117 1179.54 790.709 1179.93 790.328C1180.27 789.798 1180.58 789.246 1180.86 788.675C1181.07 788.255 1181.25 787.823 1181.4 787.381C1181.4 786.914 1181.4 786.662 1181.4 786.554C1180.87 786.332 1180.33 786.14 1179.78 785.98C1178.88 785.715 1177.92 785.715 1177.01 785.98C1175.77 786.363 1174.61 786.985 1173.6 787.812C1173.07 787.92 1172.56 788.076 1172.06 788.279C1171.68 788.466 1171.26 788.553 1170.83 788.531C1170.62 788.391 1170.43 788.208 1170.29 787.992C1170.1 787.705 1169.87 787.44 1169.61 787.202L1169 784.579L1170.91 783.537C1172.41 782.549 1174.03 781.741 1175.72 781.128C1176.98 780.579 1178.39 780.478 1179.71 780.841C1180.31 780.871 1180.9 780.967 1181.47 781.128C1181.99 781.156 1182.49 781.331 1182.91 781.632C1183.59 782.028 1184.23 782.497 1184.81 783.033C1185.37 783.505 1185.81 784.094 1186.11 784.758C1186.8 785.816 1187.07 787.101 1186.86 788.351C1186.62 789.924 1186.01 791.417 1185.06 792.7C1185.06 792.951 1184.42 793.454 1183.73 794.209L1181.4 796.832L1178.99 799.347C1178.27 800.102 1177.84 800.569 1177.63 800.749C1177.1 801.087 1176.62 801.484 1176.19 801.934C1175.51 802.581 1174.82 803.3 1174.07 804.091C1173.31 804.881 1172.67 805.564 1172.16 806.175C1171.66 806.786 1171.44 807.073 1171.52 807.073C1171.59 807.073 1171.52 807.073 1172.16 807.073L1173.42 806.606C1174.13 806.371 1174.85 806.179 1175.58 806.031C1176.4 806.031 1177.27 805.671 1178.13 805.564C1178.99 805.456 1179.71 805.349 1180.36 805.313C1181 805.277 1181.36 805.313 1181.47 805.313C1181.58 805.313 1181.47 805.528 1181.79 805.313C1182.12 805.097 1182.37 804.953 1183.34 805.061C1184.22 805.178 1185.08 805.37 1185.93 805.635C1186.32 805.704 1186.69 805.864 1187 806.103C1187.26 806.319 1187.4 806.498 1187.4 806.642C1187.59 807.001 1187.82 807.339 1188.08 807.648C1188.73 808.151 1188.73 808.726 1188.08 809.337C1187.57 809.704 1186.97 809.942 1186.35 810.03C1185.72 810.117 1185.08 810.052 1184.49 809.839C1183.61 809.815 1182.73 809.875 1181.87 810.019C1181.52 810.079 1181.17 810.079 1180.82 810.019H1179.31C1178.59 809.911 1177.85 809.911 1177.12 810.019C1176.22 810.197 1175.34 810.425 1174.46 810.703L1172.77 811.241L1170.26 811.996C1169.47 812.225 1168.66 812.405 1167.85 812.535C1167.45 812.725 1167.03 812.858 1166.59 812.93Z" fill="#B8C318"/>
<path d="M1421.44 610.404H269.936V613.998H1421.44V610.404Z" fill="#EAE8E6"/>
<path d="M1421.44 483.345H269.936V486.938H1421.44V483.345Z" fill="#EAE8E6"/>
<path d="M1421.44 356.285H269.936V359.878H1421.44V356.285Z" fill="#EAE8E6"/>
<path d="M1421.44 229.183H269.936V232.776H1421.44V229.183Z" fill="#EAE8E6"/>
<path d="M584.033 698.373H497.756V738.475H584.033V698.373Z" fill="#C9D250"/>
<path d="M888.969 562.792H802.691V738.473H888.969V562.792Z" fill="#C9D250"/>
<path d="M1193.87 320.526H1107.59V738.437H1193.87V320.526Z" fill="#C9D250"/>
<path d="M1421.44 737.507H269.936V741.1H1421.44V737.507Z" fill="#584938"/>
<path d="M540.806 687.521C539.742 687.503 538.719 687.106 537.92 686.404C537.121 685.701 536.596 684.739 536.441 683.686C536.286 682.633 536.509 681.559 537.072 680.656C537.634 679.752 538.499 679.078 539.512 678.753L843.153 586.439L1145.93 222.25C1146.29 221.745 1146.75 221.319 1147.28 220.999C1147.81 220.68 1148.4 220.473 1149.01 220.392C1149.62 220.311 1150.25 220.357 1150.84 220.528C1151.43 220.699 1151.99 220.991 1152.46 221.385C1152.94 221.78 1153.33 222.269 1153.61 222.821C1153.89 223.373 1154.05 223.976 1154.08 224.594C1154.12 225.211 1154.02 225.829 1153.81 226.409C1153.59 226.989 1153.26 227.517 1152.83 227.963L849.19 593.231C848.622 593.897 847.873 594.383 847.034 594.632L542.135 687.342C541.704 687.472 541.256 687.532 540.806 687.521Z" fill="#8C6F67"/>
<path d="M536.313 712.39C535.093 712.03 534.013 711.302 533.222 710.305C532.431 709.308 531.967 708.091 531.893 706.82C531.893 703.838 534.696 700.604 540.374 700.604C546.051 700.604 548.639 703.874 548.639 706.641C548.611 707.989 548.143 709.291 547.306 710.349C546.469 711.406 545.309 712.161 544.003 712.498C545.502 712.743 546.872 713.492 547.885 714.623C548.899 715.754 549.494 717.198 549.573 718.715C549.573 722.811 546.231 725.686 540.158 725.65C534.768 725.65 530.887 723.171 530.887 718.967C530.887 716.307 532.684 714.043 536.313 712.39ZM540.302 722.092C540.782 722.124 541.263 722.053 541.714 721.884C542.164 721.714 542.573 721.451 542.913 721.111C543.254 720.77 543.517 720.361 543.686 719.911C543.856 719.46 543.927 718.979 543.895 718.499C543.895 716.63 542.17 715.625 539.835 714.475L539.511 714.295C537.212 715.948 536.385 717.277 536.385 718.643C536.331 719.157 536.398 719.676 536.58 720.16C536.763 720.643 537.057 721.077 537.438 721.427C537.819 721.776 538.276 722.032 538.774 722.172C539.271 722.313 539.794 722.335 540.302 722.236V722.092ZM540.302 710.45L540.913 710.666C541.577 710.26 542.13 709.697 542.525 709.026C542.92 708.355 543.144 707.598 543.177 706.82C543.167 706.448 543.085 706.081 542.933 705.74C542.782 705.399 542.565 705.091 542.295 704.834C542.024 704.577 541.706 704.376 541.358 704.242C541.01 704.108 540.639 704.044 540.266 704.054C539.487 704.044 538.735 704.339 538.171 704.876C537.607 705.414 537.276 706.15 537.248 706.928C537.212 708.653 538.398 709.659 540.446 710.45H540.302Z" fill="#584938"/>
<path d="M827.342 673.289C826.868 673.01 826.517 672.564 826.357 672.038C826.197 671.512 826.241 670.946 826.479 670.451C826.696 670.028 827.065 669.703 827.512 669.543C827.96 669.383 828.451 669.399 828.887 669.589C830.004 670.163 831.227 670.505 832.48 670.594C834.995 670.594 836.936 669.588 836.936 667.324C836.936 664.45 835.427 663.731 831.51 663.479C831.095 663.396 830.722 663.172 830.453 662.844C830.185 662.516 830.038 662.106 830.038 661.682C830.038 661.259 830.185 660.849 830.453 660.522C830.722 660.194 831.095 659.969 831.51 659.886C835.103 659.886 836.577 658.736 836.577 656.58C836.577 654.424 835.355 653.705 832.983 653.705C831.901 653.754 830.866 654.158 830.037 654.855C829.811 655.043 829.548 655.18 829.264 655.257C828.981 655.334 828.684 655.349 828.395 655.301C828.105 655.253 827.829 655.144 827.585 654.98C827.342 654.816 827.136 654.603 826.982 654.353C826.712 653.862 826.647 653.283 826.802 652.745C826.957 652.206 827.319 651.75 827.809 651.478C829.614 650.449 831.66 649.915 833.738 649.932C838.086 649.932 841.751 651.909 841.751 656.113C841.721 657.39 841.239 658.615 840.39 659.569C839.541 660.523 838.38 661.145 837.116 661.324C838.634 661.407 840.062 662.074 841.1 663.186C842.138 664.298 842.706 665.767 842.685 667.288C842.685 671.816 839.092 674.475 833.019 674.475C831.059 674.54 829.112 674.133 827.342 673.289Z" fill="#584938"/>
<path d="M854.22 674.768C852.655 674.817 851.101 674.484 849.693 673.798C849.442 673.686 849.216 673.525 849.028 673.324C848.84 673.124 848.693 672.889 848.596 672.631C848.499 672.374 848.454 672.101 848.464 671.826C848.473 671.551 848.537 671.281 848.651 671.031C848.887 670.601 849.279 670.276 849.746 670.122C850.212 669.969 850.72 669.998 851.166 670.205C852.002 670.602 852.903 670.845 853.825 670.923C854.475 670.995 855.133 670.922 855.751 670.708C856.369 670.495 856.932 670.147 857.399 669.69C857.867 669.233 858.227 668.677 858.454 668.064C858.681 667.451 858.769 666.795 858.712 666.144C858.712 663.844 857.67 662.55 855.73 662.55C854.984 662.532 854.245 662.692 853.574 663.018C853.098 663.303 852.569 663.488 852.019 663.562C851.469 663.636 850.91 663.597 850.376 663.449C849.803 663.319 849.301 662.976 848.974 662.488C848.646 662 848.518 661.405 848.615 660.826C848.615 658.167 848.902 655.472 849.046 652.812C849.043 652.448 849.118 652.088 849.266 651.755C849.414 651.423 849.631 651.126 849.904 650.884C850.176 650.642 850.497 650.462 850.845 650.354C851.193 650.247 851.56 650.215 851.921 650.261H861.659C861.908 650.245 862.158 650.284 862.392 650.372C862.626 650.46 862.838 650.597 863.015 650.774C863.192 650.95 863.329 651.163 863.417 651.397C863.506 651.63 863.543 651.88 863.527 652.13C863.544 652.378 863.507 652.627 863.418 652.859C863.329 653.091 863.192 653.302 863.014 653.476C862.837 653.65 862.624 653.783 862.39 653.867C862.156 653.951 861.906 653.984 861.659 653.963H854.939C854.884 653.958 854.829 653.964 854.777 653.982C854.725 653.999 854.677 654.028 854.636 654.065C854.596 654.102 854.563 654.147 854.541 654.198C854.519 654.248 854.508 654.303 854.508 654.358C854.508 655.796 854.185 657.951 854.113 659.425C855.078 659.125 856.085 658.979 857.095 658.993C857.983 658.904 858.88 658.998 859.73 659.268C860.58 659.539 861.366 659.981 862.04 660.567C862.713 661.153 863.259 661.869 863.645 662.674C864.03 663.479 864.247 664.354 864.282 665.245C864.462 671.498 860.832 674.625 854.22 674.768Z" fill="#584938"/>
<path d="M1135.98 525.099C1134.76 524.746 1133.67 524.026 1132.88 523.036C1132.08 522.046 1131.61 520.834 1131.52 519.565C1131.52 516.583 1134.36 513.313 1140 513.313C1145.64 513.313 1148.3 516.619 1148.3 519.35C1148.26 520.695 1147.79 521.991 1146.96 523.047C1146.12 524.102 1144.97 524.859 1143.67 525.206C1145.17 525.451 1146.54 526.201 1147.55 527.332C1148.56 528.463 1149.16 529.906 1149.24 531.423C1149.24 535.519 1145.9 538.395 1139.82 538.395C1134.4 538.395 1130.52 535.879 1130.52 531.675C1130.52 529.016 1132.35 526.751 1135.98 525.099ZM1139.93 534.837C1140.88 534.837 1141.8 534.458 1142.47 533.785C1143.15 533.111 1143.52 532.197 1143.52 531.244C1143.52 529.339 1141.76 528.333 1139.43 527.183H1139.1C1136.8 528.8 1136.01 530.129 1136.01 531.495C1136.01 531.987 1136.11 532.474 1136.31 532.922C1136.51 533.37 1136.81 533.768 1137.19 534.087C1137.56 534.406 1138 534.639 1138.47 534.769C1138.95 534.899 1139.45 534.922 1139.93 534.837ZM1139.93 523.159L1140.51 523.41C1141.18 523.01 1141.74 522.45 1142.14 521.779C1142.54 521.108 1142.77 520.347 1142.81 519.565C1142.8 519.188 1142.71 518.816 1142.56 518.471C1142.41 518.125 1142.19 517.813 1141.91 517.553C1141.64 517.293 1141.32 517.089 1140.96 516.954C1140.61 516.818 1140.24 516.753 1139.86 516.763C1139.08 516.762 1138.34 517.06 1137.77 517.595C1137.21 518.13 1136.88 518.862 1136.84 519.637C1136.98 521.362 1138.03 522.368 1140.11 523.159H1139.93Z" fill="#584938"/>
<path d="M1153.12 535.161C1153.12 533.795 1153.44 533.221 1154.88 532.143C1157.01 530.632 1158.99 528.91 1160.77 527.004C1162.47 525.439 1163.53 523.302 1163.76 521.003C1163.79 520.55 1163.73 520.094 1163.58 519.664C1163.43 519.233 1163.2 518.838 1162.89 518.502C1162.59 518.166 1162.22 517.895 1161.8 517.707C1161.39 517.519 1160.94 517.418 1160.49 517.41C1159.78 517.342 1159.06 517.428 1158.39 517.664C1157.72 517.9 1157.11 518.279 1156.6 518.775C1156.42 518.988 1156.19 519.159 1155.93 519.277C1155.68 519.394 1155.4 519.455 1155.11 519.455C1154.83 519.455 1154.55 519.394 1154.29 519.277C1154.04 519.159 1153.81 518.988 1153.62 518.775C1153.45 518.558 1153.32 518.309 1153.24 518.041C1153.16 517.774 1153.14 517.494 1153.17 517.217C1153.2 516.94 1153.28 516.672 1153.41 516.427C1153.55 516.183 1153.73 515.967 1153.95 515.793C1155.98 514.173 1158.53 513.343 1161.13 513.457C1165.77 513.457 1169.25 515.972 1169.25 520.643C1168.77 523.796 1167.23 526.689 1164.87 528.836C1163.27 530.469 1161.54 531.971 1159.69 533.328C1159.34 533.58 1159.48 533.796 1159.91 533.796H1167.67C1169.07 533.796 1169.83 534.479 1169.83 535.7C1169.85 535.985 1169.81 536.271 1169.71 536.538C1169.61 536.805 1169.45 537.045 1169.24 537.242C1169.04 537.438 1168.79 537.587 1168.51 537.674C1168.24 537.762 1167.95 537.787 1167.67 537.748H1155.99C1153.8 537.604 1153.15 536.562 1153.12 535.161Z" fill="#584938"/>
<path d="M278.2 88.718C278.2 78.1204 269.609 69.5293 259.012 69.5293C248.414 69.5293 239.823 78.1204 239.823 88.718C239.823 99.3156 248.414 107.907 259.012 107.907C269.609 107.907 278.2 99.3156 278.2 88.718Z" fill="#8C6F67"/>
<path d="M313.524 73.5581V78.3016H324.304V98.1372H320.711V96.3765H313.524V104.964H309.93V96.3765H302.456V98.3881H298.863V78.3016H309.859V73.5581H313.524ZM309.93 85.7042V81.6073H302.456V85.7042H309.93ZM309.93 92.891V88.7221H302.456V92.891H309.93ZM320.711 85.7042V81.6073H313.524V85.7042H320.711ZM320.711 92.891V88.7221H313.524V92.891H320.711Z" fill="#584938"/>
<path d="M331.922 89.5482V86.4943H337.455C338.002 84.6122 338.399 82.6894 338.641 80.7445L341.516 81.1762C341.245 82.9807 340.824 84.7595 340.258 86.4943H342.45V89.5482H338.857C338.857 90.734 338.857 91.7766 338.857 92.7827H342.127V95.8366H338.534L338.318 97.2025C337.848 100.226 336.426 103.021 334.257 105.18L332.173 102.701C333.745 100.88 334.8 98.6712 335.227 96.3042V95.8366H332.389V92.7827H335.407C335.407 91.7407 335.407 90.6981 335.407 89.5482H331.922ZM346.834 73.5578V79.8822H351.182C351.182 91.3091 351.182 98.4237 350.787 101.083C350.392 103.742 349.314 104.856 347.194 104.856C346.798 104.856 346.152 104.856 345.253 104.676L344.498 101.766C345.213 101.871 345.933 101.93 346.654 101.945C347.337 101.945 347.769 101.155 347.912 99.6458C348.056 98.1366 348.164 92.4592 348.236 82.793H346.762C346.762 92.9982 345.025 100.436 341.552 105.108L339.18 103.023C342.127 98.8191 343.672 92.2436 343.744 82.793H342.163V80.2419H332.389V77.1512H335.623C335.311 76.0299 334.94 74.9267 334.509 73.8455L337.851 73.27C338.174 74.4558 338.497 75.7138 338.821 77.1512H342.414V79.8822H343.888V73.5578H346.834ZM336.845 85.2723L334.257 86.3864C333.785 84.8133 333.171 83.2859 332.425 81.8227L334.976 80.7445C335.676 82.2207 336.3 83.7319 336.845 85.2723ZM351.937 89.5122V86.4224H357.974C358.593 84.5487 359.05 82.6247 359.339 80.6726L362.214 81.0683C361.901 82.8936 361.42 84.686 360.777 86.4224H363.364V89.5122H359.231V92.8187H363.112V95.9085H359.231V105.072H356.033V95.9085H352.224V92.8187H356.033V89.5122H351.937ZM359.124 77.1512H363.112V80.2419H352.045V77.1512H355.889C355.624 76.0683 355.301 75.0011 354.919 73.9534L358.297 73.3779C358.549 74.5278 358.836 75.7857 359.124 77.1512ZM357.111 85.0924L354.668 86.1346C354.177 84.6545 353.577 83.2133 352.871 81.8227L355.422 80.7805C356.099 82.1707 356.664 83.6125 357.111 85.0924Z" fill="#584938"/>
<path d="M396.71 76.6804C389.467 77.9308 382.139 78.6269 374.791 78.7639V81.9266H396.818V93.6411H374.144C373.611 97.6573 372.318 101.535 370.335 105.068L367.712 102.337C370.221 97.3885 371.456 91.8925 371.305 86.3464V75.5662C379.197 75.538 387.072 74.8283 394.842 73.4458L396.71 76.6804ZM393.297 90.2275V85.3401H374.791V86.3464C374.791 87.664 374.719 88.9579 374.575 90.2275H393.297Z" fill="#584938"/>
<path d="M410.869 75.102V73.4491H414.103V75.102H419.385V78.6953H420.715V81.5702H419.385V85.3435H414.103V86.4936H419.888V87.356C421.923 82.8138 423.139 77.9478 423.481 72.9824L427.075 73.593C426.859 75.21 426.644 76.7193 426.356 78.1567H434.873V81.5343H433.004C432.95 86.7077 431.811 91.813 429.662 96.5193C431.228 98.8276 433.245 100.795 435.591 102.304L433.399 105.179C431.214 103.704 429.294 101.869 427.722 99.753C426.272 101.82 424.486 103.629 422.439 105.107L420.786 102.412L418.99 104.783C417.211 103.789 415.376 102.901 413.492 102.124C411.12 103.385 408.612 104.374 406.018 105.071L404.041 102.52C406.009 102.026 407.942 101.402 409.827 100.651C408.533 100.184 407.275 99.7167 406.018 99.3933L407.886 96.5544H404.293V93.8593H409.719C409.934 93.4281 410.186 93.0334 410.437 92.6022H405.371V86.4936H411.12V85.3435H405.838V81.5702H404.257V78.6953H405.514V75.102H410.869ZM410.869 88.9369H408.138V90.4458H410.869V88.9369ZM410.869 79.1629V77.5101H408.605V79.1629H410.869ZM410.869 81.4264H408.605V83.0441H410.869V81.4264ZM416.115 96.6983H411.444C411.084 97.2732 410.725 97.7769 410.473 98.28C411.4 98.5121 412.312 98.8001 413.204 99.1424C414.278 98.4603 415.257 97.638 416.115 96.6983ZM420.427 102.088C422.537 100.682 424.325 98.845 425.674 96.6983C424.4 94.1749 423.515 91.4733 423.05 88.6851C422.763 89.26 422.439 89.7989 422.116 90.3379L419.888 87.6069V92.7461H413.528C413.312 93.2132 413.061 93.6079 412.845 94.0032H420.032V96.2315C419.116 97.8308 417.895 99.2345 416.438 100.364C417.84 100.903 419.241 101.514 420.607 102.196L420.427 102.088ZM416.367 79.1629V77.5101H414.103V79.1629H416.367ZM416.367 81.4264H414.103V83.0441H416.367V81.4264ZM416.87 88.9369H414.103V90.4458H416.87V88.9369ZM425.853 86.1339C426.074 88.4577 426.644 90.7355 427.542 92.8899C428.886 89.3031 429.591 85.5083 429.626 81.6781H425.817C425.385 83.3919 424.833 85.0726 424.164 86.7085L425.853 86.1339Z" fill="#584938"/>
<path d="M453.593 73.228C452.211 75.4795 451.113 77.8935 450.324 80.4148C449.315 83.2773 448.804 86.2923 448.814 89.3272C448.81 92.3617 449.32 95.3749 450.324 98.2387C451.135 100.752 452.232 103.163 453.593 105.426H450.359C448.793 103.283 447.524 100.937 446.586 98.4537C444.487 92.6487 444.487 86.2917 446.586 80.4867C447.476 77.9153 448.748 75.4925 450.359 73.3L453.593 73.228Z" fill="#584938"/>
<path d="M486.904 76.6804C479.661 77.9308 472.334 78.6269 464.985 78.7639V81.9266H486.904V93.6411H464.266C463.722 97.6598 462.417 101.538 460.421 105.068L457.798 102.337C460.307 97.3885 461.543 91.8925 461.391 86.3464V75.5662C469.283 75.5362 477.158 74.8266 484.928 73.4458L486.904 76.6804ZM483.527 90.2275V85.3401H464.985V86.3464C464.985 87.664 464.913 88.9579 464.769 90.2275H483.527Z" fill="#584938"/>
<path d="M497.361 73.2288C498.958 75.4299 500.229 77.8506 501.134 80.4156C503.234 86.2205 503.234 92.5775 501.134 98.3825C500.182 100.859 498.914 103.203 497.361 105.354H494.091C495.423 103.076 496.519 100.668 497.361 98.1676C498.347 95.2993 498.857 92.289 498.87 89.256C498.863 86.2225 498.353 83.2112 497.361 80.3445C496.54 77.8353 495.443 75.425 494.091 73.1577L497.361 73.2288Z" fill="#584938"/>
<path d="M183.658 600.056C184.365 600.716 184.923 601.519 185.295 602.411C185.667 603.303 185.844 604.264 185.814 605.231C185.79 607.352 184.954 609.384 183.478 610.908C181.946 612.339 180.286 613.626 178.52 614.754C176.571 615.772 174.969 617.349 173.92 619.281H185.85V622.479H169.392C169.353 620.168 170.201 617.93 171.764 616.227C173.379 614.565 175.189 613.106 177.154 611.879C178.434 611.069 179.637 610.142 180.747 609.112C181.776 608.063 182.367 606.663 182.401 605.195C182.435 604.642 182.353 604.088 182.161 603.568C181.97 603.048 181.672 602.575 181.287 602.177C180.364 601.464 179.216 601.106 178.052 601.171C177.372 601.105 176.686 601.212 176.057 601.482C175.429 601.752 174.879 602.176 174.459 602.715C173.589 604.008 173.149 605.542 173.201 607.099H169.608C169.538 604.736 170.373 602.435 171.944 600.667C172.714 599.81 173.665 599.134 174.727 598.687C175.789 598.24 176.937 598.033 178.088 598.08C180.127 598.019 182.114 598.725 183.658 600.056Z" fill="#584938"/>
<path d="M206.944 598.403V601.601H195.481L194.798 608.501C195.503 607.753 196.378 607.185 197.349 606.847C198.286 606.476 199.288 606.293 200.296 606.309C201.312 606.272 202.324 606.453 203.266 606.837C204.207 607.221 205.057 607.8 205.758 608.537C206.504 609.354 207.079 610.312 207.449 611.355C207.819 612.398 207.977 613.505 207.914 614.61C207.942 615.756 207.712 616.895 207.239 617.941C206.766 618.986 206.063 619.911 205.183 620.646C203.457 622.071 201.275 622.825 199.038 622.767C197.05 622.806 195.104 622.187 193.504 621.006C192.685 620.378 192.011 619.581 191.527 618.67C191.044 617.758 190.762 616.754 190.701 615.724H194.295C194.31 616.316 194.456 616.896 194.723 617.425C194.99 617.953 195.372 618.415 195.84 618.778C196.898 619.44 198.138 619.751 199.383 619.667C200.628 619.583 201.815 619.109 202.775 618.311C203.269 617.854 203.659 617.297 203.919 616.677C204.179 616.057 204.304 615.389 204.284 614.717C204.375 613.311 203.925 611.923 203.027 610.836C202.565 610.354 202.006 609.976 201.386 609.728C200.766 609.48 200.1 609.368 199.433 609.399C198.479 609.377 197.533 609.574 196.666 609.974C195.815 610.372 195.119 611.042 194.69 611.879H191.276L192.57 598.511L206.944 598.403Z" fill="#584938"/>
<path d="M227.749 601.463C229.12 604.22 229.833 607.259 229.833 610.339C229.833 613.419 229.12 616.457 227.749 619.215C227.041 620.305 226.072 621.2 224.93 621.82C223.788 622.44 222.509 622.766 221.209 622.766C219.91 622.766 218.63 622.44 217.488 621.82C216.346 621.2 215.377 620.305 214.669 619.215C213.277 616.463 212.551 613.423 212.551 610.339C212.551 607.255 213.277 604.214 214.669 601.463C215.377 600.372 216.346 599.477 217.488 598.857C218.63 598.237 219.91 597.912 221.209 597.912C222.509 597.912 223.788 598.237 224.93 598.857C226.072 599.477 227.041 600.372 227.749 601.463ZM216.969 604.265C216.322 606.222 216.03 608.279 216.107 610.339C216.033 612.41 216.325 614.478 216.969 616.448C217.213 617.367 217.753 618.18 218.507 618.76C219.261 619.34 220.186 619.655 221.137 619.655C222.089 619.655 223.014 619.34 223.767 618.76C224.521 618.18 225.062 617.367 225.306 616.448C225.932 614.474 226.224 612.409 226.168 610.339C226.227 608.28 225.935 606.226 225.306 604.265C225.09 603.322 224.56 602.479 223.803 601.876C223.045 601.272 222.106 600.944 221.137 600.944C220.169 600.944 219.23 601.272 218.472 601.876C217.715 602.479 217.185 603.322 216.969 604.265Z" fill="#584938"/>
<path d="M185.059 471.308V474.543H173.596L172.878 481.442C173.576 480.686 174.454 480.117 175.429 479.789C176.367 479.418 177.368 479.234 178.376 479.249C179.398 479.208 180.417 479.385 181.365 479.77C182.313 480.154 183.168 480.736 183.874 481.478C185.358 483.128 186.132 485.297 186.03 487.514C186.057 488.67 185.822 489.816 185.343 490.868C184.864 491.92 184.152 492.85 183.263 493.588C181.545 495.002 179.378 495.753 177.154 495.707C175.159 495.753 173.208 495.119 171.62 493.911C170.783 493.306 170.093 492.521 169.601 491.612C169.11 490.704 168.829 489.696 168.781 488.664H172.375C172.41 489.256 172.569 489.833 172.842 490.359C173.114 490.885 173.493 491.349 173.956 491.719C174.892 492.367 176.018 492.683 177.154 492.618C178.479 492.619 179.758 492.133 180.747 491.252C181.237 490.792 181.625 490.235 181.885 489.615C182.145 488.996 182.271 488.33 182.256 487.658C182.339 486.236 181.876 484.835 180.963 483.741C180.493 483.272 179.931 482.907 179.313 482.666C178.694 482.424 178.033 482.313 177.37 482.34C176.415 482.31 175.467 482.507 174.603 482.915C173.743 483.301 173.044 483.974 172.626 484.819H169.033L170.327 471.416L185.059 471.308Z" fill="#584938"/>
<path d="M205.937 474.286C207.33 477.038 208.055 480.078 208.055 483.162C208.055 486.246 207.33 489.286 205.937 492.037C205.234 493.128 204.268 494.025 203.129 494.646C201.989 495.266 200.713 495.591 199.415 495.591C198.118 495.591 196.841 495.266 195.702 494.646C194.562 494.025 193.597 493.128 192.893 492.037C191.36 489.339 190.625 486.262 190.773 483.162C190.615 480.061 191.351 476.981 192.893 474.286C193.597 473.196 194.562 472.3 195.702 471.679C196.841 471.058 198.118 470.732 199.415 470.732C200.713 470.732 201.989 471.058 203.129 471.679C204.268 472.3 205.234 473.196 205.937 474.286ZM195.157 477.053C194.49 479.018 194.197 481.09 194.295 483.162C194.203 485.234 194.495 487.305 195.157 489.27C195.387 490.197 195.921 491.021 196.673 491.609C197.425 492.198 198.353 492.517 199.308 492.517C200.263 492.517 201.19 492.198 201.942 491.609C202.694 491.021 203.228 490.197 203.458 489.27C204.102 487.301 204.394 485.233 204.32 483.162C204.4 481.09 204.108 479.022 203.458 477.053C203.228 476.126 202.694 475.303 201.942 474.714C201.19 474.126 200.263 473.806 199.308 473.806C198.353 473.806 197.425 474.126 196.673 474.714C195.921 475.303 195.387 476.126 195.157 477.053Z" fill="#584938"/>
<path d="M227.749 474.291C229.12 477.049 229.833 480.087 229.833 483.167C229.833 486.246 229.12 489.284 227.749 492.042C227.042 493.132 226.073 494.028 224.93 494.649C223.788 495.269 222.509 495.593 221.209 495.593C219.91 495.593 218.63 495.269 217.488 494.649C216.346 494.028 215.377 493.132 214.669 492.042C213.136 489.344 212.401 486.266 212.549 483.167C212.391 480.066 213.127 476.985 214.669 474.291C215.377 473.201 216.346 472.305 217.488 471.685C218.63 471.064 219.91 470.74 221.209 470.74C222.509 470.74 223.788 471.064 224.93 471.685C226.073 472.305 227.042 473.201 227.749 474.291ZM216.969 477.058C216.319 479.026 216.027 481.095 216.107 483.167C216.033 485.238 216.325 487.305 216.969 489.275C217.213 490.195 217.754 491.008 218.507 491.589C219.261 492.169 220.186 492.483 221.137 492.483C222.089 492.483 223.014 492.169 223.767 491.589C224.521 491.008 225.062 490.195 225.306 489.275C225.932 487.301 226.224 485.237 226.168 483.167C226.229 481.096 225.938 479.031 225.306 477.058C225.062 476.138 224.521 475.325 223.767 474.745C223.014 474.164 222.089 473.85 221.137 473.85C220.186 473.85 219.261 474.164 218.507 474.745C217.754 475.325 217.213 476.138 216.969 477.058Z" fill="#584938"/>
<path d="M186.317 344.248V347.194L177.873 368.144H173.956L182.652 347.554H170.255V344.248H186.317Z" fill="#584938"/>
<path d="M206.944 344.248V347.446H195.481L194.798 354.346C195.496 353.597 196.374 353.039 197.349 352.728C198.283 352.343 199.287 352.16 200.296 352.189C201.309 352.149 202.32 352.323 203.261 352.701C204.203 353.079 205.054 353.651 205.758 354.381C206.504 355.198 207.079 356.157 207.449 357.2C207.819 358.242 207.977 359.349 207.914 360.454C207.94 361.606 207.708 362.749 207.236 363.799C206.763 364.85 206.062 365.782 205.183 366.527C203.446 367.928 201.269 368.667 199.038 368.611C197.047 368.667 195.097 368.047 193.504 366.851C192.679 366.237 192 365.448 191.515 364.541C191.031 363.634 190.753 362.631 190.701 361.604H194.295C194.317 362.194 194.466 362.773 194.733 363.3C195 363.827 195.377 364.291 195.84 364.658C196.8 365.283 197.929 365.597 199.074 365.557C200.407 365.566 201.693 365.065 202.667 364.156C203.161 363.699 203.551 363.142 203.811 362.522C204.072 361.902 204.196 361.234 204.177 360.562C204.266 359.139 203.803 357.735 202.883 356.645C202.414 356.175 201.853 355.807 201.234 355.566C200.615 355.325 199.953 355.215 199.29 355.244C198.338 355.211 197.392 355.395 196.523 355.783C195.668 356.195 194.974 356.877 194.546 357.723H191.133L192.426 344.32L206.944 344.248Z" fill="#584938"/>
<path d="M227.75 347.336C229.286 350.033 230.022 353.112 229.87 356.212C230.008 359.311 229.273 362.387 227.75 365.088C227.036 366.171 226.065 367.058 224.924 367.673C223.782 368.288 222.506 368.61 221.21 368.61C219.913 368.61 218.637 368.288 217.496 367.673C216.354 367.058 215.383 366.171 214.67 365.088C213.14 362.389 212.406 359.311 212.55 356.212C212.387 353.111 213.124 350.029 214.67 347.336C215.377 346.246 216.346 345.351 217.489 344.731C218.631 344.111 219.91 343.785 221.21 343.785C222.509 343.785 223.788 344.111 224.931 344.731C226.073 345.351 227.042 346.246 227.75 347.336ZM216.969 350.103C216.319 352.072 216.027 354.141 216.107 356.212C216.036 358.271 216.328 360.327 216.969 362.285C217.185 363.229 217.715 364.072 218.473 364.675C219.23 365.279 220.169 365.607 221.138 365.607C222.106 365.607 223.046 365.279 223.803 364.675C224.56 364.072 225.09 363.229 225.306 362.285C225.93 360.323 226.221 358.27 226.168 356.212C226.23 354.142 225.938 352.076 225.306 350.103C225.09 349.16 224.56 348.317 223.803 347.714C223.046 347.11 222.106 346.782 221.138 346.782C220.169 346.782 219.23 347.11 218.473 347.714C217.715 348.317 217.185 349.16 216.969 350.103Z" fill="#584938"/>
<path d="M162.744 217.146V241.079H159.151V221.53C157.607 222.991 155.714 224.03 153.653 224.549V220.955C154.838 220.627 155.973 220.144 157.031 219.518C158.157 218.893 159.176 218.092 160.049 217.146H162.744Z" fill="#584938"/>
<path d="M184.161 220.234C185.553 222.986 186.279 226.026 186.279 229.11C186.279 232.194 185.553 235.234 184.161 237.986C183.453 239.076 182.484 239.972 181.342 240.592C180.2 241.212 178.921 241.537 177.621 241.537C176.321 241.537 175.042 241.212 173.9 240.592C172.758 239.972 171.789 239.076 171.081 237.986C169.71 235.228 168.997 232.19 168.997 229.11C168.997 226.03 169.71 222.992 171.081 220.234C171.789 219.144 172.758 218.248 173.9 217.628C175.042 217.008 176.321 216.683 177.621 216.683C178.921 216.683 180.2 217.008 181.342 217.628C182.484 218.248 183.453 219.144 184.161 220.234ZM173.381 223.001C172.731 224.97 172.439 227.039 172.518 229.11C172.445 231.181 172.737 233.249 173.381 235.219C173.624 236.138 174.165 236.952 174.919 237.532C175.673 238.112 176.598 238.427 177.549 238.427C178.5 238.427 179.425 238.112 180.179 237.532C180.933 236.952 181.474 236.138 181.717 235.219C182.344 233.245 182.635 231.18 182.58 229.11C182.641 227.04 182.349 224.974 181.717 223.001C181.474 222.082 180.933 221.268 180.179 220.688C179.425 220.108 178.5 219.793 177.549 219.793C176.598 219.793 175.673 220.108 174.919 220.688C174.165 221.268 173.624 222.082 173.381 223.001Z" fill="#584938"/>
<path d="M205.937 220.237C207.33 222.988 208.055 226.029 208.055 229.113C208.055 232.196 207.33 235.237 205.937 237.988C205.234 239.078 204.268 239.975 203.129 240.595C201.989 241.216 200.713 241.542 199.415 241.542C198.118 241.542 196.841 241.216 195.702 240.595C194.562 239.975 193.597 239.078 192.893 237.988C191.501 235.237 190.775 232.196 190.775 229.113C190.775 226.029 191.501 222.988 192.893 220.237C193.597 219.147 194.562 218.25 195.702 217.629C196.841 217.008 198.118 216.683 199.415 216.683C200.713 216.683 201.989 217.008 203.129 217.629C204.268 218.25 205.234 219.147 205.937 220.237ZM195.157 223.004C194.49 224.968 194.197 227.04 194.295 229.113C194.203 231.185 194.495 233.256 195.157 235.221C195.387 236.148 195.921 236.972 196.673 237.56C197.425 238.148 198.352 238.468 199.307 238.468C200.262 238.468 201.19 238.148 201.942 237.56C202.694 236.972 203.228 236.148 203.458 235.221C204.102 233.251 204.394 231.184 204.32 229.113C204.4 227.041 204.108 224.972 203.458 223.004C203.228 222.077 202.694 221.254 201.942 220.665C201.19 220.077 200.262 219.757 199.307 219.757C198.352 219.757 197.425 220.077 196.673 220.665C195.921 221.254 195.387 222.077 195.157 223.004Z" fill="#584938"/>
<path d="M227.749 220.234C229.142 222.986 229.867 226.026 229.867 229.11C229.867 232.194 229.142 235.234 227.749 237.986C227.041 239.076 226.072 239.972 224.93 240.592C223.788 241.212 222.509 241.537 221.209 241.537C219.91 241.537 218.63 241.212 217.488 240.592C216.346 239.972 215.377 239.076 214.669 237.986C213.277 235.234 212.551 232.194 212.551 229.11C212.551 226.026 213.277 222.986 214.669 220.234C215.377 219.144 216.346 218.248 217.488 217.628C218.63 217.008 219.91 216.683 221.209 216.683C222.509 216.683 223.788 217.008 224.93 217.628C226.072 218.248 227.041 219.144 227.749 220.234ZM216.969 223.001C216.319 224.97 216.027 227.039 216.107 229.11C216.033 231.181 216.325 233.249 216.969 235.219C217.213 236.138 217.753 236.952 218.507 237.532C219.261 238.112 220.186 238.427 221.137 238.427C222.089 238.427 223.014 238.112 223.767 237.532C224.521 236.952 225.062 236.138 225.306 235.219C225.932 233.245 226.224 231.18 226.168 229.11C226.229 227.04 225.938 224.974 225.306 223.001C225.062 222.082 224.521 221.268 223.767 220.688C223.014 220.108 222.089 219.793 221.137 219.793C220.186 219.793 219.261 220.108 218.507 220.688C217.753 221.268 217.213 222.082 216.969 223.001Z" fill="#584938"/>
<path d="M227.75 728.558C229.286 731.255 230.022 734.334 229.87 737.434C230.008 740.532 229.273 743.608 227.75 746.309C227.042 747.399 226.073 748.295 224.931 748.916C223.788 749.536 222.509 749.861 221.21 749.861C219.91 749.861 218.631 749.536 217.489 748.916C216.346 748.295 215.377 747.399 214.67 746.309C213.14 743.61 212.406 740.533 212.55 737.434C212.387 734.333 213.124 731.251 214.67 728.558C215.377 727.468 216.346 726.572 217.489 725.952C218.631 725.331 219.91 725.007 221.21 725.007C222.509 725.007 223.788 725.331 224.931 725.952C226.073 726.572 227.042 727.468 227.75 728.558ZM216.969 731.325C215.82 735.304 215.82 739.527 216.969 743.506C217.185 744.45 217.715 745.293 218.473 745.897C219.23 746.5 220.169 746.829 221.138 746.829C222.106 746.829 223.046 746.5 223.803 745.897C224.56 745.293 225.09 744.45 225.306 743.506C226.455 739.527 226.455 735.304 225.306 731.325C225.062 730.405 224.522 729.592 223.768 729.012C223.014 728.431 222.089 728.117 221.138 728.117C220.186 728.117 219.262 728.431 218.508 729.012C217.754 729.592 217.213 730.405 216.969 731.325Z" fill="#584938"/>
<path d="M1472.36 600.056C1473.06 600.716 1473.62 601.519 1473.99 602.411C1474.36 603.303 1474.54 604.264 1474.51 605.231C1474.49 607.352 1473.65 609.384 1472.18 610.908C1470.64 612.339 1468.98 613.626 1467.22 614.754C1465.27 615.784 1463.66 617.356 1462.58 619.281H1474.55V622.479H1458.09C1458.05 620.168 1458.9 617.93 1460.46 616.227C1462.08 614.565 1463.89 613.106 1465.85 611.879C1467.13 611.069 1468.33 610.142 1469.44 609.112C1470.47 608.063 1471.06 606.663 1471.1 605.195C1471.13 604.642 1471.05 604.088 1470.86 603.568C1470.67 603.048 1470.37 602.575 1469.98 602.177C1469.05 601.458 1467.89 601.101 1466.71 601.171C1466.03 601.101 1465.35 601.206 1464.72 601.477C1464.09 601.747 1463.54 602.174 1463.12 602.715C1462.25 604.008 1461.81 605.542 1461.86 607.099H1458.27C1458.2 604.736 1459.03 602.435 1460.6 600.667C1461.38 599.81 1462.33 599.134 1463.39 598.687C1464.45 598.24 1465.6 598.033 1466.75 598.08C1468.8 598.01 1470.8 598.716 1472.36 600.056Z" fill="#584938"/>
<path d="M1495.64 598.403V601.601H1484.18L1483.49 608.501C1484.19 607.762 1485.05 607.195 1486.01 606.847C1486.95 606.482 1487.95 606.3 1488.96 606.309C1489.98 606.267 1491 606.445 1491.95 606.829C1492.89 607.213 1493.75 607.796 1494.45 608.537C1495.2 609.354 1495.78 610.312 1496.15 611.355C1496.52 612.398 1496.67 613.505 1496.61 614.61C1496.64 615.756 1496.41 616.895 1495.94 617.941C1495.46 618.986 1494.76 619.911 1493.88 620.646C1492.15 622.071 1489.97 622.825 1487.73 622.767C1485.75 622.806 1483.8 622.187 1482.2 621.006C1481.38 620.378 1480.71 619.581 1480.22 618.67C1479.74 617.758 1479.46 616.754 1479.4 615.724H1482.99C1483.01 616.316 1483.15 616.896 1483.42 617.425C1483.69 617.953 1484.07 618.415 1484.54 618.778C1485.59 619.44 1486.83 619.751 1488.08 619.667C1489.32 619.583 1490.51 619.109 1491.47 618.311C1491.97 617.854 1492.36 617.297 1492.62 616.677C1492.88 616.057 1493 615.389 1492.98 614.717C1493.07 613.294 1492.61 611.89 1491.69 610.8C1491.23 610.318 1490.67 609.94 1490.05 609.692C1489.43 609.444 1488.76 609.332 1488.09 609.363C1487.14 609.337 1486.19 609.534 1485.33 609.938C1484.47 610.336 1483.78 611.006 1483.35 611.843H1479.94L1481.23 598.475L1495.64 598.403Z" fill="#584938"/>
<path d="M1473.86 471.308V474.543H1462.4L1461.68 481.442C1462.38 480.686 1463.26 480.117 1464.23 479.789C1465.17 479.418 1466.17 479.234 1467.18 479.249C1468.2 479.208 1469.22 479.385 1470.17 479.77C1471.12 480.154 1471.97 480.736 1472.68 481.478C1474.16 483.128 1474.94 485.297 1474.83 487.514C1474.85 488.669 1474.62 489.813 1474.14 490.864C1473.66 491.914 1472.95 492.845 1472.07 493.588C1470.34 495.01 1468.16 495.762 1465.92 495.707C1463.94 495.748 1462 495.114 1460.43 493.911C1459.59 493.306 1458.9 492.521 1458.41 491.612C1457.91 490.704 1457.63 489.696 1457.59 488.664H1461.18C1461.22 489.256 1461.37 489.833 1461.65 490.359C1461.92 490.885 1462.3 491.349 1462.76 491.719C1463.7 492.367 1464.82 492.683 1465.96 492.618C1467.28 492.616 1468.56 492.13 1469.55 491.252C1470.04 490.792 1470.43 490.235 1470.69 489.615C1470.95 488.996 1471.08 488.33 1471.06 487.658C1471.15 486.229 1470.67 484.822 1469.73 483.741C1469.27 483.265 1468.71 482.894 1468.09 482.652C1467.47 482.411 1466.8 482.304 1466.14 482.34C1465.18 482.31 1464.24 482.507 1463.37 482.915C1462.51 483.301 1461.81 483.974 1461.4 484.819H1457.8L1459.13 471.416L1473.86 471.308Z" fill="#584938"/>
<path d="M1494.63 474.286C1496.03 477.038 1496.75 480.078 1496.75 483.162C1496.75 486.246 1496.03 489.286 1494.63 492.037C1493.93 493.128 1492.97 494.025 1491.83 494.646C1490.69 495.266 1489.41 495.591 1488.11 495.591C1486.81 495.591 1485.54 495.266 1484.4 494.646C1483.26 494.025 1482.29 493.128 1481.59 492.037C1480.04 489.346 1479.3 486.263 1479.47 483.162C1479.3 480.06 1480.03 476.975 1481.59 474.286C1482.29 473.196 1483.26 472.3 1484.4 471.679C1485.54 471.058 1486.81 470.732 1488.11 470.732C1489.41 470.732 1490.69 471.058 1491.83 471.679C1492.97 472.3 1493.93 473.196 1494.63 474.286ZM1483.85 477.053C1483.19 479.018 1482.89 481.09 1482.99 483.162C1482.9 485.234 1483.19 487.305 1483.85 489.27C1484.08 490.197 1484.62 491.021 1485.37 491.609C1486.12 492.198 1487.05 492.517 1488 492.517C1488.96 492.517 1489.89 492.198 1490.64 491.609C1491.39 491.021 1491.93 490.197 1492.15 489.27C1492.8 487.301 1493.09 485.233 1493.02 483.162C1493.1 481.09 1492.8 479.022 1492.15 477.053C1491.93 476.126 1491.39 475.303 1490.64 474.714C1489.89 474.126 1488.96 473.806 1488 473.806C1487.05 473.806 1486.12 474.126 1485.37 474.714C1484.62 475.303 1484.08 476.126 1483.85 477.053Z" fill="#584938"/>
<path d="M1473.4 344.248V347.194L1464.92 368.144H1461.04L1469.7 347.554H1457.3V344.248H1473.4Z" fill="#584938"/>
<path d="M1493.99 344.248V347.446H1482.56L1481.84 354.346C1482.54 353.604 1483.42 353.048 1484.39 352.728C1485.33 352.343 1486.33 352.16 1487.34 352.189C1488.36 352.143 1489.38 352.315 1490.32 352.693C1491.27 353.071 1492.13 353.646 1492.84 354.381C1494.32 356.046 1495.08 358.23 1494.96 360.454C1494.98 361.606 1494.75 362.749 1494.28 363.799C1493.81 364.85 1493.11 365.782 1492.23 366.527C1490.49 367.928 1488.31 368.667 1486.08 368.611C1484.09 368.662 1482.14 368.041 1480.55 366.851C1479.72 366.237 1479.04 365.448 1478.56 364.541C1478.07 363.634 1477.8 362.631 1477.74 361.604H1481.34C1481.37 362.196 1481.52 362.777 1481.8 363.304C1482.07 363.831 1482.45 364.293 1482.92 364.658C1483.98 365.321 1485.22 365.629 1486.47 365.538C1487.72 365.448 1488.9 364.964 1489.85 364.156C1490.35 363.699 1490.74 363.142 1491 362.522C1491.26 361.902 1491.38 361.234 1491.36 360.562C1491.44 359.134 1490.97 357.73 1490.03 356.645C1489.57 356.173 1489.01 355.804 1488.39 355.562C1487.77 355.321 1487.1 355.213 1486.44 355.244C1485.48 355.206 1484.52 355.391 1483.64 355.783C1482.78 356.195 1482.09 356.877 1481.66 357.723H1478.07L1479.4 344.32L1493.99 344.248Z" fill="#584938"/>
<path d="M1466.78 217.146V241.079H1463.19V221.53C1461.65 222.991 1459.75 224.03 1457.69 224.549V220.955C1458.95 220.635 1460.16 220.152 1461.29 219.518C1462.4 218.875 1463.42 218.075 1464.31 217.146H1466.78Z" fill="#584938"/>
<path d="M1488.2 220.234C1489.59 222.986 1490.32 226.026 1490.32 229.11C1490.32 232.194 1489.59 235.234 1488.2 237.986C1487.49 239.076 1486.53 239.972 1485.38 240.592C1484.24 241.212 1482.96 241.537 1481.66 241.537C1480.36 241.537 1479.08 241.212 1477.94 240.592C1476.8 239.972 1475.83 239.076 1475.12 237.986C1473.75 235.228 1473.04 232.19 1473.04 229.11C1473.04 226.03 1473.75 222.992 1475.12 220.234C1475.83 219.144 1476.8 218.248 1477.94 217.628C1479.08 217.008 1480.36 216.683 1481.66 216.683C1482.96 216.683 1484.24 217.008 1485.38 217.628C1486.53 218.248 1487.49 219.144 1488.2 220.234ZM1477.42 223.001C1476.74 224.963 1476.44 227.035 1476.52 229.11C1476.44 231.184 1476.75 233.256 1477.42 235.219C1477.65 236.14 1478.19 236.959 1478.93 237.544C1479.68 238.13 1480.6 238.45 1481.55 238.453C1482.51 238.446 1483.43 238.124 1484.19 237.54C1484.94 236.955 1485.48 236.14 1485.72 235.219C1486.37 233.249 1486.66 231.181 1486.59 229.11C1486.66 227.039 1486.37 224.97 1485.72 223.001C1485.49 222.074 1484.95 221.251 1484.2 220.664C1483.44 220.078 1482.51 219.762 1481.55 219.767C1480.62 219.788 1479.72 220.116 1478.99 220.701C1478.27 221.286 1477.75 222.094 1477.53 223.001H1477.42Z" fill="#584938"/>
<path d="M1510.01 220.234C1511.38 222.992 1512.1 226.03 1512.1 229.11C1512.1 232.19 1511.38 235.228 1510.01 237.986C1509.31 239.076 1508.34 239.972 1507.19 240.592C1506.05 241.212 1504.77 241.537 1503.47 241.537C1502.17 241.537 1500.9 241.212 1499.75 240.592C1498.61 239.972 1497.64 239.076 1496.93 237.986C1495.54 235.234 1494.82 232.194 1494.82 229.11C1494.82 226.026 1495.54 222.986 1496.93 220.234C1497.64 219.144 1498.61 218.248 1499.75 217.628C1500.9 217.008 1502.17 216.683 1503.47 216.683C1504.77 216.683 1506.05 217.008 1507.19 217.628C1508.34 218.248 1509.31 219.144 1510.01 220.234ZM1499.23 223.001C1498.57 224.966 1498.27 227.038 1498.37 229.11C1498.28 231.182 1498.57 233.253 1499.23 235.219C1499.46 236.145 1500 236.969 1500.75 237.557C1501.5 238.146 1502.43 238.465 1503.38 238.465C1504.34 238.465 1505.27 238.146 1506.02 237.557C1506.77 236.969 1507.3 236.145 1507.53 235.219C1508.19 233.251 1508.5 231.183 1508.43 229.11C1508.5 227.036 1508.2 224.967 1507.53 223.001C1507.3 222.074 1506.77 221.251 1506.02 220.663C1505.27 220.074 1504.34 219.755 1503.38 219.755C1502.43 219.755 1501.5 220.074 1500.75 220.663C1500 221.251 1499.46 222.074 1499.23 223.001Z" fill="#584938"/>
<path d="M1472.86 728.558C1474.38 731.258 1475.11 734.337 1474.94 737.434C1475.09 740.529 1474.37 743.604 1472.86 746.309C1472.15 747.399 1471.18 748.295 1470.04 748.916C1468.9 749.536 1467.62 749.861 1466.32 749.861C1465.02 749.861 1463.74 749.536 1462.6 748.916C1461.46 748.295 1460.49 747.399 1459.78 746.309C1458.25 743.61 1457.51 740.533 1457.66 737.434C1457.5 734.333 1458.23 731.251 1459.78 728.558C1460.49 727.468 1461.46 726.572 1462.6 725.952C1463.74 725.331 1465.02 725.007 1466.32 725.007C1467.62 725.007 1468.9 725.331 1470.04 725.952C1471.18 726.572 1472.15 727.468 1472.86 728.558ZM1462.08 731.325C1460.93 735.304 1460.93 739.527 1462.08 743.506C1462.29 744.45 1462.82 745.293 1463.58 745.897C1464.34 746.5 1465.28 746.829 1466.25 746.829C1467.21 746.829 1468.15 746.5 1468.91 745.897C1469.67 745.293 1470.2 744.45 1470.41 743.506C1471.56 739.527 1471.56 735.304 1470.41 731.325C1470.17 730.405 1469.63 729.592 1468.88 729.012C1468.12 728.431 1467.2 728.117 1466.25 728.117C1465.3 728.117 1464.37 728.431 1463.62 729.012C1462.86 729.592 1462.32 730.405 1462.08 731.325Z" fill="#584938"/>
<path d="M513.783 634.123C513.528 634.293 513.241 634.406 512.939 634.457C512.638 634.507 512.329 634.493 512.033 634.415C511.737 634.337 511.462 634.196 511.225 634.003C510.987 633.81 510.793 633.57 510.656 633.296C510.485 632.783 510.503 632.225 510.708 631.724C510.912 631.223 511.289 630.812 511.77 630.565L517.592 626.972C518.16 626.619 518.799 626.394 519.463 626.314C520.127 626.233 520.8 626.299 521.437 626.505C522.039 626.715 522.551 627.126 522.885 627.669C523.219 628.213 523.354 628.855 523.269 629.487V648.208C523.327 648.58 523.298 648.961 523.185 649.32C523.072 649.679 522.877 650.007 522.616 650.278C522.355 650.549 522.035 650.757 521.681 650.884C521.327 651.011 520.948 651.055 520.574 651.011C520.202 651.047 519.826 650.999 519.476 650.869C519.125 650.739 518.808 650.532 518.549 650.262C518.289 649.992 518.094 649.668 517.979 649.312C517.863 648.956 517.829 648.579 517.879 648.208V631.571L513.783 634.123Z" fill="#584938"/>
<path d="M530.887 638.402C530.887 631.215 534.229 626.364 540.446 626.364C546.662 626.364 549.609 630.927 549.573 638.509C549.537 646.092 546.95 651.158 540.266 651.158C533.582 651.158 530.887 645.696 530.887 638.402ZM543.608 638.402C543.608 632.904 542.817 629.922 540.302 629.958C537.786 629.994 536.708 632.904 536.708 638.366C536.708 643.828 537.571 647.421 540.302 647.385C543.033 647.349 543.68 644.043 543.608 638.474V638.402Z" fill="#584938"/>
<path d="M555.502 650.616C555.062 650.404 554.716 650.038 554.53 649.587C554.345 649.136 554.332 648.631 554.496 648.172C554.593 647.802 554.813 647.476 555.12 647.248C555.427 647.019 555.803 646.902 556.185 646.914C557.105 647.151 558.042 647.319 558.988 647.417C559.815 647.488 560.649 647.373 561.426 647.08C562.204 646.787 562.906 646.324 563.482 645.725C564.057 645.125 564.491 644.405 564.752 643.616C565.013 642.827 565.093 641.989 564.988 641.165C563.631 642.32 561.882 642.912 560.102 642.817C559.087 642.824 558.083 642.616 557.156 642.206C556.228 641.796 555.397 641.195 554.718 640.442C554.04 639.688 553.528 638.8 553.217 637.834C552.906 636.869 552.803 635.848 552.915 634.84C552.86 633.686 553.052 632.533 553.477 631.458C553.902 630.384 554.55 629.411 555.379 628.606C556.208 627.801 557.199 627.181 558.286 626.788C559.372 626.394 560.53 626.237 561.683 626.324C562.93 626.268 564.175 626.48 565.335 626.944C566.494 627.408 567.541 628.114 568.405 629.016C569.269 629.918 569.931 630.994 570.345 632.172C570.76 633.35 570.918 634.602 570.81 635.847C571.097 645.872 567.216 651.154 558.484 651.154C557.464 651.174 556.451 650.991 555.502 650.616ZM565.132 637.248C565.345 636.55 565.442 635.822 565.42 635.092C565.42 632.469 564.198 629.954 561.826 629.954C559.455 629.954 558.484 631.966 558.484 634.302C558.484 637.356 559.778 638.973 561.719 638.973C562.392 639.036 563.07 638.907 563.674 638.602C564.278 638.297 564.783 637.828 565.132 637.248Z" fill="#584938"/>
<path d="M815.017 526.971C815.017 525.569 815.34 525.031 816.813 523.917C818.962 522.427 820.938 520.703 822.707 518.778C824.395 517.22 825.456 515.099 825.689 512.813C825.693 511.913 825.359 511.046 824.753 510.38C824.148 509.715 823.315 509.301 822.419 509.22C821.712 509.156 821 509.245 820.33 509.481C819.661 509.717 819.05 510.093 818.538 510.586C818.356 510.804 818.128 510.98 817.87 511.1C817.613 511.221 817.331 511.284 817.047 511.284C816.762 511.284 816.481 511.221 816.223 511.1C815.966 510.98 815.738 510.804 815.556 510.586C815.381 510.369 815.251 510.119 815.172 509.851C815.094 509.584 815.069 509.304 815.099 509.027C815.129 508.75 815.214 508.481 815.347 508.237C815.481 507.993 815.662 507.777 815.879 507.603C817.895 505.946 820.461 505.112 823.066 505.267C827.737 505.267 831.187 507.747 831.187 512.454C830.728 515.616 829.193 518.522 826.839 520.682C825.227 522.294 823.497 523.783 821.664 525.138C821.305 525.39 821.413 525.642 821.88 525.642H829.642C831.043 525.642 831.798 526.324 831.798 527.546C831.798 528.768 831.043 529.558 829.642 529.558H817.927C815.735 529.378 815.053 528.372 815.017 526.971Z" fill="#584938"/>
<path d="M838.733 529.486C838.299 529.269 837.958 528.902 837.773 528.453C837.588 528.004 837.572 527.502 837.727 527.042C837.82 526.665 838.045 526.335 838.362 526.111C838.679 525.886 839.065 525.784 839.452 525.821C840.365 526.025 841.289 526.18 842.219 526.288C843.048 526.358 843.882 526.242 844.661 525.949C845.44 525.656 846.144 525.194 846.722 524.595C847.301 523.997 847.738 523.277 848.003 522.488C848.268 521.699 848.355 520.862 848.256 520.035C846.898 521.191 845.149 521.782 843.369 521.688C842.354 521.694 841.35 521.486 840.423 521.077C839.495 520.667 838.664 520.066 837.986 519.312C837.307 518.559 836.795 517.67 836.484 516.704C836.173 515.739 836.07 514.719 836.182 513.711C836.128 512.556 836.319 511.404 836.744 510.329C837.169 509.254 837.817 508.282 838.646 507.477C839.475 506.672 840.466 506.052 841.553 505.658C842.639 505.265 843.797 505.107 844.95 505.195C846.197 505.146 847.441 505.361 848.599 505.827C849.758 506.293 850.804 506.998 851.67 507.898C852.535 508.798 853.201 509.87 853.622 511.046C854.043 512.221 854.21 513.472 854.113 514.717C854.4 524.743 850.519 530.061 841.788 530.061C840.741 530.075 839.702 529.88 838.733 529.486ZM848.363 516.118C848.596 515.425 848.694 514.693 848.651 513.963C848.651 511.339 847.429 508.824 845.057 508.824C842.686 508.824 841.716 510.872 841.716 513.208C841.716 516.227 843.045 517.844 844.95 517.844C845.623 517.907 846.301 517.778 846.905 517.473C847.509 517.168 848.015 516.698 848.363 516.118Z" fill="#584938"/>
<path d="M859.862 528.731C859.392 528.44 859.042 527.99 858.877 527.462C858.712 526.934 858.743 526.364 858.964 525.857C859.187 525.432 859.563 525.106 860.017 524.946C860.47 524.786 860.967 524.804 861.407 524.995C862.525 525.569 863.748 525.91 865.001 526C867.516 526 869.457 524.995 869.457 522.731C869.457 519.856 867.948 519.137 864.031 518.885C863.792 518.902 863.553 518.867 863.329 518.782C863.106 518.697 862.903 518.564 862.736 518.393C862.568 518.223 862.44 518.018 862.36 517.792C862.279 517.567 862.249 517.327 862.27 517.089C862.249 516.846 862.28 516.602 862.362 516.372C862.445 516.142 862.576 515.933 862.746 515.759C862.917 515.585 863.124 515.45 863.352 515.363C863.579 515.276 863.823 515.24 864.067 515.256C867.66 515.256 869.097 514.107 869.097 511.951C869.097 509.794 867.876 509.076 865.504 509.076C864.405 509.127 863.355 509.544 862.522 510.262C862.286 510.406 862.024 510.502 861.751 510.544C861.477 510.587 861.199 510.575 860.93 510.51C860.661 510.445 860.408 510.328 860.185 510.165C859.962 510.002 859.773 509.797 859.629 509.561C859.485 509.325 859.389 509.063 859.346 508.79C859.304 508.517 859.315 508.238 859.38 507.969C859.445 507.701 859.563 507.448 859.725 507.225C859.888 507.001 860.094 506.812 860.33 506.668C862.132 505.632 864.18 505.098 866.259 505.123C870.571 505.123 874.272 507.1 874.272 511.304C874.228 512.586 873.736 513.812 872.883 514.77C872.03 515.728 870.869 516.358 869.601 516.55C871.119 516.616 872.552 517.272 873.593 518.38C874.634 519.488 875.2 520.959 875.17 522.479C875.17 527.007 871.577 529.666 865.54 529.666C863.601 529.8 861.657 529.48 859.862 528.731Z" fill="#584938"/>
<path d="M1107.27 172.015C1107.01 172.184 1106.72 172.297 1106.42 172.344C1106.11 172.392 1105.8 172.375 1105.51 172.293C1105.21 172.212 1104.94 172.067 1104.7 171.871C1104.47 171.674 1104.27 171.429 1104.14 171.153C1103.97 170.645 1103.99 170.093 1104.2 169.598C1104.4 169.103 1104.78 168.698 1105.25 168.458L1111.08 164.865C1111.65 164.524 1112.29 164.311 1112.95 164.236C1113.61 164.162 1114.29 164.229 1114.92 164.434C1115.53 164.643 1116.04 165.053 1116.38 165.595C1116.72 166.138 1116.87 166.781 1116.79 167.417V186.138C1116.83 186.521 1116.8 186.908 1116.68 187.275C1116.56 187.642 1116.37 187.981 1116.11 188.268C1115.86 188.555 1115.54 188.785 1115.19 188.943C1114.84 189.1 1114.46 189.181 1114.08 189.181C1113.69 189.181 1113.31 189.1 1112.96 188.943C1112.61 188.785 1112.29 188.555 1112.04 188.268C1111.78 187.981 1111.59 187.642 1111.47 187.275C1111.36 186.908 1111.32 186.521 1111.36 186.138V169.5L1107.27 172.015Z" fill="#584938"/>
<path d="M1125.38 191.166C1125.74 189.585 1126.13 186.638 1126.35 184.913C1126.35 184.574 1126.42 184.239 1126.57 183.932C1126.71 183.625 1126.92 183.354 1127.18 183.138C1127.44 182.921 1127.75 182.766 1128.07 182.681C1128.4 182.597 1128.75 182.586 1129.08 182.65C1129.43 182.697 1129.77 182.821 1130.08 183.012C1130.38 183.204 1130.64 183.458 1130.83 183.759C1131.03 184.059 1131.15 184.398 1131.2 184.753C1131.26 185.107 1131.23 185.468 1131.13 185.811C1130.53 188.019 1129.61 190.125 1128.4 192.064C1127.79 193.034 1127.17 193.43 1126.2 193.07C1125.85 192.919 1125.57 192.637 1125.41 192.282C1125.26 191.928 1125.25 191.529 1125.38 191.166Z" fill="#584938"/>
<path d="M1135.37 176.251C1135.37 169.064 1138.75 164.249 1144.93 164.249C1151.11 164.249 1154.09 168.813 1154.05 176.395C1154.02 183.977 1151.43 189.044 1144.75 189.044C1138.06 189.044 1135.37 183.582 1135.37 176.251ZM1148.12 176.251C1148.12 170.753 1147.3 167.771 1144.78 167.806C1142.27 167.842 1141.19 170.753 1141.19 176.215C1141.19 181.677 1142.05 185.271 1144.78 185.271C1147.51 185.271 1148.09 181.929 1148.09 176.323L1148.12 176.251Z" fill="#584938"/>
<path d="M1161.6 172.015C1161.34 172.184 1161.05 172.297 1160.75 172.344C1160.45 172.392 1160.14 172.375 1159.84 172.293C1159.54 172.212 1159.27 172.067 1159.03 171.871C1158.8 171.674 1158.61 171.429 1158.47 171.153C1158.3 170.645 1158.32 170.093 1158.53 169.598C1158.73 169.103 1159.11 168.698 1159.59 168.458L1165.41 164.865C1165.98 164.524 1166.62 164.311 1167.28 164.236C1167.95 164.162 1168.62 164.229 1169.25 164.434C1169.86 164.643 1170.37 165.053 1170.71 165.595C1171.05 166.138 1171.2 166.781 1171.12 167.417V186.138C1171.16 186.521 1171.13 186.908 1171.01 187.275C1170.9 187.642 1170.7 187.981 1170.45 188.268C1170.19 188.555 1169.88 188.785 1169.52 188.943C1169.17 189.1 1168.79 189.181 1168.41 189.181C1168.02 189.181 1167.64 189.1 1167.29 188.943C1166.94 188.785 1166.63 188.555 1166.37 188.268C1166.11 187.981 1165.92 187.642 1165.8 187.275C1165.69 186.908 1165.65 186.521 1165.69 186.138V169.5L1161.6 172.015Z" fill="#584938"/>
<path d="M1178.7 176.251C1178.7 169.064 1182.05 164.249 1188.26 164.249C1194.48 164.249 1197.42 168.813 1197.39 176.395C1197.35 183.977 1194.77 189.044 1188.08 189.044C1181.4 189.044 1178.7 183.582 1178.7 176.251ZM1191.46 176.251C1191.46 170.753 1190.63 167.771 1188.12 167.806C1185.6 167.842 1184.52 170.753 1184.7 176.215C1184.88 181.677 1185.57 185.271 1188.3 185.271C1191.03 185.271 1191.5 181.929 1191.46 176.323V176.251Z" fill="#584938"/>
<path d="M595.82 88.718C595.82 78.1204 587.229 69.5293 576.631 69.5293C566.034 69.5293 557.443 78.1204 557.443 88.718C557.443 99.3156 566.034 107.907 576.631 107.907C587.229 107.907 595.82 99.3156 595.82 88.718Z" fill="#C9D250"/>
<path d="M615.583 86.2049L613.499 83.1862C618.948 80.9869 623.853 77.6271 627.873 73.3403H630.64C634.515 77.7837 639.463 81.1609 645.013 83.1502L642.965 86.169C641.424 85.5322 639.923 84.7997 638.473 83.9766V85.7382H631.286V89.3316H643.073V92.6732H631.286V100.758H634.233C635.297 98.5887 636.198 96.3421 636.928 94.0383L640.162 95.2244C639.508 97.119 638.727 98.9678 637.826 100.758H644.33V104.136H614.469V100.758H621.045C620.444 98.9245 619.661 97.1551 618.709 95.4762L621.944 94.2901C622.993 96.362 623.847 98.5276 624.495 100.758H627.513V92.6732H615.691V89.7983H627.513V86.2049H620.327V84.3003C618.779 85.016 617.196 85.6518 615.583 86.2049ZM629.31 76.7188C627.124 78.905 624.716 80.8556 622.123 82.5396H635.922C633.476 80.9347 631.253 79.0133 629.31 76.8258V76.7188Z" fill="#584938"/>
<path d="M651.266 89.5422L649.433 87.2068C651.829 85.3897 653.61 82.8812 654.536 80.02L657.518 80.4867L656.979 81.9606H661.327V79.0138H653.062V81.9606H649.972V76.031H655.47C655.232 75.27 654.944 74.5262 654.607 73.8035L658.201 73.228C658.452 74.0545 658.704 75.0248 658.956 76.031H664.489V81.9606H662.98V84.26C662.262 85.8091 661.382 87.2783 660.357 88.6438C662.19 89.9374 663.95 91.1953 665.352 92.417L663.016 94.7524L662.693 94.4655V104.634H659.387V103.017H654.715V104.814H651.625V94.8603L650.798 95.148L649.397 92.3091C651.701 91.7145 653.848 90.6233 655.685 89.1114L653.314 87.5656C652.669 88.263 651.986 88.9231 651.266 89.5422ZM654.536 93.747H661.722C660.68 92.8487 659.566 91.9503 658.345 91.052C657.18 92.0908 655.903 92.9948 654.536 93.747ZM659.423 100.107V96.514H654.715V100.107H659.423ZM659.423 84.7995H655.578L655.111 85.554C656.045 86.093 656.907 86.5959 657.734 87.1708C658.336 86.4176 658.889 85.6257 659.387 84.7995H659.423ZM670.598 79.9481L670.814 77.6487H664.956V74.4861H680.552V77.6487H674.335L674.119 79.9481H679.546V98.3458H676.419C678.153 99.6851 679.765 101.177 681.235 102.802L678.863 105.174C677.428 103.372 675.788 101.744 673.976 100.322L676.06 98.3458H669.376L671.64 100.322C670.057 102.289 668.178 103.999 666.07 105.39L663.986 102.695C665.908 101.526 667.63 100.057 669.089 98.3458H665.855V79.9481H670.598ZM676.204 85.1224V82.8949H669.017V85.1224H676.204ZM676.204 90.1177V87.9613H669.017V90.1177H676.204ZM676.204 92.9206H669.017V95.256H676.204V92.9206Z" fill="#584938"/>
<path d="M699.238 73.228C697.856 75.4795 696.757 77.8935 695.968 80.4148C694.959 83.2773 694.449 86.2923 694.459 89.3272C694.454 92.3617 694.965 95.3749 695.968 98.2387C696.779 100.752 697.876 103.163 699.238 105.426H696.004C694.437 103.283 693.168 100.937 692.231 98.4537C690.131 92.6487 690.131 86.2917 692.231 80.4867C693.12 77.9153 694.392 75.4925 696.004 73.3L699.238 73.228Z" fill="#584938"/>
<path d="M713.539 74.7439C712.943 76.8849 712.149 78.966 711.168 80.9604V105.18H707.754V86.7812C706.807 88.1294 705.787 89.4252 704.699 90.6623L703.55 87.0689C706.668 82.9785 708.951 78.3141 710.269 73.342L713.539 74.7439ZM716.917 97.7772C716.358 100.383 715.438 102.899 714.186 105.252L711.671 103.635C712.823 101.618 713.659 99.4366 714.15 97.1666L716.917 97.7772ZM713.97 78.4811V75.4264H721.517C721.229 74.8874 720.906 74.3846 720.582 73.8815L724.391 73.27C724.771 73.962 725.095 74.6833 725.361 75.4264H733.447V78.3732H730.105L729.386 80.5647H734.525V83.5475H712.964V80.5647H718.211L717.6 78.3732L713.97 78.4811ZM732.333 84.8766V95.6568H724.643C725.633 96.7064 726.534 97.8369 727.338 99.0352L725.002 100.688C724.098 99.3049 723.102 97.984 722.02 96.7349L723.673 95.6568H715.12V84.8766H732.333ZM721.552 105C721.101 105.06 720.642 105.015 720.211 104.867C719.78 104.72 719.389 104.475 719.068 104.152C718.748 103.828 718.507 103.434 718.364 103.001C718.222 102.569 718.182 102.109 718.247 101.658V97.2745H721.445V100.868C721.433 101.006 721.452 101.145 721.501 101.275C721.55 101.405 721.627 101.522 721.727 101.618C721.827 101.714 721.947 101.788 722.078 101.832C722.209 101.876 722.349 101.891 722.487 101.874H726.332C726.742 101.917 727.154 101.801 727.482 101.55C727.805 101.335 728.021 100.688 728.092 99.6458L731.003 100.508C730.716 102.664 730.32 103.886 729.674 104.102C728.826 104.559 727.868 104.77 726.907 104.712L721.552 105ZM729.206 89.0815V87.4286H718.426V89.0815H729.206ZM729.206 91.4887H718.426V93.1056H729.206V91.4887ZM726.152 80.7086L726.871 78.5171H721.121L721.696 80.7086H726.152ZM735.638 103.275L732.979 104.497C731.98 102.157 730.778 99.9077 729.386 97.7772L732.153 96.8788C733.474 98.8896 734.604 101.019 735.531 103.239L735.638 103.275Z" fill="#584938"/>
<path d="M770.315 85.0154V88.6088H761.26V100.179C761.26 101.078 761.619 101.509 762.41 101.509H766.183C766.403 101.503 766.617 101.426 766.791 101.29C766.965 101.154 767.092 100.967 767.153 100.755C767.503 99.1017 767.659 97.4129 767.62 95.7236L770.854 96.7658C770.942 99.1332 770.5 101.491 769.56 103.666C769.204 104.021 768.776 104.297 768.306 104.476C767.835 104.656 767.332 104.734 766.83 104.707H761.404C760.904 104.756 760.399 104.691 759.928 104.516C759.458 104.341 759.033 104.061 758.687 103.697C758.34 103.334 758.081 102.896 757.93 102.417C757.778 101.939 757.737 101.432 757.81 100.935V88.6088H752.815V89.2922C752.855 92.9781 751.859 96.6008 749.941 99.7486C747.835 102.447 744.929 104.409 741.64 105.355L739.735 102.336C742.672 101.538 745.285 99.8412 747.21 97.4843C748.596 94.9758 749.325 92.1582 749.33 89.2922V88.6088H740.849V85.0154H770.315ZM767.333 74.9546V78.548H743.365V74.9546H767.333Z" fill="#584938"/>
<path d="M779.011 73.2288C780.608 75.4299 781.879 77.8506 782.784 80.4156C784.884 86.2205 784.884 92.5775 782.784 98.3825C781.832 100.859 780.564 103.203 779.011 105.354H775.741C777.084 103.077 778.192 100.669 779.047 98.1676C780.017 95.2952 780.526 92.2876 780.556 89.256C780.531 86.2241 780.021 83.2157 779.047 80.3445C778.213 77.8345 777.104 75.4243 775.741 73.1577L779.011 73.2288Z" fill="#584938"/>
</svg>
