<svg width="1369" height="57" viewBox="0 0 1369 57" fill="none" xmlns="http://www.w3.org/2000/svg">
<path d="M41.86 36.4442C41.86 50.5142 35.28 56.6042 20.72 56.6042C6.23 56.6042 0 50.0242 0 36.3742V9.42422C0 5.43422 2.24 3.19422 6.02 3.19422C9.8 3.19422 12.04 5.36422 12.04 9.42422V36.5142C12.04 44.8442 14.42 48.3442 20.72 48.3442C26.88 48.3442 30.31 44.8442 30.31 36.5142V9.14422C30.31 5.36422 32.34 3.19422 35.98 3.19422C39.76 3.19422 41.86 5.29422 41.86 9.14422V36.4442Z" fill="#594A39"/>
<path d="M80.7034 22.3042C81.0534 26.1542 78.6034 27.3442 75.1734 27.7642C71.4634 28.2542 67.9634 31.8942 66.9134 36.5142V51.0042C66.9134 54.9242 64.5334 56.6042 60.6834 56.6042C56.8334 56.6042 55.0134 54.8542 55.0134 51.0042V22.9342C55.0134 19.5742 57.2534 18.1042 60.6834 18.1042C63.9034 18.1042 66.0034 19.7842 66.0034 23.2142V26.5042C67.4734 20.6942 70.7634 18.3142 74.8934 18.1742C78.0434 18.1042 80.4234 19.1542 80.7034 22.3042Z" fill="#594A39"/>
<path d="M109.907 18.1042C118.027 18.1042 125.727 22.8642 125.727 37.1442C125.727 49.0442 119.567 56.6042 109.977 56.6042C104.447 56.6042 101.647 53.7342 100.317 51.8442C100.107 54.8542 98.6371 56.6042 94.6471 56.6042C91.2871 56.6042 89.3271 54.4342 89.3271 50.7242V6.48422C89.3271 2.98422 91.2871 0.954219 95.1371 0.954219C99.0571 0.954219 101.227 3.05422 101.227 6.48422V21.7442C103.537 19.6442 106.547 18.1042 109.907 18.1042ZM107.527 48.6942C112.007 48.6942 114.387 44.7742 114.387 37.0042C114.387 30.2842 111.517 26.1542 106.757 26.1542C104.027 26.1542 101.927 27.9742 100.527 30.5642V43.5842C101.297 45.6842 103.257 48.6942 107.527 48.6942Z" fill="#594A39"/>
<path d="M165.132 22.7242C167.232 24.9642 168.282 28.1142 168.282 32.1742V50.7942C168.282 54.5742 166.812 56.6042 163.172 56.6042C159.462 56.6042 157.782 54.5742 157.782 50.7942V50.5842C155.472 54.6442 151.132 56.6042 145.602 56.6042C138.182 56.6042 133.632 52.2642 133.632 45.3342C133.632 37.0042 141.402 31.8242 153.162 31.8242C154.562 31.8242 156.032 31.8942 156.942 32.0342V31.4042C156.942 27.9042 154.982 25.8042 151.272 25.6642C148.262 25.5242 145.042 26.8542 142.382 29.7242C140.702 31.5442 138.252 31.8242 136.502 30.2842C134.682 28.8142 134.472 26.5042 136.082 24.4742C138.602 21.3942 144.132 18.1042 151.482 18.1042C157.992 18.1042 162.122 19.5742 165.132 22.7242ZM157.082 42.7442V39.1742C156.172 39.0342 154.632 38.8942 153.302 38.9642C146.582 39.3142 144.272 41.9042 144.412 44.6342C144.552 47.0142 146.022 48.4142 148.892 48.4142C152.182 48.4142 155.472 46.1042 157.082 42.7442Z" fill="#594A39"/>
<path d="M202.291 18.1042C210.621 18.1042 215.801 23.4242 215.801 32.0342V50.7942C215.801 54.5742 213.701 56.6042 209.851 56.6042C206.001 56.6042 203.901 54.5742 203.901 50.7942V32.9442C203.901 28.5342 202.081 25.8742 198.861 25.8742C195.781 25.8742 192.981 28.6742 192.071 32.5942V50.7942C192.071 54.5742 189.971 56.6042 186.121 56.6042C182.271 56.6042 180.171 54.5742 180.171 50.7942V23.5642C180.171 20.0642 182.131 18.1742 185.631 18.1742C189.201 18.1742 191.161 19.9242 191.161 23.4942V24.6142C193.261 20.3442 197.601 18.1042 202.291 18.1042Z" fill="#594A39"/>
<path d="M293.661 48.2042C295.411 51.3542 294.781 54.0842 291.701 55.6942C288.481 57.3742 285.541 56.6742 283.791 53.3842L274.621 36.1642C274.201 36.1642 273.781 36.1642 273.361 36.1642C271.681 36.1642 269.861 36.1642 268.391 36.0942V50.5142C268.391 54.5042 266.221 56.6042 262.441 56.6042C258.451 56.6042 256.211 54.5042 256.211 50.5142V10.1942C256.211 6.76422 257.961 4.59422 261.321 4.10422C264.121 3.68422 268.671 3.54422 272.451 3.54422C286.731 3.54422 294.221 9.42422 294.221 19.9242C294.221 27.4142 290.301 31.8942 284.841 34.1342C288.901 40.2942 291.701 44.7042 293.661 48.2042ZM272.871 28.3942C278.751 28.3942 282.181 25.3842 282.181 19.9942C282.181 14.3242 279.031 11.3142 272.801 11.3142C271.331 11.3142 269.651 11.3842 268.811 11.5242C268.461 11.5942 268.251 11.8042 268.251 12.2242V28.3242C269.721 28.3942 271.401 28.3942 272.871 28.3942Z" fill="#594A39"/>
<path d="M330.7 46.3842C332.59 44.9842 334.62 45.1242 335.95 46.6642C337.28 48.1342 337.35 50.1642 335.88 51.7742C333.64 54.2942 328.18 56.6042 321.25 56.6042C310.26 56.6042 301.79 51.0742 301.79 38.1942C301.79 25.8042 309.07 18.0342 320.76 18.0342C332.24 18.0342 337.98 26.5742 337.98 34.8342C337.98 38.8242 335.95 40.9242 331.68 40.9242H313.9C314.6 46.7342 317.19 48.9042 322.16 49.0442C325.59 49.1142 328.39 48.1342 330.7 46.3842ZM320.9 25.3842C316.49 25.3842 314.53 28.3942 313.9 33.2242H326.64C327.06 33.2242 327.27 33.0142 327.27 32.5942C327.27 27.7642 324.82 25.3842 320.9 25.3842Z" fill="#594A39"/>
<path d="M370.103 18.1042C378.433 18.1042 383.613 23.4242 383.613 32.0342V50.7942C383.613 54.5742 381.513 56.6042 377.663 56.6042C373.813 56.6042 371.713 54.5742 371.713 50.7942V32.9442C371.713 28.5342 369.893 25.8742 366.673 25.8742C363.593 25.8742 360.793 28.6742 359.883 32.5942V50.7942C359.883 54.5742 357.783 56.6042 353.933 56.6042C350.083 56.6042 347.983 54.5742 347.983 50.7942V23.5642C347.983 20.0642 349.943 18.1742 353.443 18.1742C357.013 18.1742 358.973 19.9242 358.973 23.4942V24.6142C361.073 20.3442 365.413 18.1042 370.103 18.1042Z" fill="#594A39"/>
<path d="M422.16 46.3842C424.05 44.9842 426.08 45.1242 427.41 46.6642C428.74 48.1342 428.81 50.1642 427.34 51.7742C425.1 54.2942 419.64 56.6042 412.71 56.6042C401.72 56.6042 393.25 51.0742 393.25 38.1942C393.25 25.8042 400.53 18.0342 412.22 18.0342C423.7 18.0342 429.44 26.5742 429.44 34.8342C429.44 38.8242 427.41 40.9242 423.14 40.9242H405.36C406.06 46.7342 408.65 48.9042 413.62 49.0442C417.05 49.1142 419.85 48.1342 422.16 46.3842ZM412.36 25.3842C407.95 25.3842 405.99 28.3942 405.36 33.2242H418.1C418.52 33.2242 418.73 33.0142 418.73 32.5942C418.73 27.7642 416.28 25.3842 412.36 25.3842Z" fill="#594A39"/>
<path d="M489.842 18.3842C493.062 19.0842 494.462 21.4642 493.552 24.7542C491.242 33.4342 488.652 43.2342 486.202 50.5842C484.872 54.5742 482.632 56.6042 478.362 56.6042C474.232 56.6042 472.202 54.4342 470.942 50.3742C468.842 43.7242 467.092 37.4942 465.692 30.4242H465.342C463.802 37.6342 461.912 43.7942 459.462 50.5142C457.992 54.5742 456.102 56.6042 452.112 56.6042C447.982 56.6042 445.112 54.5742 443.922 50.5842C441.332 41.8342 438.952 33.5042 436.572 24.9642C435.662 21.6742 437.272 19.2242 440.702 18.3842C443.712 17.6142 446.722 19.0142 447.492 22.3742C449.452 31.0542 452.042 41.0642 453.092 45.4742H453.372C454.422 41.1342 457.152 30.9142 458.832 23.8442C459.742 19.9942 461.842 18.1042 465.552 18.1042C469.262 18.1042 471.292 20.0642 472.272 23.9142C474.092 31.1942 477.032 40.9942 477.942 45.6142H478.222C479.202 41.0642 481.722 30.8442 483.472 22.3042C484.172 19.0142 486.552 17.6842 489.842 18.3842Z" fill="#594A39"/>
<path d="M531.243 22.7242C533.343 24.9642 534.393 28.1142 534.393 32.1742V50.7942C534.393 54.5742 532.923 56.6042 529.283 56.6042C525.573 56.6042 523.893 54.5742 523.893 50.7942V50.5842C521.583 54.6442 517.243 56.6042 511.713 56.6042C504.293 56.6042 499.743 52.2642 499.743 45.3342C499.743 37.0042 507.513 31.8242 519.273 31.8242C520.673 31.8242 522.143 31.8942 523.053 32.0342V31.4042C523.053 27.9042 521.093 25.8042 517.383 25.6642C514.373 25.5242 511.153 26.8542 508.493 29.7242C506.813 31.5442 504.363 31.8242 502.613 30.2842C500.793 28.8142 500.583 26.5042 502.193 24.4742C504.713 21.3942 510.243 18.1042 517.593 18.1042C524.103 18.1042 528.233 19.5742 531.243 22.7242ZM523.193 42.7442V39.1742C522.283 39.0342 520.743 38.8942 519.413 38.9642C512.693 39.3142 510.383 41.9042 510.523 44.6342C510.663 47.0142 512.133 48.4142 515.003 48.4142C518.293 48.4142 521.583 46.1042 523.193 42.7442Z" fill="#594A39"/>
<path d="M556.502 56.6042C549.152 56.6042 546.282 53.8742 546.282 45.0542V6.69422C546.282 2.98422 548.382 0.954219 552.232 0.954219C555.942 0.954219 558.112 2.98422 558.112 6.69422V45.1242C558.112 47.1542 558.322 47.8542 559.792 47.8542C560.632 47.8542 561.122 47.5042 561.962 47.5042C563.222 47.5042 565.042 48.4842 565.042 51.4942C565.042 55.4142 561.192 56.6042 556.502 56.6042Z" fill="#594A39"/>
<path d="M639.606 48.2042C641.356 51.3542 640.726 54.0842 637.646 55.6942C634.426 57.3742 631.486 56.6742 629.736 53.3842L620.566 36.1642C620.146 36.1642 619.726 36.1642 619.306 36.1642C617.626 36.1642 615.806 36.1642 614.336 36.0942V50.5142C614.336 54.5042 612.166 56.6042 608.386 56.6042C604.396 56.6042 602.156 54.5042 602.156 50.5142V10.1942C602.156 6.76422 603.906 4.59422 607.266 4.10422C610.066 3.68422 614.616 3.54422 618.396 3.54422C632.676 3.54422 640.166 9.42422 640.166 19.9242C640.166 27.4142 636.246 31.8942 630.786 34.1342C634.846 40.2942 637.646 44.7042 639.606 48.2042ZM618.816 28.3942C624.696 28.3942 628.126 25.3842 628.126 19.9942C628.126 14.3242 624.976 11.3142 618.746 11.3142C617.276 11.3142 615.596 11.3842 614.756 11.5242C614.406 11.5942 614.196 11.8042 614.196 12.2242V28.3242C615.666 28.3942 617.346 28.3942 618.816 28.3942Z" fill="#594A39"/>
<path d="M676.645 46.3842C678.535 44.9842 680.565 45.1242 681.895 46.6642C683.225 48.1342 683.295 50.1642 681.825 51.7742C679.585 54.2942 674.125 56.6042 667.195 56.6042C656.205 56.6042 647.735 51.0742 647.735 38.1942C647.735 25.8042 655.015 18.0342 666.705 18.0342C678.185 18.0342 683.925 26.5742 683.925 34.8342C683.925 38.8242 681.895 40.9242 677.625 40.9242H659.845C660.545 46.7342 663.135 48.9042 668.105 49.0442C671.535 49.1142 674.335 48.1342 676.645 46.3842ZM666.845 25.3842C662.435 25.3842 660.475 28.3942 659.845 33.2242H672.585C673.005 33.2242 673.215 33.0142 673.215 32.5942C673.215 27.7642 670.765 25.3842 666.845 25.3842Z" fill="#594A39"/>
<path d="M710.727 56.6042C698.758 56.6042 691.688 49.6042 691.688 37.6342C691.688 25.6642 699.037 18.1042 710.797 18.1042C717.307 18.1042 721.787 20.7642 723.607 23.0742C725.008 24.6842 724.937 26.7842 723.397 28.1842C721.577 29.7942 719.547 29.8642 717.938 28.3242C716.398 26.8542 714.087 26.2242 711.777 26.2242C706.597 26.2242 703.587 30.0042 703.587 37.0742C703.587 44.8442 706.527 48.3442 711.917 48.3442C714.647 48.3442 716.818 47.7142 718.427 46.3142C720.037 44.9142 722.068 45.0542 723.607 46.4542C725.287 47.9242 725.287 49.9542 723.818 51.9142C721.578 54.8542 716.537 56.6042 710.727 56.6042Z" fill="#594A39"/>
<path d="M750.78 56.6742C738.39 56.6742 731.88 49.2542 731.88 36.7242C731.88 25.3842 739.72 18.1042 751.27 18.1042C762.68 18.1042 769.96 25.3142 770.03 36.7242C770.1 49.5342 762.68 56.6742 750.78 56.6742ZM750.92 48.9042C755.75 48.7642 757.85 45.2642 757.85 36.9342C757.85 29.3742 755.82 25.7342 750.92 25.8042C746.16 25.8742 743.99 29.4442 744.06 36.9342C744.13 44.8442 745.88 49.0442 750.92 48.9042Z" fill="#594A39"/>
<path d="M802.517 18.1042C810.847 18.1042 816.027 23.4242 816.027 32.0342V50.7942C816.027 54.5742 813.927 56.6042 810.077 56.6042C806.227 56.6042 804.127 54.5742 804.127 50.7942V32.9442C804.127 28.5342 802.307 25.8742 799.087 25.8742C796.007 25.8742 793.207 28.6742 792.297 32.5942V50.7942C792.297 54.5742 790.197 56.6042 786.347 56.6042C782.497 56.6042 780.397 54.5742 780.397 50.7942V23.5642C780.397 20.0642 782.357 18.1742 785.857 18.1742C789.427 18.1742 791.387 19.9242 791.387 23.4942V24.6142C793.487 20.3442 797.827 18.1042 802.517 18.1042Z" fill="#594A39"/>
<path d="M826.014 46.8742C827.204 45.4042 829.164 45.1242 830.984 46.2442C833.084 47.5042 836.094 48.7642 839.174 48.7642C842.254 48.7642 843.724 47.9942 843.724 46.1742C843.724 44.4242 842.954 43.2342 836.934 40.5742C829.794 37.4242 826.084 34.4842 826.084 28.7442C826.084 22.4442 832.174 18.1042 841.134 18.1042C847.154 18.1042 851.284 19.9942 853.314 21.7442C854.924 23.1442 855.204 25.2442 854.014 26.8542C852.824 28.4642 850.234 28.8842 848.274 27.4842C846.594 26.2942 844.354 25.8742 841.764 25.8742C839.104 25.8742 837.774 26.8542 837.774 28.3242C837.774 30.0042 839.174 30.8442 844.354 33.2242C852.544 36.9342 855.764 40.0142 855.764 45.5442C855.764 53.1042 848.624 56.6042 841.134 56.6042C835.814 56.6042 829.584 55.2742 826.574 52.2642C824.894 50.5842 824.614 48.5542 826.014 46.8742Z" fill="#594A39"/>
<path d="M886.364 47.1542C888.394 47.1542 889.654 49.6042 889.654 51.3542C889.654 54.9942 884.474 56.0442 880.624 56.0442C872.574 56.0442 868.934 52.1942 868.934 43.8642V27.1342H865.013C862.773 27.1342 861.513 25.5942 861.513 23.1442C861.513 20.6242 862.844 19.1542 865.013 19.1542H868.934V14.7442C868.934 10.9642 871.034 8.93422 874.884 8.93422C878.734 8.93422 880.833 10.9642 880.833 14.7442V19.1542H885.384C887.624 19.1542 888.884 20.6942 888.884 23.1442C888.884 25.6642 887.554 27.1342 885.384 27.1342H880.833V43.7242C880.833 46.5242 881.604 47.7842 882.864 47.7842C884.194 47.7842 885.104 47.1542 886.364 47.1542Z" fill="#594A39"/>
<path d="M924.955 22.3042C925.305 26.1542 922.855 27.3442 919.425 27.7642C915.715 28.2542 912.215 31.8942 911.165 36.5142V51.0042C911.165 54.9242 908.785 56.6042 904.935 56.6042C901.085 56.6042 899.265 54.8542 899.265 51.0042V22.9342C899.265 19.5742 901.505 18.1042 904.935 18.1042C908.155 18.1042 910.255 19.7842 910.255 23.2142V26.5042C911.725 20.6942 915.015 18.3142 919.145 18.1742C922.295 18.1042 924.675 19.1542 924.955 22.3042Z" fill="#594A39"/>
<path d="M962.209 18.1042C965.989 18.1042 968.019 20.1342 968.019 23.7742V51.4942C968.019 54.6442 966.199 56.6042 962.769 56.6042C959.409 56.6042 957.519 54.7142 957.449 51.5642V50.8642C955.419 54.4342 951.429 56.5342 946.459 56.5342C937.989 56.5342 932.879 51.3542 932.879 42.6742V23.8442C932.879 20.1342 934.979 18.1042 938.829 18.1042C942.679 18.1042 944.779 20.1342 944.779 23.8442V41.1342C944.779 46.1042 946.319 48.4842 949.819 48.4842C953.669 48.4842 955.769 43.8642 956.399 41.0642V23.7742C956.399 20.1342 958.499 18.1042 962.209 18.1042Z" fill="#594A39"/>
<path d="M997.408 56.6042C985.438 56.6042 978.368 49.6042 978.368 37.6342C978.368 25.6642 985.718 18.1042 997.478 18.1042C1003.99 18.1042 1008.47 20.7642 1010.29 23.0742C1011.69 24.6842 1011.62 26.7842 1010.08 28.1842C1008.26 29.7942 1006.23 29.8642 1004.62 28.3242C1003.08 26.8542 1000.77 26.2242 998.458 26.2242C993.278 26.2242 990.268 30.0042 990.268 37.0742C990.268 44.8442 993.208 48.3442 998.598 48.3442C1001.33 48.3442 1003.5 47.7142 1005.11 46.3142C1006.72 44.9142 1008.75 45.0542 1010.29 46.4542C1011.97 47.9242 1011.97 49.9542 1010.5 51.9142C1008.26 54.8542 1003.22 56.6042 997.408 56.6042Z" fill="#594A39"/>
<path d="M1042.28 47.1542C1044.31 47.1542 1045.57 49.6042 1045.57 51.3542C1045.57 54.9942 1040.39 56.0442 1036.54 56.0442C1028.49 56.0442 1024.85 52.1942 1024.85 43.8642V27.1342H1020.93C1018.69 27.1342 1017.43 25.5942 1017.43 23.1442C1017.43 20.6242 1018.76 19.1542 1020.93 19.1542H1024.85V14.7442C1024.85 10.9642 1026.95 8.93422 1030.8 8.93422C1034.65 8.93422 1036.75 10.9642 1036.75 14.7442V19.1542H1041.3C1043.54 19.1542 1044.8 20.6942 1044.8 23.1442C1044.8 25.6642 1043.47 27.1342 1041.3 27.1342H1036.75V43.7242C1036.75 46.5242 1037.52 47.7842 1038.78 47.7842C1040.11 47.7842 1041.02 47.1542 1042.28 47.1542Z" fill="#594A39"/>
<path d="M1061.97 13.8342C1058.12 13.8342 1054.9 10.8942 1054.9 7.11422C1054.9 3.19422 1058.05 0.324219 1061.97 0.324219C1065.96 0.324219 1068.76 3.12422 1068.76 7.11422C1068.76 10.9642 1065.89 13.8342 1061.97 13.8342ZM1061.83 56.6042C1057.91 56.6042 1055.88 54.5742 1055.88 50.7942V24.6142C1055.88 20.8342 1057.91 18.8042 1061.83 18.8042C1065.75 18.8042 1067.78 20.8342 1067.78 24.6142V50.7942C1067.78 54.5742 1065.75 56.6042 1061.83 56.6042Z" fill="#594A39"/>
<path d="M1097.75 56.6742C1085.36 56.6742 1078.85 49.2542 1078.85 36.7242C1078.85 25.3842 1086.69 18.1042 1098.24 18.1042C1109.65 18.1042 1116.93 25.3142 1117 36.7242C1117.07 49.5342 1109.65 56.6742 1097.75 56.6742ZM1097.89 48.9042C1102.72 48.7642 1104.82 45.2642 1104.82 36.9342C1104.82 29.3742 1102.79 25.7342 1097.89 25.8042C1093.13 25.8742 1090.96 29.4442 1091.03 36.9342C1091.1 44.8442 1092.85 49.0442 1097.89 48.9042Z" fill="#594A39"/>
<path d="M1149.48 18.1042C1157.81 18.1042 1162.99 23.4242 1162.99 32.0342V50.7942C1162.99 54.5742 1160.89 56.6042 1157.04 56.6042C1153.19 56.6042 1151.09 54.5742 1151.09 50.7942V32.9442C1151.09 28.5342 1149.27 25.8742 1146.05 25.8742C1142.97 25.8742 1140.17 28.6742 1139.26 32.5942V50.7942C1139.26 54.5742 1137.16 56.6042 1133.31 56.6042C1129.46 56.6042 1127.36 54.5742 1127.36 50.7942V23.5642C1127.36 20.0642 1129.32 18.1742 1132.82 18.1742C1136.39 18.1742 1138.35 19.9242 1138.35 23.4942V24.6142C1140.45 20.3442 1144.79 18.1042 1149.48 18.1042Z" fill="#594A39"/>
<path d="M1234.13 51.4942C1234.13 54.0842 1232.73 55.5542 1230.07 55.5542H1210.4C1205.57 55.5542 1203.4 53.1742 1203.4 48.3442V9.00422C1203.4 5.29422 1205.64 3.26422 1209.42 3.19422C1213.2 3.12422 1215.44 5.29422 1215.44 9.00422V46.6642C1215.44 47.2942 1215.72 47.4342 1216.21 47.4342H1230.07C1232.66 47.4342 1234.13 48.8342 1234.13 51.4942Z" fill="#594A39"/>
<path d="M1259.34 56.6742C1246.95 56.6742 1240.44 49.2542 1240.44 36.7242C1240.44 25.3842 1248.28 18.1042 1259.83 18.1042C1271.24 18.1042 1278.52 25.3142 1278.59 36.7242C1278.66 49.5342 1271.24 56.6742 1259.34 56.6742ZM1259.48 48.9042C1264.31 48.7642 1266.41 45.2642 1266.41 36.9342C1266.41 29.3742 1264.38 25.7342 1259.48 25.8042C1254.72 25.8742 1252.55 29.4442 1252.62 36.9342C1252.69 44.8442 1254.44 49.0442 1259.48 48.9042Z" fill="#594A39"/>
<path d="M1318 22.7242C1320.1 24.9642 1321.15 28.1142 1321.15 32.1742V50.7942C1321.15 54.5742 1319.68 56.6042 1316.04 56.6042C1312.33 56.6042 1310.65 54.5742 1310.65 50.7942V50.5842C1308.34 54.6442 1304 56.6042 1298.47 56.6042C1291.05 56.6042 1286.5 52.2642 1286.5 45.3342C1286.5 37.0042 1294.27 31.8242 1306.03 31.8242C1307.43 31.8242 1308.9 31.8942 1309.81 32.0342V31.4042C1309.81 27.9042 1307.85 25.8042 1304.14 25.6642C1301.13 25.5242 1297.91 26.8542 1295.25 29.7242C1293.57 31.5442 1291.12 31.8242 1289.37 30.2842C1287.55 28.8142 1287.34 26.5042 1288.95 24.4742C1291.47 21.3942 1297 18.1042 1304.35 18.1042C1310.86 18.1042 1314.99 19.5742 1318 22.7242ZM1309.95 42.7442V39.1742C1309.04 39.0342 1307.5 38.8942 1306.17 38.9642C1299.45 39.3142 1297.14 41.9042 1297.28 44.6342C1297.42 47.0142 1298.89 48.4142 1301.76 48.4142C1305.05 48.4142 1308.34 46.1042 1309.95 42.7442Z" fill="#594A39"/>
<path d="M1355.16 18.1042C1363.49 18.1042 1368.67 23.4242 1368.67 32.0342V50.7942C1368.67 54.5742 1366.57 56.6042 1362.72 56.6042C1358.87 56.6042 1356.77 54.5742 1356.77 50.7942V32.9442C1356.77 28.5342 1354.95 25.8742 1351.73 25.8742C1348.65 25.8742 1345.85 28.6742 1344.94 32.5942V50.7942C1344.94 54.5742 1342.84 56.6042 1338.99 56.6042C1335.14 56.6042 1333.04 54.5742 1333.04 50.7942V23.5642C1333.04 20.0642 1335 18.1742 1338.5 18.1742C1342.07 18.1742 1344.03 19.9242 1344.03 23.4942V24.6142C1346.13 20.3442 1350.47 18.1042 1355.16 18.1042Z" fill="#594A39"/>
</svg>
