<svg width="500" height="249" viewBox="0 0 500 249" fill="none" xmlns="http://www.w3.org/2000/svg">
<rect width="500" height="248" transform="translate(0 0.744141)" fill="#FDFDFB"/>
<path d="M70.14 19.1281C72.588 19.5121 73.644 21.2401 73.212 23.7361C72.012 30.3121 69.276 43.1761 67.308 51.0001C66.54 53.9761 64.908 55.4641 61.74 55.4641C58.524 55.4641 56.46 53.9761 55.74 51.0001C53.868 43.4641 51.468 32.1841 50.796 28.3921H50.508C49.884 32.2321 47.292 43.5601 45.564 51.0001C44.892 53.9761 43.02 55.5121 39.804 55.5121C36.588 55.5121 34.476 54.0241 33.708 51.0001C32.124 44.9041 28.908 29.4961 27.612 24.0721C26.988 21.5281 28.092 19.7521 30.636 19.1761C33.228 18.6001 35.052 19.7041 35.532 22.1041C36.972 29.6881 38.7 37.4161 39.948 44.4721C40.092 45.2881 40.188 46.4881 40.284 47.3041H40.572C42.108 40.4881 43.74 32.6161 45.852 22.3441C46.332 20.0401 48.012 18.7921 50.556 18.7921C53.052 18.7921 54.732 19.9441 55.308 22.2961C57.756 32.3761 59.676 40.2961 61.164 47.3041H61.452C61.548 46.5841 61.548 45.3361 61.74 44.5201C63.036 38.5201 64.668 29.1121 65.676 22.0561C66.012 19.7041 67.548 18.6961 70.14 19.1281ZM97.2469 32.2321C98.6869 33.7681 99.4069 35.9281 99.4069 38.7121V51.4801C99.4069 54.0721 98.3989 55.4641 95.9029 55.4641C93.3589 55.4641 92.2069 54.0721 92.2069 51.4801V51.3361C90.6229 54.1201 87.6469 55.4641 83.8549 55.4641C78.7669 55.4641 75.6469 52.4881 75.6469 47.7361C75.6469 42.0241 80.9749 38.4721 89.0389 38.4721C89.9989 38.4721 91.0069 38.5201 91.6309 38.6161V38.1841C91.6309 35.7841 90.2869 34.3441 87.7429 34.2481C85.6789 34.1521 83.4709 35.0641 81.6469 37.0321C80.4949 38.2801 78.8149 38.4721 77.6149 37.4161C76.3669 36.4081 76.2229 34.8241 77.3269 33.4321C79.0549 31.3201 82.8469 29.0641 87.8869 29.0641C92.3509 29.0641 95.1829 30.0721 97.2469 32.2321ZM91.7269 45.9601V43.5121C91.1029 43.4161 90.0469 43.3201 89.1349 43.3681C84.5269 43.6081 82.9429 45.3841 83.0389 47.2561C83.1349 48.8881 84.1429 49.8481 86.1109 49.8481C88.3669 49.8481 90.6229 48.2641 91.7269 45.9601ZM121.304 48.9841C122.696 48.9841 123.56 50.6641 123.56 51.8641C123.56 54.3601 120.008 55.0801 117.368 55.0801C111.848 55.0801 109.352 52.4401 109.352 46.7281V35.2561H106.664C105.128 35.2561 104.264 34.2001 104.264 32.5201C104.264 30.7921 105.176 29.7841 106.664 29.7841H109.352V26.7601C109.352 24.1681 110.792 22.7761 113.432 22.7761C116.072 22.7761 117.512 24.1681 117.512 26.7601V29.7841H120.632C122.168 29.7841 123.032 30.8401 123.032 32.5201C123.032 34.2481 122.12 35.2561 120.632 35.2561H117.512V46.6321C117.512 48.5521 118.04 49.4161 118.904 49.4161C119.816 49.4161 120.44 48.9841 121.304 48.9841ZM147.971 48.4561C149.267 47.4961 150.659 47.5921 151.571 48.6481C152.483 49.6561 152.531 51.0481 151.523 52.1521C149.987 53.8801 146.243 55.4641 141.491 55.4641C133.955 55.4641 128.147 51.6721 128.147 42.8401C128.147 34.3441 133.139 29.0161 141.155 29.0161C149.027 29.0161 152.963 34.8721 152.963 40.5361C152.963 43.2721 151.571 44.7121 148.643 44.7121H136.451C136.931 48.6961 138.707 50.1841 142.115 50.2801C144.467 50.3281 146.387 49.6561 147.971 48.4561ZM141.251 34.0561C138.227 34.0561 136.883 36.1201 136.451 39.4321H145.187C145.475 39.4321 145.619 39.2881 145.619 39.0001C145.619 35.6881 143.939 34.0561 141.251 34.0561ZM177.437 31.9441C177.677 34.5841 175.997 35.4001 173.645 35.6881C171.101 36.0241 168.701 38.5201 167.981 41.6881V51.6241C167.981 54.3121 166.349 55.4641 163.709 55.4641C161.069 55.4641 159.821 54.2641 159.821 51.6241V32.3761C159.821 30.0721 161.357 29.0641 163.709 29.0641C165.917 29.0641 167.357 30.2161 167.357 32.5681V34.8241C168.365 30.8401 170.621 29.2081 173.453 29.1121C175.613 29.0641 177.245 29.7841 177.437 31.9441ZM201.668 47.2081C202.628 45.9121 204.356 45.6721 205.652 46.6801C207.62 48.2161 209.78 49.7041 213.092 49.7041C216.02 49.7041 217.796 48.4561 217.844 46.1521C217.892 44.2801 217.22 42.3601 211.652 39.4801C204.452 35.6881 201.38 32.7601 201.38 27.8161C201.38 22.3441 206.324 18.7921 214.052 18.7921C218.756 18.7921 222.404 20.1361 224.036 21.7201C225.38 23.0161 225.668 24.6961 224.756 26.0881C223.748 27.5761 221.876 27.8641 220.388 26.6161C218.756 25.2721 216.884 24.4561 214.004 24.5041C211.364 24.5521 209.828 25.6081 209.828 27.2401C209.828 29.0641 210.5 30.6961 216.116 33.5761C223.364 37.3681 226.388 40.3921 226.388 45.1921C226.388 51.6241 221.54 55.4641 213.524 55.4641C208.004 55.4641 204.068 53.6401 202.1 51.6721C200.804 50.3761 200.66 48.6001 201.668 47.2081ZM245.349 55.5121C236.853 55.5121 232.389 50.4241 232.389 41.8321C232.389 34.0561 237.765 29.0641 245.685 29.0641C253.509 29.0641 258.501 34.0081 258.549 41.8321C258.597 50.6161 253.509 55.5121 245.349 55.5121ZM245.445 50.1841C248.757 50.0881 250.197 47.6881 250.197 41.9761C250.197 36.7921 248.805 34.2961 245.445 34.3441C242.181 34.3921 240.693 36.8401 240.741 41.9761C240.789 47.4001 241.989 50.2801 245.445 50.1841ZM285.29 29.0641C287.882 29.0641 289.274 30.4561 289.274 32.9521V51.9601C289.274 54.1201 288.026 55.4641 285.674 55.4641C283.37 55.4641 282.074 54.1681 282.026 52.0081V51.5281C280.634 53.9761 277.898 55.4161 274.49 55.4161C268.682 55.4161 265.178 51.8641 265.178 45.9121V33.0001C265.178 30.4561 266.618 29.0641 269.258 29.0641C271.898 29.0641 273.338 30.4561 273.338 33.0001V44.8561C273.338 48.2641 274.394 49.8961 276.794 49.8961C279.434 49.8961 280.874 46.7281 281.306 44.8081V32.9521C281.306 30.4561 282.746 29.0641 285.29 29.0641ZM281.45 43.9441V43.7521V43.9441ZM315.522 31.9441C315.762 34.5841 314.082 35.4001 311.73 35.6881C309.186 36.0241 306.786 38.5201 306.066 41.6881V51.6241C306.066 54.3121 304.434 55.4641 301.794 55.4641C299.154 55.4641 297.906 54.2641 297.906 51.6241V32.3761C297.906 30.0721 299.442 29.0641 301.794 29.0641C304.002 29.0641 305.442 30.2161 305.442 32.5681V34.8241C306.45 30.8401 308.706 29.2081 311.538 29.1121C313.698 29.0641 315.33 29.7841 315.522 31.9441ZM332.486 55.4641C324.278 55.4641 319.43 50.6641 319.43 42.4561C319.43 34.2481 324.47 29.0641 332.534 29.0641C336.998 29.0641 340.07 30.8881 341.318 32.4721C342.278 33.5761 342.23 35.0161 341.174 35.9761C339.926 37.0801 338.534 37.1281 337.43 36.0721C336.374 35.0641 334.79 34.6321 333.206 34.6321C329.654 34.6321 327.59 37.2241 327.59 42.0721C327.59 47.4001 329.606 49.8001 333.302 49.8001C335.174 49.8001 336.662 49.3681 337.766 48.4081C338.87 47.4481 340.262 47.5441 341.318 48.5041C342.47 49.5121 342.47 50.9041 341.462 52.2481C339.926 54.2641 336.47 55.4641 332.486 55.4641ZM366.815 48.4561C368.111 47.4961 369.503 47.5921 370.415 48.6481C371.327 49.6561 371.375 51.0481 370.367 52.1521C368.831 53.8801 365.087 55.4641 360.335 55.4641C352.799 55.4641 346.991 51.6721 346.991 42.8401C346.991 34.3441 351.983 29.0161 359.999 29.0161C367.871 29.0161 371.807 34.8721 371.807 40.5361C371.807 43.2721 370.415 44.7121 367.487 44.7121H355.295C355.775 48.6961 357.551 50.1841 360.959 50.2801C363.311 50.3281 365.231 49.6561 366.815 48.4561ZM360.095 34.0561C357.071 34.0561 355.727 36.1201 355.295 39.4321H364.031C364.319 39.4321 364.463 39.2881 364.463 39.0001C364.463 35.6881 362.783 34.0561 360.095 34.0561ZM55.404 121.704C56.604 123.864 56.172 125.736 54.06 126.84C51.852 127.992 49.836 127.512 48.636 125.256L42.348 113.448C42.06 113.448 41.772 113.448 41.484 113.448C40.332 113.448 39.084 113.448 38.076 113.4V123.288C38.076 126.024 36.588 127.464 33.996 127.464C31.26 127.464 29.724 126.024 29.724 123.288V95.6401C29.724 93.2881 30.924 91.8001 33.228 91.4641C35.148 91.1761 38.268 91.0801 40.86 91.0801C50.652 91.0801 55.788 95.1121 55.788 102.312C55.788 107.448 53.1 110.52 49.356 112.056C52.14 116.28 54.06 119.304 55.404 121.704ZM41.148 108.12C45.18 108.12 47.532 106.056 47.532 102.36C47.532 98.4721 45.372 96.4081 41.1 96.4081C40.092 96.4081 38.94 96.4561 38.364 96.5521C38.124 96.6001 37.98 96.7441 37.98 97.0321V108.072C38.988 108.12 40.14 108.12 41.148 108.12ZM73.9384 127.512C65.4424 127.512 60.9784 122.424 60.9784 113.832C60.9784 106.056 66.3544 101.064 74.2744 101.064C82.0984 101.064 87.0904 106.008 87.1384 113.832C87.1864 122.616 82.0984 127.512 73.9384 127.512ZM74.0344 122.184C77.3464 122.088 78.7864 119.688 78.7864 113.976C78.7864 108.792 77.3944 106.296 74.0344 106.344C70.7704 106.392 69.2824 108.84 69.3304 113.976C69.3784 119.4 70.5784 122.28 74.0344 122.184ZM114.167 104.232C115.607 105.768 116.327 107.928 116.327 110.712V123.48C116.327 126.072 115.319 127.464 112.823 127.464C110.279 127.464 109.127 126.072 109.127 123.48V123.336C107.543 126.12 104.567 127.464 100.775 127.464C95.6869 127.464 92.5669 124.488 92.5669 119.736C92.5669 114.024 97.8949 110.472 105.959 110.472C106.919 110.472 107.927 110.52 108.551 110.616V110.184C108.551 107.784 107.207 106.344 104.663 106.248C102.599 106.152 100.391 107.064 98.5669 109.032C97.4149 110.28 95.7349 110.472 94.5349 109.416C93.2869 108.408 93.1429 106.824 94.2469 105.432C95.9749 103.32 99.7669 101.064 104.807 101.064C109.271 101.064 112.103 102.072 114.167 104.232ZM108.647 117.96V115.512C108.023 115.416 106.967 115.32 106.055 115.368C101.447 115.608 99.8629 117.384 99.9589 119.256C100.055 120.888 101.063 121.848 103.031 121.848C105.287 121.848 107.543 120.264 108.647 117.96ZM144.207 89.3041C146.799 89.3041 148.239 90.7921 148.239 93.4801V123.672C148.239 126.072 146.895 127.464 144.495 127.464C142.527 127.464 141.087 126.504 140.655 124.824C139.119 126.456 136.479 127.464 134.079 127.464C128.511 127.464 122.943 124.2 122.943 114.408C122.943 106.248 127.743 101.064 134.031 101.064C137.103 101.064 139.023 102.264 140.079 103.224V93.3841C140.079 90.6961 141.471 89.3041 144.207 89.3041ZM136.239 121.992C137.871 121.992 139.455 121.176 140.511 119.736V109.752C139.887 108.36 138.495 106.488 135.711 106.488C132.927 106.488 130.719 109.176 130.719 114.504C130.719 119.256 132.975 121.992 136.239 121.992ZM187.663 91.1761C197.311 91.1761 202.591 95.3041 202.591 102.456C202.591 110.952 195.343 113.928 188.143 113.928C187.039 113.928 185.887 113.928 184.879 113.88V123.288C184.879 126.024 183.343 127.464 180.703 127.464C177.919 127.464 176.527 126.024 176.527 123.288V95.7361C176.527 93.3841 177.631 91.8961 179.935 91.5601C181.855 91.2721 184.975 91.1761 187.663 91.1761ZM187.807 108.6C191.791 108.6 194.335 106.392 194.335 102.504C194.335 98.8561 191.791 96.5521 187.855 96.5521C186.895 96.5521 185.743 96.6001 185.167 96.6961C184.927 96.7441 184.783 96.8881 184.783 97.1761V108.552C185.791 108.6 186.847 108.6 187.807 108.6ZM224.815 101.064C230.191 101.064 233.599 104.808 233.599 110.616V123.672C233.599 126.216 232.255 127.464 229.615 127.464C226.975 127.464 225.631 126.216 225.631 123.672V110.952C225.631 108.264 224.527 106.824 222.367 106.824C220.111 106.824 218.671 108.216 217.759 110.664V123.672C217.759 126.216 216.319 127.464 213.679 127.464C211.039 127.464 209.599 126.216 209.599 123.672V93.1921C209.599 90.6001 210.991 89.3041 213.679 89.3041C216.367 89.3041 217.759 90.6001 217.759 93.1921V104.52C219.247 102.264 221.647 101.064 224.815 101.064ZM261.673 104.232C263.113 105.768 263.833 107.928 263.833 110.712V123.48C263.833 126.072 262.825 127.464 260.329 127.464C257.785 127.464 256.633 126.072 256.633 123.48V123.336C255.049 126.12 252.073 127.464 248.281 127.464C243.193 127.464 240.073 124.488 240.073 119.736C240.073 114.024 245.401 110.472 253.465 110.472C254.425 110.472 255.433 110.52 256.057 110.616V110.184C256.057 107.784 254.713 106.344 252.169 106.248C250.105 106.152 247.897 107.064 246.073 109.032C244.921 110.28 243.241 110.472 242.041 109.416C240.793 108.408 240.649 106.824 241.753 105.432C243.481 103.32 247.273 101.064 252.313 101.064C256.777 101.064 259.609 102.072 261.673 104.232ZM256.153 117.96V115.512C255.529 115.416 254.473 115.32 253.561 115.368C248.953 115.608 247.369 117.384 247.465 119.256C247.561 120.888 248.569 121.848 250.537 121.848C252.793 121.848 255.049 120.264 256.153 117.96ZM270.69 120.792C271.506 119.784 272.85 119.592 274.098 120.36C275.538 121.224 277.602 122.088 279.714 122.088C281.826 122.088 282.834 121.56 282.834 120.312C282.834 119.112 282.306 118.296 278.178 116.472C273.282 114.312 270.738 112.296 270.738 108.36C270.738 104.04 274.914 101.064 281.058 101.064C285.186 101.064 288.018 102.36 289.41 103.56C290.514 104.52 290.706 105.96 289.89 107.064C289.074 108.168 287.298 108.456 285.954 107.496C284.802 106.68 283.266 106.392 281.49 106.392C279.666 106.392 278.754 107.064 278.754 108.072C278.754 109.224 279.714 109.8 283.266 111.432C288.882 113.976 291.09 116.088 291.09 119.88C291.09 125.064 286.194 127.464 281.058 127.464C277.41 127.464 273.138 126.552 271.074 124.488C269.922 123.336 269.73 121.944 270.69 120.792ZM316.241 120.456C317.536 119.496 318.929 119.592 319.84 120.648C320.752 121.656 320.8 123.048 319.793 124.152C318.257 125.88 314.512 127.464 309.76 127.464C302.224 127.464 296.416 123.672 296.416 114.84C296.416 106.344 301.408 101.016 309.424 101.016C317.296 101.016 321.232 106.872 321.232 112.536C321.232 115.272 319.84 116.712 316.913 116.712H304.72C305.2 120.696 306.976 122.184 310.385 122.28C312.736 122.328 314.656 121.656 316.241 120.456ZM309.52 106.056C306.496 106.056 305.152 108.12 304.72 111.432H313.456C313.744 111.432 313.888 111.288 313.888 111C313.888 107.688 312.208 106.056 309.52 106.056ZM326.795 120.792C327.611 119.784 328.955 119.592 330.203 120.36C331.643 121.224 333.707 122.088 335.819 122.088C337.931 122.088 338.939 121.56 338.939 120.312C338.939 119.112 338.411 118.296 334.283 116.472C329.387 114.312 326.843 112.296 326.843 108.36C326.843 104.04 331.019 101.064 337.163 101.064C341.291 101.064 344.123 102.36 345.515 103.56C346.619 104.52 346.811 105.96 345.995 107.064C345.179 108.168 343.403 108.456 342.059 107.496C340.907 106.68 339.371 106.392 337.595 106.392C335.771 106.392 334.859 107.064 334.859 108.072C334.859 109.224 335.819 109.8 339.371 111.432C344.987 113.976 347.195 116.088 347.195 119.88C347.195 125.064 342.299 127.464 337.163 127.464C333.515 127.464 329.243 126.552 327.179 124.488C326.027 123.336 325.835 121.944 326.795 120.792ZM396.663 114.168C398.487 114.168 399.447 115.272 399.447 116.808C399.447 118.44 398.487 119.448 396.663 119.448H393.783V123.816C393.783 126.12 392.391 127.512 389.943 127.512C387.543 127.512 386.151 126.12 386.151 123.816V119.448H376.215C373.911 119.448 372.087 118.728 371.319 116.952C370.503 115.08 370.887 113.64 371.991 111.672C376.023 104.472 379.527 97.9921 382.503 92.7121C383.559 90.8401 385.575 90.1681 387.735 91.1761C389.895 92.1841 390.327 94.0561 389.175 96.1201C386.151 101.544 382.887 107.256 379.383 112.824C378.807 113.736 379.335 114.168 380.535 114.168H386.151V104.328C386.151 101.976 387.447 100.632 389.943 100.632C392.535 100.632 393.783 101.976 393.783 104.328V114.168H396.663ZM439.823 121.368C440.735 122.472 440.207 123.768 439.055 124.872C435.647 127.992 430.271 128.28 427.391 125.448L427.199 125.256C420.959 129.336 409.055 129.192 405.599 122.088C403.151 117.096 404.831 110.76 411.983 107.256L411.407 106.536C408.239 102.456 407.855 98.8561 409.007 95.7361C410.303 92.2801 414.047 89.7361 419.327 90.0721C423.743 90.3601 428.687 92.8561 428.639 97.8961C428.591 101.976 426.479 105.48 420.911 108.216C423.311 111 425.951 113.928 428.399 116.424C429.167 114.84 429.743 112.872 430.175 110.568C430.511 108.696 431.519 107.832 433.295 108.168C435.023 108.504 435.887 109.608 435.359 111.96C434.591 115.416 433.583 117.864 432.095 120.072C432.191 120.12 432.239 120.168 432.287 120.216C433.967 121.704 435.455 121.656 436.751 121.08C438.239 120.408 439.055 120.456 439.823 121.368ZM414.863 97.5121C414.623 99.5281 414.959 100.68 416.591 102.84C417.071 103.512 417.599 104.184 418.175 104.904C422.063 102.168 422.687 100.296 422.735 97.9921C422.783 96.0721 421.151 94.4881 419.135 94.3921C416.831 94.2961 415.055 95.7361 414.863 97.5121ZM413.663 120.744C415.919 123 420.623 122.952 423.695 121.512C420.815 118.296 417.599 114.36 414.815 110.904C411.503 113.4 410.735 117.816 413.663 120.744ZM470.365 113.736C470.749 122.904 465.373 127.56 455.581 127.752C453.229 127.8 450.589 127.272 448.861 126.312C447.229 125.4 446.557 123.768 447.325 122.184C448.045 120.744 449.485 120.504 451.021 120.984C451.981 121.272 453.181 122.04 455.005 122.04C459.757 122.04 462.301 119.16 462.253 114.984C462.205 111.528 460.669 109.752 457.789 109.752C456.541 109.752 455.389 109.992 454.621 110.424C453.469 111.096 451.645 111.624 449.869 111.048C447.901 110.424 447.229 109.32 447.277 107.16C447.373 103.224 447.661 99.2401 447.901 95.3041C448.045 92.8561 449.533 91.5121 452.173 91.5121H466.621C468.349 91.5121 469.357 92.6641 469.357 94.2961C469.357 95.9281 468.349 96.9841 466.621 96.9841H456.637C456.301 96.9841 456.013 97.2241 456.013 97.5601C456.013 99.7201 455.533 102.888 455.437 105.096C456.733 104.664 458.173 104.472 459.853 104.472C465.805 104.472 470.125 108.168 470.365 113.736Z" fill="#594A39"/>
<path d="M35.38 222.244V196.684H26.74V192.764H48.7V196.684H40.02V222.244H35.38ZM57.03 222.764C53.23 222.764 50.55 220.284 50.55 216.404C50.55 211.684 54.55 209.244 63.71 208.244C63.67 205.684 62.75 203.444 59.51 203.444C57.19 203.444 55.03 204.484 53.15 205.684L51.43 202.564C53.71 201.124 56.79 199.684 60.31 199.684C65.79 199.684 68.31 203.164 68.31 209.004V222.244H64.55L64.19 219.724H64.03C62.03 221.444 59.67 222.764 57.03 222.764ZM58.43 219.124C60.35 219.124 61.91 218.204 63.71 216.564V211.164C57.19 211.924 54.99 213.604 54.99 216.084C54.99 218.244 56.47 219.124 58.43 219.124ZM76.4378 222.244V200.244H81.0378V222.244H76.4378ZM78.7178 196.124C77.0378 196.124 75.8778 195.044 75.8778 193.364C75.8778 191.724 77.0378 190.644 78.7178 190.644C80.3978 190.644 81.5978 191.724 81.5978 193.364C81.5978 195.044 80.3978 196.124 78.7178 196.124ZM89.5222 231.164V200.244H93.2822L93.6422 202.644H93.7622C95.6822 201.044 98.0822 199.684 100.562 199.684C106.122 199.684 109.242 204.124 109.242 210.884C109.242 218.444 104.722 222.764 99.7622 222.764C97.8022 222.764 95.8422 221.884 93.9622 220.284L94.1222 224.044V231.164H89.5222ZM98.8822 218.964C102.082 218.964 104.482 216.124 104.482 210.964C104.482 206.364 103.002 203.524 99.3222 203.524C97.6022 203.524 95.9622 204.404 94.1222 206.204V216.964C95.8422 218.444 97.5222 218.964 98.8822 218.964ZM125.478 222.764C119.518 222.764 114.758 218.524 114.758 211.244C114.758 204.124 119.678 199.684 124.798 199.684C130.638 199.684 133.798 203.884 133.798 210.084C133.798 211.004 133.678 211.884 133.558 212.444H119.278C119.638 216.644 122.278 219.164 126.078 219.164C128.038 219.164 129.718 218.564 131.318 217.524L132.918 220.444C130.878 221.804 128.358 222.764 125.478 222.764ZM119.238 209.244H129.798C129.798 205.484 128.078 203.284 124.878 203.284C122.118 203.284 119.678 205.404 119.238 209.244ZM140.535 222.244V200.244H145.135V222.244H140.535ZM142.815 196.124C141.135 196.124 139.975 195.044 139.975 193.364C139.975 191.724 141.135 190.644 142.815 190.644C144.495 190.644 145.695 191.724 145.695 193.364C145.695 195.044 144.495 196.124 142.815 196.124Z" fill="#594A39"/>
<rect x="171.5" y="161.744" width="260" height="87" rx="43.5" fill="#7DBD36"/>
<path d="M273.622 220.767C271.48 220.767 270.262 219.507 270.262 217.323V204.681C270.262 203.211 270.766 199.809 270.976 198.423L270.682 198.381C269.086 204.429 266.608 210.183 264.256 215.307C263.374 217.281 262.45 218.163 260.56 218.163C258.754 218.163 257.494 217.239 256.654 215.307C254.386 210.225 251.824 204.303 249.976 198.297H249.682C249.892 199.641 250.228 202.917 250.228 204.555V217.323C250.228 219.549 249.052 220.767 246.91 220.767C244.894 220.767 243.676 219.507 243.676 217.323V193.761C243.676 190.485 245.398 188.721 248.338 188.721C250.858 188.721 251.992 189.855 253.294 193.005C255.562 198.465 258.964 206.907 260.518 210.897H260.602L267.154 192.879C268.288 189.813 269.674 188.637 272.656 188.679C275.554 188.721 276.982 190.317 276.982 193.593V217.323C276.982 219.549 275.722 220.767 273.622 220.767Z" fill="white"/>
<path d="M297.646 220.809C290.212 220.809 286.306 216.357 286.306 208.839C286.306 202.035 291.01 197.667 297.94 197.667C304.786 197.667 309.154 201.993 309.196 208.839C309.238 216.525 304.786 220.809 297.646 220.809ZM297.73 216.147C300.628 216.063 301.888 213.963 301.888 208.965C301.888 204.429 300.67 202.245 297.73 202.287C294.874 202.329 293.572 204.471 293.614 208.965C293.656 213.711 294.706 216.231 297.73 216.147Z" fill="white"/>
<path d="M332.51 200.187C332.72 202.497 331.25 203.211 329.192 203.463C326.966 203.757 324.866 205.941 324.236 208.713V217.407C324.236 219.759 322.808 220.767 320.498 220.767C318.188 220.767 317.096 219.717 317.096 217.407V200.565C317.096 198.549 318.44 197.667 320.498 197.667C322.43 197.667 323.69 198.675 323.69 200.733V202.707C324.572 199.221 326.546 197.793 329.024 197.709C330.914 197.667 332.342 198.297 332.51 200.187Z" fill="white"/>
<path d="M354.956 214.635C356.09 213.795 357.308 213.879 358.106 214.803C358.904 215.685 358.946 216.903 358.064 217.869C356.72 219.381 353.444 220.767 349.286 220.767C342.692 220.767 337.61 217.449 337.61 209.721C337.61 202.287 341.978 197.625 348.992 197.625C355.88 197.625 359.324 202.749 359.324 207.705C359.324 210.099 358.106 211.359 355.544 211.359H344.876C345.296 214.845 346.85 216.147 349.832 216.231C351.89 216.273 353.57 215.685 354.956 214.635ZM349.076 202.035C346.43 202.035 345.254 203.841 344.876 206.739H352.52C352.772 206.739 352.898 206.613 352.898 206.361C352.898 203.463 351.428 202.035 349.076 202.035Z" fill="white"/>
</svg>
