<svg width="865" height="229" viewBox="0 0 865 229" fill="none" xmlns="http://www.w3.org/2000/svg">
<path d="M1.69598 37.92C2.89598 36.3 5.05598 36 6.67598 37.26C9.13598 39.18 11.836 41.04 15.976 41.04C19.636 41.04 21.856 39.48 21.916 36.6C21.976 34.26 21.136 31.86 14.176 28.26C5.17599 23.52 1.33598 19.86 1.33598 13.68C1.33598 6.84 7.51598 2.4 17.176 2.4C23.056 2.4 27.616 4.08 29.656 6.06C31.336 7.68 31.696 9.78 30.556 11.52C29.296 13.38 26.956 13.74 25.096 12.18C23.056 10.5 20.716 9.48 17.116 9.54C13.816 9.6 11.896 10.92 11.896 12.96C11.896 15.24 12.736 17.28 19.756 20.88C28.816 25.62 32.596 29.4 32.596 35.4C32.596 43.44 26.536 48.24 16.516 48.24C9.61598 48.24 4.69598 45.96 2.23598 43.5C0.615984 41.88 0.435984 39.66 1.69598 37.92Z" fill="#594A39"/>
<path d="M60.4515 15.24C67.1715 15.24 71.4315 19.92 71.4315 27.18V43.5C71.4315 46.68 69.7515 48.24 66.4515 48.24C63.1515 48.24 61.4715 46.68 61.4715 43.5V27.6C61.4715 24.24 60.0915 22.44 57.3915 22.44C54.5715 22.44 52.7715 24.18 51.6315 27.24V43.5C51.6315 46.68 49.8315 48.24 46.5315 48.24C43.2315 48.24 41.4315 46.68 41.4315 43.5V5.4C41.4315 2.16 43.1715 0.54 46.5315 0.54C49.8915 0.54 51.6315 2.16 51.6315 5.4V19.56C53.4915 16.74 56.4915 15.24 60.4515 15.24Z" fill="#594A39"/>
<path d="M106.524 19.2C108.324 21.12 109.224 23.82 109.224 27.3V43.26C109.224 46.5 107.964 48.24 104.844 48.24C101.664 48.24 100.224 46.5 100.224 43.26V43.08C98.2444 46.56 94.5244 48.24 89.7844 48.24C83.4244 48.24 79.5244 44.52 79.5244 38.58C79.5244 31.44 86.1844 27 96.2644 27C97.4644 27 98.7244 27.06 99.5044 27.18V26.64C99.5044 23.64 97.8244 21.84 94.6444 21.72C92.0644 21.6 89.3044 22.74 87.0244 25.2C85.5844 26.76 83.4844 27 81.9844 25.68C80.4244 24.42 80.2444 22.44 81.6244 20.7C83.7844 18.06 88.5244 15.24 94.8244 15.24C100.404 15.24 103.944 16.5 106.524 19.2ZM99.6244 36.36V33.3C98.8444 33.18 97.5244 33.06 96.3844 33.12C90.6244 33.42 88.6444 35.64 88.7644 37.98C88.8844 40.02 90.1444 41.22 92.6044 41.22C95.4244 41.22 98.2444 39.24 99.6244 36.36Z" fill="#594A39"/>
<path d="M138.375 15.24C145.515 15.24 149.955 19.8 149.955 27.18V43.26C149.955 46.5 148.155 48.24 144.855 48.24C141.555 48.24 139.755 46.5 139.755 43.26V27.96C139.755 24.18 138.195 21.9 135.435 21.9C132.795 21.9 130.395 24.3 129.615 27.66V43.26C129.615 46.5 127.815 48.24 124.515 48.24C121.215 48.24 119.415 46.5 119.415 43.26V19.92C119.415 16.92 121.095 15.3 124.095 15.3C127.155 15.3 128.835 16.8 128.835 19.86V20.82C130.635 17.16 134.355 15.24 138.375 15.24Z" fill="#594A39"/>
<path d="M184.795 15.3C188.095 15.3 189.235 16.98 189.235 20.22V46.68C189.235 57.24 183.715 62.46 173.275 62.46C169.495 62.46 165.235 61.32 162.775 59.7C160.735 58.38 160.015 56.64 161.035 54.72C161.995 52.86 163.975 52.5 165.775 53.64C167.635 54.78 169.615 55.68 172.915 55.68C177.595 55.68 179.635 53.16 179.635 47.04V44.7C177.775 46.32 175.075 47.34 172.435 47.34C165.355 47.34 158.215 43.8 158.215 31.8C158.215 21.36 163.855 15.24 172.135 15.24C175.915 15.24 178.555 16.68 180.175 18.9C180.595 16.62 182.215 15.3 184.795 15.3ZM174.715 40.56C176.815 40.56 178.795 39.6 180.055 37.92V26.34C179.395 24.6 177.775 22.02 174.235 22.02C170.335 22.02 167.935 25.02 167.935 31.92C167.935 37.56 170.635 40.56 174.715 40.56Z" fill="#594A39"/>
<path d="M219.055 15.24C225.775 15.24 230.035 19.92 230.035 27.18V43.5C230.035 46.68 228.355 48.24 225.055 48.24C221.755 48.24 220.075 46.68 220.075 43.5V27.6C220.075 24.24 218.695 22.44 215.995 22.44C213.175 22.44 211.375 24.18 210.235 27.24V43.5C210.235 46.68 208.435 48.24 205.135 48.24C201.835 48.24 200.035 46.68 200.035 43.5V5.4C200.035 2.16 201.775 0.54 205.135 0.54C208.495 0.54 210.235 2.16 210.235 5.4V19.56C212.095 16.74 215.095 15.24 219.055 15.24Z" fill="#594A39"/>
<path d="M264.768 15.24C268.008 15.24 269.748 16.98 269.748 20.1V43.86C269.748 46.56 268.188 48.24 265.248 48.24C262.368 48.24 260.748 46.62 260.688 43.92V43.32C258.948 46.38 255.528 48.18 251.268 48.18C244.008 48.18 239.628 43.74 239.628 36.3V20.16C239.628 16.98 241.428 15.24 244.728 15.24C248.028 15.24 249.828 16.98 249.828 20.16V34.98C249.828 39.24 251.148 41.28 254.148 41.28C257.448 41.28 259.248 37.32 259.788 34.92V20.1C259.788 16.98 261.588 15.24 264.768 15.24Z" fill="#594A39"/>
<path d="M305.438 19.2C307.238 21.12 308.138 23.82 308.138 27.3V43.26C308.138 46.5 306.878 48.24 303.758 48.24C300.578 48.24 299.138 46.5 299.138 43.26V43.08C297.158 46.56 293.438 48.24 288.698 48.24C282.339 48.24 278.438 44.52 278.438 38.58C278.438 31.44 285.098 27 295.178 27C296.378 27 297.638 27.06 298.418 27.18V26.64C298.418 23.64 296.738 21.84 293.558 21.72C290.978 21.6 288.218 22.74 285.938 25.2C284.498 26.76 282.398 27 280.898 25.68C279.338 24.42 279.158 22.44 280.538 20.7C282.698 18.06 287.438 15.24 293.738 15.24C299.318 15.24 302.858 16.5 305.438 19.2ZM298.538 36.36V33.3C297.758 33.18 296.438 33.06 295.298 33.12C289.538 33.42 287.558 35.64 287.678 37.98C287.798 40.02 289.058 41.22 291.518 41.22C294.338 41.22 297.158 39.24 298.538 36.36Z" fill="#594A39"/>
<path d="M374.886 41.04C376.386 43.74 375.846 46.08 373.206 47.46C370.446 48.9 367.926 48.3 366.426 45.48L358.566 30.72C358.206 30.72 357.846 30.72 357.486 30.72C356.046 30.72 354.486 30.72 353.226 30.66V43.02C353.226 46.44 351.366 48.24 348.126 48.24C344.706 48.24 342.786 46.44 342.786 43.02V8.46C342.786 5.52 344.286 3.66 347.166 3.24C349.566 2.88 353.466 2.76 356.706 2.76C368.946 2.76 375.366 7.8 375.366 16.8C375.366 23.22 372.006 27.06 367.326 28.98C370.806 34.26 373.206 38.04 374.886 41.04ZM357.066 24.06C362.106 24.06 365.046 21.48 365.046 16.86C365.046 12 362.346 9.42 357.006 9.42C355.746 9.42 354.306 9.48 353.586 9.6C353.286 9.66 353.106 9.84 353.106 10.2V24C354.366 24.06 355.806 24.06 357.066 24.06Z" fill="#594A39"/>
<path d="M406.634 39.48C408.254 38.28 409.994 38.4 411.134 39.72C412.274 40.98 412.334 42.72 411.074 44.1C409.154 46.26 404.474 48.24 398.534 48.24C389.114 48.24 381.854 43.5 381.854 32.46C381.854 21.84 388.094 15.18 398.114 15.18C407.954 15.18 412.874 22.5 412.874 29.58C412.874 33 411.134 34.8 407.474 34.8H392.234C392.834 39.78 395.054 41.64 399.314 41.76C402.254 41.82 404.654 40.98 406.634 39.48ZM398.234 21.48C394.454 21.48 392.774 24.06 392.234 28.2H403.154C403.514 28.2 403.694 28.02 403.694 27.66C403.694 23.52 401.594 21.48 398.234 21.48Z" fill="#594A39"/>
<path d="M440.407 15.24C447.547 15.24 451.987 19.8 451.987 27.18V43.26C451.987 46.5 450.187 48.24 446.887 48.24C443.587 48.24 441.787 46.5 441.787 43.26V27.96C441.787 24.18 440.227 21.9 437.467 21.9C434.827 21.9 432.427 24.3 431.647 27.66V43.26C431.647 46.5 429.847 48.24 426.547 48.24C423.247 48.24 421.447 46.5 421.447 43.26V19.92C421.447 16.92 423.127 15.3 426.127 15.3C429.187 15.3 430.867 16.8 430.867 19.86V20.82C432.667 17.16 436.387 15.24 440.407 15.24Z" fill="#594A39"/>
<path d="M487.067 19.2C488.867 21.12 489.767 23.82 489.767 27.3V43.26C489.767 46.5 488.507 48.24 485.387 48.24C482.207 48.24 480.767 46.5 480.767 43.26V43.08C478.787 46.56 475.067 48.24 470.327 48.24C463.967 48.24 460.067 44.52 460.067 38.58C460.067 31.44 466.727 27 476.807 27C478.007 27 479.267 27.06 480.047 27.18V26.64C480.047 23.64 478.367 21.84 475.187 21.72C472.607 21.6 469.847 22.74 467.567 25.2C466.127 26.76 464.027 27 462.527 25.68C460.967 24.42 460.787 22.44 462.167 20.7C464.327 18.06 469.067 15.24 475.367 15.24C480.947 15.24 484.487 16.5 487.067 19.2ZM480.167 36.36V33.3C479.387 33.18 478.067 33.06 476.927 33.12C471.167 33.42 469.187 35.64 469.307 37.98C469.427 40.02 470.687 41.22 473.147 41.22C475.967 41.22 478.787 39.24 480.167 36.36Z" fill="#594A39"/>
<path d="M505.778 11.58C502.478 11.58 499.718 9.06 499.718 5.82C499.718 2.46 502.418 0 505.778 0C509.198 0 511.598 2.4 511.598 5.82C511.598 9.12 509.138 11.58 505.778 11.58ZM505.658 48.24C502.298 48.24 500.558 46.5 500.558 43.26V20.82C500.558 17.58 502.298 15.84 505.658 15.84C509.018 15.84 510.758 17.58 510.758 20.82V43.26C510.758 46.5 509.018 48.24 505.658 48.24Z" fill="#594A39"/>
<path d="M570.139 24.6C574.519 25.38 579.799 28.56 579.799 35.22C579.799 45.06 570.319 47.82 561.199 47.82C557.839 47.82 554.179 47.82 551.539 47.46C548.239 46.98 546.619 45.36 546.619 42.3V8.46C546.619 5.4 548.179 3.72 551.359 3.3C553.099 3.06 556.639 2.94 559.699 2.94C569.419 2.94 578.179 5.82 578.179 14.4C578.179 20.28 574.099 23.28 570.139 24.12V24.6ZM557.479 9.9C557.059 9.96 556.939 10.14 556.939 10.44V21.48H558.919C564.619 21.48 568.099 20.34 568.099 15.3C568.099 11.52 564.979 9.78 559.279 9.78C558.679 9.78 558.079 9.84 557.479 9.9ZM560.239 40.8C565.339 40.8 569.539 39 569.539 34.2C569.539 29.58 566.119 27.54 559.039 27.54H556.939V40.08C556.939 40.44 557.119 40.62 557.479 40.68C558.199 40.8 559.219 40.8 560.239 40.8Z" fill="#594A39"/>
<path d="M613.788 15.24C617.028 15.24 618.768 16.98 618.768 20.1V43.86C618.768 46.56 617.208 48.24 614.268 48.24C611.388 48.24 609.768 46.62 609.708 43.92V43.32C607.968 46.38 604.548 48.18 600.288 48.18C593.028 48.18 588.648 43.74 588.648 36.3V20.16C588.648 16.98 590.448 15.24 593.748 15.24C597.048 15.24 598.848 16.98 598.848 20.16V34.98C598.848 39.24 600.168 41.28 603.168 41.28C606.468 41.28 608.268 37.32 608.808 34.92V20.1C608.808 16.98 610.608 15.24 613.788 15.24Z" fill="#594A39"/>
<path d="M635.378 11.58C632.078 11.58 629.318 9.06 629.318 5.82C629.318 2.46 632.018 0 635.378 0C638.798 0 641.198 2.4 641.198 5.82C641.198 9.12 638.738 11.58 635.378 11.58ZM635.258 48.24C631.898 48.24 630.158 46.5 630.158 43.26V20.82C630.158 17.58 631.898 15.84 635.258 15.84C638.618 15.84 640.358 17.58 640.358 20.82V43.26C640.358 46.5 638.618 48.24 635.258 48.24Z" fill="#594A39"/>
<path d="M660.816 48.24C654.516 48.24 652.056 45.9 652.056 38.34V5.46C652.056 2.28 653.856 0.54 657.156 0.54C660.336 0.54 662.196 2.28 662.196 5.46V38.4C662.196 40.14 662.376 40.74 663.636 40.74C664.356 40.74 664.776 40.44 665.496 40.44C666.576 40.44 668.136 41.28 668.136 43.86C668.136 47.22 664.836 48.24 660.816 48.24Z" fill="#594A39"/>
<path d="M700.151 0.54C703.391 0.54 705.191 2.4 705.191 5.76V43.5C705.191 46.5 703.511 48.24 700.511 48.24C698.051 48.24 696.251 47.04 695.711 44.94C693.791 46.98 690.491 48.24 687.491 48.24C680.531 48.24 673.571 44.16 673.571 31.92C673.571 21.72 679.571 15.24 687.431 15.24C691.271 15.24 693.671 16.74 694.991 17.94V5.64C694.991 2.28 696.731 0.54 700.151 0.54ZM690.191 41.4C692.231 41.4 694.211 40.38 695.531 38.58V26.1C694.751 24.36 693.011 22.02 689.531 22.02C686.051 22.02 683.291 25.38 683.291 32.04C683.291 37.98 686.111 41.4 690.191 41.4Z" fill="#594A39"/>
<path d="M721.914 11.58C718.614 11.58 715.854 9.06 715.854 5.82C715.854 2.46 718.554 0 721.914 0C725.334 0 727.734 2.4 727.734 5.82C727.734 9.12 725.274 11.58 721.914 11.58ZM721.794 48.24C718.434 48.24 716.694 46.5 716.694 43.26V20.82C716.694 17.58 718.434 15.84 721.794 15.84C725.154 15.84 726.894 17.58 726.894 20.82V43.26C726.894 46.5 725.154 48.24 721.794 48.24Z" fill="#594A39"/>
<path d="M757.259 15.24C764.399 15.24 768.839 19.8 768.839 27.18V43.26C768.839 46.5 767.039 48.24 763.739 48.24C760.439 48.24 758.639 46.5 758.639 43.26V27.96C758.639 24.18 757.079 21.9 754.319 21.9C751.679 21.9 749.279 24.3 748.499 27.66V43.26C748.499 46.5 746.699 48.24 743.399 48.24C740.099 48.24 738.299 46.5 738.299 43.26V19.92C738.299 16.92 739.979 15.3 742.979 15.3C746.039 15.3 747.719 16.8 747.719 19.86V20.82C749.519 17.16 753.239 15.24 757.259 15.24Z" fill="#594A39"/>
<path d="M803.679 15.3C806.979 15.3 808.119 16.98 808.119 20.22V46.68C808.119 57.24 802.599 62.46 792.159 62.46C788.379 62.46 784.119 61.32 781.659 59.7C779.619 58.38 778.899 56.64 779.919 54.72C780.879 52.86 782.859 52.5 784.659 53.64C786.519 54.78 788.499 55.68 791.799 55.68C796.479 55.68 798.519 53.16 798.519 47.04V44.7C796.659 46.32 793.959 47.34 791.319 47.34C784.239 47.34 777.099 43.8 777.099 31.8C777.099 21.36 782.739 15.24 791.019 15.24C794.799 15.24 797.439 16.68 799.059 18.9C799.479 16.62 801.099 15.3 803.679 15.3ZM793.599 40.56C795.699 40.56 797.679 39.6 798.939 37.92V26.34C798.279 24.6 796.659 22.02 793.119 22.02C789.219 22.02 786.819 25.02 786.819 31.92C786.819 37.56 789.519 40.56 793.599 40.56Z" fill="#594A39"/>
<path d="M845.596 35.28C843.076 35.28 841.695 33.9 841.695 31.38C841.695 28.86 843.076 27.48 845.596 27.48H860.596C863.116 27.48 864.495 28.86 864.495 31.38C864.495 33.9 863.116 35.28 860.596 35.28H845.596Z" fill="#594A39"/>
<path d="M38.356 131.34C39.376 134.7 38.416 136.98 35.356 137.88C32.056 138.84 29.656 137.64 28.756 134.46L25.876 124.08H12.376L9.19598 134.64C8.29599 137.58 6.25598 138.78 3.31598 137.88C0.435984 136.98 -0.644016 134.82 0.375984 131.82L11.596 98.46C12.976 94.26 15.316 92.4 19.216 92.4C23.056 92.4 26.056 94.26 27.496 98.4C30.376 106.74 34.996 120.3 38.356 131.34ZM14.416 117.36H23.956C22.516 112.14 21.016 106.98 19.576 101.88H19.096L14.416 117.36Z" fill="#594A39"/>
<path d="M85.7846 137.7C81.3446 137.7 78.7646 137.52 76.5446 137.22C73.4246 136.8 71.8646 135.06 71.8646 132.06V98.52C71.8646 95.46 73.4846 93.72 76.6646 93.42C78.5846 93.24 80.5646 93.06 84.8846 93.06C99.8846 93.06 108.345 100.98 108.345 114.6C108.345 129.36 100.365 137.7 85.7846 137.7ZM85.3046 130.74C95.0246 130.74 98.0246 124.62 98.0246 114.9C98.0246 105 93.3446 99.96 84.5246 99.96C83.8646 99.96 83.2046 100.02 82.6646 100.08C82.3046 100.14 82.1846 100.32 82.1846 100.62V130.02C82.1846 130.32 82.3046 130.5 82.7246 130.56C83.4446 130.68 84.3446 130.74 85.3046 130.74Z" fill="#594A39"/>
<path d="M139.756 129.48C141.376 128.28 143.116 128.4 144.256 129.72C145.396 130.98 145.456 132.72 144.196 134.1C142.276 136.26 137.596 138.24 131.656 138.24C122.236 138.24 114.976 133.5 114.976 122.46C114.976 111.84 121.216 105.18 131.236 105.18C141.076 105.18 145.996 112.5 145.996 119.58C145.996 123 144.256 124.8 140.596 124.8H125.356C125.956 129.78 128.176 131.64 132.436 131.76C135.376 131.82 137.776 130.98 139.756 129.48ZM131.356 111.48C127.576 111.48 125.896 114.06 125.356 118.2H136.276C136.636 118.2 136.816 118.02 136.816 117.66C136.816 113.52 134.716 111.48 131.356 111.48Z" fill="#594A39"/>
<path d="M168.969 138.24C158.709 138.24 152.649 132.24 152.649 121.98C152.649 111.72 158.949 105.24 169.029 105.24C174.609 105.24 178.449 107.52 180.009 109.5C181.209 110.88 181.149 112.68 179.829 113.88C178.269 115.26 176.529 115.32 175.149 114C173.829 112.74 171.849 112.2 169.869 112.2C165.429 112.2 162.849 115.44 162.849 121.5C162.849 128.16 165.369 131.16 169.989 131.16C172.329 131.16 174.189 130.62 175.569 129.42C176.949 128.22 178.689 128.34 180.009 129.54C181.449 130.8 181.449 132.54 180.189 134.22C178.269 136.74 173.949 138.24 168.969 138.24Z" fill="#594A39"/>
<path d="M214.271 109.2C216.071 111.12 216.971 113.82 216.971 117.3V133.26C216.971 136.5 215.711 138.24 212.591 138.24C209.411 138.24 207.971 136.5 207.971 133.26V133.08C205.991 136.56 202.271 138.24 197.531 138.24C191.171 138.24 187.271 134.52 187.271 128.58C187.271 121.44 193.931 117 204.011 117C205.211 117 206.471 117.06 207.251 117.18V116.64C207.251 113.64 205.571 111.84 202.391 111.72C199.811 111.6 197.051 112.74 194.771 115.2C193.331 116.76 191.231 117 189.731 115.68C188.171 114.42 187.991 112.44 189.371 110.7C191.531 108.06 196.271 105.24 202.571 105.24C208.151 105.24 211.691 106.5 214.271 109.2ZM207.371 126.36V123.3C206.591 123.18 205.271 123.06 204.131 123.12C198.371 123.42 196.391 125.64 196.511 127.98C196.631 130.02 197.891 131.22 200.351 131.22C203.171 131.22 205.991 129.24 207.371 126.36Z" fill="#594A39"/>
<path d="M251.822 90.54C255.062 90.54 256.862 92.4 256.862 95.76V133.5C256.862 136.5 255.182 138.24 252.182 138.24C249.722 138.24 247.922 137.04 247.382 134.94C245.462 136.98 242.162 138.24 239.162 138.24C232.202 138.24 225.242 134.16 225.242 121.92C225.242 111.72 231.242 105.24 239.102 105.24C242.942 105.24 245.342 106.74 246.662 107.94V95.64C246.662 92.28 248.402 90.54 251.822 90.54ZM241.862 131.4C243.902 131.4 245.882 130.38 247.202 128.58V116.1C246.422 114.36 244.682 112.02 241.202 112.02C237.722 112.02 234.962 115.38 234.962 122.04C234.962 127.98 237.782 131.4 241.862 131.4Z" fill="#594A39"/>
<path d="M290.625 129.48C292.245 128.28 293.985 128.4 295.125 129.72C296.265 130.98 296.325 132.72 295.065 134.1C293.145 136.26 288.465 138.24 282.525 138.24C273.105 138.24 265.845 133.5 265.845 122.46C265.845 111.84 272.085 105.18 282.105 105.18C291.945 105.18 296.865 112.5 296.865 119.58C296.865 123 295.125 124.8 291.465 124.8H276.225C276.825 129.78 279.045 131.64 283.305 131.76C286.245 131.82 288.645 130.98 290.625 129.48ZM282.225 111.48C278.445 111.48 276.765 114.06 276.225 118.2H287.145C287.505 118.2 287.685 118.02 287.685 117.66C287.685 113.52 285.585 111.48 282.225 111.48Z" fill="#594A39"/>
<path d="M343.095 138.3C332.475 138.3 326.895 131.94 326.895 121.2C326.895 111.48 333.615 105.24 343.515 105.24C353.295 105.24 359.535 111.42 359.595 121.2C359.655 132.18 353.295 138.3 343.095 138.3ZM343.215 131.64C347.355 131.52 349.155 128.52 349.155 121.38C349.155 114.9 347.415 111.78 343.215 111.84C339.135 111.9 337.275 114.96 337.335 121.38C337.395 128.16 338.895 131.76 343.215 131.64Z" fill="#594A39"/>
<path d="M387.215 91.56C388.595 92.52 389.075 94.2 388.415 95.7C387.695 97.32 386.015 97.98 384.575 97.26C383.975 96.96 383.435 96.84 382.895 96.84C381.275 96.84 380.675 97.86 380.675 100.5V106.14H384.395C386.315 106.14 387.395 107.46 387.395 109.56C387.395 111.72 386.255 112.98 384.395 112.98H380.675V133.32C380.675 136.68 378.755 138.24 375.575 138.24C372.335 138.24 370.475 136.56 370.475 133.32V112.98H367.595C365.675 112.98 364.475 111.72 364.475 109.56C364.475 107.4 365.675 106.14 367.595 106.14H370.475V100.32C370.475 93.78 374.255 89.94 380.735 89.94C383.315 89.94 385.835 90.6 387.215 91.56Z" fill="#594A39"/>
<path d="M451.402 131.04C452.902 133.74 452.362 136.08 449.722 137.46C446.962 138.9 444.442 138.3 442.942 135.48L435.082 120.72C434.722 120.72 434.362 120.72 434.002 120.72C432.562 120.72 431.002 120.72 429.742 120.66V133.02C429.742 136.44 427.882 138.24 424.642 138.24C421.222 138.24 419.302 136.44 419.302 133.02V98.46C419.302 95.52 420.802 93.66 423.682 93.24C426.082 92.88 429.982 92.76 433.222 92.76C445.462 92.76 451.882 97.8 451.882 106.8C451.882 113.22 448.522 117.06 443.842 118.98C447.322 124.26 449.722 128.04 451.402 131.04ZM433.582 114.06C438.622 114.06 441.562 111.48 441.562 106.86C441.562 102 438.862 99.42 433.522 99.42C432.262 99.42 430.822 99.48 430.102 99.6C429.802 99.66 429.622 99.84 429.622 100.2V114C430.882 114.06 432.322 114.06 433.582 114.06Z" fill="#594A39"/>
<path d="M483.15 129.48C484.77 128.28 486.51 128.4 487.65 129.72C488.79 130.98 488.85 132.72 487.59 134.1C485.67 136.26 480.99 138.24 475.05 138.24C465.63 138.24 458.37 133.5 458.37 122.46C458.37 111.84 464.61 105.18 474.63 105.18C484.47 105.18 489.39 112.5 489.39 119.58C489.39 123 487.65 124.8 483.99 124.8H468.75C469.35 129.78 471.57 131.64 475.83 131.76C478.77 131.82 481.17 130.98 483.15 129.48ZM474.75 111.48C470.97 111.48 469.29 114.06 468.75 118.2H479.67C480.03 118.2 480.21 118.02 480.21 117.66C480.21 113.52 478.11 111.48 474.75 111.48Z" fill="#594A39"/>
<path d="M517.284 91.56C518.664 92.52 519.143 94.2 518.484 95.7C517.763 97.32 516.083 97.98 514.643 97.26C514.044 96.96 513.503 96.84 512.964 96.84C511.344 96.84 510.743 97.86 510.743 100.5V106.14H514.464C516.383 106.14 517.464 107.46 517.464 109.56C517.464 111.72 516.323 112.98 514.464 112.98H510.743V133.32C510.743 136.68 508.823 138.24 505.643 138.24C502.404 138.24 500.543 136.56 500.543 133.32V112.98H497.663C495.743 112.98 494.543 111.72 494.543 109.56C494.543 107.4 495.743 106.14 497.663 106.14H500.543V100.32C500.543 93.78 504.323 89.94 510.803 89.94C513.383 89.94 515.904 90.6 517.284 91.56Z" fill="#594A39"/>
<path d="M530.734 101.58C527.434 101.58 524.674 99.06 524.674 95.82C524.674 92.46 527.374 90 530.734 90C534.154 90 536.554 92.4 536.554 95.82C536.554 99.12 534.094 101.58 530.734 101.58ZM530.614 138.24C527.254 138.24 525.514 136.5 525.514 133.26V110.82C525.514 107.58 527.254 105.84 530.614 105.84C533.974 105.84 535.714 107.58 535.714 110.82V133.26C535.714 136.5 533.974 138.24 530.614 138.24Z" fill="#594A39"/>
<path d="M566.079 105.24C573.219 105.24 577.659 109.8 577.659 117.18V133.26C577.659 136.5 575.859 138.24 572.559 138.24C569.259 138.24 567.459 136.5 567.459 133.26V117.96C567.459 114.18 565.899 111.9 563.139 111.9C560.499 111.9 558.099 114.3 557.319 117.66V133.26C557.319 136.5 555.519 138.24 552.219 138.24C548.919 138.24 547.119 136.5 547.119 133.26V109.92C547.119 106.92 548.799 105.3 551.799 105.3C554.859 105.3 556.539 106.8 556.539 109.86V110.82C558.339 107.16 562.059 105.24 566.079 105.24Z" fill="#594A39"/>
<path d="M610.699 129.48C612.319 128.28 614.059 128.4 615.199 129.72C616.339 130.98 616.399 132.72 615.139 134.1C613.219 136.26 608.539 138.24 602.599 138.24C593.179 138.24 585.919 133.5 585.919 122.46C585.919 111.84 592.159 105.18 602.179 105.18C612.019 105.18 616.939 112.5 616.939 119.58C616.939 123 615.199 124.8 611.539 124.8H596.299C596.899 129.78 599.119 131.64 603.379 131.76C606.319 131.82 608.719 130.98 610.699 129.48ZM602.299 111.48C598.519 111.48 596.839 114.06 596.299 118.2H607.219C607.579 118.2 607.759 118.02 607.759 117.66C607.759 113.52 605.659 111.48 602.299 111.48Z" fill="#594A39"/>
<path d="M662.593 105.24C669.853 105.24 674.113 109.44 674.113 116.7V133.38C674.113 136.56 672.373 138.24 669.073 138.24C665.773 138.24 664.033 136.56 664.033 133.38V116.58C664.033 113.52 662.593 111.72 660.253 111.72C657.973 111.72 656.173 113.22 655.033 116.04V133.38C655.033 136.56 653.293 138.24 650.053 138.24C646.753 138.24 645.013 136.56 645.013 133.38V116.76C645.013 113.58 643.573 111.84 641.173 111.84C638.833 111.84 636.673 114.06 635.713 117.3V133.26C635.713 136.5 633.913 138.24 630.613 138.24C627.313 138.24 625.513 136.5 625.513 133.26V110.1C625.513 106.98 627.373 105.3 630.433 105.3C633.313 105.3 635.173 106.8 635.173 109.8V110.46C636.673 107.04 640.213 105.24 644.173 105.24C648.373 105.24 651.553 106.86 653.353 109.74C655.453 106.86 658.633 105.24 662.593 105.24ZM635.233 120.18L635.293 119.52C635.233 119.7 635.233 119.94 635.233 120.18Z" fill="#594A39"/>
<path d="M707.198 129.48C708.818 128.28 710.558 128.4 711.698 129.72C712.839 130.98 712.898 132.72 711.638 134.1C709.719 136.26 705.038 138.24 699.098 138.24C689.678 138.24 682.418 133.5 682.418 122.46C682.418 111.84 688.658 105.18 698.678 105.18C708.518 105.18 713.438 112.5 713.438 119.58C713.438 123 711.698 124.8 708.038 124.8H692.798C693.398 129.78 695.618 131.64 699.878 131.76C702.818 131.82 705.219 130.98 707.198 129.48ZM698.798 111.48C695.018 111.48 693.338 114.06 692.798 118.2H703.718C704.078 118.2 704.258 118.02 704.258 117.66C704.258 113.52 702.158 111.48 698.798 111.48Z" fill="#594A39"/>
<path d="M740.972 105.24C748.112 105.24 752.552 109.8 752.552 117.18V133.26C752.552 136.5 750.752 138.24 747.452 138.24C744.152 138.24 742.352 136.5 742.352 133.26V117.96C742.352 114.18 740.792 111.9 738.032 111.9C735.392 111.9 732.992 114.3 732.212 117.66V133.26C732.212 136.5 730.412 138.24 727.112 138.24C723.812 138.24 722.012 136.5 722.012 133.26V109.92C722.012 106.92 723.692 105.3 726.692 105.3C729.752 105.3 731.432 106.8 731.432 109.86V110.82C733.232 107.16 736.952 105.24 740.972 105.24Z" fill="#594A39"/>
<path d="M779.913 130.14C781.653 130.14 782.733 132.24 782.733 133.74C782.733 136.86 778.293 137.76 774.993 137.76C768.093 137.76 764.973 134.46 764.973 127.32V112.98H761.613C759.693 112.98 758.613 111.66 758.613 109.56C758.613 107.4 759.753 106.14 761.613 106.14H764.973V102.36C764.973 99.12 766.773 97.38 770.073 97.38C773.373 97.38 775.173 99.12 775.173 102.36V106.14H779.073C780.993 106.14 782.073 107.46 782.073 109.56C782.073 111.72 780.933 112.98 779.073 112.98H775.173V127.2C775.173 129.6 775.833 130.68 776.913 130.68C778.053 130.68 778.833 130.14 779.913 130.14Z" fill="#594A39"/>
<path d="M792.652 145.8C791.212 145.26 790.792 143.88 791.092 142.26C791.752 139.38 792.532 133.86 792.892 130.68C793.252 127.68 795.292 126.06 797.992 126.48C801.112 127.02 802.312 129.6 801.772 132.36C801.112 135.6 798.412 141.36 796.732 143.94C795.592 145.74 794.452 146.46 792.652 145.8Z" fill="#594A39"/>
<path d="M17.176 227.7C12.736 227.7 10.156 227.52 7.93598 227.22C4.81598 226.8 3.25598 225.06 3.25598 222.06V188.52C3.25598 185.46 4.87599 183.72 8.05599 183.42C9.97598 183.24 11.956 183.06 16.276 183.06C31.276 183.06 39.736 190.98 39.736 204.6C39.736 219.36 31.756 227.7 17.176 227.7ZM16.696 220.74C26.416 220.74 29.416 214.62 29.416 204.9C29.416 195 24.736 189.96 15.916 189.96C15.256 189.96 14.596 190.02 14.056 190.08C13.696 190.14 13.576 190.32 13.576 190.62V220.02C13.576 220.32 13.696 220.5 14.116 220.56C14.836 220.68 15.736 220.74 16.696 220.74Z" fill="#594A39"/>
<path d="M71.4788 198.84C71.7788 202.14 69.6788 203.16 66.7388 203.52C63.5588 203.94 60.5588 207.06 59.6588 211.02V223.44C59.6588 226.8 57.6188 228.24 54.3188 228.24C51.0188 228.24 49.4588 226.74 49.4588 223.44V199.38C49.4588 196.5 51.3788 195.24 54.3188 195.24C57.0788 195.24 58.8788 196.68 58.8788 199.62V202.44C60.1388 197.46 62.9588 195.42 66.4988 195.3C69.1988 195.24 71.2388 196.14 71.4788 198.84Z" fill="#594A39"/>
<path d="M101.145 219.48C102.765 218.28 104.505 218.4 105.645 219.72C106.785 220.98 106.845 222.72 105.585 224.1C103.665 226.26 98.9846 228.24 93.0446 228.24C83.6246 228.24 76.3646 223.5 76.3646 212.46C76.3646 201.84 82.6046 195.18 92.6246 195.18C102.465 195.18 107.385 202.5 107.385 209.58C107.385 213 105.645 214.8 101.985 214.8H86.7446C87.3446 219.78 89.5646 221.64 93.8246 221.76C96.7646 221.82 99.1646 220.98 101.145 219.48ZM92.7446 201.48C88.9646 201.48 87.2846 204.06 86.7446 208.2H97.6646C98.0246 208.2 98.2046 208.02 98.2046 207.66C98.2046 203.52 96.1046 201.48 92.7446 201.48Z" fill="#594A39"/>
<path d="M140.858 199.2C142.658 201.12 143.558 203.82 143.558 207.3V223.26C143.558 226.5 142.298 228.24 139.178 228.24C135.998 228.24 134.558 226.5 134.558 223.26V223.08C132.578 226.56 128.858 228.24 124.118 228.24C117.758 228.24 113.858 224.52 113.858 218.58C113.858 211.44 120.518 207 130.598 207C131.798 207 133.058 207.06 133.838 207.18V206.64C133.838 203.64 132.158 201.84 128.978 201.72C126.398 201.6 123.638 202.74 121.358 205.2C119.918 206.76 117.818 207 116.318 205.68C114.758 204.42 114.578 202.44 115.958 200.7C118.118 198.06 122.858 195.24 129.158 195.24C134.738 195.24 138.278 196.5 140.858 199.2ZM133.958 216.36V213.3C133.178 213.18 131.858 213.06 130.718 213.12C124.958 213.42 122.978 215.64 123.098 217.98C123.218 220.02 124.478 221.22 126.938 221.22C129.758 221.22 132.578 219.24 133.958 216.36Z" fill="#594A39"/>
<path d="M190.829 195.24C198.089 195.24 202.349 199.44 202.349 206.7V223.38C202.349 226.56 200.609 228.24 197.309 228.24C194.009 228.24 192.269 226.56 192.269 223.38V206.58C192.269 203.52 190.829 201.72 188.489 201.72C186.209 201.72 184.409 203.22 183.269 206.04V223.38C183.269 226.56 181.529 228.24 178.289 228.24C174.989 228.24 173.249 226.56 173.249 223.38V206.76C173.249 203.58 171.809 201.84 169.409 201.84C167.069 201.84 164.909 204.06 163.949 207.3V223.26C163.949 226.5 162.149 228.24 158.849 228.24C155.549 228.24 153.749 226.5 153.749 223.26V200.1C153.749 196.98 155.609 195.3 158.669 195.3C161.549 195.3 163.409 196.8 163.409 199.8V200.46C164.909 197.04 168.449 195.24 172.409 195.24C176.609 195.24 179.789 196.86 181.589 199.74C183.689 196.86 186.869 195.24 190.829 195.24ZM163.469 210.18L163.529 209.52C163.469 209.7 163.469 209.94 163.469 210.18Z" fill="#594A39"/>
<path d="M210.954 219.9C211.974 218.64 213.654 218.4 215.214 219.36C217.014 220.44 219.594 221.52 222.234 221.52C224.874 221.52 226.134 220.86 226.134 219.3C226.134 217.8 225.474 216.78 220.314 214.5C214.194 211.8 211.014 209.28 211.014 204.36C211.014 198.96 216.234 195.24 223.914 195.24C229.074 195.24 232.614 196.86 234.354 198.36C235.734 199.56 235.974 201.36 234.954 202.74C233.934 204.12 231.714 204.48 230.034 203.28C228.594 202.26 226.674 201.9 224.454 201.9C222.174 201.9 221.034 202.74 221.034 204C221.034 205.44 222.234 206.16 226.674 208.2C233.694 211.38 236.454 214.02 236.454 218.76C236.454 225.24 230.334 228.24 223.914 228.24C219.354 228.24 214.014 227.1 211.434 224.52C209.994 223.08 209.754 221.34 210.954 219.9Z" fill="#594A39"/>
<path d="M288.09 228.24C275.01 228.24 267.33 219.9 267.33 204.78C267.33 190.98 275.37 182.34 288.57 182.34C293.79 182.34 297.69 183.9 299.79 185.46C301.53 186.72 302.13 188.7 301.23 190.26C300.21 192.06 298.23 192.48 296.43 191.4C294.45 190.14 292.23 189.42 288.87 189.42C282.09 189.42 277.95 195 277.95 204.66C277.95 215.34 281.97 221.16 288.63 221.16C292.59 221.16 294.75 219.96 296.49 218.7C298.23 217.44 300.15 217.86 301.53 219.6C302.73 221.1 302.49 223.02 300.81 224.52C298.65 226.5 294.03 228.24 288.09 228.24Z" fill="#594A39"/>
<path d="M324.699 228.3C314.079 228.3 308.499 221.94 308.499 211.2C308.499 201.48 315.219 195.24 325.119 195.24C334.899 195.24 341.139 201.42 341.199 211.2C341.259 222.18 334.899 228.3 324.699 228.3ZM324.819 221.64C328.959 221.52 330.759 218.52 330.759 211.38C330.759 204.9 329.019 201.78 324.819 201.84C320.739 201.9 318.879 204.96 318.939 211.38C318.999 218.16 320.499 221.76 324.819 221.64Z" fill="#594A39"/>
<path d="M387.165 195.24C394.425 195.24 398.685 199.44 398.685 206.7V223.38C398.685 226.56 396.945 228.24 393.645 228.24C390.345 228.24 388.605 226.56 388.605 223.38V206.58C388.605 203.52 387.165 201.72 384.825 201.72C382.545 201.72 380.745 203.22 379.605 206.04V223.38C379.605 226.56 377.865 228.24 374.625 228.24C371.325 228.24 369.585 226.56 369.585 223.38V206.76C369.585 203.58 368.145 201.84 365.745 201.84C363.405 201.84 361.245 204.06 360.285 207.3V223.26C360.285 226.5 358.485 228.24 355.185 228.24C351.885 228.24 350.085 226.5 350.085 223.26V200.1C350.085 196.98 351.945 195.3 355.005 195.3C357.885 195.3 359.745 196.8 359.745 199.8V200.46C361.245 197.04 364.785 195.24 368.745 195.24C372.945 195.24 376.125 196.86 377.925 199.74C380.025 196.86 383.205 195.24 387.165 195.24ZM359.805 210.18L359.865 209.52C359.805 209.7 359.805 209.94 359.805 210.18Z" fill="#594A39"/>
<path d="M431.77 219.48C433.39 218.28 435.13 218.4 436.27 219.72C437.41 220.98 437.47 222.72 436.21 224.1C434.29 226.26 429.61 228.24 423.67 228.24C414.25 228.24 406.99 223.5 406.99 212.46C406.99 201.84 413.23 195.18 423.25 195.18C433.09 195.18 438.01 202.5 438.01 209.58C438.01 213 436.27 214.8 432.61 214.8H417.37C417.97 219.78 420.19 221.64 424.45 221.76C427.39 221.82 429.79 220.98 431.77 219.48ZM423.37 201.48C419.59 201.48 417.91 204.06 417.37 208.2H428.29C428.65 208.2 428.83 208.02 428.83 207.66C428.83 203.52 426.73 201.48 423.37 201.48Z" fill="#594A39"/>
<path d="M500.08 183.3C502.3 183.3 503.44 184.56 503.44 186.78C503.44 189 502.3 190.26 500.08 190.26H490.54V223.32C490.54 226.56 488.62 228.24 485.38 228.24C482.08 228.24 480.22 226.56 480.22 223.32V190.26H470.74C468.52 190.26 467.38 189 467.38 186.78C467.38 184.56 468.52 183.3 470.74 183.3H500.08Z" fill="#594A39"/>
<path d="M527.72 198.84C528.02 202.14 525.92 203.16 522.98 203.52C519.8 203.94 516.8 207.06 515.9 211.02V223.44C515.9 226.8 513.86 228.24 510.56 228.24C507.26 228.24 505.7 226.74 505.7 223.44V199.38C505.7 196.5 507.62 195.24 510.56 195.24C513.32 195.24 515.12 196.68 515.12 199.62V202.44C516.38 197.46 519.2 195.42 522.74 195.3C525.44 195.24 527.48 196.14 527.72 198.84Z" fill="#594A39"/>
<path d="M559.652 195.24C562.892 195.24 564.632 196.98 564.632 200.1V223.86C564.632 226.56 563.072 228.24 560.132 228.24C557.252 228.24 555.632 226.62 555.572 223.92V223.32C553.832 226.38 550.412 228.18 546.152 228.18C538.892 228.18 534.512 223.74 534.512 216.3V200.16C534.512 196.98 536.312 195.24 539.612 195.24C542.912 195.24 544.712 196.98 544.712 200.16V214.98C544.712 219.24 546.032 221.28 549.032 221.28C552.332 221.28 554.132 217.32 554.672 214.92V200.1C554.672 196.98 556.472 195.24 559.652 195.24Z" fill="#594A39"/>
<path d="M598.282 219.48C599.902 218.28 601.642 218.4 602.782 219.72C603.922 220.98 603.982 222.72 602.722 224.1C600.802 226.26 596.122 228.24 590.182 228.24C580.762 228.24 573.502 223.5 573.502 212.46C573.502 201.84 579.742 195.18 589.762 195.18C599.602 195.18 604.522 202.5 604.522 209.58C604.522 213 602.782 214.8 599.122 214.8H583.882C584.482 219.78 586.702 221.64 590.962 221.76C593.902 221.82 596.302 220.98 598.282 219.48ZM589.882 201.48C586.102 201.48 584.422 204.06 583.882 208.2H594.802C595.162 208.2 595.342 208.02 595.342 207.66C595.342 203.52 593.242 201.48 589.882 201.48Z" fill="#594A39"/>
</svg>
