<svg width="1012" height="244" viewBox="0 0 1012 244" fill="none" xmlns="http://www.w3.org/2000/svg">
<path d="M16.3108 2.88C28.3708 2.88 34.9708 8.04 34.9708 16.98C34.9708 27.6 25.9108 31.32 16.9108 31.32C15.5308 31.32 14.0908 31.32 12.8308 31.26V43.02C12.8308 46.44 10.9108 48.24 7.61077 48.24C4.13077 48.24 2.39077 46.44 2.39077 43.02V8.58C2.39077 5.64 3.77077 3.78 6.65077 3.36C9.05077 3 12.9508 2.88 16.3108 2.88ZM16.4908 24.66C21.4708 24.66 24.6508 21.9 24.6508 17.04C24.6508 12.48 21.4708 9.6 16.5508 9.6C15.3508 9.6 13.9108 9.66 13.1908 9.78C12.8908 9.84 12.7108 10.02 12.7108 10.38V24.6C13.9708 24.66 15.2908 24.66 16.4908 24.66Z" fill="#594A39"/>
<path d="M68.4461 15.24C71.6861 15.24 73.4261 16.98 73.4261 20.1V43.86C73.4261 46.56 71.8661 48.24 68.9261 48.24C66.0461 48.24 64.4261 46.62 64.3661 43.92V43.32C62.6261 46.38 59.2061 48.18 54.9461 48.18C47.6861 48.18 43.3061 43.74 43.3061 36.3V20.16C43.3061 16.98 45.1061 15.24 48.4061 15.24C51.7061 15.24 53.5061 16.98 53.5061 20.16V34.98C53.5061 39.24 54.8261 41.28 57.8261 41.28C61.1261 41.28 62.9261 37.32 63.4661 34.92V20.1C63.4661 16.98 65.2661 15.24 68.4461 15.24Z" fill="#594A39"/>
<path d="M92.9762 48.24C86.6762 48.24 84.2162 45.9 84.2162 38.34V5.46C84.2162 2.28 86.0162 0.54 89.3162 0.54C92.4962 0.54 94.3562 2.28 94.3562 5.46V38.4C94.3562 40.14 94.5362 40.74 95.7962 40.74C96.5162 40.74 96.9362 40.44 97.6562 40.44C98.7362 40.44 100.296 41.28 100.296 43.86C100.296 47.22 96.9962 48.24 92.9762 48.24Z" fill="#594A39"/>
<path d="M113.706 11.58C110.406 11.58 107.646 9.06 107.646 5.82C107.646 2.46 110.346 0 113.706 0C117.126 0 119.526 2.4 119.526 5.82C119.526 9.12 117.066 11.58 113.706 11.58ZM113.586 48.24C110.226 48.24 108.486 46.5 108.486 43.26V20.82C108.486 17.58 110.226 15.84 113.586 15.84C116.946 15.84 118.686 17.58 118.686 20.82V43.26C118.686 46.5 116.946 48.24 113.586 48.24Z" fill="#594A39"/>
<path d="M184.727 43.86C184.727 46.02 183.527 47.28 181.307 47.28H156.947C154.487 47.28 152.867 46.56 152.027 45.12C151.187 43.62 151.367 41.82 152.687 39.78L171.527 10.62V10.2H156.047C153.887 10.2 152.627 9 152.627 6.78C152.627 4.62 153.827 3.36 156.047 3.36H178.367C180.827 3.36 182.207 3.9 183.047 5.16C184.067 6.66 183.887 8.64 182.627 10.86C176.627 20.88 170.087 30.06 163.367 39.96V40.44H181.307C183.467 40.44 184.727 41.64 184.727 43.86Z" fill="#594A39"/>
<path d="M212.563 15.24C219.283 15.24 223.543 19.92 223.543 27.18V43.5C223.543 46.68 221.863 48.24 218.563 48.24C215.263 48.24 213.583 46.68 213.583 43.5V27.6C213.583 24.24 212.203 22.44 209.503 22.44C206.683 22.44 204.883 24.18 203.743 27.24V43.5C203.743 46.68 201.943 48.24 198.643 48.24C195.343 48.24 193.543 46.68 193.543 43.5V5.4C193.543 2.16 195.283 0.54 198.643 0.54C202.003 0.54 203.743 2.16 203.743 5.4V19.56C205.603 16.74 208.603 15.24 212.563 15.24Z" fill="#594A39"/>
<path d="M248.016 48.3C237.396 48.3 231.816 41.94 231.816 31.2C231.816 21.48 238.536 15.24 248.436 15.24C258.216 15.24 264.456 21.42 264.516 31.2C264.576 42.18 258.216 48.3 248.016 48.3ZM248.136 41.64C252.276 41.52 254.076 38.52 254.076 31.38C254.076 24.9 252.336 21.78 248.136 21.84C244.056 21.9 242.196 24.96 242.256 31.38C242.316 38.16 243.816 41.76 248.136 41.64Z" fill="#594A39"/>
<path d="M292.361 15.24C299.501 15.24 303.941 19.8 303.941 27.18V43.26C303.941 46.5 302.141 48.24 298.841 48.24C295.541 48.24 293.741 46.5 293.741 43.26V27.96C293.741 24.18 292.181 21.9 289.421 21.9C286.781 21.9 284.381 24.3 283.601 27.66V43.26C283.601 46.5 281.801 48.24 278.501 48.24C275.201 48.24 273.401 46.5 273.401 43.26V19.92C273.401 16.92 275.081 15.3 278.081 15.3C281.141 15.3 282.821 16.8 282.821 19.86V20.82C284.621 17.16 288.341 15.24 292.361 15.24Z" fill="#594A39"/>
<path d="M338.782 15.3C342.082 15.3 343.222 16.98 343.222 20.22V46.68C343.222 57.24 337.702 62.46 327.262 62.46C323.482 62.46 319.222 61.32 316.762 59.7C314.722 58.38 314.002 56.64 315.022 54.72C315.982 52.86 317.962 52.5 319.762 53.64C321.622 54.78 323.602 55.68 326.902 55.68C331.582 55.68 333.622 53.16 333.622 47.04V44.7C331.762 46.32 329.062 47.34 326.422 47.34C319.342 47.34 312.202 43.8 312.202 31.8C312.202 21.36 317.842 15.24 326.122 15.24C329.902 15.24 332.542 16.68 334.162 18.9C334.582 16.62 336.202 15.3 338.782 15.3ZM328.702 40.56C330.802 40.56 332.782 39.6 334.042 37.92V26.34C333.382 24.6 331.762 22.02 328.222 22.02C324.322 22.02 321.922 25.02 321.922 31.92C321.922 37.56 324.622 40.56 328.702 40.56Z" fill="#594A39"/>
<path d="M373.042 15.24C379.762 15.24 384.022 19.92 384.022 27.18V43.5C384.022 46.68 382.342 48.24 379.042 48.24C375.742 48.24 374.062 46.68 374.062 43.5V27.6C374.062 24.24 372.682 22.44 369.982 22.44C367.162 22.44 365.362 24.18 364.222 27.24V43.5C364.222 46.68 362.422 48.24 359.122 48.24C355.822 48.24 354.022 46.68 354.022 43.5V5.4C354.022 2.16 355.762 0.54 359.122 0.54C362.482 0.54 364.222 2.16 364.222 5.4V19.56C366.082 16.74 369.082 15.24 373.042 15.24Z" fill="#594A39"/>
<path d="M418.755 15.24C421.995 15.24 423.735 16.98 423.735 20.1V43.86C423.735 46.56 422.175 48.24 419.235 48.24C416.355 48.24 414.735 46.62 414.675 43.92V43.32C412.935 46.38 409.515 48.18 405.255 48.18C397.995 48.18 393.615 43.74 393.615 36.3V20.16C393.615 16.98 395.415 15.24 398.715 15.24C402.015 15.24 403.815 16.98 403.815 20.16V34.98C403.815 39.24 405.135 41.28 408.135 41.28C411.435 41.28 413.235 37.32 413.775 34.92V20.1C413.775 16.98 415.575 15.24 418.755 15.24Z" fill="#594A39"/>
<path d="M459.425 19.2C461.225 21.12 462.125 23.82 462.125 27.3V43.26C462.125 46.5 460.865 48.24 457.745 48.24C454.565 48.24 453.125 46.5 453.125 43.26V43.08C451.145 46.56 447.425 48.24 442.685 48.24C436.325 48.24 432.425 44.52 432.425 38.58C432.425 31.44 439.085 27 449.165 27C450.365 27 451.625 27.06 452.405 27.18V26.64C452.405 23.64 450.725 21.84 447.545 21.72C444.965 21.6 442.205 22.74 439.925 25.2C438.485 26.76 436.385 27 434.885 25.68C433.325 24.42 433.145 22.44 434.525 20.7C436.685 18.06 441.425 15.24 447.725 15.24C453.305 15.24 456.845 16.5 459.425 19.2ZM452.525 36.36V33.3C451.745 33.18 450.425 33.06 449.285 33.12C443.525 33.42 441.545 35.64 441.665 37.98C441.785 40.02 443.045 41.22 445.505 41.22C448.325 41.22 451.145 39.24 452.525 36.36Z" fill="#594A39"/>
<path d="M495.212 37.92C496.412 36.3 498.572 36 500.192 37.26C502.652 39.18 505.352 41.04 509.492 41.04C513.152 41.04 515.372 39.48 515.432 36.6C515.492 34.26 514.652 31.86 507.692 28.26C498.692 23.52 494.852 19.86 494.852 13.68C494.852 6.84 501.032 2.4 510.692 2.4C516.572 2.4 521.132 4.08 523.172 6.06C524.852 7.68 525.212 9.78 524.072 11.52C522.812 13.38 520.472 13.74 518.612 12.18C516.572 10.5 514.232 9.48 510.632 9.54C507.332 9.6 505.412 10.92 505.412 12.96C505.412 15.24 506.252 17.28 513.272 20.88C522.332 25.62 526.112 29.4 526.112 35.4C526.112 43.44 520.052 48.24 510.032 48.24C503.132 48.24 498.212 45.96 495.752 43.5C494.132 41.88 493.952 39.66 495.212 37.92Z" fill="#594A39"/>
<path d="M553.967 15.24C560.687 15.24 564.948 19.92 564.948 27.18V43.5C564.948 46.68 563.267 48.24 559.967 48.24C556.667 48.24 554.987 46.68 554.987 43.5V27.6C554.987 24.24 553.607 22.44 550.907 22.44C548.087 22.44 546.287 24.18 545.147 27.24V43.5C545.147 46.68 543.347 48.24 540.047 48.24C536.747 48.24 534.948 46.68 534.948 43.5V5.4C534.948 2.16 536.688 0.54 540.047 0.54C543.407 0.54 545.147 2.16 545.147 5.4V19.56C547.007 16.74 550.007 15.24 553.967 15.24Z" fill="#594A39"/>
<path d="M589.42 48.3C578.8 48.3 573.22 41.94 573.22 31.2C573.22 21.48 579.94 15.24 589.84 15.24C599.62 15.24 605.86 21.42 605.92 31.2C605.98 42.18 599.62 48.3 589.42 48.3ZM589.54 41.64C593.68 41.52 595.48 38.52 595.48 31.38C595.48 24.9 593.74 21.78 589.54 21.84C585.46 21.9 583.6 24.96 583.66 31.38C583.72 38.16 585.22 41.76 589.54 41.64Z" fill="#594A39"/>
<path d="M632.506 15.24C639.466 15.24 646.066 19.32 646.066 31.56C646.066 41.76 640.786 48.24 632.566 48.24C628.306 48.24 626.206 46.38 625.006 45.12V58.44C625.006 61.8 623.266 63.42 619.846 63.42C616.606 63.42 614.806 61.68 614.806 58.32V19.98C614.806 16.98 616.486 15.24 619.486 15.24C622.126 15.24 623.986 16.62 624.406 19.02C626.446 16.8 629.266 15.24 632.506 15.24ZM630.466 41.46C634.306 41.46 636.346 38.1 636.346 31.44C636.346 25.5 633.886 21.96 629.806 21.96C627.466 21.96 625.666 23.58 624.466 25.92V37.08C625.126 38.88 626.806 41.46 630.466 41.46Z" fill="#594A39"/>
<path d="M672.64 15.24C679.6 15.24 686.2 19.32 686.2 31.56C686.2 41.76 680.92 48.24 672.7 48.24C668.44 48.24 666.34 46.38 665.14 45.12V58.44C665.14 61.8 663.4 63.42 659.98 63.42C656.74 63.42 654.94 61.68 654.94 58.32V19.98C654.94 16.98 656.62 15.24 659.62 15.24C662.26 15.24 664.12 16.62 664.54 19.02C666.58 16.8 669.4 15.24 672.64 15.24ZM670.6 41.46C674.44 41.46 676.48 38.1 676.48 31.44C676.48 25.5 674.021 21.96 669.94 21.96C667.6 21.96 665.8 23.58 664.6 25.92V37.08C665.26 38.88 666.94 41.46 670.6 41.46Z" fill="#594A39"/>
<path d="M700.895 11.58C697.595 11.58 694.835 9.06 694.835 5.82C694.835 2.46 697.535 0 700.895 0C704.315 0 706.715 2.4 706.715 5.82C706.715 9.12 704.255 11.58 700.895 11.58ZM700.775 48.24C697.415 48.24 695.675 46.5 695.675 43.26V20.82C695.675 17.58 697.415 15.84 700.775 15.84C704.135 15.84 705.875 17.58 705.875 20.82V43.26C705.875 46.5 704.135 48.24 700.775 48.24Z" fill="#594A39"/>
<path d="M736.24 15.24C743.38 15.24 747.82 19.8 747.82 27.18V43.26C747.82 46.5 746.02 48.24 742.72 48.24C739.42 48.24 737.62 46.5 737.62 43.26V27.96C737.62 24.18 736.06 21.9 733.299 21.9C730.659 21.9 728.26 24.3 727.479 27.66V43.26C727.479 46.5 725.68 48.24 722.38 48.24C719.08 48.24 717.28 46.5 717.28 43.26V19.92C717.28 16.92 718.96 15.3 721.96 15.3C725.02 15.3 726.7 16.8 726.7 19.86V20.82C728.5 17.16 732.219 15.24 736.24 15.24Z" fill="#594A39"/>
<path d="M782.66 15.3C785.96 15.3 787.1 16.98 787.1 20.22V46.68C787.1 57.24 781.58 62.46 771.14 62.46C767.36 62.46 763.1 61.32 760.64 59.7C758.6 58.38 757.88 56.64 758.9 54.72C759.86 52.86 761.84 52.5 763.64 53.64C765.5 54.78 767.48 55.68 770.78 55.68C775.46 55.68 777.5 53.16 777.5 47.04V44.7C775.64 46.32 772.94 47.34 770.3 47.34C763.22 47.34 756.08 43.8 756.08 31.8C756.08 21.36 761.72 15.24 770 15.24C773.78 15.24 776.42 16.68 778.04 18.9C778.46 16.62 780.08 15.3 782.66 15.3ZM772.58 40.56C774.68 40.56 776.66 39.6 777.92 37.92V26.34C777.26 24.6 775.64 22.02 772.1 22.02C768.2 22.02 765.8 25.02 765.8 31.92C765.8 37.56 768.5 40.56 772.58 40.56Z" fill="#594A39"/>
<path d="M865.136 48.24C862.076 48.24 860.336 46.44 860.336 43.32V25.26C860.336 23.16 861.056 18.3 861.356 16.32L860.936 16.26C858.656 24.9 855.116 33.12 851.756 40.44C850.496 43.26 849.176 44.52 846.476 44.52C843.896 44.52 842.096 43.2 840.896 40.44C837.656 33.18 833.996 24.72 831.356 16.14H830.936C831.236 18.06 831.716 22.74 831.716 25.08V43.32C831.716 46.5 830.036 48.24 826.976 48.24C824.096 48.24 822.356 46.44 822.356 43.32V9.66C822.356 4.98 824.816 2.46 829.016 2.46C832.616 2.46 834.236 4.08 836.096 8.58C839.336 16.38 844.196 28.44 846.416 34.14H846.536L855.896 8.4C857.516 4.02 859.496 2.34 863.756 2.4C867.896 2.46 869.936 4.74 869.936 9.42V43.32C869.936 46.5 868.136 48.24 865.136 48.24Z" fill="#594A39"/>
<path d="M906.701 19.2C908.501 21.12 909.401 23.82 909.401 27.3V43.26C909.401 46.5 908.141 48.24 905.021 48.24C901.841 48.24 900.401 46.5 900.401 43.26V43.08C898.421 46.56 894.701 48.24 889.961 48.24C883.601 48.24 879.701 44.52 879.701 38.58C879.701 31.44 886.361 27 896.441 27C897.641 27 898.901 27.06 899.681 27.18V26.64C899.681 23.64 898.001 21.84 894.821 21.72C892.241 21.6 889.481 22.74 887.201 25.2C885.761 26.76 883.661 27 882.161 25.68C880.601 24.42 880.421 22.44 881.801 20.7C883.961 18.06 888.701 15.24 895.001 15.24C900.581 15.24 904.121 16.5 906.701 19.2ZM899.801 36.36V33.3C899.021 33.18 897.701 33.06 896.561 33.12C890.801 33.42 888.821 35.64 888.941 37.98C889.061 40.02 890.321 41.22 892.781 41.22C895.601 41.22 898.421 39.24 899.801 36.36Z" fill="#594A39"/>
<path d="M928.352 48.24C922.052 48.24 919.592 45.9 919.592 38.34V5.46C919.592 2.28 921.392 0.54 924.692 0.54C927.872 0.54 929.732 2.28 929.732 5.46V38.4C929.732 40.14 929.912 40.74 931.172 40.74C931.892 40.74 932.312 40.44 933.032 40.44C934.112 40.44 935.672 41.28 935.672 43.86C935.672 47.22 932.372 48.24 928.352 48.24Z" fill="#594A39"/>
<path d="M951.201 48.24C944.901 48.24 942.441 45.9 942.441 38.34V5.46C942.441 2.28 944.241 0.54 947.541 0.54C950.721 0.54 952.581 2.28 952.581 5.46V38.4C952.581 40.14 952.761 40.74 954.021 40.74C954.741 40.74 955.161 40.44 955.881 40.44C956.961 40.44 958.521 41.28 958.521 43.86C958.521 47.22 955.221 48.24 951.201 48.24Z" fill="#594A39"/>
<path d="M992.553 35.28C990.033 35.28 988.653 33.9 988.653 31.38C988.653 28.86 990.033 27.48 992.553 27.48H1007.55C1010.07 27.48 1011.45 28.86 1011.45 31.38C1011.45 33.9 1010.07 35.28 1007.55 35.28H992.553Z" fill="#594A39"/>
<path d="M13.2508 100.14C12.9508 100.14 12.7108 100.32 12.7108 100.68V111.18H24.5908C26.6908 111.18 27.8308 112.38 27.8308 114.6C27.8308 116.82 26.6908 118.02 24.5908 118.02H12.7108V133.02C12.7108 136.44 10.7908 138.24 7.55077 138.24C4.25077 138.24 2.39077 136.44 2.39077 133.02V98.28C2.39077 95.1 4.13077 93.3 7.25077 93.3H26.4508C28.5508 93.3 29.6908 94.5 29.6908 96.72C29.6908 98.94 28.5508 100.14 26.4508 100.14H13.2508Z" fill="#594A39"/>
<path d="M42.2847 101.58C38.9847 101.58 36.2247 99.06 36.2247 95.82C36.2247 92.46 38.9247 90 42.2847 90C45.7047 90 48.1047 92.4 48.1047 95.82C48.1047 99.12 45.6447 101.58 42.2847 101.58ZM42.1647 138.24C38.8047 138.24 37.0647 136.5 37.0647 133.26V110.82C37.0647 107.58 38.8047 105.84 42.1647 105.84C45.5247 105.84 47.2647 107.58 47.2647 110.82V133.26C47.2647 136.5 45.5247 138.24 42.1647 138.24Z" fill="#594A39"/>
<path d="M80.6894 108.84C80.9894 112.14 78.8894 113.16 75.9494 113.52C72.7694 113.94 69.7694 117.06 68.8694 121.02V133.44C68.8694 136.8 66.8294 138.24 63.5294 138.24C60.2294 138.24 58.6694 136.74 58.6694 133.44V109.38C58.6694 106.5 60.5894 105.24 63.5294 105.24C66.2894 105.24 68.0894 106.68 68.0894 109.62V112.44C69.3494 107.46 72.1694 105.42 75.7094 105.3C78.4094 105.24 80.4494 106.14 80.6894 108.84Z" fill="#594A39"/>
<path d="M86.4611 129.9C87.4811 128.64 89.1611 128.4 90.7211 129.36C92.5211 130.44 95.1011 131.52 97.7411 131.52C100.381 131.52 101.641 130.86 101.641 129.3C101.641 127.8 100.981 126.78 95.8211 124.5C89.7011 121.8 86.5211 119.28 86.5211 114.36C86.5211 108.96 91.7411 105.24 99.4211 105.24C104.581 105.24 108.121 106.86 109.861 108.36C111.241 109.56 111.481 111.36 110.461 112.74C109.441 114.12 107.221 114.48 105.541 113.28C104.101 112.26 102.181 111.9 99.9611 111.9C97.6811 111.9 96.5411 112.74 96.5411 114C96.5411 115.44 97.7411 116.16 102.181 118.2C109.201 121.38 111.961 124.02 111.961 128.76C111.961 135.24 105.841 138.24 99.4211 138.24C94.8611 138.24 89.5211 137.1 86.9411 134.52C85.5011 133.08 85.2611 131.34 86.4611 129.9Z" fill="#594A39"/>
<path d="M138.19 130.14C139.93 130.14 141.01 132.24 141.01 133.74C141.01 136.86 136.57 137.76 133.27 137.76C126.37 137.76 123.25 134.46 123.25 127.32V112.98H119.89C117.97 112.98 116.89 111.66 116.89 109.56C116.89 107.4 118.03 106.14 119.89 106.14H123.25V102.36C123.25 99.12 125.05 97.38 128.35 97.38C131.65 97.38 133.45 99.12 133.45 102.36V106.14H137.35C139.27 106.14 140.35 107.46 140.35 109.56C140.35 111.72 139.21 112.98 137.35 112.98H133.45V127.2C133.45 129.6 134.11 130.68 135.19 130.68C136.33 130.68 137.11 130.14 138.19 130.14Z" fill="#594A39"/>
<path d="M172.145 127.92C173.345 126.3 175.505 126 177.125 127.26C179.585 129.18 182.285 131.04 186.425 131.04C190.085 131.04 192.305 129.48 192.365 126.6C192.425 124.26 191.585 121.86 184.625 118.26C175.625 113.52 171.785 109.86 171.785 103.68C171.785 96.84 177.965 92.4 187.625 92.4C193.505 92.4 198.065 94.08 200.105 96.06C201.785 97.68 202.145 99.78 201.005 101.52C199.745 103.38 197.405 103.74 195.545 102.18C193.505 100.5 191.165 99.48 187.565 99.54C184.265 99.6 182.345 100.92 182.345 102.96C182.345 105.24 183.185 107.28 190.205 110.88C199.265 115.62 203.045 119.4 203.045 125.4C203.045 133.44 196.985 138.24 186.965 138.24C180.065 138.24 175.145 135.96 172.685 133.5C171.065 131.88 170.885 129.66 172.145 127.92Z" fill="#594A39"/>
<path d="M235.326 129.48C236.946 128.28 238.686 128.4 239.826 129.72C240.966 130.98 241.026 132.72 239.766 134.1C237.846 136.26 233.166 138.24 227.226 138.24C217.806 138.24 210.546 133.5 210.546 122.46C210.546 111.84 216.786 105.18 226.806 105.18C236.646 105.18 241.566 112.5 241.566 119.58C241.566 123 239.826 124.8 236.166 124.8H220.926C221.526 129.78 223.746 131.64 228.006 131.76C230.946 131.82 233.346 130.98 235.326 129.48ZM226.926 111.48C223.146 111.48 221.466 114.06 220.926 118.2H231.846C232.206 118.2 232.386 118.02 232.386 117.66C232.386 113.52 230.286 111.48 226.926 111.48Z" fill="#594A39"/>
<path d="M258.9 138.24C252.6 138.24 250.14 135.9 250.14 128.34V95.46C250.14 92.28 251.94 90.54 255.24 90.54C258.42 90.54 260.28 92.28 260.28 95.46V128.4C260.28 130.14 260.46 130.74 261.72 130.74C262.44 130.74 262.86 130.44 263.58 130.44C264.66 130.44 266.22 131.28 266.22 133.86C266.22 137.22 262.92 138.24 258.9 138.24Z" fill="#594A39"/>
<path d="M292.895 91.56C294.275 92.52 294.755 94.2 294.095 95.7C293.375 97.32 291.695 97.98 290.255 97.26C289.655 96.96 289.115 96.84 288.575 96.84C286.955 96.84 286.355 97.86 286.355 100.5V106.14H290.075C291.995 106.14 293.075 107.46 293.075 109.56C293.075 111.72 291.935 112.98 290.075 112.98H286.355V133.32C286.355 136.68 284.435 138.24 281.255 138.24C278.015 138.24 276.155 136.56 276.155 133.32V112.98H273.275C271.355 112.98 270.155 111.72 270.155 109.56C270.155 107.4 271.355 106.14 273.275 106.14H276.155V100.32C276.155 93.78 279.935 89.94 286.415 89.94C288.995 89.94 291.515 90.6 292.895 91.56Z" fill="#594A39"/>
<path d="M302.009 125.28C299.489 125.28 298.109 123.9 298.109 121.38C298.109 118.86 299.489 117.48 302.009 117.48H317.009C319.529 117.48 320.909 118.86 320.909 121.38C320.909 123.9 319.529 125.28 317.009 125.28H302.009Z" fill="#594A39"/>
<path d="M364.289 131.04C365.789 133.74 365.249 136.08 362.609 137.46C359.849 138.9 357.329 138.3 355.829 135.48L347.969 120.72C347.609 120.72 347.249 120.72 346.889 120.72C345.449 120.72 343.889 120.72 342.629 120.66V133.02C342.629 136.44 340.769 138.24 337.529 138.24C334.109 138.24 332.189 136.44 332.189 133.02V98.46C332.189 95.52 333.689 93.66 336.569 93.24C338.969 92.88 342.869 92.76 346.109 92.76C358.349 92.76 364.769 97.8 364.769 106.8C364.769 113.22 361.409 117.06 356.729 118.98C360.209 124.26 362.609 128.04 364.289 131.04ZM346.469 114.06C351.509 114.06 354.449 111.48 354.449 106.86C354.449 102 351.749 99.42 346.409 99.42C345.149 99.42 343.709 99.48 342.989 99.6C342.689 99.66 342.509 99.84 342.509 100.2V114C343.769 114.06 345.209 114.06 346.469 114.06Z" fill="#594A39"/>
<path d="M396.037 129.48C397.657 128.28 399.397 128.4 400.537 129.72C401.677 130.98 401.737 132.72 400.477 134.1C398.557 136.26 393.877 138.24 387.937 138.24C378.517 138.24 371.257 133.5 371.257 122.46C371.257 111.84 377.497 105.18 387.517 105.18C397.357 105.18 402.277 112.5 402.277 119.58C402.277 123 400.537 124.8 396.877 124.8H381.637C382.237 129.78 384.457 131.64 388.717 131.76C391.657 131.82 394.057 130.98 396.037 129.48ZM387.637 111.48C383.857 111.48 382.177 114.06 381.637 118.2H392.557C392.917 118.2 393.097 118.02 393.097 117.66C393.097 113.52 390.997 111.48 387.637 111.48Z" fill="#594A39"/>
<path d="M435.511 90.54C438.751 90.54 440.551 92.4 440.551 95.76V133.5C440.551 136.5 438.871 138.24 435.871 138.24C433.411 138.24 431.611 137.04 431.071 134.94C429.151 136.98 425.851 138.24 422.851 138.24C415.891 138.24 408.931 134.16 408.931 121.92C408.931 111.72 414.931 105.24 422.791 105.24C426.631 105.24 429.031 106.74 430.351 107.94V95.64C430.351 92.28 432.091 90.54 435.511 90.54ZM425.551 131.4C427.591 131.4 429.571 130.38 430.891 128.58V116.1C430.111 114.36 428.371 112.02 424.891 112.02C421.411 112.02 418.651 115.38 418.651 122.04C418.651 127.98 421.471 131.4 425.551 131.4Z" fill="#594A39"/>
<path d="M474.314 129.48C475.934 128.28 477.674 128.4 478.814 129.72C479.954 130.98 480.014 132.72 478.754 134.1C476.834 136.26 472.154 138.24 466.214 138.24C456.794 138.24 449.534 133.5 449.534 122.46C449.534 111.84 455.774 105.18 465.794 105.18C475.634 105.18 480.554 112.5 480.554 119.58C480.554 123 478.814 124.8 475.154 124.8H459.914C460.514 129.78 462.734 131.64 466.994 131.76C469.934 131.82 472.334 130.98 474.314 129.48ZM465.914 111.48C462.134 111.48 460.454 114.06 459.914 118.2H470.834C471.194 118.2 471.374 118.02 471.374 117.66C471.374 113.52 469.274 111.48 465.914 111.48Z" fill="#594A39"/>
<path d="M502.027 138.18C498.427 138.18 496.267 136.62 494.767 133.02C492.067 126.54 488.947 118.68 486.607 111.54C485.647 108.6 486.727 106.32 489.607 105.48C492.547 104.64 494.527 105.78 495.607 108.84C498.727 117.6 500.947 124.56 502.327 128.7H502.567C503.947 124.56 505.867 117.72 508.387 108.54C509.167 105.72 511.087 104.7 513.967 105.36C516.727 106.02 517.867 108.18 516.907 111.06C514.447 118.44 511.087 128.22 509.167 133.02C507.667 136.74 505.567 138.18 502.027 138.18Z" fill="#594A39"/>
<path d="M546.848 129.48C548.468 128.28 550.208 128.4 551.348 129.72C552.488 130.98 552.548 132.72 551.288 134.1C549.368 136.26 544.688 138.24 538.748 138.24C529.328 138.24 522.068 133.5 522.068 122.46C522.068 111.84 528.308 105.18 538.328 105.18C548.168 105.18 553.088 112.5 553.088 119.58C553.088 123 551.348 124.8 547.688 124.8H532.448C533.048 129.78 535.268 131.64 539.528 131.76C542.468 131.82 544.868 130.98 546.848 129.48ZM538.448 111.48C534.668 111.48 532.988 114.06 532.448 118.2H543.368C543.728 118.2 543.908 118.02 543.908 117.66C543.908 113.52 541.808 111.48 538.448 111.48Z" fill="#594A39"/>
<path d="M570.422 138.24C564.122 138.24 561.662 135.9 561.662 128.34V95.46C561.662 92.28 563.462 90.54 566.762 90.54C569.942 90.54 571.802 92.28 571.802 95.46V128.4C571.802 130.14 571.982 130.74 573.242 130.74C573.961 130.74 574.382 130.44 575.102 130.44C576.182 130.44 577.742 131.28 577.742 133.86C577.742 137.22 574.442 138.24 570.422 138.24Z" fill="#594A39"/>
<path d="M599.377 138.3C588.757 138.3 583.177 131.94 583.177 121.2C583.177 111.48 589.897 105.24 599.797 105.24C609.577 105.24 615.817 111.42 615.877 121.2C615.937 132.18 609.577 138.3 599.377 138.3ZM599.497 131.64C603.637 131.52 605.437 128.52 605.437 121.38C605.437 114.9 603.697 111.78 599.497 111.84C595.417 111.9 593.557 114.96 593.617 121.38C593.677 128.16 595.177 131.76 599.497 131.64Z" fill="#594A39"/>
<path d="M642.462 105.24C649.422 105.24 656.022 109.32 656.022 121.56C656.022 131.76 650.742 138.24 642.522 138.24C638.262 138.24 636.162 136.38 634.962 135.12V148.44C634.962 151.8 633.222 153.42 629.802 153.42C626.562 153.42 624.762 151.68 624.762 148.32V109.98C624.762 106.98 626.442 105.24 629.442 105.24C632.082 105.24 633.942 106.62 634.362 109.02C636.402 106.8 639.222 105.24 642.462 105.24ZM640.422 131.46C644.262 131.46 646.302 128.1 646.302 121.44C646.302 115.5 643.842 111.96 639.762 111.96C637.422 111.96 635.622 113.58 634.422 115.92V127.08C635.082 128.88 636.762 131.46 640.422 131.46Z" fill="#594A39"/>
<path d="M701.977 105.24C709.237 105.24 713.497 109.44 713.497 116.7V133.38C713.497 136.56 711.757 138.24 708.457 138.24C705.157 138.24 703.417 136.56 703.417 133.38V116.58C703.417 113.52 701.977 111.72 699.637 111.72C697.357 111.72 695.557 113.22 694.417 116.04V133.38C694.417 136.56 692.677 138.24 689.437 138.24C686.137 138.24 684.397 136.56 684.397 133.38V116.76C684.397 113.58 682.957 111.84 680.557 111.84C678.217 111.84 676.057 114.06 675.097 117.3V133.26C675.097 136.5 673.297 138.24 669.997 138.24C666.697 138.24 664.897 136.5 664.897 133.26V110.1C664.897 106.98 666.757 105.3 669.817 105.3C672.697 105.3 674.557 106.8 674.557 109.8V110.46C676.057 107.04 679.597 105.24 683.557 105.24C687.757 105.24 690.937 106.86 692.737 109.74C694.837 106.86 698.017 105.24 701.977 105.24ZM674.617 120.18L674.677 119.52C674.617 119.7 674.617 119.94 674.617 120.18Z" fill="#594A39"/>
<path d="M746.583 129.48C748.203 128.28 749.943 128.4 751.083 129.72C752.223 130.98 752.283 132.72 751.023 134.1C749.103 136.26 744.422 138.24 738.482 138.24C729.062 138.24 721.802 133.5 721.802 122.46C721.802 111.84 728.042 105.18 738.062 105.18C747.903 105.18 752.823 112.5 752.823 119.58C752.823 123 751.082 124.8 747.422 124.8H732.182C732.782 129.78 735.003 131.64 739.263 131.76C742.203 131.82 744.603 130.98 746.583 129.48ZM738.182 111.48C734.402 111.48 732.722 114.06 732.182 118.2H743.103C743.463 118.2 743.643 118.02 743.643 117.66C743.643 113.52 741.542 111.48 738.182 111.48Z" fill="#594A39"/>
<path d="M780.356 105.24C787.496 105.24 791.936 109.8 791.936 117.18V133.26C791.936 136.5 790.136 138.24 786.836 138.24C783.536 138.24 781.736 136.5 781.736 133.26V117.96C781.736 114.18 780.176 111.9 777.416 111.9C774.776 111.9 772.376 114.3 771.596 117.66V133.26C771.596 136.5 769.796 138.24 766.496 138.24C763.196 138.24 761.396 136.5 761.396 133.26V109.92C761.396 106.92 763.076 105.3 766.076 105.3C769.136 105.3 770.816 106.8 770.816 109.86V110.82C772.616 107.16 776.336 105.24 780.356 105.24Z" fill="#594A39"/>
<path d="M819.297 130.14C821.037 130.14 822.117 132.24 822.117 133.74C822.117 136.86 817.677 137.76 814.377 137.76C807.477 137.76 804.357 134.46 804.357 127.32V112.98H800.997C799.077 112.98 797.997 111.66 797.997 109.56C797.997 107.4 799.137 106.14 800.997 106.14H804.357V102.36C804.357 99.12 806.157 97.38 809.457 97.38C812.757 97.38 814.557 99.12 814.557 102.36V106.14H818.457C820.377 106.14 821.457 107.46 821.457 109.56C821.457 111.72 820.317 112.98 818.457 112.98H814.557V127.2C814.557 129.6 815.217 130.68 816.297 130.68C817.437 130.68 818.217 130.14 819.297 130.14Z" fill="#594A39"/>
<path d="M873.413 138.24C860.333 138.24 852.653 129.9 852.653 114.78C852.653 100.98 860.693 92.34 873.893 92.34C879.113 92.34 883.013 93.9 885.113 95.46C886.853 96.72 887.453 98.7 886.553 100.26C885.533 102.06 883.553 102.48 881.753 101.4C879.773 100.14 877.553 99.42 874.193 99.42C867.413 99.42 863.273 105 863.273 114.66C863.273 125.34 867.293 131.16 873.953 131.16C877.913 131.16 880.073 129.96 881.813 128.7C883.553 127.44 885.473 127.86 886.853 129.6C888.053 131.1 887.813 133.02 886.133 134.52C883.973 136.5 879.353 138.24 873.413 138.24Z" fill="#594A39"/>
<path d="M921.228 109.2C923.028 111.12 923.928 113.82 923.928 117.3V133.26C923.928 136.5 922.668 138.24 919.548 138.24C916.368 138.24 914.928 136.5 914.928 133.26V133.08C912.948 136.56 909.228 138.24 904.488 138.24C898.128 138.24 894.228 134.52 894.228 128.58C894.228 121.44 900.888 117 910.968 117C912.168 117 913.428 117.06 914.208 117.18V116.64C914.208 113.64 912.528 111.84 909.348 111.72C906.768 111.6 904.008 112.74 901.728 115.2C900.288 116.76 898.188 117 896.688 115.68C895.128 114.42 894.948 112.44 896.328 110.7C898.488 108.06 903.228 105.24 909.528 105.24C915.108 105.24 918.648 106.5 921.228 109.2ZM914.328 126.36V123.3C913.548 123.18 912.228 123.06 911.088 123.12C905.328 123.42 903.348 125.64 903.468 127.98C903.588 130.02 904.848 131.22 907.308 131.22C910.128 131.22 912.948 129.24 914.328 126.36Z" fill="#594A39"/>
<path d="M932.499 129.9C933.519 128.64 935.199 128.4 936.759 129.36C938.559 130.44 941.139 131.52 943.779 131.52C946.419 131.52 947.679 130.86 947.679 129.3C947.679 127.8 947.019 126.78 941.859 124.5C935.739 121.8 932.559 119.28 932.559 114.36C932.559 108.96 937.779 105.24 945.459 105.24C950.619 105.24 954.159 106.86 955.899 108.36C957.279 109.56 957.519 111.36 956.499 112.74C955.479 114.12 953.259 114.48 951.579 113.28C950.139 112.26 948.219 111.9 945.999 111.9C943.719 111.9 942.579 112.74 942.579 114C942.579 115.44 943.779 116.16 948.219 118.2C955.239 121.38 957.999 124.02 957.999 128.76C957.999 135.24 951.879 138.24 945.459 138.24C940.899 138.24 935.559 137.1 932.979 134.52C931.539 133.08 931.299 131.34 932.499 129.9Z" fill="#594A39"/>
<path d="M989.437 129.48C991.057 128.28 992.797 128.4 993.937 129.72C995.077 130.98 995.137 132.72 993.877 134.1C991.957 136.26 987.277 138.24 981.337 138.24C971.917 138.24 964.657 133.5 964.657 122.46C964.657 111.84 970.897 105.18 980.917 105.18C990.757 105.18 995.677 112.5 995.677 119.58C995.677 123 993.937 124.8 990.277 124.8H975.037C975.637 129.78 977.857 131.64 982.117 131.76C985.057 131.82 987.457 130.98 989.437 129.48ZM981.037 111.48C977.257 111.48 975.577 114.06 975.037 118.2H985.957C986.317 118.2 986.497 118.02 986.497 117.66C986.497 113.52 984.397 111.48 981.037 111.48Z" fill="#594A39"/>
<path d="M20.2708 228.24C7.73077 228.24 -0.189233 219.6 0.230767 204.72C0.590767 191.04 8.33077 182.4 20.7508 182.4C33.2908 182.4 41.0308 191.22 41.0308 204.72C41.0308 219.66 33.7108 228.24 20.2708 228.24ZM20.5108 221.28C27.0508 221.28 30.3508 216.06 30.3508 205.32C30.3508 194.82 26.8708 189.3 20.5108 189.3C14.2108 189.3 10.9108 194.7 10.9108 205.32C10.9108 216.06 14.2108 221.28 20.5108 221.28Z" fill="#594A39"/>
<path d="M75.3016 195.24C78.5415 195.24 80.2816 196.98 80.2816 200.1V223.86C80.2816 226.56 78.7215 228.24 75.7815 228.24C72.9016 228.24 71.2815 226.62 71.2215 223.92V223.32C69.4816 226.38 66.0616 228.18 61.8016 228.18C54.5415 228.18 50.1615 223.74 50.1615 216.3V200.16C50.1615 196.98 51.9616 195.24 55.2616 195.24C58.5616 195.24 60.3615 196.98 60.3615 200.16V214.98C60.3615 219.24 61.6815 221.28 64.6815 221.28C67.9816 221.28 69.7815 217.32 70.3215 214.92V200.1C70.3215 196.98 72.1216 195.24 75.3016 195.24Z" fill="#594A39"/>
<path d="M109.132 220.14C110.872 220.14 111.952 222.24 111.952 223.74C111.952 226.86 107.512 227.76 104.212 227.76C97.3117 227.76 94.1917 224.46 94.1917 217.32V202.98H90.8317C88.9117 202.98 87.8317 201.66 87.8317 199.56C87.8317 197.4 88.9717 196.14 90.8317 196.14H94.1917V192.36C94.1917 189.12 95.9917 187.38 99.2917 187.38C102.592 187.38 104.392 189.12 104.392 192.36V196.14H108.292C110.212 196.14 111.292 197.46 111.292 199.56C111.292 201.72 110.152 202.98 108.292 202.98H104.392V217.2C104.392 219.6 105.052 220.68 106.132 220.68C107.272 220.68 108.052 220.14 109.132 220.14Z" fill="#594A39"/>
<path d="M118.57 219.9C119.59 218.64 121.27 218.4 122.83 219.36C124.63 220.44 127.21 221.52 129.85 221.52C132.49 221.52 133.75 220.86 133.75 219.3C133.75 217.8 133.09 216.78 127.93 214.5C121.81 211.8 118.63 209.28 118.63 204.36C118.63 198.96 123.85 195.24 131.53 195.24C136.69 195.24 140.23 196.86 141.97 198.36C143.35 199.56 143.59 201.36 142.57 202.74C141.55 204.12 139.33 204.48 137.65 203.28C136.21 202.26 134.29 201.9 132.07 201.9C129.79 201.9 128.65 202.74 128.65 204C128.65 205.44 129.85 206.16 134.29 208.2C141.31 211.38 144.07 214.02 144.07 218.76C144.07 225.24 137.95 228.24 131.53 228.24C126.97 228.24 121.63 227.1 119.05 224.52C117.61 223.08 117.37 221.34 118.57 219.9Z" fill="#594A39"/>
<path d="M158.469 191.58C155.169 191.58 152.409 189.06 152.409 185.82C152.409 182.46 155.109 180 158.469 180C161.889 180 164.289 182.4 164.289 185.82C164.289 189.12 161.829 191.58 158.469 191.58ZM158.349 228.24C154.989 228.24 153.249 226.5 153.249 223.26V200.82C153.249 197.58 154.989 195.84 158.349 195.84C161.709 195.84 163.449 197.58 163.449 200.82V223.26C163.449 226.5 161.709 228.24 158.349 228.24Z" fill="#594A39"/>
<path d="M199.514 180.54C202.754 180.54 204.554 182.4 204.554 185.76V223.5C204.554 226.5 202.874 228.24 199.874 228.24C197.414 228.24 195.614 227.04 195.074 224.94C193.154 226.98 189.854 228.24 186.854 228.24C179.894 228.24 172.934 224.16 172.934 211.92C172.934 201.72 178.934 195.24 186.794 195.24C190.634 195.24 193.034 196.74 194.354 197.94V185.64C194.354 182.28 196.094 180.54 199.514 180.54ZM189.554 221.4C191.594 221.4 193.574 220.38 194.894 218.58V206.1C194.114 204.36 192.374 202.02 188.894 202.02C185.414 202.02 182.654 205.38 182.654 212.04C182.654 217.98 185.474 221.4 189.554 221.4Z" fill="#594A39"/>
<path d="M238.317 219.48C239.937 218.28 241.677 218.4 242.817 219.72C243.957 220.98 244.017 222.72 242.757 224.1C240.837 226.26 236.157 228.24 230.217 228.24C220.797 228.24 213.537 223.5 213.537 212.46C213.537 201.84 219.777 195.18 229.797 195.18C239.637 195.18 244.557 202.5 244.557 209.58C244.557 213 242.817 214.8 239.157 214.8H223.917C224.517 219.78 226.737 221.64 230.997 221.76C233.937 221.82 236.337 220.98 238.317 219.48ZM229.917 201.48C226.137 201.48 224.457 204.06 223.917 208.2H234.837C235.197 208.2 235.377 208.02 235.377 207.66C235.377 203.52 233.277 201.48 229.917 201.48Z" fill="#594A39"/>
<path d="M306.627 183.3C308.847 183.3 309.987 184.56 309.987 186.78C309.987 189 308.847 190.26 306.627 190.26H297.087V223.32C297.087 226.56 295.167 228.24 291.927 228.24C288.627 228.24 286.767 226.56 286.767 223.32V190.26H277.287C275.067 190.26 273.927 189 273.927 186.78C273.927 184.56 275.067 183.3 277.287 183.3H306.627Z" fill="#594A39"/>
<path d="M335.565 199.2C337.365 201.12 338.265 203.82 338.265 207.3V223.26C338.265 226.5 337.005 228.24 333.885 228.24C330.705 228.24 329.265 226.5 329.265 223.26V223.08C327.285 226.56 323.565 228.24 318.825 228.24C312.465 228.24 308.565 224.52 308.565 218.58C308.565 211.44 315.225 207 325.305 207C326.505 207 327.765 207.06 328.545 207.18V206.64C328.545 203.64 326.865 201.84 323.685 201.72C321.105 201.6 318.345 202.74 316.065 205.2C314.625 206.76 312.525 207 311.025 205.68C309.465 204.42 309.285 202.44 310.665 200.7C312.825 198.06 317.565 195.24 323.865 195.24C329.445 195.24 332.985 196.5 335.565 199.2ZM328.665 216.36V213.3C327.885 213.18 326.565 213.06 325.425 213.12C319.665 213.42 317.685 215.64 317.805 217.98C317.925 220.02 319.185 221.22 321.645 221.22C324.465 221.22 327.285 219.24 328.665 216.36Z" fill="#594A39"/>
<path d="M354.275 191.58C350.975 191.58 348.215 189.06 348.215 185.82C348.215 182.46 350.915 180 354.275 180C357.695 180 360.095 182.4 360.095 185.82C360.095 189.12 357.635 191.58 354.275 191.58ZM354.155 228.24C350.795 228.24 349.055 226.5 349.055 223.26V200.82C349.055 197.58 350.795 195.84 354.155 195.84C357.515 195.84 359.255 197.58 359.255 200.82V223.26C359.255 226.5 357.515 228.24 354.155 228.24Z" fill="#594A39"/>
<path d="M388.36 195.24C395.32 195.24 401.92 199.32 401.92 211.56C401.92 221.76 396.64 228.24 388.42 228.24C384.16 228.24 382.06 226.38 380.86 225.12V238.44C380.86 241.8 379.12 243.42 375.7 243.42C372.46 243.42 370.66 241.68 370.66 238.32V199.98C370.66 196.98 372.34 195.24 375.34 195.24C377.98 195.24 379.84 196.62 380.26 199.02C382.3 196.8 385.12 195.24 388.36 195.24ZM386.32 221.46C390.16 221.46 392.2 218.1 392.2 211.44C392.2 205.5 389.74 201.96 385.66 201.96C383.32 201.96 381.52 203.58 380.32 205.92V217.08C380.98 218.88 382.66 221.46 386.32 221.46Z" fill="#594A39"/>
<path d="M433.654 219.48C435.274 218.28 437.014 218.4 438.154 219.72C439.294 220.98 439.354 222.72 438.094 224.1C436.174 226.26 431.494 228.24 425.554 228.24C416.134 228.24 408.874 223.5 408.874 212.46C408.874 201.84 415.114 195.18 425.134 195.18C434.974 195.18 439.894 202.5 439.894 209.58C439.894 213 438.154 214.8 434.494 214.8H419.254C419.854 219.78 422.074 221.64 426.334 221.76C429.274 221.82 431.674 220.98 433.654 219.48ZM425.254 201.48C421.474 201.48 419.794 204.06 419.254 208.2H430.174C430.534 208.2 430.714 208.02 430.714 207.66C430.714 203.52 428.614 201.48 425.254 201.48Z" fill="#594A39"/>
<path d="M454.522 191.58C451.222 191.58 448.462 189.06 448.462 185.82C448.462 182.46 451.162 180 454.522 180C457.942 180 460.342 182.4 460.342 185.82C460.342 189.12 457.882 191.58 454.522 191.58ZM454.402 228.24C451.042 228.24 449.302 226.5 449.302 223.26V200.82C449.302 197.58 451.042 195.84 454.402 195.84C457.762 195.84 459.502 197.58 459.502 200.82V223.26C459.502 226.5 457.762 228.24 454.402 228.24Z" fill="#594A39"/>
<path d="M530.463 221.34C531.483 224.7 530.523 226.98 527.463 227.88C524.163 228.84 521.763 227.64 520.863 224.46L517.983 214.08H504.483L501.303 224.64C500.403 227.58 498.363 228.78 495.423 227.88C492.543 226.98 491.463 224.82 492.483 221.82L503.703 188.46C505.083 184.26 507.423 182.4 511.323 182.4C515.163 182.4 518.163 184.26 519.603 188.4C522.483 196.74 527.103 210.3 530.463 221.34ZM506.523 207.36H516.063C514.623 202.14 513.123 196.98 511.683 191.88H511.203L506.523 207.36Z" fill="#594A39"/>
<path d="M561.535 198.84C561.835 202.14 559.735 203.16 556.795 203.52C553.615 203.94 550.615 207.06 549.715 211.02V223.44C549.715 226.8 547.675 228.24 544.375 228.24C541.076 228.24 539.516 226.74 539.516 223.44V199.38C539.516 196.5 541.435 195.24 544.375 195.24C547.135 195.24 548.935 196.68 548.935 199.62V202.44C550.195 197.46 553.016 195.42 556.555 195.3C559.255 195.24 561.295 196.14 561.535 198.84Z" fill="#594A39"/>
<path d="M591.201 219.48C592.821 218.28 594.561 218.4 595.701 219.72C596.841 220.98 596.901 222.72 595.641 224.1C593.721 226.26 589.041 228.24 583.101 228.24C573.681 228.24 566.421 223.5 566.421 212.46C566.421 201.84 572.661 195.18 582.681 195.18C592.521 195.18 597.441 202.5 597.441 209.58C597.441 213 595.701 214.8 592.041 214.8H576.801C577.401 219.78 579.621 221.64 583.881 221.76C586.821 221.82 589.221 220.98 591.201 219.48ZM582.801 201.48C579.021 201.48 577.341 204.06 576.801 208.2H587.721C588.081 208.2 588.261 208.02 588.261 207.66C588.261 203.52 586.161 201.48 582.801 201.48Z" fill="#594A39"/>
<path d="M630.915 199.2C632.715 201.12 633.615 203.82 633.615 207.3V223.26C633.615 226.5 632.355 228.24 629.235 228.24C626.055 228.24 624.615 226.5 624.615 223.26V223.08C622.635 226.56 618.915 228.24 614.175 228.24C607.815 228.24 603.915 224.52 603.915 218.58C603.915 211.44 610.575 207 620.655 207C621.855 207 623.115 207.06 623.895 207.18V206.64C623.895 203.64 622.215 201.84 619.035 201.72C616.455 201.6 613.695 202.74 611.415 205.2C609.975 206.76 607.875 207 606.375 205.68C604.815 204.42 604.635 202.44 606.015 200.7C608.175 198.06 612.915 195.24 619.215 195.24C624.795 195.24 628.335 196.5 630.915 199.2ZM624.015 216.36V213.3C623.235 213.18 621.915 213.06 620.775 213.12C615.015 213.42 613.035 215.64 613.155 217.98C613.275 220.02 614.535 221.22 616.995 221.22C619.815 221.22 622.635 219.24 624.015 216.36Z" fill="#594A39"/>
</svg>
