<svg width="624" height="557" viewBox="0 0 624 557" fill="none" xmlns="http://www.w3.org/2000/svg">
<path opacity="0.7" d="M428.975 0C561.53 0 634.415 50.7446 621.62 136.21C610.873 208 553.84 235.816 466.217 244.799C466.002 251.89 464.2 258.844 460.947 265.146C457.694 271.449 453.072 276.941 447.419 281.219C446.774 281.715 445.992 282.005 445.18 282.046C444.368 282.087 443.562 281.879 442.871 281.45C442.179 281.022 441.636 280.394 441.31 279.648C440.985 278.902 440.894 278.073 441.05 277.274C442.006 271.782 441.596 266.14 439.851 260.846C438.105 255.551 435.079 250.768 431.045 246.924C419.564 247.41 427.62 247.654 415.21 247.654C282.654 247.654 191.999 198.184 191.999 111.444C191.999 24.7039 296.419 0 428.975 0Z" fill="#B8C318"/>
<path d="M294.479 110.717C293.948 110.371 293.458 109.962 293.022 109.502C292.335 108.855 291.667 108.127 291.02 107.318C290.529 106.703 290.085 106.055 289.688 105.376C289.475 104.746 289.475 104.062 289.688 103.432C289.688 102.522 290.234 102.036 290.538 102.036C290.841 102.036 291.021 102.038 291.384 101.31L292.477 99.1849C292.721 98.7462 292.903 98.2767 293.022 97.7889C293.066 97.6389 293.145 97.5015 293.25 97.3858C293.355 97.2702 293.484 97.1801 293.629 97.122L294.538 96.5145C294.964 95.8816 295.453 95.2918 295.995 94.7539L297.448 93.1742C298.425 92.0127 299.479 90.9174 300.602 89.8962C302.118 88.4394 303.573 86.9827 305.028 85.4652L309.031 81.0965C309.849 80.3705 310.473 79.4532 310.849 78.4261C311.251 78.0367 311.679 77.6708 312.125 77.3324C312.665 77.0188 313.173 76.6518 313.641 76.2387C314.173 75.8024 314.679 75.3364 315.157 74.8428C315.403 74.1291 315.75 73.4571 316.188 72.8422C316.783 72.0694 317.43 71.3371 318.127 70.6548C318.714 69.7181 319.242 68.745 319.705 67.7414C320.114 67.0113 320.437 66.2383 320.673 65.4355C320.916 64.6666 320.916 64.1796 320.673 63.9773C319.726 63.5718 318.754 63.2276 317.763 62.9459C316.156 62.5011 314.458 62.5011 312.851 62.9459C310.644 63.6234 308.586 64.7168 306.787 66.1646C305.834 66.3664 304.901 66.6486 303.998 67.0123C303.342 67.3485 302.612 67.5159 301.875 67.4983C301.506 67.2229 301.182 66.8978 300.907 66.5292C300.556 66.0177 300.172 65.5296 299.755 65.0709L298.662 60.4592L301.996 58.5771C304.658 56.8476 307.508 55.4212 310.488 54.327C312.731 53.3722 315.23 53.2007 317.582 53.8409C318.652 53.8889 319.712 54.0745 320.735 54.3892C321.649 54.4168 322.534 54.7102 323.282 55.2369C324.468 55.9618 325.583 56.7959 326.616 57.7265C327.588 58.5653 328.372 59.5994 328.919 60.7615C330.043 62.5733 330.515 64.7151 330.255 66.8315C329.839 69.6179 328.758 72.2627 327.101 74.5405L324.736 77.2731C323.462 78.6085 322.129 80.1853 320.552 81.8849L316.309 86.3781L313.881 88.8647C312.921 89.4032 312.061 90.1031 311.335 90.9306L307.577 94.7539C306.243 96.15 305.089 97.3646 304.241 98.3965C303.392 99.4284 302.907 99.9733 303.089 99.9733C303.271 99.9733 303.392 100.277 304.241 99.9733L306.423 99.1849C307.675 98.7669 308.953 98.4228 310.245 98.1535C311.761 97.85 313.277 97.5442 314.793 97.3621C316.098 97.1496 317.413 97.0088 318.734 96.9383C319.385 96.7333 320.084 96.7333 320.735 96.9383C320.735 97.3025 321.038 97.3632 321.28 96.9383C321.523 96.5134 322.312 96.2717 324.01 96.5145C325.574 96.6904 327.116 97.0136 328.617 97.4836C329.297 97.6305 329.938 97.921 330.497 98.3343C330.983 98.6985 331.226 99.0029 331.226 99.3064C331.56 99.9242 331.945 100.513 332.378 101.067C332.643 101.214 332.863 101.428 333.017 101.689C333.171 101.951 333.254 102.248 333.254 102.552C333.254 102.855 333.171 103.156 333.017 103.417C332.863 103.679 332.643 103.893 332.378 104.04C331.507 104.652 330.505 105.055 329.452 105.213C328.4 105.371 327.326 105.28 326.314 104.95C324.771 104.906 323.227 105.01 321.704 105.255C321.085 105.395 320.442 105.395 319.824 105.255H317.156C315.848 105.074 314.522 105.074 313.215 105.255C311.651 105.572 310.112 105.997 308.608 106.529L305.576 107.501L301.149 108.776C299.733 109.176 298.296 109.498 296.844 109.745C296.108 110.184 295.31 110.512 294.479 110.717Z" fill="#FDFDFB"/>
<path d="M368.152 111.262C367.204 111.186 366.269 111.004 365.363 110.716C364.028 110.352 362.693 109.867 361.238 109.32C360.049 108.937 358.939 108.34 357.963 107.56C355.688 105.674 353.884 103.285 352.69 100.58C351.605 98.0987 350.947 95.4507 350.748 92.7495C350.57 90.2168 350.673 87.6723 351.053 85.162C351.919 80.3014 353.6 75.6236 356.024 71.3238C359.498 64.9306 364.578 59.5521 370.76 55.7221C373.562 53.8485 376.851 52.8359 380.22 52.8086H383.19C384.826 52.8437 386.445 53.1508 387.981 53.7185C389.582 54.3013 391.123 55.035 392.588 55.9058C393.861 56.7556 394.53 57.5426 394.53 58.271C394.558 58.7764 394.558 59.283 394.53 59.7885C394.53 60.2741 394.165 60.3972 393.559 60.0937H392.469L393.559 63.3095C393.902 64.0694 394.166 64.8635 394.346 65.6776C394.527 66.5366 394.63 67.4113 394.651 68.2888C394.718 69.3601 394.718 70.4333 394.651 71.5046C394.651 72.9007 394.167 74.4166 393.864 75.9948C393.561 77.573 393.196 79.0933 392.893 80.4287C392.702 81.471 392.398 82.4888 391.984 83.4637C391.752 83.8491 391.626 84.2886 391.619 84.7382C391.59 85.0815 391.59 85.4263 391.619 85.7696C391.316 86.3159 390.831 87.3478 390.225 88.8046L388.768 91.8396L388.102 92.5687C388.102 92.5687 388.102 93.0536 388.102 93.3571C387.992 93.8583 387.828 94.345 387.616 94.8123C387.253 95.5407 386.828 96.2711 386.465 96.8781C386.101 97.4851 385.738 97.8473 385.556 97.8473C385.374 97.8473 385.008 97.8478 385.008 98.3334C384.667 99.1662 384.175 99.9286 383.554 100.58C382.487 101.91 381.333 103.168 380.099 104.344C379.042 105.388 377.882 106.323 376.64 107.136C375.064 108.229 373.487 109.2 371.971 110.049C370.812 110.751 369.503 111.166 368.152 111.262ZM368.152 100.823C368.934 100.825 369.711 100.702 370.455 100.458C371.154 100.245 371.784 99.8467 372.276 99.3055C373.686 98.3349 374.949 97.1682 376.033 95.8437C377.239 94.3229 378.239 92.6503 379.006 90.8674C379.772 89.8172 380.404 88.6749 380.886 87.4679C381.371 86.3146 382.098 84.2508 383.068 81.3979C383.688 80.5311 384.104 79.535 384.282 78.4844C384.384 77.5159 384.384 76.5395 384.282 75.571C384.282 74.7819 384.282 73.6891 384.282 72.293C384.329 71.1264 384.492 69.9684 384.768 68.8341C384.768 66.9525 384.768 65.8596 384.768 65.5561C384.56 65.0529 384.248 64.597 383.856 64.2194C383.518 63.9566 383.154 63.7334 382.766 63.5526C382.293 63.3294 381.773 63.2264 381.251 63.2502C380.571 63.284 379.897 63.4067 379.249 63.6148C378.523 63.821 377.83 64.1268 377.188 64.5247C376.921 64.6454 376.631 64.7085 376.338 64.7085C376.046 64.7085 375.755 64.6454 375.489 64.5247C374.882 64.5247 374.58 63.9776 374.58 63.6741C374.58 63.3706 374.093 62.7029 373.123 63.6741L369.244 68.2888C368.033 69.4992 366.936 70.8195 365.97 72.2337C365.389 72.9607 364.937 73.7813 364.634 74.6611C364.607 75.0502 364.482 75.4272 364.27 75.7547C364.27 76.1796 363.848 76.7259 363.666 77.2722C363.152 78.0624 362.704 78.893 362.331 79.7589L360.874 83.1584C360.503 83.9827 360.2 84.8347 359.965 85.7074V91.7773C359.918 92.667 359.918 93.5581 359.965 94.4478C359.998 94.9318 360.122 95.4052 360.329 95.8437L361.117 97.4827C361.544 98.1179 362.009 98.7279 362.511 99.3055C362.953 99.7587 363.359 100.244 363.725 100.761C364.513 101.489 365.058 101.734 365.3 101.552C366.131 101.189 367.01 100.943 367.909 100.823H368.152Z" fill="#FDFDFB"/>
<path d="M413.753 110.717C413.234 110.355 412.746 109.948 412.296 109.502C411.649 108.855 410.985 108.127 410.298 107.318C409.799 106.722 409.372 106.071 409.025 105.376C409.025 105.012 409.025 104.403 409.025 103.432C409.025 102.461 409.509 102.036 409.812 102.036C410.115 102.036 410.298 102.038 410.662 101.31L411.751 99.1849C411.995 98.7462 412.178 98.2767 412.296 97.7889C412.41 97.4998 412.627 97.2632 412.903 97.122L413.812 96.5145C414.239 95.8816 414.728 95.2918 415.269 94.7539L416.726 93.1742C417.72 92.0281 418.769 90.9338 419.876 89.8962C421.392 88.4394 422.85 86.9827 424.306 85.4652L428.306 81.0965C429.123 80.3705 429.75 79.4532 430.127 78.4261L431.459 77.3324C431.987 77.0295 432.477 76.6615 432.916 76.2387L434.491 74.8428C434.707 74.1165 435.056 73.4396 435.521 72.8422C436.095 72.0696 436.723 71.3372 437.401 70.6548C437.947 69.7443 438.493 68.834 439.039 67.7414C439.585 66.6488 439.828 65.9211 440.01 65.4355C440.192 64.9499 440.01 64.1594 440.01 63.9773C439.063 63.5718 438.091 63.2276 437.099 62.9459C435.513 62.5001 433.833 62.5001 432.247 62.9459C430.042 63.6301 427.986 64.7229 426.183 66.1646C425.23 66.3664 424.297 66.6486 423.394 67.0123C422.759 67.3485 422.05 67.5162 421.333 67.4983C420.93 67.2441 420.58 66.9163 420.302 66.5292C419.972 66.0037 419.586 65.5139 419.151 65.0709L418.058 60.4592L421.392 58.5771C424.062 56.8603 426.91 55.4346 429.884 54.327C432.127 53.3722 434.626 53.2007 436.978 53.8409C438.049 53.8828 439.109 54.0685 440.131 54.3892C441.045 54.4168 441.93 54.7102 442.678 55.2369C443.874 55.9467 444.99 56.7819 446.012 57.7265C447.003 58.5475 447.793 59.586 448.318 60.7615C449.496 62.5506 449.97 64.7127 449.651 66.8315C449.235 69.6179 448.153 72.2627 446.497 74.5405L444.131 77.2731L439.948 81.8849C438.432 83.5845 436.977 85.0427 435.764 86.3781L433.339 88.8647C432.358 89.371 431.492 90.0754 430.793 90.9306C429.58 92.1041 428.307 93.3781 426.973 94.7539C425.639 96.15 424.546 97.3646 423.636 98.3965C422.727 99.4284 422.363 99.9733 422.485 99.9733C422.606 99.9733 422.787 100.277 423.636 99.9733L425.881 99.1849C427.128 98.7514 428.404 98.4071 429.7 98.1535C431.156 97.85 432.673 97.5442 434.189 97.3621C435.494 97.1496 436.809 97.0088 438.13 96.9383C438.781 96.7333 439.48 96.7333 440.131 96.9383C440.131 97.3025 440.13 97.3632 440.676 96.9383C441.222 96.5134 441.708 96.2717 443.406 96.5145C444.971 96.6839 446.513 97.0072 448.013 97.4836C448.697 97.6169 449.341 97.9087 449.893 98.3343C450.378 98.6985 450.622 99.0029 450.622 99.3064C450.955 99.9391 451.36 100.53 451.833 101.067C452.083 101.226 452.291 101.444 452.434 101.704C452.577 101.964 452.653 102.255 452.653 102.552C452.653 102.849 452.577 103.142 452.434 103.402C452.291 103.662 452.083 103.881 451.833 104.04C450.956 104.64 449.958 105.035 448.907 105.193C447.857 105.35 446.783 105.266 445.769 104.95C444.227 104.908 442.685 105.012 441.162 105.255C440.543 105.395 439.9 105.395 439.282 105.255H436.614C435.327 105.072 434.019 105.072 432.732 105.255C431.148 105.571 429.588 105.996 428.063 106.529L425.031 107.501L420.604 108.776C419.189 109.183 417.752 109.505 416.299 109.745C415.508 110.204 414.649 110.533 413.753 110.717Z" fill="#FDFDFB"/>
<path d="M472.935 110.717C472.429 110.338 471.945 109.932 471.481 109.502C470.794 108.855 470.126 108.127 469.479 107.318C469.003 106.706 468.577 106.058 468.206 105.377C468.206 105.012 468.206 104.403 468.206 103.432C468.206 102.461 468.691 102.036 468.994 102.036C469.297 102.036 469.54 102.039 469.844 101.31L470.936 99.185C471.18 98.7464 471.362 98.2769 471.481 97.7891C471.595 97.4999 471.811 97.2633 472.088 97.1222L472.997 96.5146C473.424 95.8818 473.909 95.292 474.451 94.7541L475.907 93.1744C476.902 92.0283 477.954 90.934 479.061 89.8963C480.577 88.4395 482.032 86.9829 483.487 85.4654L487.49 81.0967C488.298 80.3486 488.938 79.4389 489.37 78.4262C489.759 78.0222 490.185 77.6553 490.644 77.3326C491.172 77.0297 491.659 76.6616 492.097 76.2389L493.676 74.8429C493.891 74.1167 494.24 73.4398 494.706 72.8423C495.279 72.0698 495.908 71.3374 496.586 70.655C497.216 69.7335 497.764 68.7587 498.223 67.7415C498.606 66.9988 498.928 66.2283 499.192 65.4357C499.192 64.6466 499.192 64.1595 499.192 63.9774C498.244 63.5719 497.272 63.2278 496.281 62.946C494.695 62.4971 493.017 62.4971 491.431 62.946C489.232 63.6431 487.178 64.7347 485.367 66.1648C484.432 66.3574 483.517 66.6399 482.637 67.0124C481.98 67.3439 481.251 67.511 480.514 67.4985C480.132 67.2393 479.805 66.9117 479.546 66.5293C479.175 66.0169 478.769 65.5288 478.332 65.0711L477.243 60.4594L480.636 58.5773C483.292 56.8372 486.143 55.4101 489.128 54.3271C491.35 53.3723 493.828 53.2006 496.16 53.8411C497.23 53.883 498.291 54.0687 499.313 54.3894C500.229 54.4019 501.119 54.6967 501.859 55.237C503.055 55.9469 504.175 56.782 505.196 57.7267C506.203 58.547 507.012 59.5845 507.562 60.7617C508.693 62.5695 509.144 64.7211 508.835 66.8316C508.42 69.6181 507.338 72.2629 505.682 74.5406L503.316 77.2733L499.132 81.885C497.616 83.5846 496.222 85.0429 494.949 86.3782L492.524 88.8649C491.543 89.3711 490.673 90.0756 489.974 90.9307L486.155 94.7541C484.821 96.1502 483.731 97.3648 482.821 98.3967C481.911 99.4286 481.548 99.9734 481.669 99.9734C481.79 99.9734 481.972 100.277 482.821 99.9734L485.062 99.185C486.312 98.7593 487.591 98.4151 488.885 98.1536C490.34 97.8501 491.855 97.5444 493.371 97.3623C494.676 97.1529 495.991 97.0121 497.311 96.9384C497.961 96.7253 498.663 96.7253 499.313 96.9384C499.313 97.3026 499.618 97.3633 499.861 96.9384C500.103 96.5136 500.95 96.2718 502.588 96.5146C504.152 96.684 505.698 97.0074 507.198 97.4838C507.896 97.6312 508.555 97.9213 509.137 98.3344C509.562 98.6986 509.803 99.0031 509.803 99.3066C510.158 99.9261 510.565 100.515 511.017 101.067C511.268 101.226 511.472 101.444 511.615 101.704C511.758 101.964 511.834 102.255 511.834 102.552C511.834 102.849 511.758 103.143 511.615 103.403C511.472 103.663 511.268 103.881 511.017 104.04C510.145 104.648 509.144 105.047 508.092 105.205C507.04 105.363 505.966 105.275 504.953 104.95C503.391 104.907 501.828 105.01 500.284 105.255C499.685 105.391 499.065 105.391 498.466 105.255H495.736C494.449 105.073 493.142 105.073 491.855 105.255C490.27 105.571 488.71 105.996 487.185 106.529L484.153 107.502L479.727 108.776C478.33 109.176 476.915 109.498 475.484 109.745C474.689 110.196 473.828 110.524 472.935 110.717Z" fill="#FDFDFB"/>
<g clip-path="url(#clip0_1376_14094)">
<path d="M151.041 280.171C151.041 280.171 89.3564 285.86 39.5673 255.649C38.2143 254.828 36.6705 254.373 35.0888 254.328C33.5072 254.282 31.9416 254.647 30.5431 255.389C29.1445 256.13 27.9606 257.223 27.1092 258.559C26.2577 259.895 25.7678 261.429 25.685 263.012C23.9736 294.113 34.2393 366.675 151.741 425.086" fill="#5E9A33"/>
<path opacity="0.2" d="M153.252 424.515C153.252 424.515 101.582 408.456 53.5727 425.391C52.2696 425.839 50.8746 425.944 49.5197 425.695C48.1648 425.446 46.895 424.852 45.8359 423.97C44.7767 423.089 43.9639 421.948 43.4722 420.659C42.9804 419.371 42.8275 417.978 43.0293 416.613C47.1661 389.726 69.0211 329.526 180.001 300.773" fill="#5E9A33"/>
<path d="M193.264 498.723C197.879 483.793 192.164 468.762 180.497 465.147C168.83 461.533 155.631 470.704 151.015 485.634C146.399 500.564 152.116 515.598 163.783 519.212C175.449 522.826 188.648 513.653 193.264 498.723Z" fill="#FEFAE9"/>
<path d="M271.233 529.677C283.395 528.548 292.091 515.019 290.657 499.457C289.222 483.896 278.199 472.196 266.038 473.324C253.877 474.453 245.182 487.982 246.616 503.543C248.051 519.105 259.072 530.805 271.233 529.677Z" fill="#FEFAE9"/>
<path d="M253.814 161.451C253.814 161.451 247.26 191.763 191.351 210.542C175.796 215.767 161.973 225.175 151.392 237.735C118.468 276.774 63.0967 363.502 119.656 456.453C119.656 456.453 150.691 500.104 218.23 507.15C218.23 507.15 281.956 518.649 325.918 480.559C366.496 445.511 394.209 350.845 337.853 254.4C329.682 240.48 317.693 229.201 303.311 221.901C284.553 212.185 256.577 194.919 253.814 161.451Z" fill="#FEFAE9"/>
<path d="M359.128 301.113C353.742 284.853 346.648 269.212 337.969 254.451C329.798 240.531 317.811 229.252 303.429 221.953C284.543 212.304 256.57 194.998 253.803 161.57C253.803 161.57 247.249 191.884 191.34 210.663C175.784 215.888 161.962 225.294 151.381 237.854C141.051 250.069 131.788 263.151 123.696 276.955C133.181 291.24 169.673 339.058 234.778 345.851C234.79 345.731 295.842 353.473 359.128 301.113Z" fill="#7DBE37"/>
<path d="M123.914 276.412C123.914 276.412 109.361 307.224 108.764 339.25C108.298 366.924 133.085 397.355 162.704 400.445C280.219 412.705 359.366 301.906 359.366 301.906C359.366 301.906 356.295 284.168 323.338 280.204C290.381 276.24 162.075 263.38 162.075 263.38C162.075 263.38 130.263 261.192 123.914 276.412Z" fill="#F2E865"/>
<path d="M165.909 289.28C186.653 291.444 205.227 276.356 207.395 255.579C209.563 234.803 194.503 216.206 173.758 214.041C153.013 211.877 134.439 226.965 132.272 247.742C130.104 268.518 145.164 287.116 165.909 289.28Z" fill="white"/>
<path d="M267.457 299.875C288.202 302.039 306.776 286.951 308.944 266.174C311.111 245.398 296.052 226.8 275.307 224.636C254.562 222.472 235.988 237.56 233.82 258.337C231.653 279.113 246.713 297.71 267.457 299.875Z" fill="white"/>
<path d="M306.256 292.323C305.72 292.261 305.209 292.067 304.768 291.758C304.326 291.448 303.969 291.034 303.727 290.552C303.485 290.07 303.365 289.536 303.381 288.996C303.397 288.457 303.548 287.93 303.817 287.463L310.537 276.04C310.753 275.678 311.037 275.362 311.375 275.111C311.713 274.861 312.098 274.681 312.506 274.58C312.915 274.48 313.34 274.461 313.755 274.527C314.17 274.593 314.568 274.74 314.925 274.961C315.655 275.397 316.182 276.106 316.391 276.931C316.6 277.756 316.474 278.629 316.041 279.361L309.345 290.544C309.072 291.12 308.629 291.599 308.077 291.917C307.525 292.235 306.89 292.377 306.256 292.323Z" fill="#E27E7C"/>
<path d="M315.477 296.762C314.946 296.693 314.441 296.493 314.005 296.182C313.569 295.87 313.217 295.456 312.98 294.976C312.743 294.495 312.628 293.963 312.645 293.427C312.662 292.891 312.81 292.368 313.078 291.904L319.734 280.717C320.17 279.986 320.876 279.458 321.7 279.249C322.523 279.039 323.397 279.165 324.128 279.599C324.493 279.811 324.812 280.093 325.066 280.431C325.32 280.768 325.506 281.155 325.61 281.565C325.713 281.975 325.733 282.4 325.67 282.818C325.607 283.236 325.461 283.638 325.241 283.999L318.587 295.186C318.275 295.72 317.815 296.154 317.263 296.433C316.711 296.712 316.092 296.827 315.477 296.762Z" fill="#E27E7C"/>
<path d="M118.541 271.81C118.073 271.768 117.62 271.625 117.214 271.389C116.483 270.944 115.957 270.228 115.749 269.397C115.541 268.566 115.667 267.687 116.103 266.95L122.798 255.765C123.258 255.085 123.959 254.607 124.758 254.428C125.558 254.249 126.395 254.383 127.099 254.803C127.803 255.222 128.322 255.897 128.546 256.686C128.77 257.475 128.685 258.321 128.307 259.049L121.608 270.271C121.298 270.795 120.844 271.219 120.3 271.492C119.757 271.765 119.146 271.874 118.541 271.81Z" fill="#E27E7C"/>
<path d="M127.646 276.236C127.191 276.193 126.751 276.049 126.357 275.817C125.628 275.381 125.101 274.674 124.892 273.849C124.683 273.024 124.811 272.149 125.244 271.417L131.903 260.191C132.119 259.824 132.405 259.504 132.746 259.249C133.086 258.994 133.475 258.809 133.888 258.705C134.3 258.602 134.729 258.582 135.149 258.645C135.57 258.709 135.972 258.856 136.336 259.077C136.697 259.292 137.013 259.577 137.263 259.916C137.513 260.254 137.693 260.639 137.793 261.048C137.893 261.458 137.911 261.883 137.846 262.299C137.78 262.715 137.631 263.115 137.41 263.473L130.751 274.701C130.431 275.224 129.97 275.644 129.421 275.916C128.871 276.187 128.255 276.299 127.646 276.236Z" fill="#E27E7C"/>
<path d="M259.921 269.991C268.805 270.918 276.76 264.456 277.688 255.558C278.617 246.66 272.167 238.696 263.283 237.769C254.399 236.842 246.444 243.304 245.516 252.201C244.587 261.099 251.037 269.064 259.921 269.991Z" fill="#4A1E0E"/>
<path d="M166.437 260.237C175.321 261.164 183.276 254.703 184.204 245.805C185.132 236.907 178.683 228.942 169.799 228.015C160.914 227.088 152.959 233.55 152.031 242.448C151.103 251.346 157.552 259.311 166.437 260.237Z" fill="#4A1E0E"/>
<path d="M149.831 524.223C148.844 524.122 147.89 523.806 147.037 523.298C146.184 522.79 145.451 522.102 144.891 521.282L119.495 483.916C118.916 483.18 118.494 482.333 118.256 481.427C118.017 480.521 117.967 479.576 118.11 478.649C118.252 477.723 118.584 476.834 119.083 476.041C119.583 475.249 120.241 474.568 121.014 474.041C121.788 473.513 122.661 473.15 123.58 472.974C124.5 472.799 125.447 472.815 126.359 473.022C127.272 473.228 128.132 473.62 128.887 474.173C129.642 474.727 130.275 475.431 130.746 476.24L156.187 513.569C157.19 515.074 157.564 516.913 157.227 518.692C156.891 520.47 155.873 522.046 154.389 523.08C153.053 523.989 151.437 524.395 149.831 524.223Z" fill="#695D41"/>
<path d="M160.306 525.921C158.733 525.759 157.265 525.055 156.153 523.929C155.042 522.803 154.354 521.325 154.21 519.748L151.211 486.62C151.122 484.861 151.713 483.137 152.862 481.805C154.012 480.473 155.632 479.635 157.381 479.469C159.131 479.302 160.878 479.819 162.257 480.911C163.636 482.002 164.539 483.584 164.781 485.328L167.818 518.5C167.975 520.306 167.411 522.1 166.253 523.493C165.095 524.886 163.435 525.764 161.634 525.938C161.191 525.972 160.748 525.967 160.306 525.921Z" fill="#695D41"/>
<path d="M267.346 536.483C266.103 536.348 264.92 535.874 263.925 535.115C262.93 534.356 262.161 533.339 261.702 532.174L247.763 496.006C247.309 495.154 247.041 494.216 246.976 493.254C246.911 492.291 247.05 491.326 247.384 490.421C247.718 489.516 248.24 488.692 248.915 488.004C249.589 487.315 250.401 486.779 251.298 486.427C252.195 486.075 253.156 485.916 254.118 485.963C255.08 486.011 256.02 486.262 256.879 486.699C257.737 487.137 258.494 487.752 259.098 488.504C259.702 489.255 260.14 490.126 260.384 491.059L274.323 527.228C274.956 528.921 274.903 530.795 274.173 532.449C273.442 534.103 272.093 535.404 270.415 536.075C269.434 536.433 268.387 536.573 267.346 536.483Z" fill="#695D41"/>
<path d="M256.744 535.982C255.191 535.809 253.743 535.116 252.632 534.016L216.102 497.391C215.458 496.761 214.945 496.009 214.593 495.179C214.24 494.35 214.056 493.459 214.048 492.557C214.041 491.656 214.212 490.763 214.551 489.928C214.891 489.093 215.392 488.332 216.026 487.692C216.66 487.052 217.414 486.544 218.245 486.197C219.076 485.85 219.965 485.67 220.865 485.669C221.765 485.668 222.657 485.846 223.488 486.191C224.319 486.537 225.074 487.045 225.709 487.684L262.44 524.33C263.382 525.34 263.997 526.613 264.206 527.979C264.416 529.346 264.209 530.743 263.613 531.99C263.016 533.238 262.057 534.276 260.863 534.969C259.668 535.663 258.293 535.979 256.916 535.878L256.744 535.982Z" fill="#695D41"/>
<path d="M191.388 268.619L191.209 206.526C191.199 205.735 191.453 204.963 191.932 204.334C192.411 203.705 193.086 203.256 193.851 203.056C194.615 202.857 195.423 202.92 196.147 203.235C196.871 203.55 197.47 204.098 197.846 204.793L231.91 266.988C232.74 268.447 233.093 270.128 232.919 271.799C232.745 273.47 232.052 275.044 230.938 276.301L185.416 325.868C184.889 326.443 184.188 326.825 183.42 326.959C182.653 327.092 181.863 326.97 181.173 326.608C180.484 326.245 179.934 325.665 179.608 324.957C179.282 324.248 179.199 323.451 179.371 322.69L191.579 268.719L191.388 268.619Z" fill="#695D41"/>
<path d="M231.908 266.988L197.828 204.954C197.505 204.339 197 203.838 196.383 203.521C195.766 203.203 195.067 203.084 194.38 203.18C194.653 203.35 194.89 203.572 195.078 203.834C195.265 204.097 195.399 204.394 195.471 204.708L214.927 265.376C215.393 266.915 215.547 268.532 215.38 270.132C215.213 271.732 214.729 273.282 213.955 274.692L182.963 325.773C182.667 326.327 182.177 326.751 181.587 326.964C182.226 327.197 182.921 327.23 183.579 327.061C184.238 326.892 184.83 326.527 185.278 326.015L230.801 276.449C231.968 275.196 232.705 273.603 232.905 271.901C233.104 270.199 232.754 268.477 231.908 266.988Z" fill="#84765B"/>
<path d="M466.237 300.164C420.447 316.321 371.707 306.225 356.728 302.44C353.272 301.534 349.61 301.836 346.348 303.296C338.824 306.464 332.377 311.745 327.784 318.502C323.191 325.258 320.65 333.202 320.466 341.372C319.343 369.544 330.515 412.902 342.319 429.329C343.577 431.093 345.371 432.403 347.433 433.063C349.495 433.722 351.713 433.695 353.759 432.987C452.916 397.665 474.011 338.196 478.301 310.233C478.546 308.668 478.382 307.065 477.824 305.582C477.267 304.099 476.336 302.786 475.121 301.772C473.905 300.757 472.447 300.077 470.89 299.795C469.333 299.513 467.73 299.64 466.237 300.164Z" fill="#5E9A33"/>
<path opacity="0.2" d="M349.35 433.497C349.35 433.497 400.32 439.623 443.8 466.103C444.983 466.81 446.326 467.2 447.703 467.237C449.08 467.273 450.443 466.954 451.662 466.31C452.88 465.665 453.913 464.717 454.66 463.558C455.407 462.399 455.844 461.067 455.928 459.69C457.43 432.528 448.471 369.114 345.616 318.051" fill="#5E9A33"/>
</g>
<path d="M334.302 169.5C335.652 169.5 336.408 170.256 336.408 171.606C336.408 173.01 335.652 173.766 334.302 173.766H318.426V184.62C318.426 186.888 317.13 187.968 314.862 187.968C312.594 187.968 311.298 186.888 311.298 184.62V173.766H289.806C288.402 173.766 287.646 173.01 287.646 171.606C287.646 170.256 288.402 169.5 289.806 169.5H296.988V158.268C296.988 156.216 298.122 155.136 300.174 155.136H311.298V148.008H301.308C298.77 152.328 295.422 156.27 292.29 158.538C291.426 159.24 290.616 159.24 289.968 158.538C289.266 157.782 289.212 156.972 289.86 156.108C293.208 151.734 295.746 145.794 297.42 139.422C298.068 136.884 299.742 136.236 302.172 136.83C304.548 137.37 305.304 139.26 304.278 141.906C304.008 142.554 303.792 143.202 303.468 143.85H332.844C334.194 143.85 334.95 144.552 334.95 145.902C334.95 147.252 334.194 148.008 332.844 148.008H318.426V155.136H330.036C331.332 155.136 332.034 155.838 332.034 157.134C332.034 158.43 331.332 159.132 330.036 159.132H318.426V169.5H334.302ZM311.298 169.5V159.132H304.494C304.116 159.132 303.846 159.402 303.846 159.78V169.5H311.298Z" fill="#594A39"/>
<path d="M359.952 147.306V157.998C359.952 172.2 357.63 181.596 352.662 187.158C351.96 188.022 350.88 188.13 350.124 187.482C349.314 186.888 349.098 186.132 349.584 185.16C352.338 179.544 353.094 172.2 353.094 157.35V145.74C353.094 143.634 354.174 142.446 356.226 142.446H372.048V140.286C372.048 138.288 373.344 137.154 375.72 137.154C378.042 137.154 379.392 138.288 379.392 140.286V142.446H395.214C396.51 142.446 397.212 143.256 397.212 144.552C397.212 145.848 396.51 146.604 395.214 146.604H360.6C360.222 146.604 359.952 146.928 359.952 147.306ZM369.996 163.614C367.944 163.614 366.864 162.48 366.864 160.482V156.162H362.328C361.086 156.162 360.438 155.406 360.438 154.164C360.438 152.976 361.086 152.274 362.328 152.274H366.864V149.844C366.864 148.17 367.998 147.198 370.05 147.198C371.994 147.198 373.236 148.17 373.236 149.844V152.274H381.768V149.79C381.768 148.116 382.902 147.144 384.954 147.144C386.952 147.144 388.14 148.116 388.14 149.79V152.274H393.54C394.782 152.274 395.484 152.976 395.484 154.164C395.484 155.46 394.782 156.162 393.54 156.162H388.14V160.482C388.14 162.48 387.006 163.614 385.008 163.614H369.996ZM373.236 156.162V159.186C373.236 159.564 373.506 159.834 373.884 159.834H381.12C381.498 159.834 381.768 159.564 381.768 159.186V156.162H373.236ZM394.404 181.326C396.51 181.596 397.482 183.108 397.158 185.214C396.726 187.428 395.16 188.022 393.162 187.806C387.762 187.104 382.632 185.484 378.204 182.892C372.912 185.646 366.486 187.266 359.412 187.752C358.332 187.806 357.576 187.374 357.414 186.348C357.252 185.43 357.684 184.566 358.872 184.296C364.92 183.054 369.726 181.542 373.56 179.652C370.482 177.006 367.998 173.82 366.378 170.094H363.57C362.382 170.094 361.626 169.284 361.626 168.096C361.626 166.908 362.382 166.206 363.57 166.206H387.276C390.408 166.206 391.812 168.474 390.3 171.336C388.734 174.36 386.574 176.952 383.928 179.166C387.06 180.192 390.57 180.894 394.404 181.326ZM370.428 170.094C372.588 172.848 375.18 175.008 378.258 176.682C380.31 175.062 381.984 173.172 383.334 170.958C383.658 170.472 383.388 170.094 382.902 170.094H370.428Z" fill="#594A39"/>
<path d="M457.746 181.11C459.474 182.622 459.96 184.512 458.502 186.294C456.99 188.13 454.992 188.184 453.156 186.348C451.104 184.404 449.268 182.082 447.702 179.436C445.272 182.838 442.14 185.538 438.198 187.59C437.226 188.13 436.362 187.86 435.876 187.05C435.498 186.402 435.498 185.862 435.876 185.322C435.012 185.7 433.986 185.592 432.96 184.944C431.664 184.026 430.314 183.216 429.018 182.406C425.13 185.43 419.784 187.32 413.358 187.86C412.278 187.914 411.576 187.428 411.468 186.51C411.36 185.538 411.738 184.89 412.98 184.674C417.678 183.81 421.512 182.244 424.374 179.922C423.294 179.382 422.106 178.896 420.918 178.41C420.756 178.734 420.54 179.058 420.378 179.328C419.406 180.84 417.894 181.056 416.49 180.246C415.086 179.382 414.816 178.248 415.788 176.574C416.328 175.548 417.03 174.36 417.678 173.064H413.25C412.062 173.064 411.36 172.362 411.36 171.174C411.36 169.986 412.062 169.338 413.25 169.338H419.568L420.648 167.124H416.328C414.33 167.124 413.358 166.152 413.358 164.154V160.374C413.358 158.322 414.33 157.404 416.328 157.404H422.754V155.73H417.516C415.518 155.73 414.384 154.65 414.384 152.652V150.168H412.764C411.63 150.168 410.982 149.52 410.982 148.386C410.982 147.198 411.684 146.496 412.764 146.496H414.384V144.12C414.384 142.122 415.518 141.042 417.516 141.042H422.754V139.53C422.754 137.802 423.78 136.992 425.724 136.992C427.668 136.992 428.694 137.802 428.694 139.53V141.042H433.932C435.984 141.042 437.064 142.122 437.064 144.12V146.496H438.522C439.548 146.496 440.196 147.144 440.196 148.332C440.196 149.52 439.548 150.168 438.522 150.168H437.064V152.652C437.064 154.65 435.984 155.73 433.932 155.73H428.694V157.404H435.012C436.686 157.404 437.658 158.052 437.928 159.402C440.142 154.11 441.276 146.928 441.762 140.124C441.924 137.748 443.112 136.938 445.164 137.1C447.216 137.262 448.188 138.342 447.918 140.61C447.594 143.31 447.108 146.01 446.46 148.602H457.044C458.286 148.602 458.988 149.304 458.988 150.546C458.988 151.788 458.286 152.544 457.044 152.544H455.316C454.884 160.914 453.534 168.042 450.942 173.874C452.832 176.574 455.1 178.896 457.746 181.11ZM419.73 145.038V146.604H422.862V144.39H420.378C420 144.39 419.73 144.66 419.73 145.038ZM428.586 144.39V146.604H431.772V145.038C431.772 144.66 431.502 144.39 431.124 144.39H428.586ZM420.378 152.382H422.862V150.006H419.73V151.734C419.73 152.112 420 152.382 420.378 152.382ZM428.586 150.006V152.382H431.124C431.502 152.382 431.772 152.112 431.772 151.734V150.006H428.586ZM449.16 152.544H445.272C445.056 153.192 444.84 153.894 444.57 154.542C445.11 159.726 446.082 163.992 447.54 167.556C448.566 163.344 448.998 158.484 449.16 152.544ZM437.118 184.242C440.79 181.218 443.382 178.032 445.218 174.252C443.544 170.148 442.41 165.396 441.87 160.05C441.384 160.806 440.898 161.508 440.412 162.102C439.71 162.858 438.9 162.966 438.144 162.534C438.09 162.534 438.09 162.48 438.036 162.426V164.154C438.036 166.152 437.064 167.124 435.012 167.124H426.696C426.372 167.826 426.048 168.582 425.67 169.338H438.846C440.034 169.338 440.736 169.986 440.736 171.174C440.736 172.416 440.034 173.064 438.846 173.064H435.498C434.904 175.116 433.986 177.006 432.69 178.734C433.77 179.166 434.796 179.598 435.768 180.084C437.712 181.002 438.144 182.352 437.226 184.026C437.172 184.08 437.172 184.134 437.118 184.242ZM418.92 163.128C418.92 163.506 419.19 163.776 419.568 163.776H422.754V160.752H419.568C419.19 160.752 418.92 161.022 418.92 161.4V163.128ZM431.88 160.752H428.694V163.776H431.88C432.258 163.776 432.528 163.506 432.528 163.128V161.4C432.528 161.022 432.258 160.752 431.88 160.752ZM423.834 173.064C423.402 173.928 422.97 174.792 422.538 175.602C424.05 175.926 425.724 176.358 427.344 176.844C428.154 175.71 428.856 174.468 429.342 173.064H423.834Z" fill="#594A39"/>
<path d="M519.09 178.464C520.602 179.652 520.818 181.38 519.522 182.73C518.172 184.08 516.552 183.972 515.364 182.568C513.15 180.03 511.746 176.304 510.882 172.254L509.748 172.578C510.504 174.63 510.936 176.898 510.936 179.22C510.936 187.86 505.104 189.912 498.3 185.862C497.49 185.43 497.328 184.674 497.598 183.864C497.868 183.108 498.516 182.838 499.488 183C504.132 183.972 505.59 183.594 505.752 179.058C502.296 181.164 497.598 183.108 493.116 183.81C492.144 183.972 491.55 183.648 491.334 182.784C491.064 181.974 491.442 181.218 492.414 180.894C497.868 179.274 502.188 176.952 505.374 174.09L505.158 173.064C502.35 175.062 498.678 176.79 495.222 177.708C494.196 177.978 493.602 177.546 493.278 176.736C492.144 180.57 490.47 183.594 488.148 186.24C487.392 187.104 486.42 187.212 485.664 186.618C484.962 186.024 484.854 185.268 485.286 184.458C487.986 179.328 488.904 172.902 488.904 159.888V147.522C488.904 145.632 490.038 144.552 492.036 144.552C493.602 144.552 494.628 145.092 494.952 146.226H500.568V140.016C500.568 137.964 501.702 137.1 503.7 137.1C505.752 137.1 506.832 137.964 506.832 139.908V140.88H515.31C516.444 140.88 517.092 141.528 517.092 142.608C517.092 143.742 516.444 144.39 515.31 144.39H506.832V146.226H516.39C519.036 146.226 520.116 148.332 518.766 150.384C517.686 152.058 516.714 153.138 515.904 153.84C515.202 154.326 514.5 154.38 513.852 153.894C513.258 153.408 513.096 152.868 513.42 152.22C513.69 151.68 513.96 151.14 514.122 150.654C514.284 150.114 514.068 149.844 513.636 149.844H504.618V151.68C506.562 151.464 508.56 151.194 510.774 150.924C511.8 150.816 512.502 151.194 512.664 152.274C512.826 153.3 512.34 154.002 511.206 154.11C509.046 154.434 506.832 154.704 504.672 154.974C504.834 156.054 505.59 156.378 507.966 156.378C510.126 156.378 512.286 156.108 513.96 155.514C515.148 155.136 516.012 155.298 516.498 156.54C517.038 157.836 516.714 158.862 515.472 159.402C513.798 160.104 511.854 160.266 506.832 160.266C500.73 160.266 499.488 159.294 499.434 155.622C498.192 155.784 497.004 155.946 495.816 156.054H495.114V161.562C495.384 161.4 495.762 161.292 496.194 161.292H517.362C518.442 161.292 519.09 161.886 519.09 162.966C519.09 164.046 518.442 164.586 517.362 164.586H508.506C507.804 165.234 506.994 165.936 506.076 166.638C507.048 167.664 507.858 168.798 508.56 170.094C510.072 169.068 511.476 167.88 512.934 166.26C513.96 165.126 515.526 164.964 516.66 166.206C517.848 167.556 517.578 168.906 516.012 169.878C515.202 170.418 514.284 170.904 513.366 171.282C514.77 174.144 516.876 176.682 519.09 178.464ZM487.014 148.71C488.202 148.71 488.904 149.412 488.904 150.6C488.904 151.788 488.202 152.49 487.014 152.49H484.368V160.806C485.07 160.536 485.772 160.266 486.474 159.942C487.392 159.564 488.094 159.726 488.58 160.536C489.012 161.346 488.85 162.102 488.094 162.696C487.014 163.614 485.718 164.586 484.368 165.45V182.136C484.368 187.59 479.4 189.048 473.352 186.186C472.434 185.754 472.164 184.998 472.38 184.08C472.596 183.162 473.19 182.838 474.324 182.946C477.402 183.378 478.05 182.946 478.05 181.218V169.014C477.51 169.23 476.97 169.5 476.43 169.716C474.486 170.58 473.082 169.986 472.434 167.88C471.732 165.882 472.488 164.478 474.486 163.992L478.05 163.02V152.49H474.864C473.622 152.49 472.974 151.788 472.974 150.6C472.974 149.412 473.622 148.71 474.864 148.71H478.05V140.34C478.05 138.342 479.184 137.37 481.182 137.37C483.234 137.37 484.368 138.234 484.368 140.286V148.71H487.014ZM499.434 152.274V149.844H495.114V152.76C495.222 152.76 495.33 152.706 495.492 152.706C496.788 152.598 498.084 152.436 499.434 152.274ZM496.194 164.586C495.708 164.586 495.33 164.478 495.006 164.316C494.952 166.044 494.844 167.664 494.682 169.176C494.844 168.96 495.114 168.744 495.438 168.636C497.814 167.556 500.244 166.152 501.918 164.586H496.194ZM494.196 174.684C498.246 173.118 501.162 171.606 503.754 169.122C503.646 168.852 503.538 168.636 503.376 168.366C501.27 169.608 498.84 170.742 496.356 171.39C495.384 171.66 494.844 171.282 494.52 170.472C494.358 172.092 494.088 173.55 493.764 174.954C493.872 174.846 494.034 174.738 494.196 174.684Z" fill="#594A39"/>
<defs>
<clipPath id="clip0_1376_14094">
<rect width="455.073" height="372.205" fill="white" transform="translate(38.6222 139) rotate(5.95607)"/>
</clipPath>
</defs>
</svg>
