<svg width="220" height="15" viewBox="0 0 220 15" fill="none" xmlns="http://www.w3.org/2000/svg">
<path d="M12.815 1.87H11V2.725H12.815V1.87ZM13.235 5.5H11.33C10.175 5.5 9.89 5.065 9.89 3.94V0.969999H14V3.64H11V3.97C11 4.375 11.06 4.525 11.39 4.525H13.205C13.49 4.525 13.955 4.495 14.195 4.435C14.225 4.735 14.27 5.155 14.3 5.41C14.075 5.485 13.655 5.5 13.235 5.5ZM8.03 1.855H6.275V2.71H8.03V1.855ZM6.275 4.585L9.29 4.12C9.215 4.435 9.155 4.87 9.14 5.11C5.96 5.65 5.48 5.755 5.225 5.89C5.15 5.605 4.91 5.08 4.76 4.825C4.955 4.735 5.18 4.495 5.18 3.94V0.955H9.215V3.625H6.275V4.585ZM8.54 7.735V8.92H10.565V7.735H8.54ZM14.39 9.97H4.715V8.92H7.265V7.735H5.3V6.685H7.265V5.74H8.54V6.685H10.565V5.74H11.855V6.685H13.865V7.735H11.855V8.92H14.39V9.97ZM14.12 11.65L12.875 12.25C12.275 11.755 11.24 11.08 10.235 10.585L11.15 9.97C12.215 10.45 13.415 11.125 14.12 11.65ZM7.745 9.985L8.99 10.42C8.225 11.14 7.01 11.86 6.02 12.31C5.765 12.07 5.285 11.65 4.955 11.47C6.005 11.095 7.1 10.555 7.745 9.985ZM4.16 2.725L3.11 3.505C2.69 2.875 1.85 1.855 1.19 1.12L2.225 0.474999C2.915 1.195 3.755 2.14 4.16 2.725ZM3.995 7.495L4.67 7.735C4.505 8.92 4.235 9.97 3.905 10.885C4.805 12.505 6.62 12.745 9.29 12.745C10.88 12.745 13.175 12.67 14.765 12.52C14.555 12.82 14.39 13.45 14.315 13.825C12.845 13.915 10.955 13.96 9.275 13.96C6.365 13.96 4.55 13.66 3.38 12.04C2.885 12.97 2.27 13.675 1.58 14.215C1.385 13.93 0.949997 13.465 0.664997 13.27C1.94 12.37 2.84 10.795 3.29 8.62H2.105C1.775 8.62 1.355 8.725 1.235 8.845C1.16 8.53 0.919997 7.915 0.769997 7.675C0.994997 7.6 1.22 7.51 1.46 7.21C1.715 6.925 2.33 5.89 2.825 5.005H0.964997V3.88H3.575L3.755 3.805L4.64 4.15C4.13 4.99 3.275 6.505 2.585 7.525H3.77L3.995 7.495ZM17.105 6.385H30.755V7.915H17.105V6.385ZM36.065 0.474999L37.355 0.849999C37.025 1.825 36.635 2.8 36.17 3.73V14.2H34.835V6.1C34.43 6.7 34.025 7.27 33.59 7.75C33.485 7.405 33.11 6.64 32.9 6.28C34.175 4.855 35.36 2.68 36.065 0.474999ZM43.175 10.015V8.035H41.09V10.015H43.175ZM44.75 5.53H42.665V7.03H44.255V11.02H40.055V7.03H41.555V5.53H39.545V4.495H41.555V2.875H42.665V4.495H44.75V5.53ZM39.005 12.055H45.185V2.47H39.005V12.055ZM37.73 1.255H46.505V14.035H45.185V13.285H39.005V14.17H37.73V1.255ZM52.64 0.489999L53.945 0.88C53.54 1.945 53.03 3.01 52.46 4.03V14.17H51.14V6.1C50.72 6.685 50.285 7.21 49.85 7.675C49.715 7.33 49.31 6.58 49.085 6.265C50.495 4.87 51.83 2.68 52.64 0.489999ZM55.37 6.91L56.735 7.165C56.285 9.1 55.505 10.99 54.62 12.22C54.365 11.995 53.75 11.635 53.435 11.47C54.32 10.36 54.995 8.635 55.37 6.91ZM61.64 4.495H59.195V12.565C59.195 13.285 59.045 13.69 58.595 13.93C58.145 14.155 57.47 14.2 56.525 14.2C56.465 13.81 56.24 13.18 56.03 12.805C56.705 12.82 57.35 12.82 57.545 12.805C57.74 12.805 57.815 12.76 57.815 12.565V4.495H55.79C55.34 5.44 54.86 6.28 54.35 6.955C54.095 6.7 53.54 6.25 53.21 6.04C54.335 4.72 55.19 2.605 55.7 0.489999L57.08 0.79C56.87 1.615 56.615 2.425 56.315 3.205H61.985L62.21 3.16L63.185 3.355C62.99 4.495 62.72 5.815 62.525 6.655L61.34 6.43C61.445 5.92 61.55 5.215 61.64 4.495ZM60.035 7.18L61.28 6.775C62.105 8.335 62.81 10.345 63.05 11.695L61.715 12.175C61.505 10.825 60.815 8.74 60.035 7.18ZM71.75 3.265V2.41H66.23V1.405H71.75V0.385H73.16V1.405H78.8V2.41H73.16V3.265H77.87V4.27H67.265V3.265H71.75ZM76.01 11.515H69.05V12.76H76.01V11.515ZM67.67 14.185V10.555H77.435V14.17H76.01V13.75H69.05V14.185H67.67ZM74.6 7.72H70.31C70.535 8.065 70.715 8.455 70.805 8.77H74.12C74.285 8.44 74.465 8.05 74.6 7.72ZM69.275 5.815V6.82H75.74V5.815H69.275ZM75.545 8.77H79.25V9.85H65.75V8.77H69.365C69.245 8.47 69.095 8.14 68.93 7.885L69.53 7.72H67.94V4.915H77.15V7.72H75.935L76.19 7.765C75.965 8.125 75.74 8.47 75.545 8.77ZM94.22 3.895H91.19C90.845 5.245 90.425 6.46 89.9 7.375C89.66 7.15 89.105 6.715 88.805 6.52C89.72 5.08 90.23 2.77 90.5 0.399999L91.79 0.609999C91.7 1.3 91.595 1.975 91.475 2.635H94.58L94.79 2.575L95.645 2.845C95.36 4.225 94.97 5.815 94.58 6.82L93.575 6.49C93.785 5.815 94.04 4.855 94.22 3.895ZM87.62 2.29V3.13H86.42V0.399999H87.62V1.27H89.585V2.29H87.62ZM88.13 5.35V4.18H86.915V5.35H88.13ZM89.015 3.4V6.13H86.06V3.4H89.015ZM83.78 3.115V2.305H81.785V1.27H83.78V0.399999H84.98V3.115H83.78ZM84.125 11.605V12.49H85.82V11.605H84.125ZM85.82 8.98V8.23H84.125V8.98H85.82ZM85.82 10.69V9.91H84.125V10.69H85.82ZM83.225 4.18V5.365H84.44V4.18H83.225ZM92.765 4.48V5.38C92.765 5.92 92.75 6.505 92.705 7.15C93.17 9.73 94.115 12.04 95.735 13.09C95.435 13.36 95.03 13.87 94.835 14.26C93.635 13.345 92.81 11.8 92.255 9.94C91.85 11.425 91.13 12.94 89.84 14.26C89.675 14.005 89.3 13.645 88.985 13.435V13.48H84.125V14.185H83.03V9.325C82.79 9.64 82.55 9.955 82.31 10.195C82.205 9.985 81.875 9.46 81.68 9.25C82.475 8.455 83.24 7.3 83.69 6.13H82.355V3.4H85.34V6.13H83.75L84.68 6.43C84.56 6.7 84.44 6.985 84.29 7.255H85.925C85.805 7 85.67 6.745 85.535 6.52L86.435 6.16C86.675 6.49 86.915 6.925 87.035 7.255H89.075V8.23H86.96V8.98H88.79V9.91H86.96V10.69H88.88V11.605H86.96V12.49H88.985V13.18C91.355 10.66 91.535 7.495 91.535 5.35V4.48H92.765ZM99.965 11.41H102.755V8.095H99.965V11.41ZM102.755 4.03H99.965V6.88H102.755V4.03ZM107 2.74H111.35C111.35 2.74 111.35 3.22 111.335 3.4C111.125 10.165 110.945 12.49 110.345 13.24C109.97 13.735 109.61 13.87 109.04 13.945C108.515 14.005 107.63 13.99 106.775 13.945C106.745 13.57 106.58 12.985 106.325 12.595C107.285 12.67 108.155 12.685 108.53 12.685C108.83 12.685 108.995 12.64 109.16 12.43C109.64 11.935 109.835 9.67 110.03 4.015H106.49C106.07 4.975 105.605 5.845 105.125 6.535C104.9 6.325 104.375 5.95 104.03 5.755V12.64H99.965V13.78H98.69V2.815H100.37C100.58 2.095 100.805 1.105 100.895 0.385L102.41 0.639999C102.155 1.39 101.87 2.185 101.63 2.815H104.03V5.65C105.02 4.36 105.815 2.365 106.265 0.385L107.615 0.699999C107.435 1.39 107.24 2.08 107 2.74ZM108.92 9.505L107.75 10.24C107.33 9.325 106.355 7.855 105.56 6.775L106.655 6.16C107.45 7.195 108.47 8.62 108.92 9.505ZM117.35 0.474999L118.67 0.865C118.295 1.96 117.8 3.07 117.26 4.135V14.17H115.94V6.355C115.595 6.835 115.265 7.27 114.905 7.66C114.785 7.33 114.38 6.58 114.125 6.265C115.43 4.855 116.63 2.65 117.35 0.474999ZM120.215 8.305H122.465C122.48 8.08 122.48 7.825 122.48 7.6V6.955H120.215V8.305ZM120.215 4.615V5.965H122.48V4.615H120.215ZM125.945 4.615H123.86V5.965H125.945V4.615ZM125.945 8.305V6.955H123.86V7.615C123.86 7.84 123.86 8.08 123.845 8.305H125.945ZM127.31 9.355H123.71C123.56 10.225 123.245 11.035 122.675 11.77C124.175 12.355 126.05 12.67 128.165 12.805C127.85 13.12 127.505 13.705 127.325 14.095C125.135 13.9 123.245 13.48 121.685 12.745C120.92 13.33 119.885 13.825 118.535 14.23C118.37 13.9 117.965 13.345 117.68 13.09C118.88 12.82 119.78 12.46 120.455 12.055C119.66 11.515 118.985 10.87 118.46 10.09L119.675 9.67C120.11 10.285 120.71 10.78 121.46 11.215C121.97 10.645 122.21 10.015 122.345 9.355H118.925V3.565H122.48V2.455H118.61V1.24H127.745V2.455H123.86V3.565H127.31V9.355ZM134.945 2.335V4.855H137.66V6.145H134.945V7.135C135.68 7.675 137.255 9.025 137.66 9.385L136.865 10.57C136.445 10.09 135.65 9.265 134.945 8.59V14.155H133.58V8.2C132.845 9.745 131.915 11.26 130.985 12.205C130.835 11.8 130.475 11.215 130.25 10.855C131.39 9.775 132.59 7.87 133.295 6.145H130.58V4.855H133.58V2.62C132.665 2.8 131.735 2.95 130.865 3.055C130.805 2.74 130.61 2.26 130.445 1.975C132.62 1.645 135.125 1.12 136.55 0.489999L137.555 1.555C136.805 1.855 135.905 2.11 134.945 2.335ZM139.895 2.2V10.45H138.545V2.2H139.895ZM142.13 0.699999H143.525V12.415C143.525 13.285 143.315 13.69 142.79 13.93C142.235 14.14 141.335 14.185 139.97 14.185C139.895 13.795 139.685 13.15 139.475 12.745C140.495 12.79 141.44 12.79 141.74 12.775C142.025 12.775 142.13 12.685 142.13 12.415V0.699999ZM150.95 3.775V2.125H148.61V3.775H150.95ZM150.95 6.535V4.855H148.61V6.535H150.95ZM150.95 9.295V7.585H148.61V9.295H150.95ZM152.3 0.984999V10.42H147.32V0.984999H152.3ZM148.205 10.645L149.51 10.975C149.09 12.19 148.355 13.42 147.605 14.2C147.35 13.975 146.81 13.585 146.495 13.405C147.245 12.73 147.86 11.695 148.205 10.645ZM150.2 11.11L151.31 10.615C151.91 11.35 152.51 12.34 152.795 13L151.64 13.585C151.37 12.91 150.77 11.875 150.2 11.11ZM158.36 12.25V8.815H154.52V12.25H158.36ZM160.4 4.93H156.935V7.555H159.725V14.11H158.36V13.51H154.52V14.17H153.215V7.555H155.57V0.429999H156.935V3.655H160.4V4.93ZM174.875 5.815V4.615H171.35V5.815H174.875ZM174.875 8.05V6.835H171.35V8.05H174.875ZM174.875 10.285V9.07H171.35V10.285H174.875ZM170.135 3.55H172.16C172.25 3.145 172.325 2.68 172.385 2.275H169.715V1.09H176.585V2.275H173.81C173.675 2.71 173.555 3.16 173.42 3.55H176.135V11.35H170.135V3.55ZM167.72 6.88L168.77 7.3C167.975 8.08 166.715 8.725 165.59 9.13C165.395 8.875 165.08 8.545 164.795 8.35C165.845 8.02 167.06 7.465 167.72 6.88ZM164.675 6.865V8.785C164.675 10.36 164.495 12.61 163.595 14.065C163.4 13.84 162.875 13.36 162.605 13.21C163.355 11.905 163.43 10.135 163.43 8.77V5.755H163.97C163.745 5.53 163.445 5.23 163.22 5.065C163.925 4.84 164.645 4.57 165.32 4.24C164.75 3.985 164.165 3.76 163.64 3.55L164.495 2.875C165.095 3.1 165.77 3.37 166.43 3.655C166.85 3.4 167.24 3.13 167.585 2.83H163.085V1.735H165.905C165.77 1.36 165.62 0.955 165.455 0.624999L166.7 0.339999C166.94 0.745 167.165 1.3 167.3 1.735H169.55V2.83H168.185L168.815 3.07C168.44 3.445 167.975 3.82 167.495 4.15C168.11 4.45 168.695 4.72 169.13 4.975L168.245 5.725C167.795 5.44 167.165 5.11 166.475 4.78C165.785 5.155 165.08 5.47 164.42 5.755H169.685V6.865H164.675ZM168.125 8.695L169.19 9.13C168.32 10.09 166.955 10.885 165.68 11.38C165.485 11.125 165.17 10.795 164.9 10.585C166.055 10.165 167.405 9.46 168.125 8.695ZM168.53 10.78L169.67 11.17C168.74 12.58 167.105 13.615 165.215 14.245C165.035 13.945 164.735 13.555 164.45 13.315C166.145 12.835 167.75 11.935 168.53 10.78ZM171.455 11.47L172.61 12.175C171.86 12.94 170.615 13.78 169.565 14.23C169.355 13.96 168.935 13.57 168.635 13.33C169.67 12.91 170.87 12.115 171.455 11.47ZM173.48 12.22L174.53 11.545C175.31 12.085 176.315 12.91 176.81 13.45L175.745 14.215C175.265 13.66 174.275 12.805 173.48 12.22ZM187.145 2.905H183.485C183.05 3.475 182.57 4.03 182.045 4.54H185.735C186.23 4.075 186.74 3.475 187.145 2.905ZM189.935 8.065V5.83H186.74V8.065H189.935ZM182.225 5.83V8.065H185.375V5.83H182.225ZM184.145 12.655H189.62C191.06 12.655 191.3 12.265 191.48 10.36C191.825 10.585 192.425 10.78 192.8 10.855C192.515 13.24 192.005 13.93 189.65 13.93H184.19C181.655 13.93 180.875 13.465 180.875 11.56V5.605C180.5 5.92 180.125 6.205 179.75 6.46C179.615 6.16 179.225 5.455 179 5.14C180.785 4.06 182.585 2.29 183.605 0.354999L184.88 0.819999C184.73 1.105 184.55 1.375 184.37 1.66H188.09L188.375 1.585L189.29 2.23C188.765 2.995 188.105 3.82 187.415 4.54H191.315V9.985H189.935V9.4H182.225V11.56C182.225 12.46 182.51 12.655 184.145 12.655ZM198.635 3.07H197.045V8.98H198.635V3.07ZM199.925 1.78V10.27H197.045V11.65H195.77V1.78H199.925ZM204.11 2.635H202.43V7.135H204.11V2.635ZM207.125 7.135V2.635H205.37V7.135H207.125ZM203.525 12.64H206.735C207.545 12.64 207.695 12.25 207.815 10.63C208.145 10.84 208.7 11.08 209.09 11.155C208.88 13.225 208.46 13.915 206.825 13.915H203.42C201.62 13.915 201.065 13.48 201.065 11.59V1.345H208.49V9.31H207.125V8.395H202.43V11.59C202.43 12.475 202.595 12.64 203.525 12.64ZM217.685 9.28L217.34 3.76L217.295 1.78H219.305L219.26 3.76L218.915 9.28H217.685ZM218.3 13.105C217.67 13.105 217.175 12.64 217.175 11.965C217.175 11.29 217.67 10.825 218.3 10.825C218.93 10.825 219.425 11.29 219.425 11.965C219.425 12.64 218.93 13.105 218.3 13.105Z" fill="#594A39"/>
</svg>
