<svg width="1401" height="155" viewBox="0 0 1401 155" fill="none" xmlns="http://www.w3.org/2000/svg">
<path d="M202.267 5.28837C185.256 4.94476 168.291 3.38422 151.503 0.618714C123.41 -4.20157 22.7865 17.791 22.7865 114.573C22.7865 114.573 71.14 143.796 129.36 107.042C187.58 70.2869 202.267 5.28837 202.267 5.28837Z" fill="#C7D04F"/>
<path d="M8.77755 140.934C9.3765 140.886 9.95732 140.706 10.4782 140.406C10.9991 140.106 11.4472 139.695 11.7902 139.202C12.2421 138.524 26.477 109.904 73.6254 74.128C74.5147 73.6497 75.2108 72.878 75.5953 71.9442C75.9798 71.0105 76.0289 69.9724 75.7343 69.0065C75.5566 68.5267 75.2791 68.0901 74.9202 67.7255C74.5612 67.3609 74.1289 67.0766 73.6519 66.8915C73.175 66.7065 72.6641 66.6247 72.1532 66.6517C71.6423 66.6787 71.1429 66.8139 70.6881 67.0482C43.3261 83.2318 19.3808 104.593 0.191424 129.938C-1.08896 131.746 4.40918 139.051 6.14147 140.256C6.51234 140.541 6.9371 140.748 7.39015 140.865C7.8432 140.981 8.31515 141.005 8.77755 140.934Z" fill="#E2E5A7"/>
<path d="M193.431 126.096C197.871 129.696 198.711 134.736 194.391 138.696C190.311 142.536 185.991 141.936 182.391 137.376C179.151 133.176 175.191 128.736 171.111 124.416V140.136C171.111 154.896 155.751 157.536 138.591 149.496C136.191 148.416 135.471 146.376 136.191 143.976C136.911 141.576 138.471 140.616 141.351 140.976C151.311 142.056 152.871 141.336 152.871 135.336V126.576C149.271 129.936 145.311 132.936 141.471 135.216C138.111 137.136 134.991 137.256 132.711 135.216C133.071 138.216 131.631 140.016 128.391 140.976C124.431 142.176 121.671 140.736 120.831 136.776C119.271 129.696 117.111 122.856 115.311 117.696C114.471 115.296 115.311 113.736 117.111 112.776C119.031 111.936 120.591 112.656 122.031 114.456C124.791 117.936 127.671 122.496 129.951 127.416C130.311 124.776 132.231 122.496 135.111 121.776C140.511 120.336 146.751 118.176 152.871 115.176V91.6562H132.951C129.831 91.6562 128.031 89.8562 128.031 86.7362C128.031 83.6162 129.831 81.8162 132.951 81.8162H162.591L164.031 76.2962H149.991C148.191 80.1362 144.591 81.4562 139.911 80.4962C134.991 79.5362 133.551 76.5362 134.871 71.8562C137.271 62.9762 139.911 51.8162 141.231 46.1762C142.191 42.0962 146.511 40.5362 150.591 41.1362C155.031 41.8562 157.671 44.6162 157.191 48.4562H168.471C170.511 45.2162 174.471 43.7762 178.791 44.6162C183.471 45.5762 186.591 49.0562 185.271 55.5362C184.071 61.2962 181.071 72.6962 178.311 81.8162H191.271C194.391 81.8162 196.191 83.6162 196.191 86.7362C196.191 89.8562 194.391 91.6562 191.271 91.6562H171.111V110.016C173.751 106.176 176.151 101.976 178.071 97.8962C180.231 93.6962 184.671 92.3762 188.631 95.0162C192.831 97.7762 193.311 101.976 189.951 105.456C185.991 109.656 181.671 113.256 177.831 115.776C183.711 118.896 188.871 122.376 193.431 126.096ZM95.8714 98.8562H98.1514C101.511 93.8162 104.511 88.8962 107.151 84.0962C104.151 85.2962 101.031 86.3762 98.0314 87.0962C92.6314 88.4162 88.5514 85.5362 88.1914 79.8962C87.8314 74.7362 90.7114 71.3762 95.6314 71.6162C98.3914 62.8562 100.071 55.1762 101.151 47.9762C101.991 42.3362 106.911 40.4162 111.951 41.3762C117.111 42.3362 119.391 46.6562 117.831 51.4562C115.671 57.9362 111.111 65.9762 106.431 72.2162C108.591 72.3362 110.871 72.3362 113.031 72.4562C114.591 68.9762 116.031 65.7362 117.231 62.4962C119.151 57.2162 123.951 56.0162 128.271 57.8162C133.071 59.8562 135.111 64.0562 132.351 68.9762C126.831 78.8162 119.631 88.8962 110.271 98.2562C113.271 98.1362 116.151 97.7762 119.031 97.4162C118.791 96.6962 118.671 95.8562 118.431 95.1362C117.711 92.3762 118.551 90.5762 120.591 89.7362C122.751 88.8962 124.311 89.7362 125.871 91.7762C128.871 95.7362 131.631 100.896 133.671 106.056C135.351 110.136 133.911 113.616 129.471 114.816C125.271 115.896 122.511 114.096 121.791 110.136L120.831 105.576C113.871 109.296 106.431 112.056 98.1514 114.456C92.3914 116.136 88.3114 113.496 87.7114 107.976C86.9914 102.696 89.6314 98.9762 95.8714 98.8562ZM152.751 66.6962H166.551C167.151 63.9362 167.751 61.5362 168.111 59.6162C168.351 58.6562 167.751 58.0562 166.791 58.0562H155.031C154.311 60.9362 153.591 63.8162 152.751 66.6962ZM147.591 114.096C143.751 116.496 139.311 115.296 137.871 111.456C136.431 107.616 134.631 103.176 132.951 99.9362C131.751 97.6562 132.231 95.7362 133.911 94.2962C135.591 92.8562 137.751 93.0962 139.671 94.6562C143.631 97.8962 146.871 101.016 149.511 104.856C151.911 108.336 151.071 111.936 147.591 114.096ZM112.431 118.176C115.191 124.656 117.831 133.416 119.151 140.976C119.991 145.656 118.311 148.296 113.631 148.776C108.951 149.256 106.071 147.336 106.071 142.296C106.071 134.496 105.591 125.856 104.751 119.856C104.511 117.096 105.591 115.536 107.871 115.056C110.151 114.576 111.471 115.896 112.431 118.176ZM97.6714 116.736C100.071 116.856 101.391 118.656 101.751 121.536C102.951 129.816 103.311 137.976 102.951 145.536C102.711 151.056 98.6314 153.456 93.2314 152.136C88.1914 150.936 86.6314 147.456 88.1914 142.896C90.7114 135.816 92.1514 128.736 93.2314 120.696C93.5914 117.936 95.5114 116.616 97.6714 116.736Z" fill="#594A39"/>
<path d="M332.751 118.296C337.791 145.776 333.111 149.856 312.951 150.456C293.271 151.056 276.351 151.176 261.231 150.576C240.951 149.736 237.111 146.496 237.111 129.816V91.8962C235.191 93.2162 233.391 94.2962 231.591 95.2562C228.831 96.6962 226.191 96.3362 224.631 93.8162C223.071 91.4162 223.551 89.1362 226.071 86.8562C236.631 77.4962 246.111 62.2562 251.871 46.7762C254.271 40.4162 259.791 38.8562 265.911 41.2562C271.191 43.2962 272.511 47.8562 270.831 53.0162H284.511C288.351 49.6562 294.351 48.9362 298.791 51.2162C303.711 53.7362 305.871 58.6562 301.671 65.4962C299.751 68.6162 297.111 71.8562 294.231 74.7362H313.671C318.711 74.7362 321.471 77.4962 321.471 82.5362V106.776C321.471 111.816 318.711 114.576 313.671 114.576H256.071V122.856C256.071 131.976 257.151 133.056 266.631 133.536C280.791 134.256 298.311 134.136 311.391 133.536C321.591 133.056 322.911 131.496 322.911 119.136C322.911 115.776 324.711 113.976 327.351 113.976C330.231 113.976 332.151 115.296 332.751 118.296ZM283.551 65.7362C283.911 64.6562 283.311 64.0562 282.351 64.0562H264.831C262.431 67.6562 259.551 71.3762 256.431 74.7362H279.591C281.271 71.6162 282.471 68.8562 283.551 65.7362ZM270.831 103.776V85.5362H257.511C256.671 85.5362 256.071 86.1362 256.071 86.9762V103.776H270.831ZM303.711 86.9762C303.711 86.1362 303.111 85.5362 302.271 85.5362H288.831V103.776H301.791C303.351 103.776 303.711 103.296 303.711 101.736V86.9762Z" fill="#594A39"/>
<path d="M462.951 59.0162C466.311 59.0162 468.231 60.9362 468.231 64.2962C468.231 67.6562 466.311 69.5762 462.951 69.5762H401.391C398.031 69.5762 396.111 67.6562 396.111 64.2962C396.111 60.9362 398.031 59.0162 401.391 59.0162H420.951V48.3362C420.951 43.8962 424.551 40.5362 431.271 40.5362C437.871 40.5362 441.591 43.7762 441.591 48.3362V59.0162H462.951ZM397.791 53.7362C396.471 59.3762 394.551 65.1362 392.151 70.8962V145.896C392.151 151.416 388.911 153.816 383.031 153.816C377.151 153.816 373.911 151.416 373.911 145.896V100.416C372.111 102.576 370.191 104.496 368.271 106.296C365.991 108.336 363.711 108.696 362.031 107.256C359.991 105.336 359.871 103.296 361.311 100.776C369.351 86.8562 375.711 67.8962 378.711 50.0162C379.911 42.8162 383.991 40.2962 390.471 41.4962C396.831 42.6962 399.351 46.7762 397.791 53.7362ZM457.671 76.7762C461.031 76.7762 462.951 78.6962 462.951 82.0562C462.951 85.4162 461.031 87.3362 457.671 87.3362H404.991C401.631 87.3362 399.711 85.4162 399.711 82.0562C399.711 78.6962 401.631 76.7762 404.991 76.7762H457.671ZM457.431 93.0962C460.791 93.0962 462.711 95.0162 462.711 98.3762C462.711 101.736 460.791 103.656 457.431 103.656H405.351C401.991 103.656 400.071 101.736 400.071 98.3762C400.071 95.0162 401.991 93.0962 405.351 93.0962H457.431ZM453.951 110.736C458.991 110.736 461.751 113.496 461.751 118.536V146.016C461.751 151.416 458.391 153.816 452.271 153.816C446.151 153.816 442.791 151.416 442.791 146.016V144.216H419.871V146.016C419.871 151.416 416.511 153.816 410.391 153.816C404.271 153.816 400.911 151.416 400.911 146.016V118.536C400.911 113.496 403.671 110.736 408.711 110.736H453.951ZM419.871 134.136H442.791V122.256C442.791 121.416 442.191 120.816 441.351 120.816H421.311C420.471 120.816 419.871 121.416 419.871 122.256V134.136Z" fill="#594A39"/>
<path d="M590.871 46.8962C595.911 46.8962 598.671 49.6562 598.671 54.6962V140.256C598.671 153.696 584.871 157.416 568.431 149.976C566.031 148.896 565.551 146.976 566.031 144.576C566.511 142.056 567.831 140.976 570.951 141.216C578.871 141.816 580.791 140.616 580.791 136.656V113.016H562.671V142.776C562.671 148.656 559.911 151.536 554.031 151.536C548.151 151.536 544.911 148.296 544.911 142.776V113.016H526.431C524.751 131.256 519.831 143.496 508.911 152.736C506.751 154.536 504.351 154.536 502.431 152.856C500.391 151.176 500.391 149.016 501.711 146.496C507.591 135.096 508.911 125.136 508.911 96.9362V54.6962C508.911 49.6562 511.671 46.8962 516.711 46.8962H590.871ZM544.911 74.2562V57.4562H528.591C527.751 57.4562 527.151 58.0562 527.151 58.8962V74.2562H544.911ZM580.431 74.2562V58.8962C580.431 58.0562 579.831 57.4562 578.991 57.4562H562.671V74.2562H580.431ZM544.911 102.696V84.5762H527.151V94.7762C527.151 97.5362 527.151 100.176 527.031 102.696H544.911ZM580.431 102.696V84.5762H562.671V102.696H580.431Z" fill="#594A39"/>
<path d="M737.631 81.9362C741.351 81.9362 743.391 84.0962 743.391 87.9362C743.391 91.7762 741.351 93.9362 737.631 93.9362H695.511V99.5762C705.711 103.056 717.471 107.976 727.791 114.096C733.551 117.576 735.111 123.936 731.151 128.976C727.431 133.776 722.031 135.096 716.991 130.296C710.391 123.936 702.711 117.216 695.511 111.576V145.296C695.511 150.696 691.911 154.296 685.311 154.296C678.711 154.296 675.111 150.696 675.111 145.296V93.9362H641.031C637.311 93.9362 635.271 91.7762 635.271 87.9362C635.271 84.0962 637.311 81.9362 641.031 81.9362H675.111V48.9362C675.111 43.5362 678.711 39.9362 685.311 39.9362C691.911 39.9362 695.511 43.5362 695.511 48.9362V57.6962H727.791C731.391 57.6962 733.311 59.8562 733.311 63.4562C733.311 67.0562 731.271 69.2162 727.791 69.2162H695.511V81.9362H737.631Z" fill="#594A39"/>
<path d="M799.911 133.196C798.471 132.13 797.351 130.61 796.551 128.636C795.805 126.61 795.458 124.743 795.511 123.036C795.458 119.73 795.725 116.316 796.311 112.796C796.951 109.276 797.778 105.996 798.791 102.956C799.485 101.036 800.231 99.0895 801.031 97.1162C801.831 95.1428 802.658 93.2762 803.511 91.5162C804.365 89.7029 805.191 88.1829 805.991 86.9562C807.645 84.1295 809.325 81.8628 811.031 80.1562C812.791 78.4495 814.125 77.3295 815.031 76.7962C816.525 76.0495 818.311 75.4895 820.391 75.1162C822.471 74.6895 824.498 74.6895 826.471 75.1162C827.858 75.4895 829.218 76.0228 830.551 76.7162C831.938 77.4095 833.138 78.2628 834.151 79.2762C834.738 79.8095 835.191 80.3695 835.511 80.9562C835.831 81.5428 835.991 82.1562 835.991 82.7962C835.991 83.5962 835.618 84.3695 834.871 85.1162C834.125 85.8628 833.298 86.3695 832.391 86.6362C831.485 86.9028 830.791 86.7429 830.311 86.1562C829.618 85.0895 828.951 84.2895 828.311 83.7562C827.671 83.1695 827.005 82.7428 826.311 82.4762C825.725 82.1028 824.925 81.9162 823.911 81.9162C822.951 81.9162 821.911 82.1028 820.791 82.4762C819.671 82.7962 818.605 83.3828 817.591 84.2362C817.218 84.5562 816.711 85.0095 816.071 85.5962C815.485 86.1828 814.845 86.9028 814.151 87.7562C813.511 88.5562 812.925 89.4362 812.391 90.3962C810.898 92.8495 809.618 95.3562 808.551 97.9162C807.538 100.423 806.631 103.17 805.831 106.156C805.458 107.383 805.058 108.903 804.631 110.716C804.205 112.476 803.805 114.236 803.431 115.996C803.111 117.756 802.898 119.303 802.791 120.636C802.631 122.503 802.685 123.97 802.951 125.036C803.218 126.103 803.778 126.823 804.631 127.196C805.485 127.516 806.685 127.49 808.231 127.116C809.618 126.796 811.005 126.263 812.391 125.516C813.831 124.716 815.218 123.73 816.551 122.556C817.885 121.33 819.085 119.89 820.151 118.236C821.111 116.423 821.885 114.77 822.471 113.276C823.111 111.783 823.431 110.61 823.431 109.756C823.485 108.85 823.031 108.423 822.071 108.476C819.885 108.53 818.125 108.45 816.791 108.236C815.511 108.023 814.631 107.49 814.151 106.636C813.458 106.476 813.085 105.89 813.031 104.876C813.031 103.863 813.538 103.036 814.551 102.396C815.458 101.916 816.711 101.623 818.311 101.516C819.911 101.41 821.538 101.463 823.191 101.676C824.898 101.836 826.258 102.21 827.271 102.796C828.445 103.383 829.245 104.263 829.671 105.436C830.151 106.556 830.391 107.756 830.391 109.036C830.445 110.316 830.365 111.516 830.151 112.636C829.671 114.503 829.005 116.316 828.151 118.076C827.351 119.836 826.258 121.623 824.871 123.436C824.071 124.556 822.978 125.73 821.591 126.956C820.205 128.183 818.738 129.276 817.191 130.236C815.698 131.25 814.285 132.05 812.951 132.636C810.818 133.596 808.578 134.29 806.231 134.716C803.938 135.143 801.831 134.636 799.911 133.196Z" fill="#B8C318"/>
<path d="M842.643 127.356C842.163 126.983 841.629 126.503 841.043 125.916C840.509 125.33 840.323 124.503 840.483 123.436C840.643 121.943 840.856 120.636 841.123 119.516C841.389 118.343 841.709 117.01 842.083 115.516C842.189 114.876 842.456 113.783 842.883 112.236C843.363 110.69 843.923 109.01 844.563 107.196C845.203 105.383 845.869 103.676 846.563 102.076C847.256 100.423 847.869 99.1962 848.403 98.3962C848.989 97.8628 849.843 97.5962 850.963 97.5962C852.136 97.5962 852.936 97.8095 853.363 98.2362C853.949 98.7162 854.136 99.5695 853.923 100.796C853.709 101.97 852.963 103.81 851.683 106.316C851.416 106.956 851.069 107.65 850.643 108.396C850.269 109.09 850.003 109.676 849.843 110.156C849.683 110.583 849.736 110.77 850.003 110.716C850.323 110.13 850.909 109.463 851.763 108.716C852.616 107.916 853.523 107.143 854.483 106.396C855.443 105.65 856.349 104.983 857.203 104.396C858.056 103.81 858.643 103.436 858.963 103.276C859.389 103.01 859.869 102.796 860.403 102.636C860.989 102.423 861.389 102.263 861.603 102.156C862.829 101.57 864.163 101.356 865.603 101.516C867.096 101.623 868.003 102.076 868.323 102.876C868.376 103.303 868.536 103.623 868.803 103.836C869.123 104.05 869.283 104.156 869.283 104.156C869.496 104.156 869.603 104.236 869.603 104.396C869.656 104.556 869.683 104.636 869.683 104.636C869.683 105.01 869.309 105.543 868.563 106.236C867.869 106.93 867.096 107.303 866.243 107.356C865.549 107.41 864.936 107.543 864.403 107.756C863.869 107.97 863.229 108.236 862.483 108.556C860.456 109.73 858.616 110.77 856.963 111.676C855.363 112.583 853.709 113.97 852.003 115.836C851.629 116.263 851.229 116.663 850.803 117.036C850.376 117.41 849.949 117.943 849.523 118.636C849.256 118.903 848.989 119.49 848.723 120.396C848.456 121.303 848.216 122.183 848.003 123.036C847.843 123.836 847.763 124.316 847.763 124.476C847.763 124.476 847.683 124.743 847.523 125.276C847.363 125.756 847.096 126.236 846.723 126.716C846.083 127.57 845.443 128.103 844.803 128.316C844.216 128.53 843.496 128.21 842.643 127.356Z" fill="#B8C318"/>
<path d="M891.791 127.916C890.191 128.823 888.484 129.356 886.671 129.516C884.911 129.623 883.258 129.383 881.711 128.796C880.164 128.156 878.911 127.223 877.951 125.996C877.417 125.303 876.911 124.21 876.431 122.716C875.951 121.17 875.871 119.09 876.191 116.476C876.511 114.023 877.257 111.543 878.431 109.036C879.657 106.53 881.151 104.316 882.911 102.396C884.671 100.476 886.591 99.1695 888.671 98.4762C889.417 98.2095 890.164 98.0229 890.911 97.9162C891.711 97.7562 892.751 97.7295 894.031 97.8362C895.258 97.9962 896.351 98.3162 897.311 98.7962C898.271 99.2228 898.964 99.7029 899.391 100.236C900.244 101.09 900.804 101.916 901.071 102.716C901.337 103.516 901.444 104.29 901.391 105.036C901.124 106.743 900.351 108.583 899.071 110.556C897.844 112.53 896.111 113.996 893.871 114.956C892.964 115.33 891.897 115.57 890.671 115.676C889.444 115.783 887.764 115.623 885.631 115.196C884.351 114.93 883.497 115.063 883.071 115.596C882.697 116.13 882.537 117.17 882.591 118.716C882.698 119.676 882.911 120.53 883.231 121.276C883.604 121.97 884.271 122.45 885.231 122.716C886.457 122.93 887.337 122.956 887.871 122.796C888.404 122.583 889.071 122.29 889.871 121.916C890.297 121.65 890.697 121.356 891.071 121.036C891.497 120.716 891.897 120.396 892.271 120.076C892.697 119.756 893.044 119.516 893.311 119.356C893.577 119.143 893.844 119.01 894.111 118.956C894.377 118.903 894.644 118.876 894.911 118.876C895.497 118.93 896.057 119.25 896.591 119.836C897.124 120.423 897.471 120.983 897.631 121.516C897.631 121.943 897.364 122.556 896.831 123.356C896.297 124.103 895.577 124.903 894.671 125.756C893.817 126.556 892.857 127.276 891.791 127.916ZM890.751 110.076C891.124 109.916 891.657 109.543 892.351 108.956C893.097 108.37 893.764 107.756 894.351 107.116C894.938 106.423 895.231 105.89 895.231 105.516C895.231 104.93 894.831 104.423 894.031 103.996C893.284 103.57 892.297 103.49 891.071 103.756C890.644 103.863 890.137 104.156 889.551 104.636C888.964 105.116 888.377 105.676 887.791 106.316C887.204 106.903 886.698 107.49 886.271 108.076C885.844 108.61 885.551 109.036 885.391 109.356C885.604 109.623 886.031 109.836 886.671 109.996C887.311 110.156 888.004 110.236 888.751 110.236C889.551 110.236 890.217 110.183 890.751 110.076Z" fill="#B8C318"/>
<path d="M917.55 130.956C914.616 130.956 912.35 130.103 910.75 128.396C909.203 126.69 908.43 124.076 908.43 120.556C908.43 118.636 908.776 116.53 909.47 114.236C910.216 111.943 911.176 109.703 912.35 107.516C913.576 105.33 914.91 103.436 916.35 101.836C917.79 100.183 919.23 99.0362 920.67 98.3962C921.203 98.1295 921.763 97.9428 922.35 97.8362C922.99 97.6762 923.603 97.5962 924.19 97.5962C924.83 97.5962 925.523 97.6495 926.27 97.7562C927.07 97.8095 927.816 97.9695 928.51 98.2362C929.736 98.6095 930.803 99.3295 931.71 100.396C932.67 101.463 933.15 103.01 933.15 105.036C933.15 105.57 933.096 106.156 932.99 106.796C932.883 107.383 932.696 107.97 932.43 108.556C931.736 110.316 930.67 111.996 929.23 113.596C927.843 115.196 926.376 116.316 924.83 116.956C924.403 117.17 923.976 117.33 923.55 117.436C923.176 117.49 922.776 117.516 922.35 117.516C921.23 117.516 920.216 117.356 919.31 117.036C918.456 116.716 917.656 116.29 916.91 115.756L916.27 115.196L915.87 115.996C915.496 117.01 915.229 117.863 915.07 118.556C914.963 119.25 914.91 119.756 914.91 120.076C914.91 120.716 914.936 121.383 914.99 122.076C915.043 122.716 915.203 123.25 915.47 123.676C915.683 123.943 915.95 124.156 916.27 124.316C916.643 124.476 917.096 124.556 917.63 124.556C917.95 124.556 918.243 124.556 918.51 124.556C918.83 124.503 919.096 124.45 919.31 124.396C920.27 124.183 921.043 123.836 921.63 123.356C922.27 122.823 922.936 122.37 923.63 121.996L923.95 121.836L923.87 121.596C924.776 121.116 925.39 120.823 925.71 120.716C926.03 120.556 926.27 120.423 926.43 120.316C926.643 120.103 926.883 119.996 927.15 119.996C927.896 119.89 928.616 120.103 929.31 120.636C930.056 121.116 930.43 121.73 930.43 122.476C930.43 122.796 930.19 123.303 929.71 123.996C929.283 124.69 928.723 125.383 928.03 126.076C927.39 126.716 926.723 127.223 926.03 127.596C925.87 127.65 925.71 127.73 925.55 127.836C925.39 127.89 925.229 127.97 925.07 128.076H925.15C924.67 128.716 924.19 129.036 923.71 129.036H923.07C922.856 129.41 922.163 129.81 920.99 130.236C919.816 130.716 918.67 130.956 917.55 130.956ZM921.71 111.676C922.19 111.676 922.616 111.596 922.99 111.436C923.416 111.276 923.816 111.09 924.19 110.876C925.47 109.97 926.296 108.796 926.67 107.356C927.043 105.916 926.91 104.823 926.27 104.076C926.163 103.916 926.03 103.81 925.87 103.756C925.71 103.65 925.523 103.596 925.31 103.596C924.723 103.596 924.056 103.783 923.31 104.156C922.616 104.53 921.923 105.063 921.23 105.756C920.536 106.45 919.896 107.276 919.31 108.236L918.27 109.916C918.376 109.863 918.456 109.836 918.51 109.836C918.616 109.783 918.696 109.756 918.75 109.756C919.23 109.756 919.55 109.916 919.71 110.236C919.87 110.556 920.056 110.876 920.27 111.196C920.536 111.516 921.016 111.676 921.71 111.676Z" fill="#B8C318"/>
<path d="M968.108 129.196C967.308 129.196 966.535 128.956 965.788 128.476C965.042 127.943 964.428 127.223 963.948 126.316C963.468 125.356 963.228 124.236 963.228 122.956C963.228 122.156 963.362 121.036 963.628 119.596C963.948 118.103 964.402 116.236 964.988 113.996C965.095 113.25 965.175 112.77 965.228 112.556C965.335 112.343 965.388 112.13 965.388 111.916C965.388 111.81 965.362 111.73 965.308 111.676C965.308 111.57 965.255 111.516 965.148 111.516C964.722 111.516 964.135 111.81 963.388 112.396C962.695 112.93 961.895 113.57 960.988 114.316C960.828 114.423 960.642 114.556 960.428 114.716C960.268 114.876 960.082 115.036 959.868 115.196C959.708 115.356 959.522 115.516 959.308 115.676C958.775 115.996 957.948 116.61 956.828 117.516C955.762 118.423 954.642 119.383 953.468 120.396C952.348 121.41 951.362 122.263 950.508 122.956C950.082 123.276 949.708 123.543 949.388 123.756C949.122 123.97 948.935 124.076 948.828 124.076C948.722 124.076 948.295 123.943 947.548 123.676C946.855 123.356 946.162 122.93 945.468 122.396C944.828 121.81 944.508 121.143 944.508 120.396C944.508 119.916 944.695 118.956 945.068 117.516C945.495 116.076 946.082 114.37 946.828 112.396C947.575 110.423 948.428 108.423 949.388 106.396C949.602 105.916 949.762 105.276 949.868 104.476C949.975 103.676 950.082 102.903 950.188 102.156C950.348 101.356 950.615 100.77 950.988 100.396C951.148 100.13 951.335 99.9428 951.548 99.8362C951.815 99.6762 952.082 99.5962 952.348 99.5962C952.882 99.5962 953.388 99.7295 953.868 99.9962C954.348 100.21 954.802 100.583 955.228 101.116C956.028 101.97 956.455 102.983 956.508 104.156C956.615 105.276 956.535 106.37 956.268 107.436C956.002 108.503 955.708 109.383 955.388 110.076C955.068 110.716 954.908 110.983 954.908 110.876C955.122 110.77 955.415 110.503 955.788 110.076C956.215 109.65 956.935 109.143 957.948 108.556C959.335 107.49 960.402 106.743 961.148 106.316C961.895 105.836 962.455 105.49 962.828 105.276C963.255 105.063 963.628 104.823 963.948 104.556C964.215 104.343 964.402 104.21 964.508 104.156C964.668 104.103 964.748 104.076 964.748 104.076C964.908 104.076 965.175 103.97 965.548 103.756C965.975 103.543 966.375 103.436 966.748 103.436C967.282 103.436 967.842 103.57 968.428 103.836C969.015 104.05 969.522 104.37 969.948 104.796C970.375 105.17 970.588 105.57 970.588 105.996C970.588 106.156 970.642 106.29 970.748 106.396C970.855 106.503 970.962 106.636 971.068 106.796C971.335 107.116 971.628 107.57 971.948 108.156C972.322 108.69 972.508 109.57 972.508 110.796C972.508 111.65 972.322 112.903 971.948 114.556C971.575 116.21 971.175 117.836 970.748 119.436C970.322 121.09 970.108 122.423 970.108 123.436C970.162 124.396 970.268 125.143 970.428 125.676C970.588 126.156 970.668 126.556 970.668 126.876C970.668 127.303 970.455 127.81 970.028 128.396C969.602 128.93 968.962 129.196 968.108 129.196Z" fill="#B8C318"/>
<path d="M1028.6 133.596C1027.75 133.65 1026.52 133.596 1024.92 133.436C1023.38 133.276 1021.72 132.876 1019.96 132.236C1018.26 131.596 1016.71 130.663 1015.32 129.436C1013.99 128.156 1013.11 126.45 1012.68 124.316C1012.04 121.33 1011.91 118.076 1012.28 114.556C1012.66 111.036 1013.3 107.57 1014.2 104.156C1014.47 103.196 1014.98 101.97 1015.72 100.476C1016.47 98.9295 1017.35 97.2762 1018.36 95.5162C1019.43 93.7562 1020.52 92.0495 1021.64 90.3962C1022.76 88.6895 1023.8 87.2228 1024.76 85.9962C1025.46 85.1962 1026.34 84.2895 1027.4 83.2762C1028.52 82.2095 1029.67 81.1962 1030.84 80.2362C1032.07 79.2228 1033.16 78.3695 1034.12 77.6762C1035.14 76.9295 1035.86 76.4762 1036.28 76.3162C1036.98 75.9962 1037.67 75.8095 1038.36 75.7562C1039.06 75.6495 1039.88 75.7295 1040.84 75.9962C1041.59 76.0495 1042.39 76.3162 1043.24 76.7962C1044.1 77.2228 1044.84 77.7029 1045.48 78.2362C1046.12 78.7695 1046.47 79.2762 1046.52 79.7562C1046.58 80.0762 1047.16 80.0495 1048.28 79.6762C1048.66 79.2495 1049.22 78.9295 1049.96 78.7162C1050.71 78.4495 1051.4 78.3162 1052.04 78.3162C1052.68 78.2628 1053.03 78.4228 1053.08 78.7962C1052.76 79.2762 1052.82 79.7029 1053.24 80.0762C1053.4 80.0229 1053.43 80.3962 1053.32 81.1962C1053.22 81.9962 1053.03 82.9295 1052.76 83.9962C1052.5 85.0095 1052.18 85.8095 1051.8 86.3962C1051.8 86.3962 1051.75 86.5295 1051.64 86.7962C1051.59 87.0629 1051.56 87.1962 1051.56 87.1962C1051.67 87.4628 1051.62 87.7295 1051.4 87.9962C1051.19 88.2628 1051 88.5028 1050.84 88.7162C1050.68 88.9828 1050.47 89.5428 1050.2 90.3962C1049.99 91.1962 1049.75 92.1295 1049.48 93.1962C1049.27 94.2095 1049.08 95.1428 1048.92 95.9962C1048.76 96.7962 1048.68 97.3295 1048.68 97.5962C1048.79 97.9695 1048.31 98.1829 1047.24 98.2362C1046.23 98.2362 1045.27 98.0762 1044.36 97.7562C1043.19 97.3295 1042.44 96.7695 1042.12 96.0762C1041.86 95.3828 1042.02 94.0229 1042.6 91.9962C1043.35 89.5428 1043.78 87.7295 1043.88 86.5562C1043.99 85.3829 1043.67 84.5028 1042.92 83.9162C1042.66 83.4362 1042.07 83.1428 1041.16 83.0362C1040.26 82.8762 1039.51 82.9828 1038.92 83.3562C1038.12 83.6762 1037.03 84.4229 1035.64 85.5962C1034.26 86.7162 1032.82 88.0495 1031.32 89.5962C1029.83 91.1429 1028.5 92.7428 1027.32 94.3962C1024.87 97.8095 1023 101.223 1021.72 104.636C1020.44 108.05 1019.72 111.33 1019.56 114.476C1019.4 117.623 1019.78 120.583 1020.68 123.356C1020.79 123.57 1021.11 124.023 1021.64 124.716C1022.18 125.41 1022.6 125.863 1022.92 126.076C1024.58 126.45 1026.95 126.476 1030.04 126.156C1032.34 125.73 1034.02 125.09 1035.08 124.236C1036.2 123.383 1037.27 122.21 1038.28 120.716C1038.87 119.863 1039.51 119.516 1040.2 119.676C1040.9 119.783 1041.51 120.21 1042.04 120.956C1042.58 121.65 1042.9 122.476 1043 123.436C1043 123.703 1042.76 124.263 1042.28 125.116C1041.86 125.916 1041.35 126.69 1040.76 127.436C1040.23 128.183 1039.8 128.61 1039.48 128.716C1039.27 128.77 1039.14 128.823 1039.08 128.876C1039.08 128.93 1039.11 129.09 1039.16 129.356C1039.16 129.57 1038.82 129.89 1038.12 130.316C1037.43 130.743 1036.55 131.17 1035.48 131.596C1034.42 132.076 1033.27 132.476 1032.04 132.796C1030.82 133.17 1029.67 133.436 1028.6 133.596Z" fill="#B8C318"/>
<path d="M1059.58 128.316C1059.21 128.316 1058.7 128.05 1058.06 127.516C1057.47 126.983 1057.13 126.503 1057.02 126.076C1056.86 125.65 1056.86 125.036 1057.02 124.236C1057.23 123.383 1057.53 122.396 1057.9 121.276C1058.33 119.516 1058.62 118.236 1058.78 117.436C1058.94 116.636 1059.1 115.943 1059.26 115.356C1059.42 114.77 1059.63 113.916 1059.9 112.796C1060.22 112.103 1060.46 111.436 1060.62 110.796C1060.83 110.103 1061.05 109.41 1061.26 108.716C1061.53 108.023 1061.82 107.33 1062.14 106.636C1062.51 105.25 1062.97 103.943 1063.5 102.716C1064.09 101.436 1064.65 100.37 1065.18 99.5162C1065.29 99.3562 1065.53 99.0629 1065.9 98.6362C1066.27 98.2095 1066.57 97.9962 1066.78 97.9962C1067.21 97.5695 1067.79 97.4362 1068.54 97.5962C1069.29 97.7029 1069.93 97.9695 1070.46 98.3962C1071.1 99.0895 1071.45 99.9162 1071.5 100.876C1071.61 101.783 1071.23 103.063 1070.38 104.716C1069.74 106.37 1069.13 107.676 1068.54 108.636C1068.01 109.543 1067.47 110.61 1066.94 111.836C1067.53 110.983 1068.25 110.103 1069.1 109.196C1069.95 108.29 1070.62 107.57 1071.1 107.036C1071.79 106.29 1072.43 105.703 1073.02 105.276C1073.66 104.796 1074.51 104.21 1075.58 103.516C1076.49 102.876 1077.39 102.29 1078.3 101.756C1079.26 101.223 1080.41 101.063 1081.74 101.276C1082.27 101.223 1082.83 101.49 1083.42 102.076C1084.06 102.663 1084.54 103.436 1084.86 104.396C1085.23 105.303 1085.23 106.29 1084.86 107.356C1083.63 107.09 1082.54 107.143 1081.58 107.516C1080.62 107.836 1079.79 108.236 1079.1 108.716C1078.46 109.196 1077.95 109.57 1077.58 109.836C1077.05 110.156 1076.43 110.583 1075.74 111.116C1075.05 111.596 1074.3 112.156 1073.5 112.796C1072.7 113.383 1071.85 114.05 1070.94 114.796C1069.66 115.863 1068.7 116.796 1068.06 117.596C1067.42 118.396 1066.91 119.25 1066.54 120.156C1066.22 120.956 1065.82 121.916 1065.34 123.036C1064.86 124.156 1064.41 125.17 1063.98 126.076C1063.55 126.93 1063.21 127.463 1062.94 127.676C1062.67 128.21 1062.11 128.503 1061.26 128.556C1060.46 128.61 1059.9 128.53 1059.58 128.316Z" fill="#B8C318"/>
<path d="M1097.77 128.796C1095.69 127.943 1094.25 126.556 1093.45 124.636C1092.65 122.716 1092.43 120.156 1092.81 116.956C1092.91 115.303 1092.86 114.21 1092.65 113.676C1092.43 113.09 1092.03 112.53 1091.45 111.996C1091.29 111.783 1090.91 111.436 1090.33 110.956C1089.74 110.423 1089.47 110.023 1089.53 109.756C1089.47 109.383 1089.55 108.93 1089.77 108.396C1089.98 107.81 1090.17 107.49 1090.33 107.436C1090.7 107.276 1091.07 107.09 1091.45 106.876C1091.87 106.663 1092.19 106.61 1092.41 106.716C1092.62 106.716 1092.94 106.85 1093.37 107.116C1093.85 107.383 1094.09 107.623 1094.09 107.836C1094.3 108.21 1094.62 108.05 1095.05 107.356C1095.53 106.663 1096.03 105.783 1096.57 104.716C1097.1 103.863 1097.77 103.063 1098.57 102.316C1099.37 101.57 1100.17 100.903 1100.97 100.316C1101.82 99.6762 1102.54 99.1962 1103.13 98.8762C1103.39 98.7695 1103.9 98.6095 1104.65 98.3962C1105.45 98.1828 1106.27 98.0229 1107.13 97.9162C1107.98 97.7562 1108.62 97.7028 1109.05 97.7562C1110.01 97.8095 1111.02 98.2095 1112.09 98.9562C1113.15 99.7028 1113.98 100.396 1114.57 101.036C1115.26 101.516 1115.71 102.263 1115.93 103.276C1116.19 104.236 1116.3 105.25 1116.25 106.316C1116.19 107.383 1115.98 108.29 1115.61 109.036C1115.45 109.57 1114.89 110.316 1113.93 111.276C1112.97 112.236 1111.9 113.17 1110.73 114.076C1109.61 114.93 1108.65 115.516 1107.85 115.836C1107.15 115.996 1106.33 116.13 1105.37 116.236C1104.41 116.29 1103.5 116.29 1102.65 116.236C1101.85 116.13 1101.29 115.996 1100.97 115.836C1100.59 115.623 1100.27 115.703 1100.01 116.076C1099.79 116.396 1099.61 117.303 1099.45 118.796C1099.39 119.383 1099.39 119.89 1099.45 120.316C1099.55 120.743 1099.66 121.063 1099.77 121.276C1100.14 121.916 1100.51 122.396 1100.89 122.716C1101.26 122.983 1101.95 123.063 1102.97 122.956C1103.98 122.85 1104.99 122.236 1106.01 121.116C1107.07 119.943 1108.03 119.01 1108.89 118.316C1109.1 117.943 1109.55 117.703 1110.25 117.596C1110.99 117.436 1111.87 117.49 1112.89 117.756C1113.47 118.13 1113.74 118.716 1113.69 119.516C1113.69 120.316 1113.26 121.49 1112.41 123.036C1112.25 123.41 1111.79 123.97 1111.05 124.716C1110.35 125.41 1109.58 126.13 1108.73 126.876C1107.93 127.57 1107.26 128.076 1106.73 128.396C1105.13 129.25 1103.55 129.65 1102.01 129.596C1100.46 129.543 1099.05 129.276 1097.77 128.796ZM1103.69 110.796C1104.49 110.583 1105.15 110.37 1105.69 110.156C1106.27 109.943 1106.83 109.596 1107.37 109.116C1107.9 108.636 1108.51 107.916 1109.21 106.956C1109.42 106.37 1109.53 105.863 1109.53 105.436C1109.58 105.01 1109.55 104.743 1109.45 104.636C1109.02 104.21 1108.54 104.076 1108.01 104.236C1107.53 104.343 1106.99 104.61 1106.41 105.036C1106.03 105.196 1105.5 105.543 1104.81 106.076C1104.17 106.556 1103.53 107.116 1102.89 107.756C1102.3 108.343 1101.82 108.903 1101.45 109.436C1101.13 109.916 1101.07 110.21 1101.29 110.316C1101.18 110.53 1101.47 110.663 1102.17 110.716C1102.91 110.77 1103.42 110.796 1103.69 110.796Z" fill="#B8C318"/>
<path d="M1147.45 131.036C1146.75 131.196 1146.06 131.01 1145.37 130.476C1144.73 129.996 1144.27 129.463 1144.01 128.876C1143.69 128.023 1143.47 127.223 1143.37 126.476C1143.31 125.676 1143.26 124.77 1143.21 123.756L1143.13 121.036L1139.85 123.996C1138.03 125.703 1136.33 126.93 1134.73 127.676C1133.18 128.37 1131.77 128.716 1130.49 128.716C1129.9 128.61 1129.18 128.236 1128.33 127.596C1127.53 126.903 1126.78 126.156 1126.09 125.356C1125.45 124.503 1124.99 123.81 1124.73 123.276C1124.41 122.53 1124.3 121.49 1124.41 120.156C1124.57 118.823 1124.89 117.356 1125.37 115.756C1125.9 114.156 1126.54 112.583 1127.29 111.036C1128.09 109.49 1128.99 108.156 1130.01 107.036C1131.77 104.37 1133.95 102.716 1136.57 102.076C1139.18 101.383 1141.5 101.596 1143.53 102.716C1144.49 103.196 1145.18 103.383 1145.61 103.276C1146.03 103.17 1146.3 102.823 1146.41 102.236C1146.62 101.383 1146.86 100.583 1147.13 99.8362C1147.39 99.0895 1147.77 97.9695 1148.25 96.4762C1149.58 92.4228 1150.73 89.2495 1151.69 86.9562C1152.7 84.6628 1153.61 82.6628 1154.41 80.9562C1154.99 79.7295 1155.58 78.8762 1156.17 78.3962C1156.75 77.9162 1157.26 77.7029 1157.69 77.7562C1158.27 77.7562 1158.99 77.9695 1159.85 78.3962C1160.75 78.8228 1161.34 79.4095 1161.61 80.1562C1161.82 80.6362 1161.9 81.1428 1161.85 81.6762C1161.85 82.2095 1161.69 82.7695 1161.37 83.3562C1160.67 84.6362 1159.85 86.3428 1158.89 88.4762C1157.98 90.5562 1157.05 92.8495 1156.09 95.3562C1155.18 97.8628 1154.33 100.343 1153.53 102.796C1152.73 105.25 1152.06 107.41 1151.53 109.276C1151.21 110.45 1150.94 111.943 1150.73 113.756C1150.57 115.57 1150.43 117.436 1150.33 119.356C1150.27 121.223 1150.27 122.903 1150.33 124.396C1150.38 125.836 1150.46 126.77 1150.57 127.196C1150.89 128.263 1150.89 129.063 1150.57 129.596C1150.25 130.13 1149.79 130.476 1149.21 130.636C1148.62 130.85 1148.03 130.983 1147.45 131.036ZM1134.25 121.356C1134.99 121.09 1135.66 120.77 1136.25 120.396C1136.83 120.023 1137.53 119.543 1138.33 118.956C1139.93 117.73 1141.07 116.663 1141.77 115.756C1142.51 114.85 1143.1 113.73 1143.53 112.396C1143.79 111.596 1143.79 110.903 1143.53 110.316C1143.31 109.73 1142.91 109.17 1142.33 108.636C1141.74 108.156 1140.99 107.97 1140.09 108.076C1139.18 108.13 1138.14 108.69 1136.97 109.756C1135.69 110.93 1134.59 112.29 1133.69 113.836C1132.78 115.383 1132.03 117.596 1131.45 120.476C1131.34 121.01 1131.53 121.383 1132.01 121.596C1132.49 121.81 1133.23 121.73 1134.25 121.356Z" fill="#B8C318"/>
<path d="M1164.35 128.156C1163.93 127.73 1163.61 127.09 1163.39 126.236C1163.23 125.383 1163.18 124.556 1163.23 123.756C1163.29 122.903 1163.42 122.263 1163.63 121.836C1163.63 121.41 1163.69 121.09 1163.79 120.876C1163.95 120.61 1164.01 120.37 1163.95 120.156C1163.9 119.943 1163.95 119.57 1164.11 119.036C1164.27 118.503 1164.43 117.996 1164.59 117.516C1164.97 116.663 1165.39 115.57 1165.87 114.236C1166.35 112.85 1166.83 111.463 1167.31 110.076C1167.79 108.636 1168.19 107.41 1168.51 106.396C1168.83 105.33 1169.02 104.69 1169.07 104.476C1169.07 103.836 1169.5 103.49 1170.35 103.436C1170.99 103.223 1171.77 103.49 1172.67 104.236C1173.58 104.983 1174.3 105.783 1174.83 106.636C1175.26 107.063 1175.42 107.623 1175.31 108.316C1175.21 109.01 1174.86 109.996 1174.27 111.276C1174.06 111.703 1173.79 112.423 1173.47 113.436C1173.21 114.396 1173.02 115.196 1172.91 115.836C1172.7 116.263 1172.43 116.876 1172.11 117.676C1171.85 118.423 1171.61 119.143 1171.39 119.836C1171.29 120.103 1171.18 120.61 1171.07 121.356C1170.97 122.05 1170.83 122.77 1170.67 123.516C1170.51 124.263 1170.3 124.85 1170.03 125.276C1169.55 127.463 1168.7 128.743 1167.47 129.116C1166.3 129.49 1165.26 129.17 1164.35 128.156ZM1172.99 96.0762C1172.41 95.6495 1171.95 95.1428 1171.63 94.5562C1171.37 93.9162 1171.21 93.3562 1171.15 92.8762C1171.15 92.3962 1171.21 92.1029 1171.31 91.9962C1171.85 91.4095 1172.3 90.6362 1172.67 89.6762C1173.1 88.7162 1173.55 87.8362 1174.03 87.0362C1174.14 86.8762 1174.27 86.6628 1174.43 86.3962C1174.65 86.0762 1174.86 85.8895 1175.07 85.8362C1175.71 85.4095 1176.59 85.4362 1177.71 85.9162C1178.89 86.3962 1179.74 87.0628 1180.27 87.9162C1180.75 88.9295 1180.89 89.9695 1180.67 91.0362C1180.51 92.1028 1179.95 93.2228 1178.99 94.3962C1178.19 95.4628 1177.18 96.1562 1175.95 96.4762C1174.73 96.7428 1173.74 96.6095 1172.99 96.0762Z" fill="#B8C318"/>
<path d="M1196.62 129.996C1195.87 129.783 1195.12 129.41 1194.38 128.876C1193.63 128.343 1192.86 127.73 1192.06 127.036C1191.42 126.183 1190.96 125.41 1190.7 124.716C1190.43 123.97 1190.27 123.116 1190.22 122.156C1190.22 121.143 1190.22 119.863 1190.22 118.316C1190.22 117.676 1190.32 116.77 1190.54 115.596C1190.8 114.423 1191.07 113.196 1191.34 111.916C1191.66 110.636 1191.95 109.516 1192.22 108.556C1192.48 107.543 1192.64 106.876 1192.7 106.556C1192.86 105.863 1192.59 105.463 1191.9 105.356C1191.2 105.25 1190.43 105.223 1189.58 105.276C1188.78 105.276 1188.24 105.196 1187.98 105.036C1187.76 104.983 1187.66 104.716 1187.66 104.236C1187.66 103.703 1187.66 103.436 1187.66 103.436C1187.66 103.223 1187.55 103.09 1187.34 103.036C1187.12 102.93 1186.94 102.743 1186.78 102.476C1186.67 102.263 1186.8 101.863 1187.18 101.276C1187.55 100.69 1188.03 100.343 1188.62 100.236C1189.1 100.13 1189.82 100.05 1190.78 99.9962C1191.74 99.8895 1192.7 99.7029 1193.66 99.4362C1194.67 99.1162 1195.44 98.6362 1195.98 97.9962C1196.46 96.8228 1196.99 95.5695 1197.58 94.2362C1198.16 92.8495 1198.72 91.6495 1199.26 90.6362C1199.79 89.5695 1200.16 88.9028 1200.38 88.6362C1201.28 88.1562 1202.22 87.9695 1203.18 88.0762C1204.14 88.1295 1204.88 88.5828 1205.42 89.4362C1205.68 89.8095 1205.9 90.0762 1206.06 90.2362C1206.27 90.3962 1206.35 90.6362 1206.3 90.9562C1206.3 91.2762 1206.08 91.8628 1205.66 92.7162C1205.28 93.5162 1204.64 94.7695 1203.74 96.4762C1203.47 97.0095 1203.23 97.4895 1203.02 97.9162C1202.8 98.2895 1202.7 98.4762 1202.7 98.4762C1202.91 98.5295 1203.23 98.5562 1203.66 98.5562C1204.08 98.5562 1204.62 98.5295 1205.26 98.4762C1205.84 98.3695 1206.48 98.2895 1207.18 98.2362C1207.87 98.1295 1208.48 98.1295 1209.02 98.2362C1210.24 98.2362 1211.15 98.5828 1211.74 99.2762C1212.32 99.9695 1212.64 100.85 1212.7 101.916C1212.8 102.503 1212.59 103.01 1212.06 103.436C1211.52 103.863 1210.54 104.076 1209.1 104.076C1208.62 104.076 1207.92 104.103 1207.02 104.156C1206.11 104.21 1205.18 104.263 1204.22 104.316C1203.26 104.37 1202.43 104.45 1201.74 104.556C1201.1 104.61 1200.78 104.69 1200.78 104.796C1200.62 104.903 1200.35 105.33 1199.98 106.076C1199.66 106.77 1199.31 107.623 1198.94 108.636C1198.62 109.65 1198.32 110.61 1198.06 111.516C1197.68 113.33 1197.42 115.09 1197.26 116.796C1197.1 118.503 1197.07 119.996 1197.18 121.276C1197.34 122.503 1197.66 123.383 1198.14 123.916C1198.62 124.396 1199.34 124.396 1200.3 123.916C1201.31 123.383 1202.24 122.77 1203.1 122.076C1204.06 121.276 1204.88 121.036 1205.58 121.356C1206.27 121.623 1206.7 122.21 1206.86 123.116C1207.07 123.97 1206.83 124.903 1206.14 125.916C1205.5 126.93 1204.59 127.783 1203.42 128.476C1202.24 129.17 1201.04 129.65 1199.82 129.916C1198.59 130.236 1197.52 130.263 1196.62 129.996Z" fill="#B8C318"/>
<path d="M1254.56 134.796C1253.76 134.476 1252.82 134.023 1251.76 133.436C1250.69 132.903 1249.68 132.183 1248.72 131.276C1247.76 130.37 1247.01 129.276 1246.48 127.996C1245.94 126.45 1245.57 124.93 1245.36 123.436C1245.2 121.943 1245.14 120.21 1245.2 118.236C1245.2 115.463 1245.38 113.063 1245.76 111.036C1246.18 108.956 1246.82 106.85 1247.68 104.716C1247.78 104.556 1247.97 104.103 1248.24 103.356C1248.56 102.556 1248.9 101.703 1249.28 100.796C1249.7 99.8895 1250.02 99.1962 1250.24 98.7162C1250.66 97.8095 1251.3 96.6095 1252.16 95.1162C1253.06 93.5695 1254.02 92.0762 1255.04 90.6362C1256.58 88.3428 1257.89 86.4762 1258.96 85.0362C1260.02 83.5428 1261.04 82.2895 1262 81.2762C1263.01 80.2628 1264.1 79.2762 1265.28 78.3162C1266.5 77.3562 1268.02 76.2628 1269.84 75.0362C1271.01 74.1828 1272.5 73.6495 1274.32 73.4362C1276.18 73.2228 1278 73.5162 1279.76 74.3162C1281.52 75.0628 1282.82 76.5028 1283.68 78.6362C1284.26 79.7562 1284.53 81.1695 1284.48 82.8762C1284.42 84.5295 1284.1 86.3162 1283.52 88.2362C1282.93 90.1029 1282.18 91.8628 1281.28 93.5162C1280.37 95.1695 1279.36 96.5028 1278.24 97.5162C1277.54 98.1562 1276.61 98.2628 1275.44 97.8362C1274.32 97.4095 1273.38 96.8495 1272.64 96.1562C1272.16 95.2495 1271.89 94.7162 1271.84 94.5562C1271.84 94.3962 1271.94 94.2895 1272.16 94.2362C1272.48 93.8628 1272.9 93.2228 1273.44 92.3162C1273.97 91.4095 1274.5 90.4495 1275.04 89.4362C1275.57 88.3695 1275.94 87.5162 1276.16 86.8762C1276.58 84.6362 1276.88 83.1695 1277.04 82.4762C1277.2 81.7295 1277.04 81.1162 1276.56 80.6362C1276.34 80.4229 1276.02 80.3428 1275.6 80.3962C1275.22 80.4495 1274.58 80.7162 1273.68 81.1962C1272.45 81.7295 1270.98 82.8228 1269.28 84.4762C1267.62 86.0762 1265.97 87.9962 1264.32 90.2362C1262.18 93.0629 1260.4 95.5695 1258.96 97.7562C1257.52 99.9428 1256.42 102.183 1255.68 104.476C1255.57 104.69 1255.38 105.09 1255.12 105.676C1254.9 106.263 1254.8 106.556 1254.8 106.556C1254.85 106.77 1254.77 107.303 1254.56 108.156C1254.34 108.956 1254.1 109.65 1253.84 110.236C1253.25 112.69 1252.9 115.063 1252.8 117.356C1252.69 119.596 1252.82 121.57 1253.2 123.276C1253.62 124.93 1254.24 126.156 1255.04 126.956C1255.73 127.436 1256.61 127.596 1257.68 127.436C1258.74 127.276 1259.97 126.903 1261.36 126.316C1262.74 125.73 1264.24 125.09 1265.84 124.396C1267.12 123.863 1268.29 123.276 1269.36 122.636C1270.42 121.996 1271.22 121.436 1271.76 120.956C1272.18 120.636 1272.72 120.316 1273.36 119.996C1274.05 119.623 1274.64 119.436 1275.12 119.436C1275.86 119.17 1276.42 119.383 1276.8 120.076C1277.17 120.77 1277.36 121.65 1277.36 122.716C1277.36 123.463 1276.82 124.37 1275.76 125.436C1274.69 126.503 1273.52 127.41 1272.24 128.156C1271.81 128.583 1271.22 128.983 1270.48 129.356C1269.78 129.676 1269.06 129.97 1268.32 130.236C1267.2 131.09 1265.81 131.916 1264.16 132.716C1262.5 133.516 1260.82 134.13 1259.12 134.556C1257.46 134.983 1255.94 135.063 1254.56 134.796Z" fill="#B8C318"/>
<path d="M1296.52 128.396C1296.09 128.503 1295.53 128.556 1294.84 128.556C1294.15 128.503 1293.53 128.423 1293 128.316C1292.52 128.156 1292.28 127.996 1292.28 127.836C1292.28 127.57 1292.15 127.436 1291.88 127.436C1291.88 127.436 1291.59 127.223 1291 126.796C1290.41 126.316 1289.88 125.97 1289.4 125.756C1288.92 125.01 1288.6 124.156 1288.44 123.196C1288.33 122.183 1288.65 120.423 1289.4 117.916C1289.45 116.21 1289.93 114.423 1290.84 112.556C1291.75 110.636 1292.89 108.77 1294.28 106.956C1295.67 105.143 1297.11 103.543 1298.6 102.156C1300.09 100.716 1301.43 99.6495 1302.6 98.9562C1303.35 98.2095 1304.33 97.8095 1305.56 97.7562C1306.84 97.7028 1307.96 97.9428 1308.92 98.4762C1309.45 98.7428 1310.04 99.2762 1310.68 100.076C1311.32 100.876 1311.93 101.73 1312.52 102.636C1313.11 103.49 1313.56 104.263 1313.88 104.956C1314.04 105.543 1314.17 106.076 1314.28 106.556C1314.44 106.983 1314.55 107.516 1314.6 108.156C1314.65 108.796 1314.6 109.756 1314.44 111.036C1314.17 111.996 1313.93 112.983 1313.72 113.996C1313.56 114.956 1313.48 115.943 1313.48 116.956C1313.37 117.97 1313.48 118.69 1313.8 119.116C1314.17 119.543 1314.71 119.57 1315.4 119.196C1316.04 118.876 1316.71 118.85 1317.4 119.116C1318.09 119.33 1318.57 119.756 1318.84 120.396C1319.16 120.983 1319.08 121.756 1318.6 122.716C1318.28 123.41 1317.77 124.076 1317.08 124.716C1316.39 125.356 1315.61 125.89 1314.76 126.316C1313.91 126.69 1313.08 126.876 1312.28 126.876C1311.69 126.876 1311.11 126.663 1310.52 126.236C1309.93 125.756 1309.4 125.116 1308.92 124.316C1308.44 123.516 1308.04 122.636 1307.72 121.676L1307.24 119.836L1304.36 122.476C1303.67 123.223 1302.97 123.916 1302.28 124.556C1301.64 125.143 1301.24 125.57 1301.08 125.836C1300.81 126.316 1300.28 126.743 1299.48 127.116C1298.73 127.49 1297.75 127.916 1296.52 128.396ZM1298.68 120.716C1299.59 120.183 1300.36 119.543 1301 118.796C1301.69 118.05 1302.36 117.223 1303 116.316C1303.64 115.356 1304.33 114.343 1305.08 113.276C1305.99 112.05 1306.63 111.063 1307 110.316C1307.43 109.57 1307.75 108.77 1307.96 107.916C1307.75 107.33 1307.45 106.716 1307.08 106.076C1306.71 105.383 1306.33 105.01 1305.96 104.956C1305.21 104.956 1304.31 105.41 1303.24 106.316C1302.23 107.223 1301.11 108.53 1299.88 110.236C1299.67 110.503 1299.4 110.93 1299.08 111.516C1298.76 112.103 1298.44 112.663 1298.12 113.196C1297.85 113.676 1297.67 113.996 1297.56 114.156C1297.4 114.37 1297.16 114.876 1296.84 115.676C1296.57 116.423 1296.33 117.196 1296.12 117.996C1295.91 118.743 1295.8 119.276 1295.8 119.596C1295.8 119.916 1295.83 120.263 1295.88 120.636C1295.99 121.01 1296.25 121.25 1296.68 121.356C1297.11 121.463 1297.77 121.25 1298.68 120.716Z" fill="#B8C318"/>
<path d="M1331.01 128.316C1330.64 128.316 1330.13 128.05 1329.49 127.516C1328.91 126.983 1328.56 126.503 1328.45 126.076C1328.29 125.65 1328.29 125.036 1328.45 124.236C1328.67 123.383 1328.96 122.396 1329.33 121.276C1329.76 119.516 1330.05 118.236 1330.21 117.436C1330.37 116.636 1330.53 115.943 1330.69 115.356C1330.85 114.77 1331.07 113.916 1331.33 112.796C1331.65 112.103 1331.89 111.436 1332.05 110.796C1332.27 110.103 1332.48 109.41 1332.69 108.716C1332.96 108.023 1333.25 107.33 1333.57 106.636C1333.95 105.25 1334.4 103.943 1334.93 102.716C1335.52 101.436 1336.08 100.37 1336.61 99.5162C1336.72 99.3562 1336.96 99.0629 1337.33 98.6362C1337.71 98.2095 1338 97.9962 1338.21 97.9962C1338.64 97.5695 1339.23 97.4362 1339.97 97.5962C1340.72 97.7029 1341.36 97.9695 1341.89 98.3962C1342.53 99.0895 1342.88 99.9162 1342.93 100.876C1343.04 101.783 1342.67 103.063 1341.81 104.716C1341.17 106.37 1340.56 107.676 1339.97 108.636C1339.44 109.543 1338.91 110.61 1338.37 111.836C1338.96 110.983 1339.68 110.103 1340.53 109.196C1341.39 108.29 1342.05 107.57 1342.53 107.036C1343.23 106.29 1343.87 105.703 1344.45 105.276C1345.09 104.796 1345.95 104.21 1347.01 103.516C1347.92 102.876 1348.83 102.29 1349.73 101.756C1350.69 101.223 1351.84 101.063 1353.17 101.276C1353.71 101.223 1354.27 101.49 1354.85 102.076C1355.49 102.663 1355.97 103.436 1356.29 104.396C1356.67 105.303 1356.67 106.29 1356.29 107.356C1355.07 107.09 1353.97 107.143 1353.01 107.516C1352.05 107.836 1351.23 108.236 1350.53 108.716C1349.89 109.196 1349.39 109.57 1349.01 109.836C1348.48 110.156 1347.87 110.583 1347.17 111.116C1346.48 111.596 1345.73 112.156 1344.93 112.796C1344.13 113.383 1343.28 114.05 1342.37 114.796C1341.09 115.863 1340.13 116.796 1339.49 117.596C1338.85 118.396 1338.35 119.25 1337.97 120.156C1337.65 120.956 1337.25 121.916 1336.77 123.036C1336.29 124.156 1335.84 125.17 1335.41 126.076C1334.99 126.93 1334.64 127.463 1334.37 127.676C1334.11 128.21 1333.55 128.503 1332.69 128.556C1331.89 128.61 1331.33 128.53 1331.01 128.316Z" fill="#B8C318"/>
<path d="M1385.76 131.036C1385.07 131.196 1384.37 131.01 1383.68 130.476C1383.04 129.996 1382.59 129.463 1382.32 128.876C1382 128.023 1381.79 127.223 1381.68 126.476C1381.63 125.676 1381.57 124.77 1381.52 123.756L1381.44 121.036L1378.16 123.996C1376.35 125.703 1374.64 126.93 1373.04 127.676C1371.49 128.37 1370.08 128.716 1368.8 128.716C1368.21 128.61 1367.49 128.236 1366.64 127.596C1365.84 126.903 1365.09 126.156 1364.4 125.356C1363.76 124.503 1363.31 123.81 1363.04 123.276C1362.72 122.53 1362.61 121.49 1362.72 120.156C1362.88 118.823 1363.2 117.356 1363.68 115.756C1364.21 114.156 1364.85 112.583 1365.6 111.036C1366.4 109.49 1367.31 108.156 1368.32 107.036C1370.08 104.37 1372.27 102.716 1374.88 102.076C1377.49 101.383 1379.81 101.596 1381.84 102.716C1382.8 103.196 1383.49 103.383 1383.92 103.276C1384.35 103.17 1384.61 102.823 1384.72 102.236C1384.93 101.383 1385.17 100.583 1385.44 99.8362C1385.71 99.0895 1386.08 97.9695 1386.56 96.4762C1387.89 92.4228 1389.04 89.2495 1390 86.9562C1391.01 84.6628 1391.92 82.6628 1392.72 80.9562C1393.31 79.7295 1393.89 78.8762 1394.48 78.3962C1395.07 77.9162 1395.57 77.7029 1396 77.7562C1396.59 77.7562 1397.31 77.9695 1398.16 78.3962C1399.07 78.8228 1399.65 79.4095 1399.92 80.1562C1400.13 80.6362 1400.21 81.1428 1400.16 81.6762C1400.16 82.2095 1400 82.7695 1399.68 83.3562C1398.99 84.6362 1398.16 86.3428 1397.2 88.4762C1396.29 90.5562 1395.36 92.8495 1394.4 95.3562C1393.49 97.8628 1392.64 100.343 1391.84 102.796C1391.04 105.25 1390.37 107.41 1389.84 109.276C1389.52 110.45 1389.25 111.943 1389.04 113.756C1388.88 115.57 1388.75 117.436 1388.64 119.356C1388.59 121.223 1388.59 122.903 1388.64 124.396C1388.69 125.836 1388.77 126.77 1388.88 127.196C1389.2 128.263 1389.2 129.063 1388.88 129.596C1388.56 130.13 1388.11 130.476 1387.52 130.636C1386.93 130.85 1386.35 130.983 1385.76 131.036ZM1372.56 121.356C1373.31 121.09 1373.97 120.77 1374.56 120.396C1375.15 120.023 1375.84 119.543 1376.64 118.956C1378.24 117.73 1379.39 116.663 1380.08 115.756C1380.83 114.85 1381.41 113.73 1381.84 112.396C1382.11 111.596 1382.11 110.903 1381.84 110.316C1381.63 109.73 1381.23 109.17 1380.64 108.636C1380.05 108.156 1379.31 107.97 1378.4 108.076C1377.49 108.13 1376.45 108.69 1375.28 109.756C1374 110.93 1372.91 112.29 1372 113.836C1371.09 115.383 1370.35 117.596 1369.76 120.476C1369.65 121.01 1369.84 121.383 1370.32 121.596C1370.8 121.81 1371.55 121.73 1372.56 121.356Z" fill="#B8C318"/>
</svg>
