<svg width="228" height="59" viewBox="0 0 228 59" fill="none" xmlns="http://www.w3.org/2000/svg">
<path d="M82.82 10.36C83.28 10.36 83.52 10.62 83.52 11.04C83.52 11.5 83.28 11.76 82.82 11.76H80.46V17.46C80.46 19.68 78.58 20.4 75.1 19.12C74.7 18.98 74.54 18.74 74.6 18.38C74.68 18.02 74.92 17.86 75.34 17.9C77.7 18.18 77.92 17.96 77.92 16.8V11.76H66.8C66.32 11.76 66.08 11.5 66.08 11.04C66.08 10.62 66.32 10.36 66.8 10.36H79.12C77.86 9.68 76.24 9.04 74.38 8.48C73.2 9.56 71.44 10.16 69.12 10.28C68.74 10.3 68.52 10.14 68.5 9.82C68.48 9.52 68.58 9.32 68.96 9.22C70.98 8.76 72.12 8.1 72.82 7.14H69.88C69.46 7.14 69.22 6.88 69.22 6.46C69.22 6.04 69.46 5.8 69.88 5.8H73.48C73.54 5.58 73.6 5.36 73.64 5.14C73.72 4.82 73.82 4.6 73.98 4.44H69.06C68.92 4.44 68.82 4.54 68.82 4.68V6.16C68.82 6.86 68.4 7.24 67.62 7.24C66.86 7.24 66.44 6.86 66.44 6.16V4.18C66.44 3.42 66.86 3 67.6 3H73.46V1.98C73.46 1.22 73.94 0.779999 74.8 0.779999C75.66 0.779999 76.14 1.22 76.14 1.98V3H82C82.76 3 83.16 3.42 83.16 4.18V6.1C83.16 6.8 82.74 7.18 81.98 7.18C81.2 7.18 80.78 6.8 80.78 6.1V4.68C80.78 4.54 80.68 4.44 80.54 4.44H75.7C75.98 4.66 76.1 5.02 76 5.54L75.94 5.8H79.7C80.14 5.8 80.38 6.04 80.38 6.46C80.38 6.9 80.14 7.14 79.7 7.14H75.44C75.36 7.28 75.3 7.4 75.22 7.52C77.02 7.72 78.62 8.1 79.98 8.64C80.62 8.9 80.84 9.34 80.6 9.92C80.52 10.1 80.4 10.26 80.26 10.36H82.82ZM76.44 15.9C76.44 16.64 76.02 17.06 75.28 17.06H69.86C69.12 17.06 68.7 16.64 68.7 15.9V13.78C68.7 13.04 69.12 12.62 69.86 12.62H75.28C76.02 12.62 76.44 13.04 76.44 13.78V15.9ZM74.12 15.48V14.18C74.12 14.04 74.02 13.94 73.88 13.94H71.28C71.14 13.94 71.04 14.04 71.04 14.18V15.48C71.04 15.62 71.14 15.72 71.28 15.72H73.88C74.02 15.72 74.12 15.62 74.12 15.48ZM93.64 10.42C93.18 10.42 92.9 10.14 92.9 9.68C92.9 9.22 93.18 8.98 93.64 8.98H97.24C97.32 8.26 97.34 7.46 97.34 6.56H94.42C93.96 6.56 93.68 6.28 93.68 5.82C93.68 5.36 93.96 5.12 94.42 5.12H96.36C96.2 5 96.04 4.82 95.92 4.58C95.5 3.72 94.96 2.86 94.46 2.14C94.22 1.8 94.24 1.5 94.52 1.26C94.78 1.02 95.06 1.06 95.4 1.28C96.18 1.8 97.04 2.56 97.68 3.4C98.18 4.04 98.12 4.6 97.5 5.04L97.38 5.12H99.24C99.66 4.22 100.08 3.04 100.38 1.92C100.62 1.04 101.22 0.819999 101.98 1.1C102.72 1.38 102.9 2.04 102.44 2.88C102 3.7 101.44 4.48 100.86 5.12H103.26C103.72 5.12 103.98 5.36 103.98 5.82C103.98 6.28 103.72 6.56 103.26 6.56H99.96C99.96 7.44 99.92 8.24 99.82 8.98H104.12C104.58 8.98 104.84 9.22 104.84 9.68C104.84 10.14 104.58 10.42 104.12 10.42H99.54C99.48 10.66 99.42 10.88 99.34 11.1C100.8 11.64 102.46 12.52 103.88 13.62C104.58 14.18 104.7 14.86 104.16 15.5C103.6 16.16 102.86 16.14 102.24 15.44C101.18 14.2 99.96 13.1 98.86 12.24C97.94 14 96.4 15.24 94.06 16.12C93.64 16.28 93.36 16.16 93.22 15.84C93.08 15.5 93.16 15.24 93.52 15C95.46 13.78 96.52 12.54 97.02 10.42H93.64ZM91 4.2C90.4 3.48 89.72 2.78 89.1 2.18C88.84 1.9 88.76 1.62 88.96 1.32C89.16 1.04 89.44 1.02 89.78 1.14C90.62 1.46 91.64 2 92.46 2.66C93.12 3.16 93.2 3.76 92.68 4.34C92.16 4.9 91.56 4.86 91 4.2ZM88.14 6.26C87.86 6 87.82 5.68 88 5.38C88.18 5.1 88.5 5.08 88.84 5.22C89.68 5.54 90.76 6.16 91.6 6.8C92.28 7.26 92.38 7.94 91.84 8.52C91.32 9.1 90.64 9.08 90.12 8.4C89.54 7.64 88.78 6.86 88.14 6.26ZM105.52 17.74C105.54 18.62 105.18 19.12 104.12 19.18C101.92 19.3 99.74 19.3 97.4 19.18C94.6 19.04 92.56 18.44 91.62 16.66C91.54 16.5 91.42 16.5 91.36 16.64C90.9 17.54 90.24 18.46 89.5 19.24C88.92 19.86 88.18 20.06 87.62 19.46C87.06 18.84 87.18 18.18 87.84 17.64C88.54 17.08 89.38 16.32 89.88 15.7V11.74C89.88 11.6 89.78 11.5 89.64 11.5H88.02C87.58 11.5 87.32 11.22 87.32 10.78C87.32 10.34 87.58 10.08 88.02 10.08H91.24C92 10.08 92.42 10.5 92.42 11.24V15.42C93.2 16.76 94.62 16.98 97.16 17C99.54 17 101.78 16.88 104 16.62C104.92 16.52 105.48 16.9 105.52 17.74ZM126.84 14.14C127.58 18.86 126.68 20.24 124.52 19.64C122.94 19.22 121.74 18.1 120.82 16.44C119.24 17.78 117.32 18.84 115.04 19.46C114.6 19.58 114.32 19.46 114.2 19.1C114.06 18.72 114.2 18.42 114.6 18.24C116.86 17.2 118.6 15.96 119.98 14.46C119.24 12.28 118.82 9.5 118.68 6.34H113.32C113.18 6.34 113.08 6.44 113.08 6.58V8.88H116.68C117.44 8.88 117.88 9.3 117.86 10.12C117.84 12.22 117.78 13.54 117.64 14.74C117.46 16.38 115.66 17.08 113.18 15.9C112.88 15.74 112.78 15.48 112.86 15.12C112.94 14.8 113.18 14.66 113.58 14.72C115 14.9 115.28 14.82 115.34 14.2C115.44 13.32 115.46 12.18 115.48 10.64C115.48 10.48 115.38 10.4 115.24 10.4H113.08C113.02 14.7 112.26 17.76 110.1 19.56C109.78 19.82 109.44 19.88 109.14 19.58C108.86 19.32 108.86 19.02 109.06 18.66C110.18 16.72 110.54 15.14 110.54 9.82V6.08C110.54 5.28 111 4.76 111.82 4.76H118.64C118.62 3.92 118.6 3.02 118.6 2.12C118.62 1.34 119.08 0.98 119.88 0.98C120.68 0.98 121.1 1.32 121.1 2.12C121.1 3.02 121.1 3.96 121.12 4.76H124.04C123.88 4.66 123.72 4.5 123.6 4.28C123.04 3.44 122.5 2.6 122.02 1.96C121.78 1.66 121.82 1.36 122.08 1.1C122.32 0.859999 122.62 0.9 122.94 1.08C123.76 1.58 124.54 2.2 125.28 2.96C125.84 3.52 125.82 4.18 125.24 4.64L125.06 4.76H126.26C126.74 4.76 127 5.06 127 5.54C127 6.04 126.74 6.34 126.26 6.34H121.18C121.28 8.46 121.5 10.32 121.84 11.9C122.48 10.78 123 9.56 123.46 8.2C123.72 7.42 124.38 7.18 125.14 7.48C125.9 7.78 126.12 8.36 125.8 9.18C125.06 11.1 124.04 12.96 122.68 14.58C123.2 15.78 123.88 16.62 124.7 17C125.26 17.26 125.52 16.94 125.52 14.14C125.52 13.68 125.76 13.46 126.1 13.46C126.48 13.44 126.76 13.62 126.84 14.14ZM146.72 5.56C147.46 5.56 147.9 6 147.88 6.78C147.74 12.14 147.52 15.36 147.32 17.4C147.12 19.6 144.92 20.26 141.22 18.7C140.86 18.56 140.76 18.24 140.86 17.92C140.94 17.58 141.2 17.46 141.6 17.52C144.42 17.88 144.74 17.68 144.84 16.7C145.02 14.76 145.2 11.7 145.3 7.24C145.3 7.08 145.2 7 145.06 7H142.98C142.54 13.42 141.1 16.96 136.52 19.74C136.14 19.98 135.8 19.9 135.6 19.58C135.38 19.22 135.44 18.92 135.78 18.62C138.98 15.94 140.14 12.7 140.46 7H138.04C137.56 7 137.3 6.72 137.3 6.28C137.3 5.82 137.56 5.56 138.04 5.56H140.54C140.56 4.52 140.58 3.42 140.58 2.22C140.58 1.42 141.04 1 141.86 1C142.7 1 143.16 1.42 143.14 2.22C143.12 3.4 143.1 4.52 143.06 5.56H146.72ZM139.08 11.98C139.26 12.28 139.18 12.64 138.84 12.88C137.18 14.04 134.82 15.26 132.24 16.1C131.52 16.34 130.76 16.08 130.56 15.14C130.4 14.3 130.78 13.72 131.58 13.58C132.28 13.44 132.98 13.3 133.66 13.14V4.88H131.58C131.1 4.88 130.84 4.62 130.84 4.14C130.84 3.68 131.1 3.42 131.58 3.42H138.4C138.88 3.42 139.14 3.68 139.14 4.14C139.14 4.62 138.88 4.88 138.4 4.88H136.28V12.44C136.96 12.24 137.6 12 138.24 11.76C138.62 11.6 138.92 11.7 139.08 11.98ZM161.16 13.6C160.54 13.6 160.12 13.24 160.08 12.6L159.6 4.52C159.52 3.4 160.08 2.8 161.16 2.8C162.26 2.8 162.8 3.4 162.72 4.52L162.22 12.6C162.18 13.24 161.8 13.6 161.16 13.6ZM161.18 18.56C160.22 18.56 159.42 17.78 159.42 16.84C159.42 15.92 160.22 15.18 161.18 15.18C162.1 15.18 162.9 15.92 162.9 16.84C162.9 17.78 162.1 18.56 161.18 18.56ZM4.96 56.88C4.58 56.74 4.44 56.44 4.54 56.06C4.64 55.72 4.88 55.56 5.34 55.62C8.52 56 8.88 55.76 8.88 54.66V40.34C8.88 39.48 9.34 39.06 10.22 39.06C11.1 39.06 11.58 39.48 11.58 40.34V55.26C11.58 57.66 9.32 58.68 4.96 56.88ZM18.06 53.5C17.14 53.82 16.44 53.46 16.2 52.54C15.42 49.64 14.46 46.82 13.54 44.64C13.36 44.2 13.46 43.9 13.82 43.68C14.16 43.48 14.56 43.54 14.8 43.9C16.22 45.88 17.92 48.78 18.92 51.54C19.28 52.5 18.98 53.18 18.06 53.5ZM2.14 53.72C1.8 54.02 1.42 54.08 1.14 53.8C0.84 53.52 0.82 53.2 1.06 52.82C2.38 50.74 3.42 48.14 4.04 44.8C4.2 43.94 4.8 43.58 5.66 43.76C6.52 43.94 6.82 44.58 6.64 45.36C5.86 48.64 4 52 2.14 53.72ZM40.36 46.04C41.06 46.66 41 47.3 40.56 47.84C40.04 48.48 39.36 48.56 38.7 47.96C38.76 48.12 38.8 48.3 38.8 48.52C38.76 50.92 38.62 53.64 38.4 55.66C38.18 57.76 36.42 58.34 33.5 56.92C33.12 56.72 33 56.44 33.12 56.1C33.22 55.78 33.46 55.64 33.86 55.72C35.76 56.08 36.04 55.9 36.14 54.94C36.3 53.38 36.42 50.92 36.42 49C36.42 48.84 36.32 48.76 36.18 48.76H34.68C34.42 52.58 33 56.14 29.64 57.66C29.28 57.82 28.94 57.76 28.76 57.44C28.6 57.16 28.66 56.86 28.96 56.6C31.12 54.82 32.12 52.48 32.28 48.76H31.62C31.14 48.76 30.88 48.48 30.88 48.04V47.98C30.68 48.22 30.46 48.42 30.24 48.62C29.9 48.88 29.6 48.9 29.36 48.66C29.1 48.42 29.08 48.16 29.32 47.82C29.44 47.64 29.56 47.46 29.66 47.28C29.56 47.34 29.44 47.36 29.28 47.36H27.84V48.04C28.72 48.8 29.68 49.84 30.26 50.74C30.64 51.32 30.58 51.78 30.04 52.16C29.48 52.54 28.9 52.42 28.62 51.72C28.38 51.14 28.12 50.54 27.84 49.98V56.76C27.84 57.44 27.42 57.8 26.66 57.8C25.9 57.8 25.5 57.44 25.5 56.76V51.4C25.02 52.56 24.36 53.72 23.58 54.52C23.28 54.84 23 54.86 22.76 54.64C22.5 54.42 22.46 54.16 22.68 53.82C23.72 52.2 24.64 49.74 25.08 47.36H23.54C23.08 47.36 22.82 47.1 22.82 46.64C22.82 46.2 23.08 45.96 23.54 45.96H25.5V40.16C25.5 39.46 25.9 39.1 26.66 39.1C27.42 39.1 27.84 39.46 27.84 40.16V45.96H29.28C29.74 45.96 29.98 46.2 29.98 46.64V46.68C30.62 45.36 31 43.8 31.22 42.22C31.34 41.36 31.84 41.12 32.56 41.24C33.3 41.36 33.58 41.84 33.44 42.62C33.22 44.12 32.44 45.94 31.38 47.36C31.46 47.34 31.54 47.34 31.62 47.34H37.66C37.88 47.34 38.06 47.38 38.2 47.44C36.96 45.94 36.08 43.38 35.98 41.22C35.98 41.06 35.88 40.98 35.74 40.98H33.38C32.88 40.98 32.64 40.72 32.64 40.24C32.64 39.76 32.92 39.5 33.38 39.5H36C36.7 39.5 37.16 39.86 37.28 40.56C37.64 42.58 38.62 44.52 40.36 46.04ZM28.26 45.34C27.98 45.2 27.88 44.96 27.98 44.6C28.26 43.72 28.5 42.66 28.66 41.48C28.78 40.8 29.2 40.54 29.84 40.68C30.48 40.84 30.66 41.3 30.46 41.98C30.1 43.12 29.62 44.2 29 45.1C28.78 45.42 28.54 45.46 28.26 45.34ZM23.54 44.66C23.38 43.54 23.2 42.44 22.96 41.4C22.86 41.02 23 40.78 23.3 40.68C23.6 40.56 23.86 40.7 24.06 41.02C24.62 41.94 25.1 43.12 25.34 44.32C25.46 44.94 25.26 45.3 24.62 45.44C24.02 45.56 23.64 45.34 23.54 44.66ZM53.14 49.68C53.9 49.68 54.32 50.1 54.32 50.84V56.38C54.32 56.9 54 57.16 53.48 57.16C52.94 57.16 52.64 56.88 52.64 56.38V55.72H51.64V56.78C51.64 57.36 51.3 57.68 50.68 57.68C50.08 57.68 49.74 57.36 49.74 56.78V43.32C49.74 42.56 50.16 42.14 50.9 42.14H51.24C51.32 41.48 51.36 40.84 51.38 40.12C51.42 39.38 51.84 39.04 52.56 39.14C53.26 39.24 53.54 39.8 53.2 40.62C53.04 41.14 52.8 41.68 52.56 42.14H53.08C53.82 42.14 54.24 42.56 54.24 43.32V46.84C54.24 47.6 53.82 48.02 53.08 48.02H51.64V49.68H53.14ZM49.76 40.94C49.36 41.92 48.82 42.9 48.14 43.8C48.98 45.96 49.3 48.5 49.3 51.4C49.3 54.8 48.62 57.64 46.8 57.64C45.96 57.64 45.14 57.4 44.28 56.48C44.04 56.2 43.98 55.9 44.18 55.6C44.38 55.34 44.66 55.3 45.02 55.48C45.52 55.74 45.96 55.84 46.28 55.8C47.18 55.68 47.42 53.78 47.34 50.76C46.74 51.64 46.02 52.4 45.14 53C44.82 53.24 44.5 53.22 44.28 52.94C44.06 52.66 44.08 52.38 44.34 52.06C45.36 50.86 46.36 49.46 47.14 47.48C47.06 46.72 46.92 46.04 46.76 45.38C46.2 45.92 45.58 46.4 44.92 46.82C44.58 47.04 44.3 46.98 44.12 46.7C43.94 46.4 43.96 46.14 44.24 45.86C44.96 45.18 45.58 44.4 46.14 43.52C45.72 42.58 45.18 41.62 44.48 40.58C44.26 40.26 44.26 39.98 44.52 39.72C44.76 39.46 45.04 39.46 45.36 39.74C46.04 40.32 46.6 41 47.08 41.72C47.32 41.2 47.54 40.62 47.74 40.02C48 39.24 48.54 39.02 49.24 39.26C49.94 39.5 50.14 40.1 49.76 40.94ZM61.48 41.34H59.26V43.68H60.4C61.14 43.68 61.56 44.1 61.56 44.84V53.24C61.56 54.68 60.52 55.2 59.1 54.72V56.92C59.1 57.5 58.74 57.84 58.12 57.84C57.5 57.84 57.14 57.5 57.14 56.92V45.06H56.68C56.54 45.06 56.46 45.14 56.46 45.28V54.62C56.46 55.12 56.16 55.4 55.62 55.4C55.08 55.4 54.78 55.12 54.78 54.62V44.84C54.78 44.08 55.2 43.68 55.94 43.68H56.96V41.34H54.86C54.42 41.34 54.16 41.1 54.16 40.66C54.16 40.22 54.42 39.96 54.86 39.96H61.48C61.94 39.96 62.18 40.22 62.18 40.66C62.18 41.1 61.94 41.34 61.48 41.34ZM52.54 46.42V43.78C52.54 43.64 52.46 43.56 52.32 43.56H51.86C51.72 43.56 51.64 43.64 51.64 43.78V46.64H52.32C52.46 46.64 52.54 46.54 52.54 46.42ZM59.62 45.06H59.1V53.52C59.68 53.56 59.84 53.44 59.84 53.02V45.28C59.84 45.14 59.74 45.06 59.62 45.06ZM51.64 54.34H52.64V51.26C52.64 51.12 52.54 51.04 52.42 51.04H51.64V54.34ZM69.14 50.82C68.38 50.82 67.98 50.42 67.98 49.66V41.04C67.98 40.26 68.38 39.82 69.14 39.82H81.68C82.16 39.82 82.42 40.1 82.42 40.56C82.42 41.04 82.16 41.34 81.68 41.34H76.76V43H81.04C81.5 43 81.78 43.26 81.78 43.74C81.78 44.2 81.5 44.46 81.04 44.46H76.76V46.06H81.04C81.52 46.06 81.78 46.34 81.78 46.8C81.78 47.26 81.52 47.52 81.04 47.52H76.76V49.28H82.04C82.84 49.28 83.24 49.72 83.22 50.56C83.14 52.38 83 54.34 82.78 55.74C82.38 58.24 79.96 58.26 77.24 57.04C76.78 56.82 76.74 56.42 76.86 56.08C76.98 55.74 77.28 55.6 77.7 55.68C79.94 56.08 80.28 55.96 80.42 54.94C80.56 53.88 80.7 52.28 80.72 51.08C80.72 50.92 80.64 50.82 80.48 50.82H69.14ZM70.5 43H74.24V41.34H70.74C70.6 41.34 70.5 41.44 70.5 41.58V43ZM70.5 46.06H74.24V44.46H70.5V46.06ZM70.5 49.04C70.5 49.18 70.6 49.28 70.74 49.28H74.24V47.52H70.5V49.04ZM79.36 54.8C78.76 55.16 78.22 55.04 77.9 54.3C77.56 53.52 77.18 52.72 76.82 52.06C76.64 51.7 76.72 51.42 76.98 51.24C77.28 51.04 77.56 51.04 77.84 51.28C78.46 51.78 79.12 52.58 79.64 53.34C80.04 53.94 79.94 54.46 79.36 54.8ZM76.18 55.88C75.5 56.16 74.94 55.92 74.74 55.14C74.48 54.2 74.12 53.12 73.78 52.2C73.66 51.86 73.8 51.58 74.12 51.42C74.42 51.26 74.74 51.3 74.98 51.6C75.62 52.34 76.28 53.46 76.72 54.38C77.06 55.1 76.86 55.62 76.18 55.88ZM72.7 57.06C71.92 57.24 71.36 56.94 71.26 56.1C71.12 54.94 70.92 53.5 70.72 52.34C70.66 51.96 70.84 51.7 71.2 51.58C71.54 51.48 71.86 51.58 72.04 51.94C72.64 53.02 73.2 54.54 73.48 55.6C73.68 56.42 73.42 56.88 72.7 57.06ZM68.28 56.82C67.84 57.56 67.14 57.8 66.44 57.3C65.8 56.86 65.74 56.12 66.28 55.5C67.06 54.6 67.78 53.24 68.24 52.06C68.42 51.6 68.74 51.52 69.1 51.6C69.46 51.68 69.68 51.92 69.62 52.4C69.44 54 68.96 55.68 68.28 56.82ZM88.26 56.68C87.72 56.68 87.4 56.36 87.4 55.8C87.4 55.24 87.72 54.92 88.26 54.92H94.32V40.5C94.32 39.68 94.8 39.24 95.68 39.24C96.56 39.24 97.04 39.68 97.04 40.5V45.96H102.42C102.94 45.96 103.24 46.26 103.24 46.8C103.24 47.32 102.94 47.62 102.42 47.62H97.04V54.92H104.54C105.1 54.92 105.42 55.24 105.42 55.8C105.42 56.36 105.1 56.68 104.54 56.68H88.26ZM109.74 43.14C109.3 43.14 109.06 42.88 109.06 42.44C109.06 41.98 109.3 41.72 109.74 41.72H112.84V40.04C112.84 39.3 113.28 38.86 114.14 38.86C114.96 38.86 115.42 39.3 115.42 40.04V41.72H118.54C118.98 41.72 119.22 41.98 119.22 42.44C119.22 42.9 118.98 43.14 118.54 43.14H109.74ZM126.9 52.34C127.44 56.5 127.02 57.42 124.82 57.42C122.24 57.42 121.82 57.1 121.82 55.16V50.02C121.18 53.8 119.88 55.9 117.54 57.62C117.18 57.88 116.88 57.84 116.66 57.54C116.42 57.26 116.44 56.98 116.72 56.66C117.24 56.1 117.68 55.54 118.04 54.94C117.38 55.22 116.86 54.96 116.7 54.28C116.44 53.24 116.1 52.16 115.76 51.12C115.66 50.76 115.8 50.48 116.08 50.32C116.38 50.18 116.68 50.28 116.9 50.58C117.52 51.38 118.12 52.44 118.6 53.52C118.64 53.6 118.66 53.66 118.68 53.74C119.48 51.9 119.84 49.6 119.98 46.1H118.94C118.52 46.1 118.28 45.82 118.28 45.36C118.28 44.9 118.52 44.64 118.94 44.64H120.02C120.04 43.26 120.06 41.72 120.06 39.98C120.06 39.24 120.46 38.92 121.22 38.92C121.98 38.92 122.4 39.18 122.4 39.98C122.4 41.7 122.38 43.24 122.32 44.64H126.14C126.58 44.64 126.86 44.9 126.86 45.36C126.86 45.84 126.58 46.1 126.14 46.1H122.24C122.22 46.56 122.18 47 122.14 47.44C122.34 47.28 122.6 47.2 122.92 47.2C123.62 47.2 124.02 47.58 124.02 48.28V54.36C124.02 55.24 124.14 55.34 124.86 55.34C125.58 55.34 125.66 55.1 125.68 52.34C125.68 51.92 125.94 51.7 126.26 51.7C126.58 51.7 126.84 51.94 126.9 52.34ZM124.22 43.46C123.82 42.44 123.48 41.52 123.04 40.6C122.9 40.28 122.98 39.98 123.26 39.8C123.56 39.62 123.84 39.66 124.08 39.92C124.74 40.6 125.44 41.52 126.02 42.52C126.38 43.1 126.28 43.7 125.6 44.02C124.94 44.34 124.42 44.08 124.22 43.46ZM116.84 49.64H115.38V55.62C115.38 57.6 113.58 58.32 110.94 57.22C110.58 57.06 110.44 56.78 110.52 56.44C110.6 56.1 110.86 55.98 111.26 56.04C112.82 56.24 112.96 56 112.96 55.14V49.64H111.3C110.54 49.64 110.14 49.22 110.14 48.48V45.52C110.14 44.76 110.54 44.36 111.3 44.36H116.84C117.6 44.36 118.02 44.76 118.02 45.52V48.48C118.02 49.22 117.6 49.64 116.84 49.64ZM112.5 48C112.5 48.14 112.6 48.24 112.74 48.24H115.42C115.56 48.24 115.66 48.14 115.66 48V45.98C115.66 45.84 115.56 45.74 115.42 45.74H112.74C112.6 45.74 112.5 45.84 112.5 45.98V48ZM111.82 50.42C112.46 50.6 112.62 51.14 112.46 51.68C111.88 53.4 110.9 55 109.88 56.02C109.62 56.3 109.36 56.3 109.12 56.1C108.9 55.88 108.84 55.64 109 55.34C109.56 54.34 110.1 52.92 110.54 51.1C110.68 50.48 111.14 50.24 111.82 50.42ZM147.74 43.2C148.58 43.4 148.84 43.98 148.66 44.8C148.44 45.64 147.86 45.94 147.02 45.7L146.64 45.58C146.7 45.72 146.72 45.9 146.72 46.08V48.86C146.72 49.62 146.3 50.02 145.56 50.02H133.62C132.88 50.02 132.46 49.62 132.46 48.86V46.08C132.46 45.86 132.5 45.66 132.56 45.5C132.16 45.62 131.76 45.72 131.36 45.82C130.9 45.92 130.66 45.74 130.56 45.4C130.44 45.02 130.58 44.74 131 44.58C134.08 43.3 136.54 41.64 138.48 39.24C139 38.62 139.72 38.5 140.38 38.98C140.9 39.34 141.04 39.76 140.88 40.22C142.9 41.74 145.26 42.68 147.74 43.2ZM140.12 41.24C139.58 41.78 138.92 42.32 138.18 42.82H141.74C141.14 42.32 140.6 41.8 140.12 41.24ZM134.22 44.92H145C144.28 44.58 143.58 44.18 142.92 43.72C142.84 43.96 142.62 44.1 142.3 44.1H137.2C136.92 44.1 136.72 43.98 136.62 43.78C135.86 44.2 135.04 44.58 134.22 44.92ZM134.66 48.56C134.66 48.7 134.76 48.8 134.9 48.8H136.62C136.5 48.72 136.42 48.6 136.34 48.46C136.06 47.9 135.72 47.32 135.42 46.8C135.28 46.56 135.28 46.34 135.44 46.16H134.9C134.76 46.16 134.66 46.26 134.66 46.4V48.56ZM138.54 48.8V46.16H136.28C136.72 46.48 137.26 46.98 137.7 47.48C138.1 47.96 138.08 48.42 137.58 48.76L137.52 48.8H138.54ZM141.4 48.78C141.16 48.58 141.14 48.34 141.32 48.06C141.62 47.6 141.94 47.06 142.24 46.48C142.32 46.34 142.4 46.24 142.5 46.16H140.62V48.8H141.42L141.4 48.78ZM144.48 48.56V46.4C144.48 46.26 144.38 46.16 144.24 46.16H143.48C143.92 46.46 143.96 46.92 143.6 47.38C143.12 48 142.64 48.44 142.18 48.8H144.24C144.38 48.8 144.48 48.7 144.48 48.56ZM144.36 50.88C145.1 50.88 145.52 51.3 145.52 52.06V56.88C145.52 57.56 145.08 57.96 144.28 57.96C143.48 57.96 143.06 57.56 143.06 56.88V56.86H136.14V56.88C136.14 57.56 135.7 57.96 134.9 57.96C134.1 57.96 133.68 57.56 133.68 56.88V52.06C133.68 51.3 134.08 50.88 134.84 50.88H144.36ZM136.38 52.2C136.24 52.2 136.14 52.3 136.14 52.44V53.24H143.06V52.44C143.06 52.3 142.96 52.2 142.82 52.2H136.38ZM136.14 55.54H143.06V54.48H136.14V55.54ZM169.3 55.22C170.14 55.7 170.34 56.34 169.92 57.14C169.5 57.92 168.7 58.06 167.92 57.54C166.76 56.76 165.78 55.78 164.98 54.64C163.86 55.88 162.44 56.92 160.7 57.68C160.28 57.86 159.98 57.78 159.82 57.46C159.76 57.34 159.72 57.22 159.72 57.12C159.6 57.58 159.18 57.84 158.56 57.84C157.78 57.84 157.36 57.44 157.36 56.74V51.64C156.26 52.34 155.04 52.94 154 53.36C153.16 53.7 152.52 53.44 152.3 52.66C152.06 51.88 152.34 51.28 153.22 51.14L153.3 51.12V42.26C153.3 41.52 153.7 41.16 154.46 41.16C155.2 41.16 155.6 41.52 155.6 42.26V50.6C156.2 50.44 156.8 50.26 157.36 50.08V40.26C157.36 39.48 157.78 39.1 158.56 39.1C159.34 39.1 159.78 39.48 159.78 40.26V56.74V56.9C159.82 56.78 159.94 56.66 160.1 56.54C161.76 55.44 162.98 54.18 163.88 52.76C163.04 51.08 162.5 49.16 162.24 47.12C161.86 47.78 161.44 48.36 161 48.84C160.7 49.16 160.4 49.18 160.14 48.96C159.86 48.74 159.78 48.46 159.98 48.08C161.02 46 161.68 43.26 161.96 40.26C162.04 39.26 162.62 38.88 163.52 39.02C164.4 39.16 164.7 39.68 164.54 40.58C164.38 41.46 164.16 42.36 163.9 43.22H169.48C169.96 43.22 170.22 43.5 170.22 43.96C170.22 44.44 169.96 44.72 169.48 44.72H168.46C168.3 47.86 167.64 50.58 166.34 52.78C167.14 53.7 168.12 54.52 169.3 55.22ZM163.22 45.12C163.5 47.14 164.02 49.02 164.9 50.68C165.58 48.92 165.88 46.94 165.94 44.72H163.38C163.34 44.86 163.28 45 163.22 45.12ZM189.5 39.04C190.26 39.04 190.7 39.42 190.7 40.12V55.46C190.7 57.94 188.24 58.46 184.86 57.06C184.5 56.92 184.42 56.64 184.48 56.3C184.56 55.98 184.82 55.84 185.26 55.86C187.96 56.12 188.32 55.96 188.32 55V40.12C188.32 39.42 188.74 39.04 189.5 39.04ZM184.64 54.12C184.72 54.52 184.54 54.76 184.22 54.86C181.52 55.76 178.16 56.5 175.28 56.82C174.38 56.94 173.84 56.58 173.74 55.72C173.66 54.9 174.02 54.3 175.02 54.28C176.04 54.26 177.08 54.22 178.1 54.16V51.48H175.36C174.9 51.48 174.62 51.22 174.62 50.74C174.62 50.28 174.9 50.02 175.36 50.02H178.1V48.58C178.1 48.1 178.26 47.8 178.54 47.62C177.62 47.84 176.68 48.04 175.8 48.18C174.94 48.32 174.34 47.86 174.28 47.04C174.22 46.22 174.62 45.7 175.6 45.68C175.9 45.68 176.18 45.68 176.48 45.66C176.82 44.6 177.2 43.06 177.46 41.72H174.86C174.38 41.72 174.14 41.44 174.14 40.98C174.14 40.5 174.38 40.24 174.86 40.24H183.94C184.4 40.24 184.68 40.5 184.68 40.98C184.68 41.44 184.4 41.72 183.94 41.72H180.38C179.78 43 178.94 44.52 178.2 45.6C179.44 45.54 180.56 45.44 181.58 45.34C181.34 44.82 181.1 44.34 180.86 43.88C180.68 43.52 180.74 43.24 181.04 43.02C181.3 42.8 181.56 42.84 181.86 43.1C182.76 44 183.74 45.24 184.48 46.46C184.92 47.16 184.74 47.76 184.04 48.14C183.32 48.48 182.76 48.22 182.48 47.42C182.38 47.14 182.26 46.88 182.14 46.6C181.3 46.9 180.32 47.18 179.3 47.44H179.4C180.24 47.44 180.72 47.74 180.72 48.58V50.02H183.46C183.92 50.02 184.18 50.28 184.18 50.74C184.18 51.22 183.92 51.48 183.46 51.48H180.72V53.98C181.82 53.88 182.9 53.76 183.88 53.62C184.3 53.56 184.56 53.74 184.64 54.12ZM186.08 53.56C185.4 53.56 185.02 53.22 185.02 52.6V41.96C185.02 41.34 185.4 41 186.08 41C186.78 41 187.16 41.34 187.16 41.96V52.6C187.16 53.22 186.78 53.56 186.08 53.56ZM202.68 44.2C201.94 44.2 201.52 43.8 201.52 43.04V41.06C201.52 40.32 201.94 39.9 202.68 39.9H211.34C212.08 39.9 212.5 40.32 212.5 41.06V43.04C212.5 43.8 212.08 44.2 211.34 44.2H202.68ZM200.72 41.94V52.5C200.72 53.26 200.32 53.66 199.56 53.66H198.02V54.76C198.02 55.36 197.66 55.68 197.04 55.68C196.4 55.68 196.06 55.36 196.06 54.76V41.94C196.06 41.18 196.48 40.78 197.22 40.78H199.56C200.32 40.78 200.72 41.18 200.72 41.94ZM203.68 41.48V42.64C203.68 42.78 203.78 42.88 203.92 42.88H204.88V41.24H203.92C203.78 41.24 203.68 41.34 203.68 41.48ZM206.38 41.24V42.88H207.6V41.24H206.38ZM209.08 41.24V42.88H210.08C210.22 42.88 210.32 42.78 210.32 42.64V41.48C210.32 41.34 210.22 41.24 210.08 41.24H209.08ZM198.88 52.04V42.4C198.88 42.26 198.78 42.16 198.64 42.16H198.26C198.12 42.16 198.02 42.26 198.02 42.4V52.28H198.64C198.78 52.28 198.88 52.18 198.88 52.04ZM201.84 50.94C201.92 50.94 202 50.94 202.08 50.96C202.48 50.38 202.86 49.76 203.22 49.1C202.82 49.24 202.42 49.36 202.04 49.44C201.4 49.54 201 49.3 200.94 48.66C200.88 48.06 201.16 47.72 201.66 47.68C202.02 46.78 202.3 45.9 202.48 45.02C202.6 44.38 203.06 44.12 203.7 44.3C204.34 44.5 204.52 44.98 204.26 45.58C203.9 46.34 203.46 47.06 202.98 47.7H203.9C204.12 47.24 204.32 46.76 204.5 46.28C204.72 45.74 205.14 45.52 205.74 45.74C206.32 45.96 206.52 46.46 206.22 47.04C205.46 48.54 204.52 49.92 203.58 50.96C203.9 50.96 204.2 50.94 204.48 50.92L204.36 50.66C204.18 50.34 204.28 50.1 204.54 49.92C204.8 49.74 205.06 49.82 205.28 50.08C205.72 50.58 206.12 51.22 206.4 51.82C206.62 52.32 206.52 52.64 206.04 52.86C205.58 53.08 205.2 52.94 205.06 52.46L204.9 51.94C204.04 52.3 203.06 52.58 202.08 52.78C201.28 52.92 200.92 52.58 200.88 51.96C200.82 51.28 201.12 50.92 201.84 50.94ZM212.64 55.38C213.08 55.38 213.32 55.64 213.32 56.08C213.32 56.5 213.08 56.74 212.64 56.74H208.62V57.04C208.62 57.6 208.26 57.9 207.64 57.9C207.02 57.9 206.68 57.6 206.68 57.04V49.78C206.6 49.88 206.5 49.98 206.42 50.06C206.16 50.32 205.88 50.36 205.64 50.14C205.4 49.92 205.36 49.68 205.56 49.36C206.32 48.2 206.86 46.92 207.26 45.04C207.4 44.44 207.82 44.2 208.42 44.32C209.04 44.46 209.26 44.94 209.08 45.52C208.98 45.84 208.88 46.14 208.76 46.44H209.62V45.28C209.62 44.76 209.94 44.44 210.54 44.44C211.12 44.44 211.46 44.74 211.46 45.28V46.44H212.42C212.88 46.44 213.12 46.68 213.12 47.12C213.12 47.58 212.88 47.82 212.42 47.82H211.4V49.4H212.1C212.54 49.4 212.8 49.66 212.8 50.08C212.8 50.52 212.54 50.78 212.1 50.78H211.4V52.38H212.1C212.54 52.38 212.8 52.64 212.8 53.06C212.8 53.5 212.54 53.76 212.1 53.76H211.4V55.38H212.64ZM209.58 49.4V47.82H208.62V49.4H209.58ZM209.58 52.38V50.78H208.62V52.38H209.58ZM205.16 52.94C205.66 53.62 206.12 54.5 206.46 55.32C206.66 55.84 206.54 56.26 206 56.46C205.48 56.64 205.04 56.42 204.94 55.84C204.8 55 204.54 54.2 204.26 53.36C204.16 53.06 204.24 52.88 204.48 52.74C204.74 52.6 204.96 52.68 205.16 52.94ZM203.94 53.46C204.22 54.38 204.38 55.36 204.46 56.3C204.52 56.88 204.24 57.16 203.68 57.2C203.12 57.24 202.8 56.96 202.86 56.36C202.92 55.52 202.94 54.62 202.88 53.62C202.86 53.26 203.04 53.1 203.34 53.06C203.64 53.02 203.84 53.12 203.94 53.46ZM202.1 53.16C202.4 53.2 202.54 53.38 202.54 53.76C202.54 54.9 202.44 55.98 202.2 56.9C202.02 57.52 201.6 57.76 201.02 57.52C200.42 57.3 200.32 56.8 200.6 56.24C200.98 55.46 201.24 54.64 201.48 53.58C201.54 53.24 201.78 53.12 202.1 53.16ZM209.58 55.38V53.76H208.62V55.38H209.58ZM225.96 51.6C225.34 51.6 224.92 51.24 224.88 50.6L224.4 42.52C224.32 41.4 224.88 40.8 225.96 40.8C227.06 40.8 227.6 41.4 227.52 42.52L227.02 50.6C226.98 51.24 226.6 51.6 225.96 51.6ZM225.98 56.56C225.02 56.56 224.22 55.78 224.22 54.84C224.22 53.92 225.02 53.18 225.98 53.18C226.9 53.18 227.7 53.92 227.7 54.84C227.7 55.78 226.9 56.56 225.98 56.56Z" fill="#594A39"/>
</svg>
