<svg width="1259" height="205" viewBox="0 0 1259 205" fill="none" xmlns="http://www.w3.org/2000/svg">
<path d="M69.511 19.52H54.791V24.08H64.471C67.831 24.08 69.6711 25.92 69.6711 29.28V66.88C69.6711 74.24 63.911 76.8 54.631 73.44C54.231 73.28 53.831 73.12 53.591 72.8C52.711 74.08 51.191 74.72 49.031 74.72C45.591 74.72 43.751 73.2 43.751 69.76V56H39.031V70.72C39.031 74.16 37.191 75.68 33.831 75.68C30.471 75.68 28.551 74.16 28.551 70.72V29.28C28.551 25.92 30.391 24.08 33.751 24.08H42.631V19.52H29.831C27.751 19.52 26.551 18.32 26.551 16.16C26.551 14.08 27.751 12.96 29.831 12.96H42.631V6.56C42.631 2.88 45.031 0.960002 48.711 0.960002C52.471 0.960002 54.791 2.64 54.791 6.56V12.96H60.951C60.791 12.72 60.631 12.56 60.551 12.32C59.351 10 57.831 7.68 56.391 5.52C55.431 4.08 55.671 2.8 56.711 1.84C57.831 0.800004 59.111 0.800004 60.391 1.52C62.951 2.8 65.671 4.8 67.671 6.88C69.751 9.04 70.0711 11.12 68.6311 12.96H69.511C71.6711 12.96 72.871 14.08 72.871 16.16C72.871 18.32 71.6711 19.52 69.511 19.52ZM23.831 46.64C25.591 46 27.031 46.24 27.751 47.6C28.471 48.96 28.071 50.4 26.471 51.68C21.431 55.84 14.391 60 8.23104 62.56C4.63104 64.08 1.35104 62.8 0.311043 58.88C-0.728957 55.12 0.871043 52.64 4.63104 51.92L8.15104 51.2V27.44H3.99104C1.91104 27.44 0.791043 26.32 0.791043 24.24C0.791043 22.16 1.91104 21.04 3.99104 21.04H8.15104V7.2C8.15104 3.52 10.471 1.6 14.231 1.6C17.831 1.6 20.311 3.52 20.311 7.2V21.04H24.391C26.471 21.04 27.591 22.16 27.591 24.24C27.591 26.32 26.471 27.44 24.391 27.44H20.311V47.84C21.431 47.52 22.631 47.04 23.831 46.64ZM43.751 36.8V30.64H39.991C39.431 30.64 39.031 31.04 39.031 31.6V36.8H43.751ZM58.151 30.64H54.311V36.8H59.111V31.6C59.111 31.04 58.711 30.64 58.151 30.64ZM43.751 49.6V43.2H39.031V49.6H43.751ZM59.111 49.6V43.2H54.311V49.6H59.111ZM59.111 65.04V56H54.311V67.6C54.791 67.44 55.351 67.36 56.071 67.44C58.471 67.68 59.111 66.96 59.111 65.04Z" fill="#594A39"/>
<path d="M95.671 72.24C93.431 72.24 92.151 70.96 92.151 68.56C92.151 66.16 93.431 64.88 95.671 64.88H121.351V57.12H100.791C98.551 57.12 97.351 55.84 97.351 53.52C97.351 51.2 98.551 49.92 100.791 49.92H121.351V42.48H104.951C101.591 42.48 99.751 40.64 99.751 37.28V10.24C99.751 6.88 101.591 5.04 104.951 5.04H150.951C154.311 5.04 156.151 6.88 156.151 10.24V37.28C156.151 40.64 154.311 42.48 150.951 42.48H134.471V49.92H155.031C157.271 49.92 158.471 51.2 158.471 53.52C158.471 55.84 157.271 57.12 155.031 57.12H134.471V64.88H160.471C162.711 64.88 163.991 66.16 163.991 68.56C163.991 70.96 162.711 72.24 160.471 72.24H95.671ZM112.071 20.24H121.351V11.92H113.031C112.471 11.92 112.071 12.32 112.071 12.88V20.24ZM134.471 20.24H143.831V12.88C143.831 12.32 143.431 11.92 142.871 11.92H134.471V20.24ZM113.031 35.6H121.351V26.96H112.071V34.64C112.071 35.2 112.471 35.6 113.031 35.6ZM134.471 35.6H142.871C143.431 35.6 143.831 35.2 143.831 34.64V26.96H134.471V35.6Z" fill="#594A39"/>
<path d="M246.071 15.44C249.911 15.44 252.071 17.6 252.071 21.44V49.04C252.071 52.72 249.751 54.72 245.591 54.72C241.431 54.72 239.111 52.72 239.111 49.04V48.32H225.671V70.88C225.671 74.64 223.351 76.72 219.031 76.72C214.711 76.72 212.391 74.64 212.391 70.88V48.32H198.791V49.2C198.791 52.88 196.471 54.88 192.311 54.88C188.151 54.88 185.831 52.88 185.831 49.2V21.44C185.831 17.6 187.991 15.44 191.831 15.44H212.391V6.08C212.391 2.32 214.711 0.240002 219.031 0.240002C223.351 0.240002 225.671 2.32 225.671 6.08V15.44H246.071ZM212.391 41.12V22.64H199.751C199.191 22.64 198.791 23.04 198.791 23.6V41.12H212.391ZM225.671 41.12H239.111V23.6C239.111 23.04 238.711 22.64 238.151 22.64H225.671V41.12Z" fill="#594A39"/>
<path d="M277.591 13.52C275.431 13.52 274.231 12.32 274.231 10.16C274.231 8 275.431 6.8 277.591 6.8H291.271V6.08C291.271 2.08 293.431 0.560002 297.431 0.560002C301.431 0.560002 303.591 2.08 303.591 6.08V6.8H317.111V6.08C317.111 2.08 319.271 0.560002 323.271 0.560002C327.271 0.560002 329.431 2.08 329.431 6.08V6.8H343.031C345.191 6.8 346.391 8 346.391 10.16C346.391 12.32 345.191 13.52 343.031 13.52H329.431V14.16C329.431 18.16 327.271 19.44 323.271 19.44C319.271 19.44 317.111 17.6 317.111 14.16V13.52H303.591V14.16C303.591 17.6 301.431 19.44 297.431 19.44C293.431 19.44 291.271 18.16 291.271 14.16V13.52H277.591ZM343.271 39.52H334.231V45.84H340.071C342.231 45.84 343.351 46.96 343.351 49.12C343.351 51.28 342.231 52.4 340.071 52.4H316.631V57.12H336.871C338.951 57.12 340.071 58.24 340.071 60.32C340.071 62.4 338.951 63.52 336.871 63.52H316.631V70.8C316.631 74.48 314.391 76.4 310.231 76.4C306.071 76.4 303.831 74.48 303.831 70.8V63.52H283.751C281.671 63.52 280.551 62.4 280.551 60.32C280.551 58.24 281.671 57.12 283.751 57.12H303.831V52.4H279.831C277.751 52.4 276.551 51.28 276.551 49.12C276.551 46.96 277.751 45.84 279.831 45.84H286.391V39.52H277.351C275.271 39.52 274.151 38.4 274.151 36.32C274.151 34.24 275.271 33.12 277.351 33.12H286.391V27.12H281.671C279.511 27.12 278.391 25.92 278.391 23.84C278.391 21.76 279.511 20.56 281.671 20.56H338.871C341.031 20.56 342.151 21.76 342.151 23.84C342.151 25.84 341.031 27.12 338.871 27.12H334.231V33.12H343.271C345.351 33.12 346.471 34.24 346.471 36.32C346.471 38.4 345.351 39.52 343.271 39.52ZM303.831 27.12H297.911V33.12H303.831V27.12ZM316.631 27.12V33.12H322.711V27.12H316.631ZM297.911 45.84H303.831V39.52H297.911V45.84ZM316.631 45.84H322.711V39.52H316.631V45.84Z" fill="#594A39"/>
<path d="M433.591 9.52C435.831 9.52 437.031 10.72 437.031 12.96C437.031 15.2 435.831 16.4 433.591 16.4H421.431C422.791 17.92 422.951 20 420.791 22.64C420.071 23.6 419.111 24.56 418.071 25.52H427.991C431.351 25.52 433.191 27.36 433.191 30.72V65.68C433.191 75.12 424.951 78.4 412.631 73.6C410.791 72.88 410.071 71.68 410.391 69.92C410.711 68.16 411.991 67.52 414.151 67.6C420.551 67.84 421.191 67.28 421.191 63.76V44.24H415.431C405.431 44.24 403.431 42.88 403.431 36.08V32.4H399.351C398.071 39.36 393.431 44.8 384.631 47.12C383.671 47.36 382.871 47.2 382.231 46.64V70.8C382.231 74.72 379.911 76.48 375.991 76.48C372.071 76.48 370.071 74.72 370.071 70.8V30.72C370.071 27.36 371.911 25.52 375.271 25.52H384.791C384.551 25.12 384.311 24.72 384.151 24.32C383.351 22.4 382.151 20.24 381.351 18.16C381.111 17.52 381.031 16.96 381.111 16.4H369.271C367.031 16.4 365.831 15.2 365.831 12.96C365.831 10.72 367.031 9.52 369.271 9.52H394.471V6C394.471 1.76 396.871 0 401.431 0C405.911 0 408.391 1.76 408.391 6V9.52H433.591ZM410.471 17.76L410.951 16.4H390.231C391.351 17.28 392.391 18.32 393.351 19.44C395.191 21.52 395.271 23.76 394.071 25.52H408.071C408.951 23.04 409.831 20.32 410.471 17.76ZM382.951 41.6C387.911 38.8 389.031 36.8 389.511 32.4H383.191C382.631 32.4 382.231 32.8 382.231 33.36V42.08L382.951 41.6ZM421.191 33.36C421.191 32.8 420.791 32.4 420.231 32.4H413.191V33.28C413.191 36.16 414.151 36.88 417.831 36.88H421.191V33.36ZM417.351 59.76C417.351 63.12 415.511 64.96 412.151 64.96H391.431C388.071 64.96 386.231 63.12 386.231 59.76V51.04C386.231 47.68 388.071 45.84 391.431 45.84H412.151C415.511 45.84 417.351 47.68 417.351 51.04V59.76ZM406.311 57.44V53.36C406.311 52.8 405.911 52.4 405.351 52.4H398.231C397.671 52.4 397.271 52.8 397.271 53.36V57.44C397.271 58 397.671 58.4 398.231 58.4H405.351C405.911 58.4 406.311 58 406.311 57.44Z" fill="#594A39"/>
<path d="M482.631 45.12C478.311 49.6 472.071 53.92 465.511 57.28C461.431 59.36 458.311 58.24 456.951 54.32C455.591 50.48 457.191 47.92 461.511 46.72L464.151 46V25.12H460.071C457.911 25.12 456.711 23.92 456.711 21.76C456.711 19.6 457.911 18.4 460.071 18.4H464.151V6.24C464.151 2.8 466.311 0.960002 470.231 0.960002C474.151 0.960002 476.311 2.8 476.311 6.24V18.4H480.071C482.231 18.4 483.431 19.6 483.431 21.76C483.431 23.92 482.231 25.12 480.071 25.12H476.311V42C477.351 41.6 478.391 41.2 479.351 40.72C480.951 40 482.231 40.24 483.111 41.6C483.911 42.88 483.751 44 482.631 45.12ZM489.991 29.6C486.631 29.6 484.791 27.76 484.791 24.4V8.96C484.791 5.6 486.631 3.76 489.991 3.76H517.911C521.271 3.76 523.111 5.6 523.111 8.96V24.4C523.111 27.76 521.271 29.6 517.911 29.6H489.991ZM496.151 11.12V13.68H511.751V11.12C511.751 10.56 511.351 10.16 510.791 10.16H497.111C496.551 10.16 496.151 10.56 496.151 11.12ZM496.151 19.6V22.24C496.151 22.8 496.551 23.2 497.111 23.2H510.791C511.351 23.2 511.751 22.8 511.751 22.24V19.6H496.151ZM525.751 38.96H499.431C498.871 39.92 498.231 40.88 497.511 41.84H521.911C525.271 41.84 527.271 43.76 527.031 47.2C526.471 55.28 525.831 61.76 525.191 66.88C524.071 75.84 516.151 78.16 505.031 72.56C503.351 71.68 502.711 70.48 503.271 68.8C503.751 67.28 505.031 66.72 507.031 67.04C513.111 68.08 514.391 67.28 514.871 63.84C515.351 60.48 515.991 55.36 516.311 49.36C516.311 48.72 516.071 48.4 515.431 48.4H515.191C509.751 61.44 499.431 71.12 486.151 75.52C484.311 76.16 482.951 75.52 482.311 73.92C481.671 72.4 482.231 71.12 483.991 70.16C494.391 64.56 500.951 57.92 505.031 48.4H503.591C498.311 57.28 489.831 64.32 479.671 68.08C477.831 68.72 476.471 68.08 475.911 66.56C475.191 64.96 475.831 63.76 477.591 62.72C485.271 58.64 490.151 54 493.591 48.4H491.991C488.071 52.4 483.351 55.84 478.471 58.16C476.631 59.04 475.191 58.4 474.471 56.96C473.751 55.44 474.071 54.08 475.751 52.96C481.511 48.8 485.191 44.56 488.071 38.96H482.151C480.071 38.96 478.871 37.76 478.871 35.68C478.871 33.6 480.071 32.4 482.151 32.4H525.751C527.831 32.4 529.031 33.6 529.031 35.68C529.031 37.76 527.831 38.96 525.751 38.96Z" fill="#594A39"/>
<path d="M553.911 52.8C550.551 52.8 548.711 50.96 548.711 47.6C548.711 44.24 550.551 42.4 553.911 42.4H573.911C577.271 42.4 579.111 44.24 579.111 47.6C579.111 50.96 577.271 52.8 573.911 52.8H553.911Z" fill="#594A39"/>
<path d="M68.391 189.2C72.791 192 73.991 195.92 71.671 200C69.191 204.16 64.6311 204.8 60.631 201.52C51.511 194.24 43.271 181.36 39.671 166.8C34.631 185.52 23.031 197.92 4.63104 204C2.71104 204.64 1.27104 203.92 0.551043 202.32C-0.168957 200.8 0.471043 199.28 2.23104 198.16C17.431 188.8 25.031 176.8 27.911 157.2H5.91104C3.43104 157.2 1.99104 155.84 1.99104 153.2C1.99104 150.56 3.43104 149.2 5.91104 149.2H28.871C28.951 148.32 28.951 147.44 29.031 146.48C29.351 142.56 29.351 139.44 29.351 134.8C29.431 130.72 31.991 128.48 36.231 128.48C40.631 128.48 43.031 130.72 43.031 134.72C43.031 139.28 43.031 143.6 42.471 148.72V149.2H67.511C70.071 149.2 71.431 150.56 71.431 153.2C71.431 155.84 70.071 157.2 67.511 157.2H43.671C49.031 171.92 56.231 181.52 68.391 189.2Z" fill="#594A39"/>
<path d="M160.711 156.48C163.831 160.24 162.951 164.08 159.351 166.56C155.751 169.04 152.071 168.56 149.831 164.08C149.191 162.72 148.391 161.28 147.591 159.84C132.791 163.12 114.791 165.04 100.551 166.08C95.191 166.48 92.951 164 92.951 159.36C92.951 154.88 95.191 152.72 100.231 152.96L105.431 153.2C109.751 147.04 113.991 139.92 117.191 132.72C118.951 128.72 122.711 127.2 127.031 129.04C131.831 131.2 132.791 134.88 129.991 139.04C126.471 144.08 121.431 149.12 116.231 153.52C125.351 153.6 134.231 153.36 143.271 152.96C141.671 150.56 140.071 148.24 138.391 146.08C137.111 144.4 137.431 142.48 138.791 141.2C140.151 139.92 141.991 140.08 143.831 141.28C149.671 145.2 155.991 150.72 160.711 156.48ZM150.151 168.72C153.511 168.72 155.351 170.56 155.351 173.92V198.32C155.351 202.48 153.111 204.08 148.951 204.08C144.951 204.08 142.391 202.48 142.391 198.32V198.08H113.111V198.32C113.111 202.48 110.711 204.08 106.711 204.08C102.551 204.08 100.151 202.48 100.151 198.32V173.92C100.151 170.56 101.991 168.72 105.351 168.72H150.151ZM113.111 190.88H142.391V176.88C142.391 176.32 141.991 175.92 141.431 175.92H114.071C113.511 175.92 113.111 176.32 113.111 176.88V190.88Z" fill="#594A39"/>
<path d="M216.711 184.32C218.711 183.68 220.231 184.24 220.951 186.24C221.751 188.48 221.111 190 219.351 191.12C211.351 195.84 201.511 200.16 191.031 202.96C186.711 204.16 183.831 202.72 183.031 198.48C182.231 194.32 183.431 191.28 188.151 190.48C192.791 189.68 197.831 188.72 202.711 187.68V163.28H188.071C185.751 163.28 184.391 161.84 184.391 159.2C184.391 156.64 185.751 155.28 188.071 155.28H202.711V134.72C202.711 131.2 204.951 129.12 208.951 129.12C212.951 129.12 215.191 131.2 215.191 134.72V184.72C215.671 184.64 216.231 184.48 216.711 184.32ZM254.391 175.84C258.231 194.72 256.311 200.88 246.311 201.6C242.231 201.84 237.831 201.76 233.831 201.52C224.711 200.96 222.791 198.96 222.791 189.36V134.56C222.791 131.12 225.031 129.12 229.111 129.12C233.191 129.12 235.271 131.12 235.271 134.56V156.88C238.071 154.64 240.871 151.92 243.831 148.72C246.711 145.68 250.151 145.92 252.871 149.12C255.591 152.4 255.031 156.4 251.111 158.8C246.311 161.84 240.471 164.32 235.271 165.84V185.52C235.271 188.88 235.911 189.76 238.871 189.84C240.471 189.92 241.751 189.92 244.311 189.76C247.031 189.6 247.831 188.32 247.831 176.32C247.831 174.16 249.031 172.96 251.031 172.88C253.111 172.8 253.991 173.92 254.391 175.84Z" fill="#594A39"/>
<path d="M345.591 178C349.271 196.32 347.271 201.44 335.831 202C329.031 202.4 323.751 202.4 316.551 202C306.791 201.44 303.591 199.2 303.591 189.84V164.48C302.871 164.8 302.231 165.04 301.511 165.28C299.751 165.92 298.151 164.96 297.511 162.88C296.871 160.88 297.831 159.36 299.511 158.8C300.871 158.32 302.231 157.84 303.591 157.44V141.12C303.591 137.36 305.671 135.68 309.431 135.68C313.191 135.68 315.271 137.36 315.271 141.12V153.28C316.391 152.88 317.511 152.48 318.631 152V134C318.631 130.48 320.551 128.96 324.071 128.96C327.591 128.96 329.511 130.48 329.511 134V147.76C330.631 147.28 331.751 146.88 332.791 146.4C334.311 143.84 336.551 142.64 339.831 143.28C343.751 144.08 345.191 147.04 344.471 151.2C342.951 160.4 340.311 170.08 337.191 176.48C336.471 177.92 335.271 178.56 333.831 178.24C332.391 177.92 331.591 176.8 331.911 175.04C332.871 168.08 333.671 159.68 334.071 154.16C334.151 153.44 333.671 153.2 333.031 153.44C331.911 153.84 330.711 154.32 329.511 154.72V181.04C329.511 184.08 327.591 185.68 324.071 185.68C320.551 185.68 318.631 184.08 318.631 181.04V158.88C317.511 159.28 316.391 159.68 315.271 160.16V186.88C315.271 190.16 316.231 191.2 319.271 191.36C325.191 191.68 329.191 191.68 334.311 191.36C339.191 191.04 339.751 190 339.911 178C339.911 176.4 341.031 175.36 342.551 175.36C344.151 175.36 345.191 176.16 345.591 178ZM298.391 175.76C300.151 175.12 301.591 175.44 302.391 176.72C303.271 178.16 302.871 179.6 301.191 181.04C295.671 185.6 288.391 189.68 281.351 192.48C277.831 193.84 274.631 192.8 273.671 188.8C272.791 185.04 274.391 182.64 278.151 181.84C279.671 181.52 281.111 181.2 282.631 180.8V156.96H277.591C275.511 156.96 274.311 155.84 274.311 153.68C274.311 151.52 275.511 150.4 277.591 150.4H282.631V136.32C282.631 132.48 284.711 130.72 288.551 130.72C292.311 130.72 294.391 132.48 294.391 136.32V150.4H298.471C300.551 150.4 301.751 151.52 301.751 153.68C301.751 155.84 300.551 156.96 298.471 156.96H294.391V177.2L298.391 175.76Z" fill="#594A39"/>
<path d="M435.111 192.48C436.231 196.16 434.711 198.64 431.511 199.68C428.151 200.8 422.711 201.44 417.751 201.76C407.991 202.4 395.911 202.32 388.311 201.76C372.951 200.64 368.871 197.68 368.871 187.68V139.36H368.631C366.391 139.36 365.191 138.16 365.191 135.92C365.191 133.68 366.391 132.48 368.631 132.48H431.271C433.511 132.48 434.711 133.68 434.711 135.92C434.711 138.16 433.511 139.36 431.271 139.36H381.671V184.96C381.671 189.2 383.271 190.72 387.991 191.04C395.831 191.6 407.591 191.68 417.671 191.04C421.671 190.8 425.431 190.16 428.391 189.36C431.671 188.48 434.151 189.28 435.111 192.48ZM424.711 155.84C424.711 159.2 422.871 161.04 419.511 161.04H395.511C392.151 161.04 390.311 159.2 390.311 155.84V147.6C390.311 144.24 392.151 142.4 395.511 142.4H419.511C422.871 142.4 424.711 144.24 424.711 147.6V155.84ZM413.031 153.68V149.76C413.031 149.2 412.631 148.8 412.071 148.8H402.951C402.391 148.8 401.991 149.2 401.991 149.76V153.68C401.991 154.24 402.391 154.64 402.951 154.64H412.071C412.631 154.64 413.031 154.24 413.031 153.68ZM389.831 164.24H401.271C404.631 164.24 406.471 166.08 406.471 169.44V182.32C406.471 185.68 404.631 187.52 401.271 187.52H389.831C386.471 187.52 384.631 185.68 384.631 182.32V169.44C384.631 166.08 386.471 164.24 389.831 164.24ZM414.631 187.52C411.271 187.52 409.431 185.68 409.431 182.32V169.44C409.431 166.08 411.271 164.24 414.631 164.24H426.071C429.431 164.24 431.271 166.08 431.271 169.44V182.32C431.271 185.68 429.431 187.52 426.071 187.52H414.631ZM397.511 180.16V171.6C397.511 171.04 397.111 170.64 396.551 170.64H394.551C393.991 170.64 393.591 171.04 393.591 171.6V180.16C393.591 180.72 393.991 181.12 394.551 181.12H396.551C397.111 181.12 397.511 180.72 397.511 180.16ZM418.391 171.6V180.16C418.391 180.72 418.791 181.12 419.351 181.12H421.351C421.911 181.12 422.311 180.72 422.311 180.16V171.6C422.311 171.04 421.911 170.64 421.351 170.64H419.351C418.791 170.64 418.391 171.04 418.391 171.6Z" fill="#594A39"/>
<path d="M529.431 193.36C531.591 197.04 530.631 200.8 527.031 202.56C523.431 204.32 520.311 203.2 518.551 199.04C516.391 194 513.991 189.44 511.591 185.36C505.351 194.88 495.671 201.04 481.751 204.08C479.831 204.48 478.471 203.76 477.911 201.92C477.431 200.24 477.991 198.8 479.911 197.92C501.511 188.32 507.991 175.2 507.991 147.92V135.12C507.991 131.28 510.151 129.68 514.151 129.68C518.231 129.68 520.391 131.6 520.391 135.12V147.68C520.391 159.6 518.871 169.6 515.511 177.84C520.391 181.68 525.831 187.28 529.431 193.36ZM497.831 172.8C499.031 174.32 498.871 176.16 497.591 177.44C488.311 186.72 476.711 194.72 465.671 199.36C461.271 201.2 457.911 199.68 456.391 195.6C454.871 191.52 456.151 188.08 460.871 186.64C461.991 186.32 463.191 185.92 464.311 185.52V135.84C464.311 132.4 466.551 130.24 470.551 130.24C474.551 130.24 476.711 132.4 476.711 135.84V180.72C482.471 178.24 488.071 175.36 493.271 172.24C495.031 171.2 496.631 171.28 497.831 172.8ZM489.911 158.56C487.671 152.72 484.791 146.72 482.311 142.32C481.271 140.56 481.511 138.64 483.111 137.6C484.871 136.48 486.391 136.88 487.991 138.16C492.311 141.6 498.151 147.44 501.671 152.88C504.151 156.72 502.471 160.16 498.871 162.08C495.271 164 491.591 162.88 489.911 158.56Z" fill="#594A39"/>
<path d="M585.511 140.96C588.951 141.84 590.791 144.32 590.151 149.2C586.711 175.92 574.471 194.96 553.511 204.16C551.751 204.96 550.391 204.4 549.511 202.88C548.711 201.36 549.111 200 550.791 198.8C560.551 191.92 567.191 183.84 571.671 174.08C569.431 175.52 566.871 174.96 565.031 172.24C563.511 170 561.991 167.76 560.311 165.68C557.911 168.72 555.351 171.28 552.631 173.2C551.111 174.32 549.751 174.24 548.711 173.04C547.671 171.84 547.511 170.48 548.631 169.04C555.271 160.16 558.951 148.8 561.111 134.32C561.831 129.68 564.631 128.24 568.551 128.88C572.631 129.6 574.151 131.84 573.431 136.24C573.031 138.56 572.471 140.88 571.831 143.28H577.671C579.511 140.88 582.151 140.08 585.511 140.96ZM618.791 165.04C621.831 168.16 622.311 171.84 618.791 175.04C615.751 177.84 611.511 176.88 609.511 173.6C607.991 171.04 606.231 168.4 604.471 165.92V198.56C604.471 202.4 602.391 204.32 598.471 204.32C594.551 204.32 592.471 202.4 592.471 198.56V134.32C592.471 130.48 594.551 128.8 598.471 128.8C602.391 128.8 604.471 130.48 604.471 134.32V154.32C609.191 157.12 615.191 161.36 618.791 165.04ZM578.071 151.04C578.151 150.4 577.831 150 577.191 150H569.431C567.991 153.36 566.391 156.56 564.551 159.6C567.111 160.96 569.831 162.64 572.231 164.4C573.271 165.2 573.991 166.08 574.391 166.96C575.991 162.08 577.191 156.8 578.071 151.04Z" fill="#594A39"/>
<path d="M707.111 142.32C709.351 142.32 710.631 143.6 710.631 145.84C710.631 148.08 709.351 149.36 707.111 149.36H681.511C679.991 151.92 678.391 154.24 676.711 156.32H696.391C699.751 156.32 701.591 158.16 701.591 161.52V198.96C701.591 202.72 699.271 204.72 695.031 204.72C690.791 204.72 688.471 202.72 688.471 198.96V198.88H661.671V198.96C661.671 202.72 659.351 204.72 655.111 204.72C650.871 204.72 648.551 202.72 648.551 198.96V161.52C648.551 158.16 650.391 156.32 653.751 156.32H667.911C668.151 154.16 668.231 151.84 668.311 149.36H643.111C640.871 149.36 639.591 148.08 639.591 145.84C639.591 143.6 640.871 142.32 643.111 142.32H660.471C660.391 142.32 660.391 142.24 660.391 142.24C658.311 139.2 655.831 136.72 653.431 134.32C651.991 132.88 652.071 131.12 653.271 129.68C654.391 128.16 656.151 128.24 657.991 129.12C661.111 130.48 664.391 132.32 667.111 134.4C670.391 136.88 671.191 139.52 668.951 142.32H678.791C680.711 139.12 682.551 135.84 684.071 132C685.511 128.4 688.791 126.96 692.551 129.2C696.071 131.36 695.911 134.8 693.111 137.76C691.591 139.36 689.911 140.96 688.151 142.32H707.111ZM688.471 164.08C688.471 163.52 688.071 163.12 687.511 163.12H662.631C662.071 163.12 661.671 163.52 661.671 164.08V168.08H688.471V164.08ZM661.671 174.8V180H688.471V174.8H661.671ZM661.671 192.08H688.471V186.72H661.671V192.08Z" fill="#594A39"/>
<path d="M738.871 158.88C735.031 158.88 732.871 157.04 732.871 153.68V144.64C732.871 140.8 735.031 138.64 738.871 138.64H759.351V134.96C759.351 131.2 761.831 128.88 766.311 128.88C770.711 128.88 773.271 131.2 773.271 134.96V138.64H793.831C797.671 138.64 799.831 140.8 799.831 144.64V153.68C799.831 157.04 797.671 158.88 793.831 158.88C789.991 158.88 787.831 157.04 787.831 153.68V146.8C787.831 146.24 787.431 145.84 786.871 145.84H745.831C745.271 145.84 744.871 146.24 744.871 146.8V153.68C744.871 157.04 742.711 158.88 738.871 158.88ZM750.151 152.24H782.631C784.711 152.24 785.911 153.52 785.911 155.68C785.911 157.84 784.711 159.12 782.631 159.12H750.151C747.991 159.12 746.791 157.84 746.791 155.68C746.791 153.52 747.991 152.24 750.151 152.24ZM796.631 172.4H773.751V194.24C773.751 203.44 764.071 207.36 749.831 201.44C748.311 200.8 747.831 199.04 748.311 197.44C748.791 195.84 749.911 195.2 751.671 195.36C759.271 195.92 760.311 195.12 760.311 191.52V172.4H736.071C733.831 172.4 732.631 171.12 732.631 168.8C732.631 166.48 733.831 165.2 736.071 165.2H796.631C798.871 165.2 800.071 166.48 800.071 168.8C800.071 171.12 798.871 172.4 796.631 172.4ZM754.631 183.04C750.391 189.28 742.231 195.84 735.431 198.8C733.831 199.52 732.471 199.28 731.591 197.92C730.631 196.48 730.791 195.2 732.151 193.84C737.111 189.52 741.671 183.84 745.191 177.12C746.711 174.24 749.671 173.2 753.111 175.04C756.391 176.8 756.631 180.08 754.631 183.04ZM798.711 186.96C801.831 189.92 801.751 193.28 798.711 196.16C796.151 198.56 792.711 198.32 790.391 194.96C786.391 189.28 782.071 184.16 778.151 180.08C776.951 178.72 776.871 177.04 777.991 175.68C778.951 174.48 780.311 174.32 781.831 175.2C787.991 178.4 793.911 182.48 798.711 186.96Z" fill="#594A39"/>
<path d="M880.391 141.68C884.231 141.68 886.391 143.84 886.391 147.68V199.12C886.391 202.8 884.071 204.48 879.911 204.48C875.751 204.48 873.431 202.8 873.431 199.12V197.92H841.511V199.2C841.511 202.88 839.191 204.56 835.031 204.56C830.871 204.56 828.551 202.88 828.551 199.2V147.68C828.551 143.84 830.711 141.68 834.551 141.68H847.991C848.311 139.12 848.631 136.72 848.951 133.68C849.351 129.68 851.831 127.2 857.111 128C862.151 128.8 863.831 132.72 861.911 136.48C860.871 138.56 859.831 140.16 858.631 141.68H880.391ZM842.471 148.88C841.911 148.88 841.511 149.28 841.511 149.84V158H873.431V149.84C873.431 149.28 873.031 148.88 872.471 148.88H842.471ZM873.431 164.88H841.511V174.4H873.431V164.88ZM841.511 190.72H873.431V181.28H841.511V190.72Z" fill="#594A39"/>
<path d="M973.591 146.96C978.711 146.96 980.711 149.68 980.471 154.56C979.831 169.6 978.631 183.76 977.511 192C975.671 205.68 962.711 207.36 947.671 198.72C945.991 197.76 945.431 196.32 946.151 194.64C946.791 193.12 948.071 192.48 950.071 192.88C961.911 195.28 963.671 194.16 964.551 188.16C965.511 181.44 966.631 167.68 967.191 155.44C967.191 154.72 966.871 154.16 966.151 154.16H949.271C946.311 180.96 936.311 195.68 917.671 203.92C915.591 204.8 914.071 204.24 913.271 202.56C912.551 200.8 913.031 199.44 914.791 198.08C927.671 187.84 933.671 175.44 935.991 154.16H920.711C918.391 154.16 917.111 152.88 917.111 150.56C917.111 148.24 918.391 146.96 920.711 146.96H936.631C936.871 143.12 937.031 138.96 937.111 134.56C937.191 130.64 939.511 128.8 943.671 128.8C947.911 128.8 950.231 130.8 950.231 134.8C950.231 139.12 950.151 143.12 949.911 146.96H973.591Z" fill="#594A39"/>
<path d="M1067.91 190.08C1073.03 190.08 1075.27 192.88 1074.95 197.12C1074.63 201.52 1072.07 203.2 1066.95 203.12C1057.03 202.96 1045.03 200.72 1034.15 196.32C1028.23 200.96 1019.83 203.84 1008.15 204.4C1006.07 204.48 1005.03 203.44 1004.79 201.68C1004.55 200 1005.43 198.56 1007.51 198.16C1015.19 196.72 1020.63 194.56 1024.47 191.6C1020.15 189.12 1016.23 186.24 1012.87 182.96C1011.51 181.6 1011.51 179.52 1012.79 178.08C1013.99 176.8 1015.19 176.48 1017.43 177.76C1021.99 180.32 1026.31 182.4 1030.63 184.08C1031.75 181.76 1032.47 179.12 1032.95 176.24H1018.07C1013.83 176.24 1012.87 174.4 1012.87 171.04V149.68C1012.87 146.32 1014.71 144.48 1018.07 144.48H1033.75V139.6H1010.39C1007.99 139.6 1006.63 138.24 1006.63 135.84C1006.63 133.44 1007.99 132.08 1010.39 132.08H1069.75C1072.15 132.08 1073.51 133.44 1073.51 135.84C1073.51 138.24 1072.15 139.6 1069.75 139.6H1046.71V144.48H1062.55C1066.07 144.48 1067.75 146.32 1067.75 149.68V171.04C1067.75 174.4 1065.91 176.24 1062.55 176.24H1045.59C1044.79 180.32 1043.51 184.08 1041.67 187.44C1049.75 189.36 1058.23 190.08 1067.91 190.08ZM1025.03 152.32V156.96H1033.75V151.36H1025.99C1025.43 151.36 1025.03 151.76 1025.03 152.32ZM1054.63 151.36H1046.71V156.96H1055.59V152.32C1055.59 151.76 1055.19 151.36 1054.63 151.36ZM1025.99 169.36H1033.59C1033.67 167.52 1033.75 165.68 1033.75 163.68H1025.03V168.4C1025.03 168.96 1025.43 169.36 1025.99 169.36ZM1055.59 168.4V163.68H1046.71C1046.71 165.6 1046.63 167.52 1046.47 169.36H1054.63C1055.19 169.36 1055.59 168.96 1055.59 168.4Z" fill="#594A39"/>
<path d="M1128.79 189.76C1126.63 191.92 1124.07 192.08 1122.15 189.2L1120.63 186.96V199.2C1120.63 202.4 1118.55 204.16 1114.79 204.16C1111.03 204.16 1108.95 202.4 1108.95 199.2V187.76C1106.23 191.68 1102.79 195.6 1099.27 198.32C1097.75 199.44 1096.31 199.44 1095.27 198.08C1094.23 196.72 1094.23 195.52 1095.59 193.92C1099.99 188.72 1103.83 182.24 1106.63 175.6H1099.27C1097.19 175.6 1096.07 174.4 1096.07 172.24C1096.07 170.08 1097.19 168.88 1099.27 168.88H1108.95V164.16H1098.47C1096.47 164.16 1095.27 162.96 1095.27 160.72C1095.27 158.48 1096.47 157.28 1098.47 157.28H1104.63C1104.07 156.8 1103.59 156 1103.19 155.04C1102.31 152.88 1101.35 150 1100.55 148.08C1099.99 146.72 1100.15 145.68 1100.95 144.88H1099.11C1097.03 144.88 1095.91 143.68 1095.91 141.52C1095.91 139.36 1097.03 138.16 1099.11 138.16H1107.83V132.96C1107.83 129.92 1109.99 128.32 1113.99 128.32C1117.99 128.32 1120.23 129.92 1120.23 132.96V138.16H1127.99C1130.07 138.16 1131.19 139.36 1131.19 141.52C1131.19 143.68 1130.07 144.88 1127.99 144.88H1125.35C1128.39 146 1128.95 148.48 1127.51 151.28C1126.39 153.36 1124.87 155.52 1123.19 157.28H1128.87C1130.87 157.28 1132.07 158.48 1132.07 160.72C1132.07 162.96 1130.87 164.16 1128.87 164.16H1120.63V168.88H1128.31C1130.39 168.88 1131.51 170.08 1131.51 172.24C1131.51 174.4 1130.39 175.6 1128.31 175.6H1120.63V177.44C1123.43 178.8 1126.39 180.48 1128.55 182.32C1131.11 184.48 1131.03 187.52 1128.79 189.76ZM1164.31 155.12C1166.39 155.12 1167.59 156.4 1167.59 158.72C1167.59 161.04 1166.39 162.32 1164.31 162.32H1160.95V199.44C1160.95 202.72 1158.87 204.32 1155.19 204.32C1151.51 204.32 1149.43 202.72 1149.43 199.44V162.32H1144.55C1144.39 180.08 1141.03 194.24 1130.79 202.96C1129.43 204.08 1127.67 204.4 1126.31 203.04C1125.19 201.92 1125.27 200.56 1126.23 199.04C1131.51 190.64 1132.87 182.72 1132.87 165.04V138.72C1132.87 134.96 1134.95 133.44 1138.71 133.44C1141.35 133.44 1143.11 134.16 1143.99 135.92C1147.99 134.56 1151.75 132.72 1155.91 130.24C1158.95 128.4 1162.63 128.64 1164.31 132.32C1166.15 136.24 1164.71 139.2 1160.95 140.16C1156.63 141.28 1150.39 142.08 1144.55 142.24V155.12H1164.31ZM1110.87 150.8C1112.63 153.12 1111.99 155.84 1109.43 157.28H1115.91C1116.95 154.24 1117.99 150.48 1118.55 147.6C1118.79 146.24 1119.51 145.36 1120.39 144.88H1105.35C1107.03 146.16 1109.11 148.4 1110.87 150.8Z" fill="#594A39"/>
<path d="M1194.55 149.12C1190.79 149.12 1188.71 147.6 1188.71 144.56V140.56C1188.71 137.2 1190.55 134.88 1193.91 134.88H1215.59V133.2C1215.59 130 1217.91 128 1222.23 128C1226.47 128 1228.87 129.92 1228.87 133.2V134.88H1250.71C1254.07 134.88 1255.91 137.2 1255.91 140.56V144.4C1255.91 147.68 1253.83 149.04 1250.07 149.04C1246.31 149.04 1244.23 147.44 1244.23 145.12V142.96C1244.23 142.32 1243.83 141.92 1243.27 141.92H1201.35C1200.79 141.92 1200.39 142.16 1200.39 142.88V144.88C1200.39 147.52 1198.31 149.12 1194.55 149.12ZM1253.59 190.16C1257.19 190.88 1259.19 193.6 1258.07 197.44C1256.95 201.36 1253.99 202.4 1250.31 201.2C1241.83 198.4 1234.15 193.92 1228.95 188.8V198.24C1228.95 202.48 1226.63 204.16 1222.39 204.16C1218.15 204.16 1215.83 202.48 1215.83 198.24V190C1208.79 195.52 1199.11 199.76 1190.55 201.44C1188.87 201.76 1187.51 201.12 1187.03 199.28C1186.55 197.52 1187.27 196.08 1188.95 195.36C1197.59 191.84 1203.83 188.48 1209.03 184H1191.35C1189.27 184 1188.07 182.72 1188.07 180.48C1188.07 178.24 1189.27 176.96 1191.35 176.96H1215.83V175.76C1215.83 174.72 1215.99 173.92 1216.39 173.2C1209.83 174.8 1202.55 175.6 1194.87 175.6C1193.11 175.6 1192.15 174.56 1191.91 172.88C1191.67 171.2 1192.63 169.84 1194.71 169.68C1203.51 169.04 1210.55 167.68 1216.15 165.6L1210.15 164.16C1209.83 164.4 1209.59 164.72 1209.27 164.96C1206.47 167.6 1203.83 167.84 1201.03 165.04C1198.71 162.72 1199.27 160.32 1201.27 158.24C1201.99 157.52 1202.63 156.8 1203.27 156.08H1192.23C1190.31 156.08 1189.19 154.88 1189.19 152.88C1189.19 150.88 1190.31 149.68 1192.23 149.68H1208.79C1209.99 148.16 1211.11 146.72 1212.31 145.12C1214.23 142.56 1216.95 141.92 1220.07 143.84C1222.71 145.44 1223.27 147.52 1222.47 149.68H1251.75C1253.67 149.68 1254.79 150.88 1254.79 152.88C1254.79 154.88 1253.67 156.08 1251.75 156.08H1242.95C1241.43 158.56 1239.51 160.72 1237.43 162.64C1240.63 163.44 1243.83 164.16 1246.79 165.04C1250.79 166.16 1252.31 168.88 1250.87 172.48C1249.51 175.84 1246.55 176.4 1243.11 174.96C1238.39 172.96 1233.27 170.96 1227.75 169.12C1226.71 169.6 1225.67 170.16 1224.55 170.56C1227.35 171.04 1228.95 172.72 1228.95 175.68V176.96H1253.27C1255.35 176.96 1256.55 178.24 1256.55 180.48C1256.55 182.72 1255.35 184 1253.27 184H1233.51C1238.79 186.4 1245.59 188.48 1253.59 190.16ZM1215.27 159.04C1218.63 159.36 1222.15 159.84 1225.67 160.4C1227.35 159.12 1228.71 157.68 1229.99 156.08H1217.91C1217.11 157.04 1216.23 158 1215.27 159.04Z" fill="#594A39"/>
</svg>
