<svg width="454" height="170" viewBox="0 0 454 170" fill="none" xmlns="http://www.w3.org/2000/svg">
<rect x="193.533" y="82.1465" width="260" height="87" rx="43.5" fill="#7DBD36"/>
<path d="M291.966 119.124C292.938 119.124 293.478 119.664 293.478 120.636C293.478 121.608 292.938 122.148 291.966 122.148H276.342C275.982 122.652 275.622 123.12 275.262 123.588H287.862C289.374 123.588 290.202 124.416 290.202 125.928V139.932C290.202 141.516 289.23 142.344 287.43 142.344C285.63 142.344 284.658 141.516 284.658 139.932V139.896H274.038V139.932C274.038 141.516 273.066 142.344 271.266 142.344C269.466 142.344 268.494 141.516 268.494 139.932V130.14C266.946 131.256 265.29 132.192 263.598 132.948C262.806 133.308 262.194 133.056 261.834 132.408C261.474 131.76 261.654 131.148 262.374 130.644C265.578 128.376 268.35 125.46 270.438 122.148H263.706C262.734 122.148 262.194 121.608 262.194 120.636C262.194 119.664 262.734 119.124 263.706 119.124H272.166L272.814 117.72H265.578C264.642 117.72 264.102 117.18 264.102 116.244C264.102 115.308 264.642 114.804 265.578 114.804H273.894C274.002 114.444 274.11 114.12 274.182 113.76C271.374 113.796 268.566 113.76 265.83 113.652C264.894 113.616 264.498 113.148 264.462 112.356C264.426 111.564 264.786 111.096 265.758 111.06C273.39 110.772 280.626 109.944 287.394 108.108C288.942 107.676 290.274 108.072 290.67 109.836C291.066 111.564 290.418 112.716 288.798 112.896C286.35 113.184 283.542 113.4 280.554 113.544C280.41 113.976 280.302 114.372 280.122 114.804H290.202C291.138 114.804 291.678 115.308 291.678 116.244C291.678 117.18 291.138 117.72 290.202 117.72H278.934L278.214 119.124H291.966ZM284.658 126.9C284.658 126.648 284.478 126.468 284.226 126.468H274.47C274.218 126.468 274.038 126.648 274.038 126.9V128.052H284.658V126.9ZM284.658 132.516V130.86H274.038V132.516H284.658ZM274.038 137.016H284.658V135.324H274.038V137.016Z" fill="white"/>
<path d="M336.498 135.792C338.802 135.792 339.81 137.052 339.666 138.96C339.522 140.94 338.37 141.696 336.066 141.66C331.602 141.588 326.202 140.58 321.306 138.6C318.642 140.688 314.862 141.984 309.606 142.236C308.67 142.272 308.202 141.804 308.094 141.012C307.986 140.256 308.382 139.608 309.318 139.428C312.774 138.78 315.222 137.808 316.95 136.476C315.006 135.36 313.242 134.064 311.73 132.588C311.118 131.976 311.118 131.04 311.694 130.392C312.234 129.816 312.774 129.672 313.782 130.248C315.834 131.4 317.778 132.336 319.722 133.092C320.226 132.048 320.55 130.86 320.766 129.564H314.07C312.162 129.564 311.73 128.736 311.73 127.224V117.612C311.73 116.1 312.558 115.272 314.07 115.272H321.126V113.076H310.614C309.534 113.076 308.922 112.464 308.922 111.384C308.922 110.304 309.534 109.692 310.614 109.692H337.326C338.406 109.692 339.018 110.304 339.018 111.384C339.018 112.464 338.406 113.076 337.326 113.076H326.958V115.272H334.086C335.67 115.272 336.426 116.1 336.426 117.612V127.224C336.426 128.736 335.598 129.564 334.086 129.564H326.454C326.094 131.4 325.518 133.092 324.69 134.604C328.326 135.468 332.142 135.792 336.498 135.792ZM317.202 118.8V120.888H321.126V118.368H317.634C317.382 118.368 317.202 118.548 317.202 118.8ZM330.522 118.368H326.958V120.888H330.954V118.8C330.954 118.548 330.774 118.368 330.522 118.368ZM317.634 126.468H321.054C321.09 125.64 321.126 124.812 321.126 123.912H317.202V126.036C317.202 126.288 317.382 126.468 317.634 126.468ZM330.954 126.036V123.912H326.958C326.958 124.776 326.922 125.64 326.85 126.468H330.522C330.774 126.468 330.954 126.288 330.954 126.036Z" fill="white"/>
<path d="M383.982 124.02C385.602 125.136 385.782 126.648 384.846 128.376C379.59 137.916 368.934 141.84 357.234 142.164C356.262 142.2 355.65 141.84 355.578 140.832C355.506 140.004 355.902 139.428 356.946 139.248C368.07 137.34 374.838 134.244 379.086 127.8C379.266 127.512 379.122 127.296 378.798 127.296H373.326C372.354 128.16 371.346 128.988 370.266 129.744C370.806 130.104 371.31 130.536 371.778 131.004C372.966 132.192 372.642 133.524 371.346 134.352C370.05 135.18 368.682 134.892 367.998 133.344C367.71 132.732 367.458 132.156 367.17 131.58C365.046 132.696 362.778 133.56 360.474 133.992C359.538 134.28 358.926 133.884 358.71 133.092C358.494 132.336 358.746 131.688 359.574 131.364C363.534 129.852 366.918 127.44 369.762 124.524C365.874 127.044 361.338 128.736 356.658 129.456C355.686 129.6 355.11 129.348 354.858 128.448C354.642 127.656 355.002 126.972 355.974 126.648C364.362 123.912 369.582 120.348 372.93 114.948C373.11 114.66 372.966 114.444 372.642 114.444H367.89C367.098 115.236 366.234 115.992 365.37 116.676C365.874 117.036 366.378 117.432 366.846 117.864C368.034 118.944 367.854 120.204 366.63 121.068C365.406 121.932 364.074 121.788 363.39 120.348C363.138 119.808 362.886 119.268 362.526 118.692C360.942 119.7 359.358 120.528 357.846 121.176C356.982 121.536 356.334 121.32 355.938 120.6C355.542 119.916 355.758 119.232 356.514 118.692C359.862 116.604 362.85 113.472 365.334 109.548C366.378 107.892 367.71 107.604 369.294 108.432C370.554 109.08 370.95 110.196 370.41 111.42H373.722C375.018 110.52 376.53 110.376 377.862 111.168C379.374 112.068 379.626 113.616 378.726 115.236C377.826 116.82 376.71 118.332 375.486 119.7C375.738 119.772 375.99 119.88 376.242 120.06C377.538 120.924 377.826 122.076 376.926 123.3L376.17 124.272H379.662C380.85 123.264 382.722 123.156 383.982 124.02Z" fill="white"/>
<path d="M52.1333 15.1263H41.0933V18.5463H48.3533C50.8733 18.5463 52.2533 19.9263 52.2533 22.4463V50.6463C52.2533 56.1663 47.9333 58.0863 40.9733 55.5663C40.6733 55.4463 40.3733 55.3263 40.1933 55.0863C39.5333 56.0463 38.3933 56.5263 36.7733 56.5263C34.1933 56.5263 32.8133 55.3863 32.8133 52.8063V42.4863H29.2733V53.5263C29.2733 56.1063 27.8933 57.2463 25.3733 57.2463C22.8533 57.2463 21.4133 56.1063 21.4133 53.5263V22.4463C21.4133 19.9263 22.7933 18.5463 25.3133 18.5463H31.9733V15.1263H22.3733C20.8133 15.1263 19.9133 14.2263 19.9133 12.6063C19.9133 11.0463 20.8133 10.2063 22.3733 10.2063H31.9733V5.40633C31.9733 2.64633 33.7733 1.20633 36.5333 1.20633C39.3533 1.20633 41.0933 2.46633 41.0933 5.40633V10.2063H45.7133C45.5933 10.0263 45.4733 9.90633 45.4133 9.72633C44.5133 7.98633 43.3733 6.24633 42.2933 4.62633C41.5733 3.54633 41.7533 2.58633 42.5333 1.86633C43.3733 1.08633 44.3333 1.08633 45.2933 1.62633C47.2133 2.58633 49.2533 4.08633 50.7533 5.64633C52.3133 7.26633 52.5533 8.82633 51.4733 10.2063H52.1333C53.7533 10.2063 54.6533 11.0463 54.6533 12.6063C54.6533 14.2263 53.7533 15.1263 52.1333 15.1263ZM17.8733 35.4663C19.1933 34.9863 20.2733 35.1663 20.8133 36.1863C21.3533 37.2063 21.0533 38.2863 19.8533 39.2463C16.0733 42.3663 10.7933 45.4863 6.17328 47.4063C3.47328 48.5463 1.01328 47.5863 0.233282 44.6463C-0.546718 41.8263 0.653282 39.9663 3.47328 39.4263L6.11328 38.8863V21.0663H2.99328C1.43328 21.0663 0.593282 20.2263 0.593282 18.6663C0.593282 17.1063 1.43328 16.2663 2.99328 16.2663H6.11328V5.88633C6.11328 3.12633 7.85328 1.68633 10.6733 1.68633C13.3733 1.68633 15.2333 3.12633 15.2333 5.88633V16.2663H18.2933C19.8533 16.2663 20.6933 17.1063 20.6933 18.6663C20.6933 20.2263 19.8533 21.0663 18.2933 21.0663H15.2333V36.3663C16.0733 36.1263 16.9733 35.7663 17.8733 35.4663ZM32.8133 28.0863V23.4663H29.9933C29.5733 23.4663 29.2733 23.7663 29.2733 24.1863V28.0863H32.8133ZM43.6133 23.4663H40.7333V28.0863H44.3333V24.1863C44.3333 23.7663 44.0333 23.4663 43.6133 23.4663ZM32.8133 37.6863V32.8863H29.2733V37.6863H32.8133ZM44.3333 37.6863V32.8863H40.7333V37.6863H44.3333ZM44.3333 49.2663V42.4863H40.7333V51.1863C41.0933 51.0663 41.5133 51.0063 42.0533 51.0663C43.8533 51.2463 44.3333 50.7063 44.3333 49.2663Z" fill="#594A39"/>
<path d="M71.7533 54.6663C70.0733 54.6663 69.1133 53.7063 69.1133 51.9063C69.1133 50.1063 70.0733 49.1463 71.7533 49.1463H91.0133V43.3263H75.5933C73.9133 43.3263 73.0133 42.3663 73.0133 40.6263C73.0133 38.8863 73.9133 37.9263 75.5933 37.9263H91.0133V32.3463H78.7133C76.1933 32.3463 74.8133 30.9663 74.8133 28.4463V8.16633C74.8133 5.64633 76.1933 4.26633 78.7133 4.26633H113.213C115.733 4.26633 117.113 5.64633 117.113 8.16633V28.4463C117.113 30.9663 115.733 32.3463 113.213 32.3463H100.853V37.9263H116.273C117.953 37.9263 118.853 38.8863 118.853 40.6263C118.853 42.3663 117.953 43.3263 116.273 43.3263H100.853V49.1463H120.353C122.033 49.1463 122.993 50.1063 122.993 51.9063C122.993 53.7063 122.033 54.6663 120.353 54.6663H71.7533ZM84.0533 15.6663H91.0133V9.42633H84.7733C84.3533 9.42633 84.0533 9.72633 84.0533 10.1463V15.6663ZM100.853 15.6663H107.873V10.1463C107.873 9.72633 107.573 9.42633 107.153 9.42633H100.853V15.6663ZM84.7733 27.1863H91.0133V20.7063H84.0533V26.4663C84.0533 26.8863 84.3533 27.1863 84.7733 27.1863ZM100.853 27.1863H107.153C107.573 27.1863 107.873 26.8863 107.873 26.4663V20.7063H100.853V27.1863Z" fill="#594A39"/>
<path d="M184.553 12.0663C187.433 12.0663 189.053 13.6863 189.053 16.5663V37.2663C189.053 40.0263 187.313 41.5263 184.193 41.5263C181.073 41.5263 179.333 40.0263 179.333 37.2663V36.7263H169.253V53.6463C169.253 56.4663 167.513 58.0263 164.273 58.0263C161.033 58.0263 159.293 56.4663 159.293 53.6463V36.7263H149.093V37.3863C149.093 40.1463 147.353 41.6463 144.233 41.6463C141.113 41.6463 139.373 40.1463 139.373 37.3863V16.5663C139.373 13.6863 140.993 12.0663 143.873 12.0663H159.293V5.04633C159.293 2.22633 161.033 0.666329 164.273 0.666329C167.513 0.666329 169.253 2.22633 169.253 5.04633V12.0663H184.553ZM159.293 31.3263V17.4663H149.813C149.393 17.4663 149.093 17.7663 149.093 18.1863V31.3263H159.293ZM169.253 31.3263H179.333V18.1863C179.333 17.7663 179.033 17.4663 178.613 17.4663H169.253V31.3263Z" fill="#594A39"/>
<path d="M208.193 10.6263C206.573 10.6263 205.673 9.72633 205.673 8.10633C205.673 6.48633 206.573 5.58633 208.193 5.58633H218.453V5.04633C218.453 2.04633 220.073 0.90633 223.073 0.90633C226.073 0.90633 227.693 2.04633 227.693 5.04633V5.58633H237.833V5.04633C237.833 2.04633 239.453 0.90633 242.453 0.90633C245.453 0.90633 247.073 2.04633 247.073 5.04633V5.58633H257.273C258.893 5.58633 259.793 6.48633 259.793 8.10633C259.793 9.72633 258.893 10.6263 257.273 10.6263H247.073V11.1063C247.073 14.1063 245.453 15.0663 242.453 15.0663C239.453 15.0663 237.833 13.6863 237.833 11.1063V10.6263H227.693V11.1063C227.693 13.6863 226.073 15.0663 223.073 15.0663C220.073 15.0663 218.453 14.1063 218.453 11.1063V10.6263H208.193ZM257.453 30.1263H250.673V34.8663H255.053C256.673 34.8663 257.513 35.7063 257.513 37.3263C257.513 38.9463 256.673 39.7863 255.053 39.7863H237.473V43.3263H252.653C254.213 43.3263 255.053 44.1663 255.053 45.7263C255.053 47.2863 254.213 48.1263 252.653 48.1263H237.473V53.5863C237.473 56.3463 235.793 57.7863 232.673 57.7863C229.553 57.7863 227.873 56.3463 227.873 53.5863V48.1263H212.813C211.253 48.1263 210.413 47.2863 210.413 45.7263C210.413 44.1663 211.253 43.3263 212.813 43.3263H227.873V39.7863H209.873C208.313 39.7863 207.413 38.9463 207.413 37.3263C207.413 35.7063 208.313 34.8663 209.873 34.8663H214.793V30.1263H208.013C206.453 30.1263 205.613 29.2863 205.613 27.7263C205.613 26.1663 206.453 25.3263 208.013 25.3263H214.793V20.8263H211.253C209.633 20.8263 208.793 19.9263 208.793 18.3663C208.793 16.8063 209.633 15.9063 211.253 15.9063H254.153C255.773 15.9063 256.613 16.8063 256.613 18.3663C256.613 19.8663 255.773 20.8263 254.153 20.8263H250.673V25.3263H257.453C259.013 25.3263 259.853 26.1663 259.853 27.7263C259.853 29.2863 259.013 30.1263 257.453 30.1263ZM227.873 20.8263H223.433V25.3263H227.873V20.8263ZM237.473 20.8263V25.3263H242.033V20.8263H237.473ZM223.433 34.8663H227.873V30.1263H223.433V34.8663ZM237.473 34.8663H242.033V30.1263H237.473V34.8663Z" fill="#594A39"/>
<path d="M325.193 7.62633C326.873 7.62633 327.773 8.52633 327.773 10.2063C327.773 11.8863 326.873 12.7863 325.193 12.7863H316.073C317.093 13.9263 317.213 15.4863 315.593 17.4663C315.053 18.1863 314.333 18.9063 313.553 19.6263H320.993C323.513 19.6263 324.893 21.0063 324.893 23.5263V49.7463C324.893 56.8263 318.713 59.2863 309.473 55.6863C308.093 55.1463 307.553 54.2463 307.793 52.9263C308.033 51.6063 308.993 51.1263 310.613 51.1863C315.413 51.3663 315.893 50.9463 315.893 48.3063V33.6663H311.573C304.073 33.6663 302.573 32.6463 302.573 27.5463V24.7863H299.513C298.553 30.0063 295.073 34.0863 288.473 35.8263C287.753 36.0063 287.153 35.8863 286.673 35.4663V53.5863C286.673 56.5263 284.933 57.8463 281.993 57.8463C279.053 57.8463 277.553 56.5263 277.553 53.5863V23.5263C277.553 21.0063 278.933 19.6263 281.453 19.6263H288.593C288.413 19.3263 288.233 19.0263 288.113 18.7263C287.513 17.2863 286.613 15.6663 286.013 14.1063C285.833 13.6263 285.773 13.2063 285.833 12.7863H276.953C275.273 12.7863 274.373 11.8863 274.373 10.2063C274.373 8.52633 275.273 7.62633 276.953 7.62633H295.853V4.98633C295.853 1.80633 297.653 0.486328 301.073 0.486328C304.433 0.486328 306.293 1.80633 306.293 4.98633V7.62633H325.193ZM307.853 13.8063L308.213 12.7863H292.673C293.513 13.4463 294.293 14.2263 295.013 15.0663C296.393 16.6263 296.453 18.3063 295.553 19.6263H306.053C306.713 17.7663 307.373 15.7263 307.853 13.8063ZM287.213 31.6863C290.933 29.5863 291.773 28.0863 292.133 24.7863H287.393C286.973 24.7863 286.673 25.0863 286.673 25.5063V32.0463L287.213 31.6863ZM315.893 25.5063C315.893 25.0863 315.593 24.7863 315.173 24.7863H309.893V25.4463C309.893 27.6063 310.613 28.1463 313.373 28.1463H315.893V25.5063ZM313.013 45.3063C313.013 47.8263 311.633 49.2063 309.113 49.2063H293.573C291.053 49.2063 289.673 47.8263 289.673 45.3063V38.7663C289.673 36.2463 291.053 34.8663 293.573 34.8663H309.113C311.633 34.8663 313.013 36.2463 313.013 38.7663V45.3063ZM304.733 43.5663V40.5063C304.733 40.0863 304.433 39.7863 304.013 39.7863H298.673C298.253 39.7863 297.953 40.0863 297.953 40.5063V43.5663C297.953 43.9863 298.253 44.2863 298.673 44.2863H304.013C304.433 44.2863 304.733 43.9863 304.733 43.5663Z" fill="#594A39"/>
<path d="M361.973 34.3263C358.733 37.6863 354.053 40.9263 349.133 43.4463C346.073 45.0063 343.733 44.1663 342.713 41.2263C341.693 38.3463 342.893 36.4263 346.133 35.5263L348.113 34.9863V19.3263H345.053C343.433 19.3263 342.533 18.4263 342.533 16.8063C342.533 15.1863 343.433 14.2863 345.053 14.2863H348.113V5.16633C348.113 2.58633 349.733 1.20633 352.673 1.20633C355.613 1.20633 357.233 2.58633 357.233 5.16633V14.2863H360.053C361.673 14.2863 362.573 15.1863 362.573 16.8063C362.573 18.4263 361.673 19.3263 360.053 19.3263H357.233V31.9863C358.013 31.6863 358.793 31.3863 359.513 31.0263C360.713 30.4863 361.673 30.6663 362.333 31.6863C362.933 32.6463 362.813 33.4863 361.973 34.3263ZM367.493 22.6863C364.973 22.6863 363.593 21.3063 363.593 18.7863V7.20633C363.593 4.68633 364.973 3.30633 367.493 3.30633H388.433C390.953 3.30633 392.333 4.68633 392.333 7.20633V18.7863C392.333 21.3063 390.953 22.6863 388.433 22.6863H367.493ZM372.113 8.82633V10.7463H383.813V8.82633C383.813 8.40633 383.513 8.10633 383.093 8.10633H372.833C372.413 8.10633 372.113 8.40633 372.113 8.82633ZM372.113 15.1863V17.1663C372.113 17.5863 372.413 17.8863 372.833 17.8863H383.093C383.513 17.8863 383.813 17.5863 383.813 17.1663V15.1863H372.113ZM394.313 29.7063H374.573C374.153 30.4263 373.673 31.1463 373.133 31.8663H391.433C393.953 31.8663 395.453 33.3063 395.273 35.8863C394.853 41.9463 394.373 46.8063 393.893 50.6463C393.053 57.3663 387.113 59.1063 378.773 54.9063C377.513 54.2463 377.033 53.3463 377.453 52.0863C377.813 50.9463 378.773 50.5263 380.273 50.7663C384.833 51.5463 385.793 50.9463 386.153 48.3663C386.513 45.8463 386.993 42.0063 387.233 37.5063C387.233 37.0263 387.053 36.7863 386.573 36.7863H386.393C382.313 46.5663 374.573 53.8263 364.613 57.1263C363.233 57.6063 362.213 57.1263 361.733 55.9263C361.253 54.7863 361.673 53.8263 362.993 53.1063C370.793 48.9063 375.713 43.9263 378.773 36.7863H377.693C373.733 43.4463 367.373 48.7263 359.753 51.5463C358.373 52.0263 357.353 51.5463 356.933 50.4063C356.393 49.2063 356.873 48.3063 358.193 47.5263C363.953 44.4663 367.613 40.9863 370.193 36.7863H368.993C366.053 39.7863 362.513 42.3663 358.853 44.1063C357.473 44.7663 356.393 44.2863 355.853 43.2063C355.313 42.0663 355.553 41.0463 356.813 40.2063C361.133 37.0863 363.893 33.9063 366.053 29.7063H361.613C360.053 29.7063 359.153 28.8063 359.153 27.2463C359.153 25.6863 360.053 24.7863 361.613 24.7863H394.313C395.873 24.7863 396.773 25.6863 396.773 27.2463C396.773 28.8063 395.873 29.7063 394.313 29.7063Z" fill="#594A39"/>
<path d="M45.7633 108.297C47.0883 108.297 47.8303 109.039 47.8303 110.417C47.8303 111.742 47.0883 112.484 45.7633 112.484H27.5313V116.989H41.6823C43.6963 116.989 44.7563 118.102 44.7563 120.063V145.874C44.7563 151.386 39.5093 153.241 32.1953 149.955C31.2413 149.531 30.8173 148.895 31.0293 147.888C31.1883 146.987 31.9303 146.563 32.9903 146.669C37.6013 147.146 38.3963 147.04 38.3963 144.602V121.494C38.3963 121.123 38.1313 120.858 37.7603 120.858H31.9833L32.2483 120.964C34.1033 121.706 34.4213 123.402 33.3083 124.939C32.0363 126.582 30.6583 128.172 29.4923 129.391H34.4743C35.6933 129.391 36.3293 130.08 36.3293 131.246C36.3293 132.412 35.6933 133.101 34.4743 133.101H27.2133V137.182H35.1633C36.3293 137.182 37.0183 137.818 37.0183 138.984C37.0183 140.203 36.3293 140.839 35.1633 140.839H27.2133V147.57C27.2133 149.425 26.0473 150.485 24.0333 150.485C21.9663 150.485 20.8533 149.425 20.8533 147.57V140.839H12.9033C11.6843 140.839 11.0483 140.15 11.0483 138.984C11.0483 137.818 11.6843 137.182 12.9033 137.182H20.8533V133.101H13.5923C12.3733 133.101 11.7373 132.412 11.7373 131.246C11.7373 130.08 12.3733 129.391 13.5923 129.391H17.6733C17.5143 129.179 17.3553 128.914 17.1963 128.649C16.1893 126.688 15.1823 124.939 14.2283 123.402C13.6983 122.501 13.8043 121.759 14.4933 121.176C14.6523 121.017 14.8113 120.911 14.9703 120.858H10.3593C9.98828 120.858 9.72328 121.123 9.72328 121.494V149.107C9.72328 151.015 8.61028 152.022 6.49028 152.022C4.42328 152.022 3.25728 151.015 3.25728 149.107V120.063C3.25728 118.102 4.37028 116.989 6.33128 116.989H20.5883V112.484H2.30328C0.978282 112.484 0.236282 111.742 0.236282 110.417C0.236282 109.039 0.978282 108.297 2.30328 108.297H20.5883V105.064C20.5883 103.05 21.7013 101.884 24.0863 101.884C26.4183 101.884 27.5313 103.05 27.5313 105.064V108.297H45.7633ZM28.3793 122.289C28.5913 121.653 28.9093 121.176 29.3333 120.858H16.2953C16.4543 120.911 16.6133 121.017 16.7723 121.123C18.3623 122.183 20.1113 123.826 21.5423 125.575C22.7613 127.006 22.6553 128.384 21.4363 129.391H25.1993C26.2593 127.536 27.3723 124.939 28.3793 122.289Z" fill="#594A39"/>
<path d="M105.494 145.026C107.72 145.609 108.568 147.146 107.985 149.425C107.455 151.81 105.547 152.234 103.533 151.704C99.1873 150.485 95.2653 148.418 91.9793 145.609C87.6863 148.63 82.5453 150.75 76.7153 151.704C75.6553 151.863 75.0193 151.492 74.7013 150.538C74.4363 149.584 74.8073 148.789 75.9203 148.418C81.0083 146.722 85.0893 144.602 88.3753 141.952C85.4603 138.454 83.3403 134.161 82.2273 129.232H80.4253C79.1533 129.232 78.4643 128.49 78.4643 127.271V127.218C78.3583 127.589 78.1463 127.907 77.7753 128.172C76.6093 129.073 75.1783 130.027 73.6413 130.928V146.298C73.6413 151.386 68.7123 153.559 61.9283 150.538C60.9743 150.114 60.6563 149.425 60.8683 148.471C61.0803 147.57 61.7163 147.146 62.8293 147.252C66.4863 147.57 67.2813 147.146 67.2813 145.026V134.267C66.3273 134.691 65.4263 135.062 64.5253 135.433C62.6703 136.228 61.1333 135.433 60.6033 133.366C60.0733 131.352 60.7623 129.974 62.9353 129.444C64.3663 129.126 65.7973 128.755 67.2813 128.331V117.254H62.6703C61.3983 117.254 60.7623 116.565 60.7623 115.346C60.7623 114.18 61.3983 113.491 62.6703 113.491H67.2813V104.905C67.2813 102.944 68.4473 101.99 70.4613 101.99C72.5283 101.99 73.6413 102.944 73.6413 104.905V113.491H78.0403C79.2593 113.491 80.0013 114.18 80.0013 115.346C80.0013 116.565 79.2593 117.254 78.0403 117.254H73.6413V126.37C74.5423 125.999 75.4433 125.681 76.2383 125.363C77.1923 124.992 77.8813 125.151 78.3053 126.052C78.4113 126.264 78.5173 126.476 78.5173 126.741C78.7293 125.787 79.4183 125.31 80.4253 125.31H99.8233C103.215 125.31 104.54 127.43 103.533 130.292C102.049 134.585 99.6643 138.454 96.5373 141.687C99.1873 143.118 102.155 144.231 105.494 145.026ZM77.5103 121.653C81.1673 118.102 81.5913 115.081 81.5913 107.608C81.5913 105.488 82.7043 104.375 84.7183 104.375H97.5443C99.6643 104.375 100.618 105.488 100.618 107.449V115.134C100.618 116.989 100.883 117.307 102.473 117.36C103.321 117.36 104.169 117.307 105.441 116.989C106.607 116.777 107.561 117.095 107.985 118.738C108.409 120.434 108.038 121.494 106.607 122.024C105.282 122.554 103.904 122.819 102.155 122.819C95.7423 122.66 94.4703 121.547 94.4703 116.724V108.933C94.4703 108.509 94.2053 108.191 93.8343 108.191H88.4813C88.0573 108.191 87.8453 108.562 87.8453 109.092C87.8453 117.042 85.0363 121.759 79.1533 124.568C78.1463 125.045 77.3513 124.727 76.9273 123.879C76.5033 123.084 76.7153 122.395 77.5103 121.653ZM96.0073 129.232H85.6193C87.0503 132.995 89.1703 136.016 91.9263 138.454C93.9933 136.016 95.5303 133.207 96.6433 130.027C96.8023 129.55 96.5373 129.232 96.0073 129.232Z" fill="#594A39"/>
<path d="M162.893 130.292C161.674 130.716 160.402 131.14 159.024 131.511V146.457C159.024 151.651 154.148 153.241 148.53 150.326C147.364 149.796 147.046 149.054 147.311 148.1C147.629 147.199 148.212 146.881 149.325 146.987C152.452 147.411 152.876 147.04 152.876 145.079V132.836C151.286 133.048 149.696 133.26 148.159 133.366C146.251 133.472 144.979 132.677 144.82 130.875C144.661 129.073 145.509 127.907 147.576 127.96H149.113C150.756 126.476 152.558 124.409 154.307 122.024C152.399 122.607 150.438 122.978 148.371 123.243C146.569 123.455 145.191 122.713 145.032 120.964C144.873 119.162 145.668 118.102 147.735 118.155H148.477C149.537 115.823 150.332 113.332 151.074 110.735C151.074 110.629 151.127 110.576 151.127 110.47C149.378 110.682 147.735 110.841 146.251 110.894C145.138 110.947 144.449 110.417 144.343 109.516C144.29 108.615 144.661 107.979 145.827 107.767C150.544 106.866 156.692 104.799 160.773 102.891C162.575 101.99 164.112 102.308 165.013 103.951C166.02 105.594 165.649 107.078 163.635 107.82C161.674 108.562 159.13 109.198 156.427 109.675C156.904 110.417 156.851 111.371 156.321 112.378C155.367 114.392 153.936 116.459 152.505 118.102C154.042 118.049 155.526 117.996 157.063 117.837C157.858 116.512 158.653 115.081 159.289 113.65C160.243 111.636 161.78 111.212 163.529 112.007C165.225 112.855 165.649 114.445 164.43 116.406C161.78 120.805 158.07 124.939 154.254 127.854C156.904 127.748 159.448 127.483 161.992 127.165C161.674 126.211 161.303 125.257 160.985 124.409C160.72 123.455 160.985 122.766 161.727 122.395C162.522 122.024 163.211 122.236 163.794 122.978C165.49 125.204 167.133 128.066 168.087 130.769C168.67 132.465 168.14 133.684 166.55 134.267C164.96 134.797 163.794 134.108 163.37 132.306L162.893 130.292ZM142.647 132.147H136.552V148.842C136.552 150.697 135.439 151.704 133.425 151.704C131.411 151.704 130.298 150.697 130.298 148.842V132.147H122.984C121.818 132.147 121.129 131.511 121.129 130.345C121.129 129.179 121.818 128.596 122.984 128.596H124.362V107.714C124.362 105.7 125.475 104.64 127.489 104.64H139.149C141.11 104.64 142.223 105.7 142.223 107.714V128.596H142.647C143.866 128.596 144.502 129.232 144.502 130.345C144.502 131.458 143.866 132.147 142.647 132.147ZM130.245 108.774V110.682H136.446V108.774C136.446 108.403 136.181 108.138 135.81 108.138H130.881C130.51 108.138 130.245 108.403 130.245 108.774ZM130.245 114.021V116.618H136.446V114.021H130.245ZM130.245 119.957V122.554H136.446V119.957H130.245ZM130.245 125.893V128.596H136.446V125.893H130.245ZM142.859 144.125C141.216 144.867 139.997 144.284 139.467 142.429C138.778 140.309 138.036 138.083 137.347 136.334C137.029 135.433 137.241 134.744 137.983 134.32C138.778 133.896 139.414 134.108 140.05 134.797C141.746 136.546 143.018 138.56 143.972 140.468C144.82 142.058 144.396 143.383 142.859 144.125ZM128.072 134.267C129.768 134.585 130.298 135.857 129.874 137.553C128.761 142.058 126.694 146.563 123.938 149.531C123.196 150.379 122.401 150.432 121.712 149.955C120.97 149.425 120.864 148.577 121.288 147.729C122.931 144.602 124.097 140.415 124.892 136.334C125.263 134.479 126.482 133.949 128.072 134.267ZM168.352 144.496C169.094 146.404 168.67 147.782 166.868 148.524C165.066 149.213 163.529 148.524 163.052 146.404C162.257 143.383 161.038 139.673 159.766 136.493C159.395 135.592 159.66 134.903 160.402 134.479C161.091 134.055 161.886 134.214 162.522 134.956C164.748 137.5 167.133 141.21 168.352 144.496ZM150.279 134.585C151.975 135.062 152.399 136.493 151.657 138.401C150.173 142.535 147.258 146.722 144.025 149.372C143.283 150.008 142.488 150.008 141.852 149.425C141.216 148.789 141.216 148.047 141.799 147.252C144.078 144.125 145.721 140.362 146.728 136.546C147.258 134.744 148.53 134.108 150.279 134.585Z" fill="#594A39"/>
</svg>
