<svg width="1006" height="87" viewBox="0 0 1006 87" fill="none" xmlns="http://www.w3.org/2000/svg">
<path d="M45.8425 7.31543C49.2625 8.75543 50.1626 11.6354 48.4525 15.2354C46.1125 20.2754 43.1426 25.0454 39.8125 29.5454H45.2126C47.5525 29.5454 48.9925 30.9854 48.9925 33.5054C48.9925 36.1154 47.6425 37.6454 45.2126 37.6454H32.7925C30.9925 39.5354 29.1025 41.2454 27.2125 42.9554H39.7225C43.5026 42.9554 45.5726 45.0254 45.5726 48.8054V80.3954C45.5726 83.9054 43.3225 85.7954 39.2725 85.7954C35.2225 85.7954 32.9725 83.9054 32.9725 80.3954V79.1354H22.3525V80.8454C22.3525 84.3554 20.1925 86.1554 16.1425 86.1554C12.0025 86.1554 9.57255 84.3554 9.57255 80.8454V54.5654C8.04255 55.2854 6.51255 55.9154 4.98255 56.5454C2.73255 57.4454 1.11255 56.9054 0.302547 55.0154C-0.417453 53.3054 0.122547 51.5954 2.19255 50.4254C9.03255 46.5554 14.7025 42.4154 19.5625 37.6454H4.53255C2.19255 37.6454 0.842547 36.1154 0.842547 33.5054C0.842547 31.0754 2.19255 29.5454 4.53255 29.5454H15.3325V21.0854H7.32255C4.98255 21.0854 3.63255 19.7354 3.63255 17.1254C3.63255 14.5154 4.98255 13.1654 7.32255 13.1654H15.3325V7.58543C15.3325 4.34543 17.5825 2.09543 21.8125 2.09543C26.0425 2.09543 28.2925 4.34543 28.2925 7.58543V13.1654H36.4825C36.8425 12.2654 37.2925 11.4554 37.6525 10.5554C39.3625 6.68543 42.3326 5.87543 45.8425 7.31543ZM72.2126 37.8254C79.5025 46.1954 82.2925 53.7554 82.2026 61.3154C82.0226 73.4654 73.2925 75.5354 63.6625 70.8554C63.3025 70.6754 62.9425 70.4954 62.6726 70.2254V80.4854C62.6726 83.9954 60.4225 85.9754 56.3726 85.9754C52.3225 85.9754 50.0725 83.9954 50.0725 80.4854V8.48543C50.0725 4.97543 52.3225 2.81543 56.3726 2.81543C59.5225 2.81543 61.5925 4.07543 62.3125 6.32543H68.7925C70.6825 4.25543 74.5525 3.62543 77.6125 4.88543C80.8525 6.23543 82.0225 8.93543 80.9426 13.9754C79.3225 21.4454 75.4525 30.2654 72.0325 35.9354C71.6725 36.4754 71.7626 37.2854 72.2126 37.8254ZM65.4625 63.9254C70.0526 64.6454 70.5926 63.6554 70.5926 59.6954C70.5926 55.0154 68.9725 46.9154 65.5526 40.2554C64.2025 37.6454 64.2026 35.8454 65.1026 32.7854C66.7225 27.1154 68.2525 20.5454 68.9725 14.8754C69.0625 14.1554 68.6125 13.7054 67.8925 13.7054H62.6726V64.2854C63.3925 63.8354 64.2925 63.7454 65.4625 63.9254ZM32.3425 21.0854H28.2925V27.3854C29.7325 25.4054 30.9925 23.3354 32.3425 21.0854ZM32.9725 51.4154C32.9725 50.7854 32.5225 50.3354 31.8925 50.3354H23.4325C22.8025 50.3354 22.3525 50.7854 22.3525 51.4154V57.2654H32.9725V51.4154ZM22.3525 71.7554H32.9725V64.4654H22.3525V71.7554Z" fill="#594A39"/>
<path d="M175.893 70.2254C181.653 70.2254 184.173 73.3754 183.813 78.1454C183.453 83.0954 180.573 84.9854 174.813 84.8954C163.653 84.7154 150.153 82.1954 137.913 77.2454C131.253 82.4654 121.803 85.7054 108.663 86.3354C106.323 86.4254 105.153 85.2554 104.883 83.2754C104.613 81.3854 105.603 79.7654 107.943 79.3154C116.583 77.6954 122.703 75.2654 127.023 71.9354C122.163 69.1454 117.753 65.9054 113.973 62.2154C112.443 60.6854 112.443 58.3454 113.883 56.7254C115.233 55.2854 116.583 54.9254 119.103 56.3654C124.233 59.2454 129.093 61.5854 133.953 63.4754C135.213 60.8654 136.023 57.8954 136.563 54.6554H119.823C115.053 54.6554 113.973 52.5854 113.973 48.8054V24.7754C113.973 20.9954 116.043 18.9254 119.823 18.9254H137.463V13.4354H111.183C108.483 13.4354 106.953 11.9054 106.953 9.20543C106.953 6.50543 108.483 4.97543 111.183 4.97543H177.963C180.663 4.97543 182.193 6.50543 182.193 9.20543C182.193 11.9054 180.663 13.4354 177.963 13.4354H152.043V18.9254H169.863C173.823 18.9254 175.713 20.9954 175.713 24.7754V48.8054C175.713 52.5854 173.643 54.6554 169.863 54.6554H150.783C149.883 59.2454 148.443 63.4754 146.373 67.2554C155.463 69.4154 165.003 70.2254 175.893 70.2254ZM127.653 27.7454V32.9654H137.463V26.6654H128.733C128.103 26.6654 127.653 27.1154 127.653 27.7454ZM160.953 26.6654H152.043V32.9654H162.033V27.7454C162.033 27.1154 161.583 26.6654 160.953 26.6654ZM128.733 46.9154H137.283C137.373 44.8454 137.463 42.7754 137.463 40.5254H127.653V45.8354C127.653 46.4654 128.103 46.9154 128.733 46.9154ZM162.033 45.8354V40.5254H152.043C152.043 42.6854 151.953 44.8454 151.773 46.9154H160.953C161.583 46.9154 162.033 46.4654 162.033 45.8354Z" fill="#594A39"/>
<path d="M285.513 28.1054C285.513 30.6254 284.163 31.9754 281.643 31.9754H231.783C231.153 31.9754 230.703 32.6054 230.703 33.6854C230.703 64.9154 225.303 76.6154 213.333 84.8954C211.443 86.1554 210.093 86.3354 208.653 85.0754C207.213 83.8154 207.123 82.1954 208.203 80.3954C214.233 70.6754 216.663 61.4954 216.753 32.8754C215.673 33.3254 214.683 33.8654 213.603 34.3154C211.443 35.3954 209.823 35.0354 208.743 33.2354C207.663 31.5254 208.023 29.9054 209.823 28.3754C217.023 22.9754 222.873 15.5054 227.103 5.06543C228.723 1.10543 232.593 -0.424571 236.733 1.37543C240.063 2.81543 241.773 5.33543 240.423 9.38543H255.993C258.693 6.68543 262.473 6.32543 265.443 7.94543C269.313 10.0154 270.123 14.6054 267.783 17.9354C266.163 20.0954 264.273 22.2554 262.293 24.2354H281.643C284.163 24.2354 285.513 25.5854 285.513 28.1054ZM229.623 24.2354H251.133C252.483 22.1654 253.563 20.2754 254.553 18.1154C254.913 17.3954 254.553 16.9454 253.833 16.9454H236.283C234.393 19.6454 232.053 22.0754 229.623 24.2354ZM284.433 59.5154C287.673 75.6254 285.153 82.5554 276.063 83.0054C267.063 83.4554 257.883 83.4554 250.503 83.0954C237.003 82.3754 235.383 78.7754 235.383 68.6054V43.3154C235.383 39.5354 237.453 37.4654 241.233 37.4654H269.493C273.273 37.4654 275.343 39.5354 275.343 43.4054C275.343 48.8054 275.073 52.6754 274.713 56.1854C273.813 65.1854 265.173 67.2554 254.193 62.9354C252.303 62.2154 251.583 60.5954 251.943 58.6154C252.303 56.7254 253.653 56.0954 255.993 56.1854C260.133 56.4554 261.123 56.0054 261.303 53.6654C261.573 50.3354 261.663 48.4454 261.663 46.1054C261.663 45.3854 261.123 45.0254 260.493 45.0254H250.143C249.513 45.0254 249.063 45.4754 249.063 46.1054V65.0954C249.063 69.5954 250.323 70.4054 255.273 70.8554C260.943 71.3954 267.513 71.3054 272.823 70.6754C276.693 70.2254 277.683 69.5054 277.863 59.5154C277.863 57.4454 279.033 56.4554 280.833 56.4554C282.723 56.4554 283.983 57.2654 284.433 59.5154Z" fill="#594A39"/>
<path d="M386.133 33.1454C388.563 33.1454 389.913 34.6754 389.913 37.3754C389.913 40.0754 388.563 41.6054 386.133 41.6054H360.663C355.533 46.4654 350.043 50.6954 344.103 54.4754V58.2554C352.293 55.2854 359.493 51.2354 366.153 46.1954C370.203 43.1354 374.163 43.9454 376.593 47.3654C379.203 51.0554 378.123 54.7454 373.623 56.9954C364.983 61.4054 354.633 63.9254 344.103 65.1854C344.193 69.7754 345.003 70.7654 350.403 71.0354C357.063 71.3954 363.903 71.1254 371.283 70.7654C376.233 70.4954 377.223 69.3254 377.223 61.4054C377.223 58.9754 378.303 57.8054 380.103 57.7154C381.993 57.6254 383.253 58.7054 383.703 60.7754C387.213 76.5254 384.963 82.6454 373.803 83.2754C364.533 83.8154 356.883 83.9954 346.353 83.4554C332.673 82.7354 329.703 80.2154 329.703 68.1554V62.0354C324.483 64.2854 318.993 66.1754 313.323 67.7054C311.073 68.3354 309.543 67.5254 309.003 65.6354C308.463 63.7454 309.093 62.2154 311.343 61.3154C317.913 58.7054 324.033 55.7354 329.703 52.2254V50.6954C329.703 46.5554 332.223 44.3954 336.903 44.3954C338.163 44.3954 339.243 44.5754 340.233 44.8454C341.493 43.8554 342.753 42.6854 344.013 41.6054H313.233C310.803 41.6054 309.453 40.0754 309.453 37.3754C309.453 34.6754 310.803 33.1454 313.233 33.1454H336.453V21.8954H322.323C319.893 21.8954 318.633 20.4554 318.633 17.7554C318.633 15.0554 319.893 13.6154 322.323 13.6154H336.453V7.76543C336.453 3.62543 338.973 1.46543 343.653 1.46543C348.333 1.46543 350.853 3.62543 350.853 7.76543V13.6154H361.293C363.003 13.6154 364.083 14.3354 364.623 15.5954C365.433 14.1554 366.243 12.6254 367.053 11.0954C369.573 6.23543 373.713 5.42543 377.943 7.76543C381.993 10.0154 382.713 13.7954 379.383 19.0154C376.143 24.0554 372.633 28.8254 368.853 33.1454H386.133ZM350.853 21.8954V33.1454H352.293C355.353 29.7254 358.143 25.9454 360.753 21.8954H350.853Z" fill="#594A39"/>
<path d="M488.553 74.9954C491.073 74.9954 492.423 76.3454 492.423 78.8654C492.423 81.3854 491.073 82.7354 488.553 82.7354H415.833C413.313 82.7354 411.963 81.3854 411.963 78.8654C411.963 76.3454 413.313 74.9954 415.833 74.9954H444.993V71.1254H421.773C419.343 71.1254 417.993 69.7754 417.993 67.3454C417.993 64.9154 419.343 63.5654 421.773 63.5654H444.993V59.7854H426.993C423.213 59.7854 421.143 57.7154 421.143 53.9354V34.6754C421.143 30.8954 423.213 28.8254 426.993 28.8254H444.993V25.2254H417.273C414.753 25.2254 413.403 23.8754 413.403 21.3554C413.403 18.8354 414.753 17.4854 417.273 17.4854H444.993V14.3354C437.433 14.4254 429.873 14.2454 423.123 13.7954C420.783 13.6154 419.793 12.5354 419.793 10.5554C419.793 8.66543 420.603 7.49543 423.033 7.40543C438.333 7.04543 458.763 4.79543 473.613 0.925433C477.753 -0.154569 480.543 1.19543 481.533 5.15543C482.523 9.29543 480.633 11.9054 476.223 12.4454C471.183 13.0754 465.423 13.6154 459.393 13.8854V17.4854H487.293C489.813 17.4854 491.163 18.8354 491.163 21.3554C491.163 23.8754 489.813 25.2254 487.293 25.2254H459.393V28.8254H477.393C481.173 28.8254 483.243 30.8954 483.243 34.6754V53.9354C483.243 57.7154 481.173 59.7854 477.393 59.7854H459.393V63.5654H482.613C485.043 63.5654 486.393 64.9154 486.393 67.3454C486.393 69.7754 485.043 71.1254 482.613 71.1254H459.393V74.9954H488.553ZM435.003 37.4654V40.5254H444.993V36.3854H436.083C435.453 36.3854 435.003 36.8354 435.003 37.4654ZM468.303 36.3854H459.393V40.5254H469.383V37.4654C469.383 36.8354 468.933 36.3854 468.303 36.3854ZM436.083 52.2254H444.993V47.9054H435.003V51.1454C435.003 51.7754 435.453 52.2254 436.083 52.2254ZM469.383 51.1454V47.9054H459.393V52.2254H468.303C468.933 52.2254 469.383 51.7754 469.383 51.1454Z" fill="#594A39"/>
<path d="M544.443 19.9154H558.663V15.5954H549.393C547.143 15.5954 545.883 14.3354 545.883 12.0854C545.883 9.83543 547.143 8.57543 549.393 8.57543H558.033V6.86543C558.033 3.08543 560.373 1.19543 564.603 1.19543C568.833 1.19543 571.173 2.81543 571.173 6.86543V8.57543H582.423C586.203 8.57543 588.273 10.6454 588.273 14.4254V19.9154H591.963C594.303 19.9154 595.563 21.1754 595.563 23.5154C595.563 25.8554 594.303 27.1154 591.963 27.1154H588.273V33.0554C588.273 36.8354 586.203 38.9054 582.423 38.9054H571.803V43.0454H584.583C586.833 43.0454 588.093 44.3054 588.093 46.5554C588.093 48.8054 586.833 50.0654 584.583 50.0654H571.803V54.2954H589.353C591.693 54.2954 592.953 55.6454 592.953 57.8954C592.953 60.1454 591.693 61.4954 589.353 61.4954H571.803V65.0954C571.803 68.4254 569.553 70.7654 565.233 70.7654C561.003 70.7654 558.663 68.4254 558.663 65.0954V61.4954H545.613C543.363 61.4954 542.013 60.1454 542.013 57.8954C542.013 55.6454 543.363 54.2954 545.613 54.2954H558.663V50.0654H548.583C546.242 50.0654 545.073 48.8054 545.073 46.5554C545.073 44.3054 546.242 43.0454 548.583 43.0454H558.663V38.9054H550.293C548.043 38.9054 546.783 37.6454 546.783 35.3054C546.783 33.1454 548.043 31.8854 550.293 31.8854H558.663V27.1154H544.443C542.103 27.1154 540.843 25.8554 540.843 23.5154C540.843 21.1754 542.103 19.9154 544.443 19.9154ZM595.563 76.7054C595.833 81.1154 592.953 83.5454 587.823 83.9954C581.073 84.6254 572.883 84.8054 565.413 84.0854C550.833 82.7354 540.123 79.6754 532.473 73.8254C528.963 78.2354 524.643 81.7454 519.693 84.7154C517.713 85.8854 516.273 85.6154 515.103 83.9954C513.933 82.3754 514.203 80.7554 515.913 79.2254C519.873 75.7154 523.023 71.6654 525.633 66.8954C522.123 62.1254 519.423 56.0954 517.533 48.6254C516.903 46.1954 517.803 44.5754 519.783 43.8554C521.673 43.1354 523.203 44.2154 524.103 46.4654C525.813 50.7854 527.613 54.3854 529.683 57.3554C531.213 52.4054 532.383 46.8254 533.013 40.5254C533.103 39.8054 532.653 39.2654 531.933 39.2654H528.153C526.083 42.0554 523.563 43.3154 520.503 41.6954C517.533 40.1654 516.813 37.6454 518.793 33.9554C522.213 27.6554 525.813 20.5454 527.973 14.1554C528.243 13.4354 527.793 12.9854 527.073 12.9854H518.883C516.453 12.9854 515.103 11.6354 515.103 9.20543C515.103 6.77543 516.453 5.42543 518.883 5.42543H536.343C540.843 5.42543 543.183 8.39543 541.653 12.7154C539.223 19.5554 536.163 26.0354 532.923 31.7054H539.403C543.273 31.7054 545.253 34.0454 544.893 38.0054C543.813 49.1654 541.473 58.1654 537.873 65.3654C544.443 69.4154 553.443 71.1254 567.393 71.7554C573.243 72.0254 581.433 71.5754 587.283 70.8554C592.323 70.2254 595.293 71.9354 595.563 76.7054ZM571.803 15.5954V19.9154H577.113V16.6754C577.113 16.0454 576.663 15.5954 576.033 15.5954H571.803ZM571.803 27.1154V31.8854H576.033C576.663 31.8854 577.113 31.4354 577.113 30.8054V27.1154H571.803Z" fill="#594A39"/>
<path d="M642.182 10.1054C641.193 14.8754 639.482 20.2754 637.323 25.6754V80.2154C637.323 84.2654 634.982 85.9754 630.753 85.9754C626.523 85.9754 624.182 84.2654 624.182 80.2154V48.8054C623.463 49.7054 622.742 50.6054 621.932 51.4154C620.672 52.9454 618.513 52.7654 617.343 51.6854C616.083 50.5154 615.903 49.1654 616.803 47.4554C623.733 34.8554 626.432 21.6254 628.682 7.13543C629.583 2.27543 632.643 0.925433 637.143 1.55543C640.293 2.00543 642.183 3.89543 642.543 6.59543C642.993 5.60543 643.983 5.15543 645.333 5.15543H689.433C691.593 5.15543 692.763 6.23543 692.763 8.30543C692.763 10.4654 691.593 11.6354 689.433 11.6354H672.603C672.063 12.3554 671.433 12.9854 670.803 13.6154H681.783C685.293 13.6154 687.182 15.5054 687.182 19.0154V35.4854H689.073C692.583 35.4854 694.473 37.3754 694.473 40.8854V44.6654C694.473 47.3654 693.302 48.8054 691.143 49.3454C691.413 49.7054 691.683 49.9754 691.863 50.2454C693.843 52.5854 693.393 54.9254 690.872 56.4554C688.443 57.9854 686.283 57.2654 685.023 54.4754C684.122 52.1354 682.773 49.4354 681.333 46.8254C680.703 45.5654 680.883 44.5754 681.872 43.7654C682.323 43.4054 682.862 43.2254 683.312 43.1354V42.6854C683.312 42.0554 682.863 41.6054 682.233 41.6054H666.393C668.193 41.9654 670.263 42.6854 671.973 43.4954C674.133 44.4854 674.943 45.9254 673.863 48.0854C672.693 50.2454 670.982 50.6954 669.003 49.3454C667.023 47.9954 664.953 46.7354 663.242 45.7454C662.073 45.1154 661.803 43.9454 662.163 42.7754C662.343 42.2354 662.613 41.8754 662.973 41.6054H651.363C650.733 41.6054 650.283 42.0554 650.283 42.6854V43.5854C650.553 43.5854 650.913 43.6754 651.273 43.7654C652.533 44.1254 652.983 45.2054 652.713 46.7354C652.173 50.0654 651.273 53.7554 650.013 56.2754C648.663 58.9754 646.503 59.4254 644.163 57.9854C641.733 56.4554 641.643 54.0254 643.533 51.8654C643.983 51.3254 644.433 50.8754 644.793 50.3354H644.703C641.103 50.3354 639.122 48.8954 639.122 45.2954V40.8854C639.122 37.3754 641.013 35.4854 644.523 35.4854H646.143V19.0154C646.143 15.5054 648.033 13.6154 651.543 13.6154H660.633C660.723 12.9854 660.812 12.2654 660.812 11.6354H645.333C643.713 11.6354 642.723 10.9154 642.273 9.74543L642.182 10.1054ZM675.483 20.4554C675.483 19.8254 675.033 19.3754 674.403 19.3754H658.923C658.293 19.3754 657.843 19.8254 657.843 20.4554V21.1754H675.483V20.4554ZM657.843 26.3954V28.2854H675.483V26.3954H657.843ZM657.843 35.4854H675.483V33.5054H657.843V35.4854ZM690.243 73.9154C694.113 74.0954 695.823 76.1654 695.283 80.3954C694.743 84.6254 691.773 85.7054 687.903 85.1654C680.883 84.1754 674.763 82.5554 669.453 80.3954C662.432 83.2754 653.703 85.0754 642.723 85.8854C640.653 86.0654 639.393 85.1654 639.033 83.3654C638.763 81.3854 639.753 80.2154 641.823 79.8554C648.753 78.6854 654.783 77.2454 659.823 75.2654C657.482 73.7354 655.413 71.9354 653.613 70.1354C650.823 71.8454 647.852 73.3754 644.883 74.4554C642.992 75.1754 641.553 74.6354 640.743 73.0154C639.933 71.4854 640.472 69.9554 642.182 68.8754C647.763 65.1854 652.172 61.7654 655.682 56.0954C654.062 55.1054 653.432 53.5754 653.432 51.3254V46.4654C653.432 43.6754 655.053 42.0554 657.843 42.0554C660.453 42.0554 662.253 43.4954 662.253 46.3754V48.2654C662.253 49.7054 662.883 50.3354 664.953 50.4254C669.093 50.6954 671.073 50.6954 673.683 50.3354C675.123 50.1554 675.843 49.5254 675.843 47.4554C675.843 45.7454 676.743 44.9354 678.093 44.9354C679.533 44.9354 680.433 45.8354 680.793 47.6354C682.053 54.1154 679.893 56.8154 675.573 57.2654C673.052 57.5354 669.813 57.6254 666.303 57.6254L665.403 58.9754H681.333C687.633 58.9754 689.703 64.1954 686.103 68.4254C684.663 70.1354 683.133 71.7554 681.513 73.1954C684.213 73.4654 687.093 73.7354 690.243 73.9154ZM658.833 66.2654C662.073 68.1554 665.313 69.5954 668.913 70.6754C670.623 69.5054 672.062 68.1554 673.323 66.7154C673.953 65.9054 673.503 65.2754 672.603 65.2754H660.003C659.643 65.6354 659.283 65.9054 658.833 66.2654Z" fill="#594A39"/>
<path d="M724.623 15.3254C722.283 15.3254 720.933 13.9754 720.933 11.5454C720.933 9.11543 722.283 7.76543 724.623 7.76543H752.613V7.40543C752.613 3.17543 755.133 1.28543 759.813 1.28543C764.493 1.28543 767.013 3.17543 767.013 7.40543V7.76543H795.183C797.523 7.76543 798.873 9.11543 798.873 11.5454C798.873 13.9754 797.523 15.3254 795.183 15.3254H767.013V17.8454H786.003C789.783 17.8454 791.853 19.9154 791.853 23.6954V39.4454C791.853 42.6854 790.323 44.6654 787.443 45.2054C789.963 46.5554 792.483 48.3554 794.913 50.3354C797.973 52.8554 798.333 55.5554 795.633 58.1654C793.023 60.6854 790.143 60.4154 787.713 57.3554L784.293 53.1254C777.903 54.8354 770.793 56.0954 762.963 57.0854C765.033 57.8054 767.103 58.7954 769.083 59.8754C772.503 61.7654 773.403 65.0954 770.973 68.0654C768.633 70.9454 765.303 71.2154 762.693 68.2454C760.533 65.8154 758.103 63.5654 755.403 61.3154C754.413 60.5054 754.053 59.2454 754.323 58.0754C746.763 58.7054 738.573 59.2454 729.663 59.6054C725.163 59.7854 722.733 57.5354 722.733 53.6654C722.733 49.8854 724.533 47.6354 729.123 47.9054C735.873 48.3554 744.153 48.4454 752.613 48.4454V45.1154H733.983C730.203 45.1154 728.133 43.0454 728.133 39.2654V23.6954C728.133 19.9154 730.203 17.8454 733.983 17.8454H752.613V15.3254H724.623ZM741.813 26.1254V28.1054H752.613V25.0454H742.893C742.263 25.0454 741.813 25.4954 741.813 26.1254ZM777.093 25.0454H767.013V28.1054H778.173V26.1254C778.173 25.4954 777.723 25.0454 777.093 25.0454ZM742.893 37.9154H752.613V34.7654H741.813V36.8354C741.813 37.4654 742.263 37.9154 742.893 37.9154ZM778.173 36.8354V34.7654H767.013V37.9154H777.093C777.723 37.9154 778.173 37.4654 778.173 36.8354ZM767.013 45.2954V48.0854C771.243 47.9954 775.383 47.8154 779.163 47.6354C778.983 47.3654 778.713 47.1854 778.533 47.0054C777.993 46.4654 777.633 45.9254 777.543 45.2954H767.013ZM798.603 71.5754C801.213 75.2654 800.313 79.2254 796.533 81.1154C792.573 83.0954 790.143 81.2954 788.613 76.9754C787.083 72.5654 785.193 68.5154 783.033 64.0154C782.223 62.3054 782.403 60.8654 783.843 59.7854C785.283 58.7054 786.543 58.8854 788.073 60.0554C791.943 63.0254 795.453 67.0754 798.603 71.5754ZM778.083 62.9354C780.153 62.8454 781.143 64.0154 781.773 65.9054C785.283 76.4354 783.933 82.9154 773.853 83.4554C765.123 83.9054 759.093 83.9054 752.343 83.5454C741.273 83.0954 737.763 80.5754 737.763 73.2854V65.9954C737.763 61.9454 740.193 60.0554 744.693 60.1454C749.193 60.2354 751.623 61.9454 751.623 65.9954V68.1554C751.623 70.8554 752.433 72.1154 756.213 72.3854C760.083 72.6554 764.853 72.5654 770.883 72.2054C774.213 72.0254 774.933 71.3954 774.933 66.1754C774.933 63.9254 776.193 63.0254 778.083 62.9354ZM732.813 62.1254C734.883 62.9354 735.423 63.9254 735.243 65.9054C734.793 71.3054 733.353 75.5354 730.833 80.2154C729.123 83.3654 725.253 84.7154 721.833 82.0154C718.593 79.4954 718.773 75.8954 721.743 73.1054C724.443 70.5854 727.143 67.0754 728.763 64.1054C729.753 62.3054 731.013 61.4054 732.813 62.1254Z" fill="#594A39"/>
<path d="M826.143 27.3854C823.983 28.0154 822.633 27.4754 821.823 25.8554C821.103 24.2354 821.643 22.7054 823.443 21.6254C830.283 17.5754 836.493 11.3654 841.623 4.52543C844.413 0.835428 847.833 0.0254282 851.523 2.27543C854.583 4.25543 855.033 8.03543 852.153 11.2754C850.893 12.7154 849.363 14.1554 847.743 15.5954V27.9254C847.743 32.2454 845.403 33.7754 841.083 33.7754C836.763 33.7754 834.423 32.2454 834.423 27.9254V24.1454C831.723 25.4054 828.932 26.5754 826.143 27.3854ZM860.163 14.8754C859.173 13.2554 858.362 11.5454 857.643 9.74543C856.023 5.69543 856.923 3.26543 860.163 1.91543C863.403 0.565432 866.193 1.91543 867.993 5.51543C869.523 8.48543 871.143 10.9154 872.853 13.0754C875.733 12.7154 878.613 12.2654 881.493 11.8154C878.613 10.1054 875.733 8.57543 873.303 7.04543C871.593 5.96543 871.053 4.70543 871.683 3.17543C872.313 1.64543 873.663 1.10543 875.463 1.46543C879.062 2.18543 882.753 3.26543 886.083 4.43543C889.323 5.60543 890.223 8.03543 888.603 10.5554C888.513 10.6454 888.423 10.7354 888.423 10.8254L894.453 10.0154C896.612 9.74543 897.963 10.8254 898.233 12.9854C898.503 15.2354 897.513 16.4954 895.263 16.8554L879.243 19.1054C882.213 21.2654 885.362 22.7054 888.513 23.5154C891.213 24.2354 893.643 24.5954 893.913 20.9954C894.093 18.8354 894.903 17.9354 896.523 17.8454C898.233 17.7554 899.583 18.8354 899.853 20.9954C901.203 31.8854 898.953 35.8454 888.423 34.4954C879.333 33.4154 870.872 28.7354 864.573 21.2654L852.873 22.8854C850.803 23.1554 849.363 22.0754 849.093 19.9154C848.823 17.6654 849.903 16.3154 852.063 16.0454C854.763 15.6854 857.463 15.3254 860.163 14.8754ZM897.153 75.0854C900.843 76.1654 902.553 78.8654 901.293 82.3754C899.943 86.0654 896.973 87.3254 893.193 85.7954C885.813 82.7354 877.173 78.9554 869.793 76.7054C867.723 76.0754 866.913 74.4554 867.363 72.7454C867.543 71.9354 867.903 71.3954 868.443 71.0354H856.023C856.383 71.3954 856.653 71.7554 856.923 72.2954C858.723 75.8054 857.643 78.4154 853.503 79.8554C845.583 82.6454 835.593 84.7154 826.863 85.5254C824.883 85.7054 823.803 84.8054 823.533 83.1854C823.263 81.4754 824.163 80.2154 826.053 79.7654C833.703 77.9654 841.803 74.2754 847.743 71.1254C847.833 71.1254 847.833 71.0354 847.923 71.0354H838.923C835.143 71.0354 833.073 68.9654 833.073 65.1854V40.9754C833.073 37.1954 835.143 35.1254 838.923 35.1254H886.173C889.953 35.1254 892.023 37.1954 892.023 40.9754V65.1854C892.023 68.9654 889.953 71.0354 886.173 71.0354H876.453C883.833 71.8454 891.663 73.4654 897.153 75.0854ZM847.293 42.8654V44.8454H877.803V42.8654C877.803 42.2354 877.353 41.7854 876.723 41.7854H848.373C847.743 41.7854 847.293 42.2354 847.293 42.8654ZM847.293 51.3254V54.2954H877.803V51.3254H847.293ZM847.293 63.1154C847.293 63.7454 847.743 64.1954 848.373 64.1954H876.723C877.353 64.1954 877.803 63.7454 877.803 63.1154V60.7754H847.293V63.1154Z" fill="#594A39"/>
<path d="M1003.17 72.0254C1006.77 75.8054 1006.86 79.8554 1003.08 83.0954C999.753 85.9754 995.343 85.8854 992.193 81.2954C987.333 74.3654 985.083 60.6854 984.993 49.2554C983.733 64.0154 976.533 77.1554 962.673 84.9854C960.423 86.2454 958.623 85.7954 957.453 84.1754C956.283 82.3754 956.823 80.9354 958.623 79.2254C960.783 77.1554 962.673 75.0854 964.293 72.9254C961.413 74.0954 958.803 72.8354 957.993 69.5954C957.183 66.2654 956.283 63.1154 955.113 59.7854C954.573 58.0754 955.113 56.7254 956.553 55.8254C957.813 55.0154 959.343 55.1054 960.693 56.3654C963.123 58.7054 965.553 61.8554 967.263 64.6454C967.713 65.4554 968.073 66.1754 968.253 66.9854C972.573 58.7954 974.193 49.6154 974.193 38.0954V33.7754C974.193 32.7854 974.373 31.8854 974.643 31.0754C973.023 33.6854 971.133 35.9354 969.333 37.9154C967.893 39.3554 966.453 39.5354 965.103 38.6354C963.573 37.6454 963.303 36.2954 964.203 34.5854C967.893 27.9254 969.693 19.1954 970.683 6.95543C970.953 2.90543 973.743 0.925433 978.333 1.55543C982.023 2.09543 983.913 4.61543 983.283 8.48543C982.833 11.2754 982.203 13.8854 981.483 16.4054H992.103C994.173 14.2454 997.413 13.4354 1000.92 15.0554C1004.61 16.7654 1005.51 20.5454 1003.71 24.5054C1000.92 30.3554 998.133 34.4054 994.713 38.1854C993.363 39.7154 991.653 39.9854 990.303 39.0854C988.863 38.0954 988.413 36.7454 989.043 34.9454C990.303 31.4354 991.563 27.7454 992.193 25.1354C992.373 24.4154 992.013 23.9654 991.293 23.9654H978.603C977.703 25.9454 976.713 27.8354 975.633 29.6354C976.803 28.3754 978.693 27.6554 981.213 27.6554C985.713 27.6554 988.233 29.8154 988.233 33.7754V37.2854C989.673 50.5154 993.183 61.4954 1003.17 72.0254ZM929.013 19.0154C926.583 19.0154 925.323 17.7554 925.323 15.3254C925.323 12.8954 926.583 11.6354 929.013 11.6354H939.993V7.49543C939.993 3.53543 942.423 1.46543 946.923 1.46543C951.423 1.46543 953.853 3.53543 953.853 7.49543V11.6354H964.833C967.173 11.6354 968.523 12.8954 968.523 15.3254C968.523 17.7554 967.173 19.0154 964.833 19.0154H953.853V24.3254H961.593C963.933 24.3254 965.283 25.5854 965.283 27.9254C965.283 30.3554 963.933 31.7054 961.593 31.7054H931.893C929.463 31.7054 928.203 30.3554 928.203 27.9254C928.203 25.6754 929.463 24.3254 931.893 24.3254H939.993V19.0154H929.013ZM933.153 35.1254H959.703C962.043 35.1254 963.483 36.3854 963.483 38.7254C963.483 41.1554 962.043 42.5054 959.703 42.5054H933.153C930.723 42.5054 929.373 41.1554 929.373 38.7254C929.373 36.3854 930.723 35.1254 933.153 35.1254ZM964.023 53.5754H953.853V76.0754C953.853 85.8854 942.333 88.0454 933.423 83.1854C931.533 82.1054 931.173 80.6654 931.623 79.0454C932.073 77.5154 933.153 76.9754 934.773 77.0654C939.903 77.4254 940.533 77.1554 940.533 74.3654V53.5754H928.833C926.403 53.5754 925.053 52.2254 925.053 49.7954C925.053 47.4554 926.403 46.1954 928.833 46.1954H964.023C966.453 46.1954 967.803 47.4554 967.803 49.7954C967.803 52.2254 966.453 53.5754 964.023 53.5754ZM935.313 55.1954C939.273 56.1854 939.813 59.0654 939.003 61.8554C937.113 68.4254 932.973 74.9054 929.643 78.3254C928.113 79.7654 926.493 80.1254 924.963 78.9554C923.343 77.8754 923.163 76.3454 924.063 74.5454C926.043 70.6754 927.573 65.1854 928.563 59.2454C929.193 55.7354 931.803 54.2954 935.313 55.1954Z" fill="#594A39"/>
</svg>
