<svg width="875" height="205" viewBox="0 0 875 205" fill="none" xmlns="http://www.w3.org/2000/svg">
<path d="M7.25622 76.1661C3.25622 76.1661 1.09622 74.3261 1.09622 70.3261V30.8861C1.09622 27.5261 2.93622 25.6861 6.29622 25.6861H26.7762V6.64612C26.7762 2.40612 29.0962 0.246124 33.3362 0.246124C37.5762 0.246124 39.8962 2.40612 39.8962 6.64612V25.6861H61.1762C64.5362 25.6861 66.3762 27.5261 66.3762 30.8861V64.7261C66.3762 75.9261 56.7762 79.4461 42.9362 73.0461C41.0962 72.1661 40.6162 70.8061 41.0162 69.1261C41.4162 67.3661 42.6962 66.7261 44.8562 66.9661C53.3362 67.9261 54.0562 66.4061 54.0562 62.0861V33.6861C54.0562 33.1261 53.6562 32.7261 53.0962 32.7261H14.3762C13.8162 32.7261 13.4162 33.1261 13.4162 33.6861V70.3261C13.4162 74.3261 11.2562 76.1661 7.25622 76.1661ZM21.3362 23.6061C18.0562 26.0061 14.7762 25.2061 12.7762 21.1261C10.3762 16.3261 7.57622 11.5261 5.17622 7.76612C4.13622 6.16612 4.37622 4.96613 5.57622 3.76613C6.69622 2.64612 8.05622 2.56612 9.65622 3.52612C13.8962 6.08613 18.9362 10.5661 22.1362 14.7261C24.8562 18.3261 24.6962 21.2061 21.3362 23.6061ZM47.0962 24.5661C45.5762 25.4461 44.1362 25.2061 43.0962 24.0061C41.9762 22.6461 42.0562 21.3661 43.0962 19.9261C45.8962 16.0861 48.2962 12.0061 50.2962 7.60612C52.2162 3.44613 55.3362 2.32613 59.0162 4.40612C62.6162 6.48612 62.9362 10.0061 59.8962 13.7661C56.1362 18.4861 51.2562 22.2461 47.0962 24.5661ZM23.5762 62.5661C20.2162 62.5661 18.3762 60.7261 18.3762 57.3661V42.5661C18.3762 39.2061 20.2162 37.3661 23.5762 37.3661H43.8962C47.2562 37.3661 49.0962 39.2061 49.0962 42.5661V57.3661C49.0962 60.7261 47.2562 62.5661 43.8962 62.5661H23.5762ZM29.8962 54.8861C29.8962 55.4461 30.2962 55.8461 30.8562 55.8461H36.6162C37.1762 55.8461 37.5762 55.4461 37.5762 54.8861V45.0461C37.5762 44.4861 37.1762 44.0861 36.6162 44.0861H30.8562C30.2962 44.0861 29.8962 44.4861 29.8962 45.0461V54.8861Z" fill="#594A39"/>
<path d="M91.9762 13.5261C89.8162 13.5261 88.6162 12.3261 88.6162 10.1661C88.6162 8.00612 89.8162 6.80613 91.9762 6.80613H105.656V6.08612C105.656 2.08612 107.816 0.566125 111.816 0.566125C115.816 0.566125 117.976 2.08612 117.976 6.08612V6.80613H131.496V6.08612C131.496 2.08612 133.656 0.566125 137.656 0.566125C141.656 0.566125 143.816 2.08612 143.816 6.08612V6.80613H157.416C159.576 6.80613 160.776 8.00612 160.776 10.1661C160.776 12.3261 159.576 13.5261 157.416 13.5261H143.816V14.1661C143.816 18.1661 141.656 19.4461 137.656 19.4461C133.656 19.4461 131.496 17.6061 131.496 14.1661V13.5261H117.976V14.1661C117.976 17.6061 115.816 19.4461 111.816 19.4461C107.816 19.4461 105.656 18.1661 105.656 14.1661V13.5261H91.9762ZM157.656 39.5261H148.616V45.8461H154.456C156.616 45.8461 157.736 46.9661 157.736 49.1261C157.736 51.2861 156.616 52.4061 154.456 52.4061H131.016V57.1261H151.256C153.336 57.1261 154.456 58.2461 154.456 60.3261C154.456 62.4061 153.336 63.5261 151.256 63.5261H131.016V70.8061C131.016 74.4861 128.776 76.4061 124.616 76.4061C120.456 76.4061 118.216 74.4861 118.216 70.8061V63.5261H98.1362C96.0562 63.5261 94.9362 62.4061 94.9362 60.3261C94.9362 58.2461 96.0562 57.1261 98.1362 57.1261H118.216V52.4061H94.2162C92.1362 52.4061 90.9362 51.2861 90.9362 49.1261C90.9362 46.9661 92.1362 45.8461 94.2162 45.8461H100.776V39.5261H91.7362C89.6562 39.5261 88.5362 38.4061 88.5362 36.3261C88.5362 34.2461 89.6562 33.1261 91.7362 33.1261H100.776V27.1261H96.0562C93.8962 27.1261 92.7762 25.9261 92.7762 23.8461C92.7762 21.7661 93.8962 20.5661 96.0562 20.5661H153.256C155.416 20.5661 156.536 21.7661 156.536 23.8461C156.536 25.8461 155.416 27.1261 153.256 27.1261H148.616V33.1261H157.656C159.736 33.1261 160.856 34.2461 160.856 36.3261C160.856 38.4061 159.736 39.5261 157.656 39.5261ZM118.216 27.1261H112.296V33.1261H118.216V27.1261ZM131.016 27.1261V33.1261H137.096V27.1261H131.016ZM112.296 45.8461H118.216V39.5261H112.296V45.8461ZM131.016 45.8461H137.096V39.5261H131.016V45.8461Z" fill="#594A39"/>
<path d="M207.096 8.96613C205.736 13.6061 203.816 18.2461 201.576 22.6461V71.3661C201.576 74.8861 199.336 76.8061 195.336 76.8061C191.336 76.8061 189.096 74.8861 189.096 71.3661V40.8861C187.496 42.6461 185.816 44.1661 184.216 45.5261C182.696 46.8061 181.176 46.7261 180.056 45.5261C178.936 44.3261 178.776 42.8861 179.816 41.3661C185.256 33.6861 191.336 19.7661 194.376 5.92612C195.336 1.60613 198.616 0.166125 202.856 1.20613C207.016 2.24612 208.216 5.04612 207.096 8.96613ZM212.216 23.3661C209.576 23.3661 208.136 21.7661 208.136 19.1261C208.136 16.4861 209.656 14.8861 212.216 14.8861H244.376C246.936 14.8861 248.456 16.4861 248.456 19.1261C248.456 21.7661 246.936 23.3661 244.376 23.3661H212.216ZM248.776 61.3661C251.416 61.3661 252.856 63.0461 252.856 65.7661C252.856 68.4861 251.336 70.1661 248.776 70.1661H206.856C204.216 70.1661 202.776 68.4861 202.776 65.7661C202.776 63.0461 204.296 61.3661 206.856 61.3661H248.776Z" fill="#594A39"/>
<path d="M336.216 18.7261C339.576 18.7261 341.416 20.5661 341.416 23.9261V29.9261C341.416 33.0461 339.496 34.8061 335.976 34.8061C335.576 34.8061 335.176 34.8061 334.856 34.7261L335.416 35.4461C337.416 38.0061 336.856 40.4061 334.216 42.0061C331.576 43.6061 329.256 42.7261 327.976 39.7661C326.696 36.8061 325.176 33.6861 323.736 30.9661C322.936 29.4461 323.096 28.2461 324.296 27.2061C325.416 26.2461 326.616 26.3261 327.976 27.3661C328.856 28.0061 329.656 28.8061 330.536 29.6861V26.2461C330.536 25.6861 330.136 25.2861 329.576 25.2861H307.656C309.576 26.0061 311.496 26.9661 313.416 28.0861C315.896 29.5261 316.216 31.7661 314.456 33.8461C312.696 36.0061 310.536 36.2461 308.536 34.0861C307.016 32.4861 305.176 30.8061 303.336 28.9661C302.296 27.9261 302.136 26.8861 302.856 25.6861C302.936 25.5261 303.016 25.3661 303.096 25.2861H284.616C284.056 25.2861 283.656 25.6861 283.656 26.2461V30.4061C283.656 33.6861 281.576 35.2861 278.216 35.2861C274.696 35.2861 272.776 33.6861 272.776 30.4061V23.9261C272.776 20.5661 274.616 18.7261 277.976 18.7261H286.776C286.616 18.4061 286.456 18.0061 286.296 17.5261C285.576 15.3661 284.856 13.3661 283.976 11.3661L280.136 11.1261C278.136 10.9661 277.016 10.0061 277.016 8.16612C277.016 6.32612 277.896 5.36612 280.136 5.28613C300.056 4.72612 316.536 3.04613 330.296 0.166125C333.416 -0.473876 335.736 0.726123 336.296 3.92612C337.016 7.84613 335.256 9.76613 331.816 10.1661C331.496 10.1661 331.176 10.2461 330.776 10.2461C331.896 11.3661 332.136 12.9661 331.016 14.8861C330.216 16.1661 329.016 17.5261 327.576 18.7261H336.216ZM321.496 12.3261L321.976 11.0461C317.976 11.2861 313.656 11.5261 309.256 11.6061C309.896 12.3261 310.536 13.1261 311.176 13.9261C312.616 15.6061 312.616 17.3661 311.496 18.7261H319.496C320.296 16.5661 320.856 14.6461 321.496 12.3261ZM293.576 13.9261C295.016 15.6861 295.176 17.3661 294.136 18.7261H303.976C303.816 18.4061 303.656 18.0861 303.576 17.6861C303.016 15.4461 302.376 13.5261 301.736 11.7661C298.296 11.7661 294.936 11.7661 291.496 11.6861C292.216 12.4061 292.936 13.1261 293.576 13.9261ZM335.576 63.7661C339.336 64.0061 341.336 66.3261 340.856 70.1661C340.296 74.4061 337.976 75.5261 333.816 75.3661C324.376 74.8861 315.736 73.2861 308.376 70.4061C299.656 73.6061 289.176 75.4461 276.536 75.9261C274.616 76.0061 273.496 75.1261 273.256 73.3661C273.016 71.6861 273.816 70.4861 275.736 70.2461C284.936 68.9661 292.376 67.1261 298.456 65.0461C295.496 62.9661 293.016 60.5661 290.936 57.8461C287.336 60.6461 283.256 63.0461 279.096 64.4061C277.176 65.0461 275.896 64.4861 275.176 62.9661C274.456 61.5261 274.856 60.2461 276.376 59.2861C282.856 55.2061 287.576 50.0861 291.656 43.1261C292.056 42.4861 292.536 41.9261 293.256 41.5261C292.216 40.3261 291.816 38.4861 291.816 35.9261V31.1261C291.816 27.8461 293.576 26.6461 296.856 26.6461C300.136 26.6461 301.896 27.8461 301.896 31.2061V33.6061C301.896 35.2861 302.456 36.0061 304.856 36.0861C308.696 36.2461 311.816 36.1661 314.616 35.8461C316.696 35.6061 317.576 34.8861 317.736 31.9261C317.816 30.0861 318.936 29.3661 320.376 29.4461C321.976 29.5261 322.776 30.3261 323.096 32.0061C324.776 40.1661 323.096 43.2861 316.536 43.7661C310.696 44.2461 306.776 44.3261 300.776 43.8461C301.176 44.8061 301.096 45.8461 300.616 46.9661H325.896C331.336 46.9661 333.096 51.9261 329.976 55.6061C327.736 58.2461 325.256 60.6461 322.536 62.7261C326.616 63.1261 330.936 63.4461 335.576 63.7661ZM287.256 42.0061C285.656 44.9661 282.936 45.6861 280.376 43.7661C277.736 41.8461 277.896 39.2061 280.456 36.8061C282.936 34.4861 284.216 31.9261 285.656 28.8861C286.296 27.5261 287.576 26.9661 289.016 27.3661C290.536 27.7661 291.096 28.8061 290.856 30.4861C290.296 34.4861 289.096 38.6461 287.256 42.0061ZM295.256 53.9261C299.256 56.9661 303.816 58.9661 309.096 60.4061C312.376 58.4861 315.016 56.4861 317.016 54.5661C317.736 53.8461 317.336 53.3661 316.456 53.3661H295.816C295.656 53.5261 295.496 53.7661 295.256 53.9261Z" fill="#594A39"/>
<path d="M429.976 61.2061C434.376 64.0061 435.576 67.9261 433.256 72.0061C430.776 76.1661 426.216 76.8061 422.216 73.5261C413.096 66.2461 404.856 53.3661 401.256 38.8061C396.216 57.5261 384.616 69.9261 366.216 76.0061C364.296 76.6461 362.856 75.9261 362.136 74.3261C361.416 72.8061 362.056 71.2861 363.816 70.1661C379.016 60.8061 386.616 48.8061 389.496 29.2061H367.496C365.016 29.2061 363.576 27.8461 363.576 25.2061C363.576 22.5661 365.016 21.2061 367.496 21.2061H390.456C390.536 20.3261 390.536 19.4461 390.616 18.4861C390.936 14.5661 390.936 11.4461 390.936 6.80613C391.016 2.72613 393.576 0.486126 397.816 0.486126C402.216 0.486126 404.616 2.72613 404.616 6.72613C404.616 11.2861 404.616 15.6061 404.056 20.7261V21.2061H429.096C431.656 21.2061 433.016 22.5661 433.016 25.2061C433.016 27.8461 431.656 29.2061 429.096 29.2061H405.256C410.616 43.9261 417.816 53.5261 429.976 61.2061Z" fill="#594A39"/>
<path d="M522.136 53.9261H517.496C516.296 57.1261 514.776 59.9261 512.936 62.4061C515.176 63.2861 517.496 64.3261 519.816 65.4461C523.256 67.1261 524.296 70.1661 522.456 73.2861C520.456 76.7261 517.096 77.0461 513.976 75.0461C510.856 73.0461 507.816 71.2061 504.856 69.6061C498.536 73.3661 490.136 75.5261 479.096 76.1661C477.096 76.2461 476.136 75.1261 475.896 73.4461C475.656 71.7661 476.376 70.4861 478.536 70.1661C485.736 68.9661 491.336 67.2861 495.656 64.7261C494.216 64.0861 492.776 63.4461 491.416 62.8861C491.096 63.2861 490.696 63.6861 490.296 64.0861C488.376 66.0861 485.896 66.8061 483.256 64.9661C480.936 63.3661 480.536 61.1261 482.536 58.7261C483.816 57.1261 485.096 55.5261 486.216 53.9261H480.056C477.896 53.9261 476.776 52.8061 476.776 50.6461C476.776 48.4861 477.896 47.3661 480.056 47.3661H490.456L491.656 45.0461H485.736C482.696 45.0461 480.936 43.6061 480.616 40.8861C480.376 41.1261 480.056 41.2861 479.736 41.5261C477.336 43.1261 474.696 42.0061 473.736 39.3661C473.576 38.8061 473.336 38.3261 473.176 37.8461V71.2061C473.176 74.4861 471.096 76.2461 467.336 76.2461C463.576 76.2461 461.496 74.4861 461.496 71.2061V48.0861C460.536 50.5661 459.416 52.8061 458.136 54.6461C456.936 56.3261 455.736 56.8061 454.216 55.8461C452.776 54.8861 452.456 53.5261 453.256 51.7661C456.536 44.1661 459.176 34.8861 460.456 23.3661H457.496C455.416 23.3661 454.216 22.1661 454.216 20.0861C454.216 18.0061 455.416 16.8061 457.496 16.8061H461.496V5.76612C461.496 2.48612 463.576 0.726122 467.336 0.726122C471.096 0.726122 473.176 2.48612 473.176 5.76612V16.8061H476.296C477.016 16.8061 477.656 16.9661 478.136 17.2061C478.136 15.3661 479.176 14.3261 481.016 14.3261H482.136V11.8461C482.136 8.48612 483.976 6.64612 487.336 6.64612H495.256V5.52612C495.256 2.64612 497.336 0.966124 500.856 0.966124C504.456 0.966124 506.456 2.64612 506.456 5.52612V6.64612H514.456C517.816 6.64612 519.656 8.48612 519.656 11.8461V14.3261H521.096C522.936 14.3261 524.056 15.3661 524.056 17.2061C524.056 19.0461 522.936 20.0861 521.096 20.0861H519.656V22.7261C519.656 26.0861 517.816 27.9261 514.456 27.9261H506.136V30.1661H516.216C519.576 30.1661 521.416 32.0061 521.416 35.3661V39.8461C521.416 43.2061 519.576 45.0461 516.216 45.0461H504.136C503.736 45.8461 503.256 46.5661 502.856 47.3661H522.136C524.296 47.3661 525.416 48.4861 525.416 50.6461C525.416 52.8061 524.296 53.9261 522.136 53.9261ZM491.736 13.0461V14.3261H495.576V12.0861H492.696C492.136 12.0861 491.736 12.4861 491.736 13.0461ZM510.056 13.0461C510.056 12.4861 509.656 12.0861 509.096 12.0861H506.136V14.3261H510.056V13.0461ZM480.616 34.4861C480.856 31.6861 482.696 30.1661 485.736 30.1661H495.576V27.9261H487.336C483.976 27.9261 482.136 26.0861 482.136 22.7261V20.0861H481.016C480.456 20.0861 479.976 20.0061 479.576 19.7661V20.0861C479.576 22.1661 478.376 23.3661 476.296 23.3661H473.176V26.2461C475.656 28.4861 478.216 31.2061 480.616 34.4861ZM491.736 20.0861V21.5261C491.736 22.0861 492.136 22.4861 492.696 22.4861H495.576V20.0861H491.736ZM510.056 21.5261V20.0861H506.136V22.4861H509.096C509.656 22.4861 510.056 22.0861 510.056 21.5261ZM490.696 38.3261C490.696 38.8861 491.096 39.2861 491.656 39.2861H495.256V35.9261H491.656C491.096 35.9261 490.696 36.3261 490.696 36.8861V38.3261ZM506.536 35.9261V39.2861H510.136C510.696 39.2861 511.096 38.8861 511.096 38.3261V36.8861C511.096 36.3261 510.696 35.9261 510.136 35.9261H506.536ZM502.296 58.9661C503.416 57.4461 504.376 55.7661 505.176 53.9261H498.776C497.896 55.1261 497.016 56.3261 496.056 57.5261C498.056 57.9261 500.136 58.4061 502.296 58.9661Z" fill="#594A39"/>
<path d="M550.696 52.8061C547.336 52.8061 545.496 50.9661 545.496 47.6061C545.496 44.2461 547.336 42.4061 550.696 42.4061H570.696C574.056 42.4061 575.896 44.2461 575.896 47.6061C575.896 50.9661 574.056 52.8061 570.696 52.8061H550.696Z" fill="#594A39"/>
<path d="M18.2162 150.086L8.05622 156.086C4.77622 158.006 1.41622 156.486 0.376222 154.006C-0.743778 151.366 0.776222 148.646 3.09622 147.286L17.4962 138.646C20.7762 136.646 24.6162 136.646 27.0162 137.526C30.5362 138.806 31.5762 141.606 31.5762 144.886V191.206C31.5762 195.766 29.2562 198.086 24.8562 198.086C20.6962 198.086 18.2162 195.766 18.2162 191.206V150.086Z" fill="#594A39"/>
<path d="M83.9887 198.246C67.5887 198.246 60.7887 184.726 60.7887 166.646C60.7887 148.806 69.1087 136.886 84.4687 136.886C99.1087 136.886 107.109 148.166 107.029 166.966C106.949 185.126 100.549 198.246 83.9887 198.246ZM84.2287 189.046C90.7887 188.966 92.4687 180.646 92.3087 166.806C92.1487 153.206 90.3087 145.846 84.0687 145.926C77.9887 146.006 75.5887 153.206 75.6687 166.726C75.7487 180.726 77.7487 189.126 84.2287 189.046Z" fill="#594A39"/>
<path d="M194.081 176.166C196.401 176.166 197.681 177.446 197.681 179.766C197.681 182.086 196.401 183.366 194.081 183.366H172.241V198.246C172.241 202.486 169.921 204.326 165.681 204.326C161.441 204.326 159.121 202.486 159.121 198.246V183.366H129.041C126.721 183.366 125.441 182.086 125.441 179.766C125.441 177.446 126.721 176.166 129.041 176.166H138.401V160.246C138.401 156.886 140.241 155.046 143.601 155.046H159.121V145.366H146.961C142.801 152.006 137.361 157.926 132.481 161.046C130.961 162.166 129.601 162.086 128.481 160.806C127.361 159.526 127.281 158.166 128.321 156.726C132.801 150.566 136.081 142.326 138.561 133.286C139.841 128.646 142.961 127.606 147.281 128.646C151.601 129.686 153.041 133.206 150.801 138.246V138.326H192.001C194.241 138.326 195.521 139.606 195.521 141.846C195.521 144.086 194.241 145.366 192.001 145.366H172.241V155.046H187.921C190.161 155.046 191.361 156.246 191.361 158.486C191.361 160.726 190.161 161.926 187.921 161.926H172.241V176.166H194.081ZM159.121 176.166V161.926H151.841C151.281 161.926 150.881 162.326 150.881 162.886V176.166H159.121Z" fill="#594A39"/>
<path d="M286.481 147.846C286.721 168.966 286.401 183.446 285.681 192.966C284.801 204.406 273.921 207.126 259.441 199.686C257.761 198.806 257.201 197.366 257.761 195.686C258.241 194.086 259.521 193.446 261.521 193.766C272.321 195.606 273.521 195.126 273.921 189.526C274.561 179.846 274.641 165.686 274.641 150.566C274.641 149.766 274.161 149.366 273.441 149.366H262.561C259.521 155.526 255.761 161.126 252.241 164.646C251.441 165.446 250.641 165.766 249.841 165.766V198.086C249.841 201.366 247.761 203.126 244.001 203.126C240.241 203.126 238.161 201.366 238.161 198.086V194.486H231.441V198.486C231.441 201.846 229.361 203.606 225.521 203.606C221.681 203.606 219.601 201.846 219.601 198.486V148.646C219.601 145.286 221.441 143.446 224.801 143.446H228.561C228.961 140.246 229.361 136.406 229.521 133.446C229.761 129.766 232.321 128.166 236.321 128.566C240.401 128.966 241.841 131.926 240.801 135.366C239.921 138.246 238.641 141.046 237.201 143.446H244.641C248.001 143.446 249.841 145.286 249.841 148.646V156.726C252.641 150.006 254.401 141.926 255.681 134.006C256.321 129.846 258.801 128.326 262.801 128.966C266.481 129.526 268.321 131.686 267.281 136.246C266.801 138.326 266.161 140.406 265.441 142.486H281.521C284.881 142.486 286.481 144.326 286.481 147.846ZM238.161 151.286C238.161 150.726 237.761 150.326 237.201 150.326H232.401C231.841 150.326 231.441 150.726 231.441 151.286V164.486H238.161V151.286ZM268.481 180.006C265.441 181.606 262.561 181.046 261.041 177.206C259.841 174.166 258.161 169.846 256.401 165.766C255.601 163.926 256.161 162.406 257.681 161.286C259.121 160.166 260.641 160.406 262.161 161.766C265.681 164.886 268.961 169.366 270.641 172.406C272.481 175.766 271.521 178.406 268.481 180.006ZM231.441 187.606H238.161V171.206H231.441V187.606Z" fill="#594A39"/>
<path d="M376.241 178.406C378.481 178.406 379.761 179.606 379.761 181.846C379.761 184.086 378.481 185.286 376.241 185.286H358.881V198.646C358.881 202.326 356.641 204.246 352.481 204.246C348.321 204.246 346.081 202.326 346.081 198.646V185.286H329.201C326.961 185.286 325.681 184.086 325.681 181.846C325.681 179.606 326.961 178.406 329.201 178.406H346.081V176.966C346.081 173.686 348.001 171.686 351.521 171.366C351.361 171.286 351.121 171.126 350.961 170.886C349.921 169.766 349.761 168.486 351.041 166.966C354.321 162.966 356.801 156.566 358.721 149.206C359.201 147.366 360.161 146.326 361.441 145.846H342.641C345.601 146.646 346.401 148.966 345.521 152.166C345.201 153.366 344.721 154.566 344.241 155.846C346.401 157.286 348.321 158.886 349.921 160.806C351.841 163.046 352.161 165.206 349.681 167.206C347.361 169.046 344.801 168.806 343.281 165.926C342.641 164.726 341.921 163.446 341.041 162.166C338.321 166.806 334.881 171.046 332.001 173.366C330.401 174.646 329.041 174.806 327.921 173.606C326.721 172.486 326.561 171.126 327.681 169.606C330.801 165.126 334.001 156.966 335.521 149.606C336.001 147.526 336.961 146.326 338.401 145.846H333.521C331.281 145.846 330.001 144.646 330.001 142.406C330.001 140.166 331.281 138.966 333.521 138.966H345.681V134.566C345.681 130.966 348.001 128.726 352.241 128.726C356.401 128.726 358.801 130.966 358.801 134.566V138.966H371.681C373.921 138.966 375.201 140.166 375.201 142.406C375.201 144.646 373.921 145.846 371.681 145.846H365.361C368.881 146.566 369.601 148.966 368.561 152.326C368.241 153.446 367.761 154.566 367.281 155.686C370.401 158.166 373.281 160.966 375.281 163.766C377.201 166.406 377.361 168.726 374.561 170.726C371.841 172.646 369.281 172.006 367.681 168.726C366.561 166.406 365.361 164.086 364.001 161.766C361.441 165.686 358.161 169.366 354.881 171.286L354.401 171.526C357.361 172.086 358.881 174.006 358.881 176.966V178.406H376.241ZM318.401 142.006C316.481 139.206 314.241 136.486 312.161 134.086C311.041 132.806 311.041 131.126 312.081 129.926C313.201 128.646 314.241 128.726 315.761 129.366C319.201 130.486 322.801 132.566 325.681 134.966C329.041 137.366 329.441 140.566 326.641 143.206C323.921 145.766 320.881 145.366 318.401 142.006ZM322.241 161.926C319.441 164.246 316.481 163.766 314.401 160.086C312.561 156.886 310.401 153.686 308.481 151.046C307.441 149.606 307.521 148.006 308.641 146.806C309.761 145.606 311.041 145.686 312.641 146.486C316.001 148.166 319.521 150.966 322.401 153.606C325.361 156.326 325.201 159.446 322.241 161.926ZM322.961 167.686C324.561 168.166 325.281 169.206 325.041 171.366C324.081 180.006 322.801 189.286 320.961 196.246C319.761 200.726 316.561 202.566 312.641 201.046C308.561 199.446 307.761 196.326 309.761 192.246C312.881 186.166 316.481 178.166 319.441 169.766C320.161 167.926 321.361 167.206 322.961 167.686Z" fill="#594A39"/>
<path d="M469.121 187.366C472.161 189.606 472.321 192.806 470.081 195.606C468.001 198.246 464.961 198.726 462.161 196.086C458.481 192.566 455.601 187.286 453.361 182.006V198.966C453.361 202.326 451.281 204.086 447.441 204.086C443.601 204.086 441.521 202.326 441.521 198.966V185.446C437.601 190.486 432.001 195.366 426.721 197.926C425.121 198.646 424.001 198.486 423.121 197.126C422.321 195.846 422.481 194.646 423.841 193.606C424.881 192.726 425.841 191.846 426.801 190.886C421.041 194.086 412.721 197.206 405.121 198.886C401.761 199.686 399.361 198.086 398.961 194.486C398.561 191.286 399.921 189.286 403.201 188.886C405.281 188.646 407.441 188.406 409.441 188.086V185.286C408.961 185.846 408.241 186.246 407.281 186.406C405.041 186.886 403.441 185.926 403.281 183.446C402.961 179.606 402.321 175.766 401.841 172.806C401.521 171.206 402.081 170.326 403.281 169.846C404.481 169.446 405.761 169.766 406.401 171.206C407.521 173.766 408.561 176.566 409.441 179.686V167.846H403.441C401.361 167.846 400.161 166.646 400.161 164.566C400.161 162.486 401.361 161.286 403.441 161.286H409.441V156.086H407.601C406.401 156.086 405.601 155.766 405.041 155.046C404.241 155.686 403.361 156.246 402.561 156.726C401.121 157.606 399.841 157.286 398.961 156.166C398.081 155.046 398.161 153.846 399.201 152.566C403.601 147.286 406.961 140.726 409.681 132.406C410.641 129.286 413.361 127.926 417.041 129.206C419.841 130.166 421.041 132.726 420.161 135.686C422.321 137.126 424.561 139.046 426.321 140.806V140.246C426.321 138.086 427.521 136.886 429.681 136.886H441.521V134.006C441.521 130.646 443.601 128.886 447.441 128.886C451.281 128.886 453.361 130.646 453.361 134.006V136.886H465.361C467.521 136.886 468.721 138.006 468.721 140.166C468.721 142.326 467.521 143.606 465.361 143.606H453.361V147.446H461.601C464.961 147.446 466.801 149.286 466.801 152.646V168.246C466.801 171.606 464.961 173.446 461.601 173.446H455.041C458.481 178.406 463.921 183.526 469.121 187.366ZM417.441 141.286C415.601 144.246 413.441 147.126 411.041 149.686H423.281C422.481 149.286 421.681 148.486 421.041 147.286C420.001 145.286 418.721 143.126 417.441 141.286ZM429.361 188.246C432.961 184.006 435.841 178.966 438.001 173.446H434.001C430.641 173.446 428.801 171.606 428.801 168.246V152.646C428.801 149.286 430.641 147.446 434.001 147.446H441.521V143.606H429.681C429.281 143.606 428.961 143.606 428.641 143.526C429.841 145.526 429.441 147.286 427.601 148.806C426.961 149.366 426.241 149.686 425.521 149.846C426.801 150.326 427.521 151.366 427.521 152.886C427.521 154.886 426.321 156.086 424.241 156.086H420.961V161.286H425.281C427.441 161.286 428.561 162.486 428.561 164.566C428.561 166.646 427.441 167.846 425.281 167.846H420.961V178.886C421.361 176.806 421.761 174.566 422.081 172.166C422.401 169.926 423.761 168.806 425.841 169.286C427.921 169.686 428.961 170.886 428.481 173.046C427.521 176.646 426.241 180.166 424.961 183.046C424.321 184.486 423.041 184.886 421.841 184.406C421.521 184.246 421.201 184.086 420.961 183.926V185.926C422.481 185.606 423.921 185.206 425.281 184.726C427.121 184.166 428.401 184.806 429.041 186.166C429.361 186.806 429.441 187.526 429.361 188.246ZM443.041 153.366H438.481C437.921 153.366 437.521 153.766 437.521 154.326V154.966C437.601 154.966 437.601 154.886 437.681 154.886C438.721 154.406 439.521 154.646 440.161 155.526C441.121 156.726 442.161 158.486 443.041 160.086V153.366ZM451.761 153.366V163.846C452.401 161.526 452.881 159.206 453.281 156.966C453.601 155.046 455.121 154.326 457.041 154.966C457.441 155.126 457.761 155.286 458.001 155.446V154.326C458.001 153.766 457.601 153.366 457.041 153.366H451.761ZM437.521 159.686V166.566C437.521 167.126 437.921 167.526 438.481 167.526H443.041V165.766L442.481 166.006C440.481 166.806 438.961 166.086 438.561 164.006C438.321 162.646 437.921 161.286 437.521 159.686ZM457.041 167.526C457.601 167.526 458.001 167.126 458.001 166.566V160.166C457.281 162.006 456.321 163.846 455.041 165.446C454.321 166.326 453.521 166.566 452.641 166.166C452.241 166.006 451.921 165.686 451.761 165.286V167.526H457.041Z" fill="#594A39"/>
<path d="M595.57 192.006C600.13 192.646 602.13 195.046 601.25 199.526C600.37 204.006 597.33 204.886 593.09 204.246C581.65 202.646 571.65 196.086 566.69 187.126C559.65 198.086 546.45 203.286 533.49 204.406C531.01 204.646 529.89 203.766 529.65 202.006C529.41 200.086 530.21 198.806 532.29 198.246C542.93 195.206 550.53 190.486 554.93 183.206H535.41C533.17 183.206 531.89 181.926 531.89 179.606C531.89 177.286 533.17 176.006 535.41 176.006H557.89C558.29 174.486 558.53 172.886 558.77 171.206H534.61C532.37 171.206 531.09 169.926 531.09 167.686C531.09 165.446 532.37 164.166 534.61 164.166H558.77V160.086H541.49C539.25 160.086 538.05 158.886 538.05 156.646C538.05 154.406 539.25 153.206 541.49 153.206H558.77V149.446H537.33C535.09 149.446 533.81 148.166 533.81 145.926C533.81 143.686 535.09 142.406 537.33 142.406H550.13L549.65 141.686C547.97 138.806 546.21 135.686 544.53 132.886C543.49 131.206 543.57 129.846 544.85 128.646C546.05 127.526 547.65 127.606 549.33 128.486C552.69 130.246 556.13 132.886 558.77 135.686C561.09 138.086 561.01 140.566 559.65 142.406H570.21C572.13 138.646 573.65 134.886 574.85 131.366C576.21 127.526 579.41 126.806 582.93 128.246C586.21 129.606 587.41 132.566 585.17 136.006C583.57 138.486 581.73 140.566 579.57 142.406H593.65C595.89 142.406 597.17 143.686 597.17 145.926C597.17 148.166 595.89 149.446 593.65 149.446H571.89V153.206H589.89C592.13 153.206 593.33 154.406 593.33 156.646C593.33 158.886 592.13 160.086 589.89 160.086H571.89V164.166H596.29C598.53 164.166 599.81 165.446 599.81 167.686C599.81 169.926 598.53 171.206 596.29 171.206H571.73V171.526C571.57 173.046 571.41 174.566 571.09 176.006H595.89C598.13 176.006 599.41 177.286 599.41 179.606C599.41 181.926 598.13 183.206 595.89 183.206H572.45C578.93 188.806 585.57 190.646 595.57 192.006Z" fill="#594A39"/>
<path d="M688.61 133.926C690.77 133.926 691.97 135.126 691.97 137.286C691.97 139.446 690.77 140.646 688.61 140.646H675.09V140.726C675.09 143.686 672.85 145.206 668.93 145.206C665.09 145.206 662.85 143.526 662.77 140.646H650.37C650.29 143.446 648.05 145.206 644.21 145.206C640.45 145.206 638.13 143.366 638.05 140.646H624.69C622.53 140.646 621.33 139.446 621.33 137.286C621.33 135.126 622.53 133.926 624.69 133.926H638.05V133.606C638.05 130.646 640.21 128.726 644.21 128.726C648.21 128.726 650.37 130.646 650.37 133.606V133.926H662.77V133.606C662.77 130.646 664.93 128.726 668.93 128.726C672.93 128.726 675.09 130.646 675.09 133.606V133.926H688.61ZM632.37 162.246C629.01 162.246 627.17 160.406 627.17 157.046V151.126C627.17 147.766 629.01 145.926 632.37 145.926H681.01C684.37 145.926 686.21 147.766 686.21 151.126V157.046C686.21 160.406 684.37 162.246 681.01 162.246H632.37ZM639.49 153.126V155.046C639.49 155.606 639.89 156.006 640.45 156.006H643.81V152.166H640.45C639.89 152.166 639.49 152.566 639.49 153.126ZM654.45 152.166V156.006H658.93V152.166H654.45ZM669.57 152.166V156.006H672.93C673.49 156.006 673.89 155.606 673.89 155.046V153.126C673.89 152.566 673.49 152.166 672.93 152.166H669.57ZM685.81 164.326C689.17 164.326 691.01 166.166 691.01 169.526V174.486C691.01 178.246 688.77 179.766 684.77 179.766C680.77 179.766 678.53 178.006 678.53 174.486V172.086C678.53 171.526 678.05 171.046 677.49 171.046H655.33C656.21 172.246 656.37 173.606 655.81 174.966H673.49C679.65 174.966 681.49 181.206 678.13 185.046C666.85 198.006 651.49 203.366 627.25 204.086C625.09 204.166 623.97 203.206 623.81 201.366C623.65 199.446 624.69 198.326 626.69 198.086C635.81 196.966 643.09 195.686 649.17 193.606C648.85 193.366 648.53 193.046 648.21 192.646C646.37 190.406 644.37 188.326 642.05 186.246C638.37 188.166 634.29 189.686 629.97 190.806C628.05 191.446 626.69 190.966 625.97 189.286C625.33 187.766 625.89 186.406 627.73 185.366C634.61 182.246 640.37 177.766 645.25 171.206L645.41 171.046H635.89C635.33 171.046 634.77 171.526 634.77 172.166V175.126C634.77 178.646 632.53 180.406 628.53 180.406C624.53 180.406 622.29 178.806 622.29 175.126V169.526C622.29 166.166 624.13 164.326 627.49 164.326H685.81ZM666.21 183.126C666.77 182.486 666.45 181.686 665.65 181.686H649.25L647.81 182.726C649.89 183.766 652.05 184.966 654.13 186.406C655.97 187.606 656.69 189.126 656.45 190.566C660.13 188.646 663.33 186.166 666.21 183.126Z" fill="#594A39"/>
<path d="M783.57 181.606C786.69 201.126 782.21 205.286 774.45 203.926C768.13 202.806 763.01 198.886 759.17 192.486C752.85 197.446 745.33 201.366 736.45 203.446C734.45 203.926 733.25 203.286 732.69 201.686C732.05 199.846 732.69 198.486 734.45 197.686C743.01 193.766 749.73 188.886 754.93 183.206C752.05 174.806 750.37 163.926 749.81 150.966H730.61C730.05 150.966 729.65 151.366 729.65 151.926V160.166H742.37C745.81 160.166 747.73 162.006 747.73 165.766C747.73 173.206 747.41 178.406 746.93 183.766C746.29 190.486 739.09 193.846 729.73 189.366C728.13 188.566 727.73 187.366 728.05 185.686C728.37 184.086 729.41 183.366 731.41 183.606C734.37 183.926 735.57 183.766 735.81 181.286C736.21 177.446 736.29 173.286 736.29 168.166C736.29 167.526 735.89 167.206 735.33 167.206H729.65C729.41 181.606 726.93 195.206 717.25 203.046C715.73 204.246 714.13 204.646 712.45 203.206C711.09 202.006 711.17 200.486 712.05 198.806C716.29 190.726 717.33 183.526 717.33 164.086V149.766C717.33 146.006 719.49 143.446 723.33 143.446H749.57C749.57 140.326 749.49 137.126 749.57 134.166C749.65 130.406 751.89 128.806 755.73 128.806C759.65 128.806 761.65 130.326 761.65 134.246V143.446H770.93C770.61 143.046 770.21 142.566 769.89 142.006C768.13 139.126 766.05 135.846 764.45 133.526C763.33 131.926 763.65 130.566 764.93 129.366C766.05 128.326 767.57 128.566 769.09 129.446C772.21 131.206 775.01 133.366 777.65 135.926C780.29 138.406 780.45 141.286 778.21 143.446H780.29C782.53 143.446 783.81 144.806 783.81 147.046C783.81 149.446 782.53 150.966 780.29 150.966H761.89C762.29 158.086 763.01 164.566 764.05 170.086C765.89 166.326 767.41 162.406 768.69 158.246C769.89 154.486 773.25 153.286 776.93 154.806C780.53 156.246 781.73 158.806 780.05 163.206C777.41 170.246 773.49 177.366 768.13 183.686C769.89 187.286 771.97 189.686 774.37 190.566C776.29 191.286 777.25 189.846 777.25 181.686C777.25 179.526 778.53 178.566 780.13 178.486C781.81 178.406 783.17 179.126 783.57 181.606Z" fill="#594A39"/>
<path d="M869.81 192.566C874.05 194.246 875.49 196.966 873.73 200.566C871.97 204.166 868.53 205.126 864.93 202.726C859.17 198.966 852.45 195.926 845.73 192.566C843.81 191.606 843.25 190.166 843.81 188.566C843.97 188.086 844.29 187.686 844.61 187.446H833.65C835.73 189.926 834.29 193.526 831.41 195.446C825.41 199.446 816.45 202.406 807.49 203.766C805.49 204.086 804.29 203.446 803.73 201.846C803.17 200.166 803.89 198.886 805.73 198.166C812.93 195.446 819.57 191.766 824.05 187.446H807.33C805.17 187.446 803.97 186.246 803.97 184.086C803.97 181.926 805.17 180.726 807.33 180.726H814.29V150.166C814.29 146.806 816.13 144.966 819.49 144.966H831.57L832.05 141.686H809.41C807.25 141.686 806.05 140.486 806.05 138.246C806.05 136.086 807.25 134.886 809.41 134.886H832.85C832.93 134.406 832.93 133.926 833.01 133.526C833.41 130.006 835.97 128.326 839.97 128.566C844.13 128.806 846.13 130.886 845.65 134.726V134.886H869.41C871.57 134.886 872.77 136.086 872.77 138.246C872.77 140.486 871.57 141.686 869.41 141.686H844.77C844.69 142.806 844.53 143.846 844.37 144.966H858.53C861.89 144.966 863.73 146.806 863.73 150.166V180.726H871.09C873.25 180.726 874.45 181.926 874.45 184.086C874.45 186.246 873.25 187.446 871.09 187.446H850.13C857.33 188.806 863.73 190.166 869.81 192.566ZM826.77 152.486V154.406H851.25V152.486C851.25 151.926 850.85 151.526 850.29 151.526H827.73C827.17 151.526 826.77 151.926 826.77 152.486ZM826.77 160.006V163.126H851.25V160.006H826.77ZM826.77 168.726V171.926H851.25V168.726H826.77ZM826.77 177.526V180.726H851.25V177.526H826.77Z" fill="#594A39"/>
</svg>
