<svg width="140" height="58" viewBox="0 0 140 58" fill="none" xmlns="http://www.w3.org/2000/svg">
<rect y="0.599976" width="140" height="57" rx="28.5" fill="#B8C318"/>
<path d="M45.96 36.9C44.86 36.9 44.24 36.3 44.24 35.16V30.36C43.5 29.04 41.2 25.48 40.34 23.98C39.84 23.1 40 22.36 40.92 21.86C41.78 21.4 42.54 21.66 43.06 22.58L44.7 25.42C45.14 26.2 45.74 27.18 46.06 27.84H46.2C46.54 27.18 47.1 26.14 47.52 25.38L49.02 22.62C49.52 21.68 50.16 21.4 51.06 21.84C51.92 22.26 52.16 23 51.68 23.86C50.48 26 49.04 28.22 47.68 30.34V35.16C47.68 36.3 47.06 36.9 45.96 36.9ZM75.1 35.46C75.1 36.2 74.72 36.6 74 36.6H67.44C66.38 36.6 65.78 36.02 65.78 34.92V23.58C65.78 22.52 66.36 21.92 67.44 21.92H73.9C74.6 21.92 75 22.32 75 23.06C75 23.8 74.62 24.2 73.9 24.2H69.4C69.3 24.2 69.22 24.26 69.22 24.38V27.88H73.32C74 27.88 74.42 28.28 74.42 29.02C74.42 29.74 74.02 30.16 73.32 30.16H69.22V34.14C69.22 34.24 69.28 34.32 69.4 34.32H74C74.7 34.32 75.1 34.7 75.1 35.46ZM89 33.46C89.4 32.92 90.12 32.82 90.66 33.24C91.48 33.88 92.38 34.5 93.76 34.5C94.98 34.5 95.72 33.98 95.74 33.02C95.76 32.24 95.48 31.44 93.16 30.24C90.16 28.66 88.88 27.44 88.88 25.38C88.88 23.1 90.94 21.62 94.16 21.62C96.12 21.62 97.64 22.18 98.32 22.84C98.88 23.38 99 24.08 98.62 24.66C98.2 25.28 97.42 25.4 96.8 24.88C96.12 24.32 95.34 23.98 94.14 24C93.04 24.02 92.4 24.46 92.4 25.14C92.4 25.9 92.68 26.58 95.02 27.78C98.04 29.36 99.3 30.62 99.3 32.62C99.3 35.3 97.28 36.9 93.94 36.9C91.64 36.9 90 36.14 89.18 35.32C88.64 34.78 88.58 34.04 89 33.46Z" fill="white"/>
</svg>
