<svg width="130" height="53" viewBox="0 0 130 53" fill="none" xmlns="http://www.w3.org/2000/svg">
<rect width="130" height="53" rx="26.5" fill="#D1DA52"/>
<path d="M52.88 34.3C48.7 34.3 46.06 31.42 46.2 26.46C46.32 21.9 48.9 19.02 53.04 19.02C57.22 19.02 59.8 21.96 59.8 26.46C59.8 31.44 57.36 34.3 52.88 34.3ZM52.96 31.98C55.14 31.98 56.24 30.24 56.24 26.66C56.24 23.16 55.08 21.32 52.96 21.32C50.86 21.32 49.76 23.12 49.76 26.66C49.76 30.24 50.86 31.98 52.96 31.98ZM73.5 34.3C72.42 34.3 71.8 33.76 71.8 32.66V20.68C71.8 19.56 72.46 19.02 73.52 19.02C74.62 19.02 75.24 19.58 75.24 20.68V25.42C75.76 24.88 76 24.64 77.32 23.06L80.18 19.64C80.78 18.92 81.62 18.82 82.36 19.36C83.06 19.88 83.12 20.7 82.52 21.4C81.36 22.76 80.04 24.28 78.8 25.58L82.84 31.84C83.4 32.7 83.24 33.48 82.38 34.02C81.56 34.54 80.66 34.32 80.14 33.46L76.6 27.48L75.2 28.86V32.66C75.2 33.76 74.58 34.3 73.5 34.3Z" fill="white"/>
</svg>
