<svg width="130" height="54" viewBox="0 0 130 54" fill="none" xmlns="http://www.w3.org/2000/svg">
<rect y="0.600006" width="130" height="53" rx="26.5" fill="#B8C318"/>
<path d="M52.88 34.9C48.7 34.9 46.06 32.02 46.2 27.06C46.32 22.5 48.9 19.62 53.04 19.62C57.22 19.62 59.8 22.56 59.8 27.06C59.8 32.04 57.36 34.9 52.88 34.9ZM52.96 32.58C55.14 32.58 56.24 30.84 56.24 27.26C56.24 23.76 55.08 21.92 52.96 21.92C50.86 21.92 49.76 23.72 49.76 27.26C49.76 30.84 50.86 32.58 52.96 32.58ZM73.5 34.9C72.42 34.9 71.8 34.36 71.8 33.26V21.28C71.8 20.16 72.46 19.62 73.52 19.62C74.62 19.62 75.24 20.18 75.24 21.28V26.02C75.76 25.48 76 25.24 77.32 23.66L80.18 20.24C80.78 19.52 81.62 19.42 82.36 19.96C83.06 20.48 83.12 21.3 82.52 22C81.36 23.36 80.04 24.88 78.8 26.18L82.84 32.44C83.4 33.3 83.24 34.08 82.38 34.62C81.56 35.14 80.66 34.92 80.14 34.06L76.6 28.08L75.2 29.46V33.26C75.2 34.36 74.58 34.9 73.5 34.9Z" fill="white"/>
</svg>
