<svg width="45" height="17" viewBox="0 0 45 17" fill="none" xmlns="http://www.w3.org/2000/svg">
<path d="M1.6125 16.7C1.34583 16.5533 1.16583 16.38 1.0725 16.18C0.979167 15.98 0.939167 15.76 0.952501 15.52C0.979167 15.28 1.02583 15.0333 1.0925 14.78C1.19917 14.3533 1.3125 14 1.4325 13.72C1.56583 13.4267 1.6925 13.1267 1.8125 12.82C1.94583 12.5 2.05917 12.0933 2.1525 11.6C2.36583 11.1067 2.5525 10.64 2.7125 10.2C2.88583 9.76 3.01917 9.4 3.1125 9.12C3.20583 8.84 3.2525 8.7 3.2525 8.7C3.26583 8.64667 3.31917 8.50667 3.4125 8.28C3.51917 8.05333 3.64583 7.78 3.7925 7.46C3.9525 7.12667 4.10583 6.79333 4.2525 6.46C4.47917 5.82 4.6925 5.28 4.8925 4.84C5.0925 4.38667 5.2925 3.98 5.4925 3.62C5.70583 3.26 5.9325 2.9 6.1725 2.54C6.3325 2.26 6.55917 2.09333 6.8525 2.04C7.14583 1.98667 7.42583 2.02 7.6925 2.14C7.95917 2.24667 8.1325 2.43333 8.2125 2.7C8.27917 2.83333 8.3325 2.98667 8.3725 3.16C8.42583 3.33333 8.4725 3.59333 8.5125 3.94C8.56583 4.27333 8.59917 4.76 8.6125 5.4C8.63917 6.16 8.6525 6.86 8.6525 7.5C8.66583 8.12667 8.6925 8.70667 8.7325 9.24C8.78583 9.77333 8.8725 10.26 8.9925 10.7C9.0325 10.94 9.0725 11.2333 9.1125 11.58C9.1525 11.9133 9.1925 12.2467 9.2325 12.58C9.28583 12.9133 9.33917 13.1933 9.3925 13.42C9.44583 13.6333 9.49917 13.74 9.5525 13.74C9.61917 13.74 9.6925 13.6867 9.7725 13.58C9.86583 13.46 9.98583 13.2133 10.1325 12.84C10.2792 12.4667 10.4658 11.8933 10.6925 11.12C10.9192 10.3467 11.1925 9.30667 11.5125 8C11.5792 7.77333 11.6658 7.40667 11.7725 6.9C11.8925 6.39333 11.9792 5.88 12.0325 5.36C12.1258 5.02667 12.2192 4.66 12.3125 4.26C12.4058 3.86 12.4858 3.50667 12.5525 3.2C12.6325 2.89333 12.6725 2.72 12.6725 2.68C12.6725 2.58667 12.6725 2.50667 12.6725 2.44C12.6858 2.37333 12.6858 2.30667 12.6725 2.24C12.7392 2.24 12.7992 2.15333 12.8525 1.98C12.9058 1.79333 12.9325 1.63333 12.9325 1.5C12.9325 1.27333 12.9592 1.09333 13.0125 0.96C13.0792 0.813332 13.1458 0.706666 13.2125 0.639999C13.3592 0.373333 13.5458 0.239999 13.7725 0.239999C14.0125 0.226666 14.2325 0.293333 14.4325 0.439999C14.6325 0.573332 14.7525 0.739999 14.7925 0.94C14.8192 1.08667 14.7792 1.42 14.6725 1.94C14.5792 2.44667 14.4325 3.13333 14.2325 4C14.2325 4.14667 14.1925 4.38667 14.1125 4.72C14.0325 5.05333 13.9458 5.40667 13.8525 5.78C13.7725 6.15333 13.7125 6.47333 13.6725 6.74C13.6192 7.08667 13.5592 7.41333 13.4925 7.72C13.4258 8.01333 13.3592 8.15333 13.2925 8.14C12.9458 9.64667 12.5792 10.9333 12.1925 12C11.8192 13.0533 11.4858 13.9133 11.1925 14.58C10.8725 15.3133 10.4592 15.78 9.9525 15.98C9.45917 16.1933 8.99917 16.0267 8.5725 15.48C8.31917 15.1333 8.10583 14.7933 7.9325 14.46C7.75917 14.1267 7.61917 13.7333 7.5125 13.28C7.40583 12.8267 7.3125 12.2533 7.2325 11.56C7.1525 11 7.07917 10.4533 7.0125 9.92C6.95917 9.37333 6.91917 8.82 6.8925 8.26C6.86583 7.68667 6.85917 7.08 6.8725 6.44C6.88583 5.68 6.8525 5.23333 6.7725 5.1C6.70583 4.96667 6.60583 5.04 6.4725 5.32C6.33917 5.6 6.18583 5.98 6.0125 6.46C5.91917 6.72667 5.80583 7.03333 5.6725 7.38C5.5525 7.71333 5.42583 8.04667 5.2925 8.38C5.15917 8.71333 5.04583 9 4.9525 9.24C4.85917 9.48 4.79917 9.63333 4.7725 9.7C4.6925 9.86 4.59917 10.0733 4.4925 10.34C4.38583 10.5933 4.29917 10.8667 4.2325 11.16C3.7525 12.4133 3.3925 13.4933 3.1525 14.4C2.92583 15.2933 2.75917 15.8867 2.6525 16.18C2.51917 16.5533 2.3925 16.78 2.2725 16.86C2.16583 16.94 1.94583 16.8867 1.6125 16.7ZM15.8753 14.58C15.822 14.4733 15.702 14.3667 15.5153 14.26C15.342 14.1533 15.2553 14.0733 15.2553 14.02C15.2553 13.9667 15.222 13.8867 15.1553 13.78C15.102 13.66 15.0486 13.5733 14.9953 13.52C14.9286 13.44 14.9486 13.2467 15.0553 12.94C15.162 12.62 15.322 12.2333 15.5353 11.78C15.7486 11.3267 15.982 10.8667 16.2353 10.4C16.342 10.2933 16.4486 10.1533 16.5553 9.98C16.662 9.80667 16.742 9.69333 16.7953 9.64C16.7953 9.58667 16.8153 9.54 16.8553 9.5C16.8953 9.44667 16.942 9.42 16.9953 9.42L17.1553 9.1C17.182 9.04667 17.262 8.94 17.3953 8.78C17.542 8.62 17.7153 8.44667 17.9153 8.26C18.1153 8.06 18.3153 7.87333 18.5153 7.7C18.7286 7.52667 18.902 7.4 19.0353 7.32C19.3153 7.13333 19.602 7.04667 19.8953 7.06C20.202 7.07333 20.462 7.16667 20.6753 7.34C20.7153 7.38 20.802 7.46 20.9353 7.58C21.082 7.7 21.242 7.83333 21.4153 7.98C21.602 8.12667 21.762 8.26 21.8953 8.38L22.6353 9.04L22.2953 10.04C22.122 10.5733 22.0753 11.04 22.1553 11.44C22.2353 11.84 22.362 12.1867 22.5353 12.48C22.602 12.6267 22.6886 12.74 22.7953 12.82C22.9153 12.9 23.0686 12.9533 23.2553 12.98C23.362 12.9933 23.462 13.0333 23.5553 13.1C23.6486 13.1667 23.6953 13.2733 23.6953 13.42C23.6953 13.74 23.6353 13.9733 23.5153 14.12C23.4086 14.2533 23.2886 14.3333 23.1553 14.36C22.7153 14.4133 22.2953 14.3667 21.8953 14.22C21.4953 14.0733 21.1353 13.6933 20.8153 13.08C20.762 13 20.6886 12.8533 20.5953 12.64C20.5153 12.4133 20.4686 12.2667 20.4553 12.2C20.402 12.2667 20.3286 12.3533 20.2353 12.46C20.1553 12.5533 20.0753 12.64 19.9953 12.72C19.0486 13.68 18.2353 14.3067 17.5553 14.6C16.8886 14.88 16.3286 14.8733 15.8753 14.58ZM16.9753 12.92C17.0686 12.9333 17.2153 12.8867 17.4153 12.78C17.6153 12.66 17.882 12.4667 18.2153 12.2C18.6686 11.8133 19.042 11.4933 19.3353 11.24C19.6286 10.9867 19.9153 10.66 20.1953 10.26L20.6353 9.54C20.502 9.23333 20.382 9.03333 20.2753 8.94C20.1686 8.84667 20.062 8.8 19.9553 8.8C19.782 8.8 19.5753 8.91333 19.3353 9.14C19.0953 9.35333 18.822 9.67333 18.5153 10.1C18.222 10.5133 17.8886 11.0333 17.5153 11.66C17.342 11.9533 17.2086 12.24 17.1153 12.52C17.022 12.7867 16.9753 12.92 16.9753 12.92ZM35.2411 14.52C35.1478 14.4933 35.0011 14.4067 34.8011 14.26C34.6011 14.1133 34.4211 13.8933 34.2611 13.6C34.1144 13.3067 34.0478 12.9267 34.0611 12.46C34.0744 12.06 34.1011 11.78 34.1411 11.62C34.1944 11.4467 34.1744 11.3533 34.0811 11.34C34.0144 11.3267 33.8811 11.3867 33.6811 11.52C33.4811 11.6533 33.2211 11.8667 32.9011 12.16C32.5811 12.4533 32.1944 12.84 31.7411 13.32C31.5811 13.4533 31.4011 13.62 31.2011 13.82C31.0144 14.0067 30.8211 14.1467 30.6211 14.24C30.4344 14.3333 30.2678 14.3133 30.1211 14.18L29.9211 14C29.8278 13.92 29.7478 13.8133 29.6811 13.68C29.6144 13.5467 29.5944 13.4333 29.6211 13.34L30.1811 11.78C30.3411 11.4333 30.4478 11.18 30.5011 11.02C30.5678 10.86 30.5944 10.76 30.5811 10.72C30.5811 10.68 30.5478 10.6667 30.4811 10.68C30.4011 10.6933 30.2878 10.7667 30.1411 10.9C29.9944 11.02 29.8944 11.12 29.8411 11.2C29.7878 11.2 29.7144 11.2533 29.6211 11.36C29.5411 11.4667 29.4611 11.56 29.3811 11.64C29.3011 11.72 29.1611 11.8733 28.9611 12.1C28.7611 12.3133 28.5478 12.54 28.3211 12.78C28.1478 12.94 27.9478 13.1533 27.7211 13.42C27.4944 13.6867 27.2944 13.9267 27.1211 14.14C26.9478 14.3533 26.8411 14.46 26.8011 14.46C26.5611 14.4467 26.3411 14.3667 26.1411 14.22C25.9544 14.0733 25.8278 13.8933 25.7611 13.68C25.6811 13.5333 25.6744 13.2667 25.7411 12.88C25.8078 12.48 25.9344 11.8467 26.1211 10.98C26.1744 10.78 26.2211 10.6067 26.2611 10.46C26.3144 10.3133 26.3678 10.1667 26.4211 10.02C26.4744 9.87333 26.5344 9.70667 26.6011 9.52C26.6811 9.33333 26.7811 9.10667 26.9011 8.84C26.9678 8.65333 26.9944 8.48 26.9811 8.32C26.9678 8.14667 26.9544 8.00667 26.9411 7.9C26.9411 7.7 27.0011 7.54 27.1211 7.42C27.2544 7.3 27.4011 7.22 27.5611 7.18C27.7211 7.12667 27.8478 7.11333 27.9411 7.14C28.3144 7.18 28.5678 7.31333 28.7011 7.54C28.8344 7.76667 28.9078 7.98667 28.9211 8.2C28.9344 8.4 28.9078 8.58 28.8411 8.74C28.7744 8.9 28.7211 9.03333 28.6811 9.14L28.4611 9.68C28.3278 9.98667 28.2278 10.2133 28.1611 10.36C28.1078 10.4933 28.0744 10.5867 28.0611 10.64C28.0611 10.68 28.0611 10.72 28.0611 10.76C28.0744 10.8 28.1344 10.78 28.2411 10.7C28.3478 10.62 28.4744 10.5133 28.6211 10.38C28.7811 10.2333 28.9278 10.1067 29.0611 10C29.3011 9.8 29.5544 9.6 29.8211 9.4C30.1011 9.18667 30.3744 9 30.6411 8.84C30.9078 8.68 31.1278 8.57333 31.3011 8.52C31.5278 8.56 31.7344 8.67333 31.9211 8.86C32.1211 9.04667 32.2478 9.20667 32.3011 9.34C32.3678 9.54 32.3744 9.72 32.3211 9.88C32.2811 10.04 32.2478 10.1867 32.2211 10.32C32.2078 10.3733 32.1811 10.4733 32.1411 10.62C32.1011 10.7667 32.0611 10.9067 32.0211 11.04C31.9811 11.16 31.9611 11.22 31.9611 11.22C31.9611 11.22 32.0011 11.18 32.0811 11.1C32.1611 11.02 32.2678 10.9267 32.4011 10.82C32.5344 10.7 32.6678 10.5933 32.8011 10.5C33.4678 9.99333 33.9944 9.67333 34.3811 9.54C34.7811 9.39333 35.1211 9.50667 35.4011 9.88C35.5611 10.0267 35.6611 10.2267 35.7011 10.48C35.7544 10.7333 35.7811 11.0733 35.7811 11.5C35.7944 11.6733 35.8078 11.8667 35.8211 12.08C35.8478 12.2933 35.8744 12.48 35.9011 12.64C35.9411 12.8 35.9744 12.9 36.0011 12.94C36.0411 12.9933 36.1144 13.0467 36.2211 13.1C36.3278 13.14 36.4278 13.1733 36.5211 13.2C36.7078 13.2933 36.8078 13.4667 36.8211 13.72C36.8478 13.96 36.7544 14.1467 36.5411 14.28C36.3411 14.4 36.1278 14.4733 35.9011 14.5C35.6878 14.5267 35.4678 14.5333 35.2411 14.52ZM40.9278 15.36C40.1945 15.36 39.6278 15.1467 39.2278 14.72C38.8411 14.2933 38.6478 13.64 38.6478 12.76C38.6478 12.28 38.7345 11.7533 38.9078 11.18C39.0945 10.6067 39.3345 10.0467 39.6278 9.5C39.9345 8.95333 40.2678 8.48 40.6278 8.08C40.9878 7.66667 41.3478 7.38 41.7078 7.22C41.8411 7.15333 41.9811 7.10667 42.1278 7.08C42.2878 7.04 42.4411 7.02 42.5878 7.02C42.7478 7.02 42.9211 7.03333 43.1078 7.06C43.3078 7.07333 43.4945 7.11333 43.6678 7.18C43.9745 7.27333 44.2411 7.45333 44.4678 7.72C44.7078 7.98667 44.8278 8.37333 44.8278 8.88C44.8278 9.01333 44.8145 9.16 44.7878 9.32C44.7611 9.46667 44.7145 9.61333 44.6478 9.76C44.4745 10.2 44.2078 10.62 43.8478 11.02C43.5011 11.42 43.1345 11.7 42.7478 11.86C42.6411 11.9133 42.5345 11.9533 42.4278 11.98C42.3345 11.9933 42.2345 12 42.1278 12C41.8478 12 41.5945 11.96 41.3678 11.88C41.1545 11.8 40.9545 11.6933 40.7678 11.56L40.6078 11.42L40.5078 11.62C40.4145 11.8733 40.3478 12.0867 40.3078 12.26C40.2811 12.4333 40.2678 12.56 40.2678 12.64C40.2678 12.8 40.2745 12.9667 40.2878 13.14C40.3011 13.3 40.3411 13.4333 40.4078 13.54C40.4611 13.6067 40.5278 13.66 40.6078 13.7C40.7011 13.74 40.8145 13.76 40.9478 13.76C41.0278 13.76 41.1011 13.76 41.1678 13.76C41.2478 13.7467 41.3145 13.7333 41.3678 13.72C41.6078 13.6667 41.8011 13.58 41.9478 13.46C42.1078 13.3267 42.2745 13.2133 42.4478 13.12L42.5278 13.08L42.5078 13.02C42.7345 12.9 42.8878 12.8267 42.9678 12.8C43.0478 12.76 43.1078 12.7267 43.1478 12.7C43.2011 12.6467 43.2611 12.62 43.3278 12.62C43.5145 12.5933 43.6945 12.6467 43.8678 12.78C44.0545 12.9 44.1478 13.0533 44.1478 13.24C44.1478 13.32 44.0878 13.4467 43.9678 13.62C43.8611 13.7933 43.7211 13.9667 43.5478 14.14C43.3878 14.3 43.2211 14.4267 43.0478 14.52C43.0078 14.5333 42.9678 14.5533 42.9278 14.58C42.8878 14.5933 42.8478 14.6133 42.8078 14.64H42.8278C42.7078 14.8 42.5878 14.88 42.4678 14.88H42.3078C42.2545 14.9733 42.0811 15.0733 41.7878 15.18C41.4945 15.3 41.2078 15.36 40.9278 15.36ZM41.9678 10.54C42.0878 10.54 42.1945 10.52 42.2878 10.48C42.3945 10.44 42.4945 10.3933 42.5878 10.34C42.9078 10.1133 43.1145 9.82 43.2078 9.46C43.3011 9.1 43.2678 8.82667 43.1078 8.64C43.0811 8.6 43.0478 8.57333 43.0078 8.56C42.9678 8.53333 42.9211 8.52 42.8678 8.52C42.7211 8.52 42.5545 8.56667 42.3678 8.66C42.1945 8.75333 42.0211 8.88667 41.8478 9.06C41.6745 9.23333 41.5145 9.44 41.3678 9.68L41.1078 10.1C41.1345 10.0867 41.1545 10.08 41.1678 10.08C41.1945 10.0667 41.2145 10.06 41.2278 10.06C41.3478 10.06 41.4278 10.1 41.4678 10.18C41.5078 10.26 41.5545 10.34 41.6078 10.42C41.6745 10.5 41.7945 10.54 41.9678 10.54Z" fill="#B1AAA2"/>
</svg>
