<svg width="140" height="57" viewBox="0 0 140 57" fill="none" xmlns="http://www.w3.org/2000/svg">
<rect x="1" y="1" width="138" height="55" rx="27.5" fill="#FDFFE4"/>
<rect x="1" y="1" width="138" height="55" rx="27.5" stroke="#B8C318" stroke-width="2"/>
<path d="M62.08 36.28C60.82 36.28 60.1 35.58 59.6 34.6C58.64 32.72 56.04 28.02 54.78 25.38L54.66 25.42C54.76 26.2 54.84 27.12 54.84 27.82V34.64C54.84 35.7 54.36 36.32 53.4 36.3C52.42 36.28 51.88 35.72 51.88 34.64V23.32C51.88 21.9 52.56 21.04 53.84 21.04C55.14 21.04 55.68 21.7 56.44 23.14C57.74 25.6 60.1 29.86 61.2 31.98L61.32 31.94C61.2 31.24 61.16 30.4 61.16 29.7V22.7C61.16 21.64 61.66 21.04 62.66 21.04C63.62 21.04 64.1 21.62 64.1 22.7V34.06C64.1 35.52 63.42 36.28 62.08 36.28ZM81.88 36.3C77.7 36.3 75.06 33.42 75.2 28.46C75.32 23.9 77.9 21.02 82.04 21.02C86.22 21.02 88.8 23.96 88.8 28.46C88.8 33.44 86.36 36.3 81.88 36.3ZM81.96 33.98C84.14 33.98 85.24 32.24 85.24 28.66C85.24 25.16 84.08 23.32 81.96 23.32C79.86 23.32 78.76 25.12 78.76 28.66C78.76 32.24 79.86 33.98 81.96 33.98Z" fill="#B8C318"/>
</svg>
