<svg width="219" height="19" viewBox="0 0 219 19" fill="none" xmlns="http://www.w3.org/2000/svg">
<path d="M2.75711 16.42C2.66377 16.2733 2.50377 16.18 2.27711 16.14C2.05044 16.1 1.70377 16.0933 1.23711 16.12C1.05044 16.1467 0.857108 16.1333 0.657108 16.08C0.457108 16.0267 0.297108 15.9467 0.177108 15.84C0.0571079 15.7333 0.0104412 15.6267 0.0371079 15.52C0.0504412 15.36 0.237108 15.1867 0.597108 15C0.957108 14.8133 1.42377 14.7133 1.99711 14.7L2.83711 14.68L3.03711 14.28C3.09044 14.1333 3.13044 13.9733 3.15711 13.8C3.19711 13.6267 3.26377 13.3867 3.35711 13.08C3.41044 12.8933 3.49044 12.6333 3.59711 12.3C3.70377 11.9667 3.81711 11.6133 3.93711 11.24C4.05711 10.8533 4.16377 10.5067 4.25711 10.2C4.35044 9.89334 4.41044 9.68001 4.43711 9.56001C4.49044 9.44001 4.56377 9.24001 4.65711 8.96001C4.75044 8.66667 4.83711 8.37334 4.91711 8.08001C5.01044 7.77334 5.07044 7.55334 5.09711 7.42001C5.44377 6.36667 5.67044 5.63334 5.77711 5.22001C5.88377 4.79334 5.91044 4.57334 5.85711 4.56001C5.80377 4.56001 5.67711 4.56667 5.47711 4.58001C5.27711 4.59334 5.05711 4.61334 4.81711 4.64001C4.57711 4.65334 4.36377 4.67334 4.17711 4.70001C3.99044 4.72667 3.87711 4.75334 3.83711 4.78001C3.77044 4.87334 3.65711 4.86001 3.49711 4.74001C3.33711 4.60667 3.23711 4.47334 3.19711 4.34001C3.18377 4.22001 3.18377 4.10667 3.19711 4.00001C3.21044 3.89334 3.25044 3.82001 3.31711 3.78001C3.41044 3.70001 3.60377 3.61334 3.89711 3.52001C4.19044 3.41334 4.51711 3.32001 4.87711 3.24001C5.25044 3.16001 5.59044 3.10001 5.89711 3.06001C6.12377 3.03334 6.35044 2.98667 6.57711 2.92001C6.80377 2.84001 6.98378 2.74667 7.11711 2.64001C7.23711 2.60001 7.35044 2.56667 7.45711 2.54C7.57711 2.51334 7.69711 2.50667 7.81711 2.52001C7.92378 2.58667 8.10378 2.62001 8.35711 2.62001C8.62378 2.62001 8.90378 2.61334 9.19711 2.60001C9.94377 2.53334 10.4638 2.56001 10.7571 2.68001C11.0638 2.78667 11.2638 2.93334 11.3571 3.12001C11.4238 3.37334 11.4104 3.58667 11.3171 3.76001C11.2238 3.92001 11.0638 3.99334 10.8371 3.98001C10.7171 4.00667 10.5504 4.03334 10.3371 4.06001C10.1238 4.07334 9.84377 4.08667 9.49711 4.10001C8.61711 4.18001 8.14377 4.27334 8.07711 4.38001C8.02377 4.43334 7.97711 4.48667 7.93711 4.54001C7.91044 4.59334 7.87044 4.65334 7.81711 4.72001C7.83044 4.77334 7.79711 4.93334 7.71711 5.20001C7.65044 5.45334 7.56377 5.72667 7.45711 6.02001C7.40377 6.19334 7.32378 6.44001 7.21711 6.76001C7.11044 7.08001 6.99711 7.41334 6.87711 7.76001C6.77044 8.09334 6.67044 8.40001 6.57711 8.68001C6.48377 8.94667 6.41711 9.12667 6.37711 9.22001C6.32377 9.34001 6.27711 9.47334 6.23711 9.62001C6.21044 9.75334 6.19044 9.85334 6.17711 9.92001C5.99044 10.5733 5.83044 11.12 5.69711 11.56C5.57711 12 5.47044 12.3867 5.37711 12.72C5.28377 13.04 5.19711 13.3533 5.11711 13.66C5.03711 13.9533 4.94377 14.2867 4.83711 14.66C4.83711 14.66 4.95044 14.6533 5.17711 14.64C5.40377 14.6133 5.69044 14.5867 6.03711 14.56C6.66377 14.4933 7.09044 14.4533 7.31711 14.44C7.54377 14.4267 7.67711 14.4467 7.71711 14.5C7.75711 14.54 7.79711 14.62 7.83711 14.74C8.10377 15.1 8.08377 15.4 7.77711 15.64C7.48377 15.88 6.96377 15.9933 6.21711 15.98C5.52377 16.0067 5.01044 16.0267 4.67711 16.04C4.35711 16.0667 4.15044 16.1 4.05711 16.14C3.96377 16.18 3.91711 16.2467 3.91711 16.34C3.93044 16.5533 3.79711 16.68 3.51711 16.72C3.25044 16.7733 2.99711 16.6733 2.75711 16.42ZM11.7854 15.72C11.3321 15.5333 10.9987 15.34 10.7854 15.14C10.5854 14.9267 10.5054 14.74 10.5454 14.58C10.5721 14.5 10.6187 14.4267 10.6854 14.36C10.7521 14.2933 10.8987 14.2667 11.1254 14.28C11.3654 14.28 11.7321 14.34 12.2254 14.46C12.3721 14.46 12.5187 14.4533 12.6654 14.44C12.8121 14.4267 12.9454 14.4067 13.0654 14.38C13.1987 14.3533 13.3054 14.32 13.3854 14.28C13.4521 14.2533 13.4721 14.22 13.4454 14.18C13.4187 14.1267 13.3721 14.0733 13.3054 14.02C13.2521 13.9533 13.1921 13.9133 13.1254 13.9C13.0587 13.8733 12.9987 13.86 12.9454 13.86C12.9187 13.7933 12.8587 13.7267 12.7654 13.66C12.6854 13.5933 12.5854 13.52 12.4654 13.44C12.1721 13.2 11.9054 12.9867 11.6654 12.8C11.4254 12.6133 11.3321 12.4733 11.3854 12.38C11.3854 12.3267 11.3854 12.3 11.3854 12.3C11.3854 12.2867 11.3854 12.28 11.3854 12.28C11.2921 12.28 11.2054 12.1533 11.1254 11.9C11.0454 11.6333 11.0054 11.3933 11.0054 11.18C11.0054 10.9133 11.0587 10.6467 11.1654 10.38C11.2854 10.1133 11.4321 9.86001 11.6054 9.62001C11.7921 9.38001 11.9787 9.16667 12.1654 8.98001C12.4187 8.74001 12.6854 8.50667 12.9654 8.28001C13.2587 8.04001 13.5721 7.82667 13.9054 7.64001C14.2521 7.45334 14.6321 7.30667 15.0454 7.20001C15.2321 7.16001 15.4454 7.14001 15.6854 7.14001C15.9254 7.14001 16.0987 7.17334 16.2054 7.24001C16.3121 7.17334 16.4454 7.19334 16.6054 7.30001C16.7654 7.39334 16.9254 7.52667 17.0854 7.70001C17.2454 7.87334 17.3654 8.04667 17.4454 8.22001C17.4454 8.38001 17.4387 8.58001 17.4254 8.82001C17.4254 9.04667 17.4121 9.24667 17.3854 9.42001C17.3587 9.59334 17.2987 9.68001 17.2054 9.68001C17.2054 9.68001 17.1854 9.68667 17.1454 9.70001C17.1187 9.70001 17.1054 9.73334 17.1054 9.80001C17.1054 9.93334 17.0054 10.0867 16.8054 10.26C16.5521 10.4333 16.3121 10.5733 16.0854 10.68C15.8587 10.7867 15.6854 10.7933 15.5654 10.7C15.4854 10.6467 15.4121 10.5933 15.3454 10.54C15.2787 10.4867 15.2187 10.42 15.1654 10.34C15.1654 10.34 15.1454 10.3133 15.1054 10.26C15.0787 10.1933 15.0654 10.1333 15.0654 10.08C15.0654 10.0267 15.0854 9.98001 15.1254 9.94001C15.1654 9.88667 15.1854 9.86001 15.1854 9.86001C15.3721 9.68667 15.5121 9.52667 15.6054 9.38001C15.7121 9.23334 15.7854 9.10667 15.8254 9.00001C15.8654 8.88001 15.8854 8.78667 15.8854 8.72001C15.8854 8.64001 15.8654 8.59334 15.8254 8.58001C15.7987 8.55334 15.7321 8.54001 15.6254 8.54001C15.5587 8.54001 15.4121 8.59334 15.1854 8.70001C14.9721 8.80667 14.7454 8.94001 14.5054 9.10001C14.2654 9.24667 14.0787 9.38001 13.9454 9.50001C13.8921 9.59334 13.8521 9.65334 13.8254 9.68001C13.8121 9.70667 13.7787 9.72001 13.7254 9.72001C13.7254 9.66667 13.6921 9.67334 13.6254 9.74001C13.5587 9.80667 13.4787 9.90001 13.3854 10.02C13.2921 10.14 13.1987 10.2667 13.1054 10.4C13.0121 10.5333 12.9387 10.64 12.8854 10.72C12.8721 10.84 12.8387 10.9533 12.7854 11.06C12.7454 11.1533 12.7321 11.2533 12.7454 11.36C12.7587 11.4933 12.8254 11.62 12.9454 11.74C13.0654 11.86 13.2387 12.0133 13.4654 12.2C13.9321 12.5467 14.2787 12.82 14.5054 13.02C14.7454 13.22 14.9121 13.38 15.0054 13.5C15.0987 13.62 15.1587 13.74 15.1854 13.86C15.4121 14.2733 15.4387 14.6333 15.2654 14.94C15.0921 15.2333 14.8254 15.46 14.4654 15.62C14.3321 15.6867 14.0987 15.7467 13.7654 15.8C13.4321 15.8667 13.0787 15.8933 12.7054 15.88C12.3454 15.88 12.0387 15.8267 11.7854 15.72ZM28.3613 15.72C28.1747 15.6667 27.988 15.5733 27.8013 15.44C27.6147 15.3067 27.4213 15.1533 27.2213 14.98C27.0613 14.7667 26.948 14.5733 26.8813 14.4C26.8147 14.2133 26.7747 14 26.7613 13.76C26.7613 13.5067 26.7613 13.1867 26.7613 12.8C26.7613 12.64 26.788 12.4133 26.8413 12.12C26.908 11.8267 26.9747 11.52 27.0413 11.2C27.1213 10.88 27.1947 10.6 27.2613 10.36C27.328 10.1067 27.368 9.94001 27.3813 9.86001C27.4213 9.68667 27.3547 9.58667 27.1813 9.56001C27.008 9.53334 26.8147 9.52667 26.6013 9.54001C26.4013 9.54001 26.268 9.52001 26.2013 9.48001C26.148 9.46667 26.1213 9.40001 26.1213 9.28001C26.1213 9.14667 26.1213 9.08001 26.1213 9.08001C26.1213 9.02667 26.0947 8.99334 26.0413 8.98001C25.988 8.95334 25.9413 8.90667 25.9013 8.84001C25.8747 8.78667 25.908 8.68667 26.0013 8.54001C26.0947 8.39334 26.2147 8.30667 26.3613 8.28001C26.4813 8.25334 26.6613 8.23334 26.9013 8.22001C27.1413 8.19334 27.3813 8.14667 27.6213 8.08001C27.8747 8.00001 28.068 7.88001 28.2013 7.72001C28.3213 7.42667 28.4547 7.11334 28.6013 6.78001C28.748 6.43334 28.888 6.13334 29.0213 5.88001C29.1547 5.61334 29.248 5.44667 29.3013 5.38001C29.528 5.26001 29.7613 5.21334 30.0013 5.24001C30.2413 5.25334 30.428 5.36667 30.5613 5.58001C30.628 5.67334 30.6813 5.74001 30.7213 5.78001C30.7747 5.82001 30.7947 5.88001 30.7813 5.96001C30.7813 6.04001 30.728 6.18667 30.6213 6.40001C30.528 6.60001 30.368 6.91334 30.1413 7.34001C30.0747 7.47334 30.0147 7.59334 29.9613 7.70001C29.908 7.79334 29.8813 7.84001 29.8813 7.84001C29.9347 7.85334 30.0147 7.86001 30.1213 7.86001C30.228 7.86001 30.3613 7.85334 30.5213 7.84001C30.668 7.81334 30.828 7.79334 31.0013 7.78001C31.1747 7.75334 31.328 7.75334 31.4613 7.78001C31.768 7.78001 31.9947 7.86667 32.1413 8.04001C32.288 8.21334 32.368 8.43334 32.3813 8.70001C32.408 8.84667 32.3547 8.97334 32.2213 9.08001C32.088 9.18667 31.8413 9.24001 31.4813 9.24001C31.3613 9.24001 31.188 9.24667 30.9613 9.26001C30.7347 9.27334 30.5013 9.28667 30.2613 9.30001C30.0213 9.31334 29.8147 9.33334 29.6413 9.36001C29.4813 9.37334 29.4013 9.39334 29.4013 9.42001C29.3613 9.44667 29.2947 9.55334 29.2013 9.74001C29.1213 9.91334 29.0347 10.1267 28.9413 10.38C28.8613 10.6333 28.788 10.8733 28.7213 11.1C28.628 11.5533 28.5613 11.9933 28.5213 12.42C28.4813 12.8467 28.4747 13.22 28.5013 13.54C28.5413 13.8467 28.6213 14.0667 28.7413 14.2C28.8613 14.32 29.0413 14.32 29.2813 14.2C29.5347 14.0667 29.768 13.9133 29.9813 13.74C30.2213 13.54 30.428 13.48 30.6013 13.56C30.7747 13.6267 30.8813 13.7733 30.9213 14C30.9747 14.2133 30.9147 14.4467 30.7413 14.7C30.5813 14.9533 30.3547 15.1667 30.0613 15.34C29.768 15.5133 29.468 15.6333 29.1613 15.7C28.8547 15.78 28.588 15.7867 28.3613 15.72ZM41.1824 15.46C40.9291 15.5267 40.6624 15.5733 40.3824 15.6C40.1158 15.64 39.8824 15.56 39.6824 15.36C39.5624 15.1733 39.4558 15.0067 39.3624 14.86C39.2691 14.7133 39.2091 14.4533 39.1824 14.08C39.1691 13.8267 39.1824 13.5533 39.2224 13.26C39.2758 12.9533 39.2958 12.7333 39.2824 12.6C39.3891 12.1067 39.4158 11.7533 39.3624 11.54C39.3224 11.3267 39.2691 11.22 39.2024 11.22C39.0558 11.1933 38.8224 11.3 38.5024 11.54C38.1958 11.78 37.8291 12.12 37.4024 12.56C36.9891 12.9867 36.5424 13.4733 36.0624 14.02C35.8091 14.3667 35.6224 14.6267 35.5024 14.8C35.3958 14.96 35.3158 15.04 35.2624 15.04C35.0224 15.04 34.8024 15 34.6024 14.92C34.4024 14.84 34.2424 14.7267 34.1224 14.58C34.0024 14.4333 33.9291 14.28 33.9024 14.12C33.9024 14.0667 33.9358 13.9267 34.0024 13.7C34.0691 13.46 34.1491 13.1867 34.2424 12.88C34.3358 12.5733 34.4224 12.2867 34.5024 12.02C34.5958 11.7533 34.6624 11.5667 34.7024 11.46C34.8224 11.1133 34.9624 10.6933 35.1224 10.2C35.2958 9.69334 35.4491 9.24667 35.5824 8.86001C35.6358 8.68667 35.7291 8.44001 35.8624 8.12001C35.9958 7.78667 36.1291 7.45334 36.2624 7.12001C36.3958 6.78667 36.4891 6.54001 36.5424 6.38001C36.5824 6.27334 36.6558 6.08667 36.7624 5.82001C36.8691 5.54001 36.9824 5.23334 37.1024 4.90001C37.2358 4.56667 37.3558 4.26001 37.4624 3.98001C37.5824 3.68667 37.6624 3.47334 37.7024 3.34001C37.6891 3.22001 37.6958 3.11334 37.7224 3.02001C37.7624 2.91334 37.8024 2.83334 37.8424 2.78001C37.8958 2.78001 37.9558 2.78001 38.0224 2.78001C38.0891 2.76667 38.1224 2.76001 38.1224 2.76001C38.1224 2.73334 38.2091 2.76001 38.3824 2.84001C38.5691 2.92001 38.7491 3.02001 38.9224 3.14001C39.1091 3.24667 39.2024 3.34001 39.2024 3.42001C39.2691 3.59334 39.2758 3.82001 39.2224 4.10001C39.1691 4.36667 39.0291 4.77334 38.8024 5.32001C38.6558 5.53334 38.5091 5.85334 38.3624 6.28001C38.2291 6.70667 38.0958 7.06667 37.9624 7.36001C37.9091 7.45334 37.8291 7.62001 37.7224 7.86001C37.6291 8.08667 37.5158 8.36001 37.3824 8.68001C37.2624 8.98667 37.1424 9.31334 37.0224 9.66001C36.9024 10.0067 36.7958 10.3467 36.7024 10.68C36.5691 11 36.5224 11.2133 36.5624 11.32C36.6024 11.4267 36.7624 11.3067 37.0424 10.96C37.4158 10.56 37.7624 10.2 38.0824 9.88001C38.4158 9.56001 38.7224 9.30667 39.0024 9.12001C39.2958 8.92001 39.5558 8.83334 39.7824 8.86001C39.9024 8.88667 40.0558 8.97334 40.2424 9.12001C40.4424 9.25334 40.6291 9.41334 40.8024 9.60001C40.9891 9.77334 41.1091 9.94001 41.1624 10.1C41.2158 10.2867 41.2491 10.4667 41.2624 10.64C41.2891 10.8133 41.2958 11.06 41.2824 11.38C41.2691 11.6867 41.2358 12.1467 41.1824 12.76C41.1024 13.2133 41.0491 13.54 41.0224 13.74C40.9958 13.9267 41.0024 14.06 41.0424 14.14C41.0958 14.22 41.1758 14.3067 41.2824 14.4C41.4824 14.56 41.5624 14.7533 41.5224 14.98C41.4824 15.1933 41.3691 15.3533 41.1824 15.46ZM48.7002 15.2C48.3002 15.4267 47.8736 15.56 47.4202 15.6C46.9802 15.6267 46.5669 15.5667 46.1802 15.42C45.7936 15.26 45.4802 15.0267 45.2402 14.72C45.1069 14.5467 44.9802 14.2733 44.8602 13.9C44.7402 13.5133 44.7202 12.9933 44.8002 12.34C44.8802 11.7267 45.0669 11.1067 45.3602 10.48C45.6669 9.85334 46.0402 9.30001 46.4802 8.82001C46.9202 8.34001 47.4002 8.01334 47.9202 7.84001C48.1069 7.77334 48.2936 7.72667 48.4802 7.70001C48.6802 7.66001 48.9402 7.65334 49.2602 7.68001C49.5669 7.72001 49.8402 7.80001 50.0802 7.92001C50.3202 8.02667 50.4936 8.14667 50.6002 8.28001C50.8136 8.49334 50.9536 8.70001 51.0202 8.90001C51.0869 9.10001 51.1136 9.29334 51.1002 9.48001C51.0336 9.90667 50.8402 10.3667 50.5202 10.86C50.2136 11.3533 49.7802 11.72 49.2202 11.96C48.9936 12.0533 48.7269 12.1133 48.4202 12.14C48.1136 12.1667 47.6936 12.1267 47.1602 12.02C46.8402 11.9533 46.6269 11.9867 46.5202 12.12C46.4269 12.2533 46.3869 12.5133 46.4002 12.9C46.4269 13.14 46.4802 13.3533 46.5602 13.54C46.6536 13.7133 46.8202 13.8333 47.0602 13.9C47.3669 13.9533 47.5869 13.96 47.7202 13.92C47.8536 13.8667 48.0202 13.7933 48.2202 13.7C48.3269 13.6333 48.4269 13.56 48.5202 13.48C48.6269 13.4 48.7269 13.32 48.8202 13.24C48.9269 13.16 49.0136 13.1 49.0802 13.06C49.1469 13.0067 49.2136 12.9733 49.2802 12.96C49.3469 12.9467 49.4136 12.94 49.4802 12.94C49.6269 12.9533 49.7669 13.0333 49.9002 13.18C50.0336 13.3267 50.1202 13.4667 50.1602 13.6C50.1602 13.7067 50.0936 13.86 49.9602 14.06C49.8269 14.2467 49.6469 14.4467 49.4202 14.66C49.2069 14.86 48.9669 15.04 48.7002 15.2ZM48.4402 10.74C48.5336 10.7 48.6669 10.6067 48.8402 10.46C49.0269 10.3133 49.1936 10.16 49.3402 10C49.4869 9.82667 49.5602 9.69334 49.5602 9.60001C49.5602 9.45334 49.4602 9.32667 49.2602 9.22001C49.0736 9.11334 48.8269 9.09334 48.5202 9.16001C48.4136 9.18667 48.2869 9.26001 48.1402 9.38001C47.9936 9.50001 47.8469 9.64001 47.7002 9.80001C47.5536 9.94667 47.4269 10.0933 47.3202 10.24C47.2136 10.3733 47.1402 10.48 47.1002 10.56C47.1536 10.6267 47.2602 10.68 47.4202 10.72C47.5802 10.76 47.7536 10.78 47.9402 10.78C48.1402 10.78 48.3069 10.7667 48.4402 10.74ZM61.9837 15.68C61.597 15.7467 61.2103 15.7133 60.8237 15.58C60.4503 15.4467 60.137 15.2333 59.8837 14.94C59.6437 14.6333 59.5237 14.2667 59.5237 13.84C59.4837 13.44 59.517 12.9667 59.6237 12.42C59.7437 11.86 59.917 11.3 60.1437 10.74C60.3837 10.18 60.657 9.70667 60.9637 9.32001C61.2303 9.00001 61.497 8.70667 61.7637 8.44001C62.0303 8.17334 62.2703 7.99334 62.4837 7.90001C62.6703 7.82001 62.897 7.76001 63.1637 7.72001C63.4437 7.66667 63.637 7.64001 63.7437 7.64001C63.957 7.69334 64.1903 7.78001 64.4437 7.90001C64.7103 8.02001 64.8437 8.16001 64.8437 8.32001C64.8437 8.32001 64.857 8.34001 64.8837 8.38001C64.9237 8.40667 64.9437 8.42001 64.9437 8.42001C65.0237 8.42001 65.1103 8.52001 65.2037 8.72001C65.3103 8.90667 65.3903 9.12667 65.4437 9.38001C65.497 9.62001 65.4837 9.81334 65.4037 9.96001C65.3503 10.2133 65.2437 10.46 65.0837 10.7C64.937 10.94 64.8103 11.06 64.7037 11.06C64.6503 11.06 64.597 11.0667 64.5437 11.08C64.5037 11.08 64.4837 11.1133 64.4837 11.18C64.4837 11.2467 64.4103 11.28 64.2637 11.28C64.1303 11.28 63.9903 11.2533 63.8437 11.2C63.697 11.1467 63.6037 11.0667 63.5637 10.96C63.5637 10.8933 63.577 10.8067 63.6037 10.7C63.6303 10.5933 63.6703 10.4133 63.7237 10.16C63.8037 9.78667 63.8103 9.54001 63.7437 9.42001C63.677 9.28667 63.5103 9.27334 63.2437 9.38001C62.9103 9.56667 62.637 9.78667 62.4237 10.04C62.2103 10.28 62.017 10.62 61.8437 11.06C61.6837 11.5 61.5037 12.1133 61.3037 12.9C61.2237 13.2067 61.2103 13.4467 61.2637 13.62C61.3303 13.7933 61.3837 13.8867 61.4237 13.9C61.6103 13.9533 61.8103 13.9667 62.0237 13.94C62.2503 13.9 62.437 13.84 62.5837 13.76C62.797 13.6533 62.9837 13.54 63.1437 13.42C63.317 13.2867 63.5037 13.1467 63.7037 13C63.7703 12.96 63.8303 12.8867 63.8837 12.78C63.937 12.66 64.017 12.5733 64.1237 12.52C64.2303 12.36 64.3637 12.28 64.5237 12.28C64.697 12.2667 64.8637 12.26 65.0237 12.26C65.1303 12.2867 65.2437 12.3533 65.3637 12.46C65.4837 12.5667 65.5703 12.6733 65.6237 12.78C65.6903 12.8733 65.6837 12.94 65.6037 12.98C65.5503 12.98 65.517 13 65.5037 13.04C65.5037 13.0667 65.5037 13.08 65.5037 13.08C65.5303 13.1333 65.4703 13.2533 65.3237 13.44C65.1903 13.6267 65.017 13.8267 64.8037 14.04C64.5903 14.2533 64.3837 14.44 64.1837 14.6C63.997 14.7467 63.8637 14.82 63.7837 14.82C63.6503 14.82 63.5837 14.86 63.5837 14.94C63.5837 14.9667 63.4837 15.0333 63.2837 15.14C63.097 15.2467 62.877 15.3533 62.6237 15.46C62.3837 15.5667 62.1703 15.64 61.9837 15.68ZM70.3488 15.44C70.0688 15.4933 69.8555 15.48 69.7088 15.4C69.5755 15.3067 69.4355 15.1933 69.2888 15.06C69.0755 14.9533 68.8822 14.8067 68.7088 14.62C68.5355 14.42 68.4022 14.2133 68.3088 14C68.2155 13.7867 68.1755 13.62 68.1888 13.5C68.2288 13.0333 68.3355 12.5267 68.5088 11.98C68.6955 11.4333 68.9288 10.9 69.2088 10.38C69.5022 9.86001 69.8288 9.40001 70.1888 9.00001C70.5622 8.58667 70.9622 8.28667 71.3888 8.10001C71.6555 7.99334 71.9422 7.95334 72.2488 7.98001C72.5555 8.00667 72.7622 8.13334 72.8688 8.36001C73.0688 8.74667 73.0222 8.99334 72.7288 9.10001C72.6888 9.10001 72.6422 9.12001 72.5888 9.16001C72.5355 9.18667 72.5088 9.22667 72.5088 9.28001C72.5622 9.30667 72.7088 9.31334 72.9488 9.30001C73.1888 9.27334 73.4288 9.23334 73.6688 9.18001C73.9222 9.11334 74.0888 9.04667 74.1688 8.98001C74.2488 8.94001 74.3088 8.92001 74.3488 8.92001C74.3888 8.92001 74.4888 8.93334 74.6488 8.96001C74.8755 9.02667 74.9888 9.10667 74.9888 9.20001C74.9888 9.25334 75.0088 9.34001 75.0488 9.46001C75.0888 9.56667 75.1355 9.62001 75.1888 9.62001C75.2822 9.63334 75.3022 9.72667 75.2488 9.90001C75.2088 10.0733 75.0555 10.2533 74.7888 10.44C74.5355 10.6 74.3755 10.7067 74.3088 10.76C74.2555 10.8 74.2488 10.8933 74.2888 11.04C74.3955 11.2933 74.3888 11.6 74.2688 11.96C74.1488 12.32 73.9488 12.6933 73.6688 13.08C73.3888 13.4667 73.0555 13.8333 72.6688 14.18C72.2955 14.5133 71.9022 14.8 71.4888 15.04C71.0888 15.2667 70.7088 15.4 70.3488 15.44ZM70.4088 13.76C70.4622 13.76 70.5555 13.7333 70.6888 13.68C70.8222 13.6133 70.9288 13.56 71.0088 13.52C71.0622 13.4667 71.1288 13.4067 71.2088 13.34C71.3022 13.26 71.3755 13.2133 71.4288 13.2C71.4822 13.2 71.5155 13.18 71.5288 13.14C71.5422 13.0867 71.5888 12.9867 71.6688 12.84C71.7488 12.68 71.9088 12.4467 72.1488 12.14C72.4155 11.8467 72.5888 11.6133 72.6688 11.44C72.7488 11.2533 72.7555 11.0533 72.6888 10.84C72.6755 10.7867 72.6355 10.7533 72.5688 10.74C72.5155 10.7267 72.4422 10.6933 72.3488 10.64C72.2155 10.64 72.1222 10.6733 72.0688 10.74C72.0288 10.7933 71.9355 10.76 71.7888 10.64L71.4688 10.24L71.1288 10.58C70.9155 10.7933 70.7222 11.06 70.5488 11.38C70.3888 11.7 70.2622 12.0267 70.1688 12.36C70.0755 12.6933 70.0155 12.9867 69.9888 13.24C69.9755 13.44 70.0088 13.5733 70.0888 13.64C70.1688 13.7067 70.2755 13.7467 70.4088 13.76ZM83.6749 15.52C83.4749 15.52 83.2816 15.46 83.0949 15.34C82.9083 15.2067 82.7549 15.0267 82.6349 14.8C82.5149 14.56 82.4549 14.28 82.4549 13.96C82.4549 13.76 82.4883 13.48 82.5549 13.12C82.6349 12.7467 82.7483 12.28 82.8949 11.72C82.9216 11.5333 82.9416 11.4133 82.9549 11.36C82.9816 11.3067 82.9949 11.2533 82.9949 11.2C82.9949 11.1733 82.9883 11.1533 82.9749 11.14C82.9749 11.1133 82.9616 11.1 82.9349 11.1C82.8283 11.1 82.6816 11.1733 82.4949 11.32C82.3216 11.4533 82.1216 11.6133 81.8949 11.8C81.8549 11.8267 81.8083 11.86 81.7549 11.9C81.7149 11.94 81.6683 11.98 81.6149 12.02C81.5749 12.06 81.5283 12.1 81.4749 12.14C81.3416 12.22 81.1349 12.3733 80.8549 12.6C80.5883 12.8267 80.3083 13.0667 80.0149 13.32C79.7349 13.5733 79.4883 13.7867 79.2749 13.96C79.1683 14.04 79.0749 14.1067 78.9949 14.16C78.9283 14.2133 78.8816 14.24 78.8549 14.24C78.8283 14.24 78.7216 14.2067 78.5349 14.14C78.3616 14.06 78.1883 13.9533 78.0149 13.82C77.8549 13.6733 77.7749 13.5067 77.7749 13.32C77.7749 13.2 77.8216 12.96 77.9149 12.6C78.0216 12.24 78.1683 11.8133 78.3549 11.32C78.5416 10.8267 78.7549 10.3267 78.9949 9.82001C79.0483 9.70001 79.0883 9.54001 79.1149 9.34001C79.1416 9.14001 79.1683 8.94667 79.1949 8.76001C79.2349 8.56001 79.3016 8.41334 79.3949 8.32001C79.4349 8.25334 79.4816 8.20667 79.5349 8.18001C79.6016 8.14001 79.6683 8.12001 79.7349 8.12001C79.8683 8.12001 79.9949 8.15334 80.1149 8.22001C80.2349 8.27334 80.3483 8.36667 80.4549 8.50001C80.6549 8.71334 80.7616 8.96667 80.7749 9.26001C80.8016 9.54001 80.7816 9.81334 80.7149 10.08C80.6483 10.3467 80.5749 10.5667 80.4949 10.74C80.4149 10.9 80.3749 10.9667 80.3749 10.94C80.4283 10.9133 80.5016 10.8467 80.5949 10.74C80.7016 10.6333 80.8816 10.5067 81.1349 10.36C81.4816 10.0933 81.7483 9.90667 81.9349 9.80001C82.1216 9.68001 82.2616 9.59334 82.3549 9.54001C82.4616 9.48667 82.5549 9.42667 82.6349 9.36001C82.7016 9.30667 82.7483 9.27334 82.7749 9.26001C82.8149 9.24667 82.8349 9.24001 82.8349 9.24001C82.8749 9.24001 82.9416 9.21334 83.0349 9.16001C83.1416 9.10667 83.2416 9.08001 83.3349 9.08001C83.4683 9.08001 83.6083 9.11334 83.7549 9.18001C83.9016 9.23334 84.0283 9.31334 84.1349 9.42001C84.2416 9.51334 84.2949 9.61334 84.2949 9.72001C84.2949 9.76001 84.3083 9.79334 84.3349 9.82001C84.3616 9.84667 84.3883 9.88001 84.4149 9.92001C84.4816 10 84.5549 10.1133 84.6349 10.26C84.7283 10.3933 84.7749 10.6133 84.7749 10.92C84.7749 11.1333 84.7283 11.4467 84.6349 11.86C84.5416 12.2733 84.4416 12.68 84.3349 13.08C84.2283 13.4933 84.1749 13.8267 84.1749 14.08C84.1883 14.32 84.2149 14.5067 84.2549 14.64C84.2949 14.76 84.3149 14.86 84.3149 14.94C84.3149 15.0467 84.2616 15.1733 84.1549 15.32C84.0483 15.4533 83.8883 15.52 83.6749 15.52ZM89.9346 16.8C89.2813 16.7867 88.8613 16.6 88.6746 16.24C88.5013 15.8933 88.4546 15.4533 88.5346 14.92C88.6146 14.6667 88.6613 14.44 88.6746 14.24C88.7013 14.0267 88.7613 13.8933 88.8546 13.84C88.8546 13.84 88.8613 13.82 88.8746 13.78C88.9013 13.74 88.8946 13.7 88.8546 13.66C88.8546 13.4867 88.9146 13.2467 89.0346 12.94C89.0613 12.86 89.0946 12.7667 89.1346 12.66C89.1879 12.54 89.2146 12.48 89.2146 12.48C89.1479 12.3733 89.1479 12.2867 89.2146 12.22C89.2813 12.1533 89.3479 12.0933 89.4146 12.04C89.4946 11.9733 89.5013 11.9 89.4346 11.82C89.4079 11.7667 89.4413 11.6467 89.5346 11.46C89.6279 11.26 89.7346 11.0533 89.8546 10.84C89.9746 10.6267 90.0546 10.46 90.0946 10.34C90.0946 10.3133 90.1279 10.22 90.1946 10.06C90.2613 9.90001 90.3413 9.71334 90.4346 9.50001C90.5279 9.28667 90.6146 9.09334 90.6946 8.92001C90.7879 8.74667 90.8479 8.63334 90.8746 8.58001C91.0079 8.51334 90.9546 8.46667 90.7146 8.44001C90.4746 8.41334 90.2213 8.40667 89.9546 8.42001C89.5413 8.40667 89.2079 8.38667 88.9546 8.36001C88.7146 8.33334 88.5146 8.27334 88.3546 8.18001C88.1946 7.99334 88.1746 7.77334 88.2946 7.52001C88.4146 7.25334 88.6079 7.11334 88.8746 7.10001C89.0479 7.08667 89.1813 7.08001 89.2746 7.08001C89.3813 7.08001 89.5146 7.07334 89.6746 7.06001C89.8479 7.03334 90.1146 7.00001 90.4746 6.96001L91.4946 6.88001L91.5546 6.54001C91.6613 6.36667 91.7346 6.25334 91.7746 6.20001C91.8146 6.14667 91.8413 6.09334 91.8546 6.04001C91.8679 5.97334 91.8879 5.86001 91.9146 5.70001C91.9146 5.70001 91.9746 5.59334 92.0946 5.38001C92.2146 5.15334 92.2879 4.92001 92.3146 4.68001C92.4746 4.41334 92.6146 4.17334 92.7346 3.96001C92.8546 3.73334 92.9279 3.59334 92.9546 3.54001C93.1813 3.20667 93.4013 3.02667 93.6146 3.00001C93.8413 2.97334 94.0546 3.02667 94.2546 3.16001C94.3746 3.22667 94.4879 3.31334 94.5946 3.42001C94.7013 3.51334 94.7679 3.64001 94.7946 3.80001C94.8213 3.94667 94.7613 4.14001 94.6146 4.38001C94.5879 4.43334 94.5479 4.53334 94.4946 4.68001C94.4413 4.81334 94.4013 4.92667 94.3746 5.02001C94.2946 5.11334 94.1946 5.26667 94.0746 5.48001C93.9679 5.68001 93.8946 5.88667 93.8546 6.10001C93.7479 6.32667 93.6813 6.46667 93.6546 6.52001C93.6279 6.57334 93.5879 6.60001 93.5346 6.60001C93.5613 6.73334 93.6413 6.80001 93.7746 6.80001C93.9079 6.78667 94.1279 6.77334 94.4346 6.76001C94.6879 6.73334 94.8613 6.70667 94.9546 6.68001C95.0613 6.64001 95.1813 6.65334 95.3146 6.72001C95.3813 6.81334 95.4146 6.95334 95.4146 7.14001C95.4279 7.31334 95.4079 7.48667 95.3546 7.66001C95.3013 7.82001 95.2279 7.92001 95.1346 7.96001C95.0679 7.96001 94.9279 8.00001 94.7146 8.08001C94.5146 8.14667 94.2613 8.18667 93.9546 8.20001L92.8946 8.30001L92.5546 8.98001C92.4613 9.15334 92.3813 9.31334 92.3146 9.46001C92.2479 9.59334 92.2013 9.67334 92.1746 9.70001C92.1746 9.78001 92.1279 9.90001 92.0346 10.06C91.9546 10.22 91.8679 10.3933 91.7746 10.58C91.6946 10.8067 91.6013 11.0133 91.4946 11.2C91.4013 11.3867 91.3546 11.48 91.3546 11.48C91.3013 11.48 91.2746 11.52 91.2746 11.6C91.3413 11.76 91.3213 11.88 91.2146 11.96C91.1479 12 91.0879 12.06 91.0346 12.14C90.9946 12.2067 90.9746 12.24 90.9746 12.24C91.0279 12.2933 91.0346 12.36 90.9946 12.44C90.9679 12.52 90.9279 12.6067 90.8746 12.7C90.8746 12.8067 90.8413 12.96 90.7746 13.16C90.7213 13.36 90.6613 13.5467 90.5946 13.72C90.6079 13.96 90.6213 14.1133 90.6346 14.18C90.6479 14.2467 90.6813 14.2733 90.7346 14.26C90.8013 14.2733 90.8946 14.2733 91.0146 14.26C91.1346 14.2467 91.2213 14.24 91.2746 14.24C91.4746 14.1467 91.3813 14.6133 90.9946 15.64C90.7813 15.9733 90.5679 16.2467 90.3546 16.46C90.1413 16.6867 90.0013 16.8 89.9346 16.8ZM97.6357 15.42C97.1157 15.2067 96.7557 14.86 96.5557 14.38C96.3557 13.9 96.3024 13.26 96.3957 12.46C96.4224 12.0467 96.409 11.7733 96.3557 11.64C96.3024 11.4933 96.2024 11.3533 96.0557 11.22C96.0157 11.1667 95.9224 11.08 95.7757 10.96C95.629 10.8267 95.5624 10.7267 95.5757 10.66C95.5624 10.5667 95.5824 10.4533 95.6357 10.32C95.689 10.1733 95.7357 10.0933 95.7757 10.08C95.869 10.04 95.9624 9.99334 96.0557 9.94001C96.1624 9.88667 96.2424 9.87334 96.2957 9.90001C96.349 9.90001 96.429 9.93334 96.5357 10C96.6557 10.0667 96.7157 10.1267 96.7157 10.18C96.769 10.2733 96.849 10.2333 96.9557 10.06C97.0757 9.88667 97.2024 9.66667 97.3357 9.40001C97.469 9.18667 97.6357 8.98667 97.8357 8.80001C98.0357 8.61334 98.2357 8.44667 98.4357 8.30001C98.649 8.14001 98.829 8.02001 98.9757 7.94001C99.0424 7.91334 99.169 7.87334 99.3557 7.82001C99.5557 7.76667 99.7624 7.72667 99.9757 7.70001C100.189 7.66001 100.349 7.64667 100.456 7.66001C100.696 7.67334 100.949 7.77334 101.216 7.96001C101.482 8.14667 101.689 8.32001 101.836 8.48001C102.009 8.60001 102.122 8.78667 102.176 9.04001C102.242 9.28001 102.269 9.53334 102.256 9.80001C102.242 10.0667 102.189 10.2933 102.096 10.48C102.056 10.6133 101.916 10.8 101.676 11.04C101.436 11.28 101.169 11.5133 100.876 11.74C100.596 11.9533 100.356 12.1 100.156 12.18C99.9824 12.22 99.7757 12.2533 99.5357 12.28C99.2957 12.2933 99.069 12.2933 98.8557 12.28C98.6557 12.2533 98.5157 12.22 98.4357 12.18C98.3424 12.1267 98.2624 12.1467 98.1957 12.24C98.1424 12.32 98.0957 12.5467 98.0557 12.92C98.0424 13.0667 98.0424 13.1933 98.0557 13.3C98.0824 13.4067 98.109 13.4867 98.1357 13.54C98.229 13.7 98.3224 13.82 98.4157 13.9C98.509 13.9667 98.6824 13.9867 98.9357 13.96C99.189 13.9333 99.4424 13.78 99.6957 13.5C99.9624 13.2067 100.202 12.9733 100.416 12.8C100.469 12.7067 100.582 12.6467 100.756 12.62C100.942 12.58 101.162 12.5933 101.416 12.66C101.562 12.7533 101.629 12.9 101.616 13.1C101.616 13.3 101.509 13.5933 101.296 13.98C101.256 14.0733 101.142 14.2133 100.956 14.4C100.782 14.5733 100.589 14.7533 100.376 14.94C100.176 15.1133 100.009 15.24 99.8757 15.32C99.4757 15.5333 99.0824 15.6333 98.6957 15.62C98.309 15.6067 97.9557 15.54 97.6357 15.42ZM99.1157 10.92C99.3157 10.8667 99.4824 10.8133 99.6157 10.76C99.7624 10.7067 99.9024 10.62 100.036 10.5C100.169 10.38 100.322 10.2 100.496 9.96001C100.549 9.81334 100.576 9.68667 100.576 9.58001C100.589 9.47334 100.582 9.40667 100.556 9.38001C100.449 9.27334 100.329 9.24001 100.196 9.28001C100.076 9.30667 99.9424 9.37334 99.7957 9.48001C99.7024 9.52001 99.569 9.60667 99.3957 9.74001C99.2357 9.86001 99.0757 10 98.9157 10.16C98.769 10.3067 98.649 10.4467 98.5557 10.58C98.4757 10.7 98.4624 10.7733 98.5157 10.8C98.489 10.8533 98.5624 10.8867 98.7357 10.9C98.9224 10.9133 99.049 10.92 99.1157 10.92ZM111.435 15.12C111.142 15.0933 110.895 15.0333 110.695 14.94C110.509 14.8333 110.355 14.6267 110.235 14.32C110.182 14.1067 110.155 13.8867 110.155 13.66C110.169 13.42 110.189 13.1933 110.215 12.98C110.242 12.7533 110.255 12.56 110.255 12.4C110.255 12.3733 110.255 12.32 110.255 12.24C110.255 12.16 110.255 12.0867 110.255 12.02C110.229 11.82 110.175 11.7 110.095 11.66C110.029 11.6067 109.909 11.6133 109.735 11.68C109.455 11.8133 109.149 11.9933 108.815 12.22C108.495 12.4333 108.155 12.6867 107.795 12.98C107.449 13.26 107.089 13.56 106.715 13.88C106.422 14.2 106.202 14.46 106.055 14.66C105.922 14.86 105.782 14.96 105.635 14.96C105.529 15.0133 105.415 15 105.295 14.92C105.175 14.84 105.049 14.7467 104.915 14.64C104.822 14.5333 104.709 14.4 104.575 14.24C104.455 14.0667 104.382 13.9533 104.355 13.9C104.355 13.6867 104.369 13.4933 104.395 13.32C104.435 13.1467 104.489 12.9667 104.555 12.78C104.635 12.5933 104.729 12.38 104.835 12.14C104.889 12.0467 104.935 11.9533 104.975 11.86C105.029 11.7533 105.089 11.64 105.155 11.52C105.209 11.3333 105.282 11.12 105.375 10.88C105.482 10.64 105.582 10.4133 105.675 10.2C105.822 9.85334 105.935 9.55334 106.015 9.30001C106.095 9.04667 106.162 8.77334 106.215 8.48001C106.202 8.45334 106.209 8.41334 106.235 8.36001C106.262 8.30667 106.302 8.27334 106.355 8.26001H106.375H106.395C106.489 8.19334 106.662 8.18667 106.915 8.24001C107.182 8.28001 107.382 8.35334 107.515 8.46001C107.795 8.70001 107.929 9.01334 107.915 9.40001C107.902 9.78667 107.702 10.2933 107.315 10.92C107.222 11.1333 107.122 11.3333 107.015 11.52C106.922 11.6933 106.875 11.8133 106.875 11.88C106.875 11.88 106.929 11.84 107.035 11.76C107.142 11.68 107.269 11.5867 107.415 11.48C107.562 11.36 107.689 11.2667 107.795 11.2C107.862 11.1333 108.009 11.0133 108.235 10.84C108.462 10.6533 108.709 10.46 108.975 10.26C109.242 10.06 109.455 9.90667 109.615 9.80001C109.762 9.69334 109.949 9.58667 110.175 9.48001C110.402 9.36001 110.542 9.30001 110.595 9.30001C110.729 9.30001 110.889 9.34667 111.075 9.44001C111.275 9.53334 111.455 9.64667 111.615 9.78001C111.789 9.90001 111.889 10.0133 111.915 10.12C111.915 10.1733 111.909 10.2467 111.895 10.34C111.882 10.42 111.875 10.4933 111.875 10.56C111.862 10.7733 111.855 11.0333 111.855 11.34C111.869 11.6333 111.875 11.9333 111.875 12.24C111.875 12.5333 111.849 12.8 111.795 13.04C111.795 13.04 111.802 13.0533 111.815 13.08C111.829 13.0933 111.842 13.12 111.855 13.16C111.842 13.1733 111.835 13.2 111.835 13.24C111.849 13.2667 111.855 13.28 111.855 13.28C111.882 13.3733 111.909 13.4667 111.935 13.56C111.975 13.6533 112.022 13.76 112.075 13.88C112.129 13.9867 112.189 14.1267 112.255 14.3C112.242 14.4733 112.142 14.6467 111.955 14.82C111.782 14.98 111.609 15.08 111.435 15.12ZM117.955 15.72C117.768 15.6667 117.582 15.5733 117.395 15.44C117.208 15.3067 117.015 15.1533 116.815 14.98C116.655 14.7667 116.542 14.5733 116.475 14.4C116.408 14.2133 116.368 14 116.355 13.76C116.355 13.5067 116.355 13.1867 116.355 12.8C116.355 12.64 116.382 12.4133 116.435 12.12C116.502 11.8267 116.568 11.52 116.635 11.2C116.715 10.88 116.788 10.6 116.855 10.36C116.922 10.1067 116.962 9.94001 116.975 9.86001C117.015 9.68667 116.948 9.58667 116.775 9.56001C116.602 9.53334 116.408 9.52667 116.195 9.54001C115.995 9.54001 115.862 9.52001 115.795 9.48001C115.742 9.46667 115.715 9.40001 115.715 9.28001C115.715 9.14667 115.715 9.08001 115.715 9.08001C115.715 9.02667 115.688 8.99334 115.635 8.98001C115.582 8.95334 115.535 8.90667 115.495 8.84001C115.468 8.78667 115.502 8.68667 115.595 8.54001C115.688 8.39334 115.808 8.30667 115.955 8.28001C116.075 8.25334 116.255 8.23334 116.495 8.22001C116.735 8.19334 116.975 8.14667 117.215 8.08001C117.468 8.00001 117.662 7.88001 117.795 7.72001C117.915 7.42667 118.048 7.11334 118.195 6.78001C118.342 6.43334 118.482 6.13334 118.615 5.88001C118.748 5.61334 118.842 5.44667 118.895 5.38001C119.122 5.26001 119.355 5.21334 119.595 5.24001C119.835 5.25334 120.022 5.36667 120.155 5.58001C120.222 5.67334 120.275 5.74001 120.315 5.78001C120.368 5.82001 120.388 5.88001 120.375 5.96001C120.375 6.04001 120.322 6.18667 120.215 6.40001C120.122 6.60001 119.962 6.91334 119.735 7.34001C119.668 7.47334 119.608 7.59334 119.555 7.70001C119.502 7.79334 119.475 7.84001 119.475 7.84001C119.528 7.85334 119.608 7.86001 119.715 7.86001C119.822 7.86001 119.955 7.85334 120.115 7.84001C120.262 7.81334 120.422 7.79334 120.595 7.78001C120.768 7.75334 120.922 7.75334 121.055 7.78001C121.362 7.78001 121.588 7.86667 121.735 8.04001C121.882 8.21334 121.962 8.43334 121.975 8.70001C122.002 8.84667 121.948 8.97334 121.815 9.08001C121.682 9.18667 121.435 9.24001 121.075 9.24001C120.955 9.24001 120.782 9.24667 120.555 9.26001C120.328 9.27334 120.095 9.28667 119.855 9.30001C119.615 9.31334 119.408 9.33334 119.235 9.36001C119.075 9.37334 118.995 9.39334 118.995 9.42001C118.955 9.44667 118.888 9.55334 118.795 9.74001C118.715 9.91334 118.628 10.1267 118.535 10.38C118.455 10.6333 118.382 10.8733 118.315 11.1C118.222 11.5533 118.155 11.9933 118.115 12.42C118.075 12.8467 118.068 13.22 118.095 13.54C118.135 13.8467 118.215 14.0667 118.335 14.2C118.455 14.32 118.635 14.32 118.875 14.2C119.128 14.0667 119.362 13.9133 119.575 13.74C119.815 13.54 120.022 13.48 120.195 13.56C120.368 13.6267 120.475 13.7733 120.515 14C120.568 14.2133 120.508 14.4467 120.335 14.7C120.175 14.9533 119.948 15.1667 119.655 15.34C119.362 15.5133 119.062 15.6333 118.755 15.7C118.448 15.78 118.182 15.7867 117.955 15.72ZM132.98 15.42C132.807 15.5 132.607 15.5333 132.38 15.52C132.153 15.5067 131.847 15.4333 131.46 15.3C131.433 15.3 131.34 15.24 131.18 15.12C131.02 15 130.86 14.86 130.7 14.7C130.54 14.54 130.433 14.4067 130.38 14.3C130.167 13.9933 130.1 13.54 130.18 12.94C130.273 12.34 130.487 11.62 130.82 10.78C130.913 10.58 131.053 10.3267 131.24 10.02C131.44 9.71334 131.633 9.43334 131.82 9.18001C132.02 8.91334 132.16 8.76001 132.24 8.72001C132.24 8.72001 132.313 8.69334 132.46 8.64001C132.607 8.58667 132.793 8.50001 133.02 8.38001C133.087 8.35334 133.2 8.32001 133.36 8.28001C133.533 8.24001 133.707 8.20667 133.88 8.18001C134.067 8.14001 134.193 8.12667 134.26 8.14001C134.527 8.15334 134.8 8.25334 135.08 8.44001C135.373 8.61334 135.613 8.82001 135.8 9.06001C135.987 9.28667 136.047 9.48667 135.98 9.66001C135.98 9.68667 135.94 9.77334 135.86 9.92001C135.793 10.0533 135.72 10.1933 135.64 10.34C135.56 10.4733 135.493 10.5733 135.44 10.64C135.373 10.72 135.253 10.7533 135.08 10.74C134.92 10.7267 134.773 10.6733 134.64 10.58C134.507 10.4867 134.433 10.36 134.42 10.2C134.393 10.0933 134.293 9.99334 134.12 9.90001C133.96 9.80667 133.88 9.76001 133.88 9.76001C133.773 9.76001 133.633 9.86667 133.46 10.08C133.287 10.2933 133.107 10.5333 132.92 10.8C132.68 11.04 132.507 11.3 132.4 11.58C132.307 11.8467 132.24 12.1 132.2 12.34C132.173 12.5667 132.14 12.74 132.1 12.86C132.047 12.9933 132.047 13.16 132.1 13.36C132.153 13.56 132.22 13.6733 132.3 13.7C132.42 13.7133 132.58 13.7067 132.78 13.68C132.993 13.64 133.213 13.5933 133.44 13.54C133.68 13.4733 133.92 13.4067 134.16 13.34C134.4 13.26 134.613 13.18 134.8 13.1C135.053 12.94 135.273 12.88 135.46 12.92C135.647 12.9467 135.787 12.9733 135.88 13C136.027 13.0533 136.1 13.1667 136.1 13.34C136.1 13.5133 136.04 13.7 135.92 13.9C135.8 14.0867 135.627 14.24 135.4 14.36C135.187 14.4667 134.993 14.5867 134.82 14.72C134.66 14.84 134.58 14.9333 134.58 15C134.527 15 134.467 15.02 134.4 15.06C134.347 15.0867 134.3 15.0933 134.26 15.08C134.233 15.08 134.127 15.1 133.94 15.14C133.753 15.18 133.56 15.2267 133.36 15.28C133.173 15.3333 133.047 15.38 132.98 15.42ZM140.617 15.46C140.443 15.46 140.303 15.4267 140.197 15.36C140.103 15.2933 139.983 15.2 139.837 15.08C139.583 14.8133 139.377 14.5267 139.217 14.22C139.07 13.9133 139.017 13.6467 139.057 13.42C139.097 13.3133 139.11 13.2133 139.097 13.12C139.097 13.0133 139.097 12.96 139.097 12.96C139.03 12.8933 139.01 12.8533 139.037 12.84C139.063 12.8133 139.09 12.7733 139.117 12.72C139.197 12.72 139.223 12.6467 139.197 12.5C139.17 12.3933 139.21 12.1667 139.317 11.82C139.437 11.46 139.597 11.12 139.797 10.8C139.877 10.6667 139.997 10.4933 140.157 10.28C140.317 10.0533 140.49 9.83334 140.677 9.62001C140.877 9.39334 141.057 9.21334 141.217 9.08001C141.55 8.80001 141.857 8.57334 142.137 8.40001C142.43 8.22667 142.723 8.10667 143.017 8.04001C143.31 7.97334 143.61 7.94001 143.917 7.94001C144.237 7.94001 144.497 8.04667 144.697 8.26001C145.003 8.39334 145.217 8.57334 145.337 8.80001C145.47 9.02667 145.557 9.32001 145.597 9.68001C145.637 10.08 145.597 10.5733 145.477 11.16C145.357 11.7333 145.03 12.4 144.497 13.16C144.163 13.64 143.837 14.0133 143.517 14.28C143.197 14.5467 142.843 14.7933 142.457 15.02C142.177 15.2067 141.877 15.32 141.557 15.36C141.237 15.4 140.923 15.4333 140.617 15.46ZM142.657 13.02C142.95 12.7667 143.157 12.4867 143.277 12.18C143.41 11.8733 143.55 11.5133 143.697 11.1C143.75 11.02 143.783 10.8867 143.797 10.7C143.823 10.5133 143.83 10.3333 143.817 10.16C143.803 9.97334 143.757 9.86667 143.677 9.84001C143.557 9.74667 143.437 9.72667 143.317 9.78001C143.197 9.82001 143.043 9.90667 142.857 10.04C142.457 10.3733 142.083 10.76 141.737 11.2C141.403 11.6267 141.17 12.1533 141.037 12.78C140.997 13.1133 141.03 13.3667 141.137 13.54C141.257 13.7 141.443 13.7467 141.697 13.68C141.963 13.6 142.283 13.38 142.657 13.02ZM154.963 15.12C154.669 15.0933 154.423 15.0333 154.223 14.94C154.036 14.8333 153.883 14.6267 153.763 14.32C153.709 14.1067 153.683 13.8867 153.683 13.66C153.696 13.42 153.716 13.1933 153.743 12.98C153.769 12.7533 153.783 12.56 153.783 12.4C153.783 12.3733 153.783 12.32 153.783 12.24C153.783 12.16 153.783 12.0867 153.783 12.02C153.756 11.82 153.703 11.7 153.623 11.66C153.556 11.6067 153.436 11.6133 153.263 11.68C152.983 11.8133 152.676 11.9933 152.343 12.22C152.023 12.4333 151.683 12.6867 151.323 12.98C150.976 13.26 150.616 13.56 150.243 13.88C149.949 14.2 149.729 14.46 149.583 14.66C149.449 14.86 149.309 14.96 149.163 14.96C149.056 15.0133 148.943 15 148.823 14.92C148.703 14.84 148.576 14.7467 148.443 14.64C148.349 14.5333 148.236 14.4 148.103 14.24C147.983 14.0667 147.909 13.9533 147.883 13.9C147.883 13.6867 147.896 13.4933 147.923 13.32C147.963 13.1467 148.016 12.9667 148.083 12.78C148.163 12.5933 148.256 12.38 148.363 12.14C148.416 12.0467 148.463 11.9533 148.503 11.86C148.556 11.7533 148.616 11.64 148.683 11.52C148.736 11.3333 148.809 11.12 148.903 10.88C149.009 10.64 149.109 10.4133 149.203 10.2C149.349 9.85334 149.463 9.55334 149.543 9.30001C149.623 9.04667 149.689 8.77334 149.743 8.48001C149.729 8.45334 149.736 8.41334 149.763 8.36001C149.789 8.30667 149.829 8.27334 149.883 8.26001H149.903H149.923C150.016 8.19334 150.189 8.18667 150.443 8.24001C150.709 8.28001 150.909 8.35334 151.043 8.46001C151.323 8.70001 151.456 9.01334 151.443 9.40001C151.429 9.78667 151.229 10.2933 150.843 10.92C150.749 11.1333 150.649 11.3333 150.543 11.52C150.449 11.6933 150.403 11.8133 150.403 11.88C150.403 11.88 150.456 11.84 150.563 11.76C150.669 11.68 150.796 11.5867 150.943 11.48C151.089 11.36 151.216 11.2667 151.323 11.2C151.389 11.1333 151.536 11.0133 151.763 10.84C151.989 10.6533 152.236 10.46 152.503 10.26C152.769 10.06 152.983 9.90667 153.143 9.80001C153.289 9.69334 153.476 9.58667 153.703 9.48001C153.929 9.36001 154.069 9.30001 154.123 9.30001C154.256 9.30001 154.416 9.34667 154.603 9.44001C154.803 9.53334 154.983 9.64667 155.143 9.78001C155.316 9.90001 155.416 10.0133 155.443 10.12C155.443 10.1733 155.436 10.2467 155.423 10.34C155.409 10.42 155.403 10.4933 155.403 10.56C155.389 10.7733 155.383 11.0333 155.383 11.34C155.396 11.6333 155.403 11.9333 155.403 12.24C155.403 12.5333 155.376 12.8 155.323 13.04C155.323 13.04 155.329 13.0533 155.343 13.08C155.356 13.0933 155.369 13.12 155.383 13.16C155.369 13.1733 155.363 13.2 155.363 13.24C155.376 13.2667 155.383 13.28 155.383 13.28C155.409 13.3733 155.436 13.4667 155.463 13.56C155.503 13.6533 155.549 13.76 155.603 13.88C155.656 13.9867 155.716 14.1267 155.783 14.3C155.769 14.4733 155.669 14.6467 155.483 14.82C155.309 14.98 155.136 15.08 154.963 15.12ZM159.602 18.02C159.482 18.02 159.322 17.96 159.122 17.84C158.922 17.72 158.742 17.5733 158.582 17.4C158.476 17.28 158.382 17.1533 158.302 17.02C158.236 16.8867 158.202 16.7533 158.202 16.62C158.202 16.4733 158.229 16.26 158.282 15.98C158.336 15.7 158.362 15.5333 158.362 15.48C158.362 15.36 158.382 15.1533 158.422 14.86C158.476 14.5533 158.529 14.2467 158.582 13.94C158.649 13.62 158.696 13.38 158.722 13.22C158.736 13.1533 158.742 13.1067 158.742 13.08C158.756 13.0533 158.762 13.04 158.762 13.04C158.829 12.8133 158.882 12.6067 158.922 12.42C158.976 12.22 159.016 12.0333 159.042 11.86C159.162 11.34 159.242 10.9533 159.282 10.7C159.336 10.4333 159.402 10.1933 159.482 9.98001C159.522 9.86001 159.569 9.74667 159.622 9.64001C159.662 9.54667 159.709 9.44667 159.762 9.34001C159.816 9.23334 159.882 9.11334 159.962 8.98001C160.229 8.23334 160.449 7.64667 160.622 7.22001C160.796 6.78001 160.969 6.39334 161.142 6.06001C161.156 6.03334 161.162 6.00667 161.162 5.98001C161.176 5.95334 161.189 5.93334 161.202 5.92001C161.336 5.56001 161.509 5.20001 161.722 4.84001C161.949 4.48001 162.216 4.12001 162.522 3.76001C162.842 3.40001 163.202 3.04001 163.602 2.68001C163.882 2.54667 164.156 2.42667 164.422 2.32001C164.702 2.21334 164.969 2.16001 165.222 2.16001C165.489 2.16001 165.729 2.22001 165.942 2.34001C166.156 2.44667 166.336 2.57334 166.482 2.72001C166.656 2.88001 166.782 3.05334 166.862 3.24001C166.956 3.41334 167.002 3.55334 167.002 3.66001C166.949 3.87334 166.842 4.12001 166.682 4.40001C166.536 4.66667 166.369 4.92001 166.182 5.16001C165.996 5.40001 165.822 5.60001 165.662 5.76001C165.516 5.92001 165.416 6.00001 165.362 6.00001C165.229 6.00001 165.142 5.94001 165.102 5.82001C165.076 5.68667 165.029 5.54667 164.962 5.40001C164.936 5.34667 164.902 5.29334 164.862 5.24001C164.836 5.18667 164.802 5.14001 164.762 5.10001C164.762 5.03334 164.789 4.92001 164.842 4.76C164.909 4.58667 164.942 4.43334 164.942 4.30001C164.942 4.22001 164.916 4.14001 164.862 4.06001C164.822 3.98001 164.762 3.97334 164.682 4.04001C164.562 4.12001 164.449 4.20001 164.342 4.28001C164.249 4.34667 164.156 4.42001 164.062 4.50001C163.969 4.58001 163.869 4.68667 163.762 4.82001C163.669 4.94001 163.556 5.09334 163.422 5.28001C163.369 5.36001 163.316 5.44001 163.262 5.52001C163.209 5.58667 163.169 5.65334 163.142 5.72001C163.062 5.84001 163.002 5.94667 162.962 6.04001C162.936 6.12001 162.909 6.19334 162.882 6.26001C162.856 6.34001 162.836 6.39334 162.822 6.42001C162.809 6.44667 162.789 6.46001 162.762 6.46001C162.776 6.43334 162.749 6.49334 162.682 6.64001C162.629 6.78667 162.556 6.95334 162.462 7.14001C162.409 7.27334 162.349 7.40001 162.282 7.52001C162.216 7.64001 162.149 7.73334 162.082 7.80001H162.102C162.102 7.80001 162.069 7.88001 162.002 8.04001C161.949 8.18667 161.889 8.34001 161.822 8.50001C161.756 8.66001 161.722 8.75334 161.722 8.78001C161.722 8.84667 161.836 8.86001 162.062 8.82001C162.302 8.78001 162.562 8.73334 162.842 8.68001C163.136 8.61334 163.362 8.58001 163.522 8.58001C163.629 8.58001 163.722 8.60001 163.802 8.64001C163.896 8.66667 163.969 8.70667 164.022 8.76001C164.142 8.86667 164.229 9.01334 164.282 9.20001C164.349 9.37334 164.382 9.55334 164.382 9.74001C164.382 9.84667 164.282 9.94001 164.082 10.02C163.882 10.0867 163.576 10.1733 163.162 10.28C162.802 10.36 162.496 10.4267 162.242 10.48C162.002 10.5333 161.802 10.58 161.642 10.62C161.482 10.66 161.349 10.7133 161.242 10.78C161.149 10.8333 161.076 10.9 161.022 10.98C160.982 11.0467 160.949 11.1333 160.922 11.24C160.922 11.2933 160.916 11.34 160.902 11.38C160.902 11.4067 160.896 11.4333 160.882 11.46C160.869 11.5133 160.842 11.62 160.802 11.78C160.762 11.9267 160.716 12.1 160.662 12.3C160.622 12.5 160.576 12.7067 160.522 12.92C160.482 13.12 160.442 13.3133 160.402 13.5C160.389 13.6333 160.369 13.7533 160.342 13.86C160.329 13.9667 160.322 14.0467 160.322 14.1C160.269 14.1667 160.209 14.3267 160.142 14.58C160.089 14.8333 160.056 15.0333 160.042 15.18C160.042 15.2067 160.042 15.24 160.042 15.28C160.042 15.3067 160.042 15.3333 160.042 15.36C160.042 15.4133 160.022 15.5733 159.982 15.84C159.956 16.12 159.942 16.4067 159.942 16.7L159.882 17.28C159.869 17.4667 159.842 17.6333 159.802 17.78C159.776 17.94 159.709 18.02 159.602 18.02ZM165.562 15.48C165.349 15.48 165.149 15.3733 164.962 15.16C164.776 14.9467 164.682 14.6533 164.682 14.28C164.682 14 164.709 13.7333 164.762 13.48C164.829 13.2267 164.909 12.9067 165.002 12.52C165.096 12.2933 165.196 12.0067 165.302 11.66C165.422 11.3 165.536 10.9467 165.642 10.6C165.762 10.24 165.862 9.93334 165.942 9.68001C166.022 9.41334 166.069 9.26001 166.082 9.22001C166.096 9.15334 166.129 9.10001 166.182 9.06001C166.236 9.02001 166.309 9.00001 166.402 9.00001C166.536 9.00001 166.689 9.06001 166.862 9.18001C167.036 9.30001 167.189 9.45334 167.322 9.64001C167.469 9.81334 167.556 9.98001 167.582 10.14C167.582 10.2733 167.569 10.38 167.542 10.46C167.529 10.54 167.496 10.6467 167.442 10.78C167.389 10.9 167.316 11.1 167.222 11.38C167.129 11.6467 167.009 12.0333 166.862 12.54C166.729 13.0333 166.562 13.7 166.362 14.54C166.282 14.8733 166.182 15.1133 166.062 15.26C165.942 15.4067 165.776 15.48 165.562 15.48ZM166.582 6.54001C166.582 6.39334 166.642 6.18667 166.762 5.92001C166.882 5.64001 167.029 5.38667 167.202 5.16001C167.376 4.92001 167.542 4.80001 167.702 4.80001C167.782 4.80001 167.856 4.80667 167.922 4.82001C168.002 4.83334 168.076 4.85334 168.142 4.88001C168.422 4.98667 168.636 5.20001 168.782 5.52001C168.942 5.84001 168.969 6.18667 168.862 6.56001C168.756 6.92001 168.449 7.23334 167.942 7.50001C167.889 7.52667 167.836 7.54001 167.782 7.54001C167.742 7.54001 167.689 7.54001 167.622 7.54001C167.382 7.54001 167.182 7.48001 167.022 7.36001C166.876 7.22667 166.762 7.08001 166.682 6.92001C166.616 6.76001 166.582 6.63334 166.582 6.54001ZM171.262 15.18C171.222 15.1933 171.135 15.1867 171.002 15.16C170.882 15.1333 170.755 15.1 170.622 15.06C170.502 15.02 170.429 14.9867 170.402 14.96C170.349 14.9067 170.275 14.8133 170.182 14.68C170.089 14.5333 170.035 14.34 170.022 14.1C170.022 13.86 170.135 13.5733 170.362 13.24C170.429 13.1067 170.509 12.9067 170.602 12.64C170.695 12.3733 170.789 12.0933 170.882 11.8C170.989 11.4933 171.082 11.22 171.162 10.98C171.255 10.74 171.322 10.5733 171.362 10.48C171.389 10.2533 171.375 10.0933 171.322 10C171.282 9.89334 171.169 9.83334 170.982 9.82001C170.849 9.82001 170.742 9.77334 170.662 9.68001C170.595 9.58667 170.562 9.42001 170.562 9.18001C170.589 8.99334 170.635 8.83334 170.702 8.70001C170.782 8.55334 170.889 8.43334 171.022 8.34001C171.155 8.27334 171.322 8.22667 171.522 8.20001C171.735 8.17334 171.942 8.16667 172.142 8.18001C172.342 8.19334 172.482 8.24001 172.562 8.32001C172.655 8.37334 172.729 8.49334 172.782 8.68001C172.849 8.85334 172.902 9.03334 172.942 9.22001C172.982 9.40667 173.009 9.54667 173.022 9.64001C173.155 9.53334 173.302 9.38667 173.462 9.20001C173.635 9.00001 173.809 8.81334 173.982 8.64001C174.195 8.49334 174.449 8.34667 174.742 8.20001C175.035 8.04001 175.249 7.96001 175.382 7.96001C175.529 7.96001 175.709 8.03334 175.922 8.18001C176.135 8.31334 176.269 8.43334 176.322 8.54001C176.455 8.76667 176.549 9.00667 176.602 9.26001C176.669 9.50001 176.629 9.71334 176.482 9.90001C176.349 10.0733 176.162 10.2467 175.922 10.42C175.682 10.58 175.382 10.6267 175.022 10.56C174.942 10.5333 174.855 10.4333 174.762 10.26C174.682 10.0867 174.635 9.96001 174.622 9.88001C174.622 9.84001 174.562 9.88001 174.442 10C174.335 10.1067 174.202 10.24 174.042 10.4C173.895 10.56 173.755 10.7067 173.622 10.84C173.395 11.12 173.155 11.5 172.902 11.98C172.649 12.46 172.349 13.04 172.002 13.72C171.842 14.0533 171.709 14.3733 171.602 14.68C171.495 14.9733 171.382 15.14 171.262 15.18ZM179.509 14.94C179.256 14.8333 179.049 14.6733 178.889 14.46C178.742 14.2333 178.669 13.96 178.669 13.64C178.669 13.5067 178.696 13.28 178.749 12.96C178.802 12.64 178.876 12.28 178.969 11.88C179.062 11.48 179.156 11.1067 179.249 10.76C179.382 10.52 179.469 10.28 179.509 10.04C179.562 9.80001 179.589 9.65334 179.589 9.60001C179.616 9.44001 179.662 9.22667 179.729 8.96001C179.796 8.69334 179.862 8.45334 179.929 8.24001C180.009 8.01334 180.062 7.88667 180.089 7.86001C180.156 7.79334 180.269 7.75334 180.429 7.74001C180.589 7.72667 180.749 7.74667 180.909 7.80001C181.069 7.84001 181.176 7.92667 181.229 8.06001C181.376 8.22001 181.456 8.46001 181.469 8.78001C181.496 9.10001 181.436 9.47334 181.289 9.90001C181.169 10.1667 181.049 10.48 180.929 10.84C180.809 11.2 180.702 11.5333 180.609 11.84C180.529 12.1333 180.482 12.3333 180.469 12.44L179.749 12.42C179.976 12.2067 180.189 11.9867 180.389 11.76C180.589 11.52 180.736 11.3333 180.829 11.2C181.056 10.8933 181.249 10.64 181.409 10.44C181.582 10.2267 181.802 9.97334 182.069 9.68001C182.336 9.37334 182.622 9.16001 182.929 9.04001C183.236 8.90667 183.462 8.84001 183.609 8.84001C183.902 8.89334 184.162 9.04667 184.389 9.30001C184.629 9.54001 184.776 9.90001 184.829 10.38C184.829 10.5667 184.809 10.7867 184.769 11.04C184.742 11.2933 184.729 11.42 184.729 11.42C184.729 11.42 184.836 11.2867 185.049 11.02C185.276 10.7533 185.576 10.4533 185.949 10.12C186.202 9.93334 186.449 9.82667 186.689 9.80001C186.929 9.76001 187.142 9.84001 187.329 10.04C187.676 10.2267 187.929 10.5533 188.089 11.02C188.249 11.4867 188.302 12.0133 188.249 12.6C188.209 12.9467 188.209 13.2267 188.249 13.44C188.302 13.64 188.356 13.82 188.409 13.98C188.582 14.22 188.609 14.4333 188.489 14.62C188.369 14.7933 188.262 14.88 188.169 14.88C188.036 14.88 187.836 14.8533 187.569 14.8C187.302 14.7467 187.056 14.6533 186.829 14.52C186.616 14.3867 186.509 14.2067 186.509 13.98V12.74C186.509 12.4467 186.496 12.2333 186.469 12.1C186.456 11.9533 186.422 11.86 186.369 11.82C186.222 11.74 186.042 11.8 185.829 12C185.616 12.2 185.382 12.4867 185.129 12.86C184.889 13.22 184.629 13.6267 184.349 14.08C184.096 14.4933 183.889 14.7467 183.729 14.84C183.569 14.92 183.416 14.9133 183.269 14.82C182.976 14.7267 182.789 14.6 182.709 14.44C182.642 14.2667 182.636 14.0733 182.689 13.86C182.756 13.6333 182.836 13.34 182.929 12.98C183.036 12.62 183.136 12.2733 183.229 11.94C183.322 11.5933 183.382 11.34 183.409 11.18C183.356 11.0733 183.262 11.04 183.129 11.08C183.009 11.1067 182.882 11.1667 182.749 11.26C182.589 11.3667 182.416 11.48 182.229 11.6C182.056 11.72 181.849 11.9733 181.609 12.36C181.449 12.6133 181.269 12.8933 181.069 13.2C180.869 13.4933 180.682 13.76 180.509 14C180.349 14.24 180.216 14.4067 180.109 14.5C180.016 14.74 179.929 14.8933 179.849 14.96C179.769 15.0133 179.656 15.0067 179.509 14.94ZM193.476 15.96C192.743 15.96 192.176 15.7467 191.776 15.32C191.389 14.8933 191.196 14.24 191.196 13.36C191.196 12.88 191.283 12.3533 191.456 11.78C191.643 11.2067 191.883 10.6467 192.176 10.1C192.483 9.55334 192.816 9.08001 193.176 8.68001C193.536 8.26667 193.896 7.98001 194.256 7.82001C194.389 7.75334 194.529 7.70667 194.676 7.68001C194.836 7.64001 194.989 7.62001 195.136 7.62001C195.296 7.62001 195.469 7.63334 195.656 7.66001C195.856 7.67334 196.043 7.71334 196.216 7.78001C196.523 7.87334 196.789 8.05334 197.016 8.32001C197.256 8.58667 197.376 8.97334 197.376 9.48001C197.376 9.61334 197.363 9.76001 197.336 9.92001C197.309 10.0667 197.263 10.2133 197.196 10.36C197.023 10.8 196.756 11.22 196.396 11.62C196.049 12.02 195.683 12.3 195.296 12.46C195.189 12.5133 195.083 12.5533 194.976 12.58C194.883 12.5933 194.783 12.6 194.676 12.6C194.396 12.6 194.143 12.56 193.916 12.48C193.703 12.4 193.503 12.2933 193.316 12.16L193.156 12.02L193.056 12.22C192.963 12.4733 192.896 12.6867 192.856 12.86C192.829 13.0333 192.816 13.16 192.816 13.24C192.816 13.4 192.823 13.5667 192.836 13.74C192.849 13.9 192.889 14.0333 192.956 14.14C193.009 14.2067 193.076 14.26 193.156 14.3C193.249 14.34 193.363 14.36 193.496 14.36C193.576 14.36 193.649 14.36 193.716 14.36C193.796 14.3467 193.863 14.3333 193.916 14.32C194.156 14.2667 194.349 14.18 194.496 14.06C194.656 13.9267 194.823 13.8133 194.996 13.72L195.076 13.68L195.056 13.62C195.283 13.5 195.436 13.4267 195.516 13.4C195.596 13.36 195.656 13.3267 195.696 13.3C195.749 13.2467 195.809 13.22 195.876 13.22C196.063 13.1933 196.243 13.2467 196.416 13.38C196.603 13.5 196.696 13.6533 196.696 13.84C196.696 13.92 196.636 14.0467 196.516 14.22C196.409 14.3933 196.269 14.5667 196.096 14.74C195.936 14.9 195.769 15.0267 195.596 15.12C195.556 15.1333 195.516 15.1533 195.476 15.18C195.436 15.1933 195.396 15.2133 195.356 15.24H195.376C195.256 15.4 195.136 15.48 195.016 15.48H194.856C194.803 15.5733 194.629 15.6733 194.336 15.78C194.043 15.9 193.756 15.96 193.476 15.96ZM194.516 11.14C194.636 11.14 194.743 11.12 194.836 11.08C194.943 11.04 195.043 10.9933 195.136 10.94C195.456 10.7133 195.663 10.42 195.756 10.06C195.849 9.70001 195.816 9.42667 195.656 9.24001C195.629 9.20001 195.596 9.17334 195.556 9.16001C195.516 9.13334 195.469 9.12001 195.416 9.12001C195.269 9.12001 195.103 9.16667 194.916 9.26001C194.743 9.35334 194.569 9.48667 194.396 9.66001C194.223 9.83334 194.063 10.04 193.916 10.28L193.656 10.7C193.683 10.6867 193.703 10.68 193.716 10.68C193.743 10.6667 193.763 10.66 193.776 10.66C193.896 10.66 193.976 10.7 194.016 10.78C194.056 10.86 194.103 10.94 194.156 11.02C194.223 11.1 194.343 11.14 194.516 11.14ZM205.216 15.98C205.042 16.02 204.869 15.9733 204.696 15.84C204.536 15.72 204.422 15.5867 204.356 15.44C204.276 15.2267 204.222 15.0267 204.196 14.84C204.182 14.64 204.169 14.4133 204.156 14.16L204.136 13.48L203.316 14.22C202.862 14.6467 202.436 14.9533 202.036 15.14C201.649 15.3133 201.296 15.4 200.976 15.4C200.829 15.3733 200.649 15.28 200.436 15.12C200.236 14.9467 200.049 14.76 199.876 14.56C199.716 14.3467 199.602 14.1733 199.536 14.04C199.456 13.8533 199.429 13.5933 199.456 13.26C199.496 12.9267 199.576 12.56 199.696 12.16C199.829 11.76 199.989 11.3667 200.176 10.98C200.376 10.5933 200.602 10.26 200.856 9.98001C201.296 9.31334 201.842 8.90001 202.496 8.74001C203.149 8.56667 203.729 8.62001 204.236 8.90001C204.476 9.02001 204.649 9.06667 204.756 9.04001C204.862 9.01334 204.929 8.92667 204.956 8.78001C205.009 8.56667 205.069 8.36667 205.136 8.18001C205.202 7.99334 205.296 7.71334 205.416 7.34001C205.749 6.32667 206.036 5.53334 206.276 4.96001C206.529 4.38667 206.756 3.88667 206.956 3.46001C207.102 3.15334 207.249 2.94 207.396 2.82C207.542 2.70001 207.669 2.64667 207.776 2.66001C207.922 2.66001 208.102 2.71334 208.316 2.82C208.542 2.92667 208.689 3.07334 208.756 3.26001C208.809 3.38001 208.829 3.50667 208.816 3.64001C208.816 3.77334 208.776 3.91334 208.696 4.06001C208.522 4.38001 208.316 4.80667 208.076 5.34001C207.849 5.86001 207.616 6.43334 207.376 7.06001C207.149 7.68667 206.936 8.30667 206.736 8.92001C206.536 9.53334 206.369 10.0733 206.236 10.54C206.156 10.8333 206.089 11.2067 206.036 11.66C205.996 12.1133 205.962 12.58 205.936 13.06C205.922 13.5267 205.922 13.9467 205.936 14.32C205.949 14.68 205.969 14.9133 205.996 15.02C206.076 15.2867 206.076 15.4867 205.996 15.62C205.916 15.7533 205.802 15.84 205.656 15.88C205.509 15.9333 205.362 15.9667 205.216 15.98ZM201.916 13.56C202.102 13.4933 202.269 13.4133 202.416 13.32C202.562 13.2267 202.736 13.1067 202.936 12.96C203.336 12.6533 203.622 12.3867 203.796 12.16C203.982 11.9333 204.129 11.6533 204.236 11.32C204.302 11.12 204.302 10.9467 204.236 10.8C204.182 10.6533 204.082 10.5133 203.936 10.38C203.789 10.26 203.602 10.2133 203.376 10.24C203.149 10.2533 202.889 10.3933 202.596 10.66C202.276 10.9533 202.002 11.2933 201.776 11.68C201.549 12.0667 201.362 12.62 201.216 13.34C201.189 13.4733 201.236 13.5667 201.356 13.62C201.476 13.6733 201.662 13.6533 201.916 13.56ZM212.322 11.94C212.109 11.9133 211.956 11.8267 211.862 11.68C211.769 11.52 211.722 11.36 211.722 11.2C211.722 11.1733 211.709 11.0933 211.682 10.96C211.656 10.8267 211.656 10.7067 211.682 10.6C211.682 10.52 211.722 10.3933 211.802 10.22C211.882 10.0467 211.969 9.84001 212.062 9.60001C212.209 9.33334 212.436 9.03334 212.742 8.70001C213.049 8.36667 213.309 8.12001 213.522 7.96001C213.642 7.86667 213.729 7.80667 213.782 7.78001C213.836 7.74001 213.862 7.72001 213.862 7.72001C213.862 7.66667 213.956 7.56667 214.142 7.42001C214.329 7.26001 214.489 7.15334 214.622 7.10001C214.622 7.10001 214.709 7.04001 214.882 6.92001C215.056 6.80001 215.189 6.69334 215.282 6.60001C215.589 6.29334 215.816 6.01334 215.962 5.76001C216.109 5.49334 216.222 5.19334 216.302 4.86001C216.382 4.52667 216.469 4.11334 216.562 3.62001C216.576 3.15334 216.556 2.86667 216.502 2.76001C216.449 2.64001 216.342 2.52001 216.182 2.40001C215.849 2.33334 215.522 2.34667 215.202 2.44001C214.896 2.52001 214.609 2.68667 214.342 2.94001C214.089 3.18001 213.862 3.52667 213.662 3.98001C213.582 4.20667 213.536 4.36001 213.522 4.44001C213.522 4.52001 213.542 4.62667 213.582 4.76C213.582 4.86667 213.596 4.99334 213.622 5.14001C213.662 5.28667 213.682 5.39334 213.682 5.46001C213.629 5.47334 213.522 5.50667 213.362 5.56001C213.202 5.60001 213.029 5.62001 212.842 5.62001C212.669 5.60667 212.502 5.52667 212.342 5.38001C212.342 5.38001 212.289 5.31334 212.182 5.18001C212.076 5.04667 212.009 4.95334 211.982 4.90001C211.902 4.79334 211.862 4.69334 211.862 4.60001C211.876 4.49334 211.882 4.34001 211.882 4.14001C211.976 3.87334 212.102 3.57334 212.262 3.24001C212.422 2.90667 212.629 2.58667 212.882 2.28001C213.136 1.97334 213.429 1.73334 213.762 1.56001C214.042 1.44001 214.302 1.31334 214.542 1.18001C214.796 1.03334 214.922 0.960005 214.922 0.960005C214.922 0.960005 214.969 0.960005 215.062 0.960005C215.169 0.946672 215.342 0.926672 215.582 0.900006C215.662 0.913339 215.749 0.913339 215.842 0.900006C215.949 0.886672 216.002 0.913339 216.002 0.980006C216.042 0.980006 216.122 0.980006 216.242 0.980006C216.362 0.980006 216.476 0.980006 216.582 0.980006C216.742 1.02001 216.936 1.10667 217.162 1.24001C217.389 1.36001 217.602 1.49334 217.802 1.64001C218.002 1.78667 218.149 1.91334 218.242 2.02001C218.336 2.31334 218.376 2.68001 218.362 3.12001C218.349 3.54667 218.282 4.00001 218.162 4.48001C218.042 4.96001 217.882 5.42001 217.682 5.86001C217.496 6.28667 217.269 6.64667 217.002 6.94001C216.922 7.02001 216.776 7.15334 216.562 7.34001C216.349 7.52667 216.122 7.73334 215.882 7.96001C215.656 8.17334 215.469 8.36001 215.322 8.52001C214.869 8.77334 214.469 9.15334 214.122 9.66001C213.776 10.1667 213.516 10.66 213.342 11.14C213.196 11.46 213.036 11.6733 212.862 11.78C212.689 11.8867 212.509 11.94 212.322 11.94ZM211.862 15.48C211.582 15.5867 211.349 15.6333 211.162 15.62C210.976 15.62 210.769 15.5333 210.542 15.36C210.276 15.0933 210.189 14.8267 210.282 14.56C210.376 14.28 210.609 14.0133 210.982 13.76C211.249 13.5867 211.442 13.5 211.562 13.5C211.696 13.4867 211.896 13.5333 212.162 13.64C212.602 13.92 212.796 14.2333 212.742 14.58C212.689 14.9133 212.396 15.2133 211.862 15.48Z" fill="#B8C318"/>
</svg>
