<svg width="110" height="83" viewBox="0 0 110 83" fill="none" xmlns="http://www.w3.org/2000/svg">
<g id="&#229;&#156;&#150;&#229;&#177;&#164;_1" clip-path="url(#clip0_85_1120)">
<path id="Vector" d="M81.2652 28.5707C81.2652 28.5707 94.7702 31.2467 106.464 25.7252C106.782 25.5728 107.133 25.5058 107.484 25.5305C107.835 25.5552 108.174 25.6709 108.466 25.8663C108.759 26.0617 108.995 26.33 109.153 26.6447C109.31 26.9594 109.383 27.3095 109.363 27.6608C109.033 34.5739 105.091 50.3538 77.7686 60.5406" fill="#5E9A33"/>
<path id="Vector_2" d="M28.726 28.5708C28.726 28.5708 15.221 31.2469 3.52679 25.7253C3.20944 25.5757 2.85881 25.5108 2.50891 25.5367C2.159 25.5627 1.82159 25.6786 1.52979 25.8734C1.23799 26.0683 1.00188 26.3355 0.843793 26.6487C0.685709 26.9619 0.611166 27.3105 0.62776 27.6609C0.957803 34.574 4.90041 50.3539 32.2226 60.5407" fill="#5E9A33"/>
<g id="Group" opacity="0.2">
<path id="Vector_3" d="M32.0531 60.38C32.0531 60.38 20.2521 58.0252 10.0386 62.8688C9.76016 62.9981 9.45305 63.0532 9.14701 63.0291C8.84098 63.0049 8.54632 62.9025 8.29159 62.7312C8.03686 62.5598 7.83046 62.3256 7.69271 62.0513C7.55495 61.7769 7.49025 61.4715 7.50499 61.1649C7.79935 55.1349 11.2424 41.3534 35.1037 32.4512" fill="#5E9A33"/>
<path id="Vector_4" d="M77.9381 60.38C77.9381 60.38 89.7393 58.0252 99.9617 62.8688C100.24 62.996 100.546 63.0494 100.851 63.0243C101.155 62.9991 101.449 62.8961 101.702 62.7251C101.956 62.554 102.161 62.321 102.298 62.0478C102.435 61.7746 102.5 61.4704 102.486 61.1649C102.201 55.1349 98.7576 41.3534 74.8875 32.4512" fill="#5E9A33"/>
</g>
<path id="Vector_5" d="M41.8922 82.4664C41.5123 82.4654 41.1465 82.3216 40.8674 82.0639C40.5882 81.8062 40.4156 81.4534 40.3843 81.0748L39.555 70.8433C39.5503 70.4596 39.6911 70.0884 39.9492 69.8045C40.2074 69.5206 40.5638 69.3453 40.9462 69.3136C41.3286 69.2819 41.7089 69.3962 42.0102 69.6337C42.3116 69.8713 42.5114 70.2145 42.5699 70.5937L43.4084 80.8248C43.4254 81.0236 43.4031 81.2241 43.3422 81.4141C43.2813 81.6041 43.1833 81.7801 43.0538 81.9319C42.9244 82.0838 42.7658 82.208 42.5878 82.2982C42.4098 82.3885 42.2158 82.4426 42.0168 82.4572L41.8922 82.4664Z" fill="#695D41"/>
<path id="Vector_6" d="M44.2559 82.5908C44.0888 82.5948 43.9222 82.5677 43.7651 82.5107C43.5767 82.4474 43.4029 82.3475 43.2533 82.2167C43.1037 82.0859 42.9814 81.9267 42.8935 81.7485C42.8057 81.5703 42.7538 81.3762 42.7411 81.1779C42.7284 80.9796 42.7555 80.7809 42.8199 80.593L46.1379 70.7809C46.1992 70.5891 46.2982 70.4114 46.4289 70.2582C46.5595 70.105 46.7191 69.9792 46.8989 69.8884C47.0786 69.7977 47.2747 69.7437 47.4755 69.7295C47.6764 69.7152 47.878 69.7411 48.0687 69.8057C48.2595 69.8702 48.4357 69.972 48.5866 70.1053C48.7375 70.2386 48.86 70.4005 48.9477 70.5818C49.0353 70.7631 49.0859 70.96 49.0966 71.1611C49.1074 71.3622 49.0783 71.5635 49.0104 71.753L45.6919 81.5651C45.5907 81.8653 45.3975 82.1262 45.1397 82.3104C44.8819 82.4945 44.5727 82.5925 44.2559 82.5908Z" fill="#695D41"/>
<path id="Vector_7" d="M68.1615 82.4663H68.0365C67.8383 82.4506 67.6455 82.3954 67.4685 82.3047C67.2916 82.2141 67.134 82.0893 67.0055 81.9376C66.877 81.7858 66.7797 81.6105 66.7194 81.421C66.659 81.2316 66.6369 81.032 66.654 80.8339L67.4838 70.6024C67.5169 70.2014 67.7077 69.8298 68.0147 69.5697C68.3217 69.3095 68.7196 69.182 69.1206 69.2151C69.5216 69.2482 69.8927 69.4395 70.1528 69.7465C70.413 70.0535 70.5405 70.4514 70.5074 70.8524L69.6781 81.0835C69.6426 81.4612 69.4676 81.8121 69.1872 82.0678C68.9068 82.3235 68.5409 82.4658 68.1615 82.4663Z" fill="#695D41"/>
<path id="Vector_8" d="M65.7979 82.5908C65.4811 82.5925 65.172 82.4945 64.9142 82.3104C64.6564 82.1262 64.4631 81.8653 64.3619 81.5651L61.0434 71.753C60.9755 71.5635 60.946 71.3622 60.9567 71.1611C60.9675 70.96 61.0181 70.7631 61.1057 70.5818C61.1933 70.4005 61.3163 70.2386 61.4672 70.1053C61.6181 69.972 61.7943 69.8702 61.9851 69.8057C62.1758 69.7411 62.3774 69.7152 62.5783 69.7295C62.7791 69.7437 62.9752 69.7977 63.155 69.8884C63.3347 69.9792 63.4943 70.105 63.6249 70.2582C63.7556 70.4114 63.8546 70.5891 63.9159 70.7809L67.2339 80.593C67.3612 80.9739 67.3323 81.3894 67.1533 81.7489C66.9744 82.1085 66.6602 82.3826 66.2796 82.5107C66.1255 82.5676 65.9621 82.5947 65.7979 82.5908Z" fill="#695D41"/>
<path id="Vector_9" d="M49.1277 75.833C49.8037 72.4313 48.1936 69.2448 45.5312 68.7157C42.8688 68.1866 40.1623 70.5152 39.4863 73.9169C38.8102 77.3186 40.4207 80.5052 43.0831 81.0343C45.7455 81.5634 48.4516 79.2347 49.1277 75.833Z" fill="#FEFAE9"/>
<path id="Vector_10" d="M67.0862 80.8817C69.7486 80.3526 71.3591 77.166 70.6831 73.7643C70.0071 70.3626 67.3005 68.0339 64.6381 68.563C61.9757 69.0921 60.3657 72.2787 61.0417 75.6803C61.7177 79.082 64.4238 81.4108 67.0862 80.8817Z" fill="#FEFAE9"/>
<path id="Vector_11" d="M54.737 3.43323e-05C54.737 3.43323e-05 53.9877 6.83261 42.0616 12.2739C38.741 13.7812 35.8989 16.1728 33.8462 19.1869C27.4773 28.5709 17.2368 48.9802 31.8836 68.203C31.8836 68.203 39.7513 77.1231 54.8441 77.1231C54.8441 77.1231 69.1965 78.1936 78.0364 68.774C86.1982 60.1037 90.1408 38.5616 75.4583 18.5806C73.331 15.6963 70.4211 13.4829 67.0735 12.2029C62.7027 10.4902 56.1196 7.32342 54.737 3.43323e-05Z" fill="#FEFAE9"/>
<path id="Vector_12" d="M81.2295 28.3927C79.669 24.9271 77.7433 21.6378 75.485 18.5806C73.3577 15.6963 70.4478 13.4829 67.1002 12.2029C62.7026 10.5081 56.1197 7.32344 54.7371 0.0178928C54.7371 0.0178928 53.9879 6.85047 42.0617 12.2917C38.7411 13.7991 35.899 16.1906 33.8463 19.2048C31.8498 22.1436 30.1067 25.2475 28.6367 28.482C31.063 31.4167 40.2331 41.1304 54.7728 41.1304C54.7728 41.1126 68.4738 41.4161 81.2295 28.3927Z" fill="#7DBE37"/>
<path id="Vector_13" d="M28.6814 28.3658C28.6814 28.3658 36.9234 54.8495 54.8706 54.8495C72.8179 54.8495 81.3186 28.571 81.3186 28.571C81.3186 28.571 80.2304 24.7176 72.8445 24.6105C65.4587 24.5035 36.8162 24.6105 36.8162 24.6105C36.8162 24.6105 29.7161 24.8602 28.6814 28.3658Z" fill="#F2E865"/>
<path id="Vector_14" d="M42.6501 30.2391C47.2859 30.2391 51.044 26.4811 51.044 21.8453C51.044 17.2095 47.2859 13.4515 42.6501 13.4515C38.0144 13.4515 34.2563 17.2095 34.2563 21.8453C34.2563 26.4811 38.0144 30.2391 42.6501 30.2391Z" fill="white"/>
<path id="Vector_15" d="M66.9128 30.2391C71.5486 30.2391 75.3066 26.4811 75.3066 21.8453C75.3066 17.2095 71.5486 13.4515 66.9128 13.4515C62.2771 13.4515 58.519 17.2095 58.519 21.8453C58.519 26.4811 62.2771 30.2391 66.9128 30.2391Z" fill="white"/>
<path id="Vector_16" d="M50.0361 24.8426L54.0232 12.3544C54.0818 12.176 54.1955 12.0203 54.3477 11.9102C54.4998 11.8 54.6829 11.7408 54.8708 11.7408C55.0586 11.7408 55.2417 11.8 55.3938 11.9102C55.546 12.0203 55.6597 12.176 55.7183 12.3544L59.5094 24.8426L55.727 38.5437C55.6706 38.7255 55.5576 38.8846 55.4043 38.9975C55.251 39.1104 55.0655 39.1713 54.8751 39.1713C54.6847 39.1713 54.4996 39.1104 54.3463 38.9975C54.1931 38.8846 54.0796 38.7255 54.0232 38.5437L50.0361 24.8426Z" fill="#84765B"/>
<path id="Vector_17" d="M51.8916 24.9493L54.3176 14.6023C54.3401 14.4816 54.4043 14.3724 54.4988 14.294C54.5933 14.2155 54.7122 14.1724 54.8351 14.1724C54.9579 14.1724 55.0768 14.2155 55.1713 14.294C55.2658 14.3724 55.33 14.4816 55.3525 14.6023L57.6627 24.9406L55.3525 36.2871C55.3525 36.4243 55.2979 36.5555 55.2009 36.6525C55.1039 36.7496 54.9723 36.8041 54.8351 36.8041C54.6978 36.8041 54.5662 36.7496 54.4692 36.6525C54.3722 36.5555 54.3176 36.4243 54.3176 36.2871L51.8916 24.9493Z" fill="#695D41"/>
<path id="Vector_18" d="M75.307 27.67C75.1867 27.6726 75.0679 27.6445 74.9616 27.5881C74.8554 27.5317 74.7651 27.4488 74.6999 27.3477C74.6346 27.2467 74.5961 27.1306 74.5884 27.0106C74.5806 26.8905 74.6041 26.7707 74.6559 26.6622L75.8776 23.9861C75.916 23.9005 75.9714 23.8232 76.04 23.7592C76.1087 23.6952 76.1893 23.6457 76.2774 23.6133C76.3655 23.5809 76.4589 23.5663 76.5527 23.5706C76.6464 23.5749 76.7384 23.5978 76.8232 23.6381C76.9951 23.7194 77.1283 23.8654 77.1934 24.0441C77.2585 24.2227 77.2505 24.4196 77.1712 24.5924L75.949 27.2149C75.8994 27.346 75.8117 27.4596 75.6973 27.5407C75.5829 27.6217 75.4472 27.6667 75.307 27.67Z" fill="#E27E7C"/>
<path id="Vector_19" d="M77.394 28.4373C77.2925 28.4382 77.1919 28.417 77.0996 28.375C76.9283 28.2955 76.7954 28.1511 76.7302 27.9738C76.665 27.7966 76.6726 27.601 76.7515 27.4294L77.965 24.7978C78.0463 24.6259 78.1918 24.4931 78.3705 24.428C78.5492 24.3629 78.7464 24.3709 78.9193 24.4502C79.0044 24.4904 79.0808 24.5468 79.144 24.6166C79.2072 24.6864 79.2558 24.7679 79.2873 24.8566C79.3188 24.9453 79.3328 25.0396 79.3278 25.1336C79.3228 25.2276 79.2989 25.3196 79.2581 25.4045L78.0451 28.027C77.9863 28.1498 77.8938 28.2536 77.7786 28.3262C77.6634 28.3988 77.5302 28.4372 77.394 28.4373Z" fill="#E27E7C"/>
<path id="Vector_20" d="M31.6697 27.4737C31.5643 27.4756 31.4597 27.451 31.3662 27.4023C31.1949 27.3228 31.062 27.1788 30.9968 27.0016C30.9316 26.8244 30.9392 26.6287 31.0181 26.4572L32.2403 23.8343C32.3261 23.6737 32.4701 23.552 32.6428 23.4941C32.8154 23.4362 33.0036 23.4465 33.1689 23.5229C33.3342 23.5992 33.4643 23.7363 33.5321 23.9053C33.6 24.0743 33.6006 24.2628 33.5339 24.4323L32.3117 27.0635C32.2553 27.1862 32.1647 27.2904 32.0508 27.3631C31.937 27.4359 31.8049 27.4741 31.6697 27.4737Z" fill="#E27E7C"/>
<path id="Vector_21" d="M33.7835 28.2411C33.6809 28.2429 33.5794 28.2183 33.4891 28.1696C33.4034 28.1312 33.3266 28.0758 33.2626 28.0072C33.1986 27.9386 33.1486 27.8579 33.1162 27.7698C33.0838 27.6817 33.0697 27.5883 33.074 27.4945C33.0783 27.4008 33.1012 27.3088 33.1415 27.2241L34.3545 24.6016C34.4338 24.4289 34.5784 24.2948 34.7565 24.2288C34.9347 24.1627 35.1317 24.17 35.3044 24.2492C35.4771 24.3285 35.6112 24.4731 35.6773 24.6513C35.7434 24.8294 35.7361 25.0265 35.6568 25.1992L34.4347 27.8308C34.3767 27.9543 34.2848 28.0581 34.1694 28.1309C34.054 28.2036 33.9199 28.2421 33.7835 28.2411Z" fill="#E27E7C"/>
<path id="Vector_22" d="M66.3865 23.8166C68.3719 23.8166 69.9813 22.2072 69.9813 20.2218C69.9813 18.2365 68.3719 16.627 66.3865 16.627C64.4012 16.627 62.7917 18.2365 62.7917 20.2218C62.7917 22.2072 64.4012 23.8166 66.3865 23.8166Z" fill="#4A1E0E"/>
<path id="Vector_23" d="M44.2112 23.8166C46.1966 23.8166 47.806 22.2072 47.806 20.2218C47.806 18.2365 46.1966 16.627 44.2112 16.627C42.2259 16.627 40.6165 18.2365 40.6165 20.2218C40.6165 22.2072 42.2259 23.8166 44.2112 23.8166Z" fill="#4A1E0E"/>
<path id="Vector_24" d="M41.8922 82.4664C41.5123 82.4654 41.1465 82.3216 40.8674 82.0639C40.5882 81.8062 40.4156 81.4534 40.3843 81.0748L39.555 70.8433C39.5503 70.4596 39.6911 70.0884 39.9492 69.8045C40.2074 69.5206 40.5638 69.3453 40.9462 69.3136C41.3286 69.2819 41.7089 69.3962 42.0102 69.6337C42.3116 69.8713 42.5114 70.2145 42.5699 70.5937L43.4084 80.8248C43.4254 81.0236 43.4031 81.2241 43.3422 81.4141C43.2813 81.6041 43.1833 81.7801 43.0538 81.9319C42.9244 82.0838 42.7658 82.208 42.5878 82.2982C42.4098 82.3885 42.2158 82.4426 42.0168 82.4572L41.8922 82.4664Z" fill="#695D41"/>
<path id="Vector_25" d="M44.2559 82.5908C44.0888 82.5948 43.9222 82.5677 43.7651 82.5107C43.5767 82.4474 43.4029 82.3475 43.2533 82.2167C43.1037 82.0859 42.9814 81.9267 42.8935 81.7485C42.8057 81.5703 42.7538 81.3762 42.7411 81.1779C42.7284 80.9796 42.7555 80.7809 42.8199 80.593L46.1379 70.7809C46.1992 70.5891 46.2982 70.4114 46.4289 70.2582C46.5595 70.105 46.7191 69.9792 46.8989 69.8884C47.0786 69.7977 47.2747 69.7437 47.4755 69.7295C47.6764 69.7152 47.878 69.7411 48.0687 69.8057C48.2595 69.8702 48.4357 69.972 48.5866 70.1053C48.7375 70.2386 48.86 70.4005 48.9477 70.5818C49.0353 70.7631 49.0859 70.96 49.0966 71.1611C49.1074 71.3622 49.0783 71.5635 49.0104 71.753L45.6919 81.5651C45.5907 81.8653 45.3975 82.1262 45.1397 82.3104C44.8819 82.4945 44.5727 82.5925 44.2559 82.5908Z" fill="#695D41"/>
<path id="Vector_26" d="M68.1615 82.4663H68.0365C67.8383 82.4506 67.6455 82.3954 67.4685 82.3047C67.2916 82.2141 67.134 82.0893 67.0055 81.9376C66.877 81.7858 66.7797 81.6105 66.7194 81.421C66.659 81.2316 66.6369 81.032 66.654 80.8339L67.4838 70.6024C67.5169 70.2014 67.7077 69.8298 68.0147 69.5697C68.3217 69.3095 68.7196 69.182 69.1206 69.2151C69.5216 69.2482 69.8927 69.4395 70.1528 69.7465C70.413 70.0535 70.5405 70.4514 70.5074 70.8524L69.6781 81.0835C69.6426 81.4612 69.4676 81.8121 69.1872 82.0678C68.9068 82.3235 68.5409 82.4658 68.1615 82.4663Z" fill="#695D41"/>
<path id="Vector_27" d="M65.7979 82.5908C65.4811 82.5925 65.172 82.4945 64.9142 82.3104C64.6564 82.1262 64.4631 81.8653 64.3619 81.5651L61.0434 71.753C60.9755 71.5635 60.946 71.3622 60.9567 71.1611C60.9675 70.96 61.0181 70.7631 61.1057 70.5818C61.1933 70.4005 61.3163 70.2386 61.4672 70.1053C61.6181 69.972 61.7943 69.8702 61.9851 69.8057C62.1758 69.7411 62.3774 69.7152 62.5783 69.7295C62.7791 69.7437 62.9752 69.7977 63.155 69.8884C63.3347 69.9792 63.4943 70.105 63.6249 70.2582C63.7556 70.4114 63.8546 70.5891 63.9159 70.7809L67.2339 80.593C67.3612 80.9739 67.3323 81.3894 67.1533 81.7489C66.9744 82.1085 66.6602 82.3826 66.2796 82.5107C66.1255 82.5676 65.9621 82.5947 65.7979 82.5908Z" fill="#695D41"/>
</g>
<defs>
<clipPath id="clip0_85_1120">
<rect width="108.745" height="82.6" fill="white" transform="translate(0.627686)"/>
</clipPath>
</defs>
</svg>
