<svg width="140" height="58" viewBox="0 0 140 58" fill="none" xmlns="http://www.w3.org/2000/svg">
<rect x="1" y="1.59998" width="138" height="55" rx="27.5" fill="#FDFDFB"/>
<rect x="1" y="1.59998" width="138" height="55" rx="27.5" stroke="#B8C318" stroke-width="2"/>
<path d="M62.08 36.88C60.82 36.88 60.1 36.18 59.6 35.2C58.64 33.32 56.04 28.62 54.78 25.98L54.66 26.02C54.76 26.8 54.84 27.72 54.84 28.42V35.24C54.84 36.3 54.36 36.92 53.4 36.9C52.42 36.88 51.88 36.32 51.88 35.24V23.92C51.88 22.5 52.56 21.64 53.84 21.64C55.14 21.64 55.68 22.3 56.44 23.74C57.74 26.2 60.1 30.46 61.2 32.58L61.32 32.54C61.2 31.84 61.16 31 61.16 30.3V23.3C61.16 22.24 61.66 21.64 62.66 21.64C63.62 21.64 64.1 22.22 64.1 23.3V34.66C64.1 36.12 63.42 36.88 62.08 36.88ZM81.88 36.9C77.7 36.9 75.06 34.02 75.2 29.06C75.32 24.5 77.9 21.62 82.04 21.62C86.22 21.62 88.8 24.56 88.8 29.06C88.8 34.04 86.36 36.9 81.88 36.9ZM81.96 34.58C84.14 34.58 85.24 32.84 85.24 29.26C85.24 25.76 84.08 23.92 81.96 23.92C79.86 23.92 78.76 25.72 78.76 29.26C78.76 32.84 79.86 34.58 81.96 34.58Z" fill="#B8C318"/>
</svg>
