<svg width="200" height="67" viewBox="0 0 200 67" fill="none" xmlns="http://www.w3.org/2000/svg">
<rect width="200" height="67" rx="33.5" fill="#B8C318"/>
<path d="M36.344 43.39C30.91 43.39 27.478 39.646 27.66 33.198C27.816 27.27 31.17 23.526 36.552 23.526C41.986 23.526 45.34 27.348 45.34 33.198C45.34 39.672 42.168 43.39 36.344 43.39ZM36.448 40.374C39.282 40.374 40.712 38.112 40.712 33.458C40.712 28.908 39.204 26.516 36.448 26.516C33.718 26.516 32.288 28.856 32.288 33.458C32.288 38.112 33.718 40.374 36.448 40.374ZM63.15 43.39C61.746 43.39 60.94 42.688 60.94 41.258V25.684C60.94 24.228 61.798 23.526 63.176 23.526C64.606 23.526 65.412 24.254 65.412 25.684V31.846C66.088 31.144 66.4 30.832 68.116 28.778L71.834 24.332C72.614 23.396 73.706 23.266 74.668 23.968C75.578 24.644 75.656 25.71 74.876 26.62C73.368 28.388 71.652 30.364 70.04 32.054L75.292 40.192C76.02 41.31 75.812 42.324 74.694 43.026C73.628 43.702 72.458 43.416 71.782 42.298L67.18 34.524L65.36 36.318V41.258C65.36 42.688 64.554 43.39 63.15 43.39ZM98.822 36.786C97.808 36.786 97.132 36.24 97.054 35.226L96.352 25.71C96.222 23.968 97.106 23.006 98.822 23.006C100.564 23.006 101.422 23.968 101.292 25.71L100.564 35.226C100.486 36.24 99.836 36.786 98.822 36.786ZM98.822 44.066C97.392 44.066 96.196 42.922 96.196 41.492C96.196 40.166 97.392 39.022 98.822 39.022C100.2 39.022 101.396 40.166 101.396 41.492C101.396 42.922 100.2 44.066 98.822 44.066ZM141.306 42.038C142.216 42.688 142.502 43.676 141.774 44.612C141.02 45.522 140.032 45.652 139.07 44.664C138.108 43.676 136.886 42.506 136.002 41.674C135.482 41.206 135.326 40.738 135.638 40.244C135.716 40.114 135.82 39.984 135.898 39.906H134.13C134.962 40.634 134.988 41.648 134.026 42.428C132.388 43.78 130.36 44.768 128.332 45.314C127.682 45.496 127.214 45.288 127.006 44.742C126.798 44.17 126.954 43.754 127.5 43.39C129.034 42.428 130.412 41.44 131.634 40.14L131.868 39.906H131.218C130.126 39.906 129.528 39.308 129.528 38.216V31.612C129.086 32.964 128.384 34.342 127.552 35.278C127.162 35.694 126.668 35.772 126.226 35.538C125.81 35.304 125.55 34.888 125.784 34.29C126.07 33.562 126.33 32.73 126.538 31.872C126.59 31.638 126.486 31.508 126.252 31.508H125.524V41.934C125.524 45.08 122.378 46.016 119.232 44.404C118.712 44.144 118.53 43.702 118.686 43.13C118.816 42.636 119.128 42.35 119.804 42.402C121.468 42.532 121.676 42.532 121.676 41.284V31.508H119.284C118.582 31.508 118.192 31.092 118.192 30.39C118.192 29.662 118.582 29.272 119.284 29.272H123.158C122.456 28.518 121.65 27.764 120.818 26.958C120.376 26.542 120.298 26.1 120.558 25.684C120.844 25.242 121.26 25.086 121.78 25.268C122.482 25.528 123.262 25.892 124.042 26.308C124.432 25.71 124.77 25.112 125.03 24.54C125.134 24.306 125.004 24.176 124.796 24.176H119.856C119.154 24.176 118.764 23.786 118.764 23.084C118.764 22.382 119.154 21.992 119.856 21.992H125.186C125.81 21.42 126.85 21.238 127.708 21.68C128.852 22.278 129.112 23.552 128.15 24.852C127.396 25.866 126.59 26.724 125.81 27.426C126.382 27.946 126.46 28.622 126.044 29.272H127.942C128.748 29.272 129.268 29.558 129.528 30.052V28.05C129.528 26.88 130.126 26.36 131.218 26.36H133.246C133.35 25.658 133.402 24.93 133.428 24.228H130.152C129.502 24.228 129.06 23.838 129.06 23.11C129.06 22.382 129.424 21.992 130.152 21.992H140.552C141.254 21.992 141.644 22.382 141.644 23.11C141.644 23.838 141.254 24.228 140.552 24.228H137.042C136.652 25.008 136.236 25.736 135.742 26.36H139.07C140.162 26.36 140.76 26.958 140.76 28.05V38.216C140.76 39.308 140.162 39.906 139.07 39.906H137.51C138.732 40.4 140.188 41.232 141.306 42.038ZM136.964 28.856C136.964 28.674 136.834 28.544 136.652 28.544H133.636C133.454 28.544 133.324 28.674 133.324 28.856V30.182H136.964V28.856ZM133.324 32.262V33.9H136.964V32.262H133.324ZM133.636 37.722H136.652C136.834 37.722 136.964 37.592 136.964 37.41V35.98H133.324V37.41C133.324 37.592 133.454 37.722 133.636 37.722ZM154.462 31.56C153.37 31.56 152.772 30.962 152.772 29.87V23.838C152.772 22.746 153.37 22.148 154.462 22.148H162.314C162.886 22.148 163.198 22.46 163.198 23.032C163.198 23.604 162.886 23.916 162.314 23.916H160.546V24.722H161.066C161.976 24.722 162.496 25.242 162.496 26.152C163.146 25.138 163.692 24.02 164.368 22.044C164.654 21.186 165.356 20.77 166.396 21.004C167.228 21.212 167.566 21.706 167.488 22.356H173.312C173.884 22.356 174.222 22.694 174.222 23.266C174.222 23.838 173.884 24.176 173.312 24.176H166.708C166.604 24.306 166.526 24.436 166.448 24.566H172.532C173.078 24.566 173.416 24.904 173.416 25.45C173.416 25.996 173.078 26.334 172.532 26.334H166.266C165.85 26.334 165.564 26.152 165.46 25.84C164.914 26.438 164.316 26.958 163.77 27.4C163.328 27.738 162.938 27.712 162.6 27.348C162.574 27.296 162.522 27.27 162.496 27.218V27.53C162.496 28.44 161.976 28.96 161.066 28.96H160.546V29.792H162.288C162.86 29.792 163.172 30.104 163.172 30.676C163.172 31.248 162.86 31.56 162.288 31.56H154.462ZM156.126 24.228V24.722H157.504V23.916H156.438C156.256 23.916 156.126 24.046 156.126 24.228ZM156.126 26.438V27.244H159.22C159.402 27.244 159.532 27.114 159.532 26.932V26.75C159.532 26.568 159.402 26.438 159.22 26.438H156.126ZM172.584 26.776C173.494 26.776 174.014 27.296 174.014 28.206V30.104C174.014 31.014 173.494 31.534 172.584 31.534H165.2C164.29 31.534 163.77 31.014 163.77 30.104V28.206C163.77 27.296 164.29 26.776 165.2 26.776H172.584ZM166.656 29.818V28.492H166.266C166.084 28.492 165.954 28.622 165.954 28.804V29.506C165.954 29.688 166.084 29.818 166.266 29.818H166.656ZM169.204 29.818V28.492H168.476V29.818H169.204ZM171.778 29.506V28.804C171.778 28.622 171.648 28.492 171.466 28.492H171.024V29.818H171.466C171.648 29.818 171.778 29.688 171.778 29.506ZM156.126 28.96V29.48C156.126 29.662 156.256 29.792 156.438 29.792H157.504V28.96H156.126ZM174.716 39.282C175.496 43.156 174.846 44.534 172.688 44.664C170.582 44.768 169.282 44.794 167.852 44.69C165.356 44.534 164.758 44.118 164.758 41.804V40.556H162.626C160.728 44.066 156.906 45.314 152.954 45.574C152.33 45.626 151.992 45.392 151.888 44.872C151.784 44.378 152.018 43.936 152.694 43.754C156.126 42.896 157.686 42.064 158.518 40.556H156.802C155.71 40.556 155.112 39.958 155.112 38.866V33.614C155.112 32.522 155.71 31.924 156.802 31.924H169.906C170.998 31.924 171.596 32.522 171.596 33.614V38.866C171.596 39.958 170.998 40.556 169.906 40.556H168.502V41.05C168.502 41.7 168.71 41.856 169.62 41.934C170.504 41.986 170.998 41.986 171.804 41.908C172.48 41.83 172.74 41.544 172.792 39.438C172.818 38.788 173.13 38.45 173.676 38.45C174.222 38.45 174.586 38.71 174.716 39.282ZM159.064 34.108V34.394H167.644V34.108C167.644 33.926 167.514 33.796 167.332 33.796H159.376C159.194 33.796 159.064 33.926 159.064 34.108ZM159.064 35.902V36.526H167.644V35.902H159.064ZM159.064 38.034V38.372C159.064 38.554 159.194 38.684 159.376 38.684H167.332C167.514 38.684 167.644 38.554 167.644 38.372V38.034H159.064Z" fill="white"/>
</svg>
