<svg width="239" height="24" viewBox="0 0 239 24" fill="none" xmlns="http://www.w3.org/2000/svg">
<path d="M4.1429 18.56C3.8549 18.48 3.6229 18.408 3.4469 18.344C3.2709 18.296 3.1829 18.272 3.1829 18.272C3.2149 18.192 3.1989 18.12 3.1349 18.056C3.0869 17.992 2.9749 17.952 2.7989 17.936C2.5589 17.776 2.3109 17.552 2.0549 17.264C1.7989 16.976 1.5749 16.68 1.3829 16.376C1.1909 16.072 1.0629 15.848 0.998904 15.704C0.886904 15.464 0.894904 15.32 1.0229 15.272C1.1509 15.208 1.3029 15.136 1.4789 15.056C1.6549 14.928 1.8389 14.832 2.0309 14.768C2.2389 14.704 2.4069 14.808 2.5349 15.08C2.7429 15.448 3.0629 15.76 3.4949 16.016C3.9429 16.272 4.4469 16.424 5.0069 16.472C5.5829 16.52 6.1589 16.424 6.7349 16.184C7.1189 16.008 7.3269 15.768 7.3589 15.464C7.3909 15.144 7.2709 14.776 6.9989 14.36C6.9509 14.232 6.8789 14.128 6.7829 14.048C6.7029 13.968 6.5749 13.864 6.3989 13.736C6.2389 13.608 6.0069 13.4 5.7029 13.112C5.4629 13 5.2389 12.896 5.0309 12.8C4.8389 12.704 4.6309 12.6 4.4069 12.488C4.1509 12.36 3.8629 12.184 3.5429 11.96C3.2229 11.72 2.9269 11.464 2.6549 11.192C2.3829 10.904 2.1749 10.632 2.0309 10.376C1.7749 10.136 1.6149 9.808 1.5509 9.392C1.4869 8.96 1.4949 8.504 1.5749 8.024C1.6709 7.544 1.8229 7.112 2.0309 6.728C2.1269 6.504 2.3029 6.216 2.5589 5.864C2.8149 5.496 3.1029 5.12 3.4229 4.736C3.7429 4.352 4.0469 4.008 4.3349 3.704C4.6389 3.384 4.8789 3.168 5.0549 3.056C5.1829 2.928 5.3189 2.8 5.4629 2.672C5.6069 2.528 5.6789 2.456 5.6789 2.456C5.6949 2.376 5.7189 2.336 5.7509 2.336C5.7989 2.336 5.8229 2.336 5.8229 2.336C5.9029 2.288 6.0789 2.208 6.3509 2.096C6.6229 1.984 6.9189 1.776 7.2389 1.472C8.3109 0.96 9.2229 0.615999 9.9749 0.439999C10.7269 0.247999 11.3189 0.151999 11.7509 0.151999C12.1509 0.167999 12.5429 0.279999 12.9269 0.487999C13.3109 0.679999 13.6389 0.927999 13.9109 1.232C14.1989 1.536 14.3669 1.88 14.4149 2.264C14.5269 2.648 14.4709 3.112 14.2469 3.656C14.0389 4.184 13.7429 4.688 13.3589 5.168C12.9909 5.632 12.6069 5.976 12.2069 6.2C11.7589 6.392 11.3749 6.416 11.0549 6.272C10.7509 6.128 10.6069 5.904 10.6229 5.6C10.6229 5.472 10.6629 5.32 10.7429 5.144C10.8389 4.968 11.0869 4.656 11.4869 4.208C11.9989 3.456 12.2709 2.92 12.3029 2.6C12.3349 2.28 12.1909 2.096 11.8709 2.048C11.7749 2.016 11.5909 2.024 11.3189 2.072C11.0469 2.12 10.7509 2.184 10.4309 2.264C10.1269 2.328 9.8549 2.4 9.6149 2.48C9.3909 2.56 9.2789 2.616 9.2789 2.648C9.2789 2.648 9.2789 2.672 9.2789 2.72C9.2789 2.768 9.2469 2.784 9.1829 2.768C9.1509 2.768 9.0389 2.824 8.8469 2.936C8.6709 3.032 8.4549 3.16 8.1989 3.32C7.9429 3.48 7.6869 3.648 7.4309 3.824C7.1909 3.984 6.9829 4.128 6.8069 4.256C6.6309 4.384 6.5349 4.464 6.5189 4.496C6.4869 4.672 6.3029 4.832 5.9669 4.976C5.6469 5.168 5.3669 5.44 5.1269 5.792C4.8869 6.144 4.6069 6.592 4.2869 7.136C4.0149 7.504 3.8229 7.904 3.7109 8.336C3.5989 8.752 3.5989 9.088 3.7109 9.344C3.7909 9.6 4.0069 9.856 4.3589 10.112C4.7269 10.352 5.2229 10.656 5.8469 11.024C6.3909 11.328 6.9029 11.648 7.3829 11.984C7.8629 12.32 8.2709 12.648 8.6069 12.968C8.9429 13.272 9.1589 13.528 9.2549 13.736C9.4469 14.008 9.5589 14.32 9.5909 14.672C9.6389 15.024 9.6389 15.368 9.5909 15.704C9.5589 16.024 9.5109 16.288 9.4469 16.496C9.3349 16.752 9.1589 17.024 8.9189 17.312C8.6949 17.6 8.4869 17.736 8.2949 17.72C8.1189 17.768 7.9829 17.824 7.8869 17.888C7.8069 17.952 7.7109 18.008 7.5989 18.056C7.4869 18.12 7.2229 18.192 6.8069 18.272C6.3909 18.368 5.9349 18.44 5.4389 18.488C4.9429 18.552 4.5109 18.576 4.1429 18.56ZM15.3665 16.088C15.2545 16.104 15.1265 16.064 14.9825 15.968C14.8545 15.856 14.7345 15.76 14.6225 15.68C14.4625 15.488 14.3505 15.32 14.2865 15.176C14.2225 15.032 14.1905 14.872 14.1905 14.696C14.1905 14.52 14.2065 14.312 14.2385 14.072C14.3185 13.816 14.4145 13.472 14.5265 13.04C14.6385 12.608 14.7745 12.144 14.9345 11.648C14.9665 11.456 15.0225 11.232 15.1025 10.976C15.1985 10.704 15.2945 10.448 15.3905 10.208C15.4865 9.952 15.5585 9.76 15.6065 9.632C15.7185 9.232 15.8305 8.848 15.9425 8.48C16.0705 8.112 16.2225 7.688 16.3985 7.208C16.5745 6.728 16.7905 6.12 17.0465 5.384C17.3985 4.424 17.6625 3.704 17.8385 3.224C18.0145 2.744 18.1425 2.4 18.2225 2.192C18.3025 1.984 18.3585 1.816 18.3905 1.688C18.3905 1.56 18.4785 1.44 18.6545 1.328C18.8465 1.2 19.0145 1.136 19.1585 1.136C19.3825 1.152 19.5985 1.288 19.8065 1.544C20.0145 1.784 20.1585 2.08 20.2385 2.432C20.3185 2.768 20.2625 3.096 20.0705 3.416C19.8145 3.992 19.5585 4.64 19.3025 5.36C19.0625 6.064 18.8225 6.768 18.5825 7.472C18.3425 8.176 18.1025 8.824 17.8625 9.416C17.8465 9.496 17.7905 9.632 17.6945 9.824C17.6145 10.016 17.5425 10.176 17.4785 10.304C17.4145 10.432 17.3505 10.552 17.2865 10.664C17.2385 10.776 17.2145 10.832 17.2145 10.832C17.1985 10.928 17.1665 11.064 17.1185 11.24C17.0705 11.416 17.0225 11.568 16.9745 11.696C16.9585 11.776 16.9345 11.88 16.9025 12.008C16.8705 12.136 16.8465 12.264 16.8305 12.392C16.9105 12.296 17.0225 12.184 17.1665 12.056C17.3105 11.912 17.4945 11.736 17.7185 11.528C17.9745 11.304 18.1985 11.112 18.3905 10.952C18.5825 10.792 18.7745 10.648 18.9665 10.52C19.1425 10.392 19.3025 10.272 19.4465 10.16C19.6065 10.048 19.6865 9.992 19.6865 9.992C19.7185 9.944 19.7505 9.888 19.7825 9.824C19.8305 9.76 19.8785 9.72 19.9265 9.704C19.9585 9.672 20.0145 9.632 20.0945 9.584C20.1745 9.52 20.2545 9.456 20.3345 9.392C20.4785 9.296 20.6305 9.216 20.7905 9.152C20.9505 9.088 21.1185 9.04 21.2945 9.008C21.4705 8.976 21.6385 8.96 21.7985 8.96C21.9905 8.96 22.1905 9.04 22.3985 9.2C22.6065 9.344 22.7985 9.552 22.9745 9.824C23.1345 10.032 23.2305 10.28 23.2625 10.568C23.3105 10.84 23.3185 11.208 23.2865 11.672C23.2865 11.8 23.2465 12.04 23.1665 12.392C23.1025 12.744 23.0545 13.008 23.0225 13.184L22.8065 14H22.9985C23.1745 13.936 23.3425 13.928 23.5025 13.976C23.6785 14.024 23.7665 14.048 23.7665 14.048C23.8465 14.096 23.9185 14.152 23.9825 14.216C24.0625 14.28 24.1345 14.328 24.1985 14.36C24.2945 14.488 24.2785 14.672 24.1505 14.912C24.0225 15.152 23.8785 15.32 23.7185 15.416C23.3345 15.672 22.9905 15.832 22.6865 15.896C22.3985 15.96 22.0945 15.904 21.7745 15.728C21.4705 15.52 21.2625 15.272 21.1505 14.984C21.0545 14.696 21.0145 14.304 21.0305 13.808C21.0945 13.104 21.1345 12.6 21.1505 12.296C21.1665 11.976 21.0865 11.816 20.9105 11.816C20.7185 11.816 20.4545 11.912 20.1185 12.104C19.7985 12.28 19.4385 12.528 19.0385 12.848C18.6385 13.152 18.2385 13.496 17.8385 13.88C17.4545 14.248 17.1105 14.624 16.8065 15.008C16.6145 15.248 16.4065 15.488 16.1825 15.728C15.9585 15.952 15.6865 16.072 15.3665 16.088ZM28.2702 16.496C28.2062 16.368 28.0622 16.24 27.8382 16.112C27.6302 15.984 27.5262 15.888 27.5262 15.824C27.5262 15.76 27.4862 15.664 27.4062 15.536C27.3422 15.392 27.2782 15.288 27.2142 15.224C27.1342 15.128 27.1582 14.896 27.2862 14.528C27.4142 14.144 27.6062 13.68 27.8622 13.136C28.1182 12.592 28.3982 12.04 28.7022 11.48C28.8302 11.352 28.9582 11.184 29.0862 10.976C29.2142 10.768 29.3102 10.632 29.3742 10.568C29.3742 10.504 29.3982 10.448 29.4462 10.4C29.4942 10.336 29.5502 10.304 29.6142 10.304L29.8062 9.92C29.8382 9.856 29.9342 9.728 30.0942 9.536C30.2702 9.344 30.4782 9.136 30.7182 8.912C30.9582 8.672 31.1982 8.448 31.4382 8.24C31.6942 8.032 31.9022 7.88 32.0622 7.784C32.3982 7.56 32.7422 7.456 33.0942 7.472C33.4622 7.488 33.7742 7.6 34.0302 7.808C34.0782 7.856 34.1822 7.952 34.3422 8.096C34.5182 8.24 34.7102 8.4 34.9182 8.576C35.1422 8.752 35.3342 8.912 35.4942 9.056L36.3822 9.848L35.9742 11.048C35.7662 11.688 35.7102 12.248 35.8062 12.728C35.9022 13.208 36.0542 13.624 36.2622 13.976C36.3422 14.152 36.4462 14.288 36.5742 14.384C36.7182 14.48 36.9022 14.544 37.1262 14.576C37.2542 14.592 37.3742 14.64 37.4862 14.72C37.5982 14.8 37.6542 14.928 37.6542 15.104C37.6542 15.488 37.5822 15.768 37.4382 15.944C37.3102 16.104 37.1662 16.2 37.0062 16.232C36.4782 16.296 35.9742 16.24 35.4942 16.064C35.0142 15.888 34.5822 15.432 34.1982 14.696C34.1342 14.6 34.0462 14.424 33.9342 14.168C33.8382 13.896 33.7822 13.72 33.7662 13.64C33.7022 13.72 33.6142 13.824 33.5022 13.952C33.4062 14.064 33.3102 14.168 33.2142 14.264C32.0782 15.416 31.1022 16.168 30.2862 16.52C29.4862 16.856 28.8142 16.848 28.2702 16.496ZM29.5902 14.504C29.7022 14.52 29.8782 14.464 30.1182 14.336C30.3582 14.192 30.6782 13.96 31.0782 13.64C31.6222 13.176 32.0702 12.792 32.4222 12.488C32.7742 12.184 33.1182 11.792 33.4542 11.312L33.9822 10.448C33.8222 10.08 33.6782 9.84 33.5502 9.728C33.4222 9.616 33.2942 9.56 33.1662 9.56C32.9582 9.56 32.7102 9.696 32.4222 9.968C32.1342 10.224 31.8062 10.608 31.4382 11.12C31.0862 11.616 30.6862 12.24 30.2382 12.992C30.0302 13.344 29.8702 13.688 29.7582 14.024C29.6462 14.344 29.5902 14.504 29.5902 14.504ZM42.2452 16.496C42.1972 16.512 42.0932 16.504 41.9332 16.472C41.7892 16.44 41.6372 16.4 41.4772 16.352C41.3332 16.304 41.2452 16.264 41.2132 16.232C41.1492 16.168 41.0612 16.056 40.9492 15.896C40.8372 15.72 40.7732 15.488 40.7572 15.2C40.7572 14.912 40.8932 14.568 41.1652 14.168C41.2452 14.008 41.3412 13.768 41.4532 13.448C41.5652 13.128 41.6772 12.792 41.7892 12.44C41.9172 12.072 42.0292 11.744 42.1252 11.456C42.2372 11.168 42.3172 10.968 42.3652 10.856C42.3972 10.584 42.3812 10.392 42.3172 10.28C42.2692 10.152 42.1332 10.08 41.9092 10.064C41.7492 10.064 41.6212 10.008 41.5252 9.896C41.4452 9.784 41.4052 9.584 41.4052 9.296C41.4372 9.072 41.4932 8.88 41.5732 8.72C41.6692 8.544 41.7972 8.4 41.9572 8.288C42.1172 8.208 42.3172 8.152 42.5572 8.12C42.8132 8.088 43.0612 8.08 43.3012 8.096C43.5412 8.112 43.7092 8.168 43.8052 8.264C43.9172 8.328 44.0052 8.472 44.0692 8.696C44.1492 8.904 44.2132 9.12 44.2612 9.344C44.3092 9.568 44.3412 9.736 44.3572 9.848C44.5172 9.72 44.6932 9.544 44.8852 9.32C45.0932 9.08 45.3012 8.856 45.5092 8.648C45.7652 8.472 46.0692 8.296 46.4212 8.12C46.7732 7.928 47.0292 7.832 47.1892 7.832C47.3652 7.832 47.5812 7.92 47.8372 8.096C48.0932 8.256 48.2532 8.4 48.3172 8.528C48.4772 8.8 48.5892 9.088 48.6532 9.392C48.7332 9.68 48.6852 9.936 48.5092 10.16C48.3492 10.368 48.1252 10.576 47.8372 10.784C47.5492 10.976 47.1892 11.032 46.7572 10.952C46.6612 10.92 46.5572 10.8 46.4452 10.592C46.3492 10.384 46.2932 10.232 46.2772 10.136C46.2772 10.088 46.2052 10.136 46.0612 10.28C45.9332 10.408 45.7732 10.568 45.5812 10.76C45.4052 10.952 45.2372 11.128 45.0772 11.288C44.8052 11.624 44.5172 12.08 44.2132 12.656C43.9092 13.232 43.5492 13.928 43.1332 14.744C42.9412 15.144 42.7812 15.528 42.6532 15.896C42.5252 16.248 42.3892 16.448 42.2452 16.496ZM52.5976 16.976C52.2136 16.976 51.8776 16.776 51.5896 16.376C51.3176 15.96 51.1496 15.464 51.0856 14.888C51.1016 14.76 51.1176 14.576 51.1336 14.336C51.1656 14.096 51.1976 13.848 51.2296 13.592C51.2936 13.288 51.3816 12.896 51.4936 12.416C51.6056 11.936 51.7256 11.456 51.8536 10.976C51.9816 10.48 52.0936 10.056 52.1896 9.704C52.2856 9.336 52.3416 9.12 52.3576 9.056C52.4536 8.832 52.6696 8.776 53.0056 8.888C53.3416 9 53.6296 9.24 53.8696 9.608C53.9656 9.736 54.0216 9.888 54.0376 10.064C54.0696 10.24 54.0456 10.496 53.9656 10.832C53.9016 11.168 53.7736 11.664 53.5816 12.32C53.4056 12.96 53.2696 13.48 53.1736 13.88C53.0936 14.264 53.0616 14.672 53.0776 15.104C53.0136 15.84 52.9496 16.344 52.8856 16.616C52.8216 16.872 52.7256 16.992 52.5976 16.976ZM54.8056 7.016C54.7416 7.064 54.6776 7.088 54.6136 7.088C54.5656 7.072 54.4776 7.024 54.3496 6.944C54.2376 6.928 54.0936 6.856 53.9176 6.728C53.7576 6.584 53.6136 6.44 53.4856 6.296C53.3736 6.152 53.3176 6.064 53.3176 6.032C53.3016 5.872 53.3096 5.616 53.3416 5.264C53.3896 4.912 53.4776 4.584 53.6056 4.28C53.7496 3.96 53.9416 3.792 54.1816 3.776C54.2456 3.776 54.3816 3.808 54.5896 3.872C54.8136 3.936 55.0456 4.016 55.2856 4.112C55.4136 4.352 55.5336 4.664 55.6456 5.048C55.7576 5.432 55.7656 5.808 55.6696 6.176C55.5896 6.528 55.3016 6.808 54.8056 7.016ZM58.7725 16.184C58.7085 16.184 58.5565 16.128 58.3165 16.016C58.0765 15.888 57.9245 15.792 57.8605 15.728C57.7485 15.6 57.6765 15.464 57.6445 15.32C57.6125 15.16 57.5965 14.856 57.5965 14.408C57.5965 13.896 57.7005 13.32 57.9085 12.68C58.1165 12.024 58.4685 11.152 58.9645 10.064L59.9485 8.072C60.0285 7.96 60.1005 7.864 60.1645 7.784C60.2285 7.688 60.3005 7.6 60.3805 7.52C60.4125 7.52 60.4525 7.52 60.5005 7.52C60.5645 7.52 60.6125 7.528 60.6445 7.544C60.7885 7.56 61.0125 7.648 61.3165 7.808C61.6365 7.968 61.8285 8.208 61.8925 8.528C61.8925 8.736 61.8605 8.984 61.7965 9.272C61.7325 9.544 61.5405 9.904 61.2205 10.352C61.0925 10.512 60.9645 10.744 60.8365 11.048C60.7245 11.352 60.6205 11.64 60.5245 11.912C60.5085 11.944 60.4605 12.024 60.3805 12.152C60.3165 12.264 60.2525 12.384 60.1885 12.512C60.1245 12.624 60.0925 12.696 60.0925 12.728L59.9965 12.944L61.0285 11.936C61.7485 11.216 62.3565 10.704 62.8525 10.4C63.3485 10.096 63.7645 9.968 64.1005 10.016C64.4525 10.064 64.7325 10.264 64.9405 10.616C65.0525 10.776 65.1325 10.952 65.1805 11.144C65.2285 11.32 65.2605 11.528 65.2765 11.768C65.2925 12.008 65.2845 12.312 65.2525 12.68V14.048C65.5565 13.968 65.7885 13.904 65.9485 13.856C66.1085 13.792 66.2685 13.736 66.4285 13.688C66.5565 13.656 66.6845 13.624 66.8125 13.592C66.9565 13.56 67.1325 13.536 67.3405 13.52C67.3245 13.728 67.2365 13.984 67.0765 14.288C66.9165 14.592 66.7165 14.896 66.4765 15.2C66.2525 15.504 66.0045 15.76 65.7325 15.968C65.4765 16.176 65.2365 16.28 65.0125 16.28C64.8045 16.28 64.5645 16.216 64.2925 16.088C64.0205 15.944 63.7885 15.672 63.5965 15.272C63.5325 15.064 63.4685 14.824 63.4045 14.552C63.3405 14.28 63.3085 13.992 63.3085 13.688V12.632C63.3085 12.536 63.3005 12.472 63.2845 12.44C63.2845 12.392 63.2765 12.368 63.2605 12.368C63.1965 12.368 62.9885 12.536 62.6365 12.872C62.3005 13.208 61.9565 13.56 61.6045 13.928C60.8685 14.696 60.2525 15.264 59.7565 15.632C59.2765 16 58.9485 16.184 58.7725 16.184ZM73.1962 21.8C72.7482 21.976 72.2762 21.944 71.7802 21.704C71.3002 21.48 70.8842 21.12 70.5322 20.624C70.4682 20.528 70.3722 20.352 70.2442 20.096C70.1162 19.856 69.9882 19.592 69.8602 19.304C69.7482 19.016 69.6602 18.768 69.5962 18.56C69.5482 18.352 69.5482 18.232 69.5962 18.2C69.6602 18.024 69.8042 17.92 70.0282 17.888C70.2522 17.856 70.4762 17.864 70.7002 17.912C70.9242 17.976 71.0522 18.056 71.0842 18.152C71.1322 18.264 71.1802 18.376 71.2282 18.488C71.2762 18.616 71.3322 18.728 71.3962 18.824C71.4762 18.936 71.5482 19.032 71.6122 19.112C71.7882 19.384 71.9802 19.568 72.1882 19.664C72.3962 19.776 72.5562 19.792 72.6682 19.712C72.9402 19.504 73.1402 19.256 73.2682 18.968C73.4122 18.696 73.5962 18.208 73.8202 17.504C73.9962 16.912 74.1482 16.4 74.2762 15.968C74.4042 15.536 74.5402 15.136 74.6842 14.768C74.7322 14.576 74.7882 14.416 74.8522 14.288C74.9322 14.144 75.0042 14.04 75.0682 13.976H75.2122C74.8602 14.2 74.5642 14.424 74.3242 14.648C74.0842 14.872 73.7562 15.072 73.3402 15.248C73.2442 15.36 73.0042 15.432 72.6202 15.464C72.2522 15.48 71.8922 15.432 71.5402 15.32C71.3162 15.192 71.1322 15.064 70.9882 14.936C70.8602 14.792 70.7482 14.632 70.6522 14.456C70.5722 14.28 70.4842 14.072 70.3882 13.832C70.2762 13.592 70.2602 13.2 70.3402 12.656C70.4202 12.112 70.5642 11.568 70.7722 11.024C70.9642 10.624 71.2442 10.192 71.6122 9.728C71.9802 9.264 72.3722 8.848 72.7882 8.48C73.2042 8.096 73.5802 7.856 73.9162 7.76C74.0442 7.696 74.2682 7.624 74.5882 7.544C74.9082 7.448 75.2122 7.44 75.5002 7.52C75.7722 7.552 75.9802 7.616 76.1242 7.712C76.2682 7.792 76.5002 7.968 76.8202 8.24C77.0282 8.448 77.2842 8.72 77.5882 9.056C77.8922 9.376 78.0842 9.648 78.1642 9.872C78.2762 10.112 78.3002 10.376 78.2362 10.664C78.1722 10.936 78.0602 11.176 77.9002 11.384C77.7562 11.592 77.6042 11.8 77.4442 12.008C77.2842 12.216 77.1642 12.504 77.0842 12.872C77.0042 13.352 76.8522 13.896 76.6282 14.504C76.4042 15.096 76.2282 15.648 76.1002 16.16L75.7162 17.648C75.3162 19.008 74.8762 19.992 74.3962 20.6C73.9162 21.224 73.5162 21.624 73.1962 21.8ZM72.6922 13.544C73.0122 13.528 73.2842 13.496 73.5082 13.448C73.7482 13.384 73.9722 13.256 74.1802 13.064C74.3882 12.856 74.6282 12.544 74.9002 12.128C75.1722 11.744 75.3642 11.392 75.4762 11.072C75.5882 10.752 75.6282 10.392 75.5962 9.992C75.5802 9.736 75.5082 9.568 75.3802 9.488C75.2522 9.408 75.0842 9.384 74.8762 9.416C74.5722 9.464 74.3002 9.592 74.0602 9.8C73.8202 9.992 73.5402 10.296 73.2202 10.712C72.9802 11.032 72.7802 11.416 72.6202 11.864C72.4602 12.344 72.3882 12.728 72.4042 13.016C72.4362 13.304 72.5322 13.48 72.6922 13.544ZM88.0868 23.168C87.7348 23.232 87.4948 23.24 87.3668 23.192C87.2388 23.144 87.0628 23.064 86.8388 22.952C86.6628 22.824 86.5348 22.728 86.4548 22.664C86.3748 22.6 86.3188 22.536 86.2868 22.472C86.1268 22.136 86.1028 21.888 86.2148 21.728C86.3268 21.568 86.4868 21.464 86.6948 21.416C86.9188 21.384 87.1108 21.368 87.2708 21.368C87.3828 21.432 87.5668 21.464 87.8228 21.464C88.0948 21.464 88.2628 21.432 88.3268 21.368C88.3268 21.368 88.3988 21.32 88.5428 21.224C88.7028 21.144 88.9108 21.08 89.1668 21.032C89.6628 20.792 90.0548 20.544 90.3428 20.288C90.6308 20.048 90.9508 19.632 91.3028 19.04C91.4468 18.816 91.5988 18.552 91.7588 18.248C91.9188 17.96 92.0308 17.672 92.0948 17.384C92.2228 17.064 92.3668 16.632 92.5268 16.088C92.7028 15.544 92.8548 15.008 92.9828 14.48C93.1108 13.936 93.1828 13.528 93.1988 13.256C93.2948 12.36 93.4788 11.496 93.7508 10.664C94.0228 9.816 94.2388 8.92 94.3988 7.976C94.4948 7.752 94.5668 7.624 94.6148 7.592C94.6628 7.544 94.7668 7.52 94.9268 7.52C95.1028 7.52 95.3108 7.576 95.5508 7.688C95.7908 7.784 95.9668 7.92 96.0788 8.096C96.2388 8.4 96.3108 8.76 96.2948 9.176C96.2948 9.576 96.1908 9.928 95.9828 10.232C95.8228 10.456 95.6788 10.808 95.5508 11.288C95.4388 11.752 95.3268 12.336 95.2148 13.04C95.1348 13.392 95.0468 13.808 94.9508 14.288C94.8708 14.752 94.7828 15.272 94.6868 15.848C94.6228 16.008 94.5348 16.256 94.4228 16.592C94.3108 16.912 94.2388 17.168 94.2068 17.36C94.1908 17.424 94.1428 17.552 94.0628 17.744C93.9828 17.936 93.9028 18.12 93.8228 18.296C93.7428 18.488 93.6868 18.616 93.6548 18.68C92.8868 20.232 91.9988 21.352 90.9908 22.04C89.9988 22.728 89.0308 23.104 88.0868 23.168ZM90.1028 16.376C89.9268 16.376 89.7428 16.28 89.5508 16.088C89.3748 15.896 89.2548 15.744 89.1908 15.632C89.1268 15.472 89.0068 15.32 88.8308 15.176C88.6548 15.032 88.5028 14.856 88.3748 14.648C88.2468 14.44 88.2148 14.184 88.2788 13.88C88.3428 13.672 88.4388 13.36 88.5668 12.944C88.6948 12.512 88.8468 12.04 89.0228 11.528C89.1988 11 89.3748 10.48 89.5508 9.968C89.7428 9.456 89.9188 9 90.0788 8.6C90.2388 8.2 90.3748 7.92 90.4868 7.76C90.5828 7.632 90.7348 7.536 90.9428 7.472C91.1508 7.408 91.3588 7.392 91.5668 7.424C91.7748 7.456 91.9268 7.552 92.0228 7.712C92.1988 7.936 92.2948 8.16 92.3108 8.384C92.3428 8.592 92.2308 8.928 91.9748 9.392C91.9108 9.568 91.8308 9.76 91.7348 9.968C91.6388 10.16 91.5908 10.288 91.5908 10.352C91.5748 10.384 91.5428 10.496 91.4948 10.688C91.4628 10.864 91.4228 11.032 91.3748 11.192C91.3268 11.352 91.2788 11.432 91.2308 11.432C91.1668 11.496 91.0948 11.664 91.0148 11.936C90.9508 12.208 90.8868 12.512 90.8228 12.848C90.7748 13.168 90.7428 13.456 90.7268 13.712C90.7108 13.952 90.7348 14.072 90.7988 14.072C91.2948 14.072 91.7748 13.92 92.2388 13.616C92.7028 13.296 93.2068 12.768 93.7508 12.032L93.9668 14.288C93.7428 14.4 93.5348 14.52 93.3428 14.648C93.1508 14.76 92.9748 14.896 92.8148 15.056C92.7668 15.12 92.6548 15.208 92.4788 15.32C92.3028 15.432 92.1268 15.536 91.9508 15.632C91.7908 15.712 91.6868 15.752 91.6388 15.752C91.6388 15.752 91.6148 15.76 91.5668 15.776C91.5348 15.776 91.5188 15.808 91.5188 15.872C91.5188 15.904 91.4148 15.968 91.2068 16.064C90.9988 16.144 90.7828 16.216 90.5588 16.28C90.3348 16.344 90.1828 16.376 90.1028 16.376ZM101.307 17.216C101.099 17.232 100.931 17.208 100.803 17.144C100.675 17.096 100.515 17.016 100.323 16.904C99.9705 16.632 99.6745 16.296 99.4345 15.896C99.2105 15.496 99.1065 15.16 99.1225 14.888C99.1545 14.744 99.1545 14.616 99.1225 14.504C99.1065 14.392 99.0985 14.336 99.0985 14.336C99.0025 14.256 98.9705 14.208 99.0025 14.192C99.0345 14.16 99.0585 14.112 99.0745 14.048C99.2025 14.016 99.2185 13.928 99.1225 13.784C99.0745 13.656 99.0985 13.368 99.1945 12.92C99.3065 12.456 99.4505 12.024 99.6265 11.624C99.7065 11.448 99.8185 11.216 99.9625 10.928C100.123 10.64 100.299 10.352 100.491 10.064C100.683 9.76 100.859 9.52 101.019 9.344C101.371 8.944 101.683 8.616 101.955 8.36C102.243 8.104 102.563 7.912 102.915 7.784C103.235 7.656 103.555 7.6 103.875 7.616C104.211 7.632 104.507 7.744 104.763 7.952C105.147 8.064 105.491 8.24 105.795 8.48C106.099 8.704 106.307 9.024 106.419 9.44C106.547 9.904 106.587 10.456 106.539 11.096C106.507 11.72 106.235 12.528 105.723 13.52C105.419 14.144 105.115 14.648 104.811 15.032C104.523 15.416 104.171 15.784 103.755 16.136C103.451 16.392 103.059 16.616 102.579 16.808C102.099 17 101.675 17.136 101.307 17.216ZM103.395 13.592C103.603 13.304 103.763 13.024 103.875 12.752C104.003 12.48 104.123 12.104 104.235 11.624C104.283 11.448 104.307 11.232 104.307 10.976C104.323 10.72 104.315 10.488 104.283 10.28C104.267 10.056 104.211 9.936 104.115 9.92C103.907 9.84 103.691 9.84 103.467 9.92C103.259 9.984 103.011 10.176 102.723 10.496C102.467 10.784 102.259 11.056 102.099 11.312C101.955 11.552 101.819 11.848 101.691 12.2C101.579 12.536 101.451 12.976 101.307 13.52C101.179 14.048 101.171 14.472 101.283 14.792C101.411 15.112 101.651 15.2 102.003 15.056C102.355 14.912 102.819 14.424 103.395 13.592ZM115.234 16.952C115.074 16.792 114.946 16.576 114.85 16.304C114.754 16.016 114.658 15.688 114.562 15.32C114.53 15.192 114.514 15.048 114.514 14.888C114.53 14.728 114.53 14.6 114.514 14.504C114.466 14.616 114.386 14.76 114.274 14.936C114.178 15.112 114.082 15.24 113.986 15.32C113.922 15.384 113.778 15.512 113.554 15.704C113.33 15.88 113.106 16.024 112.882 16.136C112.354 16.472 111.882 16.632 111.466 16.616C111.066 16.584 110.714 16.376 110.41 15.992C110.154 15.784 109.946 15.52 109.786 15.2C109.626 14.88 109.594 14.496 109.69 14.048C109.722 13.488 109.802 12.944 109.93 12.416C110.058 11.872 110.322 11.152 110.722 10.256C111.058 9.6 111.314 9.088 111.49 8.72C111.666 8.352 111.778 8.136 111.826 8.072C112.066 7.992 112.362 8 112.714 8.096C113.066 8.176 113.258 8.328 113.29 8.552C113.386 8.712 113.386 9.016 113.29 9.464C113.194 9.896 113.002 10.392 112.714 10.952C112.49 11.496 112.274 12.024 112.066 12.536C111.874 13.048 111.754 13.48 111.706 13.832C111.674 14.184 111.77 14.4 111.994 14.48C112.138 14.56 112.346 14.552 112.618 14.456C112.906 14.36 113.242 14.072 113.626 13.592C114.01 13.112 114.418 12.352 114.85 11.312C114.978 10.992 115.074 10.712 115.138 10.472C115.202 10.216 115.242 9.936 115.258 9.632C115.226 9.44 115.274 9.24 115.402 9.032C115.546 8.824 115.714 8.664 115.906 8.552C115.97 8.472 116.058 8.4 116.17 8.336C116.282 8.256 116.354 8.256 116.386 8.336L116.77 8.312C116.834 8.296 116.906 8.36 116.986 8.504C117.066 8.648 117.146 8.752 117.226 8.816C117.402 8.96 117.482 9.272 117.466 9.752C117.45 10.232 117.258 10.904 116.89 11.768C116.586 12.424 116.378 12.92 116.266 13.256C116.17 13.592 116.114 13.92 116.098 14.24C116.098 14.528 116.122 14.776 116.17 14.984C116.218 15.176 116.362 15.376 116.602 15.584C116.778 15.696 116.874 15.888 116.89 16.16C116.922 16.416 116.93 16.64 116.914 16.832C116.882 16.976 116.754 17.072 116.53 17.12C116.322 17.184 116.09 17.2 115.834 17.168C115.594 17.136 115.394 17.064 115.234 16.952ZM121.093 16.64C120.981 16.64 120.829 16.56 120.637 16.4C120.461 16.24 120.357 16.096 120.325 15.968C120.277 15.84 120.277 15.656 120.325 15.416C120.389 15.16 120.477 14.864 120.589 14.528C120.717 14 120.805 13.616 120.853 13.376C120.901 13.136 120.949 12.928 120.997 12.752C121.045 12.576 121.109 12.32 121.189 11.984C121.285 11.776 121.357 11.576 121.405 11.384C121.469 11.176 121.533 10.968 121.597 10.76C121.677 10.552 121.765 10.344 121.861 10.136C121.973 9.72 122.109 9.328 122.269 8.96C122.445 8.576 122.613 8.256 122.773 8C122.805 7.952 122.877 7.864 122.989 7.736C123.101 7.608 123.189 7.544 123.253 7.544C123.381 7.416 123.557 7.376 123.781 7.424C124.005 7.456 124.197 7.536 124.357 7.664C124.549 7.872 124.653 8.12 124.669 8.408C124.701 8.68 124.589 9.064 124.333 9.56C124.141 10.056 123.957 10.448 123.781 10.736C123.621 11.008 123.461 11.328 123.301 11.696C123.477 11.44 123.693 11.176 123.949 10.904C124.205 10.632 124.405 10.416 124.549 10.256C124.757 10.032 124.949 9.856 125.125 9.728C125.317 9.584 125.573 9.408 125.893 9.2C126.165 9.008 126.437 8.832 126.709 8.672C126.997 8.512 127.341 8.464 127.741 8.528C127.901 8.512 128.069 8.592 128.245 8.768C128.437 8.944 128.581 9.176 128.677 9.464C128.789 9.736 128.789 10.032 128.677 10.352C128.309 10.272 127.981 10.288 127.693 10.4C127.405 10.496 127.157 10.616 126.949 10.76C126.757 10.904 126.605 11.016 126.493 11.096C126.333 11.192 126.149 11.32 125.941 11.48C125.733 11.624 125.509 11.792 125.269 11.984C125.029 12.16 124.773 12.36 124.501 12.584C124.117 12.904 123.829 13.184 123.637 13.424C123.445 13.664 123.293 13.92 123.181 14.192C123.085 14.432 122.965 14.72 122.821 15.056C122.677 15.392 122.541 15.696 122.413 15.968C122.285 16.224 122.181 16.384 122.101 16.448C122.021 16.608 121.853 16.696 121.597 16.712C121.357 16.728 121.189 16.704 121.093 16.64ZM141.41 21.8C140.962 21.976 140.49 21.944 139.994 21.704C139.514 21.48 139.098 21.12 138.746 20.624C138.682 20.528 138.586 20.352 138.458 20.096C138.33 19.856 138.202 19.592 138.074 19.304C137.962 19.016 137.874 18.768 137.81 18.56C137.762 18.352 137.762 18.232 137.81 18.2C137.874 18.024 138.018 17.92 138.242 17.888C138.466 17.856 138.69 17.864 138.914 17.912C139.138 17.976 139.266 18.056 139.298 18.152C139.346 18.264 139.394 18.376 139.442 18.488C139.49 18.616 139.546 18.728 139.61 18.824C139.69 18.936 139.762 19.032 139.826 19.112C140.002 19.384 140.194 19.568 140.402 19.664C140.61 19.776 140.77 19.792 140.882 19.712C141.154 19.504 141.354 19.256 141.482 18.968C141.626 18.696 141.81 18.208 142.034 17.504C142.21 16.912 142.362 16.4 142.49 15.968C142.618 15.536 142.754 15.136 142.898 14.768C142.946 14.576 143.002 14.416 143.066 14.288C143.146 14.144 143.218 14.04 143.282 13.976H143.426C143.074 14.2 142.778 14.424 142.538 14.648C142.298 14.872 141.97 15.072 141.554 15.248C141.458 15.36 141.218 15.432 140.834 15.464C140.466 15.48 140.106 15.432 139.754 15.32C139.53 15.192 139.346 15.064 139.202 14.936C139.074 14.792 138.962 14.632 138.866 14.456C138.786 14.28 138.698 14.072 138.602 13.832C138.49 13.592 138.474 13.2 138.554 12.656C138.634 12.112 138.778 11.568 138.986 11.024C139.178 10.624 139.458 10.192 139.826 9.728C140.194 9.264 140.586 8.848 141.002 8.48C141.418 8.096 141.794 7.856 142.13 7.76C142.258 7.696 142.482 7.624 142.802 7.544C143.122 7.448 143.426 7.44 143.714 7.52C143.986 7.552 144.194 7.616 144.338 7.712C144.482 7.792 144.714 7.968 145.034 8.24C145.242 8.448 145.498 8.72 145.802 9.056C146.106 9.376 146.298 9.648 146.378 9.872C146.49 10.112 146.514 10.376 146.45 10.664C146.386 10.936 146.274 11.176 146.114 11.384C145.97 11.592 145.818 11.8 145.658 12.008C145.498 12.216 145.378 12.504 145.298 12.872C145.218 13.352 145.066 13.896 144.842 14.504C144.618 15.096 144.442 15.648 144.314 16.16L143.93 17.648C143.53 19.008 143.09 19.992 142.61 20.6C142.13 21.224 141.73 21.624 141.41 21.8ZM140.906 13.544C141.226 13.528 141.498 13.496 141.722 13.448C141.962 13.384 142.186 13.256 142.394 13.064C142.602 12.856 142.842 12.544 143.114 12.128C143.386 11.744 143.578 11.392 143.69 11.072C143.802 10.752 143.842 10.392 143.81 9.992C143.794 9.736 143.722 9.568 143.594 9.488C143.466 9.408 143.298 9.384 143.09 9.416C142.786 9.464 142.514 9.592 142.274 9.8C142.034 9.992 141.754 10.296 141.434 10.712C141.194 11.032 140.994 11.416 140.834 11.864C140.674 12.344 140.602 12.728 140.618 13.016C140.65 13.304 140.746 13.48 140.906 13.544ZM151.256 16.496C151.208 16.512 151.104 16.504 150.944 16.472C150.8 16.44 150.648 16.4 150.488 16.352C150.344 16.304 150.256 16.264 150.224 16.232C150.16 16.168 150.072 16.056 149.96 15.896C149.848 15.72 149.784 15.488 149.768 15.2C149.768 14.912 149.904 14.568 150.176 14.168C150.256 14.008 150.352 13.768 150.464 13.448C150.576 13.128 150.688 12.792 150.8 12.44C150.928 12.072 151.04 11.744 151.136 11.456C151.248 11.168 151.328 10.968 151.376 10.856C151.408 10.584 151.392 10.392 151.328 10.28C151.28 10.152 151.144 10.08 150.92 10.064C150.76 10.064 150.632 10.008 150.536 9.896C150.456 9.784 150.416 9.584 150.416 9.296C150.448 9.072 150.504 8.88 150.584 8.72C150.68 8.544 150.808 8.4 150.968 8.288C151.128 8.208 151.328 8.152 151.568 8.12C151.824 8.088 152.072 8.08 152.312 8.096C152.552 8.112 152.72 8.168 152.816 8.264C152.928 8.328 153.016 8.472 153.08 8.696C153.16 8.904 153.224 9.12 153.272 9.344C153.32 9.568 153.352 9.736 153.368 9.848C153.528 9.72 153.704 9.544 153.896 9.32C154.104 9.08 154.312 8.856 154.52 8.648C154.776 8.472 155.08 8.296 155.432 8.12C155.784 7.928 156.04 7.832 156.2 7.832C156.376 7.832 156.592 7.92 156.848 8.096C157.104 8.256 157.264 8.4 157.328 8.528C157.488 8.8 157.6 9.088 157.664 9.392C157.744 9.68 157.696 9.936 157.52 10.16C157.36 10.368 157.136 10.576 156.848 10.784C156.56 10.976 156.2 11.032 155.768 10.952C155.672 10.92 155.568 10.8 155.456 10.592C155.36 10.384 155.304 10.232 155.288 10.136C155.288 10.088 155.216 10.136 155.072 10.28C154.944 10.408 154.784 10.568 154.592 10.76C154.416 10.952 154.248 11.128 154.088 11.288C153.816 11.624 153.528 12.08 153.224 12.656C152.92 13.232 152.56 13.928 152.144 14.744C151.952 15.144 151.792 15.528 151.664 15.896C151.536 16.248 151.4 16.448 151.256 16.496ZM162.328 17.432C161.448 17.432 160.768 17.176 160.288 16.664C159.824 16.152 159.592 15.368 159.592 14.312C159.592 13.736 159.696 13.104 159.904 12.416C160.128 11.728 160.416 11.056 160.768 10.4C161.136 9.744 161.536 9.176 161.968 8.696C162.4 8.2 162.832 7.856 163.264 7.664C163.424 7.584 163.592 7.528 163.768 7.496C163.96 7.448 164.144 7.424 164.32 7.424C164.512 7.424 164.72 7.44 164.944 7.472C165.184 7.488 165.408 7.536 165.616 7.616C165.984 7.728 166.304 7.944 166.576 8.264C166.864 8.584 167.008 9.048 167.008 9.656C167.008 9.816 166.992 9.992 166.96 10.184C166.928 10.36 166.872 10.536 166.792 10.712C166.584 11.24 166.264 11.744 165.832 12.224C165.416 12.704 164.976 13.04 164.512 13.232C164.384 13.296 164.256 13.344 164.128 13.376C164.016 13.392 163.896 13.4 163.768 13.4C163.432 13.4 163.128 13.352 162.856 13.256C162.6 13.16 162.36 13.032 162.136 12.872L161.944 12.704L161.824 12.944C161.712 13.248 161.632 13.504 161.584 13.712C161.552 13.92 161.536 14.072 161.536 14.168C161.536 14.36 161.544 14.56 161.56 14.768C161.576 14.96 161.624 15.12 161.704 15.248C161.768 15.328 161.848 15.392 161.944 15.44C162.056 15.488 162.192 15.512 162.352 15.512C162.448 15.512 162.536 15.512 162.616 15.512C162.712 15.496 162.792 15.48 162.856 15.464C163.144 15.4 163.376 15.296 163.552 15.152C163.744 14.992 163.944 14.856 164.152 14.744L164.248 14.696L164.224 14.624C164.496 14.48 164.68 14.392 164.776 14.36C164.872 14.312 164.944 14.272 164.992 14.24C165.056 14.176 165.128 14.144 165.208 14.144C165.432 14.112 165.648 14.176 165.856 14.336C166.08 14.48 166.192 14.664 166.192 14.888C166.192 14.984 166.12 15.136 165.976 15.344C165.848 15.552 165.68 15.76 165.472 15.968C165.28 16.16 165.08 16.312 164.872 16.424C164.824 16.44 164.776 16.464 164.728 16.496C164.68 16.512 164.632 16.536 164.584 16.568H164.608C164.464 16.76 164.32 16.856 164.176 16.856H163.984C163.92 16.968 163.712 17.088 163.36 17.216C163.008 17.36 162.664 17.432 162.328 17.432ZM163.576 11.648C163.72 11.648 163.848 11.624 163.96 11.576C164.088 11.528 164.208 11.472 164.32 11.408C164.704 11.136 164.952 10.784 165.064 10.352C165.176 9.92 165.136 9.592 164.944 9.368C164.912 9.32 164.872 9.288 164.824 9.272C164.776 9.24 164.72 9.224 164.656 9.224C164.48 9.224 164.28 9.28 164.056 9.392C163.848 9.504 163.64 9.664 163.432 9.872C163.224 10.08 163.032 10.328 162.856 10.616L162.544 11.12C162.576 11.104 162.6 11.096 162.616 11.096C162.648 11.08 162.672 11.072 162.688 11.072C162.832 11.072 162.928 11.12 162.976 11.216C163.024 11.312 163.08 11.408 163.144 11.504C163.224 11.6 163.368 11.648 163.576 11.648ZM171.448 16.784C170.824 16.528 170.392 16.112 170.152 15.536C169.912 14.96 169.848 14.192 169.96 13.232C169.992 12.736 169.976 12.408 169.912 12.248C169.848 12.072 169.728 11.904 169.552 11.744C169.504 11.68 169.392 11.576 169.216 11.432C169.04 11.272 168.96 11.152 168.976 11.072C168.96 10.96 168.984 10.824 169.048 10.664C169.112 10.488 169.168 10.392 169.216 10.376C169.328 10.328 169.44 10.272 169.552 10.208C169.68 10.144 169.776 10.128 169.84 10.16C169.904 10.16 170 10.2 170.128 10.28C170.272 10.36 170.344 10.432 170.344 10.496C170.408 10.608 170.504 10.56 170.632 10.352C170.776 10.144 170.928 9.88 171.088 9.56C171.248 9.304 171.448 9.064 171.688 8.84C171.928 8.616 172.168 8.416 172.408 8.24C172.664 8.048 172.88 7.904 173.056 7.808C173.136 7.776 173.288 7.728 173.512 7.664C173.752 7.6 174 7.552 174.256 7.52C174.512 7.472 174.704 7.456 174.832 7.472C175.12 7.488 175.424 7.608 175.744 7.832C176.064 8.056 176.312 8.264 176.488 8.456C176.696 8.6 176.832 8.824 176.896 9.128C176.976 9.416 177.008 9.72 176.992 10.04C176.976 10.36 176.912 10.632 176.8 10.856C176.752 11.016 176.584 11.24 176.296 11.528C176.008 11.816 175.688 12.096 175.336 12.368C175 12.624 174.712 12.8 174.472 12.896C174.264 12.944 174.016 12.984 173.728 13.016C173.44 13.032 173.168 13.032 172.912 13.016C172.672 12.984 172.504 12.944 172.408 12.896C172.296 12.832 172.2 12.856 172.12 12.968C172.056 13.064 172 13.336 171.952 13.784C171.936 13.96 171.936 14.112 171.952 14.24C171.984 14.368 172.016 14.464 172.048 14.528C172.16 14.72 172.272 14.864 172.384 14.96C172.496 15.04 172.704 15.064 173.008 15.032C173.312 15 173.616 14.816 173.92 14.48C174.24 14.128 174.528 13.848 174.784 13.64C174.848 13.528 174.984 13.456 175.192 13.424C175.416 13.376 175.68 13.392 175.984 13.472C176.16 13.584 176.24 13.76 176.224 14C176.224 14.24 176.096 14.592 175.84 15.056C175.792 15.168 175.656 15.336 175.432 15.56C175.224 15.768 174.992 15.984 174.736 16.208C174.496 16.416 174.296 16.568 174.136 16.664C173.656 16.92 173.184 17.04 172.72 17.024C172.256 17.008 171.832 16.928 171.448 16.784ZM173.224 11.384C173.464 11.32 173.664 11.256 173.824 11.192C174 11.128 174.168 11.024 174.328 10.88C174.488 10.736 174.672 10.52 174.88 10.232C174.944 10.056 174.976 9.904 174.976 9.776C174.992 9.648 174.984 9.568 174.952 9.536C174.824 9.408 174.68 9.368 174.52 9.416C174.376 9.448 174.216 9.528 174.04 9.656C173.928 9.704 173.768 9.808 173.56 9.968C173.368 10.112 173.176 10.28 172.984 10.472C172.808 10.648 172.664 10.816 172.552 10.976C172.456 11.12 172.44 11.208 172.504 11.24C172.472 11.304 172.56 11.344 172.768 11.36C172.992 11.376 173.144 11.384 173.224 11.384ZM181.023 16.184C180.959 16.184 180.807 16.128 180.567 16.016C180.327 15.888 180.175 15.792 180.111 15.728C179.999 15.6 179.927 15.464 179.895 15.32C179.863 15.16 179.847 14.856 179.847 14.408C179.847 13.896 179.951 13.32 180.159 12.68C180.367 12.024 180.719 11.152 181.215 10.064L182.199 8.072C182.279 7.96 182.351 7.864 182.415 7.784C182.479 7.688 182.551 7.6 182.631 7.52C182.663 7.52 182.703 7.52 182.751 7.52C182.815 7.52 182.863 7.528 182.895 7.544C183.039 7.56 183.263 7.648 183.567 7.808C183.887 7.968 184.079 8.208 184.143 8.528C184.143 8.736 184.111 8.984 184.047 9.272C183.983 9.544 183.791 9.904 183.471 10.352C183.343 10.512 183.215 10.744 183.087 11.048C182.975 11.352 182.871 11.64 182.775 11.912C182.759 11.944 182.711 12.024 182.631 12.152C182.567 12.264 182.503 12.384 182.439 12.512C182.375 12.624 182.343 12.696 182.343 12.728L182.247 12.944L183.279 11.936C183.999 11.216 184.607 10.704 185.103 10.4C185.599 10.096 186.015 9.968 186.351 10.016C186.703 10.064 186.983 10.264 187.191 10.616C187.303 10.776 187.383 10.952 187.431 11.144C187.479 11.32 187.511 11.528 187.527 11.768C187.543 12.008 187.535 12.312 187.503 12.68V14.048C187.807 13.968 188.039 13.904 188.199 13.856C188.359 13.792 188.519 13.736 188.679 13.688C188.807 13.656 188.935 13.624 189.063 13.592C189.207 13.56 189.383 13.536 189.591 13.52C189.575 13.728 189.487 13.984 189.327 14.288C189.167 14.592 188.967 14.896 188.727 15.2C188.503 15.504 188.255 15.76 187.983 15.968C187.727 16.176 187.487 16.28 187.263 16.28C187.055 16.28 186.815 16.216 186.543 16.088C186.271 15.944 186.039 15.672 185.847 15.272C185.783 15.064 185.719 14.824 185.655 14.552C185.591 14.28 185.559 13.992 185.559 13.688V12.632C185.559 12.536 185.551 12.472 185.535 12.44C185.535 12.392 185.527 12.368 185.511 12.368C185.447 12.368 185.239 12.536 184.887 12.872C184.551 13.208 184.207 13.56 183.855 13.928C183.119 14.696 182.503 15.264 182.007 15.632C181.527 16 181.199 16.184 181.023 16.184ZM200.516 16.592C200.388 16.464 200.292 16.272 200.228 16.016C200.18 15.76 200.164 15.512 200.18 15.272C200.196 15.016 200.236 14.824 200.3 14.696C200.3 14.568 200.316 14.472 200.348 14.408C200.396 14.328 200.412 14.256 200.396 14.192C200.38 14.128 200.396 14.016 200.444 13.856C200.492 13.696 200.54 13.544 200.588 13.4C200.7 13.144 200.828 12.816 200.972 12.416C201.116 12 201.26 11.584 201.404 11.168C201.548 10.736 201.668 10.368 201.764 10.064C201.86 9.744 201.916 9.552 201.932 9.488C201.932 9.296 202.06 9.192 202.316 9.176C202.508 9.112 202.74 9.192 203.012 9.416C203.284 9.64 203.5 9.88 203.66 10.136C203.788 10.264 203.836 10.432 203.804 10.64C203.772 10.848 203.668 11.144 203.492 11.528C203.428 11.656 203.348 11.872 203.252 12.176C203.172 12.464 203.116 12.704 203.084 12.896C203.02 13.024 202.94 13.208 202.844 13.448C202.764 13.672 202.692 13.888 202.628 14.096C202.596 14.176 202.564 14.328 202.532 14.552C202.5 14.76 202.46 14.976 202.412 15.2C202.364 15.424 202.3 15.6 202.22 15.728C202.076 16.384 201.82 16.768 201.452 16.88C201.1 16.992 200.788 16.896 200.516 16.592ZM203.108 6.968C202.932 6.84 202.796 6.688 202.7 6.512C202.62 6.32 202.572 6.152 202.556 6.008C202.556 5.864 202.572 5.776 202.604 5.744C202.764 5.568 202.9 5.336 203.012 5.048C203.14 4.76 203.276 4.496 203.42 4.256C203.452 4.208 203.492 4.144 203.54 4.064C203.604 3.968 203.668 3.912 203.732 3.896C203.924 3.768 204.188 3.776 204.524 3.92C204.876 4.064 205.132 4.264 205.292 4.52C205.436 4.824 205.476 5.136 205.412 5.456C205.364 5.776 205.196 6.112 204.908 6.464C204.668 6.784 204.364 6.992 203.996 7.088C203.628 7.168 203.332 7.128 203.108 6.968ZM213.651 17.456C213.443 17.504 213.235 17.448 213.027 17.288C212.835 17.144 212.699 16.984 212.619 16.808C212.523 16.552 212.459 16.312 212.427 16.088C212.411 15.848 212.395 15.576 212.379 15.272L212.355 14.456L211.371 15.344C210.827 15.856 210.315 16.224 209.835 16.448C209.371 16.656 208.947 16.76 208.563 16.76C208.387 16.728 208.171 16.616 207.915 16.424C207.675 16.216 207.451 15.992 207.243 15.752C207.051 15.496 206.915 15.288 206.835 15.128C206.739 14.904 206.707 14.592 206.739 14.192C206.787 13.792 206.883 13.352 207.027 12.872C207.187 12.392 207.379 11.92 207.603 11.456C207.843 10.992 208.115 10.592 208.419 10.256C208.947 9.456 209.603 8.96 210.387 8.768C211.171 8.56 211.867 8.624 212.475 8.96C212.763 9.104 212.971 9.16 213.099 9.128C213.227 9.096 213.307 8.992 213.339 8.816C213.403 8.56 213.475 8.32 213.555 8.096C213.635 7.872 213.747 7.536 213.891 7.088C214.291 5.872 214.635 4.92 214.923 4.232C215.227 3.544 215.499 2.944 215.739 2.432C215.915 2.064 216.091 1.808 216.267 1.664C216.443 1.52 216.595 1.456 216.723 1.472C216.899 1.472 217.115 1.536 217.371 1.664C217.643 1.792 217.819 1.968 217.899 2.192C217.963 2.336 217.987 2.488 217.971 2.648C217.971 2.808 217.923 2.976 217.827 3.152C217.619 3.536 217.371 4.048 217.083 4.688C216.811 5.312 216.531 6 216.243 6.752C215.971 7.504 215.715 8.248 215.475 8.984C215.235 9.72 215.035 10.368 214.875 10.928C214.779 11.28 214.699 11.728 214.635 12.272C214.587 12.816 214.547 13.376 214.515 13.952C214.499 14.512 214.499 15.016 214.515 15.464C214.531 15.896 214.555 16.176 214.587 16.304C214.683 16.624 214.683 16.864 214.587 17.024C214.491 17.184 214.355 17.288 214.179 17.336C214.003 17.4 213.827 17.44 213.651 17.456ZM209.691 14.552C209.915 14.472 210.115 14.376 210.291 14.264C210.467 14.152 210.675 14.008 210.915 13.832C211.395 13.464 211.739 13.144 211.947 12.872C212.171 12.6 212.347 12.264 212.475 11.864C212.555 11.624 212.555 11.416 212.475 11.24C212.411 11.064 212.291 10.896 212.115 10.736C211.939 10.592 211.715 10.536 211.443 10.568C211.171 10.584 210.859 10.752 210.507 11.072C210.123 11.424 209.795 11.832 209.523 12.296C209.251 12.76 209.027 13.424 208.851 14.288C208.819 14.448 208.875 14.56 209.019 14.624C209.163 14.688 209.387 14.664 209.691 14.552ZM221.075 17.432C220.195 17.432 219.515 17.176 219.035 16.664C218.571 16.152 218.339 15.368 218.339 14.312C218.339 13.736 218.443 13.104 218.651 12.416C218.875 11.728 219.163 11.056 219.515 10.4C219.883 9.744 220.283 9.176 220.715 8.696C221.147 8.2 221.579 7.856 222.011 7.664C222.171 7.584 222.339 7.528 222.515 7.496C222.707 7.448 222.891 7.424 223.067 7.424C223.259 7.424 223.467 7.44 223.691 7.472C223.931 7.488 224.155 7.536 224.363 7.616C224.731 7.728 225.051 7.944 225.323 8.264C225.611 8.584 225.755 9.048 225.755 9.656C225.755 9.816 225.739 9.992 225.707 10.184C225.675 10.36 225.619 10.536 225.539 10.712C225.331 11.24 225.011 11.744 224.579 12.224C224.163 12.704 223.723 13.04 223.259 13.232C223.131 13.296 223.003 13.344 222.875 13.376C222.763 13.392 222.643 13.4 222.515 13.4C222.179 13.4 221.875 13.352 221.603 13.256C221.347 13.16 221.107 13.032 220.883 12.872L220.691 12.704L220.571 12.944C220.459 13.248 220.379 13.504 220.331 13.712C220.299 13.92 220.283 14.072 220.283 14.168C220.283 14.36 220.291 14.56 220.307 14.768C220.323 14.96 220.371 15.12 220.451 15.248C220.515 15.328 220.595 15.392 220.691 15.44C220.803 15.488 220.939 15.512 221.099 15.512C221.195 15.512 221.283 15.512 221.363 15.512C221.459 15.496 221.539 15.48 221.603 15.464C221.891 15.4 222.123 15.296 222.299 15.152C222.491 14.992 222.691 14.856 222.899 14.744L222.995 14.696L222.971 14.624C223.243 14.48 223.427 14.392 223.523 14.36C223.619 14.312 223.691 14.272 223.739 14.24C223.803 14.176 223.875 14.144 223.955 14.144C224.179 14.112 224.395 14.176 224.603 14.336C224.827 14.48 224.939 14.664 224.939 14.888C224.939 14.984 224.867 15.136 224.723 15.344C224.595 15.552 224.427 15.76 224.219 15.968C224.027 16.16 223.827 16.312 223.619 16.424C223.571 16.44 223.523 16.464 223.475 16.496C223.427 16.512 223.379 16.536 223.331 16.568H223.355C223.211 16.76 223.067 16.856 222.923 16.856H222.731C222.667 16.968 222.459 17.088 222.107 17.216C221.755 17.36 221.411 17.432 221.075 17.432ZM222.323 11.648C222.467 11.648 222.595 11.624 222.707 11.576C222.835 11.528 222.955 11.472 223.067 11.408C223.451 11.136 223.699 10.784 223.811 10.352C223.923 9.92 223.883 9.592 223.691 9.368C223.659 9.32 223.619 9.288 223.571 9.272C223.523 9.24 223.467 9.224 223.403 9.224C223.227 9.224 223.027 9.28 222.803 9.392C222.595 9.504 222.387 9.664 222.179 9.872C221.971 10.08 221.779 10.328 221.603 10.616L221.291 11.12C221.323 11.104 221.347 11.096 221.363 11.096C221.395 11.08 221.419 11.072 221.435 11.072C221.579 11.072 221.675 11.12 221.723 11.216C221.771 11.312 221.827 11.408 221.891 11.504C221.971 11.6 222.115 11.648 222.323 11.648ZM230.002 16.568C229.81 16.616 229.594 16.56 229.354 16.4C229.114 16.24 228.898 16.04 228.706 15.8C228.514 15.56 228.394 15.344 228.346 15.152C228.282 14.816 228.298 14.408 228.394 13.928C228.506 13.432 228.69 12.912 228.946 12.368C229.202 11.808 229.522 11.264 229.906 10.736C230.29 10.192 230.722 9.704 231.202 9.272C231.682 8.84 232.202 8.504 232.762 8.264C233.002 8.136 233.17 8.056 233.266 8.024C233.362 7.976 233.458 7.976 233.554 8.024C233.65 8.056 233.818 8.136 234.058 8.264C234.282 8.328 234.506 8.408 234.73 8.504C234.97 8.584 235.178 8.744 235.354 8.984C235.482 9.224 235.578 9.464 235.642 9.704C235.706 9.944 235.762 10.216 235.81 10.52C235.938 10.92 235.986 11.184 235.954 11.312C235.922 11.424 235.874 11.512 235.81 11.576C235.682 11.736 235.65 11.816 235.714 11.816C235.714 11.816 235.706 11.848 235.69 11.912C235.69 11.96 235.658 12.04 235.594 12.152C235.482 12.504 235.394 12.84 235.33 13.16C235.282 13.464 235.29 13.736 235.354 13.976C235.482 14.328 235.65 14.536 235.858 14.6C236.082 14.664 236.37 14.52 236.722 14.168C236.898 14.04 237.098 13.96 237.322 13.928C237.546 13.88 237.658 13.92 237.658 14.048C237.658 14.048 237.682 14.072 237.73 14.12C237.778 14.152 237.834 14.168 237.898 14.168C237.978 14.168 238.01 14.248 237.994 14.408C237.978 14.552 237.946 14.72 237.898 14.912C237.85 15.104 237.786 15.264 237.706 15.392C237.466 15.632 237.346 15.792 237.346 15.872C237.346 15.872 237.314 15.904 237.25 15.968C237.202 16.016 237.114 16.096 236.986 16.208C236.698 16.384 236.33 16.472 235.882 16.472C235.45 16.472 235.114 16.384 234.874 16.208C234.634 16.032 234.394 15.816 234.154 15.56C233.93 15.304 233.786 15.064 233.722 14.84L233.602 14.6L232.906 15.056C232.73 15.232 232.602 15.368 232.522 15.464C232.442 15.544 232.37 15.616 232.306 15.68C232.258 15.744 232.202 15.8 232.138 15.848C232.09 15.896 232.034 15.92 231.97 15.92C231.906 15.92 231.85 15.92 231.802 15.92C231.754 15.92 231.73 15.92 231.73 15.92C231.73 15.984 231.618 16.072 231.394 16.184C231.17 16.28 230.922 16.368 230.65 16.448C230.378 16.528 230.162 16.568 230.002 16.568ZM230.506 14.552C230.602 14.552 230.746 14.496 230.938 14.384C231.146 14.256 231.37 14.104 231.61 13.928C231.85 13.752 232.066 13.576 232.258 13.4C232.466 13.224 232.618 13.08 232.714 12.968C232.778 12.904 232.85 12.8 232.93 12.656C233.026 12.512 233.13 12.384 233.242 12.272C233.61 11.856 233.842 11.528 233.938 11.288C234.034 11.032 233.994 10.76 233.818 10.472C233.754 10.296 233.674 10.2 233.578 10.184C233.482 10.168 233.282 10.224 232.978 10.352C232.786 10.464 232.578 10.648 232.354 10.904C232.13 11.16 231.898 11.448 231.658 11.768C231.434 12.088 231.226 12.416 231.034 12.752C230.842 13.088 230.682 13.392 230.554 13.664C230.442 13.936 230.386 14.152 230.386 14.312C230.386 14.376 230.402 14.432 230.434 14.48C230.482 14.528 230.506 14.552 230.506 14.552Z" fill="#B8C318"/>
</svg>
