<svg width="65" height="17" viewBox="0 0 65 17" fill="none" xmlns="http://www.w3.org/2000/svg">
<path d="M2.5907 16.32C2.3907 16.24 2.15737 16.1267 1.8907 15.98C1.62404 15.8467 1.3707 15.6667 1.1307 15.44C0.890704 15.2133 0.704037 14.94 0.570704 14.62C0.437371 14.2333 0.344037 13.8533 0.290704 13.48C0.250704 13.1067 0.237371 12.6733 0.250704 12.18C0.250704 11.4867 0.297371 10.8867 0.390704 10.38C0.497371 9.86 0.657371 9.33333 0.870704 8.8C0.897371 8.76 0.944037 8.64667 1.0107 8.46C1.0907 8.26 1.17737 8.04667 1.2707 7.82C1.37737 7.59333 1.45737 7.42 1.5107 7.3C1.61737 7.07333 1.77737 6.77333 1.9907 6.4C2.21737 6.01333 2.45737 5.64 2.7107 5.28C3.09737 4.70667 3.42404 4.24 3.6907 3.88C3.95737 3.50667 4.2107 3.19333 4.4507 2.94C4.70404 2.68667 4.97737 2.44 5.2707 2.2C5.57737 1.96 5.95737 1.68667 6.4107 1.38C6.70404 1.16667 7.07737 1.03333 7.5307 0.979999C7.99737 0.926666 8.4507 0.999999 8.8907 1.2C9.3307 1.38667 9.65737 1.74667 9.8707 2.28C10.0174 2.56 10.084 2.91333 10.0707 3.34C10.0574 3.75333 9.97737 4.2 9.8307 4.68C9.68404 5.14667 9.49737 5.58667 9.2707 6C9.04404 6.41333 8.7907 6.74667 8.5107 7C8.33737 7.16 8.10404 7.18667 7.8107 7.08C7.5307 6.97333 7.29737 6.83333 7.1107 6.66C6.9907 6.43333 6.92404 6.3 6.9107 6.26C6.9107 6.22 6.93737 6.19333 6.9907 6.18C7.0707 6.08667 7.17737 5.92667 7.3107 5.7C7.44404 5.47333 7.57737 5.23333 7.7107 4.98C7.84404 4.71333 7.93737 4.5 7.9907 4.34C8.09737 3.78 8.1707 3.41333 8.2107 3.24C8.2507 3.05333 8.2107 2.9 8.0907 2.78C8.03737 2.72667 7.95737 2.70667 7.8507 2.72C7.75737 2.73333 7.59737 2.8 7.3707 2.92C7.06404 3.05333 6.69737 3.32667 6.2707 3.74C5.85737 4.14 5.44404 4.62 5.0307 5.18C4.49737 5.88667 4.0507 6.51333 3.6907 7.06C3.3307 7.60667 3.05737 8.16667 2.8707 8.74C2.84404 8.79333 2.79737 8.89333 2.7307 9.04C2.67737 9.18667 2.6507 9.26 2.6507 9.26C2.66404 9.31333 2.64404 9.44667 2.5907 9.66C2.53737 9.86 2.47737 10.0333 2.4107 10.18C2.26404 10.7933 2.17737 11.3867 2.1507 11.96C2.12404 12.52 2.15737 13.0133 2.2507 13.44C2.35737 13.8533 2.5107 14.16 2.7107 14.36C2.88404 14.48 3.10404 14.52 3.3707 14.48C3.63737 14.44 3.94404 14.3467 4.2907 14.2C4.63737 14.0533 5.0107 13.8933 5.4107 13.72C5.7307 13.5867 6.02404 13.44 6.2907 13.28C6.55737 13.12 6.75737 12.98 6.8907 12.86C6.99737 12.78 7.1307 12.7 7.2907 12.62C7.46404 12.5267 7.6107 12.48 7.7307 12.48C7.91737 12.4133 8.05737 12.4667 8.1507 12.64C8.24404 12.8133 8.2907 13.0333 8.2907 13.3C8.2907 13.4867 8.15737 13.7133 7.8907 13.98C7.62404 14.2467 7.3307 14.4733 7.0107 14.66C6.90404 14.7667 6.75737 14.8667 6.5707 14.96C6.39737 15.04 6.21737 15.1133 6.0307 15.18C5.7507 15.3933 5.40404 15.6 4.9907 15.8C4.57737 16 4.15737 16.1533 3.7307 16.26C3.31737 16.3667 2.93737 16.3867 2.5907 16.32ZM12.662 14.86C12.4886 14.86 12.3486 14.8267 12.242 14.76C12.1486 14.6933 12.0286 14.6 11.882 14.48C11.6286 14.2133 11.422 13.9267 11.262 13.62C11.1153 13.3133 11.062 13.0467 11.102 12.82C11.142 12.7133 11.1553 12.6133 11.142 12.52C11.142 12.4133 11.142 12.36 11.142 12.36C11.0753 12.2933 11.0553 12.2533 11.082 12.24C11.1086 12.2133 11.1353 12.1733 11.162 12.12C11.242 12.12 11.2686 12.0467 11.242 11.9C11.2153 11.7933 11.2553 11.5667 11.362 11.22C11.482 10.86 11.642 10.52 11.842 10.2C11.922 10.0667 12.042 9.89333 12.202 9.68C12.362 9.45333 12.5353 9.23333 12.722 9.02C12.922 8.79333 13.102 8.61333 13.262 8.48C13.5953 8.2 13.902 7.97333 14.182 7.8C14.4753 7.62667 14.7686 7.50667 15.062 7.44C15.3553 7.37333 15.6553 7.34 15.962 7.34C16.282 7.34 16.542 7.44667 16.742 7.66C17.0486 7.79333 17.262 7.97333 17.382 8.2C17.5153 8.42667 17.602 8.72 17.642 9.08C17.682 9.48 17.642 9.97333 17.522 10.56C17.402 11.1333 17.0753 11.8 16.542 12.56C16.2086 13.04 15.882 13.4133 15.562 13.68C15.242 13.9467 14.8886 14.1933 14.502 14.42C14.222 14.6067 13.922 14.72 13.602 14.76C13.282 14.8 12.9686 14.8333 12.662 14.86ZM14.702 12.42C14.9953 12.1667 15.202 11.8867 15.322 11.58C15.4553 11.2733 15.5953 10.9133 15.742 10.5C15.7953 10.42 15.8286 10.2867 15.842 10.1C15.8686 9.91333 15.8753 9.73333 15.862 9.56C15.8486 9.37333 15.802 9.26667 15.722 9.24C15.602 9.14667 15.482 9.12667 15.362 9.18C15.242 9.22 15.0886 9.30667 14.902 9.44C14.502 9.77333 14.1286 10.16 13.782 10.6C13.4486 11.0267 13.2153 11.5533 13.082 12.18C13.042 12.5133 13.0753 12.7667 13.182 12.94C13.302 13.1 13.4886 13.1467 13.742 13.08C14.0086 13 14.3286 12.78 14.702 12.42ZM27.008 14.52C26.7147 14.4933 26.468 14.4333 26.268 14.34C26.0814 14.2333 25.928 14.0267 25.808 13.72C25.7547 13.5067 25.728 13.2867 25.728 13.06C25.7414 12.82 25.7614 12.5933 25.788 12.38C25.8147 12.1533 25.828 11.96 25.828 11.8C25.828 11.7733 25.828 11.72 25.828 11.64C25.828 11.56 25.828 11.4867 25.828 11.42C25.8014 11.22 25.748 11.1 25.668 11.06C25.6014 11.0067 25.4814 11.0133 25.308 11.08C25.028 11.2133 24.7214 11.3933 24.388 11.62C24.068 11.8333 23.728 12.0867 23.368 12.38C23.0214 12.66 22.6614 12.96 22.288 13.28C21.9947 13.6 21.7747 13.86 21.628 14.06C21.4947 14.26 21.3547 14.36 21.208 14.36C21.1014 14.4133 20.988 14.4 20.868 14.32C20.748 14.24 20.6214 14.1467 20.488 14.04C20.3947 13.9333 20.2814 13.8 20.148 13.64C20.028 13.4667 19.9547 13.3533 19.928 13.3C19.928 13.0867 19.9414 12.8933 19.968 12.72C20.008 12.5467 20.0614 12.3667 20.128 12.18C20.208 11.9933 20.3014 11.78 20.408 11.54C20.4614 11.4467 20.508 11.3533 20.548 11.26C20.6014 11.1533 20.6614 11.04 20.728 10.92C20.7814 10.7333 20.8547 10.52 20.948 10.28C21.0547 10.04 21.1547 9.81333 21.248 9.6C21.3947 9.25333 21.508 8.95333 21.588 8.7C21.668 8.44667 21.7347 8.17333 21.788 7.88C21.7747 7.85333 21.7814 7.81333 21.808 7.76C21.8347 7.70667 21.8747 7.67333 21.928 7.66H21.948H21.968C22.0614 7.59333 22.2347 7.58667 22.488 7.64C22.7547 7.68 22.9547 7.75333 23.088 7.86C23.368 8.1 23.5014 8.41333 23.488 8.8C23.4747 9.18667 23.2747 9.69333 22.888 10.32C22.7947 10.5333 22.6947 10.7333 22.588 10.92C22.4947 11.0933 22.448 11.2133 22.448 11.28C22.448 11.28 22.5014 11.24 22.608 11.16C22.7147 11.08 22.8414 10.9867 22.988 10.88C23.1347 10.76 23.2614 10.6667 23.368 10.6C23.4347 10.5333 23.5814 10.4133 23.808 10.24C24.0347 10.0533 24.2814 9.86 24.548 9.66C24.8147 9.46 25.028 9.30667 25.188 9.2C25.3347 9.09333 25.5214 8.98667 25.748 8.88C25.9747 8.76 26.1147 8.7 26.168 8.7C26.3014 8.7 26.4614 8.74667 26.648 8.84C26.848 8.93333 27.028 9.04667 27.188 9.18C27.3614 9.3 27.4614 9.41333 27.488 9.52C27.488 9.57333 27.4814 9.64667 27.468 9.74C27.4547 9.82 27.448 9.89333 27.448 9.96C27.4347 10.1733 27.428 10.4333 27.428 10.74C27.4414 11.0333 27.448 11.3333 27.448 11.64C27.448 11.9333 27.4214 12.2 27.368 12.44C27.368 12.44 27.3747 12.4533 27.388 12.48C27.4014 12.4933 27.4147 12.52 27.428 12.56C27.4147 12.5733 27.408 12.6 27.408 12.64C27.4214 12.6667 27.428 12.68 27.428 12.68C27.4547 12.7733 27.4814 12.8667 27.508 12.96C27.548 13.0533 27.5947 13.16 27.648 13.28C27.7014 13.3867 27.7614 13.5267 27.828 13.7C27.8147 13.8733 27.7147 14.0467 27.528 14.22C27.3547 14.38 27.1814 14.48 27.008 14.52ZM33.5277 15.12C33.3411 15.0667 33.1544 14.9733 32.9677 14.84C32.7811 14.7067 32.5877 14.5533 32.3877 14.38C32.2277 14.1667 32.1144 13.9733 32.0477 13.8C31.9811 13.6133 31.9411 13.4 31.9277 13.16C31.9277 12.9067 31.9277 12.5867 31.9277 12.2C31.9277 12.04 31.9544 11.8133 32.0077 11.52C32.0744 11.2267 32.1411 10.92 32.2077 10.6C32.2877 10.28 32.3611 10 32.4277 9.76C32.4944 9.50667 32.5344 9.34 32.5477 9.26C32.5877 9.08667 32.5211 8.98667 32.3477 8.96C32.1744 8.93333 31.9811 8.92667 31.7677 8.94C31.5677 8.94 31.4344 8.92 31.3677 8.88C31.3144 8.86667 31.2877 8.8 31.2877 8.68C31.2877 8.54667 31.2877 8.48 31.2877 8.48C31.2877 8.42667 31.2611 8.39333 31.2077 8.38C31.1544 8.35333 31.1077 8.30667 31.0677 8.24C31.0411 8.18667 31.0744 8.08667 31.1677 7.94C31.2611 7.79333 31.3811 7.70667 31.5277 7.68C31.6477 7.65333 31.8277 7.63333 32.0677 7.62C32.3077 7.59333 32.5477 7.54667 32.7877 7.48C33.0411 7.4 33.2344 7.28 33.3677 7.12C33.4877 6.82667 33.6211 6.51333 33.7677 6.18C33.9144 5.83333 34.0544 5.53333 34.1877 5.28C34.3211 5.01333 34.4144 4.84667 34.4677 4.78C34.6944 4.66 34.9277 4.61333 35.1677 4.64C35.4077 4.65333 35.5944 4.76667 35.7277 4.98C35.7944 5.07333 35.8477 5.14 35.8877 5.18C35.9411 5.22 35.9611 5.28 35.9477 5.36C35.9477 5.44 35.8944 5.58667 35.7877 5.8C35.6944 6 35.5344 6.31333 35.3077 6.74C35.2411 6.87333 35.1811 6.99333 35.1277 7.1C35.0744 7.19333 35.0477 7.24 35.0477 7.24C35.1011 7.25333 35.1811 7.26 35.2877 7.26C35.3944 7.26 35.5277 7.25333 35.6877 7.24C35.8344 7.21333 35.9944 7.19333 36.1677 7.18C36.3411 7.15333 36.4944 7.15333 36.6277 7.18C36.9344 7.18 37.1611 7.26667 37.3077 7.44C37.4544 7.61333 37.5344 7.83333 37.5477 8.1C37.5744 8.24667 37.5211 8.37333 37.3877 8.48C37.2544 8.58667 37.0077 8.64 36.6477 8.64C36.5277 8.64 36.3544 8.64667 36.1277 8.66C35.9011 8.67333 35.6677 8.68667 35.4277 8.7C35.1877 8.71333 34.9811 8.73333 34.8077 8.76C34.6477 8.77333 34.5677 8.79333 34.5677 8.82C34.5277 8.84667 34.4611 8.95333 34.3677 9.14C34.2877 9.31333 34.2011 9.52667 34.1077 9.78C34.0277 10.0333 33.9544 10.2733 33.8877 10.5C33.7944 10.9533 33.7277 11.3933 33.6877 11.82C33.6477 12.2467 33.6411 12.62 33.6677 12.94C33.7077 13.2467 33.7877 13.4667 33.9077 13.6C34.0277 13.72 34.2077 13.72 34.4477 13.6C34.7011 13.4667 34.9344 13.3133 35.1477 13.14C35.3877 12.94 35.5944 12.88 35.7677 12.96C35.9411 13.0267 36.0477 13.1733 36.0877 13.4C36.1411 13.6133 36.0811 13.8467 35.9077 14.1C35.7477 14.3533 35.5211 14.5667 35.2277 14.74C34.9344 14.9133 34.6344 15.0333 34.3277 15.1C34.0211 15.18 33.7544 15.1867 33.5277 15.12ZM41.1688 15.36C40.4355 15.36 39.8688 15.1467 39.4688 14.72C39.0822 14.2933 38.8888 13.64 38.8888 12.76C38.8888 12.28 38.9755 11.7533 39.1488 11.18C39.3355 10.6067 39.5755 10.0467 39.8688 9.5C40.1755 8.95333 40.5088 8.48 40.8688 8.08C41.2288 7.66667 41.5888 7.38 41.9488 7.22C42.0822 7.15333 42.2222 7.10667 42.3688 7.08C42.5288 7.04 42.6822 7.02 42.8288 7.02C42.9888 7.02 43.1622 7.03333 43.3488 7.06C43.5488 7.07333 43.7355 7.11333 43.9088 7.18C44.2155 7.27333 44.4822 7.45333 44.7088 7.72C44.9488 7.98667 45.0688 8.37333 45.0688 8.88C45.0688 9.01333 45.0555 9.16 45.0288 9.32C45.0022 9.46667 44.9555 9.61333 44.8888 9.76C44.7155 10.2 44.4488 10.62 44.0888 11.02C43.7422 11.42 43.3755 11.7 42.9888 11.86C42.8822 11.9133 42.7755 11.9533 42.6688 11.98C42.5755 11.9933 42.4755 12 42.3688 12C42.0888 12 41.8355 11.96 41.6088 11.88C41.3955 11.8 41.1955 11.6933 41.0088 11.56L40.8488 11.42L40.7488 11.62C40.6555 11.8733 40.5888 12.0867 40.5488 12.26C40.5222 12.4333 40.5088 12.56 40.5088 12.64C40.5088 12.8 40.5155 12.9667 40.5288 13.14C40.5422 13.3 40.5822 13.4333 40.6488 13.54C40.7022 13.6067 40.7688 13.66 40.8488 13.7C40.9422 13.74 41.0555 13.76 41.1888 13.76C41.2688 13.76 41.3422 13.76 41.4088 13.76C41.4888 13.7467 41.5555 13.7333 41.6088 13.72C41.8488 13.6667 42.0422 13.58 42.1888 13.46C42.3488 13.3267 42.5155 13.2133 42.6888 13.12L42.7688 13.08L42.7488 13.02C42.9755 12.9 43.1288 12.8267 43.2088 12.8C43.2888 12.76 43.3488 12.7267 43.3888 12.7C43.4422 12.6467 43.5022 12.62 43.5688 12.62C43.7555 12.5933 43.9355 12.6467 44.1088 12.78C44.2955 12.9 44.3888 13.0533 44.3888 13.24C44.3888 13.32 44.3288 13.4467 44.2088 13.62C44.1022 13.7933 43.9622 13.9667 43.7888 14.14C43.6288 14.3 43.4622 14.4267 43.2888 14.52C43.2488 14.5333 43.2088 14.5533 43.1688 14.58C43.1288 14.5933 43.0888 14.6133 43.0488 14.64H43.0688C42.9488 14.8 42.8288 14.88 42.7088 14.88H42.5488C42.4955 14.9733 42.3222 15.0733 42.0288 15.18C41.7355 15.3 41.4488 15.36 41.1688 15.36ZM42.2088 10.54C42.3288 10.54 42.4355 10.52 42.5288 10.48C42.6355 10.44 42.7355 10.3933 42.8288 10.34C43.1488 10.1133 43.3555 9.82 43.4488 9.46C43.5422 9.1 43.5088 8.82667 43.3488 8.64C43.3222 8.6 43.2888 8.57333 43.2488 8.56C43.2088 8.53333 43.1622 8.52 43.1088 8.52C42.9622 8.52 42.7955 8.56667 42.6088 8.66C42.4355 8.75333 42.2622 8.88667 42.0888 9.06C41.9155 9.23333 41.7555 9.44 41.6088 9.68L41.3488 10.1C41.3755 10.0867 41.3955 10.08 41.4088 10.08C41.4355 10.0667 41.4555 10.06 41.4688 10.06C41.5888 10.06 41.6688 10.1 41.7088 10.18C41.7488 10.26 41.7955 10.34 41.8488 10.42C41.9155 10.5 42.0355 10.54 42.2088 10.54ZM48.4685 14.32C48.4152 14.32 48.2885 14.2733 48.0885 14.18C47.8885 14.0733 47.7618 13.9933 47.7085 13.94C47.6152 13.8333 47.5552 13.72 47.5285 13.6C47.5018 13.4667 47.4885 13.2133 47.4885 12.84C47.4885 12.4133 47.5752 11.9333 47.7485 11.4C47.9218 10.8533 48.2152 10.1267 48.6285 9.22L49.4485 7.56C49.5152 7.46667 49.5752 7.38667 49.6285 7.32C49.6818 7.24 49.7419 7.16667 49.8085 7.1C49.8352 7.1 49.8685 7.1 49.9085 7.1C49.9618 7.1 50.0018 7.10667 50.0285 7.12C50.1485 7.13333 50.3352 7.20667 50.5885 7.34C50.8552 7.47333 51.0152 7.67333 51.0685 7.94C51.0685 8.11333 51.0418 8.32 50.9885 8.56C50.9352 8.78667 50.7752 9.08667 50.5085 9.46C50.4018 9.59333 50.2952 9.78667 50.1885 10.04C50.0952 10.2933 50.0085 10.5333 49.9285 10.76C49.9152 10.7867 49.8752 10.8533 49.8085 10.96C49.7552 11.0533 49.7018 11.1533 49.6485 11.26C49.5952 11.3533 49.5685 11.4133 49.5685 11.44L49.4885 11.62L50.3485 10.78C50.9485 10.18 51.4552 9.75333 51.8685 9.5C52.2819 9.24667 52.6285 9.14 52.9085 9.18C53.2019 9.22 53.4352 9.38667 53.6085 9.68C53.7018 9.81333 53.7685 9.96 53.8085 10.12C53.8485 10.2667 53.8752 10.44 53.8885 10.64C53.9019 10.84 53.8952 11.0933 53.8685 11.4V12.54C54.1219 12.4733 54.3152 12.42 54.4485 12.38C54.5819 12.3267 54.7152 12.28 54.8485 12.24C54.9552 12.2133 55.0619 12.1867 55.1685 12.16C55.2885 12.1333 55.4352 12.1133 55.6085 12.1C55.5952 12.2733 55.5219 12.4867 55.3885 12.74C55.2552 12.9933 55.0885 13.2467 54.8885 13.5C54.7019 13.7533 54.4952 13.9667 54.2685 14.14C54.0552 14.3133 53.8552 14.4 53.6685 14.4C53.4952 14.4 53.2952 14.3467 53.0685 14.24C52.8419 14.12 52.6485 13.8933 52.4885 13.56C52.4352 13.3867 52.3819 13.1867 52.3285 12.96C52.2752 12.7333 52.2485 12.4933 52.2485 12.24V11.36C52.2485 11.28 52.2419 11.2267 52.2285 11.2C52.2285 11.16 52.2218 11.14 52.2085 11.14C52.1552 11.14 51.9818 11.28 51.6885 11.56C51.4085 11.84 51.1219 12.1333 50.8285 12.44C50.2152 13.08 49.7018 13.5533 49.2885 13.86C48.8885 14.1667 48.6152 14.32 48.4685 14.32ZM59.6282 15.02C59.4815 14.9933 59.3215 14.9067 59.1482 14.76C58.9749 14.6 58.8149 14.4267 58.6682 14.24C58.5349 14.04 58.4482 13.8733 58.4082 13.74C58.4082 13.7133 58.3882 13.68 58.3482 13.64C58.3215 13.6 58.3082 13.58 58.3082 13.58C58.2549 13.54 58.2215 13.3667 58.2082 13.06C58.2082 12.74 58.2282 12.3867 58.2682 12C58.3082 11.6133 58.3549 11.3067 58.4082 11.08C58.4749 10.8667 58.5749 10.58 58.7082 10.22C58.8415 9.84667 58.9549 9.51333 59.0482 9.22L59.5882 8.06L58.7882 7.84C58.6949 7.81333 58.6149 7.76 58.5482 7.68C58.4949 7.6 58.4682 7.53333 58.4682 7.48C58.4682 7.37333 58.5282 7.22 58.6482 7.02C58.7682 6.82 58.8549 6.72 58.9082 6.72C58.9749 6.73333 59.0949 6.74 59.2682 6.74C59.4549 6.74 59.6349 6.73333 59.8082 6.72C59.9815 6.70667 60.0882 6.69333 60.1282 6.68C60.1815 6.65333 60.2349 6.62 60.2882 6.58C60.3415 6.52667 60.3815 6.45333 60.4082 6.36C60.4749 6.21333 60.5349 6.1 60.5882 6.02C60.6415 5.94 60.7149 5.82 60.8082 5.66C60.9015 5.48667 60.9749 5.34 61.0282 5.22C61.0949 5.1 61.1949 4.93333 61.3282 4.72C61.3949 4.62667 61.4682 4.51333 61.5482 4.38C61.6282 4.24667 61.7282 4.13333 61.8482 4.04C61.9682 3.93333 62.1615 3.86 62.4282 3.82C62.7082 3.76667 62.9482 3.82667 63.1482 4C63.2549 4.13333 63.3149 4.26 63.3282 4.38C63.3415 4.5 63.2882 4.65333 63.1682 4.84C63.0615 5.06667 62.9349 5.27333 62.7882 5.46C62.6549 5.63333 62.5282 5.83333 62.4082 6.06C62.1949 6.35333 62.1549 6.52 62.2882 6.56C62.4215 6.6 62.7949 6.57333 63.4082 6.48C63.7949 6.41333 64.0749 6.45333 64.2482 6.6C64.4215 6.74667 64.5215 6.93333 64.5482 7.16C64.5882 7.48 64.5549 7.67333 64.4482 7.74C64.3415 7.80667 64.0349 7.84 63.5282 7.84C63.2082 7.89333 62.9349 7.92667 62.7082 7.94C62.4815 7.94 62.3149 7.94 62.2082 7.94C62.0349 7.95333 61.9215 7.96 61.8682 7.96C61.8149 7.96 61.7349 7.97333 61.6282 8C61.5215 8.02667 61.4415 8.07333 61.3882 8.14C61.3482 8.19333 61.3015 8.27333 61.2482 8.38C61.1949 8.43333 61.1149 8.57333 61.0082 8.8C60.9015 9.02667 60.7682 9.27333 60.6082 9.54C60.4215 10.1 60.2615 10.64 60.1282 11.16C60.0082 11.6667 59.9015 12.1733 59.8082 12.68C59.7682 12.9333 59.7749 13.12 59.8282 13.24C59.8949 13.3467 60.0682 13.4133 60.3482 13.44C60.4949 13.4533 60.7082 13.4533 60.9882 13.44C61.2682 13.4133 61.5015 13.3733 61.6882 13.32C61.8349 13.2533 61.9882 13.1867 62.1482 13.12C62.3082 13.04 62.4549 12.96 62.5882 12.88C62.7082 12.8133 62.8282 12.7467 62.9482 12.68C63.0682 12.6 63.1282 12.56 63.1282 12.56C63.1949 12.4533 63.2882 12.4733 63.4082 12.62C63.5415 12.7533 63.6349 12.9 63.6882 13.06C63.6882 13.22 63.6549 13.4133 63.5882 13.64C63.5215 13.8533 63.2749 14.08 62.8482 14.32C62.2482 14.6933 61.6482 14.92 61.0482 15C60.4482 15.08 59.9749 15.0867 59.6282 15.02Z" fill="#B1AAA2"/>
</svg>
