<svg width="235" height="16" viewBox="0 0 235 16" fill="none" xmlns="http://www.w3.org/2000/svg">
<path d="M2.636 13.056C2.476 12.992 2.28933 12.9013 2.076 12.784C1.86267 12.6773 1.66 12.5333 1.468 12.352C1.276 12.1707 1.12667 11.952 1.02 11.696C0.913332 11.3867 0.838665 11.0827 0.795999 10.784C0.763999 10.4853 0.753332 10.1387 0.763999 9.744C0.763999 9.18933 0.801332 8.70933 0.875999 8.304C0.961332 7.888 1.08933 7.46667 1.26 7.04C1.28133 7.008 1.31867 6.91733 1.372 6.768C1.436 6.608 1.50533 6.43733 1.58 6.256C1.66533 6.07467 1.72933 5.936 1.772 5.84C1.85733 5.65867 1.98533 5.41867 2.156 5.12C2.33733 4.81067 2.52933 4.512 2.732 4.224C3.04133 3.76533 3.30267 3.392 3.516 3.104C3.72933 2.80533 3.932 2.55467 4.124 2.352C4.32667 2.14933 4.54533 1.952 4.78 1.76C5.02533 1.568 5.32933 1.34933 5.692 1.104C5.92667 0.933333 6.22533 0.826666 6.588 0.783999C6.96133 0.741333 7.324 0.799999 7.676 0.959999C8.028 1.10933 8.28933 1.39733 8.46 1.824C8.57733 2.048 8.63067 2.33067 8.62 2.672C8.60933 3.00267 8.54533 3.36 8.428 3.744C8.31067 4.11733 8.16133 4.46933 7.98 4.8C7.79867 5.13067 7.596 5.39733 7.372 5.6C7.23333 5.728 7.04667 5.74933 6.812 5.664C6.588 5.57867 6.40133 5.46667 6.252 5.328C6.156 5.14667 6.10267 5.04 6.092 5.008C6.092 4.976 6.11333 4.95467 6.156 4.944C6.22 4.86933 6.30533 4.74133 6.412 4.56C6.51867 4.37867 6.62533 4.18667 6.732 3.984C6.83867 3.77067 6.91333 3.6 6.956 3.472C7.04133 3.024 7.1 2.73067 7.132 2.592C7.164 2.44267 7.132 2.32 7.036 2.224C6.99333 2.18133 6.92933 2.16533 6.844 2.176C6.76933 2.18667 6.64133 2.24 6.46 2.336C6.21467 2.44267 5.92133 2.66133 5.58 2.992C5.24933 3.312 4.91867 3.696 4.588 4.144C4.16133 4.70933 3.804 5.21067 3.516 5.648C3.228 6.08533 3.00933 6.53333 2.86 6.992C2.83867 7.03467 2.80133 7.11467 2.748 7.232C2.70533 7.34933 2.684 7.408 2.684 7.408C2.69467 7.45067 2.67867 7.55733 2.636 7.728C2.59333 7.888 2.54533 8.02667 2.492 8.144C2.37467 8.63467 2.30533 9.10933 2.284 9.568C2.26267 10.016 2.28933 10.4107 2.364 10.752C2.44933 11.0827 2.572 11.328 2.732 11.488C2.87067 11.584 3.04667 11.616 3.26 11.584C3.47333 11.552 3.71867 11.4773 3.996 11.36C4.27333 11.2427 4.572 11.1147 4.892 10.976C5.148 10.8693 5.38267 10.752 5.596 10.624C5.80933 10.496 5.96933 10.384 6.076 10.288C6.16133 10.224 6.268 10.16 6.396 10.096C6.53467 10.0213 6.652 9.984 6.748 9.984C6.89733 9.93067 7.00933 9.97333 7.084 10.112C7.15867 10.2507 7.196 10.4267 7.196 10.64C7.196 10.7893 7.08933 10.9707 6.876 11.184C6.66267 11.3973 6.428 11.5787 6.172 11.728C6.08667 11.8133 5.96933 11.8933 5.82 11.968C5.68133 12.032 5.53733 12.0907 5.388 12.144C5.164 12.3147 4.88667 12.48 4.556 12.64C4.22533 12.8 3.88933 12.9227 3.548 13.008C3.21733 13.0933 2.91333 13.1093 2.636 13.056ZM10.229 11.392C10.1543 11.4027 10.069 11.376 9.973 11.312C9.88766 11.2373 9.80766 11.1733 9.733 11.12C9.62633 10.992 9.55166 10.88 9.509 10.784C9.46633 10.688 9.445 10.5813 9.445 10.464C9.445 10.3467 9.45566 10.208 9.477 10.048C9.53033 9.87733 9.59433 9.648 9.669 9.36C9.74366 9.072 9.83433 8.76267 9.941 8.432C9.96233 8.304 9.99966 8.15467 10.053 7.984C10.117 7.80267 10.181 7.632 10.245 7.472C10.309 7.30133 10.357 7.17333 10.389 7.088C10.4637 6.82133 10.5383 6.56533 10.613 6.32C10.6983 6.07467 10.7997 5.792 10.917 5.472C11.0343 5.152 11.1783 4.74667 11.349 4.256C11.5837 3.616 11.7597 3.136 11.877 2.816C11.9943 2.496 12.0797 2.26667 12.133 2.128C12.1863 1.98933 12.2237 1.87733 12.245 1.792C12.245 1.70667 12.3037 1.62667 12.421 1.552C12.549 1.46667 12.661 1.424 12.757 1.424C12.9063 1.43467 13.0503 1.52533 13.189 1.696C13.3277 1.856 13.4237 2.05333 13.477 2.288C13.5303 2.512 13.493 2.73067 13.365 2.944C13.1943 3.328 13.0237 3.76 12.853 4.24C12.693 4.70933 12.533 5.17867 12.373 5.648C12.213 6.11733 12.053 6.54933 11.893 6.944C11.8823 6.99733 11.845 7.088 11.781 7.216C11.7277 7.344 11.6797 7.45067 11.637 7.536C11.5943 7.62133 11.5517 7.70133 11.509 7.776C11.477 7.85067 11.461 7.888 11.461 7.888C11.4503 7.952 11.429 8.04267 11.397 8.16C11.365 8.27733 11.333 8.37867 11.301 8.464C11.2903 8.51733 11.2743 8.58667 11.253 8.672C11.2317 8.75733 11.2157 8.84267 11.205 8.928C11.2583 8.864 11.333 8.78933 11.429 8.704C11.525 8.608 11.6477 8.49067 11.797 8.352C11.9677 8.20267 12.117 8.07467 12.245 7.968C12.373 7.86133 12.501 7.76533 12.629 7.68C12.7463 7.59467 12.853 7.51467 12.949 7.44C13.0557 7.36533 13.109 7.328 13.109 7.328C13.1303 7.296 13.1517 7.25867 13.173 7.216C13.205 7.17333 13.237 7.14667 13.269 7.136C13.2903 7.11467 13.3277 7.088 13.381 7.056C13.4343 7.01333 13.4877 6.97067 13.541 6.928C13.637 6.864 13.7383 6.81067 13.845 6.768C13.9517 6.72533 14.0637 6.69333 14.181 6.672C14.2983 6.65067 14.4103 6.64 14.517 6.64C14.645 6.64 14.7783 6.69333 14.917 6.8C15.0557 6.896 15.1837 7.03467 15.301 7.216C15.4077 7.35467 15.4717 7.52 15.493 7.712C15.525 7.89333 15.5303 8.13867 15.509 8.448C15.509 8.53333 15.4823 8.69333 15.429 8.928C15.3863 9.16267 15.3543 9.33867 15.333 9.456L15.189 10H15.317C15.4343 9.95733 15.5463 9.952 15.653 9.984C15.7703 10.016 15.829 10.032 15.829 10.032C15.8823 10.064 15.9303 10.1013 15.973 10.144C16.0263 10.1867 16.0743 10.2187 16.117 10.24C16.181 10.3253 16.1703 10.448 16.085 10.608C15.9997 10.768 15.9037 10.88 15.797 10.944C15.541 11.1147 15.3117 11.2213 15.109 11.264C14.917 11.3067 14.7143 11.2693 14.501 11.152C14.2983 11.0133 14.1597 10.848 14.085 10.656C14.021 10.464 13.9943 10.2027 14.005 9.872C14.0477 9.40267 14.0743 9.06667 14.085 8.864C14.0957 8.65067 14.0423 8.544 13.925 8.544C13.797 8.544 13.621 8.608 13.397 8.736C13.1837 8.85333 12.9437 9.01867 12.677 9.232C12.4103 9.43467 12.1437 9.664 11.877 9.92C11.621 10.1653 11.3917 10.416 11.189 10.672C11.061 10.832 10.9223 10.992 10.773 11.152C10.6237 11.3013 10.4423 11.3813 10.229 11.392ZM19.5355 11.888C19.3968 11.888 19.2848 11.8613 19.1995 11.808C19.1248 11.7547 19.0288 11.68 18.9115 11.584C18.7088 11.3707 18.5435 11.1413 18.4155 10.896C18.2982 10.6507 18.2555 10.4373 18.2875 10.256C18.3195 10.1707 18.3302 10.0907 18.3195 10.016C18.3195 9.93067 18.3195 9.888 18.3195 9.888C18.2662 9.83467 18.2502 9.80267 18.2715 9.792C18.2928 9.77067 18.3142 9.73867 18.3355 9.696C18.3995 9.696 18.4208 9.63733 18.3995 9.52C18.3782 9.43467 18.4102 9.25333 18.4955 8.976C18.5915 8.688 18.7195 8.416 18.8795 8.16C18.9435 8.05333 19.0395 7.91467 19.1675 7.744C19.2955 7.56267 19.4342 7.38667 19.5835 7.216C19.7435 7.03467 19.8875 6.89067 20.0155 6.784C20.2822 6.56 20.5275 6.37867 20.7515 6.24C20.9862 6.10133 21.2208 6.00533 21.4555 5.952C21.6902 5.89867 21.9302 5.872 22.1755 5.872C22.4315 5.872 22.6395 5.95733 22.7995 6.128C23.0448 6.23467 23.2155 6.37867 23.3115 6.56C23.4182 6.74133 23.4875 6.976 23.5195 7.264C23.5515 7.584 23.5195 7.97867 23.4235 8.448C23.3275 8.90667 23.0662 9.44 22.6395 10.048C22.3728 10.432 22.1115 10.7307 21.8555 10.944C21.5995 11.1573 21.3168 11.3547 21.0075 11.536C20.7835 11.6853 20.5435 11.776 20.2875 11.808C20.0315 11.84 19.7808 11.8667 19.5355 11.888ZM21.1675 9.936C21.4022 9.73333 21.5675 9.50933 21.6635 9.264C21.7702 9.01867 21.8822 8.73067 21.9995 8.4C22.0422 8.336 22.0688 8.22933 22.0795 8.08C22.1008 7.93067 22.1062 7.78667 22.0955 7.648C22.0848 7.49867 22.0475 7.41333 21.9835 7.392C21.8875 7.31733 21.7915 7.30133 21.6955 7.344C21.5995 7.376 21.4768 7.44533 21.3275 7.552C21.0075 7.81867 20.7088 8.128 20.4315 8.48C20.1648 8.82133 19.9782 9.24267 19.8715 9.744C19.8395 10.0107 19.8662 10.2133 19.9515 10.352C20.0475 10.48 20.1968 10.5173 20.3995 10.464C20.6128 10.4 20.8688 10.224 21.1675 9.936ZM27.0444 11.872C26.8204 11.9147 26.6497 11.904 26.5324 11.84C26.4257 11.7653 26.3137 11.6747 26.1964 11.568C26.0257 11.4827 25.871 11.3653 25.7324 11.216C25.5937 11.056 25.487 10.8907 25.4124 10.72C25.3377 10.5493 25.3057 10.416 25.3164 10.32C25.3484 9.94667 25.4337 9.54133 25.5724 9.104C25.7217 8.66667 25.9084 8.24 26.1324 7.824C26.367 7.408 26.6284 7.04 26.9164 6.72C27.215 6.38933 27.535 6.14933 27.8764 6C28.0897 5.91467 28.319 5.88267 28.5644 5.904C28.8097 5.92533 28.975 6.02667 29.0604 6.208C29.2204 6.51733 29.183 6.71467 28.9484 6.8C28.9164 6.8 28.879 6.816 28.8364 6.848C28.7937 6.86933 28.7724 6.90133 28.7724 6.944C28.815 6.96533 28.9324 6.97067 29.1244 6.96C29.3164 6.93867 29.5084 6.90667 29.7004 6.864C29.903 6.81067 30.0364 6.75733 30.1004 6.704C30.1644 6.672 30.2124 6.656 30.2444 6.656C30.2764 6.656 30.3564 6.66667 30.4844 6.688C30.6657 6.74133 30.7564 6.80533 30.7564 6.88C30.7564 6.92267 30.7724 6.992 30.8044 7.088C30.8364 7.17333 30.8737 7.216 30.9164 7.216C30.991 7.22667 31.007 7.30133 30.9644 7.44C30.9324 7.57867 30.8097 7.72267 30.5964 7.872C30.3937 8 30.2657 8.08533 30.2124 8.128C30.1697 8.16 30.1644 8.23467 30.1964 8.352C30.2817 8.55467 30.2764 8.8 30.1804 9.088C30.0844 9.376 29.9244 9.67467 29.7004 9.984C29.4764 10.2933 29.2097 10.5867 28.9004 10.864C28.6017 11.1307 28.287 11.36 27.9564 11.552C27.6364 11.7333 27.3324 11.84 27.0444 11.872ZM27.0924 10.528C27.135 10.528 27.2097 10.5067 27.3164 10.464C27.423 10.4107 27.5084 10.368 27.5724 10.336C27.615 10.2933 27.6684 10.2453 27.7324 10.192C27.807 10.128 27.8657 10.0907 27.9084 10.08C27.951 10.08 27.9777 10.064 27.9884 10.032C27.999 9.98933 28.0364 9.90933 28.1004 9.792C28.1644 9.664 28.2924 9.47733 28.4844 9.232C28.6977 8.99733 28.8364 8.81067 28.9004 8.672C28.9644 8.52267 28.9697 8.36267 28.9164 8.192C28.9057 8.14933 28.8737 8.12267 28.8204 8.112C28.7777 8.10133 28.719 8.07467 28.6444 8.032C28.5377 8.032 28.463 8.05867 28.4204 8.112C28.3884 8.15467 28.3137 8.128 28.1964 8.032L27.9404 7.712L27.6684 7.984C27.4977 8.15467 27.343 8.368 27.2044 8.624C27.0764 8.88 26.975 9.14133 26.9004 9.408C26.8257 9.67467 26.7777 9.90933 26.7564 10.112C26.7457 10.272 26.7724 10.3787 26.8364 10.432C26.9004 10.4853 26.9857 10.5173 27.0924 10.528ZM34.1052 12.096C33.7639 12.096 33.4492 12.0213 33.1612 11.872C32.8839 11.712 32.6599 11.52 32.4892 11.296C32.3186 11.0613 32.2332 10.8373 32.2332 10.624C32.2332 10.528 32.2492 10.4587 32.2812 10.416C32.3239 10.3733 32.3826 10.352 32.4572 10.352C32.5106 10.3627 32.5746 10.3893 32.6492 10.432C32.7239 10.4747 32.7986 10.5227 32.8732 10.576C33.0439 10.6933 33.2306 10.768 33.4332 10.8C33.6359 10.832 33.8172 10.8213 33.9772 10.768C34.1372 10.704 34.2279 10.608 34.2492 10.48C34.2492 10.4373 34.2279 10.3467 34.1852 10.208C34.1426 10.0693 34.0892 9.936 34.0252 9.808C33.7586 9.41333 33.5932 9.04 33.5292 8.688C33.4652 8.32533 33.4226 7.96267 33.4012 7.6C33.4012 7.45067 33.4706 7.28533 33.6092 7.104C33.7479 6.912 33.9186 6.72533 34.1212 6.544C34.3452 6.352 34.5906 6.17067 34.8572 6C35.1346 5.82933 35.4066 5.68533 35.6732 5.568C35.9399 5.45067 36.1639 5.38133 36.3452 5.36C36.5372 5.36 36.7399 5.37067 36.9532 5.392C37.1772 5.40267 37.3266 5.44 37.4012 5.504C37.5506 5.62133 37.6892 5.81333 37.8172 6.08C37.9452 6.34667 38.0092 6.57067 38.0092 6.752C38.0092 6.83733 37.9612 6.944 37.8652 7.072C37.7799 7.18933 37.6999 7.32267 37.6252 7.472C37.5826 7.54667 37.5452 7.62667 37.5132 7.712C37.4812 7.79733 37.4439 7.88267 37.4012 7.968C37.3372 8.11733 37.2199 8.18133 37.0492 8.16C36.8892 8.128 36.7399 8.04267 36.6012 7.904C36.4626 7.75467 36.3932 7.584 36.3932 7.392C36.3932 7.232 36.4412 7.09333 36.5372 6.976C36.6332 6.85867 36.6812 6.77867 36.6812 6.736C36.6812 6.71467 36.6706 6.69867 36.6492 6.688C36.6279 6.67733 36.5906 6.672 36.5372 6.672C36.4626 6.672 36.3399 6.704 36.1692 6.768C36.0092 6.82133 35.8386 6.90133 35.6572 7.008C35.4759 7.11467 35.3106 7.24267 35.1612 7.392C35.0546 7.50933 34.9639 7.63733 34.8892 7.776C34.8252 7.904 34.7932 8.04267 34.7932 8.192C34.7932 8.34133 34.8199 8.51733 34.8732 8.72C34.9372 8.912 35.0066 9.072 35.0812 9.2C35.1026 9.22133 35.1346 9.28 35.1772 9.376C35.2306 9.46133 35.2892 9.568 35.3532 9.696C35.7479 10.5067 35.8119 11.1093 35.5452 11.504C35.2892 11.8987 34.8092 12.096 34.1052 12.096ZM40.547 11.856C40.131 11.6853 39.843 11.408 39.683 11.024C39.523 10.64 39.4803 10.128 39.555 9.488C39.5763 9.15733 39.5657 8.93867 39.523 8.832C39.4803 8.71467 39.4003 8.60267 39.283 8.496C39.251 8.45333 39.1763 8.384 39.059 8.288C38.9417 8.18133 38.8883 8.10133 38.899 8.048C38.8883 7.97333 38.9043 7.88267 38.947 7.776C38.9897 7.65867 39.027 7.59467 39.059 7.584C39.1337 7.552 39.2083 7.51467 39.283 7.472C39.3683 7.42933 39.4323 7.41867 39.475 7.44C39.5177 7.44 39.5817 7.46667 39.667 7.52C39.763 7.57333 39.811 7.62133 39.811 7.664C39.8537 7.73867 39.9177 7.70667 40.003 7.568C40.099 7.42933 40.2003 7.25333 40.307 7.04C40.4137 6.86933 40.547 6.70933 40.707 6.56C40.867 6.41067 41.027 6.27733 41.187 6.16C41.3577 6.032 41.5017 5.936 41.619 5.872C41.6723 5.85067 41.7737 5.81867 41.923 5.776C42.083 5.73333 42.2483 5.70133 42.419 5.68C42.5897 5.648 42.7177 5.63733 42.803 5.648C42.995 5.65867 43.1977 5.73867 43.411 5.888C43.6243 6.03733 43.7897 6.176 43.907 6.304C44.0457 6.4 44.1363 6.54933 44.179 6.752C44.2323 6.944 44.2537 7.14667 44.243 7.36C44.2323 7.57333 44.1897 7.75467 44.115 7.904C44.083 8.01067 43.971 8.16 43.779 8.352C43.587 8.544 43.3737 8.73067 43.139 8.912C42.915 9.08267 42.723 9.2 42.563 9.264C42.4243 9.296 42.259 9.32267 42.067 9.344C41.875 9.35467 41.6937 9.35467 41.523 9.344C41.363 9.32267 41.251 9.296 41.187 9.264C41.1123 9.22133 41.0483 9.23733 40.995 9.312C40.9523 9.376 40.915 9.55733 40.883 9.856C40.8723 9.97333 40.8723 10.0747 40.883 10.16C40.9043 10.2453 40.9257 10.3093 40.947 10.352C41.0217 10.48 41.0963 10.576 41.171 10.64C41.2457 10.6933 41.3843 10.7093 41.587 10.688C41.7897 10.6667 41.9923 10.544 42.195 10.32C42.4083 10.0853 42.6003 9.89867 42.771 9.76C42.8137 9.68533 42.9043 9.63733 43.043 9.616C43.1923 9.584 43.3683 9.59467 43.571 9.648C43.6883 9.72267 43.7417 9.84 43.731 10C43.731 10.16 43.6457 10.3947 43.475 10.704C43.443 10.7787 43.3523 10.8907 43.203 11.04C43.0643 11.1787 42.9097 11.3227 42.739 11.472C42.579 11.6107 42.4457 11.712 42.339 11.776C42.019 11.9467 41.7043 12.0267 41.395 12.016C41.0857 12.0053 40.803 11.952 40.547 11.856ZM41.731 8.256C41.891 8.21333 42.0243 8.17067 42.131 8.128C42.2483 8.08533 42.3603 8.016 42.467 7.92C42.5737 7.824 42.6963 7.68 42.835 7.488C42.8777 7.37067 42.899 7.26933 42.899 7.184C42.9097 7.09867 42.9043 7.04533 42.883 7.024C42.7977 6.93867 42.7017 6.912 42.595 6.944C42.499 6.96533 42.3923 7.01867 42.275 7.104C42.2003 7.136 42.0937 7.20533 41.955 7.312C41.827 7.408 41.699 7.52 41.571 7.648C41.4537 7.76533 41.3577 7.87733 41.283 7.984C41.219 8.08 41.2083 8.13867 41.251 8.16C41.2297 8.20267 41.2883 8.22933 41.427 8.24C41.5763 8.25067 41.6777 8.256 41.731 8.256ZM51.6377 11.664C51.5951 11.5787 51.4991 11.4933 51.3497 11.408C51.2111 11.3227 51.1417 11.2587 51.1417 11.216C51.1417 11.1733 51.1151 11.1093 51.0617 11.024C51.0191 10.928 50.9764 10.8587 50.9337 10.816C50.8804 10.752 50.8964 10.5973 50.9817 10.352C51.0671 10.096 51.1951 9.78667 51.3657 9.424C51.5364 9.06133 51.7231 8.69333 51.9257 8.32C52.0111 8.23467 52.0964 8.12267 52.1817 7.984C52.2671 7.84533 52.3311 7.75467 52.3737 7.712C52.3737 7.66933 52.3897 7.632 52.4217 7.6C52.4537 7.55733 52.4911 7.536 52.5337 7.536L52.6617 7.28C52.6831 7.23733 52.7471 7.152 52.8537 7.024C52.9711 6.896 53.1097 6.75733 53.2697 6.608C53.4297 6.448 53.5897 6.29867 53.7497 6.16C53.9204 6.02133 54.0591 5.92 54.1657 5.856C54.3897 5.70667 54.6191 5.63733 54.8537 5.648C55.0991 5.65867 55.3071 5.73333 55.4777 5.872C55.5097 5.904 55.5791 5.968 55.6857 6.064C55.8031 6.16 55.9311 6.26667 56.0697 6.384C56.2191 6.50133 56.3471 6.608 56.4537 6.704L57.0457 7.232L56.7737 8.032C56.6351 8.45867 56.5977 8.832 56.6617 9.152C56.7257 9.472 56.8271 9.74933 56.9657 9.984C57.0191 10.1013 57.0884 10.192 57.1737 10.256C57.2697 10.32 57.3924 10.3627 57.5417 10.384C57.6271 10.3947 57.7071 10.4267 57.7817 10.48C57.8564 10.5333 57.8937 10.6187 57.8937 10.736C57.8937 10.992 57.8457 11.1787 57.7497 11.296C57.6644 11.4027 57.5684 11.4667 57.4617 11.488C57.1097 11.5307 56.7737 11.4933 56.4537 11.376C56.1337 11.2587 55.8457 10.9547 55.5897 10.464C55.5471 10.4 55.4884 10.2827 55.4137 10.112C55.3497 9.93067 55.3124 9.81333 55.3017 9.76C55.2591 9.81333 55.2004 9.88267 55.1257 9.968C55.0617 10.0427 54.9977 10.112 54.9337 10.176C54.1764 10.944 53.5257 11.4453 52.9817 11.68C52.4484 11.904 52.0004 11.8987 51.6377 11.664ZM52.5177 10.336C52.5924 10.3467 52.7097 10.3093 52.8697 10.224C53.0297 10.128 53.2431 9.97333 53.5097 9.76C53.8724 9.45067 54.1711 9.19467 54.4057 8.992C54.6404 8.78933 54.8697 8.528 55.0937 8.208L55.4457 7.632C55.3391 7.38667 55.2431 7.22667 55.1577 7.152C55.0724 7.07733 54.9871 7.04 54.9017 7.04C54.7631 7.04 54.5977 7.13067 54.4057 7.312C54.2137 7.48267 53.9951 7.73867 53.7497 8.08C53.5151 8.41067 53.2484 8.82667 52.9497 9.328C52.8111 9.56267 52.7044 9.792 52.6297 10.016C52.5551 10.2293 52.5177 10.336 52.5177 10.336ZM66.4134 12.112C65.848 12.112 65.432 11.9307 65.1654 11.568C65.0907 11.3973 65.0534 11.2267 65.0534 11.056C65.064 10.8747 65.1067 10.7467 65.1814 10.672C65.256 10.5867 65.3467 10.6027 65.4534 10.72C65.592 10.8053 65.7894 10.848 66.0454 10.848C66.1734 10.848 66.2854 10.848 66.3814 10.848C66.488 10.8373 66.6107 10.8267 66.7494 10.816C66.9947 10.7947 67.1494 10.72 67.2134 10.592C67.288 10.464 67.272 10.3573 67.1654 10.272H67.1814C66.8934 10.1973 66.6107 10.0907 66.3334 9.952C66.056 9.81333 65.8214 9.65867 65.6294 9.488C65.4374 9.30667 65.3254 9.136 65.2934 8.976C65.208 8.624 65.2294 8.26133 65.3574 7.888C65.4854 7.51467 65.672 7.18933 65.9174 6.912C66.0134 6.848 66.1467 6.75733 66.3174 6.64C66.488 6.512 66.6107 6.44267 66.6854 6.432V6.448C66.888 6.23467 67.1174 6.064 67.3734 5.936C67.6294 5.79733 67.928 5.66933 68.2694 5.552L68.5254 5.52C68.6534 5.49867 68.7654 5.488 68.8614 5.488C68.8507 5.488 68.8774 5.49867 68.9414 5.52C69.0054 5.54133 69.0587 5.55733 69.1014 5.568C69.1654 5.6 69.2294 5.616 69.2934 5.616C69.4427 5.63733 69.5867 5.71733 69.7254 5.856C69.8747 5.984 69.992 6.13867 70.0774 6.32C70.1734 6.49067 70.2107 6.65067 70.1894 6.8C70.1574 7.04533 70.0667 7.29067 69.9174 7.536C69.768 7.77067 69.608 7.904 69.4374 7.936C69.4587 7.92533 69.4374 7.904 69.3734 7.872C69.3094 7.84 69.2507 7.808 69.1974 7.776L69.1334 7.808C69.1334 7.808 69.128 7.792 69.1174 7.76C69.1174 7.728 69.1067 7.69067 69.0854 7.648C69.0427 7.57333 69.0107 7.49333 68.9894 7.408C68.9787 7.32267 68.9787 7.22667 68.9894 7.12C69.0107 7.00267 69.016 6.93333 69.0054 6.912C68.9947 6.89067 68.9307 6.87467 68.8134 6.864C68.6747 6.832 68.4987 6.848 68.2854 6.912C68.072 6.96533 67.8747 7.06133 67.6934 7.2C67.48 7.33867 67.32 7.45067 67.2134 7.536C67.1174 7.62133 67.0427 7.70667 66.9894 7.792C66.936 7.86667 66.8774 7.97867 66.8134 8.128C66.7707 8.20267 66.7334 8.272 66.7014 8.336C66.6694 8.38933 66.6534 8.44267 66.6534 8.496C66.6534 8.60267 66.744 8.71467 66.9254 8.832C67.1067 8.93867 67.3787 9.06667 67.7414 9.216C68.0294 9.33333 68.216 9.49333 68.3014 9.696C68.3974 9.89867 68.4827 10.0907 68.5574 10.272C68.5787 10.3147 68.6 10.3947 68.6214 10.512C68.6534 10.6187 68.6587 10.6827 68.6374 10.704C68.6587 10.7253 68.6694 10.7467 68.6694 10.768V10.752C68.7547 10.912 68.7387 11.0827 68.6214 11.264C68.5147 11.4347 68.344 11.5947 68.1094 11.744C67.8747 11.8827 67.608 11.984 67.3094 12.048H67.3254C67.1654 12.0693 67.0054 12.0853 66.8454 12.096C66.696 12.1067 66.552 12.112 66.4134 12.112ZM72.8391 12.016C72.7218 11.9947 72.5938 11.9253 72.4551 11.808C72.3165 11.68 72.1885 11.5413 72.0711 11.392C71.9645 11.232 71.8951 11.0987 71.8631 10.992C71.8631 10.9707 71.8471 10.944 71.8151 10.912C71.7938 10.88 71.7831 10.864 71.7831 10.864C71.7405 10.832 71.7138 10.6933 71.7031 10.448C71.7031 10.192 71.7191 9.90933 71.7511 9.6C71.7831 9.29067 71.8205 9.04533 71.8631 8.864C71.9165 8.69333 71.9965 8.464 72.1031 8.176C72.2098 7.87733 72.3005 7.61067 72.3751 7.376L72.8071 6.448L72.1671 6.272C72.0925 6.25067 72.0285 6.208 71.9751 6.144C71.9325 6.08 71.9111 6.02667 71.9111 5.984C71.9111 5.89867 71.9591 5.776 72.0551 5.616C72.1511 5.456 72.2205 5.376 72.2631 5.376C72.3165 5.38667 72.4125 5.392 72.5511 5.392C72.7005 5.392 72.8445 5.38667 72.9831 5.376C73.1218 5.36533 73.2071 5.35467 73.2391 5.344C73.2818 5.32267 73.3245 5.296 73.3671 5.264C73.4098 5.22133 73.4418 5.16267 73.4631 5.088C73.5165 4.97067 73.5645 4.88 73.6071 4.816C73.6498 4.752 73.7085 4.656 73.7831 4.528C73.8578 4.38933 73.9165 4.272 73.9591 4.176C74.0125 4.08 74.0925 3.94667 74.1991 3.776C74.2525 3.70133 74.3111 3.61067 74.3751 3.504C74.4391 3.39733 74.5191 3.30667 74.6151 3.232C74.7111 3.14667 74.8658 3.088 75.0791 3.056C75.3031 3.01333 75.4951 3.06133 75.6551 3.2C75.7405 3.30667 75.7885 3.408 75.7991 3.504C75.8098 3.6 75.7671 3.72267 75.6711 3.872C75.5858 4.05333 75.4845 4.21867 75.3671 4.368C75.2605 4.50667 75.1591 4.66667 75.0631 4.848C74.8925 5.08267 74.8605 5.216 74.9671 5.248C75.0738 5.28 75.3725 5.25867 75.8631 5.184C76.1725 5.13067 76.3965 5.16267 76.5351 5.28C76.6738 5.39733 76.7538 5.54667 76.7751 5.728C76.8071 5.984 76.7805 6.13867 76.6951 6.192C76.6098 6.24533 76.3645 6.272 75.9591 6.272C75.7031 6.31467 75.4845 6.34133 75.3031 6.352C75.1218 6.352 74.9885 6.352 74.9031 6.352C74.7645 6.36267 74.6738 6.368 74.6311 6.368C74.5885 6.368 74.5245 6.37867 74.4391 6.4C74.3538 6.42133 74.2898 6.45867 74.2471 6.512C74.2151 6.55467 74.1778 6.61867 74.1351 6.704C74.0925 6.74667 74.0285 6.85867 73.9431 7.04C73.8578 7.22133 73.7511 7.41867 73.6231 7.632C73.4738 8.08 73.3458 8.512 73.2391 8.928C73.1431 9.33333 73.0578 9.73867 72.9831 10.144C72.9511 10.3467 72.9565 10.496 72.9991 10.592C73.0525 10.6773 73.1911 10.7307 73.4151 10.752C73.5325 10.7627 73.7031 10.7627 73.9271 10.752C74.1511 10.7307 74.3378 10.6987 74.4871 10.656C74.6045 10.6027 74.7271 10.5493 74.8551 10.496C74.9831 10.432 75.1005 10.368 75.2071 10.304C75.3031 10.2507 75.3991 10.1973 75.4951 10.144C75.5911 10.08 75.6391 10.048 75.6391 10.048C75.6925 9.96267 75.7671 9.97867 75.8631 10.096C75.9698 10.2027 76.0445 10.32 76.0871 10.448C76.0871 10.576 76.0605 10.7307 76.0071 10.912C75.9538 11.0827 75.7565 11.264 75.4151 11.456C74.9351 11.7547 74.4551 11.936 73.9751 12C73.4951 12.064 73.1165 12.0693 72.8391 12.016ZM79.416 11.984C79.16 11.984 78.936 11.8507 78.744 11.584C78.5627 11.3067 78.4507 10.976 78.408 10.592C78.4187 10.5067 78.4293 10.384 78.44 10.224C78.4613 10.064 78.4827 9.89867 78.504 9.728C78.5467 9.52533 78.6053 9.264 78.68 8.944C78.7547 8.624 78.8347 8.304 78.92 7.984C79.0053 7.65333 79.08 7.37067 79.144 7.136C79.208 6.89067 79.2453 6.74667 79.256 6.704C79.32 6.55467 79.464 6.51733 79.688 6.592C79.912 6.66667 80.104 6.82667 80.264 7.072C80.328 7.15733 80.3653 7.25867 80.376 7.376C80.3973 7.49333 80.3813 7.664 80.328 7.888C80.2853 8.112 80.2 8.44267 80.072 8.88C79.9547 9.30667 79.864 9.65333 79.8 9.92C79.7467 10.176 79.7253 10.448 79.736 10.736C79.6933 11.2267 79.6507 11.5627 79.608 11.744C79.5653 11.9147 79.5013 11.9947 79.416 11.984ZM80.888 5.344C80.8453 5.376 80.8027 5.392 80.76 5.392C80.728 5.38133 80.6693 5.34933 80.584 5.296C80.5093 5.28533 80.4133 5.23733 80.296 5.152C80.1893 5.056 80.0933 4.96 80.008 4.864C79.9333 4.768 79.896 4.70933 79.896 4.688C79.8853 4.58133 79.8907 4.41067 79.912 4.176C79.944 3.94133 80.0027 3.72267 80.088 3.52C80.184 3.30667 80.312 3.19467 80.472 3.184C80.5147 3.184 80.6053 3.20533 80.744 3.248C80.8933 3.29067 81.048 3.344 81.208 3.408C81.2933 3.568 81.3733 3.776 81.448 4.032C81.5227 4.288 81.528 4.53867 81.464 4.784C81.4107 5.01867 81.2187 5.20533 80.888 5.344ZM84.1086 11.872C83.874 11.872 83.698 11.8613 83.5806 11.84C83.474 11.8187 83.394 11.7867 83.3406 11.744C83.2873 11.7013 83.218 11.6427 83.1326 11.568C83.09 11.4827 83.0153 11.376 82.9086 11.248C82.802 11.1093 82.7273 11.0187 82.6846 10.976C82.642 10.816 82.626 10.5973 82.6366 10.32C82.658 10.0427 82.706 9.744 82.7806 9.424C82.8553 9.104 82.946 8.816 83.0526 8.56C83.0953 8.47467 83.1326 8.38933 83.1646 8.304C83.1966 8.21867 83.2126 8.176 83.2126 8.176C83.2126 8.12267 83.2766 7.99467 83.4046 7.792C83.5433 7.58933 83.6926 7.376 83.8526 7.152C84.0233 6.928 84.162 6.768 84.2686 6.672C84.3433 6.58667 84.4553 6.496 84.6046 6.4C84.7646 6.304 84.9033 6.23467 85.0206 6.192C85.138 6.14933 85.298 6.096 85.5006 6.032C85.7033 5.95733 85.8846 5.92 86.0446 5.92C86.194 5.92 86.354 5.952 86.5246 6.016C86.6953 6.08 86.8393 6.192 86.9566 6.352C87.1486 6.544 87.2713 6.77333 87.3246 7.04C87.378 7.30667 87.3833 7.536 87.3406 7.728C87.2873 7.94133 87.1806 8.11733 87.0206 8.256C86.8606 8.384 86.69 8.45333 86.5086 8.464C86.3273 8.464 86.1673 8.38933 86.0286 8.24C85.986 8.15467 85.9646 8.08533 85.9646 8.032C85.9646 7.968 85.986 7.87733 86.0286 7.76C86.0713 7.61067 86.0926 7.47733 86.0926 7.36C86.0926 7.24267 86.0446 7.184 85.9486 7.184C85.81 7.184 85.698 7.22667 85.6126 7.312C85.5273 7.38667 85.3993 7.51467 85.2286 7.696C85.154 7.78133 85.058 7.904 84.9406 8.064C84.8233 8.224 84.706 8.4 84.5886 8.592C84.482 8.77333 84.386 8.96 84.3006 9.152C84.1833 9.504 84.1086 9.73333 84.0766 9.84C84.0553 9.936 84.0446 9.984 84.0446 9.984C84.0446 10.0267 84.0393 10.0693 84.0286 10.112C84.018 10.144 84.0126 10.1813 84.0126 10.224C84.0126 10.352 84.0873 10.4533 84.2366 10.528C84.354 10.6027 84.45 10.64 84.5246 10.64C84.61 10.6293 84.77 10.5707 85.0046 10.464C85.1753 10.3787 85.3353 10.2667 85.4846 10.128C85.6446 9.98933 85.81 9.86667 85.9806 9.76C86.098 9.68533 86.1886 9.62133 86.2526 9.568C86.3273 9.51467 86.3646 9.50933 86.3646 9.552C86.3646 9.59467 86.3806 9.616 86.4126 9.616C86.4446 9.616 86.482 9.59467 86.5246 9.552C86.5886 9.46667 86.6686 9.43467 86.7646 9.456C86.8606 9.46667 86.946 9.49333 87.0206 9.536C87.106 9.57867 87.1486 9.616 87.1486 9.648C87.1273 9.744 87.1486 9.824 87.2126 9.888C87.2126 9.93067 87.1966 9.98933 87.1646 10.064C87.1433 10.128 87.1113 10.1813 87.0686 10.224C87.0153 10.2987 86.9353 10.4053 86.8286 10.544C86.7326 10.6827 86.642 10.8053 86.5566 10.912C86.4713 11.0187 86.4286 11.072 86.4286 11.072C86.386 11.0613 86.3433 11.072 86.3006 11.104C86.2686 11.136 86.2313 11.1733 86.1886 11.216C86.1033 11.2907 86.0233 11.3493 85.9486 11.392C85.874 11.424 85.8153 11.44 85.7726 11.44C85.698 11.4827 85.6393 11.5093 85.5966 11.52C85.5646 11.5307 85.5486 11.5573 85.5486 11.6C85.442 11.7067 85.25 11.7813 84.9726 11.824C84.6953 11.856 84.4073 11.872 84.1086 11.872ZM93.0262 12.128C92.9836 12.0853 92.9196 12.032 92.8342 11.968C92.7489 11.8933 92.6849 11.8187 92.6422 11.744C92.6209 11.712 92.5676 11.6533 92.4822 11.568C92.3969 11.472 92.3116 11.3813 92.2262 11.296C92.1409 11.2 92.0822 11.1413 92.0502 11.12C92.0289 11.0667 91.9916 11.008 91.9382 10.944C91.8849 10.8693 91.8262 10.7947 91.7622 10.72C91.6982 10.6347 91.6236 10.5547 91.5382 10.48C91.4209 10.32 91.3249 10.1973 91.2502 10.112C91.1862 10.0267 91.1329 9.984 91.0902 9.984C91.0902 9.984 91.0582 10.0853 90.9942 10.288C90.9302 10.48 90.8609 10.704 90.7862 10.96C90.7116 11.2053 90.6476 11.408 90.5942 11.568C90.5516 11.6427 90.5089 11.7013 90.4662 11.744C90.4236 11.7867 90.3809 11.8187 90.3382 11.84C90.3062 11.8613 90.2689 11.8773 90.2262 11.888C90.1836 11.888 90.1409 11.888 90.0982 11.888C89.9809 11.888 89.8316 11.8347 89.6502 11.728C89.4689 11.6213 89.3782 11.4667 89.3782 11.264C89.3356 11.1147 89.3889 10.7893 89.5382 10.288C89.6876 9.78667 89.9169 9.14667 90.2262 8.368C90.2689 8.208 90.3222 8.04267 90.3862 7.872C90.4502 7.69067 90.5036 7.54133 90.5462 7.424C90.7062 6.90133 90.8822 6.42133 91.0742 5.984C91.2662 5.536 91.4796 5.04 91.7142 4.496C91.8102 4.304 91.8796 4.16533 91.9222 4.08C91.9649 3.984 92.0129 3.888 92.0662 3.792C92.1196 3.68533 92.1996 3.53067 92.3062 3.328C92.5409 2.89067 92.7276 2.54933 92.8662 2.304C93.0049 2.05867 93.1116 1.87733 93.1862 1.76C93.2609 1.64267 93.3249 1.55733 93.3782 1.504C93.4316 1.45067 93.5169 1.41333 93.6342 1.392C93.7516 1.37067 93.8689 1.37067 93.9862 1.392C94.1142 1.40267 94.2049 1.44 94.2582 1.504C94.3436 1.58933 94.4076 1.67467 94.4502 1.76C94.4929 1.83467 94.4929 1.94133 94.4502 2.08C94.4182 2.208 94.3222 2.40533 94.1622 2.672C94.0769 2.864 94.0076 3.00267 93.9542 3.088C93.9009 3.17333 93.8476 3.25867 93.7942 3.344C93.7409 3.42933 93.6556 3.57867 93.5382 3.792C93.5276 3.83467 93.5062 3.88267 93.4742 3.936C93.4529 3.97867 93.4262 4.02133 93.3942 4.064C93.3622 4.096 93.3302 4.112 93.2982 4.112C93.2982 4.144 93.2822 4.208 93.2502 4.304C93.2182 4.4 93.1809 4.49067 93.1382 4.576C93.1062 4.69333 93.0529 4.82133 92.9782 4.96C92.9142 5.088 92.8662 5.19467 92.8342 5.28C92.7489 5.48267 92.6316 5.728 92.4822 6.016C92.3436 6.29333 92.2582 6.51733 92.2262 6.688C92.2262 6.70933 92.2422 6.71467 92.2742 6.704C92.3062 6.68267 92.3436 6.656 92.3862 6.624C92.4396 6.58133 92.4876 6.54933 92.5302 6.528C92.7756 6.336 93.0369 6.15467 93.3142 5.984C93.6022 5.81333 93.8422 5.712 94.0342 5.68C94.1409 5.648 94.2369 5.632 94.3222 5.632C94.4076 5.62133 94.4876 5.62133 94.5622 5.632C94.6369 5.64267 94.7116 5.664 94.7862 5.696C94.9036 5.77067 95.0102 5.90933 95.1062 6.112C95.2022 6.31467 95.2716 6.51733 95.3142 6.72C95.3142 6.816 95.2662 6.992 95.1702 7.248C95.0849 7.49333 94.9782 7.73867 94.8502 7.984C94.7329 8.21867 94.6209 8.37867 94.5142 8.464C94.4609 8.48533 94.4129 8.50667 94.3702 8.528C94.3382 8.54933 94.3116 8.57067 94.2902 8.592C94.2796 8.60267 94.2742 8.608 94.2742 8.608C94.2742 8.65067 94.2529 8.704 94.2102 8.768C94.1782 8.832 94.1196 8.88533 94.0342 8.928C93.9916 8.97067 93.9436 9.024 93.8902 9.088C93.8369 9.152 93.8102 9.2 93.8102 9.232C93.8102 9.232 93.8102 9.248 93.8102 9.28C93.8102 9.30133 93.8102 9.312 93.8102 9.312C93.7676 9.312 93.7302 9.31733 93.6982 9.328C93.6769 9.328 93.6076 9.37067 93.4902 9.456C93.3729 9.57333 93.2876 9.63733 93.2342 9.648C93.1916 9.65867 93.1276 9.68 93.0422 9.712C92.9996 9.75467 92.9462 9.78133 92.8822 9.792C92.8289 9.80267 92.8022 9.82933 92.8022 9.872C92.8022 9.91467 92.8449 9.99467 92.9302 10.112C93.0156 10.2293 93.1169 10.3573 93.2342 10.496C93.3622 10.6347 93.4849 10.7627 93.6022 10.88C93.7196 10.9973 93.8102 11.0773 93.8742 11.12C93.9489 11.152 94.0022 11.2107 94.0342 11.296C94.0662 11.3813 94.0822 11.472 94.0822 11.568C94.0929 11.664 94.0876 11.7547 94.0662 11.84C94.0556 11.9253 94.0396 11.9893 94.0182 12.032C93.9969 12.0533 93.9222 12.08 93.7942 12.112C93.6769 12.1547 93.5436 12.1813 93.3942 12.192C93.2556 12.2027 93.1329 12.1813 93.0262 12.128ZM92.0982 9.072C92.1516 9.02933 92.2476 8.94933 92.3862 8.832C92.5356 8.71467 92.6956 8.58667 92.8662 8.448C93.0369 8.29867 93.1916 8.15467 93.3302 8.016C93.4796 7.87733 93.5862 7.77067 93.6502 7.696C93.7249 7.62133 93.8049 7.49867 93.8902 7.328C93.9756 7.15733 93.9916 7.01867 93.9382 6.912C93.9276 6.86933 93.8476 6.896 93.6982 6.992C93.5489 7.088 93.3569 7.19467 93.1222 7.312C92.9409 7.41867 92.7382 7.54133 92.5142 7.68C92.3009 7.808 92.0982 7.952 91.9062 8.112C91.7142 8.26133 91.5649 8.42667 91.4582 8.608C91.4369 8.68267 91.4582 8.768 91.5222 8.864C91.5862 8.96 91.6716 9.03467 91.7782 9.088C91.8849 9.13067 91.9916 9.12533 92.0982 9.072ZM96.7866 15.328C96.4026 15.4027 96.0346 15.4133 95.6826 15.36C95.3306 15.3173 95.0373 15.2267 94.8026 15.088C94.5573 14.9493 94.408 14.7947 94.3546 14.624C94.2906 14.3787 94.3226 14.1973 94.4506 14.08C94.5786 13.9627 94.7333 13.8933 94.9146 13.872C95.0853 13.8507 95.1973 13.872 95.2506 13.936C95.336 13.9893 95.4693 14.0693 95.6506 14.176C95.8426 14.2827 96.0773 14.3093 96.3546 14.256C96.6 14.2027 96.8186 14.0853 97.0106 13.904C97.2026 13.7227 97.3733 13.5307 97.5226 13.328C97.608 13.2 97.752 12.9707 97.9546 12.64C98.1573 12.3093 98.3653 11.9467 98.5786 11.552C98.8026 11.1467 98.9893 10.7733 99.1386 10.432C99.1706 10.3467 99.208 10.2453 99.2506 10.128C99.2933 10.0107 99.3466 9.91467 99.4106 9.84C99.4746 9.712 99.528 9.59467 99.5706 9.488C99.624 9.37067 99.656 9.29067 99.6666 9.248C99.6773 9.19467 99.7253 9.088 99.8106 8.928C99.896 8.768 99.976 8.608 100.051 8.448C100.104 8.288 100.184 8.05333 100.291 7.744C100.397 7.43467 100.504 7.184 100.611 6.992C100.739 6.74667 100.84 6.54933 100.915 6.4C101 6.24 101.091 6.144 101.187 6.112C101.283 6.03733 101.373 6 101.459 6C101.544 6 101.645 6.032 101.763 6.096C101.891 6.224 101.992 6.352 102.067 6.48C102.152 6.59733 102.184 6.74667 102.163 6.928C102.152 7.09867 102.067 7.33333 101.907 7.632C101.821 7.888 101.725 8.12267 101.619 8.336C101.523 8.53867 101.448 8.672 101.395 8.736C101.341 8.864 101.277 9.008 101.203 9.168C101.139 9.31733 101.08 9.456 101.027 9.584C100.835 10.0107 100.669 10.3573 100.531 10.624C100.392 10.8907 100.269 11.136 100.163 11.36C100.056 11.584 99.944 11.8453 99.8266 12.144C99.5813 12.5387 99.3413 12.912 99.1066 13.264C98.8826 13.6267 98.6426 13.9627 98.3866 14.272C98.28 14.368 98.1253 14.4907 97.9226 14.64C97.7306 14.8 97.528 14.944 97.3146 15.072C97.112 15.2107 96.936 15.296 96.7866 15.328ZM98.7866 11.712C98.6266 11.6907 98.4506 11.584 98.2586 11.392C98.0773 11.2 97.9226 10.9973 97.7946 10.784C97.6773 10.5707 97.6293 10.4213 97.6506 10.336C97.6506 10.2827 97.6506 10.24 97.6506 10.208C97.6506 10.176 97.6506 10.16 97.6506 10.16C97.5866 10.16 97.5333 10.0693 97.4906 9.888C97.4586 9.696 97.432 9.456 97.4106 9.168C97.4 8.88 97.3946 8.58133 97.3946 8.272C97.4053 7.96267 97.4213 7.68 97.4426 7.424C97.4853 7.24267 97.5066 7.04533 97.5066 6.832C97.5066 6.608 97.512 6.432 97.5226 6.304C97.512 6.13333 97.544 5.99467 97.6186 5.888C97.704 5.78133 97.768 5.712 97.8106 5.68C98.2053 5.50933 98.4933 5.6 98.6746 5.952C98.856 6.304 98.92 6.864 98.8666 7.632C98.8453 8.05867 98.8346 8.46933 98.8346 8.864C98.8346 9.248 98.872 9.57867 98.9466 9.856C99.0213 10.1333 99.1493 10.3307 99.3306 10.448C99.4053 10.4907 99.432 10.5813 99.4106 10.72C99.3893 10.8587 99.3413 11.008 99.2666 11.168C99.192 11.3173 99.1066 11.4507 99.0106 11.568C98.9253 11.6747 98.8506 11.7227 98.7866 11.712ZM114.003 11.936C113.843 11.936 113.688 11.888 113.539 11.792C113.389 11.6853 113.267 11.5413 113.171 11.36C113.075 11.168 113.027 10.944 113.027 10.688C113.027 10.528 113.053 10.304 113.107 10.016C113.171 9.71733 113.261 9.344 113.379 8.896C113.4 8.74667 113.416 8.65067 113.427 8.608C113.448 8.56533 113.459 8.52267 113.459 8.48C113.459 8.45867 113.453 8.44267 113.443 8.432C113.443 8.41067 113.432 8.4 113.411 8.4C113.325 8.4 113.208 8.45867 113.059 8.576C112.92 8.68267 112.76 8.81067 112.579 8.96C112.547 8.98133 112.509 9.008 112.467 9.04C112.435 9.072 112.397 9.104 112.355 9.136C112.323 9.168 112.285 9.2 112.243 9.232C112.136 9.296 111.971 9.41867 111.747 9.6C111.533 9.78133 111.309 9.97333 111.075 10.176C110.851 10.3787 110.653 10.5493 110.483 10.688C110.397 10.752 110.323 10.8053 110.259 10.848C110.205 10.8907 110.168 10.912 110.147 10.912C110.125 10.912 110.04 10.8853 109.891 10.832C109.752 10.768 109.613 10.6827 109.475 10.576C109.347 10.4587 109.283 10.3253 109.283 10.176C109.283 10.08 109.32 9.888 109.395 9.6C109.48 9.312 109.597 8.97067 109.747 8.576C109.896 8.18133 110.067 7.78133 110.259 7.376C110.301 7.28 110.333 7.152 110.355 6.992C110.376 6.832 110.397 6.67733 110.419 6.528C110.451 6.368 110.504 6.25067 110.579 6.176C110.611 6.12267 110.648 6.08533 110.691 6.064C110.744 6.032 110.797 6.016 110.851 6.016C110.957 6.016 111.059 6.04267 111.155 6.096C111.251 6.13867 111.341 6.21333 111.427 6.32C111.587 6.49067 111.672 6.69333 111.683 6.928C111.704 7.152 111.688 7.37067 111.635 7.584C111.581 7.79733 111.523 7.97333 111.459 8.112C111.395 8.24 111.363 8.29333 111.363 8.272C111.405 8.25067 111.464 8.19733 111.539 8.112C111.624 8.02667 111.768 7.92533 111.971 7.808C112.248 7.59467 112.461 7.44533 112.611 7.36C112.76 7.264 112.872 7.19467 112.947 7.152C113.032 7.10933 113.107 7.06133 113.171 7.008C113.224 6.96533 113.261 6.93867 113.283 6.928C113.315 6.91733 113.331 6.912 113.331 6.912C113.363 6.912 113.416 6.89067 113.491 6.848C113.576 6.80533 113.656 6.784 113.731 6.784C113.837 6.784 113.949 6.81067 114.067 6.864C114.184 6.90667 114.285 6.97067 114.371 7.056C114.456 7.13067 114.499 7.21067 114.499 7.296C114.499 7.328 114.509 7.35467 114.531 7.376C114.552 7.39733 114.573 7.424 114.595 7.456C114.648 7.52 114.707 7.61067 114.771 7.728C114.845 7.83467 114.883 8.01067 114.883 8.256C114.883 8.42667 114.845 8.67733 114.771 9.008C114.696 9.33867 114.616 9.664 114.531 9.984C114.445 10.3147 114.403 10.5813 114.403 10.784C114.413 10.976 114.435 11.1253 114.467 11.232C114.499 11.328 114.515 11.408 114.515 11.472C114.515 11.5573 114.472 11.6587 114.387 11.776C114.301 11.8827 114.173 11.936 114.003 11.936ZM119.091 12.144C118.952 12.1547 118.84 12.1387 118.755 12.096C118.669 12.064 118.563 12.0107 118.435 11.936C118.2 11.7547 118.003 11.5307 117.843 11.264C117.693 10.9973 117.624 10.7733 117.635 10.592C117.656 10.496 117.656 10.4107 117.635 10.336C117.624 10.2613 117.619 10.224 117.619 10.224C117.555 10.1707 117.533 10.1387 117.555 10.128C117.576 10.1067 117.592 10.0747 117.603 10.032C117.688 10.0107 117.699 9.952 117.635 9.856C117.603 9.77067 117.619 9.57867 117.683 9.28C117.757 8.97067 117.853 8.68267 117.971 8.416C118.024 8.29867 118.099 8.144 118.195 7.952C118.301 7.76 118.419 7.568 118.547 7.376C118.675 7.17333 118.792 7.01333 118.899 6.896C119.133 6.62933 119.341 6.41067 119.523 6.24C119.715 6.06933 119.928 5.94133 120.163 5.856C120.376 5.77067 120.589 5.73333 120.803 5.744C121.027 5.75467 121.224 5.82933 121.395 5.968C121.651 6.04267 121.88 6.16 122.083 6.32C122.285 6.46933 122.424 6.68267 122.499 6.96C122.584 7.26933 122.611 7.63733 122.579 8.064C122.557 8.48 122.376 9.01867 122.035 9.68C121.832 10.096 121.629 10.432 121.427 10.688C121.235 10.944 121 11.1893 120.723 11.424C120.52 11.5947 120.259 11.744 119.939 11.872C119.619 12 119.336 12.0907 119.091 12.144ZM120.483 9.728C120.621 9.536 120.728 9.34933 120.803 9.168C120.888 8.98667 120.968 8.736 121.043 8.416C121.075 8.29867 121.091 8.15467 121.091 7.984C121.101 7.81333 121.096 7.65867 121.075 7.52C121.064 7.37067 121.027 7.29067 120.963 7.28C120.824 7.22667 120.68 7.22667 120.531 7.28C120.392 7.32267 120.227 7.45067 120.035 7.664C119.864 7.856 119.725 8.03733 119.619 8.208C119.523 8.368 119.432 8.56533 119.347 8.8C119.272 9.024 119.187 9.31733 119.091 9.68C119.005 10.032 119 10.3147 119.075 10.528C119.16 10.7413 119.32 10.8 119.555 10.704C119.789 10.608 120.099 10.2827 120.483 9.728ZM126.087 12.96C125.565 12.9493 125.229 12.8 125.079 12.512C124.941 12.2347 124.903 11.8827 124.967 11.456C125.031 11.2533 125.069 11.072 125.079 10.912C125.101 10.7413 125.149 10.6347 125.223 10.592C125.223 10.592 125.229 10.576 125.239 10.544C125.261 10.512 125.255 10.48 125.223 10.448C125.223 10.3093 125.271 10.1173 125.367 9.872C125.389 9.808 125.415 9.73333 125.447 9.648C125.49 9.552 125.511 9.504 125.511 9.504C125.458 9.41867 125.458 9.34933 125.511 9.296C125.565 9.24267 125.618 9.19467 125.671 9.152C125.735 9.09867 125.741 9.04 125.687 8.976C125.666 8.93333 125.693 8.83733 125.767 8.688C125.842 8.528 125.927 8.36267 126.023 8.192C126.119 8.02133 126.183 7.888 126.215 7.792C126.215 7.77067 126.242 7.696 126.295 7.568C126.349 7.44 126.413 7.29067 126.487 7.12C126.562 6.94933 126.631 6.79467 126.695 6.656C126.77 6.51733 126.818 6.42667 126.839 6.384C126.946 6.33067 126.903 6.29333 126.711 6.272C126.519 6.25067 126.317 6.24533 126.103 6.256C125.773 6.24533 125.506 6.22933 125.303 6.208C125.111 6.18667 124.951 6.13867 124.823 6.064C124.695 5.91467 124.679 5.73867 124.775 5.536C124.871 5.32267 125.026 5.21067 125.239 5.2C125.378 5.18933 125.485 5.184 125.559 5.184C125.645 5.184 125.751 5.17867 125.879 5.168C126.018 5.14667 126.231 5.12 126.519 5.088L127.335 5.024L127.383 4.752C127.469 4.61333 127.527 4.52267 127.559 4.48C127.591 4.43733 127.613 4.39467 127.623 4.352C127.634 4.29867 127.65 4.208 127.671 4.08C127.671 4.08 127.719 3.99467 127.815 3.824C127.911 3.64267 127.97 3.456 127.991 3.264C128.119 3.05067 128.231 2.85867 128.327 2.688C128.423 2.50667 128.482 2.39467 128.503 2.352C128.685 2.08533 128.861 1.94133 129.031 1.92C129.213 1.89867 129.383 1.94133 129.543 2.048C129.639 2.10133 129.73 2.17067 129.815 2.256C129.901 2.33067 129.954 2.432 129.975 2.56C129.997 2.67733 129.949 2.832 129.831 3.024C129.81 3.06667 129.778 3.14667 129.735 3.264C129.693 3.37067 129.661 3.46133 129.639 3.536C129.575 3.61067 129.495 3.73333 129.399 3.904C129.314 4.064 129.255 4.22933 129.223 4.4C129.138 4.58133 129.085 4.69333 129.063 4.736C129.042 4.77867 129.01 4.8 128.967 4.8C128.989 4.90667 129.053 4.96 129.159 4.96C129.266 4.94933 129.442 4.93867 129.687 4.928C129.89 4.90667 130.029 4.88533 130.103 4.864C130.189 4.832 130.285 4.84267 130.391 4.896C130.445 4.97067 130.471 5.08267 130.471 5.232C130.482 5.37067 130.466 5.50933 130.423 5.648C130.381 5.776 130.322 5.856 130.247 5.888C130.194 5.888 130.082 5.92 129.911 5.984C129.751 6.03733 129.549 6.06933 129.303 6.08L128.455 6.16L128.183 6.704C128.109 6.84267 128.045 6.97067 127.991 7.088C127.938 7.19467 127.901 7.25867 127.879 7.28C127.879 7.344 127.842 7.44 127.767 7.568C127.703 7.696 127.634 7.83467 127.559 7.984C127.495 8.16533 127.421 8.33067 127.335 8.48C127.261 8.62933 127.223 8.704 127.223 8.704C127.181 8.704 127.159 8.736 127.159 8.8C127.213 8.928 127.197 9.024 127.111 9.088C127.058 9.12 127.01 9.168 126.967 9.232C126.935 9.28533 126.919 9.312 126.919 9.312C126.962 9.35467 126.967 9.408 126.935 9.472C126.914 9.536 126.882 9.60533 126.839 9.68C126.839 9.76533 126.813 9.888 126.759 10.048C126.717 10.208 126.669 10.3573 126.615 10.496C126.626 10.688 126.637 10.8107 126.647 10.864C126.658 10.9173 126.685 10.9387 126.727 10.928C126.781 10.9387 126.855 10.9387 126.951 10.928C127.047 10.9173 127.117 10.912 127.159 10.912C127.319 10.8373 127.245 11.2107 126.935 12.032C126.765 12.2987 126.594 12.5173 126.423 12.688C126.253 12.8693 126.141 12.96 126.087 12.96ZM134.264 11.68C133.944 11.8613 133.603 11.968 133.24 12C132.888 12.0213 132.558 11.9733 132.248 11.856C131.939 11.728 131.688 11.5413 131.496 11.296C131.39 11.1573 131.288 10.9387 131.192 10.64C131.096 10.3307 131.08 9.91467 131.144 9.392C131.208 8.90133 131.358 8.40533 131.592 7.904C131.838 7.40267 132.136 6.96 132.488 6.576C132.84 6.192 133.224 5.93067 133.64 5.792C133.79 5.73867 133.939 5.70133 134.088 5.68C134.248 5.648 134.456 5.64267 134.712 5.664C134.958 5.696 135.176 5.76 135.368 5.856C135.56 5.94133 135.699 6.03733 135.784 6.144C135.955 6.31467 136.067 6.48 136.12 6.64C136.174 6.8 136.195 6.95467 136.184 7.104C136.131 7.44533 135.976 7.81333 135.72 8.208C135.475 8.60267 135.128 8.896 134.68 9.088C134.499 9.16267 134.286 9.21067 134.04 9.232C133.795 9.25333 133.459 9.22133 133.032 9.136C132.776 9.08267 132.606 9.10933 132.52 9.216C132.446 9.32267 132.414 9.53067 132.424 9.84C132.446 10.032 132.488 10.2027 132.552 10.352C132.627 10.4907 132.76 10.5867 132.952 10.64C133.198 10.6827 133.374 10.688 133.48 10.656C133.587 10.6133 133.72 10.5547 133.88 10.48C133.966 10.4267 134.046 10.368 134.12 10.304C134.206 10.24 134.286 10.176 134.36 10.112C134.446 10.048 134.515 10 134.568 9.968C134.622 9.92533 134.675 9.89867 134.728 9.888C134.782 9.87733 134.835 9.872 134.888 9.872C135.006 9.88267 135.118 9.94667 135.224 10.064C135.331 10.1813 135.4 10.2933 135.432 10.4C135.432 10.4853 135.379 10.608 135.272 10.768C135.166 10.9173 135.022 11.0773 134.84 11.248C134.67 11.408 134.478 11.552 134.264 11.68ZM134.056 8.112C134.131 8.08 134.238 8.00533 134.376 7.888C134.526 7.77067 134.659 7.648 134.776 7.52C134.894 7.38133 134.952 7.27467 134.952 7.2C134.952 7.08267 134.872 6.98133 134.712 6.896C134.563 6.81067 134.366 6.79467 134.12 6.848C134.035 6.86933 133.934 6.928 133.816 7.024C133.699 7.12 133.582 7.232 133.464 7.36C133.347 7.47733 133.246 7.59467 133.16 7.712C133.075 7.81867 133.016 7.904 132.984 7.968C133.027 8.02133 133.112 8.064 133.24 8.096C133.368 8.128 133.507 8.144 133.656 8.144C133.816 8.144 133.95 8.13333 134.056 8.112ZM144.891 12.064C144.582 12.1173 144.272 12.0907 143.963 11.984C143.664 11.8773 143.414 11.7067 143.211 11.472C143.019 11.2267 142.923 10.9333 142.923 10.592C142.891 10.272 142.918 9.89333 143.003 9.456C143.099 9.008 143.238 8.56 143.419 8.112C143.611 7.664 143.83 7.28533 144.075 6.976C144.288 6.72 144.502 6.48533 144.715 6.272C144.928 6.05867 145.12 5.91467 145.291 5.84C145.44 5.776 145.622 5.728 145.835 5.696C146.059 5.65333 146.214 5.632 146.299 5.632C146.47 5.67467 146.656 5.744 146.859 5.84C147.072 5.936 147.179 6.048 147.179 6.176C147.179 6.176 147.19 6.192 147.211 6.224C147.243 6.24533 147.259 6.256 147.259 6.256C147.323 6.256 147.392 6.336 147.467 6.496C147.552 6.64533 147.616 6.82133 147.659 7.024C147.702 7.216 147.691 7.37067 147.627 7.488C147.584 7.69067 147.499 7.888 147.371 8.08C147.254 8.272 147.152 8.368 147.067 8.368C147.024 8.368 146.982 8.37333 146.939 8.384C146.907 8.384 146.891 8.41067 146.891 8.464C146.891 8.51733 146.832 8.544 146.715 8.544C146.608 8.544 146.496 8.52267 146.379 8.48C146.262 8.43733 146.187 8.37333 146.155 8.288C146.155 8.23467 146.166 8.16533 146.187 8.08C146.208 7.99467 146.24 7.85067 146.283 7.648C146.347 7.34933 146.352 7.152 146.299 7.056C146.246 6.94933 146.112 6.93867 145.899 7.024C145.632 7.17333 145.414 7.34933 145.243 7.552C145.072 7.744 144.918 8.016 144.779 8.368C144.651 8.72 144.507 9.21067 144.347 9.84C144.283 10.0853 144.272 10.2773 144.315 10.416C144.368 10.5547 144.411 10.6293 144.443 10.64C144.592 10.6827 144.752 10.6933 144.923 10.672C145.104 10.64 145.254 10.592 145.371 10.528C145.542 10.4427 145.691 10.352 145.819 10.256C145.958 10.1493 146.107 10.0373 146.267 9.92C146.32 9.888 146.368 9.82933 146.411 9.744C146.454 9.648 146.518 9.57867 146.603 9.536C146.688 9.408 146.795 9.344 146.923 9.344C147.062 9.33333 147.195 9.328 147.323 9.328C147.408 9.34933 147.499 9.40267 147.595 9.488C147.691 9.57333 147.76 9.65867 147.803 9.744C147.856 9.81867 147.851 9.872 147.787 9.904C147.744 9.904 147.718 9.92 147.707 9.952C147.707 9.97333 147.707 9.984 147.707 9.984C147.728 10.0267 147.68 10.1227 147.563 10.272C147.456 10.4213 147.318 10.5813 147.147 10.752C146.976 10.9227 146.811 11.072 146.651 11.2C146.502 11.3173 146.395 11.376 146.331 11.376C146.224 11.376 146.171 11.408 146.171 11.472C146.171 11.4933 146.091 11.5467 145.931 11.632C145.782 11.7173 145.606 11.8027 145.403 11.888C145.211 11.9733 145.04 12.032 144.891 12.064ZM151.583 11.872C151.359 11.9147 151.188 11.904 151.071 11.84C150.964 11.7653 150.852 11.6747 150.735 11.568C150.564 11.4827 150.41 11.3653 150.271 11.216C150.132 11.056 150.026 10.8907 149.951 10.72C149.876 10.5493 149.844 10.416 149.855 10.32C149.887 9.94667 149.972 9.54133 150.111 9.104C150.26 8.66667 150.447 8.24 150.671 7.824C150.906 7.408 151.167 7.04 151.455 6.72C151.754 6.38933 152.074 6.14933 152.415 6C152.628 5.91467 152.858 5.88267 153.103 5.904C153.348 5.92533 153.514 6.02667 153.599 6.208C153.759 6.51733 153.722 6.71467 153.487 6.8C153.455 6.8 153.418 6.816 153.375 6.848C153.332 6.86933 153.311 6.90133 153.311 6.944C153.354 6.96533 153.471 6.97067 153.663 6.96C153.855 6.93867 154.047 6.90667 154.239 6.864C154.442 6.81067 154.575 6.75733 154.639 6.704C154.703 6.672 154.751 6.656 154.783 6.656C154.815 6.656 154.895 6.66667 155.023 6.688C155.204 6.74133 155.295 6.80533 155.295 6.88C155.295 6.92267 155.311 6.992 155.343 7.088C155.375 7.17333 155.412 7.216 155.455 7.216C155.53 7.22667 155.546 7.30133 155.503 7.44C155.471 7.57867 155.348 7.72267 155.135 7.872C154.932 8 154.804 8.08533 154.751 8.128C154.708 8.16 154.703 8.23467 154.735 8.352C154.82 8.55467 154.815 8.8 154.719 9.088C154.623 9.376 154.463 9.67467 154.239 9.984C154.015 10.2933 153.748 10.5867 153.439 10.864C153.14 11.1307 152.826 11.36 152.495 11.552C152.175 11.7333 151.871 11.84 151.583 11.872ZM151.631 10.528C151.674 10.528 151.748 10.5067 151.855 10.464C151.962 10.4107 152.047 10.368 152.111 10.336C152.154 10.2933 152.207 10.2453 152.271 10.192C152.346 10.128 152.404 10.0907 152.447 10.08C152.49 10.08 152.516 10.064 152.527 10.032C152.538 9.98933 152.575 9.90933 152.639 9.792C152.703 9.664 152.831 9.47733 153.023 9.232C153.236 8.99733 153.375 8.81067 153.439 8.672C153.503 8.52267 153.508 8.36267 153.455 8.192C153.444 8.14933 153.412 8.12267 153.359 8.112C153.316 8.10133 153.258 8.07467 153.183 8.032C153.076 8.032 153.002 8.05867 152.959 8.112C152.927 8.15467 152.852 8.128 152.735 8.032L152.479 7.712L152.207 7.984C152.036 8.15467 151.882 8.368 151.743 8.624C151.615 8.88 151.514 9.14133 151.439 9.408C151.364 9.67467 151.316 9.90933 151.295 10.112C151.284 10.272 151.311 10.3787 151.375 10.432C151.439 10.4853 151.524 10.5173 151.631 10.528ZM157.556 11.616C157.449 11.552 157.332 11.4613 157.204 11.344C157.076 11.216 157.012 11.0933 157.012 10.976C157.012 10.816 157.033 10.6187 157.076 10.384C157.119 10.1387 157.161 9.93067 157.204 9.76C157.225 9.568 157.252 9.376 157.284 9.184C157.327 8.98133 157.401 8.79467 157.508 8.624C157.625 8.21867 157.748 7.81867 157.876 7.424C158.004 7.01867 158.116 6.60267 158.212 6.176C158.351 5.78133 158.473 5.43467 158.58 5.136C158.697 4.82667 158.841 4.43733 159.012 3.968C159.108 3.70133 159.188 3.41867 159.252 3.12C159.327 2.81067 159.439 2.53333 159.588 2.288C159.652 2.192 159.7 2.112 159.732 2.048C159.775 1.97333 159.817 1.904 159.86 1.84C159.871 1.79733 159.924 1.76 160.02 1.728C160.127 1.696 160.233 1.68 160.34 1.68C160.457 1.66933 160.537 1.69067 160.58 1.744C160.612 1.73333 160.665 1.776 160.74 1.872C160.815 1.95733 160.884 2.05867 160.948 2.176C161.023 2.28267 161.055 2.368 161.044 2.432C161.044 2.47467 161.033 2.53333 161.012 2.608C161.001 2.68267 160.975 2.752 160.932 2.816C160.889 2.85867 160.847 2.92267 160.804 3.008C160.772 3.08267 160.719 3.18933 160.644 3.328C160.601 3.46667 160.564 3.61067 160.532 3.76C160.5 3.89867 160.457 4.02667 160.404 4.144C160.361 4.272 160.308 4.39467 160.244 4.512C160.191 4.62933 160.153 4.72533 160.132 4.8C160.057 5.04533 159.967 5.28533 159.86 5.52C159.764 5.75467 159.679 6.00533 159.604 6.272C159.529 6.528 159.455 6.79467 159.38 7.072C159.305 7.33867 159.199 7.59467 159.06 7.84C158.985 7.95733 158.932 8.10667 158.9 8.288C158.868 8.46933 158.836 8.65067 158.804 8.832C158.74 9.024 158.681 9.20533 158.628 9.376C158.585 9.536 158.564 9.63733 158.564 9.68C158.5 9.91467 158.452 10.1493 158.42 10.384C158.399 10.608 158.345 10.8053 158.26 10.976C158.249 11.0827 158.212 11.2 158.148 11.328C158.084 11.456 157.999 11.552 157.892 11.616C157.796 11.68 157.684 11.68 157.556 11.616ZM162.832 12.144C162.693 12.1547 162.581 12.1387 162.496 12.096C162.41 12.064 162.304 12.0107 162.176 11.936C161.941 11.7547 161.744 11.5307 161.584 11.264C161.434 10.9973 161.365 10.7733 161.376 10.592C161.397 10.496 161.397 10.4107 161.376 10.336C161.365 10.2613 161.36 10.224 161.36 10.224C161.296 10.1707 161.274 10.1387 161.296 10.128C161.317 10.1067 161.333 10.0747 161.344 10.032C161.429 10.0107 161.44 9.952 161.376 9.856C161.344 9.77067 161.36 9.57867 161.424 9.28C161.498 8.97067 161.594 8.68267 161.712 8.416C161.765 8.29867 161.84 8.144 161.936 7.952C162.042 7.76 162.16 7.568 162.288 7.376C162.416 7.17333 162.533 7.01333 162.64 6.896C162.874 6.62933 163.082 6.41067 163.264 6.24C163.456 6.06933 163.669 5.94133 163.904 5.856C164.117 5.77067 164.33 5.73333 164.544 5.744C164.768 5.75467 164.965 5.82933 165.136 5.968C165.392 6.04267 165.621 6.16 165.824 6.32C166.026 6.46933 166.165 6.68267 166.24 6.96C166.325 7.26933 166.352 7.63733 166.32 8.064C166.298 8.48 166.117 9.01867 165.776 9.68C165.573 10.096 165.37 10.432 165.168 10.688C164.976 10.944 164.741 11.1893 164.464 11.424C164.261 11.5947 164 11.744 163.68 11.872C163.36 12 163.077 12.0907 162.832 12.144ZM164.224 9.728C164.362 9.536 164.469 9.34933 164.544 9.168C164.629 8.98667 164.709 8.736 164.784 8.416C164.816 8.29867 164.832 8.15467 164.832 7.984C164.842 7.81333 164.837 7.65867 164.816 7.52C164.805 7.37067 164.768 7.29067 164.704 7.28C164.565 7.22667 164.421 7.22667 164.272 7.28C164.133 7.32267 163.968 7.45067 163.776 7.664C163.605 7.856 163.466 8.03733 163.36 8.208C163.264 8.368 163.173 8.56533 163.088 8.8C163.013 9.024 162.928 9.31733 162.832 9.68C162.746 10.032 162.741 10.3147 162.816 10.528C162.901 10.7413 163.061 10.8 163.296 10.704C163.53 10.608 163.84 10.2827 164.224 9.728ZM168.821 11.76C168.746 11.76 168.645 11.7067 168.517 11.6C168.399 11.4933 168.33 11.3973 168.309 11.312C168.277 11.2267 168.277 11.104 168.309 10.944C168.351 10.7733 168.41 10.576 168.485 10.352C168.57 10 168.629 9.744 168.661 9.584C168.693 9.424 168.725 9.28533 168.757 9.168C168.789 9.05067 168.831 8.88 168.885 8.656C168.949 8.51733 168.997 8.384 169.029 8.256C169.071 8.11733 169.114 7.97867 169.157 7.84C169.21 7.70133 169.269 7.56267 169.333 7.424C169.407 7.14667 169.498 6.88533 169.605 6.64C169.722 6.384 169.834 6.17067 169.941 6C169.962 5.968 170.01 5.90933 170.085 5.824C170.159 5.73867 170.218 5.696 170.261 5.696C170.346 5.61067 170.463 5.584 170.613 5.616C170.762 5.63733 170.89 5.69067 170.997 5.776C171.125 5.91467 171.194 6.08 171.205 6.272C171.226 6.45333 171.151 6.70933 170.981 7.04C170.853 7.37067 170.73 7.632 170.613 7.824C170.506 8.00533 170.399 8.21867 170.293 8.464C170.41 8.29333 170.554 8.11733 170.725 7.936C170.895 7.75467 171.029 7.61067 171.125 7.504C171.263 7.35467 171.391 7.23733 171.509 7.152C171.637 7.056 171.807 6.93867 172.021 6.8C172.202 6.672 172.383 6.55467 172.565 6.448C172.757 6.34133 172.986 6.30933 173.253 6.352C173.359 6.34133 173.471 6.39467 173.589 6.512C173.717 6.62933 173.813 6.784 173.877 6.976C173.951 7.15733 173.951 7.35467 173.877 7.568C173.631 7.51467 173.413 7.52533 173.221 7.6C173.029 7.664 172.863 7.744 172.725 7.84C172.597 7.936 172.495 8.01067 172.421 8.064C172.314 8.128 172.191 8.21333 172.053 8.32C171.914 8.416 171.765 8.528 171.605 8.656C171.445 8.77333 171.274 8.90667 171.093 9.056C170.837 9.26933 170.645 9.456 170.517 9.616C170.389 9.776 170.287 9.94667 170.213 10.128C170.149 10.288 170.069 10.48 169.973 10.704C169.877 10.928 169.786 11.1307 169.701 11.312C169.615 11.4827 169.546 11.5893 169.493 11.632C169.439 11.7387 169.327 11.7973 169.157 11.808C168.997 11.8187 168.885 11.8027 168.821 11.76ZM180.317 15.328C179.933 15.4027 179.565 15.4133 179.213 15.36C178.861 15.3173 178.568 15.2267 178.333 15.088C178.088 14.9493 177.939 14.7947 177.885 14.624C177.821 14.3787 177.853 14.1973 177.981 14.08C178.109 13.9627 178.264 13.8933 178.445 13.872C178.616 13.8507 178.728 13.872 178.781 13.936C178.867 13.9893 179 14.0693 179.181 14.176C179.373 14.2827 179.608 14.3093 179.885 14.256C180.131 14.2027 180.349 14.0853 180.541 13.904C180.733 13.7227 180.904 13.5307 181.053 13.328C181.139 13.2 181.283 12.9707 181.485 12.64C181.688 12.3093 181.896 11.9467 182.109 11.552C182.333 11.1467 182.52 10.7733 182.669 10.432C182.701 10.3467 182.739 10.2453 182.781 10.128C182.824 10.0107 182.877 9.91467 182.941 9.84C183.005 9.712 183.059 9.59467 183.101 9.488C183.155 9.37067 183.187 9.29067 183.197 9.248C183.208 9.19467 183.256 9.088 183.341 8.928C183.427 8.768 183.507 8.608 183.581 8.448C183.635 8.288 183.715 8.05333 183.821 7.744C183.928 7.43467 184.035 7.184 184.141 6.992C184.269 6.74667 184.371 6.54933 184.445 6.4C184.531 6.24 184.621 6.144 184.717 6.112C184.813 6.03733 184.904 6 184.989 6C185.075 6 185.176 6.032 185.293 6.096C185.421 6.224 185.523 6.352 185.597 6.48C185.683 6.59733 185.715 6.74667 185.693 6.928C185.683 7.09867 185.597 7.33333 185.437 7.632C185.352 7.888 185.256 8.12267 185.149 8.336C185.053 8.53867 184.979 8.672 184.925 8.736C184.872 8.864 184.808 9.008 184.733 9.168C184.669 9.31733 184.611 9.456 184.557 9.584C184.365 10.0107 184.2 10.3573 184.061 10.624C183.923 10.8907 183.8 11.136 183.693 11.36C183.587 11.584 183.475 11.8453 183.357 12.144C183.112 12.5387 182.872 12.912 182.637 13.264C182.413 13.6267 182.173 13.9627 181.917 14.272C181.811 14.368 181.656 14.4907 181.453 14.64C181.261 14.8 181.059 14.944 180.845 15.072C180.643 15.2107 180.467 15.296 180.317 15.328ZM182.317 11.712C182.157 11.6907 181.981 11.584 181.789 11.392C181.608 11.2 181.453 10.9973 181.325 10.784C181.208 10.5707 181.16 10.4213 181.181 10.336C181.181 10.2827 181.181 10.24 181.181 10.208C181.181 10.176 181.181 10.16 181.181 10.16C181.117 10.16 181.064 10.0693 181.021 9.888C180.989 9.696 180.963 9.456 180.941 9.168C180.931 8.88 180.925 8.58133 180.925 8.272C180.936 7.96267 180.952 7.68 180.973 7.424C181.016 7.24267 181.037 7.04533 181.037 6.832C181.037 6.608 181.043 6.432 181.053 6.304C181.043 6.13333 181.075 5.99467 181.149 5.888C181.235 5.78133 181.299 5.712 181.341 5.68C181.736 5.50933 182.024 5.6 182.205 5.952C182.387 6.304 182.451 6.864 182.397 7.632C182.376 8.05867 182.365 8.46933 182.365 8.864C182.365 9.248 182.403 9.57867 182.477 9.856C182.552 10.1333 182.68 10.3307 182.861 10.448C182.936 10.4907 182.963 10.5813 182.941 10.72C182.92 10.8587 182.872 11.008 182.797 11.168C182.723 11.3173 182.637 11.4507 182.541 11.568C182.456 11.6747 182.381 11.7227 182.317 11.712ZM188.362 11.888C188.224 11.888 188.112 11.8613 188.026 11.808C187.952 11.7547 187.856 11.68 187.738 11.584C187.536 11.3707 187.37 11.1413 187.242 10.896C187.125 10.6507 187.082 10.4373 187.114 10.256C187.146 10.1707 187.157 10.0907 187.146 10.016C187.146 9.93067 187.146 9.888 187.146 9.888C187.093 9.83467 187.077 9.80267 187.098 9.792C187.12 9.77067 187.141 9.73867 187.162 9.696C187.226 9.696 187.248 9.63733 187.226 9.52C187.205 9.43467 187.237 9.25333 187.322 8.976C187.418 8.688 187.546 8.416 187.706 8.16C187.77 8.05333 187.866 7.91467 187.994 7.744C188.122 7.56267 188.261 7.38667 188.41 7.216C188.57 7.03467 188.714 6.89067 188.842 6.784C189.109 6.56 189.354 6.37867 189.578 6.24C189.813 6.10133 190.048 6.00533 190.282 5.952C190.517 5.89867 190.757 5.872 191.002 5.872C191.258 5.872 191.466 5.95733 191.626 6.128C191.872 6.23467 192.042 6.37867 192.138 6.56C192.245 6.74133 192.314 6.976 192.346 7.264C192.378 7.584 192.346 7.97867 192.25 8.448C192.154 8.90667 191.893 9.44 191.466 10.048C191.2 10.432 190.938 10.7307 190.682 10.944C190.426 11.1573 190.144 11.3547 189.834 11.536C189.61 11.6853 189.37 11.776 189.114 11.808C188.858 11.84 188.608 11.8667 188.362 11.888ZM189.994 9.936C190.229 9.73333 190.394 9.50933 190.49 9.264C190.597 9.01867 190.709 8.73067 190.826 8.4C190.869 8.336 190.896 8.22933 190.906 8.08C190.928 7.93067 190.933 7.78667 190.922 7.648C190.912 7.49867 190.874 7.41333 190.81 7.392C190.714 7.31733 190.618 7.30133 190.522 7.344C190.426 7.376 190.304 7.44533 190.154 7.552C189.834 7.81867 189.536 8.128 189.258 8.48C188.992 8.82133 188.805 9.24267 188.698 9.744C188.666 10.0107 188.693 10.2133 188.778 10.352C188.874 10.48 189.024 10.5173 189.226 10.464C189.44 10.4 189.696 10.224 189.994 9.936ZM198.239 12.096C198.165 12.1387 198.063 12.1227 197.935 12.048C197.818 11.9733 197.701 11.8613 197.583 11.712C197.509 11.584 197.45 11.456 197.407 11.328C197.375 11.1893 197.359 10.9867 197.359 10.72C197.37 10.5067 197.37 10.3627 197.359 10.288C197.359 10.2027 197.311 10.1973 197.215 10.272C197.13 10.336 196.954 10.496 196.687 10.752C196.421 11.0187 196.165 11.248 195.919 11.44C195.685 11.6213 195.493 11.7067 195.343 11.696C195.269 11.696 195.167 11.648 195.039 11.552C194.911 11.456 194.789 11.3387 194.671 11.2C194.554 11.0507 194.469 10.912 194.415 10.784C194.351 10.528 194.346 10.1973 194.399 9.792C194.463 9.38667 194.565 8.96533 194.703 8.528C194.842 8.08 194.997 7.664 195.167 7.28C195.349 6.88533 195.525 6.57067 195.695 6.336C195.877 6.09067 196.031 5.97333 196.159 5.984C196.341 6.00533 196.495 6.096 196.623 6.256C196.762 6.40533 196.869 6.57067 196.943 6.752C196.986 6.82667 197.002 6.89067 196.991 6.944C196.991 6.99733 196.949 7.06133 196.863 7.136C196.767 7.264 196.65 7.45067 196.511 7.696C196.383 7.93067 196.25 8.18667 196.111 8.464C195.983 8.74133 195.866 9.008 195.759 9.264C195.663 9.50933 195.594 9.712 195.551 9.872C195.509 10.032 195.509 10.112 195.551 10.112C195.701 10.112 195.839 10.0747 195.967 10C196.095 9.91467 196.255 9.78133 196.447 9.6C196.671 9.376 196.869 9.152 197.039 8.928C197.21 8.69333 197.386 8.42667 197.567 8.128C197.706 7.91467 197.85 7.68 197.999 7.424C198.159 7.168 198.261 6.98667 198.303 6.88C198.453 6.60267 198.565 6.39467 198.639 6.256C198.714 6.11733 198.805 6.032 198.911 6C198.965 6 199.039 6 199.135 6C199.231 6 199.279 6 199.279 6C199.343 6.01067 199.418 6.05867 199.503 6.144C199.589 6.18667 199.674 6.24533 199.759 6.32C199.855 6.39467 199.903 6.45867 199.903 6.512C199.861 6.61867 199.791 6.77867 199.695 6.992C199.61 7.19467 199.546 7.344 199.503 7.44C199.301 7.89867 199.103 8.352 198.911 8.8C198.73 9.23733 198.597 9.68533 198.511 10.144C198.49 10.2933 198.485 10.4693 198.495 10.672C198.517 10.864 198.549 11.0027 198.591 11.088C198.623 11.152 198.661 11.2267 198.703 11.312C198.757 11.3867 198.815 11.4507 198.879 11.504C198.975 11.568 198.97 11.648 198.863 11.744C198.767 11.84 198.645 11.9253 198.495 12C198.357 12.064 198.271 12.096 198.239 12.096ZM207.124 11.616C207.017 11.552 206.9 11.4613 206.772 11.344C206.644 11.216 206.58 11.0933 206.58 10.976C206.58 10.816 206.601 10.6187 206.644 10.384C206.687 10.1387 206.729 9.93067 206.772 9.76C206.793 9.568 206.82 9.376 206.852 9.184C206.895 8.98133 206.969 8.79467 207.076 8.624C207.193 8.21867 207.316 7.81867 207.444 7.424C207.572 7.01867 207.684 6.60267 207.78 6.176C207.919 5.78133 208.041 5.43467 208.148 5.136C208.265 4.82667 208.409 4.43733 208.58 3.968C208.676 3.70133 208.756 3.41867 208.82 3.12C208.895 2.81067 209.007 2.53333 209.156 2.288C209.22 2.192 209.268 2.112 209.3 2.048C209.343 1.97333 209.385 1.904 209.428 1.84C209.439 1.79733 209.492 1.76 209.588 1.728C209.695 1.696 209.801 1.68 209.908 1.68C210.025 1.66933 210.105 1.69067 210.148 1.744C210.18 1.73333 210.233 1.776 210.308 1.872C210.383 1.95733 210.452 2.05867 210.516 2.176C210.591 2.28267 210.623 2.368 210.612 2.432C210.612 2.47467 210.601 2.53333 210.58 2.608C210.569 2.68267 210.543 2.752 210.5 2.816C210.457 2.85867 210.415 2.92267 210.372 3.008C210.34 3.08267 210.287 3.18933 210.212 3.328C210.169 3.46667 210.132 3.61067 210.1 3.76C210.068 3.89867 210.025 4.02667 209.972 4.144C209.929 4.272 209.876 4.39467 209.812 4.512C209.759 4.62933 209.721 4.72533 209.7 4.8C209.625 5.04533 209.535 5.28533 209.428 5.52C209.332 5.75467 209.247 6.00533 209.172 6.272C209.097 6.528 209.023 6.79467 208.948 7.072C208.873 7.33867 208.767 7.59467 208.628 7.84C208.553 7.95733 208.5 8.10667 208.468 8.288C208.436 8.46933 208.404 8.65067 208.372 8.832C208.308 9.024 208.249 9.20533 208.196 9.376C208.153 9.536 208.132 9.63733 208.132 9.68C208.068 9.91467 208.02 10.1493 207.988 10.384C207.967 10.608 207.913 10.8053 207.828 10.976C207.817 11.0827 207.78 11.2 207.716 11.328C207.652 11.456 207.567 11.552 207.46 11.616C207.364 11.68 207.252 11.68 207.124 11.616ZM211.328 11.472C211.285 11.472 211.195 11.44 211.056 11.376C210.917 11.312 210.848 11.28 210.848 11.28C210.848 11.2373 210.832 11.184 210.8 11.12C210.779 11.056 210.768 11.0027 210.768 10.96C210.693 10.9173 210.619 10.848 210.544 10.752C210.469 10.656 210.453 10.5493 210.496 10.432C210.56 10.3147 210.645 10.1387 210.752 9.904C210.869 9.65867 210.992 9.38667 211.12 9.088C211.259 8.77867 211.387 8.48 211.504 8.192C211.621 7.904 211.723 7.65867 211.808 7.456C211.893 7.24267 211.941 7.11467 211.952 7.072C211.952 7.02933 211.957 6.95467 211.968 6.848C211.989 6.74133 212.059 6.65067 212.176 6.576C212.315 6.48 212.459 6.47467 212.608 6.56C212.757 6.64533 212.885 6.79467 212.992 7.008C213.099 7.21067 213.152 7.45067 213.152 7.728C213.152 7.80267 213.099 7.99467 212.992 8.304C212.885 8.60267 212.741 8.96 212.56 9.376C212.389 9.792 212.197 10.2133 211.984 10.64C211.824 10.9493 211.701 11.168 211.616 11.296C211.541 11.4133 211.445 11.472 211.328 11.472ZM213.504 5.344C213.376 5.344 213.221 5.28533 213.04 5.168C212.869 5.05067 212.715 4.90133 212.576 4.72C212.437 4.53867 212.368 4.34667 212.368 4.144C212.368 4.09067 212.416 3.99467 212.512 3.856C212.608 3.70667 212.699 3.56267 212.784 3.424C212.88 3.28533 212.928 3.20533 212.928 3.184C213.013 3.184 213.115 3.2 213.232 3.232C213.349 3.264 213.445 3.30133 213.52 3.344C213.637 3.61067 213.792 3.84 213.984 4.032C214.176 4.21333 214.272 4.42133 214.272 4.656C214.272 4.89067 214.213 5.06667 214.096 5.184C213.979 5.29067 213.781 5.344 213.504 5.344ZM218.532 12.128C218.49 12.0853 218.426 12.032 218.34 11.968C218.255 11.8933 218.191 11.8187 218.148 11.744C218.127 11.712 218.074 11.6533 217.988 11.568C217.903 11.472 217.818 11.3813 217.732 11.296C217.647 11.2 217.588 11.1413 217.556 11.12C217.535 11.0667 217.498 11.008 217.444 10.944C217.391 10.8693 217.332 10.7947 217.268 10.72C217.204 10.6347 217.13 10.5547 217.044 10.48C216.927 10.32 216.831 10.1973 216.756 10.112C216.692 10.0267 216.639 9.984 216.596 9.984C216.596 9.984 216.564 10.0853 216.5 10.288C216.436 10.48 216.367 10.704 216.292 10.96C216.218 11.2053 216.154 11.408 216.1 11.568C216.058 11.6427 216.015 11.7013 215.972 11.744C215.93 11.7867 215.887 11.8187 215.844 11.84C215.812 11.8613 215.775 11.8773 215.732 11.888C215.69 11.888 215.647 11.888 215.604 11.888C215.487 11.888 215.338 11.8347 215.156 11.728C214.975 11.6213 214.884 11.4667 214.884 11.264C214.842 11.1147 214.895 10.7893 215.044 10.288C215.194 9.78667 215.423 9.14667 215.732 8.368C215.775 8.208 215.828 8.04267 215.892 7.872C215.956 7.69067 216.01 7.54133 216.052 7.424C216.212 6.90133 216.388 6.42133 216.58 5.984C216.772 5.536 216.986 5.04 217.22 4.496C217.316 4.304 217.386 4.16533 217.428 4.08C217.471 3.984 217.519 3.888 217.572 3.792C217.626 3.68533 217.706 3.53067 217.812 3.328C218.047 2.89067 218.234 2.54933 218.372 2.304C218.511 2.05867 218.618 1.87733 218.692 1.76C218.767 1.64267 218.831 1.55733 218.884 1.504C218.938 1.45067 219.023 1.41333 219.14 1.392C219.258 1.37067 219.375 1.37067 219.492 1.392C219.62 1.40267 219.711 1.44 219.764 1.504C219.85 1.58933 219.914 1.67467 219.956 1.76C219.999 1.83467 219.999 1.94133 219.956 2.08C219.924 2.208 219.828 2.40533 219.668 2.672C219.583 2.864 219.514 3.00267 219.46 3.088C219.407 3.17333 219.354 3.25867 219.3 3.344C219.247 3.42933 219.162 3.57867 219.044 3.792C219.034 3.83467 219.012 3.88267 218.98 3.936C218.959 3.97867 218.932 4.02133 218.9 4.064C218.868 4.096 218.836 4.112 218.804 4.112C218.804 4.144 218.788 4.208 218.756 4.304C218.724 4.4 218.687 4.49067 218.644 4.576C218.612 4.69333 218.559 4.82133 218.484 4.96C218.42 5.088 218.372 5.19467 218.34 5.28C218.255 5.48267 218.138 5.728 217.988 6.016C217.85 6.29333 217.764 6.51733 217.732 6.688C217.732 6.70933 217.748 6.71467 217.78 6.704C217.812 6.68267 217.85 6.656 217.892 6.624C217.946 6.58133 217.994 6.54933 218.036 6.528C218.282 6.336 218.543 6.15467 218.82 5.984C219.108 5.81333 219.348 5.712 219.54 5.68C219.647 5.648 219.743 5.632 219.828 5.632C219.914 5.62133 219.994 5.62133 220.068 5.632C220.143 5.64267 220.218 5.664 220.292 5.696C220.41 5.77067 220.516 5.90933 220.612 6.112C220.708 6.31467 220.778 6.51733 220.82 6.72C220.82 6.816 220.772 6.992 220.676 7.248C220.591 7.49333 220.484 7.73867 220.356 7.984C220.239 8.21867 220.127 8.37867 220.02 8.464C219.967 8.48533 219.919 8.50667 219.876 8.528C219.844 8.54933 219.818 8.57067 219.796 8.592C219.786 8.60267 219.78 8.608 219.78 8.608C219.78 8.65067 219.759 8.704 219.716 8.768C219.684 8.832 219.626 8.88533 219.54 8.928C219.498 8.97067 219.45 9.024 219.396 9.088C219.343 9.152 219.316 9.2 219.316 9.232C219.316 9.232 219.316 9.248 219.316 9.28C219.316 9.30133 219.316 9.312 219.316 9.312C219.274 9.312 219.236 9.31733 219.204 9.328C219.183 9.328 219.114 9.37067 218.996 9.456C218.879 9.57333 218.794 9.63733 218.74 9.648C218.698 9.65867 218.634 9.68 218.548 9.712C218.506 9.75467 218.452 9.78133 218.388 9.792C218.335 9.80267 218.308 9.82933 218.308 9.872C218.308 9.91467 218.351 9.99467 218.436 10.112C218.522 10.2293 218.623 10.3573 218.74 10.496C218.868 10.6347 218.991 10.7627 219.108 10.88C219.226 10.9973 219.316 11.0773 219.38 11.12C219.455 11.152 219.508 11.2107 219.54 11.296C219.572 11.3813 219.588 11.472 219.588 11.568C219.599 11.664 219.594 11.7547 219.572 11.84C219.562 11.9253 219.546 11.9893 219.524 12.032C219.503 12.0533 219.428 12.08 219.3 12.112C219.183 12.1547 219.05 12.1813 218.9 12.192C218.762 12.2027 218.639 12.1813 218.532 12.128ZM217.604 9.072C217.658 9.02933 217.754 8.94933 217.892 8.832C218.042 8.71467 218.202 8.58667 218.372 8.448C218.543 8.29867 218.698 8.15467 218.836 8.016C218.986 7.87733 219.092 7.77067 219.156 7.696C219.231 7.62133 219.311 7.49867 219.396 7.328C219.482 7.15733 219.498 7.01867 219.444 6.912C219.434 6.86933 219.354 6.896 219.204 6.992C219.055 7.088 218.863 7.19467 218.628 7.312C218.447 7.41867 218.244 7.54133 218.02 7.68C217.807 7.808 217.604 7.952 217.412 8.112C217.22 8.26133 217.071 8.42667 216.964 8.608C216.943 8.68267 216.964 8.768 217.028 8.864C217.092 8.96 217.178 9.03467 217.284 9.088C217.391 9.13067 217.498 9.12533 217.604 9.072ZM225.605 11.68C225.285 11.8613 224.944 11.968 224.581 12C224.229 12.0213 223.898 11.9733 223.589 11.856C223.28 11.728 223.029 11.5413 222.837 11.296C222.73 11.1573 222.629 10.9387 222.533 10.64C222.437 10.3307 222.421 9.91467 222.485 9.392C222.549 8.90133 222.698 8.40533 222.933 7.904C223.178 7.40267 223.477 6.96 223.829 6.576C224.181 6.192 224.565 5.93067 224.981 5.792C225.13 5.73867 225.28 5.70133 225.429 5.68C225.589 5.648 225.797 5.64267 226.053 5.664C226.298 5.696 226.517 5.76 226.709 5.856C226.901 5.94133 227.04 6.03733 227.125 6.144C227.296 6.31467 227.408 6.48 227.461 6.64C227.514 6.8 227.536 6.95467 227.525 7.104C227.472 7.44533 227.317 7.81333 227.061 8.208C226.816 8.60267 226.469 8.896 226.021 9.088C225.84 9.16267 225.626 9.21067 225.381 9.232C225.136 9.25333 224.8 9.22133 224.373 9.136C224.117 9.08267 223.946 9.10933 223.861 9.216C223.786 9.32267 223.754 9.53067 223.765 9.84C223.786 10.032 223.829 10.2027 223.893 10.352C223.968 10.4907 224.101 10.5867 224.293 10.64C224.538 10.6827 224.714 10.688 224.821 10.656C224.928 10.6133 225.061 10.5547 225.221 10.48C225.306 10.4267 225.386 10.368 225.461 10.304C225.546 10.24 225.626 10.176 225.701 10.112C225.786 10.048 225.856 10 225.909 9.968C225.962 9.92533 226.016 9.89867 226.069 9.888C226.122 9.87733 226.176 9.872 226.229 9.872C226.346 9.88267 226.458 9.94667 226.565 10.064C226.672 10.1813 226.741 10.2933 226.773 10.4C226.773 10.4853 226.72 10.608 226.613 10.768C226.506 10.9173 226.362 11.0773 226.181 11.248C226.01 11.408 225.818 11.552 225.605 11.68ZM225.397 8.112C225.472 8.08 225.578 8.00533 225.717 7.888C225.866 7.77067 226 7.648 226.117 7.52C226.234 7.38133 226.293 7.27467 226.293 7.2C226.293 7.08267 226.213 6.98133 226.053 6.896C225.904 6.81067 225.706 6.79467 225.461 6.848C225.376 6.86933 225.274 6.928 225.157 7.024C225.04 7.12 224.922 7.232 224.805 7.36C224.688 7.47733 224.586 7.59467 224.501 7.712C224.416 7.81867 224.357 7.904 224.325 7.968C224.368 8.02133 224.453 8.064 224.581 8.096C224.709 8.128 224.848 8.144 224.997 8.144C225.157 8.144 225.29 8.13333 225.397 8.112ZM230.725 9.424C230.426 9.47733 230.191 9.35467 230.021 9.056C229.85 8.74667 229.861 8.208 230.053 7.44C230.117 7.312 230.17 7.18933 230.213 7.072C230.255 6.944 230.277 6.84267 230.277 6.768C230.319 6.62933 230.373 6.46933 230.437 6.288C230.511 6.096 230.586 5.92 230.661 5.76C230.735 5.58933 230.789 5.47733 230.821 5.424C230.863 5.424 230.906 5.38667 230.949 5.312C231.002 5.23733 231.029 5.16267 231.029 5.088C231.029 5.00267 231.045 4.90667 231.077 4.8C231.119 4.69333 231.162 4.61867 231.205 4.576C231.205 4.52267 231.226 4.464 231.269 4.4C231.311 4.336 231.333 4.28267 231.333 4.24C231.333 4.19733 231.343 4.16 231.365 4.128C231.397 4.096 231.413 4.05867 231.413 4.016C231.509 3.84533 231.631 3.59467 231.781 3.264C231.941 2.92267 232.095 2.56533 232.245 2.192C232.405 1.81867 232.538 1.488 232.645 1.2C232.751 0.912 232.805 0.736 232.805 0.672C232.826 0.586666 232.858 0.506666 232.901 0.431999C232.943 0.357333 233.007 0.330666 233.093 0.351999C233.135 0.32 233.199 0.304 233.285 0.304C233.37 0.293333 233.434 0.287999 233.477 0.287999C233.477 0.287999 233.525 0.309333 233.621 0.351999C233.717 0.394666 233.802 0.458666 233.877 0.544C233.962 0.618666 234.01 0.719999 234.021 0.848C234.031 0.975999 234.037 1.104 234.037 1.232C234.026 1.43467 233.951 1.664 233.813 1.92C233.674 2.176 233.519 2.45867 233.349 2.768C233.242 2.97067 233.135 3.16267 233.029 3.344C232.933 3.52533 232.885 3.63733 232.885 3.68C232.885 3.72267 232.863 3.78667 232.821 3.872C232.778 3.95733 232.73 4.064 232.677 4.192C232.613 4.29867 232.549 4.42667 232.485 4.576C232.431 4.72533 232.383 4.864 232.341 4.992C232.298 5.10933 232.277 5.184 232.277 5.216C232.266 5.25867 232.25 5.30133 232.229 5.344C232.218 5.38667 232.191 5.42933 232.149 5.472C232.106 5.472 232.079 5.504 232.069 5.568C232.069 5.62133 232.069 5.648 232.069 5.648C232.069 5.69067 232.042 5.792 231.989 5.952C231.946 6.10133 231.871 6.28267 231.765 6.496C231.562 7.06133 231.418 7.51467 231.333 7.856C231.247 8.18667 231.194 8.46933 231.173 8.704C231.151 8.96 231.093 9.136 230.997 9.232C230.901 9.31733 230.81 9.38133 230.725 9.424ZM229.877 11.904C229.653 11.9893 229.466 12.0267 229.317 12.016C229.167 12.016 229.002 11.9467 228.821 11.808C228.607 11.5947 228.533 11.3813 228.597 11.168C228.671 10.944 228.863 10.7307 229.173 10.528C229.386 10.3893 229.541 10.32 229.637 10.32C229.743 10.3093 229.898 10.3467 230.101 10.432C230.463 10.656 230.623 10.9067 230.581 11.184C230.538 11.4507 230.303 11.6907 229.877 11.904Z" fill="#B8C318"/>
</svg>
