<svg width="146" height="117" viewBox="0 0 146 117" fill="none" xmlns="http://www.w3.org/2000/svg">
<path d="M144.138 96.9456L122.853 88.472L104.824 81.3009C101.557 80.0603 96.7239 81.1518 96.7239 83.2237V93.1491L93.9946 92.901C93.0181 92.8142 92.0414 92.7149 91.0773 92.6033C90.5265 92.6033 89.9756 92.4793 89.4247 92.4173H89.337L88.5858 92.3179L87.1585 92.1195L84.354 91.6852C82.5011 91.3874 80.3476 91.0648 78.5447 90.7174C75.302 90.0847 72.1219 89.477 69.0044 88.745C60.3655 86.6234 54.7316 85.023 48.4339 81.9585C41.0471 78.2365 34.8372 74.6508 30.1672 69.9487C25.7499 65.5132 22.7084 59.9159 21.4031 53.82C20.7269 48.464 21.7323 43.0315 24.2826 38.262C26.9455 33.7855 30.3924 29.8154 34.4615 26.5377C37.8831 23.8783 41.527 21.5125 45.3539 19.466L46.894 18.6597C47.4749 18.4278 48.0359 18.1496 48.5716 17.8282L50.6875 16.8729C53.0413 15.8307 55.4828 14.8632 58.0244 13.9451C59.2764 13.4984 60.5284 13.0766 61.7804 12.7044L63.508 12.1462C60.0775 13.2504 63.1951 12.2577 64.0465 12.0096C66.7759 11.1825 69.5803 10.4587 72.46 9.83841C73.8372 9.51583 75.2395 9.2181 76.6418 8.93274L78.5823 8.54806C74.4882 9.3669 78.0314 8.65966 79.033 8.48597C82.0754 7.96489 85.1804 7.53087 88.323 7.15867C90.0132 6.96017 91.7284 6.78627 93.4436 6.63739H93.8444C94.846 6.63739 95.8351 6.50104 96.8367 6.45141C100.593 6.24049 104.349 6.12882 108.105 6.12882C110.682 6.14651 113.256 5.92634 115.792 5.47123C116.894 5.26032 119.423 4.7641 119.548 3.65991C119.723 0.918033 114.39 0 109.77 0C86.6954 0 61.4799 2.84093 42.6873 9.41647C25.2843 15.5081 13.8909 23.4361 6.57917 33.3614C-1.02053 43.6093 -2.1848 54.9864 3.86241 65.5197C9.67173 75.718 18.5234 84.9235 35.0875 92.5908C50.5748 99.7743 75.54 105.32 96.6739 106.238V114.526C96.6739 116.598 101.507 117.752 104.774 116.449L122.803 109.278L144.088 100.817C146.629 99.7993 146.629 97.9257 144.138 96.9456Z" fill="#E9E3D8"/>
</svg>
