<svg width="125" height="163" viewBox="0 0 125 163" fill="none" xmlns="http://www.w3.org/2000/svg">
<rect x="1.5" y="1.5" width="122.001" height="160" rx="8.5" fill="white"/>
<rect x="1.5" y="1.5" width="122.001" height="160" rx="8.5" stroke="#E9E3D8" stroke-width="3"/>
<path d="M25.2599 26.7844L23.682 27.2828C23.6388 26.9577 23.574 26.5677 23.4875 26.1777C19.3809 26.7844 18.6892 26.9577 18.257 27.1744C18.1489 26.7627 17.8463 25.8093 17.6302 25.2893C18.1057 25.1593 18.6028 24.6609 19.2728 23.8808C19.5538 23.5341 20.159 22.7757 20.829 21.779C18.9054 22.0173 18.4299 22.1473 18.1057 22.2557C17.9976 21.8873 17.7166 20.9772 17.5005 20.5005C17.8895 20.4139 18.2354 19.9588 18.6676 19.3304C19.0999 18.7021 20.4832 16.2969 21.2613 14L23.1201 14.7584C22.2555 16.6436 21.1748 18.6154 20.0725 20.1972L21.9529 20.0455C22.5365 19.1354 23.0985 18.1387 23.5307 17.1636L25.2599 18.2254C23.9846 20.5655 22.2988 22.9707 20.6129 24.9209L23.1633 24.5959C22.9904 23.9242 22.7959 23.2308 22.5797 22.6457L24.0711 22.2557C24.5898 23.7291 25.1086 25.636 25.2599 26.7844ZM18.5163 27.9762L20.0941 28.2579C19.8996 30.1863 19.5106 32.2665 19.0567 33.6316C18.7109 33.4366 17.9544 33.1983 17.5437 33.0683C18.0408 31.7248 18.3434 29.7746 18.5163 27.9762ZM20.6993 28.2145L22.1475 27.9545C22.4068 29.4063 22.623 31.2698 22.6662 32.5265L21.1316 32.8082C21.11 31.5515 20.9155 29.6446 20.6993 28.2145ZM22.7527 27.8028L24.0927 27.3694C24.5034 28.4095 24.914 29.7313 25.0869 30.6197L23.682 31.1181C23.5307 30.208 23.1417 28.8212 22.7527 27.8028ZM29.1936 25.5276L30.3607 25.9393C29.6475 29.2329 27.8967 31.6165 25.6921 32.8949C25.4328 32.5049 24.914 31.8332 24.5466 31.5081C26.038 30.6847 27.378 29.1246 28.1129 27.2394H25.7354V25.5926H28.891L29.1936 25.5276ZM28.3722 20.8689V22.429H34.5106V20.8689H28.3722ZM28.3722 17.8787V19.4171H34.5106V17.8787H28.3722ZM35.6561 24.5742L37.1475 25.8093C36.1748 26.6544 35.1158 27.5645 34.208 28.2362C35.0941 29.623 36.2397 30.7714 37.5581 31.4648C37.1258 31.8115 36.5423 32.5482 36.2397 33.0466C34.7699 32.0932 33.538 30.5547 32.6086 28.7346V31.8332C32.6086 32.7866 32.414 33.3283 31.7872 33.6316C31.1604 33.935 30.1878 33.9567 28.8261 33.9567C28.7613 33.4149 28.5019 32.6132 28.2642 32.1148C29.172 32.1582 30.0797 32.1582 30.3391 32.1365C30.6201 32.1148 30.6849 32.0498 30.6849 31.8115V24.0108H26.4918V16.3185H29.6907C29.9717 15.5818 30.231 14.6934 30.3823 14.0217L32.6518 14.4767C32.3492 15.1051 32.0466 15.7551 31.7224 16.3185H36.4774V24.0108H32.6086V24.7692C32.8463 25.506 33.1057 26.221 33.4515 26.8927C34.2512 26.156 35.0941 25.2459 35.6561 24.5742Z" fill="#B8C318"/>
<path d="M51.2829 30.8581H60.5769V32.8949H41.2325V30.8581H49.1215V14.3467H51.2829V20.7822H59.0855V22.7974H51.2829V30.8581Z" fill="#B8C318"/>
<path d="M75.2094 26.2644H80.6993V23.4041H75.2094V26.2644ZM67.7959 26.2644H73.1345V23.4041H67.7959V26.2644ZM73.1345 18.8321H67.7959V21.5406H73.1345V18.8321ZM80.6993 18.8321H75.2094V21.5406H80.6993V18.8321ZM75.2094 16.9036H82.7743V29.2763H80.6993V28.1928H75.2094V33.935H73.1345V28.1928H67.7959V29.3846H65.8074V16.9036H73.1345V14.065H75.2094V16.9036Z" fill="#B8C318"/>
<path d="M107.241 16.7952V18.442H100.908V16.7952H103.243C103.005 16.0802 102.659 15.2784 102.313 14.6284L103.977 14.13C104.41 14.9534 104.885 15.9935 105.188 16.7952H107.241ZM103.502 22.169L102.075 22.559C102.054 21.6273 101.794 20.1538 101.449 19.0271L102.789 18.6804C103.178 19.7855 103.48 21.2156 103.502 22.169ZM94.0567 16.8386V18.4854H87.8751V16.8386H90.1662C89.9284 16.1668 89.6042 15.3868 89.28 14.7801L90.9443 14.2817C91.3982 15.0618 91.8305 16.0802 92.0898 16.8386H94.0567ZM90.3607 22.169L88.9126 22.559C88.9126 21.649 88.6748 20.2189 88.3506 19.1138L89.6907 18.7671C90.0581 19.8288 90.3175 21.2373 90.3607 22.169ZM93.7757 28.1712H91.7656C91.6143 30.208 90.9659 32.4615 89.0639 34C88.8045 33.61 88.2642 33.0033 87.8751 32.6999C89.4313 31.5731 89.8636 29.7746 89.9717 28.1712H87.9832V26.5244H90.0149V24.2709H87.7238V22.6241H91.1172C91.4414 21.4973 91.8305 19.8288 91.9818 18.6587L93.538 18.9837C93.1921 20.1972 92.8247 21.5623 92.5005 22.6241H94.1431V24.2709H91.8088V26.5244H93.7757V28.1712ZM100.065 18.8537V19.6988C99.9357 28.9079 99.8276 31.8982 99.3305 32.7216C99.0063 33.2633 98.6604 33.4583 98.1201 33.545C97.6878 33.6316 97.061 33.61 96.391 33.5883C96.3694 33.1116 96.1965 32.3965 95.9587 31.9415C96.5423 31.9848 97.061 31.9848 97.342 31.9848C97.5797 31.9848 97.731 31.9198 97.8823 31.6381C98.2065 31.0748 98.3146 28.4095 98.4227 20.5872H97.1907C96.9529 26.156 96.2829 30.6414 94.1215 33.9783C93.9054 33.675 93.1705 33.0683 92.8247 32.7866C94.8132 29.948 95.4616 25.7226 95.6561 20.5872H94.489V18.8537H95.6993C95.721 17.3153 95.721 15.7118 95.721 14.065H97.2988C97.2988 15.7335 97.2771 17.3153 97.2339 18.8537H100.065ZM107.5 24.2925H105.101V26.8494H107.241V28.4962H105.101V33.8917H103.286V28.4962H101.211V26.8494H103.286V24.2925H100.822V22.6457H104.41C104.756 21.4973 105.145 19.7638 105.296 18.5937L106.83 18.9404C106.549 20.1538 106.182 21.5623 105.858 22.6457H107.5V24.2925Z" fill="#B8C318"/>
<path d="M80.3115 133.466H77.9704V131.282H73.1142V135.808C72.7468 135.845 72.4621 135.893 72.1947 135.898C70.7231 135.928 70.723 135.924 70.7209 137.349V140.579H68.571C68.5167 139.855 68.4602 139.12 68.4015 138.342L66.2103 138.236C66.156 137.46 66.1016 136.715 66.0451 135.954L63.8496 135.852V131.436H65.8212C65.8821 131.547 65.9254 131.666 65.9494 131.79C66.0973 133.629 66.0951 133.629 67.9232 133.629H70.8122C70.8122 132.108 70.8404 130.652 70.7687 129.195C70.7687 129.046 70.1318 128.776 69.8231 128.817C68.6515 128.974 68.395 128.426 68.4689 127.392C68.5428 126.394 68.4862 125.388 68.4862 124.31H70.61C70.7078 125.051 70.5709 125.96 70.9622 126.377C71.3121 126.751 72.2425 126.583 72.9533 126.657C73.0816 127.392 72.9816 128.357 73.4163 128.817C73.7489 129.169 74.7554 128.887 75.5597 128.887V121.933H77.8334V128.854H80.2985V121.911L82.5983 121.805V119.373H78.0334V117.132H80.2246V114.676H78.0182V112.347H80.3028V109.956H82.694V107.518L82.6592 107.555H87.4415V102.889L89.6457 102.785C89.7283 102.657 89.7935 102.598 89.8 102.535C90.0174 100.333 90.0174 100.333 87.824 100.333H85.1655V98.1603C86.2524 98.1603 87.3654 98.0951 88.4631 98.1777C89.5261 98.2581 90.05 97.9604 89.8565 96.8151C89.8383 96.4835 89.8521 96.1509 89.8978 95.822C91.5173 95.9589 92.965 95.8111 92.0716 93.4814H94.304V100.188C93.5671 100.318 92.5976 100.216 92.2151 100.642C91.8325 101.068 92.139 101.996 92.139 102.767L94.3127 102.887V105.08H89.7891V107.498H91.9629V109.826H87.4415V112.26H89.7044C89.7044 113.725 89.7304 115.085 89.6761 116.435C89.6761 116.617 89.2848 116.884 89.0392 116.934C88.5069 117.01 87.9703 117.051 87.4328 117.058V114.683H85.0416V117.043H87.4328C87.4002 118.193 87.2893 119.347 87.3589 120.49C87.4197 121.507 87.0697 121.876 86.0807 121.739C85.7367 121.723 85.3921 121.736 85.0503 121.778C84.9916 122.517 85.1851 123.458 84.8069 123.858C84.4286 124.258 83.4765 124.123 82.6831 124.236V126.501L84.8786 126.642V128.693C84.1504 128.772 83.2113 128.602 82.8157 128.991C82.4201 129.38 82.5831 130.319 82.4918 131.108C82.1484 131.13 81.8005 131.156 81.4506 131.175C81.1006 131.195 80.7419 131.212 80.2615 131.234V133.507L80.3115 133.466Z" fill="#594A39"/>
<path d="M75.4878 83.8652V86.2405H82.5938V90.8042C84.8067 91.3475 84.9697 91.2128 85.1414 88.7527H87.2261C87.275 88.8499 87.3115 88.9529 87.3348 89.0591C87.5239 90.9998 87.5217 90.9998 89.5346 90.9998H90.728C92.0888 90.9998 92.2214 91.1237 92.0323 92.4906C91.9846 92.6515 91.8986 92.7985 91.7816 92.9189C91.6646 93.0393 91.5201 93.1294 91.3606 93.1817C89.8237 93.399 89.8216 93.3707 89.7172 94.9441C89.6923 95.1415 89.6567 95.3373 89.6107 95.5309H87.6152C87.5522 95.4048 87.4978 95.344 87.4935 95.2788C87.3652 93.2143 87.3674 93.2143 85.2915 93.2143H82.6677V95.7069L84.898 95.8395V97.9583H80.27V102.65L77.9224 102.781V105.143H82.659L82.6199 105.104C82.6329 105.921 82.6438 106.738 82.6568 107.555L82.6916 107.518H77.892V109.867H75.4878L75.5225 109.911V107.494H73.1031L73.1466 107.527V105.119C71.6728 105.119 70.2403 105.095 68.7991 105.149C68.6339 105.149 68.3882 105.584 68.3513 105.83C68.3072 106.366 68.3 106.905 68.3296 107.442H66.0145C65.9775 108.259 65.9449 108.963 65.908 109.763H63.832V105.275L66.0493 105.16C66.0928 104.382 66.1341 103.676 66.1797 102.889L68.3535 102.785C68.4068 102.502 68.4452 102.217 68.4687 101.931C68.5252 100.447 68.5208 100.451 70.049 100.444C70.9881 100.444 71.9271 100.425 72.8749 100.41C72.9379 100.41 73.001 100.355 73.1466 100.29C73.1814 99.6621 73.2183 98.9862 73.2596 98.2387L75.5421 98.0887V95.859L77.9028 95.7091V93.4685L80.2722 93.3294V90.9042L77.9941 90.7738V88.5702H66.2058V86.3318L68.3991 86.2275L68.5578 83.9869H70.5685C70.7033 84.728 70.6294 85.6559 71.0554 86.1601C71.3402 86.497 72.338 86.2253 73.151 86.2253V83.8652L73.1097 83.8891H75.5247L75.4878 83.8652Z" fill="#594A39"/>
<path d="M87.5087 124.239V121.948C87.6551 121.905 87.8049 121.873 87.9565 121.855C89.8433 121.772 89.8433 121.774 89.8433 119.829V117.156H92.0497V121.585C92.2562 121.722 92.3127 121.787 92.3736 121.802C94.5909 122.02 94.5908 122.02 94.5908 119.847C94.5908 119.773 94.5908 119.701 94.5908 119.629C94.5735 118.836 94.8191 117.869 94.4495 117.306C94.1713 116.871 93.104 116.971 92.3019 116.815V114.746H96.8798V109.88H94.6669V105.295H96.7124C96.7624 106.006 96.8103 106.703 96.8668 107.527H101.466V109.867H99.234V114.703H101.473V116.961C100.199 116.961 98.9775 117 97.7602 116.945C96.982 116.911 96.7472 117.215 96.782 117.952C96.8277 118.962 96.8342 119.977 96.782 120.994C96.7298 122.011 97.4015 121.863 98.0058 121.846C98.6102 121.828 99.4101 122.104 99.3318 120.994C99.2992 120.535 99.3318 120.07 99.3318 119.538H103.864V124.252L103.895 124.223C101.543 123.871 101.543 123.871 101.543 126.197C101.543 126.268 101.543 126.342 101.543 126.414C101.564 127.17 101.325 128.131 101.69 128.622C102.021 129.056 103.038 128.967 103.84 129.126V131.108C103.365 131.153 102.887 131.173 102.41 131.169C101.758 131.138 101.495 131.41 101.54 132.064C101.58 132.675 101.54 133.292 101.54 133.905V135.819H97.1189C96.995 135.102 97.0994 134.131 96.6646 133.67C96.3299 133.314 95.3169 133.598 94.5082 133.598C94.4582 134.333 94.4104 135.039 94.3583 135.824H92.2671C92.5236 134.127 92.0823 132.94 89.8477 133.605C89.8477 132.338 89.8477 131.264 89.8477 130.191C89.8477 128.82 89.8477 128.82 88.413 128.789C88.163 128.789 87.9109 128.759 87.5674 128.737V126.751C88.3087 126.594 89.2325 126.646 89.726 126.21C90.0585 125.914 89.789 124.934 89.789 124.11L87.4805 124.215L87.5087 124.239ZM92.0736 124.189C92.0736 126.414 92.0541 128.572 92.1041 130.728C92.1041 130.945 92.5388 131.304 92.7736 131.31C94.7213 131.355 96.6704 131.355 98.621 131.31C98.8514 131.31 99.2731 130.997 99.2731 130.821C99.3188 128.631 99.3014 126.438 99.3014 124.186L92.0736 124.189Z" fill="#594A39"/>
<path d="M35.1326 48.3729H37.5585V53.0887L35.2782 52.9866C34.9152 55.5748 35.2782 55.9095 37.6541 55.288C37.6172 54.5665 37.5802 53.8189 37.5433 53.0735H39.9083V60.6536C39.9083 62.8159 40.0735 62.9419 42.3147 62.4421V53.1257C42.2333 53.081 42.1473 53.0453 42.0582 53.0192C40.0105 52.828 40.0148 52.8301 40.0061 50.7135C40.0061 49.9224 39.9627 49.1314 39.9409 48.3403L39.9083 48.3751H44.6471V50.6309H47.0774V46.0498H49.3968V50.6439L51.7879 50.77C51.7879 52.1391 51.8075 53.4973 51.764 54.8555C51.764 55.0316 51.4358 55.3162 51.2315 55.3445C50.6804 55.387 50.1271 55.3942 49.5751 55.3662C49.5359 54.5404 49.5033 53.845 49.4685 53.0627H44.745V55.4162L46.997 55.551V59.9734L44.708 60.1103V67.1427L44.7406 67.1079H42.4364C42.4016 66.3299 42.369 65.6236 42.3342 64.8456H39.9562V67.0884L37.5976 67.2101C37.5607 67.9533 37.5215 68.6856 37.4824 69.4767H32.9545C32.9545 68.1011 32.9305 66.7472 32.9849 65.3976C32.9849 65.2173 33.3892 64.9478 33.637 64.9065C34.1582 64.8605 34.6821 64.8533 35.2043 64.8848L35.3456 62.7355C36.1086 62.6181 36.8999 62.642 37.5194 62.3269C37.7607 62.2052 37.6933 61.312 37.6302 60.7861C37.4455 59.2214 36.0716 60.5688 35.3391 59.6713C35.3934 59.8299 35.3195 59.7039 35.3065 59.5692C35.2543 58.9998 35.4217 58.2479 35.1195 57.9089C34.8174 57.5698 34.0522 57.7546 33.5088 57.6242C33.2914 57.572 32.9871 57.2982 32.9827 57.1222C32.9479 55.0381 32.961 52.9518 32.961 50.7526H35.2847C35.2434 49.8681 35.2087 49.1031 35.1739 48.3403L35.1326 48.3729Z" fill="#594A39"/>
<path d="M51.8588 102.763H56.6672C56.6194 101.972 56.8302 101.025 56.4498 100.571C56.1238 100.175 55.1282 100.329 54.35 100.229V98.1626H57.7563C58.0802 98.1626 58.4084 98.1626 58.7323 98.1626C59.5235 98.1431 60.4887 98.38 61.0517 98.004C61.4865 97.7215 61.3995 96.6653 61.5625 95.8634H63.5189C63.5181 96.2421 63.5436 96.6204 63.595 96.9956C63.6733 97.3803 63.7819 98.0322 63.9754 98.0714C64.6121 98.1699 65.2613 98.1544 65.8927 98.0257C66.0122 98.004 66.11 97.4563 66.11 97.1565C66.1318 95.6026 66.1209 94.0488 66.1209 92.495C66.1209 90.9412 66.1209 90.9433 67.6839 91.0194C67.8578 91.0194 68.0295 91.0672 68.2382 91.0955C68.3208 91.8322 68.1556 92.7731 68.5447 93.1665C68.9338 93.5598 69.8772 93.4164 70.6445 93.5164V95.5222C70.338 95.5527 70.0294 95.6005 69.7185 95.6091C68.3382 95.6439 68.3382 95.6396 68.336 97.063V100.34C67.3187 100.34 66.3926 100.329 65.4666 100.34C63.3559 100.368 63.6102 100.032 63.5906 102.263C63.5906 103.159 63.5906 104.056 63.5906 105.108H60.2822C58.8366 105.108 58.8345 105.108 58.8627 106.514C58.8627 106.831 58.9127 107.149 58.9453 107.546H61.1191V109.85H58.8627V114.62H54.2022V116.939C54.3692 117 54.5418 117.044 54.7174 117.071C56.4868 117.169 56.489 117.167 56.4911 118.999C56.4911 120.228 56.4911 121.459 56.4911 122.693C56.4911 124.195 56.4911 124.197 54.9847 124.132C54.7673 124.132 54.5673 124.076 54.2413 124.026V119.351H49.5742V117.126L51.8958 117.017V107.496L51.8523 107.527H56.6477C56.6208 107.13 56.6208 106.732 56.6477 106.336C56.7955 105.325 56.3651 105.019 55.3869 105.086C54.2543 105.165 53.1153 105.104 51.8741 105.104V102.713L51.8588 102.763ZM58.9584 102.922C59.8105 102.807 60.7256 102.922 61.2538 102.522C61.5799 102.274 61.5864 100.903 61.2538 100.653C60.7321 100.251 59.8148 100.358 58.9518 100.232L58.9584 102.922Z" fill="#594A39"/>
<path d="M80.2979 67.1729H78.0046V62.6701L80.2349 62.5332V60.121H77.8872V62.3463H75.6309V57.8609H80.2675V55.516C80.2602 55.5274 80.2523 55.5383 80.2436 55.5486H85.0628V50.7133H88.3648C89.8668 50.7133 89.869 50.7133 89.8408 49.1703C89.8408 48.9226 89.8103 48.6748 89.7886 48.3228H85.0976L85.1302 48.351V46.0322H92.0623V48.3445C92.0623 49.5354 92.0145 50.735 92.0754 51.915C92.121 52.7843 91.7819 53.0451 90.9472 53.0016C89.8038 52.9429 88.6561 52.9864 87.3779 52.9864V57.5762L85.0433 57.7239C85.0085 58.4672 84.9759 59.1691 84.9389 59.9667L82.7043 60.1079V62.5375L84.9302 62.6549C84.9672 63.3851 84.9998 64.0544 85.0346 64.7868C85.7736 64.8585 86.7105 64.6825 87.1062 65.0649C87.5018 65.4474 87.3605 66.3928 87.4561 67.1077C87.4953 67.136 87.554 67.2164 87.6083 67.212C88.3365 67.1534 89.3734 67.3446 89.7103 66.9469C90.0973 66.4862 89.8669 65.5061 89.906 64.7498L89.8734 64.7759H94.3535V67.1186H92.1797C92.1058 67.9444 92.0406 68.6724 91.9624 69.5091H87.4301C87.3801 70.3479 87.3344 71.0803 87.2888 71.8627H85.1346C85.1019 71.1107 85.0693 70.4066 85.0346 69.5852H80.3914C80.3479 68.7007 80.311 67.9249 80.274 67.149L82.6108 67.2772V64.8542H80.2957L80.2979 67.1729Z" fill="#594A39"/>
<path d="M18.7445 83.9071V81.4949H14.0078V74.3581H18.7053L18.6705 74.3169L18.7053 76.7356H16.3142V79.0544H18.6858V76.703L21.0965 76.7334L21.0552 76.7008V79.0522H23.4137L23.5224 76.8334H25.5961C25.6461 77.531 25.6983 78.2633 25.7548 79.0674H30.511C30.5589 78.3372 30.6067 77.6005 30.661 76.7769H32.8609C32.9152 75.9598 32.9652 75.2274 33.0174 74.4364H35.0999C35.1412 75.16 35.1846 75.8946 35.2303 76.69H39.9908V74.3451H42.3102L42.2733 74.3125C42.2849 75.9163 42.2964 77.5208 42.308 79.1261L42.3515 79.0957H39.9343V83.8984L39.9626 83.8571H37.6019C37.5671 84.5851 37.5345 85.2914 37.5018 85.9868C35.5781 86.5345 35.4781 86.4432 35.1933 83.8245C33.4543 84.1396 32.45 83.5355 32.9608 81.5144H28.109L27.983 83.7224H23.5398C23.4941 82.9813 23.4528 82.2816 23.4072 81.5209H21.1421C21.0899 81.6122 21.0334 81.6687 21.0247 81.7383C20.9291 82.3902 21.0704 83.3116 20.6943 83.6485C20.3183 83.9853 19.39 83.8289 18.7205 83.8854L18.7445 83.9071ZM35.2455 79.1261V81.4579H37.5692V79.1261H35.2455Z" fill="#594A39"/>
<path d="M14.0312 46.0195H30.3345V62.3379H14.0312V46.0195ZM16.2811 60.1452C16.6767 60.1756 16.9593 60.2169 17.2397 60.2169C20.5221 60.2169 23.8067 60.1908 27.0869 60.2408C28.0303 60.2539 28.2303 59.8888 28.2194 59.0369C28.1825 55.8271 28.2064 52.6173 28.202 49.4075C28.202 49.0576 28.1672 48.7056 28.1433 48.3035H16.2811V60.1452Z" fill="#594A39"/>
<path d="M14.0156 126.623H30.3058V142.972H14.0156V126.623ZM28.132 140.727C28.1625 140.31 28.2016 140.027 28.2016 139.745C28.2016 136.463 28.1733 133.182 28.2233 129.9C28.2386 128.955 27.8668 128.761 27.0169 128.77C23.8062 128.809 20.5956 128.783 17.385 128.79C17.035 128.79 16.685 128.827 16.2981 128.851V140.727H28.132Z" fill="#594A39"/>
<path d="M94.6875 46.0244H110.991V62.3385H94.6875V46.0244ZM96.8613 48.2715C96.8308 48.6866 96.7917 48.9691 96.7917 49.2516C96.7917 52.5331 96.82 55.8146 96.77 59.0961C96.7547 60.0371 97.1178 60.2392 97.9721 60.2283C101.183 60.1892 104.393 60.2153 107.604 60.2109C107.954 60.2109 108.304 60.1718 108.691 60.1501V48.2671L96.8613 48.2715Z" fill="#594A39"/>
<path d="M70.674 64.7588V69.5637H73.0348C73.1869 68.7966 73.1478 67.9164 73.5543 67.3731C73.7847 67.0667 74.7542 67.3188 75.4324 67.3188V71.9172C74.3042 71.9172 73.1608 71.9846 72.0305 71.8977C70.9958 71.8173 70.5545 72.1432 70.711 73.2016C70.7271 73.5557 70.7118 73.9106 70.6654 74.2621H68.3959V76.6135H63.6376V81.3945H59.0727C58.8966 82.2268 58.9075 83.0765 58.5162 83.6546C58.3249 83.9349 57.3815 83.7024 56.7076 83.7024C56.6728 82.957 56.6402 82.2833 56.6011 81.4901L54.3143 81.3749V76.6809L54.2773 76.7156H56.4185C56.4794 77.5479 56.5337 78.2803 56.5902 79.0648H61.3116V76.6743H59.0944V74.4251L61.3312 74.3208C61.3682 73.5906 61.4029 72.9169 61.4355 72.2476C61.5529 72.1802 61.6377 72.0911 61.7312 72.0824C62.3377 72.0259 63.1354 72.2019 63.4941 71.8825C63.8528 71.563 63.6223 70.7372 63.8071 70.183C63.8897 69.9396 64.3506 69.6919 64.6505 69.6767C65.8678 69.6202 67.0895 69.6528 68.4785 69.6528C68.4785 68.4467 68.5481 67.3362 68.4568 66.2409C68.3655 65.1456 68.7568 64.7066 69.8524 64.8718C70.1379 64.8789 70.4232 64.852 70.7023 64.7914L70.674 64.7588Z" fill="#594A39"/>
<path d="M35.1788 105.104V100.505C35.0853 100.447 35.0288 100.384 34.9614 100.377C32.7724 100.184 32.7724 100.184 32.7724 102.372V105.104C30.9203 105.104 29.164 105.104 27.4076 105.104C25.5316 105.115 25.6685 104.886 25.6555 106.727C25.641 106.951 25.612 107.174 25.5685 107.394C25.385 107.426 25.2 107.449 25.0142 107.462C23.7535 107.462 22.4948 107.462 21.1602 107.462V105.302C21.8558 105.243 22.7948 105.43 23.1991 105.049C23.6035 104.669 23.4622 103.722 23.5817 102.876H30.4791V100.394L28.2792 100.281V98.1626H33.2419C33.6028 98.1626 33.9658 98.1366 34.3288 98.1626C35.0114 98.2191 35.3418 97.9801 35.2853 97.2477C35.2734 96.8066 35.2909 96.3652 35.3374 95.9264C35.4069 95.8892 35.4796 95.8587 35.5548 95.8352C37.6482 95.5809 37.6482 95.5809 37.6503 93.4273V93.3208C37.6503 91.0194 37.6503 91.0194 35.3874 90.7282V88.7158H39.8502C39.8915 89.4069 39.9328 90.1088 39.9806 90.9173L42.2457 91.0802V93.1469L39.9676 93.2838V100.268L37.6003 100.381V105.062H35.1549L35.1788 105.104Z" fill="#594A39"/>
<path d="M108.676 86.2538C107.487 86.2256 106.295 86.1343 105.111 86.1865C104.241 86.2234 103.924 85.917 104.024 85.0738C104.046 84.6865 104.046 84.2984 104.024 83.9111C103.202 83.7981 102.285 83.9307 101.874 83.5374C101.498 83.1896 101.657 82.2617 101.576 81.5011L99.4023 81.3924V74.4035H106.206C106.271 74.2995 106.323 74.1887 106.363 74.0732C106.565 72.0391 106.565 72.0391 108.695 72.0391H110.997V74.2731H108.75V76.7353H110.993V81.3902L108.641 81.5141V86.2951L108.676 86.2538ZM104 76.7353V79.0736H106.332V76.7353H104Z" fill="#594A39"/>
<path d="M18.7064 74.3576C18.7064 73.132 18.6564 71.9019 18.7281 70.6784C18.7803 69.7809 18.4912 69.4115 17.5804 69.531C17.1518 69.5576 16.722 69.5576 16.2935 69.531L16.1913 71.8215H14.0176V64.8674H16.5652C18.4064 64.8674 20.2498 64.913 22.0888 64.8478C23.0213 64.813 23.4474 65.0651 23.3213 66.0474C23.3059 66.4307 23.3233 66.8145 23.3734 67.1948L25.6081 67.31C25.6516 68.1032 25.6928 68.8095 25.7385 69.6266H32.6945V74.1903H30.6903C30.6488 74.0521 30.6168 73.9113 30.5947 73.7687C30.4469 71.9085 30.4469 71.9085 28.5318 71.9085H23.3147V76.6895H21.0388L21.0801 76.7221V74.3163H18.6629L18.7064 74.3576Z" fill="#594A39"/>
<path d="M49.5187 67.1737V62.6666L51.8164 62.534C51.8164 61.7386 52.1011 60.765 51.7381 60.3326C51.3751 59.9001 50.3665 60.0305 49.5796 59.8979V57.866C51.2077 58.0485 52.5207 57.7856 51.7816 55.4755C53.1772 55.4755 54.3901 55.432 55.6031 55.4885C56.3943 55.5255 56.7095 55.2908 56.6661 54.4606C56.6052 53.2741 56.6509 52.0832 56.6509 50.7988H61.1462V52.9155L58.8637 53.0372V57.5118C58.8637 58.8157 58.9072 60.1196 58.8507 61.4105C58.8137 62.2797 59.0507 62.7144 59.9897 62.5948C60.372 62.5717 60.7552 62.5717 61.1375 62.5948V64.7376H56.5291V69.4556H54.2793C54.2793 68.2755 54.2054 67.1238 54.2988 65.9785C54.3858 64.931 53.9662 64.6224 53.0119 64.7528C52.662 64.7984 52.3033 64.7898 51.8512 64.8115C51.8186 65.5678 51.786 66.2719 51.749 67.1194H49.4883L49.5187 67.1737ZM54.2249 62.5405C54.6336 62.5644 54.9879 62.5601 55.3335 62.6101C56.3574 62.7578 56.7943 62.3688 56.6639 61.3061C56.6243 60.7274 56.6199 60.1468 56.6509 59.5676C56.6509 57.4879 56.6508 57.4857 54.5532 57.69C54.4375 57.7209 54.3269 57.7685 54.2249 57.8312V62.5405Z" fill="#594A39"/>
<path d="M18.7066 83.8701C18.6696 85.0197 18.5523 86.1737 18.6218 87.3168C18.6849 88.3447 18.311 88.6902 17.3349 88.562C16.991 88.5461 16.6463 88.5592 16.3046 88.6011V95.7987C17.0893 95.74 18.0436 95.9378 18.4783 95.5531C18.8718 95.225 18.7088 94.2318 18.7957 93.493C18.9306 93.4549 19.0678 93.4258 19.2066 93.406C21.0717 93.2691 21.0717 93.2713 21.0717 91.3458V83.957H23.2128L23.3802 86.228L25.6844 86.341C25.6083 87.0777 25.7735 87.9861 25.3996 88.3751C25.0257 88.7641 24.1236 88.5751 23.4715 88.6381C23.4193 88.7337 23.3606 88.7924 23.3519 88.8554C23.0563 90.9047 23.1346 91.0068 25.1692 91.009C25.9648 91.009 26.7582 91.009 27.5603 91.0307C27.6913 91.0527 27.8195 91.0884 27.9429 91.1372V93.2257C26.7039 93.2257 25.4561 93.2474 24.2106 93.2257C23.5802 93.2104 23.3128 93.4082 23.2911 94.0819C23.2432 95.5597 23.2085 95.5575 21.6846 95.627C21.5086 95.627 21.3347 95.664 21.0325 95.6987L20.8782 97.9523H14.0156V86.3519L16.2785 86.2085V83.9071H18.7305L18.7066 83.8701Z" fill="#594A39"/>
<path d="M37.5668 112.269V109.915H35.393C35.3191 109.046 35.2517 108.29 35.1756 107.525L35.1387 107.564H40.0101C40.0101 105.845 40.0101 104.239 40.0101 102.631C40.0101 100.458 40.0101 100.458 42.2491 100.442C43.0751 100.442 43.9011 100.401 44.7293 100.379L44.6967 100.336V105.134H47.1574V102.905L49.5007 102.753L49.4703 102.722V105.134C51.681 105.363 51.681 105.363 51.831 107.423C51.8366 107.458 51.8454 107.493 51.8571 107.527L51.9006 107.497H49.479C49.4421 108.288 49.4073 109.018 49.366 109.87H47.0835L47.114 109.911V107.564H42.3099V112.297L42.3404 112.254L37.5298 112.23L37.5668 112.269Z" fill="#594A39"/>
<path d="M37.5451 135.929C37.5864 135.756 37.6161 135.58 37.6342 135.403C37.7016 133.625 37.6994 133.625 39.5384 133.625H42.3361V131.452H44.6337V133.567L46.9814 133.695C47.0292 134.464 47.0705 135.17 47.1118 135.868L47.1379 135.838H42.3382V140.66H37.5907C37.5538 141.481 37.5212 142.181 37.4842 142.959H32.9323V138.395C32.9323 137.239 32.9976 136.079 32.9128 134.918C32.8324 133.864 33.2106 133.451 34.2453 133.614C34.4909 133.654 34.7409 133.658 35.0931 133.686C35.13 134.412 35.1648 135.114 35.2039 135.903H37.5603V138.293H39.9384V135.903L37.5451 135.929Z" fill="#594A39"/>
<path d="M80.2804 133.501L82.5606 133.718C82.5976 134.47 82.6302 135.177 82.6672 135.939H85.0583V129.035H87.3016V140.588C88.1711 140.757 89.0406 140.714 89.5884 141.12C89.8949 141.338 89.6428 142.322 89.6428 142.991H85.1192V138.375H82.6672C82.6367 139.056 82.602 139.76 82.5628 140.612H80.2478L80.2782 140.646V138.289H73.3569C73.2943 138.156 73.2462 138.018 73.2135 137.876C73.1091 136.007 73.1113 136.007 75.0003 136.007H80.3043V133.462L80.2804 133.501Z" fill="#594A39"/>
<path d="M37.5283 112.23V114.595H35.2263C35.1785 115.397 35.1372 116.101 35.0916 116.898L32.8243 117.018V121.643H30.694C30.6469 121.496 30.6106 121.347 30.5854 121.195C30.4375 119.345 30.4397 119.345 28.629 119.345H23.5293V112.376H25.6009C25.6487 113.13 25.6922 113.865 25.7422 114.684H27.8573C28.0138 115.51 27.9812 116.37 28.3681 116.953C28.5616 117.244 29.8506 117.281 30.0571 117.001C30.4919 116.416 30.5267 115.545 30.7658 114.643H28.3051V112.27H37.5697L37.5283 112.23Z" fill="#594A39"/>
<path d="M97.0887 95.5158C96.9822 94.7617 97.1083 93.8576 96.717 93.4317C96.3692 93.0557 95.4432 93.2144 94.6824 93.1188V88.7181C95.049 88.6696 95.4194 88.655 95.7888 88.6746C96.7887 88.8159 97.03 88.3595 96.9778 87.4446C96.9104 86.2667 96.9626 85.0845 96.9626 83.8436H94.4889C94.4476 84.6064 94.4085 85.3127 94.365 86.0907H92.3086V81.5879L94.5084 81.4792C94.5584 80.7316 94.6085 79.9971 94.6606 79.2061H96.7257C96.767 79.9406 96.8105 80.6751 96.8583 81.4901H99.1364C98.869 83.3025 99.3342 84.4673 101.478 83.8328V86.1103L99.1994 86.2211V95.5158H97.0887Z" fill="#594A39"/>
<path d="M44.7288 100.379V93.4861H47.0308V95.6941H49.4871V93.4688H54.0759V97.9281L51.8587 98.0498V102.759L51.887 102.718H49.4698L49.5002 102.748C49.5002 101.418 49.5393 100.086 49.5002 98.7583C49.5002 98.4997 49.2045 98.0715 48.9937 98.0368C48.385 97.939 47.7503 98.002 47.0373 98.002V100.336H44.707L44.7288 100.379Z" fill="#594A39"/>
<path d="M75.4932 109.868V112.222H73.1542V114.595H68.4045C68.3654 115.416 68.3328 116.09 68.2958 116.861H63.8418V114.74H66.0286C66.0916 113.923 66.1482 113.191 66.2134 112.35H68.4284C68.4697 111.518 68.5023 110.805 68.5393 110.012L70.7805 109.894C70.8152 109.131 70.8478 108.425 70.887 107.538H73.152L73.1086 107.506V109.922H75.528L75.4932 109.868Z" fill="#594A39"/>
<path d="M92.0036 81.388H87.5234V79.2017L89.8189 79.0866V74.4099H92.1405C92.1905 73.6015 92.234 72.8995 92.2818 72.1172H96.7446V74.2339L94.4708 74.336V79.0062L92.1318 79.1083C92.0818 79.8841 92.0449 80.5926 92.0036 81.388Z" fill="#594A39"/>
<path d="M73.0498 57.611L70.7891 57.7262C70.75 58.4912 70.7174 59.1931 70.6804 59.945C69.9305 60.0276 68.9958 59.8646 68.5958 60.2515C68.1958 60.6383 68.3393 61.5771 68.2241 62.4246C67.7893 62.4246 67.335 62.4029 66.8829 62.4246C66.3025 62.4572 66.1612 62.1682 66.1308 61.6423C66.0438 60.1015 66.0242 60.1037 64.4656 60.0298C64.2917 60.0298 64.1178 59.9863 63.8613 59.9537V57.874C65.5612 58.1283 66.6698 57.6263 66.0981 55.4987H70.7696L70.9043 53.1582H73.0498V57.611Z" fill="#594A39"/>
<path d="M51.8987 133.533C51.9639 133.564 52.0325 133.586 52.103 133.601C54.1616 133.768 54.1616 133.768 54.1594 135.895V142.963H49.5945V140.844L51.8291 140.711V138.236H47.0664L47.0968 138.271C47.1099 137.462 47.1237 136.652 47.1382 135.841L47.1121 135.871H51.9335V133.505L51.8987 133.533Z" fill="#594A39"/>
<path d="M44.7048 67.1429L49.5197 67.1668L49.4849 67.1321C49.4479 67.8818 49.411 68.6316 49.3675 69.4878L47.1133 69.5878C47.0764 70.3158 47.0416 71.0199 47.0003 71.8674L44.7113 71.9761V74.3036H42.2615L42.2984 74.3362C42.331 73.5886 42.3636 72.841 42.4028 71.9631H37.8378C37.7628 71.833 37.7037 71.6943 37.6618 71.5502C37.5118 69.653 37.514 69.653 39.4204 69.653H44.7308V67.1104L44.7048 67.1429Z" fill="#594A39"/>
<path d="M94.5918 69.4769C94.5918 68.9684 94.5918 68.5751 94.5918 68.173C94.5918 67.9231 94.6309 67.6754 94.6635 67.282H99.2545C99.3024 66.4345 99.3415 65.726 99.385 64.9502H106.206V67.1234C104.415 66.7865 103.361 67.3537 103.967 69.4682L94.5918 69.4769Z" fill="#594A39"/>
<path d="M65.9065 121.894V126.321H61.4677C61.4221 125.617 61.3764 124.921 61.3264 124.169L59.0918 124.059V121.99C59.1716 121.941 59.257 121.903 59.3461 121.875C61.3981 121.69 61.3982 121.69 61.3982 119.562V117.144H63.5958C63.5958 118.171 63.5958 119.202 63.5958 120.229C63.5958 122.185 63.5958 121.818 65.2349 121.846C65.4131 121.851 65.5913 121.87 65.9065 121.894Z" fill="#594A39"/>
<path d="M73.1528 79.1255L73.255 76.7915H75.544V74.3641H77.9004L77.8612 74.3271V81.4747H80.1719V83.8652H75.4875L75.5266 83.8891V79.0864H73.1094L73.1528 79.1255Z" fill="#594A39"/>
<path d="M108.683 107.495H106.333V109.768H104.051C104.051 108.423 104.031 107.036 104.077 105.654C104.077 105.502 104.458 105.265 104.681 105.239C105.219 105.201 105.758 105.194 106.297 105.22C106.383 104.394 106.214 103.455 106.601 103.06C106.988 102.664 107.927 102.816 108.714 102.716C108.746 102.025 108.779 101.321 108.816 100.543H110.99V105.052L108.638 105.161V107.53L108.683 107.495Z" fill="#594A39"/>
<path d="M108.7 138.264V135.935H104.135V131.419H106.235C106.267 132.117 106.302 132.784 106.339 133.536H108.711V131.447H110.976V138.236H108.665L108.7 138.264Z" fill="#594A39"/>
<path d="M61.1333 95.5569H59.1378C59.0829 95.3429 59.0451 95.1249 59.0247 94.905C59.003 93.1664 59.3312 93.2142 57.2162 93.2164H54.3555V91.078C54.812 91.0563 55.2989 90.9954 55.7836 91.0171C56.4357 91.0476 56.6814 90.789 56.6531 90.1305C56.6183 88.9092 56.6531 87.6856 56.6531 86.373H58.866C58.866 87.4966 58.9334 88.6071 58.8486 89.7045C58.766 90.7629 59.153 91.1627 60.1898 91.0193C60.506 91.0079 60.8225 91.0253 61.1354 91.0715L61.1333 95.5569Z" fill="#594A39"/>
<path d="M44.6955 86.2492C43.5108 86.2209 42.3239 86.1318 41.1414 86.1862C40.2392 86.2274 39.8914 85.9297 40.0001 85.03C40.0159 84.6353 39.9991 84.2399 39.9501 83.8478L39.9219 83.8891H42.3391V79.0864L42.2956 79.1168H47.0779L47.041 79.082V81.4073H44.6498V86.297L44.6955 86.2492Z" fill="#594A39"/>
<path d="M16.3536 117.08V114.648L16.3166 114.683H18.6665V112.336H21.0967L21.0598 112.297C21.0293 114.905 20.9881 117.493 20.9707 120.09C20.9554 122.011 21.0293 121.715 19.3468 121.735C19.133 121.75 18.9204 121.779 18.7099 121.82L18.7447 121.852V117.045H16.3145L16.3536 117.08Z" fill="#594A39"/>
<path d="M16.1713 109.8H14.0215V100.586C14.1386 100.529 14.2629 100.487 14.391 100.462C16.2279 100.325 16.2279 100.327 16.2279 102.175V105.076C17.0604 105.202 17.9343 105.111 18.456 105.493C18.782 105.732 18.5733 106.693 18.6125 107.449H16.2909L16.1713 109.8Z" fill="#594A39"/>
<path d="M108.667 138.236V142.956H99.4004V140.805H106.159C106.278 140.627 106.339 140.572 106.35 140.509C106.463 139.827 106.35 138.919 106.739 138.528C107.128 138.136 108.024 138.336 108.695 138.271L108.667 138.236Z" fill="#594A39"/>
<path d="M73.1127 50.6744C71.9584 50.6505 70.8041 50.57 69.6542 50.62C68.7673 50.6591 68.3717 50.3853 68.476 49.4682C68.4887 49.0591 68.4727 48.6495 68.4282 48.2426H63.8438V46.0303H70.6368C70.6955 46.7344 70.5042 47.6754 70.8846 48.0731C71.265 48.4707 72.2127 48.3338 73.0757 48.4555V50.7113L73.1127 50.6744Z" fill="#594A39"/>
<path d="M42.298 121.89H47.0454V124.235L47.0846 124.198L44.6934 124.092V128.714H40.0938V126.639L42.3284 126.502V121.855L42.298 121.89Z" fill="#594A39"/>
<path d="M103.857 124.245H106.329C106.375 123.404 106.414 122.669 106.455 121.902H108.67C108.67 123.03 108.755 124.112 108.646 125.175C108.527 126.362 109.001 126.727 110.098 126.581C110.397 126.573 110.696 126.596 110.99 126.651V128.772C109.62 128.772 108.261 128.796 106.905 128.741C106.729 128.741 106.449 128.341 106.42 128.102C106.22 126.475 106.238 126.475 104.631 126.39C104.49 126.39 104.351 126.346 104.142 126.314C104.057 125.612 103.975 124.914 103.89 124.217L103.857 124.245Z" fill="#594A39"/>
<path d="M37.4754 124.357V131.093H35.2864V126.608C35.1479 126.536 35.0022 126.478 34.8516 126.436C32.93 126.199 32.9257 126.202 32.93 124.2C32.93 123.551 32.9409 122.899 32.9626 122.244C32.9897 122.123 33.0337 122.006 33.0931 121.896H35.0668C35.1255 122.616 34.9342 123.552 35.3103 123.957C35.6864 124.361 36.6406 124.235 37.4754 124.357Z" fill="#594A39"/>
<path d="M108.633 98.1633V100.337H105.944C103.912 100.337 103.912 100.337 103.912 102.416V105.046H101.683C101.683 104.033 101.662 103.04 101.683 102.049C101.718 100.799 101.794 99.552 101.855 98.3046C103.107 98.259 104.359 98.1981 105.614 98.1699C106.588 98.1459 107.555 98.1633 108.633 98.1633Z" fill="#594A39"/>
<path d="M54.2246 74.3301C54.242 75.132 54.2573 75.9361 54.2746 76.738L54.3116 76.7032H49.4685V79.0937H47.0469L47.0838 79.1285V74.367H54.2573L54.2246 74.3301Z" fill="#594A39"/>
<path d="M42.3314 121.855C40.5685 121.814 38.8077 121.755 37.0448 121.736C35.0884 121.716 35.0428 121.686 35.4079 119.521L36.4188 119.458L37.5774 119.404C37.6165 118.65 37.6535 117.946 37.6948 117.159H39.8468C39.8859 117.852 39.9294 118.585 39.975 119.4L42.2988 119.513V121.89L42.3314 121.855Z" fill="#594A39"/>
<path d="M77.8824 53.0697C76.6977 53.0437 75.5108 52.9524 74.3304 53.0089C73.4218 53.0502 73.0892 52.7416 73.1914 51.8484C73.2019 51.4557 73.1758 51.0628 73.1131 50.6749L73.0762 50.7118H75.5499V46.0352H77.8454V53.1067L77.8824 53.0697Z" fill="#594A39"/>
<path d="M49.4512 86.3369L51.8423 86.2239C51.8771 85.472 51.9119 84.7396 51.951 83.9551H54.1617C54.1617 85.3133 54.1922 86.639 54.1291 87.9603C54.1291 88.1776 53.7118 88.4731 53.4487 88.5231C52.9662 88.6166 52.4553 88.5492 51.8358 88.5492V90.7354H49.4838V86.2978L49.4512 86.3369Z" fill="#594A39"/>
<path d="M47.045 124.234H49.3557V131.08H44.8125V129.026L47.0841 128.887V124.197L47.045 124.234Z" fill="#594A39"/>
<path d="M61.1646 143H59.1191V138.502H65.8969V140.675C64.7687 140.675 63.658 140.74 62.5602 140.658C61.5429 140.582 61.069 140.886 61.219 141.962C61.2324 142.309 61.2142 142.657 61.1646 143Z" fill="#594A39"/>
<path d="M25.6621 100.28L23.3862 100.388C23.3383 101.153 23.297 101.86 23.2492 102.642H18.7734V100.506L21.0341 100.393L21.1363 98.1827C22.5058 98.1827 23.8579 98.1609 25.2078 98.2087C25.3665 98.2087 25.6099 98.5717 25.6425 98.7912C25.6836 99.2863 25.6901 99.7837 25.6621 100.28Z" fill="#594A39"/>
<path d="M106.134 91.0064C106.288 91.9235 106.18 92.8363 106.582 93.2405C106.945 93.6034 107.866 93.41 108.601 93.4578V95.5832C107.247 95.5832 105.891 95.6201 104.538 95.5375C104.349 95.5267 104.028 94.9008 104.058 94.5878C104.162 93.5013 103.808 93.0145 102.684 93.2079C101.7 93.3752 101.699 92.7428 101.669 92.0278C101.632 91.2129 101.928 90.9412 102.73 90.9825C103.873 91.0499 105.021 91.0064 106.134 91.0064Z" fill="#594A39"/>
<path d="M58.7582 135.845H56.7344V129.069H58.7495C58.8386 129.78 58.6973 130.68 59.0821 131.116C59.419 131.499 60.3472 131.362 61.121 131.471V133.427C60.4037 133.516 59.4603 133.361 59.0777 133.753C58.6951 134.144 58.8473 135.072 58.7582 135.845Z" fill="#594A39"/>
<path d="M108.639 86.2975H110.971V93.1647H108.678C108.678 90.8416 108.678 88.5511 108.678 86.2627L108.639 86.2975Z" fill="#594A39"/>
<path d="M63.8799 81.5684H65.8863V86.0799H61.4648V84.0023C62.2191 83.9132 63.1604 84.074 63.5473 83.685C63.9343 83.296 63.7843 82.3464 63.8799 81.5684Z" fill="#594A39"/>
<path d="M96.853 140.731C96.8139 141.512 96.7791 142.187 96.74 142.948H94.6641V138.476H99.0703V140.603L96.853 140.731Z" fill="#594A39"/>
<path d="M103.902 114.719H106.217V119.215C106.058 119.272 105.892 119.313 105.724 119.337C104.028 119.43 104.039 119.428 104.024 117.692C104.024 116.687 103.968 115.683 103.939 114.682L103.902 114.719Z" fill="#594A39"/>
<path d="M70.7148 79.1521L73.1516 79.1195L73.1082 79.0869C73.1082 80.6878 73.1082 82.2887 73.1082 83.8896L73.1494 83.8657C73.1161 83.8506 73.0811 83.8397 73.0451 83.8331C70.83 83.6158 70.8366 83.6158 70.8279 81.3666C70.8279 80.6168 70.7779 79.8649 70.7496 79.1152L70.7148 79.1521Z" fill="#594A39"/>
<path d="M70.7095 64.7833C70.779 63.2903 70.8486 61.7995 70.9268 60.2783H73.0506V64.7507H70.6855L70.7095 64.7833Z" fill="#594A39"/>
<path d="M30.3485 74.458V76.6094H25.9336V74.458H30.3485Z" fill="#594A39"/>
<path d="M30.3377 121.925V124.048H25.9141V121.925H30.3377Z" fill="#594A39"/>
<path d="M61.4707 67.0648V64.959H65.8769V67.0648H61.4707Z" fill="#594A39"/>
<path d="M32.7141 93.4814V95.5177H28.3145V93.4814H32.7141Z" fill="#594A39"/>
<path d="M65.9178 88.7402V90.7309H61.4746V88.7402H65.9178Z" fill="#594A39"/>
<path d="M82.6633 48.2952L80.3809 48.143V46.0264H82.6155V48.3321L82.6633 48.2952Z" fill="#594A39"/>
<path d="M44.6895 114.723H46.9893V116.896H44.7242V114.684L44.6895 114.723Z" fill="#594A39"/>
<path d="M44.6856 112.265C44.6856 113.084 44.6856 113.901 44.6856 114.72L44.7204 114.684C43.9857 114.651 43.2509 114.614 42.3293 114.571V112.254L42.2988 112.297H44.7161L44.6856 112.265Z" fill="#594A39"/>
<path d="M47.0671 138.236V140.583H44.8281V138.501L47.0997 138.284L47.0671 138.236Z" fill="#594A39"/>
<path d="M82.6855 76.7357H84.9093V78.985H82.7225V76.7031L82.6855 76.7357Z" fill="#594A39"/>
<path d="M16.3518 114.649H14.0215V112.391H16.1496C16.2018 113.138 16.2583 113.912 16.3126 114.683L16.3518 114.649Z" fill="#594A39"/>
<path d="M44.6582 86.297L47.1102 86.3231L47.0754 86.2884V88.4702H44.8104C44.7712 87.7096 44.7343 86.9773 44.6952 86.2471L44.6582 86.297Z" fill="#594A39"/>
<path d="M49.4858 83.9072C49.4756 84.7156 49.464 85.5241 49.451 86.3325L49.4771 86.2999L47.0859 86.2716L47.1207 86.3086V83.9463H49.5271L49.4858 83.9072Z" fill="#594A39"/>
<path d="M80.2537 140.627V142.961H78.0234V140.894L80.2842 140.664L80.2537 140.627Z" fill="#594A39"/>
<path d="M77.9002 74.3645V72.1348H80.2718V74.3079L80.3088 74.271L77.8633 74.321L77.9002 74.3645Z" fill="#594A39"/>
<path d="M47.0825 109.87V112.261H44.6914L44.7327 112.293V109.903H47.1238L47.0825 109.87Z" fill="#594A39"/>
<path d="M108.646 107.53H110.975V109.788H108.844C108.792 109.04 108.738 108.267 108.683 107.495L108.646 107.53Z" fill="#594A39"/>
<path d="M77.8457 53.1063H80.2368C80.2368 53.9517 80.2368 54.7492 80.2368 55.5468C80.246 55.5376 80.254 55.5274 80.2608 55.5163C79.5325 55.4403 78.8043 55.3599 78 55.2729C77.9587 54.5297 77.9174 53.7995 77.8761 53.0693L77.8457 53.1063Z" fill="#594A39"/>
<path d="M82.7213 76.7026H80.3063V74.2773L80.2715 74.3143L82.6844 74.3751L82.6474 74.3382C82.6474 75.1379 82.6713 75.9376 82.6822 76.7287L82.7213 76.7026Z" fill="#594A39"/>
<path d="M18.7053 121.82C18.655 122.025 18.6194 122.234 18.5988 122.444C18.5357 124.306 18.4075 124.4 16.375 123.965V121.853H18.7379L18.7053 121.82Z" fill="#594A39"/>
<path d="M82.6641 105.144C82.6772 104.783 82.6967 104.424 82.7054 104.057C82.7141 103.69 82.7054 103.342 82.7054 103.005C84.8792 102.451 85.2444 102.788 84.8422 105.096H82.625L82.6641 105.144Z" fill="#594A39"/>
<path d="M49.5168 83.9463V81.6123H51.6514C51.6927 81.6884 51.7492 81.747 51.7536 81.8101C51.8927 83.6964 51.8927 83.6942 49.9972 83.7898C49.8233 83.8136 49.6522 83.8544 49.4863 83.9115L49.5168 83.9463Z" fill="#594A39"/>
<path d="M82.6845 74.375V72.2453C84.8583 71.615 85.2213 71.9562 84.8583 74.3359H82.6562L82.6845 74.375Z" fill="#594A39"/>
<path d="M16.3151 117.046C16.2759 117.218 16.2483 117.393 16.2325 117.57C16.1629 119.56 16.0933 119.615 14 119.204V117.081H16.352L16.3151 117.046Z" fill="#594A39"/>
<path d="M70.709 121.89H73.0262V123.983C72.8721 124.04 72.7126 124.082 72.5502 124.107C70.8764 124.205 70.8785 124.2 70.8286 122.49C70.8115 122.277 70.7824 122.065 70.7416 121.855L70.709 121.89Z" fill="#594A39"/>
<path d="M85.0859 83.9287H87.1684C87.7575 86.0345 87.3553 86.4539 85.1468 86.0237C85.1272 85.8063 85.0946 85.5564 85.0903 85.313C85.0794 84.8893 85.0859 84.4633 85.0859 83.9287Z" fill="#594A39"/>
<path d="M104.151 71.854C103.796 69.6135 104.072 69.3483 106.235 69.8025V71.854H104.151Z" fill="#594A39"/>
<path d="M39.9418 48.3409C39.7388 48.2851 39.5316 48.2458 39.3223 48.2236C37.4441 48.1519 37.3659 48.041 37.7876 46.0156H39.9114V48.3757C39.9209 48.3636 39.931 48.352 39.9418 48.3409Z" fill="#594A39"/>
<path d="M82.6152 48.3319L85.1216 48.3514L85.089 48.3232C85.0407 48.4933 85.0058 48.667 84.9846 48.8426C84.902 50.7984 84.9042 50.7984 82.7544 50.492C82.7218 49.7749 82.687 49.0338 82.6544 48.2949L82.6152 48.3319Z" fill="#594A39"/>
<path d="M54.2864 71.8811H51.9648V69.7818C52.1178 69.7234 52.2768 69.6819 52.4387 69.6579C54.1104 69.5601 54.1082 69.5623 54.1603 71.2747C54.1783 71.487 54.2081 71.6982 54.2495 71.9071L54.2864 71.8811Z" fill="#594A39"/>
<path d="M75.4781 140.916C75.4781 141.318 75.4781 141.677 75.4781 142.035C75.4781 142.318 75.4542 142.602 75.439 142.959H73.3304C72.95 140.77 73.1761 140.542 75.4781 140.916Z" fill="#594A39"/>
<path d="M111.001 65.0391V67.0884H108.886C108.538 64.8174 108.825 64.5436 111.001 65.0391Z" fill="#594A39"/>
<path d="M61.1562 114.79V116.885H59.1172V114.79H61.1562Z" fill="#594A39"/>
<path d="M70.7517 79.126L68.5605 79.013V76.8594H70.7148V79.1629L70.7517 79.126Z" fill="#594A39"/>
<path d="M61.4863 109.985H63.5296V112.174H61.4863V109.985Z" fill="#594A39"/>
<path d="M27.9711 110.024V112.176H25.9277V110.024H27.9711Z" fill="#594A39"/>
<path d="M21.0975 112.337V110.016H23.2213V112.189L21.0605 112.306L21.0975 112.337Z" fill="#594A39"/>
<path d="M28.2715 109.792V107.632H30.3431V109.792H28.2715Z" fill="#594A39"/>
<path d="M70.7422 121.855C70.5748 121.802 70.4032 121.762 70.2292 121.738C68.3076 121.644 68.2402 121.559 68.6445 119.458C68.9575 119.458 69.2966 119.458 69.6488 119.458C70.0009 119.458 70.277 119.491 70.7118 119.514C70.7118 120.336 70.7118 121.11 70.7118 121.885L70.7422 121.855Z" fill="#594A39"/>
<path d="M59.0977 46H61.0258C61.6388 48.0515 61.2432 48.4861 59.0977 48.0732V46Z" fill="#594A39"/>
<path d="M35.1741 107.525L33.0221 107.421C32.9917 106.934 32.9678 106.451 32.9352 105.971C32.8982 105.424 33.1525 105.204 33.696 105.211C34.1916 105.211 34.6851 105.143 35.1807 105.104L35.1437 105.069V107.562L35.1741 107.525Z" fill="#594A39"/>
<path d="M28.3086 64.959H30.3454V67.0844H28.3086V64.959Z" fill="#594A39"/>
<path d="M85.1786 60.2861H87.2893V62.242C85.1829 62.8266 84.9177 62.6093 85.1786 60.2861Z" fill="#594A39"/>
<path d="M47.2266 60.2197C47.7657 60.2197 48.233 60.2197 48.6982 60.2197C48.9221 60.2384 49.1449 60.2688 49.3656 60.311V62.3451H47.2266V60.2197Z" fill="#594A39"/>
<path d="M96.6896 102.668H94.668V100.641C96.6657 100.03 96.983 100.328 96.6896 102.668Z" fill="#594A39"/>
<path d="M30.3137 86.0954H28.3008V83.957H30.3137V86.0954Z" fill="#594A39"/>
<path d="M54.255 71.9127C54.4589 71.9684 54.6668 72.0083 54.8767 72.0322C56.7027 72.1018 56.8005 72.2495 56.3158 74.3271H54.2246L54.2637 74.364C54.2724 73.5353 54.2797 72.7066 54.2855 71.8779L54.255 71.9127Z" fill="#594A39"/>
<path d="M87.4759 124.209C87.4085 124.876 87.3433 125.545 87.2585 126.306H85.1348V124.239H87.4998L87.4759 124.209Z" fill="#594A39"/>
<path d="M110.996 95.8594V97.9065H108.822V95.8594H110.996Z" fill="#594A39"/>
<path d="M68.2982 140.929V142.961H66.2962C65.8049 140.868 66.1505 140.509 68.2982 140.929Z" fill="#594A39"/>
<path d="M35.1657 48.3405L33.0137 48.1101V46.0195H35.1353V48.3731C35.1448 48.3617 35.155 48.3508 35.1657 48.3405Z" fill="#594A39"/>
<path d="M89.8867 88.4318V86.376H91.8649C92.4996 88.4014 92.18 88.7708 89.8867 88.4318Z" fill="#594A39"/>
<path d="M63.834 55.2948V53.165H65.8773V55.2948H63.834Z" fill="#594A39"/>
<path d="M54.093 129.028V131.099H51.9648V129.028H54.093Z" fill="#594A39"/>
<path d="M58.7044 71.8649H56.748V69.7917C58.8479 69.3788 59.1914 69.7395 58.7044 71.8649Z" fill="#594A39"/>
<path d="M73.2812 93.4688H75.4072V95.5094H73.2812V93.4688Z" fill="#594A39"/>
<path d="M89.906 64.75H87.5605V62.6768H89.5995C89.6908 63.3896 89.7821 64.085 89.8734 64.7782L89.906 64.75Z" fill="#594A39"/>
<path d="M103.831 88.4158C101.706 88.8092 101.477 88.5853 101.797 86.373H103.831V88.4158Z" fill="#594A39"/>
<path d="M54.332 50.631V48.3926H56.5058C56.4515 49.0945 56.6384 49.9812 56.2775 50.3897C55.9689 50.7483 55.0407 50.5679 54.332 50.631Z" fill="#594A39"/>
<path d="M51.9342 133.501H49.5996V131.41H51.7038C51.769 132.132 51.8342 132.834 51.8994 133.533L51.9342 133.501Z" fill="#594A39"/>
<path d="M59.125 67.3447H61.164V69.4679H59.125V67.3447Z" fill="#594A39"/>
<path d="M70.9023 93.1255V91.1045H73.0391V93.1255H70.9023Z" fill="#594A39"/>
<path d="M103.94 114.682L101.799 114.579V112.406H103.903V114.714L103.94 114.682Z" fill="#594A39"/>
<path d="M61.4434 131.065V129.057H63.5171V131.065H61.4434Z" fill="#594A39"/>
<path d="M54.3281 128.915V126.512C55.0694 126.61 55.8498 126.531 56.3671 126.857C56.628 127.018 56.6584 128.215 56.3932 128.415C55.9106 128.781 55.1281 128.75 54.3281 128.915Z" fill="#594A39"/>
<path d="M35.0824 62.4992C34.3303 62.397 33.5108 62.4992 33.0826 62.1536C32.7869 61.9081 32.7935 60.7215 33.0826 60.4759C33.5173 60.1239 34.3303 60.2456 35.0716 60.1543L35.0824 62.4992Z" fill="#594A39"/>
<path d="M63.5029 62.3924H61.4922V60.3018H63.5029V62.3924Z" fill="#594A39"/>
<path d="M101.479 95.6641V98.0676C100.733 97.9524 99.9571 98.0198 99.4463 97.6764C99.1811 97.4961 99.1724 96.3139 99.4463 96.0944C99.9006 95.7401 100.681 95.8053 101.479 95.6641Z" fill="#594A39"/>
<path d="M28.2715 90.7504V88.7402H30.2996V90.7504H28.2715Z" fill="#594A39"/>
<path d="M89.9141 60.1436C90.664 60.2435 91.4835 60.1305 91.9118 60.4869C92.2074 60.7347 92.2009 61.919 91.9118 62.1646C91.477 62.5167 90.664 62.395 89.9249 62.4862L89.9141 60.1436Z" fill="#594A39"/>
<path d="M94.6719 126.638H96.7065V128.68H94.6719V126.638Z" fill="#594A39"/>
<path d="M18.752 57.6504V50.8027H25.6624C25.6624 52.9238 25.6797 55.0078 25.6363 57.0919C25.6363 57.281 25.2515 57.6222 25.0407 57.6265C22.9778 57.6656 20.9214 57.6504 18.752 57.6504Z" fill="#594A39"/>
<path d="M25.663 138.236H18.7852V131.332H22.7175C25.6651 131.332 25.6651 131.332 25.663 134.251V138.236Z" fill="#594A39"/>
<path d="M99.3376 50.7637H106.196V57.6461C104.087 57.6461 102 57.6635 99.918 57.6201C99.7838 57.5795 99.6622 57.5053 99.5648 57.4045C99.4674 57.3037 99.3974 57.1796 99.3615 57.0442C99.3202 54.9905 99.3376 52.9347 99.3376 50.7637Z" fill="#594A39"/>
</svg>
