<svg width="125" height="164" viewBox="0 0 125 164" fill="none" xmlns="http://www.w3.org/2000/svg">
<rect x="1.5" y="1.5" width="122" height="160.46" rx="8.5" fill="white"/>
<rect x="1.5" y="1.5" width="122" height="160.46" rx="8.5" stroke="#E9E3D8" stroke-width="3"/>
<path d="M37.9384 22.24L37.4984 23.86H41.0184L40.5784 22.24C40.1184 20.7 39.7184 19 39.2984 17.4H39.1984C38.8184 19.02 38.3784 20.7 37.9384 22.24ZM32.8184 29.96L37.5584 15.14H41.0384L45.7984 29.96H42.6984L41.6584 26.16H36.8584L35.8184 29.96H32.8184Z" fill="#B8C318"/>
<path d="M48.0909 34.26V18.76H50.4909L50.7109 19.92H50.7709C51.7109 19.12 52.8709 18.48 54.0709 18.48C56.8309 18.48 58.4709 20.74 58.4709 24.18C58.4709 28.02 56.1709 30.24 53.7109 30.24C52.7309 30.24 51.7909 29.8 50.9309 29.02L51.0309 30.86V34.26H48.0909ZM53.0509 27.82C54.4109 27.82 55.4509 26.66 55.4509 24.22C55.4509 22.08 54.7709 20.9 53.2309 20.9C52.4709 20.9 51.7909 21.28 51.0309 22.06V26.98C51.7309 27.6 52.4509 27.82 53.0509 27.82Z" fill="#B8C318"/>
<path d="M61.762 34.26V18.76H64.162L64.382 19.92H64.442C65.382 19.12 66.542 18.48 67.742 18.48C70.502 18.48 72.142 20.74 72.142 24.18C72.142 28.02 69.842 30.24 67.382 30.24C66.402 30.24 65.462 29.8 64.602 29.02L64.702 30.86V34.26H61.762ZM66.722 27.82C68.082 27.82 69.122 26.66 69.122 24.22C69.122 22.08 68.442 20.9 66.902 20.9C66.142 20.9 65.462 21.28 64.702 22.06V26.98C65.402 27.6 66.122 27.82 66.722 27.82Z" fill="#B8C318"/>
<path d="M78.1931 30.24C76.153 30.24 75.433 28.9 75.433 26.82V14H78.373V26.94C78.373 27.62 78.673 27.84 78.953 27.84C79.073 27.84 79.153 27.84 79.3531 27.8L79.713 29.98C79.373 30.12 78.8931 30.24 78.1931 30.24Z" fill="#B8C318"/>
<path d="M83.5216 34.46C82.8616 34.46 82.4216 34.38 81.9816 34.24L82.5216 31.98C82.7216 32.04 83.0416 32.12 83.3016 32.12C84.4416 32.12 85.0816 31.4 85.4016 30.42L85.6016 29.76L81.2416 18.76H84.2016L85.9816 23.96C86.3216 24.96 86.6016 26.04 86.9216 27.12H87.0216C87.2816 26.08 87.5616 25 87.8216 23.96L89.3616 18.76H92.1816L88.2016 30.3C87.2216 32.94 86.0216 34.46 83.5216 34.46Z" fill="#B8C318"/>
<path d="M15.9796 46.46H14V48.4396H15.9796V46.46Z" fill="#594A39"/>
<path d="M17.9591 46.46H15.9795V48.4396H17.9591V46.46Z" fill="#594A39"/>
<path d="M19.9386 46.46H17.959V48.4396H19.9386V46.46Z" fill="#594A39"/>
<path d="M21.9181 46.46H19.9385V48.4396H21.9181V46.46Z" fill="#594A39"/>
<path d="M23.8976 46.46H21.918V48.4396H23.8976V46.46Z" fill="#594A39"/>
<path d="M25.878 46.46H23.8984V48.4396H25.878V46.46Z" fill="#594A39"/>
<path d="M27.8575 46.46H25.8779V48.4396H27.8575V46.46Z" fill="#594A39"/>
<path d="M33.796 46.46H31.8164V48.4396H33.796V46.46Z" fill="#594A39"/>
<path d="M35.7755 46.46H33.7959V48.4396H35.7755V46.46Z" fill="#594A39"/>
<path d="M41.714 46.46H39.7344V48.4396H41.714V46.46Z" fill="#594A39"/>
<path d="M45.6739 46.46H43.6943V48.4396H45.6739V46.46Z" fill="#594A39"/>
<path d="M47.6534 46.46H45.6738V48.4396H47.6534V46.46Z" fill="#594A39"/>
<path d="M61.5099 46.46H59.5303V48.4396H61.5099V46.46Z" fill="#594A39"/>
<path d="M63.4894 46.46H61.5098V48.4396H63.4894V46.46Z" fill="#594A39"/>
<path d="M65.4698 46.46H63.4902V48.4396H65.4698V46.46Z" fill="#594A39"/>
<path d="M73.3878 46.46H71.4082V48.4396H73.3878V46.46Z" fill="#594A39"/>
<path d="M75.3673 46.46H73.3877V48.4396H75.3673V46.46Z" fill="#594A39"/>
<path d="M77.3468 46.46H75.3672V48.4396H77.3468V46.46Z" fill="#594A39"/>
<path d="M95.1632 46.46H93.1836V48.4396H95.1632V46.46Z" fill="#594A39"/>
<path d="M99.1222 46.46H97.1426V48.4396H99.1222V46.46Z" fill="#594A39"/>
<path d="M101.102 46.46H99.1221V48.4396H101.102V46.46Z" fill="#594A39"/>
<path d="M103.081 46.46H101.102V48.4396H103.081V46.46Z" fill="#594A39"/>
<path d="M105.062 46.46H103.082V48.4396H105.062V46.46Z" fill="#594A39"/>
<path d="M107.041 46.46H105.062V48.4396H107.041V46.46Z" fill="#594A39"/>
<path d="M109.021 46.46H107.041V48.4396H109.021V46.46Z" fill="#594A39"/>
<path d="M111 46.46H109.021V48.4396H111V46.46Z" fill="#594A39"/>
<path d="M15.9796 48.4395H14V50.419H15.9796V48.4395Z" fill="#594A39"/>
<path d="M27.8575 48.4395H25.8779V50.419H27.8575V48.4395Z" fill="#594A39"/>
<path d="M33.796 48.4395H31.8164V50.419H33.796V48.4395Z" fill="#594A39"/>
<path d="M45.6739 48.4395H43.6943V50.419H45.6739V48.4395Z" fill="#594A39"/>
<path d="M47.6534 48.4395H45.6738V50.419H47.6534V48.4395Z" fill="#594A39"/>
<path d="M51.6124 48.4395H49.6328V50.419H51.6124V48.4395Z" fill="#594A39"/>
<path d="M59.5304 48.4395H57.5508V50.419H59.5304V48.4395Z" fill="#594A39"/>
<path d="M67.4493 48.4395H65.4697V50.419H67.4493V48.4395Z" fill="#594A39"/>
<path d="M69.4288 48.4395H67.4492V50.419H69.4288V48.4395Z" fill="#594A39"/>
<path d="M73.3878 48.4395H71.4082V50.419H73.3878V48.4395Z" fill="#594A39"/>
<path d="M81.3058 48.4395H79.3262V50.419H81.3058V48.4395Z" fill="#594A39"/>
<path d="M83.2853 48.4395H81.3057V50.419H83.2853V48.4395Z" fill="#594A39"/>
<path d="M87.2452 48.4395H85.2656V50.419H87.2452V48.4395Z" fill="#594A39"/>
<path d="M89.2247 48.4395H87.2451V50.419H89.2247V48.4395Z" fill="#594A39"/>
<path d="M91.2042 48.4395H89.2246V50.419H91.2042V48.4395Z" fill="#594A39"/>
<path d="M93.1837 48.4395H91.2041V50.419H93.1837V48.4395Z" fill="#594A39"/>
<path d="M95.1632 48.4395H93.1836V50.419H95.1632V48.4395Z" fill="#594A39"/>
<path d="M99.1222 48.4395H97.1426V50.419H99.1222V48.4395Z" fill="#594A39"/>
<path d="M111 48.4395H109.021V50.419H111V48.4395Z" fill="#594A39"/>
<path d="M15.9796 50.4189H14V52.3985H15.9796V50.4189Z" fill="#594A39"/>
<path d="M19.9386 50.4189H17.959V52.3985H19.9386V50.4189Z" fill="#594A39"/>
<path d="M21.9181 50.4189H19.9385V52.3985H21.9181V50.4189Z" fill="#594A39"/>
<path d="M23.8976 50.4189H21.918V52.3985H23.8976V50.4189Z" fill="#594A39"/>
<path d="M27.8575 50.4189H25.8779V52.3985H27.8575V50.4189Z" fill="#594A39"/>
<path d="M31.8165 50.4189H29.8369V52.3985H31.8165V50.4189Z" fill="#594A39"/>
<path d="M35.7755 50.4189H33.7959V52.3985H35.7755V50.4189Z" fill="#594A39"/>
<path d="M41.714 50.4189H39.7344V52.3985H41.714V50.4189Z" fill="#594A39"/>
<path d="M43.6935 50.4189H41.7139V52.3985H43.6935V50.4189Z" fill="#594A39"/>
<path d="M45.6739 50.4189H43.6943V52.3985H45.6739V50.4189Z" fill="#594A39"/>
<path d="M47.6534 50.4189H45.6738V52.3985H47.6534V50.4189Z" fill="#594A39"/>
<path d="M57.5509 50.4189H55.5713V52.3985H57.5509V50.4189Z" fill="#594A39"/>
<path d="M65.4698 50.4189H63.4902V52.3985H65.4698V50.4189Z" fill="#594A39"/>
<path d="M69.4288 50.4189H67.4492V52.3985H69.4288V50.4189Z" fill="#594A39"/>
<path d="M77.3468 50.4189H75.3672V52.3985H77.3468V50.4189Z" fill="#594A39"/>
<path d="M79.3263 50.4189H77.3467V52.3985H79.3263V50.4189Z" fill="#594A39"/>
<path d="M81.3058 50.4189H79.3262V52.3985H81.3058V50.4189Z" fill="#594A39"/>
<path d="M93.1837 50.4189H91.2041V52.3985H93.1837V50.4189Z" fill="#594A39"/>
<path d="M95.1632 50.4189H93.1836V52.3985H95.1632V50.4189Z" fill="#594A39"/>
<path d="M99.1222 50.4189H97.1426V52.3985H99.1222V50.4189Z" fill="#594A39"/>
<path d="M103.081 50.4189H101.102V52.3985H103.081V50.4189Z" fill="#594A39"/>
<path d="M105.062 50.4189H103.082V52.3985H105.062V50.4189Z" fill="#594A39"/>
<path d="M107.041 50.4189H105.062V52.3985H107.041V50.4189Z" fill="#594A39"/>
<path d="M111 50.4189H109.021V52.3985H111V50.4189Z" fill="#594A39"/>
<path d="M15.9796 52.3984H14V54.378H15.9796V52.3984Z" fill="#594A39"/>
<path d="M19.9386 52.3984H17.959V54.378H19.9386V52.3984Z" fill="#594A39"/>
<path d="M21.9181 52.3984H19.9385V54.378H21.9181V52.3984Z" fill="#594A39"/>
<path d="M23.8976 52.3984H21.918V54.378H23.8976V52.3984Z" fill="#594A39"/>
<path d="M27.8575 52.3984H25.8779V54.378H27.8575V52.3984Z" fill="#594A39"/>
<path d="M31.8165 52.3984H29.8369V54.378H31.8165V52.3984Z" fill="#594A39"/>
<path d="M33.796 52.3984H31.8164V54.378H33.796V52.3984Z" fill="#594A39"/>
<path d="M41.714 52.3984H39.7344V54.378H41.714V52.3984Z" fill="#594A39"/>
<path d="M53.5919 52.3984H51.6123V54.378H53.5919V52.3984Z" fill="#594A39"/>
<path d="M57.5509 52.3984H55.5713V54.378H57.5509V52.3984Z" fill="#594A39"/>
<path d="M61.5099 52.3984H59.5303V54.378H61.5099V52.3984Z" fill="#594A39"/>
<path d="M63.4894 52.3984H61.5098V54.378H63.4894V52.3984Z" fill="#594A39"/>
<path d="M73.3878 52.3984H71.4082V54.378H73.3878V52.3984Z" fill="#594A39"/>
<path d="M77.3468 52.3984H75.3672V54.378H77.3468V52.3984Z" fill="#594A39"/>
<path d="M81.3058 52.3984H79.3262V54.378H81.3058V52.3984Z" fill="#594A39"/>
<path d="M83.2853 52.3984H81.3057V54.378H83.2853V52.3984Z" fill="#594A39"/>
<path d="M85.2657 52.3984H83.2861V54.378H85.2657V52.3984Z" fill="#594A39"/>
<path d="M87.2452 52.3984H85.2656V54.378H87.2452V52.3984Z" fill="#594A39"/>
<path d="M89.2247 52.3984H87.2451V54.378H89.2247V52.3984Z" fill="#594A39"/>
<path d="M93.1837 52.3984H91.2041V54.378H93.1837V52.3984Z" fill="#594A39"/>
<path d="M99.1222 52.3984H97.1426V54.378H99.1222V52.3984Z" fill="#594A39"/>
<path d="M103.081 52.3984H101.102V54.378H103.081V52.3984Z" fill="#594A39"/>
<path d="M105.062 52.3984H103.082V54.378H105.062V52.3984Z" fill="#594A39"/>
<path d="M107.041 52.3984H105.062V54.378H107.041V52.3984Z" fill="#594A39"/>
<path d="M111 52.3984H109.021V54.378H111V52.3984Z" fill="#594A39"/>
<path d="M15.9796 54.3779H14V56.3575H15.9796V54.3779Z" fill="#594A39"/>
<path d="M19.9386 54.3779H17.959V56.3575H19.9386V54.3779Z" fill="#594A39"/>
<path d="M21.9181 54.3779H19.9385V56.3575H21.9181V54.3779Z" fill="#594A39"/>
<path d="M23.8976 54.3779H21.918V56.3575H23.8976V54.3779Z" fill="#594A39"/>
<path d="M27.8575 54.3779H25.8779V56.3575H27.8575V54.3779Z" fill="#594A39"/>
<path d="M31.8165 54.3779H29.8369V56.3575H31.8165V54.3779Z" fill="#594A39"/>
<path d="M35.7755 54.3779H33.7959V56.3575H35.7755V54.3779Z" fill="#594A39"/>
<path d="M37.755 54.3779H35.7754V56.3575H37.755V54.3779Z" fill="#594A39"/>
<path d="M41.714 54.3779H39.7344V56.3575H41.714V54.3779Z" fill="#594A39"/>
<path d="M45.6739 54.3779H43.6943V56.3575H45.6739V54.3779Z" fill="#594A39"/>
<path d="M51.6124 54.3779H49.6328V56.3575H51.6124V54.3779Z" fill="#594A39"/>
<path d="M57.5509 54.3779H55.5713V56.3575H57.5509V54.3779Z" fill="#594A39"/>
<path d="M59.5304 54.3779H57.5508V56.3575H59.5304V54.3779Z" fill="#594A39"/>
<path d="M61.5099 54.3779H59.5303V56.3575H61.5099V54.3779Z" fill="#594A39"/>
<path d="M63.4894 54.3779H61.5098V56.3575H63.4894V54.3779Z" fill="#594A39"/>
<path d="M65.4698 54.3779H63.4902V56.3575H65.4698V54.3779Z" fill="#594A39"/>
<path d="M67.4493 54.3779H65.4697V56.3575H67.4493V54.3779Z" fill="#594A39"/>
<path d="M71.4083 54.3779H69.4287V56.3575H71.4083V54.3779Z" fill="#594A39"/>
<path d="M75.3673 54.3779H73.3877V56.3575H75.3673V54.3779Z" fill="#594A39"/>
<path d="M79.3263 54.3779H77.3467V56.3575H79.3263V54.3779Z" fill="#594A39"/>
<path d="M85.2657 54.3779H83.2861V56.3575H85.2657V54.3779Z" fill="#594A39"/>
<path d="M87.2452 54.3779H85.2656V56.3575H87.2452V54.3779Z" fill="#594A39"/>
<path d="M89.2247 54.3779H87.2451V56.3575H89.2247V54.3779Z" fill="#594A39"/>
<path d="M99.1222 54.3779H97.1426V56.3575H99.1222V54.3779Z" fill="#594A39"/>
<path d="M103.081 54.3779H101.102V56.3575H103.081V54.3779Z" fill="#594A39"/>
<path d="M105.062 54.3779H103.082V56.3575H105.062V54.3779Z" fill="#594A39"/>
<path d="M107.041 54.3779H105.062V56.3575H107.041V54.3779Z" fill="#594A39"/>
<path d="M111 54.3779H109.021V56.3575H111V54.3779Z" fill="#594A39"/>
<path d="M15.9796 56.3584H14V58.338H15.9796V56.3584Z" fill="#594A39"/>
<path d="M27.8575 56.3584H25.8779V58.338H27.8575V56.3584Z" fill="#594A39"/>
<path d="M31.8165 56.3584H29.8369V58.338H31.8165V56.3584Z" fill="#594A39"/>
<path d="M33.796 56.3584H31.8164V58.338H33.796V56.3584Z" fill="#594A39"/>
<path d="M35.7755 56.3584H33.7959V58.338H35.7755V56.3584Z" fill="#594A39"/>
<path d="M37.755 56.3584H35.7754V58.338H37.755V56.3584Z" fill="#594A39"/>
<path d="M41.714 56.3584H39.7344V58.338H41.714V56.3584Z" fill="#594A39"/>
<path d="M43.6935 56.3584H41.7139V58.338H43.6935V56.3584Z" fill="#594A39"/>
<path d="M45.6739 56.3584H43.6943V58.338H45.6739V56.3584Z" fill="#594A39"/>
<path d="M47.6534 56.3584H45.6738V58.338H47.6534V56.3584Z" fill="#594A39"/>
<path d="M53.5919 56.3584H51.6123V58.338H53.5919V56.3584Z" fill="#594A39"/>
<path d="M57.5509 56.3584H55.5713V58.338H57.5509V56.3584Z" fill="#594A39"/>
<path d="M59.5304 56.3584H57.5508V58.338H59.5304V56.3584Z" fill="#594A39"/>
<path d="M67.4493 56.3584H65.4697V58.338H67.4493V56.3584Z" fill="#594A39"/>
<path d="M69.4288 56.3584H67.4492V58.338H69.4288V56.3584Z" fill="#594A39"/>
<path d="M71.4083 56.3584H69.4287V58.338H71.4083V56.3584Z" fill="#594A39"/>
<path d="M83.2853 56.3584H81.3057V58.338H83.2853V56.3584Z" fill="#594A39"/>
<path d="M87.2452 56.3584H85.2656V58.338H87.2452V56.3584Z" fill="#594A39"/>
<path d="M89.2247 56.3584H87.2451V58.338H89.2247V56.3584Z" fill="#594A39"/>
<path d="M91.2042 56.3584H89.2246V58.338H91.2042V56.3584Z" fill="#594A39"/>
<path d="M99.1222 56.3584H97.1426V58.338H99.1222V56.3584Z" fill="#594A39"/>
<path d="M111 56.3584H109.021V58.338H111V56.3584Z" fill="#594A39"/>
<path d="M15.9796 58.3379H14V60.3175H15.9796V58.3379Z" fill="#594A39"/>
<path d="M17.9591 58.3379H15.9795V60.3175H17.9591V58.3379Z" fill="#594A39"/>
<path d="M19.9386 58.3379H17.959V60.3175H19.9386V58.3379Z" fill="#594A39"/>
<path d="M21.9181 58.3379H19.9385V60.3175H21.9181V58.3379Z" fill="#594A39"/>
<path d="M23.8976 58.3379H21.918V60.3175H23.8976V58.3379Z" fill="#594A39"/>
<path d="M25.878 58.3379H23.8984V60.3175H25.878V58.3379Z" fill="#594A39"/>
<path d="M27.8575 58.3379H25.8779V60.3175H27.8575V58.3379Z" fill="#594A39"/>
<path d="M31.8165 58.3379H29.8369V60.3175H31.8165V58.3379Z" fill="#594A39"/>
<path d="M35.7755 58.3379H33.7959V60.3175H35.7755V58.3379Z" fill="#594A39"/>
<path d="M39.7345 58.3379H37.7549V60.3175H39.7345V58.3379Z" fill="#594A39"/>
<path d="M43.6935 58.3379H41.7139V60.3175H43.6935V58.3379Z" fill="#594A39"/>
<path d="M47.6534 58.3379H45.6738V60.3175H47.6534V58.3379Z" fill="#594A39"/>
<path d="M51.6124 58.3379H49.6328V60.3175H51.6124V58.3379Z" fill="#594A39"/>
<path d="M55.5714 58.3379H53.5918V60.3175H55.5714V58.3379Z" fill="#594A39"/>
<path d="M59.5304 58.3379H57.5508V60.3175H59.5304V58.3379Z" fill="#594A39"/>
<path d="M63.4894 58.3379H61.5098V60.3175H63.4894V58.3379Z" fill="#594A39"/>
<path d="M67.4493 58.3379H65.4697V60.3175H67.4493V58.3379Z" fill="#594A39"/>
<path d="M71.4083 58.3379H69.4287V60.3175H71.4083V58.3379Z" fill="#594A39"/>
<path d="M75.3673 58.3379H73.3877V60.3175H75.3673V58.3379Z" fill="#594A39"/>
<path d="M79.3263 58.3379H77.3467V60.3175H79.3263V58.3379Z" fill="#594A39"/>
<path d="M83.2853 58.3379H81.3057V60.3175H83.2853V58.3379Z" fill="#594A39"/>
<path d="M87.2452 58.3379H85.2656V60.3175H87.2452V58.3379Z" fill="#594A39"/>
<path d="M91.2042 58.3379H89.2246V60.3175H91.2042V58.3379Z" fill="#594A39"/>
<path d="M95.1632 58.3379H93.1836V60.3175H95.1632V58.3379Z" fill="#594A39"/>
<path d="M99.1222 58.3379H97.1426V60.3175H99.1222V58.3379Z" fill="#594A39"/>
<path d="M101.102 58.3379H99.1221V60.3175H101.102V58.3379Z" fill="#594A39"/>
<path d="M103.081 58.3379H101.102V60.3175H103.081V58.3379Z" fill="#594A39"/>
<path d="M105.062 58.3379H103.082V60.3175H105.062V58.3379Z" fill="#594A39"/>
<path d="M107.041 58.3379H105.062V60.3175H107.041V58.3379Z" fill="#594A39"/>
<path d="M109.021 58.3379H107.041V60.3175H109.021V58.3379Z" fill="#594A39"/>
<path d="M111 58.3379H109.021V60.3175H111V58.3379Z" fill="#594A39"/>
<path d="M31.8165 60.3174H29.8369V62.297H31.8165V60.3174Z" fill="#594A39"/>
<path d="M35.7755 60.3174H33.7959V62.297H35.7755V60.3174Z" fill="#594A39"/>
<path d="M39.7345 60.3174H37.7549V62.297H39.7345V60.3174Z" fill="#594A39"/>
<path d="M41.714 60.3174H39.7344V62.297H41.714V60.3174Z" fill="#594A39"/>
<path d="M45.6739 60.3174H43.6943V62.297H45.6739V60.3174Z" fill="#594A39"/>
<path d="M47.6534 60.3174H45.6738V62.297H47.6534V60.3174Z" fill="#594A39"/>
<path d="M51.6124 60.3174H49.6328V62.297H51.6124V60.3174Z" fill="#594A39"/>
<path d="M59.5304 60.3174H57.5508V62.297H59.5304V60.3174Z" fill="#594A39"/>
<path d="M67.4493 60.3174H65.4697V62.297H67.4493V60.3174Z" fill="#594A39"/>
<path d="M71.4083 60.3174H69.4287V62.297H71.4083V60.3174Z" fill="#594A39"/>
<path d="M75.3673 60.3174H73.3877V62.297H75.3673V60.3174Z" fill="#594A39"/>
<path d="M79.3263 60.3174H77.3467V62.297H79.3263V60.3174Z" fill="#594A39"/>
<path d="M85.2657 60.3174H83.2861V62.297H85.2657V60.3174Z" fill="#594A39"/>
<path d="M89.2247 60.3174H87.2451V62.297H89.2247V60.3174Z" fill="#594A39"/>
<path d="M91.2042 60.3174H89.2246V62.297H91.2042V60.3174Z" fill="#594A39"/>
<path d="M93.1837 60.3174H91.2041V62.297H93.1837V60.3174Z" fill="#594A39"/>
<path d="M15.9796 62.2969H14V64.2765H15.9796V62.2969Z" fill="#594A39"/>
<path d="M19.9386 62.2969H17.959V64.2765H19.9386V62.2969Z" fill="#594A39"/>
<path d="M21.9181 62.2969H19.9385V64.2765H21.9181V62.2969Z" fill="#594A39"/>
<path d="M23.8976 62.2969H21.918V64.2765H23.8976V62.2969Z" fill="#594A39"/>
<path d="M25.878 62.2969H23.8984V64.2765H25.878V62.2969Z" fill="#594A39"/>
<path d="M27.8575 62.2969H25.8779V64.2765H27.8575V62.2969Z" fill="#594A39"/>
<path d="M41.714 62.2969H39.7344V64.2765H41.714V62.2969Z" fill="#594A39"/>
<path d="M43.6935 62.2969H41.7139V64.2765H43.6935V62.2969Z" fill="#594A39"/>
<path d="M45.6739 62.2969H43.6943V64.2765H45.6739V62.2969Z" fill="#594A39"/>
<path d="M49.6329 62.2969H47.6533V64.2765H49.6329V62.2969Z" fill="#594A39"/>
<path d="M55.5714 62.2969H53.5918V64.2765H55.5714V62.2969Z" fill="#594A39"/>
<path d="M59.5304 62.2969H57.5508V64.2765H59.5304V62.2969Z" fill="#594A39"/>
<path d="M61.5099 62.2969H59.5303V64.2765H61.5099V62.2969Z" fill="#594A39"/>
<path d="M63.4894 62.2969H61.5098V64.2765H63.4894V62.2969Z" fill="#594A39"/>
<path d="M65.4698 62.2969H63.4902V64.2765H65.4698V62.2969Z" fill="#594A39"/>
<path d="M67.4493 62.2969H65.4697V64.2765H67.4493V62.2969Z" fill="#594A39"/>
<path d="M69.4288 62.2969H67.4492V64.2765H69.4288V62.2969Z" fill="#594A39"/>
<path d="M73.3878 62.2969H71.4082V64.2765H73.3878V62.2969Z" fill="#594A39"/>
<path d="M77.3468 62.2969H75.3672V64.2765H77.3468V62.2969Z" fill="#594A39"/>
<path d="M81.3058 62.2969H79.3262V64.2765H81.3058V62.2969Z" fill="#594A39"/>
<path d="M85.2657 62.2969H83.2861V64.2765H85.2657V62.2969Z" fill="#594A39"/>
<path d="M87.2452 62.2969H85.2656V64.2765H87.2452V62.2969Z" fill="#594A39"/>
<path d="M89.2247 62.2969H87.2451V64.2765H89.2247V62.2969Z" fill="#594A39"/>
<path d="M93.1837 62.2969H91.2041V64.2765H93.1837V62.2969Z" fill="#594A39"/>
<path d="M95.1632 62.2969H93.1836V64.2765H95.1632V62.2969Z" fill="#594A39"/>
<path d="M99.1222 62.2969H97.1426V64.2765H99.1222V62.2969Z" fill="#594A39"/>
<path d="M101.102 62.2969H99.1221V64.2765H101.102V62.2969Z" fill="#594A39"/>
<path d="M103.081 62.2969H101.102V64.2765H103.081V62.2969Z" fill="#594A39"/>
<path d="M105.062 62.2969H103.082V64.2765H105.062V62.2969Z" fill="#594A39"/>
<path d="M107.041 62.2969H105.062V64.2765H107.041V62.2969Z" fill="#594A39"/>
<path d="M17.9591 64.2764H15.9795V66.256H17.9591V64.2764Z" fill="#594A39"/>
<path d="M21.9181 64.2764H19.9385V66.256H21.9181V64.2764Z" fill="#594A39"/>
<path d="M23.8976 64.2764H21.918V66.256H23.8976V64.2764Z" fill="#594A39"/>
<path d="M29.837 64.2764H27.8574V66.256H29.837V64.2764Z" fill="#594A39"/>
<path d="M33.796 64.2764H31.8164V66.256H33.796V64.2764Z" fill="#594A39"/>
<path d="M39.7345 64.2764H37.7549V66.256H39.7345V64.2764Z" fill="#594A39"/>
<path d="M43.6935 64.2764H41.7139V66.256H43.6935V64.2764Z" fill="#594A39"/>
<path d="M53.5919 64.2764H51.6123V66.256H53.5919V64.2764Z" fill="#594A39"/>
<path d="M61.5099 64.2764H59.5303V66.256H61.5099V64.2764Z" fill="#594A39"/>
<path d="M63.4894 64.2764H61.5098V66.256H63.4894V64.2764Z" fill="#594A39"/>
<path d="M65.4698 64.2764H63.4902V66.256H65.4698V64.2764Z" fill="#594A39"/>
<path d="M73.3878 64.2764H71.4082V66.256H73.3878V64.2764Z" fill="#594A39"/>
<path d="M75.3673 64.2764H73.3877V66.256H75.3673V64.2764Z" fill="#594A39"/>
<path d="M79.3263 64.2764H77.3467V66.256H79.3263V64.2764Z" fill="#594A39"/>
<path d="M85.2657 64.2764H83.2861V66.256H85.2657V64.2764Z" fill="#594A39"/>
<path d="M87.2452 64.2764H85.2656V66.256H87.2452V64.2764Z" fill="#594A39"/>
<path d="M89.2247 64.2764H87.2451V66.256H89.2247V64.2764Z" fill="#594A39"/>
<path d="M99.1222 64.2764H97.1426V66.256H99.1222V64.2764Z" fill="#594A39"/>
<path d="M23.8976 66.2559H21.918V68.2355H23.8976V66.2559Z" fill="#594A39"/>
<path d="M27.8575 66.2559H25.8779V68.2355H27.8575V66.2559Z" fill="#594A39"/>
<path d="M29.837 66.2559H27.8574V68.2355H29.837V66.2559Z" fill="#594A39"/>
<path d="M33.796 66.2559H31.8164V68.2355H33.796V66.2559Z" fill="#594A39"/>
<path d="M35.7755 66.2559H33.7959V68.2355H35.7755V66.2559Z" fill="#594A39"/>
<path d="M41.714 66.2559H39.7344V68.2355H41.714V66.2559Z" fill="#594A39"/>
<path d="M45.6739 66.2559H43.6943V68.2355H45.6739V66.2559Z" fill="#594A39"/>
<path d="M49.6329 66.2559H47.6533V68.2355H49.6329V66.2559Z" fill="#594A39"/>
<path d="M53.5919 66.2559H51.6123V68.2355H53.5919V66.2559Z" fill="#594A39"/>
<path d="M65.4698 66.2559H63.4902V68.2355H65.4698V66.2559Z" fill="#594A39"/>
<path d="M67.4493 66.2559H65.4697V68.2355H67.4493V66.2559Z" fill="#594A39"/>
<path d="M77.3468 66.2559H75.3672V68.2355H77.3468V66.2559Z" fill="#594A39"/>
<path d="M81.3058 66.2559H79.3262V68.2355H81.3058V66.2559Z" fill="#594A39"/>
<path d="M93.1837 66.2559H91.2041V68.2355H93.1837V66.2559Z" fill="#594A39"/>
<path d="M95.1632 66.2559H93.1836V68.2355H95.1632V66.2559Z" fill="#594A39"/>
<path d="M101.102 66.2559H99.1221V68.2355H101.102V66.2559Z" fill="#594A39"/>
<path d="M105.062 66.2559H103.082V68.2355H105.062V66.2559Z" fill="#594A39"/>
<path d="M107.041 66.2559H105.062V68.2355H107.041V66.2559Z" fill="#594A39"/>
<path d="M109.021 66.2559H107.041V68.2355H109.021V66.2559Z" fill="#594A39"/>
<path d="M111 66.2559H109.021V68.2355H111V66.2559Z" fill="#594A39"/>
<path d="M15.9796 68.2354H14V70.2149H15.9796V68.2354Z" fill="#594A39"/>
<path d="M17.9591 68.2354H15.9795V70.2149H17.9591V68.2354Z" fill="#594A39"/>
<path d="M23.8976 68.2354H21.918V70.2149H23.8976V68.2354Z" fill="#594A39"/>
<path d="M29.837 68.2354H27.8574V70.2149H29.837V68.2354Z" fill="#594A39"/>
<path d="M33.796 68.2354H31.8164V70.2149H33.796V68.2354Z" fill="#594A39"/>
<path d="M39.7345 68.2354H37.7549V70.2149H39.7345V68.2354Z" fill="#594A39"/>
<path d="M43.6935 68.2354H41.7139V70.2149H43.6935V68.2354Z" fill="#594A39"/>
<path d="M53.5919 68.2354H51.6123V70.2149H53.5919V68.2354Z" fill="#594A39"/>
<path d="M57.5509 68.2354H55.5713V70.2149H57.5509V68.2354Z" fill="#594A39"/>
<path d="M65.4698 68.2354H63.4902V70.2149H65.4698V68.2354Z" fill="#594A39"/>
<path d="M71.4083 68.2354H69.4287V70.2149H71.4083V68.2354Z" fill="#594A39"/>
<path d="M75.3673 68.2354H73.3877V70.2149H75.3673V68.2354Z" fill="#594A39"/>
<path d="M79.3263 68.2354H77.3467V70.2149H79.3263V68.2354Z" fill="#594A39"/>
<path d="M83.2853 68.2354H81.3057V70.2149H83.2853V68.2354Z" fill="#594A39"/>
<path d="M85.2657 68.2354H83.2861V70.2149H85.2657V68.2354Z" fill="#594A39"/>
<path d="M93.1837 68.2354H91.2041V70.2149H93.1837V68.2354Z" fill="#594A39"/>
<path d="M95.1632 68.2354H93.1836V70.2149H95.1632V68.2354Z" fill="#594A39"/>
<path d="M101.102 68.2354H99.1221V70.2149H101.102V68.2354Z" fill="#594A39"/>
<path d="M103.081 68.2354H101.102V70.2149H103.081V68.2354Z" fill="#594A39"/>
<path d="M111 68.2354H109.021V70.2149H111V68.2354Z" fill="#594A39"/>
<path d="M23.8976 70.2148H21.918V72.1944H23.8976V70.2148Z" fill="#594A39"/>
<path d="M25.878 70.2148H23.8984V72.1944H25.878V70.2148Z" fill="#594A39"/>
<path d="M27.8575 70.2148H25.8779V72.1944H27.8575V70.2148Z" fill="#594A39"/>
<path d="M29.837 70.2148H27.8574V72.1944H29.837V70.2148Z" fill="#594A39"/>
<path d="M31.8165 70.2148H29.8369V72.1944H31.8165V70.2148Z" fill="#594A39"/>
<path d="M39.7345 70.2148H37.7549V72.1944H39.7345V70.2148Z" fill="#594A39"/>
<path d="M41.714 70.2148H39.7344V72.1944H41.714V70.2148Z" fill="#594A39"/>
<path d="M43.6935 70.2148H41.7139V72.1944H43.6935V70.2148Z" fill="#594A39"/>
<path d="M45.6739 70.2148H43.6943V72.1944H45.6739V70.2148Z" fill="#594A39"/>
<path d="M49.6329 70.2148H47.6533V72.1944H49.6329V70.2148Z" fill="#594A39"/>
<path d="M59.5304 70.2148H57.5508V72.1944H59.5304V70.2148Z" fill="#594A39"/>
<path d="M63.4894 70.2148H61.5098V72.1944H63.4894V70.2148Z" fill="#594A39"/>
<path d="M67.4493 70.2148H65.4697V72.1944H67.4493V70.2148Z" fill="#594A39"/>
<path d="M73.3878 70.2148H71.4082V72.1944H73.3878V70.2148Z" fill="#594A39"/>
<path d="M77.3468 70.2148H75.3672V72.1944H77.3468V70.2148Z" fill="#594A39"/>
<path d="M85.2657 70.2148H83.2861V72.1944H85.2657V70.2148Z" fill="#594A39"/>
<path d="M87.2452 70.2148H85.2656V72.1944H87.2452V70.2148Z" fill="#594A39"/>
<path d="M95.1632 70.2148H93.1836V72.1944H95.1632V70.2148Z" fill="#594A39"/>
<path d="M101.102 70.2148H99.1221V72.1944H101.102V70.2148Z" fill="#594A39"/>
<path d="M105.062 70.2148H103.082V72.1944H105.062V70.2148Z" fill="#594A39"/>
<path d="M107.041 70.2148H105.062V72.1944H107.041V70.2148Z" fill="#594A39"/>
<path d="M109.021 70.2148H107.041V72.1944H109.021V70.2148Z" fill="#594A39"/>
<path d="M111 70.2148H109.021V72.1944H111V70.2148Z" fill="#594A39"/>
<path d="M19.9386 72.1943H17.959V74.1739H19.9386V72.1943Z" fill="#594A39"/>
<path d="M21.9181 72.1943H19.9385V74.1739H21.9181V72.1943Z" fill="#594A39"/>
<path d="M25.878 72.1943H23.8984V74.1739H25.878V72.1943Z" fill="#594A39"/>
<path d="M33.796 72.1943H31.8164V74.1739H33.796V72.1943Z" fill="#594A39"/>
<path d="M35.7755 72.1943H33.7959V74.1739H35.7755V72.1943Z" fill="#594A39"/>
<path d="M39.7345 72.1943H37.7549V74.1739H39.7345V72.1943Z" fill="#594A39"/>
<path d="M41.714 72.1943H39.7344V74.1739H41.714V72.1943Z" fill="#594A39"/>
<path d="M45.6739 72.1943H43.6943V74.1739H45.6739V72.1943Z" fill="#594A39"/>
<path d="M53.5919 72.1943H51.6123V74.1739H53.5919V72.1943Z" fill="#594A39"/>
<path d="M55.5714 72.1943H53.5918V74.1739H55.5714V72.1943Z" fill="#594A39"/>
<path d="M63.4894 72.1943H61.5098V74.1739H63.4894V72.1943Z" fill="#594A39"/>
<path d="M69.4288 72.1943H67.4492V74.1739H69.4288V72.1943Z" fill="#594A39"/>
<path d="M71.4083 72.1943H69.4287V74.1739H71.4083V72.1943Z" fill="#594A39"/>
<path d="M73.3878 72.1943H71.4082V74.1739H73.3878V72.1943Z" fill="#594A39"/>
<path d="M75.3673 72.1943H73.3877V74.1739H75.3673V72.1943Z" fill="#594A39"/>
<path d="M79.3263 72.1943H77.3467V74.1739H79.3263V72.1943Z" fill="#594A39"/>
<path d="M85.2657 72.1943H83.2861V74.1739H85.2657V72.1943Z" fill="#594A39"/>
<path d="M87.2452 72.1943H85.2656V74.1739H87.2452V72.1943Z" fill="#594A39"/>
<path d="M89.2247 72.1943H87.2451V74.1739H89.2247V72.1943Z" fill="#594A39"/>
<path d="M99.1222 72.1943H97.1426V74.1739H99.1222V72.1943Z" fill="#594A39"/>
<path d="M101.102 72.1943H99.1221V74.1739H101.102V72.1943Z" fill="#594A39"/>
<path d="M103.081 72.1943H101.102V74.1739H103.081V72.1943Z" fill="#594A39"/>
<path d="M109.021 72.1943H107.041V74.1739H109.021V72.1943Z" fill="#594A39"/>
<path d="M15.9796 74.1738H14V76.1534H15.9796V74.1738Z" fill="#594A39"/>
<path d="M19.9386 74.1738H17.959V76.1534H19.9386V74.1738Z" fill="#594A39"/>
<path d="M23.8976 74.1738H21.918V76.1534H23.8976V74.1738Z" fill="#594A39"/>
<path d="M25.878 74.1738H23.8984V76.1534H25.878V74.1738Z" fill="#594A39"/>
<path d="M27.8575 74.1738H25.8779V76.1534H27.8575V74.1738Z" fill="#594A39"/>
<path d="M29.837 74.1738H27.8574V76.1534H29.837V74.1738Z" fill="#594A39"/>
<path d="M31.8165 74.1738H29.8369V76.1534H31.8165V74.1738Z" fill="#594A39"/>
<path d="M35.7755 74.1738H33.7959V76.1534H35.7755V74.1738Z" fill="#594A39"/>
<path d="M37.755 74.1738H35.7754V76.1534H37.755V74.1738Z" fill="#594A39"/>
<path d="M39.7345 74.1738H37.7549V76.1534H39.7345V74.1738Z" fill="#594A39"/>
<path d="M43.6935 74.1738H41.7139V76.1534H43.6935V74.1738Z" fill="#594A39"/>
<path d="M45.6739 74.1738H43.6943V76.1534H45.6739V74.1738Z" fill="#594A39"/>
<path d="M47.6534 74.1738H45.6738V76.1534H47.6534V74.1738Z" fill="#594A39"/>
<path d="M55.5714 74.1738H53.5918V76.1534H55.5714V74.1738Z" fill="#594A39"/>
<path d="M61.5099 74.1738H59.5303V76.1534H61.5099V74.1738Z" fill="#594A39"/>
<path d="M63.4894 74.1738H61.5098V76.1534H63.4894V74.1738Z" fill="#594A39"/>
<path d="M65.4698 74.1738H63.4902V76.1534H65.4698V74.1738Z" fill="#594A39"/>
<path d="M67.4493 74.1738H65.4697V76.1534H67.4493V74.1738Z" fill="#594A39"/>
<path d="M71.4083 74.1738H69.4287V76.1534H71.4083V74.1738Z" fill="#594A39"/>
<path d="M73.3878 74.1738H71.4082V76.1534H73.3878V74.1738Z" fill="#594A39"/>
<path d="M77.3468 74.1738H75.3672V76.1534H77.3468V74.1738Z" fill="#594A39"/>
<path d="M79.3263 74.1738H77.3467V76.1534H79.3263V74.1738Z" fill="#594A39"/>
<path d="M81.3058 74.1738H79.3262V76.1534H81.3058V74.1738Z" fill="#594A39"/>
<path d="M83.2853 74.1738H81.3057V76.1534H83.2853V74.1738Z" fill="#594A39"/>
<path d="M91.2042 74.1738H89.2246V76.1534H91.2042V74.1738Z" fill="#594A39"/>
<path d="M93.1837 74.1738H91.2041V76.1534H93.1837V74.1738Z" fill="#594A39"/>
<path d="M95.1632 74.1738H93.1836V76.1534H95.1632V74.1738Z" fill="#594A39"/>
<path d="M101.102 74.1738H99.1221V76.1534H101.102V74.1738Z" fill="#594A39"/>
<path d="M103.081 74.1738H101.102V76.1534H103.081V74.1738Z" fill="#594A39"/>
<path d="M105.062 74.1738H103.082V76.1534H105.062V74.1738Z" fill="#594A39"/>
<path d="M109.021 74.1738H107.041V76.1534H109.021V74.1738Z" fill="#594A39"/>
<path d="M111 74.1738H109.021V76.1534H111V74.1738Z" fill="#594A39"/>
<path d="M15.9796 76.1543H14V78.1339H15.9796V76.1543Z" fill="#594A39"/>
<path d="M21.9181 76.1543H19.9385V78.1339H21.9181V76.1543Z" fill="#594A39"/>
<path d="M23.8976 76.1543H21.918V78.1339H23.8976V76.1543Z" fill="#594A39"/>
<path d="M33.796 76.1543H31.8164V78.1339H33.796V76.1543Z" fill="#594A39"/>
<path d="M39.7345 76.1543H37.7549V78.1339H39.7345V76.1543Z" fill="#594A39"/>
<path d="M47.6534 76.1543H45.6738V78.1339H47.6534V76.1543Z" fill="#594A39"/>
<path d="M53.5919 76.1543H51.6123V78.1339H53.5919V76.1543Z" fill="#594A39"/>
<path d="M55.5714 76.1543H53.5918V78.1339H55.5714V76.1543Z" fill="#594A39"/>
<path d="M61.5099 76.1543H59.5303V78.1339H61.5099V76.1543Z" fill="#594A39"/>
<path d="M69.4288 76.1543H67.4492V78.1339H69.4288V76.1543Z" fill="#594A39"/>
<path d="M71.4083 76.1543H69.4287V78.1339H71.4083V76.1543Z" fill="#594A39"/>
<path d="M75.3673 76.1543H73.3877V78.1339H75.3673V76.1543Z" fill="#594A39"/>
<path d="M79.3263 76.1543H77.3467V78.1339H79.3263V76.1543Z" fill="#594A39"/>
<path d="M85.2657 76.1543H83.2861V78.1339H85.2657V76.1543Z" fill="#594A39"/>
<path d="M91.2042 76.1543H89.2246V78.1339H91.2042V76.1543Z" fill="#594A39"/>
<path d="M97.1427 76.1543H95.1631V78.1339H97.1427V76.1543Z" fill="#594A39"/>
<path d="M99.1222 76.1543H97.1426V78.1339H99.1222V76.1543Z" fill="#594A39"/>
<path d="M101.102 76.1543H99.1221V78.1339H101.102V76.1543Z" fill="#594A39"/>
<path d="M103.081 76.1543H101.102V78.1339H103.081V76.1543Z" fill="#594A39"/>
<path d="M111 76.1543H109.021V78.1339H111V76.1543Z" fill="#594A39"/>
<path d="M17.9591 78.1338H15.9795V80.1134H17.9591V78.1338Z" fill="#594A39"/>
<path d="M21.9181 78.1338H19.9385V80.1134H21.9181V78.1338Z" fill="#594A39"/>
<path d="M23.8976 78.1338H21.918V80.1134H23.8976V78.1338Z" fill="#594A39"/>
<path d="M25.878 78.1338H23.8984V80.1134H25.878V78.1338Z" fill="#594A39"/>
<path d="M27.8575 78.1338H25.8779V80.1134H27.8575V78.1338Z" fill="#594A39"/>
<path d="M29.837 78.1338H27.8574V80.1134H29.837V78.1338Z" fill="#594A39"/>
<path d="M31.8165 78.1338H29.8369V80.1134H31.8165V78.1338Z" fill="#594A39"/>
<path d="M37.755 78.1338H35.7754V80.1134H37.755V78.1338Z" fill="#594A39"/>
<path d="M47.6534 78.1338H45.6738V80.1134H47.6534V78.1338Z" fill="#594A39"/>
<path d="M51.6124 78.1338H49.6328V80.1134H51.6124V78.1338Z" fill="#594A39"/>
<path d="M55.5714 78.1338H53.5918V80.1134H55.5714V78.1338Z" fill="#594A39"/>
<path d="M59.5304 78.1338H57.5508V80.1134H59.5304V78.1338Z" fill="#594A39"/>
<path d="M63.4894 78.1338H61.5098V80.1134H63.4894V78.1338Z" fill="#594A39"/>
<path d="M65.4698 78.1338H63.4902V80.1134H65.4698V78.1338Z" fill="#594A39"/>
<path d="M67.4493 78.1338H65.4697V80.1134H67.4493V78.1338Z" fill="#594A39"/>
<path d="M77.3468 78.1338H75.3672V80.1134H77.3468V78.1338Z" fill="#594A39"/>
<path d="M85.2657 78.1338H83.2861V80.1134H85.2657V78.1338Z" fill="#594A39"/>
<path d="M87.2452 78.1338H85.2656V80.1134H87.2452V78.1338Z" fill="#594A39"/>
<path d="M95.1632 78.1338H93.1836V80.1134H95.1632V78.1338Z" fill="#594A39"/>
<path d="M99.1222 78.1338H97.1426V80.1134H99.1222V78.1338Z" fill="#594A39"/>
<path d="M101.102 78.1338H99.1221V80.1134H101.102V78.1338Z" fill="#594A39"/>
<path d="M105.062 78.1338H103.082V80.1134H105.062V78.1338Z" fill="#594A39"/>
<path d="M15.9796 80.1133H14V82.0929H15.9796V80.1133Z" fill="#594A39"/>
<path d="M19.9386 80.1133H17.959V82.0929H19.9386V80.1133Z" fill="#594A39"/>
<path d="M23.8976 80.1133H21.918V82.0929H23.8976V80.1133Z" fill="#594A39"/>
<path d="M25.878 80.1133H23.8984V82.0929H25.878V80.1133Z" fill="#594A39"/>
<path d="M29.837 80.1133H27.8574V82.0929H29.837V80.1133Z" fill="#594A39"/>
<path d="M31.8165 80.1133H29.8369V82.0929H31.8165V80.1133Z" fill="#594A39"/>
<path d="M37.755 80.1133H35.7754V82.0929H37.755V80.1133Z" fill="#594A39"/>
<path d="M39.7345 80.1133H37.7549V82.0929H39.7345V80.1133Z" fill="#594A39"/>
<path d="M45.6739 80.1133H43.6943V82.0929H45.6739V80.1133Z" fill="#594A39"/>
<path d="M51.6124 80.1133H49.6328V82.0929H51.6124V80.1133Z" fill="#594A39"/>
<path d="M53.5919 80.1133H51.6123V82.0929H53.5919V80.1133Z" fill="#594A39"/>
<path d="M61.5099 80.1133H59.5303V82.0929H61.5099V80.1133Z" fill="#594A39"/>
<path d="M63.4894 80.1133H61.5098V82.0929H63.4894V80.1133Z" fill="#594A39"/>
<path d="M65.4698 80.1133H63.4902V82.0929H65.4698V80.1133Z" fill="#594A39"/>
<path d="M69.4288 80.1133H67.4492V82.0929H69.4288V80.1133Z" fill="#594A39"/>
<path d="M73.3878 80.1133H71.4082V82.0929H73.3878V80.1133Z" fill="#594A39"/>
<path d="M75.3673 80.1133H73.3877V82.0929H75.3673V80.1133Z" fill="#594A39"/>
<path d="M77.3468 80.1133H75.3672V82.0929H77.3468V80.1133Z" fill="#594A39"/>
<path d="M79.3263 80.1133H77.3467V82.0929H79.3263V80.1133Z" fill="#594A39"/>
<path d="M85.2657 80.1133H83.2861V82.0929H85.2657V80.1133Z" fill="#594A39"/>
<path d="M93.1837 80.1133H91.2041V82.0929H93.1837V80.1133Z" fill="#594A39"/>
<path d="M97.1427 80.1133H95.1631V82.0929H97.1427V80.1133Z" fill="#594A39"/>
<path d="M99.1222 80.1133H97.1426V82.0929H99.1222V80.1133Z" fill="#594A39"/>
<path d="M101.102 80.1133H99.1221V82.0929H101.102V80.1133Z" fill="#594A39"/>
<path d="M109.021 80.1133H107.041V82.0929H109.021V80.1133Z" fill="#594A39"/>
<path d="M15.9796 82.0928H14V84.0724H15.9796V82.0928Z" fill="#594A39"/>
<path d="M17.9591 82.0928H15.9795V84.0724H17.9591V82.0928Z" fill="#594A39"/>
<path d="M19.9386 82.0928H17.959V84.0724H19.9386V82.0928Z" fill="#594A39"/>
<path d="M21.9181 82.0928H19.9385V84.0724H21.9181V82.0928Z" fill="#594A39"/>
<path d="M25.878 82.0928H23.8984V84.0724H25.878V82.0928Z" fill="#594A39"/>
<path d="M27.8575 82.0928H25.8779V84.0724H27.8575V82.0928Z" fill="#594A39"/>
<path d="M29.837 82.0928H27.8574V84.0724H29.837V82.0928Z" fill="#594A39"/>
<path d="M31.8165 82.0928H29.8369V84.0724H31.8165V82.0928Z" fill="#594A39"/>
<path d="M33.796 82.0928H31.8164V84.0724H33.796V82.0928Z" fill="#594A39"/>
<path d="M35.7755 82.0928H33.7959V84.0724H35.7755V82.0928Z" fill="#594A39"/>
<path d="M41.714 82.0928H39.7344V84.0724H41.714V82.0928Z" fill="#594A39"/>
<path d="M43.6935 82.0928H41.7139V84.0724H43.6935V82.0928Z" fill="#594A39"/>
<path d="M45.6739 82.0928H43.6943V84.0724H45.6739V82.0928Z" fill="#594A39"/>
<path d="M49.6329 82.0928H47.6533V84.0724H49.6329V82.0928Z" fill="#594A39"/>
<path d="M51.6124 82.0928H49.6328V84.0724H51.6124V82.0928Z" fill="#594A39"/>
<path d="M55.5714 82.0928H53.5918V84.0724H55.5714V82.0928Z" fill="#594A39"/>
<path d="M57.5509 82.0928H55.5713V84.0724H57.5509V82.0928Z" fill="#594A39"/>
<path d="M67.4493 82.0928H65.4697V84.0724H67.4493V82.0928Z" fill="#594A39"/>
<path d="M81.3058 82.0928H79.3262V84.0724H81.3058V82.0928Z" fill="#594A39"/>
<path d="M83.2853 82.0928H81.3057V84.0724H83.2853V82.0928Z" fill="#594A39"/>
<path d="M87.2452 82.0928H85.2656V84.0724H87.2452V82.0928Z" fill="#594A39"/>
<path d="M91.2042 82.0928H89.2246V84.0724H91.2042V82.0928Z" fill="#594A39"/>
<path d="M95.1632 82.0928H93.1836V84.0724H95.1632V82.0928Z" fill="#594A39"/>
<path d="M103.081 82.0928H101.102V84.0724H103.081V82.0928Z" fill="#594A39"/>
<path d="M105.062 82.0928H103.082V84.0724H105.062V82.0928Z" fill="#594A39"/>
<path d="M109.021 82.0928H107.041V84.0724H109.021V82.0928Z" fill="#594A39"/>
<path d="M111 82.0928H109.021V84.0724H111V82.0928Z" fill="#594A39"/>
<path d="M19.9386 84.0723H17.959V86.0519H19.9386V84.0723Z" fill="#594A39"/>
<path d="M23.8976 84.0723H21.918V86.0519H23.8976V84.0723Z" fill="#594A39"/>
<path d="M25.878 84.0723H23.8984V86.0519H25.878V84.0723Z" fill="#594A39"/>
<path d="M33.796 84.0723H31.8164V86.0519H33.796V84.0723Z" fill="#594A39"/>
<path d="M39.7345 84.0723H37.7549V86.0519H39.7345V84.0723Z" fill="#594A39"/>
<path d="M41.714 84.0723H39.7344V86.0519H41.714V84.0723Z" fill="#594A39"/>
<path d="M43.6935 84.0723H41.7139V86.0519H43.6935V84.0723Z" fill="#594A39"/>
<path d="M45.6739 84.0723H43.6943V86.0519H45.6739V84.0723Z" fill="#594A39"/>
<path d="M67.4493 84.0723H65.4697V86.0519H67.4493V84.0723Z" fill="#594A39"/>
<path d="M69.4288 84.0723H67.4492V86.0519H69.4288V84.0723Z" fill="#594A39"/>
<path d="M71.4083 84.0723H69.4287V86.0519H71.4083V84.0723Z" fill="#594A39"/>
<path d="M73.3878 84.0723H71.4082V86.0519H73.3878V84.0723Z" fill="#594A39"/>
<path d="M77.3468 84.0723H75.3672V86.0519H77.3468V84.0723Z" fill="#594A39"/>
<path d="M79.3263 84.0723H77.3467V86.0519H79.3263V84.0723Z" fill="#594A39"/>
<path d="M81.3058 84.0723H79.3262V86.0519H81.3058V84.0723Z" fill="#594A39"/>
<path d="M93.1837 84.0723H91.2041V86.0519H93.1837V84.0723Z" fill="#594A39"/>
<path d="M97.1427 84.0723H95.1631V86.0519H97.1427V84.0723Z" fill="#594A39"/>
<path d="M99.1222 84.0723H97.1426V86.0519H99.1222V84.0723Z" fill="#594A39"/>
<path d="M101.102 84.0723H99.1221V86.0519H101.102V84.0723Z" fill="#594A39"/>
<path d="M103.081 84.0723H101.102V86.0519H103.081V84.0723Z" fill="#594A39"/>
<path d="M109.021 84.0723H107.041V86.0519H109.021V84.0723Z" fill="#594A39"/>
<path d="M111 84.0723H109.021V86.0519H111V84.0723Z" fill="#594A39"/>
<path d="M17.9591 86.0518H15.9795V88.0313H17.9591V86.0518Z" fill="#594A39"/>
<path d="M21.9181 86.0518H19.9385V88.0313H21.9181V86.0518Z" fill="#594A39"/>
<path d="M25.878 86.0518H23.8984V88.0313H25.878V86.0518Z" fill="#594A39"/>
<path d="M27.8575 86.0518H25.8779V88.0313H27.8575V86.0518Z" fill="#594A39"/>
<path d="M33.796 86.0518H31.8164V88.0313H33.796V86.0518Z" fill="#594A39"/>
<path d="M35.7755 86.0518H33.7959V88.0313H35.7755V86.0518Z" fill="#594A39"/>
<path d="M37.755 86.0518H35.7754V88.0313H37.755V86.0518Z" fill="#594A39"/>
<path d="M45.6739 86.0518H43.6943V88.0313H45.6739V86.0518Z" fill="#594A39"/>
<path d="M47.6534 86.0518H45.6738V88.0313H47.6534V86.0518Z" fill="#594A39"/>
<path d="M53.5919 86.0518H51.6123V88.0313H53.5919V86.0518Z" fill="#594A39"/>
<path d="M55.5714 86.0518H53.5918V88.0313H55.5714V86.0518Z" fill="#594A39"/>
<path d="M57.5509 86.0518H55.5713V88.0313H57.5509V86.0518Z" fill="#594A39"/>
<path d="M59.5304 86.0518H57.5508V88.0313H59.5304V86.0518Z" fill="#594A39"/>
<path d="M61.5099 86.0518H59.5303V88.0313H61.5099V86.0518Z" fill="#594A39"/>
<path d="M63.4894 86.0518H61.5098V88.0313H63.4894V86.0518Z" fill="#594A39"/>
<path d="M65.4698 86.0518H63.4902V88.0313H65.4698V86.0518Z" fill="#594A39"/>
<path d="M77.3468 86.0518H75.3672V88.0313H77.3468V86.0518Z" fill="#594A39"/>
<path d="M83.2853 86.0518H81.3057V88.0313H83.2853V86.0518Z" fill="#594A39"/>
<path d="M85.2657 86.0518H83.2861V88.0313H85.2657V86.0518Z" fill="#594A39"/>
<path d="M87.2452 86.0518H85.2656V88.0313H87.2452V86.0518Z" fill="#594A39"/>
<path d="M91.2042 86.0518H89.2246V88.0313H91.2042V86.0518Z" fill="#594A39"/>
<path d="M93.1837 86.0518H91.2041V88.0313H93.1837V86.0518Z" fill="#594A39"/>
<path d="M95.1632 86.0518H93.1836V88.0313H95.1632V86.0518Z" fill="#594A39"/>
<path d="M97.1427 86.0518H95.1631V88.0313H97.1427V86.0518Z" fill="#594A39"/>
<path d="M99.1222 86.0518H97.1426V88.0313H99.1222V86.0518Z" fill="#594A39"/>
<path d="M107.041 86.0518H105.062V88.0313H107.041V86.0518Z" fill="#594A39"/>
<path d="M25.878 88.0312H23.8984V90.0108H25.878V88.0312Z" fill="#594A39"/>
<path d="M29.837 88.0312H27.8574V90.0108H29.837V88.0312Z" fill="#594A39"/>
<path d="M33.796 88.0312H31.8164V90.0108H33.796V88.0312Z" fill="#594A39"/>
<path d="M35.7755 88.0312H33.7959V90.0108H35.7755V88.0312Z" fill="#594A39"/>
<path d="M39.7345 88.0312H37.7549V90.0108H39.7345V88.0312Z" fill="#594A39"/>
<path d="M43.6935 88.0312H41.7139V90.0108H43.6935V88.0312Z" fill="#594A39"/>
<path d="M61.5099 88.0312H59.5303V90.0108H61.5099V88.0312Z" fill="#594A39"/>
<path d="M65.4698 88.0312H63.4902V90.0108H65.4698V88.0312Z" fill="#594A39"/>
<path d="M69.4288 88.0312H67.4492V90.0108H69.4288V88.0312Z" fill="#594A39"/>
<path d="M71.4083 88.0312H69.4287V90.0108H71.4083V88.0312Z" fill="#594A39"/>
<path d="M73.3878 88.0312H71.4082V90.0108H73.3878V88.0312Z" fill="#594A39"/>
<path d="M75.3673 88.0312H73.3877V90.0108H75.3673V88.0312Z" fill="#594A39"/>
<path d="M77.3468 88.0312H75.3672V90.0108H77.3468V88.0312Z" fill="#594A39"/>
<path d="M89.2247 88.0312H87.2451V90.0108H89.2247V88.0312Z" fill="#594A39"/>
<path d="M97.1427 88.0312H95.1631V90.0108H97.1427V88.0312Z" fill="#594A39"/>
<path d="M99.1222 88.0312H97.1426V90.0108H99.1222V88.0312Z" fill="#594A39"/>
<path d="M101.102 88.0312H99.1221V90.0108H101.102V88.0312Z" fill="#594A39"/>
<path d="M103.081 88.0312H101.102V90.0108H103.081V88.0312Z" fill="#594A39"/>
<path d="M15.9796 90.0107H14V91.9903H15.9796V90.0107Z" fill="#594A39"/>
<path d="M17.9591 90.0107H15.9795V91.9903H17.9591V90.0107Z" fill="#594A39"/>
<path d="M19.9386 90.0107H17.959V91.9903H19.9386V90.0107Z" fill="#594A39"/>
<path d="M21.9181 90.0107H19.9385V91.9903H21.9181V90.0107Z" fill="#594A39"/>
<path d="M23.8976 90.0107H21.918V91.9903H23.8976V90.0107Z" fill="#594A39"/>
<path d="M25.878 90.0107H23.8984V91.9903H25.878V90.0107Z" fill="#594A39"/>
<path d="M27.8575 90.0107H25.8779V91.9903H27.8575V90.0107Z" fill="#594A39"/>
<path d="M29.837 90.0107H27.8574V91.9903H29.837V90.0107Z" fill="#594A39"/>
<path d="M31.8165 90.0107H29.8369V91.9903H31.8165V90.0107Z" fill="#594A39"/>
<path d="M41.714 90.0107H39.7344V91.9903H41.714V90.0107Z" fill="#594A39"/>
<path d="M43.6935 90.0107H41.7139V91.9903H43.6935V90.0107Z" fill="#594A39"/>
<path d="M47.6534 90.0107H45.6738V91.9903H47.6534V90.0107Z" fill="#594A39"/>
<path d="M49.6329 90.0107H47.6533V91.9903H49.6329V90.0107Z" fill="#594A39"/>
<path d="M51.6124 90.0107H49.6328V91.9903H51.6124V90.0107Z" fill="#594A39"/>
<path d="M55.5714 90.0107H53.5918V91.9903H55.5714V90.0107Z" fill="#594A39"/>
<path d="M59.5304 90.0107H57.5508V91.9903H59.5304V90.0107Z" fill="#594A39"/>
<path d="M61.5099 90.0107H59.5303V91.9903H61.5099V90.0107Z" fill="#594A39"/>
<path d="M63.4894 90.0107H61.5098V91.9903H63.4894V90.0107Z" fill="#594A39"/>
<path d="M65.4698 90.0107H63.4902V91.9903H65.4698V90.0107Z" fill="#594A39"/>
<path d="M67.4493 90.0107H65.4697V91.9903H67.4493V90.0107Z" fill="#594A39"/>
<path d="M71.4083 90.0107H69.4287V91.9903H71.4083V90.0107Z" fill="#594A39"/>
<path d="M79.3263 90.0107H77.3467V91.9903H79.3263V90.0107Z" fill="#594A39"/>
<path d="M83.2853 90.0107H81.3057V91.9903H83.2853V90.0107Z" fill="#594A39"/>
<path d="M85.2657 90.0107H83.2861V91.9903H85.2657V90.0107Z" fill="#594A39"/>
<path d="M91.2042 90.0107H89.2246V91.9903H91.2042V90.0107Z" fill="#594A39"/>
<path d="M95.1632 90.0107H93.1836V91.9903H95.1632V90.0107Z" fill="#594A39"/>
<path d="M97.1427 90.0107H95.1631V91.9903H97.1427V90.0107Z" fill="#594A39"/>
<path d="M99.1222 90.0107H97.1426V91.9903H99.1222V90.0107Z" fill="#594A39"/>
<path d="M101.102 90.0107H99.1221V91.9903H101.102V90.0107Z" fill="#594A39"/>
<path d="M103.081 90.0107H101.102V91.9903H103.081V90.0107Z" fill="#594A39"/>
<path d="M111 90.0107H109.021V91.9903H111V90.0107Z" fill="#594A39"/>
<path d="M15.9796 91.9902H14V93.9698H15.9796V91.9902Z" fill="#594A39"/>
<path d="M17.9591 91.9902H15.9795V93.9698H17.9591V91.9902Z" fill="#594A39"/>
<path d="M21.9181 91.9902H19.9385V93.9698H21.9181V91.9902Z" fill="#594A39"/>
<path d="M23.8976 91.9902H21.918V93.9698H23.8976V91.9902Z" fill="#594A39"/>
<path d="M31.8165 91.9902H29.8369V93.9698H31.8165V91.9902Z" fill="#594A39"/>
<path d="M33.796 91.9902H31.8164V93.9698H33.796V91.9902Z" fill="#594A39"/>
<path d="M35.7755 91.9902H33.7959V93.9698H35.7755V91.9902Z" fill="#594A39"/>
<path d="M39.7345 91.9902H37.7549V93.9698H39.7345V91.9902Z" fill="#594A39"/>
<path d="M41.714 91.9902H39.7344V93.9698H41.714V91.9902Z" fill="#594A39"/>
<path d="M45.6739 91.9902H43.6943V93.9698H45.6739V91.9902Z" fill="#594A39"/>
<path d="M47.6534 91.9902H45.6738V93.9698H47.6534V91.9902Z" fill="#594A39"/>
<path d="M49.6329 91.9902H47.6533V93.9698H49.6329V91.9902Z" fill="#594A39"/>
<path d="M51.6124 91.9902H49.6328V93.9698H51.6124V91.9902Z" fill="#594A39"/>
<path d="M53.5919 91.9902H51.6123V93.9698H53.5919V91.9902Z" fill="#594A39"/>
<path d="M57.5509 91.9902H55.5713V93.9698H57.5509V91.9902Z" fill="#594A39"/>
<path d="M59.5304 91.9902H57.5508V93.9698H59.5304V91.9902Z" fill="#594A39"/>
<path d="M67.4493 91.9902H65.4697V93.9698H67.4493V91.9902Z" fill="#594A39"/>
<path d="M71.4083 91.9902H69.4287V93.9698H71.4083V91.9902Z" fill="#594A39"/>
<path d="M79.3263 91.9902H77.3467V93.9698H79.3263V91.9902Z" fill="#594A39"/>
<path d="M81.3058 91.9902H79.3262V93.9698H81.3058V91.9902Z" fill="#594A39"/>
<path d="M95.1632 91.9902H93.1836V93.9698H95.1632V91.9902Z" fill="#594A39"/>
<path d="M103.081 91.9902H101.102V93.9698H103.081V91.9902Z" fill="#594A39"/>
<path d="M111 91.9902H109.021V93.9698H111V91.9902Z" fill="#594A39"/>
<path d="M19.9386 93.9697H17.959V95.9493H19.9386V93.9697Z" fill="#594A39"/>
<path d="M23.8976 93.9697H21.918V95.9493H23.8976V93.9697Z" fill="#594A39"/>
<path d="M27.8575 93.9697H25.8779V95.9493H27.8575V93.9697Z" fill="#594A39"/>
<path d="M31.8165 93.9697H29.8369V95.9493H31.8165V93.9697Z" fill="#594A39"/>
<path d="M33.796 93.9697H31.8164V95.9493H33.796V93.9697Z" fill="#594A39"/>
<path d="M37.755 93.9697H35.7754V95.9493H37.755V93.9697Z" fill="#594A39"/>
<path d="M39.7345 93.9697H37.7549V95.9493H39.7345V93.9697Z" fill="#594A39"/>
<path d="M41.714 93.9697H39.7344V95.9493H41.714V93.9697Z" fill="#594A39"/>
<path d="M45.6739 93.9697H43.6943V95.9493H45.6739V93.9697Z" fill="#594A39"/>
<path d="M53.5919 93.9697H51.6123V95.9493H53.5919V93.9697Z" fill="#594A39"/>
<path d="M57.5509 93.9697H55.5713V95.9493H57.5509V93.9697Z" fill="#594A39"/>
<path d="M59.5304 93.9697H57.5508V95.9493H59.5304V93.9697Z" fill="#594A39"/>
<path d="M63.4894 93.9697H61.5098V95.9493H63.4894V93.9697Z" fill="#594A39"/>
<path d="M67.4493 93.9697H65.4697V95.9493H67.4493V93.9697Z" fill="#594A39"/>
<path d="M69.4288 93.9697H67.4492V95.9493H69.4288V93.9697Z" fill="#594A39"/>
<path d="M73.3878 93.9697H71.4082V95.9493H73.3878V93.9697Z" fill="#594A39"/>
<path d="M75.3673 93.9697H73.3877V95.9493H75.3673V93.9697Z" fill="#594A39"/>
<path d="M83.2853 93.9697H81.3057V95.9493H83.2853V93.9697Z" fill="#594A39"/>
<path d="M85.2657 93.9697H83.2861V95.9493H85.2657V93.9697Z" fill="#594A39"/>
<path d="M87.2452 93.9697H85.2656V95.9493H87.2452V93.9697Z" fill="#594A39"/>
<path d="M89.2247 93.9697H87.2451V95.9493H89.2247V93.9697Z" fill="#594A39"/>
<path d="M91.2042 93.9697H89.2246V95.9493H91.2042V93.9697Z" fill="#594A39"/>
<path d="M93.1837 93.9697H91.2041V95.9493H93.1837V93.9697Z" fill="#594A39"/>
<path d="M95.1632 93.9697H93.1836V95.9493H95.1632V93.9697Z" fill="#594A39"/>
<path d="M99.1222 93.9697H97.1426V95.9493H99.1222V93.9697Z" fill="#594A39"/>
<path d="M103.081 93.9697H101.102V95.9493H103.081V93.9697Z" fill="#594A39"/>
<path d="M105.062 93.9697H103.082V95.9493H105.062V93.9697Z" fill="#594A39"/>
<path d="M107.041 93.9697H105.062V95.9493H107.041V93.9697Z" fill="#594A39"/>
<path d="M111 93.9697H109.021V95.9493H111V93.9697Z" fill="#594A39"/>
<path d="M19.9386 95.9502H17.959V97.9298H19.9386V95.9502Z" fill="#594A39"/>
<path d="M23.8976 95.9502H21.918V97.9298H23.8976V95.9502Z" fill="#594A39"/>
<path d="M31.8165 95.9502H29.8369V97.9298H31.8165V95.9502Z" fill="#594A39"/>
<path d="M41.714 95.9502H39.7344V97.9298H41.714V95.9502Z" fill="#594A39"/>
<path d="M45.6739 95.9502H43.6943V97.9298H45.6739V95.9502Z" fill="#594A39"/>
<path d="M47.6534 95.9502H45.6738V97.9298H47.6534V95.9502Z" fill="#594A39"/>
<path d="M49.6329 95.9502H47.6533V97.9298H49.6329V95.9502Z" fill="#594A39"/>
<path d="M51.6124 95.9502H49.6328V97.9298H51.6124V95.9502Z" fill="#594A39"/>
<path d="M53.5919 95.9502H51.6123V97.9298H53.5919V95.9502Z" fill="#594A39"/>
<path d="M57.5509 95.9502H55.5713V97.9298H57.5509V95.9502Z" fill="#594A39"/>
<path d="M59.5304 95.9502H57.5508V97.9298H59.5304V95.9502Z" fill="#594A39"/>
<path d="M67.4493 95.9502H65.4697V97.9298H67.4493V95.9502Z" fill="#594A39"/>
<path d="M73.3878 95.9502H71.4082V97.9298H73.3878V95.9502Z" fill="#594A39"/>
<path d="M75.3673 95.9502H73.3877V97.9298H75.3673V95.9502Z" fill="#594A39"/>
<path d="M87.2452 95.9502H85.2656V97.9298H87.2452V95.9502Z" fill="#594A39"/>
<path d="M89.2247 95.9502H87.2451V97.9298H89.2247V95.9502Z" fill="#594A39"/>
<path d="M93.1837 95.9502H91.2041V97.9298H93.1837V95.9502Z" fill="#594A39"/>
<path d="M95.1632 95.9502H93.1836V97.9298H95.1632V95.9502Z" fill="#594A39"/>
<path d="M103.081 95.9502H101.102V97.9298H103.081V95.9502Z" fill="#594A39"/>
<path d="M109.021 95.9502H107.041V97.9298H109.021V95.9502Z" fill="#594A39"/>
<path d="M15.9796 97.9297H14V99.9093H15.9796V97.9297Z" fill="#594A39"/>
<path d="M19.9386 97.9297H17.959V99.9093H19.9386V97.9297Z" fill="#594A39"/>
<path d="M21.9181 97.9297H19.9385V99.9093H21.9181V97.9297Z" fill="#594A39"/>
<path d="M23.8976 97.9297H21.918V99.9093H23.8976V97.9297Z" fill="#594A39"/>
<path d="M25.878 97.9297H23.8984V99.9093H25.878V97.9297Z" fill="#594A39"/>
<path d="M27.8575 97.9297H25.8779V99.9093H27.8575V97.9297Z" fill="#594A39"/>
<path d="M29.837 97.9297H27.8574V99.9093H29.837V97.9297Z" fill="#594A39"/>
<path d="M31.8165 97.9297H29.8369V99.9093H31.8165V97.9297Z" fill="#594A39"/>
<path d="M33.796 97.9297H31.8164V99.9093H33.796V97.9297Z" fill="#594A39"/>
<path d="M35.7755 97.9297H33.7959V99.9093H35.7755V97.9297Z" fill="#594A39"/>
<path d="M39.7345 97.9297H37.7549V99.9093H39.7345V97.9297Z" fill="#594A39"/>
<path d="M41.714 97.9297H39.7344V99.9093H41.714V97.9297Z" fill="#594A39"/>
<path d="M43.6935 97.9297H41.7139V99.9093H43.6935V97.9297Z" fill="#594A39"/>
<path d="M45.6739 97.9297H43.6943V99.9093H45.6739V97.9297Z" fill="#594A39"/>
<path d="M49.6329 97.9297H47.6533V99.9093H49.6329V97.9297Z" fill="#594A39"/>
<path d="M53.5919 97.9297H51.6123V99.9093H53.5919V97.9297Z" fill="#594A39"/>
<path d="M55.5714 97.9297H53.5918V99.9093H55.5714V97.9297Z" fill="#594A39"/>
<path d="M59.5304 97.9297H57.5508V99.9093H59.5304V97.9297Z" fill="#594A39"/>
<path d="M61.5099 97.9297H59.5303V99.9093H61.5099V97.9297Z" fill="#594A39"/>
<path d="M63.4894 97.9297H61.5098V99.9093H63.4894V97.9297Z" fill="#594A39"/>
<path d="M65.4698 97.9297H63.4902V99.9093H65.4698V97.9297Z" fill="#594A39"/>
<path d="M67.4493 97.9297H65.4697V99.9093H67.4493V97.9297Z" fill="#594A39"/>
<path d="M69.4288 97.9297H67.4492V99.9093H69.4288V97.9297Z" fill="#594A39"/>
<path d="M77.3468 97.9297H75.3672V99.9093H77.3468V97.9297Z" fill="#594A39"/>
<path d="M81.3058 97.9297H79.3262V99.9093H81.3058V97.9297Z" fill="#594A39"/>
<path d="M83.2853 97.9297H81.3057V99.9093H83.2853V97.9297Z" fill="#594A39"/>
<path d="M85.2657 97.9297H83.2861V99.9093H85.2657V97.9297Z" fill="#594A39"/>
<path d="M87.2452 97.9297H85.2656V99.9093H87.2452V97.9297Z" fill="#594A39"/>
<path d="M89.2247 97.9297H87.2451V99.9093H89.2247V97.9297Z" fill="#594A39"/>
<path d="M91.2042 97.9297H89.2246V99.9093H91.2042V97.9297Z" fill="#594A39"/>
<path d="M95.1632 97.9297H93.1836V99.9093H95.1632V97.9297Z" fill="#594A39"/>
<path d="M97.1427 97.9297H95.1631V99.9093H97.1427V97.9297Z" fill="#594A39"/>
<path d="M99.1222 97.9297H97.1426V99.9093H99.1222V97.9297Z" fill="#594A39"/>
<path d="M101.102 97.9297H99.1221V99.9093H101.102V97.9297Z" fill="#594A39"/>
<path d="M103.081 97.9297H101.102V99.9093H103.081V97.9297Z" fill="#594A39"/>
<path d="M105.062 97.9297H103.082V99.9093H105.062V97.9297Z" fill="#594A39"/>
<path d="M109.021 97.9297H107.041V99.9093H109.021V97.9297Z" fill="#594A39"/>
<path d="M111 97.9297H109.021V99.9093H111V97.9297Z" fill="#594A39"/>
<path d="M15.9796 99.9092H14V101.889H15.9796V99.9092Z" fill="#594A39"/>
<path d="M21.9181 99.9092H19.9385V101.889H21.9181V99.9092Z" fill="#594A39"/>
<path d="M25.878 99.9092H23.8984V101.889H25.878V99.9092Z" fill="#594A39"/>
<path d="M29.837 99.9092H27.8574V101.889H29.837V99.9092Z" fill="#594A39"/>
<path d="M31.8165 99.9092H29.8369V101.889H31.8165V99.9092Z" fill="#594A39"/>
<path d="M37.755 99.9092H35.7754V101.889H37.755V99.9092Z" fill="#594A39"/>
<path d="M43.6935 99.9092H41.7139V101.889H43.6935V99.9092Z" fill="#594A39"/>
<path d="M47.6534 99.9092H45.6738V101.889H47.6534V99.9092Z" fill="#594A39"/>
<path d="M51.6124 99.9092H49.6328V101.889H51.6124V99.9092Z" fill="#594A39"/>
<path d="M53.5919 99.9092H51.6123V101.889H53.5919V99.9092Z" fill="#594A39"/>
<path d="M55.5714 99.9092H53.5918V101.889H55.5714V99.9092Z" fill="#594A39"/>
<path d="M57.5509 99.9092H55.5713V101.889H57.5509V99.9092Z" fill="#594A39"/>
<path d="M59.5304 99.9092H57.5508V101.889H59.5304V99.9092Z" fill="#594A39"/>
<path d="M63.4894 99.9092H61.5098V101.889H63.4894V99.9092Z" fill="#594A39"/>
<path d="M67.4493 99.9092H65.4697V101.889H67.4493V99.9092Z" fill="#594A39"/>
<path d="M69.4288 99.9092H67.4492V101.889H69.4288V99.9092Z" fill="#594A39"/>
<path d="M71.4083 99.9092H69.4287V101.889H71.4083V99.9092Z" fill="#594A39"/>
<path d="M73.3878 99.9092H71.4082V101.889H73.3878V99.9092Z" fill="#594A39"/>
<path d="M75.3673 99.9092H73.3877V101.889H75.3673V99.9092Z" fill="#594A39"/>
<path d="M79.3263 99.9092H77.3467V101.889H79.3263V99.9092Z" fill="#594A39"/>
<path d="M95.1632 99.9092H93.1836V101.889H95.1632V99.9092Z" fill="#594A39"/>
<path d="M105.062 99.9092H103.082V101.889H105.062V99.9092Z" fill="#594A39"/>
<path d="M109.021 99.9092H107.041V101.889H109.021V99.9092Z" fill="#594A39"/>
<path d="M111 99.9092H109.021V101.889H111V99.9092Z" fill="#594A39"/>
<path d="M21.9181 101.889H19.9385V103.868H21.9181V101.889Z" fill="#594A39"/>
<path d="M25.878 101.889H23.8984V103.868H25.878V101.889Z" fill="#594A39"/>
<path d="M27.8575 101.889H25.8779V103.868H27.8575V101.889Z" fill="#594A39"/>
<path d="M31.8165 101.889H29.8369V103.868H31.8165V101.889Z" fill="#594A39"/>
<path d="M41.714 101.889H39.7344V103.868H41.714V101.889Z" fill="#594A39"/>
<path d="M43.6935 101.889H41.7139V103.868H43.6935V101.889Z" fill="#594A39"/>
<path d="M49.6329 101.889H47.6533V103.868H49.6329V101.889Z" fill="#594A39"/>
<path d="M51.6124 101.889H49.6328V103.868H51.6124V101.889Z" fill="#594A39"/>
<path d="M53.5919 101.889H51.6123V103.868H53.5919V101.889Z" fill="#594A39"/>
<path d="M65.4698 101.889H63.4902V103.868H65.4698V101.889Z" fill="#594A39"/>
<path d="M69.4288 101.889H67.4492V103.868H69.4288V101.889Z" fill="#594A39"/>
<path d="M75.3673 101.889H73.3877V103.868H75.3673V101.889Z" fill="#594A39"/>
<path d="M77.3468 101.889H75.3672V103.868H77.3468V101.889Z" fill="#594A39"/>
<path d="M85.2657 101.889H83.2861V103.868H85.2657V101.889Z" fill="#594A39"/>
<path d="M87.2452 101.889H85.2656V103.868H87.2452V101.889Z" fill="#594A39"/>
<path d="M89.2247 101.889H87.2451V103.868H89.2247V101.889Z" fill="#594A39"/>
<path d="M93.1837 101.889H91.2041V103.868H93.1837V101.889Z" fill="#594A39"/>
<path d="M97.1427 101.889H95.1631V103.868H97.1427V101.889Z" fill="#594A39"/>
<path d="M99.1222 101.889H97.1426V103.868H99.1222V101.889Z" fill="#594A39"/>
<path d="M103.081 101.889H101.102V103.868H103.081V101.889Z" fill="#594A39"/>
<path d="M107.041 101.889H105.062V103.868H107.041V101.889Z" fill="#594A39"/>
<path d="M111 101.889H109.021V103.868H111V101.889Z" fill="#594A39"/>
<path d="M19.9386 103.868H17.959V105.848H19.9386V103.868Z" fill="#594A39"/>
<path d="M29.837 103.868H27.8574V105.848H29.837V103.868Z" fill="#594A39"/>
<path d="M33.796 103.868H31.8164V105.848H33.796V103.868Z" fill="#594A39"/>
<path d="M35.7755 103.868H33.7959V105.848H35.7755V103.868Z" fill="#594A39"/>
<path d="M37.755 103.868H35.7754V105.848H37.755V103.868Z" fill="#594A39"/>
<path d="M39.7345 103.868H37.7549V105.848H39.7345V103.868Z" fill="#594A39"/>
<path d="M45.6739 103.868H43.6943V105.848H45.6739V103.868Z" fill="#594A39"/>
<path d="M47.6534 103.868H45.6738V105.848H47.6534V103.868Z" fill="#594A39"/>
<path d="M49.6329 103.868H47.6533V105.848H49.6329V103.868Z" fill="#594A39"/>
<path d="M51.6124 103.868H49.6328V105.848H51.6124V103.868Z" fill="#594A39"/>
<path d="M57.5509 103.868H55.5713V105.848H57.5509V103.868Z" fill="#594A39"/>
<path d="M61.5099 103.868H59.5303V105.848H61.5099V103.868Z" fill="#594A39"/>
<path d="M63.4894 103.868H61.5098V105.848H63.4894V103.868Z" fill="#594A39"/>
<path d="M65.4698 103.868H63.4902V105.848H65.4698V103.868Z" fill="#594A39"/>
<path d="M67.4493 103.868H65.4697V105.848H67.4493V103.868Z" fill="#594A39"/>
<path d="M73.3878 103.868H71.4082V105.848H73.3878V103.868Z" fill="#594A39"/>
<path d="M75.3673 103.868H73.3877V105.848H75.3673V103.868Z" fill="#594A39"/>
<path d="M77.3468 103.868H75.3672V105.848H77.3468V103.868Z" fill="#594A39"/>
<path d="M81.3058 103.868H79.3262V105.848H81.3058V103.868Z" fill="#594A39"/>
<path d="M89.2247 103.868H87.2451V105.848H89.2247V103.868Z" fill="#594A39"/>
<path d="M95.1632 103.868H93.1836V105.848H95.1632V103.868Z" fill="#594A39"/>
<path d="M97.1427 103.868H95.1631V105.848H97.1427V103.868Z" fill="#594A39"/>
<path d="M99.1222 103.868H97.1426V105.848H99.1222V103.868Z" fill="#594A39"/>
<path d="M101.102 103.868H99.1221V105.848H101.102V103.868Z" fill="#594A39"/>
<path d="M105.062 103.868H103.082V105.848H105.062V103.868Z" fill="#594A39"/>
<path d="M15.9796 105.848H14V107.827H15.9796V105.848Z" fill="#594A39"/>
<path d="M17.9591 105.848H15.9795V107.827H17.9591V105.848Z" fill="#594A39"/>
<path d="M21.9181 105.848H19.9385V107.827H21.9181V105.848Z" fill="#594A39"/>
<path d="M27.8575 105.848H25.8779V107.827H27.8575V105.848Z" fill="#594A39"/>
<path d="M35.7755 105.848H33.7959V107.827H35.7755V105.848Z" fill="#594A39"/>
<path d="M37.755 105.848H35.7754V107.827H37.755V105.848Z" fill="#594A39"/>
<path d="M45.6739 105.848H43.6943V107.827H45.6739V105.848Z" fill="#594A39"/>
<path d="M47.6534 105.848H45.6738V107.827H47.6534V105.848Z" fill="#594A39"/>
<path d="M51.6124 105.848H49.6328V107.827H51.6124V105.848Z" fill="#594A39"/>
<path d="M53.5919 105.848H51.6123V107.827H53.5919V105.848Z" fill="#594A39"/>
<path d="M57.5509 105.848H55.5713V107.827H57.5509V105.848Z" fill="#594A39"/>
<path d="M59.5304 105.848H57.5508V107.827H59.5304V105.848Z" fill="#594A39"/>
<path d="M71.4083 105.848H69.4287V107.827H71.4083V105.848Z" fill="#594A39"/>
<path d="M75.3673 105.848H73.3877V107.827H75.3673V105.848Z" fill="#594A39"/>
<path d="M83.2853 105.848H81.3057V107.827H83.2853V105.848Z" fill="#594A39"/>
<path d="M85.2657 105.848H83.2861V107.827H85.2657V105.848Z" fill="#594A39"/>
<path d="M87.2452 105.848H85.2656V107.827H87.2452V105.848Z" fill="#594A39"/>
<path d="M91.2042 105.848H89.2246V107.827H91.2042V105.848Z" fill="#594A39"/>
<path d="M93.1837 105.848H91.2041V107.827H93.1837V105.848Z" fill="#594A39"/>
<path d="M99.1222 105.848H97.1426V107.827H99.1222V105.848Z" fill="#594A39"/>
<path d="M103.081 105.848H101.102V107.827H103.081V105.848Z" fill="#594A39"/>
<path d="M107.041 105.848H105.062V107.827H107.041V105.848Z" fill="#594A39"/>
<path d="M109.021 105.848H107.041V107.827H109.021V105.848Z" fill="#594A39"/>
<path d="M111 105.848H109.021V107.827H111V105.848Z" fill="#594A39"/>
<path d="M15.9796 107.827H14V109.807H15.9796V107.827Z" fill="#594A39"/>
<path d="M17.9591 107.827H15.9795V109.807H17.9591V107.827Z" fill="#594A39"/>
<path d="M21.9181 107.827H19.9385V109.807H21.9181V107.827Z" fill="#594A39"/>
<path d="M23.8976 107.827H21.918V109.807H23.8976V107.827Z" fill="#594A39"/>
<path d="M31.8165 107.827H29.8369V109.807H31.8165V107.827Z" fill="#594A39"/>
<path d="M33.796 107.827H31.8164V109.807H33.796V107.827Z" fill="#594A39"/>
<path d="M41.714 107.827H39.7344V109.807H41.714V107.827Z" fill="#594A39"/>
<path d="M47.6534 107.827H45.6738V109.807H47.6534V107.827Z" fill="#594A39"/>
<path d="M49.6329 107.827H47.6533V109.807H49.6329V107.827Z" fill="#594A39"/>
<path d="M57.5509 107.827H55.5713V109.807H57.5509V107.827Z" fill="#594A39"/>
<path d="M61.5099 107.827H59.5303V109.807H61.5099V107.827Z" fill="#594A39"/>
<path d="M63.4894 107.827H61.5098V109.807H63.4894V107.827Z" fill="#594A39"/>
<path d="M67.4493 107.827H65.4697V109.807H67.4493V107.827Z" fill="#594A39"/>
<path d="M71.4083 107.827H69.4287V109.807H71.4083V107.827Z" fill="#594A39"/>
<path d="M73.3878 107.827H71.4082V109.807H73.3878V107.827Z" fill="#594A39"/>
<path d="M75.3673 107.827H73.3877V109.807H75.3673V107.827Z" fill="#594A39"/>
<path d="M87.2452 107.827H85.2656V109.807H87.2452V107.827Z" fill="#594A39"/>
<path d="M89.2247 107.827H87.2451V109.807H89.2247V107.827Z" fill="#594A39"/>
<path d="M97.1427 107.827H95.1631V109.807H97.1427V107.827Z" fill="#594A39"/>
<path d="M111 107.827H109.021V109.807H111V107.827Z" fill="#594A39"/>
<path d="M17.9591 109.807H15.9795V111.786H17.9591V109.807Z" fill="#594A39"/>
<path d="M19.9386 109.807H17.959V111.786H19.9386V109.807Z" fill="#594A39"/>
<path d="M21.9181 109.807H19.9385V111.786H21.9181V109.807Z" fill="#594A39"/>
<path d="M27.8575 109.807H25.8779V111.786H27.8575V109.807Z" fill="#594A39"/>
<path d="M29.837 109.807H27.8574V111.786H29.837V109.807Z" fill="#594A39"/>
<path d="M37.755 109.807H35.7754V111.786H37.755V109.807Z" fill="#594A39"/>
<path d="M41.714 109.807H39.7344V111.786H41.714V109.807Z" fill="#594A39"/>
<path d="M51.6124 109.807H49.6328V111.786H51.6124V109.807Z" fill="#594A39"/>
<path d="M53.5919 109.807H51.6123V111.786H53.5919V109.807Z" fill="#594A39"/>
<path d="M55.5714 109.807H53.5918V111.786H55.5714V109.807Z" fill="#594A39"/>
<path d="M59.5304 109.807H57.5508V111.786H59.5304V109.807Z" fill="#594A39"/>
<path d="M65.4698 109.807H63.4902V111.786H65.4698V109.807Z" fill="#594A39"/>
<path d="M75.3673 109.807H73.3877V111.786H75.3673V109.807Z" fill="#594A39"/>
<path d="M77.3468 109.807H75.3672V111.786H77.3468V109.807Z" fill="#594A39"/>
<path d="M81.3058 109.807H79.3262V111.786H81.3058V109.807Z" fill="#594A39"/>
<path d="M85.2657 109.807H83.2861V111.786H85.2657V109.807Z" fill="#594A39"/>
<path d="M87.2452 109.807H85.2656V111.786H87.2452V109.807Z" fill="#594A39"/>
<path d="M89.2247 109.807H87.2451V111.786H89.2247V109.807Z" fill="#594A39"/>
<path d="M93.1837 109.807H91.2041V111.786H93.1837V109.807Z" fill="#594A39"/>
<path d="M97.1427 109.807H95.1631V111.786H97.1427V109.807Z" fill="#594A39"/>
<path d="M103.081 109.807H101.102V111.786H103.081V109.807Z" fill="#594A39"/>
<path d="M105.062 109.807H103.082V111.786H105.062V109.807Z" fill="#594A39"/>
<path d="M107.041 109.807H105.062V111.786H107.041V109.807Z" fill="#594A39"/>
<path d="M109.021 109.807H107.041V111.786H109.021V109.807Z" fill="#594A39"/>
<path d="M111 109.807H109.021V111.786H111V109.807Z" fill="#594A39"/>
<path d="M21.9181 111.786H19.9385V113.766H21.9181V111.786Z" fill="#594A39"/>
<path d="M35.7755 111.786H33.7959V113.766H35.7755V111.786Z" fill="#594A39"/>
<path d="M39.7345 111.786H37.7549V113.766H39.7345V111.786Z" fill="#594A39"/>
<path d="M41.714 111.786H39.7344V113.766H41.714V111.786Z" fill="#594A39"/>
<path d="M49.6329 111.786H47.6533V113.766H49.6329V111.786Z" fill="#594A39"/>
<path d="M51.6124 111.786H49.6328V113.766H51.6124V111.786Z" fill="#594A39"/>
<path d="M53.5919 111.786H51.6123V113.766H53.5919V111.786Z" fill="#594A39"/>
<path d="M57.5509 111.786H55.5713V113.766H57.5509V111.786Z" fill="#594A39"/>
<path d="M59.5304 111.786H57.5508V113.766H59.5304V111.786Z" fill="#594A39"/>
<path d="M61.5099 111.786H59.5303V113.766H61.5099V111.786Z" fill="#594A39"/>
<path d="M63.4894 111.786H61.5098V113.766H63.4894V111.786Z" fill="#594A39"/>
<path d="M65.4698 111.786H63.4902V113.766H65.4698V111.786Z" fill="#594A39"/>
<path d="M73.3878 111.786H71.4082V113.766H73.3878V111.786Z" fill="#594A39"/>
<path d="M75.3673 111.786H73.3877V113.766H75.3673V111.786Z" fill="#594A39"/>
<path d="M93.1837 111.786H91.2041V113.766H93.1837V111.786Z" fill="#594A39"/>
<path d="M97.1427 111.786H95.1631V113.766H97.1427V111.786Z" fill="#594A39"/>
<path d="M101.102 111.786H99.1221V113.766H101.102V111.786Z" fill="#594A39"/>
<path d="M19.9386 113.766H17.959V115.745H19.9386V113.766Z" fill="#594A39"/>
<path d="M23.8976 113.766H21.918V115.745H23.8976V113.766Z" fill="#594A39"/>
<path d="M27.8575 113.766H25.8779V115.745H27.8575V113.766Z" fill="#594A39"/>
<path d="M29.837 113.766H27.8574V115.745H29.837V113.766Z" fill="#594A39"/>
<path d="M31.8165 113.766H29.8369V115.745H31.8165V113.766Z" fill="#594A39"/>
<path d="M43.6935 113.766H41.7139V115.745H43.6935V113.766Z" fill="#594A39"/>
<path d="M51.6124 113.766H49.6328V115.745H51.6124V113.766Z" fill="#594A39"/>
<path d="M53.5919 113.766H51.6123V115.745H53.5919V113.766Z" fill="#594A39"/>
<path d="M55.5714 113.766H53.5918V115.745H55.5714V113.766Z" fill="#594A39"/>
<path d="M57.5509 113.766H55.5713V115.745H57.5509V113.766Z" fill="#594A39"/>
<path d="M75.3673 113.766H73.3877V115.745H75.3673V113.766Z" fill="#594A39"/>
<path d="M77.3468 113.766H75.3672V115.745H77.3468V113.766Z" fill="#594A39"/>
<path d="M81.3058 113.766H79.3262V115.745H81.3058V113.766Z" fill="#594A39"/>
<path d="M83.2853 113.766H81.3057V115.745H83.2853V113.766Z" fill="#594A39"/>
<path d="M85.2657 113.766H83.2861V115.745H85.2657V113.766Z" fill="#594A39"/>
<path d="M87.2452 113.766H85.2656V115.745H87.2452V113.766Z" fill="#594A39"/>
<path d="M89.2247 113.766H87.2451V115.745H89.2247V113.766Z" fill="#594A39"/>
<path d="M91.2042 113.766H89.2246V115.745H91.2042V113.766Z" fill="#594A39"/>
<path d="M99.1222 113.766H97.1426V115.745H99.1222V113.766Z" fill="#594A39"/>
<path d="M105.062 113.766H103.082V115.745H105.062V113.766Z" fill="#594A39"/>
<path d="M109.021 113.766H107.041V115.745H109.021V113.766Z" fill="#594A39"/>
<path d="M111 113.766H109.021V115.745H111V113.766Z" fill="#594A39"/>
<path d="M23.8976 115.746H21.918V117.726H23.8976V115.746Z" fill="#594A39"/>
<path d="M31.8165 115.746H29.8369V117.726H31.8165V115.746Z" fill="#594A39"/>
<path d="M33.796 115.746H31.8164V117.726H33.796V115.746Z" fill="#594A39"/>
<path d="M35.7755 115.746H33.7959V117.726H35.7755V115.746Z" fill="#594A39"/>
<path d="M37.755 115.746H35.7754V117.726H37.755V115.746Z" fill="#594A39"/>
<path d="M41.714 115.746H39.7344V117.726H41.714V115.746Z" fill="#594A39"/>
<path d="M51.6124 115.746H49.6328V117.726H51.6124V115.746Z" fill="#594A39"/>
<path d="M57.5509 115.746H55.5713V117.726H57.5509V115.746Z" fill="#594A39"/>
<path d="M63.4894 115.746H61.5098V117.726H63.4894V115.746Z" fill="#594A39"/>
<path d="M65.4698 115.746H63.4902V117.726H65.4698V115.746Z" fill="#594A39"/>
<path d="M67.4493 115.746H65.4697V117.726H67.4493V115.746Z" fill="#594A39"/>
<path d="M69.4288 115.746H67.4492V117.726H69.4288V115.746Z" fill="#594A39"/>
<path d="M71.4083 115.746H69.4287V117.726H71.4083V115.746Z" fill="#594A39"/>
<path d="M75.3673 115.746H73.3877V117.726H75.3673V115.746Z" fill="#594A39"/>
<path d="M79.3263 115.746H77.3467V117.726H79.3263V115.746Z" fill="#594A39"/>
<path d="M89.2247 115.746H87.2451V117.726H89.2247V115.746Z" fill="#594A39"/>
<path d="M95.1632 115.746H93.1836V117.726H95.1632V115.746Z" fill="#594A39"/>
<path d="M101.102 115.746H99.1221V117.726H101.102V115.746Z" fill="#594A39"/>
<path d="M111 115.746H109.021V117.726H111V115.746Z" fill="#594A39"/>
<path d="M21.9181 117.726H19.9385V119.705H21.9181V117.726Z" fill="#594A39"/>
<path d="M23.8976 117.726H21.918V119.705H23.8976V117.726Z" fill="#594A39"/>
<path d="M25.878 117.726H23.8984V119.705H25.878V117.726Z" fill="#594A39"/>
<path d="M27.8575 117.726H25.8779V119.705H27.8575V117.726Z" fill="#594A39"/>
<path d="M29.837 117.726H27.8574V119.705H29.837V117.726Z" fill="#594A39"/>
<path d="M33.796 117.726H31.8164V119.705H33.796V117.726Z" fill="#594A39"/>
<path d="M37.755 117.726H35.7754V119.705H37.755V117.726Z" fill="#594A39"/>
<path d="M45.6739 117.726H43.6943V119.705H45.6739V117.726Z" fill="#594A39"/>
<path d="M51.6124 117.726H49.6328V119.705H51.6124V117.726Z" fill="#594A39"/>
<path d="M53.5919 117.726H51.6123V119.705H53.5919V117.726Z" fill="#594A39"/>
<path d="M55.5714 117.726H53.5918V119.705H55.5714V117.726Z" fill="#594A39"/>
<path d="M57.5509 117.726H55.5713V119.705H57.5509V117.726Z" fill="#594A39"/>
<path d="M59.5304 117.726H57.5508V119.705H59.5304V117.726Z" fill="#594A39"/>
<path d="M61.5099 117.726H59.5303V119.705H61.5099V117.726Z" fill="#594A39"/>
<path d="M73.3878 117.726H71.4082V119.705H73.3878V117.726Z" fill="#594A39"/>
<path d="M77.3468 117.726H75.3672V119.705H77.3468V117.726Z" fill="#594A39"/>
<path d="M81.3058 117.726H79.3262V119.705H81.3058V117.726Z" fill="#594A39"/>
<path d="M85.2657 117.726H83.2861V119.705H85.2657V117.726Z" fill="#594A39"/>
<path d="M87.2452 117.726H85.2656V119.705H87.2452V117.726Z" fill="#594A39"/>
<path d="M93.1837 117.726H91.2041V119.705H93.1837V117.726Z" fill="#594A39"/>
<path d="M95.1632 117.726H93.1836V119.705H95.1632V117.726Z" fill="#594A39"/>
<path d="M97.1427 117.726H95.1631V119.705H97.1427V117.726Z" fill="#594A39"/>
<path d="M99.1222 117.726H97.1426V119.705H99.1222V117.726Z" fill="#594A39"/>
<path d="M103.081 117.726H101.102V119.705H103.081V117.726Z" fill="#594A39"/>
<path d="M107.041 117.726H105.062V119.705H107.041V117.726Z" fill="#594A39"/>
<path d="M109.021 117.726H107.041V119.705H109.021V117.726Z" fill="#594A39"/>
<path d="M111 117.726H109.021V119.705H111V117.726Z" fill="#594A39"/>
<path d="M19.9386 119.705H17.959V121.685H19.9386V119.705Z" fill="#594A39"/>
<path d="M23.8976 119.705H21.918V121.685H23.8976V119.705Z" fill="#594A39"/>
<path d="M25.878 119.705H23.8984V121.685H25.878V119.705Z" fill="#594A39"/>
<path d="M31.8165 119.705H29.8369V121.685H31.8165V119.705Z" fill="#594A39"/>
<path d="M33.796 119.705H31.8164V121.685H33.796V119.705Z" fill="#594A39"/>
<path d="M35.7755 119.705H33.7959V121.685H35.7755V119.705Z" fill="#594A39"/>
<path d="M37.755 119.705H35.7754V121.685H37.755V119.705Z" fill="#594A39"/>
<path d="M45.6739 119.705H43.6943V121.685H45.6739V119.705Z" fill="#594A39"/>
<path d="M51.6124 119.705H49.6328V121.685H51.6124V119.705Z" fill="#594A39"/>
<path d="M57.5509 119.705H55.5713V121.685H57.5509V119.705Z" fill="#594A39"/>
<path d="M59.5304 119.705H57.5508V121.685H59.5304V119.705Z" fill="#594A39"/>
<path d="M63.4894 119.705H61.5098V121.685H63.4894V119.705Z" fill="#594A39"/>
<path d="M65.4698 119.705H63.4902V121.685H65.4698V119.705Z" fill="#594A39"/>
<path d="M73.3878 119.705H71.4082V121.685H73.3878V119.705Z" fill="#594A39"/>
<path d="M75.3673 119.705H73.3877V121.685H75.3673V119.705Z" fill="#594A39"/>
<path d="M79.3263 119.705H77.3467V121.685H79.3263V119.705Z" fill="#594A39"/>
<path d="M85.2657 119.705H83.2861V121.685H85.2657V119.705Z" fill="#594A39"/>
<path d="M87.2452 119.705H85.2656V121.685H87.2452V119.705Z" fill="#594A39"/>
<path d="M95.1632 119.705H93.1836V121.685H95.1632V119.705Z" fill="#594A39"/>
<path d="M97.1427 119.705H95.1631V121.685H97.1427V119.705Z" fill="#594A39"/>
<path d="M99.1222 119.705H97.1426V121.685H99.1222V119.705Z" fill="#594A39"/>
<path d="M101.102 119.705H99.1221V121.685H101.102V119.705Z" fill="#594A39"/>
<path d="M107.041 119.705H105.062V121.685H107.041V119.705Z" fill="#594A39"/>
<path d="M109.021 119.705H107.041V121.685H109.021V119.705Z" fill="#594A39"/>
<path d="M17.9591 121.685H15.9795V123.664H17.9591V121.685Z" fill="#594A39"/>
<path d="M25.878 121.685H23.8984V123.664H25.878V121.685Z" fill="#594A39"/>
<path d="M27.8575 121.685H25.8779V123.664H27.8575V121.685Z" fill="#594A39"/>
<path d="M29.837 121.685H27.8574V123.664H29.837V121.685Z" fill="#594A39"/>
<path d="M31.8165 121.685H29.8369V123.664H31.8165V121.685Z" fill="#594A39"/>
<path d="M33.796 121.685H31.8164V123.664H33.796V121.685Z" fill="#594A39"/>
<path d="M37.755 121.685H35.7754V123.664H37.755V121.685Z" fill="#594A39"/>
<path d="M39.7345 121.685H37.7549V123.664H39.7345V121.685Z" fill="#594A39"/>
<path d="M43.6935 121.685H41.7139V123.664H43.6935V121.685Z" fill="#594A39"/>
<path d="M47.6534 121.685H45.6738V123.664H47.6534V121.685Z" fill="#594A39"/>
<path d="M49.6329 121.685H47.6533V123.664H49.6329V121.685Z" fill="#594A39"/>
<path d="M51.6124 121.685H49.6328V123.664H51.6124V121.685Z" fill="#594A39"/>
<path d="M53.5919 121.685H51.6123V123.664H53.5919V121.685Z" fill="#594A39"/>
<path d="M59.5304 121.685H57.5508V123.664H59.5304V121.685Z" fill="#594A39"/>
<path d="M65.4698 121.685H63.4902V123.664H65.4698V121.685Z" fill="#594A39"/>
<path d="M69.4288 121.685H67.4492V123.664H69.4288V121.685Z" fill="#594A39"/>
<path d="M77.3468 121.685H75.3672V123.664H77.3468V121.685Z" fill="#594A39"/>
<path d="M81.3058 121.685H79.3262V123.664H81.3058V121.685Z" fill="#594A39"/>
<path d="M83.2853 121.685H81.3057V123.664H83.2853V121.685Z" fill="#594A39"/>
<path d="M85.2657 121.685H83.2861V123.664H85.2657V121.685Z" fill="#594A39"/>
<path d="M87.2452 121.685H85.2656V123.664H87.2452V121.685Z" fill="#594A39"/>
<path d="M91.2042 121.685H89.2246V123.664H91.2042V121.685Z" fill="#594A39"/>
<path d="M99.1222 121.685H97.1426V123.664H99.1222V121.685Z" fill="#594A39"/>
<path d="M105.062 121.685H103.082V123.664H105.062V121.685Z" fill="#594A39"/>
<path d="M111 121.685H109.021V123.664H111V121.685Z" fill="#594A39"/>
<path d="M17.9591 123.664H15.9795V125.644H17.9591V123.664Z" fill="#594A39"/>
<path d="M19.9386 123.664H17.959V125.644H19.9386V123.664Z" fill="#594A39"/>
<path d="M21.9181 123.664H19.9385V125.644H21.9181V123.664Z" fill="#594A39"/>
<path d="M31.8165 123.664H29.8369V125.644H31.8165V123.664Z" fill="#594A39"/>
<path d="M33.796 123.664H31.8164V125.644H33.796V123.664Z" fill="#594A39"/>
<path d="M37.755 123.664H35.7754V125.644H37.755V123.664Z" fill="#594A39"/>
<path d="M41.714 123.664H39.7344V125.644H41.714V123.664Z" fill="#594A39"/>
<path d="M43.6935 123.664H41.7139V125.644H43.6935V123.664Z" fill="#594A39"/>
<path d="M45.6739 123.664H43.6943V125.644H45.6739V123.664Z" fill="#594A39"/>
<path d="M47.6534 123.664H45.6738V125.644H47.6534V123.664Z" fill="#594A39"/>
<path d="M51.6124 123.664H49.6328V125.644H51.6124V123.664Z" fill="#594A39"/>
<path d="M53.5919 123.664H51.6123V125.644H53.5919V123.664Z" fill="#594A39"/>
<path d="M59.5304 123.664H57.5508V125.644H59.5304V123.664Z" fill="#594A39"/>
<path d="M61.5099 123.664H59.5303V125.644H61.5099V123.664Z" fill="#594A39"/>
<path d="M63.4894 123.664H61.5098V125.644H63.4894V123.664Z" fill="#594A39"/>
<path d="M65.4698 123.664H63.4902V125.644H65.4698V123.664Z" fill="#594A39"/>
<path d="M67.4493 123.664H65.4697V125.644H67.4493V123.664Z" fill="#594A39"/>
<path d="M71.4083 123.664H69.4287V125.644H71.4083V123.664Z" fill="#594A39"/>
<path d="M73.3878 123.664H71.4082V125.644H73.3878V123.664Z" fill="#594A39"/>
<path d="M75.3673 123.664H73.3877V125.644H75.3673V123.664Z" fill="#594A39"/>
<path d="M79.3263 123.664H77.3467V125.644H79.3263V123.664Z" fill="#594A39"/>
<path d="M81.3058 123.664H79.3262V125.644H81.3058V123.664Z" fill="#594A39"/>
<path d="M95.1632 123.664H93.1836V125.644H95.1632V123.664Z" fill="#594A39"/>
<path d="M97.1427 123.664H95.1631V125.644H97.1427V123.664Z" fill="#594A39"/>
<path d="M101.102 123.664H99.1221V125.644H101.102V123.664Z" fill="#594A39"/>
<path d="M103.081 123.664H101.102V125.644H103.081V123.664Z" fill="#594A39"/>
<path d="M109.021 123.664H107.041V125.644H109.021V123.664Z" fill="#594A39"/>
<path d="M111 123.664H109.021V125.644H111V123.664Z" fill="#594A39"/>
<path d="M15.9796 125.644H14V127.623H15.9796V125.644Z" fill="#594A39"/>
<path d="M17.9591 125.644H15.9795V127.623H17.9591V125.644Z" fill="#594A39"/>
<path d="M19.9386 125.644H17.959V127.623H19.9386V125.644Z" fill="#594A39"/>
<path d="M27.8575 125.644H25.8779V127.623H27.8575V125.644Z" fill="#594A39"/>
<path d="M29.837 125.644H27.8574V127.623H29.837V125.644Z" fill="#594A39"/>
<path d="M43.6935 125.644H41.7139V127.623H43.6935V125.644Z" fill="#594A39"/>
<path d="M49.6329 125.644H47.6533V127.623H49.6329V125.644Z" fill="#594A39"/>
<path d="M55.5714 125.644H53.5918V127.623H55.5714V125.644Z" fill="#594A39"/>
<path d="M57.5509 125.644H55.5713V127.623H57.5509V125.644Z" fill="#594A39"/>
<path d="M59.5304 125.644H57.5508V127.623H59.5304V125.644Z" fill="#594A39"/>
<path d="M61.5099 125.644H59.5303V127.623H61.5099V125.644Z" fill="#594A39"/>
<path d="M63.4894 125.644H61.5098V127.623H63.4894V125.644Z" fill="#594A39"/>
<path d="M65.4698 125.644H63.4902V127.623H65.4698V125.644Z" fill="#594A39"/>
<path d="M67.4493 125.644H65.4697V127.623H67.4493V125.644Z" fill="#594A39"/>
<path d="M69.4288 125.644H67.4492V127.623H69.4288V125.644Z" fill="#594A39"/>
<path d="M75.3673 125.644H73.3877V127.623H75.3673V125.644Z" fill="#594A39"/>
<path d="M77.3468 125.644H75.3672V127.623H77.3468V125.644Z" fill="#594A39"/>
<path d="M85.2657 125.644H83.2861V127.623H85.2657V125.644Z" fill="#594A39"/>
<path d="M87.2452 125.644H85.2656V127.623H87.2452V125.644Z" fill="#594A39"/>
<path d="M91.2042 125.644H89.2246V127.623H91.2042V125.644Z" fill="#594A39"/>
<path d="M93.1837 125.644H91.2041V127.623H93.1837V125.644Z" fill="#594A39"/>
<path d="M95.1632 125.644H93.1836V127.623H95.1632V125.644Z" fill="#594A39"/>
<path d="M97.1427 125.644H95.1631V127.623H97.1427V125.644Z" fill="#594A39"/>
<path d="M99.1222 125.644H97.1426V127.623H99.1222V125.644Z" fill="#594A39"/>
<path d="M101.102 125.644H99.1221V127.623H101.102V125.644Z" fill="#594A39"/>
<path d="M103.081 125.644H101.102V127.623H103.081V125.644Z" fill="#594A39"/>
<path d="M105.062 125.644H103.082V127.623H105.062V125.644Z" fill="#594A39"/>
<path d="M107.041 125.644H105.062V127.623H107.041V125.644Z" fill="#594A39"/>
<path d="M31.8165 127.623H29.8369V129.603H31.8165V127.623Z" fill="#594A39"/>
<path d="M33.796 127.623H31.8164V129.603H33.796V127.623Z" fill="#594A39"/>
<path d="M35.7755 127.623H33.7959V129.603H35.7755V127.623Z" fill="#594A39"/>
<path d="M37.755 127.623H35.7754V129.603H37.755V127.623Z" fill="#594A39"/>
<path d="M39.7345 127.623H37.7549V129.603H39.7345V127.623Z" fill="#594A39"/>
<path d="M41.714 127.623H39.7344V129.603H41.714V127.623Z" fill="#594A39"/>
<path d="M43.6935 127.623H41.7139V129.603H43.6935V127.623Z" fill="#594A39"/>
<path d="M45.6739 127.623H43.6943V129.603H45.6739V127.623Z" fill="#594A39"/>
<path d="M51.6124 127.623H49.6328V129.603H51.6124V127.623Z" fill="#594A39"/>
<path d="M57.5509 127.623H55.5713V129.603H57.5509V127.623Z" fill="#594A39"/>
<path d="M59.5304 127.623H57.5508V129.603H59.5304V127.623Z" fill="#594A39"/>
<path d="M67.4493 127.623H65.4697V129.603H67.4493V127.623Z" fill="#594A39"/>
<path d="M75.3673 127.623H73.3877V129.603H75.3673V127.623Z" fill="#594A39"/>
<path d="M79.3263 127.623H77.3467V129.603H79.3263V127.623Z" fill="#594A39"/>
<path d="M85.2657 127.623H83.2861V129.603H85.2657V127.623Z" fill="#594A39"/>
<path d="M87.2452 127.623H85.2656V129.603H87.2452V127.623Z" fill="#594A39"/>
<path d="M89.2247 127.623H87.2451V129.603H89.2247V127.623Z" fill="#594A39"/>
<path d="M95.1632 127.623H93.1836V129.603H95.1632V127.623Z" fill="#594A39"/>
<path d="M103.081 127.623H101.102V129.603H103.081V127.623Z" fill="#594A39"/>
<path d="M107.041 127.623H105.062V129.603H107.041V127.623Z" fill="#594A39"/>
<path d="M15.9796 129.603H14V131.582H15.9796V129.603Z" fill="#594A39"/>
<path d="M17.9591 129.603H15.9795V131.582H17.9591V129.603Z" fill="#594A39"/>
<path d="M19.9386 129.603H17.959V131.582H19.9386V129.603Z" fill="#594A39"/>
<path d="M21.9181 129.603H19.9385V131.582H21.9181V129.603Z" fill="#594A39"/>
<path d="M23.8976 129.603H21.918V131.582H23.8976V129.603Z" fill="#594A39"/>
<path d="M25.878 129.603H23.8984V131.582H25.878V129.603Z" fill="#594A39"/>
<path d="M27.8575 129.603H25.8779V131.582H27.8575V129.603Z" fill="#594A39"/>
<path d="M33.796 129.603H31.8164V131.582H33.796V129.603Z" fill="#594A39"/>
<path d="M35.7755 129.603H33.7959V131.582H35.7755V129.603Z" fill="#594A39"/>
<path d="M37.755 129.603H35.7754V131.582H37.755V129.603Z" fill="#594A39"/>
<path d="M39.7345 129.603H37.7549V131.582H39.7345V129.603Z" fill="#594A39"/>
<path d="M43.6935 129.603H41.7139V131.582H43.6935V129.603Z" fill="#594A39"/>
<path d="M45.6739 129.603H43.6943V131.582H45.6739V129.603Z" fill="#594A39"/>
<path d="M49.6329 129.603H47.6533V131.582H49.6329V129.603Z" fill="#594A39"/>
<path d="M53.5919 129.603H51.6123V131.582H53.5919V129.603Z" fill="#594A39"/>
<path d="M55.5714 129.603H53.5918V131.582H55.5714V129.603Z" fill="#594A39"/>
<path d="M57.5509 129.603H55.5713V131.582H57.5509V129.603Z" fill="#594A39"/>
<path d="M59.5304 129.603H57.5508V131.582H59.5304V129.603Z" fill="#594A39"/>
<path d="M63.4894 129.603H61.5098V131.582H63.4894V129.603Z" fill="#594A39"/>
<path d="M67.4493 129.603H65.4697V131.582H67.4493V129.603Z" fill="#594A39"/>
<path d="M71.4083 129.603H69.4287V131.582H71.4083V129.603Z" fill="#594A39"/>
<path d="M73.3878 129.603H71.4082V131.582H73.3878V129.603Z" fill="#594A39"/>
<path d="M83.2853 129.603H81.3057V131.582H83.2853V129.603Z" fill="#594A39"/>
<path d="M85.2657 129.603H83.2861V131.582H85.2657V129.603Z" fill="#594A39"/>
<path d="M87.2452 129.603H85.2656V131.582H87.2452V129.603Z" fill="#594A39"/>
<path d="M91.2042 129.603H89.2246V131.582H91.2042V129.603Z" fill="#594A39"/>
<path d="M95.1632 129.603H93.1836V131.582H95.1632V129.603Z" fill="#594A39"/>
<path d="M99.1222 129.603H97.1426V131.582H99.1222V129.603Z" fill="#594A39"/>
<path d="M103.081 129.603H101.102V131.582H103.081V129.603Z" fill="#594A39"/>
<path d="M109.021 129.603H107.041V131.582H109.021V129.603Z" fill="#594A39"/>
<path d="M111 129.603H109.021V131.582H111V129.603Z" fill="#594A39"/>
<path d="M15.9796 131.582H14V133.562H15.9796V131.582Z" fill="#594A39"/>
<path d="M27.8575 131.582H25.8779V133.562H27.8575V131.582Z" fill="#594A39"/>
<path d="M31.8165 131.582H29.8369V133.562H31.8165V131.582Z" fill="#594A39"/>
<path d="M33.796 131.582H31.8164V133.562H33.796V131.582Z" fill="#594A39"/>
<path d="M35.7755 131.582H33.7959V133.562H35.7755V131.582Z" fill="#594A39"/>
<path d="M37.755 131.582H35.7754V133.562H37.755V131.582Z" fill="#594A39"/>
<path d="M39.7345 131.582H37.7549V133.562H39.7345V131.582Z" fill="#594A39"/>
<path d="M45.6739 131.582H43.6943V133.562H45.6739V131.582Z" fill="#594A39"/>
<path d="M47.6534 131.582H45.6738V133.562H47.6534V131.582Z" fill="#594A39"/>
<path d="M49.6329 131.582H47.6533V133.562H49.6329V131.582Z" fill="#594A39"/>
<path d="M57.5509 131.582H55.5713V133.562H57.5509V131.582Z" fill="#594A39"/>
<path d="M59.5304 131.582H57.5508V133.562H59.5304V131.582Z" fill="#594A39"/>
<path d="M67.4493 131.582H65.4697V133.562H67.4493V131.582Z" fill="#594A39"/>
<path d="M69.4288 131.582H67.4492V133.562H69.4288V131.582Z" fill="#594A39"/>
<path d="M71.4083 131.582H69.4287V133.562H71.4083V131.582Z" fill="#594A39"/>
<path d="M75.3673 131.582H73.3877V133.562H75.3673V131.582Z" fill="#594A39"/>
<path d="M79.3263 131.582H77.3467V133.562H79.3263V131.582Z" fill="#594A39"/>
<path d="M83.2853 131.582H81.3057V133.562H83.2853V131.582Z" fill="#594A39"/>
<path d="M89.2247 131.582H87.2451V133.562H89.2247V131.582Z" fill="#594A39"/>
<path d="M95.1632 131.582H93.1836V133.562H95.1632V131.582Z" fill="#594A39"/>
<path d="M103.081 131.582H101.102V133.562H103.081V131.582Z" fill="#594A39"/>
<path d="M109.021 131.582H107.041V133.562H109.021V131.582Z" fill="#594A39"/>
<path d="M15.9796 133.562H14V135.541H15.9796V133.562Z" fill="#594A39"/>
<path d="M19.9386 133.562H17.959V135.541H19.9386V133.562Z" fill="#594A39"/>
<path d="M21.9181 133.562H19.9385V135.541H21.9181V133.562Z" fill="#594A39"/>
<path d="M23.8976 133.562H21.918V135.541H23.8976V133.562Z" fill="#594A39"/>
<path d="M27.8575 133.562H25.8779V135.541H27.8575V133.562Z" fill="#594A39"/>
<path d="M31.8165 133.562H29.8369V135.541H31.8165V133.562Z" fill="#594A39"/>
<path d="M33.796 133.562H31.8164V135.541H33.796V133.562Z" fill="#594A39"/>
<path d="M37.755 133.562H35.7754V135.541H37.755V133.562Z" fill="#594A39"/>
<path d="M39.7345 133.562H37.7549V135.541H39.7345V133.562Z" fill="#594A39"/>
<path d="M41.714 133.562H39.7344V135.541H41.714V133.562Z" fill="#594A39"/>
<path d="M47.6534 133.562H45.6738V135.541H47.6534V133.562Z" fill="#594A39"/>
<path d="M57.5509 133.562H55.5713V135.541H57.5509V133.562Z" fill="#594A39"/>
<path d="M59.5304 133.562H57.5508V135.541H59.5304V133.562Z" fill="#594A39"/>
<path d="M61.5099 133.562H59.5303V135.541H61.5099V133.562Z" fill="#594A39"/>
<path d="M63.4894 133.562H61.5098V135.541H63.4894V133.562Z" fill="#594A39"/>
<path d="M65.4698 133.562H63.4902V135.541H65.4698V133.562Z" fill="#594A39"/>
<path d="M67.4493 133.562H65.4697V135.541H67.4493V133.562Z" fill="#594A39"/>
<path d="M77.3468 133.562H75.3672V135.541H77.3468V133.562Z" fill="#594A39"/>
<path d="M85.2657 133.562H83.2861V135.541H85.2657V133.562Z" fill="#594A39"/>
<path d="M87.2452 133.562H85.2656V135.541H87.2452V133.562Z" fill="#594A39"/>
<path d="M89.2247 133.562H87.2451V135.541H89.2247V133.562Z" fill="#594A39"/>
<path d="M91.2042 133.562H89.2246V135.541H91.2042V133.562Z" fill="#594A39"/>
<path d="M95.1632 133.562H93.1836V135.541H95.1632V133.562Z" fill="#594A39"/>
<path d="M97.1427 133.562H95.1631V135.541H97.1427V133.562Z" fill="#594A39"/>
<path d="M99.1222 133.562H97.1426V135.541H99.1222V133.562Z" fill="#594A39"/>
<path d="M101.102 133.562H99.1221V135.541H101.102V133.562Z" fill="#594A39"/>
<path d="M103.081 133.562H101.102V135.541H103.081V133.562Z" fill="#594A39"/>
<path d="M111 133.562H109.021V135.541H111V133.562Z" fill="#594A39"/>
<path d="M15.9796 135.542H14V137.522H15.9796V135.542Z" fill="#594A39"/>
<path d="M19.9386 135.542H17.959V137.522H19.9386V135.542Z" fill="#594A39"/>
<path d="M21.9181 135.542H19.9385V137.522H21.9181V135.542Z" fill="#594A39"/>
<path d="M23.8976 135.542H21.918V137.522H23.8976V135.542Z" fill="#594A39"/>
<path d="M27.8575 135.542H25.8779V137.522H27.8575V135.542Z" fill="#594A39"/>
<path d="M31.8165 135.542H29.8369V137.522H31.8165V135.542Z" fill="#594A39"/>
<path d="M35.7755 135.542H33.7959V137.522H35.7755V135.542Z" fill="#594A39"/>
<path d="M43.6935 135.542H41.7139V137.522H43.6935V135.542Z" fill="#594A39"/>
<path d="M49.6329 135.542H47.6533V137.522H49.6329V135.542Z" fill="#594A39"/>
<path d="M51.6124 135.542H49.6328V137.522H51.6124V135.542Z" fill="#594A39"/>
<path d="M53.5919 135.542H51.6123V137.522H53.5919V135.542Z" fill="#594A39"/>
<path d="M55.5714 135.542H53.5918V137.522H55.5714V135.542Z" fill="#594A39"/>
<path d="M59.5304 135.542H57.5508V137.522H59.5304V135.542Z" fill="#594A39"/>
<path d="M61.5099 135.542H59.5303V137.522H61.5099V135.542Z" fill="#594A39"/>
<path d="M65.4698 135.542H63.4902V137.522H65.4698V135.542Z" fill="#594A39"/>
<path d="M67.4493 135.542H65.4697V137.522H67.4493V135.542Z" fill="#594A39"/>
<path d="M71.4083 135.542H69.4287V137.522H71.4083V135.542Z" fill="#594A39"/>
<path d="M73.3878 135.542H71.4082V137.522H73.3878V135.542Z" fill="#594A39"/>
<path d="M75.3673 135.542H73.3877V137.522H75.3673V135.542Z" fill="#594A39"/>
<path d="M79.3263 135.542H77.3467V137.522H79.3263V135.542Z" fill="#594A39"/>
<path d="M89.2247 135.542H87.2451V137.522H89.2247V135.542Z" fill="#594A39"/>
<path d="M93.1837 135.542H91.2041V137.522H93.1837V135.542Z" fill="#594A39"/>
<path d="M99.1222 135.542H97.1426V137.522H99.1222V135.542Z" fill="#594A39"/>
<path d="M101.102 135.542H99.1221V137.522H101.102V135.542Z" fill="#594A39"/>
<path d="M103.081 135.542H101.102V137.522H103.081V135.542Z" fill="#594A39"/>
<path d="M105.062 135.542H103.082V137.522H105.062V135.542Z" fill="#594A39"/>
<path d="M109.021 135.542H107.041V137.522H109.021V135.542Z" fill="#594A39"/>
<path d="M111 135.542H109.021V137.522H111V135.542Z" fill="#594A39"/>
<path d="M15.9796 137.521H14V139.501H15.9796V137.521Z" fill="#594A39"/>
<path d="M19.9386 137.521H17.959V139.501H19.9386V137.521Z" fill="#594A39"/>
<path d="M21.9181 137.521H19.9385V139.501H21.9181V137.521Z" fill="#594A39"/>
<path d="M23.8976 137.521H21.918V139.501H23.8976V137.521Z" fill="#594A39"/>
<path d="M27.8575 137.521H25.8779V139.501H27.8575V137.521Z" fill="#594A39"/>
<path d="M31.8165 137.521H29.8369V139.501H31.8165V137.521Z" fill="#594A39"/>
<path d="M33.796 137.521H31.8164V139.501H33.796V137.521Z" fill="#594A39"/>
<path d="M35.7755 137.521H33.7959V139.501H35.7755V137.521Z" fill="#594A39"/>
<path d="M37.755 137.521H35.7754V139.501H37.755V137.521Z" fill="#594A39"/>
<path d="M41.714 137.521H39.7344V139.501H41.714V137.521Z" fill="#594A39"/>
<path d="M51.6124 137.521H49.6328V139.501H51.6124V137.521Z" fill="#594A39"/>
<path d="M55.5714 137.521H53.5918V139.501H55.5714V137.521Z" fill="#594A39"/>
<path d="M61.5099 137.521H59.5303V139.501H61.5099V137.521Z" fill="#594A39"/>
<path d="M63.4894 137.521H61.5098V139.501H63.4894V137.521Z" fill="#594A39"/>
<path d="M71.4083 137.521H69.4287V139.501H71.4083V137.521Z" fill="#594A39"/>
<path d="M81.3058 137.521H79.3262V139.501H81.3058V137.521Z" fill="#594A39"/>
<path d="M85.2657 137.521H83.2861V139.501H85.2657V137.521Z" fill="#594A39"/>
<path d="M91.2042 137.521H89.2246V139.501H91.2042V137.521Z" fill="#594A39"/>
<path d="M97.1427 137.521H95.1631V139.501H97.1427V137.521Z" fill="#594A39"/>
<path d="M101.102 137.521H99.1221V139.501H101.102V137.521Z" fill="#594A39"/>
<path d="M15.9796 139.501H14V141.481H15.9796V139.501Z" fill="#594A39"/>
<path d="M27.8575 139.501H25.8779V141.481H27.8575V139.501Z" fill="#594A39"/>
<path d="M33.796 139.501H31.8164V141.481H33.796V139.501Z" fill="#594A39"/>
<path d="M35.7755 139.501H33.7959V141.481H35.7755V139.501Z" fill="#594A39"/>
<path d="M41.714 139.501H39.7344V141.481H41.714V139.501Z" fill="#594A39"/>
<path d="M43.6935 139.501H41.7139V141.481H43.6935V139.501Z" fill="#594A39"/>
<path d="M53.5919 139.501H51.6123V141.481H53.5919V139.501Z" fill="#594A39"/>
<path d="M55.5714 139.501H53.5918V141.481H55.5714V139.501Z" fill="#594A39"/>
<path d="M57.5509 139.501H55.5713V141.481H57.5509V139.501Z" fill="#594A39"/>
<path d="M59.5304 139.501H57.5508V141.481H59.5304V139.501Z" fill="#594A39"/>
<path d="M61.5099 139.501H59.5303V141.481H61.5099V139.501Z" fill="#594A39"/>
<path d="M65.4698 139.501H63.4902V141.481H65.4698V139.501Z" fill="#594A39"/>
<path d="M69.4288 139.501H67.4492V141.481H69.4288V139.501Z" fill="#594A39"/>
<path d="M71.4083 139.501H69.4287V141.481H71.4083V139.501Z" fill="#594A39"/>
<path d="M73.3878 139.501H71.4082V141.481H73.3878V139.501Z" fill="#594A39"/>
<path d="M75.3673 139.501H73.3877V141.481H75.3673V139.501Z" fill="#594A39"/>
<path d="M77.3468 139.501H75.3672V141.481H77.3468V139.501Z" fill="#594A39"/>
<path d="M79.3263 139.501H77.3467V141.481H79.3263V139.501Z" fill="#594A39"/>
<path d="M81.3058 139.501H79.3262V141.481H81.3058V139.501Z" fill="#594A39"/>
<path d="M83.2853 139.501H81.3057V141.481H83.2853V139.501Z" fill="#594A39"/>
<path d="M87.2452 139.501H85.2656V141.481H87.2452V139.501Z" fill="#594A39"/>
<path d="M93.1837 139.501H91.2041V141.481H93.1837V139.501Z" fill="#594A39"/>
<path d="M95.1632 139.501H93.1836V141.481H95.1632V139.501Z" fill="#594A39"/>
<path d="M97.1427 139.501H95.1631V141.481H97.1427V139.501Z" fill="#594A39"/>
<path d="M99.1222 139.501H97.1426V141.481H99.1222V139.501Z" fill="#594A39"/>
<path d="M111 139.501H109.021V141.481H111V139.501Z" fill="#594A39"/>
<path d="M15.9796 141.48H14V143.46H15.9796V141.48Z" fill="#594A39"/>
<path d="M17.9591 141.48H15.9795V143.46H17.9591V141.48Z" fill="#594A39"/>
<path d="M19.9386 141.48H17.959V143.46H19.9386V141.48Z" fill="#594A39"/>
<path d="M21.9181 141.48H19.9385V143.46H21.9181V141.48Z" fill="#594A39"/>
<path d="M23.8976 141.48H21.918V143.46H23.8976V141.48Z" fill="#594A39"/>
<path d="M25.878 141.48H23.8984V143.46H25.878V141.48Z" fill="#594A39"/>
<path d="M27.8575 141.48H25.8779V143.46H27.8575V141.48Z" fill="#594A39"/>
<path d="M31.8165 141.48H29.8369V143.46H31.8165V141.48Z" fill="#594A39"/>
<path d="M37.755 141.48H35.7754V143.46H37.755V141.48Z" fill="#594A39"/>
<path d="M41.714 141.48H39.7344V143.46H41.714V141.48Z" fill="#594A39"/>
<path d="M43.6935 141.48H41.7139V143.46H43.6935V141.48Z" fill="#594A39"/>
<path d="M45.6739 141.48H43.6943V143.46H45.6739V141.48Z" fill="#594A39"/>
<path d="M49.6329 141.48H47.6533V143.46H49.6329V141.48Z" fill="#594A39"/>
<path d="M51.6124 141.48H49.6328V143.46H51.6124V141.48Z" fill="#594A39"/>
<path d="M61.5099 141.48H59.5303V143.46H61.5099V141.48Z" fill="#594A39"/>
<path d="M65.4698 141.48H63.4902V143.46H65.4698V141.48Z" fill="#594A39"/>
<path d="M75.3673 141.48H73.3877V143.46H75.3673V141.48Z" fill="#594A39"/>
<path d="M77.3468 141.48H75.3672V143.46H77.3468V141.48Z" fill="#594A39"/>
<path d="M85.2657 141.48H83.2861V143.46H85.2657V141.48Z" fill="#594A39"/>
<path d="M87.2452 141.48H85.2656V143.46H87.2452V141.48Z" fill="#594A39"/>
<path d="M91.2042 141.48H89.2246V143.46H91.2042V141.48Z" fill="#594A39"/>
<path d="M93.1837 141.48H91.2041V143.46H93.1837V141.48Z" fill="#594A39"/>
<path d="M107.041 141.48H105.062V143.46H107.041V141.48Z" fill="#594A39"/>
<path d="M109.021 141.48H107.041V143.46H109.021V141.48Z" fill="#594A39"/>
<path d="M111 141.48H109.021V143.46H111V141.48Z" fill="#594A39"/>
</svg>
