<svg width="125" height="164" viewBox="0 0 125 164" fill="none" xmlns="http://www.w3.org/2000/svg">
<rect x="1.5" y="1.5" width="122.001" height="160.46" rx="8.5" fill="white"/>
<rect x="1.5" y="1.5" width="122.001" height="160.46" rx="8.5" stroke="#E9E3D8" stroke-width="3"/>
<path d="M37.9384 22.24L37.4984 23.86H41.0184L40.5784 22.24C40.1184 20.7 39.7184 19 39.2984 17.4H39.1984C38.8184 19.02 38.3784 20.7 37.9384 22.24ZM32.8184 29.96L37.5584 15.14H41.0384L45.7984 29.96H42.6984L41.6584 26.16H36.8584L35.8184 29.96H32.8184Z" fill="#B8C318"/>
<path d="M48.0909 34.26V18.76H50.4909L50.7109 19.92H50.7709C51.7109 19.12 52.8709 18.48 54.0709 18.48C56.8309 18.48 58.4709 20.74 58.4709 24.18C58.4709 28.02 56.1709 30.24 53.7109 30.24C52.7309 30.24 51.7909 29.8 50.9309 29.02L51.0309 30.86V34.26H48.0909ZM53.0509 27.82C54.4109 27.82 55.4509 26.66 55.4509 24.22C55.4509 22.08 54.7709 20.9 53.2309 20.9C52.4709 20.9 51.7909 21.28 51.0309 22.06V26.98C51.7309 27.6 52.4509 27.82 53.0509 27.82Z" fill="#B8C318"/>
<path d="M61.762 34.26V18.76H64.162L64.382 19.92H64.442C65.382 19.12 66.542 18.48 67.742 18.48C70.502 18.48 72.142 20.74 72.142 24.18C72.142 28.02 69.842 30.24 67.382 30.24C66.402 30.24 65.462 29.8 64.602 29.02L64.702 30.86V34.26H61.762ZM66.722 27.82C68.082 27.82 69.122 26.66 69.122 24.22C69.122 22.08 68.442 20.9 66.902 20.9C66.142 20.9 65.462 21.28 64.702 22.06V26.98C65.402 27.6 66.122 27.82 66.722 27.82Z" fill="#B8C318"/>
<path d="M78.1931 30.24C76.153 30.24 75.433 28.9 75.433 26.82V14H78.373V26.94C78.373 27.62 78.673 27.84 78.953 27.84C79.073 27.84 79.153 27.84 79.3531 27.8L79.713 29.98C79.373 30.12 78.8931 30.24 78.1931 30.24Z" fill="#B8C318"/>
<path d="M83.5216 34.46C82.8616 34.46 82.4216 34.38 81.9816 34.24L82.5216 31.98C82.7216 32.04 83.0416 32.12 83.3016 32.12C84.4416 32.12 85.0816 31.4 85.4016 30.42L85.6016 29.76L81.2416 18.76H84.2016L85.9816 23.96C86.3216 24.96 86.6016 26.04 86.9216 27.12H87.0216C87.2816 26.08 87.5616 25 87.8216 23.96L89.3616 18.76H92.1816L88.2016 30.3C87.2216 32.94 86.0216 34.46 83.5216 34.46Z" fill="#B8C318"/>
<path d="M80.3115 133.926H77.9704V131.742H73.1142V136.268C72.7468 136.305 72.4621 136.353 72.1947 136.358C70.7231 136.388 70.723 136.384 70.7209 137.809V141.039H68.571C68.5167 140.315 68.4602 139.58 68.4015 138.802L66.2103 138.696C66.156 137.92 66.1016 137.175 66.0451 136.414L63.8496 136.312V131.896H65.8212C65.8821 132.007 65.9254 132.126 65.9494 132.25C66.0973 134.089 66.0951 134.089 67.9232 134.089H70.8122C70.8122 132.568 70.8404 131.111 70.7687 129.655C70.7687 129.506 70.1318 129.236 69.8231 129.277C68.6515 129.434 68.395 128.886 68.4689 127.852C68.5428 126.854 68.4862 125.848 68.4862 124.77H70.61C70.7078 125.511 70.5709 126.42 70.9622 126.837C71.3121 127.211 72.2425 127.043 72.9533 127.117C73.0816 127.852 72.9816 128.817 73.4163 129.277C73.7489 129.629 74.7554 129.347 75.5597 129.347V122.393H77.8334V129.314H80.2985V122.371L82.5983 122.264V119.833H78.0334V117.592H80.2246V115.136H78.0182V112.807H80.3028V110.416H82.694V107.978L82.6592 108.015H87.4415V103.349L89.6457 103.245C89.7283 103.117 89.7935 103.058 89.8 102.995C90.0174 100.793 90.0174 100.793 87.824 100.793H85.1655V98.6203C86.2524 98.6203 87.3654 98.5551 88.4631 98.6376C89.5261 98.7181 90.05 98.4203 89.8565 97.2751C89.8383 96.9435 89.8521 96.6109 89.8978 96.2819C91.5173 96.4188 92.965 96.2711 92.0716 93.9414H94.304V100.648C93.5671 100.778 92.5976 100.676 92.2151 101.102C91.8325 101.528 92.139 102.456 92.139 103.227L94.3127 103.347V105.54H89.7891V107.958H91.9629V110.286H87.4415V112.72H89.7044C89.7044 114.185 89.7304 115.545 89.6761 116.895C89.6761 117.077 89.2848 117.344 89.0392 117.394C88.5069 117.47 87.9703 117.511 87.4328 117.518V115.143H85.0416V117.503H87.4328C87.4002 118.653 87.2893 119.807 87.3589 120.95C87.4197 121.967 87.0697 122.336 86.0807 122.199C85.7367 122.183 85.3921 122.196 85.0503 122.238C84.9916 122.977 85.1851 123.918 84.8069 124.318C84.4286 124.718 83.4765 124.583 82.6831 124.696V126.961L84.8786 127.102V129.153C84.1504 129.232 83.2113 129.062 82.8157 129.451C82.4201 129.84 82.5831 130.779 82.4918 131.568C82.1484 131.59 81.8005 131.616 81.4506 131.635C81.1006 131.655 80.7419 131.672 80.2615 131.694V133.967L80.3115 133.926Z" fill="#594A39"/>
<path d="M75.4878 84.3252V86.7005H82.5938V91.2642C84.8067 91.8075 84.9697 91.6727 85.1414 89.2127H87.2261C87.275 89.3099 87.3115 89.4128 87.3348 89.5191C87.5239 91.4598 87.5217 91.4597 89.5346 91.4597H90.728C92.0888 91.4597 92.2214 91.5836 92.0323 92.9505C91.9846 93.1115 91.8986 93.2585 91.7816 93.3789C91.6646 93.4992 91.5201 93.5894 91.3606 93.6416C89.8237 93.8589 89.8216 93.8307 89.7172 95.4041C89.6923 95.6014 89.6567 95.7973 89.6107 95.9908H87.6152C87.5522 95.8648 87.4978 95.8039 87.4935 95.7387C87.3652 93.6742 87.3674 93.6742 85.2915 93.6742H82.6677V96.1669L84.898 96.2994V98.4183H80.27V103.11L77.9224 103.241V105.603H82.659L82.6199 105.564C82.6329 106.381 82.6438 107.198 82.6568 108.015L82.6916 107.978H77.892V110.327H75.4878L75.5225 110.371V107.954H73.1031L73.1466 107.987V105.579C71.6728 105.579 70.2403 105.555 68.7991 105.609C68.6339 105.609 68.3882 106.044 68.3513 106.29C68.3072 106.826 68.3 107.365 68.3296 107.902H66.0145C65.9775 108.719 65.9449 109.423 65.908 110.223H63.832V105.735L66.0493 105.62C66.0928 104.842 66.1341 104.136 66.1797 103.349L68.3535 103.245C68.4068 102.962 68.4452 102.677 68.4687 102.391C68.5252 100.907 68.5208 100.911 70.049 100.904C70.9881 100.904 71.9271 100.885 72.8749 100.87C72.9379 100.87 73.001 100.815 73.1466 100.75C73.1814 100.122 73.2183 99.4462 73.2596 98.6986L75.5421 98.5487V96.319L77.9028 96.169V93.9285L80.2722 93.7894V91.3641L77.9941 91.2337V89.0301H66.2058V86.7917L68.3991 86.6874L68.5578 84.4469H70.5685C70.7033 85.1879 70.6294 86.1159 71.0554 86.6201C71.3402 86.9569 72.338 86.6853 73.151 86.6853V84.3252L73.1097 84.3491H75.5247L75.4878 84.3252Z" fill="#594A39"/>
<path d="M87.5087 124.698V122.408C87.6551 122.364 87.8049 122.333 87.9565 122.315C89.8433 122.232 89.8433 122.234 89.8433 120.289V117.616H92.0497V122.045C92.2562 122.182 92.3127 122.247 92.3736 122.262C94.5909 122.48 94.5908 122.48 94.5908 120.307C94.5908 120.233 94.5908 120.161 94.5908 120.089C94.5735 119.296 94.8191 118.329 94.4495 117.766C94.1713 117.331 93.104 117.431 92.3019 117.275V115.206H96.8798V110.34H94.6669V105.755H96.7124C96.7624 106.466 96.8103 107.163 96.8668 107.987H101.466V110.327H99.234V115.163H101.473V117.421C100.199 117.421 98.9775 117.46 97.7602 117.405C96.982 117.371 96.7472 117.675 96.782 118.411C96.8277 119.422 96.8342 120.437 96.782 121.454C96.7298 122.471 97.4015 122.323 98.0058 122.306C98.6102 122.288 99.4101 122.564 99.3318 121.454C99.2992 120.995 99.3318 120.53 99.3318 119.998H103.864V124.712L103.895 124.683C101.543 124.331 101.543 124.331 101.543 126.657C101.543 126.728 101.543 126.802 101.543 126.874C101.564 127.63 101.325 128.591 101.69 129.082C102.021 129.516 103.038 129.427 103.84 129.586V131.568C103.365 131.613 102.887 131.633 102.41 131.629C101.758 131.598 101.495 131.87 101.54 132.524C101.58 133.135 101.54 133.752 101.54 134.365V136.279H97.1189C96.995 135.562 97.0994 134.591 96.6646 134.13C96.3299 133.774 95.3169 134.058 94.5082 134.058C94.4582 134.793 94.4104 135.499 94.3583 136.284H92.2671C92.5236 134.586 92.0823 133.4 89.8477 134.065C89.8477 132.798 89.8477 131.724 89.8477 130.651C89.8477 129.28 89.8477 129.28 88.413 129.249C88.163 129.249 87.9109 129.219 87.5674 129.197V127.211C88.3087 127.054 89.2325 127.106 89.726 126.67C90.0585 126.374 89.789 125.394 89.789 124.57L87.4805 124.675L87.5087 124.698ZM92.0736 124.649C92.0736 126.874 92.0541 129.032 92.1041 131.188C92.1041 131.405 92.5388 131.764 92.7736 131.77C94.7213 131.815 96.6704 131.815 98.621 131.77C98.8514 131.77 99.2731 131.457 99.2731 131.281C99.3188 129.09 99.3014 126.898 99.3014 124.646L92.0736 124.649Z" fill="#594A39"/>
<path d="M35.1326 48.8329H37.5585V53.5487L35.2782 53.4466C34.9152 56.0348 35.2782 56.3695 37.6541 55.748C37.6172 55.0265 37.5802 54.2789 37.5433 53.5335H39.9083V61.1135C39.9083 63.2759 40.0735 63.4019 42.3147 62.9021V53.5856C42.2333 53.541 42.1473 53.5053 42.0582 53.4792C40.0105 53.2879 40.0148 53.2901 40.0061 51.1734C40.0061 50.3824 39.9627 49.5913 39.9409 48.8003L39.9083 48.8351H44.6471V51.0908H47.0774V46.5098H49.3968V51.1039L51.7879 51.2299C51.7879 52.599 51.8075 53.9573 51.764 55.3155C51.764 55.4915 51.4358 55.7762 51.2315 55.8045C50.6804 55.847 50.1271 55.8542 49.5751 55.8262C49.5359 55.0004 49.5033 54.305 49.4685 53.5226H44.745V55.8762L46.997 56.0109V60.4333L44.708 60.5702V67.6027L44.7406 67.5679H42.4364C42.4016 66.7899 42.369 66.0836 42.3342 65.3056H39.9562V67.5483L37.5976 67.67C37.5607 68.4132 37.5215 69.1456 37.4824 69.9366H32.9545C32.9545 68.561 32.9305 67.2071 32.9849 65.8576C32.9849 65.6772 33.3892 65.4077 33.637 65.3665C34.1582 65.3205 34.6821 65.3132 35.2043 65.3447L35.3456 63.1954C36.1086 63.0781 36.8999 63.102 37.5194 62.7869C37.7607 62.6652 37.6933 61.772 37.6302 61.2461C37.4455 59.6814 36.0716 61.0288 35.3391 60.1313C35.3934 60.2899 35.3195 60.1639 35.3065 60.0291C35.2543 59.4598 35.4217 58.7078 35.1195 58.3688C34.8174 58.0298 34.0522 58.2145 33.5088 58.0841C33.2914 58.032 32.9871 57.7581 32.9827 57.5821C32.9479 55.498 32.961 53.4118 32.961 51.2125H35.2847C35.2434 50.328 35.2087 49.5631 35.1739 48.8003L35.1326 48.8329Z" fill="#594A39"/>
<path d="M51.8588 103.223H56.6672C56.6194 102.432 56.8302 101.485 56.4498 101.03C56.1238 100.635 55.1282 100.789 54.35 100.689V98.6226H57.7563C58.0802 98.6226 58.4084 98.6226 58.7323 98.6226C59.5235 98.603 60.4887 98.8399 61.0517 98.464C61.4865 98.1814 61.3995 97.1253 61.5625 96.3234H63.5189C63.5181 96.7021 63.5436 97.0804 63.595 97.4556C63.6733 97.8403 63.7819 98.4922 63.9754 98.5313C64.6121 98.6299 65.2613 98.6144 65.8927 98.4857C66.0122 98.464 66.11 97.9163 66.11 97.6164C66.1318 96.0626 66.1209 94.5088 66.1209 92.955C66.1209 91.4011 66.1209 91.4033 67.6839 91.4794C67.8578 91.4794 68.0295 91.5272 68.2382 91.5554C68.3208 92.2921 68.1556 93.2331 68.5447 93.6265C68.9338 94.0198 69.8772 93.8764 70.6445 93.9763V95.9822C70.338 96.0126 70.0294 96.0604 69.7185 96.0691C68.3382 96.1039 68.3382 96.0995 68.336 97.523V100.8C67.3187 100.8 66.3926 100.789 65.4666 100.8C63.3559 100.828 63.6102 100.492 63.5906 102.723C63.5906 103.619 63.5906 104.516 63.5906 105.568H60.2822C58.8366 105.568 58.8345 105.568 58.8627 106.974C58.8627 107.291 58.9127 107.609 58.9453 108.006H61.1191V110.31H58.8627V115.08H54.2022V117.399C54.3692 117.459 54.5418 117.504 54.7174 117.531C56.4868 117.629 56.489 117.627 56.4911 119.459C56.4911 120.688 56.4911 121.919 56.4911 123.153C56.4911 124.655 56.4911 124.657 54.9847 124.592C54.7673 124.592 54.5673 124.536 54.2413 124.486V119.811H49.5742V117.586L51.8958 117.477V107.956L51.8523 107.987H56.6477C56.6208 107.59 56.6208 107.192 56.6477 106.796C56.7955 105.785 56.3651 105.479 55.3869 105.546C54.2543 105.625 53.1153 105.564 51.8741 105.564V103.173L51.8588 103.223ZM58.9584 103.382C59.8105 103.267 60.7256 103.382 61.2538 102.982C61.5799 102.734 61.5864 101.363 61.2538 101.113C60.7321 100.711 59.8148 100.818 58.9518 100.691L58.9584 103.382Z" fill="#594A39"/>
<path d="M80.2979 67.6329H78.0046V63.1301L80.2349 62.9932V60.5809H77.8872V62.8063H75.6309V58.3208H80.2675V55.9759C80.2602 55.9873 80.2523 55.9982 80.2436 56.0086H85.0628V51.1732H88.3648C89.8668 51.1732 89.869 51.1732 89.8408 49.6303C89.8408 49.3825 89.8103 49.1348 89.7886 48.7827H85.0976L85.1302 48.811V46.4922H92.0623V48.8045C92.0623 49.9954 92.0145 51.195 92.0754 52.375C92.121 53.2443 91.7819 53.505 90.9472 53.4616C89.8038 53.4029 88.6561 53.4464 87.3779 53.4464V58.0361L85.0433 58.1839C85.0085 58.9271 84.9759 59.6291 84.9389 60.4266L82.7043 60.5679V62.9975L84.9302 63.1149C84.9672 63.845 84.9998 64.5144 85.0346 65.2467C85.7736 65.3185 86.7105 65.1424 87.1062 65.5249C87.5018 65.9074 87.3605 66.8527 87.4561 67.5677C87.4953 67.596 87.554 67.6764 87.6083 67.672C88.3365 67.6133 89.3734 67.8046 89.7103 67.4069C90.0973 66.9462 89.8669 65.9661 89.906 65.2098L89.8734 65.2359H94.3535V67.5786H92.1797C92.1058 68.4044 92.0406 69.1324 91.9624 69.9691H87.4301C87.3801 70.8079 87.3344 71.5403 87.2888 72.3226H85.1346C85.1019 71.5707 85.0693 70.8666 85.0346 70.0451H80.3914C80.3479 69.1606 80.311 68.3848 80.274 67.609L82.6108 67.7372V65.3141H80.2957L80.2979 67.6329Z" fill="#594A39"/>
<path d="M18.7445 84.3671V81.9548H14.0078V74.8181H18.7053L18.6705 74.7768L18.7053 77.1956H16.3142V79.5143H18.6858V77.163L21.0965 77.1934L21.0552 77.1608V79.5122H23.4137L23.5224 77.2934H25.5961C25.6461 77.9909 25.6983 78.7233 25.7548 79.5274H30.511C30.5589 78.7972 30.6067 78.0605 30.661 77.2369H32.8609C32.9152 76.4197 32.9652 75.6874 33.0174 74.8963H35.0999C35.1412 75.62 35.1846 76.3545 35.2303 77.1499H39.9908V74.8051H42.3102L42.2733 74.7725C42.2849 76.3763 42.2964 77.9808 42.308 79.5861L42.3515 79.5556H39.9343V84.3584L39.9626 84.3171H37.6019C37.5671 85.0451 37.5345 85.7514 37.5018 86.4468C35.5781 86.9944 35.4781 86.9032 35.1933 84.2845C33.4543 84.5996 32.45 83.9954 32.9608 81.9744H28.109L27.983 84.1823H23.5398C23.4941 83.4413 23.4528 82.7415 23.4072 81.9809H21.1421C21.0899 82.0722 21.0334 82.1287 21.0247 82.1982C20.9291 82.8502 21.0704 83.7716 20.6943 84.1084C20.3183 84.4453 19.39 84.2888 18.7205 84.3453L18.7445 84.3671ZM35.2455 79.5861V81.9179H37.5692V79.5861H35.2455Z" fill="#594A39"/>
<path d="M14.0312 46.4795H30.3345V62.7979H14.0312V46.4795ZM16.2811 60.6052C16.6767 60.6356 16.9593 60.6769 17.2397 60.6769C20.5221 60.6769 23.8067 60.6508 27.0869 60.7008C28.0303 60.7138 28.2303 60.3487 28.2194 59.4968C28.1825 56.2871 28.2064 53.0773 28.202 49.8675C28.202 49.5176 28.1672 49.1655 28.1433 48.7635H16.2811V60.6052Z" fill="#594A39"/>
<path d="M14.0156 127.083H30.3058V143.432H14.0156V127.083ZM28.132 141.187C28.1625 140.77 28.2016 140.487 28.2016 140.205C28.2016 136.923 28.1733 133.642 28.2233 130.36C28.2386 129.415 27.8668 129.221 27.0169 129.23C23.8062 129.269 20.5956 129.243 17.385 129.25C17.035 129.25 16.685 129.287 16.2981 129.311V141.187H28.132Z" fill="#594A39"/>
<path d="M94.6875 46.4844H110.991V62.7984H94.6875V46.4844ZM96.8613 48.7314C96.8308 49.1465 96.7917 49.429 96.7917 49.7116C96.7917 52.9931 96.82 56.2746 96.77 59.5561C96.7547 60.497 97.1178 60.6991 97.9721 60.6883C101.183 60.6492 104.393 60.6752 107.604 60.6709C107.954 60.6709 108.304 60.6318 108.691 60.61V48.7271L96.8613 48.7314Z" fill="#594A39"/>
<path d="M70.674 65.2188V70.0236H73.0348C73.1869 69.2565 73.1478 68.3764 73.5543 67.8331C73.7847 67.5267 74.7542 67.7787 75.4324 67.7787V72.3772C74.3042 72.3772 73.1608 72.4446 72.0305 72.3576C70.9958 72.2772 70.5545 72.6032 70.711 73.6615C70.7271 74.0157 70.7118 74.3706 70.6654 74.7221H68.3959V77.0734H63.6376V81.8544H59.0727C58.8966 82.6868 58.9075 83.5365 58.5162 84.1146C58.3249 84.3949 57.3815 84.1624 56.7076 84.1624C56.6728 83.417 56.6402 82.7433 56.6011 81.9501L54.3143 81.8349V77.1408L54.2773 77.1756H56.4185C56.4794 78.0079 56.5337 78.7403 56.5902 79.5248H61.3116V77.1343H59.0944V74.8851L61.3312 74.7807C61.3682 74.0506 61.4029 73.3769 61.4355 72.7075C61.5529 72.6402 61.6377 72.5511 61.7312 72.5424C62.3377 72.4859 63.1354 72.6619 63.4941 72.3424C63.8528 72.023 63.6223 71.1972 63.8071 70.643C63.8897 70.3996 64.3506 70.1519 64.6505 70.1367C65.8678 70.0802 67.0895 70.1127 68.4785 70.1127C68.4785 68.9066 68.5481 67.7961 68.4568 66.7009C68.3655 65.6056 68.7568 65.1666 69.8524 65.3317C70.1379 65.3389 70.4232 65.3119 70.7023 65.2513L70.674 65.2188Z" fill="#594A39"/>
<path d="M35.1788 105.564V100.965C35.0853 100.907 35.0288 100.844 34.9614 100.837C32.7724 100.644 32.7724 100.644 32.7724 102.832V105.564C30.9203 105.564 29.164 105.564 27.4076 105.564C25.5316 105.575 25.6685 105.346 25.6555 107.187C25.641 107.411 25.612 107.634 25.5685 107.854C25.385 107.886 25.2 107.909 25.0142 107.922C23.7535 107.922 22.4948 107.922 21.1602 107.922V105.761C21.8558 105.703 22.7948 105.89 23.1991 105.509C23.6035 105.129 23.4622 104.182 23.5817 103.336H30.4791V100.854L28.2792 100.741V98.6226H33.2419C33.6028 98.6226 33.9658 98.5965 34.3288 98.6226C35.0114 98.6791 35.3418 98.4401 35.2853 97.7077C35.2734 97.2666 35.2909 96.8252 35.3374 96.3864C35.4069 96.3492 35.4796 96.3186 35.5548 96.2951C37.6482 96.0409 37.6482 96.0409 37.6503 93.8872V93.7808C37.6503 91.4794 37.6503 91.4794 35.3874 91.1881V89.1758H39.8502C39.8915 89.8669 39.9328 90.5688 39.9806 91.3772L42.2457 91.5402V93.6069L39.9676 93.7438V100.728L37.6003 100.841V105.522H35.1549L35.1788 105.564Z" fill="#594A39"/>
<path d="M108.676 86.7138C107.487 86.6855 106.295 86.5943 105.111 86.6464C104.241 86.6834 103.924 86.3769 104.024 85.5338C104.046 85.1465 104.046 84.7584 104.024 84.3711C103.202 84.2581 102.285 84.3907 101.874 83.9973C101.498 83.6496 101.657 82.7217 101.576 81.961L99.4023 81.8524V74.8634H106.206C106.271 74.7595 106.323 74.6487 106.363 74.5331C106.565 72.499 106.565 72.499 108.695 72.499H110.997V74.733H108.75V77.1953H110.993V81.8502L108.641 81.9741V86.7551L108.676 86.7138ZM104 77.1953V79.5336H106.332V77.1953H104Z" fill="#594A39"/>
<path d="M18.7064 74.8176C18.7064 73.5919 18.6564 72.3619 18.7281 71.1384C18.7803 70.2409 18.4912 69.8714 17.5804 69.991C17.1518 70.0176 16.722 70.0176 16.2935 69.991L16.1913 72.2815H14.0176V65.3273H16.5652C18.4064 65.3273 20.2498 65.373 22.0888 65.3078C23.0213 65.273 23.4474 65.5251 23.3213 66.5074C23.3059 66.8906 23.3233 67.2745 23.3734 67.6548L25.6081 67.77C25.6516 68.5632 25.6928 69.2695 25.7385 70.0866H32.6945V74.6503H30.6903C30.6488 74.5121 30.6168 74.3712 30.5947 74.2287C30.4469 72.3684 30.4469 72.3684 28.5318 72.3684H23.3147V77.1494H21.0388L21.0801 77.182V74.7763H18.6629L18.7064 74.8176Z" fill="#594A39"/>
<path d="M49.5187 67.6337V63.1265L51.8164 62.994C51.8164 62.1986 52.1011 61.225 51.7381 60.7925C51.3751 60.3601 50.3665 60.4905 49.5796 60.3579V58.326C51.2077 58.5085 52.5207 58.2456 51.7816 55.9355C53.1772 55.9355 54.3901 55.892 55.6031 55.9485C56.3943 55.9854 56.7095 55.7507 56.6661 54.9206C56.6052 53.734 56.6509 52.5431 56.6509 51.2588H61.1462V53.3755L58.8637 53.4972V57.9717C58.8637 59.2756 58.9072 60.5795 58.8507 61.8704C58.8137 62.7397 59.0507 63.1743 59.9897 63.0548C60.372 63.0316 60.7552 63.0316 61.1375 63.0548V65.1976H56.5291V69.9155H54.2793C54.2793 68.7355 54.2054 67.5837 54.2988 66.4384C54.3858 65.391 53.9662 65.0824 53.0119 65.2128C52.662 65.2584 52.3033 65.2497 51.8512 65.2715C51.8186 66.0277 51.786 66.7318 51.749 67.5794H49.4883L49.5187 67.6337ZM54.2249 63.0005C54.6336 63.0244 54.9879 63.02 55.3335 63.07C56.3574 63.2178 56.7943 62.8288 56.6639 61.7661C56.6243 61.1874 56.6199 60.6068 56.6509 60.0276C56.6509 57.9478 56.6508 57.9457 54.5532 58.1499C54.4375 58.1809 54.3269 58.2285 54.2249 58.2912V63.0005Z" fill="#594A39"/>
<path d="M18.7066 84.3301C18.6696 85.4797 18.5523 86.6336 18.6218 87.7767C18.6849 88.8047 18.311 89.1502 17.3349 89.022C16.991 89.0061 16.6463 89.0191 16.3046 89.0611V96.2587C17.0893 96.2 18.0436 96.3977 18.4783 96.0131C18.8718 95.6849 18.7088 94.6918 18.7957 93.9529C18.9306 93.9148 19.0678 93.8858 19.2066 93.866C21.0717 93.7291 21.0717 93.7312 21.0717 91.8058V84.417H23.2128L23.3802 86.688L25.6844 86.801C25.6083 87.5377 25.7735 88.4461 25.3996 88.8351C25.0257 89.2241 24.1236 89.035 23.4715 89.098C23.4193 89.1937 23.3606 89.2523 23.3519 89.3154C23.0563 91.3647 23.1346 91.4668 25.1692 91.469C25.9648 91.469 26.7582 91.469 27.5603 91.4907C27.6913 91.5126 27.8195 91.5483 27.9429 91.5972V93.6856C26.7039 93.6856 25.4561 93.7073 24.2106 93.6856C23.5802 93.6704 23.3128 93.8682 23.2911 94.5418C23.2432 96.0196 23.2085 96.0174 21.6846 96.087C21.5086 96.087 21.3347 96.1239 21.0325 96.1587L20.8782 98.4123H14.0156V86.8118L16.2785 86.6684V84.367H18.7305L18.7066 84.3301Z" fill="#594A39"/>
<path d="M37.5668 112.729V110.375H35.393C35.3191 109.506 35.2517 108.75 35.1756 107.985L35.1387 108.024H40.0101C40.0101 106.305 40.0101 104.699 40.0101 103.091C40.0101 100.918 40.0101 100.918 42.2491 100.902C43.0751 100.902 43.9011 100.861 44.7293 100.839L44.6967 100.796V105.594H47.1574V103.365L49.5007 103.212L49.4703 103.182V105.594C51.681 105.822 51.681 105.822 51.831 107.883C51.8366 107.918 51.8454 107.953 51.8571 107.987L51.9006 107.957H49.479C49.4421 108.748 49.4073 109.478 49.366 110.33H47.0835L47.114 110.371V108.024H42.3099V112.757L42.3404 112.714L37.5298 112.69L37.5668 112.729Z" fill="#594A39"/>
<path d="M37.5451 136.389C37.5864 136.216 37.6161 136.04 37.6342 135.863C37.7016 134.085 37.6994 134.085 39.5384 134.085H42.3361V131.912H44.6337V134.027L46.9814 134.155C47.0292 134.924 47.0705 135.63 47.1118 136.328L47.1379 136.298H42.3382V141.12H37.5907C37.5538 141.941 37.5212 142.641 37.4842 143.419H32.9323V138.855C32.9323 137.699 32.9976 136.539 32.9128 135.378C32.8324 134.324 33.2106 133.911 34.2453 134.074C34.4909 134.114 34.7409 134.118 35.0931 134.146C35.13 134.872 35.1648 135.574 35.2039 136.363H37.5603V138.753H39.9384V136.363L37.5451 136.389Z" fill="#594A39"/>
<path d="M80.2804 133.961L82.5606 134.178C82.5976 134.93 82.6302 135.637 82.6672 136.399H85.0583V129.495H87.3016V141.048C88.1711 141.217 89.0406 141.174 89.5884 141.58C89.8949 141.797 89.6428 142.782 89.6428 143.451H85.1192V138.835H82.6672C82.6367 139.516 82.602 140.22 82.5628 141.072H80.2478L80.2782 141.106V138.749H73.3569C73.2943 138.616 73.2462 138.478 73.2135 138.336C73.1091 136.467 73.1113 136.467 75.0003 136.467H80.3043V133.922L80.2804 133.961Z" fill="#594A39"/>
<path d="M37.5283 112.69V115.055H35.2263C35.1785 115.857 35.1372 116.561 35.0916 117.358L32.8243 117.478V122.102H30.694C30.6469 121.956 30.6106 121.806 30.5854 121.655C30.4375 119.805 30.4397 119.805 28.629 119.805H23.5293V112.836H25.6009C25.6487 113.59 25.6922 114.325 25.7422 115.144H27.8573C28.0138 115.97 27.9812 116.83 28.3681 117.413C28.5616 117.704 29.8506 117.741 30.0571 117.461C30.4919 116.876 30.5267 116.005 30.7658 115.103H28.3051V112.73H37.5697L37.5283 112.69Z" fill="#594A39"/>
<path d="M97.0887 95.9757C96.9822 95.2216 97.1083 94.3176 96.717 93.8917C96.3692 93.5157 95.4432 93.6743 94.6824 93.5787V89.178C95.049 89.1295 95.4194 89.115 95.7888 89.1346C96.7887 89.2758 97.03 88.8195 96.9778 87.9045C96.9104 86.7267 96.9626 85.5445 96.9626 84.3036H94.4889C94.4476 85.0664 94.4085 85.7727 94.365 86.5506H92.3086V82.0478L94.5084 81.9392C94.5584 81.1916 94.6085 80.4571 94.6606 79.666H96.7257C96.767 80.4006 96.8105 81.1351 96.8583 81.95H99.1364C98.869 83.7625 99.3342 84.9273 101.478 84.2927V86.5702L99.1994 86.681V95.9757H97.0887Z" fill="#594A39"/>
<path d="M44.7288 100.839V93.9461H47.0308V96.154H49.4871V93.9287H54.0759V98.3881L51.8587 98.5098V103.219L51.887 103.178H49.4698L49.5002 103.208C49.5002 101.878 49.5393 100.546 49.5002 99.2182C49.5002 98.9596 49.2045 98.5315 48.9937 98.4967C48.385 98.3989 47.7503 98.462 47.0373 98.462V100.796H44.707L44.7288 100.839Z" fill="#594A39"/>
<path d="M75.4932 110.328V112.682H73.1542V115.055H68.4045C68.3654 115.876 68.3328 116.55 68.2958 117.321H63.8418V115.2H66.0286C66.0916 114.383 66.1482 113.651 66.2134 112.81H68.4284C68.4697 111.978 68.5023 111.265 68.5393 110.471L70.7805 110.354C70.8152 109.591 70.8478 108.885 70.887 107.998H73.152L73.1086 107.966V110.382H75.528L75.4932 110.328Z" fill="#594A39"/>
<path d="M92.0036 81.8479H87.5234V79.6617L89.8189 79.5465V74.8699H92.1405C92.1905 74.0614 92.234 73.3595 92.2818 72.5771H96.7446V74.6938L94.4708 74.796V79.4661L92.1318 79.5683C92.0818 80.3441 92.0449 81.0525 92.0036 81.8479Z" fill="#594A39"/>
<path d="M73.0498 58.071L70.7891 58.1862C70.75 58.9512 70.7174 59.6531 70.6804 60.405C69.9305 60.4876 68.9958 60.3246 68.5958 60.7114C68.1958 61.0983 68.3393 62.0371 68.2241 62.8846C67.7893 62.8846 67.335 62.8629 66.8829 62.8846C66.3025 62.9172 66.1612 62.6282 66.1308 62.1023C66.0438 60.5615 66.0242 60.5636 64.4656 60.4898C64.2917 60.4898 64.1178 60.4463 63.8613 60.4137V58.334C65.5612 58.5882 66.6698 58.0862 66.0981 55.9587H70.7696L70.9043 53.6182H73.0498V58.071Z" fill="#594A39"/>
<path d="M51.8987 133.993C51.9639 134.024 52.0325 134.046 52.103 134.06C54.1616 134.228 54.1616 134.228 54.1594 136.355V143.423H49.5945V141.304L51.8291 141.171V138.696H47.0664L47.0968 138.731C47.1099 137.922 47.1237 137.112 47.1382 136.301L47.1121 136.331H51.9335V133.965L51.8987 133.993Z" fill="#594A39"/>
<path d="M44.7048 67.6029L49.5197 67.6268L49.4849 67.592C49.4479 68.3418 49.411 69.0915 49.3675 69.9478L47.1133 70.0477C47.0764 70.7757 47.0416 71.4799 47.0003 72.3274L44.7113 72.4361V74.7635H42.2615L42.2984 74.7961C42.331 74.0486 42.3636 73.301 42.4028 72.423H37.8378C37.7628 72.2929 37.7037 72.1543 37.6618 72.0101C37.5118 70.1129 37.514 70.1129 39.4204 70.1129H44.7308V67.5703L44.7048 67.6029Z" fill="#594A39"/>
<path d="M94.5918 69.9369C94.5918 69.4284 94.5918 69.035 94.5918 68.633C94.5918 68.3831 94.6309 68.1353 94.6635 67.742H99.2545C99.3024 66.8944 99.3415 66.186 99.385 65.4102H106.206V67.5833C104.415 67.2465 103.361 67.8137 103.967 69.9282L94.5918 69.9369Z" fill="#594A39"/>
<path d="M65.9065 122.354V126.781H61.4677C61.4221 126.077 61.3764 125.381 61.3264 124.629L59.0918 124.519V122.45C59.1716 122.401 59.257 122.363 59.3461 122.335C61.3981 122.15 61.3982 122.15 61.3982 120.022V117.604H63.5958C63.5958 118.631 63.5958 119.662 63.5958 120.689C63.5958 122.645 63.5958 122.278 65.2349 122.306C65.4131 122.311 65.5913 122.33 65.9065 122.354Z" fill="#594A39"/>
<path d="M73.1528 79.5855L73.255 77.2515H75.544V74.8241H77.9004L77.8612 74.7871V81.9347H80.1719V84.3252H75.4875L75.5266 84.3491V79.5464H73.1094L73.1528 79.5855Z" fill="#594A39"/>
<path d="M108.683 107.955H106.333V110.228H104.051C104.051 108.883 104.031 107.496 104.077 106.114C104.077 105.962 104.458 105.725 104.681 105.699C105.219 105.661 105.758 105.654 106.297 105.68C106.383 104.854 106.214 103.915 106.601 103.519C106.988 103.124 107.927 103.276 108.714 103.176C108.746 102.485 108.779 101.781 108.816 101.003H110.99V105.512L108.638 105.621V107.99L108.683 107.955Z" fill="#594A39"/>
<path d="M108.7 138.724V136.395H104.135V131.879H106.235C106.267 132.576 106.302 133.244 106.339 133.996H108.711V131.907H110.976V138.696H108.665L108.7 138.724Z" fill="#594A39"/>
<path d="M61.1333 96.0169H59.1378C59.0829 95.8029 59.0451 95.5849 59.0247 95.3649C59.003 93.6264 59.3312 93.6742 57.2162 93.6764H54.3555V91.5379C54.812 91.5162 55.2989 91.4554 55.7836 91.4771C56.4357 91.5075 56.6814 91.2489 56.6531 90.5904C56.6183 89.3691 56.6531 88.1456 56.6531 86.833H58.866C58.866 87.9565 58.9334 89.067 58.8486 90.1645C58.766 91.2228 59.153 91.6227 60.1898 91.4793C60.506 91.4678 60.8225 91.4853 61.1354 91.5314L61.1333 96.0169Z" fill="#594A39"/>
<path d="M44.6955 86.7091C43.5108 86.6809 42.3239 86.5918 41.1414 86.6461C40.2392 86.6874 39.8914 86.3897 40.0001 85.49C40.0159 85.0952 39.9991 84.6998 39.9501 84.3078L39.9219 84.3491H42.3391V79.5463L42.2956 79.5768H47.0779L47.041 79.542V81.8673H44.6498V86.757L44.6955 86.7091Z" fill="#594A39"/>
<path d="M16.3536 117.54V115.108L16.3166 115.143H18.6665V112.796H21.0967L21.0598 112.757C21.0293 115.365 20.9881 117.953 20.9707 120.55C20.9554 122.471 21.0293 122.175 19.3468 122.195C19.133 122.21 18.9204 122.239 18.7099 122.28L18.7447 122.312V117.505H16.3145L16.3536 117.54Z" fill="#594A39"/>
<path d="M16.1713 110.26H14.0215V101.046C14.1386 100.989 14.2629 100.947 14.391 100.922C16.2279 100.785 16.2279 100.787 16.2279 102.635V105.536C17.0604 105.662 17.9343 105.571 18.456 105.953C18.782 106.192 18.5733 107.153 18.6125 107.909H16.2909L16.1713 110.26Z" fill="#594A39"/>
<path d="M108.667 138.696V143.416H99.4004V141.265H106.159C106.278 141.087 106.339 141.032 106.35 140.969C106.463 140.287 106.35 139.379 106.739 138.987C107.128 138.596 108.024 138.796 108.695 138.731L108.667 138.696Z" fill="#594A39"/>
<path d="M73.1127 51.1343C71.9584 51.1104 70.8041 51.03 69.6542 51.08C68.7673 51.1191 68.3717 50.8453 68.476 49.9282C68.4887 49.519 68.4727 49.1095 68.4282 48.7025H63.8438V46.4902H70.6368C70.6955 47.1943 70.5042 48.1353 70.8846 48.533C71.265 48.9307 72.2127 48.7938 73.0757 48.9155V51.1713L73.1127 51.1343Z" fill="#594A39"/>
<path d="M42.298 122.35H47.0454V124.695L47.0846 124.658L44.6934 124.552V129.174H40.0938V127.099L42.3284 126.962V122.315L42.298 122.35Z" fill="#594A39"/>
<path d="M103.857 124.705H106.329C106.375 123.864 106.414 123.129 106.455 122.362H108.67C108.67 123.49 108.755 124.572 108.646 125.635C108.527 126.822 109.001 127.187 110.098 127.041C110.397 127.033 110.696 127.056 110.99 127.111V129.232C109.62 129.232 108.261 129.256 106.905 129.201C106.729 129.201 106.449 128.801 106.42 128.562C106.22 126.935 106.238 126.935 104.631 126.85C104.49 126.85 104.351 126.806 104.142 126.774C104.057 126.072 103.975 125.374 103.89 124.677L103.857 124.705Z" fill="#594A39"/>
<path d="M37.4754 124.816V131.553H35.2864V127.068C35.1479 126.996 35.0022 126.938 34.8516 126.896C32.93 126.659 32.9257 126.662 32.93 124.66C32.93 124.011 32.9409 123.359 32.9626 122.704C32.9897 122.583 33.0337 122.466 33.0931 122.356H35.0668C35.1255 123.076 34.9342 124.012 35.3103 124.417C35.6864 124.821 36.6406 124.695 37.4754 124.816Z" fill="#594A39"/>
<path d="M108.633 98.6233V100.796H105.944C103.912 100.796 103.912 100.796 103.912 102.876V105.506H101.683C101.683 104.493 101.662 103.5 101.683 102.509C101.718 101.259 101.794 100.012 101.855 98.7646C103.107 98.7189 104.359 98.6581 105.614 98.6298C106.588 98.6059 107.555 98.6233 108.633 98.6233Z" fill="#594A39"/>
<path d="M54.2246 74.79C54.242 75.5919 54.2573 76.396 54.2746 77.1979L54.3116 77.1631H49.4685V79.5536H47.0469L47.0838 79.5884V74.827H54.2573L54.2246 74.79Z" fill="#594A39"/>
<path d="M42.3314 122.315C40.5685 122.274 38.8077 122.215 37.0448 122.196C35.0884 122.176 35.0428 122.146 35.4079 119.981L36.4188 119.918L37.5774 119.864C37.6165 119.11 37.6535 118.406 37.6948 117.619H39.8468C39.8859 118.312 39.9294 119.045 39.975 119.86L42.2988 119.973V122.35L42.3314 122.315Z" fill="#594A39"/>
<path d="M77.8824 53.5297C76.6977 53.5036 75.5108 53.4124 74.3304 53.4689C73.4218 53.5101 73.0892 53.2016 73.1914 52.3084C73.2019 51.9156 73.1758 51.5227 73.1131 51.1349L73.0762 51.1718H75.5499V46.4951H77.8454V53.5667L77.8824 53.5297Z" fill="#594A39"/>
<path d="M49.4512 86.7968L51.8423 86.6838C51.8771 85.9319 51.9119 85.1996 51.951 84.415H54.1617C54.1617 85.7733 54.1922 87.0989 54.1291 88.4202C54.1291 88.6375 53.7118 88.9331 53.4487 88.9831C52.9662 89.0765 52.4553 89.0091 51.8358 89.0091V91.1954H49.4838V86.7577L49.4512 86.7968Z" fill="#594A39"/>
<path d="M47.045 124.694H49.3557V131.54H44.8125V129.486L47.0841 129.347V124.657L47.045 124.694Z" fill="#594A39"/>
<path d="M61.1646 143.46H59.1191V138.962H65.8969V141.135C64.7687 141.135 63.658 141.2 62.5602 141.118C61.5429 141.042 61.069 141.346 61.219 142.422C61.2324 142.769 61.2142 143.117 61.1646 143.46Z" fill="#594A39"/>
<path d="M25.6621 100.74L23.3862 100.848C23.3383 101.613 23.297 102.32 23.2492 103.102H18.7734V100.966L21.0341 100.853L21.1363 98.6426C22.5058 98.6426 23.8579 98.6209 25.2078 98.6687C25.3665 98.6687 25.6099 99.0316 25.6425 99.2511C25.6836 99.7463 25.6901 100.244 25.6621 100.74Z" fill="#594A39"/>
<path d="M106.134 91.4664C106.288 92.3835 106.18 93.2962 106.582 93.7004C106.945 94.0634 107.866 93.8699 108.601 93.9178V96.0431C107.247 96.0431 105.891 96.0801 104.538 95.9975C104.349 95.9866 104.028 95.3607 104.058 95.0478C104.162 93.9612 103.808 93.4744 102.684 93.6678C101.7 93.8352 101.699 93.2028 101.669 92.4878C101.632 91.6729 101.928 91.4012 102.73 91.4425C103.873 91.5099 105.021 91.4664 106.134 91.4664Z" fill="#594A39"/>
<path d="M58.7582 136.305H56.7344V129.529H58.7495C58.8386 130.24 58.6973 131.14 59.0821 131.576C59.419 131.959 60.3472 131.822 61.121 131.931V133.887C60.4037 133.976 59.4603 133.821 59.0777 134.213C58.6951 134.604 58.8473 135.532 58.7582 136.305Z" fill="#594A39"/>
<path d="M108.639 86.7574H110.971V93.6247H108.678C108.678 91.3015 108.678 89.011 108.678 86.7227L108.639 86.7574Z" fill="#594A39"/>
<path d="M63.8799 82.0283H65.8863V86.5398H61.4648V84.4623C62.2191 84.3732 63.1604 84.534 63.5473 84.145C63.9343 83.756 63.7843 82.8063 63.8799 82.0283Z" fill="#594A39"/>
<path d="M96.853 141.191C96.8139 141.971 96.7791 142.647 96.74 143.408H94.6641V138.936H99.0703V141.063L96.853 141.191Z" fill="#594A39"/>
<path d="M103.902 115.179H106.217V119.675C106.058 119.732 105.892 119.773 105.724 119.797C104.028 119.89 104.039 119.888 104.024 118.151C104.024 117.147 103.968 116.143 103.939 115.142L103.902 115.179Z" fill="#594A39"/>
<path d="M70.7148 79.6121L73.1516 79.5795L73.1082 79.5469C73.1082 81.1478 73.1082 82.7487 73.1082 84.3496L73.1494 84.3257C73.1161 84.3106 73.0811 84.2997 73.0451 84.2931C70.83 84.0758 70.8366 84.0758 70.8279 81.8265C70.8279 81.0768 70.7779 80.3249 70.7496 79.5751L70.7148 79.6121Z" fill="#594A39"/>
<path d="M70.7095 65.2433C70.779 63.7503 70.8486 62.2595 70.9268 60.7383H73.0506V65.2107H70.6855L70.7095 65.2433Z" fill="#594A39"/>
<path d="M30.3485 74.918V77.0694H25.9336V74.918H30.3485Z" fill="#594A39"/>
<path d="M30.3377 122.385V124.508H25.9141V122.385H30.3377Z" fill="#594A39"/>
<path d="M61.4707 67.5248V65.4189H65.8769V67.5248H61.4707Z" fill="#594A39"/>
<path d="M32.7141 93.9414V95.9777H28.3145V93.9414H32.7141Z" fill="#594A39"/>
<path d="M65.9178 89.2002V91.1908H61.4746V89.2002H65.9178Z" fill="#594A39"/>
<path d="M82.6633 48.7551L80.3809 48.603V46.4863H82.6155V48.7921L82.6633 48.7551Z" fill="#594A39"/>
<path d="M44.6895 115.183H46.9893V117.356H44.7242V115.144L44.6895 115.183Z" fill="#594A39"/>
<path d="M44.6856 112.725C44.6856 113.544 44.6856 114.361 44.6856 115.18L44.7204 115.143C43.9857 115.111 43.2509 115.074 42.3293 115.03V112.714L42.2988 112.757H44.7161L44.6856 112.725Z" fill="#594A39"/>
<path d="M47.0671 138.696V141.043H44.8281V138.961L47.0997 138.744L47.0671 138.696Z" fill="#594A39"/>
<path d="M82.6855 77.1957H84.9093V79.4449H82.7225V77.1631L82.6855 77.1957Z" fill="#594A39"/>
<path d="M16.3518 115.109H14.0215V112.851H16.1496C16.2018 113.598 16.2583 114.372 16.3126 115.143L16.3518 115.109Z" fill="#594A39"/>
<path d="M44.6582 86.757L47.1102 86.7831L47.0754 86.7483V88.9302H44.8104C44.7712 88.1696 44.7343 87.4372 44.6952 86.707L44.6582 86.757Z" fill="#594A39"/>
<path d="M49.4858 84.3672C49.4756 85.1756 49.464 85.984 49.451 86.7925L49.4771 86.7599L47.0859 86.7316L47.1207 86.7685V84.4063H49.5271L49.4858 84.3672Z" fill="#594A39"/>
<path d="M80.2537 141.087V143.421H78.0234V141.354L80.2842 141.124L80.2537 141.087Z" fill="#594A39"/>
<path d="M77.9002 74.8244V72.5947H80.2718V74.7679L80.3088 74.731L77.8633 74.7809L77.9002 74.8244Z" fill="#594A39"/>
<path d="M47.0825 110.33V112.721H44.6914L44.7327 112.753V110.363H47.1238L47.0825 110.33Z" fill="#594A39"/>
<path d="M108.646 107.99H110.975V110.248H108.844C108.792 109.5 108.738 108.727 108.683 107.955L108.646 107.99Z" fill="#594A39"/>
<path d="M77.8457 53.5663H80.2368C80.2368 54.4116 80.2368 55.2092 80.2368 56.0067C80.246 55.9976 80.254 55.9873 80.2608 55.9763C79.5325 55.9002 78.8043 55.8198 78 55.7329C77.9587 54.9897 77.9174 54.2595 77.8761 53.5293L77.8457 53.5663Z" fill="#594A39"/>
<path d="M82.7213 77.1626H80.3063V74.7373L80.2715 74.7742L82.6844 74.8351L82.6474 74.7981C82.6474 75.5979 82.6713 76.3976 82.6822 77.1886L82.7213 77.1626Z" fill="#594A39"/>
<path d="M18.7053 122.28C18.655 122.485 18.6194 122.694 18.5988 122.904C18.5357 124.766 18.4075 124.86 16.375 124.425V122.313H18.7379L18.7053 122.28Z" fill="#594A39"/>
<path d="M82.6641 105.604C82.6772 105.243 82.6967 104.884 82.7054 104.517C82.7141 104.15 82.7054 103.802 82.7054 103.465C84.8792 102.911 85.2444 103.248 84.8422 105.556H82.625L82.6641 105.604Z" fill="#594A39"/>
<path d="M49.5168 84.4063V82.0723H51.6514C51.6927 82.1483 51.7492 82.207 51.7536 82.27C51.8927 84.1563 51.8927 84.1542 49.9972 84.2498C49.8233 84.2736 49.6522 84.3143 49.4863 84.3715L49.5168 84.4063Z" fill="#594A39"/>
<path d="M82.6845 74.8349V72.7052C84.8583 72.075 85.2213 72.4162 84.8583 74.7958H82.6562L82.6845 74.8349Z" fill="#594A39"/>
<path d="M16.3151 117.506C16.2759 117.678 16.2483 117.853 16.2325 118.03C16.1629 120.02 16.0933 120.075 14 119.664V117.541H16.352L16.3151 117.506Z" fill="#594A39"/>
<path d="M70.709 122.35H73.0262V124.443C72.8721 124.5 72.7126 124.542 72.5502 124.567C70.8764 124.665 70.8785 124.66 70.8286 122.95C70.8115 122.737 70.7824 122.525 70.7416 122.315L70.709 122.35Z" fill="#594A39"/>
<path d="M85.0859 84.3887H87.1684C87.7575 86.4945 87.3553 86.9139 85.1468 86.4836C85.1272 86.2663 85.0946 86.0164 85.0903 85.773C85.0794 85.3492 85.0859 84.9233 85.0859 84.3887Z" fill="#594A39"/>
<path d="M104.151 72.314C103.796 70.0734 104.072 69.8083 106.235 70.2625V72.314H104.151Z" fill="#594A39"/>
<path d="M39.9418 48.8009C39.7388 48.7451 39.5316 48.7058 39.3223 48.6835C37.4441 48.6118 37.3659 48.501 37.7876 46.4756H39.9114V48.8357C39.9209 48.8235 39.931 48.8119 39.9418 48.8009Z" fill="#594A39"/>
<path d="M82.6152 48.7918L85.1216 48.8114L85.089 48.7831C85.0407 48.9533 85.0058 49.1269 84.9846 49.3025C84.902 51.2584 84.9042 51.2584 82.7544 50.952C82.7218 50.2348 82.687 49.4938 82.6544 48.7549L82.6152 48.7918Z" fill="#594A39"/>
<path d="M54.2864 72.341H51.9648V70.2417C52.1178 70.1834 52.2768 70.1419 52.4387 70.1179C54.1104 70.0201 54.1082 70.0222 54.1603 71.7347C54.1783 71.947 54.2081 72.1581 54.2495 72.3671L54.2864 72.341Z" fill="#594A39"/>
<path d="M75.4781 141.376C75.4781 141.778 75.4781 142.136 75.4781 142.495C75.4781 142.778 75.4542 143.062 75.439 143.419H73.3304C72.95 141.23 73.1761 141.002 75.4781 141.376Z" fill="#594A39"/>
<path d="M111.001 65.499V67.5483H108.886C108.538 65.2774 108.825 65.0035 111.001 65.499Z" fill="#594A39"/>
<path d="M61.1562 115.25V117.345H59.1172V115.25H61.1562Z" fill="#594A39"/>
<path d="M70.7517 79.586L68.5605 79.473V77.3193H70.7148V79.6229L70.7517 79.586Z" fill="#594A39"/>
<path d="M61.4863 110.445H63.5296V112.634H61.4863V110.445Z" fill="#594A39"/>
<path d="M27.9711 110.484V112.636H25.9277V110.484H27.9711Z" fill="#594A39"/>
<path d="M21.0975 112.797V110.476H23.2213V112.649L21.0605 112.766L21.0975 112.797Z" fill="#594A39"/>
<path d="M28.2715 110.252V108.092H30.3431V110.252H28.2715Z" fill="#594A39"/>
<path d="M70.7422 122.315C70.5748 122.261 70.4032 122.222 70.2292 122.198C68.3076 122.104 68.2402 122.019 68.6445 119.918C68.9575 119.918 69.2966 119.918 69.6488 119.918C70.0009 119.918 70.277 119.951 70.7118 119.974C70.7118 120.796 70.7118 121.57 70.7118 122.345L70.7422 122.315Z" fill="#594A39"/>
<path d="M59.0977 46.46H61.0258C61.6388 48.5114 61.2432 48.9461 59.0977 48.5332V46.46Z" fill="#594A39"/>
<path d="M35.1741 107.985L33.0221 107.881C32.9917 107.394 32.9678 106.911 32.9352 106.431C32.8982 105.884 33.1525 105.664 33.696 105.671C34.1916 105.671 34.6851 105.603 35.1807 105.564L35.1437 105.529V108.022L35.1741 107.985Z" fill="#594A39"/>
<path d="M28.3086 65.4189H30.3454V67.5443H28.3086V65.4189Z" fill="#594A39"/>
<path d="M85.1786 60.7461H87.2893V62.702C85.1829 63.2865 84.9177 63.0692 85.1786 60.7461Z" fill="#594A39"/>
<path d="M47.2266 60.6797C47.7657 60.6797 48.233 60.6797 48.6982 60.6797C48.9221 60.6983 49.1449 60.7288 49.3656 60.771V62.8051H47.2266V60.6797Z" fill="#594A39"/>
<path d="M96.6896 103.128H94.668V101.101C96.6657 100.49 96.983 100.788 96.6896 103.128Z" fill="#594A39"/>
<path d="M30.3137 86.5554H28.3008V84.417H30.3137V86.5554Z" fill="#594A39"/>
<path d="M54.255 72.3727C54.4589 72.4283 54.6668 72.4683 54.8767 72.4922C56.7027 72.5617 56.8005 72.7095 56.3158 74.7871H54.2246L54.2637 74.824C54.2724 73.9953 54.2797 73.1666 54.2855 72.3379L54.255 72.3727Z" fill="#594A39"/>
<path d="M87.4759 124.669C87.4085 125.336 87.3433 126.005 87.2585 126.766H85.1348V124.699H87.4998L87.4759 124.669Z" fill="#594A39"/>
<path d="M110.996 96.3193V98.3665H108.822V96.3193H110.996Z" fill="#594A39"/>
<path d="M68.2982 141.389V143.421H66.2962C65.8049 141.328 66.1505 140.969 68.2982 141.389Z" fill="#594A39"/>
<path d="M35.1657 48.8005L33.0137 48.5701V46.4795H35.1353V48.8331C35.1448 48.8216 35.155 48.8108 35.1657 48.8005Z" fill="#594A39"/>
<path d="M89.8867 88.8918V86.8359H91.8649C92.4996 88.8613 92.18 89.2308 89.8867 88.8918Z" fill="#594A39"/>
<path d="M63.834 55.7547V53.625H65.8773V55.7547H63.834Z" fill="#594A39"/>
<path d="M54.093 129.488V131.559H51.9648V129.488H54.093Z" fill="#594A39"/>
<path d="M58.7044 72.3249H56.748V70.2516C58.8479 69.8387 59.1914 70.1995 58.7044 72.3249Z" fill="#594A39"/>
<path d="M73.2812 93.9287H75.4072V95.9693H73.2812V93.9287Z" fill="#594A39"/>
<path d="M89.906 65.2099H87.5605V63.1367H89.5995C89.6908 63.8495 89.7821 64.5449 89.8734 65.2382L89.906 65.2099Z" fill="#594A39"/>
<path d="M103.831 88.8758C101.706 89.2691 101.477 89.0453 101.797 86.833H103.831V88.8758Z" fill="#594A39"/>
<path d="M54.332 51.0909V48.8525H56.5058C56.4515 49.5545 56.6384 50.4411 56.2775 50.8497C55.9689 51.2083 55.0407 51.0279 54.332 51.0909Z" fill="#594A39"/>
<path d="M51.9342 133.961H49.5996V131.87H51.7038C51.769 132.592 51.8342 133.294 51.8994 133.993L51.9342 133.961Z" fill="#594A39"/>
<path d="M59.125 67.8047H61.164V69.9279H59.125V67.8047Z" fill="#594A39"/>
<path d="M70.9023 93.5855V91.5645H73.0391V93.5855H70.9023Z" fill="#594A39"/>
<path d="M103.94 115.142L101.799 115.039V112.866H103.903V115.174L103.94 115.142Z" fill="#594A39"/>
<path d="M61.4434 131.525V129.517H63.5171V131.525H61.4434Z" fill="#594A39"/>
<path d="M54.3281 129.375V126.972C55.0694 127.069 55.8498 126.991 56.3671 127.317C56.628 127.478 56.6584 128.675 56.3932 128.875C55.9106 129.24 55.1281 129.21 54.3281 129.375Z" fill="#594A39"/>
<path d="M35.0824 62.9591C34.3303 62.857 33.5108 62.9591 33.0826 62.6136C32.7869 62.368 32.7935 61.1815 33.0826 60.9359C33.5173 60.5838 34.3303 60.7055 35.0716 60.6143L35.0824 62.9591Z" fill="#594A39"/>
<path d="M63.5029 62.8523H61.4922V60.7617H63.5029V62.8523Z" fill="#594A39"/>
<path d="M101.479 96.124V98.5276C100.733 98.4124 99.9571 98.4798 99.4463 98.1364C99.1811 97.956 99.1724 96.7738 99.4463 96.5543C99.9006 96.2001 100.681 96.2653 101.479 96.124Z" fill="#594A39"/>
<path d="M28.2715 91.2104V89.2002H30.2996V91.2104H28.2715Z" fill="#594A39"/>
<path d="M89.9141 60.6035C90.664 60.7035 91.4835 60.5905 91.9118 60.9469C92.2074 61.1946 92.2009 62.379 91.9118 62.6246C91.477 62.9766 90.664 62.8549 89.9249 62.9462L89.9141 60.6035Z" fill="#594A39"/>
<path d="M94.6719 127.098H96.7065V129.14H94.6719V127.098Z" fill="#594A39"/>
<path d="M18.752 58.1104V51.2627H25.6624C25.6624 53.3837 25.6797 55.4678 25.6363 57.5519C25.6363 57.7409 25.2515 58.0821 25.0407 58.0865C22.9778 58.1256 20.9214 58.1104 18.752 58.1104Z" fill="#594A39"/>
<path d="M25.663 138.696H18.7852V131.792H22.7175C25.6651 131.792 25.6651 131.792 25.663 134.711V138.696Z" fill="#594A39"/>
<path d="M99.3376 51.2236H106.196V58.1061C104.087 58.1061 102 58.1235 99.918 58.08C99.7838 58.0395 99.6622 57.9652 99.5648 57.8644C99.4674 57.7636 99.3974 57.6396 99.3615 57.5041C99.3202 55.4505 99.3376 53.3946 99.3376 51.2236Z" fill="#594A39"/>
</svg>
