<svg width="168" height="207" viewBox="0 0 168 207" fill="none" xmlns="http://www.w3.org/2000/svg">
<rect x="1.5" y="1.5" width="165.001" height="203.46" rx="8.5" fill="white"/>
<rect x="1.5" y="1.5" width="165.001" height="203.46" rx="8.5" stroke="#E9E3D8" stroke-width="3"/>
<path d="M59.4393 22.24L58.9993 23.86H62.5193L62.0793 22.24C61.6193 20.7 61.2193 19 60.7993 17.4H60.6993C60.3193 19.02 59.8793 20.7 59.4393 22.24ZM54.3193 29.96L59.0593 15.14H62.5393L67.2993 29.96H64.1993L63.1593 26.16H58.3593L57.3193 29.96H54.3193Z" fill="#B8C318"/>
<path d="M69.5918 34.26V18.76H71.9918L72.2118 19.92H72.2718C73.2118 19.12 74.3718 18.48 75.5718 18.48C78.3318 18.48 79.9718 20.74 79.9718 24.18C79.9718 28.02 77.6718 30.24 75.2118 30.24C74.2318 30.24 73.2918 29.8 72.4318 29.02L72.5318 30.86V34.26H69.5918ZM74.5518 27.82C75.9118 27.82 76.9518 26.66 76.9518 24.22C76.9518 22.08 76.2718 20.9 74.7318 20.9C73.9718 20.9 73.2918 21.28 72.5318 22.06V26.98C73.2318 27.6 73.9518 27.82 74.5518 27.82Z" fill="#B8C318"/>
<path d="M83.2629 34.26V18.76H85.6629L85.8829 19.92H85.9429C86.8829 19.12 88.0429 18.48 89.2429 18.48C92.0029 18.48 93.6429 20.74 93.6429 24.18C93.6429 28.02 91.3429 30.24 88.8829 30.24C87.9029 30.24 86.9629 29.8 86.1029 29.02L86.2029 30.86V34.26H83.2629ZM88.2229 27.82C89.5829 27.82 90.6229 26.66 90.6229 24.22C90.6229 22.08 89.9429 20.9 88.4029 20.9C87.6429 20.9 86.9629 21.28 86.2029 22.06V26.98C86.9029 27.6 87.6229 27.82 88.2229 27.82Z" fill="#B8C318"/>
<path d="M99.694 30.24C97.654 30.24 96.934 28.9 96.934 26.82V14H99.874V26.94C99.874 27.62 100.174 27.84 100.454 27.84C100.574 27.84 100.654 27.84 100.854 27.8L101.214 29.98C100.874 30.12 100.394 30.24 99.694 30.24Z" fill="#B8C318"/>
<path d="M105.023 34.46C104.363 34.46 103.923 34.38 103.483 34.24L104.023 31.98C104.223 32.04 104.543 32.12 104.803 32.12C105.943 32.12 106.583 31.4 106.903 30.42L107.103 29.76L102.743 18.76H105.703L107.483 23.96C107.823 24.96 108.103 26.04 108.423 27.12H108.523C108.783 26.08 109.063 25 109.323 23.96L110.863 18.76H113.683L109.703 30.3C108.723 32.94 107.523 34.46 105.023 34.46Z" fill="#B8C318"/>
<path d="M109.705 172.696H106.326V169.544H99.3168V176.077C98.7866 176.131 98.3756 176.2 97.9897 176.206C95.8657 176.25 95.8657 176.244 95.8625 178.301V182.962H92.7597C92.6812 181.918 92.5997 180.858 92.5149 179.735L89.3525 179.581C89.2741 178.461 89.1956 177.385 89.114 176.288L85.9453 176.14V169.767H88.7909C88.8789 169.926 88.9413 170.099 88.976 170.278C89.1893 172.931 89.1862 172.932 91.8247 172.932H95.9943C95.9943 170.736 96.0351 168.634 95.9315 166.533C95.9315 166.317 95.0123 165.928 94.5668 165.987C92.8758 166.213 92.5056 165.423 92.6122 163.93C92.7189 162.49 92.6373 161.038 92.6373 159.482H95.7025C95.8437 160.552 95.6461 161.863 96.2108 162.465C96.7159 163.004 98.0587 162.763 99.0846 162.87C99.2697 163.93 99.1254 165.322 99.7529 165.987C100.233 166.495 101.685 166.088 102.846 166.088V156.051H106.128V166.041H109.686V156.019L113.005 155.866V152.356H106.417V149.122H109.579V145.578H106.395V142.215H109.692V138.765H113.143V135.246L113.093 135.299H119.995V128.565L123.176 128.415C123.296 128.23 123.39 128.145 123.399 128.054C123.713 124.877 123.713 124.877 120.547 124.877H116.71V121.74C118.279 121.74 119.885 121.646 121.47 121.765C123.004 121.881 123.76 121.452 123.481 119.799C123.454 119.32 123.474 118.84 123.54 118.365C125.878 118.563 127.967 118.35 126.678 114.987H129.9V124.667C128.836 124.855 127.437 124.707 126.885 125.322C126.333 125.937 126.775 127.276 126.775 128.39L129.912 128.562V131.727H123.384V135.218H126.521V138.577H119.995V142.09H123.261C123.261 144.204 123.299 146.168 123.22 148.115C123.22 148.379 122.656 148.765 122.301 148.837C121.533 148.945 120.758 149.005 119.983 149.015V145.587H116.532V148.994H119.983C119.936 150.653 119.776 152.318 119.876 153.968C119.964 155.436 119.459 155.969 118.031 155.772C117.535 155.749 117.037 155.767 116.544 155.828C116.459 156.894 116.739 158.253 116.193 158.83C115.647 159.407 114.273 159.212 113.127 159.375V162.644L116.296 162.848V165.808C115.245 165.921 113.89 165.677 113.319 166.238C112.748 166.8 112.983 168.155 112.851 169.293C112.356 169.324 111.854 169.362 111.349 169.39C110.843 169.419 110.326 169.444 109.632 169.475V172.756L109.705 172.696Z" fill="#594A39"/>
<path d="M102.746 101.11V104.539H113.002V111.125C116.196 111.909 116.432 111.715 116.679 108.164H119.688C119.759 108.305 119.811 108.453 119.845 108.607C120.118 111.408 120.115 111.408 123.02 111.408H124.743C126.706 111.408 126.898 111.586 126.625 113.559C126.556 113.792 126.432 114.004 126.263 114.177C126.094 114.351 125.886 114.481 125.655 114.557C123.437 114.87 123.434 114.83 123.284 117.1C123.248 117.385 123.196 117.668 123.13 117.947H120.25C120.159 117.765 120.08 117.677 120.074 117.583C119.889 114.604 119.892 114.604 116.896 114.604H113.109V118.201L116.328 118.393V121.451H109.649V128.222L106.26 128.411V131.82H113.097L113.04 131.764C113.059 132.943 113.075 134.122 113.093 135.302L113.144 135.248H106.216V138.639H102.746L102.797 138.702V135.214H99.3047L99.3675 135.261V131.786C97.2403 131.786 95.1728 131.751 93.0927 131.83C92.8543 131.83 92.4998 132.457 92.4464 132.811C92.3829 133.585 92.3724 134.363 92.4151 135.139H89.0738C89.0204 136.318 88.9734 137.334 88.92 138.488H85.9238V132.011L89.124 131.845C89.1867 130.722 89.2463 129.703 89.3122 128.568L92.4496 128.417C92.5265 128.009 92.582 127.598 92.6159 127.184C92.6974 125.042 92.6911 125.048 94.8967 125.039C96.252 125.039 97.6074 125.011 98.9753 124.989C99.0663 124.989 99.1572 124.91 99.3675 124.816C99.4176 123.91 99.471 122.934 99.5306 121.855L102.825 121.639V118.421L106.232 118.204V114.971L109.652 114.77V111.27L106.364 111.081V107.901H89.3498V104.67L92.5154 104.52L92.7445 101.286H95.6465C95.8411 102.356 95.7344 103.695 96.3493 104.423C96.7603 104.909 98.2004 104.517 99.3737 104.517V101.11L99.3141 101.145H102.8L102.746 101.11Z" fill="#594A39"/>
<path d="M120.094 159.383V156.077C120.305 156.014 120.521 155.969 120.74 155.942C123.463 155.823 123.463 155.826 123.463 153.019V149.161H126.647V155.553C126.946 155.751 127.027 155.845 127.115 155.867C130.315 156.181 130.315 156.181 130.315 153.044C130.315 152.938 130.315 152.834 130.315 152.731C130.29 151.586 130.644 150.19 130.111 149.378C129.71 148.75 128.169 148.895 127.011 148.669V145.683H133.619V138.66H130.425V132.042H133.377C133.449 133.068 133.518 134.074 133.6 135.263H140.239V138.641H137.016V145.62H140.248V148.879C138.409 148.879 136.646 148.935 134.889 148.857C133.766 148.807 133.427 149.246 133.478 150.309C133.543 151.768 133.553 153.232 133.478 154.7C133.402 156.168 134.372 155.955 135.244 155.93C136.116 155.905 137.271 156.303 137.158 154.7C137.111 154.038 137.158 153.367 137.158 152.599H143.699V159.402L143.743 159.361C140.348 158.853 140.348 158.853 140.348 162.209C140.348 162.313 140.348 162.419 140.348 162.523C140.38 163.614 140.035 165.001 140.562 165.709C141.039 166.337 142.507 166.208 143.665 166.437V169.298C142.978 169.362 142.289 169.391 141.6 169.385C140.659 169.342 140.279 169.734 140.345 170.678C140.402 171.559 140.345 172.45 140.345 173.334V176.098H133.964C133.785 175.063 133.936 173.661 133.308 172.996C132.825 172.481 131.363 172.892 130.196 172.892C130.124 173.952 130.055 174.972 129.979 176.104H126.961C127.331 173.654 126.695 171.942 123.469 172.902C123.469 171.073 123.469 169.523 123.469 167.974C123.469 165.995 123.469 165.995 121.399 165.951C121.038 165.951 120.674 165.907 120.178 165.876V163.009C121.248 162.783 122.581 162.858 123.294 162.228C123.774 161.801 123.385 160.387 123.385 159.198L120.053 159.349L120.094 159.383ZM126.682 159.311C126.682 162.523 126.654 165.637 126.726 168.749C126.726 169.062 127.353 169.58 127.692 169.589C130.503 169.654 133.316 169.654 136.132 169.589C136.464 169.589 137.073 169.138 137.073 168.884C137.139 165.722 137.114 162.557 137.114 159.308L126.682 159.311Z" fill="#594A39"/>
<path d="M44.4988 49.8852H48.0002V56.6914L44.7091 56.544C44.1851 60.2796 44.7091 60.7627 48.1382 59.8656C48.0849 58.8243 48.0316 57.7453 47.9782 56.6695H51.3917V67.6097C51.3917 70.7305 51.6301 70.9124 54.8647 70.191V56.7448C54.7472 56.6803 54.6231 56.6288 54.4945 56.5911C51.5391 56.3151 51.5454 56.3182 51.5328 53.2632C51.5328 52.1215 51.4701 50.9798 51.4387 49.8381L51.3917 49.8883H58.2311V53.144H61.7387V46.5322H65.0863V53.1628L68.5374 53.3448C68.5374 55.3208 68.5656 57.2811 68.5029 59.2414C68.5029 59.4955 68.0291 59.9064 67.7342 59.9472C66.9388 60.0085 66.1403 60.019 65.3436 59.9785C65.2871 58.7866 65.24 57.783 65.1898 56.6538H58.3723V60.0507L61.6226 60.2451V66.628L58.319 66.8256V76.9754L58.366 76.9252H55.0404C54.9902 75.8023 54.9432 74.7829 54.893 73.66H51.4607V76.8969L48.0567 77.0726C48.0033 78.1453 47.9468 79.2023 47.8904 80.344H41.3552C41.3552 78.3586 41.3207 76.4045 41.3991 74.4567C41.3991 74.1964 41.9827 73.8075 42.3403 73.7479C43.0925 73.6815 43.8486 73.671 44.6024 73.7165L44.8063 70.6145C45.9076 70.4451 47.0496 70.4796 47.9437 70.0248C48.292 69.8492 48.1947 68.5601 48.1037 67.801C47.837 65.5427 45.8542 67.4874 44.7969 66.192C44.8754 66.4209 44.7687 66.239 44.7499 66.0446C44.6746 65.2228 44.9161 64.1376 44.48 63.6483C44.0439 63.159 42.9396 63.4256 42.1552 63.2374C41.8415 63.1621 41.4023 62.7669 41.396 62.5128C41.3458 59.5049 41.3646 56.4938 41.3646 53.3197H44.7185C44.6589 52.0431 44.6087 50.9391 44.5585 49.8381L44.4988 49.8852Z" fill="#594A39"/>
<path d="M68.6392 128.387H75.579C75.51 127.245 75.8143 125.877 75.2653 125.222C74.7947 124.651 73.3578 124.874 72.2346 124.729V121.747H77.1509C77.6183 121.747 78.0921 121.747 78.5595 121.747C79.7015 121.718 81.0945 122.06 81.9071 121.518C82.5346 121.11 82.4091 119.586 82.6444 118.428H85.468C85.4669 118.975 85.5036 119.521 85.5778 120.062C85.6908 120.617 85.8476 121.558 86.1269 121.615C87.0459 121.757 87.9828 121.735 88.894 121.549C89.0666 121.518 89.2078 120.727 89.2078 120.294C89.2391 118.052 89.2235 115.809 89.2235 113.567C89.2235 111.324 89.2235 111.327 91.4792 111.437C91.7302 111.437 91.9781 111.506 92.2793 111.547C92.3985 112.61 92.16 113.968 92.7216 114.536C93.2832 115.103 94.6448 114.896 95.7523 115.041V117.936C95.31 117.98 94.8645 118.049 94.4158 118.061C92.4236 118.111 92.4236 118.105 92.4205 120.16V124.889C90.9522 124.889 89.6156 124.874 88.2791 124.889C85.2327 124.93 85.5998 124.444 85.5716 127.665C85.5716 128.957 85.5716 130.253 85.5716 131.771H80.7965C78.7101 131.771 78.707 131.771 78.7478 133.8C78.7478 134.258 78.8199 134.716 78.867 135.29H82.0044V138.615H78.7478V145.5H72.0213V148.846C72.2624 148.934 72.5114 148.998 72.7648 149.038C75.3186 149.179 75.3218 149.176 75.3249 151.82C75.3249 153.593 75.3249 155.37 75.3249 157.152C75.3249 159.319 75.3249 159.322 73.1507 159.228C72.837 159.228 72.5483 159.147 72.0777 159.074V152.328H65.3418V149.116L68.6925 148.959V135.218L68.6298 135.262H75.5508C75.5121 134.69 75.5121 134.115 75.5508 133.543C75.7642 132.085 75.1429 131.642 73.7311 131.74C72.0966 131.853 70.4526 131.765 68.6611 131.765V128.314L68.6392 128.387ZM78.8858 128.616C80.1157 128.449 81.4365 128.616 82.1989 128.038C82.6695 127.681 82.6789 125.702 82.1989 125.341C81.4459 124.761 80.122 124.914 78.8764 124.733L78.8858 128.616Z" fill="#594A39"/>
<path d="M109.686 77.0161H106.376V70.5172L109.595 70.3196V66.838H106.207V70.0498H102.95V63.576H109.642V60.1917C109.632 60.2081 109.62 60.2239 109.608 60.2388H116.563V53.26H121.329C123.497 53.26 123.5 53.26 123.459 51.0331C123.459 50.6755 123.415 50.3179 123.384 49.8098H116.613L116.66 49.8506V46.5039H126.666V49.8412C126.666 51.56 126.597 53.2914 126.684 54.9945C126.75 56.2491 126.261 56.6255 125.056 56.5628C123.406 56.4781 121.749 56.5408 119.905 56.5408V63.1652L116.535 63.3784C116.485 64.4511 116.438 65.4642 116.384 66.6153L113.159 66.8192V70.3258L116.372 70.4952C116.425 71.5491 116.472 72.5151 116.522 73.5722C117.589 73.6757 118.941 73.4216 119.512 73.9736C120.083 74.5256 119.879 75.89 120.017 76.922C120.074 76.9627 120.159 77.0788 120.237 77.0725C121.288 76.9878 122.785 77.2638 123.271 76.6899C123.829 76.0249 123.497 74.6103 123.553 73.5188L123.506 73.5565H129.972V76.9376H126.835C126.728 78.1295 126.634 79.1803 126.521 80.3878H119.98C119.908 81.5985 119.842 82.6555 119.776 83.7847H116.667C116.62 82.6994 116.573 81.6832 116.522 80.4976H109.821C109.758 79.221 109.705 78.1013 109.652 76.9816L113.024 77.1666V73.6694H109.683L109.686 77.0161Z" fill="#594A39"/>
<path d="M20.8481 101.172V97.6905H14.0117V87.3901H20.7916L20.7414 87.3305L20.7916 90.8215H17.3405V94.1681H20.7633V90.7744L24.2427 90.8183L24.1831 90.7713V94.165H27.5871L27.744 90.9626H30.737C30.8092 91.9694 30.8845 93.0264 30.9661 94.1869H37.8306C37.8997 93.1331 37.9687 92.0698 38.0471 90.881H41.2221C41.3006 89.7017 41.3727 88.6447 41.448 87.503H44.4536C44.5132 88.5475 44.576 89.6076 44.6419 90.7556H51.5127V87.3713H54.8603L54.8069 87.3242C54.8237 89.639 54.8404 91.9548 54.8571 94.2716L54.9199 94.2277H51.4311V101.159L51.4719 101.1H48.0647C48.0145 102.151 47.9675 103.17 47.9204 104.174C45.1438 104.964 44.9995 104.832 44.5885 101.053C42.0786 101.508 40.6291 100.636 41.3664 97.7187H34.3638L34.1819 100.905H27.7691C27.7032 99.8358 27.6436 98.8259 27.5777 97.7281H24.3086C24.2333 97.8598 24.1517 97.9414 24.1392 98.0417C24.0011 98.9827 24.205 100.313 23.6623 100.799C23.1195 101.285 21.7798 101.059 20.8135 101.141L20.8481 101.172ZM44.6638 94.2716V97.6371H48.0177V94.2716H44.6638Z" fill="#594A39"/>
<path d="M14.043 46.4873H37.5732V70.0395H14.043V46.4873ZM17.2901 66.8747C17.8611 66.9186 18.269 66.9782 18.6737 66.9782C23.4112 66.9782 28.1517 66.9406 32.886 67.0127C34.2477 67.0316 34.5363 66.5046 34.5206 65.2751C34.4673 60.6425 34.5018 56.0098 34.4955 51.3772C34.4955 50.8722 34.4453 50.3641 34.4108 49.7838H17.2901V66.8747Z" fill="#594A39"/>
<path d="M14.0234 162.822H37.5349V186.418H14.0234V162.822ZM34.3975 183.178C34.4414 182.576 34.4979 182.168 34.4979 181.761C34.4979 177.024 34.4571 172.288 34.5293 167.552C34.5512 166.188 34.0147 165.909 32.788 165.921C28.1541 165.978 23.5203 165.94 18.8864 165.949C18.3812 165.949 17.8761 166.003 17.3177 166.037V183.178H34.3975Z" fill="#594A39"/>
<path d="M130.455 46.4922H153.985V70.0381H130.455V46.4922ZM133.592 49.7354C133.549 50.3344 133.492 50.7422 133.492 51.1499C133.492 55.8861 133.533 60.6223 133.461 65.3584C133.439 66.7165 133.963 67.0082 135.196 66.9925C139.83 66.9361 144.463 66.9737 149.097 66.9674C149.602 66.9674 150.108 66.911 150.666 66.8796V49.7291L133.592 49.7354Z" fill="#594A39"/>
<path d="M95.797 73.5332V80.4681H99.2042C99.4238 79.3609 99.3673 78.0906 99.954 77.3064C100.287 76.8642 101.686 77.228 102.665 77.228V83.8649C101.036 83.8649 99.3862 83.9621 97.7548 83.8367C96.2614 83.7206 95.6245 84.1911 95.8503 85.7186C95.8736 86.2298 95.8516 86.742 95.7845 87.2492H92.509V90.643H85.6413V97.5433H79.0529C78.7987 98.7446 78.8144 99.971 78.2497 100.805C77.9736 101.21 76.612 100.874 75.6394 100.874C75.5892 99.7985 75.5421 98.8262 75.4857 97.6813L72.1852 97.5151V90.7402L72.1318 90.7904H75.2221C75.31 91.9917 75.3884 93.0487 75.47 94.1809H82.2844V90.7308H79.0843V87.4845L82.3126 87.3339C82.3659 86.2801 82.4161 85.3077 82.4632 84.3417C82.6326 84.2444 82.755 84.1158 82.8899 84.1033C83.7652 84.0218 84.9166 84.2758 85.4343 83.8147C85.952 83.3537 85.6194 82.1618 85.8861 81.362C86.0053 81.0107 86.6704 80.6531 87.1034 80.6312C88.8603 80.5496 90.6235 80.5966 92.6283 80.5966C92.6283 78.8559 92.7287 77.2531 92.5969 75.6723C92.4651 74.0915 93.0299 73.4579 94.6111 73.6963C95.0232 73.7066 95.435 73.6677 95.8378 73.5802L95.797 73.5332Z" fill="#594A39"/>
<path d="M44.5688 131.763V125.126C44.4339 125.041 44.3524 124.95 44.2551 124.941C41.0958 124.662 41.0957 124.662 41.0957 127.82V131.763C38.4227 131.763 35.8877 131.763 33.3527 131.763C30.6452 131.779 30.8428 131.449 30.824 134.106C30.8031 134.429 30.7612 134.751 30.6985 135.069C30.4337 135.115 30.1667 135.147 29.8985 135.166C28.0788 135.166 26.2623 135.166 24.3359 135.166V132.048C25.3399 131.964 26.6952 132.233 27.2788 131.684C27.8623 131.136 27.6584 129.768 27.831 128.548H37.7858V124.966L34.6108 124.803V121.745H41.7734C42.2942 121.745 42.8182 121.707 43.3421 121.745C44.3272 121.826 44.8041 121.481 44.7226 120.424C44.7055 119.788 44.7306 119.151 44.7979 118.517C44.8981 118.464 45.0031 118.42 45.1116 118.386C48.1329 118.019 48.1329 118.019 48.136 114.91V114.757C48.136 111.435 48.136 111.435 44.87 111.015V108.11H51.311C51.3707 109.108 51.4303 110.121 51.4993 111.288L54.7684 111.523V114.506L51.4805 114.703V124.784L48.0639 124.947V131.703H44.5343L44.5688 131.763Z" fill="#594A39"/>
<path d="M150.646 104.559C148.93 104.518 147.21 104.386 145.5 104.462C144.246 104.515 143.787 104.073 143.932 102.856C143.963 102.297 143.963 101.737 143.932 101.178C142.746 101.015 141.422 101.206 140.829 100.638C140.286 100.136 140.515 98.7972 140.399 97.6994L137.262 97.5426V87.4555H147.082C147.175 87.3055 147.25 87.1456 147.308 86.9788C147.599 84.043 147.599 84.043 150.674 84.043H153.996V87.2673H150.752V90.821H153.99V97.5394L150.596 97.7182V104.619L150.646 104.559ZM143.897 90.821V94.1959H147.264V90.821H143.897Z" fill="#594A39"/>
<path d="M20.7927 87.3871C20.7927 85.6181 20.7205 83.8428 20.824 82.077C20.8993 80.7816 20.4821 80.2484 19.1675 80.4209C18.549 80.4593 17.9287 80.4593 17.3102 80.4209L17.1628 83.7268H14.0254V73.6899H17.7024C20.3597 73.6899 23.0202 73.7558 25.6744 73.6617C27.0204 73.6115 27.6353 73.9753 27.4533 75.393C27.4311 75.9462 27.4563 76.5002 27.5286 77.0491L30.7538 77.2153C30.8166 78.3602 30.8762 79.3795 30.9421 80.5589H40.9816V87.1456H38.089C38.029 86.9462 37.9828 86.7429 37.9509 86.5371C37.7376 83.8522 37.7376 83.8522 34.9736 83.8522H27.4439V90.7526H24.1591L24.2187 90.7996V87.3275H20.7299L20.7927 87.3871Z" fill="#594A39"/>
<path d="M65.2617 77.0224V70.5172L68.5779 70.3259C68.5779 69.1779 68.9889 67.7728 68.4649 67.1486C67.941 66.5244 66.4853 66.7126 65.3496 66.5213V63.5886C67.6994 63.8521 69.5944 63.4726 68.5277 60.1385C70.5419 60.1385 72.2925 60.0757 74.0432 60.1573C75.1852 60.2106 75.6401 59.8719 75.5774 58.6737C75.4895 56.9612 75.5554 55.2424 75.5554 53.3887H82.0435V56.4436L78.7493 56.6193V63.0774C78.7493 64.9593 78.812 66.8412 78.7304 68.7043C78.6771 69.9589 79.0191 70.5862 80.3744 70.4137C80.9261 70.3803 81.4793 70.3803 82.0309 70.4137V73.5063H75.3797V80.3158H72.1325C72.1325 78.6126 72.0259 76.9503 72.1608 75.2973C72.2863 73.7855 71.6807 73.3401 70.3034 73.5283C69.7983 73.5942 69.2807 73.5816 68.6281 73.613C68.581 74.7045 68.534 75.7207 68.4806 76.944H65.2178L65.2617 77.0224ZM72.0541 70.3353C72.6439 70.3698 73.1553 70.3636 73.6542 70.4357C75.1319 70.649 75.7625 70.0875 75.5742 68.5538C75.5171 67.7185 75.5108 66.8806 75.5554 66.0446C75.5554 63.0429 75.5554 63.0398 72.5279 63.3346C72.3609 63.3793 72.2013 63.4479 72.0541 63.5385V70.3353Z" fill="#594A39"/>
<path d="M20.7939 101.119C20.7405 102.778 20.5711 104.444 20.6715 106.094C20.7625 107.577 20.2228 108.076 18.8142 107.891C18.3178 107.868 17.8203 107.887 17.3271 107.947V118.336C18.4597 118.251 19.837 118.536 20.4644 117.981C21.0323 117.507 20.797 116.074 20.9225 115.008C21.1172 114.953 21.3153 114.911 21.5155 114.882C24.2073 114.685 24.2073 114.688 24.2073 111.909V101.245H27.2976L27.5392 104.522L30.8648 104.685C30.755 105.749 30.9935 107.06 30.4538 107.621C29.9142 108.183 28.6122 107.91 27.671 108.001C27.5957 108.139 27.511 108.223 27.4984 108.314C27.0717 111.272 27.1847 111.419 30.1213 111.423C31.2695 111.423 32.4147 111.423 33.5724 111.454C33.7613 111.486 33.9464 111.537 34.1246 111.608V114.622C32.3363 114.622 30.5354 114.653 28.7377 114.622C27.8278 114.6 27.4419 114.885 27.4106 115.858C27.3416 117.991 27.2913 117.987 25.0921 118.088C24.8379 118.088 24.5869 118.141 24.1508 118.191L23.9281 121.444H14.0234V104.701L17.2894 104.494V101.172H20.8284L20.7939 101.119Z" fill="#594A39"/>
<path d="M48.0113 142.105V138.708H44.8739C44.7673 137.453 44.67 136.362 44.5602 135.257L44.5068 135.314H51.5377C51.5377 132.833 51.5377 130.515 51.5377 128.194C51.5377 125.057 51.5377 125.057 54.7692 125.036C55.9614 125.036 57.1536 124.976 58.3489 124.945L58.3019 124.882V131.807H61.8534V128.589L65.2355 128.37L65.1915 128.326V131.807C68.3822 132.137 68.3822 132.137 68.5987 135.11C68.6068 135.161 68.6194 135.212 68.6364 135.261L68.6991 135.217H65.2041C65.1508 136.358 65.1006 137.412 65.0409 138.642H61.7467L61.7906 138.701V135.314H54.857V142.145L54.9009 142.083L47.9579 142.048L48.0113 142.105Z" fill="#594A39"/>
<path d="M47.9801 176.254C48.0397 176.004 48.0827 175.751 48.1087 175.495C48.206 172.929 48.2029 172.929 50.8571 172.929H54.8949V169.793H58.2111V172.845L61.5994 173.03C61.6684 174.14 61.7281 175.16 61.7877 176.166L61.8253 176.122H54.898V183.082H48.046C47.9927 184.268 47.9456 185.278 47.8923 186.401H41.3226V179.814C41.3226 178.146 41.4167 176.471 41.2944 174.796C41.1783 173.274 41.7242 172.679 43.2176 172.914C43.5721 172.97 43.9329 172.977 44.4412 173.017C44.4945 174.065 44.5447 175.078 44.6012 176.217H48.0021V179.667H51.4344V176.217L47.9801 176.254Z" fill="#594A39"/>
<path d="M109.66 172.75L112.951 173.064C113.005 174.149 113.052 175.169 113.105 176.269H116.556V166.305H119.794V182.978C121.049 183.223 122.304 183.16 123.095 183.747C123.537 184.061 123.173 185.481 123.173 186.447H116.644V179.785H113.105C113.061 180.767 113.011 181.783 112.955 183.013H109.613L109.657 183.063V179.66H99.6678C99.5775 179.469 99.508 179.27 99.4607 179.064C99.3102 176.367 99.3133 176.367 102.04 176.367H109.695V172.694L109.66 172.75Z" fill="#594A39"/>
<path d="M47.9596 142.051V145.463H44.6371C44.5681 146.621 44.5085 147.637 44.4426 148.788L41.1703 148.961V155.635H38.0957C38.0276 155.424 37.9752 155.208 37.9388 154.989C37.7255 152.32 37.7286 152.32 35.1152 152.32H27.7549V142.261H30.7448C30.8138 143.349 30.8766 144.409 30.9487 145.592H34.0014C34.2273 146.784 34.1802 148.026 34.7387 148.866C35.0179 149.287 36.8784 149.34 37.1764 148.935C37.8039 148.092 37.8541 146.834 38.1992 145.532H34.6477V142.107H48.0192L47.9596 142.051Z" fill="#594A39"/>
<path d="M133.922 117.923C133.768 116.835 133.95 115.53 133.385 114.916C132.883 114.373 131.547 114.602 130.448 114.464V108.112C130.978 108.042 131.512 108.021 132.045 108.05C133.489 108.254 133.837 107.595 133.762 106.274C133.664 104.574 133.74 102.868 133.74 101.077H130.169C130.11 102.178 130.053 103.197 129.99 104.32H127.022V97.8214L130.197 97.6646C130.27 96.5856 130.342 95.5255 130.417 94.3838H133.398C133.457 95.4439 133.52 96.5041 133.589 97.6803H136.877C136.491 100.296 137.162 101.977 140.256 101.061V104.349L136.968 104.509V117.923H133.922Z" fill="#594A39"/>
<path d="M58.3517 124.945V114.996H61.6742V118.183H65.2194V114.971H71.8424V121.407L68.6423 121.583V128.379L68.6831 128.32H65.1943L65.2382 128.364C65.2382 126.444 65.2947 124.521 65.2382 122.605C65.2382 122.232 64.8115 121.614 64.5072 121.564C63.6287 121.423 62.7126 121.513 61.6836 121.513V124.882H58.3203L58.3517 124.945Z" fill="#594A39"/>
<path d="M102.754 138.64V142.037H99.378V145.462H92.5228C92.4664 146.647 92.4193 147.62 92.366 148.733H85.9375V145.672H89.0937C89.1847 144.493 89.2663 143.436 89.3604 142.222H92.5573C92.617 141.02 92.664 139.992 92.7174 138.847L95.952 138.678C96.0022 137.577 96.0493 136.557 96.1057 135.278H99.3748L99.3121 135.23V138.718H102.804L102.754 138.64Z" fill="#594A39"/>
<path d="M126.583 97.5357H120.117V94.3803L123.43 94.2141V87.4643H126.781C126.853 86.2975 126.916 85.2844 126.985 84.1553H133.426V87.2102L130.144 87.3577V94.0981L126.768 94.2455C126.696 95.3652 126.643 96.3877 126.583 97.5357Z" fill="#594A39"/>
<path d="M99.2265 63.2207L95.9636 63.3869C95.9072 64.491 95.8601 65.5041 95.8068 66.5893C94.7244 66.7085 93.3753 66.4733 92.798 67.0316C92.2208 67.5899 92.4278 68.9449 92.2616 70.1681C91.6341 70.1681 90.9784 70.1367 90.3258 70.1681C89.4881 70.2152 89.2842 69.798 89.2403 69.0389C89.1148 66.8151 89.0865 66.8183 86.837 66.7116C86.5861 66.7116 86.3351 66.6489 85.9648 66.6019V63.6002C88.4183 63.9672 90.0183 63.2427 89.1932 60.172H95.9354L96.1299 56.7939H99.2265V63.2207Z" fill="#594A39"/>
<path d="M68.7 172.797C68.794 172.841 68.893 172.873 68.9949 172.894C71.966 173.135 71.966 173.135 71.9628 176.206V186.406H65.3743V183.348L68.5996 183.157V179.584H61.7256L61.7695 179.634C61.7883 178.467 61.8082 177.299 61.8291 176.128L61.7915 176.172H68.7502V172.756L68.7 172.797Z" fill="#594A39"/>
<path d="M58.3165 76.9777L65.2658 77.0122L65.2156 76.962C65.1623 78.0441 65.109 79.1262 65.0462 80.362L61.7928 80.5063C61.7394 81.557 61.6892 82.5733 61.6296 83.7965L58.326 83.9533V87.3126H54.7901L54.8435 87.3596C54.8905 86.2807 54.9376 85.2017 54.9941 83.9345H48.4056C48.2973 83.7468 48.212 83.5467 48.1514 83.3386C47.935 80.6004 47.9381 80.6004 50.6896 80.6004H58.3542V76.9307L58.3165 76.9777Z" fill="#594A39"/>
<path d="M130.317 80.342C130.317 79.608 130.317 79.0403 130.317 78.46C130.317 78.0993 130.374 77.7418 130.421 77.1741H137.047C137.116 75.9508 137.173 74.9283 137.235 73.8086H147.08V76.9451C144.495 76.459 142.974 77.2776 143.849 80.3294L130.317 80.342Z" fill="#594A39"/>
<path d="M88.9157 155.997V162.386H82.5092C82.4433 161.37 82.3774 160.366 82.3053 159.281L79.0801 159.121V156.135C79.1953 156.065 79.3185 156.009 79.4471 155.969C82.4088 155.702 82.4088 155.702 82.4088 152.632V149.141H85.5807C85.5807 150.624 85.5807 152.111 85.5807 153.594C85.5807 156.417 85.5807 155.887 87.9463 155.928C88.2036 155.934 88.4608 155.963 88.9157 155.997Z" fill="#594A39"/>
<path d="M99.3752 94.2682L99.5227 90.8996H102.826V87.3961H106.227L106.171 87.3428V97.6588H109.506V101.109H102.745L102.801 101.143V94.2118H99.3125L99.3752 94.2682Z" fill="#594A39"/>
<path d="M150.656 135.216H147.264V138.497H143.97C143.97 136.556 143.942 134.555 144.008 132.56C144.008 132.34 144.557 131.998 144.88 131.961C145.656 131.905 146.434 131.896 147.211 131.932C147.336 130.741 147.092 129.386 147.65 128.815C148.208 128.244 149.564 128.463 150.7 128.319C150.747 127.322 150.794 126.305 150.847 125.183H153.984V131.691L150.59 131.848V135.267L150.656 135.216Z" fill="#594A39"/>
<path d="M150.678 179.622V176.26H144.09V169.742H147.121C147.168 170.749 147.218 171.712 147.271 172.797H150.694V169.783H153.963V179.581H150.628L150.678 179.622Z" fill="#594A39"/>
<path d="M82.0265 117.984H79.1464C79.0673 117.676 79.0127 117.361 78.9832 117.044C78.9518 114.534 79.4256 114.603 76.3729 114.606H72.2441V111.52C72.903 111.489 73.6057 111.401 74.3054 111.432C75.2466 111.476 75.6011 111.103 75.5603 110.153C75.5101 108.39 75.5603 106.624 75.5603 104.729H78.7542C78.7542 106.351 78.8515 107.954 78.7291 109.538C78.6099 111.065 79.1683 111.642 80.6648 111.435C81.1211 111.419 81.5779 111.444 82.0296 111.511L82.0265 117.984Z" fill="#594A39"/>
<path d="M58.3057 104.549C56.5958 104.509 54.8828 104.38 53.1761 104.458C51.8741 104.518 51.3721 104.088 51.529 102.79C51.5517 102.22 51.5275 101.649 51.4568 101.083L51.416 101.143H54.9048V94.2114L54.842 94.2553H61.7443L61.6909 94.2051V97.5612H58.2398V104.618L58.3057 104.549Z" fill="#594A39"/>
<path d="M17.3944 149.051V145.541L17.341 145.591H20.7325V142.204H24.2401L24.1868 142.147C24.1428 145.911 24.0833 149.647 24.0582 153.395C24.0362 156.168 24.1428 155.741 21.7145 155.769C21.4059 155.792 21.099 155.832 20.7953 155.892L20.8455 155.939V149.001H17.3379L17.3944 149.051Z" fill="#594A39"/>
<path d="M17.1322 138.542H14.0293V125.243C14.1984 125.16 14.3778 125.1 14.5627 125.064C17.2138 124.867 17.2137 124.87 17.2137 127.536V131.723C18.4153 131.905 19.6766 131.773 20.4295 132.325C20.9001 132.67 20.5989 134.057 20.6554 135.148H17.3047L17.1322 138.542Z" fill="#594A39"/>
<path d="M150.631 179.583V186.396H137.257V183.29H147.011C147.183 183.033 147.271 182.955 147.287 182.864C147.45 181.879 147.287 180.568 147.849 180.003C148.41 179.439 149.703 179.727 150.672 179.633L150.631 179.583Z" fill="#594A39"/>
<path d="M99.3172 53.2047C97.6513 53.1702 95.9853 53.0542 94.3256 53.1263C93.0456 53.1828 92.4746 52.7876 92.6252 51.4639C92.6434 50.8734 92.6203 50.2823 92.5562 49.6949H85.9395V46.502H95.7437C95.8284 47.5182 95.5524 48.8763 96.1014 49.4503C96.6504 50.0243 98.0183 49.8267 99.2639 50.0023V53.258L99.3172 53.2047Z" fill="#594A39"/>
<path d="M54.8424 155.992H61.6944V159.376L61.7509 159.323L58.2998 159.169V165.84H51.6611V162.845L54.8864 162.647V155.941L54.8424 155.992Z" fill="#594A39"/>
<path d="M143.69 159.391H147.258C147.324 158.177 147.38 157.117 147.44 156.01H150.637C150.637 157.638 150.759 159.2 150.602 160.733C150.43 162.446 151.113 162.973 152.698 162.763C153.129 162.751 153.56 162.785 153.984 162.863V165.924C152.008 165.924 150.047 165.959 148.089 165.88C147.835 165.88 147.43 165.303 147.389 164.958C147.101 162.609 147.126 162.609 144.807 162.487C144.603 162.487 144.403 162.424 144.101 162.377C143.979 161.364 143.86 160.357 143.737 159.35L143.69 159.391Z" fill="#594A39"/>
<path d="M47.881 159.551V169.274H44.7217V162.8C44.5219 162.696 44.3116 162.612 44.0943 162.552C41.3208 162.21 41.3146 162.213 41.3208 159.325C41.3208 158.388 41.3365 157.447 41.3679 156.502C41.407 156.327 41.4704 156.158 41.5561 156H44.4049C44.4896 157.038 44.2135 158.39 44.7562 158.973C45.299 159.557 46.6763 159.375 47.881 159.551Z" fill="#594A39"/>
<path d="M150.582 121.746V124.883H146.701C143.768 124.883 143.768 124.883 143.768 127.884V131.68H140.552C140.552 130.218 140.521 128.784 140.552 127.354C140.602 125.551 140.712 123.75 140.8 121.95C142.607 121.884 144.414 121.796 146.224 121.756C147.63 121.721 149.026 121.746 150.582 121.746Z" fill="#594A39"/>
<path d="M72.0578 87.3496C72.0829 88.507 72.1049 89.6675 72.13 90.8249L72.1833 90.7747H65.1933V94.2249H61.6982L61.7516 94.2751V87.4029H72.1049L72.0578 87.3496Z" fill="#594A39"/>
<path d="M54.8893 155.941C52.3449 155.882 49.8036 155.797 47.2592 155.769C44.4356 155.74 44.3697 155.696 44.8968 152.572L46.3557 152.482L48.0279 152.403C48.0844 151.315 48.1377 150.299 48.1973 149.163H51.3033C51.3598 150.164 51.4225 151.221 51.4884 152.397L54.8423 152.56V155.991L54.8893 155.941Z" fill="#594A39"/>
<path d="M106.198 56.6637C104.489 56.626 102.776 56.4943 101.072 56.5759C99.7606 56.6355 99.2806 56.1901 99.428 54.901C99.4433 54.3341 99.4054 53.7671 99.3151 53.2072L99.2617 53.2606H102.832V46.5107H106.145V56.717L106.198 56.6637Z" fill="#594A39"/>
<path d="M65.1641 104.678L68.6152 104.515C68.6654 103.43 68.7156 102.373 68.772 101.24H71.9628C71.9628 103.201 72.0067 105.114 71.9157 107.021C71.9157 107.335 71.3133 107.761 70.9337 107.833C70.2372 107.968 69.4999 107.871 68.6058 107.871V111.026H65.2111V104.621L65.1641 104.678Z" fill="#594A39"/>
<path d="M61.6938 159.375H65.0288V169.255H58.4717V166.291L61.7503 166.09V159.321L61.6938 159.375Z" fill="#594A39"/>
<path d="M82.0714 186.459H79.1191V179.967H88.9014V183.103C87.2731 183.103 85.67 183.197 84.0856 183.078C82.6173 182.968 81.9333 183.408 82.1498 184.96C82.1691 185.461 82.1429 185.963 82.0714 186.459Z" fill="#594A39"/>
<path d="M30.831 124.801L27.5462 124.958C27.4771 126.062 27.4175 127.082 27.3485 128.211H20.8887V125.128L24.1515 124.965L24.299 121.775C26.2755 121.775 28.227 121.743 30.1753 121.812C30.4043 121.812 30.7557 122.336 30.8028 122.653C30.862 123.368 30.8715 124.085 30.831 124.801Z" fill="#594A39"/>
<path d="M146.977 111.417C147.2 112.741 147.043 114.058 147.623 114.642C148.147 115.165 149.477 114.886 150.538 114.955V118.023C148.583 118.023 146.625 118.076 144.674 117.957C144.401 117.941 143.937 117.038 143.981 116.586C144.131 115.018 143.62 114.315 141.998 114.595C140.577 114.836 140.577 113.923 140.533 112.891C140.479 111.715 140.906 111.323 142.064 111.383C143.714 111.48 145.371 111.417 146.977 111.417Z" fill="#594A39"/>
<path d="M78.5977 176.133H75.6768V166.354H78.5851C78.7137 167.379 78.5098 168.678 79.0651 169.308C79.5514 169.86 80.8911 169.663 82.008 169.819V172.642C80.9727 172.771 79.611 172.548 79.0589 173.113C78.5067 173.677 78.7263 175.017 78.5977 176.133Z" fill="#594A39"/>
<path d="M150.593 104.62H153.959V114.531H150.649C150.649 111.178 150.649 107.872 150.649 104.569L150.593 104.62Z" fill="#594A39"/>
<path d="M85.9925 97.7949H88.8883V104.306H82.5068V101.308C83.5955 101.179 84.954 101.411 85.5125 100.85C86.0709 100.288 85.8544 98.9178 85.9925 97.7949Z" fill="#594A39"/>
<path d="M133.58 183.183C133.524 184.309 133.474 185.285 133.417 186.383H130.421V179.928H136.78V182.998L133.58 183.183Z" fill="#594A39"/>
<path d="M143.757 145.641H147.098V152.131C146.867 152.213 146.629 152.272 146.386 152.306C143.939 152.441 143.954 152.438 143.933 149.932C143.933 148.483 143.851 147.034 143.81 145.588L143.757 145.641Z" fill="#594A39"/>
<path d="M95.8545 94.308L99.3715 94.2609L99.3087 94.2139C99.3087 96.5244 99.3087 98.835 99.3087 101.146L99.3683 101.111C99.3202 101.089 99.2697 101.074 99.2177 101.064C96.0208 100.75 96.0302 100.75 96.0176 97.5041C96.0176 96.422 95.9455 95.3367 95.9047 94.2546L95.8545 94.308Z" fill="#594A39"/>
<path d="M95.847 73.5694C95.9474 71.4146 96.0478 69.263 96.1607 67.0674H99.226V73.5223H95.8125L95.847 73.5694Z" fill="#594A39"/>
<path d="M37.5966 87.5312V90.6364H31.2246V87.5312H37.5966Z" fill="#594A39"/>
<path d="M37.5818 156.041V159.105H31.1973V156.041H37.5818Z" fill="#594A39"/>
<path d="M82.5127 76.8606V73.8213H88.8722V76.8606H82.5127Z" fill="#594A39"/>
<path d="M41.0092 114.987V117.926H34.6592V114.987H41.0092Z" fill="#594A39"/>
<path d="M88.9333 108.146V111.02H82.5205V108.146H88.9333Z" fill="#594A39"/>
<path d="M113.1 49.7726L109.806 49.553V46.498H113.031V49.8259L113.1 49.7726Z" fill="#594A39"/>
<path d="M58.2949 145.648H61.6142V148.785H58.3451V145.592L58.2949 145.648Z" fill="#594A39"/>
<path d="M58.2876 142.098C58.2876 143.28 58.2876 144.46 58.2876 145.642L58.3378 145.589C57.2774 145.542 56.2169 145.488 54.8867 145.426V142.082L54.8428 142.145H58.3315L58.2876 142.098Z" fill="#594A39"/>
<path d="M61.7227 179.583V182.97H58.4912V179.966L61.7697 179.652L61.7227 179.583Z" fill="#594A39"/>
<path d="M113.134 90.8195H116.343V94.0658H113.187V90.7725L113.134 90.8195Z" fill="#594A39"/>
<path d="M17.3926 145.542H14.0293V142.283H17.1008C17.1761 143.362 17.2577 144.479 17.3361 145.592L17.3926 145.542Z" fill="#594A39"/>
<path d="M58.251 104.622L61.7899 104.66L61.7397 104.609V107.758H58.4706C58.4141 106.661 58.3608 105.604 58.3043 104.55L58.251 104.622Z" fill="#594A39"/>
<path d="M65.2166 101.172C65.2019 102.339 65.1852 103.505 65.1664 104.672L65.204 104.625L61.7529 104.584L61.8031 104.638V101.228H65.2762L65.2166 101.172Z" fill="#594A39"/>
<path d="M109.625 183.032V186.401H106.406V183.418L109.669 183.086L109.625 183.032Z" fill="#594A39"/>
<path d="M106.227 87.3987V84.1807H109.65V87.3172L109.703 87.2639L106.174 87.336L106.227 87.3987Z" fill="#594A39"/>
<path d="M61.748 138.643V142.093H58.2969L58.3565 142.14V138.69H61.8076L61.748 138.643Z" fill="#594A39"/>
<path d="M150.603 135.266H153.963V138.525H150.888C150.813 137.446 150.734 136.329 150.656 135.216L150.603 135.266Z" fill="#594A39"/>
<path d="M106.148 56.7164H109.6C109.6 57.9365 109.6 59.0876 109.6 60.2387C109.613 60.2255 109.624 60.2108 109.634 60.1948C108.583 60.085 107.532 59.969 106.371 59.8435C106.312 58.7708 106.252 57.717 106.192 56.6631L106.148 56.7164Z" fill="#594A39"/>
<path d="M113.184 90.7718H109.699V87.2715L109.648 87.3248L113.131 87.4126L113.078 87.3593C113.078 88.5135 113.112 89.6678 113.128 90.8095L113.184 90.7718Z" fill="#594A39"/>
<path d="M20.792 155.89C20.7194 156.186 20.6681 156.487 20.6382 156.79C20.5473 159.478 20.3622 159.613 17.4287 158.985V155.937H20.839L20.792 155.89Z" fill="#594A39"/>
<path d="M113.1 131.82C113.119 131.299 113.147 130.782 113.16 130.251C113.173 129.721 113.16 129.22 113.16 128.733C116.297 127.934 116.824 128.42 116.244 131.751H113.044L113.1 131.82Z" fill="#594A39"/>
<path d="M65.2597 101.23V97.8613H68.3407C68.4003 97.9711 68.4818 98.0558 68.4881 98.1467C68.6889 100.869 68.6889 100.866 65.9531 101.004C65.7022 101.038 65.4552 101.097 65.2158 101.18L65.2597 101.23Z" fill="#594A39"/>
<path d="M113.132 87.4118V84.338C116.269 83.4284 116.793 83.9208 116.269 87.3553H113.091L113.132 87.4118Z" fill="#594A39"/>
<path d="M17.3413 149C17.2848 149.249 17.2449 149.502 17.2221 149.756C17.1217 152.629 17.0213 152.707 14 152.115V149.05H17.3947L17.3413 149Z" fill="#594A39"/>
<path d="M95.8486 155.992H99.1931V159.012C98.9706 159.094 98.7404 159.154 98.506 159.191C96.0902 159.332 96.0934 159.326 96.0212 156.857C95.9966 156.55 95.9546 156.244 95.8957 155.941L95.8486 155.992Z" fill="#594A39"/>
<path d="M116.597 101.201H119.602C120.452 104.24 119.872 104.846 116.684 104.225C116.656 103.911 116.609 103.55 116.603 103.199C116.587 102.588 116.597 101.973 116.597 101.201Z" fill="#594A39"/>
<path d="M144.112 83.7738C143.601 80.54 143.999 80.1573 147.121 80.8129V83.7738H144.112Z" fill="#594A39"/>
<path d="M51.4417 49.8395C51.1487 49.7589 50.8497 49.7022 50.5476 49.6701C47.8369 49.5666 47.724 49.4066 48.3326 46.4834H51.3978V49.8897C51.4116 49.8722 51.4262 49.8554 51.4417 49.8395Z" fill="#594A39"/>
<path d="M113.03 49.8238L116.648 49.8521L116.601 49.8113C116.531 50.0568 116.481 50.3075 116.45 50.5609C116.331 53.3838 116.334 53.3838 113.231 52.9415C113.184 51.9065 113.134 50.8369 113.087 49.7705L113.03 49.8238Z" fill="#594A39"/>
<path d="M72.1466 83.8132H68.7959V80.7833C69.0167 80.6991 69.2461 80.6392 69.4799 80.6046C71.8925 80.4634 71.8893 80.4665 71.9646 82.9381C71.9906 83.2445 72.0335 83.5492 72.0933 83.8509L72.1466 83.8132Z" fill="#594A39"/>
<path d="M102.73 183.45C102.73 184.03 102.73 184.547 102.73 185.065C102.73 185.473 102.695 185.883 102.673 186.398H99.6298C99.0808 183.239 99.407 182.91 102.73 183.45Z" fill="#594A39"/>
<path d="M154.001 73.9403V76.898H150.949C150.447 73.6204 150.861 73.2252 154.001 73.9403Z" fill="#594A39"/>
<path d="M82.06 145.744V148.768H79.1172V145.744H82.06Z" fill="#594A39"/>
<path d="M95.9105 94.2724L92.748 94.1093V91.001H95.8572V94.3257L95.9105 94.2724Z" fill="#594A39"/>
<path d="M82.5361 138.81H85.4852V141.968H82.5361V138.81Z" fill="#594A39"/>
<path d="M34.164 138.867V141.972H31.2148V138.867H34.164Z" fill="#594A39"/>
<path d="M24.2438 142.202V138.853H27.309V141.989L24.1904 142.158L24.2438 142.202Z" fill="#594A39"/>
<path d="M34.6006 138.529V135.411H37.5905V138.529H34.6006Z" fill="#594A39"/>
<path d="M95.8971 155.941C95.6555 155.864 95.4078 155.807 95.1567 155.772C92.3833 155.637 92.286 155.514 92.8695 152.481C93.3213 152.481 93.8108 152.481 94.319 152.481C94.8273 152.481 95.2257 152.528 95.8532 152.563C95.8532 153.749 95.8532 154.865 95.8532 155.985L95.8971 155.941Z" fill="#594A39"/>
<path d="M79.0898 46.46H81.8727C82.7574 49.4208 82.1864 50.0481 79.0898 49.4522V46.46Z" fill="#594A39"/>
<path d="M44.5628 135.259L41.4567 135.109C41.4128 134.406 41.3783 133.71 41.3312 133.017C41.2779 132.226 41.645 131.909 42.4293 131.919C43.1446 131.919 43.8569 131.821 44.5722 131.765L44.5188 131.715V135.312L44.5628 135.259Z" fill="#594A39"/>
<path d="M34.6533 73.8213H37.593V76.8888H34.6533V73.8213Z" fill="#594A39"/>
<path d="M116.73 67.0791H119.776V69.902C116.736 70.7457 116.353 70.432 116.73 67.0791Z" fill="#594A39"/>
<path d="M61.958 66.9824C62.7361 66.9824 63.4106 66.9824 64.082 66.9824C64.4052 67.0093 64.7267 67.0533 65.0452 67.1142V70.05H61.958V66.9824Z" fill="#594A39"/>
<path d="M133.346 128.248H130.428V125.322C133.311 124.441 133.769 124.87 133.346 128.248Z" fill="#594A39"/>
<path d="M37.5468 104.33H34.6416V101.244H37.5468V104.33Z" fill="#594A39"/>
<path d="M72.0976 83.8597C72.3919 83.9401 72.6919 83.9978 72.9949 84.0323C75.6303 84.1326 75.7715 84.3459 75.0719 87.3444H72.0537L72.1102 87.3978C72.1227 86.2017 72.1332 85.0056 72.1416 83.8096L72.0976 83.8597Z" fill="#594A39"/>
<path d="M120.048 159.337C119.951 160.3 119.857 161.266 119.734 162.364H116.669V159.381H120.082L120.048 159.337Z" fill="#594A39"/>
<path d="M153.994 118.419V121.374H150.856V118.419H153.994Z" fill="#594A39"/>
<path d="M92.3685 183.47V186.403H89.479C88.77 183.382 89.2688 182.865 92.3685 183.47Z" fill="#594A39"/>
<path d="M44.5484 49.8371L41.4424 49.5047V46.4873H44.5045V49.8842C44.5183 49.8677 44.5329 49.852 44.5484 49.8371Z" fill="#594A39"/>
<path d="M123.526 107.7V104.732H126.381C127.298 107.656 126.836 108.189 123.526 107.7Z" fill="#594A39"/>
<path d="M85.9258 59.8746V56.8008H88.8749V59.8746H85.9258Z" fill="#594A39"/>
<path d="M71.8674 166.294V169.283H68.7959V166.294H71.8674Z" fill="#594A39"/>
<path d="M78.5219 83.7909H75.6982V80.7986C78.7289 80.2027 79.2246 80.7234 78.5219 83.7909Z" fill="#594A39"/>
<path d="M99.5605 114.971H102.629V117.916H99.5605V114.971Z" fill="#594A39"/>
<path d="M123.554 73.5196H120.169V70.5273H123.112C123.244 71.5561 123.375 72.5598 123.507 73.5604L123.554 73.5196Z" fill="#594A39"/>
<path d="M143.653 107.678C140.584 108.246 140.255 107.922 140.716 104.729H143.653V107.678Z" fill="#594A39"/>
<path d="M72.2129 53.1408V49.9102H75.3503C75.2718 50.9233 75.5416 52.203 75.0208 52.7926C74.5753 53.3102 73.2357 53.0498 72.2129 53.1408Z" fill="#594A39"/>
<path d="M68.7504 172.748H65.3809V169.73H68.4179C68.512 170.772 68.6061 171.785 68.7002 172.795L68.7504 172.748Z" fill="#594A39"/>
<path d="M79.1289 77.2646H82.0718V80.329H79.1289V77.2646Z" fill="#594A39"/>
<path d="M96.126 114.478V111.561H99.21V114.478H96.126Z" fill="#594A39"/>
<path d="M143.81 145.587L140.72 145.439V142.303H143.757V145.634L143.81 145.587Z" fill="#594A39"/>
<path d="M82.4775 169.232V166.334H85.4706V169.232H82.4775Z" fill="#594A39"/>
<path d="M72.2051 166.131V162.662C73.2749 162.803 74.4012 162.69 75.1479 163.161C75.5244 163.393 75.5683 165.121 75.1856 165.41C74.4891 165.937 73.3596 165.893 72.2051 166.131Z" fill="#594A39"/>
<path d="M44.4265 70.271C43.341 70.1236 42.1582 70.271 41.5401 69.7723C41.1134 69.4179 41.1229 67.7053 41.5401 67.3509C42.1676 66.8428 43.341 67.0185 44.4108 66.8867L44.4265 70.271Z" fill="#594A39"/>
<path d="M85.446 70.1199H82.5439V67.1025H85.446V70.1199Z" fill="#594A39"/>
<path d="M140.256 118.14V121.609C139.18 121.442 138.06 121.54 137.323 121.044C136.94 120.784 136.928 119.077 137.323 118.761C137.979 118.249 139.105 118.344 140.256 118.14Z" fill="#594A39"/>
<path d="M34.6006 111.048V108.146H37.5277V111.048H34.6006Z" fill="#594A39"/>
<path d="M123.565 66.8721C124.648 67.0164 125.831 66.8532 126.449 67.3676C126.875 67.7252 126.866 69.4346 126.449 69.789C125.821 70.2972 124.648 70.1215 123.581 70.2532L123.565 66.8721Z" fill="#594A39"/>
<path d="M130.432 162.845H133.368V165.793H130.432V162.845Z" fill="#594A39"/>
<path d="M20.8594 63.2758V53.3926H30.8331C30.8331 56.4538 30.8582 59.4618 30.7954 62.4697C30.7954 62.7426 30.2401 63.235 29.9358 63.2413C26.9584 63.2977 23.9905 63.2758 20.8594 63.2758Z" fill="#594A39"/>
<path d="M30.8319 179.582H20.9053V169.617H26.5808C30.835 169.617 30.8351 169.617 30.8319 173.83V179.582Z" fill="#594A39"/>
<path d="M137.164 53.335H147.063V63.2683C144.02 63.2683 141.008 63.2934 138.002 63.2307C137.808 63.1722 137.633 63.0651 137.492 62.9196C137.352 62.7741 137.251 62.5951 137.199 62.3995C137.139 59.4355 137.164 56.4684 137.164 53.335Z" fill="#594A39"/>
</svg>
