<svg width="168" height="206" viewBox="0 0 168 206" fill="none" xmlns="http://www.w3.org/2000/svg">
<rect x="1.5" y="1.5" width="165.001" height="203" rx="8.5" fill="white"/>
<rect x="1.5" y="1.5" width="165.001" height="203" rx="8.5" stroke="#E9E3D8" stroke-width="3"/>
<path d="M46.7599 26.7844L45.182 27.2828C45.1388 26.9577 45.074 26.5677 44.9875 26.1777C40.8809 26.7844 40.1892 26.9577 39.757 27.1744C39.6489 26.7627 39.3463 25.8093 39.1302 25.2893C39.6057 25.1593 40.1028 24.6609 40.7728 23.8808C41.0538 23.5341 41.659 22.7757 42.329 21.779C40.4054 22.0173 39.9299 22.1473 39.6057 22.2557C39.4976 21.8873 39.2166 20.9772 39.0005 20.5005C39.3895 20.4139 39.7354 19.9588 40.1676 19.3304C40.5999 18.7021 41.9832 16.2969 42.7613 14L44.6201 14.7584C43.7555 16.6436 42.6748 18.6154 41.5725 20.1972L43.4529 20.0455C44.0365 19.1354 44.5985 18.1387 45.0307 17.1636L46.7599 18.2254C45.4846 20.5655 43.7988 22.9707 42.1129 24.9209L44.6633 24.5959C44.4904 23.9242 44.2959 23.2308 44.0797 22.6457L45.5711 22.2557C46.0898 23.7291 46.6086 25.636 46.7599 26.7844ZM40.0163 27.9762L41.5941 28.2579C41.3996 30.1863 41.0106 32.2665 40.5567 33.6316C40.2109 33.4366 39.4544 33.1983 39.0437 33.0683C39.5408 31.7248 39.8434 29.7746 40.0163 27.9762ZM42.1993 28.2145L43.6475 27.9545C43.9068 29.4063 44.123 31.2698 44.1662 32.5265L42.6316 32.8082C42.61 31.5515 42.4155 29.6446 42.1993 28.2145ZM44.2527 27.8028L45.5927 27.3694C46.0034 28.4095 46.414 29.7313 46.5869 30.6197L45.182 31.1181C45.0307 30.208 44.6417 28.8212 44.2527 27.8028ZM50.6936 25.5276L51.8607 25.9393C51.1475 29.2329 49.3967 31.6165 47.1921 32.8949C46.9328 32.5049 46.414 31.8332 46.0466 31.5081C47.538 30.6847 48.878 29.1246 49.6129 27.2394H47.2354V25.5926H50.391L50.6936 25.5276ZM49.8722 20.8689V22.429H56.0106V20.8689H49.8722ZM49.8722 17.8787V19.4171H56.0106V17.8787H49.8722ZM57.1561 24.5742L58.6475 25.8093C57.6748 26.6544 56.6158 27.5645 55.708 28.2362C56.5941 29.623 57.7397 30.7714 59.0581 31.4648C58.6258 31.8115 58.0423 32.5482 57.7397 33.0466C56.2699 32.0932 55.038 30.5547 54.1086 28.7346V31.8332C54.1086 32.7866 53.914 33.3283 53.2872 33.6316C52.6604 33.935 51.6878 33.9567 50.3261 33.9567C50.2613 33.4149 50.0019 32.6132 49.7642 32.1148C50.672 32.1582 51.5797 32.1582 51.8391 32.1365C52.1201 32.1148 52.1849 32.0498 52.1849 31.8115V24.0108H47.9918V16.3185H51.1907C51.4717 15.5818 51.731 14.6934 51.8823 14.0217L54.1518 14.4767C53.8492 15.1051 53.5466 15.7551 53.2224 16.3185H57.9774V24.0108H54.1086V24.7692C54.3463 25.506 54.6057 26.221 54.9515 26.8927C55.7512 26.156 56.5941 25.2459 57.1561 24.5742Z" fill="#B8C318"/>
<path d="M72.7829 30.8581H82.0769V32.8949H62.7325V30.8581H70.6215V14.3467H72.7829V20.7822H80.5855V22.7974H72.7829V30.8581Z" fill="#B8C318"/>
<path d="M96.7094 26.2644H102.199V23.4041H96.7094V26.2644ZM89.2959 26.2644H94.6345V23.4041H89.2959V26.2644ZM94.6345 18.8321H89.2959V21.5406H94.6345V18.8321ZM102.199 18.8321H96.7094V21.5406H102.199V18.8321ZM96.7094 16.9036H104.274V29.2763H102.199V28.1928H96.7094V33.935H94.6345V28.1928H89.2959V29.3846H87.3074V16.9036H94.6345V14.065H96.7094V16.9036Z" fill="#B8C318"/>
<path d="M128.741 16.7952V18.442H122.408V16.7952H124.743C124.505 16.0802 124.159 15.2784 123.813 14.6284L125.477 14.13C125.91 14.9534 126.385 15.9935 126.688 16.7952H128.741ZM125.002 22.169L123.575 22.559C123.554 21.6273 123.294 20.1538 122.949 19.0271L124.289 18.6804C124.678 19.7855 124.98 21.2156 125.002 22.169ZM115.557 16.8386V18.4854H109.375V16.8386H111.666C111.428 16.1668 111.104 15.3868 110.78 14.7801L112.444 14.2817C112.898 15.0618 113.33 16.0802 113.59 16.8386H115.557ZM111.861 22.169L110.413 22.559C110.413 21.649 110.175 20.2189 109.851 19.1138L111.191 18.7671C111.558 19.8288 111.817 21.2373 111.861 22.169ZM115.276 28.1712H113.266C113.114 30.208 112.466 32.4615 110.564 34C110.305 33.61 109.764 33.0033 109.375 32.6999C110.931 31.5731 111.364 29.7746 111.472 28.1712H109.483V26.5244H111.515V24.2709H109.224V22.6241H112.617C112.941 21.4973 113.33 19.8288 113.482 18.6587L115.038 18.9837C114.692 20.1972 114.325 21.5623 114 22.6241H115.643V24.2709H113.309V26.5244H115.276V28.1712ZM121.565 18.8537V19.6988C121.436 28.9079 121.328 31.8982 120.83 32.7216C120.506 33.2633 120.16 33.4583 119.62 33.545C119.188 33.6316 118.561 33.61 117.891 33.5883C117.869 33.1116 117.696 32.3965 117.459 31.9415C118.042 31.9848 118.561 31.9848 118.842 31.9848C119.08 31.9848 119.231 31.9198 119.382 31.6381C119.707 31.0748 119.815 28.4095 119.923 20.5872H118.691C118.453 26.156 117.783 30.6414 115.622 33.9783C115.405 33.675 114.671 33.0683 114.325 32.7866C116.313 29.948 116.962 25.7226 117.156 20.5872H115.989V18.8537H117.199C117.221 17.3153 117.221 15.7118 117.221 14.065H118.799C118.799 15.7335 118.777 17.3153 118.734 18.8537H121.565ZM129 24.2925H126.601V26.8494H128.741V28.4962H126.601V33.8917H124.786V28.4962H122.711V26.8494H124.786V24.2925H122.322V22.6457H125.91C126.256 21.4973 126.645 19.7638 126.796 18.5937L128.33 18.9404C128.049 20.1538 127.682 21.5623 127.358 22.6457H129V24.2925Z" fill="#B8C318"/>
<path d="M109.707 172.236H106.328V169.084H99.3187V175.617C98.7885 175.671 98.3775 175.74 97.9916 175.746C95.8676 175.79 95.8676 175.784 95.8645 177.841V182.502H92.7616C92.6832 181.458 92.6016 180.398 92.5169 179.275L89.3544 179.121C89.276 178.001 89.1976 176.925 89.116 175.828L85.9473 175.68V169.307H88.7928C88.8808 169.467 88.9433 169.639 88.9779 169.818C89.1913 172.472 89.1882 172.472 91.8267 172.472H95.9962C95.9962 170.276 96.037 168.175 95.9335 166.073C95.9335 165.857 95.0143 165.468 94.5688 165.527C92.8777 165.753 92.5075 164.963 92.6142 163.47C92.7208 162.03 92.6393 160.578 92.6393 159.022H95.7045C95.8457 160.092 95.648 161.403 96.2127 162.005C96.7178 162.544 98.0607 162.303 99.0866 162.41C99.2717 163.47 99.1274 164.862 99.7548 165.527C100.235 166.035 101.687 165.628 102.848 165.628V155.591H106.13V165.581H109.688V155.559L113.007 155.406V151.896H106.419V148.662H109.581V145.118H106.397V141.756H109.694V138.305H113.145V134.786L113.095 134.839H119.997V128.105L123.178 127.955C123.298 127.77 123.392 127.685 123.401 127.594C123.715 124.417 123.715 124.417 120.549 124.417H116.712V121.28C118.281 121.28 119.887 121.186 121.472 121.305C123.006 121.421 123.762 120.992 123.483 119.339C123.456 118.86 123.476 118.38 123.542 117.905C125.88 118.103 127.969 117.89 126.68 114.527H129.902V124.207C128.838 124.395 127.439 124.247 126.887 124.862C126.335 125.477 126.777 126.816 126.777 127.93L129.914 128.102V131.267H123.385V134.758H126.523V138.117H119.997V141.63H123.263C123.263 143.744 123.301 145.708 123.222 147.655C123.222 147.919 122.658 148.305 122.303 148.377C121.535 148.485 120.76 148.545 119.985 148.556V145.127H116.533V148.534H119.985C119.938 150.193 119.778 151.858 119.878 153.508C119.966 154.976 119.461 155.509 118.033 155.312C117.537 155.289 117.039 155.308 116.546 155.368C116.461 156.434 116.741 157.793 116.195 158.37C115.649 158.947 114.275 158.752 113.129 158.915V162.184L116.298 162.388V165.348C115.247 165.461 113.892 165.217 113.321 165.778C112.75 166.34 112.985 167.695 112.853 168.833C112.358 168.865 111.856 168.902 111.351 168.93C110.845 168.959 110.328 168.984 109.634 169.015V172.296L109.707 172.236Z" fill="#594A39"/>
<path d="M102.744 100.65V104.079H113.001V110.665C116.194 111.449 116.43 111.255 116.678 107.704H119.686C119.757 107.845 119.809 107.993 119.843 108.147C120.116 110.948 120.113 110.948 123.018 110.948H124.741C126.705 110.948 126.896 111.126 126.623 113.099C126.554 113.332 126.43 113.544 126.261 113.717C126.092 113.891 125.884 114.021 125.654 114.097C123.435 114.41 123.432 114.37 123.282 116.64C123.246 116.925 123.194 117.208 123.128 117.487H120.248C120.157 117.305 120.078 117.218 120.072 117.123C119.887 114.144 119.89 114.144 116.894 114.144H113.107V117.741L116.326 117.933V120.991H109.647V127.763L106.258 127.951V131.36H113.095L113.038 131.304C113.057 132.483 113.073 133.662 113.091 134.842L113.142 134.788H106.214V138.179H102.744L102.795 138.242V134.754H99.3028L99.3655 134.801V131.326C97.2384 131.326 95.1708 131.291 93.0908 131.37C92.8523 131.37 92.4978 131.997 92.4445 132.351C92.3809 133.125 92.3704 133.903 92.4131 134.679H89.0718C89.0185 135.858 88.9714 136.874 88.9181 138.028H85.9219V131.551L89.122 131.385C89.1848 130.262 89.2444 129.243 89.3103 128.108L92.4476 127.957C92.5246 127.549 92.5801 127.138 92.6139 126.724C92.6955 124.582 92.6892 124.588 94.8947 124.579C96.2501 124.579 97.6054 124.551 98.9733 124.529C99.0643 124.529 99.1553 124.45 99.3655 124.356C99.4157 123.45 99.469 122.474 99.5286 121.395L102.823 121.179V117.961L106.23 117.744V114.511L109.65 114.31V110.81L106.362 110.621V107.441H89.3479V104.21L92.5135 104.06L92.7425 100.826H95.6446C95.8391 101.896 95.7324 103.235 96.3473 103.963C96.7583 104.449 98.1984 104.057 99.3718 104.057V100.65L99.3122 100.685H102.798L102.744 100.65Z" fill="#594A39"/>
<path d="M120.094 158.923V155.617C120.305 155.554 120.521 155.509 120.74 155.482C123.463 155.363 123.463 155.366 123.463 152.559V148.701H126.647V155.093C126.946 155.291 127.027 155.385 127.115 155.407C130.315 155.721 130.315 155.721 130.315 152.584C130.315 152.478 130.315 152.374 130.315 152.271C130.29 151.126 130.644 149.73 130.111 148.918C129.71 148.29 128.169 148.435 127.011 148.209V145.223H133.619V138.2H130.425V131.582H133.377C133.449 132.608 133.518 133.615 133.6 134.803H140.239V138.181H137.016V145.16H140.248V148.419C138.409 148.419 136.646 148.475 134.889 148.397C133.766 148.347 133.427 148.786 133.478 149.849C133.543 151.308 133.553 152.772 133.478 154.24C133.402 155.708 134.372 155.495 135.244 155.47C136.116 155.445 137.271 155.843 137.158 154.24C137.111 153.578 137.158 152.907 137.158 152.139H143.699V158.942L143.743 158.901C140.348 158.393 140.348 158.393 140.348 161.749C140.348 161.853 140.348 161.959 140.348 162.063C140.38 163.154 140.035 164.541 140.562 165.25C141.039 165.877 142.507 165.748 143.665 165.977V168.838C142.978 168.902 142.289 168.932 141.6 168.926C140.659 168.882 140.279 169.274 140.345 170.218C140.402 171.099 140.345 171.99 140.345 172.874V175.638H133.964C133.785 174.603 133.936 173.201 133.308 172.536C132.825 172.021 131.363 172.432 130.196 172.432C130.124 173.492 130.055 174.512 129.979 175.644H126.961C127.331 173.194 126.695 171.482 123.469 172.442C123.469 170.613 123.469 169.064 123.469 167.514C123.469 165.535 123.469 165.535 121.399 165.491C121.038 165.491 120.674 165.447 120.178 165.416V162.549C121.248 162.323 122.581 162.398 123.294 161.768C123.774 161.341 123.385 159.927 123.385 158.738L120.053 158.889L120.094 158.923ZM126.682 158.851C126.682 162.063 126.654 165.177 126.726 168.289C126.726 168.602 127.353 169.12 127.692 169.129C130.503 169.194 133.316 169.194 136.132 169.129C136.464 169.129 137.073 168.678 137.073 168.424C137.139 165.262 137.114 162.097 137.114 158.848L126.682 158.851Z" fill="#594A39"/>
<path d="M44.5008 49.4252H48.0021V56.2315L44.711 56.0841C44.1871 59.8197 44.711 60.3027 48.1402 59.4056C48.0868 58.3643 48.0335 57.2854 47.9802 56.2095H51.3936V67.1497C51.3936 70.2706 51.6321 70.4525 54.8667 69.7311V56.2848C54.7492 56.2203 54.6251 56.1688 54.4965 56.1311C51.5411 55.8551 51.5473 55.8582 51.5348 52.8033C51.5348 51.6616 51.472 50.5199 51.4407 49.3782L51.3936 49.4284H58.2331V52.6841H61.7407V46.0723H65.0882V52.7029L68.5393 52.8848C68.5393 54.8608 68.5676 56.8211 68.5048 58.7815C68.5048 59.0355 68.0311 59.4464 67.7362 59.4872C66.9408 59.5485 66.1423 59.559 65.3455 59.5186C65.289 58.3267 65.242 57.323 65.1918 56.1938H58.3743V59.5907L61.6246 59.7852V66.168L58.3209 66.3656V76.5154L58.368 76.4652H55.0424C54.9922 75.3423 54.9451 74.323 54.8949 73.2001H51.4626V76.437L48.0586 76.6126C48.0053 77.6853 47.9488 78.7423 47.8923 79.884H41.3572C41.3572 77.8986 41.3226 75.9446 41.4011 73.9968C41.4011 73.7364 41.9846 73.3475 42.3423 73.2879C43.0945 73.2216 43.8506 73.2111 44.6044 73.2565L44.8083 70.1545C45.9095 69.9852 47.0515 70.0197 47.9457 69.5649C48.2939 69.3892 48.1967 68.1001 48.1057 67.3411C47.839 65.0828 45.8562 67.0274 44.7989 65.732C44.8773 65.961 44.7706 65.7791 44.7518 65.5846C44.6765 64.7628 44.9181 63.6776 44.482 63.1883C44.0459 62.699 42.9415 62.9656 42.1572 62.7774C41.8435 62.7021 41.4042 62.3069 41.398 62.0529C41.3478 59.0449 41.3666 56.0339 41.3666 52.8597H44.7204C44.6608 51.5831 44.6106 50.4791 44.5604 49.3782L44.5008 49.4252Z" fill="#594A39"/>
<path d="M68.6416 127.927H75.5815C75.5125 126.785 75.8168 125.417 75.2677 124.762C74.7971 124.191 73.3602 124.414 72.237 124.269V121.287H77.1533C77.6208 121.287 78.0945 121.287 78.562 121.287C79.704 121.258 81.097 121.6 81.9096 121.058C82.537 120.65 82.4115 119.126 82.6468 117.968H85.4705C85.4693 118.515 85.506 119.061 85.5803 119.602C85.6932 120.157 85.8501 121.098 86.1293 121.155C87.0483 121.297 87.9853 121.275 88.8965 121.089C89.069 121.058 89.2102 120.267 89.2102 119.834C89.2416 117.592 89.2259 115.349 89.2259 113.107C89.2259 110.864 89.2259 110.867 91.4817 110.977C91.7327 110.977 91.9805 111.046 92.2817 111.087C92.4009 112.15 92.1625 113.508 92.7241 114.076C93.2857 114.643 94.6473 114.436 95.7548 114.581V117.476C95.3124 117.52 94.8669 117.589 94.4183 117.601C92.426 117.651 92.426 117.645 92.4229 119.7V124.429C90.9546 124.429 89.6181 124.414 88.2815 124.429C85.2352 124.47 85.6022 123.984 85.574 127.205C85.574 128.498 85.574 129.793 85.574 131.311H80.7989C78.7126 131.311 78.7094 131.311 78.7502 133.34C78.7502 133.798 78.8224 134.256 78.8694 134.83H82.0068V138.155H78.7502V145.04H72.0237V148.386C72.2648 148.474 72.5138 148.538 72.7673 148.578C75.3211 148.719 75.3242 148.716 75.3273 151.36C75.3273 153.133 75.3273 154.91 75.3273 156.692C75.3273 158.859 75.3274 158.862 73.1532 158.768C72.8394 158.768 72.5508 158.687 72.0802 158.614V151.868H65.3442V148.656L68.695 148.499V134.758L68.6322 134.802H75.5533C75.5145 134.23 75.5145 133.655 75.5533 133.083C75.7666 131.625 75.1454 131.182 73.7336 131.28C72.099 131.393 70.455 131.305 68.6636 131.305V127.855L68.6416 127.927ZM78.8883 128.156C80.1181 127.989 81.4389 128.156 82.2013 127.579C82.6719 127.221 82.6813 125.242 82.2013 124.881C81.4484 124.301 80.1244 124.455 78.8789 124.273L78.8883 128.156Z" fill="#594A39"/>
<path d="M109.687 76.5561H106.377V70.0572L109.596 69.8596V66.3781H106.208V69.5899H102.951V63.1161H109.643V59.7318C109.633 59.7482 109.621 59.7639 109.609 59.7788H116.564V52.8H121.33C123.498 52.8 123.501 52.8 123.46 50.5731C123.46 50.2155 123.416 49.858 123.385 49.3499H116.614L116.661 49.3906V46.0439H126.667V49.3812C126.667 51.1 126.598 52.8314 126.685 54.5345C126.751 55.7891 126.262 56.1655 125.057 56.1028C123.407 56.0181 121.75 56.0808 119.906 56.0808V62.7052L116.536 62.9185C116.486 63.9912 116.439 65.0043 116.385 66.1554L113.16 66.3592V69.8659L116.373 70.0353C116.426 71.0891 116.473 72.0552 116.523 73.1122C117.59 73.2157 118.942 72.9616 119.513 73.5137C120.084 74.0657 119.88 75.4301 120.018 76.462C120.075 76.5028 120.16 76.6188 120.238 76.6125C121.289 76.5279 122.786 76.8039 123.272 76.2299C123.83 75.565 123.498 74.1504 123.554 73.0589L123.507 73.0965H129.973V76.4777H126.836C126.729 77.6696 126.635 78.7203 126.522 79.9279H119.981C119.909 81.1386 119.843 82.1956 119.777 83.3247H116.668C116.621 82.2395 116.574 81.2232 116.523 80.0376H109.822C109.759 78.7611 109.706 77.6413 109.653 76.5216L113.025 76.7066V73.2094H109.684L109.687 76.5561Z" fill="#594A39"/>
<path d="M20.8481 100.712V97.2305H14.0117V86.9301H20.7916L20.7414 86.8705L20.7916 90.3615H17.3405V93.7082H20.7633V90.3144L24.2427 90.3584L24.1831 90.3113V93.705H27.5871L27.744 90.5026H30.737C30.8092 91.5095 30.8845 92.5665 30.9661 93.727H37.8306C37.8997 92.6731 37.9687 91.6098 38.0471 90.4211H41.2221C41.3006 89.2418 41.3727 88.1847 41.448 87.043H44.4536C44.5132 88.0875 44.576 89.1477 44.6419 90.2956H51.5127V86.9113H54.8603L54.8069 86.8643C54.8237 89.179 54.8404 91.4948 54.8571 93.8117L54.9199 93.7678H51.4311V100.699L51.4719 100.64H48.0647C48.0145 101.691 47.9675 102.71 47.9204 103.714C45.1438 104.504 44.9995 104.372 44.5885 100.593C42.0786 101.048 40.6291 100.176 41.3664 97.2587H34.3638L34.1819 100.445H27.7691C27.7032 99.3759 27.6436 98.3659 27.5777 97.2681H24.3086C24.2333 97.3999 24.1517 97.4814 24.1392 97.5818C24.0011 98.5227 24.205 99.8526 23.6623 100.339C23.1195 100.825 21.7798 100.599 20.8135 100.681L20.8481 100.712ZM44.6638 93.8117V97.1772H48.0177V93.8117H44.6638Z" fill="#594A39"/>
<path d="M14.0464 46.0273H37.5767V69.5795H14.0464V46.0273ZM17.2936 66.4148C17.8646 66.4587 18.2724 66.5183 18.6771 66.5183C23.4146 66.5183 28.1552 66.4806 32.8895 66.5528C34.2511 66.5716 34.5397 66.0447 34.524 64.8152C34.4707 60.1825 34.5052 55.5498 34.4989 50.9172C34.4989 50.4122 34.4487 49.9041 34.4142 49.3238H17.2936V66.4148Z" fill="#594A39"/>
<path d="M14.0215 162.362H37.5329V185.958H14.0215V162.362ZM34.3955 182.718C34.4395 182.116 34.496 181.708 34.496 181.301C34.496 176.564 34.4552 171.828 34.5273 167.092C34.5493 165.728 34.0128 165.449 32.7861 165.461C28.1522 165.518 23.5183 165.48 18.8844 165.489C18.3793 165.489 17.8742 165.543 17.3157 165.577V182.718H34.3955Z" fill="#594A39"/>
<path d="M130.455 46.0361H153.985V69.582H130.455V46.0361ZM133.592 49.2793C133.549 49.8784 133.492 50.2861 133.492 50.6939C133.492 55.43 133.533 60.1662 133.461 64.9024C133.439 66.2605 133.963 66.5522 135.196 66.5365C139.83 66.48 144.463 66.5177 149.097 66.5114C149.602 66.5114 150.108 66.4549 150.666 66.4236V49.273L133.592 49.2793Z" fill="#594A39"/>
<path d="M95.797 73.0732V80.0081H99.2042C99.4238 78.9009 99.3673 77.6306 99.954 76.8465C100.287 76.4042 101.686 76.7681 102.665 76.7681V83.405C101.036 83.405 99.3862 83.5022 97.7548 83.3767C96.2614 83.2607 95.6245 83.7312 95.8503 85.2586C95.8736 85.7698 95.8516 86.282 95.7845 86.7893H92.509V90.183H85.6413V97.0834H79.0529C78.7987 98.2846 78.8144 99.511 78.2497 100.345C77.9736 100.75 76.612 100.414 75.6394 100.414C75.5892 99.3385 75.5421 98.3662 75.4857 97.2214L72.1852 97.0551V90.2802L72.1318 90.3304H75.2221C75.31 91.5317 75.3884 92.5887 75.47 93.721H82.2844V90.2708H79.0843V87.0245L82.3126 86.874C82.3659 85.8201 82.4161 84.8478 82.4632 83.8817C82.6326 83.7845 82.755 83.6559 82.8899 83.6433C83.7652 83.5618 84.9166 83.8158 85.4343 83.3548C85.952 82.8937 85.6194 81.7018 85.8861 80.902C86.0053 80.5507 86.6704 80.1932 87.1034 80.1712C88.8603 80.0897 90.6235 80.1367 92.6283 80.1367C92.6283 78.3959 92.7287 76.7932 92.5969 75.2124C92.4651 73.6315 93.0299 72.998 94.6111 73.2363C95.0232 73.2467 95.435 73.2077 95.8378 73.1203L95.797 73.0732Z" fill="#594A39"/>
<path d="M44.5674 131.303V124.666C44.4325 124.581 44.3509 124.49 44.2536 124.481C41.0943 124.202 41.0943 124.202 41.0943 127.36V131.303C38.4212 131.303 35.8863 131.303 33.3513 131.303C30.6437 131.319 30.8414 130.989 30.8225 133.646C30.8017 133.969 30.7597 134.291 30.697 134.609C30.4322 134.655 30.1652 134.687 29.897 134.706C28.0773 134.706 26.2608 134.706 24.3345 134.706V131.588C25.3384 131.504 26.6938 131.773 27.2773 131.225C27.8609 130.676 27.657 129.308 27.8295 128.088H37.7844V124.506L34.6094 124.343V121.285H41.772C42.2928 121.285 42.8167 121.247 43.3407 121.285C44.3258 121.366 44.8027 121.021 44.7211 119.964C44.704 119.328 44.7292 118.691 44.7964 118.057C44.8966 118.004 45.0016 117.96 45.1101 117.926C48.1314 117.559 48.1314 117.559 48.1346 114.45V114.297C48.1346 110.975 48.1346 110.975 44.8685 110.555V107.65H51.3096C51.3692 108.648 51.4288 109.661 51.4978 110.828L54.767 111.063V114.046L51.479 114.243V124.324L48.0624 124.487V131.243H44.5329L44.5674 131.303Z" fill="#594A39"/>
<path d="M150.646 104.099C148.93 104.058 147.21 103.927 145.5 104.002C144.246 104.055 143.787 103.613 143.932 102.396C143.963 101.837 143.963 101.277 143.932 100.718C142.746 100.555 141.422 100.746 140.829 100.178C140.286 99.6765 140.515 98.3372 140.399 97.2394L137.262 97.0826V86.9956H147.082C147.175 86.8455 147.25 86.6856 147.308 86.5188C147.599 83.583 147.599 83.583 150.674 83.583H153.996V86.8073H150.752V90.361H153.99V97.0795L150.596 97.2583V104.159L150.646 104.099ZM143.897 90.361V93.7359H147.264V90.361H143.897Z" fill="#594A39"/>
<path d="M20.7927 86.9271C20.7927 85.1581 20.7205 83.3829 20.824 81.617C20.8993 80.3216 20.4821 79.7884 19.1675 79.9609C18.549 79.9993 17.9287 79.9993 17.3102 79.9609L17.1628 83.2668H14.0254V73.2299H17.7024C20.3597 73.2299 23.0202 73.2958 25.6744 73.2017C27.0204 73.1515 27.6353 73.5154 27.4533 74.9331C27.4311 75.4862 27.4563 76.0403 27.5286 76.5891L30.7538 76.7554C30.8166 77.9002 30.8762 78.9196 30.9421 80.0989H40.9816V86.6856H38.089C38.029 86.4862 37.9828 86.2829 37.9509 86.0771C37.7376 83.3923 37.7376 83.3923 34.9736 83.3923H27.4439V90.2926H24.1591L24.2187 90.3397V86.8675H20.7299L20.7927 86.9271Z" fill="#594A39"/>
<path d="M65.2641 76.5624V70.0573L68.5803 69.866C68.5803 68.718 68.9913 67.3128 68.4674 66.6887C67.9434 66.0645 66.4877 66.2527 65.352 66.0613V63.1287C67.7019 63.3922 69.5969 63.0126 68.5302 59.6785C70.5443 59.6785 72.295 59.6158 74.0456 59.6973C75.1876 59.7506 75.6426 59.4119 75.5798 58.2138C75.492 56.5012 75.5579 54.7824 75.5579 52.9287H82.0459V55.9837L78.7517 56.1593V62.6174C78.7517 64.4993 78.8145 66.3813 78.7329 68.2444C78.6796 69.499 79.0215 70.1263 80.3769 69.9538C80.9285 69.9203 81.4817 69.9203 82.0334 69.9538V73.0464H75.3822V79.8558H72.135C72.135 78.1527 72.0283 76.4903 72.1632 74.8373C72.2887 73.3255 71.6832 72.8801 70.3059 73.0683C69.8008 73.1342 69.2831 73.1217 68.6305 73.153C68.5835 74.2445 68.5364 75.2608 68.4831 76.484H65.2202L65.2641 76.5624ZM72.0566 69.8754C72.6464 69.9099 73.1578 69.9036 73.6566 69.9757C75.1343 70.189 75.7649 69.6276 75.5767 68.0938C75.5195 67.2586 75.5133 66.4206 75.5579 65.5846C75.5579 62.5829 75.5579 62.5798 72.5303 62.8746C72.3633 62.9193 72.2038 62.988 72.0566 63.0785V69.8754Z" fill="#594A39"/>
<path d="M20.7919 100.659C20.7386 102.318 20.5692 103.984 20.6696 105.634C20.7605 107.117 20.2209 107.616 18.8122 107.431C18.3158 107.408 17.8183 107.427 17.3251 107.487V117.876C18.4577 117.791 19.835 118.076 20.4625 117.521C21.0303 117.048 20.7951 115.614 20.9206 114.548C21.1152 114.493 21.3133 114.451 21.5135 114.422C24.2054 114.225 24.2054 114.228 24.2054 111.449V100.785H27.2957L27.5373 104.062L30.8629 104.225C30.7531 105.289 30.9915 106.6 30.4519 107.161C29.9123 107.723 28.6103 107.45 27.669 107.541C27.5938 107.679 27.509 107.763 27.4965 107.854C27.0698 110.812 27.1827 110.96 30.1193 110.963C31.2676 110.963 32.4127 110.963 33.5704 110.994C33.7594 111.026 33.9445 111.077 34.1226 111.148V114.162C32.3343 114.162 30.5334 114.193 28.7357 114.162C27.8259 114.14 27.44 114.425 27.4086 115.398C27.3396 117.531 27.2894 117.527 25.0901 117.628C24.836 117.628 24.585 117.681 24.1489 117.731L23.9261 120.984H14.0215V104.241L17.2875 104.034V100.712H20.8264L20.7919 100.659Z" fill="#594A39"/>
<path d="M48.0132 141.645V138.248H44.8759C44.7692 136.993 44.6719 135.902 44.5621 134.798L44.5088 134.854H51.5396C51.5396 132.373 51.5396 130.055 51.5396 127.734C51.5396 124.598 51.5397 124.598 54.7712 124.576C55.9634 124.576 57.1555 124.516 58.3509 124.485L58.3038 124.422V131.347H61.8553V128.129L65.2374 127.91L65.1935 127.866V131.347C68.3842 131.677 68.3842 131.677 68.6007 134.65C68.6088 134.701 68.6214 134.752 68.6383 134.801L68.701 134.757H65.2061C65.1527 135.898 65.1025 136.952 65.0429 138.182H61.7487L61.7926 138.241V134.854H54.859V141.685L54.9029 141.623L47.9599 141.588L48.0132 141.645Z" fill="#594A39"/>
<path d="M47.9826 175.794C48.0422 175.544 48.0851 175.291 48.1112 175.035C48.2084 172.47 48.2053 172.47 50.8595 172.47H54.8973V169.333H58.2135V172.385L61.6019 172.57C61.6709 173.68 61.7305 174.7 61.7901 175.706L61.8278 175.662H54.9004V182.622H48.0484C47.9951 183.808 47.9481 184.818 47.8947 185.941H41.325V179.354C41.325 177.686 41.4192 176.011 41.2968 174.336C41.1807 172.815 41.7266 172.219 43.22 172.454C43.5745 172.51 43.9354 172.517 44.4436 172.557C44.4969 173.605 44.5471 174.618 44.6036 175.757H48.0045V179.207H51.4368V175.757L47.9826 175.794Z" fill="#594A39"/>
<path d="M109.661 172.29L112.952 172.604C113.006 173.689 113.053 174.709 113.106 175.809H116.557V165.845H119.795V182.518C121.05 182.763 122.305 182.7 123.096 183.287C123.538 183.601 123.174 185.021 123.174 185.987H116.645V179.326H113.106C113.062 180.307 113.012 181.323 112.956 182.553H109.614L109.658 182.603V179.2H99.6688C99.5785 179.009 99.509 178.81 99.4617 178.604C99.3111 175.907 99.3143 175.907 102.041 175.907H109.696V172.234L109.661 172.29Z" fill="#594A39"/>
<path d="M47.9581 141.591V145.003H44.6356C44.5666 146.161 44.507 147.177 44.4411 148.328L41.1688 148.501V155.175H38.0942C38.0262 154.964 37.9737 154.748 37.9373 154.529C37.724 151.86 37.7271 151.86 35.1137 151.86H27.7534V141.801H30.7433C30.8124 142.889 30.8751 143.949 30.9473 145.132H33.9999C34.2258 146.324 34.1788 147.566 34.7372 148.406C35.0164 148.827 36.8769 148.88 37.1749 148.476C37.8024 147.632 37.8526 146.374 38.1977 145.072H34.6462V141.647H48.0177L47.9581 141.591Z" fill="#594A39"/>
<path d="M133.922 117.463C133.768 116.375 133.95 115.07 133.385 114.456C132.883 113.913 131.547 114.142 130.448 114.004V107.652C130.978 107.582 131.512 107.561 132.045 107.59C133.489 107.794 133.837 107.135 133.762 105.814C133.664 104.114 133.74 102.408 133.74 100.617H130.169C130.11 101.718 130.053 102.737 129.99 103.86H127.022V97.3615L130.197 97.2046C130.27 96.1257 130.342 95.0655 130.417 93.9238H133.398C133.457 94.984 133.52 96.0441 133.589 97.2203H136.877C136.491 99.8362 137.162 101.517 140.256 100.601V103.889L136.968 104.049V117.463H133.922Z" fill="#594A39"/>
<path d="M58.3497 124.485V114.536H61.6722V117.723H65.2174V114.511H71.8404V120.947L68.6403 121.123V127.919L68.6811 127.86H65.1923L65.2363 127.904C65.2363 125.984 65.2927 124.061 65.2363 122.145C65.2363 121.772 64.8096 121.154 64.5052 121.104C63.6268 120.963 62.7107 121.054 61.6816 121.054V124.422H58.3184L58.3497 124.485Z" fill="#594A39"/>
<path d="M102.752 138.18V141.577H99.376V145.002H92.5209C92.4644 146.187 92.4174 147.16 92.364 148.273H85.9355V145.212H89.0917C89.1827 144.033 89.2643 142.976 89.3584 141.762H92.5554C92.615 140.561 92.6621 139.532 92.7154 138.387L95.95 138.218C96.0002 137.117 96.0473 136.097 96.1038 134.818H99.3729L99.3102 134.771V138.258H102.802L102.752 138.18Z" fill="#594A39"/>
<path d="M126.583 97.0757H120.117V93.9204L123.43 93.7542V87.0043H126.781C126.853 85.8376 126.916 84.8245 126.985 83.6953H133.426V86.7503L130.144 86.8977V93.6381L126.768 93.7855C126.696 94.9053 126.643 95.9278 126.583 97.0757Z" fill="#594A39"/>
<path d="M99.2255 62.7607L95.9627 62.927C95.9062 64.031 95.8591 65.0441 95.8058 66.1294C94.7234 66.2485 93.3743 66.0133 92.7971 66.5716C92.2198 67.1299 92.4269 68.4849 92.2606 69.7081C91.6331 69.7081 90.9774 69.6768 90.3248 69.7081C89.4871 69.7552 89.2832 69.338 89.2393 68.579C89.1138 66.3552 89.0856 66.3583 86.8361 66.2517C86.5851 66.2517 86.3341 66.189 85.9639 66.1419V63.1403C88.4173 63.5072 90.0174 62.7827 89.1922 59.712H95.9344L96.129 56.334H99.2255V62.7607Z" fill="#594A39"/>
<path d="M68.6985 172.335C68.7926 172.379 68.8916 172.411 68.9934 172.432C71.9645 172.673 71.9645 172.673 71.9614 175.744V185.944H65.3729V182.886L68.5981 182.695V179.122H61.7241L61.768 179.172C61.7869 178.006 61.8068 176.837 61.8277 175.666L61.79 175.71H68.7487V172.294L68.6985 172.335Z" fill="#594A39"/>
<path d="M58.3146 76.5177L65.2639 76.5522L65.2137 76.5021C65.1603 77.5842 65.107 78.6663 65.0443 79.9021L61.7908 80.0463C61.7375 81.0971 61.6873 82.1133 61.6277 83.3365L58.324 83.4934V86.8526H54.7882L54.8415 86.8997C54.8886 85.8207 54.9356 84.7417 54.9921 83.4746H48.4036C48.2953 83.2868 48.21 83.0867 48.1495 82.8786C47.933 80.1404 47.9362 80.1404 50.6877 80.1404H58.3522V76.4707L58.3146 76.5177Z" fill="#594A39"/>
<path d="M130.317 79.8859C130.317 79.152 130.317 78.5843 130.317 78.004C130.317 77.6433 130.374 77.2857 130.421 76.718H137.047C137.116 75.4948 137.173 74.4723 137.235 73.3525H147.08V76.4891C144.495 76.0029 142.974 76.8215 143.849 79.8734L130.317 79.8859Z" fill="#594A39"/>
<path d="M88.9162 155.537V161.926H82.5097C82.4438 160.91 82.3779 159.906 82.3058 158.821L79.0806 158.661V155.675C79.1958 155.605 79.319 155.549 79.4476 155.509C82.4093 155.242 82.4093 155.242 82.4093 152.172V148.681H85.5812C85.5812 150.164 85.5812 151.651 85.5812 153.135C85.5812 155.957 85.5812 155.427 87.9468 155.468C88.204 155.474 88.4613 155.503 88.9162 155.537Z" fill="#594A39"/>
<path d="M99.3743 93.8083L99.5217 90.4396H102.825V86.9361H106.226L106.17 86.8828V97.1989H109.505V100.649H102.744L102.8 100.684V93.7518H99.3115L99.3743 93.8083Z" fill="#594A39"/>
<path d="M150.656 134.756H147.264V138.037H143.97C143.97 136.096 143.942 134.095 144.008 132.1C144.008 131.88 144.557 131.538 144.88 131.501C145.656 131.446 146.434 131.436 147.211 131.472C147.336 130.281 147.092 128.926 147.65 128.355C148.208 127.784 149.564 128.003 150.7 127.859C150.747 126.862 150.794 125.846 150.847 124.723H153.984V131.231L150.59 131.388V134.807L150.656 134.756Z" fill="#594A39"/>
<path d="M150.678 179.162V175.8H144.09V169.282H147.121C147.168 170.289 147.218 171.252 147.271 172.337H150.694V169.323H153.963V179.122H150.628L150.678 179.162Z" fill="#594A39"/>
<path d="M82.027 117.524H79.1468C79.0677 117.216 79.0132 116.901 78.9837 116.584C78.9523 114.074 79.4261 114.143 76.3734 114.146H72.2446V111.06C72.9035 111.029 73.6062 110.941 74.3059 110.972C75.2471 111.016 75.6016 110.643 75.5608 109.693C75.5106 107.93 75.5608 106.164 75.5608 104.27H78.7547C78.7547 105.891 78.8519 107.494 78.7296 109.078C78.6104 110.605 79.1688 111.182 80.6653 110.975C81.1216 110.959 81.5784 110.984 82.0301 111.051L82.027 117.524Z" fill="#594A39"/>
<path d="M58.3023 104.089C56.5924 104.049 54.8794 103.92 53.1727 103.998C51.8706 104.058 51.3687 103.628 51.5255 102.33C51.5482 101.76 51.5241 101.189 51.4534 100.624L51.4126 100.683H54.9014V93.7514L54.8386 93.7953H61.7408L61.6875 93.7451V97.1012H58.2364V104.158L58.3023 104.089Z" fill="#594A39"/>
<path d="M17.3978 148.591V145.081L17.3444 145.131H20.7359V141.744H24.2435L24.1902 141.688C24.1463 145.451 24.0867 149.187 24.0616 152.935C24.0396 155.708 24.1462 155.281 21.7179 155.309C21.4093 155.332 21.1024 155.373 20.7987 155.432L20.8489 155.479V148.541H17.3413L17.3978 148.591Z" fill="#594A39"/>
<path d="M17.1322 138.082H14.0293V124.783C14.1984 124.7 14.3778 124.64 14.5627 124.604C17.2138 124.407 17.2137 124.41 17.2137 127.076V131.263C18.4153 131.445 19.6766 131.313 20.4295 131.866C20.9001 132.211 20.5989 133.597 20.6554 134.688H17.3047L17.1322 138.082Z" fill="#594A39"/>
<path d="M150.631 179.123V185.936H137.257V182.83H147.011C147.183 182.573 147.271 182.495 147.287 182.404C147.45 181.419 147.287 180.108 147.849 179.543C148.41 178.979 149.703 179.267 150.672 179.173L150.631 179.123Z" fill="#594A39"/>
<path d="M99.3172 52.7448C97.6513 52.7102 95.9853 52.5942 94.3256 52.6663C93.0456 52.7228 92.4746 52.3276 92.6252 51.004C92.6434 50.4134 92.6203 49.8223 92.5562 49.235H85.9395V46.042H95.7437C95.8284 47.0582 95.5524 48.4163 96.1014 48.9903C96.6504 49.5643 98.0183 49.3667 99.2639 49.5423V52.7981L99.3172 52.7448Z" fill="#594A39"/>
<path d="M54.8419 155.532H61.6939V158.916L61.7504 158.863L58.2993 158.709V165.38H51.6606V162.385L54.8859 162.187V155.481L54.8419 155.532Z" fill="#594A39"/>
<path d="M143.69 158.931H147.258C147.324 157.717 147.38 156.657 147.44 155.55H150.637C150.637 157.178 150.759 158.74 150.602 160.273C150.43 161.986 151.113 162.513 152.698 162.303C153.129 162.291 153.56 162.325 153.984 162.403V165.464C152.008 165.464 150.047 165.499 148.089 165.42C147.835 165.42 147.43 164.843 147.389 164.498C147.101 162.149 147.126 162.149 144.807 162.027C144.603 162.027 144.403 161.964 144.101 161.917C143.979 160.904 143.86 159.897 143.737 158.89L143.69 158.931Z" fill="#594A39"/>
<path d="M47.882 159.091V168.814H44.7227V162.34C44.5229 162.236 44.3125 162.152 44.0952 162.092C41.3218 161.75 41.3155 161.754 41.3218 158.865C41.3218 157.928 41.3375 156.987 41.3688 156.042C41.408 155.867 41.4713 155.698 41.5571 155.54H44.4058C44.4905 156.578 44.2145 157.93 44.7572 158.513C45.3 159.097 46.6773 158.915 47.882 159.091Z" fill="#594A39"/>
<path d="M150.582 121.286V124.423H146.701C143.768 124.423 143.768 124.423 143.768 127.424V131.22H140.552C140.552 129.758 140.521 128.325 140.552 126.894C140.602 125.091 140.712 123.29 140.8 121.49C142.607 121.424 144.414 121.336 146.224 121.296C147.63 121.261 149.026 121.286 150.582 121.286Z" fill="#594A39"/>
<path d="M72.0549 86.8896C72.08 88.047 72.102 89.2075 72.1271 90.3649L72.1804 90.3147H65.1903V93.7649H61.6953L61.7487 93.8151V86.943H72.102L72.0549 86.8896Z" fill="#594A39"/>
<path d="M54.8893 155.481C52.3449 155.422 49.8036 155.337 47.2592 155.309C44.4356 155.28 44.3697 155.237 44.8968 152.113L46.3557 152.022L48.0279 151.943C48.0844 150.855 48.1377 149.839 48.1973 148.703H51.3033C51.3598 149.704 51.4225 150.761 51.4884 151.937L54.8423 152.1V155.531L54.8893 155.481Z" fill="#594A39"/>
<path d="M106.201 56.2037C104.492 56.1661 102.779 56.0344 101.075 56.1159C99.7635 56.1755 99.2835 55.7301 99.4309 54.441C99.4462 53.8741 99.4084 53.3071 99.318 52.7473L99.2646 52.8006H102.835V46.0508H106.148V56.2571L106.201 56.2037Z" fill="#594A39"/>
<path d="M65.166 104.219L68.6171 104.056C68.6673 102.971 68.7175 101.914 68.774 100.781H71.9647C71.9647 102.742 72.0086 104.655 71.9176 106.562C71.9176 106.876 71.3153 107.302 70.9356 107.374C70.2391 107.509 69.5019 107.412 68.6077 107.412V110.567H65.2131V104.162L65.166 104.219Z" fill="#594A39"/>
<path d="M61.6933 158.915H65.0283V168.795H58.4712V165.831L61.7498 165.63V158.861L61.6933 158.915Z" fill="#594A39"/>
<path d="M82.0719 185.999H79.1196V179.507H88.9019V182.643C87.2736 182.643 85.6704 182.737 84.0861 182.618C82.6178 182.509 81.9338 182.948 82.1503 184.5C82.1696 185.001 82.1434 185.503 82.0719 185.999Z" fill="#594A39"/>
<path d="M30.8324 124.341L27.5476 124.498C27.4786 125.602 27.419 126.622 27.35 127.751H20.8901V124.668L24.153 124.505L24.3005 121.315C26.277 121.315 28.2284 121.283 30.1767 121.352C30.4058 121.352 30.7572 121.876 30.8042 122.193C30.8635 122.908 30.8729 123.626 30.8324 124.341Z" fill="#594A39"/>
<path d="M146.977 110.957C147.2 112.281 147.043 113.598 147.623 114.182C148.147 114.705 149.477 114.426 150.538 114.495V117.563C148.583 117.563 146.625 117.616 144.674 117.497C144.401 117.481 143.937 116.578 143.981 116.126C144.131 114.558 143.62 113.855 141.998 114.135C140.577 114.376 140.577 113.463 140.533 112.431C140.479 111.255 140.906 110.863 142.064 110.923C143.714 111.02 145.371 110.957 146.977 110.957Z" fill="#594A39"/>
<path d="M78.5996 175.673H75.6787V165.894H78.5871C78.7157 166.919 78.5118 168.218 79.0671 168.848C79.5534 169.4 80.893 169.203 82.0099 169.359V172.182C80.9746 172.311 79.613 172.088 79.0608 172.653C78.5086 173.217 78.7283 174.557 78.5996 175.673Z" fill="#594A39"/>
<path d="M150.593 104.16H153.959V114.071H150.649C150.649 110.718 150.649 107.412 150.649 104.109L150.593 104.16Z" fill="#594A39"/>
<path d="M85.991 97.335H88.8868V103.846H82.5054V100.848C83.594 100.719 84.9525 100.951 85.511 100.39C86.0694 99.8285 85.853 98.4578 85.991 97.335Z" fill="#594A39"/>
<path d="M133.58 182.724C133.524 183.85 133.474 184.826 133.417 185.924H130.421V179.469H136.78V182.539L133.58 182.724Z" fill="#594A39"/>
<path d="M143.757 145.183H147.098V151.673C146.867 151.755 146.629 151.814 146.386 151.848C143.939 151.983 143.954 151.98 143.933 149.474C143.933 148.025 143.851 146.576 143.81 145.13L143.757 145.183Z" fill="#594A39"/>
<path d="M95.8555 93.848L99.3724 93.8009L99.3097 93.7539C99.3097 96.0645 99.3097 98.375 99.3097 100.686L99.3693 100.651C99.3212 100.629 99.2707 100.614 99.2187 100.604C96.0217 100.29 96.0312 100.29 96.0186 97.0441C96.0186 95.962 95.9465 94.8768 95.9057 93.7947L95.8555 93.848Z" fill="#594A39"/>
<path d="M95.848 73.1094C95.9484 70.9546 96.0488 68.803 96.1617 66.6074H99.2269V73.0624H95.8135L95.848 73.1094Z" fill="#594A39"/>
<path d="M37.5966 87.0713V90.1764H31.2246V87.0713H37.5966Z" fill="#594A39"/>
<path d="M37.5789 155.581V158.645H31.1943V155.581H37.5789Z" fill="#594A39"/>
<path d="M82.5146 76.4006V73.3613H88.8741V76.4006H82.5146Z" fill="#594A39"/>
<path d="M41.0092 114.527V117.466H34.6592V114.527H41.0092Z" fill="#594A39"/>
<path d="M88.9318 107.687V110.56H82.519V107.687H88.9318Z" fill="#594A39"/>
<path d="M113.103 49.3126L109.809 49.0931V46.0381H113.034V49.3659L113.103 49.3126Z" fill="#594A39"/>
<path d="M58.2949 145.188H61.6142V148.325H58.3451V145.132L58.2949 145.188Z" fill="#594A39"/>
<path d="M58.2881 141.638C58.2881 142.82 58.2881 144 58.2881 145.182L58.3383 145.129C57.2779 145.082 56.2174 145.028 54.8872 144.966V141.622L54.8433 141.685H58.332L58.2881 141.638Z" fill="#594A39"/>
<path d="M61.7261 179.123V182.511H58.4946V179.506L61.7732 179.192L61.7261 179.123Z" fill="#594A39"/>
<path d="M113.133 90.3596H116.342V93.6059H113.186V90.3125L113.133 90.3596Z" fill="#594A39"/>
<path d="M17.3926 145.082H14.0293V141.823H17.1008C17.1761 142.902 17.2577 144.019 17.3361 145.132L17.3926 145.082Z" fill="#594A39"/>
<path d="M58.2485 104.162L61.7875 104.2L61.7373 104.149V107.299H58.4681C58.4117 106.201 58.3584 105.144 58.3019 104.09L58.2485 104.162Z" fill="#594A39"/>
<path d="M65.2161 100.712C65.2014 101.879 65.1847 103.045 65.1659 104.212L65.2035 104.165L61.7524 104.124L61.8026 104.178V100.768H65.2757L65.2161 100.712Z" fill="#594A39"/>
<path d="M109.624 182.572V185.941H106.405V182.958L109.668 182.626L109.624 182.572Z" fill="#594A39"/>
<path d="M106.227 86.9388V83.7207H109.65V86.8572L109.703 86.8039L106.174 86.876L106.227 86.9388Z" fill="#594A39"/>
<path d="M61.748 138.185V141.635H58.2969L58.3565 141.682V138.232H61.8076L61.748 138.185Z" fill="#594A39"/>
<path d="M150.603 134.806H153.963V138.065H150.888C150.813 136.986 150.734 135.869 150.656 134.756L150.603 134.806Z" fill="#594A39"/>
<path d="M106.147 56.2565H109.599C109.599 57.4766 109.599 58.6277 109.599 59.7788C109.612 59.7655 109.623 59.7508 109.633 59.7349C108.582 59.6251 107.531 59.509 106.37 59.3836C106.311 58.3109 106.251 57.257 106.191 56.2031L106.147 56.2565Z" fill="#594A39"/>
<path d="M113.185 90.3119H109.7V86.8115L109.649 86.8648L113.132 86.9527L113.079 86.8993C113.079 88.0536 113.113 89.2078 113.129 90.3495L113.185 90.3119Z" fill="#594A39"/>
<path d="M20.79 155.43C20.7175 155.726 20.6661 156.027 20.6363 156.33C20.5453 159.018 20.3602 159.153 17.4268 158.525V155.477H20.8371L20.79 155.43Z" fill="#594A39"/>
<path d="M113.102 131.36C113.121 130.839 113.149 130.322 113.162 129.792C113.175 129.261 113.162 128.76 113.162 128.273C116.299 127.474 116.826 127.96 116.246 131.291H113.046L113.102 131.36Z" fill="#594A39"/>
<path d="M65.2602 100.767V97.3984H68.3412C68.4008 97.5082 68.4823 97.5929 68.4886 97.6839C68.6894 100.406 68.6894 100.403 65.9536 100.541C65.7027 100.576 65.4557 100.634 65.2163 100.717L65.2602 100.767Z" fill="#594A39"/>
<path d="M113.133 86.9518V83.878C116.27 82.9684 116.794 83.4609 116.27 86.8954H113.092L113.133 86.9518Z" fill="#594A39"/>
<path d="M17.3413 148.54C17.2848 148.789 17.2449 149.042 17.2221 149.296C17.1217 152.169 17.0213 152.247 14 151.655V148.59H17.3947L17.3413 148.54Z" fill="#594A39"/>
<path d="M95.8477 155.532H99.1921V158.552C98.9696 158.634 98.7394 158.694 98.505 158.731C96.0892 158.872 96.0924 158.866 96.0202 156.397C95.9956 156.09 95.9537 155.784 95.8947 155.481L95.8477 155.532Z" fill="#594A39"/>
<path d="M116.598 100.741H119.603C120.453 103.781 119.873 104.386 116.685 103.765C116.657 103.451 116.61 103.09 116.604 102.739C116.588 102.128 116.598 101.513 116.598 100.741Z" fill="#594A39"/>
<path d="M144.112 83.3138C143.601 80.08 143.999 79.6974 147.121 80.3529V83.3138H144.112Z" fill="#594A39"/>
<path d="M51.4417 49.3795C51.1487 49.2989 50.8497 49.2423 50.5476 49.2101C47.8369 49.1066 47.724 48.9467 48.3326 46.0234H51.3978V49.4297C51.4116 49.4122 51.4262 49.3955 51.4417 49.3795Z" fill="#594A39"/>
<path d="M113.032 49.3639L116.65 49.3921L116.603 49.3513C116.533 49.5969 116.482 49.8475 116.452 50.101C116.333 52.9238 116.336 52.9238 113.233 52.4816C113.186 51.4465 113.136 50.377 113.089 49.3105L113.032 49.3639Z" fill="#594A39"/>
<path d="M72.1457 83.3533H68.7949V80.3234C69.0157 80.2392 69.2451 80.1792 69.4789 80.1446C71.8915 80.0035 71.8884 80.0066 71.9637 82.4782C71.9896 82.7846 72.0325 83.0893 72.0923 83.3909L72.1457 83.3533Z" fill="#594A39"/>
<path d="M102.731 182.99C102.731 183.57 102.731 184.087 102.731 184.605C102.731 185.013 102.697 185.424 102.675 185.938H99.6317C99.0827 182.779 99.409 182.45 102.731 182.99Z" fill="#594A39"/>
<path d="M154.001 73.4803V76.4381H150.949C150.447 73.1604 150.861 72.7652 154.001 73.4803Z" fill="#594A39"/>
<path d="M82.0605 145.284V148.308H79.1177V145.284H82.0605Z" fill="#594A39"/>
<path d="M95.9086 93.8124L92.7461 93.6493V90.541H95.8552V93.8657L95.9086 93.8124Z" fill="#594A39"/>
<path d="M82.5366 138.35H85.4857V141.508H82.5366V138.35Z" fill="#594A39"/>
<path d="M34.164 138.407V141.512H31.2148V138.407H34.164Z" fill="#594A39"/>
<path d="M24.2443 141.742V138.393H27.3095V141.529L24.1909 141.698L24.2443 141.742Z" fill="#594A39"/>
<path d="M34.5972 138.069V134.951H37.5871V138.069H34.5972Z" fill="#594A39"/>
<path d="M95.8961 155.481C95.6545 155.404 95.4069 155.347 95.1557 155.312C92.3823 155.177 92.285 155.055 92.8686 152.021C93.3203 152.021 93.8098 152.021 94.318 152.021C94.8263 152.021 95.2247 152.069 95.8522 152.103C95.8522 153.289 95.8522 154.405 95.8522 155.525L95.8961 155.481Z" fill="#594A39"/>
<path d="M79.0898 46H81.8727C82.7574 48.9609 82.1864 49.5882 79.0898 48.9922V46Z" fill="#594A39"/>
<path d="M44.5608 134.799L41.4548 134.649C41.4109 133.946 41.3764 133.25 41.3293 132.557C41.276 131.766 41.643 131.449 42.4274 131.459C43.1427 131.459 43.8549 131.362 44.5702 131.305L44.5169 131.255V134.852L44.5608 134.799Z" fill="#594A39"/>
<path d="M34.6514 73.3613H37.5911V76.4289H34.6514V73.3613Z" fill="#594A39"/>
<path d="M116.73 66.6191H119.776V69.442C116.736 70.2857 116.353 69.9721 116.73 66.6191Z" fill="#594A39"/>
<path d="M61.9551 66.5225C62.7331 66.5225 63.4077 66.5225 64.0791 66.5225C64.4022 66.5494 64.7238 66.5933 65.0423 66.6542V69.59H61.9551V66.5225Z" fill="#594A39"/>
<path d="M133.346 127.788H130.428V124.862C133.311 123.981 133.769 124.41 133.346 127.788Z" fill="#594A39"/>
<path d="M37.5449 103.871H34.6396V100.784H37.5449V103.871Z" fill="#594A39"/>
<path d="M72.1001 83.3998C72.3943 83.4802 72.6943 83.5378 72.9974 83.5723C75.6328 83.6727 75.7739 83.8859 75.0743 86.8845H72.0562L72.1126 86.9378C72.1252 85.7417 72.1356 84.5457 72.144 83.3496L72.1001 83.3998Z" fill="#594A39"/>
<path d="M120.048 158.877C119.951 159.84 119.857 160.806 119.734 161.904H116.669V158.921H120.082L120.048 158.877Z" fill="#594A39"/>
<path d="M153.994 117.959V120.914H150.856V117.959H153.994Z" fill="#594A39"/>
<path d="M92.3675 183.01V185.943H89.478C88.769 182.922 89.2678 182.405 92.3675 183.01Z" fill="#594A39"/>
<path d="M44.5469 49.3772L41.4409 49.0447V46.0273H44.503V49.4242C44.5168 49.4078 44.5315 49.3921 44.5469 49.3772Z" fill="#594A39"/>
<path d="M123.526 107.24V104.272H126.381C127.298 107.196 126.836 107.729 123.526 107.24Z" fill="#594A39"/>
<path d="M85.9258 59.4185V56.3447H88.8749V59.4185H85.9258Z" fill="#594A39"/>
<path d="M71.8664 165.834V168.823H68.7949V165.834H71.8664Z" fill="#594A39"/>
<path d="M78.5214 83.3309H75.6978V80.3387C78.7285 79.7427 79.2242 80.2634 78.5214 83.3309Z" fill="#594A39"/>
<path d="M99.5596 114.511H102.628V117.456H99.5596V114.511Z" fill="#594A39"/>
<path d="M123.554 73.0635H120.169V70.0713H123.112C123.244 71.1001 123.375 72.1038 123.507 73.1043L123.554 73.0635Z" fill="#594A39"/>
<path d="M143.653 107.218C140.584 107.786 140.255 107.463 140.716 104.27H143.653V107.218Z" fill="#594A39"/>
<path d="M72.2104 52.6847V49.4541H75.3478C75.2694 50.4672 75.5392 51.7469 75.0184 52.3366C74.5729 52.8541 73.2332 52.5938 72.2104 52.6847Z" fill="#594A39"/>
<path d="M68.7494 172.288H65.3799V169.271H68.4169C68.511 170.312 68.6051 171.325 68.6992 172.335L68.7494 172.288Z" fill="#594A39"/>
<path d="M79.1274 76.8047H82.0703V79.8691H79.1274V76.8047Z" fill="#594A39"/>
<path d="M96.127 114.016V111.099H99.211V114.016H96.127Z" fill="#594A39"/>
<path d="M143.81 145.127L140.72 144.979V141.843H143.757V145.174L143.81 145.127Z" fill="#594A39"/>
<path d="M82.4746 168.772V165.874H85.4677V168.772H82.4746Z" fill="#594A39"/>
<path d="M72.2056 165.671V162.202C73.2754 162.343 74.4017 162.23 75.1484 162.701C75.5249 162.933 75.5688 164.661 75.1861 164.95C74.4896 165.477 73.3601 165.433 72.2056 165.671Z" fill="#594A39"/>
<path d="M44.4284 69.8111C43.3429 69.6636 42.1601 69.8111 41.5421 69.3124C41.1154 68.9579 41.1248 67.2454 41.5421 66.891C42.1696 66.3828 43.3429 66.5585 44.4128 66.4268L44.4284 69.8111Z" fill="#594A39"/>
<path d="M85.4465 69.6599H82.5444V66.6426H85.4465V69.6599Z" fill="#594A39"/>
<path d="M140.256 117.68V121.149C139.18 120.982 138.06 121.08 137.323 120.584C136.94 120.324 136.928 118.618 137.323 118.301C137.979 117.789 139.105 117.884 140.256 117.68Z" fill="#594A39"/>
<path d="M34.5972 110.588V107.687H37.5243V110.588H34.5972Z" fill="#594A39"/>
<path d="M123.565 66.4121C124.648 66.5564 125.831 66.3933 126.449 66.9077C126.875 67.2652 126.866 68.9746 126.449 69.3291C125.821 69.8372 124.648 69.6615 123.581 69.7933L123.565 66.4121Z" fill="#594A39"/>
<path d="M130.432 162.385H133.368V165.333H130.432V162.385Z" fill="#594A39"/>
<path d="M20.8574 62.8158V52.9326H30.8311C30.8311 55.9939 30.8562 59.0018 30.7935 62.0097C30.7935 62.2826 30.2382 62.775 29.9339 62.7813C26.9565 62.8378 23.9885 62.8158 20.8574 62.8158Z" fill="#594A39"/>
<path d="M30.8324 179.122H20.9058V169.157H26.5813C30.8355 169.157 30.8355 169.157 30.8324 173.37V179.122Z" fill="#594A39"/>
<path d="M137.164 52.875H147.063V62.8084C144.02 62.8084 141.008 62.8335 138.002 62.7707C137.808 62.7122 137.633 62.6051 137.492 62.4596C137.352 62.3141 137.251 62.1351 137.199 61.9396C137.139 58.9756 137.164 56.0084 137.164 52.875Z" fill="#594A39"/>
</svg>
