<svg width="168" height="206" viewBox="0 0 168 206" fill="none" xmlns="http://www.w3.org/2000/svg">
<rect x="1.5" y="1.5" width="165" height="203" rx="8.5" fill="white"/>
<rect x="1.5" y="1.5" width="165" height="203" rx="8.5" stroke="#E9E3D8" stroke-width="3"/>
<path d="M46.7594 26.7844L45.1816 27.2828C45.1383 26.9577 45.0735 26.5677 44.987 26.1777C40.8804 26.7844 40.1888 26.9577 39.7565 27.1744C39.6484 26.7627 39.3458 25.8093 39.1297 25.2893C39.6052 25.1593 40.1023 24.6609 40.7723 23.8808C41.0533 23.5341 41.6585 22.7757 42.3285 21.779C40.4049 22.0173 39.9294 22.1473 39.6052 22.2557C39.4971 21.8873 39.2161 20.9772 39 20.5005C39.389 20.4139 39.7349 19.9588 40.1671 19.3304C40.5994 18.7021 41.9827 16.2969 42.7608 14L44.6196 14.7584C43.755 16.6436 42.6744 18.6154 41.572 20.1972L43.4524 20.0455C44.036 19.1354 44.598 18.1387 45.0303 17.1636L46.7594 18.2254C45.4841 20.5655 43.7983 22.9707 42.1124 24.9209L44.6628 24.5959C44.4899 23.9242 44.2954 23.2308 44.0793 22.6457L45.5706 22.2557C46.0893 23.7291 46.6081 25.636 46.7594 26.7844ZM40.0159 27.9762L41.5937 28.2579C41.3991 30.1863 41.0101 32.2665 40.5562 33.6316C40.2104 33.4366 39.4539 33.1983 39.0432 33.0683C39.5403 31.7248 39.8429 29.7746 40.0159 27.9762ZM42.1988 28.2145L43.647 27.9545C43.9063 29.4063 44.1225 31.2698 44.1657 32.5265L42.6311 32.8082C42.6095 31.5515 42.415 29.6446 42.1988 28.2145ZM44.2522 27.8028L45.5922 27.3694C46.0029 28.4095 46.4135 29.7313 46.5865 30.6197L45.1816 31.1181C45.0303 30.208 44.6412 28.8212 44.2522 27.8028ZM50.6931 25.5276L51.8602 25.9393C51.147 29.2329 49.3963 31.6165 47.1916 32.8949C46.9323 32.5049 46.4135 31.8332 46.0461 31.5081C47.5375 30.6847 48.8775 29.1246 49.6124 27.2394H47.2349V25.5926H50.3905L50.6931 25.5276ZM49.8718 20.8689V22.429H56.0101V20.8689H49.8718ZM49.8718 17.8787V19.4171H56.0101V17.8787H49.8718ZM57.1556 24.5742L58.647 25.8093C57.6744 26.6544 56.6153 27.5645 55.7075 28.2362C56.5937 29.623 57.7392 30.7714 59.0576 31.4648C58.6254 31.8115 58.0418 32.5482 57.7392 33.0466C56.2695 32.0932 55.0375 30.5547 54.1081 28.7346V31.8332C54.1081 32.7866 53.9135 33.3283 53.2867 33.6316C52.6599 33.935 51.6873 33.9567 50.3256 33.9567C50.2608 33.4149 50.0014 32.6132 49.7637 32.1148C50.6715 32.1582 51.5793 32.1582 51.8386 32.1365C52.1196 32.1148 52.1844 32.0498 52.1844 31.8115V24.0108H47.9914V16.3185H51.1902C51.4712 15.5818 51.7305 14.6934 51.8818 14.0217L54.1513 14.4767C53.8487 15.1051 53.5461 15.7551 53.2219 16.3185H57.9769V24.0108H54.1081V24.7692C54.3458 25.506 54.6052 26.221 54.951 26.8927C55.7507 26.156 56.5937 25.2459 57.1556 24.5742Z" fill="#B8C318"/>
<path d="M72.7824 30.8581H82.0764V32.8949H62.732V30.8581H70.621V14.3467H72.7824V20.7822H80.585V22.7974H72.7824V30.8581Z" fill="#B8C318"/>
<path d="M96.7089 26.2644H102.199V23.4041H96.7089V26.2644ZM89.2954 26.2644H94.634V23.4041H89.2954V26.2644ZM94.634 18.8321H89.2954V21.5406H94.634V18.8321ZM102.199 18.8321H96.7089V21.5406H102.199V18.8321ZM96.7089 16.9036H104.274V29.2763H102.199V28.1928H96.7089V33.935H94.634V28.1928H89.2954V29.3846H87.3069V16.9036H94.634V14.065H96.7089V16.9036Z" fill="#B8C318"/>
<path d="M128.741 16.7952V18.442H122.408V16.7952H124.742C124.504 16.0802 124.159 15.2784 123.813 14.6284L125.477 14.13C125.909 14.9534 126.385 15.9935 126.687 16.7952H128.741ZM125.001 22.169L123.575 22.559C123.553 21.6273 123.294 20.1538 122.948 19.0271L124.288 18.6804C124.677 19.7855 124.98 21.2156 125.001 22.169ZM115.556 16.8386V18.4854H109.375V16.8386H111.666C111.428 16.1668 111.104 15.3868 110.78 14.7801L112.444 14.2817C112.898 15.0618 113.33 16.0802 113.589 16.8386H115.556ZM111.86 22.169L110.412 22.559C110.412 21.649 110.174 20.2189 109.85 19.1138L111.19 18.7671C111.558 19.8288 111.817 21.2373 111.86 22.169ZM115.275 28.1712H113.265C113.114 30.208 112.465 32.4615 110.563 34C110.304 33.61 109.764 33.0033 109.375 32.6999C110.931 31.5731 111.363 29.7746 111.471 28.1712H109.483V26.5244H111.514V24.2709H109.223V22.6241H112.617C112.941 21.4973 113.33 19.8288 113.481 18.6587L115.037 18.9837C114.692 20.1972 114.324 21.5623 114 22.6241H115.643V24.2709H113.308V26.5244H115.275V28.1712ZM121.565 18.8537V19.6988C121.435 28.9079 121.327 31.8982 120.83 32.7216C120.506 33.2633 120.16 33.4583 119.62 33.545C119.187 33.6316 118.561 33.61 117.89 33.5883C117.869 33.1116 117.696 32.3965 117.458 31.9415C118.042 31.9848 118.561 31.9848 118.841 31.9848C119.079 31.9848 119.231 31.9198 119.382 31.6381C119.706 31.0748 119.814 28.4095 119.922 20.5872H118.69C118.452 26.156 117.782 30.6414 115.621 33.9783C115.405 33.675 114.67 33.0683 114.324 32.7866C116.313 29.948 116.961 25.7226 117.156 20.5872H115.988V18.8537H117.199C117.22 17.3153 117.22 15.7118 117.22 14.065H118.798C118.798 15.7335 118.777 17.3153 118.733 18.8537H121.565ZM129 24.2925H126.601V26.8494H128.741V28.4962H126.601V33.8917H124.785V28.4962H122.71V26.8494H124.785V24.2925H122.321V22.6457H125.909C126.255 21.4973 126.644 19.7638 126.795 18.5937L128.33 18.9404C128.049 20.1538 127.682 21.5623 127.357 22.6457H129V24.2925Z" fill="#B8C318"/>
<g clip-path="url(#clip0_2040_1099)">
<path d="M17.023 102V98.8761H14.0406V95.8246H17.0386V92.6075L16.9824 92.6606H20.1053V83.3653H23.2469V80.1982H32.6157L32.5688 80.1357C32.5688 81.1883 32.5969 82.2378 32.6094 83.2904H29.3834V95.784H26.4136V98.9761H29.3428C29.3959 100.072 29.4428 101.041 29.4865 102.012H26.3823V108.165H38.8146V105.095H41.9625V108.218H44.998V105.145H41.9313C41.9844 104.139 42.0406 103.136 42.1031 101.975H51.2782V98.8792L54.4011 99.0479V102.062H57.5458V105.07H60.6687C60.6125 106.066 60.5532 107.063 60.4907 108.212H54.3948V105.148H51.3188V108.212H48.1959V117.538L51.2594 117.691V120.602H57.474V117.551L54.4323 117.417V114.343H51.275V108.19H54.4198V111.313H63.7698V114.556H73.1073V117.542H76.1615V111.342H63.7385C63.7385 109.259 63.7385 107.177 63.7385 105.095H70.0094V108.218H73.0448V105.145H69.9781C70.0312 104.139 70.0874 103.13 70.1405 102.199H79.1969V105.101H76.2614V108.178H88.7937V102.109L91.8291 101.965C91.8291 102.974 91.8291 103.983 91.8291 105.089H94.952C94.8989 106.097 94.8427 107.106 94.7803 108.234H91.8916V120.681H94.9583V126.927H101.204V130.035H104.236V126.959H101.173L101.338 123.835H104.283V120.668H110.529V123.901H113.627V126.987H126.094V133.171L126.141 133.127H122.971V130.044H110.479V126.921H107.447V129.998H110.51C110.51 131.051 110.499 132.104 110.476 133.155L110.523 133.112H98.0312V130.082H94.7959V136.119L91.7635 136.263V133.14H88.6406C88.6406 132.099 88.6406 131.05 88.6406 129.995H91.7479V123.86H85.5521V126.93H82.4292V130.054H76.1615V126.806H69.9438V123.823H54.273V132.984H51.2438V129.923H48.2583V126.949H51.2032V123.826H45.0667V136.385H48.1209V139.371H51.2438V142.519H45.0667V145.746H48.1178V148.722H51.2407C51.1876 149.719 51.1314 150.718 51.072 151.846H44.9699L45.0167 151.893V148.769L41.8657 148.622V145.508H38.8927C38.8396 144.421 38.7896 143.456 38.7397 142.488H41.8064V123.854H38.6647V130.044H32.5032C32.5532 129.073 32.6063 128.102 32.6656 126.946H35.6043V123.823H29.4709V130.013H32.5376V133.24H35.4637V136.251H32.5906V139.49H38.6241C38.6772 140.583 38.7241 141.551 38.7709 142.522H32.5001V145.646L32.5469 145.583H26.4729V142.619H29.4115V136.238H14.0062V120.802H16.9449V114.415H14V111.432H17.0198V105.07L16.9574 105.117L20.1115 105.076V111.304H23.1501V105.107H20.0772V101.956H23.2001V98.9386H20.124V102.006L16.9636 101.968L17.023 102ZM23.2376 130.02V133.143H26.273V130.066H23.2063V123.823H17.0511V130.02H23.2376ZM88.6843 111.367H79.3531V120.615H88.6843V111.367ZM29.5021 111.335V120.643H38.7272V111.335H29.5021ZM69.975 117.607H60.6562V120.609H69.975V117.607ZM20.124 120.618H26.2855V117.598H20.124V120.618ZM44.9792 114.428V111.373H41.9531V114.428H44.9792ZM76.2083 120.718H73.1135V123.732H76.2083V120.718ZM23.2594 86.395V89.4747H26.2574V86.395H23.2594Z" fill="#594A39"/>
<path d="M91.7605 183.002V186H85.6833V183.064H76.1896V185.997H70.1V182.958H66.8522L66.9052 183.014V173.741H54.4136V179.932H57.3523V182.986H51.2376L51.2844 183.049V179.925H48.1334V176.777H51.2189V173.694H48.1678V176.818H45.1073V179.9H48.174C48.174 180.953 48.1459 182.002 48.1303 183.055L48.1771 182.992H45.0542V185.994H38.9646V170.743H41.8095C41.8501 171.658 41.897 172.617 41.9438 173.647H45.0667V170.671H51.2657V167.407H38.9177V161.16H32.7188V158.183H35.7386V154.935L35.6761 154.982H42.05V151.858H45.0761L45.0293 151.812V158.008H48.2709V155.104H51.3001V161.207H41.9594V164.24H51.2657V161.172H63.7729C63.723 162.144 63.6761 163.115 63.6168 164.268H60.6688V167.522H63.7386V170.468H66.8615V161.191L70.0032 161.26L69.9501 161.204V164.293H76.3146V155.004H79.2876V151.749H76.3926V148.913H85.4022V151.852H82.5417V155.104H91.8198V161.201H94.9427C94.8834 162.209 94.8272 163.218 94.7616 164.346H91.8354V167.544H94.7428V173.678H88.7562V183.049H91.8323L91.7605 183.002ZM73.1136 173.688H69.9907V179.835H73.073V173.654H76.2146V179.9H79.3125C79.3625 178.873 79.4063 177.917 79.4593 176.836H85.4865V173.713H76.1834V170.649H73.1042L73.1136 173.688ZM88.6906 161.238H79.4031V170.496H88.6906V161.238ZM57.4303 170.549V167.491H54.4292V170.549H57.4303Z" fill="#594A39"/>
<path d="M88.6591 55.2578H94.8394V61.5046H101.157L101.11 61.4577C101.129 62.5041 101.151 63.5504 101.169 64.5967H98.0466V67.6296H101.12V64.5561L104.121 64.6967C104.171 65.6962 104.217 66.6426 104.271 67.7264H107.393L107.35 67.6639V73.9513H110.513L110.466 73.9045C110.466 74.957 110.491 76.0128 110.501 77.0653H107.397V80.0982H110.47V77.0247L113.592 77.1965V80.0857H116.828V77.0747H122.964L122.921 77.0279V80.1794L122.964 80.1325H119.894V83.2965H122.964L122.921 83.2497V86.4137L122.964 86.3668H116.718V83.3434H113.483V89.5246H107.35V86.2825H104.258V70.8685H91.7883V73.9513H88.6654V77.0747H85.5113V73.9513H82.4789V77.0247H85.5456C85.5456 78.0742 85.5456 79.1237 85.5456 80.1762H79.2998V73.995H70.0123V77.1372H72.9416C72.9946 78.2304 73.0384 79.2017 73.0852 80.1731H60.6279V77.0154L60.5811 77.0622H66.7676V73.8982H60.5811L60.6279 73.9451V70.7686H66.8206V67.6733H70.0247V61.5858L73.0914 61.439V70.7811H76.1269V61.4733H73.0602C73.0727 60.4176 73.0842 59.364 73.0946 58.3125L73.0508 58.3593H76.2893V55.3983H82.4196V58.2687H88.6654V55.2109L88.6591 55.2578ZM88.6404 70.8029V61.4796H79.3997V70.8029H88.6404ZM91.8352 64.5561V67.6545H94.8519V64.5811L91.8352 64.5561Z" fill="#594A39"/>
<path d="M147.889 95.728L150.918 95.8748V98.8545H153.981V101.856H151.046V105.004H147.87V108.234L147.932 108.187H141.743V114.468H144.816L144.769 114.422V117.586L144.816 117.539H141.743V120.703H144.816L144.769 120.656V123.82L144.816 123.776H135.331V126.781L132.308 126.931V123.732H116.791V120.675L116.734 120.728H119.96V114.481H126.075V105.076H132.427V102.162H138.567V105.067H141.615V95.6343H138.72V92.614H144.831V86.3672L144.784 86.414H147.948L147.901 86.3672V89.5312H151.064L151.002 89.4843V92.4828L147.938 92.6358V95.7592H144.816V98.7921H147.889V95.728ZM138.52 120.684V111.351H129.27V120.684H138.52ZM126.059 120.684V117.626H123.027V120.684H126.059Z" fill="#594A39"/>
<path d="M126.066 158.127H132.377V154.963L132.321 155.016H135.444V152.002H138.473V158.071H141.531V161.241H144.744V167.463L144.807 167.416H141.684V173.61H147.929V170.533L147.883 170.58H151.046L150.984 170.533C150.984 172.615 150.984 174.704 150.984 176.799L151.037 176.745H135.422L135.469 176.808V173.735H132.306V176.808L132.352 176.761H129.189L129.236 176.808V173.65H116.725L116.772 173.697C116.772 172.644 116.744 171.595 116.732 170.546H119.817V167.463H116.763V170.586L113.609 170.542L113.656 170.589V167.416H110.479L110.526 167.463V164.299L110.479 164.346H113.602V161.191L116.76 161.228L116.713 161.182V164.305H122.971V170.552H126.01V164.336H122.937C122.937 163.284 122.968 162.234 122.981 161.182L122.937 161.228H126.1V158.064L126.066 158.127ZM129.211 170.511H138.526V161.278H129.217L129.211 170.511Z" fill="#594A39"/>
<path d="M129.167 142.479V145.546H122.971V148.582L119.848 148.747V145.624H113.602V139.408H110.561V145.605H113.634V148.729H119.861V151.88H122.927V155.004L122.987 154.957H119.917V158.121H122.987L122.943 158.074V161.238L122.987 161.191H116.725L116.772 161.238V158.115H113.602V154.991H110.48V151.927H104.234V158.115L104.281 158.068L98.0097 158.108C98.0097 157.071 98.0316 156.034 98.0441 154.985L97.9941 155.038H101.239V148.754H107.31V145.499H104.424V142.535H107.316V139.28H104.418V136.26H110.517V133.137L110.47 133.18H113.643V136.329H116.735L116.682 136.276V139.502H119.848V142.535H129.217L129.167 142.479Z" fill="#594A39"/>
<path d="M35.5545 46.0127V67.511H14.0283V46.0127H35.5545ZM16.9888 64.5251H32.5409V49.0549H16.9888V64.5251Z" fill="#594A39"/>
<path d="M132.471 46H153.969V67.5264H132.471V46ZM151.021 49.0297H135.462V64.4968H151.011L151.021 49.0297Z" fill="#594A39"/>
<path d="M14.0156 164.455H35.5106V185.982H14.0156V164.455ZM16.9886 182.98H32.5407V167.51H16.9886V182.98Z" fill="#594A39"/>
<path d="M107.406 179.868H104.233L104.277 179.931V176.767H101.113L101.16 176.814L101.123 173.653H104.246V170.62H101.173V173.687L98.2246 173.525V167.441H104.292V158.07L104.246 158.117L107.403 158.08V161.203H110.526C110.526 162.257 110.514 163.309 110.491 164.361L110.538 164.314H107.465V167.478H110.538L110.491 167.431V170.595H113.655L113.608 170.548V173.712H116.772L116.725 173.665V176.829L116.772 176.783H107.356V179.947L107.406 179.868Z" fill="#594A39"/>
<path d="M66.8992 52.1254V49.0707H73.1138V46.0098H76.0868V48.9395H79.344V46.0129H82.3139V48.9364H85.571V46.016H88.5972V49.002H91.7731L91.7201 48.952V51.9786H88.6596V55.2581L88.7033 55.1957H85.5523V52.1722H73.0607V58.3597L73.1044 58.3128H69.9815V52.0879H66.8242L66.8992 52.1254Z" fill="#594A39"/>
<path d="M48.1957 70.828V67.664L48.1332 67.7109H51.2967V64.5469L51.2499 64.5937L54.4071 64.5562V67.6796H57.53V73.9514H60.6529L60.6061 73.9046V77.0748L60.6529 77.028H51.3373V80.2763H54.4071V86.42H51.2592V83.2966H48.1363L48.1738 73.9046L48.127 73.9514H51.1999V70.7812H48.127L48.1957 70.828Z" fill="#594A39"/>
<path d="M147.863 80.1545C147.863 81.2039 147.863 82.2503 147.863 83.2966L147.925 83.2498H144.762V86.4138L144.809 86.3669L141.661 86.3357L141.714 86.3919V83.1748H135.412V80.1326H132.289L132.336 80.1795V77.0155L132.289 77.0779H135.412V70.9717H138.419V73.8515H141.667V70.9842H144.678V80.1982H147.9L147.863 80.1545ZM138.607 77.0623V80.1201H141.652V77.0748L138.607 77.0623Z" fill="#594A39"/>
<path d="M122.949 73.9508H129.217V70.9805H132.293V77.0742L132.34 77.0117H129.267V80.1789H132.34L132.293 80.132L132.33 89.5241H122.962L122.996 86.3663L122.952 86.4132H129.136V83.2492H122.952L122.996 83.296V80.132L122.952 80.1789H126.022V77.0149H122.952L122.996 77.0617V73.8977L122.949 73.9508Z" fill="#594A39"/>
<path d="M147.87 108.233H150.927V120.689H153.994V126.78H150.989V129.994H147.885L147.932 130.053V126.893H144.769L144.815 126.936V123.775L144.769 123.819H147.841V120.655H144.769L144.815 120.702V117.538L144.769 117.585H147.841V114.421H144.769L144.815 114.468V111.344H147.938V108.187L147.87 108.233Z" fill="#594A39"/>
<path d="M35.7259 77.0749V73.9515H32.7373V70.8281H48.1957L48.1332 70.7812V73.9515L48.1801 73.9046H45.0572V83.2905H41.9124V80.1671H38.7895V77.0155H35.6666L35.7259 77.0749Z" fill="#594A39"/>
<path d="M141.637 133.128V136.195H135.431V139.346H132.309L132.355 139.406V136.335H129.192V139.406L129.239 139.362H123.155V136.292H126.122V133.128L126.075 133.171H132.321V130.017H138.545V133.171H141.708L141.637 133.128Z" fill="#594A39"/>
<path d="M132.283 179.885C132.283 180.926 132.283 181.975 132.283 183.033L132.339 182.98H126.093V185.982H123.083V179.982H119.847V182.986H113.602L113.648 183.049V179.925H116.771V176.768L116.724 176.814H129.216L129.169 176.768V179.932H132.339L132.283 179.885Z" fill="#594A39"/>
<path d="M17.0291 158.086V155.038H26.3978V151.846L26.3447 151.899H29.324V161.016H23.3373V158.033H16.9854L17.0291 158.086Z" fill="#594A39"/>
<path d="M110.479 67.726H113.602V64.7432H116.653V67.7385H119.87L119.817 67.6854V70.7807H122.959V73.9509L123.002 73.8885H116.757V70.8588H113.521V73.8885H110.479L110.526 73.9353V67.6635L110.479 67.726Z" fill="#594A39"/>
<path d="M126.041 48.9824V55.2105H129.052V61.3042H119.995V58.4557H123.006V49.0355H126.097L126.041 48.9824Z" fill="#594A39"/>
<path d="M113.58 55.2113C113.58 56.2607 113.58 57.3102 113.58 58.3597L113.636 58.3034H110.513V61.3019H107.493V55.2113H98.0715V52.1254L98.0215 52.1785L110.544 52.141L110.479 52.0879V55.2425H113.642L113.58 55.2113Z" fill="#594A39"/>
<path d="M94.9398 182.986L91.7607 183.002L91.8232 183.049V176.802H101.173L101.126 176.755V179.919H104.29L104.246 179.856V182.98H98.0003L98.0471 183.042V179.969H94.8837V183.042L94.9398 182.986Z" fill="#594A39"/>
<path d="M16.9227 73.8327V76.8562H14.0371V70.9717H29.2831V73.8327H16.9227Z" fill="#594A39"/>
<path d="M48.1963 58.3593V52.1125H45.1982V49.1328H54.3515V52.1281L54.4139 52.0813H51.3441V55.2422H54.4139L54.3702 55.1953L54.4077 58.3468L48.1338 58.3125L48.1963 58.3593Z" fill="#594A39"/>
<path d="M110.526 52.1406V48.9985H107.547V46.0156H119.726V48.8767H113.59V52.125L113.652 52.0781H110.479L110.526 52.1406Z" fill="#594A39"/>
<path d="M147.91 182.979H144.787V185.987H138.707V180.053H147.854V183.036L147.91 182.979Z" fill="#594A39"/>
<path d="M147.916 80.198V70.9746H150.896C150.939 71.9116 150.983 72.8705 151.033 73.945H153.969V76.9497H151.011V80.0043L147.863 80.1543L147.916 80.198Z" fill="#594A39"/>
<path d="M132.32 142.547H138.566L138.513 142.494V145.618H141.524V148.6H135.59V145.596H132.392V142.504L132.32 142.547Z" fill="#594A39"/>
<path d="M23.2501 148.656H20.1272V151.686H14.0312V148.841H16.9886V145.789H23.2064V148.722L23.2501 148.656Z" fill="#594A39"/>
<path d="M41.9691 61.4574V58.334H38.9648V55.373H44.8984C44.9483 56.3413 44.9952 57.2908 45.0514 58.359H48.1931L48.1306 58.3122V61.4762L48.1774 61.4137L41.9129 61.3981L41.9691 61.4574Z" fill="#594A39"/>
<path d="M147.885 129.994V133.118H141.64L141.702 133.162V126.915H144.825L144.778 126.871V130.032H147.942L147.885 129.994Z" fill="#594A39"/>
<path d="M147.954 158.008H144.956V151.87H151.018L150.965 151.817V154.847L147.904 154.985V158.074L147.954 158.008Z" fill="#594A39"/>
<path d="M148.045 139.23V136.363H151.03V133.296H153.994V139.23H148.045Z" fill="#594A39"/>
<path d="M60.6035 52.141H66.8993L66.8368 52.0941V58.2035L63.7139 58.3472V55.2238L60.6379 55.0707V52.0879L60.6035 52.141Z" fill="#594A39"/>
<path d="M41.9152 61.3984V67.5328H38.9453V61.5983L41.9683 61.4547L41.9152 61.3984Z" fill="#594A39"/>
<path d="M16.7919 86.2546H14.0469V80.292H16.7919V86.2546Z" fill="#594A39"/>
<path d="M132.377 154.962H129.36V148.875H132.321V155.016L132.377 154.962Z" fill="#594A39"/>
<path d="M57.5488 52.1254V46.0098H60.603V52.141L60.6498 52.0785H57.4863L57.5488 52.1254Z" fill="#594A39"/>
<path d="M113.58 52.1254H119.682V55.2113H113.58L113.643 55.2581V52.0879L113.58 52.1254Z" fill="#594A39"/>
<path d="M17.023 105.069H14.0312V101.999H17.023L16.9605 101.952V105.116L17.023 105.069Z" fill="#594A39"/>
<path d="M17.0384 92.617H14.0342V89.6748H16.8448C16.8885 90.6618 16.9322 91.6675 16.9759 92.6701L17.0384 92.617Z" fill="#594A39"/>
<path d="M151.002 86.4453H154V89.5H150.986L151.049 89.5468V86.3672L151.002 86.4453Z" fill="#594A39"/>
<path d="M147.87 83.2969H150.993V86.4202L151.04 86.3578H147.876L147.923 86.4046V83.25L147.87 83.2969Z" fill="#594A39"/>
<path d="M14 142.313V139.57H16.8106V142.313H14Z" fill="#594A39"/>
<path d="M20.2275 142.354V139.543H23.0663V142.354H20.2275Z" fill="#594A39"/>
<path d="M132.377 142.494L129.167 142.478L129.229 142.525V139.361L129.183 139.405H132.34L132.293 139.346C132.293 140.41 132.3 141.477 132.315 142.547L132.377 142.494Z" fill="#594A39"/>
<path d="M138.564 142.554V139.543H141.509V142.354L138.511 142.488L138.564 142.554Z" fill="#594A39"/>
<path d="M147.911 145.571H144.935V142.638H147.855V145.624L147.911 145.571Z" fill="#594A39"/>
<path d="M35.7107 148.698H32.5878V145.574L32.541 145.637H35.6639V148.76L35.7107 148.698Z" fill="#594A39"/>
<path d="M147.854 145.623H150.977V148.747L151.03 148.694H148.051C148.001 147.572 147.958 146.576 147.914 145.57L147.854 145.623Z" fill="#594A39"/>
<path d="M26.3887 151.845H23.2658V148.656L23.2158 148.709L26.3387 148.872V151.898L26.3887 151.845Z" fill="#594A39"/>
<path d="M35.7265 151.877C35.7265 150.815 35.7213 149.755 35.7109 148.697L35.6641 148.76H38.662V151.83H35.6641L35.7265 151.877Z" fill="#594A39"/>
<path d="M150.974 148.741H153.978V151.82H150.949L151.002 151.873C151.002 150.811 151.002 149.749 151.027 148.688L150.974 148.741Z" fill="#594A39"/>
<path d="M32.5943 80.1976V77.0742H35.7172L35.6547 77.0273C35.6547 78.0799 35.6829 79.1294 35.6953 80.182L32.5381 80.1445L32.5943 80.1976Z" fill="#594A39"/>
<path d="M35.7261 154.947H32.7344V151.877H35.7261L35.6637 151.83V154.994L35.7261 154.947Z" fill="#594A39"/>
<path d="M122.934 154.994H126.057V158.118L126.103 158.055H122.94L122.984 158.102V154.947L122.934 154.994Z" fill="#594A39"/>
<path d="M16.9759 158.033V161.038H14.0342V158.227L17.029 158.096L16.9759 158.033Z" fill="#594A39"/>
<path d="M126.231 64.7031H129.061V67.5423H126.231V64.7031Z" fill="#594A39"/>
<path d="M151.027 161.156H147.954V158.008L147.904 158.064L150.99 158.22V161.212L151.027 161.156Z" fill="#594A39"/>
<path d="M119.848 67.7389V64.7373H122.79V67.5484L119.795 67.6827L119.848 67.7389Z" fill="#594A39"/>
<path d="M107.406 67.7266V64.7344H110.479V67.7266L110.526 67.6641H107.356L107.406 67.7266Z" fill="#594A39"/>
<path d="M150.974 161.212H153.99V164.267H151.017L151.074 164.32L151.027 161.159L150.974 161.212Z" fill="#594A39"/>
<path d="M151.018 164.268C151.018 165.332 151.008 166.397 150.987 167.463L151.049 167.416H147.886L147.948 167.463V164.324H151.071L151.018 164.268Z" fill="#594A39"/>
<path d="M48.1958 67.664H45.1885V64.6093H48.1802L48.1334 64.5469V67.7046L48.1958 67.664Z" fill="#594A39"/>
<path d="M144.753 167.462H147.954L147.891 167.415V170.579L147.938 170.533H144.815V167.409L144.753 167.462Z" fill="#594A39"/>
<path d="M150.986 167.463H153.978V170.533H150.986L151.049 170.58V167.416L150.986 167.463Z" fill="#594A39"/>
<path d="M48.1806 64.6093V61.4141L48.1338 61.4765H51.2567V64.5812L51.3035 64.5343H48.14L48.1806 64.6093Z" fill="#594A39"/>
<path d="M113.564 58.3345H116.569V61.2768H113.758C113.714 60.2898 113.671 59.2841 113.627 58.2783L113.564 58.3345Z" fill="#594A39"/>
<path d="M101.157 61.5045V58.5029H104.099V61.314L101.11 61.4577L101.157 61.5045Z" fill="#594A39"/>
<path d="M54.3516 52.125H57.5494L57.487 52.0781V55.2109H54.3641L54.4078 55.2577V52.0875L54.3516 52.125Z" fill="#594A39"/>
<path d="M60.75 179.729V176.971H63.5606V179.729H60.75Z" fill="#594A39"/>
<path d="M94.915 49.0295H98.0036V52.1778L98.0535 52.1247L94.9712 51.9655V48.9639L94.915 49.0295Z" fill="#594A39"/>
<path d="M41.7474 51.978H38.9805V49.167H41.7474V51.978Z" fill="#594A39"/>
<path d="M135.416 176.752V179.875H132.293L132.355 179.922V176.768L132.309 176.814H135.463L135.416 176.752Z" fill="#594A39"/>
<path d="M150.974 176.798H153.975V179.74H151.164C151.12 178.753 151.074 177.748 151.03 176.745L150.974 176.798Z" fill="#594A39"/>
<path d="M110.526 182.986H107.403V179.862L107.359 179.925H110.482V183.048L110.526 182.986Z" fill="#594A39"/>
<path d="M126.093 49.0358V46.0342H129.035V48.8452L126.037 48.9795L126.093 49.0358Z" fill="#594A39"/>
<path d="M51.2504 182.986V185.979H48.1806V182.986L48.1338 183.049H51.2973L51.2504 182.986Z" fill="#594A39"/>
<path d="M66.8519 182.958V185.963H63.9102V183.152L66.905 183.02L66.8519 182.958Z" fill="#594A39"/>
<path d="M98.0092 182.986V185.979H94.9394V182.986L94.8926 183.049H98.0561L98.0092 182.986Z" fill="#594A39"/>
<path d="M113.602 182.986V185.979H110.532V182.986L110.485 183.049H113.649L113.602 182.986Z" fill="#594A39"/>
<path d="M132.268 183.033H135.272V185.975H132.461C132.417 184.988 132.371 183.985 132.327 182.979L132.268 183.033Z" fill="#594A39"/>
<path d="M94.9706 48.9641L91.7197 48.9391L91.7728 48.9891C91.8228 48.0302 91.8727 47.0713 91.9258 46.0156H94.9145V49.0172L94.9706 48.9641Z" fill="#594A39"/>
<path d="M147.854 183.033H150.859V185.975H148.048C148.001 184.988 147.958 183.985 147.914 182.979L147.854 183.033Z" fill="#594A39"/>
<path d="M88.6623 77.0219L91.8227 77.0781L91.7758 77.0156V86.4139H94.9393L94.8925 86.3671L94.9331 89.5186H91.8477V92.6014H94.9019V89.478L98.056 89.5217L97.9936 89.4749V95.6436H88.6592V98.7076H85.683V92.6701H76.1925V98.7139H67.0518V95.8403H73.0634V92.6389H70.1685V89.6123H73.0759V86.3733L76.1144 86.5264V89.453H88.6592V86.3921H79.5153V83.3717H85.5457V80.139H88.6686L88.6623 77.0219Z" fill="#594A39"/>
<path d="M38.765 86.3668V89.4402H45.0109V83.2559H48.1619V86.3793H51.2848L51.2286 89.537L51.291 89.4902H48.2181V92.6542H51.291L51.2286 92.6073L51.2848 98.8822H38.815V105.129H29.6087C29.5431 103.98 29.4869 102.98 29.4307 101.977H35.6109V98.8541H32.7409V95.8838L35.6578 95.7432V92.6292H32.7503V89.6088H35.7202V86.3668L35.6578 86.4136H38.8213L38.765 86.3668ZM41.888 95.7526V92.6916H38.8556V95.7494L41.888 95.7526Z" fill="#594A39"/>
<path d="M122.949 92.664L132.34 92.6078C132.29 93.5761 132.243 94.5443 132.187 95.6375H126.156V98.8733H129.026V101.884H126.094V105.111H119.789V108.234L119.842 108.181H113.596L113.643 108.244V105.07H110.479L110.542 105.117V101.953L110.479 102H113.643V98.8359L113.596 98.8827H116.747V101.953H122.993V92.6016L122.949 92.664Z" fill="#594A39"/>
<path d="M51.234 89.5308H54.3569V86.373H63.7443C63.6944 87.3413 63.6475 88.3096 63.5913 89.4027H57.561V92.6386H60.4309V95.5746H54.4974C54.4537 94.6376 54.4069 93.6755 54.3569 92.6011H51.209L51.2715 92.648V89.484L51.234 89.5308Z" fill="#594A39"/>
<path d="M104.284 120.696H94.8994V114.428H104.284V120.696Z" fill="#594A39"/>
<path d="M113.603 108.171V111.357H116.572V114.361H110.48V117.385H107.472V114.461H104.243C104.293 113.496 104.34 112.531 104.396 111.397H110.536V108.187L110.473 108.233H113.637L113.603 108.171Z" fill="#594A39"/>
<path d="M63.7266 86.4074L63.8796 83.2559H73.114V86.4074H63.7266Z" fill="#594A39"/>
<path d="M110.541 101.953H104.296V95.7061L104.236 95.7529H107.397L107.353 95.7061V98.8701H110.516L110.47 98.8232V102L110.541 101.953Z" fill="#594A39"/>
<path d="M94.8994 105.11V101.959H101.111V105.101L101.164 105.048L94.8994 105.11Z" fill="#594A39"/>
<path d="M63.7604 105.11H60.6094C60.6562 104.139 60.7062 103.171 60.7593 102.121H63.5917C63.6355 103.092 63.7042 104.101 63.7604 105.11Z" fill="#594A39"/>
<path d="M94.9332 101.993H91.7822C91.8291 101.022 91.879 100.053 91.9321 99.0039H94.7646C94.8177 99.9753 94.8645 100.984 94.9332 101.993Z" fill="#594A39"/>
<path d="M101.11 105.101H104.111V108.043H101.301C101.257 107.056 101.21 106.054 101.167 105.048L101.11 105.101Z" fill="#594A39"/>
<path d="M110.542 108.186H107.55V105.116H110.542L110.479 105.069V108.233L110.542 108.186Z" fill="#594A39"/>
<path d="M79.4971 95.8555H82.2796V98.6915H79.4971V95.8555Z" fill="#594A39"/>
<path d="M104.305 95.7187H101.298V92.664H104.29L104.246 92.6016V95.7656L104.305 95.7187Z" fill="#594A39"/>
<path d="M107.403 89.4902L107.347 92.648L107.406 92.6011H104.233L104.277 92.6636V89.662L107.403 89.4902Z" fill="#594A39"/>
<path d="M98.0091 86.4453H101.007V89.5H97.9873L98.0497 89.5468V86.3672L98.0091 86.4453Z" fill="#594A39"/>
<path d="M97.9878 83.25C97.9878 84.3088 97.9878 85.3708 97.9878 86.4296L98.0346 86.3672H94.8711L94.9179 86.414V83.2906H98.0409L97.9878 83.25Z" fill="#594A39"/>
<path d="M98.0091 80.1984H101.007V83.2531H97.9873L98.0497 83.2999V80.1328L98.0091 80.1984Z" fill="#594A39"/>
<path d="M94.8926 77.0746H98.0405L97.9874 77.0183C97.9874 78.0709 97.9874 79.1235 98.0092 80.1761L98.0561 80.1136H94.9332V76.9902L94.8926 77.0746Z" fill="#594A39"/>
<path d="M98.0404 77.0936V74.0889H100.982V76.8999L97.9873 77.0342L98.0404 77.0936Z" fill="#594A39"/>
<path d="M91.8228 77.0747C91.8228 76.0159 91.7947 74.9602 91.7822 73.9014L94.9051 74.0482V77.0747L94.952 77.0123H91.7885L91.8228 77.0747Z" fill="#594A39"/>
<path d="M63.7264 136.285V133.161H60.7939V130.007H76.2305C76.1836 130.969 76.1368 131.928 76.0868 133.012L73.0763 133.149V136.235L73.1263 136.182L63.7264 136.285Z" fill="#594A39"/>
<path d="M73.0482 139.383V148.6H60.7627V145.739H69.9347V142.487H67.0116V139.436H73.1013L73.0482 139.383Z" fill="#594A39"/>
<path d="M97.9875 139.383V142.419H94.8895V145.477H85.7051V142.628H91.8166V139.411L91.7666 139.464L98.0406 139.439L97.9875 139.383Z" fill="#594A39"/>
<path d="M51.2559 139.402C51.3058 138.434 51.3527 137.469 51.412 136.251H63.76C63.7132 137.216 63.6632 138.181 63.6039 139.402H51.2559Z" fill="#594A39"/>
<path d="M69.9847 161.259V154.938H67.0273V152.008H72.9609V161.066L69.941 161.209L69.9847 161.259Z" fill="#594A39"/>
<path d="M51.2559 148.753V142.484H57.3455V145.477L54.4069 145.62V148.744L51.2559 148.753Z" fill="#594A39"/>
<path d="M73.101 139.437C73.101 138.356 73.1009 137.272 73.1259 136.188L73.0759 136.242H79.1625V139.384H73.0479L73.101 139.437Z" fill="#594A39"/>
<path d="M76.3457 145.436V142.682H82.2574V145.436H76.3457Z" fill="#594A39"/>
<path d="M85.5807 130.013V133.167L82.592 133.027C82.539 131.999 82.4828 131.006 82.4297 130.013H85.5807Z" fill="#594A39"/>
<path d="M88.6969 133.13V136.285L85.5552 136.213L85.6115 136.266L85.5459 133.142L88.6969 133.13Z" fill="#594A39"/>
<path d="M85.555 136.213V139.23H82.6133V136.419L85.6081 136.285L85.555 136.213Z" fill="#594A39"/>
<path d="M88.6621 136.251H91.8162C91.8162 137.319 91.7819 138.391 91.7663 139.462L91.8162 139.409L88.8276 139.256C88.7714 138.237 88.7183 137.244 88.6621 136.251Z" fill="#594A39"/>
<path d="M98.0404 139.436V136.435H100.982V139.246L97.9873 139.38L98.0404 139.436Z" fill="#594A39"/>
<path d="M57.5272 151.87L54.5386 151.73C54.4824 150.705 54.4293 149.712 54.373 148.719L57.3617 148.859C57.4179 149.884 57.471 150.877 57.5272 151.87Z" fill="#594A39"/>
<path d="M94.9144 151.805H91.9414V148.872H94.8613V151.861L94.9144 151.805Z" fill="#594A39"/>
<path d="M57.5556 154.969C57.5338 153.926 57.5119 152.88 57.4932 151.846L60.4818 151.986C60.5349 153.011 60.5911 154.004 60.6442 154.997L57.5025 154.925L57.5556 154.969Z" fill="#594A39"/>
<path d="M94.8643 151.861H98.0059V155.047L98.0559 154.994L94.933 154.834V151.805L94.8643 151.861Z" fill="#594A39"/>
<path d="M63.7604 158.105L60.7717 157.964C60.7155 156.94 60.6625 155.946 60.6094 154.953L63.598 155.094C63.6511 156.118 63.7073 157.111 63.7604 158.105Z" fill="#594A39"/>
<path d="M66.8776 161.222H63.7266V158.07L66.7152 158.211C66.7589 159.235 66.8245 160.229 66.8776 161.222Z" fill="#594A39"/>
<path d="M98.0504 158.07C98.0067 159.026 97.9599 159.979 97.9099 161.059L94.8994 161.222C94.9431 160.266 94.99 159.31 95.04 158.233L98.0504 158.07Z" fill="#594A39"/>
<path d="M119.801 108.218H122.802V111.16H119.991C119.948 110.173 119.904 109.171 119.857 108.165L119.801 108.218Z" fill="#594A39"/>
<path d="M116.79 120.674H113.786V117.729H116.597C116.64 118.716 116.684 119.721 116.728 120.727L116.79 120.674Z" fill="#594A39"/>
<path d="M132.339 126.896V130.05L129.351 129.897V127.067L132.339 126.896Z" fill="#594A39"/>
<path d="M116.744 136.319V133.317H119.685V136.128L116.69 136.263L116.744 136.319Z" fill="#594A39"/>
<path d="M57.5023 154.916V157.921H54.5605V155.11L57.5554 154.978L57.5023 154.916Z" fill="#594A39"/>
<path d="M32.5527 83.2562L35.71 83.3125L35.6632 83.25V86.414L35.7256 86.3672H32.7183C32.662 85.2459 32.6089 84.2589 32.5527 83.2562Z" fill="#594A39"/>
<path d="M82.582 117.367V114.584H85.4207V117.367H82.582Z" fill="#594A39"/>
<path d="M35.5108 117.442H32.7471V114.631H35.5108V117.442Z" fill="#594A39"/>
<path d="M88.6969 130.047H85.5459V126.896L88.5345 127.036C88.5907 128.061 88.6438 129.054 88.6969 130.047Z" fill="#594A39"/>
<path d="M35.6703 80.1387H38.8213L38.7651 83.2964L38.8276 83.2496H35.6641L35.7109 83.312C35.6984 82.2532 35.6859 81.1975 35.6703 80.1387Z" fill="#594A39"/>
<path d="M82.5918 164.455H85.4024V167.294H82.5918V164.455Z" fill="#594A39"/>
<path d="M73.0762 83.2902V80.1387L76.0679 80.2886V83.1215L73.0762 83.2902Z" fill="#594A39"/>
<path d="M85.3745 67.5511H82.5889V64.7119H85.3745V67.5511Z" fill="#594A39"/>
<path d="M107.356 92.6484H119.886L119.839 92.5859V95.7093H113.593V98.8671L113.64 98.8202H110.479L110.526 98.8671V95.7187H107.356L107.4 95.7656V92.6016L107.356 92.6484Z" fill="#594A39"/>
<path d="M122.99 89.4902C122.99 90.5491 122.961 91.6048 122.949 92.6636L122.993 92.6011H119.829L119.876 92.6636V89.662L122.99 89.4902Z" fill="#594A39"/>
<path d="M54.373 58.334H63.7605V61.4386H66.8834V67.7042L63.8886 67.5574C63.8355 66.561 63.7886 65.6115 63.7355 64.5308H60.6126L60.6595 64.5933V61.5198H57.496V64.5808L57.5397 64.5183L54.3824 64.5745L54.373 58.334Z" fill="#594A39"/>
<path d="M57.4925 67.7046L57.53 64.5312L57.4863 64.5937H60.6498L60.603 64.5312V67.5328L57.4925 67.7046Z" fill="#594A39"/>
<path d="M132.305 92.6417V89.4902L135.296 89.6402V92.4731L132.305 92.6417Z" fill="#594A39"/>
<path d="M141.667 86.3359V89.3406H138.726V86.5296L141.72 86.3984L141.667 86.3359Z" fill="#594A39"/>
<path d="M135.284 117.442H132.474V114.603H135.284V117.442Z" fill="#594A39"/>
<path d="M135.275 167.341H132.489V164.502H135.275V167.341Z" fill="#594A39"/>
<path d="M110.479 161.222V158.07H113.63V161.222H110.479Z" fill="#594A39"/>
<path d="M110.52 158.105H107.356C107.4 157.149 107.444 156.193 107.497 155.116L110.507 154.953L110.52 158.105Z" fill="#594A39"/>
<path d="M20.2646 52.1934H29.2649V61.2762H20.2646V52.1934Z" fill="#594A39"/>
<path d="M147.772 52.2754V61.3051H138.744V52.2754H147.772Z" fill="#594A39"/>
<path d="M29.309 179.779H20.2744V170.721H29.309V179.779Z" fill="#594A39"/>
<path d="M38.7646 83.2969L41.9407 83.2562C41.8938 84.212 41.8501 85.1709 41.7939 86.3796H38.7646L38.8271 86.4265V83.25L38.7646 83.2969Z" fill="#594A39"/>
</g>
<defs>
<clipPath id="clip0_2040_1099">
<rect width="140" height="140" fill="white" transform="translate(14 46)"/>
</clipPath>
</defs>
</svg>
