<svg width="125" height="163" viewBox="0 0 125 163" fill="none" xmlns="http://www.w3.org/2000/svg">
<rect x="1.5" y="1.5" width="122" height="160" rx="8.5" fill="white"/>
<rect x="1.5" y="1.5" width="122" height="160" rx="8.5" stroke="#E9E3D8" stroke-width="3"/>
<path d="M25.2594 26.7844L23.6816 27.2828C23.6383 26.9577 23.5735 26.5677 23.487 26.1777C19.3804 26.7844 18.6888 26.9577 18.2565 27.1744C18.1484 26.7627 17.8458 25.8093 17.6297 25.2893C18.1052 25.1593 18.6023 24.6609 19.2723 23.8808C19.5533 23.5341 20.1585 22.7757 20.8285 21.779C18.9049 22.0173 18.4294 22.1473 18.1052 22.2557C17.9971 21.8873 17.7161 20.9772 17.5 20.5005C17.889 20.4139 18.2349 19.9588 18.6671 19.3304C19.0994 18.7021 20.4827 16.2969 21.2608 14L23.1196 14.7584C22.255 16.6436 21.1744 18.6154 20.072 20.1972L21.9524 20.0455C22.536 19.1354 23.098 18.1387 23.5303 17.1636L25.2594 18.2254C23.9841 20.5655 22.2983 22.9707 20.6124 24.9209L23.1628 24.5959C22.9899 23.9242 22.7954 23.2308 22.5793 22.6457L24.0706 22.2557C24.5893 23.7291 25.1081 25.636 25.2594 26.7844ZM18.5159 27.9762L20.0937 28.2579C19.8991 30.1863 19.5101 32.2665 19.0562 33.6316C18.7104 33.4366 17.9539 33.1983 17.5432 33.0683C18.0403 31.7248 18.3429 29.7746 18.5159 27.9762ZM20.6988 28.2145L22.147 27.9545C22.4063 29.4063 22.6225 31.2698 22.6657 32.5265L21.1311 32.8082C21.1095 31.5515 20.915 29.6446 20.6988 28.2145ZM22.7522 27.8028L24.0922 27.3694C24.5029 28.4095 24.9135 29.7313 25.0865 30.6197L23.6816 31.1181C23.5303 30.208 23.1412 28.8212 22.7522 27.8028ZM29.1931 25.5276L30.3602 25.9393C29.647 29.2329 27.8963 31.6165 25.6916 32.8949C25.4323 32.5049 24.9135 31.8332 24.5461 31.5081C26.0375 30.6847 27.3775 29.1246 28.1124 27.2394H25.7349V25.5926H28.8905L29.1931 25.5276ZM28.3718 20.8689V22.429H34.5101V20.8689H28.3718ZM28.3718 17.8787V19.4171H34.5101V17.8787H28.3718ZM35.6556 24.5742L37.147 25.8093C36.1744 26.6544 35.1153 27.5645 34.2075 28.2362C35.0937 29.623 36.2392 30.7714 37.5576 31.4648C37.1254 31.8115 36.5418 32.5482 36.2392 33.0466C34.7695 32.0932 33.5375 30.5547 32.6081 28.7346V31.8332C32.6081 32.7866 32.4135 33.3283 31.7867 33.6316C31.1599 33.935 30.1873 33.9567 28.8256 33.9567C28.7608 33.4149 28.5014 32.6132 28.2637 32.1148C29.1715 32.1582 30.0793 32.1582 30.3386 32.1365C30.6196 32.1148 30.6844 32.0498 30.6844 31.8115V24.0108H26.4914V16.3185H29.6902C29.9712 15.5818 30.2305 14.6934 30.3818 14.0217L32.6513 14.4767C32.3487 15.1051 32.0461 15.7551 31.7219 16.3185H36.4769V24.0108H32.6081V24.7692C32.8458 25.506 33.1052 26.221 33.451 26.8927C34.2507 26.156 35.0937 25.2459 35.6556 24.5742Z" fill="#B8C318"/>
<path d="M51.2824 30.8581H60.5764V32.8949H41.232V30.8581H49.121V14.3467H51.2824V20.7822H59.085V22.7974H51.2824V30.8581Z" fill="#B8C318"/>
<path d="M75.2089 26.2644H80.6988V23.4041H75.2089V26.2644ZM67.7954 26.2644H73.134V23.4041H67.7954V26.2644ZM73.134 18.8321H67.7954V21.5406H73.134V18.8321ZM80.6988 18.8321H75.2089V21.5406H80.6988V18.8321ZM75.2089 16.9036H82.7738V29.2763H80.6988V28.1928H75.2089V33.935H73.134V28.1928H67.7954V29.3846H65.8069V16.9036H73.134V14.065H75.2089V16.9036Z" fill="#B8C318"/>
<path d="M107.241 16.7952V18.442H100.908V16.7952H103.242C103.004 16.0802 102.659 15.2784 102.313 14.6284L103.977 14.13C104.409 14.9534 104.885 15.9935 105.187 16.7952H107.241ZM103.501 22.169L102.075 22.559C102.053 21.6273 101.794 20.1538 101.448 19.0271L102.788 18.6804C103.177 19.7855 103.48 21.2156 103.501 22.169ZM94.0562 16.8386V18.4854H87.8746V16.8386H90.1657C89.928 16.1668 89.6037 15.3868 89.2795 14.7801L90.9438 14.2817C91.3977 15.0618 91.83 16.0802 92.0893 16.8386H94.0562ZM90.3602 22.169L88.9121 22.559C88.9121 21.649 88.6744 20.2189 88.3501 19.1138L89.6902 18.7671C90.0576 19.8288 90.317 21.2373 90.3602 22.169ZM93.7752 28.1712H91.7651C91.6138 30.208 90.9654 32.4615 89.0634 34C88.804 33.61 88.2637 33.0033 87.8746 32.6999C89.4308 31.5731 89.8631 29.7746 89.9712 28.1712H87.9827V26.5244H90.0144V24.2709H87.7234V22.6241H91.1167C91.4409 21.4973 91.83 19.8288 91.9813 18.6587L93.5375 18.9837C93.1917 20.1972 92.8242 21.5623 92.5 22.6241H94.1427V24.2709H91.8084V26.5244H93.7752V28.1712ZM100.065 18.8537V19.6988C99.9352 28.9079 99.8271 31.8982 99.33 32.7216C99.0058 33.2633 98.6599 33.4583 98.1196 33.545C97.6873 33.6316 97.0605 33.61 96.3905 33.5883C96.3689 33.1116 96.196 32.3965 95.9582 31.9415C96.5418 31.9848 97.0605 31.9848 97.3415 31.9848C97.5793 31.9848 97.7305 31.9198 97.8818 31.6381C98.2061 31.0748 98.3141 28.4095 98.4222 20.5872H97.1902C96.9525 26.156 96.2824 30.6414 94.121 33.9783C93.9049 33.675 93.17 33.0683 92.8242 32.7866C94.8127 29.948 95.4611 25.7226 95.6556 20.5872H94.4885V18.8537H95.6989C95.7205 17.3153 95.7205 15.7118 95.7205 14.065H97.2983C97.2983 15.7335 97.2767 17.3153 97.2334 18.8537H100.065ZM107.5 24.2925H105.101V26.8494H107.241V28.4962H105.101V33.8917H103.285V28.4962H101.21V26.8494H103.285V24.2925H100.821V22.6457H104.409C104.755 21.4973 105.144 19.7638 105.295 18.5937L106.83 18.9404C106.549 20.1538 106.182 21.5623 105.857 22.6457H107.5V24.2925Z" fill="#B8C318"/>
<path d="M15.9796 46H14V47.9796H15.9796V46Z" fill="#594A39"/>
<path d="M17.9591 46H15.9795V47.9796H17.9591V46Z" fill="#594A39"/>
<path d="M19.9386 46H17.959V47.9796H19.9386V46Z" fill="#594A39"/>
<path d="M21.9181 46H19.9385V47.9796H21.9181V46Z" fill="#594A39"/>
<path d="M23.8976 46H21.918V47.9796H23.8976V46Z" fill="#594A39"/>
<path d="M25.878 46H23.8984V47.9796H25.878V46Z" fill="#594A39"/>
<path d="M27.8575 46H25.8779V47.9796H27.8575V46Z" fill="#594A39"/>
<path d="M33.796 46H31.8164V47.9796H33.796V46Z" fill="#594A39"/>
<path d="M35.7755 46H33.7959V47.9796H35.7755V46Z" fill="#594A39"/>
<path d="M41.714 46H39.7344V47.9796H41.714V46Z" fill="#594A39"/>
<path d="M45.6739 46H43.6943V47.9796H45.6739V46Z" fill="#594A39"/>
<path d="M47.6534 46H45.6738V47.9796H47.6534V46Z" fill="#594A39"/>
<path d="M61.5099 46H59.5303V47.9796H61.5099V46Z" fill="#594A39"/>
<path d="M63.4894 46H61.5098V47.9796H63.4894V46Z" fill="#594A39"/>
<path d="M65.4698 46H63.4902V47.9796H65.4698V46Z" fill="#594A39"/>
<path d="M73.3878 46H71.4082V47.9796H73.3878V46Z" fill="#594A39"/>
<path d="M75.3673 46H73.3877V47.9796H75.3673V46Z" fill="#594A39"/>
<path d="M77.3468 46H75.3672V47.9796H77.3468V46Z" fill="#594A39"/>
<path d="M95.1632 46H93.1836V47.9796H95.1632V46Z" fill="#594A39"/>
<path d="M99.1222 46H97.1426V47.9796H99.1222V46Z" fill="#594A39"/>
<path d="M101.102 46H99.1221V47.9796H101.102V46Z" fill="#594A39"/>
<path d="M103.081 46H101.102V47.9796H103.081V46Z" fill="#594A39"/>
<path d="M105.062 46H103.082V47.9796H105.062V46Z" fill="#594A39"/>
<path d="M107.041 46H105.062V47.9796H107.041V46Z" fill="#594A39"/>
<path d="M109.021 46H107.041V47.9796H109.021V46Z" fill="#594A39"/>
<path d="M111 46H109.021V47.9796H111V46Z" fill="#594A39"/>
<path d="M15.9796 47.9795H14V49.9591H15.9796V47.9795Z" fill="#594A39"/>
<path d="M27.8575 47.9795H25.8779V49.9591H27.8575V47.9795Z" fill="#594A39"/>
<path d="M33.796 47.9795H31.8164V49.9591H33.796V47.9795Z" fill="#594A39"/>
<path d="M43.6935 47.9795H41.7139V49.9591H43.6935V47.9795Z" fill="#594A39"/>
<path d="M45.6739 47.9795H43.6943V49.9591H45.6739V47.9795Z" fill="#594A39"/>
<path d="M47.6534 47.9795H45.6738V49.9591H47.6534V47.9795Z" fill="#594A39"/>
<path d="M49.6329 47.9795H47.6533V49.9591H49.6329V47.9795Z" fill="#594A39"/>
<path d="M51.6124 47.9795H49.6328V49.9591H51.6124V47.9795Z" fill="#594A39"/>
<path d="M59.5304 47.9795H57.5508V49.9591H59.5304V47.9795Z" fill="#594A39"/>
<path d="M67.4493 47.9795H65.4697V49.9591H67.4493V47.9795Z" fill="#594A39"/>
<path d="M69.4288 47.9795H67.4492V49.9591H69.4288V47.9795Z" fill="#594A39"/>
<path d="M73.3878 47.9795H71.4082V49.9591H73.3878V47.9795Z" fill="#594A39"/>
<path d="M81.3058 47.9795H79.3262V49.9591H81.3058V47.9795Z" fill="#594A39"/>
<path d="M83.2853 47.9795H81.3057V49.9591H83.2853V47.9795Z" fill="#594A39"/>
<path d="M87.2452 47.9795H85.2656V49.9591H87.2452V47.9795Z" fill="#594A39"/>
<path d="M89.2247 47.9795H87.2451V49.9591H89.2247V47.9795Z" fill="#594A39"/>
<path d="M91.2042 47.9795H89.2246V49.9591H91.2042V47.9795Z" fill="#594A39"/>
<path d="M93.1837 47.9795H91.2041V49.9591H93.1837V47.9795Z" fill="#594A39"/>
<path d="M95.1632 47.9795H93.1836V49.9591H95.1632V47.9795Z" fill="#594A39"/>
<path d="M99.1222 47.9795H97.1426V49.9591H99.1222V47.9795Z" fill="#594A39"/>
<path d="M111 47.9795H109.021V49.9591H111V47.9795Z" fill="#594A39"/>
<path d="M15.9796 49.959H14V51.9386H15.9796V49.959Z" fill="#594A39"/>
<path d="M19.9386 49.959H17.959V51.9386H19.9386V49.959Z" fill="#594A39"/>
<path d="M21.9181 49.959H19.9385V51.9386H21.9181V49.959Z" fill="#594A39"/>
<path d="M23.8976 49.959H21.918V51.9386H23.8976V49.959Z" fill="#594A39"/>
<path d="M27.8575 49.959H25.8779V51.9386H27.8575V49.959Z" fill="#594A39"/>
<path d="M31.8165 49.959H29.8369V51.9386H31.8165V49.959Z" fill="#594A39"/>
<path d="M41.714 49.959H39.7344V51.9386H41.714V49.959Z" fill="#594A39"/>
<path d="M45.6739 49.959H43.6943V51.9386H45.6739V49.959Z" fill="#594A39"/>
<path d="M47.6534 49.959H45.6738V51.9386H47.6534V49.959Z" fill="#594A39"/>
<path d="M51.6124 49.959H49.6328V51.9386H51.6124V49.959Z" fill="#594A39"/>
<path d="M57.5509 49.959H55.5713V51.9386H57.5509V49.959Z" fill="#594A39"/>
<path d="M65.4698 49.959H63.4902V51.9386H65.4698V49.959Z" fill="#594A39"/>
<path d="M69.4288 49.959H67.4492V51.9386H69.4288V49.959Z" fill="#594A39"/>
<path d="M77.3468 49.959H75.3672V51.9386H77.3468V49.959Z" fill="#594A39"/>
<path d="M79.3263 49.959H77.3467V51.9386H79.3263V49.959Z" fill="#594A39"/>
<path d="M81.3058 49.959H79.3262V51.9386H81.3058V49.959Z" fill="#594A39"/>
<path d="M93.1837 49.959H91.2041V51.9386H93.1837V49.959Z" fill="#594A39"/>
<path d="M95.1632 49.959H93.1836V51.9386H95.1632V49.959Z" fill="#594A39"/>
<path d="M99.1222 49.959H97.1426V51.9386H99.1222V49.959Z" fill="#594A39"/>
<path d="M103.081 49.959H101.102V51.9386H103.081V49.959Z" fill="#594A39"/>
<path d="M105.062 49.959H103.082V51.9386H105.062V49.959Z" fill="#594A39"/>
<path d="M107.041 49.959H105.062V51.9386H107.041V49.959Z" fill="#594A39"/>
<path d="M111 49.959H109.021V51.9386H111V49.959Z" fill="#594A39"/>
<path d="M15.9796 51.9385H14V53.9181H15.9796V51.9385Z" fill="#594A39"/>
<path d="M19.9386 51.9385H17.959V53.9181H19.9386V51.9385Z" fill="#594A39"/>
<path d="M21.9181 51.9385H19.9385V53.9181H21.9181V51.9385Z" fill="#594A39"/>
<path d="M23.8976 51.9385H21.918V53.9181H23.8976V51.9385Z" fill="#594A39"/>
<path d="M27.8575 51.9385H25.8779V53.9181H27.8575V51.9385Z" fill="#594A39"/>
<path d="M31.8165 51.9385H29.8369V53.9181H31.8165V51.9385Z" fill="#594A39"/>
<path d="M41.714 51.9385H39.7344V53.9181H41.714V51.9385Z" fill="#594A39"/>
<path d="M43.6935 51.9385H41.7139V53.9181H43.6935V51.9385Z" fill="#594A39"/>
<path d="M49.6329 51.9385H47.6533V53.9181H49.6329V51.9385Z" fill="#594A39"/>
<path d="M53.5919 51.9385H51.6123V53.9181H53.5919V51.9385Z" fill="#594A39"/>
<path d="M57.5509 51.9385H55.5713V53.9181H57.5509V51.9385Z" fill="#594A39"/>
<path d="M61.5099 51.9385H59.5303V53.9181H61.5099V51.9385Z" fill="#594A39"/>
<path d="M63.4894 51.9385H61.5098V53.9181H63.4894V51.9385Z" fill="#594A39"/>
<path d="M73.3878 51.9385H71.4082V53.9181H73.3878V51.9385Z" fill="#594A39"/>
<path d="M77.3468 51.9385H75.3672V53.9181H77.3468V51.9385Z" fill="#594A39"/>
<path d="M81.3058 51.9385H79.3262V53.9181H81.3058V51.9385Z" fill="#594A39"/>
<path d="M83.2853 51.9385H81.3057V53.9181H83.2853V51.9385Z" fill="#594A39"/>
<path d="M85.2657 51.9385H83.2861V53.9181H85.2657V51.9385Z" fill="#594A39"/>
<path d="M87.2452 51.9385H85.2656V53.9181H87.2452V51.9385Z" fill="#594A39"/>
<path d="M89.2247 51.9385H87.2451V53.9181H89.2247V51.9385Z" fill="#594A39"/>
<path d="M93.1837 51.9385H91.2041V53.9181H93.1837V51.9385Z" fill="#594A39"/>
<path d="M99.1222 51.9385H97.1426V53.9181H99.1222V51.9385Z" fill="#594A39"/>
<path d="M103.081 51.9385H101.102V53.9181H103.081V51.9385Z" fill="#594A39"/>
<path d="M105.062 51.9385H103.082V53.9181H105.062V51.9385Z" fill="#594A39"/>
<path d="M107.041 51.9385H105.062V53.9181H107.041V51.9385Z" fill="#594A39"/>
<path d="M111 51.9385H109.021V53.9181H111V51.9385Z" fill="#594A39"/>
<path d="M15.9796 53.918H14V55.8976H15.9796V53.918Z" fill="#594A39"/>
<path d="M19.9386 53.918H17.959V55.8976H19.9386V53.918Z" fill="#594A39"/>
<path d="M21.9181 53.918H19.9385V55.8976H21.9181V53.918Z" fill="#594A39"/>
<path d="M23.8976 53.918H21.918V55.8976H23.8976V53.918Z" fill="#594A39"/>
<path d="M27.8575 53.918H25.8779V55.8976H27.8575V53.918Z" fill="#594A39"/>
<path d="M31.8165 53.918H29.8369V55.8976H31.8165V53.918Z" fill="#594A39"/>
<path d="M35.7755 53.918H33.7959V55.8976H35.7755V53.918Z" fill="#594A39"/>
<path d="M37.755 53.918H35.7754V55.8976H37.755V53.918Z" fill="#594A39"/>
<path d="M43.6935 53.918H41.7139V55.8976H43.6935V53.918Z" fill="#594A39"/>
<path d="M45.6739 53.918H43.6943V55.8976H45.6739V53.918Z" fill="#594A39"/>
<path d="M49.6329 53.918H47.6533V55.8976H49.6329V53.918Z" fill="#594A39"/>
<path d="M51.6124 53.918H49.6328V55.8976H51.6124V53.918Z" fill="#594A39"/>
<path d="M57.5509 53.918H55.5713V55.8976H57.5509V53.918Z" fill="#594A39"/>
<path d="M59.5304 53.918H57.5508V55.8976H59.5304V53.918Z" fill="#594A39"/>
<path d="M61.5099 53.918H59.5303V55.8976H61.5099V53.918Z" fill="#594A39"/>
<path d="M63.4894 53.918H61.5098V55.8976H63.4894V53.918Z" fill="#594A39"/>
<path d="M65.4698 53.918H63.4902V55.8976H65.4698V53.918Z" fill="#594A39"/>
<path d="M67.4493 53.918H65.4697V55.8976H67.4493V53.918Z" fill="#594A39"/>
<path d="M71.4083 53.918H69.4287V55.8976H71.4083V53.918Z" fill="#594A39"/>
<path d="M75.3673 53.918H73.3877V55.8976H75.3673V53.918Z" fill="#594A39"/>
<path d="M79.3263 53.918H77.3467V55.8976H79.3263V53.918Z" fill="#594A39"/>
<path d="M85.2657 53.918H83.2861V55.8976H85.2657V53.918Z" fill="#594A39"/>
<path d="M87.2452 53.918H85.2656V55.8976H87.2452V53.918Z" fill="#594A39"/>
<path d="M89.2247 53.918H87.2451V55.8976H89.2247V53.918Z" fill="#594A39"/>
<path d="M99.1222 53.918H97.1426V55.8976H99.1222V53.918Z" fill="#594A39"/>
<path d="M103.081 53.918H101.102V55.8976H103.081V53.918Z" fill="#594A39"/>
<path d="M105.062 53.918H103.082V55.8976H105.062V53.918Z" fill="#594A39"/>
<path d="M107.041 53.918H105.062V55.8976H107.041V53.918Z" fill="#594A39"/>
<path d="M111 53.918H109.021V55.8976H111V53.918Z" fill="#594A39"/>
<path d="M15.9796 55.8984H14V57.878H15.9796V55.8984Z" fill="#594A39"/>
<path d="M27.8575 55.8984H25.8779V57.878H27.8575V55.8984Z" fill="#594A39"/>
<path d="M31.8165 55.8984H29.8369V57.878H31.8165V55.8984Z" fill="#594A39"/>
<path d="M35.7755 55.8984H33.7959V57.878H35.7755V55.8984Z" fill="#594A39"/>
<path d="M37.755 55.8984H35.7754V57.878H37.755V55.8984Z" fill="#594A39"/>
<path d="M45.6739 55.8984H43.6943V57.878H45.6739V55.8984Z" fill="#594A39"/>
<path d="M47.6534 55.8984H45.6738V57.878H47.6534V55.8984Z" fill="#594A39"/>
<path d="M53.5919 55.8984H51.6123V57.878H53.5919V55.8984Z" fill="#594A39"/>
<path d="M57.5509 55.8984H55.5713V57.878H57.5509V55.8984Z" fill="#594A39"/>
<path d="M59.5304 55.8984H57.5508V57.878H59.5304V55.8984Z" fill="#594A39"/>
<path d="M67.4493 55.8984H65.4697V57.878H67.4493V55.8984Z" fill="#594A39"/>
<path d="M69.4288 55.8984H67.4492V57.878H69.4288V55.8984Z" fill="#594A39"/>
<path d="M71.4083 55.8984H69.4287V57.878H71.4083V55.8984Z" fill="#594A39"/>
<path d="M83.2853 55.8984H81.3057V57.878H83.2853V55.8984Z" fill="#594A39"/>
<path d="M87.2452 55.8984H85.2656V57.878H87.2452V55.8984Z" fill="#594A39"/>
<path d="M89.2247 55.8984H87.2451V57.878H89.2247V55.8984Z" fill="#594A39"/>
<path d="M91.2042 55.8984H89.2246V57.878H91.2042V55.8984Z" fill="#594A39"/>
<path d="M99.1222 55.8984H97.1426V57.878H99.1222V55.8984Z" fill="#594A39"/>
<path d="M111 55.8984H109.021V57.878H111V55.8984Z" fill="#594A39"/>
<path d="M15.9796 57.8779H14V59.8575H15.9796V57.8779Z" fill="#594A39"/>
<path d="M17.9591 57.8779H15.9795V59.8575H17.9591V57.8779Z" fill="#594A39"/>
<path d="M19.9386 57.8779H17.959V59.8575H19.9386V57.8779Z" fill="#594A39"/>
<path d="M21.9181 57.8779H19.9385V59.8575H21.9181V57.8779Z" fill="#594A39"/>
<path d="M23.8976 57.8779H21.918V59.8575H23.8976V57.8779Z" fill="#594A39"/>
<path d="M25.878 57.8779H23.8984V59.8575H25.878V57.8779Z" fill="#594A39"/>
<path d="M27.8575 57.8779H25.8779V59.8575H27.8575V57.8779Z" fill="#594A39"/>
<path d="M31.8165 57.8779H29.8369V59.8575H31.8165V57.8779Z" fill="#594A39"/>
<path d="M35.7755 57.8779H33.7959V59.8575H35.7755V57.8779Z" fill="#594A39"/>
<path d="M39.7345 57.8779H37.7549V59.8575H39.7345V57.8779Z" fill="#594A39"/>
<path d="M43.6935 57.8779H41.7139V59.8575H43.6935V57.8779Z" fill="#594A39"/>
<path d="M47.6534 57.8779H45.6738V59.8575H47.6534V57.8779Z" fill="#594A39"/>
<path d="M51.6124 57.8779H49.6328V59.8575H51.6124V57.8779Z" fill="#594A39"/>
<path d="M55.5714 57.8779H53.5918V59.8575H55.5714V57.8779Z" fill="#594A39"/>
<path d="M59.5304 57.8779H57.5508V59.8575H59.5304V57.8779Z" fill="#594A39"/>
<path d="M63.4894 57.8779H61.5098V59.8575H63.4894V57.8779Z" fill="#594A39"/>
<path d="M67.4493 57.8779H65.4697V59.8575H67.4493V57.8779Z" fill="#594A39"/>
<path d="M71.4083 57.8779H69.4287V59.8575H71.4083V57.8779Z" fill="#594A39"/>
<path d="M75.3673 57.8779H73.3877V59.8575H75.3673V57.8779Z" fill="#594A39"/>
<path d="M79.3263 57.8779H77.3467V59.8575H79.3263V57.8779Z" fill="#594A39"/>
<path d="M83.2853 57.8779H81.3057V59.8575H83.2853V57.8779Z" fill="#594A39"/>
<path d="M87.2452 57.8779H85.2656V59.8575H87.2452V57.8779Z" fill="#594A39"/>
<path d="M91.2042 57.8779H89.2246V59.8575H91.2042V57.8779Z" fill="#594A39"/>
<path d="M95.1632 57.8779H93.1836V59.8575H95.1632V57.8779Z" fill="#594A39"/>
<path d="M99.1222 57.8779H97.1426V59.8575H99.1222V57.8779Z" fill="#594A39"/>
<path d="M101.102 57.8779H99.1221V59.8575H101.102V57.8779Z" fill="#594A39"/>
<path d="M103.081 57.8779H101.102V59.8575H103.081V57.8779Z" fill="#594A39"/>
<path d="M105.062 57.8779H103.082V59.8575H105.062V57.8779Z" fill="#594A39"/>
<path d="M107.041 57.8779H105.062V59.8575H107.041V57.8779Z" fill="#594A39"/>
<path d="M109.021 57.8779H107.041V59.8575H109.021V57.8779Z" fill="#594A39"/>
<path d="M111 57.8779H109.021V59.8575H111V57.8779Z" fill="#594A39"/>
<path d="M31.8165 59.8574H29.8369V61.837H31.8165V59.8574Z" fill="#594A39"/>
<path d="M33.796 59.8574H31.8164V61.837H33.796V59.8574Z" fill="#594A39"/>
<path d="M35.7755 59.8574H33.7959V61.837H35.7755V59.8574Z" fill="#594A39"/>
<path d="M39.7345 59.8574H37.7549V61.837H39.7345V59.8574Z" fill="#594A39"/>
<path d="M45.6739 59.8574H43.6943V61.837H45.6739V59.8574Z" fill="#594A39"/>
<path d="M47.6534 59.8574H45.6738V61.837H47.6534V59.8574Z" fill="#594A39"/>
<path d="M49.6329 59.8574H47.6533V61.837H49.6329V59.8574Z" fill="#594A39"/>
<path d="M51.6124 59.8574H49.6328V61.837H51.6124V59.8574Z" fill="#594A39"/>
<path d="M59.5304 59.8574H57.5508V61.837H59.5304V59.8574Z" fill="#594A39"/>
<path d="M67.4493 59.8574H65.4697V61.837H67.4493V59.8574Z" fill="#594A39"/>
<path d="M71.4083 59.8574H69.4287V61.837H71.4083V59.8574Z" fill="#594A39"/>
<path d="M75.3673 59.8574H73.3877V61.837H75.3673V59.8574Z" fill="#594A39"/>
<path d="M79.3263 59.8574H77.3467V61.837H79.3263V59.8574Z" fill="#594A39"/>
<path d="M85.2657 59.8574H83.2861V61.837H85.2657V59.8574Z" fill="#594A39"/>
<path d="M89.2247 59.8574H87.2451V61.837H89.2247V59.8574Z" fill="#594A39"/>
<path d="M91.2042 59.8574H89.2246V61.837H91.2042V59.8574Z" fill="#594A39"/>
<path d="M93.1837 59.8574H91.2041V61.837H93.1837V59.8574Z" fill="#594A39"/>
<path d="M15.9796 61.8369H14V63.8165H15.9796V61.8369Z" fill="#594A39"/>
<path d="M19.9386 61.8369H17.959V63.8165H19.9386V61.8369Z" fill="#594A39"/>
<path d="M21.9181 61.8369H19.9385V63.8165H21.9181V61.8369Z" fill="#594A39"/>
<path d="M23.8976 61.8369H21.918V63.8165H23.8976V61.8369Z" fill="#594A39"/>
<path d="M25.878 61.8369H23.8984V63.8165H25.878V61.8369Z" fill="#594A39"/>
<path d="M27.8575 61.8369H25.8779V63.8165H27.8575V61.8369Z" fill="#594A39"/>
<path d="M35.7755 61.8369H33.7959V63.8165H35.7755V61.8369Z" fill="#594A39"/>
<path d="M41.714 61.8369H39.7344V63.8165H41.714V61.8369Z" fill="#594A39"/>
<path d="M45.6739 61.8369H43.6943V63.8165H45.6739V61.8369Z" fill="#594A39"/>
<path d="M49.6329 61.8369H47.6533V63.8165H49.6329V61.8369Z" fill="#594A39"/>
<path d="M51.6124 61.8369H49.6328V63.8165H51.6124V61.8369Z" fill="#594A39"/>
<path d="M55.5714 61.8369H53.5918V63.8165H55.5714V61.8369Z" fill="#594A39"/>
<path d="M59.5304 61.8369H57.5508V63.8165H59.5304V61.8369Z" fill="#594A39"/>
<path d="M61.5099 61.8369H59.5303V63.8165H61.5099V61.8369Z" fill="#594A39"/>
<path d="M63.4894 61.8369H61.5098V63.8165H63.4894V61.8369Z" fill="#594A39"/>
<path d="M65.4698 61.8369H63.4902V63.8165H65.4698V61.8369Z" fill="#594A39"/>
<path d="M67.4493 61.8369H65.4697V63.8165H67.4493V61.8369Z" fill="#594A39"/>
<path d="M69.4288 61.8369H67.4492V63.8165H69.4288V61.8369Z" fill="#594A39"/>
<path d="M73.3878 61.8369H71.4082V63.8165H73.3878V61.8369Z" fill="#594A39"/>
<path d="M77.3468 61.8369H75.3672V63.8165H77.3468V61.8369Z" fill="#594A39"/>
<path d="M81.3058 61.8369H79.3262V63.8165H81.3058V61.8369Z" fill="#594A39"/>
<path d="M85.2657 61.8369H83.2861V63.8165H85.2657V61.8369Z" fill="#594A39"/>
<path d="M87.2452 61.8369H85.2656V63.8165H87.2452V61.8369Z" fill="#594A39"/>
<path d="M89.2247 61.8369H87.2451V63.8165H89.2247V61.8369Z" fill="#594A39"/>
<path d="M93.1837 61.8369H91.2041V63.8165H93.1837V61.8369Z" fill="#594A39"/>
<path d="M95.1632 61.8369H93.1836V63.8165H95.1632V61.8369Z" fill="#594A39"/>
<path d="M99.1222 61.8369H97.1426V63.8165H99.1222V61.8369Z" fill="#594A39"/>
<path d="M101.102 61.8369H99.1221V63.8165H101.102V61.8369Z" fill="#594A39"/>
<path d="M103.081 61.8369H101.102V63.8165H103.081V61.8369Z" fill="#594A39"/>
<path d="M105.062 61.8369H103.082V63.8165H105.062V61.8369Z" fill="#594A39"/>
<path d="M107.041 61.8369H105.062V63.8165H107.041V61.8369Z" fill="#594A39"/>
<path d="M17.9591 63.8164H15.9795V65.796H17.9591V63.8164Z" fill="#594A39"/>
<path d="M21.9181 63.8164H19.9385V65.796H21.9181V63.8164Z" fill="#594A39"/>
<path d="M23.8976 63.8164H21.918V65.796H23.8976V63.8164Z" fill="#594A39"/>
<path d="M29.837 63.8164H27.8574V65.796H29.837V63.8164Z" fill="#594A39"/>
<path d="M49.6329 63.8164H47.6533V65.796H49.6329V63.8164Z" fill="#594A39"/>
<path d="M51.6124 63.8164H49.6328V65.796H51.6124V63.8164Z" fill="#594A39"/>
<path d="M53.5919 63.8164H51.6123V65.796H53.5919V63.8164Z" fill="#594A39"/>
<path d="M61.5099 63.8164H59.5303V65.796H61.5099V63.8164Z" fill="#594A39"/>
<path d="M63.4894 63.8164H61.5098V65.796H63.4894V63.8164Z" fill="#594A39"/>
<path d="M65.4698 63.8164H63.4902V65.796H65.4698V63.8164Z" fill="#594A39"/>
<path d="M73.3878 63.8164H71.4082V65.796H73.3878V63.8164Z" fill="#594A39"/>
<path d="M75.3673 63.8164H73.3877V65.796H75.3673V63.8164Z" fill="#594A39"/>
<path d="M79.3263 63.8164H77.3467V65.796H79.3263V63.8164Z" fill="#594A39"/>
<path d="M85.2657 63.8164H83.2861V65.796H85.2657V63.8164Z" fill="#594A39"/>
<path d="M87.2452 63.8164H85.2656V65.796H87.2452V63.8164Z" fill="#594A39"/>
<path d="M89.2247 63.8164H87.2451V65.796H89.2247V63.8164Z" fill="#594A39"/>
<path d="M99.1222 63.8164H97.1426V65.796H99.1222V63.8164Z" fill="#594A39"/>
<path d="M15.9796 65.7959H14V67.7755H15.9796V65.7959Z" fill="#594A39"/>
<path d="M17.9591 65.7959H15.9795V67.7755H17.9591V65.7959Z" fill="#594A39"/>
<path d="M23.8976 65.7959H21.918V67.7755H23.8976V65.7959Z" fill="#594A39"/>
<path d="M27.8575 65.7959H25.8779V67.7755H27.8575V65.7959Z" fill="#594A39"/>
<path d="M29.837 65.7959H27.8574V67.7755H29.837V65.7959Z" fill="#594A39"/>
<path d="M33.796 65.7959H31.8164V67.7755H33.796V65.7959Z" fill="#594A39"/>
<path d="M35.7755 65.7959H33.7959V67.7755H35.7755V65.7959Z" fill="#594A39"/>
<path d="M39.7345 65.7959H37.7549V67.7755H39.7345V65.7959Z" fill="#594A39"/>
<path d="M41.714 65.7959H39.7344V67.7755H41.714V65.7959Z" fill="#594A39"/>
<path d="M49.6329 65.7959H47.6533V67.7755H49.6329V65.7959Z" fill="#594A39"/>
<path d="M53.5919 65.7959H51.6123V67.7755H53.5919V65.7959Z" fill="#594A39"/>
<path d="M65.4698 65.7959H63.4902V67.7755H65.4698V65.7959Z" fill="#594A39"/>
<path d="M67.4493 65.7959H65.4697V67.7755H67.4493V65.7959Z" fill="#594A39"/>
<path d="M77.3468 65.7959H75.3672V67.7755H77.3468V65.7959Z" fill="#594A39"/>
<path d="M81.3058 65.7959H79.3262V67.7755H81.3058V65.7959Z" fill="#594A39"/>
<path d="M93.1837 65.7959H91.2041V67.7755H93.1837V65.7959Z" fill="#594A39"/>
<path d="M95.1632 65.7959H93.1836V67.7755H95.1632V65.7959Z" fill="#594A39"/>
<path d="M101.102 65.7959H99.1221V67.7755H101.102V65.7959Z" fill="#594A39"/>
<path d="M105.062 65.7959H103.082V67.7755H105.062V65.7959Z" fill="#594A39"/>
<path d="M107.041 65.7959H105.062V67.7755H107.041V65.7959Z" fill="#594A39"/>
<path d="M109.021 65.7959H107.041V67.7755H109.021V65.7959Z" fill="#594A39"/>
<path d="M111 65.7959H109.021V67.7755H111V65.7959Z" fill="#594A39"/>
<path d="M15.9796 67.7754H14V69.755H15.9796V67.7754Z" fill="#594A39"/>
<path d="M23.8976 67.7754H21.918V69.755H23.8976V67.7754Z" fill="#594A39"/>
<path d="M29.837 67.7754H27.8574V69.755H29.837V67.7754Z" fill="#594A39"/>
<path d="M33.796 67.7754H31.8164V69.755H33.796V67.7754Z" fill="#594A39"/>
<path d="M43.6935 67.7754H41.7139V69.755H43.6935V67.7754Z" fill="#594A39"/>
<path d="M45.6739 67.7754H43.6943V69.755H45.6739V67.7754Z" fill="#594A39"/>
<path d="M53.5919 67.7754H51.6123V69.755H53.5919V67.7754Z" fill="#594A39"/>
<path d="M57.5509 67.7754H55.5713V69.755H57.5509V67.7754Z" fill="#594A39"/>
<path d="M65.4698 67.7754H63.4902V69.755H65.4698V67.7754Z" fill="#594A39"/>
<path d="M71.4083 67.7754H69.4287V69.755H71.4083V67.7754Z" fill="#594A39"/>
<path d="M75.3673 67.7754H73.3877V69.755H75.3673V67.7754Z" fill="#594A39"/>
<path d="M79.3263 67.7754H77.3467V69.755H79.3263V67.7754Z" fill="#594A39"/>
<path d="M83.2853 67.7754H81.3057V69.755H83.2853V67.7754Z" fill="#594A39"/>
<path d="M85.2657 67.7754H83.2861V69.755H85.2657V67.7754Z" fill="#594A39"/>
<path d="M93.1837 67.7754H91.2041V69.755H93.1837V67.7754Z" fill="#594A39"/>
<path d="M95.1632 67.7754H93.1836V69.755H95.1632V67.7754Z" fill="#594A39"/>
<path d="M101.102 67.7754H99.1221V69.755H101.102V67.7754Z" fill="#594A39"/>
<path d="M103.081 67.7754H101.102V69.755H103.081V67.7754Z" fill="#594A39"/>
<path d="M111 67.7754H109.021V69.755H111V67.7754Z" fill="#594A39"/>
<path d="M15.9796 69.7549H14V71.7345H15.9796V69.7549Z" fill="#594A39"/>
<path d="M23.8976 69.7549H21.918V71.7345H23.8976V69.7549Z" fill="#594A39"/>
<path d="M25.878 69.7549H23.8984V71.7345H25.878V69.7549Z" fill="#594A39"/>
<path d="M27.8575 69.7549H25.8779V71.7345H27.8575V69.7549Z" fill="#594A39"/>
<path d="M29.837 69.7549H27.8574V71.7345H29.837V69.7549Z" fill="#594A39"/>
<path d="M31.8165 69.7549H29.8369V71.7345H31.8165V69.7549Z" fill="#594A39"/>
<path d="M41.714 69.7549H39.7344V71.7345H41.714V69.7549Z" fill="#594A39"/>
<path d="M43.6935 69.7549H41.7139V71.7345H43.6935V69.7549Z" fill="#594A39"/>
<path d="M47.6534 69.7549H45.6738V71.7345H47.6534V69.7549Z" fill="#594A39"/>
<path d="M49.6329 69.7549H47.6533V71.7345H49.6329V69.7549Z" fill="#594A39"/>
<path d="M59.5304 69.7549H57.5508V71.7345H59.5304V69.7549Z" fill="#594A39"/>
<path d="M63.4894 69.7549H61.5098V71.7345H63.4894V69.7549Z" fill="#594A39"/>
<path d="M67.4493 69.7549H65.4697V71.7345H67.4493V69.7549Z" fill="#594A39"/>
<path d="M73.3878 69.7549H71.4082V71.7345H73.3878V69.7549Z" fill="#594A39"/>
<path d="M77.3468 69.7549H75.3672V71.7345H77.3468V69.7549Z" fill="#594A39"/>
<path d="M85.2657 69.7549H83.2861V71.7345H85.2657V69.7549Z" fill="#594A39"/>
<path d="M87.2452 69.7549H85.2656V71.7345H87.2452V69.7549Z" fill="#594A39"/>
<path d="M95.1632 69.7549H93.1836V71.7345H95.1632V69.7549Z" fill="#594A39"/>
<path d="M101.102 69.7549H99.1221V71.7345H101.102V69.7549Z" fill="#594A39"/>
<path d="M105.062 69.7549H103.082V71.7345H105.062V69.7549Z" fill="#594A39"/>
<path d="M107.041 69.7549H105.062V71.7345H107.041V69.7549Z" fill="#594A39"/>
<path d="M109.021 69.7549H107.041V71.7345H109.021V69.7549Z" fill="#594A39"/>
<path d="M111 69.7549H109.021V71.7345H111V69.7549Z" fill="#594A39"/>
<path d="M15.9796 71.7344H14V73.714H15.9796V71.7344Z" fill="#594A39"/>
<path d="M17.9591 71.7344H15.9795V73.714H17.9591V71.7344Z" fill="#594A39"/>
<path d="M19.9386 71.7344H17.959V73.714H19.9386V71.7344Z" fill="#594A39"/>
<path d="M21.9181 71.7344H19.9385V73.714H21.9181V71.7344Z" fill="#594A39"/>
<path d="M25.878 71.7344H23.8984V73.714H25.878V71.7344Z" fill="#594A39"/>
<path d="M31.8165 71.7344H29.8369V73.714H31.8165V71.7344Z" fill="#594A39"/>
<path d="M33.796 71.7344H31.8164V73.714H33.796V71.7344Z" fill="#594A39"/>
<path d="M35.7755 71.7344H33.7959V73.714H35.7755V71.7344Z" fill="#594A39"/>
<path d="M41.714 71.7344H39.7344V73.714H41.714V71.7344Z" fill="#594A39"/>
<path d="M47.6534 71.7344H45.6738V73.714H47.6534V71.7344Z" fill="#594A39"/>
<path d="M53.5919 71.7344H51.6123V73.714H53.5919V71.7344Z" fill="#594A39"/>
<path d="M55.5714 71.7344H53.5918V73.714H55.5714V71.7344Z" fill="#594A39"/>
<path d="M63.4894 71.7344H61.5098V73.714H63.4894V71.7344Z" fill="#594A39"/>
<path d="M69.4288 71.7344H67.4492V73.714H69.4288V71.7344Z" fill="#594A39"/>
<path d="M71.4083 71.7344H69.4287V73.714H71.4083V71.7344Z" fill="#594A39"/>
<path d="M73.3878 71.7344H71.4082V73.714H73.3878V71.7344Z" fill="#594A39"/>
<path d="M75.3673 71.7344H73.3877V73.714H75.3673V71.7344Z" fill="#594A39"/>
<path d="M79.3263 71.7344H77.3467V73.714H79.3263V71.7344Z" fill="#594A39"/>
<path d="M85.2657 71.7344H83.2861V73.714H85.2657V71.7344Z" fill="#594A39"/>
<path d="M87.2452 71.7344H85.2656V73.714H87.2452V71.7344Z" fill="#594A39"/>
<path d="M89.2247 71.7344H87.2451V73.714H89.2247V71.7344Z" fill="#594A39"/>
<path d="M99.1222 71.7344H97.1426V73.714H99.1222V71.7344Z" fill="#594A39"/>
<path d="M101.102 71.7344H99.1221V73.714H101.102V71.7344Z" fill="#594A39"/>
<path d="M103.081 71.7344H101.102V73.714H103.081V71.7344Z" fill="#594A39"/>
<path d="M109.021 71.7344H107.041V73.714H109.021V71.7344Z" fill="#594A39"/>
<path d="M19.9386 73.7139H17.959V75.6935H19.9386V73.7139Z" fill="#594A39"/>
<path d="M23.8976 73.7139H21.918V75.6935H23.8976V73.7139Z" fill="#594A39"/>
<path d="M25.878 73.7139H23.8984V75.6935H25.878V73.7139Z" fill="#594A39"/>
<path d="M27.8575 73.7139H25.8779V75.6935H27.8575V73.7139Z" fill="#594A39"/>
<path d="M31.8165 73.7139H29.8369V75.6935H31.8165V73.7139Z" fill="#594A39"/>
<path d="M35.7755 73.7139H33.7959V75.6935H35.7755V73.7139Z" fill="#594A39"/>
<path d="M37.755 73.7139H35.7754V75.6935H37.755V73.7139Z" fill="#594A39"/>
<path d="M43.6935 73.7139H41.7139V75.6935H43.6935V73.7139Z" fill="#594A39"/>
<path d="M45.6739 73.7139H43.6943V75.6935H45.6739V73.7139Z" fill="#594A39"/>
<path d="M47.6534 73.7139H45.6738V75.6935H47.6534V73.7139Z" fill="#594A39"/>
<path d="M55.5714 73.7139H53.5918V75.6935H55.5714V73.7139Z" fill="#594A39"/>
<path d="M61.5099 73.7139H59.5303V75.6935H61.5099V73.7139Z" fill="#594A39"/>
<path d="M63.4894 73.7139H61.5098V75.6935H63.4894V73.7139Z" fill="#594A39"/>
<path d="M65.4698 73.7139H63.4902V75.6935H65.4698V73.7139Z" fill="#594A39"/>
<path d="M67.4493 73.7139H65.4697V75.6935H67.4493V73.7139Z" fill="#594A39"/>
<path d="M71.4083 73.7139H69.4287V75.6935H71.4083V73.7139Z" fill="#594A39"/>
<path d="M73.3878 73.7139H71.4082V75.6935H73.3878V73.7139Z" fill="#594A39"/>
<path d="M77.3468 73.7139H75.3672V75.6935H77.3468V73.7139Z" fill="#594A39"/>
<path d="M79.3263 73.7139H77.3467V75.6935H79.3263V73.7139Z" fill="#594A39"/>
<path d="M81.3058 73.7139H79.3262V75.6935H81.3058V73.7139Z" fill="#594A39"/>
<path d="M83.2853 73.7139H81.3057V75.6935H83.2853V73.7139Z" fill="#594A39"/>
<path d="M91.2042 73.7139H89.2246V75.6935H91.2042V73.7139Z" fill="#594A39"/>
<path d="M93.1837 73.7139H91.2041V75.6935H93.1837V73.7139Z" fill="#594A39"/>
<path d="M95.1632 73.7139H93.1836V75.6935H95.1632V73.7139Z" fill="#594A39"/>
<path d="M101.102 73.7139H99.1221V75.6935H101.102V73.7139Z" fill="#594A39"/>
<path d="M103.081 73.7139H101.102V75.6935H103.081V73.7139Z" fill="#594A39"/>
<path d="M105.062 73.7139H103.082V75.6935H105.062V73.7139Z" fill="#594A39"/>
<path d="M109.021 73.7139H107.041V75.6935H109.021V73.7139Z" fill="#594A39"/>
<path d="M111 73.7139H109.021V75.6935H111V73.7139Z" fill="#594A39"/>
<path d="M15.9796 75.6943H14V77.6739H15.9796V75.6943Z" fill="#594A39"/>
<path d="M17.9591 75.6943H15.9795V77.6739H17.9591V75.6943Z" fill="#594A39"/>
<path d="M21.9181 75.6943H19.9385V77.6739H21.9181V75.6943Z" fill="#594A39"/>
<path d="M23.8976 75.6943H21.918V77.6739H23.8976V75.6943Z" fill="#594A39"/>
<path d="M25.878 75.6943H23.8984V77.6739H25.878V75.6943Z" fill="#594A39"/>
<path d="M31.8165 75.6943H29.8369V77.6739H31.8165V75.6943Z" fill="#594A39"/>
<path d="M33.796 75.6943H31.8164V77.6739H33.796V75.6943Z" fill="#594A39"/>
<path d="M53.5919 75.6943H51.6123V77.6739H53.5919V75.6943Z" fill="#594A39"/>
<path d="M55.5714 75.6943H53.5918V77.6739H55.5714V75.6943Z" fill="#594A39"/>
<path d="M61.5099 75.6943H59.5303V77.6739H61.5099V75.6943Z" fill="#594A39"/>
<path d="M69.4288 75.6943H67.4492V77.6739H69.4288V75.6943Z" fill="#594A39"/>
<path d="M71.4083 75.6943H69.4287V77.6739H71.4083V75.6943Z" fill="#594A39"/>
<path d="M75.3673 75.6943H73.3877V77.6739H75.3673V75.6943Z" fill="#594A39"/>
<path d="M79.3263 75.6943H77.3467V77.6739H79.3263V75.6943Z" fill="#594A39"/>
<path d="M85.2657 75.6943H83.2861V77.6739H85.2657V75.6943Z" fill="#594A39"/>
<path d="M91.2042 75.6943H89.2246V77.6739H91.2042V75.6943Z" fill="#594A39"/>
<path d="M97.1427 75.6943H95.1631V77.6739H97.1427V75.6943Z" fill="#594A39"/>
<path d="M99.1222 75.6943H97.1426V77.6739H99.1222V75.6943Z" fill="#594A39"/>
<path d="M101.102 75.6943H99.1221V77.6739H101.102V75.6943Z" fill="#594A39"/>
<path d="M103.081 75.6943H101.102V77.6739H103.081V75.6943Z" fill="#594A39"/>
<path d="M111 75.6943H109.021V77.6739H111V75.6943Z" fill="#594A39"/>
<path d="M21.9181 77.6738H19.9385V79.6534H21.9181V77.6738Z" fill="#594A39"/>
<path d="M23.8976 77.6738H21.918V79.6534H23.8976V77.6738Z" fill="#594A39"/>
<path d="M27.8575 77.6738H25.8779V79.6534H27.8575V77.6738Z" fill="#594A39"/>
<path d="M29.837 77.6738H27.8574V79.6534H29.837V77.6738Z" fill="#594A39"/>
<path d="M31.8165 77.6738H29.8369V79.6534H31.8165V77.6738Z" fill="#594A39"/>
<path d="M37.755 77.6738H35.7754V79.6534H37.755V77.6738Z" fill="#594A39"/>
<path d="M47.6534 77.6738H45.6738V79.6534H47.6534V77.6738Z" fill="#594A39"/>
<path d="M51.6124 77.6738H49.6328V79.6534H51.6124V77.6738Z" fill="#594A39"/>
<path d="M55.5714 77.6738H53.5918V79.6534H55.5714V77.6738Z" fill="#594A39"/>
<path d="M59.5304 77.6738H57.5508V79.6534H59.5304V77.6738Z" fill="#594A39"/>
<path d="M63.4894 77.6738H61.5098V79.6534H63.4894V77.6738Z" fill="#594A39"/>
<path d="M65.4698 77.6738H63.4902V79.6534H65.4698V77.6738Z" fill="#594A39"/>
<path d="M67.4493 77.6738H65.4697V79.6534H67.4493V77.6738Z" fill="#594A39"/>
<path d="M77.3468 77.6738H75.3672V79.6534H77.3468V77.6738Z" fill="#594A39"/>
<path d="M85.2657 77.6738H83.2861V79.6534H85.2657V77.6738Z" fill="#594A39"/>
<path d="M87.2452 77.6738H85.2656V79.6534H87.2452V77.6738Z" fill="#594A39"/>
<path d="M95.1632 77.6738H93.1836V79.6534H95.1632V77.6738Z" fill="#594A39"/>
<path d="M99.1222 77.6738H97.1426V79.6534H99.1222V77.6738Z" fill="#594A39"/>
<path d="M101.102 77.6738H99.1221V79.6534H101.102V77.6738Z" fill="#594A39"/>
<path d="M105.062 77.6738H103.082V79.6534H105.062V77.6738Z" fill="#594A39"/>
<path d="M19.9386 79.6533H17.959V81.6329H19.9386V79.6533Z" fill="#594A39"/>
<path d="M23.8976 79.6533H21.918V81.6329H23.8976V79.6533Z" fill="#594A39"/>
<path d="M29.837 79.6533H27.8574V81.6329H29.837V79.6533Z" fill="#594A39"/>
<path d="M37.755 79.6533H35.7754V81.6329H37.755V79.6533Z" fill="#594A39"/>
<path d="M39.7345 79.6533H37.7549V81.6329H39.7345V79.6533Z" fill="#594A39"/>
<path d="M45.6739 79.6533H43.6943V81.6329H45.6739V79.6533Z" fill="#594A39"/>
<path d="M51.6124 79.6533H49.6328V81.6329H51.6124V79.6533Z" fill="#594A39"/>
<path d="M53.5919 79.6533H51.6123V81.6329H53.5919V79.6533Z" fill="#594A39"/>
<path d="M61.5099 79.6533H59.5303V81.6329H61.5099V79.6533Z" fill="#594A39"/>
<path d="M63.4894 79.6533H61.5098V81.6329H63.4894V79.6533Z" fill="#594A39"/>
<path d="M65.4698 79.6533H63.4902V81.6329H65.4698V79.6533Z" fill="#594A39"/>
<path d="M69.4288 79.6533H67.4492V81.6329H69.4288V79.6533Z" fill="#594A39"/>
<path d="M73.3878 79.6533H71.4082V81.6329H73.3878V79.6533Z" fill="#594A39"/>
<path d="M75.3673 79.6533H73.3877V81.6329H75.3673V79.6533Z" fill="#594A39"/>
<path d="M77.3468 79.6533H75.3672V81.6329H77.3468V79.6533Z" fill="#594A39"/>
<path d="M79.3263 79.6533H77.3467V81.6329H79.3263V79.6533Z" fill="#594A39"/>
<path d="M85.2657 79.6533H83.2861V81.6329H85.2657V79.6533Z" fill="#594A39"/>
<path d="M93.1837 79.6533H91.2041V81.6329H93.1837V79.6533Z" fill="#594A39"/>
<path d="M97.1427 79.6533H95.1631V81.6329H97.1427V79.6533Z" fill="#594A39"/>
<path d="M99.1222 79.6533H97.1426V81.6329H99.1222V79.6533Z" fill="#594A39"/>
<path d="M101.102 79.6533H99.1221V81.6329H101.102V79.6533Z" fill="#594A39"/>
<path d="M109.021 79.6533H107.041V81.6329H109.021V79.6533Z" fill="#594A39"/>
<path d="M15.9796 81.6328H14V83.6124H15.9796V81.6328Z" fill="#594A39"/>
<path d="M17.9591 81.6328H15.9795V83.6124H17.9591V81.6328Z" fill="#594A39"/>
<path d="M25.878 81.6328H23.8984V83.6124H25.878V81.6328Z" fill="#594A39"/>
<path d="M27.8575 81.6328H25.8779V83.6124H27.8575V81.6328Z" fill="#594A39"/>
<path d="M33.796 81.6328H31.8164V83.6124H33.796V81.6328Z" fill="#594A39"/>
<path d="M35.7755 81.6328H33.7959V83.6124H35.7755V81.6328Z" fill="#594A39"/>
<path d="M41.714 81.6328H39.7344V83.6124H41.714V81.6328Z" fill="#594A39"/>
<path d="M45.6739 81.6328H43.6943V83.6124H45.6739V81.6328Z" fill="#594A39"/>
<path d="M55.5714 81.6328H53.5918V83.6124H55.5714V81.6328Z" fill="#594A39"/>
<path d="M57.5509 81.6328H55.5713V83.6124H57.5509V81.6328Z" fill="#594A39"/>
<path d="M67.4493 81.6328H65.4697V83.6124H67.4493V81.6328Z" fill="#594A39"/>
<path d="M81.3058 81.6328H79.3262V83.6124H81.3058V81.6328Z" fill="#594A39"/>
<path d="M83.2853 81.6328H81.3057V83.6124H83.2853V81.6328Z" fill="#594A39"/>
<path d="M87.2452 81.6328H85.2656V83.6124H87.2452V81.6328Z" fill="#594A39"/>
<path d="M91.2042 81.6328H89.2246V83.6124H91.2042V81.6328Z" fill="#594A39"/>
<path d="M95.1632 81.6328H93.1836V83.6124H95.1632V81.6328Z" fill="#594A39"/>
<path d="M103.081 81.6328H101.102V83.6124H103.081V81.6328Z" fill="#594A39"/>
<path d="M105.062 81.6328H103.082V83.6124H105.062V81.6328Z" fill="#594A39"/>
<path d="M109.021 81.6328H107.041V83.6124H109.021V81.6328Z" fill="#594A39"/>
<path d="M111 81.6328H109.021V83.6124H111V81.6328Z" fill="#594A39"/>
<path d="M25.878 83.6123H23.8984V85.5919H25.878V83.6123Z" fill="#594A39"/>
<path d="M33.796 83.6123H31.8164V85.5919H33.796V83.6123Z" fill="#594A39"/>
<path d="M39.7345 83.6123H37.7549V85.5919H39.7345V83.6123Z" fill="#594A39"/>
<path d="M45.6739 83.6123H43.6943V85.5919H45.6739V83.6123Z" fill="#594A39"/>
<path d="M51.6124 83.6123H49.6328V85.5919H51.6124V83.6123Z" fill="#594A39"/>
<path d="M67.4493 83.6123H65.4697V85.5919H67.4493V83.6123Z" fill="#594A39"/>
<path d="M69.4288 83.6123H67.4492V85.5919H69.4288V83.6123Z" fill="#594A39"/>
<path d="M71.4083 83.6123H69.4287V85.5919H71.4083V83.6123Z" fill="#594A39"/>
<path d="M73.3878 83.6123H71.4082V85.5919H73.3878V83.6123Z" fill="#594A39"/>
<path d="M77.3468 83.6123H75.3672V85.5919H77.3468V83.6123Z" fill="#594A39"/>
<path d="M79.3263 83.6123H77.3467V85.5919H79.3263V83.6123Z" fill="#594A39"/>
<path d="M81.3058 83.6123H79.3262V85.5919H81.3058V83.6123Z" fill="#594A39"/>
<path d="M93.1837 83.6123H91.2041V85.5919H93.1837V83.6123Z" fill="#594A39"/>
<path d="M97.1427 83.6123H95.1631V85.5919H97.1427V83.6123Z" fill="#594A39"/>
<path d="M99.1222 83.6123H97.1426V85.5919H99.1222V83.6123Z" fill="#594A39"/>
<path d="M101.102 83.6123H99.1221V85.5919H101.102V83.6123Z" fill="#594A39"/>
<path d="M103.081 83.6123H101.102V85.5919H103.081V83.6123Z" fill="#594A39"/>
<path d="M109.021 83.6123H107.041V85.5919H109.021V83.6123Z" fill="#594A39"/>
<path d="M111 83.6123H109.021V85.5919H111V83.6123Z" fill="#594A39"/>
<path d="M17.9591 85.5918H15.9795V87.5714H17.9591V85.5918Z" fill="#594A39"/>
<path d="M23.8976 85.5918H21.918V87.5714H23.8976V85.5918Z" fill="#594A39"/>
<path d="M27.8575 85.5918H25.8779V87.5714H27.8575V85.5918Z" fill="#594A39"/>
<path d="M33.796 85.5918H31.8164V87.5714H33.796V85.5918Z" fill="#594A39"/>
<path d="M35.7755 85.5918H33.7959V87.5714H35.7755V85.5918Z" fill="#594A39"/>
<path d="M37.755 85.5918H35.7754V87.5714H37.755V85.5918Z" fill="#594A39"/>
<path d="M45.6739 85.5918H43.6943V87.5714H45.6739V85.5918Z" fill="#594A39"/>
<path d="M47.6534 85.5918H45.6738V87.5714H47.6534V85.5918Z" fill="#594A39"/>
<path d="M49.6329 85.5918H47.6533V87.5714H49.6329V85.5918Z" fill="#594A39"/>
<path d="M51.6124 85.5918H49.6328V87.5714H51.6124V85.5918Z" fill="#594A39"/>
<path d="M53.5919 85.5918H51.6123V87.5714H53.5919V85.5918Z" fill="#594A39"/>
<path d="M55.5714 85.5918H53.5918V87.5714H55.5714V85.5918Z" fill="#594A39"/>
<path d="M57.5509 85.5918H55.5713V87.5714H57.5509V85.5918Z" fill="#594A39"/>
<path d="M59.5304 85.5918H57.5508V87.5714H59.5304V85.5918Z" fill="#594A39"/>
<path d="M61.5099 85.5918H59.5303V87.5714H61.5099V85.5918Z" fill="#594A39"/>
<path d="M63.4894 85.5918H61.5098V87.5714H63.4894V85.5918Z" fill="#594A39"/>
<path d="M65.4698 85.5918H63.4902V87.5714H65.4698V85.5918Z" fill="#594A39"/>
<path d="M77.3468 85.5918H75.3672V87.5714H77.3468V85.5918Z" fill="#594A39"/>
<path d="M83.2853 85.5918H81.3057V87.5714H83.2853V85.5918Z" fill="#594A39"/>
<path d="M85.2657 85.5918H83.2861V87.5714H85.2657V85.5918Z" fill="#594A39"/>
<path d="M87.2452 85.5918H85.2656V87.5714H87.2452V85.5918Z" fill="#594A39"/>
<path d="M91.2042 85.5918H89.2246V87.5714H91.2042V85.5918Z" fill="#594A39"/>
<path d="M93.1837 85.5918H91.2041V87.5714H93.1837V85.5918Z" fill="#594A39"/>
<path d="M95.1632 85.5918H93.1836V87.5714H95.1632V85.5918Z" fill="#594A39"/>
<path d="M97.1427 85.5918H95.1631V87.5714H97.1427V85.5918Z" fill="#594A39"/>
<path d="M99.1222 85.5918H97.1426V87.5714H99.1222V85.5918Z" fill="#594A39"/>
<path d="M107.041 85.5918H105.062V87.5714H107.041V85.5918Z" fill="#594A39"/>
<path d="M21.9181 87.5713H19.9385V89.5509H21.9181V87.5713Z" fill="#594A39"/>
<path d="M29.837 87.5713H27.8574V89.5509H29.837V87.5713Z" fill="#594A39"/>
<path d="M33.796 87.5713H31.8164V89.5509H33.796V87.5713Z" fill="#594A39"/>
<path d="M39.7345 87.5713H37.7549V89.5509H39.7345V87.5713Z" fill="#594A39"/>
<path d="M41.714 87.5713H39.7344V89.5509H41.714V87.5713Z" fill="#594A39"/>
<path d="M43.6935 87.5713H41.7139V89.5509H43.6935V87.5713Z" fill="#594A39"/>
<path d="M61.5099 87.5713H59.5303V89.5509H61.5099V87.5713Z" fill="#594A39"/>
<path d="M65.4698 87.5713H63.4902V89.5509H65.4698V87.5713Z" fill="#594A39"/>
<path d="M69.4288 87.5713H67.4492V89.5509H69.4288V87.5713Z" fill="#594A39"/>
<path d="M71.4083 87.5713H69.4287V89.5509H71.4083V87.5713Z" fill="#594A39"/>
<path d="M73.3878 87.5713H71.4082V89.5509H73.3878V87.5713Z" fill="#594A39"/>
<path d="M75.3673 87.5713H73.3877V89.5509H75.3673V87.5713Z" fill="#594A39"/>
<path d="M77.3468 87.5713H75.3672V89.5509H77.3468V87.5713Z" fill="#594A39"/>
<path d="M89.2247 87.5713H87.2451V89.5509H89.2247V87.5713Z" fill="#594A39"/>
<path d="M97.1427 87.5713H95.1631V89.5509H97.1427V87.5713Z" fill="#594A39"/>
<path d="M99.1222 87.5713H97.1426V89.5509H99.1222V87.5713Z" fill="#594A39"/>
<path d="M101.102 87.5713H99.1221V89.5509H101.102V87.5713Z" fill="#594A39"/>
<path d="M103.081 87.5713H101.102V89.5509H103.081V87.5713Z" fill="#594A39"/>
<path d="M15.9796 89.5508H14V91.5304H15.9796V89.5508Z" fill="#594A39"/>
<path d="M17.9591 89.5508H15.9795V91.5304H17.9591V89.5508Z" fill="#594A39"/>
<path d="M21.9181 89.5508H19.9385V91.5304H21.9181V89.5508Z" fill="#594A39"/>
<path d="M23.8976 89.5508H21.918V91.5304H23.8976V89.5508Z" fill="#594A39"/>
<path d="M25.878 89.5508H23.8984V91.5304H25.878V89.5508Z" fill="#594A39"/>
<path d="M27.8575 89.5508H25.8779V91.5304H27.8575V89.5508Z" fill="#594A39"/>
<path d="M29.837 89.5508H27.8574V91.5304H29.837V89.5508Z" fill="#594A39"/>
<path d="M31.8165 89.5508H29.8369V91.5304H31.8165V89.5508Z" fill="#594A39"/>
<path d="M33.796 89.5508H31.8164V91.5304H33.796V89.5508Z" fill="#594A39"/>
<path d="M35.7755 89.5508H33.7959V91.5304H35.7755V89.5508Z" fill="#594A39"/>
<path d="M43.6935 89.5508H41.7139V91.5304H43.6935V89.5508Z" fill="#594A39"/>
<path d="M47.6534 89.5508H45.6738V91.5304H47.6534V89.5508Z" fill="#594A39"/>
<path d="M49.6329 89.5508H47.6533V91.5304H49.6329V89.5508Z" fill="#594A39"/>
<path d="M53.5919 89.5508H51.6123V91.5304H53.5919V89.5508Z" fill="#594A39"/>
<path d="M59.5304 89.5508H57.5508V91.5304H59.5304V89.5508Z" fill="#594A39"/>
<path d="M61.5099 89.5508H59.5303V91.5304H61.5099V89.5508Z" fill="#594A39"/>
<path d="M63.4894 89.5508H61.5098V91.5304H63.4894V89.5508Z" fill="#594A39"/>
<path d="M65.4698 89.5508H63.4902V91.5304H65.4698V89.5508Z" fill="#594A39"/>
<path d="M67.4493 89.5508H65.4697V91.5304H67.4493V89.5508Z" fill="#594A39"/>
<path d="M71.4083 89.5508H69.4287V91.5304H71.4083V89.5508Z" fill="#594A39"/>
<path d="M79.3263 89.5508H77.3467V91.5304H79.3263V89.5508Z" fill="#594A39"/>
<path d="M83.2853 89.5508H81.3057V91.5304H83.2853V89.5508Z" fill="#594A39"/>
<path d="M85.2657 89.5508H83.2861V91.5304H85.2657V89.5508Z" fill="#594A39"/>
<path d="M91.2042 89.5508H89.2246V91.5304H91.2042V89.5508Z" fill="#594A39"/>
<path d="M95.1632 89.5508H93.1836V91.5304H95.1632V89.5508Z" fill="#594A39"/>
<path d="M97.1427 89.5508H95.1631V91.5304H97.1427V89.5508Z" fill="#594A39"/>
<path d="M99.1222 89.5508H97.1426V91.5304H99.1222V89.5508Z" fill="#594A39"/>
<path d="M101.102 89.5508H99.1221V91.5304H101.102V89.5508Z" fill="#594A39"/>
<path d="M103.081 89.5508H101.102V91.5304H103.081V89.5508Z" fill="#594A39"/>
<path d="M111 89.5508H109.021V91.5304H111V89.5508Z" fill="#594A39"/>
<path d="M15.9796 91.5303H14V93.5099H15.9796V91.5303Z" fill="#594A39"/>
<path d="M17.9591 91.5303H15.9795V93.5099H17.9591V91.5303Z" fill="#594A39"/>
<path d="M23.8976 91.5303H21.918V93.5099H23.8976V91.5303Z" fill="#594A39"/>
<path d="M31.8165 91.5303H29.8369V93.5099H31.8165V91.5303Z" fill="#594A39"/>
<path d="M33.796 91.5303H31.8164V93.5099H33.796V91.5303Z" fill="#594A39"/>
<path d="M35.7755 91.5303H33.7959V93.5099H35.7755V91.5303Z" fill="#594A39"/>
<path d="M39.7345 91.5303H37.7549V93.5099H39.7345V91.5303Z" fill="#594A39"/>
<path d="M45.6739 91.5303H43.6943V93.5099H45.6739V91.5303Z" fill="#594A39"/>
<path d="M47.6534 91.5303H45.6738V93.5099H47.6534V91.5303Z" fill="#594A39"/>
<path d="M51.6124 91.5303H49.6328V93.5099H51.6124V91.5303Z" fill="#594A39"/>
<path d="M59.5304 91.5303H57.5508V93.5099H59.5304V91.5303Z" fill="#594A39"/>
<path d="M67.4493 91.5303H65.4697V93.5099H67.4493V91.5303Z" fill="#594A39"/>
<path d="M71.4083 91.5303H69.4287V93.5099H71.4083V91.5303Z" fill="#594A39"/>
<path d="M79.3263 91.5303H77.3467V93.5099H79.3263V91.5303Z" fill="#594A39"/>
<path d="M81.3058 91.5303H79.3262V93.5099H81.3058V91.5303Z" fill="#594A39"/>
<path d="M95.1632 91.5303H93.1836V93.5099H95.1632V91.5303Z" fill="#594A39"/>
<path d="M103.081 91.5303H101.102V93.5099H103.081V91.5303Z" fill="#594A39"/>
<path d="M109.021 91.5303H107.041V93.5099H109.021V91.5303Z" fill="#594A39"/>
<path d="M19.9386 93.5098H17.959V95.4894H19.9386V93.5098Z" fill="#594A39"/>
<path d="M23.8976 93.5098H21.918V95.4894H23.8976V93.5098Z" fill="#594A39"/>
<path d="M27.8575 93.5098H25.8779V95.4894H27.8575V93.5098Z" fill="#594A39"/>
<path d="M31.8165 93.5098H29.8369V95.4894H31.8165V93.5098Z" fill="#594A39"/>
<path d="M33.796 93.5098H31.8164V95.4894H33.796V93.5098Z" fill="#594A39"/>
<path d="M35.7755 93.5098H33.7959V95.4894H35.7755V93.5098Z" fill="#594A39"/>
<path d="M37.755 93.5098H35.7754V95.4894H37.755V93.5098Z" fill="#594A39"/>
<path d="M43.6935 93.5098H41.7139V95.4894H43.6935V93.5098Z" fill="#594A39"/>
<path d="M49.6329 93.5098H47.6533V95.4894H49.6329V93.5098Z" fill="#594A39"/>
<path d="M51.6124 93.5098H49.6328V95.4894H51.6124V93.5098Z" fill="#594A39"/>
<path d="M53.5919 93.5098H51.6123V95.4894H53.5919V93.5098Z" fill="#594A39"/>
<path d="M57.5509 93.5098H55.5713V95.4894H57.5509V93.5098Z" fill="#594A39"/>
<path d="M59.5304 93.5098H57.5508V95.4894H59.5304V93.5098Z" fill="#594A39"/>
<path d="M63.4894 93.5098H61.5098V95.4894H63.4894V93.5098Z" fill="#594A39"/>
<path d="M67.4493 93.5098H65.4697V95.4894H67.4493V93.5098Z" fill="#594A39"/>
<path d="M69.4288 93.5098H67.4492V95.4894H69.4288V93.5098Z" fill="#594A39"/>
<path d="M73.3878 93.5098H71.4082V95.4894H73.3878V93.5098Z" fill="#594A39"/>
<path d="M75.3673 93.5098H73.3877V95.4894H75.3673V93.5098Z" fill="#594A39"/>
<path d="M83.2853 93.5098H81.3057V95.4894H83.2853V93.5098Z" fill="#594A39"/>
<path d="M85.2657 93.5098H83.2861V95.4894H85.2657V93.5098Z" fill="#594A39"/>
<path d="M87.2452 93.5098H85.2656V95.4894H87.2452V93.5098Z" fill="#594A39"/>
<path d="M89.2247 93.5098H87.2451V95.4894H89.2247V93.5098Z" fill="#594A39"/>
<path d="M91.2042 93.5098H89.2246V95.4894H91.2042V93.5098Z" fill="#594A39"/>
<path d="M93.1837 93.5098H91.2041V95.4894H93.1837V93.5098Z" fill="#594A39"/>
<path d="M95.1632 93.5098H93.1836V95.4894H95.1632V93.5098Z" fill="#594A39"/>
<path d="M99.1222 93.5098H97.1426V95.4894H99.1222V93.5098Z" fill="#594A39"/>
<path d="M103.081 93.5098H101.102V95.4894H103.081V93.5098Z" fill="#594A39"/>
<path d="M105.062 93.5098H103.082V95.4894H105.062V93.5098Z" fill="#594A39"/>
<path d="M107.041 93.5098H105.062V95.4894H107.041V93.5098Z" fill="#594A39"/>
<path d="M111 93.5098H109.021V95.4894H111V93.5098Z" fill="#594A39"/>
<path d="M19.9386 95.4902H17.959V97.4698H19.9386V95.4902Z" fill="#594A39"/>
<path d="M23.8976 95.4902H21.918V97.4698H23.8976V95.4902Z" fill="#594A39"/>
<path d="M31.8165 95.4902H29.8369V97.4698H31.8165V95.4902Z" fill="#594A39"/>
<path d="M43.6935 95.4902H41.7139V97.4698H43.6935V95.4902Z" fill="#594A39"/>
<path d="M47.6534 95.4902H45.6738V97.4698H47.6534V95.4902Z" fill="#594A39"/>
<path d="M53.5919 95.4902H51.6123V97.4698H53.5919V95.4902Z" fill="#594A39"/>
<path d="M57.5509 95.4902H55.5713V97.4698H57.5509V95.4902Z" fill="#594A39"/>
<path d="M59.5304 95.4902H57.5508V97.4698H59.5304V95.4902Z" fill="#594A39"/>
<path d="M67.4493 95.4902H65.4697V97.4698H67.4493V95.4902Z" fill="#594A39"/>
<path d="M73.3878 95.4902H71.4082V97.4698H73.3878V95.4902Z" fill="#594A39"/>
<path d="M75.3673 95.4902H73.3877V97.4698H75.3673V95.4902Z" fill="#594A39"/>
<path d="M87.2452 95.4902H85.2656V97.4698H87.2452V95.4902Z" fill="#594A39"/>
<path d="M89.2247 95.4902H87.2451V97.4698H89.2247V95.4902Z" fill="#594A39"/>
<path d="M93.1837 95.4902H91.2041V97.4698H93.1837V95.4902Z" fill="#594A39"/>
<path d="M95.1632 95.4902H93.1836V97.4698H95.1632V95.4902Z" fill="#594A39"/>
<path d="M103.081 95.4902H101.102V97.4698H103.081V95.4902Z" fill="#594A39"/>
<path d="M109.021 95.4902H107.041V97.4698H109.021V95.4902Z" fill="#594A39"/>
<path d="M17.9591 97.4697H15.9795V99.4493H17.9591V97.4697Z" fill="#594A39"/>
<path d="M19.9386 97.4697H17.959V99.4493H19.9386V97.4697Z" fill="#594A39"/>
<path d="M21.9181 97.4697H19.9385V99.4493H21.9181V97.4697Z" fill="#594A39"/>
<path d="M23.8976 97.4697H21.918V99.4493H23.8976V97.4697Z" fill="#594A39"/>
<path d="M25.878 97.4697H23.8984V99.4493H25.878V97.4697Z" fill="#594A39"/>
<path d="M27.8575 97.4697H25.8779V99.4493H27.8575V97.4697Z" fill="#594A39"/>
<path d="M29.837 97.4697H27.8574V99.4493H29.837V97.4697Z" fill="#594A39"/>
<path d="M31.8165 97.4697H29.8369V99.4493H31.8165V97.4697Z" fill="#594A39"/>
<path d="M33.796 97.4697H31.8164V99.4493H33.796V97.4697Z" fill="#594A39"/>
<path d="M35.7755 97.4697H33.7959V99.4493H35.7755V97.4697Z" fill="#594A39"/>
<path d="M39.7345 97.4697H37.7549V99.4493H39.7345V97.4697Z" fill="#594A39"/>
<path d="M41.714 97.4697H39.7344V99.4493H41.714V97.4697Z" fill="#594A39"/>
<path d="M43.6935 97.4697H41.7139V99.4493H43.6935V97.4697Z" fill="#594A39"/>
<path d="M45.6739 97.4697H43.6943V99.4493H45.6739V97.4697Z" fill="#594A39"/>
<path d="M49.6329 97.4697H47.6533V99.4493H49.6329V97.4697Z" fill="#594A39"/>
<path d="M53.5919 97.4697H51.6123V99.4493H53.5919V97.4697Z" fill="#594A39"/>
<path d="M55.5714 97.4697H53.5918V99.4493H55.5714V97.4697Z" fill="#594A39"/>
<path d="M59.5304 97.4697H57.5508V99.4493H59.5304V97.4697Z" fill="#594A39"/>
<path d="M61.5099 97.4697H59.5303V99.4493H61.5099V97.4697Z" fill="#594A39"/>
<path d="M63.4894 97.4697H61.5098V99.4493H63.4894V97.4697Z" fill="#594A39"/>
<path d="M65.4698 97.4697H63.4902V99.4493H65.4698V97.4697Z" fill="#594A39"/>
<path d="M67.4493 97.4697H65.4697V99.4493H67.4493V97.4697Z" fill="#594A39"/>
<path d="M69.4288 97.4697H67.4492V99.4493H69.4288V97.4697Z" fill="#594A39"/>
<path d="M77.3468 97.4697H75.3672V99.4493H77.3468V97.4697Z" fill="#594A39"/>
<path d="M81.3058 97.4697H79.3262V99.4493H81.3058V97.4697Z" fill="#594A39"/>
<path d="M83.2853 97.4697H81.3057V99.4493H83.2853V97.4697Z" fill="#594A39"/>
<path d="M85.2657 97.4697H83.2861V99.4493H85.2657V97.4697Z" fill="#594A39"/>
<path d="M87.2452 97.4697H85.2656V99.4493H87.2452V97.4697Z" fill="#594A39"/>
<path d="M89.2247 97.4697H87.2451V99.4493H89.2247V97.4697Z" fill="#594A39"/>
<path d="M91.2042 97.4697H89.2246V99.4493H91.2042V97.4697Z" fill="#594A39"/>
<path d="M95.1632 97.4697H93.1836V99.4493H95.1632V97.4697Z" fill="#594A39"/>
<path d="M97.1427 97.4697H95.1631V99.4493H97.1427V97.4697Z" fill="#594A39"/>
<path d="M99.1222 97.4697H97.1426V99.4493H99.1222V97.4697Z" fill="#594A39"/>
<path d="M101.102 97.4697H99.1221V99.4493H101.102V97.4697Z" fill="#594A39"/>
<path d="M103.081 97.4697H101.102V99.4493H103.081V97.4697Z" fill="#594A39"/>
<path d="M105.062 97.4697H103.082V99.4493H105.062V97.4697Z" fill="#594A39"/>
<path d="M109.021 97.4697H107.041V99.4493H109.021V97.4697Z" fill="#594A39"/>
<path d="M111 97.4697H109.021V99.4493H111V97.4697Z" fill="#594A39"/>
<path d="M21.9181 99.4492H19.9385V101.429H21.9181V99.4492Z" fill="#594A39"/>
<path d="M29.837 99.4492H27.8574V101.429H29.837V99.4492Z" fill="#594A39"/>
<path d="M31.8165 99.4492H29.8369V101.429H31.8165V99.4492Z" fill="#594A39"/>
<path d="M37.755 99.4492H35.7754V101.429H37.755V99.4492Z" fill="#594A39"/>
<path d="M43.6935 99.4492H41.7139V101.429H43.6935V99.4492Z" fill="#594A39"/>
<path d="M45.6739 99.4492H43.6943V101.429H45.6739V99.4492Z" fill="#594A39"/>
<path d="M47.6534 99.4492H45.6738V101.429H47.6534V99.4492Z" fill="#594A39"/>
<path d="M51.6124 99.4492H49.6328V101.429H51.6124V99.4492Z" fill="#594A39"/>
<path d="M53.5919 99.4492H51.6123V101.429H53.5919V99.4492Z" fill="#594A39"/>
<path d="M55.5714 99.4492H53.5918V101.429H55.5714V99.4492Z" fill="#594A39"/>
<path d="M57.5509 99.4492H55.5713V101.429H57.5509V99.4492Z" fill="#594A39"/>
<path d="M59.5304 99.4492H57.5508V101.429H59.5304V99.4492Z" fill="#594A39"/>
<path d="M63.4894 99.4492H61.5098V101.429H63.4894V99.4492Z" fill="#594A39"/>
<path d="M67.4493 99.4492H65.4697V101.429H67.4493V99.4492Z" fill="#594A39"/>
<path d="M69.4288 99.4492H67.4492V101.429H69.4288V99.4492Z" fill="#594A39"/>
<path d="M71.4083 99.4492H69.4287V101.429H71.4083V99.4492Z" fill="#594A39"/>
<path d="M73.3878 99.4492H71.4082V101.429H73.3878V99.4492Z" fill="#594A39"/>
<path d="M75.3673 99.4492H73.3877V101.429H75.3673V99.4492Z" fill="#594A39"/>
<path d="M79.3263 99.4492H77.3467V101.429H79.3263V99.4492Z" fill="#594A39"/>
<path d="M95.1632 99.4492H93.1836V101.429H95.1632V99.4492Z" fill="#594A39"/>
<path d="M105.062 99.4492H103.082V101.429H105.062V99.4492Z" fill="#594A39"/>
<path d="M109.021 99.4492H107.041V101.429H109.021V99.4492Z" fill="#594A39"/>
<path d="M111 99.4492H109.021V101.429H111V99.4492Z" fill="#594A39"/>
<path d="M17.9591 101.429H15.9795V103.408H17.9591V101.429Z" fill="#594A39"/>
<path d="M21.9181 101.429H19.9385V103.408H21.9181V101.429Z" fill="#594A39"/>
<path d="M25.878 101.429H23.8984V103.408H25.878V101.429Z" fill="#594A39"/>
<path d="M27.8575 101.429H25.8779V103.408H27.8575V101.429Z" fill="#594A39"/>
<path d="M31.8165 101.429H29.8369V103.408H31.8165V101.429Z" fill="#594A39"/>
<path d="M37.755 101.429H35.7754V103.408H37.755V101.429Z" fill="#594A39"/>
<path d="M39.7345 101.429H37.7549V103.408H39.7345V101.429Z" fill="#594A39"/>
<path d="M41.714 101.429H39.7344V103.408H41.714V101.429Z" fill="#594A39"/>
<path d="M43.6935 101.429H41.7139V103.408H43.6935V101.429Z" fill="#594A39"/>
<path d="M49.6329 101.429H47.6533V103.408H49.6329V101.429Z" fill="#594A39"/>
<path d="M51.6124 101.429H49.6328V103.408H51.6124V101.429Z" fill="#594A39"/>
<path d="M53.5919 101.429H51.6123V103.408H53.5919V101.429Z" fill="#594A39"/>
<path d="M65.4698 101.429H63.4902V103.408H65.4698V101.429Z" fill="#594A39"/>
<path d="M69.4288 101.429H67.4492V103.408H69.4288V101.429Z" fill="#594A39"/>
<path d="M75.3673 101.429H73.3877V103.408H75.3673V101.429Z" fill="#594A39"/>
<path d="M77.3468 101.429H75.3672V103.408H77.3468V101.429Z" fill="#594A39"/>
<path d="M85.2657 101.429H83.2861V103.408H85.2657V101.429Z" fill="#594A39"/>
<path d="M87.2452 101.429H85.2656V103.408H87.2452V101.429Z" fill="#594A39"/>
<path d="M89.2247 101.429H87.2451V103.408H89.2247V101.429Z" fill="#594A39"/>
<path d="M93.1837 101.429H91.2041V103.408H93.1837V101.429Z" fill="#594A39"/>
<path d="M97.1427 101.429H95.1631V103.408H97.1427V101.429Z" fill="#594A39"/>
<path d="M99.1222 101.429H97.1426V103.408H99.1222V101.429Z" fill="#594A39"/>
<path d="M103.081 101.429H101.102V103.408H103.081V101.429Z" fill="#594A39"/>
<path d="M107.041 101.429H105.062V103.408H107.041V101.429Z" fill="#594A39"/>
<path d="M111 101.429H109.021V103.408H111V101.429Z" fill="#594A39"/>
<path d="M17.9591 103.408H15.9795V105.388H17.9591V103.408Z" fill="#594A39"/>
<path d="M19.9386 103.408H17.959V105.388H19.9386V103.408Z" fill="#594A39"/>
<path d="M29.837 103.408H27.8574V105.388H29.837V103.408Z" fill="#594A39"/>
<path d="M33.796 103.408H31.8164V105.388H33.796V103.408Z" fill="#594A39"/>
<path d="M35.7755 103.408H33.7959V105.388H35.7755V103.408Z" fill="#594A39"/>
<path d="M37.755 103.408H35.7754V105.388H37.755V103.408Z" fill="#594A39"/>
<path d="M39.7345 103.408H37.7549V105.388H39.7345V103.408Z" fill="#594A39"/>
<path d="M45.6739 103.408H43.6943V105.388H45.6739V103.408Z" fill="#594A39"/>
<path d="M47.6534 103.408H45.6738V105.388H47.6534V103.408Z" fill="#594A39"/>
<path d="M49.6329 103.408H47.6533V105.388H49.6329V103.408Z" fill="#594A39"/>
<path d="M51.6124 103.408H49.6328V105.388H51.6124V103.408Z" fill="#594A39"/>
<path d="M57.5509 103.408H55.5713V105.388H57.5509V103.408Z" fill="#594A39"/>
<path d="M61.5099 103.408H59.5303V105.388H61.5099V103.408Z" fill="#594A39"/>
<path d="M63.4894 103.408H61.5098V105.388H63.4894V103.408Z" fill="#594A39"/>
<path d="M65.4698 103.408H63.4902V105.388H65.4698V103.408Z" fill="#594A39"/>
<path d="M67.4493 103.408H65.4697V105.388H67.4493V103.408Z" fill="#594A39"/>
<path d="M73.3878 103.408H71.4082V105.388H73.3878V103.408Z" fill="#594A39"/>
<path d="M75.3673 103.408H73.3877V105.388H75.3673V103.408Z" fill="#594A39"/>
<path d="M77.3468 103.408H75.3672V105.388H77.3468V103.408Z" fill="#594A39"/>
<path d="M81.3058 103.408H79.3262V105.388H81.3058V103.408Z" fill="#594A39"/>
<path d="M89.2247 103.408H87.2451V105.388H89.2247V103.408Z" fill="#594A39"/>
<path d="M95.1632 103.408H93.1836V105.388H95.1632V103.408Z" fill="#594A39"/>
<path d="M97.1427 103.408H95.1631V105.388H97.1427V103.408Z" fill="#594A39"/>
<path d="M99.1222 103.408H97.1426V105.388H99.1222V103.408Z" fill="#594A39"/>
<path d="M101.102 103.408H99.1221V105.388H101.102V103.408Z" fill="#594A39"/>
<path d="M105.062 103.408H103.082V105.388H105.062V103.408Z" fill="#594A39"/>
<path d="M15.9796 105.388H14V107.367H15.9796V105.388Z" fill="#594A39"/>
<path d="M17.9591 105.388H15.9795V107.367H17.9591V105.388Z" fill="#594A39"/>
<path d="M21.9181 105.388H19.9385V107.367H21.9181V105.388Z" fill="#594A39"/>
<path d="M27.8575 105.388H25.8779V107.367H27.8575V105.388Z" fill="#594A39"/>
<path d="M35.7755 105.388H33.7959V107.367H35.7755V105.388Z" fill="#594A39"/>
<path d="M39.7345 105.388H37.7549V107.367H39.7345V105.388Z" fill="#594A39"/>
<path d="M51.6124 105.388H49.6328V107.367H51.6124V105.388Z" fill="#594A39"/>
<path d="M53.5919 105.388H51.6123V107.367H53.5919V105.388Z" fill="#594A39"/>
<path d="M57.5509 105.388H55.5713V107.367H57.5509V105.388Z" fill="#594A39"/>
<path d="M59.5304 105.388H57.5508V107.367H59.5304V105.388Z" fill="#594A39"/>
<path d="M71.4083 105.388H69.4287V107.367H71.4083V105.388Z" fill="#594A39"/>
<path d="M75.3673 105.388H73.3877V107.367H75.3673V105.388Z" fill="#594A39"/>
<path d="M83.2853 105.388H81.3057V107.367H83.2853V105.388Z" fill="#594A39"/>
<path d="M85.2657 105.388H83.2861V107.367H85.2657V105.388Z" fill="#594A39"/>
<path d="M87.2452 105.388H85.2656V107.367H87.2452V105.388Z" fill="#594A39"/>
<path d="M91.2042 105.388H89.2246V107.367H91.2042V105.388Z" fill="#594A39"/>
<path d="M93.1837 105.388H91.2041V107.367H93.1837V105.388Z" fill="#594A39"/>
<path d="M99.1222 105.388H97.1426V107.367H99.1222V105.388Z" fill="#594A39"/>
<path d="M103.081 105.388H101.102V107.367H103.081V105.388Z" fill="#594A39"/>
<path d="M107.041 105.388H105.062V107.367H107.041V105.388Z" fill="#594A39"/>
<path d="M109.021 105.388H107.041V107.367H109.021V105.388Z" fill="#594A39"/>
<path d="M111 105.388H109.021V107.367H111V105.388Z" fill="#594A39"/>
<path d="M15.9796 107.367H14V109.347H15.9796V107.367Z" fill="#594A39"/>
<path d="M17.9591 107.367H15.9795V109.347H17.9591V107.367Z" fill="#594A39"/>
<path d="M21.9181 107.367H19.9385V109.347H21.9181V107.367Z" fill="#594A39"/>
<path d="M23.8976 107.367H21.918V109.347H23.8976V107.367Z" fill="#594A39"/>
<path d="M31.8165 107.367H29.8369V109.347H31.8165V107.367Z" fill="#594A39"/>
<path d="M33.796 107.367H31.8164V109.347H33.796V107.367Z" fill="#594A39"/>
<path d="M39.7345 107.367H37.7549V109.347H39.7345V107.367Z" fill="#594A39"/>
<path d="M41.714 107.367H39.7344V109.347H41.714V107.367Z" fill="#594A39"/>
<path d="M49.6329 107.367H47.6533V109.347H49.6329V107.367Z" fill="#594A39"/>
<path d="M57.5509 107.367H55.5713V109.347H57.5509V107.367Z" fill="#594A39"/>
<path d="M61.5099 107.367H59.5303V109.347H61.5099V107.367Z" fill="#594A39"/>
<path d="M63.4894 107.367H61.5098V109.347H63.4894V107.367Z" fill="#594A39"/>
<path d="M67.4493 107.367H65.4697V109.347H67.4493V107.367Z" fill="#594A39"/>
<path d="M71.4083 107.367H69.4287V109.347H71.4083V107.367Z" fill="#594A39"/>
<path d="M73.3878 107.367H71.4082V109.347H73.3878V107.367Z" fill="#594A39"/>
<path d="M75.3673 107.367H73.3877V109.347H75.3673V107.367Z" fill="#594A39"/>
<path d="M87.2452 107.367H85.2656V109.347H87.2452V107.367Z" fill="#594A39"/>
<path d="M89.2247 107.367H87.2451V109.347H89.2247V107.367Z" fill="#594A39"/>
<path d="M97.1427 107.367H95.1631V109.347H97.1427V107.367Z" fill="#594A39"/>
<path d="M111 107.367H109.021V109.347H111V107.367Z" fill="#594A39"/>
<path d="M15.9796 109.347H14V111.326H15.9796V109.347Z" fill="#594A39"/>
<path d="M21.9181 109.347H19.9385V111.326H21.9181V109.347Z" fill="#594A39"/>
<path d="M27.8575 109.347H25.8779V111.326H27.8575V109.347Z" fill="#594A39"/>
<path d="M37.755 109.347H35.7754V111.326H37.755V109.347Z" fill="#594A39"/>
<path d="M41.714 109.347H39.7344V111.326H41.714V109.347Z" fill="#594A39"/>
<path d="M51.6124 109.347H49.6328V111.326H51.6124V109.347Z" fill="#594A39"/>
<path d="M53.5919 109.347H51.6123V111.326H53.5919V109.347Z" fill="#594A39"/>
<path d="M55.5714 109.347H53.5918V111.326H55.5714V109.347Z" fill="#594A39"/>
<path d="M59.5304 109.347H57.5508V111.326H59.5304V109.347Z" fill="#594A39"/>
<path d="M65.4698 109.347H63.4902V111.326H65.4698V109.347Z" fill="#594A39"/>
<path d="M75.3673 109.347H73.3877V111.326H75.3673V109.347Z" fill="#594A39"/>
<path d="M77.3468 109.347H75.3672V111.326H77.3468V109.347Z" fill="#594A39"/>
<path d="M81.3058 109.347H79.3262V111.326H81.3058V109.347Z" fill="#594A39"/>
<path d="M85.2657 109.347H83.2861V111.326H85.2657V109.347Z" fill="#594A39"/>
<path d="M87.2452 109.347H85.2656V111.326H87.2452V109.347Z" fill="#594A39"/>
<path d="M89.2247 109.347H87.2451V111.326H89.2247V109.347Z" fill="#594A39"/>
<path d="M93.1837 109.347H91.2041V111.326H93.1837V109.347Z" fill="#594A39"/>
<path d="M97.1427 109.347H95.1631V111.326H97.1427V109.347Z" fill="#594A39"/>
<path d="M103.081 109.347H101.102V111.326H103.081V109.347Z" fill="#594A39"/>
<path d="M105.062 109.347H103.082V111.326H105.062V109.347Z" fill="#594A39"/>
<path d="M107.041 109.347H105.062V111.326H107.041V109.347Z" fill="#594A39"/>
<path d="M109.021 109.347H107.041V111.326H109.021V109.347Z" fill="#594A39"/>
<path d="M111 109.347H109.021V111.326H111V109.347Z" fill="#594A39"/>
<path d="M29.837 111.326H27.8574V113.306H29.837V111.326Z" fill="#594A39"/>
<path d="M35.7755 111.326H33.7959V113.306H35.7755V111.326Z" fill="#594A39"/>
<path d="M39.7345 111.326H37.7549V113.306H39.7345V111.326Z" fill="#594A39"/>
<path d="M41.714 111.326H39.7344V113.306H41.714V111.326Z" fill="#594A39"/>
<path d="M49.6329 111.326H47.6533V113.306H49.6329V111.326Z" fill="#594A39"/>
<path d="M51.6124 111.326H49.6328V113.306H51.6124V111.326Z" fill="#594A39"/>
<path d="M53.5919 111.326H51.6123V113.306H53.5919V111.326Z" fill="#594A39"/>
<path d="M57.5509 111.326H55.5713V113.306H57.5509V111.326Z" fill="#594A39"/>
<path d="M59.5304 111.326H57.5508V113.306H59.5304V111.326Z" fill="#594A39"/>
<path d="M61.5099 111.326H59.5303V113.306H61.5099V111.326Z" fill="#594A39"/>
<path d="M63.4894 111.326H61.5098V113.306H63.4894V111.326Z" fill="#594A39"/>
<path d="M65.4698 111.326H63.4902V113.306H65.4698V111.326Z" fill="#594A39"/>
<path d="M73.3878 111.326H71.4082V113.306H73.3878V111.326Z" fill="#594A39"/>
<path d="M75.3673 111.326H73.3877V113.306H75.3673V111.326Z" fill="#594A39"/>
<path d="M93.1837 111.326H91.2041V113.306H93.1837V111.326Z" fill="#594A39"/>
<path d="M97.1427 111.326H95.1631V113.306H97.1427V111.326Z" fill="#594A39"/>
<path d="M101.102 111.326H99.1221V113.306H101.102V111.326Z" fill="#594A39"/>
<path d="M19.9386 113.306H17.959V115.285H19.9386V113.306Z" fill="#594A39"/>
<path d="M21.9181 113.306H19.9385V115.285H21.9181V113.306Z" fill="#594A39"/>
<path d="M23.8976 113.306H21.918V115.285H23.8976V113.306Z" fill="#594A39"/>
<path d="M27.8575 113.306H25.8779V115.285H27.8575V113.306Z" fill="#594A39"/>
<path d="M31.8165 113.306H29.8369V115.285H31.8165V113.306Z" fill="#594A39"/>
<path d="M35.7755 113.306H33.7959V115.285H35.7755V113.306Z" fill="#594A39"/>
<path d="M41.714 113.306H39.7344V115.285H41.714V113.306Z" fill="#594A39"/>
<path d="M51.6124 113.306H49.6328V115.285H51.6124V113.306Z" fill="#594A39"/>
<path d="M53.5919 113.306H51.6123V115.285H53.5919V113.306Z" fill="#594A39"/>
<path d="M55.5714 113.306H53.5918V115.285H55.5714V113.306Z" fill="#594A39"/>
<path d="M57.5509 113.306H55.5713V115.285H57.5509V113.306Z" fill="#594A39"/>
<path d="M75.3673 113.306H73.3877V115.285H75.3673V113.306Z" fill="#594A39"/>
<path d="M77.3468 113.306H75.3672V115.285H77.3468V113.306Z" fill="#594A39"/>
<path d="M81.3058 113.306H79.3262V115.285H81.3058V113.306Z" fill="#594A39"/>
<path d="M83.2853 113.306H81.3057V115.285H83.2853V113.306Z" fill="#594A39"/>
<path d="M85.2657 113.306H83.2861V115.285H85.2657V113.306Z" fill="#594A39"/>
<path d="M87.2452 113.306H85.2656V115.285H87.2452V113.306Z" fill="#594A39"/>
<path d="M89.2247 113.306H87.2451V115.285H89.2247V113.306Z" fill="#594A39"/>
<path d="M91.2042 113.306H89.2246V115.285H91.2042V113.306Z" fill="#594A39"/>
<path d="M99.1222 113.306H97.1426V115.285H99.1222V113.306Z" fill="#594A39"/>
<path d="M105.062 113.306H103.082V115.285H105.062V113.306Z" fill="#594A39"/>
<path d="M109.021 113.306H107.041V115.285H109.021V113.306Z" fill="#594A39"/>
<path d="M111 113.306H109.021V115.285H111V113.306Z" fill="#594A39"/>
<path d="M21.9181 115.286H19.9385V117.266H21.9181V115.286Z" fill="#594A39"/>
<path d="M23.8976 115.286H21.918V117.266H23.8976V115.286Z" fill="#594A39"/>
<path d="M33.796 115.286H31.8164V117.266H33.796V115.286Z" fill="#594A39"/>
<path d="M35.7755 115.286H33.7959V117.266H35.7755V115.286Z" fill="#594A39"/>
<path d="M37.755 115.286H35.7754V117.266H37.755V115.286Z" fill="#594A39"/>
<path d="M41.714 115.286H39.7344V117.266H41.714V115.286Z" fill="#594A39"/>
<path d="M51.6124 115.286H49.6328V117.266H51.6124V115.286Z" fill="#594A39"/>
<path d="M57.5509 115.286H55.5713V117.266H57.5509V115.286Z" fill="#594A39"/>
<path d="M63.4894 115.286H61.5098V117.266H63.4894V115.286Z" fill="#594A39"/>
<path d="M65.4698 115.286H63.4902V117.266H65.4698V115.286Z" fill="#594A39"/>
<path d="M67.4493 115.286H65.4697V117.266H67.4493V115.286Z" fill="#594A39"/>
<path d="M69.4288 115.286H67.4492V117.266H69.4288V115.286Z" fill="#594A39"/>
<path d="M71.4083 115.286H69.4287V117.266H71.4083V115.286Z" fill="#594A39"/>
<path d="M75.3673 115.286H73.3877V117.266H75.3673V115.286Z" fill="#594A39"/>
<path d="M79.3263 115.286H77.3467V117.266H79.3263V115.286Z" fill="#594A39"/>
<path d="M89.2247 115.286H87.2451V117.266H89.2247V115.286Z" fill="#594A39"/>
<path d="M95.1632 115.286H93.1836V117.266H95.1632V115.286Z" fill="#594A39"/>
<path d="M101.102 115.286H99.1221V117.266H101.102V115.286Z" fill="#594A39"/>
<path d="M111 115.286H109.021V117.266H111V115.286Z" fill="#594A39"/>
<path d="M25.878 117.266H23.8984V119.245H25.878V117.266Z" fill="#594A39"/>
<path d="M27.8575 117.266H25.8779V119.245H27.8575V117.266Z" fill="#594A39"/>
<path d="M29.837 117.266H27.8574V119.245H29.837V117.266Z" fill="#594A39"/>
<path d="M35.7755 117.266H33.7959V119.245H35.7755V117.266Z" fill="#594A39"/>
<path d="M37.755 117.266H35.7754V119.245H37.755V117.266Z" fill="#594A39"/>
<path d="M45.6739 117.266H43.6943V119.245H45.6739V117.266Z" fill="#594A39"/>
<path d="M51.6124 117.266H49.6328V119.245H51.6124V117.266Z" fill="#594A39"/>
<path d="M53.5919 117.266H51.6123V119.245H53.5919V117.266Z" fill="#594A39"/>
<path d="M55.5714 117.266H53.5918V119.245H55.5714V117.266Z" fill="#594A39"/>
<path d="M57.5509 117.266H55.5713V119.245H57.5509V117.266Z" fill="#594A39"/>
<path d="M59.5304 117.266H57.5508V119.245H59.5304V117.266Z" fill="#594A39"/>
<path d="M61.5099 117.266H59.5303V119.245H61.5099V117.266Z" fill="#594A39"/>
<path d="M73.3878 117.266H71.4082V119.245H73.3878V117.266Z" fill="#594A39"/>
<path d="M77.3468 117.266H75.3672V119.245H77.3468V117.266Z" fill="#594A39"/>
<path d="M81.3058 117.266H79.3262V119.245H81.3058V117.266Z" fill="#594A39"/>
<path d="M85.2657 117.266H83.2861V119.245H85.2657V117.266Z" fill="#594A39"/>
<path d="M87.2452 117.266H85.2656V119.245H87.2452V117.266Z" fill="#594A39"/>
<path d="M93.1837 117.266H91.2041V119.245H93.1837V117.266Z" fill="#594A39"/>
<path d="M95.1632 117.266H93.1836V119.245H95.1632V117.266Z" fill="#594A39"/>
<path d="M97.1427 117.266H95.1631V119.245H97.1427V117.266Z" fill="#594A39"/>
<path d="M99.1222 117.266H97.1426V119.245H99.1222V117.266Z" fill="#594A39"/>
<path d="M103.081 117.266H101.102V119.245H103.081V117.266Z" fill="#594A39"/>
<path d="M107.041 117.266H105.062V119.245H107.041V117.266Z" fill="#594A39"/>
<path d="M109.021 117.266H107.041V119.245H109.021V117.266Z" fill="#594A39"/>
<path d="M111 117.266H109.021V119.245H111V117.266Z" fill="#594A39"/>
<path d="M19.9386 119.245H17.959V121.225H19.9386V119.245Z" fill="#594A39"/>
<path d="M29.837 119.245H27.8574V121.225H29.837V119.245Z" fill="#594A39"/>
<path d="M33.796 119.245H31.8164V121.225H33.796V119.245Z" fill="#594A39"/>
<path d="M35.7755 119.245H33.7959V121.225H35.7755V119.245Z" fill="#594A39"/>
<path d="M37.755 119.245H35.7754V121.225H37.755V119.245Z" fill="#594A39"/>
<path d="M45.6739 119.245H43.6943V121.225H45.6739V119.245Z" fill="#594A39"/>
<path d="M51.6124 119.245H49.6328V121.225H51.6124V119.245Z" fill="#594A39"/>
<path d="M57.5509 119.245H55.5713V121.225H57.5509V119.245Z" fill="#594A39"/>
<path d="M59.5304 119.245H57.5508V121.225H59.5304V119.245Z" fill="#594A39"/>
<path d="M63.4894 119.245H61.5098V121.225H63.4894V119.245Z" fill="#594A39"/>
<path d="M65.4698 119.245H63.4902V121.225H65.4698V119.245Z" fill="#594A39"/>
<path d="M73.3878 119.245H71.4082V121.225H73.3878V119.245Z" fill="#594A39"/>
<path d="M75.3673 119.245H73.3877V121.225H75.3673V119.245Z" fill="#594A39"/>
<path d="M79.3263 119.245H77.3467V121.225H79.3263V119.245Z" fill="#594A39"/>
<path d="M85.2657 119.245H83.2861V121.225H85.2657V119.245Z" fill="#594A39"/>
<path d="M87.2452 119.245H85.2656V121.225H87.2452V119.245Z" fill="#594A39"/>
<path d="M95.1632 119.245H93.1836V121.225H95.1632V119.245Z" fill="#594A39"/>
<path d="M97.1427 119.245H95.1631V121.225H97.1427V119.245Z" fill="#594A39"/>
<path d="M99.1222 119.245H97.1426V121.225H99.1222V119.245Z" fill="#594A39"/>
<path d="M101.102 119.245H99.1221V121.225H101.102V119.245Z" fill="#594A39"/>
<path d="M107.041 119.245H105.062V121.225H107.041V119.245Z" fill="#594A39"/>
<path d="M109.021 119.245H107.041V121.225H109.021V119.245Z" fill="#594A39"/>
<path d="M17.9591 121.225H15.9795V123.204H17.9591V121.225Z" fill="#594A39"/>
<path d="M25.878 121.225H23.8984V123.204H25.878V121.225Z" fill="#594A39"/>
<path d="M27.8575 121.225H25.8779V123.204H27.8575V121.225Z" fill="#594A39"/>
<path d="M31.8165 121.225H29.8369V123.204H31.8165V121.225Z" fill="#594A39"/>
<path d="M35.7755 121.225H33.7959V123.204H35.7755V121.225Z" fill="#594A39"/>
<path d="M37.755 121.225H35.7754V123.204H37.755V121.225Z" fill="#594A39"/>
<path d="M39.7345 121.225H37.7549V123.204H39.7345V121.225Z" fill="#594A39"/>
<path d="M47.6534 121.225H45.6738V123.204H47.6534V121.225Z" fill="#594A39"/>
<path d="M53.5919 121.225H51.6123V123.204H53.5919V121.225Z" fill="#594A39"/>
<path d="M59.5304 121.225H57.5508V123.204H59.5304V121.225Z" fill="#594A39"/>
<path d="M65.4698 121.225H63.4902V123.204H65.4698V121.225Z" fill="#594A39"/>
<path d="M69.4288 121.225H67.4492V123.204H69.4288V121.225Z" fill="#594A39"/>
<path d="M77.3468 121.225H75.3672V123.204H77.3468V121.225Z" fill="#594A39"/>
<path d="M81.3058 121.225H79.3262V123.204H81.3058V121.225Z" fill="#594A39"/>
<path d="M83.2853 121.225H81.3057V123.204H83.2853V121.225Z" fill="#594A39"/>
<path d="M85.2657 121.225H83.2861V123.204H85.2657V121.225Z" fill="#594A39"/>
<path d="M87.2452 121.225H85.2656V123.204H87.2452V121.225Z" fill="#594A39"/>
<path d="M91.2042 121.225H89.2246V123.204H91.2042V121.225Z" fill="#594A39"/>
<path d="M99.1222 121.225H97.1426V123.204H99.1222V121.225Z" fill="#594A39"/>
<path d="M105.062 121.225H103.082V123.204H105.062V121.225Z" fill="#594A39"/>
<path d="M111 121.225H109.021V123.204H111V121.225Z" fill="#594A39"/>
<path d="M17.9591 123.204H15.9795V125.184H17.9591V123.204Z" fill="#594A39"/>
<path d="M19.9386 123.204H17.959V125.184H19.9386V123.204Z" fill="#594A39"/>
<path d="M21.9181 123.204H19.9385V125.184H21.9181V123.204Z" fill="#594A39"/>
<path d="M31.8165 123.204H29.8369V125.184H31.8165V123.204Z" fill="#594A39"/>
<path d="M35.7755 123.204H33.7959V125.184H35.7755V123.204Z" fill="#594A39"/>
<path d="M37.755 123.204H35.7754V125.184H37.755V123.204Z" fill="#594A39"/>
<path d="M41.714 123.204H39.7344V125.184H41.714V123.204Z" fill="#594A39"/>
<path d="M43.6935 123.204H41.7139V125.184H43.6935V123.204Z" fill="#594A39"/>
<path d="M45.6739 123.204H43.6943V125.184H45.6739V123.204Z" fill="#594A39"/>
<path d="M47.6534 123.204H45.6738V125.184H47.6534V123.204Z" fill="#594A39"/>
<path d="M49.6329 123.204H47.6533V125.184H49.6329V123.204Z" fill="#594A39"/>
<path d="M51.6124 123.204H49.6328V125.184H51.6124V123.204Z" fill="#594A39"/>
<path d="M55.5714 123.204H53.5918V125.184H55.5714V123.204Z" fill="#594A39"/>
<path d="M57.5509 123.204H55.5713V125.184H57.5509V123.204Z" fill="#594A39"/>
<path d="M59.5304 123.204H57.5508V125.184H59.5304V123.204Z" fill="#594A39"/>
<path d="M61.5099 123.204H59.5303V125.184H61.5099V123.204Z" fill="#594A39"/>
<path d="M63.4894 123.204H61.5098V125.184H63.4894V123.204Z" fill="#594A39"/>
<path d="M65.4698 123.204H63.4902V125.184H65.4698V123.204Z" fill="#594A39"/>
<path d="M67.4493 123.204H65.4697V125.184H67.4493V123.204Z" fill="#594A39"/>
<path d="M71.4083 123.204H69.4287V125.184H71.4083V123.204Z" fill="#594A39"/>
<path d="M73.3878 123.204H71.4082V125.184H73.3878V123.204Z" fill="#594A39"/>
<path d="M75.3673 123.204H73.3877V125.184H75.3673V123.204Z" fill="#594A39"/>
<path d="M79.3263 123.204H77.3467V125.184H79.3263V123.204Z" fill="#594A39"/>
<path d="M81.3058 123.204H79.3262V125.184H81.3058V123.204Z" fill="#594A39"/>
<path d="M95.1632 123.204H93.1836V125.184H95.1632V123.204Z" fill="#594A39"/>
<path d="M97.1427 123.204H95.1631V125.184H97.1427V123.204Z" fill="#594A39"/>
<path d="M101.102 123.204H99.1221V125.184H101.102V123.204Z" fill="#594A39"/>
<path d="M103.081 123.204H101.102V125.184H103.081V123.204Z" fill="#594A39"/>
<path d="M109.021 123.204H107.041V125.184H109.021V123.204Z" fill="#594A39"/>
<path d="M111 123.204H109.021V125.184H111V123.204Z" fill="#594A39"/>
<path d="M15.9796 125.184H14V127.163H15.9796V125.184Z" fill="#594A39"/>
<path d="M17.9591 125.184H15.9795V127.163H17.9591V125.184Z" fill="#594A39"/>
<path d="M19.9386 125.184H17.959V127.163H19.9386V125.184Z" fill="#594A39"/>
<path d="M27.8575 125.184H25.8779V127.163H27.8575V125.184Z" fill="#594A39"/>
<path d="M29.837 125.184H27.8574V127.163H29.837V125.184Z" fill="#594A39"/>
<path d="M33.796 125.184H31.8164V127.163H33.796V125.184Z" fill="#594A39"/>
<path d="M35.7755 125.184H33.7959V127.163H35.7755V125.184Z" fill="#594A39"/>
<path d="M43.6935 125.184H41.7139V127.163H43.6935V125.184Z" fill="#594A39"/>
<path d="M45.6739 125.184H43.6943V127.163H45.6739V125.184Z" fill="#594A39"/>
<path d="M47.6534 125.184H45.6738V127.163H47.6534V125.184Z" fill="#594A39"/>
<path d="M49.6329 125.184H47.6533V127.163H49.6329V125.184Z" fill="#594A39"/>
<path d="M51.6124 125.184H49.6328V127.163H51.6124V125.184Z" fill="#594A39"/>
<path d="M55.5714 125.184H53.5918V127.163H55.5714V125.184Z" fill="#594A39"/>
<path d="M57.5509 125.184H55.5713V127.163H57.5509V125.184Z" fill="#594A39"/>
<path d="M59.5304 125.184H57.5508V127.163H59.5304V125.184Z" fill="#594A39"/>
<path d="M61.5099 125.184H59.5303V127.163H61.5099V125.184Z" fill="#594A39"/>
<path d="M63.4894 125.184H61.5098V127.163H63.4894V125.184Z" fill="#594A39"/>
<path d="M65.4698 125.184H63.4902V127.163H65.4698V125.184Z" fill="#594A39"/>
<path d="M67.4493 125.184H65.4697V127.163H67.4493V125.184Z" fill="#594A39"/>
<path d="M69.4288 125.184H67.4492V127.163H69.4288V125.184Z" fill="#594A39"/>
<path d="M75.3673 125.184H73.3877V127.163H75.3673V125.184Z" fill="#594A39"/>
<path d="M77.3468 125.184H75.3672V127.163H77.3468V125.184Z" fill="#594A39"/>
<path d="M85.2657 125.184H83.2861V127.163H85.2657V125.184Z" fill="#594A39"/>
<path d="M87.2452 125.184H85.2656V127.163H87.2452V125.184Z" fill="#594A39"/>
<path d="M91.2042 125.184H89.2246V127.163H91.2042V125.184Z" fill="#594A39"/>
<path d="M93.1837 125.184H91.2041V127.163H93.1837V125.184Z" fill="#594A39"/>
<path d="M95.1632 125.184H93.1836V127.163H95.1632V125.184Z" fill="#594A39"/>
<path d="M97.1427 125.184H95.1631V127.163H97.1427V125.184Z" fill="#594A39"/>
<path d="M99.1222 125.184H97.1426V127.163H99.1222V125.184Z" fill="#594A39"/>
<path d="M101.102 125.184H99.1221V127.163H101.102V125.184Z" fill="#594A39"/>
<path d="M103.081 125.184H101.102V127.163H103.081V125.184Z" fill="#594A39"/>
<path d="M105.062 125.184H103.082V127.163H105.062V125.184Z" fill="#594A39"/>
<path d="M107.041 125.184H105.062V127.163H107.041V125.184Z" fill="#594A39"/>
<path d="M111 125.184H109.021V127.163H111V125.184Z" fill="#594A39"/>
<path d="M31.8165 127.163H29.8369V129.143H31.8165V127.163Z" fill="#594A39"/>
<path d="M37.755 127.163H35.7754V129.143H37.755V127.163Z" fill="#594A39"/>
<path d="M41.714 127.163H39.7344V129.143H41.714V127.163Z" fill="#594A39"/>
<path d="M45.6739 127.163H43.6943V129.143H45.6739V127.163Z" fill="#594A39"/>
<path d="M57.5509 127.163H55.5713V129.143H57.5509V127.163Z" fill="#594A39"/>
<path d="M59.5304 127.163H57.5508V129.143H59.5304V127.163Z" fill="#594A39"/>
<path d="M67.4493 127.163H65.4697V129.143H67.4493V127.163Z" fill="#594A39"/>
<path d="M75.3673 127.163H73.3877V129.143H75.3673V127.163Z" fill="#594A39"/>
<path d="M79.3263 127.163H77.3467V129.143H79.3263V127.163Z" fill="#594A39"/>
<path d="M85.2657 127.163H83.2861V129.143H85.2657V127.163Z" fill="#594A39"/>
<path d="M87.2452 127.163H85.2656V129.143H87.2452V127.163Z" fill="#594A39"/>
<path d="M89.2247 127.163H87.2451V129.143H89.2247V127.163Z" fill="#594A39"/>
<path d="M95.1632 127.163H93.1836V129.143H95.1632V127.163Z" fill="#594A39"/>
<path d="M103.081 127.163H101.102V129.143H103.081V127.163Z" fill="#594A39"/>
<path d="M107.041 127.163H105.062V129.143H107.041V127.163Z" fill="#594A39"/>
<path d="M15.9796 129.143H14V131.122H15.9796V129.143Z" fill="#594A39"/>
<path d="M17.9591 129.143H15.9795V131.122H17.9591V129.143Z" fill="#594A39"/>
<path d="M19.9386 129.143H17.959V131.122H19.9386V129.143Z" fill="#594A39"/>
<path d="M21.9181 129.143H19.9385V131.122H21.9181V129.143Z" fill="#594A39"/>
<path d="M23.8976 129.143H21.918V131.122H23.8976V129.143Z" fill="#594A39"/>
<path d="M25.878 129.143H23.8984V131.122H25.878V129.143Z" fill="#594A39"/>
<path d="M27.8575 129.143H25.8779V131.122H27.8575V129.143Z" fill="#594A39"/>
<path d="M33.796 129.143H31.8164V131.122H33.796V129.143Z" fill="#594A39"/>
<path d="M35.7755 129.143H33.7959V131.122H35.7755V129.143Z" fill="#594A39"/>
<path d="M39.7345 129.143H37.7549V131.122H39.7345V129.143Z" fill="#594A39"/>
<path d="M43.6935 129.143H41.7139V131.122H43.6935V129.143Z" fill="#594A39"/>
<path d="M49.6329 129.143H47.6533V131.122H49.6329V129.143Z" fill="#594A39"/>
<path d="M53.5919 129.143H51.6123V131.122H53.5919V129.143Z" fill="#594A39"/>
<path d="M55.5714 129.143H53.5918V131.122H55.5714V129.143Z" fill="#594A39"/>
<path d="M57.5509 129.143H55.5713V131.122H57.5509V129.143Z" fill="#594A39"/>
<path d="M59.5304 129.143H57.5508V131.122H59.5304V129.143Z" fill="#594A39"/>
<path d="M63.4894 129.143H61.5098V131.122H63.4894V129.143Z" fill="#594A39"/>
<path d="M67.4493 129.143H65.4697V131.122H67.4493V129.143Z" fill="#594A39"/>
<path d="M71.4083 129.143H69.4287V131.122H71.4083V129.143Z" fill="#594A39"/>
<path d="M73.3878 129.143H71.4082V131.122H73.3878V129.143Z" fill="#594A39"/>
<path d="M83.2853 129.143H81.3057V131.122H83.2853V129.143Z" fill="#594A39"/>
<path d="M85.2657 129.143H83.2861V131.122H85.2657V129.143Z" fill="#594A39"/>
<path d="M87.2452 129.143H85.2656V131.122H87.2452V129.143Z" fill="#594A39"/>
<path d="M91.2042 129.143H89.2246V131.122H91.2042V129.143Z" fill="#594A39"/>
<path d="M95.1632 129.143H93.1836V131.122H95.1632V129.143Z" fill="#594A39"/>
<path d="M99.1222 129.143H97.1426V131.122H99.1222V129.143Z" fill="#594A39"/>
<path d="M103.081 129.143H101.102V131.122H103.081V129.143Z" fill="#594A39"/>
<path d="M109.021 129.143H107.041V131.122H109.021V129.143Z" fill="#594A39"/>
<path d="M111 129.143H109.021V131.122H111V129.143Z" fill="#594A39"/>
<path d="M15.9796 131.122H14V133.102H15.9796V131.122Z" fill="#594A39"/>
<path d="M27.8575 131.122H25.8779V133.102H27.8575V131.122Z" fill="#594A39"/>
<path d="M31.8165 131.122H29.8369V133.102H31.8165V131.122Z" fill="#594A39"/>
<path d="M33.796 131.122H31.8164V133.102H33.796V131.122Z" fill="#594A39"/>
<path d="M35.7755 131.122H33.7959V133.102H35.7755V131.122Z" fill="#594A39"/>
<path d="M49.6329 131.122H47.6533V133.102H49.6329V131.122Z" fill="#594A39"/>
<path d="M57.5509 131.122H55.5713V133.102H57.5509V131.122Z" fill="#594A39"/>
<path d="M59.5304 131.122H57.5508V133.102H59.5304V131.122Z" fill="#594A39"/>
<path d="M67.4493 131.122H65.4697V133.102H67.4493V131.122Z" fill="#594A39"/>
<path d="M69.4288 131.122H67.4492V133.102H69.4288V131.122Z" fill="#594A39"/>
<path d="M71.4083 131.122H69.4287V133.102H71.4083V131.122Z" fill="#594A39"/>
<path d="M75.3673 131.122H73.3877V133.102H75.3673V131.122Z" fill="#594A39"/>
<path d="M79.3263 131.122H77.3467V133.102H79.3263V131.122Z" fill="#594A39"/>
<path d="M83.2853 131.122H81.3057V133.102H83.2853V131.122Z" fill="#594A39"/>
<path d="M89.2247 131.122H87.2451V133.102H89.2247V131.122Z" fill="#594A39"/>
<path d="M95.1632 131.122H93.1836V133.102H95.1632V131.122Z" fill="#594A39"/>
<path d="M103.081 131.122H101.102V133.102H103.081V131.122Z" fill="#594A39"/>
<path d="M109.021 131.122H107.041V133.102H109.021V131.122Z" fill="#594A39"/>
<path d="M15.9796 133.102H14V135.081H15.9796V133.102Z" fill="#594A39"/>
<path d="M19.9386 133.102H17.959V135.081H19.9386V133.102Z" fill="#594A39"/>
<path d="M21.9181 133.102H19.9385V135.081H21.9181V133.102Z" fill="#594A39"/>
<path d="M23.8976 133.102H21.918V135.081H23.8976V133.102Z" fill="#594A39"/>
<path d="M27.8575 133.102H25.8779V135.081H27.8575V133.102Z" fill="#594A39"/>
<path d="M31.8165 133.102H29.8369V135.081H31.8165V133.102Z" fill="#594A39"/>
<path d="M33.796 133.102H31.8164V135.081H33.796V133.102Z" fill="#594A39"/>
<path d="M37.755 133.102H35.7754V135.081H37.755V133.102Z" fill="#594A39"/>
<path d="M39.7345 133.102H37.7549V135.081H39.7345V133.102Z" fill="#594A39"/>
<path d="M41.714 133.102H39.7344V135.081H41.714V133.102Z" fill="#594A39"/>
<path d="M47.6534 133.102H45.6738V135.081H47.6534V133.102Z" fill="#594A39"/>
<path d="M57.5509 133.102H55.5713V135.081H57.5509V133.102Z" fill="#594A39"/>
<path d="M59.5304 133.102H57.5508V135.081H59.5304V133.102Z" fill="#594A39"/>
<path d="M61.5099 133.102H59.5303V135.081H61.5099V133.102Z" fill="#594A39"/>
<path d="M63.4894 133.102H61.5098V135.081H63.4894V133.102Z" fill="#594A39"/>
<path d="M65.4698 133.102H63.4902V135.081H65.4698V133.102Z" fill="#594A39"/>
<path d="M67.4493 133.102H65.4697V135.081H67.4493V133.102Z" fill="#594A39"/>
<path d="M77.3468 133.102H75.3672V135.081H77.3468V133.102Z" fill="#594A39"/>
<path d="M85.2657 133.102H83.2861V135.081H85.2657V133.102Z" fill="#594A39"/>
<path d="M87.2452 133.102H85.2656V135.081H87.2452V133.102Z" fill="#594A39"/>
<path d="M89.2247 133.102H87.2451V135.081H89.2247V133.102Z" fill="#594A39"/>
<path d="M91.2042 133.102H89.2246V135.081H91.2042V133.102Z" fill="#594A39"/>
<path d="M95.1632 133.102H93.1836V135.081H95.1632V133.102Z" fill="#594A39"/>
<path d="M97.1427 133.102H95.1631V135.081H97.1427V133.102Z" fill="#594A39"/>
<path d="M99.1222 133.102H97.1426V135.081H99.1222V133.102Z" fill="#594A39"/>
<path d="M101.102 133.102H99.1221V135.081H101.102V133.102Z" fill="#594A39"/>
<path d="M103.081 133.102H101.102V135.081H103.081V133.102Z" fill="#594A39"/>
<path d="M111 133.102H109.021V135.081H111V133.102Z" fill="#594A39"/>
<path d="M15.9796 135.082H14V137.062H15.9796V135.082Z" fill="#594A39"/>
<path d="M19.9386 135.082H17.959V137.062H19.9386V135.082Z" fill="#594A39"/>
<path d="M21.9181 135.082H19.9385V137.062H21.9181V135.082Z" fill="#594A39"/>
<path d="M23.8976 135.082H21.918V137.062H23.8976V135.082Z" fill="#594A39"/>
<path d="M27.8575 135.082H25.8779V137.062H27.8575V135.082Z" fill="#594A39"/>
<path d="M31.8165 135.082H29.8369V137.062H31.8165V135.082Z" fill="#594A39"/>
<path d="M35.7755 135.082H33.7959V137.062H35.7755V135.082Z" fill="#594A39"/>
<path d="M43.6935 135.082H41.7139V137.062H43.6935V135.082Z" fill="#594A39"/>
<path d="M45.6739 135.082H43.6943V137.062H45.6739V135.082Z" fill="#594A39"/>
<path d="M47.6534 135.082H45.6738V137.062H47.6534V135.082Z" fill="#594A39"/>
<path d="M49.6329 135.082H47.6533V137.062H49.6329V135.082Z" fill="#594A39"/>
<path d="M51.6124 135.082H49.6328V137.062H51.6124V135.082Z" fill="#594A39"/>
<path d="M53.5919 135.082H51.6123V137.062H53.5919V135.082Z" fill="#594A39"/>
<path d="M55.5714 135.082H53.5918V137.062H55.5714V135.082Z" fill="#594A39"/>
<path d="M59.5304 135.082H57.5508V137.062H59.5304V135.082Z" fill="#594A39"/>
<path d="M61.5099 135.082H59.5303V137.062H61.5099V135.082Z" fill="#594A39"/>
<path d="M65.4698 135.082H63.4902V137.062H65.4698V135.082Z" fill="#594A39"/>
<path d="M67.4493 135.082H65.4697V137.062H67.4493V135.082Z" fill="#594A39"/>
<path d="M71.4083 135.082H69.4287V137.062H71.4083V135.082Z" fill="#594A39"/>
<path d="M73.3878 135.082H71.4082V137.062H73.3878V135.082Z" fill="#594A39"/>
<path d="M75.3673 135.082H73.3877V137.062H75.3673V135.082Z" fill="#594A39"/>
<path d="M79.3263 135.082H77.3467V137.062H79.3263V135.082Z" fill="#594A39"/>
<path d="M89.2247 135.082H87.2451V137.062H89.2247V135.082Z" fill="#594A39"/>
<path d="M93.1837 135.082H91.2041V137.062H93.1837V135.082Z" fill="#594A39"/>
<path d="M99.1222 135.082H97.1426V137.062H99.1222V135.082Z" fill="#594A39"/>
<path d="M101.102 135.082H99.1221V137.062H101.102V135.082Z" fill="#594A39"/>
<path d="M103.081 135.082H101.102V137.062H103.081V135.082Z" fill="#594A39"/>
<path d="M105.062 135.082H103.082V137.062H105.062V135.082Z" fill="#594A39"/>
<path d="M109.021 135.082H107.041V137.062H109.021V135.082Z" fill="#594A39"/>
<path d="M111 135.082H109.021V137.062H111V135.082Z" fill="#594A39"/>
<path d="M15.9796 137.062H14V139.041H15.9796V137.062Z" fill="#594A39"/>
<path d="M19.9386 137.062H17.959V139.041H19.9386V137.062Z" fill="#594A39"/>
<path d="M21.9181 137.062H19.9385V139.041H21.9181V137.062Z" fill="#594A39"/>
<path d="M23.8976 137.062H21.918V139.041H23.8976V137.062Z" fill="#594A39"/>
<path d="M27.8575 137.062H25.8779V139.041H27.8575V137.062Z" fill="#594A39"/>
<path d="M31.8165 137.062H29.8369V139.041H31.8165V137.062Z" fill="#594A39"/>
<path d="M33.796 137.062H31.8164V139.041H33.796V137.062Z" fill="#594A39"/>
<path d="M35.7755 137.062H33.7959V139.041H35.7755V137.062Z" fill="#594A39"/>
<path d="M39.7345 137.062H37.7549V139.041H39.7345V137.062Z" fill="#594A39"/>
<path d="M41.714 137.062H39.7344V139.041H41.714V137.062Z" fill="#594A39"/>
<path d="M51.6124 137.062H49.6328V139.041H51.6124V137.062Z" fill="#594A39"/>
<path d="M55.5714 137.062H53.5918V139.041H55.5714V137.062Z" fill="#594A39"/>
<path d="M61.5099 137.062H59.5303V139.041H61.5099V137.062Z" fill="#594A39"/>
<path d="M63.4894 137.062H61.5098V139.041H63.4894V137.062Z" fill="#594A39"/>
<path d="M71.4083 137.062H69.4287V139.041H71.4083V137.062Z" fill="#594A39"/>
<path d="M81.3058 137.062H79.3262V139.041H81.3058V137.062Z" fill="#594A39"/>
<path d="M85.2657 137.062H83.2861V139.041H85.2657V137.062Z" fill="#594A39"/>
<path d="M91.2042 137.062H89.2246V139.041H91.2042V137.062Z" fill="#594A39"/>
<path d="M97.1427 137.062H95.1631V139.041H97.1427V137.062Z" fill="#594A39"/>
<path d="M101.102 137.062H99.1221V139.041H101.102V137.062Z" fill="#594A39"/>
<path d="M15.9796 139.041H14V141.021H15.9796V139.041Z" fill="#594A39"/>
<path d="M27.8575 139.041H25.8779V141.021H27.8575V139.041Z" fill="#594A39"/>
<path d="M33.796 139.041H31.8164V141.021H33.796V139.041Z" fill="#594A39"/>
<path d="M35.7755 139.041H33.7959V141.021H35.7755V139.041Z" fill="#594A39"/>
<path d="M37.755 139.041H35.7754V141.021H37.755V139.041Z" fill="#594A39"/>
<path d="M39.7345 139.041H37.7549V141.021H39.7345V139.041Z" fill="#594A39"/>
<path d="M41.714 139.041H39.7344V141.021H41.714V139.041Z" fill="#594A39"/>
<path d="M43.6935 139.041H41.7139V141.021H43.6935V139.041Z" fill="#594A39"/>
<path d="M47.6534 139.041H45.6738V141.021H47.6534V139.041Z" fill="#594A39"/>
<path d="M53.5919 139.041H51.6123V141.021H53.5919V139.041Z" fill="#594A39"/>
<path d="M55.5714 139.041H53.5918V141.021H55.5714V139.041Z" fill="#594A39"/>
<path d="M57.5509 139.041H55.5713V141.021H57.5509V139.041Z" fill="#594A39"/>
<path d="M59.5304 139.041H57.5508V141.021H59.5304V139.041Z" fill="#594A39"/>
<path d="M61.5099 139.041H59.5303V141.021H61.5099V139.041Z" fill="#594A39"/>
<path d="M65.4698 139.041H63.4902V141.021H65.4698V139.041Z" fill="#594A39"/>
<path d="M69.4288 139.041H67.4492V141.021H69.4288V139.041Z" fill="#594A39"/>
<path d="M71.4083 139.041H69.4287V141.021H71.4083V139.041Z" fill="#594A39"/>
<path d="M73.3878 139.041H71.4082V141.021H73.3878V139.041Z" fill="#594A39"/>
<path d="M75.3673 139.041H73.3877V141.021H75.3673V139.041Z" fill="#594A39"/>
<path d="M77.3468 139.041H75.3672V141.021H77.3468V139.041Z" fill="#594A39"/>
<path d="M79.3263 139.041H77.3467V141.021H79.3263V139.041Z" fill="#594A39"/>
<path d="M81.3058 139.041H79.3262V141.021H81.3058V139.041Z" fill="#594A39"/>
<path d="M83.2853 139.041H81.3057V141.021H83.2853V139.041Z" fill="#594A39"/>
<path d="M87.2452 139.041H85.2656V141.021H87.2452V139.041Z" fill="#594A39"/>
<path d="M93.1837 139.041H91.2041V141.021H93.1837V139.041Z" fill="#594A39"/>
<path d="M95.1632 139.041H93.1836V141.021H95.1632V139.041Z" fill="#594A39"/>
<path d="M97.1427 139.041H95.1631V141.021H97.1427V139.041Z" fill="#594A39"/>
<path d="M99.1222 139.041H97.1426V141.021H99.1222V139.041Z" fill="#594A39"/>
<path d="M111 139.041H109.021V141.021H111V139.041Z" fill="#594A39"/>
<path d="M15.9796 141.021H14V143H15.9796V141.021Z" fill="#594A39"/>
<path d="M17.9591 141.021H15.9795V143H17.9591V141.021Z" fill="#594A39"/>
<path d="M19.9386 141.021H17.959V143H19.9386V141.021Z" fill="#594A39"/>
<path d="M21.9181 141.021H19.9385V143H21.9181V141.021Z" fill="#594A39"/>
<path d="M23.8976 141.021H21.918V143H23.8976V141.021Z" fill="#594A39"/>
<path d="M25.878 141.021H23.8984V143H25.878V141.021Z" fill="#594A39"/>
<path d="M27.8575 141.021H25.8779V143H27.8575V141.021Z" fill="#594A39"/>
<path d="M31.8165 141.021H29.8369V143H31.8165V141.021Z" fill="#594A39"/>
<path d="M37.755 141.021H35.7754V143H37.755V141.021Z" fill="#594A39"/>
<path d="M41.714 141.021H39.7344V143H41.714V141.021Z" fill="#594A39"/>
<path d="M43.6935 141.021H41.7139V143H43.6935V141.021Z" fill="#594A39"/>
<path d="M45.6739 141.021H43.6943V143H45.6739V141.021Z" fill="#594A39"/>
<path d="M49.6329 141.021H47.6533V143H49.6329V141.021Z" fill="#594A39"/>
<path d="M51.6124 141.021H49.6328V143H51.6124V141.021Z" fill="#594A39"/>
<path d="M61.5099 141.021H59.5303V143H61.5099V141.021Z" fill="#594A39"/>
<path d="M65.4698 141.021H63.4902V143H65.4698V141.021Z" fill="#594A39"/>
<path d="M75.3673 141.021H73.3877V143H75.3673V141.021Z" fill="#594A39"/>
<path d="M77.3468 141.021H75.3672V143H77.3468V141.021Z" fill="#594A39"/>
<path d="M85.2657 141.021H83.2861V143H85.2657V141.021Z" fill="#594A39"/>
<path d="M87.2452 141.021H85.2656V143H87.2452V141.021Z" fill="#594A39"/>
<path d="M91.2042 141.021H89.2246V143H91.2042V141.021Z" fill="#594A39"/>
<path d="M93.1837 141.021H91.2041V143H93.1837V141.021Z" fill="#594A39"/>
<path d="M107.041 141.021H105.062V143H107.041V141.021Z" fill="#594A39"/>
<path d="M109.021 141.021H107.041V143H109.021V141.021Z" fill="#594A39"/>
<path d="M111 141.021H109.021V143H111V141.021Z" fill="#594A39"/>
</svg>
