<svg width="125" height="163" viewBox="0 0 125 163" fill="none" xmlns="http://www.w3.org/2000/svg">
<rect x="1.5" y="1.5" width="122" height="160" rx="8.5" fill="white"/>
<rect x="1.5" y="1.5" width="122" height="160" rx="8.5" stroke="#E9E3D8" stroke-width="3"/>
<path d="M25.2594 26.7844L23.6816 27.2828C23.6383 26.9577 23.5735 26.5677 23.487 26.1777C19.3804 26.7844 18.6888 26.9577 18.2565 27.1744C18.1484 26.7627 17.8458 25.8093 17.6297 25.2893C18.1052 25.1593 18.6023 24.6609 19.2723 23.8808C19.5533 23.5341 20.1585 22.7757 20.8285 21.779C18.9049 22.0173 18.4294 22.1473 18.1052 22.2557C17.9971 21.8873 17.7161 20.9772 17.5 20.5005C17.889 20.4139 18.2349 19.9588 18.6671 19.3304C19.0994 18.7021 20.4827 16.2969 21.2608 14L23.1196 14.7584C22.255 16.6436 21.1744 18.6154 20.072 20.1972L21.9524 20.0455C22.536 19.1354 23.098 18.1387 23.5303 17.1636L25.2594 18.2254C23.9841 20.5655 22.2983 22.9707 20.6124 24.9209L23.1628 24.5959C22.9899 23.9242 22.7954 23.2308 22.5793 22.6457L24.0706 22.2557C24.5893 23.7291 25.1081 25.636 25.2594 26.7844ZM18.5159 27.9762L20.0937 28.2579C19.8991 30.1863 19.5101 32.2665 19.0562 33.6316C18.7104 33.4366 17.9539 33.1983 17.5432 33.0683C18.0403 31.7248 18.3429 29.7746 18.5159 27.9762ZM20.6988 28.2145L22.147 27.9545C22.4063 29.4063 22.6225 31.2698 22.6657 32.5265L21.1311 32.8082C21.1095 31.5515 20.915 29.6446 20.6988 28.2145ZM22.7522 27.8028L24.0922 27.3694C24.5029 28.4095 24.9135 29.7313 25.0865 30.6197L23.6816 31.1181C23.5303 30.208 23.1412 28.8212 22.7522 27.8028ZM29.1931 25.5276L30.3602 25.9393C29.647 29.2329 27.8963 31.6165 25.6916 32.8949C25.4323 32.5049 24.9135 31.8332 24.5461 31.5081C26.0375 30.6847 27.3775 29.1246 28.1124 27.2394H25.7349V25.5926H28.8905L29.1931 25.5276ZM28.3718 20.8689V22.429H34.5101V20.8689H28.3718ZM28.3718 17.8787V19.4171H34.5101V17.8787H28.3718ZM35.6556 24.5742L37.147 25.8093C36.1744 26.6544 35.1153 27.5645 34.2075 28.2362C35.0937 29.623 36.2392 30.7714 37.5576 31.4648C37.1254 31.8115 36.5418 32.5482 36.2392 33.0466C34.7695 32.0932 33.5375 30.5547 32.6081 28.7346V31.8332C32.6081 32.7866 32.4135 33.3283 31.7867 33.6316C31.1599 33.935 30.1873 33.9567 28.8256 33.9567C28.7608 33.4149 28.5014 32.6132 28.2637 32.1148C29.1715 32.1582 30.0793 32.1582 30.3386 32.1365C30.6196 32.1148 30.6844 32.0498 30.6844 31.8115V24.0108H26.4914V16.3185H29.6902C29.9712 15.5818 30.2305 14.6934 30.3818 14.0217L32.6513 14.4767C32.3487 15.1051 32.0461 15.7551 31.7219 16.3185H36.4769V24.0108H32.6081V24.7692C32.8458 25.506 33.1052 26.221 33.451 26.8927C34.2507 26.156 35.0937 25.2459 35.6556 24.5742Z" fill="#B8C318"/>
<path d="M51.2824 30.8581H60.5764V32.8949H41.232V30.8581H49.121V14.3467H51.2824V20.7822H59.085V22.7974H51.2824V30.8581Z" fill="#B8C318"/>
<path d="M75.2089 26.2644H80.6988V23.4041H75.2089V26.2644ZM67.7954 26.2644H73.134V23.4041H67.7954V26.2644ZM73.134 18.8321H67.7954V21.5406H73.134V18.8321ZM80.6988 18.8321H75.2089V21.5406H80.6988V18.8321ZM75.2089 16.9036H82.7738V29.2763H80.6988V28.1928H75.2089V33.935H73.134V28.1928H67.7954V29.3846H65.8069V16.9036H73.134V14.065H75.2089V16.9036Z" fill="#B8C318"/>
<path d="M107.241 16.7952V18.442H100.908V16.7952H103.242C103.004 16.0802 102.659 15.2784 102.313 14.6284L103.977 14.13C104.409 14.9534 104.885 15.9935 105.187 16.7952H107.241ZM103.501 22.169L102.075 22.559C102.053 21.6273 101.794 20.1538 101.448 19.0271L102.788 18.6804C103.177 19.7855 103.48 21.2156 103.501 22.169ZM94.0562 16.8386V18.4854H87.8746V16.8386H90.1657C89.928 16.1668 89.6037 15.3868 89.2795 14.7801L90.9438 14.2817C91.3977 15.0618 91.83 16.0802 92.0893 16.8386H94.0562ZM90.3602 22.169L88.9121 22.559C88.9121 21.649 88.6744 20.2189 88.3501 19.1138L89.6902 18.7671C90.0576 19.8288 90.317 21.2373 90.3602 22.169ZM93.7752 28.1712H91.7651C91.6138 30.208 90.9654 32.4615 89.0634 34C88.804 33.61 88.2637 33.0033 87.8746 32.6999C89.4308 31.5731 89.8631 29.7746 89.9712 28.1712H87.9827V26.5244H90.0144V24.2709H87.7234V22.6241H91.1167C91.4409 21.4973 91.83 19.8288 91.9813 18.6587L93.5375 18.9837C93.1917 20.1972 92.8242 21.5623 92.5 22.6241H94.1427V24.2709H91.8084V26.5244H93.7752V28.1712ZM100.065 18.8537V19.6988C99.9352 28.9079 99.8271 31.8982 99.33 32.7216C99.0058 33.2633 98.6599 33.4583 98.1196 33.545C97.6873 33.6316 97.0605 33.61 96.3905 33.5883C96.3689 33.1116 96.196 32.3965 95.9582 31.9415C96.5418 31.9848 97.0605 31.9848 97.3415 31.9848C97.5793 31.9848 97.7305 31.9198 97.8818 31.6381C98.2061 31.0748 98.3141 28.4095 98.4222 20.5872H97.1902C96.9525 26.156 96.2824 30.6414 94.121 33.9783C93.9049 33.675 93.17 33.0683 92.8242 32.7866C94.8127 29.948 95.4611 25.7226 95.6556 20.5872H94.4885V18.8537H95.6989C95.7205 17.3153 95.7205 15.7118 95.7205 14.065H97.2983C97.2983 15.7335 97.2767 17.3153 97.2334 18.8537H100.065ZM107.5 24.2925H105.101V26.8494H107.241V28.4962H105.101V33.8917H103.285V28.4962H101.21V26.8494H103.285V24.2925H100.821V22.6457H104.409C104.755 21.4973 105.144 19.7638 105.295 18.5937L106.83 18.9404C106.549 20.1538 106.182 21.5623 105.857 22.6457H107.5V24.2925Z" fill="#B8C318"/>
<path d="M15.9796 46H14V47.9796H15.9796V46Z" fill="#594A39"/>
<path d="M17.9591 46H15.9795V47.9796H17.9591V46Z" fill="#594A39"/>
<path d="M19.9386 46H17.959V47.9796H19.9386V46Z" fill="#594A39"/>
<path d="M21.9181 46H19.9385V47.9796H21.9181V46Z" fill="#594A39"/>
<path d="M23.8976 46H21.918V47.9796H23.8976V46Z" fill="#594A39"/>
<path d="M25.878 46H23.8984V47.9796H25.878V46Z" fill="#594A39"/>
<path d="M27.8575 46H25.8779V47.9796H27.8575V46Z" fill="#594A39"/>
<path d="M31.8165 46H29.8369V47.9796H31.8165V46Z" fill="#594A39"/>
<path d="M33.796 46H31.8164V47.9796H33.796V46Z" fill="#594A39"/>
<path d="M35.7755 46H33.7959V47.9796H35.7755V46Z" fill="#594A39"/>
<path d="M41.714 46H39.7344V47.9796H41.714V46Z" fill="#594A39"/>
<path d="M45.6739 46H43.6943V47.9796H45.6739V46Z" fill="#594A39"/>
<path d="M47.6534 46H45.6738V47.9796H47.6534V46Z" fill="#594A39"/>
<path d="M61.5099 46H59.5303V47.9796H61.5099V46Z" fill="#594A39"/>
<path d="M63.4894 46H61.5098V47.9796H63.4894V46Z" fill="#594A39"/>
<path d="M65.4698 46H63.4902V47.9796H65.4698V46Z" fill="#594A39"/>
<path d="M73.3878 46H71.4082V47.9796H73.3878V46Z" fill="#594A39"/>
<path d="M75.3673 46H73.3877V47.9796H75.3673V46Z" fill="#594A39"/>
<path d="M77.3468 46H75.3672V47.9796H77.3468V46Z" fill="#594A39"/>
<path d="M95.1632 46H93.1836V47.9796H95.1632V46Z" fill="#594A39"/>
<path d="M99.1222 46H97.1426V47.9796H99.1222V46Z" fill="#594A39"/>
<path d="M101.102 46H99.1221V47.9796H101.102V46Z" fill="#594A39"/>
<path d="M103.081 46H101.102V47.9796H103.081V46Z" fill="#594A39"/>
<path d="M105.062 46H103.082V47.9796H105.062V46Z" fill="#594A39"/>
<path d="M107.041 46H105.062V47.9796H107.041V46Z" fill="#594A39"/>
<path d="M109.021 46H107.041V47.9796H109.021V46Z" fill="#594A39"/>
<path d="M111 46H109.021V47.9796H111V46Z" fill="#594A39"/>
<path d="M15.9796 47.9795H14V49.9591H15.9796V47.9795Z" fill="#594A39"/>
<path d="M27.8575 47.9795H25.8779V49.9591H27.8575V47.9795Z" fill="#594A39"/>
<path d="M31.8165 47.9795H29.8369V49.9591H31.8165V47.9795Z" fill="#594A39"/>
<path d="M37.755 47.9795H35.7754V49.9591H37.755V47.9795Z" fill="#594A39"/>
<path d="M39.7345 47.9795H37.7549V49.9591H39.7345V47.9795Z" fill="#594A39"/>
<path d="M47.6534 47.9795H45.6738V49.9591H47.6534V47.9795Z" fill="#594A39"/>
<path d="M49.6329 47.9795H47.6533V49.9591H49.6329V47.9795Z" fill="#594A39"/>
<path d="M55.5714 47.9795H53.5918V49.9591H55.5714V47.9795Z" fill="#594A39"/>
<path d="M57.5509 47.9795H55.5713V49.9591H57.5509V47.9795Z" fill="#594A39"/>
<path d="M59.5304 47.9795H57.5508V49.9591H59.5304V47.9795Z" fill="#594A39"/>
<path d="M61.5099 47.9795H59.5303V49.9591H61.5099V47.9795Z" fill="#594A39"/>
<path d="M63.4894 47.9795H61.5098V49.9591H63.4894V47.9795Z" fill="#594A39"/>
<path d="M75.3673 47.9795H73.3877V49.9591H75.3673V47.9795Z" fill="#594A39"/>
<path d="M79.3263 47.9795H77.3467V49.9591H79.3263V47.9795Z" fill="#594A39"/>
<path d="M83.2853 47.9795H81.3057V49.9591H83.2853V47.9795Z" fill="#594A39"/>
<path d="M85.2657 47.9795H83.2861V49.9591H85.2657V47.9795Z" fill="#594A39"/>
<path d="M89.2247 47.9795H87.2451V49.9591H89.2247V47.9795Z" fill="#594A39"/>
<path d="M91.2042 47.9795H89.2246V49.9591H91.2042V47.9795Z" fill="#594A39"/>
<path d="M93.1837 47.9795H91.2041V49.9591H93.1837V47.9795Z" fill="#594A39"/>
<path d="M95.1632 47.9795H93.1836V49.9591H95.1632V47.9795Z" fill="#594A39"/>
<path d="M99.1222 47.9795H97.1426V49.9591H99.1222V47.9795Z" fill="#594A39"/>
<path d="M111 47.9795H109.021V49.9591H111V47.9795Z" fill="#594A39"/>
<path d="M15.9796 49.959H14V51.9386H15.9796V49.959Z" fill="#594A39"/>
<path d="M19.9386 49.959H17.959V51.9386H19.9386V49.959Z" fill="#594A39"/>
<path d="M21.9181 49.959H19.9385V51.9386H21.9181V49.959Z" fill="#594A39"/>
<path d="M23.8976 49.959H21.918V51.9386H23.8976V49.959Z" fill="#594A39"/>
<path d="M27.8575 49.959H25.8779V51.9386H27.8575V49.959Z" fill="#594A39"/>
<path d="M33.796 49.959H31.8164V51.9386H33.796V49.959Z" fill="#594A39"/>
<path d="M35.7755 49.959H33.7959V51.9386H35.7755V49.959Z" fill="#594A39"/>
<path d="M39.7345 49.959H37.7549V51.9386H39.7345V49.959Z" fill="#594A39"/>
<path d="M43.6935 49.959H41.7139V51.9386H43.6935V49.959Z" fill="#594A39"/>
<path d="M51.6124 49.959H49.6328V51.9386H51.6124V49.959Z" fill="#594A39"/>
<path d="M53.5919 49.959H51.6123V51.9386H53.5919V49.959Z" fill="#594A39"/>
<path d="M59.5304 49.959H57.5508V51.9386H59.5304V49.959Z" fill="#594A39"/>
<path d="M63.4894 49.959H61.5098V51.9386H63.4894V49.959Z" fill="#594A39"/>
<path d="M71.4083 49.959H69.4287V51.9386H71.4083V49.959Z" fill="#594A39"/>
<path d="M75.3673 49.959H73.3877V51.9386H75.3673V49.959Z" fill="#594A39"/>
<path d="M79.3263 49.959H77.3467V51.9386H79.3263V49.959Z" fill="#594A39"/>
<path d="M83.2853 49.959H81.3057V51.9386H83.2853V49.959Z" fill="#594A39"/>
<path d="M87.2452 49.959H85.2656V51.9386H87.2452V49.959Z" fill="#594A39"/>
<path d="M89.2247 49.959H87.2451V51.9386H89.2247V49.959Z" fill="#594A39"/>
<path d="M93.1837 49.959H91.2041V51.9386H93.1837V49.959Z" fill="#594A39"/>
<path d="M95.1632 49.959H93.1836V51.9386H95.1632V49.959Z" fill="#594A39"/>
<path d="M99.1222 49.959H97.1426V51.9386H99.1222V49.959Z" fill="#594A39"/>
<path d="M103.081 49.959H101.102V51.9386H103.081V49.959Z" fill="#594A39"/>
<path d="M105.062 49.959H103.082V51.9386H105.062V49.959Z" fill="#594A39"/>
<path d="M107.041 49.959H105.062V51.9386H107.041V49.959Z" fill="#594A39"/>
<path d="M111 49.959H109.021V51.9386H111V49.959Z" fill="#594A39"/>
<path d="M15.9796 51.9385H14V53.9181H15.9796V51.9385Z" fill="#594A39"/>
<path d="M19.9386 51.9385H17.959V53.9181H19.9386V51.9385Z" fill="#594A39"/>
<path d="M21.9181 51.9385H19.9385V53.9181H21.9181V51.9385Z" fill="#594A39"/>
<path d="M23.8976 51.9385H21.918V53.9181H23.8976V51.9385Z" fill="#594A39"/>
<path d="M27.8575 51.9385H25.8779V53.9181H27.8575V51.9385Z" fill="#594A39"/>
<path d="M31.8165 51.9385H29.8369V53.9181H31.8165V51.9385Z" fill="#594A39"/>
<path d="M35.7755 51.9385H33.7959V53.9181H35.7755V51.9385Z" fill="#594A39"/>
<path d="M41.714 51.9385H39.7344V53.9181H41.714V51.9385Z" fill="#594A39"/>
<path d="M43.6935 51.9385H41.7139V53.9181H43.6935V51.9385Z" fill="#594A39"/>
<path d="M53.5919 51.9385H51.6123V53.9181H53.5919V51.9385Z" fill="#594A39"/>
<path d="M57.5509 51.9385H55.5713V53.9181H57.5509V51.9385Z" fill="#594A39"/>
<path d="M61.5099 51.9385H59.5303V53.9181H61.5099V51.9385Z" fill="#594A39"/>
<path d="M63.4894 51.9385H61.5098V53.9181H63.4894V51.9385Z" fill="#594A39"/>
<path d="M73.3878 51.9385H71.4082V53.9181H73.3878V51.9385Z" fill="#594A39"/>
<path d="M77.3468 51.9385H75.3672V53.9181H77.3468V51.9385Z" fill="#594A39"/>
<path d="M81.3058 51.9385H79.3262V53.9181H81.3058V51.9385Z" fill="#594A39"/>
<path d="M83.2853 51.9385H81.3057V53.9181H83.2853V51.9385Z" fill="#594A39"/>
<path d="M85.2657 51.9385H83.2861V53.9181H85.2657V51.9385Z" fill="#594A39"/>
<path d="M87.2452 51.9385H85.2656V53.9181H87.2452V51.9385Z" fill="#594A39"/>
<path d="M89.2247 51.9385H87.2451V53.9181H89.2247V51.9385Z" fill="#594A39"/>
<path d="M93.1837 51.9385H91.2041V53.9181H93.1837V51.9385Z" fill="#594A39"/>
<path d="M99.1222 51.9385H97.1426V53.9181H99.1222V51.9385Z" fill="#594A39"/>
<path d="M103.081 51.9385H101.102V53.9181H103.081V51.9385Z" fill="#594A39"/>
<path d="M105.062 51.9385H103.082V53.9181H105.062V51.9385Z" fill="#594A39"/>
<path d="M107.041 51.9385H105.062V53.9181H107.041V51.9385Z" fill="#594A39"/>
<path d="M111 51.9385H109.021V53.9181H111V51.9385Z" fill="#594A39"/>
<path d="M15.9796 53.918H14V55.8976H15.9796V53.918Z" fill="#594A39"/>
<path d="M19.9386 53.918H17.959V55.8976H19.9386V53.918Z" fill="#594A39"/>
<path d="M21.9181 53.918H19.9385V55.8976H21.9181V53.918Z" fill="#594A39"/>
<path d="M23.8976 53.918H21.918V55.8976H23.8976V53.918Z" fill="#594A39"/>
<path d="M27.8575 53.918H25.8779V55.8976H27.8575V53.918Z" fill="#594A39"/>
<path d="M39.7345 53.918H37.7549V55.8976H39.7345V53.918Z" fill="#594A39"/>
<path d="M41.714 53.918H39.7344V55.8976H41.714V53.918Z" fill="#594A39"/>
<path d="M43.6935 53.918H41.7139V55.8976H43.6935V53.918Z" fill="#594A39"/>
<path d="M49.6329 53.918H47.6533V55.8976H49.6329V53.918Z" fill="#594A39"/>
<path d="M51.6124 53.918H49.6328V55.8976H51.6124V53.918Z" fill="#594A39"/>
<path d="M55.5714 53.918H53.5918V55.8976H55.5714V53.918Z" fill="#594A39"/>
<path d="M59.5304 53.918H57.5508V55.8976H59.5304V53.918Z" fill="#594A39"/>
<path d="M61.5099 53.918H59.5303V55.8976H61.5099V53.918Z" fill="#594A39"/>
<path d="M63.4894 53.918H61.5098V55.8976H63.4894V53.918Z" fill="#594A39"/>
<path d="M65.4698 53.918H63.4902V55.8976H65.4698V53.918Z" fill="#594A39"/>
<path d="M67.4493 53.918H65.4697V55.8976H67.4493V53.918Z" fill="#594A39"/>
<path d="M69.4288 53.918H67.4492V55.8976H69.4288V53.918Z" fill="#594A39"/>
<path d="M71.4083 53.918H69.4287V55.8976H71.4083V53.918Z" fill="#594A39"/>
<path d="M73.3878 53.918H71.4082V55.8976H73.3878V53.918Z" fill="#594A39"/>
<path d="M81.3058 53.918H79.3262V55.8976H81.3058V53.918Z" fill="#594A39"/>
<path d="M89.2247 53.918H87.2451V55.8976H89.2247V53.918Z" fill="#594A39"/>
<path d="M99.1222 53.918H97.1426V55.8976H99.1222V53.918Z" fill="#594A39"/>
<path d="M103.081 53.918H101.102V55.8976H103.081V53.918Z" fill="#594A39"/>
<path d="M105.062 53.918H103.082V55.8976H105.062V53.918Z" fill="#594A39"/>
<path d="M107.041 53.918H105.062V55.8976H107.041V53.918Z" fill="#594A39"/>
<path d="M111 53.918H109.021V55.8976H111V53.918Z" fill="#594A39"/>
<path d="M15.9796 55.8984H14V57.878H15.9796V55.8984Z" fill="#594A39"/>
<path d="M27.8575 55.8984H25.8779V57.878H27.8575V55.8984Z" fill="#594A39"/>
<path d="M37.755 55.8984H35.7754V57.878H37.755V55.8984Z" fill="#594A39"/>
<path d="M39.7345 55.8984H37.7549V57.878H39.7345V55.8984Z" fill="#594A39"/>
<path d="M41.714 55.8984H39.7344V57.878H41.714V55.8984Z" fill="#594A39"/>
<path d="M43.6935 55.8984H41.7139V57.878H43.6935V55.8984Z" fill="#594A39"/>
<path d="M59.5304 55.8984H57.5508V57.878H59.5304V55.8984Z" fill="#594A39"/>
<path d="M67.4493 55.8984H65.4697V57.878H67.4493V55.8984Z" fill="#594A39"/>
<path d="M75.3673 55.8984H73.3877V57.878H75.3673V55.8984Z" fill="#594A39"/>
<path d="M77.3468 55.8984H75.3672V57.878H77.3468V55.8984Z" fill="#594A39"/>
<path d="M81.3058 55.8984H79.3262V57.878H81.3058V55.8984Z" fill="#594A39"/>
<path d="M91.2042 55.8984H89.2246V57.878H91.2042V55.8984Z" fill="#594A39"/>
<path d="M99.1222 55.8984H97.1426V57.878H99.1222V55.8984Z" fill="#594A39"/>
<path d="M111 55.8984H109.021V57.878H111V55.8984Z" fill="#594A39"/>
<path d="M15.9796 57.8779H14V59.8575H15.9796V57.8779Z" fill="#594A39"/>
<path d="M17.9591 57.8779H15.9795V59.8575H17.9591V57.8779Z" fill="#594A39"/>
<path d="M19.9386 57.8779H17.959V59.8575H19.9386V57.8779Z" fill="#594A39"/>
<path d="M21.9181 57.8779H19.9385V59.8575H21.9181V57.8779Z" fill="#594A39"/>
<path d="M23.8976 57.8779H21.918V59.8575H23.8976V57.8779Z" fill="#594A39"/>
<path d="M25.878 57.8779H23.8984V59.8575H25.878V57.8779Z" fill="#594A39"/>
<path d="M27.8575 57.8779H25.8779V59.8575H27.8575V57.8779Z" fill="#594A39"/>
<path d="M31.8165 57.8779H29.8369V59.8575H31.8165V57.8779Z" fill="#594A39"/>
<path d="M35.7755 57.8779H33.7959V59.8575H35.7755V57.8779Z" fill="#594A39"/>
<path d="M39.7345 57.8779H37.7549V59.8575H39.7345V57.8779Z" fill="#594A39"/>
<path d="M43.6935 57.8779H41.7139V59.8575H43.6935V57.8779Z" fill="#594A39"/>
<path d="M47.6534 57.8779H45.6738V59.8575H47.6534V57.8779Z" fill="#594A39"/>
<path d="M51.6124 57.8779H49.6328V59.8575H51.6124V57.8779Z" fill="#594A39"/>
<path d="M55.5714 57.8779H53.5918V59.8575H55.5714V57.8779Z" fill="#594A39"/>
<path d="M59.5304 57.8779H57.5508V59.8575H59.5304V57.8779Z" fill="#594A39"/>
<path d="M63.4894 57.8779H61.5098V59.8575H63.4894V57.8779Z" fill="#594A39"/>
<path d="M67.4493 57.8779H65.4697V59.8575H67.4493V57.8779Z" fill="#594A39"/>
<path d="M71.4083 57.8779H69.4287V59.8575H71.4083V57.8779Z" fill="#594A39"/>
<path d="M75.3673 57.8779H73.3877V59.8575H75.3673V57.8779Z" fill="#594A39"/>
<path d="M79.3263 57.8779H77.3467V59.8575H79.3263V57.8779Z" fill="#594A39"/>
<path d="M83.2853 57.8779H81.3057V59.8575H83.2853V57.8779Z" fill="#594A39"/>
<path d="M87.2452 57.8779H85.2656V59.8575H87.2452V57.8779Z" fill="#594A39"/>
<path d="M91.2042 57.8779H89.2246V59.8575H91.2042V57.8779Z" fill="#594A39"/>
<path d="M95.1632 57.8779H93.1836V59.8575H95.1632V57.8779Z" fill="#594A39"/>
<path d="M99.1222 57.8779H97.1426V59.8575H99.1222V57.8779Z" fill="#594A39"/>
<path d="M101.102 57.8779H99.1221V59.8575H101.102V57.8779Z" fill="#594A39"/>
<path d="M103.081 57.8779H101.102V59.8575H103.081V57.8779Z" fill="#594A39"/>
<path d="M105.062 57.8779H103.082V59.8575H105.062V57.8779Z" fill="#594A39"/>
<path d="M107.041 57.8779H105.062V59.8575H107.041V57.8779Z" fill="#594A39"/>
<path d="M109.021 57.8779H107.041V59.8575H109.021V57.8779Z" fill="#594A39"/>
<path d="M111 57.8779H109.021V59.8575H111V57.8779Z" fill="#594A39"/>
<path d="M31.8165 59.8574H29.8369V61.837H31.8165V59.8574Z" fill="#594A39"/>
<path d="M33.796 59.8574H31.8164V61.837H33.796V59.8574Z" fill="#594A39"/>
<path d="M37.755 59.8574H35.7754V61.837H37.755V59.8574Z" fill="#594A39"/>
<path d="M41.714 59.8574H39.7344V61.837H41.714V59.8574Z" fill="#594A39"/>
<path d="M47.6534 59.8574H45.6738V61.837H47.6534V59.8574Z" fill="#594A39"/>
<path d="M51.6124 59.8574H49.6328V61.837H51.6124V59.8574Z" fill="#594A39"/>
<path d="M55.5714 59.8574H53.5918V61.837H55.5714V59.8574Z" fill="#594A39"/>
<path d="M57.5509 59.8574H55.5713V61.837H57.5509V59.8574Z" fill="#594A39"/>
<path d="M59.5304 59.8574H57.5508V61.837H59.5304V59.8574Z" fill="#594A39"/>
<path d="M67.4493 59.8574H65.4697V61.837H67.4493V59.8574Z" fill="#594A39"/>
<path d="M69.4288 59.8574H67.4492V61.837H69.4288V59.8574Z" fill="#594A39"/>
<path d="M71.4083 59.8574H69.4287V61.837H71.4083V59.8574Z" fill="#594A39"/>
<path d="M73.3878 59.8574H71.4082V61.837H73.3878V59.8574Z" fill="#594A39"/>
<path d="M81.3058 59.8574H79.3262V61.837H81.3058V59.8574Z" fill="#594A39"/>
<path d="M87.2452 59.8574H85.2656V61.837H87.2452V59.8574Z" fill="#594A39"/>
<path d="M89.2247 59.8574H87.2451V61.837H89.2247V59.8574Z" fill="#594A39"/>
<path d="M15.9796 61.8369H14V63.8165H15.9796V61.8369Z" fill="#594A39"/>
<path d="M19.9386 61.8369H17.959V63.8165H19.9386V61.8369Z" fill="#594A39"/>
<path d="M21.9181 61.8369H19.9385V63.8165H21.9181V61.8369Z" fill="#594A39"/>
<path d="M25.878 61.8369H23.8984V63.8165H25.878V61.8369Z" fill="#594A39"/>
<path d="M27.8575 61.8369H25.8779V63.8165H27.8575V61.8369Z" fill="#594A39"/>
<path d="M29.837 61.8369H27.8574V63.8165H29.837V61.8369Z" fill="#594A39"/>
<path d="M33.796 61.8369H31.8164V63.8165H33.796V61.8369Z" fill="#594A39"/>
<path d="M39.7345 61.8369H37.7549V63.8165H39.7345V61.8369Z" fill="#594A39"/>
<path d="M41.714 61.8369H39.7344V63.8165H41.714V61.8369Z" fill="#594A39"/>
<path d="M47.6534 61.8369H45.6738V63.8165H47.6534V61.8369Z" fill="#594A39"/>
<path d="M53.5919 61.8369H51.6123V63.8165H53.5919V61.8369Z" fill="#594A39"/>
<path d="M55.5714 61.8369H53.5918V63.8165H55.5714V61.8369Z" fill="#594A39"/>
<path d="M57.5509 61.8369H55.5713V63.8165H57.5509V61.8369Z" fill="#594A39"/>
<path d="M59.5304 61.8369H57.5508V63.8165H59.5304V61.8369Z" fill="#594A39"/>
<path d="M61.5099 61.8369H59.5303V63.8165H61.5099V61.8369Z" fill="#594A39"/>
<path d="M63.4894 61.8369H61.5098V63.8165H63.4894V61.8369Z" fill="#594A39"/>
<path d="M65.4698 61.8369H63.4902V63.8165H65.4698V61.8369Z" fill="#594A39"/>
<path d="M67.4493 61.8369H65.4697V63.8165H67.4493V61.8369Z" fill="#594A39"/>
<path d="M71.4083 61.8369H69.4287V63.8165H71.4083V61.8369Z" fill="#594A39"/>
<path d="M73.3878 61.8369H71.4082V63.8165H73.3878V61.8369Z" fill="#594A39"/>
<path d="M75.3673 61.8369H73.3877V63.8165H75.3673V61.8369Z" fill="#594A39"/>
<path d="M83.2853 61.8369H81.3057V63.8165H83.2853V61.8369Z" fill="#594A39"/>
<path d="M85.2657 61.8369H83.2861V63.8165H85.2657V61.8369Z" fill="#594A39"/>
<path d="M99.1222 61.8369H97.1426V63.8165H99.1222V61.8369Z" fill="#594A39"/>
<path d="M105.062 61.8369H103.082V63.8165H105.062V61.8369Z" fill="#594A39"/>
<path d="M109.021 61.8369H107.041V63.8165H109.021V61.8369Z" fill="#594A39"/>
<path d="M111 61.8369H109.021V63.8165H111V61.8369Z" fill="#594A39"/>
<path d="M17.9591 63.8164H15.9795V65.796H17.9591V63.8164Z" fill="#594A39"/>
<path d="M21.9181 63.8164H19.9385V65.796H21.9181V63.8164Z" fill="#594A39"/>
<path d="M23.8976 63.8164H21.918V65.796H23.8976V63.8164Z" fill="#594A39"/>
<path d="M29.837 63.8164H27.8574V65.796H29.837V63.8164Z" fill="#594A39"/>
<path d="M43.6935 63.8164H41.7139V65.796H43.6935V63.8164Z" fill="#594A39"/>
<path d="M45.6739 63.8164H43.6943V65.796H45.6739V63.8164Z" fill="#594A39"/>
<path d="M47.6534 63.8164H45.6738V65.796H47.6534V63.8164Z" fill="#594A39"/>
<path d="M49.6329 63.8164H47.6533V65.796H49.6329V63.8164Z" fill="#594A39"/>
<path d="M51.6124 63.8164H49.6328V65.796H51.6124V63.8164Z" fill="#594A39"/>
<path d="M53.5919 63.8164H51.6123V65.796H53.5919V63.8164Z" fill="#594A39"/>
<path d="M61.5099 63.8164H59.5303V65.796H61.5099V63.8164Z" fill="#594A39"/>
<path d="M63.4894 63.8164H61.5098V65.796H63.4894V63.8164Z" fill="#594A39"/>
<path d="M65.4698 63.8164H63.4902V65.796H65.4698V63.8164Z" fill="#594A39"/>
<path d="M73.3878 63.8164H71.4082V65.796H73.3878V63.8164Z" fill="#594A39"/>
<path d="M75.3673 63.8164H73.3877V65.796H75.3673V63.8164Z" fill="#594A39"/>
<path d="M79.3263 63.8164H77.3467V65.796H79.3263V63.8164Z" fill="#594A39"/>
<path d="M85.2657 63.8164H83.2861V65.796H85.2657V63.8164Z" fill="#594A39"/>
<path d="M87.2452 63.8164H85.2656V65.796H87.2452V63.8164Z" fill="#594A39"/>
<path d="M89.2247 63.8164H87.2451V65.796H89.2247V63.8164Z" fill="#594A39"/>
<path d="M99.1222 63.8164H97.1426V65.796H99.1222V63.8164Z" fill="#594A39"/>
<path d="M17.9591 65.7959H15.9795V67.7755H17.9591V65.7959Z" fill="#594A39"/>
<path d="M19.9386 65.7959H17.959V67.7755H19.9386V65.7959Z" fill="#594A39"/>
<path d="M21.9181 65.7959H19.9385V67.7755H21.9181V65.7959Z" fill="#594A39"/>
<path d="M23.8976 65.7959H21.918V67.7755H23.8976V65.7959Z" fill="#594A39"/>
<path d="M25.878 65.7959H23.8984V67.7755H25.878V65.7959Z" fill="#594A39"/>
<path d="M27.8575 65.7959H25.8779V67.7755H27.8575V65.7959Z" fill="#594A39"/>
<path d="M29.837 65.7959H27.8574V67.7755H29.837V65.7959Z" fill="#594A39"/>
<path d="M31.8165 65.7959H29.8369V67.7755H31.8165V65.7959Z" fill="#594A39"/>
<path d="M35.7755 65.7959H33.7959V67.7755H35.7755V65.7959Z" fill="#594A39"/>
<path d="M37.755 65.7959H35.7754V67.7755H37.755V65.7959Z" fill="#594A39"/>
<path d="M39.7345 65.7959H37.7549V67.7755H39.7345V65.7959Z" fill="#594A39"/>
<path d="M41.714 65.7959H39.7344V67.7755H41.714V65.7959Z" fill="#594A39"/>
<path d="M43.6935 65.7959H41.7139V67.7755H43.6935V65.7959Z" fill="#594A39"/>
<path d="M45.6739 65.7959H43.6943V67.7755H45.6739V65.7959Z" fill="#594A39"/>
<path d="M47.6534 65.7959H45.6738V67.7755H47.6534V65.7959Z" fill="#594A39"/>
<path d="M51.6124 65.7959H49.6328V67.7755H51.6124V65.7959Z" fill="#594A39"/>
<path d="M53.5919 65.7959H51.6123V67.7755H53.5919V65.7959Z" fill="#594A39"/>
<path d="M55.5714 65.7959H53.5918V67.7755H55.5714V65.7959Z" fill="#594A39"/>
<path d="M57.5509 65.7959H55.5713V67.7755H57.5509V65.7959Z" fill="#594A39"/>
<path d="M61.5099 65.7959H59.5303V67.7755H61.5099V65.7959Z" fill="#594A39"/>
<path d="M63.4894 65.7959H61.5098V67.7755H63.4894V65.7959Z" fill="#594A39"/>
<path d="M65.4698 65.7959H63.4902V67.7755H65.4698V65.7959Z" fill="#594A39"/>
<path d="M69.4288 65.7959H67.4492V67.7755H69.4288V65.7959Z" fill="#594A39"/>
<path d="M73.3878 65.7959H71.4082V67.7755H73.3878V65.7959Z" fill="#594A39"/>
<path d="M75.3673 65.7959H73.3877V67.7755H75.3673V65.7959Z" fill="#594A39"/>
<path d="M77.3468 65.7959H75.3672V67.7755H77.3468V65.7959Z" fill="#594A39"/>
<path d="M79.3263 65.7959H77.3467V67.7755H79.3263V65.7959Z" fill="#594A39"/>
<path d="M85.2657 65.7959H83.2861V67.7755H85.2657V65.7959Z" fill="#594A39"/>
<path d="M87.2452 65.7959H85.2656V67.7755H87.2452V65.7959Z" fill="#594A39"/>
<path d="M91.2042 65.7959H89.2246V67.7755H91.2042V65.7959Z" fill="#594A39"/>
<path d="M95.1632 65.7959H93.1836V67.7755H95.1632V65.7959Z" fill="#594A39"/>
<path d="M97.1427 65.7959H95.1631V67.7755H97.1427V65.7959Z" fill="#594A39"/>
<path d="M99.1222 65.7959H97.1426V67.7755H99.1222V65.7959Z" fill="#594A39"/>
<path d="M101.102 65.7959H99.1221V67.7755H101.102V65.7959Z" fill="#594A39"/>
<path d="M103.081 65.7959H101.102V67.7755H103.081V65.7959Z" fill="#594A39"/>
<path d="M107.041 65.7959H105.062V67.7755H107.041V65.7959Z" fill="#594A39"/>
<path d="M17.9591 67.7754H15.9795V69.755H17.9591V67.7754Z" fill="#594A39"/>
<path d="M21.9181 67.7754H19.9385V69.755H21.9181V67.7754Z" fill="#594A39"/>
<path d="M29.837 67.7754H27.8574V69.755H29.837V67.7754Z" fill="#594A39"/>
<path d="M35.7755 67.7754H33.7959V69.755H35.7755V67.7754Z" fill="#594A39"/>
<path d="M37.755 67.7754H35.7754V69.755H37.755V67.7754Z" fill="#594A39"/>
<path d="M39.7345 67.7754H37.7549V69.755H39.7345V67.7754Z" fill="#594A39"/>
<path d="M41.714 67.7754H39.7344V69.755H41.714V67.7754Z" fill="#594A39"/>
<path d="M43.6935 67.7754H41.7139V69.755H43.6935V67.7754Z" fill="#594A39"/>
<path d="M45.6739 67.7754H43.6943V69.755H45.6739V67.7754Z" fill="#594A39"/>
<path d="M47.6534 67.7754H45.6738V69.755H47.6534V67.7754Z" fill="#594A39"/>
<path d="M51.6124 67.7754H49.6328V69.755H51.6124V67.7754Z" fill="#594A39"/>
<path d="M59.5304 67.7754H57.5508V69.755H59.5304V67.7754Z" fill="#594A39"/>
<path d="M63.4894 67.7754H61.5098V69.755H63.4894V67.7754Z" fill="#594A39"/>
<path d="M69.4288 67.7754H67.4492V69.755H69.4288V67.7754Z" fill="#594A39"/>
<path d="M77.3468 67.7754H75.3672V69.755H77.3468V67.7754Z" fill="#594A39"/>
<path d="M79.3263 67.7754H77.3467V69.755H79.3263V67.7754Z" fill="#594A39"/>
<path d="M81.3058 67.7754H79.3262V69.755H81.3058V67.7754Z" fill="#594A39"/>
<path d="M85.2657 67.7754H83.2861V69.755H85.2657V67.7754Z" fill="#594A39"/>
<path d="M87.2452 67.7754H85.2656V69.755H87.2452V67.7754Z" fill="#594A39"/>
<path d="M89.2247 67.7754H87.2451V69.755H89.2247V67.7754Z" fill="#594A39"/>
<path d="M99.1222 67.7754H97.1426V69.755H99.1222V67.7754Z" fill="#594A39"/>
<path d="M103.081 67.7754H101.102V69.755H103.081V67.7754Z" fill="#594A39"/>
<path d="M105.062 67.7754H103.082V69.755H105.062V67.7754Z" fill="#594A39"/>
<path d="M107.041 67.7754H105.062V69.755H107.041V67.7754Z" fill="#594A39"/>
<path d="M23.8976 69.7549H21.918V71.7345H23.8976V69.7549Z" fill="#594A39"/>
<path d="M25.878 69.7549H23.8984V71.7345H25.878V69.7549Z" fill="#594A39"/>
<path d="M27.8575 69.7549H25.8779V71.7345H27.8575V69.7549Z" fill="#594A39"/>
<path d="M29.837 69.7549H27.8574V71.7345H29.837V69.7549Z" fill="#594A39"/>
<path d="M41.714 69.7549H39.7344V71.7345H41.714V69.7549Z" fill="#594A39"/>
<path d="M43.6935 69.7549H41.7139V71.7345H43.6935V69.7549Z" fill="#594A39"/>
<path d="M45.6739 69.7549H43.6943V71.7345H45.6739V69.7549Z" fill="#594A39"/>
<path d="M47.6534 69.7549H45.6738V71.7345H47.6534V69.7549Z" fill="#594A39"/>
<path d="M49.6329 69.7549H47.6533V71.7345H49.6329V69.7549Z" fill="#594A39"/>
<path d="M59.5304 69.7549H57.5508V71.7345H59.5304V69.7549Z" fill="#594A39"/>
<path d="M63.4894 69.7549H61.5098V71.7345H63.4894V69.7549Z" fill="#594A39"/>
<path d="M67.4493 69.7549H65.4697V71.7345H67.4493V69.7549Z" fill="#594A39"/>
<path d="M73.3878 69.7549H71.4082V71.7345H73.3878V69.7549Z" fill="#594A39"/>
<path d="M77.3468 69.7549H75.3672V71.7345H77.3468V69.7549Z" fill="#594A39"/>
<path d="M85.2657 69.7549H83.2861V71.7345H85.2657V69.7549Z" fill="#594A39"/>
<path d="M87.2452 69.7549H85.2656V71.7345H87.2452V69.7549Z" fill="#594A39"/>
<path d="M95.1632 69.7549H93.1836V71.7345H95.1632V69.7549Z" fill="#594A39"/>
<path d="M101.102 69.7549H99.1221V71.7345H101.102V69.7549Z" fill="#594A39"/>
<path d="M105.062 69.7549H103.082V71.7345H105.062V69.7549Z" fill="#594A39"/>
<path d="M107.041 69.7549H105.062V71.7345H107.041V69.7549Z" fill="#594A39"/>
<path d="M109.021 69.7549H107.041V71.7345H109.021V69.7549Z" fill="#594A39"/>
<path d="M111 69.7549H109.021V71.7345H111V69.7549Z" fill="#594A39"/>
<path d="M15.9796 71.7344H14V73.714H15.9796V71.7344Z" fill="#594A39"/>
<path d="M29.837 71.7344H27.8574V73.714H29.837V71.7344Z" fill="#594A39"/>
<path d="M35.7755 71.7344H33.7959V73.714H35.7755V71.7344Z" fill="#594A39"/>
<path d="M39.7345 71.7344H37.7549V73.714H39.7345V71.7344Z" fill="#594A39"/>
<path d="M41.714 71.7344H39.7344V73.714H41.714V71.7344Z" fill="#594A39"/>
<path d="M43.6935 71.7344H41.7139V73.714H43.6935V71.7344Z" fill="#594A39"/>
<path d="M45.6739 71.7344H43.6943V73.714H45.6739V71.7344Z" fill="#594A39"/>
<path d="M47.6534 71.7344H45.6738V73.714H47.6534V71.7344Z" fill="#594A39"/>
<path d="M49.6329 71.7344H47.6533V73.714H49.6329V71.7344Z" fill="#594A39"/>
<path d="M51.6124 71.7344H49.6328V73.714H51.6124V71.7344Z" fill="#594A39"/>
<path d="M53.5919 71.7344H51.6123V73.714H53.5919V71.7344Z" fill="#594A39"/>
<path d="M57.5509 71.7344H55.5713V73.714H57.5509V71.7344Z" fill="#594A39"/>
<path d="M61.5099 71.7344H59.5303V73.714H61.5099V71.7344Z" fill="#594A39"/>
<path d="M67.4493 71.7344H65.4697V73.714H67.4493V71.7344Z" fill="#594A39"/>
<path d="M71.4083 71.7344H69.4287V73.714H71.4083V71.7344Z" fill="#594A39"/>
<path d="M81.3058 71.7344H79.3262V73.714H81.3058V71.7344Z" fill="#594A39"/>
<path d="M89.2247 71.7344H87.2451V73.714H89.2247V71.7344Z" fill="#594A39"/>
<path d="M91.2042 71.7344H89.2246V73.714H91.2042V71.7344Z" fill="#594A39"/>
<path d="M93.1837 71.7344H91.2041V73.714H93.1837V71.7344Z" fill="#594A39"/>
<path d="M97.1427 71.7344H95.1631V73.714H97.1427V71.7344Z" fill="#594A39"/>
<path d="M101.102 71.7344H99.1221V73.714H101.102V71.7344Z" fill="#594A39"/>
<path d="M105.062 71.7344H103.082V73.714H105.062V71.7344Z" fill="#594A39"/>
<path d="M111 71.7344H109.021V73.714H111V71.7344Z" fill="#594A39"/>
<path d="M17.9591 73.7139H15.9795V75.6935H17.9591V73.7139Z" fill="#594A39"/>
<path d="M19.9386 73.7139H17.959V75.6935H19.9386V73.7139Z" fill="#594A39"/>
<path d="M21.9181 73.7139H19.9385V75.6935H21.9181V73.7139Z" fill="#594A39"/>
<path d="M25.878 73.7139H23.8984V75.6935H25.878V73.7139Z" fill="#594A39"/>
<path d="M27.8575 73.7139H25.8779V75.6935H27.8575V73.7139Z" fill="#594A39"/>
<path d="M29.837 73.7139H27.8574V75.6935H29.837V73.7139Z" fill="#594A39"/>
<path d="M33.796 73.7139H31.8164V75.6935H33.796V73.7139Z" fill="#594A39"/>
<path d="M37.755 73.7139H35.7754V75.6935H37.755V73.7139Z" fill="#594A39"/>
<path d="M39.7345 73.7139H37.7549V75.6935H39.7345V73.7139Z" fill="#594A39"/>
<path d="M41.714 73.7139H39.7344V75.6935H41.714V73.7139Z" fill="#594A39"/>
<path d="M43.6935 73.7139H41.7139V75.6935H43.6935V73.7139Z" fill="#594A39"/>
<path d="M47.6534 73.7139H45.6738V75.6935H47.6534V73.7139Z" fill="#594A39"/>
<path d="M51.6124 73.7139H49.6328V75.6935H51.6124V73.7139Z" fill="#594A39"/>
<path d="M53.5919 73.7139H51.6123V75.6935H53.5919V73.7139Z" fill="#594A39"/>
<path d="M55.5714 73.7139H53.5918V75.6935H55.5714V73.7139Z" fill="#594A39"/>
<path d="M57.5509 73.7139H55.5713V75.6935H57.5509V73.7139Z" fill="#594A39"/>
<path d="M59.5304 73.7139H57.5508V75.6935H59.5304V73.7139Z" fill="#594A39"/>
<path d="M61.5099 73.7139H59.5303V75.6935H61.5099V73.7139Z" fill="#594A39"/>
<path d="M67.4493 73.7139H65.4697V75.6935H67.4493V73.7139Z" fill="#594A39"/>
<path d="M69.4288 73.7139H67.4492V75.6935H69.4288V73.7139Z" fill="#594A39"/>
<path d="M73.3878 73.7139H71.4082V75.6935H73.3878V73.7139Z" fill="#594A39"/>
<path d="M75.3673 73.7139H73.3877V75.6935H75.3673V73.7139Z" fill="#594A39"/>
<path d="M79.3263 73.7139H77.3467V75.6935H79.3263V73.7139Z" fill="#594A39"/>
<path d="M87.2452 73.7139H85.2656V75.6935H87.2452V73.7139Z" fill="#594A39"/>
<path d="M89.2247 73.7139H87.2451V75.6935H89.2247V73.7139Z" fill="#594A39"/>
<path d="M91.2042 73.7139H89.2246V75.6935H91.2042V73.7139Z" fill="#594A39"/>
<path d="M99.1222 73.7139H97.1426V75.6935H99.1222V73.7139Z" fill="#594A39"/>
<path d="M103.081 73.7139H101.102V75.6935H103.081V73.7139Z" fill="#594A39"/>
<path d="M107.041 73.7139H105.062V75.6935H107.041V73.7139Z" fill="#594A39"/>
<path d="M109.021 73.7139H107.041V75.6935H109.021V73.7139Z" fill="#594A39"/>
<path d="M21.9181 75.6943H19.9385V77.6739H21.9181V75.6943Z" fill="#594A39"/>
<path d="M29.837 75.6943H27.8574V77.6739H29.837V75.6943Z" fill="#594A39"/>
<path d="M33.796 75.6943H31.8164V77.6739H33.796V75.6943Z" fill="#594A39"/>
<path d="M39.7345 75.6943H37.7549V77.6739H39.7345V75.6943Z" fill="#594A39"/>
<path d="M53.5919 75.6943H51.6123V77.6739H53.5919V75.6943Z" fill="#594A39"/>
<path d="M55.5714 75.6943H53.5918V77.6739H55.5714V75.6943Z" fill="#594A39"/>
<path d="M61.5099 75.6943H59.5303V77.6739H61.5099V75.6943Z" fill="#594A39"/>
<path d="M69.4288 75.6943H67.4492V77.6739H69.4288V75.6943Z" fill="#594A39"/>
<path d="M71.4083 75.6943H69.4287V77.6739H71.4083V75.6943Z" fill="#594A39"/>
<path d="M75.3673 75.6943H73.3877V77.6739H75.3673V75.6943Z" fill="#594A39"/>
<path d="M79.3263 75.6943H77.3467V77.6739H79.3263V75.6943Z" fill="#594A39"/>
<path d="M85.2657 75.6943H83.2861V77.6739H85.2657V75.6943Z" fill="#594A39"/>
<path d="M91.2042 75.6943H89.2246V77.6739H91.2042V75.6943Z" fill="#594A39"/>
<path d="M97.1427 75.6943H95.1631V77.6739H97.1427V75.6943Z" fill="#594A39"/>
<path d="M99.1222 75.6943H97.1426V77.6739H99.1222V75.6943Z" fill="#594A39"/>
<path d="M101.102 75.6943H99.1221V77.6739H101.102V75.6943Z" fill="#594A39"/>
<path d="M103.081 75.6943H101.102V77.6739H103.081V75.6943Z" fill="#594A39"/>
<path d="M111 75.6943H109.021V77.6739H111V75.6943Z" fill="#594A39"/>
<path d="M17.9591 77.6738H15.9795V79.6534H17.9591V77.6738Z" fill="#594A39"/>
<path d="M21.9181 77.6738H19.9385V79.6534H21.9181V77.6738Z" fill="#594A39"/>
<path d="M27.8575 77.6738H25.8779V79.6534H27.8575V77.6738Z" fill="#594A39"/>
<path d="M33.796 77.6738H31.8164V79.6534H33.796V77.6738Z" fill="#594A39"/>
<path d="M39.7345 77.6738H37.7549V79.6534H39.7345V77.6738Z" fill="#594A39"/>
<path d="M43.6935 77.6738H41.7139V79.6534H43.6935V77.6738Z" fill="#594A39"/>
<path d="M45.6739 77.6738H43.6943V79.6534H45.6739V77.6738Z" fill="#594A39"/>
<path d="M47.6534 77.6738H45.6738V79.6534H47.6534V77.6738Z" fill="#594A39"/>
<path d="M49.6329 77.6738H47.6533V79.6534H49.6329V77.6738Z" fill="#594A39"/>
<path d="M57.5509 77.6738H55.5713V79.6534H57.5509V77.6738Z" fill="#594A39"/>
<path d="M59.5304 77.6738H57.5508V79.6534H59.5304V77.6738Z" fill="#594A39"/>
<path d="M61.5099 77.6738H59.5303V79.6534H61.5099V77.6738Z" fill="#594A39"/>
<path d="M65.4698 77.6738H63.4902V79.6534H65.4698V77.6738Z" fill="#594A39"/>
<path d="M69.4288 77.6738H67.4492V79.6534H69.4288V77.6738Z" fill="#594A39"/>
<path d="M73.3878 77.6738H71.4082V79.6534H73.3878V77.6738Z" fill="#594A39"/>
<path d="M75.3673 77.6738H73.3877V79.6534H75.3673V77.6738Z" fill="#594A39"/>
<path d="M77.3468 77.6738H75.3672V79.6534H77.3468V77.6738Z" fill="#594A39"/>
<path d="M79.3263 77.6738H77.3467V79.6534H79.3263V77.6738Z" fill="#594A39"/>
<path d="M81.3058 77.6738H79.3262V79.6534H81.3058V77.6738Z" fill="#594A39"/>
<path d="M91.2042 77.6738H89.2246V79.6534H91.2042V77.6738Z" fill="#594A39"/>
<path d="M93.1837 77.6738H91.2041V79.6534H93.1837V77.6738Z" fill="#594A39"/>
<path d="M95.1632 77.6738H93.1836V79.6534H95.1632V77.6738Z" fill="#594A39"/>
<path d="M97.1427 77.6738H95.1631V79.6534H97.1427V77.6738Z" fill="#594A39"/>
<path d="M101.102 77.6738H99.1221V79.6534H101.102V77.6738Z" fill="#594A39"/>
<path d="M103.081 77.6738H101.102V79.6534H103.081V77.6738Z" fill="#594A39"/>
<path d="M109.021 77.6738H107.041V79.6534H109.021V77.6738Z" fill="#594A39"/>
<path d="M111 77.6738H109.021V79.6534H111V77.6738Z" fill="#594A39"/>
<path d="M19.9386 79.6533H17.959V81.6329H19.9386V79.6533Z" fill="#594A39"/>
<path d="M21.9181 79.6533H19.9385V81.6329H21.9181V79.6533Z" fill="#594A39"/>
<path d="M23.8976 79.6533H21.918V81.6329H23.8976V79.6533Z" fill="#594A39"/>
<path d="M25.878 79.6533H23.8984V81.6329H25.878V79.6533Z" fill="#594A39"/>
<path d="M29.837 79.6533H27.8574V81.6329H29.837V79.6533Z" fill="#594A39"/>
<path d="M33.796 79.6533H31.8164V81.6329H33.796V79.6533Z" fill="#594A39"/>
<path d="M35.7755 79.6533H33.7959V81.6329H35.7755V79.6533Z" fill="#594A39"/>
<path d="M37.755 79.6533H35.7754V81.6329H37.755V79.6533Z" fill="#594A39"/>
<path d="M41.714 79.6533H39.7344V81.6329H41.714V79.6533Z" fill="#594A39"/>
<path d="M47.6534 79.6533H45.6738V81.6329H47.6534V79.6533Z" fill="#594A39"/>
<path d="M57.5509 79.6533H55.5713V81.6329H57.5509V79.6533Z" fill="#594A39"/>
<path d="M59.5304 79.6533H57.5508V81.6329H59.5304V79.6533Z" fill="#594A39"/>
<path d="M61.5099 79.6533H59.5303V81.6329H61.5099V79.6533Z" fill="#594A39"/>
<path d="M71.4083 79.6533H69.4287V81.6329H71.4083V79.6533Z" fill="#594A39"/>
<path d="M73.3878 79.6533H71.4082V81.6329H73.3878V79.6533Z" fill="#594A39"/>
<path d="M79.3263 79.6533H77.3467V81.6329H79.3263V79.6533Z" fill="#594A39"/>
<path d="M81.3058 79.6533H79.3262V81.6329H81.3058V79.6533Z" fill="#594A39"/>
<path d="M83.2853 79.6533H81.3057V81.6329H83.2853V79.6533Z" fill="#594A39"/>
<path d="M85.2657 79.6533H83.2861V81.6329H85.2657V79.6533Z" fill="#594A39"/>
<path d="M87.2452 79.6533H85.2656V81.6329H87.2452V79.6533Z" fill="#594A39"/>
<path d="M89.2247 79.6533H87.2451V81.6329H89.2247V79.6533Z" fill="#594A39"/>
<path d="M95.1632 79.6533H93.1836V81.6329H95.1632V79.6533Z" fill="#594A39"/>
<path d="M97.1427 79.6533H95.1631V81.6329H97.1427V79.6533Z" fill="#594A39"/>
<path d="M105.062 79.6533H103.082V81.6329H105.062V79.6533Z" fill="#594A39"/>
<path d="M107.041 79.6533H105.062V81.6329H107.041V79.6533Z" fill="#594A39"/>
<path d="M109.021 79.6533H107.041V81.6329H109.021V79.6533Z" fill="#594A39"/>
<path d="M111 79.6533H109.021V81.6329H111V79.6533Z" fill="#594A39"/>
<path d="M15.9796 81.6328H14V83.6124H15.9796V81.6328Z" fill="#594A39"/>
<path d="M17.9591 81.6328H15.9795V83.6124H17.9591V81.6328Z" fill="#594A39"/>
<path d="M19.9386 81.6328H17.959V83.6124H19.9386V81.6328Z" fill="#594A39"/>
<path d="M21.9181 81.6328H19.9385V83.6124H21.9181V81.6328Z" fill="#594A39"/>
<path d="M27.8575 81.6328H25.8779V83.6124H27.8575V81.6328Z" fill="#594A39"/>
<path d="M29.837 81.6328H27.8574V83.6124H29.837V81.6328Z" fill="#594A39"/>
<path d="M35.7755 81.6328H33.7959V83.6124H35.7755V81.6328Z" fill="#594A39"/>
<path d="M41.714 81.6328H39.7344V83.6124H41.714V81.6328Z" fill="#594A39"/>
<path d="M45.6739 81.6328H43.6943V83.6124H45.6739V81.6328Z" fill="#594A39"/>
<path d="M49.6329 81.6328H47.6533V83.6124H49.6329V81.6328Z" fill="#594A39"/>
<path d="M51.6124 81.6328H49.6328V83.6124H51.6124V81.6328Z" fill="#594A39"/>
<path d="M55.5714 81.6328H53.5918V83.6124H55.5714V81.6328Z" fill="#594A39"/>
<path d="M57.5509 81.6328H55.5713V83.6124H57.5509V81.6328Z" fill="#594A39"/>
<path d="M67.4493 81.6328H65.4697V83.6124H67.4493V81.6328Z" fill="#594A39"/>
<path d="M81.3058 81.6328H79.3262V83.6124H81.3058V81.6328Z" fill="#594A39"/>
<path d="M83.2853 81.6328H81.3057V83.6124H83.2853V81.6328Z" fill="#594A39"/>
<path d="M87.2452 81.6328H85.2656V83.6124H87.2452V81.6328Z" fill="#594A39"/>
<path d="M91.2042 81.6328H89.2246V83.6124H91.2042V81.6328Z" fill="#594A39"/>
<path d="M95.1632 81.6328H93.1836V83.6124H95.1632V81.6328Z" fill="#594A39"/>
<path d="M103.081 81.6328H101.102V83.6124H103.081V81.6328Z" fill="#594A39"/>
<path d="M105.062 81.6328H103.082V83.6124H105.062V81.6328Z" fill="#594A39"/>
<path d="M109.021 81.6328H107.041V83.6124H109.021V81.6328Z" fill="#594A39"/>
<path d="M111 81.6328H109.021V83.6124H111V81.6328Z" fill="#594A39"/>
<path d="M15.9796 83.6123H14V85.5919H15.9796V83.6123Z" fill="#594A39"/>
<path d="M19.9386 83.6123H17.959V85.5919H19.9386V83.6123Z" fill="#594A39"/>
<path d="M23.8976 83.6123H21.918V85.5919H23.8976V83.6123Z" fill="#594A39"/>
<path d="M31.8165 83.6123H29.8369V85.5919H31.8165V83.6123Z" fill="#594A39"/>
<path d="M33.796 83.6123H31.8164V85.5919H33.796V83.6123Z" fill="#594A39"/>
<path d="M37.755 83.6123H35.7754V85.5919H37.755V83.6123Z" fill="#594A39"/>
<path d="M55.5714 83.6123H53.5918V85.5919H55.5714V83.6123Z" fill="#594A39"/>
<path d="M57.5509 83.6123H55.5713V85.5919H57.5509V83.6123Z" fill="#594A39"/>
<path d="M61.5099 83.6123H59.5303V85.5919H61.5099V83.6123Z" fill="#594A39"/>
<path d="M63.4894 83.6123H61.5098V85.5919H63.4894V83.6123Z" fill="#594A39"/>
<path d="M71.4083 83.6123H69.4287V85.5919H71.4083V83.6123Z" fill="#594A39"/>
<path d="M75.3673 83.6123H73.3877V85.5919H75.3673V83.6123Z" fill="#594A39"/>
<path d="M77.3468 83.6123H75.3672V85.5919H77.3468V83.6123Z" fill="#594A39"/>
<path d="M85.2657 83.6123H83.2861V85.5919H85.2657V83.6123Z" fill="#594A39"/>
<path d="M87.2452 83.6123H85.2656V85.5919H87.2452V83.6123Z" fill="#594A39"/>
<path d="M91.2042 83.6123H89.2246V85.5919H91.2042V83.6123Z" fill="#594A39"/>
<path d="M101.102 83.6123H99.1221V85.5919H101.102V83.6123Z" fill="#594A39"/>
<path d="M105.062 83.6123H103.082V85.5919H105.062V83.6123Z" fill="#594A39"/>
<path d="M15.9796 85.5918H14V87.5714H15.9796V85.5918Z" fill="#594A39"/>
<path d="M21.9181 85.5918H19.9385V87.5714H21.9181V85.5918Z" fill="#594A39"/>
<path d="M23.8976 85.5918H21.918V87.5714H23.8976V85.5918Z" fill="#594A39"/>
<path d="M25.878 85.5918H23.8984V87.5714H25.878V85.5918Z" fill="#594A39"/>
<path d="M27.8575 85.5918H25.8779V87.5714H27.8575V85.5918Z" fill="#594A39"/>
<path d="M29.837 85.5918H27.8574V87.5714H29.837V85.5918Z" fill="#594A39"/>
<path d="M35.7755 85.5918H33.7959V87.5714H35.7755V85.5918Z" fill="#594A39"/>
<path d="M37.755 85.5918H35.7754V87.5714H37.755V85.5918Z" fill="#594A39"/>
<path d="M39.7345 85.5918H37.7549V87.5714H39.7345V85.5918Z" fill="#594A39"/>
<path d="M41.714 85.5918H39.7344V87.5714H41.714V85.5918Z" fill="#594A39"/>
<path d="M43.6935 85.5918H41.7139V87.5714H43.6935V85.5918Z" fill="#594A39"/>
<path d="M49.6329 85.5918H47.6533V87.5714H49.6329V85.5918Z" fill="#594A39"/>
<path d="M55.5714 85.5918H53.5918V87.5714H55.5714V85.5918Z" fill="#594A39"/>
<path d="M61.5099 85.5918H59.5303V87.5714H61.5099V85.5918Z" fill="#594A39"/>
<path d="M69.4288 85.5918H67.4492V87.5714H69.4288V85.5918Z" fill="#594A39"/>
<path d="M71.4083 85.5918H69.4287V87.5714H71.4083V85.5918Z" fill="#594A39"/>
<path d="M75.3673 85.5918H73.3877V87.5714H75.3673V85.5918Z" fill="#594A39"/>
<path d="M81.3058 85.5918H79.3262V87.5714H81.3058V85.5918Z" fill="#594A39"/>
<path d="M85.2657 85.5918H83.2861V87.5714H85.2657V85.5918Z" fill="#594A39"/>
<path d="M89.2247 85.5918H87.2451V87.5714H89.2247V85.5918Z" fill="#594A39"/>
<path d="M91.2042 85.5918H89.2246V87.5714H91.2042V85.5918Z" fill="#594A39"/>
<path d="M97.1427 85.5918H95.1631V87.5714H97.1427V85.5918Z" fill="#594A39"/>
<path d="M101.102 85.5918H99.1221V87.5714H101.102V85.5918Z" fill="#594A39"/>
<path d="M105.062 85.5918H103.082V87.5714H105.062V85.5918Z" fill="#594A39"/>
<path d="M111 85.5918H109.021V87.5714H111V85.5918Z" fill="#594A39"/>
<path d="M21.9181 87.5713H19.9385V89.5509H21.9181V87.5713Z" fill="#594A39"/>
<path d="M29.837 87.5713H27.8574V89.5509H29.837V87.5713Z" fill="#594A39"/>
<path d="M33.796 87.5713H31.8164V89.5509H33.796V87.5713Z" fill="#594A39"/>
<path d="M35.7755 87.5713H33.7959V89.5509H35.7755V87.5713Z" fill="#594A39"/>
<path d="M39.7345 87.5713H37.7549V89.5509H39.7345V87.5713Z" fill="#594A39"/>
<path d="M43.6935 87.5713H41.7139V89.5509H43.6935V87.5713Z" fill="#594A39"/>
<path d="M49.6329 87.5713H47.6533V89.5509H49.6329V87.5713Z" fill="#594A39"/>
<path d="M51.6124 87.5713H49.6328V89.5509H51.6124V87.5713Z" fill="#594A39"/>
<path d="M61.5099 87.5713H59.5303V89.5509H61.5099V87.5713Z" fill="#594A39"/>
<path d="M65.4698 87.5713H63.4902V89.5509H65.4698V87.5713Z" fill="#594A39"/>
<path d="M69.4288 87.5713H67.4492V89.5509H69.4288V87.5713Z" fill="#594A39"/>
<path d="M71.4083 87.5713H69.4287V89.5509H71.4083V87.5713Z" fill="#594A39"/>
<path d="M73.3878 87.5713H71.4082V89.5509H73.3878V87.5713Z" fill="#594A39"/>
<path d="M75.3673 87.5713H73.3877V89.5509H75.3673V87.5713Z" fill="#594A39"/>
<path d="M77.3468 87.5713H75.3672V89.5509H77.3468V87.5713Z" fill="#594A39"/>
<path d="M89.2247 87.5713H87.2451V89.5509H89.2247V87.5713Z" fill="#594A39"/>
<path d="M97.1427 87.5713H95.1631V89.5509H97.1427V87.5713Z" fill="#594A39"/>
<path d="M99.1222 87.5713H97.1426V89.5509H99.1222V87.5713Z" fill="#594A39"/>
<path d="M101.102 87.5713H99.1221V89.5509H101.102V87.5713Z" fill="#594A39"/>
<path d="M103.081 87.5713H101.102V89.5509H103.081V87.5713Z" fill="#594A39"/>
<path d="M17.9591 89.5508H15.9795V91.5304H17.9591V89.5508Z" fill="#594A39"/>
<path d="M19.9386 89.5508H17.959V91.5304H19.9386V89.5508Z" fill="#594A39"/>
<path d="M21.9181 89.5508H19.9385V91.5304H21.9181V89.5508Z" fill="#594A39"/>
<path d="M23.8976 89.5508H21.918V91.5304H23.8976V89.5508Z" fill="#594A39"/>
<path d="M25.878 89.5508H23.8984V91.5304H25.878V89.5508Z" fill="#594A39"/>
<path d="M27.8575 89.5508H25.8779V91.5304H27.8575V89.5508Z" fill="#594A39"/>
<path d="M29.837 89.5508H27.8574V91.5304H29.837V89.5508Z" fill="#594A39"/>
<path d="M31.8165 89.5508H29.8369V91.5304H31.8165V89.5508Z" fill="#594A39"/>
<path d="M33.796 89.5508H31.8164V91.5304H33.796V89.5508Z" fill="#594A39"/>
<path d="M35.7755 89.5508H33.7959V91.5304H35.7755V89.5508Z" fill="#594A39"/>
<path d="M37.755 89.5508H35.7754V91.5304H37.755V89.5508Z" fill="#594A39"/>
<path d="M39.7345 89.5508H37.7549V91.5304H39.7345V89.5508Z" fill="#594A39"/>
<path d="M43.6935 89.5508H41.7139V91.5304H43.6935V89.5508Z" fill="#594A39"/>
<path d="M45.6739 89.5508H43.6943V91.5304H45.6739V89.5508Z" fill="#594A39"/>
<path d="M47.6534 89.5508H45.6738V91.5304H47.6534V89.5508Z" fill="#594A39"/>
<path d="M55.5714 89.5508H53.5918V91.5304H55.5714V89.5508Z" fill="#594A39"/>
<path d="M57.5509 89.5508H55.5713V91.5304H57.5509V89.5508Z" fill="#594A39"/>
<path d="M59.5304 89.5508H57.5508V91.5304H59.5304V89.5508Z" fill="#594A39"/>
<path d="M61.5099 89.5508H59.5303V91.5304H61.5099V89.5508Z" fill="#594A39"/>
<path d="M63.4894 89.5508H61.5098V91.5304H63.4894V89.5508Z" fill="#594A39"/>
<path d="M65.4698 89.5508H63.4902V91.5304H65.4698V89.5508Z" fill="#594A39"/>
<path d="M67.4493 89.5508H65.4697V91.5304H67.4493V89.5508Z" fill="#594A39"/>
<path d="M69.4288 89.5508H67.4492V91.5304H69.4288V89.5508Z" fill="#594A39"/>
<path d="M71.4083 89.5508H69.4287V91.5304H71.4083V89.5508Z" fill="#594A39"/>
<path d="M73.3878 89.5508H71.4082V91.5304H73.3878V89.5508Z" fill="#594A39"/>
<path d="M75.3673 89.5508H73.3877V91.5304H75.3673V89.5508Z" fill="#594A39"/>
<path d="M81.3058 89.5508H79.3262V91.5304H81.3058V89.5508Z" fill="#594A39"/>
<path d="M83.2853 89.5508H81.3057V91.5304H83.2853V89.5508Z" fill="#594A39"/>
<path d="M87.2452 89.5508H85.2656V91.5304H87.2452V89.5508Z" fill="#594A39"/>
<path d="M93.1837 89.5508H91.2041V91.5304H93.1837V89.5508Z" fill="#594A39"/>
<path d="M95.1632 89.5508H93.1836V91.5304H95.1632V89.5508Z" fill="#594A39"/>
<path d="M97.1427 89.5508H95.1631V91.5304H97.1427V89.5508Z" fill="#594A39"/>
<path d="M99.1222 89.5508H97.1426V91.5304H99.1222V89.5508Z" fill="#594A39"/>
<path d="M101.102 89.5508H99.1221V91.5304H101.102V89.5508Z" fill="#594A39"/>
<path d="M103.081 89.5508H101.102V91.5304H103.081V89.5508Z" fill="#594A39"/>
<path d="M105.062 89.5508H103.082V91.5304H105.062V89.5508Z" fill="#594A39"/>
<path d="M109.021 89.5508H107.041V91.5304H109.021V89.5508Z" fill="#594A39"/>
<path d="M19.9386 91.5303H17.959V93.5099H19.9386V91.5303Z" fill="#594A39"/>
<path d="M23.8976 91.5303H21.918V93.5099H23.8976V91.5303Z" fill="#594A39"/>
<path d="M31.8165 91.5303H29.8369V93.5099H31.8165V91.5303Z" fill="#594A39"/>
<path d="M33.796 91.5303H31.8164V93.5099H33.796V91.5303Z" fill="#594A39"/>
<path d="M35.7755 91.5303H33.7959V93.5099H35.7755V91.5303Z" fill="#594A39"/>
<path d="M41.714 91.5303H39.7344V93.5099H41.714V91.5303Z" fill="#594A39"/>
<path d="M49.6329 91.5303H47.6533V93.5099H49.6329V91.5303Z" fill="#594A39"/>
<path d="M51.6124 91.5303H49.6328V93.5099H51.6124V91.5303Z" fill="#594A39"/>
<path d="M53.5919 91.5303H51.6123V93.5099H53.5919V91.5303Z" fill="#594A39"/>
<path d="M59.5304 91.5303H57.5508V93.5099H59.5304V91.5303Z" fill="#594A39"/>
<path d="M67.4493 91.5303H65.4697V93.5099H67.4493V91.5303Z" fill="#594A39"/>
<path d="M69.4288 91.5303H67.4492V93.5099H69.4288V91.5303Z" fill="#594A39"/>
<path d="M75.3673 91.5303H73.3877V93.5099H75.3673V91.5303Z" fill="#594A39"/>
<path d="M77.3468 91.5303H75.3672V93.5099H77.3468V91.5303Z" fill="#594A39"/>
<path d="M79.3263 91.5303H77.3467V93.5099H79.3263V91.5303Z" fill="#594A39"/>
<path d="M83.2853 91.5303H81.3057V93.5099H83.2853V91.5303Z" fill="#594A39"/>
<path d="M87.2452 91.5303H85.2656V93.5099H87.2452V91.5303Z" fill="#594A39"/>
<path d="M89.2247 91.5303H87.2451V93.5099H89.2247V91.5303Z" fill="#594A39"/>
<path d="M93.1837 91.5303H91.2041V93.5099H93.1837V91.5303Z" fill="#594A39"/>
<path d="M95.1632 91.5303H93.1836V93.5099H95.1632V91.5303Z" fill="#594A39"/>
<path d="M103.081 91.5303H101.102V93.5099H103.081V91.5303Z" fill="#594A39"/>
<path d="M105.062 91.5303H103.082V93.5099H105.062V91.5303Z" fill="#594A39"/>
<path d="M107.041 91.5303H105.062V93.5099H107.041V91.5303Z" fill="#594A39"/>
<path d="M109.021 91.5303H107.041V93.5099H109.021V91.5303Z" fill="#594A39"/>
<path d="M19.9386 93.5098H17.959V95.4894H19.9386V93.5098Z" fill="#594A39"/>
<path d="M23.8976 93.5098H21.918V95.4894H23.8976V93.5098Z" fill="#594A39"/>
<path d="M27.8575 93.5098H25.8779V95.4894H27.8575V93.5098Z" fill="#594A39"/>
<path d="M31.8165 93.5098H29.8369V95.4894H31.8165V93.5098Z" fill="#594A39"/>
<path d="M33.796 93.5098H31.8164V95.4894H33.796V93.5098Z" fill="#594A39"/>
<path d="M35.7755 93.5098H33.7959V95.4894H35.7755V93.5098Z" fill="#594A39"/>
<path d="M37.755 93.5098H35.7754V95.4894H37.755V93.5098Z" fill="#594A39"/>
<path d="M39.7345 93.5098H37.7549V95.4894H39.7345V93.5098Z" fill="#594A39"/>
<path d="M43.6935 93.5098H41.7139V95.4894H43.6935V93.5098Z" fill="#594A39"/>
<path d="M53.5919 93.5098H51.6123V95.4894H53.5919V93.5098Z" fill="#594A39"/>
<path d="M57.5509 93.5098H55.5713V95.4894H57.5509V93.5098Z" fill="#594A39"/>
<path d="M59.5304 93.5098H57.5508V95.4894H59.5304V93.5098Z" fill="#594A39"/>
<path d="M63.4894 93.5098H61.5098V95.4894H63.4894V93.5098Z" fill="#594A39"/>
<path d="M67.4493 93.5098H65.4697V95.4894H67.4493V93.5098Z" fill="#594A39"/>
<path d="M69.4288 93.5098H67.4492V95.4894H69.4288V93.5098Z" fill="#594A39"/>
<path d="M73.3878 93.5098H71.4082V95.4894H73.3878V93.5098Z" fill="#594A39"/>
<path d="M75.3673 93.5098H73.3877V95.4894H75.3673V93.5098Z" fill="#594A39"/>
<path d="M83.2853 93.5098H81.3057V95.4894H83.2853V93.5098Z" fill="#594A39"/>
<path d="M85.2657 93.5098H83.2861V95.4894H85.2657V93.5098Z" fill="#594A39"/>
<path d="M87.2452 93.5098H85.2656V95.4894H87.2452V93.5098Z" fill="#594A39"/>
<path d="M89.2247 93.5098H87.2451V95.4894H89.2247V93.5098Z" fill="#594A39"/>
<path d="M91.2042 93.5098H89.2246V95.4894H91.2042V93.5098Z" fill="#594A39"/>
<path d="M93.1837 93.5098H91.2041V95.4894H93.1837V93.5098Z" fill="#594A39"/>
<path d="M95.1632 93.5098H93.1836V95.4894H95.1632V93.5098Z" fill="#594A39"/>
<path d="M99.1222 93.5098H97.1426V95.4894H99.1222V93.5098Z" fill="#594A39"/>
<path d="M103.081 93.5098H101.102V95.4894H103.081V93.5098Z" fill="#594A39"/>
<path d="M105.062 93.5098H103.082V95.4894H105.062V93.5098Z" fill="#594A39"/>
<path d="M107.041 93.5098H105.062V95.4894H107.041V93.5098Z" fill="#594A39"/>
<path d="M15.9796 95.4902H14V97.4698H15.9796V95.4902Z" fill="#594A39"/>
<path d="M21.9181 95.4902H19.9385V97.4698H21.9181V95.4902Z" fill="#594A39"/>
<path d="M23.8976 95.4902H21.918V97.4698H23.8976V95.4902Z" fill="#594A39"/>
<path d="M31.8165 95.4902H29.8369V97.4698H31.8165V95.4902Z" fill="#594A39"/>
<path d="M35.7755 95.4902H33.7959V97.4698H35.7755V95.4902Z" fill="#594A39"/>
<path d="M37.755 95.4902H35.7754V97.4698H37.755V95.4902Z" fill="#594A39"/>
<path d="M41.714 95.4902H39.7344V97.4698H41.714V95.4902Z" fill="#594A39"/>
<path d="M43.6935 95.4902H41.7139V97.4698H43.6935V95.4902Z" fill="#594A39"/>
<path d="M49.6329 95.4902H47.6533V97.4698H49.6329V95.4902Z" fill="#594A39"/>
<path d="M51.6124 95.4902H49.6328V97.4698H51.6124V95.4902Z" fill="#594A39"/>
<path d="M53.5919 95.4902H51.6123V97.4698H53.5919V95.4902Z" fill="#594A39"/>
<path d="M55.5714 95.4902H53.5918V97.4698H55.5714V95.4902Z" fill="#594A39"/>
<path d="M59.5304 95.4902H57.5508V97.4698H59.5304V95.4902Z" fill="#594A39"/>
<path d="M67.4493 95.4902H65.4697V97.4698H67.4493V95.4902Z" fill="#594A39"/>
<path d="M69.4288 95.4902H67.4492V97.4698H69.4288V95.4902Z" fill="#594A39"/>
<path d="M79.3263 95.4902H77.3467V97.4698H79.3263V95.4902Z" fill="#594A39"/>
<path d="M81.3058 95.4902H79.3262V97.4698H81.3058V95.4902Z" fill="#594A39"/>
<path d="M85.2657 95.4902H83.2861V97.4698H85.2657V95.4902Z" fill="#594A39"/>
<path d="M89.2247 95.4902H87.2451V97.4698H89.2247V95.4902Z" fill="#594A39"/>
<path d="M91.2042 95.4902H89.2246V97.4698H91.2042V95.4902Z" fill="#594A39"/>
<path d="M95.1632 95.4902H93.1836V97.4698H95.1632V95.4902Z" fill="#594A39"/>
<path d="M103.081 95.4902H101.102V97.4698H103.081V95.4902Z" fill="#594A39"/>
<path d="M105.062 95.4902H103.082V97.4698H105.062V95.4902Z" fill="#594A39"/>
<path d="M111 95.4902H109.021V97.4698H111V95.4902Z" fill="#594A39"/>
<path d="M19.9386 97.4697H17.959V99.4493H19.9386V97.4697Z" fill="#594A39"/>
<path d="M23.8976 97.4697H21.918V99.4493H23.8976V97.4697Z" fill="#594A39"/>
<path d="M25.878 97.4697H23.8984V99.4493H25.878V97.4697Z" fill="#594A39"/>
<path d="M27.8575 97.4697H25.8779V99.4493H27.8575V97.4697Z" fill="#594A39"/>
<path d="M29.837 97.4697H27.8574V99.4493H29.837V97.4697Z" fill="#594A39"/>
<path d="M31.8165 97.4697H29.8369V99.4493H31.8165V97.4697Z" fill="#594A39"/>
<path d="M39.7345 97.4697H37.7549V99.4493H39.7345V97.4697Z" fill="#594A39"/>
<path d="M43.6935 97.4697H41.7139V99.4493H43.6935V97.4697Z" fill="#594A39"/>
<path d="M49.6329 97.4697H47.6533V99.4493H49.6329V97.4697Z" fill="#594A39"/>
<path d="M51.6124 97.4697H49.6328V99.4493H51.6124V97.4697Z" fill="#594A39"/>
<path d="M55.5714 97.4697H53.5918V99.4493H55.5714V97.4697Z" fill="#594A39"/>
<path d="M57.5509 97.4697H55.5713V99.4493H57.5509V97.4697Z" fill="#594A39"/>
<path d="M59.5304 97.4697H57.5508V99.4493H59.5304V97.4697Z" fill="#594A39"/>
<path d="M61.5099 97.4697H59.5303V99.4493H61.5099V97.4697Z" fill="#594A39"/>
<path d="M63.4894 97.4697H61.5098V99.4493H63.4894V97.4697Z" fill="#594A39"/>
<path d="M65.4698 97.4697H63.4902V99.4493H65.4698V97.4697Z" fill="#594A39"/>
<path d="M67.4493 97.4697H65.4697V99.4493H67.4493V97.4697Z" fill="#594A39"/>
<path d="M71.4083 97.4697H69.4287V99.4493H71.4083V97.4697Z" fill="#594A39"/>
<path d="M75.3673 97.4697H73.3877V99.4493H75.3673V97.4697Z" fill="#594A39"/>
<path d="M85.2657 97.4697H83.2861V99.4493H85.2657V97.4697Z" fill="#594A39"/>
<path d="M91.2042 97.4697H89.2246V99.4493H91.2042V97.4697Z" fill="#594A39"/>
<path d="M93.1837 97.4697H91.2041V99.4493H93.1837V97.4697Z" fill="#594A39"/>
<path d="M95.1632 97.4697H93.1836V99.4493H95.1632V97.4697Z" fill="#594A39"/>
<path d="M97.1427 97.4697H95.1631V99.4493H97.1427V97.4697Z" fill="#594A39"/>
<path d="M99.1222 97.4697H97.1426V99.4493H99.1222V97.4697Z" fill="#594A39"/>
<path d="M101.102 97.4697H99.1221V99.4493H101.102V97.4697Z" fill="#594A39"/>
<path d="M103.081 97.4697H101.102V99.4493H103.081V97.4697Z" fill="#594A39"/>
<path d="M107.041 97.4697H105.062V99.4493H107.041V97.4697Z" fill="#594A39"/>
<path d="M109.021 97.4697H107.041V99.4493H109.021V97.4697Z" fill="#594A39"/>
<path d="M15.9796 99.4492H14V101.429H15.9796V99.4492Z" fill="#594A39"/>
<path d="M17.9591 99.4492H15.9795V101.429H17.9591V99.4492Z" fill="#594A39"/>
<path d="M21.9181 99.4492H19.9385V101.429H21.9181V99.4492Z" fill="#594A39"/>
<path d="M23.8976 99.4492H21.918V101.429H23.8976V99.4492Z" fill="#594A39"/>
<path d="M29.837 99.4492H27.8574V101.429H29.837V99.4492Z" fill="#594A39"/>
<path d="M31.8165 99.4492H29.8369V101.429H31.8165V99.4492Z" fill="#594A39"/>
<path d="M37.755 99.4492H35.7754V101.429H37.755V99.4492Z" fill="#594A39"/>
<path d="M39.7345 99.4492H37.7549V101.429H39.7345V99.4492Z" fill="#594A39"/>
<path d="M43.6935 99.4492H41.7139V101.429H43.6935V99.4492Z" fill="#594A39"/>
<path d="M45.6739 99.4492H43.6943V101.429H45.6739V99.4492Z" fill="#594A39"/>
<path d="M51.6124 99.4492H49.6328V101.429H51.6124V99.4492Z" fill="#594A39"/>
<path d="M53.5919 99.4492H51.6123V101.429H53.5919V99.4492Z" fill="#594A39"/>
<path d="M55.5714 99.4492H53.5918V101.429H55.5714V99.4492Z" fill="#594A39"/>
<path d="M57.5509 99.4492H55.5713V101.429H57.5509V99.4492Z" fill="#594A39"/>
<path d="M59.5304 99.4492H57.5508V101.429H59.5304V99.4492Z" fill="#594A39"/>
<path d="M63.4894 99.4492H61.5098V101.429H63.4894V99.4492Z" fill="#594A39"/>
<path d="M67.4493 99.4492H65.4697V101.429H67.4493V99.4492Z" fill="#594A39"/>
<path d="M69.4288 99.4492H67.4492V101.429H69.4288V99.4492Z" fill="#594A39"/>
<path d="M71.4083 99.4492H69.4287V101.429H71.4083V99.4492Z" fill="#594A39"/>
<path d="M73.3878 99.4492H71.4082V101.429H73.3878V99.4492Z" fill="#594A39"/>
<path d="M75.3673 99.4492H73.3877V101.429H75.3673V99.4492Z" fill="#594A39"/>
<path d="M79.3263 99.4492H77.3467V101.429H79.3263V99.4492Z" fill="#594A39"/>
<path d="M95.1632 99.4492H93.1836V101.429H95.1632V99.4492Z" fill="#594A39"/>
<path d="M105.062 99.4492H103.082V101.429H105.062V99.4492Z" fill="#594A39"/>
<path d="M109.021 99.4492H107.041V101.429H109.021V99.4492Z" fill="#594A39"/>
<path d="M111 99.4492H109.021V101.429H111V99.4492Z" fill="#594A39"/>
<path d="M17.9591 101.429H15.9795V103.408H17.9591V101.429Z" fill="#594A39"/>
<path d="M19.9386 101.429H17.959V103.408H19.9386V101.429Z" fill="#594A39"/>
<path d="M27.8575 101.429H25.8779V103.408H27.8575V101.429Z" fill="#594A39"/>
<path d="M33.796 101.429H31.8164V103.408H33.796V101.429Z" fill="#594A39"/>
<path d="M39.7345 101.429H37.7549V103.408H39.7345V101.429Z" fill="#594A39"/>
<path d="M41.714 101.429H39.7344V103.408H41.714V101.429Z" fill="#594A39"/>
<path d="M53.5919 101.429H51.6123V103.408H53.5919V101.429Z" fill="#594A39"/>
<path d="M55.5714 101.429H53.5918V103.408H55.5714V101.429Z" fill="#594A39"/>
<path d="M57.5509 101.429H55.5713V103.408H57.5509V101.429Z" fill="#594A39"/>
<path d="M61.5099 101.429H59.5303V103.408H61.5099V101.429Z" fill="#594A39"/>
<path d="M63.4894 101.429H61.5098V103.408H63.4894V101.429Z" fill="#594A39"/>
<path d="M65.4698 101.429H63.4902V103.408H65.4698V101.429Z" fill="#594A39"/>
<path d="M67.4493 101.429H65.4697V103.408H67.4493V101.429Z" fill="#594A39"/>
<path d="M73.3878 101.429H71.4082V103.408H73.3878V101.429Z" fill="#594A39"/>
<path d="M77.3468 101.429H75.3672V103.408H77.3468V101.429Z" fill="#594A39"/>
<path d="M79.3263 101.429H77.3467V103.408H79.3263V101.429Z" fill="#594A39"/>
<path d="M81.3058 101.429H79.3262V103.408H81.3058V101.429Z" fill="#594A39"/>
<path d="M89.2247 101.429H87.2451V103.408H89.2247V101.429Z" fill="#594A39"/>
<path d="M91.2042 101.429H89.2246V103.408H91.2042V101.429Z" fill="#594A39"/>
<path d="M105.062 101.429H103.082V103.408H105.062V101.429Z" fill="#594A39"/>
<path d="M107.041 101.429H105.062V103.408H107.041V101.429Z" fill="#594A39"/>
<path d="M109.021 101.429H107.041V103.408H109.021V101.429Z" fill="#594A39"/>
<path d="M19.9386 103.408H17.959V105.388H19.9386V103.408Z" fill="#594A39"/>
<path d="M21.9181 103.408H19.9385V105.388H21.9181V103.408Z" fill="#594A39"/>
<path d="M23.8976 103.408H21.918V105.388H23.8976V103.408Z" fill="#594A39"/>
<path d="M37.755 103.408H35.7754V105.388H37.755V103.408Z" fill="#594A39"/>
<path d="M39.7345 103.408H37.7549V105.388H39.7345V103.408Z" fill="#594A39"/>
<path d="M41.714 103.408H39.7344V105.388H41.714V103.408Z" fill="#594A39"/>
<path d="M47.6534 103.408H45.6738V105.388H47.6534V103.408Z" fill="#594A39"/>
<path d="M49.6329 103.408H47.6533V105.388H49.6329V103.408Z" fill="#594A39"/>
<path d="M53.5919 103.408H51.6123V105.388H53.5919V103.408Z" fill="#594A39"/>
<path d="M59.5304 103.408H57.5508V105.388H59.5304V103.408Z" fill="#594A39"/>
<path d="M61.5099 103.408H59.5303V105.388H61.5099V103.408Z" fill="#594A39"/>
<path d="M67.4493 103.408H65.4697V105.388H67.4493V103.408Z" fill="#594A39"/>
<path d="M69.4288 103.408H67.4492V105.388H69.4288V103.408Z" fill="#594A39"/>
<path d="M71.4083 103.408H69.4287V105.388H71.4083V103.408Z" fill="#594A39"/>
<path d="M73.3878 103.408H71.4082V105.388H73.3878V103.408Z" fill="#594A39"/>
<path d="M83.2853 103.408H81.3057V105.388H83.2853V103.408Z" fill="#594A39"/>
<path d="M87.2452 103.408H85.2656V105.388H87.2452V103.408Z" fill="#594A39"/>
<path d="M93.1837 103.408H91.2041V105.388H93.1837V103.408Z" fill="#594A39"/>
<path d="M97.1427 103.408H95.1631V105.388H97.1427V103.408Z" fill="#594A39"/>
<path d="M107.041 103.408H105.062V105.388H107.041V103.408Z" fill="#594A39"/>
<path d="M111 103.408H109.021V105.388H111V103.408Z" fill="#594A39"/>
<path d="M15.9796 105.388H14V107.367H15.9796V105.388Z" fill="#594A39"/>
<path d="M21.9181 105.388H19.9385V107.367H21.9181V105.388Z" fill="#594A39"/>
<path d="M27.8575 105.388H25.8779V107.367H27.8575V105.388Z" fill="#594A39"/>
<path d="M35.7755 105.388H33.7959V107.367H35.7755V105.388Z" fill="#594A39"/>
<path d="M37.755 105.388H35.7754V107.367H37.755V105.388Z" fill="#594A39"/>
<path d="M39.7345 105.388H37.7549V107.367H39.7345V105.388Z" fill="#594A39"/>
<path d="M45.6739 105.388H43.6943V107.367H45.6739V105.388Z" fill="#594A39"/>
<path d="M51.6124 105.388H49.6328V107.367H51.6124V105.388Z" fill="#594A39"/>
<path d="M53.5919 105.388H51.6123V107.367H53.5919V105.388Z" fill="#594A39"/>
<path d="M57.5509 105.388H55.5713V107.367H57.5509V105.388Z" fill="#594A39"/>
<path d="M59.5304 105.388H57.5508V107.367H59.5304V105.388Z" fill="#594A39"/>
<path d="M71.4083 105.388H69.4287V107.367H71.4083V105.388Z" fill="#594A39"/>
<path d="M75.3673 105.388H73.3877V107.367H75.3673V105.388Z" fill="#594A39"/>
<path d="M83.2853 105.388H81.3057V107.367H83.2853V105.388Z" fill="#594A39"/>
<path d="M85.2657 105.388H83.2861V107.367H85.2657V105.388Z" fill="#594A39"/>
<path d="M87.2452 105.388H85.2656V107.367H87.2452V105.388Z" fill="#594A39"/>
<path d="M91.2042 105.388H89.2246V107.367H91.2042V105.388Z" fill="#594A39"/>
<path d="M93.1837 105.388H91.2041V107.367H93.1837V105.388Z" fill="#594A39"/>
<path d="M99.1222 105.388H97.1426V107.367H99.1222V105.388Z" fill="#594A39"/>
<path d="M103.081 105.388H101.102V107.367H103.081V105.388Z" fill="#594A39"/>
<path d="M107.041 105.388H105.062V107.367H107.041V105.388Z" fill="#594A39"/>
<path d="M109.021 105.388H107.041V107.367H109.021V105.388Z" fill="#594A39"/>
<path d="M111 105.388H109.021V107.367H111V105.388Z" fill="#594A39"/>
<path d="M15.9796 107.367H14V109.347H15.9796V107.367Z" fill="#594A39"/>
<path d="M19.9386 107.367H17.959V109.347H19.9386V107.367Z" fill="#594A39"/>
<path d="M23.8976 107.367H21.918V109.347H23.8976V107.367Z" fill="#594A39"/>
<path d="M25.878 107.367H23.8984V109.347H25.878V107.367Z" fill="#594A39"/>
<path d="M41.714 107.367H39.7344V109.347H41.714V107.367Z" fill="#594A39"/>
<path d="M43.6935 107.367H41.7139V109.347H43.6935V107.367Z" fill="#594A39"/>
<path d="M51.6124 107.367H49.6328V109.347H51.6124V107.367Z" fill="#594A39"/>
<path d="M55.5714 107.367H53.5918V109.347H55.5714V107.367Z" fill="#594A39"/>
<path d="M69.4288 107.367H67.4492V109.347H69.4288V107.367Z" fill="#594A39"/>
<path d="M71.4083 107.367H69.4287V109.347H71.4083V107.367Z" fill="#594A39"/>
<path d="M79.3263 107.367H77.3467V109.347H79.3263V107.367Z" fill="#594A39"/>
<path d="M81.3058 107.367H79.3262V109.347H81.3058V107.367Z" fill="#594A39"/>
<path d="M85.2657 107.367H83.2861V109.347H85.2657V107.367Z" fill="#594A39"/>
<path d="M89.2247 107.367H87.2451V109.347H89.2247V107.367Z" fill="#594A39"/>
<path d="M91.2042 107.367H89.2246V109.347H91.2042V107.367Z" fill="#594A39"/>
<path d="M93.1837 107.367H91.2041V109.347H93.1837V107.367Z" fill="#594A39"/>
<path d="M99.1222 107.367H97.1426V109.347H99.1222V107.367Z" fill="#594A39"/>
<path d="M103.081 107.367H101.102V109.347H103.081V107.367Z" fill="#594A39"/>
<path d="M105.062 107.367H103.082V109.347H105.062V107.367Z" fill="#594A39"/>
<path d="M109.021 107.367H107.041V109.347H109.021V107.367Z" fill="#594A39"/>
<path d="M15.9796 109.347H14V111.326H15.9796V109.347Z" fill="#594A39"/>
<path d="M23.8976 109.347H21.918V111.326H23.8976V109.347Z" fill="#594A39"/>
<path d="M27.8575 109.347H25.8779V111.326H27.8575V109.347Z" fill="#594A39"/>
<path d="M29.837 109.347H27.8574V111.326H29.837V109.347Z" fill="#594A39"/>
<path d="M33.796 109.347H31.8164V111.326H33.796V109.347Z" fill="#594A39"/>
<path d="M35.7755 109.347H33.7959V111.326H35.7755V109.347Z" fill="#594A39"/>
<path d="M37.755 109.347H35.7754V111.326H37.755V109.347Z" fill="#594A39"/>
<path d="M39.7345 109.347H37.7549V111.326H39.7345V109.347Z" fill="#594A39"/>
<path d="M45.6739 109.347H43.6943V111.326H45.6739V109.347Z" fill="#594A39"/>
<path d="M47.6534 109.347H45.6738V111.326H47.6534V109.347Z" fill="#594A39"/>
<path d="M55.5714 109.347H53.5918V111.326H55.5714V109.347Z" fill="#594A39"/>
<path d="M57.5509 109.347H55.5713V111.326H57.5509V109.347Z" fill="#594A39"/>
<path d="M63.4894 109.347H61.5098V111.326H63.4894V109.347Z" fill="#594A39"/>
<path d="M69.4288 109.347H67.4492V111.326H69.4288V109.347Z" fill="#594A39"/>
<path d="M71.4083 109.347H69.4287V111.326H71.4083V109.347Z" fill="#594A39"/>
<path d="M83.2853 109.347H81.3057V111.326H83.2853V109.347Z" fill="#594A39"/>
<path d="M85.2657 109.347H83.2861V111.326H85.2657V109.347Z" fill="#594A39"/>
<path d="M95.1632 109.347H93.1836V111.326H95.1632V109.347Z" fill="#594A39"/>
<path d="M97.1427 109.347H95.1631V111.326H97.1427V109.347Z" fill="#594A39"/>
<path d="M99.1222 109.347H97.1426V111.326H99.1222V109.347Z" fill="#594A39"/>
<path d="M101.102 109.347H99.1221V111.326H101.102V109.347Z" fill="#594A39"/>
<path d="M103.081 109.347H101.102V111.326H103.081V109.347Z" fill="#594A39"/>
<path d="M109.021 109.347H107.041V111.326H109.021V109.347Z" fill="#594A39"/>
<path d="M19.9386 111.326H17.959V113.306H19.9386V111.326Z" fill="#594A39"/>
<path d="M31.8165 111.326H29.8369V113.306H31.8165V111.326Z" fill="#594A39"/>
<path d="M35.7755 111.326H33.7959V113.306H35.7755V111.326Z" fill="#594A39"/>
<path d="M39.7345 111.326H37.7549V113.306H39.7345V111.326Z" fill="#594A39"/>
<path d="M41.714 111.326H39.7344V113.306H41.714V111.326Z" fill="#594A39"/>
<path d="M49.6329 111.326H47.6533V113.306H49.6329V111.326Z" fill="#594A39"/>
<path d="M51.6124 111.326H49.6328V113.306H51.6124V111.326Z" fill="#594A39"/>
<path d="M53.5919 111.326H51.6123V113.306H53.5919V111.326Z" fill="#594A39"/>
<path d="M57.5509 111.326H55.5713V113.306H57.5509V111.326Z" fill="#594A39"/>
<path d="M59.5304 111.326H57.5508V113.306H59.5304V111.326Z" fill="#594A39"/>
<path d="M61.5099 111.326H59.5303V113.306H61.5099V111.326Z" fill="#594A39"/>
<path d="M63.4894 111.326H61.5098V113.306H63.4894V111.326Z" fill="#594A39"/>
<path d="M65.4698 111.326H63.4902V113.306H65.4698V111.326Z" fill="#594A39"/>
<path d="M73.3878 111.326H71.4082V113.306H73.3878V111.326Z" fill="#594A39"/>
<path d="M75.3673 111.326H73.3877V113.306H75.3673V111.326Z" fill="#594A39"/>
<path d="M93.1837 111.326H91.2041V113.306H93.1837V111.326Z" fill="#594A39"/>
<path d="M97.1427 111.326H95.1631V113.306H97.1427V111.326Z" fill="#594A39"/>
<path d="M101.102 111.326H99.1221V113.306H101.102V111.326Z" fill="#594A39"/>
<path d="M15.9796 113.306H14V115.285H15.9796V113.306Z" fill="#594A39"/>
<path d="M19.9386 113.306H17.959V115.285H19.9386V113.306Z" fill="#594A39"/>
<path d="M23.8976 113.306H21.918V115.285H23.8976V113.306Z" fill="#594A39"/>
<path d="M25.878 113.306H23.8984V115.285H25.878V113.306Z" fill="#594A39"/>
<path d="M27.8575 113.306H25.8779V115.285H27.8575V113.306Z" fill="#594A39"/>
<path d="M31.8165 113.306H29.8369V115.285H31.8165V113.306Z" fill="#594A39"/>
<path d="M35.7755 113.306H33.7959V115.285H35.7755V113.306Z" fill="#594A39"/>
<path d="M37.755 113.306H35.7754V115.285H37.755V113.306Z" fill="#594A39"/>
<path d="M39.7345 113.306H37.7549V115.285H39.7345V113.306Z" fill="#594A39"/>
<path d="M43.6935 113.306H41.7139V115.285H43.6935V113.306Z" fill="#594A39"/>
<path d="M45.6739 113.306H43.6943V115.285H45.6739V113.306Z" fill="#594A39"/>
<path d="M53.5919 113.306H51.6123V115.285H53.5919V113.306Z" fill="#594A39"/>
<path d="M61.5099 113.306H59.5303V115.285H61.5099V113.306Z" fill="#594A39"/>
<path d="M63.4894 113.306H61.5098V115.285H63.4894V113.306Z" fill="#594A39"/>
<path d="M67.4493 113.306H65.4697V115.285H67.4493V113.306Z" fill="#594A39"/>
<path d="M69.4288 113.306H67.4492V115.285H69.4288V113.306Z" fill="#594A39"/>
<path d="M73.3878 113.306H71.4082V115.285H73.3878V113.306Z" fill="#594A39"/>
<path d="M77.3468 113.306H75.3672V115.285H77.3468V113.306Z" fill="#594A39"/>
<path d="M79.3263 113.306H77.3467V115.285H79.3263V113.306Z" fill="#594A39"/>
<path d="M83.2853 113.306H81.3057V115.285H83.2853V113.306Z" fill="#594A39"/>
<path d="M89.2247 113.306H87.2451V115.285H89.2247V113.306Z" fill="#594A39"/>
<path d="M93.1837 113.306H91.2041V115.285H93.1837V113.306Z" fill="#594A39"/>
<path d="M97.1427 113.306H95.1631V115.285H97.1427V113.306Z" fill="#594A39"/>
<path d="M103.081 113.306H101.102V115.285H103.081V113.306Z" fill="#594A39"/>
<path d="M15.9796 115.286H14V117.266H15.9796V115.286Z" fill="#594A39"/>
<path d="M17.9591 115.286H15.9795V117.266H17.9591V115.286Z" fill="#594A39"/>
<path d="M19.9386 115.286H17.959V117.266H19.9386V115.286Z" fill="#594A39"/>
<path d="M29.837 115.286H27.8574V117.266H29.837V115.286Z" fill="#594A39"/>
<path d="M31.8165 115.286H29.8369V117.266H31.8165V115.286Z" fill="#594A39"/>
<path d="M35.7755 115.286H33.7959V117.266H35.7755V115.286Z" fill="#594A39"/>
<path d="M37.755 115.286H35.7754V117.266H37.755V115.286Z" fill="#594A39"/>
<path d="M39.7345 115.286H37.7549V117.266H39.7345V115.286Z" fill="#594A39"/>
<path d="M43.6935 115.286H41.7139V117.266H43.6935V115.286Z" fill="#594A39"/>
<path d="M45.6739 115.286H43.6943V117.266H45.6739V115.286Z" fill="#594A39"/>
<path d="M47.6534 115.286H45.6738V117.266H47.6534V115.286Z" fill="#594A39"/>
<path d="M49.6329 115.286H47.6533V117.266H49.6329V115.286Z" fill="#594A39"/>
<path d="M53.5919 115.286H51.6123V117.266H53.5919V115.286Z" fill="#594A39"/>
<path d="M59.5304 115.286H57.5508V117.266H59.5304V115.286Z" fill="#594A39"/>
<path d="M67.4493 115.286H65.4697V117.266H67.4493V115.286Z" fill="#594A39"/>
<path d="M77.3468 115.286H75.3672V117.266H77.3468V115.286Z" fill="#594A39"/>
<path d="M79.3263 115.286H77.3467V117.266H79.3263V115.286Z" fill="#594A39"/>
<path d="M81.3058 115.286H79.3262V117.266H81.3058V115.286Z" fill="#594A39"/>
<path d="M83.2853 115.286H81.3057V117.266H83.2853V115.286Z" fill="#594A39"/>
<path d="M87.2452 115.286H85.2656V117.266H87.2452V115.286Z" fill="#594A39"/>
<path d="M93.1837 115.286H91.2041V117.266H93.1837V115.286Z" fill="#594A39"/>
<path d="M99.1222 115.286H97.1426V117.266H99.1222V115.286Z" fill="#594A39"/>
<path d="M105.062 115.286H103.082V117.266H105.062V115.286Z" fill="#594A39"/>
<path d="M107.041 115.286H105.062V117.266H107.041V115.286Z" fill="#594A39"/>
<path d="M21.9181 117.266H19.9385V119.245H21.9181V117.266Z" fill="#594A39"/>
<path d="M27.8575 117.266H25.8779V119.245H27.8575V117.266Z" fill="#594A39"/>
<path d="M31.8165 117.266H29.8369V119.245H31.8165V117.266Z" fill="#594A39"/>
<path d="M33.796 117.266H31.8164V119.245H33.796V117.266Z" fill="#594A39"/>
<path d="M35.7755 117.266H33.7959V119.245H35.7755V117.266Z" fill="#594A39"/>
<path d="M37.755 117.266H35.7754V119.245H37.755V117.266Z" fill="#594A39"/>
<path d="M41.714 117.266H39.7344V119.245H41.714V117.266Z" fill="#594A39"/>
<path d="M43.6935 117.266H41.7139V119.245H43.6935V117.266Z" fill="#594A39"/>
<path d="M45.6739 117.266H43.6943V119.245H45.6739V117.266Z" fill="#594A39"/>
<path d="M51.6124 117.266H49.6328V119.245H51.6124V117.266Z" fill="#594A39"/>
<path d="M53.5919 117.266H51.6123V119.245H53.5919V117.266Z" fill="#594A39"/>
<path d="M55.5714 117.266H53.5918V119.245H55.5714V117.266Z" fill="#594A39"/>
<path d="M57.5509 117.266H55.5713V119.245H57.5509V117.266Z" fill="#594A39"/>
<path d="M59.5304 117.266H57.5508V119.245H59.5304V117.266Z" fill="#594A39"/>
<path d="M61.5099 117.266H59.5303V119.245H61.5099V117.266Z" fill="#594A39"/>
<path d="M73.3878 117.266H71.4082V119.245H73.3878V117.266Z" fill="#594A39"/>
<path d="M77.3468 117.266H75.3672V119.245H77.3468V117.266Z" fill="#594A39"/>
<path d="M81.3058 117.266H79.3262V119.245H81.3058V117.266Z" fill="#594A39"/>
<path d="M85.2657 117.266H83.2861V119.245H85.2657V117.266Z" fill="#594A39"/>
<path d="M87.2452 117.266H85.2656V119.245H87.2452V117.266Z" fill="#594A39"/>
<path d="M93.1837 117.266H91.2041V119.245H93.1837V117.266Z" fill="#594A39"/>
<path d="M95.1632 117.266H93.1836V119.245H95.1632V117.266Z" fill="#594A39"/>
<path d="M97.1427 117.266H95.1631V119.245H97.1427V117.266Z" fill="#594A39"/>
<path d="M99.1222 117.266H97.1426V119.245H99.1222V117.266Z" fill="#594A39"/>
<path d="M103.081 117.266H101.102V119.245H103.081V117.266Z" fill="#594A39"/>
<path d="M107.041 117.266H105.062V119.245H107.041V117.266Z" fill="#594A39"/>
<path d="M109.021 117.266H107.041V119.245H109.021V117.266Z" fill="#594A39"/>
<path d="M111 117.266H109.021V119.245H111V117.266Z" fill="#594A39"/>
<path d="M15.9796 119.245H14V121.225H15.9796V119.245Z" fill="#594A39"/>
<path d="M19.9386 119.245H17.959V121.225H19.9386V119.245Z" fill="#594A39"/>
<path d="M33.796 119.245H31.8164V121.225H33.796V119.245Z" fill="#594A39"/>
<path d="M39.7345 119.245H37.7549V121.225H39.7345V119.245Z" fill="#594A39"/>
<path d="M43.6935 119.245H41.7139V121.225H43.6935V119.245Z" fill="#594A39"/>
<path d="M51.6124 119.245H49.6328V121.225H51.6124V119.245Z" fill="#594A39"/>
<path d="M55.5714 119.245H53.5918V121.225H55.5714V119.245Z" fill="#594A39"/>
<path d="M59.5304 119.245H57.5508V121.225H59.5304V119.245Z" fill="#594A39"/>
<path d="M61.5099 119.245H59.5303V121.225H61.5099V119.245Z" fill="#594A39"/>
<path d="M65.4698 119.245H63.4902V121.225H65.4698V119.245Z" fill="#594A39"/>
<path d="M67.4493 119.245H65.4697V121.225H67.4493V119.245Z" fill="#594A39"/>
<path d="M69.4288 119.245H67.4492V121.225H69.4288V119.245Z" fill="#594A39"/>
<path d="M81.3058 119.245H79.3262V121.225H81.3058V119.245Z" fill="#594A39"/>
<path d="M91.2042 119.245H89.2246V121.225H91.2042V119.245Z" fill="#594A39"/>
<path d="M93.1837 119.245H91.2041V121.225H93.1837V119.245Z" fill="#594A39"/>
<path d="M95.1632 119.245H93.1836V121.225H95.1632V119.245Z" fill="#594A39"/>
<path d="M101.102 119.245H99.1221V121.225H101.102V119.245Z" fill="#594A39"/>
<path d="M103.081 119.245H101.102V121.225H103.081V119.245Z" fill="#594A39"/>
<path d="M105.062 119.245H103.082V121.225H105.062V119.245Z" fill="#594A39"/>
<path d="M107.041 119.245H105.062V121.225H107.041V119.245Z" fill="#594A39"/>
<path d="M111 119.245H109.021V121.225H111V119.245Z" fill="#594A39"/>
<path d="M17.9591 121.225H15.9795V123.204H17.9591V121.225Z" fill="#594A39"/>
<path d="M25.878 121.225H23.8984V123.204H25.878V121.225Z" fill="#594A39"/>
<path d="M27.8575 121.225H25.8779V123.204H27.8575V121.225Z" fill="#594A39"/>
<path d="M33.796 121.225H31.8164V123.204H33.796V121.225Z" fill="#594A39"/>
<path d="M37.755 121.225H35.7754V123.204H37.755V121.225Z" fill="#594A39"/>
<path d="M41.714 121.225H39.7344V123.204H41.714V121.225Z" fill="#594A39"/>
<path d="M45.6739 121.225H43.6943V123.204H45.6739V121.225Z" fill="#594A39"/>
<path d="M49.6329 121.225H47.6533V123.204H49.6329V121.225Z" fill="#594A39"/>
<path d="M51.6124 121.225H49.6328V123.204H51.6124V121.225Z" fill="#594A39"/>
<path d="M53.5919 121.225H51.6123V123.204H53.5919V121.225Z" fill="#594A39"/>
<path d="M55.5714 121.225H53.5918V123.204H55.5714V121.225Z" fill="#594A39"/>
<path d="M57.5509 121.225H55.5713V123.204H57.5509V121.225Z" fill="#594A39"/>
<path d="M63.4894 121.225H61.5098V123.204H63.4894V121.225Z" fill="#594A39"/>
<path d="M71.4083 121.225H69.4287V123.204H71.4083V121.225Z" fill="#594A39"/>
<path d="M75.3673 121.225H73.3877V123.204H75.3673V121.225Z" fill="#594A39"/>
<path d="M85.2657 121.225H83.2861V123.204H85.2657V121.225Z" fill="#594A39"/>
<path d="M89.2247 121.225H87.2451V123.204H89.2247V121.225Z" fill="#594A39"/>
<path d="M91.2042 121.225H89.2246V123.204H91.2042V121.225Z" fill="#594A39"/>
<path d="M93.1837 121.225H91.2041V123.204H93.1837V121.225Z" fill="#594A39"/>
<path d="M95.1632 121.225H93.1836V123.204H95.1632V121.225Z" fill="#594A39"/>
<path d="M101.102 121.225H99.1221V123.204H101.102V121.225Z" fill="#594A39"/>
<path d="M107.041 121.225H105.062V123.204H107.041V121.225Z" fill="#594A39"/>
<path d="M17.9591 123.204H15.9795V125.184H17.9591V123.204Z" fill="#594A39"/>
<path d="M19.9386 123.204H17.959V125.184H19.9386V123.204Z" fill="#594A39"/>
<path d="M21.9181 123.204H19.9385V125.184H21.9181V123.204Z" fill="#594A39"/>
<path d="M31.8165 123.204H29.8369V125.184H31.8165V123.204Z" fill="#594A39"/>
<path d="M33.796 123.204H31.8164V125.184H33.796V123.204Z" fill="#594A39"/>
<path d="M37.755 123.204H35.7754V125.184H37.755V123.204Z" fill="#594A39"/>
<path d="M41.714 123.204H39.7344V125.184H41.714V123.204Z" fill="#594A39"/>
<path d="M45.6739 123.204H43.6943V125.184H45.6739V123.204Z" fill="#594A39"/>
<path d="M47.6534 123.204H45.6738V125.184H47.6534V123.204Z" fill="#594A39"/>
<path d="M53.5919 123.204H51.6123V125.184H53.5919V123.204Z" fill="#594A39"/>
<path d="M59.5304 123.204H57.5508V125.184H59.5304V123.204Z" fill="#594A39"/>
<path d="M61.5099 123.204H59.5303V125.184H61.5099V123.204Z" fill="#594A39"/>
<path d="M63.4894 123.204H61.5098V125.184H63.4894V123.204Z" fill="#594A39"/>
<path d="M65.4698 123.204H63.4902V125.184H65.4698V123.204Z" fill="#594A39"/>
<path d="M67.4493 123.204H65.4697V125.184H67.4493V123.204Z" fill="#594A39"/>
<path d="M71.4083 123.204H69.4287V125.184H71.4083V123.204Z" fill="#594A39"/>
<path d="M73.3878 123.204H71.4082V125.184H73.3878V123.204Z" fill="#594A39"/>
<path d="M75.3673 123.204H73.3877V125.184H75.3673V123.204Z" fill="#594A39"/>
<path d="M79.3263 123.204H77.3467V125.184H79.3263V123.204Z" fill="#594A39"/>
<path d="M81.3058 123.204H79.3262V125.184H81.3058V123.204Z" fill="#594A39"/>
<path d="M95.1632 123.204H93.1836V125.184H95.1632V123.204Z" fill="#594A39"/>
<path d="M97.1427 123.204H95.1631V125.184H97.1427V123.204Z" fill="#594A39"/>
<path d="M101.102 123.204H99.1221V125.184H101.102V123.204Z" fill="#594A39"/>
<path d="M103.081 123.204H101.102V125.184H103.081V123.204Z" fill="#594A39"/>
<path d="M109.021 123.204H107.041V125.184H109.021V123.204Z" fill="#594A39"/>
<path d="M15.9796 125.184H14V127.163H15.9796V125.184Z" fill="#594A39"/>
<path d="M17.9591 125.184H15.9795V127.163H17.9591V125.184Z" fill="#594A39"/>
<path d="M19.9386 125.184H17.959V127.163H19.9386V125.184Z" fill="#594A39"/>
<path d="M27.8575 125.184H25.8779V127.163H27.8575V125.184Z" fill="#594A39"/>
<path d="M29.837 125.184H27.8574V127.163H29.837V125.184Z" fill="#594A39"/>
<path d="M31.8165 125.184H29.8369V127.163H31.8165V125.184Z" fill="#594A39"/>
<path d="M33.796 125.184H31.8164V127.163H33.796V125.184Z" fill="#594A39"/>
<path d="M37.755 125.184H35.7754V127.163H37.755V125.184Z" fill="#594A39"/>
<path d="M41.714 125.184H39.7344V127.163H41.714V125.184Z" fill="#594A39"/>
<path d="M49.6329 125.184H47.6533V127.163H49.6329V125.184Z" fill="#594A39"/>
<path d="M51.6124 125.184H49.6328V127.163H51.6124V125.184Z" fill="#594A39"/>
<path d="M59.5304 125.184H57.5508V127.163H59.5304V125.184Z" fill="#594A39"/>
<path d="M61.5099 125.184H59.5303V127.163H61.5099V125.184Z" fill="#594A39"/>
<path d="M63.4894 125.184H61.5098V127.163H63.4894V125.184Z" fill="#594A39"/>
<path d="M65.4698 125.184H63.4902V127.163H65.4698V125.184Z" fill="#594A39"/>
<path d="M67.4493 125.184H65.4697V127.163H67.4493V125.184Z" fill="#594A39"/>
<path d="M73.3878 125.184H71.4082V127.163H73.3878V125.184Z" fill="#594A39"/>
<path d="M77.3468 125.184H75.3672V127.163H77.3468V125.184Z" fill="#594A39"/>
<path d="M79.3263 125.184H77.3467V127.163H79.3263V125.184Z" fill="#594A39"/>
<path d="M81.3058 125.184H79.3262V127.163H81.3058V125.184Z" fill="#594A39"/>
<path d="M95.1632 125.184H93.1836V127.163H95.1632V125.184Z" fill="#594A39"/>
<path d="M97.1427 125.184H95.1631V127.163H97.1427V125.184Z" fill="#594A39"/>
<path d="M99.1222 125.184H97.1426V127.163H99.1222V125.184Z" fill="#594A39"/>
<path d="M101.102 125.184H99.1221V127.163H101.102V125.184Z" fill="#594A39"/>
<path d="M103.081 125.184H101.102V127.163H103.081V125.184Z" fill="#594A39"/>
<path d="M107.041 125.184H105.062V127.163H107.041V125.184Z" fill="#594A39"/>
<path d="M109.021 125.184H107.041V127.163H109.021V125.184Z" fill="#594A39"/>
<path d="M31.8165 127.163H29.8369V129.143H31.8165V127.163Z" fill="#594A39"/>
<path d="M39.7345 127.163H37.7549V129.143H39.7345V127.163Z" fill="#594A39"/>
<path d="M41.714 127.163H39.7344V129.143H41.714V127.163Z" fill="#594A39"/>
<path d="M45.6739 127.163H43.6943V129.143H45.6739V127.163Z" fill="#594A39"/>
<path d="M47.6534 127.163H45.6738V129.143H47.6534V127.163Z" fill="#594A39"/>
<path d="M53.5919 127.163H51.6123V129.143H53.5919V127.163Z" fill="#594A39"/>
<path d="M59.5304 127.163H57.5508V129.143H59.5304V127.163Z" fill="#594A39"/>
<path d="M67.4493 127.163H65.4697V129.143H67.4493V127.163Z" fill="#594A39"/>
<path d="M69.4288 127.163H67.4492V129.143H69.4288V127.163Z" fill="#594A39"/>
<path d="M71.4083 127.163H69.4287V129.143H71.4083V127.163Z" fill="#594A39"/>
<path d="M77.3468 127.163H75.3672V129.143H77.3468V127.163Z" fill="#594A39"/>
<path d="M79.3263 127.163H77.3467V129.143H79.3263V127.163Z" fill="#594A39"/>
<path d="M81.3058 127.163H79.3262V129.143H81.3058V127.163Z" fill="#594A39"/>
<path d="M83.2853 127.163H81.3057V129.143H83.2853V127.163Z" fill="#594A39"/>
<path d="M85.2657 127.163H83.2861V129.143H85.2657V127.163Z" fill="#594A39"/>
<path d="M93.1837 127.163H91.2041V129.143H93.1837V127.163Z" fill="#594A39"/>
<path d="M95.1632 127.163H93.1836V129.143H95.1632V127.163Z" fill="#594A39"/>
<path d="M103.081 127.163H101.102V129.143H103.081V127.163Z" fill="#594A39"/>
<path d="M105.062 127.163H103.082V129.143H105.062V127.163Z" fill="#594A39"/>
<path d="M111 127.163H109.021V129.143H111V127.163Z" fill="#594A39"/>
<path d="M15.9796 129.143H14V131.122H15.9796V129.143Z" fill="#594A39"/>
<path d="M17.9591 129.143H15.9795V131.122H17.9591V129.143Z" fill="#594A39"/>
<path d="M19.9386 129.143H17.959V131.122H19.9386V129.143Z" fill="#594A39"/>
<path d="M21.9181 129.143H19.9385V131.122H21.9181V129.143Z" fill="#594A39"/>
<path d="M23.8976 129.143H21.918V131.122H23.8976V129.143Z" fill="#594A39"/>
<path d="M25.878 129.143H23.8984V131.122H25.878V129.143Z" fill="#594A39"/>
<path d="M27.8575 129.143H25.8779V131.122H27.8575V129.143Z" fill="#594A39"/>
<path d="M31.8165 129.143H29.8369V131.122H31.8165V129.143Z" fill="#594A39"/>
<path d="M33.796 129.143H31.8164V131.122H33.796V129.143Z" fill="#594A39"/>
<path d="M35.7755 129.143H33.7959V131.122H35.7755V129.143Z" fill="#594A39"/>
<path d="M37.755 129.143H35.7754V131.122H37.755V129.143Z" fill="#594A39"/>
<path d="M43.6935 129.143H41.7139V131.122H43.6935V129.143Z" fill="#594A39"/>
<path d="M45.6739 129.143H43.6943V131.122H45.6739V129.143Z" fill="#594A39"/>
<path d="M49.6329 129.143H47.6533V131.122H49.6329V129.143Z" fill="#594A39"/>
<path d="M53.5919 129.143H51.6123V131.122H53.5919V129.143Z" fill="#594A39"/>
<path d="M55.5714 129.143H53.5918V131.122H55.5714V129.143Z" fill="#594A39"/>
<path d="M57.5509 129.143H55.5713V131.122H57.5509V129.143Z" fill="#594A39"/>
<path d="M59.5304 129.143H57.5508V131.122H59.5304V129.143Z" fill="#594A39"/>
<path d="M63.4894 129.143H61.5098V131.122H63.4894V129.143Z" fill="#594A39"/>
<path d="M67.4493 129.143H65.4697V131.122H67.4493V129.143Z" fill="#594A39"/>
<path d="M71.4083 129.143H69.4287V131.122H71.4083V129.143Z" fill="#594A39"/>
<path d="M73.3878 129.143H71.4082V131.122H73.3878V129.143Z" fill="#594A39"/>
<path d="M83.2853 129.143H81.3057V131.122H83.2853V129.143Z" fill="#594A39"/>
<path d="M85.2657 129.143H83.2861V131.122H85.2657V129.143Z" fill="#594A39"/>
<path d="M87.2452 129.143H85.2656V131.122H87.2452V129.143Z" fill="#594A39"/>
<path d="M91.2042 129.143H89.2246V131.122H91.2042V129.143Z" fill="#594A39"/>
<path d="M95.1632 129.143H93.1836V131.122H95.1632V129.143Z" fill="#594A39"/>
<path d="M99.1222 129.143H97.1426V131.122H99.1222V129.143Z" fill="#594A39"/>
<path d="M103.081 129.143H101.102V131.122H103.081V129.143Z" fill="#594A39"/>
<path d="M109.021 129.143H107.041V131.122H109.021V129.143Z" fill="#594A39"/>
<path d="M111 129.143H109.021V131.122H111V129.143Z" fill="#594A39"/>
<path d="M15.9796 131.122H14V133.102H15.9796V131.122Z" fill="#594A39"/>
<path d="M27.8575 131.122H25.8779V133.102H27.8575V131.122Z" fill="#594A39"/>
<path d="M31.8165 131.122H29.8369V133.102H31.8165V131.122Z" fill="#594A39"/>
<path d="M35.7755 131.122H33.7959V133.102H35.7755V131.122Z" fill="#594A39"/>
<path d="M39.7345 131.122H37.7549V133.102H39.7345V131.122Z" fill="#594A39"/>
<path d="M43.6935 131.122H41.7139V133.102H43.6935V131.122Z" fill="#594A39"/>
<path d="M47.6534 131.122H45.6738V133.102H47.6534V131.122Z" fill="#594A39"/>
<path d="M51.6124 131.122H49.6328V133.102H51.6124V131.122Z" fill="#594A39"/>
<path d="M55.5714 131.122H53.5918V133.102H55.5714V131.122Z" fill="#594A39"/>
<path d="M59.5304 131.122H57.5508V133.102H59.5304V131.122Z" fill="#594A39"/>
<path d="M67.4493 131.122H65.4697V133.102H67.4493V131.122Z" fill="#594A39"/>
<path d="M71.4083 131.122H69.4287V133.102H71.4083V131.122Z" fill="#594A39"/>
<path d="M73.3878 131.122H71.4082V133.102H73.3878V131.122Z" fill="#594A39"/>
<path d="M81.3058 131.122H79.3262V133.102H81.3058V131.122Z" fill="#594A39"/>
<path d="M83.2853 131.122H81.3057V133.102H83.2853V131.122Z" fill="#594A39"/>
<path d="M85.2657 131.122H83.2861V133.102H85.2657V131.122Z" fill="#594A39"/>
<path d="M87.2452 131.122H85.2656V133.102H87.2452V131.122Z" fill="#594A39"/>
<path d="M89.2247 131.122H87.2451V133.102H89.2247V131.122Z" fill="#594A39"/>
<path d="M91.2042 131.122H89.2246V133.102H91.2042V131.122Z" fill="#594A39"/>
<path d="M93.1837 131.122H91.2041V133.102H93.1837V131.122Z" fill="#594A39"/>
<path d="M95.1632 131.122H93.1836V133.102H95.1632V131.122Z" fill="#594A39"/>
<path d="M103.081 131.122H101.102V133.102H103.081V131.122Z" fill="#594A39"/>
<path d="M105.062 131.122H103.082V133.102H105.062V131.122Z" fill="#594A39"/>
<path d="M111 131.122H109.021V133.102H111V131.122Z" fill="#594A39"/>
<path d="M15.9796 133.102H14V135.081H15.9796V133.102Z" fill="#594A39"/>
<path d="M19.9386 133.102H17.959V135.081H19.9386V133.102Z" fill="#594A39"/>
<path d="M21.9181 133.102H19.9385V135.081H21.9181V133.102Z" fill="#594A39"/>
<path d="M23.8976 133.102H21.918V135.081H23.8976V133.102Z" fill="#594A39"/>
<path d="M27.8575 133.102H25.8779V135.081H27.8575V133.102Z" fill="#594A39"/>
<path d="M35.7755 133.102H33.7959V135.081H35.7755V133.102Z" fill="#594A39"/>
<path d="M39.7345 133.102H37.7549V135.081H39.7345V133.102Z" fill="#594A39"/>
<path d="M45.6739 133.102H43.6943V135.081H45.6739V133.102Z" fill="#594A39"/>
<path d="M51.6124 133.102H49.6328V135.081H51.6124V133.102Z" fill="#594A39"/>
<path d="M53.5919 133.102H51.6123V135.081H53.5919V133.102Z" fill="#594A39"/>
<path d="M59.5304 133.102H57.5508V135.081H59.5304V133.102Z" fill="#594A39"/>
<path d="M61.5099 133.102H59.5303V135.081H61.5099V133.102Z" fill="#594A39"/>
<path d="M63.4894 133.102H61.5098V135.081H63.4894V133.102Z" fill="#594A39"/>
<path d="M65.4698 133.102H63.4902V135.081H65.4698V133.102Z" fill="#594A39"/>
<path d="M67.4493 133.102H65.4697V135.081H67.4493V133.102Z" fill="#594A39"/>
<path d="M69.4288 133.102H67.4492V135.081H69.4288V133.102Z" fill="#594A39"/>
<path d="M71.4083 133.102H69.4287V135.081H71.4083V133.102Z" fill="#594A39"/>
<path d="M75.3673 133.102H73.3877V135.081H75.3673V133.102Z" fill="#594A39"/>
<path d="M81.3058 133.102H79.3262V135.081H81.3058V133.102Z" fill="#594A39"/>
<path d="M83.2853 133.102H81.3057V135.081H83.2853V133.102Z" fill="#594A39"/>
<path d="M85.2657 133.102H83.2861V135.081H85.2657V133.102Z" fill="#594A39"/>
<path d="M91.2042 133.102H89.2246V135.081H91.2042V133.102Z" fill="#594A39"/>
<path d="M93.1837 133.102H91.2041V135.081H93.1837V133.102Z" fill="#594A39"/>
<path d="M95.1632 133.102H93.1836V135.081H95.1632V133.102Z" fill="#594A39"/>
<path d="M97.1427 133.102H95.1631V135.081H97.1427V133.102Z" fill="#594A39"/>
<path d="M99.1222 133.102H97.1426V135.081H99.1222V133.102Z" fill="#594A39"/>
<path d="M101.102 133.102H99.1221V135.081H101.102V133.102Z" fill="#594A39"/>
<path d="M103.081 133.102H101.102V135.081H103.081V133.102Z" fill="#594A39"/>
<path d="M105.062 133.102H103.082V135.081H105.062V133.102Z" fill="#594A39"/>
<path d="M107.041 133.102H105.062V135.081H107.041V133.102Z" fill="#594A39"/>
<path d="M15.9796 135.082H14V137.062H15.9796V135.082Z" fill="#594A39"/>
<path d="M19.9386 135.082H17.959V137.062H19.9386V135.082Z" fill="#594A39"/>
<path d="M21.9181 135.082H19.9385V137.062H21.9181V135.082Z" fill="#594A39"/>
<path d="M23.8976 135.082H21.918V137.062H23.8976V135.082Z" fill="#594A39"/>
<path d="M27.8575 135.082H25.8779V137.062H27.8575V135.082Z" fill="#594A39"/>
<path d="M31.8165 135.082H29.8369V137.062H31.8165V135.082Z" fill="#594A39"/>
<path d="M35.7755 135.082H33.7959V137.062H35.7755V135.082Z" fill="#594A39"/>
<path d="M39.7345 135.082H37.7549V137.062H39.7345V135.082Z" fill="#594A39"/>
<path d="M43.6935 135.082H41.7139V137.062H43.6935V135.082Z" fill="#594A39"/>
<path d="M45.6739 135.082H43.6943V137.062H45.6739V135.082Z" fill="#594A39"/>
<path d="M47.6534 135.082H45.6738V137.062H47.6534V135.082Z" fill="#594A39"/>
<path d="M49.6329 135.082H47.6533V137.062H49.6329V135.082Z" fill="#594A39"/>
<path d="M51.6124 135.082H49.6328V137.062H51.6124V135.082Z" fill="#594A39"/>
<path d="M53.5919 135.082H51.6123V137.062H53.5919V135.082Z" fill="#594A39"/>
<path d="M55.5714 135.082H53.5918V137.062H55.5714V135.082Z" fill="#594A39"/>
<path d="M59.5304 135.082H57.5508V137.062H59.5304V135.082Z" fill="#594A39"/>
<path d="M61.5099 135.082H59.5303V137.062H61.5099V135.082Z" fill="#594A39"/>
<path d="M65.4698 135.082H63.4902V137.062H65.4698V135.082Z" fill="#594A39"/>
<path d="M67.4493 135.082H65.4697V137.062H67.4493V135.082Z" fill="#594A39"/>
<path d="M71.4083 135.082H69.4287V137.062H71.4083V135.082Z" fill="#594A39"/>
<path d="M73.3878 135.082H71.4082V137.062H73.3878V135.082Z" fill="#594A39"/>
<path d="M75.3673 135.082H73.3877V137.062H75.3673V135.082Z" fill="#594A39"/>
<path d="M79.3263 135.082H77.3467V137.062H79.3263V135.082Z" fill="#594A39"/>
<path d="M89.2247 135.082H87.2451V137.062H89.2247V135.082Z" fill="#594A39"/>
<path d="M93.1837 135.082H91.2041V137.062H93.1837V135.082Z" fill="#594A39"/>
<path d="M99.1222 135.082H97.1426V137.062H99.1222V135.082Z" fill="#594A39"/>
<path d="M101.102 135.082H99.1221V137.062H101.102V135.082Z" fill="#594A39"/>
<path d="M103.081 135.082H101.102V137.062H103.081V135.082Z" fill="#594A39"/>
<path d="M105.062 135.082H103.082V137.062H105.062V135.082Z" fill="#594A39"/>
<path d="M109.021 135.082H107.041V137.062H109.021V135.082Z" fill="#594A39"/>
<path d="M111 135.082H109.021V137.062H111V135.082Z" fill="#594A39"/>
<path d="M15.9796 137.062H14V139.041H15.9796V137.062Z" fill="#594A39"/>
<path d="M19.9386 137.062H17.959V139.041H19.9386V137.062Z" fill="#594A39"/>
<path d="M21.9181 137.062H19.9385V139.041H21.9181V137.062Z" fill="#594A39"/>
<path d="M23.8976 137.062H21.918V139.041H23.8976V137.062Z" fill="#594A39"/>
<path d="M27.8575 137.062H25.8779V139.041H27.8575V137.062Z" fill="#594A39"/>
<path d="M31.8165 137.062H29.8369V139.041H31.8165V137.062Z" fill="#594A39"/>
<path d="M35.7755 137.062H33.7959V139.041H35.7755V137.062Z" fill="#594A39"/>
<path d="M39.7345 137.062H37.7549V139.041H39.7345V137.062Z" fill="#594A39"/>
<path d="M41.714 137.062H39.7344V139.041H41.714V137.062Z" fill="#594A39"/>
<path d="M43.6935 137.062H41.7139V139.041H43.6935V137.062Z" fill="#594A39"/>
<path d="M47.6534 137.062H45.6738V139.041H47.6534V137.062Z" fill="#594A39"/>
<path d="M49.6329 137.062H47.6533V139.041H49.6329V137.062Z" fill="#594A39"/>
<path d="M57.5509 137.062H55.5713V139.041H57.5509V137.062Z" fill="#594A39"/>
<path d="M67.4493 137.062H65.4697V139.041H67.4493V137.062Z" fill="#594A39"/>
<path d="M69.4288 137.062H67.4492V139.041H69.4288V137.062Z" fill="#594A39"/>
<path d="M71.4083 137.062H69.4287V139.041H71.4083V137.062Z" fill="#594A39"/>
<path d="M73.3878 137.062H71.4082V139.041H73.3878V137.062Z" fill="#594A39"/>
<path d="M75.3673 137.062H73.3877V139.041H75.3673V137.062Z" fill="#594A39"/>
<path d="M79.3263 137.062H77.3467V139.041H79.3263V137.062Z" fill="#594A39"/>
<path d="M87.2452 137.062H85.2656V139.041H87.2452V137.062Z" fill="#594A39"/>
<path d="M93.1837 137.062H91.2041V139.041H93.1837V137.062Z" fill="#594A39"/>
<path d="M99.1222 137.062H97.1426V139.041H99.1222V137.062Z" fill="#594A39"/>
<path d="M101.102 137.062H99.1221V139.041H101.102V137.062Z" fill="#594A39"/>
<path d="M103.081 137.062H101.102V139.041H103.081V137.062Z" fill="#594A39"/>
<path d="M105.062 137.062H103.082V139.041H105.062V137.062Z" fill="#594A39"/>
<path d="M109.021 137.062H107.041V139.041H109.021V137.062Z" fill="#594A39"/>
<path d="M111 137.062H109.021V139.041H111V137.062Z" fill="#594A39"/>
<path d="M15.9796 139.041H14V141.021H15.9796V139.041Z" fill="#594A39"/>
<path d="M27.8575 139.041H25.8779V141.021H27.8575V139.041Z" fill="#594A39"/>
<path d="M43.6935 139.041H41.7139V141.021H43.6935V139.041Z" fill="#594A39"/>
<path d="M45.6739 139.041H43.6943V141.021H45.6739V139.041Z" fill="#594A39"/>
<path d="M47.6534 139.041H45.6738V141.021H47.6534V139.041Z" fill="#594A39"/>
<path d="M51.6124 139.041H49.6328V141.021H51.6124V139.041Z" fill="#594A39"/>
<path d="M55.5714 139.041H53.5918V141.021H55.5714V139.041Z" fill="#594A39"/>
<path d="M61.5099 139.041H59.5303V141.021H61.5099V139.041Z" fill="#594A39"/>
<path d="M63.4894 139.041H61.5098V141.021H63.4894V139.041Z" fill="#594A39"/>
<path d="M73.3878 139.041H71.4082V141.021H73.3878V139.041Z" fill="#594A39"/>
<path d="M79.3263 139.041H77.3467V141.021H79.3263V139.041Z" fill="#594A39"/>
<path d="M89.2247 139.041H87.2451V141.021H89.2247V139.041Z" fill="#594A39"/>
<path d="M97.1427 139.041H95.1631V141.021H97.1427V139.041Z" fill="#594A39"/>
<path d="M101.102 139.041H99.1221V141.021H101.102V139.041Z" fill="#594A39"/>
<path d="M105.062 139.041H103.082V141.021H105.062V139.041Z" fill="#594A39"/>
<path d="M107.041 139.041H105.062V141.021H107.041V139.041Z" fill="#594A39"/>
<path d="M15.9796 141.021H14V143H15.9796V141.021Z" fill="#594A39"/>
<path d="M17.9591 141.021H15.9795V143H17.9591V141.021Z" fill="#594A39"/>
<path d="M19.9386 141.021H17.959V143H19.9386V141.021Z" fill="#594A39"/>
<path d="M21.9181 141.021H19.9385V143H21.9181V141.021Z" fill="#594A39"/>
<path d="M23.8976 141.021H21.918V143H23.8976V141.021Z" fill="#594A39"/>
<path d="M25.878 141.021H23.8984V143H25.878V141.021Z" fill="#594A39"/>
<path d="M27.8575 141.021H25.8779V143H27.8575V141.021Z" fill="#594A39"/>
<path d="M31.8165 141.021H29.8369V143H31.8165V141.021Z" fill="#594A39"/>
<path d="M37.755 141.021H35.7754V143H37.755V141.021Z" fill="#594A39"/>
<path d="M41.714 141.021H39.7344V143H41.714V141.021Z" fill="#594A39"/>
<path d="M43.6935 141.021H41.7139V143H43.6935V141.021Z" fill="#594A39"/>
<path d="M45.6739 141.021H43.6943V143H45.6739V141.021Z" fill="#594A39"/>
<path d="M49.6329 141.021H47.6533V143H49.6329V141.021Z" fill="#594A39"/>
<path d="M51.6124 141.021H49.6328V143H51.6124V141.021Z" fill="#594A39"/>
<path d="M61.5099 141.021H59.5303V143H61.5099V141.021Z" fill="#594A39"/>
<path d="M65.4698 141.021H63.4902V143H65.4698V141.021Z" fill="#594A39"/>
<path d="M75.3673 141.021H73.3877V143H75.3673V141.021Z" fill="#594A39"/>
<path d="M77.3468 141.021H75.3672V143H77.3468V141.021Z" fill="#594A39"/>
<path d="M85.2657 141.021H83.2861V143H85.2657V141.021Z" fill="#594A39"/>
<path d="M87.2452 141.021H85.2656V143H87.2452V141.021Z" fill="#594A39"/>
<path d="M91.2042 141.021H89.2246V143H91.2042V141.021Z" fill="#594A39"/>
<path d="M93.1837 141.021H91.2041V143H93.1837V141.021Z" fill="#594A39"/>
<path d="M107.041 141.021H105.062V143H107.041V141.021Z" fill="#594A39"/>
<path d="M109.021 141.021H107.041V143H109.021V141.021Z" fill="#594A39"/>
<path d="M111 141.021H109.021V143H111V141.021Z" fill="#594A39"/>
</svg>
