<svg width="125" height="163" viewBox="0 0 125 163" fill="none" xmlns="http://www.w3.org/2000/svg">
<rect x="1.5" y="1.5" width="122" height="160" rx="8.5" fill="white"/>
<rect x="1.5" y="1.5" width="122" height="160" rx="8.5" stroke="#E9E3D8" stroke-width="3"/>
<path d="M25.2594 26.7844L23.6816 27.2828C23.6383 26.9577 23.5735 26.5677 23.487 26.1777C19.3804 26.7844 18.6888 26.9577 18.2565 27.1744C18.1484 26.7627 17.8458 25.8093 17.6297 25.2893C18.1052 25.1593 18.6023 24.6609 19.2723 23.8808C19.5533 23.5341 20.1585 22.7757 20.8285 21.779C18.9049 22.0173 18.4294 22.1473 18.1052 22.2557C17.9971 21.8873 17.7161 20.9772 17.5 20.5005C17.889 20.4139 18.2349 19.9588 18.6671 19.3304C19.0994 18.7021 20.4827 16.2969 21.2608 14L23.1196 14.7584C22.255 16.6436 21.1744 18.6154 20.072 20.1972L21.9524 20.0455C22.536 19.1354 23.098 18.1387 23.5303 17.1636L25.2594 18.2254C23.9841 20.5655 22.2983 22.9707 20.6124 24.9209L23.1628 24.5959C22.9899 23.9242 22.7954 23.2308 22.5793 22.6457L24.0706 22.2557C24.5893 23.7291 25.1081 25.636 25.2594 26.7844ZM18.5159 27.9762L20.0937 28.2579C19.8991 30.1863 19.5101 32.2665 19.0562 33.6316C18.7104 33.4366 17.9539 33.1983 17.5432 33.0683C18.0403 31.7248 18.3429 29.7746 18.5159 27.9762ZM20.6988 28.2145L22.147 27.9545C22.4063 29.4063 22.6225 31.2698 22.6657 32.5265L21.1311 32.8082C21.1095 31.5515 20.915 29.6446 20.6988 28.2145ZM22.7522 27.8028L24.0922 27.3694C24.5029 28.4095 24.9135 29.7313 25.0865 30.6197L23.6816 31.1181C23.5303 30.208 23.1412 28.8212 22.7522 27.8028ZM29.1931 25.5276L30.3602 25.9393C29.647 29.2329 27.8963 31.6165 25.6916 32.8949C25.4323 32.5049 24.9135 31.8332 24.5461 31.5081C26.0375 30.6847 27.3775 29.1246 28.1124 27.2394H25.7349V25.5926H28.8905L29.1931 25.5276ZM28.3718 20.8689V22.429H34.5101V20.8689H28.3718ZM28.3718 17.8787V19.4171H34.5101V17.8787H28.3718ZM35.6556 24.5742L37.147 25.8093C36.1744 26.6544 35.1153 27.5645 34.2075 28.2362C35.0937 29.623 36.2392 30.7714 37.5576 31.4648C37.1254 31.8115 36.5418 32.5482 36.2392 33.0466C34.7695 32.0932 33.5375 30.5547 32.6081 28.7346V31.8332C32.6081 32.7866 32.4135 33.3283 31.7867 33.6316C31.1599 33.935 30.1873 33.9567 28.8256 33.9567C28.7608 33.4149 28.5014 32.6132 28.2637 32.1148C29.1715 32.1582 30.0793 32.1582 30.3386 32.1365C30.6196 32.1148 30.6844 32.0498 30.6844 31.8115V24.0108H26.4914V16.3185H29.6902C29.9712 15.5818 30.2305 14.6934 30.3818 14.0217L32.6513 14.4767C32.3487 15.1051 32.0461 15.7551 31.7219 16.3185H36.4769V24.0108H32.6081V24.7692C32.8458 25.506 33.1052 26.221 33.451 26.8927C34.2507 26.156 35.0937 25.2459 35.6556 24.5742Z" fill="#B8C318"/>
<path d="M51.2824 30.8581H60.5764V32.8949H41.232V30.8581H49.121V14.3467H51.2824V20.7822H59.085V22.7974H51.2824V30.8581Z" fill="#B8C318"/>
<path d="M75.2089 26.2644H80.6988V23.4041H75.2089V26.2644ZM67.7954 26.2644H73.134V23.4041H67.7954V26.2644ZM73.134 18.8321H67.7954V21.5406H73.134V18.8321ZM80.6988 18.8321H75.2089V21.5406H80.6988V18.8321ZM75.2089 16.9036H82.7738V29.2763H80.6988V28.1928H75.2089V33.935H73.134V28.1928H67.7954V29.3846H65.8069V16.9036H73.134V14.065H75.2089V16.9036Z" fill="#B8C318"/>
<path d="M107.241 16.7952V18.442H100.908V16.7952H103.242C103.004 16.0802 102.659 15.2784 102.313 14.6284L103.977 14.13C104.409 14.9534 104.885 15.9935 105.187 16.7952H107.241ZM103.501 22.169L102.075 22.559C102.053 21.6273 101.794 20.1538 101.448 19.0271L102.788 18.6804C103.177 19.7855 103.48 21.2156 103.501 22.169ZM94.0562 16.8386V18.4854H87.8746V16.8386H90.1657C89.928 16.1668 89.6037 15.3868 89.2795 14.7801L90.9438 14.2817C91.3977 15.0618 91.83 16.0802 92.0893 16.8386H94.0562ZM90.3602 22.169L88.9121 22.559C88.9121 21.649 88.6744 20.2189 88.3501 19.1138L89.6902 18.7671C90.0576 19.8288 90.317 21.2373 90.3602 22.169ZM93.7752 28.1712H91.7651C91.6138 30.208 90.9654 32.4615 89.0634 34C88.804 33.61 88.2637 33.0033 87.8746 32.6999C89.4308 31.5731 89.8631 29.7746 89.9712 28.1712H87.9827V26.5244H90.0144V24.2709H87.7234V22.6241H91.1167C91.4409 21.4973 91.83 19.8288 91.9813 18.6587L93.5375 18.9837C93.1917 20.1972 92.8242 21.5623 92.5 22.6241H94.1427V24.2709H91.8084V26.5244H93.7752V28.1712ZM100.065 18.8537V19.6988C99.9352 28.9079 99.8271 31.8982 99.33 32.7216C99.0058 33.2633 98.6599 33.4583 98.1196 33.545C97.6873 33.6316 97.0605 33.61 96.3905 33.5883C96.3689 33.1116 96.196 32.3965 95.9582 31.9415C96.5418 31.9848 97.0605 31.9848 97.3415 31.9848C97.5793 31.9848 97.7305 31.9198 97.8818 31.6381C98.2061 31.0748 98.3141 28.4095 98.4222 20.5872H97.1902C96.9525 26.156 96.2824 30.6414 94.121 33.9783C93.9049 33.675 93.17 33.0683 92.8242 32.7866C94.8127 29.948 95.4611 25.7226 95.6556 20.5872H94.4885V18.8537H95.6989C95.7205 17.3153 95.7205 15.7118 95.7205 14.065H97.2983C97.2983 15.7335 97.2767 17.3153 97.2334 18.8537H100.065ZM107.5 24.2925H105.101V26.8494H107.241V28.4962H105.101V33.8917H103.285V28.4962H101.21V26.8494H103.285V24.2925H100.821V22.6457H104.409C104.755 21.4973 105.144 19.7638 105.295 18.5937L106.83 18.9404C106.549 20.1538 106.182 21.5623 105.857 22.6457H107.5V24.2925Z" fill="#B8C318"/>
<path d="M24.7052 67.5374H29.0331L29.0028 67.4941C29.0028 68.224 29.0108 68.9532 29.0266 69.6817H26.8627V71.8454H24.6987V82.6489H22.5758V84.7737H24.6987C24.6597 85.4726 24.6208 86.1736 24.5753 86.9569H22.552V89.0557H31.1841V82.61L31.1538 82.6424H33.3438L33.3135 82.61V91.2649L35.4969 91.3752V93.4243H37.6609C37.6609 94.8502 37.6609 96.2739 37.6609 97.7366H44.0836V95.5058H41.9672V93.4394H37.6392C37.676 92.7449 37.7128 92.0503 37.7539 91.2757H39.7989V89.1011L41.9628 89.2223V91.2649H48.4548V93.5087H54.9186V95.5772H57.0631V91.28H48.4613V86.9374H52.8065V89.1011H54.8991V86.9591H52.7741C52.813 86.2602 52.852 85.5634 52.8888 84.9187H59.1643V86.9374H57.128V89.0687H65.812V84.8775L67.9132 84.7758V86.9396H70.0772C70.0382 87.6385 70.0015 88.3373 69.9582 89.1206H67.9565V97.7431H70.0815V102.071H74.4095V104.223H76.5107V102.084H74.3748L74.4917 99.9198H76.5388V97.7366H80.8668V99.9782H83.0134V102.114H91.6498V106.411L91.6823 106.381H89.5053V104.245H80.8494V102.084H78.7482V104.213H80.8668L80.8451 106.411L80.8776 106.381H72.2347V104.282H69.9928V108.464L67.8916 108.564V106.4H65.7276C65.7276 105.679 65.7276 104.953 65.7276 104.221H67.8916V99.9501H63.5983V102.084H61.4343V104.247H57.0912V101.988H52.7849V99.9198H41.9282V106.26H39.8292V104.247H37.7107V110.676H39.8249C39.8573 109.968 39.8854 109.332 39.9201 108.54H48.4742C48.4353 109.237 48.3985 109.931 48.3531 110.736H41.9931V112.883H35.5532V115.118H37.6695V117.18H39.8335C39.7967 117.877 39.7578 118.573 39.7167 119.344H37.715V121.587H39.8097V125.841L39.8422 125.809H35.4839V121.481H33.3308L33.3611 121.514V119.337H35.4882V117.191L33.3243 117.087V110.715H28.9963V108.529H26.8324L26.8648 108.562C26.8648 107.833 26.8453 107.106 26.8367 106.376H31.1798V108.523H33.4V106.396H35.4406V104.137H33.3243V99.9458H31.104V104.234H26.8345C26.8713 103.561 26.9059 102.888 26.9471 102.088H28.9833V99.9198H24.7333V104.208H26.8583V106.411H22.5455V104.247H20.3556V99.9544H16.0882V102.133H18.118L18.2197 104.239H16.0666V106.342H18.1959V104.217H20.3794V108.575H18.1938V110.738L18.2262 110.695H16.0623V112.775H14V97.8383H16.0861V91.3579L18.2327 91.2562V95.6637H20.3772V97.7279H22.4936V93.3442H20.3794V91.28H18.2154L18.2522 89.0903L18.2089 89.1206H20.3383V86.9374H18.2089L18.2414 86.9699L18.2154 84.7802H20.3794V82.6792H18.25V84.804L16.0601 84.778L16.1034 84.8105V82.6467H14.0368V80.5328H16.1142V78.2998L16.0752 78.3388L20.4032 78.2976V80.4614H22.5044V78.3301H20.3794V74.0654H22.5044V71.8173H20.5136V69.7336H24.7463V67.5006L24.7052 67.5374ZM65.7298 91.306H59.2941V97.7258H65.7298V91.306ZM24.7506 91.28V97.7128H31.1625V91.28H24.7506ZM52.7806 95.6183H46.3276V97.6955H52.7806V95.6183ZM35.5012 102.04H39.8097V99.9479H35.5012V102.04ZM54.9402 99.8765H57.0869V97.7885H54.9402V99.8765Z" fill="#594A39"/>
<path d="M37.6936 138.801C37.6806 138.071 37.6698 137.342 37.6568 136.611H39.8099V134.51H37.6784V136.635H33.3613V142.979H31.2969V132.418H33.2704V134.421H35.521V132.376H39.8489V130.128L39.8056 130.161L41.9956 130.137V132.301H44.0968V130.169H41.9718V127.969H39.8078L39.8402 128.001V125.81L39.8078 125.842L48.4745 125.816C48.4399 126.489 48.4074 127.162 48.3663 127.96H46.3235V130.213H48.4507V132.255H50.6147V125.816L52.7916 125.864L52.7548 125.825V127.967H57.165V121.528H59.2273V119.273H57.2191V117.302H63.4622V119.34H61.48V121.592H67.9091V125.816H70.0731C70.032 126.515 69.993 127.214 69.9476 127.997H67.9199V130.213H69.9346V134.462H65.7863V140.953H67.9178L67.8745 140.921V142.998H63.6634V140.964H57.0871V142.996H52.8652V140.899H50.6168L50.6536 140.936V134.512H41.9977V140.919H39.8186L39.8511 140.962V138.77H37.659L37.6936 138.801ZM54.9578 134.473H52.7938V138.738H54.9275V134.451H57.1066V138.779H59.2511C59.2857 138.065 59.3182 137.405 59.355 136.654H63.5293V134.49H57.0828V132.368H54.9513L54.9578 134.473ZM65.7105 132.309V125.848H59.3138V132.303L65.7105 132.309Z" fill="#594A39"/>
<path d="M65.7196 52.4134H70.0021V56.7409H74.3798L74.3409 56.7041C74.356 57.4289 74.369 58.1538 74.3841 58.8678H72.2201V60.9731H74.3755V58.857L76.4529 58.9565C76.4875 59.6467 76.52 60.3024 76.5589 61.0532H78.7229L78.6904 61.0099V65.3633H80.8825L80.8501 65.3309L80.876 67.5206H78.7229V69.628H80.8522V67.5032L83.027 67.6222V69.628H85.2689V67.5314H89.5233L89.4908 67.4989V69.6908L89.5233 69.6583H87.3961V71.8502H89.5233L89.4908 71.8199V74.0117L89.5233 73.9793H85.1953V71.8848H82.9535V76.1668H78.7034V73.9122H76.5632V63.232H67.9225V65.359H65.7585V67.5227H63.5816V65.385H61.4479V67.4989H63.6119C63.6119 68.2259 63.6119 68.9508 63.6119 69.6778H59.2839V65.3979H52.8504V67.5746H54.8802C54.9149 68.332 54.9473 69.0049 54.9798 69.6778H46.3477V67.4903L46.3152 67.5227H50.5718V65.3309H46.2871L46.3196 65.3633V63.1996H50.6475V61.0099L50.6151 61.0423H52.8396V56.7993L54.9646 56.6976V63.1693H57.0637V56.7214H54.9387L54.9625 54.5317L54.93 54.562H57.1762V52.5129H61.4219V54.4992H65.7499V52.3701L65.7196 52.4134ZM59.2904 56.7235V63.1606H65.7196V56.7235H59.2904ZM70.0475 58.9067H67.9333V61.0056H70.0475V58.9067Z" fill="#594A39"/>
<path d="M37.6492 65.3737H39.7785V58.8284H37.66L37.6968 58.8674C37.6968 57.4249 37.6968 55.9824 37.6968 54.5399L37.6535 54.5702L39.8369 54.5442V56.669H41.9771V54.5377L48.4842 54.5615L48.4517 54.5312V56.695L50.6157 56.7988V61.0419L50.6481 61.0095H48.4842V58.876H46.3007V56.7534H44.1649V58.876H42.0399V61.0138H44.1606V65.3629H46.3245L46.2921 65.3304V67.5223L46.3245 67.4898H39.8716V69.7423H41.9987V74.0005H37.6859V76.1015H41.9749V73.9767H48.4669C48.4279 74.6734 48.389 75.3701 48.3478 76.1404H44.1844V78.382H46.186V80.47H39.8045V78.3171H37.7033V80.4462H39.8261V82.6316L33.3342 82.6035L33.3645 82.6359V80.5068H31.1746V82.6359L31.2048 82.6035L26.8574 82.6273C26.8985 81.9306 26.9375 81.2338 26.9808 80.4635H29.0149V78.3171L26.9851 78.2133V76.1361H29.0214V73.9724H31.1984V76.095H35.4982V71.8173H37.6859V65.3261L37.6492 65.3737Z" fill="#594A39"/>
<path d="M108.912 76.1301V78.2073L106.789 78.3155V80.4792H104.636V82.5823H106.765V80.4576L108.864 80.5571V82.6213H110.987V84.7028H108.951V86.8838H106.752V89.1211L106.796 89.0908H102.507V93.4421H104.636L104.604 93.4096V95.5928L104.636 95.5604H102.507V97.7566H104.636L104.604 97.7263V99.9203L104.636 99.8879H98.064V101.969L95.9714 102.075V99.8619H85.2186V97.7414L85.1797 97.7782H87.4151V93.4399H91.6521V86.9379H96.0536V84.9192H100.306V86.9379H102.418V80.3905H100.412V78.2982H104.636V73.9707L104.604 74.0032H106.796L106.763 73.9707V76.1626H108.955L108.912 76.1301ZM93.8507 91.2654V97.7198H100.25V91.2654H93.8507ZM89.5228 95.5928V97.7285H91.6002V95.5928H89.5228Z" fill="#594A39"/>
<path d="M91.6439 123.693H96.0151V121.502L95.9784 121.538H98.1423V119.448H100.241V123.652H102.36V125.851H104.587V130.161L104.63 130.131H102.466V134.421H106.794V132.29L106.761 132.322H108.954L108.91 132.29C108.91 133.732 108.907 135.179 108.899 136.63L108.938 136.594H98.1185L98.1488 136.637V134.508H95.9589V136.637L95.9892 136.604H93.7992L93.8295 136.637V134.449H85.1585L85.191 134.482C85.191 133.753 85.1715 133.026 85.1628 132.296H87.2987V130.163H85.1953V132.327L83.0097 132.296L83.0421 132.329V130.131H80.8457L80.8782 130.161V127.969L80.8457 128.001H83.0097V125.816L85.1974 125.842L85.165 125.81V127.973H89.5232V132.29H91.6266V127.999H89.5016L89.5254 125.81L89.4929 125.842H91.6872V123.65L91.6439 123.693ZM100.3 125.857H93.8512V132.26H100.311L100.3 125.857Z" fill="#594A39"/>
<path d="M93.7922 112.848V114.975H89.4924V117.079L87.3284 117.195V115.032H83.0134V110.722H80.9079V115.017H83.0308V117.18H87.3587V119.366H89.4816V121.529L89.5248 121.497H87.3976V123.691H89.5227L89.4902 123.658V125.842L89.5227 125.809H85.1709L85.2034 125.842V123.678H83.0091V121.514H80.8451V119.394H76.5172V123.68L76.5497 123.648L72.2044 123.674C72.2044 122.957 72.2195 122.239 72.2282 121.51L72.1914 121.547H74.4419V117.198H78.6465V114.943H76.6492V112.89H78.6509V110.633H76.6449V108.543H80.8689V106.379L80.8365 106.409H83.0351V108.575H85.1774L85.1406 108.536V110.782H87.3219V112.881H93.8268L93.7922 112.848Z" fill="#594A39"/>
<path d="M96.084 46H110.976V60.9146H96.084V46ZM108.934 48.101H98.1636V58.8093H108.934V48.101Z" fill="#594A39"/>
<path d="M14.0098 128.079H28.9044V142.994H14.0098V128.079ZM16.0698 140.912H26.8421V130.197H16.0698V140.912Z" fill="#594A39"/>
<path d="M28.9315 60.9341H14.0391V46.0195H28.9315V60.9341ZM26.8736 48.0989H16.097V58.8093H26.8736V48.0989Z" fill="#594A39"/>
<path d="M78.7178 138.757H76.5257L76.5582 138.8V136.609H74.3747L74.4072 136.641L74.3812 134.451H76.5452V132.35H74.4158V134.475L72.373 134.363V130.145H76.5776V123.654L76.5452 123.687L78.733 123.661V125.825H80.8969L80.871 128.012L80.9034 127.98H78.7741V130.171H80.9034L80.871 130.141V132.333H83.0306L82.9981 132.301V134.492H85.1946L85.1621 134.46V136.652L85.1946 136.619H78.6832V138.811L78.7178 138.757Z" fill="#594A39"/>
<path d="M67.8475 48.0451V50.1547H65.7182V52.4136L65.7485 52.3704H63.565V50.278H54.9091V54.5622L54.9416 54.5319H52.7776V50.2045H50.5898L50.6331 50.2369V48.1273H54.9394V46.0068H56.9995V48.0364H59.2544V46.009H61.3123V48.0343H63.5693V46.0112H65.6662V48.0797H67.8821L67.8475 48.0451Z" fill="#594A39"/>
<path d="M106.747 69.6665C106.747 70.3877 106.747 71.109 106.747 71.8302L106.79 71.7999H104.598V73.9918L104.63 73.9593L102.449 73.9377L102.486 73.9745V71.7588H98.1191V69.6492H95.9551L95.9854 69.6816V67.4898L95.9551 67.533H98.1191V63.3008H100.203V65.3001H102.453V63.3138H104.54V69.7054H106.773L106.747 69.6665ZM102.445 67.5439H100.326V69.647H102.445V67.5439Z" fill="#594A39"/>
<path d="M20.4093 117.131H18.2454V119.229H14.0234V117.265H16.0662V115.127L18.2475 115.015V110.687L18.2151 110.73H22.6382V108.567H26.8861L26.8536 108.534L26.8796 110.722H24.7589V112.862H26.8818C26.8818 113.589 26.8645 114.318 26.8536 115.045L26.8861 115.004H20.3769V117.167L20.4093 117.131Z" fill="#594A39"/>
<path d="M89.4844 65.3738H93.8318V63.3096H95.9655V67.5332L95.9958 67.4899H93.8686V69.6818H95.9958L95.9655 69.6493C95.9655 71.813 95.9734 73.9825 95.9893 76.1578H89.4974L89.5212 73.9703L89.4887 74.0027H93.7755V71.8109H89.4887L89.5212 71.8412V69.6493L89.4887 69.6818H91.618V67.4899H89.4887L89.5212 67.5224V65.3305L89.4844 65.3738Z" fill="#594A39"/>
<path d="M106.752 89.121H108.871V97.7565H110.994V101.976H108.914V104.202H106.763L106.796 104.246V102.049H104.604L104.636 102.082V99.8899L104.604 99.9224H106.731V97.7305H104.604L104.636 97.7608V95.5689L104.604 95.6014H106.731V93.4095H104.604L104.636 93.442V91.2783H106.8V89.1016L106.752 89.121Z" fill="#594A39"/>
<path d="M24.7446 67.5011H22.6261V65.3893H16.0844V67.5076H18.1034V71.7095H14.0156V63.2861H24.7057V67.5379L24.7446 67.5011Z" fill="#594A39"/>
<path d="M102.433 106.37V108.495H98.1335V110.678H95.9696L95.9999 110.721V108.592H93.8099V110.721L93.8402 110.689H89.627V108.562H91.6871V106.37L91.6546 106.4H95.9825V104.213H100.293V106.411H102.487L102.433 106.37Z" fill="#594A39"/>
<path d="M95.9802 140.912H91.6674V142.994H89.5813V138.837H87.3416V140.919H83.0137L83.0461 140.962V138.798H85.2101V136.608L85.1776 136.641H93.8487L93.8184 136.608V138.8H96.0083L95.9672 138.77C95.9672 139.491 95.9636 140.218 95.9564 140.951L95.9802 140.912Z" fill="#594A39"/>
<path d="M29.0421 67.533V65.3282H26.9863V63.3008H37.6504V65.3736L37.6828 65.3304H35.5189C35.4842 66.0768 35.4518 66.7346 35.4172 67.4941H29.0183L29.0421 67.533Z" fill="#594A39"/>
<path d="M80.8457 61.0527H83.0097V58.9863H85.1239V61.0635H87.3528L87.316 61.0267V63.1688H89.4908V65.3737L89.5232 65.3304H85.1953V63.2294H82.9534V65.3304H80.8522L80.8847 65.3628V61.0094L80.8457 61.0527Z" fill="#594A39"/>
<path d="M22.5479 119.377H24.6124V125.695H20.464V123.628H16.0625L16.0993 123.665V121.558H22.5912V119.34L22.5479 119.377Z" fill="#594A39"/>
<path d="M83.0298 54.5142H80.8658V56.6022H78.7689V52.3699H72.277V50.2213L72.2402 50.2581H80.8961L80.8637 50.2148V52.4024H83.0298L82.9865 52.3699L82.9757 54.551L83.0298 54.5142Z" fill="#594A39"/>
<path d="M91.6272 48.0664V52.3939H93.7111V56.6045H87.4355V54.6312H89.5216V48.1032H91.6618L91.6272 48.0664Z" fill="#594A39"/>
<path d="M70.0799 140.918H67.877L67.9202 140.951V136.623H74.3992L74.3667 136.591V138.783H76.5588L76.5264 138.739V140.903H72.1984L72.2309 140.946V138.817H70.0474V140.946L70.0799 140.918Z" fill="#594A39"/>
<path d="M39.8537 130.128H31.213V125.801L31.1719 125.833H33.3358V127.997H39.8278L39.7953 127.965V130.156L39.8537 130.128Z" fill="#594A39"/>
<path d="M106.778 140.912H104.614V142.998H100.4V138.887H106.739V140.953L106.778 140.912Z" fill="#594A39"/>
<path d="M80.8769 50.2538V48.0771H78.8125V46.0107H87.252V47.9906H82.9998V50.2408L83.0431 50.2084H80.8445L80.8769 50.2538Z" fill="#594A39"/>
<path d="M35.5059 50.2579H37.6698V48.1699H41.9545V50.2428L41.9978 50.2103H39.8338V52.3957H37.646V54.5594L37.6893 54.5291H35.5383V50.2211L35.5059 50.2579Z" fill="#594A39"/>
<path d="M106.785 69.7038V63.3057H108.847C108.88 63.9548 108.91 64.6169 108.944 65.3612H110.976V67.4449H108.929V69.561L106.748 69.6649L106.785 69.7038Z" fill="#594A39"/>
<path d="M95.9805 112.902H100.308L100.272 112.866V115.029H102.358V117.085H98.2461V115.003H96.0151V112.861L95.9805 112.902Z" fill="#594A39"/>
<path d="M31.2128 125.809H26.9844V123.755L29.0553 123.658V121.494L29.0142 121.525H33.3638L33.3335 121.492V123.656H31.1695V125.841L31.2128 125.809Z" fill="#594A39"/>
<path d="M46.2891 50.2542L50.6516 50.2434L50.6083 50.2109V54.5384H48.4444L48.4768 54.5687V52.405L46.3129 52.2968V50.2196L46.2891 50.2542Z" fill="#594A39"/>
<path d="M106.8 123.611H104.723V119.359H108.923L108.884 119.324V121.414L106.765 121.507V123.647L106.8 123.611Z" fill="#594A39"/>
<path d="M18.2538 89.1013H14.0254V84.802H16.0942L16.0509 84.7695V86.9614H18.243L18.2105 86.9289V89.1208L18.2538 89.1013Z" fill="#594A39"/>
<path d="M106.763 104.198V106.362H102.436L102.479 106.392V102.084H104.643L104.61 102.052V104.248H106.802L106.763 104.198Z" fill="#594A39"/>
<path d="M39.8103 140.918V143H35.6035V138.8H37.6939L37.6506 138.77V140.961H39.8427L39.8103 140.918Z" fill="#594A39"/>
<path d="M106.873 110.578V108.611H108.94V106.493H110.993V110.578H106.873Z" fill="#594A39"/>
<path d="M33.2601 56.8379V60.8949H31.3125V56.8379H33.2601Z" fill="#594A39"/>
<path d="M44.1722 50.2434V46.0068H46.2886V50.2542L46.321 50.211H44.1289L44.1722 50.2434Z" fill="#594A39"/>
<path d="M96.0142 121.501H93.9238V117.282H95.9753C95.9753 118.693 95.9753 120.115 95.9753 121.538L96.0142 121.501Z" fill="#594A39"/>
<path d="M82.9941 50.2434H87.2225V52.3703H82.9941L83.0374 52.4028V50.2109L82.9941 50.2434Z" fill="#594A39"/>
<path d="M35.543 50.2216H31.293V48.166H35.4045C35.4391 48.8541 35.4716 49.5573 35.5062 50.2583L35.543 50.2216Z" fill="#594A39"/>
<path d="M91.7539 60.8956V58.998H93.6885V60.8956H91.7539Z" fill="#594A39"/>
<path d="M87.3454 61.0639V58.9824H89.3838V60.9298L87.3086 61.0207L87.3454 61.0639Z" fill="#594A39"/>
<path d="M78.718 61.0533V58.9805H80.8452V61.0533L80.8777 61.01H78.6855L78.718 61.0533Z" fill="#594A39"/>
<path d="M37.6615 58.8291V60.9106H35.623V58.9633L37.6983 58.8724L37.6615 58.8291Z" fill="#594A39"/>
<path d="M82.9824 54.5514H85.0642V56.5918H83.1166C83.0863 55.9081 83.0538 55.2114 83.0235 54.5146L82.9824 54.5514Z" fill="#594A39"/>
<path d="M74.3883 56.7426V54.6611H76.4268V56.6085L74.3516 56.7015L74.3883 56.7426Z" fill="#594A39"/>
<path d="M96.0136 112.861L93.7891 112.848L93.8323 112.88V110.689L93.8021 110.721H95.992L95.9617 110.678C95.9617 111.418 95.9668 112.158 95.9768 112.898L96.0136 112.861Z" fill="#594A39"/>
<path d="M100.302 112.903V110.821H102.343V112.769L100.266 112.862L100.302 112.903Z" fill="#594A39"/>
<path d="M106.779 114.993H104.719V112.961H106.742V115.029L106.779 114.993Z" fill="#594A39"/>
<path d="M29.0421 117.159H26.8782V114.995L26.8457 115.036L29.0313 115.01C29.0227 115.74 29.0147 116.469 29.0075 117.198L29.0421 117.159Z" fill="#594A39"/>
<path d="M106.742 115.03H108.906V117.194L108.945 117.157H106.879C106.846 116.378 106.816 115.688 106.785 114.993L106.742 115.03Z" fill="#594A39"/>
<path d="M22.5846 119.34H20.4077V117.133L20.373 117.17L22.537 117.28V119.377L22.5846 119.34Z" fill="#594A39"/>
<path d="M29.052 119.361C29.052 118.627 29.052 117.892 29.052 117.158L29.0217 117.201H31.0948V119.328H29.0195L29.052 119.361Z" fill="#594A39"/>
<path d="M108.9 117.191H110.984V119.325H108.885L108.922 119.359C108.922 118.623 108.927 117.889 108.939 117.154L108.9 117.191Z" fill="#594A39"/>
<path d="M33.2601 52.502V54.4298H31.3125V52.502H33.2601Z" fill="#594A39"/>
<path d="M29.0531 121.491H26.9844V119.362H29.0553L29.0142 119.329V121.521L29.0531 121.491Z" fill="#594A39"/>
<path d="M16.106 78.3006H14.0156V76.1845H16.0736L16.0368 76.1455C16.0455 76.8768 16.0556 77.6075 16.0671 78.3374L16.106 78.3006Z" fill="#594A39"/>
<path d="M108.923 74.014H111V76.1301H108.912L108.955 76.1626V73.9707L108.923 74.014Z" fill="#594A39"/>
<path d="M89.4727 121.521H91.6366V123.684L91.6691 123.641H89.477L89.5094 123.674V121.488L89.4727 121.521Z" fill="#594A39"/>
<path d="M16.0619 123.628V125.709H14.0234V123.762L16.0987 123.669L16.0619 123.628Z" fill="#594A39"/>
<path d="M108.94 125.795H106.8V123.611L106.766 123.648L108.901 123.765V125.831L108.94 125.795Z" fill="#594A39"/>
<path d="M16.0739 76.184V74.1025H18.1124V76.0499L16.0371 76.1408L16.0739 76.184Z" fill="#594A39"/>
<path d="M41.959 50.2434H44.1727L44.1294 50.2109V52.2989L41.9655 52.3963C41.9655 51.6671 41.9828 50.9401 41.9936 50.2109L41.959 50.2434Z" fill="#594A39"/>
<path d="M108.9 125.831H110.989V127.971H108.954L108.991 128.007L108.939 125.794L108.9 125.831Z" fill="#594A39"/>
<path d="M106.752 71.8418H108.916V74.0055L108.948 73.9623H106.756L106.789 73.9947V71.8115L106.752 71.8418Z" fill="#594A39"/>
<path d="M106.806 130.16V127.997H108.998L108.962 127.962C108.949 128.693 108.934 129.423 108.918 130.152L108.962 130.121H106.77L106.806 130.16Z" fill="#594A39"/>
<path d="M72.2574 50.2213H70.0934V48.0576L70.0566 48.0944H72.1211C72.1557 48.8733 72.186 49.5636 72.2163 50.2581L72.2574 50.2213Z" fill="#594A39"/>
<path d="M104.592 130.161H106.806L106.762 130.13V132.322L106.795 132.29H104.631V130.126L104.592 130.161Z" fill="#594A39"/>
<path d="M108.912 130.16H110.985V132.289H108.912L108.955 132.322V130.13L108.912 130.16Z" fill="#594A39"/>
<path d="M91.6638 48.103V46.0215H93.7022V47.9688L91.627 48.0619L91.6638 48.103Z" fill="#594A39"/>
<path d="M48.3577 138.7H46.4102V136.733H48.3577V138.7Z" fill="#594A39"/>
<path d="M70.0982 48.0623L67.8477 48.045L67.8844 48.0796C67.9191 47.4153 67.9537 46.7489 67.9905 46.0176H70.0614V48.0991L70.0982 48.0623Z" fill="#594A39"/>
<path d="M98.1249 136.598V138.761H95.9609L96.0021 138.792V136.608L95.9718 136.641H98.1617L98.1249 136.598Z" fill="#594A39"/>
<path d="M108.9 136.631H110.982V138.669H109.035C109.004 137.987 108.974 137.29 108.944 136.594L108.9 136.631Z" fill="#594A39"/>
<path d="M80.8781 140.919H78.7141V138.755L78.6816 138.798H80.8456V140.962L80.8781 140.919Z" fill="#594A39"/>
<path d="M50.6185 140.907V142.989H48.5801V141.041L50.6553 140.948L50.6185 140.907Z" fill="#594A39"/>
<path d="M72.2104 140.918V142.991H70.0832V140.918L70.0508 140.961H72.2429L72.2104 140.918Z" fill="#594A39"/>
<path d="M83.0053 140.918V142.991H80.8782V140.918L80.8457 140.961H83.0313L83.0053 140.918Z" fill="#594A39"/>
<path d="M95.9434 140.951H98.0229V142.989H96.0754C96.0451 142.306 96.0148 141.609 95.9823 140.912L95.9434 140.951Z" fill="#594A39"/>
<path d="M106.742 140.951H108.824V142.989H106.876C106.846 142.306 106.816 141.609 106.785 140.912L106.742 140.951Z" fill="#594A39"/>
<path d="M48.4516 108.558V106.376H46.3417V104.213L46.3027 104.25L57.1226 104.204C57.0923 104.871 57.0598 105.535 57.0231 106.288L54.937 106.381V108.521L54.9738 108.482L48.4516 108.558Z" fill="#594A39"/>
<path d="M54.9115 110.704V117.085H46.3984V115.103H52.754V112.857H50.7264V110.739H54.9483L54.9115 110.704Z" fill="#594A39"/>
<path d="M67.8839 110.76L72.2313 110.743L72.1923 110.704V112.807H70.0478V114.926H63.6836V112.952H67.9185V110.721L67.8839 110.76Z" fill="#594A39"/>
<path d="M52.7895 125.863V121.484H50.7402V119.452H54.8518V125.727L52.7592 125.827L52.7895 125.863Z" fill="#594A39"/>
<path d="M54.9489 110.739C54.9489 109.988 54.9489 109.239 54.9662 108.488L54.9294 108.525H59.1492V110.702H54.9121L54.9489 110.739Z" fill="#594A39"/>
<path d="M61.3275 112.965V114.925H57.2051V112.965H61.3275Z" fill="#594A39"/>
<path d="M44.1561 121.516L41.9727 121.413V117.174L44.1561 117.278V121.516Z" fill="#594A39"/>
<path d="M48.4759 123.678H44.2562C44.2107 122.875 44.1718 122.185 44.1328 121.492H48.3526C48.4067 122.295 48.437 122.985 48.4759 123.678Z" fill="#594A39"/>
<path d="M63.5936 104.213V106.398L61.5248 106.301C61.4859 105.589 61.4491 104.901 61.4102 104.213H63.5936Z" fill="#594A39"/>
<path d="M65.7559 106.375V108.558L63.579 108.508L63.6158 108.545L63.5703 106.381L65.7559 106.375Z" fill="#594A39"/>
<path d="M63.5795 108.508V110.589H61.541V108.642L63.6163 108.551L63.5795 108.508Z" fill="#594A39"/>
<path d="M65.7324 108.534H67.9159C67.9159 109.276 67.8921 110.016 67.8812 110.758L67.9159 110.722L65.845 110.616L65.7324 108.534Z" fill="#594A39"/>
<path d="M72.2284 110.738V108.661H74.2669V110.608L72.1895 110.699L72.2284 110.738Z" fill="#594A39"/>
<path d="M41.9727 115.038V112.853L44.0436 112.959V114.919L41.9727 115.038Z" fill="#594A39"/>
<path d="M39.8145 117.198C39.8447 116.536 39.875 115.874 39.9118 115.127L41.9979 115.015V117.198H39.8145Z" fill="#594A39"/>
<path d="M70.0621 119.314H68.002V117.282H70.0253V119.351L70.0621 119.314Z" fill="#594A39"/>
<path d="M70.0254 119.35H72.211V121.557L72.2478 121.521L70.0838 121.408C70.0838 120.696 70.0838 120.004 70.0838 119.312L70.0254 119.35Z" fill="#594A39"/>
<path d="M50.6366 125.837H48.4531V123.654L50.524 123.752C50.5717 124.461 50.5998 125.149 50.6366 125.837Z" fill="#594A39"/>
<path d="M72.2342 123.654C72.2018 124.314 72.1715 124.976 72.1368 125.725L70.0508 125.837C70.0811 125.175 70.1114 124.513 70.1481 123.767L72.2342 123.654Z" fill="#594A39"/>
<path d="M63.5696 69.6534H65.7336V67.4897L67.9192 67.5286L67.8889 67.4854V73.9982H70.081L70.0485 73.9657L70.0767 76.1489H67.9386V78.2824H70.0464V76.1186L72.232 76.1489L72.1887 76.1165V80.392H65.7184V82.5125H63.6561V78.3365H57.082V82.5233H50.748V80.5326H54.9115V78.3148H52.9077V76.2182H54.9223V73.9744L57.0279 74.0804V76.1186H65.7184V73.996H59.3845V71.9037H63.5609L63.5696 69.6534Z" fill="#594A39"/>
<path d="M89.4843 78.333L95.9935 78.294L95.8853 80.395H91.7067V82.6366H93.6975V84.7225H91.6721V86.9576H87.3052V89.1019L87.3419 89.0651H83.014L83.0465 89.1062V86.9381H80.8457L80.889 86.9706V84.7744L80.8457 84.8068H83.0313V82.6107L82.9988 82.6431H85.1953V84.7744H89.5232V78.2832L89.4843 78.333Z" fill="#594A39"/>
<path d="M83.005 89.0801V91.2849H85.063V93.3686H80.8519V95.4631H78.7658V93.4292H76.5391C76.5715 92.7606 76.6061 92.092 76.6451 91.3066H80.8973V89.1017L80.854 89.132H83.031L83.005 89.0801Z" fill="#594A39"/>
<path d="M76.5539 97.7567H70.0469V93.4141H76.5496L76.5539 97.7567Z" fill="#594A39"/>
<path d="M44.1575 86.9573H39.8295V89.121H35.6055V87.0244H37.6483V84.8823L39.8122 84.7827V82.6104L41.8875 82.712C41.9221 83.4023 41.9546 84.0579 41.9913 84.7936H44.032C44.0796 85.5703 44.1185 86.2649 44.1575 86.9573Z" fill="#594A39"/>
<path d="M80.8888 84.7737H76.5608V80.4463L76.5176 80.4766H78.7097L78.6772 80.4463V82.6381H80.8693L80.8369 82.6057V84.7975L80.8888 84.7737Z" fill="#594A39"/>
<path d="M48.4531 73.9988C48.4856 73.3302 48.518 72.6638 48.5592 71.8135H54.9559V73.9988H48.4531Z" fill="#594A39"/>
<path d="M70.0469 86.9576V84.7744H74.3402V86.9511L74.377 86.9143L70.0469 86.9576Z" fill="#594A39"/>
<path d="M46.3163 86.9375L46.2124 89.0104H44.2497C44.2107 88.3353 44.1718 87.6364 44.1328 86.9375H46.3163Z" fill="#594A39"/>
<path d="M74.3438 86.9508H76.4255V88.9891H74.4779C74.4476 88.3075 74.4173 87.6108 74.387 86.9141L74.3438 86.9508Z" fill="#594A39"/>
<path d="M80.8875 89.101H78.8145V86.9719H80.8875L80.8443 86.9395V89.1313L80.8875 89.101Z" fill="#594A39"/>
<path d="M48.4764 86.9574H46.293C46.3276 86.2845 46.3601 85.6137 46.3968 84.8867H48.3596C48.4072 85.5596 48.4375 86.2585 48.4764 86.9574Z" fill="#594A39"/>
<path d="M70.0749 84.7975H67.8828C67.9153 84.1245 67.9499 83.4516 67.9867 82.7246H69.9494C69.9948 83.3997 70.0338 84.0986 70.0749 84.7975Z" fill="#594A39"/>
<path d="M67.9174 67.5333L67.8915 65.335L70.036 65.4345V67.5225L70.0793 67.49H67.8828L67.9174 67.5333Z" fill="#594A39"/>
<path d="M72.2542 67.5073V65.4453H74.2862V67.4641H72.2109L72.2542 67.5073Z" fill="#594A39"/>
<path d="M61.3362 80.5723V82.5196H59.3691V80.5723H61.3362Z" fill="#594A39"/>
<path d="M72.211 67.4639C72.211 68.2017 72.1959 68.9395 72.1894 69.6774L72.2326 69.6449H70.0687V67.4812L70.0254 67.5136L72.2435 67.4985L72.211 67.4639Z" fill="#594A39"/>
<path d="M76.5683 80.4467H74.4844V78.3284H76.5575L76.525 78.2852V80.477L76.5683 80.4467Z" fill="#594A39"/>
<path d="M78.7132 76.1338L78.6742 78.3213L78.7175 78.2889H76.5254L76.5579 78.3321V76.2528L78.7132 76.1338Z" fill="#594A39"/>
<path d="M72.21 74.014H74.2874V76.1301H72.1992L72.2425 76.1626V73.9707L72.21 74.014Z" fill="#594A39"/>
<path d="M72.1957 71.8115C72.1957 72.5443 72.1993 73.2785 72.2065 74.0142L72.239 73.9709H70.0469L70.0793 74.0034V71.8397H72.2433L72.1957 71.8115Z" fill="#594A39"/>
<path d="M72.1953 69.6819H74.2684V71.811H72.1953L72.2386 71.8413V69.6494L72.1953 69.6819Z" fill="#594A39"/>
<path d="M87.3047 89.1012H89.3843V91.1416H87.4367C87.4064 90.4579 87.3739 89.7612 87.3436 89.0645L87.3047 89.1012Z" fill="#594A39"/>
<path d="M85.2185 97.7416H83.1367V95.7012H85.0843C85.1146 96.3849 85.1449 97.0816 85.1752 97.7784L85.2185 97.7416Z" fill="#594A39"/>
<path d="M95.9908 102.054V104.248L93.9199 104.144V102.171L95.9908 102.054Z" fill="#594A39"/>
<path d="M46.3435 104.222H44.2617V102.182H46.2093C46.2396 102.865 46.272 103.562 46.3023 104.259L46.3435 104.222Z" fill="#594A39"/>
<path d="M85.195 108.575V106.493H87.2334V108.441L85.1582 108.534L85.195 108.575Z" fill="#594A39"/>
<path d="M29.037 112.877H26.8535V110.693H29.037V112.877Z" fill="#594A39"/>
<path d="M29.0137 115.038V112.853L31.0868 112.959V114.919L29.0137 115.038Z" fill="#594A39"/>
<path d="M26.8457 84.8407H28.921V86.8422H26.8803V84.8018L26.8457 84.8407Z" fill="#594A39"/>
<path d="M24.6953 84.7979V82.6104H26.8788L26.8463 84.8347L26.8809 84.7979H24.6953Z" fill="#594A39"/>
<path d="M61.5312 93.5107H63.4788V95.4776H61.5312V93.5107Z" fill="#594A39"/>
<path d="M26.959 95.4867V93.5264H28.926V95.4867H26.959Z" fill="#594A39"/>
<path d="M29.037 71.8135V73.9988L26.9682 73.9015C26.9292 73.1918 26.8925 72.5037 26.8535 71.8135H29.037Z" fill="#594A39"/>
<path d="M31.1971 71.8375H29.0137V69.6543L31.0846 69.7517C31.1235 70.4614 31.1603 71.1429 31.1971 71.8375Z" fill="#594A39"/>
<path d="M31.1738 73.9988V71.8135H33.3594C33.327 72.4756 33.2967 73.1377 33.2621 73.8842L31.1738 73.9988Z" fill="#594A39"/>
<path d="M35.5194 71.8373H33.3359C33.3684 71.1665 33.403 70.4936 33.4398 69.7666H35.4004C35.4393 70.4395 35.4783 71.1427 35.5194 71.8373Z" fill="#594A39"/>
<path d="M65.7559 104.248H63.5703V102.054L65.6412 102.151C65.6802 102.861 65.7191 103.549 65.7559 104.248Z" fill="#594A39"/>
<path d="M63.4905 128.115V130.013H61.543V128.115H63.4905Z" fill="#594A39"/>
<path d="M54.9316 71.8397V69.6543L57.0047 69.7603V71.7207L54.9316 71.8397Z" fill="#594A39"/>
<path d="M61.5234 58.959H63.484V60.9258H61.5234V58.959Z" fill="#594A39"/>
<path d="M78.6738 78.3216H87.3557L87.3232 78.2783V80.442H82.9953V82.6317L83.0277 82.5993H80.8443L80.8768 82.6317V80.4464H78.6846L78.7171 80.4767V78.2826L78.6738 78.3216Z" fill="#594A39"/>
<path d="M89.5218 76.1338C89.5218 76.8673 89.5044 77.5986 89.4936 78.3321L89.5261 78.2889H87.334L87.3664 78.3321V76.2528L89.5218 76.1338Z" fill="#594A39"/>
<path d="M44.1328 58.8545H46.3163C46.286 59.5166 46.2535 60.1787 46.2189 60.9252L44.1328 61.0377V58.8545Z" fill="#594A39"/>
<path d="M40.9049 54.9958C41.7582 54.9947 42.449 54.302 42.4478 53.4488C42.4466 52.5956 41.7539 51.9049 40.9005 51.906C40.0472 51.9072 39.3564 52.5999 39.3576 53.4531C39.3588 54.3063 40.0515 54.997 40.9049 54.9958Z" fill="#594A39"/>
<path d="M95.9668 78.317V76.1338L98.0399 76.2376V78.2001L95.9668 78.317Z" fill="#594A39"/>
<path d="M102.454 73.9551V76.0366H100.416V74.0892L102.491 73.9984L102.454 73.9551Z" fill="#594A39"/>
<path d="M96.0645 95.4776V93.5303H98.0315V95.4776H96.0645Z" fill="#594A39"/>
<path d="M98.0093 130.052H96.1094V128.115H98.0093V130.052Z" fill="#594A39"/>
<path d="M80.8496 125.837V123.654H83.0309V125.837H80.8496Z" fill="#594A39"/>
<path d="M80.867 123.678H78.6836C78.7139 123.015 78.7464 122.353 78.781 121.607L80.867 121.492V123.678Z" fill="#594A39"/>
<path d="M100.365 56.5918V50.3711H106.654V56.5918H100.365Z" fill="#594A39"/>
<path d="M24.6035 138.692H18.3496V132.417H24.6035V138.692Z" fill="#594A39"/>
<path d="M18.3281 50.3213H24.582V56.5961H18.3281V50.3213Z" fill="#594A39"/>
</svg>
