<svg width="125" height="164" viewBox="0 0 125 164" fill="none" xmlns="http://www.w3.org/2000/svg">
<rect x="1.5" y="1.5" width="122" height="160.46" rx="8.5" fill="white"/>
<rect x="1.5" y="1.5" width="122" height="160.46" rx="8.5" stroke="#E9E3D8" stroke-width="3"/>
<path d="M37.9384 22.24L37.4984 23.86H41.0184L40.5784 22.24C40.1184 20.7 39.7184 19 39.2984 17.4H39.1984C38.8184 19.02 38.3784 20.7 37.9384 22.24ZM32.8184 29.96L37.5584 15.14H41.0384L45.7984 29.96H42.6984L41.6584 26.16H36.8584L35.8184 29.96H32.8184Z" fill="#B8C318"/>
<path d="M48.0909 34.26V18.76H50.4909L50.7109 19.92H50.7709C51.7109 19.12 52.8709 18.48 54.0709 18.48C56.8309 18.48 58.4709 20.74 58.4709 24.18C58.4709 28.02 56.1709 30.24 53.7109 30.24C52.7309 30.24 51.7909 29.8 50.9309 29.02L51.0309 30.86V34.26H48.0909ZM53.0509 27.82C54.4109 27.82 55.4509 26.66 55.4509 24.22C55.4509 22.08 54.7709 20.9 53.2309 20.9C52.4709 20.9 51.7909 21.28 51.0309 22.06V26.98C51.7309 27.6 52.4509 27.82 53.0509 27.82Z" fill="#B8C318"/>
<path d="M61.762 34.26V18.76H64.162L64.382 19.92H64.442C65.382 19.12 66.542 18.48 67.742 18.48C70.502 18.48 72.142 20.74 72.142 24.18C72.142 28.02 69.842 30.24 67.382 30.24C66.402 30.24 65.462 29.8 64.602 29.02L64.702 30.86V34.26H61.762ZM66.722 27.82C68.082 27.82 69.122 26.66 69.122 24.22C69.122 22.08 68.442 20.9 66.902 20.9C66.142 20.9 65.462 21.28 64.702 22.06V26.98C65.402 27.6 66.122 27.82 66.722 27.82Z" fill="#B8C318"/>
<path d="M78.1931 30.24C76.153 30.24 75.433 28.9 75.433 26.82V14H78.373V26.94C78.373 27.62 78.673 27.84 78.953 27.84C79.073 27.84 79.153 27.84 79.3531 27.8L79.713 29.98C79.373 30.12 78.8931 30.24 78.1931 30.24Z" fill="#B8C318"/>
<path d="M83.5216 34.46C82.8616 34.46 82.4216 34.38 81.9816 34.24L82.5216 31.98C82.7216 32.04 83.0416 32.12 83.3016 32.12C84.4416 32.12 85.0816 31.4 85.4016 30.42L85.6016 29.76L81.2416 18.76H84.2016L85.9816 23.96C86.3216 24.96 86.6016 26.04 86.9216 27.12H87.0216C87.2816 26.08 87.5616 25 87.8216 23.96L89.3616 18.76H92.1816L88.2016 30.3C87.2216 32.94 86.0216 34.46 83.5216 34.46Z" fill="#B8C318"/>
<path d="M24.7052 67.9974H29.0331L29.0028 67.9541C29.0028 68.684 29.0108 69.4132 29.0266 70.1416H26.8627V72.3054H24.6987V83.1089H22.5758V85.2336H24.6987C24.6597 85.9325 24.6208 86.6336 24.5753 87.4168H22.552V89.5157H31.1841V83.0699L31.1538 83.1024H33.3438L33.3135 83.0699V91.7248L35.4969 91.8352V93.8842H37.6609C37.6609 95.3101 37.6609 96.7339 37.6609 98.1966H44.0836V95.9657H41.9672V93.8994H37.6392C37.676 93.2048 37.7128 92.5103 37.7539 91.7357H39.7989V89.5611L41.9628 89.6823V91.7248H48.4548V93.9686H54.9186V96.0371H57.0631V91.74H48.4613V87.3974H52.8065V89.5611H54.8991V87.419H52.7741C52.813 86.7201 52.852 86.0234 52.8888 85.3786H59.1643V87.3974H57.128V89.5287H65.812V85.3375L67.9132 85.2358V87.3995H70.0772C70.0382 88.0984 70.0015 88.7973 69.9582 89.5806H67.9565V98.203H70.0815V102.53H74.4095V104.683H76.5107V102.543H74.3748L74.4917 100.38H76.5388V98.1966H80.8668V100.438H83.0134V102.574H91.6498V106.871L91.6823 106.841H89.5053V104.705H80.8494V102.543H78.7482V104.673H80.8668L80.8451 106.871L80.8776 106.841H72.2347V104.742H69.9928V108.924L67.8916 109.024V106.86H65.7276C65.7276 106.139 65.7276 105.413 65.7276 104.681H67.8916V100.41H63.5983V102.543H61.4343V104.707H57.0912V102.448H52.7849V100.38H41.9282V106.719H39.8292V104.707H37.7107V111.136H39.8249C39.8573 110.428 39.8854 109.792 39.9201 109H48.4742C48.4353 109.697 48.3985 110.391 48.3531 111.196H41.9931V113.343H35.5532V115.578H37.6695V117.64H39.8335C39.7967 118.337 39.7578 119.033 39.7167 119.804H37.715V122.047H39.8097V126.301L39.8422 126.269H35.4839V121.941H33.3308L33.3611 121.974V119.797H35.4882V117.651L33.3243 117.547V111.175H28.9963V108.989H26.8324L26.8648 109.022C26.8648 108.293 26.8453 107.565 26.8367 106.836H31.1798V108.983H33.4V106.856H35.4406V104.597H33.3243V100.406H31.104V104.694H26.8345C26.8713 104.021 26.9059 103.348 26.9471 102.548H28.9833V100.38H24.7333V104.668H26.8583V106.871H22.5455V104.707H20.3556V100.414H16.0882V102.593H18.118L18.2197 104.699H16.0666V106.802H18.1959V104.677H20.3794V109.035H18.1938V111.198L18.2262 111.155H16.0623V113.234H14V98.2982H16.0861V91.8179L18.2327 91.7162V96.1237H20.3772V98.1879H22.4936V93.8042H20.3794V91.74H18.2154L18.2522 89.5503L18.2089 89.5806H20.3383V87.3974H18.2089L18.2414 87.4298L18.2154 85.2401H20.3794V83.1392H18.25V85.2639L16.0601 85.238L16.1034 85.2704V83.1067H14.0368V80.9927H16.1142V78.7598L16.0752 78.7987L20.4032 78.7576V80.9213H22.5044V78.7901H20.3794V74.5253H22.5044V72.2772H20.5136V70.1936H24.7463V67.9606L24.7052 67.9974ZM65.7298 91.7659H59.2941V98.1857H65.7298V91.7659ZM24.7506 91.74V98.1727H31.1625V91.74H24.7506ZM52.7806 96.0783H46.3276V98.1554H52.7806V96.0783ZM35.5012 102.5H39.8097V100.408H35.5012V102.5ZM54.9402 100.336H57.0869V98.2485H54.9402V100.336Z" fill="#594A39"/>
<path d="M37.6936 139.261C37.6806 138.531 37.6698 137.802 37.6568 137.071H39.8099V134.97H37.6784V137.095H33.3613V143.439H31.2969V132.878H33.2704V134.881H35.521V132.836H39.8489V130.588L39.8056 130.621L41.9956 130.597V132.761H44.0968V130.629H41.9718V128.429H39.8078L39.8402 128.461V126.27L39.8078 126.302L48.4745 126.276C48.4399 126.949 48.4074 127.622 48.3663 128.42H46.3235V130.673H48.4507V132.715H50.6147V126.276L52.7916 126.324L52.7548 126.285V128.427H57.165V121.987H59.2273V119.733H57.2191V117.762H63.4622V119.8H61.48V122.052H67.9091V126.276H70.0731C70.032 126.975 69.993 127.674 69.9476 128.457H67.9199V130.673H69.9346V134.922H65.7863V141.413H67.9178L67.8745 141.381V143.458H63.6634V141.424H57.0871V143.456H52.8652V141.359H50.6168L50.6536 141.396V134.972H41.9977V141.379H39.8186L39.8511 141.422V139.23H37.659L37.6936 139.261ZM54.9578 134.933H52.7938V139.198H54.9275V134.911H57.1066V139.239H59.2511C59.2857 138.525 59.3182 137.865 59.355 137.114H63.5293V134.95H57.0828V132.828H54.9513L54.9578 134.933ZM65.7105 132.769V126.308H59.3138V132.763L65.7105 132.769Z" fill="#594A39"/>
<path d="M65.7196 52.8734H70.0021V57.2008H74.3798L74.3409 57.164C74.356 57.8889 74.369 58.6137 74.3841 59.3278H72.2201V61.4331H74.3755V59.3169L76.4529 59.4165C76.4875 60.1067 76.52 60.7623 76.5589 61.5131H78.7229L78.6904 61.4698V65.8233H80.8825L80.8501 65.7908L80.876 67.9805H78.7229V70.088H80.8522V67.9632L83.027 68.0822V70.088H85.2689V67.9913H89.5233L89.4908 67.9589V70.1507L89.5233 70.1183H87.3961V72.3101H89.5233L89.4908 72.2798V74.4717L89.5233 74.4392H85.1953V72.3448H82.9535V76.6268H78.7034V74.3722H76.5632V63.692H67.9225V65.8189H65.7585V67.9827H63.5816V65.8449H61.4479V67.9589H63.6119C63.6119 68.6859 63.6119 69.4107 63.6119 70.1377H59.2839V65.8579H52.8504V68.0346H54.8802C54.9149 68.7919 54.9473 69.4648 54.9798 70.1377H46.3477V67.9502L46.3152 67.9827H50.5718V65.7908H46.2871L46.3196 65.8233V63.6595H50.6475V61.4698L50.6151 61.5023H52.8396V57.2592L54.9646 57.1575V63.6293H57.0637V57.1813H54.9387L54.9625 54.9916L54.93 55.0219H57.1762V52.9729H61.4219V54.9592H65.7499V52.8301L65.7196 52.8734ZM59.2904 57.1835V63.6206H65.7196V57.1835H59.2904ZM70.0475 59.3667H67.9333V61.4655H70.0475V59.3667Z" fill="#594A39"/>
<path d="M37.6492 65.8337H39.7785V59.2884H37.66L37.6968 59.3273C37.6968 57.8848 37.6968 56.4424 37.6968 54.9999L37.6535 55.0302L39.8369 55.0042V57.129H41.9771V54.9977L48.4842 55.0215L48.4517 54.9912V57.1549L50.6157 57.2588V61.5019L50.6481 61.4694H48.4842V59.336H46.3007V57.2134H44.1649V59.336H42.0399V61.4737H44.1606V65.8228H46.3245L46.2921 65.7904V67.9822L46.3245 67.9498H39.8716V70.2022H41.9987V74.4604H37.6859V76.5614H41.9749V74.4366H48.4669C48.4279 75.1334 48.389 75.8301 48.3478 76.6004H44.1844V78.842H46.186V80.93H39.8045V78.7771H37.7033V80.9062H39.8261V83.0916L33.3342 83.0634L33.3645 83.0959V80.9668H31.1746V83.0959L31.2048 83.0634L26.8574 83.0872C26.8985 82.3905 26.9375 81.6938 26.9808 80.9235H29.0149V78.7771L26.9851 78.6732V76.5961H29.0214V74.4323H31.1984V76.5549H35.4982V72.2772H37.6859V65.7861L37.6492 65.8337Z" fill="#594A39"/>
<path d="M108.912 76.5901V78.6672L106.789 78.7754V80.9392H104.636V83.0423H106.765V80.9175L108.864 81.0171V83.0813H110.987V85.1628H108.951V87.3438H106.752V89.5811L106.796 89.5508H102.507V93.9021H104.636L104.604 93.8696V96.0528L104.636 96.0204H102.507V98.2165H104.636L104.604 98.1862V100.38L104.636 100.348H98.064V102.429L95.9714 102.535V100.322H85.2186V98.2014L85.1797 98.2382H87.4151V93.8999H91.6521V87.3979H96.0536V85.3791H100.306V87.3979H102.418V80.8504H100.412V78.7581H104.636V74.4307L104.604 74.4631H106.796L106.763 74.4307V76.6225H108.955L108.912 76.5901ZM93.8507 91.7254V98.1798H100.25V91.7254H93.8507ZM89.5228 96.0528V98.1884H91.6002V96.0528H89.5228Z" fill="#594A39"/>
<path d="M91.6439 124.153H96.0151V121.962L95.9784 121.998H98.1423V119.908H100.241V124.112H102.36V126.311H104.587V130.621L104.63 130.591H102.466V134.881H106.794V132.75L106.761 132.782H108.954L108.91 132.75C108.91 134.192 108.907 135.639 108.899 137.09L108.938 137.054H98.1185L98.1488 137.097V134.968H95.9589V137.097L95.9892 137.064H93.7992L93.8295 137.097V134.909H85.1585L85.191 134.942C85.191 134.213 85.1715 133.486 85.1628 132.756H87.2987V130.623H85.1953V132.787L83.0097 132.756L83.0421 132.789V130.591H80.8457L80.8782 130.621V128.429L80.8457 128.461H83.0097V126.276L85.1974 126.302L85.165 126.27V128.433H89.5232V132.75H91.6266V128.459H89.5016L89.5254 126.27L89.4929 126.302H91.6872V124.11L91.6439 124.153ZM100.3 126.317H93.8512V132.72H100.311L100.3 126.317Z" fill="#594A39"/>
<path d="M93.7922 113.308V115.435H89.4924V117.539L87.3284 117.655V115.492H83.0134V111.181H80.9079V115.476H83.0308V117.64H87.3587V119.826H89.4816V121.989L89.5248 121.957H87.3976V124.151H89.5227L89.4902 124.118V126.302L89.5227 126.269H85.1709L85.2034 126.302V124.138H83.0091V121.974H80.8451V119.854H76.5172V124.14L76.5497 124.108L72.2044 124.134C72.2044 123.417 72.2195 122.699 72.2282 121.97L72.1914 122.007H74.4419V117.658H78.6465V115.403H76.6492V113.35H78.6509V111.093H76.6449V109.003H80.8689V106.839L80.8365 106.869H83.0351V109.035H85.1774L85.1406 108.996V111.242H87.3219V113.341H93.8268L93.7922 113.308Z" fill="#594A39"/>
<path d="M96.084 46.46H110.976V61.3746H96.084V46.46ZM108.934 48.5609H98.1636V59.2692H108.934V48.5609Z" fill="#594A39"/>
<path d="M14.0098 128.539H28.9044V143.454H14.0098V128.539ZM16.0698 141.372H26.8421V130.657H16.0698V141.372Z" fill="#594A39"/>
<path d="M28.9315 61.3941H14.0391V46.4795H28.9315V61.3941ZM26.8736 48.5588H16.097V59.2693H26.8736V48.5588Z" fill="#594A39"/>
<path d="M78.7178 139.217H76.5257L76.5582 139.26V137.069H74.3747L74.4072 137.101L74.3812 134.911H76.5452V132.81H74.4158V134.935L72.373 134.823V130.605H76.5776V124.114L76.5452 124.147L78.733 124.121V126.284H80.8969L80.871 128.472L80.9034 128.44H78.7741V130.631H80.9034L80.871 130.601V132.793H83.0306L82.9981 132.761V134.952H85.1946L85.1621 134.92V137.112L85.1946 137.079H78.6832V139.271L78.7178 139.217Z" fill="#594A39"/>
<path d="M67.8475 48.505V50.6147H65.7182V52.8736L65.7485 52.8303H63.565V50.738H54.9091V55.0222L54.9416 54.9919H52.7776V50.6644H50.5898L50.6331 50.6969V48.5873H54.9394V46.4668H56.9995V48.4964H59.2544V46.469H61.3123V48.4942H63.5693V46.4711H65.6662V48.5396H67.8821L67.8475 48.505Z" fill="#594A39"/>
<path d="M106.747 70.1264C106.747 70.8477 106.747 71.5689 106.747 72.2902L106.79 72.2599H104.598V74.4517L104.63 74.4193L102.449 74.3976L102.486 74.4344V72.2188H98.1191V70.1091H95.9551L95.9854 70.1416V67.9497L95.9551 67.993H98.1191V63.7607H100.203V65.76H102.453V63.7737H104.54V70.1654H106.773L106.747 70.1264ZM102.445 68.0038H100.326V70.107H102.445V68.0038Z" fill="#594A39"/>
<path d="M20.4093 117.591H18.2454V119.689H14.0234V117.725H16.0662V115.587L18.2475 115.475V111.147L18.2151 111.19H22.6382V109.027H26.8861L26.8536 108.994L26.8796 111.182H24.7589V113.322H26.8818C26.8818 114.049 26.8645 114.778 26.8536 115.505L26.8861 115.464H20.3769V117.627L20.4093 117.591Z" fill="#594A39"/>
<path d="M89.4844 65.8337H93.8318V63.7695H95.9655V67.9931L95.9958 67.9499H93.8686V70.1417H95.9958L95.9655 70.1093C95.9655 72.273 95.9734 74.4425 95.9893 76.6178H89.4974L89.5212 74.4302L89.4887 74.4627H93.7755V72.2708H89.4887L89.5212 72.3011V70.1093L89.4887 70.1417H91.618V67.9499H89.4887L89.5212 67.9823V65.7905L89.4844 65.8337Z" fill="#594A39"/>
<path d="M106.752 89.581H108.871V98.2164H110.994V102.436H108.914V104.662H106.763L106.796 104.705V102.509H104.604L104.636 102.542V100.35L104.604 100.382H106.731V98.1905H104.604L104.636 98.2208V96.0289L104.604 96.0614H106.731V93.8695H104.604L104.636 93.902V91.7382H106.8V89.5615L106.752 89.581Z" fill="#594A39"/>
<path d="M24.7446 67.961H22.6261V65.8492H16.0844V67.9675H18.1034V72.1695H14.0156V63.7461H24.7057V67.9978L24.7446 67.961Z" fill="#594A39"/>
<path d="M102.433 106.83V108.955H98.1335V111.138H95.9696L95.9999 111.181V109.052H93.8099V111.181L93.8402 111.149H89.627V109.022H91.6871V106.83L91.6546 106.86H95.9825V104.673H100.293V106.871H102.487L102.433 106.83Z" fill="#594A39"/>
<path d="M95.9802 141.372H91.6674V143.454H89.5813V139.297H87.3416V141.379H83.0137L83.0461 141.422V139.258H85.2101V137.068L85.1776 137.101H93.8487L93.8184 137.068V139.26H96.0083L95.9672 139.23C95.9672 139.951 95.9636 140.678 95.9564 141.411L95.9802 141.372Z" fill="#594A39"/>
<path d="M29.0421 67.993V65.7882H26.9863V63.7607H37.6504V65.8336L37.6828 65.7903H35.5189C35.4842 66.5368 35.4518 67.1946 35.4172 67.954H29.0183L29.0421 67.993Z" fill="#594A39"/>
<path d="M80.8457 61.5127H83.0097V59.4463H85.1239V61.5235H87.3528L87.316 61.4867V63.6288H89.4908V65.8336L89.5232 65.7903H85.1953V63.6894H82.9534V65.7903H80.8522L80.8847 65.8228V61.4694L80.8457 61.5127Z" fill="#594A39"/>
<path d="M22.5479 119.837H24.6124V126.155H20.464V124.088H16.0625L16.0993 124.125V122.018H22.5912V119.8L22.5479 119.837Z" fill="#594A39"/>
<path d="M83.0298 54.9741H80.8658V57.0621H78.7689V52.8299H72.277V50.6813L72.2402 50.7181H80.8961L80.8637 50.6748V52.8623H83.0298L82.9865 52.8299L82.9757 55.0109L83.0298 54.9741Z" fill="#594A39"/>
<path d="M91.6272 48.5264V52.8538H93.7111V57.0644H87.4355V55.0911H89.5216V48.5632H91.6618L91.6272 48.5264Z" fill="#594A39"/>
<path d="M70.0799 141.378H67.877L67.9202 141.411V137.083H74.3992L74.3667 137.051V139.243H76.5588L76.5264 139.199V141.363H72.1984L72.2309 141.406V139.277H70.0474V141.406L70.0799 141.378Z" fill="#594A39"/>
<path d="M39.8537 130.588H31.213V126.261L31.1719 126.293H33.3358V128.457H39.8278L39.7953 128.424V130.616L39.8537 130.588Z" fill="#594A39"/>
<path d="M106.778 141.372H104.614V143.458H100.4V139.347H106.739V141.413L106.778 141.372Z" fill="#594A39"/>
<path d="M80.8769 50.7138V48.5371H78.8125V46.4707H87.252V48.4505H82.9998V50.7008L83.0431 50.6683H80.8445L80.8769 50.7138Z" fill="#594A39"/>
<path d="M35.5059 50.7179H37.6698V48.6299H41.9545V50.7027L41.9978 50.6703H39.8338V52.8556H37.646V55.0194L37.6893 54.9891H35.5383V50.6811L35.5059 50.7179Z" fill="#594A39"/>
<path d="M106.785 70.1638V63.7656H108.847C108.88 64.4147 108.91 65.0768 108.944 65.8212H110.976V67.9048H108.929V70.021L106.748 70.1248L106.785 70.1638Z" fill="#594A39"/>
<path d="M95.9805 113.362H100.308L100.272 113.326V115.489H102.358V117.545H98.2461V115.463H96.0151V113.321L95.9805 113.362Z" fill="#594A39"/>
<path d="M31.2128 126.269H26.9844V124.215L29.0553 124.118V121.954L29.0142 121.985H33.3638L33.3335 121.952V124.116H31.1695V126.301L31.2128 126.269Z" fill="#594A39"/>
<path d="M46.2891 50.7142L50.6516 50.7034L50.6083 50.6709V54.9984H48.4444L48.4768 55.0287V52.8649L46.3129 52.7567V50.6796L46.2891 50.7142Z" fill="#594A39"/>
<path d="M106.8 124.071H104.723V119.819H108.923L108.884 119.784V121.874L106.765 121.967V124.107L106.8 124.071Z" fill="#594A39"/>
<path d="M18.2538 89.5613H14.0254V85.262H16.0942L16.0509 85.2295V87.4214H18.243L18.2105 87.3889V89.5808L18.2538 89.5613Z" fill="#594A39"/>
<path d="M106.763 104.658V106.822H102.436L102.479 106.852V102.544H104.643L104.61 102.512V104.708H106.802L106.763 104.658Z" fill="#594A39"/>
<path d="M39.8103 141.378V143.46H35.6035V139.26H37.6939L37.6506 139.229V141.421H39.8427L39.8103 141.378Z" fill="#594A39"/>
<path d="M106.873 111.038V109.071H108.94V106.953H110.993V111.038H106.873Z" fill="#594A39"/>
<path d="M33.2601 57.2979V61.3548H31.3125V57.2979H33.2601Z" fill="#594A39"/>
<path d="M44.1722 50.7034V46.4668H46.2886V50.7142L46.321 50.6709H44.1289L44.1722 50.7034Z" fill="#594A39"/>
<path d="M96.0142 121.961H93.9238V117.742H95.9753C95.9753 119.153 95.9753 120.575 95.9753 121.998L96.0142 121.961Z" fill="#594A39"/>
<path d="M82.9941 50.7034H87.2225V52.8303H82.9941L83.0374 52.8628V50.6709L82.9941 50.7034Z" fill="#594A39"/>
<path d="M35.543 50.6815H31.293V48.626H35.4045C35.4391 49.314 35.4716 50.0173 35.5062 50.7183L35.543 50.6815Z" fill="#594A39"/>
<path d="M91.7539 61.3556V59.458H93.6885V61.3556H91.7539Z" fill="#594A39"/>
<path d="M87.3454 61.5239V59.4424H89.3838V61.3897L87.3086 61.4806L87.3454 61.5239Z" fill="#594A39"/>
<path d="M78.718 61.5133V59.4404H80.8452V61.5133L80.8777 61.47H78.6855L78.718 61.5133Z" fill="#594A39"/>
<path d="M37.6615 59.2891V61.3706H35.623V59.4232L37.6983 59.3323L37.6615 59.2891Z" fill="#594A39"/>
<path d="M82.9824 55.0114H85.0642V57.0518H83.1166C83.0863 56.3681 83.0538 55.6713 83.0235 54.9746L82.9824 55.0114Z" fill="#594A39"/>
<path d="M74.3883 57.2026V55.1211H76.4268V57.0685L74.3516 57.1615L74.3883 57.2026Z" fill="#594A39"/>
<path d="M96.0136 113.321L93.7891 113.308L93.8323 113.34V111.149L93.8021 111.181H95.992L95.9617 111.138C95.9617 111.878 95.9668 112.618 95.9768 113.358L96.0136 113.321Z" fill="#594A39"/>
<path d="M100.302 113.363V111.281H102.343V113.229L100.266 113.322L100.302 113.363Z" fill="#594A39"/>
<path d="M106.779 115.453H104.719V113.421H106.742V115.489L106.779 115.453Z" fill="#594A39"/>
<path d="M29.0421 117.619H26.8782V115.455L26.8457 115.496L29.0313 115.47C29.0227 116.2 29.0147 116.929 29.0075 117.658L29.0421 117.619Z" fill="#594A39"/>
<path d="M106.742 115.49H108.906V117.654L108.945 117.617H106.879C106.846 116.838 106.816 116.148 106.785 115.453L106.742 115.49Z" fill="#594A39"/>
<path d="M22.5846 119.8H20.4077V117.593L20.373 117.63L22.537 117.74V119.837L22.5846 119.8Z" fill="#594A39"/>
<path d="M29.052 119.821C29.052 119.087 29.052 118.352 29.052 117.618L29.0217 117.661H31.0948V119.788H29.0195L29.052 119.821Z" fill="#594A39"/>
<path d="M108.9 117.651H110.984V119.784H108.885L108.922 119.819C108.922 119.083 108.927 118.348 108.939 117.614L108.9 117.651Z" fill="#594A39"/>
<path d="M33.2601 52.9619V54.8898H31.3125V52.9619H33.2601Z" fill="#594A39"/>
<path d="M29.0531 121.951H26.9844V119.822H29.0553L29.0142 119.789V121.981L29.0531 121.951Z" fill="#594A39"/>
<path d="M16.106 78.7605H14.0156V76.6444H16.0736L16.0368 76.6055C16.0455 77.3368 16.0556 78.0674 16.0671 78.7973L16.106 78.7605Z" fill="#594A39"/>
<path d="M108.923 74.4739H111V76.5901H108.912L108.955 76.6225V74.4307L108.923 74.4739Z" fill="#594A39"/>
<path d="M89.4727 121.981H91.6366V124.144L91.6691 124.101H89.477L89.5094 124.134V121.948L89.4727 121.981Z" fill="#594A39"/>
<path d="M16.0619 124.088V126.169H14.0234V124.222L16.0987 124.129L16.0619 124.088Z" fill="#594A39"/>
<path d="M108.94 126.254H106.8V124.071L106.766 124.108L108.901 124.225V126.291L108.94 126.254Z" fill="#594A39"/>
<path d="M16.0739 76.644V74.5625H18.1124V76.5099L16.0371 76.6007L16.0739 76.644Z" fill="#594A39"/>
<path d="M41.959 50.7034H44.1727L44.1294 50.6709V52.7589L41.9655 52.8563C41.9655 52.1271 41.9828 51.4001 41.9936 50.6709L41.959 50.7034Z" fill="#594A39"/>
<path d="M108.9 126.291H110.989V128.431H108.954L108.991 128.467L108.939 126.254L108.9 126.291Z" fill="#594A39"/>
<path d="M106.752 72.3018H108.916V74.4655L108.948 74.4222H106.756L106.789 74.4547V72.2715L106.752 72.3018Z" fill="#594A39"/>
<path d="M106.806 130.62V128.456H108.998L108.962 128.422C108.949 129.153 108.934 129.883 108.918 130.612L108.962 130.581H106.77L106.806 130.62Z" fill="#594A39"/>
<path d="M72.2574 50.6813H70.0934V48.5176L70.0566 48.5544H72.1211C72.1557 49.3333 72.186 50.0235 72.2163 50.7181L72.2574 50.6813Z" fill="#594A39"/>
<path d="M104.592 130.621H106.806L106.762 130.59V132.782L106.795 132.75H104.631V130.586L104.592 130.621Z" fill="#594A39"/>
<path d="M108.912 130.62H110.985V132.749H108.912L108.955 132.782V130.59L108.912 130.62Z" fill="#594A39"/>
<path d="M91.6638 48.563V46.4814H93.7022V48.4288L91.627 48.5218L91.6638 48.563Z" fill="#594A39"/>
<path d="M48.3577 139.16H46.4102V137.193H48.3577V139.16Z" fill="#594A39"/>
<path d="M70.0982 48.5223L67.8477 48.505L67.8844 48.5396C67.9191 47.8753 67.9537 47.2089 67.9905 46.4775H70.0614V48.559L70.0982 48.5223Z" fill="#594A39"/>
<path d="M98.1249 137.058V139.221H95.9609L96.0021 139.252V137.068L95.9718 137.101H98.1617L98.1249 137.058Z" fill="#594A39"/>
<path d="M108.9 137.09H110.982V139.129H109.035C109.004 138.447 108.974 137.75 108.944 137.054L108.9 137.09Z" fill="#594A39"/>
<path d="M80.8781 141.379H78.7141V139.215L78.6816 139.258H80.8456V141.422L80.8781 141.379Z" fill="#594A39"/>
<path d="M50.6185 141.367V143.449H48.5801V141.501L50.6553 141.408L50.6185 141.367Z" fill="#594A39"/>
<path d="M72.2104 141.378V143.451H70.0832V141.378L70.0508 141.421H72.2429L72.2104 141.378Z" fill="#594A39"/>
<path d="M83.0053 141.378V143.451H80.8782V141.378L80.8457 141.421H83.0313L83.0053 141.378Z" fill="#594A39"/>
<path d="M95.9434 141.411H98.0229V143.449H96.0754C96.0451 142.766 96.0148 142.069 95.9823 141.372L95.9434 141.411Z" fill="#594A39"/>
<path d="M106.742 141.411H108.824V143.449H106.876C106.846 142.766 106.816 142.069 106.785 141.372L106.742 141.411Z" fill="#594A39"/>
<path d="M48.4516 109.017V106.836H46.3417V104.673L46.3027 104.71L57.1226 104.664C57.0923 105.33 57.0598 105.995 57.0231 106.748L54.937 106.841V108.981L54.9738 108.942L48.4516 109.017Z" fill="#594A39"/>
<path d="M54.9115 111.164V117.545H46.3984V115.563H52.754V113.317H50.7264V111.199H54.9483L54.9115 111.164Z" fill="#594A39"/>
<path d="M67.8839 111.22L72.2313 111.203L72.1923 111.164V113.267H70.0478V115.386H63.6836V113.412H67.9185V111.181L67.8839 111.22Z" fill="#594A39"/>
<path d="M52.7895 126.323V121.944H50.7402V119.912H54.8518V126.187L52.7592 126.286L52.7895 126.323Z" fill="#594A39"/>
<path d="M54.9489 111.199C54.9489 110.448 54.9489 109.699 54.9662 108.948L54.9294 108.985H59.1492V111.162H54.9121L54.9489 111.199Z" fill="#594A39"/>
<path d="M61.3275 113.425V115.385H57.2051V113.425H61.3275Z" fill="#594A39"/>
<path d="M44.1561 121.976L41.9727 121.873V117.634L44.1561 117.738V121.976Z" fill="#594A39"/>
<path d="M48.4759 124.138H44.2562C44.2107 123.335 44.1718 122.645 44.1328 121.952H48.3526C48.4067 122.755 48.437 123.445 48.4759 124.138Z" fill="#594A39"/>
<path d="M63.5936 104.673V106.858L61.5248 106.761C61.4859 106.049 61.4491 105.361 61.4102 104.673H63.5936Z" fill="#594A39"/>
<path d="M65.7559 106.835V109.018L63.579 108.968L63.6158 109.005L63.5703 106.841L65.7559 106.835Z" fill="#594A39"/>
<path d="M63.5795 108.968V111.049H61.541V109.102L63.6163 109.011L63.5795 108.968Z" fill="#594A39"/>
<path d="M65.7324 108.994H67.9159C67.9159 109.736 67.8921 110.476 67.8812 111.218L67.9159 111.182L65.845 111.076L65.7324 108.994Z" fill="#594A39"/>
<path d="M72.2284 111.198V109.121H74.2669V111.068L72.1895 111.159L72.2284 111.198Z" fill="#594A39"/>
<path d="M41.9727 115.498V113.312L44.0436 113.419V115.379L41.9727 115.498Z" fill="#594A39"/>
<path d="M39.8145 117.658C39.8447 116.996 39.875 116.334 39.9118 115.587L41.9979 115.475V117.658H39.8145Z" fill="#594A39"/>
<path d="M70.0621 119.774H68.002V117.742H70.0253V119.811L70.0621 119.774Z" fill="#594A39"/>
<path d="M70.0254 119.81H72.211V122.017L72.2478 121.981L70.0838 121.868C70.0838 121.156 70.0838 120.464 70.0838 119.771L70.0254 119.81Z" fill="#594A39"/>
<path d="M50.6366 126.297H48.4531V124.114L50.524 124.212C50.5717 124.921 50.5998 125.609 50.6366 126.297Z" fill="#594A39"/>
<path d="M72.2342 124.114C72.2018 124.774 72.1715 125.436 72.1368 126.185L70.0508 126.297C70.0811 125.635 70.1114 124.973 70.1481 124.227L72.2342 124.114Z" fill="#594A39"/>
<path d="M63.5696 70.1134H65.7336V67.9496L67.9192 67.9886L67.8889 67.9453V74.4581H70.081L70.0485 74.4257L70.0767 76.6089H67.9386V78.7423H70.0464V76.5786L72.232 76.6089L72.1887 76.5764V80.852H65.7184V82.9724H63.6561V78.7964H57.082V82.9832H50.748V80.9926H54.9115V78.7748H52.9077V76.6781H54.9223V74.4343L57.0279 74.5404V76.5786H65.7184V74.456H59.3845V72.3636H63.5609L63.5696 70.1134Z" fill="#594A39"/>
<path d="M89.4843 78.7929L95.9935 78.754L95.8853 80.855H91.7067V83.0966H93.6975V85.1824H91.6721V87.4176H87.3052V89.5618L87.3419 89.525H83.014L83.0465 89.5661V87.3981H80.8457L80.889 87.4305V85.2344L80.8457 85.2668H83.0313V83.0706L82.9988 83.1031H85.1953V85.2344H89.5232V78.7432L89.4843 78.7929Z" fill="#594A39"/>
<path d="M83.005 89.54V91.7449H85.063V93.8286H80.8519V95.923H78.7658V93.8891H76.5391C76.5715 93.2205 76.6061 92.552 76.6451 91.7665H80.8973V89.5617L80.854 89.592H83.031L83.005 89.54Z" fill="#594A39"/>
<path d="M76.5539 98.2166H70.0469V93.874H76.5496L76.5539 98.2166Z" fill="#594A39"/>
<path d="M44.1575 87.4172H39.8295V89.581H35.6055V87.4843H37.6483V85.3422L39.8122 85.2427V83.0703L41.8875 83.172C41.9221 83.8622 41.9546 84.5178 41.9913 85.2535H44.032C44.0796 86.0303 44.1185 86.7249 44.1575 87.4172Z" fill="#594A39"/>
<path d="M80.8888 85.2337H76.5608V80.9062L76.5176 80.9365H78.7097L78.6772 80.9062V83.0981H80.8693L80.8369 83.0657V85.2575L80.8888 85.2337Z" fill="#594A39"/>
<path d="M48.4531 74.4588C48.4856 73.7902 48.518 73.1238 48.5592 72.2734H54.9559V74.4588H48.4531Z" fill="#594A39"/>
<path d="M70.0469 87.4176V85.2344H74.3402V87.4111L74.377 87.3743L70.0469 87.4176Z" fill="#594A39"/>
<path d="M46.3163 87.3975L46.2124 89.4703H44.2497C44.2107 88.7952 44.1718 88.0963 44.1328 87.3975H46.3163Z" fill="#594A39"/>
<path d="M74.3438 87.4108H76.4255V89.449H74.4779C74.4476 88.7675 74.4173 88.0707 74.387 87.374L74.3438 87.4108Z" fill="#594A39"/>
<path d="M80.8875 89.561H78.8145V87.4319H80.8875L80.8443 87.3994V89.5913L80.8875 89.561Z" fill="#594A39"/>
<path d="M48.4764 87.4174H46.293C46.3276 86.7444 46.3601 86.0737 46.3968 85.3467H48.3596C48.4072 86.0196 48.4375 86.7185 48.4764 87.4174Z" fill="#594A39"/>
<path d="M70.0749 85.2574H67.8828C67.9153 84.5845 67.9499 83.9116 67.9867 83.1846H69.9494C69.9948 83.8597 70.0338 84.5585 70.0749 85.2574Z" fill="#594A39"/>
<path d="M67.9174 67.9933L67.8915 65.7949L70.036 65.8945V67.9825L70.0793 67.95H67.8828L67.9174 67.9933Z" fill="#594A39"/>
<path d="M72.2542 67.9673V65.9053H74.2862V67.924H72.2109L72.2542 67.9673Z" fill="#594A39"/>
<path d="M61.3362 81.0322V82.9796H59.3691V81.0322H61.3362Z" fill="#594A39"/>
<path d="M72.211 67.9238C72.211 68.6617 72.1959 69.3995 72.1894 70.1373L72.2326 70.1049H70.0687V67.9411L70.0254 67.9736L72.2435 67.9584L72.211 67.9238Z" fill="#594A39"/>
<path d="M76.5683 80.9067H74.4844V78.7884H76.5575L76.525 78.7451V80.937L76.5683 80.9067Z" fill="#594A39"/>
<path d="M78.7132 76.5938L78.6742 78.7813L78.7175 78.7488H76.5254L76.5579 78.7921V76.7128L78.7132 76.5938Z" fill="#594A39"/>
<path d="M72.21 74.4739H74.2874V76.5901H72.1992L72.2425 76.6225V74.4307L72.21 74.4739Z" fill="#594A39"/>
<path d="M72.1957 72.2715C72.1957 73.0043 72.1993 73.7385 72.2065 74.4742L72.239 74.4309H70.0469L70.0793 74.4633V72.2996H72.2433L72.1957 72.2715Z" fill="#594A39"/>
<path d="M72.1953 70.1418H74.2684V72.2709H72.1953L72.2386 72.3012V70.1094L72.1953 70.1418Z" fill="#594A39"/>
<path d="M87.3047 89.5612H89.3843V91.6016H87.4367C87.4064 90.9179 87.3739 90.2211 87.3436 89.5244L87.3047 89.5612Z" fill="#594A39"/>
<path d="M85.2185 98.2015H83.1367V96.1611H85.0843C85.1146 96.8449 85.1449 97.5416 85.1752 98.2383L85.2185 98.2015Z" fill="#594A39"/>
<path d="M95.9908 102.514V104.708L93.9199 104.604V102.631L95.9908 102.514Z" fill="#594A39"/>
<path d="M46.3435 104.682H44.2617V102.642H46.2093C46.2396 103.325 46.272 104.022 46.3023 104.719L46.3435 104.682Z" fill="#594A39"/>
<path d="M85.195 109.035V106.953H87.2334V108.9L85.1582 108.994L85.195 109.035Z" fill="#594A39"/>
<path d="M29.037 113.337H26.8535V111.153H29.037V113.337Z" fill="#594A39"/>
<path d="M29.0137 115.498V113.312L31.0868 113.419V115.379L29.0137 115.498Z" fill="#594A39"/>
<path d="M26.8457 85.3007H28.921V87.3021H26.8803V85.2617L26.8457 85.3007Z" fill="#594A39"/>
<path d="M24.6953 85.2578V83.0703H26.8788L26.8463 85.2946L26.8809 85.2578H24.6953Z" fill="#594A39"/>
<path d="M61.5312 93.9707H63.4788V95.9375H61.5312V93.9707Z" fill="#594A39"/>
<path d="M26.959 95.9467V93.9863H28.926V95.9467H26.959Z" fill="#594A39"/>
<path d="M29.037 72.2734V74.4588L26.9682 74.3614C26.9292 73.6517 26.8925 72.9637 26.8535 72.2734H29.037Z" fill="#594A39"/>
<path d="M31.1971 72.2975H29.0137V70.1143L31.0846 70.2116C31.1235 70.9213 31.1603 71.6029 31.1971 72.2975Z" fill="#594A39"/>
<path d="M31.1738 74.4588V72.2734H33.3594C33.327 72.9355 33.2967 73.5976 33.2621 74.3441L31.1738 74.4588Z" fill="#594A39"/>
<path d="M35.5194 72.2973H33.3359C33.3684 71.6265 33.403 70.9536 33.4398 70.2266H35.4004C35.4393 70.8995 35.4783 71.6027 35.5194 72.2973Z" fill="#594A39"/>
<path d="M65.7559 104.708H63.5703V102.514L65.6412 102.611C65.6802 103.321 65.7191 104.009 65.7559 104.708Z" fill="#594A39"/>
<path d="M63.4905 128.575V130.473H61.543V128.575H63.4905Z" fill="#594A39"/>
<path d="M54.9316 72.2996V70.1143L57.0047 70.2203V72.1806L54.9316 72.2996Z" fill="#594A39"/>
<path d="M61.5234 59.4189H63.484V61.3858H61.5234V59.4189Z" fill="#594A39"/>
<path d="M78.6738 78.7816H87.3557L87.3232 78.7383V80.902H82.9953V83.0917L83.0277 83.0592H80.8443L80.8768 83.0917V80.9063H78.6846L78.7171 80.9366V78.7426L78.6738 78.7816Z" fill="#594A39"/>
<path d="M89.5218 76.5938C89.5218 77.3273 89.5044 78.0586 89.4936 78.7921L89.5261 78.7488H87.334L87.3664 78.7921V76.7128L89.5218 76.5938Z" fill="#594A39"/>
<path d="M44.1328 59.3145H46.3163C46.286 59.9766 46.2535 60.6387 46.2189 61.3851L44.1328 61.4977V59.3145Z" fill="#594A39"/>
<path d="M40.9049 55.4558C41.7582 55.4546 42.449 54.762 42.4478 53.9088C42.4466 53.0555 41.7539 52.3648 40.9005 52.366C40.0472 52.3672 39.3564 53.0598 39.3576 53.9131C39.3588 54.7663 40.0515 55.457 40.9049 55.4558Z" fill="#594A39"/>
<path d="M95.9668 78.777V76.5938L98.0399 76.6976V78.6601L95.9668 78.777Z" fill="#594A39"/>
<path d="M102.454 74.415V76.4965H100.416V74.5492L102.491 74.4583L102.454 74.415Z" fill="#594A39"/>
<path d="M96.0645 95.9376V93.9902H98.0315V95.9376H96.0645Z" fill="#594A39"/>
<path d="M98.0093 130.512H96.1094V128.575H98.0093V130.512Z" fill="#594A39"/>
<path d="M80.8496 126.297V124.114H83.0309V126.297H80.8496Z" fill="#594A39"/>
<path d="M80.867 124.138H78.6836C78.7139 123.475 78.7464 122.813 78.781 122.067L80.867 121.952V124.138Z" fill="#594A39"/>
<path d="M100.365 57.0518V50.8311H106.654V57.0518H100.365Z" fill="#594A39"/>
<path d="M24.6035 139.152H18.3496V132.877H24.6035V139.152Z" fill="#594A39"/>
<path d="M18.3281 50.7812H24.582V57.0561H18.3281V50.7812Z" fill="#594A39"/>
</svg>
