<svg width="168" height="207" viewBox="0 0 168 207" fill="none" xmlns="http://www.w3.org/2000/svg">
<rect x="1.5" y="1.5" width="165" height="203.459" rx="8.5" fill="white"/>
<rect x="1.5" y="1.5" width="165" height="203.459" rx="8.5" stroke="#E9E3D8" stroke-width="3"/>
<path d="M59.4384 22.24L58.9984 23.86H62.5184L62.0784 22.24C61.6184 20.7 61.2184 19 60.7984 17.4H60.6984C60.3184 19.02 59.8784 20.7 59.4384 22.24ZM54.3184 29.96L59.0584 15.14H62.5384L67.2984 29.96H64.1984L63.1584 26.16H58.3584L57.3184 29.96H54.3184Z" fill="#B8C318"/>
<path d="M69.5909 34.26V18.76H71.9909L72.2109 19.92H72.2709C73.2109 19.12 74.3709 18.48 75.5709 18.48C78.3309 18.48 79.9709 20.74 79.9709 24.18C79.9709 28.02 77.6709 30.24 75.2109 30.24C74.2309 30.24 73.2909 29.8 72.4309 29.02L72.5309 30.86V34.26H69.5909ZM74.5509 27.82C75.9109 27.82 76.9509 26.66 76.9509 24.22C76.9509 22.08 76.2709 20.9 74.7309 20.9C73.9709 20.9 73.2909 21.28 72.5309 22.06V26.98C73.2309 27.6 73.9509 27.82 74.5509 27.82Z" fill="#B8C318"/>
<path d="M83.262 34.26V18.76H85.662L85.882 19.92H85.942C86.882 19.12 88.042 18.48 89.242 18.48C92.002 18.48 93.642 20.74 93.642 24.18C93.642 28.02 91.342 30.24 88.882 30.24C87.902 30.24 86.962 29.8 86.102 29.02L86.202 30.86V34.26H83.262ZM88.222 27.82C89.582 27.82 90.622 26.66 90.622 24.22C90.622 22.08 89.942 20.9 88.402 20.9C87.642 20.9 86.962 21.28 86.202 22.06V26.98C86.902 27.6 87.622 27.82 88.222 27.82Z" fill="#B8C318"/>
<path d="M99.6931 30.24C97.653 30.24 96.933 28.9 96.933 26.82V14H99.873V26.94C99.873 27.62 100.173 27.84 100.453 27.84C100.573 27.84 100.653 27.84 100.853 27.8L101.213 29.98C100.873 30.12 100.393 30.24 99.6931 30.24Z" fill="#B8C318"/>
<path d="M105.022 34.46C104.362 34.46 103.922 34.38 103.482 34.24L104.022 31.98C104.222 32.04 104.542 32.12 104.802 32.12C105.942 32.12 106.582 31.4 106.902 30.42L107.102 29.76L102.742 18.76H105.702L107.482 23.96C107.822 24.96 108.102 26.04 108.422 27.12H108.522C108.782 26.08 109.062 25 109.322 23.96L110.862 18.76H113.682L109.702 30.3C108.722 32.94 107.522 34.46 105.022 34.46Z" fill="#B8C318"/>
<path d="M29.4508 77.5449H35.6973L35.6536 77.4824C35.6536 78.5359 35.665 79.5883 35.6879 80.6397H32.5647V83.7626H29.4414V99.3553H26.3775V102.422H29.4414C29.3852 103.431 29.329 104.442 29.2634 105.573H26.3431V108.602H38.8018V99.2991L38.7581 99.3459H41.9188L41.8751 99.2991V111.791L45.0265 111.95V114.907H48.1497C48.1497 116.965 48.1497 119.02 48.1497 121.131H57.4196V117.912H54.365V114.929H48.1185C48.1716 113.927 48.2247 112.924 48.284 111.806H51.2355V108.668L54.3587 108.843V111.791H63.7285V115.029H73.0577V118.015H76.1529V111.813H63.7379V105.545H70.0094V108.668H73.0296V105.576H69.9626C70.0188 104.567 70.075 103.562 70.1281 102.631H79.1856V105.545H76.2466V108.621H88.7802V102.572L91.8129 102.425V105.548H94.9361C94.8799 106.557 94.8268 107.565 94.7644 108.696H91.8754V121.141H94.9424V127.387H101.189V130.494H104.222V127.405H101.139L101.308 124.282H104.262V121.131H110.509V124.367H113.607V127.449H126.072V133.651L126.119 133.607H122.977V130.525H110.484V127.405H107.451V130.478H110.509L110.477 133.651L110.524 133.607H98.05V130.578H94.8143V136.615L91.7816 136.758V133.635H88.6584C88.6584 132.594 88.6584 131.546 88.6584 130.491H91.7816V124.326H85.5851V127.405H82.4619V130.528H76.1935V127.268H69.9782V124.282H54.3088V133.432H51.2792V130.528H48.2216V139.806H51.273C51.3198 138.785 51.3604 137.867 51.4104 136.724H63.7566C63.7004 137.73 63.6473 138.732 63.5817 139.894H54.4025V142.992H45.1077V146.218H48.1622V149.194H51.2855C51.2324 150.199 51.1762 151.205 51.1168 152.317H48.2278V155.555H51.2511V161.695L51.298 161.648H45.0077V155.402H41.9001L41.9438 155.449V152.307H45.014V149.209L41.8907 149.059V139.863H35.6442V136.708H32.5209L32.5678 136.755C32.5678 135.703 32.5397 134.654 32.5272 133.601H38.7956V136.699H42V133.629H44.9453V130.369H41.8907V124.32H38.6862V130.509H32.5241C32.5771 129.538 32.6271 128.567 32.6865 127.411H35.6254V124.282H29.4914V130.472H32.5584V133.651H26.3337V130.528H23.173V124.332H17.014V127.477H19.9436L20.0904 130.516H16.9827V133.551H20.056V130.484H23.2074V136.774H20.0529V139.897L20.0997 139.834H16.9765V142.836H14V121.278H17.0108V111.925L20.1091 111.778V118.14H23.2042V121.119H26.2588V114.792H23.2074V111.813H20.0841L20.1372 108.652L20.0747 108.696H23.148V105.545H20.0747L20.1216 105.592L20.0841 102.431H23.2074V99.399H20.1341V102.466L16.9733 102.428L17.0358 102.475V99.3522H14.0531V96.3011H17.0514V93.0782L16.9952 93.1344L23.2417 93.0751V96.198H26.2744V93.1219H23.2074V86.9667H26.2744V83.722H23.401V80.7146H29.5101V77.4918L29.4508 77.5449ZM88.6615 111.85H79.3729V121.116H88.6615V111.85ZM29.5164 111.813V121.097H38.7706V111.813H29.5164ZM69.9719 118.074H60.6584V121.072H69.9719V118.074ZM45.0327 127.343H51.2511V124.323H45.0327V127.343ZM73.0889 124.22H76.1872V121.206H73.0889V124.22Z" fill="#594A39"/>
<path d="M48.1972 180.399C48.1785 179.347 48.1628 178.295 48.1441 177.239H51.2518V174.207H48.1753V177.273H41.9444V186.43H38.9648V171.187H41.8133V174.079H45.0615V171.127H51.308V167.883L51.2455 167.93L54.4062 167.895V171.018H57.4389V167.942H54.3719V164.766H51.2486L51.2955 164.813V161.649L51.2486 161.696L63.7573 161.659C63.7073 162.63 63.6605 163.601 63.6011 164.754H60.6528V168.005H63.7229V170.953H66.8462V161.659L69.9882 161.727L69.9351 161.671V164.763H76.3003V155.469H79.2768V152.215H76.3784V149.37H85.389V152.312H82.5281V155.563H91.8073V161.659H94.9305C94.8712 162.667 94.815 163.676 94.7494 164.807H91.8229V168.005H94.7306V174.138H88.7434V183.507H91.8198L91.7573 183.46V186.458H85.6794V183.522H76.1878V186.455H70.0944V183.429H66.8493L66.9024 183.482V174.21H54.4094V183.457H51.2642L51.3111 183.519V180.356H48.1472L48.1972 180.399ZM73.1146 174.154H69.9913V180.309H73.0708V174.122H76.216V180.368H79.3111C79.3611 179.338 79.4079 178.385 79.461 177.301H85.4858V174.179H76.1816V171.115H73.1052L73.1146 174.154ZM88.634 171.031V161.706H79.4017V171.021L88.634 171.031Z" fill="#594A39"/>
<path d="M88.6465 55.7168H94.8274V61.9626H101.146L101.09 61.9095C101.111 62.9557 101.13 64.0018 101.152 65.0324H98.0287V68.071H101.14V65.0168L104.138 65.1604C104.188 66.1566 104.235 67.1029 104.291 68.1865H107.414L107.367 68.1241V74.4074H110.531L110.484 74.3605L110.522 77.5209H107.414V80.5626H110.487V77.4959L113.626 77.6677V80.5626H116.862V77.5365H123.002L122.955 77.4897V80.6532L123.002 80.6063H119.932V83.7698H123.002L122.955 83.7261V86.8896L123.002 86.8428H116.756V83.8198H113.52V90H107.386V86.746H104.297V71.3313H91.826V74.4011H88.7027V77.524H85.5607V74.4386H82.4812V77.4897H85.6044C85.6044 78.539 85.6044 79.5851 85.6044 80.6344H79.3579V74.4573H70.0725V77.599H73.0021C73.052 78.692 73.0989 79.6632 73.1457 80.6344H60.6871V77.4772L60.6402 77.524H66.7837V74.3605H60.5996L60.6464 74.4074V71.2845H66.893V68.1241L66.8461 68.1709H70.0568V62.0469L73.1239 61.9001V71.2407H76.1534V61.9345H73.0864L73.1207 58.7741L73.0739 58.8178H76.3159V55.8604H82.4437V58.7272H88.6902V55.6543L88.6465 55.7168ZM79.3673 61.9376V71.2282H88.6465V61.9376H79.3673ZM94.893 65.0886H91.8416V68.1178H94.893V65.0886Z" fill="#594A39"/>
<path d="M48.1323 74.4223H51.2056V64.9755H48.148L48.2011 65.0317C48.2011 62.9498 48.2011 60.8679 48.2011 58.7859L48.1386 58.8296L51.29 58.7922V61.8589H54.3789V58.7828L63.7705 58.8172L63.7237 58.7734V61.8963L66.8469 62.0462V68.1703L66.8938 68.1234H63.7705V65.0442H60.6191V61.9807H57.5365V65.0442H54.4694V68.1297H57.5302V74.4067H60.6535L60.6066 74.3599V77.5234L60.6535 77.4765H51.3399V80.7275H54.4101V86.8734H48.1854V89.9057H54.3757V86.839H63.7455C63.6893 87.8446 63.6331 88.8502 63.5737 89.9619H57.5646V93.1973H60.4536V96.2109H51.2431V93.1036H48.2104V96.1765H51.2743V99.3306L41.9046 99.2901L41.9483 99.3369V96.264H38.7875V99.3369L38.8313 99.2901L32.5566 99.3244C32.616 98.3188 32.6722 97.3133 32.7347 96.2015H35.6705V93.1036L32.7409 92.9537V89.9557H35.6799V86.8328H38.8219V89.8963H45.0278V83.7224H48.1854V74.3536L48.1323 74.4223Z" fill="#594A39"/>
<path d="M150.986 89.9467V92.9447L147.922 93.1009V96.2238H144.815V99.2592H147.888V96.1926L150.917 96.3362V99.3155H153.981V102.32H151.042V105.468H147.869V108.697L147.932 108.653H141.741V114.933H144.815L144.768 114.886V118.037L144.815 117.99H141.741V121.16H144.815L144.768 121.116V124.283L144.815 124.236H135.329V127.241L132.309 127.394V124.199H116.79V121.138L116.733 121.191H119.96V114.93H126.075V105.546H132.428V102.632H138.565V105.546H141.613V96.0957H138.718V93.0759H144.815V86.8301L144.768 86.8769H147.932L147.885 86.8301V89.9936H151.049L150.986 89.9467ZM129.248 111.791V121.107H138.484V111.791H129.248ZM123.002 118.037V121.12H126V118.037H123.002Z" fill="#594A39"/>
<path d="M126.064 158.595H132.373V155.431L132.319 155.485H135.443V152.468H138.472V158.536H141.53V161.708H144.744V167.929L144.806 167.886H141.683V174.078H147.93V171.002L147.883 171.049H151.047L150.984 171.002C150.984 173.084 150.979 175.172 150.968 177.267L151.025 177.214H135.408L135.452 177.276V174.203H132.291V177.276L132.335 177.229H129.174L129.218 177.276V174.119H116.703L116.75 174.166C116.75 173.113 116.722 172.064 116.709 171.012H119.792V167.932H116.756V171.055L113.602 171.012L113.649 171.058V167.886H110.479L110.525 167.929V164.766L110.479 164.813H113.602V161.658L116.759 161.696L116.713 161.649V164.772H123.003V171.002H126.039V164.81H122.972L123.006 161.649L122.959 161.696H126.126V158.532L126.064 158.595ZM138.557 161.718H129.249V170.959H138.572L138.557 161.718Z" fill="#594A39"/>
<path d="M129.164 142.942V146.012H122.958V149.047L119.835 149.216V146.093H113.607V139.872H110.568V146.071H113.632V149.194H119.878V152.348H122.942V155.471L123.005 155.424H119.934V158.591H123.001L122.955 158.544V161.695L123.001 161.648H116.721L116.767 161.695V158.572H113.6V155.449H110.477V152.389H104.231V158.575L104.278 158.528L98.006 158.566C98.006 157.532 98.0279 156.495 98.0404 155.443L97.9873 155.496H101.236V149.219H107.304V145.965H104.421V143.001H107.31V139.744H104.415V136.727H110.512V133.604L110.465 133.648H113.638V136.774H116.73L116.677 136.718V139.96H119.825V142.989H129.214L129.164 142.942Z" fill="#594A39"/>
<path d="M132.472 46.46H153.966V67.9862H132.472V46.46ZM151.018 49.4923H135.473V64.9476H151.018V49.4923Z" fill="#594A39"/>
<path d="M14.0137 164.925H35.5111V186.451H14.0137V164.925ZM16.987 183.447H32.5346V167.982H16.987V183.447Z" fill="#594A39"/>
<path d="M35.5509 68.0145H14.0566V46.4883H35.5509V68.0145ZM32.5807 49.4894H17.0268V64.9478H32.5807V49.4894Z" fill="#594A39"/>
<path d="M107.407 180.336H104.244L104.29 180.398V177.235H101.139L101.186 177.282L101.148 174.121H104.272V171.089H101.198V174.156L98.25 173.993V167.907H104.318V158.538L104.272 158.585L107.429 158.547V161.67H110.553L110.515 164.828L110.562 164.781H107.489V167.944H110.562L110.515 167.901V171.064H113.632L113.585 171.017V174.181H116.755L116.708 174.134V177.297L116.755 177.251H107.357V180.414L107.407 180.336Z" fill="#594A39"/>
<path d="M91.7185 49.4115V52.4563H88.6452V55.7167L88.689 55.6542H85.5376V52.6343H73.0446V58.8177L73.0914 58.774H69.9682V52.5282H66.8105L66.873 52.575V49.5302H73.0883V46.4697H76.0616V49.399H79.3161V46.4728H82.2863V49.3959H85.5439V46.476H88.5703V49.4615H91.7685L91.7185 49.4115Z" fill="#594A39"/>
<path d="M147.862 80.6173C147.862 81.6583 147.862 82.6992 147.862 83.7402L147.924 83.6965H144.76V86.86L144.807 86.8131L141.659 86.7819L141.712 86.835V83.6371H135.409V80.5923H132.286L132.33 80.6391V77.4756L132.286 77.5381H135.409V71.4297H138.417V74.3153H141.665V71.4484H144.676V80.6735H147.899L147.862 80.6173ZM141.653 77.5537H138.595V80.5892H141.653V77.5537Z" fill="#594A39"/>
<path d="M23.2509 149.123H20.1277V152.152H14.0342V149.317H16.9826V146.231L20.1308 146.069V139.823L20.0839 139.886H26.4679V136.763H32.5988L32.552 136.716L32.5895 139.873H29.5287V142.962H32.5926C32.5926 144.011 32.5676 145.063 32.552 146.113L32.5988 146.053H23.2041V149.176L23.2509 149.123Z" fill="#594A39"/>
<path d="M122.946 74.4216H129.221V71.4424H132.3V77.5383L132.344 77.4758H129.274V80.6393H132.344L132.3 80.5925C132.3 83.7154 132.312 86.8466 132.335 89.9862H122.965L122.999 86.829L122.953 86.8758H129.14V83.7123H122.953L122.999 83.756V80.5925L122.953 80.6393H126.026V77.4758H122.953L122.999 77.5227V74.3592L122.946 74.4216Z" fill="#594A39"/>
<path d="M147.869 108.696H150.927V121.16H153.991V127.249H150.989V130.463H147.885L147.931 130.525V127.355H144.768L144.814 127.402V124.239L144.768 124.286H147.838V121.122H144.768L144.814 121.166V118.002L144.768 118.049H147.838V114.886H144.768L144.814 114.933V111.81H147.938V108.668L147.869 108.696Z" fill="#594A39"/>
<path d="M29.5076 77.4926H26.4499V74.4446H17.0083V77.502H19.9223V83.5667H14.0225V71.4092H29.4514V77.5457L29.5076 77.4926Z" fill="#594A39"/>
<path d="M141.636 133.592V136.659H135.43V139.81H132.307L132.35 139.872V136.799H129.19V139.872L129.233 139.825H123.152V136.756H126.126V133.592L126.079 133.636H132.325V130.479H138.547V133.651H141.714L141.636 133.592Z" fill="#594A39"/>
<path d="M132.322 183.447H126.097V186.451H123.087V180.452H119.854V183.456H113.607L113.654 183.519V180.396H116.778V177.235L116.731 177.282H129.246L129.202 177.235V180.399H132.363L132.303 180.355C132.303 181.396 132.298 182.445 132.288 183.503L132.322 183.447Z" fill="#594A39"/>
<path d="M35.7103 77.5381V74.3559H32.7432V71.4297H48.1346V74.4214L48.1814 74.359H45.0582C45.0082 75.4364 44.9613 76.3857 44.9114 77.4819H35.6759L35.7103 77.5381Z" fill="#594A39"/>
<path d="M110.479 68.1855H113.602V65.2031H116.653V68.2011H119.87L119.817 68.148V71.2397H122.956V74.422L123.003 74.3595H116.756V71.3271H113.521V74.3595H110.488L110.535 74.4063V68.123L110.479 68.1855Z" fill="#594A39"/>
<path d="M26.337 152.365H29.3166V161.484H23.3293V158.501H16.9766L17.0296 158.554V155.513H26.3994V152.312L26.337 152.365Z" fill="#594A39"/>
<path d="M113.63 58.7482H110.507V61.7618H107.48V55.6534H98.1107V52.5523L98.0576 52.6054H110.551L110.504 52.543V55.7002H113.63L113.568 55.6534L113.552 58.8013L113.63 58.7482Z" fill="#594A39"/>
<path d="M126.039 49.4424V55.6882H129.047V61.7654H119.989V58.9173H123V49.4955H126.089L126.039 49.4424Z" fill="#594A39"/>
<path d="M94.9402 183.456H91.7607L91.8232 183.503V177.257H101.174L101.127 177.21V180.373H104.291L104.244 180.311V183.434H97.9979L98.0448 183.496V180.423H94.8934V183.496L94.9402 183.456Z" fill="#594A39"/>
<path d="M51.3147 167.883H38.8435V161.637L38.7842 161.684H41.9074V164.806H51.2772L51.2304 164.76V167.923L51.3147 167.883Z" fill="#594A39"/>
<path d="M147.905 183.446H144.782V186.457H138.701V180.523H147.849V183.506L147.905 183.446Z" fill="#594A39"/>
<path d="M110.524 52.5996V49.458H107.544V46.4756H119.725V49.333H113.587V52.5809L113.65 52.534H110.477L110.524 52.5996Z" fill="#594A39"/>
<path d="M45.0391 52.6054H48.1623V49.5918H54.3464V52.5835L54.4088 52.5367H51.2856V55.6908H48.128V58.8137L48.1904 58.77H45.0859V52.5523L45.0391 52.6054Z" fill="#594A39"/>
<path d="M147.916 80.6719V71.4375H150.893C150.94 72.3744 150.983 73.33 151.033 74.4043H153.966V77.4116H151.012V80.4658L147.863 80.6157L147.916 80.6719Z" fill="#594A39"/>
<path d="M132.322 143.02H138.569L138.516 142.967V146.09H141.527V149.057H135.592V146.053H132.372V142.961L132.322 143.02Z" fill="#594A39"/>
<path d="M38.8431 161.648H32.7402V158.685L35.7292 158.544V155.421L35.6699 155.465H41.9476L41.9039 155.418V158.541H38.7806V161.695L38.8431 161.648Z" fill="#594A39"/>
<path d="M60.6025 52.6005L66.899 52.5849L66.8366 52.5381V58.7839H63.7133L63.7601 58.8276V55.7047L60.6369 55.5486V52.5506L60.6025 52.6005Z" fill="#594A39"/>
<path d="M147.938 158.476H144.939V152.339H151.002L150.945 152.289V155.306L147.888 155.44V158.529L147.938 158.476Z" fill="#594A39"/>
<path d="M20.14 108.668H14.0371V102.463H17.023L16.9605 102.416V105.58H20.1243L20.0775 105.533V108.696L20.14 108.668Z" fill="#594A39"/>
<path d="M147.885 130.457V133.58H141.639L141.701 133.624V127.406H144.824L144.778 127.359V130.529H147.941L147.885 130.457Z" fill="#594A39"/>
<path d="M51.2523 183.456V186.46H45.1807V180.398H48.1977L48.1353 180.354V183.518H51.2991L51.2523 183.456Z" fill="#594A39"/>
<path d="M148.044 139.666V136.827H151.027V133.77H153.991V139.666H148.044Z" fill="#594A39"/>
<path d="M41.7982 62.1025V67.958H38.9873V62.1025H41.7982Z" fill="#594A39"/>
<path d="M57.5478 52.5844V46.4697H60.6024V52.6L60.6492 52.5375H57.4854L57.5478 52.5844Z" fill="#594A39"/>
<path d="M132.371 155.431H129.354V149.342H132.314C132.314 151.378 132.314 153.43 132.314 155.485L132.371 155.431Z" fill="#594A39"/>
<path d="M113.579 52.5849H119.682V55.6547H113.579L113.642 55.7016V52.5381L113.579 52.5849Z" fill="#594A39"/>
<path d="M45.0931 52.5527H38.959V49.5859H44.8932C44.9431 50.579 44.99 51.594 45.04 52.6058L45.0931 52.5527Z" fill="#594A39"/>
<path d="M126.222 67.9585V65.2197H129.014V67.9585H126.222Z" fill="#594A39"/>
<path d="M119.86 68.2015V65.1973H122.802V68.0079L119.807 68.139L119.86 68.2015Z" fill="#594A39"/>
<path d="M107.407 68.1861V65.1943H110.477V68.1861L110.524 68.1236H107.36L107.407 68.1861Z" fill="#594A39"/>
<path d="M48.1511 64.9766V67.9808H45.209V65.1702L48.2042 65.039L48.1511 64.9766Z" fill="#594A39"/>
<path d="M113.562 58.8021H116.567V61.747H113.756C113.712 60.7602 113.666 59.7546 113.622 58.749L113.562 58.8021Z" fill="#594A39"/>
<path d="M101.159 61.9652V58.9609H104.101V61.7716L101.105 61.9058L101.159 61.9652Z" fill="#594A39"/>
<path d="M132.37 142.961L129.159 142.942L129.222 142.989V139.825L129.178 139.872H132.339L132.295 139.81C132.295 140.878 132.302 141.946 132.317 143.014L132.37 142.961Z" fill="#594A39"/>
<path d="M138.56 143.021V140.017H141.505V142.827L138.507 142.962L138.56 143.021Z" fill="#594A39"/>
<path d="M147.908 146.037H144.935V143.104H147.855V146.09L147.908 146.037Z" fill="#594A39"/>
<path d="M35.7102 149.164H32.5869V146.041L32.54 146.1L35.6945 146.063C35.682 147.116 35.6706 148.169 35.6602 149.22L35.7102 149.164Z" fill="#594A39"/>
<path d="M147.854 146.091H150.978V149.214L151.034 149.161H148.051C148.004 148.037 147.961 147.041 147.917 146.038L147.854 146.091Z" fill="#594A39"/>
<path d="M26.3902 152.311H23.2482V149.126L23.1982 149.179L26.3215 149.338V152.364L26.3902 152.311Z" fill="#594A39"/>
<path d="M35.7246 152.341C35.7246 151.283 35.7246 150.221 35.7246 149.162L35.6809 149.225H38.6729V152.294H35.6777L35.7246 152.341Z" fill="#594A39"/>
<path d="M150.969 149.21H153.977V152.29H150.947L151 152.339C151 151.278 151.009 150.217 151.025 149.157L150.969 149.21Z" fill="#594A39"/>
<path d="M41.7982 55.8438V58.6263H38.9873V55.8438H41.7982Z" fill="#594A39"/>
<path d="M35.7261 155.416H32.7402V152.343H35.7292L35.6699 152.296V155.459L35.7261 155.416Z" fill="#594A39"/>
<path d="M17.0395 93.0792H14.0225V90.025H16.9927L16.9396 89.9688C16.9521 91.0243 16.9667 92.0788 16.9833 93.1323L17.0395 93.0792Z" fill="#594A39"/>
<path d="M151.002 86.8925H154V89.9467H150.986L151.049 89.9936V86.8301L151.002 86.8925Z" fill="#594A39"/>
<path d="M122.93 155.459H126.053V158.582L126.1 158.519H122.936L122.983 158.566V155.412L122.93 155.459Z" fill="#594A39"/>
<path d="M16.9763 158.5V161.504H14.0342V158.694L17.0294 158.559L16.9763 158.5Z" fill="#594A39"/>
<path d="M151.028 161.628H147.939V158.477L147.889 158.53L150.971 158.698V161.681L151.028 161.628Z" fill="#594A39"/>
<path d="M16.9935 90.0247V87.0205H19.9356V89.8311L16.9404 89.9623L16.9935 90.0247Z" fill="#594A39"/>
<path d="M54.3535 52.5849H57.5486L57.4861 52.5381V55.5517L54.3629 55.6922C54.3629 54.6398 54.3879 53.5905 54.4035 52.5381L54.3535 52.5849Z" fill="#594A39"/>
<path d="M150.97 161.68H153.984V164.769H151.048L151.101 164.822L151.026 161.627L150.97 161.68Z" fill="#594A39"/>
<path d="M147.869 83.7576H150.992V86.8805L151.039 86.818H147.875L147.922 86.8649V83.7139L147.869 83.7576Z" fill="#594A39"/>
<path d="M147.948 167.929V164.806H151.111L151.058 164.756C151.04 165.811 151.019 166.865 150.996 167.916L151.058 167.873H147.895L147.948 167.929Z" fill="#594A39"/>
<path d="M98.0826 52.5526H94.9593V49.4297L94.9062 49.4828H97.8859C97.9358 50.607 97.9796 51.6032 98.0233 52.6057L98.0826 52.5526Z" fill="#594A39"/>
<path d="M144.751 167.929H147.946L147.884 167.885V171.049L147.93 171.002H144.807V167.879L144.751 167.929Z" fill="#594A39"/>
<path d="M150.986 167.928H153.978V171.001H150.986L151.049 171.048V167.885L150.986 167.928Z" fill="#594A39"/>
<path d="M126.092 49.4954V46.4912H129.034V49.3018L126.039 49.4361L126.092 49.4954Z" fill="#594A39"/>
<path d="M63.5883 180.254H60.7773V177.415H63.5883V180.254Z" fill="#594A39"/>
<path d="M94.9669 49.4365L91.7188 49.4115L91.7718 49.4615C91.8218 48.5028 91.8718 47.5409 91.9249 46.4854H94.9138V49.4896L94.9669 49.4365Z" fill="#594A39"/>
<path d="M135.417 177.22V180.343H132.294L132.353 180.386V177.235L132.31 177.282H135.47L135.417 177.22Z" fill="#594A39"/>
<path d="M150.97 177.267H153.974V180.209H151.163C151.12 179.225 151.076 178.219 151.032 177.214L150.97 177.267Z" fill="#594A39"/>
<path d="M110.525 183.456H107.401V180.333L107.354 180.395H110.478V183.518L110.525 183.456Z" fill="#594A39"/>
<path d="M66.8513 183.439V186.444H63.9092V183.633L66.9044 183.499L66.8513 183.439Z" fill="#594A39"/>
<path d="M98.0154 183.455V186.447H94.9453V183.455L94.8984 183.518H98.0623L98.0154 183.455Z" fill="#594A39"/>
<path d="M113.596 183.455V186.447H110.525V183.455L110.479 183.518H113.633L113.596 183.455Z" fill="#594A39"/>
<path d="M132.269 183.502H135.27V186.444H132.459C132.415 185.457 132.372 184.452 132.325 183.446L132.269 183.502Z" fill="#594A39"/>
<path d="M147.854 183.502H150.859V186.444H148.048C148.004 185.457 147.961 184.452 147.917 183.446L147.854 183.502Z" fill="#594A39"/>
<path d="M63.7235 136.749V133.601H60.6783V130.478L60.6221 130.531L76.2384 130.466C76.1946 131.428 76.1478 132.386 76.0947 133.473L73.0839 133.607V136.696L73.137 136.64L63.7235 136.749Z" fill="#594A39"/>
<path d="M73.0477 139.848V149.057H60.7607V146.197H69.9338V142.955H67.0073V139.898H73.1007L73.0477 139.848Z" fill="#594A39"/>
<path d="M91.7702 139.929L98.0449 139.904L97.9886 139.848V142.883H94.8935V145.94H85.708V143.092H91.8202V139.873L91.7702 139.929Z" fill="#594A39"/>
<path d="M69.9851 161.727V155.406H67.0273V152.474H72.9615V161.53L69.9413 161.674L69.9851 161.727Z" fill="#594A39"/>
<path d="M73.1019 139.897C73.1019 138.814 73.1019 137.733 73.1269 136.649L73.0738 136.702H79.1642V139.844H73.0488L73.1019 139.897Z" fill="#594A39"/>
<path d="M82.3072 143.11V145.94H76.3574V143.11H82.3072Z" fill="#594A39"/>
<path d="M57.5244 155.453L54.373 155.303V149.186L57.5244 149.335V155.453Z" fill="#594A39"/>
<path d="M63.7586 158.572H57.6683C57.6027 157.413 57.5465 156.417 57.4902 155.418H63.5806C63.6587 156.577 63.7024 157.573 63.7586 158.572Z" fill="#594A39"/>
<path d="M85.5781 130.479V133.633L82.5923 133.492C82.5361 132.465 82.483 131.472 82.4268 130.479H85.5781Z" fill="#594A39"/>
<path d="M88.6994 133.6V136.751L85.5574 136.679L85.6105 136.732L85.5449 133.609L88.6994 133.6Z" fill="#594A39"/>
<path d="M85.5583 136.678V139.682H82.6162V136.871L85.6114 136.74L85.5583 136.678Z" fill="#594A39"/>
<path d="M88.665 136.716H91.8164C91.8164 137.787 91.782 138.855 91.7664 139.926L91.8164 139.873L88.8275 139.72L88.665 136.716Z" fill="#594A39"/>
<path d="M98.0406 139.896V136.898H100.983V139.709L97.9844 139.84L98.0406 139.896Z" fill="#594A39"/>
<path d="M54.373 146.102V142.948L57.362 143.101V145.931L54.373 146.102Z" fill="#594A39"/>
<path d="M51.2578 149.219C51.3015 148.264 51.3453 147.308 51.3984 146.231L54.4092 146.068V149.219H51.2578Z" fill="#594A39"/>
<path d="M94.9148 152.274H91.9414V149.342H94.8617V152.327L94.9148 152.274Z" fill="#594A39"/>
<path d="M94.8613 152.327H98.0158V155.512L98.0689 155.459L94.9456 155.297C94.9456 154.269 94.9456 153.27 94.9456 152.271L94.8613 152.327Z" fill="#594A39"/>
<path d="M66.8779 161.689H63.7266V158.538L66.7155 158.679C66.7842 159.703 66.8248 160.696 66.8779 161.689Z" fill="#594A39"/>
<path d="M98.0498 158.538C98.0029 159.491 97.9592 160.446 97.9092 161.527L94.8984 161.689C94.9422 160.733 94.9859 159.778 95.039 158.7L98.0498 158.538Z" fill="#594A39"/>
<path d="M85.5434 80.5989H88.6667V77.476L91.8211 77.5322L91.7774 77.4697V86.8697H94.9413L94.8944 86.8228L94.935 89.9739H91.8493V93.053H94.8913V89.9301L98.0458 89.9739L97.9833 89.927V96.0979H88.6448V99.1583H85.6683V93.1311H76.1799V99.1739H67.0381V96.3009H73.0472V93.0999H70.1551V90.0738H73.0628V86.8353L76.1018 86.9884V89.9301H88.6448V86.8666H79.503V83.8467H85.5309L85.5434 80.5989Z" fill="#594A39"/>
<path d="M122.947 93.1265L132.341 93.0703L132.185 96.1026H126.154V99.338H129.028V102.348H126.104V105.574H119.801V108.669L119.855 108.616H113.608L113.655 108.675V105.546H110.479L110.541 105.593V102.423L110.479 102.47H113.633V99.3005L113.586 99.3473H116.756V102.423H123.003V93.0547L122.947 93.1265Z" fill="#594A39"/>
<path d="M113.595 108.638V111.82H116.565V114.827H110.487V117.85H107.477V114.915H104.263C104.31 113.95 104.36 112.985 104.416 111.851H110.553V108.669L110.49 108.713H113.632L113.595 108.638Z" fill="#594A39"/>
<path d="M104.284 121.16H94.8926V114.893H104.278L104.284 121.16Z" fill="#594A39"/>
<path d="M57.5267 105.574H51.2802V108.697H45.1836V105.671H48.132V102.579L51.2552 102.435V99.2998L54.2504 99.4466C54.3004 100.443 54.3472 101.389 54.4003 102.451H57.3456C57.4143 103.572 57.4705 104.574 57.5267 105.574Z" fill="#594A39"/>
<path d="M110.54 102.422H104.294V96.1758L104.231 96.2195H107.395L107.348 96.1758V99.3393H110.512L110.465 99.2924V102.456L110.54 102.422Z" fill="#594A39"/>
<path d="M63.7266 86.8709C63.7734 85.906 63.8203 84.9441 63.8796 83.7168H73.112V86.8709H63.7266Z" fill="#594A39"/>
<path d="M94.8926 105.574V102.423H101.089V105.564L101.142 105.511L94.8926 105.574Z" fill="#594A39"/>
<path d="M60.6416 105.545L60.4917 108.537H57.6589C57.6027 107.562 57.5465 106.554 57.4902 105.545H60.6416Z" fill="#594A39"/>
<path d="M101.094 105.564H104.098V108.506H101.287C101.244 107.522 101.2 106.516 101.156 105.511L101.094 105.564Z" fill="#594A39"/>
<path d="M110.539 108.668H107.547V105.595H110.539L110.476 105.548V108.711L110.539 108.668Z" fill="#594A39"/>
<path d="M63.7598 105.574H60.6084C60.6584 104.602 60.7052 103.634 60.7583 102.585H63.5911C63.6598 103.556 63.7036 104.565 63.7598 105.574Z" fill="#594A39"/>
<path d="M94.9324 102.457H91.7686C91.8154 101.485 91.8654 100.514 91.9185 99.4648H94.7513C94.8169 100.439 94.8731 101.448 94.9324 102.457Z" fill="#594A39"/>
<path d="M91.8185 77.5391L91.781 74.3662L94.8762 74.5099V77.5235L94.9387 77.4766H91.7686L91.8185 77.5391Z" fill="#594A39"/>
<path d="M98.0781 77.5015V74.5254H101.011V77.4391H98.0156L98.0781 77.5015Z" fill="#594A39"/>
<path d="M82.3205 96.3584V99.169H79.4814V96.3584H82.3205Z" fill="#594A39"/>
<path d="M98.0158 77.4385C98.0158 78.5034 97.994 79.5683 97.9846 80.6332L98.047 80.5864H94.9238V77.4635L94.8613 77.5103L98.0627 77.4884L98.0158 77.4385Z" fill="#594A39"/>
<path d="M104.305 96.1764H101.297V93.1191H104.289L104.242 93.0566V96.2201L104.305 96.1764Z" fill="#594A39"/>
<path d="M107.401 89.9521L107.345 93.1094L107.407 93.0626H104.243L104.29 93.125V90.1239L107.401 89.9521Z" fill="#594A39"/>
<path d="M98.0146 86.8925H101.013V89.9467H97.999L98.0615 89.9936V86.8301L98.0146 86.8925Z" fill="#594A39"/>
<path d="M97.994 83.7139C97.994 84.7715 97.9992 85.8312 98.0096 86.893L98.0564 86.8305H94.8926L94.9394 86.8774V83.7545H98.0627L97.994 83.7139Z" fill="#594A39"/>
<path d="M97.9932 80.6396H100.985V83.7126H97.9932L98.0556 83.7563V80.5928L97.9932 80.6396Z" fill="#594A39"/>
<path d="M119.801 108.668H122.802V111.613H119.991C119.948 110.626 119.901 109.621 119.857 108.615L119.801 108.668Z" fill="#594A39"/>
<path d="M116.79 121.138H113.785V118.193H116.596C116.64 119.18 116.684 120.186 116.727 121.191L116.79 121.138Z" fill="#594A39"/>
<path d="M132.338 127.362V130.529L129.349 130.379V127.531L132.338 127.362Z" fill="#594A39"/>
<path d="M60.6813 130.492H57.6768V127.547H60.4877C60.5314 128.534 60.5783 129.539 60.622 130.545L60.6813 130.492Z" fill="#594A39"/>
<path d="M116.755 136.774V133.77H119.697V136.58L116.702 136.714L116.755 136.774Z" fill="#594A39"/>
<path d="M35.7031 142.983H32.5518V139.832H35.7031V142.983Z" fill="#594A39"/>
<path d="M35.6689 146.102V142.948L38.661 143.101V145.931L35.6689 146.102Z" fill="#594A39"/>
<path d="M32.54 102.519H35.5353V105.408H32.59V102.463L32.54 102.519Z" fill="#594A39"/>
<path d="M29.4365 102.457V99.2998H32.5879L32.541 102.51L32.591 102.457H29.4365Z" fill="#594A39"/>
<path d="M82.6016 115.032H85.4125V117.871H82.6016V115.032Z" fill="#594A39"/>
<path d="M32.7041 117.884V115.055H35.5431V117.884H32.7041Z" fill="#594A39"/>
<path d="M35.7031 83.7168V86.8709L32.7173 86.7304C32.6611 85.7061 32.608 84.713 32.5518 83.7168H35.7031Z" fill="#594A39"/>
<path d="M38.8203 83.7516H35.6689V80.6006L38.6579 80.7411C38.7141 81.7654 38.7672 82.7492 38.8203 83.7516Z" fill="#594A39"/>
<path d="M38.7871 86.8709V83.7168H41.9416C41.8948 84.6724 41.851 85.628 41.8011 86.7054L38.7871 86.8709Z" fill="#594A39"/>
<path d="M45.0586 83.7513H41.9072C41.9541 82.7832 42.0041 81.812 42.0572 80.7627H44.8868C44.943 81.7339 44.9993 82.7489 45.0586 83.7513Z" fill="#594A39"/>
<path d="M88.6994 130.529H85.5449V127.362L88.5339 127.503C88.5901 128.527 88.6463 129.52 88.6994 130.529Z" fill="#594A39"/>
<path d="M85.4301 164.977V167.715H82.6191V164.977H85.4301Z" fill="#594A39"/>
<path d="M73.0762 83.7547V80.6006L76.0682 80.7536V83.583L73.0762 83.7547Z" fill="#594A39"/>
<path d="M82.5908 65.1641H85.4205V68.0028H82.5908V65.1641Z" fill="#594A39"/>
<path d="M107.344 93.1093H119.874L119.827 93.0469V96.1698H113.581V99.3302L113.628 99.2833H110.476L110.523 99.3302V96.176H107.359L107.406 96.2198V93.0531L107.344 93.1093Z" fill="#594A39"/>
<path d="M123 89.9521C123 91.0108 122.975 92.0664 122.96 93.125L123.007 93.0626H119.843L119.89 93.125V90.1239L123 89.9521Z" fill="#594A39"/>
<path d="M57.4902 65.0127H60.6416C60.5979 65.9683 60.551 66.9239 60.5011 68.0013L57.4902 68.1637V65.0127Z" fill="#594A39"/>
<path d="M52.8319 59.4437C54.0635 59.442 55.0605 58.4423 55.0588 57.2108C55.0571 55.9794 54.0573 54.9825 52.8257 54.9842C51.5941 54.9859 50.5971 55.9856 50.5988 57.2171C50.6005 58.4485 51.6003 59.4454 52.8319 59.4437Z" fill="#594A39"/>
<path d="M132.303 93.1032V89.9521L135.295 90.102V92.9345L132.303 93.1032Z" fill="#594A39"/>
<path d="M141.667 86.8076V89.8119H138.725V87.0012L141.72 86.8701L141.667 86.8076Z" fill="#594A39"/>
<path d="M132.443 117.871V115.061H135.282V117.871H132.443Z" fill="#594A39"/>
<path d="M135.251 167.772H132.509V164.977H135.251V167.772Z" fill="#594A39"/>
<path d="M110.484 161.689V158.538H113.633V161.689H110.484Z" fill="#594A39"/>
<path d="M110.509 158.572H107.357C107.401 157.616 107.448 156.661 107.498 155.583L110.509 155.418V158.572Z" fill="#594A39"/>
<path d="M138.65 61.7469V52.7686H147.727V61.7469H138.65Z" fill="#594A39"/>
<path d="M29.3036 180.242H20.2773V171.186H29.3036V180.242Z" fill="#594A39"/>
<path d="M20.2471 52.6973H29.2733V61.7537H20.2471V52.6973Z" fill="#594A39"/>
</svg>
