<svg width="125" height="163" viewBox="0 0 125 163" fill="none" xmlns="http://www.w3.org/2000/svg">
<rect x="1.5" y="1.5" width="122" height="160" rx="8.5" fill="white"/>
<rect x="1.5" y="1.5" width="122" height="160" rx="8.5" stroke="#E9E3D8" stroke-width="3"/>
<path d="M25.2594 26.7844L23.6816 27.2828C23.6383 26.9577 23.5735 26.5677 23.487 26.1777C19.3804 26.7844 18.6888 26.9577 18.2565 27.1744C18.1484 26.7627 17.8458 25.8093 17.6297 25.2893C18.1052 25.1593 18.6023 24.6609 19.2723 23.8808C19.5533 23.5341 20.1585 22.7757 20.8285 21.779C18.9049 22.0173 18.4294 22.1473 18.1052 22.2557C17.9971 21.8873 17.7161 20.9772 17.5 20.5005C17.889 20.4139 18.2349 19.9588 18.6671 19.3304C19.0994 18.7021 20.4827 16.2969 21.2608 14L23.1196 14.7584C22.255 16.6436 21.1744 18.6154 20.072 20.1972L21.9524 20.0455C22.536 19.1354 23.098 18.1387 23.5303 17.1636L25.2594 18.2254C23.9841 20.5655 22.2983 22.9707 20.6124 24.9209L23.1628 24.5959C22.9899 23.9242 22.7954 23.2308 22.5793 22.6457L24.0706 22.2557C24.5893 23.7291 25.1081 25.636 25.2594 26.7844ZM18.5159 27.9762L20.0937 28.2579C19.8991 30.1863 19.5101 32.2665 19.0562 33.6316C18.7104 33.4366 17.9539 33.1983 17.5432 33.0683C18.0403 31.7248 18.3429 29.7746 18.5159 27.9762ZM20.6988 28.2145L22.147 27.9545C22.4063 29.4063 22.6225 31.2698 22.6657 32.5265L21.1311 32.8082C21.1095 31.5515 20.915 29.6446 20.6988 28.2145ZM22.7522 27.8028L24.0922 27.3694C24.5029 28.4095 24.9135 29.7313 25.0865 30.6197L23.6816 31.1181C23.5303 30.208 23.1412 28.8212 22.7522 27.8028ZM29.1931 25.5276L30.3602 25.9393C29.647 29.2329 27.8963 31.6165 25.6916 32.8949C25.4323 32.5049 24.9135 31.8332 24.5461 31.5081C26.0375 30.6847 27.3775 29.1246 28.1124 27.2394H25.7349V25.5926H28.8905L29.1931 25.5276ZM28.3718 20.8689V22.429H34.5101V20.8689H28.3718ZM28.3718 17.8787V19.4171H34.5101V17.8787H28.3718ZM35.6556 24.5742L37.147 25.8093C36.1744 26.6544 35.1153 27.5645 34.2075 28.2362C35.0937 29.623 36.2392 30.7714 37.5576 31.4648C37.1254 31.8115 36.5418 32.5482 36.2392 33.0466C34.7695 32.0932 33.5375 30.5547 32.6081 28.7346V31.8332C32.6081 32.7866 32.4135 33.3283 31.7867 33.6316C31.1599 33.935 30.1873 33.9567 28.8256 33.9567C28.7608 33.4149 28.5014 32.6132 28.2637 32.1148C29.1715 32.1582 30.0793 32.1582 30.3386 32.1365C30.6196 32.1148 30.6844 32.0498 30.6844 31.8115V24.0108H26.4914V16.3185H29.6902C29.9712 15.5818 30.2305 14.6934 30.3818 14.0217L32.6513 14.4767C32.3487 15.1051 32.0461 15.7551 31.7219 16.3185H36.4769V24.0108H32.6081V24.7692C32.8458 25.506 33.1052 26.221 33.451 26.8927C34.2507 26.156 35.0937 25.2459 35.6556 24.5742Z" fill="#EEB690"/>
<path d="M51.2824 30.8581H60.5764V32.8949H41.232V30.8581H49.121V14.3467H51.2824V20.7822H59.085V22.7974H51.2824V30.8581Z" fill="#EEB690"/>
<path d="M75.2089 26.2644H80.6988V23.4041H75.2089V26.2644ZM67.7954 26.2644H73.134V23.4041H67.7954V26.2644ZM73.134 18.8321H67.7954V21.5406H73.134V18.8321ZM80.6988 18.8321H75.2089V21.5406H80.6988V18.8321ZM75.2089 16.9036H82.7738V29.2763H80.6988V28.1928H75.2089V33.935H73.134V28.1928H67.7954V29.3846H65.8069V16.9036H73.134V14.065H75.2089V16.9036Z" fill="#EEB690"/>
<path d="M107.241 16.7952V18.442H100.908V16.7952H103.242C103.004 16.0802 102.659 15.2784 102.313 14.6284L103.977 14.13C104.409 14.9534 104.885 15.9935 105.187 16.7952H107.241ZM103.501 22.169L102.075 22.559C102.053 21.6273 101.794 20.1538 101.448 19.0271L102.788 18.6804C103.177 19.7855 103.48 21.2156 103.501 22.169ZM94.0562 16.8386V18.4854H87.8746V16.8386H90.1657C89.928 16.1668 89.6037 15.3868 89.2795 14.7801L90.9438 14.2817C91.3977 15.0618 91.83 16.0802 92.0893 16.8386H94.0562ZM90.3602 22.169L88.9121 22.559C88.9121 21.649 88.6744 20.2189 88.3501 19.1138L89.6902 18.7671C90.0576 19.8288 90.317 21.2373 90.3602 22.169ZM93.7752 28.1712H91.7651C91.6138 30.208 90.9654 32.4615 89.0634 34C88.804 33.61 88.2637 33.0033 87.8746 32.6999C89.4308 31.5731 89.8631 29.7746 89.9712 28.1712H87.9827V26.5244H90.0144V24.2709H87.7234V22.6241H91.1167C91.4409 21.4973 91.83 19.8288 91.9813 18.6587L93.5375 18.9837C93.1917 20.1972 92.8242 21.5623 92.5 22.6241H94.1427V24.2709H91.8084V26.5244H93.7752V28.1712ZM100.065 18.8537V19.6988C99.9352 28.9079 99.8271 31.8982 99.33 32.7216C99.0058 33.2633 98.6599 33.4583 98.1196 33.545C97.6873 33.6316 97.0605 33.61 96.3905 33.5883C96.3689 33.1116 96.196 32.3965 95.9582 31.9415C96.5418 31.9848 97.0605 31.9848 97.3415 31.9848C97.5793 31.9848 97.7305 31.9198 97.8818 31.6381C98.2061 31.0748 98.3141 28.4095 98.4222 20.5872H97.1902C96.9525 26.156 96.2824 30.6414 94.121 33.9783C93.9049 33.675 93.17 33.0683 92.8242 32.7866C94.8127 29.948 95.4611 25.7226 95.6556 20.5872H94.4885V18.8537H95.6989C95.7205 17.3153 95.7205 15.7118 95.7205 14.065H97.2983C97.2983 15.7335 97.2767 17.3153 97.2334 18.8537H100.065ZM107.5 24.2925H105.101V26.8494H107.241V28.4962H105.101V33.8917H103.285V28.4962H101.21V26.8494H103.285V24.2925H100.821V22.6457H104.409C104.755 21.4973 105.144 19.7638 105.295 18.5937L106.83 18.9404C106.549 20.1538 106.182 21.5623 105.857 22.6457H107.5V24.2925Z" fill="#EEB690"/>
<path d="M16.9394 46H14V48.9394H16.9394V46Z" fill="#594A39"/>
<path d="M19.8788 46H16.9395V48.9394H19.8788V46Z" fill="#594A39"/>
<path d="M22.8183 46H19.8789V48.9394H22.8183V46Z" fill="#594A39"/>
<path d="M25.7578 46H22.8184V48.9394H25.7578V46Z" fill="#594A39"/>
<path d="M28.6972 46H25.7578V48.9394H28.6972V46Z" fill="#594A39"/>
<path d="M31.6367 46H28.6973V48.9394H31.6367V46Z" fill="#594A39"/>
<path d="M34.5761 46H31.6367V48.9394H34.5761V46Z" fill="#594A39"/>
<path d="M40.455 46H37.5156V48.9394H40.455V46Z" fill="#594A39"/>
<path d="M43.3945 46H40.4551V48.9394H43.3945V46Z" fill="#594A39"/>
<path d="M46.3339 46H43.3945V48.9394H46.3339V46Z" fill="#594A39"/>
<path d="M49.2734 46H46.334V48.9394H49.2734V46Z" fill="#594A39"/>
<path d="M52.2128 46H49.2734V48.9394H52.2128V46Z" fill="#594A39"/>
<path d="M55.1523 46H52.2129V48.9394H55.1523V46Z" fill="#594A39"/>
<path d="M66.9081 46H63.9688V48.9394H66.9081V46Z" fill="#594A39"/>
<path d="M69.8476 46H66.9082V48.9394H69.8476V46Z" fill="#594A39"/>
<path d="M72.7871 46H69.8477V48.9394H72.7871V46Z" fill="#594A39"/>
<path d="M75.7265 46H72.7871V48.9394H75.7265V46Z" fill="#594A39"/>
<path d="M78.666 46H75.7266V48.9394H78.666V46Z" fill="#594A39"/>
<path d="M84.5449 46H81.6055V48.9394H84.5449V46Z" fill="#594A39"/>
<path d="M93.3632 46H90.4238V48.9394H93.3632V46Z" fill="#594A39"/>
<path d="M96.3027 46H93.3633V48.9394H96.3027V46Z" fill="#594A39"/>
<path d="M99.2421 46H96.3027V48.9394H99.2421V46Z" fill="#594A39"/>
<path d="M102.182 46H99.2422V48.9394H102.182V46Z" fill="#594A39"/>
<path d="M105.121 46H102.182V48.9394H105.121V46Z" fill="#594A39"/>
<path d="M108.06 46H105.121V48.9394H108.06V46Z" fill="#594A39"/>
<path d="M111 46H108.061V48.9394H111V46Z" fill="#594A39"/>
<path d="M16.9394 48.9395H14V51.8788H16.9394V48.9395Z" fill="#594A39"/>
<path d="M34.5761 48.9395H31.6367V51.8788H34.5761V48.9395Z" fill="#594A39"/>
<path d="M40.455 48.9395H37.5156V51.8788H40.455V48.9395Z" fill="#594A39"/>
<path d="M43.3945 48.9395H40.4551V51.8788H43.3945V48.9395Z" fill="#594A39"/>
<path d="M46.3339 48.9395H43.3945V51.8788H46.3339V48.9395Z" fill="#594A39"/>
<path d="M49.2734 48.9395H46.334V51.8788H49.2734V48.9395Z" fill="#594A39"/>
<path d="M52.2128 48.9395H49.2734V51.8788H52.2128V48.9395Z" fill="#594A39"/>
<path d="M55.1523 48.9395H52.2129V51.8788H55.1523V48.9395Z" fill="#594A39"/>
<path d="M63.9706 48.9395H61.0312V51.8788H63.9706V48.9395Z" fill="#594A39"/>
<path d="M66.9081 48.9395H63.9688V51.8788H66.9081V48.9395Z" fill="#594A39"/>
<path d="M75.7265 48.9395H72.7871V51.8788H75.7265V48.9395Z" fill="#594A39"/>
<path d="M81.6054 48.9395H78.666V51.8788H81.6054V48.9395Z" fill="#594A39"/>
<path d="M84.5449 48.9395H81.6055V51.8788H84.5449V48.9395Z" fill="#594A39"/>
<path d="M93.3632 48.9395H90.4238V51.8788H93.3632V48.9395Z" fill="#594A39"/>
<path d="M111 48.9395H108.061V51.8788H111V48.9395Z" fill="#594A39"/>
<path d="M16.9394 51.8789H14V54.8183H16.9394V51.8789Z" fill="#594A39"/>
<path d="M22.8183 51.8789H19.8789V54.8183H22.8183V51.8789Z" fill="#594A39"/>
<path d="M25.7578 51.8789H22.8184V54.8183H25.7578V51.8789Z" fill="#594A39"/>
<path d="M28.6972 51.8789H25.7578V54.8183H28.6972V51.8789Z" fill="#594A39"/>
<path d="M34.5761 51.8789H31.6367V54.8183H34.5761V51.8789Z" fill="#594A39"/>
<path d="M43.3945 51.8789H40.4551V54.8183H43.3945V51.8789Z" fill="#594A39"/>
<path d="M46.3339 51.8789H43.3945V54.8183H46.3339V51.8789Z" fill="#594A39"/>
<path d="M61.0312 51.8789H58.0918V54.8183H61.0312V51.8789Z" fill="#594A39"/>
<path d="M69.8476 51.8789H66.9082V54.8183H69.8476V51.8789Z" fill="#594A39"/>
<path d="M75.7265 51.8789H72.7871V54.8183H75.7265V51.8789Z" fill="#594A39"/>
<path d="M81.6054 51.8789H78.666V54.8183H81.6054V51.8789Z" fill="#594A39"/>
<path d="M84.5449 51.8789H81.6055V54.8183H84.5449V51.8789Z" fill="#594A39"/>
<path d="M87.4843 51.8789H84.5449V54.8183H87.4843V51.8789Z" fill="#594A39"/>
<path d="M93.3632 51.8789H90.4238V54.8183H93.3632V51.8789Z" fill="#594A39"/>
<path d="M99.2421 51.8789H96.3027V54.8183H99.2421V51.8789Z" fill="#594A39"/>
<path d="M102.182 51.8789H99.2422V54.8183H102.182V51.8789Z" fill="#594A39"/>
<path d="M105.121 51.8789H102.182V54.8183H105.121V51.8789Z" fill="#594A39"/>
<path d="M111 51.8789H108.061V54.8183H111V51.8789Z" fill="#594A39"/>
<path d="M16.9394 54.8184H14V57.7578H16.9394V54.8184Z" fill="#594A39"/>
<path d="M22.8183 54.8184H19.8789V57.7578H22.8183V54.8184Z" fill="#594A39"/>
<path d="M25.7578 54.8184H22.8184V57.7578H25.7578V54.8184Z" fill="#594A39"/>
<path d="M28.6972 54.8184H25.7578V57.7578H28.6972V54.8184Z" fill="#594A39"/>
<path d="M34.5761 54.8184H31.6367V57.7578H34.5761V54.8184Z" fill="#594A39"/>
<path d="M40.455 54.8184H37.5156V57.7578H40.455V54.8184Z" fill="#594A39"/>
<path d="M43.3945 54.8184H40.4551V57.7578H43.3945V54.8184Z" fill="#594A39"/>
<path d="M52.2128 54.8184H49.2734V57.7578H52.2128V54.8184Z" fill="#594A39"/>
<path d="M58.0917 54.8184H55.1523V57.7578H58.0917V54.8184Z" fill="#594A39"/>
<path d="M61.0312 54.8184H58.0918V57.7578H61.0312V54.8184Z" fill="#594A39"/>
<path d="M66.9081 54.8184H63.9688V57.7578H66.9081V54.8184Z" fill="#594A39"/>
<path d="M69.8476 54.8184H66.9082V57.7578H69.8476V54.8184Z" fill="#594A39"/>
<path d="M72.7871 54.8184H69.8477V57.7578H72.7871V54.8184Z" fill="#594A39"/>
<path d="M75.7265 54.8184H72.7871V57.7578H75.7265V54.8184Z" fill="#594A39"/>
<path d="M78.666 54.8184H75.7266V57.7578H78.666V54.8184Z" fill="#594A39"/>
<path d="M81.6054 54.8184H78.666V57.7578H81.6054V54.8184Z" fill="#594A39"/>
<path d="M84.5449 54.8184H81.6055V57.7578H84.5449V54.8184Z" fill="#594A39"/>
<path d="M93.3632 54.8184H90.4238V57.7578H93.3632V54.8184Z" fill="#594A39"/>
<path d="M99.2421 54.8184H96.3027V57.7578H99.2421V54.8184Z" fill="#594A39"/>
<path d="M102.182 54.8184H99.2422V57.7578H102.182V54.8184Z" fill="#594A39"/>
<path d="M105.121 54.8184H102.182V57.7578H105.121V54.8184Z" fill="#594A39"/>
<path d="M111 54.8184H108.061V57.7578H111V54.8184Z" fill="#594A39"/>
<path d="M16.9394 57.7578H14V60.6972H16.9394V57.7578Z" fill="#594A39"/>
<path d="M22.8183 57.7578H19.8789V60.6972H22.8183V57.7578Z" fill="#594A39"/>
<path d="M25.7578 57.7578H22.8184V60.6972H25.7578V57.7578Z" fill="#594A39"/>
<path d="M28.6972 57.7578H25.7578V60.6972H28.6972V57.7578Z" fill="#594A39"/>
<path d="M34.5761 57.7578H31.6367V60.6972H34.5761V57.7578Z" fill="#594A39"/>
<path d="M55.1523 57.7578H52.2129V60.6972H55.1523V57.7578Z" fill="#594A39"/>
<path d="M58.0917 57.7578H55.1523V60.6972H58.0917V57.7578Z" fill="#594A39"/>
<path d="M69.8476 57.7578H66.9082V60.6972H69.8476V57.7578Z" fill="#594A39"/>
<path d="M72.7871 57.7578H69.8477V60.6972H72.7871V57.7578Z" fill="#594A39"/>
<path d="M75.7265 57.7578H72.7871V60.6972H75.7265V57.7578Z" fill="#594A39"/>
<path d="M81.6054 57.7578H78.666V60.6972H81.6054V57.7578Z" fill="#594A39"/>
<path d="M84.5449 57.7578H81.6055V60.6972H84.5449V57.7578Z" fill="#594A39"/>
<path d="M87.4843 57.7578H84.5449V60.6972H87.4843V57.7578Z" fill="#594A39"/>
<path d="M93.3632 57.7578H90.4238V60.6972H93.3632V57.7578Z" fill="#594A39"/>
<path d="M99.2421 57.7578H96.3027V60.6972H99.2421V57.7578Z" fill="#594A39"/>
<path d="M102.182 57.7578H99.2422V60.6972H102.182V57.7578Z" fill="#594A39"/>
<path d="M105.121 57.7578H102.182V60.6972H105.121V57.7578Z" fill="#594A39"/>
<path d="M111 57.7578H108.061V60.6972H111V57.7578Z" fill="#594A39"/>
<path d="M16.9394 60.6973H14V63.6367H16.9394V60.6973Z" fill="#594A39"/>
<path d="M34.5761 60.6973H31.6367V63.6367H34.5761V60.6973Z" fill="#594A39"/>
<path d="M43.3945 60.6973H40.4551V63.6367H43.3945V60.6973Z" fill="#594A39"/>
<path d="M49.2734 60.6973H46.334V63.6367H49.2734V60.6973Z" fill="#594A39"/>
<path d="M52.2128 60.6973H49.2734V63.6367H52.2128V60.6973Z" fill="#594A39"/>
<path d="M58.0917 60.6973H55.1523V63.6367H58.0917V60.6973Z" fill="#594A39"/>
<path d="M63.9706 60.6973H61.0312V63.6367H63.9706V60.6973Z" fill="#594A39"/>
<path d="M66.9081 60.6973H63.9688V63.6367H66.9081V60.6973Z" fill="#594A39"/>
<path d="M72.7871 60.6973H69.8477V63.6367H72.7871V60.6973Z" fill="#594A39"/>
<path d="M78.666 60.6973H75.7266V63.6367H78.666V60.6973Z" fill="#594A39"/>
<path d="M87.4843 60.6973H84.5449V63.6367H87.4843V60.6973Z" fill="#594A39"/>
<path d="M93.3632 60.6973H90.4238V63.6367H93.3632V60.6973Z" fill="#594A39"/>
<path d="M111 60.6973H108.061V63.6367H111V60.6973Z" fill="#594A39"/>
<path d="M16.9394 63.6367H14V66.5761H16.9394V63.6367Z" fill="#594A39"/>
<path d="M19.8788 63.6367H16.9395V66.5761H19.8788V63.6367Z" fill="#594A39"/>
<path d="M22.8183 63.6367H19.8789V66.5761H22.8183V63.6367Z" fill="#594A39"/>
<path d="M25.7578 63.6367H22.8184V66.5761H25.7578V63.6367Z" fill="#594A39"/>
<path d="M28.6972 63.6367H25.7578V66.5761H28.6972V63.6367Z" fill="#594A39"/>
<path d="M31.6367 63.6367H28.6973V66.5761H31.6367V63.6367Z" fill="#594A39"/>
<path d="M34.5761 63.6367H31.6367V66.5761H34.5761V63.6367Z" fill="#594A39"/>
<path d="M40.455 63.6367H37.5156V66.5761H40.455V63.6367Z" fill="#594A39"/>
<path d="M46.3339 63.6367H43.3945V66.5761H46.3339V63.6367Z" fill="#594A39"/>
<path d="M52.2128 63.6367H49.2734V66.5761H52.2128V63.6367Z" fill="#594A39"/>
<path d="M58.0917 63.6367H55.1523V66.5761H58.0917V63.6367Z" fill="#594A39"/>
<path d="M63.9706 63.6367H61.0312V66.5761H63.9706V63.6367Z" fill="#594A39"/>
<path d="M69.8476 63.6367H66.9082V66.5761H69.8476V63.6367Z" fill="#594A39"/>
<path d="M75.7265 63.6367H72.7871V66.5761H75.7265V63.6367Z" fill="#594A39"/>
<path d="M81.6054 63.6367H78.666V66.5761H81.6054V63.6367Z" fill="#594A39"/>
<path d="M87.4843 63.6367H84.5449V66.5761H87.4843V63.6367Z" fill="#594A39"/>
<path d="M93.3632 63.6367H90.4238V66.5761H93.3632V63.6367Z" fill="#594A39"/>
<path d="M96.3027 63.6367H93.3633V66.5761H96.3027V63.6367Z" fill="#594A39"/>
<path d="M99.2421 63.6367H96.3027V66.5761H99.2421V63.6367Z" fill="#594A39"/>
<path d="M102.182 63.6367H99.2422V66.5761H102.182V63.6367Z" fill="#594A39"/>
<path d="M105.121 63.6367H102.182V66.5761H105.121V63.6367Z" fill="#594A39"/>
<path d="M108.06 63.6367H105.121V66.5761H108.06V63.6367Z" fill="#594A39"/>
<path d="M111 63.6367H108.061V66.5761H111V63.6367Z" fill="#594A39"/>
<path d="M40.455 66.5762H37.5156V69.5156H40.455V66.5762Z" fill="#594A39"/>
<path d="M49.2734 66.5762H46.334V69.5156H49.2734V66.5762Z" fill="#594A39"/>
<path d="M52.2128 66.5762H49.2734V69.5156H52.2128V66.5762Z" fill="#594A39"/>
<path d="M61.0312 66.5762H58.0918V69.5156H61.0312V66.5762Z" fill="#594A39"/>
<path d="M63.9706 66.5762H61.0312V69.5156H63.9706V66.5762Z" fill="#594A39"/>
<path d="M66.9081 66.5762H63.9688V69.5156H66.9081V66.5762Z" fill="#594A39"/>
<path d="M69.8476 66.5762H66.9082V69.5156H69.8476V66.5762Z" fill="#594A39"/>
<path d="M72.7871 66.5762H69.8477V69.5156H72.7871V66.5762Z" fill="#594A39"/>
<path d="M87.4843 66.5762H84.5449V69.5156H87.4843V66.5762Z" fill="#594A39"/>
<path d="M16.9394 69.5156H14V72.455H16.9394V69.5156Z" fill="#594A39"/>
<path d="M22.8183 69.5156H19.8789V72.455H22.8183V69.5156Z" fill="#594A39"/>
<path d="M25.7578 69.5156H22.8184V72.455H25.7578V69.5156Z" fill="#594A39"/>
<path d="M31.6367 69.5156H28.6973V72.455H31.6367V69.5156Z" fill="#594A39"/>
<path d="M34.5761 69.5156H31.6367V72.455H34.5761V69.5156Z" fill="#594A39"/>
<path d="M37.5156 69.5156H34.5762V72.455H37.5156V69.5156Z" fill="#594A39"/>
<path d="M43.3945 69.5156H40.4551V72.455H43.3945V69.5156Z" fill="#594A39"/>
<path d="M52.2128 69.5156H49.2734V72.455H52.2128V69.5156Z" fill="#594A39"/>
<path d="M58.0917 69.5156H55.1523V72.455H58.0917V69.5156Z" fill="#594A39"/>
<path d="M66.9081 69.5156H63.9688V72.455H66.9081V69.5156Z" fill="#594A39"/>
<path d="M72.7871 69.5156H69.8477V72.455H72.7871V69.5156Z" fill="#594A39"/>
<path d="M78.666 69.5156H75.7266V72.455H78.666V69.5156Z" fill="#594A39"/>
<path d="M84.5449 69.5156H81.6055V72.455H84.5449V69.5156Z" fill="#594A39"/>
<path d="M93.3632 69.5156H90.4238V72.455H93.3632V69.5156Z" fill="#594A39"/>
<path d="M102.182 69.5156H99.2422V72.455H102.182V69.5156Z" fill="#594A39"/>
<path d="M108.06 69.5156H105.121V72.455H108.06V69.5156Z" fill="#594A39"/>
<path d="M111 69.5156H108.061V72.455H111V69.5156Z" fill="#594A39"/>
<path d="M22.8183 72.4541H19.8789V75.3935H22.8183V72.4541Z" fill="#594A39"/>
<path d="M25.7578 72.4541H22.8184V75.3935H25.7578V72.4541Z" fill="#594A39"/>
<path d="M31.6367 72.4541H28.6973V75.3935H31.6367V72.4541Z" fill="#594A39"/>
<path d="M43.3945 72.4541H40.4551V75.3935H43.3945V72.4541Z" fill="#594A39"/>
<path d="M46.3339 72.4541H43.3945V75.3935H46.3339V72.4541Z" fill="#594A39"/>
<path d="M49.2734 72.4541H46.334V75.3935H49.2734V72.4541Z" fill="#594A39"/>
<path d="M58.0917 72.4541H55.1523V75.3935H58.0917V72.4541Z" fill="#594A39"/>
<path d="M63.9706 72.4541H61.0312V75.3935H63.9706V72.4541Z" fill="#594A39"/>
<path d="M69.8476 72.4541H66.9082V75.3935H69.8476V72.4541Z" fill="#594A39"/>
<path d="M72.7871 72.4541H69.8477V75.3935H72.7871V72.4541Z" fill="#594A39"/>
<path d="M75.7265 72.4541H72.7871V75.3935H75.7265V72.4541Z" fill="#594A39"/>
<path d="M78.666 72.4541H75.7266V75.3935H78.666V72.4541Z" fill="#594A39"/>
<path d="M84.5449 72.4541H81.6055V75.3935H84.5449V72.4541Z" fill="#594A39"/>
<path d="M87.4843 72.4541H84.5449V75.3935H87.4843V72.4541Z" fill="#594A39"/>
<path d="M93.3632 72.4541H90.4238V75.3935H93.3632V72.4541Z" fill="#594A39"/>
<path d="M96.3027 72.4541H93.3633V75.3935H96.3027V72.4541Z" fill="#594A39"/>
<path d="M102.182 72.4541H99.2422V75.3935H102.182V72.4541Z" fill="#594A39"/>
<path d="M105.121 72.4541H102.182V75.3935H105.121V72.4541Z" fill="#594A39"/>
<path d="M111 72.4541H108.061V75.3935H111V72.4541Z" fill="#594A39"/>
<path d="M16.9394 75.3936H14V78.3329H16.9394V75.3936Z" fill="#594A39"/>
<path d="M19.8788 75.3936H16.9395V78.3329H19.8788V75.3936Z" fill="#594A39"/>
<path d="M28.6972 75.3936H25.7578V78.3329H28.6972V75.3936Z" fill="#594A39"/>
<path d="M34.5761 75.3936H31.6367V78.3329H34.5761V75.3936Z" fill="#594A39"/>
<path d="M37.5156 75.3936H34.5762V78.3329H37.5156V75.3936Z" fill="#594A39"/>
<path d="M40.455 75.3936H37.5156V78.3329H40.455V75.3936Z" fill="#594A39"/>
<path d="M58.0917 75.3936H55.1523V78.3329H58.0917V75.3936Z" fill="#594A39"/>
<path d="M66.9081 75.3936H63.9688V78.3329H66.9081V75.3936Z" fill="#594A39"/>
<path d="M78.666 75.3936H75.7266V78.3329H78.666V75.3936Z" fill="#594A39"/>
<path d="M81.6054 75.3936H78.666V78.3329H81.6054V75.3936Z" fill="#594A39"/>
<path d="M84.5449 75.3936H81.6055V78.3329H84.5449V75.3936Z" fill="#594A39"/>
<path d="M93.3632 75.3936H90.4238V78.3329H93.3632V75.3936Z" fill="#594A39"/>
<path d="M96.3027 75.3936H93.3633V78.3329H96.3027V75.3936Z" fill="#594A39"/>
<path d="M99.2421 75.3936H96.3027V78.3329H99.2421V75.3936Z" fill="#594A39"/>
<path d="M102.182 75.3936H99.2422V78.3329H102.182V75.3936Z" fill="#594A39"/>
<path d="M108.06 75.3936H105.121V78.3329H108.06V75.3936Z" fill="#594A39"/>
<path d="M111 75.3936H108.061V78.3329H111V75.3936Z" fill="#594A39"/>
<path d="M16.9394 78.333H14V81.2724H16.9394V78.333Z" fill="#594A39"/>
<path d="M19.8788 78.333H16.9395V81.2724H19.8788V78.333Z" fill="#594A39"/>
<path d="M43.3945 78.333H40.4551V81.2724H43.3945V78.333Z" fill="#594A39"/>
<path d="M46.3339 78.333H43.3945V81.2724H46.3339V78.333Z" fill="#594A39"/>
<path d="M55.1523 78.333H52.2129V81.2724H55.1523V78.333Z" fill="#594A39"/>
<path d="M58.0917 78.333H55.1523V81.2724H58.0917V78.333Z" fill="#594A39"/>
<path d="M72.7871 78.333H69.8477V81.2724H72.7871V78.333Z" fill="#594A39"/>
<path d="M87.4843 78.333H84.5449V81.2724H87.4843V78.333Z" fill="#594A39"/>
<path d="M90.4238 78.333H87.4844V81.2724H90.4238V78.333Z" fill="#594A39"/>
<path d="M93.3632 78.333H90.4238V81.2724H93.3632V78.333Z" fill="#594A39"/>
<path d="M96.3027 78.333H93.3633V81.2724H96.3027V78.333Z" fill="#594A39"/>
<path d="M102.182 78.333H99.2422V81.2724H102.182V78.333Z" fill="#594A39"/>
<path d="M108.06 78.333H105.121V81.2724H108.06V78.333Z" fill="#594A39"/>
<path d="M19.8788 81.2725H16.9395V84.2119H19.8788V81.2725Z" fill="#594A39"/>
<path d="M22.8183 81.2725H19.8789V84.2119H22.8183V81.2725Z" fill="#594A39"/>
<path d="M28.6972 81.2725H25.7578V84.2119H28.6972V81.2725Z" fill="#594A39"/>
<path d="M34.5761 81.2725H31.6367V84.2119H34.5761V81.2725Z" fill="#594A39"/>
<path d="M37.5156 81.2725H34.5762V84.2119H37.5156V81.2725Z" fill="#594A39"/>
<path d="M43.3945 81.2725H40.4551V84.2119H43.3945V81.2725Z" fill="#594A39"/>
<path d="M61.0312 81.2725H58.0918V84.2119H61.0312V81.2725Z" fill="#594A39"/>
<path d="M63.9706 81.2725H61.0312V84.2119H63.9706V81.2725Z" fill="#594A39"/>
<path d="M66.9081 81.2725H63.9688V84.2119H66.9081V81.2725Z" fill="#594A39"/>
<path d="M69.8476 81.2725H66.9082V84.2119H69.8476V81.2725Z" fill="#594A39"/>
<path d="M75.7265 81.2725H72.7871V84.2119H75.7265V81.2725Z" fill="#594A39"/>
<path d="M90.4238 81.2725H87.4844V84.2119H90.4238V81.2725Z" fill="#594A39"/>
<path d="M99.2421 81.2725H96.3027V84.2119H99.2421V81.2725Z" fill="#594A39"/>
<path d="M102.182 81.2725H99.2422V84.2119H102.182V81.2725Z" fill="#594A39"/>
<path d="M108.06 81.2725H105.121V84.2119H108.06V81.2725Z" fill="#594A39"/>
<path d="M22.8183 84.2119H19.8789V87.1513H22.8183V84.2119Z" fill="#594A39"/>
<path d="M40.455 84.2119H37.5156V87.1513H40.455V84.2119Z" fill="#594A39"/>
<path d="M43.3945 84.2119H40.4551V87.1513H43.3945V84.2119Z" fill="#594A39"/>
<path d="M55.1523 84.2119H52.2129V87.1513H55.1523V84.2119Z" fill="#594A39"/>
<path d="M61.0312 84.2119H58.0918V87.1513H61.0312V84.2119Z" fill="#594A39"/>
<path d="M69.8476 84.2119H66.9082V87.1513H69.8476V84.2119Z" fill="#594A39"/>
<path d="M72.7871 84.2119H69.8477V87.1513H72.7871V84.2119Z" fill="#594A39"/>
<path d="M75.7265 84.2119H72.7871V87.1513H75.7265V84.2119Z" fill="#594A39"/>
<path d="M78.666 84.2119H75.7266V87.1513H78.666V84.2119Z" fill="#594A39"/>
<path d="M84.5449 84.2119H81.6055V87.1513H84.5449V84.2119Z" fill="#594A39"/>
<path d="M87.4843 84.2119H84.5449V87.1513H87.4843V84.2119Z" fill="#594A39"/>
<path d="M96.3027 84.2119H93.3633V87.1513H96.3027V84.2119Z" fill="#594A39"/>
<path d="M108.06 84.2119H105.121V87.1513H108.06V84.2119Z" fill="#594A39"/>
<path d="M16.9394 87.1514H14V90.0908H16.9394V87.1514Z" fill="#594A39"/>
<path d="M22.8183 87.1514H19.8789V90.0908H22.8183V87.1514Z" fill="#594A39"/>
<path d="M25.7578 87.1514H22.8184V90.0908H25.7578V87.1514Z" fill="#594A39"/>
<path d="M34.5761 87.1514H31.6367V90.0908H34.5761V87.1514Z" fill="#594A39"/>
<path d="M43.3945 87.1514H40.4551V90.0908H43.3945V87.1514Z" fill="#594A39"/>
<path d="M46.3339 87.1514H43.3945V90.0908H46.3339V87.1514Z" fill="#594A39"/>
<path d="M52.2128 87.1514H49.2734V90.0908H52.2128V87.1514Z" fill="#594A39"/>
<path d="M55.1523 87.1514H52.2129V90.0908H55.1523V87.1514Z" fill="#594A39"/>
<path d="M63.9706 87.1514H61.0312V90.0908H63.9706V87.1514Z" fill="#594A39"/>
<path d="M66.9081 87.1514H63.9688V90.0908H66.9081V87.1514Z" fill="#594A39"/>
<path d="M69.8476 87.1514H66.9082V90.0908H69.8476V87.1514Z" fill="#594A39"/>
<path d="M72.7871 87.1514H69.8477V90.0908H72.7871V87.1514Z" fill="#594A39"/>
<path d="M75.7265 87.1514H72.7871V90.0908H75.7265V87.1514Z" fill="#594A39"/>
<path d="M81.6054 87.1514H78.666V90.0908H81.6054V87.1514Z" fill="#594A39"/>
<path d="M93.3632 87.1514H90.4238V90.0908H93.3632V87.1514Z" fill="#594A39"/>
<path d="M96.3027 87.1514H93.3633V90.0908H96.3027V87.1514Z" fill="#594A39"/>
<path d="M99.2421 87.1514H96.3027V90.0908H99.2421V87.1514Z" fill="#594A39"/>
<path d="M102.182 87.1514H99.2422V90.0908H102.182V87.1514Z" fill="#594A39"/>
<path d="M16.9394 90.0908H14V93.0302H16.9394V90.0908Z" fill="#594A39"/>
<path d="M19.8788 90.0908H16.9395V93.0302H19.8788V90.0908Z" fill="#594A39"/>
<path d="M25.7578 90.0908H22.8184V93.0302H25.7578V90.0908Z" fill="#594A39"/>
<path d="M28.6972 90.0908H25.7578V93.0302H28.6972V90.0908Z" fill="#594A39"/>
<path d="M37.5156 90.0908H34.5762V93.0302H37.5156V90.0908Z" fill="#594A39"/>
<path d="M49.2734 90.0908H46.334V93.0302H49.2734V90.0908Z" fill="#594A39"/>
<path d="M52.2128 90.0908H49.2734V93.0302H52.2128V90.0908Z" fill="#594A39"/>
<path d="M55.1523 90.0908H52.2129V93.0302H55.1523V90.0908Z" fill="#594A39"/>
<path d="M58.0917 90.0908H55.1523V93.0302H58.0917V90.0908Z" fill="#594A39"/>
<path d="M61.0312 90.0908H58.0918V93.0302H61.0312V90.0908Z" fill="#594A39"/>
<path d="M69.8476 90.0908H66.9082V93.0302H69.8476V90.0908Z" fill="#594A39"/>
<path d="M75.7265 90.0908H72.7871V93.0302H75.7265V90.0908Z" fill="#594A39"/>
<path d="M78.666 90.0908H75.7266V93.0302H78.666V90.0908Z" fill="#594A39"/>
<path d="M81.6054 90.0908H78.666V93.0302H81.6054V90.0908Z" fill="#594A39"/>
<path d="M87.4843 90.0908H84.5449V93.0302H87.4843V90.0908Z" fill="#594A39"/>
<path d="M90.4238 90.0908H87.4844V93.0302H90.4238V90.0908Z" fill="#594A39"/>
<path d="M93.3632 90.0908H90.4238V93.0302H93.3632V90.0908Z" fill="#594A39"/>
<path d="M96.3027 90.0908H93.3633V93.0302H96.3027V90.0908Z" fill="#594A39"/>
<path d="M102.182 90.0908H99.2422V93.0302H102.182V90.0908Z" fill="#594A39"/>
<path d="M105.121 90.0908H102.182V93.0302H105.121V90.0908Z" fill="#594A39"/>
<path d="M16.9394 93.0303H14V95.9697H16.9394V93.0303Z" fill="#594A39"/>
<path d="M22.8183 93.0303H19.8789V95.9697H22.8183V93.0303Z" fill="#594A39"/>
<path d="M25.7578 93.0303H22.8184V95.9697H25.7578V93.0303Z" fill="#594A39"/>
<path d="M28.6972 93.0303H25.7578V95.9697H28.6972V93.0303Z" fill="#594A39"/>
<path d="M31.6367 93.0303H28.6973V95.9697H31.6367V93.0303Z" fill="#594A39"/>
<path d="M34.5761 93.0303H31.6367V95.9697H34.5761V93.0303Z" fill="#594A39"/>
<path d="M37.5156 93.0303H34.5762V95.9697H37.5156V93.0303Z" fill="#594A39"/>
<path d="M40.455 93.0303H37.5156V95.9697H40.455V93.0303Z" fill="#594A39"/>
<path d="M49.2734 93.0303H46.334V95.9697H49.2734V93.0303Z" fill="#594A39"/>
<path d="M52.2128 93.0303H49.2734V95.9697H52.2128V93.0303Z" fill="#594A39"/>
<path d="M55.1523 93.0303H52.2129V95.9697H55.1523V93.0303Z" fill="#594A39"/>
<path d="M61.0312 93.0303H58.0918V95.9697H61.0312V93.0303Z" fill="#594A39"/>
<path d="M63.9706 93.0303H61.0312V95.9697H63.9706V93.0303Z" fill="#594A39"/>
<path d="M69.8476 93.0303H66.9082V95.9697H69.8476V93.0303Z" fill="#594A39"/>
<path d="M75.7265 93.0303H72.7871V95.9697H75.7265V93.0303Z" fill="#594A39"/>
<path d="M78.666 93.0303H75.7266V95.9697H78.666V93.0303Z" fill="#594A39"/>
<path d="M81.6054 93.0303H78.666V95.9697H81.6054V93.0303Z" fill="#594A39"/>
<path d="M90.4238 93.0303H87.4844V95.9697H90.4238V93.0303Z" fill="#594A39"/>
<path d="M93.3632 93.0303H90.4238V95.9697H93.3632V93.0303Z" fill="#594A39"/>
<path d="M99.2421 93.0303H96.3027V95.9697H99.2421V93.0303Z" fill="#594A39"/>
<path d="M105.121 93.0303H102.182V95.9697H105.121V93.0303Z" fill="#594A39"/>
<path d="M25.7578 95.9697H22.8184V98.9091H25.7578V95.9697Z" fill="#594A39"/>
<path d="M28.6972 95.9697H25.7578V98.9091H28.6972V95.9697Z" fill="#594A39"/>
<path d="M31.6367 95.9697H28.6973V98.9091H31.6367V95.9697Z" fill="#594A39"/>
<path d="M37.5156 95.9697H34.5762V98.9091H37.5156V95.9697Z" fill="#594A39"/>
<path d="M43.3945 95.9697H40.4551V98.9091H43.3945V95.9697Z" fill="#594A39"/>
<path d="M46.3339 95.9697H43.3945V98.9091H46.3339V95.9697Z" fill="#594A39"/>
<path d="M52.2128 95.9697H49.2734V98.9091H52.2128V95.9697Z" fill="#594A39"/>
<path d="M61.0312 95.9697H58.0918V98.9091H61.0312V95.9697Z" fill="#594A39"/>
<path d="M75.7265 95.9697H72.7871V98.9091H75.7265V95.9697Z" fill="#594A39"/>
<path d="M78.666 95.9697H75.7266V98.9091H78.666V95.9697Z" fill="#594A39"/>
<path d="M84.5449 95.9697H81.6055V98.9091H84.5449V95.9697Z" fill="#594A39"/>
<path d="M87.4843 95.9697H84.5449V98.9091H87.4843V95.9697Z" fill="#594A39"/>
<path d="M90.4238 95.9697H87.4844V98.9091H90.4238V95.9697Z" fill="#594A39"/>
<path d="M93.3632 95.9697H90.4238V98.9091H93.3632V95.9697Z" fill="#594A39"/>
<path d="M99.2421 95.9697H96.3027V98.9091H99.2421V95.9697Z" fill="#594A39"/>
<path d="M102.182 95.9697H99.2422V98.9091H102.182V95.9697Z" fill="#594A39"/>
<path d="M111 95.9697H108.061V98.9091H111V95.9697Z" fill="#594A39"/>
<path d="M19.8788 98.9092H16.9395V101.849H19.8788V98.9092Z" fill="#594A39"/>
<path d="M34.5761 98.9092H31.6367V101.849H34.5761V98.9092Z" fill="#594A39"/>
<path d="M40.455 98.9092H37.5156V101.849H40.455V98.9092Z" fill="#594A39"/>
<path d="M46.3339 98.9092H43.3945V101.849H46.3339V98.9092Z" fill="#594A39"/>
<path d="M49.2734 98.9092H46.334V101.849H49.2734V98.9092Z" fill="#594A39"/>
<path d="M58.0917 98.9092H55.1523V101.849H58.0917V98.9092Z" fill="#594A39"/>
<path d="M61.0312 98.9092H58.0918V101.849H61.0312V98.9092Z" fill="#594A39"/>
<path d="M66.9081 98.9092H63.9688V101.849H66.9081V98.9092Z" fill="#594A39"/>
<path d="M81.6054 98.9092H78.666V101.849H81.6054V98.9092Z" fill="#594A39"/>
<path d="M87.4843 98.9092H84.5449V101.849H87.4843V98.9092Z" fill="#594A39"/>
<path d="M90.4238 98.9092H87.4844V101.849H90.4238V98.9092Z" fill="#594A39"/>
<path d="M96.3027 98.9092H93.3633V101.849H96.3027V98.9092Z" fill="#594A39"/>
<path d="M99.2421 98.9092H96.3027V101.849H99.2421V98.9092Z" fill="#594A39"/>
<path d="M105.121 98.9092H102.182V101.849H105.121V98.9092Z" fill="#594A39"/>
<path d="M108.06 98.9092H105.121V101.849H108.06V98.9092Z" fill="#594A39"/>
<path d="M37.5156 101.849H34.5762V104.788H37.5156V101.849Z" fill="#594A39"/>
<path d="M43.3945 101.849H40.4551V104.788H43.3945V101.849Z" fill="#594A39"/>
<path d="M58.0917 101.849H55.1523V104.788H58.0917V101.849Z" fill="#594A39"/>
<path d="M61.0312 101.849H58.0918V104.788H61.0312V101.849Z" fill="#594A39"/>
<path d="M63.9706 101.849H61.0312V104.788H63.9706V101.849Z" fill="#594A39"/>
<path d="M66.9081 101.849H63.9688V104.788H66.9081V101.849Z" fill="#594A39"/>
<path d="M72.7871 101.849H69.8477V104.788H72.7871V101.849Z" fill="#594A39"/>
<path d="M75.7265 101.849H72.7871V104.788H75.7265V101.849Z" fill="#594A39"/>
<path d="M81.6054 101.849H78.666V104.788H81.6054V101.849Z" fill="#594A39"/>
<path d="M93.3632 101.849H90.4238V104.788H93.3632V101.849Z" fill="#594A39"/>
<path d="M99.2421 101.849H96.3027V104.788H99.2421V101.849Z" fill="#594A39"/>
<path d="M108.06 101.849H105.121V104.788H108.06V101.849Z" fill="#594A39"/>
<path d="M111 101.849H108.061V104.788H111V101.849Z" fill="#594A39"/>
<path d="M16.9394 104.788H14V107.727H16.9394V104.788Z" fill="#594A39"/>
<path d="M19.8788 104.788H16.9395V107.727H19.8788V104.788Z" fill="#594A39"/>
<path d="M22.8183 104.788H19.8789V107.727H22.8183V104.788Z" fill="#594A39"/>
<path d="M25.7578 104.788H22.8184V107.727H25.7578V104.788Z" fill="#594A39"/>
<path d="M34.5761 104.788H31.6367V107.727H34.5761V104.788Z" fill="#594A39"/>
<path d="M37.5156 104.788H34.5762V107.727H37.5156V104.788Z" fill="#594A39"/>
<path d="M40.455 104.788H37.5156V107.727H40.455V104.788Z" fill="#594A39"/>
<path d="M46.3339 104.788H43.3945V107.727H46.3339V104.788Z" fill="#594A39"/>
<path d="M49.2734 104.788H46.334V107.727H49.2734V104.788Z" fill="#594A39"/>
<path d="M61.0312 104.788H58.0918V107.727H61.0312V104.788Z" fill="#594A39"/>
<path d="M66.9081 104.788H63.9688V107.727H66.9081V104.788Z" fill="#594A39"/>
<path d="M72.7871 104.788H69.8477V107.727H72.7871V104.788Z" fill="#594A39"/>
<path d="M75.7265 104.788H72.7871V107.727H75.7265V104.788Z" fill="#594A39"/>
<path d="M78.666 104.788H75.7266V107.727H78.666V104.788Z" fill="#594A39"/>
<path d="M81.6054 104.788H78.666V107.727H81.6054V104.788Z" fill="#594A39"/>
<path d="M90.4238 104.788H87.4844V107.727H90.4238V104.788Z" fill="#594A39"/>
<path d="M102.182 104.788H99.2422V107.727H102.182V104.788Z" fill="#594A39"/>
<path d="M105.121 104.788H102.182V107.727H105.121V104.788Z" fill="#594A39"/>
<path d="M108.06 104.788H105.121V107.727H108.06V104.788Z" fill="#594A39"/>
<path d="M111 104.788H108.061V107.727H111V104.788Z" fill="#594A39"/>
<path d="M31.6367 107.728H28.6973V110.667H31.6367V107.728Z" fill="#594A39"/>
<path d="M40.455 107.728H37.5156V110.667H40.455V107.728Z" fill="#594A39"/>
<path d="M43.3945 107.728H40.4551V110.667H43.3945V107.728Z" fill="#594A39"/>
<path d="M55.1523 107.728H52.2129V110.667H55.1523V107.728Z" fill="#594A39"/>
<path d="M72.7871 107.728H69.8477V110.667H72.7871V107.728Z" fill="#594A39"/>
<path d="M78.666 107.728H75.7266V110.667H78.666V107.728Z" fill="#594A39"/>
<path d="M81.6054 107.728H78.666V110.667H81.6054V107.728Z" fill="#594A39"/>
<path d="M84.5449 107.728H81.6055V110.667H84.5449V107.728Z" fill="#594A39"/>
<path d="M93.3632 107.728H90.4238V110.667H93.3632V107.728Z" fill="#594A39"/>
<path d="M105.121 107.728H102.182V110.667H105.121V107.728Z" fill="#594A39"/>
<path d="M111 107.728H108.061V110.667H111V107.728Z" fill="#594A39"/>
<path d="M16.9394 110.667H14V113.606H16.9394V110.667Z" fill="#594A39"/>
<path d="M19.8788 110.667H16.9395V113.606H19.8788V110.667Z" fill="#594A39"/>
<path d="M22.8183 110.667H19.8789V113.606H22.8183V110.667Z" fill="#594A39"/>
<path d="M25.7578 110.667H22.8184V113.606H25.7578V110.667Z" fill="#594A39"/>
<path d="M31.6367 110.667H28.6973V113.606H31.6367V110.667Z" fill="#594A39"/>
<path d="M34.5761 110.667H31.6367V113.606H34.5761V110.667Z" fill="#594A39"/>
<path d="M37.5156 110.667H34.5762V113.606H37.5156V110.667Z" fill="#594A39"/>
<path d="M40.455 110.667H37.5156V113.606H40.455V110.667Z" fill="#594A39"/>
<path d="M46.3339 110.667H43.3945V113.606H46.3339V110.667Z" fill="#594A39"/>
<path d="M55.1523 110.667H52.2129V113.606H55.1523V110.667Z" fill="#594A39"/>
<path d="M75.7265 110.667H72.7871V113.606H75.7265V110.667Z" fill="#594A39"/>
<path d="M78.666 110.667H75.7266V113.606H78.666V110.667Z" fill="#594A39"/>
<path d="M84.5449 110.667H81.6055V113.606H84.5449V110.667Z" fill="#594A39"/>
<path d="M93.3632 110.667H90.4238V113.606H93.3632V110.667Z" fill="#594A39"/>
<path d="M96.3027 110.667H93.3633V113.606H96.3027V110.667Z" fill="#594A39"/>
<path d="M99.2421 110.667H96.3027V113.606H99.2421V110.667Z" fill="#594A39"/>
<path d="M105.121 110.667H102.182V113.606H105.121V110.667Z" fill="#594A39"/>
<path d="M108.06 110.667H105.121V113.606H108.06V110.667Z" fill="#594A39"/>
<path d="M111 110.667H108.061V113.606H111V110.667Z" fill="#594A39"/>
<path d="M16.9394 113.606H14V116.546H16.9394V113.606Z" fill="#594A39"/>
<path d="M25.7578 113.606H22.8184V116.546H25.7578V113.606Z" fill="#594A39"/>
<path d="M28.6972 113.606H25.7578V116.546H28.6972V113.606Z" fill="#594A39"/>
<path d="M37.5156 113.606H34.5762V116.546H37.5156V113.606Z" fill="#594A39"/>
<path d="M40.455 113.606H37.5156V116.546H40.455V113.606Z" fill="#594A39"/>
<path d="M43.3945 113.606H40.4551V116.546H43.3945V113.606Z" fill="#594A39"/>
<path d="M49.2734 113.606H46.334V116.546H49.2734V113.606Z" fill="#594A39"/>
<path d="M52.2128 113.606H49.2734V116.546H52.2128V113.606Z" fill="#594A39"/>
<path d="M58.0917 113.606H55.1523V116.546H58.0917V113.606Z" fill="#594A39"/>
<path d="M63.9706 113.606H61.0312V116.546H63.9706V113.606Z" fill="#594A39"/>
<path d="M69.8476 113.606H66.9082V116.546H69.8476V113.606Z" fill="#594A39"/>
<path d="M75.7265 113.606H72.7871V116.546H75.7265V113.606Z" fill="#594A39"/>
<path d="M81.6054 113.606H78.666V116.546H81.6054V113.606Z" fill="#594A39"/>
<path d="M84.5449 113.606H81.6055V116.546H84.5449V113.606Z" fill="#594A39"/>
<path d="M93.3632 113.606H90.4238V116.546H93.3632V113.606Z" fill="#594A39"/>
<path d="M99.2421 113.606H96.3027V116.546H99.2421V113.606Z" fill="#594A39"/>
<path d="M108.06 113.606H105.121V116.546H108.06V113.606Z" fill="#594A39"/>
<path d="M19.8788 116.546H16.9395V119.485H19.8788V116.546Z" fill="#594A39"/>
<path d="M22.8183 116.546H19.8789V119.485H22.8183V116.546Z" fill="#594A39"/>
<path d="M25.7578 116.546H22.8184V119.485H25.7578V116.546Z" fill="#594A39"/>
<path d="M28.6972 116.546H25.7578V119.485H28.6972V116.546Z" fill="#594A39"/>
<path d="M34.5761 116.546H31.6367V119.485H34.5761V116.546Z" fill="#594A39"/>
<path d="M37.5156 116.546H34.5762V119.485H37.5156V116.546Z" fill="#594A39"/>
<path d="M43.3945 116.546H40.4551V119.485H43.3945V116.546Z" fill="#594A39"/>
<path d="M46.3339 116.546H43.3945V119.485H46.3339V116.546Z" fill="#594A39"/>
<path d="M49.2734 116.546H46.334V119.485H49.2734V116.546Z" fill="#594A39"/>
<path d="M58.0917 116.546H55.1523V119.485H58.0917V116.546Z" fill="#594A39"/>
<path d="M66.9081 116.546H63.9688V119.485H66.9081V116.546Z" fill="#594A39"/>
<path d="M81.6054 116.546H78.666V119.485H81.6054V116.546Z" fill="#594A39"/>
<path d="M84.5449 116.546H81.6055V119.485H84.5449V116.546Z" fill="#594A39"/>
<path d="M87.4843 116.546H84.5449V119.485H87.4843V116.546Z" fill="#594A39"/>
<path d="M90.4238 116.546H87.4844V119.485H90.4238V116.546Z" fill="#594A39"/>
<path d="M93.3632 116.546H90.4238V119.485H93.3632V116.546Z" fill="#594A39"/>
<path d="M96.3027 116.546H93.3633V119.485H96.3027V116.546Z" fill="#594A39"/>
<path d="M99.2421 116.546H96.3027V119.485H99.2421V116.546Z" fill="#594A39"/>
<path d="M108.06 116.546H105.121V119.485H108.06V116.546Z" fill="#594A39"/>
<path d="M111 116.546H108.061V119.485H111V116.546Z" fill="#594A39"/>
<path d="M40.455 119.484H37.5156V122.424H40.455V119.484Z" fill="#594A39"/>
<path d="M46.3339 119.484H43.3945V122.424H46.3339V119.484Z" fill="#594A39"/>
<path d="M52.2128 119.484H49.2734V122.424H52.2128V119.484Z" fill="#594A39"/>
<path d="M55.1523 119.484H52.2129V122.424H55.1523V119.484Z" fill="#594A39"/>
<path d="M61.0312 119.484H58.0918V122.424H61.0312V119.484Z" fill="#594A39"/>
<path d="M72.7871 119.484H69.8477V122.424H72.7871V119.484Z" fill="#594A39"/>
<path d="M81.6054 119.484H78.666V122.424H81.6054V119.484Z" fill="#594A39"/>
<path d="M87.4843 119.484H84.5449V122.424H87.4843V119.484Z" fill="#594A39"/>
<path d="M99.2421 119.484H96.3027V122.424H99.2421V119.484Z" fill="#594A39"/>
<path d="M102.182 119.484H99.2422V122.424H102.182V119.484Z" fill="#594A39"/>
<path d="M16.9394 122.424H14V125.363H16.9394V122.424Z" fill="#594A39"/>
<path d="M19.8788 122.424H16.9395V125.363H19.8788V122.424Z" fill="#594A39"/>
<path d="M22.8183 122.424H19.8789V125.363H22.8183V122.424Z" fill="#594A39"/>
<path d="M25.7578 122.424H22.8184V125.363H25.7578V122.424Z" fill="#594A39"/>
<path d="M28.6972 122.424H25.7578V125.363H28.6972V122.424Z" fill="#594A39"/>
<path d="M31.6367 122.424H28.6973V125.363H31.6367V122.424Z" fill="#594A39"/>
<path d="M34.5761 122.424H31.6367V125.363H34.5761V122.424Z" fill="#594A39"/>
<path d="M40.455 122.424H37.5156V125.363H40.455V122.424Z" fill="#594A39"/>
<path d="M43.3945 122.424H40.4551V125.363H43.3945V122.424Z" fill="#594A39"/>
<path d="M52.2128 122.424H49.2734V125.363H52.2128V122.424Z" fill="#594A39"/>
<path d="M55.1523 122.424H52.2129V125.363H55.1523V122.424Z" fill="#594A39"/>
<path d="M58.0917 122.424H55.1523V125.363H58.0917V122.424Z" fill="#594A39"/>
<path d="M72.7871 122.424H69.8477V125.363H72.7871V122.424Z" fill="#594A39"/>
<path d="M81.6054 122.424H78.666V125.363H81.6054V122.424Z" fill="#594A39"/>
<path d="M84.5449 122.424H81.6055V125.363H84.5449V122.424Z" fill="#594A39"/>
<path d="M87.4843 122.424H84.5449V125.363H87.4843V122.424Z" fill="#594A39"/>
<path d="M93.3632 122.424H90.4238V125.363H93.3632V122.424Z" fill="#594A39"/>
<path d="M99.2421 122.424H96.3027V125.363H99.2421V122.424Z" fill="#594A39"/>
<path d="M16.9394 125.363H14V128.303H16.9394V125.363Z" fill="#594A39"/>
<path d="M34.5761 125.363H31.6367V128.303H34.5761V125.363Z" fill="#594A39"/>
<path d="M40.455 125.363H37.5156V128.303H40.455V125.363Z" fill="#594A39"/>
<path d="M43.3945 125.363H40.4551V128.303H43.3945V125.363Z" fill="#594A39"/>
<path d="M52.2128 125.363H49.2734V128.303H52.2128V125.363Z" fill="#594A39"/>
<path d="M61.0312 125.363H58.0918V128.303H61.0312V125.363Z" fill="#594A39"/>
<path d="M63.9706 125.363H61.0312V128.303H63.9706V125.363Z" fill="#594A39"/>
<path d="M69.8476 125.363H66.9082V128.303H69.8476V125.363Z" fill="#594A39"/>
<path d="M75.7265 125.363H72.7871V128.303H75.7265V125.363Z" fill="#594A39"/>
<path d="M78.666 125.363H75.7266V128.303H78.666V125.363Z" fill="#594A39"/>
<path d="M81.6054 125.363H78.666V128.303H81.6054V125.363Z" fill="#594A39"/>
<path d="M84.5449 125.363H81.6055V128.303H84.5449V125.363Z" fill="#594A39"/>
<path d="M87.4843 125.363H84.5449V128.303H87.4843V125.363Z" fill="#594A39"/>
<path d="M99.2421 125.363H96.3027V128.303H99.2421V125.363Z" fill="#594A39"/>
<path d="M102.182 125.363H99.2422V128.303H102.182V125.363Z" fill="#594A39"/>
<path d="M105.121 125.363H102.182V128.303H105.121V125.363Z" fill="#594A39"/>
<path d="M108.06 125.363H105.121V128.303H108.06V125.363Z" fill="#594A39"/>
<path d="M111 125.363H108.061V128.303H111V125.363Z" fill="#594A39"/>
<path d="M16.9394 128.303H14V131.242H16.9394V128.303Z" fill="#594A39"/>
<path d="M22.8183 128.303H19.8789V131.242H22.8183V128.303Z" fill="#594A39"/>
<path d="M25.7578 128.303H22.8184V131.242H25.7578V128.303Z" fill="#594A39"/>
<path d="M28.6972 128.303H25.7578V131.242H28.6972V128.303Z" fill="#594A39"/>
<path d="M34.5761 128.303H31.6367V131.242H34.5761V128.303Z" fill="#594A39"/>
<path d="M43.3945 128.303H40.4551V131.242H43.3945V128.303Z" fill="#594A39"/>
<path d="M49.2734 128.303H46.334V131.242H49.2734V128.303Z" fill="#594A39"/>
<path d="M52.2128 128.303H49.2734V131.242H52.2128V128.303Z" fill="#594A39"/>
<path d="M61.0312 128.303H58.0918V131.242H61.0312V128.303Z" fill="#594A39"/>
<path d="M63.9706 128.303H61.0312V131.242H63.9706V128.303Z" fill="#594A39"/>
<path d="M78.666 128.303H75.7266V131.242H78.666V128.303Z" fill="#594A39"/>
<path d="M84.5449 128.303H81.6055V131.242H84.5449V128.303Z" fill="#594A39"/>
<path d="M87.4843 128.303H84.5449V131.242H87.4843V128.303Z" fill="#594A39"/>
<path d="M90.4238 128.303H87.4844V131.242H90.4238V128.303Z" fill="#594A39"/>
<path d="M93.3632 128.303H90.4238V131.242H93.3632V128.303Z" fill="#594A39"/>
<path d="M96.3027 128.303H93.3633V131.242H96.3027V128.303Z" fill="#594A39"/>
<path d="M99.2421 128.303H96.3027V131.242H99.2421V128.303Z" fill="#594A39"/>
<path d="M105.121 128.303H102.182V131.242H105.121V128.303Z" fill="#594A39"/>
<path d="M111 128.303H108.061V131.242H111V128.303Z" fill="#594A39"/>
<path d="M16.9394 131.242H14V134.182H16.9394V131.242Z" fill="#594A39"/>
<path d="M22.8183 131.242H19.8789V134.182H22.8183V131.242Z" fill="#594A39"/>
<path d="M25.7578 131.242H22.8184V134.182H25.7578V131.242Z" fill="#594A39"/>
<path d="M28.6972 131.242H25.7578V134.182H28.6972V131.242Z" fill="#594A39"/>
<path d="M34.5761 131.242H31.6367V134.182H34.5761V131.242Z" fill="#594A39"/>
<path d="M40.455 131.242H37.5156V134.182H40.455V131.242Z" fill="#594A39"/>
<path d="M52.2128 131.242H49.2734V134.182H52.2128V131.242Z" fill="#594A39"/>
<path d="M58.0917 131.242H55.1523V134.182H58.0917V131.242Z" fill="#594A39"/>
<path d="M61.0312 131.242H58.0918V134.182H61.0312V131.242Z" fill="#594A39"/>
<path d="M63.9706 131.242H61.0312V134.182H63.9706V131.242Z" fill="#594A39"/>
<path d="M66.9081 131.242H63.9688V134.182H66.9081V131.242Z" fill="#594A39"/>
<path d="M69.8476 131.242H66.9082V134.182H69.8476V131.242Z" fill="#594A39"/>
<path d="M84.5449 131.242H81.6055V134.182H84.5449V131.242Z" fill="#594A39"/>
<path d="M96.3027 131.242H93.3633V134.182H96.3027V131.242Z" fill="#594A39"/>
<path d="M102.182 131.242H99.2422V134.182H102.182V131.242Z" fill="#594A39"/>
<path d="M105.121 131.242H102.182V134.182H105.121V131.242Z" fill="#594A39"/>
<path d="M111 131.242H108.061V134.182H111V131.242Z" fill="#594A39"/>
<path d="M16.9394 134.182H14V137.121H16.9394V134.182Z" fill="#594A39"/>
<path d="M22.8183 134.182H19.8789V137.121H22.8183V134.182Z" fill="#594A39"/>
<path d="M25.7578 134.182H22.8184V137.121H25.7578V134.182Z" fill="#594A39"/>
<path d="M28.6972 134.182H25.7578V137.121H28.6972V134.182Z" fill="#594A39"/>
<path d="M34.5761 134.182H31.6367V137.121H34.5761V134.182Z" fill="#594A39"/>
<path d="M40.455 134.182H37.5156V137.121H40.455V134.182Z" fill="#594A39"/>
<path d="M46.3339 134.182H43.3945V137.121H46.3339V134.182Z" fill="#594A39"/>
<path d="M49.2734 134.182H46.334V137.121H49.2734V134.182Z" fill="#594A39"/>
<path d="M52.2128 134.182H49.2734V137.121H52.2128V134.182Z" fill="#594A39"/>
<path d="M55.1523 134.182H52.2129V137.121H55.1523V134.182Z" fill="#594A39"/>
<path d="M61.0312 134.182H58.0918V137.121H61.0312V134.182Z" fill="#594A39"/>
<path d="M63.9706 134.182H61.0312V137.121H63.9706V134.182Z" fill="#594A39"/>
<path d="M66.9081 134.182H63.9688V137.121H66.9081V134.182Z" fill="#594A39"/>
<path d="M75.7265 134.182H72.7871V137.121H75.7265V134.182Z" fill="#594A39"/>
<path d="M87.4843 134.182H84.5449V137.121H87.4843V134.182Z" fill="#594A39"/>
<path d="M93.3632 134.182H90.4238V137.121H93.3632V134.182Z" fill="#594A39"/>
<path d="M96.3027 134.182H93.3633V137.121H96.3027V134.182Z" fill="#594A39"/>
<path d="M102.182 134.182H99.2422V137.121H102.182V134.182Z" fill="#594A39"/>
<path d="M16.9394 137.121H14V140.06H16.9394V137.121Z" fill="#594A39"/>
<path d="M34.5761 137.121H31.6367V140.06H34.5761V137.121Z" fill="#594A39"/>
<path d="M43.3945 137.121H40.4551V140.06H43.3945V137.121Z" fill="#594A39"/>
<path d="M46.3339 137.121H43.3945V140.06H46.3339V137.121Z" fill="#594A39"/>
<path d="M49.2734 137.121H46.334V140.06H49.2734V137.121Z" fill="#594A39"/>
<path d="M52.2128 137.121H49.2734V140.06H52.2128V137.121Z" fill="#594A39"/>
<path d="M58.0917 137.121H55.1523V140.06H58.0917V137.121Z" fill="#594A39"/>
<path d="M63.9706 137.121H61.0312V140.06H63.9706V137.121Z" fill="#594A39"/>
<path d="M66.9081 137.121H63.9688V140.06H66.9081V137.121Z" fill="#594A39"/>
<path d="M69.8476 137.121H66.9082V140.06H69.8476V137.121Z" fill="#594A39"/>
<path d="M81.6054 137.121H78.666V140.06H81.6054V137.121Z" fill="#594A39"/>
<path d="M87.4843 137.121H84.5449V140.06H87.4843V137.121Z" fill="#594A39"/>
<path d="M90.4238 137.121H87.4844V140.06H90.4238V137.121Z" fill="#594A39"/>
<path d="M96.3027 137.121H93.3633V140.06H96.3027V137.121Z" fill="#594A39"/>
<path d="M99.2421 137.121H96.3027V140.06H99.2421V137.121Z" fill="#594A39"/>
<path d="M111 137.121H108.061V140.06H111V137.121Z" fill="#594A39"/>
<path d="M16.9394 140.061H14V143H16.9394V140.061Z" fill="#594A39"/>
<path d="M19.8788 140.061H16.9395V143H19.8788V140.061Z" fill="#594A39"/>
<path d="M22.8183 140.061H19.8789V143H22.8183V140.061Z" fill="#594A39"/>
<path d="M25.7578 140.061H22.8184V143H25.7578V140.061Z" fill="#594A39"/>
<path d="M28.6972 140.061H25.7578V143H28.6972V140.061Z" fill="#594A39"/>
<path d="M31.6367 140.061H28.6973V143H31.6367V140.061Z" fill="#594A39"/>
<path d="M34.5761 140.061H31.6367V143H34.5761V140.061Z" fill="#594A39"/>
<path d="M40.455 140.061H37.5156V143H40.455V140.061Z" fill="#594A39"/>
<path d="M46.3339 140.061H43.3945V143H46.3339V140.061Z" fill="#594A39"/>
<path d="M63.9706 140.061H61.0312V143H63.9706V140.061Z" fill="#594A39"/>
<path d="M66.9081 140.061H63.9688V143H66.9081V140.061Z" fill="#594A39"/>
<path d="M69.8476 140.061H66.9082V143H69.8476V140.061Z" fill="#594A39"/>
<path d="M72.7871 140.061H69.8477V143H72.7871V140.061Z" fill="#594A39"/>
<path d="M75.7265 140.061H72.7871V143H75.7265V140.061Z" fill="#594A39"/>
<path d="M78.666 140.061H75.7266V143H78.666V140.061Z" fill="#594A39"/>
<path d="M84.5449 140.061H81.6055V143H84.5449V140.061Z" fill="#594A39"/>
<path d="M93.3632 140.061H90.4238V143H93.3632V140.061Z" fill="#594A39"/>
<path d="M99.2421 140.061H96.3027V143H99.2421V140.061Z" fill="#594A39"/>
<path d="M105.121 140.061H102.182V143H105.121V140.061Z" fill="#594A39"/>
</svg>
