<svg width="168" height="207" viewBox="0 0 168 207" fill="none" xmlns="http://www.w3.org/2000/svg">
<rect x="1.5" y="1.5" width="165" height="203.46" rx="8.5" fill="white"/>
<rect x="1.5" y="1.5" width="165" height="203.46" rx="8.5" stroke="#E9E3D8" stroke-width="3"/>
<path d="M59.4384 22.24L58.9984 23.86H62.5184L62.0784 22.24C61.6184 20.7 61.2184 19 60.7984 17.4H60.6984C60.3184 19.02 59.8784 20.7 59.4384 22.24ZM54.3184 29.96L59.0584 15.14H62.5384L67.2984 29.96H64.1984L63.1584 26.16H58.3584L57.3184 29.96H54.3184Z" fill="#EEB690"/>
<path d="M69.5909 34.26V18.76H71.9909L72.2109 19.92H72.2709C73.2109 19.12 74.3709 18.48 75.5709 18.48C78.3309 18.48 79.9709 20.74 79.9709 24.18C79.9709 28.02 77.6709 30.24 75.2109 30.24C74.2309 30.24 73.2909 29.8 72.4309 29.02L72.5309 30.86V34.26H69.5909ZM74.5509 27.82C75.9109 27.82 76.9509 26.66 76.9509 24.22C76.9509 22.08 76.2709 20.9 74.7309 20.9C73.9709 20.9 73.2909 21.28 72.5309 22.06V26.98C73.2309 27.6 73.9509 27.82 74.5509 27.82Z" fill="#EEB690"/>
<path d="M83.262 34.26V18.76H85.662L85.882 19.92H85.942C86.882 19.12 88.042 18.48 89.242 18.48C92.002 18.48 93.642 20.74 93.642 24.18C93.642 28.02 91.342 30.24 88.882 30.24C87.902 30.24 86.962 29.8 86.102 29.02L86.202 30.86V34.26H83.262ZM88.222 27.82C89.582 27.82 90.622 26.66 90.622 24.22C90.622 22.08 89.942 20.9 88.402 20.9C87.642 20.9 86.962 21.28 86.202 22.06V26.98C86.902 27.6 87.622 27.82 88.222 27.82Z" fill="#EEB690"/>
<path d="M99.6931 30.24C97.653 30.24 96.933 28.9 96.933 26.82V14H99.873V26.94C99.873 27.62 100.173 27.84 100.453 27.84C100.573 27.84 100.653 27.84 100.853 27.8L101.213 29.98C100.873 30.12 100.393 30.24 99.6931 30.24Z" fill="#EEB690"/>
<path d="M105.022 34.46C104.362 34.46 103.922 34.38 103.482 34.24L104.022 31.98C104.222 32.04 104.542 32.12 104.802 32.12C105.942 32.12 106.582 31.4 106.902 30.42L107.102 29.76L102.742 18.76H105.702L107.482 23.96C107.822 24.96 108.102 26.04 108.422 27.12H108.522C108.782 26.08 109.062 25 109.322 23.96L110.862 18.76H113.682L109.702 30.3C108.722 32.94 107.522 34.46 105.022 34.46Z" fill="#EEB690"/>
<path d="M18.2424 46.46H14V50.7024H18.2424V46.46Z" fill="#594A39"/>
<path d="M22.4846 46.46H18.2422V50.7024H22.4846V46.46Z" fill="#594A39"/>
<path d="M26.7268 46.46H22.4844V50.7024H26.7268V46.46Z" fill="#594A39"/>
<path d="M30.969 46.46H26.7266V50.7024H30.969V46.46Z" fill="#594A39"/>
<path d="M35.2131 46.46H30.9707V50.7024H35.2131V46.46Z" fill="#594A39"/>
<path d="M39.4553 46.46H35.2129V50.7024H39.4553V46.46Z" fill="#594A39"/>
<path d="M43.6975 46.46H39.4551V50.7024H43.6975V46.46Z" fill="#594A39"/>
<path d="M52.1819 46.46H47.9395V50.7024H52.1819V46.46Z" fill="#594A39"/>
<path d="M56.4241 46.46H52.1816V50.7024H56.4241V46.46Z" fill="#594A39"/>
<path d="M60.6682 46.46H56.4258V50.7024H60.6682V46.46Z" fill="#594A39"/>
<path d="M64.9104 46.46H60.668V50.7024H64.9104V46.46Z" fill="#594A39"/>
<path d="M69.1526 46.46H64.9102V50.7024H69.1526V46.46Z" fill="#594A39"/>
<path d="M73.3948 46.46H69.1523V50.7024H73.3948V46.46Z" fill="#594A39"/>
<path d="M90.3616 46.46H86.1191V50.7024H90.3616V46.46Z" fill="#594A39"/>
<path d="M94.6057 46.46H90.3633V50.7024H94.6057V46.46Z" fill="#594A39"/>
<path d="M98.8479 46.46H94.6055V50.7024H98.8479V46.46Z" fill="#594A39"/>
<path d="M103.09 46.46H98.8477V50.7024H103.09V46.46Z" fill="#594A39"/>
<path d="M107.332 46.46H103.09V50.7024H107.332V46.46Z" fill="#594A39"/>
<path d="M115.817 46.46H111.574V50.7024H115.817V46.46Z" fill="#594A39"/>
<path d="M128.545 46.46H124.303V50.7024H128.545V46.46Z" fill="#594A39"/>
<path d="M132.787 46.46H128.545V50.7024H132.787V46.46Z" fill="#594A39"/>
<path d="M137.03 46.46H132.787V50.7024H137.03V46.46Z" fill="#594A39"/>
<path d="M141.272 46.46H137.029V50.7024H141.272V46.46Z" fill="#594A39"/>
<path d="M145.516 46.46H141.273V50.7024H145.516V46.46Z" fill="#594A39"/>
<path d="M149.758 46.46H145.516V50.7024H149.758V46.46Z" fill="#594A39"/>
<path d="M154 46.46H149.758V50.7024H154V46.46Z" fill="#594A39"/>
<path d="M18.2424 50.7021H14V54.9446H18.2424V50.7021Z" fill="#594A39"/>
<path d="M43.6975 50.7021H39.4551V54.9446H43.6975V50.7021Z" fill="#594A39"/>
<path d="M52.1819 50.7021H47.9395V54.9446H52.1819V50.7021Z" fill="#594A39"/>
<path d="M56.4241 50.7021H52.1816V54.9446H56.4241V50.7021Z" fill="#594A39"/>
<path d="M60.6682 50.7021H56.4258V54.9446H60.6682V50.7021Z" fill="#594A39"/>
<path d="M64.9104 50.7021H60.668V54.9446H64.9104V50.7021Z" fill="#594A39"/>
<path d="M69.1526 50.7021H64.9102V54.9446H69.1526V50.7021Z" fill="#594A39"/>
<path d="M73.3948 50.7021H69.1523V54.9446H73.3948V50.7021Z" fill="#594A39"/>
<path d="M86.1233 50.7021H81.8809V54.9446H86.1233V50.7021Z" fill="#594A39"/>
<path d="M90.3616 50.7021H86.1191V54.9446H90.3616V50.7021Z" fill="#594A39"/>
<path d="M103.09 50.7021H98.8477V54.9446H103.09V50.7021Z" fill="#594A39"/>
<path d="M111.574 50.7021H107.332V54.9446H111.574V50.7021Z" fill="#594A39"/>
<path d="M115.817 50.7021H111.574V54.9446H115.817V50.7021Z" fill="#594A39"/>
<path d="M128.545 50.7021H124.303V54.9446H128.545V50.7021Z" fill="#594A39"/>
<path d="M154 50.7021H149.758V54.9446H154V50.7021Z" fill="#594A39"/>
<path d="M18.2424 54.9453H14V59.1877H18.2424V54.9453Z" fill="#594A39"/>
<path d="M26.7268 54.9453H22.4844V59.1877H26.7268V54.9453Z" fill="#594A39"/>
<path d="M30.969 54.9453H26.7266V59.1877H30.969V54.9453Z" fill="#594A39"/>
<path d="M35.2131 54.9453H30.9707V59.1877H35.2131V54.9453Z" fill="#594A39"/>
<path d="M43.6975 54.9453H39.4551V59.1877H43.6975V54.9453Z" fill="#594A39"/>
<path d="M56.4241 54.9453H52.1816V59.1877H56.4241V54.9453Z" fill="#594A39"/>
<path d="M60.6682 54.9453H56.4258V59.1877H60.6682V54.9453Z" fill="#594A39"/>
<path d="M81.8791 54.9453H77.6367V59.1877H81.8791V54.9453Z" fill="#594A39"/>
<path d="M94.6057 54.9453H90.3633V59.1877H94.6057V54.9453Z" fill="#594A39"/>
<path d="M103.09 54.9453H98.8477V59.1877H103.09V54.9453Z" fill="#594A39"/>
<path d="M111.574 54.9453H107.332V59.1877H111.574V54.9453Z" fill="#594A39"/>
<path d="M115.817 54.9453H111.574V59.1877H115.817V54.9453Z" fill="#594A39"/>
<path d="M120.061 54.9453H115.818V59.1877H120.061V54.9453Z" fill="#594A39"/>
<path d="M128.545 54.9453H124.303V59.1877H128.545V54.9453Z" fill="#594A39"/>
<path d="M137.03 54.9453H132.787V59.1877H137.03V54.9453Z" fill="#594A39"/>
<path d="M141.272 54.9453H137.029V59.1877H141.272V54.9453Z" fill="#594A39"/>
<path d="M145.516 54.9453H141.273V59.1877H145.516V54.9453Z" fill="#594A39"/>
<path d="M154 54.9453H149.758V59.1877H154V54.9453Z" fill="#594A39"/>
<path d="M18.2424 59.1875H14V63.4299H18.2424V59.1875Z" fill="#594A39"/>
<path d="M26.7268 59.1875H22.4844V63.4299H26.7268V59.1875Z" fill="#594A39"/>
<path d="M30.969 59.1875H26.7266V63.4299H30.969V59.1875Z" fill="#594A39"/>
<path d="M35.2131 59.1875H30.9707V63.4299H35.2131V59.1875Z" fill="#594A39"/>
<path d="M43.6975 59.1875H39.4551V63.4299H43.6975V59.1875Z" fill="#594A39"/>
<path d="M52.1819 59.1875H47.9395V63.4299H52.1819V59.1875Z" fill="#594A39"/>
<path d="M56.4241 59.1875H52.1816V63.4299H56.4241V59.1875Z" fill="#594A39"/>
<path d="M69.1526 59.1875H64.9102V63.4299H69.1526V59.1875Z" fill="#594A39"/>
<path d="M77.637 59.1875H73.3945V63.4299H77.637V59.1875Z" fill="#594A39"/>
<path d="M81.8791 59.1875H77.6367V63.4299H81.8791V59.1875Z" fill="#594A39"/>
<path d="M90.3616 59.1875H86.1191V63.4299H90.3616V59.1875Z" fill="#594A39"/>
<path d="M94.6057 59.1875H90.3633V63.4299H94.6057V59.1875Z" fill="#594A39"/>
<path d="M98.8479 59.1875H94.6055V63.4299H98.8479V59.1875Z" fill="#594A39"/>
<path d="M103.09 59.1875H98.8477V63.4299H103.09V59.1875Z" fill="#594A39"/>
<path d="M107.332 59.1875H103.09V63.4299H107.332V59.1875Z" fill="#594A39"/>
<path d="M111.574 59.1875H107.332V63.4299H111.574V59.1875Z" fill="#594A39"/>
<path d="M115.817 59.1875H111.574V63.4299H115.817V59.1875Z" fill="#594A39"/>
<path d="M128.545 59.1875H124.303V63.4299H128.545V59.1875Z" fill="#594A39"/>
<path d="M137.03 59.1875H132.787V63.4299H137.03V59.1875Z" fill="#594A39"/>
<path d="M141.272 59.1875H137.029V63.4299H141.272V59.1875Z" fill="#594A39"/>
<path d="M145.516 59.1875H141.273V63.4299H145.516V59.1875Z" fill="#594A39"/>
<path d="M154 59.1875H149.758V63.4299H154V59.1875Z" fill="#594A39"/>
<path d="M18.2424 63.4297H14V67.6721H18.2424V63.4297Z" fill="#594A39"/>
<path d="M26.7268 63.4297H22.4844V67.6721H26.7268V63.4297Z" fill="#594A39"/>
<path d="M30.969 63.4297H26.7266V67.6721H30.969V63.4297Z" fill="#594A39"/>
<path d="M35.2131 63.4297H30.9707V67.6721H35.2131V63.4297Z" fill="#594A39"/>
<path d="M43.6975 63.4297H39.4551V67.6721H43.6975V63.4297Z" fill="#594A39"/>
<path d="M73.3948 63.4297H69.1523V67.6721H73.3948V63.4297Z" fill="#594A39"/>
<path d="M77.637 63.4297H73.3945V67.6721H77.637V63.4297Z" fill="#594A39"/>
<path d="M94.6057 63.4297H90.3633V67.6721H94.6057V63.4297Z" fill="#594A39"/>
<path d="M98.8479 63.4297H94.6055V67.6721H98.8479V63.4297Z" fill="#594A39"/>
<path d="M103.09 63.4297H98.8477V67.6721H103.09V63.4297Z" fill="#594A39"/>
<path d="M111.574 63.4297H107.332V67.6721H111.574V63.4297Z" fill="#594A39"/>
<path d="M115.817 63.4297H111.574V67.6721H115.817V63.4297Z" fill="#594A39"/>
<path d="M120.061 63.4297H115.818V67.6721H120.061V63.4297Z" fill="#594A39"/>
<path d="M128.545 63.4297H124.303V67.6721H128.545V63.4297Z" fill="#594A39"/>
<path d="M137.03 63.4297H132.787V67.6721H137.03V63.4297Z" fill="#594A39"/>
<path d="M141.272 63.4297H137.029V67.6721H141.272V63.4297Z" fill="#594A39"/>
<path d="M145.516 63.4297H141.273V67.6721H145.516V63.4297Z" fill="#594A39"/>
<path d="M154 63.4297H149.758V67.6721H154V63.4297Z" fill="#594A39"/>
<path d="M18.2424 67.6729H14V71.9153H18.2424V67.6729Z" fill="#594A39"/>
<path d="M43.6975 67.6729H39.4551V71.9153H43.6975V67.6729Z" fill="#594A39"/>
<path d="M56.4241 67.6729H52.1816V71.9153H56.4241V67.6729Z" fill="#594A39"/>
<path d="M64.9104 67.6729H60.668V71.9153H64.9104V67.6729Z" fill="#594A39"/>
<path d="M69.1526 67.6729H64.9102V71.9153H69.1526V67.6729Z" fill="#594A39"/>
<path d="M77.637 67.6729H73.3945V71.9153H77.637V67.6729Z" fill="#594A39"/>
<path d="M86.1233 67.6729H81.8809V71.9153H86.1233V67.6729Z" fill="#594A39"/>
<path d="M90.3616 67.6729H86.1191V71.9153H90.3616V67.6729Z" fill="#594A39"/>
<path d="M98.8479 67.6729H94.6055V71.9153H98.8479V67.6729Z" fill="#594A39"/>
<path d="M107.332 67.6729H103.09V71.9153H107.332V67.6729Z" fill="#594A39"/>
<path d="M120.061 67.6729H115.818V71.9153H120.061V67.6729Z" fill="#594A39"/>
<path d="M128.545 67.6729H124.303V71.9153H128.545V67.6729Z" fill="#594A39"/>
<path d="M154 67.6729H149.758V71.9153H154V67.6729Z" fill="#594A39"/>
<path d="M18.2424 71.915H14V76.1575H18.2424V71.915Z" fill="#594A39"/>
<path d="M22.4846 71.915H18.2422V76.1575H22.4846V71.915Z" fill="#594A39"/>
<path d="M26.7268 71.915H22.4844V76.1575H26.7268V71.915Z" fill="#594A39"/>
<path d="M30.969 71.915H26.7266V76.1575H30.969V71.915Z" fill="#594A39"/>
<path d="M35.2131 71.915H30.9707V76.1575H35.2131V71.915Z" fill="#594A39"/>
<path d="M39.4553 71.915H35.2129V76.1575H39.4553V71.915Z" fill="#594A39"/>
<path d="M43.6975 71.915H39.4551V76.1575H43.6975V71.915Z" fill="#594A39"/>
<path d="M52.1819 71.915H47.9395V76.1575H52.1819V71.915Z" fill="#594A39"/>
<path d="M60.6682 71.915H56.4258V76.1575H60.6682V71.915Z" fill="#594A39"/>
<path d="M69.1526 71.915H64.9102V76.1575H69.1526V71.915Z" fill="#594A39"/>
<path d="M77.637 71.915H73.3945V76.1575H77.637V71.915Z" fill="#594A39"/>
<path d="M86.1233 71.915H81.8809V76.1575H86.1233V71.915Z" fill="#594A39"/>
<path d="M94.6057 71.915H90.3633V76.1575H94.6057V71.915Z" fill="#594A39"/>
<path d="M103.09 71.915H98.8477V76.1575H103.09V71.915Z" fill="#594A39"/>
<path d="M111.574 71.915H107.332V76.1575H111.574V71.915Z" fill="#594A39"/>
<path d="M120.061 71.915H115.818V76.1575H120.061V71.915Z" fill="#594A39"/>
<path d="M128.545 71.915H124.303V76.1575H128.545V71.915Z" fill="#594A39"/>
<path d="M132.787 71.915H128.545V76.1575H132.787V71.915Z" fill="#594A39"/>
<path d="M137.03 71.915H132.787V76.1575H137.03V71.915Z" fill="#594A39"/>
<path d="M141.272 71.915H137.029V76.1575H141.272V71.915Z" fill="#594A39"/>
<path d="M145.516 71.915H141.273V76.1575H145.516V71.915Z" fill="#594A39"/>
<path d="M149.758 71.915H145.516V76.1575H149.758V71.915Z" fill="#594A39"/>
<path d="M154 71.915H149.758V76.1575H154V71.915Z" fill="#594A39"/>
<path d="M52.1819 76.1572H47.9395V80.3997H52.1819V76.1572Z" fill="#594A39"/>
<path d="M64.9104 76.1572H60.668V80.3997H64.9104V76.1572Z" fill="#594A39"/>
<path d="M69.1526 76.1572H64.9102V80.3997H69.1526V76.1572Z" fill="#594A39"/>
<path d="M81.8791 76.1572H77.6367V80.3997H81.8791V76.1572Z" fill="#594A39"/>
<path d="M86.1233 76.1572H81.8809V80.3997H86.1233V76.1572Z" fill="#594A39"/>
<path d="M90.3616 76.1572H86.1191V80.3997H90.3616V76.1572Z" fill="#594A39"/>
<path d="M94.6057 76.1572H90.3633V80.3997H94.6057V76.1572Z" fill="#594A39"/>
<path d="M98.8479 76.1572H94.6055V80.3997H98.8479V76.1572Z" fill="#594A39"/>
<path d="M120.061 76.1572H115.818V80.3997H120.061V76.1572Z" fill="#594A39"/>
<path d="M18.2424 80.4004H14V84.6428H18.2424V80.4004Z" fill="#594A39"/>
<path d="M26.7268 80.4004H22.4844V84.6428H26.7268V80.4004Z" fill="#594A39"/>
<path d="M30.969 80.4004H26.7266V84.6428H30.969V80.4004Z" fill="#594A39"/>
<path d="M39.4553 80.4004H35.2129V84.6428H39.4553V80.4004Z" fill="#594A39"/>
<path d="M43.6975 80.4004H39.4551V84.6428H43.6975V80.4004Z" fill="#594A39"/>
<path d="M47.9397 80.4004H43.6973V84.6428H47.9397V80.4004Z" fill="#594A39"/>
<path d="M56.4241 80.4004H52.1816V84.6428H56.4241V80.4004Z" fill="#594A39"/>
<path d="M69.1526 80.4004H64.9102V84.6428H69.1526V80.4004Z" fill="#594A39"/>
<path d="M77.637 80.4004H73.3945V84.6428H77.637V80.4004Z" fill="#594A39"/>
<path d="M90.3616 80.4004H86.1191V84.6428H90.3616V80.4004Z" fill="#594A39"/>
<path d="M98.8479 80.4004H94.6055V84.6428H98.8479V80.4004Z" fill="#594A39"/>
<path d="M107.332 80.4004H103.09V84.6428H107.332V80.4004Z" fill="#594A39"/>
<path d="M115.817 80.4004H111.574V84.6428H115.817V80.4004Z" fill="#594A39"/>
<path d="M128.545 80.4004H124.303V84.6428H128.545V80.4004Z" fill="#594A39"/>
<path d="M141.272 80.4004H137.029V84.6428H141.272V80.4004Z" fill="#594A39"/>
<path d="M149.758 80.4004H145.516V84.6428H149.758V80.4004Z" fill="#594A39"/>
<path d="M154 80.4004H149.758V84.6428H154V80.4004Z" fill="#594A39"/>
<path d="M26.7268 84.6416H22.4844V88.884H26.7268V84.6416Z" fill="#594A39"/>
<path d="M30.969 84.6416H26.7266V88.884H30.969V84.6416Z" fill="#594A39"/>
<path d="M39.4553 84.6416H35.2129V88.884H39.4553V84.6416Z" fill="#594A39"/>
<path d="M56.4241 84.6416H52.1816V88.884H56.4241V84.6416Z" fill="#594A39"/>
<path d="M60.6682 84.6416H56.4258V88.884H60.6682V84.6416Z" fill="#594A39"/>
<path d="M64.9104 84.6416H60.668V88.884H64.9104V84.6416Z" fill="#594A39"/>
<path d="M77.637 84.6416H73.3945V88.884H77.637V84.6416Z" fill="#594A39"/>
<path d="M86.1233 84.6416H81.8809V88.884H86.1233V84.6416Z" fill="#594A39"/>
<path d="M94.6057 84.6416H90.3633V88.884H94.6057V84.6416Z" fill="#594A39"/>
<path d="M98.8479 84.6416H94.6055V88.884H98.8479V84.6416Z" fill="#594A39"/>
<path d="M103.09 84.6416H98.8477V88.884H103.09V84.6416Z" fill="#594A39"/>
<path d="M107.332 84.6416H103.09V88.884H107.332V84.6416Z" fill="#594A39"/>
<path d="M115.817 84.6416H111.574V88.884H115.817V84.6416Z" fill="#594A39"/>
<path d="M120.061 84.6416H115.818V88.884H120.061V84.6416Z" fill="#594A39"/>
<path d="M128.545 84.6416H124.303V88.884H128.545V84.6416Z" fill="#594A39"/>
<path d="M132.787 84.6416H128.545V88.884H132.787V84.6416Z" fill="#594A39"/>
<path d="M141.272 84.6416H137.029V88.884H141.272V84.6416Z" fill="#594A39"/>
<path d="M145.516 84.6416H141.273V88.884H145.516V84.6416Z" fill="#594A39"/>
<path d="M154 84.6416H149.758V88.884H154V84.6416Z" fill="#594A39"/>
<path d="M18.2424 88.8838H14V93.1262H18.2424V88.8838Z" fill="#594A39"/>
<path d="M22.4846 88.8838H18.2422V93.1262H22.4846V88.8838Z" fill="#594A39"/>
<path d="M35.2131 88.8838H30.9707V93.1262H35.2131V88.8838Z" fill="#594A39"/>
<path d="M43.6975 88.8838H39.4551V93.1262H43.6975V88.8838Z" fill="#594A39"/>
<path d="M47.9397 88.8838H43.6973V93.1262H47.9397V88.8838Z" fill="#594A39"/>
<path d="M52.1819 88.8838H47.9395V93.1262H52.1819V88.8838Z" fill="#594A39"/>
<path d="M77.637 88.8838H73.3945V93.1262H77.637V88.8838Z" fill="#594A39"/>
<path d="M90.3616 88.8838H86.1191V93.1262H90.3616V88.8838Z" fill="#594A39"/>
<path d="M107.332 88.8838H103.09V93.1262H107.332V88.8838Z" fill="#594A39"/>
<path d="M111.574 88.8838H107.332V93.1262H111.574V88.8838Z" fill="#594A39"/>
<path d="M115.817 88.8838H111.574V93.1262H115.817V88.8838Z" fill="#594A39"/>
<path d="M128.545 88.8838H124.303V93.1262H128.545V88.8838Z" fill="#594A39"/>
<path d="M132.787 88.8838H128.545V93.1262H132.787V88.8838Z" fill="#594A39"/>
<path d="M137.03 88.8838H132.787V93.1262H137.03V88.8838Z" fill="#594A39"/>
<path d="M141.272 88.8838H137.029V93.1262H141.272V88.8838Z" fill="#594A39"/>
<path d="M149.758 88.8838H145.516V93.1262H149.758V88.8838Z" fill="#594A39"/>
<path d="M154 88.8838H149.758V93.1262H154V88.8838Z" fill="#594A39"/>
<path d="M18.2424 93.126H14V97.3684H18.2424V93.126Z" fill="#594A39"/>
<path d="M22.4846 93.126H18.2422V97.3684H22.4846V93.126Z" fill="#594A39"/>
<path d="M56.4241 93.126H52.1816V97.3684H56.4241V93.126Z" fill="#594A39"/>
<path d="M60.6682 93.126H56.4258V97.3684H60.6682V93.126Z" fill="#594A39"/>
<path d="M73.3948 93.126H69.1523V97.3684H73.3948V93.126Z" fill="#594A39"/>
<path d="M77.637 93.126H73.3945V97.3684H77.637V93.126Z" fill="#594A39"/>
<path d="M98.8479 93.126H94.6055V97.3684H98.8479V93.126Z" fill="#594A39"/>
<path d="M120.061 93.126H115.818V97.3684H120.061V93.126Z" fill="#594A39"/>
<path d="M124.303 93.126H120.061V97.3684H124.303V93.126Z" fill="#594A39"/>
<path d="M128.545 93.126H124.303V97.3684H128.545V93.126Z" fill="#594A39"/>
<path d="M132.787 93.126H128.545V97.3684H132.787V93.126Z" fill="#594A39"/>
<path d="M141.272 93.126H137.029V97.3684H141.272V93.126Z" fill="#594A39"/>
<path d="M149.758 93.126H145.516V97.3684H149.758V93.126Z" fill="#594A39"/>
<path d="M22.4846 97.3691H18.2422V101.612H22.4846V97.3691Z" fill="#594A39"/>
<path d="M26.7268 97.3691H22.4844V101.612H26.7268V97.3691Z" fill="#594A39"/>
<path d="M35.2131 97.3691H30.9707V101.612H35.2131V97.3691Z" fill="#594A39"/>
<path d="M43.6975 97.3691H39.4551V101.612H43.6975V97.3691Z" fill="#594A39"/>
<path d="M47.9397 97.3691H43.6973V101.612H47.9397V97.3691Z" fill="#594A39"/>
<path d="M56.4241 97.3691H52.1816V101.612H56.4241V97.3691Z" fill="#594A39"/>
<path d="M81.8791 97.3691H77.6367V101.612H81.8791V97.3691Z" fill="#594A39"/>
<path d="M86.1233 97.3691H81.8809V101.612H86.1233V97.3691Z" fill="#594A39"/>
<path d="M90.3616 97.3691H86.1191V101.612H90.3616V97.3691Z" fill="#594A39"/>
<path d="M94.6057 97.3691H90.3633V101.612H94.6057V97.3691Z" fill="#594A39"/>
<path d="M103.09 97.3691H98.8477V101.612H103.09V97.3691Z" fill="#594A39"/>
<path d="M124.303 97.3691H120.061V101.612H124.303V97.3691Z" fill="#594A39"/>
<path d="M137.03 97.3691H132.787V101.612H137.03V97.3691Z" fill="#594A39"/>
<path d="M141.272 97.3691H137.029V101.612H141.272V97.3691Z" fill="#594A39"/>
<path d="M149.758 97.3691H145.516V101.612H149.758V97.3691Z" fill="#594A39"/>
<path d="M26.7268 101.611H22.4844V105.854H26.7268V101.611Z" fill="#594A39"/>
<path d="M52.1819 101.611H47.9395V105.854H52.1819V101.611Z" fill="#594A39"/>
<path d="M56.4241 101.611H52.1816V105.854H56.4241V101.611Z" fill="#594A39"/>
<path d="M73.3948 101.611H69.1523V105.854H73.3948V101.611Z" fill="#594A39"/>
<path d="M81.8791 101.611H77.6367V105.854H81.8791V101.611Z" fill="#594A39"/>
<path d="M94.6057 101.611H90.3633V105.854H94.6057V101.611Z" fill="#594A39"/>
<path d="M98.8479 101.611H94.6055V105.854H98.8479V101.611Z" fill="#594A39"/>
<path d="M103.09 101.611H98.8477V105.854H103.09V101.611Z" fill="#594A39"/>
<path d="M107.332 101.611H103.09V105.854H107.332V101.611Z" fill="#594A39"/>
<path d="M115.817 101.611H111.574V105.854H115.817V101.611Z" fill="#594A39"/>
<path d="M120.061 101.611H115.818V105.854H120.061V101.611Z" fill="#594A39"/>
<path d="M132.787 101.611H128.545V105.854H132.787V101.611Z" fill="#594A39"/>
<path d="M149.758 101.611H145.516V105.854H149.758V101.611Z" fill="#594A39"/>
<path d="M18.2424 105.854H14V110.096H18.2424V105.854Z" fill="#594A39"/>
<path d="M26.7268 105.854H22.4844V110.096H26.7268V105.854Z" fill="#594A39"/>
<path d="M30.969 105.854H26.7266V110.096H30.969V105.854Z" fill="#594A39"/>
<path d="M43.6975 105.854H39.4551V110.096H43.6975V105.854Z" fill="#594A39"/>
<path d="M56.4241 105.854H52.1816V110.096H56.4241V105.854Z" fill="#594A39"/>
<path d="M60.6682 105.854H56.4258V110.096H60.6682V105.854Z" fill="#594A39"/>
<path d="M69.1526 105.854H64.9102V110.096H69.1526V105.854Z" fill="#594A39"/>
<path d="M73.3948 105.854H69.1523V110.096H73.3948V105.854Z" fill="#594A39"/>
<path d="M86.1233 105.854H81.8809V110.096H86.1233V105.854Z" fill="#594A39"/>
<path d="M90.3616 105.854H86.1191V110.096H90.3616V105.854Z" fill="#594A39"/>
<path d="M94.6057 105.854H90.3633V110.096H94.6057V105.854Z" fill="#594A39"/>
<path d="M98.8479 105.854H94.6055V110.096H98.8479V105.854Z" fill="#594A39"/>
<path d="M103.09 105.854H98.8477V110.096H103.09V105.854Z" fill="#594A39"/>
<path d="M111.574 105.854H107.332V110.096H111.574V105.854Z" fill="#594A39"/>
<path d="M128.545 105.854H124.303V110.096H128.545V105.854Z" fill="#594A39"/>
<path d="M132.787 105.854H128.545V110.096H132.787V105.854Z" fill="#594A39"/>
<path d="M137.03 105.854H132.787V110.096H137.03V105.854Z" fill="#594A39"/>
<path d="M141.272 105.854H137.029V110.096H141.272V105.854Z" fill="#594A39"/>
<path d="M18.2424 110.097H14V114.339H18.2424V110.097Z" fill="#594A39"/>
<path d="M22.4846 110.097H18.2422V114.339H22.4846V110.097Z" fill="#594A39"/>
<path d="M30.969 110.097H26.7266V114.339H30.969V110.097Z" fill="#594A39"/>
<path d="M35.2131 110.097H30.9707V114.339H35.2131V110.097Z" fill="#594A39"/>
<path d="M47.9397 110.097H43.6973V114.339H47.9397V110.097Z" fill="#594A39"/>
<path d="M64.9104 110.097H60.668V114.339H64.9104V110.097Z" fill="#594A39"/>
<path d="M69.1526 110.097H64.9102V114.339H69.1526V110.097Z" fill="#594A39"/>
<path d="M73.3948 110.097H69.1523V114.339H73.3948V110.097Z" fill="#594A39"/>
<path d="M77.637 110.097H73.3945V114.339H77.637V110.097Z" fill="#594A39"/>
<path d="M81.8791 110.097H77.6367V114.339H81.8791V110.097Z" fill="#594A39"/>
<path d="M94.6057 110.097H90.3633V114.339H94.6057V110.097Z" fill="#594A39"/>
<path d="M103.09 110.097H98.8477V114.339H103.09V110.097Z" fill="#594A39"/>
<path d="M107.332 110.097H103.09V114.339H107.332V110.097Z" fill="#594A39"/>
<path d="M111.574 110.097H107.332V114.339H111.574V110.097Z" fill="#594A39"/>
<path d="M120.061 110.097H115.818V114.339H120.061V110.097Z" fill="#594A39"/>
<path d="M124.303 110.097H120.061V114.339H124.303V110.097Z" fill="#594A39"/>
<path d="M128.545 110.097H124.303V114.339H128.545V110.097Z" fill="#594A39"/>
<path d="M132.787 110.097H128.545V114.339H132.787V110.097Z" fill="#594A39"/>
<path d="M141.272 110.097H137.029V114.339H141.272V110.097Z" fill="#594A39"/>
<path d="M145.516 110.097H141.273V114.339H145.516V110.097Z" fill="#594A39"/>
<path d="M18.2424 114.339H14V118.581H18.2424V114.339Z" fill="#594A39"/>
<path d="M26.7268 114.339H22.4844V118.581H26.7268V114.339Z" fill="#594A39"/>
<path d="M30.969 114.339H26.7266V118.581H30.969V114.339Z" fill="#594A39"/>
<path d="M35.2131 114.339H30.9707V118.581H35.2131V114.339Z" fill="#594A39"/>
<path d="M39.4553 114.339H35.2129V118.581H39.4553V114.339Z" fill="#594A39"/>
<path d="M43.6975 114.339H39.4551V118.581H43.6975V114.339Z" fill="#594A39"/>
<path d="M47.9397 114.339H43.6973V118.581H47.9397V114.339Z" fill="#594A39"/>
<path d="M52.1819 114.339H47.9395V118.581H52.1819V114.339Z" fill="#594A39"/>
<path d="M64.9104 114.339H60.668V118.581H64.9104V114.339Z" fill="#594A39"/>
<path d="M69.1526 114.339H64.9102V118.581H69.1526V114.339Z" fill="#594A39"/>
<path d="M73.3948 114.339H69.1523V118.581H73.3948V114.339Z" fill="#594A39"/>
<path d="M81.8791 114.339H77.6367V118.581H81.8791V114.339Z" fill="#594A39"/>
<path d="M86.1233 114.339H81.8809V118.581H86.1233V114.339Z" fill="#594A39"/>
<path d="M94.6057 114.339H90.3633V118.581H94.6057V114.339Z" fill="#594A39"/>
<path d="M103.09 114.339H98.8477V118.581H103.09V114.339Z" fill="#594A39"/>
<path d="M107.332 114.339H103.09V118.581H107.332V114.339Z" fill="#594A39"/>
<path d="M111.574 114.339H107.332V118.581H111.574V114.339Z" fill="#594A39"/>
<path d="M124.303 114.339H120.061V118.581H124.303V114.339Z" fill="#594A39"/>
<path d="M128.545 114.339H124.303V118.581H128.545V114.339Z" fill="#594A39"/>
<path d="M137.03 114.339H132.787V118.581H137.03V114.339Z" fill="#594A39"/>
<path d="M145.516 114.339H141.273V118.581H145.516V114.339Z" fill="#594A39"/>
<path d="M30.969 118.581H26.7266V122.823H30.969V118.581Z" fill="#594A39"/>
<path d="M35.2131 118.581H30.9707V122.823H35.2131V118.581Z" fill="#594A39"/>
<path d="M39.4553 118.581H35.2129V122.823H39.4553V118.581Z" fill="#594A39"/>
<path d="M47.9397 118.581H43.6973V122.823H47.9397V118.581Z" fill="#594A39"/>
<path d="M56.4241 118.581H52.1816V122.823H56.4241V118.581Z" fill="#594A39"/>
<path d="M60.6682 118.581H56.4258V122.823H60.6682V118.581Z" fill="#594A39"/>
<path d="M69.1526 118.581H64.9102V122.823H69.1526V118.581Z" fill="#594A39"/>
<path d="M81.8791 118.581H77.6367V122.823H81.8791V118.581Z" fill="#594A39"/>
<path d="M103.09 118.581H98.8477V122.823H103.09V118.581Z" fill="#594A39"/>
<path d="M107.332 118.581H103.09V122.823H107.332V118.581Z" fill="#594A39"/>
<path d="M115.817 118.581H111.574V122.823H115.817V118.581Z" fill="#594A39"/>
<path d="M120.061 118.581H115.818V122.823H120.061V118.581Z" fill="#594A39"/>
<path d="M124.303 118.581H120.061V122.823H124.303V118.581Z" fill="#594A39"/>
<path d="M128.545 118.581H124.303V122.823H128.545V118.581Z" fill="#594A39"/>
<path d="M137.03 118.581H132.787V122.823H137.03V118.581Z" fill="#594A39"/>
<path d="M141.272 118.581H137.029V122.823H141.272V118.581Z" fill="#594A39"/>
<path d="M154 118.581H149.758V122.823H154V118.581Z" fill="#594A39"/>
<path d="M22.4846 122.823H18.2422V127.066H22.4846V122.823Z" fill="#594A39"/>
<path d="M43.6975 122.823H39.4551V127.066H43.6975V122.823Z" fill="#594A39"/>
<path d="M52.1819 122.823H47.9395V127.066H52.1819V122.823Z" fill="#594A39"/>
<path d="M60.6682 122.823H56.4258V127.066H60.6682V122.823Z" fill="#594A39"/>
<path d="M64.9104 122.823H60.668V127.066H64.9104V122.823Z" fill="#594A39"/>
<path d="M77.637 122.823H73.3945V127.066H77.637V122.823Z" fill="#594A39"/>
<path d="M81.8791 122.823H77.6367V127.066H81.8791V122.823Z" fill="#594A39"/>
<path d="M90.3616 122.823H86.1191V127.066H90.3616V122.823Z" fill="#594A39"/>
<path d="M111.574 122.823H107.332V127.066H111.574V122.823Z" fill="#594A39"/>
<path d="M120.061 122.823H115.818V127.066H120.061V122.823Z" fill="#594A39"/>
<path d="M124.303 122.823H120.061V127.066H124.303V122.823Z" fill="#594A39"/>
<path d="M132.787 122.823H128.545V127.066H132.787V122.823Z" fill="#594A39"/>
<path d="M137.03 122.823H132.787V127.066H137.03V122.823Z" fill="#594A39"/>
<path d="M145.516 122.823H141.273V127.066H145.516V122.823Z" fill="#594A39"/>
<path d="M149.758 122.823H145.516V127.066H149.758V122.823Z" fill="#594A39"/>
<path d="M47.9397 127.066H43.6973V131.309H47.9397V127.066Z" fill="#594A39"/>
<path d="M56.4241 127.066H52.1816V131.309H56.4241V127.066Z" fill="#594A39"/>
<path d="M77.637 127.066H73.3945V131.309H77.637V127.066Z" fill="#594A39"/>
<path d="M81.8791 127.066H77.6367V131.309H81.8791V127.066Z" fill="#594A39"/>
<path d="M86.1233 127.066H81.8809V131.309H86.1233V127.066Z" fill="#594A39"/>
<path d="M90.3616 127.066H86.1191V131.309H90.3616V127.066Z" fill="#594A39"/>
<path d="M98.8479 127.066H94.6055V131.309H98.8479V127.066Z" fill="#594A39"/>
<path d="M103.09 127.066H98.8477V131.309H103.09V127.066Z" fill="#594A39"/>
<path d="M111.574 127.066H107.332V131.309H111.574V127.066Z" fill="#594A39"/>
<path d="M128.545 127.066H124.303V131.309H128.545V127.066Z" fill="#594A39"/>
<path d="M137.03 127.066H132.787V131.309H137.03V127.066Z" fill="#594A39"/>
<path d="M149.758 127.066H145.516V131.309H149.758V127.066Z" fill="#594A39"/>
<path d="M154 127.066H149.758V131.309H154V127.066Z" fill="#594A39"/>
<path d="M18.2424 131.309H14V135.551H18.2424V131.309Z" fill="#594A39"/>
<path d="M22.4846 131.309H18.2422V135.551H22.4846V131.309Z" fill="#594A39"/>
<path d="M26.7268 131.309H22.4844V135.551H26.7268V131.309Z" fill="#594A39"/>
<path d="M30.969 131.309H26.7266V135.551H30.969V131.309Z" fill="#594A39"/>
<path d="M43.6975 131.309H39.4551V135.551H43.6975V131.309Z" fill="#594A39"/>
<path d="M47.9397 131.309H43.6973V135.551H47.9397V131.309Z" fill="#594A39"/>
<path d="M52.1819 131.309H47.9395V135.551H52.1819V131.309Z" fill="#594A39"/>
<path d="M60.6682 131.309H56.4258V135.551H60.6682V131.309Z" fill="#594A39"/>
<path d="M64.9104 131.309H60.668V135.551H64.9104V131.309Z" fill="#594A39"/>
<path d="M81.8791 131.309H77.6367V135.551H81.8791V131.309Z" fill="#594A39"/>
<path d="M90.3616 131.309H86.1191V135.551H90.3616V131.309Z" fill="#594A39"/>
<path d="M98.8479 131.309H94.6055V135.551H98.8479V131.309Z" fill="#594A39"/>
<path d="M103.09 131.309H98.8477V135.551H103.09V131.309Z" fill="#594A39"/>
<path d="M107.332 131.309H103.09V135.551H107.332V131.309Z" fill="#594A39"/>
<path d="M111.574 131.309H107.332V135.551H111.574V131.309Z" fill="#594A39"/>
<path d="M124.303 131.309H120.061V135.551H124.303V131.309Z" fill="#594A39"/>
<path d="M141.272 131.309H137.029V135.551H141.272V131.309Z" fill="#594A39"/>
<path d="M145.516 131.309H141.273V135.551H145.516V131.309Z" fill="#594A39"/>
<path d="M149.758 131.309H145.516V135.551H149.758V131.309Z" fill="#594A39"/>
<path d="M154 131.309H149.758V135.551H154V131.309Z" fill="#594A39"/>
<path d="M39.4553 135.551H35.2129V139.793H39.4553V135.551Z" fill="#594A39"/>
<path d="M52.1819 135.551H47.9395V139.793H52.1819V135.551Z" fill="#594A39"/>
<path d="M56.4241 135.551H52.1816V139.793H56.4241V135.551Z" fill="#594A39"/>
<path d="M73.3948 135.551H69.1523V139.793H73.3948V135.551Z" fill="#594A39"/>
<path d="M98.8479 135.551H94.6055V139.793H98.8479V135.551Z" fill="#594A39"/>
<path d="M107.332 135.551H103.09V139.793H107.332V135.551Z" fill="#594A39"/>
<path d="M111.574 135.551H107.332V139.793H111.574V135.551Z" fill="#594A39"/>
<path d="M115.817 135.551H111.574V139.793H115.817V135.551Z" fill="#594A39"/>
<path d="M128.545 135.551H124.303V139.793H128.545V135.551Z" fill="#594A39"/>
<path d="M145.516 135.551H141.273V139.793H145.516V135.551Z" fill="#594A39"/>
<path d="M154 135.551H149.758V139.793H154V135.551Z" fill="#594A39"/>
<path d="M18.2424 139.794H14V144.036H18.2424V139.794Z" fill="#594A39"/>
<path d="M22.4846 139.794H18.2422V144.036H22.4846V139.794Z" fill="#594A39"/>
<path d="M26.7268 139.794H22.4844V144.036H26.7268V139.794Z" fill="#594A39"/>
<path d="M30.969 139.794H26.7266V144.036H30.969V139.794Z" fill="#594A39"/>
<path d="M39.4553 139.794H35.2129V144.036H39.4553V139.794Z" fill="#594A39"/>
<path d="M43.6975 139.794H39.4551V144.036H43.6975V139.794Z" fill="#594A39"/>
<path d="M47.9397 139.794H43.6973V144.036H47.9397V139.794Z" fill="#594A39"/>
<path d="M52.1819 139.794H47.9395V144.036H52.1819V139.794Z" fill="#594A39"/>
<path d="M60.6682 139.794H56.4258V144.036H60.6682V139.794Z" fill="#594A39"/>
<path d="M73.3948 139.794H69.1523V144.036H73.3948V139.794Z" fill="#594A39"/>
<path d="M103.09 139.794H98.8477V144.036H103.09V139.794Z" fill="#594A39"/>
<path d="M107.332 139.794H103.09V144.036H107.332V139.794Z" fill="#594A39"/>
<path d="M115.817 139.794H111.574V144.036H115.817V139.794Z" fill="#594A39"/>
<path d="M128.545 139.794H124.303V144.036H128.545V139.794Z" fill="#594A39"/>
<path d="M132.787 139.794H128.545V144.036H132.787V139.794Z" fill="#594A39"/>
<path d="M137.03 139.794H132.787V144.036H137.03V139.794Z" fill="#594A39"/>
<path d="M145.516 139.794H141.273V144.036H145.516V139.794Z" fill="#594A39"/>
<path d="M149.758 139.794H145.516V144.036H149.758V139.794Z" fill="#594A39"/>
<path d="M154 139.794H149.758V144.036H154V139.794Z" fill="#594A39"/>
<path d="M18.2424 144.036H14V148.279H18.2424V144.036Z" fill="#594A39"/>
<path d="M30.969 144.036H26.7266V148.279H30.969V144.036Z" fill="#594A39"/>
<path d="M35.2131 144.036H30.9707V148.279H35.2131V144.036Z" fill="#594A39"/>
<path d="M47.9397 144.036H43.6973V148.279H47.9397V144.036Z" fill="#594A39"/>
<path d="M52.1819 144.036H47.9395V148.279H52.1819V144.036Z" fill="#594A39"/>
<path d="M56.4241 144.036H52.1816V148.279H56.4241V144.036Z" fill="#594A39"/>
<path d="M64.9104 144.036H60.668V148.279H64.9104V144.036Z" fill="#594A39"/>
<path d="M69.1526 144.036H64.9102V148.279H69.1526V144.036Z" fill="#594A39"/>
<path d="M77.637 144.036H73.3945V148.279H77.637V144.036Z" fill="#594A39"/>
<path d="M86.1233 144.036H81.8809V148.279H86.1233V144.036Z" fill="#594A39"/>
<path d="M94.6057 144.036H90.3633V148.279H94.6057V144.036Z" fill="#594A39"/>
<path d="M103.09 144.036H98.8477V148.279H103.09V144.036Z" fill="#594A39"/>
<path d="M111.574 144.036H107.332V148.279H111.574V144.036Z" fill="#594A39"/>
<path d="M115.817 144.036H111.574V148.279H115.817V144.036Z" fill="#594A39"/>
<path d="M128.545 144.036H124.303V148.279H128.545V144.036Z" fill="#594A39"/>
<path d="M137.03 144.036H132.787V148.279H137.03V144.036Z" fill="#594A39"/>
<path d="M149.758 144.036H145.516V148.279H149.758V144.036Z" fill="#594A39"/>
<path d="M22.4846 148.278H18.2422V152.521H22.4846V148.278Z" fill="#594A39"/>
<path d="M26.7268 148.278H22.4844V152.521H26.7268V148.278Z" fill="#594A39"/>
<path d="M30.969 148.278H26.7266V152.521H30.969V148.278Z" fill="#594A39"/>
<path d="M35.2131 148.278H30.9707V152.521H35.2131V148.278Z" fill="#594A39"/>
<path d="M43.6975 148.278H39.4551V152.521H43.6975V148.278Z" fill="#594A39"/>
<path d="M47.9397 148.278H43.6973V152.521H47.9397V148.278Z" fill="#594A39"/>
<path d="M56.4241 148.278H52.1816V152.521H56.4241V148.278Z" fill="#594A39"/>
<path d="M60.6682 148.278H56.4258V152.521H60.6682V148.278Z" fill="#594A39"/>
<path d="M64.9104 148.278H60.668V152.521H64.9104V148.278Z" fill="#594A39"/>
<path d="M77.637 148.278H73.3945V152.521H77.637V148.278Z" fill="#594A39"/>
<path d="M90.3616 148.278H86.1191V152.521H90.3616V148.278Z" fill="#594A39"/>
<path d="M111.574 148.278H107.332V152.521H111.574V148.278Z" fill="#594A39"/>
<path d="M115.817 148.278H111.574V152.521H115.817V148.278Z" fill="#594A39"/>
<path d="M120.061 148.278H115.818V152.521H120.061V148.278Z" fill="#594A39"/>
<path d="M124.303 148.278H120.061V152.521H124.303V148.278Z" fill="#594A39"/>
<path d="M128.545 148.278H124.303V152.521H128.545V148.278Z" fill="#594A39"/>
<path d="M132.787 148.278H128.545V152.521H132.787V148.278Z" fill="#594A39"/>
<path d="M137.03 148.278H132.787V152.521H137.03V148.278Z" fill="#594A39"/>
<path d="M149.758 148.278H145.516V152.521H149.758V148.278Z" fill="#594A39"/>
<path d="M154 148.278H149.758V152.521H154V148.278Z" fill="#594A39"/>
<path d="M52.1819 152.52H47.9395V156.762H52.1819V152.52Z" fill="#594A39"/>
<path d="M60.6682 152.52H56.4258V156.762H60.6682V152.52Z" fill="#594A39"/>
<path d="M69.1526 152.52H64.9102V156.762H69.1526V152.52Z" fill="#594A39"/>
<path d="M73.3948 152.52H69.1523V156.762H73.3948V152.52Z" fill="#594A39"/>
<path d="M81.8791 152.52H77.6367V156.762H81.8791V152.52Z" fill="#594A39"/>
<path d="M98.8479 152.52H94.6055V156.762H98.8479V152.52Z" fill="#594A39"/>
<path d="M111.574 152.52H107.332V156.762H111.574V152.52Z" fill="#594A39"/>
<path d="M120.061 152.52H115.818V156.762H120.061V152.52Z" fill="#594A39"/>
<path d="M137.03 152.52H132.787V156.762H137.03V152.52Z" fill="#594A39"/>
<path d="M141.272 152.52H137.029V156.762H141.272V152.52Z" fill="#594A39"/>
<path d="M18.2424 156.763H14V161.005H18.2424V156.763Z" fill="#594A39"/>
<path d="M22.4846 156.763H18.2422V161.005H22.4846V156.763Z" fill="#594A39"/>
<path d="M26.7268 156.763H22.4844V161.005H26.7268V156.763Z" fill="#594A39"/>
<path d="M30.969 156.763H26.7266V161.005H30.969V156.763Z" fill="#594A39"/>
<path d="M35.2131 156.763H30.9707V161.005H35.2131V156.763Z" fill="#594A39"/>
<path d="M39.4553 156.763H35.2129V161.005H39.4553V156.763Z" fill="#594A39"/>
<path d="M43.6975 156.763H39.4551V161.005H43.6975V156.763Z" fill="#594A39"/>
<path d="M52.1819 156.763H47.9395V161.005H52.1819V156.763Z" fill="#594A39"/>
<path d="M56.4241 156.763H52.1816V161.005H56.4241V156.763Z" fill="#594A39"/>
<path d="M69.1526 156.763H64.9102V161.005H69.1526V156.763Z" fill="#594A39"/>
<path d="M73.3948 156.763H69.1523V161.005H73.3948V156.763Z" fill="#594A39"/>
<path d="M77.637 156.763H73.3945V161.005H77.637V156.763Z" fill="#594A39"/>
<path d="M98.8479 156.763H94.6055V161.005H98.8479V156.763Z" fill="#594A39"/>
<path d="M111.574 156.763H107.332V161.005H111.574V156.763Z" fill="#594A39"/>
<path d="M115.817 156.763H111.574V161.005H115.817V156.763Z" fill="#594A39"/>
<path d="M120.061 156.763H115.818V161.005H120.061V156.763Z" fill="#594A39"/>
<path d="M128.545 156.763H124.303V161.005H128.545V156.763Z" fill="#594A39"/>
<path d="M137.03 156.763H132.787V161.005H137.03V156.763Z" fill="#594A39"/>
<path d="M18.2424 161.005H14V165.247H18.2424V161.005Z" fill="#594A39"/>
<path d="M43.6975 161.005H39.4551V165.247H43.6975V161.005Z" fill="#594A39"/>
<path d="M52.1819 161.005H47.9395V165.247H52.1819V161.005Z" fill="#594A39"/>
<path d="M56.4241 161.005H52.1816V165.247H56.4241V161.005Z" fill="#594A39"/>
<path d="M69.1526 161.005H64.9102V165.247H69.1526V161.005Z" fill="#594A39"/>
<path d="M81.8791 161.005H77.6367V165.247H81.8791V161.005Z" fill="#594A39"/>
<path d="M86.1233 161.005H81.8809V165.247H86.1233V161.005Z" fill="#594A39"/>
<path d="M94.6057 161.005H90.3633V165.247H94.6057V161.005Z" fill="#594A39"/>
<path d="M103.09 161.005H98.8477V165.247H103.09V161.005Z" fill="#594A39"/>
<path d="M107.332 161.005H103.09V165.247H107.332V161.005Z" fill="#594A39"/>
<path d="M111.574 161.005H107.332V165.247H111.574V161.005Z" fill="#594A39"/>
<path d="M115.817 161.005H111.574V165.247H115.817V161.005Z" fill="#594A39"/>
<path d="M120.061 161.005H115.818V165.247H120.061V161.005Z" fill="#594A39"/>
<path d="M137.03 161.005H132.787V165.247H137.03V161.005Z" fill="#594A39"/>
<path d="M141.272 161.005H137.029V165.247H141.272V161.005Z" fill="#594A39"/>
<path d="M145.516 161.005H141.273V165.247H145.516V161.005Z" fill="#594A39"/>
<path d="M149.758 161.005H145.516V165.247H149.758V161.005Z" fill="#594A39"/>
<path d="M154 161.005H149.758V165.247H154V161.005Z" fill="#594A39"/>
<path d="M18.2424 165.247H14V169.489H18.2424V165.247Z" fill="#594A39"/>
<path d="M26.7268 165.247H22.4844V169.489H26.7268V165.247Z" fill="#594A39"/>
<path d="M30.969 165.247H26.7266V169.489H30.969V165.247Z" fill="#594A39"/>
<path d="M35.2131 165.247H30.9707V169.489H35.2131V165.247Z" fill="#594A39"/>
<path d="M43.6975 165.247H39.4551V169.489H43.6975V165.247Z" fill="#594A39"/>
<path d="M56.4241 165.247H52.1816V169.489H56.4241V165.247Z" fill="#594A39"/>
<path d="M64.9104 165.247H60.668V169.489H64.9104V165.247Z" fill="#594A39"/>
<path d="M69.1526 165.247H64.9102V169.489H69.1526V165.247Z" fill="#594A39"/>
<path d="M81.8791 165.247H77.6367V169.489H81.8791V165.247Z" fill="#594A39"/>
<path d="M86.1233 165.247H81.8809V169.489H86.1233V165.247Z" fill="#594A39"/>
<path d="M107.332 165.247H103.09V169.489H107.332V165.247Z" fill="#594A39"/>
<path d="M115.817 165.247H111.574V169.489H115.817V165.247Z" fill="#594A39"/>
<path d="M120.061 165.247H115.818V169.489H120.061V165.247Z" fill="#594A39"/>
<path d="M124.303 165.247H120.061V169.489H124.303V165.247Z" fill="#594A39"/>
<path d="M128.545 165.247H124.303V169.489H128.545V165.247Z" fill="#594A39"/>
<path d="M132.787 165.247H128.545V169.489H132.787V165.247Z" fill="#594A39"/>
<path d="M137.03 165.247H132.787V169.489H137.03V165.247Z" fill="#594A39"/>
<path d="M145.516 165.247H141.273V169.489H145.516V165.247Z" fill="#594A39"/>
<path d="M154 165.247H149.758V169.489H154V165.247Z" fill="#594A39"/>
<path d="M18.2424 169.49H14V173.733H18.2424V169.49Z" fill="#594A39"/>
<path d="M26.7268 169.49H22.4844V173.733H26.7268V169.49Z" fill="#594A39"/>
<path d="M30.969 169.49H26.7266V173.733H30.969V169.49Z" fill="#594A39"/>
<path d="M35.2131 169.49H30.9707V173.733H35.2131V169.49Z" fill="#594A39"/>
<path d="M43.6975 169.49H39.4551V173.733H43.6975V169.49Z" fill="#594A39"/>
<path d="M52.1819 169.49H47.9395V173.733H52.1819V169.49Z" fill="#594A39"/>
<path d="M69.1526 169.49H64.9102V173.733H69.1526V169.49Z" fill="#594A39"/>
<path d="M77.637 169.49H73.3945V173.733H77.637V169.49Z" fill="#594A39"/>
<path d="M81.8791 169.49H77.6367V173.733H81.8791V169.49Z" fill="#594A39"/>
<path d="M86.1233 169.49H81.8809V173.733H86.1233V169.49Z" fill="#594A39"/>
<path d="M90.3616 169.49H86.1191V173.733H90.3616V169.49Z" fill="#594A39"/>
<path d="M94.6057 169.49H90.3633V173.733H94.6057V169.49Z" fill="#594A39"/>
<path d="M115.817 169.49H111.574V173.733H115.817V169.49Z" fill="#594A39"/>
<path d="M132.787 169.49H128.545V173.733H132.787V169.49Z" fill="#594A39"/>
<path d="M141.272 169.49H137.029V173.733H141.272V169.49Z" fill="#594A39"/>
<path d="M145.516 169.49H141.273V173.733H145.516V169.49Z" fill="#594A39"/>
<path d="M154 169.49H149.758V173.733H154V169.49Z" fill="#594A39"/>
<path d="M18.2424 173.732H14V177.975H18.2424V173.732Z" fill="#594A39"/>
<path d="M26.7268 173.732H22.4844V177.975H26.7268V173.732Z" fill="#594A39"/>
<path d="M30.969 173.732H26.7266V177.975H30.969V173.732Z" fill="#594A39"/>
<path d="M35.2131 173.732H30.9707V177.975H35.2131V173.732Z" fill="#594A39"/>
<path d="M43.6975 173.732H39.4551V177.975H43.6975V173.732Z" fill="#594A39"/>
<path d="M52.1819 173.732H47.9395V177.975H52.1819V173.732Z" fill="#594A39"/>
<path d="M60.6682 173.732H56.4258V177.975H60.6682V173.732Z" fill="#594A39"/>
<path d="M64.9104 173.732H60.668V177.975H64.9104V173.732Z" fill="#594A39"/>
<path d="M69.1526 173.732H64.9102V177.975H69.1526V173.732Z" fill="#594A39"/>
<path d="M73.3948 173.732H69.1523V177.975H73.3948V173.732Z" fill="#594A39"/>
<path d="M81.8791 173.732H77.6367V177.975H81.8791V173.732Z" fill="#594A39"/>
<path d="M86.1233 173.732H81.8809V177.975H86.1233V173.732Z" fill="#594A39"/>
<path d="M90.3616 173.732H86.1191V177.975H90.3616V173.732Z" fill="#594A39"/>
<path d="M103.09 173.732H98.8477V177.975H103.09V173.732Z" fill="#594A39"/>
<path d="M120.061 173.732H115.818V177.975H120.061V173.732Z" fill="#594A39"/>
<path d="M128.545 173.732H124.303V177.975H128.545V173.732Z" fill="#594A39"/>
<path d="M132.787 173.732H128.545V177.975H132.787V173.732Z" fill="#594A39"/>
<path d="M141.272 173.732H137.029V177.975H141.272V173.732Z" fill="#594A39"/>
<path d="M18.2424 177.975H14V182.217H18.2424V177.975Z" fill="#594A39"/>
<path d="M43.6975 177.975H39.4551V182.217H43.6975V177.975Z" fill="#594A39"/>
<path d="M56.4241 177.975H52.1816V182.217H56.4241V177.975Z" fill="#594A39"/>
<path d="M60.6682 177.975H56.4258V182.217H60.6682V177.975Z" fill="#594A39"/>
<path d="M64.9104 177.975H60.668V182.217H64.9104V177.975Z" fill="#594A39"/>
<path d="M69.1526 177.975H64.9102V182.217H69.1526V177.975Z" fill="#594A39"/>
<path d="M77.637 177.975H73.3945V182.217H77.637V177.975Z" fill="#594A39"/>
<path d="M86.1233 177.975H81.8809V182.217H86.1233V177.975Z" fill="#594A39"/>
<path d="M90.3616 177.975H86.1191V182.217H90.3616V177.975Z" fill="#594A39"/>
<path d="M94.6057 177.975H90.3633V182.217H94.6057V177.975Z" fill="#594A39"/>
<path d="M111.574 177.975H107.332V182.217H111.574V177.975Z" fill="#594A39"/>
<path d="M120.061 177.975H115.818V182.217H120.061V177.975Z" fill="#594A39"/>
<path d="M124.303 177.975H120.061V182.217H124.303V177.975Z" fill="#594A39"/>
<path d="M132.787 177.975H128.545V182.217H132.787V177.975Z" fill="#594A39"/>
<path d="M137.03 177.975H132.787V182.217H137.03V177.975Z" fill="#594A39"/>
<path d="M154 177.975H149.758V182.217H154V177.975Z" fill="#594A39"/>
<path d="M18.2424 182.218H14V186.46H18.2424V182.218Z" fill="#594A39"/>
<path d="M22.4846 182.218H18.2422V186.46H22.4846V182.218Z" fill="#594A39"/>
<path d="M26.7268 182.218H22.4844V186.46H26.7268V182.218Z" fill="#594A39"/>
<path d="M30.969 182.218H26.7266V186.46H30.969V182.218Z" fill="#594A39"/>
<path d="M35.2131 182.218H30.9707V186.46H35.2131V182.218Z" fill="#594A39"/>
<path d="M39.4553 182.218H35.2129V186.46H39.4553V182.218Z" fill="#594A39"/>
<path d="M43.6975 182.218H39.4551V186.46H43.6975V182.218Z" fill="#594A39"/>
<path d="M52.1819 182.218H47.9395V186.46H52.1819V182.218Z" fill="#594A39"/>
<path d="M60.6682 182.218H56.4258V186.46H60.6682V182.218Z" fill="#594A39"/>
<path d="M86.1233 182.218H81.8809V186.46H86.1233V182.218Z" fill="#594A39"/>
<path d="M90.3616 182.218H86.1191V186.46H90.3616V182.218Z" fill="#594A39"/>
<path d="M94.6057 182.218H90.3633V186.46H94.6057V182.218Z" fill="#594A39"/>
<path d="M98.8479 182.218H94.6055V186.46H98.8479V182.218Z" fill="#594A39"/>
<path d="M103.09 182.218H98.8477V186.46H103.09V182.218Z" fill="#594A39"/>
<path d="M107.332 182.218H103.09V186.46H107.332V182.218Z" fill="#594A39"/>
<path d="M115.817 182.218H111.574V186.46H115.817V182.218Z" fill="#594A39"/>
<path d="M128.545 182.218H124.303V186.46H128.545V182.218Z" fill="#594A39"/>
<path d="M137.03 182.218H132.787V186.46H137.03V182.218Z" fill="#594A39"/>
<path d="M145.516 182.218H141.273V186.46H145.516V182.218Z" fill="#594A39"/>
</svg>
