<svg width="168" height="206" viewBox="0 0 168 206" fill="none" xmlns="http://www.w3.org/2000/svg">
<rect x="1.5" y="1.5" width="165" height="203" rx="8.5" fill="white"/>
<rect x="1.5" y="1.5" width="165" height="203" rx="8.5" stroke="#E9E3D8" stroke-width="3"/>
<path d="M46.7594 26.7844L45.1816 27.2828C45.1383 26.9577 45.0735 26.5677 44.987 26.1777C40.8804 26.7844 40.1888 26.9577 39.7565 27.1744C39.6484 26.7627 39.3458 25.8093 39.1297 25.2893C39.6052 25.1593 40.1023 24.6609 40.7723 23.8808C41.0533 23.5341 41.6585 22.7757 42.3285 21.779C40.4049 22.0173 39.9294 22.1473 39.6052 22.2557C39.4971 21.8873 39.2161 20.9772 39 20.5005C39.389 20.4139 39.7349 19.9588 40.1671 19.3304C40.5994 18.7021 41.9827 16.2969 42.7608 14L44.6196 14.7584C43.755 16.6436 42.6744 18.6154 41.572 20.1972L43.4524 20.0455C44.036 19.1354 44.598 18.1387 45.0303 17.1636L46.7594 18.2254C45.4841 20.5655 43.7983 22.9707 42.1124 24.9209L44.6628 24.5959C44.4899 23.9242 44.2954 23.2308 44.0793 22.6457L45.5706 22.2557C46.0893 23.7291 46.6081 25.636 46.7594 26.7844ZM40.0159 27.9762L41.5937 28.2579C41.3991 30.1863 41.0101 32.2665 40.5562 33.6316C40.2104 33.4366 39.4539 33.1983 39.0432 33.0683C39.5403 31.7248 39.8429 29.7746 40.0159 27.9762ZM42.1988 28.2145L43.647 27.9545C43.9063 29.4063 44.1225 31.2698 44.1657 32.5265L42.6311 32.8082C42.6095 31.5515 42.415 29.6446 42.1988 28.2145ZM44.2522 27.8028L45.5922 27.3694C46.0029 28.4095 46.4135 29.7313 46.5865 30.6197L45.1816 31.1181C45.0303 30.208 44.6412 28.8212 44.2522 27.8028ZM50.6931 25.5276L51.8602 25.9393C51.147 29.2329 49.3963 31.6165 47.1916 32.8949C46.9323 32.5049 46.4135 31.8332 46.0461 31.5081C47.5375 30.6847 48.8775 29.1246 49.6124 27.2394H47.2349V25.5926H50.3905L50.6931 25.5276ZM49.8718 20.8689V22.429H56.0101V20.8689H49.8718ZM49.8718 17.8787V19.4171H56.0101V17.8787H49.8718ZM57.1556 24.5742L58.647 25.8093C57.6744 26.6544 56.6153 27.5645 55.7075 28.2362C56.5937 29.623 57.7392 30.7714 59.0576 31.4648C58.6254 31.8115 58.0418 32.5482 57.7392 33.0466C56.2695 32.0932 55.0375 30.5547 54.1081 28.7346V31.8332C54.1081 32.7866 53.9135 33.3283 53.2867 33.6316C52.6599 33.935 51.6873 33.9567 50.3256 33.9567C50.2608 33.4149 50.0014 32.6132 49.7637 32.1148C50.6715 32.1582 51.5793 32.1582 51.8386 32.1365C52.1196 32.1148 52.1844 32.0498 52.1844 31.8115V24.0108H47.9914V16.3185H51.1902C51.4712 15.5818 51.7305 14.6934 51.8818 14.0217L54.1513 14.4767C53.8487 15.1051 53.5461 15.7551 53.2219 16.3185H57.9769V24.0108H54.1081V24.7692C54.3458 25.506 54.6052 26.221 54.951 26.8927C55.7507 26.156 56.5937 25.2459 57.1556 24.5742Z" fill="#EEB690"/>
<path d="M72.7824 30.8581H82.0764V32.8949H62.732V30.8581H70.621V14.3467H72.7824V20.7822H80.585V22.7974H72.7824V30.8581Z" fill="#EEB690"/>
<path d="M96.7089 26.2644H102.199V23.4041H96.7089V26.2644ZM89.2954 26.2644H94.634V23.4041H89.2954V26.2644ZM94.634 18.8321H89.2954V21.5406H94.634V18.8321ZM102.199 18.8321H96.7089V21.5406H102.199V18.8321ZM96.7089 16.9036H104.274V29.2763H102.199V28.1928H96.7089V33.935H94.634V28.1928H89.2954V29.3846H87.3069V16.9036H94.634V14.065H96.7089V16.9036Z" fill="#EEB690"/>
<path d="M128.741 16.7952V18.442H122.408V16.7952H124.742C124.504 16.0802 124.159 15.2784 123.813 14.6284L125.477 14.13C125.909 14.9534 126.385 15.9935 126.687 16.7952H128.741ZM125.001 22.169L123.575 22.559C123.553 21.6273 123.294 20.1538 122.948 19.0271L124.288 18.6804C124.677 19.7855 124.98 21.2156 125.001 22.169ZM115.556 16.8386V18.4854H109.375V16.8386H111.666C111.428 16.1668 111.104 15.3868 110.78 14.7801L112.444 14.2817C112.898 15.0618 113.33 16.0802 113.589 16.8386H115.556ZM111.86 22.169L110.412 22.559C110.412 21.649 110.174 20.2189 109.85 19.1138L111.19 18.7671C111.558 19.8288 111.817 21.2373 111.86 22.169ZM115.275 28.1712H113.265C113.114 30.208 112.465 32.4615 110.563 34C110.304 33.61 109.764 33.0033 109.375 32.6999C110.931 31.5731 111.363 29.7746 111.471 28.1712H109.483V26.5244H111.514V24.2709H109.223V22.6241H112.617C112.941 21.4973 113.33 19.8288 113.481 18.6587L115.037 18.9837C114.692 20.1972 114.324 21.5623 114 22.6241H115.643V24.2709H113.308V26.5244H115.275V28.1712ZM121.565 18.8537V19.6988C121.435 28.9079 121.327 31.8982 120.83 32.7216C120.506 33.2633 120.16 33.4583 119.62 33.545C119.187 33.6316 118.561 33.61 117.89 33.5883C117.869 33.1116 117.696 32.3965 117.458 31.9415C118.042 31.9848 118.561 31.9848 118.841 31.9848C119.079 31.9848 119.231 31.9198 119.382 31.6381C119.706 31.0748 119.814 28.4095 119.922 20.5872H118.69C118.452 26.156 117.782 30.6414 115.621 33.9783C115.405 33.675 114.67 33.0683 114.324 32.7866C116.313 29.948 116.961 25.7226 117.156 20.5872H115.988V18.8537H117.199C117.22 17.3153 117.22 15.7118 117.22 14.065H118.798C118.798 15.7335 118.777 17.3153 118.733 18.8537H121.565ZM129 24.2925H126.601V26.8494H128.741V28.4962H126.601V33.8917H124.785V28.4962H122.71V26.8494H124.785V24.2925H122.321V22.6457H125.909C126.255 21.4973 126.644 19.7638 126.795 18.5937L128.33 18.9404C128.049 20.1538 127.682 21.5623 127.357 22.6457H129V24.2925Z" fill="#EEB690"/>
<path d="M18.2424 46H14V50.2424H18.2424V46Z" fill="#594A39"/>
<path d="M22.4846 46H18.2422V50.2424H22.4846V46Z" fill="#594A39"/>
<path d="M26.7268 46H22.4844V50.2424H26.7268V46Z" fill="#594A39"/>
<path d="M30.969 46H26.7266V50.2424H30.969V46Z" fill="#594A39"/>
<path d="M35.2131 46H30.9707V50.2424H35.2131V46Z" fill="#594A39"/>
<path d="M39.4553 46H35.2129V50.2424H39.4553V46Z" fill="#594A39"/>
<path d="M43.6975 46H39.4551V50.2424H43.6975V46Z" fill="#594A39"/>
<path d="M52.1819 46H47.9395V50.2424H52.1819V46Z" fill="#594A39"/>
<path d="M56.4241 46H52.1816V50.2424H56.4241V46Z" fill="#594A39"/>
<path d="M60.6682 46H56.4258V50.2424H60.6682V46Z" fill="#594A39"/>
<path d="M64.9104 46H60.668V50.2424H64.9104V46Z" fill="#594A39"/>
<path d="M69.1526 46H64.9102V50.2424H69.1526V46Z" fill="#594A39"/>
<path d="M73.3948 46H69.1523V50.2424H73.3948V46Z" fill="#594A39"/>
<path d="M90.3616 46H86.1191V50.2424H90.3616V46Z" fill="#594A39"/>
<path d="M94.6057 46H90.3633V50.2424H94.6057V46Z" fill="#594A39"/>
<path d="M98.8479 46H94.6055V50.2424H98.8479V46Z" fill="#594A39"/>
<path d="M103.09 46H98.8477V50.2424H103.09V46Z" fill="#594A39"/>
<path d="M107.332 46H103.09V50.2424H107.332V46Z" fill="#594A39"/>
<path d="M115.817 46H111.574V50.2424H115.817V46Z" fill="#594A39"/>
<path d="M128.545 46H124.303V50.2424H128.545V46Z" fill="#594A39"/>
<path d="M132.787 46H128.545V50.2424H132.787V46Z" fill="#594A39"/>
<path d="M137.03 46H132.787V50.2424H137.03V46Z" fill="#594A39"/>
<path d="M141.272 46H137.029V50.2424H141.272V46Z" fill="#594A39"/>
<path d="M145.516 46H141.273V50.2424H145.516V46Z" fill="#594A39"/>
<path d="M149.758 46H145.516V50.2424H149.758V46Z" fill="#594A39"/>
<path d="M154 46H149.758V50.2424H154V46Z" fill="#594A39"/>
<path d="M18.2424 50.2422H14V54.4846H18.2424V50.2422Z" fill="#594A39"/>
<path d="M43.6975 50.2422H39.4551V54.4846H43.6975V50.2422Z" fill="#594A39"/>
<path d="M52.1819 50.2422H47.9395V54.4846H52.1819V50.2422Z" fill="#594A39"/>
<path d="M56.4241 50.2422H52.1816V54.4846H56.4241V50.2422Z" fill="#594A39"/>
<path d="M60.6682 50.2422H56.4258V54.4846H60.6682V50.2422Z" fill="#594A39"/>
<path d="M64.9104 50.2422H60.668V54.4846H64.9104V50.2422Z" fill="#594A39"/>
<path d="M69.1526 50.2422H64.9102V54.4846H69.1526V50.2422Z" fill="#594A39"/>
<path d="M73.3948 50.2422H69.1523V54.4846H73.3948V50.2422Z" fill="#594A39"/>
<path d="M86.1233 50.2422H81.8809V54.4846H86.1233V50.2422Z" fill="#594A39"/>
<path d="M90.3616 50.2422H86.1191V54.4846H90.3616V50.2422Z" fill="#594A39"/>
<path d="M103.09 50.2422H98.8477V54.4846H103.09V50.2422Z" fill="#594A39"/>
<path d="M111.574 50.2422H107.332V54.4846H111.574V50.2422Z" fill="#594A39"/>
<path d="M115.817 50.2422H111.574V54.4846H115.817V50.2422Z" fill="#594A39"/>
<path d="M128.545 50.2422H124.303V54.4846H128.545V50.2422Z" fill="#594A39"/>
<path d="M154 50.2422H149.758V54.4846H154V50.2422Z" fill="#594A39"/>
<path d="M18.2424 54.4854H14V58.7278H18.2424V54.4854Z" fill="#594A39"/>
<path d="M26.7268 54.4854H22.4844V58.7278H26.7268V54.4854Z" fill="#594A39"/>
<path d="M30.969 54.4854H26.7266V58.7278H30.969V54.4854Z" fill="#594A39"/>
<path d="M35.2131 54.4854H30.9707V58.7278H35.2131V54.4854Z" fill="#594A39"/>
<path d="M43.6975 54.4854H39.4551V58.7278H43.6975V54.4854Z" fill="#594A39"/>
<path d="M56.4241 54.4854H52.1816V58.7278H56.4241V54.4854Z" fill="#594A39"/>
<path d="M60.6682 54.4854H56.4258V58.7278H60.6682V54.4854Z" fill="#594A39"/>
<path d="M81.8791 54.4854H77.6367V58.7278H81.8791V54.4854Z" fill="#594A39"/>
<path d="M94.6057 54.4854H90.3633V58.7278H94.6057V54.4854Z" fill="#594A39"/>
<path d="M103.09 54.4854H98.8477V58.7278H103.09V54.4854Z" fill="#594A39"/>
<path d="M111.574 54.4854H107.332V58.7278H111.574V54.4854Z" fill="#594A39"/>
<path d="M115.817 54.4854H111.574V58.7278H115.817V54.4854Z" fill="#594A39"/>
<path d="M120.061 54.4854H115.818V58.7278H120.061V54.4854Z" fill="#594A39"/>
<path d="M128.545 54.4854H124.303V58.7278H128.545V54.4854Z" fill="#594A39"/>
<path d="M137.03 54.4854H132.787V58.7278H137.03V54.4854Z" fill="#594A39"/>
<path d="M141.272 54.4854H137.029V58.7278H141.272V54.4854Z" fill="#594A39"/>
<path d="M145.516 54.4854H141.273V58.7278H145.516V54.4854Z" fill="#594A39"/>
<path d="M154 54.4854H149.758V58.7278H154V54.4854Z" fill="#594A39"/>
<path d="M18.2424 58.7275H14V62.97H18.2424V58.7275Z" fill="#594A39"/>
<path d="M26.7268 58.7275H22.4844V62.97H26.7268V58.7275Z" fill="#594A39"/>
<path d="M30.969 58.7275H26.7266V62.97H30.969V58.7275Z" fill="#594A39"/>
<path d="M35.2131 58.7275H30.9707V62.97H35.2131V58.7275Z" fill="#594A39"/>
<path d="M43.6975 58.7275H39.4551V62.97H43.6975V58.7275Z" fill="#594A39"/>
<path d="M52.1819 58.7275H47.9395V62.97H52.1819V58.7275Z" fill="#594A39"/>
<path d="M56.4241 58.7275H52.1816V62.97H56.4241V58.7275Z" fill="#594A39"/>
<path d="M69.1526 58.7275H64.9102V62.97H69.1526V58.7275Z" fill="#594A39"/>
<path d="M77.637 58.7275H73.3945V62.97H77.637V58.7275Z" fill="#594A39"/>
<path d="M81.8791 58.7275H77.6367V62.97H81.8791V58.7275Z" fill="#594A39"/>
<path d="M90.3616 58.7275H86.1191V62.97H90.3616V58.7275Z" fill="#594A39"/>
<path d="M94.6057 58.7275H90.3633V62.97H94.6057V58.7275Z" fill="#594A39"/>
<path d="M98.8479 58.7275H94.6055V62.97H98.8479V58.7275Z" fill="#594A39"/>
<path d="M103.09 58.7275H98.8477V62.97H103.09V58.7275Z" fill="#594A39"/>
<path d="M107.332 58.7275H103.09V62.97H107.332V58.7275Z" fill="#594A39"/>
<path d="M111.574 58.7275H107.332V62.97H111.574V58.7275Z" fill="#594A39"/>
<path d="M115.817 58.7275H111.574V62.97H115.817V58.7275Z" fill="#594A39"/>
<path d="M128.545 58.7275H124.303V62.97H128.545V58.7275Z" fill="#594A39"/>
<path d="M137.03 58.7275H132.787V62.97H137.03V58.7275Z" fill="#594A39"/>
<path d="M141.272 58.7275H137.029V62.97H141.272V58.7275Z" fill="#594A39"/>
<path d="M145.516 58.7275H141.273V62.97H145.516V58.7275Z" fill="#594A39"/>
<path d="M154 58.7275H149.758V62.97H154V58.7275Z" fill="#594A39"/>
<path d="M18.2424 62.9697H14V67.2122H18.2424V62.9697Z" fill="#594A39"/>
<path d="M26.7268 62.9697H22.4844V67.2122H26.7268V62.9697Z" fill="#594A39"/>
<path d="M30.969 62.9697H26.7266V67.2122H30.969V62.9697Z" fill="#594A39"/>
<path d="M35.2131 62.9697H30.9707V67.2122H35.2131V62.9697Z" fill="#594A39"/>
<path d="M43.6975 62.9697H39.4551V67.2122H43.6975V62.9697Z" fill="#594A39"/>
<path d="M73.3948 62.9697H69.1523V67.2122H73.3948V62.9697Z" fill="#594A39"/>
<path d="M77.637 62.9697H73.3945V67.2122H77.637V62.9697Z" fill="#594A39"/>
<path d="M94.6057 62.9697H90.3633V67.2122H94.6057V62.9697Z" fill="#594A39"/>
<path d="M98.8479 62.9697H94.6055V67.2122H98.8479V62.9697Z" fill="#594A39"/>
<path d="M103.09 62.9697H98.8477V67.2122H103.09V62.9697Z" fill="#594A39"/>
<path d="M111.574 62.9697H107.332V67.2122H111.574V62.9697Z" fill="#594A39"/>
<path d="M115.817 62.9697H111.574V67.2122H115.817V62.9697Z" fill="#594A39"/>
<path d="M120.061 62.9697H115.818V67.2122H120.061V62.9697Z" fill="#594A39"/>
<path d="M128.545 62.9697H124.303V67.2122H128.545V62.9697Z" fill="#594A39"/>
<path d="M137.03 62.9697H132.787V67.2122H137.03V62.9697Z" fill="#594A39"/>
<path d="M141.272 62.9697H137.029V67.2122H141.272V62.9697Z" fill="#594A39"/>
<path d="M145.516 62.9697H141.273V67.2122H145.516V62.9697Z" fill="#594A39"/>
<path d="M154 62.9697H149.758V67.2122H154V62.9697Z" fill="#594A39"/>
<path d="M18.2424 67.2129H14V71.4553H18.2424V67.2129Z" fill="#594A39"/>
<path d="M43.6975 67.2129H39.4551V71.4553H43.6975V67.2129Z" fill="#594A39"/>
<path d="M56.4241 67.2129H52.1816V71.4553H56.4241V67.2129Z" fill="#594A39"/>
<path d="M64.9104 67.2129H60.668V71.4553H64.9104V67.2129Z" fill="#594A39"/>
<path d="M69.1526 67.2129H64.9102V71.4553H69.1526V67.2129Z" fill="#594A39"/>
<path d="M77.637 67.2129H73.3945V71.4553H77.637V67.2129Z" fill="#594A39"/>
<path d="M86.1233 67.2129H81.8809V71.4553H86.1233V67.2129Z" fill="#594A39"/>
<path d="M90.3616 67.2129H86.1191V71.4553H90.3616V67.2129Z" fill="#594A39"/>
<path d="M98.8479 67.2129H94.6055V71.4553H98.8479V67.2129Z" fill="#594A39"/>
<path d="M107.332 67.2129H103.09V71.4553H107.332V67.2129Z" fill="#594A39"/>
<path d="M120.061 67.2129H115.818V71.4553H120.061V67.2129Z" fill="#594A39"/>
<path d="M128.545 67.2129H124.303V71.4553H128.545V67.2129Z" fill="#594A39"/>
<path d="M154 67.2129H149.758V71.4553H154V67.2129Z" fill="#594A39"/>
<path d="M18.2424 71.4551H14V75.6975H18.2424V71.4551Z" fill="#594A39"/>
<path d="M22.4846 71.4551H18.2422V75.6975H22.4846V71.4551Z" fill="#594A39"/>
<path d="M26.7268 71.4551H22.4844V75.6975H26.7268V71.4551Z" fill="#594A39"/>
<path d="M30.969 71.4551H26.7266V75.6975H30.969V71.4551Z" fill="#594A39"/>
<path d="M35.2131 71.4551H30.9707V75.6975H35.2131V71.4551Z" fill="#594A39"/>
<path d="M39.4553 71.4551H35.2129V75.6975H39.4553V71.4551Z" fill="#594A39"/>
<path d="M43.6975 71.4551H39.4551V75.6975H43.6975V71.4551Z" fill="#594A39"/>
<path d="M52.1819 71.4551H47.9395V75.6975H52.1819V71.4551Z" fill="#594A39"/>
<path d="M60.6682 71.4551H56.4258V75.6975H60.6682V71.4551Z" fill="#594A39"/>
<path d="M69.1526 71.4551H64.9102V75.6975H69.1526V71.4551Z" fill="#594A39"/>
<path d="M77.637 71.4551H73.3945V75.6975H77.637V71.4551Z" fill="#594A39"/>
<path d="M86.1233 71.4551H81.8809V75.6975H86.1233V71.4551Z" fill="#594A39"/>
<path d="M94.6057 71.4551H90.3633V75.6975H94.6057V71.4551Z" fill="#594A39"/>
<path d="M103.09 71.4551H98.8477V75.6975H103.09V71.4551Z" fill="#594A39"/>
<path d="M111.574 71.4551H107.332V75.6975H111.574V71.4551Z" fill="#594A39"/>
<path d="M120.061 71.4551H115.818V75.6975H120.061V71.4551Z" fill="#594A39"/>
<path d="M128.545 71.4551H124.303V75.6975H128.545V71.4551Z" fill="#594A39"/>
<path d="M132.787 71.4551H128.545V75.6975H132.787V71.4551Z" fill="#594A39"/>
<path d="M137.03 71.4551H132.787V75.6975H137.03V71.4551Z" fill="#594A39"/>
<path d="M141.272 71.4551H137.029V75.6975H141.272V71.4551Z" fill="#594A39"/>
<path d="M145.516 71.4551H141.273V75.6975H145.516V71.4551Z" fill="#594A39"/>
<path d="M149.758 71.4551H145.516V75.6975H149.758V71.4551Z" fill="#594A39"/>
<path d="M154 71.4551H149.758V75.6975H154V71.4551Z" fill="#594A39"/>
<path d="M52.1819 75.6973H47.9395V79.9397H52.1819V75.6973Z" fill="#594A39"/>
<path d="M64.9104 75.6973H60.668V79.9397H64.9104V75.6973Z" fill="#594A39"/>
<path d="M69.1526 75.6973H64.9102V79.9397H69.1526V75.6973Z" fill="#594A39"/>
<path d="M81.8791 75.6973H77.6367V79.9397H81.8791V75.6973Z" fill="#594A39"/>
<path d="M86.1233 75.6973H81.8809V79.9397H86.1233V75.6973Z" fill="#594A39"/>
<path d="M90.3616 75.6973H86.1191V79.9397H90.3616V75.6973Z" fill="#594A39"/>
<path d="M94.6057 75.6973H90.3633V79.9397H94.6057V75.6973Z" fill="#594A39"/>
<path d="M98.8479 75.6973H94.6055V79.9397H98.8479V75.6973Z" fill="#594A39"/>
<path d="M120.061 75.6973H115.818V79.9397H120.061V75.6973Z" fill="#594A39"/>
<path d="M18.2424 79.9404H14V84.1829H18.2424V79.9404Z" fill="#594A39"/>
<path d="M26.7268 79.9404H22.4844V84.1829H26.7268V79.9404Z" fill="#594A39"/>
<path d="M30.969 79.9404H26.7266V84.1829H30.969V79.9404Z" fill="#594A39"/>
<path d="M39.4553 79.9404H35.2129V84.1829H39.4553V79.9404Z" fill="#594A39"/>
<path d="M43.6975 79.9404H39.4551V84.1829H43.6975V79.9404Z" fill="#594A39"/>
<path d="M47.9397 79.9404H43.6973V84.1829H47.9397V79.9404Z" fill="#594A39"/>
<path d="M56.4241 79.9404H52.1816V84.1829H56.4241V79.9404Z" fill="#594A39"/>
<path d="M69.1526 79.9404H64.9102V84.1829H69.1526V79.9404Z" fill="#594A39"/>
<path d="M77.637 79.9404H73.3945V84.1829H77.637V79.9404Z" fill="#594A39"/>
<path d="M90.3616 79.9404H86.1191V84.1829H90.3616V79.9404Z" fill="#594A39"/>
<path d="M98.8479 79.9404H94.6055V84.1829H98.8479V79.9404Z" fill="#594A39"/>
<path d="M107.332 79.9404H103.09V84.1829H107.332V79.9404Z" fill="#594A39"/>
<path d="M115.817 79.9404H111.574V84.1829H115.817V79.9404Z" fill="#594A39"/>
<path d="M128.545 79.9404H124.303V84.1829H128.545V79.9404Z" fill="#594A39"/>
<path d="M141.272 79.9404H137.029V84.1829H141.272V79.9404Z" fill="#594A39"/>
<path d="M149.758 79.9404H145.516V84.1829H149.758V79.9404Z" fill="#594A39"/>
<path d="M154 79.9404H149.758V84.1829H154V79.9404Z" fill="#594A39"/>
<path d="M26.7268 84.1816H22.4844V88.4241H26.7268V84.1816Z" fill="#594A39"/>
<path d="M30.969 84.1816H26.7266V88.4241H30.969V84.1816Z" fill="#594A39"/>
<path d="M39.4553 84.1816H35.2129V88.4241H39.4553V84.1816Z" fill="#594A39"/>
<path d="M56.4241 84.1816H52.1816V88.4241H56.4241V84.1816Z" fill="#594A39"/>
<path d="M60.6682 84.1816H56.4258V88.4241H60.6682V84.1816Z" fill="#594A39"/>
<path d="M64.9104 84.1816H60.668V88.4241H64.9104V84.1816Z" fill="#594A39"/>
<path d="M77.637 84.1816H73.3945V88.4241H77.637V84.1816Z" fill="#594A39"/>
<path d="M86.1233 84.1816H81.8809V88.4241H86.1233V84.1816Z" fill="#594A39"/>
<path d="M94.6057 84.1816H90.3633V88.4241H94.6057V84.1816Z" fill="#594A39"/>
<path d="M98.8479 84.1816H94.6055V88.4241H98.8479V84.1816Z" fill="#594A39"/>
<path d="M103.09 84.1816H98.8477V88.4241H103.09V84.1816Z" fill="#594A39"/>
<path d="M107.332 84.1816H103.09V88.4241H107.332V84.1816Z" fill="#594A39"/>
<path d="M115.817 84.1816H111.574V88.4241H115.817V84.1816Z" fill="#594A39"/>
<path d="M120.061 84.1816H115.818V88.4241H120.061V84.1816Z" fill="#594A39"/>
<path d="M128.545 84.1816H124.303V88.4241H128.545V84.1816Z" fill="#594A39"/>
<path d="M132.787 84.1816H128.545V88.4241H132.787V84.1816Z" fill="#594A39"/>
<path d="M141.272 84.1816H137.029V88.4241H141.272V84.1816Z" fill="#594A39"/>
<path d="M145.516 84.1816H141.273V88.4241H145.516V84.1816Z" fill="#594A39"/>
<path d="M154 84.1816H149.758V88.4241H154V84.1816Z" fill="#594A39"/>
<path d="M18.2424 88.4238H14V92.6663H18.2424V88.4238Z" fill="#594A39"/>
<path d="M22.4846 88.4238H18.2422V92.6663H22.4846V88.4238Z" fill="#594A39"/>
<path d="M35.2131 88.4238H30.9707V92.6663H35.2131V88.4238Z" fill="#594A39"/>
<path d="M43.6975 88.4238H39.4551V92.6663H43.6975V88.4238Z" fill="#594A39"/>
<path d="M47.9397 88.4238H43.6973V92.6663H47.9397V88.4238Z" fill="#594A39"/>
<path d="M52.1819 88.4238H47.9395V92.6663H52.1819V88.4238Z" fill="#594A39"/>
<path d="M77.637 88.4238H73.3945V92.6663H77.637V88.4238Z" fill="#594A39"/>
<path d="M90.3616 88.4238H86.1191V92.6663H90.3616V88.4238Z" fill="#594A39"/>
<path d="M107.332 88.4238H103.09V92.6663H107.332V88.4238Z" fill="#594A39"/>
<path d="M111.574 88.4238H107.332V92.6663H111.574V88.4238Z" fill="#594A39"/>
<path d="M115.817 88.4238H111.574V92.6663H115.817V88.4238Z" fill="#594A39"/>
<path d="M128.545 88.4238H124.303V92.6663H128.545V88.4238Z" fill="#594A39"/>
<path d="M132.787 88.4238H128.545V92.6663H132.787V88.4238Z" fill="#594A39"/>
<path d="M137.03 88.4238H132.787V92.6663H137.03V88.4238Z" fill="#594A39"/>
<path d="M141.272 88.4238H137.029V92.6663H141.272V88.4238Z" fill="#594A39"/>
<path d="M149.758 88.4238H145.516V92.6663H149.758V88.4238Z" fill="#594A39"/>
<path d="M154 88.4238H149.758V92.6663H154V88.4238Z" fill="#594A39"/>
<path d="M18.2424 92.666H14V96.9084H18.2424V92.666Z" fill="#594A39"/>
<path d="M22.4846 92.666H18.2422V96.9084H22.4846V92.666Z" fill="#594A39"/>
<path d="M56.4241 92.666H52.1816V96.9084H56.4241V92.666Z" fill="#594A39"/>
<path d="M60.6682 92.666H56.4258V96.9084H60.6682V92.666Z" fill="#594A39"/>
<path d="M73.3948 92.666H69.1523V96.9084H73.3948V92.666Z" fill="#594A39"/>
<path d="M77.637 92.666H73.3945V96.9084H77.637V92.666Z" fill="#594A39"/>
<path d="M98.8479 92.666H94.6055V96.9084H98.8479V92.666Z" fill="#594A39"/>
<path d="M120.061 92.666H115.818V96.9084H120.061V92.666Z" fill="#594A39"/>
<path d="M124.303 92.666H120.061V96.9084H124.303V92.666Z" fill="#594A39"/>
<path d="M128.545 92.666H124.303V96.9084H128.545V92.666Z" fill="#594A39"/>
<path d="M132.787 92.666H128.545V96.9084H132.787V92.666Z" fill="#594A39"/>
<path d="M141.272 92.666H137.029V96.9084H141.272V92.666Z" fill="#594A39"/>
<path d="M149.758 92.666H145.516V96.9084H149.758V92.666Z" fill="#594A39"/>
<path d="M22.4846 96.9092H18.2422V101.152H22.4846V96.9092Z" fill="#594A39"/>
<path d="M26.7268 96.9092H22.4844V101.152H26.7268V96.9092Z" fill="#594A39"/>
<path d="M35.2131 96.9092H30.9707V101.152H35.2131V96.9092Z" fill="#594A39"/>
<path d="M43.6975 96.9092H39.4551V101.152H43.6975V96.9092Z" fill="#594A39"/>
<path d="M47.9397 96.9092H43.6973V101.152H47.9397V96.9092Z" fill="#594A39"/>
<path d="M56.4241 96.9092H52.1816V101.152H56.4241V96.9092Z" fill="#594A39"/>
<path d="M81.8791 96.9092H77.6367V101.152H81.8791V96.9092Z" fill="#594A39"/>
<path d="M86.1233 96.9092H81.8809V101.152H86.1233V96.9092Z" fill="#594A39"/>
<path d="M90.3616 96.9092H86.1191V101.152H90.3616V96.9092Z" fill="#594A39"/>
<path d="M94.6057 96.9092H90.3633V101.152H94.6057V96.9092Z" fill="#594A39"/>
<path d="M103.09 96.9092H98.8477V101.152H103.09V96.9092Z" fill="#594A39"/>
<path d="M124.303 96.9092H120.061V101.152H124.303V96.9092Z" fill="#594A39"/>
<path d="M137.03 96.9092H132.787V101.152H137.03V96.9092Z" fill="#594A39"/>
<path d="M141.272 96.9092H137.029V101.152H141.272V96.9092Z" fill="#594A39"/>
<path d="M149.758 96.9092H145.516V101.152H149.758V96.9092Z" fill="#594A39"/>
<path d="M26.7268 101.151H22.4844V105.394H26.7268V101.151Z" fill="#594A39"/>
<path d="M52.1819 101.151H47.9395V105.394H52.1819V101.151Z" fill="#594A39"/>
<path d="M56.4241 101.151H52.1816V105.394H56.4241V101.151Z" fill="#594A39"/>
<path d="M73.3948 101.151H69.1523V105.394H73.3948V101.151Z" fill="#594A39"/>
<path d="M81.8791 101.151H77.6367V105.394H81.8791V101.151Z" fill="#594A39"/>
<path d="M94.6057 101.151H90.3633V105.394H94.6057V101.151Z" fill="#594A39"/>
<path d="M98.8479 101.151H94.6055V105.394H98.8479V101.151Z" fill="#594A39"/>
<path d="M103.09 101.151H98.8477V105.394H103.09V101.151Z" fill="#594A39"/>
<path d="M107.332 101.151H103.09V105.394H107.332V101.151Z" fill="#594A39"/>
<path d="M115.817 101.151H111.574V105.394H115.817V101.151Z" fill="#594A39"/>
<path d="M120.061 101.151H115.818V105.394H120.061V101.151Z" fill="#594A39"/>
<path d="M132.787 101.151H128.545V105.394H132.787V101.151Z" fill="#594A39"/>
<path d="M149.758 101.151H145.516V105.394H149.758V101.151Z" fill="#594A39"/>
<path d="M18.2424 105.394H14V109.636H18.2424V105.394Z" fill="#594A39"/>
<path d="M26.7268 105.394H22.4844V109.636H26.7268V105.394Z" fill="#594A39"/>
<path d="M30.969 105.394H26.7266V109.636H30.969V105.394Z" fill="#594A39"/>
<path d="M43.6975 105.394H39.4551V109.636H43.6975V105.394Z" fill="#594A39"/>
<path d="M56.4241 105.394H52.1816V109.636H56.4241V105.394Z" fill="#594A39"/>
<path d="M60.6682 105.394H56.4258V109.636H60.6682V105.394Z" fill="#594A39"/>
<path d="M69.1526 105.394H64.9102V109.636H69.1526V105.394Z" fill="#594A39"/>
<path d="M73.3948 105.394H69.1523V109.636H73.3948V105.394Z" fill="#594A39"/>
<path d="M86.1233 105.394H81.8809V109.636H86.1233V105.394Z" fill="#594A39"/>
<path d="M90.3616 105.394H86.1191V109.636H90.3616V105.394Z" fill="#594A39"/>
<path d="M94.6057 105.394H90.3633V109.636H94.6057V105.394Z" fill="#594A39"/>
<path d="M98.8479 105.394H94.6055V109.636H98.8479V105.394Z" fill="#594A39"/>
<path d="M103.09 105.394H98.8477V109.636H103.09V105.394Z" fill="#594A39"/>
<path d="M111.574 105.394H107.332V109.636H111.574V105.394Z" fill="#594A39"/>
<path d="M128.545 105.394H124.303V109.636H128.545V105.394Z" fill="#594A39"/>
<path d="M132.787 105.394H128.545V109.636H132.787V105.394Z" fill="#594A39"/>
<path d="M137.03 105.394H132.787V109.636H137.03V105.394Z" fill="#594A39"/>
<path d="M141.272 105.394H137.029V109.636H141.272V105.394Z" fill="#594A39"/>
<path d="M18.2424 109.637H14V113.879H18.2424V109.637Z" fill="#594A39"/>
<path d="M22.4846 109.637H18.2422V113.879H22.4846V109.637Z" fill="#594A39"/>
<path d="M30.969 109.637H26.7266V113.879H30.969V109.637Z" fill="#594A39"/>
<path d="M35.2131 109.637H30.9707V113.879H35.2131V109.637Z" fill="#594A39"/>
<path d="M47.9397 109.637H43.6973V113.879H47.9397V109.637Z" fill="#594A39"/>
<path d="M64.9104 109.637H60.668V113.879H64.9104V109.637Z" fill="#594A39"/>
<path d="M69.1526 109.637H64.9102V113.879H69.1526V109.637Z" fill="#594A39"/>
<path d="M73.3948 109.637H69.1523V113.879H73.3948V109.637Z" fill="#594A39"/>
<path d="M77.637 109.637H73.3945V113.879H77.637V109.637Z" fill="#594A39"/>
<path d="M81.8791 109.637H77.6367V113.879H81.8791V109.637Z" fill="#594A39"/>
<path d="M94.6057 109.637H90.3633V113.879H94.6057V109.637Z" fill="#594A39"/>
<path d="M103.09 109.637H98.8477V113.879H103.09V109.637Z" fill="#594A39"/>
<path d="M107.332 109.637H103.09V113.879H107.332V109.637Z" fill="#594A39"/>
<path d="M111.574 109.637H107.332V113.879H111.574V109.637Z" fill="#594A39"/>
<path d="M120.061 109.637H115.818V113.879H120.061V109.637Z" fill="#594A39"/>
<path d="M124.303 109.637H120.061V113.879H124.303V109.637Z" fill="#594A39"/>
<path d="M128.545 109.637H124.303V113.879H128.545V109.637Z" fill="#594A39"/>
<path d="M132.787 109.637H128.545V113.879H132.787V109.637Z" fill="#594A39"/>
<path d="M141.272 109.637H137.029V113.879H141.272V109.637Z" fill="#594A39"/>
<path d="M145.516 109.637H141.273V113.879H145.516V109.637Z" fill="#594A39"/>
<path d="M18.2424 113.879H14V118.121H18.2424V113.879Z" fill="#594A39"/>
<path d="M26.7268 113.879H22.4844V118.121H26.7268V113.879Z" fill="#594A39"/>
<path d="M30.969 113.879H26.7266V118.121H30.969V113.879Z" fill="#594A39"/>
<path d="M35.2131 113.879H30.9707V118.121H35.2131V113.879Z" fill="#594A39"/>
<path d="M39.4553 113.879H35.2129V118.121H39.4553V113.879Z" fill="#594A39"/>
<path d="M43.6975 113.879H39.4551V118.121H43.6975V113.879Z" fill="#594A39"/>
<path d="M47.9397 113.879H43.6973V118.121H47.9397V113.879Z" fill="#594A39"/>
<path d="M52.1819 113.879H47.9395V118.121H52.1819V113.879Z" fill="#594A39"/>
<path d="M64.9104 113.879H60.668V118.121H64.9104V113.879Z" fill="#594A39"/>
<path d="M69.1526 113.879H64.9102V118.121H69.1526V113.879Z" fill="#594A39"/>
<path d="M73.3948 113.879H69.1523V118.121H73.3948V113.879Z" fill="#594A39"/>
<path d="M81.8791 113.879H77.6367V118.121H81.8791V113.879Z" fill="#594A39"/>
<path d="M86.1233 113.879H81.8809V118.121H86.1233V113.879Z" fill="#594A39"/>
<path d="M94.6057 113.879H90.3633V118.121H94.6057V113.879Z" fill="#594A39"/>
<path d="M103.09 113.879H98.8477V118.121H103.09V113.879Z" fill="#594A39"/>
<path d="M107.332 113.879H103.09V118.121H107.332V113.879Z" fill="#594A39"/>
<path d="M111.574 113.879H107.332V118.121H111.574V113.879Z" fill="#594A39"/>
<path d="M124.303 113.879H120.061V118.121H124.303V113.879Z" fill="#594A39"/>
<path d="M128.545 113.879H124.303V118.121H128.545V113.879Z" fill="#594A39"/>
<path d="M137.03 113.879H132.787V118.121H137.03V113.879Z" fill="#594A39"/>
<path d="M145.516 113.879H141.273V118.121H145.516V113.879Z" fill="#594A39"/>
<path d="M30.969 118.121H26.7266V122.364H30.969V118.121Z" fill="#594A39"/>
<path d="M35.2131 118.121H30.9707V122.364H35.2131V118.121Z" fill="#594A39"/>
<path d="M39.4553 118.121H35.2129V122.364H39.4553V118.121Z" fill="#594A39"/>
<path d="M47.9397 118.121H43.6973V122.364H47.9397V118.121Z" fill="#594A39"/>
<path d="M56.4241 118.121H52.1816V122.364H56.4241V118.121Z" fill="#594A39"/>
<path d="M60.6682 118.121H56.4258V122.364H60.6682V118.121Z" fill="#594A39"/>
<path d="M69.1526 118.121H64.9102V122.364H69.1526V118.121Z" fill="#594A39"/>
<path d="M81.8791 118.121H77.6367V122.364H81.8791V118.121Z" fill="#594A39"/>
<path d="M103.09 118.121H98.8477V122.364H103.09V118.121Z" fill="#594A39"/>
<path d="M107.332 118.121H103.09V122.364H107.332V118.121Z" fill="#594A39"/>
<path d="M115.817 118.121H111.574V122.364H115.817V118.121Z" fill="#594A39"/>
<path d="M120.061 118.121H115.818V122.364H120.061V118.121Z" fill="#594A39"/>
<path d="M124.303 118.121H120.061V122.364H124.303V118.121Z" fill="#594A39"/>
<path d="M128.545 118.121H124.303V122.364H128.545V118.121Z" fill="#594A39"/>
<path d="M137.03 118.121H132.787V122.364H137.03V118.121Z" fill="#594A39"/>
<path d="M141.272 118.121H137.029V122.364H141.272V118.121Z" fill="#594A39"/>
<path d="M154 118.121H149.758V122.364H154V118.121Z" fill="#594A39"/>
<path d="M22.4846 122.363H18.2422V126.606H22.4846V122.363Z" fill="#594A39"/>
<path d="M43.6975 122.363H39.4551V126.606H43.6975V122.363Z" fill="#594A39"/>
<path d="M52.1819 122.363H47.9395V126.606H52.1819V122.363Z" fill="#594A39"/>
<path d="M60.6682 122.363H56.4258V126.606H60.6682V122.363Z" fill="#594A39"/>
<path d="M64.9104 122.363H60.668V126.606H64.9104V122.363Z" fill="#594A39"/>
<path d="M77.637 122.363H73.3945V126.606H77.637V122.363Z" fill="#594A39"/>
<path d="M81.8791 122.363H77.6367V126.606H81.8791V122.363Z" fill="#594A39"/>
<path d="M90.3616 122.363H86.1191V126.606H90.3616V122.363Z" fill="#594A39"/>
<path d="M111.574 122.363H107.332V126.606H111.574V122.363Z" fill="#594A39"/>
<path d="M120.061 122.363H115.818V126.606H120.061V122.363Z" fill="#594A39"/>
<path d="M124.303 122.363H120.061V126.606H124.303V122.363Z" fill="#594A39"/>
<path d="M132.787 122.363H128.545V126.606H132.787V122.363Z" fill="#594A39"/>
<path d="M137.03 122.363H132.787V126.606H137.03V122.363Z" fill="#594A39"/>
<path d="M145.516 122.363H141.273V126.606H145.516V122.363Z" fill="#594A39"/>
<path d="M149.758 122.363H145.516V126.606H149.758V122.363Z" fill="#594A39"/>
<path d="M47.9397 126.606H43.6973V130.849H47.9397V126.606Z" fill="#594A39"/>
<path d="M56.4241 126.606H52.1816V130.849H56.4241V126.606Z" fill="#594A39"/>
<path d="M77.637 126.606H73.3945V130.849H77.637V126.606Z" fill="#594A39"/>
<path d="M81.8791 126.606H77.6367V130.849H81.8791V126.606Z" fill="#594A39"/>
<path d="M86.1233 126.606H81.8809V130.849H86.1233V126.606Z" fill="#594A39"/>
<path d="M90.3616 126.606H86.1191V130.849H90.3616V126.606Z" fill="#594A39"/>
<path d="M98.8479 126.606H94.6055V130.849H98.8479V126.606Z" fill="#594A39"/>
<path d="M103.09 126.606H98.8477V130.849H103.09V126.606Z" fill="#594A39"/>
<path d="M111.574 126.606H107.332V130.849H111.574V126.606Z" fill="#594A39"/>
<path d="M128.545 126.606H124.303V130.849H128.545V126.606Z" fill="#594A39"/>
<path d="M137.03 126.606H132.787V130.849H137.03V126.606Z" fill="#594A39"/>
<path d="M149.758 126.606H145.516V130.849H149.758V126.606Z" fill="#594A39"/>
<path d="M154 126.606H149.758V130.849H154V126.606Z" fill="#594A39"/>
<path d="M18.2424 130.849H14V135.091H18.2424V130.849Z" fill="#594A39"/>
<path d="M22.4846 130.849H18.2422V135.091H22.4846V130.849Z" fill="#594A39"/>
<path d="M26.7268 130.849H22.4844V135.091H26.7268V130.849Z" fill="#594A39"/>
<path d="M30.969 130.849H26.7266V135.091H30.969V130.849Z" fill="#594A39"/>
<path d="M43.6975 130.849H39.4551V135.091H43.6975V130.849Z" fill="#594A39"/>
<path d="M47.9397 130.849H43.6973V135.091H47.9397V130.849Z" fill="#594A39"/>
<path d="M52.1819 130.849H47.9395V135.091H52.1819V130.849Z" fill="#594A39"/>
<path d="M60.6682 130.849H56.4258V135.091H60.6682V130.849Z" fill="#594A39"/>
<path d="M64.9104 130.849H60.668V135.091H64.9104V130.849Z" fill="#594A39"/>
<path d="M81.8791 130.849H77.6367V135.091H81.8791V130.849Z" fill="#594A39"/>
<path d="M90.3616 130.849H86.1191V135.091H90.3616V130.849Z" fill="#594A39"/>
<path d="M98.8479 130.849H94.6055V135.091H98.8479V130.849Z" fill="#594A39"/>
<path d="M103.09 130.849H98.8477V135.091H103.09V130.849Z" fill="#594A39"/>
<path d="M107.332 130.849H103.09V135.091H107.332V130.849Z" fill="#594A39"/>
<path d="M111.574 130.849H107.332V135.091H111.574V130.849Z" fill="#594A39"/>
<path d="M124.303 130.849H120.061V135.091H124.303V130.849Z" fill="#594A39"/>
<path d="M141.272 130.849H137.029V135.091H141.272V130.849Z" fill="#594A39"/>
<path d="M145.516 130.849H141.273V135.091H145.516V130.849Z" fill="#594A39"/>
<path d="M149.758 130.849H145.516V135.091H149.758V130.849Z" fill="#594A39"/>
<path d="M154 130.849H149.758V135.091H154V130.849Z" fill="#594A39"/>
<path d="M39.4553 135.091H35.2129V139.333H39.4553V135.091Z" fill="#594A39"/>
<path d="M52.1819 135.091H47.9395V139.333H52.1819V135.091Z" fill="#594A39"/>
<path d="M56.4241 135.091H52.1816V139.333H56.4241V135.091Z" fill="#594A39"/>
<path d="M73.3948 135.091H69.1523V139.333H73.3948V135.091Z" fill="#594A39"/>
<path d="M98.8479 135.091H94.6055V139.333H98.8479V135.091Z" fill="#594A39"/>
<path d="M107.332 135.091H103.09V139.333H107.332V135.091Z" fill="#594A39"/>
<path d="M111.574 135.091H107.332V139.333H111.574V135.091Z" fill="#594A39"/>
<path d="M115.817 135.091H111.574V139.333H115.817V135.091Z" fill="#594A39"/>
<path d="M128.545 135.091H124.303V139.333H128.545V135.091Z" fill="#594A39"/>
<path d="M145.516 135.091H141.273V139.333H145.516V135.091Z" fill="#594A39"/>
<path d="M154 135.091H149.758V139.333H154V135.091Z" fill="#594A39"/>
<path d="M18.2424 139.334H14V143.576H18.2424V139.334Z" fill="#594A39"/>
<path d="M22.4846 139.334H18.2422V143.576H22.4846V139.334Z" fill="#594A39"/>
<path d="M26.7268 139.334H22.4844V143.576H26.7268V139.334Z" fill="#594A39"/>
<path d="M30.969 139.334H26.7266V143.576H30.969V139.334Z" fill="#594A39"/>
<path d="M39.4553 139.334H35.2129V143.576H39.4553V139.334Z" fill="#594A39"/>
<path d="M43.6975 139.334H39.4551V143.576H43.6975V139.334Z" fill="#594A39"/>
<path d="M47.9397 139.334H43.6973V143.576H47.9397V139.334Z" fill="#594A39"/>
<path d="M52.1819 139.334H47.9395V143.576H52.1819V139.334Z" fill="#594A39"/>
<path d="M60.6682 139.334H56.4258V143.576H60.6682V139.334Z" fill="#594A39"/>
<path d="M73.3948 139.334H69.1523V143.576H73.3948V139.334Z" fill="#594A39"/>
<path d="M103.09 139.334H98.8477V143.576H103.09V139.334Z" fill="#594A39"/>
<path d="M107.332 139.334H103.09V143.576H107.332V139.334Z" fill="#594A39"/>
<path d="M115.817 139.334H111.574V143.576H115.817V139.334Z" fill="#594A39"/>
<path d="M128.545 139.334H124.303V143.576H128.545V139.334Z" fill="#594A39"/>
<path d="M132.787 139.334H128.545V143.576H132.787V139.334Z" fill="#594A39"/>
<path d="M137.03 139.334H132.787V143.576H137.03V139.334Z" fill="#594A39"/>
<path d="M145.516 139.334H141.273V143.576H145.516V139.334Z" fill="#594A39"/>
<path d="M149.758 139.334H145.516V143.576H149.758V139.334Z" fill="#594A39"/>
<path d="M154 139.334H149.758V143.576H154V139.334Z" fill="#594A39"/>
<path d="M18.2424 143.576H14V147.819H18.2424V143.576Z" fill="#594A39"/>
<path d="M30.969 143.576H26.7266V147.819H30.969V143.576Z" fill="#594A39"/>
<path d="M35.2131 143.576H30.9707V147.819H35.2131V143.576Z" fill="#594A39"/>
<path d="M47.9397 143.576H43.6973V147.819H47.9397V143.576Z" fill="#594A39"/>
<path d="M52.1819 143.576H47.9395V147.819H52.1819V143.576Z" fill="#594A39"/>
<path d="M56.4241 143.576H52.1816V147.819H56.4241V143.576Z" fill="#594A39"/>
<path d="M64.9104 143.576H60.668V147.819H64.9104V143.576Z" fill="#594A39"/>
<path d="M69.1526 143.576H64.9102V147.819H69.1526V143.576Z" fill="#594A39"/>
<path d="M77.637 143.576H73.3945V147.819H77.637V143.576Z" fill="#594A39"/>
<path d="M86.1233 143.576H81.8809V147.819H86.1233V143.576Z" fill="#594A39"/>
<path d="M94.6057 143.576H90.3633V147.819H94.6057V143.576Z" fill="#594A39"/>
<path d="M103.09 143.576H98.8477V147.819H103.09V143.576Z" fill="#594A39"/>
<path d="M111.574 143.576H107.332V147.819H111.574V143.576Z" fill="#594A39"/>
<path d="M115.817 143.576H111.574V147.819H115.817V143.576Z" fill="#594A39"/>
<path d="M128.545 143.576H124.303V147.819H128.545V143.576Z" fill="#594A39"/>
<path d="M137.03 143.576H132.787V147.819H137.03V143.576Z" fill="#594A39"/>
<path d="M149.758 143.576H145.516V147.819H149.758V143.576Z" fill="#594A39"/>
<path d="M22.4846 147.818H18.2422V152.061H22.4846V147.818Z" fill="#594A39"/>
<path d="M26.7268 147.818H22.4844V152.061H26.7268V147.818Z" fill="#594A39"/>
<path d="M30.969 147.818H26.7266V152.061H30.969V147.818Z" fill="#594A39"/>
<path d="M35.2131 147.818H30.9707V152.061H35.2131V147.818Z" fill="#594A39"/>
<path d="M43.6975 147.818H39.4551V152.061H43.6975V147.818Z" fill="#594A39"/>
<path d="M47.9397 147.818H43.6973V152.061H47.9397V147.818Z" fill="#594A39"/>
<path d="M56.4241 147.818H52.1816V152.061H56.4241V147.818Z" fill="#594A39"/>
<path d="M60.6682 147.818H56.4258V152.061H60.6682V147.818Z" fill="#594A39"/>
<path d="M64.9104 147.818H60.668V152.061H64.9104V147.818Z" fill="#594A39"/>
<path d="M77.637 147.818H73.3945V152.061H77.637V147.818Z" fill="#594A39"/>
<path d="M90.3616 147.818H86.1191V152.061H90.3616V147.818Z" fill="#594A39"/>
<path d="M111.574 147.818H107.332V152.061H111.574V147.818Z" fill="#594A39"/>
<path d="M115.817 147.818H111.574V152.061H115.817V147.818Z" fill="#594A39"/>
<path d="M120.061 147.818H115.818V152.061H120.061V147.818Z" fill="#594A39"/>
<path d="M124.303 147.818H120.061V152.061H124.303V147.818Z" fill="#594A39"/>
<path d="M128.545 147.818H124.303V152.061H128.545V147.818Z" fill="#594A39"/>
<path d="M132.787 147.818H128.545V152.061H132.787V147.818Z" fill="#594A39"/>
<path d="M137.03 147.818H132.787V152.061H137.03V147.818Z" fill="#594A39"/>
<path d="M149.758 147.818H145.516V152.061H149.758V147.818Z" fill="#594A39"/>
<path d="M154 147.818H149.758V152.061H154V147.818Z" fill="#594A39"/>
<path d="M52.1819 152.06H47.9395V156.302H52.1819V152.06Z" fill="#594A39"/>
<path d="M60.6682 152.06H56.4258V156.302H60.6682V152.06Z" fill="#594A39"/>
<path d="M69.1526 152.06H64.9102V156.302H69.1526V152.06Z" fill="#594A39"/>
<path d="M73.3948 152.06H69.1523V156.302H73.3948V152.06Z" fill="#594A39"/>
<path d="M81.8791 152.06H77.6367V156.302H81.8791V152.06Z" fill="#594A39"/>
<path d="M98.8479 152.06H94.6055V156.302H98.8479V152.06Z" fill="#594A39"/>
<path d="M111.574 152.06H107.332V156.302H111.574V152.06Z" fill="#594A39"/>
<path d="M120.061 152.06H115.818V156.302H120.061V152.06Z" fill="#594A39"/>
<path d="M137.03 152.06H132.787V156.302H137.03V152.06Z" fill="#594A39"/>
<path d="M141.272 152.06H137.029V156.302H141.272V152.06Z" fill="#594A39"/>
<path d="M18.2424 156.303H14V160.545H18.2424V156.303Z" fill="#594A39"/>
<path d="M22.4846 156.303H18.2422V160.545H22.4846V156.303Z" fill="#594A39"/>
<path d="M26.7268 156.303H22.4844V160.545H26.7268V156.303Z" fill="#594A39"/>
<path d="M30.969 156.303H26.7266V160.545H30.969V156.303Z" fill="#594A39"/>
<path d="M35.2131 156.303H30.9707V160.545H35.2131V156.303Z" fill="#594A39"/>
<path d="M39.4553 156.303H35.2129V160.545H39.4553V156.303Z" fill="#594A39"/>
<path d="M43.6975 156.303H39.4551V160.545H43.6975V156.303Z" fill="#594A39"/>
<path d="M52.1819 156.303H47.9395V160.545H52.1819V156.303Z" fill="#594A39"/>
<path d="M56.4241 156.303H52.1816V160.545H56.4241V156.303Z" fill="#594A39"/>
<path d="M69.1526 156.303H64.9102V160.545H69.1526V156.303Z" fill="#594A39"/>
<path d="M73.3948 156.303H69.1523V160.545H73.3948V156.303Z" fill="#594A39"/>
<path d="M77.637 156.303H73.3945V160.545H77.637V156.303Z" fill="#594A39"/>
<path d="M98.8479 156.303H94.6055V160.545H98.8479V156.303Z" fill="#594A39"/>
<path d="M111.574 156.303H107.332V160.545H111.574V156.303Z" fill="#594A39"/>
<path d="M115.817 156.303H111.574V160.545H115.817V156.303Z" fill="#594A39"/>
<path d="M120.061 156.303H115.818V160.545H120.061V156.303Z" fill="#594A39"/>
<path d="M128.545 156.303H124.303V160.545H128.545V156.303Z" fill="#594A39"/>
<path d="M137.03 156.303H132.787V160.545H137.03V156.303Z" fill="#594A39"/>
<path d="M18.2424 160.545H14V164.787H18.2424V160.545Z" fill="#594A39"/>
<path d="M43.6975 160.545H39.4551V164.787H43.6975V160.545Z" fill="#594A39"/>
<path d="M52.1819 160.545H47.9395V164.787H52.1819V160.545Z" fill="#594A39"/>
<path d="M56.4241 160.545H52.1816V164.787H56.4241V160.545Z" fill="#594A39"/>
<path d="M69.1526 160.545H64.9102V164.787H69.1526V160.545Z" fill="#594A39"/>
<path d="M81.8791 160.545H77.6367V164.787H81.8791V160.545Z" fill="#594A39"/>
<path d="M86.1233 160.545H81.8809V164.787H86.1233V160.545Z" fill="#594A39"/>
<path d="M94.6057 160.545H90.3633V164.787H94.6057V160.545Z" fill="#594A39"/>
<path d="M103.09 160.545H98.8477V164.787H103.09V160.545Z" fill="#594A39"/>
<path d="M107.332 160.545H103.09V164.787H107.332V160.545Z" fill="#594A39"/>
<path d="M111.574 160.545H107.332V164.787H111.574V160.545Z" fill="#594A39"/>
<path d="M115.817 160.545H111.574V164.787H115.817V160.545Z" fill="#594A39"/>
<path d="M120.061 160.545H115.818V164.787H120.061V160.545Z" fill="#594A39"/>
<path d="M137.03 160.545H132.787V164.787H137.03V160.545Z" fill="#594A39"/>
<path d="M141.272 160.545H137.029V164.787H141.272V160.545Z" fill="#594A39"/>
<path d="M145.516 160.545H141.273V164.787H145.516V160.545Z" fill="#594A39"/>
<path d="M149.758 160.545H145.516V164.787H149.758V160.545Z" fill="#594A39"/>
<path d="M154 160.545H149.758V164.787H154V160.545Z" fill="#594A39"/>
<path d="M18.2424 164.787H14V169.03H18.2424V164.787Z" fill="#594A39"/>
<path d="M26.7268 164.787H22.4844V169.03H26.7268V164.787Z" fill="#594A39"/>
<path d="M30.969 164.787H26.7266V169.03H30.969V164.787Z" fill="#594A39"/>
<path d="M35.2131 164.787H30.9707V169.03H35.2131V164.787Z" fill="#594A39"/>
<path d="M43.6975 164.787H39.4551V169.03H43.6975V164.787Z" fill="#594A39"/>
<path d="M56.4241 164.787H52.1816V169.03H56.4241V164.787Z" fill="#594A39"/>
<path d="M64.9104 164.787H60.668V169.03H64.9104V164.787Z" fill="#594A39"/>
<path d="M69.1526 164.787H64.9102V169.03H69.1526V164.787Z" fill="#594A39"/>
<path d="M81.8791 164.787H77.6367V169.03H81.8791V164.787Z" fill="#594A39"/>
<path d="M86.1233 164.787H81.8809V169.03H86.1233V164.787Z" fill="#594A39"/>
<path d="M107.332 164.787H103.09V169.03H107.332V164.787Z" fill="#594A39"/>
<path d="M115.817 164.787H111.574V169.03H115.817V164.787Z" fill="#594A39"/>
<path d="M120.061 164.787H115.818V169.03H120.061V164.787Z" fill="#594A39"/>
<path d="M124.303 164.787H120.061V169.03H124.303V164.787Z" fill="#594A39"/>
<path d="M128.545 164.787H124.303V169.03H128.545V164.787Z" fill="#594A39"/>
<path d="M132.787 164.787H128.545V169.03H132.787V164.787Z" fill="#594A39"/>
<path d="M137.03 164.787H132.787V169.03H137.03V164.787Z" fill="#594A39"/>
<path d="M145.516 164.787H141.273V169.03H145.516V164.787Z" fill="#594A39"/>
<path d="M154 164.787H149.758V169.03H154V164.787Z" fill="#594A39"/>
<path d="M18.2424 169.03H14V173.273H18.2424V169.03Z" fill="#594A39"/>
<path d="M26.7268 169.03H22.4844V173.273H26.7268V169.03Z" fill="#594A39"/>
<path d="M30.969 169.03H26.7266V173.273H30.969V169.03Z" fill="#594A39"/>
<path d="M35.2131 169.03H30.9707V173.273H35.2131V169.03Z" fill="#594A39"/>
<path d="M43.6975 169.03H39.4551V173.273H43.6975V169.03Z" fill="#594A39"/>
<path d="M52.1819 169.03H47.9395V173.273H52.1819V169.03Z" fill="#594A39"/>
<path d="M69.1526 169.03H64.9102V173.273H69.1526V169.03Z" fill="#594A39"/>
<path d="M77.637 169.03H73.3945V173.273H77.637V169.03Z" fill="#594A39"/>
<path d="M81.8791 169.03H77.6367V173.273H81.8791V169.03Z" fill="#594A39"/>
<path d="M86.1233 169.03H81.8809V173.273H86.1233V169.03Z" fill="#594A39"/>
<path d="M90.3616 169.03H86.1191V173.273H90.3616V169.03Z" fill="#594A39"/>
<path d="M94.6057 169.03H90.3633V173.273H94.6057V169.03Z" fill="#594A39"/>
<path d="M115.817 169.03H111.574V173.273H115.817V169.03Z" fill="#594A39"/>
<path d="M132.787 169.03H128.545V173.273H132.787V169.03Z" fill="#594A39"/>
<path d="M141.272 169.03H137.029V173.273H141.272V169.03Z" fill="#594A39"/>
<path d="M145.516 169.03H141.273V173.273H145.516V169.03Z" fill="#594A39"/>
<path d="M154 169.03H149.758V173.273H154V169.03Z" fill="#594A39"/>
<path d="M18.2424 173.272H14V177.515H18.2424V173.272Z" fill="#594A39"/>
<path d="M26.7268 173.272H22.4844V177.515H26.7268V173.272Z" fill="#594A39"/>
<path d="M30.969 173.272H26.7266V177.515H30.969V173.272Z" fill="#594A39"/>
<path d="M35.2131 173.272H30.9707V177.515H35.2131V173.272Z" fill="#594A39"/>
<path d="M43.6975 173.272H39.4551V177.515H43.6975V173.272Z" fill="#594A39"/>
<path d="M52.1819 173.272H47.9395V177.515H52.1819V173.272Z" fill="#594A39"/>
<path d="M60.6682 173.272H56.4258V177.515H60.6682V173.272Z" fill="#594A39"/>
<path d="M64.9104 173.272H60.668V177.515H64.9104V173.272Z" fill="#594A39"/>
<path d="M69.1526 173.272H64.9102V177.515H69.1526V173.272Z" fill="#594A39"/>
<path d="M73.3948 173.272H69.1523V177.515H73.3948V173.272Z" fill="#594A39"/>
<path d="M81.8791 173.272H77.6367V177.515H81.8791V173.272Z" fill="#594A39"/>
<path d="M86.1233 173.272H81.8809V177.515H86.1233V173.272Z" fill="#594A39"/>
<path d="M90.3616 173.272H86.1191V177.515H90.3616V173.272Z" fill="#594A39"/>
<path d="M103.09 173.272H98.8477V177.515H103.09V173.272Z" fill="#594A39"/>
<path d="M120.061 173.272H115.818V177.515H120.061V173.272Z" fill="#594A39"/>
<path d="M128.545 173.272H124.303V177.515H128.545V173.272Z" fill="#594A39"/>
<path d="M132.787 173.272H128.545V177.515H132.787V173.272Z" fill="#594A39"/>
<path d="M141.272 173.272H137.029V177.515H141.272V173.272Z" fill="#594A39"/>
<path d="M18.2424 177.515H14V181.757H18.2424V177.515Z" fill="#594A39"/>
<path d="M43.6975 177.515H39.4551V181.757H43.6975V177.515Z" fill="#594A39"/>
<path d="M56.4241 177.515H52.1816V181.757H56.4241V177.515Z" fill="#594A39"/>
<path d="M60.6682 177.515H56.4258V181.757H60.6682V177.515Z" fill="#594A39"/>
<path d="M64.9104 177.515H60.668V181.757H64.9104V177.515Z" fill="#594A39"/>
<path d="M69.1526 177.515H64.9102V181.757H69.1526V177.515Z" fill="#594A39"/>
<path d="M77.637 177.515H73.3945V181.757H77.637V177.515Z" fill="#594A39"/>
<path d="M86.1233 177.515H81.8809V181.757H86.1233V177.515Z" fill="#594A39"/>
<path d="M90.3616 177.515H86.1191V181.757H90.3616V177.515Z" fill="#594A39"/>
<path d="M94.6057 177.515H90.3633V181.757H94.6057V177.515Z" fill="#594A39"/>
<path d="M111.574 177.515H107.332V181.757H111.574V177.515Z" fill="#594A39"/>
<path d="M120.061 177.515H115.818V181.757H120.061V177.515Z" fill="#594A39"/>
<path d="M124.303 177.515H120.061V181.757H124.303V177.515Z" fill="#594A39"/>
<path d="M132.787 177.515H128.545V181.757H132.787V177.515Z" fill="#594A39"/>
<path d="M137.03 177.515H132.787V181.757H137.03V177.515Z" fill="#594A39"/>
<path d="M154 177.515H149.758V181.757H154V177.515Z" fill="#594A39"/>
<path d="M18.2424 181.758H14V186H18.2424V181.758Z" fill="#594A39"/>
<path d="M22.4846 181.758H18.2422V186H22.4846V181.758Z" fill="#594A39"/>
<path d="M26.7268 181.758H22.4844V186H26.7268V181.758Z" fill="#594A39"/>
<path d="M30.969 181.758H26.7266V186H30.969V181.758Z" fill="#594A39"/>
<path d="M35.2131 181.758H30.9707V186H35.2131V181.758Z" fill="#594A39"/>
<path d="M39.4553 181.758H35.2129V186H39.4553V181.758Z" fill="#594A39"/>
<path d="M43.6975 181.758H39.4551V186H43.6975V181.758Z" fill="#594A39"/>
<path d="M52.1819 181.758H47.9395V186H52.1819V181.758Z" fill="#594A39"/>
<path d="M60.6682 181.758H56.4258V186H60.6682V181.758Z" fill="#594A39"/>
<path d="M86.1233 181.758H81.8809V186H86.1233V181.758Z" fill="#594A39"/>
<path d="M90.3616 181.758H86.1191V186H90.3616V181.758Z" fill="#594A39"/>
<path d="M94.6057 181.758H90.3633V186H94.6057V181.758Z" fill="#594A39"/>
<path d="M98.8479 181.758H94.6055V186H98.8479V181.758Z" fill="#594A39"/>
<path d="M103.09 181.758H98.8477V186H103.09V181.758Z" fill="#594A39"/>
<path d="M107.332 181.758H103.09V186H107.332V181.758Z" fill="#594A39"/>
<path d="M115.817 181.758H111.574V186H115.817V181.758Z" fill="#594A39"/>
<path d="M128.545 181.758H124.303V186H128.545V181.758Z" fill="#594A39"/>
<path d="M137.03 181.758H132.787V186H137.03V181.758Z" fill="#594A39"/>
<path d="M145.516 181.758H141.273V186H145.516V181.758Z" fill="#594A39"/>
</svg>
