<svg width="125" height="164" viewBox="0 0 125 164" fill="none" xmlns="http://www.w3.org/2000/svg">
<rect x="1.5" y="1.5" width="122" height="160.46" rx="8.5" fill="white"/>
<rect x="1.5" y="1.5" width="122" height="160.46" rx="8.5" stroke="#E9E3D8" stroke-width="3"/>
<path d="M37.9384 22.24L37.4984 23.86H41.0184L40.5784 22.24C40.1184 20.7 39.7184 19 39.2984 17.4H39.1984C38.8184 19.02 38.3784 20.7 37.9384 22.24ZM32.8184 29.96L37.5584 15.14H41.0384L45.7984 29.96H42.6984L41.6584 26.16H36.8584L35.8184 29.96H32.8184Z" fill="#EEB690"/>
<path d="M48.0909 34.26V18.76H50.4909L50.7109 19.92H50.7709C51.7109 19.12 52.8709 18.48 54.0709 18.48C56.8309 18.48 58.4709 20.74 58.4709 24.18C58.4709 28.02 56.1709 30.24 53.7109 30.24C52.7309 30.24 51.7909 29.8 50.9309 29.02L51.0309 30.86V34.26H48.0909ZM53.0509 27.82C54.4109 27.82 55.4509 26.66 55.4509 24.22C55.4509 22.08 54.7709 20.9 53.2309 20.9C52.4709 20.9 51.7909 21.28 51.0309 22.06V26.98C51.7309 27.6 52.4509 27.82 53.0509 27.82Z" fill="#EEB690"/>
<path d="M61.762 34.26V18.76H64.162L64.382 19.92H64.442C65.382 19.12 66.542 18.48 67.742 18.48C70.502 18.48 72.142 20.74 72.142 24.18C72.142 28.02 69.842 30.24 67.382 30.24C66.402 30.24 65.462 29.8 64.602 29.02L64.702 30.86V34.26H61.762ZM66.722 27.82C68.082 27.82 69.122 26.66 69.122 24.22C69.122 22.08 68.442 20.9 66.902 20.9C66.142 20.9 65.462 21.28 64.702 22.06V26.98C65.402 27.6 66.122 27.82 66.722 27.82Z" fill="#EEB690"/>
<path d="M78.1931 30.24C76.153 30.24 75.433 28.9 75.433 26.82V14H78.373V26.94C78.373 27.62 78.673 27.84 78.953 27.84C79.073 27.84 79.153 27.84 79.3531 27.8L79.713 29.98C79.373 30.12 78.8931 30.24 78.1931 30.24Z" fill="#EEB690"/>
<path d="M83.5216 34.46C82.8616 34.46 82.4216 34.38 81.9816 34.24L82.5216 31.98C82.7216 32.04 83.0416 32.12 83.3016 32.12C84.4416 32.12 85.0816 31.4 85.4016 30.42L85.6016 29.76L81.2416 18.76H84.2016L85.9816 23.96C86.3216 24.96 86.6016 26.04 86.9216 27.12H87.0216C87.2816 26.08 87.5616 25 87.8216 23.96L89.3616 18.76H92.1816L88.2016 30.3C87.2216 32.94 86.0216 34.46 83.5216 34.46Z" fill="#EEB690"/>
<path d="M16.9394 46.46H14V49.3994H16.9394V46.46Z" fill="#594A39"/>
<path d="M19.8788 46.46H16.9395V49.3994H19.8788V46.46Z" fill="#594A39"/>
<path d="M22.8183 46.46H19.8789V49.3994H22.8183V46.46Z" fill="#594A39"/>
<path d="M25.7578 46.46H22.8184V49.3994H25.7578V46.46Z" fill="#594A39"/>
<path d="M28.6972 46.46H25.7578V49.3994H28.6972V46.46Z" fill="#594A39"/>
<path d="M31.6367 46.46H28.6973V49.3994H31.6367V46.46Z" fill="#594A39"/>
<path d="M34.5761 46.46H31.6367V49.3994H34.5761V46.46Z" fill="#594A39"/>
<path d="M40.455 46.46H37.5156V49.3994H40.455V46.46Z" fill="#594A39"/>
<path d="M43.3945 46.46H40.4551V49.3994H43.3945V46.46Z" fill="#594A39"/>
<path d="M46.3339 46.46H43.3945V49.3994H46.3339V46.46Z" fill="#594A39"/>
<path d="M49.2734 46.46H46.334V49.3994H49.2734V46.46Z" fill="#594A39"/>
<path d="M52.2128 46.46H49.2734V49.3994H52.2128V46.46Z" fill="#594A39"/>
<path d="M55.1523 46.46H52.2129V49.3994H55.1523V46.46Z" fill="#594A39"/>
<path d="M66.9081 46.46H63.9688V49.3994H66.9081V46.46Z" fill="#594A39"/>
<path d="M69.8476 46.46H66.9082V49.3994H69.8476V46.46Z" fill="#594A39"/>
<path d="M72.7871 46.46H69.8477V49.3994H72.7871V46.46Z" fill="#594A39"/>
<path d="M75.7265 46.46H72.7871V49.3994H75.7265V46.46Z" fill="#594A39"/>
<path d="M78.666 46.46H75.7266V49.3994H78.666V46.46Z" fill="#594A39"/>
<path d="M84.5449 46.46H81.6055V49.3994H84.5449V46.46Z" fill="#594A39"/>
<path d="M93.3632 46.46H90.4238V49.3994H93.3632V46.46Z" fill="#594A39"/>
<path d="M96.3027 46.46H93.3633V49.3994H96.3027V46.46Z" fill="#594A39"/>
<path d="M99.2421 46.46H96.3027V49.3994H99.2421V46.46Z" fill="#594A39"/>
<path d="M102.182 46.46H99.2422V49.3994H102.182V46.46Z" fill="#594A39"/>
<path d="M105.121 46.46H102.182V49.3994H105.121V46.46Z" fill="#594A39"/>
<path d="M108.06 46.46H105.121V49.3994H108.06V46.46Z" fill="#594A39"/>
<path d="M111 46.46H108.061V49.3994H111V46.46Z" fill="#594A39"/>
<path d="M16.9394 49.3994H14V52.3388H16.9394V49.3994Z" fill="#594A39"/>
<path d="M34.5761 49.3994H31.6367V52.3388H34.5761V49.3994Z" fill="#594A39"/>
<path d="M40.455 49.3994H37.5156V52.3388H40.455V49.3994Z" fill="#594A39"/>
<path d="M43.3945 49.3994H40.4551V52.3388H43.3945V49.3994Z" fill="#594A39"/>
<path d="M46.3339 49.3994H43.3945V52.3388H46.3339V49.3994Z" fill="#594A39"/>
<path d="M49.2734 49.3994H46.334V52.3388H49.2734V49.3994Z" fill="#594A39"/>
<path d="M52.2128 49.3994H49.2734V52.3388H52.2128V49.3994Z" fill="#594A39"/>
<path d="M55.1523 49.3994H52.2129V52.3388H55.1523V49.3994Z" fill="#594A39"/>
<path d="M63.9706 49.3994H61.0312V52.3388H63.9706V49.3994Z" fill="#594A39"/>
<path d="M66.9081 49.3994H63.9688V52.3388H66.9081V49.3994Z" fill="#594A39"/>
<path d="M75.7265 49.3994H72.7871V52.3388H75.7265V49.3994Z" fill="#594A39"/>
<path d="M81.6054 49.3994H78.666V52.3388H81.6054V49.3994Z" fill="#594A39"/>
<path d="M84.5449 49.3994H81.6055V52.3388H84.5449V49.3994Z" fill="#594A39"/>
<path d="M93.3632 49.3994H90.4238V52.3388H93.3632V49.3994Z" fill="#594A39"/>
<path d="M111 49.3994H108.061V52.3388H111V49.3994Z" fill="#594A39"/>
<path d="M16.9394 52.3389H14V55.2783H16.9394V52.3389Z" fill="#594A39"/>
<path d="M22.8183 52.3389H19.8789V55.2783H22.8183V52.3389Z" fill="#594A39"/>
<path d="M25.7578 52.3389H22.8184V55.2783H25.7578V52.3389Z" fill="#594A39"/>
<path d="M28.6972 52.3389H25.7578V55.2783H28.6972V52.3389Z" fill="#594A39"/>
<path d="M34.5761 52.3389H31.6367V55.2783H34.5761V52.3389Z" fill="#594A39"/>
<path d="M43.3945 52.3389H40.4551V55.2783H43.3945V52.3389Z" fill="#594A39"/>
<path d="M46.3339 52.3389H43.3945V55.2783H46.3339V52.3389Z" fill="#594A39"/>
<path d="M61.0312 52.3389H58.0918V55.2783H61.0312V52.3389Z" fill="#594A39"/>
<path d="M69.8476 52.3389H66.9082V55.2783H69.8476V52.3389Z" fill="#594A39"/>
<path d="M75.7265 52.3389H72.7871V55.2783H75.7265V52.3389Z" fill="#594A39"/>
<path d="M81.6054 52.3389H78.666V55.2783H81.6054V52.3389Z" fill="#594A39"/>
<path d="M84.5449 52.3389H81.6055V55.2783H84.5449V52.3389Z" fill="#594A39"/>
<path d="M87.4843 52.3389H84.5449V55.2783H87.4843V52.3389Z" fill="#594A39"/>
<path d="M93.3632 52.3389H90.4238V55.2783H93.3632V52.3389Z" fill="#594A39"/>
<path d="M99.2421 52.3389H96.3027V55.2783H99.2421V52.3389Z" fill="#594A39"/>
<path d="M102.182 52.3389H99.2422V55.2783H102.182V52.3389Z" fill="#594A39"/>
<path d="M105.121 52.3389H102.182V55.2783H105.121V52.3389Z" fill="#594A39"/>
<path d="M111 52.3389H108.061V55.2783H111V52.3389Z" fill="#594A39"/>
<path d="M16.9394 55.2783H14V58.2177H16.9394V55.2783Z" fill="#594A39"/>
<path d="M22.8183 55.2783H19.8789V58.2177H22.8183V55.2783Z" fill="#594A39"/>
<path d="M25.7578 55.2783H22.8184V58.2177H25.7578V55.2783Z" fill="#594A39"/>
<path d="M28.6972 55.2783H25.7578V58.2177H28.6972V55.2783Z" fill="#594A39"/>
<path d="M34.5761 55.2783H31.6367V58.2177H34.5761V55.2783Z" fill="#594A39"/>
<path d="M40.455 55.2783H37.5156V58.2177H40.455V55.2783Z" fill="#594A39"/>
<path d="M43.3945 55.2783H40.4551V58.2177H43.3945V55.2783Z" fill="#594A39"/>
<path d="M52.2128 55.2783H49.2734V58.2177H52.2128V55.2783Z" fill="#594A39"/>
<path d="M58.0917 55.2783H55.1523V58.2177H58.0917V55.2783Z" fill="#594A39"/>
<path d="M61.0312 55.2783H58.0918V58.2177H61.0312V55.2783Z" fill="#594A39"/>
<path d="M66.9081 55.2783H63.9688V58.2177H66.9081V55.2783Z" fill="#594A39"/>
<path d="M69.8476 55.2783H66.9082V58.2177H69.8476V55.2783Z" fill="#594A39"/>
<path d="M72.7871 55.2783H69.8477V58.2177H72.7871V55.2783Z" fill="#594A39"/>
<path d="M75.7265 55.2783H72.7871V58.2177H75.7265V55.2783Z" fill="#594A39"/>
<path d="M78.666 55.2783H75.7266V58.2177H78.666V55.2783Z" fill="#594A39"/>
<path d="M81.6054 55.2783H78.666V58.2177H81.6054V55.2783Z" fill="#594A39"/>
<path d="M84.5449 55.2783H81.6055V58.2177H84.5449V55.2783Z" fill="#594A39"/>
<path d="M93.3632 55.2783H90.4238V58.2177H93.3632V55.2783Z" fill="#594A39"/>
<path d="M99.2421 55.2783H96.3027V58.2177H99.2421V55.2783Z" fill="#594A39"/>
<path d="M102.182 55.2783H99.2422V58.2177H102.182V55.2783Z" fill="#594A39"/>
<path d="M105.121 55.2783H102.182V58.2177H105.121V55.2783Z" fill="#594A39"/>
<path d="M111 55.2783H108.061V58.2177H111V55.2783Z" fill="#594A39"/>
<path d="M16.9394 58.2178H14V61.1572H16.9394V58.2178Z" fill="#594A39"/>
<path d="M22.8183 58.2178H19.8789V61.1572H22.8183V58.2178Z" fill="#594A39"/>
<path d="M25.7578 58.2178H22.8184V61.1572H25.7578V58.2178Z" fill="#594A39"/>
<path d="M28.6972 58.2178H25.7578V61.1572H28.6972V58.2178Z" fill="#594A39"/>
<path d="M34.5761 58.2178H31.6367V61.1572H34.5761V58.2178Z" fill="#594A39"/>
<path d="M55.1523 58.2178H52.2129V61.1572H55.1523V58.2178Z" fill="#594A39"/>
<path d="M58.0917 58.2178H55.1523V61.1572H58.0917V58.2178Z" fill="#594A39"/>
<path d="M69.8476 58.2178H66.9082V61.1572H69.8476V58.2178Z" fill="#594A39"/>
<path d="M72.7871 58.2178H69.8477V61.1572H72.7871V58.2178Z" fill="#594A39"/>
<path d="M75.7265 58.2178H72.7871V61.1572H75.7265V58.2178Z" fill="#594A39"/>
<path d="M81.6054 58.2178H78.666V61.1572H81.6054V58.2178Z" fill="#594A39"/>
<path d="M84.5449 58.2178H81.6055V61.1572H84.5449V58.2178Z" fill="#594A39"/>
<path d="M87.4843 58.2178H84.5449V61.1572H87.4843V58.2178Z" fill="#594A39"/>
<path d="M93.3632 58.2178H90.4238V61.1572H93.3632V58.2178Z" fill="#594A39"/>
<path d="M99.2421 58.2178H96.3027V61.1572H99.2421V58.2178Z" fill="#594A39"/>
<path d="M102.182 58.2178H99.2422V61.1572H102.182V58.2178Z" fill="#594A39"/>
<path d="M105.121 58.2178H102.182V61.1572H105.121V58.2178Z" fill="#594A39"/>
<path d="M111 58.2178H108.061V61.1572H111V58.2178Z" fill="#594A39"/>
<path d="M16.9394 61.1572H14V64.0966H16.9394V61.1572Z" fill="#594A39"/>
<path d="M34.5761 61.1572H31.6367V64.0966H34.5761V61.1572Z" fill="#594A39"/>
<path d="M43.3945 61.1572H40.4551V64.0966H43.3945V61.1572Z" fill="#594A39"/>
<path d="M49.2734 61.1572H46.334V64.0966H49.2734V61.1572Z" fill="#594A39"/>
<path d="M52.2128 61.1572H49.2734V64.0966H52.2128V61.1572Z" fill="#594A39"/>
<path d="M58.0917 61.1572H55.1523V64.0966H58.0917V61.1572Z" fill="#594A39"/>
<path d="M63.9706 61.1572H61.0312V64.0966H63.9706V61.1572Z" fill="#594A39"/>
<path d="M66.9081 61.1572H63.9688V64.0966H66.9081V61.1572Z" fill="#594A39"/>
<path d="M72.7871 61.1572H69.8477V64.0966H72.7871V61.1572Z" fill="#594A39"/>
<path d="M78.666 61.1572H75.7266V64.0966H78.666V61.1572Z" fill="#594A39"/>
<path d="M87.4843 61.1572H84.5449V64.0966H87.4843V61.1572Z" fill="#594A39"/>
<path d="M93.3632 61.1572H90.4238V64.0966H93.3632V61.1572Z" fill="#594A39"/>
<path d="M111 61.1572H108.061V64.0966H111V61.1572Z" fill="#594A39"/>
<path d="M16.9394 64.0967H14V67.0361H16.9394V64.0967Z" fill="#594A39"/>
<path d="M19.8788 64.0967H16.9395V67.0361H19.8788V64.0967Z" fill="#594A39"/>
<path d="M22.8183 64.0967H19.8789V67.0361H22.8183V64.0967Z" fill="#594A39"/>
<path d="M25.7578 64.0967H22.8184V67.0361H25.7578V64.0967Z" fill="#594A39"/>
<path d="M28.6972 64.0967H25.7578V67.0361H28.6972V64.0967Z" fill="#594A39"/>
<path d="M31.6367 64.0967H28.6973V67.0361H31.6367V64.0967Z" fill="#594A39"/>
<path d="M34.5761 64.0967H31.6367V67.0361H34.5761V64.0967Z" fill="#594A39"/>
<path d="M40.455 64.0967H37.5156V67.0361H40.455V64.0967Z" fill="#594A39"/>
<path d="M46.3339 64.0967H43.3945V67.0361H46.3339V64.0967Z" fill="#594A39"/>
<path d="M52.2128 64.0967H49.2734V67.0361H52.2128V64.0967Z" fill="#594A39"/>
<path d="M58.0917 64.0967H55.1523V67.0361H58.0917V64.0967Z" fill="#594A39"/>
<path d="M63.9706 64.0967H61.0312V67.0361H63.9706V64.0967Z" fill="#594A39"/>
<path d="M69.8476 64.0967H66.9082V67.0361H69.8476V64.0967Z" fill="#594A39"/>
<path d="M75.7265 64.0967H72.7871V67.0361H75.7265V64.0967Z" fill="#594A39"/>
<path d="M81.6054 64.0967H78.666V67.0361H81.6054V64.0967Z" fill="#594A39"/>
<path d="M87.4843 64.0967H84.5449V67.0361H87.4843V64.0967Z" fill="#594A39"/>
<path d="M93.3632 64.0967H90.4238V67.0361H93.3632V64.0967Z" fill="#594A39"/>
<path d="M96.3027 64.0967H93.3633V67.0361H96.3027V64.0967Z" fill="#594A39"/>
<path d="M99.2421 64.0967H96.3027V67.0361H99.2421V64.0967Z" fill="#594A39"/>
<path d="M102.182 64.0967H99.2422V67.0361H102.182V64.0967Z" fill="#594A39"/>
<path d="M105.121 64.0967H102.182V67.0361H105.121V64.0967Z" fill="#594A39"/>
<path d="M108.06 64.0967H105.121V67.0361H108.06V64.0967Z" fill="#594A39"/>
<path d="M111 64.0967H108.061V67.0361H111V64.0967Z" fill="#594A39"/>
<path d="M40.455 67.0361H37.5156V69.9755H40.455V67.0361Z" fill="#594A39"/>
<path d="M49.2734 67.0361H46.334V69.9755H49.2734V67.0361Z" fill="#594A39"/>
<path d="M52.2128 67.0361H49.2734V69.9755H52.2128V67.0361Z" fill="#594A39"/>
<path d="M61.0312 67.0361H58.0918V69.9755H61.0312V67.0361Z" fill="#594A39"/>
<path d="M63.9706 67.0361H61.0312V69.9755H63.9706V67.0361Z" fill="#594A39"/>
<path d="M66.9081 67.0361H63.9688V69.9755H66.9081V67.0361Z" fill="#594A39"/>
<path d="M69.8476 67.0361H66.9082V69.9755H69.8476V67.0361Z" fill="#594A39"/>
<path d="M72.7871 67.0361H69.8477V69.9755H72.7871V67.0361Z" fill="#594A39"/>
<path d="M87.4843 67.0361H84.5449V69.9755H87.4843V67.0361Z" fill="#594A39"/>
<path d="M16.9394 69.9756H14V72.915H16.9394V69.9756Z" fill="#594A39"/>
<path d="M22.8183 69.9756H19.8789V72.915H22.8183V69.9756Z" fill="#594A39"/>
<path d="M25.7578 69.9756H22.8184V72.915H25.7578V69.9756Z" fill="#594A39"/>
<path d="M31.6367 69.9756H28.6973V72.915H31.6367V69.9756Z" fill="#594A39"/>
<path d="M34.5761 69.9756H31.6367V72.915H34.5761V69.9756Z" fill="#594A39"/>
<path d="M37.5156 69.9756H34.5762V72.915H37.5156V69.9756Z" fill="#594A39"/>
<path d="M43.3945 69.9756H40.4551V72.915H43.3945V69.9756Z" fill="#594A39"/>
<path d="M52.2128 69.9756H49.2734V72.915H52.2128V69.9756Z" fill="#594A39"/>
<path d="M58.0917 69.9756H55.1523V72.915H58.0917V69.9756Z" fill="#594A39"/>
<path d="M66.9081 69.9756H63.9688V72.915H66.9081V69.9756Z" fill="#594A39"/>
<path d="M72.7871 69.9756H69.8477V72.915H72.7871V69.9756Z" fill="#594A39"/>
<path d="M78.666 69.9756H75.7266V72.915H78.666V69.9756Z" fill="#594A39"/>
<path d="M84.5449 69.9756H81.6055V72.915H84.5449V69.9756Z" fill="#594A39"/>
<path d="M93.3632 69.9756H90.4238V72.915H93.3632V69.9756Z" fill="#594A39"/>
<path d="M102.182 69.9756H99.2422V72.915H102.182V69.9756Z" fill="#594A39"/>
<path d="M108.06 69.9756H105.121V72.915H108.06V69.9756Z" fill="#594A39"/>
<path d="M111 69.9756H108.061V72.915H111V69.9756Z" fill="#594A39"/>
<path d="M22.8183 72.9141H19.8789V75.8535H22.8183V72.9141Z" fill="#594A39"/>
<path d="M25.7578 72.9141H22.8184V75.8535H25.7578V72.9141Z" fill="#594A39"/>
<path d="M31.6367 72.9141H28.6973V75.8535H31.6367V72.9141Z" fill="#594A39"/>
<path d="M43.3945 72.9141H40.4551V75.8535H43.3945V72.9141Z" fill="#594A39"/>
<path d="M46.3339 72.9141H43.3945V75.8535H46.3339V72.9141Z" fill="#594A39"/>
<path d="M49.2734 72.9141H46.334V75.8535H49.2734V72.9141Z" fill="#594A39"/>
<path d="M58.0917 72.9141H55.1523V75.8535H58.0917V72.9141Z" fill="#594A39"/>
<path d="M63.9706 72.9141H61.0312V75.8535H63.9706V72.9141Z" fill="#594A39"/>
<path d="M69.8476 72.9141H66.9082V75.8535H69.8476V72.9141Z" fill="#594A39"/>
<path d="M72.7871 72.9141H69.8477V75.8535H72.7871V72.9141Z" fill="#594A39"/>
<path d="M75.7265 72.9141H72.7871V75.8535H75.7265V72.9141Z" fill="#594A39"/>
<path d="M78.666 72.9141H75.7266V75.8535H78.666V72.9141Z" fill="#594A39"/>
<path d="M84.5449 72.9141H81.6055V75.8535H84.5449V72.9141Z" fill="#594A39"/>
<path d="M87.4843 72.9141H84.5449V75.8535H87.4843V72.9141Z" fill="#594A39"/>
<path d="M93.3632 72.9141H90.4238V75.8535H93.3632V72.9141Z" fill="#594A39"/>
<path d="M96.3027 72.9141H93.3633V75.8535H96.3027V72.9141Z" fill="#594A39"/>
<path d="M102.182 72.9141H99.2422V75.8535H102.182V72.9141Z" fill="#594A39"/>
<path d="M105.121 72.9141H102.182V75.8535H105.121V72.9141Z" fill="#594A39"/>
<path d="M111 72.9141H108.061V75.8535H111V72.9141Z" fill="#594A39"/>
<path d="M16.9394 75.8535H14V78.7929H16.9394V75.8535Z" fill="#594A39"/>
<path d="M19.8788 75.8535H16.9395V78.7929H19.8788V75.8535Z" fill="#594A39"/>
<path d="M28.6972 75.8535H25.7578V78.7929H28.6972V75.8535Z" fill="#594A39"/>
<path d="M34.5761 75.8535H31.6367V78.7929H34.5761V75.8535Z" fill="#594A39"/>
<path d="M37.5156 75.8535H34.5762V78.7929H37.5156V75.8535Z" fill="#594A39"/>
<path d="M40.455 75.8535H37.5156V78.7929H40.455V75.8535Z" fill="#594A39"/>
<path d="M58.0917 75.8535H55.1523V78.7929H58.0917V75.8535Z" fill="#594A39"/>
<path d="M66.9081 75.8535H63.9688V78.7929H66.9081V75.8535Z" fill="#594A39"/>
<path d="M78.666 75.8535H75.7266V78.7929H78.666V75.8535Z" fill="#594A39"/>
<path d="M81.6054 75.8535H78.666V78.7929H81.6054V75.8535Z" fill="#594A39"/>
<path d="M84.5449 75.8535H81.6055V78.7929H84.5449V75.8535Z" fill="#594A39"/>
<path d="M93.3632 75.8535H90.4238V78.7929H93.3632V75.8535Z" fill="#594A39"/>
<path d="M96.3027 75.8535H93.3633V78.7929H96.3027V75.8535Z" fill="#594A39"/>
<path d="M99.2421 75.8535H96.3027V78.7929H99.2421V75.8535Z" fill="#594A39"/>
<path d="M102.182 75.8535H99.2422V78.7929H102.182V75.8535Z" fill="#594A39"/>
<path d="M108.06 75.8535H105.121V78.7929H108.06V75.8535Z" fill="#594A39"/>
<path d="M111 75.8535H108.061V78.7929H111V75.8535Z" fill="#594A39"/>
<path d="M16.9394 78.793H14V81.7324H16.9394V78.793Z" fill="#594A39"/>
<path d="M19.8788 78.793H16.9395V81.7324H19.8788V78.793Z" fill="#594A39"/>
<path d="M43.3945 78.793H40.4551V81.7324H43.3945V78.793Z" fill="#594A39"/>
<path d="M46.3339 78.793H43.3945V81.7324H46.3339V78.793Z" fill="#594A39"/>
<path d="M55.1523 78.793H52.2129V81.7324H55.1523V78.793Z" fill="#594A39"/>
<path d="M58.0917 78.793H55.1523V81.7324H58.0917V78.793Z" fill="#594A39"/>
<path d="M72.7871 78.793H69.8477V81.7324H72.7871V78.793Z" fill="#594A39"/>
<path d="M87.4843 78.793H84.5449V81.7324H87.4843V78.793Z" fill="#594A39"/>
<path d="M90.4238 78.793H87.4844V81.7324H90.4238V78.793Z" fill="#594A39"/>
<path d="M93.3632 78.793H90.4238V81.7324H93.3632V78.793Z" fill="#594A39"/>
<path d="M96.3027 78.793H93.3633V81.7324H96.3027V78.793Z" fill="#594A39"/>
<path d="M102.182 78.793H99.2422V81.7324H102.182V78.793Z" fill="#594A39"/>
<path d="M108.06 78.793H105.121V81.7324H108.06V78.793Z" fill="#594A39"/>
<path d="M19.8788 81.7324H16.9395V84.6718H19.8788V81.7324Z" fill="#594A39"/>
<path d="M22.8183 81.7324H19.8789V84.6718H22.8183V81.7324Z" fill="#594A39"/>
<path d="M28.6972 81.7324H25.7578V84.6718H28.6972V81.7324Z" fill="#594A39"/>
<path d="M34.5761 81.7324H31.6367V84.6718H34.5761V81.7324Z" fill="#594A39"/>
<path d="M37.5156 81.7324H34.5762V84.6718H37.5156V81.7324Z" fill="#594A39"/>
<path d="M43.3945 81.7324H40.4551V84.6718H43.3945V81.7324Z" fill="#594A39"/>
<path d="M61.0312 81.7324H58.0918V84.6718H61.0312V81.7324Z" fill="#594A39"/>
<path d="M63.9706 81.7324H61.0312V84.6718H63.9706V81.7324Z" fill="#594A39"/>
<path d="M66.9081 81.7324H63.9688V84.6718H66.9081V81.7324Z" fill="#594A39"/>
<path d="M69.8476 81.7324H66.9082V84.6718H69.8476V81.7324Z" fill="#594A39"/>
<path d="M75.7265 81.7324H72.7871V84.6718H75.7265V81.7324Z" fill="#594A39"/>
<path d="M90.4238 81.7324H87.4844V84.6718H90.4238V81.7324Z" fill="#594A39"/>
<path d="M99.2421 81.7324H96.3027V84.6718H99.2421V81.7324Z" fill="#594A39"/>
<path d="M102.182 81.7324H99.2422V84.6718H102.182V81.7324Z" fill="#594A39"/>
<path d="M108.06 81.7324H105.121V84.6718H108.06V81.7324Z" fill="#594A39"/>
<path d="M22.8183 84.6719H19.8789V87.6113H22.8183V84.6719Z" fill="#594A39"/>
<path d="M40.455 84.6719H37.5156V87.6113H40.455V84.6719Z" fill="#594A39"/>
<path d="M43.3945 84.6719H40.4551V87.6113H43.3945V84.6719Z" fill="#594A39"/>
<path d="M55.1523 84.6719H52.2129V87.6113H55.1523V84.6719Z" fill="#594A39"/>
<path d="M61.0312 84.6719H58.0918V87.6113H61.0312V84.6719Z" fill="#594A39"/>
<path d="M69.8476 84.6719H66.9082V87.6113H69.8476V84.6719Z" fill="#594A39"/>
<path d="M72.7871 84.6719H69.8477V87.6113H72.7871V84.6719Z" fill="#594A39"/>
<path d="M75.7265 84.6719H72.7871V87.6113H75.7265V84.6719Z" fill="#594A39"/>
<path d="M78.666 84.6719H75.7266V87.6113H78.666V84.6719Z" fill="#594A39"/>
<path d="M84.5449 84.6719H81.6055V87.6113H84.5449V84.6719Z" fill="#594A39"/>
<path d="M87.4843 84.6719H84.5449V87.6113H87.4843V84.6719Z" fill="#594A39"/>
<path d="M96.3027 84.6719H93.3633V87.6113H96.3027V84.6719Z" fill="#594A39"/>
<path d="M108.06 84.6719H105.121V87.6113H108.06V84.6719Z" fill="#594A39"/>
<path d="M16.9394 87.6113H14V90.5507H16.9394V87.6113Z" fill="#594A39"/>
<path d="M22.8183 87.6113H19.8789V90.5507H22.8183V87.6113Z" fill="#594A39"/>
<path d="M25.7578 87.6113H22.8184V90.5507H25.7578V87.6113Z" fill="#594A39"/>
<path d="M34.5761 87.6113H31.6367V90.5507H34.5761V87.6113Z" fill="#594A39"/>
<path d="M43.3945 87.6113H40.4551V90.5507H43.3945V87.6113Z" fill="#594A39"/>
<path d="M46.3339 87.6113H43.3945V90.5507H46.3339V87.6113Z" fill="#594A39"/>
<path d="M52.2128 87.6113H49.2734V90.5507H52.2128V87.6113Z" fill="#594A39"/>
<path d="M55.1523 87.6113H52.2129V90.5507H55.1523V87.6113Z" fill="#594A39"/>
<path d="M63.9706 87.6113H61.0312V90.5507H63.9706V87.6113Z" fill="#594A39"/>
<path d="M66.9081 87.6113H63.9688V90.5507H66.9081V87.6113Z" fill="#594A39"/>
<path d="M69.8476 87.6113H66.9082V90.5507H69.8476V87.6113Z" fill="#594A39"/>
<path d="M72.7871 87.6113H69.8477V90.5507H72.7871V87.6113Z" fill="#594A39"/>
<path d="M75.7265 87.6113H72.7871V90.5507H75.7265V87.6113Z" fill="#594A39"/>
<path d="M81.6054 87.6113H78.666V90.5507H81.6054V87.6113Z" fill="#594A39"/>
<path d="M93.3632 87.6113H90.4238V90.5507H93.3632V87.6113Z" fill="#594A39"/>
<path d="M96.3027 87.6113H93.3633V90.5507H96.3027V87.6113Z" fill="#594A39"/>
<path d="M99.2421 87.6113H96.3027V90.5507H99.2421V87.6113Z" fill="#594A39"/>
<path d="M102.182 87.6113H99.2422V90.5507H102.182V87.6113Z" fill="#594A39"/>
<path d="M16.9394 90.5508H14V93.4902H16.9394V90.5508Z" fill="#594A39"/>
<path d="M19.8788 90.5508H16.9395V93.4902H19.8788V90.5508Z" fill="#594A39"/>
<path d="M25.7578 90.5508H22.8184V93.4902H25.7578V90.5508Z" fill="#594A39"/>
<path d="M28.6972 90.5508H25.7578V93.4902H28.6972V90.5508Z" fill="#594A39"/>
<path d="M37.5156 90.5508H34.5762V93.4902H37.5156V90.5508Z" fill="#594A39"/>
<path d="M49.2734 90.5508H46.334V93.4902H49.2734V90.5508Z" fill="#594A39"/>
<path d="M52.2128 90.5508H49.2734V93.4902H52.2128V90.5508Z" fill="#594A39"/>
<path d="M55.1523 90.5508H52.2129V93.4902H55.1523V90.5508Z" fill="#594A39"/>
<path d="M58.0917 90.5508H55.1523V93.4902H58.0917V90.5508Z" fill="#594A39"/>
<path d="M61.0312 90.5508H58.0918V93.4902H61.0312V90.5508Z" fill="#594A39"/>
<path d="M69.8476 90.5508H66.9082V93.4902H69.8476V90.5508Z" fill="#594A39"/>
<path d="M75.7265 90.5508H72.7871V93.4902H75.7265V90.5508Z" fill="#594A39"/>
<path d="M78.666 90.5508H75.7266V93.4902H78.666V90.5508Z" fill="#594A39"/>
<path d="M81.6054 90.5508H78.666V93.4902H81.6054V90.5508Z" fill="#594A39"/>
<path d="M87.4843 90.5508H84.5449V93.4902H87.4843V90.5508Z" fill="#594A39"/>
<path d="M90.4238 90.5508H87.4844V93.4902H90.4238V90.5508Z" fill="#594A39"/>
<path d="M93.3632 90.5508H90.4238V93.4902H93.3632V90.5508Z" fill="#594A39"/>
<path d="M96.3027 90.5508H93.3633V93.4902H96.3027V90.5508Z" fill="#594A39"/>
<path d="M102.182 90.5508H99.2422V93.4902H102.182V90.5508Z" fill="#594A39"/>
<path d="M105.121 90.5508H102.182V93.4902H105.121V90.5508Z" fill="#594A39"/>
<path d="M16.9394 93.4902H14V96.4296H16.9394V93.4902Z" fill="#594A39"/>
<path d="M22.8183 93.4902H19.8789V96.4296H22.8183V93.4902Z" fill="#594A39"/>
<path d="M25.7578 93.4902H22.8184V96.4296H25.7578V93.4902Z" fill="#594A39"/>
<path d="M28.6972 93.4902H25.7578V96.4296H28.6972V93.4902Z" fill="#594A39"/>
<path d="M31.6367 93.4902H28.6973V96.4296H31.6367V93.4902Z" fill="#594A39"/>
<path d="M34.5761 93.4902H31.6367V96.4296H34.5761V93.4902Z" fill="#594A39"/>
<path d="M37.5156 93.4902H34.5762V96.4296H37.5156V93.4902Z" fill="#594A39"/>
<path d="M40.455 93.4902H37.5156V96.4296H40.455V93.4902Z" fill="#594A39"/>
<path d="M49.2734 93.4902H46.334V96.4296H49.2734V93.4902Z" fill="#594A39"/>
<path d="M52.2128 93.4902H49.2734V96.4296H52.2128V93.4902Z" fill="#594A39"/>
<path d="M55.1523 93.4902H52.2129V96.4296H55.1523V93.4902Z" fill="#594A39"/>
<path d="M61.0312 93.4902H58.0918V96.4296H61.0312V93.4902Z" fill="#594A39"/>
<path d="M63.9706 93.4902H61.0312V96.4296H63.9706V93.4902Z" fill="#594A39"/>
<path d="M69.8476 93.4902H66.9082V96.4296H69.8476V93.4902Z" fill="#594A39"/>
<path d="M75.7265 93.4902H72.7871V96.4296H75.7265V93.4902Z" fill="#594A39"/>
<path d="M78.666 93.4902H75.7266V96.4296H78.666V93.4902Z" fill="#594A39"/>
<path d="M81.6054 93.4902H78.666V96.4296H81.6054V93.4902Z" fill="#594A39"/>
<path d="M90.4238 93.4902H87.4844V96.4296H90.4238V93.4902Z" fill="#594A39"/>
<path d="M93.3632 93.4902H90.4238V96.4296H93.3632V93.4902Z" fill="#594A39"/>
<path d="M99.2421 93.4902H96.3027V96.4296H99.2421V93.4902Z" fill="#594A39"/>
<path d="M105.121 93.4902H102.182V96.4296H105.121V93.4902Z" fill="#594A39"/>
<path d="M25.7578 96.4297H22.8184V99.3691H25.7578V96.4297Z" fill="#594A39"/>
<path d="M28.6972 96.4297H25.7578V99.3691H28.6972V96.4297Z" fill="#594A39"/>
<path d="M31.6367 96.4297H28.6973V99.3691H31.6367V96.4297Z" fill="#594A39"/>
<path d="M37.5156 96.4297H34.5762V99.3691H37.5156V96.4297Z" fill="#594A39"/>
<path d="M43.3945 96.4297H40.4551V99.3691H43.3945V96.4297Z" fill="#594A39"/>
<path d="M46.3339 96.4297H43.3945V99.3691H46.3339V96.4297Z" fill="#594A39"/>
<path d="M52.2128 96.4297H49.2734V99.3691H52.2128V96.4297Z" fill="#594A39"/>
<path d="M61.0312 96.4297H58.0918V99.3691H61.0312V96.4297Z" fill="#594A39"/>
<path d="M75.7265 96.4297H72.7871V99.3691H75.7265V96.4297Z" fill="#594A39"/>
<path d="M78.666 96.4297H75.7266V99.3691H78.666V96.4297Z" fill="#594A39"/>
<path d="M84.5449 96.4297H81.6055V99.3691H84.5449V96.4297Z" fill="#594A39"/>
<path d="M87.4843 96.4297H84.5449V99.3691H87.4843V96.4297Z" fill="#594A39"/>
<path d="M90.4238 96.4297H87.4844V99.3691H90.4238V96.4297Z" fill="#594A39"/>
<path d="M93.3632 96.4297H90.4238V99.3691H93.3632V96.4297Z" fill="#594A39"/>
<path d="M99.2421 96.4297H96.3027V99.3691H99.2421V96.4297Z" fill="#594A39"/>
<path d="M102.182 96.4297H99.2422V99.3691H102.182V96.4297Z" fill="#594A39"/>
<path d="M111 96.4297H108.061V99.3691H111V96.4297Z" fill="#594A39"/>
<path d="M19.8788 99.3691H16.9395V102.309H19.8788V99.3691Z" fill="#594A39"/>
<path d="M34.5761 99.3691H31.6367V102.309H34.5761V99.3691Z" fill="#594A39"/>
<path d="M40.455 99.3691H37.5156V102.309H40.455V99.3691Z" fill="#594A39"/>
<path d="M46.3339 99.3691H43.3945V102.309H46.3339V99.3691Z" fill="#594A39"/>
<path d="M49.2734 99.3691H46.334V102.309H49.2734V99.3691Z" fill="#594A39"/>
<path d="M58.0917 99.3691H55.1523V102.309H58.0917V99.3691Z" fill="#594A39"/>
<path d="M61.0312 99.3691H58.0918V102.309H61.0312V99.3691Z" fill="#594A39"/>
<path d="M66.9081 99.3691H63.9688V102.309H66.9081V99.3691Z" fill="#594A39"/>
<path d="M81.6054 99.3691H78.666V102.309H81.6054V99.3691Z" fill="#594A39"/>
<path d="M87.4843 99.3691H84.5449V102.309H87.4843V99.3691Z" fill="#594A39"/>
<path d="M90.4238 99.3691H87.4844V102.309H90.4238V99.3691Z" fill="#594A39"/>
<path d="M96.3027 99.3691H93.3633V102.309H96.3027V99.3691Z" fill="#594A39"/>
<path d="M99.2421 99.3691H96.3027V102.309H99.2421V99.3691Z" fill="#594A39"/>
<path d="M105.121 99.3691H102.182V102.309H105.121V99.3691Z" fill="#594A39"/>
<path d="M108.06 99.3691H105.121V102.309H108.06V99.3691Z" fill="#594A39"/>
<path d="M37.5156 102.309H34.5762V105.248H37.5156V102.309Z" fill="#594A39"/>
<path d="M43.3945 102.309H40.4551V105.248H43.3945V102.309Z" fill="#594A39"/>
<path d="M58.0917 102.309H55.1523V105.248H58.0917V102.309Z" fill="#594A39"/>
<path d="M61.0312 102.309H58.0918V105.248H61.0312V102.309Z" fill="#594A39"/>
<path d="M63.9706 102.309H61.0312V105.248H63.9706V102.309Z" fill="#594A39"/>
<path d="M66.9081 102.309H63.9688V105.248H66.9081V102.309Z" fill="#594A39"/>
<path d="M72.7871 102.309H69.8477V105.248H72.7871V102.309Z" fill="#594A39"/>
<path d="M75.7265 102.309H72.7871V105.248H75.7265V102.309Z" fill="#594A39"/>
<path d="M81.6054 102.309H78.666V105.248H81.6054V102.309Z" fill="#594A39"/>
<path d="M93.3632 102.309H90.4238V105.248H93.3632V102.309Z" fill="#594A39"/>
<path d="M99.2421 102.309H96.3027V105.248H99.2421V102.309Z" fill="#594A39"/>
<path d="M108.06 102.309H105.121V105.248H108.06V102.309Z" fill="#594A39"/>
<path d="M111 102.309H108.061V105.248H111V102.309Z" fill="#594A39"/>
<path d="M16.9394 105.248H14V108.187H16.9394V105.248Z" fill="#594A39"/>
<path d="M19.8788 105.248H16.9395V108.187H19.8788V105.248Z" fill="#594A39"/>
<path d="M22.8183 105.248H19.8789V108.187H22.8183V105.248Z" fill="#594A39"/>
<path d="M25.7578 105.248H22.8184V108.187H25.7578V105.248Z" fill="#594A39"/>
<path d="M34.5761 105.248H31.6367V108.187H34.5761V105.248Z" fill="#594A39"/>
<path d="M37.5156 105.248H34.5762V108.187H37.5156V105.248Z" fill="#594A39"/>
<path d="M40.455 105.248H37.5156V108.187H40.455V105.248Z" fill="#594A39"/>
<path d="M46.3339 105.248H43.3945V108.187H46.3339V105.248Z" fill="#594A39"/>
<path d="M49.2734 105.248H46.334V108.187H49.2734V105.248Z" fill="#594A39"/>
<path d="M61.0312 105.248H58.0918V108.187H61.0312V105.248Z" fill="#594A39"/>
<path d="M66.9081 105.248H63.9688V108.187H66.9081V105.248Z" fill="#594A39"/>
<path d="M72.7871 105.248H69.8477V108.187H72.7871V105.248Z" fill="#594A39"/>
<path d="M75.7265 105.248H72.7871V108.187H75.7265V105.248Z" fill="#594A39"/>
<path d="M78.666 105.248H75.7266V108.187H78.666V105.248Z" fill="#594A39"/>
<path d="M81.6054 105.248H78.666V108.187H81.6054V105.248Z" fill="#594A39"/>
<path d="M90.4238 105.248H87.4844V108.187H90.4238V105.248Z" fill="#594A39"/>
<path d="M102.182 105.248H99.2422V108.187H102.182V105.248Z" fill="#594A39"/>
<path d="M105.121 105.248H102.182V108.187H105.121V105.248Z" fill="#594A39"/>
<path d="M108.06 105.248H105.121V108.187H108.06V105.248Z" fill="#594A39"/>
<path d="M111 105.248H108.061V108.187H111V105.248Z" fill="#594A39"/>
<path d="M31.6367 108.188H28.6973V111.127H31.6367V108.188Z" fill="#594A39"/>
<path d="M40.455 108.188H37.5156V111.127H40.455V108.188Z" fill="#594A39"/>
<path d="M43.3945 108.188H40.4551V111.127H43.3945V108.188Z" fill="#594A39"/>
<path d="M55.1523 108.188H52.2129V111.127H55.1523V108.188Z" fill="#594A39"/>
<path d="M72.7871 108.188H69.8477V111.127H72.7871V108.188Z" fill="#594A39"/>
<path d="M78.666 108.188H75.7266V111.127H78.666V108.188Z" fill="#594A39"/>
<path d="M81.6054 108.188H78.666V111.127H81.6054V108.188Z" fill="#594A39"/>
<path d="M84.5449 108.188H81.6055V111.127H84.5449V108.188Z" fill="#594A39"/>
<path d="M93.3632 108.188H90.4238V111.127H93.3632V108.188Z" fill="#594A39"/>
<path d="M105.121 108.188H102.182V111.127H105.121V108.188Z" fill="#594A39"/>
<path d="M111 108.188H108.061V111.127H111V108.188Z" fill="#594A39"/>
<path d="M16.9394 111.127H14V114.066H16.9394V111.127Z" fill="#594A39"/>
<path d="M19.8788 111.127H16.9395V114.066H19.8788V111.127Z" fill="#594A39"/>
<path d="M22.8183 111.127H19.8789V114.066H22.8183V111.127Z" fill="#594A39"/>
<path d="M25.7578 111.127H22.8184V114.066H25.7578V111.127Z" fill="#594A39"/>
<path d="M31.6367 111.127H28.6973V114.066H31.6367V111.127Z" fill="#594A39"/>
<path d="M34.5761 111.127H31.6367V114.066H34.5761V111.127Z" fill="#594A39"/>
<path d="M37.5156 111.127H34.5762V114.066H37.5156V111.127Z" fill="#594A39"/>
<path d="M40.455 111.127H37.5156V114.066H40.455V111.127Z" fill="#594A39"/>
<path d="M46.3339 111.127H43.3945V114.066H46.3339V111.127Z" fill="#594A39"/>
<path d="M55.1523 111.127H52.2129V114.066H55.1523V111.127Z" fill="#594A39"/>
<path d="M75.7265 111.127H72.7871V114.066H75.7265V111.127Z" fill="#594A39"/>
<path d="M78.666 111.127H75.7266V114.066H78.666V111.127Z" fill="#594A39"/>
<path d="M84.5449 111.127H81.6055V114.066H84.5449V111.127Z" fill="#594A39"/>
<path d="M93.3632 111.127H90.4238V114.066H93.3632V111.127Z" fill="#594A39"/>
<path d="M96.3027 111.127H93.3633V114.066H96.3027V111.127Z" fill="#594A39"/>
<path d="M99.2421 111.127H96.3027V114.066H99.2421V111.127Z" fill="#594A39"/>
<path d="M105.121 111.127H102.182V114.066H105.121V111.127Z" fill="#594A39"/>
<path d="M108.06 111.127H105.121V114.066H108.06V111.127Z" fill="#594A39"/>
<path d="M111 111.127H108.061V114.066H111V111.127Z" fill="#594A39"/>
<path d="M16.9394 114.066H14V117.006H16.9394V114.066Z" fill="#594A39"/>
<path d="M25.7578 114.066H22.8184V117.006H25.7578V114.066Z" fill="#594A39"/>
<path d="M28.6972 114.066H25.7578V117.006H28.6972V114.066Z" fill="#594A39"/>
<path d="M37.5156 114.066H34.5762V117.006H37.5156V114.066Z" fill="#594A39"/>
<path d="M40.455 114.066H37.5156V117.006H40.455V114.066Z" fill="#594A39"/>
<path d="M43.3945 114.066H40.4551V117.006H43.3945V114.066Z" fill="#594A39"/>
<path d="M49.2734 114.066H46.334V117.006H49.2734V114.066Z" fill="#594A39"/>
<path d="M52.2128 114.066H49.2734V117.006H52.2128V114.066Z" fill="#594A39"/>
<path d="M58.0917 114.066H55.1523V117.006H58.0917V114.066Z" fill="#594A39"/>
<path d="M63.9706 114.066H61.0312V117.006H63.9706V114.066Z" fill="#594A39"/>
<path d="M69.8476 114.066H66.9082V117.006H69.8476V114.066Z" fill="#594A39"/>
<path d="M75.7265 114.066H72.7871V117.006H75.7265V114.066Z" fill="#594A39"/>
<path d="M81.6054 114.066H78.666V117.006H81.6054V114.066Z" fill="#594A39"/>
<path d="M84.5449 114.066H81.6055V117.006H84.5449V114.066Z" fill="#594A39"/>
<path d="M93.3632 114.066H90.4238V117.006H93.3632V114.066Z" fill="#594A39"/>
<path d="M99.2421 114.066H96.3027V117.006H99.2421V114.066Z" fill="#594A39"/>
<path d="M108.06 114.066H105.121V117.006H108.06V114.066Z" fill="#594A39"/>
<path d="M19.8788 117.006H16.9395V119.945H19.8788V117.006Z" fill="#594A39"/>
<path d="M22.8183 117.006H19.8789V119.945H22.8183V117.006Z" fill="#594A39"/>
<path d="M25.7578 117.006H22.8184V119.945H25.7578V117.006Z" fill="#594A39"/>
<path d="M28.6972 117.006H25.7578V119.945H28.6972V117.006Z" fill="#594A39"/>
<path d="M34.5761 117.006H31.6367V119.945H34.5761V117.006Z" fill="#594A39"/>
<path d="M37.5156 117.006H34.5762V119.945H37.5156V117.006Z" fill="#594A39"/>
<path d="M43.3945 117.006H40.4551V119.945H43.3945V117.006Z" fill="#594A39"/>
<path d="M46.3339 117.006H43.3945V119.945H46.3339V117.006Z" fill="#594A39"/>
<path d="M49.2734 117.006H46.334V119.945H49.2734V117.006Z" fill="#594A39"/>
<path d="M58.0917 117.006H55.1523V119.945H58.0917V117.006Z" fill="#594A39"/>
<path d="M66.9081 117.006H63.9688V119.945H66.9081V117.006Z" fill="#594A39"/>
<path d="M81.6054 117.006H78.666V119.945H81.6054V117.006Z" fill="#594A39"/>
<path d="M84.5449 117.006H81.6055V119.945H84.5449V117.006Z" fill="#594A39"/>
<path d="M87.4843 117.006H84.5449V119.945H87.4843V117.006Z" fill="#594A39"/>
<path d="M90.4238 117.006H87.4844V119.945H90.4238V117.006Z" fill="#594A39"/>
<path d="M93.3632 117.006H90.4238V119.945H93.3632V117.006Z" fill="#594A39"/>
<path d="M96.3027 117.006H93.3633V119.945H96.3027V117.006Z" fill="#594A39"/>
<path d="M99.2421 117.006H96.3027V119.945H99.2421V117.006Z" fill="#594A39"/>
<path d="M108.06 117.006H105.121V119.945H108.06V117.006Z" fill="#594A39"/>
<path d="M111 117.006H108.061V119.945H111V117.006Z" fill="#594A39"/>
<path d="M40.455 119.944H37.5156V122.884H40.455V119.944Z" fill="#594A39"/>
<path d="M46.3339 119.944H43.3945V122.884H46.3339V119.944Z" fill="#594A39"/>
<path d="M52.2128 119.944H49.2734V122.884H52.2128V119.944Z" fill="#594A39"/>
<path d="M55.1523 119.944H52.2129V122.884H55.1523V119.944Z" fill="#594A39"/>
<path d="M61.0312 119.944H58.0918V122.884H61.0312V119.944Z" fill="#594A39"/>
<path d="M72.7871 119.944H69.8477V122.884H72.7871V119.944Z" fill="#594A39"/>
<path d="M81.6054 119.944H78.666V122.884H81.6054V119.944Z" fill="#594A39"/>
<path d="M87.4843 119.944H84.5449V122.884H87.4843V119.944Z" fill="#594A39"/>
<path d="M99.2421 119.944H96.3027V122.884H99.2421V119.944Z" fill="#594A39"/>
<path d="M102.182 119.944H99.2422V122.884H102.182V119.944Z" fill="#594A39"/>
<path d="M16.9394 122.884H14V125.823H16.9394V122.884Z" fill="#594A39"/>
<path d="M19.8788 122.884H16.9395V125.823H19.8788V122.884Z" fill="#594A39"/>
<path d="M22.8183 122.884H19.8789V125.823H22.8183V122.884Z" fill="#594A39"/>
<path d="M25.7578 122.884H22.8184V125.823H25.7578V122.884Z" fill="#594A39"/>
<path d="M28.6972 122.884H25.7578V125.823H28.6972V122.884Z" fill="#594A39"/>
<path d="M31.6367 122.884H28.6973V125.823H31.6367V122.884Z" fill="#594A39"/>
<path d="M34.5761 122.884H31.6367V125.823H34.5761V122.884Z" fill="#594A39"/>
<path d="M40.455 122.884H37.5156V125.823H40.455V122.884Z" fill="#594A39"/>
<path d="M43.3945 122.884H40.4551V125.823H43.3945V122.884Z" fill="#594A39"/>
<path d="M52.2128 122.884H49.2734V125.823H52.2128V122.884Z" fill="#594A39"/>
<path d="M55.1523 122.884H52.2129V125.823H55.1523V122.884Z" fill="#594A39"/>
<path d="M58.0917 122.884H55.1523V125.823H58.0917V122.884Z" fill="#594A39"/>
<path d="M72.7871 122.884H69.8477V125.823H72.7871V122.884Z" fill="#594A39"/>
<path d="M81.6054 122.884H78.666V125.823H81.6054V122.884Z" fill="#594A39"/>
<path d="M84.5449 122.884H81.6055V125.823H84.5449V122.884Z" fill="#594A39"/>
<path d="M87.4843 122.884H84.5449V125.823H87.4843V122.884Z" fill="#594A39"/>
<path d="M93.3632 122.884H90.4238V125.823H93.3632V122.884Z" fill="#594A39"/>
<path d="M99.2421 122.884H96.3027V125.823H99.2421V122.884Z" fill="#594A39"/>
<path d="M16.9394 125.823H14V128.763H16.9394V125.823Z" fill="#594A39"/>
<path d="M34.5761 125.823H31.6367V128.763H34.5761V125.823Z" fill="#594A39"/>
<path d="M40.455 125.823H37.5156V128.763H40.455V125.823Z" fill="#594A39"/>
<path d="M43.3945 125.823H40.4551V128.763H43.3945V125.823Z" fill="#594A39"/>
<path d="M52.2128 125.823H49.2734V128.763H52.2128V125.823Z" fill="#594A39"/>
<path d="M61.0312 125.823H58.0918V128.763H61.0312V125.823Z" fill="#594A39"/>
<path d="M63.9706 125.823H61.0312V128.763H63.9706V125.823Z" fill="#594A39"/>
<path d="M69.8476 125.823H66.9082V128.763H69.8476V125.823Z" fill="#594A39"/>
<path d="M75.7265 125.823H72.7871V128.763H75.7265V125.823Z" fill="#594A39"/>
<path d="M78.666 125.823H75.7266V128.763H78.666V125.823Z" fill="#594A39"/>
<path d="M81.6054 125.823H78.666V128.763H81.6054V125.823Z" fill="#594A39"/>
<path d="M84.5449 125.823H81.6055V128.763H84.5449V125.823Z" fill="#594A39"/>
<path d="M87.4843 125.823H84.5449V128.763H87.4843V125.823Z" fill="#594A39"/>
<path d="M99.2421 125.823H96.3027V128.763H99.2421V125.823Z" fill="#594A39"/>
<path d="M102.182 125.823H99.2422V128.763H102.182V125.823Z" fill="#594A39"/>
<path d="M105.121 125.823H102.182V128.763H105.121V125.823Z" fill="#594A39"/>
<path d="M108.06 125.823H105.121V128.763H108.06V125.823Z" fill="#594A39"/>
<path d="M111 125.823H108.061V128.763H111V125.823Z" fill="#594A39"/>
<path d="M16.9394 128.763H14V131.702H16.9394V128.763Z" fill="#594A39"/>
<path d="M22.8183 128.763H19.8789V131.702H22.8183V128.763Z" fill="#594A39"/>
<path d="M25.7578 128.763H22.8184V131.702H25.7578V128.763Z" fill="#594A39"/>
<path d="M28.6972 128.763H25.7578V131.702H28.6972V128.763Z" fill="#594A39"/>
<path d="M34.5761 128.763H31.6367V131.702H34.5761V128.763Z" fill="#594A39"/>
<path d="M43.3945 128.763H40.4551V131.702H43.3945V128.763Z" fill="#594A39"/>
<path d="M49.2734 128.763H46.334V131.702H49.2734V128.763Z" fill="#594A39"/>
<path d="M52.2128 128.763H49.2734V131.702H52.2128V128.763Z" fill="#594A39"/>
<path d="M61.0312 128.763H58.0918V131.702H61.0312V128.763Z" fill="#594A39"/>
<path d="M63.9706 128.763H61.0312V131.702H63.9706V128.763Z" fill="#594A39"/>
<path d="M78.666 128.763H75.7266V131.702H78.666V128.763Z" fill="#594A39"/>
<path d="M84.5449 128.763H81.6055V131.702H84.5449V128.763Z" fill="#594A39"/>
<path d="M87.4843 128.763H84.5449V131.702H87.4843V128.763Z" fill="#594A39"/>
<path d="M90.4238 128.763H87.4844V131.702H90.4238V128.763Z" fill="#594A39"/>
<path d="M93.3632 128.763H90.4238V131.702H93.3632V128.763Z" fill="#594A39"/>
<path d="M96.3027 128.763H93.3633V131.702H96.3027V128.763Z" fill="#594A39"/>
<path d="M99.2421 128.763H96.3027V131.702H99.2421V128.763Z" fill="#594A39"/>
<path d="M105.121 128.763H102.182V131.702H105.121V128.763Z" fill="#594A39"/>
<path d="M111 128.763H108.061V131.702H111V128.763Z" fill="#594A39"/>
<path d="M16.9394 131.702H14V134.642H16.9394V131.702Z" fill="#594A39"/>
<path d="M22.8183 131.702H19.8789V134.642H22.8183V131.702Z" fill="#594A39"/>
<path d="M25.7578 131.702H22.8184V134.642H25.7578V131.702Z" fill="#594A39"/>
<path d="M28.6972 131.702H25.7578V134.642H28.6972V131.702Z" fill="#594A39"/>
<path d="M34.5761 131.702H31.6367V134.642H34.5761V131.702Z" fill="#594A39"/>
<path d="M40.455 131.702H37.5156V134.642H40.455V131.702Z" fill="#594A39"/>
<path d="M52.2128 131.702H49.2734V134.642H52.2128V131.702Z" fill="#594A39"/>
<path d="M58.0917 131.702H55.1523V134.642H58.0917V131.702Z" fill="#594A39"/>
<path d="M61.0312 131.702H58.0918V134.642H61.0312V131.702Z" fill="#594A39"/>
<path d="M63.9706 131.702H61.0312V134.642H63.9706V131.702Z" fill="#594A39"/>
<path d="M66.9081 131.702H63.9688V134.642H66.9081V131.702Z" fill="#594A39"/>
<path d="M69.8476 131.702H66.9082V134.642H69.8476V131.702Z" fill="#594A39"/>
<path d="M84.5449 131.702H81.6055V134.642H84.5449V131.702Z" fill="#594A39"/>
<path d="M96.3027 131.702H93.3633V134.642H96.3027V131.702Z" fill="#594A39"/>
<path d="M102.182 131.702H99.2422V134.642H102.182V131.702Z" fill="#594A39"/>
<path d="M105.121 131.702H102.182V134.642H105.121V131.702Z" fill="#594A39"/>
<path d="M111 131.702H108.061V134.642H111V131.702Z" fill="#594A39"/>
<path d="M16.9394 134.642H14V137.581H16.9394V134.642Z" fill="#594A39"/>
<path d="M22.8183 134.642H19.8789V137.581H22.8183V134.642Z" fill="#594A39"/>
<path d="M25.7578 134.642H22.8184V137.581H25.7578V134.642Z" fill="#594A39"/>
<path d="M28.6972 134.642H25.7578V137.581H28.6972V134.642Z" fill="#594A39"/>
<path d="M34.5761 134.642H31.6367V137.581H34.5761V134.642Z" fill="#594A39"/>
<path d="M40.455 134.642H37.5156V137.581H40.455V134.642Z" fill="#594A39"/>
<path d="M46.3339 134.642H43.3945V137.581H46.3339V134.642Z" fill="#594A39"/>
<path d="M49.2734 134.642H46.334V137.581H49.2734V134.642Z" fill="#594A39"/>
<path d="M52.2128 134.642H49.2734V137.581H52.2128V134.642Z" fill="#594A39"/>
<path d="M55.1523 134.642H52.2129V137.581H55.1523V134.642Z" fill="#594A39"/>
<path d="M61.0312 134.642H58.0918V137.581H61.0312V134.642Z" fill="#594A39"/>
<path d="M63.9706 134.642H61.0312V137.581H63.9706V134.642Z" fill="#594A39"/>
<path d="M66.9081 134.642H63.9688V137.581H66.9081V134.642Z" fill="#594A39"/>
<path d="M75.7265 134.642H72.7871V137.581H75.7265V134.642Z" fill="#594A39"/>
<path d="M87.4843 134.642H84.5449V137.581H87.4843V134.642Z" fill="#594A39"/>
<path d="M93.3632 134.642H90.4238V137.581H93.3632V134.642Z" fill="#594A39"/>
<path d="M96.3027 134.642H93.3633V137.581H96.3027V134.642Z" fill="#594A39"/>
<path d="M102.182 134.642H99.2422V137.581H102.182V134.642Z" fill="#594A39"/>
<path d="M16.9394 137.581H14V140.52H16.9394V137.581Z" fill="#594A39"/>
<path d="M34.5761 137.581H31.6367V140.52H34.5761V137.581Z" fill="#594A39"/>
<path d="M43.3945 137.581H40.4551V140.52H43.3945V137.581Z" fill="#594A39"/>
<path d="M46.3339 137.581H43.3945V140.52H46.3339V137.581Z" fill="#594A39"/>
<path d="M49.2734 137.581H46.334V140.52H49.2734V137.581Z" fill="#594A39"/>
<path d="M52.2128 137.581H49.2734V140.52H52.2128V137.581Z" fill="#594A39"/>
<path d="M58.0917 137.581H55.1523V140.52H58.0917V137.581Z" fill="#594A39"/>
<path d="M63.9706 137.581H61.0312V140.52H63.9706V137.581Z" fill="#594A39"/>
<path d="M66.9081 137.581H63.9688V140.52H66.9081V137.581Z" fill="#594A39"/>
<path d="M69.8476 137.581H66.9082V140.52H69.8476V137.581Z" fill="#594A39"/>
<path d="M81.6054 137.581H78.666V140.52H81.6054V137.581Z" fill="#594A39"/>
<path d="M87.4843 137.581H84.5449V140.52H87.4843V137.581Z" fill="#594A39"/>
<path d="M90.4238 137.581H87.4844V140.52H90.4238V137.581Z" fill="#594A39"/>
<path d="M96.3027 137.581H93.3633V140.52H96.3027V137.581Z" fill="#594A39"/>
<path d="M99.2421 137.581H96.3027V140.52H99.2421V137.581Z" fill="#594A39"/>
<path d="M111 137.581H108.061V140.52H111V137.581Z" fill="#594A39"/>
<path d="M16.9394 140.521H14V143.46H16.9394V140.521Z" fill="#594A39"/>
<path d="M19.8788 140.521H16.9395V143.46H19.8788V140.521Z" fill="#594A39"/>
<path d="M22.8183 140.521H19.8789V143.46H22.8183V140.521Z" fill="#594A39"/>
<path d="M25.7578 140.521H22.8184V143.46H25.7578V140.521Z" fill="#594A39"/>
<path d="M28.6972 140.521H25.7578V143.46H28.6972V140.521Z" fill="#594A39"/>
<path d="M31.6367 140.521H28.6973V143.46H31.6367V140.521Z" fill="#594A39"/>
<path d="M34.5761 140.521H31.6367V143.46H34.5761V140.521Z" fill="#594A39"/>
<path d="M40.455 140.521H37.5156V143.46H40.455V140.521Z" fill="#594A39"/>
<path d="M46.3339 140.521H43.3945V143.46H46.3339V140.521Z" fill="#594A39"/>
<path d="M63.9706 140.521H61.0312V143.46H63.9706V140.521Z" fill="#594A39"/>
<path d="M66.9081 140.521H63.9688V143.46H66.9081V140.521Z" fill="#594A39"/>
<path d="M69.8476 140.521H66.9082V143.46H69.8476V140.521Z" fill="#594A39"/>
<path d="M72.7871 140.521H69.8477V143.46H72.7871V140.521Z" fill="#594A39"/>
<path d="M75.7265 140.521H72.7871V143.46H75.7265V140.521Z" fill="#594A39"/>
<path d="M78.666 140.521H75.7266V143.46H78.666V140.521Z" fill="#594A39"/>
<path d="M84.5449 140.521H81.6055V143.46H84.5449V140.521Z" fill="#594A39"/>
<path d="M93.3632 140.521H90.4238V143.46H93.3632V140.521Z" fill="#594A39"/>
<path d="M99.2421 140.521H96.3027V143.46H99.2421V140.521Z" fill="#594A39"/>
<path d="M105.121 140.521H102.182V143.46H105.121V140.521Z" fill="#594A39"/>
</svg>
