<svg width="168" height="207" viewBox="0 0 168 207" fill="none" xmlns="http://www.w3.org/2000/svg">
<rect x="1.5" y="1.5" width="165" height="203.46" rx="8.5" fill="white"/>
<rect x="1.5" y="1.5" width="165" height="203.46" rx="8.5" stroke="#E9E3D8" stroke-width="3"/>
<path d="M59.4384 22.24L58.9984 23.86H62.5184L62.0784 22.24C61.6184 20.7 61.2184 19 60.7984 17.4H60.6984C60.3184 19.02 59.8784 20.7 59.4384 22.24ZM54.3184 29.96L59.0584 15.14H62.5384L67.2984 29.96H64.1984L63.1584 26.16H58.3584L57.3184 29.96H54.3184Z" fill="#B8C318"/>
<path d="M69.5909 34.26V18.76H71.9909L72.2109 19.92H72.2709C73.2109 19.12 74.3709 18.48 75.5709 18.48C78.3309 18.48 79.9709 20.74 79.9709 24.18C79.9709 28.02 77.6709 30.24 75.2109 30.24C74.2309 30.24 73.2909 29.8 72.4309 29.02L72.5309 30.86V34.26H69.5909ZM74.5509 27.82C75.9109 27.82 76.9509 26.66 76.9509 24.22C76.9509 22.08 76.2709 20.9 74.7309 20.9C73.9709 20.9 73.2909 21.28 72.5309 22.06V26.98C73.2309 27.6 73.9509 27.82 74.5509 27.82Z" fill="#B8C318"/>
<path d="M83.262 34.26V18.76H85.662L85.882 19.92H85.942C86.882 19.12 88.042 18.48 89.242 18.48C92.002 18.48 93.642 20.74 93.642 24.18C93.642 28.02 91.342 30.24 88.882 30.24C87.902 30.24 86.962 29.8 86.102 29.02L86.202 30.86V34.26H83.262ZM88.222 27.82C89.582 27.82 90.622 26.66 90.622 24.22C90.622 22.08 89.942 20.9 88.402 20.9C87.642 20.9 86.962 21.28 86.202 22.06V26.98C86.902 27.6 87.622 27.82 88.222 27.82Z" fill="#B8C318"/>
<path d="M99.6931 30.24C97.653 30.24 96.933 28.9 96.933 26.82V14H99.873V26.94C99.873 27.62 100.173 27.84 100.453 27.84C100.573 27.84 100.653 27.84 100.853 27.8L101.213 29.98C100.873 30.12 100.393 30.24 99.6931 30.24Z" fill="#B8C318"/>
<path d="M105.022 34.46C104.362 34.46 103.922 34.38 103.482 34.24L104.022 31.98C104.222 32.04 104.542 32.12 104.802 32.12C105.942 32.12 106.582 31.4 106.902 30.42L107.102 29.76L102.742 18.76H105.702L107.482 23.96C107.822 24.96 108.102 26.04 108.422 27.12H108.522C108.782 26.08 109.062 25 109.322 23.96L110.862 18.76H113.682L109.702 30.3C108.722 32.94 107.522 34.46 105.022 34.46Z" fill="#B8C318"/>
<path d="M18.2424 46.46H14V50.7024H18.2424V46.46Z" fill="#594A39"/>
<path d="M22.4846 46.46H18.2422V50.7024H22.4846V46.46Z" fill="#594A39"/>
<path d="M26.7278 46.46H22.4854V50.7024H26.7278V46.46Z" fill="#594A39"/>
<path d="M30.97 46.46H26.7275V50.7024H30.97V46.46Z" fill="#594A39"/>
<path d="M35.2122 46.46H30.9697V50.7024H35.2122V46.46Z" fill="#594A39"/>
<path d="M39.4553 46.46H35.2129V50.7024H39.4553V46.46Z" fill="#594A39"/>
<path d="M43.6975 46.46H39.4551V50.7024H43.6975V46.46Z" fill="#594A39"/>
<path d="M52.1829 46.46H47.9404V50.7024H52.1829V46.46Z" fill="#594A39"/>
<path d="M56.4241 46.46H52.1816V50.7024H56.4241V46.46Z" fill="#594A39"/>
<path d="M60.6663 46.46H56.4238V50.7024H60.6663V46.46Z" fill="#594A39"/>
<path d="M64.9084 46.46H60.666V50.7024H64.9084V46.46Z" fill="#594A39"/>
<path d="M69.1516 46.46H64.9092V50.7024H69.1516V46.46Z" fill="#594A39"/>
<path d="M73.3938 46.46H69.1514V50.7024H73.3938V46.46Z" fill="#594A39"/>
<path d="M90.3635 46.46H86.1211V50.7024H90.3635V46.46Z" fill="#594A39"/>
<path d="M94.6057 46.46H90.3633V50.7024H94.6057V46.46Z" fill="#594A39"/>
<path d="M98.8489 46.46H94.6064V50.7024H98.8489V46.46Z" fill="#594A39"/>
<path d="M103.091 46.46H98.8486V50.7024H103.091V46.46Z" fill="#594A39"/>
<path d="M107.333 46.46H103.091V50.7024H107.333V46.46Z" fill="#594A39"/>
<path d="M115.819 46.46H111.576V50.7024H115.819V46.46Z" fill="#594A39"/>
<path d="M128.545 46.46H124.303V50.7024H128.545V46.46Z" fill="#594A39"/>
<path d="M132.787 46.46H128.545V50.7024H132.787V46.46Z" fill="#594A39"/>
<path d="M137.03 46.46H132.787V50.7024H137.03V46.46Z" fill="#594A39"/>
<path d="M141.273 46.46H137.03V50.7024H141.273V46.46Z" fill="#594A39"/>
<path d="M145.515 46.46H141.272V50.7024H145.515V46.46Z" fill="#594A39"/>
<path d="M149.757 46.46H145.515V50.7024H149.757V46.46Z" fill="#594A39"/>
<path d="M154 46.46H149.758V50.7024H154V46.46Z" fill="#594A39"/>
<path d="M18.2424 50.7021H14V54.9446H18.2424V50.7021Z" fill="#594A39"/>
<path d="M43.6975 50.7021H39.4551V54.9446H43.6975V50.7021Z" fill="#594A39"/>
<path d="M52.1829 50.7021H47.9404V54.9446H52.1829V50.7021Z" fill="#594A39"/>
<path d="M56.4241 50.7021H52.1816V54.9446H56.4241V50.7021Z" fill="#594A39"/>
<path d="M60.6663 50.7021H56.4238V54.9446H60.6663V50.7021Z" fill="#594A39"/>
<path d="M64.9084 50.7021H60.666V54.9446H64.9084V50.7021Z" fill="#594A39"/>
<path d="M69.1516 50.7021H64.9092V54.9446H69.1516V50.7021Z" fill="#594A39"/>
<path d="M73.3938 50.7021H69.1514V54.9446H73.3938V50.7021Z" fill="#594A39"/>
<path d="M86.1213 50.7021H81.8789V54.9446H86.1213V50.7021Z" fill="#594A39"/>
<path d="M90.3635 50.7021H86.1211V54.9446H90.3635V50.7021Z" fill="#594A39"/>
<path d="M103.091 50.7021H98.8486V54.9446H103.091V50.7021Z" fill="#594A39"/>
<path d="M111.576 50.7021H107.334V54.9446H111.576V50.7021Z" fill="#594A39"/>
<path d="M115.819 50.7021H111.576V54.9446H115.819V50.7021Z" fill="#594A39"/>
<path d="M128.545 50.7021H124.303V54.9446H128.545V50.7021Z" fill="#594A39"/>
<path d="M154 50.7021H149.758V54.9446H154V50.7021Z" fill="#594A39"/>
<path d="M18.2424 54.9453H14V59.1877H18.2424V54.9453Z" fill="#594A39"/>
<path d="M26.7278 54.9453H22.4854V59.1877H26.7278V54.9453Z" fill="#594A39"/>
<path d="M30.97 54.9453H26.7275V59.1877H30.97V54.9453Z" fill="#594A39"/>
<path d="M35.2122 54.9453H30.9697V59.1877H35.2122V54.9453Z" fill="#594A39"/>
<path d="M43.6975 54.9453H39.4551V59.1877H43.6975V54.9453Z" fill="#594A39"/>
<path d="M56.4241 54.9453H52.1816V59.1877H56.4241V54.9453Z" fill="#594A39"/>
<path d="M81.8791 54.9453H77.6367V59.1877H81.8791V54.9453Z" fill="#594A39"/>
<path d="M94.6057 54.9453H90.3633V59.1877H94.6057V54.9453Z" fill="#594A39"/>
<path d="M103.091 54.9453H98.8486V59.1877H103.091V54.9453Z" fill="#594A39"/>
<path d="M111.576 54.9453H107.334V59.1877H111.576V54.9453Z" fill="#594A39"/>
<path d="M115.819 54.9453H111.576V59.1877H115.819V54.9453Z" fill="#594A39"/>
<path d="M120.061 54.9453H115.818V59.1877H120.061V54.9453Z" fill="#594A39"/>
<path d="M128.545 54.9453H124.303V59.1877H128.545V54.9453Z" fill="#594A39"/>
<path d="M137.03 54.9453H132.787V59.1877H137.03V54.9453Z" fill="#594A39"/>
<path d="M141.273 54.9453H137.03V59.1877H141.273V54.9453Z" fill="#594A39"/>
<path d="M145.515 54.9453H141.272V59.1877H145.515V54.9453Z" fill="#594A39"/>
<path d="M154 54.9453H149.758V59.1877H154V54.9453Z" fill="#594A39"/>
<path d="M18.2424 59.1875H14V63.4299H18.2424V59.1875Z" fill="#594A39"/>
<path d="M26.7278 59.1875H22.4854V63.4299H26.7278V59.1875Z" fill="#594A39"/>
<path d="M30.97 59.1875H26.7275V63.4299H30.97V59.1875Z" fill="#594A39"/>
<path d="M35.2122 59.1875H30.9697V63.4299H35.2122V59.1875Z" fill="#594A39"/>
<path d="M43.6975 59.1875H39.4551V63.4299H43.6975V59.1875Z" fill="#594A39"/>
<path d="M52.1829 59.1875H47.9404V63.4299H52.1829V59.1875Z" fill="#594A39"/>
<path d="M60.6663 59.1875H56.4238V63.4299H60.6663V59.1875Z" fill="#594A39"/>
<path d="M69.1516 59.1875H64.9092V63.4299H69.1516V59.1875Z" fill="#594A39"/>
<path d="M77.636 59.1875H73.3936V63.4299H77.636V59.1875Z" fill="#594A39"/>
<path d="M81.8791 59.1875H77.6367V63.4299H81.8791V59.1875Z" fill="#594A39"/>
<path d="M90.3635 59.1875H86.1211V63.4299H90.3635V59.1875Z" fill="#594A39"/>
<path d="M94.6057 59.1875H90.3633V63.4299H94.6057V59.1875Z" fill="#594A39"/>
<path d="M98.8489 59.1875H94.6064V63.4299H98.8489V59.1875Z" fill="#594A39"/>
<path d="M103.091 59.1875H98.8486V63.4299H103.091V59.1875Z" fill="#594A39"/>
<path d="M107.333 59.1875H103.091V63.4299H107.333V59.1875Z" fill="#594A39"/>
<path d="M111.576 59.1875H107.334V63.4299H111.576V59.1875Z" fill="#594A39"/>
<path d="M115.819 59.1875H111.576V63.4299H115.819V59.1875Z" fill="#594A39"/>
<path d="M128.545 59.1875H124.303V63.4299H128.545V59.1875Z" fill="#594A39"/>
<path d="M137.03 59.1875H132.787V63.4299H137.03V59.1875Z" fill="#594A39"/>
<path d="M141.273 59.1875H137.03V63.4299H141.273V59.1875Z" fill="#594A39"/>
<path d="M145.515 59.1875H141.272V63.4299H145.515V59.1875Z" fill="#594A39"/>
<path d="M154 59.1875H149.758V63.4299H154V59.1875Z" fill="#594A39"/>
<path d="M18.2424 63.4297H14V67.6721H18.2424V63.4297Z" fill="#594A39"/>
<path d="M26.7278 63.4297H22.4854V67.6721H26.7278V63.4297Z" fill="#594A39"/>
<path d="M30.97 63.4297H26.7275V67.6721H30.97V63.4297Z" fill="#594A39"/>
<path d="M35.2122 63.4297H30.9697V67.6721H35.2122V63.4297Z" fill="#594A39"/>
<path d="M43.6975 63.4297H39.4551V67.6721H43.6975V63.4297Z" fill="#594A39"/>
<path d="M64.9084 63.4297H60.666V67.6721H64.9084V63.4297Z" fill="#594A39"/>
<path d="M73.3938 63.4297H69.1514V67.6721H73.3938V63.4297Z" fill="#594A39"/>
<path d="M77.636 63.4297H73.3936V67.6721H77.636V63.4297Z" fill="#594A39"/>
<path d="M94.6057 63.4297H90.3633V67.6721H94.6057V63.4297Z" fill="#594A39"/>
<path d="M98.8489 63.4297H94.6064V67.6721H98.8489V63.4297Z" fill="#594A39"/>
<path d="M103.091 63.4297H98.8486V67.6721H103.091V63.4297Z" fill="#594A39"/>
<path d="M111.576 63.4297H107.334V67.6721H111.576V63.4297Z" fill="#594A39"/>
<path d="M115.819 63.4297H111.576V67.6721H115.819V63.4297Z" fill="#594A39"/>
<path d="M120.061 63.4297H115.818V67.6721H120.061V63.4297Z" fill="#594A39"/>
<path d="M128.545 63.4297H124.303V67.6721H128.545V63.4297Z" fill="#594A39"/>
<path d="M137.03 63.4297H132.787V67.6721H137.03V63.4297Z" fill="#594A39"/>
<path d="M141.273 63.4297H137.03V67.6721H141.273V63.4297Z" fill="#594A39"/>
<path d="M145.515 63.4297H141.272V67.6721H145.515V63.4297Z" fill="#594A39"/>
<path d="M154 63.4297H149.758V67.6721H154V63.4297Z" fill="#594A39"/>
<path d="M18.2424 67.6729H14V71.9153H18.2424V67.6729Z" fill="#594A39"/>
<path d="M43.6975 67.6729H39.4551V71.9153H43.6975V67.6729Z" fill="#594A39"/>
<path d="M56.4241 67.6729H52.1816V71.9153H56.4241V67.6729Z" fill="#594A39"/>
<path d="M77.636 67.6729H73.3936V71.9153H77.636V67.6729Z" fill="#594A39"/>
<path d="M86.1213 67.6729H81.8789V71.9153H86.1213V67.6729Z" fill="#594A39"/>
<path d="M90.3635 67.6729H86.1211V71.9153H90.3635V67.6729Z" fill="#594A39"/>
<path d="M98.8489 67.6729H94.6064V71.9153H98.8489V67.6729Z" fill="#594A39"/>
<path d="M107.333 67.6729H103.091V71.9153H107.333V67.6729Z" fill="#594A39"/>
<path d="M120.061 67.6729H115.818V71.9153H120.061V67.6729Z" fill="#594A39"/>
<path d="M128.545 67.6729H124.303V71.9153H128.545V67.6729Z" fill="#594A39"/>
<path d="M154 67.6729H149.758V71.9153H154V67.6729Z" fill="#594A39"/>
<path d="M18.2424 71.915H14V76.1575H18.2424V71.915Z" fill="#594A39"/>
<path d="M22.4846 71.915H18.2422V76.1575H22.4846V71.915Z" fill="#594A39"/>
<path d="M26.7278 71.915H22.4854V76.1575H26.7278V71.915Z" fill="#594A39"/>
<path d="M30.97 71.915H26.7275V76.1575H30.97V71.915Z" fill="#594A39"/>
<path d="M35.2122 71.915H30.9697V76.1575H35.2122V71.915Z" fill="#594A39"/>
<path d="M39.4553 71.915H35.2129V76.1575H39.4553V71.915Z" fill="#594A39"/>
<path d="M43.6975 71.915H39.4551V76.1575H43.6975V71.915Z" fill="#594A39"/>
<path d="M52.1829 71.915H47.9404V76.1575H52.1829V71.915Z" fill="#594A39"/>
<path d="M60.6663 71.915H56.4238V76.1575H60.6663V71.915Z" fill="#594A39"/>
<path d="M69.1516 71.915H64.9092V76.1575H69.1516V71.915Z" fill="#594A39"/>
<path d="M77.636 71.915H73.3936V76.1575H77.636V71.915Z" fill="#594A39"/>
<path d="M86.1213 71.915H81.8789V76.1575H86.1213V71.915Z" fill="#594A39"/>
<path d="M94.6057 71.915H90.3633V76.1575H94.6057V71.915Z" fill="#594A39"/>
<path d="M103.091 71.915H98.8486V76.1575H103.091V71.915Z" fill="#594A39"/>
<path d="M111.576 71.915H107.334V76.1575H111.576V71.915Z" fill="#594A39"/>
<path d="M120.061 71.915H115.818V76.1575H120.061V71.915Z" fill="#594A39"/>
<path d="M128.545 71.915H124.303V76.1575H128.545V71.915Z" fill="#594A39"/>
<path d="M132.787 71.915H128.545V76.1575H132.787V71.915Z" fill="#594A39"/>
<path d="M137.03 71.915H132.787V76.1575H137.03V71.915Z" fill="#594A39"/>
<path d="M141.273 71.915H137.03V76.1575H141.273V71.915Z" fill="#594A39"/>
<path d="M145.515 71.915H141.272V76.1575H145.515V71.915Z" fill="#594A39"/>
<path d="M149.757 71.915H145.515V76.1575H149.757V71.915Z" fill="#594A39"/>
<path d="M154 71.915H149.758V76.1575H154V71.915Z" fill="#594A39"/>
<path d="M52.1829 76.1572H47.9404V80.3997H52.1829V76.1572Z" fill="#594A39"/>
<path d="M64.9084 76.1572H60.666V80.3997H64.9084V76.1572Z" fill="#594A39"/>
<path d="M81.8791 76.1572H77.6367V80.3997H81.8791V76.1572Z" fill="#594A39"/>
<path d="M86.1213 76.1572H81.8789V80.3997H86.1213V76.1572Z" fill="#594A39"/>
<path d="M90.3635 76.1572H86.1211V80.3997H90.3635V76.1572Z" fill="#594A39"/>
<path d="M94.6057 76.1572H90.3633V80.3997H94.6057V76.1572Z" fill="#594A39"/>
<path d="M98.8489 76.1572H94.6064V80.3997H98.8489V76.1572Z" fill="#594A39"/>
<path d="M120.061 76.1572H115.818V80.3997H120.061V76.1572Z" fill="#594A39"/>
<path d="M18.2424 80.4004H14V84.6428H18.2424V80.4004Z" fill="#594A39"/>
<path d="M26.7278 80.4004H22.4854V84.6428H26.7278V80.4004Z" fill="#594A39"/>
<path d="M30.97 80.4004H26.7275V84.6428H30.97V80.4004Z" fill="#594A39"/>
<path d="M39.4553 80.4004H35.2129V84.6428H39.4553V80.4004Z" fill="#594A39"/>
<path d="M43.6975 80.4004H39.4551V84.6428H43.6975V80.4004Z" fill="#594A39"/>
<path d="M47.9397 80.4004H43.6973V84.6428H47.9397V80.4004Z" fill="#594A39"/>
<path d="M56.4241 80.4004H52.1816V84.6428H56.4241V80.4004Z" fill="#594A39"/>
<path d="M64.9084 80.4004H60.666V84.6428H64.9084V80.4004Z" fill="#594A39"/>
<path d="M69.1516 80.4004H64.9092V84.6428H69.1516V80.4004Z" fill="#594A39"/>
<path d="M77.636 80.4004H73.3936V84.6428H77.636V80.4004Z" fill="#594A39"/>
<path d="M90.3635 80.4004H86.1211V84.6428H90.3635V80.4004Z" fill="#594A39"/>
<path d="M98.8489 80.4004H94.6064V84.6428H98.8489V80.4004Z" fill="#594A39"/>
<path d="M107.333 80.4004H103.091V84.6428H107.333V80.4004Z" fill="#594A39"/>
<path d="M115.819 80.4004H111.576V84.6428H115.819V80.4004Z" fill="#594A39"/>
<path d="M128.545 80.4004H124.303V84.6428H128.545V80.4004Z" fill="#594A39"/>
<path d="M141.273 80.4004H137.03V84.6428H141.273V80.4004Z" fill="#594A39"/>
<path d="M149.757 80.4004H145.515V84.6428H149.757V80.4004Z" fill="#594A39"/>
<path d="M154 80.4004H149.758V84.6428H154V80.4004Z" fill="#594A39"/>
<path d="M26.7278 84.6416H22.4854V88.884H26.7278V84.6416Z" fill="#594A39"/>
<path d="M30.97 84.6416H26.7275V88.884H30.97V84.6416Z" fill="#594A39"/>
<path d="M39.4553 84.6416H35.2129V88.884H39.4553V84.6416Z" fill="#594A39"/>
<path d="M60.6663 84.6416H56.4238V88.884H60.6663V84.6416Z" fill="#594A39"/>
<path d="M64.9084 84.6416H60.666V88.884H64.9084V84.6416Z" fill="#594A39"/>
<path d="M77.636 84.6416H73.3936V88.884H77.636V84.6416Z" fill="#594A39"/>
<path d="M86.1213 84.6416H81.8789V88.884H86.1213V84.6416Z" fill="#594A39"/>
<path d="M94.6057 84.6416H90.3633V88.884H94.6057V84.6416Z" fill="#594A39"/>
<path d="M98.8489 84.6416H94.6064V88.884H98.8489V84.6416Z" fill="#594A39"/>
<path d="M103.091 84.6416H98.8486V88.884H103.091V84.6416Z" fill="#594A39"/>
<path d="M107.333 84.6416H103.091V88.884H107.333V84.6416Z" fill="#594A39"/>
<path d="M115.819 84.6416H111.576V88.884H115.819V84.6416Z" fill="#594A39"/>
<path d="M120.061 84.6416H115.818V88.884H120.061V84.6416Z" fill="#594A39"/>
<path d="M128.545 84.6416H124.303V88.884H128.545V84.6416Z" fill="#594A39"/>
<path d="M132.787 84.6416H128.545V88.884H132.787V84.6416Z" fill="#594A39"/>
<path d="M141.273 84.6416H137.03V88.884H141.273V84.6416Z" fill="#594A39"/>
<path d="M145.515 84.6416H141.272V88.884H145.515V84.6416Z" fill="#594A39"/>
<path d="M154 84.6416H149.758V88.884H154V84.6416Z" fill="#594A39"/>
<path d="M22.4846 88.8838H18.2422V93.1262H22.4846V88.8838Z" fill="#594A39"/>
<path d="M43.6975 88.8838H39.4551V93.1262H43.6975V88.8838Z" fill="#594A39"/>
<path d="M47.9397 88.8838H43.6973V93.1262H47.9397V88.8838Z" fill="#594A39"/>
<path d="M52.1829 88.8838H47.9404V93.1262H52.1829V88.8838Z" fill="#594A39"/>
<path d="M77.636 88.8838H73.3936V93.1262H77.636V88.8838Z" fill="#594A39"/>
<path d="M90.3635 88.8838H86.1211V93.1262H90.3635V88.8838Z" fill="#594A39"/>
<path d="M107.333 88.8838H103.091V93.1262H107.333V88.8838Z" fill="#594A39"/>
<path d="M111.576 88.8838H107.334V93.1262H111.576V88.8838Z" fill="#594A39"/>
<path d="M115.819 88.8838H111.576V93.1262H115.819V88.8838Z" fill="#594A39"/>
<path d="M128.545 88.8838H124.303V93.1262H128.545V88.8838Z" fill="#594A39"/>
<path d="M132.787 88.8838H128.545V93.1262H132.787V88.8838Z" fill="#594A39"/>
<path d="M137.03 88.8838H132.787V93.1262H137.03V88.8838Z" fill="#594A39"/>
<path d="M141.273 88.8838H137.03V93.1262H141.273V88.8838Z" fill="#594A39"/>
<path d="M149.757 88.8838H145.515V93.1262H149.757V88.8838Z" fill="#594A39"/>
<path d="M154 88.8838H149.758V93.1262H154V88.8838Z" fill="#594A39"/>
<path d="M18.2424 93.126H14V97.3684H18.2424V93.126Z" fill="#594A39"/>
<path d="M22.4846 93.126H18.2422V97.3684H22.4846V93.126Z" fill="#594A39"/>
<path d="M73.3938 93.126H69.1514V97.3684H73.3938V93.126Z" fill="#594A39"/>
<path d="M77.636 93.126H73.3936V97.3684H77.636V93.126Z" fill="#594A39"/>
<path d="M98.8489 93.126H94.6064V97.3684H98.8489V93.126Z" fill="#594A39"/>
<path d="M120.061 93.126H115.818V97.3684H120.061V93.126Z" fill="#594A39"/>
<path d="M124.302 93.126H120.06V97.3684H124.302V93.126Z" fill="#594A39"/>
<path d="M128.545 93.126H124.303V97.3684H128.545V93.126Z" fill="#594A39"/>
<path d="M132.787 93.126H128.545V97.3684H132.787V93.126Z" fill="#594A39"/>
<path d="M141.273 93.126H137.03V97.3684H141.273V93.126Z" fill="#594A39"/>
<path d="M149.757 93.126H145.515V97.3684H149.757V93.126Z" fill="#594A39"/>
<path d="M22.4846 97.3691H18.2422V101.612H22.4846V97.3691Z" fill="#594A39"/>
<path d="M26.7278 97.3691H22.4854V101.612H26.7278V97.3691Z" fill="#594A39"/>
<path d="M30.97 97.3691H26.7275V101.612H30.97V97.3691Z" fill="#594A39"/>
<path d="M35.2122 97.3691H30.9697V101.612H35.2122V97.3691Z" fill="#594A39"/>
<path d="M43.6975 97.3691H39.4551V101.612H43.6975V97.3691Z" fill="#594A39"/>
<path d="M47.9397 97.3691H43.6973V101.612H47.9397V97.3691Z" fill="#594A39"/>
<path d="M52.1829 97.3691H47.9404V101.612H52.1829V97.3691Z" fill="#594A39"/>
<path d="M81.8791 97.3691H77.6367V101.612H81.8791V97.3691Z" fill="#594A39"/>
<path d="M86.1213 97.3691H81.8789V101.612H86.1213V97.3691Z" fill="#594A39"/>
<path d="M90.3635 97.3691H86.1211V101.612H90.3635V97.3691Z" fill="#594A39"/>
<path d="M94.6057 97.3691H90.3633V101.612H94.6057V97.3691Z" fill="#594A39"/>
<path d="M103.091 97.3691H98.8486V101.612H103.091V97.3691Z" fill="#594A39"/>
<path d="M124.302 97.3691H120.06V101.612H124.302V97.3691Z" fill="#594A39"/>
<path d="M137.03 97.3691H132.787V101.612H137.03V97.3691Z" fill="#594A39"/>
<path d="M141.273 97.3691H137.03V101.612H141.273V97.3691Z" fill="#594A39"/>
<path d="M149.757 97.3691H145.515V101.612H149.757V97.3691Z" fill="#594A39"/>
<path d="M22.4846 101.611H18.2422V105.854H22.4846V101.611Z" fill="#594A39"/>
<path d="M26.7278 101.611H22.4854V105.854H26.7278V101.611Z" fill="#594A39"/>
<path d="M47.9397 101.611H43.6973V105.854H47.9397V101.611Z" fill="#594A39"/>
<path d="M52.1829 101.611H47.9404V105.854H52.1829V101.611Z" fill="#594A39"/>
<path d="M56.4241 101.611H52.1816V105.854H56.4241V101.611Z" fill="#594A39"/>
<path d="M60.6663 101.611H56.4238V105.854H60.6663V101.611Z" fill="#594A39"/>
<path d="M69.1516 101.611H64.9092V105.854H69.1516V101.611Z" fill="#594A39"/>
<path d="M73.3938 101.611H69.1514V105.854H73.3938V101.611Z" fill="#594A39"/>
<path d="M81.8791 101.611H77.6367V105.854H81.8791V101.611Z" fill="#594A39"/>
<path d="M94.6057 101.611H90.3633V105.854H94.6057V101.611Z" fill="#594A39"/>
<path d="M98.8489 101.611H94.6064V105.854H98.8489V101.611Z" fill="#594A39"/>
<path d="M103.091 101.611H98.8486V105.854H103.091V101.611Z" fill="#594A39"/>
<path d="M107.333 101.611H103.091V105.854H107.333V101.611Z" fill="#594A39"/>
<path d="M115.819 101.611H111.576V105.854H115.819V101.611Z" fill="#594A39"/>
<path d="M120.061 101.611H115.818V105.854H120.061V101.611Z" fill="#594A39"/>
<path d="M132.787 101.611H128.545V105.854H132.787V101.611Z" fill="#594A39"/>
<path d="M149.757 101.611H145.515V105.854H149.757V101.611Z" fill="#594A39"/>
<path d="M18.2424 105.854H14V110.096H18.2424V105.854Z" fill="#594A39"/>
<path d="M26.7278 105.854H22.4854V110.096H26.7278V105.854Z" fill="#594A39"/>
<path d="M43.6975 105.854H39.4551V110.096H43.6975V105.854Z" fill="#594A39"/>
<path d="M47.9397 105.854H43.6973V110.096H47.9397V105.854Z" fill="#594A39"/>
<path d="M52.1829 105.854H47.9404V110.096H52.1829V105.854Z" fill="#594A39"/>
<path d="M56.4241 105.854H52.1816V110.096H56.4241V105.854Z" fill="#594A39"/>
<path d="M60.6663 105.854H56.4238V110.096H60.6663V105.854Z" fill="#594A39"/>
<path d="M73.3938 105.854H69.1514V110.096H73.3938V105.854Z" fill="#594A39"/>
<path d="M86.1213 105.854H81.8789V110.096H86.1213V105.854Z" fill="#594A39"/>
<path d="M90.3635 105.854H86.1211V110.096H90.3635V105.854Z" fill="#594A39"/>
<path d="M94.6057 105.854H90.3633V110.096H94.6057V105.854Z" fill="#594A39"/>
<path d="M98.8489 105.854H94.6064V110.096H98.8489V105.854Z" fill="#594A39"/>
<path d="M103.091 105.854H98.8486V110.096H103.091V105.854Z" fill="#594A39"/>
<path d="M111.576 105.854H107.334V110.096H111.576V105.854Z" fill="#594A39"/>
<path d="M128.545 105.854H124.303V110.096H128.545V105.854Z" fill="#594A39"/>
<path d="M132.787 105.854H128.545V110.096H132.787V105.854Z" fill="#594A39"/>
<path d="M137.03 105.854H132.787V110.096H137.03V105.854Z" fill="#594A39"/>
<path d="M141.273 105.854H137.03V110.096H141.273V105.854Z" fill="#594A39"/>
<path d="M18.2424 110.097H14V114.339H18.2424V110.097Z" fill="#594A39"/>
<path d="M22.4846 110.097H18.2422V114.339H22.4846V110.097Z" fill="#594A39"/>
<path d="M26.7278 110.097H22.4854V114.339H26.7278V110.097Z" fill="#594A39"/>
<path d="M35.2122 110.097H30.9697V114.339H35.2122V110.097Z" fill="#594A39"/>
<path d="M73.3938 110.097H69.1514V114.339H73.3938V110.097Z" fill="#594A39"/>
<path d="M77.636 110.097H73.3936V114.339H77.636V110.097Z" fill="#594A39"/>
<path d="M86.1213 110.097H81.8789V114.339H86.1213V110.097Z" fill="#594A39"/>
<path d="M94.6057 110.097H90.3633V114.339H94.6057V110.097Z" fill="#594A39"/>
<path d="M103.091 110.097H98.8486V114.339H103.091V110.097Z" fill="#594A39"/>
<path d="M107.333 110.097H103.091V114.339H107.333V110.097Z" fill="#594A39"/>
<path d="M111.576 110.097H107.334V114.339H111.576V110.097Z" fill="#594A39"/>
<path d="M120.061 110.097H115.818V114.339H120.061V110.097Z" fill="#594A39"/>
<path d="M124.302 110.097H120.06V114.339H124.302V110.097Z" fill="#594A39"/>
<path d="M128.545 110.097H124.303V114.339H128.545V110.097Z" fill="#594A39"/>
<path d="M132.787 110.097H128.545V114.339H132.787V110.097Z" fill="#594A39"/>
<path d="M141.273 110.097H137.03V114.339H141.273V110.097Z" fill="#594A39"/>
<path d="M145.515 110.097H141.272V114.339H145.515V110.097Z" fill="#594A39"/>
<path d="M18.2424 114.339H14V118.581H18.2424V114.339Z" fill="#594A39"/>
<path d="M26.7278 114.339H22.4854V118.581H26.7278V114.339Z" fill="#594A39"/>
<path d="M30.97 114.339H26.7275V118.581H30.97V114.339Z" fill="#594A39"/>
<path d="M35.2122 114.339H30.9697V118.581H35.2122V114.339Z" fill="#594A39"/>
<path d="M39.4553 114.339H35.2129V118.581H39.4553V114.339Z" fill="#594A39"/>
<path d="M43.6975 114.339H39.4551V118.581H43.6975V114.339Z" fill="#594A39"/>
<path d="M52.1829 114.339H47.9404V118.581H52.1829V114.339Z" fill="#594A39"/>
<path d="M64.9084 114.339H60.666V118.581H64.9084V114.339Z" fill="#594A39"/>
<path d="M69.1516 114.339H64.9092V118.581H69.1516V114.339Z" fill="#594A39"/>
<path d="M73.3938 114.339H69.1514V118.581H73.3938V114.339Z" fill="#594A39"/>
<path d="M86.1213 114.339H81.8789V118.581H86.1213V114.339Z" fill="#594A39"/>
<path d="M94.6057 114.339H90.3633V118.581H94.6057V114.339Z" fill="#594A39"/>
<path d="M103.091 114.339H98.8486V118.581H103.091V114.339Z" fill="#594A39"/>
<path d="M107.333 114.339H103.091V118.581H107.333V114.339Z" fill="#594A39"/>
<path d="M111.576 114.339H107.334V118.581H111.576V114.339Z" fill="#594A39"/>
<path d="M124.302 114.339H120.06V118.581H124.302V114.339Z" fill="#594A39"/>
<path d="M128.545 114.339H124.303V118.581H128.545V114.339Z" fill="#594A39"/>
<path d="M137.03 114.339H132.787V118.581H137.03V114.339Z" fill="#594A39"/>
<path d="M145.515 114.339H141.272V118.581H145.515V114.339Z" fill="#594A39"/>
<path d="M30.97 118.581H26.7275V122.823H30.97V118.581Z" fill="#594A39"/>
<path d="M35.2122 118.581H30.9697V122.823H35.2122V118.581Z" fill="#594A39"/>
<path d="M39.4553 118.581H35.2129V122.823H39.4553V118.581Z" fill="#594A39"/>
<path d="M47.9397 118.581H43.6973V122.823H47.9397V118.581Z" fill="#594A39"/>
<path d="M60.6663 118.581H56.4238V122.823H60.6663V118.581Z" fill="#594A39"/>
<path d="M69.1516 118.581H64.9092V122.823H69.1516V118.581Z" fill="#594A39"/>
<path d="M73.3938 118.581H69.1514V122.823H73.3938V118.581Z" fill="#594A39"/>
<path d="M81.8791 118.581H77.6367V122.823H81.8791V118.581Z" fill="#594A39"/>
<path d="M103.091 118.581H98.8486V122.823H103.091V118.581Z" fill="#594A39"/>
<path d="M107.333 118.581H103.091V122.823H107.333V118.581Z" fill="#594A39"/>
<path d="M115.819 118.581H111.576V122.823H115.819V118.581Z" fill="#594A39"/>
<path d="M120.061 118.581H115.818V122.823H120.061V118.581Z" fill="#594A39"/>
<path d="M124.302 118.581H120.06V122.823H124.302V118.581Z" fill="#594A39"/>
<path d="M128.545 118.581H124.303V122.823H128.545V118.581Z" fill="#594A39"/>
<path d="M137.03 118.581H132.787V122.823H137.03V118.581Z" fill="#594A39"/>
<path d="M141.273 118.581H137.03V122.823H141.273V118.581Z" fill="#594A39"/>
<path d="M154 118.581H149.758V122.823H154V118.581Z" fill="#594A39"/>
<path d="M18.2424 122.823H14V127.066H18.2424V122.823Z" fill="#594A39"/>
<path d="M35.2122 122.823H30.9697V127.066H35.2122V122.823Z" fill="#594A39"/>
<path d="M39.4553 122.823H35.2129V127.066H39.4553V122.823Z" fill="#594A39"/>
<path d="M43.6975 122.823H39.4551V127.066H43.6975V122.823Z" fill="#594A39"/>
<path d="M52.1829 122.823H47.9404V127.066H52.1829V122.823Z" fill="#594A39"/>
<path d="M60.6663 122.823H56.4238V127.066H60.6663V122.823Z" fill="#594A39"/>
<path d="M64.9084 122.823H60.666V127.066H64.9084V122.823Z" fill="#594A39"/>
<path d="M77.636 122.823H73.3936V127.066H77.636V122.823Z" fill="#594A39"/>
<path d="M81.8791 122.823H77.6367V127.066H81.8791V122.823Z" fill="#594A39"/>
<path d="M90.3635 122.823H86.1211V127.066H90.3635V122.823Z" fill="#594A39"/>
<path d="M111.576 122.823H107.334V127.066H111.576V122.823Z" fill="#594A39"/>
<path d="M120.061 122.823H115.818V127.066H120.061V122.823Z" fill="#594A39"/>
<path d="M124.302 122.823H120.06V127.066H124.302V122.823Z" fill="#594A39"/>
<path d="M132.787 122.823H128.545V127.066H132.787V122.823Z" fill="#594A39"/>
<path d="M137.03 122.823H132.787V127.066H137.03V122.823Z" fill="#594A39"/>
<path d="M145.515 122.823H141.272V127.066H145.515V122.823Z" fill="#594A39"/>
<path d="M149.757 122.823H145.515V127.066H149.757V122.823Z" fill="#594A39"/>
<path d="M18.2424 127.066H14V131.309H18.2424V127.066Z" fill="#594A39"/>
<path d="M22.4846 127.066H18.2422V131.309H22.4846V127.066Z" fill="#594A39"/>
<path d="M35.2122 127.066H30.9697V131.309H35.2122V127.066Z" fill="#594A39"/>
<path d="M39.4553 127.066H35.2129V131.309H39.4553V127.066Z" fill="#594A39"/>
<path d="M47.9397 127.066H43.6973V131.309H47.9397V127.066Z" fill="#594A39"/>
<path d="M56.4241 127.066H52.1816V131.309H56.4241V127.066Z" fill="#594A39"/>
<path d="M77.636 127.066H73.3936V131.309H77.636V127.066Z" fill="#594A39"/>
<path d="M81.8791 127.066H77.6367V131.309H81.8791V127.066Z" fill="#594A39"/>
<path d="M86.1213 127.066H81.8789V131.309H86.1213V127.066Z" fill="#594A39"/>
<path d="M90.3635 127.066H86.1211V131.309H90.3635V127.066Z" fill="#594A39"/>
<path d="M98.8489 127.066H94.6064V131.309H98.8489V127.066Z" fill="#594A39"/>
<path d="M103.091 127.066H98.8486V131.309H103.091V127.066Z" fill="#594A39"/>
<path d="M111.576 127.066H107.334V131.309H111.576V127.066Z" fill="#594A39"/>
<path d="M128.545 127.066H124.303V131.309H128.545V127.066Z" fill="#594A39"/>
<path d="M137.03 127.066H132.787V131.309H137.03V127.066Z" fill="#594A39"/>
<path d="M149.757 127.066H145.515V131.309H149.757V127.066Z" fill="#594A39"/>
<path d="M154 127.066H149.758V131.309H154V127.066Z" fill="#594A39"/>
<path d="M18.2424 131.309H14V135.551H18.2424V131.309Z" fill="#594A39"/>
<path d="M22.4846 131.309H18.2422V135.551H22.4846V131.309Z" fill="#594A39"/>
<path d="M26.7278 131.309H22.4854V135.551H26.7278V131.309Z" fill="#594A39"/>
<path d="M35.2122 131.309H30.9697V135.551H35.2122V131.309Z" fill="#594A39"/>
<path d="M39.4553 131.309H35.2129V135.551H39.4553V131.309Z" fill="#594A39"/>
<path d="M43.6975 131.309H39.4551V135.551H43.6975V131.309Z" fill="#594A39"/>
<path d="M47.9397 131.309H43.6973V135.551H47.9397V131.309Z" fill="#594A39"/>
<path d="M52.1829 131.309H47.9404V135.551H52.1829V131.309Z" fill="#594A39"/>
<path d="M60.6663 131.309H56.4238V135.551H60.6663V131.309Z" fill="#594A39"/>
<path d="M64.9084 131.309H60.666V135.551H64.9084V131.309Z" fill="#594A39"/>
<path d="M77.636 131.309H73.3936V135.551H77.636V131.309Z" fill="#594A39"/>
<path d="M81.8791 131.309H77.6367V135.551H81.8791V131.309Z" fill="#594A39"/>
<path d="M90.3635 131.309H86.1211V135.551H90.3635V131.309Z" fill="#594A39"/>
<path d="M98.8489 131.309H94.6064V135.551H98.8489V131.309Z" fill="#594A39"/>
<path d="M103.091 131.309H98.8486V135.551H103.091V131.309Z" fill="#594A39"/>
<path d="M107.333 131.309H103.091V135.551H107.333V131.309Z" fill="#594A39"/>
<path d="M111.576 131.309H107.334V135.551H111.576V131.309Z" fill="#594A39"/>
<path d="M124.302 131.309H120.06V135.551H124.302V131.309Z" fill="#594A39"/>
<path d="M141.273 131.309H137.03V135.551H141.273V131.309Z" fill="#594A39"/>
<path d="M145.515 131.309H141.272V135.551H145.515V131.309Z" fill="#594A39"/>
<path d="M149.757 131.309H145.515V135.551H149.757V131.309Z" fill="#594A39"/>
<path d="M154 131.309H149.758V135.551H154V131.309Z" fill="#594A39"/>
<path d="M47.9397 135.551H43.6973V139.793H47.9397V135.551Z" fill="#594A39"/>
<path d="M52.1829 135.551H47.9404V139.793H52.1829V135.551Z" fill="#594A39"/>
<path d="M56.4241 135.551H52.1816V139.793H56.4241V135.551Z" fill="#594A39"/>
<path d="M64.9084 135.551H60.666V139.793H64.9084V135.551Z" fill="#594A39"/>
<path d="M69.1516 135.551H64.9092V139.793H69.1516V135.551Z" fill="#594A39"/>
<path d="M73.3938 135.551H69.1514V139.793H73.3938V135.551Z" fill="#594A39"/>
<path d="M98.8489 135.551H94.6064V139.793H98.8489V135.551Z" fill="#594A39"/>
<path d="M107.333 135.551H103.091V139.793H107.333V135.551Z" fill="#594A39"/>
<path d="M111.576 135.551H107.334V139.793H111.576V135.551Z" fill="#594A39"/>
<path d="M115.819 135.551H111.576V139.793H115.819V135.551Z" fill="#594A39"/>
<path d="M128.545 135.551H124.303V139.793H128.545V135.551Z" fill="#594A39"/>
<path d="M145.515 135.551H141.272V139.793H145.515V135.551Z" fill="#594A39"/>
<path d="M154 135.551H149.758V139.793H154V135.551Z" fill="#594A39"/>
<path d="M18.2424 139.794H14V144.036H18.2424V139.794Z" fill="#594A39"/>
<path d="M22.4846 139.794H18.2422V144.036H22.4846V139.794Z" fill="#594A39"/>
<path d="M30.97 139.794H26.7275V144.036H30.97V139.794Z" fill="#594A39"/>
<path d="M39.4553 139.794H35.2129V144.036H39.4553V139.794Z" fill="#594A39"/>
<path d="M43.6975 139.794H39.4551V144.036H43.6975V139.794Z" fill="#594A39"/>
<path d="M47.9397 139.794H43.6973V144.036H47.9397V139.794Z" fill="#594A39"/>
<path d="M52.1829 139.794H47.9404V144.036H52.1829V139.794Z" fill="#594A39"/>
<path d="M60.6663 139.794H56.4238V144.036H60.6663V139.794Z" fill="#594A39"/>
<path d="M69.1516 139.794H64.9092V144.036H69.1516V139.794Z" fill="#594A39"/>
<path d="M73.3938 139.794H69.1514V144.036H73.3938V139.794Z" fill="#594A39"/>
<path d="M103.091 139.794H98.8486V144.036H103.091V139.794Z" fill="#594A39"/>
<path d="M107.333 139.794H103.091V144.036H107.333V139.794Z" fill="#594A39"/>
<path d="M115.819 139.794H111.576V144.036H115.819V139.794Z" fill="#594A39"/>
<path d="M128.545 139.794H124.303V144.036H128.545V139.794Z" fill="#594A39"/>
<path d="M132.787 139.794H128.545V144.036H132.787V139.794Z" fill="#594A39"/>
<path d="M137.03 139.794H132.787V144.036H137.03V139.794Z" fill="#594A39"/>
<path d="M145.515 139.794H141.272V144.036H145.515V139.794Z" fill="#594A39"/>
<path d="M149.757 139.794H145.515V144.036H149.757V139.794Z" fill="#594A39"/>
<path d="M154 139.794H149.758V144.036H154V139.794Z" fill="#594A39"/>
<path d="M18.2424 144.036H14V148.279H18.2424V144.036Z" fill="#594A39"/>
<path d="M26.7278 144.036H22.4854V148.279H26.7278V144.036Z" fill="#594A39"/>
<path d="M35.2122 144.036H30.9697V148.279H35.2122V144.036Z" fill="#594A39"/>
<path d="M47.9397 144.036H43.6973V148.279H47.9397V144.036Z" fill="#594A39"/>
<path d="M56.4241 144.036H52.1816V148.279H56.4241V144.036Z" fill="#594A39"/>
<path d="M69.1516 144.036H64.9092V148.279H69.1516V144.036Z" fill="#594A39"/>
<path d="M77.636 144.036H73.3936V148.279H77.636V144.036Z" fill="#594A39"/>
<path d="M94.6057 144.036H90.3633V148.279H94.6057V144.036Z" fill="#594A39"/>
<path d="M103.091 144.036H98.8486V148.279H103.091V144.036Z" fill="#594A39"/>
<path d="M111.576 144.036H107.334V148.279H111.576V144.036Z" fill="#594A39"/>
<path d="M115.819 144.036H111.576V148.279H115.819V144.036Z" fill="#594A39"/>
<path d="M128.545 144.036H124.303V148.279H128.545V144.036Z" fill="#594A39"/>
<path d="M137.03 144.036H132.787V148.279H137.03V144.036Z" fill="#594A39"/>
<path d="M149.757 144.036H145.515V148.279H149.757V144.036Z" fill="#594A39"/>
<path d="M22.4846 148.278H18.2422V152.521H22.4846V148.278Z" fill="#594A39"/>
<path d="M30.97 148.278H26.7275V152.521H30.97V148.278Z" fill="#594A39"/>
<path d="M35.2122 148.278H30.9697V152.521H35.2122V148.278Z" fill="#594A39"/>
<path d="M43.6975 148.278H39.4551V152.521H43.6975V148.278Z" fill="#594A39"/>
<path d="M47.9397 148.278H43.6973V152.521H47.9397V148.278Z" fill="#594A39"/>
<path d="M56.4241 148.278H52.1816V152.521H56.4241V148.278Z" fill="#594A39"/>
<path d="M60.6663 148.278H56.4238V152.521H60.6663V148.278Z" fill="#594A39"/>
<path d="M64.9084 148.278H60.666V152.521H64.9084V148.278Z" fill="#594A39"/>
<path d="M77.636 148.278H73.3936V152.521H77.636V148.278Z" fill="#594A39"/>
<path d="M81.8791 148.278H77.6367V152.521H81.8791V148.278Z" fill="#594A39"/>
<path d="M90.3635 148.278H86.1211V152.521H90.3635V148.278Z" fill="#594A39"/>
<path d="M111.576 148.278H107.334V152.521H111.576V148.278Z" fill="#594A39"/>
<path d="M115.819 148.278H111.576V152.521H115.819V148.278Z" fill="#594A39"/>
<path d="M120.061 148.278H115.818V152.521H120.061V148.278Z" fill="#594A39"/>
<path d="M124.302 148.278H120.06V152.521H124.302V148.278Z" fill="#594A39"/>
<path d="M128.545 148.278H124.303V152.521H128.545V148.278Z" fill="#594A39"/>
<path d="M132.787 148.278H128.545V152.521H132.787V148.278Z" fill="#594A39"/>
<path d="M137.03 148.278H132.787V152.521H137.03V148.278Z" fill="#594A39"/>
<path d="M149.757 148.278H145.515V152.521H149.757V148.278Z" fill="#594A39"/>
<path d="M154 148.278H149.758V152.521H154V148.278Z" fill="#594A39"/>
<path d="M52.1829 152.52H47.9404V156.762H52.1829V152.52Z" fill="#594A39"/>
<path d="M60.6663 152.52H56.4238V156.762H60.6663V152.52Z" fill="#594A39"/>
<path d="M69.1516 152.52H64.9092V156.762H69.1516V152.52Z" fill="#594A39"/>
<path d="M73.3938 152.52H69.1514V156.762H73.3938V152.52Z" fill="#594A39"/>
<path d="M81.8791 152.52H77.6367V156.762H81.8791V152.52Z" fill="#594A39"/>
<path d="M98.8489 152.52H94.6064V156.762H98.8489V152.52Z" fill="#594A39"/>
<path d="M111.576 152.52H107.334V156.762H111.576V152.52Z" fill="#594A39"/>
<path d="M120.061 152.52H115.818V156.762H120.061V152.52Z" fill="#594A39"/>
<path d="M137.03 152.52H132.787V156.762H137.03V152.52Z" fill="#594A39"/>
<path d="M141.273 152.52H137.03V156.762H141.273V152.52Z" fill="#594A39"/>
<path d="M18.2424 156.763H14V161.005H18.2424V156.763Z" fill="#594A39"/>
<path d="M22.4846 156.763H18.2422V161.005H22.4846V156.763Z" fill="#594A39"/>
<path d="M26.7278 156.763H22.4854V161.005H26.7278V156.763Z" fill="#594A39"/>
<path d="M30.97 156.763H26.7275V161.005H30.97V156.763Z" fill="#594A39"/>
<path d="M35.2122 156.763H30.9697V161.005H35.2122V156.763Z" fill="#594A39"/>
<path d="M39.4553 156.763H35.2129V161.005H39.4553V156.763Z" fill="#594A39"/>
<path d="M43.6975 156.763H39.4551V161.005H43.6975V156.763Z" fill="#594A39"/>
<path d="M52.1829 156.763H47.9404V161.005H52.1829V156.763Z" fill="#594A39"/>
<path d="M56.4241 156.763H52.1816V161.005H56.4241V156.763Z" fill="#594A39"/>
<path d="M69.1516 156.763H64.9092V161.005H69.1516V156.763Z" fill="#594A39"/>
<path d="M73.3938 156.763H69.1514V161.005H73.3938V156.763Z" fill="#594A39"/>
<path d="M98.8489 156.763H94.6064V161.005H98.8489V156.763Z" fill="#594A39"/>
<path d="M111.576 156.763H107.334V161.005H111.576V156.763Z" fill="#594A39"/>
<path d="M115.819 156.763H111.576V161.005H115.819V156.763Z" fill="#594A39"/>
<path d="M120.061 156.763H115.818V161.005H120.061V156.763Z" fill="#594A39"/>
<path d="M128.545 156.763H124.303V161.005H128.545V156.763Z" fill="#594A39"/>
<path d="M137.03 156.763H132.787V161.005H137.03V156.763Z" fill="#594A39"/>
<path d="M18.2424 161.005H14V165.247H18.2424V161.005Z" fill="#594A39"/>
<path d="M43.6975 161.005H39.4551V165.247H43.6975V161.005Z" fill="#594A39"/>
<path d="M52.1829 161.005H47.9404V165.247H52.1829V161.005Z" fill="#594A39"/>
<path d="M56.4241 161.005H52.1816V165.247H56.4241V161.005Z" fill="#594A39"/>
<path d="M60.6663 161.005H56.4238V165.247H60.6663V161.005Z" fill="#594A39"/>
<path d="M69.1516 161.005H64.9092V165.247H69.1516V161.005Z" fill="#594A39"/>
<path d="M77.636 161.005H73.3936V165.247H77.636V161.005Z" fill="#594A39"/>
<path d="M81.8791 161.005H77.6367V165.247H81.8791V161.005Z" fill="#594A39"/>
<path d="M86.1213 161.005H81.8789V165.247H86.1213V161.005Z" fill="#594A39"/>
<path d="M94.6057 161.005H90.3633V165.247H94.6057V161.005Z" fill="#594A39"/>
<path d="M103.091 161.005H98.8486V165.247H103.091V161.005Z" fill="#594A39"/>
<path d="M107.333 161.005H103.091V165.247H107.333V161.005Z" fill="#594A39"/>
<path d="M111.576 161.005H107.334V165.247H111.576V161.005Z" fill="#594A39"/>
<path d="M115.819 161.005H111.576V165.247H115.819V161.005Z" fill="#594A39"/>
<path d="M120.061 161.005H115.818V165.247H120.061V161.005Z" fill="#594A39"/>
<path d="M137.03 161.005H132.787V165.247H137.03V161.005Z" fill="#594A39"/>
<path d="M141.273 161.005H137.03V165.247H141.273V161.005Z" fill="#594A39"/>
<path d="M145.515 161.005H141.272V165.247H145.515V161.005Z" fill="#594A39"/>
<path d="M149.757 161.005H145.515V165.247H149.757V161.005Z" fill="#594A39"/>
<path d="M154 161.005H149.758V165.247H154V161.005Z" fill="#594A39"/>
<path d="M18.2424 165.247H14V169.489H18.2424V165.247Z" fill="#594A39"/>
<path d="M26.7278 165.247H22.4854V169.489H26.7278V165.247Z" fill="#594A39"/>
<path d="M30.97 165.247H26.7275V169.489H30.97V165.247Z" fill="#594A39"/>
<path d="M35.2122 165.247H30.9697V169.489H35.2122V165.247Z" fill="#594A39"/>
<path d="M43.6975 165.247H39.4551V169.489H43.6975V165.247Z" fill="#594A39"/>
<path d="M64.9084 165.247H60.666V169.489H64.9084V165.247Z" fill="#594A39"/>
<path d="M69.1516 165.247H64.9092V169.489H69.1516V165.247Z" fill="#594A39"/>
<path d="M73.3938 165.247H69.1514V169.489H73.3938V165.247Z" fill="#594A39"/>
<path d="M81.8791 165.247H77.6367V169.489H81.8791V165.247Z" fill="#594A39"/>
<path d="M86.1213 165.247H81.8789V169.489H86.1213V165.247Z" fill="#594A39"/>
<path d="M107.333 165.247H103.091V169.489H107.333V165.247Z" fill="#594A39"/>
<path d="M115.819 165.247H111.576V169.489H115.819V165.247Z" fill="#594A39"/>
<path d="M120.061 165.247H115.818V169.489H120.061V165.247Z" fill="#594A39"/>
<path d="M124.302 165.247H120.06V169.489H124.302V165.247Z" fill="#594A39"/>
<path d="M128.545 165.247H124.303V169.489H128.545V165.247Z" fill="#594A39"/>
<path d="M132.787 165.247H128.545V169.489H132.787V165.247Z" fill="#594A39"/>
<path d="M137.03 165.247H132.787V169.489H137.03V165.247Z" fill="#594A39"/>
<path d="M145.515 165.247H141.272V169.489H145.515V165.247Z" fill="#594A39"/>
<path d="M154 165.247H149.758V169.489H154V165.247Z" fill="#594A39"/>
<path d="M18.2424 169.49H14V173.733H18.2424V169.49Z" fill="#594A39"/>
<path d="M26.7278 169.49H22.4854V173.733H26.7278V169.49Z" fill="#594A39"/>
<path d="M30.97 169.49H26.7275V173.733H30.97V169.49Z" fill="#594A39"/>
<path d="M35.2122 169.49H30.9697V173.733H35.2122V169.49Z" fill="#594A39"/>
<path d="M43.6975 169.49H39.4551V173.733H43.6975V169.49Z" fill="#594A39"/>
<path d="M52.1829 169.49H47.9404V173.733H52.1829V169.49Z" fill="#594A39"/>
<path d="M64.9084 169.49H60.666V173.733H64.9084V169.49Z" fill="#594A39"/>
<path d="M77.636 169.49H73.3936V173.733H77.636V169.49Z" fill="#594A39"/>
<path d="M81.8791 169.49H77.6367V173.733H81.8791V169.49Z" fill="#594A39"/>
<path d="M86.1213 169.49H81.8789V173.733H86.1213V169.49Z" fill="#594A39"/>
<path d="M90.3635 169.49H86.1211V173.733H90.3635V169.49Z" fill="#594A39"/>
<path d="M94.6057 169.49H90.3633V173.733H94.6057V169.49Z" fill="#594A39"/>
<path d="M115.819 169.49H111.576V173.733H115.819V169.49Z" fill="#594A39"/>
<path d="M132.787 169.49H128.545V173.733H132.787V169.49Z" fill="#594A39"/>
<path d="M141.273 169.49H137.03V173.733H141.273V169.49Z" fill="#594A39"/>
<path d="M145.515 169.49H141.272V173.733H145.515V169.49Z" fill="#594A39"/>
<path d="M154 169.49H149.758V173.733H154V169.49Z" fill="#594A39"/>
<path d="M18.2424 173.732H14V177.975H18.2424V173.732Z" fill="#594A39"/>
<path d="M26.7278 173.732H22.4854V177.975H26.7278V173.732Z" fill="#594A39"/>
<path d="M30.97 173.732H26.7275V177.975H30.97V173.732Z" fill="#594A39"/>
<path d="M35.2122 173.732H30.9697V177.975H35.2122V173.732Z" fill="#594A39"/>
<path d="M43.6975 173.732H39.4551V177.975H43.6975V173.732Z" fill="#594A39"/>
<path d="M52.1829 173.732H47.9404V177.975H52.1829V173.732Z" fill="#594A39"/>
<path d="M60.6663 173.732H56.4238V177.975H60.6663V173.732Z" fill="#594A39"/>
<path d="M64.9084 173.732H60.666V177.975H64.9084V173.732Z" fill="#594A39"/>
<path d="M69.1516 173.732H64.9092V177.975H69.1516V173.732Z" fill="#594A39"/>
<path d="M73.3938 173.732H69.1514V177.975H73.3938V173.732Z" fill="#594A39"/>
<path d="M81.8791 173.732H77.6367V177.975H81.8791V173.732Z" fill="#594A39"/>
<path d="M90.3635 173.732H86.1211V177.975H90.3635V173.732Z" fill="#594A39"/>
<path d="M103.091 173.732H98.8486V177.975H103.091V173.732Z" fill="#594A39"/>
<path d="M120.061 173.732H115.818V177.975H120.061V173.732Z" fill="#594A39"/>
<path d="M128.545 173.732H124.303V177.975H128.545V173.732Z" fill="#594A39"/>
<path d="M132.787 173.732H128.545V177.975H132.787V173.732Z" fill="#594A39"/>
<path d="M141.273 173.732H137.03V177.975H141.273V173.732Z" fill="#594A39"/>
<path d="M18.2424 177.975H14V182.217H18.2424V177.975Z" fill="#594A39"/>
<path d="M43.6975 177.975H39.4551V182.217H43.6975V177.975Z" fill="#594A39"/>
<path d="M56.4241 177.975H52.1816V182.217H56.4241V177.975Z" fill="#594A39"/>
<path d="M60.6663 177.975H56.4238V182.217H60.6663V177.975Z" fill="#594A39"/>
<path d="M69.1516 177.975H64.9092V182.217H69.1516V177.975Z" fill="#594A39"/>
<path d="M77.636 177.975H73.3936V182.217H77.636V177.975Z" fill="#594A39"/>
<path d="M81.8791 177.975H77.6367V182.217H81.8791V177.975Z" fill="#594A39"/>
<path d="M86.1213 177.975H81.8789V182.217H86.1213V177.975Z" fill="#594A39"/>
<path d="M90.3635 177.975H86.1211V182.217H90.3635V177.975Z" fill="#594A39"/>
<path d="M94.6057 177.975H90.3633V182.217H94.6057V177.975Z" fill="#594A39"/>
<path d="M111.576 177.975H107.334V182.217H111.576V177.975Z" fill="#594A39"/>
<path d="M120.061 177.975H115.818V182.217H120.061V177.975Z" fill="#594A39"/>
<path d="M124.302 177.975H120.06V182.217H124.302V177.975Z" fill="#594A39"/>
<path d="M132.787 177.975H128.545V182.217H132.787V177.975Z" fill="#594A39"/>
<path d="M137.03 177.975H132.787V182.217H137.03V177.975Z" fill="#594A39"/>
<path d="M154 177.975H149.758V182.217H154V177.975Z" fill="#594A39"/>
<path d="M18.2424 182.218H14V186.46H18.2424V182.218Z" fill="#594A39"/>
<path d="M22.4846 182.218H18.2422V186.46H22.4846V182.218Z" fill="#594A39"/>
<path d="M26.7278 182.218H22.4854V186.46H26.7278V182.218Z" fill="#594A39"/>
<path d="M30.97 182.218H26.7275V186.46H30.97V182.218Z" fill="#594A39"/>
<path d="M35.2122 182.218H30.9697V186.46H35.2122V182.218Z" fill="#594A39"/>
<path d="M39.4553 182.218H35.2129V186.46H39.4553V182.218Z" fill="#594A39"/>
<path d="M43.6975 182.218H39.4551V186.46H43.6975V182.218Z" fill="#594A39"/>
<path d="M52.1829 182.218H47.9404V186.46H52.1829V182.218Z" fill="#594A39"/>
<path d="M60.6663 182.218H56.4238V186.46H60.6663V182.218Z" fill="#594A39"/>
<path d="M86.1213 182.218H81.8789V186.46H86.1213V182.218Z" fill="#594A39"/>
<path d="M90.3635 182.218H86.1211V186.46H90.3635V182.218Z" fill="#594A39"/>
<path d="M94.6057 182.218H90.3633V186.46H94.6057V182.218Z" fill="#594A39"/>
<path d="M98.8489 182.218H94.6064V186.46H98.8489V182.218Z" fill="#594A39"/>
<path d="M103.091 182.218H98.8486V186.46H103.091V182.218Z" fill="#594A39"/>
<path d="M107.333 182.218H103.091V186.46H107.333V182.218Z" fill="#594A39"/>
<path d="M115.819 182.218H111.576V186.46H115.819V182.218Z" fill="#594A39"/>
<path d="M128.545 182.218H124.303V186.46H128.545V182.218Z" fill="#594A39"/>
<path d="M137.03 182.218H132.787V186.46H137.03V182.218Z" fill="#594A39"/>
<path d="M145.515 182.218H141.272V186.46H145.515V182.218Z" fill="#594A39"/>
</svg>
