<svg width="407" height="346" viewBox="0 0 407 346" fill="none" xmlns="http://www.w3.org/2000/svg">
<g clip-path="url(#clip0_75_356)">
<path d="M125.141 116.963C125.141 116.963 74.0339 121.676 32.7828 96.6463C31.6618 95.966 30.3827 95.5892 29.0723 95.5513C27.7619 95.5134 26.4648 95.8159 25.306 96.4303C24.1473 97.0448 23.1664 97.9499 22.461 99.0567C21.7555 100.164 21.3496 101.435 21.2811 102.746C19.8632 128.514 28.3684 188.633 125.721 237.027" fill="#5E9A33"/>
<path opacity="0.2" d="M126.973 236.554C126.973 236.554 84.1643 223.249 44.3876 237.28C43.308 237.651 42.1522 237.738 41.0297 237.531C39.9071 237.325 38.8551 236.833 37.9776 236.103C37.1 235.372 36.4266 234.427 36.0192 233.36C35.6118 232.292 35.4851 231.138 35.6523 230.007C39.0797 207.73 57.1869 157.854 149.136 134.031" fill="#5E9A33"/>
<path d="M160.122 298.037C163.946 285.667 159.21 273.213 149.544 270.219C139.878 267.224 128.942 274.823 125.118 287.192C121.294 299.562 126.03 312.018 135.696 315.012C145.362 318.007 156.297 310.406 160.122 298.037Z" fill="#FEFAE9"/>
<path d="M224.721 323.682C234.797 322.748 242.003 311.538 240.814 298.645C239.626 285.752 230.493 276.059 220.417 276.993C210.341 277.928 203.137 289.138 204.326 302.031C205.515 314.923 214.645 324.617 224.721 323.682Z" fill="#FEFAE9"/>
<path d="M210.29 18.6011C210.29 18.6011 204.86 43.7152 158.539 59.2736C145.651 63.6029 134.199 71.3973 125.432 81.8032C98.1539 114.148 52.2777 186.004 99.1381 263.015C99.1381 263.015 124.851 299.181 180.808 305.019C180.808 305.019 233.606 314.545 270.029 282.987C303.649 253.949 326.61 175.517 279.918 95.6105C273.148 84.0775 263.215 74.7328 251.3 68.6848C235.758 60.6346 212.579 46.3294 210.29 18.6011Z" fill="#FEFAE9"/>
<path d="M297.544 134.313C293.082 120.842 287.205 107.883 280.014 95.6531C273.244 84.1201 263.312 74.7756 251.397 68.7276C235.749 60.7333 212.573 46.3949 210.281 18.6997C210.281 18.6997 204.85 43.8154 158.529 59.3739C145.641 63.7032 134.189 71.4959 125.422 81.9019C116.864 92.0224 109.19 102.861 102.485 114.298C110.343 126.134 140.578 165.752 194.518 171.379C194.529 171.28 245.111 177.695 297.544 134.313Z" fill="#7DBE37"/>
<path d="M102.666 113.848C102.666 113.848 90.609 139.376 90.1141 165.91C89.7278 188.839 110.265 214.052 134.804 216.612C232.167 226.77 297.743 134.97 297.743 134.97C297.743 134.97 295.198 120.274 267.893 116.99C240.587 113.706 134.283 103.051 134.283 103.051C134.283 103.051 107.927 101.238 102.666 113.848Z" fill="#F2E865"/>
<path d="M137.459 124.51C154.646 126.303 170.035 113.802 171.831 96.5882C173.627 79.3745 161.15 63.9663 143.962 62.1732C126.775 60.3801 111.386 72.8809 109.59 90.0946C107.794 107.308 120.271 122.716 137.459 124.51Z" fill="white"/>
<path d="M221.594 133.287C238.781 135.08 254.17 122.58 255.966 105.366C257.762 88.1521 245.285 72.744 228.097 70.9509C210.91 69.1577 195.521 81.6586 193.725 98.8723C191.929 116.086 204.406 131.494 221.594 133.287Z" fill="white"/>
<path d="M253.738 127.031C253.295 126.979 252.872 126.819 252.506 126.562C252.14 126.306 251.844 125.963 251.644 125.563C251.443 125.164 251.344 124.722 251.357 124.275C251.37 123.828 251.495 123.392 251.718 123.004L257.286 113.54C257.464 113.241 257.7 112.978 257.98 112.771C258.26 112.563 258.579 112.414 258.917 112.331C259.256 112.248 259.608 112.232 259.952 112.287C260.296 112.341 260.625 112.463 260.922 112.646C261.526 113.008 261.962 113.595 262.136 114.279C262.309 114.962 262.205 115.685 261.846 116.292L256.298 125.557C256.072 126.034 255.705 126.431 255.248 126.695C254.79 126.958 254.264 127.075 253.738 127.031Z" fill="#E27E7C"/>
<path d="M261.379 130.708C260.939 130.652 260.52 130.486 260.159 130.228C259.798 129.97 259.507 129.627 259.31 129.229C259.114 128.831 259.018 128.39 259.033 127.946C259.047 127.502 259.169 127.068 259.391 126.683L264.906 117.415C265.267 116.81 265.853 116.372 266.535 116.199C267.217 116.025 267.941 116.129 268.547 116.489C268.849 116.664 269.113 116.898 269.324 117.178C269.535 117.457 269.688 117.778 269.774 118.117C269.86 118.457 269.876 118.81 269.824 119.156C269.772 119.502 269.651 119.835 269.469 120.134L263.956 129.403C263.697 129.846 263.316 130.205 262.859 130.436C262.402 130.668 261.888 130.762 261.379 130.708Z" fill="#E27E7C"/>
<path d="M98.2146 110.035C97.8268 110.001 97.4516 109.882 97.1148 109.687C96.5089 109.318 96.0733 108.725 95.9011 108.036C95.7289 107.348 95.8333 106.62 96.1943 106.008L101.742 96.7417C102.122 96.1786 102.703 95.7825 103.365 95.6343C104.028 95.4861 104.722 95.597 105.305 95.9446C105.888 96.2921 106.318 96.8513 106.504 97.5051C106.69 98.1588 106.619 98.8592 106.306 99.4627L100.755 108.76C100.499 109.194 100.122 109.546 99.6721 109.772C99.2217 109.998 98.7155 110.089 98.2146 110.035Z" fill="#E27E7C"/>
<path d="M105.757 113.702C105.38 113.666 105.016 113.547 104.69 113.355C104.085 112.994 103.649 112.408 103.475 111.725C103.302 111.041 103.408 110.316 103.767 109.71L109.284 100.409C109.463 100.105 109.7 99.8396 109.982 99.6283C110.265 99.4171 110.587 99.2636 110.929 99.1778C111.271 99.0919 111.626 99.0754 111.974 99.1282C112.322 99.181 112.656 99.3025 112.957 99.4858C113.256 99.6643 113.518 99.9001 113.725 100.181C113.932 100.461 114.081 100.78 114.164 101.119C114.247 101.458 114.262 101.811 114.208 102.155C114.153 102.5 114.03 102.831 113.847 103.128L108.33 112.431C108.064 112.864 107.683 113.212 107.228 113.437C106.772 113.662 106.262 113.755 105.757 113.702Z" fill="#E27E7C"/>
<path d="M215.351 108.528C222.712 109.296 229.303 103.943 230.072 96.5704C230.841 89.1983 225.497 82.5995 218.137 81.8316C210.776 81.0636 204.185 86.4174 203.416 93.7894C202.647 101.162 207.99 107.76 215.351 108.528Z" fill="#4A1E0E"/>
<path d="M137.896 100.448C145.257 101.215 151.848 95.8618 152.617 88.4897C153.386 81.1176 148.042 74.5188 140.681 73.7508C133.321 72.9829 126.73 78.3366 125.961 85.7087C125.192 93.0808 130.535 99.6796 137.896 100.448Z" fill="#4A1E0E"/>
<path d="M124.137 319.164C123.319 319.08 122.529 318.818 121.823 318.397C121.116 317.977 120.509 317.407 120.045 316.727L99.0037 285.769C98.5238 285.159 98.1739 284.458 97.9766 283.707C97.7793 282.956 97.7379 282.173 97.856 281.405C97.974 280.638 98.2487 279.902 98.6625 279.245C99.0763 278.588 99.6212 278.024 100.262 277.587C100.903 277.15 101.627 276.849 102.388 276.704C103.15 276.559 103.935 276.572 104.691 276.743C105.447 276.914 106.16 277.238 106.785 277.697C107.411 278.156 107.935 278.739 108.326 279.409L129.404 310.337C130.235 311.584 130.544 313.108 130.265 314.581C129.987 316.055 129.143 317.36 127.914 318.217C126.807 318.97 125.468 319.306 124.137 319.164Z" fill="#695D41"/>
<path d="M132.817 320.571C131.514 320.437 130.298 319.854 129.377 318.921C128.456 317.988 127.885 316.763 127.766 315.457L125.282 288.009C125.208 286.552 125.697 285.124 126.65 284.02C127.602 282.917 128.944 282.222 130.394 282.084C131.844 281.946 133.291 282.375 134.434 283.279C135.576 284.183 136.324 285.494 136.525 286.939L139.041 314.423C139.171 315.918 138.704 317.405 137.744 318.559C136.785 319.713 135.41 320.441 133.917 320.585C133.55 320.613 133.183 320.609 132.817 320.571Z" fill="#695D41"/>
<path d="M221.501 329.322C220.471 329.21 219.49 328.818 218.666 328.189C217.842 327.56 217.205 326.717 216.824 325.752L205.275 295.786C204.9 295.08 204.677 294.303 204.623 293.506C204.569 292.708 204.685 291.908 204.961 291.159C205.238 290.409 205.671 289.726 206.23 289.156C206.789 288.585 207.461 288.141 208.204 287.85C208.947 287.558 209.744 287.427 210.541 287.466C211.338 287.505 212.117 287.713 212.828 288.075C213.539 288.438 214.166 288.948 214.667 289.57C215.167 290.193 215.53 290.914 215.732 291.687L227.281 321.654C227.806 323.057 227.762 324.609 227.156 325.98C226.551 327.35 225.433 328.428 224.043 328.984C223.231 329.281 222.363 329.396 221.501 329.322Z" fill="#695D41"/>
<path d="M212.717 328.907C211.43 328.764 210.231 328.189 209.31 327.278L179.044 296.933C178.511 296.411 178.086 295.788 177.794 295.101C177.502 294.414 177.349 293.675 177.343 292.929C177.337 292.182 177.479 291.442 177.76 290.75C178.041 290.058 178.456 289.428 178.982 288.898C179.507 288.367 180.132 287.947 180.82 287.659C181.508 287.371 182.245 287.222 182.991 287.222C183.737 287.221 184.476 287.368 185.164 287.654C185.853 287.941 186.478 288.362 187.004 288.891L217.436 319.253C218.217 320.09 218.726 321.144 218.9 322.277C219.074 323.409 218.902 324.566 218.408 325.6C217.914 326.633 217.119 327.493 216.13 328.068C215.14 328.642 214 328.905 212.86 328.82L212.717 328.907Z" fill="#695D41"/>
<path d="M158.569 107.391L158.421 55.9466C158.412 55.2915 158.623 54.6517 159.02 54.1306C159.416 53.6096 159.976 53.2372 160.609 53.0719C161.242 52.9067 161.912 52.9589 162.512 53.2197C163.112 53.4806 163.608 53.9351 163.92 54.5111L192.142 106.04C192.83 107.249 193.123 108.642 192.978 110.027C192.834 111.411 192.259 112.715 191.337 113.756L153.621 154.824C153.184 155.3 152.603 155.616 151.967 155.727C151.332 155.838 150.677 155.737 150.106 155.436C149.535 155.136 149.079 154.655 148.809 154.068C148.539 153.482 148.47 152.821 148.613 152.191L158.727 107.475L158.569 107.391Z" fill="#695D41"/>
<path d="M192.141 106.04L163.905 54.6441C163.638 54.1346 163.219 53.7196 162.708 53.4565C162.197 53.1935 161.617 53.0948 161.048 53.1738C161.275 53.3149 161.471 53.4992 161.627 53.7164C161.782 53.9337 161.892 54.1801 161.953 54.4404L178.072 104.705C178.458 105.98 178.586 107.32 178.448 108.645C178.309 109.971 177.908 111.255 177.267 112.423L151.589 154.745C151.345 155.203 150.938 155.555 150.45 155.731C150.979 155.924 151.554 155.952 152.1 155.812C152.645 155.671 153.136 155.369 153.508 154.945L191.224 113.879C192.191 112.841 192.802 111.521 192.967 110.111C193.132 108.701 192.842 107.274 192.141 106.04Z" fill="#84765B"/>
<path d="M386.287 133.527C348.35 146.913 307.967 138.549 295.557 135.412C292.694 134.662 289.66 134.912 286.957 136.122C280.724 138.747 275.382 143.122 271.576 148.72C267.771 154.318 265.666 160.899 265.513 167.669C264.583 191.01 273.84 226.932 283.619 240.542C284.661 242.004 286.148 243.09 287.856 243.636C289.564 244.183 291.402 244.16 293.098 243.573C375.25 214.308 392.729 165.037 396.282 141.87C396.486 140.573 396.349 139.245 395.888 138.016C395.426 136.787 394.655 135.699 393.648 134.859C392.641 134.019 391.432 133.455 390.142 133.221C388.852 132.988 387.525 133.093 386.287 133.527Z" fill="#5E9A33"/>
<path opacity="0.2" d="M289.445 243.996C289.445 243.996 331.675 249.071 367.698 271.011C368.678 271.597 369.791 271.92 370.932 271.95C372.073 271.98 373.202 271.716 374.212 271.182C375.221 270.648 376.077 269.863 376.696 268.902C377.315 267.942 377.677 266.839 377.747 265.698C378.991 243.193 371.568 190.653 286.352 148.347" fill="#5E9A33"/>
</g>
<defs>
<clipPath id="clip0_75_356">
<rect width="377.036" height="308.378" fill="white" transform="translate(32) rotate(5.95607)"/>
</clipPath>
</defs>
</svg>
