<svg width="900" height="250" viewBox="0 0 900 250" fill="none" xmlns="http://www.w3.org/2000/svg">
<rect width="900" height="220" rx="60" fill="#FDFDFB"/>
<rect x="5.5" y="35.5" width="889" height="209" rx="54.5" fill="#FDFDFB" stroke="#B8C318" stroke-width="11"/>
<rect width="509" height="172" transform="translate(195 54)" fill="#FDFDFB"/>
<path d="M235.44 94.46V102.2H244.26V94.46H235.44ZM250.26 128L250.98 134.12C243.06 136.34 234.48 138.56 228 140.3L226.38 133.58L229.14 132.98V112.64H234.84V131.72L237.9 131.06V108.2H229.38V88.46H250.68V108.2H244.14V114.62H250.44V120.8H244.14V129.56C246.18 129.02 248.22 128.54 250.26 128ZM259.44 105.14V110H273.24V105.14H259.44ZM273.24 94.76H259.44V99.38H273.24V94.76ZM278.34 116.72L282.78 121.76C280.08 123.86 276.96 126.2 274.38 127.94C276.66 131.3 279.66 134.06 283.26 135.86C281.82 137.24 279.78 140.06 278.76 142.04C270.42 137.06 265.98 127.82 263.28 116.18H259.44V132.98L268.02 131.12C267.96 133.16 268.08 136.1 268.32 137.6C256.5 140.6 254.28 141.5 252.84 142.4C252.36 140.84 250.86 138.08 249.84 136.82C251.04 136.04 252.6 134.42 252.6 131.66V88.64H279.78V116.18H269.16C269.82 118.52 270.54 120.74 271.5 122.84C273.96 120.98 276.6 118.64 278.34 116.72ZM318.66 99.98V97.46H306.54V99.98H318.66ZM318.66 107V104.6H306.54V107H318.66ZM318.66 114.26V111.62H306.54V114.26H318.66ZM299.46 121.28V104.12C298.38 105.08 297.3 105.98 296.22 106.88C295.08 105.38 292.8 103.1 291.18 102.2C297.84 97.46 302.7 91.28 305.4 86.12L312.66 87.5C311.76 89 310.8 90.5 309.78 92H319.02C318.48 90.5 317.82 89 317.16 87.68L323.88 85.82C324.96 87.68 326.04 90.02 326.76 92H343.8V97.46H325.5V99.98H341.1V104.6H325.5V107H341.16V111.62H325.5V114.26H345.24V119.66H306.54V121.28H299.46ZM308.82 130.1L314.16 132.56C309.9 135.98 302.58 139.16 296.28 140.6C295.26 138.98 293.28 136.46 291.84 135.14C297.96 134.3 305.1 132.32 308.82 130.1ZM346.74 128.96H323.22V142.1H316.14V128.96H292.86V123.26H316.14V120.2H323.22V123.26H346.74V128.96ZM325.38 133.7L329.52 129.56C334.8 131.3 342.72 134.12 346.86 136.04L342.48 140.72C338.64 138.86 330.9 135.74 325.38 133.7ZM374.64 100.58L379.32 102.32C376.68 118.52 370.2 130.64 361.8 136.94C360.6 135.26 357.78 132.44 356.04 131.42C362.94 126.74 368.1 118.52 370.74 108.02H358.2V100.82H373.32L374.64 100.58ZM402.54 96.68L409.14 101.3C404.7 105.74 399.48 110.72 395.22 114.14C399.78 121.04 405.9 126.68 413.46 129.98C411.72 131.54 409.32 134.54 408.12 136.64C399.66 132.14 393.3 124.82 388.62 115.88V133.1C388.62 137.24 387.84 139.34 385.44 140.66C383.1 141.92 379.5 142.28 374.64 142.28C374.34 140.06 373.08 136.46 372 134.3C375.3 134.42 378.48 134.42 379.62 134.42C380.64 134.42 381 134.06 381 133.04V86.18H388.62V100.82C389.58 103.52 390.66 106.04 391.92 108.56C395.7 104.96 399.84 100.4 402.54 96.68ZM462.42 114.92V111.14H440.88V114.92H462.42ZM440.76 124.76H462.42V120.86H440.88C440.88 122.12 440.82 123.38 440.76 124.76ZM476.1 100.1H443.88C443.22 101.72 442.38 103.28 441.48 104.84H469.38V134.48C469.38 138.02 468.72 139.94 466.26 141.02C463.92 142.16 460.5 142.22 455.64 142.22C455.34 140.24 454.38 137.24 453.48 135.32C456.54 135.5 460.02 135.5 461.04 135.5C462.06 135.44 462.42 135.14 462.42 134.3V130.7H439.86C438.84 135.2 436.92 139.52 433.2 142.64C432.24 141.14 429.54 138.14 428.04 137.18C433.2 132.68 433.62 126.26 433.62 120.68V115.82C431.34 118.22 428.94 120.44 426.18 122.36C425.1 120.74 422.88 118.16 421.5 116.84C427.56 112.82 432.36 106.76 435.9 100.1H422.88V93.38H438.96C439.92 90.92 440.7 88.52 441.36 86.12L448.74 87.8C448.14 89.66 447.48 91.52 446.82 93.38H476.1V100.1ZM495.84 100.4V103.16H505.44V100.4H495.84ZM505.44 93.26H495.84V96.08H505.44V93.26ZM508.2 117.8L511.62 116.9C512.58 119.06 513.66 121.82 514.14 123.5L511.74 124.34H512.64V130.1C512.64 134.84 511.44 139.28 503.88 141.92C503.34 140.78 501.84 138.86 500.82 137.96C503.94 137.06 505.68 135.86 506.64 134.42H499.86V125.36H504.18V130.46H507.78V129.98V124.34H510.42C510.3 123.92 510.18 123.38 510.06 122.84C501.84 123.86 500.4 124.16 499.44 124.58V124.52C499.26 123.68 498.66 121.64 498.24 120.56C499.08 120.44 500.16 119.84 501.36 118.94C501.84 118.58 502.8 117.8 503.94 116.72C501.12 116.96 500.22 117.2 499.68 117.44V117.38C499.44 116.48 498.78 114.44 498.24 113.3C498.9 113.18 499.62 112.88 500.22 112.22C500.82 111.74 502.56 110.06 503.76 107.96H495.84V142.22H489V88.46H512.16V107.96H506.1L508.32 109.16C507.12 110.72 505.68 112.28 504.18 113.54L507.3 113.42C508.08 112.52 508.8 111.62 509.52 110.72L513 113.12C510.66 115.58 507.96 118.1 505.2 120.08L508.92 119.72C508.74 119.06 508.44 118.4 508.2 117.8ZM528.54 125.36V135.02C529.98 135.08 531.24 135.08 531.78 135.02C532.56 135.02 532.8 134.72 532.8 133.94V107.96H521.88L524.28 109.22C523.08 110.78 521.7 112.34 520.26 113.6L523.2 113.48C524.1 112.52 524.88 111.56 525.6 110.6L529.08 113.06C526.68 115.58 524.04 118.1 521.34 120.2L524.94 119.84C524.7 119.18 524.46 118.52 524.16 117.92L527.52 116.84C528.6 119 529.8 121.82 530.34 123.44L526.8 124.82C526.62 124.28 526.38 123.56 526.14 122.84C519.96 123.62 517.62 124.04 516.42 124.34H520.38V130.46H523.98V125.36H528.54ZM532.8 93.26H522.9V96.08H532.8V93.26ZM522.9 100.4V103.16H532.8V100.4H522.9ZM539.7 88.46V134C539.7 137.42 539.22 139.4 537.18 140.6C535.2 141.8 532.38 141.92 528.36 141.92C528.18 140.36 527.58 137.96 526.86 136.1H523.98V134.42H520.38V141.44H515.46V124.34H515.52C515.22 123.38 514.68 121.64 514.26 120.62C515.22 120.56 516.24 119.96 517.44 119C517.92 118.64 518.82 117.86 519.96 116.78C517.14 117.02 516.24 117.26 515.7 117.5C515.46 116.54 514.8 114.5 514.26 113.42C514.92 113.24 515.64 112.94 516.24 112.34C516.78 111.8 518.52 110.12 519.78 107.96H516.12V88.46H539.7ZM563.76 98.06H559.2V119.12H563.76V98.06ZM570.12 125.72H559.2V130.64H552.9V91.46H570.12V125.72ZM572.4 140.3L567.3 137.84C569.58 134.48 570.96 129.14 571.56 124.34L576.84 125.84C576.12 130.94 574.92 136.76 572.4 140.3ZM578.16 125.54L582.78 124.76C583.74 128.66 584.28 133.7 584.16 137L579.24 137.78C579.48 134.48 579 129.44 578.16 125.54ZM584.76 125.06L589.02 123.86C590.46 127.16 591.66 131.48 592.02 134.24L587.46 135.68C587.22 132.8 586.08 128.36 584.76 125.06ZM598.62 131.06L594.48 132.62C594 130.28 592.68 126.8 591.3 124.22L595.08 122.9C596.64 125.42 598.02 128.84 598.62 131.06ZM580.2 112.7V116.3H586.62V112.7H580.2ZM586.62 94.7H580.2V98.12H586.62V94.7ZM586.62 107.18V103.7H580.2V107.18H586.62ZM593.22 116.3H606.18C606.18 116.3 606.12 118.04 606.06 118.88C605.52 132.38 604.8 137.84 603.3 139.76C602.16 141.2 600.96 141.68 599.4 141.92C597.96 142.16 595.68 142.22 593.16 142.16C593.1 140.24 592.44 137.72 591.48 136.1C593.46 136.28 595.08 136.28 595.98 136.28C596.76 136.28 597.3 136.16 597.78 135.56C598.56 134.6 599.1 131.12 599.52 122.24H573.48V88.52H604.56V94.7H593.22V98.12H602.88V103.7H593.22V107.18H602.88V112.7H593.22V116.3ZM639.24 121.58C637.98 112.16 650.7 110 650.7 104.18C650.7 100.58 647.82 98.54 643.14 98.54C639.42 98.54 636.48 100.16 633.54 103.28L628.62 98.72C632.4 94.28 637.68 91.4 644.1 91.4C652.8 91.4 659.16 95.42 659.16 103.4C659.16 112.22 646.08 113.24 646.98 121.58H639.24ZM643.14 137.54C640.08 137.54 637.86 135.38 637.86 132.26C637.86 129.08 640.14 126.92 643.14 126.92C646.2 126.92 648.42 129.08 648.42 132.26C648.42 135.38 646.2 137.54 643.14 137.54Z" fill="#594A39"/>
<path d="M202.211 201.64C202.094 201.933 201.698 202.08 201.023 202.08C200.349 202.08 199.762 201.889 199.263 201.508C198.911 201.156 198.677 200.877 198.559 200.672C198.471 200.496 198.53 200.173 198.735 199.704C198.941 199.264 199.293 198.472 199.791 197.328C199.909 196.624 200.114 195.92 200.407 195.216C200.701 194.483 200.921 193.969 201.067 193.676C201.185 193.265 201.419 192.591 201.771 191.652C202.153 190.684 202.578 189.613 203.047 188.44C203.546 187.267 204.015 186.167 204.455 185.14C204.895 184.084 205.218 183.292 205.423 182.764C205.922 181.591 206.435 180.359 206.963 179.068C207.491 177.777 208.21 176.149 209.119 174.184C209.237 173.891 209.193 173.583 208.987 173.26C208.782 172.937 208.43 172.776 207.931 172.776C207.638 172.453 207.477 172.116 207.447 171.764C207.418 171.383 207.565 171.119 207.887 170.972L211.935 169.608C213.314 169.285 214.722 169.197 216.159 169.344C217.626 169.461 219.005 169.857 220.295 170.532C221.703 171.353 222.73 172.263 223.375 173.26C224.021 174.257 224.373 175.269 224.431 176.296C224.519 177.293 224.402 178.203 224.079 179.024C223.845 179.64 223.39 180.315 222.715 181.048C222.07 181.781 221.307 182.515 220.427 183.248C219.577 183.981 218.682 184.656 217.743 185.272C216.834 185.859 215.983 186.313 215.191 186.636C214.458 186.988 213.637 187.355 212.727 187.736C211.818 188.088 210.938 188.396 210.087 188.66C209.618 188.777 209.061 188.836 208.415 188.836C207.77 188.836 207.286 188.777 206.963 188.66L206.215 190.068C205.922 191.124 205.409 192.693 204.675 194.776C203.971 196.859 203.15 199.147 202.211 201.64ZM219.679 202.476C219.445 202.564 219.049 202.593 218.491 202.564C217.963 202.535 217.362 202.3 216.687 201.86C215.397 201.097 214.106 200.173 212.815 199.088C211.525 198.003 210.073 196.536 208.459 194.688C207.843 193.955 207.374 193.221 207.051 192.488C206.758 191.755 206.377 190.831 205.907 189.716L205.291 187.34L206.963 186.24L208.899 187.824C209.369 188.851 209.911 189.833 210.527 190.772C211.173 191.711 211.818 192.547 212.463 193.28C212.991 193.896 213.71 194.644 214.619 195.524C215.529 196.375 216.497 197.196 217.523 197.988C218.55 198.78 219.474 199.381 220.295 199.792C220.471 199.939 220.515 200.217 220.427 200.628C220.369 201.068 220.251 201.479 220.075 201.86C219.929 202.241 219.797 202.447 219.679 202.476ZM208.591 185.228C209.266 185.169 209.999 184.993 210.791 184.7C211.613 184.377 212.478 184.025 213.387 183.644C214.238 183.233 215.074 182.793 215.895 182.324C216.746 181.825 217.509 181.283 218.183 180.696C218.887 180.109 219.43 179.479 219.811 178.804C220.222 178.129 220.398 177.411 220.339 176.648C220.339 176.267 220.222 175.841 219.987 175.372C219.753 174.903 219.445 174.477 219.063 174.096C218.711 173.715 218.345 173.465 217.963 173.348C216.79 173.055 215.895 172.879 215.279 172.82C214.663 172.761 214.209 172.849 213.915 173.084C213.651 173.319 213.446 173.729 213.299 174.316C213.299 174.404 213.182 174.683 212.947 175.152C212.713 175.621 212.419 176.223 212.067 176.956C211.745 177.66 211.422 178.423 211.099 179.244C210.249 180.975 209.618 182.251 209.207 183.072C208.826 183.864 208.591 184.392 208.503 184.656C208.445 184.92 208.474 185.111 208.591 185.228ZM235.087 198.12C234.207 198.619 233.269 198.912 232.271 199C231.303 199.059 230.394 198.927 229.543 198.604C228.693 198.252 228.003 197.739 227.475 197.064C227.182 196.683 226.903 196.081 226.639 195.26C226.375 194.409 226.331 193.265 226.507 191.828C226.683 190.479 227.094 189.115 227.739 187.736C228.414 186.357 229.235 185.14 230.203 184.084C231.171 183.028 232.227 182.309 233.371 181.928C233.782 181.781 234.193 181.679 234.603 181.62C235.043 181.532 235.615 181.517 236.319 181.576C236.994 181.664 237.595 181.84 238.123 182.104C238.651 182.339 239.033 182.603 239.267 182.896C239.737 183.365 240.045 183.82 240.191 184.26C240.338 184.7 240.397 185.125 240.367 185.536C240.221 186.475 239.795 187.487 239.091 188.572C238.417 189.657 237.463 190.464 236.231 190.992C235.733 191.197 235.146 191.329 234.471 191.388C233.797 191.447 232.873 191.359 231.699 191.124C230.995 190.977 230.526 191.051 230.291 191.344C230.086 191.637 229.998 192.209 230.027 193.06C230.086 193.588 230.203 194.057 230.379 194.468C230.585 194.849 230.951 195.113 231.479 195.26C232.154 195.377 232.638 195.392 232.931 195.304C233.225 195.187 233.591 195.025 234.031 194.82C234.266 194.673 234.486 194.512 234.691 194.336C234.926 194.16 235.146 193.984 235.351 193.808C235.586 193.632 235.777 193.5 235.923 193.412C236.07 193.295 236.217 193.221 236.363 193.192C236.51 193.163 236.657 193.148 236.803 193.148C237.126 193.177 237.434 193.353 237.727 193.676C238.021 193.999 238.211 194.307 238.299 194.6C238.299 194.835 238.153 195.172 237.859 195.612C237.566 196.023 237.17 196.463 236.671 196.932C236.202 197.372 235.674 197.768 235.087 198.12ZM234.515 188.308C234.721 188.22 235.014 188.015 235.395 187.692C235.806 187.369 236.173 187.032 236.495 186.68C236.818 186.299 236.979 186.005 236.979 185.8C236.979 185.477 236.759 185.199 236.319 184.964C235.909 184.729 235.366 184.685 234.691 184.832C234.457 184.891 234.178 185.052 233.855 185.316C233.533 185.58 233.21 185.888 232.887 186.24C232.565 186.563 232.286 186.885 232.051 187.208C231.817 187.501 231.655 187.736 231.567 187.912C231.685 188.059 231.919 188.176 232.271 188.264C232.623 188.352 233.005 188.396 233.415 188.396C233.855 188.396 234.222 188.367 234.515 188.308ZM247.088 199.484C246.531 199.631 246.032 199.469 245.592 199C245.152 198.56 244.844 197.9 244.668 197.02C244.492 196.14 244.522 195.157 244.756 194.072C244.903 193.72 245.02 193.383 245.108 193.06C245.196 192.708 245.24 192.429 245.24 192.224C245.299 191.931 245.416 191.505 245.592 190.948C245.768 190.361 245.959 189.76 246.164 189.144C246.37 188.528 246.56 187.985 246.736 187.516C246.942 187.017 247.074 186.709 247.132 186.592C247.25 186.592 247.352 186.489 247.44 186.284C247.528 186.079 247.572 185.873 247.572 185.668C247.572 185.433 247.616 185.169 247.704 184.876C247.822 184.583 247.939 184.377 248.056 184.26C248.056 184.113 248.086 183.952 248.144 183.776C248.232 183.571 248.276 183.409 248.276 183.292C248.276 183.175 248.306 183.057 248.364 182.94C248.452 182.823 248.496 182.705 248.496 182.588C248.702 182.207 248.966 181.605 249.288 180.784C249.64 179.933 250.007 178.995 250.388 177.968C250.799 176.941 251.18 175.929 251.532 174.932C251.884 173.935 252.163 173.099 252.368 172.424C252.603 171.72 252.72 171.295 252.72 171.148C252.72 170.913 252.808 170.693 252.984 170.488C253.16 170.283 253.366 170.18 253.6 170.18C253.688 170.092 253.894 170.033 254.216 170.004C254.539 169.945 254.759 169.916 254.876 169.916C254.876 169.916 254.935 169.975 255.052 170.092C255.17 170.209 255.346 170.385 255.58 170.62C255.815 170.825 256.035 171.06 256.24 171.324C256.475 171.588 256.592 171.896 256.592 172.248C256.592 172.629 256.534 172.996 256.416 173.348C256.328 173.7 256.152 174.184 255.888 174.8C255.624 175.387 255.214 176.267 254.656 177.44C254.422 178.027 254.172 178.584 253.908 179.112C253.644 179.611 253.512 179.919 253.512 180.036C253.512 180.153 253.454 180.329 253.336 180.564C253.248 180.799 253.146 181.092 253.028 181.444C252.911 181.679 252.75 182.031 252.544 182.5C252.339 182.94 252.119 183.424 251.884 183.952C251.679 184.451 251.503 184.891 251.356 185.272C251.21 185.624 251.136 185.829 251.136 185.888C251.136 186.005 251.122 186.123 251.092 186.24C251.092 186.357 251.034 186.475 250.916 186.592C250.799 186.592 250.726 186.68 250.696 186.856C250.696 187.003 250.696 187.076 250.696 187.076C250.696 187.369 250.462 188.147 249.992 189.408C249.523 191.021 249.083 192.503 248.672 193.852C248.291 195.201 248.1 196.287 248.1 197.108C248.1 197.812 247.983 198.355 247.748 198.736C247.543 199.117 247.323 199.367 247.088 199.484ZM260.497 198.384C260.262 198.443 259.954 198.472 259.573 198.472C259.191 198.443 258.854 198.399 258.561 198.34C258.297 198.252 258.165 198.164 258.165 198.076C258.165 197.929 258.091 197.856 257.945 197.856C257.945 197.856 257.783 197.739 257.461 197.504C257.138 197.24 256.845 197.049 256.581 196.932C256.317 196.521 256.141 196.052 256.053 195.524C255.994 194.967 256.17 193.999 256.581 192.62C256.61 191.681 256.874 190.699 257.373 189.672C257.871 188.616 258.502 187.589 259.265 186.592C260.027 185.595 260.819 184.715 261.641 183.952C262.462 183.16 263.195 182.573 263.841 182.192C264.251 181.781 264.794 181.561 265.469 181.532C266.173 181.503 266.789 181.635 267.317 181.928C267.61 182.075 267.933 182.368 268.285 182.808C268.637 183.248 268.974 183.717 269.297 184.216C269.619 184.685 269.869 185.111 270.045 185.492C270.133 185.815 270.206 186.108 270.265 186.372C270.353 186.607 270.411 186.9 270.441 187.252C270.47 187.604 270.441 188.132 270.353 188.836C270.206 189.364 270.074 189.907 269.957 190.464C269.869 190.992 269.825 191.535 269.825 192.092C269.766 192.649 269.825 193.045 270.001 193.28C270.206 193.515 270.499 193.529 270.881 193.324C271.233 193.148 271.599 193.133 271.981 193.28C272.362 193.397 272.626 193.632 272.773 193.984C272.949 194.307 272.905 194.732 272.641 195.26C272.465 195.641 272.186 196.008 271.805 196.36C271.423 196.712 270.998 197.005 270.529 197.24C270.059 197.445 269.605 197.548 269.165 197.548C268.842 197.548 268.519 197.431 268.197 197.196C267.874 196.932 267.581 196.58 267.317 196.14C267.053 195.7 266.833 195.216 266.657 194.688L266.393 193.676L264.809 195.128C264.427 195.539 264.046 195.92 263.665 196.272C263.313 196.595 263.093 196.829 263.005 196.976C262.858 197.24 262.565 197.475 262.125 197.68C261.714 197.885 261.171 198.12 260.497 198.384ZM261.685 194.16C262.183 193.867 262.609 193.515 262.961 193.104C263.342 192.693 263.709 192.239 264.061 191.74C264.413 191.212 264.794 190.655 265.205 190.068C265.703 189.393 266.055 188.851 266.261 188.44C266.495 188.029 266.671 187.589 266.789 187.12C266.671 186.797 266.51 186.46 266.305 186.108C266.099 185.727 265.894 185.521 265.689 185.492C265.278 185.492 264.779 185.741 264.193 186.24C263.635 186.739 263.019 187.457 262.345 188.396C262.227 188.543 262.081 188.777 261.905 189.1C261.729 189.423 261.553 189.731 261.377 190.024C261.23 190.288 261.127 190.464 261.069 190.552C260.981 190.669 260.849 190.948 260.673 191.388C260.526 191.799 260.394 192.224 260.277 192.664C260.159 193.075 260.101 193.368 260.101 193.544C260.101 193.72 260.115 193.911 260.145 194.116C260.203 194.321 260.35 194.453 260.585 194.512C260.819 194.571 261.186 194.453 261.685 194.16ZM283.867 199.264C283.457 199.147 283.046 198.941 282.635 198.648C282.225 198.355 281.799 198.017 281.359 197.636C281.007 197.167 280.758 196.741 280.611 196.36C280.465 195.949 280.377 195.48 280.347 194.952C280.347 194.395 280.347 193.691 280.347 192.84C280.347 192.488 280.406 191.989 280.523 191.344C280.67 190.699 280.817 190.024 280.963 189.32C281.139 188.616 281.301 188 281.447 187.472C281.594 186.915 281.682 186.548 281.711 186.372C281.799 185.991 281.653 185.771 281.271 185.712C280.89 185.653 280.465 185.639 279.995 185.668C279.555 185.668 279.262 185.624 279.115 185.536C278.998 185.507 278.939 185.36 278.939 185.096C278.939 184.803 278.939 184.656 278.939 184.656C278.939 184.539 278.881 184.465 278.763 184.436C278.646 184.377 278.543 184.275 278.455 184.128C278.397 184.011 278.47 183.791 278.675 183.468C278.881 183.145 279.145 182.955 279.467 182.896C279.731 182.837 280.127 182.793 280.655 182.764C281.183 182.705 281.711 182.603 282.239 182.456C282.797 182.28 283.222 182.016 283.515 181.664C283.779 181.019 284.073 180.329 284.395 179.596C284.718 178.833 285.026 178.173 285.319 177.616C285.613 177.029 285.818 176.663 285.935 176.516C286.434 176.252 286.947 176.149 287.475 176.208C288.003 176.237 288.414 176.487 288.707 176.956C288.854 177.161 288.971 177.308 289.059 177.396C289.177 177.484 289.221 177.616 289.191 177.792C289.191 177.968 289.074 178.291 288.839 178.76C288.634 179.2 288.282 179.889 287.783 180.828C287.637 181.121 287.505 181.385 287.387 181.62C287.27 181.825 287.211 181.928 287.211 181.928C287.329 181.957 287.505 181.972 287.739 181.972C287.974 181.972 288.267 181.957 288.619 181.928C288.942 181.869 289.294 181.825 289.675 181.796C290.057 181.737 290.394 181.737 290.687 181.796C291.362 181.796 291.861 181.987 292.183 182.368C292.506 182.749 292.682 183.233 292.711 183.82C292.77 184.143 292.653 184.421 292.359 184.656C292.066 184.891 291.523 185.008 290.731 185.008C290.467 185.008 290.086 185.023 289.587 185.052C289.089 185.081 288.575 185.111 288.047 185.14C287.519 185.169 287.065 185.213 286.683 185.272C286.331 185.301 286.155 185.345 286.155 185.404C286.067 185.463 285.921 185.697 285.715 186.108C285.539 186.489 285.349 186.959 285.143 187.516C284.967 188.073 284.806 188.601 284.659 189.1C284.454 190.097 284.307 191.065 284.219 192.004C284.131 192.943 284.117 193.764 284.175 194.468C284.263 195.143 284.439 195.627 284.703 195.92C284.967 196.184 285.363 196.184 285.891 195.92C286.449 195.627 286.962 195.289 287.431 194.908C287.959 194.468 288.414 194.336 288.795 194.512C289.177 194.659 289.411 194.981 289.499 195.48C289.617 195.949 289.485 196.463 289.103 197.02C288.751 197.577 288.253 198.047 287.607 198.428C286.962 198.809 286.302 199.073 285.627 199.22C284.953 199.396 284.366 199.411 283.867 199.264ZM299.182 198.604C298.038 198.135 297.246 197.372 296.806 196.316C296.366 195.26 296.249 193.852 296.454 192.092C296.513 191.183 296.483 190.581 296.366 190.288C296.249 189.965 296.029 189.657 295.706 189.364C295.618 189.247 295.413 189.056 295.09 188.792C294.767 188.499 294.621 188.279 294.65 188.132C294.621 187.927 294.665 187.677 294.782 187.384C294.899 187.061 295.002 186.885 295.09 186.856C295.295 186.768 295.501 186.665 295.706 186.548C295.941 186.431 296.117 186.401 296.234 186.46C296.351 186.46 296.527 186.533 296.762 186.68C297.026 186.827 297.158 186.959 297.158 187.076C297.275 187.281 297.451 187.193 297.686 186.812C297.95 186.431 298.229 185.947 298.522 185.36C298.815 184.891 299.182 184.451 299.622 184.04C300.062 183.629 300.502 183.263 300.942 182.94C301.411 182.588 301.807 182.324 302.13 182.148C302.277 182.089 302.555 182.001 302.966 181.884C303.406 181.767 303.861 181.679 304.33 181.62C304.799 181.532 305.151 181.503 305.386 181.532C305.914 181.561 306.471 181.781 307.058 182.192C307.645 182.603 308.099 182.984 308.422 183.336C308.803 183.6 309.053 184.011 309.17 184.568C309.317 185.096 309.375 185.653 309.346 186.24C309.317 186.827 309.199 187.325 308.994 187.736C308.906 188.029 308.598 188.44 308.07 188.968C307.542 189.496 306.955 190.009 306.31 190.508C305.694 190.977 305.166 191.3 304.726 191.476C304.345 191.564 303.89 191.637 303.362 191.696C302.834 191.725 302.335 191.725 301.866 191.696C301.426 191.637 301.118 191.564 300.942 191.476C300.737 191.359 300.561 191.403 300.414 191.608C300.297 191.784 300.194 192.283 300.106 193.104C300.077 193.427 300.077 193.705 300.106 193.94C300.165 194.175 300.223 194.351 300.282 194.468C300.487 194.82 300.693 195.084 300.898 195.26C301.103 195.407 301.485 195.451 302.042 195.392C302.599 195.333 303.157 194.996 303.714 194.38C304.301 193.735 304.829 193.221 305.298 192.84C305.415 192.635 305.665 192.503 306.046 192.444C306.457 192.356 306.941 192.385 307.498 192.532C307.821 192.737 307.967 193.06 307.938 193.5C307.938 193.94 307.703 194.585 307.234 195.436C307.146 195.641 306.897 195.949 306.486 196.36C306.105 196.741 305.679 197.137 305.21 197.548C304.77 197.929 304.403 198.208 304.11 198.384C303.23 198.853 302.365 199.073 301.514 199.044C300.663 199.015 299.886 198.868 299.182 198.604ZM302.438 188.704C302.878 188.587 303.245 188.469 303.538 188.352C303.861 188.235 304.169 188.044 304.462 187.78C304.755 187.516 305.093 187.12 305.474 186.592C305.591 186.269 305.65 185.991 305.65 185.756C305.679 185.521 305.665 185.375 305.606 185.316C305.371 185.081 305.107 185.008 304.814 185.096C304.55 185.155 304.257 185.301 303.934 185.536C303.729 185.624 303.435 185.815 303.054 186.108C302.702 186.372 302.35 186.68 301.998 187.032C301.675 187.355 301.411 187.663 301.206 187.956C301.03 188.22 301.001 188.381 301.118 188.44C301.059 188.557 301.221 188.631 301.602 188.66C302.013 188.689 302.291 188.704 302.438 188.704ZM325.757 199.528C325.435 199.645 325.068 199.704 324.657 199.704C324.276 199.733 323.836 199.557 323.337 199.176C323.044 198.853 322.839 198.516 322.721 198.164C322.633 197.812 322.589 197.269 322.589 196.536C322.648 196.096 322.765 195.465 322.941 194.644C323.117 193.793 323.308 192.913 323.513 192.004C323.748 191.065 323.953 190.229 324.129 189.496C324.335 188.733 324.496 188.22 324.613 187.956C324.819 187.252 324.863 186.812 324.745 186.636C324.628 186.46 324.276 186.357 323.689 186.328C323.015 186.299 322.311 186.621 321.577 187.296C320.844 187.971 320.008 189.041 319.069 190.508C318.365 191.593 317.94 192.488 317.793 193.192C317.647 193.867 317.632 194.336 317.749 194.6C317.808 194.717 317.911 194.791 318.057 194.82C318.233 194.82 318.439 194.776 318.673 194.688C318.937 194.6 319.216 194.483 319.509 194.336C319.715 194.219 319.964 194.101 320.257 193.984C320.58 193.837 320.888 193.705 321.181 193.588C321.357 193.588 321.475 193.691 321.533 193.896C321.621 194.101 321.665 194.351 321.665 194.644C321.665 194.761 321.695 194.981 321.753 195.304C321.841 195.627 321.988 195.847 322.193 195.964C322.311 196.081 322.061 196.331 321.445 196.712C320.859 197.064 320.096 197.504 319.157 198.032C318.277 198.237 317.617 198.34 317.177 198.34C316.767 198.34 316.312 198.149 315.813 197.768C314.992 197.269 314.464 196.345 314.229 194.996C314.024 193.647 314.2 192.151 314.757 190.508C315.315 189.188 315.931 188.059 316.605 187.12C317.309 186.152 318.043 185.272 318.805 184.48C318.923 184.363 319.289 184.128 319.905 183.776C320.521 183.424 321.152 183.145 321.797 182.94C322.531 182.705 323.147 182.617 323.645 182.676C324.173 182.705 324.672 182.881 325.141 183.204C325.669 183.321 326.021 183.307 326.197 183.16C326.403 183.013 326.637 182.603 326.901 181.928C327.429 180.461 327.987 178.98 328.573 177.484C329.16 175.959 329.776 174.419 330.421 172.864C330.715 172.307 330.891 171.881 330.949 171.588C331.037 171.265 331.14 171.045 331.257 170.928L332.489 170.532C332.812 170.444 333.179 170.591 333.589 170.972C334.029 171.353 334.308 171.72 334.425 172.072C334.425 172.336 334.308 172.923 334.073 173.832C333.839 174.712 333.457 175.768 332.929 177C332.46 178.085 331.991 179.185 331.521 180.3C331.081 181.385 330.656 182.544 330.245 183.776C329.923 184.685 329.629 185.419 329.365 185.976C329.101 186.533 328.925 187.017 328.837 187.428C328.661 188.191 328.441 188.88 328.177 189.496C327.943 190.083 327.781 190.493 327.693 190.728C327.312 191.843 327.019 192.767 326.813 193.5C326.608 194.204 326.476 194.82 326.417 195.348C326.359 195.847 326.344 196.345 326.373 196.844C326.403 197.313 326.461 197.856 326.549 198.472C326.549 198.589 326.461 198.765 326.285 199C326.139 199.205 325.963 199.381 325.757 199.528ZM352.973 199.044C352.65 198.985 352.298 198.795 351.917 198.472C351.535 198.12 351.183 197.739 350.861 197.328C350.567 196.888 350.377 196.521 350.289 196.228C350.289 196.169 350.245 196.096 350.157 196.008C350.098 195.92 350.069 195.876 350.069 195.876C349.951 195.788 349.878 195.407 349.849 194.732C349.849 194.028 349.893 193.251 349.981 192.4C350.069 191.549 350.171 190.875 350.289 190.376C350.435 189.907 350.655 189.276 350.949 188.484C351.242 187.663 351.491 186.929 351.697 186.284L352.885 183.732L351.125 183.248C350.919 183.189 350.743 183.072 350.597 182.896C350.479 182.72 350.421 182.573 350.421 182.456C350.421 182.221 350.553 181.884 350.817 181.444C351.081 181.004 351.271 180.784 351.389 180.784C351.535 180.813 351.799 180.828 352.181 180.828C352.591 180.828 352.987 180.813 353.369 180.784C353.75 180.755 353.985 180.725 354.073 180.696C354.19 180.637 354.307 180.564 354.425 180.476C354.542 180.359 354.63 180.197 354.689 179.992C354.835 179.669 354.967 179.42 355.085 179.244C355.202 179.068 355.363 178.804 355.569 178.452C355.774 178.071 355.935 177.748 356.053 177.484C356.199 177.22 356.419 176.853 356.713 176.384C356.859 176.179 357.021 175.929 357.197 175.636C357.373 175.343 357.593 175.093 357.857 174.888C358.121 174.653 358.546 174.492 359.133 174.404C359.749 174.287 360.277 174.419 360.717 174.8C360.951 175.093 361.083 175.372 361.113 175.636C361.142 175.9 361.025 176.237 360.761 176.648C360.526 177.147 360.247 177.601 359.925 178.012C359.631 178.393 359.353 178.833 359.089 179.332C358.619 179.977 358.531 180.344 358.825 180.432C359.118 180.52 359.939 180.461 361.289 180.256C362.139 180.109 362.755 180.197 363.137 180.52C363.518 180.843 363.738 181.253 363.797 181.752C363.885 182.456 363.811 182.881 363.577 183.028C363.342 183.175 362.667 183.248 361.553 183.248C360.849 183.365 360.247 183.439 359.749 183.468C359.25 183.468 358.883 183.468 358.649 183.468C358.267 183.497 358.018 183.512 357.901 183.512C357.783 183.512 357.607 183.541 357.373 183.6C357.138 183.659 356.962 183.761 356.845 183.908C356.757 184.025 356.654 184.201 356.537 184.436C356.419 184.553 356.243 184.861 356.009 185.36C355.774 185.859 355.481 186.401 355.129 186.988C354.718 188.22 354.366 189.408 354.073 190.552C353.809 191.667 353.574 192.781 353.369 193.896C353.281 194.453 353.295 194.864 353.413 195.128C353.559 195.363 353.941 195.509 354.557 195.568C354.879 195.597 355.349 195.597 355.965 195.568C356.581 195.509 357.094 195.421 357.505 195.304C357.827 195.157 358.165 195.011 358.517 194.864C358.869 194.688 359.191 194.512 359.485 194.336C359.749 194.189 360.013 194.043 360.277 193.896C360.541 193.72 360.673 193.632 360.673 193.632C360.819 193.397 361.025 193.441 361.289 193.764C361.582 194.057 361.787 194.38 361.905 194.732C361.905 195.084 361.831 195.509 361.685 196.008C361.538 196.477 360.995 196.976 360.057 197.504C358.737 198.325 357.417 198.824 356.097 199C354.777 199.176 353.735 199.191 352.973 199.044ZM370.927 198.692C370.546 198.692 370.238 198.619 370.003 198.472C369.798 198.325 369.534 198.12 369.211 197.856C368.654 197.269 368.199 196.639 367.847 195.964C367.524 195.289 367.407 194.703 367.495 194.204C367.583 193.969 367.612 193.749 367.583 193.544C367.583 193.309 367.583 193.192 367.583 193.192C367.436 193.045 367.392 192.957 367.451 192.928C367.51 192.869 367.568 192.781 367.627 192.664C367.803 192.664 367.862 192.503 367.803 192.18C367.744 191.945 367.832 191.447 368.067 190.684C368.331 189.892 368.683 189.144 369.123 188.44C369.299 188.147 369.563 187.765 369.915 187.296C370.267 186.797 370.648 186.313 371.059 185.844C371.499 185.345 371.895 184.949 372.247 184.656C372.98 184.04 373.655 183.541 374.271 183.16C374.916 182.779 375.562 182.515 376.207 182.368C376.852 182.221 377.512 182.148 378.187 182.148C378.891 182.148 379.463 182.383 379.903 182.852C380.578 183.145 381.047 183.541 381.311 184.04C381.604 184.539 381.795 185.184 381.883 185.976C381.971 186.856 381.883 187.941 381.619 189.232C381.355 190.493 380.636 191.96 379.463 193.632C378.73 194.688 378.011 195.509 377.307 196.096C376.603 196.683 375.826 197.225 374.975 197.724C374.359 198.135 373.699 198.384 372.995 198.472C372.291 198.56 371.602 198.633 370.927 198.692ZM375.415 193.324C376.06 192.767 376.515 192.151 376.779 191.476C377.072 190.801 377.38 190.009 377.703 189.1C377.82 188.924 377.894 188.631 377.923 188.22C377.982 187.809 377.996 187.413 377.967 187.032C377.938 186.621 377.835 186.387 377.659 186.328C377.395 186.123 377.131 186.079 376.867 186.196C376.603 186.284 376.266 186.475 375.855 186.768C374.975 187.501 374.154 188.352 373.391 189.32C372.658 190.259 372.144 191.417 371.851 192.796C371.763 193.529 371.836 194.087 372.071 194.468C372.335 194.82 372.746 194.923 373.303 194.776C373.89 194.6 374.594 194.116 375.415 193.324ZM412.221 199.396C411.81 199.161 411.458 198.956 411.165 198.78C410.871 198.575 410.651 198.237 410.505 197.768C410.387 197.299 410.329 196.565 410.329 195.568C410.329 195.04 410.314 194.615 410.285 194.292C410.255 193.969 410.241 193.808 410.241 193.808C410.241 193.808 410.109 193.94 409.845 194.204C409.581 194.468 409.243 194.923 408.833 195.568C408.187 196.771 407.601 197.563 407.073 197.944C406.574 198.325 406.163 198.575 405.841 198.692C405.694 198.751 405.415 198.736 405.005 198.648C404.594 198.531 404.139 198.369 403.641 198.164C403.171 197.959 402.761 197.753 402.409 197.548C402.057 197.343 401.851 197.152 401.793 196.976C401.734 196.829 401.705 196.507 401.705 196.008C401.705 195.48 401.719 194.908 401.749 194.292C401.807 193.647 401.881 193.06 401.969 192.532C402.057 191.975 402.159 191.579 402.277 191.344C402.277 191.256 402.291 191.168 402.321 191.08C402.379 190.963 402.365 190.845 402.277 190.728C402.277 190.728 402.365 190.405 402.541 189.76C402.746 189.115 402.981 188.352 403.245 187.472C403.538 186.592 403.802 185.771 404.037 185.008C404.301 184.216 404.491 183.688 404.609 183.424C404.609 183.189 404.638 182.94 404.697 182.676C404.785 182.412 404.829 182.221 404.829 182.104C404.829 181.84 404.975 181.561 405.269 181.268C405.679 180.769 406.105 180.549 406.545 180.608C407.014 180.637 407.395 180.769 407.689 181.004C407.982 181.297 408.217 181.591 408.393 181.884C408.598 182.177 408.701 182.544 408.701 182.984C408.701 183.395 408.554 183.967 408.261 184.7C407.967 185.345 407.674 186.035 407.381 186.768C407.087 187.472 406.823 188.132 406.589 188.748C406.383 189.335 406.237 189.789 406.149 190.112C406.149 190.317 406.105 190.523 406.017 190.728C405.958 190.904 405.929 191.051 405.929 191.168C405.841 191.256 405.782 191.359 405.753 191.476C405.753 191.593 405.753 191.711 405.753 191.828C405.753 191.945 405.709 192.151 405.621 192.444C405.533 192.708 405.489 193.001 405.489 193.324C405.371 193.881 405.386 194.204 405.533 194.292C405.709 194.351 405.914 194.321 406.149 194.204C406.237 194.087 406.369 193.881 406.545 193.588C406.721 193.295 406.911 192.987 407.117 192.664C407.234 192.312 407.351 192.077 407.469 191.96C407.615 191.843 407.733 191.74 407.821 191.652C407.909 191.564 407.953 191.403 407.953 191.168C407.953 191.051 408.085 190.816 408.349 190.464C408.642 190.083 408.95 189.657 409.273 189.188C409.889 188.132 410.27 187.457 410.417 187.164C410.651 186.753 410.886 186.401 411.121 186.108C411.385 185.785 411.619 185.389 411.825 184.92C411.942 184.685 412.103 184.407 412.309 184.084C412.514 183.761 412.778 183.6 413.101 183.6C413.423 183.6 413.629 183.629 413.717 183.688C413.834 183.747 413.937 183.937 414.025 184.26C414.259 184.465 414.494 184.788 414.729 185.228C414.993 185.668 415.125 185.991 415.125 186.196C415.007 186.313 414.934 186.46 414.905 186.636C414.905 186.783 414.905 186.856 414.905 186.856C414.905 186.944 414.846 187.208 414.729 187.648C414.641 188.088 414.494 188.513 414.289 188.924C414.054 189.921 413.849 190.904 413.673 191.872C413.526 192.84 413.438 193.647 413.409 194.292C413.409 194.937 413.482 195.319 413.629 195.436C413.805 195.553 413.981 195.436 414.157 195.084C414.333 194.732 414.743 194.072 415.389 193.104C415.535 192.869 415.814 192.488 416.225 191.96C416.635 191.432 416.929 190.963 417.105 190.552C417.105 190.405 417.193 190.171 417.369 189.848C417.545 189.496 417.721 189.129 417.897 188.748C418.073 188.337 418.161 188 418.161 187.736C418.131 187.677 418.278 187.413 418.601 186.944C418.923 186.475 419.231 185.873 419.525 185.14C419.847 184.319 420.302 183.776 420.889 183.512C421.475 183.248 422.003 183.219 422.473 183.424C422.971 183.6 423.177 183.937 423.089 184.436C422.942 185.433 422.605 186.592 422.077 187.912C421.578 189.203 420.991 190.508 420.317 191.828C419.671 193.119 419.026 194.263 418.381 195.26C418.146 195.465 417.941 195.715 417.765 196.008C417.589 196.272 417.501 196.463 417.501 196.58C417.501 196.639 417.369 196.829 417.105 197.152C416.87 197.475 416.577 197.841 416.225 198.252C415.873 198.633 415.506 198.941 415.125 199.176C414.743 199.469 414.274 199.631 413.717 199.66C413.189 199.689 412.69 199.601 412.221 199.396ZM431.739 198.384C431.504 198.443 431.196 198.472 430.815 198.472C430.434 198.443 430.096 198.399 429.803 198.34C429.539 198.252 429.407 198.164 429.407 198.076C429.407 197.929 429.334 197.856 429.187 197.856C429.187 197.856 429.026 197.739 428.703 197.504C428.38 197.24 428.087 197.049 427.823 196.932C427.559 196.521 427.383 196.052 427.295 195.524C427.236 194.967 427.412 193.999 427.823 192.62C427.852 191.681 428.116 190.699 428.615 189.672C429.114 188.616 429.744 187.589 430.507 186.592C431.27 185.595 432.062 184.715 432.883 183.952C433.704 183.16 434.438 182.573 435.083 182.192C435.494 181.781 436.036 181.561 436.711 181.532C437.415 181.503 438.031 181.635 438.559 181.928C438.852 182.075 439.175 182.368 439.527 182.808C439.879 183.248 440.216 183.717 440.539 184.216C440.862 184.685 441.111 185.111 441.287 185.492C441.375 185.815 441.448 186.108 441.507 186.372C441.595 186.607 441.654 186.9 441.683 187.252C441.712 187.604 441.683 188.132 441.595 188.836C441.448 189.364 441.316 189.907 441.199 190.464C441.111 190.992 441.067 191.535 441.067 192.092C441.008 192.649 441.067 193.045 441.243 193.28C441.448 193.515 441.742 193.529 442.123 193.324C442.475 193.148 442.842 193.133 443.223 193.28C443.604 193.397 443.868 193.632 444.015 193.984C444.191 194.307 444.147 194.732 443.883 195.26C443.707 195.641 443.428 196.008 443.047 196.36C442.666 196.712 442.24 197.005 441.771 197.24C441.302 197.445 440.847 197.548 440.407 197.548C440.084 197.548 439.762 197.431 439.439 197.196C439.116 196.932 438.823 196.58 438.559 196.14C438.295 195.7 438.075 195.216 437.899 194.688L437.635 193.676L436.051 195.128C435.67 195.539 435.288 195.92 434.907 196.272C434.555 196.595 434.335 196.829 434.247 196.976C434.1 197.24 433.807 197.475 433.367 197.68C432.956 197.885 432.414 198.12 431.739 198.384ZM432.927 194.16C433.426 193.867 433.851 193.515 434.203 193.104C434.584 192.693 434.951 192.239 435.303 191.74C435.655 191.212 436.036 190.655 436.447 190.068C436.946 189.393 437.298 188.851 437.503 188.44C437.738 188.029 437.914 187.589 438.031 187.12C437.914 186.797 437.752 186.46 437.547 186.108C437.342 185.727 437.136 185.521 436.931 185.492C436.52 185.492 436.022 185.741 435.435 186.24C434.878 186.739 434.262 187.457 433.587 188.396C433.47 188.543 433.323 188.777 433.147 189.1C432.971 189.423 432.795 189.731 432.619 190.024C432.472 190.288 432.37 190.464 432.311 190.552C432.223 190.669 432.091 190.948 431.915 191.388C431.768 191.799 431.636 192.224 431.519 192.664C431.402 193.075 431.343 193.368 431.343 193.544C431.343 193.72 431.358 193.911 431.387 194.116C431.446 194.321 431.592 194.453 431.827 194.512C432.062 194.571 432.428 194.453 432.927 194.16ZM453.482 201.64C452.045 201.611 451.121 201.2 450.71 200.408C450.329 199.645 450.226 198.677 450.402 197.504C450.578 196.947 450.681 196.448 450.71 196.008C450.769 195.539 450.901 195.245 451.106 195.128C451.106 195.128 451.121 195.084 451.15 194.996C451.209 194.908 451.194 194.82 451.106 194.732C451.106 194.351 451.238 193.823 451.502 193.148C451.561 192.972 451.634 192.767 451.722 192.532C451.839 192.268 451.898 192.136 451.898 192.136C451.751 191.901 451.751 191.711 451.898 191.564C452.045 191.417 452.191 191.285 452.338 191.168C452.514 191.021 452.529 190.86 452.382 190.684C452.323 190.567 452.397 190.303 452.602 189.892C452.807 189.452 453.042 188.997 453.306 188.528C453.57 188.059 453.746 187.692 453.834 187.428C453.834 187.369 453.907 187.164 454.054 186.812C454.201 186.46 454.377 186.049 454.582 185.58C454.787 185.111 454.978 184.685 455.154 184.304C455.359 183.923 455.491 183.673 455.55 183.556C455.843 183.409 455.726 183.307 455.198 183.248C454.67 183.189 454.113 183.175 453.526 183.204C452.617 183.175 451.883 183.131 451.326 183.072C450.798 183.013 450.358 182.881 450.006 182.676C449.654 182.265 449.61 181.781 449.874 181.224C450.138 180.637 450.563 180.329 451.15 180.3C451.531 180.271 451.825 180.256 452.03 180.256C452.265 180.256 452.558 180.241 452.91 180.212C453.291 180.153 453.878 180.08 454.67 179.992L456.914 179.816L457.046 179.068C457.281 178.687 457.442 178.437 457.53 178.32C457.618 178.203 457.677 178.085 457.706 177.968C457.735 177.821 457.779 177.572 457.838 177.22C457.838 177.22 457.97 176.985 458.234 176.516C458.498 176.017 458.659 175.504 458.718 174.976C459.07 174.389 459.378 173.861 459.642 173.392C459.906 172.893 460.067 172.585 460.126 172.468C460.625 171.735 461.109 171.339 461.578 171.28C462.077 171.221 462.546 171.339 462.986 171.632C463.25 171.779 463.499 171.969 463.734 172.204C463.969 172.409 464.115 172.688 464.174 173.04C464.233 173.363 464.101 173.788 463.778 174.316C463.719 174.433 463.631 174.653 463.514 174.976C463.397 175.269 463.309 175.519 463.25 175.724C463.074 175.929 462.854 176.267 462.59 176.736C462.355 177.176 462.194 177.631 462.106 178.1C461.871 178.599 461.725 178.907 461.666 179.024C461.607 179.141 461.519 179.2 461.402 179.2C461.461 179.493 461.637 179.64 461.93 179.64C462.223 179.611 462.707 179.581 463.382 179.552C463.939 179.493 464.321 179.435 464.526 179.376C464.761 179.288 465.025 179.317 465.318 179.464C465.465 179.669 465.538 179.977 465.538 180.388C465.567 180.769 465.523 181.151 465.406 181.532C465.289 181.884 465.127 182.104 464.922 182.192C464.775 182.192 464.467 182.28 463.998 182.456C463.558 182.603 463.001 182.691 462.326 182.72L459.994 182.94L459.246 184.436C459.041 184.817 458.865 185.169 458.718 185.492C458.571 185.785 458.469 185.961 458.41 186.02C458.41 186.196 458.307 186.46 458.102 186.812C457.926 187.164 457.735 187.545 457.53 187.956C457.354 188.455 457.149 188.909 456.914 189.32C456.709 189.731 456.606 189.936 456.606 189.936C456.489 189.936 456.43 190.024 456.43 190.2C456.577 190.552 456.533 190.816 456.298 190.992C456.151 191.08 456.019 191.212 455.902 191.388C455.814 191.535 455.77 191.608 455.77 191.608C455.887 191.725 455.902 191.872 455.814 192.048C455.755 192.224 455.667 192.415 455.55 192.62C455.55 192.855 455.477 193.192 455.33 193.632C455.213 194.072 455.081 194.483 454.934 194.864C454.963 195.392 454.993 195.729 455.022 195.876C455.051 196.023 455.125 196.081 455.242 196.052C455.389 196.081 455.594 196.081 455.858 196.052C456.122 196.023 456.313 196.008 456.43 196.008C456.87 195.803 456.665 196.829 455.814 199.088C455.345 199.821 454.875 200.423 454.406 200.892C453.937 201.391 453.629 201.64 453.482 201.64ZM470.424 198.604C469.28 198.135 468.488 197.372 468.048 196.316C467.608 195.26 467.491 193.852 467.696 192.092C467.755 191.183 467.726 190.581 467.608 190.288C467.491 189.965 467.271 189.657 466.948 189.364C466.86 189.247 466.655 189.056 466.332 188.792C466.01 188.499 465.863 188.279 465.892 188.132C465.863 187.927 465.907 187.677 466.024 187.384C466.142 187.061 466.244 186.885 466.332 186.856C466.538 186.768 466.743 186.665 466.948 186.548C467.183 186.431 467.359 186.401 467.476 186.46C467.594 186.46 467.77 186.533 468.004 186.68C468.268 186.827 468.4 186.959 468.4 187.076C468.518 187.281 468.694 187.193 468.928 186.812C469.192 186.431 469.471 185.947 469.764 185.36C470.058 184.891 470.424 184.451 470.864 184.04C471.304 183.629 471.744 183.263 472.184 182.94C472.654 182.588 473.05 182.324 473.372 182.148C473.519 182.089 473.798 182.001 474.208 181.884C474.648 181.767 475.103 181.679 475.572 181.62C476.042 181.532 476.394 181.503 476.628 181.532C477.156 181.561 477.714 181.781 478.3 182.192C478.887 182.603 479.342 182.984 479.664 183.336C480.046 183.6 480.295 184.011 480.412 184.568C480.559 185.096 480.618 185.653 480.588 186.24C480.559 186.827 480.442 187.325 480.236 187.736C480.148 188.029 479.84 188.44 479.312 188.968C478.784 189.496 478.198 190.009 477.552 190.508C476.936 190.977 476.408 191.3 475.968 191.476C475.587 191.564 475.132 191.637 474.604 191.696C474.076 191.725 473.578 191.725 473.108 191.696C472.668 191.637 472.36 191.564 472.184 191.476C471.979 191.359 471.803 191.403 471.656 191.608C471.539 191.784 471.436 192.283 471.348 193.104C471.319 193.427 471.319 193.705 471.348 193.94C471.407 194.175 471.466 194.351 471.524 194.468C471.73 194.82 471.935 195.084 472.14 195.26C472.346 195.407 472.727 195.451 473.284 195.392C473.842 195.333 474.399 194.996 474.956 194.38C475.543 193.735 476.071 193.221 476.54 192.84C476.658 192.635 476.907 192.503 477.288 192.444C477.699 192.356 478.183 192.385 478.74 192.532C479.063 192.737 479.21 193.06 479.18 193.5C479.18 193.94 478.946 194.585 478.476 195.436C478.388 195.641 478.139 195.949 477.728 196.36C477.347 196.741 476.922 197.137 476.452 197.548C476.012 197.929 475.646 198.208 475.352 198.384C474.472 198.853 473.607 199.073 472.756 199.044C471.906 199.015 471.128 198.868 470.424 198.604ZM473.68 188.704C474.12 188.587 474.487 188.469 474.78 188.352C475.103 188.235 475.411 188.044 475.704 187.78C475.998 187.516 476.335 187.12 476.716 186.592C476.834 186.269 476.892 185.991 476.892 185.756C476.922 185.521 476.907 185.375 476.848 185.316C476.614 185.081 476.35 185.008 476.056 185.096C475.792 185.155 475.499 185.301 475.176 185.536C474.971 185.624 474.678 185.815 474.296 186.108C473.944 186.372 473.592 186.68 473.24 187.032C472.918 187.355 472.654 187.663 472.448 187.956C472.272 188.22 472.243 188.381 472.36 188.44C472.302 188.557 472.463 188.631 472.844 188.66C473.255 188.689 473.534 188.704 473.68 188.704ZM486.528 197.812C486.264 197.607 485.97 197.343 485.648 197.02C485.354 196.697 485.252 196.243 485.34 195.656C485.428 194.835 485.545 194.116 485.692 193.5C485.838 192.855 486.014 192.121 486.22 191.3C486.278 190.948 486.425 190.347 486.66 189.496C486.924 188.645 487.232 187.721 487.584 186.724C487.936 185.727 488.302 184.788 488.684 183.908C489.065 182.999 489.402 182.324 489.696 181.884C490.018 181.591 490.488 181.444 491.104 181.444C491.749 181.444 492.189 181.561 492.424 181.796C492.746 182.06 492.849 182.529 492.732 183.204C492.614 183.849 492.204 184.861 491.5 186.24C491.353 186.592 491.162 186.973 490.928 187.384C490.722 187.765 490.576 188.088 490.488 188.352C490.4 188.587 490.429 188.689 490.576 188.66C490.752 188.337 491.074 187.971 491.544 187.56C492.013 187.12 492.512 186.695 493.04 186.284C493.568 185.873 494.066 185.507 494.536 185.184C495.005 184.861 495.328 184.656 495.504 184.568C495.738 184.421 496.002 184.304 496.296 184.216C496.618 184.099 496.838 184.011 496.956 183.952C497.63 183.629 498.364 183.512 499.156 183.6C499.977 183.659 500.476 183.908 500.652 184.348C500.681 184.583 500.769 184.759 500.916 184.876C501.092 184.993 501.18 185.052 501.18 185.052C501.297 185.052 501.356 185.096 501.356 185.184C501.385 185.272 501.4 185.316 501.4 185.316C501.4 185.521 501.194 185.815 500.784 186.196C500.402 186.577 499.977 186.783 499.508 186.812C499.126 186.841 498.789 186.915 498.496 187.032C498.202 187.149 497.85 187.296 497.44 187.472C496.325 188.117 495.313 188.689 494.404 189.188C493.524 189.687 492.614 190.449 491.676 191.476C491.47 191.711 491.25 191.931 491.016 192.136C490.781 192.341 490.546 192.635 490.312 193.016C490.165 193.163 490.018 193.485 489.872 193.984C489.725 194.483 489.593 194.967 489.476 195.436C489.388 195.876 489.344 196.14 489.344 196.228C489.344 196.228 489.3 196.375 489.212 196.668C489.124 196.932 488.977 197.196 488.772 197.46C488.42 197.929 488.068 198.223 487.716 198.34C487.393 198.457 486.997 198.281 486.528 197.812ZM523.115 198.648C522.47 198.648 521.986 198.619 521.663 198.56C521.37 198.501 521.15 198.413 521.003 198.296C520.857 198.179 520.666 198.017 520.431 197.812C520.314 197.577 520.109 197.284 519.815 196.932C519.522 196.551 519.317 196.301 519.199 196.184C519.082 195.744 519.038 195.143 519.067 194.38C519.126 193.617 519.258 192.796 519.463 191.916C519.669 191.036 519.918 190.244 520.211 189.54C520.329 189.305 520.431 189.071 520.519 188.836C520.607 188.601 520.651 188.484 520.651 188.484C520.651 188.337 520.827 187.985 521.179 187.428C521.561 186.871 521.971 186.284 522.411 185.668C522.881 185.052 523.262 184.612 523.555 184.348C523.761 184.113 524.069 183.864 524.479 183.6C524.919 183.336 525.301 183.145 525.623 183.028C525.946 182.911 526.386 182.764 526.943 182.588C527.501 182.383 527.999 182.28 528.439 182.28C528.85 182.28 529.29 182.368 529.759 182.544C530.229 182.72 530.625 183.028 530.947 183.468C531.475 183.996 531.813 184.627 531.959 185.36C532.106 186.093 532.121 186.724 532.003 187.252C531.857 187.839 531.563 188.323 531.123 188.704C530.683 189.056 530.214 189.247 529.715 189.276C529.217 189.276 528.777 189.071 528.395 188.66C528.278 188.425 528.219 188.235 528.219 188.088C528.219 187.912 528.278 187.663 528.395 187.34C528.513 186.929 528.571 186.563 528.571 186.24C528.571 185.917 528.439 185.756 528.175 185.756C527.794 185.756 527.486 185.873 527.251 186.108C527.017 186.313 526.665 186.665 526.195 187.164C525.99 187.399 525.726 187.736 525.403 188.176C525.081 188.616 524.758 189.1 524.435 189.628C524.142 190.127 523.878 190.64 523.643 191.168C523.321 192.136 523.115 192.767 523.027 193.06C522.969 193.324 522.939 193.456 522.939 193.456C522.939 193.573 522.925 193.691 522.895 193.808C522.866 193.896 522.851 193.999 522.851 194.116C522.851 194.468 523.057 194.747 523.467 194.952C523.79 195.157 524.054 195.26 524.259 195.26C524.494 195.231 524.934 195.069 525.579 194.776C526.049 194.541 526.489 194.233 526.899 193.852C527.339 193.471 527.794 193.133 528.263 192.84C528.586 192.635 528.835 192.459 529.011 192.312C529.217 192.165 529.319 192.151 529.319 192.268C529.319 192.385 529.363 192.444 529.451 192.444C529.539 192.444 529.642 192.385 529.759 192.268C529.935 192.033 530.155 191.945 530.419 192.004C530.683 192.033 530.918 192.107 531.123 192.224C531.358 192.341 531.475 192.444 531.475 192.532C531.417 192.796 531.475 193.016 531.651 193.192C531.651 193.309 531.607 193.471 531.519 193.676C531.461 193.852 531.373 193.999 531.255 194.116C531.109 194.321 530.889 194.615 530.595 194.996C530.331 195.377 530.082 195.715 529.847 196.008C529.613 196.301 529.495 196.448 529.495 196.448C529.378 196.419 529.261 196.448 529.143 196.536C529.055 196.624 528.953 196.727 528.835 196.844C528.601 197.049 528.381 197.211 528.175 197.328C527.97 197.416 527.809 197.46 527.691 197.46C527.486 197.577 527.325 197.651 527.207 197.68C527.119 197.709 527.075 197.783 527.075 197.9C526.782 198.193 526.254 198.399 525.491 198.516C524.729 198.604 523.937 198.648 523.115 198.648ZM541.611 198.692C541.23 198.692 540.922 198.619 540.687 198.472C540.482 198.325 540.218 198.12 539.895 197.856C539.338 197.269 538.883 196.639 538.531 195.964C538.208 195.289 538.091 194.703 538.179 194.204C538.267 193.969 538.296 193.749 538.267 193.544C538.267 193.309 538.267 193.192 538.267 193.192C538.12 193.045 538.076 192.957 538.135 192.928C538.194 192.869 538.252 192.781 538.311 192.664C538.487 192.664 538.546 192.503 538.487 192.18C538.428 191.945 538.516 191.447 538.751 190.684C539.015 189.892 539.367 189.144 539.807 188.44C539.983 188.147 540.247 187.765 540.599 187.296C540.951 186.797 541.332 186.313 541.743 185.844C542.183 185.345 542.579 184.949 542.931 184.656C543.664 184.04 544.339 183.541 544.955 183.16C545.6 182.779 546.246 182.515 546.891 182.368C547.536 182.221 548.196 182.148 548.871 182.148C549.575 182.148 550.147 182.383 550.587 182.852C551.262 183.145 551.731 183.541 551.995 184.04C552.288 184.539 552.479 185.184 552.567 185.976C552.655 186.856 552.567 187.941 552.303 189.232C552.039 190.493 551.32 191.96 550.147 193.632C549.414 194.688 548.695 195.509 547.991 196.096C547.287 196.683 546.51 197.225 545.659 197.724C545.043 198.135 544.383 198.384 543.679 198.472C542.975 198.56 542.286 198.633 541.611 198.692ZM546.099 193.324C546.744 192.767 547.199 192.151 547.463 191.476C547.756 190.801 548.064 190.009 548.387 189.1C548.504 188.924 548.578 188.631 548.607 188.22C548.666 187.809 548.68 187.413 548.651 187.032C548.622 186.621 548.519 186.387 548.343 186.328C548.079 186.123 547.815 186.079 547.551 186.196C547.287 186.284 546.95 186.475 546.539 186.768C545.659 187.501 544.838 188.352 544.075 189.32C543.342 190.259 542.828 191.417 542.535 192.796C542.447 193.529 542.52 194.087 542.755 194.468C543.019 194.82 543.43 194.923 543.987 194.776C544.574 194.6 545.278 194.116 546.099 193.324ZM558.388 200.32C558.007 200.173 557.699 199.939 557.464 199.616C557.23 199.323 557.098 198.883 557.068 198.296C557.039 197.915 557.054 197.357 557.112 196.624C557.171 195.861 557.274 195.099 557.42 194.336C557.42 194.277 557.42 194.219 557.42 194.16C557.45 194.072 557.464 194.013 557.464 193.984C557.494 193.867 557.523 193.691 557.552 193.456C557.582 193.192 557.611 192.987 557.64 192.84C557.699 192.664 557.728 192.649 557.728 192.796L557.992 191.608C558.11 191.08 558.242 190.537 558.388 189.98C558.535 189.423 558.667 188.939 558.784 188.528C558.931 188.088 559.019 187.839 559.048 187.78C559.048 187.78 559.092 187.619 559.18 187.296C559.298 186.944 559.415 186.592 559.532 186.24C560.002 184.773 560.442 183.556 560.852 182.588C561.292 181.62 561.674 180.916 561.996 180.476C562.026 180.388 562.07 180.285 562.128 180.168C562.187 180.021 562.231 179.904 562.26 179.816C562.26 179.493 562.275 179.259 562.304 179.112C562.363 178.965 562.436 178.833 562.524 178.716C562.583 178.599 562.671 178.452 562.788 178.276C562.906 178.071 563.038 177.821 563.184 177.528L563.36 177.044C563.536 176.663 563.756 176.223 564.02 175.724C564.284 175.196 564.475 174.8 564.592 174.536C564.68 174.272 564.856 173.964 565.12 173.612C565.384 173.231 565.678 172.981 566 172.864L565.956 172.82C566.103 172.556 566.382 172.351 566.792 172.204C567.203 172.028 567.54 171.94 567.804 171.94C568.215 171.94 568.523 172.057 568.728 172.292C568.963 172.527 569.08 172.849 569.08 173.26C569.08 173.7 569.066 174.023 569.036 174.228C569.036 174.404 568.934 174.609 568.728 174.844H568.772C568.831 174.785 568.816 174.873 568.728 175.108C568.64 175.343 568.567 175.504 568.508 175.592C568.45 175.739 568.376 175.9 568.288 176.076C568.23 176.252 568.156 176.384 568.068 176.472C567.98 176.589 567.746 177 567.364 177.704C566.983 178.379 566.558 179.185 566.088 180.124C565.619 181.033 565.164 181.928 564.724 182.808C564.314 183.659 564.02 184.319 563.844 184.788L563.624 185.448C563.595 185.565 563.58 185.653 563.58 185.712C563.492 185.917 563.404 186.123 563.316 186.328C563.228 186.533 563.14 186.709 563.052 186.856L562.348 189.584L562.172 190.508L561.776 191.52L561.512 192.356C561.454 192.532 561.41 192.723 561.38 192.928C561.351 193.133 561.292 193.28 561.204 193.368C561.204 193.397 561.19 193.441 561.16 193.5C561.16 193.529 561.16 193.559 561.16 193.588C561.043 194.057 560.838 194.717 560.544 195.568C560.28 196.419 560.119 197.357 560.06 198.384C560.06 198.413 560.046 198.443 560.016 198.472C560.016 198.501 560.016 198.531 560.016 198.56C559.928 199.176 559.738 199.645 559.444 199.968C559.18 200.32 558.828 200.437 558.388 200.32ZM571.269 199.484C570.711 199.631 570.213 199.469 569.773 199C569.333 198.56 569.025 197.9 568.849 197.02C568.673 196.14 568.702 195.157 568.937 194.072C569.083 193.72 569.201 193.383 569.289 193.06C569.377 192.708 569.421 192.429 569.421 192.224C569.479 191.931 569.597 191.505 569.773 190.948C569.949 190.361 570.139 189.76 570.345 189.144C570.55 188.528 570.741 187.985 570.917 187.516C571.122 187.017 571.254 186.709 571.313 186.592C571.43 186.592 571.533 186.489 571.621 186.284C571.709 186.079 571.753 185.873 571.753 185.668C571.753 185.433 571.797 185.169 571.885 184.876C572.002 184.583 572.119 184.377 572.237 184.26C572.237 184.113 572.266 183.952 572.325 183.776C572.413 183.571 572.457 183.409 572.457 183.292C572.457 183.175 572.486 183.057 572.545 182.94C572.633 182.823 572.677 182.705 572.677 182.588C572.882 182.207 573.146 181.605 573.469 180.784C573.821 179.933 574.187 178.995 574.569 177.968C574.979 176.941 575.361 175.929 575.713 174.932C576.065 173.935 576.343 173.099 576.549 172.424C576.783 171.72 576.901 171.295 576.901 171.148C576.901 170.913 576.989 170.693 577.165 170.488C577.341 170.283 577.546 170.18 577.781 170.18C577.869 170.092 578.074 170.033 578.397 170.004C578.719 169.945 578.939 169.916 579.057 169.916C579.057 169.916 579.115 169.975 579.233 170.092C579.35 170.209 579.526 170.385 579.761 170.62C579.995 170.825 580.215 171.06 580.421 171.324C580.655 171.588 580.773 171.896 580.773 172.248C580.773 172.629 580.714 172.996 580.597 173.348C580.509 173.7 580.333 174.184 580.069 174.8C579.805 175.387 579.394 176.267 578.837 177.44C578.602 178.027 578.353 178.584 578.089 179.112C577.825 179.611 577.693 179.919 577.693 180.036C577.693 180.153 577.634 180.329 577.517 180.564C577.429 180.799 577.326 181.092 577.209 181.444C577.091 181.679 576.93 182.031 576.725 182.5C576.519 182.94 576.299 183.424 576.065 183.952C575.859 184.451 575.683 184.891 575.537 185.272C575.39 185.624 575.317 185.829 575.317 185.888C575.317 186.005 575.302 186.123 575.273 186.24C575.273 186.357 575.214 186.475 575.097 186.592C574.979 186.592 574.906 186.68 574.877 186.856C574.877 187.003 574.877 187.076 574.877 187.076C574.877 187.369 574.642 188.147 574.173 189.408C573.703 191.021 573.263 192.503 572.853 193.852C572.471 195.201 572.281 196.287 572.281 197.108C572.281 197.812 572.163 198.355 571.929 198.736C571.723 199.117 571.503 199.367 571.269 199.484ZM585.205 199.792C583.592 199.792 582.345 199.323 581.465 198.384C580.614 197.445 580.189 196.008 580.189 194.072C580.189 193.016 580.38 191.857 580.761 190.596C581.172 189.335 581.7 188.103 582.345 186.9C583.02 185.697 583.753 184.656 584.545 183.776C585.337 182.867 586.129 182.236 586.921 181.884C587.214 181.737 587.522 181.635 587.845 181.576C588.197 181.488 588.534 181.444 588.857 181.444C589.209 181.444 589.59 181.473 590.001 181.532C590.441 181.561 590.852 181.649 591.233 181.796C591.908 182.001 592.494 182.397 592.993 182.984C593.521 183.571 593.785 184.421 593.785 185.536C593.785 185.829 593.756 186.152 593.697 186.504C593.638 186.827 593.536 187.149 593.389 187.472C593.008 188.44 592.421 189.364 591.629 190.244C590.866 191.124 590.06 191.74 589.209 192.092C588.974 192.209 588.74 192.297 588.505 192.356C588.3 192.385 588.08 192.4 587.845 192.4C587.229 192.4 586.672 192.312 586.173 192.136C585.704 191.96 585.264 191.725 584.853 191.432L584.501 191.124L584.281 191.564C584.076 192.121 583.929 192.591 583.841 192.972C583.782 193.353 583.753 193.632 583.753 193.808C583.753 194.16 583.768 194.527 583.797 194.908C583.826 195.26 583.914 195.553 584.061 195.788C584.178 195.935 584.325 196.052 584.501 196.14C584.706 196.228 584.956 196.272 585.249 196.272C585.425 196.272 585.586 196.272 585.733 196.272C585.909 196.243 586.056 196.213 586.173 196.184C586.701 196.067 587.126 195.876 587.449 195.612C587.801 195.319 588.168 195.069 588.549 194.864L588.725 194.776L588.681 194.644C589.18 194.38 589.517 194.219 589.693 194.16C589.869 194.072 590.001 193.999 590.089 193.94C590.206 193.823 590.338 193.764 590.485 193.764C590.896 193.705 591.292 193.823 591.673 194.116C592.084 194.38 592.289 194.717 592.289 195.128C592.289 195.304 592.157 195.583 591.893 195.964C591.658 196.345 591.35 196.727 590.969 197.108C590.617 197.46 590.25 197.739 589.869 197.944C589.781 197.973 589.693 198.017 589.605 198.076C589.517 198.105 589.429 198.149 589.341 198.208H589.385C589.121 198.56 588.857 198.736 588.593 198.736H588.241C588.124 198.941 587.742 199.161 587.097 199.396C586.452 199.66 585.821 199.792 585.205 199.792ZM587.493 189.188C587.757 189.188 587.992 189.144 588.197 189.056C588.432 188.968 588.652 188.865 588.857 188.748C589.561 188.249 590.016 187.604 590.221 186.812C590.426 186.02 590.353 185.419 590.001 185.008C589.942 184.92 589.869 184.861 589.781 184.832C589.693 184.773 589.59 184.744 589.473 184.744C589.15 184.744 588.784 184.847 588.373 185.052C587.992 185.257 587.61 185.551 587.229 185.932C586.848 186.313 586.496 186.768 586.173 187.296L585.601 188.22C585.66 188.191 585.704 188.176 585.733 188.176C585.792 188.147 585.836 188.132 585.865 188.132C586.129 188.132 586.305 188.22 586.393 188.396C586.481 188.572 586.584 188.748 586.701 188.924C586.848 189.1 587.112 189.188 587.493 189.188ZM602.848 198.648C602.203 198.648 601.719 198.619 601.396 198.56C601.103 198.501 600.883 198.413 600.736 198.296C600.59 198.179 600.399 198.017 600.164 197.812C600.047 197.577 599.842 197.284 599.548 196.932C599.255 196.551 599.05 196.301 598.932 196.184C598.815 195.744 598.771 195.143 598.8 194.38C598.859 193.617 598.991 192.796 599.196 191.916C599.402 191.036 599.651 190.244 599.944 189.54C600.062 189.305 600.164 189.071 600.252 188.836C600.34 188.601 600.384 188.484 600.384 188.484C600.384 188.337 600.56 187.985 600.912 187.428C601.294 186.871 601.704 186.284 602.144 185.668C602.614 185.052 602.995 184.612 603.288 184.348C603.494 184.113 603.802 183.864 604.212 183.6C604.652 183.336 605.034 183.145 605.356 183.028C605.679 182.911 606.119 182.764 606.676 182.588C607.234 182.383 607.732 182.28 608.172 182.28C608.583 182.28 609.023 182.368 609.492 182.544C609.962 182.72 610.358 183.028 610.68 183.468C611.208 183.996 611.546 184.627 611.692 185.36C611.839 186.093 611.854 186.724 611.736 187.252C611.59 187.839 611.296 188.323 610.856 188.704C610.416 189.056 609.947 189.247 609.448 189.276C608.95 189.276 608.51 189.071 608.128 188.66C608.011 188.425 607.952 188.235 607.952 188.088C607.952 187.912 608.011 187.663 608.128 187.34C608.246 186.929 608.304 186.563 608.304 186.24C608.304 185.917 608.172 185.756 607.908 185.756C607.527 185.756 607.219 185.873 606.984 186.108C606.75 186.313 606.398 186.665 605.928 187.164C605.723 187.399 605.459 187.736 605.136 188.176C604.814 188.616 604.491 189.1 604.168 189.628C603.875 190.127 603.611 190.64 603.376 191.168C603.054 192.136 602.848 192.767 602.76 193.06C602.702 193.324 602.672 193.456 602.672 193.456C602.672 193.573 602.658 193.691 602.628 193.808C602.599 193.896 602.584 193.999 602.584 194.116C602.584 194.468 602.79 194.747 603.2 194.952C603.523 195.157 603.787 195.26 603.992 195.26C604.227 195.231 604.667 195.069 605.312 194.776C605.782 194.541 606.222 194.233 606.632 193.852C607.072 193.471 607.527 193.133 607.996 192.84C608.319 192.635 608.568 192.459 608.744 192.312C608.95 192.165 609.052 192.151 609.052 192.268C609.052 192.385 609.096 192.444 609.184 192.444C609.272 192.444 609.375 192.385 609.492 192.268C609.668 192.033 609.888 191.945 610.152 192.004C610.416 192.033 610.651 192.107 610.856 192.224C611.091 192.341 611.208 192.444 611.208 192.532C611.15 192.796 611.208 193.016 611.384 193.192C611.384 193.309 611.34 193.471 611.252 193.676C611.194 193.852 611.106 193.999 610.988 194.116C610.842 194.321 610.622 194.615 610.328 194.996C610.064 195.377 609.815 195.715 609.58 196.008C609.346 196.301 609.228 196.448 609.228 196.448C609.111 196.419 608.994 196.448 608.876 196.536C608.788 196.624 608.686 196.727 608.568 196.844C608.334 197.049 608.114 197.211 607.908 197.328C607.703 197.416 607.542 197.46 607.424 197.46C607.219 197.577 607.058 197.651 606.94 197.68C606.852 197.709 606.808 197.783 606.808 197.9C606.515 198.193 605.987 198.399 605.224 198.516C604.462 198.604 603.67 198.648 602.848 198.648ZM622.444 201.64C621.006 201.611 620.082 201.2 619.672 200.408C619.29 199.645 619.188 198.677 619.364 197.504C619.54 196.947 619.642 196.448 619.672 196.008C619.73 195.539 619.862 195.245 620.068 195.128C620.068 195.128 620.082 195.084 620.112 194.996C620.17 194.908 620.156 194.82 620.068 194.732C620.068 194.351 620.2 193.823 620.464 193.148C620.522 192.972 620.596 192.767 620.684 192.532C620.801 192.268 620.86 192.136 620.86 192.136C620.713 191.901 620.713 191.711 620.86 191.564C621.006 191.417 621.153 191.285 621.3 191.168C621.476 191.021 621.49 190.86 621.344 190.684C621.285 190.567 621.358 190.303 621.564 189.892C621.769 189.452 622.004 188.997 622.268 188.528C622.532 188.059 622.708 187.692 622.796 187.428C622.796 187.369 622.869 187.164 623.016 186.812C623.162 186.46 623.338 186.049 623.544 185.58C623.749 185.111 623.94 184.685 624.116 184.304C624.321 183.923 624.453 183.673 624.512 183.556C624.805 183.409 624.688 183.307 624.16 183.248C623.632 183.189 623.074 183.175 622.488 183.204C621.578 183.175 620.845 183.131 620.288 183.072C619.76 183.013 619.32 182.881 618.968 182.676C618.616 182.265 618.572 181.781 618.836 181.224C619.1 180.637 619.525 180.329 620.112 180.3C620.493 180.271 620.786 180.256 620.992 180.256C621.226 180.256 621.52 180.241 621.872 180.212C622.253 180.153 622.84 180.08 623.632 179.992L625.876 179.816L626.008 179.068C626.242 178.687 626.404 178.437 626.492 178.32C626.58 178.203 626.638 178.085 626.668 177.968C626.697 177.821 626.741 177.572 626.8 177.22C626.8 177.22 626.932 176.985 627.196 176.516C627.46 176.017 627.621 175.504 627.68 174.976C628.032 174.389 628.34 173.861 628.604 173.392C628.868 172.893 629.029 172.585 629.088 172.468C629.586 171.735 630.07 171.339 630.54 171.28C631.038 171.221 631.508 171.339 631.948 171.632C632.212 171.779 632.461 171.969 632.696 172.204C632.93 172.409 633.077 172.688 633.136 173.04C633.194 173.363 633.062 173.788 632.74 174.316C632.681 174.433 632.593 174.653 632.476 174.976C632.358 175.269 632.27 175.519 632.212 175.724C632.036 175.929 631.816 176.267 631.552 176.736C631.317 177.176 631.156 177.631 631.068 178.1C630.833 178.599 630.686 178.907 630.628 179.024C630.569 179.141 630.481 179.2 630.364 179.2C630.422 179.493 630.598 179.64 630.892 179.64C631.185 179.611 631.669 179.581 632.344 179.552C632.901 179.493 633.282 179.435 633.488 179.376C633.722 179.288 633.986 179.317 634.28 179.464C634.426 179.669 634.5 179.977 634.5 180.388C634.529 180.769 634.485 181.151 634.368 181.532C634.25 181.884 634.089 182.104 633.884 182.192C633.737 182.192 633.429 182.28 632.96 182.456C632.52 182.603 631.962 182.691 631.288 182.72L628.956 182.94L628.208 184.436C628.002 184.817 627.826 185.169 627.68 185.492C627.533 185.785 627.43 185.961 627.372 186.02C627.372 186.196 627.269 186.46 627.064 186.812C626.888 187.164 626.697 187.545 626.492 187.956C626.316 188.455 626.11 188.909 625.876 189.32C625.67 189.731 625.568 189.936 625.568 189.936C625.45 189.936 625.392 190.024 625.392 190.2C625.538 190.552 625.494 190.816 625.26 190.992C625.113 191.08 624.981 191.212 624.864 191.388C624.776 191.535 624.732 191.608 624.732 191.608C624.849 191.725 624.864 191.872 624.776 192.048C624.717 192.224 624.629 192.415 624.512 192.62C624.512 192.855 624.438 193.192 624.292 193.632C624.174 194.072 624.042 194.483 623.896 194.864C623.925 195.392 623.954 195.729 623.984 195.876C624.013 196.023 624.086 196.081 624.204 196.052C624.35 196.081 624.556 196.081 624.82 196.052C625.084 196.023 625.274 196.008 625.392 196.008C625.832 195.803 625.626 196.829 624.776 199.088C624.306 199.821 623.837 200.423 623.368 200.892C622.898 201.391 622.59 201.64 622.444 201.64ZM637.802 197.548C637.685 197.548 637.435 197.46 637.054 197.284C636.673 197.108 636.482 197.02 636.482 197.02C636.482 196.903 636.438 196.756 636.35 196.58C636.291 196.404 636.262 196.257 636.262 196.14C636.057 196.023 635.851 195.832 635.646 195.568C635.441 195.304 635.397 195.011 635.514 194.688C635.69 194.365 635.925 193.881 636.218 193.236C636.541 192.561 636.878 191.813 637.23 190.992C637.611 190.141 637.963 189.32 638.286 188.528C638.609 187.736 638.887 187.061 639.122 186.504C639.357 185.917 639.489 185.565 639.518 185.448C639.518 185.331 639.533 185.125 639.562 184.832C639.621 184.539 639.811 184.289 640.134 184.084C640.515 183.82 640.911 183.805 641.322 184.04C641.733 184.275 642.085 184.685 642.378 185.272C642.671 185.829 642.818 186.489 642.818 187.252C642.818 187.457 642.671 187.985 642.378 188.836C642.085 189.657 641.689 190.64 641.19 191.784C640.721 192.928 640.193 194.087 639.606 195.26C639.166 196.111 638.829 196.712 638.594 197.064C638.389 197.387 638.125 197.548 637.802 197.548ZM643.786 180.696C643.434 180.696 643.009 180.535 642.51 180.212C642.041 179.889 641.615 179.479 641.234 178.98C640.853 178.481 640.662 177.953 640.662 177.396C640.662 177.249 640.794 176.985 641.058 176.604C641.322 176.193 641.571 175.797 641.806 175.416C642.07 175.035 642.202 174.815 642.202 174.756C642.437 174.756 642.715 174.8 643.038 174.888C643.361 174.976 643.625 175.079 643.83 175.196C644.153 175.929 644.578 176.56 645.106 177.088C645.634 177.587 645.898 178.159 645.898 178.804C645.898 179.449 645.737 179.933 645.414 180.256C645.091 180.549 644.549 180.696 643.786 180.696ZM651.587 198.692C651.205 198.692 650.897 198.619 650.663 198.472C650.457 198.325 650.193 198.12 649.871 197.856C649.313 197.269 648.859 196.639 648.507 195.964C648.184 195.289 648.067 194.703 648.155 194.204C648.243 193.969 648.272 193.749 648.243 193.544C648.243 193.309 648.243 193.192 648.243 193.192C648.096 193.045 648.052 192.957 648.111 192.928C648.169 192.869 648.228 192.781 648.287 192.664C648.463 192.664 648.521 192.503 648.463 192.18C648.404 191.945 648.492 191.447 648.727 190.684C648.991 189.892 649.343 189.144 649.783 188.44C649.959 188.147 650.223 187.765 650.575 187.296C650.927 186.797 651.308 186.313 651.719 185.844C652.159 185.345 652.555 184.949 652.907 184.656C653.64 184.04 654.315 183.541 654.931 183.16C655.576 182.779 656.221 182.515 656.867 182.368C657.512 182.221 658.172 182.148 658.847 182.148C659.551 182.148 660.123 182.383 660.563 182.852C661.237 183.145 661.707 183.541 661.971 184.04C662.264 184.539 662.455 185.184 662.543 185.976C662.631 186.856 662.543 187.941 662.279 189.232C662.015 190.493 661.296 191.96 660.123 193.632C659.389 194.688 658.671 195.509 657.967 196.096C657.263 196.683 656.485 197.225 655.635 197.724C655.019 198.135 654.359 198.384 653.655 198.472C652.951 198.56 652.261 198.633 651.587 198.692ZM656.075 193.324C656.72 192.767 657.175 192.151 657.439 191.476C657.732 190.801 658.04 190.009 658.363 189.1C658.48 188.924 658.553 188.631 658.583 188.22C658.641 187.809 658.656 187.413 658.627 187.032C658.597 186.621 658.495 186.387 658.319 186.328C658.055 186.123 657.791 186.079 657.527 186.196C657.263 186.284 656.925 186.475 656.515 186.768C655.635 187.501 654.813 188.352 654.051 189.32C653.317 190.259 652.804 191.417 652.511 192.796C652.423 193.529 652.496 194.087 652.731 194.468C652.995 194.82 653.405 194.923 653.963 194.776C654.549 194.6 655.253 194.116 656.075 193.324ZM683.148 197.944C682.503 197.885 681.96 197.753 681.52 197.548C681.11 197.313 680.772 196.859 680.508 196.184C680.391 195.715 680.332 195.231 680.332 194.732C680.362 194.204 680.406 193.705 680.464 193.236C680.523 192.737 680.552 192.312 680.552 191.96C680.552 191.901 680.552 191.784 680.552 191.608C680.552 191.432 680.552 191.271 680.552 191.124C680.494 190.684 680.376 190.42 680.2 190.332C680.054 190.215 679.79 190.229 679.408 190.376C678.792 190.669 678.118 191.065 677.384 191.564C676.68 192.033 675.932 192.591 675.14 193.236C674.378 193.852 673.586 194.512 672.764 195.216C672.119 195.92 671.635 196.492 671.312 196.932C671.019 197.372 670.711 197.592 670.388 197.592C670.154 197.709 669.904 197.68 669.64 197.504C669.376 197.328 669.098 197.123 668.804 196.888C668.599 196.653 668.35 196.36 668.056 196.008C667.792 195.627 667.631 195.377 667.572 195.26C667.572 194.791 667.602 194.365 667.66 193.984C667.748 193.603 667.866 193.207 668.012 192.796C668.188 192.385 668.394 191.916 668.628 191.388C668.746 191.183 668.848 190.977 668.936 190.772C669.054 190.537 669.186 190.288 669.332 190.024C669.45 189.613 669.611 189.144 669.816 188.616C670.051 188.088 670.271 187.589 670.476 187.12C670.799 186.357 671.048 185.697 671.224 185.14C671.4 184.583 671.547 183.981 671.664 183.336C671.635 183.277 671.65 183.189 671.708 183.072C671.767 182.955 671.855 182.881 671.972 182.852H672.016H672.06C672.266 182.705 672.647 182.691 673.204 182.808C673.791 182.896 674.231 183.057 674.524 183.292C675.14 183.82 675.434 184.509 675.404 185.36C675.375 186.211 674.935 187.325 674.084 188.704C673.879 189.173 673.659 189.613 673.424 190.024C673.219 190.405 673.116 190.669 673.116 190.816C673.116 190.816 673.234 190.728 673.468 190.552C673.703 190.376 673.982 190.171 674.304 189.936C674.627 189.672 674.906 189.467 675.14 189.32C675.287 189.173 675.61 188.909 676.108 188.528C676.607 188.117 677.15 187.692 677.736 187.252C678.323 186.812 678.792 186.475 679.144 186.24C679.467 186.005 679.878 185.771 680.376 185.536C680.875 185.272 681.183 185.14 681.3 185.14C681.594 185.14 681.946 185.243 682.356 185.448C682.796 185.653 683.192 185.903 683.544 186.196C683.926 186.46 684.146 186.709 684.204 186.944C684.204 187.061 684.19 187.223 684.16 187.428C684.131 187.604 684.116 187.765 684.116 187.912C684.087 188.381 684.072 188.953 684.072 189.628C684.102 190.273 684.116 190.933 684.116 191.608C684.116 192.253 684.058 192.84 683.94 193.368C683.94 193.368 683.955 193.397 683.984 193.456C684.014 193.485 684.043 193.544 684.072 193.632C684.043 193.661 684.028 193.72 684.028 193.808C684.058 193.867 684.072 193.896 684.072 193.896C684.131 194.101 684.19 194.307 684.248 194.512C684.336 194.717 684.439 194.952 684.556 195.216C684.674 195.451 684.806 195.759 684.952 196.14C684.923 196.521 684.703 196.903 684.292 197.284C683.911 197.636 683.53 197.856 683.148 197.944ZM698.24 190.948C697.77 190.889 697.433 190.699 697.228 190.376C697.022 190.024 696.92 189.672 696.92 189.32C696.92 189.261 696.89 189.085 696.832 188.792C696.773 188.499 696.773 188.235 696.832 188C696.832 187.824 696.92 187.545 697.096 187.164C697.272 186.783 697.462 186.328 697.668 185.8C697.99 185.213 698.489 184.553 699.164 183.82C699.838 183.087 700.41 182.544 700.88 182.192C701.144 181.987 701.334 181.855 701.452 181.796C701.569 181.708 701.628 181.664 701.628 181.664C701.628 181.547 701.833 181.327 702.244 181.004C702.654 180.652 703.006 180.417 703.3 180.3C703.3 180.3 703.49 180.168 703.872 179.904C704.253 179.64 704.546 179.405 704.752 179.2C705.426 178.525 705.925 177.909 706.248 177.352C706.57 176.765 706.82 176.105 706.996 175.372C707.172 174.639 707.362 173.729 707.568 172.644C707.597 171.617 707.553 170.987 707.436 170.752C707.318 170.488 707.084 170.224 706.732 169.96C705.998 169.813 705.28 169.843 704.576 170.048C703.901 170.224 703.27 170.591 702.684 171.148C702.126 171.676 701.628 172.439 701.188 173.436C701.012 173.935 700.909 174.272 700.88 174.448C700.88 174.624 700.924 174.859 701.012 175.152C701.012 175.387 701.041 175.665 701.1 175.988C701.188 176.311 701.232 176.545 701.232 176.692C701.114 176.721 700.88 176.795 700.528 176.912C700.176 177 699.794 177.044 699.384 177.044C699.002 177.015 698.636 176.839 698.284 176.516C698.284 176.516 698.166 176.369 697.932 176.076C697.697 175.783 697.55 175.577 697.492 175.46C697.316 175.225 697.228 175.005 697.228 174.8C697.257 174.565 697.272 174.228 697.272 173.788C697.477 173.201 697.756 172.541 698.108 171.808C698.46 171.075 698.914 170.371 699.472 169.696C700.029 169.021 700.674 168.493 701.408 168.112C702.024 167.848 702.596 167.569 703.124 167.276C703.681 166.953 703.96 166.792 703.96 166.792C703.96 166.792 704.062 166.792 704.268 166.792C704.502 166.763 704.884 166.719 705.412 166.66C705.588 166.689 705.778 166.689 705.984 166.66C706.218 166.631 706.336 166.689 706.336 166.836C706.424 166.836 706.6 166.836 706.864 166.836C707.128 166.836 707.377 166.836 707.612 166.836C707.964 166.924 708.389 167.115 708.888 167.408C709.386 167.672 709.856 167.965 710.296 168.288C710.736 168.611 711.058 168.889 711.264 169.124C711.469 169.769 711.557 170.576 711.528 171.544C711.498 172.483 711.352 173.48 711.088 174.536C710.824 175.592 710.472 176.604 710.032 177.572C709.621 178.511 709.122 179.303 708.536 179.948C708.36 180.124 708.037 180.417 707.568 180.828C707.098 181.239 706.6 181.693 706.072 182.192C705.573 182.661 705.162 183.072 704.84 183.424C703.842 183.981 702.962 184.817 702.2 185.932C701.437 187.047 700.865 188.132 700.484 189.188C700.161 189.892 699.809 190.361 699.428 190.596C699.046 190.831 698.65 190.948 698.24 190.948ZM697.228 198.736C696.612 198.971 696.098 199.073 695.688 199.044C695.277 199.044 694.822 198.853 694.324 198.472C693.737 197.885 693.546 197.299 693.752 196.712C693.957 196.096 694.47 195.509 695.292 194.952C695.878 194.571 696.304 194.38 696.568 194.38C696.861 194.351 697.301 194.453 697.888 194.688C698.856 195.304 699.281 195.993 699.164 196.756C699.046 197.489 698.401 198.149 697.228 198.736Z" fill="#B8C318"/>
</svg>
