<svg width="900" height="250" viewBox="0 0 900 250" fill="none" xmlns="http://www.w3.org/2000/svg">
<rect y="30" width="900" height="220" rx="60" fill="#E0E772"/>
<rect x="5.5" y="5.5" width="889" height="209" rx="54.5" fill="#FDFDFB" stroke="#B8C318" stroke-width="11"/>
<rect width="555" height="172" transform="translate(172 24)" fill="#FDFDFB"/>
<path d="M301.06 66.26V63.26H273.58V66.26H301.06ZM301.06 74V70.94H273.58V74H301.06ZM308.32 58.22V79.04H266.68V58.22H308.32ZM291.76 98.66V104.48C293.32 104.6 294.94 104.66 296.56 104.66C299.92 104.66 311.44 104.66 315.7 104.48C314.74 106.1 313.66 109.22 313.3 111.26H296.2C285.22 111.26 277.78 109.76 272.74 102.8C270.58 106.76 267.82 109.94 264.34 112.34C263.32 111.02 260.56 108.38 258.94 107.36C265.06 103.58 268.72 97.22 270.1 89.18L277.24 90.26C276.82 92.18 276.34 93.98 275.86 95.72C277.72 99.8 280.66 102.02 284.5 103.22V87.98H261.1V81.68H314.02V87.98H291.76V92.48H310.24V98.66H291.76ZM346.72 91.4L341.98 93.2C341.8 92.42 341.56 91.58 341.32 90.62C329.86 92.42 327.7 93.02 326.38 93.68C326.08 92.42 325.06 89.42 324.34 87.68C325.78 87.32 327.1 86 328.96 83.66C329.74 82.82 331.12 80.96 332.74 78.56C328.18 79.16 326.86 79.46 325.96 79.88C325.6 78.56 324.58 75.56 323.92 73.88C325 73.58 325.9 72.44 327.04 70.7C328.18 69.02 331.66 62.48 333.52 56.24L339.82 58.7C337.84 63.56 335.14 68.78 332.32 72.98L336.46 72.68C337.96 70.1 339.46 67.16 340.72 64.34L346.36 67.82C342.88 74.24 338.5 80.78 333.94 86.3L339.76 85.52C339.28 83.9 338.74 82.34 338.2 80.9L342.64 79.52C344.2 83.3 345.94 88.34 346.72 91.4ZM357.46 92.06L352.54 95.66C351.34 93.56 348.7 90.2 346.54 87.74L351.22 84.56C353.38 86.78 356.14 89.96 357.46 92.06ZM326.08 95.6L331.42 96.68C330.94 101.48 329.86 107.18 329.08 110.72C327.76 110.06 325.18 109.52 323.86 109.22C324.82 105.62 325.6 100.22 326.08 95.6ZM332.62 96.38L337.48 95.18C338.26 99.08 338.92 104.12 339.1 107.54L333.94 108.86C333.88 105.38 333.28 100.28 332.62 96.38ZM355.96 95.36L358.12 100.58C354.64 103.1 350.68 105.68 347.44 107.78L345.4 104.9L342.16 106.1C341.62 103.1 340.24 98.42 339.04 94.94L343.54 93.38C344.5 95.96 345.52 98.9 346.24 101.48C349.06 99.8 352.48 97.58 355.96 95.36ZM356.26 69.2H366.52L367.18 65.78H357.1L356.26 69.2ZM380.26 83.78H365.98V105.44C365.98 108.56 365.44 110.18 363.34 111.14C361.36 112.16 358.6 112.28 354.88 112.22C354.64 110.48 353.68 107.9 352.84 106.16C355.18 106.22 357.64 106.22 358.42 106.22C359.2 106.22 359.38 106.04 359.38 105.32V83.78H345.04V77.54H364.72L365.38 74.6H347.92C349.48 69.8 351.4 62.06 352.6 56.18L359.26 56.84C359.02 57.92 358.72 59.12 358.42 60.38H368.74L369.82 60.14L374.68 60.8C373.9 66.08 372.64 72.26 371.44 77.54H380.26V83.78ZM371.56 95.12L367.36 92C369.46 89.96 372.46 86.6 374.08 84.26L379.18 87.74C376.66 90.44 373.84 93.26 371.56 95.12ZM366.64 99.8L370.3 95.36C373.6 97.64 378.22 100.88 380.5 103.04L376.66 108.02C374.56 105.8 369.94 102.26 366.64 99.8ZM429.16 79.16H403.72V87.86H429.16V79.16ZM403.72 102.26H443.38V109.22H390.94V102.26H396.34V65.96H391.42V59.12H441.28V65.96H403.72V72.2H436.54V94.82H403.72V102.26ZM477.22 56.24H485.44C485.38 58.76 485.26 62 485.02 65.6C485.86 73.7 489.52 96.32 510.46 105.56C508.24 107.3 506.2 109.7 505.24 111.74C491.92 105.38 485.26 93.68 481.78 83.36C478.48 93.92 472.18 104.78 459.7 112.1C458.44 110.18 456.16 107.9 453.76 106.28C478.12 93.26 476.98 66.38 477.22 56.24ZM537.46 63.62L533.08 69.26C530.8 67.22 525.64 63.98 522.16 61.76L526.3 56.78C529.78 58.7 534.94 61.76 537.46 63.62ZM533.92 79.1L529.96 85.04C527.56 83.3 522.52 80.48 518.98 78.62L522.82 73.34C526.06 74.9 531.34 77.42 533.92 79.1ZM527.02 111.56L521.02 106.7C524.26 102.2 528.76 94.76 532.3 87.8L537.58 92.6C534.46 98.84 530.68 105.74 527.02 111.56ZM564.1 95.48H547V103.16H564.1V95.48ZM539.86 112.16V89.12H571.54V111.74H564.1V109.46H547V112.16H539.86ZM559 78.92H574.6V85.34H535.42V78.92H551.74V72.2H544.18C542.98 74.72 541.66 76.94 540.28 78.74C538.9 77.6 535.9 75.74 534.22 74.96C537.46 71.06 540.16 64.88 541.66 59L548.62 60.62C548.14 62.42 547.54 64.16 546.88 65.9H551.74V56.96H559V65.9H572.44V72.2H559V78.92ZM598.72 78.8V85.34H624.34V78.8H598.72ZM624.22 104.78H630.16C632.2 104.78 632.5 103.7 632.74 96.68C634.3 97.82 637.36 98.96 639.34 99.44C638.62 109.04 636.7 111.5 630.82 111.5H623.14C616.12 111.5 614.38 109.34 614.38 102.62V91.64H607.54C606.28 101.72 603.1 108.62 587.44 112.34C586.72 110.36 584.8 107.3 583.24 105.68C596.62 103.16 598.9 98.66 599.86 91.64H591.82V72.56H607.66V67.76H585.52V61.28H607.66V56.18H614.92V61.28H637.72V67.76H614.92V72.56H631.72V91.64H621.7V102.56C621.7 104.54 622.06 104.78 624.22 104.78Z" fill="#594A39"/>
<path d="M180.045 170.804C179.84 170.481 179.488 170.276 178.989 170.188C178.49 170.1 177.728 170.085 176.701 170.144C176.29 170.203 175.865 170.173 175.425 170.056C174.985 169.939 174.633 169.763 174.369 169.528C174.105 169.293 174.002 169.059 174.061 168.824C174.09 168.472 174.501 168.091 175.293 167.68C176.085 167.269 177.112 167.049 178.373 167.02L180.221 166.976L180.661 166.096C180.778 165.773 180.866 165.421 180.925 165.04C181.013 164.659 181.16 164.131 181.365 163.456C181.482 163.045 181.658 162.473 181.893 161.74C182.128 161.007 182.377 160.229 182.641 159.408C182.905 158.557 183.14 157.795 183.345 157.12C183.55 156.445 183.682 155.976 183.741 155.712C183.858 155.448 184.02 155.008 184.225 154.392C184.43 153.747 184.621 153.101 184.797 152.456C185.002 151.781 185.134 151.297 185.193 151.004C185.956 148.687 186.454 147.073 186.689 146.164C186.924 145.225 186.982 144.741 186.865 144.712C186.748 144.712 186.469 144.727 186.029 144.756C185.589 144.785 185.105 144.829 184.577 144.888C184.049 144.917 183.58 144.961 183.169 145.02C182.758 145.079 182.509 145.137 182.421 145.196C182.274 145.401 182.025 145.372 181.673 145.108C181.321 144.815 181.101 144.521 181.013 144.228C180.984 143.964 180.984 143.715 181.013 143.48C181.042 143.245 181.13 143.084 181.277 142.996C181.482 142.82 181.908 142.629 182.553 142.424C183.198 142.189 183.917 141.984 184.709 141.808C185.53 141.632 186.278 141.5 186.953 141.412C187.452 141.353 187.95 141.251 188.449 141.104C188.948 140.928 189.344 140.723 189.637 140.488C189.901 140.4 190.15 140.327 190.385 140.268C190.649 140.209 190.913 140.195 191.177 140.224C191.412 140.371 191.808 140.444 192.365 140.444C192.952 140.444 193.568 140.429 194.213 140.4C195.856 140.253 197 140.312 197.645 140.576C198.32 140.811 198.76 141.133 198.965 141.544C199.112 142.101 199.082 142.571 198.877 142.952C198.672 143.304 198.32 143.465 197.821 143.436C197.557 143.495 197.19 143.553 196.721 143.612C196.252 143.641 195.636 143.671 194.873 143.7C192.937 143.876 191.896 144.081 191.749 144.316C191.632 144.433 191.529 144.551 191.441 144.668C191.382 144.785 191.294 144.917 191.177 145.064C191.206 145.181 191.133 145.533 190.957 146.12C190.81 146.677 190.62 147.279 190.385 147.924C190.268 148.305 190.092 148.848 189.857 149.552C189.622 150.256 189.373 150.989 189.109 151.752C188.874 152.485 188.654 153.16 188.449 153.776C188.244 154.363 188.097 154.759 188.009 154.964C187.892 155.228 187.789 155.521 187.701 155.844C187.642 156.137 187.598 156.357 187.569 156.504C187.158 157.941 186.806 159.144 186.513 160.112C186.249 161.08 186.014 161.931 185.809 162.664C185.604 163.368 185.413 164.057 185.237 164.732C185.061 165.377 184.856 166.111 184.621 166.932C184.621 166.932 184.87 166.917 185.369 166.888C185.868 166.829 186.498 166.771 187.261 166.712C188.64 166.565 189.578 166.477 190.077 166.448C190.576 166.419 190.869 166.463 190.957 166.58C191.045 166.668 191.133 166.844 191.221 167.108C191.808 167.9 191.764 168.56 191.089 169.088C190.444 169.616 189.3 169.865 187.657 169.836C186.132 169.895 185.002 169.939 184.269 169.968C183.565 170.027 183.11 170.1 182.905 170.188C182.7 170.276 182.597 170.423 182.597 170.628C182.626 171.097 182.333 171.376 181.717 171.464C181.13 171.581 180.573 171.361 180.045 170.804ZM201.558 169.044C201.236 168.985 200.884 168.795 200.502 168.472C200.121 168.12 199.769 167.739 199.446 167.328C199.153 166.888 198.962 166.521 198.874 166.228C198.874 166.169 198.83 166.096 198.742 166.008C198.684 165.92 198.654 165.876 198.654 165.876C198.537 165.788 198.464 165.407 198.434 164.732C198.434 164.028 198.478 163.251 198.566 162.4C198.654 161.549 198.757 160.875 198.874 160.376C199.021 159.907 199.241 159.276 199.534 158.484C199.828 157.663 200.077 156.929 200.282 156.284L201.47 153.732L199.71 153.248C199.505 153.189 199.329 153.072 199.182 152.896C199.065 152.72 199.006 152.573 199.006 152.456C199.006 152.221 199.138 151.884 199.402 151.444C199.666 151.004 199.857 150.784 199.974 150.784C200.121 150.813 200.385 150.828 200.766 150.828C201.177 150.828 201.573 150.813 201.954 150.784C202.336 150.755 202.57 150.725 202.658 150.696C202.776 150.637 202.893 150.564 203.01 150.476C203.128 150.359 203.216 150.197 203.274 149.992C203.421 149.669 203.553 149.42 203.67 149.244C203.788 149.068 203.949 148.804 204.154 148.452C204.36 148.071 204.521 147.748 204.638 147.484C204.785 147.22 205.005 146.853 205.298 146.384C205.445 146.179 205.606 145.929 205.782 145.636C205.958 145.343 206.178 145.093 206.442 144.888C206.706 144.653 207.132 144.492 207.718 144.404C208.334 144.287 208.862 144.419 209.302 144.8C209.537 145.093 209.669 145.372 209.698 145.636C209.728 145.9 209.61 146.237 209.346 146.648C209.112 147.147 208.833 147.601 208.51 148.012C208.217 148.393 207.938 148.833 207.674 149.332C207.205 149.977 207.117 150.344 207.41 150.432C207.704 150.52 208.525 150.461 209.874 150.256C210.725 150.109 211.341 150.197 211.722 150.52C212.104 150.843 212.324 151.253 212.382 151.752C212.47 152.456 212.397 152.881 212.162 153.028C211.928 153.175 211.253 153.248 210.138 153.248C209.434 153.365 208.833 153.439 208.334 153.468C207.836 153.468 207.469 153.468 207.234 153.468C206.853 153.497 206.604 153.512 206.486 153.512C206.369 153.512 206.193 153.541 205.958 153.6C205.724 153.659 205.548 153.761 205.43 153.908C205.342 154.025 205.24 154.201 205.122 154.436C205.005 154.553 204.829 154.861 204.594 155.36C204.36 155.859 204.066 156.401 203.714 156.988C203.304 158.22 202.952 159.408 202.658 160.552C202.394 161.667 202.16 162.781 201.954 163.896C201.866 164.453 201.881 164.864 201.998 165.128C202.145 165.363 202.526 165.509 203.142 165.568C203.465 165.597 203.934 165.597 204.55 165.568C205.166 165.509 205.68 165.421 206.09 165.304C206.413 165.157 206.75 165.011 207.102 164.864C207.454 164.688 207.777 164.512 208.07 164.336C208.334 164.189 208.598 164.043 208.862 163.896C209.126 163.72 209.258 163.632 209.258 163.632C209.405 163.397 209.61 163.441 209.874 163.764C210.168 164.057 210.373 164.38 210.49 164.732C210.49 165.084 210.417 165.509 210.27 166.008C210.124 166.477 209.581 166.976 208.642 167.504C207.322 168.325 206.002 168.824 204.682 169C203.362 169.176 202.321 169.191 201.558 169.044ZM220.833 150.036C220.364 150.124 219.982 150.139 219.689 150.08C219.425 149.992 219.19 149.86 218.985 149.684C218.897 149.361 218.926 149.039 219.073 148.716C219.22 148.364 219.366 148.085 219.513 147.88C219.865 147.293 220.261 146.604 220.701 145.812C221.17 144.991 221.478 144.36 221.625 143.92C221.684 143.597 221.772 143.187 221.889 142.688C222.036 142.16 222.109 141.617 222.109 141.06C222.109 140.913 222.138 140.679 222.197 140.356C222.285 140.033 222.402 139.74 222.549 139.476C222.696 139.212 222.842 139.124 222.989 139.212C223.253 139.329 223.59 139.491 224.001 139.696C224.412 139.901 224.764 140.136 225.057 140.4C225.38 140.664 225.512 140.957 225.453 141.28C225.394 141.984 225.233 142.747 224.969 143.568C224.705 144.389 224.485 145.093 224.309 145.68C224.133 146.325 223.81 147 223.341 147.704C222.872 148.379 222.388 149.009 221.889 149.596C221.918 149.713 221.83 149.787 221.625 149.816C221.42 149.845 221.156 149.919 220.833 150.036ZM227.529 169.264C226.532 168.853 225.798 168.428 225.329 167.988C224.889 167.519 224.713 167.108 224.801 166.756C224.86 166.58 224.962 166.419 225.109 166.272C225.256 166.125 225.578 166.067 226.077 166.096C226.605 166.096 227.412 166.228 228.497 166.492C228.82 166.492 229.142 166.477 229.465 166.448C229.788 166.419 230.081 166.375 230.345 166.316C230.638 166.257 230.873 166.184 231.049 166.096C231.196 166.037 231.24 165.964 231.181 165.876C231.122 165.759 231.02 165.641 230.873 165.524C230.756 165.377 230.624 165.289 230.477 165.26C230.33 165.201 230.198 165.172 230.081 165.172C230.022 165.025 229.89 164.879 229.685 164.732C229.509 164.585 229.289 164.424 229.025 164.248C228.38 163.72 227.793 163.251 227.265 162.84C226.737 162.429 226.532 162.121 226.649 161.916C226.649 161.799 226.649 161.74 226.649 161.74C226.649 161.711 226.649 161.696 226.649 161.696C226.444 161.696 226.253 161.417 226.077 160.86C225.901 160.273 225.813 159.745 225.813 159.276C225.813 158.689 225.93 158.103 226.165 157.516C226.429 156.929 226.752 156.372 227.133 155.844C227.544 155.316 227.954 154.847 228.365 154.436C228.922 153.908 229.509 153.395 230.125 152.896C230.77 152.368 231.46 151.899 232.193 151.488C232.956 151.077 233.792 150.755 234.701 150.52C235.112 150.432 235.581 150.388 236.109 150.388C236.637 150.388 237.018 150.461 237.253 150.608C237.488 150.461 237.781 150.505 238.133 150.74C238.485 150.945 238.837 151.239 239.189 151.62C239.541 152.001 239.805 152.383 239.981 152.764C239.981 153.116 239.966 153.556 239.937 154.084C239.937 154.583 239.908 155.023 239.849 155.404C239.79 155.785 239.658 155.976 239.453 155.976C239.453 155.976 239.409 155.991 239.321 156.02C239.262 156.02 239.233 156.093 239.233 156.24C239.233 156.533 239.013 156.871 238.573 157.252C238.016 157.633 237.488 157.941 236.989 158.176C236.49 158.411 236.109 158.425 235.845 158.22C235.669 158.103 235.508 157.985 235.361 157.868C235.214 157.751 235.082 157.604 234.965 157.428C234.965 157.428 234.921 157.369 234.833 157.252C234.774 157.105 234.745 156.973 234.745 156.856C234.745 156.739 234.789 156.636 234.877 156.548C234.965 156.431 235.009 156.372 235.009 156.372C235.42 155.991 235.728 155.639 235.933 155.316C236.168 154.993 236.329 154.715 236.417 154.48C236.505 154.216 236.549 154.011 236.549 153.864C236.549 153.688 236.505 153.585 236.417 153.556C236.358 153.497 236.212 153.468 235.977 153.468C235.83 153.468 235.508 153.585 235.009 153.82C234.54 154.055 234.041 154.348 233.513 154.7C232.985 155.023 232.574 155.316 232.281 155.58C232.164 155.785 232.076 155.917 232.017 155.976C231.988 156.035 231.914 156.064 231.797 156.064C231.797 155.947 231.724 155.961 231.577 156.108C231.43 156.255 231.254 156.46 231.049 156.724C230.844 156.988 230.638 157.267 230.433 157.56C230.228 157.853 230.066 158.088 229.949 158.264C229.92 158.528 229.846 158.777 229.729 159.012C229.641 159.217 229.612 159.437 229.641 159.672C229.67 159.965 229.817 160.244 230.081 160.508C230.345 160.772 230.726 161.109 231.225 161.52C232.252 162.283 233.014 162.884 233.513 163.324C234.041 163.764 234.408 164.116 234.613 164.38C234.818 164.644 234.95 164.908 235.009 165.172C235.508 166.081 235.566 166.873 235.185 167.548C234.804 168.193 234.217 168.692 233.425 169.044C233.132 169.191 232.618 169.323 231.885 169.44C231.152 169.587 230.374 169.645 229.553 169.616C228.761 169.616 228.086 169.499 227.529 169.264ZM263.996 169.264C263.586 169.147 263.175 168.941 262.764 168.648C262.354 168.355 261.928 168.017 261.488 167.636C261.136 167.167 260.887 166.741 260.74 166.36C260.594 165.949 260.506 165.48 260.476 164.952C260.476 164.395 260.476 163.691 260.476 162.84C260.476 162.488 260.535 161.989 260.652 161.344C260.799 160.699 260.946 160.024 261.092 159.32C261.268 158.616 261.43 158 261.576 157.472C261.723 156.915 261.811 156.548 261.84 156.372C261.928 155.991 261.782 155.771 261.4 155.712C261.019 155.653 260.594 155.639 260.124 155.668C259.684 155.668 259.391 155.624 259.244 155.536C259.127 155.507 259.068 155.36 259.068 155.096C259.068 154.803 259.068 154.656 259.068 154.656C259.068 154.539 259.01 154.465 258.892 154.436C258.775 154.377 258.672 154.275 258.584 154.128C258.526 154.011 258.599 153.791 258.804 153.468C259.01 153.145 259.274 152.955 259.596 152.896C259.86 152.837 260.256 152.793 260.784 152.764C261.312 152.705 261.84 152.603 262.368 152.456C262.926 152.28 263.351 152.016 263.644 151.664C263.908 151.019 264.202 150.329 264.524 149.596C264.847 148.833 265.155 148.173 265.448 147.616C265.742 147.029 265.947 146.663 266.064 146.516C266.563 146.252 267.076 146.149 267.604 146.208C268.132 146.237 268.543 146.487 268.836 146.956C268.983 147.161 269.1 147.308 269.188 147.396C269.306 147.484 269.35 147.616 269.32 147.792C269.32 147.968 269.203 148.291 268.968 148.76C268.763 149.2 268.411 149.889 267.912 150.828C267.766 151.121 267.634 151.385 267.516 151.62C267.399 151.825 267.34 151.928 267.34 151.928C267.458 151.957 267.634 151.972 267.868 151.972C268.103 151.972 268.396 151.957 268.748 151.928C269.071 151.869 269.423 151.825 269.804 151.796C270.186 151.737 270.523 151.737 270.816 151.796C271.491 151.796 271.99 151.987 272.312 152.368C272.635 152.749 272.811 153.233 272.84 153.82C272.899 154.143 272.782 154.421 272.488 154.656C272.195 154.891 271.652 155.008 270.86 155.008C270.596 155.008 270.215 155.023 269.716 155.052C269.218 155.081 268.704 155.111 268.176 155.14C267.648 155.169 267.194 155.213 266.812 155.272C266.46 155.301 266.284 155.345 266.284 155.404C266.196 155.463 266.05 155.697 265.844 156.108C265.668 156.489 265.478 156.959 265.272 157.516C265.096 158.073 264.935 158.601 264.788 159.1C264.583 160.097 264.436 161.065 264.348 162.004C264.26 162.943 264.246 163.764 264.304 164.468C264.392 165.143 264.568 165.627 264.832 165.92C265.096 166.184 265.492 166.184 266.02 165.92C266.578 165.627 267.091 165.289 267.56 164.908C268.088 164.468 268.543 164.336 268.924 164.512C269.306 164.659 269.54 164.981 269.628 165.48C269.746 165.949 269.614 166.463 269.232 167.02C268.88 167.577 268.382 168.047 267.736 168.428C267.091 168.809 266.431 169.073 265.756 169.22C265.082 169.396 264.495 169.411 263.996 169.264ZM292.203 168.692C291.645 168.839 291.059 168.941 290.443 169C289.856 169.088 289.343 168.912 288.903 168.472C288.639 168.061 288.404 167.695 288.199 167.372C287.993 167.049 287.861 166.477 287.803 165.656C287.773 165.099 287.803 164.497 287.891 163.852C288.008 163.177 288.052 162.693 288.023 162.4C288.257 161.315 288.316 160.537 288.199 160.068C288.111 159.599 287.993 159.364 287.847 159.364C287.524 159.305 287.011 159.54 286.307 160.068C285.632 160.596 284.825 161.344 283.887 162.312C282.977 163.251 281.995 164.321 280.939 165.524C280.381 166.287 279.971 166.859 279.707 167.24C279.472 167.592 279.296 167.768 279.179 167.768C278.651 167.768 278.167 167.68 277.727 167.504C277.287 167.328 276.935 167.079 276.671 166.756C276.407 166.433 276.245 166.096 276.187 165.744C276.187 165.627 276.26 165.319 276.407 164.82C276.553 164.292 276.729 163.691 276.935 163.016C277.14 162.341 277.331 161.711 277.507 161.124C277.712 160.537 277.859 160.127 277.947 159.892C278.211 159.129 278.519 158.205 278.871 157.12C279.252 156.005 279.589 155.023 279.883 154.172C280 153.791 280.205 153.248 280.499 152.544C280.792 151.811 281.085 151.077 281.379 150.344C281.672 149.611 281.877 149.068 281.995 148.716C282.083 148.481 282.244 148.071 282.479 147.484C282.713 146.868 282.963 146.193 283.227 145.46C283.52 144.727 283.784 144.052 284.019 143.436C284.283 142.791 284.459 142.321 284.547 142.028C284.517 141.764 284.532 141.529 284.591 141.324C284.679 141.089 284.767 140.913 284.855 140.796C284.972 140.796 285.104 140.796 285.251 140.796C285.397 140.767 285.471 140.752 285.471 140.752C285.471 140.693 285.661 140.752 286.043 140.928C286.453 141.104 286.849 141.324 287.231 141.588C287.641 141.823 287.847 142.028 287.847 142.204C287.993 142.585 288.008 143.084 287.891 143.7C287.773 144.287 287.465 145.181 286.967 146.384C286.644 146.853 286.321 147.557 285.999 148.496C285.705 149.435 285.412 150.227 285.119 150.872C285.001 151.077 284.825 151.444 284.591 151.972C284.385 152.471 284.136 153.072 283.843 153.776C283.579 154.451 283.315 155.169 283.051 155.932C282.787 156.695 282.552 157.443 282.347 158.176C282.053 158.88 281.951 159.349 282.039 159.584C282.127 159.819 282.479 159.555 283.095 158.792C283.916 157.912 284.679 157.12 285.383 156.416C286.116 155.712 286.791 155.155 287.407 154.744C288.052 154.304 288.624 154.113 289.123 154.172C289.387 154.231 289.724 154.421 290.135 154.744C290.575 155.037 290.985 155.389 291.367 155.8C291.777 156.181 292.041 156.548 292.159 156.9C292.276 157.311 292.349 157.707 292.379 158.088C292.437 158.469 292.452 159.012 292.423 159.716C292.393 160.391 292.32 161.403 292.203 162.752C292.027 163.749 291.909 164.468 291.851 164.908C291.792 165.319 291.807 165.612 291.895 165.788C292.012 165.964 292.188 166.155 292.423 166.36C292.863 166.712 293.039 167.137 292.951 167.636C292.863 168.105 292.613 168.457 292.203 168.692ZM308.742 168.12C307.862 168.619 306.923 168.912 305.926 169C304.958 169.059 304.048 168.927 303.198 168.604C302.347 168.252 301.658 167.739 301.13 167.064C300.836 166.683 300.558 166.081 300.294 165.26C300.03 164.409 299.986 163.265 300.162 161.828C300.338 160.479 300.748 159.115 301.394 157.736C302.068 156.357 302.89 155.14 303.858 154.084C304.826 153.028 305.882 152.309 307.026 151.928C307.436 151.781 307.847 151.679 308.258 151.62C308.698 151.532 309.27 151.517 309.974 151.576C310.648 151.664 311.25 151.84 311.778 152.104C312.306 152.339 312.687 152.603 312.922 152.896C313.391 153.365 313.699 153.82 313.846 154.26C313.992 154.7 314.051 155.125 314.022 155.536C313.875 156.475 313.45 157.487 312.746 158.572C312.071 159.657 311.118 160.464 309.886 160.992C309.387 161.197 308.8 161.329 308.126 161.388C307.451 161.447 306.527 161.359 305.354 161.124C304.65 160.977 304.18 161.051 303.946 161.344C303.74 161.637 303.652 162.209 303.682 163.06C303.74 163.588 303.858 164.057 304.034 164.468C304.239 164.849 304.606 165.113 305.134 165.26C305.808 165.377 306.292 165.392 306.586 165.304C306.879 165.187 307.246 165.025 307.686 164.82C307.92 164.673 308.14 164.512 308.346 164.336C308.58 164.16 308.8 163.984 309.006 163.808C309.24 163.632 309.431 163.5 309.578 163.412C309.724 163.295 309.871 163.221 310.018 163.192C310.164 163.163 310.311 163.148 310.458 163.148C310.78 163.177 311.088 163.353 311.382 163.676C311.675 163.999 311.866 164.307 311.954 164.6C311.954 164.835 311.807 165.172 311.514 165.612C311.22 166.023 310.824 166.463 310.326 166.932C309.856 167.372 309.328 167.768 308.742 168.12ZM308.17 158.308C308.375 158.22 308.668 158.015 309.05 157.692C309.46 157.369 309.827 157.032 310.15 156.68C310.472 156.299 310.634 156.005 310.634 155.8C310.634 155.477 310.414 155.199 309.974 154.964C309.563 154.729 309.02 154.685 308.346 154.832C308.111 154.891 307.832 155.052 307.51 155.316C307.187 155.58 306.864 155.888 306.542 156.24C306.219 156.563 305.94 156.885 305.706 157.208C305.471 157.501 305.31 157.736 305.222 157.912C305.339 158.059 305.574 158.176 305.926 158.264C306.278 158.352 306.659 158.396 307.07 158.396C307.51 158.396 307.876 158.367 308.17 158.308ZM337.657 177.8C336.836 178.123 335.971 178.064 335.061 177.624C334.181 177.213 333.419 176.553 332.773 175.644C332.656 175.468 332.48 175.145 332.245 174.676C332.011 174.236 331.776 173.752 331.541 173.224C331.336 172.696 331.175 172.241 331.057 171.86C330.969 171.479 330.969 171.259 331.057 171.2C331.175 170.877 331.439 170.687 331.849 170.628C332.26 170.569 332.671 170.584 333.081 170.672C333.492 170.789 333.727 170.936 333.785 171.112C333.873 171.317 333.961 171.523 334.049 171.728C334.137 171.963 334.24 172.168 334.357 172.344C334.504 172.549 334.636 172.725 334.753 172.872C335.076 173.371 335.428 173.708 335.809 173.884C336.191 174.089 336.484 174.119 336.689 173.972C337.188 173.591 337.555 173.136 337.789 172.608C338.053 172.109 338.391 171.215 338.801 169.924C339.124 168.839 339.403 167.9 339.637 167.108C339.872 166.316 340.121 165.583 340.385 164.908C340.473 164.556 340.576 164.263 340.693 164.028C340.84 163.764 340.972 163.573 341.089 163.456H341.353C340.708 163.867 340.165 164.277 339.725 164.688C339.285 165.099 338.684 165.465 337.921 165.788C337.745 165.993 337.305 166.125 336.601 166.184C335.927 166.213 335.267 166.125 334.621 165.92C334.211 165.685 333.873 165.451 333.609 165.216C333.375 164.952 333.169 164.659 332.993 164.336C332.847 164.013 332.685 163.632 332.509 163.192C332.304 162.752 332.275 162.033 332.421 161.036C332.568 160.039 332.832 159.041 333.213 158.044C333.565 157.311 334.079 156.519 334.753 155.668C335.428 154.817 336.147 154.055 336.909 153.38C337.672 152.676 338.361 152.236 338.977 152.06C339.212 151.943 339.623 151.811 340.209 151.664C340.796 151.488 341.353 151.473 341.881 151.62C342.38 151.679 342.761 151.796 343.025 151.972C343.289 152.119 343.715 152.441 344.301 152.94C344.683 153.321 345.152 153.82 345.709 154.436C346.267 155.023 346.619 155.521 346.765 155.932C346.971 156.372 347.015 156.856 346.897 157.384C346.78 157.883 346.575 158.323 346.281 158.704C346.017 159.085 345.739 159.467 345.445 159.848C345.152 160.229 344.932 160.757 344.785 161.432C344.639 162.312 344.36 163.309 343.949 164.424C343.539 165.509 343.216 166.521 342.981 167.46L342.277 170.188C341.544 172.681 340.737 174.485 339.857 175.6C338.977 176.744 338.244 177.477 337.657 177.8ZM336.733 162.664C337.32 162.635 337.819 162.576 338.229 162.488C338.669 162.371 339.08 162.136 339.461 161.784C339.843 161.403 340.283 160.831 340.781 160.068C341.28 159.364 341.632 158.719 341.837 158.132C342.043 157.545 342.116 156.885 342.057 156.152C342.028 155.683 341.896 155.375 341.661 155.228C341.427 155.081 341.119 155.037 340.737 155.096C340.18 155.184 339.681 155.419 339.241 155.8C338.801 156.152 338.288 156.709 337.701 157.472C337.261 158.059 336.895 158.763 336.601 159.584C336.308 160.464 336.176 161.168 336.205 161.696C336.264 162.224 336.44 162.547 336.733 162.664ZM355.709 168.076C355.621 168.105 355.43 168.091 355.137 168.032C354.873 167.973 354.594 167.9 354.301 167.812C354.037 167.724 353.875 167.651 353.817 167.592C353.699 167.475 353.538 167.269 353.333 166.976C353.127 166.653 353.01 166.228 352.981 165.7C352.981 165.172 353.23 164.541 353.729 163.808C353.875 163.515 354.051 163.075 354.257 162.488C354.462 161.901 354.667 161.285 354.873 160.64C355.107 159.965 355.313 159.364 355.489 158.836C355.694 158.308 355.841 157.941 355.929 157.736C355.987 157.237 355.958 156.885 355.841 156.68C355.753 156.445 355.503 156.313 355.093 156.284C354.799 156.284 354.565 156.181 354.389 155.976C354.242 155.771 354.169 155.404 354.169 154.876C354.227 154.465 354.33 154.113 354.477 153.82C354.653 153.497 354.887 153.233 355.181 153.028C355.474 152.881 355.841 152.779 356.281 152.72C356.75 152.661 357.205 152.647 357.645 152.676C358.085 152.705 358.393 152.808 358.569 152.984C358.774 153.101 358.935 153.365 359.053 153.776C359.199 154.157 359.317 154.553 359.405 154.964C359.493 155.375 359.551 155.683 359.581 155.888C359.874 155.653 360.197 155.331 360.549 154.92C360.93 154.48 361.311 154.069 361.693 153.688C362.162 153.365 362.719 153.043 363.365 152.72C364.01 152.368 364.479 152.192 364.773 152.192C365.095 152.192 365.491 152.353 365.961 152.676C366.43 152.969 366.723 153.233 366.841 153.468C367.134 153.967 367.339 154.495 367.457 155.052C367.603 155.58 367.515 156.049 367.193 156.46C366.899 156.841 366.489 157.223 365.961 157.604C365.433 157.956 364.773 158.059 363.981 157.912C363.805 157.853 363.614 157.633 363.409 157.252C363.233 156.871 363.13 156.592 363.101 156.416C363.101 156.328 362.969 156.416 362.705 156.68C362.47 156.915 362.177 157.208 361.825 157.56C361.502 157.912 361.194 158.235 360.901 158.528C360.402 159.144 359.874 159.98 359.317 161.036C358.759 162.092 358.099 163.368 357.337 164.864C356.985 165.597 356.691 166.301 356.457 166.976C356.222 167.621 355.973 167.988 355.709 168.076ZM376.008 169.792C374.395 169.792 373.148 169.323 372.268 168.384C371.417 167.445 370.992 166.008 370.992 164.072C370.992 163.016 371.183 161.857 371.564 160.596C371.975 159.335 372.503 158.103 373.148 156.9C373.823 155.697 374.556 154.656 375.348 153.776C376.14 152.867 376.932 152.236 377.724 151.884C378.017 151.737 378.325 151.635 378.648 151.576C379 151.488 379.337 151.444 379.66 151.444C380.012 151.444 380.393 151.473 380.804 151.532C381.244 151.561 381.655 151.649 382.036 151.796C382.711 152.001 383.297 152.397 383.796 152.984C384.324 153.571 384.588 154.421 384.588 155.536C384.588 155.829 384.559 156.152 384.5 156.504C384.441 156.827 384.339 157.149 384.192 157.472C383.811 158.44 383.224 159.364 382.432 160.244C381.669 161.124 380.863 161.74 380.012 162.092C379.777 162.209 379.543 162.297 379.308 162.356C379.103 162.385 378.883 162.4 378.648 162.4C378.032 162.4 377.475 162.312 376.976 162.136C376.507 161.96 376.067 161.725 375.656 161.432L375.304 161.124L375.084 161.564C374.879 162.121 374.732 162.591 374.644 162.972C374.585 163.353 374.556 163.632 374.556 163.808C374.556 164.16 374.571 164.527 374.6 164.908C374.629 165.26 374.717 165.553 374.864 165.788C374.981 165.935 375.128 166.052 375.304 166.14C375.509 166.228 375.759 166.272 376.052 166.272C376.228 166.272 376.389 166.272 376.536 166.272C376.712 166.243 376.859 166.213 376.976 166.184C377.504 166.067 377.929 165.876 378.252 165.612C378.604 165.319 378.971 165.069 379.352 164.864L379.528 164.776L379.484 164.644C379.983 164.38 380.32 164.219 380.496 164.16C380.672 164.072 380.804 163.999 380.892 163.94C381.009 163.823 381.141 163.764 381.288 163.764C381.699 163.705 382.095 163.823 382.476 164.116C382.887 164.38 383.092 164.717 383.092 165.128C383.092 165.304 382.96 165.583 382.696 165.964C382.461 166.345 382.153 166.727 381.772 167.108C381.42 167.46 381.053 167.739 380.672 167.944C380.584 167.973 380.496 168.017 380.408 168.076C380.32 168.105 380.232 168.149 380.144 168.208H380.188C379.924 168.56 379.66 168.736 379.396 168.736H379.044C378.927 168.941 378.545 169.161 377.9 169.396C377.255 169.66 376.624 169.792 376.008 169.792ZM378.296 159.188C378.56 159.188 378.795 159.144 379 159.056C379.235 158.968 379.455 158.865 379.66 158.748C380.364 158.249 380.819 157.604 381.024 156.812C381.229 156.02 381.156 155.419 380.804 155.008C380.745 154.92 380.672 154.861 380.584 154.832C380.496 154.773 380.393 154.744 380.276 154.744C379.953 154.744 379.587 154.847 379.176 155.052C378.795 155.257 378.413 155.551 378.032 155.932C377.651 156.313 377.299 156.768 376.976 157.296L376.404 158.22C376.463 158.191 376.507 158.176 376.536 158.176C376.595 158.147 376.639 158.132 376.668 158.132C376.932 158.132 377.108 158.22 377.196 158.396C377.284 158.572 377.387 158.748 377.504 158.924C377.651 159.1 377.915 159.188 378.296 159.188ZM392.727 168.604C391.583 168.135 390.791 167.372 390.351 166.316C389.911 165.26 389.794 163.852 389.999 162.092C390.058 161.183 390.029 160.581 389.911 160.288C389.794 159.965 389.574 159.657 389.251 159.364C389.163 159.247 388.958 159.056 388.635 158.792C388.313 158.499 388.166 158.279 388.195 158.132C388.166 157.927 388.21 157.677 388.327 157.384C388.445 157.061 388.547 156.885 388.635 156.856C388.841 156.768 389.046 156.665 389.251 156.548C389.486 156.431 389.662 156.401 389.779 156.46C389.897 156.46 390.073 156.533 390.307 156.68C390.571 156.827 390.703 156.959 390.703 157.076C390.821 157.281 390.997 157.193 391.231 156.812C391.495 156.431 391.774 155.947 392.067 155.36C392.361 154.891 392.727 154.451 393.167 154.04C393.607 153.629 394.047 153.263 394.487 152.94C394.957 152.588 395.353 152.324 395.675 152.148C395.822 152.089 396.101 152.001 396.511 151.884C396.951 151.767 397.406 151.679 397.875 151.62C398.345 151.532 398.697 151.503 398.931 151.532C399.459 151.561 400.017 151.781 400.603 152.192C401.19 152.603 401.645 152.984 401.967 153.336C402.349 153.6 402.598 154.011 402.715 154.568C402.862 155.096 402.921 155.653 402.891 156.24C402.862 156.827 402.745 157.325 402.539 157.736C402.451 158.029 402.143 158.44 401.615 158.968C401.087 159.496 400.501 160.009 399.855 160.508C399.239 160.977 398.711 161.3 398.271 161.476C397.89 161.564 397.435 161.637 396.907 161.696C396.379 161.725 395.881 161.725 395.411 161.696C394.971 161.637 394.663 161.564 394.487 161.476C394.282 161.359 394.106 161.403 393.959 161.608C393.842 161.784 393.739 162.283 393.651 163.104C393.622 163.427 393.622 163.705 393.651 163.94C393.71 164.175 393.769 164.351 393.827 164.468C394.033 164.82 394.238 165.084 394.443 165.26C394.649 165.407 395.03 165.451 395.587 165.392C396.145 165.333 396.702 164.996 397.259 164.38C397.846 163.735 398.374 163.221 398.843 162.84C398.961 162.635 399.21 162.503 399.591 162.444C400.002 162.356 400.486 162.385 401.043 162.532C401.366 162.737 401.513 163.06 401.483 163.5C401.483 163.94 401.249 164.585 400.779 165.436C400.691 165.641 400.442 165.949 400.031 166.36C399.65 166.741 399.225 167.137 398.755 167.548C398.315 167.929 397.949 168.208 397.655 168.384C396.775 168.853 395.91 169.073 395.059 169.044C394.209 169.015 393.431 168.868 392.727 168.604ZM395.983 158.704C396.423 158.587 396.79 158.469 397.083 158.352C397.406 158.235 397.714 158.044 398.007 157.78C398.301 157.516 398.638 157.12 399.019 156.592C399.137 156.269 399.195 155.991 399.195 155.756C399.225 155.521 399.21 155.375 399.151 155.316C398.917 155.081 398.653 155.008 398.359 155.096C398.095 155.155 397.802 155.301 397.479 155.536C397.274 155.624 396.981 155.815 396.599 156.108C396.247 156.372 395.895 156.68 395.543 157.032C395.221 157.355 394.957 157.663 394.751 157.956C394.575 158.22 394.546 158.381 394.663 158.44C394.605 158.557 394.766 158.631 395.147 158.66C395.558 158.689 395.837 158.704 395.983 158.704ZM410.283 167.504C410.165 167.504 409.887 167.401 409.447 167.196C409.007 166.961 408.728 166.785 408.611 166.668C408.405 166.433 408.273 166.184 408.215 165.92C408.156 165.627 408.127 165.069 408.127 164.248C408.127 163.309 408.317 162.253 408.699 161.08C409.08 159.877 409.725 158.279 410.635 156.284L412.439 152.632C412.585 152.427 412.717 152.251 412.835 152.104C412.952 151.928 413.084 151.767 413.231 151.62C413.289 151.62 413.363 151.62 413.451 151.62C413.568 151.62 413.656 151.635 413.715 151.664C413.979 151.693 414.389 151.855 414.947 152.148C415.533 152.441 415.885 152.881 416.003 153.468C416.003 153.849 415.944 154.304 415.827 154.832C415.709 155.331 415.357 155.991 414.771 156.812C414.536 157.105 414.301 157.531 414.067 158.088C413.861 158.645 413.671 159.173 413.495 159.672C413.465 159.731 413.377 159.877 413.231 160.112C413.113 160.317 412.996 160.537 412.879 160.772C412.761 160.977 412.703 161.109 412.703 161.168L412.527 161.564L414.419 159.716C415.739 158.396 416.853 157.457 417.763 156.9C418.672 156.343 419.435 156.108 420.051 156.196C420.696 156.284 421.209 156.651 421.591 157.296C421.796 157.589 421.943 157.912 422.031 158.264C422.119 158.587 422.177 158.968 422.207 159.408C422.236 159.848 422.221 160.405 422.163 161.08V163.588C422.72 163.441 423.145 163.324 423.439 163.236C423.732 163.119 424.025 163.016 424.319 162.928C424.553 162.869 424.788 162.811 425.023 162.752C425.287 162.693 425.609 162.649 425.991 162.62C425.961 163.001 425.8 163.471 425.507 164.028C425.213 164.585 424.847 165.143 424.407 165.7C423.996 166.257 423.541 166.727 423.043 167.108C422.573 167.489 422.133 167.68 421.723 167.68C421.341 167.68 420.901 167.563 420.403 167.328C419.904 167.064 419.479 166.565 419.127 165.832C419.009 165.451 418.892 165.011 418.775 164.512C418.657 164.013 418.599 163.485 418.599 162.928V160.992C418.599 160.816 418.584 160.699 418.555 160.64C418.555 160.552 418.54 160.508 418.511 160.508C418.393 160.508 418.012 160.816 417.367 161.432C416.751 162.048 416.12 162.693 415.475 163.368C414.125 164.776 412.996 165.817 412.087 166.492C411.207 167.167 410.605 167.504 410.283 167.504ZM450.902 177.8C450.081 178.123 449.216 178.064 448.306 177.624C447.426 177.213 446.664 176.553 446.018 175.644C445.901 175.468 445.725 175.145 445.49 174.676C445.256 174.236 445.021 173.752 444.786 173.224C444.581 172.696 444.42 172.241 444.302 171.86C444.214 171.479 444.214 171.259 444.302 171.2C444.42 170.877 444.684 170.687 445.094 170.628C445.505 170.569 445.916 170.584 446.326 170.672C446.737 170.789 446.972 170.936 447.03 171.112C447.118 171.317 447.206 171.523 447.294 171.728C447.382 171.963 447.485 172.168 447.602 172.344C447.749 172.549 447.881 172.725 447.998 172.872C448.321 173.371 448.673 173.708 449.054 173.884C449.436 174.089 449.729 174.119 449.934 173.972C450.433 173.591 450.8 173.136 451.034 172.608C451.298 172.109 451.636 171.215 452.046 169.924C452.369 168.839 452.648 167.9 452.882 167.108C453.117 166.316 453.366 165.583 453.63 164.908C453.718 164.556 453.821 164.263 453.938 164.028C454.085 163.764 454.217 163.573 454.334 163.456H454.598C453.953 163.867 453.41 164.277 452.97 164.688C452.53 165.099 451.929 165.465 451.166 165.788C450.99 165.993 450.55 166.125 449.846 166.184C449.172 166.213 448.512 166.125 447.866 165.92C447.456 165.685 447.118 165.451 446.854 165.216C446.62 164.952 446.414 164.659 446.238 164.336C446.092 164.013 445.93 163.632 445.754 163.192C445.549 162.752 445.52 162.033 445.666 161.036C445.813 160.039 446.077 159.041 446.458 158.044C446.81 157.311 447.324 156.519 447.998 155.668C448.673 154.817 449.392 154.055 450.154 153.38C450.917 152.676 451.606 152.236 452.222 152.06C452.457 151.943 452.868 151.811 453.454 151.664C454.041 151.488 454.598 151.473 455.126 151.62C455.625 151.679 456.006 151.796 456.27 151.972C456.534 152.119 456.96 152.441 457.546 152.94C457.928 153.321 458.397 153.82 458.954 154.436C459.512 155.023 459.864 155.521 460.01 155.932C460.216 156.372 460.26 156.856 460.142 157.384C460.025 157.883 459.82 158.323 459.526 158.704C459.262 159.085 458.984 159.467 458.69 159.848C458.397 160.229 458.177 160.757 458.03 161.432C457.884 162.312 457.605 163.309 457.194 164.424C456.784 165.509 456.461 166.521 456.226 167.46L455.522 170.188C454.789 172.681 453.982 174.485 453.102 175.6C452.222 176.744 451.489 177.477 450.902 177.8ZM449.978 162.664C450.565 162.635 451.064 162.576 451.474 162.488C451.914 162.371 452.325 162.136 452.706 161.784C453.088 161.403 453.528 160.831 454.026 160.068C454.525 159.364 454.877 158.719 455.082 158.132C455.288 157.545 455.361 156.885 455.302 156.152C455.273 155.683 455.141 155.375 454.906 155.228C454.672 155.081 454.364 155.037 453.982 155.096C453.425 155.184 452.926 155.419 452.486 155.8C452.046 156.152 451.533 156.709 450.946 157.472C450.506 158.059 450.14 158.763 449.846 159.584C449.553 160.464 449.421 161.168 449.45 161.696C449.509 162.224 449.685 162.547 449.978 162.664ZM465.995 168.252C465.761 168.017 465.585 167.665 465.467 167.196C465.379 166.727 465.35 166.272 465.379 165.832C465.409 165.363 465.482 165.011 465.599 164.776C465.599 164.541 465.629 164.365 465.687 164.248C465.775 164.101 465.805 163.969 465.775 163.852C465.746 163.735 465.775 163.529 465.863 163.236C465.951 162.943 466.039 162.664 466.127 162.4C466.333 161.931 466.567 161.329 466.831 160.596C467.095 159.833 467.359 159.071 467.623 158.308C467.887 157.516 468.107 156.841 468.283 156.284C468.459 155.697 468.562 155.345 468.591 155.228C468.591 154.876 468.826 154.685 469.295 154.656C469.647 154.539 470.073 154.685 470.571 155.096C471.07 155.507 471.466 155.947 471.759 156.416C471.994 156.651 472.082 156.959 472.023 157.34C471.965 157.721 471.774 158.264 471.451 158.968C471.334 159.203 471.187 159.599 471.011 160.156C470.865 160.684 470.762 161.124 470.703 161.476C470.586 161.711 470.439 162.048 470.263 162.488C470.117 162.899 469.985 163.295 469.867 163.676C469.809 163.823 469.75 164.101 469.691 164.512C469.633 164.893 469.559 165.289 469.471 165.7C469.383 166.111 469.266 166.433 469.119 166.668C468.855 167.871 468.386 168.575 467.711 168.78C467.066 168.985 466.494 168.809 465.995 168.252ZM470.747 150.608C470.425 150.373 470.175 150.095 469.999 149.772C469.853 149.42 469.765 149.112 469.735 148.848C469.735 148.584 469.765 148.423 469.823 148.364C470.117 148.041 470.366 147.616 470.571 147.088C470.806 146.56 471.055 146.076 471.319 145.636C471.378 145.548 471.451 145.431 471.539 145.284C471.657 145.108 471.774 145.005 471.891 144.976C472.243 144.741 472.727 144.756 473.343 145.02C473.989 145.284 474.458 145.651 474.751 146.12C475.015 146.677 475.089 147.249 474.971 147.836C474.883 148.423 474.575 149.039 474.047 149.684C473.607 150.271 473.05 150.652 472.375 150.828C471.701 150.975 471.158 150.901 470.747 150.608ZM481.936 168.384C481.701 168.443 481.393 168.472 481.012 168.472C480.631 168.443 480.293 168.399 480 168.34C479.736 168.252 479.604 168.164 479.604 168.076C479.604 167.929 479.531 167.856 479.384 167.856C479.384 167.856 479.223 167.739 478.9 167.504C478.577 167.24 478.284 167.049 478.02 166.932C477.756 166.521 477.58 166.052 477.492 165.524C477.433 164.967 477.609 163.999 478.02 162.62C478.049 161.681 478.313 160.699 478.812 159.672C479.311 158.616 479.941 157.589 480.704 156.592C481.467 155.595 482.259 154.715 483.08 153.952C483.901 153.16 484.635 152.573 485.28 152.192C485.691 151.781 486.233 151.561 486.908 151.532C487.612 151.503 488.228 151.635 488.756 151.928C489.049 152.075 489.372 152.368 489.724 152.808C490.076 153.248 490.413 153.717 490.736 154.216C491.059 154.685 491.308 155.111 491.484 155.492C491.572 155.815 491.645 156.108 491.704 156.372C491.792 156.607 491.851 156.9 491.88 157.252C491.909 157.604 491.88 158.132 491.792 158.836C491.645 159.364 491.513 159.907 491.396 160.464C491.308 160.992 491.264 161.535 491.264 162.092C491.205 162.649 491.264 163.045 491.44 163.28C491.645 163.515 491.939 163.529 492.32 163.324C492.672 163.148 493.039 163.133 493.42 163.28C493.801 163.397 494.065 163.632 494.212 163.984C494.388 164.307 494.344 164.732 494.08 165.26C493.904 165.641 493.625 166.008 493.244 166.36C492.863 166.712 492.437 167.005 491.968 167.24C491.499 167.445 491.044 167.548 490.604 167.548C490.281 167.548 489.959 167.431 489.636 167.196C489.313 166.932 489.02 166.58 488.756 166.14C488.492 165.7 488.272 165.216 488.096 164.688L487.832 163.676L486.248 165.128C485.867 165.539 485.485 165.92 485.104 166.272C484.752 166.595 484.532 166.829 484.444 166.976C484.297 167.24 484.004 167.475 483.564 167.68C483.153 167.885 482.611 168.12 481.936 168.384ZM483.124 164.16C483.623 163.867 484.048 163.515 484.4 163.104C484.781 162.693 485.148 162.239 485.5 161.74C485.852 161.212 486.233 160.655 486.644 160.068C487.143 159.393 487.495 158.851 487.7 158.44C487.935 158.029 488.111 157.589 488.228 157.12C488.111 156.797 487.949 156.46 487.744 156.108C487.539 155.727 487.333 155.521 487.128 155.492C486.717 155.492 486.219 155.741 485.632 156.24C485.075 156.739 484.459 157.457 483.784 158.396C483.667 158.543 483.52 158.777 483.344 159.1C483.168 159.423 482.992 159.731 482.816 160.024C482.669 160.288 482.567 160.464 482.508 160.552C482.42 160.669 482.288 160.948 482.112 161.388C481.965 161.799 481.833 162.224 481.716 162.664C481.599 163.075 481.54 163.368 481.54 163.544C481.54 163.72 481.555 163.911 481.584 164.116C481.643 164.321 481.789 164.453 482.024 164.512C482.259 164.571 482.625 164.453 483.124 164.16ZM513.623 168.824C513.183 168.824 512.758 168.692 512.347 168.428C511.936 168.135 511.599 167.739 511.335 167.24C511.071 166.712 510.939 166.096 510.939 165.392C510.939 164.952 511.012 164.336 511.159 163.544C511.335 162.723 511.584 161.696 511.907 160.464C511.966 160.053 512.01 159.789 512.039 159.672C512.098 159.555 512.127 159.437 512.127 159.32C512.127 159.261 512.112 159.217 512.083 159.188C512.083 159.129 512.054 159.1 511.995 159.1C511.76 159.1 511.438 159.261 511.027 159.584C510.646 159.877 510.206 160.229 509.707 160.64C509.619 160.699 509.516 160.772 509.399 160.86C509.311 160.948 509.208 161.036 509.091 161.124C509.003 161.212 508.9 161.3 508.783 161.388C508.49 161.564 508.035 161.901 507.419 162.4C506.832 162.899 506.216 163.427 505.571 163.984C504.955 164.541 504.412 165.011 503.943 165.392C503.708 165.568 503.503 165.715 503.327 165.832C503.18 165.949 503.078 166.008 503.019 166.008C502.96 166.008 502.726 165.935 502.315 165.788C501.934 165.612 501.552 165.377 501.171 165.084C500.819 164.761 500.643 164.395 500.643 163.984C500.643 163.72 500.746 163.192 500.951 162.4C501.186 161.608 501.508 160.669 501.919 159.584C502.33 158.499 502.799 157.399 503.327 156.284C503.444 156.02 503.532 155.668 503.591 155.228C503.65 154.788 503.708 154.363 503.767 153.952C503.855 153.512 504.002 153.189 504.207 152.984C504.295 152.837 504.398 152.735 504.515 152.676C504.662 152.588 504.808 152.544 504.955 152.544C505.248 152.544 505.527 152.617 505.791 152.764C506.055 152.881 506.304 153.087 506.539 153.38C506.979 153.849 507.214 154.407 507.243 155.052C507.302 155.668 507.258 156.269 507.111 156.856C506.964 157.443 506.803 157.927 506.627 158.308C506.451 158.66 506.363 158.807 506.363 158.748C506.48 158.689 506.642 158.543 506.847 158.308C507.082 158.073 507.478 157.795 508.035 157.472C508.798 156.885 509.384 156.475 509.795 156.24C510.206 155.976 510.514 155.785 510.719 155.668C510.954 155.551 511.159 155.419 511.335 155.272C511.482 155.155 511.584 155.081 511.643 155.052C511.731 155.023 511.775 155.008 511.775 155.008C511.863 155.008 512.01 154.949 512.215 154.832C512.45 154.715 512.67 154.656 512.875 154.656C513.168 154.656 513.476 154.729 513.799 154.876C514.122 154.993 514.4 155.169 514.635 155.404C514.87 155.609 514.987 155.829 514.987 156.064C514.987 156.152 515.016 156.225 515.075 156.284C515.134 156.343 515.192 156.416 515.251 156.504C515.398 156.68 515.559 156.929 515.735 157.252C515.94 157.545 516.043 158.029 516.043 158.704C516.043 159.173 515.94 159.863 515.735 160.772C515.53 161.681 515.31 162.576 515.075 163.456C514.84 164.365 514.723 165.099 514.723 165.656C514.752 166.184 514.811 166.595 514.899 166.888C514.987 167.152 515.031 167.372 515.031 167.548C515.031 167.783 514.914 168.061 514.679 168.384C514.444 168.677 514.092 168.824 513.623 168.824ZM527.394 171.64C525.957 171.611 525.033 171.2 524.622 170.408C524.241 169.645 524.138 168.677 524.314 167.504C524.49 166.947 524.593 166.448 524.622 166.008C524.681 165.539 524.813 165.245 525.018 165.128C525.018 165.128 525.033 165.084 525.062 164.996C525.121 164.908 525.106 164.82 525.018 164.732C525.018 164.351 525.15 163.823 525.414 163.148C525.473 162.972 525.546 162.767 525.634 162.532C525.752 162.268 525.81 162.136 525.81 162.136C525.664 161.901 525.664 161.711 525.81 161.564C525.957 161.417 526.104 161.285 526.25 161.168C526.426 161.021 526.441 160.86 526.294 160.684C526.236 160.567 526.309 160.303 526.514 159.892C526.72 159.452 526.954 158.997 527.218 158.528C527.482 158.059 527.658 157.692 527.746 157.428C527.746 157.369 527.82 157.164 527.966 156.812C528.113 156.46 528.289 156.049 528.494 155.58C528.7 155.111 528.89 154.685 529.066 154.304C529.272 153.923 529.404 153.673 529.462 153.556C529.756 153.409 529.638 153.307 529.11 153.248C528.582 153.189 528.025 153.175 527.438 153.204C526.529 153.175 525.796 153.131 525.238 153.072C524.71 153.013 524.27 152.881 523.918 152.676C523.566 152.265 523.522 151.781 523.786 151.224C524.05 150.637 524.476 150.329 525.062 150.3C525.444 150.271 525.737 150.256 525.942 150.256C526.177 150.256 526.47 150.241 526.822 150.212C527.204 150.153 527.79 150.08 528.582 149.992L530.826 149.816L530.958 149.068C531.193 148.687 531.354 148.437 531.442 148.32C531.53 148.203 531.589 148.085 531.618 147.968C531.648 147.821 531.692 147.572 531.75 147.22C531.75 147.22 531.882 146.985 532.146 146.516C532.41 146.017 532.572 145.504 532.63 144.976C532.982 144.389 533.29 143.861 533.554 143.392C533.818 142.893 533.98 142.585 534.038 142.468C534.537 141.735 535.021 141.339 535.49 141.28C535.989 141.221 536.458 141.339 536.898 141.632C537.162 141.779 537.412 141.969 537.646 142.204C537.881 142.409 538.028 142.688 538.086 143.04C538.145 143.363 538.013 143.788 537.69 144.316C537.632 144.433 537.544 144.653 537.426 144.976C537.309 145.269 537.221 145.519 537.162 145.724C536.986 145.929 536.766 146.267 536.502 146.736C536.268 147.176 536.106 147.631 536.018 148.1C535.784 148.599 535.637 148.907 535.578 149.024C535.52 149.141 535.432 149.2 535.314 149.2C535.373 149.493 535.549 149.64 535.842 149.64C536.136 149.611 536.62 149.581 537.294 149.552C537.852 149.493 538.233 149.435 538.438 149.376C538.673 149.288 538.937 149.317 539.23 149.464C539.377 149.669 539.45 149.977 539.45 150.388C539.48 150.769 539.436 151.151 539.318 151.532C539.201 151.884 539.04 152.104 538.834 152.192C538.688 152.192 538.38 152.28 537.91 152.456C537.47 152.603 536.913 152.691 536.238 152.72L533.906 152.94L533.158 154.436C532.953 154.817 532.777 155.169 532.63 155.492C532.484 155.785 532.381 155.961 532.322 156.02C532.322 156.196 532.22 156.46 532.014 156.812C531.838 157.164 531.648 157.545 531.442 157.956C531.266 158.455 531.061 158.909 530.826 159.32C530.621 159.731 530.518 159.936 530.518 159.936C530.401 159.936 530.342 160.024 530.342 160.2C530.489 160.552 530.445 160.816 530.21 160.992C530.064 161.08 529.932 161.212 529.814 161.388C529.726 161.535 529.682 161.608 529.682 161.608C529.8 161.725 529.814 161.872 529.726 162.048C529.668 162.224 529.58 162.415 529.462 162.62C529.462 162.855 529.389 163.192 529.242 163.632C529.125 164.072 528.993 164.483 528.846 164.864C528.876 165.392 528.905 165.729 528.934 165.876C528.964 166.023 529.037 166.081 529.154 166.052C529.301 166.081 529.506 166.081 529.77 166.052C530.034 166.023 530.225 166.008 530.342 166.008C530.782 165.803 530.577 166.829 529.726 169.088C529.257 169.821 528.788 170.423 528.318 170.892C527.849 171.391 527.541 171.64 527.394 171.64ZM539.409 172.784C539.086 172.784 538.807 172.711 538.573 172.564C538.367 172.417 538.206 172.241 538.089 172.036C538.089 171.831 538.147 171.655 538.265 171.508C538.382 171.361 538.543 171.185 538.749 170.98C539.071 170.687 539.379 170.32 539.673 169.88C539.966 169.469 540.23 169.044 540.465 168.604C540.729 168.164 540.934 167.812 541.081 167.548C541.198 167.225 541.315 166.844 541.433 166.404C541.55 165.964 541.667 165.48 541.785 164.952C541.785 164.717 541.785 164.512 541.785 164.336C541.814 164.131 541.887 163.969 542.005 163.852C542.239 163.647 542.518 163.471 542.841 163.324C543.193 163.148 543.53 163.207 543.853 163.5C544.205 163.764 544.469 164.453 544.645 165.568C544.762 166.213 544.762 166.8 544.645 167.328C544.527 167.856 544.278 168.501 543.897 169.264C543.838 169.469 543.618 169.807 543.237 170.276C542.885 170.745 542.518 171.171 542.137 171.552C541.785 171.963 541.565 172.168 541.477 172.168C541.359 172.168 541.257 172.197 541.169 172.256C541.081 172.344 540.963 172.447 540.817 172.564C540.699 172.681 540.523 172.74 540.289 172.74C540.054 172.769 539.761 172.784 539.409 172.784ZM570.932 169.044C570.609 168.985 570.257 168.795 569.876 168.472C569.494 168.12 569.142 167.739 568.82 167.328C568.526 166.888 568.336 166.521 568.248 166.228C568.248 166.169 568.204 166.096 568.116 166.008C568.057 165.92 568.028 165.876 568.028 165.876C567.91 165.788 567.837 165.407 567.808 164.732C567.808 164.028 567.852 163.251 567.94 162.4C568.028 161.549 568.13 160.875 568.248 160.376C568.394 159.907 568.614 159.276 568.908 158.484C569.201 157.663 569.45 156.929 569.656 156.284L570.844 153.732L569.084 153.248C568.878 153.189 568.702 153.072 568.556 152.896C568.438 152.72 568.38 152.573 568.38 152.456C568.38 152.221 568.512 151.884 568.776 151.444C569.04 151.004 569.23 150.784 569.348 150.784C569.494 150.813 569.758 150.828 570.14 150.828C570.55 150.828 570.946 150.813 571.328 150.784C571.709 150.755 571.944 150.725 572.032 150.696C572.149 150.637 572.266 150.564 572.384 150.476C572.501 150.359 572.589 150.197 572.648 149.992C572.794 149.669 572.926 149.42 573.044 149.244C573.161 149.068 573.322 148.804 573.528 148.452C573.733 148.071 573.894 147.748 574.012 147.484C574.158 147.22 574.378 146.853 574.672 146.384C574.818 146.179 574.98 145.929 575.156 145.636C575.332 145.343 575.552 145.093 575.816 144.888C576.08 144.653 576.505 144.492 577.092 144.404C577.708 144.287 578.236 144.419 578.676 144.8C578.91 145.093 579.042 145.372 579.072 145.636C579.101 145.9 578.984 146.237 578.72 146.648C578.485 147.147 578.206 147.601 577.884 148.012C577.59 148.393 577.312 148.833 577.048 149.332C576.578 149.977 576.49 150.344 576.784 150.432C577.077 150.52 577.898 150.461 579.248 150.256C580.098 150.109 580.714 150.197 581.096 150.52C581.477 150.843 581.697 151.253 581.756 151.752C581.844 152.456 581.77 152.881 581.536 153.028C581.301 153.175 580.626 153.248 579.512 153.248C578.808 153.365 578.206 153.439 577.708 153.468C577.209 153.468 576.842 153.468 576.608 153.468C576.226 153.497 575.977 153.512 575.86 153.512C575.742 153.512 575.566 153.541 575.332 153.6C575.097 153.659 574.921 153.761 574.804 153.908C574.716 154.025 574.613 154.201 574.496 154.436C574.378 154.553 574.202 154.861 573.968 155.36C573.733 155.859 573.44 156.401 573.088 156.988C572.677 158.22 572.325 159.408 572.032 160.552C571.768 161.667 571.533 162.781 571.328 163.896C571.24 164.453 571.254 164.864 571.372 165.128C571.518 165.363 571.9 165.509 572.516 165.568C572.838 165.597 573.308 165.597 573.924 165.568C574.54 165.509 575.053 165.421 575.464 165.304C575.786 165.157 576.124 165.011 576.476 164.864C576.828 164.688 577.15 164.512 577.444 164.336C577.708 164.189 577.972 164.043 578.236 163.896C578.5 163.72 578.632 163.632 578.632 163.632C578.778 163.397 578.984 163.441 579.248 163.764C579.541 164.057 579.746 164.38 579.864 164.732C579.864 165.084 579.79 165.509 579.644 166.008C579.497 166.477 578.954 166.976 578.016 167.504C576.696 168.325 575.376 168.824 574.056 169C572.736 169.176 571.694 169.191 570.932 169.044ZM600.018 168.296C599.285 168.648 598.566 168.78 597.862 168.692C597.187 168.575 596.615 168.208 596.146 167.592C595.706 166.947 595.486 166.008 595.486 164.776C595.486 164.453 595.501 164.072 595.53 163.632C595.589 163.163 595.677 162.679 595.794 162.18C595.911 161.652 596.058 161.124 596.234 160.596C596.322 160.332 596.439 160.068 596.586 159.804C596.762 159.54 596.791 159.408 596.674 159.408C596.557 159.408 596.41 159.481 596.234 159.628C596.087 159.775 595.97 159.892 595.882 159.98C595.149 160.625 594.474 161.3 593.858 162.004C593.271 162.679 592.743 163.353 592.274 164.028C591.834 164.673 591.482 165.275 591.218 165.832C590.983 166.389 590.866 166.859 590.866 167.24C590.866 167.68 590.646 167.988 590.206 168.164C589.766 168.34 589.385 168.325 589.062 168.12C588.505 167.797 587.991 167.299 587.522 166.624C587.082 165.949 586.906 165.069 586.994 163.984C587.082 162.605 587.199 161.373 587.346 160.288C587.493 159.203 587.727 158.029 588.05 156.768C588.402 155.477 588.857 153.908 589.414 152.06C589.795 151.033 590.147 150.065 590.47 149.156C590.793 148.217 591.071 147.425 591.306 146.78C591.57 146.135 591.731 145.739 591.79 145.592C591.937 145.445 592.127 145.093 592.362 144.536C592.597 143.949 592.802 143.363 592.978 142.776C593.183 142.189 593.286 141.837 593.286 141.72C593.286 141.485 593.33 141.28 593.418 141.104C593.535 140.928 593.638 140.767 593.726 140.62C593.902 140.209 594.049 139.931 594.166 139.784C594.313 139.608 594.445 139.52 594.562 139.52C594.709 139.52 594.943 139.593 595.266 139.74C595.618 139.887 595.941 140.077 596.234 140.312C596.557 140.517 596.747 140.737 596.806 140.972C597.011 141.383 597.129 141.808 597.158 142.248C597.187 142.659 597.085 143.172 596.85 143.788C596.615 144.404 596.205 145.255 595.618 146.34C595.149 147.249 594.723 148.188 594.342 149.156C593.961 150.124 593.594 151.136 593.242 152.192C593.095 152.632 592.905 153.219 592.67 153.952C592.435 154.656 592.201 155.389 591.966 156.152C591.761 156.885 591.585 157.545 591.438 158.132C591.291 158.719 591.218 159.1 591.218 159.276C591.218 159.481 591.335 159.584 591.57 159.584C591.805 159.555 592.039 159.379 592.274 159.056C592.391 158.821 592.582 158.601 592.846 158.396C593.11 158.161 593.345 157.927 593.55 157.692C593.785 157.399 594.063 157.061 594.386 156.68C594.738 156.269 595.105 155.888 595.486 155.536C595.897 155.155 596.263 154.847 596.586 154.612C596.938 154.377 597.231 154.26 597.466 154.26C598.023 154.26 598.493 154.421 598.874 154.744C599.255 155.067 599.578 155.565 599.842 156.24C599.93 156.328 600.018 156.445 600.106 156.592C600.194 156.709 600.253 156.797 600.282 156.856C600.429 156.973 600.502 157.443 600.502 158.264C600.502 159.056 600.267 160.156 599.798 161.564C599.534 162.649 599.373 163.456 599.314 163.984C599.285 164.512 599.387 164.776 599.622 164.776C599.622 164.776 599.769 164.688 600.062 164.512C600.385 164.336 600.722 164.145 601.074 163.94C601.925 163.383 602.541 163.207 602.922 163.412C603.303 163.617 603.494 163.881 603.494 164.204C603.494 164.468 603.391 164.776 603.186 165.128C603.01 165.48 602.922 165.715 602.922 165.832C602.922 165.832 602.922 165.847 602.922 165.876C602.922 165.876 602.922 165.935 602.922 166.052C602.922 166.111 602.731 166.316 602.35 166.668C601.969 167.02 601.543 167.372 601.074 167.724C600.634 168.047 600.282 168.237 600.018 168.296ZM618.273 168.12C617.393 168.619 616.455 168.912 615.457 169C614.489 169.059 613.58 168.927 612.729 168.604C611.879 168.252 611.189 167.739 610.661 167.064C610.368 166.683 610.089 166.081 609.825 165.26C609.561 164.409 609.517 163.265 609.693 161.828C609.869 160.479 610.28 159.115 610.925 157.736C611.6 156.357 612.421 155.14 613.389 154.084C614.357 153.028 615.413 152.309 616.557 151.928C616.968 151.781 617.379 151.679 617.789 151.62C618.229 151.532 618.801 151.517 619.505 151.576C620.18 151.664 620.781 151.84 621.309 152.104C621.837 152.339 622.219 152.603 622.453 152.896C622.923 153.365 623.231 153.82 623.377 154.26C623.524 154.7 623.583 155.125 623.553 155.536C623.407 156.475 622.981 157.487 622.277 158.572C621.603 159.657 620.649 160.464 619.417 160.992C618.919 161.197 618.332 161.329 617.657 161.388C616.983 161.447 616.059 161.359 614.885 161.124C614.181 160.977 613.712 161.051 613.477 161.344C613.272 161.637 613.184 162.209 613.213 163.06C613.272 163.588 613.389 164.057 613.565 164.468C613.771 164.849 614.137 165.113 614.665 165.26C615.34 165.377 615.824 165.392 616.117 165.304C616.411 165.187 616.777 165.025 617.217 164.82C617.452 164.673 617.672 164.512 617.877 164.336C618.112 164.16 618.332 163.984 618.537 163.808C618.772 163.632 618.963 163.5 619.109 163.412C619.256 163.295 619.403 163.221 619.549 163.192C619.696 163.163 619.843 163.148 619.989 163.148C620.312 163.177 620.62 163.353 620.913 163.676C621.207 163.999 621.397 164.307 621.485 164.6C621.485 164.835 621.339 165.172 621.045 165.612C620.752 166.023 620.356 166.463 619.857 166.932C619.388 167.372 618.86 167.768 618.273 168.12ZM617.701 158.308C617.907 158.22 618.2 158.015 618.581 157.692C618.992 157.369 619.359 157.032 619.681 156.68C620.004 156.299 620.165 156.005 620.165 155.8C620.165 155.477 619.945 155.199 619.505 154.964C619.095 154.729 618.552 154.685 617.877 154.832C617.643 154.891 617.364 155.052 617.041 155.316C616.719 155.58 616.396 155.888 616.073 156.24C615.751 156.563 615.472 156.885 615.237 157.208C615.003 157.501 614.841 157.736 614.753 157.912C614.871 158.059 615.105 158.176 615.457 158.264C615.809 158.352 616.191 158.396 616.601 158.396C617.041 158.396 617.408 158.367 617.701 158.308ZM644.505 173.004C644.505 173.004 644.358 172.945 644.065 172.828C643.771 172.74 643.449 172.652 643.097 172.564C642.774 172.476 642.525 172.432 642.349 172.432C641.879 172.315 641.542 172.051 641.337 171.64C641.131 171.259 641.087 170.833 641.205 170.364C641.322 170.247 641.41 169.997 641.469 169.616C641.527 169.235 641.557 168.927 641.557 168.692C641.674 168.457 641.747 168.296 641.777 168.208C641.806 168.091 641.879 167.797 641.997 167.328C642.085 166.829 642.231 166.14 642.437 165.26C642.671 164.351 642.921 163.383 643.185 162.356C643.478 161.329 643.757 160.347 644.021 159.408C644.285 158.469 644.519 157.677 644.725 157.032C644.959 156.387 645.121 156.02 645.209 155.932C645.209 155.932 645.209 155.888 645.209 155.8C645.209 155.683 645.209 155.565 645.209 155.448C645.209 155.448 645.223 155.316 645.253 155.052C645.311 154.759 645.458 154.436 645.693 154.084C645.81 153.761 645.913 153.409 646.001 153.028C646.089 152.647 646.133 152.397 646.133 152.28C646.25 152.133 646.411 151.781 646.617 151.224C646.851 150.637 647.071 150.065 647.277 149.508C647.453 149.039 647.643 148.54 647.849 148.012C648.083 147.484 648.274 147.029 648.421 146.648C648.597 146.267 648.685 146.076 648.685 146.076C648.685 145.959 648.685 145.9 648.685 145.9C648.685 145.871 648.685 145.856 648.685 145.856C648.802 145.739 649.081 145.152 649.521 144.096C649.99 143.011 650.621 141.617 651.413 139.916C651.53 139.681 651.706 139.315 651.941 138.816C652.175 138.288 652.293 137.965 652.293 137.848C652.733 137.408 653.158 137.261 653.569 137.408C654.009 137.525 654.39 137.775 654.713 138.156C655.065 138.537 655.314 138.889 655.461 139.212L655.901 139.916L654.273 143.084C653.803 143.905 653.393 144.653 653.041 145.328C652.718 146.003 652.557 146.399 652.557 146.516C652.557 146.516 652.483 146.692 652.337 147.044C652.219 147.396 652.073 147.851 651.897 148.408C651.721 148.936 651.545 149.464 651.369 149.992C651.046 150.901 650.738 151.664 650.445 152.28C650.151 152.867 650.005 153.219 650.005 153.336C650.005 153.277 650.298 153.233 650.885 153.204C651.501 153.175 652.263 153.16 653.173 153.16C654.082 153.16 655.006 153.16 655.945 153.16C656.913 153.131 657.778 153.116 658.541 153.116C659.303 153.087 659.831 153.043 660.125 152.984L662.413 152.764L663.645 148.848C663.879 148.027 664.187 147.029 664.569 145.856C664.95 144.683 665.287 143.685 665.581 142.864C666.05 141.515 666.549 140.576 667.077 140.048C667.605 139.491 668.045 139.212 668.397 139.212C668.485 139.212 668.646 139.3 668.881 139.476C669.145 139.623 669.409 139.799 669.673 140.004C669.937 140.209 670.098 140.4 670.157 140.576C670.509 140.899 670.67 141.265 670.641 141.676C670.641 142.087 670.406 142.629 669.937 143.304C669.467 144.096 669.071 144.961 668.749 145.9C668.455 146.809 668.191 147.557 667.957 148.144C667.957 148.496 667.913 148.789 667.825 149.024C667.737 149.229 667.634 149.391 667.517 149.508C667.458 149.567 667.341 149.787 667.165 150.168C666.989 150.549 666.827 150.931 666.681 151.312C666.534 151.693 666.461 151.928 666.461 152.016C666.461 152.221 666.417 152.471 666.329 152.764C666.241 153.057 666.138 153.263 666.021 153.38C665.962 153.556 665.83 153.996 665.625 154.7C665.419 155.404 665.185 156.24 664.921 157.208C664.657 158.147 664.378 159.071 664.085 159.98C663.791 160.86 663.527 161.593 663.293 162.18C663.293 162.385 663.219 162.649 663.073 162.972C662.926 163.265 662.853 163.529 662.853 163.764C662.735 164.116 662.589 164.556 662.413 165.084C662.237 165.612 662.149 165.949 662.149 166.096C662.002 166.771 661.841 167.548 661.665 168.428C661.518 169.308 661.386 170.085 661.269 170.76C661.181 171.435 661.137 171.816 661.137 171.904C660.374 171.992 659.802 171.889 659.421 171.596C659.039 171.303 658.687 171.097 658.365 170.98C657.807 170.657 657.47 170.247 657.353 169.748C657.265 169.279 657.382 168.707 657.705 168.032C657.851 167.797 658.027 167.225 658.233 166.316C658.467 165.377 658.702 164.453 658.937 163.544C659.113 163.104 659.303 162.547 659.509 161.872C659.714 161.197 659.905 160.537 660.081 159.892C660.286 159.217 660.462 158.645 660.609 158.176C660.755 157.707 660.858 157.443 660.917 157.384C660.917 157.267 660.917 157.164 660.917 157.076C660.917 156.988 660.917 156.944 660.917 156.944C660.858 156.885 660.565 156.841 660.037 156.812C659.509 156.753 658.834 156.739 658.013 156.768C657.221 156.768 656.355 156.797 655.417 156.856C654.478 156.885 653.583 156.959 652.733 157.076C652.41 157.076 651.941 157.076 651.325 157.076C650.738 157.076 650.327 157.076 650.093 157.076C649.77 157.076 649.491 157.076 649.257 157.076C649.051 157.076 648.949 157.076 648.949 157.076C648.89 157.164 648.773 157.457 648.597 157.956C648.45 158.455 648.259 159.056 648.025 159.76C647.819 160.464 647.599 161.183 647.365 161.916C647.159 162.649 646.969 163.324 646.793 163.94C646.646 164.527 646.543 164.952 646.485 165.216C646.367 165.744 646.206 166.404 646.001 167.196C645.825 167.988 645.619 168.795 645.385 169.616C645.179 170.467 644.989 171.2 644.813 171.816C644.666 172.432 644.563 172.828 644.505 173.004ZM681.65 169.264C681.445 169.381 681.166 169.337 680.814 169.132C680.492 168.927 680.169 168.619 679.846 168.208C679.641 167.856 679.48 167.504 679.362 167.152C679.274 166.771 679.23 166.213 679.23 165.48C679.26 164.893 679.26 164.497 679.23 164.292C679.23 164.057 679.098 164.043 678.834 164.248C678.6 164.424 678.116 164.864 677.382 165.568C676.649 166.301 675.945 166.932 675.27 167.46C674.625 167.959 674.097 168.193 673.686 168.164C673.481 168.164 673.202 168.032 672.85 167.768C672.498 167.504 672.161 167.181 671.838 166.8C671.516 166.389 671.281 166.008 671.134 165.656C670.958 164.952 670.944 164.043 671.09 162.928C671.266 161.813 671.545 160.655 671.926 159.452C672.308 158.22 672.733 157.076 673.202 156.02C673.701 154.935 674.185 154.069 674.654 153.424C675.153 152.749 675.578 152.427 675.93 152.456C676.429 152.515 676.854 152.764 677.206 153.204C677.588 153.615 677.881 154.069 678.086 154.568C678.204 154.773 678.248 154.949 678.218 155.096C678.218 155.243 678.101 155.419 677.866 155.624C677.602 155.976 677.28 156.489 676.898 157.164C676.546 157.809 676.18 158.513 675.798 159.276C675.446 160.039 675.124 160.772 674.83 161.476C674.566 162.151 674.376 162.708 674.258 163.148C674.141 163.588 674.141 163.808 674.258 163.808C674.669 163.808 675.05 163.705 675.402 163.5C675.754 163.265 676.194 162.899 676.722 162.4C677.338 161.784 677.881 161.168 678.35 160.552C678.82 159.907 679.304 159.173 679.802 158.352C680.184 157.765 680.58 157.12 680.99 156.416C681.43 155.712 681.709 155.213 681.826 154.92C682.237 154.157 682.545 153.585 682.75 153.204C682.956 152.823 683.205 152.588 683.498 152.5C683.645 152.5 683.85 152.5 684.114 152.5C684.378 152.5 684.51 152.5 684.51 152.5C684.686 152.529 684.892 152.661 685.126 152.896C685.361 153.013 685.596 153.175 685.83 153.38C686.094 153.585 686.226 153.761 686.226 153.908C686.109 154.201 685.918 154.641 685.654 155.228C685.42 155.785 685.244 156.196 685.126 156.46C684.569 157.721 684.026 158.968 683.498 160.2C683 161.403 682.633 162.635 682.398 163.896C682.34 164.307 682.325 164.791 682.354 165.348C682.413 165.876 682.501 166.257 682.618 166.492C682.706 166.668 682.809 166.873 682.926 167.108C683.073 167.313 683.234 167.489 683.41 167.636C683.674 167.812 683.66 168.032 683.366 168.296C683.102 168.56 682.765 168.795 682.354 169C681.973 169.176 681.738 169.264 681.65 169.264ZM691.072 170.32C690.69 170.173 690.382 169.939 690.148 169.616C689.913 169.323 689.781 168.883 689.752 168.296C689.722 167.915 689.737 167.357 689.796 166.624C689.854 165.861 689.957 165.099 690.104 164.336C690.104 164.277 690.104 164.219 690.104 164.16C690.133 164.072 690.148 164.013 690.148 163.984C690.177 163.867 690.206 163.691 690.236 163.456C690.265 163.192 690.294 162.987 690.324 162.84C690.382 162.664 690.412 162.649 690.412 162.796L690.676 161.608C690.793 161.08 690.925 160.537 691.072 159.98C691.218 159.423 691.35 158.939 691.468 158.528C691.614 158.088 691.702 157.839 691.732 157.78C691.732 157.78 691.776 157.619 691.864 157.296C691.981 156.944 692.098 156.592 692.216 156.24C692.685 154.773 693.125 153.556 693.536 152.588C693.976 151.62 694.357 150.916 694.68 150.476C694.709 150.388 694.753 150.285 694.812 150.168C694.87 150.021 694.914 149.904 694.944 149.816C694.944 149.493 694.958 149.259 694.988 149.112C695.046 148.965 695.12 148.833 695.208 148.716C695.266 148.599 695.354 148.452 695.472 148.276C695.589 148.071 695.721 147.821 695.868 147.528L696.044 147.044C696.22 146.663 696.44 146.223 696.704 145.724C696.968 145.196 697.158 144.8 697.276 144.536C697.364 144.272 697.54 143.964 697.804 143.612C698.068 143.231 698.361 142.981 698.684 142.864L698.64 142.82C698.786 142.556 699.065 142.351 699.476 142.204C699.886 142.028 700.224 141.94 700.488 141.94C700.898 141.94 701.206 142.057 701.412 142.292C701.646 142.527 701.764 142.849 701.764 143.26C701.764 143.7 701.749 144.023 701.72 144.228C701.72 144.404 701.617 144.609 701.412 144.844H701.456C701.514 144.785 701.5 144.873 701.412 145.108C701.324 145.343 701.25 145.504 701.192 145.592C701.133 145.739 701.06 145.9 700.972 146.076C700.913 146.252 700.84 146.384 700.752 146.472C700.664 146.589 700.429 147 700.048 147.704C699.666 148.379 699.241 149.185 698.772 150.124C698.302 151.033 697.848 151.928 697.408 152.808C696.997 153.659 696.704 154.319 696.528 154.788L696.308 155.448C696.278 155.565 696.264 155.653 696.264 155.712C696.176 155.917 696.088 156.123 696 156.328C695.912 156.533 695.824 156.709 695.736 156.856L695.032 159.584L694.856 160.508L694.46 161.52L694.196 162.356C694.137 162.532 694.093 162.723 694.064 162.928C694.034 163.133 693.976 163.28 693.888 163.368C693.888 163.397 693.873 163.441 693.844 163.5C693.844 163.529 693.844 163.559 693.844 163.588C693.726 164.057 693.521 164.717 693.228 165.568C692.964 166.419 692.802 167.357 692.744 168.384C692.744 168.413 692.729 168.443 692.7 168.472C692.7 168.501 692.7 168.531 692.7 168.56C692.612 169.176 692.421 169.645 692.128 169.968C691.864 170.32 691.512 170.437 691.072 170.32ZM703.336 169.132C703.101 169.044 702.793 168.809 702.412 168.428C702.031 168.017 701.693 167.577 701.4 167.108C701.107 166.609 700.96 166.199 700.96 165.876C701.107 165.553 701.297 164.981 701.532 164.16C701.796 163.339 702.089 162.415 702.412 161.388C702.647 161.065 702.823 160.699 702.94 160.288C703.087 159.848 703.219 159.452 703.336 159.1C703.571 158.572 703.835 157.971 704.128 157.296C704.421 156.621 704.7 155.932 704.964 155.228C705.257 154.524 705.521 153.908 705.756 153.38C706.167 152.5 706.504 151.737 706.768 151.092C707.061 150.417 707.34 149.757 707.604 149.112C707.897 148.467 708.205 147.748 708.528 146.956C708.968 146.047 709.364 145.152 709.716 144.272C710.097 143.363 710.42 142.556 710.684 141.852C710.977 141.148 711.153 140.649 711.212 140.356C711.183 140.121 711.212 139.96 711.3 139.872C711.388 139.755 711.505 139.681 711.652 139.652C711.799 139.564 712.033 139.505 712.356 139.476C712.679 139.447 712.899 139.432 713.016 139.432C713.368 139.491 713.72 139.784 714.072 140.312C714.453 140.811 714.644 141.236 714.644 141.588C714.644 142.057 714.409 142.937 713.94 144.228C713.5 145.489 712.855 146.985 712.004 148.716C710.977 150.916 710.2 152.617 709.672 153.82C709.173 155.023 708.836 155.873 708.66 156.372C708.484 156.871 708.411 157.193 708.44 157.34C708.44 157.34 708.557 157.296 708.792 157.208C709.027 157.12 709.379 156.915 709.848 156.592C710.171 156.387 710.537 156.123 710.948 155.8C711.359 155.477 711.755 155.184 712.136 154.92C712.547 154.656 712.869 154.495 713.104 154.436C713.251 154.319 713.456 154.172 713.72 153.996C713.984 153.82 714.233 153.659 714.468 153.512C715.025 153.101 715.465 152.969 715.788 153.116C716.111 153.263 716.404 153.512 716.668 153.864C716.991 154.245 717.108 154.656 717.02 155.096C716.961 155.507 716.507 156.049 715.656 156.724C715.011 157.193 714.321 157.648 713.588 158.088C712.855 158.499 712.18 158.865 711.564 159.188C710.977 159.511 710.552 159.775 710.288 159.98C710.288 159.98 710.42 160.171 710.684 160.552C710.948 160.933 711.197 161.3 711.432 161.652C711.667 162.121 711.96 162.723 712.312 163.456C712.664 164.16 712.928 164.659 713.104 164.952C713.427 165.421 713.749 165.729 714.072 165.876C714.424 166.023 714.937 165.979 715.612 165.744C716.052 165.627 716.419 165.641 716.712 165.788C717.035 165.905 717.299 166.111 717.504 166.404C717.621 166.639 717.68 166.873 717.68 167.108C717.68 167.343 717.489 167.621 717.108 167.944C716.287 168.501 715.48 168.971 714.688 169.352C713.925 169.763 713.192 169.733 712.488 169.264C711.872 168.795 711.285 168.267 710.728 167.68C710.2 167.064 709.599 166.316 708.924 165.436C708.924 165.319 708.836 165.069 708.66 164.688C708.484 164.307 708.367 164.087 708.308 164.028C708.191 163.793 708.059 163.588 707.912 163.412C707.795 163.207 707.736 163.104 707.736 163.104C707.648 162.781 707.531 162.517 707.384 162.312C707.267 162.107 707.105 161.989 706.9 161.96C706.783 162.048 706.651 162.195 706.504 162.4C706.357 162.605 706.211 162.855 706.064 163.148C705.888 163.588 705.712 164.028 705.536 164.468C705.36 164.879 705.213 165.333 705.096 165.832C704.979 166.301 704.905 166.873 704.876 167.548C704.905 167.871 704.773 168.223 704.48 168.604C704.187 168.956 703.805 169.132 703.336 169.132ZM726.437 161.916C725.616 162.063 724.97 161.725 724.501 160.904C724.032 160.053 724.061 158.572 724.589 156.46C724.765 156.108 724.912 155.771 725.029 155.448C725.146 155.096 725.205 154.817 725.205 154.612C725.322 154.231 725.469 153.791 725.645 153.292C725.85 152.764 726.056 152.28 726.261 151.84C726.466 151.371 726.613 151.063 726.701 150.916C726.818 150.916 726.936 150.813 727.053 150.608C727.2 150.403 727.273 150.197 727.273 149.992C727.273 149.757 727.317 149.493 727.405 149.2C727.522 148.907 727.64 148.701 727.757 148.584C727.757 148.437 727.816 148.276 727.933 148.1C728.05 147.924 728.109 147.777 728.109 147.66C728.109 147.543 728.138 147.44 728.197 147.352C728.285 147.264 728.329 147.161 728.329 147.044C728.593 146.575 728.93 145.885 729.341 144.976C729.781 144.037 730.206 143.055 730.617 142.028C731.057 141.001 731.424 140.092 731.717 139.3C732.01 138.508 732.157 138.024 732.157 137.848C732.216 137.613 732.304 137.393 732.421 137.188C732.538 136.983 732.714 136.909 732.949 136.968C733.066 136.88 733.242 136.836 733.477 136.836C733.712 136.807 733.888 136.792 734.005 136.792C734.005 136.792 734.137 136.851 734.401 136.968C734.665 137.085 734.9 137.261 735.105 137.496C735.34 137.701 735.472 137.98 735.501 138.332C735.53 138.684 735.545 139.036 735.545 139.388C735.516 139.945 735.31 140.576 734.929 141.28C734.548 141.984 734.122 142.761 733.653 143.612C733.36 144.169 733.066 144.697 732.773 145.196C732.509 145.695 732.377 146.003 732.377 146.12C732.377 146.237 732.318 146.413 732.201 146.648C732.084 146.883 731.952 147.176 731.805 147.528C731.629 147.821 731.453 148.173 731.277 148.584C731.13 148.995 730.998 149.376 730.881 149.728C730.764 150.051 730.705 150.256 730.705 150.344C730.676 150.461 730.632 150.579 730.573 150.696C730.544 150.813 730.47 150.931 730.353 151.048C730.236 151.048 730.162 151.136 730.133 151.312C730.133 151.459 730.133 151.532 730.133 151.532C730.133 151.649 730.06 151.928 729.913 152.368C729.796 152.779 729.59 153.277 729.297 153.864C728.74 155.419 728.344 156.665 728.109 157.604C727.874 158.513 727.728 159.291 727.669 159.936C727.61 160.64 727.449 161.124 727.185 161.388C726.921 161.623 726.672 161.799 726.437 161.916ZM724.105 168.736C723.489 168.971 722.976 169.073 722.565 169.044C722.154 169.044 721.7 168.853 721.201 168.472C720.614 167.885 720.409 167.299 720.585 166.712C720.79 166.096 721.318 165.509 722.169 164.952C722.756 164.571 723.181 164.38 723.445 164.38C723.738 164.351 724.164 164.453 724.721 164.688C725.718 165.304 726.158 165.993 726.041 166.756C725.924 167.489 725.278 168.149 724.105 168.736Z" fill="#B8C318"/>
</svg>
