<svg width="900" height="250" viewBox="0 0 900 250" fill="none" xmlns="http://www.w3.org/2000/svg">
<rect width="900" height="220" rx="60" fill="#FDFDFB"/>
<rect x="5.5" y="35.5" width="889" height="209" rx="54.5" fill="#FDFDFB" stroke="#B8C318" stroke-width="11"/>
<rect width="384" height="172" transform="translate(258 54)" fill="#FDFDFB"/>
<path d="M273.78 130.88H301.56V123.8H273.78V130.88ZM301.56 110H273.78V117.08H301.56V110ZM301.56 96.38H273.78V103.28H301.56V96.38ZM266.58 89.42H309.12V141.56H301.56V137.84H273.78V141.56H266.58V89.42ZM335.7 124.52H345.72V120.62H335.88C335.88 121.88 335.82 123.14 335.7 124.52ZM345.72 111.2H335.88V115.34H345.72V111.2ZM352.62 105.62V135.14C352.62 138.2 352.02 139.88 349.98 140.9C348.06 141.92 345.3 142.04 341.64 142.04C341.28 140.24 340.26 137.6 339.36 135.98C341.58 136.1 343.98 136.1 344.76 136.04C345.48 136.04 345.72 135.8 345.72 135.08V129.74H335.16C334.5 134.3 333.12 138.8 330.72 142.22C329.64 141.08 326.82 138.92 325.38 138.2C329.1 132.8 329.46 125.24 329.46 119.36V105.62H352.62ZM369.72 134.24V104.54H376.74V134.36C376.74 137.9 376.08 139.64 373.68 140.78C371.4 141.86 368.16 142.04 363.84 141.98C363.48 140.06 362.34 137.12 361.26 135.26C364.32 135.38 367.44 135.38 368.46 135.32C369.42 135.32 369.72 135.08 369.72 134.24ZM364.32 106.22V130.7H357.78V106.22H364.32ZM367.74 95.06H379.92V101.48H325.62V95.06H338.4C337.32 93.02 335.58 90.44 333.9 88.46L340.68 86.12C342.84 88.4 345.24 91.64 346.26 93.92L342.96 95.06H359.64C361.44 92.3 363.36 88.76 364.56 86L372.3 88.28C370.86 90.62 369.24 92.96 367.74 95.06ZM436.56 97.46H398.34V101.12H436.56V97.46ZM409.02 113L426.54 111.86C425.46 110.9 424.38 110 423.42 109.22L426.36 107.24H415.98C413.82 109.28 411.42 111.2 409.02 113ZM398.04 107.24V102.44H391.38V90.98H414.42C413.94 89.72 413.4 88.4 412.8 87.38L419.76 85.34C420.78 87.08 421.8 89.18 422.46 90.98H443.82V102.44H437.46V107.24H430.38C434.04 110.18 438.18 113.9 440.4 116.6L434.76 120.38C433.98 119.36 432.9 118.04 431.58 116.66C404.76 118.82 401.52 119.06 399.12 120.02C398.76 118.7 397.8 115.52 397.08 113.84C398.4 113.66 399.72 112.88 401.34 111.68C402.3 111.02 404.46 109.4 406.86 107.24H398.04ZM421.2 134.3H444.36V140.6H391.2V134.3H413.88V129.14H396.42V123.02H413.88V118.46H421.2V123.02H439.56V129.14H421.2V134.3ZM499.5 106.46H488.1C490.2 113.06 493.74 118.28 499.5 121.46V106.46ZM465.66 106.46V122.12C471.54 118.88 475.32 113.48 477.3 106.46H465.66ZM506.82 99.5V133.88C506.82 137.78 506.04 139.76 503.46 140.96C500.94 142.1 497.22 142.16 491.94 142.16C491.7 140.12 490.62 136.88 489.6 134.96C492.9 135.08 496.92 135.08 498.06 135.08C499.14 135.08 499.5 134.72 499.5 133.76V123.02C498.06 124.58 496.38 126.74 495.48 128.24C489.18 124.52 485.1 118.88 482.58 111.98C479.94 119.48 475.68 125 468.9 128.6C468.24 127.52 466.92 125.72 465.66 124.34V142.22H458.4V99.5H479.64C479.46 98 479.34 96.44 479.22 94.88H469.08V88.64H485.4C485.52 92.48 485.88 96.08 486.42 99.5H506.82ZM542.52 86.24H550.74C550.68 88.76 550.56 92 550.32 95.6C551.16 103.7 554.82 126.32 575.76 135.56C573.54 137.3 571.5 139.7 570.54 141.74C557.22 135.38 550.56 123.68 547.08 113.36C543.78 123.92 537.48 134.78 525 142.1C523.74 140.18 521.46 137.9 519.06 136.28C543.42 123.26 542.28 96.38 542.52 86.24ZM616.32 127.46H610.98C610.5 129.44 609.54 131.48 607.74 133.4C609.66 134.24 611.52 135.02 613.2 135.8C617.88 133.22 621.3 129.86 623.88 125.48C622.44 121.76 621.3 117.62 620.34 113.12C619.56 114.98 618.72 116.72 617.88 118.22C617.22 117.38 615.66 115.82 614.4 114.68V119.96H601.8C601.38 120.86 600.9 121.76 600.42 122.66H605.76V120.92H611.34V122.66H616.32V127.46ZM605.04 127.46H597.54C597.12 128.18 596.64 128.84 596.22 129.5C598.14 130.04 600.06 130.58 601.92 131.24C603.48 130.04 604.44 128.72 605.04 127.46ZM593.1 113.36V116H597.84V113.36H593.1ZM608.16 113.36H603.24V116H608.16V113.36ZM629.88 103.52H623.76C624.54 108.68 625.68 113.6 627.18 117.98C628.5 113.78 629.34 108.98 629.88 103.52ZM593.52 103.1H597.84V100.64H593.52V103.1ZM597.84 94.22H593.52V96.32H597.84V94.22ZM607.92 94.22H603.24V96.32H607.92V94.22ZM603.24 103.1H607.92V100.64H603.24V103.1ZM640.02 103.52H636C634.98 112.28 633.24 119.6 630.42 125.66C632.94 130.4 636.36 134.18 640.74 136.58C639.24 137.78 637.2 140.36 636.24 142.1C632.34 139.52 629.22 136.04 626.76 131.72C623.52 136.16 619.32 139.64 613.8 142.4C613.44 141.62 612.66 140.18 611.82 138.92L610.02 140.54C608.1 139.4 605.64 138.2 602.82 137.06C599.16 139.16 593.82 140.96 586.26 142.22C585.78 140.84 584.46 138.74 583.5 137.6C588.9 136.76 592.92 135.74 596.04 134.48C593.28 133.52 590.4 132.68 587.76 132.02C588.84 130.7 589.98 129.14 591.06 127.46H584.7V122.66H594.12C594.66 121.76 595.14 120.86 595.56 119.96H587.22V109.34H597.84V107.6H588.24V101H584.1V95.96H588.24V89.78H597.84V86.18H603.24V89.78H613.56V95.96H616.68V101H613.56V107.6H603.24V109.34H614.4V111.74C617.7 105.08 620.16 95.48 621.66 86.18L627.54 87.26C627 90.56 626.28 93.98 625.44 97.28H640.02V103.52Z" fill="#594A39"/>
<path d="M288.328 201.904C287.888 201.728 287.374 201.479 286.788 201.156C286.201 200.863 285.644 200.467 285.116 199.968C284.588 199.469 284.177 198.868 283.884 198.164C283.59 197.313 283.385 196.477 283.268 195.656C283.18 194.835 283.15 193.881 283.18 192.796C283.18 191.271 283.282 189.951 283.488 188.836C283.722 187.692 284.074 186.533 284.544 185.36C284.602 185.272 284.705 185.023 284.852 184.612C285.028 184.172 285.218 183.703 285.424 183.204C285.658 182.705 285.834 182.324 285.952 182.06C286.186 181.561 286.538 180.901 287.008 180.08C287.506 179.229 288.034 178.408 288.592 177.616C289.442 176.355 290.161 175.328 290.748 174.536C291.334 173.715 291.892 173.025 292.42 172.468C292.977 171.911 293.578 171.368 294.224 170.84C294.898 170.312 295.734 169.711 296.732 169.036C297.377 168.567 298.198 168.273 299.196 168.156C300.222 168.039 301.22 168.2 302.188 168.64C303.156 169.051 303.874 169.843 304.344 171.016C304.666 171.632 304.813 172.409 304.784 173.348C304.754 174.257 304.578 175.24 304.256 176.296C303.933 177.323 303.522 178.291 303.024 179.2C302.525 180.109 301.968 180.843 301.352 181.4C300.97 181.752 300.457 181.811 299.812 181.576C299.196 181.341 298.682 181.033 298.272 180.652C298.008 180.153 297.861 179.86 297.832 179.772C297.832 179.684 297.89 179.625 298.008 179.596C298.184 179.391 298.418 179.039 298.712 178.54C299.005 178.041 299.298 177.513 299.592 176.956C299.885 176.369 300.09 175.9 300.208 175.548C300.442 174.316 300.604 173.509 300.692 173.128C300.78 172.717 300.692 172.38 300.428 172.116C300.31 171.999 300.134 171.955 299.9 171.984C299.694 172.013 299.342 172.16 298.844 172.424C298.169 172.717 297.362 173.319 296.424 174.228C295.514 175.108 294.605 176.164 293.696 177.396C292.522 178.951 291.54 180.329 290.748 181.532C289.956 182.735 289.354 183.967 288.944 185.228C288.885 185.345 288.782 185.565 288.636 185.888C288.518 186.211 288.46 186.372 288.46 186.372C288.489 186.489 288.445 186.783 288.328 187.252C288.21 187.692 288.078 188.073 287.932 188.396C287.609 189.745 287.418 191.051 287.36 192.312C287.301 193.544 287.374 194.629 287.58 195.568C287.814 196.477 288.152 197.152 288.592 197.592C288.973 197.856 289.457 197.944 290.044 197.856C290.63 197.768 291.305 197.563 292.068 197.24C292.83 196.917 293.652 196.565 294.532 196.184C295.236 195.891 295.881 195.568 296.468 195.216C297.054 194.864 297.494 194.556 297.788 194.292C298.022 194.116 298.316 193.94 298.668 193.764C299.049 193.559 299.372 193.456 299.636 193.456C300.046 193.309 300.354 193.427 300.56 193.808C300.765 194.189 300.868 194.673 300.868 195.26C300.868 195.671 300.574 196.169 299.988 196.756C299.401 197.343 298.756 197.841 298.052 198.252C297.817 198.487 297.494 198.707 297.084 198.912C296.702 199.088 296.306 199.249 295.896 199.396C295.28 199.865 294.517 200.32 293.608 200.76C292.698 201.2 291.774 201.537 290.836 201.772C289.926 202.007 289.09 202.051 288.328 201.904ZM317.447 198.912C317.153 198.619 316.919 198.223 316.743 197.724C316.567 197.196 316.391 196.595 316.215 195.92C316.156 195.685 316.127 195.421 316.127 195.128C316.156 194.835 316.156 194.6 316.127 194.424C316.039 194.629 315.892 194.893 315.687 195.216C315.511 195.539 315.335 195.773 315.159 195.92C315.041 196.037 314.777 196.272 314.367 196.624C313.956 196.947 313.545 197.211 313.135 197.416C312.167 198.032 311.301 198.325 310.539 198.296C309.805 198.237 309.16 197.856 308.603 197.152C308.133 196.771 307.752 196.287 307.459 195.7C307.165 195.113 307.107 194.409 307.283 193.588C307.341 192.561 307.488 191.564 307.723 190.596C307.957 189.599 308.441 188.279 309.175 186.636C309.791 185.433 310.26 184.495 310.583 183.82C310.905 183.145 311.111 182.749 311.199 182.632C311.639 182.485 312.181 182.5 312.827 182.676C313.472 182.823 313.824 183.101 313.883 183.512C314.059 183.805 314.059 184.363 313.883 185.184C313.707 185.976 313.355 186.885 312.827 187.912C312.416 188.909 312.02 189.877 311.639 190.816C311.287 191.755 311.067 192.547 310.979 193.192C310.92 193.837 311.096 194.233 311.507 194.38C311.771 194.527 312.152 194.512 312.651 194.336C313.179 194.16 313.795 193.632 314.499 192.752C315.203 191.872 315.951 190.479 316.743 188.572C316.977 187.985 317.153 187.472 317.271 187.032C317.388 186.563 317.461 186.049 317.491 185.492C317.432 185.14 317.52 184.773 317.755 184.392C318.019 184.011 318.327 183.717 318.679 183.512C318.796 183.365 318.957 183.233 319.163 183.116C319.368 182.969 319.5 182.969 319.559 183.116L320.263 183.072C320.38 183.043 320.512 183.16 320.659 183.424C320.805 183.688 320.952 183.879 321.099 183.996C321.421 184.26 321.568 184.832 321.539 185.712C321.509 186.592 321.157 187.824 320.483 189.408C319.925 190.611 319.544 191.52 319.339 192.136C319.163 192.752 319.06 193.353 319.031 193.94C319.031 194.468 319.075 194.923 319.163 195.304C319.251 195.656 319.515 196.023 319.955 196.404C320.277 196.609 320.453 196.961 320.483 197.46C320.541 197.929 320.556 198.34 320.527 198.692C320.468 198.956 320.233 199.132 319.823 199.22C319.441 199.337 319.016 199.367 318.547 199.308C318.107 199.249 317.74 199.117 317.447 198.912ZM327.704 197.812C327.44 197.607 327.147 197.343 326.824 197.02C326.531 196.697 326.428 196.243 326.516 195.656C326.604 194.835 326.721 194.116 326.868 193.5C327.015 192.855 327.191 192.121 327.396 191.3C327.455 190.948 327.601 190.347 327.836 189.496C328.1 188.645 328.408 187.721 328.76 186.724C329.112 185.727 329.479 184.788 329.86 183.908C330.241 182.999 330.579 182.324 330.872 181.884C331.195 181.591 331.664 181.444 332.28 181.444C332.925 181.444 333.365 181.561 333.6 181.796C333.923 182.06 334.025 182.529 333.908 183.204C333.791 183.849 333.38 184.861 332.676 186.24C332.529 186.592 332.339 186.973 332.104 187.384C331.899 187.765 331.752 188.088 331.664 188.352C331.576 188.587 331.605 188.689 331.752 188.66C331.928 188.337 332.251 187.971 332.72 187.56C333.189 187.12 333.688 186.695 334.216 186.284C334.744 185.873 335.243 185.507 335.712 185.184C336.181 184.861 336.504 184.656 336.68 184.568C336.915 184.421 337.179 184.304 337.472 184.216C337.795 184.099 338.015 184.011 338.132 183.952C338.807 183.629 339.54 183.512 340.332 183.6C341.153 183.659 341.652 183.908 341.828 184.348C341.857 184.583 341.945 184.759 342.092 184.876C342.268 184.993 342.356 185.052 342.356 185.052C342.473 185.052 342.532 185.096 342.532 185.184C342.561 185.272 342.576 185.316 342.576 185.316C342.576 185.521 342.371 185.815 341.96 186.196C341.579 186.577 341.153 186.783 340.684 186.812C340.303 186.841 339.965 186.915 339.672 187.032C339.379 187.149 339.027 187.296 338.616 187.472C337.501 188.117 336.489 188.689 335.58 189.188C334.7 189.687 333.791 190.449 332.852 191.476C332.647 191.711 332.427 191.931 332.192 192.136C331.957 192.341 331.723 192.635 331.488 193.016C331.341 193.163 331.195 193.485 331.048 193.984C330.901 194.483 330.769 194.967 330.652 195.436C330.564 195.876 330.52 196.14 330.52 196.228C330.52 196.228 330.476 196.375 330.388 196.668C330.3 196.932 330.153 197.196 329.948 197.46C329.596 197.929 329.244 198.223 328.892 198.34C328.569 198.457 328.173 198.281 327.704 197.812ZM349.763 198.076C349.675 198.105 349.485 198.091 349.191 198.032C348.927 197.973 348.649 197.9 348.355 197.812C348.091 197.724 347.93 197.651 347.871 197.592C347.754 197.475 347.593 197.269 347.387 196.976C347.182 196.653 347.065 196.228 347.035 195.7C347.035 195.172 347.285 194.541 347.783 193.808C347.93 193.515 348.106 193.075 348.311 192.488C348.517 191.901 348.722 191.285 348.927 190.64C349.162 189.965 349.367 189.364 349.543 188.836C349.749 188.308 349.895 187.941 349.983 187.736C350.042 187.237 350.013 186.885 349.895 186.68C349.807 186.445 349.558 186.313 349.147 186.284C348.854 186.284 348.619 186.181 348.443 185.976C348.297 185.771 348.223 185.404 348.223 184.876C348.282 184.465 348.385 184.113 348.531 183.82C348.707 183.497 348.942 183.233 349.235 183.028C349.529 182.881 349.895 182.779 350.335 182.72C350.805 182.661 351.259 182.647 351.699 182.676C352.139 182.705 352.447 182.808 352.623 182.984C352.829 183.101 352.99 183.365 353.107 183.776C353.254 184.157 353.371 184.553 353.459 184.964C353.547 185.375 353.606 185.683 353.635 185.888C353.929 185.653 354.251 185.331 354.603 184.92C354.985 184.48 355.366 184.069 355.747 183.688C356.217 183.365 356.774 183.043 357.419 182.72C358.065 182.368 358.534 182.192 358.827 182.192C359.15 182.192 359.546 182.353 360.015 182.676C360.485 182.969 360.778 183.233 360.895 183.468C361.189 183.967 361.394 184.495 361.511 185.052C361.658 185.58 361.57 186.049 361.247 186.46C360.954 186.841 360.543 187.223 360.015 187.604C359.487 187.956 358.827 188.059 358.035 187.912C357.859 187.853 357.669 187.633 357.463 187.252C357.287 186.871 357.185 186.592 357.155 186.416C357.155 186.328 357.023 186.416 356.759 186.68C356.525 186.915 356.231 187.208 355.879 187.56C355.557 187.912 355.249 188.235 354.955 188.528C354.457 189.144 353.929 189.98 353.371 191.036C352.814 192.092 352.154 193.368 351.391 194.864C351.039 195.597 350.746 196.301 350.511 196.976C350.277 197.621 350.027 197.988 349.763 198.076ZM370.063 199.792C368.449 199.792 367.203 199.323 366.323 198.384C365.472 197.445 365.047 196.008 365.047 194.072C365.047 193.016 365.237 191.857 365.619 190.596C366.029 189.335 366.557 188.103 367.203 186.9C367.877 185.697 368.611 184.656 369.403 183.776C370.195 182.867 370.987 182.236 371.779 181.884C372.072 181.737 372.38 181.635 372.703 181.576C373.055 181.488 373.392 181.444 373.715 181.444C374.067 181.444 374.448 181.473 374.859 181.532C375.299 181.561 375.709 181.649 376.091 181.796C376.765 182.001 377.352 182.397 377.851 182.984C378.379 183.571 378.643 184.421 378.643 185.536C378.643 185.829 378.613 186.152 378.555 186.504C378.496 186.827 378.393 187.149 378.247 187.472C377.865 188.44 377.279 189.364 376.487 190.244C375.724 191.124 374.917 191.74 374.067 192.092C373.832 192.209 373.597 192.297 373.363 192.356C373.157 192.385 372.937 192.4 372.703 192.4C372.087 192.4 371.529 192.312 371.031 192.136C370.561 191.96 370.121 191.725 369.711 191.432L369.359 191.124L369.139 191.564C368.933 192.121 368.787 192.591 368.699 192.972C368.64 193.353 368.611 193.632 368.611 193.808C368.611 194.16 368.625 194.527 368.655 194.908C368.684 195.26 368.772 195.553 368.919 195.788C369.036 195.935 369.183 196.052 369.359 196.14C369.564 196.228 369.813 196.272 370.107 196.272C370.283 196.272 370.444 196.272 370.591 196.272C370.767 196.243 370.913 196.213 371.031 196.184C371.559 196.067 371.984 195.876 372.307 195.612C372.659 195.319 373.025 195.069 373.407 194.864L373.583 194.776L373.539 194.644C374.037 194.38 374.375 194.219 374.551 194.16C374.727 194.072 374.859 193.999 374.947 193.94C375.064 193.823 375.196 193.764 375.343 193.764C375.753 193.705 376.149 193.823 376.531 194.116C376.941 194.38 377.147 194.717 377.147 195.128C377.147 195.304 377.015 195.583 376.751 195.964C376.516 196.345 376.208 196.727 375.827 197.108C375.475 197.46 375.108 197.739 374.727 197.944C374.639 197.973 374.551 198.017 374.463 198.076C374.375 198.105 374.287 198.149 374.199 198.208H374.243C373.979 198.56 373.715 198.736 373.451 198.736H373.099C372.981 198.941 372.6 199.161 371.955 199.396C371.309 199.66 370.679 199.792 370.063 199.792ZM372.351 189.188C372.615 189.188 372.849 189.144 373.055 189.056C373.289 188.968 373.509 188.865 373.715 188.748C374.419 188.249 374.873 187.604 375.079 186.812C375.284 186.02 375.211 185.419 374.859 185.008C374.8 184.92 374.727 184.861 374.639 184.832C374.551 184.773 374.448 184.744 374.331 184.744C374.008 184.744 373.641 184.847 373.231 185.052C372.849 185.257 372.468 185.551 372.087 185.932C371.705 186.313 371.353 186.768 371.031 187.296L370.459 188.22C370.517 188.191 370.561 188.176 370.591 188.176C370.649 188.147 370.693 188.132 370.723 188.132C370.987 188.132 371.163 188.22 371.251 188.396C371.339 188.572 371.441 188.748 371.559 188.924C371.705 189.1 371.969 189.188 372.351 189.188ZM386.122 197.504C386.005 197.504 385.726 197.401 385.286 197.196C384.846 196.961 384.567 196.785 384.45 196.668C384.245 196.433 384.113 196.184 384.054 195.92C383.995 195.627 383.966 195.069 383.966 194.248C383.966 193.309 384.157 192.253 384.538 191.08C384.919 189.877 385.565 188.279 386.474 186.284L388.278 182.632C388.425 182.427 388.557 182.251 388.674 182.104C388.791 181.928 388.923 181.767 389.07 181.62C389.129 181.62 389.202 181.62 389.29 181.62C389.407 181.62 389.495 181.635 389.554 181.664C389.818 181.693 390.229 181.855 390.786 182.148C391.373 182.441 391.725 182.881 391.842 183.468C391.842 183.849 391.783 184.304 391.666 184.832C391.549 185.331 391.197 185.991 390.61 186.812C390.375 187.105 390.141 187.531 389.906 188.088C389.701 188.645 389.51 189.173 389.334 189.672C389.305 189.731 389.217 189.877 389.07 190.112C388.953 190.317 388.835 190.537 388.718 190.772C388.601 190.977 388.542 191.109 388.542 191.168L388.366 191.564L390.258 189.716C391.578 188.396 392.693 187.457 393.602 186.9C394.511 186.343 395.274 186.108 395.89 186.196C396.535 186.284 397.049 186.651 397.43 187.296C397.635 187.589 397.782 187.912 397.87 188.264C397.958 188.587 398.017 188.968 398.046 189.408C398.075 189.848 398.061 190.405 398.002 191.08V193.588C398.559 193.441 398.985 193.324 399.278 193.236C399.571 193.119 399.865 193.016 400.158 192.928C400.393 192.869 400.627 192.811 400.862 192.752C401.126 192.693 401.449 192.649 401.83 192.62C401.801 193.001 401.639 193.471 401.346 194.028C401.053 194.585 400.686 195.143 400.246 195.7C399.835 196.257 399.381 196.727 398.882 197.108C398.413 197.489 397.973 197.68 397.562 197.68C397.181 197.68 396.741 197.563 396.242 197.328C395.743 197.064 395.318 196.565 394.966 195.832C394.849 195.451 394.731 195.011 394.614 194.512C394.497 194.013 394.438 193.485 394.438 192.928V190.992C394.438 190.816 394.423 190.699 394.394 190.64C394.394 190.552 394.379 190.508 394.35 190.508C394.233 190.508 393.851 190.816 393.206 191.432C392.59 192.048 391.959 192.693 391.314 193.368C389.965 194.776 388.835 195.817 387.926 196.492C387.046 197.167 386.445 197.504 386.122 197.504ZM410.673 199.044C410.351 198.985 409.999 198.795 409.617 198.472C409.236 198.12 408.884 197.739 408.561 197.328C408.268 196.888 408.077 196.521 407.989 196.228C407.989 196.169 407.945 196.096 407.857 196.008C407.799 195.92 407.769 195.876 407.769 195.876C407.652 195.788 407.579 195.407 407.549 194.732C407.549 194.028 407.593 193.251 407.681 192.4C407.769 191.549 407.872 190.875 407.989 190.376C408.136 189.907 408.356 189.276 408.649 188.484C408.943 187.663 409.192 186.929 409.397 186.284L410.585 183.732L408.825 183.248C408.62 183.189 408.444 183.072 408.297 182.896C408.18 182.72 408.121 182.573 408.121 182.456C408.121 182.221 408.253 181.884 408.517 181.444C408.781 181.004 408.972 180.784 409.089 180.784C409.236 180.813 409.5 180.828 409.881 180.828C410.292 180.828 410.688 180.813 411.069 180.784C411.451 180.755 411.685 180.725 411.773 180.696C411.891 180.637 412.008 180.564 412.125 180.476C412.243 180.359 412.331 180.197 412.389 179.992C412.536 179.669 412.668 179.42 412.785 179.244C412.903 179.068 413.064 178.804 413.269 178.452C413.475 178.071 413.636 177.748 413.753 177.484C413.9 177.22 414.12 176.853 414.413 176.384C414.56 176.179 414.721 175.929 414.897 175.636C415.073 175.343 415.293 175.093 415.557 174.888C415.821 174.653 416.247 174.492 416.833 174.404C417.449 174.287 417.977 174.419 418.417 174.8C418.652 175.093 418.784 175.372 418.813 175.636C418.843 175.9 418.725 176.237 418.461 176.648C418.227 177.147 417.948 177.601 417.625 178.012C417.332 178.393 417.053 178.833 416.789 179.332C416.32 179.977 416.232 180.344 416.525 180.432C416.819 180.52 417.64 180.461 418.989 180.256C419.84 180.109 420.456 180.197 420.837 180.52C421.219 180.843 421.439 181.253 421.497 181.752C421.585 182.456 421.512 182.881 421.277 183.028C421.043 183.175 420.368 183.248 419.253 183.248C418.549 183.365 417.948 183.439 417.449 183.468C416.951 183.468 416.584 183.468 416.349 183.468C415.968 183.497 415.719 183.512 415.601 183.512C415.484 183.512 415.308 183.541 415.073 183.6C414.839 183.659 414.663 183.761 414.545 183.908C414.457 184.025 414.355 184.201 414.237 184.436C414.12 184.553 413.944 184.861 413.709 185.36C413.475 185.859 413.181 186.401 412.829 186.988C412.419 188.22 412.067 189.408 411.773 190.552C411.509 191.667 411.275 192.781 411.069 193.896C410.981 194.453 410.996 194.864 411.113 195.128C411.26 195.363 411.641 195.509 412.257 195.568C412.58 195.597 413.049 195.597 413.665 195.568C414.281 195.509 414.795 195.421 415.205 195.304C415.528 195.157 415.865 195.011 416.217 194.864C416.569 194.688 416.892 194.512 417.185 194.336C417.449 194.189 417.713 194.043 417.977 193.896C418.241 193.72 418.373 193.632 418.373 193.632C418.52 193.397 418.725 193.441 418.989 193.764C419.283 194.057 419.488 194.38 419.605 194.732C419.605 195.084 419.532 195.509 419.385 196.008C419.239 196.477 418.696 196.976 417.757 197.504C416.437 198.325 415.117 198.824 413.797 199C412.477 199.176 411.436 199.191 410.673 199.044ZM443.64 200.54C442.555 199.748 441.689 199.015 441.044 198.34C440.428 197.636 440.091 196.961 440.032 196.316C439.973 195.788 439.973 195.069 440.032 194.16C440.12 193.251 440.223 192.356 440.34 191.476C440.457 190.596 440.56 189.936 440.648 189.496C440.795 189.349 440.853 189.159 440.824 188.924C440.824 188.66 440.824 188.528 440.824 188.528C440.795 188.381 440.897 188 441.132 187.384C441.367 186.739 441.587 185.917 441.792 184.92C442.379 183.16 442.936 181.693 443.464 180.52C444.021 179.317 444.564 178.291 445.092 177.44C445.62 176.589 446.148 175.812 446.676 175.108C447.879 173.876 449.008 172.893 450.064 172.16C451.149 171.427 452.147 170.855 453.056 170.444C453.643 170.092 454.185 169.813 454.684 169.608C455.183 169.403 455.593 169.373 455.916 169.52C457.559 169.872 458.952 170.591 460.096 171.676C461.24 172.761 462.003 174.331 462.384 176.384C462.589 177.675 462.707 178.848 462.736 179.904C462.795 180.931 462.721 181.957 462.516 182.984C462.311 183.981 461.929 185.081 461.372 186.284C460.844 187.487 460.096 188.895 459.128 190.508C457.925 192.884 456.605 194.879 455.168 196.492C453.76 198.076 452.337 199.279 450.9 200.1C449.492 200.921 448.143 201.361 446.852 201.42C445.591 201.508 444.52 201.215 443.64 200.54ZM447.16 197.636C447.835 197.548 448.377 197.416 448.788 197.24C449.228 197.064 449.683 196.727 450.152 196.228C450.621 195.729 451.281 194.996 452.132 194.028C452.895 193.148 453.525 192.4 454.024 191.784C454.552 191.168 454.992 190.537 455.344 189.892C455.725 189.247 456.077 188.484 456.4 187.604C456.752 186.695 457.133 185.536 457.544 184.128C457.779 183.248 457.94 182.603 458.028 182.192C458.145 181.752 458.219 181.385 458.248 181.092C458.277 180.799 458.277 180.403 458.248 179.904C458.248 179.376 458.248 178.584 458.248 177.528C458.219 177.029 458.116 176.472 457.94 175.856C457.764 175.211 457.559 174.756 457.324 174.492C457.031 174.169 456.591 173.891 456.004 173.656C455.417 173.421 454.801 173.451 454.156 173.744C453.804 173.891 453.364 174.199 452.836 174.668C452.308 175.108 451.765 175.636 451.208 176.252C450.651 176.868 450.123 177.484 449.624 178.1C449.125 178.716 448.729 179.273 448.436 179.772C448.143 180.271 447.996 180.623 447.996 180.828C447.996 180.828 447.981 180.901 447.952 181.048C447.952 181.195 447.893 181.341 447.776 181.488C447.395 181.899 446.999 182.573 446.588 183.512C446.177 184.451 445.796 185.521 445.444 186.724C445.092 187.927 444.799 189.129 444.564 190.332C444.329 191.535 444.183 192.62 444.124 193.588C444.124 194.057 444.124 194.453 444.124 194.776C444.124 195.099 444.153 195.392 444.212 195.656C444.3 195.891 444.432 196.155 444.608 196.448C444.784 196.741 445.136 197.035 445.664 197.328C446.221 197.621 446.72 197.724 447.16 197.636ZM469.419 198.648C468.774 198.648 468.29 198.619 467.967 198.56C467.674 198.501 467.454 198.413 467.307 198.296C467.16 198.179 466.97 198.017 466.735 197.812C466.618 197.577 466.412 197.284 466.119 196.932C465.826 196.551 465.62 196.301 465.503 196.184C465.386 195.744 465.342 195.143 465.371 194.38C465.43 193.617 465.562 192.796 465.767 191.916C465.972 191.036 466.222 190.244 466.515 189.54C466.632 189.305 466.735 189.071 466.823 188.836C466.911 188.601 466.955 188.484 466.955 188.484C466.955 188.337 467.131 187.985 467.483 187.428C467.864 186.871 468.275 186.284 468.715 185.668C469.184 185.052 469.566 184.612 469.859 184.348C470.064 184.113 470.372 183.864 470.783 183.6C471.223 183.336 471.604 183.145 471.927 183.028C472.25 182.911 472.69 182.764 473.247 182.588C473.804 182.383 474.303 182.28 474.743 182.28C475.154 182.28 475.594 182.368 476.063 182.544C476.532 182.72 476.928 183.028 477.251 183.468C477.779 183.996 478.116 184.627 478.263 185.36C478.41 186.093 478.424 186.724 478.307 187.252C478.16 187.839 477.867 188.323 477.427 188.704C476.987 189.056 476.518 189.247 476.019 189.276C475.52 189.276 475.08 189.071 474.699 188.66C474.582 188.425 474.523 188.235 474.523 188.088C474.523 187.912 474.582 187.663 474.699 187.34C474.816 186.929 474.875 186.563 474.875 186.24C474.875 185.917 474.743 185.756 474.479 185.756C474.098 185.756 473.79 185.873 473.555 186.108C473.32 186.313 472.968 186.665 472.499 187.164C472.294 187.399 472.03 187.736 471.707 188.176C471.384 188.616 471.062 189.1 470.739 189.628C470.446 190.127 470.182 190.64 469.947 191.168C469.624 192.136 469.419 192.767 469.331 193.06C469.272 193.324 469.243 193.456 469.243 193.456C469.243 193.573 469.228 193.691 469.199 193.808C469.17 193.896 469.155 193.999 469.155 194.116C469.155 194.468 469.36 194.747 469.771 194.952C470.094 195.157 470.358 195.26 470.563 195.26C470.798 195.231 471.238 195.069 471.883 194.776C472.352 194.541 472.792 194.233 473.203 193.852C473.643 193.471 474.098 193.133 474.567 192.84C474.89 192.635 475.139 192.459 475.315 192.312C475.52 192.165 475.623 192.151 475.623 192.268C475.623 192.385 475.667 192.444 475.755 192.444C475.843 192.444 475.946 192.385 476.063 192.268C476.239 192.033 476.459 191.945 476.723 192.004C476.987 192.033 477.222 192.107 477.427 192.224C477.662 192.341 477.779 192.444 477.779 192.532C477.72 192.796 477.779 193.016 477.955 193.192C477.955 193.309 477.911 193.471 477.823 193.676C477.764 193.852 477.676 193.999 477.559 194.116C477.412 194.321 477.192 194.615 476.899 194.996C476.635 195.377 476.386 195.715 476.151 196.008C475.916 196.301 475.799 196.448 475.799 196.448C475.682 196.419 475.564 196.448 475.447 196.536C475.359 196.624 475.256 196.727 475.139 196.844C474.904 197.049 474.684 197.211 474.479 197.328C474.274 197.416 474.112 197.46 473.995 197.46C473.79 197.577 473.628 197.651 473.511 197.68C473.423 197.709 473.379 197.783 473.379 197.9C473.086 198.193 472.558 198.399 471.795 198.516C471.032 198.604 470.24 198.648 469.419 198.648ZM491.434 198.604C491.053 198.78 490.613 198.853 490.114 198.824C489.616 198.795 488.941 198.633 488.09 198.34C488.032 198.34 487.826 198.208 487.474 197.944C487.122 197.68 486.77 197.372 486.418 197.02C486.066 196.668 485.832 196.375 485.714 196.14C485.245 195.465 485.098 194.468 485.274 193.148C485.48 191.828 485.949 190.244 486.682 188.396C486.888 187.956 487.196 187.399 487.606 186.724C488.046 186.049 488.472 185.433 488.882 184.876C489.322 184.289 489.63 183.952 489.806 183.864C489.806 183.864 489.968 183.805 490.29 183.688C490.613 183.571 491.024 183.38 491.522 183.116C491.669 183.057 491.918 182.984 492.27 182.896C492.652 182.808 493.033 182.735 493.414 182.676C493.825 182.588 494.104 182.559 494.25 182.588C494.837 182.617 495.438 182.837 496.054 183.248C496.7 183.629 497.228 184.084 497.638 184.612C498.049 185.111 498.181 185.551 498.034 185.932C498.034 185.991 497.946 186.181 497.77 186.504C497.624 186.797 497.462 187.105 497.286 187.428C497.11 187.721 496.964 187.941 496.846 188.088C496.7 188.264 496.436 188.337 496.054 188.308C495.702 188.279 495.38 188.161 495.086 187.956C494.793 187.751 494.632 187.472 494.602 187.12C494.544 186.885 494.324 186.665 493.942 186.46C493.59 186.255 493.414 186.152 493.414 186.152C493.18 186.152 492.872 186.387 492.49 186.856C492.109 187.325 491.713 187.853 491.302 188.44C490.774 188.968 490.393 189.54 490.158 190.156C489.953 190.743 489.806 191.3 489.718 191.828C489.66 192.327 489.586 192.708 489.498 192.972C489.381 193.265 489.381 193.632 489.498 194.072C489.616 194.512 489.762 194.761 489.938 194.82C490.202 194.849 490.554 194.835 490.994 194.776C491.464 194.688 491.948 194.585 492.446 194.468C492.974 194.321 493.502 194.175 494.03 194.028C494.558 193.852 495.028 193.676 495.438 193.5C495.996 193.148 496.48 193.016 496.89 193.104C497.301 193.163 497.609 193.221 497.814 193.28C498.137 193.397 498.298 193.647 498.298 194.028C498.298 194.409 498.166 194.82 497.902 195.26C497.638 195.671 497.257 196.008 496.758 196.272C496.289 196.507 495.864 196.771 495.482 197.064C495.13 197.328 494.954 197.533 494.954 197.68C494.837 197.68 494.705 197.724 494.558 197.812C494.441 197.871 494.338 197.885 494.25 197.856C494.192 197.856 493.957 197.9 493.546 197.988C493.136 198.076 492.71 198.179 492.27 198.296C491.86 198.413 491.581 198.516 491.434 198.604ZM515.627 198.912C515.334 198.619 515.099 198.223 514.923 197.724C514.747 197.196 514.571 196.595 514.395 195.92C514.337 195.685 514.307 195.421 514.307 195.128C514.337 194.835 514.337 194.6 514.307 194.424C514.219 194.629 514.073 194.893 513.867 195.216C513.691 195.539 513.515 195.773 513.339 195.92C513.222 196.037 512.958 196.272 512.547 196.624C512.137 196.947 511.726 197.211 511.315 197.416C510.347 198.032 509.482 198.325 508.719 198.296C507.986 198.237 507.341 197.856 506.783 197.152C506.314 196.771 505.933 196.287 505.639 195.7C505.346 195.113 505.287 194.409 505.463 193.588C505.522 192.561 505.669 191.564 505.903 190.596C506.138 189.599 506.622 188.279 507.355 186.636C507.971 185.433 508.441 184.495 508.763 183.82C509.086 183.145 509.291 182.749 509.379 182.632C509.819 182.485 510.362 182.5 511.007 182.676C511.653 182.823 512.005 183.101 512.063 183.512C512.239 183.805 512.239 184.363 512.063 185.184C511.887 185.976 511.535 186.885 511.007 187.912C510.597 188.909 510.201 189.877 509.819 190.816C509.467 191.755 509.247 192.547 509.159 193.192C509.101 193.837 509.277 194.233 509.687 194.38C509.951 194.527 510.333 194.512 510.831 194.336C511.359 194.16 511.975 193.632 512.679 192.752C513.383 191.872 514.131 190.479 514.923 188.572C515.158 187.985 515.334 187.472 515.451 187.032C515.569 186.563 515.642 186.049 515.671 185.492C515.613 185.14 515.701 184.773 515.935 184.392C516.199 184.011 516.507 183.717 516.859 183.512C516.977 183.365 517.138 183.233 517.343 183.116C517.549 182.969 517.681 182.969 517.739 183.116L518.443 183.072C518.561 183.043 518.693 183.16 518.839 183.424C518.986 183.688 519.133 183.879 519.279 183.996C519.602 184.26 519.749 184.832 519.719 185.712C519.69 186.592 519.338 187.824 518.663 189.408C518.106 190.611 517.725 191.52 517.519 192.136C517.343 192.752 517.241 193.353 517.211 193.94C517.211 194.468 517.255 194.923 517.343 195.304C517.431 195.656 517.695 196.023 518.135 196.404C518.458 196.609 518.634 196.961 518.663 197.46C518.722 197.929 518.737 198.34 518.707 198.692C518.649 198.956 518.414 199.132 518.003 199.22C517.622 199.337 517.197 199.367 516.727 199.308C516.287 199.249 515.921 199.117 515.627 198.912ZM523.332 209.252C523.215 209.252 523.039 209.252 522.804 209.252C522.599 209.281 522.423 209.164 522.276 208.9C522.159 208.753 521.983 208.46 521.748 208.02C521.514 207.609 521.47 207.023 521.616 206.26C521.763 205.761 521.88 205.263 521.968 204.764C522.056 204.295 522.1 203.943 522.1 203.708C522.1 203.591 522.13 203.356 522.188 203.004C522.276 202.681 522.32 202.447 522.32 202.3C522.467 202.065 522.584 201.743 522.672 201.332C522.76 200.921 522.804 200.555 522.804 200.232C522.804 199.88 522.98 199.557 523.332 199.264C523.332 199.029 523.376 198.736 523.464 198.384C523.582 198.032 523.64 197.797 523.64 197.68C523.728 197.269 523.919 196.551 524.212 195.524C524.535 194.468 524.916 193.28 525.356 191.96C525.826 190.64 526.28 189.349 526.72 188.088C527.16 186.827 527.556 185.756 527.908 184.876C528.26 184.055 528.554 183.292 528.788 182.588C529.023 181.884 529.14 181.385 529.14 181.092C529.14 180.975 529.17 180.887 529.228 180.828C529.287 180.74 529.419 180.579 529.624 180.344C529.918 180.051 530.299 179.948 530.768 180.036C531.267 180.095 531.678 180.241 532 180.476C532.235 180.857 532.396 181.209 532.484 181.532C532.602 181.825 532.602 182.295 532.484 182.94C532.484 183.38 532.382 183.791 532.176 184.172C531.971 184.524 531.78 184.817 531.604 185.052C531.458 185.257 531.414 185.345 531.472 185.316C532.763 184.524 533.922 184.099 534.948 184.04C536.004 183.952 536.884 184.128 537.588 184.568C538.322 184.979 538.879 185.551 539.26 186.284C539.642 187.017 539.832 187.809 539.832 188.66C539.832 189.012 539.715 189.481 539.48 190.068C539.246 190.655 538.982 191.212 538.688 191.74C538.395 192.239 538.16 192.576 537.984 192.752C537.867 192.752 537.75 192.855 537.632 193.06C537.515 193.236 537.398 193.441 537.28 193.676C537.046 193.969 536.65 194.307 536.092 194.688C535.564 195.04 535.022 195.333 534.464 195.568C533.907 195.773 533.511 195.832 533.276 195.744C533.276 195.744 533.232 195.773 533.144 195.832C533.086 195.891 533.056 195.993 533.056 196.14C533.056 196.199 532.851 196.316 532.44 196.492C532.03 196.668 531.546 196.829 530.988 196.976C530.431 197.123 529.918 197.196 529.448 197.196C528.832 197.196 528.392 197.079 528.128 196.844C528.07 196.903 527.996 196.991 527.908 197.108C527.85 197.225 527.82 197.328 527.82 197.416C527.82 197.592 527.747 197.871 527.6 198.252C527.483 198.633 527.336 198.971 527.16 199.264C526.984 199.587 526.823 199.748 526.676 199.748C526.676 199.748 526.647 199.792 526.588 199.88C526.53 199.968 526.559 200.085 526.676 200.232C526.676 200.232 526.662 200.393 526.632 200.716C526.632 201.068 526.559 201.361 526.412 201.596C526.412 201.831 526.368 202.183 526.28 202.652C526.192 203.121 526.09 203.473 525.972 203.708C525.972 204.06 525.914 204.397 525.796 204.72C525.708 205.072 525.606 205.248 525.488 205.248C525.371 205.277 525.298 205.453 525.268 205.776C525.239 206.128 525.224 206.377 525.224 206.524C525.195 207.257 524.96 207.888 524.52 208.416C524.08 208.973 523.684 209.252 523.332 209.252ZM528.964 193.852C529.199 193.852 529.624 193.749 530.24 193.544C530.856 193.339 531.502 193.089 532.176 192.796C532.851 192.473 533.379 192.151 533.76 191.828C534.523 191.153 535.11 190.493 535.52 189.848C535.96 189.203 535.931 188.484 535.432 187.692C535.198 187.281 534.816 187.12 534.288 187.208C533.79 187.267 533.232 187.501 532.616 187.912C532 188.323 531.37 188.836 530.724 189.452C530.372 189.833 530.05 190.273 529.756 190.772C529.463 191.271 529.214 191.755 529.008 192.224C528.832 192.693 528.73 193.089 528.7 193.412C528.671 193.705 528.759 193.852 528.964 193.852ZM549.113 198.384C548.879 198.443 548.571 198.472 548.189 198.472C547.808 198.443 547.471 198.399 547.177 198.34C546.913 198.252 546.781 198.164 546.781 198.076C546.781 197.929 546.708 197.856 546.561 197.856C546.561 197.856 546.4 197.739 546.077 197.504C545.755 197.24 545.461 197.049 545.197 196.932C544.933 196.521 544.757 196.052 544.669 195.524C544.611 194.967 544.787 193.999 545.197 192.62C545.227 191.681 545.491 190.699 545.989 189.672C546.488 188.616 547.119 187.589 547.881 186.592C548.644 185.595 549.436 184.715 550.257 183.952C551.079 183.16 551.812 182.573 552.457 182.192C552.868 181.781 553.411 181.561 554.085 181.532C554.789 181.503 555.405 181.635 555.933 181.928C556.227 182.075 556.549 182.368 556.901 182.808C557.253 183.248 557.591 183.717 557.913 184.216C558.236 184.685 558.485 185.111 558.661 185.492C558.749 185.815 558.823 186.108 558.881 186.372C558.969 186.607 559.028 186.9 559.057 187.252C559.087 187.604 559.057 188.132 558.969 188.836C558.823 189.364 558.691 189.907 558.573 190.464C558.485 190.992 558.441 191.535 558.441 192.092C558.383 192.649 558.441 193.045 558.617 193.28C558.823 193.515 559.116 193.529 559.497 193.324C559.849 193.148 560.216 193.133 560.597 193.28C560.979 193.397 561.243 193.632 561.389 193.984C561.565 194.307 561.521 194.732 561.257 195.26C561.081 195.641 560.803 196.008 560.421 196.36C560.04 196.712 559.615 197.005 559.145 197.24C558.676 197.445 558.221 197.548 557.781 197.548C557.459 197.548 557.136 197.431 556.813 197.196C556.491 196.932 556.197 196.58 555.933 196.14C555.669 195.7 555.449 195.216 555.273 194.688L555.009 193.676L553.425 195.128C553.044 195.539 552.663 195.92 552.281 196.272C551.929 196.595 551.709 196.829 551.621 196.976C551.475 197.24 551.181 197.475 550.741 197.68C550.331 197.885 549.788 198.12 549.113 198.384ZM550.301 194.16C550.8 193.867 551.225 193.515 551.577 193.104C551.959 192.693 552.325 192.239 552.677 191.74C553.029 191.212 553.411 190.655 553.821 190.068C554.32 189.393 554.672 188.851 554.877 188.44C555.112 188.029 555.288 187.589 555.405 187.12C555.288 186.797 555.127 186.46 554.921 186.108C554.716 185.727 554.511 185.521 554.305 185.492C553.895 185.492 553.396 185.741 552.809 186.24C552.252 186.739 551.636 187.457 550.961 188.396C550.844 188.543 550.697 188.777 550.521 189.1C550.345 189.423 550.169 189.731 549.993 190.024C549.847 190.288 549.744 190.464 549.685 190.552C549.597 190.669 549.465 190.948 549.289 191.388C549.143 191.799 549.011 192.224 548.893 192.664C548.776 193.075 548.717 193.368 548.717 193.544C548.717 193.72 548.732 193.911 548.761 194.116C548.82 194.321 548.967 194.453 549.201 194.512C549.436 194.571 549.803 194.453 550.301 194.16ZM580.8 198.824C580.36 198.824 579.935 198.692 579.524 198.428C579.113 198.135 578.776 197.739 578.512 197.24C578.248 196.712 578.116 196.096 578.116 195.392C578.116 194.952 578.189 194.336 578.336 193.544C578.512 192.723 578.761 191.696 579.084 190.464C579.143 190.053 579.187 189.789 579.216 189.672C579.275 189.555 579.304 189.437 579.304 189.32C579.304 189.261 579.289 189.217 579.26 189.188C579.26 189.129 579.231 189.1 579.172 189.1C578.937 189.1 578.615 189.261 578.204 189.584C577.823 189.877 577.383 190.229 576.884 190.64C576.796 190.699 576.693 190.772 576.576 190.86C576.488 190.948 576.385 191.036 576.268 191.124C576.18 191.212 576.077 191.3 575.96 191.388C575.667 191.564 575.212 191.901 574.596 192.4C574.009 192.899 573.393 193.427 572.748 193.984C572.132 194.541 571.589 195.011 571.12 195.392C570.885 195.568 570.68 195.715 570.504 195.832C570.357 195.949 570.255 196.008 570.196 196.008C570.137 196.008 569.903 195.935 569.492 195.788C569.111 195.612 568.729 195.377 568.348 195.084C567.996 194.761 567.82 194.395 567.82 193.984C567.82 193.72 567.923 193.192 568.128 192.4C568.363 191.608 568.685 190.669 569.096 189.584C569.507 188.499 569.976 187.399 570.504 186.284C570.621 186.02 570.709 185.668 570.768 185.228C570.827 184.788 570.885 184.363 570.944 183.952C571.032 183.512 571.179 183.189 571.384 182.984C571.472 182.837 571.575 182.735 571.692 182.676C571.839 182.588 571.985 182.544 572.132 182.544C572.425 182.544 572.704 182.617 572.968 182.764C573.232 182.881 573.481 183.087 573.716 183.38C574.156 183.849 574.391 184.407 574.42 185.052C574.479 185.668 574.435 186.269 574.288 186.856C574.141 187.443 573.98 187.927 573.804 188.308C573.628 188.66 573.54 188.807 573.54 188.748C573.657 188.689 573.819 188.543 574.024 188.308C574.259 188.073 574.655 187.795 575.212 187.472C575.975 186.885 576.561 186.475 576.972 186.24C577.383 185.976 577.691 185.785 577.896 185.668C578.131 185.551 578.336 185.419 578.512 185.272C578.659 185.155 578.761 185.081 578.82 185.052C578.908 185.023 578.952 185.008 578.952 185.008C579.04 185.008 579.187 184.949 579.392 184.832C579.627 184.715 579.847 184.656 580.052 184.656C580.345 184.656 580.653 184.729 580.976 184.876C581.299 184.993 581.577 185.169 581.812 185.404C582.047 185.609 582.164 185.829 582.164 186.064C582.164 186.152 582.193 186.225 582.252 186.284C582.311 186.343 582.369 186.416 582.428 186.504C582.575 186.68 582.736 186.929 582.912 187.252C583.117 187.545 583.22 188.029 583.22 188.704C583.22 189.173 583.117 189.863 582.912 190.772C582.707 191.681 582.487 192.576 582.252 193.456C582.017 194.365 581.9 195.099 581.9 195.656C581.929 196.184 581.988 196.595 582.076 196.888C582.164 197.152 582.208 197.372 582.208 197.548C582.208 197.783 582.091 198.061 581.856 198.384C581.621 198.677 581.269 198.824 580.8 198.824ZM596.991 198.604C596.61 198.78 596.17 198.853 595.671 198.824C595.173 198.795 594.498 198.633 593.647 198.34C593.589 198.34 593.383 198.208 593.031 197.944C592.679 197.68 592.327 197.372 591.975 197.02C591.623 196.668 591.389 196.375 591.271 196.14C590.802 195.465 590.655 194.468 590.831 193.148C591.037 191.828 591.506 190.244 592.239 188.396C592.445 187.956 592.753 187.399 593.163 186.724C593.603 186.049 594.029 185.433 594.439 184.876C594.879 184.289 595.187 183.952 595.363 183.864C595.363 183.864 595.525 183.805 595.847 183.688C596.17 183.571 596.581 183.38 597.079 183.116C597.226 183.057 597.475 182.984 597.827 182.896C598.209 182.808 598.59 182.735 598.971 182.676C599.382 182.588 599.661 182.559 599.807 182.588C600.394 182.617 600.995 182.837 601.611 183.248C602.257 183.629 602.785 184.084 603.195 184.612C603.606 185.111 603.738 185.551 603.591 185.932C603.591 185.991 603.503 186.181 603.327 186.504C603.181 186.797 603.019 187.105 602.843 187.428C602.667 187.721 602.521 187.941 602.403 188.088C602.257 188.264 601.993 188.337 601.611 188.308C601.259 188.279 600.937 188.161 600.643 187.956C600.35 187.751 600.189 187.472 600.159 187.12C600.101 186.885 599.881 186.665 599.499 186.46C599.147 186.255 598.971 186.152 598.971 186.152C598.737 186.152 598.429 186.387 598.047 186.856C597.666 187.325 597.27 187.853 596.859 188.44C596.331 188.968 595.95 189.54 595.715 190.156C595.51 190.743 595.363 191.3 595.275 191.828C595.217 192.327 595.143 192.708 595.055 192.972C594.938 193.265 594.938 193.632 595.055 194.072C595.173 194.512 595.319 194.761 595.495 194.82C595.759 194.849 596.111 194.835 596.551 194.776C597.021 194.688 597.505 194.585 598.003 194.468C598.531 194.321 599.059 194.175 599.587 194.028C600.115 193.852 600.585 193.676 600.995 193.5C601.553 193.148 602.037 193.016 602.447 193.104C602.858 193.163 603.166 193.221 603.371 193.28C603.694 193.397 603.855 193.647 603.855 194.028C603.855 194.409 603.723 194.82 603.459 195.26C603.195 195.671 602.814 196.008 602.315 196.272C601.846 196.507 601.421 196.771 601.039 197.064C600.687 197.328 600.511 197.533 600.511 197.68C600.394 197.68 600.262 197.724 600.115 197.812C599.998 197.871 599.895 197.885 599.807 197.856C599.749 197.856 599.514 197.9 599.103 197.988C598.693 198.076 598.267 198.179 597.827 198.296C597.417 198.413 597.138 198.516 596.991 198.604ZM610.184 208.152C609.128 208.357 608.116 208.387 607.148 208.24C606.18 208.123 605.374 207.873 604.728 207.492C604.054 207.111 603.643 206.685 603.496 206.216C603.32 205.541 603.408 205.043 603.76 204.72C604.112 204.397 604.538 204.207 605.036 204.148C605.506 204.089 605.814 204.148 605.96 204.324C606.195 204.471 606.562 204.691 607.06 204.984C607.588 205.277 608.234 205.351 608.996 205.204C609.671 205.057 610.272 204.735 610.8 204.236C611.328 203.737 611.798 203.209 612.208 202.652C612.443 202.3 612.839 201.669 613.396 200.76C613.954 199.851 614.526 198.853 615.112 197.768C615.728 196.653 616.242 195.627 616.652 194.688C616.74 194.453 616.843 194.175 616.96 193.852C617.078 193.529 617.224 193.265 617.4 193.06C617.576 192.708 617.723 192.385 617.84 192.092C617.987 191.769 618.075 191.549 618.104 191.432C618.134 191.285 618.266 190.992 618.5 190.552C618.735 190.112 618.955 189.672 619.16 189.232C619.307 188.792 619.527 188.147 619.82 187.296C620.114 186.445 620.407 185.756 620.7 185.228C621.052 184.553 621.331 184.011 621.536 183.6C621.771 183.16 622.02 182.896 622.284 182.808C622.548 182.603 622.798 182.5 623.032 182.5C623.267 182.5 623.546 182.588 623.868 182.764C624.22 183.116 624.499 183.468 624.704 183.82C624.939 184.143 625.027 184.553 624.968 185.052C624.939 185.521 624.704 186.167 624.264 186.988C624.03 187.692 623.766 188.337 623.472 188.924C623.208 189.481 623.003 189.848 622.856 190.024C622.71 190.376 622.534 190.772 622.328 191.212C622.152 191.623 621.991 192.004 621.844 192.356C621.316 193.529 620.862 194.483 620.48 195.216C620.099 195.949 619.762 196.624 619.468 197.24C619.175 197.856 618.867 198.575 618.544 199.396C617.87 200.481 617.21 201.508 616.564 202.476C615.948 203.473 615.288 204.397 614.584 205.248C614.291 205.512 613.866 205.849 613.308 206.26C612.78 206.7 612.223 207.096 611.636 207.448C611.079 207.829 610.595 208.064 610.184 208.152ZM615.684 198.208C615.244 198.149 614.76 197.856 614.232 197.328C613.734 196.8 613.308 196.243 612.956 195.656C612.634 195.069 612.502 194.659 612.56 194.424C612.56 194.277 612.56 194.16 612.56 194.072C612.56 193.984 612.56 193.94 612.56 193.94C612.384 193.94 612.238 193.691 612.12 193.192C612.032 192.664 611.959 192.004 611.9 191.212C611.871 190.42 611.856 189.599 611.856 188.748C611.886 187.897 611.93 187.12 611.988 186.416C612.106 185.917 612.164 185.375 612.164 184.788C612.164 184.172 612.179 183.688 612.208 183.336C612.179 182.867 612.267 182.485 612.472 182.192C612.707 181.899 612.883 181.708 613 181.62C614.086 181.151 614.878 181.4 615.376 182.368C615.875 183.336 616.051 184.876 615.904 186.988C615.846 188.161 615.816 189.291 615.816 190.376C615.816 191.432 615.919 192.341 616.124 193.104C616.33 193.867 616.682 194.409 617.18 194.732C617.386 194.849 617.459 195.099 617.4 195.48C617.342 195.861 617.21 196.272 617.004 196.712C616.799 197.123 616.564 197.489 616.3 197.812C616.066 198.105 615.86 198.237 615.684 198.208Z" fill="#B8C318"/>
</svg>
