<svg width="900" height="250" viewBox="0 0 900 250" fill="none" xmlns="http://www.w3.org/2000/svg">
<rect width="900" height="220" rx="60" fill="#FDFDFB"/>
<rect x="5.5" y="35.5" width="889" height="209" rx="54.5" fill="#FDFDFB" stroke="#B8C318" stroke-width="11"/>
<rect width="385" height="172" transform="translate(257 54)" fill="#FDFDFB"/>
<path d="M301.06 96.26V93.26H273.58V96.26H301.06ZM301.06 104V100.94H273.58V104H301.06ZM308.32 88.22V109.04H266.68V88.22H308.32ZM291.76 128.66V134.48C293.32 134.6 294.94 134.66 296.56 134.66C299.92 134.66 311.44 134.66 315.7 134.48C314.74 136.1 313.66 139.22 313.3 141.26H296.2C285.22 141.26 277.78 139.76 272.74 132.8C270.58 136.76 267.82 139.94 264.34 142.34C263.32 141.02 260.56 138.38 258.94 137.36C265.06 133.58 268.72 127.22 270.1 119.18L277.24 120.26C276.82 122.18 276.34 123.98 275.86 125.72C277.72 129.8 280.66 132.02 284.5 133.22V117.98H261.1V111.68H314.02V117.98H291.76V122.48H310.24V128.66H291.76ZM346.72 121.4L341.98 123.2C341.8 122.42 341.56 121.58 341.32 120.62C329.86 122.42 327.7 123.02 326.38 123.68C326.08 122.42 325.06 119.42 324.34 117.68C325.78 117.32 327.1 116 328.96 113.66C329.74 112.82 331.12 110.96 332.74 108.56C328.18 109.16 326.86 109.46 325.96 109.88C325.6 108.56 324.58 105.56 323.92 103.88C325 103.58 325.9 102.44 327.04 100.7C328.18 99.02 331.66 92.48 333.52 86.24L339.82 88.7C337.84 93.56 335.14 98.78 332.32 102.98L336.46 102.68C337.96 100.1 339.46 97.16 340.72 94.34L346.36 97.82C342.88 104.24 338.5 110.78 333.94 116.3L339.76 115.52C339.28 113.9 338.74 112.34 338.2 110.9L342.64 109.52C344.2 113.3 345.94 118.34 346.72 121.4ZM357.46 122.06L352.54 125.66C351.34 123.56 348.7 120.2 346.54 117.74L351.22 114.56C353.38 116.78 356.14 119.96 357.46 122.06ZM326.08 125.6L331.42 126.68C330.94 131.48 329.86 137.18 329.08 140.72C327.76 140.06 325.18 139.52 323.86 139.22C324.82 135.62 325.6 130.22 326.08 125.6ZM332.62 126.38L337.48 125.18C338.26 129.08 338.92 134.12 339.1 137.54L333.94 138.86C333.88 135.38 333.28 130.28 332.62 126.38ZM355.96 125.36L358.12 130.58C354.64 133.1 350.68 135.68 347.44 137.78L345.4 134.9L342.16 136.1C341.62 133.1 340.24 128.42 339.04 124.94L343.54 123.38C344.5 125.96 345.52 128.9 346.24 131.48C349.06 129.8 352.48 127.58 355.96 125.36ZM356.26 99.2H366.52L367.18 95.78H357.1L356.26 99.2ZM380.26 113.78H365.98V135.44C365.98 138.56 365.44 140.18 363.34 141.14C361.36 142.16 358.6 142.28 354.88 142.22C354.64 140.48 353.68 137.9 352.84 136.16C355.18 136.22 357.64 136.22 358.42 136.22C359.2 136.22 359.38 136.04 359.38 135.32V113.78H345.04V107.54H364.72L365.38 104.6H347.92C349.48 99.8 351.4 92.06 352.6 86.18L359.26 86.84C359.02 87.92 358.72 89.12 358.42 90.38H368.74L369.82 90.14L374.68 90.8C373.9 96.08 372.64 102.26 371.44 107.54H380.26V113.78ZM371.56 125.12L367.36 122C369.46 119.96 372.46 116.6 374.08 114.26L379.18 117.74C376.66 120.44 373.84 123.26 371.56 125.12ZM366.64 129.8L370.3 125.36C373.6 127.64 378.22 130.88 380.5 133.04L376.66 138.02C374.56 135.8 369.94 132.26 366.64 129.8ZM421 97.16H407.56C405.94 99.14 404.32 101 402.52 102.8H415.96C417.7 101.18 419.44 99.2 421 97.16ZM432.1 116.54V109.4H421.18V116.54H432.1ZM403.06 109.4V116.54H414.22V109.4H403.06ZM410.62 134.66H430.9C436.66 134.66 437.56 133.34 438.34 125.9C440.14 126.92 443.08 128.06 445.06 128.42C443.8 138.26 441.34 141.14 431.26 141.14H410.74C399.58 141.14 396.16 138.98 396.16 130.4V108.5C394.96 109.46 393.76 110.36 392.62 111.14C391.96 109.52 390.04 105.98 388.78 104.36C395.86 100.1 403.12 93.2 407.14 85.76L413.62 88.22C413.14 89.06 412.6 89.96 412.12 90.8H425.92L427.3 90.44L431.86 93.86C429.82 96.74 427.24 99.98 424.48 102.8H439.12V125.36H432.1V123.32H403.06V130.4C403.06 134.06 404.08 134.66 410.62 134.66ZM462.94 129.74H472.48V117.98H462.94V129.74ZM472.48 111.8V102.08H462.94V111.8H472.48ZM491.56 95.42H508.42C508.42 95.42 508.42 97.82 508.36 98.66C507.58 125.48 506.92 135.02 504.46 138.2C502.78 140.42 501.1 141.08 498.7 141.5C496.42 141.8 492.82 141.74 489.28 141.62C489.16 139.64 488.2 136.64 486.94 134.66C490.78 135.02 494.32 135.02 495.88 135.02C497.08 135.02 497.74 134.78 498.52 134C500.26 132.08 501.04 123.08 501.7 101.9H488.86C487.3 105.5 485.44 108.8 483.58 111.38C482.62 110.48 480.58 109.1 478.96 108.02V136.04H462.94V140.42H456.46V95.84H463.24C464.02 92.84 464.74 89 464.98 86.18L472.78 87.26C471.76 90.26 470.68 93.26 469.66 95.84H478.96V105.56C482.44 100.52 485.32 93.26 487.06 86.24L493.9 87.8C493.24 90.38 492.46 92.9 491.56 95.42ZM498.46 122.78L492.4 126.5C490.72 122.9 487 117.02 484.06 112.64L489.64 109.46C492.64 113.6 496.6 119.3 498.46 122.78ZM542.08 122H531.82C531.16 126.98 529.9 132.14 527.74 136.64C538.42 133.76 541.06 128.78 542.08 122ZM563.26 103.34H532.54V106.88H563.26V103.34ZM532.36 116.42H547.72C547.36 115.34 546.88 114.32 546.4 113.36L552.22 112.28H532.54C532.48 113.6 532.42 114.98 532.36 116.42ZM573.82 122H549.28C549.1 123.14 548.92 124.16 548.68 125.18H568.12C568.12 125.18 568.06 126.8 567.94 127.64C567.34 135.02 566.5 138.62 565 140.12C563.68 141.44 562.12 141.86 560.14 141.98C558.46 142.22 555.52 142.22 552.28 142.1C552.22 140.24 551.44 137.78 550.42 136.16C553.18 136.46 555.82 136.52 557.02 136.52C557.92 136.52 558.52 136.4 559.06 135.98C559.72 135.38 560.2 133.76 560.62 130.58H546.94C544.54 135.68 540.16 139.58 531.52 142.22C530.86 140.54 529.12 138.08 527.74 136.7C526.6 138.98 525.28 141.02 523.6 142.88C522.58 141.44 519.82 138.62 518.5 137.66C524.92 129.98 525.52 118.82 525.52 110.18V90.74C539.26 89.96 554.8 88.46 564.04 86.3L569.5 91.58C559.12 93.92 545.26 95.3 532.54 96.02V97.88H570.28V112.28H553.66C554.32 113.54 555.04 115.04 555.58 116.42H573.82V122ZM638.8 112.1V119.24H615.52V133.7C615.52 137.72 614.62 139.7 611.8 140.84C608.86 141.98 604.78 142.16 599.26 142.1C598.84 140 597.4 136.76 596.2 134.72C600.4 134.96 605.08 134.96 606.34 134.9C607.66 134.84 608.08 134.54 608.08 133.52V119.24H584.32V112.1H608.08V103.76C611.86 101.96 616.18 99.26 619.66 96.68H590.26V89.6H627.64L629.32 89.24L634.72 93.38C629.62 98.42 622.42 103.82 615.52 107.54V112.1H638.8Z" fill="#594A39"/>
<path d="M265.15 200.804C264.945 200.481 264.593 200.276 264.094 200.188C263.596 200.1 262.833 200.085 261.806 200.144C261.396 200.203 260.97 200.173 260.53 200.056C260.09 199.939 259.738 199.763 259.474 199.528C259.21 199.293 259.108 199.059 259.166 198.824C259.196 198.472 259.606 198.091 260.398 197.68C261.19 197.269 262.217 197.049 263.478 197.02L265.326 196.976L265.766 196.096C265.884 195.773 265.972 195.421 266.03 195.04C266.118 194.659 266.265 194.131 266.47 193.456C266.588 193.045 266.764 192.473 266.998 191.74C267.233 191.007 267.482 190.229 267.746 189.408C268.01 188.557 268.245 187.795 268.45 187.12C268.656 186.445 268.788 185.976 268.846 185.712C268.964 185.448 269.125 185.008 269.33 184.392C269.536 183.747 269.726 183.101 269.902 182.456C270.108 181.781 270.24 181.297 270.298 181.004C271.061 178.687 271.56 177.073 271.794 176.164C272.029 175.225 272.088 174.741 271.97 174.712C271.853 174.712 271.574 174.727 271.134 174.756C270.694 174.785 270.21 174.829 269.682 174.888C269.154 174.917 268.685 174.961 268.274 175.02C267.864 175.079 267.614 175.137 267.526 175.196C267.38 175.401 267.13 175.372 266.778 175.108C266.426 174.815 266.206 174.521 266.118 174.228C266.089 173.964 266.089 173.715 266.118 173.48C266.148 173.245 266.236 173.084 266.382 172.996C266.588 172.82 267.013 172.629 267.658 172.424C268.304 172.189 269.022 171.984 269.814 171.808C270.636 171.632 271.384 171.5 272.058 171.412C272.557 171.353 273.056 171.251 273.554 171.104C274.053 170.928 274.449 170.723 274.742 170.488C275.006 170.4 275.256 170.327 275.49 170.268C275.754 170.209 276.018 170.195 276.282 170.224C276.517 170.371 276.913 170.444 277.47 170.444C278.057 170.444 278.673 170.429 279.318 170.4C280.961 170.253 282.105 170.312 282.75 170.576C283.425 170.811 283.865 171.133 284.07 171.544C284.217 172.101 284.188 172.571 283.982 172.952C283.777 173.304 283.425 173.465 282.926 173.436C282.662 173.495 282.296 173.553 281.826 173.612C281.357 173.641 280.741 173.671 279.978 173.7C278.042 173.876 277.001 174.081 276.854 174.316C276.737 174.433 276.634 174.551 276.546 174.668C276.488 174.785 276.4 174.917 276.282 175.064C276.312 175.181 276.238 175.533 276.062 176.12C275.916 176.677 275.725 177.279 275.49 177.924C275.373 178.305 275.197 178.848 274.962 179.552C274.728 180.256 274.478 180.989 274.214 181.752C273.98 182.485 273.76 183.16 273.554 183.776C273.349 184.363 273.202 184.759 273.114 184.964C272.997 185.228 272.894 185.521 272.806 185.844C272.748 186.137 272.704 186.357 272.674 186.504C272.264 187.941 271.912 189.144 271.618 190.112C271.354 191.08 271.12 191.931 270.914 192.664C270.709 193.368 270.518 194.057 270.342 194.732C270.166 195.377 269.961 196.111 269.726 196.932C269.726 196.932 269.976 196.917 270.474 196.888C270.973 196.829 271.604 196.771 272.366 196.712C273.745 196.565 274.684 196.477 275.182 196.448C275.681 196.419 275.974 196.463 276.062 196.58C276.15 196.668 276.238 196.844 276.326 197.108C276.913 197.9 276.869 198.56 276.194 199.088C275.549 199.616 274.405 199.865 272.762 199.836C271.237 199.895 270.108 199.939 269.374 199.968C268.67 200.027 268.216 200.1 268.01 200.188C267.805 200.276 267.702 200.423 267.702 200.628C267.732 201.097 267.438 201.376 266.822 201.464C266.236 201.581 265.678 201.361 265.15 200.804ZM286.664 199.044C286.341 198.985 285.989 198.795 285.608 198.472C285.227 198.12 284.875 197.739 284.552 197.328C284.259 196.888 284.068 196.521 283.98 196.228C283.98 196.169 283.936 196.096 283.848 196.008C283.789 195.92 283.76 195.876 283.76 195.876C283.643 195.788 283.569 195.407 283.54 194.732C283.54 194.028 283.584 193.251 283.672 192.4C283.76 191.549 283.863 190.875 283.98 190.376C284.127 189.907 284.347 189.276 284.64 188.484C284.933 187.663 285.183 186.929 285.388 186.284L286.576 183.732L284.816 183.248C284.611 183.189 284.435 183.072 284.288 182.896C284.171 182.72 284.112 182.573 284.112 182.456C284.112 182.221 284.244 181.884 284.508 181.444C284.772 181.004 284.963 180.784 285.08 180.784C285.227 180.813 285.491 180.828 285.872 180.828C286.283 180.828 286.679 180.813 287.06 180.784C287.441 180.755 287.676 180.725 287.764 180.696C287.881 180.637 287.999 180.564 288.116 180.476C288.233 180.359 288.321 180.197 288.38 179.992C288.527 179.669 288.659 179.42 288.776 179.244C288.893 179.068 289.055 178.804 289.26 178.452C289.465 178.071 289.627 177.748 289.744 177.484C289.891 177.22 290.111 176.853 290.404 176.384C290.551 176.179 290.712 175.929 290.888 175.636C291.064 175.343 291.284 175.093 291.548 174.888C291.812 174.653 292.237 174.492 292.824 174.404C293.44 174.287 293.968 174.419 294.408 174.8C294.643 175.093 294.775 175.372 294.804 175.636C294.833 175.9 294.716 176.237 294.452 176.648C294.217 177.147 293.939 177.601 293.616 178.012C293.323 178.393 293.044 178.833 292.78 179.332C292.311 179.977 292.223 180.344 292.516 180.432C292.809 180.52 293.631 180.461 294.98 180.256C295.831 180.109 296.447 180.197 296.828 180.52C297.209 180.843 297.429 181.253 297.488 181.752C297.576 182.456 297.503 182.881 297.268 183.028C297.033 183.175 296.359 183.248 295.244 183.248C294.54 183.365 293.939 183.439 293.44 183.468C292.941 183.468 292.575 183.468 292.34 183.468C291.959 183.497 291.709 183.512 291.592 183.512C291.475 183.512 291.299 183.541 291.064 183.6C290.829 183.659 290.653 183.761 290.536 183.908C290.448 184.025 290.345 184.201 290.228 184.436C290.111 184.553 289.935 184.861 289.7 185.36C289.465 185.859 289.172 186.401 288.82 186.988C288.409 188.22 288.057 189.408 287.764 190.552C287.5 191.667 287.265 192.781 287.06 193.896C286.972 194.453 286.987 194.864 287.104 195.128C287.251 195.363 287.632 195.509 288.248 195.568C288.571 195.597 289.04 195.597 289.656 195.568C290.272 195.509 290.785 195.421 291.196 195.304C291.519 195.157 291.856 195.011 292.208 194.864C292.56 194.688 292.883 194.512 293.176 194.336C293.44 194.189 293.704 194.043 293.968 193.896C294.232 193.72 294.364 193.632 294.364 193.632C294.511 193.397 294.716 193.441 294.98 193.764C295.273 194.057 295.479 194.38 295.596 194.732C295.596 195.084 295.523 195.509 295.376 196.008C295.229 196.477 294.687 196.976 293.748 197.504C292.428 198.325 291.108 198.824 289.788 199C288.468 199.176 287.427 199.191 286.664 199.044ZM305.938 180.036C305.469 180.124 305.088 180.139 304.794 180.08C304.53 179.992 304.296 179.86 304.09 179.684C304.002 179.361 304.032 179.039 304.178 178.716C304.325 178.364 304.472 178.085 304.618 177.88C304.97 177.293 305.366 176.604 305.806 175.812C306.276 174.991 306.584 174.36 306.73 173.92C306.789 173.597 306.877 173.187 306.994 172.688C307.141 172.16 307.214 171.617 307.214 171.06C307.214 170.913 307.244 170.679 307.302 170.356C307.39 170.033 307.508 169.74 307.654 169.476C307.801 169.212 307.948 169.124 308.094 169.212C308.358 169.329 308.696 169.491 309.106 169.696C309.517 169.901 309.869 170.136 310.162 170.4C310.485 170.664 310.617 170.957 310.558 171.28C310.5 171.984 310.338 172.747 310.074 173.568C309.81 174.389 309.59 175.093 309.414 175.68C309.238 176.325 308.916 177 308.446 177.704C307.977 178.379 307.493 179.009 306.994 179.596C307.024 179.713 306.936 179.787 306.73 179.816C306.525 179.845 306.261 179.919 305.938 180.036ZM312.635 199.264C311.637 198.853 310.904 198.428 310.435 197.988C309.995 197.519 309.819 197.108 309.907 196.756C309.965 196.58 310.068 196.419 310.215 196.272C310.361 196.125 310.684 196.067 311.183 196.096C311.711 196.096 312.517 196.228 313.603 196.492C313.925 196.492 314.248 196.477 314.571 196.448C314.893 196.419 315.187 196.375 315.451 196.316C315.744 196.257 315.979 196.184 316.155 196.096C316.301 196.037 316.345 195.964 316.287 195.876C316.228 195.759 316.125 195.641 315.979 195.524C315.861 195.377 315.729 195.289 315.583 195.26C315.436 195.201 315.304 195.172 315.187 195.172C315.128 195.025 314.996 194.879 314.791 194.732C314.615 194.585 314.395 194.424 314.131 194.248C313.485 193.72 312.899 193.251 312.371 192.84C311.843 192.429 311.637 192.121 311.755 191.916C311.755 191.799 311.755 191.74 311.755 191.74C311.755 191.711 311.755 191.696 311.755 191.696C311.549 191.696 311.359 191.417 311.183 190.86C311.007 190.273 310.919 189.745 310.919 189.276C310.919 188.689 311.036 188.103 311.271 187.516C311.535 186.929 311.857 186.372 312.239 185.844C312.649 185.316 313.06 184.847 313.471 184.436C314.028 183.908 314.615 183.395 315.231 182.896C315.876 182.368 316.565 181.899 317.299 181.488C318.061 181.077 318.897 180.755 319.807 180.52C320.217 180.432 320.687 180.388 321.215 180.388C321.743 180.388 322.124 180.461 322.359 180.608C322.593 180.461 322.887 180.505 323.239 180.74C323.591 180.945 323.943 181.239 324.295 181.62C324.647 182.001 324.911 182.383 325.087 182.764C325.087 183.116 325.072 183.556 325.043 184.084C325.043 184.583 325.013 185.023 324.955 185.404C324.896 185.785 324.764 185.976 324.559 185.976C324.559 185.976 324.515 185.991 324.427 186.02C324.368 186.02 324.339 186.093 324.339 186.24C324.339 186.533 324.119 186.871 323.679 187.252C323.121 187.633 322.593 187.941 322.095 188.176C321.596 188.411 321.215 188.425 320.951 188.22C320.775 188.103 320.613 187.985 320.467 187.868C320.32 187.751 320.188 187.604 320.071 187.428C320.071 187.428 320.027 187.369 319.939 187.252C319.88 187.105 319.851 186.973 319.851 186.856C319.851 186.739 319.895 186.636 319.983 186.548C320.071 186.431 320.115 186.372 320.115 186.372C320.525 185.991 320.833 185.639 321.039 185.316C321.273 184.993 321.435 184.715 321.523 184.48C321.611 184.216 321.655 184.011 321.655 183.864C321.655 183.688 321.611 183.585 321.523 183.556C321.464 183.497 321.317 183.468 321.083 183.468C320.936 183.468 320.613 183.585 320.115 183.82C319.645 184.055 319.147 184.348 318.619 184.7C318.091 185.023 317.68 185.316 317.387 185.58C317.269 185.785 317.181 185.917 317.123 185.976C317.093 186.035 317.02 186.064 316.903 186.064C316.903 185.947 316.829 185.961 316.683 186.108C316.536 186.255 316.36 186.46 316.155 186.724C315.949 186.988 315.744 187.267 315.539 187.56C315.333 187.853 315.172 188.088 315.055 188.264C315.025 188.528 314.952 188.777 314.835 189.012C314.747 189.217 314.717 189.437 314.747 189.672C314.776 189.965 314.923 190.244 315.187 190.508C315.451 190.772 315.832 191.109 316.331 191.52C317.357 192.283 318.12 192.884 318.619 193.324C319.147 193.764 319.513 194.116 319.719 194.38C319.924 194.644 320.056 194.908 320.115 195.172C320.613 196.081 320.672 196.873 320.291 197.548C319.909 198.193 319.323 198.692 318.531 199.044C318.237 199.191 317.724 199.323 316.991 199.44C316.257 199.587 315.48 199.645 314.659 199.616C313.867 199.616 313.192 199.499 312.635 199.264ZM344.438 198.076C344.32 197.841 344.056 197.607 343.646 197.372C343.264 197.137 343.074 196.961 343.074 196.844C343.074 196.727 343 196.551 342.854 196.316C342.736 196.052 342.619 195.861 342.502 195.744C342.355 195.568 342.399 195.143 342.634 194.468C342.868 193.764 343.22 192.913 343.69 191.916C344.159 190.919 344.672 189.907 345.23 188.88C345.464 188.645 345.699 188.337 345.934 187.956C346.168 187.575 346.344 187.325 346.462 187.208C346.462 187.091 346.506 186.988 346.594 186.9C346.682 186.783 346.784 186.724 346.902 186.724L347.254 186.02C347.312 185.903 347.488 185.668 347.782 185.316C348.104 184.964 348.486 184.583 348.926 184.172C349.366 183.732 349.806 183.321 350.246 182.94C350.715 182.559 351.096 182.28 351.39 182.104C352.006 181.693 352.636 181.503 353.282 181.532C353.956 181.561 354.528 181.767 354.998 182.148C355.086 182.236 355.276 182.412 355.57 182.676C355.892 182.94 356.244 183.233 356.626 183.556C357.036 183.879 357.388 184.172 357.682 184.436L359.31 185.888L358.562 188.088C358.18 189.261 358.078 190.288 358.254 191.168C358.43 192.048 358.708 192.811 359.09 193.456C359.236 193.779 359.427 194.028 359.662 194.204C359.926 194.38 360.263 194.497 360.674 194.556C360.908 194.585 361.128 194.673 361.334 194.82C361.539 194.967 361.642 195.201 361.642 195.524C361.642 196.228 361.51 196.741 361.246 197.064C361.011 197.357 360.747 197.533 360.454 197.592C359.486 197.709 358.562 197.607 357.682 197.284C356.802 196.961 356.01 196.125 355.306 194.776C355.188 194.6 355.027 194.277 354.822 193.808C354.646 193.309 354.543 192.987 354.514 192.84C354.396 192.987 354.235 193.177 354.03 193.412C353.854 193.617 353.678 193.808 353.502 193.984C351.419 196.096 349.63 197.475 348.134 198.12C346.667 198.736 345.435 198.721 344.438 198.076ZM346.858 194.424C347.063 194.453 347.386 194.351 347.826 194.116C348.266 193.852 348.852 193.427 349.586 192.84C350.583 191.989 351.404 191.285 352.05 190.728C352.695 190.171 353.326 189.452 353.942 188.572L354.91 186.988C354.616 186.313 354.352 185.873 354.118 185.668C353.883 185.463 353.648 185.36 353.414 185.36C353.032 185.36 352.578 185.609 352.05 186.108C351.522 186.577 350.92 187.281 350.246 188.22C349.6 189.129 348.867 190.273 348.046 191.652C347.664 192.297 347.371 192.928 347.166 193.544C346.96 194.131 346.858 194.424 346.858 194.424ZM384.587 207.536C384.264 207.565 383.765 207.492 383.091 207.316C382.416 207.169 381.756 206.876 381.111 206.436C380.319 205.761 379.776 205.204 379.483 204.764C379.189 204.324 379.028 203.928 378.999 203.576C378.999 203.253 379.013 202.96 379.043 202.696C379.189 202.051 379.497 201.743 379.967 201.772C380.465 201.801 380.847 201.933 381.111 202.168C381.404 202.403 381.712 202.681 382.035 203.004C382.387 203.356 382.724 203.664 383.047 203.928C383.399 204.192 383.692 204.309 383.927 204.28C384.513 204.221 384.997 203.972 385.379 203.532C385.76 203.121 386.141 202.461 386.523 201.552C386.757 200.907 386.933 200.349 387.051 199.88C387.197 199.411 387.344 198.897 387.491 198.34C387.637 197.783 387.813 197.035 388.019 196.096C388.165 195.421 388.268 194.952 388.327 194.688C388.415 194.395 388.459 194.219 388.459 194.16C388.459 194.072 388.444 194.028 388.415 194.028C388.415 194.028 388.312 194.087 388.107 194.204C387.901 194.321 387.608 194.453 387.227 194.6C386.875 194.747 386.479 194.893 386.039 195.04C385.217 195.304 384.396 195.539 383.575 195.744C382.753 195.92 382.123 195.935 381.683 195.788C381.243 195.612 380.891 195.319 380.627 194.908C380.363 194.497 380.187 194.057 380.099 193.588C380.04 193.119 380.025 192.737 380.055 192.444C380.113 192.209 380.245 191.828 380.451 191.3C380.656 190.772 380.891 190.215 381.155 189.628C381.419 189.041 381.668 188.528 381.903 188.088C382.137 187.648 382.328 187.413 382.475 187.384C382.592 187.325 382.695 187.208 382.783 187.032C382.9 186.827 382.959 186.665 382.959 186.548C382.988 186.431 383.105 186.24 383.311 185.976C383.545 185.712 384.205 185.199 385.291 184.436C386.376 183.409 387.359 182.647 388.239 182.148C389.119 181.62 389.925 181.327 390.659 181.268C390.864 181.297 391.055 181.312 391.231 181.312C391.436 181.312 391.539 181.312 391.539 181.312C391.539 181.312 391.7 181.356 392.023 181.444C392.345 181.532 392.668 181.649 392.991 181.796C393.372 181.943 393.783 182.295 394.223 182.852C394.663 183.38 395.044 183.967 395.367 184.612C395.689 185.257 395.865 185.844 395.895 186.372C395.865 187.017 395.719 187.663 395.455 188.308C395.191 188.953 394.941 189.261 394.707 189.232C394.472 189.203 394.208 189.291 393.915 189.496C393.651 189.672 393.445 190.024 393.299 190.552C393.211 190.669 393.108 190.86 392.991 191.124C392.873 191.359 392.741 191.593 392.595 191.828C392.565 191.975 392.492 192.341 392.375 192.928C392.257 193.485 392.111 194.116 391.935 194.82C391.788 195.495 391.656 196.125 391.539 196.712C391.421 197.269 391.348 197.636 391.319 197.812C391.289 197.929 391.216 198.208 391.099 198.648C390.981 199.059 390.835 199.528 390.659 200.056C390.512 200.584 390.351 201.068 390.175 201.508C390.057 202.359 389.823 203.092 389.471 203.708C389.119 204.353 388.737 204.925 388.327 205.424C387.652 206.157 386.977 206.671 386.303 206.964C385.657 207.287 385.085 207.477 384.587 207.536ZM383.751 192.136C383.839 192.371 384.073 192.459 384.455 192.4C384.865 192.341 385.423 192.209 386.127 192.004C386.977 191.652 387.608 191.373 388.019 191.168C388.459 190.963 388.796 190.699 389.031 190.376C389.207 190.141 389.368 189.907 389.515 189.672C389.691 189.437 389.852 189.232 389.999 189.056C390.057 188.997 390.145 188.895 390.263 188.748C390.409 188.601 390.527 188.469 390.615 188.352C390.791 188.235 390.937 188.132 391.055 188.044C391.201 187.927 391.333 187.824 391.451 187.736C391.597 187.677 391.729 187.545 391.847 187.34C391.964 187.105 391.993 186.871 391.935 186.636C391.905 186.431 391.773 186.152 391.539 185.8C391.304 185.419 390.981 185.125 390.571 184.92C390.189 184.685 389.735 184.847 389.207 185.404C388.708 185.961 387.901 186.709 386.787 187.648C386.141 188.352 385.569 189.012 385.071 189.628C384.572 190.215 384.205 190.728 383.971 191.168C383.736 191.579 383.663 191.901 383.751 192.136ZM401.582 198.34C401.377 198.34 401.098 198.193 400.746 197.9C400.423 197.607 400.233 197.343 400.174 197.108C400.086 196.873 400.086 196.536 400.174 196.096C400.291 195.627 400.453 195.084 400.658 194.468C400.893 193.5 401.054 192.796 401.142 192.356C401.23 191.916 401.318 191.535 401.406 191.212C401.494 190.889 401.611 190.42 401.758 189.804C401.934 189.423 402.066 189.056 402.154 188.704C402.271 188.323 402.389 187.941 402.506 187.56C402.653 187.179 402.814 186.797 402.99 186.416C403.195 185.653 403.445 184.935 403.738 184.26C404.061 183.556 404.369 182.969 404.662 182.5C404.721 182.412 404.853 182.251 405.058 182.016C405.263 181.781 405.425 181.664 405.542 181.664C405.777 181.429 406.099 181.356 406.51 181.444C406.921 181.503 407.273 181.649 407.566 181.884C407.918 182.265 408.109 182.72 408.138 183.248C408.197 183.747 407.991 184.451 407.522 185.36C407.17 186.269 406.833 186.988 406.51 187.516C406.217 188.015 405.923 188.601 405.63 189.276C405.953 188.807 406.349 188.323 406.818 187.824C407.287 187.325 407.654 186.929 407.918 186.636C408.299 186.225 408.651 185.903 408.974 185.668C409.326 185.404 409.795 185.081 410.382 184.7C410.881 184.348 411.379 184.025 411.878 183.732C412.406 183.439 413.037 183.351 413.77 183.468C414.063 183.439 414.371 183.585 414.694 183.908C415.046 184.231 415.31 184.656 415.486 185.184C415.691 185.683 415.691 186.225 415.486 186.812C414.811 186.665 414.21 186.695 413.682 186.9C413.154 187.076 412.699 187.296 412.318 187.56C411.966 187.824 411.687 188.029 411.482 188.176C411.189 188.352 410.851 188.587 410.47 188.88C410.089 189.144 409.678 189.452 409.238 189.804C408.798 190.127 408.329 190.493 407.83 190.904C407.126 191.491 406.598 192.004 406.246 192.444C405.894 192.884 405.615 193.353 405.41 193.852C405.234 194.292 405.014 194.82 404.75 195.436C404.486 196.052 404.237 196.609 404.002 197.108C403.767 197.577 403.577 197.871 403.43 197.988C403.283 198.281 402.975 198.443 402.506 198.472C402.066 198.501 401.758 198.457 401.582 198.34ZM424.082 199.792C422.468 199.792 421.222 199.323 420.342 198.384C419.491 197.445 419.066 196.008 419.066 194.072C419.066 193.016 419.256 191.857 419.638 190.596C420.048 189.335 420.576 188.103 421.222 186.9C421.896 185.697 422.63 184.656 423.422 183.776C424.214 182.867 425.006 182.236 425.798 181.884C426.091 181.737 426.399 181.635 426.722 181.576C427.074 181.488 427.411 181.444 427.734 181.444C428.086 181.444 428.467 181.473 428.878 181.532C429.318 181.561 429.728 181.649 430.11 181.796C430.784 182.001 431.371 182.397 431.87 182.984C432.398 183.571 432.662 184.421 432.662 185.536C432.662 185.829 432.632 186.152 432.574 186.504C432.515 186.827 432.412 187.149 432.266 187.472C431.884 188.44 431.298 189.364 430.506 190.244C429.743 191.124 428.936 191.74 428.086 192.092C427.851 192.209 427.616 192.297 427.382 192.356C427.176 192.385 426.956 192.4 426.722 192.4C426.106 192.4 425.548 192.312 425.05 192.136C424.58 191.96 424.14 191.725 423.73 191.432L423.378 191.124L423.158 191.564C422.952 192.121 422.806 192.591 422.718 192.972C422.659 193.353 422.63 193.632 422.63 193.808C422.63 194.16 422.644 194.527 422.674 194.908C422.703 195.26 422.791 195.553 422.938 195.788C423.055 195.935 423.202 196.052 423.378 196.14C423.583 196.228 423.832 196.272 424.126 196.272C424.302 196.272 424.463 196.272 424.61 196.272C424.786 196.243 424.932 196.213 425.05 196.184C425.578 196.067 426.003 195.876 426.326 195.612C426.678 195.319 427.044 195.069 427.426 194.864L427.602 194.776L427.558 194.644C428.056 194.38 428.394 194.219 428.57 194.16C428.746 194.072 428.878 193.999 428.966 193.94C429.083 193.823 429.215 193.764 429.362 193.764C429.772 193.705 430.168 193.823 430.55 194.116C430.96 194.38 431.166 194.717 431.166 195.128C431.166 195.304 431.034 195.583 430.77 195.964C430.535 196.345 430.227 196.727 429.846 197.108C429.494 197.46 429.127 197.739 428.746 197.944C428.658 197.973 428.57 198.017 428.482 198.076C428.394 198.105 428.306 198.149 428.218 198.208H428.262C427.998 198.56 427.734 198.736 427.47 198.736H427.118C427 198.941 426.619 199.161 425.974 199.396C425.328 199.66 424.698 199.792 424.082 199.792ZM426.37 189.188C426.634 189.188 426.868 189.144 427.074 189.056C427.308 188.968 427.528 188.865 427.734 188.748C428.438 188.249 428.892 187.604 429.098 186.812C429.303 186.02 429.23 185.419 428.878 185.008C428.819 184.92 428.746 184.861 428.658 184.832C428.57 184.773 428.467 184.744 428.35 184.744C428.027 184.744 427.66 184.847 427.25 185.052C426.868 185.257 426.487 185.551 426.106 185.932C425.724 186.313 425.372 186.768 425.05 187.296L424.478 188.22C424.536 188.191 424.58 188.176 424.61 188.176C424.668 188.147 424.712 188.132 424.742 188.132C425.006 188.132 425.182 188.22 425.27 188.396C425.358 188.572 425.46 188.748 425.578 188.924C425.724 189.1 425.988 189.188 426.37 189.188ZM440.801 198.604C439.657 198.135 438.865 197.372 438.425 196.316C437.985 195.26 437.868 193.852 438.073 192.092C438.132 191.183 438.102 190.581 437.985 190.288C437.868 189.965 437.648 189.657 437.325 189.364C437.237 189.247 437.032 189.056 436.709 188.792C436.386 188.499 436.24 188.279 436.269 188.132C436.24 187.927 436.284 187.677 436.401 187.384C436.518 187.061 436.621 186.885 436.709 186.856C436.914 186.768 437.12 186.665 437.325 186.548C437.56 186.431 437.736 186.401 437.853 186.46C437.97 186.46 438.146 186.533 438.381 186.68C438.645 186.827 438.777 186.959 438.777 187.076C438.894 187.281 439.07 187.193 439.305 186.812C439.569 186.431 439.848 185.947 440.141 185.36C440.434 184.891 440.801 184.451 441.241 184.04C441.681 183.629 442.121 183.263 442.561 182.94C443.03 182.588 443.426 182.324 443.749 182.148C443.896 182.089 444.174 182.001 444.585 181.884C445.025 181.767 445.48 181.679 445.949 181.62C446.418 181.532 446.77 181.503 447.005 181.532C447.533 181.561 448.09 181.781 448.677 182.192C449.264 182.603 449.718 182.984 450.041 183.336C450.422 183.6 450.672 184.011 450.789 184.568C450.936 185.096 450.994 185.653 450.965 186.24C450.936 186.827 450.818 187.325 450.613 187.736C450.525 188.029 450.217 188.44 449.689 188.968C449.161 189.496 448.574 190.009 447.929 190.508C447.313 190.977 446.785 191.3 446.345 191.476C445.964 191.564 445.509 191.637 444.981 191.696C444.453 191.725 443.954 191.725 443.485 191.696C443.045 191.637 442.737 191.564 442.561 191.476C442.356 191.359 442.18 191.403 442.033 191.608C441.916 191.784 441.813 192.283 441.725 193.104C441.696 193.427 441.696 193.705 441.725 193.94C441.784 194.175 441.842 194.351 441.901 194.468C442.106 194.82 442.312 195.084 442.517 195.26C442.722 195.407 443.104 195.451 443.661 195.392C444.218 195.333 444.776 194.996 445.333 194.38C445.92 193.735 446.448 193.221 446.917 192.84C447.034 192.635 447.284 192.503 447.665 192.444C448.076 192.356 448.56 192.385 449.117 192.532C449.44 192.737 449.586 193.06 449.557 193.5C449.557 193.94 449.322 194.585 448.853 195.436C448.765 195.641 448.516 195.949 448.105 196.36C447.724 196.741 447.298 197.137 446.829 197.548C446.389 197.929 446.022 198.208 445.729 198.384C444.849 198.853 443.984 199.073 443.133 199.044C442.282 199.015 441.505 198.868 440.801 198.604ZM444.057 188.704C444.497 188.587 444.864 188.469 445.157 188.352C445.48 188.235 445.788 188.044 446.081 187.78C446.374 187.516 446.712 187.12 447.093 186.592C447.21 186.269 447.269 185.991 447.269 185.756C447.298 185.521 447.284 185.375 447.225 185.316C446.99 185.081 446.726 185.008 446.433 185.096C446.169 185.155 445.876 185.301 445.553 185.536C445.348 185.624 445.054 185.815 444.673 186.108C444.321 186.372 443.969 186.68 443.617 187.032C443.294 187.355 443.03 187.663 442.825 187.956C442.649 188.22 442.62 188.381 442.737 188.44C442.678 188.557 442.84 188.631 443.221 188.66C443.632 188.689 443.91 188.704 444.057 188.704ZM471.16 197.944C470.515 197.885 469.972 197.753 469.532 197.548C469.122 197.313 468.784 196.859 468.52 196.184C468.403 195.715 468.344 195.231 468.344 194.732C468.374 194.204 468.418 193.705 468.476 193.236C468.535 192.737 468.564 192.312 468.564 191.96C468.564 191.901 468.564 191.784 468.564 191.608C468.564 191.432 468.564 191.271 468.564 191.124C468.506 190.684 468.388 190.42 468.212 190.332C468.066 190.215 467.802 190.229 467.42 190.376C466.804 190.669 466.13 191.065 465.396 191.564C464.692 192.033 463.944 192.591 463.152 193.236C462.39 193.852 461.598 194.512 460.776 195.216C460.131 195.92 459.647 196.492 459.324 196.932C459.031 197.372 458.723 197.592 458.4 197.592C458.166 197.709 457.916 197.68 457.652 197.504C457.388 197.328 457.11 197.123 456.816 196.888C456.611 196.653 456.362 196.36 456.068 196.008C455.804 195.627 455.643 195.377 455.584 195.26C455.584 194.791 455.614 194.365 455.672 193.984C455.76 193.603 455.878 193.207 456.024 192.796C456.2 192.385 456.406 191.916 456.64 191.388C456.758 191.183 456.86 190.977 456.948 190.772C457.066 190.537 457.198 190.288 457.344 190.024C457.462 189.613 457.623 189.144 457.828 188.616C458.063 188.088 458.283 187.589 458.488 187.12C458.811 186.357 459.06 185.697 459.236 185.14C459.412 184.583 459.559 183.981 459.676 183.336C459.647 183.277 459.662 183.189 459.72 183.072C459.779 182.955 459.867 182.881 459.984 182.852H460.028H460.072C460.278 182.705 460.659 182.691 461.216 182.808C461.803 182.896 462.243 183.057 462.536 183.292C463.152 183.82 463.446 184.509 463.416 185.36C463.387 186.211 462.947 187.325 462.096 188.704C461.891 189.173 461.671 189.613 461.436 190.024C461.231 190.405 461.128 190.669 461.128 190.816C461.128 190.816 461.246 190.728 461.48 190.552C461.715 190.376 461.994 190.171 462.316 189.936C462.639 189.672 462.918 189.467 463.152 189.32C463.299 189.173 463.622 188.909 464.12 188.528C464.619 188.117 465.162 187.692 465.748 187.252C466.335 186.812 466.804 186.475 467.156 186.24C467.479 186.005 467.89 185.771 468.388 185.536C468.887 185.272 469.195 185.14 469.312 185.14C469.606 185.14 469.958 185.243 470.368 185.448C470.808 185.653 471.204 185.903 471.556 186.196C471.938 186.46 472.158 186.709 472.216 186.944C472.216 187.061 472.202 187.223 472.172 187.428C472.143 187.604 472.128 187.765 472.128 187.912C472.099 188.381 472.084 188.953 472.084 189.628C472.114 190.273 472.128 190.933 472.128 191.608C472.128 192.253 472.07 192.84 471.952 193.368C471.952 193.368 471.967 193.397 471.996 193.456C472.026 193.485 472.055 193.544 472.084 193.632C472.055 193.661 472.04 193.72 472.04 193.808C472.07 193.867 472.084 193.896 472.084 193.896C472.143 194.101 472.202 194.307 472.26 194.512C472.348 194.717 472.451 194.952 472.568 195.216C472.686 195.451 472.818 195.759 472.964 196.14C472.935 196.521 472.715 196.903 472.304 197.284C471.923 197.636 471.542 197.856 471.16 197.944ZM498.14 198.384C497.758 198.472 497.26 198.413 496.644 198.208C496.028 197.973 495.426 197.695 494.84 197.372C494.282 197.02 493.901 196.741 493.696 196.536C493.49 196.301 493.432 196.096 493.52 195.92C493.608 195.715 493.754 195.612 493.96 195.612C494.077 195.612 494.268 195.495 494.532 195.26C494.796 194.996 494.957 194.527 495.016 193.852C495.074 193.441 495.148 193.089 495.236 192.796C495.353 192.473 495.412 192.253 495.412 192.136C495.441 192.048 495.47 191.813 495.5 191.432C495.558 191.021 495.646 190.669 495.764 190.376C495.881 189.848 496.057 189.173 496.292 188.352C496.526 187.501 496.761 186.68 496.996 185.888C497.26 185.067 497.465 184.436 497.612 183.996C497.67 183.673 497.802 183.263 498.008 182.764C498.213 182.265 498.389 181.869 498.536 181.576C498.829 180.755 499.225 179.757 499.724 178.584C500.252 177.411 500.794 176.237 501.352 175.064C501.909 173.861 502.393 172.849 502.804 172.028C503.244 171.177 503.522 170.664 503.64 170.488C503.874 170.253 504.256 170.165 504.784 170.224C505.312 170.283 505.737 170.473 506.06 170.796C506.324 171.119 506.573 171.456 506.808 171.808C507.042 172.16 506.984 172.541 506.632 172.952C506.514 173.157 506.324 173.48 506.06 173.92C505.796 174.331 505.59 174.639 505.444 174.844C505.209 175.548 504.916 176.237 504.564 176.912C504.241 177.587 503.889 178.349 503.508 179.2C503.126 180.021 502.716 181.048 502.276 182.28C502.012 182.837 501.792 183.395 501.616 183.952C501.44 184.48 501.293 184.817 501.176 184.964C501 185.609 500.809 186.093 500.604 186.416C500.428 186.739 500.281 187.252 500.164 187.956C500.164 187.956 500.31 187.809 500.604 187.516C500.926 187.223 501.308 186.856 501.748 186.416C502.892 185.184 503.918 184.245 504.828 183.6C505.737 182.955 506.573 182.617 507.336 182.588C507.746 182.559 508.186 182.661 508.656 182.896C509.154 183.131 509.609 183.424 510.02 183.776C510.43 184.099 510.709 184.451 510.856 184.832C511.09 185.36 511.208 186.049 511.208 186.9C511.208 187.721 511.076 188.572 510.812 189.452C510.577 190.332 510.196 191.109 509.668 191.784C509.345 192.341 508.949 192.884 508.48 193.412C508.04 193.911 507.658 194.277 507.336 194.512C507.042 194.776 506.749 195.04 506.456 195.304C506.192 195.539 505.972 195.729 505.796 195.876C505.414 196.14 505.106 196.345 504.872 196.492C504.637 196.609 504.314 196.741 503.904 196.888C503.288 197.328 502.437 197.651 501.352 197.856C500.266 198.061 499.196 198.237 498.14 198.384ZM499.24 195.04C499.445 195.04 499.812 194.996 500.34 194.908C500.897 194.82 501.41 194.6 501.88 194.248C503.258 193.544 504.358 192.767 505.18 191.916C506.03 191.065 506.632 190.215 506.984 189.364C507.336 188.513 507.482 187.751 507.424 187.076C507.365 186.401 506.998 186.196 506.324 186.46C505.678 186.695 504.666 187.501 503.288 188.88C502.642 189.467 502.085 190.024 501.616 190.552C501.146 191.08 500.662 191.637 500.164 192.224C499.958 192.547 499.753 192.811 499.548 193.016C499.372 193.192 499.269 193.397 499.24 193.632C499.034 194.571 499.034 195.04 499.24 195.04ZM527.415 198.912C527.121 198.619 526.887 198.223 526.711 197.724C526.535 197.196 526.359 196.595 526.183 195.92C526.124 195.685 526.095 195.421 526.095 195.128C526.124 194.835 526.124 194.6 526.095 194.424C526.007 194.629 525.86 194.893 525.655 195.216C525.479 195.539 525.303 195.773 525.127 195.92C525.009 196.037 524.745 196.272 524.335 196.624C523.924 196.947 523.513 197.211 523.103 197.416C522.135 198.032 521.269 198.325 520.507 198.296C519.773 198.237 519.128 197.856 518.571 197.152C518.101 196.771 517.72 196.287 517.427 195.7C517.133 195.113 517.075 194.409 517.251 193.588C517.309 192.561 517.456 191.564 517.691 190.596C517.925 189.599 518.409 188.279 519.143 186.636C519.759 185.433 520.228 184.495 520.551 183.82C520.873 183.145 521.079 182.749 521.167 182.632C521.607 182.485 522.149 182.5 522.795 182.676C523.44 182.823 523.792 183.101 523.851 183.512C524.027 183.805 524.027 184.363 523.851 185.184C523.675 185.976 523.323 186.885 522.795 187.912C522.384 188.909 521.988 189.877 521.607 190.816C521.255 191.755 521.035 192.547 520.947 193.192C520.888 193.837 521.064 194.233 521.475 194.38C521.739 194.527 522.12 194.512 522.619 194.336C523.147 194.16 523.763 193.632 524.467 192.752C525.171 191.872 525.919 190.479 526.711 188.572C526.945 187.985 527.121 187.472 527.239 187.032C527.356 186.563 527.429 186.049 527.459 185.492C527.4 185.14 527.488 184.773 527.723 184.392C527.987 184.011 528.295 183.717 528.647 183.512C528.764 183.365 528.925 183.233 529.131 183.116C529.336 182.969 529.468 182.969 529.527 183.116L530.231 183.072C530.348 183.043 530.48 183.16 530.627 183.424C530.773 183.688 530.92 183.879 531.067 183.996C531.389 184.26 531.536 184.832 531.507 185.712C531.477 186.592 531.125 187.824 530.451 189.408C529.893 190.611 529.512 191.52 529.307 192.136C529.131 192.752 529.028 193.353 528.999 193.94C528.999 194.468 529.043 194.923 529.131 195.304C529.219 195.656 529.483 196.023 529.923 196.404C530.245 196.609 530.421 196.961 530.451 197.46C530.509 197.929 530.524 198.34 530.495 198.692C530.436 198.956 530.201 199.132 529.791 199.22C529.409 199.337 528.984 199.367 528.515 199.308C528.075 199.249 527.708 199.117 527.415 198.912ZM539.96 198.956C539.256 198.956 538.64 198.589 538.112 197.856C537.613 197.093 537.305 196.184 537.188 195.128C537.217 194.893 537.246 194.556 537.276 194.116C537.334 193.676 537.393 193.221 537.452 192.752C537.569 192.195 537.73 191.476 537.936 190.596C538.141 189.716 538.361 188.836 538.596 187.956C538.83 187.047 539.036 186.269 539.212 185.624C539.388 184.949 539.49 184.553 539.52 184.436C539.696 184.025 540.092 183.923 540.708 184.128C541.324 184.333 541.852 184.773 542.292 185.448C542.468 185.683 542.57 185.961 542.6 186.284C542.658 186.607 542.614 187.076 542.468 187.692C542.35 188.308 542.116 189.217 541.764 190.42C541.441 191.593 541.192 192.547 541.016 193.28C540.869 193.984 540.81 194.732 540.84 195.524C540.722 196.873 540.605 197.797 540.488 198.296C540.37 198.765 540.194 198.985 539.96 198.956ZM544.008 180.696C543.89 180.784 543.773 180.828 543.656 180.828C543.568 180.799 543.406 180.711 543.172 180.564C542.966 180.535 542.702 180.403 542.38 180.168C542.086 179.904 541.822 179.64 541.588 179.376C541.382 179.112 541.28 178.951 541.28 178.892C541.25 178.599 541.265 178.129 541.324 177.484C541.412 176.839 541.573 176.237 541.808 175.68C542.072 175.093 542.424 174.785 542.864 174.756C542.981 174.756 543.23 174.815 543.612 174.932C544.022 175.049 544.448 175.196 544.888 175.372C545.122 175.812 545.342 176.384 545.548 177.088C545.753 177.792 545.768 178.481 545.592 179.156C545.445 179.801 544.917 180.315 544.008 180.696ZM549.3 200.32C548.919 200.173 548.611 199.939 548.376 199.616C548.142 199.323 548.01 198.883 547.98 198.296C547.951 197.915 547.966 197.357 548.024 196.624C548.083 195.861 548.186 195.099 548.332 194.336C548.332 194.277 548.332 194.219 548.332 194.16C548.362 194.072 548.376 194.013 548.376 193.984C548.406 193.867 548.435 193.691 548.464 193.456C548.494 193.192 548.523 192.987 548.552 192.84C548.611 192.664 548.64 192.649 548.64 192.796L548.904 191.608C549.022 191.08 549.154 190.537 549.3 189.98C549.447 189.423 549.579 188.939 549.696 188.528C549.843 188.088 549.931 187.839 549.96 187.78C549.96 187.78 550.004 187.619 550.092 187.296C550.21 186.944 550.327 186.592 550.444 186.24C550.914 184.773 551.354 183.556 551.764 182.588C552.204 181.62 552.586 180.916 552.908 180.476C552.938 180.388 552.982 180.285 553.04 180.168C553.099 180.021 553.143 179.904 553.172 179.816C553.172 179.493 553.187 179.259 553.216 179.112C553.275 178.965 553.348 178.833 553.436 178.716C553.495 178.599 553.583 178.452 553.7 178.276C553.818 178.071 553.95 177.821 554.096 177.528L554.272 177.044C554.448 176.663 554.668 176.223 554.932 175.724C555.196 175.196 555.387 174.8 555.504 174.536C555.592 174.272 555.768 173.964 556.032 173.612C556.296 173.231 556.59 172.981 556.912 172.864L556.868 172.82C557.015 172.556 557.294 172.351 557.704 172.204C558.115 172.028 558.452 171.94 558.716 171.94C559.127 171.94 559.435 172.057 559.64 172.292C559.875 172.527 559.992 172.849 559.992 173.26C559.992 173.7 559.978 174.023 559.948 174.228C559.948 174.404 559.846 174.609 559.64 174.844H559.684C559.743 174.785 559.728 174.873 559.64 175.108C559.552 175.343 559.479 175.504 559.42 175.592C559.362 175.739 559.288 175.9 559.2 176.076C559.142 176.252 559.068 176.384 558.98 176.472C558.892 176.589 558.658 177 558.276 177.704C557.895 178.379 557.47 179.185 557 180.124C556.531 181.033 556.076 181.928 555.636 182.808C555.226 183.659 554.932 184.319 554.756 184.788L554.536 185.448C554.507 185.565 554.492 185.653 554.492 185.712C554.404 185.917 554.316 186.123 554.228 186.328C554.14 186.533 554.052 186.709 553.964 186.856L553.26 189.584L553.084 190.508L552.688 191.52L552.424 192.356C552.366 192.532 552.322 192.723 552.292 192.928C552.263 193.133 552.204 193.28 552.116 193.368C552.116 193.397 552.102 193.441 552.072 193.5C552.072 193.529 552.072 193.559 552.072 193.588C551.955 194.057 551.75 194.717 551.456 195.568C551.192 196.419 551.031 197.357 550.972 198.384C550.972 198.413 550.958 198.443 550.928 198.472C550.928 198.501 550.928 198.531 550.928 198.56C550.84 199.176 550.65 199.645 550.356 199.968C550.092 200.32 549.74 200.437 549.3 200.32ZM572.389 199.836C572.007 199.924 571.626 199.821 571.245 199.528C570.893 199.264 570.643 198.971 570.497 198.648C570.321 198.179 570.203 197.739 570.145 197.328C570.115 196.888 570.086 196.389 570.057 195.832L570.013 194.336L568.209 195.964C567.211 196.903 566.273 197.577 565.393 197.988C564.542 198.369 563.765 198.56 563.061 198.56C562.738 198.501 562.342 198.296 561.873 197.944C561.433 197.563 561.022 197.152 560.641 196.712C560.289 196.243 560.039 195.861 559.893 195.568C559.717 195.157 559.658 194.585 559.717 193.852C559.805 193.119 559.981 192.312 560.245 191.432C560.538 190.552 560.89 189.687 561.301 188.836C561.741 187.985 562.239 187.252 562.797 186.636C563.765 185.169 564.967 184.26 566.405 183.908C567.842 183.527 569.118 183.644 570.233 184.26C570.761 184.524 571.142 184.627 571.377 184.568C571.611 184.509 571.758 184.319 571.817 183.996C571.934 183.527 572.066 183.087 572.213 182.676C572.359 182.265 572.565 181.649 572.829 180.828C573.562 178.599 574.193 176.853 574.721 175.592C575.278 174.331 575.777 173.231 576.217 172.292C576.539 171.617 576.862 171.148 577.185 170.884C577.507 170.62 577.786 170.503 578.021 170.532C578.343 170.532 578.739 170.649 579.209 170.884C579.707 171.119 580.03 171.441 580.177 171.852C580.294 172.116 580.338 172.395 580.309 172.688C580.309 172.981 580.221 173.289 580.045 173.612C579.663 174.316 579.209 175.255 578.681 176.428C578.182 177.572 577.669 178.833 577.141 180.212C576.642 181.591 576.173 182.955 575.733 184.304C575.293 185.653 574.926 186.841 574.633 187.868C574.457 188.513 574.31 189.335 574.193 190.332C574.105 191.329 574.031 192.356 573.973 193.412C573.943 194.439 573.943 195.363 573.973 196.184C574.002 196.976 574.046 197.489 574.105 197.724C574.281 198.311 574.281 198.751 574.105 199.044C573.929 199.337 573.679 199.528 573.357 199.616C573.034 199.733 572.711 199.807 572.389 199.836ZM565.129 194.512C565.539 194.365 565.906 194.189 566.229 193.984C566.551 193.779 566.933 193.515 567.373 193.192C568.253 192.517 568.883 191.931 569.265 191.432C569.675 190.933 569.998 190.317 570.233 189.584C570.379 189.144 570.379 188.763 570.233 188.44C570.115 188.117 569.895 187.809 569.573 187.516C569.25 187.252 568.839 187.149 568.341 187.208C567.842 187.237 567.27 187.545 566.625 188.132C565.921 188.777 565.319 189.525 564.821 190.376C564.322 191.227 563.911 192.444 563.589 194.028C563.53 194.321 563.633 194.527 563.897 194.644C564.161 194.761 564.571 194.717 565.129 194.512ZM582.92 197.548C582.802 197.548 582.553 197.46 582.172 197.284C581.79 197.108 581.6 197.02 581.6 197.02C581.6 196.903 581.556 196.756 581.468 196.58C581.409 196.404 581.38 196.257 581.38 196.14C581.174 196.023 580.969 195.832 580.764 195.568C580.558 195.304 580.514 195.011 580.632 194.688C580.808 194.365 581.042 193.881 581.336 193.236C581.658 192.561 581.996 191.813 582.348 190.992C582.729 190.141 583.081 189.32 583.404 188.528C583.726 187.736 584.005 187.061 584.24 186.504C584.474 185.917 584.606 185.565 584.636 185.448C584.636 185.331 584.65 185.125 584.68 184.832C584.738 184.539 584.929 184.289 585.252 184.084C585.633 183.82 586.029 183.805 586.44 184.04C586.85 184.275 587.202 184.685 587.496 185.272C587.789 185.829 587.936 186.489 587.936 187.252C587.936 187.457 587.789 187.985 587.496 188.836C587.202 189.657 586.806 190.64 586.308 191.784C585.838 192.928 585.31 194.087 584.724 195.26C584.284 196.111 583.946 196.712 583.712 197.064C583.506 197.387 583.242 197.548 582.92 197.548ZM588.904 180.696C588.552 180.696 588.126 180.535 587.628 180.212C587.158 179.889 586.733 179.479 586.352 178.98C585.97 178.481 585.78 177.953 585.78 177.396C585.78 177.249 585.912 176.985 586.176 176.604C586.44 176.193 586.689 175.797 586.924 175.416C587.188 175.035 587.32 174.815 587.32 174.756C587.554 174.756 587.833 174.8 588.156 174.888C588.478 174.976 588.742 175.079 588.948 175.196C589.27 175.929 589.696 176.56 590.224 177.088C590.752 177.587 591.016 178.159 591.016 178.804C591.016 179.449 590.854 179.933 590.532 180.256C590.209 180.549 589.666 180.696 588.904 180.696ZM607.749 198.824C607.309 198.824 606.883 198.692 606.473 198.428C606.062 198.135 605.725 197.739 605.461 197.24C605.197 196.712 605.065 196.096 605.065 195.392C605.065 194.952 605.138 194.336 605.285 193.544C605.461 192.723 605.71 191.696 606.033 190.464C606.091 190.053 606.135 189.789 606.165 189.672C606.223 189.555 606.253 189.437 606.253 189.32C606.253 189.261 606.238 189.217 606.209 189.188C606.209 189.129 606.179 189.1 606.121 189.1C605.886 189.1 605.563 189.261 605.153 189.584C604.771 189.877 604.331 190.229 603.833 190.64C603.745 190.699 603.642 190.772 603.525 190.86C603.437 190.948 603.334 191.036 603.217 191.124C603.129 191.212 603.026 191.3 602.909 191.388C602.615 191.564 602.161 191.901 601.545 192.4C600.958 192.899 600.342 193.427 599.697 193.984C599.081 194.541 598.538 195.011 598.069 195.392C597.834 195.568 597.629 195.715 597.453 195.832C597.306 195.949 597.203 196.008 597.145 196.008C597.086 196.008 596.851 195.935 596.441 195.788C596.059 195.612 595.678 195.377 595.297 195.084C594.945 194.761 594.769 194.395 594.769 193.984C594.769 193.72 594.871 193.192 595.077 192.4C595.311 191.608 595.634 190.669 596.045 189.584C596.455 188.499 596.925 187.399 597.453 186.284C597.57 186.02 597.658 185.668 597.717 185.228C597.775 184.788 597.834 184.363 597.893 183.952C597.981 183.512 598.127 183.189 598.333 182.984C598.421 182.837 598.523 182.735 598.641 182.676C598.787 182.588 598.934 182.544 599.081 182.544C599.374 182.544 599.653 182.617 599.917 182.764C600.181 182.881 600.43 183.087 600.665 183.38C601.105 183.849 601.339 184.407 601.369 185.052C601.427 185.668 601.383 186.269 601.237 186.856C601.09 187.443 600.929 187.927 600.753 188.308C600.577 188.66 600.489 188.807 600.489 188.748C600.606 188.689 600.767 188.543 600.973 188.308C601.207 188.073 601.603 187.795 602.161 187.472C602.923 186.885 603.51 186.475 603.921 186.24C604.331 185.976 604.639 185.785 604.845 185.668C605.079 185.551 605.285 185.419 605.461 185.272C605.607 185.155 605.71 185.081 605.769 185.052C605.857 185.023 605.901 185.008 605.901 185.008C605.989 185.008 606.135 184.949 606.341 184.832C606.575 184.715 606.795 184.656 607.001 184.656C607.294 184.656 607.602 184.729 607.925 184.876C608.247 184.993 608.526 185.169 608.761 185.404C608.995 185.609 609.113 185.829 609.113 186.064C609.113 186.152 609.142 186.225 609.201 186.284C609.259 186.343 609.318 186.416 609.377 186.504C609.523 186.68 609.685 186.929 609.861 187.252C610.066 187.545 610.169 188.029 610.169 188.704C610.169 189.173 610.066 189.863 609.861 190.772C609.655 191.681 609.435 192.576 609.201 193.456C608.966 194.365 608.849 195.099 608.849 195.656C608.878 196.184 608.937 196.595 609.025 196.888C609.113 197.152 609.157 197.372 609.157 197.548C609.157 197.783 609.039 198.061 608.805 198.384C608.57 198.677 608.218 198.824 607.749 198.824ZM623.192 207.668C622.664 207.932 621.975 207.991 621.124 207.844C620.303 207.697 619.481 207.404 618.66 206.964C617.868 206.553 617.223 206.069 616.724 205.512C616.46 205.219 616.225 204.867 616.02 204.456C615.815 204.045 615.683 203.649 615.624 203.268C615.565 202.916 615.639 202.681 615.844 202.564C616.108 202.388 616.416 202.3 616.768 202.3C617.149 202.3 617.472 202.344 617.736 202.432C618.029 202.52 618.176 202.623 618.176 202.74C618.499 203.033 618.807 203.283 619.1 203.488C619.423 203.723 619.731 203.899 620.024 204.016C620.435 204.192 620.801 204.221 621.124 204.104C621.476 204.016 621.799 203.825 622.092 203.532C622.327 203.209 622.532 202.799 622.708 202.3C622.913 201.831 623.075 201.288 623.192 200.672L623.324 200.1C623.647 198.633 623.955 197.255 624.248 195.964C624.571 194.644 624.835 193.691 625.04 193.104C624.981 193.104 624.908 193.119 624.82 193.148C624.732 193.177 624.644 193.221 624.556 193.28C624.38 193.368 624.204 193.456 624.028 193.544C623.852 193.632 623.676 193.72 623.5 193.808C623.119 194.013 622.781 194.175 622.488 194.292C622.195 194.38 621.931 194.453 621.696 194.512C621.315 194.629 621.036 194.673 620.86 194.644C620.684 194.615 620.537 194.6 620.42 194.6C620.127 194.6 619.745 194.512 619.276 194.336C618.807 194.131 618.411 193.881 618.088 193.588C617.824 193.324 617.633 193.06 617.516 192.796C617.399 192.503 617.325 192.195 617.296 191.872C617.267 191.549 617.252 191.227 617.252 190.904C617.252 190.464 617.487 189.687 617.956 188.572C618.425 187.428 619.115 186.313 620.024 185.228C620.581 184.671 621.315 184.113 622.224 183.556C623.133 182.999 624.057 182.529 624.996 182.148C625.964 181.737 626.756 181.532 627.372 181.532C627.489 181.532 627.621 181.547 627.768 181.576C627.944 181.605 628.105 181.679 628.252 181.796C628.751 181.913 629.249 182.192 629.748 182.632C630.247 183.043 630.687 183.585 631.068 184.26C631.303 184.729 631.493 185.228 631.64 185.756C631.816 186.284 631.904 186.841 631.904 187.428C631.904 187.897 631.816 188.308 631.64 188.66C631.493 188.983 631.347 189.173 631.2 189.232C631.141 189.291 631.068 189.335 630.98 189.364C630.892 189.364 630.789 189.379 630.672 189.408C630.613 189.408 630.496 189.437 630.32 189.496C630.144 189.584 629.968 189.745 629.792 189.98C629.645 190.185 629.499 190.552 629.352 191.08C629.323 191.227 629.293 191.373 629.264 191.52C629.235 191.667 629.191 191.813 629.132 191.96C629.132 191.989 629.088 192.063 629 192.18C628.941 192.268 628.897 192.385 628.868 192.532C628.839 192.737 628.78 192.913 628.692 193.06C628.633 193.177 628.575 193.309 628.516 193.456C628.487 193.573 628.472 193.676 628.472 193.764C628.472 193.823 628.472 193.881 628.472 193.94L628.296 194.424C628.208 194.717 628.12 194.981 628.032 195.216C627.973 195.451 627.944 195.597 627.944 195.656L627.768 196.536C627.709 196.859 627.636 197.181 627.548 197.504C627.489 197.827 627.431 198.135 627.372 198.428C627.313 198.721 627.24 199.015 627.152 199.308C626.507 201.889 625.847 203.84 625.172 205.16C624.527 206.48 623.867 207.316 623.192 207.668ZM620.596 190.596C620.655 191.241 621.197 191.52 622.224 191.432C623.251 191.315 624.395 190.699 625.656 189.584C626.155 189.173 626.595 188.704 626.976 188.176C627.387 187.648 627.665 187.105 627.812 186.548C627.959 186.079 627.988 185.756 627.9 185.58C627.841 185.375 627.592 185.257 627.152 185.228C626.565 185.228 625.964 185.36 625.348 185.624C624.761 185.859 624.131 186.196 623.456 186.636C623.075 187.164 622.752 187.501 622.488 187.648C622.224 187.795 622.048 187.868 621.96 187.868C621.901 187.839 621.931 187.853 622.048 187.912C621.989 188.029 621.931 188.132 621.872 188.22C621.813 188.308 621.755 188.396 621.696 188.484C621.52 188.777 621.344 189.027 621.168 189.232C620.992 189.437 620.845 189.643 620.728 189.848C620.64 190.053 620.596 190.303 620.596 190.596ZM641.331 191.916C640.51 192.063 639.865 191.725 639.395 190.904C638.926 190.053 638.955 188.572 639.483 186.46C639.659 186.108 639.806 185.771 639.923 185.448C640.041 185.096 640.099 184.817 640.099 184.612C640.217 184.231 640.363 183.791 640.539 183.292C640.745 182.764 640.95 182.28 641.155 181.84C641.361 181.371 641.507 181.063 641.595 180.916C641.713 180.916 641.83 180.813 641.947 180.608C642.094 180.403 642.167 180.197 642.167 179.992C642.167 179.757 642.211 179.493 642.299 179.2C642.417 178.907 642.534 178.701 642.651 178.584C642.651 178.437 642.71 178.276 642.827 178.1C642.945 177.924 643.003 177.777 643.003 177.66C643.003 177.543 643.033 177.44 643.091 177.352C643.179 177.264 643.223 177.161 643.223 177.044C643.487 176.575 643.825 175.885 644.235 174.976C644.675 174.037 645.101 173.055 645.511 172.028C645.951 171.001 646.318 170.092 646.611 169.3C646.905 168.508 647.051 168.024 647.051 167.848C647.11 167.613 647.198 167.393 647.315 167.188C647.433 166.983 647.609 166.909 647.843 166.968C647.961 166.88 648.137 166.836 648.371 166.836C648.606 166.807 648.782 166.792 648.899 166.792C648.899 166.792 649.031 166.851 649.295 166.968C649.559 167.085 649.794 167.261 649.999 167.496C650.234 167.701 650.366 167.98 650.395 168.332C650.425 168.684 650.439 169.036 650.439 169.388C650.41 169.945 650.205 170.576 649.823 171.28C649.442 171.984 649.017 172.761 648.547 173.612C648.254 174.169 647.961 174.697 647.667 175.196C647.403 175.695 647.271 176.003 647.271 176.12C647.271 176.237 647.213 176.413 647.095 176.648C646.978 176.883 646.846 177.176 646.699 177.528C646.523 177.821 646.347 178.173 646.171 178.584C646.025 178.995 645.893 179.376 645.775 179.728C645.658 180.051 645.599 180.256 645.599 180.344C645.57 180.461 645.526 180.579 645.467 180.696C645.438 180.813 645.365 180.931 645.247 181.048C645.13 181.048 645.057 181.136 645.027 181.312C645.027 181.459 645.027 181.532 645.027 181.532C645.027 181.649 644.954 181.928 644.807 182.368C644.69 182.779 644.485 183.277 644.191 183.864C643.634 185.419 643.238 186.665 643.003 187.604C642.769 188.513 642.622 189.291 642.563 189.936C642.505 190.64 642.343 191.124 642.079 191.388C641.815 191.623 641.566 191.799 641.331 191.916ZM638.999 198.736C638.383 198.971 637.87 199.073 637.459 199.044C637.049 199.044 636.594 198.853 636.095 198.472C635.509 197.885 635.303 197.299 635.479 196.712C635.685 196.096 636.213 195.509 637.063 194.952C637.65 194.571 638.075 194.38 638.339 194.38C638.633 194.351 639.058 194.453 639.615 194.688C640.613 195.304 641.053 195.993 640.935 196.756C640.818 197.489 640.173 198.149 638.999 198.736Z" fill="#B8C318"/>
</svg>
