<svg width="900" height="250" viewBox="0 0 900 250" fill="none" xmlns="http://www.w3.org/2000/svg">
<rect y="30" width="900" height="220" rx="60" fill="#E0E772"/>
<rect x="5.5" y="5.5" width="889" height="209" rx="54.5" fill="#FDFDFB" stroke="#B8C318" stroke-width="11"/>
<rect width="594" height="172" transform="translate(153 24)" fill="#FDFDFB"/>
<path d="M235.94 64.46V72.2H244.76V64.46H235.94ZM250.76 98L251.48 104.12C243.56 106.34 234.98 108.56 228.5 110.3L226.88 103.58L229.64 102.98V82.64H235.34V101.72L238.4 101.06V78.2H229.88V58.46H251.18V78.2H244.64V84.62H250.94V90.8H244.64V99.56C246.68 99.02 248.72 98.54 250.76 98ZM259.94 75.14V80H273.74V75.14H259.94ZM273.74 64.76H259.94V69.38H273.74V64.76ZM278.84 86.72L283.28 91.76C280.58 93.86 277.46 96.2 274.88 97.94C277.16 101.3 280.16 104.06 283.76 105.86C282.32 107.24 280.28 110.06 279.26 112.04C270.92 107.06 266.48 97.82 263.78 86.18H259.94V102.98L268.52 101.12C268.46 103.16 268.58 106.1 268.82 107.6C257 110.6 254.78 111.5 253.34 112.4C252.86 110.84 251.36 108.08 250.34 106.82C251.54 106.04 253.1 104.42 253.1 101.66V58.64H280.28V86.18H269.66C270.32 88.52 271.04 90.74 272 92.84C274.46 90.98 277.1 88.64 278.84 86.72ZM334.7 96.2H322.94C325.46 97.52 328.22 98.9 330.92 100.4C332.36 99.14 333.62 97.76 334.7 96.2ZM338.96 91.28L342.86 92.66C341.36 97.04 339.14 100.52 336.26 103.34C338.96 104.84 341.42 106.34 343.22 107.54L339.62 112.28C337.58 110.84 334.7 108.98 331.46 107.06C327.68 109.4 323.06 111.08 318.08 112.22C317.48 110.66 316.22 108.38 315.08 107.06C318.98 106.4 322.64 105.26 325.76 103.7C322.82 102.08 320 100.46 317.42 99.08L319.82 96.2H318.38V91.46H337.88L338.96 91.28ZM342.08 62.48L347.24 66.14C344.96 68.18 342.38 70.1 340.16 71.66C342.8 73.04 345.68 74.18 348.74 75.02C347.24 76.4 345.44 78.92 344.48 80.66C342.02 79.88 339.8 78.92 337.64 77.78V82.94C337.64 84.38 337.76 84.86 338.54 84.86H341.48C342.32 84.86 343.76 84.8 344.54 84.56C344.66 86 344.78 88.04 345.02 89.42C344.18 89.72 342.8 89.78 341.54 89.78H337.82C332.78 89.78 331.82 87.74 331.82 82.88V79.4H326.3C326.12 83.6 324.68 88.1 319.7 91.28C319.04 90.26 317.3 88.52 316.1 87.44V89.24H304.22C303.98 90.62 303.8 92.06 303.62 93.38H316.1C316.1 93.38 316.04 95.06 315.98 95.9C315.32 104 314.6 107.84 313.04 109.4C311.78 110.78 310.34 111.26 308.24 111.38C306.62 111.56 303.5 111.56 300.32 111.44C300.2 109.58 299.36 107.12 298.28 105.5C301.28 105.74 304.22 105.8 305.54 105.8C306.5 105.8 307.16 105.74 307.7 105.2C308.42 104.54 308.96 102.62 309.38 98.54H296.78C297.62 94.64 298.58 88.7 299.12 83.96H309.74V79.76H301.04V78.8C299.24 79.7 297.44 80.48 295.58 81.14C294.74 79.58 293 77.18 291.74 75.92C295.28 74.9 298.7 73.28 301.82 71.3C300.2 70.1 298.04 68.72 296.24 67.7L300.32 63.92C302.36 64.94 304.88 66.38 306.62 67.7C307.88 66.5 309.08 65.24 310.1 63.86H298.28V58.28H313.94L315.14 57.98L319.52 60.14C317.12 66.02 313.1 70.7 308.24 74.36H316.1V86.3C319.82 83.84 320.36 80.96 320.36 78.26V74H331.82C326.6 69.86 322.58 64.52 319.7 58.1L325.4 56.42C326.3 58.46 327.44 60.38 328.82 62.06C330.8 60.38 333.02 58.22 334.46 56.54L339.56 60.2C337.1 62.24 334.52 64.4 332.24 66.02C333.26 66.98 334.34 67.88 335.42 68.72C337.7 66.92 340.46 64.4 342.08 62.48ZM366.92 83.36L365.3 78.92H358.76V65.42H381.44V63.02H361.46V58.34H408.5V63.02H388.4V65.42H411.56V78.92H404.66L403.4 83.18C400.22 82.04 394.04 80.6 389.54 79.88L390.92 75.86C395.18 76.34 401.12 77.6 404.42 78.68V70.1H401.18L403.34 73.16C400.16 74.48 395.78 75.44 392.66 76.04L390.44 72.68C392.78 72.14 396.14 71.06 398.66 70.1H388.4V82.58H381.44V70.1H369.98C373.22 70.7 377.06 71.72 379.34 72.56L377.42 76.4C375.02 75.44 370.52 74.18 367.1 73.46L368.78 70.1H365.54V78.32C369.2 77.9 374.24 77.18 379.4 76.4L379.64 80.48C375.14 81.5 370.7 82.52 366.92 83.36ZM371.12 98.48H381.08V95.78H371.12V98.48ZM381.08 88.88H371.12V91.58H381.08V88.88ZM398.78 91.58V88.88H387.92V91.58H398.78ZM387.92 98.48H398.78V95.78H387.92V98.48ZM392.24 105.98H403.58C406.64 105.98 407.18 105.08 407.6 100.04C408.98 101 411.68 101.9 413.54 102.26C412.7 109.46 410.72 111.38 404.18 111.38H391.58C383.42 111.38 381.08 109.7 381.08 103.46V103.28H371.12V105.86H364.28V84.08H405.86V103.28H387.92V103.46C387.92 105.62 388.64 105.98 392.24 105.98ZM462.92 84.92V81.14H441.38V84.92H462.92ZM441.26 94.76H462.92V90.86H441.38C441.38 92.12 441.32 93.38 441.26 94.76ZM476.6 70.1H444.38C443.72 71.72 442.88 73.28 441.98 74.84H469.88V104.48C469.88 108.02 469.22 109.94 466.76 111.02C464.42 112.16 461 112.22 456.14 112.22C455.84 110.24 454.88 107.24 453.98 105.32C457.04 105.5 460.52 105.5 461.54 105.5C462.56 105.44 462.92 105.14 462.92 104.3V100.7H440.36C439.34 105.2 437.42 109.52 433.7 112.64C432.74 111.14 430.04 108.14 428.54 107.18C433.7 102.68 434.12 96.26 434.12 90.68V85.82C431.84 88.22 429.44 90.44 426.68 92.36C425.6 90.74 423.38 88.16 422 86.84C428.06 82.82 432.86 76.76 436.4 70.1H423.38V63.38H439.46C440.42 60.92 441.2 58.52 441.86 56.12L449.24 57.8C448.64 59.66 447.98 61.52 447.32 63.38H476.6V70.1ZM496.34 70.4V73.16H505.94V70.4H496.34ZM505.94 63.26H496.34V66.08H505.94V63.26ZM508.7 87.8L512.12 86.9C513.08 89.06 514.16 91.82 514.64 93.5L512.24 94.34H513.14V100.1C513.14 104.84 511.94 109.28 504.38 111.92C503.84 110.78 502.34 108.86 501.32 107.96C504.44 107.06 506.18 105.86 507.14 104.42H500.36V95.36H504.68V100.46H508.28V99.98V94.34H510.92C510.8 93.92 510.68 93.38 510.56 92.84C502.34 93.86 500.9 94.16 499.94 94.58V94.52C499.76 93.68 499.16 91.64 498.74 90.56C499.58 90.44 500.66 89.84 501.86 88.94C502.34 88.58 503.3 87.8 504.44 86.72C501.62 86.96 500.72 87.2 500.18 87.44V87.38C499.94 86.48 499.28 84.44 498.74 83.3C499.4 83.18 500.12 82.88 500.72 82.22C501.32 81.74 503.06 80.06 504.26 77.96H496.34V112.22H489.5V58.46H512.66V77.96H506.6L508.82 79.16C507.62 80.72 506.18 82.28 504.68 83.54L507.8 83.42C508.58 82.52 509.3 81.62 510.02 80.72L513.5 83.12C511.16 85.58 508.46 88.1 505.7 90.08L509.42 89.72C509.24 89.06 508.94 88.4 508.7 87.8ZM529.04 95.36V105.02C530.48 105.08 531.74 105.08 532.28 105.02C533.06 105.02 533.3 104.72 533.3 103.94V77.96H522.38L524.78 79.22C523.58 80.78 522.2 82.34 520.76 83.6L523.7 83.48C524.6 82.52 525.38 81.56 526.1 80.6L529.58 83.06C527.18 85.58 524.54 88.1 521.84 90.2L525.44 89.84C525.2 89.18 524.96 88.52 524.66 87.92L528.02 86.84C529.1 89 530.3 91.82 530.84 93.44L527.3 94.82C527.12 94.28 526.88 93.56 526.64 92.84C520.46 93.62 518.12 94.04 516.92 94.34H520.88V100.46H524.48V95.36H529.04ZM533.3 63.26H523.4V66.08H533.3V63.26ZM523.4 70.4V73.16H533.3V70.4H523.4ZM540.2 58.46V104C540.2 107.42 539.72 109.4 537.68 110.6C535.7 111.8 532.88 111.92 528.86 111.92C528.68 110.36 528.08 107.96 527.36 106.1H524.48V104.42H520.88V111.44H515.96V94.34H516.02C515.72 93.38 515.18 91.64 514.76 90.62C515.72 90.56 516.74 89.96 517.94 89C518.42 88.64 519.32 87.86 520.46 86.78C517.64 87.02 516.74 87.26 516.2 87.5C515.96 86.54 515.3 84.5 514.76 83.42C515.42 83.24 516.14 82.94 516.74 82.34C517.28 81.8 519.02 80.12 520.28 77.96H516.62V58.46H540.2ZM564.26 68.06H559.7V89.12H564.26V68.06ZM570.62 95.72H559.7V100.64H553.4V61.46H570.62V95.72ZM572.9 110.3L567.8 107.84C570.08 104.48 571.46 99.14 572.06 94.34L577.34 95.84C576.62 100.94 575.42 106.76 572.9 110.3ZM578.66 95.54L583.28 94.76C584.24 98.66 584.78 103.7 584.66 107L579.74 107.78C579.98 104.48 579.5 99.44 578.66 95.54ZM585.26 95.06L589.52 93.86C590.96 97.16 592.16 101.48 592.52 104.24L587.96 105.68C587.72 102.8 586.58 98.36 585.26 95.06ZM599.12 101.06L594.98 102.62C594.5 100.28 593.18 96.8 591.8 94.22L595.58 92.9C597.14 95.42 598.52 98.84 599.12 101.06ZM580.7 82.7V86.3H587.12V82.7H580.7ZM587.12 64.7H580.7V68.12H587.12V64.7ZM587.12 77.18V73.7H580.7V77.18H587.12ZM593.72 86.3H606.68C606.68 86.3 606.62 88.04 606.56 88.88C606.02 102.38 605.3 107.84 603.8 109.76C602.66 111.2 601.46 111.68 599.9 111.92C598.46 112.16 596.18 112.22 593.66 112.16C593.6 110.24 592.94 107.72 591.98 106.1C593.96 106.28 595.58 106.28 596.48 106.28C597.26 106.28 597.8 106.16 598.28 105.56C599.06 104.6 599.6 101.12 600.02 92.24H573.98V58.52H605.06V64.7H593.72V68.12H603.38V73.7H593.72V77.18H603.38V82.7H593.72V86.3ZM639.74 91.58C638.48 82.16 651.2 80 651.2 74.18C651.2 70.58 648.32 68.54 643.64 68.54C639.92 68.54 636.98 70.16 634.04 73.28L629.12 68.72C632.9 64.28 638.18 61.4 644.6 61.4C653.3 61.4 659.66 65.42 659.66 73.4C659.66 82.22 646.58 83.24 647.48 91.58H639.74ZM643.64 107.54C640.58 107.54 638.36 105.38 638.36 102.26C638.36 99.08 640.64 96.92 643.64 96.92C646.7 96.92 648.92 99.08 648.92 102.26C648.92 105.38 646.7 107.54 643.64 107.54Z" fill="#594A39"/>
<path d="M160.288 171.64C160.171 171.933 159.775 172.08 159.1 172.08C158.426 172.08 157.839 171.889 157.34 171.508C156.988 171.156 156.754 170.877 156.636 170.672C156.548 170.496 156.607 170.173 156.812 169.704C157.018 169.264 157.37 168.472 157.868 167.328C157.986 166.624 158.191 165.92 158.484 165.216C158.778 164.483 158.998 163.969 159.144 163.676C159.262 163.265 159.496 162.591 159.848 161.652C160.23 160.684 160.655 159.613 161.124 158.44C161.623 157.267 162.092 156.167 162.532 155.14C162.972 154.084 163.295 153.292 163.5 152.764C163.999 151.591 164.512 150.359 165.04 149.068C165.568 147.777 166.287 146.149 167.196 144.184C167.314 143.891 167.27 143.583 167.064 143.26C166.859 142.937 166.507 142.776 166.008 142.776C165.715 142.453 165.554 142.116 165.524 141.764C165.495 141.383 165.642 141.119 165.964 140.972L170.012 139.608C171.391 139.285 172.799 139.197 174.236 139.344C175.703 139.461 177.082 139.857 178.372 140.532C179.78 141.353 180.807 142.263 181.452 143.26C182.098 144.257 182.45 145.269 182.508 146.296C182.596 147.293 182.479 148.203 182.156 149.024C181.922 149.64 181.467 150.315 180.792 151.048C180.147 151.781 179.384 152.515 178.504 153.248C177.654 153.981 176.759 154.656 175.82 155.272C174.911 155.859 174.06 156.313 173.268 156.636C172.535 156.988 171.714 157.355 170.804 157.736C169.895 158.088 169.015 158.396 168.164 158.66C167.695 158.777 167.138 158.836 166.492 158.836C165.847 158.836 165.363 158.777 165.04 158.66L164.292 160.068C163.999 161.124 163.486 162.693 162.752 164.776C162.048 166.859 161.227 169.147 160.288 171.64ZM177.756 172.476C177.522 172.564 177.126 172.593 176.568 172.564C176.04 172.535 175.439 172.3 174.764 171.86C173.474 171.097 172.183 170.173 170.892 169.088C169.602 168.003 168.15 166.536 166.536 164.688C165.92 163.955 165.451 163.221 165.128 162.488C164.835 161.755 164.454 160.831 163.984 159.716L163.368 157.34L165.04 156.24L166.976 157.824C167.446 158.851 167.988 159.833 168.604 160.772C169.25 161.711 169.895 162.547 170.54 163.28C171.068 163.896 171.787 164.644 172.696 165.524C173.606 166.375 174.574 167.196 175.6 167.988C176.627 168.78 177.551 169.381 178.372 169.792C178.548 169.939 178.592 170.217 178.504 170.628C178.446 171.068 178.328 171.479 178.152 171.86C178.006 172.241 177.874 172.447 177.756 172.476ZM166.668 155.228C167.343 155.169 168.076 154.993 168.868 154.7C169.69 154.377 170.555 154.025 171.464 153.644C172.315 153.233 173.151 152.793 173.972 152.324C174.823 151.825 175.586 151.283 176.26 150.696C176.964 150.109 177.507 149.479 177.888 148.804C178.299 148.129 178.475 147.411 178.416 146.648C178.416 146.267 178.299 145.841 178.064 145.372C177.83 144.903 177.522 144.477 177.14 144.096C176.788 143.715 176.422 143.465 176.04 143.348C174.867 143.055 173.972 142.879 173.356 142.82C172.74 142.761 172.286 142.849 171.992 143.084C171.728 143.319 171.523 143.729 171.376 144.316C171.376 144.404 171.259 144.683 171.024 145.152C170.79 145.621 170.496 146.223 170.144 146.956C169.822 147.66 169.499 148.423 169.176 149.244C168.326 150.975 167.695 152.251 167.284 153.072C166.903 153.864 166.668 154.392 166.58 154.656C166.522 154.92 166.551 155.111 166.668 155.228ZM193.164 168.12C192.284 168.619 191.346 168.912 190.348 169C189.38 169.059 188.471 168.927 187.62 168.604C186.77 168.252 186.08 167.739 185.552 167.064C185.259 166.683 184.98 166.081 184.716 165.26C184.452 164.409 184.408 163.265 184.584 161.828C184.76 160.479 185.171 159.115 185.816 157.736C186.491 156.357 187.312 155.14 188.28 154.084C189.248 153.028 190.304 152.309 191.448 151.928C191.859 151.781 192.27 151.679 192.68 151.62C193.12 151.532 193.692 151.517 194.396 151.576C195.071 151.664 195.672 151.84 196.2 152.104C196.728 152.339 197.11 152.603 197.344 152.896C197.814 153.365 198.122 153.82 198.268 154.26C198.415 154.7 198.474 155.125 198.444 155.536C198.298 156.475 197.872 157.487 197.168 158.572C196.494 159.657 195.54 160.464 194.308 160.992C193.81 161.197 193.223 161.329 192.548 161.388C191.874 161.447 190.95 161.359 189.776 161.124C189.072 160.977 188.603 161.051 188.368 161.344C188.163 161.637 188.075 162.209 188.104 163.06C188.163 163.588 188.28 164.057 188.456 164.468C188.662 164.849 189.028 165.113 189.556 165.26C190.231 165.377 190.715 165.392 191.008 165.304C191.302 165.187 191.668 165.025 192.108 164.82C192.343 164.673 192.563 164.512 192.768 164.336C193.003 164.16 193.223 163.984 193.428 163.808C193.663 163.632 193.854 163.5 194 163.412C194.147 163.295 194.294 163.221 194.44 163.192C194.587 163.163 194.734 163.148 194.88 163.148C195.203 163.177 195.511 163.353 195.804 163.676C196.098 163.999 196.288 164.307 196.376 164.6C196.376 164.835 196.23 165.172 195.936 165.612C195.643 166.023 195.247 166.463 194.748 166.932C194.279 167.372 193.751 167.768 193.164 168.12ZM192.592 158.308C192.798 158.22 193.091 158.015 193.472 157.692C193.883 157.369 194.25 157.032 194.572 156.68C194.895 156.299 195.056 156.005 195.056 155.8C195.056 155.477 194.836 155.199 194.396 154.964C193.986 154.729 193.443 154.685 192.768 154.832C192.534 154.891 192.255 155.052 191.932 155.316C191.61 155.58 191.287 155.888 190.964 156.24C190.642 156.563 190.363 156.885 190.128 157.208C189.894 157.501 189.732 157.736 189.644 157.912C189.762 158.059 189.996 158.176 190.348 158.264C190.7 158.352 191.082 158.396 191.492 158.396C191.932 158.396 192.299 158.367 192.592 158.308ZM205.165 169.484C204.608 169.631 204.109 169.469 203.669 169C203.229 168.56 202.921 167.9 202.745 167.02C202.569 166.14 202.599 165.157 202.833 164.072C202.98 163.72 203.097 163.383 203.185 163.06C203.273 162.708 203.317 162.429 203.317 162.224C203.376 161.931 203.493 161.505 203.669 160.948C203.845 160.361 204.036 159.76 204.241 159.144C204.447 158.528 204.637 157.985 204.813 157.516C205.019 157.017 205.151 156.709 205.209 156.592C205.327 156.592 205.429 156.489 205.517 156.284C205.605 156.079 205.649 155.873 205.649 155.668C205.649 155.433 205.693 155.169 205.781 154.876C205.899 154.583 206.016 154.377 206.133 154.26C206.133 154.113 206.163 153.952 206.221 153.776C206.309 153.571 206.353 153.409 206.353 153.292C206.353 153.175 206.383 153.057 206.441 152.94C206.529 152.823 206.573 152.705 206.573 152.588C206.779 152.207 207.043 151.605 207.365 150.784C207.717 149.933 208.084 148.995 208.465 147.968C208.876 146.941 209.257 145.929 209.609 144.932C209.961 143.935 210.24 143.099 210.445 142.424C210.68 141.72 210.797 141.295 210.797 141.148C210.797 140.913 210.885 140.693 211.061 140.488C211.237 140.283 211.443 140.18 211.677 140.18C211.765 140.092 211.971 140.033 212.293 140.004C212.616 139.945 212.836 139.916 212.953 139.916C212.953 139.916 213.012 139.975 213.129 140.092C213.247 140.209 213.423 140.385 213.657 140.62C213.892 140.825 214.112 141.06 214.317 141.324C214.552 141.588 214.669 141.896 214.669 142.248C214.669 142.629 214.611 142.996 214.493 143.348C214.405 143.7 214.229 144.184 213.965 144.8C213.701 145.387 213.291 146.267 212.733 147.44C212.499 148.027 212.249 148.584 211.985 149.112C211.721 149.611 211.589 149.919 211.589 150.036C211.589 150.153 211.531 150.329 211.413 150.564C211.325 150.799 211.223 151.092 211.105 151.444C210.988 151.679 210.827 152.031 210.621 152.5C210.416 152.94 210.196 153.424 209.961 153.952C209.756 154.451 209.58 154.891 209.433 155.272C209.287 155.624 209.213 155.829 209.213 155.888C209.213 156.005 209.199 156.123 209.169 156.24C209.169 156.357 209.111 156.475 208.993 156.592C208.876 156.592 208.803 156.68 208.773 156.856C208.773 157.003 208.773 157.076 208.773 157.076C208.773 157.369 208.539 158.147 208.069 159.408C207.6 161.021 207.16 162.503 206.749 163.852C206.368 165.201 206.177 166.287 206.177 167.108C206.177 167.812 206.06 168.355 205.825 168.736C205.62 169.117 205.4 169.367 205.165 169.484ZM218.574 168.384C218.339 168.443 218.031 168.472 217.65 168.472C217.268 168.443 216.931 168.399 216.638 168.34C216.374 168.252 216.242 168.164 216.242 168.076C216.242 167.929 216.168 167.856 216.022 167.856C216.022 167.856 215.86 167.739 215.538 167.504C215.215 167.24 214.922 167.049 214.658 166.932C214.394 166.521 214.218 166.052 214.13 165.524C214.071 164.967 214.247 163.999 214.658 162.62C214.687 161.681 214.951 160.699 215.45 159.672C215.948 158.616 216.579 157.589 217.342 156.592C218.104 155.595 218.896 154.715 219.718 153.952C220.539 153.16 221.272 152.573 221.918 152.192C222.328 151.781 222.871 151.561 223.546 151.532C224.25 151.503 224.866 151.635 225.394 151.928C225.687 152.075 226.01 152.368 226.362 152.808C226.714 153.248 227.051 153.717 227.374 154.216C227.696 154.685 227.946 155.111 228.122 155.492C228.21 155.815 228.283 156.108 228.342 156.372C228.43 156.607 228.488 156.9 228.518 157.252C228.547 157.604 228.518 158.132 228.43 158.836C228.283 159.364 228.151 159.907 228.034 160.464C227.946 160.992 227.902 161.535 227.902 162.092C227.843 162.649 227.902 163.045 228.078 163.28C228.283 163.515 228.576 163.529 228.958 163.324C229.31 163.148 229.676 163.133 230.058 163.28C230.439 163.397 230.703 163.632 230.85 163.984C231.026 164.307 230.982 164.732 230.718 165.26C230.542 165.641 230.263 166.008 229.882 166.36C229.5 166.712 229.075 167.005 228.606 167.24C228.136 167.445 227.682 167.548 227.242 167.548C226.919 167.548 226.596 167.431 226.274 167.196C225.951 166.932 225.658 166.58 225.394 166.14C225.13 165.7 224.91 165.216 224.734 164.688L224.47 163.676L222.886 165.128C222.504 165.539 222.123 165.92 221.742 166.272C221.39 166.595 221.17 166.829 221.082 166.976C220.935 167.24 220.642 167.475 220.202 167.68C219.791 167.885 219.248 168.12 218.574 168.384ZM219.762 164.16C220.26 163.867 220.686 163.515 221.038 163.104C221.419 162.693 221.786 162.239 222.138 161.74C222.49 161.212 222.871 160.655 223.282 160.068C223.78 159.393 224.132 158.851 224.338 158.44C224.572 158.029 224.748 157.589 224.866 157.12C224.748 156.797 224.587 156.46 224.382 156.108C224.176 155.727 223.971 155.521 223.766 155.492C223.355 155.492 222.856 155.741 222.27 156.24C221.712 156.739 221.096 157.457 220.422 158.396C220.304 158.543 220.158 158.777 219.982 159.1C219.806 159.423 219.63 159.731 219.454 160.024C219.307 160.288 219.204 160.464 219.146 160.552C219.058 160.669 218.926 160.948 218.75 161.388C218.603 161.799 218.471 162.224 218.354 162.664C218.236 163.075 218.178 163.368 218.178 163.544C218.178 163.72 218.192 163.911 218.222 164.116C218.28 164.321 218.427 164.453 218.662 164.512C218.896 164.571 219.263 164.453 219.762 164.16ZM241.944 169.264C241.534 169.147 241.123 168.941 240.712 168.648C240.302 168.355 239.876 168.017 239.436 167.636C239.084 167.167 238.835 166.741 238.688 166.36C238.542 165.949 238.454 165.48 238.424 164.952C238.424 164.395 238.424 163.691 238.424 162.84C238.424 162.488 238.483 161.989 238.6 161.344C238.747 160.699 238.894 160.024 239.04 159.32C239.216 158.616 239.378 158 239.524 157.472C239.671 156.915 239.759 156.548 239.788 156.372C239.876 155.991 239.73 155.771 239.348 155.712C238.967 155.653 238.542 155.639 238.072 155.668C237.632 155.668 237.339 155.624 237.192 155.536C237.075 155.507 237.016 155.36 237.016 155.096C237.016 154.803 237.016 154.656 237.016 154.656C237.016 154.539 236.958 154.465 236.84 154.436C236.723 154.377 236.62 154.275 236.532 154.128C236.474 154.011 236.547 153.791 236.752 153.468C236.958 153.145 237.222 152.955 237.544 152.896C237.808 152.837 238.204 152.793 238.732 152.764C239.26 152.705 239.788 152.603 240.316 152.456C240.874 152.28 241.299 152.016 241.592 151.664C241.856 151.019 242.15 150.329 242.472 149.596C242.795 148.833 243.103 148.173 243.396 147.616C243.69 147.029 243.895 146.663 244.012 146.516C244.511 146.252 245.024 146.149 245.552 146.208C246.08 146.237 246.491 146.487 246.784 146.956C246.931 147.161 247.048 147.308 247.136 147.396C247.254 147.484 247.298 147.616 247.268 147.792C247.268 147.968 247.151 148.291 246.916 148.76C246.711 149.2 246.359 149.889 245.86 150.828C245.714 151.121 245.582 151.385 245.464 151.62C245.347 151.825 245.288 151.928 245.288 151.928C245.406 151.957 245.582 151.972 245.816 151.972C246.051 151.972 246.344 151.957 246.696 151.928C247.019 151.869 247.371 151.825 247.752 151.796C248.134 151.737 248.471 151.737 248.764 151.796C249.439 151.796 249.938 151.987 250.26 152.368C250.583 152.749 250.759 153.233 250.788 153.82C250.847 154.143 250.73 154.421 250.436 154.656C250.143 154.891 249.6 155.008 248.808 155.008C248.544 155.008 248.163 155.023 247.664 155.052C247.166 155.081 246.652 155.111 246.124 155.14C245.596 155.169 245.142 155.213 244.76 155.272C244.408 155.301 244.232 155.345 244.232 155.404C244.144 155.463 243.998 155.697 243.792 156.108C243.616 156.489 243.426 156.959 243.22 157.516C243.044 158.073 242.883 158.601 242.736 159.1C242.531 160.097 242.384 161.065 242.296 162.004C242.208 162.943 242.194 163.764 242.252 164.468C242.34 165.143 242.516 165.627 242.78 165.92C243.044 166.184 243.44 166.184 243.968 165.92C244.526 165.627 245.039 165.289 245.508 164.908C246.036 164.468 246.491 164.336 246.872 164.512C247.254 164.659 247.488 164.981 247.576 165.48C247.694 165.949 247.562 166.463 247.18 167.02C246.828 167.577 246.33 168.047 245.684 168.428C245.039 168.809 244.379 169.073 243.704 169.22C243.03 169.396 242.443 169.411 241.944 169.264ZM257.259 168.604C256.115 168.135 255.323 167.372 254.883 166.316C254.443 165.26 254.326 163.852 254.531 162.092C254.59 161.183 254.56 160.581 254.443 160.288C254.326 159.965 254.106 159.657 253.783 159.364C253.695 159.247 253.49 159.056 253.167 158.792C252.844 158.499 252.698 158.279 252.727 158.132C252.698 157.927 252.742 157.677 252.859 157.384C252.976 157.061 253.079 156.885 253.167 156.856C253.372 156.768 253.578 156.665 253.783 156.548C254.018 156.431 254.194 156.401 254.311 156.46C254.428 156.46 254.604 156.533 254.839 156.68C255.103 156.827 255.235 156.959 255.235 157.076C255.352 157.281 255.528 157.193 255.763 156.812C256.027 156.431 256.306 155.947 256.599 155.36C256.892 154.891 257.259 154.451 257.699 154.04C258.139 153.629 258.579 153.263 259.019 152.94C259.488 152.588 259.884 152.324 260.207 152.148C260.354 152.089 260.632 152.001 261.043 151.884C261.483 151.767 261.938 151.679 262.407 151.62C262.876 151.532 263.228 151.503 263.463 151.532C263.991 151.561 264.548 151.781 265.135 152.192C265.722 152.603 266.176 152.984 266.499 153.336C266.88 153.6 267.13 154.011 267.247 154.568C267.394 155.096 267.452 155.653 267.423 156.24C267.394 156.827 267.276 157.325 267.071 157.736C266.983 158.029 266.675 158.44 266.147 158.968C265.619 159.496 265.032 160.009 264.387 160.508C263.771 160.977 263.243 161.3 262.803 161.476C262.422 161.564 261.967 161.637 261.439 161.696C260.911 161.725 260.412 161.725 259.943 161.696C259.503 161.637 259.195 161.564 259.019 161.476C258.814 161.359 258.638 161.403 258.491 161.608C258.374 161.784 258.271 162.283 258.183 163.104C258.154 163.427 258.154 163.705 258.183 163.94C258.242 164.175 258.3 164.351 258.359 164.468C258.564 164.82 258.77 165.084 258.975 165.26C259.18 165.407 259.562 165.451 260.119 165.392C260.676 165.333 261.234 164.996 261.791 164.38C262.378 163.735 262.906 163.221 263.375 162.84C263.492 162.635 263.742 162.503 264.123 162.444C264.534 162.356 265.018 162.385 265.575 162.532C265.898 162.737 266.044 163.06 266.015 163.5C266.015 163.94 265.78 164.585 265.311 165.436C265.223 165.641 264.974 165.949 264.563 166.36C264.182 166.741 263.756 167.137 263.287 167.548C262.847 167.929 262.48 168.208 262.187 168.384C261.307 168.853 260.442 169.073 259.591 169.044C258.74 169.015 257.963 168.868 257.259 168.604ZM260.515 158.704C260.955 158.587 261.322 158.469 261.615 158.352C261.938 158.235 262.246 158.044 262.539 157.78C262.832 157.516 263.17 157.12 263.551 156.592C263.668 156.269 263.727 155.991 263.727 155.756C263.756 155.521 263.742 155.375 263.683 155.316C263.448 155.081 263.184 155.008 262.891 155.096C262.627 155.155 262.334 155.301 262.011 155.536C261.806 155.624 261.512 155.815 261.131 156.108C260.779 156.372 260.427 156.68 260.075 157.032C259.752 157.355 259.488 157.663 259.283 157.956C259.107 158.22 259.078 158.381 259.195 158.44C259.136 158.557 259.298 158.631 259.679 158.66C260.09 158.689 260.368 158.704 260.515 158.704ZM283.834 169.528C283.512 169.645 283.145 169.704 282.734 169.704C282.353 169.733 281.913 169.557 281.414 169.176C281.121 168.853 280.916 168.516 280.798 168.164C280.71 167.812 280.666 167.269 280.666 166.536C280.725 166.096 280.842 165.465 281.018 164.644C281.194 163.793 281.385 162.913 281.59 162.004C281.825 161.065 282.03 160.229 282.206 159.496C282.412 158.733 282.573 158.22 282.69 157.956C282.896 157.252 282.94 156.812 282.822 156.636C282.705 156.46 282.353 156.357 281.766 156.328C281.092 156.299 280.388 156.621 279.654 157.296C278.921 157.971 278.085 159.041 277.146 160.508C276.442 161.593 276.017 162.488 275.87 163.192C275.724 163.867 275.709 164.336 275.826 164.6C275.885 164.717 275.988 164.791 276.134 164.82C276.31 164.82 276.516 164.776 276.75 164.688C277.014 164.6 277.293 164.483 277.586 164.336C277.792 164.219 278.041 164.101 278.334 163.984C278.657 163.837 278.965 163.705 279.258 163.588C279.434 163.588 279.552 163.691 279.61 163.896C279.698 164.101 279.742 164.351 279.742 164.644C279.742 164.761 279.772 164.981 279.83 165.304C279.918 165.627 280.065 165.847 280.27 165.964C280.388 166.081 280.138 166.331 279.522 166.712C278.936 167.064 278.173 167.504 277.234 168.032C276.354 168.237 275.694 168.34 275.254 168.34C274.844 168.34 274.389 168.149 273.89 167.768C273.069 167.269 272.541 166.345 272.306 164.996C272.101 163.647 272.277 162.151 272.834 160.508C273.392 159.188 274.008 158.059 274.682 157.12C275.386 156.152 276.12 155.272 276.882 154.48C277 154.363 277.366 154.128 277.982 153.776C278.598 153.424 279.229 153.145 279.874 152.94C280.608 152.705 281.224 152.617 281.722 152.676C282.25 152.705 282.749 152.881 283.218 153.204C283.746 153.321 284.098 153.307 284.274 153.16C284.48 153.013 284.714 152.603 284.978 151.928C285.506 150.461 286.064 148.98 286.65 147.484C287.237 145.959 287.853 144.419 288.498 142.864C288.792 142.307 288.968 141.881 289.026 141.588C289.114 141.265 289.217 141.045 289.334 140.928L290.566 140.532C290.889 140.444 291.256 140.591 291.666 140.972C292.106 141.353 292.385 141.72 292.502 142.072C292.502 142.336 292.385 142.923 292.15 143.832C291.916 144.712 291.534 145.768 291.006 147C290.537 148.085 290.068 149.185 289.598 150.3C289.158 151.385 288.733 152.544 288.322 153.776C288 154.685 287.706 155.419 287.442 155.976C287.178 156.533 287.002 157.017 286.914 157.428C286.738 158.191 286.518 158.88 286.254 159.496C286.02 160.083 285.858 160.493 285.77 160.728C285.389 161.843 285.096 162.767 284.89 163.5C284.685 164.204 284.553 164.82 284.494 165.348C284.436 165.847 284.421 166.345 284.45 166.844C284.48 167.313 284.538 167.856 284.626 168.472C284.626 168.589 284.538 168.765 284.362 169C284.216 169.205 284.04 169.381 283.834 169.528ZM311.05 169.044C310.727 168.985 310.375 168.795 309.994 168.472C309.612 168.12 309.26 167.739 308.938 167.328C308.644 166.888 308.454 166.521 308.366 166.228C308.366 166.169 308.322 166.096 308.234 166.008C308.175 165.92 308.146 165.876 308.146 165.876C308.028 165.788 307.955 165.407 307.926 164.732C307.926 164.028 307.97 163.251 308.058 162.4C308.146 161.549 308.248 160.875 308.366 160.376C308.512 159.907 308.732 159.276 309.026 158.484C309.319 157.663 309.568 156.929 309.774 156.284L310.962 153.732L309.202 153.248C308.996 153.189 308.82 153.072 308.674 152.896C308.556 152.72 308.498 152.573 308.498 152.456C308.498 152.221 308.63 151.884 308.894 151.444C309.158 151.004 309.348 150.784 309.466 150.784C309.612 150.813 309.876 150.828 310.258 150.828C310.668 150.828 311.064 150.813 311.446 150.784C311.827 150.755 312.062 150.725 312.15 150.696C312.267 150.637 312.384 150.564 312.502 150.476C312.619 150.359 312.707 150.197 312.766 149.992C312.912 149.669 313.044 149.42 313.162 149.244C313.279 149.068 313.44 148.804 313.646 148.452C313.851 148.071 314.012 147.748 314.13 147.484C314.276 147.22 314.496 146.853 314.79 146.384C314.936 146.179 315.098 145.929 315.274 145.636C315.45 145.343 315.67 145.093 315.934 144.888C316.198 144.653 316.623 144.492 317.21 144.404C317.826 144.287 318.354 144.419 318.794 144.8C319.028 145.093 319.16 145.372 319.19 145.636C319.219 145.9 319.102 146.237 318.838 146.648C318.603 147.147 318.324 147.601 318.002 148.012C317.708 148.393 317.43 148.833 317.166 149.332C316.696 149.977 316.608 150.344 316.902 150.432C317.195 150.52 318.016 150.461 319.366 150.256C320.216 150.109 320.832 150.197 321.214 150.52C321.595 150.843 321.815 151.253 321.874 151.752C321.962 152.456 321.888 152.881 321.654 153.028C321.419 153.175 320.744 153.248 319.63 153.248C318.926 153.365 318.324 153.439 317.826 153.468C317.327 153.468 316.96 153.468 316.726 153.468C316.344 153.497 316.095 153.512 315.978 153.512C315.86 153.512 315.684 153.541 315.45 153.6C315.215 153.659 315.039 153.761 314.922 153.908C314.834 154.025 314.731 154.201 314.614 154.436C314.496 154.553 314.32 154.861 314.086 155.36C313.851 155.859 313.558 156.401 313.206 156.988C312.795 158.22 312.443 159.408 312.15 160.552C311.886 161.667 311.651 162.781 311.446 163.896C311.358 164.453 311.372 164.864 311.49 165.128C311.636 165.363 312.018 165.509 312.634 165.568C312.956 165.597 313.426 165.597 314.042 165.568C314.658 165.509 315.171 165.421 315.582 165.304C315.904 165.157 316.242 165.011 316.594 164.864C316.946 164.688 317.268 164.512 317.562 164.336C317.826 164.189 318.09 164.043 318.354 163.896C318.618 163.72 318.75 163.632 318.75 163.632C318.896 163.397 319.102 163.441 319.366 163.764C319.659 164.057 319.864 164.38 319.982 164.732C319.982 165.084 319.908 165.509 319.762 166.008C319.615 166.477 319.072 166.976 318.134 167.504C316.814 168.325 315.494 168.824 314.174 169C312.854 169.176 311.812 169.191 311.05 169.044ZM329.004 168.692C328.623 168.692 328.315 168.619 328.08 168.472C327.875 168.325 327.611 168.12 327.288 167.856C326.731 167.269 326.276 166.639 325.924 165.964C325.601 165.289 325.484 164.703 325.572 164.204C325.66 163.969 325.689 163.749 325.66 163.544C325.66 163.309 325.66 163.192 325.66 163.192C325.513 163.045 325.469 162.957 325.528 162.928C325.587 162.869 325.645 162.781 325.704 162.664C325.88 162.664 325.939 162.503 325.88 162.18C325.821 161.945 325.909 161.447 326.144 160.684C326.408 159.892 326.76 159.144 327.2 158.44C327.376 158.147 327.64 157.765 327.992 157.296C328.344 156.797 328.725 156.313 329.136 155.844C329.576 155.345 329.972 154.949 330.324 154.656C331.057 154.04 331.732 153.541 332.348 153.16C332.993 152.779 333.639 152.515 334.284 152.368C334.929 152.221 335.589 152.148 336.264 152.148C336.968 152.148 337.54 152.383 337.98 152.852C338.655 153.145 339.124 153.541 339.388 154.04C339.681 154.539 339.872 155.184 339.96 155.976C340.048 156.856 339.96 157.941 339.696 159.232C339.432 160.493 338.713 161.96 337.54 163.632C336.807 164.688 336.088 165.509 335.384 166.096C334.68 166.683 333.903 167.225 333.052 167.724C332.436 168.135 331.776 168.384 331.072 168.472C330.368 168.56 329.679 168.633 329.004 168.692ZM333.492 163.324C334.137 162.767 334.592 162.151 334.856 161.476C335.149 160.801 335.457 160.009 335.78 159.1C335.897 158.924 335.971 158.631 336 158.22C336.059 157.809 336.073 157.413 336.044 157.032C336.015 156.621 335.912 156.387 335.736 156.328C335.472 156.123 335.208 156.079 334.944 156.196C334.68 156.284 334.343 156.475 333.932 156.768C333.052 157.501 332.231 158.352 331.468 159.32C330.735 160.259 330.221 161.417 329.928 162.796C329.84 163.529 329.913 164.087 330.148 164.468C330.412 164.82 330.823 164.923 331.38 164.776C331.967 164.6 332.671 164.116 333.492 163.324ZM364.094 169.792C362.48 169.792 361.234 169.323 360.354 168.384C359.503 167.445 359.078 166.008 359.078 164.072C359.078 163.016 359.268 161.857 359.65 160.596C360.06 159.335 360.588 158.103 361.234 156.9C361.908 155.697 362.642 154.656 363.434 153.776C364.226 152.867 365.018 152.236 365.81 151.884C366.103 151.737 366.411 151.635 366.734 151.576C367.086 151.488 367.423 151.444 367.746 151.444C368.098 151.444 368.479 151.473 368.89 151.532C369.33 151.561 369.74 151.649 370.122 151.796C370.796 152.001 371.383 152.397 371.882 152.984C372.41 153.571 372.674 154.421 372.674 155.536C372.674 155.829 372.644 156.152 372.586 156.504C372.527 156.827 372.424 157.149 372.278 157.472C371.896 158.44 371.31 159.364 370.518 160.244C369.755 161.124 368.948 161.74 368.098 162.092C367.863 162.209 367.628 162.297 367.394 162.356C367.188 162.385 366.968 162.4 366.734 162.4C366.118 162.4 365.56 162.312 365.062 162.136C364.592 161.96 364.152 161.725 363.742 161.432L363.39 161.124L363.17 161.564C362.964 162.121 362.818 162.591 362.73 162.972C362.671 163.353 362.642 163.632 362.642 163.808C362.642 164.16 362.656 164.527 362.686 164.908C362.715 165.26 362.803 165.553 362.95 165.788C363.067 165.935 363.214 166.052 363.39 166.14C363.595 166.228 363.844 166.272 364.138 166.272C364.314 166.272 364.475 166.272 364.622 166.272C364.798 166.243 364.944 166.213 365.062 166.184C365.59 166.067 366.015 165.876 366.338 165.612C366.69 165.319 367.056 165.069 367.438 164.864L367.614 164.776L367.57 164.644C368.068 164.38 368.406 164.219 368.582 164.16C368.758 164.072 368.89 163.999 368.978 163.94C369.095 163.823 369.227 163.764 369.374 163.764C369.784 163.705 370.18 163.823 370.562 164.116C370.972 164.38 371.178 164.717 371.178 165.128C371.178 165.304 371.046 165.583 370.782 165.964C370.547 166.345 370.239 166.727 369.858 167.108C369.506 167.46 369.139 167.739 368.758 167.944C368.67 167.973 368.582 168.017 368.494 168.076C368.406 168.105 368.318 168.149 368.23 168.208H368.274C368.01 168.56 367.746 168.736 367.482 168.736H367.13C367.012 168.941 366.631 169.161 365.986 169.396C365.34 169.66 364.71 169.792 364.094 169.792ZM366.382 159.188C366.646 159.188 366.88 159.144 367.086 159.056C367.32 158.968 367.54 158.865 367.746 158.748C368.45 158.249 368.904 157.604 369.11 156.812C369.315 156.02 369.242 155.419 368.89 155.008C368.831 154.92 368.758 154.861 368.67 154.832C368.582 154.773 368.479 154.744 368.362 154.744C368.039 154.744 367.672 154.847 367.262 155.052C366.88 155.257 366.499 155.551 366.118 155.932C365.736 156.313 365.384 156.768 365.062 157.296L364.49 158.22C364.548 158.191 364.592 158.176 364.622 158.176C364.68 158.147 364.724 158.132 364.754 158.132C365.018 158.132 365.194 158.22 365.282 158.396C365.37 158.572 365.472 158.748 365.59 158.924C365.736 159.1 366 159.188 366.382 159.188ZM379.009 167.944C378.716 167.768 378.393 167.519 378.041 167.196C377.689 166.844 377.513 166.507 377.513 166.184C377.513 165.744 377.572 165.201 377.689 164.556C377.806 163.881 377.924 163.309 378.041 162.84C378.1 162.312 378.173 161.784 378.261 161.256C378.378 160.699 378.584 160.185 378.877 159.716C379.2 158.601 379.537 157.501 379.889 156.416C380.241 155.301 380.549 154.157 380.813 152.984C381.194 151.899 381.532 150.945 381.825 150.124C382.148 149.273 382.544 148.203 383.013 146.912C383.277 146.179 383.497 145.401 383.673 144.58C383.878 143.729 384.186 142.967 384.597 142.292C384.773 142.028 384.905 141.808 384.993 141.632C385.11 141.427 385.228 141.236 385.345 141.06C385.374 140.943 385.521 140.84 385.785 140.752C386.078 140.664 386.372 140.62 386.665 140.62C386.988 140.591 387.208 140.649 387.325 140.796C387.413 140.767 387.56 140.884 387.765 141.148C387.97 141.383 388.161 141.661 388.337 141.984C388.542 142.277 388.63 142.512 388.601 142.688C388.601 142.805 388.572 142.967 388.513 143.172C388.484 143.377 388.41 143.568 388.293 143.744C388.176 143.861 388.058 144.037 387.941 144.272C387.853 144.477 387.706 144.771 387.501 145.152C387.384 145.533 387.281 145.929 387.193 146.34C387.105 146.721 386.988 147.073 386.841 147.396C386.724 147.748 386.577 148.085 386.401 148.408C386.254 148.731 386.152 148.995 386.093 149.2C385.888 149.875 385.638 150.535 385.345 151.18C385.081 151.825 384.846 152.515 384.641 153.248C384.436 153.952 384.23 154.685 384.025 155.448C383.82 156.181 383.526 156.885 383.145 157.56C382.94 157.883 382.793 158.293 382.705 158.792C382.617 159.291 382.529 159.789 382.441 160.288C382.265 160.816 382.104 161.315 381.957 161.784C381.84 162.224 381.781 162.503 381.781 162.62C381.605 163.265 381.473 163.911 381.385 164.556C381.326 165.172 381.18 165.715 380.945 166.184C380.916 166.477 380.813 166.8 380.637 167.152C380.461 167.504 380.226 167.768 379.933 167.944C379.669 168.12 379.361 168.12 379.009 167.944ZM392.153 168.604C391.009 168.135 390.217 167.372 389.777 166.316C389.337 165.26 389.22 163.852 389.425 162.092C389.484 161.183 389.455 160.581 389.337 160.288C389.22 159.965 389 159.657 388.677 159.364C388.589 159.247 388.384 159.056 388.061 158.792C387.739 158.499 387.592 158.279 387.621 158.132C387.592 157.927 387.636 157.677 387.753 157.384C387.871 157.061 387.973 156.885 388.061 156.856C388.267 156.768 388.472 156.665 388.677 156.548C388.912 156.431 389.088 156.401 389.205 156.46C389.323 156.46 389.499 156.533 389.733 156.68C389.997 156.827 390.129 156.959 390.129 157.076C390.247 157.281 390.423 157.193 390.657 156.812C390.921 156.431 391.2 155.947 391.493 155.36C391.787 154.891 392.153 154.451 392.593 154.04C393.033 153.629 393.473 153.263 393.913 152.94C394.383 152.588 394.779 152.324 395.101 152.148C395.248 152.089 395.527 152.001 395.937 151.884C396.377 151.767 396.832 151.679 397.301 151.62C397.771 151.532 398.123 151.503 398.357 151.532C398.885 151.561 399.443 151.781 400.029 152.192C400.616 152.603 401.071 152.984 401.393 153.336C401.775 153.6 402.024 154.011 402.141 154.568C402.288 155.096 402.347 155.653 402.317 156.24C402.288 156.827 402.171 157.325 401.965 157.736C401.877 158.029 401.569 158.44 401.041 158.968C400.513 159.496 399.927 160.009 399.281 160.508C398.665 160.977 398.137 161.3 397.697 161.476C397.316 161.564 396.861 161.637 396.333 161.696C395.805 161.725 395.307 161.725 394.837 161.696C394.397 161.637 394.089 161.564 393.913 161.476C393.708 161.359 393.532 161.403 393.385 161.608C393.268 161.784 393.165 162.283 393.077 163.104C393.048 163.427 393.048 163.705 393.077 163.94C393.136 164.175 393.195 164.351 393.253 164.468C393.459 164.82 393.664 165.084 393.869 165.26C394.075 165.407 394.456 165.451 395.013 165.392C395.571 165.333 396.128 164.996 396.685 164.38C397.272 163.735 397.8 163.221 398.269 162.84C398.387 162.635 398.636 162.503 399.017 162.444C399.428 162.356 399.912 162.385 400.469 162.532C400.792 162.737 400.939 163.06 400.909 163.5C400.909 163.94 400.675 164.585 400.205 165.436C400.117 165.641 399.868 165.949 399.457 166.36C399.076 166.741 398.651 167.137 398.181 167.548C397.741 167.929 397.375 168.208 397.081 168.384C396.201 168.853 395.336 169.073 394.485 169.044C393.635 169.015 392.857 168.868 392.153 168.604ZM395.409 158.704C395.849 158.587 396.216 158.469 396.509 158.352C396.832 158.235 397.14 158.044 397.433 157.78C397.727 157.516 398.064 157.12 398.445 156.592C398.563 156.269 398.621 155.991 398.621 155.756C398.651 155.521 398.636 155.375 398.577 155.316C398.343 155.081 398.079 155.008 397.785 155.096C397.521 155.155 397.228 155.301 396.905 155.536C396.7 155.624 396.407 155.815 396.025 156.108C395.673 156.372 395.321 156.68 394.969 157.032C394.647 157.355 394.383 157.663 394.177 157.956C394.001 158.22 393.972 158.381 394.089 158.44C394.031 158.557 394.192 158.631 394.573 158.66C394.984 158.689 395.263 158.704 395.409 158.704ZM413.933 168.604C413.551 168.78 413.111 168.853 412.613 168.824C412.114 168.795 411.439 168.633 410.589 168.34C410.53 168.34 410.325 168.208 409.973 167.944C409.621 167.68 409.269 167.372 408.917 167.02C408.565 166.668 408.33 166.375 408.213 166.14C407.743 165.465 407.597 164.468 407.773 163.148C407.978 161.828 408.447 160.244 409.181 158.396C409.386 157.956 409.694 157.399 410.105 156.724C410.545 156.049 410.97 155.433 411.381 154.876C411.821 154.289 412.129 153.952 412.305 153.864C412.305 153.864 412.466 153.805 412.789 153.688C413.111 153.571 413.522 153.38 414.021 153.116C414.167 153.057 414.417 152.984 414.769 152.896C415.15 152.808 415.531 152.735 415.913 152.676C416.323 152.588 416.602 152.559 416.749 152.588C417.335 152.617 417.937 152.837 418.553 153.248C419.198 153.629 419.726 154.084 420.137 154.612C420.547 155.111 420.679 155.551 420.533 155.932C420.533 155.991 420.445 156.181 420.269 156.504C420.122 156.797 419.961 157.105 419.785 157.428C419.609 157.721 419.462 157.941 419.345 158.088C419.198 158.264 418.934 158.337 418.553 158.308C418.201 158.279 417.878 158.161 417.585 157.956C417.291 157.751 417.13 157.472 417.101 157.12C417.042 156.885 416.822 156.665 416.441 156.46C416.089 156.255 415.913 156.152 415.913 156.152C415.678 156.152 415.37 156.387 414.989 156.856C414.607 157.325 414.211 157.853 413.801 158.44C413.273 158.968 412.891 159.54 412.657 160.156C412.451 160.743 412.305 161.3 412.217 161.828C412.158 162.327 412.085 162.708 411.997 162.972C411.879 163.265 411.879 163.632 411.997 164.072C412.114 164.512 412.261 164.761 412.437 164.82C412.701 164.849 413.053 164.835 413.493 164.776C413.962 164.688 414.446 164.585 414.945 164.468C415.473 164.321 416.001 164.175 416.529 164.028C417.057 163.852 417.526 163.676 417.937 163.5C418.494 163.148 418.978 163.016 419.389 163.104C419.799 163.163 420.107 163.221 420.313 163.28C420.635 163.397 420.797 163.647 420.797 164.028C420.797 164.409 420.665 164.82 420.401 165.26C420.137 165.671 419.755 166.008 419.257 166.272C418.787 166.507 418.362 166.771 417.981 167.064C417.629 167.328 417.453 167.533 417.453 167.68C417.335 167.68 417.203 167.724 417.057 167.812C416.939 167.871 416.837 167.885 416.749 167.856C416.69 167.856 416.455 167.9 416.045 167.988C415.634 168.076 415.209 168.179 414.769 168.296C414.358 168.413 414.079 168.516 413.933 168.604ZM430.865 169.044C430.543 168.985 430.191 168.795 429.809 168.472C429.428 168.12 429.076 167.739 428.753 167.328C428.46 166.888 428.269 166.521 428.181 166.228C428.181 166.169 428.137 166.096 428.049 166.008C427.991 165.92 427.961 165.876 427.961 165.876C427.844 165.788 427.771 165.407 427.741 164.732C427.741 164.028 427.785 163.251 427.873 162.4C427.961 161.549 428.064 160.875 428.181 160.376C428.328 159.907 428.548 159.276 428.841 158.484C429.135 157.663 429.384 156.929 429.589 156.284L430.777 153.732L429.017 153.248C428.812 153.189 428.636 153.072 428.489 152.896C428.372 152.72 428.313 152.573 428.313 152.456C428.313 152.221 428.445 151.884 428.709 151.444C428.973 151.004 429.164 150.784 429.281 150.784C429.428 150.813 429.692 150.828 430.073 150.828C430.484 150.828 430.88 150.813 431.261 150.784C431.643 150.755 431.877 150.725 431.965 150.696C432.083 150.637 432.2 150.564 432.317 150.476C432.435 150.359 432.523 150.197 432.581 149.992C432.728 149.669 432.86 149.42 432.977 149.244C433.095 149.068 433.256 148.804 433.461 148.452C433.667 148.071 433.828 147.748 433.945 147.484C434.092 147.22 434.312 146.853 434.605 146.384C434.752 146.179 434.913 145.929 435.089 145.636C435.265 145.343 435.485 145.093 435.749 144.888C436.013 144.653 436.439 144.492 437.025 144.404C437.641 144.287 438.169 144.419 438.609 144.8C438.844 145.093 438.976 145.372 439.005 145.636C439.035 145.9 438.917 146.237 438.653 146.648C438.419 147.147 438.14 147.601 437.817 148.012C437.524 148.393 437.245 148.833 436.981 149.332C436.512 149.977 436.424 150.344 436.717 150.432C437.011 150.52 437.832 150.461 439.181 150.256C440.032 150.109 440.648 150.197 441.029 150.52C441.411 150.843 441.631 151.253 441.689 151.752C441.777 152.456 441.704 152.881 441.469 153.028C441.235 153.175 440.56 153.248 439.445 153.248C438.741 153.365 438.14 153.439 437.641 153.468C437.143 153.468 436.776 153.468 436.541 153.468C436.16 153.497 435.911 153.512 435.793 153.512C435.676 153.512 435.5 153.541 435.265 153.6C435.031 153.659 434.855 153.761 434.737 153.908C434.649 154.025 434.547 154.201 434.429 154.436C434.312 154.553 434.136 154.861 433.901 155.36C433.667 155.859 433.373 156.401 433.021 156.988C432.611 158.22 432.259 159.408 431.965 160.552C431.701 161.667 431.467 162.781 431.261 163.896C431.173 164.453 431.188 164.864 431.305 165.128C431.452 165.363 431.833 165.509 432.449 165.568C432.772 165.597 433.241 165.597 433.857 165.568C434.473 165.509 434.987 165.421 435.397 165.304C435.72 165.157 436.057 165.011 436.409 164.864C436.761 164.688 437.084 164.512 437.377 164.336C437.641 164.189 437.905 164.043 438.169 163.896C438.433 163.72 438.565 163.632 438.565 163.632C438.712 163.397 438.917 163.441 439.181 163.764C439.475 164.057 439.68 164.38 439.797 164.732C439.797 165.084 439.724 165.509 439.577 166.008C439.431 166.477 438.888 166.976 437.949 167.504C436.629 168.325 435.309 168.824 433.989 169C432.669 169.176 431.628 169.191 430.865 169.044ZM449.348 168.076C449.26 168.105 449.069 168.091 448.776 168.032C448.512 167.973 448.233 167.9 447.94 167.812C447.676 167.724 447.514 167.651 447.456 167.592C447.338 167.475 447.177 167.269 446.972 166.976C446.766 166.653 446.649 166.228 446.62 165.7C446.62 165.172 446.869 164.541 447.368 163.808C447.514 163.515 447.69 163.075 447.896 162.488C448.101 161.901 448.306 161.285 448.512 160.64C448.746 159.965 448.952 159.364 449.128 158.836C449.333 158.308 449.48 157.941 449.568 157.736C449.626 157.237 449.597 156.885 449.48 156.68C449.392 156.445 449.142 156.313 448.732 156.284C448.438 156.284 448.204 156.181 448.028 155.976C447.881 155.771 447.808 155.404 447.808 154.876C447.866 154.465 447.969 154.113 448.116 153.82C448.292 153.497 448.526 153.233 448.82 153.028C449.113 152.881 449.48 152.779 449.92 152.72C450.389 152.661 450.844 152.647 451.284 152.676C451.724 152.705 452.032 152.808 452.208 152.984C452.413 153.101 452.574 153.365 452.692 153.776C452.838 154.157 452.956 154.553 453.044 154.964C453.132 155.375 453.19 155.683 453.22 155.888C453.513 155.653 453.836 155.331 454.188 154.92C454.569 154.48 454.95 154.069 455.332 153.688C455.801 153.365 456.358 153.043 457.004 152.72C457.649 152.368 458.118 152.192 458.412 152.192C458.734 152.192 459.13 152.353 459.6 152.676C460.069 152.969 460.362 153.233 460.48 153.468C460.773 153.967 460.978 154.495 461.096 155.052C461.242 155.58 461.154 156.049 460.832 156.46C460.538 156.841 460.128 157.223 459.6 157.604C459.072 157.956 458.412 158.059 457.62 157.912C457.444 157.853 457.253 157.633 457.048 157.252C456.872 156.871 456.769 156.592 456.74 156.416C456.74 156.328 456.608 156.416 456.344 156.68C456.109 156.915 455.816 157.208 455.464 157.56C455.141 157.912 454.833 158.235 454.54 158.528C454.041 159.144 453.513 159.98 452.956 161.036C452.398 162.092 451.738 163.368 450.976 164.864C450.624 165.597 450.33 166.301 450.096 166.976C449.861 167.621 449.612 167.988 449.348 168.076ZM465.335 168.252C465.101 168.017 464.925 167.665 464.807 167.196C464.719 166.727 464.69 166.272 464.719 165.832C464.749 165.363 464.822 165.011 464.939 164.776C464.939 164.541 464.969 164.365 465.027 164.248C465.115 164.101 465.145 163.969 465.115 163.852C465.086 163.735 465.115 163.529 465.203 163.236C465.291 162.943 465.379 162.664 465.467 162.4C465.673 161.931 465.907 161.329 466.171 160.596C466.435 159.833 466.699 159.071 466.963 158.308C467.227 157.516 467.447 156.841 467.623 156.284C467.799 155.697 467.902 155.345 467.931 155.228C467.931 154.876 468.166 154.685 468.635 154.656C468.987 154.539 469.413 154.685 469.911 155.096C470.41 155.507 470.806 155.947 471.099 156.416C471.334 156.651 471.422 156.959 471.363 157.34C471.305 157.721 471.114 158.264 470.791 158.968C470.674 159.203 470.527 159.599 470.351 160.156C470.205 160.684 470.102 161.124 470.043 161.476C469.926 161.711 469.779 162.048 469.603 162.488C469.457 162.899 469.325 163.295 469.207 163.676C469.149 163.823 469.09 164.101 469.031 164.512C468.973 164.893 468.899 165.289 468.811 165.7C468.723 166.111 468.606 166.433 468.459 166.668C468.195 167.871 467.726 168.575 467.051 168.78C466.406 168.985 465.834 168.809 465.335 168.252ZM470.087 150.608C469.765 150.373 469.515 150.095 469.339 149.772C469.193 149.42 469.105 149.112 469.075 148.848C469.075 148.584 469.105 148.423 469.163 148.364C469.457 148.041 469.706 147.616 469.911 147.088C470.146 146.56 470.395 146.076 470.659 145.636C470.718 145.548 470.791 145.431 470.879 145.284C470.997 145.108 471.114 145.005 471.231 144.976C471.583 144.741 472.067 144.756 472.683 145.02C473.329 145.284 473.798 145.651 474.091 146.12C474.355 146.677 474.429 147.249 474.311 147.836C474.223 148.423 473.915 149.039 473.387 149.684C472.947 150.271 472.39 150.652 471.715 150.828C471.041 150.975 470.498 150.901 470.087 150.608ZM483.872 168.604C483.491 168.78 483.051 168.853 482.552 168.824C482.053 168.795 481.379 168.633 480.528 168.34C480.469 168.34 480.264 168.208 479.912 167.944C479.56 167.68 479.208 167.372 478.856 167.02C478.504 166.668 478.269 166.375 478.152 166.14C477.683 165.465 477.536 164.468 477.712 163.148C477.917 161.828 478.387 160.244 479.12 158.396C479.325 157.956 479.633 157.399 480.044 156.724C480.484 156.049 480.909 155.433 481.32 154.876C481.76 154.289 482.068 153.952 482.244 153.864C482.244 153.864 482.405 153.805 482.728 153.688C483.051 153.571 483.461 153.38 483.96 153.116C484.107 153.057 484.356 152.984 484.708 152.896C485.089 152.808 485.471 152.735 485.852 152.676C486.263 152.588 486.541 152.559 486.688 152.588C487.275 152.617 487.876 152.837 488.492 153.248C489.137 153.629 489.665 154.084 490.076 154.612C490.487 155.111 490.619 155.551 490.472 155.932C490.472 155.991 490.384 156.181 490.208 156.504C490.061 156.797 489.9 157.105 489.724 157.428C489.548 157.721 489.401 157.941 489.284 158.088C489.137 158.264 488.873 158.337 488.492 158.308C488.14 158.279 487.817 158.161 487.524 157.956C487.231 157.751 487.069 157.472 487.04 157.12C486.981 156.885 486.761 156.665 486.38 156.46C486.028 156.255 485.852 156.152 485.852 156.152C485.617 156.152 485.309 156.387 484.928 156.856C484.547 157.325 484.151 157.853 483.74 158.44C483.212 158.968 482.831 159.54 482.596 160.156C482.391 160.743 482.244 161.3 482.156 161.828C482.097 162.327 482.024 162.708 481.936 162.972C481.819 163.265 481.819 163.632 481.936 164.072C482.053 164.512 482.2 164.761 482.376 164.82C482.64 164.849 482.992 164.835 483.432 164.776C483.901 164.688 484.385 164.585 484.884 164.468C485.412 164.321 485.94 164.175 486.468 164.028C486.996 163.852 487.465 163.676 487.876 163.5C488.433 163.148 488.917 163.016 489.328 163.104C489.739 163.163 490.047 163.221 490.252 163.28C490.575 163.397 490.736 163.647 490.736 164.028C490.736 164.409 490.604 164.82 490.34 165.26C490.076 165.671 489.695 166.008 489.196 166.272C488.727 166.507 488.301 166.771 487.92 167.064C487.568 167.328 487.392 167.533 487.392 167.68C487.275 167.68 487.143 167.724 486.996 167.812C486.879 167.871 486.776 167.885 486.688 167.856C486.629 167.856 486.395 167.9 485.984 167.988C485.573 168.076 485.148 168.179 484.708 168.296C484.297 168.413 484.019 168.516 483.872 168.604ZM500.805 168.956C500.101 168.956 499.485 168.589 498.957 167.856C498.458 167.093 498.15 166.184 498.033 165.128C498.062 164.893 498.091 164.556 498.121 164.116C498.179 163.676 498.238 163.221 498.297 162.752C498.414 162.195 498.575 161.476 498.781 160.596C498.986 159.716 499.206 158.836 499.441 157.956C499.675 157.047 499.881 156.269 500.057 155.624C500.233 154.949 500.335 154.553 500.365 154.436C500.541 154.025 500.937 153.923 501.553 154.128C502.169 154.333 502.697 154.773 503.137 155.448C503.313 155.683 503.415 155.961 503.445 156.284C503.503 156.607 503.459 157.076 503.313 157.692C503.195 158.308 502.961 159.217 502.609 160.42C502.286 161.593 502.037 162.547 501.861 163.28C501.714 163.984 501.655 164.732 501.685 165.524C501.567 166.873 501.45 167.797 501.333 168.296C501.215 168.765 501.039 168.985 500.805 168.956ZM504.853 150.696C504.735 150.784 504.618 150.828 504.501 150.828C504.413 150.799 504.251 150.711 504.017 150.564C503.811 150.535 503.547 150.403 503.225 150.168C502.931 149.904 502.667 149.64 502.433 149.376C502.227 149.112 502.125 148.951 502.125 148.892C502.095 148.599 502.11 148.129 502.169 147.484C502.257 146.839 502.418 146.237 502.653 145.68C502.917 145.093 503.269 144.785 503.709 144.756C503.826 144.756 504.075 144.815 504.457 144.932C504.867 145.049 505.293 145.196 505.733 145.372C505.967 145.812 506.187 146.384 506.393 147.088C506.598 147.792 506.613 148.481 506.437 149.156C506.29 149.801 505.762 150.315 504.853 150.696ZM512.961 169.044C512.639 168.985 512.287 168.795 511.905 168.472C511.524 168.12 511.172 167.739 510.849 167.328C510.556 166.888 510.365 166.521 510.277 166.228C510.277 166.169 510.233 166.096 510.145 166.008C510.087 165.92 510.057 165.876 510.057 165.876C509.94 165.788 509.867 165.407 509.837 164.732C509.837 164.028 509.881 163.251 509.969 162.4C510.057 161.549 510.16 160.875 510.277 160.376C510.424 159.907 510.644 159.276 510.937 158.484C511.231 157.663 511.48 156.929 511.685 156.284L512.873 153.732L511.113 153.248C510.908 153.189 510.732 153.072 510.585 152.896C510.468 152.72 510.409 152.573 510.409 152.456C510.409 152.221 510.541 151.884 510.805 151.444C511.069 151.004 511.26 150.784 511.377 150.784C511.524 150.813 511.788 150.828 512.169 150.828C512.58 150.828 512.976 150.813 513.357 150.784C513.739 150.755 513.973 150.725 514.061 150.696C514.179 150.637 514.296 150.564 514.413 150.476C514.531 150.359 514.619 150.197 514.677 149.992C514.824 149.669 514.956 149.42 515.073 149.244C515.191 149.068 515.352 148.804 515.557 148.452C515.763 148.071 515.924 147.748 516.041 147.484C516.188 147.22 516.408 146.853 516.701 146.384C516.848 146.179 517.009 145.929 517.185 145.636C517.361 145.343 517.581 145.093 517.845 144.888C518.109 144.653 518.535 144.492 519.121 144.404C519.737 144.287 520.265 144.419 520.705 144.8C520.94 145.093 521.072 145.372 521.101 145.636C521.131 145.9 521.013 146.237 520.749 146.648C520.515 147.147 520.236 147.601 519.913 148.012C519.62 148.393 519.341 148.833 519.077 149.332C518.608 149.977 518.52 150.344 518.813 150.432C519.107 150.52 519.928 150.461 521.277 150.256C522.128 150.109 522.744 150.197 523.125 150.52C523.507 150.843 523.727 151.253 523.785 151.752C523.873 152.456 523.8 152.881 523.565 153.028C523.331 153.175 522.656 153.248 521.541 153.248C520.837 153.365 520.236 153.439 519.737 153.468C519.239 153.468 518.872 153.468 518.637 153.468C518.256 153.497 518.007 153.512 517.889 153.512C517.772 153.512 517.596 153.541 517.361 153.6C517.127 153.659 516.951 153.761 516.833 153.908C516.745 154.025 516.643 154.201 516.525 154.436C516.408 154.553 516.232 154.861 515.997 155.36C515.763 155.859 515.469 156.401 515.117 156.988C514.707 158.22 514.355 159.408 514.061 160.552C513.797 161.667 513.563 162.781 513.357 163.896C513.269 164.453 513.284 164.864 513.401 165.128C513.548 165.363 513.929 165.509 514.545 165.568C514.868 165.597 515.337 165.597 515.953 165.568C516.569 165.509 517.083 165.421 517.493 165.304C517.816 165.157 518.153 165.011 518.505 164.864C518.857 164.688 519.18 164.512 519.473 164.336C519.737 164.189 520.001 164.043 520.265 163.896C520.529 163.72 520.661 163.632 520.661 163.632C520.808 163.397 521.013 163.441 521.277 163.764C521.571 164.057 521.776 164.38 521.893 164.732C521.893 165.084 521.82 165.509 521.673 166.008C521.527 166.477 520.984 166.976 520.045 167.504C518.725 168.325 517.405 168.824 516.085 169C514.765 169.176 513.724 169.191 512.961 169.044ZM526.516 180.308C525.871 180.425 525.431 180.44 525.196 180.352C524.961 180.264 524.639 180.117 524.228 179.912C523.905 179.677 523.671 179.501 523.524 179.384C523.377 179.267 523.275 179.149 523.216 179.032C522.923 178.416 522.879 177.961 523.084 177.668C523.289 177.375 523.583 177.184 523.964 177.096C524.375 177.037 524.727 177.008 525.02 177.008C525.225 177.125 525.563 177.184 526.032 177.184C526.531 177.184 526.839 177.125 526.956 177.008C526.956 177.008 527.088 176.92 527.352 176.744C527.645 176.597 528.027 176.48 528.496 176.392C529.405 175.952 530.124 175.497 530.652 175.028C531.18 174.588 531.767 173.825 532.412 172.74C532.676 172.329 532.955 171.845 533.248 171.288C533.541 170.76 533.747 170.232 533.864 169.704C534.099 169.117 534.363 168.325 534.656 167.328C534.979 166.331 535.257 165.348 535.492 164.38C535.727 163.383 535.859 162.635 535.888 162.136C536.064 160.493 536.401 158.909 536.9 157.384C537.399 155.829 537.795 154.187 538.088 152.456C538.264 152.045 538.396 151.811 538.484 151.752C538.572 151.664 538.763 151.62 539.056 151.62C539.379 151.62 539.76 151.723 540.2 151.928C540.64 152.104 540.963 152.353 541.168 152.676C541.461 153.233 541.593 153.893 541.564 154.656C541.564 155.389 541.373 156.035 540.992 156.592C540.699 157.003 540.435 157.648 540.2 158.528C539.995 159.379 539.789 160.449 539.584 161.74C539.437 162.385 539.276 163.148 539.1 164.028C538.953 164.879 538.792 165.832 538.616 166.888C538.499 167.181 538.337 167.636 538.132 168.252C537.927 168.839 537.795 169.308 537.736 169.66C537.707 169.777 537.619 170.012 537.472 170.364C537.325 170.716 537.179 171.053 537.032 171.376C536.885 171.728 536.783 171.963 536.724 172.08C535.316 174.925 533.688 176.979 531.84 178.24C530.021 179.501 528.247 180.191 526.516 180.308ZM530.212 167.856C529.889 167.856 529.552 167.68 529.2 167.328C528.877 166.976 528.657 166.697 528.54 166.492C528.423 166.199 528.203 165.92 527.88 165.656C527.557 165.392 527.279 165.069 527.044 164.688C526.809 164.307 526.751 163.837 526.868 163.28C526.985 162.899 527.161 162.327 527.396 161.564C527.631 160.772 527.909 159.907 528.232 158.968C528.555 158 528.877 157.047 529.2 156.108C529.552 155.169 529.875 154.333 530.168 153.6C530.461 152.867 530.711 152.353 530.916 152.06C531.092 151.825 531.371 151.649 531.752 151.532C532.133 151.415 532.515 151.385 532.896 151.444C533.277 151.503 533.556 151.679 533.732 151.972C534.055 152.383 534.231 152.793 534.26 153.204C534.319 153.585 534.113 154.201 533.644 155.052C533.527 155.375 533.38 155.727 533.204 156.108C533.028 156.46 532.94 156.695 532.94 156.812C532.911 156.871 532.852 157.076 532.764 157.428C532.705 157.751 532.632 158.059 532.544 158.352C532.456 158.645 532.368 158.792 532.28 158.792C532.163 158.909 532.031 159.217 531.884 159.716C531.767 160.215 531.649 160.772 531.532 161.388C531.444 161.975 531.385 162.503 531.356 162.972C531.327 163.412 531.371 163.632 531.488 163.632C532.397 163.632 533.277 163.353 534.128 162.796C534.979 162.209 535.903 161.241 536.9 159.892L537.296 164.028C536.885 164.233 536.504 164.453 536.152 164.688C535.8 164.893 535.477 165.143 535.184 165.436C535.096 165.553 534.891 165.715 534.568 165.92C534.245 166.125 533.923 166.316 533.6 166.492C533.307 166.639 533.116 166.712 533.028 166.712C533.028 166.712 532.984 166.727 532.896 166.756C532.837 166.756 532.808 166.815 532.808 166.932C532.808 166.991 532.617 167.108 532.236 167.284C531.855 167.431 531.459 167.563 531.048 167.68C530.637 167.797 530.359 167.856 530.212 167.856ZM566.38 177.668C565.852 177.932 565.163 177.991 564.312 177.844C563.491 177.697 562.669 177.404 561.848 176.964C561.056 176.553 560.411 176.069 559.912 175.512C559.648 175.219 559.413 174.867 559.208 174.456C559.003 174.045 558.871 173.649 558.812 173.268C558.753 172.916 558.827 172.681 559.032 172.564C559.296 172.388 559.604 172.3 559.956 172.3C560.337 172.3 560.66 172.344 560.924 172.432C561.217 172.52 561.364 172.623 561.364 172.74C561.687 173.033 561.995 173.283 562.288 173.488C562.611 173.723 562.919 173.899 563.212 174.016C563.623 174.192 563.989 174.221 564.312 174.104C564.664 174.016 564.987 173.825 565.28 173.532C565.515 173.209 565.72 172.799 565.896 172.3C566.101 171.831 566.263 171.288 566.38 170.672L566.512 170.1C566.835 168.633 567.143 167.255 567.436 165.964C567.759 164.644 568.023 163.691 568.228 163.104C568.169 163.104 568.096 163.119 568.008 163.148C567.92 163.177 567.832 163.221 567.744 163.28C567.568 163.368 567.392 163.456 567.216 163.544C567.04 163.632 566.864 163.72 566.688 163.808C566.307 164.013 565.969 164.175 565.676 164.292C565.383 164.38 565.119 164.453 564.884 164.512C564.503 164.629 564.224 164.673 564.048 164.644C563.872 164.615 563.725 164.6 563.608 164.6C563.315 164.6 562.933 164.512 562.464 164.336C561.995 164.131 561.599 163.881 561.276 163.588C561.012 163.324 560.821 163.06 560.704 162.796C560.587 162.503 560.513 162.195 560.484 161.872C560.455 161.549 560.44 161.227 560.44 160.904C560.44 160.464 560.675 159.687 561.144 158.572C561.613 157.428 562.303 156.313 563.212 155.228C563.769 154.671 564.503 154.113 565.412 153.556C566.321 152.999 567.245 152.529 568.184 152.148C569.152 151.737 569.944 151.532 570.56 151.532C570.677 151.532 570.809 151.547 570.956 151.576C571.132 151.605 571.293 151.679 571.44 151.796C571.939 151.913 572.437 152.192 572.936 152.632C573.435 153.043 573.875 153.585 574.256 154.26C574.491 154.729 574.681 155.228 574.828 155.756C575.004 156.284 575.092 156.841 575.092 157.428C575.092 157.897 575.004 158.308 574.828 158.66C574.681 158.983 574.535 159.173 574.388 159.232C574.329 159.291 574.256 159.335 574.168 159.364C574.08 159.364 573.977 159.379 573.86 159.408C573.801 159.408 573.684 159.437 573.508 159.496C573.332 159.584 573.156 159.745 572.98 159.98C572.833 160.185 572.687 160.552 572.54 161.08C572.511 161.227 572.481 161.373 572.452 161.52C572.423 161.667 572.379 161.813 572.32 161.96C572.32 161.989 572.276 162.063 572.188 162.18C572.129 162.268 572.085 162.385 572.056 162.532C572.027 162.737 571.968 162.913 571.88 163.06C571.821 163.177 571.763 163.309 571.704 163.456C571.675 163.573 571.66 163.676 571.66 163.764C571.66 163.823 571.66 163.881 571.66 163.94L571.484 164.424C571.396 164.717 571.308 164.981 571.22 165.216C571.161 165.451 571.132 165.597 571.132 165.656L570.956 166.536C570.897 166.859 570.824 167.181 570.736 167.504C570.677 167.827 570.619 168.135 570.56 168.428C570.501 168.721 570.428 169.015 570.34 169.308C569.695 171.889 569.035 173.84 568.36 175.16C567.715 176.48 567.055 177.316 566.38 177.668ZM563.784 160.596C563.843 161.241 564.385 161.52 565.412 161.432C566.439 161.315 567.583 160.699 568.844 159.584C569.343 159.173 569.783 158.704 570.164 158.176C570.575 157.648 570.853 157.105 571 156.548C571.147 156.079 571.176 155.756 571.088 155.58C571.029 155.375 570.78 155.257 570.34 155.228C569.753 155.228 569.152 155.36 568.536 155.624C567.949 155.859 567.319 156.196 566.644 156.636C566.263 157.164 565.94 157.501 565.676 157.648C565.412 157.795 565.236 157.868 565.148 157.868C565.089 157.839 565.119 157.853 565.236 157.912C565.177 158.029 565.119 158.132 565.06 158.22C565.001 158.308 564.943 158.396 564.884 158.484C564.708 158.777 564.532 159.027 564.356 159.232C564.18 159.437 564.033 159.643 563.916 159.848C563.828 160.053 563.784 160.303 563.784 160.596ZM583.112 168.604C581.968 168.135 581.176 167.372 580.736 166.316C580.296 165.26 580.178 163.852 580.384 162.092C580.442 161.183 580.413 160.581 580.296 160.288C580.178 159.965 579.958 159.657 579.636 159.364C579.548 159.247 579.342 159.056 579.02 158.792C578.697 158.499 578.55 158.279 578.58 158.132C578.55 157.927 578.594 157.677 578.712 157.384C578.829 157.061 578.932 156.885 579.02 156.856C579.225 156.768 579.43 156.665 579.636 156.548C579.87 156.431 580.046 156.401 580.164 156.46C580.281 156.46 580.457 156.533 580.692 156.68C580.956 156.827 581.088 156.959 581.088 157.076C581.205 157.281 581.381 157.193 581.616 156.812C581.88 156.431 582.158 155.947 582.452 155.36C582.745 154.891 583.112 154.451 583.552 154.04C583.992 153.629 584.432 153.263 584.872 152.94C585.341 152.588 585.737 152.324 586.06 152.148C586.206 152.089 586.485 152.001 586.896 151.884C587.336 151.767 587.79 151.679 588.26 151.62C588.729 151.532 589.081 151.503 589.316 151.532C589.844 151.561 590.401 151.781 590.988 152.192C591.574 152.603 592.029 152.984 592.352 153.336C592.733 153.6 592.982 154.011 593.1 154.568C593.246 155.096 593.305 155.653 593.276 156.24C593.246 156.827 593.129 157.325 592.924 157.736C592.836 158.029 592.528 158.44 592 158.968C591.472 159.496 590.885 160.009 590.24 160.508C589.624 160.977 589.096 161.3 588.656 161.476C588.274 161.564 587.82 161.637 587.292 161.696C586.764 161.725 586.265 161.725 585.796 161.696C585.356 161.637 585.048 161.564 584.872 161.476C584.666 161.359 584.49 161.403 584.344 161.608C584.226 161.784 584.124 162.283 584.036 163.104C584.006 163.427 584.006 163.705 584.036 163.94C584.094 164.175 584.153 164.351 584.212 164.468C584.417 164.82 584.622 165.084 584.828 165.26C585.033 165.407 585.414 165.451 585.972 165.392C586.529 165.333 587.086 164.996 587.644 164.38C588.23 163.735 588.758 163.221 589.228 162.84C589.345 162.635 589.594 162.503 589.976 162.444C590.386 162.356 590.87 162.385 591.428 162.532C591.75 162.737 591.897 163.06 591.868 163.5C591.868 163.94 591.633 164.585 591.164 165.436C591.076 165.641 590.826 165.949 590.416 166.36C590.034 166.741 589.609 167.137 589.14 167.548C588.7 167.929 588.333 168.208 588.04 168.384C587.16 168.853 586.294 169.073 585.444 169.044C584.593 169.015 583.816 168.868 583.112 168.604ZM586.368 158.704C586.808 158.587 587.174 158.469 587.468 158.352C587.79 158.235 588.098 158.044 588.392 157.78C588.685 157.516 589.022 157.12 589.404 156.592C589.521 156.269 589.58 155.991 589.58 155.756C589.609 155.521 589.594 155.375 589.536 155.316C589.301 155.081 589.037 155.008 588.744 155.096C588.48 155.155 588.186 155.301 587.864 155.536C587.658 155.624 587.365 155.815 586.984 156.108C586.632 156.372 586.28 156.68 585.928 157.032C585.605 157.355 585.341 157.663 585.136 157.956C584.96 158.22 584.93 158.381 585.048 158.44C584.989 158.557 585.15 158.631 585.532 158.66C585.942 158.689 586.221 158.704 586.368 158.704ZM613.471 167.944C612.825 167.885 612.283 167.753 611.843 167.548C611.432 167.313 611.095 166.859 610.831 166.184C610.713 165.715 610.655 165.231 610.655 164.732C610.684 164.204 610.728 163.705 610.787 163.236C610.845 162.737 610.875 162.312 610.875 161.96C610.875 161.901 610.875 161.784 610.875 161.608C610.875 161.432 610.875 161.271 610.875 161.124C610.816 160.684 610.699 160.42 610.523 160.332C610.376 160.215 610.112 160.229 609.731 160.376C609.115 160.669 608.44 161.065 607.707 161.564C607.003 162.033 606.255 162.591 605.463 163.236C604.7 163.852 603.908 164.512 603.087 165.216C602.441 165.92 601.957 166.492 601.635 166.932C601.341 167.372 601.033 167.592 600.711 167.592C600.476 167.709 600.227 167.68 599.963 167.504C599.699 167.328 599.42 167.123 599.127 166.888C598.921 166.653 598.672 166.36 598.379 166.008C598.115 165.627 597.953 165.377 597.895 165.26C597.895 164.791 597.924 164.365 597.983 163.984C598.071 163.603 598.188 163.207 598.335 162.796C598.511 162.385 598.716 161.916 598.951 161.388C599.068 161.183 599.171 160.977 599.259 160.772C599.376 160.537 599.508 160.288 599.655 160.024C599.772 159.613 599.933 159.144 600.139 158.616C600.373 158.088 600.593 157.589 600.799 157.12C601.121 156.357 601.371 155.697 601.547 155.14C601.723 154.583 601.869 153.981 601.987 153.336C601.957 153.277 601.972 153.189 602.031 153.072C602.089 152.955 602.177 152.881 602.295 152.852H602.339H602.383C602.588 152.705 602.969 152.691 603.527 152.808C604.113 152.896 604.553 153.057 604.847 153.292C605.463 153.82 605.756 154.509 605.727 155.36C605.697 156.211 605.257 157.325 604.407 158.704C604.201 159.173 603.981 159.613 603.747 160.024C603.541 160.405 603.439 160.669 603.439 160.816C603.439 160.816 603.556 160.728 603.791 160.552C604.025 160.376 604.304 160.171 604.627 159.936C604.949 159.672 605.228 159.467 605.463 159.32C605.609 159.173 605.932 158.909 606.431 158.528C606.929 158.117 607.472 157.692 608.059 157.252C608.645 156.812 609.115 156.475 609.467 156.24C609.789 156.005 610.2 155.771 610.699 155.536C611.197 155.272 611.505 155.14 611.623 155.14C611.916 155.14 612.268 155.243 612.679 155.448C613.119 155.653 613.515 155.903 613.867 156.196C614.248 156.46 614.468 156.709 614.527 156.944C614.527 157.061 614.512 157.223 614.483 157.428C614.453 157.604 614.439 157.765 614.439 157.912C614.409 158.381 614.395 158.953 614.395 159.628C614.424 160.273 614.439 160.933 614.439 161.608C614.439 162.253 614.38 162.84 614.263 163.368C614.263 163.368 614.277 163.397 614.307 163.456C614.336 163.485 614.365 163.544 614.395 163.632C614.365 163.661 614.351 163.72 614.351 163.808C614.38 163.867 614.395 163.896 614.395 163.896C614.453 164.101 614.512 164.307 614.571 164.512C614.659 164.717 614.761 164.952 614.879 165.216C614.996 165.451 615.128 165.759 615.275 166.14C615.245 166.521 615.025 166.903 614.615 167.284C614.233 167.636 613.852 167.856 613.471 167.944ZM630.586 168.12C629.706 168.619 628.767 168.912 627.77 169C626.802 169.059 625.893 168.927 625.042 168.604C624.191 168.252 623.502 167.739 622.974 167.064C622.681 166.683 622.402 166.081 622.138 165.26C621.874 164.409 621.83 163.265 622.006 161.828C622.182 160.479 622.593 159.115 623.238 157.736C623.913 156.357 624.734 155.14 625.702 154.084C626.67 153.028 627.726 152.309 628.87 151.928C629.281 151.781 629.691 151.679 630.102 151.62C630.542 151.532 631.114 151.517 631.818 151.576C632.493 151.664 633.094 151.84 633.622 152.104C634.15 152.339 634.531 152.603 634.766 152.896C635.235 153.365 635.543 153.82 635.69 154.26C635.837 154.7 635.895 155.125 635.866 155.536C635.719 156.475 635.294 157.487 634.59 158.572C633.915 159.657 632.962 160.464 631.73 160.992C631.231 161.197 630.645 161.329 629.97 161.388C629.295 161.447 628.371 161.359 627.198 161.124C626.494 160.977 626.025 161.051 625.79 161.344C625.585 161.637 625.497 162.209 625.526 163.06C625.585 163.588 625.702 164.057 625.878 164.468C626.083 164.849 626.45 165.113 626.978 165.26C627.653 165.377 628.137 165.392 628.43 165.304C628.723 165.187 629.09 165.025 629.53 164.82C629.765 164.673 629.985 164.512 630.19 164.336C630.425 164.16 630.645 163.984 630.85 163.808C631.085 163.632 631.275 163.5 631.422 163.412C631.569 163.295 631.715 163.221 631.862 163.192C632.009 163.163 632.155 163.148 632.302 163.148C632.625 163.177 632.933 163.353 633.226 163.676C633.519 163.999 633.71 164.307 633.798 164.6C633.798 164.835 633.651 165.172 633.358 165.612C633.065 166.023 632.669 166.463 632.17 166.932C631.701 167.372 631.173 167.768 630.586 168.12ZM630.014 158.308C630.219 158.22 630.513 158.015 630.894 157.692C631.305 157.369 631.671 157.032 631.994 156.68C632.317 156.299 632.478 156.005 632.478 155.8C632.478 155.477 632.258 155.199 631.818 154.964C631.407 154.729 630.865 154.685 630.19 154.832C629.955 154.891 629.677 155.052 629.354 155.316C629.031 155.58 628.709 155.888 628.386 156.24C628.063 156.563 627.785 156.885 627.55 157.208C627.315 157.501 627.154 157.736 627.066 157.912C627.183 158.059 627.418 158.176 627.77 158.264C628.122 158.352 628.503 158.396 628.914 158.396C629.354 158.396 629.721 158.367 630.014 158.308ZM643.829 168.076C643.741 168.105 643.551 168.091 643.257 168.032C642.993 167.973 642.715 167.9 642.421 167.812C642.157 167.724 641.996 167.651 641.937 167.592C641.82 167.475 641.659 167.269 641.453 166.976C641.248 166.653 641.131 166.228 641.101 165.7C641.101 165.172 641.351 164.541 641.849 163.808C641.996 163.515 642.172 163.075 642.377 162.488C642.583 161.901 642.788 161.285 642.993 160.64C643.228 159.965 643.433 159.364 643.609 158.836C643.815 158.308 643.961 157.941 644.049 157.736C644.108 157.237 644.079 156.885 643.961 156.68C643.873 156.445 643.624 156.313 643.213 156.284C642.92 156.284 642.685 156.181 642.509 155.976C642.363 155.771 642.289 155.404 642.289 154.876C642.348 154.465 642.451 154.113 642.597 153.82C642.773 153.497 643.008 153.233 643.301 153.028C643.595 152.881 643.961 152.779 644.401 152.72C644.871 152.661 645.325 152.647 645.765 152.676C646.205 152.705 646.513 152.808 646.689 152.984C646.895 153.101 647.056 153.365 647.173 153.776C647.32 154.157 647.437 154.553 647.525 154.964C647.613 155.375 647.672 155.683 647.701 155.888C647.995 155.653 648.317 155.331 648.669 154.92C649.051 154.48 649.432 154.069 649.813 153.688C650.283 153.365 650.84 153.043 651.485 152.72C652.131 152.368 652.6 152.192 652.893 152.192C653.216 152.192 653.612 152.353 654.081 152.676C654.551 152.969 654.844 153.233 654.961 153.468C655.255 153.967 655.46 154.495 655.577 155.052C655.724 155.58 655.636 156.049 655.313 156.46C655.02 156.841 654.609 157.223 654.081 157.604C653.553 157.956 652.893 158.059 652.101 157.912C651.925 157.853 651.735 157.633 651.529 157.252C651.353 156.871 651.251 156.592 651.221 156.416C651.221 156.328 651.089 156.416 650.825 156.68C650.591 156.915 650.297 157.208 649.945 157.56C649.623 157.912 649.315 158.235 649.021 158.528C648.523 159.144 647.995 159.98 647.437 161.036C646.88 162.092 646.22 163.368 645.457 164.864C645.105 165.597 644.812 166.301 644.577 166.976C644.343 167.621 644.093 167.988 643.829 168.076ZM663.601 168.384C663.366 168.443 663.058 168.472 662.677 168.472C662.296 168.443 661.958 168.399 661.665 168.34C661.401 168.252 661.269 168.164 661.269 168.076C661.269 167.929 661.196 167.856 661.049 167.856C661.049 167.856 660.888 167.739 660.565 167.504C660.242 167.24 659.949 167.049 659.685 166.932C659.421 166.521 659.245 166.052 659.157 165.524C659.098 164.967 659.274 163.999 659.685 162.62C659.714 161.681 659.978 160.699 660.477 159.672C660.976 158.616 661.606 157.589 662.369 156.592C663.132 155.595 663.924 154.715 664.745 153.952C665.566 153.16 666.3 152.573 666.945 152.192C667.356 151.781 667.898 151.561 668.573 151.532C669.277 151.503 669.893 151.635 670.421 151.928C670.714 152.075 671.037 152.368 671.389 152.808C671.741 153.248 672.078 153.717 672.401 154.216C672.724 154.685 672.973 155.111 673.149 155.492C673.237 155.815 673.31 156.108 673.369 156.372C673.457 156.607 673.516 156.9 673.545 157.252C673.574 157.604 673.545 158.132 673.457 158.836C673.31 159.364 673.178 159.907 673.061 160.464C672.973 160.992 672.929 161.535 672.929 162.092C672.87 162.649 672.929 163.045 673.105 163.28C673.31 163.515 673.604 163.529 673.985 163.324C674.337 163.148 674.704 163.133 675.085 163.28C675.466 163.397 675.73 163.632 675.877 163.984C676.053 164.307 676.009 164.732 675.745 165.26C675.569 165.641 675.29 166.008 674.909 166.36C674.528 166.712 674.102 167.005 673.633 167.24C673.164 167.445 672.709 167.548 672.269 167.548C671.946 167.548 671.624 167.431 671.301 167.196C670.978 166.932 670.685 166.58 670.421 166.14C670.157 165.7 669.937 165.216 669.761 164.688L669.497 163.676L667.913 165.128C667.532 165.539 667.15 165.92 666.769 166.272C666.417 166.595 666.197 166.829 666.109 166.976C665.962 167.24 665.669 167.475 665.229 167.68C664.818 167.885 664.276 168.12 663.601 168.384ZM664.789 164.16C665.288 163.867 665.713 163.515 666.065 163.104C666.446 162.693 666.813 162.239 667.165 161.74C667.517 161.212 667.898 160.655 668.309 160.068C668.808 159.393 669.16 158.851 669.365 158.44C669.6 158.029 669.776 157.589 669.893 157.12C669.776 156.797 669.614 156.46 669.409 156.108C669.204 155.727 668.998 155.521 668.793 155.492C668.382 155.492 667.884 155.741 667.297 156.24C666.74 156.739 666.124 157.457 665.449 158.396C665.332 158.543 665.185 158.777 665.009 159.1C664.833 159.423 664.657 159.731 664.481 160.024C664.334 160.288 664.232 160.464 664.173 160.552C664.085 160.669 663.953 160.948 663.777 161.388C663.63 161.799 663.498 162.224 663.381 162.664C663.264 163.075 663.205 163.368 663.205 163.544C663.205 163.72 663.22 163.911 663.249 164.116C663.308 164.321 663.454 164.453 663.689 164.512C663.924 164.571 664.29 164.453 664.789 164.16ZM685.344 171.64C683.906 171.611 682.982 171.2 682.572 170.408C682.19 169.645 682.088 168.677 682.264 167.504C682.44 166.947 682.542 166.448 682.572 166.008C682.63 165.539 682.762 165.245 682.968 165.128C682.968 165.128 682.982 165.084 683.012 164.996C683.07 164.908 683.056 164.82 682.968 164.732C682.968 164.351 683.1 163.823 683.364 163.148C683.422 162.972 683.496 162.767 683.584 162.532C683.701 162.268 683.76 162.136 683.76 162.136C683.613 161.901 683.613 161.711 683.76 161.564C683.906 161.417 684.053 161.285 684.2 161.168C684.376 161.021 684.39 160.86 684.244 160.684C684.185 160.567 684.258 160.303 684.464 159.892C684.669 159.452 684.904 158.997 685.168 158.528C685.432 158.059 685.608 157.692 685.696 157.428C685.696 157.369 685.769 157.164 685.916 156.812C686.062 156.46 686.238 156.049 686.444 155.58C686.649 155.111 686.84 154.685 687.016 154.304C687.221 153.923 687.353 153.673 687.412 153.556C687.705 153.409 687.588 153.307 687.06 153.248C686.532 153.189 685.974 153.175 685.388 153.204C684.478 153.175 683.745 153.131 683.188 153.072C682.66 153.013 682.22 152.881 681.868 152.676C681.516 152.265 681.472 151.781 681.736 151.224C682 150.637 682.425 150.329 683.012 150.3C683.393 150.271 683.686 150.256 683.892 150.256C684.126 150.256 684.42 150.241 684.772 150.212C685.153 150.153 685.74 150.08 686.532 149.992L688.776 149.816L688.908 149.068C689.142 148.687 689.304 148.437 689.392 148.32C689.48 148.203 689.538 148.085 689.568 147.968C689.597 147.821 689.641 147.572 689.7 147.22C689.7 147.22 689.832 146.985 690.096 146.516C690.36 146.017 690.521 145.504 690.58 144.976C690.932 144.389 691.24 143.861 691.504 143.392C691.768 142.893 691.929 142.585 691.988 142.468C692.486 141.735 692.97 141.339 693.44 141.28C693.938 141.221 694.408 141.339 694.848 141.632C695.112 141.779 695.361 141.969 695.596 142.204C695.83 142.409 695.977 142.688 696.036 143.04C696.094 143.363 695.962 143.788 695.64 144.316C695.581 144.433 695.493 144.653 695.376 144.976C695.258 145.269 695.17 145.519 695.112 145.724C694.936 145.929 694.716 146.267 694.452 146.736C694.217 147.176 694.056 147.631 693.968 148.1C693.733 148.599 693.586 148.907 693.528 149.024C693.469 149.141 693.381 149.2 693.264 149.2C693.322 149.493 693.498 149.64 693.792 149.64C694.085 149.611 694.569 149.581 695.244 149.552C695.801 149.493 696.182 149.435 696.388 149.376C696.622 149.288 696.886 149.317 697.18 149.464C697.326 149.669 697.4 149.977 697.4 150.388C697.429 150.769 697.385 151.151 697.268 151.532C697.15 151.884 696.989 152.104 696.784 152.192C696.637 152.192 696.329 152.28 695.86 152.456C695.42 152.603 694.862 152.691 694.188 152.72L691.856 152.94L691.108 154.436C690.902 154.817 690.726 155.169 690.58 155.492C690.433 155.785 690.33 155.961 690.272 156.02C690.272 156.196 690.169 156.46 689.964 156.812C689.788 157.164 689.597 157.545 689.392 157.956C689.216 158.455 689.01 158.909 688.776 159.32C688.57 159.731 688.468 159.936 688.468 159.936C688.35 159.936 688.292 160.024 688.292 160.2C688.438 160.552 688.394 160.816 688.16 160.992C688.013 161.08 687.881 161.212 687.764 161.388C687.676 161.535 687.632 161.608 687.632 161.608C687.749 161.725 687.764 161.872 687.676 162.048C687.617 162.224 687.529 162.415 687.412 162.62C687.412 162.855 687.338 163.192 687.192 163.632C687.074 164.072 686.942 164.483 686.796 164.864C686.825 165.392 686.854 165.729 686.884 165.876C686.913 166.023 686.986 166.081 687.104 166.052C687.25 166.081 687.456 166.081 687.72 166.052C687.984 166.023 688.174 166.008 688.292 166.008C688.732 165.803 688.526 166.829 687.676 169.088C687.206 169.821 686.737 170.423 686.268 170.892C685.798 171.391 685.49 171.64 685.344 171.64ZM700.702 167.548C700.585 167.548 700.336 167.46 699.954 167.284C699.573 167.108 699.382 167.02 699.382 167.02C699.382 166.903 699.338 166.756 699.25 166.58C699.192 166.404 699.162 166.257 699.162 166.14C698.957 166.023 698.752 165.832 698.546 165.568C698.341 165.304 698.297 165.011 698.414 164.688C698.59 164.365 698.825 163.881 699.118 163.236C699.441 162.561 699.778 161.813 700.13 160.992C700.512 160.141 700.864 159.32 701.186 158.528C701.509 157.736 701.788 157.061 702.022 156.504C702.257 155.917 702.389 155.565 702.418 155.448C702.418 155.331 702.433 155.125 702.462 154.832C702.521 154.539 702.712 154.289 703.034 154.084C703.416 153.82 703.812 153.805 704.222 154.04C704.633 154.275 704.985 154.685 705.278 155.272C705.572 155.829 705.718 156.489 705.718 157.252C705.718 157.457 705.572 157.985 705.278 158.836C704.985 159.657 704.589 160.64 704.09 161.784C703.621 162.928 703.093 164.087 702.506 165.26C702.066 166.111 701.729 166.712 701.494 167.064C701.289 167.387 701.025 167.548 700.702 167.548ZM706.686 150.696C706.334 150.696 705.909 150.535 705.41 150.212C704.941 149.889 704.516 149.479 704.134 148.98C703.753 148.481 703.562 147.953 703.562 147.396C703.562 147.249 703.694 146.985 703.958 146.604C704.222 146.193 704.472 145.797 704.706 145.416C704.97 145.035 705.102 144.815 705.102 144.756C705.337 144.756 705.616 144.8 705.938 144.888C706.261 144.976 706.525 145.079 706.73 145.196C707.053 145.929 707.478 146.56 708.006 147.088C708.534 147.587 708.798 148.159 708.798 148.804C708.798 149.449 708.637 149.933 708.314 150.256C707.992 150.549 707.449 150.696 706.686 150.696ZM714.487 168.692C714.106 168.692 713.798 168.619 713.563 168.472C713.358 168.325 713.094 168.12 712.771 167.856C712.214 167.269 711.759 166.639 711.407 165.964C711.084 165.289 710.967 164.703 711.055 164.204C711.143 163.969 711.172 163.749 711.143 163.544C711.143 163.309 711.143 163.192 711.143 163.192C710.996 163.045 710.952 162.957 711.011 162.928C711.07 162.869 711.128 162.781 711.187 162.664C711.363 162.664 711.422 162.503 711.363 162.18C711.304 161.945 711.392 161.447 711.627 160.684C711.891 159.892 712.243 159.144 712.683 158.44C712.859 158.147 713.123 157.765 713.475 157.296C713.827 156.797 714.208 156.313 714.619 155.844C715.059 155.345 715.455 154.949 715.807 154.656C716.54 154.04 717.215 153.541 717.831 153.16C718.476 152.779 719.122 152.515 719.767 152.368C720.412 152.221 721.072 152.148 721.747 152.148C722.451 152.148 723.023 152.383 723.463 152.852C724.138 153.145 724.607 153.541 724.871 154.04C725.164 154.539 725.355 155.184 725.443 155.976C725.531 156.856 725.443 157.941 725.179 159.232C724.915 160.493 724.196 161.96 723.023 163.632C722.29 164.688 721.571 165.509 720.867 166.096C720.163 166.683 719.386 167.225 718.535 167.724C717.919 168.135 717.259 168.384 716.555 168.472C715.851 168.56 715.162 168.633 714.487 168.692ZM718.975 163.324C719.62 162.767 720.075 162.151 720.339 161.476C720.632 160.801 720.94 160.009 721.263 159.1C721.38 158.924 721.454 158.631 721.483 158.22C721.542 157.809 721.556 157.413 721.527 157.032C721.498 156.621 721.395 156.387 721.219 156.328C720.955 156.123 720.691 156.079 720.427 156.196C720.163 156.284 719.826 156.475 719.415 156.768C718.535 157.501 717.714 158.352 716.951 159.32C716.218 160.259 715.704 161.417 715.411 162.796C715.323 163.529 715.396 164.087 715.631 164.468C715.895 164.82 716.306 164.923 716.863 164.776C717.45 164.6 718.154 164.116 718.975 163.324ZM746.048 167.944C745.403 167.885 744.86 167.753 744.42 167.548C744.01 167.313 743.672 166.859 743.408 166.184C743.291 165.715 743.232 165.231 743.232 164.732C743.262 164.204 743.306 163.705 743.364 163.236C743.423 162.737 743.452 162.312 743.452 161.96C743.452 161.901 743.452 161.784 743.452 161.608C743.452 161.432 743.452 161.271 743.452 161.124C743.394 160.684 743.276 160.42 743.1 160.332C742.954 160.215 742.69 160.229 742.308 160.376C741.692 160.669 741.018 161.065 740.284 161.564C739.58 162.033 738.832 162.591 738.04 163.236C737.278 163.852 736.486 164.512 735.664 165.216C735.019 165.92 734.535 166.492 734.212 166.932C733.919 167.372 733.611 167.592 733.288 167.592C733.054 167.709 732.804 167.68 732.54 167.504C732.276 167.328 731.998 167.123 731.704 166.888C731.499 166.653 731.25 166.36 730.956 166.008C730.692 165.627 730.531 165.377 730.472 165.26C730.472 164.791 730.502 164.365 730.56 163.984C730.648 163.603 730.766 163.207 730.912 162.796C731.088 162.385 731.294 161.916 731.528 161.388C731.646 161.183 731.748 160.977 731.836 160.772C731.954 160.537 732.086 160.288 732.232 160.024C732.35 159.613 732.511 159.144 732.716 158.616C732.951 158.088 733.171 157.589 733.376 157.12C733.699 156.357 733.948 155.697 734.124 155.14C734.3 154.583 734.447 153.981 734.564 153.336C734.535 153.277 734.55 153.189 734.608 153.072C734.667 152.955 734.755 152.881 734.872 152.852H734.916H734.96C735.166 152.705 735.547 152.691 736.104 152.808C736.691 152.896 737.131 153.057 737.424 153.292C738.04 153.82 738.334 154.509 738.304 155.36C738.275 156.211 737.835 157.325 736.984 158.704C736.779 159.173 736.559 159.613 736.324 160.024C736.119 160.405 736.016 160.669 736.016 160.816C736.016 160.816 736.134 160.728 736.368 160.552C736.603 160.376 736.882 160.171 737.204 159.936C737.527 159.672 737.806 159.467 738.04 159.32C738.187 159.173 738.51 158.909 739.008 158.528C739.507 158.117 740.05 157.692 740.636 157.252C741.223 156.812 741.692 156.475 742.044 156.24C742.367 156.005 742.778 155.771 743.276 155.536C743.775 155.272 744.083 155.14 744.2 155.14C744.494 155.14 744.846 155.243 745.256 155.448C745.696 155.653 746.092 155.903 746.444 156.196C746.826 156.46 747.046 156.709 747.104 156.944C747.104 157.061 747.09 157.223 747.06 157.428C747.031 157.604 747.016 157.765 747.016 157.912C746.987 158.381 746.972 158.953 746.972 159.628C747.002 160.273 747.016 160.933 747.016 161.608C747.016 162.253 746.958 162.84 746.84 163.368C746.84 163.368 746.855 163.397 746.884 163.456C746.914 163.485 746.943 163.544 746.972 163.632C746.943 163.661 746.928 163.72 746.928 163.808C746.958 163.867 746.972 163.896 746.972 163.896C747.031 164.101 747.09 164.307 747.148 164.512C747.236 164.717 747.339 164.952 747.456 165.216C747.574 165.451 747.706 165.759 747.852 166.14C747.823 166.521 747.603 166.903 747.192 167.284C746.811 167.636 746.43 167.856 746.048 167.944Z" fill="#B8C318"/>
</svg>
