<svg width="900" height="250" viewBox="0 0 900 250" fill="none" xmlns="http://www.w3.org/2000/svg">
<rect y="30" width="900" height="220" rx="60" fill="#E0E772"/>
<rect x="5.5" y="5.5" width="889" height="209" rx="54.5" fill="#FDFDFB" stroke="#B8C318" stroke-width="11"/>
<rect width="598" height="172" transform="translate(151 24)" fill="#FDFDFB"/>
<path d="M301.56 66.26V63.26H274.08V66.26H301.56ZM301.56 74V70.94H274.08V74H301.56ZM308.82 58.22V79.04H267.18V58.22H308.82ZM292.26 98.66V104.48C293.82 104.6 295.44 104.66 297.06 104.66C300.42 104.66 311.94 104.66 316.2 104.48C315.24 106.1 314.16 109.22 313.8 111.26H296.7C285.72 111.26 278.28 109.76 273.24 102.8C271.08 106.76 268.32 109.94 264.84 112.34C263.82 111.02 261.06 108.38 259.44 107.36C265.56 103.58 269.22 97.22 270.6 89.18L277.74 90.26C277.32 92.18 276.84 93.98 276.36 95.72C278.22 99.8 281.16 102.02 285 103.22V87.98H261.6V81.68H314.52V87.98H292.26V92.48H310.74V98.66H292.26ZM378.72 57.98V71.12H348.12V57.98H354.48V65.36H360.06V56.24H366.36V65.36H372V57.98H378.72ZM339.36 98.72V83.66H335.04V98.72H339.36ZM344.64 104.96H335.04V109.4H329.16V90.74C328.38 91.88 327.54 93.02 326.7 94.04C326.46 92.12 325.2 87.62 324.24 85.52C327.96 80.6 330.42 73.22 331.98 65.3H325.56V58.82H345.96V65.3H338.58C337.74 69.44 336.72 73.52 335.34 77.42H344.64V104.96ZM361.86 93.74L357.12 96.86C356.4 95.24 355.02 92.78 353.58 90.44C353.22 97.7 351.96 106.4 348.18 112.34C347.04 111.26 344.22 109.46 342.72 108.8C346.98 101.96 347.4 92.42 347.4 85.64V73.88H380.16V79.82H353.7V85.64V86.78L356.4 85.16C358.2 87.92 360.66 91.58 361.86 93.74ZM373.2 96.38L369.54 93.56C372 99.32 375.84 104.24 381.18 106.82C379.74 107.96 377.94 110.24 376.98 111.86C372.54 109.22 369.06 105.02 366.48 99.92C364.68 105.14 361.32 109.22 355.5 112.22C354.78 110.6 352.98 108.14 351.48 107C361.56 102.26 362.52 93.98 362.94 82.1H369.12C369 85.16 368.82 88.1 368.52 90.74C368.82 91.64 369.12 92.54 369.48 93.38C371.4 91.1 373.98 87.38 375.36 84.8L380.64 88.58C377.82 91.28 375.3 94.4 373.2 96.38ZM404.28 65.54V73.76H431.76V65.54H404.28ZM421.74 94.52V104.12C424.62 104.6 427.8 104.78 431.04 104.78C433.62 104.84 442.5 104.78 445.8 104.72C444.84 106.34 443.7 109.64 443.34 111.62H430.62C418.56 111.62 409.26 109.46 403.02 100.28C401.04 104.9 398.46 109.04 394.8 112.04C393.72 110.6 391.26 108.26 389.76 107.18C396.24 102.08 398.88 92.3 399.72 84.14L407.16 84.98C406.8 87.32 406.32 89.72 405.72 92.12C407.64 96.86 410.7 99.86 414.36 101.78V80.54H397.14V58.7H439.38V80.54H421.74V87.92H441.3V94.52H421.74ZM463.02 64.34V72.44H469.8V64.34H463.02ZM476.4 97.46L477.06 103.4C469.44 105.38 461.34 107.36 455.16 108.86L453.84 102.38L456.66 101.84V82.52H462.18V100.64L464.7 100.1V78.38H457.14V58.4H476.04V78.38H470.64V84.86H476.22V90.56C477.84 86.9 478.86 82.4 479.52 77.96L485.46 79.04C484.26 86.06 482.16 93.02 479.34 97.46C478.26 96.5 475.62 94.88 474.24 94.16C474.9 93.26 475.5 92.12 476.04 90.92H470.64V98.72L476.4 97.46ZM511.32 94.7L505.32 97.22C504.9 93.26 503.34 87.56 501.42 82.52V104.54C501.42 107.9 500.88 109.82 498.84 110.9C496.86 112.04 493.98 112.22 489.9 112.22C489.72 110.3 488.94 107.36 488.04 105.38C490.44 105.5 492.96 105.5 493.74 105.5C494.52 105.44 494.82 105.2 494.82 104.48V72.32H492V81.8C492 92.18 490.38 103.76 478.98 112.22C477.9 110.72 475.74 108.86 474.06 107.6C484.56 100.04 485.94 90.08 485.94 81.8V72.32H477.48V65.54H491.34C490.68 63.2 489.42 60.14 488.28 57.74L494.76 55.94C496.32 58.64 498 62.36 498.54 64.7L495.9 65.54H510.18V72.32H501.42V78.98L505.68 77.24C508.38 82.76 510.6 89.9 511.32 94.7ZM558.42 66.74V64.04H555.24V66.74H558.42ZM566.94 71.78H563.52V76.28H566.94V71.78ZM555.24 71.78V76.28H558.42V71.78H555.24ZM546.96 71.78V76.28H550.2V71.78H546.96ZM550.2 66.74V64.04H540.06V58.4H574.2V64.04H563.52V66.74H573.12V81.32H541.2V66.74H550.2ZM570.66 88.82H543.72V83.42H570.66V88.82ZM541.14 87.32L537 92.18C536.34 90.44 535.26 87.92 534.06 85.46V112.16H527.58V87.14C525.96 92.54 524.04 97.52 521.88 100.94C521.16 98.84 519.6 95.54 518.58 93.68C521.88 89.06 525.06 80.72 526.68 73.94H520.08V67.34H527.58V56.18H534.06V67.34H539.88V73.94H534.06V76.58C535.62 78.62 540.12 85.58 541.14 87.32ZM545.16 98.06L551.34 99.8C549.3 104 545.94 108.32 542.94 111.08C541.74 110 539.1 108.2 537.6 107.3C540.66 104.96 543.54 101.42 545.16 98.06ZM574.32 96.8H560.1V112.16H553.74V96.8H540.12V91.22H574.32V96.8ZM562.32 100.76L567.48 98.12C570.3 100.94 573.42 104.84 574.98 107.42L569.46 110.66C568.14 107.96 565.02 103.76 562.32 100.76ZM619.98 65.72H603.9C604.68 67.1 605.46 68.84 605.94 70.28H618.12C618.78 68.78 619.5 67.1 619.98 65.72ZM639 70.28V75.92H585V70.28H598.26C597.84 69.02 597.24 67.76 596.76 66.68L601.62 65.72H588.72V60.14H608.34C607.86 59 607.38 57.86 606.96 56.9L614.1 55.46C614.88 56.9 615.66 58.58 616.26 60.14H635.52V65.72H622.68L627.72 66.56C627 67.94 626.4 69.14 625.86 70.28H639ZM598.14 90.08V92.96H625.56V90.08H598.14ZM598.14 82.82V85.64H625.56V82.82H598.14ZM639.3 100.4V106.04H615.66V112.16H608.1V106.04H584.76V100.4H608.1V97.64H591.18V78.08H632.88V97.64H615.66V100.4H639.3Z" fill="#594A39"/>
<path d="M159.406 170.804C159.201 170.481 158.849 170.276 158.35 170.188C157.851 170.1 157.089 170.085 156.062 170.144C155.651 170.203 155.226 170.173 154.786 170.056C154.346 169.939 153.994 169.763 153.73 169.528C153.466 169.293 153.363 169.059 153.422 168.824C153.451 168.472 153.862 168.091 154.654 167.68C155.446 167.269 156.473 167.049 157.734 167.02L159.582 166.976L160.022 166.096C160.139 165.773 160.227 165.421 160.286 165.04C160.374 164.659 160.521 164.131 160.726 163.456C160.843 163.045 161.019 162.473 161.254 161.74C161.489 161.007 161.738 160.229 162.002 159.408C162.266 158.557 162.501 157.795 162.706 157.12C162.911 156.445 163.043 155.976 163.102 155.712C163.219 155.448 163.381 155.008 163.586 154.392C163.791 153.747 163.982 153.101 164.158 152.456C164.363 151.781 164.495 151.297 164.554 151.004C165.317 148.687 165.815 147.073 166.05 146.164C166.285 145.225 166.343 144.741 166.226 144.712C166.109 144.712 165.83 144.727 165.39 144.756C164.95 144.785 164.466 144.829 163.938 144.888C163.41 144.917 162.941 144.961 162.53 145.02C162.119 145.079 161.87 145.137 161.782 145.196C161.635 145.401 161.386 145.372 161.034 145.108C160.682 144.815 160.462 144.521 160.374 144.228C160.345 143.964 160.345 143.715 160.374 143.48C160.403 143.245 160.491 143.084 160.638 142.996C160.843 142.82 161.269 142.629 161.914 142.424C162.559 142.189 163.278 141.984 164.07 141.808C164.891 141.632 165.639 141.5 166.314 141.412C166.813 141.353 167.311 141.251 167.81 141.104C168.309 140.928 168.705 140.723 168.998 140.488C169.262 140.4 169.511 140.327 169.746 140.268C170.01 140.209 170.274 140.195 170.538 140.224C170.773 140.371 171.169 140.444 171.726 140.444C172.313 140.444 172.929 140.429 173.574 140.4C175.217 140.253 176.361 140.312 177.006 140.576C177.681 140.811 178.121 141.133 178.326 141.544C178.473 142.101 178.443 142.571 178.238 142.952C178.033 143.304 177.681 143.465 177.182 143.436C176.918 143.495 176.551 143.553 176.082 143.612C175.613 143.641 174.997 143.671 174.234 143.7C172.298 143.876 171.257 144.081 171.11 144.316C170.993 144.433 170.89 144.551 170.802 144.668C170.743 144.785 170.655 144.917 170.538 145.064C170.567 145.181 170.494 145.533 170.318 146.12C170.171 146.677 169.981 147.279 169.746 147.924C169.629 148.305 169.453 148.848 169.218 149.552C168.983 150.256 168.734 150.989 168.47 151.752C168.235 152.485 168.015 153.16 167.81 153.776C167.605 154.363 167.458 154.759 167.37 154.964C167.253 155.228 167.15 155.521 167.062 155.844C167.003 156.137 166.959 156.357 166.93 156.504C166.519 157.941 166.167 159.144 165.874 160.112C165.61 161.08 165.375 161.931 165.17 162.664C164.965 163.368 164.774 164.057 164.598 164.732C164.422 165.377 164.217 166.111 163.982 166.932C163.982 166.932 164.231 166.917 164.73 166.888C165.229 166.829 165.859 166.771 166.622 166.712C168.001 166.565 168.939 166.477 169.438 166.448C169.937 166.419 170.23 166.463 170.318 166.58C170.406 166.668 170.494 166.844 170.582 167.108C171.169 167.9 171.125 168.56 170.45 169.088C169.805 169.616 168.661 169.865 167.018 169.836C165.493 169.895 164.363 169.939 163.63 169.968C162.926 170.027 162.471 170.1 162.266 170.188C162.061 170.276 161.958 170.423 161.958 170.628C161.987 171.097 161.694 171.376 161.078 171.464C160.491 171.581 159.934 171.361 159.406 170.804ZM180.92 169.044C180.597 168.985 180.245 168.795 179.864 168.472C179.482 168.12 179.13 167.739 178.808 167.328C178.514 166.888 178.324 166.521 178.236 166.228C178.236 166.169 178.192 166.096 178.104 166.008C178.045 165.92 178.016 165.876 178.016 165.876C177.898 165.788 177.825 165.407 177.796 164.732C177.796 164.028 177.84 163.251 177.928 162.4C178.016 161.549 178.118 160.875 178.236 160.376C178.382 159.907 178.602 159.276 178.896 158.484C179.189 157.663 179.438 156.929 179.644 156.284L180.832 153.732L179.072 153.248C178.866 153.189 178.69 153.072 178.544 152.896C178.426 152.72 178.368 152.573 178.368 152.456C178.368 152.221 178.5 151.884 178.764 151.444C179.028 151.004 179.218 150.784 179.336 150.784C179.482 150.813 179.746 150.828 180.128 150.828C180.538 150.828 180.934 150.813 181.316 150.784C181.697 150.755 181.932 150.725 182.02 150.696C182.137 150.637 182.254 150.564 182.372 150.476C182.489 150.359 182.577 150.197 182.636 149.992C182.782 149.669 182.914 149.42 183.032 149.244C183.149 149.068 183.31 148.804 183.516 148.452C183.721 148.071 183.882 147.748 184 147.484C184.146 147.22 184.366 146.853 184.66 146.384C184.806 146.179 184.968 145.929 185.144 145.636C185.32 145.343 185.54 145.093 185.804 144.888C186.068 144.653 186.493 144.492 187.08 144.404C187.696 144.287 188.224 144.419 188.664 144.8C188.898 145.093 189.03 145.372 189.06 145.636C189.089 145.9 188.972 146.237 188.708 146.648C188.473 147.147 188.194 147.601 187.872 148.012C187.578 148.393 187.3 148.833 187.036 149.332C186.566 149.977 186.478 150.344 186.772 150.432C187.065 150.52 187.886 150.461 189.236 150.256C190.086 150.109 190.702 150.197 191.084 150.52C191.465 150.843 191.685 151.253 191.744 151.752C191.832 152.456 191.758 152.881 191.524 153.028C191.289 153.175 190.614 153.248 189.5 153.248C188.796 153.365 188.194 153.439 187.696 153.468C187.197 153.468 186.83 153.468 186.596 153.468C186.214 153.497 185.965 153.512 185.848 153.512C185.73 153.512 185.554 153.541 185.32 153.6C185.085 153.659 184.909 153.761 184.792 153.908C184.704 154.025 184.601 154.201 184.484 154.436C184.366 154.553 184.19 154.861 183.956 155.36C183.721 155.859 183.428 156.401 183.076 156.988C182.665 158.22 182.313 159.408 182.02 160.552C181.756 161.667 181.521 162.781 181.316 163.896C181.228 164.453 181.242 164.864 181.36 165.128C181.506 165.363 181.888 165.509 182.504 165.568C182.826 165.597 183.296 165.597 183.912 165.568C184.528 165.509 185.041 165.421 185.452 165.304C185.774 165.157 186.112 165.011 186.464 164.864C186.816 164.688 187.138 164.512 187.432 164.336C187.696 164.189 187.96 164.043 188.224 163.896C188.488 163.72 188.62 163.632 188.62 163.632C188.766 163.397 188.972 163.441 189.236 163.764C189.529 164.057 189.734 164.38 189.852 164.732C189.852 165.084 189.778 165.509 189.632 166.008C189.485 166.477 188.942 166.976 188.004 167.504C186.684 168.325 185.364 168.824 184.044 169C182.724 169.176 181.682 169.191 180.92 169.044ZM200.194 150.036C199.725 150.124 199.343 150.139 199.05 150.08C198.786 149.992 198.551 149.86 198.346 149.684C198.258 149.361 198.287 149.039 198.434 148.716C198.581 148.364 198.727 148.085 198.874 147.88C199.226 147.293 199.622 146.604 200.062 145.812C200.531 144.991 200.839 144.36 200.986 143.92C201.045 143.597 201.133 143.187 201.25 142.688C201.397 142.16 201.47 141.617 201.47 141.06C201.47 140.913 201.499 140.679 201.558 140.356C201.646 140.033 201.763 139.74 201.91 139.476C202.057 139.212 202.203 139.124 202.35 139.212C202.614 139.329 202.951 139.491 203.362 139.696C203.773 139.901 204.125 140.136 204.418 140.4C204.741 140.664 204.873 140.957 204.814 141.28C204.755 141.984 204.594 142.747 204.33 143.568C204.066 144.389 203.846 145.093 203.67 145.68C203.494 146.325 203.171 147 202.702 147.704C202.233 148.379 201.749 149.009 201.25 149.596C201.279 149.713 201.191 149.787 200.986 149.816C200.781 149.845 200.517 149.919 200.194 150.036ZM206.89 169.264C205.893 168.853 205.16 168.428 204.69 167.988C204.25 167.519 204.074 167.108 204.162 166.756C204.221 166.58 204.324 166.419 204.47 166.272C204.617 166.125 204.94 166.067 205.438 166.096C205.966 166.096 206.773 166.228 207.858 166.492C208.181 166.492 208.504 166.477 208.826 166.448C209.149 166.419 209.442 166.375 209.706 166.316C210 166.257 210.234 166.184 210.41 166.096C210.557 166.037 210.601 165.964 210.542 165.876C210.484 165.759 210.381 165.641 210.234 165.524C210.117 165.377 209.985 165.289 209.838 165.26C209.692 165.201 209.56 165.172 209.442 165.172C209.384 165.025 209.252 164.879 209.046 164.732C208.87 164.585 208.65 164.424 208.386 164.248C207.741 163.72 207.154 163.251 206.626 162.84C206.098 162.429 205.893 162.121 206.01 161.916C206.01 161.799 206.01 161.74 206.01 161.74C206.01 161.711 206.01 161.696 206.01 161.696C205.805 161.696 205.614 161.417 205.438 160.86C205.262 160.273 205.174 159.745 205.174 159.276C205.174 158.689 205.292 158.103 205.526 157.516C205.79 156.929 206.113 156.372 206.494 155.844C206.905 155.316 207.316 154.847 207.726 154.436C208.284 153.908 208.87 153.395 209.486 152.896C210.132 152.368 210.821 151.899 211.554 151.488C212.317 151.077 213.153 150.755 214.062 150.52C214.473 150.432 214.942 150.388 215.47 150.388C215.998 150.388 216.38 150.461 216.614 150.608C216.849 150.461 217.142 150.505 217.494 150.74C217.846 150.945 218.198 151.239 218.55 151.62C218.902 152.001 219.166 152.383 219.342 152.764C219.342 153.116 219.328 153.556 219.298 154.084C219.298 154.583 219.269 155.023 219.21 155.404C219.152 155.785 219.02 155.976 218.814 155.976C218.814 155.976 218.77 155.991 218.682 156.02C218.624 156.02 218.594 156.093 218.594 156.24C218.594 156.533 218.374 156.871 217.934 157.252C217.377 157.633 216.849 157.941 216.35 158.176C215.852 158.411 215.47 158.425 215.206 158.22C215.03 158.103 214.869 157.985 214.722 157.868C214.576 157.751 214.444 157.604 214.326 157.428C214.326 157.428 214.282 157.369 214.194 157.252C214.136 157.105 214.106 156.973 214.106 156.856C214.106 156.739 214.15 156.636 214.238 156.548C214.326 156.431 214.37 156.372 214.37 156.372C214.781 155.991 215.089 155.639 215.294 155.316C215.529 154.993 215.69 154.715 215.778 154.48C215.866 154.216 215.91 154.011 215.91 153.864C215.91 153.688 215.866 153.585 215.778 153.556C215.72 153.497 215.573 153.468 215.338 153.468C215.192 153.468 214.869 153.585 214.37 153.82C213.901 154.055 213.402 154.348 212.874 154.7C212.346 155.023 211.936 155.316 211.642 155.58C211.525 155.785 211.437 155.917 211.378 155.976C211.349 156.035 211.276 156.064 211.158 156.064C211.158 155.947 211.085 155.961 210.938 156.108C210.792 156.255 210.616 156.46 210.41 156.724C210.205 156.988 210 157.267 209.794 157.56C209.589 157.853 209.428 158.088 209.31 158.264C209.281 158.528 209.208 158.777 209.09 159.012C209.002 159.217 208.973 159.437 209.002 159.672C209.032 159.965 209.178 160.244 209.442 160.508C209.706 160.772 210.088 161.109 210.586 161.52C211.613 162.283 212.376 162.884 212.874 163.324C213.402 163.764 213.769 164.116 213.974 164.38C214.18 164.644 214.312 164.908 214.37 165.172C214.869 166.081 214.928 166.873 214.546 167.548C214.165 168.193 213.578 168.692 212.786 169.044C212.493 169.191 211.98 169.323 211.246 169.44C210.513 169.587 209.736 169.645 208.914 169.616C208.122 169.616 207.448 169.499 206.89 169.264ZM243.357 169.264C242.947 169.147 242.536 168.941 242.125 168.648C241.715 168.355 241.289 168.017 240.849 167.636C240.497 167.167 240.248 166.741 240.101 166.36C239.955 165.949 239.867 165.48 239.837 164.952C239.837 164.395 239.837 163.691 239.837 162.84C239.837 162.488 239.896 161.989 240.013 161.344C240.16 160.699 240.307 160.024 240.453 159.32C240.629 158.616 240.791 158 240.937 157.472C241.084 156.915 241.172 156.548 241.201 156.372C241.289 155.991 241.143 155.771 240.761 155.712C240.38 155.653 239.955 155.639 239.485 155.668C239.045 155.668 238.752 155.624 238.605 155.536C238.488 155.507 238.429 155.36 238.429 155.096C238.429 154.803 238.429 154.656 238.429 154.656C238.429 154.539 238.371 154.465 238.253 154.436C238.136 154.377 238.033 154.275 237.945 154.128C237.887 154.011 237.96 153.791 238.165 153.468C238.371 153.145 238.635 152.955 238.957 152.896C239.221 152.837 239.617 152.793 240.145 152.764C240.673 152.705 241.201 152.603 241.729 152.456C242.287 152.28 242.712 152.016 243.005 151.664C243.269 151.019 243.563 150.329 243.885 149.596C244.208 148.833 244.516 148.173 244.809 147.616C245.103 147.029 245.308 146.663 245.425 146.516C245.924 146.252 246.437 146.149 246.965 146.208C247.493 146.237 247.904 146.487 248.197 146.956C248.344 147.161 248.461 147.308 248.549 147.396C248.667 147.484 248.711 147.616 248.681 147.792C248.681 147.968 248.564 148.291 248.329 148.76C248.124 149.2 247.772 149.889 247.273 150.828C247.127 151.121 246.995 151.385 246.877 151.62C246.76 151.825 246.701 151.928 246.701 151.928C246.819 151.957 246.995 151.972 247.229 151.972C247.464 151.972 247.757 151.957 248.109 151.928C248.432 151.869 248.784 151.825 249.165 151.796C249.547 151.737 249.884 151.737 250.177 151.796C250.852 151.796 251.351 151.987 251.673 152.368C251.996 152.749 252.172 153.233 252.201 153.82C252.26 154.143 252.143 154.421 251.849 154.656C251.556 154.891 251.013 155.008 250.221 155.008C249.957 155.008 249.576 155.023 249.077 155.052C248.579 155.081 248.065 155.111 247.537 155.14C247.009 155.169 246.555 155.213 246.173 155.272C245.821 155.301 245.645 155.345 245.645 155.404C245.557 155.463 245.411 155.697 245.205 156.108C245.029 156.489 244.839 156.959 244.633 157.516C244.457 158.073 244.296 158.601 244.149 159.1C243.944 160.097 243.797 161.065 243.709 162.004C243.621 162.943 243.607 163.764 243.665 164.468C243.753 165.143 243.929 165.627 244.193 165.92C244.457 166.184 244.853 166.184 245.381 165.92C245.939 165.627 246.452 165.289 246.921 164.908C247.449 164.468 247.904 164.336 248.285 164.512C248.667 164.659 248.901 164.981 248.989 165.48C249.107 165.949 248.975 166.463 248.593 167.02C248.241 167.577 247.743 168.047 247.097 168.428C246.452 168.809 245.792 169.073 245.117 169.22C244.443 169.396 243.856 169.411 243.357 169.264ZM271.564 168.692C271.006 168.839 270.42 168.941 269.804 169C269.217 169.088 268.704 168.912 268.264 168.472C268 168.061 267.765 167.695 267.56 167.372C267.354 167.049 267.222 166.477 267.164 165.656C267.134 165.099 267.164 164.497 267.252 163.852C267.369 163.177 267.413 162.693 267.384 162.4C267.618 161.315 267.677 160.537 267.56 160.068C267.472 159.599 267.354 159.364 267.208 159.364C266.885 159.305 266.372 159.54 265.668 160.068C264.993 160.596 264.186 161.344 263.248 162.312C262.338 163.251 261.356 164.321 260.3 165.524C259.742 166.287 259.332 166.859 259.068 167.24C258.833 167.592 258.657 167.768 258.54 167.768C258.012 167.768 257.528 167.68 257.088 167.504C256.648 167.328 256.296 167.079 256.032 166.756C255.768 166.433 255.606 166.096 255.548 165.744C255.548 165.627 255.621 165.319 255.768 164.82C255.914 164.292 256.09 163.691 256.296 163.016C256.501 162.341 256.692 161.711 256.868 161.124C257.073 160.537 257.22 160.127 257.308 159.892C257.572 159.129 257.88 158.205 258.232 157.12C258.613 156.005 258.95 155.023 259.244 154.172C259.361 153.791 259.566 153.248 259.86 152.544C260.153 151.811 260.446 151.077 260.74 150.344C261.033 149.611 261.238 149.068 261.356 148.716C261.444 148.481 261.605 148.071 261.84 147.484C262.074 146.868 262.324 146.193 262.588 145.46C262.881 144.727 263.145 144.052 263.38 143.436C263.644 142.791 263.82 142.321 263.908 142.028C263.878 141.764 263.893 141.529 263.952 141.324C264.04 141.089 264.128 140.913 264.216 140.796C264.333 140.796 264.465 140.796 264.612 140.796C264.758 140.767 264.832 140.752 264.832 140.752C264.832 140.693 265.022 140.752 265.404 140.928C265.814 141.104 266.21 141.324 266.592 141.588C267.002 141.823 267.208 142.028 267.208 142.204C267.354 142.585 267.369 143.084 267.252 143.7C267.134 144.287 266.826 145.181 266.328 146.384C266.005 146.853 265.682 147.557 265.36 148.496C265.066 149.435 264.773 150.227 264.48 150.872C264.362 151.077 264.186 151.444 263.952 151.972C263.746 152.471 263.497 153.072 263.204 153.776C262.94 154.451 262.676 155.169 262.412 155.932C262.148 156.695 261.913 157.443 261.708 158.176C261.414 158.88 261.312 159.349 261.4 159.584C261.488 159.819 261.84 159.555 262.456 158.792C263.277 157.912 264.04 157.12 264.744 156.416C265.477 155.712 266.152 155.155 266.768 154.744C267.413 154.304 267.985 154.113 268.484 154.172C268.748 154.231 269.085 154.421 269.496 154.744C269.936 155.037 270.346 155.389 270.728 155.8C271.138 156.181 271.402 156.548 271.52 156.9C271.637 157.311 271.71 157.707 271.74 158.088C271.798 158.469 271.813 159.012 271.784 159.716C271.754 160.391 271.681 161.403 271.564 162.752C271.388 163.749 271.27 164.468 271.212 164.908C271.153 165.319 271.168 165.612 271.256 165.788C271.373 165.964 271.549 166.155 271.784 166.36C272.224 166.712 272.4 167.137 272.312 167.636C272.224 168.105 271.974 168.457 271.564 168.692ZM288.103 168.12C287.223 168.619 286.284 168.912 285.287 169C284.319 169.059 283.41 168.927 282.559 168.604C281.708 168.252 281.019 167.739 280.491 167.064C280.198 166.683 279.919 166.081 279.655 165.26C279.391 164.409 279.347 163.265 279.523 161.828C279.699 160.479 280.11 159.115 280.755 157.736C281.43 156.357 282.251 155.14 283.219 154.084C284.187 153.028 285.243 152.309 286.387 151.928C286.798 151.781 287.208 151.679 287.619 151.62C288.059 151.532 288.631 151.517 289.335 151.576C290.01 151.664 290.611 151.84 291.139 152.104C291.667 152.339 292.048 152.603 292.283 152.896C292.752 153.365 293.06 153.82 293.207 154.26C293.354 154.7 293.412 155.125 293.383 155.536C293.236 156.475 292.811 157.487 292.107 158.572C291.432 159.657 290.479 160.464 289.247 160.992C288.748 161.197 288.162 161.329 287.487 161.388C286.812 161.447 285.888 161.359 284.715 161.124C284.011 160.977 283.542 161.051 283.307 161.344C283.102 161.637 283.014 162.209 283.043 163.06C283.102 163.588 283.219 164.057 283.395 164.468C283.6 164.849 283.967 165.113 284.495 165.26C285.17 165.377 285.654 165.392 285.947 165.304C286.24 165.187 286.607 165.025 287.047 164.82C287.282 164.673 287.502 164.512 287.707 164.336C287.942 164.16 288.162 163.984 288.367 163.808C288.602 163.632 288.792 163.5 288.939 163.412C289.086 163.295 289.232 163.221 289.379 163.192C289.526 163.163 289.672 163.148 289.819 163.148C290.142 163.177 290.45 163.353 290.743 163.676C291.036 163.999 291.227 164.307 291.315 164.6C291.315 164.835 291.168 165.172 290.875 165.612C290.582 166.023 290.186 166.463 289.687 166.932C289.218 167.372 288.69 167.768 288.103 168.12ZM287.531 158.308C287.736 158.22 288.03 158.015 288.411 157.692C288.822 157.369 289.188 157.032 289.511 156.68C289.834 156.299 289.995 156.005 289.995 155.8C289.995 155.477 289.775 155.199 289.335 154.964C288.924 154.729 288.382 154.685 287.707 154.832C287.472 154.891 287.194 155.052 286.871 155.316C286.548 155.58 286.226 155.888 285.903 156.24C285.58 156.563 285.302 156.885 285.067 157.208C284.832 157.501 284.671 157.736 284.583 157.912C284.7 158.059 284.935 158.176 285.287 158.264C285.639 158.352 286.02 158.396 286.431 158.396C286.871 158.396 287.238 158.367 287.531 158.308ZM317.326 171.904C316.886 171.728 316.373 171.479 315.786 171.156C315.2 170.863 314.642 170.467 314.114 169.968C313.586 169.469 313.176 168.868 312.882 168.164C312.589 167.313 312.384 166.477 312.266 165.656C312.178 164.835 312.149 163.881 312.178 162.796C312.178 161.271 312.281 159.951 312.486 158.836C312.721 157.692 313.073 156.533 313.542 155.36C313.601 155.272 313.704 155.023 313.85 154.612C314.026 154.172 314.217 153.703 314.422 153.204C314.657 152.705 314.833 152.324 314.95 152.06C315.185 151.561 315.537 150.901 316.006 150.08C316.505 149.229 317.033 148.408 317.59 147.616C318.441 146.355 319.16 145.328 319.746 144.536C320.333 143.715 320.89 143.025 321.418 142.468C321.976 141.911 322.577 141.368 323.222 140.84C323.897 140.312 324.733 139.711 325.73 139.036C326.376 138.567 327.197 138.273 328.194 138.156C329.221 138.039 330.218 138.2 331.186 138.64C332.154 139.051 332.873 139.843 333.342 141.016C333.665 141.632 333.812 142.409 333.782 143.348C333.753 144.257 333.577 145.24 333.254 146.296C332.932 147.323 332.521 148.291 332.022 149.2C331.524 150.109 330.966 150.843 330.35 151.4C329.969 151.752 329.456 151.811 328.81 151.576C328.194 151.341 327.681 151.033 327.27 150.652C327.006 150.153 326.86 149.86 326.83 149.772C326.83 149.684 326.889 149.625 327.006 149.596C327.182 149.391 327.417 149.039 327.71 148.54C328.004 148.041 328.297 147.513 328.59 146.956C328.884 146.369 329.089 145.9 329.206 145.548C329.441 144.316 329.602 143.509 329.69 143.128C329.778 142.717 329.69 142.38 329.426 142.116C329.309 141.999 329.133 141.955 328.898 141.984C328.693 142.013 328.341 142.16 327.842 142.424C327.168 142.717 326.361 143.319 325.422 144.228C324.513 145.108 323.604 146.164 322.694 147.396C321.521 148.951 320.538 150.329 319.746 151.532C318.954 152.735 318.353 153.967 317.942 155.228C317.884 155.345 317.781 155.565 317.634 155.888C317.517 156.211 317.458 156.372 317.458 156.372C317.488 156.489 317.444 156.783 317.326 157.252C317.209 157.692 317.077 158.073 316.93 158.396C316.608 159.745 316.417 161.051 316.358 162.312C316.3 163.544 316.373 164.629 316.578 165.568C316.813 166.477 317.15 167.152 317.59 167.592C317.972 167.856 318.456 167.944 319.042 167.856C319.629 167.768 320.304 167.563 321.066 167.24C321.829 166.917 322.65 166.565 323.53 166.184C324.234 165.891 324.88 165.568 325.466 165.216C326.053 164.864 326.493 164.556 326.786 164.292C327.021 164.116 327.314 163.94 327.666 163.764C328.048 163.559 328.37 163.456 328.634 163.456C329.045 163.309 329.353 163.427 329.558 163.808C329.764 164.189 329.866 164.673 329.866 165.26C329.866 165.671 329.573 166.169 328.986 166.756C328.4 167.343 327.754 167.841 327.05 168.252C326.816 168.487 326.493 168.707 326.082 168.912C325.701 169.088 325.305 169.249 324.894 169.396C324.278 169.865 323.516 170.32 322.606 170.76C321.697 171.2 320.773 171.537 319.834 171.772C318.925 172.007 318.089 172.051 317.326 171.904ZM340.407 168.384C340.173 168.443 339.865 168.472 339.483 168.472C339.102 168.443 338.765 168.399 338.471 168.34C338.207 168.252 338.075 168.164 338.075 168.076C338.075 167.929 338.002 167.856 337.855 167.856C337.855 167.856 337.694 167.739 337.371 167.504C337.049 167.24 336.755 167.049 336.491 166.932C336.227 166.521 336.051 166.052 335.963 165.524C335.905 164.967 336.081 163.999 336.491 162.62C336.521 161.681 336.785 160.699 337.283 159.672C337.782 158.616 338.413 157.589 339.175 156.592C339.938 155.595 340.73 154.715 341.551 153.952C342.373 153.16 343.106 152.573 343.751 152.192C344.162 151.781 344.705 151.561 345.379 151.532C346.083 151.503 346.699 151.635 347.227 151.928C347.521 152.075 347.843 152.368 348.195 152.808C348.547 153.248 348.885 153.717 349.207 154.216C349.53 154.685 349.779 155.111 349.955 155.492C350.043 155.815 350.117 156.108 350.175 156.372C350.263 156.607 350.322 156.9 350.351 157.252C350.381 157.604 350.351 158.132 350.263 158.836C350.117 159.364 349.985 159.907 349.867 160.464C349.779 160.992 349.735 161.535 349.735 162.092C349.677 162.649 349.735 163.045 349.911 163.28C350.117 163.515 350.41 163.529 350.791 163.324C351.143 163.148 351.51 163.133 351.891 163.28C352.273 163.397 352.537 163.632 352.683 163.984C352.859 164.307 352.815 164.732 352.551 165.26C352.375 165.641 352.097 166.008 351.715 166.36C351.334 166.712 350.909 167.005 350.439 167.24C349.97 167.445 349.515 167.548 349.075 167.548C348.753 167.548 348.43 167.431 348.107 167.196C347.785 166.932 347.491 166.58 347.227 166.14C346.963 165.7 346.743 165.216 346.567 164.688L346.303 163.676L344.719 165.128C344.338 165.539 343.957 165.92 343.575 166.272C343.223 166.595 343.003 166.829 342.915 166.976C342.769 167.24 342.475 167.475 342.035 167.68C341.625 167.885 341.082 168.12 340.407 168.384ZM341.595 164.16C342.094 163.867 342.519 163.515 342.871 163.104C343.253 162.693 343.619 162.239 343.971 161.74C344.323 161.212 344.705 160.655 345.115 160.068C345.614 159.393 345.966 158.851 346.171 158.44C346.406 158.029 346.582 157.589 346.699 157.12C346.582 156.797 346.421 156.46 346.215 156.108C346.01 155.727 345.805 155.521 345.599 155.492C345.189 155.492 344.69 155.741 344.103 156.24C343.546 156.739 342.93 157.457 342.255 158.396C342.138 158.543 341.991 158.777 341.815 159.1C341.639 159.423 341.463 159.731 341.287 160.024C341.141 160.288 341.038 160.464 340.979 160.552C340.891 160.669 340.759 160.948 340.583 161.388C340.437 161.799 340.305 162.224 340.187 162.664C340.07 163.075 340.011 163.368 340.011 163.544C340.011 163.72 340.026 163.911 340.055 164.116C340.114 164.321 340.261 164.453 340.495 164.512C340.73 164.571 341.097 164.453 341.595 164.16ZM358.894 167.812C358.63 167.607 358.337 167.343 358.014 167.02C357.721 166.697 357.618 166.243 357.706 165.656C357.794 164.835 357.911 164.116 358.058 163.5C358.205 162.855 358.381 162.121 358.586 161.3C358.645 160.948 358.791 160.347 359.026 159.496C359.29 158.645 359.598 157.721 359.95 156.724C360.302 155.727 360.669 154.788 361.05 153.908C361.431 152.999 361.769 152.324 362.062 151.884C362.385 151.591 362.854 151.444 363.47 151.444C364.115 151.444 364.555 151.561 364.79 151.796C365.113 152.06 365.215 152.529 365.098 153.204C364.981 153.849 364.57 154.861 363.866 156.24C363.719 156.592 363.529 156.973 363.294 157.384C363.089 157.765 362.942 158.088 362.854 158.352C362.766 158.587 362.795 158.689 362.942 158.66C363.118 158.337 363.441 157.971 363.91 157.56C364.379 157.12 364.878 156.695 365.406 156.284C365.934 155.873 366.433 155.507 366.902 155.184C367.371 154.861 367.694 154.656 367.87 154.568C368.105 154.421 368.369 154.304 368.662 154.216C368.985 154.099 369.205 154.011 369.322 153.952C369.997 153.629 370.73 153.512 371.522 153.6C372.343 153.659 372.842 153.908 373.018 154.348C373.047 154.583 373.135 154.759 373.282 154.876C373.458 154.993 373.546 155.052 373.546 155.052C373.663 155.052 373.722 155.096 373.722 155.184C373.751 155.272 373.766 155.316 373.766 155.316C373.766 155.521 373.561 155.815 373.15 156.196C372.769 156.577 372.343 156.783 371.874 156.812C371.493 156.841 371.155 156.915 370.862 157.032C370.569 157.149 370.217 157.296 369.806 157.472C368.691 158.117 367.679 158.689 366.77 159.188C365.89 159.687 364.981 160.449 364.042 161.476C363.837 161.711 363.617 161.931 363.382 162.136C363.147 162.341 362.913 162.635 362.678 163.016C362.531 163.163 362.385 163.485 362.238 163.984C362.091 164.483 361.959 164.967 361.842 165.436C361.754 165.876 361.71 166.14 361.71 166.228C361.71 166.228 361.666 166.375 361.578 166.668C361.49 166.932 361.343 167.196 361.138 167.46C360.786 167.929 360.434 168.223 360.082 168.34C359.759 168.457 359.363 168.281 358.894 167.812ZM381.614 168.384C381.232 168.472 380.734 168.413 380.118 168.208C379.502 167.973 378.9 167.695 378.314 167.372C377.756 167.02 377.375 166.741 377.17 166.536C376.964 166.301 376.906 166.096 376.994 165.92C377.082 165.715 377.228 165.612 377.434 165.612C377.551 165.612 377.742 165.495 378.006 165.26C378.27 164.996 378.431 164.527 378.49 163.852C378.548 163.441 378.622 163.089 378.71 162.796C378.827 162.473 378.886 162.253 378.886 162.136C378.915 162.048 378.944 161.813 378.974 161.432C379.032 161.021 379.12 160.669 379.238 160.376C379.355 159.848 379.531 159.173 379.766 158.352C380 157.501 380.235 156.68 380.47 155.888C380.734 155.067 380.939 154.436 381.086 153.996C381.144 153.673 381.276 153.263 381.482 152.764C381.687 152.265 381.863 151.869 382.01 151.576C382.303 150.755 382.699 149.757 383.198 148.584C383.726 147.411 384.268 146.237 384.826 145.064C385.383 143.861 385.867 142.849 386.278 142.028C386.718 141.177 386.996 140.664 387.114 140.488C387.348 140.253 387.73 140.165 388.258 140.224C388.786 140.283 389.211 140.473 389.534 140.796C389.798 141.119 390.047 141.456 390.282 141.808C390.516 142.16 390.458 142.541 390.106 142.952C389.988 143.157 389.798 143.48 389.534 143.92C389.27 144.331 389.064 144.639 388.918 144.844C388.683 145.548 388.39 146.237 388.038 146.912C387.715 147.587 387.363 148.349 386.982 149.2C386.6 150.021 386.19 151.048 385.75 152.28C385.486 152.837 385.266 153.395 385.09 153.952C384.914 154.48 384.767 154.817 384.65 154.964C384.474 155.609 384.283 156.093 384.078 156.416C383.902 156.739 383.755 157.252 383.638 157.956C383.638 157.956 383.784 157.809 384.078 157.516C384.4 157.223 384.782 156.856 385.222 156.416C386.366 155.184 387.392 154.245 388.302 153.6C389.211 152.955 390.047 152.617 390.81 152.588C391.22 152.559 391.66 152.661 392.13 152.896C392.628 153.131 393.083 153.424 393.494 153.776C393.904 154.099 394.183 154.451 394.33 154.832C394.564 155.36 394.682 156.049 394.682 156.9C394.682 157.721 394.55 158.572 394.286 159.452C394.051 160.332 393.67 161.109 393.142 161.784C392.819 162.341 392.423 162.884 391.954 163.412C391.514 163.911 391.132 164.277 390.81 164.512C390.516 164.776 390.223 165.04 389.93 165.304C389.666 165.539 389.446 165.729 389.27 165.876C388.888 166.14 388.58 166.345 388.346 166.492C388.111 166.609 387.788 166.741 387.378 166.888C386.762 167.328 385.911 167.651 384.826 167.856C383.74 168.061 382.67 168.237 381.614 168.384ZM382.714 165.04C382.919 165.04 383.286 164.996 383.814 164.908C384.371 164.82 384.884 164.6 385.354 164.248C386.732 163.544 387.832 162.767 388.654 161.916C389.504 161.065 390.106 160.215 390.458 159.364C390.81 158.513 390.956 157.751 390.898 157.076C390.839 156.401 390.472 156.196 389.798 156.46C389.152 156.695 388.14 157.501 386.762 158.88C386.116 159.467 385.559 160.024 385.09 160.552C384.62 161.08 384.136 161.637 383.638 162.224C383.432 162.547 383.227 162.811 383.022 163.016C382.846 163.192 382.743 163.397 382.714 163.632C382.508 164.571 382.508 165.04 382.714 165.04ZM404.816 169.396C404.435 169.425 404.127 169.381 403.892 169.264C403.658 169.176 403.364 169.029 403.012 168.824C402.367 168.325 401.824 167.709 401.384 166.976C400.974 166.243 400.783 165.627 400.812 165.128C400.871 164.864 400.871 164.629 400.812 164.424C400.783 164.219 400.768 164.116 400.768 164.116C400.592 163.969 400.534 163.881 400.592 163.852C400.651 163.793 400.695 163.705 400.724 163.588C400.959 163.529 400.988 163.368 400.812 163.104C400.724 162.869 400.768 162.341 400.944 161.52C401.15 160.669 401.414 159.877 401.736 159.144C401.883 158.821 402.088 158.396 402.352 157.868C402.646 157.34 402.968 156.812 403.32 156.284C403.672 155.727 403.995 155.287 404.288 154.964C404.934 154.231 405.506 153.629 406.004 153.16C406.532 152.691 407.119 152.339 407.764 152.104C408.351 151.869 408.938 151.767 409.524 151.796C410.14 151.825 410.683 152.031 411.152 152.412C411.856 152.617 412.487 152.94 413.044 153.38C413.602 153.791 413.983 154.377 414.188 155.14C414.423 155.991 414.496 157.003 414.408 158.176C414.35 159.32 413.851 160.801 412.912 162.62C412.355 163.764 411.798 164.688 411.24 165.392C410.712 166.096 410.067 166.771 409.304 167.416C408.747 167.885 408.028 168.296 407.148 168.648C406.268 169 405.491 169.249 404.816 169.396ZM408.644 162.752C409.026 162.224 409.319 161.711 409.524 161.212C409.759 160.713 409.979 160.024 410.184 159.144C410.272 158.821 410.316 158.425 410.316 157.956C410.346 157.487 410.331 157.061 410.272 156.68C410.243 156.269 410.14 156.049 409.964 156.02C409.583 155.873 409.187 155.873 408.776 156.02C408.395 156.137 407.94 156.489 407.412 157.076C406.943 157.604 406.562 158.103 406.268 158.572C406.004 159.012 405.755 159.555 405.52 160.2C405.315 160.816 405.08 161.623 404.816 162.62C404.582 163.588 404.567 164.365 404.772 164.952C405.007 165.539 405.447 165.7 406.092 165.436C406.738 165.172 407.588 164.277 408.644 162.752ZM422.254 167.504C422.136 167.504 421.858 167.401 421.418 167.196C420.978 166.961 420.699 166.785 420.582 166.668C420.376 166.433 420.244 166.184 420.186 165.92C420.127 165.627 420.098 165.069 420.098 164.248C420.098 163.309 420.288 162.253 420.67 161.08C421.051 159.877 421.696 158.279 422.606 156.284L424.41 152.632C424.556 152.427 424.688 152.251 424.806 152.104C424.923 151.928 425.055 151.767 425.202 151.62C425.26 151.62 425.334 151.62 425.422 151.62C425.539 151.62 425.627 151.635 425.686 151.664C425.95 151.693 426.36 151.855 426.918 152.148C427.504 152.441 427.856 152.881 427.974 153.468C427.974 153.849 427.915 154.304 427.798 154.832C427.68 155.331 427.328 155.991 426.742 156.812C426.507 157.105 426.272 157.531 426.038 158.088C425.832 158.645 425.642 159.173 425.466 159.672C425.436 159.731 425.348 159.877 425.202 160.112C425.084 160.317 424.967 160.537 424.85 160.772C424.732 160.977 424.674 161.109 424.674 161.168L424.498 161.564L426.39 159.716C427.71 158.396 428.824 157.457 429.734 156.9C430.643 156.343 431.406 156.108 432.022 156.196C432.667 156.284 433.18 156.651 433.562 157.296C433.767 157.589 433.914 157.912 434.002 158.264C434.09 158.587 434.148 158.968 434.178 159.408C434.207 159.848 434.192 160.405 434.134 161.08V163.588C434.691 163.441 435.116 163.324 435.41 163.236C435.703 163.119 435.996 163.016 436.29 162.928C436.524 162.869 436.759 162.811 436.994 162.752C437.258 162.693 437.58 162.649 437.962 162.62C437.932 163.001 437.771 163.471 437.478 164.028C437.184 164.585 436.818 165.143 436.378 165.7C435.967 166.257 435.512 166.727 435.014 167.108C434.544 167.489 434.104 167.68 433.694 167.68C433.312 167.68 432.872 167.563 432.374 167.328C431.875 167.064 431.45 166.565 431.098 165.832C430.98 165.451 430.863 165.011 430.746 164.512C430.628 164.013 430.57 163.485 430.57 162.928V160.992C430.57 160.816 430.555 160.699 430.526 160.64C430.526 160.552 430.511 160.508 430.482 160.508C430.364 160.508 429.983 160.816 429.338 161.432C428.722 162.048 428.091 162.693 427.446 163.368C426.096 164.776 424.967 165.817 424.058 166.492C423.178 167.167 422.576 167.504 422.254 167.504ZM476.337 155.756C476.161 155.873 475.795 156.02 475.237 156.196C474.709 156.343 473.8 156.489 472.509 156.636C472.128 156.665 471.585 156.695 470.881 156.724C470.177 156.753 469.415 156.783 468.593 156.812C467.801 156.841 467.068 156.856 466.393 156.856C465.748 156.827 465.293 156.783 465.029 156.724C465.029 156.724 464.956 156.797 464.809 156.944C464.692 157.091 464.633 157.281 464.633 157.516C464.428 157.868 464.179 158.396 463.885 159.1C463.592 159.775 463.269 160.523 462.917 161.344C462.595 162.165 462.287 162.987 461.993 163.808C461.7 164.6 461.451 165.304 461.245 165.92C461.069 166.507 460.981 166.917 460.981 167.152C460.717 167.856 460.556 168.457 460.497 168.956C460.439 169.455 460.336 169.748 460.189 169.836C460.101 170.276 459.823 170.496 459.353 170.496C458.913 170.496 458.576 170.364 458.341 170.1C457.696 169.777 457.256 169.367 457.021 168.868C456.787 168.34 456.772 167.753 456.977 167.108C457.065 166.727 457.212 166.169 457.417 165.436C457.652 164.673 457.901 163.837 458.165 162.928C458.459 162.019 458.752 161.139 459.045 160.288C459.368 159.408 459.676 158.689 459.969 158.132C460.292 157.575 460.497 157.076 460.585 156.636C460.673 156.167 460.791 155.741 460.937 155.36C460.908 155.037 460.908 154.832 460.937 154.744C460.967 154.627 461.084 154.436 461.289 154.172C461.436 154.055 461.612 153.849 461.817 153.556C462.052 153.233 462.316 152.749 462.609 152.104C462.697 151.811 462.829 151.415 463.005 150.916C463.211 150.388 463.401 149.86 463.577 149.332C463.753 148.775 463.915 148.305 464.061 147.924C464.208 147.543 464.281 147.337 464.281 147.308C464.34 147.191 464.428 146.971 464.545 146.648C464.663 146.296 464.751 146.017 464.809 145.812C464.927 145.401 465.015 145.064 465.073 144.8C465.161 144.536 465.147 144.404 465.029 144.404C464.795 144.463 464.325 144.507 463.621 144.536C463.269 144.595 463.005 144.639 462.829 144.668C462.683 144.668 462.551 144.683 462.433 144.712C462.14 144.741 461.876 144.712 461.641 144.624C461.407 144.536 461.289 144.36 461.289 144.096C461.348 143.627 461.509 143.143 461.773 142.644C462.067 142.145 462.433 141.881 462.873 141.852C463.079 141.793 463.299 141.749 463.533 141.72C463.797 141.661 464.149 141.573 464.589 141.456C465.147 141.339 465.631 141.309 466.041 141.368C466.481 141.397 466.789 141.441 466.965 141.5C467.112 141.412 467.229 141.324 467.317 141.236C467.435 141.119 467.508 141.001 467.537 140.884C467.684 140.356 467.948 139.96 468.329 139.696C468.711 139.403 469.107 139.256 469.517 139.256C469.957 139.227 470.309 139.344 470.573 139.608C470.837 139.843 470.911 140.239 470.793 140.796C470.823 140.884 470.852 140.957 470.881 141.016C470.94 141.075 471.16 141.075 471.541 141.016C471.952 140.928 472.656 140.781 473.653 140.576C474.181 140.517 474.841 140.459 475.633 140.4C476.455 140.341 477.1 140.385 477.569 140.532C478.068 140.444 478.508 140.415 478.889 140.444C479.3 140.444 479.579 140.385 479.725 140.268C480.341 140.385 480.781 140.473 481.045 140.532C481.339 140.561 481.573 140.649 481.749 140.796C481.867 140.913 481.911 141.031 481.881 141.148C481.852 141.236 481.837 141.28 481.837 141.28C481.72 141.221 481.705 141.221 481.793 141.28C481.881 141.309 481.999 141.383 482.145 141.5C482.351 141.588 482.453 141.779 482.453 142.072C482.483 142.336 482.468 142.615 482.409 142.908C482.38 143.172 482.351 143.348 482.321 143.436C482.292 143.7 482.145 143.861 481.881 143.92C481.617 143.949 480.957 143.949 479.901 143.92C478.64 143.744 477.467 143.685 476.381 143.744C475.325 143.773 473.991 143.905 472.377 144.14C471.732 144.169 471.175 144.257 470.705 144.404C470.265 144.521 470.045 144.58 470.045 144.58C469.928 144.58 469.723 144.785 469.429 145.196C469.136 145.577 468.857 146.149 468.593 146.912C468.476 147.117 468.271 147.543 467.977 148.188C467.713 148.833 467.435 149.537 467.141 150.3C466.848 151.033 466.584 151.693 466.349 152.28C466.115 152.837 465.968 153.145 465.909 153.204C466.32 153.321 466.951 153.38 467.801 153.38C468.681 153.38 469.649 153.351 470.705 153.292C471.761 153.204 472.759 153.116 473.697 153.028C474.137 152.94 474.592 152.867 475.061 152.808C475.531 152.749 475.853 152.735 476.029 152.764C476.381 152.793 476.645 153.028 476.821 153.468C476.997 153.879 477.056 154.319 476.997 154.788C476.939 155.228 476.719 155.551 476.337 155.756ZM484.006 168.692C483.625 168.692 483.317 168.619 483.082 168.472C482.877 168.325 482.613 168.12 482.29 167.856C481.733 167.269 481.278 166.639 480.926 165.964C480.603 165.289 480.486 164.703 480.574 164.204C480.662 163.969 480.691 163.749 480.662 163.544C480.662 163.309 480.662 163.192 480.662 163.192C480.515 163.045 480.471 162.957 480.53 162.928C480.589 162.869 480.647 162.781 480.706 162.664C480.882 162.664 480.941 162.503 480.882 162.18C480.823 161.945 480.911 161.447 481.146 160.684C481.41 159.892 481.762 159.144 482.202 158.44C482.378 158.147 482.642 157.765 482.994 157.296C483.346 156.797 483.727 156.313 484.138 155.844C484.578 155.345 484.974 154.949 485.326 154.656C486.059 154.04 486.734 153.541 487.35 153.16C487.995 152.779 488.641 152.515 489.286 152.368C489.931 152.221 490.591 152.148 491.266 152.148C491.97 152.148 492.542 152.383 492.982 152.852C493.657 153.145 494.126 153.541 494.39 154.04C494.683 154.539 494.874 155.184 494.962 155.976C495.05 156.856 494.962 157.941 494.698 159.232C494.434 160.493 493.715 161.96 492.542 163.632C491.809 164.688 491.09 165.509 490.386 166.096C489.682 166.683 488.905 167.225 488.054 167.724C487.438 168.135 486.778 168.384 486.074 168.472C485.37 168.56 484.681 168.633 484.006 168.692ZM488.494 163.324C489.139 162.767 489.594 162.151 489.858 161.476C490.151 160.801 490.459 160.009 490.782 159.1C490.899 158.924 490.973 158.631 491.002 158.22C491.061 157.809 491.075 157.413 491.046 157.032C491.017 156.621 490.914 156.387 490.738 156.328C490.474 156.123 490.21 156.079 489.946 156.196C489.682 156.284 489.345 156.475 488.934 156.768C488.054 157.501 487.233 158.352 486.47 159.32C485.737 160.259 485.223 161.417 484.93 162.796C484.842 163.529 484.915 164.087 485.15 164.468C485.414 164.82 485.825 164.923 486.382 164.776C486.969 164.6 487.673 164.116 488.494 163.324ZM504.655 168.648C504.039 168.765 503.57 168.736 503.247 168.56C502.954 168.355 502.646 168.105 502.323 167.812C501.854 167.577 501.429 167.255 501.047 166.844C500.666 166.404 500.373 165.949 500.167 165.48C499.962 165.011 499.874 164.644 499.903 164.38C499.991 163.353 500.226 162.239 500.607 161.036C501.018 159.833 501.531 158.66 502.147 157.516C502.793 156.372 503.511 155.36 504.303 154.48C505.125 153.571 506.005 152.911 506.943 152.5C507.53 152.265 508.161 152.177 508.835 152.236C509.51 152.295 509.965 152.573 510.199 153.072C510.639 153.923 510.537 154.465 509.891 154.7C509.803 154.7 509.701 154.744 509.583 154.832C509.466 154.891 509.407 154.979 509.407 155.096C509.525 155.155 509.847 155.169 510.375 155.14C510.903 155.081 511.431 154.993 511.959 154.876C512.517 154.729 512.883 154.583 513.059 154.436C513.235 154.348 513.367 154.304 513.455 154.304C513.543 154.304 513.763 154.333 514.115 154.392C514.614 154.539 514.863 154.715 514.863 154.92C514.863 155.037 514.907 155.228 514.995 155.492C515.083 155.727 515.186 155.844 515.303 155.844C515.509 155.873 515.553 156.079 515.435 156.46C515.347 156.841 515.01 157.237 514.423 157.648C513.866 158 513.514 158.235 513.367 158.352C513.25 158.44 513.235 158.645 513.323 158.968C513.558 159.525 513.543 160.2 513.279 160.992C513.015 161.784 512.575 162.605 511.959 163.456C511.343 164.307 510.61 165.113 509.759 165.876C508.938 166.609 508.073 167.24 507.163 167.768C506.283 168.267 505.447 168.56 504.655 168.648ZM504.787 164.952C504.905 164.952 505.11 164.893 505.403 164.776C505.697 164.629 505.931 164.512 506.107 164.424C506.225 164.307 506.371 164.175 506.547 164.028C506.753 163.852 506.914 163.749 507.031 163.72C507.149 163.72 507.222 163.676 507.251 163.588C507.281 163.471 507.383 163.251 507.559 162.928C507.735 162.576 508.087 162.063 508.615 161.388C509.202 160.743 509.583 160.229 509.759 159.848C509.935 159.437 509.95 158.997 509.803 158.528C509.774 158.411 509.686 158.337 509.539 158.308C509.422 158.279 509.261 158.205 509.055 158.088C508.762 158.088 508.557 158.161 508.439 158.308C508.351 158.425 508.146 158.352 507.823 158.088L507.119 157.208L506.371 157.956C505.902 158.425 505.477 159.012 505.095 159.716C504.743 160.42 504.465 161.139 504.259 161.872C504.054 162.605 503.922 163.251 503.863 163.808C503.834 164.248 503.907 164.541 504.083 164.688C504.259 164.835 504.494 164.923 504.787 164.952ZM523.061 169.044C522.738 168.985 522.386 168.795 522.005 168.472C521.623 168.12 521.271 167.739 520.949 167.328C520.655 166.888 520.465 166.521 520.377 166.228C520.377 166.169 520.333 166.096 520.245 166.008C520.186 165.92 520.157 165.876 520.157 165.876C520.039 165.788 519.966 165.407 519.937 164.732C519.937 164.028 519.981 163.251 520.069 162.4C520.157 161.549 520.259 160.875 520.377 160.376C520.523 159.907 520.743 159.276 521.037 158.484C521.33 157.663 521.579 156.929 521.785 156.284L522.973 153.732L521.213 153.248C521.007 153.189 520.831 153.072 520.685 152.896C520.567 152.72 520.509 152.573 520.509 152.456C520.509 152.221 520.641 151.884 520.905 151.444C521.169 151.004 521.359 150.784 521.477 150.784C521.623 150.813 521.887 150.828 522.269 150.828C522.679 150.828 523.075 150.813 523.457 150.784C523.838 150.755 524.073 150.725 524.161 150.696C524.278 150.637 524.395 150.564 524.513 150.476C524.63 150.359 524.718 150.197 524.777 149.992C524.923 149.669 525.055 149.42 525.173 149.244C525.29 149.068 525.451 148.804 525.657 148.452C525.862 148.071 526.023 147.748 526.141 147.484C526.287 147.22 526.507 146.853 526.801 146.384C526.947 146.179 527.109 145.929 527.285 145.636C527.461 145.343 527.681 145.093 527.945 144.888C528.209 144.653 528.634 144.492 529.221 144.404C529.837 144.287 530.365 144.419 530.805 144.8C531.039 145.093 531.171 145.372 531.201 145.636C531.23 145.9 531.113 146.237 530.849 146.648C530.614 147.147 530.335 147.601 530.013 148.012C529.719 148.393 529.441 148.833 529.177 149.332C528.707 149.977 528.619 150.344 528.913 150.432C529.206 150.52 530.027 150.461 531.377 150.256C532.227 150.109 532.843 150.197 533.225 150.52C533.606 150.843 533.826 151.253 533.885 151.752C533.973 152.456 533.899 152.881 533.665 153.028C533.43 153.175 532.755 153.248 531.641 153.248C530.937 153.365 530.335 153.439 529.837 153.468C529.338 153.468 528.971 153.468 528.737 153.468C528.355 153.497 528.106 153.512 527.989 153.512C527.871 153.512 527.695 153.541 527.461 153.6C527.226 153.659 527.05 153.761 526.933 153.908C526.845 154.025 526.742 154.201 526.625 154.436C526.507 154.553 526.331 154.861 526.097 155.36C525.862 155.859 525.569 156.401 525.217 156.988C524.806 158.22 524.454 159.408 524.161 160.552C523.897 161.667 523.662 162.781 523.457 163.896C523.369 164.453 523.383 164.864 523.501 165.128C523.647 165.363 524.029 165.509 524.645 165.568C524.967 165.597 525.437 165.597 526.053 165.568C526.669 165.509 527.182 165.421 527.593 165.304C527.915 165.157 528.253 165.011 528.605 164.864C528.957 164.688 529.279 164.512 529.573 164.336C529.837 164.189 530.101 164.043 530.365 163.896C530.629 163.72 530.761 163.632 530.761 163.632C530.907 163.397 531.113 163.441 531.377 163.764C531.67 164.057 531.875 164.38 531.993 164.732C531.993 165.084 531.919 165.509 531.773 166.008C531.626 166.477 531.083 166.976 530.145 167.504C528.825 168.325 527.505 168.824 526.185 169C524.865 169.176 523.823 169.191 523.061 169.044ZM537.627 177.14C537.217 177.257 536.791 177.155 536.351 176.832C535.941 176.509 535.618 176.069 535.383 175.512C535.178 174.955 535.178 174.383 535.383 173.796C535.442 173.62 535.53 173.327 535.647 172.916C535.765 172.535 535.838 172.197 535.867 171.904C535.897 171.699 535.985 171.347 536.131 170.848C536.278 170.379 536.439 169.909 536.615 169.44C536.821 168.971 536.982 168.633 537.099 168.428C537.275 168.135 537.393 167.797 537.451 167.416C537.539 167.035 537.583 166.741 537.583 166.536C537.642 166.331 537.715 166.096 537.803 165.832C537.921 165.568 538.038 165.363 538.155 165.216C538.214 164.981 538.302 164.732 538.419 164.468C538.537 164.175 538.669 163.925 538.815 163.72C538.874 163.515 538.918 163.265 538.947 162.972C539.006 162.679 539.094 162.517 539.211 162.488C539.241 162.371 539.255 162.253 539.255 162.136C539.285 162.019 539.343 161.857 539.431 161.652C539.49 161.329 539.622 160.86 539.827 160.244C540.033 159.628 540.282 158.953 540.575 158.22C540.898 157.369 541.118 156.636 541.235 156.02C541.353 155.375 541.191 154.964 540.751 154.788C540.517 154.671 540.37 154.407 540.311 153.996C540.253 153.556 540.282 153.116 540.399 152.676C540.517 152.236 540.693 151.972 540.927 151.884C541.191 151.767 541.514 151.693 541.895 151.664C542.277 151.635 542.614 151.635 542.907 151.664C543.23 151.664 543.377 151.693 543.347 151.752C543.347 151.899 543.421 151.987 543.567 152.016C543.626 151.928 543.743 152.06 543.919 152.412C544.125 152.735 544.315 153.101 544.491 153.512C544.667 153.923 544.755 154.201 544.755 154.348C544.697 154.465 544.667 154.539 544.667 154.568C544.667 154.568 544.726 154.568 544.843 154.568C544.843 154.568 545.005 154.495 545.327 154.348C545.65 154.172 545.987 153.981 546.339 153.776C546.721 153.541 546.97 153.365 547.087 153.248C547.087 153.248 547.161 153.219 547.307 153.16C547.483 153.072 547.63 152.969 547.747 152.852C548.334 152.617 548.965 152.573 549.639 152.72C550.343 152.867 550.901 153.131 551.311 153.512C551.898 154.245 552.338 155.155 552.631 156.24C552.954 157.325 552.91 158.381 552.499 159.408C552.441 159.555 552.309 159.804 552.103 160.156C551.927 160.479 551.751 160.787 551.575 161.08C551.399 161.344 551.311 161.476 551.311 161.476C550.637 162.532 549.889 163.412 549.067 164.116C548.275 164.82 547.41 165.436 546.471 165.964C546.178 166.169 545.767 166.36 545.239 166.536C544.741 166.712 544.271 166.844 543.831 166.932C543.421 167.02 543.171 167.035 543.083 166.976C542.761 166.741 542.467 166.243 542.203 165.48C542.057 165.861 541.91 166.243 541.763 166.624C541.646 166.976 541.573 167.211 541.543 167.328C541.514 167.533 541.485 167.709 541.455 167.856C541.426 167.973 541.353 168.076 541.235 168.164C541.235 168.164 541.221 168.223 541.191 168.34C541.162 168.457 541.059 168.633 540.883 168.868C540.59 169.719 540.355 170.379 540.179 170.848C540.003 171.347 539.857 171.743 539.739 172.036C539.651 172.359 539.563 172.696 539.475 173.048C539.417 173.84 539.226 174.676 538.903 175.556C538.61 176.436 538.185 176.964 537.627 177.14ZM544.183 162.84C544.301 162.781 544.506 162.679 544.799 162.532C545.122 162.385 545.474 162.209 545.855 162.004C546.237 161.769 546.589 161.549 546.911 161.344C547.263 161.109 547.513 160.904 547.659 160.728C547.894 160.464 548.026 160.259 548.055 160.112C548.085 159.936 548.158 159.657 548.275 159.276C548.363 159.041 548.466 158.777 548.583 158.484C548.701 158.191 548.803 157.912 548.891 157.648C549.009 157.413 549.053 157.179 549.023 156.944C549.023 156.68 548.935 156.46 548.759 156.284C548.642 156.255 548.363 156.299 547.923 156.416C547.513 156.533 547.029 156.768 546.471 157.12C545.943 157.472 545.415 157.985 544.887 158.66C544.271 159.452 543.861 160.171 543.655 160.816C543.45 161.432 543.406 161.931 543.523 162.312C543.641 162.664 543.861 162.84 544.183 162.84ZM559.492 168.34C559.287 168.34 559.008 168.193 558.656 167.9C558.333 167.607 558.143 167.343 558.084 167.108C557.996 166.873 557.996 166.536 558.084 166.096C558.201 165.627 558.363 165.084 558.568 164.468C558.803 163.5 558.964 162.796 559.052 162.356C559.14 161.916 559.228 161.535 559.316 161.212C559.404 160.889 559.521 160.42 559.668 159.804C559.844 159.423 559.976 159.056 560.064 158.704C560.181 158.323 560.299 157.941 560.416 157.56C560.563 157.179 560.724 156.797 560.9 156.416C561.105 155.653 561.355 154.935 561.648 154.26C561.971 153.556 562.279 152.969 562.572 152.5C562.631 152.412 562.763 152.251 562.968 152.016C563.173 151.781 563.335 151.664 563.452 151.664C563.687 151.429 564.009 151.356 564.42 151.444C564.831 151.503 565.183 151.649 565.476 151.884C565.828 152.265 566.019 152.72 566.048 153.248C566.107 153.747 565.901 154.451 565.432 155.36C565.08 156.269 564.743 156.988 564.42 157.516C564.127 158.015 563.833 158.601 563.54 159.276C563.863 158.807 564.259 158.323 564.728 157.824C565.197 157.325 565.564 156.929 565.828 156.636C566.209 156.225 566.561 155.903 566.884 155.668C567.236 155.404 567.705 155.081 568.292 154.7C568.791 154.348 569.289 154.025 569.788 153.732C570.316 153.439 570.947 153.351 571.68 153.468C571.973 153.439 572.281 153.585 572.604 153.908C572.956 154.231 573.22 154.656 573.396 155.184C573.601 155.683 573.601 156.225 573.396 156.812C572.721 156.665 572.12 156.695 571.592 156.9C571.064 157.076 570.609 157.296 570.228 157.56C569.876 157.824 569.597 158.029 569.392 158.176C569.099 158.352 568.761 158.587 568.38 158.88C567.999 159.144 567.588 159.452 567.148 159.804C566.708 160.127 566.239 160.493 565.74 160.904C565.036 161.491 564.508 162.004 564.156 162.444C563.804 162.884 563.525 163.353 563.32 163.852C563.144 164.292 562.924 164.82 562.66 165.436C562.396 166.052 562.147 166.609 561.912 167.108C561.677 167.577 561.487 167.871 561.34 167.988C561.193 168.281 560.885 168.443 560.416 168.472C559.976 168.501 559.668 168.457 559.492 168.34ZM578.912 167.548C578.794 167.548 578.545 167.46 578.164 167.284C577.782 167.108 577.592 167.02 577.592 167.02C577.592 166.903 577.548 166.756 577.46 166.58C577.401 166.404 577.372 166.257 577.372 166.14C577.166 166.023 576.961 165.832 576.756 165.568C576.55 165.304 576.506 165.011 576.624 164.688C576.8 164.365 577.034 163.881 577.328 163.236C577.65 162.561 577.988 161.813 578.34 160.992C578.721 160.141 579.073 159.32 579.396 158.528C579.718 157.736 579.997 157.061 580.232 156.504C580.466 155.917 580.598 155.565 580.628 155.448C580.628 155.331 580.642 155.125 580.672 154.832C580.73 154.539 580.921 154.289 581.244 154.084C581.625 153.82 582.021 153.805 582.432 154.04C582.842 154.275 583.194 154.685 583.488 155.272C583.781 155.829 583.928 156.489 583.928 157.252C583.928 157.457 583.781 157.985 583.488 158.836C583.194 159.657 582.798 160.64 582.3 161.784C581.83 162.928 581.302 164.087 580.716 165.26C580.276 166.111 579.938 166.712 579.704 167.064C579.498 167.387 579.234 167.548 578.912 167.548ZM584.896 150.696C584.544 150.696 584.118 150.535 583.62 150.212C583.15 149.889 582.725 149.479 582.344 148.98C581.962 148.481 581.772 147.953 581.772 147.396C581.772 147.249 581.904 146.985 582.168 146.604C582.432 146.193 582.681 145.797 582.916 145.416C583.18 145.035 583.312 144.815 583.312 144.756C583.546 144.756 583.825 144.8 584.148 144.888C584.47 144.976 584.734 145.079 584.94 145.196C585.262 145.929 585.688 146.56 586.216 147.088C586.744 147.587 587.008 148.159 587.008 148.804C587.008 149.449 586.846 149.933 586.524 150.256C586.201 150.549 585.658 150.696 584.896 150.696ZM604.796 167.944C604.151 167.885 603.608 167.753 603.168 167.548C602.758 167.313 602.42 166.859 602.156 166.184C602.039 165.715 601.98 165.231 601.98 164.732C602.01 164.204 602.054 163.705 602.112 163.236C602.171 162.737 602.2 162.312 602.2 161.96C602.2 161.901 602.2 161.784 602.2 161.608C602.2 161.432 602.2 161.271 602.2 161.124C602.142 160.684 602.024 160.42 601.848 160.332C601.702 160.215 601.438 160.229 601.056 160.376C600.44 160.669 599.766 161.065 599.032 161.564C598.328 162.033 597.58 162.591 596.788 163.236C596.026 163.852 595.234 164.512 594.412 165.216C593.767 165.92 593.283 166.492 592.96 166.932C592.667 167.372 592.359 167.592 592.036 167.592C591.802 167.709 591.552 167.68 591.288 167.504C591.024 167.328 590.746 167.123 590.452 166.888C590.247 166.653 589.998 166.36 589.704 166.008C589.44 165.627 589.279 165.377 589.22 165.26C589.22 164.791 589.25 164.365 589.308 163.984C589.396 163.603 589.514 163.207 589.66 162.796C589.836 162.385 590.042 161.916 590.276 161.388C590.394 161.183 590.496 160.977 590.584 160.772C590.702 160.537 590.834 160.288 590.98 160.024C591.098 159.613 591.259 159.144 591.464 158.616C591.699 158.088 591.919 157.589 592.124 157.12C592.447 156.357 592.696 155.697 592.872 155.14C593.048 154.583 593.195 153.981 593.312 153.336C593.283 153.277 593.298 153.189 593.356 153.072C593.415 152.955 593.503 152.881 593.62 152.852H593.664H593.708C593.914 152.705 594.295 152.691 594.852 152.808C595.439 152.896 595.879 153.057 596.172 153.292C596.788 153.82 597.082 154.509 597.052 155.36C597.023 156.211 596.583 157.325 595.732 158.704C595.527 159.173 595.307 159.613 595.072 160.024C594.867 160.405 594.764 160.669 594.764 160.816C594.764 160.816 594.882 160.728 595.116 160.552C595.351 160.376 595.63 160.171 595.952 159.936C596.275 159.672 596.554 159.467 596.788 159.32C596.935 159.173 597.258 158.909 597.756 158.528C598.255 158.117 598.798 157.692 599.384 157.252C599.971 156.812 600.44 156.475 600.792 156.24C601.115 156.005 601.526 155.771 602.024 155.536C602.523 155.272 602.831 155.14 602.948 155.14C603.242 155.14 603.594 155.243 604.004 155.448C604.444 155.653 604.84 155.903 605.192 156.196C605.574 156.46 605.794 156.709 605.852 156.944C605.852 157.061 605.838 157.223 605.808 157.428C605.779 157.604 605.764 157.765 605.764 157.912C605.735 158.381 605.72 158.953 605.72 159.628C605.75 160.273 605.764 160.933 605.764 161.608C605.764 162.253 605.706 162.84 605.588 163.368C605.588 163.368 605.603 163.397 605.632 163.456C605.662 163.485 605.691 163.544 605.72 163.632C605.691 163.661 605.676 163.72 605.676 163.808C605.706 163.867 605.72 163.896 605.72 163.896C605.779 164.101 605.838 164.307 605.896 164.512C605.984 164.717 606.087 164.952 606.204 165.216C606.322 165.451 606.454 165.759 606.6 166.14C606.571 166.521 606.351 166.903 605.94 167.284C605.559 167.636 605.178 167.856 604.796 167.944ZM619.14 169.264C618.729 169.147 618.318 168.941 617.908 168.648C617.497 168.355 617.072 168.017 616.632 167.636C616.28 167.167 616.03 166.741 615.884 166.36C615.737 165.949 615.649 165.48 615.62 164.952C615.62 164.395 615.62 163.691 615.62 162.84C615.62 162.488 615.678 161.989 615.796 161.344C615.942 160.699 616.089 160.024 616.236 159.32C616.412 158.616 616.573 158 616.72 157.472C616.866 156.915 616.954 156.548 616.984 156.372C617.072 155.991 616.925 155.771 616.544 155.712C616.162 155.653 615.737 155.639 615.268 155.668C614.828 155.668 614.534 155.624 614.388 155.536C614.27 155.507 614.212 155.36 614.212 155.096C614.212 154.803 614.212 154.656 614.212 154.656C614.212 154.539 614.153 154.465 614.036 154.436C613.918 154.377 613.816 154.275 613.728 154.128C613.669 154.011 613.742 153.791 613.948 153.468C614.153 153.145 614.417 152.955 614.74 152.896C615.004 152.837 615.4 152.793 615.928 152.764C616.456 152.705 616.984 152.603 617.512 152.456C618.069 152.28 618.494 152.016 618.788 151.664C619.052 151.019 619.345 150.329 619.668 149.596C619.99 148.833 620.298 148.173 620.592 147.616C620.885 147.029 621.09 146.663 621.208 146.516C621.706 146.252 622.22 146.149 622.748 146.208C623.276 146.237 623.686 146.487 623.98 146.956C624.126 147.161 624.244 147.308 624.332 147.396C624.449 147.484 624.493 147.616 624.464 147.792C624.464 147.968 624.346 148.291 624.112 148.76C623.906 149.2 623.554 149.889 623.056 150.828C622.909 151.121 622.777 151.385 622.66 151.62C622.542 151.825 622.484 151.928 622.484 151.928C622.601 151.957 622.777 151.972 623.012 151.972C623.246 151.972 623.54 151.957 623.892 151.928C624.214 151.869 624.566 151.825 624.948 151.796C625.329 151.737 625.666 151.737 625.96 151.796C626.634 151.796 627.133 151.987 627.456 152.368C627.778 152.749 627.954 153.233 627.984 153.82C628.042 154.143 627.925 154.421 627.632 154.656C627.338 154.891 626.796 155.008 626.004 155.008C625.74 155.008 625.358 155.023 624.86 155.052C624.361 155.081 623.848 155.111 623.32 155.14C622.792 155.169 622.337 155.213 621.956 155.272C621.604 155.301 621.428 155.345 621.428 155.404C621.34 155.463 621.193 155.697 620.988 156.108C620.812 156.489 620.621 156.959 620.416 157.516C620.24 158.073 620.078 158.601 619.932 159.1C619.726 160.097 619.58 161.065 619.492 162.004C619.404 162.943 619.389 163.764 619.448 164.468C619.536 165.143 619.712 165.627 619.976 165.92C620.24 166.184 620.636 166.184 621.164 165.92C621.721 165.627 622.234 165.289 622.704 164.908C623.232 164.468 623.686 164.336 624.068 164.512C624.449 164.659 624.684 164.981 624.772 165.48C624.889 165.949 624.757 166.463 624.376 167.02C624.024 167.577 623.525 168.047 622.88 168.428C622.234 168.809 621.574 169.073 620.9 169.22C620.225 169.396 619.638 169.411 619.14 169.264ZM649.818 171.684C648.645 171.391 647.692 170.775 646.958 169.836C646.254 168.927 645.682 167.827 645.242 166.536C645.213 166.155 645.198 165.627 645.198 164.952C645.228 164.277 645.272 163.647 645.33 163.06C645.389 162.473 645.448 162.136 645.506 162.048C645.594 161.989 645.638 161.813 645.638 161.52C645.609 161.403 645.624 161.212 645.682 160.948C645.77 160.655 645.858 160.361 645.946 160.068C646.093 159.716 646.166 159.437 646.166 159.232C646.166 158.997 646.152 158.821 646.122 158.704C646.122 158.704 646.166 158.616 646.254 158.44C646.342 158.235 646.445 158.073 646.562 157.956C646.738 157.78 646.812 157.604 646.782 157.428C646.782 157.252 646.782 157.164 646.782 157.164C646.753 157.047 646.782 156.885 646.87 156.68C646.958 156.475 647.046 156.313 647.134 156.196C647.193 156.137 647.266 156.02 647.354 155.844C647.472 155.639 647.53 155.536 647.53 155.536C647.53 155.448 647.589 155.213 647.706 154.832C647.853 154.451 648.014 154.04 648.19 153.6C648.366 153.131 648.528 152.705 648.674 152.324C648.85 151.943 648.982 151.693 649.07 151.576V151.488C649.188 151.195 649.349 150.887 649.554 150.564C649.584 150.417 649.657 150.183 649.774 149.86C649.892 149.508 650.024 149.171 650.17 148.848C650.493 148.144 650.889 147.352 651.358 146.472C651.857 145.563 652.385 144.668 652.942 143.788C653.5 142.879 654.028 142.072 654.526 141.368C655.054 140.635 655.509 140.092 655.89 139.74C656.389 139.183 656.888 138.787 657.386 138.552C657.914 138.288 658.398 138.376 658.838 138.816C659.044 139.021 659.22 139.329 659.366 139.74C659.513 140.121 659.572 140.488 659.542 140.84C659.542 141.163 659.425 141.339 659.19 141.368C658.985 141.485 658.706 141.823 658.354 142.38C658.002 142.908 657.606 143.539 657.166 144.272C656.756 145.005 656.345 145.768 655.934 146.56C655.524 147.323 655.142 148.012 654.79 148.628C654.409 149.479 654.057 150.227 653.734 150.872C653.412 151.488 653.25 151.796 653.25 151.796C653.221 151.884 653.192 151.957 653.162 152.016C653.133 152.075 653.104 152.133 653.074 152.192C652.634 153.101 652.268 153.937 651.974 154.7C651.681 155.433 651.388 156.211 651.094 157.032C650.918 157.237 650.816 157.443 650.786 157.648C650.757 157.853 650.742 157.956 650.742 157.956C650.684 157.927 650.64 158 650.61 158.176C650.581 158.323 650.522 158.499 650.434 158.704C650.288 158.821 650.2 159.012 650.17 159.276C650.141 159.511 650.126 159.745 650.126 159.98C649.921 160.508 649.73 161.153 649.554 161.916C649.378 162.649 649.246 163.368 649.158 164.072C649.1 164.747 649.085 165.275 649.114 165.656C649.173 166.155 649.305 166.58 649.51 166.932C649.745 167.255 650.068 167.519 650.478 167.724C650.801 167.871 651.094 168.003 651.358 168.12C651.622 168.208 651.857 168.252 652.062 168.252C652.297 168.281 652.59 168.281 652.942 168.252C653.324 168.193 653.837 168.105 654.482 167.988H654.438C654.82 167.929 655.216 167.856 655.626 167.768C656.066 167.651 656.477 167.548 656.858 167.46C657.21 167.401 657.548 167.343 657.87 167.284C658.193 167.196 658.442 167.123 658.618 167.064C659.264 166.888 659.777 166.741 660.158 166.624C660.569 166.507 660.848 166.507 660.994 166.624C661.141 166.741 661.302 166.961 661.478 167.284C661.654 167.607 661.698 167.9 661.61 168.164C661.552 168.311 661.258 168.604 660.73 169.044C660.202 169.513 659.601 169.968 658.926 170.408C658.252 170.877 657.636 171.2 657.078 171.376C656.492 171.64 655.7 171.816 654.702 171.904C653.734 172.021 652.796 172.051 651.886 171.992C650.977 171.933 650.288 171.831 649.818 171.684ZM668.993 168.076C668.875 167.841 668.611 167.607 668.201 167.372C667.819 167.137 667.629 166.961 667.629 166.844C667.629 166.727 667.555 166.551 667.409 166.316C667.291 166.052 667.174 165.861 667.057 165.744C666.91 165.568 666.954 165.143 667.189 164.468C667.423 163.764 667.775 162.913 668.245 161.916C668.714 160.919 669.227 159.907 669.785 158.88C670.019 158.645 670.254 158.337 670.489 157.956C670.723 157.575 670.899 157.325 671.017 157.208C671.017 157.091 671.061 156.988 671.149 156.9C671.237 156.783 671.339 156.724 671.457 156.724L671.809 156.02C671.867 155.903 672.043 155.668 672.337 155.316C672.659 154.964 673.041 154.583 673.481 154.172C673.921 153.732 674.361 153.321 674.801 152.94C675.27 152.559 675.651 152.28 675.945 152.104C676.561 151.693 677.191 151.503 677.837 151.532C678.511 151.561 679.083 151.767 679.553 152.148C679.641 152.236 679.831 152.412 680.125 152.676C680.447 152.94 680.799 153.233 681.181 153.556C681.591 153.879 681.943 154.172 682.237 154.436L683.865 155.888L683.117 158.088C682.735 159.261 682.633 160.288 682.809 161.168C682.985 162.048 683.263 162.811 683.645 163.456C683.791 163.779 683.982 164.028 684.217 164.204C684.481 164.38 684.818 164.497 685.229 164.556C685.463 164.585 685.683 164.673 685.889 164.82C686.094 164.967 686.197 165.201 686.197 165.524C686.197 166.228 686.065 166.741 685.801 167.064C685.566 167.357 685.302 167.533 685.009 167.592C684.041 167.709 683.117 167.607 682.237 167.284C681.357 166.961 680.565 166.125 679.861 164.776C679.743 164.6 679.582 164.277 679.377 163.808C679.201 163.309 679.098 162.987 679.069 162.84C678.951 162.987 678.79 163.177 678.585 163.412C678.409 163.617 678.233 163.808 678.057 163.984C675.974 166.096 674.185 167.475 672.689 168.12C671.222 168.736 669.99 168.721 668.993 168.076ZM671.413 164.424C671.618 164.453 671.941 164.351 672.381 164.116C672.821 163.852 673.407 163.427 674.141 162.84C675.138 161.989 675.959 161.285 676.605 160.728C677.25 160.171 677.881 159.452 678.497 158.572L679.465 156.988C679.171 156.313 678.907 155.873 678.673 155.668C678.438 155.463 678.203 155.36 677.969 155.36C677.587 155.36 677.133 155.609 676.605 156.108C676.077 156.577 675.475 157.281 674.801 158.22C674.155 159.129 673.422 160.273 672.601 161.652C672.219 162.297 671.926 162.928 671.721 163.544C671.515 164.131 671.413 164.424 671.413 164.424ZM693.469 166.756C693.469 166.521 693.44 166.301 693.381 166.096C693.323 165.891 693.352 165.729 693.469 165.612L693.821 165.7C693.704 165.729 693.469 165.744 693.117 165.744C692.795 165.715 692.487 165.671 692.193 165.612C691.929 165.524 691.783 165.451 691.753 165.392C691.783 164.893 691.812 164.512 691.841 164.248C691.9 163.984 691.973 163.764 692.061 163.588C692.061 163.324 692.149 162.987 692.325 162.576C692.501 162.165 692.648 161.74 692.765 161.3C692.883 160.801 693.029 160.053 693.205 159.056C693.411 158.059 693.704 157.105 694.085 156.196C694.32 155.433 694.613 154.48 694.965 153.336C695.317 152.163 695.655 151.195 695.977 150.432C696.329 149.083 696.652 147.997 696.945 147.176C697.268 146.325 697.591 145.563 697.913 144.888C698.265 144.184 698.647 143.392 699.057 142.512C699.175 142.277 699.292 141.984 699.409 141.632C699.527 141.251 699.629 140.928 699.717 140.664C699.981 140.195 700.348 139.901 700.817 139.784C701.316 139.667 701.741 139.784 702.093 140.136C702.416 140.459 702.665 140.752 702.841 141.016C703.017 141.251 703.061 141.647 702.973 142.204C702.915 142.732 702.636 143.612 702.137 144.844C701.932 145.137 701.697 145.636 701.433 146.34C701.199 147.015 700.979 147.616 700.773 148.144C700.333 149.171 699.981 150.051 699.717 150.784C699.453 151.517 699.204 152.265 698.969 153.028C698.764 153.849 698.5 154.656 698.177 155.448C697.855 156.211 697.547 157.047 697.253 157.956L696.549 158.176C696.755 157.912 697.004 157.604 697.297 157.252C697.62 156.9 697.913 156.577 698.177 156.284C698.471 155.991 698.661 155.8 698.749 155.712C699.541 155.037 700.421 154.451 701.389 153.952C702.357 153.453 703.267 153.101 704.117 152.896C704.997 152.661 705.657 152.632 706.097 152.808C706.625 152.984 707.139 153.365 707.637 153.952C708.136 154.509 708.473 155.213 708.649 156.064C708.884 156.533 708.855 157.149 708.561 157.912C708.297 158.675 707.887 159.569 707.329 160.596C706.831 161.505 706.259 162.385 705.613 163.236C704.968 164.057 704.352 164.747 703.765 165.304C703.56 165.421 703.296 165.627 702.973 165.92C702.68 166.184 702.416 166.448 702.181 166.712C701.565 167.269 700.803 167.68 699.893 167.944C699.013 168.179 698.119 168.296 697.209 168.296C696.3 168.267 695.493 168.12 694.789 167.856C694.115 167.592 693.675 167.225 693.469 166.756ZM694.789 164.908C694.936 164.937 695.083 164.967 695.229 164.996C695.376 164.996 695.537 164.996 695.713 164.996C696.359 164.908 696.872 164.879 697.253 164.908C697.664 164.908 698.06 164.864 698.441 164.776C698.852 164.688 699.321 164.483 699.849 164.16C700.612 163.573 701.243 162.943 701.741 162.268C702.269 161.593 702.812 160.904 703.369 160.2C703.868 159.555 704.264 158.909 704.557 158.264C704.851 157.589 704.997 157.003 704.997 156.504C704.997 156.24 704.924 156.108 704.777 156.108C704.719 156.108 704.455 156.196 703.985 156.372C703.516 156.519 703.032 156.709 702.533 156.944C702.064 157.149 701.756 157.325 701.609 157.472C701.609 157.589 701.521 157.692 701.345 157.78C701.169 157.839 701.081 157.868 701.081 157.868C700.172 158.543 699.497 159.071 699.057 159.452C698.647 159.804 698.265 160.2 697.913 160.64C697.708 160.933 697.547 161.153 697.429 161.3C697.312 161.417 697.209 161.535 697.121 161.652C697.033 161.74 696.901 161.916 696.725 162.18C696.549 162.444 696.285 162.855 695.933 163.412C695.728 163.793 695.523 164.16 695.317 164.512C695.112 164.864 694.936 165.069 694.789 165.128V164.908ZM718.608 169.792C716.995 169.792 715.748 169.323 714.868 168.384C714.017 167.445 713.592 166.008 713.592 164.072C713.592 163.016 713.783 161.857 714.164 160.596C714.575 159.335 715.103 158.103 715.748 156.9C716.423 155.697 717.156 154.656 717.948 153.776C718.74 152.867 719.532 152.236 720.324 151.884C720.617 151.737 720.925 151.635 721.248 151.576C721.6 151.488 721.937 151.444 722.26 151.444C722.612 151.444 722.993 151.473 723.404 151.532C723.844 151.561 724.255 151.649 724.636 151.796C725.311 152.001 725.897 152.397 726.396 152.984C726.924 153.571 727.188 154.421 727.188 155.536C727.188 155.829 727.159 156.152 727.1 156.504C727.041 156.827 726.939 157.149 726.792 157.472C726.411 158.44 725.824 159.364 725.032 160.244C724.269 161.124 723.463 161.74 722.612 162.092C722.377 162.209 722.143 162.297 721.908 162.356C721.703 162.385 721.483 162.4 721.248 162.4C720.632 162.4 720.075 162.312 719.576 162.136C719.107 161.96 718.667 161.725 718.256 161.432L717.904 161.124L717.684 161.564C717.479 162.121 717.332 162.591 717.244 162.972C717.185 163.353 717.156 163.632 717.156 163.808C717.156 164.16 717.171 164.527 717.2 164.908C717.229 165.26 717.317 165.553 717.464 165.788C717.581 165.935 717.728 166.052 717.904 166.14C718.109 166.228 718.359 166.272 718.652 166.272C718.828 166.272 718.989 166.272 719.136 166.272C719.312 166.243 719.459 166.213 719.576 166.184C720.104 166.067 720.529 165.876 720.852 165.612C721.204 165.319 721.571 165.069 721.952 164.864L722.128 164.776L722.084 164.644C722.583 164.38 722.92 164.219 723.096 164.16C723.272 164.072 723.404 163.999 723.492 163.94C723.609 163.823 723.741 163.764 723.888 163.764C724.299 163.705 724.695 163.823 725.076 164.116C725.487 164.38 725.692 164.717 725.692 165.128C725.692 165.304 725.56 165.583 725.296 165.964C725.061 166.345 724.753 166.727 724.372 167.108C724.02 167.46 723.653 167.739 723.272 167.944C723.184 167.973 723.096 168.017 723.008 168.076C722.92 168.105 722.832 168.149 722.744 168.208H722.788C722.524 168.56 722.26 168.736 721.996 168.736H721.644C721.527 168.941 721.145 169.161 720.5 169.396C719.855 169.66 719.224 169.792 718.608 169.792ZM720.896 159.188C721.16 159.188 721.395 159.144 721.6 159.056C721.835 158.968 722.055 158.865 722.26 158.748C722.964 158.249 723.419 157.604 723.624 156.812C723.829 156.02 723.756 155.419 723.404 155.008C723.345 154.92 723.272 154.861 723.184 154.832C723.096 154.773 722.993 154.744 722.876 154.744C722.553 154.744 722.187 154.847 721.776 155.052C721.395 155.257 721.013 155.551 720.632 155.932C720.251 156.313 719.899 156.768 719.576 157.296L719.004 158.22C719.063 158.191 719.107 158.176 719.136 158.176C719.195 158.147 719.239 158.132 719.268 158.132C719.532 158.132 719.708 158.22 719.796 158.396C719.884 158.572 719.987 158.748 720.104 158.924C720.251 159.1 720.515 159.188 720.896 159.188ZM734.227 169.484C733.67 169.631 733.171 169.469 732.731 169C732.291 168.56 731.983 167.9 731.807 167.02C731.631 166.14 731.661 165.157 731.895 164.072C732.042 163.72 732.159 163.383 732.247 163.06C732.335 162.708 732.379 162.429 732.379 162.224C732.438 161.931 732.555 161.505 732.731 160.948C732.907 160.361 733.098 159.76 733.303 159.144C733.509 158.528 733.699 157.985 733.875 157.516C734.081 157.017 734.213 156.709 734.271 156.592C734.389 156.592 734.491 156.489 734.579 156.284C734.667 156.079 734.711 155.873 734.711 155.668C734.711 155.433 734.755 155.169 734.843 154.876C734.961 154.583 735.078 154.377 735.195 154.26C735.195 154.113 735.225 153.952 735.283 153.776C735.371 153.571 735.415 153.409 735.415 153.292C735.415 153.175 735.445 153.057 735.503 152.94C735.591 152.823 735.635 152.705 735.635 152.588C735.841 152.207 736.105 151.605 736.427 150.784C736.779 149.933 737.146 148.995 737.527 147.968C737.938 146.941 738.319 145.929 738.671 144.932C739.023 143.935 739.302 143.099 739.507 142.424C739.742 141.72 739.859 141.295 739.859 141.148C739.859 140.913 739.947 140.693 740.123 140.488C740.299 140.283 740.505 140.18 740.739 140.18C740.827 140.092 741.033 140.033 741.355 140.004C741.678 139.945 741.898 139.916 742.015 139.916C742.015 139.916 742.074 139.975 742.191 140.092C742.309 140.209 742.485 140.385 742.719 140.62C742.954 140.825 743.174 141.06 743.379 141.324C743.614 141.588 743.731 141.896 743.731 142.248C743.731 142.629 743.673 142.996 743.555 143.348C743.467 143.7 743.291 144.184 743.027 144.8C742.763 145.387 742.353 146.267 741.795 147.44C741.561 148.027 741.311 148.584 741.047 149.112C740.783 149.611 740.651 149.919 740.651 150.036C740.651 150.153 740.593 150.329 740.475 150.564C740.387 150.799 740.285 151.092 740.167 151.444C740.05 151.679 739.889 152.031 739.683 152.5C739.478 152.94 739.258 153.424 739.023 153.952C738.818 154.451 738.642 154.891 738.495 155.272C738.349 155.624 738.275 155.829 738.275 155.888C738.275 156.005 738.261 156.123 738.231 156.24C738.231 156.357 738.173 156.475 738.055 156.592C737.938 156.592 737.865 156.68 737.835 156.856C737.835 157.003 737.835 157.076 737.835 157.076C737.835 157.369 737.601 158.147 737.131 159.408C736.662 161.021 736.222 162.503 735.811 163.852C735.43 165.201 735.239 166.287 735.239 167.108C735.239 167.812 735.122 168.355 734.887 168.736C734.682 169.117 734.462 169.367 734.227 169.484ZM748.076 161.916C747.254 162.063 746.609 161.725 746.14 160.904C745.67 160.053 745.7 158.572 746.228 156.46C746.404 156.108 746.55 155.771 746.668 155.448C746.785 155.096 746.844 154.817 746.844 154.612C746.961 154.231 747.108 153.791 747.284 153.292C747.489 152.764 747.694 152.28 747.9 151.84C748.105 151.371 748.252 151.063 748.34 150.916C748.457 150.916 748.574 150.813 748.692 150.608C748.838 150.403 748.912 150.197 748.912 149.992C748.912 149.757 748.956 149.493 749.044 149.2C749.161 148.907 749.278 148.701 749.396 148.584C749.396 148.437 749.454 148.276 749.572 148.1C749.689 147.924 749.748 147.777 749.748 147.66C749.748 147.543 749.777 147.44 749.836 147.352C749.924 147.264 749.968 147.161 749.968 147.044C750.232 146.575 750.569 145.885 750.98 144.976C751.42 144.037 751.845 143.055 752.256 142.028C752.696 141.001 753.062 140.092 753.356 139.3C753.649 138.508 753.796 138.024 753.796 137.848C753.854 137.613 753.942 137.393 754.06 137.188C754.177 136.983 754.353 136.909 754.588 136.968C754.705 136.88 754.881 136.836 755.116 136.836C755.35 136.807 755.526 136.792 755.644 136.792C755.644 136.792 755.776 136.851 756.04 136.968C756.304 137.085 756.538 137.261 756.744 137.496C756.978 137.701 757.11 137.98 757.14 138.332C757.169 138.684 757.184 139.036 757.184 139.388C757.154 139.945 756.949 140.576 756.568 141.28C756.186 141.984 755.761 142.761 755.292 143.612C754.998 144.169 754.705 144.697 754.412 145.196C754.148 145.695 754.016 146.003 754.016 146.12C754.016 146.237 753.957 146.413 753.84 146.648C753.722 146.883 753.59 147.176 753.444 147.528C753.268 147.821 753.092 148.173 752.916 148.584C752.769 148.995 752.637 149.376 752.52 149.728C752.402 150.051 752.344 150.256 752.344 150.344C752.314 150.461 752.27 150.579 752.212 150.696C752.182 150.813 752.109 150.931 751.992 151.048C751.874 151.048 751.801 151.136 751.772 151.312C751.772 151.459 751.772 151.532 751.772 151.532C751.772 151.649 751.698 151.928 751.552 152.368C751.434 152.779 751.229 153.277 750.936 153.864C750.378 155.419 749.982 156.665 749.748 157.604C749.513 158.513 749.366 159.291 749.308 159.936C749.249 160.64 749.088 161.124 748.824 161.388C748.56 161.623 748.31 161.799 748.076 161.916ZM745.744 168.736C745.128 168.971 744.614 169.073 744.204 169.044C743.793 169.044 743.338 168.853 742.84 168.472C742.253 167.885 742.048 167.299 742.224 166.712C742.429 166.096 742.957 165.509 743.808 164.952C744.394 164.571 744.82 164.38 745.084 164.38C745.377 164.351 745.802 164.453 746.36 164.688C747.357 165.304 747.797 165.993 747.68 166.756C747.562 167.489 746.917 168.149 745.744 168.736Z" fill="#B8C318"/>
</svg>
