<svg width="900" height="250" viewBox="0 0 900 250" fill="none" xmlns="http://www.w3.org/2000/svg">
<rect width="900" height="220" rx="60" fill="#FDFDFB"/>
<rect x="5.5" y="35.5" width="889" height="209" rx="54.5" fill="#FDFDFB" stroke="#B8C318" stroke-width="11"/>
<rect width="670" height="172" transform="translate(115 54)" fill="#FDFDFB"/>
<path d="M266.52 114.44V117.98H270.3V114.44H266.52ZM266.52 106.22V109.76H270.3V106.22H266.52ZM278.88 109.76V106.22H274.92V109.76H278.88ZM278.88 117.98V114.44H274.92V117.98H278.88ZM275.76 122.96V126.56H285.06V132.8H275.76V142.22H269.46V132.8H259.98V126.56H269.46V122.96H261.54V101.3H269.52V98H260.7V91.82H269.52V86.18H275.88V91.82H284.34V98H275.88V101.3H283.98V122.96H275.76ZM297.24 120.98H292.26V124.94H297.24V120.98ZM308.34 124.94V120.98H302.94V124.94H308.34ZM302.94 134.18H308.34V130.22H302.94V134.18ZM292.26 134.18H297.24V130.22H292.26V134.18ZM285.9 142.16V115.16H314.94V141.92H308.34V140.06H292.26V142.16H285.9ZM306.18 107.12V102.98H294.54V107.12H306.18ZM288 97.7H313.02V112.4H288V97.7ZM285.84 89H315.18V95.12H285.84V89ZM335.94 114.44V117.56C338.7 117.26 341.7 117.02 344.64 116.78V114.44H335.94ZM344.64 101.42V98.24H335.94V101.42H344.64ZM344.64 109.46V106.46H335.94V109.46H344.64ZM351.18 92.84V114.44L356.1 116.9C354.6 118.7 352.98 120.5 351.18 122.18V135.32C351.18 138.44 350.58 140.12 348.6 141.14C346.62 142.16 343.8 142.28 339.78 142.28C339.48 140.6 338.52 137.84 337.68 136.28C340.08 136.4 342.66 136.4 343.5 136.34C344.34 136.34 344.64 136.04 344.64 135.2V127.82C339.12 132.2 333 135.92 327.24 138.74C326.7 137.3 325.26 134.06 324.24 132.62C330.3 130.1 336.78 126.44 342.3 122.18C336.18 122.84 330.18 123.5 325.38 123.98L324.72 118.52L329.58 118.1V92.84H335.28C336 90.68 336.78 88.16 337.08 86.18L344.34 86.9C343.44 89.06 342.54 91.1 341.82 92.84H351.18ZM367.44 123.56L361.5 126.14C360.54 122.24 357.84 116.24 355.02 111.86L360.6 109.58C363.54 113.9 366.24 119.66 367.44 123.56ZM380.52 99.02V105.98H374.7V134.06C374.7 137.9 373.92 139.7 371.58 140.78C369.36 141.86 365.76 142.1 360.66 142.1C360.36 140.18 359.34 137.24 358.44 135.32C361.86 135.5 365.4 135.5 366.48 135.44C367.56 135.38 367.98 135.14 367.98 134.06V105.98H353.4V99.02H367.98V86.6H374.7V99.02H380.52ZM438.66 112.64H429.54C422.34 112.64 420.42 110 420.42 103.34V86.3H427.5V93.38H442.26V99.5H427.5V103.46C427.5 105.68 427.86 106.52 429.78 106.52H438.54C440.22 106.52 442.74 106.34 444.06 106.04C444.18 107.9 444.48 110.48 444.72 112.1C443.46 112.52 440.94 112.64 438.66 112.64ZM399.9 119.06V121.22C399.9 123.5 399.78 126.2 399.48 128.9C402.18 127.7 405.72 125.9 409.32 123.98V122L406.44 124.82C404.94 123.26 402.18 120.92 399.9 119.06ZM409.32 113.66H399.9V117.92L402.9 115.34C404.94 116.78 407.52 118.88 409.32 120.44V113.66ZM416.04 107.66V135.62C416.04 138.56 415.5 140.06 413.52 141.02C411.6 141.92 408.9 142.04 405.24 142.04C404.94 140.36 403.98 138.02 403.08 136.46C405.24 136.58 407.58 136.58 408.3 136.58C409.08 136.58 409.32 136.34 409.32 135.56V129.44C406.32 131.6 403.32 133.64 400.62 135.38L399.12 131.18C398.46 135.26 397.14 139.34 394.86 142.46C393.84 141.08 391.14 138.5 389.88 137.66C393.06 132.98 393.3 126.38 393.3 121.16V107.66H416.04ZM406.92 92.72L412.68 90.62C415.2 94.94 418.38 100.82 419.82 104.42L413.58 106.94C413.22 105.86 412.68 104.6 412.08 103.16C396.9 104.66 394.44 105.02 392.7 105.74C392.34 104.36 391.2 101.12 390.48 99.32C391.56 99.08 392.58 98.24 393.78 96.92C394.98 95.6 398.64 90.98 400.86 86.24L408.06 88.28C406.02 91.76 403.32 95.24 400.68 98.24L409.44 97.58C408.54 95.84 407.7 94.16 406.92 92.72ZM430.32 135.56H437.1C439.14 135.56 439.56 134.54 439.86 129.02C441.3 130.1 444.18 131.18 446.04 131.6C445.32 139.46 443.46 141.8 437.76 141.8H429.24C422.16 141.8 420.42 139.7 420.42 133.16V114.32H427.5V120.32H442.68V126.62H427.5V133.16C427.5 135.26 427.92 135.56 430.32 135.56ZM497.46 113.72V116.24L501.3 116.18C500.82 115.58 500.34 115.04 499.86 114.5L501.54 113.72H497.46ZM486.54 109.88H491.4V107.48H486.54V109.88ZM486.54 101.48V103.82H491.4V101.48H486.54ZM502.56 101.48H497.46V103.82H502.56V101.48ZM502.56 109.88V107.48H497.46V109.88H502.56ZM479.76 121.64L479.4 116.54C482.7 116.54 486.84 116.48 491.4 116.36V113.72H480.96V97.64H491.4V95.42H479.94V90.2H491.4V86.24H497.46V90.2H509.52V95.42H497.46V97.64H508.44V113.72H505.92C507.9 116 509.7 118.64 510.72 120.62L505.74 123.08C505.44 122.48 505.08 121.76 504.6 120.98C495.6 121.28 486.36 121.52 479.76 121.64ZM497.04 135.86V129.26H488.04C489.9 131.12 491.58 133.4 492.42 135.08L489.96 136.64C492.36 136.76 495.12 136.76 495.9 136.76C496.74 136.7 497.04 136.52 497.04 135.86ZM461.34 114.44V117.98H464.76V114.44H461.34ZM461.34 106.22V109.76H464.76V106.22H461.34ZM473.04 109.76V106.22H469.38V109.76H473.04ZM473.04 117.98V114.44H469.38V117.98H473.04ZM503.52 121.7V124.04H510.36V129.26H503.52V136.04C503.52 139.1 503.04 140.6 500.76 141.5C498.54 142.34 495.66 142.4 491.46 142.4C491.28 140.66 490.44 138.44 489.72 136.82L487.32 138.32C486.36 136.22 484.32 133.16 482.16 131L485.1 129.26H479.46V132.74H470.22V142.22H463.92V132.74H454.26V126.5H463.92V122.9H456.24V101.24H463.92V98.12H455.1V91.94H463.92V86.24H470.22V91.94H478.74V98.12H470.22V101.24H478.2V122.9H470.22V126.5H479.46V124.04H497.04V121.7H503.52ZM529.02 113.36L527.4 108.92H520.86V95.42H543.54V93.02H523.56V88.34H570.6V93.02H550.5V95.42H573.66V108.92H566.76L565.5 113.18C562.32 112.04 556.14 110.6 551.64 109.88L553.02 105.86C557.28 106.34 563.22 107.6 566.52 108.68V100.1H563.28L565.44 103.16C562.26 104.48 557.88 105.44 554.76 106.04L552.54 102.68C554.88 102.14 558.24 101.06 560.76 100.1H550.5V112.58H543.54V100.1H532.08C535.32 100.7 539.16 101.72 541.44 102.56L539.52 106.4C537.12 105.44 532.62 104.18 529.2 103.46L530.88 100.1H527.64V108.32C531.3 107.9 536.34 107.18 541.5 106.4L541.74 110.48C537.24 111.5 532.8 112.52 529.02 113.36ZM533.22 128.48H543.18V125.78H533.22V128.48ZM543.18 118.88H533.22V121.58H543.18V118.88ZM560.88 121.58V118.88H550.02V121.58H560.88ZM550.02 128.48H560.88V125.78H550.02V128.48ZM554.34 135.98H565.68C568.74 135.98 569.28 135.08 569.7 130.04C571.08 131 573.78 131.9 575.64 132.26C574.8 139.46 572.82 141.38 566.28 141.38H553.68C545.52 141.38 543.18 139.7 543.18 133.46V133.28H533.22V135.86H526.38V114.08H567.96V133.28H550.02V133.46C550.02 135.62 550.74 135.98 554.34 135.98ZM633.06 112.64H623.94C616.74 112.64 614.82 110 614.82 103.34V86.3H621.9V93.38H636.66V99.5H621.9V103.46C621.9 105.68 622.26 106.52 624.18 106.52H632.94C634.62 106.52 637.14 106.34 638.46 106.04C638.58 107.9 638.88 110.48 639.12 112.1C637.86 112.52 635.34 112.64 633.06 112.64ZM594.3 119.06V121.22C594.3 123.5 594.18 126.2 593.88 128.9C596.58 127.7 600.12 125.9 603.72 123.98V122L600.84 124.82C599.34 123.26 596.58 120.92 594.3 119.06ZM603.72 113.66H594.3V117.92L597.3 115.34C599.34 116.78 601.92 118.88 603.72 120.44V113.66ZM610.44 107.66V135.62C610.44 138.56 609.9 140.06 607.92 141.02C606 141.92 603.3 142.04 599.64 142.04C599.34 140.36 598.38 138.02 597.48 136.46C599.64 136.58 601.98 136.58 602.7 136.58C603.48 136.58 603.72 136.34 603.72 135.56V129.44C600.72 131.6 597.72 133.64 595.02 135.38L593.52 131.18C592.86 135.26 591.54 139.34 589.26 142.46C588.24 141.08 585.54 138.5 584.28 137.66C587.46 132.98 587.7 126.38 587.7 121.16V107.66H610.44ZM601.32 92.72L607.08 90.62C609.6 94.94 612.78 100.82 614.22 104.42L607.98 106.94C607.62 105.86 607.08 104.6 606.48 103.16C591.3 104.66 588.84 105.02 587.1 105.74C586.74 104.36 585.6 101.12 584.88 99.32C585.96 99.08 586.98 98.24 588.18 96.92C589.38 95.6 593.04 90.98 595.26 86.24L602.46 88.28C600.42 91.76 597.72 95.24 595.08 98.24L603.84 97.58C602.94 95.84 602.1 94.16 601.32 92.72ZM624.72 135.56H631.5C633.54 135.56 633.96 134.54 634.26 129.02C635.7 130.1 638.58 131.18 640.44 131.6C639.72 139.46 637.86 141.8 632.16 141.8H623.64C616.56 141.8 614.82 139.7 614.82 133.16V114.32H621.9V120.32H637.08V126.62H621.9V133.16C621.9 135.26 622.32 135.56 624.72 135.56Z" fill="#594A39"/>
<path d="M122.522 201.64C122.405 201.933 122.009 202.08 121.334 202.08C120.66 202.08 120.073 201.889 119.574 201.508C119.222 201.156 118.988 200.877 118.87 200.672C118.782 200.496 118.841 200.173 119.046 199.704C119.252 199.264 119.604 198.472 120.102 197.328C120.22 196.624 120.425 195.92 120.718 195.216C121.012 194.483 121.232 193.969 121.378 193.676C121.496 193.265 121.73 192.591 122.082 191.652C122.464 190.684 122.889 189.613 123.358 188.44C123.857 187.267 124.326 186.167 124.766 185.14C125.206 184.084 125.529 183.292 125.734 182.764C126.233 181.591 126.746 180.359 127.274 179.068C127.802 177.777 128.521 176.149 129.43 174.184C129.548 173.891 129.504 173.583 129.298 173.26C129.093 172.937 128.741 172.776 128.242 172.776C127.949 172.453 127.788 172.116 127.758 171.764C127.729 171.383 127.876 171.119 128.198 170.972L132.246 169.608C133.625 169.285 135.033 169.197 136.47 169.344C137.937 169.461 139.316 169.857 140.606 170.532C142.014 171.353 143.041 172.263 143.686 173.26C144.332 174.257 144.684 175.269 144.742 176.296C144.83 177.293 144.713 178.203 144.39 179.024C144.156 179.64 143.701 180.315 143.026 181.048C142.381 181.781 141.618 182.515 140.738 183.248C139.888 183.981 138.993 184.656 138.054 185.272C137.145 185.859 136.294 186.313 135.502 186.636C134.769 186.988 133.948 187.355 133.038 187.736C132.129 188.088 131.249 188.396 130.398 188.66C129.929 188.777 129.372 188.836 128.726 188.836C128.081 188.836 127.597 188.777 127.274 188.66L126.526 190.068C126.233 191.124 125.72 192.693 124.986 194.776C124.282 196.859 123.461 199.147 122.522 201.64ZM139.99 202.476C139.756 202.564 139.36 202.593 138.802 202.564C138.274 202.535 137.673 202.3 136.998 201.86C135.708 201.097 134.417 200.173 133.126 199.088C131.836 198.003 130.384 196.536 128.77 194.688C128.154 193.955 127.685 193.221 127.362 192.488C127.069 191.755 126.688 190.831 126.218 189.716L125.602 187.34L127.274 186.24L129.21 187.824C129.68 188.851 130.222 189.833 130.838 190.772C131.484 191.711 132.129 192.547 132.774 193.28C133.302 193.896 134.021 194.644 134.93 195.524C135.84 196.375 136.808 197.196 137.834 197.988C138.861 198.78 139.785 199.381 140.606 199.792C140.782 199.939 140.826 200.217 140.738 200.628C140.68 201.068 140.562 201.479 140.386 201.86C140.24 202.241 140.108 202.447 139.99 202.476ZM128.902 185.228C129.577 185.169 130.31 184.993 131.102 184.7C131.924 184.377 132.789 184.025 133.698 183.644C134.549 183.233 135.385 182.793 136.206 182.324C137.057 181.825 137.82 181.283 138.494 180.696C139.198 180.109 139.741 179.479 140.122 178.804C140.533 178.129 140.709 177.411 140.65 176.648C140.65 176.267 140.533 175.841 140.298 175.372C140.064 174.903 139.756 174.477 139.374 174.096C139.022 173.715 138.656 173.465 138.274 173.348C137.101 173.055 136.206 172.879 135.59 172.82C134.974 172.761 134.52 172.849 134.226 173.084C133.962 173.319 133.757 173.729 133.61 174.316C133.61 174.404 133.493 174.683 133.258 175.152C133.024 175.621 132.73 176.223 132.378 176.956C132.056 177.66 131.733 178.423 131.41 179.244C130.56 180.975 129.929 182.251 129.518 183.072C129.137 183.864 128.902 184.392 128.814 184.656C128.756 184.92 128.785 185.111 128.902 185.228ZM147.962 198.076C147.845 197.841 147.581 197.607 147.17 197.372C146.789 197.137 146.598 196.961 146.598 196.844C146.598 196.727 146.525 196.551 146.378 196.316C146.261 196.052 146.144 195.861 146.026 195.744C145.88 195.568 145.924 195.143 146.158 194.468C146.393 193.764 146.745 192.913 147.214 191.916C147.684 190.919 148.197 189.907 148.754 188.88C148.989 188.645 149.224 188.337 149.458 187.956C149.693 187.575 149.869 187.325 149.986 187.208C149.986 187.091 150.03 186.988 150.118 186.9C150.206 186.783 150.309 186.724 150.426 186.724L150.778 186.02C150.837 185.903 151.013 185.668 151.306 185.316C151.629 184.964 152.01 184.583 152.45 184.172C152.89 183.732 153.33 183.321 153.77 182.94C154.24 182.559 154.621 182.28 154.914 182.104C155.53 181.693 156.161 181.503 156.806 181.532C157.481 181.561 158.053 181.767 158.522 182.148C158.61 182.236 158.801 182.412 159.094 182.676C159.417 182.94 159.769 183.233 160.15 183.556C160.561 183.879 160.913 184.172 161.206 184.436L162.834 185.888L162.086 188.088C161.705 189.261 161.602 190.288 161.778 191.168C161.954 192.048 162.233 192.811 162.614 193.456C162.761 193.779 162.952 194.028 163.186 194.204C163.45 194.38 163.788 194.497 164.198 194.556C164.433 194.585 164.653 194.673 164.858 194.82C165.064 194.967 165.166 195.201 165.166 195.524C165.166 196.228 165.034 196.741 164.77 197.064C164.536 197.357 164.272 197.533 163.978 197.592C163.01 197.709 162.086 197.607 161.206 197.284C160.326 196.961 159.534 196.125 158.83 194.776C158.713 194.6 158.552 194.277 158.346 193.808C158.17 193.309 158.068 192.987 158.038 192.84C157.921 192.987 157.76 193.177 157.554 193.412C157.378 193.617 157.202 193.808 157.026 193.984C154.944 196.096 153.154 197.475 151.658 198.12C150.192 198.736 148.96 198.721 147.962 198.076ZM150.382 194.424C150.588 194.453 150.91 194.351 151.35 194.116C151.79 193.852 152.377 193.427 153.11 192.84C154.108 191.989 154.929 191.285 155.574 190.728C156.22 190.171 156.85 189.452 157.466 188.572L158.434 186.988C158.141 186.313 157.877 185.873 157.642 185.668C157.408 185.463 157.173 185.36 156.938 185.36C156.557 185.36 156.102 185.609 155.574 186.108C155.046 186.577 154.445 187.281 153.77 188.22C153.125 189.129 152.392 190.273 151.57 191.652C151.189 192.297 150.896 192.928 150.69 193.544C150.485 194.131 150.382 194.424 150.382 194.424ZM182.119 199.836C181.738 199.924 181.356 199.821 180.975 199.528C180.623 199.264 180.374 198.971 180.227 198.648C180.051 198.179 179.934 197.739 179.875 197.328C179.846 196.888 179.816 196.389 179.787 195.832L179.743 194.336L177.939 195.964C176.942 196.903 176.003 197.577 175.123 197.988C174.272 198.369 173.495 198.56 172.791 198.56C172.468 198.501 172.072 198.296 171.603 197.944C171.163 197.563 170.752 197.152 170.371 196.712C170.019 196.243 169.77 195.861 169.623 195.568C169.447 195.157 169.388 194.585 169.447 193.852C169.535 193.119 169.711 192.312 169.975 191.432C170.268 190.552 170.62 189.687 171.031 188.836C171.471 187.985 171.97 187.252 172.527 186.636C173.495 185.169 174.698 184.26 176.135 183.908C177.572 183.527 178.848 183.644 179.963 184.26C180.491 184.524 180.872 184.627 181.107 184.568C181.342 184.509 181.488 184.319 181.547 183.996C181.664 183.527 181.796 183.087 181.943 182.676C182.09 182.265 182.295 181.649 182.559 180.828C183.292 178.599 183.923 176.853 184.451 175.592C185.008 174.331 185.507 173.231 185.947 172.292C186.27 171.617 186.592 171.148 186.915 170.884C187.238 170.62 187.516 170.503 187.751 170.532C188.074 170.532 188.47 170.649 188.939 170.884C189.438 171.119 189.76 171.441 189.907 171.852C190.024 172.116 190.068 172.395 190.039 172.688C190.039 172.981 189.951 173.289 189.775 173.612C189.394 174.316 188.939 175.255 188.411 176.428C187.912 177.572 187.399 178.833 186.871 180.212C186.372 181.591 185.903 182.955 185.463 184.304C185.023 185.653 184.656 186.841 184.363 187.868C184.187 188.513 184.04 189.335 183.923 190.332C183.835 191.329 183.762 192.356 183.703 193.412C183.674 194.439 183.674 195.363 183.703 196.184C183.732 196.976 183.776 197.489 183.835 197.724C184.011 198.311 184.011 198.751 183.835 199.044C183.659 199.337 183.41 199.528 183.087 199.616C182.764 199.733 182.442 199.807 182.119 199.836ZM174.859 194.512C175.27 194.365 175.636 194.189 175.959 193.984C176.282 193.779 176.663 193.515 177.103 193.192C177.983 192.517 178.614 191.931 178.995 191.432C179.406 190.933 179.728 190.317 179.963 189.584C180.11 189.144 180.11 188.763 179.963 188.44C179.846 188.117 179.626 187.809 179.303 187.516C178.98 187.252 178.57 187.149 178.071 187.208C177.572 187.237 177 187.545 176.355 188.132C175.651 188.777 175.05 189.525 174.551 190.376C174.052 191.227 173.642 192.444 173.319 194.028C173.26 194.321 173.363 194.527 173.627 194.644C173.891 194.761 174.302 194.717 174.859 194.512ZM194.41 198.956C193.706 198.956 193.09 198.589 192.562 197.856C192.063 197.093 191.755 196.184 191.638 195.128C191.667 194.893 191.697 194.556 191.726 194.116C191.785 193.676 191.843 193.221 191.902 192.752C192.019 192.195 192.181 191.476 192.386 190.596C192.591 189.716 192.811 188.836 193.046 187.956C193.281 187.047 193.486 186.269 193.662 185.624C193.838 184.949 193.941 184.553 193.97 184.436C194.146 184.025 194.542 183.923 195.158 184.128C195.774 184.333 196.302 184.773 196.742 185.448C196.918 185.683 197.021 185.961 197.05 186.284C197.109 186.607 197.065 187.076 196.918 187.692C196.801 188.308 196.566 189.217 196.214 190.42C195.891 191.593 195.642 192.547 195.466 193.28C195.319 193.984 195.261 194.732 195.29 195.524C195.173 196.873 195.055 197.797 194.938 198.296C194.821 198.765 194.645 198.985 194.41 198.956ZM198.458 180.696C198.341 180.784 198.223 180.828 198.106 180.828C198.018 180.799 197.857 180.711 197.622 180.564C197.417 180.535 197.153 180.403 196.83 180.168C196.537 179.904 196.273 179.64 196.038 179.376C195.833 179.112 195.73 178.951 195.73 178.892C195.701 178.599 195.715 178.129 195.774 177.484C195.862 176.839 196.023 176.237 196.258 175.68C196.522 175.093 196.874 174.785 197.314 174.756C197.431 174.756 197.681 174.815 198.062 174.932C198.473 175.049 198.898 175.196 199.338 175.372C199.573 175.812 199.793 176.384 199.998 177.088C200.203 177.792 200.218 178.481 200.042 179.156C199.895 179.801 199.367 180.315 198.458 180.696ZM206.039 198.208C205.687 198.296 205.291 198.193 204.851 197.9C204.411 197.607 204.015 197.24 203.663 196.8C203.311 196.36 203.091 195.964 203.003 195.612C202.885 194.996 202.915 194.248 203.091 193.368C203.296 192.459 203.633 191.505 204.103 190.508C204.572 189.481 205.159 188.484 205.863 187.516C206.567 186.519 207.359 185.624 208.239 184.832C209.119 184.04 210.072 183.424 211.099 182.984C211.539 182.749 211.847 182.603 212.023 182.544C212.199 182.456 212.375 182.456 212.551 182.544C212.727 182.603 213.035 182.749 213.475 182.984C213.885 183.101 214.296 183.248 214.707 183.424C215.147 183.571 215.528 183.864 215.851 184.304C216.085 184.744 216.261 185.184 216.379 185.624C216.496 186.064 216.599 186.563 216.687 187.12C216.921 187.853 217.009 188.337 216.951 188.572C216.892 188.777 216.804 188.939 216.687 189.056C216.452 189.349 216.393 189.496 216.511 189.496C216.511 189.496 216.496 189.555 216.467 189.672C216.467 189.76 216.408 189.907 216.291 190.112C216.085 190.757 215.924 191.373 215.807 191.96C215.719 192.517 215.733 193.016 215.851 193.456C216.085 194.101 216.393 194.483 216.775 194.6C217.185 194.717 217.713 194.453 218.359 193.808C218.681 193.573 219.048 193.427 219.459 193.368C219.869 193.28 220.075 193.353 220.075 193.588C220.075 193.588 220.119 193.632 220.207 193.72C220.295 193.779 220.397 193.808 220.515 193.808C220.661 193.808 220.72 193.955 220.691 194.248C220.661 194.512 220.603 194.82 220.515 195.172C220.427 195.524 220.309 195.817 220.163 196.052C219.723 196.492 219.503 196.785 219.503 196.932C219.503 196.932 219.444 196.991 219.327 197.108C219.239 197.196 219.077 197.343 218.843 197.548C218.315 197.871 217.64 198.032 216.819 198.032C216.027 198.032 215.411 197.871 214.971 197.548C214.531 197.225 214.091 196.829 213.651 196.36C213.24 195.891 212.976 195.451 212.859 195.04L212.639 194.6L211.363 195.436C211.04 195.759 210.805 196.008 210.659 196.184C210.512 196.331 210.38 196.463 210.263 196.58C210.175 196.697 210.072 196.8 209.955 196.888C209.867 196.976 209.764 197.02 209.647 197.02C209.529 197.02 209.427 197.02 209.339 197.02C209.251 197.02 209.207 197.02 209.207 197.02C209.207 197.137 209.001 197.299 208.591 197.504C208.18 197.68 207.725 197.841 207.227 197.988C206.728 198.135 206.332 198.208 206.039 198.208ZM206.963 194.512C207.139 194.512 207.403 194.409 207.755 194.204C208.136 193.969 208.547 193.691 208.987 193.368C209.427 193.045 209.823 192.723 210.175 192.4C210.556 192.077 210.835 191.813 211.011 191.608C211.128 191.491 211.26 191.3 211.407 191.036C211.583 190.772 211.773 190.537 211.979 190.332C212.653 189.569 213.079 188.968 213.255 188.528C213.431 188.059 213.357 187.56 213.035 187.032C212.917 186.709 212.771 186.533 212.595 186.504C212.419 186.475 212.052 186.577 211.495 186.812C211.143 187.017 210.761 187.355 210.351 187.824C209.94 188.293 209.515 188.821 209.075 189.408C208.664 189.995 208.283 190.596 207.931 191.212C207.579 191.828 207.285 192.385 207.051 192.884C206.845 193.383 206.743 193.779 206.743 194.072C206.743 194.189 206.772 194.292 206.831 194.38C206.919 194.468 206.963 194.512 206.963 194.512ZM239.432 198.824C238.992 198.824 238.567 198.692 238.156 198.428C237.746 198.135 237.408 197.739 237.144 197.24C236.88 196.712 236.748 196.096 236.748 195.392C236.748 194.952 236.822 194.336 236.968 193.544C237.144 192.723 237.394 191.696 237.716 190.464C237.775 190.053 237.819 189.789 237.848 189.672C237.907 189.555 237.936 189.437 237.936 189.32C237.936 189.261 237.922 189.217 237.892 189.188C237.892 189.129 237.863 189.1 237.804 189.1C237.57 189.1 237.247 189.261 236.836 189.584C236.455 189.877 236.015 190.229 235.516 190.64C235.428 190.699 235.326 190.772 235.208 190.86C235.12 190.948 235.018 191.036 234.9 191.124C234.812 191.212 234.71 191.3 234.592 191.388C234.299 191.564 233.844 191.901 233.228 192.4C232.642 192.899 232.026 193.427 231.38 193.984C230.764 194.541 230.222 195.011 229.752 195.392C229.518 195.568 229.312 195.715 229.136 195.832C228.99 195.949 228.887 196.008 228.828 196.008C228.77 196.008 228.535 195.935 228.124 195.788C227.743 195.612 227.362 195.377 226.98 195.084C226.628 194.761 226.452 194.395 226.452 193.984C226.452 193.72 226.555 193.192 226.76 192.4C226.995 191.608 227.318 190.669 227.728 189.584C228.139 188.499 228.608 187.399 229.136 186.284C229.254 186.02 229.342 185.668 229.4 185.228C229.459 184.788 229.518 184.363 229.576 183.952C229.664 183.512 229.811 183.189 230.016 182.984C230.104 182.837 230.207 182.735 230.324 182.676C230.471 182.588 230.618 182.544 230.764 182.544C231.058 182.544 231.336 182.617 231.6 182.764C231.864 182.881 232.114 183.087 232.348 183.38C232.788 183.849 233.023 184.407 233.052 185.052C233.111 185.668 233.067 186.269 232.92 186.856C232.774 187.443 232.612 187.927 232.436 188.308C232.26 188.66 232.172 188.807 232.172 188.748C232.29 188.689 232.451 188.543 232.656 188.308C232.891 188.073 233.287 187.795 233.844 187.472C234.607 186.885 235.194 186.475 235.604 186.24C236.015 185.976 236.323 185.785 236.528 185.668C236.763 185.551 236.968 185.419 237.144 185.272C237.291 185.155 237.394 185.081 237.452 185.052C237.54 185.023 237.584 185.008 237.584 185.008C237.672 185.008 237.819 184.949 238.024 184.832C238.259 184.715 238.479 184.656 238.684 184.656C238.978 184.656 239.286 184.729 239.608 184.876C239.931 184.993 240.21 185.169 240.444 185.404C240.679 185.609 240.796 185.829 240.796 186.064C240.796 186.152 240.826 186.225 240.884 186.284C240.943 186.343 241.002 186.416 241.06 186.504C241.207 186.68 241.368 186.929 241.544 187.252C241.75 187.545 241.852 188.029 241.852 188.704C241.852 189.173 241.75 189.863 241.544 190.772C241.339 191.681 241.119 192.576 240.884 193.456C240.65 194.365 240.532 195.099 240.532 195.656C240.562 196.184 240.62 196.595 240.708 196.888C240.796 197.152 240.84 197.372 240.84 197.548C240.84 197.783 240.723 198.061 240.488 198.384C240.254 198.677 239.902 198.824 239.432 198.824ZM253.204 201.64C251.766 201.611 250.842 201.2 250.432 200.408C250.05 199.645 249.948 198.677 250.124 197.504C250.3 196.947 250.402 196.448 250.432 196.008C250.49 195.539 250.622 195.245 250.828 195.128C250.828 195.128 250.842 195.084 250.872 194.996C250.93 194.908 250.916 194.82 250.828 194.732C250.828 194.351 250.96 193.823 251.224 193.148C251.282 192.972 251.356 192.767 251.444 192.532C251.561 192.268 251.62 192.136 251.62 192.136C251.473 191.901 251.473 191.711 251.62 191.564C251.766 191.417 251.913 191.285 252.06 191.168C252.236 191.021 252.25 190.86 252.104 190.684C252.045 190.567 252.118 190.303 252.324 189.892C252.529 189.452 252.764 188.997 253.028 188.528C253.292 188.059 253.468 187.692 253.556 187.428C253.556 187.369 253.629 187.164 253.776 186.812C253.922 186.46 254.098 186.049 254.304 185.58C254.509 185.111 254.7 184.685 254.876 184.304C255.081 183.923 255.213 183.673 255.272 183.556C255.565 183.409 255.448 183.307 254.92 183.248C254.392 183.189 253.834 183.175 253.248 183.204C252.338 183.175 251.605 183.131 251.048 183.072C250.52 183.013 250.08 182.881 249.728 182.676C249.376 182.265 249.332 181.781 249.596 181.224C249.86 180.637 250.285 180.329 250.872 180.3C251.253 180.271 251.546 180.256 251.752 180.256C251.986 180.256 252.28 180.241 252.632 180.212C253.013 180.153 253.6 180.08 254.392 179.992L256.636 179.816L256.768 179.068C257.002 178.687 257.164 178.437 257.252 178.32C257.34 178.203 257.398 178.085 257.428 177.968C257.457 177.821 257.501 177.572 257.56 177.22C257.56 177.22 257.692 176.985 257.956 176.516C258.22 176.017 258.381 175.504 258.44 174.976C258.792 174.389 259.1 173.861 259.364 173.392C259.628 172.893 259.789 172.585 259.848 172.468C260.346 171.735 260.83 171.339 261.3 171.28C261.798 171.221 262.268 171.339 262.708 171.632C262.972 171.779 263.221 171.969 263.456 172.204C263.69 172.409 263.837 172.688 263.896 173.04C263.954 173.363 263.822 173.788 263.5 174.316C263.441 174.433 263.353 174.653 263.236 174.976C263.118 175.269 263.03 175.519 262.972 175.724C262.796 175.929 262.576 176.267 262.312 176.736C262.077 177.176 261.916 177.631 261.828 178.1C261.593 178.599 261.446 178.907 261.388 179.024C261.329 179.141 261.241 179.2 261.124 179.2C261.182 179.493 261.358 179.64 261.652 179.64C261.945 179.611 262.429 179.581 263.104 179.552C263.661 179.493 264.042 179.435 264.248 179.376C264.482 179.288 264.746 179.317 265.04 179.464C265.186 179.669 265.26 179.977 265.26 180.388C265.289 180.769 265.245 181.151 265.128 181.532C265.01 181.884 264.849 182.104 264.644 182.192C264.497 182.192 264.189 182.28 263.72 182.456C263.28 182.603 262.722 182.691 262.048 182.72L259.716 182.94L258.968 184.436C258.762 184.817 258.586 185.169 258.44 185.492C258.293 185.785 258.19 185.961 258.132 186.02C258.132 186.196 258.029 186.46 257.824 186.812C257.648 187.164 257.457 187.545 257.252 187.956C257.076 188.455 256.87 188.909 256.636 189.32C256.43 189.731 256.328 189.936 256.328 189.936C256.21 189.936 256.152 190.024 256.152 190.2C256.298 190.552 256.254 190.816 256.02 190.992C255.873 191.08 255.741 191.212 255.624 191.388C255.536 191.535 255.492 191.608 255.492 191.608C255.609 191.725 255.624 191.872 255.536 192.048C255.477 192.224 255.389 192.415 255.272 192.62C255.272 192.855 255.198 193.192 255.052 193.632C254.934 194.072 254.802 194.483 254.656 194.864C254.685 195.392 254.714 195.729 254.744 195.876C254.773 196.023 254.846 196.081 254.964 196.052C255.11 196.081 255.316 196.081 255.58 196.052C255.844 196.023 256.034 196.008 256.152 196.008C256.592 195.803 256.386 196.829 255.536 199.088C255.066 199.821 254.597 200.423 254.128 200.892C253.658 201.391 253.35 201.64 253.204 201.64ZM287.49 200.716C286.581 200.657 285.672 200.32 284.762 199.704C283.853 199.117 283.017 198.56 282.254 198.032C281.756 197.533 281.374 197.005 281.11 196.448C280.846 195.861 280.626 195.099 280.45 194.16C280.333 193.603 280.333 192.869 280.45 191.96C280.568 191.051 280.758 190.141 281.022 189.232C281.286 188.293 281.536 187.56 281.77 187.032C282.122 186.211 282.562 185.331 283.09 184.392C283.648 183.424 284.19 182.515 284.718 181.664C285.276 180.784 285.716 180.08 286.038 179.552C286.244 179.347 286.332 179.244 286.302 179.244C286.302 179.215 286.302 179.2 286.302 179.2C286.302 179.053 286.449 178.687 286.742 178.1C287.065 177.484 287.344 176.941 287.578 176.472C288.018 176.003 288.268 175.621 288.326 175.328C288.385 175.035 288.341 174.8 288.194 174.624C288.136 174.507 288.253 174.257 288.546 173.876C288.869 173.495 289.309 173.069 289.866 172.6C290.424 172.101 291.04 171.661 291.714 171.28C292.418 170.723 293.093 170.429 293.738 170.4C294.413 170.341 294.809 170.473 294.926 170.796C294.926 170.884 295.088 170.913 295.41 170.884C295.762 170.825 296.158 170.752 296.598 170.664C297.068 170.547 297.478 170.459 297.83 170.4C297.977 170.224 298.314 170.092 298.842 170.004C299.4 169.887 300.045 169.784 300.778 169.696C301.16 169.725 301.585 169.74 302.054 169.74C302.524 169.711 302.934 169.681 303.286 169.652C303.668 169.623 303.858 169.608 303.858 169.608C304.064 169.549 304.357 169.681 304.738 170.004C305.149 170.297 305.472 170.708 305.706 171.236C305.912 171.764 305.736 172.219 305.178 172.6C304.621 172.981 303.741 173.245 302.538 173.392C301.658 173.509 300.969 173.612 300.47 173.7C300.001 173.759 299.488 173.847 298.93 173.964C298.402 174.052 297.625 174.213 296.598 174.448C295.865 174.595 295.249 174.712 294.75 174.8C294.252 174.888 293.812 175.064 293.43 175.328C293.078 175.592 292.682 176.061 292.242 176.736C292.037 176.883 291.773 177.264 291.45 177.88C291.128 178.496 290.805 179.112 290.482 179.728C289.661 180.872 289.045 181.723 288.634 182.28C288.253 182.808 288.121 183.145 288.238 183.292C288.238 183.292 288.444 183.336 288.854 183.424C289.265 183.512 289.529 183.556 289.646 183.556C289.94 183.409 290.292 183.307 290.702 183.248C291.142 183.189 291.494 183.131 291.758 183.072C293.577 182.603 294.912 182.265 295.762 182.06C296.642 181.825 297.258 181.664 297.61 181.576C297.992 181.488 298.329 181.429 298.622 181.4C299.033 181.077 299.444 181.107 299.854 181.488C300.294 181.84 300.602 182.265 300.778 182.764C300.984 183.351 300.984 183.805 300.778 184.128C300.573 184.451 300.118 184.715 299.414 184.92C298.74 185.125 297.772 185.375 296.51 185.668C295.249 185.932 293.665 186.328 291.758 186.856C290.145 187.325 288.84 187.604 287.842 187.692C286.845 187.78 286.376 187.531 286.434 186.944C286.229 186.827 285.994 186.944 285.73 187.296C285.496 187.619 285.276 188.073 285.07 188.66C284.865 189.247 284.674 189.877 284.498 190.552C284.352 191.227 284.264 191.857 284.234 192.444C284.205 193.031 284.249 193.485 284.366 193.808C284.601 194.483 284.968 195.069 285.466 195.568C285.994 196.037 286.757 196.419 287.754 196.712C288.341 196.741 288.913 196.785 289.47 196.844C290.028 196.903 290.658 196.785 291.362 196.492C293.093 196.199 294.296 195.891 294.97 195.568C295.645 195.245 296.056 195.025 296.202 194.908C296.437 194.791 296.584 194.673 296.642 194.556C296.73 194.439 296.848 194.38 296.994 194.38C296.906 194.527 296.936 194.527 297.082 194.38C297.229 194.233 297.464 194.028 297.786 193.764C298.402 193.236 299.018 192.913 299.634 192.796C300.25 192.679 300.764 192.679 301.174 192.796C301.585 192.884 301.805 193.001 301.834 193.148C302.01 193.441 301.922 193.911 301.57 194.556C301.218 195.172 300.676 195.832 299.942 196.536C299.238 197.24 298.402 197.871 297.434 198.428C295.88 199.249 294.193 199.821 292.374 200.144C290.556 200.496 288.928 200.687 287.49 200.716ZM323.49 197.944C322.845 197.885 322.302 197.753 321.862 197.548C321.452 197.313 321.114 196.859 320.85 196.184C320.733 195.715 320.674 195.231 320.674 194.732C320.704 194.204 320.748 193.705 320.806 193.236C320.865 192.737 320.894 192.312 320.894 191.96C320.894 191.901 320.894 191.784 320.894 191.608C320.894 191.432 320.894 191.271 320.894 191.124C320.836 190.684 320.718 190.42 320.542 190.332C320.396 190.215 320.132 190.229 319.75 190.376C319.134 190.669 318.46 191.065 317.726 191.564C317.022 192.033 316.274 192.591 315.482 193.236C314.72 193.852 313.928 194.512 313.106 195.216C312.461 195.92 311.977 196.492 311.654 196.932C311.361 197.372 311.053 197.592 310.73 197.592C310.496 197.709 310.246 197.68 309.982 197.504C309.718 197.328 309.44 197.123 309.146 196.888C308.941 196.653 308.692 196.36 308.398 196.008C308.134 195.627 307.973 195.377 307.914 195.26C307.914 194.791 307.944 194.365 308.002 193.984C308.09 193.603 308.208 193.207 308.354 192.796C308.53 192.385 308.736 191.916 308.97 191.388C309.088 191.183 309.19 190.977 309.278 190.772C309.396 190.537 309.528 190.288 309.674 190.024C309.792 189.613 309.953 189.144 310.158 188.616C310.393 188.088 310.613 187.589 310.818 187.12C311.141 186.357 311.39 185.697 311.566 185.14C311.742 184.583 311.889 183.981 312.006 183.336C311.977 183.277 311.992 183.189 312.05 183.072C312.109 182.955 312.197 182.881 312.314 182.852H312.358H312.402C312.608 182.705 312.989 182.691 313.546 182.808C314.133 182.896 314.573 183.057 314.866 183.292C315.482 183.82 315.776 184.509 315.746 185.36C315.717 186.211 315.277 187.325 314.426 188.704C314.221 189.173 314.001 189.613 313.766 190.024C313.561 190.405 313.458 190.669 313.458 190.816C313.458 190.816 313.576 190.728 313.81 190.552C314.045 190.376 314.324 190.171 314.646 189.936C314.969 189.672 315.248 189.467 315.482 189.32C315.629 189.173 315.952 188.909 316.45 188.528C316.949 188.117 317.492 187.692 318.078 187.252C318.665 186.812 319.134 186.475 319.486 186.24C319.809 186.005 320.22 185.771 320.718 185.536C321.217 185.272 321.525 185.14 321.642 185.14C321.936 185.14 322.288 185.243 322.698 185.448C323.138 185.653 323.534 185.903 323.886 186.196C324.268 186.46 324.488 186.709 324.546 186.944C324.546 187.061 324.532 187.223 324.502 187.428C324.473 187.604 324.458 187.765 324.458 187.912C324.429 188.381 324.414 188.953 324.414 189.628C324.444 190.273 324.458 190.933 324.458 191.608C324.458 192.253 324.4 192.84 324.282 193.368C324.282 193.368 324.297 193.397 324.326 193.456C324.356 193.485 324.385 193.544 324.414 193.632C324.385 193.661 324.37 193.72 324.37 193.808C324.4 193.867 324.414 193.896 324.414 193.896C324.473 194.101 324.532 194.307 324.59 194.512C324.678 194.717 324.781 194.952 324.898 195.216C325.016 195.451 325.148 195.759 325.294 196.14C325.265 196.521 325.045 196.903 324.634 197.284C324.253 197.636 323.872 197.856 323.49 197.944ZM340.606 198.12C339.726 198.619 338.787 198.912 337.79 199C336.822 199.059 335.912 198.927 335.062 198.604C334.211 198.252 333.522 197.739 332.994 197.064C332.7 196.683 332.422 196.081 332.158 195.26C331.894 194.409 331.85 193.265 332.026 191.828C332.202 190.479 332.612 189.115 333.258 187.736C333.932 186.357 334.754 185.14 335.722 184.084C336.69 183.028 337.746 182.309 338.89 181.928C339.3 181.781 339.711 181.679 340.122 181.62C340.562 181.532 341.134 181.517 341.838 181.576C342.512 181.664 343.114 181.84 343.642 182.104C344.17 182.339 344.551 182.603 344.786 182.896C345.255 183.365 345.563 183.82 345.71 184.26C345.856 184.7 345.915 185.125 345.886 185.536C345.739 186.475 345.314 187.487 344.61 188.572C343.935 189.657 342.982 190.464 341.75 190.992C341.251 191.197 340.664 191.329 339.99 191.388C339.315 191.447 338.391 191.359 337.218 191.124C336.514 190.977 336.044 191.051 335.81 191.344C335.604 191.637 335.516 192.209 335.546 193.06C335.604 193.588 335.722 194.057 335.898 194.468C336.103 194.849 336.47 195.113 336.998 195.26C337.672 195.377 338.156 195.392 338.45 195.304C338.743 195.187 339.11 195.025 339.55 194.82C339.784 194.673 340.004 194.512 340.21 194.336C340.444 194.16 340.664 193.984 340.87 193.808C341.104 193.632 341.295 193.5 341.442 193.412C341.588 193.295 341.735 193.221 341.882 193.192C342.028 193.163 342.175 193.148 342.322 193.148C342.644 193.177 342.952 193.353 343.246 193.676C343.539 193.999 343.73 194.307 343.818 194.6C343.818 194.835 343.671 195.172 343.378 195.612C343.084 196.023 342.688 196.463 342.19 196.932C341.72 197.372 341.192 197.768 340.606 198.12ZM340.034 188.308C340.239 188.22 340.532 188.015 340.914 187.692C341.324 187.369 341.691 187.032 342.014 186.68C342.336 186.299 342.498 186.005 342.498 185.8C342.498 185.477 342.278 185.199 341.838 184.964C341.427 184.729 340.884 184.685 340.21 184.832C339.975 184.891 339.696 185.052 339.374 185.316C339.051 185.58 338.728 185.888 338.406 186.24C338.083 186.563 337.804 186.885 337.57 187.208C337.335 187.501 337.174 187.736 337.086 187.912C337.203 188.059 337.438 188.176 337.79 188.264C338.142 188.352 338.523 188.396 338.934 188.396C339.374 188.396 339.74 188.367 340.034 188.308ZM353.849 198.076C353.761 198.105 353.57 198.091 353.277 198.032C353.013 197.973 352.734 197.9 352.441 197.812C352.177 197.724 352.016 197.651 351.957 197.592C351.839 197.475 351.678 197.269 351.473 196.976C351.267 196.653 351.15 196.228 351.121 195.7C351.121 195.172 351.37 194.541 351.869 193.808C352.015 193.515 352.191 193.075 352.397 192.488C352.602 191.901 352.808 191.285 353.013 190.64C353.248 189.965 353.453 189.364 353.629 188.836C353.834 188.308 353.981 187.941 354.069 187.736C354.127 187.237 354.098 186.885 353.981 186.68C353.893 186.445 353.644 186.313 353.233 186.284C352.939 186.284 352.705 186.181 352.529 185.976C352.382 185.771 352.309 185.404 352.309 184.876C352.367 184.465 352.47 184.113 352.617 183.82C352.793 183.497 353.028 183.233 353.321 183.028C353.614 182.881 353.981 182.779 354.421 182.72C354.89 182.661 355.345 182.647 355.785 182.676C356.225 182.705 356.533 182.808 356.709 182.984C356.914 183.101 357.075 183.365 357.193 183.776C357.34 184.157 357.457 184.553 357.545 184.964C357.633 185.375 357.692 185.683 357.721 185.888C358.014 185.653 358.337 185.331 358.689 184.92C359.07 184.48 359.451 184.069 359.833 183.688C360.302 183.365 360.86 183.043 361.505 182.72C362.15 182.368 362.62 182.192 362.913 182.192C363.236 182.192 363.632 182.353 364.101 182.676C364.57 182.969 364.864 183.233 364.981 183.468C365.274 183.967 365.48 184.495 365.597 185.052C365.744 185.58 365.656 186.049 365.333 186.46C365.04 186.841 364.629 187.223 364.101 187.604C363.573 187.956 362.913 188.059 362.121 187.912C361.945 187.853 361.754 187.633 361.549 187.252C361.373 186.871 361.27 186.592 361.241 186.416C361.241 186.328 361.109 186.416 360.845 186.68C360.61 186.915 360.317 187.208 359.965 187.56C359.642 187.912 359.334 188.235 359.041 188.528C358.542 189.144 358.014 189.98 357.457 191.036C356.9 192.092 356.24 193.368 355.477 194.864C355.125 195.597 354.832 196.301 354.597 196.976C354.362 197.621 354.113 197.988 353.849 198.076ZM375.468 207.668C374.94 207.932 374.251 207.991 373.4 207.844C372.579 207.697 371.758 207.404 370.936 206.964C370.144 206.553 369.499 206.069 369 205.512C368.736 205.219 368.502 204.867 368.296 204.456C368.091 204.045 367.959 203.649 367.9 203.268C367.842 202.916 367.915 202.681 368.12 202.564C368.384 202.388 368.692 202.3 369.044 202.3C369.426 202.3 369.748 202.344 370.012 202.432C370.306 202.52 370.452 202.623 370.452 202.74C370.775 203.033 371.083 203.283 371.376 203.488C371.699 203.723 372.007 203.899 372.3 204.016C372.711 204.192 373.078 204.221 373.4 204.104C373.752 204.016 374.075 203.825 374.368 203.532C374.603 203.209 374.808 202.799 374.984 202.3C375.19 201.831 375.351 201.288 375.468 200.672L375.6 200.1C375.923 198.633 376.231 197.255 376.524 195.964C376.847 194.644 377.111 193.691 377.316 193.104C377.258 193.104 377.184 193.119 377.096 193.148C377.008 193.177 376.92 193.221 376.832 193.28C376.656 193.368 376.48 193.456 376.304 193.544C376.128 193.632 375.952 193.72 375.776 193.808C375.395 194.013 375.058 194.175 374.764 194.292C374.471 194.38 374.207 194.453 373.972 194.512C373.591 194.629 373.312 194.673 373.136 194.644C372.96 194.615 372.814 194.6 372.696 194.6C372.403 194.6 372.022 194.512 371.552 194.336C371.083 194.131 370.687 193.881 370.364 193.588C370.1 193.324 369.91 193.06 369.792 192.796C369.675 192.503 369.602 192.195 369.572 191.872C369.543 191.549 369.528 191.227 369.528 190.904C369.528 190.464 369.763 189.687 370.232 188.572C370.702 187.428 371.391 186.313 372.3 185.228C372.858 184.671 373.591 184.113 374.5 183.556C375.41 182.999 376.334 182.529 377.272 182.148C378.24 181.737 379.032 181.532 379.648 181.532C379.766 181.532 379.898 181.547 380.044 181.576C380.22 181.605 380.382 181.679 380.528 181.796C381.027 181.913 381.526 182.192 382.024 182.632C382.523 183.043 382.963 183.585 383.344 184.26C383.579 184.729 383.77 185.228 383.916 185.756C384.092 186.284 384.18 186.841 384.18 187.428C384.18 187.897 384.092 188.308 383.916 188.66C383.77 188.983 383.623 189.173 383.476 189.232C383.418 189.291 383.344 189.335 383.256 189.364C383.168 189.364 383.066 189.379 382.948 189.408C382.89 189.408 382.772 189.437 382.596 189.496C382.42 189.584 382.244 189.745 382.068 189.98C381.922 190.185 381.775 190.552 381.628 191.08C381.599 191.227 381.57 191.373 381.54 191.52C381.511 191.667 381.467 191.813 381.408 191.96C381.408 191.989 381.364 192.063 381.276 192.18C381.218 192.268 381.174 192.385 381.144 192.532C381.115 192.737 381.056 192.913 380.968 193.06C380.91 193.177 380.851 193.309 380.792 193.456C380.763 193.573 380.748 193.676 380.748 193.764C380.748 193.823 380.748 193.881 380.748 193.94L380.572 194.424C380.484 194.717 380.396 194.981 380.308 195.216C380.25 195.451 380.22 195.597 380.22 195.656L380.044 196.536C379.986 196.859 379.912 197.181 379.824 197.504C379.766 197.827 379.707 198.135 379.648 198.428C379.59 198.721 379.516 199.015 379.428 199.308C378.783 201.889 378.123 203.84 377.448 205.16C376.803 206.48 376.143 207.316 375.468 207.668ZM372.872 190.596C372.931 191.241 373.474 191.52 374.5 191.432C375.527 191.315 376.671 190.699 377.932 189.584C378.431 189.173 378.871 188.704 379.252 188.176C379.663 187.648 379.942 187.105 380.088 186.548C380.235 186.079 380.264 185.756 380.176 185.58C380.118 185.375 379.868 185.257 379.428 185.228C378.842 185.228 378.24 185.36 377.624 185.624C377.038 185.859 376.407 186.196 375.732 186.636C375.351 187.164 375.028 187.501 374.764 187.648C374.5 187.795 374.324 187.868 374.236 187.868C374.178 187.839 374.207 187.853 374.324 187.912C374.266 188.029 374.207 188.132 374.148 188.22C374.09 188.308 374.031 188.396 373.972 188.484C373.796 188.777 373.62 189.027 373.444 189.232C373.268 189.437 373.122 189.643 373.004 189.848C372.916 190.053 372.872 190.303 372.872 190.596ZM388.636 208.152C387.58 208.357 386.568 208.387 385.6 208.24C384.632 208.123 383.825 207.873 383.18 207.492C382.505 207.111 382.094 206.685 381.948 206.216C381.772 205.541 381.86 205.043 382.212 204.72C382.564 204.397 382.989 204.207 383.488 204.148C383.957 204.089 384.265 204.148 384.412 204.324C384.646 204.471 385.013 204.691 385.512 204.984C386.04 205.277 386.685 205.351 387.448 205.204C388.122 205.057 388.724 204.735 389.252 204.236C389.78 203.737 390.249 203.209 390.66 202.652C390.894 202.3 391.29 201.669 391.848 200.76C392.405 199.851 392.977 198.853 393.564 197.768C394.18 196.653 394.693 195.627 395.104 194.688C395.192 194.453 395.294 194.175 395.412 193.852C395.529 193.529 395.676 193.265 395.852 193.06C396.028 192.708 396.174 192.385 396.292 192.092C396.438 191.769 396.526 191.549 396.556 191.432C396.585 191.285 396.717 190.992 396.952 190.552C397.186 190.112 397.406 189.672 397.612 189.232C397.758 188.792 397.978 188.147 398.272 187.296C398.565 186.445 398.858 185.756 399.152 185.228C399.504 184.553 399.782 184.011 399.988 183.6C400.222 183.16 400.472 182.896 400.736 182.808C401 182.603 401.249 182.5 401.484 182.5C401.718 182.5 401.997 182.588 402.32 182.764C402.672 183.116 402.95 183.468 403.156 183.82C403.39 184.143 403.478 184.553 403.42 185.052C403.39 185.521 403.156 186.167 402.716 186.988C402.481 187.692 402.217 188.337 401.924 188.924C401.66 189.481 401.454 189.848 401.308 190.024C401.161 190.376 400.985 190.772 400.78 191.212C400.604 191.623 400.442 192.004 400.296 192.356C399.768 193.529 399.313 194.483 398.932 195.216C398.55 195.949 398.213 196.624 397.92 197.24C397.626 197.856 397.318 198.575 396.996 199.396C396.321 200.481 395.661 201.508 395.016 202.476C394.4 203.473 393.74 204.397 393.036 205.248C392.742 205.512 392.317 205.849 391.76 206.26C391.232 206.7 390.674 207.096 390.088 207.448C389.53 207.829 389.046 208.064 388.636 208.152ZM394.136 198.208C393.696 198.149 393.212 197.856 392.684 197.328C392.185 196.8 391.76 196.243 391.408 195.656C391.085 195.069 390.953 194.659 391.012 194.424C391.012 194.277 391.012 194.16 391.012 194.072C391.012 193.984 391.012 193.94 391.012 193.94C390.836 193.94 390.689 193.691 390.572 193.192C390.484 192.664 390.41 192.004 390.352 191.212C390.322 190.42 390.308 189.599 390.308 188.748C390.337 187.897 390.381 187.12 390.44 186.416C390.557 185.917 390.616 185.375 390.616 184.788C390.616 184.172 390.63 183.688 390.66 183.336C390.63 182.867 390.718 182.485 390.924 182.192C391.158 181.899 391.334 181.708 391.452 181.62C392.537 181.151 393.329 181.4 393.828 182.368C394.326 183.336 394.502 184.876 394.356 186.988C394.297 188.161 394.268 189.291 394.268 190.376C394.268 191.432 394.37 192.341 394.576 193.104C394.781 193.867 395.133 194.409 395.632 194.732C395.837 194.849 395.91 195.099 395.852 195.48C395.793 195.861 395.661 196.272 395.456 196.712C395.25 197.123 395.016 197.489 394.752 197.812C394.517 198.105 394.312 198.237 394.136 198.208ZM427.664 199.264C427.253 199.147 426.843 198.941 426.432 198.648C426.021 198.355 425.596 198.017 425.156 197.636C424.804 197.167 424.555 196.741 424.408 196.36C424.261 195.949 424.173 195.48 424.144 194.952C424.144 194.395 424.144 193.691 424.144 192.84C424.144 192.488 424.203 191.989 424.32 191.344C424.467 190.699 424.613 190.024 424.76 189.32C424.936 188.616 425.097 188 425.244 187.472C425.391 186.915 425.479 186.548 425.508 186.372C425.596 185.991 425.449 185.771 425.068 185.712C424.687 185.653 424.261 185.639 423.792 185.668C423.352 185.668 423.059 185.624 422.912 185.536C422.795 185.507 422.736 185.36 422.736 185.096C422.736 184.803 422.736 184.656 422.736 184.656C422.736 184.539 422.677 184.465 422.56 184.436C422.443 184.377 422.34 184.275 422.252 184.128C422.193 184.011 422.267 183.791 422.472 183.468C422.677 183.145 422.941 182.955 423.264 182.896C423.528 182.837 423.924 182.793 424.452 182.764C424.98 182.705 425.508 182.603 426.036 182.456C426.593 182.28 427.019 182.016 427.312 181.664C427.576 181.019 427.869 180.329 428.192 179.596C428.515 178.833 428.823 178.173 429.116 177.616C429.409 177.029 429.615 176.663 429.732 176.516C430.231 176.252 430.744 176.149 431.272 176.208C431.8 176.237 432.211 176.487 432.504 176.956C432.651 177.161 432.768 177.308 432.856 177.396C432.973 177.484 433.017 177.616 432.988 177.792C432.988 177.968 432.871 178.291 432.636 178.76C432.431 179.2 432.079 179.889 431.58 180.828C431.433 181.121 431.301 181.385 431.184 181.62C431.067 181.825 431.008 181.928 431.008 181.928C431.125 181.957 431.301 181.972 431.536 181.972C431.771 181.972 432.064 181.957 432.416 181.928C432.739 181.869 433.091 181.825 433.472 181.796C433.853 181.737 434.191 181.737 434.484 181.796C435.159 181.796 435.657 181.987 435.98 182.368C436.303 182.749 436.479 183.233 436.508 183.82C436.567 184.143 436.449 184.421 436.156 184.656C435.863 184.891 435.32 185.008 434.528 185.008C434.264 185.008 433.883 185.023 433.384 185.052C432.885 185.081 432.372 185.111 431.844 185.14C431.316 185.169 430.861 185.213 430.48 185.272C430.128 185.301 429.952 185.345 429.952 185.404C429.864 185.463 429.717 185.697 429.512 186.108C429.336 186.489 429.145 186.959 428.94 187.516C428.764 188.073 428.603 188.601 428.456 189.1C428.251 190.097 428.104 191.065 428.016 192.004C427.928 192.943 427.913 193.764 427.972 194.468C428.06 195.143 428.236 195.627 428.5 195.92C428.764 196.184 429.16 196.184 429.688 195.92C430.245 195.627 430.759 195.289 431.228 194.908C431.756 194.468 432.211 194.336 432.592 194.512C432.973 194.659 433.208 194.981 433.296 195.48C433.413 195.949 433.281 196.463 432.9 197.02C432.548 197.577 432.049 198.047 431.404 198.428C430.759 198.809 430.099 199.073 429.424 199.22C428.749 199.396 428.163 199.411 427.664 199.264ZM444.21 198.648C443.594 198.765 443.125 198.736 442.802 198.56C442.509 198.355 442.201 198.105 441.878 197.812C441.409 197.577 440.984 197.255 440.602 196.844C440.221 196.404 439.928 195.949 439.722 195.48C439.517 195.011 439.429 194.644 439.458 194.38C439.546 193.353 439.781 192.239 440.162 191.036C440.573 189.833 441.086 188.66 441.702 187.516C442.348 186.372 443.066 185.36 443.858 184.48C444.68 183.571 445.56 182.911 446.498 182.5C447.085 182.265 447.716 182.177 448.39 182.236C449.065 182.295 449.52 182.573 449.754 183.072C450.194 183.923 450.092 184.465 449.446 184.7C449.358 184.7 449.256 184.744 449.138 184.832C449.021 184.891 448.962 184.979 448.962 185.096C449.08 185.155 449.402 185.169 449.93 185.14C450.458 185.081 450.986 184.993 451.514 184.876C452.072 184.729 452.438 184.583 452.614 184.436C452.79 184.348 452.922 184.304 453.01 184.304C453.098 184.304 453.318 184.333 453.67 184.392C454.169 184.539 454.418 184.715 454.418 184.92C454.418 185.037 454.462 185.228 454.55 185.492C454.638 185.727 454.741 185.844 454.858 185.844C455.064 185.873 455.108 186.079 454.99 186.46C454.902 186.841 454.565 187.237 453.978 187.648C453.421 188 453.069 188.235 452.922 188.352C452.805 188.44 452.79 188.645 452.878 188.968C453.113 189.525 453.098 190.2 452.834 190.992C452.57 191.784 452.13 192.605 451.514 193.456C450.898 194.307 450.165 195.113 449.314 195.876C448.493 196.609 447.628 197.24 446.718 197.768C445.838 198.267 445.002 198.56 444.21 198.648ZM444.342 194.952C444.46 194.952 444.665 194.893 444.958 194.776C445.252 194.629 445.486 194.512 445.662 194.424C445.78 194.307 445.926 194.175 446.102 194.028C446.308 193.852 446.469 193.749 446.586 193.72C446.704 193.72 446.777 193.676 446.806 193.588C446.836 193.471 446.938 193.251 447.114 192.928C447.29 192.576 447.642 192.063 448.17 191.388C448.757 190.743 449.138 190.229 449.314 189.848C449.49 189.437 449.505 188.997 449.358 188.528C449.329 188.411 449.241 188.337 449.094 188.308C448.977 188.279 448.816 188.205 448.61 188.088C448.317 188.088 448.112 188.161 447.994 188.308C447.906 188.425 447.701 188.352 447.378 188.088L446.674 187.208L445.926 187.956C445.457 188.425 445.032 189.012 444.65 189.716C444.298 190.42 444.02 191.139 443.814 191.872C443.609 192.605 443.477 193.251 443.418 193.808C443.389 194.248 443.462 194.541 443.638 194.688C443.814 194.835 444.049 194.923 444.342 194.952ZM479.784 200.716C478.875 200.657 477.965 200.32 477.056 199.704C476.147 199.117 475.311 198.56 474.548 198.032C474.049 197.533 473.668 197.005 473.404 196.448C473.14 195.861 472.92 195.099 472.744 194.16C472.627 193.603 472.627 192.869 472.744 191.96C472.861 191.051 473.052 190.141 473.316 189.232C473.58 188.293 473.829 187.56 474.064 187.032C474.416 186.211 474.856 185.331 475.384 184.392C475.941 183.424 476.484 182.515 477.012 181.664C477.569 180.784 478.009 180.08 478.332 179.552C478.537 179.347 478.625 179.244 478.596 179.244C478.596 179.215 478.596 179.2 478.596 179.2C478.596 179.053 478.743 178.687 479.036 178.1C479.359 177.484 479.637 176.941 479.872 176.472C480.312 176.003 480.561 175.621 480.62 175.328C480.679 175.035 480.635 174.8 480.488 174.624C480.429 174.507 480.547 174.257 480.84 173.876C481.163 173.495 481.603 173.069 482.16 172.6C482.717 172.101 483.333 171.661 484.008 171.28C484.712 170.723 485.387 170.429 486.032 170.4C486.707 170.341 487.103 170.473 487.22 170.796C487.22 170.884 487.381 170.913 487.704 170.884C488.056 170.825 488.452 170.752 488.892 170.664C489.361 170.547 489.772 170.459 490.124 170.4C490.271 170.224 490.608 170.092 491.136 170.004C491.693 169.887 492.339 169.784 493.072 169.696C493.453 169.725 493.879 169.74 494.348 169.74C494.817 169.711 495.228 169.681 495.58 169.652C495.961 169.623 496.152 169.608 496.152 169.608C496.357 169.549 496.651 169.681 497.032 170.004C497.443 170.297 497.765 170.708 498 171.236C498.205 171.764 498.029 172.219 497.472 172.6C496.915 172.981 496.035 173.245 494.832 173.392C493.952 173.509 493.263 173.612 492.764 173.7C492.295 173.759 491.781 173.847 491.224 173.964C490.696 174.052 489.919 174.213 488.892 174.448C488.159 174.595 487.543 174.712 487.044 174.8C486.545 174.888 486.105 175.064 485.724 175.328C485.372 175.592 484.976 176.061 484.536 176.736C484.331 176.883 484.067 177.264 483.744 177.88C483.421 178.496 483.099 179.112 482.776 179.728C481.955 180.872 481.339 181.723 480.928 182.28C480.547 182.808 480.415 183.145 480.532 183.292C480.532 183.292 480.737 183.336 481.148 183.424C481.559 183.512 481.823 183.556 481.94 183.556C482.233 183.409 482.585 183.307 482.996 183.248C483.436 183.189 483.788 183.131 484.052 183.072C485.871 182.603 487.205 182.265 488.056 182.06C488.936 181.825 489.552 181.664 489.904 181.576C490.285 181.488 490.623 181.429 490.916 181.4C491.327 181.077 491.737 181.107 492.148 181.488C492.588 181.84 492.896 182.265 493.072 182.764C493.277 183.351 493.277 183.805 493.072 184.128C492.867 184.451 492.412 184.715 491.708 184.92C491.033 185.125 490.065 185.375 488.804 185.668C487.543 185.932 485.959 186.328 484.052 186.856C482.439 187.325 481.133 187.604 480.136 187.692C479.139 187.78 478.669 187.531 478.728 186.944C478.523 186.827 478.288 186.944 478.024 187.296C477.789 187.619 477.569 188.073 477.364 188.66C477.159 189.247 476.968 189.877 476.792 190.552C476.645 191.227 476.557 191.857 476.528 192.444C476.499 193.031 476.543 193.485 476.66 193.808C476.895 194.483 477.261 195.069 477.76 195.568C478.288 196.037 479.051 196.419 480.048 196.712C480.635 196.741 481.207 196.785 481.764 196.844C482.321 196.903 482.952 196.785 483.656 196.492C485.387 196.199 486.589 195.891 487.264 195.568C487.939 195.245 488.349 195.025 488.496 194.908C488.731 194.791 488.877 194.673 488.936 194.556C489.024 194.439 489.141 194.38 489.288 194.38C489.2 194.527 489.229 194.527 489.376 194.38C489.523 194.233 489.757 194.028 490.08 193.764C490.696 193.236 491.312 192.913 491.928 192.796C492.544 192.679 493.057 192.679 493.468 192.796C493.879 192.884 494.099 193.001 494.128 193.148C494.304 193.441 494.216 193.911 493.864 194.556C493.512 195.172 492.969 195.832 492.236 196.536C491.532 197.24 490.696 197.871 489.728 198.428C488.173 199.249 486.487 199.821 484.668 200.144C482.849 200.496 481.221 200.687 479.784 200.716ZM501 200.32C500.619 200.173 500.311 199.939 500.076 199.616C499.841 199.323 499.709 198.883 499.68 198.296C499.651 197.915 499.665 197.357 499.724 196.624C499.783 195.861 499.885 195.099 500.032 194.336C500.032 194.277 500.032 194.219 500.032 194.16C500.061 194.072 500.076 194.013 500.076 193.984C500.105 193.867 500.135 193.691 500.164 193.456C500.193 193.192 500.223 192.987 500.252 192.84C500.311 192.664 500.34 192.649 500.34 192.796L500.604 191.608C500.721 191.08 500.853 190.537 501 189.98C501.147 189.423 501.279 188.939 501.396 188.528C501.543 188.088 501.631 187.839 501.66 187.78C501.66 187.78 501.704 187.619 501.792 187.296C501.909 186.944 502.027 186.592 502.144 186.24C502.613 184.773 503.053 183.556 503.464 182.588C503.904 181.62 504.285 180.916 504.608 180.476C504.637 180.388 504.681 180.285 504.74 180.168C504.799 180.021 504.843 179.904 504.872 179.816C504.872 179.493 504.887 179.259 504.916 179.112C504.975 178.965 505.048 178.833 505.136 178.716C505.195 178.599 505.283 178.452 505.4 178.276C505.517 178.071 505.649 177.821 505.796 177.528L505.972 177.044C506.148 176.663 506.368 176.223 506.632 175.724C506.896 175.196 507.087 174.8 507.204 174.536C507.292 174.272 507.468 173.964 507.732 173.612C507.996 173.231 508.289 172.981 508.612 172.864L508.568 172.82C508.715 172.556 508.993 172.351 509.404 172.204C509.815 172.028 510.152 171.94 510.416 171.94C510.827 171.94 511.135 172.057 511.34 172.292C511.575 172.527 511.692 172.849 511.692 173.26C511.692 173.7 511.677 174.023 511.648 174.228C511.648 174.404 511.545 174.609 511.34 174.844H511.384C511.443 174.785 511.428 174.873 511.34 175.108C511.252 175.343 511.179 175.504 511.12 175.592C511.061 175.739 510.988 175.9 510.9 176.076C510.841 176.252 510.768 176.384 510.68 176.472C510.592 176.589 510.357 177 509.976 177.704C509.595 178.379 509.169 179.185 508.7 180.124C508.231 181.033 507.776 181.928 507.336 182.808C506.925 183.659 506.632 184.319 506.456 184.788L506.236 185.448C506.207 185.565 506.192 185.653 506.192 185.712C506.104 185.917 506.016 186.123 505.928 186.328C505.84 186.533 505.752 186.709 505.664 186.856L504.96 189.584L504.784 190.508L504.388 191.52L504.124 192.356C504.065 192.532 504.021 192.723 503.992 192.928C503.963 193.133 503.904 193.28 503.816 193.368C503.816 193.397 503.801 193.441 503.772 193.5C503.772 193.529 503.772 193.559 503.772 193.588C503.655 194.057 503.449 194.717 503.156 195.568C502.892 196.419 502.731 197.357 502.672 198.384C502.672 198.413 502.657 198.443 502.628 198.472C502.628 198.501 502.628 198.531 502.628 198.56C502.54 199.176 502.349 199.645 502.056 199.968C501.792 200.32 501.44 200.437 501 200.32ZM514.98 198.604C513.836 198.135 513.044 197.372 512.604 196.316C512.164 195.26 512.047 193.852 512.252 192.092C512.311 191.183 512.282 190.581 512.164 190.288C512.047 189.965 511.827 189.657 511.504 189.364C511.416 189.247 511.211 189.056 510.888 188.792C510.566 188.499 510.419 188.279 510.448 188.132C510.419 187.927 510.463 187.677 510.58 187.384C510.698 187.061 510.8 186.885 510.888 186.856C511.094 186.768 511.299 186.665 511.504 186.548C511.739 186.431 511.915 186.401 512.032 186.46C512.15 186.46 512.326 186.533 512.56 186.68C512.824 186.827 512.956 186.959 512.956 187.076C513.074 187.281 513.25 187.193 513.484 186.812C513.748 186.431 514.027 185.947 514.32 185.36C514.614 184.891 514.98 184.451 515.42 184.04C515.86 183.629 516.3 183.263 516.74 182.94C517.21 182.588 517.606 182.324 517.928 182.148C518.075 182.089 518.354 182.001 518.764 181.884C519.204 181.767 519.659 181.679 520.128 181.62C520.598 181.532 520.95 181.503 521.184 181.532C521.712 181.561 522.27 181.781 522.856 182.192C523.443 182.603 523.898 182.984 524.22 183.336C524.602 183.6 524.851 184.011 524.968 184.568C525.115 185.096 525.174 185.653 525.144 186.24C525.115 186.827 524.998 187.325 524.792 187.736C524.704 188.029 524.396 188.44 523.868 188.968C523.34 189.496 522.754 190.009 522.108 190.508C521.492 190.977 520.964 191.3 520.524 191.476C520.143 191.564 519.688 191.637 519.16 191.696C518.632 191.725 518.134 191.725 517.664 191.696C517.224 191.637 516.916 191.564 516.74 191.476C516.535 191.359 516.359 191.403 516.212 191.608C516.095 191.784 515.992 192.283 515.904 193.104C515.875 193.427 515.875 193.705 515.904 193.94C515.963 194.175 516.022 194.351 516.08 194.468C516.286 194.82 516.491 195.084 516.696 195.26C516.902 195.407 517.283 195.451 517.84 195.392C518.398 195.333 518.955 194.996 519.512 194.38C520.099 193.735 520.627 193.221 521.096 192.84C521.214 192.635 521.463 192.503 521.844 192.444C522.255 192.356 522.739 192.385 523.296 192.532C523.619 192.737 523.766 193.06 523.736 193.5C523.736 193.94 523.502 194.585 523.032 195.436C522.944 195.641 522.695 195.949 522.284 196.36C521.903 196.741 521.478 197.137 521.008 197.548C520.568 197.929 520.202 198.208 519.908 198.384C519.028 198.853 518.163 199.073 517.312 199.044C516.462 199.015 515.684 198.868 514.98 198.604ZM518.236 188.704C518.676 188.587 519.043 188.469 519.336 188.352C519.659 188.235 519.967 188.044 520.26 187.78C520.554 187.516 520.891 187.12 521.272 186.592C521.39 186.269 521.448 185.991 521.448 185.756C521.478 185.521 521.463 185.375 521.404 185.316C521.17 185.081 520.906 185.008 520.612 185.096C520.348 185.155 520.055 185.301 519.732 185.536C519.527 185.624 519.234 185.815 518.852 186.108C518.5 186.372 518.148 186.68 517.796 187.032C517.474 187.355 517.21 187.663 517.004 187.956C516.828 188.22 516.799 188.381 516.916 188.44C516.858 188.557 517.019 188.631 517.4 188.66C517.811 188.689 518.09 188.704 518.236 188.704ZM535.572 199.176C534.721 199.323 533.87 199.249 533.02 198.956C532.198 198.663 531.509 198.193 530.952 197.548C530.424 196.873 530.16 196.067 530.16 195.128C530.072 194.248 530.145 193.207 530.38 192.004C530.644 190.772 531.025 189.54 531.524 188.308C532.052 187.076 532.653 186.035 533.328 185.184C533.914 184.48 534.501 183.835 535.088 183.248C535.674 182.661 536.202 182.265 536.672 182.06C537.082 181.884 537.581 181.752 538.168 181.664C538.784 181.547 539.209 181.488 539.444 181.488C539.913 181.605 540.426 181.796 540.984 182.06C541.57 182.324 541.864 182.632 541.864 182.984C541.864 182.984 541.893 183.028 541.952 183.116C542.04 183.175 542.084 183.204 542.084 183.204C542.26 183.204 542.45 183.424 542.656 183.864C542.89 184.275 543.066 184.759 543.184 185.316C543.301 185.844 543.272 186.269 543.096 186.592C542.978 187.149 542.744 187.692 542.392 188.22C542.069 188.748 541.79 189.012 541.556 189.012C541.438 189.012 541.321 189.027 541.204 189.056C541.116 189.056 541.072 189.129 541.072 189.276C541.072 189.423 540.91 189.496 540.588 189.496C540.294 189.496 539.986 189.437 539.664 189.32C539.341 189.203 539.136 189.027 539.048 188.792C539.048 188.645 539.077 188.455 539.136 188.22C539.194 187.985 539.282 187.589 539.4 187.032C539.576 186.211 539.59 185.668 539.444 185.404C539.297 185.111 538.93 185.081 538.344 185.316C537.61 185.727 537.009 186.211 536.54 186.768C536.07 187.296 535.645 188.044 535.264 189.012C534.912 189.98 534.516 191.329 534.076 193.06C533.9 193.735 533.87 194.263 533.988 194.644C534.134 195.025 534.252 195.231 534.34 195.26C534.75 195.377 535.19 195.407 535.66 195.348C536.158 195.26 536.569 195.128 536.892 194.952C537.361 194.717 537.772 194.468 538.124 194.204C538.505 193.911 538.916 193.603 539.356 193.28C539.502 193.192 539.634 193.031 539.752 192.796C539.869 192.532 540.045 192.341 540.28 192.224C540.514 191.872 540.808 191.696 541.16 191.696C541.541 191.667 541.908 191.652 542.26 191.652C542.494 191.711 542.744 191.857 543.008 192.092C543.272 192.327 543.462 192.561 543.58 192.796C543.726 193.001 543.712 193.148 543.536 193.236C543.418 193.236 543.345 193.28 543.316 193.368C543.316 193.427 543.316 193.456 543.316 193.456C543.374 193.573 543.242 193.837 542.92 194.248C542.626 194.659 542.245 195.099 541.776 195.568C541.306 196.037 540.852 196.448 540.412 196.8C540.001 197.123 539.708 197.284 539.532 197.284C539.238 197.284 539.092 197.372 539.092 197.548C539.092 197.607 538.872 197.753 538.432 197.988C538.021 198.223 537.537 198.457 536.98 198.692C536.452 198.927 535.982 199.088 535.572 199.176ZM555.515 199.264C555.104 199.147 554.694 198.941 554.283 198.648C553.872 198.355 553.447 198.017 553.007 197.636C552.655 197.167 552.406 196.741 552.259 196.36C552.112 195.949 552.024 195.48 551.995 194.952C551.995 194.395 551.995 193.691 551.995 192.84C551.995 192.488 552.054 191.989 552.171 191.344C552.318 190.699 552.464 190.024 552.611 189.32C552.787 188.616 552.948 188 553.095 187.472C553.242 186.915 553.33 186.548 553.359 186.372C553.447 185.991 553.3 185.771 552.919 185.712C552.538 185.653 552.112 185.639 551.643 185.668C551.203 185.668 550.91 185.624 550.763 185.536C550.646 185.507 550.587 185.36 550.587 185.096C550.587 184.803 550.587 184.656 550.587 184.656C550.587 184.539 550.528 184.465 550.411 184.436C550.294 184.377 550.191 184.275 550.103 184.128C550.044 184.011 550.118 183.791 550.323 183.468C550.528 183.145 550.792 182.955 551.115 182.896C551.379 182.837 551.775 182.793 552.303 182.764C552.831 182.705 553.359 182.603 553.887 182.456C554.444 182.28 554.87 182.016 555.163 181.664C555.427 181.019 555.72 180.329 556.043 179.596C556.366 178.833 556.674 178.173 556.967 177.616C557.26 177.029 557.466 176.663 557.583 176.516C558.082 176.252 558.595 176.149 559.123 176.208C559.651 176.237 560.062 176.487 560.355 176.956C560.502 177.161 560.619 177.308 560.707 177.396C560.824 177.484 560.868 177.616 560.839 177.792C560.839 177.968 560.722 178.291 560.487 178.76C560.282 179.2 559.93 179.889 559.431 180.828C559.284 181.121 559.152 181.385 559.035 181.62C558.918 181.825 558.859 181.928 558.859 181.928C558.976 181.957 559.152 181.972 559.387 181.972C559.622 181.972 559.915 181.957 560.267 181.928C560.59 181.869 560.942 181.825 561.323 181.796C561.704 181.737 562.042 181.737 562.335 181.796C563.01 181.796 563.508 181.987 563.831 182.368C564.154 182.749 564.33 183.233 564.359 183.82C564.418 184.143 564.3 184.421 564.007 184.656C563.714 184.891 563.171 185.008 562.379 185.008C562.115 185.008 561.734 185.023 561.235 185.052C560.736 185.081 560.223 185.111 559.695 185.14C559.167 185.169 558.712 185.213 558.331 185.272C557.979 185.301 557.803 185.345 557.803 185.404C557.715 185.463 557.568 185.697 557.363 186.108C557.187 186.489 556.996 186.959 556.791 187.516C556.615 188.073 556.454 188.601 556.307 189.1C556.102 190.097 555.955 191.065 555.867 192.004C555.779 192.943 555.764 193.764 555.823 194.468C555.911 195.143 556.087 195.627 556.351 195.92C556.615 196.184 557.011 196.184 557.539 195.92C558.096 195.627 558.61 195.289 559.079 194.908C559.607 194.468 560.062 194.336 560.443 194.512C560.824 194.659 561.059 194.981 561.147 195.48C561.264 195.949 561.132 196.463 560.751 197.02C560.399 197.577 559.9 198.047 559.255 198.428C558.61 198.809 557.95 199.073 557.275 199.22C556.6 199.396 556.014 199.411 555.515 199.264ZM569.201 198.34C568.996 198.34 568.717 198.193 568.365 197.9C568.043 197.607 567.852 197.343 567.793 197.108C567.705 196.873 567.705 196.536 567.793 196.096C567.911 195.627 568.072 195.084 568.277 194.468C568.512 193.5 568.673 192.796 568.761 192.356C568.849 191.916 568.937 191.535 569.025 191.212C569.113 190.889 569.231 190.42 569.377 189.804C569.553 189.423 569.685 189.056 569.773 188.704C569.891 188.323 570.008 187.941 570.125 187.56C570.272 187.179 570.433 186.797 570.609 186.416C570.815 185.653 571.064 184.935 571.357 184.26C571.68 183.556 571.988 182.969 572.281 182.5C572.34 182.412 572.472 182.251 572.677 182.016C572.883 181.781 573.044 181.664 573.161 181.664C573.396 181.429 573.719 181.356 574.129 181.444C574.54 181.503 574.892 181.649 575.185 181.884C575.537 182.265 575.728 182.72 575.757 183.248C575.816 183.747 575.611 184.451 575.141 185.36C574.789 186.269 574.452 186.988 574.129 187.516C573.836 188.015 573.543 188.601 573.249 189.276C573.572 188.807 573.968 188.323 574.437 187.824C574.907 187.325 575.273 186.929 575.537 186.636C575.919 186.225 576.271 185.903 576.593 185.668C576.945 185.404 577.415 185.081 578.001 184.7C578.5 184.348 578.999 184.025 579.497 183.732C580.025 183.439 580.656 183.351 581.389 183.468C581.683 183.439 581.991 183.585 582.313 183.908C582.665 184.231 582.929 184.656 583.105 185.184C583.311 185.683 583.311 186.225 583.105 186.812C582.431 186.665 581.829 186.695 581.301 186.9C580.773 187.076 580.319 187.296 579.937 187.56C579.585 187.824 579.307 188.029 579.101 188.176C578.808 188.352 578.471 188.587 578.089 188.88C577.708 189.144 577.297 189.452 576.857 189.804C576.417 190.127 575.948 190.493 575.449 190.904C574.745 191.491 574.217 192.004 573.865 192.444C573.513 192.884 573.235 193.353 573.029 193.852C572.853 194.292 572.633 194.82 572.369 195.436C572.105 196.052 571.856 196.609 571.621 197.108C571.387 197.577 571.196 197.871 571.049 197.988C570.903 198.281 570.595 198.443 570.125 198.472C569.685 198.501 569.377 198.457 569.201 198.34ZM587.389 198.252C587.154 198.017 586.978 197.665 586.861 197.196C586.773 196.727 586.743 196.272 586.773 195.832C586.802 195.363 586.875 195.011 586.993 194.776C586.993 194.541 587.022 194.365 587.081 194.248C587.169 194.101 587.198 193.969 587.169 193.852C587.139 193.735 587.169 193.529 587.257 193.236C587.345 192.943 587.433 192.664 587.521 192.4C587.726 191.931 587.961 191.329 588.225 190.596C588.489 189.833 588.753 189.071 589.017 188.308C589.281 187.516 589.501 186.841 589.677 186.284C589.853 185.697 589.955 185.345 589.985 185.228C589.985 184.876 590.219 184.685 590.689 184.656C591.041 184.539 591.466 184.685 591.965 185.096C592.463 185.507 592.859 185.947 593.153 186.416C593.387 186.651 593.475 186.959 593.417 187.34C593.358 187.721 593.167 188.264 592.845 188.968C592.727 189.203 592.581 189.599 592.405 190.156C592.258 190.684 592.155 191.124 592.097 191.476C591.979 191.711 591.833 192.048 591.657 192.488C591.51 192.899 591.378 193.295 591.261 193.676C591.202 193.823 591.143 194.101 591.085 194.512C591.026 194.893 590.953 195.289 590.865 195.7C590.777 196.111 590.659 196.433 590.513 196.668C590.249 197.871 589.779 198.575 589.105 198.78C588.459 198.985 587.887 198.809 587.389 198.252ZM592.141 180.608C591.818 180.373 591.569 180.095 591.393 179.772C591.246 179.42 591.158 179.112 591.129 178.848C591.129 178.584 591.158 178.423 591.217 178.364C591.51 178.041 591.759 177.616 591.965 177.088C592.199 176.56 592.449 176.076 592.713 175.636C592.771 175.548 592.845 175.431 592.933 175.284C593.05 175.108 593.167 175.005 593.285 174.976C593.637 174.741 594.121 174.756 594.737 175.02C595.382 175.284 595.851 175.651 596.145 176.12C596.409 176.677 596.482 177.249 596.365 177.836C596.277 178.423 595.969 179.039 595.441 179.684C595.001 180.271 594.443 180.652 593.769 180.828C593.094 180.975 592.551 180.901 592.141 180.608ZM604.738 199.176C603.887 199.323 603.036 199.249 602.186 198.956C601.364 198.663 600.675 198.193 600.118 197.548C599.59 196.873 599.326 196.067 599.326 195.128C599.238 194.248 599.311 193.207 599.546 192.004C599.81 190.772 600.191 189.54 600.69 188.308C601.218 187.076 601.819 186.035 602.494 185.184C603.08 184.48 603.667 183.835 604.254 183.248C604.84 182.661 605.368 182.265 605.838 182.06C606.248 181.884 606.747 181.752 607.334 181.664C607.95 181.547 608.375 181.488 608.61 181.488C609.079 181.605 609.592 181.796 610.15 182.06C610.736 182.324 611.03 182.632 611.03 182.984C611.03 182.984 611.059 183.028 611.118 183.116C611.206 183.175 611.25 183.204 611.25 183.204C611.426 183.204 611.616 183.424 611.822 183.864C612.056 184.275 612.232 184.759 612.35 185.316C612.467 185.844 612.438 186.269 612.262 186.592C612.144 187.149 611.91 187.692 611.558 188.22C611.235 188.748 610.956 189.012 610.722 189.012C610.604 189.012 610.487 189.027 610.37 189.056C610.282 189.056 610.238 189.129 610.238 189.276C610.238 189.423 610.076 189.496 609.754 189.496C609.46 189.496 609.152 189.437 608.83 189.32C608.507 189.203 608.302 189.027 608.214 188.792C608.214 188.645 608.243 188.455 608.302 188.22C608.36 187.985 608.448 187.589 608.566 187.032C608.742 186.211 608.756 185.668 608.61 185.404C608.463 185.111 608.096 185.081 607.51 185.316C606.776 185.727 606.175 186.211 605.706 186.768C605.236 187.296 604.811 188.044 604.43 189.012C604.078 189.98 603.682 191.329 603.242 193.06C603.066 193.735 603.036 194.263 603.154 194.644C603.3 195.025 603.418 195.231 603.506 195.26C603.916 195.377 604.356 195.407 604.826 195.348C605.324 195.26 605.735 195.128 606.058 194.952C606.527 194.717 606.938 194.468 607.29 194.204C607.671 193.911 608.082 193.603 608.522 193.28C608.668 193.192 608.8 193.031 608.918 192.796C609.035 192.532 609.211 192.341 609.446 192.224C609.68 191.872 609.974 191.696 610.326 191.696C610.707 191.667 611.074 191.652 611.426 191.652C611.66 191.711 611.91 191.857 612.174 192.092C612.438 192.327 612.628 192.561 612.746 192.796C612.892 193.001 612.878 193.148 612.702 193.236C612.584 193.236 612.511 193.28 612.482 193.368C612.482 193.427 612.482 193.456 612.482 193.456C612.54 193.573 612.408 193.837 612.086 194.248C611.792 194.659 611.411 195.099 610.942 195.568C610.472 196.037 610.018 196.448 609.578 196.8C609.167 197.123 608.874 197.284 608.698 197.284C608.404 197.284 608.258 197.372 608.258 197.548C608.258 197.607 608.038 197.753 607.598 197.988C607.187 198.223 606.703 198.457 606.146 198.692C605.618 198.927 605.148 199.088 604.738 199.176ZM622.877 198.384C622.642 198.443 622.334 198.472 621.953 198.472C621.572 198.443 621.234 198.399 620.941 198.34C620.677 198.252 620.545 198.164 620.545 198.076C620.545 197.929 620.472 197.856 620.325 197.856C620.325 197.856 620.164 197.739 619.841 197.504C619.518 197.24 619.225 197.049 618.961 196.932C618.697 196.521 618.521 196.052 618.433 195.524C618.374 194.967 618.55 193.999 618.961 192.62C618.99 191.681 619.254 190.699 619.753 189.672C620.252 188.616 620.882 187.589 621.645 186.592C622.408 185.595 623.2 184.715 624.021 183.952C624.842 183.16 625.576 182.573 626.221 182.192C626.632 181.781 627.174 181.561 627.849 181.532C628.553 181.503 629.169 181.635 629.697 181.928C629.99 182.075 630.313 182.368 630.665 182.808C631.017 183.248 631.354 183.717 631.677 184.216C632 184.685 632.249 185.111 632.425 185.492C632.513 185.815 632.586 186.108 632.645 186.372C632.733 186.607 632.792 186.9 632.821 187.252C632.85 187.604 632.821 188.132 632.733 188.836C632.586 189.364 632.454 189.907 632.337 190.464C632.249 190.992 632.205 191.535 632.205 192.092C632.146 192.649 632.205 193.045 632.381 193.28C632.586 193.515 632.88 193.529 633.261 193.324C633.613 193.148 633.98 193.133 634.361 193.28C634.742 193.397 635.006 193.632 635.153 193.984C635.329 194.307 635.285 194.732 635.021 195.26C634.845 195.641 634.566 196.008 634.185 196.36C633.804 196.712 633.378 197.005 632.909 197.24C632.44 197.445 631.985 197.548 631.545 197.548C631.222 197.548 630.9 197.431 630.577 197.196C630.254 196.932 629.961 196.58 629.697 196.14C629.433 195.7 629.213 195.216 629.037 194.688L628.773 193.676L627.189 195.128C626.808 195.539 626.426 195.92 626.045 196.272C625.693 196.595 625.473 196.829 625.385 196.976C625.238 197.24 624.945 197.475 624.505 197.68C624.094 197.885 623.552 198.12 622.877 198.384ZM624.065 194.16C624.564 193.867 624.989 193.515 625.341 193.104C625.722 192.693 626.089 192.239 626.441 191.74C626.793 191.212 627.174 190.655 627.585 190.068C628.084 189.393 628.436 188.851 628.641 188.44C628.876 188.029 629.052 187.589 629.169 187.12C629.052 186.797 628.89 186.46 628.685 186.108C628.48 185.727 628.274 185.521 628.069 185.492C627.658 185.492 627.16 185.741 626.573 186.24C626.016 186.739 625.4 187.457 624.725 188.396C624.608 188.543 624.461 188.777 624.285 189.1C624.109 189.423 623.933 189.731 623.757 190.024C623.61 190.288 623.508 190.464 623.449 190.552C623.361 190.669 623.229 190.948 623.053 191.388C622.906 191.799 622.774 192.224 622.657 192.664C622.54 193.075 622.481 193.368 622.481 193.544C622.481 193.72 622.496 193.911 622.525 194.116C622.584 194.321 622.73 194.453 622.965 194.512C623.2 194.571 623.566 194.453 624.065 194.16ZM641.672 197.944C641.378 197.768 641.056 197.519 640.704 197.196C640.352 196.844 640.176 196.507 640.176 196.184C640.176 195.744 640.234 195.201 640.352 194.556C640.469 193.881 640.586 193.309 640.704 192.84C640.762 192.312 640.836 191.784 640.924 191.256C641.041 190.699 641.246 190.185 641.54 189.716C641.862 188.601 642.2 187.501 642.552 186.416C642.904 185.301 643.212 184.157 643.476 182.984C643.857 181.899 644.194 180.945 644.488 180.124C644.81 179.273 645.206 178.203 645.676 176.912C645.94 176.179 646.16 175.401 646.336 174.58C646.541 173.729 646.849 172.967 647.26 172.292C647.436 172.028 647.568 171.808 647.656 171.632C647.773 171.427 647.89 171.236 648.008 171.06C648.037 170.943 648.184 170.84 648.448 170.752C648.741 170.664 649.034 170.62 649.328 170.62C649.65 170.591 649.87 170.649 649.988 170.796C650.076 170.767 650.222 170.884 650.428 171.148C650.633 171.383 650.824 171.661 651 171.984C651.205 172.277 651.293 172.512 651.264 172.688C651.264 172.805 651.234 172.967 651.176 173.172C651.146 173.377 651.073 173.568 650.956 173.744C650.838 173.861 650.721 174.037 650.604 174.272C650.516 174.477 650.369 174.771 650.164 175.152C650.046 175.533 649.944 175.929 649.856 176.34C649.768 176.721 649.65 177.073 649.504 177.396C649.386 177.748 649.24 178.085 649.064 178.408C648.917 178.731 648.814 178.995 648.756 179.2C648.55 179.875 648.301 180.535 648.008 181.18C647.744 181.825 647.509 182.515 647.304 183.248C647.098 183.952 646.893 184.685 646.688 185.448C646.482 186.181 646.189 186.885 645.808 187.56C645.602 187.883 645.456 188.293 645.368 188.792C645.28 189.291 645.192 189.789 645.104 190.288C644.928 190.816 644.766 191.315 644.62 191.784C644.502 192.224 644.444 192.503 644.444 192.62C644.268 193.265 644.136 193.911 644.048 194.556C643.989 195.172 643.842 195.715 643.608 196.184C643.578 196.477 643.476 196.8 643.3 197.152C643.124 197.504 642.889 197.768 642.596 197.944C642.332 198.12 642.024 198.12 641.672 197.944ZM672.16 200.716C671.251 200.657 670.342 200.32 669.432 199.704C668.523 199.117 667.687 198.56 666.924 198.032C666.426 197.533 666.044 197.005 665.78 196.448C665.516 195.861 665.296 195.099 665.12 194.16C665.003 193.603 665.003 192.869 665.12 191.96C665.238 191.051 665.428 190.141 665.692 189.232C665.956 188.293 666.206 187.56 666.44 187.032C666.792 186.211 667.232 185.331 667.76 184.392C668.318 183.424 668.86 182.515 669.388 181.664C669.946 180.784 670.386 180.08 670.708 179.552C670.914 179.347 671.002 179.244 670.972 179.244C670.972 179.215 670.972 179.2 670.972 179.2C670.972 179.053 671.119 178.687 671.412 178.1C671.735 177.484 672.014 176.941 672.248 176.472C672.688 176.003 672.938 175.621 672.996 175.328C673.055 175.035 673.011 174.8 672.864 174.624C672.806 174.507 672.923 174.257 673.216 173.876C673.539 173.495 673.979 173.069 674.536 172.6C675.094 172.101 675.71 171.661 676.384 171.28C677.088 170.723 677.763 170.429 678.408 170.4C679.083 170.341 679.479 170.473 679.596 170.796C679.596 170.884 679.758 170.913 680.08 170.884C680.432 170.825 680.828 170.752 681.268 170.664C681.738 170.547 682.148 170.459 682.5 170.4C682.647 170.224 682.984 170.092 683.512 170.004C684.07 169.887 684.715 169.784 685.448 169.696C685.83 169.725 686.255 169.74 686.724 169.74C687.194 169.711 687.604 169.681 687.956 169.652C688.338 169.623 688.528 169.608 688.528 169.608C688.734 169.549 689.027 169.681 689.408 170.004C689.819 170.297 690.142 170.708 690.376 171.236C690.582 171.764 690.406 172.219 689.848 172.6C689.291 172.981 688.411 173.245 687.208 173.392C686.328 173.509 685.639 173.612 685.14 173.7C684.671 173.759 684.158 173.847 683.6 173.964C683.072 174.052 682.295 174.213 681.268 174.448C680.535 174.595 679.919 174.712 679.42 174.8C678.922 174.888 678.482 175.064 678.1 175.328C677.748 175.592 677.352 176.061 676.912 176.736C676.707 176.883 676.443 177.264 676.12 177.88C675.798 178.496 675.475 179.112 675.152 179.728C674.331 180.872 673.715 181.723 673.304 182.28C672.923 182.808 672.791 183.145 672.908 183.292C672.908 183.292 673.114 183.336 673.524 183.424C673.935 183.512 674.199 183.556 674.316 183.556C674.61 183.409 674.962 183.307 675.372 183.248C675.812 183.189 676.164 183.131 676.428 183.072C678.247 182.603 679.582 182.265 680.432 182.06C681.312 181.825 681.928 181.664 682.28 181.576C682.662 181.488 682.999 181.429 683.292 181.4C683.703 181.077 684.114 181.107 684.524 181.488C684.964 181.84 685.272 182.265 685.448 182.764C685.654 183.351 685.654 183.805 685.448 184.128C685.243 184.451 684.788 184.715 684.084 184.92C683.41 185.125 682.442 185.375 681.18 185.668C679.919 185.932 678.335 186.328 676.428 186.856C674.815 187.325 673.51 187.604 672.512 187.692C671.515 187.78 671.046 187.531 671.104 186.944C670.899 186.827 670.664 186.944 670.4 187.296C670.166 187.619 669.946 188.073 669.74 188.66C669.535 189.247 669.344 189.877 669.168 190.552C669.022 191.227 668.934 191.857 668.904 192.444C668.875 193.031 668.919 193.485 669.036 193.808C669.271 194.483 669.638 195.069 670.136 195.568C670.664 196.037 671.427 196.419 672.424 196.712C673.011 196.741 673.583 196.785 674.14 196.844C674.698 196.903 675.328 196.785 676.032 196.492C677.763 196.199 678.966 195.891 679.64 195.568C680.315 195.245 680.726 195.025 680.872 194.908C681.107 194.791 681.254 194.673 681.312 194.556C681.4 194.439 681.518 194.38 681.664 194.38C681.576 194.527 681.606 194.527 681.752 194.38C681.899 194.233 682.134 194.028 682.456 193.764C683.072 193.236 683.688 192.913 684.304 192.796C684.92 192.679 685.434 192.679 685.844 192.796C686.255 192.884 686.475 193.001 686.504 193.148C686.68 193.441 686.592 193.911 686.24 194.556C685.888 195.172 685.346 195.832 684.612 196.536C683.908 197.24 683.072 197.871 682.104 198.428C680.55 199.249 678.863 199.821 677.044 200.144C675.226 200.496 673.598 200.687 672.16 200.716ZM695.356 197.504C695.239 197.504 694.96 197.401 694.52 197.196C694.08 196.961 693.802 196.785 693.684 196.668C693.479 196.433 693.347 196.184 693.288 195.92C693.23 195.627 693.2 195.069 693.2 194.248C693.2 193.309 693.391 192.253 693.772 191.08C694.154 189.877 694.799 188.279 695.708 186.284L697.512 182.632C697.659 182.427 697.791 182.251 697.908 182.104C698.026 181.928 698.158 181.767 698.304 181.62C698.363 181.62 698.436 181.62 698.524 181.62C698.642 181.62 698.73 181.635 698.788 181.664C699.052 181.693 699.463 181.855 700.02 182.148C700.607 182.441 700.959 182.881 701.076 183.468C701.076 183.849 701.018 184.304 700.9 184.832C700.783 185.331 700.431 185.991 699.844 186.812C699.61 187.105 699.375 187.531 699.14 188.088C698.935 188.645 698.744 189.173 698.568 189.672C698.539 189.731 698.451 189.877 698.304 190.112C698.187 190.317 698.07 190.537 697.952 190.772C697.835 190.977 697.776 191.109 697.776 191.168L697.6 191.564L699.492 189.716C700.812 188.396 701.927 187.457 702.836 186.9C703.746 186.343 704.508 186.108 705.124 186.196C705.77 186.284 706.283 186.651 706.664 187.296C706.87 187.589 707.016 187.912 707.104 188.264C707.192 188.587 707.251 188.968 707.28 189.408C707.31 189.848 707.295 190.405 707.236 191.08V193.588C707.794 193.441 708.219 193.324 708.512 193.236C708.806 193.119 709.099 193.016 709.392 192.928C709.627 192.869 709.862 192.811 710.096 192.752C710.36 192.693 710.683 192.649 711.064 192.62C711.035 193.001 710.874 193.471 710.58 194.028C710.287 194.585 709.92 195.143 709.48 195.7C709.07 196.257 708.615 196.727 708.116 197.108C707.647 197.489 707.207 197.68 706.796 197.68C706.415 197.68 705.975 197.563 705.476 197.328C704.978 197.064 704.552 196.565 704.2 195.832C704.083 195.451 703.966 195.011 703.848 194.512C703.731 194.013 703.672 193.485 703.672 192.928V190.992C703.672 190.816 703.658 190.699 703.628 190.64C703.628 190.552 703.614 190.508 703.584 190.508C703.467 190.508 703.086 190.816 702.44 191.432C701.824 192.048 701.194 192.693 700.548 193.368C699.199 194.776 698.07 195.817 697.16 196.492C696.28 197.167 695.679 197.504 695.356 197.504ZM719.732 198.604C718.588 198.135 717.796 197.372 717.356 196.316C716.916 195.26 716.798 193.852 717.004 192.092C717.062 191.183 717.033 190.581 716.916 190.288C716.798 189.965 716.578 189.657 716.256 189.364C716.168 189.247 715.962 189.056 715.64 188.792C715.317 188.499 715.17 188.279 715.2 188.132C715.17 187.927 715.214 187.677 715.332 187.384C715.449 187.061 715.552 186.885 715.64 186.856C715.845 186.768 716.05 186.665 716.256 186.548C716.49 186.431 716.666 186.401 716.784 186.46C716.901 186.46 717.077 186.533 717.312 186.68C717.576 186.827 717.708 186.959 717.708 187.076C717.825 187.281 718.001 187.193 718.236 186.812C718.5 186.431 718.778 185.947 719.072 185.36C719.365 184.891 719.732 184.451 720.172 184.04C720.612 183.629 721.052 183.263 721.492 182.94C721.961 182.588 722.357 182.324 722.68 182.148C722.826 182.089 723.105 182.001 723.516 181.884C723.956 181.767 724.41 181.679 724.88 181.62C725.349 181.532 725.701 181.503 725.936 181.532C726.464 181.561 727.021 181.781 727.608 182.192C728.194 182.603 728.649 182.984 728.972 183.336C729.353 183.6 729.602 184.011 729.72 184.568C729.866 185.096 729.925 185.653 729.896 186.24C729.866 186.827 729.749 187.325 729.544 187.736C729.456 188.029 729.148 188.44 728.62 188.968C728.092 189.496 727.505 190.009 726.86 190.508C726.244 190.977 725.716 191.3 725.276 191.476C724.894 191.564 724.44 191.637 723.912 191.696C723.384 191.725 722.885 191.725 722.416 191.696C721.976 191.637 721.668 191.564 721.492 191.476C721.286 191.359 721.11 191.403 720.964 191.608C720.846 191.784 720.744 192.283 720.656 193.104C720.626 193.427 720.626 193.705 720.656 193.94C720.714 194.175 720.773 194.351 720.832 194.468C721.037 194.82 721.242 195.084 721.448 195.26C721.653 195.407 722.034 195.451 722.592 195.392C723.149 195.333 723.706 194.996 724.264 194.38C724.85 193.735 725.378 193.221 725.848 192.84C725.965 192.635 726.214 192.503 726.596 192.444C727.006 192.356 727.49 192.385 728.048 192.532C728.37 192.737 728.517 193.06 728.488 193.5C728.488 193.94 728.253 194.585 727.784 195.436C727.696 195.641 727.446 195.949 727.036 196.36C726.654 196.741 726.229 197.137 725.76 197.548C725.32 197.929 724.953 198.208 724.66 198.384C723.78 198.853 722.914 199.073 722.064 199.044C721.213 199.015 720.436 198.868 719.732 198.604ZM722.988 188.704C723.428 188.587 723.794 188.469 724.088 188.352C724.41 188.235 724.718 188.044 725.012 187.78C725.305 187.516 725.642 187.12 726.024 186.592C726.141 186.269 726.2 185.991 726.2 185.756C726.229 185.521 726.214 185.375 726.156 185.316C725.921 185.081 725.657 185.008 725.364 185.096C725.1 185.155 724.806 185.301 724.484 185.536C724.278 185.624 723.985 185.815 723.604 186.108C723.252 186.372 722.9 186.68 722.548 187.032C722.225 187.355 721.961 187.663 721.756 187.956C721.58 188.22 721.55 188.381 721.668 188.44C721.609 188.557 721.77 188.631 722.152 188.66C722.562 188.689 722.841 188.704 722.988 188.704ZM735.835 197.812C735.571 197.607 735.278 197.343 734.955 197.02C734.662 196.697 734.559 196.243 734.647 195.656C734.735 194.835 734.852 194.116 734.999 193.5C735.146 192.855 735.322 192.121 735.527 191.3C735.586 190.948 735.732 190.347 735.967 189.496C736.231 188.645 736.539 187.721 736.891 186.724C737.243 185.727 737.61 184.788 737.991 183.908C738.372 182.999 738.71 182.324 739.003 181.884C739.326 181.591 739.795 181.444 740.411 181.444C741.056 181.444 741.496 181.561 741.731 181.796C742.054 182.06 742.156 182.529 742.039 183.204C741.922 183.849 741.511 184.861 740.807 186.24C740.66 186.592 740.47 186.973 740.235 187.384C740.03 187.765 739.883 188.088 739.795 188.352C739.707 188.587 739.736 188.689 739.883 188.66C740.059 188.337 740.382 187.971 740.851 187.56C741.32 187.12 741.819 186.695 742.347 186.284C742.875 185.873 743.374 185.507 743.843 185.184C744.312 184.861 744.635 184.656 744.811 184.568C745.046 184.421 745.31 184.304 745.603 184.216C745.926 184.099 746.146 184.011 746.263 183.952C746.938 183.629 747.671 183.512 748.463 183.6C749.284 183.659 749.783 183.908 749.959 184.348C749.988 184.583 750.076 184.759 750.223 184.876C750.399 184.993 750.487 185.052 750.487 185.052C750.604 185.052 750.663 185.096 750.663 185.184C750.692 185.272 750.707 185.316 750.707 185.316C750.707 185.521 750.502 185.815 750.091 186.196C749.71 186.577 749.284 186.783 748.815 186.812C748.434 186.841 748.096 186.915 747.803 187.032C747.51 187.149 747.158 187.296 746.747 187.472C745.632 188.117 744.62 188.689 743.711 189.188C742.831 189.687 741.922 190.449 740.983 191.476C740.778 191.711 740.558 191.931 740.323 192.136C740.088 192.341 739.854 192.635 739.619 193.016C739.472 193.163 739.326 193.485 739.179 193.984C739.032 194.483 738.9 194.967 738.783 195.436C738.695 195.876 738.651 196.14 738.651 196.228C738.651 196.228 738.607 196.375 738.519 196.668C738.431 196.932 738.284 197.196 738.079 197.46C737.727 197.929 737.375 198.223 737.023 198.34C736.7 198.457 736.304 198.281 735.835 197.812ZM758.246 207.536C757.924 207.565 757.425 207.492 756.75 207.316C756.076 207.169 755.416 206.876 754.77 206.436C753.978 205.761 753.436 205.204 753.142 204.764C752.849 204.324 752.688 203.928 752.658 203.576C752.658 203.253 752.673 202.96 752.702 202.696C752.849 202.051 753.157 201.743 753.626 201.772C754.125 201.801 754.506 201.933 754.77 202.168C755.064 202.403 755.372 202.681 755.694 203.004C756.046 203.356 756.384 203.664 756.706 203.928C757.058 204.192 757.352 204.309 757.586 204.28C758.173 204.221 758.657 203.972 759.038 203.532C759.42 203.121 759.801 202.461 760.182 201.552C760.417 200.907 760.593 200.349 760.71 199.88C760.857 199.411 761.004 198.897 761.15 198.34C761.297 197.783 761.473 197.035 761.678 196.096C761.825 195.421 761.928 194.952 761.986 194.688C762.074 194.395 762.118 194.219 762.118 194.16C762.118 194.072 762.104 194.028 762.074 194.028C762.074 194.028 761.972 194.087 761.766 194.204C761.561 194.321 761.268 194.453 760.886 194.6C760.534 194.747 760.138 194.893 759.698 195.04C758.877 195.304 758.056 195.539 757.234 195.744C756.413 195.92 755.782 195.935 755.342 195.788C754.902 195.612 754.55 195.319 754.286 194.908C754.022 194.497 753.846 194.057 753.758 193.588C753.7 193.119 753.685 192.737 753.714 192.444C753.773 192.209 753.905 191.828 754.11 191.3C754.316 190.772 754.55 190.215 754.814 189.628C755.078 189.041 755.328 188.528 755.562 188.088C755.797 187.648 755.988 187.413 756.134 187.384C756.252 187.325 756.354 187.208 756.442 187.032C756.56 186.827 756.618 186.665 756.618 186.548C756.648 186.431 756.765 186.24 756.97 185.976C757.205 185.712 757.865 185.199 758.95 184.436C760.036 183.409 761.018 182.647 761.898 182.148C762.778 181.62 763.585 181.327 764.318 181.268C764.524 181.297 764.714 181.312 764.89 181.312C765.096 181.312 765.198 181.312 765.198 181.312C765.198 181.312 765.36 181.356 765.682 181.444C766.005 181.532 766.328 181.649 766.65 181.796C767.032 181.943 767.442 182.295 767.882 182.852C768.322 183.38 768.704 183.967 769.026 184.612C769.349 185.257 769.525 185.844 769.554 186.372C769.525 187.017 769.378 187.663 769.114 188.308C768.85 188.953 768.601 189.261 768.366 189.232C768.132 189.203 767.868 189.291 767.574 189.496C767.31 189.672 767.105 190.024 766.958 190.552C766.87 190.669 766.768 190.86 766.65 191.124C766.533 191.359 766.401 191.593 766.254 191.828C766.225 191.975 766.152 192.341 766.034 192.928C765.917 193.485 765.77 194.116 765.594 194.82C765.448 195.495 765.316 196.125 765.198 196.712C765.081 197.269 765.008 197.636 764.978 197.812C764.949 197.929 764.876 198.208 764.758 198.648C764.641 199.059 764.494 199.528 764.318 200.056C764.172 200.584 764.01 201.068 763.834 201.508C763.717 202.359 763.482 203.092 763.13 203.708C762.778 204.353 762.397 204.925 761.986 205.424C761.312 206.157 760.637 206.671 759.962 206.964C759.317 207.287 758.745 207.477 758.246 207.536ZM757.41 192.136C757.498 192.371 757.733 192.459 758.114 192.4C758.525 192.341 759.082 192.209 759.786 192.004C760.637 191.652 761.268 191.373 761.678 191.168C762.118 190.963 762.456 190.699 762.69 190.376C762.866 190.141 763.028 189.907 763.174 189.672C763.35 189.437 763.512 189.232 763.658 189.056C763.717 188.997 763.805 188.895 763.922 188.748C764.069 188.601 764.186 188.469 764.274 188.352C764.45 188.235 764.597 188.132 764.714 188.044C764.861 187.927 764.993 187.824 765.11 187.736C765.257 187.677 765.389 187.545 765.506 187.34C765.624 187.105 765.653 186.871 765.594 186.636C765.565 186.431 765.433 186.152 765.198 185.8C764.964 185.419 764.641 185.125 764.23 184.92C763.849 184.685 763.394 184.847 762.866 185.404C762.368 185.961 761.561 186.709 760.446 187.648C759.801 188.352 759.229 189.012 758.73 189.628C758.232 190.215 757.865 190.728 757.63 191.168C757.396 191.579 757.322 191.901 757.41 192.136ZM776.386 209.472C776.268 209.501 776.092 209.457 775.858 209.34C775.652 209.223 775.476 209.017 775.33 208.724C775.183 208.431 775.139 208.049 775.198 207.58C775.08 207.169 775.095 206.656 775.242 206.04C775.418 205.453 775.784 204.573 776.342 203.4C776.635 202.931 776.899 202.373 777.134 201.728C777.398 201.083 777.691 200.437 778.014 199.792C778.16 199.528 778.41 199.073 778.762 198.428C779.143 197.783 779.554 197.02 779.994 196.14C780.463 195.231 780.888 194.292 781.27 193.324C780.507 194.116 779.847 194.864 779.29 195.568C778.762 196.243 778.278 196.785 777.838 197.196C777.427 197.577 776.987 197.753 776.518 197.724C776.136 197.636 775.682 197.387 775.154 196.976C774.626 196.565 774.288 196.111 774.142 195.612C774.024 194.967 773.98 194.145 774.01 193.148C774.068 192.151 774.259 190.64 774.582 188.616C774.816 187.619 774.919 186.856 774.89 186.328C774.89 185.771 774.816 185.36 774.67 185.096C774.523 184.832 774.332 184.597 774.098 184.392C773.716 184.04 773.687 183.659 774.01 183.248C774.332 182.837 774.699 182.529 775.11 182.324C775.726 182.177 776.21 182.148 776.562 182.236C776.943 182.295 777.324 182.544 777.706 182.984C777.94 183.365 778.175 183.776 778.41 184.216C778.644 184.656 778.762 185.287 778.762 186.108C778.762 186.46 778.747 186.856 778.718 187.296C778.688 187.707 778.659 188.088 778.63 188.44C778.6 188.792 778.571 189.071 778.542 189.276C778.248 190.361 777.984 191.3 777.75 192.092C777.515 192.884 777.471 193.28 777.618 193.28C778.204 192.811 778.703 192.356 779.114 191.916C779.554 191.476 780.023 190.948 780.522 190.332C781.02 189.716 781.636 188.909 782.37 187.912C782.634 187.413 782.898 186.929 783.162 186.46C783.426 185.991 783.646 185.507 783.822 185.008C783.998 184.627 784.232 184.231 784.526 183.82C784.819 183.38 785.024 183.145 785.142 183.116C785.288 183.057 785.494 183.072 785.758 183.16C786.022 183.248 786.271 183.351 786.506 183.468C786.77 183.556 786.902 183.629 786.902 183.688C786.931 183.717 787.078 183.747 787.342 183.776C787.606 183.805 787.87 183.835 788.134 183.864C788.398 183.864 788.53 183.908 788.53 183.996C788.53 184.055 788.442 184.275 788.266 184.656C788.119 185.037 787.943 185.463 787.738 185.932C787.532 186.401 787.342 186.827 787.166 187.208C787.019 187.56 786.96 187.765 786.99 187.824C787.048 187.883 787.004 188.103 786.858 188.484C786.711 188.836 786.535 189.232 786.33 189.672C786.154 190.112 785.992 190.508 785.846 190.86C785.552 191.828 785.215 192.796 784.834 193.764C784.452 194.703 783.998 195.641 783.47 196.58C783.294 196.932 783.03 197.475 782.678 198.208C782.355 198.941 782.032 199.66 781.71 200.364C781.416 201.097 781.182 201.655 781.006 202.036C780.888 202.271 780.712 202.637 780.478 203.136C780.272 203.664 780.038 204.236 779.774 204.852C779.539 205.468 779.304 206.04 779.07 206.568C778.835 207.125 778.659 207.551 778.542 207.844C778.483 208.401 778.351 208.812 778.146 209.076C777.882 209.34 777.515 209.472 777.046 209.472C776.606 209.472 776.386 209.472 776.386 209.472Z" fill="#B8C318"/>
</svg>
