<svg width="900" height="250" viewBox="0 0 900 250" fill="none" xmlns="http://www.w3.org/2000/svg">
<rect width="900" height="220" rx="60" fill="#FDFDFB"/>
<rect x="5.5" y="35.5" width="889" height="209" rx="54.5" fill="#FDFDFB" stroke="#B8C318" stroke-width="11"/>
<rect width="249" height="172" transform="translate(325 54)" fill="#FDFDFB"/>
<path d="M401.54 94.22H398.84C398.42 95.24 398 96.14 397.58 96.92H401.54V94.22ZM388.4 110.9H395.96C395.48 110 394.52 108.74 393.68 107.96C390.68 109.52 389.18 110.36 388.4 110.9ZM401.84 117.02V114.92H387.8V117.02H401.84ZM387.44 101.42H385.94C385.4 105.32 384.26 108.5 381.32 110.9H387.56C387.14 109.82 386.48 108.38 385.88 107.6C386.66 107.12 387.44 106.16 387.44 103.88V101.42ZM384.92 94.34H382.28C381.92 95.3 381.56 96.2 381.14 96.92H384.92V94.34ZM401.84 126.74H387.8V128.9H401.84V126.74ZM387.8 122.9H401.84V120.8H387.8V122.9ZM363.62 101.3H375.02C373.04 99.38 370.4 97.28 367.76 95.48C366.5 97.52 365.12 99.44 363.62 101.3ZM408.38 106.22H408.92C409.1 106.22 409.34 106.22 409.46 106.16C409.58 106.1 409.7 105.86 409.82 105.5C409.94 105.02 410 104.18 410.06 103.1C410.78 103.7 412.1 104.36 413.06 104.72C412.94 106.16 412.76 107.72 412.4 108.2C412.1 108.86 411.62 109.34 411.08 109.64C410.54 109.88 409.7 110.06 409.04 110.06H407.12C406.04 110.06 404.9 109.76 404.24 108.98C403.52 108.2 403.34 107.36 403.34 104.6V101.42H402.02C401.6 105.68 400.4 108.8 396.68 110.9H408.74V132.92H402.2C405.68 134.6 409.34 136.34 411.74 137.66L408.2 142.46C405.32 140.78 400.58 138.08 396.56 136.1L398.78 132.92H388.64L392.36 136.52C388.04 138.56 382.46 140.84 378.38 142.4C377.78 141.02 376.46 138.8 375.38 137.36C378.32 136.22 382.46 134.54 385.52 132.92H381.2V110.96C380.78 111.26 380.36 111.56 379.88 111.86C379.28 110.78 377.96 109.04 376.94 108.26C379.76 106.7 380.72 104.3 381.14 101.42H378.8V97.46L376.34 102.68C375.92 102.26 375.56 101.78 375.08 101.3V107.24H370.52V111.62H377V117.68H370.52V131.6C372.74 131.18 374.9 130.76 377.12 130.28L377.48 135.92C370.82 137.6 363.62 139.16 358.28 140.48L357.02 134.06C359.3 133.7 362.12 133.16 365.12 132.62V117.68H357.8V111.62H365.12V107.24H360.92V104.42C360.02 105.38 359.12 106.28 358.22 107.06C357.92 105.5 356.66 101.6 355.94 99.8C360.08 96.56 364.46 91.28 366.98 85.82L371.72 88.28C371.36 89 371.06 89.72 370.7 90.5C373.94 92.48 377.06 95 379.04 96.92H381.02C380.18 96.32 378.38 95.36 377.48 94.94C378.8 92.54 379.58 89.48 380 86.54L384.08 87.44C383.96 88.28 383.78 89.12 383.54 90.02H384.92V86.18H389.6V90.02H393.62V94.34H389.6V96.92H394.04V101.42H391.82V104.84L393.74 104.12C393.86 104.96 394.22 106.16 394.52 107C396.5 105.68 397.22 103.88 397.46 101.42H395.06V96.92H397.46C396.62 96.38 394.88 95.36 393.92 94.94C395.3 92.54 396.08 89.48 396.56 86.54L400.64 87.44C400.46 88.28 400.28 89.12 400.04 90.02H401.54V86.18H406.28V90.02H411.38V94.22H406.28V96.92H412.58V101.42H407.84V104.78C407.84 105.44 407.84 105.8 407.9 105.98C408.02 106.16 408.2 106.22 408.38 106.22ZM374.72 130.7L371 129.38C371.72 126.62 372.56 122.3 372.86 119.24L377.54 120.62C376.46 124.16 375.5 128.12 374.72 130.7ZM358.22 121.04L362.18 119.78C363.14 123.08 363.98 127.34 364.28 130.1L360.02 131.42C359.84 128.6 359.06 124.34 358.22 121.04ZM464.66 131.72V117.32H440.66V131.72H464.66ZM475.7 97.28H446.96C445.22 101.72 443.18 106.22 440.78 110.48H472.34V141.98H464.66V138.62H440.66V142.22H433.4V120.86C430.94 123.74 428.3 126.2 425.3 128.36C424.16 126.74 421.76 124.16 420.26 122.84C428.96 116.9 435.26 106.82 438.68 97.28H423.02V90.26H475.7V97.28ZM488.6 109.88C488.24 108.5 487.16 105.38 486.38 103.58C487.58 103.22 488.6 102.14 489.86 100.34C491.06 98.72 494.84 92.12 497 85.88L503.54 88.52C501.38 93.38 498.5 98.48 495.44 102.68L499.64 102.38C501.2 99.86 502.76 97.16 503.96 94.46L509.9 98.24C506.48 104.36 502.04 110.54 497.42 115.7L503.72 114.8C503.18 113.36 502.64 111.98 502.04 110.78L506.84 108.98C508.76 112.76 510.62 117.68 511.16 120.92L505.94 123.02C505.82 122.18 505.64 121.16 505.34 120.08C492.62 122.36 490.4 122.84 489.08 123.62C488.72 122.36 487.64 119.06 486.8 117.32C488.42 116.9 489.74 115.58 491.66 113.36C492.44 112.52 493.88 110.84 495.56 108.5C490.88 109.04 489.5 109.4 488.6 109.88ZM488.78 125.6L494.3 126.5C493.88 131.78 492.92 137.48 491.66 141.14C490.46 140.48 487.82 139.64 486.32 139.28C487.76 135.74 488.42 130.4 488.78 125.6ZM495.68 126.38L500.54 125.18C501.26 129.02 501.92 133.94 502.1 137.12L496.94 138.44C496.88 135.2 496.28 130.16 495.68 126.38ZM533.06 111.86H523.94C525.02 115.94 526.58 119.84 528.62 123.26C530.48 119.84 531.98 116 533.06 111.86ZM528.26 95.36H521.36C521.3 98.84 521.18 102.26 521.06 105.5H526.52C527.18 102.26 527.78 98.6 528.26 95.36ZM536.54 105.26L541.1 106.82C539.6 115.82 536.9 123.38 533.12 129.38C535.7 132.2 538.76 134.42 542.3 135.98C540.74 137.3 538.64 140 537.56 141.92C534.2 140.18 531.32 137.9 528.86 135.08C526.28 137.96 523.46 140.3 520.28 142.28C519.2 140.6 517.34 138.2 515.78 136.94C519.02 135.14 522.02 132.56 524.6 129.32C522.8 126.26 521.24 122.72 519.92 119C518.72 128.12 516.56 135.86 512.54 141.92C511.46 140.78 508.1 138.38 506.42 137.48C507.38 136.22 508.22 134.78 508.94 133.28L504.8 134.78C504.32 132.26 503.12 128.18 502.04 125.12L506.78 123.56C507.8 126.26 508.88 129.56 509.54 132.08C513.56 122.9 514.4 110.06 514.46 95.36H509.48V88.7H529.88L530.9 88.4L535.88 89.06C535.28 94.22 534.2 100.28 533.18 105.5H535.4L536.54 105.26Z" fill="#594A39"/>
<path d="M334.712 203.664C334.155 203.752 333.48 203.737 332.688 203.62C331.896 203.532 331.045 203.371 330.136 203.136C329.667 202.989 329.329 202.813 329.124 202.608C328.948 202.403 328.64 202.021 328.2 201.464C327.907 201.024 327.716 200.525 327.628 199.968C327.569 199.411 327.643 198.912 327.848 198.472C328.083 198.032 328.464 197.768 328.992 197.68C329.227 197.621 329.505 197.68 329.828 197.856C330.18 198.003 330.547 198.193 330.928 198.428C331.544 198.78 332.204 199.132 332.908 199.484C333.612 199.865 334.257 200.012 334.844 199.924C335.255 199.836 335.739 199.777 336.296 199.748C336.883 199.748 337.44 199.704 337.968 199.616C338.525 199.528 338.965 199.367 339.288 199.132C340.843 198.076 342.001 197.24 342.764 196.624C343.527 195.979 343.908 195.656 343.908 195.656C343.967 195.539 344.069 195.451 344.216 195.392C344.392 195.304 344.597 195.216 344.832 195.128C345.008 194.952 345.287 194.673 345.668 194.292C346.049 193.881 346.416 193.485 346.768 193.104C347.149 192.723 347.384 192.503 347.472 192.444C347.531 192.18 347.589 191.975 347.648 191.828C347.707 191.652 347.736 191.476 347.736 191.3C347.971 191.065 348.279 190.581 348.66 189.848C349.071 189.085 349.481 188.249 349.892 187.34C350.303 186.401 350.596 185.551 350.772 184.788C351.153 183.175 351.285 181.708 351.168 180.388C351.051 179.068 350.713 177.88 350.156 176.824C349.599 175.768 348.851 174.844 347.912 174.052C347.589 173.788 347.149 173.509 346.592 173.216C346.035 172.893 345.463 172.6 344.876 172.336C344.289 172.043 343.761 171.823 343.292 171.676C342.852 171.529 342.588 171.471 342.5 171.5C342.383 171.529 342.148 171.984 341.796 172.864C341.473 173.715 341.063 174.815 340.564 176.164C340.095 177.513 339.581 178.965 339.024 180.52C338.496 182.045 337.983 183.497 337.484 184.876C337.337 185.433 337.147 186.02 336.912 186.636C336.707 187.252 336.531 187.795 336.384 188.264C336.237 188.704 336.164 188.997 336.164 189.144C335.841 189.643 335.504 190.405 335.152 191.432C334.8 192.459 334.507 193.925 334.272 195.832C334.008 196.829 333.817 197.665 333.7 198.34C333.583 198.985 333.465 199.293 333.348 199.264C333.348 199.264 333.333 199.396 333.304 199.66C333.275 199.953 333.216 200.144 333.128 200.232C333.128 200.408 332.952 200.525 332.6 200.584C332.248 200.643 331.837 200.569 331.368 200.364C330.899 200.159 330.459 199.763 330.048 199.176C329.96 198.853 329.887 198.384 329.828 197.768C329.799 197.123 329.901 196.375 330.136 195.524C330.283 194.967 330.488 194.248 330.752 193.368C331.016 192.488 331.309 191.579 331.632 190.64C331.955 189.701 332.248 188.836 332.512 188.044C332.805 187.252 333.011 186.665 333.128 186.284C333.333 185.785 333.627 184.847 334.008 183.468C334.243 182.705 334.477 181.943 334.712 181.18C334.976 180.417 335.225 179.743 335.46 179.156C335.695 178.54 335.856 178.144 335.944 177.968C336.091 177.587 336.267 176.971 336.472 176.12C336.707 175.24 337.059 174.243 337.528 173.128L337.836 171.676L337.352 171.456C337 171.573 336.721 171.617 336.516 171.588C336.34 171.529 336.223 171.485 336.164 171.456C335.988 171.515 335.753 171.471 335.46 171.324C335.196 171.148 334.947 170.928 334.712 170.664C334.507 170.4 334.375 170.18 334.316 170.004C334.257 169.887 334.213 169.74 334.184 169.564C334.184 169.359 334.184 169.256 334.184 169.256C334.213 169.08 334.463 168.904 334.932 168.728C335.401 168.523 336.003 168.332 336.736 168.156C337.499 167.98 338.305 167.848 339.156 167.76C340.007 167.672 340.799 167.657 341.532 167.716C342.295 167.775 343.233 167.951 344.348 168.244C345.463 168.537 346.416 168.831 347.208 169.124C348.147 169.476 349.159 170.077 350.244 170.928C351.329 171.779 352.312 172.791 353.192 173.964C354.101 175.137 354.703 176.369 354.996 177.66C355.084 178.012 355.172 178.511 355.26 179.156C355.348 179.801 355.392 180.432 355.392 181.048C355.421 181.635 355.363 182.016 355.216 182.192C355.157 182.309 355.113 182.456 355.084 182.632C355.084 182.779 355.143 182.881 355.26 182.94C355.231 183.028 355.128 183.365 354.952 183.952C354.776 184.509 354.615 184.993 354.468 185.404C354.409 186.167 354.204 187.047 353.852 188.044C353.529 189.041 353.163 189.995 352.752 190.904C352.371 191.784 352.033 192.473 351.74 192.972C351.623 192.972 351.505 193.001 351.388 193.06C351.3 193.089 351.315 193.119 351.432 193.148C351.432 193.295 351.271 193.573 350.948 193.984C350.831 194.072 350.64 194.292 350.376 194.644C350.141 194.967 349.951 195.187 349.804 195.304C349.775 195.509 349.687 195.685 349.54 195.832C349.393 195.949 349.261 196.008 349.144 196.008C349.144 196.008 349.115 196.008 349.056 196.008C349.027 196.008 349.012 196.067 349.012 196.184C348.777 196.536 348.381 196.991 347.824 197.548C347.267 198.105 346.636 198.677 345.932 199.264C345.228 199.851 344.524 200.393 343.82 200.892C343.116 201.391 342.471 201.757 341.884 201.992C341.591 202.197 341.283 202.359 340.96 202.476C340.637 202.623 340.329 202.769 340.036 202.916C339.889 203.033 339.464 203.136 338.76 203.224C338.056 203.312 337.308 203.385 336.516 203.444C335.753 203.503 335.152 203.576 334.712 203.664ZM359.905 198.252C359.67 198.017 359.494 197.665 359.377 197.196C359.289 196.727 359.259 196.272 359.289 195.832C359.318 195.363 359.391 195.011 359.509 194.776C359.509 194.541 359.538 194.365 359.597 194.248C359.685 194.101 359.714 193.969 359.685 193.852C359.655 193.735 359.685 193.529 359.773 193.236C359.861 192.943 359.949 192.664 360.037 192.4C360.242 191.931 360.477 191.329 360.741 190.596C361.005 189.833 361.269 189.071 361.533 188.308C361.797 187.516 362.017 186.841 362.193 186.284C362.369 185.697 362.471 185.345 362.501 185.228C362.501 184.876 362.735 184.685 363.205 184.656C363.557 184.539 363.982 184.685 364.481 185.096C364.979 185.507 365.375 185.947 365.669 186.416C365.903 186.651 365.991 186.959 365.933 187.34C365.874 187.721 365.683 188.264 365.361 188.968C365.243 189.203 365.097 189.599 364.921 190.156C364.774 190.684 364.671 191.124 364.613 191.476C364.495 191.711 364.349 192.048 364.173 192.488C364.026 192.899 363.894 193.295 363.777 193.676C363.718 193.823 363.659 194.101 363.601 194.512C363.542 194.893 363.469 195.289 363.381 195.7C363.293 196.111 363.175 196.433 363.029 196.668C362.765 197.871 362.295 198.575 361.621 198.78C360.975 198.985 360.403 198.809 359.905 198.252ZM364.657 180.608C364.334 180.373 364.085 180.095 363.909 179.772C363.762 179.42 363.674 179.112 363.645 178.848C363.645 178.584 363.674 178.423 363.733 178.364C364.026 178.041 364.275 177.616 364.481 177.088C364.715 176.56 364.965 176.076 365.229 175.636C365.287 175.548 365.361 175.431 365.449 175.284C365.566 175.108 365.683 175.005 365.801 174.976C366.153 174.741 366.637 174.756 367.253 175.02C367.898 175.284 368.367 175.651 368.661 176.12C368.925 176.677 368.998 177.249 368.881 177.836C368.793 178.423 368.485 179.039 367.957 179.684C367.517 180.271 366.959 180.652 366.285 180.828C365.61 180.975 365.067 180.901 364.657 180.608ZM375.845 198.384C375.611 198.443 375.303 198.472 374.921 198.472C374.54 198.443 374.203 198.399 373.909 198.34C373.645 198.252 373.513 198.164 373.513 198.076C373.513 197.929 373.44 197.856 373.293 197.856C373.293 197.856 373.132 197.739 372.809 197.504C372.487 197.24 372.193 197.049 371.929 196.932C371.665 196.521 371.489 196.052 371.401 195.524C371.343 194.967 371.519 193.999 371.929 192.62C371.959 191.681 372.223 190.699 372.721 189.672C373.22 188.616 373.851 187.589 374.613 186.592C375.376 185.595 376.168 184.715 376.989 183.952C377.811 183.16 378.544 182.573 379.189 182.192C379.6 181.781 380.143 181.561 380.817 181.532C381.521 181.503 382.137 181.635 382.665 181.928C382.959 182.075 383.281 182.368 383.633 182.808C383.985 183.248 384.323 183.717 384.645 184.216C384.968 184.685 385.217 185.111 385.393 185.492C385.481 185.815 385.555 186.108 385.613 186.372C385.701 186.607 385.76 186.9 385.789 187.252C385.819 187.604 385.789 188.132 385.701 188.836C385.555 189.364 385.423 189.907 385.305 190.464C385.217 190.992 385.173 191.535 385.173 192.092C385.115 192.649 385.173 193.045 385.349 193.28C385.555 193.515 385.848 193.529 386.229 193.324C386.581 193.148 386.948 193.133 387.329 193.28C387.711 193.397 387.975 193.632 388.121 193.984C388.297 194.307 388.253 194.732 387.989 195.26C387.813 195.641 387.535 196.008 387.153 196.36C386.772 196.712 386.347 197.005 385.877 197.24C385.408 197.445 384.953 197.548 384.513 197.548C384.191 197.548 383.868 197.431 383.545 197.196C383.223 196.932 382.929 196.58 382.665 196.14C382.401 195.7 382.181 195.216 382.005 194.688L381.741 193.676L380.157 195.128C379.776 195.539 379.395 195.92 379.013 196.272C378.661 196.595 378.441 196.829 378.353 196.976C378.207 197.24 377.913 197.475 377.473 197.68C377.063 197.885 376.52 198.12 375.845 198.384ZM377.033 194.16C377.532 193.867 377.957 193.515 378.309 193.104C378.691 192.693 379.057 192.239 379.409 191.74C379.761 191.212 380.143 190.655 380.553 190.068C381.052 189.393 381.404 188.851 381.609 188.44C381.844 188.029 382.02 187.589 382.137 187.12C382.02 186.797 381.859 186.46 381.653 186.108C381.448 185.727 381.243 185.521 381.037 185.492C380.627 185.492 380.128 185.741 379.541 186.24C378.984 186.739 378.368 187.457 377.693 188.396C377.576 188.543 377.429 188.777 377.253 189.1C377.077 189.423 376.901 189.731 376.725 190.024C376.579 190.288 376.476 190.464 376.417 190.552C376.329 190.669 376.197 190.948 376.021 191.388C375.875 191.799 375.743 192.224 375.625 192.664C375.508 193.075 375.449 193.368 375.449 193.544C375.449 193.72 375.464 193.911 375.493 194.116C375.552 194.321 375.699 194.453 375.933 194.512C376.168 194.571 376.535 194.453 377.033 194.16ZM414 197.944C413.795 197.885 413.472 197.695 413.032 197.372C412.592 197.049 412.196 196.565 411.844 195.92C411.522 195.275 411.375 194.439 411.404 193.412C411.434 192.532 411.492 191.916 411.58 191.564C411.698 191.183 411.654 190.977 411.448 190.948C411.302 190.919 411.008 191.051 410.568 191.344C410.128 191.637 409.556 192.107 408.852 192.752C408.148 193.397 407.298 194.248 406.3 195.304C405.948 195.597 405.552 195.964 405.112 196.404C404.702 196.815 404.276 197.123 403.836 197.328C403.426 197.533 403.059 197.489 402.736 197.196L402.296 196.8C402.091 196.624 401.915 196.389 401.768 196.096C401.622 195.803 401.578 195.553 401.636 195.348L402.868 191.916C403.22 191.153 403.455 190.596 403.572 190.244C403.719 189.892 403.778 189.672 403.748 189.584C403.748 189.496 403.675 189.467 403.528 189.496C403.352 189.525 403.103 189.687 402.78 189.98C402.458 190.244 402.238 190.464 402.12 190.64C402.003 190.64 401.842 190.757 401.636 190.992C401.46 191.227 401.284 191.432 401.108 191.608C400.932 191.784 400.624 192.121 400.184 192.62C399.744 193.089 399.275 193.588 398.776 194.116C398.395 194.468 397.955 194.937 397.456 195.524C396.958 196.111 396.518 196.639 396.136 197.108C395.755 197.577 395.52 197.812 395.432 197.812C394.904 197.783 394.42 197.607 393.98 197.284C393.57 196.961 393.291 196.565 393.144 196.096C392.968 195.773 392.954 195.187 393.1 194.336C393.247 193.456 393.526 192.063 393.936 190.156C394.054 189.716 394.156 189.335 394.244 189.012C394.362 188.689 394.479 188.367 394.596 188.044C394.714 187.721 394.846 187.355 394.992 186.944C395.168 186.533 395.388 186.035 395.652 185.448C395.799 185.037 395.858 184.656 395.828 184.304C395.799 183.923 395.77 183.615 395.74 183.38C395.74 182.94 395.872 182.588 396.136 182.324C396.43 182.06 396.752 181.884 397.104 181.796C397.456 181.679 397.735 181.649 397.94 181.708C398.762 181.796 399.319 182.089 399.612 182.588C399.906 183.087 400.067 183.571 400.096 184.04C400.126 184.48 400.067 184.876 399.92 185.228C399.774 185.58 399.656 185.873 399.568 186.108L399.084 187.296C398.791 187.971 398.571 188.469 398.424 188.792C398.307 189.085 398.234 189.291 398.204 189.408C398.204 189.496 398.204 189.584 398.204 189.672C398.234 189.76 398.366 189.716 398.6 189.54C398.835 189.364 399.114 189.129 399.436 188.836C399.788 188.513 400.111 188.235 400.404 188C400.932 187.56 401.49 187.12 402.076 186.68C402.692 186.211 403.294 185.8 403.88 185.448C404.467 185.096 404.951 184.861 405.332 184.744C405.831 184.832 406.286 185.081 406.696 185.492C407.136 185.903 407.415 186.255 407.532 186.548C407.679 186.988 407.694 187.384 407.576 187.736C407.488 188.088 407.415 188.411 407.356 188.704C407.327 188.821 407.268 189.041 407.18 189.364C407.092 189.687 407.004 189.995 406.916 190.288C406.828 190.552 406.784 190.684 406.784 190.684C406.784 190.684 406.872 190.596 407.048 190.42C407.224 190.244 407.459 190.039 407.752 189.804C408.046 189.54 408.339 189.305 408.632 189.1C410.099 187.985 411.258 187.281 412.108 186.988C412.988 186.665 413.736 186.915 414.352 187.736C414.704 188.059 414.924 188.499 415.012 189.056C415.13 189.613 415.188 190.361 415.188 191.3C415.218 191.681 415.247 192.107 415.276 192.576C415.335 193.045 415.394 193.456 415.452 193.808C415.54 194.16 415.614 194.38 415.672 194.468C415.76 194.585 415.922 194.703 416.156 194.82C416.391 194.908 416.611 194.981 416.816 195.04C417.227 195.245 417.447 195.627 417.476 196.184C417.535 196.712 417.33 197.123 416.86 197.416C416.42 197.68 415.951 197.841 415.452 197.9C414.983 197.959 414.499 197.973 414 197.944ZM426.379 199.396C425.998 199.425 425.69 199.381 425.455 199.264C425.22 199.176 424.927 199.029 424.575 198.824C423.93 198.325 423.387 197.709 422.947 196.976C422.536 196.243 422.346 195.627 422.375 195.128C422.434 194.864 422.434 194.629 422.375 194.424C422.346 194.219 422.331 194.116 422.331 194.116C422.155 193.969 422.096 193.881 422.155 193.852C422.214 193.793 422.258 193.705 422.287 193.588C422.522 193.529 422.551 193.368 422.375 193.104C422.287 192.869 422.331 192.341 422.507 191.52C422.712 190.669 422.976 189.877 423.299 189.144C423.446 188.821 423.651 188.396 423.915 187.868C424.208 187.34 424.531 186.812 424.883 186.284C425.235 185.727 425.558 185.287 425.851 184.964C426.496 184.231 427.068 183.629 427.567 183.16C428.095 182.691 428.682 182.339 429.327 182.104C429.914 181.869 430.5 181.767 431.087 181.796C431.703 181.825 432.246 182.031 432.715 182.412C433.419 182.617 434.05 182.94 434.607 183.38C435.164 183.791 435.546 184.377 435.751 185.14C435.986 185.991 436.059 187.003 435.971 188.176C435.912 189.32 435.414 190.801 434.475 192.62C433.918 193.764 433.36 194.688 432.803 195.392C432.275 196.096 431.63 196.771 430.867 197.416C430.31 197.885 429.591 198.296 428.711 198.648C427.831 199 427.054 199.249 426.379 199.396ZM430.207 192.752C430.588 192.224 430.882 191.711 431.087 191.212C431.322 190.713 431.542 190.024 431.747 189.144C431.835 188.821 431.879 188.425 431.879 187.956C431.908 187.487 431.894 187.061 431.835 186.68C431.806 186.269 431.703 186.049 431.527 186.02C431.146 185.873 430.75 185.873 430.339 186.02C429.958 186.137 429.503 186.489 428.975 187.076C428.506 187.604 428.124 188.103 427.831 188.572C427.567 189.012 427.318 189.555 427.083 190.2C426.878 190.816 426.643 191.623 426.379 192.62C426.144 193.588 426.13 194.365 426.335 194.952C426.57 195.539 427.01 195.7 427.655 195.436C428.3 195.172 429.151 194.277 430.207 192.752ZM455.564 198.824C455.124 198.824 454.699 198.692 454.288 198.428C453.878 198.135 453.54 197.739 453.276 197.24C453.012 196.712 452.88 196.096 452.88 195.392C452.88 194.952 452.954 194.336 453.1 193.544C453.276 192.723 453.526 191.696 453.848 190.464C453.907 190.053 453.951 189.789 453.98 189.672C454.039 189.555 454.068 189.437 454.068 189.32C454.068 189.261 454.054 189.217 454.024 189.188C454.024 189.129 453.995 189.1 453.936 189.1C453.702 189.1 453.379 189.261 452.968 189.584C452.587 189.877 452.147 190.229 451.648 190.64C451.56 190.699 451.458 190.772 451.34 190.86C451.252 190.948 451.15 191.036 451.032 191.124C450.944 191.212 450.842 191.3 450.724 191.388C450.431 191.564 449.976 191.901 449.36 192.4C448.774 192.899 448.158 193.427 447.512 193.984C446.896 194.541 446.354 195.011 445.884 195.392C445.65 195.568 445.444 195.715 445.268 195.832C445.122 195.949 445.019 196.008 444.96 196.008C444.902 196.008 444.667 195.935 444.256 195.788C443.875 195.612 443.494 195.377 443.112 195.084C442.76 194.761 442.584 194.395 442.584 193.984C442.584 193.72 442.687 193.192 442.892 192.4C443.127 191.608 443.45 190.669 443.86 189.584C444.271 188.499 444.74 187.399 445.268 186.284C445.386 186.02 445.474 185.668 445.532 185.228C445.591 184.788 445.65 184.363 445.708 183.952C445.796 183.512 445.943 183.189 446.148 182.984C446.236 182.837 446.339 182.735 446.456 182.676C446.603 182.588 446.75 182.544 446.896 182.544C447.19 182.544 447.468 182.617 447.732 182.764C447.996 182.881 448.246 183.087 448.48 183.38C448.92 183.849 449.155 184.407 449.184 185.052C449.243 185.668 449.199 186.269 449.052 186.856C448.906 187.443 448.744 187.927 448.568 188.308C448.392 188.66 448.304 188.807 448.304 188.748C448.422 188.689 448.583 188.543 448.788 188.308C449.023 188.073 449.419 187.795 449.976 187.472C450.739 186.885 451.326 186.475 451.736 186.24C452.147 185.976 452.455 185.785 452.66 185.668C452.895 185.551 453.1 185.419 453.276 185.272C453.423 185.155 453.526 185.081 453.584 185.052C453.672 185.023 453.716 185.008 453.716 185.008C453.804 185.008 453.951 184.949 454.156 184.832C454.391 184.715 454.611 184.656 454.816 184.656C455.11 184.656 455.418 184.729 455.74 184.876C456.063 184.993 456.342 185.169 456.576 185.404C456.811 185.609 456.928 185.829 456.928 186.064C456.928 186.152 456.958 186.225 457.016 186.284C457.075 186.343 457.134 186.416 457.192 186.504C457.339 186.68 457.5 186.929 457.676 187.252C457.882 187.545 457.984 188.029 457.984 188.704C457.984 189.173 457.882 189.863 457.676 190.772C457.471 191.681 457.251 192.576 457.016 193.456C456.782 194.365 456.664 195.099 456.664 195.656C456.694 196.184 456.752 196.595 456.84 196.888C456.928 197.152 456.972 197.372 456.972 197.548C456.972 197.783 456.855 198.061 456.62 198.384C456.386 198.677 456.034 198.824 455.564 198.824ZM476.552 199.528C476.229 199.645 475.862 199.704 475.452 199.704C475.07 199.733 474.63 199.557 474.132 199.176C473.838 198.853 473.633 198.516 473.516 198.164C473.428 197.812 473.384 197.269 473.384 196.536C473.442 196.096 473.56 195.465 473.736 194.644C473.912 193.793 474.102 192.913 474.308 192.004C474.542 191.065 474.748 190.229 474.924 189.496C475.129 188.733 475.29 188.22 475.408 187.956C475.613 187.252 475.657 186.812 475.54 186.636C475.422 186.46 475.07 186.357 474.484 186.328C473.809 186.299 473.105 186.621 472.372 187.296C471.638 187.971 470.802 189.041 469.864 190.508C469.16 191.593 468.734 192.488 468.588 193.192C468.441 193.867 468.426 194.336 468.544 194.6C468.602 194.717 468.705 194.791 468.852 194.82C469.028 194.82 469.233 194.776 469.468 194.688C469.732 194.6 470.01 194.483 470.304 194.336C470.509 194.219 470.758 194.101 471.052 193.984C471.374 193.837 471.682 193.705 471.976 193.588C472.152 193.588 472.269 193.691 472.328 193.896C472.416 194.101 472.46 194.351 472.46 194.644C472.46 194.761 472.489 194.981 472.548 195.304C472.636 195.627 472.782 195.847 472.988 195.964C473.105 196.081 472.856 196.331 472.24 196.712C471.653 197.064 470.89 197.504 469.952 198.032C469.072 198.237 468.412 198.34 467.972 198.34C467.561 198.34 467.106 198.149 466.608 197.768C465.786 197.269 465.258 196.345 465.024 194.996C464.818 193.647 464.994 192.151 465.552 190.508C466.109 189.188 466.725 188.059 467.4 187.12C468.104 186.152 468.837 185.272 469.6 184.48C469.717 184.363 470.084 184.128 470.7 183.776C471.316 183.424 471.946 183.145 472.592 182.94C473.325 182.705 473.941 182.617 474.44 182.676C474.968 182.705 475.466 182.881 475.936 183.204C476.464 183.321 476.816 183.307 476.992 183.16C477.197 183.013 477.432 182.603 477.696 181.928C478.224 180.461 478.781 178.98 479.368 177.484C479.954 175.959 480.57 174.419 481.216 172.864C481.509 172.307 481.685 171.881 481.744 171.588C481.832 171.265 481.934 171.045 482.052 170.928L483.284 170.532C483.606 170.444 483.973 170.591 484.384 170.972C484.824 171.353 485.102 171.72 485.22 172.072C485.22 172.336 485.102 172.923 484.868 173.832C484.633 174.712 484.252 175.768 483.724 177C483.254 178.085 482.785 179.185 482.316 180.3C481.876 181.385 481.45 182.544 481.04 183.776C480.717 184.685 480.424 185.419 480.16 185.976C479.896 186.533 479.72 187.017 479.632 187.428C479.456 188.191 479.236 188.88 478.972 189.496C478.737 190.083 478.576 190.493 478.488 190.728C478.106 191.843 477.813 192.767 477.608 193.5C477.402 194.204 477.27 194.82 477.212 195.348C477.153 195.847 477.138 196.345 477.168 196.844C477.197 197.313 477.256 197.856 477.344 198.472C477.344 198.589 477.256 198.765 477.08 199C476.933 199.205 476.757 199.381 476.552 199.528ZM489.547 191.432C489.371 191.432 489.151 191.432 488.887 191.432C488.623 191.403 488.33 191.329 488.007 191.212C487.567 191.212 487.215 191.124 486.951 190.948C486.716 190.743 486.54 190.537 486.423 190.332C486.1 189.892 486.115 189.555 486.467 189.32C486.848 189.056 487.582 188.865 488.667 188.748C489.664 188.513 490.647 188.352 491.615 188.264C492.583 188.176 493.654 188.132 494.827 188.132C495.59 188.132 496.206 188.205 496.675 188.352C497.174 188.499 497.584 188.733 497.907 189.056C498.347 189.496 498.45 189.965 498.215 190.464C497.98 190.933 497.526 191.109 496.851 190.992C496.646 191.021 496.206 191.051 495.531 191.08C494.886 191.109 494.299 191.153 493.771 191.212C493.448 191.241 492.876 191.285 492.055 191.344C491.234 191.403 490.398 191.432 489.547 191.432ZM506.186 199.484C505.629 199.631 505.13 199.469 504.69 199C504.25 198.56 503.942 197.9 503.766 197.02C503.59 196.14 503.62 195.157 503.854 194.072C504.001 193.72 504.118 193.383 504.206 193.06C504.294 192.708 504.338 192.429 504.338 192.224C504.397 191.931 504.514 191.505 504.69 190.948C504.866 190.361 505.057 189.76 505.262 189.144C505.468 188.528 505.658 187.985 505.834 187.516C506.04 187.017 506.172 186.709 506.23 186.592C506.348 186.592 506.45 186.489 506.538 186.284C506.626 186.079 506.67 185.873 506.67 185.668C506.67 185.433 506.714 185.169 506.802 184.876C506.92 184.583 507.037 184.377 507.154 184.26C507.154 184.113 507.184 183.952 507.242 183.776C507.33 183.571 507.374 183.409 507.374 183.292C507.374 183.175 507.404 183.057 507.462 182.94C507.55 182.823 507.594 182.705 507.594 182.588C507.8 182.207 508.064 181.605 508.386 180.784C508.738 179.933 509.105 178.995 509.486 177.968C509.897 176.941 510.278 175.929 510.63 174.932C510.982 173.935 511.261 173.099 511.466 172.424C511.701 171.72 511.818 171.295 511.818 171.148C511.818 170.913 511.906 170.693 512.082 170.488C512.258 170.283 512.464 170.18 512.698 170.18C512.786 170.092 512.992 170.033 513.314 170.004C513.637 169.945 513.857 169.916 513.974 169.916C513.974 169.916 514.033 169.975 514.15 170.092C514.268 170.209 514.444 170.385 514.678 170.62C514.913 170.825 515.133 171.06 515.338 171.324C515.573 171.588 515.69 171.896 515.69 172.248C515.69 172.629 515.632 172.996 515.514 173.348C515.426 173.7 515.25 174.184 514.986 174.8C514.722 175.387 514.312 176.267 513.754 177.44C513.52 178.027 513.27 178.584 513.006 179.112C512.742 179.611 512.61 179.919 512.61 180.036C512.61 180.153 512.552 180.329 512.434 180.564C512.346 180.799 512.244 181.092 512.126 181.444C512.009 181.679 511.848 182.031 511.642 182.5C511.437 182.94 511.217 183.424 510.982 183.952C510.777 184.451 510.601 184.891 510.454 185.272C510.308 185.624 510.234 185.829 510.234 185.888C510.234 186.005 510.22 186.123 510.19 186.24C510.19 186.357 510.132 186.475 510.014 186.592C509.897 186.592 509.824 186.68 509.794 186.856C509.794 187.003 509.794 187.076 509.794 187.076C509.794 187.369 509.56 188.147 509.09 189.408C508.621 191.021 508.181 192.503 507.77 193.852C507.389 195.201 507.198 196.287 507.198 197.108C507.198 197.812 507.081 198.355 506.846 198.736C506.641 199.117 506.421 199.367 506.186 199.484ZM524.171 198.12C523.291 198.619 522.352 198.912 521.355 199C520.387 199.059 519.477 198.927 518.627 198.604C517.776 198.252 517.087 197.739 516.559 197.064C516.265 196.683 515.987 196.081 515.723 195.26C515.459 194.409 515.415 193.265 515.591 191.828C515.767 190.479 516.177 189.115 516.823 187.736C517.497 186.357 518.319 185.14 519.287 184.084C520.255 183.028 521.311 182.309 522.455 181.928C522.865 181.781 523.276 181.679 523.687 181.62C524.127 181.532 524.699 181.517 525.403 181.576C526.077 181.664 526.679 181.84 527.207 182.104C527.735 182.339 528.116 182.603 528.351 182.896C528.82 183.365 529.128 183.82 529.275 184.26C529.421 184.7 529.48 185.125 529.451 185.536C529.304 186.475 528.879 187.487 528.175 188.572C527.5 189.657 526.547 190.464 525.315 190.992C524.816 191.197 524.229 191.329 523.555 191.388C522.88 191.447 521.956 191.359 520.783 191.124C520.079 190.977 519.609 191.051 519.375 191.344C519.169 191.637 519.081 192.209 519.111 193.06C519.169 193.588 519.287 194.057 519.463 194.468C519.668 194.849 520.035 195.113 520.563 195.26C521.237 195.377 521.721 195.392 522.015 195.304C522.308 195.187 522.675 195.025 523.115 194.82C523.349 194.673 523.569 194.512 523.775 194.336C524.009 194.16 524.229 193.984 524.435 193.808C524.669 193.632 524.86 193.5 525.007 193.412C525.153 193.295 525.3 193.221 525.447 193.192C525.593 193.163 525.74 193.148 525.887 193.148C526.209 193.177 526.517 193.353 526.811 193.676C527.104 193.999 527.295 194.307 527.383 194.6C527.383 194.835 527.236 195.172 526.943 195.612C526.649 196.023 526.253 196.463 525.755 196.932C525.285 197.372 524.757 197.768 524.171 198.12ZM523.599 188.308C523.804 188.22 524.097 188.015 524.479 187.692C524.889 187.369 525.256 187.032 525.579 186.68C525.901 186.299 526.063 186.005 526.063 185.8C526.063 185.477 525.843 185.199 525.403 184.964C524.992 184.729 524.449 184.685 523.775 184.832C523.54 184.891 523.261 185.052 522.939 185.316C522.616 185.58 522.293 185.888 521.971 186.24C521.648 186.563 521.369 186.885 521.135 187.208C520.9 187.501 520.739 187.736 520.651 187.912C520.768 188.059 521.003 188.176 521.355 188.264C521.707 188.352 522.088 188.396 522.499 188.396C522.939 188.396 523.305 188.367 523.599 188.308ZM539.174 197.856C538.881 198.061 538.514 198.179 538.074 198.208C537.663 198.208 537.297 198.047 536.974 197.724C536.417 197.196 535.933 196.155 535.522 194.6C535.111 193.016 534.906 190.875 534.906 188.176C535.023 186.973 535.082 185.859 535.082 184.832C535.111 183.805 535.126 183.233 535.126 183.116C535.449 182.911 535.859 182.852 536.358 182.94C536.886 182.999 537.311 183.101 537.634 183.248C537.927 183.395 538.133 183.615 538.25 183.908C538.397 184.201 538.485 184.729 538.514 185.492C538.573 186.225 538.602 187.355 538.602 188.88C538.514 190.053 538.455 190.992 538.426 191.696C538.397 192.4 538.426 192.811 538.514 192.928C538.631 193.133 538.69 193.251 538.69 193.28C538.69 193.28 538.91 193.06 539.35 192.62C539.585 192.297 539.834 191.872 540.098 191.344C540.391 190.816 540.641 190.391 540.846 190.068C541.169 189.657 541.462 189.261 541.726 188.88C542.019 188.499 542.225 188.249 542.342 188.132C542.459 187.897 542.606 187.677 542.782 187.472C542.958 187.267 543.105 187.061 543.222 186.856C543.545 186.299 543.882 185.844 544.234 185.492C544.586 185.111 544.821 184.92 544.938 184.92C545.055 185.008 545.275 184.993 545.598 184.876C545.921 184.729 546.141 184.656 546.258 184.656C546.463 184.451 546.742 184.451 547.094 184.656C547.211 184.744 547.314 184.847 547.402 184.964C547.49 185.052 547.534 185.155 547.534 185.272C547.534 185.419 547.446 185.785 547.27 186.372C547.123 186.929 546.933 187.487 546.698 188.044C546.493 188.572 546.317 188.88 546.17 188.968C546.17 188.968 546.126 189.012 546.038 189.1C545.95 189.188 545.847 189.291 545.73 189.408C545.671 189.613 545.466 189.995 545.114 190.552C544.791 191.08 544.381 191.696 543.882 192.4C543.413 193.075 542.929 193.749 542.43 194.424C541.931 195.069 541.491 195.641 541.11 196.14C540.817 196.551 540.479 196.917 540.098 197.24C539.717 197.533 539.409 197.739 539.174 197.856ZM556.424 199.792C554.811 199.792 553.564 199.323 552.684 198.384C551.834 197.445 551.408 196.008 551.408 194.072C551.408 193.016 551.599 191.857 551.98 190.596C552.391 189.335 552.919 188.103 553.564 186.9C554.239 185.697 554.972 184.656 555.764 183.776C556.556 182.867 557.348 182.236 558.14 181.884C558.434 181.737 558.742 181.635 559.064 181.576C559.416 181.488 559.754 181.444 560.076 181.444C560.428 181.444 560.81 181.473 561.22 181.532C561.66 181.561 562.071 181.649 562.452 181.796C563.127 182.001 563.714 182.397 564.212 182.984C564.74 183.571 565.004 184.421 565.004 185.536C565.004 185.829 564.975 186.152 564.916 186.504C564.858 186.827 564.755 187.149 564.608 187.472C564.227 188.44 563.64 189.364 562.848 190.244C562.086 191.124 561.279 191.74 560.428 192.092C560.194 192.209 559.959 192.297 559.724 192.356C559.519 192.385 559.299 192.4 559.064 192.4C558.448 192.4 557.891 192.312 557.392 192.136C556.923 191.96 556.483 191.725 556.072 191.432L555.72 191.124L555.5 191.564C555.295 192.121 555.148 192.591 555.06 192.972C555.002 193.353 554.972 193.632 554.972 193.808C554.972 194.16 554.987 194.527 555.016 194.908C555.046 195.26 555.134 195.553 555.28 195.788C555.398 195.935 555.544 196.052 555.72 196.14C555.926 196.228 556.175 196.272 556.468 196.272C556.644 196.272 556.806 196.272 556.952 196.272C557.128 196.243 557.275 196.213 557.392 196.184C557.92 196.067 558.346 195.876 558.668 195.612C559.02 195.319 559.387 195.069 559.768 194.864L559.944 194.776L559.9 194.644C560.399 194.38 560.736 194.219 560.912 194.16C561.088 194.072 561.22 193.999 561.308 193.94C561.426 193.823 561.558 193.764 561.704 193.764C562.115 193.705 562.511 193.823 562.892 194.116C563.303 194.38 563.508 194.717 563.508 195.128C563.508 195.304 563.376 195.583 563.112 195.964C562.878 196.345 562.57 196.727 562.188 197.108C561.836 197.46 561.47 197.739 561.088 197.944C561 197.973 560.912 198.017 560.824 198.076C560.736 198.105 560.648 198.149 560.56 198.208H560.604C560.34 198.56 560.076 198.736 559.812 198.736H559.46C559.343 198.941 558.962 199.161 558.316 199.396C557.671 199.66 557.04 199.792 556.424 199.792ZM558.712 189.188C558.976 189.188 559.211 189.144 559.416 189.056C559.651 188.968 559.871 188.865 560.076 188.748C560.78 188.249 561.235 187.604 561.44 186.812C561.646 186.02 561.572 185.419 561.22 185.008C561.162 184.92 561.088 184.861 561 184.832C560.912 184.773 560.81 184.744 560.692 184.744C560.37 184.744 560.003 184.847 559.592 185.052C559.211 185.257 558.83 185.551 558.448 185.932C558.067 186.313 557.715 186.768 557.392 187.296L556.82 188.22C556.879 188.191 556.923 188.176 556.952 188.176C557.011 188.147 557.055 188.132 557.084 188.132C557.348 188.132 557.524 188.22 557.612 188.396C557.7 188.572 557.803 188.748 557.92 188.924C558.067 189.1 558.331 189.188 558.712 189.188ZM570.504 200.32C570.122 200.173 569.814 199.939 569.58 199.616C569.345 199.323 569.213 198.883 569.184 198.296C569.154 197.915 569.169 197.357 569.228 196.624C569.286 195.861 569.389 195.099 569.536 194.336C569.536 194.277 569.536 194.219 569.536 194.16C569.565 194.072 569.58 194.013 569.58 193.984C569.609 193.867 569.638 193.691 569.668 193.456C569.697 193.192 569.726 192.987 569.756 192.84C569.814 192.664 569.844 192.649 569.844 192.796L570.108 191.608C570.225 191.08 570.357 190.537 570.504 189.98C570.65 189.423 570.782 188.939 570.9 188.528C571.046 188.088 571.134 187.839 571.164 187.78C571.164 187.78 571.208 187.619 571.296 187.296C571.413 186.944 571.53 186.592 571.648 186.24C572.117 184.773 572.557 183.556 572.968 182.588C573.408 181.62 573.789 180.916 574.112 180.476C574.141 180.388 574.185 180.285 574.244 180.168C574.302 180.021 574.346 179.904 574.376 179.816C574.376 179.493 574.39 179.259 574.42 179.112C574.478 178.965 574.552 178.833 574.64 178.716C574.698 178.599 574.786 178.452 574.904 178.276C575.021 178.071 575.153 177.821 575.3 177.528L575.476 177.044C575.652 176.663 575.872 176.223 576.136 175.724C576.4 175.196 576.59 174.8 576.708 174.536C576.796 174.272 576.972 173.964 577.236 173.612C577.5 173.231 577.793 172.981 578.116 172.864L578.072 172.82C578.218 172.556 578.497 172.351 578.908 172.204C579.318 172.028 579.656 171.94 579.92 171.94C580.33 171.94 580.638 172.057 580.844 172.292C581.078 172.527 581.196 172.849 581.196 173.26C581.196 173.7 581.181 174.023 581.152 174.228C581.152 174.404 581.049 174.609 580.844 174.844H580.888C580.946 174.785 580.932 174.873 580.844 175.108C580.756 175.343 580.682 175.504 580.624 175.592C580.565 175.739 580.492 175.9 580.404 176.076C580.345 176.252 580.272 176.384 580.184 176.472C580.096 176.589 579.861 177 579.48 177.704C579.098 178.379 578.673 179.185 578.204 180.124C577.734 181.033 577.28 181.928 576.84 182.808C576.429 183.659 576.136 184.319 575.96 184.788L575.74 185.448C575.71 185.565 575.696 185.653 575.696 185.712C575.608 185.917 575.52 186.123 575.432 186.328C575.344 186.533 575.256 186.709 575.168 186.856L574.464 189.584L574.288 190.508L573.892 191.52L573.628 192.356C573.569 192.532 573.525 192.723 573.496 192.928C573.466 193.133 573.408 193.28 573.32 193.368C573.32 193.397 573.305 193.441 573.276 193.5C573.276 193.529 573.276 193.559 573.276 193.588C573.158 194.057 572.953 194.717 572.66 195.568C572.396 196.419 572.234 197.357 572.176 198.384C572.176 198.413 572.161 198.443 572.132 198.472C572.132 198.501 572.132 198.531 572.132 198.56C572.044 199.176 571.853 199.645 571.56 199.968C571.296 200.32 570.944 200.437 570.504 200.32Z" fill="#B8C318"/>
</svg>
