<svg width="900" height="250" viewBox="0 0 900 250" fill="none" xmlns="http://www.w3.org/2000/svg">
<rect width="900" height="220" rx="60" fill="#FDFDFB"/>
<rect x="5.5" y="35.5" width="889" height="209" rx="54.5" fill="#FDFDFB" stroke="#B8C318" stroke-width="11"/>
<rect width="384" height="172" transform="translate(258 54)" fill="#FDFDFB"/>
<path d="M266.34 94.4H309.66V102.26H266.34V94.4ZM261.36 129.02H314.64V137.24H261.36V129.02ZM378.78 96.32H339.12C336 100.88 332.34 104.84 328.5 107.72C327.6 106.34 325.14 103.4 323.76 102.08C329.22 98.42 334.2 92.42 337.02 86.06L343.8 88.04C343.32 89.06 342.84 90.08 342.3 91.04H378.78V96.32ZM373.56 103.46H338.52V98.54H373.56V103.46ZM342.06 115.94H348.54C349.44 114.44 350.46 112.58 351.06 111.08H339.84C340.8 112.64 341.7 114.56 342.06 115.94ZM331.98 105.68H371.22C371.04 122.48 371.64 135.08 375.12 135.08C376.02 135.08 376.32 131.72 376.44 126.56C377.76 128.3 379.5 130.04 380.94 131.06C380.46 138.98 379.14 142.22 374.58 142.22C365.7 142.22 364.26 129.14 364.02 111.08H354.3L358.2 112.04C357.24 113.42 356.4 114.74 355.62 115.94H362.52V120.86H348.96V123.08H360.54V127.88H348.96V130.34H363.6V135.5H348.96V142.22H341.94V135.5H326.34V130.34H341.94V127.88H329.94V123.08H341.94V120.86H327.72V115.94H335.22C334.74 114.68 334.08 113.24 333.42 112.1L337.26 111.08H331.98V105.68ZM404.52 86.42L411.18 88.64C409.56 92.48 407.58 96.32 405.36 100.04V142.22H398.58V109.88C396.66 112.28 394.8 114.38 392.82 116.24C392.16 114.5 390.18 110.6 389.04 108.8C395.16 103.52 401.1 95 404.52 86.42ZM426.06 134.54H434.82C437.88 134.54 438.36 132.02 438.9 122.12C440.52 123.38 443.34 124.76 445.2 125.12C444.42 136.7 442.62 140.84 435.36 140.84H425.34C417.96 140.84 415.86 138.44 415.86 130.28V87.32H422.76V102.56H443.64V109.4H422.76V130.4C422.76 133.94 423.18 134.54 426.06 134.54ZM508.32 87.98V101.12H477.72V87.98H484.08V95.36H489.66V86.24H495.96V95.36H501.6V87.98H508.32ZM468.96 128.72V113.66H464.64V128.72H468.96ZM474.24 134.96H464.64V139.4H458.76V120.74C457.98 121.88 457.14 123.02 456.3 124.04C456.06 122.12 454.8 117.62 453.84 115.52C457.56 110.6 460.02 103.22 461.58 95.3H455.16V88.82H475.56V95.3H468.18C467.34 99.44 466.32 103.52 464.94 107.42H474.24V134.96ZM491.46 123.74L486.72 126.86C486 125.24 484.62 122.78 483.18 120.44C482.82 127.7 481.56 136.4 477.78 142.34C476.64 141.26 473.82 139.46 472.32 138.8C476.58 131.96 477 122.42 477 115.64V103.88H509.76V109.82H483.3V115.64V116.78L486 115.16C487.8 117.92 490.26 121.58 491.46 123.74ZM502.8 126.38L499.14 123.56C501.6 129.32 505.44 134.24 510.78 136.82C509.34 137.96 507.54 140.24 506.58 141.86C502.14 139.22 498.66 135.02 496.08 129.92C494.28 135.14 490.92 139.22 485.1 142.22C484.38 140.6 482.58 138.14 481.08 137C491.16 132.26 492.12 123.98 492.54 112.1H498.72C498.6 115.16 498.42 118.1 498.12 120.74C498.42 121.64 498.72 122.54 499.08 123.38C501 121.1 503.58 117.38 504.96 114.8L510.24 118.58C507.42 121.28 504.9 124.4 502.8 126.38ZM567 96.92V94.04H562.98V96.92H567ZM567 103.82V100.88H562.98V103.82H567ZM544.2 100.88V103.82H547.92V100.88H544.2ZM544.2 94.04V96.92H547.92V94.04H544.2ZM557.4 100.88H553.44V103.82H557.4V100.88ZM557.4 94.04H553.44V96.92H557.4V94.04ZM573.24 89.84V108.02H538.26V89.84H547.92V86.18H553.44V89.84H557.4V86.18H562.98V89.84H573.24ZM535.08 93.08L531.54 98.9C529.38 96.98 525.06 94.04 521.94 92.18L525.3 86.96C528.42 88.58 532.86 91.22 535.08 93.08ZM531.96 108.8L528.54 114.8C526.5 112.88 522.06 110.06 518.82 108.32L522.06 102.98C525.18 104.48 529.68 107 531.96 108.8ZM530.4 117.74L534.78 122.66C531.9 128.9 528.48 135.74 525.18 141.56L520.14 136.52C523.08 132.02 527.16 124.64 530.4 117.74ZM569.04 128.24H561.36C562.14 129.44 563.04 130.58 564.06 131.54C565.68 130.58 567.54 129.38 569.04 128.24ZM571.62 128.24L574.14 130.76C572.16 132.08 569.88 133.34 567.84 134.36C570 135.62 572.4 136.52 575.22 137.06C573.96 138.2 572.34 140.54 571.62 142.1C563.52 140 558.48 135.26 555.54 128.24H551.4V134.96L557.64 133.52C557.88 135.02 558.36 137.12 558.78 138.26C548.28 141.14 546.36 141.86 545.22 142.7C544.8 141.32 543.54 138.8 542.58 137.72C543.78 137.06 545.28 135.5 545.28 132.86V128.24H542.4C541.32 133.28 539.4 138.38 535.68 142.34C534.54 141.2 531.96 139.34 530.46 138.62C536.58 132.38 537.3 123.74 537.3 117.5V110H574.38V115.16H543.42V117.08H570.84V121.22H543.3C543.24 121.88 543.24 122.54 543.12 123.26H575.22V128.24H571.62ZM595.92 98V107.24C595.92 117.32 595.14 132.32 590.16 142.1C588.72 141.08 585.48 139.58 583.62 139.04C588.42 129.8 588.84 116.42 588.84 107.3V91.34H611.22C610.8 89.96 610.32 88.52 609.78 87.38L617.04 85.76C617.88 87.44 618.72 89.48 619.32 91.34H639.12V98H595.92ZM622.86 108.92H611.94V112.88H622.86V108.92ZM629.94 118.28H605.22V108.92H597.12V103.34H605.22V99.38H611.94V103.34H622.86V99.38H629.94V103.34H638.58V108.92H629.94V118.28ZM624.84 126.26H609C611.1 128.18 613.8 129.8 616.92 131.12C619.98 129.8 622.62 128.24 624.84 126.26ZM631.14 120.44L635.58 122.72C633.06 127.4 629.46 131 625.02 133.82C629.58 134.9 634.62 135.56 640.08 135.98C638.7 137.48 636.9 140.36 636 142.16C628.68 141.44 622.2 140.06 616.56 137.78C610.86 139.82 604.38 141.08 597.6 141.8C597.06 140.12 595.74 137.42 594.66 135.86C599.64 135.44 604.44 134.84 608.82 133.76C606.06 131.9 603.6 129.68 601.56 127.22L603.96 126.26H597.6V120.68H629.88L631.14 120.44Z" fill="#594A39"/>
<path d="M367.509 201.904C367.069 201.728 366.555 201.479 365.969 201.156C365.382 200.863 364.825 200.467 364.297 199.968C363.769 199.469 363.358 198.868 363.065 198.164C362.771 197.313 362.566 196.477 362.449 195.656C362.361 194.835 362.331 193.881 362.361 192.796C362.361 191.271 362.463 189.951 362.669 188.836C362.903 187.692 363.255 186.533 363.725 185.36C363.783 185.272 363.886 185.023 364.033 184.612C364.209 184.172 364.399 183.703 364.605 183.204C364.839 182.705 365.015 182.324 365.133 182.06C365.367 181.561 365.719 180.901 366.189 180.08C366.687 179.229 367.215 178.408 367.773 177.616C368.623 176.355 369.342 175.328 369.929 174.536C370.515 173.715 371.073 173.025 371.601 172.468C372.158 171.911 372.759 171.368 373.405 170.84C374.079 170.312 374.915 169.711 375.913 169.036C376.558 168.567 377.379 168.273 378.377 168.156C379.403 168.039 380.401 168.2 381.369 168.64C382.337 169.051 383.055 169.843 383.525 171.016C383.847 171.632 383.994 172.409 383.965 173.348C383.935 174.257 383.759 175.24 383.437 176.296C383.114 177.323 382.703 178.291 382.205 179.2C381.706 180.109 381.149 180.843 380.533 181.4C380.151 181.752 379.638 181.811 378.993 181.576C378.377 181.341 377.863 181.033 377.453 180.652C377.189 180.153 377.042 179.86 377.013 179.772C377.013 179.684 377.071 179.625 377.189 179.596C377.365 179.391 377.599 179.039 377.893 178.54C378.186 178.041 378.479 177.513 378.773 176.956C379.066 176.369 379.271 175.9 379.389 175.548C379.623 174.316 379.785 173.509 379.873 173.128C379.961 172.717 379.873 172.38 379.609 172.116C379.491 171.999 379.315 171.955 379.081 171.984C378.875 172.013 378.523 172.16 378.025 172.424C377.35 172.717 376.543 173.319 375.605 174.228C374.695 175.108 373.786 176.164 372.877 177.396C371.703 178.951 370.721 180.329 369.929 181.532C369.137 182.735 368.535 183.967 368.125 185.228C368.066 185.345 367.963 185.565 367.817 185.888C367.699 186.211 367.641 186.372 367.641 186.372C367.67 186.489 367.626 186.783 367.509 187.252C367.391 187.692 367.259 188.073 367.113 188.396C366.79 189.745 366.599 191.051 366.541 192.312C366.482 193.544 366.555 194.629 366.761 195.568C366.995 196.477 367.333 197.152 367.773 197.592C368.154 197.856 368.638 197.944 369.225 197.856C369.811 197.768 370.486 197.563 371.249 197.24C372.011 196.917 372.833 196.565 373.713 196.184C374.417 195.891 375.062 195.568 375.649 195.216C376.235 194.864 376.675 194.556 376.969 194.292C377.203 194.116 377.497 193.94 377.849 193.764C378.23 193.559 378.553 193.456 378.817 193.456C379.227 193.309 379.535 193.427 379.741 193.808C379.946 194.189 380.049 194.673 380.049 195.26C380.049 195.671 379.755 196.169 379.169 196.756C378.582 197.343 377.937 197.841 377.233 198.252C376.998 198.487 376.675 198.707 376.265 198.912C375.883 199.088 375.487 199.249 375.077 199.396C374.461 199.865 373.698 200.32 372.789 200.76C371.879 201.2 370.955 201.537 370.017 201.772C369.107 202.007 368.271 202.051 367.509 201.904ZM390.072 200.54C388.986 199.748 388.121 199.015 387.476 198.34C386.86 197.636 386.522 196.961 386.464 196.316C386.405 195.788 386.405 195.069 386.464 194.16C386.552 193.251 386.654 192.356 386.772 191.476C386.889 190.596 386.992 189.936 387.08 189.496C387.226 189.349 387.285 189.159 387.256 188.924C387.256 188.66 387.256 188.528 387.256 188.528C387.226 188.381 387.329 188 387.564 187.384C387.798 186.739 388.018 185.917 388.224 184.92C388.81 183.16 389.368 181.693 389.896 180.52C390.453 179.317 390.996 178.291 391.524 177.44C392.052 176.589 392.58 175.812 393.108 175.108C394.31 173.876 395.44 172.893 396.496 172.16C397.581 171.427 398.578 170.855 399.488 170.444C400.074 170.092 400.617 169.813 401.116 169.608C401.614 169.403 402.025 169.373 402.348 169.52C403.99 169.872 405.384 170.591 406.528 171.676C407.672 172.761 408.434 174.331 408.816 176.384C409.021 177.675 409.138 178.848 409.168 179.904C409.226 180.931 409.153 181.957 408.948 182.984C408.742 183.981 408.361 185.081 407.804 186.284C407.276 187.487 406.528 188.895 405.56 190.508C404.357 192.884 403.037 194.879 401.6 196.492C400.192 198.076 398.769 199.279 397.332 200.1C395.924 200.921 394.574 201.361 393.284 201.42C392.022 201.508 390.952 201.215 390.072 200.54ZM393.592 197.636C394.266 197.548 394.809 197.416 395.22 197.24C395.66 197.064 396.114 196.727 396.584 196.228C397.053 195.729 397.713 194.996 398.564 194.028C399.326 193.148 399.957 192.4 400.456 191.784C400.984 191.168 401.424 190.537 401.776 189.892C402.157 189.247 402.509 188.484 402.832 187.604C403.184 186.695 403.565 185.536 403.976 184.128C404.21 183.248 404.372 182.603 404.46 182.192C404.577 181.752 404.65 181.385 404.68 181.092C404.709 180.799 404.709 180.403 404.68 179.904C404.68 179.376 404.68 178.584 404.68 177.528C404.65 177.029 404.548 176.472 404.372 175.856C404.196 175.211 403.99 174.756 403.756 174.492C403.462 174.169 403.022 173.891 402.436 173.656C401.849 173.421 401.233 173.451 400.588 173.744C400.236 173.891 399.796 174.199 399.268 174.668C398.74 175.108 398.197 175.636 397.64 176.252C397.082 176.868 396.554 177.484 396.056 178.1C395.557 178.716 395.161 179.273 394.868 179.772C394.574 180.271 394.428 180.623 394.428 180.828C394.428 180.828 394.413 180.901 394.384 181.048C394.384 181.195 394.325 181.341 394.208 181.488C393.826 181.899 393.43 182.573 393.02 183.512C392.609 184.451 392.228 185.521 391.876 186.724C391.524 187.927 391.23 189.129 390.996 190.332C390.761 191.535 390.614 192.62 390.556 193.588C390.556 194.057 390.556 194.453 390.556 194.776C390.556 195.099 390.585 195.392 390.644 195.656C390.732 195.891 390.864 196.155 391.04 196.448C391.216 196.741 391.568 197.035 392.096 197.328C392.653 197.621 393.152 197.724 393.592 197.636ZM412.762 198.744C412.677 198.701 412.528 198.584 412.314 198.392C412.122 198.2 411.93 197.987 411.738 197.752C411.546 197.496 411.418 197.304 411.354 197.176C411.29 197.069 411.29 196.877 411.354 196.6C411.44 196.323 411.525 196.184 411.61 196.184C411.674 196.227 411.76 196.152 411.866 195.96C411.973 195.768 412.08 195.565 412.186 195.352C412.293 195.117 412.346 194.979 412.346 194.936C412.368 194.851 412.421 194.787 412.506 194.744C412.613 194.68 412.709 194.616 412.794 194.552C412.901 194.381 413.04 194.211 413.21 194.04C413.402 193.848 413.552 193.688 413.658 193.56C413.829 193.347 414.138 193.027 414.586 192.6C415.034 192.173 415.472 191.736 415.898 191.288C416.346 190.797 416.741 190.371 417.082 190.008C417.424 189.624 417.605 189.357 417.626 189.208C417.626 189.208 417.658 189.176 417.722 189.112C417.808 189.027 417.904 188.952 418.01 188.888C418.117 188.824 418.256 188.717 418.426 188.568C418.618 188.419 418.778 188.28 418.906 188.152C418.949 187.981 419.045 187.789 419.194 187.576C419.365 187.341 419.557 187.117 419.77 186.904C419.941 186.648 420.101 186.371 420.25 186.072C420.4 185.752 420.496 185.517 420.538 185.368C420.602 185.133 420.581 184.995 420.474 184.952C420.368 184.888 420.08 184.781 419.61 184.632C419.098 184.461 418.618 184.429 418.17 184.536C417.722 184.643 417.125 184.963 416.378 185.496C416.08 185.56 415.802 185.645 415.546 185.752C415.312 185.859 415.109 185.901 414.938 185.88C414.853 185.837 414.757 185.741 414.65 185.592C414.544 185.443 414.426 185.304 414.298 185.176L413.978 183.8L414.97 183.256C415.845 182.701 416.677 182.285 417.466 182.008C418.277 181.709 418.981 181.656 419.578 181.848C419.813 181.848 420.026 181.88 420.218 181.944C420.41 181.987 420.506 182.008 420.506 182.008C420.677 181.987 420.922 182.072 421.242 182.264C421.584 182.456 421.914 182.701 422.234 183C422.576 183.299 422.81 183.597 422.938 183.896C423.28 184.408 423.408 185.027 423.322 185.752C423.237 186.477 422.928 187.235 422.394 188.024C422.288 188.152 422.053 188.419 421.69 188.824C421.328 189.229 420.912 189.688 420.442 190.2C419.994 190.691 419.578 191.128 419.194 191.512C418.832 191.896 418.597 192.141 418.49 192.248C418.341 192.312 418.085 192.515 417.722 192.856C417.381 193.197 417.008 193.581 416.602 194.008C416.218 194.413 415.888 194.776 415.61 195.096C415.354 195.395 415.248 195.544 415.29 195.544C415.269 195.629 415.376 195.629 415.61 195.544C415.866 195.437 416.09 195.352 416.282 195.288C416.602 195.181 416.976 195.085 417.402 195C417.85 194.893 418.298 194.808 418.746 194.744C419.194 194.68 419.578 194.637 419.898 194.616C420.24 194.595 420.442 194.616 420.506 194.68C420.549 194.787 420.581 194.829 420.602 194.808C420.645 194.765 420.666 194.744 420.666 194.744C420.709 194.595 420.976 194.552 421.466 194.616C421.978 194.68 422.437 194.776 422.842 194.904C423.077 194.968 423.258 195.053 423.386 195.16C423.536 195.267 423.61 195.363 423.61 195.448C423.61 195.448 423.632 195.501 423.674 195.608C423.738 195.693 423.834 195.811 423.962 195.96C424.304 196.237 424.304 196.536 423.962 196.856C423.642 197.176 423.056 197.261 422.202 197.112C421.648 197.112 421.189 197.144 420.826 197.208C420.741 197.251 420.56 197.272 420.282 197.272C420.005 197.272 419.738 197.283 419.482 197.304C419.098 197.261 418.714 197.283 418.33 197.368C417.946 197.432 417.488 197.549 416.954 197.72C416.762 197.784 416.464 197.88 416.058 198.008C415.653 198.136 415.216 198.264 414.746 198.392C414.277 198.52 413.85 198.616 413.466 198.68C413.104 198.744 412.869 198.765 412.762 198.744ZM447.257 201.684C446.084 201.391 445.13 200.775 444.397 199.836C443.693 198.927 443.121 197.827 442.681 196.536C442.652 196.155 442.637 195.627 442.637 194.952C442.666 194.277 442.71 193.647 442.769 193.06C442.828 192.473 442.886 192.136 442.945 192.048C443.033 191.989 443.077 191.813 443.077 191.52C443.048 191.403 443.062 191.212 443.121 190.948C443.209 190.655 443.297 190.361 443.385 190.068C443.532 189.716 443.605 189.437 443.605 189.232C443.605 188.997 443.59 188.821 443.561 188.704C443.561 188.704 443.605 188.616 443.693 188.44C443.781 188.235 443.884 188.073 444.001 187.956C444.177 187.78 444.25 187.604 444.221 187.428C444.221 187.252 444.221 187.164 444.221 187.164C444.192 187.047 444.221 186.885 444.309 186.68C444.397 186.475 444.485 186.313 444.573 186.196C444.632 186.137 444.705 186.02 444.793 185.844C444.91 185.639 444.969 185.536 444.969 185.536C444.969 185.448 445.028 185.213 445.145 184.832C445.292 184.451 445.453 184.04 445.629 183.6C445.805 183.131 445.966 182.705 446.113 182.324C446.289 181.943 446.421 181.693 446.509 181.576V181.488C446.626 181.195 446.788 180.887 446.993 180.564C447.022 180.417 447.096 180.183 447.213 179.86C447.33 179.508 447.462 179.171 447.609 178.848C447.932 178.144 448.328 177.352 448.797 176.472C449.296 175.563 449.824 174.668 450.381 173.788C450.938 172.879 451.466 172.072 451.965 171.368C452.493 170.635 452.948 170.092 453.329 169.74C453.828 169.183 454.326 168.787 454.825 168.552C455.353 168.288 455.837 168.376 456.277 168.816C456.482 169.021 456.658 169.329 456.805 169.74C456.952 170.121 457.01 170.488 456.981 170.84C456.981 171.163 456.864 171.339 456.629 171.368C456.424 171.485 456.145 171.823 455.793 172.38C455.441 172.908 455.045 173.539 454.605 174.272C454.194 175.005 453.784 175.768 453.373 176.56C452.962 177.323 452.581 178.012 452.229 178.628C451.848 179.479 451.496 180.227 451.173 180.872C450.85 181.488 450.689 181.796 450.689 181.796C450.66 181.884 450.63 181.957 450.601 182.016C450.572 182.075 450.542 182.133 450.513 182.192C450.073 183.101 449.706 183.937 449.413 184.7C449.12 185.433 448.826 186.211 448.533 187.032C448.357 187.237 448.254 187.443 448.225 187.648C448.196 187.853 448.181 187.956 448.181 187.956C448.122 187.927 448.078 188 448.049 188.176C448.02 188.323 447.961 188.499 447.873 188.704C447.726 188.821 447.638 189.012 447.609 189.276C447.58 189.511 447.565 189.745 447.565 189.98C447.36 190.508 447.169 191.153 446.993 191.916C446.817 192.649 446.685 193.368 446.597 194.072C446.538 194.747 446.524 195.275 446.553 195.656C446.612 196.155 446.744 196.58 446.949 196.932C447.184 197.255 447.506 197.519 447.917 197.724C448.24 197.871 448.533 198.003 448.797 198.12C449.061 198.208 449.296 198.252 449.501 198.252C449.736 198.281 450.029 198.281 450.381 198.252C450.762 198.193 451.276 198.105 451.921 197.988H451.877C452.258 197.929 452.654 197.856 453.065 197.768C453.505 197.651 453.916 197.548 454.297 197.46C454.649 197.401 454.986 197.343 455.309 197.284C455.632 197.196 455.881 197.123 456.057 197.064C456.702 196.888 457.216 196.741 457.597 196.624C458.008 196.507 458.286 196.507 458.433 196.624C458.58 196.741 458.741 196.961 458.917 197.284C459.093 197.607 459.137 197.9 459.049 198.164C458.99 198.311 458.697 198.604 458.169 199.044C457.641 199.513 457.04 199.968 456.365 200.408C455.69 200.877 455.074 201.2 454.517 201.376C453.93 201.64 453.138 201.816 452.141 201.904C451.173 202.021 450.234 202.051 449.325 201.992C448.416 201.933 447.726 201.831 447.257 201.684ZM473.867 198.12C472.987 198.619 472.049 198.912 471.051 199C470.083 199.059 469.174 198.927 468.323 198.604C467.473 198.252 466.783 197.739 466.255 197.064C465.962 196.683 465.683 196.081 465.419 195.26C465.155 194.409 465.111 193.265 465.287 191.828C465.463 190.479 465.874 189.115 466.519 187.736C467.194 186.357 468.015 185.14 468.983 184.084C469.951 183.028 471.007 182.309 472.151 181.928C472.562 181.781 472.973 181.679 473.383 181.62C473.823 181.532 474.395 181.517 475.099 181.576C475.774 181.664 476.375 181.84 476.903 182.104C477.431 182.339 477.813 182.603 478.047 182.896C478.517 183.365 478.825 183.82 478.971 184.26C479.118 184.7 479.177 185.125 479.147 185.536C479.001 186.475 478.575 187.487 477.871 188.572C477.197 189.657 476.243 190.464 475.011 190.992C474.513 191.197 473.926 191.329 473.251 191.388C472.577 191.447 471.653 191.359 470.479 191.124C469.775 190.977 469.306 191.051 469.071 191.344C468.866 191.637 468.778 192.209 468.807 193.06C468.866 193.588 468.983 194.057 469.159 194.468C469.365 194.849 469.731 195.113 470.259 195.26C470.934 195.377 471.418 195.392 471.711 195.304C472.005 195.187 472.371 195.025 472.811 194.82C473.046 194.673 473.266 194.512 473.471 194.336C473.706 194.16 473.926 193.984 474.131 193.808C474.366 193.632 474.557 193.5 474.703 193.412C474.85 193.295 474.997 193.221 475.143 193.192C475.29 193.163 475.437 193.148 475.583 193.148C475.906 193.177 476.214 193.353 476.507 193.676C476.801 193.999 476.991 194.307 477.079 194.6C477.079 194.835 476.933 195.172 476.639 195.612C476.346 196.023 475.95 196.463 475.451 196.932C474.982 197.372 474.454 197.768 473.867 198.12ZM473.295 188.308C473.501 188.22 473.794 188.015 474.175 187.692C474.586 187.369 474.953 187.032 475.275 186.68C475.598 186.299 475.759 186.005 475.759 185.8C475.759 185.477 475.539 185.199 475.099 184.964C474.689 184.729 474.146 184.685 473.471 184.832C473.237 184.891 472.958 185.052 472.635 185.316C472.313 185.58 471.99 185.888 471.667 186.24C471.345 186.563 471.066 186.885 470.831 187.208C470.597 187.501 470.435 187.736 470.347 187.912C470.465 188.059 470.699 188.176 471.051 188.264C471.403 188.352 471.785 188.396 472.195 188.396C472.635 188.396 473.002 188.367 473.295 188.308ZM487.067 196.668C486.861 196.492 486.583 195.964 486.231 195.084C485.908 194.204 485.585 193.177 485.263 192.004C484.969 190.831 484.735 189.745 484.559 188.748C484.441 188.161 484.309 187.663 484.163 187.252C484.045 186.841 483.943 186.504 483.855 186.24C483.708 185.712 483.752 185.155 483.987 184.568C484.251 183.981 484.559 183.585 484.911 183.38C485.057 183.292 485.321 183.233 485.703 183.204C486.113 183.145 486.377 183.131 486.495 183.16C486.847 183.277 487.169 183.82 487.463 184.788C487.756 185.727 488.02 186.973 488.255 188.528C488.372 189.437 488.46 190.112 488.519 190.552C488.607 190.963 488.651 191.227 488.651 191.344C488.768 191.579 488.841 191.872 488.871 192.224C488.929 192.547 489.076 192.591 489.311 192.356C489.428 192.239 489.604 192.033 489.839 191.74C490.103 191.447 490.411 191.065 490.763 190.596C491.379 189.775 491.863 189.1 492.215 188.572C492.596 188.015 493.021 187.443 493.491 186.856C493.696 186.563 493.975 186.24 494.327 185.888C494.679 185.536 495.031 185.213 495.383 184.92C495.735 184.597 496.028 184.407 496.263 184.348C496.967 184.231 497.392 184.495 497.539 185.14C497.715 185.756 497.509 186.475 496.923 187.296C496.688 187.648 496.497 187.985 496.351 188.308C496.233 188.601 496.116 188.807 495.999 188.924C495.764 189.393 495.397 189.995 494.899 190.728C494.4 191.432 493.916 192.092 493.447 192.708C492.977 193.295 492.655 193.676 492.479 193.852C492.361 193.969 492.097 194.189 491.687 194.512C491.305 194.835 490.939 195.245 490.587 195.744C489.883 196.419 489.208 196.829 488.563 196.976C487.917 197.123 487.419 197.02 487.067 196.668ZM506.121 199.792C504.508 199.792 503.261 199.323 502.381 198.384C501.53 197.445 501.105 196.008 501.105 194.072C501.105 193.016 501.296 191.857 501.677 190.596C502.088 189.335 502.616 188.103 503.261 186.9C503.936 185.697 504.669 184.656 505.461 183.776C506.253 182.867 507.045 182.236 507.837 181.884C508.13 181.737 508.438 181.635 508.761 181.576C509.113 181.488 509.45 181.444 509.773 181.444C510.125 181.444 510.506 181.473 510.917 181.532C511.357 181.561 511.768 181.649 512.149 181.796C512.824 182.001 513.41 182.397 513.909 182.984C514.437 183.571 514.701 184.421 514.701 185.536C514.701 185.829 514.672 186.152 514.613 186.504C514.554 186.827 514.452 187.149 514.305 187.472C513.924 188.44 513.337 189.364 512.545 190.244C511.782 191.124 510.976 191.74 510.125 192.092C509.89 192.209 509.656 192.297 509.421 192.356C509.216 192.385 508.996 192.4 508.761 192.4C508.145 192.4 507.588 192.312 507.089 192.136C506.62 191.96 506.18 191.725 505.769 191.432L505.417 191.124L505.197 191.564C504.992 192.121 504.845 192.591 504.757 192.972C504.698 193.353 504.669 193.632 504.669 193.808C504.669 194.16 504.684 194.527 504.713 194.908C504.742 195.26 504.83 195.553 504.977 195.788C505.094 195.935 505.241 196.052 505.417 196.14C505.622 196.228 505.872 196.272 506.165 196.272C506.341 196.272 506.502 196.272 506.649 196.272C506.825 196.243 506.972 196.213 507.089 196.184C507.617 196.067 508.042 195.876 508.365 195.612C508.717 195.319 509.084 195.069 509.465 194.864L509.641 194.776L509.597 194.644C510.096 194.38 510.433 194.219 510.609 194.16C510.785 194.072 510.917 193.999 511.005 193.94C511.122 193.823 511.254 193.764 511.401 193.764C511.812 193.705 512.208 193.823 512.589 194.116C513 194.38 513.205 194.717 513.205 195.128C513.205 195.304 513.073 195.583 512.809 195.964C512.574 196.345 512.266 196.727 511.885 197.108C511.533 197.46 511.166 197.739 510.785 197.944C510.697 197.973 510.609 198.017 510.521 198.076C510.433 198.105 510.345 198.149 510.257 198.208H510.301C510.037 198.56 509.773 198.736 509.509 198.736H509.157C509.04 198.941 508.658 199.161 508.013 199.396C507.368 199.66 506.737 199.792 506.121 199.792ZM508.409 189.188C508.673 189.188 508.908 189.144 509.113 189.056C509.348 188.968 509.568 188.865 509.773 188.748C510.477 188.249 510.932 187.604 511.137 186.812C511.342 186.02 511.269 185.419 510.917 185.008C510.858 184.92 510.785 184.861 510.697 184.832C510.609 184.773 510.506 184.744 510.389 184.744C510.066 184.744 509.7 184.847 509.289 185.052C508.908 185.257 508.526 185.551 508.145 185.932C507.764 186.313 507.412 186.768 507.089 187.296L506.517 188.22C506.576 188.191 506.62 188.176 506.649 188.176C506.708 188.147 506.752 188.132 506.781 188.132C507.045 188.132 507.221 188.22 507.309 188.396C507.397 188.572 507.5 188.748 507.617 188.924C507.764 189.1 508.028 189.188 508.409 189.188ZM521.036 197.944C520.743 197.768 520.42 197.519 520.068 197.196C519.716 196.844 519.54 196.507 519.54 196.184C519.54 195.744 519.599 195.201 519.716 194.556C519.834 193.881 519.951 193.309 520.068 192.84C520.127 192.312 520.2 191.784 520.288 191.256C520.406 190.699 520.611 190.185 520.904 189.716C521.227 188.601 521.564 187.501 521.916 186.416C522.268 185.301 522.576 184.157 522.84 182.984C523.222 181.899 523.559 180.945 523.852 180.124C524.175 179.273 524.571 178.203 525.04 176.912C525.304 176.179 525.524 175.401 525.7 174.58C525.906 173.729 526.214 172.967 526.624 172.292C526.8 172.028 526.932 171.808 527.02 171.632C527.138 171.427 527.255 171.236 527.372 171.06C527.402 170.943 527.548 170.84 527.812 170.752C528.106 170.664 528.399 170.62 528.692 170.62C529.015 170.591 529.235 170.649 529.352 170.796C529.44 170.767 529.587 170.884 529.792 171.148C529.998 171.383 530.188 171.661 530.364 171.984C530.57 172.277 530.658 172.512 530.628 172.688C530.628 172.805 530.599 172.967 530.54 173.172C530.511 173.377 530.438 173.568 530.32 173.744C530.203 173.861 530.086 174.037 529.968 174.272C529.88 174.477 529.734 174.771 529.528 175.152C529.411 175.533 529.308 175.929 529.22 176.34C529.132 176.721 529.015 177.073 528.868 177.396C528.751 177.748 528.604 178.085 528.428 178.408C528.282 178.731 528.179 178.995 528.12 179.2C527.915 179.875 527.666 180.535 527.372 181.18C527.108 181.825 526.874 182.515 526.668 183.248C526.463 183.952 526.258 184.685 526.052 185.448C525.847 186.181 525.554 186.885 525.172 187.56C524.967 187.883 524.82 188.293 524.732 188.792C524.644 189.291 524.556 189.789 524.468 190.288C524.292 190.816 524.131 191.315 523.984 191.784C523.867 192.224 523.808 192.503 523.808 192.62C523.632 193.265 523.5 193.911 523.412 194.556C523.354 195.172 523.207 195.715 522.972 196.184C522.943 196.477 522.84 196.8 522.664 197.152C522.488 197.504 522.254 197.768 521.96 197.944C521.696 198.12 521.388 198.12 521.036 197.944ZM535.589 199.308C534.034 199.308 532.89 198.809 532.157 197.812C531.951 197.343 531.849 196.873 531.849 196.404C531.878 195.905 531.995 195.553 532.201 195.348C532.406 195.113 532.655 195.157 532.949 195.48C533.33 195.715 533.873 195.832 534.577 195.832C534.929 195.832 535.237 195.832 535.501 195.832C535.794 195.803 536.131 195.773 536.513 195.744C537.187 195.685 537.613 195.48 537.789 195.128C537.994 194.776 537.95 194.483 537.657 194.248H537.701C536.909 194.043 536.131 193.749 535.369 193.368C534.606 192.987 533.961 192.561 533.433 192.092C532.905 191.593 532.597 191.124 532.509 190.684C532.274 189.716 532.333 188.719 532.685 187.692C533.037 186.665 533.55 185.771 534.225 185.008C534.489 184.832 534.855 184.583 535.325 184.26C535.794 183.908 536.131 183.717 536.337 183.688V183.732C536.894 183.145 537.525 182.676 538.229 182.324C538.933 181.943 539.754 181.591 540.693 181.268L541.397 181.18C541.749 181.121 542.057 181.092 542.321 181.092C542.291 181.092 542.365 181.121 542.541 181.18C542.717 181.239 542.863 181.283 542.981 181.312C543.157 181.4 543.333 181.444 543.509 181.444C543.919 181.503 544.315 181.723 544.697 182.104C545.107 182.456 545.43 182.881 545.665 183.38C545.929 183.849 546.031 184.289 545.973 184.7C545.885 185.375 545.635 186.049 545.225 186.724C544.814 187.369 544.374 187.736 543.905 187.824C543.963 187.795 543.905 187.736 543.729 187.648C543.553 187.56 543.391 187.472 543.245 187.384L543.069 187.472C543.069 187.472 543.054 187.428 543.025 187.34C543.025 187.252 542.995 187.149 542.937 187.032C542.819 186.827 542.731 186.607 542.673 186.372C542.643 186.137 542.643 185.873 542.673 185.58C542.731 185.257 542.746 185.067 542.717 185.008C542.687 184.949 542.511 184.905 542.189 184.876C541.807 184.788 541.323 184.832 540.737 185.008C540.15 185.155 539.607 185.419 539.109 185.8C538.522 186.181 538.082 186.489 537.789 186.724C537.525 186.959 537.319 187.193 537.173 187.428C537.026 187.633 536.865 187.941 536.689 188.352C536.571 188.557 536.469 188.748 536.381 188.924C536.293 189.071 536.249 189.217 536.249 189.364C536.249 189.657 536.498 189.965 536.997 190.288C537.495 190.581 538.243 190.933 539.241 191.344C540.033 191.667 540.546 192.107 540.781 192.664C541.045 193.221 541.279 193.749 541.485 194.248C541.543 194.365 541.602 194.585 541.661 194.908C541.749 195.201 541.763 195.377 541.705 195.436C541.763 195.495 541.793 195.553 541.793 195.612V195.568C542.027 196.008 541.983 196.477 541.661 196.976C541.367 197.445 540.898 197.885 540.253 198.296C539.607 198.677 538.874 198.956 538.053 199.132H538.097C537.657 199.191 537.217 199.235 536.777 199.264C536.366 199.293 535.97 199.308 535.589 199.308Z" fill="#B8C318"/>
</svg>
