<svg width="900" height="250" viewBox="0 0 900 250" fill="none" xmlns="http://www.w3.org/2000/svg">
<rect y="30" width="900" height="220" rx="60" fill="#E0E772"/>
<rect x="5.5" y="5.5" width="889" height="209" rx="54.5" fill="#FDFDFB" stroke="#B8C318" stroke-width="11"/>
<rect width="385" height="172" transform="translate(257 24)" fill="#FDFDFB"/>
<path d="M301.06 66.26V63.26H273.58V66.26H301.06ZM301.06 74V70.94H273.58V74H301.06ZM308.32 58.22V79.04H266.68V58.22H308.32ZM291.76 98.66V104.48C293.32 104.6 294.94 104.66 296.56 104.66C299.92 104.66 311.44 104.66 315.7 104.48C314.74 106.1 313.66 109.22 313.3 111.26H296.2C285.22 111.26 277.78 109.76 272.74 102.8C270.58 106.76 267.82 109.94 264.34 112.34C263.32 111.02 260.56 108.38 258.94 107.36C265.06 103.58 268.72 97.22 270.1 89.18L277.24 90.26C276.82 92.18 276.34 93.98 275.86 95.72C277.72 99.8 280.66 102.02 284.5 103.22V87.98H261.1V81.68H314.02V87.98H291.76V92.48H310.24V98.66H291.76ZM346.72 91.4L341.98 93.2C341.8 92.42 341.56 91.58 341.32 90.62C329.86 92.42 327.7 93.02 326.38 93.68C326.08 92.42 325.06 89.42 324.34 87.68C325.78 87.32 327.1 86 328.96 83.66C329.74 82.82 331.12 80.96 332.74 78.56C328.18 79.16 326.86 79.46 325.96 79.88C325.6 78.56 324.58 75.56 323.92 73.88C325 73.58 325.9 72.44 327.04 70.7C328.18 69.02 331.66 62.48 333.52 56.24L339.82 58.7C337.84 63.56 335.14 68.78 332.32 72.98L336.46 72.68C337.96 70.1 339.46 67.16 340.72 64.34L346.36 67.82C342.88 74.24 338.5 80.78 333.94 86.3L339.76 85.52C339.28 83.9 338.74 82.34 338.2 80.9L342.64 79.52C344.2 83.3 345.94 88.34 346.72 91.4ZM357.46 92.06L352.54 95.66C351.34 93.56 348.7 90.2 346.54 87.74L351.22 84.56C353.38 86.78 356.14 89.96 357.46 92.06ZM326.08 95.6L331.42 96.68C330.94 101.48 329.86 107.18 329.08 110.72C327.76 110.06 325.18 109.52 323.86 109.22C324.82 105.62 325.6 100.22 326.08 95.6ZM332.62 96.38L337.48 95.18C338.26 99.08 338.92 104.12 339.1 107.54L333.94 108.86C333.88 105.38 333.28 100.28 332.62 96.38ZM355.96 95.36L358.12 100.58C354.64 103.1 350.68 105.68 347.44 107.78L345.4 104.9L342.16 106.1C341.62 103.1 340.24 98.42 339.04 94.94L343.54 93.38C344.5 95.96 345.52 98.9 346.24 101.48C349.06 99.8 352.48 97.58 355.96 95.36ZM356.26 69.2H366.52L367.18 65.78H357.1L356.26 69.2ZM380.26 83.78H365.98V105.44C365.98 108.56 365.44 110.18 363.34 111.14C361.36 112.16 358.6 112.28 354.88 112.22C354.64 110.48 353.68 107.9 352.84 106.16C355.18 106.22 357.64 106.22 358.42 106.22C359.2 106.22 359.38 106.04 359.38 105.32V83.78H345.04V77.54H364.72L365.38 74.6H347.92C349.48 69.8 351.4 62.06 352.6 56.18L359.26 56.84C359.02 57.92 358.72 59.12 358.42 60.38H368.74L369.82 60.14L374.68 60.8C373.9 66.08 372.64 72.26 371.44 77.54H380.26V83.78ZM371.56 95.12L367.36 92C369.46 89.96 372.46 86.6 374.08 84.26L379.18 87.74C376.66 90.44 373.84 93.26 371.56 95.12ZM366.64 99.8L370.3 95.36C373.6 97.64 378.22 100.88 380.5 103.04L376.66 108.02C374.56 105.8 369.94 102.26 366.64 99.8ZM421 67.16H407.56C405.94 69.14 404.32 71 402.52 72.8H415.96C417.7 71.18 419.44 69.2 421 67.16ZM432.1 86.54V79.4H421.18V86.54H432.1ZM403.06 79.4V86.54H414.22V79.4H403.06ZM410.62 104.66H430.9C436.66 104.66 437.56 103.34 438.34 95.9C440.14 96.92 443.08 98.06 445.06 98.42C443.8 108.26 441.34 111.14 431.26 111.14H410.74C399.58 111.14 396.16 108.98 396.16 100.4V78.5C394.96 79.46 393.76 80.36 392.62 81.14C391.96 79.52 390.04 75.98 388.78 74.36C395.86 70.1 403.12 63.2 407.14 55.76L413.62 58.22C413.14 59.06 412.6 59.96 412.12 60.8H425.92L427.3 60.44L431.86 63.86C429.82 66.74 427.24 69.98 424.48 72.8H439.12V95.36H432.1V93.32H403.06V100.4C403.06 104.06 404.08 104.66 410.62 104.66ZM462.94 99.74H472.48V87.98H462.94V99.74ZM472.48 81.8V72.08H462.94V81.8H472.48ZM491.56 65.42H508.42C508.42 65.42 508.42 67.82 508.36 68.66C507.58 95.48 506.92 105.02 504.46 108.2C502.78 110.42 501.1 111.08 498.7 111.5C496.42 111.8 492.82 111.74 489.28 111.62C489.16 109.64 488.2 106.64 486.94 104.66C490.78 105.02 494.32 105.02 495.88 105.02C497.08 105.02 497.74 104.78 498.52 104C500.26 102.08 501.04 93.08 501.7 71.9H488.86C487.3 75.5 485.44 78.8 483.58 81.38C482.62 80.48 480.58 79.1 478.96 78.02V106.04H462.94V110.42H456.46V65.84H463.24C464.02 62.84 464.74 59 464.98 56.18L472.78 57.26C471.76 60.26 470.68 63.26 469.66 65.84H478.96V75.56C482.44 70.52 485.32 63.26 487.06 56.24L493.9 57.8C493.24 60.38 492.46 62.9 491.56 65.42ZM498.46 92.78L492.4 96.5C490.72 92.9 487 87.02 484.06 82.64L489.64 79.46C492.64 83.6 496.6 89.3 498.46 92.78ZM542.08 92H531.82C531.16 96.98 529.9 102.14 527.74 106.64C538.42 103.76 541.06 98.78 542.08 92ZM563.26 73.34H532.54V76.88H563.26V73.34ZM532.36 86.42H547.72C547.36 85.34 546.88 84.32 546.4 83.36L552.22 82.28H532.54C532.48 83.6 532.42 84.98 532.36 86.42ZM573.82 92H549.28C549.1 93.14 548.92 94.16 548.68 95.18H568.12C568.12 95.18 568.06 96.8 567.94 97.64C567.34 105.02 566.5 108.62 565 110.12C563.68 111.44 562.12 111.86 560.14 111.98C558.46 112.22 555.52 112.22 552.28 112.1C552.22 110.24 551.44 107.78 550.42 106.16C553.18 106.46 555.82 106.52 557.02 106.52C557.92 106.52 558.52 106.4 559.06 105.98C559.72 105.38 560.2 103.76 560.62 100.58H546.94C544.54 105.68 540.16 109.58 531.52 112.22C530.86 110.54 529.12 108.08 527.74 106.7C526.6 108.98 525.28 111.02 523.6 112.88C522.58 111.44 519.82 108.62 518.5 107.66C524.92 99.98 525.52 88.82 525.52 80.18V60.74C539.26 59.96 554.8 58.46 564.04 56.3L569.5 61.58C559.12 63.92 545.26 65.3 532.54 66.02V67.88H570.28V82.28H553.66C554.32 83.54 555.04 85.04 555.58 86.42H573.82V92ZM638.8 82.1V89.24H615.52V103.7C615.52 107.72 614.62 109.7 611.8 110.84C608.86 111.98 604.78 112.16 599.26 112.1C598.84 110 597.4 106.76 596.2 104.72C600.4 104.96 605.08 104.96 606.34 104.9C607.66 104.84 608.08 104.54 608.08 103.52V89.24H584.32V82.1H608.08V73.76C611.86 71.96 616.18 69.26 619.66 66.68H590.26V59.6H627.64L629.32 59.24L634.72 63.38C629.62 68.42 622.42 73.82 615.52 77.54V82.1H638.8Z" fill="#594A39"/>
<path d="M265.15 170.804C264.945 170.481 264.593 170.276 264.094 170.188C263.596 170.1 262.833 170.085 261.806 170.144C261.396 170.203 260.97 170.173 260.53 170.056C260.09 169.939 259.738 169.763 259.474 169.528C259.21 169.293 259.108 169.059 259.166 168.824C259.196 168.472 259.606 168.091 260.398 167.68C261.19 167.269 262.217 167.049 263.478 167.02L265.326 166.976L265.766 166.096C265.884 165.773 265.972 165.421 266.03 165.04C266.118 164.659 266.265 164.131 266.47 163.456C266.588 163.045 266.764 162.473 266.998 161.74C267.233 161.007 267.482 160.229 267.746 159.408C268.01 158.557 268.245 157.795 268.45 157.12C268.656 156.445 268.788 155.976 268.846 155.712C268.964 155.448 269.125 155.008 269.33 154.392C269.536 153.747 269.726 153.101 269.902 152.456C270.108 151.781 270.24 151.297 270.298 151.004C271.061 148.687 271.56 147.073 271.794 146.164C272.029 145.225 272.088 144.741 271.97 144.712C271.853 144.712 271.574 144.727 271.134 144.756C270.694 144.785 270.21 144.829 269.682 144.888C269.154 144.917 268.685 144.961 268.274 145.02C267.864 145.079 267.614 145.137 267.526 145.196C267.38 145.401 267.13 145.372 266.778 145.108C266.426 144.815 266.206 144.521 266.118 144.228C266.089 143.964 266.089 143.715 266.118 143.48C266.148 143.245 266.236 143.084 266.382 142.996C266.588 142.82 267.013 142.629 267.658 142.424C268.304 142.189 269.022 141.984 269.814 141.808C270.636 141.632 271.384 141.5 272.058 141.412C272.557 141.353 273.056 141.251 273.554 141.104C274.053 140.928 274.449 140.723 274.742 140.488C275.006 140.4 275.256 140.327 275.49 140.268C275.754 140.209 276.018 140.195 276.282 140.224C276.517 140.371 276.913 140.444 277.47 140.444C278.057 140.444 278.673 140.429 279.318 140.4C280.961 140.253 282.105 140.312 282.75 140.576C283.425 140.811 283.865 141.133 284.07 141.544C284.217 142.101 284.188 142.571 283.982 142.952C283.777 143.304 283.425 143.465 282.926 143.436C282.662 143.495 282.296 143.553 281.826 143.612C281.357 143.641 280.741 143.671 279.978 143.7C278.042 143.876 277.001 144.081 276.854 144.316C276.737 144.433 276.634 144.551 276.546 144.668C276.488 144.785 276.4 144.917 276.282 145.064C276.312 145.181 276.238 145.533 276.062 146.12C275.916 146.677 275.725 147.279 275.49 147.924C275.373 148.305 275.197 148.848 274.962 149.552C274.728 150.256 274.478 150.989 274.214 151.752C273.98 152.485 273.76 153.16 273.554 153.776C273.349 154.363 273.202 154.759 273.114 154.964C272.997 155.228 272.894 155.521 272.806 155.844C272.748 156.137 272.704 156.357 272.674 156.504C272.264 157.941 271.912 159.144 271.618 160.112C271.354 161.08 271.12 161.931 270.914 162.664C270.709 163.368 270.518 164.057 270.342 164.732C270.166 165.377 269.961 166.111 269.726 166.932C269.726 166.932 269.976 166.917 270.474 166.888C270.973 166.829 271.604 166.771 272.366 166.712C273.745 166.565 274.684 166.477 275.182 166.448C275.681 166.419 275.974 166.463 276.062 166.58C276.15 166.668 276.238 166.844 276.326 167.108C276.913 167.9 276.869 168.56 276.194 169.088C275.549 169.616 274.405 169.865 272.762 169.836C271.237 169.895 270.108 169.939 269.374 169.968C268.67 170.027 268.216 170.1 268.01 170.188C267.805 170.276 267.702 170.423 267.702 170.628C267.732 171.097 267.438 171.376 266.822 171.464C266.236 171.581 265.678 171.361 265.15 170.804ZM286.664 169.044C286.341 168.985 285.989 168.795 285.608 168.472C285.227 168.12 284.875 167.739 284.552 167.328C284.259 166.888 284.068 166.521 283.98 166.228C283.98 166.169 283.936 166.096 283.848 166.008C283.789 165.92 283.76 165.876 283.76 165.876C283.643 165.788 283.569 165.407 283.54 164.732C283.54 164.028 283.584 163.251 283.672 162.4C283.76 161.549 283.863 160.875 283.98 160.376C284.127 159.907 284.347 159.276 284.64 158.484C284.933 157.663 285.183 156.929 285.388 156.284L286.576 153.732L284.816 153.248C284.611 153.189 284.435 153.072 284.288 152.896C284.171 152.72 284.112 152.573 284.112 152.456C284.112 152.221 284.244 151.884 284.508 151.444C284.772 151.004 284.963 150.784 285.08 150.784C285.227 150.813 285.491 150.828 285.872 150.828C286.283 150.828 286.679 150.813 287.06 150.784C287.441 150.755 287.676 150.725 287.764 150.696C287.881 150.637 287.999 150.564 288.116 150.476C288.233 150.359 288.321 150.197 288.38 149.992C288.527 149.669 288.659 149.42 288.776 149.244C288.893 149.068 289.055 148.804 289.26 148.452C289.465 148.071 289.627 147.748 289.744 147.484C289.891 147.22 290.111 146.853 290.404 146.384C290.551 146.179 290.712 145.929 290.888 145.636C291.064 145.343 291.284 145.093 291.548 144.888C291.812 144.653 292.237 144.492 292.824 144.404C293.44 144.287 293.968 144.419 294.408 144.8C294.643 145.093 294.775 145.372 294.804 145.636C294.833 145.9 294.716 146.237 294.452 146.648C294.217 147.147 293.939 147.601 293.616 148.012C293.323 148.393 293.044 148.833 292.78 149.332C292.311 149.977 292.223 150.344 292.516 150.432C292.809 150.52 293.631 150.461 294.98 150.256C295.831 150.109 296.447 150.197 296.828 150.52C297.209 150.843 297.429 151.253 297.488 151.752C297.576 152.456 297.503 152.881 297.268 153.028C297.033 153.175 296.359 153.248 295.244 153.248C294.54 153.365 293.939 153.439 293.44 153.468C292.941 153.468 292.575 153.468 292.34 153.468C291.959 153.497 291.709 153.512 291.592 153.512C291.475 153.512 291.299 153.541 291.064 153.6C290.829 153.659 290.653 153.761 290.536 153.908C290.448 154.025 290.345 154.201 290.228 154.436C290.111 154.553 289.935 154.861 289.7 155.36C289.465 155.859 289.172 156.401 288.82 156.988C288.409 158.22 288.057 159.408 287.764 160.552C287.5 161.667 287.265 162.781 287.06 163.896C286.972 164.453 286.987 164.864 287.104 165.128C287.251 165.363 287.632 165.509 288.248 165.568C288.571 165.597 289.04 165.597 289.656 165.568C290.272 165.509 290.785 165.421 291.196 165.304C291.519 165.157 291.856 165.011 292.208 164.864C292.56 164.688 292.883 164.512 293.176 164.336C293.44 164.189 293.704 164.043 293.968 163.896C294.232 163.72 294.364 163.632 294.364 163.632C294.511 163.397 294.716 163.441 294.98 163.764C295.273 164.057 295.479 164.38 295.596 164.732C295.596 165.084 295.523 165.509 295.376 166.008C295.229 166.477 294.687 166.976 293.748 167.504C292.428 168.325 291.108 168.824 289.788 169C288.468 169.176 287.427 169.191 286.664 169.044ZM305.938 150.036C305.469 150.124 305.088 150.139 304.794 150.08C304.53 149.992 304.296 149.86 304.09 149.684C304.002 149.361 304.032 149.039 304.178 148.716C304.325 148.364 304.472 148.085 304.618 147.88C304.97 147.293 305.366 146.604 305.806 145.812C306.276 144.991 306.584 144.36 306.73 143.92C306.789 143.597 306.877 143.187 306.994 142.688C307.141 142.16 307.214 141.617 307.214 141.06C307.214 140.913 307.244 140.679 307.302 140.356C307.39 140.033 307.508 139.74 307.654 139.476C307.801 139.212 307.948 139.124 308.094 139.212C308.358 139.329 308.696 139.491 309.106 139.696C309.517 139.901 309.869 140.136 310.162 140.4C310.485 140.664 310.617 140.957 310.558 141.28C310.5 141.984 310.338 142.747 310.074 143.568C309.81 144.389 309.59 145.093 309.414 145.68C309.238 146.325 308.916 147 308.446 147.704C307.977 148.379 307.493 149.009 306.994 149.596C307.024 149.713 306.936 149.787 306.73 149.816C306.525 149.845 306.261 149.919 305.938 150.036ZM312.635 169.264C311.637 168.853 310.904 168.428 310.435 167.988C309.995 167.519 309.819 167.108 309.907 166.756C309.965 166.58 310.068 166.419 310.215 166.272C310.361 166.125 310.684 166.067 311.183 166.096C311.711 166.096 312.517 166.228 313.603 166.492C313.925 166.492 314.248 166.477 314.571 166.448C314.893 166.419 315.187 166.375 315.451 166.316C315.744 166.257 315.979 166.184 316.155 166.096C316.301 166.037 316.345 165.964 316.287 165.876C316.228 165.759 316.125 165.641 315.979 165.524C315.861 165.377 315.729 165.289 315.583 165.26C315.436 165.201 315.304 165.172 315.187 165.172C315.128 165.025 314.996 164.879 314.791 164.732C314.615 164.585 314.395 164.424 314.131 164.248C313.485 163.72 312.899 163.251 312.371 162.84C311.843 162.429 311.637 162.121 311.755 161.916C311.755 161.799 311.755 161.74 311.755 161.74C311.755 161.711 311.755 161.696 311.755 161.696C311.549 161.696 311.359 161.417 311.183 160.86C311.007 160.273 310.919 159.745 310.919 159.276C310.919 158.689 311.036 158.103 311.271 157.516C311.535 156.929 311.857 156.372 312.239 155.844C312.649 155.316 313.06 154.847 313.471 154.436C314.028 153.908 314.615 153.395 315.231 152.896C315.876 152.368 316.565 151.899 317.299 151.488C318.061 151.077 318.897 150.755 319.807 150.52C320.217 150.432 320.687 150.388 321.215 150.388C321.743 150.388 322.124 150.461 322.359 150.608C322.593 150.461 322.887 150.505 323.239 150.74C323.591 150.945 323.943 151.239 324.295 151.62C324.647 152.001 324.911 152.383 325.087 152.764C325.087 153.116 325.072 153.556 325.043 154.084C325.043 154.583 325.013 155.023 324.955 155.404C324.896 155.785 324.764 155.976 324.559 155.976C324.559 155.976 324.515 155.991 324.427 156.02C324.368 156.02 324.339 156.093 324.339 156.24C324.339 156.533 324.119 156.871 323.679 157.252C323.121 157.633 322.593 157.941 322.095 158.176C321.596 158.411 321.215 158.425 320.951 158.22C320.775 158.103 320.613 157.985 320.467 157.868C320.32 157.751 320.188 157.604 320.071 157.428C320.071 157.428 320.027 157.369 319.939 157.252C319.88 157.105 319.851 156.973 319.851 156.856C319.851 156.739 319.895 156.636 319.983 156.548C320.071 156.431 320.115 156.372 320.115 156.372C320.525 155.991 320.833 155.639 321.039 155.316C321.273 154.993 321.435 154.715 321.523 154.48C321.611 154.216 321.655 154.011 321.655 153.864C321.655 153.688 321.611 153.585 321.523 153.556C321.464 153.497 321.317 153.468 321.083 153.468C320.936 153.468 320.613 153.585 320.115 153.82C319.645 154.055 319.147 154.348 318.619 154.7C318.091 155.023 317.68 155.316 317.387 155.58C317.269 155.785 317.181 155.917 317.123 155.976C317.093 156.035 317.02 156.064 316.903 156.064C316.903 155.947 316.829 155.961 316.683 156.108C316.536 156.255 316.36 156.46 316.155 156.724C315.949 156.988 315.744 157.267 315.539 157.56C315.333 157.853 315.172 158.088 315.055 158.264C315.025 158.528 314.952 158.777 314.835 159.012C314.747 159.217 314.717 159.437 314.747 159.672C314.776 159.965 314.923 160.244 315.187 160.508C315.451 160.772 315.832 161.109 316.331 161.52C317.357 162.283 318.12 162.884 318.619 163.324C319.147 163.764 319.513 164.116 319.719 164.38C319.924 164.644 320.056 164.908 320.115 165.172C320.613 166.081 320.672 166.873 320.291 167.548C319.909 168.193 319.323 168.692 318.531 169.044C318.237 169.191 317.724 169.323 316.991 169.44C316.257 169.587 315.48 169.645 314.659 169.616C313.867 169.616 313.192 169.499 312.635 169.264ZM344.438 168.076C344.32 167.841 344.056 167.607 343.646 167.372C343.264 167.137 343.074 166.961 343.074 166.844C343.074 166.727 343 166.551 342.854 166.316C342.736 166.052 342.619 165.861 342.502 165.744C342.355 165.568 342.399 165.143 342.634 164.468C342.868 163.764 343.22 162.913 343.69 161.916C344.159 160.919 344.672 159.907 345.23 158.88C345.464 158.645 345.699 158.337 345.934 157.956C346.168 157.575 346.344 157.325 346.462 157.208C346.462 157.091 346.506 156.988 346.594 156.9C346.682 156.783 346.784 156.724 346.902 156.724L347.254 156.02C347.312 155.903 347.488 155.668 347.782 155.316C348.104 154.964 348.486 154.583 348.926 154.172C349.366 153.732 349.806 153.321 350.246 152.94C350.715 152.559 351.096 152.28 351.39 152.104C352.006 151.693 352.636 151.503 353.282 151.532C353.956 151.561 354.528 151.767 354.998 152.148C355.086 152.236 355.276 152.412 355.57 152.676C355.892 152.94 356.244 153.233 356.626 153.556C357.036 153.879 357.388 154.172 357.682 154.436L359.31 155.888L358.562 158.088C358.18 159.261 358.078 160.288 358.254 161.168C358.43 162.048 358.708 162.811 359.09 163.456C359.236 163.779 359.427 164.028 359.662 164.204C359.926 164.38 360.263 164.497 360.674 164.556C360.908 164.585 361.128 164.673 361.334 164.82C361.539 164.967 361.642 165.201 361.642 165.524C361.642 166.228 361.51 166.741 361.246 167.064C361.011 167.357 360.747 167.533 360.454 167.592C359.486 167.709 358.562 167.607 357.682 167.284C356.802 166.961 356.01 166.125 355.306 164.776C355.188 164.6 355.027 164.277 354.822 163.808C354.646 163.309 354.543 162.987 354.514 162.84C354.396 162.987 354.235 163.177 354.03 163.412C353.854 163.617 353.678 163.808 353.502 163.984C351.419 166.096 349.63 167.475 348.134 168.12C346.667 168.736 345.435 168.721 344.438 168.076ZM346.858 164.424C347.063 164.453 347.386 164.351 347.826 164.116C348.266 163.852 348.852 163.427 349.586 162.84C350.583 161.989 351.404 161.285 352.05 160.728C352.695 160.171 353.326 159.452 353.942 158.572L354.91 156.988C354.616 156.313 354.352 155.873 354.118 155.668C353.883 155.463 353.648 155.36 353.414 155.36C353.032 155.36 352.578 155.609 352.05 156.108C351.522 156.577 350.92 157.281 350.246 158.22C349.6 159.129 348.867 160.273 348.046 161.652C347.664 162.297 347.371 162.928 347.166 163.544C346.96 164.131 346.858 164.424 346.858 164.424ZM384.587 177.536C384.264 177.565 383.765 177.492 383.091 177.316C382.416 177.169 381.756 176.876 381.111 176.436C380.319 175.761 379.776 175.204 379.483 174.764C379.189 174.324 379.028 173.928 378.999 173.576C378.999 173.253 379.013 172.96 379.043 172.696C379.189 172.051 379.497 171.743 379.967 171.772C380.465 171.801 380.847 171.933 381.111 172.168C381.404 172.403 381.712 172.681 382.035 173.004C382.387 173.356 382.724 173.664 383.047 173.928C383.399 174.192 383.692 174.309 383.927 174.28C384.513 174.221 384.997 173.972 385.379 173.532C385.76 173.121 386.141 172.461 386.523 171.552C386.757 170.907 386.933 170.349 387.051 169.88C387.197 169.411 387.344 168.897 387.491 168.34C387.637 167.783 387.813 167.035 388.019 166.096C388.165 165.421 388.268 164.952 388.327 164.688C388.415 164.395 388.459 164.219 388.459 164.16C388.459 164.072 388.444 164.028 388.415 164.028C388.415 164.028 388.312 164.087 388.107 164.204C387.901 164.321 387.608 164.453 387.227 164.6C386.875 164.747 386.479 164.893 386.039 165.04C385.217 165.304 384.396 165.539 383.575 165.744C382.753 165.92 382.123 165.935 381.683 165.788C381.243 165.612 380.891 165.319 380.627 164.908C380.363 164.497 380.187 164.057 380.099 163.588C380.04 163.119 380.025 162.737 380.055 162.444C380.113 162.209 380.245 161.828 380.451 161.3C380.656 160.772 380.891 160.215 381.155 159.628C381.419 159.041 381.668 158.528 381.903 158.088C382.137 157.648 382.328 157.413 382.475 157.384C382.592 157.325 382.695 157.208 382.783 157.032C382.9 156.827 382.959 156.665 382.959 156.548C382.988 156.431 383.105 156.24 383.311 155.976C383.545 155.712 384.205 155.199 385.291 154.436C386.376 153.409 387.359 152.647 388.239 152.148C389.119 151.62 389.925 151.327 390.659 151.268C390.864 151.297 391.055 151.312 391.231 151.312C391.436 151.312 391.539 151.312 391.539 151.312C391.539 151.312 391.7 151.356 392.023 151.444C392.345 151.532 392.668 151.649 392.991 151.796C393.372 151.943 393.783 152.295 394.223 152.852C394.663 153.38 395.044 153.967 395.367 154.612C395.689 155.257 395.865 155.844 395.895 156.372C395.865 157.017 395.719 157.663 395.455 158.308C395.191 158.953 394.941 159.261 394.707 159.232C394.472 159.203 394.208 159.291 393.915 159.496C393.651 159.672 393.445 160.024 393.299 160.552C393.211 160.669 393.108 160.86 392.991 161.124C392.873 161.359 392.741 161.593 392.595 161.828C392.565 161.975 392.492 162.341 392.375 162.928C392.257 163.485 392.111 164.116 391.935 164.82C391.788 165.495 391.656 166.125 391.539 166.712C391.421 167.269 391.348 167.636 391.319 167.812C391.289 167.929 391.216 168.208 391.099 168.648C390.981 169.059 390.835 169.528 390.659 170.056C390.512 170.584 390.351 171.068 390.175 171.508C390.057 172.359 389.823 173.092 389.471 173.708C389.119 174.353 388.737 174.925 388.327 175.424C387.652 176.157 386.977 176.671 386.303 176.964C385.657 177.287 385.085 177.477 384.587 177.536ZM383.751 162.136C383.839 162.371 384.073 162.459 384.455 162.4C384.865 162.341 385.423 162.209 386.127 162.004C386.977 161.652 387.608 161.373 388.019 161.168C388.459 160.963 388.796 160.699 389.031 160.376C389.207 160.141 389.368 159.907 389.515 159.672C389.691 159.437 389.852 159.232 389.999 159.056C390.057 158.997 390.145 158.895 390.263 158.748C390.409 158.601 390.527 158.469 390.615 158.352C390.791 158.235 390.937 158.132 391.055 158.044C391.201 157.927 391.333 157.824 391.451 157.736C391.597 157.677 391.729 157.545 391.847 157.34C391.964 157.105 391.993 156.871 391.935 156.636C391.905 156.431 391.773 156.152 391.539 155.8C391.304 155.419 390.981 155.125 390.571 154.92C390.189 154.685 389.735 154.847 389.207 155.404C388.708 155.961 387.901 156.709 386.787 157.648C386.141 158.352 385.569 159.012 385.071 159.628C384.572 160.215 384.205 160.728 383.971 161.168C383.736 161.579 383.663 161.901 383.751 162.136ZM401.582 168.34C401.377 168.34 401.098 168.193 400.746 167.9C400.423 167.607 400.233 167.343 400.174 167.108C400.086 166.873 400.086 166.536 400.174 166.096C400.291 165.627 400.453 165.084 400.658 164.468C400.893 163.5 401.054 162.796 401.142 162.356C401.23 161.916 401.318 161.535 401.406 161.212C401.494 160.889 401.611 160.42 401.758 159.804C401.934 159.423 402.066 159.056 402.154 158.704C402.271 158.323 402.389 157.941 402.506 157.56C402.653 157.179 402.814 156.797 402.99 156.416C403.195 155.653 403.445 154.935 403.738 154.26C404.061 153.556 404.369 152.969 404.662 152.5C404.721 152.412 404.853 152.251 405.058 152.016C405.263 151.781 405.425 151.664 405.542 151.664C405.777 151.429 406.099 151.356 406.51 151.444C406.921 151.503 407.273 151.649 407.566 151.884C407.918 152.265 408.109 152.72 408.138 153.248C408.197 153.747 407.991 154.451 407.522 155.36C407.17 156.269 406.833 156.988 406.51 157.516C406.217 158.015 405.923 158.601 405.63 159.276C405.953 158.807 406.349 158.323 406.818 157.824C407.287 157.325 407.654 156.929 407.918 156.636C408.299 156.225 408.651 155.903 408.974 155.668C409.326 155.404 409.795 155.081 410.382 154.7C410.881 154.348 411.379 154.025 411.878 153.732C412.406 153.439 413.037 153.351 413.77 153.468C414.063 153.439 414.371 153.585 414.694 153.908C415.046 154.231 415.31 154.656 415.486 155.184C415.691 155.683 415.691 156.225 415.486 156.812C414.811 156.665 414.21 156.695 413.682 156.9C413.154 157.076 412.699 157.296 412.318 157.56C411.966 157.824 411.687 158.029 411.482 158.176C411.189 158.352 410.851 158.587 410.47 158.88C410.089 159.144 409.678 159.452 409.238 159.804C408.798 160.127 408.329 160.493 407.83 160.904C407.126 161.491 406.598 162.004 406.246 162.444C405.894 162.884 405.615 163.353 405.41 163.852C405.234 164.292 405.014 164.82 404.75 165.436C404.486 166.052 404.237 166.609 404.002 167.108C403.767 167.577 403.577 167.871 403.43 167.988C403.283 168.281 402.975 168.443 402.506 168.472C402.066 168.501 401.758 168.457 401.582 168.34ZM424.082 169.792C422.468 169.792 421.222 169.323 420.342 168.384C419.491 167.445 419.066 166.008 419.066 164.072C419.066 163.016 419.256 161.857 419.638 160.596C420.048 159.335 420.576 158.103 421.222 156.9C421.896 155.697 422.63 154.656 423.422 153.776C424.214 152.867 425.006 152.236 425.798 151.884C426.091 151.737 426.399 151.635 426.722 151.576C427.074 151.488 427.411 151.444 427.734 151.444C428.086 151.444 428.467 151.473 428.878 151.532C429.318 151.561 429.728 151.649 430.11 151.796C430.784 152.001 431.371 152.397 431.87 152.984C432.398 153.571 432.662 154.421 432.662 155.536C432.662 155.829 432.632 156.152 432.574 156.504C432.515 156.827 432.412 157.149 432.266 157.472C431.884 158.44 431.298 159.364 430.506 160.244C429.743 161.124 428.936 161.74 428.086 162.092C427.851 162.209 427.616 162.297 427.382 162.356C427.176 162.385 426.956 162.4 426.722 162.4C426.106 162.4 425.548 162.312 425.05 162.136C424.58 161.96 424.14 161.725 423.73 161.432L423.378 161.124L423.158 161.564C422.952 162.121 422.806 162.591 422.718 162.972C422.659 163.353 422.63 163.632 422.63 163.808C422.63 164.16 422.644 164.527 422.674 164.908C422.703 165.26 422.791 165.553 422.938 165.788C423.055 165.935 423.202 166.052 423.378 166.14C423.583 166.228 423.832 166.272 424.126 166.272C424.302 166.272 424.463 166.272 424.61 166.272C424.786 166.243 424.932 166.213 425.05 166.184C425.578 166.067 426.003 165.876 426.326 165.612C426.678 165.319 427.044 165.069 427.426 164.864L427.602 164.776L427.558 164.644C428.056 164.38 428.394 164.219 428.57 164.16C428.746 164.072 428.878 163.999 428.966 163.94C429.083 163.823 429.215 163.764 429.362 163.764C429.772 163.705 430.168 163.823 430.55 164.116C430.96 164.38 431.166 164.717 431.166 165.128C431.166 165.304 431.034 165.583 430.77 165.964C430.535 166.345 430.227 166.727 429.846 167.108C429.494 167.46 429.127 167.739 428.746 167.944C428.658 167.973 428.57 168.017 428.482 168.076C428.394 168.105 428.306 168.149 428.218 168.208H428.262C427.998 168.56 427.734 168.736 427.47 168.736H427.118C427 168.941 426.619 169.161 425.974 169.396C425.328 169.66 424.698 169.792 424.082 169.792ZM426.37 159.188C426.634 159.188 426.868 159.144 427.074 159.056C427.308 158.968 427.528 158.865 427.734 158.748C428.438 158.249 428.892 157.604 429.098 156.812C429.303 156.02 429.23 155.419 428.878 155.008C428.819 154.92 428.746 154.861 428.658 154.832C428.57 154.773 428.467 154.744 428.35 154.744C428.027 154.744 427.66 154.847 427.25 155.052C426.868 155.257 426.487 155.551 426.106 155.932C425.724 156.313 425.372 156.768 425.05 157.296L424.478 158.22C424.536 158.191 424.58 158.176 424.61 158.176C424.668 158.147 424.712 158.132 424.742 158.132C425.006 158.132 425.182 158.22 425.27 158.396C425.358 158.572 425.46 158.748 425.578 158.924C425.724 159.1 425.988 159.188 426.37 159.188ZM440.801 168.604C439.657 168.135 438.865 167.372 438.425 166.316C437.985 165.26 437.868 163.852 438.073 162.092C438.132 161.183 438.102 160.581 437.985 160.288C437.868 159.965 437.648 159.657 437.325 159.364C437.237 159.247 437.032 159.056 436.709 158.792C436.386 158.499 436.24 158.279 436.269 158.132C436.24 157.927 436.284 157.677 436.401 157.384C436.518 157.061 436.621 156.885 436.709 156.856C436.914 156.768 437.12 156.665 437.325 156.548C437.56 156.431 437.736 156.401 437.853 156.46C437.97 156.46 438.146 156.533 438.381 156.68C438.645 156.827 438.777 156.959 438.777 157.076C438.894 157.281 439.07 157.193 439.305 156.812C439.569 156.431 439.848 155.947 440.141 155.36C440.434 154.891 440.801 154.451 441.241 154.04C441.681 153.629 442.121 153.263 442.561 152.94C443.03 152.588 443.426 152.324 443.749 152.148C443.896 152.089 444.174 152.001 444.585 151.884C445.025 151.767 445.48 151.679 445.949 151.62C446.418 151.532 446.77 151.503 447.005 151.532C447.533 151.561 448.09 151.781 448.677 152.192C449.264 152.603 449.718 152.984 450.041 153.336C450.422 153.6 450.672 154.011 450.789 154.568C450.936 155.096 450.994 155.653 450.965 156.24C450.936 156.827 450.818 157.325 450.613 157.736C450.525 158.029 450.217 158.44 449.689 158.968C449.161 159.496 448.574 160.009 447.929 160.508C447.313 160.977 446.785 161.3 446.345 161.476C445.964 161.564 445.509 161.637 444.981 161.696C444.453 161.725 443.954 161.725 443.485 161.696C443.045 161.637 442.737 161.564 442.561 161.476C442.356 161.359 442.18 161.403 442.033 161.608C441.916 161.784 441.813 162.283 441.725 163.104C441.696 163.427 441.696 163.705 441.725 163.94C441.784 164.175 441.842 164.351 441.901 164.468C442.106 164.82 442.312 165.084 442.517 165.26C442.722 165.407 443.104 165.451 443.661 165.392C444.218 165.333 444.776 164.996 445.333 164.38C445.92 163.735 446.448 163.221 446.917 162.84C447.034 162.635 447.284 162.503 447.665 162.444C448.076 162.356 448.56 162.385 449.117 162.532C449.44 162.737 449.586 163.06 449.557 163.5C449.557 163.94 449.322 164.585 448.853 165.436C448.765 165.641 448.516 165.949 448.105 166.36C447.724 166.741 447.298 167.137 446.829 167.548C446.389 167.929 446.022 168.208 445.729 168.384C444.849 168.853 443.984 169.073 443.133 169.044C442.282 169.015 441.505 168.868 440.801 168.604ZM444.057 158.704C444.497 158.587 444.864 158.469 445.157 158.352C445.48 158.235 445.788 158.044 446.081 157.78C446.374 157.516 446.712 157.12 447.093 156.592C447.21 156.269 447.269 155.991 447.269 155.756C447.298 155.521 447.284 155.375 447.225 155.316C446.99 155.081 446.726 155.008 446.433 155.096C446.169 155.155 445.876 155.301 445.553 155.536C445.348 155.624 445.054 155.815 444.673 156.108C444.321 156.372 443.969 156.68 443.617 157.032C443.294 157.355 443.03 157.663 442.825 157.956C442.649 158.22 442.62 158.381 442.737 158.44C442.678 158.557 442.84 158.631 443.221 158.66C443.632 158.689 443.91 158.704 444.057 158.704ZM471.16 167.944C470.515 167.885 469.972 167.753 469.532 167.548C469.122 167.313 468.784 166.859 468.52 166.184C468.403 165.715 468.344 165.231 468.344 164.732C468.374 164.204 468.418 163.705 468.476 163.236C468.535 162.737 468.564 162.312 468.564 161.96C468.564 161.901 468.564 161.784 468.564 161.608C468.564 161.432 468.564 161.271 468.564 161.124C468.506 160.684 468.388 160.42 468.212 160.332C468.066 160.215 467.802 160.229 467.42 160.376C466.804 160.669 466.13 161.065 465.396 161.564C464.692 162.033 463.944 162.591 463.152 163.236C462.39 163.852 461.598 164.512 460.776 165.216C460.131 165.92 459.647 166.492 459.324 166.932C459.031 167.372 458.723 167.592 458.4 167.592C458.166 167.709 457.916 167.68 457.652 167.504C457.388 167.328 457.11 167.123 456.816 166.888C456.611 166.653 456.362 166.36 456.068 166.008C455.804 165.627 455.643 165.377 455.584 165.26C455.584 164.791 455.614 164.365 455.672 163.984C455.76 163.603 455.878 163.207 456.024 162.796C456.2 162.385 456.406 161.916 456.64 161.388C456.758 161.183 456.86 160.977 456.948 160.772C457.066 160.537 457.198 160.288 457.344 160.024C457.462 159.613 457.623 159.144 457.828 158.616C458.063 158.088 458.283 157.589 458.488 157.12C458.811 156.357 459.06 155.697 459.236 155.14C459.412 154.583 459.559 153.981 459.676 153.336C459.647 153.277 459.662 153.189 459.72 153.072C459.779 152.955 459.867 152.881 459.984 152.852H460.028H460.072C460.278 152.705 460.659 152.691 461.216 152.808C461.803 152.896 462.243 153.057 462.536 153.292C463.152 153.82 463.446 154.509 463.416 155.36C463.387 156.211 462.947 157.325 462.096 158.704C461.891 159.173 461.671 159.613 461.436 160.024C461.231 160.405 461.128 160.669 461.128 160.816C461.128 160.816 461.246 160.728 461.48 160.552C461.715 160.376 461.994 160.171 462.316 159.936C462.639 159.672 462.918 159.467 463.152 159.32C463.299 159.173 463.622 158.909 464.12 158.528C464.619 158.117 465.162 157.692 465.748 157.252C466.335 156.812 466.804 156.475 467.156 156.24C467.479 156.005 467.89 155.771 468.388 155.536C468.887 155.272 469.195 155.14 469.312 155.14C469.606 155.14 469.958 155.243 470.368 155.448C470.808 155.653 471.204 155.903 471.556 156.196C471.938 156.46 472.158 156.709 472.216 156.944C472.216 157.061 472.202 157.223 472.172 157.428C472.143 157.604 472.128 157.765 472.128 157.912C472.099 158.381 472.084 158.953 472.084 159.628C472.114 160.273 472.128 160.933 472.128 161.608C472.128 162.253 472.07 162.84 471.952 163.368C471.952 163.368 471.967 163.397 471.996 163.456C472.026 163.485 472.055 163.544 472.084 163.632C472.055 163.661 472.04 163.72 472.04 163.808C472.07 163.867 472.084 163.896 472.084 163.896C472.143 164.101 472.202 164.307 472.26 164.512C472.348 164.717 472.451 164.952 472.568 165.216C472.686 165.451 472.818 165.759 472.964 166.14C472.935 166.521 472.715 166.903 472.304 167.284C471.923 167.636 471.542 167.856 471.16 167.944ZM498.14 168.384C497.758 168.472 497.26 168.413 496.644 168.208C496.028 167.973 495.426 167.695 494.84 167.372C494.282 167.02 493.901 166.741 493.696 166.536C493.49 166.301 493.432 166.096 493.52 165.92C493.608 165.715 493.754 165.612 493.96 165.612C494.077 165.612 494.268 165.495 494.532 165.26C494.796 164.996 494.957 164.527 495.016 163.852C495.074 163.441 495.148 163.089 495.236 162.796C495.353 162.473 495.412 162.253 495.412 162.136C495.441 162.048 495.47 161.813 495.5 161.432C495.558 161.021 495.646 160.669 495.764 160.376C495.881 159.848 496.057 159.173 496.292 158.352C496.526 157.501 496.761 156.68 496.996 155.888C497.26 155.067 497.465 154.436 497.612 153.996C497.67 153.673 497.802 153.263 498.008 152.764C498.213 152.265 498.389 151.869 498.536 151.576C498.829 150.755 499.225 149.757 499.724 148.584C500.252 147.411 500.794 146.237 501.352 145.064C501.909 143.861 502.393 142.849 502.804 142.028C503.244 141.177 503.522 140.664 503.64 140.488C503.874 140.253 504.256 140.165 504.784 140.224C505.312 140.283 505.737 140.473 506.06 140.796C506.324 141.119 506.573 141.456 506.808 141.808C507.042 142.16 506.984 142.541 506.632 142.952C506.514 143.157 506.324 143.48 506.06 143.92C505.796 144.331 505.59 144.639 505.444 144.844C505.209 145.548 504.916 146.237 504.564 146.912C504.241 147.587 503.889 148.349 503.508 149.2C503.126 150.021 502.716 151.048 502.276 152.28C502.012 152.837 501.792 153.395 501.616 153.952C501.44 154.48 501.293 154.817 501.176 154.964C501 155.609 500.809 156.093 500.604 156.416C500.428 156.739 500.281 157.252 500.164 157.956C500.164 157.956 500.31 157.809 500.604 157.516C500.926 157.223 501.308 156.856 501.748 156.416C502.892 155.184 503.918 154.245 504.828 153.6C505.737 152.955 506.573 152.617 507.336 152.588C507.746 152.559 508.186 152.661 508.656 152.896C509.154 153.131 509.609 153.424 510.02 153.776C510.43 154.099 510.709 154.451 510.856 154.832C511.09 155.36 511.208 156.049 511.208 156.9C511.208 157.721 511.076 158.572 510.812 159.452C510.577 160.332 510.196 161.109 509.668 161.784C509.345 162.341 508.949 162.884 508.48 163.412C508.04 163.911 507.658 164.277 507.336 164.512C507.042 164.776 506.749 165.04 506.456 165.304C506.192 165.539 505.972 165.729 505.796 165.876C505.414 166.14 505.106 166.345 504.872 166.492C504.637 166.609 504.314 166.741 503.904 166.888C503.288 167.328 502.437 167.651 501.352 167.856C500.266 168.061 499.196 168.237 498.14 168.384ZM499.24 165.04C499.445 165.04 499.812 164.996 500.34 164.908C500.897 164.82 501.41 164.6 501.88 164.248C503.258 163.544 504.358 162.767 505.18 161.916C506.03 161.065 506.632 160.215 506.984 159.364C507.336 158.513 507.482 157.751 507.424 157.076C507.365 156.401 506.998 156.196 506.324 156.46C505.678 156.695 504.666 157.501 503.288 158.88C502.642 159.467 502.085 160.024 501.616 160.552C501.146 161.08 500.662 161.637 500.164 162.224C499.958 162.547 499.753 162.811 499.548 163.016C499.372 163.192 499.269 163.397 499.24 163.632C499.034 164.571 499.034 165.04 499.24 165.04ZM527.415 168.912C527.121 168.619 526.887 168.223 526.711 167.724C526.535 167.196 526.359 166.595 526.183 165.92C526.124 165.685 526.095 165.421 526.095 165.128C526.124 164.835 526.124 164.6 526.095 164.424C526.007 164.629 525.86 164.893 525.655 165.216C525.479 165.539 525.303 165.773 525.127 165.92C525.009 166.037 524.745 166.272 524.335 166.624C523.924 166.947 523.513 167.211 523.103 167.416C522.135 168.032 521.269 168.325 520.507 168.296C519.773 168.237 519.128 167.856 518.571 167.152C518.101 166.771 517.72 166.287 517.427 165.7C517.133 165.113 517.075 164.409 517.251 163.588C517.309 162.561 517.456 161.564 517.691 160.596C517.925 159.599 518.409 158.279 519.143 156.636C519.759 155.433 520.228 154.495 520.551 153.82C520.873 153.145 521.079 152.749 521.167 152.632C521.607 152.485 522.149 152.5 522.795 152.676C523.44 152.823 523.792 153.101 523.851 153.512C524.027 153.805 524.027 154.363 523.851 155.184C523.675 155.976 523.323 156.885 522.795 157.912C522.384 158.909 521.988 159.877 521.607 160.816C521.255 161.755 521.035 162.547 520.947 163.192C520.888 163.837 521.064 164.233 521.475 164.38C521.739 164.527 522.12 164.512 522.619 164.336C523.147 164.16 523.763 163.632 524.467 162.752C525.171 161.872 525.919 160.479 526.711 158.572C526.945 157.985 527.121 157.472 527.239 157.032C527.356 156.563 527.429 156.049 527.459 155.492C527.4 155.14 527.488 154.773 527.723 154.392C527.987 154.011 528.295 153.717 528.647 153.512C528.764 153.365 528.925 153.233 529.131 153.116C529.336 152.969 529.468 152.969 529.527 153.116L530.231 153.072C530.348 153.043 530.48 153.16 530.627 153.424C530.773 153.688 530.92 153.879 531.067 153.996C531.389 154.26 531.536 154.832 531.507 155.712C531.477 156.592 531.125 157.824 530.451 159.408C529.893 160.611 529.512 161.52 529.307 162.136C529.131 162.752 529.028 163.353 528.999 163.94C528.999 164.468 529.043 164.923 529.131 165.304C529.219 165.656 529.483 166.023 529.923 166.404C530.245 166.609 530.421 166.961 530.451 167.46C530.509 167.929 530.524 168.34 530.495 168.692C530.436 168.956 530.201 169.132 529.791 169.22C529.409 169.337 528.984 169.367 528.515 169.308C528.075 169.249 527.708 169.117 527.415 168.912ZM539.96 168.956C539.256 168.956 538.64 168.589 538.112 167.856C537.613 167.093 537.305 166.184 537.188 165.128C537.217 164.893 537.246 164.556 537.276 164.116C537.334 163.676 537.393 163.221 537.452 162.752C537.569 162.195 537.73 161.476 537.936 160.596C538.141 159.716 538.361 158.836 538.596 157.956C538.83 157.047 539.036 156.269 539.212 155.624C539.388 154.949 539.49 154.553 539.52 154.436C539.696 154.025 540.092 153.923 540.708 154.128C541.324 154.333 541.852 154.773 542.292 155.448C542.468 155.683 542.57 155.961 542.6 156.284C542.658 156.607 542.614 157.076 542.468 157.692C542.35 158.308 542.116 159.217 541.764 160.42C541.441 161.593 541.192 162.547 541.016 163.28C540.869 163.984 540.81 164.732 540.84 165.524C540.722 166.873 540.605 167.797 540.488 168.296C540.37 168.765 540.194 168.985 539.96 168.956ZM544.008 150.696C543.89 150.784 543.773 150.828 543.656 150.828C543.568 150.799 543.406 150.711 543.172 150.564C542.966 150.535 542.702 150.403 542.38 150.168C542.086 149.904 541.822 149.64 541.588 149.376C541.382 149.112 541.28 148.951 541.28 148.892C541.25 148.599 541.265 148.129 541.324 147.484C541.412 146.839 541.573 146.237 541.808 145.68C542.072 145.093 542.424 144.785 542.864 144.756C542.981 144.756 543.23 144.815 543.612 144.932C544.022 145.049 544.448 145.196 544.888 145.372C545.122 145.812 545.342 146.384 545.548 147.088C545.753 147.792 545.768 148.481 545.592 149.156C545.445 149.801 544.917 150.315 544.008 150.696ZM549.3 170.32C548.919 170.173 548.611 169.939 548.376 169.616C548.142 169.323 548.01 168.883 547.98 168.296C547.951 167.915 547.966 167.357 548.024 166.624C548.083 165.861 548.186 165.099 548.332 164.336C548.332 164.277 548.332 164.219 548.332 164.16C548.362 164.072 548.376 164.013 548.376 163.984C548.406 163.867 548.435 163.691 548.464 163.456C548.494 163.192 548.523 162.987 548.552 162.84C548.611 162.664 548.64 162.649 548.64 162.796L548.904 161.608C549.022 161.08 549.154 160.537 549.3 159.98C549.447 159.423 549.579 158.939 549.696 158.528C549.843 158.088 549.931 157.839 549.96 157.78C549.96 157.78 550.004 157.619 550.092 157.296C550.21 156.944 550.327 156.592 550.444 156.24C550.914 154.773 551.354 153.556 551.764 152.588C552.204 151.62 552.586 150.916 552.908 150.476C552.938 150.388 552.982 150.285 553.04 150.168C553.099 150.021 553.143 149.904 553.172 149.816C553.172 149.493 553.187 149.259 553.216 149.112C553.275 148.965 553.348 148.833 553.436 148.716C553.495 148.599 553.583 148.452 553.7 148.276C553.818 148.071 553.95 147.821 554.096 147.528L554.272 147.044C554.448 146.663 554.668 146.223 554.932 145.724C555.196 145.196 555.387 144.8 555.504 144.536C555.592 144.272 555.768 143.964 556.032 143.612C556.296 143.231 556.59 142.981 556.912 142.864L556.868 142.82C557.015 142.556 557.294 142.351 557.704 142.204C558.115 142.028 558.452 141.94 558.716 141.94C559.127 141.94 559.435 142.057 559.64 142.292C559.875 142.527 559.992 142.849 559.992 143.26C559.992 143.7 559.978 144.023 559.948 144.228C559.948 144.404 559.846 144.609 559.64 144.844H559.684C559.743 144.785 559.728 144.873 559.64 145.108C559.552 145.343 559.479 145.504 559.42 145.592C559.362 145.739 559.288 145.9 559.2 146.076C559.142 146.252 559.068 146.384 558.98 146.472C558.892 146.589 558.658 147 558.276 147.704C557.895 148.379 557.47 149.185 557 150.124C556.531 151.033 556.076 151.928 555.636 152.808C555.226 153.659 554.932 154.319 554.756 154.788L554.536 155.448C554.507 155.565 554.492 155.653 554.492 155.712C554.404 155.917 554.316 156.123 554.228 156.328C554.14 156.533 554.052 156.709 553.964 156.856L553.26 159.584L553.084 160.508L552.688 161.52L552.424 162.356C552.366 162.532 552.322 162.723 552.292 162.928C552.263 163.133 552.204 163.28 552.116 163.368C552.116 163.397 552.102 163.441 552.072 163.5C552.072 163.529 552.072 163.559 552.072 163.588C551.955 164.057 551.75 164.717 551.456 165.568C551.192 166.419 551.031 167.357 550.972 168.384C550.972 168.413 550.958 168.443 550.928 168.472C550.928 168.501 550.928 168.531 550.928 168.56C550.84 169.176 550.65 169.645 550.356 169.968C550.092 170.32 549.74 170.437 549.3 170.32ZM572.389 169.836C572.007 169.924 571.626 169.821 571.245 169.528C570.893 169.264 570.643 168.971 570.497 168.648C570.321 168.179 570.203 167.739 570.145 167.328C570.115 166.888 570.086 166.389 570.057 165.832L570.013 164.336L568.209 165.964C567.211 166.903 566.273 167.577 565.393 167.988C564.542 168.369 563.765 168.56 563.061 168.56C562.738 168.501 562.342 168.296 561.873 167.944C561.433 167.563 561.022 167.152 560.641 166.712C560.289 166.243 560.039 165.861 559.893 165.568C559.717 165.157 559.658 164.585 559.717 163.852C559.805 163.119 559.981 162.312 560.245 161.432C560.538 160.552 560.89 159.687 561.301 158.836C561.741 157.985 562.239 157.252 562.797 156.636C563.765 155.169 564.967 154.26 566.405 153.908C567.842 153.527 569.118 153.644 570.233 154.26C570.761 154.524 571.142 154.627 571.377 154.568C571.611 154.509 571.758 154.319 571.817 153.996C571.934 153.527 572.066 153.087 572.213 152.676C572.359 152.265 572.565 151.649 572.829 150.828C573.562 148.599 574.193 146.853 574.721 145.592C575.278 144.331 575.777 143.231 576.217 142.292C576.539 141.617 576.862 141.148 577.185 140.884C577.507 140.62 577.786 140.503 578.021 140.532C578.343 140.532 578.739 140.649 579.209 140.884C579.707 141.119 580.03 141.441 580.177 141.852C580.294 142.116 580.338 142.395 580.309 142.688C580.309 142.981 580.221 143.289 580.045 143.612C579.663 144.316 579.209 145.255 578.681 146.428C578.182 147.572 577.669 148.833 577.141 150.212C576.642 151.591 576.173 152.955 575.733 154.304C575.293 155.653 574.926 156.841 574.633 157.868C574.457 158.513 574.31 159.335 574.193 160.332C574.105 161.329 574.031 162.356 573.973 163.412C573.943 164.439 573.943 165.363 573.973 166.184C574.002 166.976 574.046 167.489 574.105 167.724C574.281 168.311 574.281 168.751 574.105 169.044C573.929 169.337 573.679 169.528 573.357 169.616C573.034 169.733 572.711 169.807 572.389 169.836ZM565.129 164.512C565.539 164.365 565.906 164.189 566.229 163.984C566.551 163.779 566.933 163.515 567.373 163.192C568.253 162.517 568.883 161.931 569.265 161.432C569.675 160.933 569.998 160.317 570.233 159.584C570.379 159.144 570.379 158.763 570.233 158.44C570.115 158.117 569.895 157.809 569.573 157.516C569.25 157.252 568.839 157.149 568.341 157.208C567.842 157.237 567.27 157.545 566.625 158.132C565.921 158.777 565.319 159.525 564.821 160.376C564.322 161.227 563.911 162.444 563.589 164.028C563.53 164.321 563.633 164.527 563.897 164.644C564.161 164.761 564.571 164.717 565.129 164.512ZM582.92 167.548C582.802 167.548 582.553 167.46 582.172 167.284C581.79 167.108 581.6 167.02 581.6 167.02C581.6 166.903 581.556 166.756 581.468 166.58C581.409 166.404 581.38 166.257 581.38 166.14C581.174 166.023 580.969 165.832 580.764 165.568C580.558 165.304 580.514 165.011 580.632 164.688C580.808 164.365 581.042 163.881 581.336 163.236C581.658 162.561 581.996 161.813 582.348 160.992C582.729 160.141 583.081 159.32 583.404 158.528C583.726 157.736 584.005 157.061 584.24 156.504C584.474 155.917 584.606 155.565 584.636 155.448C584.636 155.331 584.65 155.125 584.68 154.832C584.738 154.539 584.929 154.289 585.252 154.084C585.633 153.82 586.029 153.805 586.44 154.04C586.85 154.275 587.202 154.685 587.496 155.272C587.789 155.829 587.936 156.489 587.936 157.252C587.936 157.457 587.789 157.985 587.496 158.836C587.202 159.657 586.806 160.64 586.308 161.784C585.838 162.928 585.31 164.087 584.724 165.26C584.284 166.111 583.946 166.712 583.712 167.064C583.506 167.387 583.242 167.548 582.92 167.548ZM588.904 150.696C588.552 150.696 588.126 150.535 587.628 150.212C587.158 149.889 586.733 149.479 586.352 148.98C585.97 148.481 585.78 147.953 585.78 147.396C585.78 147.249 585.912 146.985 586.176 146.604C586.44 146.193 586.689 145.797 586.924 145.416C587.188 145.035 587.32 144.815 587.32 144.756C587.554 144.756 587.833 144.8 588.156 144.888C588.478 144.976 588.742 145.079 588.948 145.196C589.27 145.929 589.696 146.56 590.224 147.088C590.752 147.587 591.016 148.159 591.016 148.804C591.016 149.449 590.854 149.933 590.532 150.256C590.209 150.549 589.666 150.696 588.904 150.696ZM607.749 168.824C607.309 168.824 606.883 168.692 606.473 168.428C606.062 168.135 605.725 167.739 605.461 167.24C605.197 166.712 605.065 166.096 605.065 165.392C605.065 164.952 605.138 164.336 605.285 163.544C605.461 162.723 605.71 161.696 606.033 160.464C606.091 160.053 606.135 159.789 606.165 159.672C606.223 159.555 606.253 159.437 606.253 159.32C606.253 159.261 606.238 159.217 606.209 159.188C606.209 159.129 606.179 159.1 606.121 159.1C605.886 159.1 605.563 159.261 605.153 159.584C604.771 159.877 604.331 160.229 603.833 160.64C603.745 160.699 603.642 160.772 603.525 160.86C603.437 160.948 603.334 161.036 603.217 161.124C603.129 161.212 603.026 161.3 602.909 161.388C602.615 161.564 602.161 161.901 601.545 162.4C600.958 162.899 600.342 163.427 599.697 163.984C599.081 164.541 598.538 165.011 598.069 165.392C597.834 165.568 597.629 165.715 597.453 165.832C597.306 165.949 597.203 166.008 597.145 166.008C597.086 166.008 596.851 165.935 596.441 165.788C596.059 165.612 595.678 165.377 595.297 165.084C594.945 164.761 594.769 164.395 594.769 163.984C594.769 163.72 594.871 163.192 595.077 162.4C595.311 161.608 595.634 160.669 596.045 159.584C596.455 158.499 596.925 157.399 597.453 156.284C597.57 156.02 597.658 155.668 597.717 155.228C597.775 154.788 597.834 154.363 597.893 153.952C597.981 153.512 598.127 153.189 598.333 152.984C598.421 152.837 598.523 152.735 598.641 152.676C598.787 152.588 598.934 152.544 599.081 152.544C599.374 152.544 599.653 152.617 599.917 152.764C600.181 152.881 600.43 153.087 600.665 153.38C601.105 153.849 601.339 154.407 601.369 155.052C601.427 155.668 601.383 156.269 601.237 156.856C601.09 157.443 600.929 157.927 600.753 158.308C600.577 158.66 600.489 158.807 600.489 158.748C600.606 158.689 600.767 158.543 600.973 158.308C601.207 158.073 601.603 157.795 602.161 157.472C602.923 156.885 603.51 156.475 603.921 156.24C604.331 155.976 604.639 155.785 604.845 155.668C605.079 155.551 605.285 155.419 605.461 155.272C605.607 155.155 605.71 155.081 605.769 155.052C605.857 155.023 605.901 155.008 605.901 155.008C605.989 155.008 606.135 154.949 606.341 154.832C606.575 154.715 606.795 154.656 607.001 154.656C607.294 154.656 607.602 154.729 607.925 154.876C608.247 154.993 608.526 155.169 608.761 155.404C608.995 155.609 609.113 155.829 609.113 156.064C609.113 156.152 609.142 156.225 609.201 156.284C609.259 156.343 609.318 156.416 609.377 156.504C609.523 156.68 609.685 156.929 609.861 157.252C610.066 157.545 610.169 158.029 610.169 158.704C610.169 159.173 610.066 159.863 609.861 160.772C609.655 161.681 609.435 162.576 609.201 163.456C608.966 164.365 608.849 165.099 608.849 165.656C608.878 166.184 608.937 166.595 609.025 166.888C609.113 167.152 609.157 167.372 609.157 167.548C609.157 167.783 609.039 168.061 608.805 168.384C608.57 168.677 608.218 168.824 607.749 168.824ZM623.192 177.668C622.664 177.932 621.975 177.991 621.124 177.844C620.303 177.697 619.481 177.404 618.66 176.964C617.868 176.553 617.223 176.069 616.724 175.512C616.46 175.219 616.225 174.867 616.02 174.456C615.815 174.045 615.683 173.649 615.624 173.268C615.565 172.916 615.639 172.681 615.844 172.564C616.108 172.388 616.416 172.3 616.768 172.3C617.149 172.3 617.472 172.344 617.736 172.432C618.029 172.52 618.176 172.623 618.176 172.74C618.499 173.033 618.807 173.283 619.1 173.488C619.423 173.723 619.731 173.899 620.024 174.016C620.435 174.192 620.801 174.221 621.124 174.104C621.476 174.016 621.799 173.825 622.092 173.532C622.327 173.209 622.532 172.799 622.708 172.3C622.913 171.831 623.075 171.288 623.192 170.672L623.324 170.1C623.647 168.633 623.955 167.255 624.248 165.964C624.571 164.644 624.835 163.691 625.04 163.104C624.981 163.104 624.908 163.119 624.82 163.148C624.732 163.177 624.644 163.221 624.556 163.28C624.38 163.368 624.204 163.456 624.028 163.544C623.852 163.632 623.676 163.72 623.5 163.808C623.119 164.013 622.781 164.175 622.488 164.292C622.195 164.38 621.931 164.453 621.696 164.512C621.315 164.629 621.036 164.673 620.86 164.644C620.684 164.615 620.537 164.6 620.42 164.6C620.127 164.6 619.745 164.512 619.276 164.336C618.807 164.131 618.411 163.881 618.088 163.588C617.824 163.324 617.633 163.06 617.516 162.796C617.399 162.503 617.325 162.195 617.296 161.872C617.267 161.549 617.252 161.227 617.252 160.904C617.252 160.464 617.487 159.687 617.956 158.572C618.425 157.428 619.115 156.313 620.024 155.228C620.581 154.671 621.315 154.113 622.224 153.556C623.133 152.999 624.057 152.529 624.996 152.148C625.964 151.737 626.756 151.532 627.372 151.532C627.489 151.532 627.621 151.547 627.768 151.576C627.944 151.605 628.105 151.679 628.252 151.796C628.751 151.913 629.249 152.192 629.748 152.632C630.247 153.043 630.687 153.585 631.068 154.26C631.303 154.729 631.493 155.228 631.64 155.756C631.816 156.284 631.904 156.841 631.904 157.428C631.904 157.897 631.816 158.308 631.64 158.66C631.493 158.983 631.347 159.173 631.2 159.232C631.141 159.291 631.068 159.335 630.98 159.364C630.892 159.364 630.789 159.379 630.672 159.408C630.613 159.408 630.496 159.437 630.32 159.496C630.144 159.584 629.968 159.745 629.792 159.98C629.645 160.185 629.499 160.552 629.352 161.08C629.323 161.227 629.293 161.373 629.264 161.52C629.235 161.667 629.191 161.813 629.132 161.96C629.132 161.989 629.088 162.063 629 162.18C628.941 162.268 628.897 162.385 628.868 162.532C628.839 162.737 628.78 162.913 628.692 163.06C628.633 163.177 628.575 163.309 628.516 163.456C628.487 163.573 628.472 163.676 628.472 163.764C628.472 163.823 628.472 163.881 628.472 163.94L628.296 164.424C628.208 164.717 628.12 164.981 628.032 165.216C627.973 165.451 627.944 165.597 627.944 165.656L627.768 166.536C627.709 166.859 627.636 167.181 627.548 167.504C627.489 167.827 627.431 168.135 627.372 168.428C627.313 168.721 627.24 169.015 627.152 169.308C626.507 171.889 625.847 173.84 625.172 175.16C624.527 176.48 623.867 177.316 623.192 177.668ZM620.596 160.596C620.655 161.241 621.197 161.52 622.224 161.432C623.251 161.315 624.395 160.699 625.656 159.584C626.155 159.173 626.595 158.704 626.976 158.176C627.387 157.648 627.665 157.105 627.812 156.548C627.959 156.079 627.988 155.756 627.9 155.58C627.841 155.375 627.592 155.257 627.152 155.228C626.565 155.228 625.964 155.36 625.348 155.624C624.761 155.859 624.131 156.196 623.456 156.636C623.075 157.164 622.752 157.501 622.488 157.648C622.224 157.795 622.048 157.868 621.96 157.868C621.901 157.839 621.931 157.853 622.048 157.912C621.989 158.029 621.931 158.132 621.872 158.22C621.813 158.308 621.755 158.396 621.696 158.484C621.52 158.777 621.344 159.027 621.168 159.232C620.992 159.437 620.845 159.643 620.728 159.848C620.64 160.053 620.596 160.303 620.596 160.596ZM641.331 161.916C640.51 162.063 639.865 161.725 639.395 160.904C638.926 160.053 638.955 158.572 639.483 156.46C639.659 156.108 639.806 155.771 639.923 155.448C640.041 155.096 640.099 154.817 640.099 154.612C640.217 154.231 640.363 153.791 640.539 153.292C640.745 152.764 640.95 152.28 641.155 151.84C641.361 151.371 641.507 151.063 641.595 150.916C641.713 150.916 641.83 150.813 641.947 150.608C642.094 150.403 642.167 150.197 642.167 149.992C642.167 149.757 642.211 149.493 642.299 149.2C642.417 148.907 642.534 148.701 642.651 148.584C642.651 148.437 642.71 148.276 642.827 148.1C642.945 147.924 643.003 147.777 643.003 147.66C643.003 147.543 643.033 147.44 643.091 147.352C643.179 147.264 643.223 147.161 643.223 147.044C643.487 146.575 643.825 145.885 644.235 144.976C644.675 144.037 645.101 143.055 645.511 142.028C645.951 141.001 646.318 140.092 646.611 139.3C646.905 138.508 647.051 138.024 647.051 137.848C647.11 137.613 647.198 137.393 647.315 137.188C647.433 136.983 647.609 136.909 647.843 136.968C647.961 136.88 648.137 136.836 648.371 136.836C648.606 136.807 648.782 136.792 648.899 136.792C648.899 136.792 649.031 136.851 649.295 136.968C649.559 137.085 649.794 137.261 649.999 137.496C650.234 137.701 650.366 137.98 650.395 138.332C650.425 138.684 650.439 139.036 650.439 139.388C650.41 139.945 650.205 140.576 649.823 141.28C649.442 141.984 649.017 142.761 648.547 143.612C648.254 144.169 647.961 144.697 647.667 145.196C647.403 145.695 647.271 146.003 647.271 146.12C647.271 146.237 647.213 146.413 647.095 146.648C646.978 146.883 646.846 147.176 646.699 147.528C646.523 147.821 646.347 148.173 646.171 148.584C646.025 148.995 645.893 149.376 645.775 149.728C645.658 150.051 645.599 150.256 645.599 150.344C645.57 150.461 645.526 150.579 645.467 150.696C645.438 150.813 645.365 150.931 645.247 151.048C645.13 151.048 645.057 151.136 645.027 151.312C645.027 151.459 645.027 151.532 645.027 151.532C645.027 151.649 644.954 151.928 644.807 152.368C644.69 152.779 644.485 153.277 644.191 153.864C643.634 155.419 643.238 156.665 643.003 157.604C642.769 158.513 642.622 159.291 642.563 159.936C642.505 160.64 642.343 161.124 642.079 161.388C641.815 161.623 641.566 161.799 641.331 161.916ZM638.999 168.736C638.383 168.971 637.87 169.073 637.459 169.044C637.049 169.044 636.594 168.853 636.095 168.472C635.509 167.885 635.303 167.299 635.479 166.712C635.685 166.096 636.213 165.509 637.063 164.952C637.65 164.571 638.075 164.38 638.339 164.38C638.633 164.351 639.058 164.453 639.615 164.688C640.613 165.304 641.053 165.993 640.935 166.756C640.818 167.489 640.173 168.149 638.999 168.736Z" fill="#B8C318"/>
</svg>
