<svg width="900" height="250" viewBox="0 0 900 250" fill="none" xmlns="http://www.w3.org/2000/svg">
<rect width="900" height="220" rx="60" fill="#FDFDFB"/>
<rect x="5.5" y="35.5" width="889" height="209" rx="54.5" fill="#FDFDFB" stroke="#B8C318" stroke-width="11"/>
<rect width="384" height="172" transform="translate(258 54)" fill="#FDFDFB"/>
<path d="M301.02 114.92V111.14H279.48V114.92H301.02ZM279.36 124.76H301.02V120.86H279.48C279.48 122.12 279.42 123.38 279.36 124.76ZM314.7 100.1H282.48C281.82 101.72 280.98 103.28 280.08 104.84H307.98V134.48C307.98 138.02 307.32 139.94 304.86 141.02C302.52 142.16 299.1 142.22 294.24 142.22C293.94 140.24 292.98 137.24 292.08 135.32C295.14 135.5 298.62 135.5 299.64 135.5C300.66 135.44 301.02 135.14 301.02 134.3V130.7H278.46C277.44 135.2 275.52 139.52 271.8 142.64C270.84 141.14 268.14 138.14 266.64 137.18C271.8 132.68 272.22 126.26 272.22 120.68V115.82C269.94 118.22 267.54 120.44 264.78 122.36C263.7 120.74 261.48 118.16 260.1 116.84C266.16 112.82 270.96 106.76 274.5 100.1H261.48V93.38H277.56C278.52 90.92 279.3 88.52 279.96 86.12L287.34 87.8C286.74 89.66 286.08 91.52 285.42 93.38H314.7V100.1ZM340.92 104.96L335.58 105.32C334.86 109.28 334.14 113.18 333.36 116.6C334.86 117.86 336.42 119.18 337.92 120.5C340.02 115.1 340.74 109.64 340.92 104.96ZM350.76 104.3L347.58 104.54C347.4 110.72 346.56 118.16 343.44 125.3C346.32 128 348.96 130.46 350.7 132.56L346.02 138.5C344.52 136.58 342.36 134.24 339.9 131.78C337.38 135.56 334.14 139.1 329.7 142.34C328.62 140.84 326.28 138.5 324.66 137.36C329.16 134.18 332.46 130.64 334.8 126.86C331.74 124.04 328.56 121.16 325.86 118.76C326.82 115.16 327.84 110.6 328.68 105.68L325.32 105.92L324.66 99.14C326.22 99.08 327.96 99.02 329.76 98.96C330.36 94.64 330.84 90.32 331.08 86.3L338.16 86.6C337.8 90.44 337.32 94.52 336.66 98.66L340.98 98.42V94.64H347.64V98.06L350.76 97.88V104.3ZM380.82 110.84V117.62H368.82V134.48C368.82 138.14 368.04 139.94 365.52 141.08C363.12 142.1 359.7 142.28 355.02 142.22C354.66 140.24 353.64 137.3 352.62 135.44C355.62 135.5 359.1 135.5 360.06 135.5C361.08 135.5 361.38 135.26 361.38 134.36V117.62H348.78V110.84H361.38V105.08C363.96 102.8 366.6 99.44 368.7 96.32H351.12V89.84H373.38L375.06 89.48L379.86 92.96C377.04 97.34 373.08 102.38 368.82 106.34V110.84H380.82ZM434.04 118.34H419.94C418.92 119.06 417.9 119.72 416.76 120.38C420 122.18 423.6 124.52 425.76 126.5C429.12 124.28 431.88 121.58 434.04 118.34ZM425.64 96.56H411.3C410.58 97.1 409.86 97.58 409.08 98.12C412.08 99.68 415.38 101.66 417.36 103.34C420.6 101.36 423.36 99.08 425.64 96.56ZM439.2 112.1L444 114.56C436.74 132.38 419.52 139.46 398.94 142.28C398.4 140.3 397.02 137.42 395.94 135.74C404.58 134.84 412.62 133.04 419.34 130.04C417.06 128 413.52 125.54 410.52 123.74C407.88 125.06 405 126.26 401.94 127.34C401.1 125.66 399.06 123.02 397.56 121.82C409.08 118.34 417.24 113.18 422.04 107.96C414 113.24 404.16 116.72 394.2 118.7C393.54 116.9 392.16 114.14 390.9 112.58C397.92 111.44 404.94 109.46 411.12 106.64C408.9 104.96 405.84 102.98 403.08 101.48C400.92 102.62 398.64 103.64 396.18 104.6C395.16 102.98 392.94 100.52 391.38 99.32C402 95.96 409.38 90.92 413.52 86L421.26 87.62C420.36 88.64 419.4 89.66 418.38 90.68H430.38L431.58 90.38L436.14 93.02C433.2 98.54 428.88 103.04 423.78 106.76L430.98 108.44C429.84 109.82 428.58 111.14 427.26 112.4H438L439.2 112.1ZM466.56 99.08V95.36H455.64V89.42H466.56V86.18H473.64V89.42H481.38V95.36H473.64V99.08H466.56ZM480.96 126.86V120.86H486.66V127.04C486.66 131.72 485.52 138.32 478.8 142.1C477.84 141.02 475.86 139.22 474.66 138.44C480.18 135.32 480.96 130.34 480.96 126.86ZM490.2 140.12V121.16H495.72V140.12H490.2ZM487.74 113.9L499.38 113.54C498.54 112.58 497.64 111.68 496.86 110.9L500.34 108.98H491.82C490.5 110.72 489.12 112.34 487.74 113.9ZM505.74 136.46H507.66C508.32 136.46 509.52 136.34 510.24 136.1C510.36 137.6 510.48 139.76 510.66 141.2C509.94 141.5 508.74 141.56 507.72 141.56H505.14C499.98 141.56 498.96 139.4 498.96 134.18V120.74H504.6C504.24 120.08 503.76 119.3 503.22 118.52C484.86 119.3 482.16 119.48 480.18 120.14C479.82 119.06 478.8 116.36 478.14 114.98C479.4 114.68 480.6 113.66 481.98 111.98C482.52 111.44 483.48 110.42 484.5 108.98H478.32V103.94C476.4 106.64 474 109.52 471.66 112.04V116.48H477.66V122.36H471.66V129.74L477.6 128.42L478.32 134.36C470.4 136.46 461.94 138.68 455.58 140.18L454.14 133.64C455.04 133.46 456.06 133.28 457.14 133.04V112.34H462.72V131.84L465.54 131.18V110.78C466.68 109.7 467.94 108.26 469.02 106.76H456.12V100.94H473.58L474.72 100.58L478.32 103.28V103.16H488.46C489.3 101.6 490.2 99.98 490.98 98.42L491.58 98.6V95.36H483.48V89.42H491.58V86.18H498.66V89.42H509.04V95.36H498.66V98.6H491.82L497.4 100.34C496.92 101.3 496.38 102.2 495.78 103.16H509.28V108.98H502.56C505.32 111.68 508.38 115.28 509.88 117.8L504.84 120.74H505.02V134.3C505.02 135.86 505.08 136.46 505.74 136.46ZM556.02 98.6V95.6H548.28V89.6H556.02V86.24H562.86V89.6H574.02V95.6H562.86V98.6H556.02ZM531.72 99.38V95.6H520.26V89.66H531.72V86.24H538.56V89.66H545.64V95.6H538.56V99.38H531.72ZM573.9 126.68H556.26C561.24 130.34 568.32 133.46 575.28 134.96C573.72 136.4 571.68 139.22 570.6 141.02C563.34 138.74 556.02 134.6 550.8 129.38V142.22H543.3V129.86C537.9 134.96 530.64 139.1 523.5 141.5C522.54 139.7 520.38 136.88 518.82 135.5C525.66 133.7 532.8 130.46 537.78 126.68H520.68V120.56H543.3V116.54H544.56C544.02 114.26 542.7 111.2 541.38 108.86L547.2 106.94C539.34 107.54 531.18 107.84 523.68 107.9C523.56 106.16 522.78 103.34 522.18 101.84C537.48 101.66 555.24 100.46 565.5 98.24L571.08 103.7C564.36 105.2 556.08 106.22 547.62 106.88C549.3 109.46 550.8 112.7 551.28 115.04L546.96 116.54H550.8V120.56H573.9V126.68ZM524.7 110.3L530.64 107.96C532.8 110.48 535.08 114.02 535.8 116.48L529.44 119C528.78 116.66 526.74 113 524.7 110.3ZM563.64 118.88L558 116.6C559.98 113.6 562.56 108.98 563.88 105.5L571.2 108.14C568.62 112.04 565.86 116.24 563.64 118.88ZM608.94 121.58L607.32 101.06L607.02 92.12H616.98L616.68 101.06L615.06 121.58H608.94ZM612 137.54C608.94 137.54 606.72 135.38 606.72 132.26C606.72 129.08 609 126.92 612 126.92C615 126.92 617.28 129.08 617.28 132.26C617.28 135.38 615 137.54 612 137.54Z" fill="#594A39"/>
<path d="M330.472 201.112C330.355 201.229 330.076 201.259 329.636 201.2C329.196 201.171 328.844 200.965 328.58 200.584C328.375 200.173 328.257 199.704 328.228 199.176C328.199 198.648 328.199 197.915 328.228 196.976C328.404 195.949 328.697 194.6 329.108 192.928C329.519 191.256 329.973 189.393 330.472 187.34C331 185.257 331.528 183.131 332.056 180.96C332.32 179.933 332.525 179.068 332.672 178.364C332.848 177.66 332.965 177.132 333.024 176.78C333.112 176.399 333.156 176.208 333.156 176.208C333.127 176.267 333.083 176.325 333.024 176.384C332.995 176.443 332.965 176.501 332.936 176.56C332.907 176.619 332.877 176.677 332.848 176.736C332.848 176.736 332.789 176.839 332.672 177.044C332.584 177.249 332.379 177.601 332.056 178.1C331.821 178.452 331.601 178.863 331.396 179.332C331.191 179.801 330.839 180.417 330.34 181.18C329.871 182.06 329.343 183.072 328.756 184.216C328.169 185.36 327.671 186.269 327.26 186.944C327.055 187.267 326.864 187.545 326.688 187.78C326.541 188.015 326.439 188.205 326.38 188.352C326.263 188.675 326.072 189.071 325.808 189.54C325.544 190.009 325.236 190.464 324.884 190.904C324.708 191.168 324.473 191.476 324.18 191.828C323.916 192.18 323.681 192.503 323.476 192.796C323.271 193.06 323.168 193.192 323.168 193.192C323.109 193.368 322.919 193.647 322.596 194.028C322.273 194.409 321.877 194.835 321.408 195.304C320.968 195.744 320.513 196.155 320.044 196.536C319.017 197.357 318.167 197.871 317.492 198.076C316.847 198.281 316.099 198.032 315.248 197.328C314.867 196.859 314.559 196.389 314.324 195.92C314.089 195.421 313.972 194.747 313.972 193.896C313.972 193.045 314.119 191.857 314.412 190.332C314.617 189.364 314.837 188.337 315.072 187.252C315.336 186.167 315.6 185.125 315.864 184.128C316.128 183.101 316.363 182.221 316.568 181.488C316.803 180.725 316.964 180.197 317.052 179.904C317.14 179.171 317.155 178.789 317.096 178.76C317.037 178.701 316.891 178.863 316.656 179.244C316.451 179.567 316.069 180.241 315.512 181.268C314.955 182.295 314.324 183.497 313.62 184.876C312.945 186.255 312.285 187.633 311.64 189.012C310.437 191.241 309.425 193.104 308.604 194.6C307.783 196.096 307.108 197.299 306.58 198.208C306.052 199.088 305.641 199.748 305.348 200.188C305.084 200.657 304.879 200.98 304.732 201.156C304.615 201.361 304.527 201.493 304.468 201.552C304.028 201.523 303.647 201.317 303.324 200.936C303.001 200.555 302.737 200.1 302.532 199.572C302.473 199.279 302.429 198.971 302.4 198.648C302.371 198.325 302.4 197.973 302.488 197.592C302.605 197.181 302.781 196.741 303.016 196.272C303.397 195.509 303.764 194.864 304.116 194.336C304.468 193.808 304.688 193.485 304.776 193.368C304.923 193.163 305.04 192.943 305.128 192.708C305.216 192.473 305.275 192.253 305.304 192.048C305.451 191.872 305.671 191.505 305.964 190.948C306.287 190.391 306.609 189.789 306.932 189.144C307.167 188.763 307.489 188.235 307.9 187.56C308.311 186.856 308.751 186.108 309.22 185.316C309.689 184.495 310.1 183.747 310.452 183.072C311.743 180.755 312.769 178.907 313.532 177.528C314.295 176.12 314.837 175.225 315.16 174.844C315.365 174.697 315.541 174.419 315.688 174.008C315.864 173.568 316.011 173.245 316.128 173.04C316.539 172.219 316.949 171.544 317.36 171.016C317.8 170.459 318.181 170.18 318.504 170.18C318.739 170.18 319.032 170.268 319.384 170.444C319.765 170.62 320.132 170.869 320.484 171.192C320.807 171.573 321.1 172.087 321.364 172.732C321.657 173.348 321.716 174.169 321.54 175.196C321.511 175.665 321.437 176.237 321.32 176.912C321.203 177.557 321.085 178.203 320.968 178.848C320.851 179.493 320.733 180.036 320.616 180.476C320.381 181.796 320.117 183.057 319.824 184.26C319.56 185.433 319.311 186.519 319.076 187.516C318.841 188.513 318.651 189.393 318.504 190.156C318.357 190.889 318.255 191.491 318.196 191.96C318.167 192.429 318.225 192.737 318.372 192.884C318.46 192.913 318.577 192.884 318.724 192.796C318.9 192.679 319.032 192.561 319.12 192.444C319.296 192.209 319.457 191.975 319.604 191.74C319.751 191.505 319.941 191.212 320.176 190.86C320.645 190.215 321.129 189.511 321.628 188.748C322.156 187.956 322.772 186.988 323.476 185.844C324.209 184.671 325.075 183.233 326.072 181.532C327.069 179.801 328.287 177.66 329.724 175.108C330.399 174.081 331.044 173.055 331.66 172.028C332.276 171.001 332.833 170.209 333.332 169.652C333.772 169.183 334.315 169.021 334.96 169.168C335.635 169.315 336.251 169.681 336.808 170.268C337.365 170.855 337.673 171.573 337.732 172.424C337.761 172.835 337.673 173.568 337.468 174.624C337.292 175.651 337.043 176.809 336.72 178.1C336.397 179.391 336.031 180.652 335.62 181.884C335.532 182.383 335.385 183.043 335.18 183.864C334.975 184.685 334.755 185.521 334.52 186.372C334.285 187.223 334.065 187.985 333.86 188.66C333.655 189.657 333.479 190.449 333.332 191.036C333.215 191.623 333.156 192.297 333.156 193.06C332.892 193.529 332.716 194.204 332.628 195.084C332.54 195.964 332.496 196.873 332.496 197.812C332.379 198.956 332.129 199.763 331.748 200.232C331.396 200.701 331.161 200.921 331.044 200.892C330.809 200.804 330.619 200.877 330.472 201.112ZM341.803 198.076C341.685 197.841 341.421 197.607 341.011 197.372C340.629 197.137 340.439 196.961 340.439 196.844C340.439 196.727 340.365 196.551 340.219 196.316C340.101 196.052 339.984 195.861 339.867 195.744C339.72 195.568 339.764 195.143 339.999 194.468C340.233 193.764 340.585 192.913 341.055 191.916C341.524 190.919 342.037 189.907 342.595 188.88C342.829 188.645 343.064 188.337 343.299 187.956C343.533 187.575 343.709 187.325 343.827 187.208C343.827 187.091 343.871 186.988 343.959 186.9C344.047 186.783 344.149 186.724 344.267 186.724L344.619 186.02C344.677 185.903 344.853 185.668 345.147 185.316C345.469 184.964 345.851 184.583 346.291 184.172C346.731 183.732 347.171 183.321 347.611 182.94C348.08 182.559 348.461 182.28 348.755 182.104C349.371 181.693 350.001 181.503 350.647 181.532C351.321 181.561 351.893 181.767 352.363 182.148C352.451 182.236 352.641 182.412 352.935 182.676C353.257 182.94 353.609 183.233 353.991 183.556C354.401 183.879 354.753 184.172 355.047 184.436L356.675 185.888L355.927 188.088C355.545 189.261 355.443 190.288 355.619 191.168C355.795 192.048 356.073 192.811 356.455 193.456C356.601 193.779 356.792 194.028 357.027 194.204C357.291 194.38 357.628 194.497 358.039 194.556C358.273 194.585 358.493 194.673 358.699 194.82C358.904 194.967 359.007 195.201 359.007 195.524C359.007 196.228 358.875 196.741 358.611 197.064C358.376 197.357 358.112 197.533 357.819 197.592C356.851 197.709 355.927 197.607 355.047 197.284C354.167 196.961 353.375 196.125 352.671 194.776C352.553 194.6 352.392 194.277 352.187 193.808C352.011 193.309 351.908 192.987 351.879 192.84C351.761 192.987 351.6 193.177 351.395 193.412C351.219 193.617 351.043 193.808 350.867 193.984C348.784 196.096 346.995 197.475 345.499 198.12C344.032 198.736 342.8 198.721 341.803 198.076ZM344.223 194.424C344.428 194.453 344.751 194.351 345.191 194.116C345.631 193.852 346.217 193.427 346.951 192.84C347.948 191.989 348.769 191.285 349.415 190.728C350.06 190.171 350.691 189.452 351.307 188.572L352.275 186.988C351.981 186.313 351.717 185.873 351.483 185.668C351.248 185.463 351.013 185.36 350.779 185.36C350.397 185.36 349.943 185.609 349.415 186.108C348.887 186.577 348.285 187.281 347.611 188.22C346.965 189.129 346.232 190.273 345.411 191.652C345.029 192.297 344.736 192.928 344.531 193.544C344.325 194.131 344.223 194.424 344.223 194.424ZM378.996 197.944C378.35 197.885 377.808 197.753 377.368 197.548C376.957 197.313 376.62 196.859 376.356 196.184C376.238 195.715 376.18 195.231 376.18 194.732C376.209 194.204 376.253 193.705 376.312 193.236C376.37 192.737 376.4 192.312 376.4 191.96C376.4 191.901 376.4 191.784 376.4 191.608C376.4 191.432 376.4 191.271 376.4 191.124C376.341 190.684 376.224 190.42 376.048 190.332C375.901 190.215 375.637 190.229 375.256 190.376C374.64 190.669 373.965 191.065 373.232 191.564C372.528 192.033 371.78 192.591 370.988 193.236C370.225 193.852 369.433 194.512 368.612 195.216C367.966 195.92 367.482 196.492 367.16 196.932C366.866 197.372 366.558 197.592 366.236 197.592C366.001 197.709 365.752 197.68 365.488 197.504C365.224 197.328 364.945 197.123 364.652 196.888C364.446 196.653 364.197 196.36 363.904 196.008C363.64 195.627 363.478 195.377 363.42 195.26C363.42 194.791 363.449 194.365 363.508 193.984C363.596 193.603 363.713 193.207 363.86 192.796C364.036 192.385 364.241 191.916 364.476 191.388C364.593 191.183 364.696 190.977 364.784 190.772C364.901 190.537 365.033 190.288 365.18 190.024C365.297 189.613 365.458 189.144 365.664 188.616C365.898 188.088 366.118 187.589 366.324 187.12C366.646 186.357 366.896 185.697 367.072 185.14C367.248 184.583 367.394 183.981 367.512 183.336C367.482 183.277 367.497 183.189 367.556 183.072C367.614 182.955 367.702 182.881 367.82 182.852H367.864H367.908C368.113 182.705 368.494 182.691 369.052 182.808C369.638 182.896 370.078 183.057 370.372 183.292C370.988 183.82 371.281 184.509 371.252 185.36C371.222 186.211 370.782 187.325 369.932 188.704C369.726 189.173 369.506 189.613 369.272 190.024C369.066 190.405 368.964 190.669 368.964 190.816C368.964 190.816 369.081 190.728 369.316 190.552C369.55 190.376 369.829 190.171 370.152 189.936C370.474 189.672 370.753 189.467 370.988 189.32C371.134 189.173 371.457 188.909 371.956 188.528C372.454 188.117 372.997 187.692 373.584 187.252C374.17 186.812 374.64 186.475 374.992 186.24C375.314 186.005 375.725 185.771 376.224 185.536C376.722 185.272 377.03 185.14 377.148 185.14C377.441 185.14 377.793 185.243 378.204 185.448C378.644 185.653 379.04 185.903 379.392 186.196C379.773 186.46 379.993 186.709 380.052 186.944C380.052 187.061 380.037 187.223 380.008 187.428C379.978 187.604 379.964 187.765 379.964 187.912C379.934 188.381 379.92 188.953 379.92 189.628C379.949 190.273 379.964 190.933 379.964 191.608C379.964 192.253 379.905 192.84 379.788 193.368C379.788 193.368 379.802 193.397 379.832 193.456C379.861 193.485 379.89 193.544 379.92 193.632C379.89 193.661 379.876 193.72 379.876 193.808C379.905 193.867 379.92 193.896 379.92 193.896C379.978 194.101 380.037 194.307 380.096 194.512C380.184 194.717 380.286 194.952 380.404 195.216C380.521 195.451 380.653 195.759 380.8 196.14C380.77 196.521 380.55 196.903 380.14 197.284C379.758 197.636 379.377 197.856 378.996 197.944ZM386.211 210.308C385.565 210.425 385.125 210.44 384.891 210.352C384.656 210.264 384.333 210.117 383.923 209.912C383.6 209.677 383.365 209.501 383.219 209.384C383.072 209.267 382.969 209.149 382.911 209.032C382.617 208.416 382.573 207.961 382.779 207.668C382.984 207.375 383.277 207.184 383.659 207.096C384.069 207.037 384.421 207.008 384.715 207.008C384.92 207.125 385.257 207.184 385.727 207.184C386.225 207.184 386.533 207.125 386.651 207.008C386.651 207.008 386.783 206.92 387.047 206.744C387.34 206.597 387.721 206.48 388.191 206.392C389.1 205.952 389.819 205.497 390.347 205.028C390.875 204.588 391.461 203.825 392.107 202.74C392.371 202.329 392.649 201.845 392.943 201.288C393.236 200.76 393.441 200.232 393.559 199.704C393.793 199.117 394.057 198.325 394.351 197.328C394.673 196.331 394.952 195.348 395.187 194.38C395.421 193.383 395.553 192.635 395.583 192.136C395.759 190.493 396.096 188.909 396.595 187.384C397.093 185.829 397.489 184.187 397.783 182.456C397.959 182.045 398.091 181.811 398.179 181.752C398.267 181.664 398.457 181.62 398.751 181.62C399.073 181.62 399.455 181.723 399.895 181.928C400.335 182.104 400.657 182.353 400.863 182.676C401.156 183.233 401.288 183.893 401.259 184.656C401.259 185.389 401.068 186.035 400.687 186.592C400.393 187.003 400.129 187.648 399.895 188.528C399.689 189.379 399.484 190.449 399.279 191.74C399.132 192.385 398.971 193.148 398.795 194.028C398.648 194.879 398.487 195.832 398.311 196.888C398.193 197.181 398.032 197.636 397.827 198.252C397.621 198.839 397.489 199.308 397.431 199.66C397.401 199.777 397.313 200.012 397.167 200.364C397.02 200.716 396.873 201.053 396.727 201.376C396.58 201.728 396.477 201.963 396.419 202.08C395.011 204.925 393.383 206.979 391.535 208.24C389.716 209.501 387.941 210.191 386.211 210.308ZM389.907 197.856C389.584 197.856 389.247 197.68 388.895 197.328C388.572 196.976 388.352 196.697 388.235 196.492C388.117 196.199 387.897 195.92 387.575 195.656C387.252 195.392 386.973 195.069 386.739 194.688C386.504 194.307 386.445 193.837 386.563 193.28C386.68 192.899 386.856 192.327 387.091 191.564C387.325 190.772 387.604 189.907 387.927 188.968C388.249 188 388.572 187.047 388.895 186.108C389.247 185.169 389.569 184.333 389.863 183.6C390.156 182.867 390.405 182.353 390.611 182.06C390.787 181.825 391.065 181.649 391.447 181.532C391.828 181.415 392.209 181.385 392.591 181.444C392.972 181.503 393.251 181.679 393.427 181.972C393.749 182.383 393.925 182.793 393.955 183.204C394.013 183.585 393.808 184.201 393.339 185.052C393.221 185.375 393.075 185.727 392.899 186.108C392.723 186.46 392.635 186.695 392.635 186.812C392.605 186.871 392.547 187.076 392.459 187.428C392.4 187.751 392.327 188.059 392.239 188.352C392.151 188.645 392.063 188.792 391.975 188.792C391.857 188.909 391.725 189.217 391.579 189.716C391.461 190.215 391.344 190.772 391.227 191.388C391.139 191.975 391.08 192.503 391.051 192.972C391.021 193.412 391.065 193.632 391.183 193.632C392.092 193.632 392.972 193.353 393.823 192.796C394.673 192.209 395.597 191.241 396.595 189.892L396.991 194.028C396.58 194.233 396.199 194.453 395.847 194.688C395.495 194.893 395.172 195.143 394.879 195.436C394.791 195.553 394.585 195.715 394.263 195.92C393.94 196.125 393.617 196.316 393.295 196.492C393.001 196.639 392.811 196.712 392.723 196.712C392.723 196.712 392.679 196.727 392.591 196.756C392.532 196.756 392.503 196.815 392.503 196.932C392.503 196.991 392.312 197.108 391.931 197.284C391.549 197.431 391.153 197.563 390.743 197.68C390.332 197.797 390.053 197.856 389.907 197.856ZM424.887 198.252C424.653 198.281 424.213 198.149 423.567 197.856C422.922 197.563 422.423 197.225 422.071 196.844C421.866 196.521 421.675 195.993 421.499 195.26C421.323 194.497 421.191 193.661 421.103 192.752C421.015 191.843 420.971 191.021 420.971 190.288C421.001 189.555 421.074 188.748 421.191 187.868C421.338 186.959 421.47 186.123 421.587 185.36C421.734 184.597 421.837 184.084 421.895 183.82C422.159 183.527 422.497 183.277 422.907 183.072C423.318 182.837 423.699 182.691 424.051 182.632C424.433 182.573 424.711 182.676 424.887 182.94C425.298 183.145 425.547 183.585 425.635 184.26C425.753 184.905 425.679 185.521 425.415 186.108C425.415 186.255 425.386 186.46 425.327 186.724C425.269 186.959 425.21 187.179 425.151 187.384C424.917 187.795 424.785 188.161 424.755 188.484C424.755 188.777 424.799 189.115 424.887 189.496C424.975 189.877 424.902 190.229 424.667 190.552V190.508C424.638 190.713 424.594 190.977 424.535 191.3C424.506 191.623 424.491 191.945 424.491 192.268C424.521 192.561 424.609 192.811 424.755 193.016C424.785 193.28 424.887 193.456 425.063 193.544C425.239 193.632 425.547 193.485 425.987 193.104C426.339 192.752 426.691 192.356 427.043 191.916C427.425 191.447 427.762 190.992 428.055 190.552C428.349 190.083 428.569 189.687 428.715 189.364C428.891 189.012 428.95 188.777 428.891 188.66C428.774 188.425 428.833 188.235 429.067 188.088C429.331 187.912 429.551 187.751 429.727 187.604C429.874 187.428 429.962 187.252 429.991 187.076C430.021 186.871 430.094 186.665 430.211 186.46C430.358 186.313 430.475 186.108 430.563 185.844C430.475 185.639 430.534 185.463 430.739 185.316C430.974 185.14 431.121 184.964 431.179 184.788C431.267 184.289 431.487 183.937 431.839 183.732C432.191 183.497 432.573 183.409 432.983 183.468C433.394 183.497 433.731 183.644 433.995 183.908C434.289 184.172 434.421 184.553 434.391 185.052C434.362 185.404 434.23 185.917 433.995 186.592C433.761 187.267 433.453 187.985 433.071 188.748C432.719 189.511 432.323 190.2 431.883 190.816C431.737 191.051 431.605 191.285 431.487 191.52C431.37 191.755 431.179 192.063 430.915 192.444C430.681 192.825 430.27 193.383 429.683 194.116C429.449 194.351 429.214 194.6 428.979 194.864C428.745 195.099 428.51 195.319 428.275 195.524C427.718 196.169 427.117 196.785 426.471 197.372C425.826 197.929 425.298 198.223 424.887 198.252ZM442.842 199.792C441.228 199.792 439.982 199.323 439.102 198.384C438.251 197.445 437.826 196.008 437.826 194.072C437.826 193.016 438.016 191.857 438.398 190.596C438.808 189.335 439.336 188.103 439.982 186.9C440.656 185.697 441.39 184.656 442.182 183.776C442.974 182.867 443.766 182.236 444.558 181.884C444.851 181.737 445.159 181.635 445.482 181.576C445.834 181.488 446.171 181.444 446.494 181.444C446.846 181.444 447.227 181.473 447.638 181.532C448.078 181.561 448.488 181.649 448.87 181.796C449.544 182.001 450.131 182.397 450.63 182.984C451.158 183.571 451.422 184.421 451.422 185.536C451.422 185.829 451.392 186.152 451.334 186.504C451.275 186.827 451.172 187.149 451.026 187.472C450.644 188.44 450.058 189.364 449.266 190.244C448.503 191.124 447.696 191.74 446.846 192.092C446.611 192.209 446.376 192.297 446.142 192.356C445.936 192.385 445.716 192.4 445.482 192.4C444.866 192.4 444.308 192.312 443.81 192.136C443.34 191.96 442.9 191.725 442.49 191.432L442.138 191.124L441.918 191.564C441.712 192.121 441.566 192.591 441.478 192.972C441.419 193.353 441.39 193.632 441.39 193.808C441.39 194.16 441.404 194.527 441.434 194.908C441.463 195.26 441.551 195.553 441.698 195.788C441.815 195.935 441.962 196.052 442.138 196.14C442.343 196.228 442.592 196.272 442.886 196.272C443.062 196.272 443.223 196.272 443.37 196.272C443.546 196.243 443.692 196.213 443.81 196.184C444.338 196.067 444.763 195.876 445.086 195.612C445.438 195.319 445.804 195.069 446.186 194.864L446.362 194.776L446.318 194.644C446.816 194.38 447.154 194.219 447.33 194.16C447.506 194.072 447.638 193.999 447.726 193.94C447.843 193.823 447.975 193.764 448.122 193.764C448.532 193.705 448.928 193.823 449.31 194.116C449.72 194.38 449.926 194.717 449.926 195.128C449.926 195.304 449.794 195.583 449.53 195.964C449.295 196.345 448.987 196.727 448.606 197.108C448.254 197.46 447.887 197.739 447.506 197.944C447.418 197.973 447.33 198.017 447.242 198.076C447.154 198.105 447.066 198.149 446.978 198.208H447.022C446.758 198.56 446.494 198.736 446.23 198.736H445.878C445.76 198.941 445.379 199.161 444.734 199.396C444.088 199.66 443.458 199.792 442.842 199.792ZM445.13 189.188C445.394 189.188 445.628 189.144 445.834 189.056C446.068 188.968 446.288 188.865 446.494 188.748C447.198 188.249 447.652 187.604 447.858 186.812C448.063 186.02 447.99 185.419 447.638 185.008C447.579 184.92 447.506 184.861 447.418 184.832C447.33 184.773 447.227 184.744 447.11 184.744C446.787 184.744 446.42 184.847 446.01 185.052C445.628 185.257 445.247 185.551 444.866 185.932C444.484 186.313 444.132 186.768 443.81 187.296L443.238 188.22C443.296 188.191 443.34 188.176 443.37 188.176C443.428 188.147 443.472 188.132 443.502 188.132C443.766 188.132 443.942 188.22 444.03 188.396C444.118 188.572 444.22 188.748 444.338 188.924C444.484 189.1 444.748 189.188 445.13 189.188ZM461.629 207.8C460.808 208.123 459.942 208.064 459.033 207.624C458.153 207.213 457.39 206.553 456.745 205.644C456.628 205.468 456.452 205.145 456.217 204.676C455.982 204.236 455.748 203.752 455.513 203.224C455.308 202.696 455.146 202.241 455.029 201.86C454.941 201.479 454.941 201.259 455.029 201.2C455.146 200.877 455.41 200.687 455.821 200.628C456.232 200.569 456.642 200.584 457.053 200.672C457.464 200.789 457.698 200.936 457.757 201.112C457.845 201.317 457.933 201.523 458.021 201.728C458.109 201.963 458.212 202.168 458.329 202.344C458.476 202.549 458.608 202.725 458.725 202.872C459.048 203.371 459.4 203.708 459.781 203.884C460.162 204.089 460.456 204.119 460.661 203.972C461.16 203.591 461.526 203.136 461.761 202.608C462.025 202.109 462.362 201.215 462.773 199.924C463.096 198.839 463.374 197.9 463.609 197.108C463.844 196.316 464.093 195.583 464.357 194.908C464.445 194.556 464.548 194.263 464.665 194.028C464.812 193.764 464.944 193.573 465.061 193.456H465.325C464.68 193.867 464.137 194.277 463.697 194.688C463.257 195.099 462.656 195.465 461.893 195.788C461.717 195.993 461.277 196.125 460.573 196.184C459.898 196.213 459.238 196.125 458.593 195.92C458.182 195.685 457.845 195.451 457.581 195.216C457.346 194.952 457.141 194.659 456.965 194.336C456.818 194.013 456.657 193.632 456.481 193.192C456.276 192.752 456.246 192.033 456.393 191.036C456.54 190.039 456.804 189.041 457.185 188.044C457.537 187.311 458.05 186.519 458.725 185.668C459.4 184.817 460.118 184.055 460.881 183.38C461.644 182.676 462.333 182.236 462.949 182.06C463.184 181.943 463.594 181.811 464.181 181.664C464.768 181.488 465.325 181.473 465.853 181.62C466.352 181.679 466.733 181.796 466.997 181.972C467.261 182.119 467.686 182.441 468.273 182.94C468.654 183.321 469.124 183.82 469.681 184.436C470.238 185.023 470.59 185.521 470.737 185.932C470.942 186.372 470.986 186.856 470.869 187.384C470.752 187.883 470.546 188.323 470.253 188.704C469.989 189.085 469.71 189.467 469.417 189.848C469.124 190.229 468.904 190.757 468.757 191.432C468.61 192.312 468.332 193.309 467.921 194.424C467.51 195.509 467.188 196.521 466.953 197.46L466.249 200.188C465.516 202.681 464.709 204.485 463.829 205.6C462.949 206.744 462.216 207.477 461.629 207.8ZM460.705 192.664C461.292 192.635 461.79 192.576 462.201 192.488C462.641 192.371 463.052 192.136 463.433 191.784C463.814 191.403 464.254 190.831 464.753 190.068C465.252 189.364 465.604 188.719 465.809 188.132C466.014 187.545 466.088 186.885 466.029 186.152C466 185.683 465.868 185.375 465.633 185.228C465.398 185.081 465.09 185.037 464.709 185.096C464.152 185.184 463.653 185.419 463.213 185.8C462.773 186.152 462.26 186.709 461.673 187.472C461.233 188.059 460.866 188.763 460.573 189.584C460.28 190.464 460.148 191.168 460.177 191.696C460.236 192.224 460.412 192.547 460.705 192.664ZM479.108 198.604C477.964 198.135 477.172 197.372 476.732 196.316C476.292 195.26 476.175 193.852 476.38 192.092C476.439 191.183 476.41 190.581 476.292 190.288C476.175 189.965 475.955 189.657 475.632 189.364C475.544 189.247 475.339 189.056 475.016 188.792C474.694 188.499 474.547 188.279 474.576 188.132C474.547 187.927 474.591 187.677 474.708 187.384C474.826 187.061 474.928 186.885 475.016 186.856C475.222 186.768 475.427 186.665 475.632 186.548C475.867 186.431 476.043 186.401 476.16 186.46C476.278 186.46 476.454 186.533 476.688 186.68C476.952 186.827 477.084 186.959 477.084 187.076C477.202 187.281 477.378 187.193 477.612 186.812C477.876 186.431 478.155 185.947 478.448 185.36C478.742 184.891 479.108 184.451 479.548 184.04C479.988 183.629 480.428 183.263 480.868 182.94C481.338 182.588 481.734 182.324 482.056 182.148C482.203 182.089 482.482 182.001 482.892 181.884C483.332 181.767 483.787 181.679 484.256 181.62C484.726 181.532 485.078 181.503 485.312 181.532C485.84 181.561 486.398 181.781 486.984 182.192C487.571 182.603 488.026 182.984 488.348 183.336C488.73 183.6 488.979 184.011 489.096 184.568C489.243 185.096 489.302 185.653 489.272 186.24C489.243 186.827 489.126 187.325 488.92 187.736C488.832 188.029 488.524 188.44 487.996 188.968C487.468 189.496 486.882 190.009 486.236 190.508C485.62 190.977 485.092 191.3 484.652 191.476C484.271 191.564 483.816 191.637 483.288 191.696C482.76 191.725 482.262 191.725 481.792 191.696C481.352 191.637 481.044 191.564 480.868 191.476C480.663 191.359 480.487 191.403 480.34 191.608C480.223 191.784 480.12 192.283 480.032 193.104C480.003 193.427 480.003 193.705 480.032 193.94C480.091 194.175 480.15 194.351 480.208 194.468C480.414 194.82 480.619 195.084 480.824 195.26C481.03 195.407 481.411 195.451 481.968 195.392C482.526 195.333 483.083 194.996 483.64 194.38C484.227 193.735 484.755 193.221 485.224 192.84C485.342 192.635 485.591 192.503 485.972 192.444C486.383 192.356 486.867 192.385 487.424 192.532C487.747 192.737 487.894 193.06 487.864 193.5C487.864 193.94 487.63 194.585 487.16 195.436C487.072 195.641 486.823 195.949 486.412 196.36C486.031 196.741 485.606 197.137 485.136 197.548C484.696 197.929 484.33 198.208 484.036 198.384C483.156 198.853 482.291 199.073 481.44 199.044C480.59 199.015 479.812 198.868 479.108 198.604ZM482.364 188.704C482.804 188.587 483.171 188.469 483.464 188.352C483.787 188.235 484.095 188.044 484.388 187.78C484.682 187.516 485.019 187.12 485.4 186.592C485.518 186.269 485.576 185.991 485.576 185.756C485.606 185.521 485.591 185.375 485.532 185.316C485.298 185.081 485.034 185.008 484.74 185.096C484.476 185.155 484.183 185.301 483.86 185.536C483.655 185.624 483.362 185.815 482.98 186.108C482.628 186.372 482.276 186.68 481.924 187.032C481.602 187.355 481.338 187.663 481.132 187.956C480.956 188.22 480.927 188.381 481.044 188.44C480.986 188.557 481.147 188.631 481.528 188.66C481.939 188.689 482.218 188.704 482.364 188.704ZM500.096 199.264C499.685 199.147 499.274 198.941 498.864 198.648C498.453 198.355 498.028 198.017 497.588 197.636C497.236 197.167 496.986 196.741 496.84 196.36C496.693 195.949 496.605 195.48 496.576 194.952C496.576 194.395 496.576 193.691 496.576 192.84C496.576 192.488 496.634 191.989 496.752 191.344C496.898 190.699 497.045 190.024 497.192 189.32C497.368 188.616 497.529 188 497.676 187.472C497.822 186.915 497.91 186.548 497.94 186.372C498.028 185.991 497.881 185.771 497.5 185.712C497.118 185.653 496.693 185.639 496.224 185.668C495.784 185.668 495.49 185.624 495.344 185.536C495.226 185.507 495.168 185.36 495.168 185.096C495.168 184.803 495.168 184.656 495.168 184.656C495.168 184.539 495.109 184.465 494.992 184.436C494.874 184.377 494.772 184.275 494.684 184.128C494.625 184.011 494.698 183.791 494.904 183.468C495.109 183.145 495.373 182.955 495.696 182.896C495.96 182.837 496.356 182.793 496.884 182.764C497.412 182.705 497.94 182.603 498.468 182.456C499.025 182.28 499.45 182.016 499.744 181.664C500.008 181.019 500.301 180.329 500.624 179.596C500.946 178.833 501.254 178.173 501.548 177.616C501.841 177.029 502.046 176.663 502.164 176.516C502.662 176.252 503.176 176.149 503.704 176.208C504.232 176.237 504.642 176.487 504.936 176.956C505.082 177.161 505.2 177.308 505.288 177.396C505.405 177.484 505.449 177.616 505.42 177.792C505.42 177.968 505.302 178.291 505.068 178.76C504.862 179.2 504.51 179.889 504.012 180.828C503.865 181.121 503.733 181.385 503.616 181.62C503.498 181.825 503.44 181.928 503.44 181.928C503.557 181.957 503.733 181.972 503.968 181.972C504.202 181.972 504.496 181.957 504.848 181.928C505.17 181.869 505.522 181.825 505.904 181.796C506.285 181.737 506.622 181.737 506.916 181.796C507.59 181.796 508.089 181.987 508.412 182.368C508.734 182.749 508.91 183.233 508.94 183.82C508.998 184.143 508.881 184.421 508.588 184.656C508.294 184.891 507.752 185.008 506.96 185.008C506.696 185.008 506.314 185.023 505.816 185.052C505.317 185.081 504.804 185.111 504.276 185.14C503.748 185.169 503.293 185.213 502.912 185.272C502.56 185.301 502.384 185.345 502.384 185.404C502.296 185.463 502.149 185.697 501.944 186.108C501.768 186.489 501.577 186.959 501.372 187.516C501.196 188.073 501.034 188.601 500.888 189.1C500.682 190.097 500.536 191.065 500.448 192.004C500.36 192.943 500.345 193.764 500.404 194.468C500.492 195.143 500.668 195.627 500.932 195.92C501.196 196.184 501.592 196.184 502.12 195.92C502.677 195.627 503.19 195.289 503.66 194.908C504.188 194.468 504.642 194.336 505.024 194.512C505.405 194.659 505.64 194.981 505.728 195.48C505.845 195.949 505.713 196.463 505.332 197.02C504.98 197.577 504.481 198.047 503.836 198.428C503.19 198.809 502.53 199.073 501.856 199.22C501.181 199.396 500.594 199.411 500.096 199.264ZM513.518 198.076C513.401 197.841 513.137 197.607 512.726 197.372C512.345 197.137 512.154 196.961 512.154 196.844C512.154 196.727 512.081 196.551 511.934 196.316C511.817 196.052 511.699 195.861 511.582 195.744C511.435 195.568 511.479 195.143 511.714 194.468C511.949 193.764 512.301 192.913 512.77 191.916C513.239 190.919 513.753 189.907 514.31 188.88C514.545 188.645 514.779 188.337 515.014 187.956C515.249 187.575 515.425 187.325 515.542 187.208C515.542 187.091 515.586 186.988 515.674 186.9C515.762 186.783 515.865 186.724 515.982 186.724L516.334 186.02C516.393 185.903 516.569 185.668 516.862 185.316C517.185 184.964 517.566 184.583 518.006 184.172C518.446 183.732 518.886 183.321 519.326 182.94C519.795 182.559 520.177 182.28 520.47 182.104C521.086 181.693 521.717 181.503 522.362 181.532C523.037 181.561 523.609 181.767 524.078 182.148C524.166 182.236 524.357 182.412 524.65 182.676C524.973 182.94 525.325 183.233 525.706 183.556C526.117 183.879 526.469 184.172 526.762 184.436L528.39 185.888L527.642 188.088C527.261 189.261 527.158 190.288 527.334 191.168C527.51 192.048 527.789 192.811 528.17 193.456C528.317 193.779 528.507 194.028 528.742 194.204C529.006 194.38 529.343 194.497 529.754 194.556C529.989 194.585 530.209 194.673 530.414 194.82C530.619 194.967 530.722 195.201 530.722 195.524C530.722 196.228 530.59 196.741 530.326 197.064C530.091 197.357 529.827 197.533 529.534 197.592C528.566 197.709 527.642 197.607 526.762 197.284C525.882 196.961 525.09 196.125 524.386 194.776C524.269 194.6 524.107 194.277 523.902 193.808C523.726 193.309 523.623 192.987 523.594 192.84C523.477 192.987 523.315 193.177 523.11 193.412C522.934 193.617 522.758 193.808 522.582 193.984C520.499 196.096 518.71 197.475 517.214 198.12C515.747 198.736 514.515 198.721 513.518 198.076ZM515.938 194.424C516.143 194.453 516.466 194.351 516.906 194.116C517.346 193.852 517.933 193.427 518.666 192.84C519.663 191.989 520.485 191.285 521.13 190.728C521.775 190.171 522.406 189.452 523.022 188.572L523.99 186.988C523.697 186.313 523.433 185.873 523.198 185.668C522.963 185.463 522.729 185.36 522.494 185.36C522.113 185.36 521.658 185.609 521.13 186.108C520.602 186.577 520.001 187.281 519.326 188.22C518.681 189.129 517.947 190.273 517.126 191.652C516.745 192.297 516.451 192.928 516.246 193.544C516.041 194.131 515.938 194.424 515.938 194.424ZM537.995 196.756C537.995 196.521 537.965 196.301 537.907 196.096C537.848 195.891 537.877 195.729 537.995 195.612L538.347 195.7C538.229 195.729 537.995 195.744 537.643 195.744C537.32 195.715 537.012 195.671 536.719 195.612C536.455 195.524 536.308 195.451 536.279 195.392C536.308 194.893 536.337 194.512 536.367 194.248C536.425 193.984 536.499 193.764 536.587 193.588C536.587 193.324 536.675 192.987 536.851 192.576C537.027 192.165 537.173 191.74 537.291 191.3C537.408 190.801 537.555 190.053 537.731 189.056C537.936 188.059 538.229 187.105 538.611 186.196C538.845 185.433 539.139 184.48 539.491 183.336C539.843 182.163 540.18 181.195 540.503 180.432C540.855 179.083 541.177 177.997 541.471 177.176C541.793 176.325 542.116 175.563 542.439 174.888C542.791 174.184 543.172 173.392 543.583 172.512C543.7 172.277 543.817 171.984 543.935 171.632C544.052 171.251 544.155 170.928 544.243 170.664C544.507 170.195 544.873 169.901 545.343 169.784C545.841 169.667 546.267 169.784 546.619 170.136C546.941 170.459 547.191 170.752 547.367 171.016C547.543 171.251 547.587 171.647 547.499 172.204C547.44 172.732 547.161 173.612 546.663 174.844C546.457 175.137 546.223 175.636 545.959 176.34C545.724 177.015 545.504 177.616 545.299 178.144C544.859 179.171 544.507 180.051 544.243 180.784C543.979 181.517 543.729 182.265 543.495 183.028C543.289 183.849 543.025 184.656 542.703 185.448C542.38 186.211 542.072 187.047 541.779 187.956L541.075 188.176C541.28 187.912 541.529 187.604 541.823 187.252C542.145 186.9 542.439 186.577 542.703 186.284C542.996 185.991 543.187 185.8 543.275 185.712C544.067 185.037 544.947 184.451 545.915 183.952C546.883 183.453 547.792 183.101 548.643 182.896C549.523 182.661 550.183 182.632 550.623 182.808C551.151 182.984 551.664 183.365 552.163 183.952C552.661 184.509 552.999 185.213 553.175 186.064C553.409 186.533 553.38 187.149 553.087 187.912C552.823 188.675 552.412 189.569 551.855 190.596C551.356 191.505 550.784 192.385 550.139 193.236C549.493 194.057 548.877 194.747 548.291 195.304C548.085 195.421 547.821 195.627 547.499 195.92C547.205 196.184 546.941 196.448 546.707 196.712C546.091 197.269 545.328 197.68 544.419 197.944C543.539 198.179 542.644 198.296 541.735 198.296C540.825 198.267 540.019 198.12 539.315 197.856C538.64 197.592 538.2 197.225 537.995 196.756ZM539.315 194.908C539.461 194.937 539.608 194.967 539.755 194.996C539.901 194.996 540.063 194.996 540.239 194.996C540.884 194.908 541.397 194.879 541.779 194.908C542.189 194.908 542.585 194.864 542.967 194.776C543.377 194.688 543.847 194.483 544.375 194.16C545.137 193.573 545.768 192.943 546.267 192.268C546.795 191.593 547.337 190.904 547.895 190.2C548.393 189.555 548.789 188.909 549.083 188.264C549.376 187.589 549.523 187.003 549.523 186.504C549.523 186.24 549.449 186.108 549.303 186.108C549.244 186.108 548.98 186.196 548.511 186.372C548.041 186.519 547.557 186.709 547.059 186.944C546.589 187.149 546.281 187.325 546.135 187.472C546.135 187.589 546.047 187.692 545.871 187.78C545.695 187.839 545.607 187.868 545.607 187.868C544.697 188.543 544.023 189.071 543.583 189.452C543.172 189.804 542.791 190.2 542.439 190.64C542.233 190.933 542.072 191.153 541.955 191.3C541.837 191.417 541.735 191.535 541.647 191.652C541.559 191.74 541.427 191.916 541.251 192.18C541.075 192.444 540.811 192.855 540.459 193.412C540.253 193.793 540.048 194.16 539.843 194.512C539.637 194.864 539.461 195.069 539.315 195.128V194.908ZM560.537 199.484C559.98 199.631 559.481 199.469 559.041 199C558.601 198.56 558.293 197.9 558.117 197.02C557.941 196.14 557.971 195.157 558.205 194.072C558.352 193.72 558.469 193.383 558.557 193.06C558.645 192.708 558.689 192.429 558.689 192.224C558.748 191.931 558.865 191.505 559.041 190.948C559.217 190.361 559.408 189.76 559.613 189.144C559.819 188.528 560.009 187.985 560.185 187.516C560.391 187.017 560.523 186.709 560.581 186.592C560.699 186.592 560.801 186.489 560.889 186.284C560.977 186.079 561.021 185.873 561.021 185.668C561.021 185.433 561.065 185.169 561.153 184.876C561.271 184.583 561.388 184.377 561.505 184.26C561.505 184.113 561.535 183.952 561.593 183.776C561.681 183.571 561.725 183.409 561.725 183.292C561.725 183.175 561.755 183.057 561.813 182.94C561.901 182.823 561.945 182.705 561.945 182.588C562.151 182.207 562.415 181.605 562.737 180.784C563.089 179.933 563.456 178.995 563.837 177.968C564.248 176.941 564.629 175.929 564.981 174.932C565.333 173.935 565.612 173.099 565.817 172.424C566.052 171.72 566.169 171.295 566.169 171.148C566.169 170.913 566.257 170.693 566.433 170.488C566.609 170.283 566.815 170.18 567.049 170.18C567.137 170.092 567.343 170.033 567.665 170.004C567.988 169.945 568.208 169.916 568.325 169.916C568.325 169.916 568.384 169.975 568.501 170.092C568.619 170.209 568.795 170.385 569.029 170.62C569.264 170.825 569.484 171.06 569.689 171.324C569.924 171.588 570.041 171.896 570.041 172.248C570.041 172.629 569.983 172.996 569.865 173.348C569.777 173.7 569.601 174.184 569.337 174.8C569.073 175.387 568.663 176.267 568.105 177.44C567.871 178.027 567.621 178.584 567.357 179.112C567.093 179.611 566.961 179.919 566.961 180.036C566.961 180.153 566.903 180.329 566.785 180.564C566.697 180.799 566.595 181.092 566.477 181.444C566.36 181.679 566.199 182.031 565.993 182.5C565.788 182.94 565.568 183.424 565.333 183.952C565.128 184.451 564.952 184.891 564.805 185.272C564.659 185.624 564.585 185.829 564.585 185.888C564.585 186.005 564.571 186.123 564.541 186.24C564.541 186.357 564.483 186.475 564.365 186.592C564.248 186.592 564.175 186.68 564.145 186.856C564.145 187.003 564.145 187.076 564.145 187.076C564.145 187.369 563.911 188.147 563.441 189.408C562.972 191.021 562.532 192.503 562.121 193.852C561.74 195.201 561.549 196.287 561.549 197.108C561.549 197.812 561.432 198.355 561.197 198.736C560.992 199.117 560.772 199.367 560.537 199.484ZM574.474 199.792C572.86 199.792 571.614 199.323 570.734 198.384C569.883 197.445 569.458 196.008 569.458 194.072C569.458 193.016 569.648 191.857 570.03 190.596C570.44 189.335 570.968 188.103 571.614 186.9C572.288 185.697 573.022 184.656 573.814 183.776C574.606 182.867 575.398 182.236 576.19 181.884C576.483 181.737 576.791 181.635 577.114 181.576C577.466 181.488 577.803 181.444 578.126 181.444C578.478 181.444 578.859 181.473 579.27 181.532C579.71 181.561 580.12 181.649 580.502 181.796C581.176 182.001 581.763 182.397 582.262 182.984C582.79 183.571 583.054 184.421 583.054 185.536C583.054 185.829 583.024 186.152 582.966 186.504C582.907 186.827 582.804 187.149 582.658 187.472C582.276 188.44 581.69 189.364 580.898 190.244C580.135 191.124 579.328 191.74 578.478 192.092C578.243 192.209 578.008 192.297 577.774 192.356C577.568 192.385 577.348 192.4 577.114 192.4C576.498 192.4 575.94 192.312 575.442 192.136C574.972 191.96 574.532 191.725 574.122 191.432L573.77 191.124L573.55 191.564C573.344 192.121 573.198 192.591 573.11 192.972C573.051 193.353 573.022 193.632 573.022 193.808C573.022 194.16 573.036 194.527 573.066 194.908C573.095 195.26 573.183 195.553 573.33 195.788C573.447 195.935 573.594 196.052 573.77 196.14C573.975 196.228 574.224 196.272 574.518 196.272C574.694 196.272 574.855 196.272 575.002 196.272C575.178 196.243 575.324 196.213 575.442 196.184C575.97 196.067 576.395 195.876 576.718 195.612C577.07 195.319 577.436 195.069 577.818 194.864L577.994 194.776L577.95 194.644C578.448 194.38 578.786 194.219 578.962 194.16C579.138 194.072 579.27 193.999 579.358 193.94C579.475 193.823 579.607 193.764 579.754 193.764C580.164 193.705 580.56 193.823 580.942 194.116C581.352 194.38 581.558 194.717 581.558 195.128C581.558 195.304 581.426 195.583 581.162 195.964C580.927 196.345 580.619 196.727 580.238 197.108C579.886 197.46 579.519 197.739 579.138 197.944C579.05 197.973 578.962 198.017 578.874 198.076C578.786 198.105 578.698 198.149 578.61 198.208H578.654C578.39 198.56 578.126 198.736 577.862 198.736H577.51C577.392 198.941 577.011 199.161 576.366 199.396C575.72 199.66 575.09 199.792 574.474 199.792ZM576.762 189.188C577.026 189.188 577.26 189.144 577.466 189.056C577.7 188.968 577.92 188.865 578.126 188.748C578.83 188.249 579.284 187.604 579.49 186.812C579.695 186.02 579.622 185.419 579.27 185.008C579.211 184.92 579.138 184.861 579.05 184.832C578.962 184.773 578.859 184.744 578.742 184.744C578.419 184.744 578.052 184.847 577.642 185.052C577.26 185.257 576.879 185.551 576.498 185.932C576.116 186.313 575.764 186.768 575.442 187.296L574.87 188.22C574.928 188.191 574.972 188.176 575.002 188.176C575.06 188.147 575.104 188.132 575.134 188.132C575.398 188.132 575.574 188.22 575.662 188.396C575.75 188.572 575.852 188.748 575.97 188.924C576.116 189.1 576.38 189.188 576.762 189.188ZM592.381 199.264C591.442 199.264 590.577 199.059 589.785 198.648C589.022 198.208 588.406 197.68 587.937 197.064C587.468 196.419 587.233 195.803 587.233 195.216C587.233 194.952 587.277 194.761 587.365 194.644C587.482 194.527 587.644 194.468 587.849 194.468C587.996 194.497 588.172 194.571 588.377 194.688C588.582 194.805 588.788 194.937 588.993 195.084C589.462 195.407 589.976 195.612 590.533 195.7C591.09 195.788 591.589 195.759 592.029 195.612C592.469 195.436 592.718 195.172 592.777 194.82C592.777 194.703 592.718 194.453 592.601 194.072C592.484 193.691 592.337 193.324 592.161 192.972C591.428 191.887 590.973 190.86 590.797 189.892C590.621 188.895 590.504 187.897 590.445 186.9C590.445 186.489 590.636 186.035 591.017 185.536C591.398 185.008 591.868 184.495 592.425 183.996C593.041 183.468 593.716 182.969 594.449 182.5C595.212 182.031 595.96 181.635 596.693 181.312C597.426 180.989 598.042 180.799 598.541 180.74C599.069 180.74 599.626 180.769 600.213 180.828C600.829 180.857 601.24 180.96 601.445 181.136C601.856 181.459 602.237 181.987 602.589 182.72C602.941 183.453 603.117 184.069 603.117 184.568C603.117 184.803 602.985 185.096 602.721 185.448C602.486 185.771 602.266 186.137 602.061 186.548C601.944 186.753 601.841 186.973 601.753 187.208C601.665 187.443 601.562 187.677 601.445 187.912C601.269 188.323 600.946 188.499 600.477 188.44C600.037 188.352 599.626 188.117 599.245 187.736C598.864 187.325 598.673 186.856 598.673 186.328C598.673 185.888 598.805 185.507 599.069 185.184C599.333 184.861 599.465 184.641 599.465 184.524C599.465 184.465 599.436 184.421 599.377 184.392C599.318 184.363 599.216 184.348 599.069 184.348C598.864 184.348 598.526 184.436 598.057 184.612C597.617 184.759 597.148 184.979 596.649 185.272C596.15 185.565 595.696 185.917 595.285 186.328C594.992 186.651 594.742 187.003 594.537 187.384C594.361 187.736 594.273 188.117 594.273 188.528C594.273 188.939 594.346 189.423 594.493 189.98C594.669 190.508 594.86 190.948 595.065 191.3C595.124 191.359 595.212 191.52 595.329 191.784C595.476 192.019 595.637 192.312 595.813 192.664C596.898 194.893 597.074 196.551 596.341 197.636C595.637 198.721 594.317 199.264 592.381 199.264Z" fill="#B8C318"/>
</svg>
