<svg width="900" height="250" viewBox="0 0 900 250" fill="none" xmlns="http://www.w3.org/2000/svg">
<rect width="900" height="220" rx="60" fill="#FDFDFB"/>
<rect x="5.5" y="35.5" width="889" height="209" rx="54.5" fill="#FDFDFB" stroke="#B8C318" stroke-width="11"/>
<rect width="449" height="172" transform="translate(225 54)" fill="#FDFDFB"/>
<path d="M234.78 118.46L240.54 122C238.62 128.54 236.22 135.62 234 141.5L227.46 138.02C229.62 133.16 232.56 125.6 234.78 118.46ZM240.48 107.84L236.22 113.6C234.18 112.04 229.92 109.58 226.86 107.84L230.88 102.74C233.88 104.12 238.2 106.4 240.48 107.84ZM276.12 115.4V118.76H283.14V125.12H276.12V134.96C276.12 138.2 275.64 139.94 273.42 141.02C271.32 142.1 268.38 142.16 264.42 142.16C264.18 140.24 263.34 137.54 262.56 135.62C265.02 135.74 267.66 135.74 268.5 135.74C269.28 135.74 269.52 135.56 269.52 134.84V125.12H261.9V118.76H269.52V113.54C270.48 112.76 271.56 111.8 272.52 110.72H264.36V107.72C262.92 106.7 260.22 105.2 258.66 104.48C259.32 103.58 259.92 102.62 260.52 101.54H251.46C251.4 103.76 251.34 105.92 251.22 108.14H261.24C261.24 108.14 261.18 110.12 261.18 110.96C260.52 129.62 259.92 136.76 258.24 138.92C257.16 140.54 256.02 141.14 254.4 141.38C253.02 141.62 250.86 141.68 248.58 141.62C248.4 139.7 247.86 137 246.84 135.2C248.58 135.44 250.08 135.44 250.98 135.44C251.7 135.44 252.18 135.26 252.72 134.54C253.56 133.28 254.16 128.3 254.58 114.62H250.8C249.84 125.36 247.56 135.2 241.68 142.1C240.6 140.48 238.56 138.5 236.82 137.48C244.14 129.14 244.68 115.28 244.92 101.54H240.6V94.88L238.2 98.06C236.16 96.38 231.9 93.62 228.96 91.88L233.04 86.78C235.98 88.34 240.3 90.8 242.46 92.3L240.66 94.82H249.36C248.46 92.78 246.96 90.2 245.58 88.16L252.18 85.7C253.8 87.92 255.66 90.92 256.62 92.9L252.18 94.82H261.72V99.02C263.28 95.24 264.36 90.8 265.02 86.24L271.86 87.38C271.5 89.36 271.08 91.34 270.6 93.26H282.96V99.98H268.56C267.96 101.6 267.3 103.16 266.7 104.54H277.86L279.12 104.18L283.32 107.18C281.34 109.94 278.76 112.88 276.12 115.4ZM303.72 101L310.68 102.32C310.08 104.54 309.36 106.76 308.52 108.8C310.68 110.66 312.96 112.7 314.34 114.08L309.54 119.06C308.64 117.92 307.14 116.42 305.52 114.86C303.54 118.1 301.26 120.92 298.62 123.08C297.48 121.82 294.66 119.48 293.1 118.4C298.38 114.62 302.04 108.32 303.72 101ZM346.56 116.54L341.58 121.52C339.9 119.66 336.84 117.02 333.84 114.56C332.64 116.54 331.32 118.28 329.82 119.72C328.8 118.88 326.82 117.56 325.14 116.66C330.48 123.74 339.06 130.1 348.06 133.4C346.32 134.9 343.98 137.96 342.78 139.94C335.52 136.58 328.74 131.18 323.34 124.76V142.22H315.84V125.12C310.44 131.42 303.72 136.64 296.58 139.94C295.44 138.2 293.1 135.32 291.54 133.82C301.26 130.04 310.62 122.6 315.84 114.5V100.64H294V93.62H315.84V86.24H323.34V93.62H345.96V100.64H323.34V114.08C323.64 114.56 323.94 114.98 324.24 115.46C328.08 112.04 330.6 106.7 331.8 101L338.76 102.26C338.22 104.48 337.56 106.64 336.78 108.68C340.2 111.32 344.34 114.5 346.56 116.54ZM364.38 118.46L370.14 122C368.22 128.54 365.82 135.62 363.6 141.5L357.06 138.02C359.22 133.16 362.16 125.6 364.38 118.46ZM370.08 107.84L365.82 113.6C363.78 112.04 359.52 109.58 356.46 107.84L360.48 102.74C363.48 104.12 367.8 106.4 370.08 107.84ZM405.72 115.4V118.76H412.74V125.12H405.72V134.96C405.72 138.2 405.24 139.94 403.02 141.02C400.92 142.1 397.98 142.16 394.02 142.16C393.78 140.24 392.94 137.54 392.16 135.62C394.62 135.74 397.26 135.74 398.1 135.74C398.88 135.74 399.12 135.56 399.12 134.84V125.12H391.5V118.76H399.12V113.54C400.08 112.76 401.16 111.8 402.12 110.72H393.96V107.72C392.52 106.7 389.82 105.2 388.26 104.48C388.92 103.58 389.52 102.62 390.12 101.54H381.06C381 103.76 380.94 105.92 380.82 108.14H390.84C390.84 108.14 390.78 110.12 390.78 110.96C390.12 129.62 389.52 136.76 387.84 138.92C386.76 140.54 385.62 141.14 384 141.38C382.62 141.62 380.46 141.68 378.18 141.62C378 139.7 377.46 137 376.44 135.2C378.18 135.44 379.68 135.44 380.58 135.44C381.3 135.44 381.78 135.26 382.32 134.54C383.16 133.28 383.76 128.3 384.18 114.62H380.4C379.44 125.36 377.16 135.2 371.28 142.1C370.2 140.48 368.16 138.5 366.42 137.48C373.74 129.14 374.28 115.28 374.52 101.54H370.2V94.88L367.8 98.06C365.76 96.38 361.5 93.62 358.56 91.88L362.64 86.78C365.58 88.34 369.9 90.8 372.06 92.3L370.26 94.82H378.96C378.06 92.78 376.56 90.2 375.18 88.16L381.78 85.7C383.4 87.92 385.26 90.92 386.22 92.9L381.78 94.82H391.32V99.02C392.88 95.24 393.96 90.8 394.62 86.24L401.46 87.38C401.1 89.36 400.68 91.34 400.2 93.26H412.56V99.98H398.16C397.56 101.6 396.9 103.16 396.3 104.54H407.46L408.72 104.18L412.92 107.18C410.94 109.94 408.36 112.88 405.72 115.4ZM476.82 117.32H448.2C444.9 122.6 440.94 127.7 437.04 132.02L461.34 130.58C459.24 127.52 457.02 124.52 454.92 121.94L461.52 119.06C466.74 125.06 472.2 132.92 474.84 138.38L467.88 141.98C467.22 140.48 466.38 138.8 465.36 137C435.12 139.4 430.92 139.58 427.92 140.72C427.5 139.28 426.3 135.68 425.46 133.7C427.02 133.34 428.28 132.14 430.08 130.1C431.52 128.6 435.78 123.2 439.14 117.32H422.28V110.12H445.62V101.6H426.84V94.4H445.62V86.12H453.18V94.4H472.5V101.6H453.18V110.12H476.82V117.32ZM495.24 129.74H504.78V117.98H495.24V129.74ZM504.78 111.8V102.08H495.24V111.8H504.78ZM523.86 95.42H540.72C540.72 95.42 540.72 97.82 540.66 98.66C539.88 125.48 539.22 135.02 536.76 138.2C535.08 140.42 533.4 141.08 531 141.5C528.72 141.8 525.12 141.74 521.58 141.62C521.46 139.64 520.5 136.64 519.24 134.66C523.08 135.02 526.62 135.02 528.18 135.02C529.38 135.02 530.04 134.78 530.82 134C532.56 132.08 533.34 123.08 534 101.9H521.16C519.6 105.5 517.74 108.8 515.88 111.38C514.92 110.48 512.88 109.1 511.26 108.02V136.04H495.24V140.42H488.76V95.84H495.54C496.32 92.84 497.04 89 497.28 86.18L505.08 87.26C504.06 90.26 502.98 93.26 501.96 95.84H511.26V105.56C514.74 100.52 517.62 93.26 519.36 86.24L526.2 87.8C525.54 90.38 524.76 92.9 523.86 95.42ZM530.76 122.78L524.7 126.5C523.02 122.9 519.3 117.02 516.36 112.64L521.94 109.46C524.94 113.6 528.9 119.3 530.76 122.78ZM580.62 95.3H569.82C568.62 96.8 567.3 98.3 565.98 99.74H577.26C578.46 98.42 579.66 96.86 580.62 95.3ZM593.22 110V105.56H582.36V110H593.22ZM593.22 119.84V115.4H582.36V119.84H593.22ZM565.26 115.4V119.84H575.46V115.4H565.26ZM565.26 105.56V110H575.46V105.56H565.26ZM558.36 125.66V106.64C557.64 107.24 556.92 107.78 556.14 108.32C555.06 106.58 552.66 104 551.04 102.8C558.78 97.94 564.3 91.34 567.42 85.76L575.28 87.32C574.8 88.1 574.32 88.88 573.84 89.66H584.64L585.78 89.36L590.82 92.42C589.62 94.7 587.88 97.34 586.02 99.74H600.36V125.66H558.36ZM557.28 142.28L550.62 138.62C553.74 136.16 556.98 131.72 558.72 127.34L565.74 129.2C563.88 134.12 560.7 139.22 557.28 142.28ZM569.04 129.44L575.82 128.78C576.6 132.68 577.32 137.6 577.38 140.6L570.18 141.5C570.18 138.5 569.7 133.4 569.04 129.44ZM580.5 129.62L587.04 128.12C588.78 131.72 590.64 136.58 591.42 139.64L584.46 141.32C583.86 138.38 582.12 133.4 580.5 129.62ZM592.02 129.44L598.56 126.74C601.68 130.34 605.7 135.5 607.38 139.1L600.36 142.28C598.92 138.86 595.14 133.4 592.02 129.44ZM640.74 121.58L639.12 101.06L638.82 92.12H648.78L648.48 101.06L646.86 121.58H640.74ZM643.8 137.54C640.74 137.54 638.52 135.38 638.52 132.26C638.52 129.08 640.8 126.92 643.8 126.92C646.8 126.92 649.08 129.08 649.08 132.26C649.08 135.38 646.8 137.54 643.8 137.54Z" fill="#594A39"/>
<path d="M333.778 201.86C333.25 201.713 332.824 201.581 332.502 201.464C332.179 201.376 332.018 201.332 332.018 201.332C332.076 201.185 332.047 201.053 331.93 200.936C331.842 200.819 331.636 200.745 331.314 200.716C330.874 200.423 330.419 200.012 329.95 199.484C329.48 198.956 329.07 198.413 328.718 197.856C328.366 197.299 328.131 196.888 328.014 196.624C327.808 196.184 327.823 195.92 328.058 195.832C328.292 195.715 328.571 195.583 328.894 195.436C329.216 195.201 329.554 195.025 329.906 194.908C330.287 194.791 330.595 194.981 330.83 195.48C331.211 196.155 331.798 196.727 332.59 197.196C333.411 197.665 334.335 197.944 335.362 198.032C336.418 198.12 337.474 197.944 338.53 197.504C339.234 197.181 339.615 196.741 339.674 196.184C339.732 195.597 339.512 194.923 339.014 194.16C338.926 193.925 338.794 193.735 338.618 193.588C338.471 193.441 338.236 193.251 337.914 193.016C337.62 192.781 337.195 192.4 336.638 191.872C336.198 191.667 335.787 191.476 335.406 191.3C335.054 191.124 334.672 190.933 334.262 190.728C333.792 190.493 333.264 190.171 332.678 189.76C332.091 189.32 331.548 188.851 331.05 188.352C330.551 187.824 330.17 187.325 329.906 186.856C329.436 186.416 329.143 185.815 329.026 185.052C328.908 184.26 328.923 183.424 329.07 182.544C329.246 181.664 329.524 180.872 329.906 180.168C330.082 179.757 330.404 179.229 330.874 178.584C331.343 177.909 331.871 177.22 332.458 176.516C333.044 175.812 333.602 175.181 334.13 174.624C334.687 174.037 335.127 173.641 335.45 173.436C335.684 173.201 335.934 172.967 336.198 172.732C336.462 172.468 336.594 172.336 336.594 172.336C336.623 172.189 336.667 172.116 336.726 172.116C336.814 172.116 336.858 172.116 336.858 172.116C337.004 172.028 337.327 171.881 337.826 171.676C338.324 171.471 338.867 171.089 339.454 170.532C341.419 169.593 343.091 168.963 344.47 168.64C345.848 168.288 346.934 168.112 347.726 168.112C348.459 168.141 349.178 168.347 349.882 168.728C350.586 169.08 351.187 169.535 351.686 170.092C352.214 170.649 352.522 171.28 352.61 171.984C352.815 172.688 352.712 173.539 352.302 174.536C351.92 175.504 351.378 176.428 350.674 177.308C349.999 178.159 349.295 178.789 348.562 179.2C347.74 179.552 347.036 179.596 346.45 179.332C345.892 179.068 345.628 178.657 345.658 178.1C345.658 177.865 345.731 177.587 345.878 177.264C346.054 176.941 346.508 176.369 347.242 175.548C348.18 174.169 348.679 173.187 348.738 172.6C348.796 172.013 348.532 171.676 347.946 171.588C347.77 171.529 347.432 171.544 346.934 171.632C346.435 171.72 345.892 171.837 345.306 171.984C344.748 172.101 344.25 172.233 343.81 172.38C343.399 172.527 343.194 172.629 343.194 172.688C343.194 172.688 343.194 172.732 343.194 172.82C343.194 172.908 343.135 172.937 343.018 172.908C342.959 172.908 342.754 173.011 342.402 173.216C342.079 173.392 341.683 173.627 341.214 173.92C340.744 174.213 340.275 174.521 339.806 174.844C339.366 175.137 338.984 175.401 338.662 175.636C338.339 175.871 338.163 176.017 338.134 176.076C338.075 176.399 337.738 176.692 337.122 176.956C336.535 177.308 336.022 177.807 335.582 178.452C335.142 179.097 334.628 179.919 334.042 180.916C333.543 181.591 333.191 182.324 332.986 183.116C332.78 183.879 332.78 184.495 332.986 184.964C333.132 185.433 333.528 185.903 334.174 186.372C334.848 186.812 335.758 187.369 336.902 188.044C337.899 188.601 338.838 189.188 339.718 189.804C340.598 190.42 341.346 191.021 341.962 191.608C342.578 192.165 342.974 192.635 343.15 193.016C343.502 193.515 343.707 194.087 343.766 194.732C343.854 195.377 343.854 196.008 343.766 196.624C343.707 197.211 343.619 197.695 343.502 198.076C343.296 198.545 342.974 199.044 342.534 199.572C342.123 200.1 341.742 200.349 341.39 200.32C341.067 200.408 340.818 200.511 340.642 200.628C340.495 200.745 340.319 200.848 340.114 200.936C339.908 201.053 339.424 201.185 338.662 201.332C337.899 201.508 337.063 201.64 336.154 201.728C335.244 201.845 334.452 201.889 333.778 201.86ZM353.527 197.68C353.087 197.68 352.647 197.357 352.207 196.712C351.767 196.037 351.415 195.216 351.151 194.248C350.916 193.28 350.828 192.327 350.887 191.388C350.887 190.449 350.931 189.701 351.019 189.144C351.136 188.557 351.253 187.985 351.371 187.428C351.459 187.252 351.503 187.105 351.503 186.988C351.532 186.871 351.561 186.68 351.591 186.416C351.649 186.152 351.752 185.712 351.899 185.096C352.016 184.597 352.133 184.187 352.251 183.864C352.397 183.541 352.515 183.321 352.603 183.204C352.955 182.735 353.351 182.456 353.791 182.368C354.231 182.251 354.627 182.295 354.979 182.5C355.36 182.705 355.58 183.013 355.639 183.424C355.815 183.571 355.903 183.908 355.903 184.436C355.932 184.935 355.903 185.463 355.815 186.02C355.727 186.548 355.595 186.929 355.419 187.164C355.36 187.311 355.287 187.692 355.199 188.308C355.14 188.924 355.067 189.569 354.979 190.244C354.92 190.919 354.847 191.461 354.759 191.872C354.671 192.4 354.7 192.737 354.847 192.884C355.023 193.001 355.316 192.869 355.727 192.488C356.167 192.077 356.739 191.359 357.443 190.332C358.029 189.452 358.455 188.763 358.719 188.264C359.012 187.765 359.232 187.311 359.379 186.9C359.555 186.489 359.745 186.005 359.951 185.448C360.097 184.979 360.229 184.597 360.347 184.304C360.493 184.011 360.625 183.805 360.743 183.688C361.065 183.219 361.491 183.028 362.019 183.116C362.576 183.175 363.031 183.321 363.383 183.556C363.735 183.908 363.94 184.392 363.999 185.008C364.087 185.595 363.955 186.24 363.603 186.944C363.368 187.413 363.133 187.971 362.899 188.616C362.693 189.261 362.517 189.907 362.371 190.552C362.253 191.197 362.195 191.755 362.195 192.224C362.195 192.811 362.268 193.163 362.415 193.28C362.591 193.368 362.796 193.412 363.031 193.412C363.383 193.412 363.72 193.295 364.043 193.06C364.365 192.796 364.835 192.341 365.451 191.696C365.715 191.432 366.037 191.036 366.419 190.508C366.8 189.98 367.167 189.423 367.519 188.836C367.9 188.249 368.208 187.736 368.443 187.296C368.707 186.827 368.839 186.533 368.839 186.416C368.839 186.24 368.971 185.991 369.235 185.668C369.411 185.433 369.543 185.257 369.631 185.14C369.748 184.993 369.953 184.847 370.247 184.7C370.481 184.583 370.745 184.568 371.039 184.656C371.332 184.715 371.581 184.861 371.787 185.096C371.933 185.213 372.036 185.507 372.095 185.976C372.183 186.416 372.227 186.812 372.227 187.164C372.139 187.487 372.007 187.941 371.831 188.528C371.655 189.085 371.464 189.628 371.259 190.156C371.083 190.655 370.921 190.992 370.775 191.168C370.657 191.285 370.452 191.505 370.159 191.828C369.865 192.121 369.601 192.444 369.367 192.796C368.633 193.676 368.105 194.248 367.783 194.512C367.46 194.776 367.181 195.025 366.947 195.26C366.331 195.876 365.627 196.375 364.835 196.756C364.043 197.108 363.295 197.313 362.591 197.372C361.887 197.401 361.329 197.269 360.919 196.976C360.009 196.507 359.555 195.715 359.555 194.6C359.555 194.365 359.511 194.16 359.423 193.984C359.364 193.779 359.335 193.676 359.335 193.676C359.217 193.676 359.056 193.705 358.851 193.764C358.675 193.823 358.484 194.028 358.279 194.38C358.015 194.879 357.56 195.392 356.915 195.92C356.299 196.419 355.668 196.844 355.023 197.196C354.377 197.519 353.879 197.68 353.527 197.68ZM377.259 198.252C377.024 198.017 376.848 197.665 376.731 197.196C376.643 196.727 376.614 196.272 376.643 195.832C376.672 195.363 376.746 195.011 376.863 194.776C376.863 194.541 376.892 194.365 376.951 194.248C377.039 194.101 377.068 193.969 377.039 193.852C377.01 193.735 377.039 193.529 377.127 193.236C377.215 192.943 377.303 192.664 377.391 192.4C377.596 191.931 377.831 191.329 378.095 190.596C378.359 189.833 378.623 189.071 378.887 188.308C379.151 187.516 379.371 186.841 379.547 186.284C379.723 185.697 379.826 185.345 379.855 185.228C379.855 184.876 380.09 184.685 380.559 184.656C380.911 184.539 381.336 184.685 381.835 185.096C382.334 185.507 382.73 185.947 383.023 186.416C383.258 186.651 383.346 186.959 383.287 187.34C383.228 187.721 383.038 188.264 382.715 188.968C382.598 189.203 382.451 189.599 382.275 190.156C382.128 190.684 382.026 191.124 381.967 191.476C381.85 191.711 381.703 192.048 381.527 192.488C381.38 192.899 381.248 193.295 381.131 193.676C381.072 193.823 381.014 194.101 380.955 194.512C380.896 194.893 380.823 195.289 380.735 195.7C380.647 196.111 380.53 196.433 380.383 196.668C380.119 197.871 379.65 198.575 378.975 198.78C378.33 198.985 377.758 198.809 377.259 198.252ZM382.011 180.608C381.688 180.373 381.439 180.095 381.263 179.772C381.116 179.42 381.028 179.112 380.999 178.848C380.999 178.584 381.028 178.423 381.087 178.364C381.38 178.041 381.63 177.616 381.835 177.088C382.07 176.56 382.319 176.076 382.583 175.636C382.642 175.548 382.715 175.431 382.803 175.284C382.92 175.108 383.038 175.005 383.155 174.976C383.507 174.741 383.991 174.756 384.607 175.02C385.252 175.284 385.722 175.651 386.015 176.12C386.279 176.677 386.352 177.249 386.235 177.836C386.147 178.423 385.839 179.039 385.311 179.684C384.871 180.271 384.314 180.652 383.639 180.828C382.964 180.975 382.422 180.901 382.011 180.608ZM390.516 197.372C390.428 197.255 390.237 197.108 389.944 196.932C389.65 196.756 389.504 196.609 389.504 196.492C389.504 196.433 389.489 196.36 389.46 196.272C389.46 196.184 389.401 196.14 389.284 196.14C389.196 196.052 389.24 195.729 389.416 195.172C389.621 194.615 389.885 193.955 390.208 193.192C390.56 192.429 390.926 191.696 391.308 190.992C391.689 190.259 392.012 189.672 392.276 189.232C392.422 189.144 392.51 189.027 392.54 188.88C392.598 188.704 392.598 188.616 392.54 188.616C392.54 188.616 392.613 188.484 392.76 188.22C392.936 187.927 393.068 187.736 393.156 187.648C393.39 187.237 393.566 186.827 393.684 186.416C393.801 185.976 393.83 185.609 393.772 185.316C393.654 185.169 393.522 185.125 393.376 185.184C393.229 185.243 393.156 185.272 393.156 185.272C393.038 185.301 392.862 185.36 392.628 185.448C392.422 185.507 392.232 185.595 392.056 185.712C391.381 186.181 390.882 186.416 390.56 186.416C390.266 186.416 389.973 186.064 389.68 185.36C389.562 185.037 389.518 184.729 389.548 184.436C389.577 184.143 389.694 183.908 389.9 183.732C390.134 183.527 390.428 183.321 390.78 183.116C391.132 182.881 391.366 182.72 391.484 182.632C391.806 182.427 392.261 182.207 392.848 181.972C393.434 181.737 393.786 181.605 393.904 181.576C394.666 181.341 395.312 181.341 395.84 181.576C396.368 181.781 396.764 182.192 397.028 182.808C397.438 183.307 397.644 183.835 397.644 184.392C397.644 184.949 397.438 185.639 397.028 186.46L396.588 187.12C396.441 187.413 396.412 187.56 396.5 187.56C396.617 187.56 396.749 187.457 396.896 187.252C396.984 187.135 397.16 186.959 397.424 186.724C397.688 186.489 397.864 186.372 397.952 186.372C397.952 186.372 397.981 186.357 398.04 186.328C398.128 186.299 398.172 186.181 398.172 185.976C398.26 185.888 398.348 185.8 398.436 185.712C398.553 185.624 398.612 185.58 398.612 185.58C398.729 185.58 398.876 185.521 399.052 185.404C399.257 185.257 399.594 184.993 400.064 184.612C400.386 184.377 400.68 184.26 400.944 184.26C401.618 184.055 402.161 184.275 402.572 184.92C403.012 185.565 403.232 186.401 403.232 187.428L402.308 189.804L403.892 187.868C404.068 187.633 404.244 187.428 404.42 187.252C404.625 187.076 404.801 186.929 404.948 186.812C405.006 186.607 405.094 186.489 405.212 186.46C405.329 186.431 405.388 186.416 405.388 186.416C405.388 186.416 405.417 186.416 405.476 186.416C405.534 186.387 405.564 186.328 405.564 186.24C405.71 186.123 405.872 186.02 406.048 185.932C406.224 185.815 406.341 185.697 406.4 185.58C406.898 185.375 407.5 185.345 408.204 185.492C408.908 185.609 409.406 185.976 409.7 186.592C409.905 186.944 410.096 187.252 410.272 187.516C410.448 187.78 410.536 188.176 410.536 188.704C410.477 189.144 410.418 189.452 410.36 189.628C410.33 189.804 410.301 189.995 410.272 190.2C410.242 190.376 410.198 190.699 410.14 191.168C410.022 191.403 409.949 191.652 409.92 191.916C409.92 192.18 409.92 192.429 409.92 192.664C409.92 193.045 409.934 193.309 409.964 193.456C409.993 193.573 410.11 193.632 410.316 193.632C410.726 193.544 411.064 193.412 411.328 193.236C411.621 193.031 411.944 192.767 412.296 192.444C412.736 192.033 413.117 191.975 413.44 192.268C413.792 192.532 414.012 192.84 414.1 193.192C414.158 193.309 414.1 193.573 413.924 193.984C413.748 194.395 413.542 194.791 413.308 195.172C413.073 195.553 412.882 195.744 412.736 195.744C412.648 195.744 412.472 195.861 412.208 196.096C411.944 196.331 411.738 196.492 411.592 196.58C411.386 196.785 411.181 196.976 410.976 197.152C410.8 197.328 410.594 197.416 410.36 197.416C410.242 197.416 410.096 197.46 409.92 197.548C409.773 197.607 409.597 197.636 409.392 197.636C409.098 197.724 408.644 197.68 408.028 197.504C407.441 197.328 407.06 196.917 406.884 196.272C406.766 195.949 406.59 195.539 406.356 195.04C406.15 194.541 406.106 193.925 406.224 193.192C406.341 192.664 406.414 192.18 406.444 191.74C406.473 191.3 406.532 190.992 406.62 190.816C406.62 190.728 406.62 190.523 406.62 190.2C406.62 189.848 406.576 189.672 406.488 189.672C406.37 189.672 406.15 189.819 405.828 190.112C405.505 190.405 405.124 190.801 404.684 191.3C404.244 191.769 403.789 192.283 403.32 192.84C402.88 193.397 402.484 193.955 402.132 194.512C401.868 194.835 401.633 195.231 401.428 195.7C401.222 196.169 401.076 196.433 400.988 196.492C400.782 196.727 400.43 196.756 399.932 196.58C399.462 196.404 399.11 196.125 398.876 195.744C398.788 195.568 398.685 195.465 398.568 195.436C398.45 195.377 398.348 195.289 398.26 195.172C398.201 195.025 398.201 194.747 398.26 194.336C398.348 193.925 398.538 193.265 398.832 192.356C399.154 191.359 399.433 190.464 399.668 189.672C399.932 188.851 400.064 188.44 400.064 188.44C400.064 188.323 399.844 188.44 399.404 188.792C398.964 189.115 398.45 189.525 397.864 190.024C397.6 190.347 397.248 190.757 396.808 191.256C396.397 191.755 395.913 192.341 395.356 193.016C394.828 193.691 394.226 194.483 393.552 195.392C392.701 196.595 392.056 197.328 391.616 197.592C391.205 197.856 390.838 197.783 390.516 197.372ZM422.033 197.548C421.476 197.313 421.021 196.961 420.669 196.492C420.346 195.993 420.185 195.392 420.185 194.688C420.185 194.395 420.244 193.896 420.361 193.192C420.478 192.488 420.64 191.696 420.845 190.816C421.05 189.936 421.256 189.115 421.461 188.352C421.754 187.824 421.945 187.296 422.033 186.768C422.15 186.24 422.209 185.917 422.209 185.8C422.268 185.448 422.37 184.979 422.517 184.392C422.664 183.805 422.81 183.277 422.957 182.808C423.133 182.309 423.25 182.031 423.309 181.972C423.456 181.825 423.705 181.737 424.057 181.708C424.409 181.679 424.761 181.723 425.113 181.84C425.465 181.928 425.7 182.119 425.817 182.412C426.14 182.764 426.316 183.292 426.345 183.996C426.404 184.7 426.272 185.521 425.949 186.46C425.685 187.047 425.421 187.736 425.157 188.528C424.893 189.32 424.658 190.053 424.453 190.728C424.277 191.373 424.174 191.813 424.145 192.048L422.561 192.004C423.06 191.535 423.529 191.051 423.969 190.552C424.409 190.024 424.732 189.613 424.937 189.32C425.436 188.645 425.861 188.088 426.213 187.648C426.594 187.179 427.078 186.621 427.665 185.976C428.252 185.301 428.882 184.832 429.557 184.568C430.232 184.275 430.73 184.128 431.053 184.128C431.698 184.245 432.27 184.583 432.769 185.14C433.297 185.668 433.62 186.46 433.737 187.516C433.737 187.927 433.693 188.411 433.605 188.968C433.546 189.525 433.517 189.804 433.517 189.804C433.517 189.804 433.752 189.511 434.221 188.924C434.72 188.337 435.38 187.677 436.201 186.944C436.758 186.533 437.301 186.299 437.829 186.24C438.357 186.152 438.826 186.328 439.237 186.768C440 187.179 440.557 187.897 440.909 188.924C441.261 189.951 441.378 191.109 441.261 192.4C441.173 193.163 441.173 193.779 441.261 194.248C441.378 194.688 441.496 195.084 441.613 195.436C441.994 195.964 442.053 196.433 441.789 196.844C441.525 197.225 441.29 197.416 441.085 197.416C440.792 197.416 440.352 197.357 439.765 197.24C439.178 197.123 438.636 196.917 438.137 196.624C437.668 196.331 437.433 195.935 437.433 195.436V192.708C437.433 192.063 437.404 191.593 437.345 191.3C437.316 190.977 437.242 190.772 437.125 190.684C436.802 190.508 436.406 190.64 435.937 191.08C435.468 191.52 434.954 192.151 434.397 192.972C433.869 193.764 433.297 194.659 432.681 195.656C432.124 196.565 431.669 197.123 431.317 197.328C430.965 197.504 430.628 197.489 430.305 197.284C429.66 197.079 429.249 196.8 429.073 196.448C428.926 196.067 428.912 195.641 429.029 195.172C429.176 194.673 429.352 194.028 429.557 193.236C429.792 192.444 430.012 191.681 430.217 190.948C430.422 190.185 430.554 189.628 430.613 189.276C430.496 189.041 430.29 188.968 429.997 189.056C429.733 189.115 429.454 189.247 429.161 189.452C428.809 189.687 428.428 189.936 428.017 190.2C427.636 190.464 427.181 191.021 426.653 191.872C426.301 192.429 425.905 193.045 425.465 193.72C425.025 194.365 424.614 194.952 424.233 195.48C423.881 196.008 423.588 196.375 423.353 196.58C423.148 197.108 422.957 197.445 422.781 197.592C422.605 197.709 422.356 197.695 422.033 197.548ZM451.44 198.956C450.736 198.956 450.12 198.589 449.592 197.856C449.093 197.093 448.785 196.184 448.668 195.128C448.697 194.893 448.726 194.556 448.756 194.116C448.814 193.676 448.873 193.221 448.932 192.752C449.049 192.195 449.21 191.476 449.416 190.596C449.621 189.716 449.841 188.836 450.076 187.956C450.31 187.047 450.516 186.269 450.692 185.624C450.868 184.949 450.97 184.553 451 184.436C451.176 184.025 451.572 183.923 452.188 184.128C452.804 184.333 453.332 184.773 453.772 185.448C453.948 185.683 454.05 185.961 454.08 186.284C454.138 186.607 454.094 187.076 453.948 187.692C453.83 188.308 453.596 189.217 453.244 190.42C452.921 191.593 452.672 192.547 452.496 193.28C452.349 193.984 452.29 194.732 452.32 195.524C452.202 196.873 452.085 197.797 451.968 198.296C451.85 198.765 451.674 198.985 451.44 198.956ZM455.488 180.696C455.37 180.784 455.253 180.828 455.136 180.828C455.048 180.799 454.886 180.711 454.652 180.564C454.446 180.535 454.182 180.403 453.86 180.168C453.566 179.904 453.302 179.64 453.068 179.376C452.862 179.112 452.76 178.951 452.76 178.892C452.73 178.599 452.745 178.129 452.804 177.484C452.892 176.839 453.053 176.237 453.288 175.68C453.552 175.093 453.904 174.785 454.344 174.756C454.461 174.756 454.71 174.815 455.092 174.932C455.502 175.049 455.928 175.196 456.368 175.372C456.602 175.812 456.822 176.384 457.028 177.088C457.233 177.792 457.248 178.481 457.072 179.156C456.925 179.801 456.397 180.315 455.488 180.696ZM475.564 197.944C474.919 197.885 474.376 197.753 473.936 197.548C473.526 197.313 473.188 196.859 472.924 196.184C472.807 195.715 472.748 195.231 472.748 194.732C472.778 194.204 472.822 193.705 472.88 193.236C472.939 192.737 472.968 192.312 472.968 191.96C472.968 191.901 472.968 191.784 472.968 191.608C472.968 191.432 472.968 191.271 472.968 191.124C472.91 190.684 472.792 190.42 472.616 190.332C472.47 190.215 472.206 190.229 471.824 190.376C471.208 190.669 470.534 191.065 469.8 191.564C469.096 192.033 468.348 192.591 467.556 193.236C466.794 193.852 466.002 194.512 465.18 195.216C464.535 195.92 464.051 196.492 463.728 196.932C463.435 197.372 463.127 197.592 462.804 197.592C462.57 197.709 462.32 197.68 462.056 197.504C461.792 197.328 461.514 197.123 461.22 196.888C461.015 196.653 460.766 196.36 460.472 196.008C460.208 195.627 460.047 195.377 459.988 195.26C459.988 194.791 460.018 194.365 460.076 193.984C460.164 193.603 460.282 193.207 460.428 192.796C460.604 192.385 460.81 191.916 461.044 191.388C461.162 191.183 461.264 190.977 461.352 190.772C461.47 190.537 461.602 190.288 461.748 190.024C461.866 189.613 462.027 189.144 462.232 188.616C462.467 188.088 462.687 187.589 462.892 187.12C463.215 186.357 463.464 185.697 463.64 185.14C463.816 184.583 463.963 183.981 464.08 183.336C464.051 183.277 464.066 183.189 464.124 183.072C464.183 182.955 464.271 182.881 464.388 182.852H464.432H464.476C464.682 182.705 465.063 182.691 465.62 182.808C466.207 182.896 466.647 183.057 466.94 183.292C467.556 183.82 467.85 184.509 467.82 185.36C467.791 186.211 467.351 187.325 466.5 188.704C466.295 189.173 466.075 189.613 465.84 190.024C465.635 190.405 465.532 190.669 465.532 190.816C465.532 190.816 465.65 190.728 465.884 190.552C466.119 190.376 466.398 190.171 466.72 189.936C467.043 189.672 467.322 189.467 467.556 189.32C467.703 189.173 468.026 188.909 468.524 188.528C469.023 188.117 469.566 187.692 470.152 187.252C470.739 186.812 471.208 186.475 471.56 186.24C471.883 186.005 472.294 185.771 472.792 185.536C473.291 185.272 473.599 185.14 473.716 185.14C474.01 185.14 474.362 185.243 474.772 185.448C475.212 185.653 475.608 185.903 475.96 186.196C476.342 186.46 476.562 186.709 476.62 186.944C476.62 187.061 476.606 187.223 476.576 187.428C476.547 187.604 476.532 187.765 476.532 187.912C476.503 188.381 476.488 188.953 476.488 189.628C476.518 190.273 476.532 190.933 476.532 191.608C476.532 192.253 476.474 192.84 476.356 193.368C476.356 193.368 476.371 193.397 476.4 193.456C476.43 193.485 476.459 193.544 476.488 193.632C476.459 193.661 476.444 193.72 476.444 193.808C476.474 193.867 476.488 193.896 476.488 193.896C476.547 194.101 476.606 194.307 476.664 194.512C476.752 194.717 476.855 194.952 476.972 195.216C477.09 195.451 477.222 195.759 477.368 196.14C477.339 196.521 477.119 196.903 476.708 197.284C476.327 197.636 475.946 197.856 475.564 197.944ZM488.06 207.536C487.737 207.565 487.238 207.492 486.564 207.316C485.889 207.169 485.229 206.876 484.584 206.436C483.792 205.761 483.249 205.204 482.956 204.764C482.662 204.324 482.501 203.928 482.472 203.576C482.472 203.253 482.486 202.96 482.516 202.696C482.662 202.051 482.97 201.743 483.44 201.772C483.938 201.801 484.32 201.933 484.584 202.168C484.877 202.403 485.185 202.681 485.508 203.004C485.86 203.356 486.197 203.664 486.52 203.928C486.872 204.192 487.165 204.309 487.4 204.28C487.986 204.221 488.47 203.972 488.852 203.532C489.233 203.121 489.614 202.461 489.996 201.552C490.23 200.907 490.406 200.349 490.524 199.88C490.67 199.411 490.817 198.897 490.964 198.34C491.11 197.783 491.286 197.035 491.492 196.096C491.638 195.421 491.741 194.952 491.8 194.688C491.888 194.395 491.932 194.219 491.932 194.16C491.932 194.072 491.917 194.028 491.888 194.028C491.888 194.028 491.785 194.087 491.58 194.204C491.374 194.321 491.081 194.453 490.7 194.6C490.348 194.747 489.952 194.893 489.512 195.04C488.69 195.304 487.869 195.539 487.048 195.744C486.226 195.92 485.596 195.935 485.156 195.788C484.716 195.612 484.364 195.319 484.1 194.908C483.836 194.497 483.66 194.057 483.572 193.588C483.513 193.119 483.498 192.737 483.528 192.444C483.586 192.209 483.718 191.828 483.924 191.3C484.129 190.772 484.364 190.215 484.628 189.628C484.892 189.041 485.141 188.528 485.376 188.088C485.61 187.648 485.801 187.413 485.948 187.384C486.065 187.325 486.168 187.208 486.256 187.032C486.373 186.827 486.432 186.665 486.432 186.548C486.461 186.431 486.578 186.24 486.784 185.976C487.018 185.712 487.678 185.199 488.764 184.436C489.849 183.409 490.832 182.647 491.712 182.148C492.592 181.62 493.398 181.327 494.132 181.268C494.337 181.297 494.528 181.312 494.704 181.312C494.909 181.312 495.012 181.312 495.012 181.312C495.012 181.312 495.173 181.356 495.496 181.444C495.818 181.532 496.141 181.649 496.464 181.796C496.845 181.943 497.256 182.295 497.696 182.852C498.136 183.38 498.517 183.967 498.84 184.612C499.162 185.257 499.338 185.844 499.368 186.372C499.338 187.017 499.192 187.663 498.928 188.308C498.664 188.953 498.414 189.261 498.18 189.232C497.945 189.203 497.681 189.291 497.388 189.496C497.124 189.672 496.918 190.024 496.772 190.552C496.684 190.669 496.581 190.86 496.464 191.124C496.346 191.359 496.214 191.593 496.068 191.828C496.038 191.975 495.965 192.341 495.848 192.928C495.73 193.485 495.584 194.116 495.408 194.82C495.261 195.495 495.129 196.125 495.012 196.712C494.894 197.269 494.821 197.636 494.792 197.812C494.762 197.929 494.689 198.208 494.572 198.648C494.454 199.059 494.308 199.528 494.132 200.056C493.985 200.584 493.824 201.068 493.648 201.508C493.53 202.359 493.296 203.092 492.944 203.708C492.592 204.353 492.21 204.925 491.8 205.424C491.125 206.157 490.45 206.671 489.776 206.964C489.13 207.287 488.558 207.477 488.06 207.536ZM487.224 192.136C487.312 192.371 487.546 192.459 487.928 192.4C488.338 192.341 488.896 192.209 489.6 192.004C490.45 191.652 491.081 191.373 491.492 191.168C491.932 190.963 492.269 190.699 492.504 190.376C492.68 190.141 492.841 189.907 492.988 189.672C493.164 189.437 493.325 189.232 493.472 189.056C493.53 188.997 493.618 188.895 493.736 188.748C493.882 188.601 494 188.469 494.088 188.352C494.264 188.235 494.41 188.132 494.528 188.044C494.674 187.927 494.806 187.824 494.924 187.736C495.07 187.677 495.202 187.545 495.32 187.34C495.437 187.105 495.466 186.871 495.408 186.636C495.378 186.431 495.246 186.152 495.012 185.8C494.777 185.419 494.454 185.125 494.044 184.92C493.662 184.685 493.208 184.847 492.68 185.404C492.181 185.961 491.374 186.709 490.26 187.648C489.614 188.352 489.042 189.012 488.544 189.628C488.045 190.215 487.678 190.728 487.444 191.168C487.209 191.579 487.136 191.901 487.224 192.136ZM519.495 204.324C519.231 204.324 518.879 204.192 518.439 203.928C517.999 203.664 517.603 203.341 517.251 202.96C517.017 202.696 516.811 202.417 516.635 202.124C516.489 201.831 516.415 201.537 516.415 201.244C516.415 200.921 516.474 200.452 516.591 199.836C516.709 199.22 516.767 198.853 516.767 198.736C516.767 198.472 516.811 198.017 516.899 197.372C517.017 196.697 517.134 196.023 517.251 195.348C517.398 194.644 517.501 194.116 517.559 193.764C517.589 193.617 517.603 193.515 517.603 193.456C517.633 193.397 517.647 193.368 517.647 193.368C517.794 192.869 517.911 192.415 517.999 192.004C518.117 191.564 518.205 191.153 518.263 190.772C518.527 189.628 518.703 188.777 518.791 188.22C518.909 187.633 519.055 187.105 519.231 186.636C519.319 186.372 519.422 186.123 519.539 185.888C519.627 185.683 519.73 185.463 519.847 185.228C519.965 184.993 520.111 184.729 520.287 184.436C520.874 182.793 521.358 181.503 521.739 180.564C522.121 179.596 522.502 178.745 522.883 178.012C522.913 177.953 522.927 177.895 522.927 177.836C522.957 177.777 522.986 177.733 523.015 177.704C523.309 176.912 523.69 176.12 524.159 175.328C524.658 174.536 525.245 173.744 525.919 172.952C526.623 172.16 527.415 171.368 528.295 170.576C528.911 170.283 529.513 170.019 530.099 169.784C530.715 169.549 531.302 169.432 531.859 169.432C532.446 169.432 532.974 169.564 533.443 169.828C533.913 170.063 534.309 170.341 534.631 170.664C535.013 171.016 535.291 171.397 535.467 171.808C535.673 172.189 535.775 172.497 535.775 172.732C535.658 173.201 535.423 173.744 535.071 174.36C534.749 174.947 534.382 175.504 533.971 176.032C533.561 176.56 533.179 177 532.827 177.352C532.505 177.704 532.285 177.88 532.167 177.88C531.874 177.88 531.683 177.748 531.595 177.484C531.537 177.191 531.434 176.883 531.287 176.56C531.229 176.443 531.155 176.325 531.067 176.208C531.009 176.091 530.935 175.988 530.847 175.9C530.847 175.753 530.906 175.504 531.023 175.152C531.17 174.771 531.243 174.433 531.243 174.14C531.243 173.964 531.185 173.788 531.067 173.612C530.979 173.436 530.847 173.421 530.671 173.568C530.407 173.744 530.158 173.92 529.923 174.096C529.718 174.243 529.513 174.404 529.307 174.58C529.102 174.756 528.882 174.991 528.647 175.284C528.442 175.548 528.193 175.885 527.899 176.296C527.782 176.472 527.665 176.648 527.547 176.824C527.43 176.971 527.342 177.117 527.283 177.264C527.107 177.528 526.975 177.763 526.887 177.968C526.829 178.144 526.77 178.305 526.711 178.452C526.653 178.628 526.609 178.745 526.579 178.804C526.55 178.863 526.506 178.892 526.447 178.892C526.477 178.833 526.418 178.965 526.271 179.288C526.154 179.611 525.993 179.977 525.787 180.388C525.67 180.681 525.538 180.96 525.391 181.224C525.245 181.488 525.098 181.693 524.951 181.84H524.995C524.995 181.84 524.922 182.016 524.775 182.368C524.658 182.691 524.526 183.028 524.379 183.38C524.233 183.732 524.159 183.937 524.159 183.996C524.159 184.143 524.409 184.172 524.907 184.084C525.435 183.996 526.007 183.893 526.623 183.776C527.269 183.629 527.767 183.556 528.119 183.556C528.354 183.556 528.559 183.6 528.735 183.688C528.941 183.747 529.102 183.835 529.219 183.952C529.483 184.187 529.674 184.509 529.791 184.92C529.938 185.301 530.011 185.697 530.011 186.108C530.011 186.343 529.791 186.548 529.351 186.724C528.911 186.871 528.237 187.061 527.327 187.296C526.535 187.472 525.861 187.619 525.303 187.736C524.775 187.853 524.335 187.956 523.983 188.044C523.631 188.132 523.338 188.249 523.103 188.396C522.898 188.513 522.737 188.66 522.619 188.836C522.531 188.983 522.458 189.173 522.399 189.408C522.399 189.525 522.385 189.628 522.355 189.716C522.355 189.775 522.341 189.833 522.311 189.892C522.282 190.009 522.223 190.244 522.135 190.596C522.047 190.919 521.945 191.3 521.827 191.74C521.739 192.18 521.637 192.635 521.519 193.104C521.431 193.544 521.343 193.969 521.255 194.38C521.226 194.673 521.182 194.937 521.123 195.172C521.094 195.407 521.079 195.583 521.079 195.7C520.962 195.847 520.83 196.199 520.683 196.756C520.566 197.313 520.493 197.753 520.463 198.076C520.463 198.135 520.463 198.208 520.463 198.296C520.463 198.355 520.463 198.413 520.463 198.472C520.463 198.589 520.419 198.941 520.331 199.528C520.273 200.144 520.243 200.775 520.243 201.42L520.111 202.696C520.082 203.107 520.023 203.473 519.935 203.796C519.877 204.148 519.73 204.324 519.495 204.324ZM532.607 198.736C532.138 198.736 531.698 198.501 531.287 198.032C530.877 197.563 530.671 196.917 530.671 196.096C530.671 195.48 530.73 194.893 530.847 194.336C530.994 193.779 531.17 193.075 531.375 192.224C531.581 191.725 531.801 191.095 532.035 190.332C532.299 189.54 532.549 188.763 532.783 188C533.047 187.208 533.267 186.533 533.443 185.976C533.619 185.389 533.722 185.052 533.751 184.964C533.781 184.817 533.854 184.7 533.971 184.612C534.089 184.524 534.25 184.48 534.455 184.48C534.749 184.48 535.086 184.612 535.467 184.876C535.849 185.14 536.186 185.477 536.479 185.888C536.802 186.269 536.993 186.636 537.051 186.988C537.051 187.281 537.022 187.516 536.963 187.692C536.934 187.868 536.861 188.103 536.743 188.396C536.626 188.66 536.465 189.1 536.259 189.716C536.054 190.303 535.79 191.153 535.467 192.268C535.174 193.353 534.807 194.82 534.367 196.668C534.191 197.401 533.971 197.929 533.707 198.252C533.443 198.575 533.077 198.736 532.607 198.736ZM534.851 179.068C534.851 178.745 534.983 178.291 535.247 177.704C535.511 177.088 535.834 176.531 536.215 176.032C536.597 175.504 536.963 175.24 537.315 175.24C537.491 175.24 537.653 175.255 537.799 175.284C537.975 175.313 538.137 175.357 538.283 175.416C538.899 175.651 539.369 176.12 539.691 176.824C540.043 177.528 540.102 178.291 539.867 179.112C539.633 179.904 538.958 180.593 537.843 181.18C537.726 181.239 537.609 181.268 537.491 181.268C537.403 181.268 537.286 181.268 537.139 181.268C536.611 181.268 536.171 181.136 535.819 180.872C535.497 180.579 535.247 180.256 535.071 179.904C534.925 179.552 534.851 179.273 534.851 179.068ZM545.983 199.308C544.428 199.308 543.284 198.809 542.551 197.812C542.345 197.343 542.243 196.873 542.243 196.404C542.272 195.905 542.389 195.553 542.595 195.348C542.8 195.113 543.049 195.157 543.343 195.48C543.724 195.715 544.267 195.832 544.971 195.832C545.323 195.832 545.631 195.832 545.895 195.832C546.188 195.803 546.525 195.773 546.907 195.744C547.581 195.685 548.007 195.48 548.183 195.128C548.388 194.776 548.344 194.483 548.051 194.248H548.095C547.303 194.043 546.525 193.749 545.763 193.368C545 192.987 544.355 192.561 543.827 192.092C543.299 191.593 542.991 191.124 542.903 190.684C542.668 189.716 542.727 188.719 543.079 187.692C543.431 186.665 543.944 185.771 544.619 185.008C544.883 184.832 545.249 184.583 545.719 184.26C546.188 183.908 546.525 183.717 546.731 183.688V183.732C547.288 183.145 547.919 182.676 548.623 182.324C549.327 181.943 550.148 181.591 551.087 181.268L551.791 181.18C552.143 181.121 552.451 181.092 552.715 181.092C552.685 181.092 552.759 181.121 552.935 181.18C553.111 181.239 553.257 181.283 553.375 181.312C553.551 181.4 553.727 181.444 553.903 181.444C554.313 181.503 554.709 181.723 555.091 182.104C555.501 182.456 555.824 182.881 556.059 183.38C556.323 183.849 556.425 184.289 556.367 184.7C556.279 185.375 556.029 186.049 555.619 186.724C555.208 187.369 554.768 187.736 554.299 187.824C554.357 187.795 554.299 187.736 554.123 187.648C553.947 187.56 553.785 187.472 553.639 187.384L553.463 187.472C553.463 187.472 553.448 187.428 553.419 187.34C553.419 187.252 553.389 187.149 553.331 187.032C553.213 186.827 553.125 186.607 553.067 186.372C553.037 186.137 553.037 185.873 553.067 185.58C553.125 185.257 553.14 185.067 553.111 185.008C553.081 184.949 552.905 184.905 552.583 184.876C552.201 184.788 551.717 184.832 551.131 185.008C550.544 185.155 550.001 185.419 549.503 185.8C548.916 186.181 548.476 186.489 548.183 186.724C547.919 186.959 547.713 187.193 547.567 187.428C547.42 187.633 547.259 187.941 547.083 188.352C546.965 188.557 546.863 188.748 546.775 188.924C546.687 189.071 546.643 189.217 546.643 189.364C546.643 189.657 546.892 189.965 547.391 190.288C547.889 190.581 548.637 190.933 549.635 191.344C550.427 191.667 550.94 192.107 551.175 192.664C551.439 193.221 551.673 193.749 551.879 194.248C551.937 194.365 551.996 194.585 552.055 194.908C552.143 195.201 552.157 195.377 552.099 195.436C552.157 195.495 552.187 195.553 552.187 195.612V195.568C552.421 196.008 552.377 196.477 552.055 196.976C551.761 197.445 551.292 197.885 550.647 198.296C550.001 198.677 549.268 198.956 548.447 199.132H548.491C548.051 199.191 547.611 199.235 547.171 199.264C546.76 199.293 546.364 199.308 545.983 199.308ZM562.246 197.328C562.04 197.357 561.806 197.284 561.542 197.108C561.307 196.903 561.087 196.727 560.882 196.58C560.588 196.228 560.383 195.92 560.266 195.656C560.148 195.392 560.09 195.099 560.09 194.776C560.09 194.453 560.119 194.072 560.178 193.632C560.324 193.163 560.5 192.532 560.706 191.74C560.911 190.948 561.16 190.097 561.454 189.188C561.512 188.836 561.615 188.425 561.762 187.956C561.938 187.457 562.114 186.988 562.29 186.548C562.466 186.079 562.598 185.727 562.686 185.492C562.891 184.759 563.096 184.055 563.302 183.38C563.536 182.705 563.815 181.928 564.138 181.048C564.46 180.168 564.856 179.053 565.326 177.704C565.971 175.944 566.455 174.624 566.778 173.744C567.1 172.864 567.335 172.233 567.482 171.852C567.628 171.471 567.731 171.163 567.79 170.928C567.79 170.693 567.951 170.473 568.274 170.268C568.626 170.033 568.934 169.916 569.198 169.916C569.608 169.945 570.004 170.195 570.386 170.664C570.767 171.104 571.031 171.647 571.178 172.292C571.324 172.908 571.222 173.509 570.87 174.096C570.4 175.152 569.931 176.34 569.462 177.66C569.022 178.951 568.582 180.241 568.142 181.532C567.702 182.823 567.262 184.011 566.822 185.096C566.792 185.243 566.69 185.492 566.514 185.844C566.367 186.196 566.235 186.489 566.118 186.724C566 186.959 565.883 187.179 565.766 187.384C565.678 187.589 565.634 187.692 565.634 187.692C565.604 187.868 565.546 188.117 565.458 188.44C565.37 188.763 565.282 189.041 565.194 189.276C565.164 189.423 565.12 189.613 565.062 189.848C565.003 190.083 564.959 190.317 564.93 190.552C565.076 190.376 565.282 190.171 565.546 189.936C565.81 189.672 566.147 189.349 566.558 188.968C567.027 188.557 567.438 188.205 567.79 187.912C568.142 187.619 568.494 187.355 568.846 187.12C569.168 186.885 569.462 186.665 569.726 186.46C570.019 186.255 570.166 186.152 570.166 186.152C570.224 186.064 570.283 185.961 570.342 185.844C570.43 185.727 570.518 185.653 570.606 185.624C570.664 185.565 570.767 185.492 570.914 185.404C571.06 185.287 571.207 185.169 571.354 185.052C571.618 184.876 571.896 184.729 572.19 184.612C572.483 184.495 572.791 184.407 573.114 184.348C573.436 184.289 573.744 184.26 574.038 184.26C574.39 184.26 574.756 184.407 575.138 184.7C575.519 184.964 575.871 185.345 576.194 185.844C576.487 186.225 576.663 186.68 576.722 187.208C576.81 187.707 576.824 188.381 576.766 189.232C576.766 189.467 576.692 189.907 576.546 190.552C576.428 191.197 576.34 191.681 576.282 192.004L575.886 193.5H576.238C576.56 193.383 576.868 193.368 577.162 193.456C577.484 193.544 577.646 193.588 577.646 193.588C577.792 193.676 577.924 193.779 578.042 193.896C578.188 194.013 578.32 194.101 578.438 194.16C578.614 194.395 578.584 194.732 578.35 195.172C578.115 195.612 577.851 195.92 577.558 196.096C576.854 196.565 576.223 196.859 575.666 196.976C575.138 197.093 574.58 196.991 573.994 196.668C573.436 196.287 573.055 195.832 572.85 195.304C572.674 194.776 572.6 194.057 572.63 193.148C572.747 191.857 572.82 190.933 572.85 190.376C572.879 189.789 572.732 189.496 572.41 189.496C572.058 189.496 571.574 189.672 570.958 190.024C570.371 190.347 569.711 190.801 568.978 191.388C568.244 191.945 567.511 192.576 566.778 193.28C566.074 193.955 565.443 194.644 564.886 195.348C564.534 195.788 564.152 196.228 563.742 196.668C563.331 197.079 562.832 197.299 562.246 197.328Z" fill="#B8C318"/>
</svg>
