<svg width="900" height="250" viewBox="0 0 900 250" fill="none" xmlns="http://www.w3.org/2000/svg">
<rect y="30" width="900" height="220" rx="60" fill="#E0E772"/>
<rect x="5.5" y="5.5" width="889" height="209" rx="54.5" fill="#FDFDFB" stroke="#B8C318" stroke-width="11"/>
<rect width="384" height="172" transform="translate(258 24)" fill="#FDFDFB"/>
<path d="M266.34 64.4H309.66V72.26H266.34V64.4ZM261.36 99.02H314.64V107.24H261.36V99.02ZM378.78 66.32H339.12C336 70.88 332.34 74.84 328.5 77.72C327.6 76.34 325.14 73.4 323.76 72.08C329.22 68.42 334.2 62.42 337.02 56.06L343.8 58.04C343.32 59.06 342.84 60.08 342.3 61.04H378.78V66.32ZM373.56 73.46H338.52V68.54H373.56V73.46ZM342.06 85.94H348.54C349.44 84.44 350.46 82.58 351.06 81.08H339.84C340.8 82.64 341.7 84.56 342.06 85.94ZM331.98 75.68H371.22C371.04 92.48 371.64 105.08 375.12 105.08C376.02 105.08 376.32 101.72 376.44 96.56C377.76 98.3 379.5 100.04 380.94 101.06C380.46 108.98 379.14 112.22 374.58 112.22C365.7 112.22 364.26 99.14 364.02 81.08H354.3L358.2 82.04C357.24 83.42 356.4 84.74 355.62 85.94H362.52V90.86H348.96V93.08H360.54V97.88H348.96V100.34H363.6V105.5H348.96V112.22H341.94V105.5H326.34V100.34H341.94V97.88H329.94V93.08H341.94V90.86H327.72V85.94H335.22C334.74 84.68 334.08 83.24 333.42 82.1L337.26 81.08H331.98V75.68ZM404.52 56.42L411.18 58.64C409.56 62.48 407.58 66.32 405.36 70.04V112.22H398.58V79.88C396.66 82.28 394.8 84.38 392.82 86.24C392.16 84.5 390.18 80.6 389.04 78.8C395.16 73.52 401.1 65 404.52 56.42ZM426.06 104.54H434.82C437.88 104.54 438.36 102.02 438.9 92.12C440.52 93.38 443.34 94.76 445.2 95.12C444.42 106.7 442.62 110.84 435.36 110.84H425.34C417.96 110.84 415.86 108.44 415.86 100.28V57.32H422.76V72.56H443.64V79.4H422.76V100.4C422.76 103.94 423.18 104.54 426.06 104.54ZM508.32 57.98V71.12H477.72V57.98H484.08V65.36H489.66V56.24H495.96V65.36H501.6V57.98H508.32ZM468.96 98.72V83.66H464.64V98.72H468.96ZM474.24 104.96H464.64V109.4H458.76V90.74C457.98 91.88 457.14 93.02 456.3 94.04C456.06 92.12 454.8 87.62 453.84 85.52C457.56 80.6 460.02 73.22 461.58 65.3H455.16V58.82H475.56V65.3H468.18C467.34 69.44 466.32 73.52 464.94 77.42H474.24V104.96ZM491.46 93.74L486.72 96.86C486 95.24 484.62 92.78 483.18 90.44C482.82 97.7 481.56 106.4 477.78 112.34C476.64 111.26 473.82 109.46 472.32 108.8C476.58 101.96 477 92.42 477 85.64V73.88H509.76V79.82H483.3V85.64V86.78L486 85.16C487.8 87.92 490.26 91.58 491.46 93.74ZM502.8 96.38L499.14 93.56C501.6 99.32 505.44 104.24 510.78 106.82C509.34 107.96 507.54 110.24 506.58 111.86C502.14 109.22 498.66 105.02 496.08 99.92C494.28 105.14 490.92 109.22 485.1 112.22C484.38 110.6 482.58 108.14 481.08 107C491.16 102.26 492.12 93.98 492.54 82.1H498.72C498.6 85.16 498.42 88.1 498.12 90.74C498.42 91.64 498.72 92.54 499.08 93.38C501 91.1 503.58 87.38 504.96 84.8L510.24 88.58C507.42 91.28 504.9 94.4 502.8 96.38ZM567 66.92V64.04H562.98V66.92H567ZM567 73.82V70.88H562.98V73.82H567ZM544.2 70.88V73.82H547.92V70.88H544.2ZM544.2 64.04V66.92H547.92V64.04H544.2ZM557.4 70.88H553.44V73.82H557.4V70.88ZM557.4 64.04H553.44V66.92H557.4V64.04ZM573.24 59.84V78.02H538.26V59.84H547.92V56.18H553.44V59.84H557.4V56.18H562.98V59.84H573.24ZM535.08 63.08L531.54 68.9C529.38 66.98 525.06 64.04 521.94 62.18L525.3 56.96C528.42 58.58 532.86 61.22 535.08 63.08ZM531.96 78.8L528.54 84.8C526.5 82.88 522.06 80.06 518.82 78.32L522.06 72.98C525.18 74.48 529.68 77 531.96 78.8ZM530.4 87.74L534.78 92.66C531.9 98.9 528.48 105.74 525.18 111.56L520.14 106.52C523.08 102.02 527.16 94.64 530.4 87.74ZM569.04 98.24H561.36C562.14 99.44 563.04 100.58 564.06 101.54C565.68 100.58 567.54 99.38 569.04 98.24ZM571.62 98.24L574.14 100.76C572.16 102.08 569.88 103.34 567.84 104.36C570 105.62 572.4 106.52 575.22 107.06C573.96 108.2 572.34 110.54 571.62 112.1C563.52 110 558.48 105.26 555.54 98.24H551.4V104.96L557.64 103.52C557.88 105.02 558.36 107.12 558.78 108.26C548.28 111.14 546.36 111.86 545.22 112.7C544.8 111.32 543.54 108.8 542.58 107.72C543.78 107.06 545.28 105.5 545.28 102.86V98.24H542.4C541.32 103.28 539.4 108.38 535.68 112.34C534.54 111.2 531.96 109.34 530.46 108.62C536.58 102.38 537.3 93.74 537.3 87.5V80H574.38V85.16H543.42V87.08H570.84V91.22H543.3C543.24 91.88 543.24 92.54 543.12 93.26H575.22V98.24H571.62ZM595.92 68V77.24C595.92 87.32 595.14 102.32 590.16 112.1C588.72 111.08 585.48 109.58 583.62 109.04C588.42 99.8 588.84 86.42 588.84 77.3V61.34H611.22C610.8 59.96 610.32 58.52 609.78 57.38L617.04 55.76C617.88 57.44 618.72 59.48 619.32 61.34H639.12V68H595.92ZM622.86 78.92H611.94V82.88H622.86V78.92ZM629.94 88.28H605.22V78.92H597.12V73.34H605.22V69.38H611.94V73.34H622.86V69.38H629.94V73.34H638.58V78.92H629.94V88.28ZM624.84 96.26H609C611.1 98.18 613.8 99.8 616.92 101.12C619.98 99.8 622.62 98.24 624.84 96.26ZM631.14 90.44L635.58 92.72C633.06 97.4 629.46 101 625.02 103.82C629.58 104.9 634.62 105.56 640.08 105.98C638.7 107.48 636.9 110.36 636 112.16C628.68 111.44 622.2 110.06 616.56 107.78C610.86 109.82 604.38 111.08 597.6 111.8C597.06 110.12 595.74 107.42 594.66 105.86C599.64 105.44 604.44 104.84 608.82 103.76C606.06 101.9 603.6 99.68 601.56 97.22L603.96 96.26H597.6V90.68H629.88L631.14 90.44Z" fill="#594A39"/>
<path d="M367.509 171.904C367.069 171.728 366.555 171.479 365.969 171.156C365.382 170.863 364.825 170.467 364.297 169.968C363.769 169.469 363.358 168.868 363.065 168.164C362.771 167.313 362.566 166.477 362.449 165.656C362.361 164.835 362.331 163.881 362.361 162.796C362.361 161.271 362.463 159.951 362.669 158.836C362.903 157.692 363.255 156.533 363.725 155.36C363.783 155.272 363.886 155.023 364.033 154.612C364.209 154.172 364.399 153.703 364.605 153.204C364.839 152.705 365.015 152.324 365.133 152.06C365.367 151.561 365.719 150.901 366.189 150.08C366.687 149.229 367.215 148.408 367.773 147.616C368.623 146.355 369.342 145.328 369.929 144.536C370.515 143.715 371.073 143.025 371.601 142.468C372.158 141.911 372.759 141.368 373.405 140.84C374.079 140.312 374.915 139.711 375.913 139.036C376.558 138.567 377.379 138.273 378.377 138.156C379.403 138.039 380.401 138.2 381.369 138.64C382.337 139.051 383.055 139.843 383.525 141.016C383.847 141.632 383.994 142.409 383.965 143.348C383.935 144.257 383.759 145.24 383.437 146.296C383.114 147.323 382.703 148.291 382.205 149.2C381.706 150.109 381.149 150.843 380.533 151.4C380.151 151.752 379.638 151.811 378.993 151.576C378.377 151.341 377.863 151.033 377.453 150.652C377.189 150.153 377.042 149.86 377.013 149.772C377.013 149.684 377.071 149.625 377.189 149.596C377.365 149.391 377.599 149.039 377.893 148.54C378.186 148.041 378.479 147.513 378.773 146.956C379.066 146.369 379.271 145.9 379.389 145.548C379.623 144.316 379.785 143.509 379.873 143.128C379.961 142.717 379.873 142.38 379.609 142.116C379.491 141.999 379.315 141.955 379.081 141.984C378.875 142.013 378.523 142.16 378.025 142.424C377.35 142.717 376.543 143.319 375.605 144.228C374.695 145.108 373.786 146.164 372.877 147.396C371.703 148.951 370.721 150.329 369.929 151.532C369.137 152.735 368.535 153.967 368.125 155.228C368.066 155.345 367.963 155.565 367.817 155.888C367.699 156.211 367.641 156.372 367.641 156.372C367.67 156.489 367.626 156.783 367.509 157.252C367.391 157.692 367.259 158.073 367.113 158.396C366.79 159.745 366.599 161.051 366.541 162.312C366.482 163.544 366.555 164.629 366.761 165.568C366.995 166.477 367.333 167.152 367.773 167.592C368.154 167.856 368.638 167.944 369.225 167.856C369.811 167.768 370.486 167.563 371.249 167.24C372.011 166.917 372.833 166.565 373.713 166.184C374.417 165.891 375.062 165.568 375.649 165.216C376.235 164.864 376.675 164.556 376.969 164.292C377.203 164.116 377.497 163.94 377.849 163.764C378.23 163.559 378.553 163.456 378.817 163.456C379.227 163.309 379.535 163.427 379.741 163.808C379.946 164.189 380.049 164.673 380.049 165.26C380.049 165.671 379.755 166.169 379.169 166.756C378.582 167.343 377.937 167.841 377.233 168.252C376.998 168.487 376.675 168.707 376.265 168.912C375.883 169.088 375.487 169.249 375.077 169.396C374.461 169.865 373.698 170.32 372.789 170.76C371.879 171.2 370.955 171.537 370.017 171.772C369.107 172.007 368.271 172.051 367.509 171.904ZM390.072 170.54C388.986 169.748 388.121 169.015 387.476 168.34C386.86 167.636 386.522 166.961 386.464 166.316C386.405 165.788 386.405 165.069 386.464 164.16C386.552 163.251 386.654 162.356 386.772 161.476C386.889 160.596 386.992 159.936 387.08 159.496C387.226 159.349 387.285 159.159 387.256 158.924C387.256 158.66 387.256 158.528 387.256 158.528C387.226 158.381 387.329 158 387.564 157.384C387.798 156.739 388.018 155.917 388.224 154.92C388.81 153.16 389.368 151.693 389.896 150.52C390.453 149.317 390.996 148.291 391.524 147.44C392.052 146.589 392.58 145.812 393.108 145.108C394.31 143.876 395.44 142.893 396.496 142.16C397.581 141.427 398.578 140.855 399.488 140.444C400.074 140.092 400.617 139.813 401.116 139.608C401.614 139.403 402.025 139.373 402.348 139.52C403.99 139.872 405.384 140.591 406.528 141.676C407.672 142.761 408.434 144.331 408.816 146.384C409.021 147.675 409.138 148.848 409.168 149.904C409.226 150.931 409.153 151.957 408.948 152.984C408.742 153.981 408.361 155.081 407.804 156.284C407.276 157.487 406.528 158.895 405.56 160.508C404.357 162.884 403.037 164.879 401.6 166.492C400.192 168.076 398.769 169.279 397.332 170.1C395.924 170.921 394.574 171.361 393.284 171.42C392.022 171.508 390.952 171.215 390.072 170.54ZM393.592 167.636C394.266 167.548 394.809 167.416 395.22 167.24C395.66 167.064 396.114 166.727 396.584 166.228C397.053 165.729 397.713 164.996 398.564 164.028C399.326 163.148 399.957 162.4 400.456 161.784C400.984 161.168 401.424 160.537 401.776 159.892C402.157 159.247 402.509 158.484 402.832 157.604C403.184 156.695 403.565 155.536 403.976 154.128C404.21 153.248 404.372 152.603 404.46 152.192C404.577 151.752 404.65 151.385 404.68 151.092C404.709 150.799 404.709 150.403 404.68 149.904C404.68 149.376 404.68 148.584 404.68 147.528C404.65 147.029 404.548 146.472 404.372 145.856C404.196 145.211 403.99 144.756 403.756 144.492C403.462 144.169 403.022 143.891 402.436 143.656C401.849 143.421 401.233 143.451 400.588 143.744C400.236 143.891 399.796 144.199 399.268 144.668C398.74 145.108 398.197 145.636 397.64 146.252C397.082 146.868 396.554 147.484 396.056 148.1C395.557 148.716 395.161 149.273 394.868 149.772C394.574 150.271 394.428 150.623 394.428 150.828C394.428 150.828 394.413 150.901 394.384 151.048C394.384 151.195 394.325 151.341 394.208 151.488C393.826 151.899 393.43 152.573 393.02 153.512C392.609 154.451 392.228 155.521 391.876 156.724C391.524 157.927 391.23 159.129 390.996 160.332C390.761 161.535 390.614 162.62 390.556 163.588C390.556 164.057 390.556 164.453 390.556 164.776C390.556 165.099 390.585 165.392 390.644 165.656C390.732 165.891 390.864 166.155 391.04 166.448C391.216 166.741 391.568 167.035 392.096 167.328C392.653 167.621 393.152 167.724 393.592 167.636ZM412.762 168.744C412.677 168.701 412.528 168.584 412.314 168.392C412.122 168.2 411.93 167.987 411.738 167.752C411.546 167.496 411.418 167.304 411.354 167.176C411.29 167.069 411.29 166.877 411.354 166.6C411.44 166.323 411.525 166.184 411.61 166.184C411.674 166.227 411.76 166.152 411.866 165.96C411.973 165.768 412.08 165.565 412.186 165.352C412.293 165.117 412.346 164.979 412.346 164.936C412.368 164.851 412.421 164.787 412.506 164.744C412.613 164.68 412.709 164.616 412.794 164.552C412.901 164.381 413.04 164.211 413.21 164.04C413.402 163.848 413.552 163.688 413.658 163.56C413.829 163.347 414.138 163.027 414.586 162.6C415.034 162.173 415.472 161.736 415.898 161.288C416.346 160.797 416.741 160.371 417.082 160.008C417.424 159.624 417.605 159.357 417.626 159.208C417.626 159.208 417.658 159.176 417.722 159.112C417.808 159.027 417.904 158.952 418.01 158.888C418.117 158.824 418.256 158.717 418.426 158.568C418.618 158.419 418.778 158.28 418.906 158.152C418.949 157.981 419.045 157.789 419.194 157.576C419.365 157.341 419.557 157.117 419.77 156.904C419.941 156.648 420.101 156.371 420.25 156.072C420.4 155.752 420.496 155.517 420.538 155.368C420.602 155.133 420.581 154.995 420.474 154.952C420.368 154.888 420.08 154.781 419.61 154.632C419.098 154.461 418.618 154.429 418.17 154.536C417.722 154.643 417.125 154.963 416.378 155.496C416.08 155.56 415.802 155.645 415.546 155.752C415.312 155.859 415.109 155.901 414.938 155.88C414.853 155.837 414.757 155.741 414.65 155.592C414.544 155.443 414.426 155.304 414.298 155.176L413.978 153.8L414.97 153.256C415.845 152.701 416.677 152.285 417.466 152.008C418.277 151.709 418.981 151.656 419.578 151.848C419.813 151.848 420.026 151.88 420.218 151.944C420.41 151.987 420.506 152.008 420.506 152.008C420.677 151.987 420.922 152.072 421.242 152.264C421.584 152.456 421.914 152.701 422.234 153C422.576 153.299 422.81 153.597 422.938 153.896C423.28 154.408 423.408 155.027 423.322 155.752C423.237 156.477 422.928 157.235 422.394 158.024C422.288 158.152 422.053 158.419 421.69 158.824C421.328 159.229 420.912 159.688 420.442 160.2C419.994 160.691 419.578 161.128 419.194 161.512C418.832 161.896 418.597 162.141 418.49 162.248C418.341 162.312 418.085 162.515 417.722 162.856C417.381 163.197 417.008 163.581 416.602 164.008C416.218 164.413 415.888 164.776 415.61 165.096C415.354 165.395 415.248 165.544 415.29 165.544C415.269 165.629 415.376 165.629 415.61 165.544C415.866 165.437 416.09 165.352 416.282 165.288C416.602 165.181 416.976 165.085 417.402 165C417.85 164.893 418.298 164.808 418.746 164.744C419.194 164.68 419.578 164.637 419.898 164.616C420.24 164.595 420.442 164.616 420.506 164.68C420.549 164.787 420.581 164.829 420.602 164.808C420.645 164.765 420.666 164.744 420.666 164.744C420.709 164.595 420.976 164.552 421.466 164.616C421.978 164.68 422.437 164.776 422.842 164.904C423.077 164.968 423.258 165.053 423.386 165.16C423.536 165.267 423.61 165.363 423.61 165.448C423.61 165.448 423.632 165.501 423.674 165.608C423.738 165.693 423.834 165.811 423.962 165.96C424.304 166.237 424.304 166.536 423.962 166.856C423.642 167.176 423.056 167.261 422.202 167.112C421.648 167.112 421.189 167.144 420.826 167.208C420.741 167.251 420.56 167.272 420.282 167.272C420.005 167.272 419.738 167.283 419.482 167.304C419.098 167.261 418.714 167.283 418.33 167.368C417.946 167.432 417.488 167.549 416.954 167.72C416.762 167.784 416.464 167.88 416.058 168.008C415.653 168.136 415.216 168.264 414.746 168.392C414.277 168.52 413.85 168.616 413.466 168.68C413.104 168.744 412.869 168.765 412.762 168.744ZM447.257 171.684C446.084 171.391 445.13 170.775 444.397 169.836C443.693 168.927 443.121 167.827 442.681 166.536C442.652 166.155 442.637 165.627 442.637 164.952C442.666 164.277 442.71 163.647 442.769 163.06C442.828 162.473 442.886 162.136 442.945 162.048C443.033 161.989 443.077 161.813 443.077 161.52C443.048 161.403 443.062 161.212 443.121 160.948C443.209 160.655 443.297 160.361 443.385 160.068C443.532 159.716 443.605 159.437 443.605 159.232C443.605 158.997 443.59 158.821 443.561 158.704C443.561 158.704 443.605 158.616 443.693 158.44C443.781 158.235 443.884 158.073 444.001 157.956C444.177 157.78 444.25 157.604 444.221 157.428C444.221 157.252 444.221 157.164 444.221 157.164C444.192 157.047 444.221 156.885 444.309 156.68C444.397 156.475 444.485 156.313 444.573 156.196C444.632 156.137 444.705 156.02 444.793 155.844C444.91 155.639 444.969 155.536 444.969 155.536C444.969 155.448 445.028 155.213 445.145 154.832C445.292 154.451 445.453 154.04 445.629 153.6C445.805 153.131 445.966 152.705 446.113 152.324C446.289 151.943 446.421 151.693 446.509 151.576V151.488C446.626 151.195 446.788 150.887 446.993 150.564C447.022 150.417 447.096 150.183 447.213 149.86C447.33 149.508 447.462 149.171 447.609 148.848C447.932 148.144 448.328 147.352 448.797 146.472C449.296 145.563 449.824 144.668 450.381 143.788C450.938 142.879 451.466 142.072 451.965 141.368C452.493 140.635 452.948 140.092 453.329 139.74C453.828 139.183 454.326 138.787 454.825 138.552C455.353 138.288 455.837 138.376 456.277 138.816C456.482 139.021 456.658 139.329 456.805 139.74C456.952 140.121 457.01 140.488 456.981 140.84C456.981 141.163 456.864 141.339 456.629 141.368C456.424 141.485 456.145 141.823 455.793 142.38C455.441 142.908 455.045 143.539 454.605 144.272C454.194 145.005 453.784 145.768 453.373 146.56C452.962 147.323 452.581 148.012 452.229 148.628C451.848 149.479 451.496 150.227 451.173 150.872C450.85 151.488 450.689 151.796 450.689 151.796C450.66 151.884 450.63 151.957 450.601 152.016C450.572 152.075 450.542 152.133 450.513 152.192C450.073 153.101 449.706 153.937 449.413 154.7C449.12 155.433 448.826 156.211 448.533 157.032C448.357 157.237 448.254 157.443 448.225 157.648C448.196 157.853 448.181 157.956 448.181 157.956C448.122 157.927 448.078 158 448.049 158.176C448.02 158.323 447.961 158.499 447.873 158.704C447.726 158.821 447.638 159.012 447.609 159.276C447.58 159.511 447.565 159.745 447.565 159.98C447.36 160.508 447.169 161.153 446.993 161.916C446.817 162.649 446.685 163.368 446.597 164.072C446.538 164.747 446.524 165.275 446.553 165.656C446.612 166.155 446.744 166.58 446.949 166.932C447.184 167.255 447.506 167.519 447.917 167.724C448.24 167.871 448.533 168.003 448.797 168.12C449.061 168.208 449.296 168.252 449.501 168.252C449.736 168.281 450.029 168.281 450.381 168.252C450.762 168.193 451.276 168.105 451.921 167.988H451.877C452.258 167.929 452.654 167.856 453.065 167.768C453.505 167.651 453.916 167.548 454.297 167.46C454.649 167.401 454.986 167.343 455.309 167.284C455.632 167.196 455.881 167.123 456.057 167.064C456.702 166.888 457.216 166.741 457.597 166.624C458.008 166.507 458.286 166.507 458.433 166.624C458.58 166.741 458.741 166.961 458.917 167.284C459.093 167.607 459.137 167.9 459.049 168.164C458.99 168.311 458.697 168.604 458.169 169.044C457.641 169.513 457.04 169.968 456.365 170.408C455.69 170.877 455.074 171.2 454.517 171.376C453.93 171.64 453.138 171.816 452.141 171.904C451.173 172.021 450.234 172.051 449.325 171.992C448.416 171.933 447.726 171.831 447.257 171.684ZM473.867 168.12C472.987 168.619 472.049 168.912 471.051 169C470.083 169.059 469.174 168.927 468.323 168.604C467.473 168.252 466.783 167.739 466.255 167.064C465.962 166.683 465.683 166.081 465.419 165.26C465.155 164.409 465.111 163.265 465.287 161.828C465.463 160.479 465.874 159.115 466.519 157.736C467.194 156.357 468.015 155.14 468.983 154.084C469.951 153.028 471.007 152.309 472.151 151.928C472.562 151.781 472.973 151.679 473.383 151.62C473.823 151.532 474.395 151.517 475.099 151.576C475.774 151.664 476.375 151.84 476.903 152.104C477.431 152.339 477.813 152.603 478.047 152.896C478.517 153.365 478.825 153.82 478.971 154.26C479.118 154.7 479.177 155.125 479.147 155.536C479.001 156.475 478.575 157.487 477.871 158.572C477.197 159.657 476.243 160.464 475.011 160.992C474.513 161.197 473.926 161.329 473.251 161.388C472.577 161.447 471.653 161.359 470.479 161.124C469.775 160.977 469.306 161.051 469.071 161.344C468.866 161.637 468.778 162.209 468.807 163.06C468.866 163.588 468.983 164.057 469.159 164.468C469.365 164.849 469.731 165.113 470.259 165.26C470.934 165.377 471.418 165.392 471.711 165.304C472.005 165.187 472.371 165.025 472.811 164.82C473.046 164.673 473.266 164.512 473.471 164.336C473.706 164.16 473.926 163.984 474.131 163.808C474.366 163.632 474.557 163.5 474.703 163.412C474.85 163.295 474.997 163.221 475.143 163.192C475.29 163.163 475.437 163.148 475.583 163.148C475.906 163.177 476.214 163.353 476.507 163.676C476.801 163.999 476.991 164.307 477.079 164.6C477.079 164.835 476.933 165.172 476.639 165.612C476.346 166.023 475.95 166.463 475.451 166.932C474.982 167.372 474.454 167.768 473.867 168.12ZM473.295 158.308C473.501 158.22 473.794 158.015 474.175 157.692C474.586 157.369 474.953 157.032 475.275 156.68C475.598 156.299 475.759 156.005 475.759 155.8C475.759 155.477 475.539 155.199 475.099 154.964C474.689 154.729 474.146 154.685 473.471 154.832C473.237 154.891 472.958 155.052 472.635 155.316C472.313 155.58 471.99 155.888 471.667 156.24C471.345 156.563 471.066 156.885 470.831 157.208C470.597 157.501 470.435 157.736 470.347 157.912C470.465 158.059 470.699 158.176 471.051 158.264C471.403 158.352 471.785 158.396 472.195 158.396C472.635 158.396 473.002 158.367 473.295 158.308ZM487.067 166.668C486.861 166.492 486.583 165.964 486.231 165.084C485.908 164.204 485.585 163.177 485.263 162.004C484.969 160.831 484.735 159.745 484.559 158.748C484.441 158.161 484.309 157.663 484.163 157.252C484.045 156.841 483.943 156.504 483.855 156.24C483.708 155.712 483.752 155.155 483.987 154.568C484.251 153.981 484.559 153.585 484.911 153.38C485.057 153.292 485.321 153.233 485.703 153.204C486.113 153.145 486.377 153.131 486.495 153.16C486.847 153.277 487.169 153.82 487.463 154.788C487.756 155.727 488.02 156.973 488.255 158.528C488.372 159.437 488.46 160.112 488.519 160.552C488.607 160.963 488.651 161.227 488.651 161.344C488.768 161.579 488.841 161.872 488.871 162.224C488.929 162.547 489.076 162.591 489.311 162.356C489.428 162.239 489.604 162.033 489.839 161.74C490.103 161.447 490.411 161.065 490.763 160.596C491.379 159.775 491.863 159.1 492.215 158.572C492.596 158.015 493.021 157.443 493.491 156.856C493.696 156.563 493.975 156.24 494.327 155.888C494.679 155.536 495.031 155.213 495.383 154.92C495.735 154.597 496.028 154.407 496.263 154.348C496.967 154.231 497.392 154.495 497.539 155.14C497.715 155.756 497.509 156.475 496.923 157.296C496.688 157.648 496.497 157.985 496.351 158.308C496.233 158.601 496.116 158.807 495.999 158.924C495.764 159.393 495.397 159.995 494.899 160.728C494.4 161.432 493.916 162.092 493.447 162.708C492.977 163.295 492.655 163.676 492.479 163.852C492.361 163.969 492.097 164.189 491.687 164.512C491.305 164.835 490.939 165.245 490.587 165.744C489.883 166.419 489.208 166.829 488.563 166.976C487.917 167.123 487.419 167.02 487.067 166.668ZM506.121 169.792C504.508 169.792 503.261 169.323 502.381 168.384C501.53 167.445 501.105 166.008 501.105 164.072C501.105 163.016 501.296 161.857 501.677 160.596C502.088 159.335 502.616 158.103 503.261 156.9C503.936 155.697 504.669 154.656 505.461 153.776C506.253 152.867 507.045 152.236 507.837 151.884C508.13 151.737 508.438 151.635 508.761 151.576C509.113 151.488 509.45 151.444 509.773 151.444C510.125 151.444 510.506 151.473 510.917 151.532C511.357 151.561 511.768 151.649 512.149 151.796C512.824 152.001 513.41 152.397 513.909 152.984C514.437 153.571 514.701 154.421 514.701 155.536C514.701 155.829 514.672 156.152 514.613 156.504C514.554 156.827 514.452 157.149 514.305 157.472C513.924 158.44 513.337 159.364 512.545 160.244C511.782 161.124 510.976 161.74 510.125 162.092C509.89 162.209 509.656 162.297 509.421 162.356C509.216 162.385 508.996 162.4 508.761 162.4C508.145 162.4 507.588 162.312 507.089 162.136C506.62 161.96 506.18 161.725 505.769 161.432L505.417 161.124L505.197 161.564C504.992 162.121 504.845 162.591 504.757 162.972C504.698 163.353 504.669 163.632 504.669 163.808C504.669 164.16 504.684 164.527 504.713 164.908C504.742 165.26 504.83 165.553 504.977 165.788C505.094 165.935 505.241 166.052 505.417 166.14C505.622 166.228 505.872 166.272 506.165 166.272C506.341 166.272 506.502 166.272 506.649 166.272C506.825 166.243 506.972 166.213 507.089 166.184C507.617 166.067 508.042 165.876 508.365 165.612C508.717 165.319 509.084 165.069 509.465 164.864L509.641 164.776L509.597 164.644C510.096 164.38 510.433 164.219 510.609 164.16C510.785 164.072 510.917 163.999 511.005 163.94C511.122 163.823 511.254 163.764 511.401 163.764C511.812 163.705 512.208 163.823 512.589 164.116C513 164.38 513.205 164.717 513.205 165.128C513.205 165.304 513.073 165.583 512.809 165.964C512.574 166.345 512.266 166.727 511.885 167.108C511.533 167.46 511.166 167.739 510.785 167.944C510.697 167.973 510.609 168.017 510.521 168.076C510.433 168.105 510.345 168.149 510.257 168.208H510.301C510.037 168.56 509.773 168.736 509.509 168.736H509.157C509.04 168.941 508.658 169.161 508.013 169.396C507.368 169.66 506.737 169.792 506.121 169.792ZM508.409 159.188C508.673 159.188 508.908 159.144 509.113 159.056C509.348 158.968 509.568 158.865 509.773 158.748C510.477 158.249 510.932 157.604 511.137 156.812C511.342 156.02 511.269 155.419 510.917 155.008C510.858 154.92 510.785 154.861 510.697 154.832C510.609 154.773 510.506 154.744 510.389 154.744C510.066 154.744 509.7 154.847 509.289 155.052C508.908 155.257 508.526 155.551 508.145 155.932C507.764 156.313 507.412 156.768 507.089 157.296L506.517 158.22C506.576 158.191 506.62 158.176 506.649 158.176C506.708 158.147 506.752 158.132 506.781 158.132C507.045 158.132 507.221 158.22 507.309 158.396C507.397 158.572 507.5 158.748 507.617 158.924C507.764 159.1 508.028 159.188 508.409 159.188ZM521.036 167.944C520.743 167.768 520.42 167.519 520.068 167.196C519.716 166.844 519.54 166.507 519.54 166.184C519.54 165.744 519.599 165.201 519.716 164.556C519.834 163.881 519.951 163.309 520.068 162.84C520.127 162.312 520.2 161.784 520.288 161.256C520.406 160.699 520.611 160.185 520.904 159.716C521.227 158.601 521.564 157.501 521.916 156.416C522.268 155.301 522.576 154.157 522.84 152.984C523.222 151.899 523.559 150.945 523.852 150.124C524.175 149.273 524.571 148.203 525.04 146.912C525.304 146.179 525.524 145.401 525.7 144.58C525.906 143.729 526.214 142.967 526.624 142.292C526.8 142.028 526.932 141.808 527.02 141.632C527.138 141.427 527.255 141.236 527.372 141.06C527.402 140.943 527.548 140.84 527.812 140.752C528.106 140.664 528.399 140.62 528.692 140.62C529.015 140.591 529.235 140.649 529.352 140.796C529.44 140.767 529.587 140.884 529.792 141.148C529.998 141.383 530.188 141.661 530.364 141.984C530.57 142.277 530.658 142.512 530.628 142.688C530.628 142.805 530.599 142.967 530.54 143.172C530.511 143.377 530.438 143.568 530.32 143.744C530.203 143.861 530.086 144.037 529.968 144.272C529.88 144.477 529.734 144.771 529.528 145.152C529.411 145.533 529.308 145.929 529.22 146.34C529.132 146.721 529.015 147.073 528.868 147.396C528.751 147.748 528.604 148.085 528.428 148.408C528.282 148.731 528.179 148.995 528.12 149.2C527.915 149.875 527.666 150.535 527.372 151.18C527.108 151.825 526.874 152.515 526.668 153.248C526.463 153.952 526.258 154.685 526.052 155.448C525.847 156.181 525.554 156.885 525.172 157.56C524.967 157.883 524.82 158.293 524.732 158.792C524.644 159.291 524.556 159.789 524.468 160.288C524.292 160.816 524.131 161.315 523.984 161.784C523.867 162.224 523.808 162.503 523.808 162.62C523.632 163.265 523.5 163.911 523.412 164.556C523.354 165.172 523.207 165.715 522.972 166.184C522.943 166.477 522.84 166.8 522.664 167.152C522.488 167.504 522.254 167.768 521.96 167.944C521.696 168.12 521.388 168.12 521.036 167.944ZM535.589 169.308C534.034 169.308 532.89 168.809 532.157 167.812C531.951 167.343 531.849 166.873 531.849 166.404C531.878 165.905 531.995 165.553 532.201 165.348C532.406 165.113 532.655 165.157 532.949 165.48C533.33 165.715 533.873 165.832 534.577 165.832C534.929 165.832 535.237 165.832 535.501 165.832C535.794 165.803 536.131 165.773 536.513 165.744C537.187 165.685 537.613 165.48 537.789 165.128C537.994 164.776 537.95 164.483 537.657 164.248H537.701C536.909 164.043 536.131 163.749 535.369 163.368C534.606 162.987 533.961 162.561 533.433 162.092C532.905 161.593 532.597 161.124 532.509 160.684C532.274 159.716 532.333 158.719 532.685 157.692C533.037 156.665 533.55 155.771 534.225 155.008C534.489 154.832 534.855 154.583 535.325 154.26C535.794 153.908 536.131 153.717 536.337 153.688V153.732C536.894 153.145 537.525 152.676 538.229 152.324C538.933 151.943 539.754 151.591 540.693 151.268L541.397 151.18C541.749 151.121 542.057 151.092 542.321 151.092C542.291 151.092 542.365 151.121 542.541 151.18C542.717 151.239 542.863 151.283 542.981 151.312C543.157 151.4 543.333 151.444 543.509 151.444C543.919 151.503 544.315 151.723 544.697 152.104C545.107 152.456 545.43 152.881 545.665 153.38C545.929 153.849 546.031 154.289 545.973 154.7C545.885 155.375 545.635 156.049 545.225 156.724C544.814 157.369 544.374 157.736 543.905 157.824C543.963 157.795 543.905 157.736 543.729 157.648C543.553 157.56 543.391 157.472 543.245 157.384L543.069 157.472C543.069 157.472 543.054 157.428 543.025 157.34C543.025 157.252 542.995 157.149 542.937 157.032C542.819 156.827 542.731 156.607 542.673 156.372C542.643 156.137 542.643 155.873 542.673 155.58C542.731 155.257 542.746 155.067 542.717 155.008C542.687 154.949 542.511 154.905 542.189 154.876C541.807 154.788 541.323 154.832 540.737 155.008C540.15 155.155 539.607 155.419 539.109 155.8C538.522 156.181 538.082 156.489 537.789 156.724C537.525 156.959 537.319 157.193 537.173 157.428C537.026 157.633 536.865 157.941 536.689 158.352C536.571 158.557 536.469 158.748 536.381 158.924C536.293 159.071 536.249 159.217 536.249 159.364C536.249 159.657 536.498 159.965 536.997 160.288C537.495 160.581 538.243 160.933 539.241 161.344C540.033 161.667 540.546 162.107 540.781 162.664C541.045 163.221 541.279 163.749 541.485 164.248C541.543 164.365 541.602 164.585 541.661 164.908C541.749 165.201 541.763 165.377 541.705 165.436C541.763 165.495 541.793 165.553 541.793 165.612V165.568C542.027 166.008 541.983 166.477 541.661 166.976C541.367 167.445 540.898 167.885 540.253 168.296C539.607 168.677 538.874 168.956 538.053 169.132H538.097C537.657 169.191 537.217 169.235 536.777 169.264C536.366 169.293 535.97 169.308 535.589 169.308Z" fill="#B8C318"/>
</svg>
