<svg width="900" height="250" viewBox="0 0 900 250" fill="none" xmlns="http://www.w3.org/2000/svg">
<rect y="30" width="900" height="220" rx="60" fill="#E0E772"/>
<rect x="5.5" y="5.5" width="889" height="209" rx="54.5" fill="#FDFDFB" stroke="#B8C318" stroke-width="11"/>
<rect width="671" height="172" transform="translate(114 24)" fill="#FDFDFB"/>
<path d="M307.2 72.14H304.26C303.6 77 301.44 80.06 294.48 81.68C294.06 80.48 292.74 78.44 291.66 77.48C296.7 76.58 298.32 75.02 298.92 72.14H292.92V67.22H302.94V64.28H294.96V59.48H302.94V56.3H309.24V59.48H317.28V64.28H309.24V67.22H318.9V72.14H312.24V73.88C312.24 75.02 312.36 75.44 313.14 75.44H315.54C316.26 75.44 317.76 75.38 318.48 75.14C318.6 76.4 318.66 77.96 318.84 79.22C318.12 79.46 316.8 79.52 315.66 79.52H312.12C307.98 79.52 307.2 77.72 307.2 73.88V72.14ZM298.56 112.22L291.84 109.52C294.48 107.18 297.24 103.04 298.8 99.02L305.7 100.82C304.2 104.9 301.44 109.4 298.56 112.22ZM309.18 101.06L315.84 100.4C316.62 103.82 317.22 108.2 317.28 110.84L310.14 111.74C310.14 109.04 309.78 104.54 309.18 101.06ZM321.18 101L327.9 99.98C329.28 103.22 330.66 107.54 331.14 110.3L324 111.68C323.64 108.92 322.44 104.42 321.18 101ZM333.12 100.88L339.96 98.84C342.54 102.2 345.78 106.82 347.34 110L339.96 112.28C338.7 109.34 335.7 104.42 333.12 100.88ZM335.04 70.16H331.62C331.44 73.52 331.14 76.58 330.72 79.46C332.34 80.6 333.84 81.68 335.04 82.58V70.16ZM342.12 91.46H342.84C343.08 91.46 343.32 91.4 343.5 91.16C343.68 90.92 343.8 90.44 343.86 89.3C343.98 88.16 344.04 85.7 344.04 82.64C345.18 83.6 346.92 84.5 348.42 85.04C348.36 88.04 348.12 91.76 347.76 93.2C347.46 94.58 346.86 95.54 346.08 96.2C345.3 96.86 344.04 97.1 342.9 97.1H340.2C338.82 97.1 337.38 96.68 336.36 95.66C335.46 94.58 335.04 93.38 335.04 88.94V84.44L332.64 89.24C331.74 88.4 330.48 87.38 329.1 86.24C327.6 91.16 325.14 95.18 321.42 98.36C320.88 97.46 319.92 96.26 318.9 95.18V95.3C309.6 96.26 299.94 97.22 292.92 97.94L292.44 92.12C295.32 91.94 298.98 91.64 302.94 91.34V87.68H294.12V82.7H302.94V79.46H309.24V82.7H317.4V87.68H309.24V90.86L318.84 90.02V91.94C321.3 89.3 322.74 86.06 323.76 82.28C322.14 81.02 320.46 79.82 319.02 78.86L321.96 73.46L324.9 75.5C325.08 73.76 325.26 72.02 325.32 70.16H320.28V63.86H325.5C325.56 61.4 325.62 58.88 325.62 56.12H332.04C331.98 58.82 331.98 61.34 331.92 63.86H341.46V88.82C341.46 90.14 341.46 90.92 341.58 91.16C341.7 91.4 341.88 91.46 342.12 91.46ZM405.36 82.64H396.24C389.04 82.64 387.12 80 387.12 73.34V56.3H394.2V63.38H408.96V69.5H394.2V73.46C394.2 75.68 394.56 76.52 396.48 76.52H405.24C406.92 76.52 409.44 76.34 410.76 76.04C410.88 77.9 411.18 80.48 411.42 82.1C410.16 82.52 407.64 82.64 405.36 82.64ZM366.6 89.06V91.22C366.6 93.5 366.48 96.2 366.18 98.9C368.88 97.7 372.42 95.9 376.02 93.98V92L373.14 94.82C371.64 93.26 368.88 90.92 366.6 89.06ZM376.02 83.66H366.6V87.92L369.6 85.34C371.64 86.78 374.22 88.88 376.02 90.44V83.66ZM382.74 77.66V105.62C382.74 108.56 382.2 110.06 380.22 111.02C378.3 111.92 375.6 112.04 371.94 112.04C371.64 110.36 370.68 108.02 369.78 106.46C371.94 106.58 374.28 106.58 375 106.58C375.78 106.58 376.02 106.34 376.02 105.56V99.44C373.02 101.6 370.02 103.64 367.32 105.38L365.82 101.18C365.16 105.26 363.84 109.34 361.56 112.46C360.54 111.08 357.84 108.5 356.58 107.66C359.76 102.98 360 96.38 360 91.16V77.66H382.74ZM373.62 62.72L379.38 60.62C381.9 64.94 385.08 70.82 386.52 74.42L380.28 76.94C379.92 75.86 379.38 74.6 378.78 73.16C363.6 74.66 361.14 75.02 359.4 75.74C359.04 74.36 357.9 71.12 357.18 69.32C358.26 69.08 359.28 68.24 360.48 66.92C361.68 65.6 365.34 60.98 367.56 56.24L374.76 58.28C372.72 61.76 370.02 65.24 367.38 68.24L376.14 67.58C375.24 65.84 374.4 64.16 373.62 62.72ZM397.02 105.56H403.8C405.84 105.56 406.26 104.54 406.56 99.02C408 100.1 410.88 101.18 412.74 101.6C412.02 109.46 410.16 111.8 404.46 111.8H395.94C388.86 111.8 387.12 109.7 387.12 103.16V84.32H394.2V90.32H409.38V96.62H394.2V103.16C394.2 105.26 394.62 105.56 397.02 105.56ZM464.16 83.72V86.24L468 86.18C467.52 85.58 467.04 85.04 466.56 84.5L468.24 83.72H464.16ZM453.24 79.88H458.1V77.48H453.24V79.88ZM453.24 71.48V73.82H458.1V71.48H453.24ZM469.26 71.48H464.16V73.82H469.26V71.48ZM469.26 79.88V77.48H464.16V79.88H469.26ZM446.46 91.64L446.1 86.54C449.4 86.54 453.54 86.48 458.1 86.36V83.72H447.66V67.64H458.1V65.42H446.64V60.2H458.1V56.24H464.16V60.2H476.22V65.42H464.16V67.64H475.14V83.72H472.62C474.6 86 476.4 88.64 477.42 90.62L472.44 93.08C472.14 92.48 471.78 91.76 471.3 90.98C462.3 91.28 453.06 91.52 446.46 91.64ZM463.74 105.86V99.26H454.74C456.6 101.12 458.28 103.4 459.12 105.08L456.66 106.64C459.06 106.76 461.82 106.76 462.6 106.76C463.44 106.7 463.74 106.52 463.74 105.86ZM428.04 84.44V87.98H431.46V84.44H428.04ZM428.04 76.22V79.76H431.46V76.22H428.04ZM439.74 79.76V76.22H436.08V79.76H439.74ZM439.74 87.98V84.44H436.08V87.98H439.74ZM470.22 91.7V94.04H477.06V99.26H470.22V106.04C470.22 109.1 469.74 110.6 467.46 111.5C465.24 112.34 462.36 112.4 458.16 112.4C457.98 110.66 457.14 108.44 456.42 106.82L454.02 108.32C453.06 106.22 451.02 103.16 448.86 101L451.8 99.26H446.16V102.74H436.92V112.22H430.62V102.74H420.96V96.5H430.62V92.9H422.94V71.24H430.62V68.12H421.8V61.94H430.62V56.24H436.92V61.94H445.44V68.12H436.92V71.24H444.9V92.9H436.92V96.5H446.16V94.04H463.74V91.7H470.22ZM495.72 83.36L494.1 78.92H487.56V65.42H510.24V63.02H490.26V58.34H537.3V63.02H517.2V65.42H540.36V78.92H533.46L532.2 83.18C529.02 82.04 522.84 80.6 518.34 79.88L519.72 75.86C523.98 76.34 529.92 77.6 533.22 78.68V70.1H529.98L532.14 73.16C528.96 74.48 524.58 75.44 521.46 76.04L519.24 72.68C521.58 72.14 524.94 71.06 527.46 70.1H517.2V82.58H510.24V70.1H498.78C502.02 70.7 505.86 71.72 508.14 72.56L506.22 76.4C503.82 75.44 499.32 74.18 495.9 73.46L497.58 70.1H494.34V78.32C498 77.9 503.04 77.18 508.2 76.4L508.44 80.48C503.94 81.5 499.5 82.52 495.72 83.36ZM499.92 98.48H509.88V95.78H499.92V98.48ZM509.88 88.88H499.92V91.58H509.88V88.88ZM527.58 91.58V88.88H516.72V91.58H527.58ZM516.72 98.48H527.58V95.78H516.72V98.48ZM521.04 105.98H532.38C535.44 105.98 535.98 105.08 536.4 100.04C537.78 101 540.48 101.9 542.34 102.26C541.5 109.46 539.52 111.38 532.98 111.38H520.38C512.22 111.38 509.88 109.7 509.88 103.46V103.28H499.92V105.86H493.08V84.08H534.66V103.28H516.72V103.46C516.72 105.62 517.44 105.98 521.04 105.98ZM599.76 82.64H590.64C583.44 82.64 581.52 80 581.52 73.34V56.3H588.6V63.38H603.36V69.5H588.6V73.46C588.6 75.68 588.96 76.52 590.88 76.52H599.64C601.32 76.52 603.84 76.34 605.16 76.04C605.28 77.9 605.58 80.48 605.82 82.1C604.56 82.52 602.04 82.64 599.76 82.64ZM561 89.06V91.22C561 93.5 560.88 96.2 560.58 98.9C563.28 97.7 566.82 95.9 570.42 93.98V92L567.54 94.82C566.04 93.26 563.28 90.92 561 89.06ZM570.42 83.66H561V87.92L564 85.34C566.04 86.78 568.62 88.88 570.42 90.44V83.66ZM577.14 77.66V105.62C577.14 108.56 576.6 110.06 574.62 111.02C572.7 111.92 570 112.04 566.34 112.04C566.04 110.36 565.08 108.02 564.18 106.46C566.34 106.58 568.68 106.58 569.4 106.58C570.18 106.58 570.42 106.34 570.42 105.56V99.44C567.42 101.6 564.42 103.64 561.72 105.38L560.22 101.18C559.56 105.26 558.24 109.34 555.96 112.46C554.94 111.08 552.24 108.5 550.98 107.66C554.16 102.98 554.4 96.38 554.4 91.16V77.66H577.14ZM568.02 62.72L573.78 60.62C576.3 64.94 579.48 70.82 580.92 74.42L574.68 76.94C574.32 75.86 573.78 74.6 573.18 73.16C558 74.66 555.54 75.02 553.8 75.74C553.44 74.36 552.3 71.12 551.58 69.32C552.66 69.08 553.68 68.24 554.88 66.92C556.08 65.6 559.74 60.98 561.96 56.24L569.16 58.28C567.12 61.76 564.42 65.24 561.78 68.24L570.54 67.58C569.64 65.84 568.8 64.16 568.02 62.72ZM591.42 105.56H598.2C600.24 105.56 600.66 104.54 600.96 99.02C602.4 100.1 605.28 101.18 607.14 101.6C606.42 109.46 604.56 111.8 598.86 111.8H590.34C583.26 111.8 581.52 109.7 581.52 103.16V84.32H588.6V90.32H603.78V96.62H588.6V103.16C588.6 105.26 589.02 105.56 591.42 105.56Z" fill="#594A39"/>
<path d="M123.914 171.332C123.386 171.361 122.946 171.112 122.594 170.584C122.242 170.056 122.081 169.616 122.11 169.264C122.14 168.795 122.272 168.12 122.506 167.24C122.741 166.36 123.005 165.465 123.298 164.556C123.592 163.647 123.856 162.928 124.09 162.4C124.208 161.931 124.31 161.52 124.398 161.168C124.516 160.787 124.589 160.537 124.618 160.42C124.706 160.303 124.838 159.995 125.014 159.496C125.22 158.997 125.381 158.513 125.498 158.044C125.557 157.809 125.674 157.369 125.85 156.724C126.056 156.049 126.29 155.272 126.554 154.392C126.848 153.512 127.126 152.647 127.39 151.796C127.684 150.945 127.933 150.197 128.138 149.552C128.344 148.907 128.476 148.481 128.534 148.276C128.769 147.924 128.945 147.587 129.062 147.264C129.18 146.941 129.253 146.721 129.282 146.604C129.458 146.487 129.561 146.34 129.59 146.164C129.62 145.959 129.634 145.797 129.634 145.68C129.634 145.533 129.678 145.416 129.766 145.328C129.884 145.24 129.942 145.137 129.942 145.02C130.06 144.932 130.133 144.917 130.162 144.976C130.192 145.035 130.28 144.991 130.426 144.844L130.646 143.348L134.562 143.304C134.504 143.656 134.416 144.096 134.298 144.624C134.181 145.123 133.902 145.797 133.462 146.648C133.316 147.235 133.14 147.763 132.934 148.232C132.758 148.701 132.685 149.009 132.714 149.156C132.656 149.215 132.524 149.508 132.318 150.036C132.142 150.564 131.922 151.209 131.658 151.972C131.424 152.735 131.174 153.497 130.91 154.26C130.676 155.023 130.456 155.697 130.25 156.284C130.074 156.841 129.957 157.193 129.898 157.34C129.664 157.809 129.4 158.499 129.106 159.408C128.813 160.317 128.373 161.549 127.786 163.104C127.552 163.573 127.258 164.277 126.906 165.216C126.584 166.155 126.32 167.005 126.114 167.768C125.792 168.912 125.498 169.733 125.234 170.232C125 170.731 124.78 171.024 124.574 171.112C124.369 171.229 124.149 171.303 123.914 171.332ZM124.31 145.46C123.108 145.577 122.286 145.431 121.846 145.02C121.436 144.609 121.289 144.169 121.406 143.7C121.494 143.348 121.7 143.055 122.022 142.82C122.374 142.556 123.005 142.336 123.914 142.16C124.237 142.101 124.648 142.028 125.146 141.94C125.674 141.852 126.173 141.764 126.642 141.676C127.61 141.559 128.402 141.456 129.018 141.368C129.664 141.28 130.324 141.207 130.998 141.148C131.673 141.089 132.524 141.031 133.55 140.972C134.401 140.913 135.12 140.869 135.706 140.84C136.322 140.781 136.63 140.752 136.63 140.752C136.718 140.752 137.026 140.781 137.554 140.84C138.082 140.899 138.654 140.972 139.27 141.06C139.886 141.148 140.341 141.251 140.634 141.368C141.309 141.515 141.852 141.779 142.262 142.16C142.673 142.541 142.937 142.981 143.054 143.48C143.142 143.832 143.142 144.111 143.054 144.316C142.966 144.492 142.805 144.639 142.57 144.756C141.896 144.961 141.338 145.137 140.898 145.284C140.488 145.401 140.077 145.387 139.666 145.24C139.52 145.093 139.344 144.961 139.138 144.844C138.962 144.727 138.64 144.639 138.17 144.58C137.73 144.492 137.026 144.419 136.058 144.36C135.237 144.448 134.518 144.492 133.902 144.492C133.286 144.492 132.978 144.565 132.978 144.712L130.382 144.844L128.226 145.064C127.933 145.093 127.522 145.137 126.994 145.196C126.466 145.225 125.953 145.269 125.454 145.328C124.956 145.357 124.574 145.401 124.31 145.46ZM144.706 167.328C144.501 167.357 144.266 167.284 144.002 167.108C143.767 166.903 143.547 166.727 143.342 166.58C143.049 166.228 142.843 165.92 142.726 165.656C142.609 165.392 142.55 165.099 142.55 164.776C142.55 164.453 142.579 164.072 142.638 163.632C142.785 163.163 142.961 162.532 143.166 161.74C143.371 160.948 143.621 160.097 143.914 159.188C143.973 158.836 144.075 158.425 144.222 157.956C144.398 157.457 144.574 156.988 144.75 156.548C144.926 156.079 145.058 155.727 145.146 155.492C145.351 154.759 145.557 154.055 145.762 153.38C145.997 152.705 146.275 151.928 146.598 151.048C146.921 150.168 147.317 149.053 147.786 147.704C148.431 145.944 148.915 144.624 149.238 143.744C149.561 142.864 149.795 142.233 149.942 141.852C150.089 141.471 150.191 141.163 150.25 140.928C150.25 140.693 150.411 140.473 150.734 140.268C151.086 140.033 151.394 139.916 151.658 139.916C152.069 139.945 152.465 140.195 152.846 140.664C153.227 141.104 153.491 141.647 153.638 142.292C153.785 142.908 153.682 143.509 153.33 144.096C152.861 145.152 152.391 146.34 151.922 147.66C151.482 148.951 151.042 150.241 150.602 151.532C150.162 152.823 149.722 154.011 149.282 155.096C149.253 155.243 149.15 155.492 148.974 155.844C148.827 156.196 148.695 156.489 148.578 156.724C148.461 156.959 148.343 157.179 148.226 157.384C148.138 157.589 148.094 157.692 148.094 157.692C148.065 157.868 148.006 158.117 147.918 158.44C147.83 158.763 147.742 159.041 147.654 159.276C147.625 159.423 147.581 159.613 147.522 159.848C147.463 160.083 147.419 160.317 147.39 160.552C147.537 160.376 147.742 160.171 148.006 159.936C148.27 159.672 148.607 159.349 149.018 158.968C149.487 158.557 149.898 158.205 150.25 157.912C150.602 157.619 150.954 157.355 151.306 157.12C151.629 156.885 151.922 156.665 152.186 156.46C152.479 156.255 152.626 156.152 152.626 156.152C152.685 156.064 152.743 155.961 152.802 155.844C152.89 155.727 152.978 155.653 153.066 155.624C153.125 155.565 153.227 155.492 153.374 155.404C153.521 155.287 153.667 155.169 153.814 155.052C154.078 154.876 154.357 154.729 154.65 154.612C154.943 154.495 155.251 154.407 155.574 154.348C155.897 154.289 156.205 154.26 156.498 154.26C156.85 154.26 157.217 154.407 157.598 154.7C157.979 154.964 158.331 155.345 158.654 155.844C158.947 156.225 159.123 156.68 159.182 157.208C159.27 157.707 159.285 158.381 159.226 159.232C159.226 159.467 159.153 159.907 159.006 160.552C158.889 161.197 158.801 161.681 158.742 162.004L158.346 163.5H158.698C159.021 163.383 159.329 163.368 159.622 163.456C159.945 163.544 160.106 163.588 160.106 163.588C160.253 163.676 160.385 163.779 160.502 163.896C160.649 164.013 160.781 164.101 160.898 164.16C161.074 164.395 161.045 164.732 160.81 165.172C160.575 165.612 160.311 165.92 160.018 166.096C159.314 166.565 158.683 166.859 158.126 166.976C157.598 167.093 157.041 166.991 156.454 166.668C155.897 166.287 155.515 165.832 155.31 165.304C155.134 164.776 155.061 164.057 155.09 163.148C155.207 161.857 155.281 160.933 155.31 160.376C155.339 159.789 155.193 159.496 154.87 159.496C154.518 159.496 154.034 159.672 153.418 160.024C152.831 160.347 152.171 160.801 151.438 161.388C150.705 161.945 149.971 162.576 149.238 163.28C148.534 163.955 147.903 164.644 147.346 165.348C146.994 165.788 146.613 166.228 146.202 166.668C145.791 167.079 145.293 167.299 144.706 167.328ZM175.799 168.12C174.919 168.619 173.98 168.912 172.983 169C172.015 169.059 171.106 168.927 170.255 168.604C169.404 168.252 168.715 167.739 168.187 167.064C167.894 166.683 167.615 166.081 167.351 165.26C167.087 164.409 167.043 163.265 167.219 161.828C167.395 160.479 167.806 159.115 168.451 157.736C169.126 156.357 169.947 155.14 170.915 154.084C171.883 153.028 172.939 152.309 174.083 151.928C174.494 151.781 174.904 151.679 175.315 151.62C175.755 151.532 176.327 151.517 177.031 151.576C177.706 151.664 178.307 151.84 178.835 152.104C179.363 152.339 179.744 152.603 179.979 152.896C180.448 153.365 180.756 153.82 180.903 154.26C181.05 154.7 181.108 155.125 181.079 155.536C180.932 156.475 180.507 157.487 179.803 158.572C179.128 159.657 178.175 160.464 176.943 160.992C176.444 161.197 175.858 161.329 175.183 161.388C174.508 161.447 173.584 161.359 172.411 161.124C171.707 160.977 171.238 161.051 171.003 161.344C170.798 161.637 170.71 162.209 170.739 163.06C170.798 163.588 170.915 164.057 171.091 164.468C171.296 164.849 171.663 165.113 172.191 165.26C172.866 165.377 173.35 165.392 173.643 165.304C173.936 165.187 174.303 165.025 174.743 164.82C174.978 164.673 175.198 164.512 175.403 164.336C175.638 164.16 175.858 163.984 176.063 163.808C176.298 163.632 176.488 163.5 176.635 163.412C176.782 163.295 176.928 163.221 177.075 163.192C177.222 163.163 177.368 163.148 177.515 163.148C177.838 163.177 178.146 163.353 178.439 163.676C178.732 163.999 178.923 164.307 179.011 164.6C179.011 164.835 178.864 165.172 178.571 165.612C178.278 166.023 177.882 166.463 177.383 166.932C176.914 167.372 176.386 167.768 175.799 168.12ZM175.227 158.308C175.432 158.22 175.726 158.015 176.107 157.692C176.518 157.369 176.884 157.032 177.207 156.68C177.53 156.299 177.691 156.005 177.691 155.8C177.691 155.477 177.471 155.199 177.031 154.964C176.62 154.729 176.078 154.685 175.403 154.832C175.168 154.891 174.89 155.052 174.567 155.316C174.244 155.58 173.922 155.888 173.599 156.24C173.276 156.563 172.998 156.885 172.763 157.208C172.528 157.501 172.367 157.736 172.279 157.912C172.396 158.059 172.631 158.176 172.983 158.264C173.335 158.352 173.716 158.396 174.127 158.396C174.567 158.396 174.934 158.367 175.227 158.308ZM189.042 168.076C188.954 168.105 188.764 168.091 188.47 168.032C188.206 167.973 187.928 167.9 187.634 167.812C187.37 167.724 187.209 167.651 187.15 167.592C187.033 167.475 186.872 167.269 186.666 166.976C186.461 166.653 186.344 166.228 186.314 165.7C186.314 165.172 186.564 164.541 187.062 163.808C187.209 163.515 187.385 163.075 187.59 162.488C187.796 161.901 188.001 161.285 188.206 160.64C188.441 159.965 188.646 159.364 188.822 158.836C189.028 158.308 189.174 157.941 189.262 157.736C189.321 157.237 189.292 156.885 189.174 156.68C189.086 156.445 188.837 156.313 188.426 156.284C188.133 156.284 187.898 156.181 187.722 155.976C187.576 155.771 187.502 155.404 187.502 154.876C187.561 154.465 187.664 154.113 187.81 153.82C187.986 153.497 188.221 153.233 188.514 153.028C188.808 152.881 189.174 152.779 189.614 152.72C190.084 152.661 190.538 152.647 190.978 152.676C191.418 152.705 191.726 152.808 191.902 152.984C192.108 153.101 192.269 153.365 192.386 153.776C192.533 154.157 192.65 154.553 192.738 154.964C192.826 155.375 192.885 155.683 192.914 155.888C193.208 155.653 193.53 155.331 193.882 154.92C194.264 154.48 194.645 154.069 195.026 153.688C195.496 153.365 196.053 153.043 196.698 152.72C197.344 152.368 197.813 152.192 198.106 152.192C198.429 152.192 198.825 152.353 199.294 152.676C199.764 152.969 200.057 153.233 200.174 153.468C200.468 153.967 200.673 154.495 200.79 155.052C200.937 155.58 200.849 156.049 200.526 156.46C200.233 156.841 199.822 157.223 199.294 157.604C198.766 157.956 198.106 158.059 197.314 157.912C197.138 157.853 196.948 157.633 196.742 157.252C196.566 156.871 196.464 156.592 196.434 156.416C196.434 156.328 196.302 156.416 196.038 156.68C195.804 156.915 195.51 157.208 195.158 157.56C194.836 157.912 194.528 158.235 194.234 158.528C193.736 159.144 193.208 159.98 192.65 161.036C192.093 162.092 191.433 163.368 190.67 164.864C190.318 165.597 190.025 166.301 189.79 166.976C189.556 167.621 189.306 167.988 189.042 168.076ZM207.186 167.548C206.628 167.313 206.174 166.961 205.822 166.492C205.499 165.993 205.338 165.392 205.338 164.688C205.338 164.395 205.396 163.896 205.514 163.192C205.631 162.488 205.792 161.696 205.998 160.816C206.203 159.936 206.408 159.115 206.614 158.352C206.907 157.824 207.098 157.296 207.186 156.768C207.303 156.24 207.362 155.917 207.362 155.8C207.42 155.448 207.523 154.979 207.67 154.392C207.816 153.805 207.963 153.277 208.11 152.808C208.286 152.309 208.403 152.031 208.462 151.972C208.608 151.825 208.858 151.737 209.21 151.708C209.562 151.679 209.914 151.723 210.266 151.84C210.618 151.928 210.852 152.119 210.97 152.412C211.292 152.764 211.468 153.292 211.498 153.996C211.556 154.7 211.424 155.521 211.102 156.46C210.838 157.047 210.574 157.736 210.31 158.528C210.046 159.32 209.811 160.053 209.606 160.728C209.43 161.373 209.327 161.813 209.298 162.048L207.714 162.004C208.212 161.535 208.682 161.051 209.122 160.552C209.562 160.024 209.884 159.613 210.09 159.32C210.588 158.645 211.014 158.088 211.366 157.648C211.747 157.179 212.231 156.621 212.818 155.976C213.404 155.301 214.035 154.832 214.71 154.568C215.384 154.275 215.883 154.128 216.206 154.128C216.851 154.245 217.423 154.583 217.922 155.14C218.45 155.668 218.772 156.46 218.89 157.516C218.89 157.927 218.846 158.411 218.758 158.968C218.699 159.525 218.67 159.804 218.67 159.804C218.67 159.804 218.904 159.511 219.374 158.924C219.872 158.337 220.532 157.677 221.354 156.944C221.911 156.533 222.454 156.299 222.982 156.24C223.51 156.152 223.979 156.328 224.39 156.768C225.152 157.179 225.71 157.897 226.062 158.924C226.414 159.951 226.531 161.109 226.414 162.4C226.326 163.163 226.326 163.779 226.414 164.248C226.531 164.688 226.648 165.084 226.766 165.436C227.147 165.964 227.206 166.433 226.942 166.844C226.678 167.225 226.443 167.416 226.238 167.416C225.944 167.416 225.504 167.357 224.918 167.24C224.331 167.123 223.788 166.917 223.29 166.624C222.82 166.331 222.586 165.935 222.586 165.436V162.708C222.586 162.063 222.556 161.593 222.498 161.3C222.468 160.977 222.395 160.772 222.278 160.684C221.955 160.508 221.559 160.64 221.09 161.08C220.62 161.52 220.107 162.151 219.55 162.972C219.022 163.764 218.45 164.659 217.834 165.656C217.276 166.565 216.822 167.123 216.47 167.328C216.118 167.504 215.78 167.489 215.458 167.284C214.812 167.079 214.402 166.8 214.226 166.448C214.079 166.067 214.064 165.641 214.182 165.172C214.328 164.673 214.504 164.028 214.71 163.236C214.944 162.444 215.164 161.681 215.37 160.948C215.575 160.185 215.707 159.628 215.766 159.276C215.648 159.041 215.443 158.968 215.15 159.056C214.886 159.115 214.607 159.247 214.314 159.452C213.962 159.687 213.58 159.936 213.17 160.2C212.788 160.464 212.334 161.021 211.806 161.872C211.454 162.429 211.058 163.045 210.618 163.72C210.178 164.365 209.767 164.952 209.386 165.48C209.034 166.008 208.74 166.375 208.506 166.58C208.3 167.108 208.11 167.445 207.934 167.592C207.758 167.709 207.508 167.695 207.186 167.548ZM237.385 168.384C237.15 168.443 236.842 168.472 236.461 168.472C236.079 168.443 235.742 168.399 235.449 168.34C235.185 168.252 235.053 168.164 235.053 168.076C235.053 167.929 234.979 167.856 234.833 167.856C234.833 167.856 234.671 167.739 234.349 167.504C234.026 167.24 233.733 167.049 233.469 166.932C233.205 166.521 233.029 166.052 232.941 165.524C232.882 164.967 233.058 163.999 233.469 162.62C233.498 161.681 233.762 160.699 234.261 159.672C234.759 158.616 235.39 157.589 236.153 156.592C236.915 155.595 237.707 154.715 238.529 153.952C239.35 153.16 240.083 152.573 240.729 152.192C241.139 151.781 241.682 151.561 242.357 151.532C243.061 151.503 243.677 151.635 244.205 151.928C244.498 152.075 244.821 152.368 245.173 152.808C245.525 153.248 245.862 153.717 246.185 154.216C246.507 154.685 246.757 155.111 246.933 155.492C247.021 155.815 247.094 156.108 247.153 156.372C247.241 156.607 247.299 156.9 247.329 157.252C247.358 157.604 247.329 158.132 247.241 158.836C247.094 159.364 246.962 159.907 246.845 160.464C246.757 160.992 246.713 161.535 246.713 162.092C246.654 162.649 246.713 163.045 246.889 163.28C247.094 163.515 247.387 163.529 247.769 163.324C248.121 163.148 248.487 163.133 248.869 163.28C249.25 163.397 249.514 163.632 249.661 163.984C249.837 164.307 249.793 164.732 249.529 165.26C249.353 165.641 249.074 166.008 248.693 166.36C248.311 166.712 247.886 167.005 247.417 167.24C246.947 167.445 246.493 167.548 246.053 167.548C245.73 167.548 245.407 167.431 245.085 167.196C244.762 166.932 244.469 166.58 244.205 166.14C243.941 165.7 243.721 165.216 243.545 164.688L243.281 163.676L241.697 165.128C241.315 165.539 240.934 165.92 240.553 166.272C240.201 166.595 239.981 166.829 239.893 166.976C239.746 167.24 239.453 167.475 239.013 167.68C238.602 167.885 238.059 168.12 237.385 168.384ZM238.573 164.16C239.071 163.867 239.497 163.515 239.849 163.104C240.23 162.693 240.597 162.239 240.949 161.74C241.301 161.212 241.682 160.655 242.093 160.068C242.591 159.393 242.943 158.851 243.149 158.44C243.383 158.029 243.559 157.589 243.677 157.12C243.559 156.797 243.398 156.46 243.193 156.108C242.987 155.727 242.782 155.521 242.577 155.492C242.166 155.492 241.667 155.741 241.081 156.24C240.523 156.739 239.907 157.457 239.233 158.396C239.115 158.543 238.969 158.777 238.793 159.1C238.617 159.423 238.441 159.731 238.265 160.024C238.118 160.288 238.015 160.464 237.957 160.552C237.869 160.669 237.737 160.948 237.561 161.388C237.414 161.799 237.282 162.224 237.165 162.664C237.047 163.075 236.989 163.368 236.989 163.544C236.989 163.72 237.003 163.911 237.033 164.116C237.091 164.321 237.238 164.453 237.473 164.512C237.707 164.571 238.074 164.453 238.573 164.16ZM256.883 169.484C256.326 169.631 255.827 169.469 255.387 169C254.947 168.56 254.639 167.9 254.463 167.02C254.287 166.14 254.317 165.157 254.551 164.072C254.698 163.72 254.815 163.383 254.903 163.06C254.991 162.708 255.035 162.429 255.035 162.224C255.094 161.931 255.211 161.505 255.387 160.948C255.563 160.361 255.754 159.76 255.959 159.144C256.165 158.528 256.355 157.985 256.531 157.516C256.737 157.017 256.869 156.709 256.927 156.592C257.045 156.592 257.147 156.489 257.235 156.284C257.323 156.079 257.367 155.873 257.367 155.668C257.367 155.433 257.411 155.169 257.499 154.876C257.617 154.583 257.734 154.377 257.851 154.26C257.851 154.113 257.881 153.952 257.939 153.776C258.027 153.571 258.071 153.409 258.071 153.292C258.071 153.175 258.101 153.057 258.159 152.94C258.247 152.823 258.291 152.705 258.291 152.588C258.497 152.207 258.761 151.605 259.083 150.784C259.435 149.933 259.802 148.995 260.183 147.968C260.594 146.941 260.975 145.929 261.327 144.932C261.679 143.935 261.958 143.099 262.163 142.424C262.398 141.72 262.515 141.295 262.515 141.148C262.515 140.913 262.603 140.693 262.779 140.488C262.955 140.283 263.161 140.18 263.395 140.18C263.483 140.092 263.689 140.033 264.011 140.004C264.334 139.945 264.554 139.916 264.671 139.916C264.671 139.916 264.73 139.975 264.847 140.092C264.965 140.209 265.141 140.385 265.375 140.62C265.61 140.825 265.83 141.06 266.035 141.324C266.27 141.588 266.387 141.896 266.387 142.248C266.387 142.629 266.329 142.996 266.211 143.348C266.123 143.7 265.947 144.184 265.683 144.8C265.419 145.387 265.009 146.267 264.451 147.44C264.217 148.027 263.967 148.584 263.703 149.112C263.439 149.611 263.307 149.919 263.307 150.036C263.307 150.153 263.249 150.329 263.131 150.564C263.043 150.799 262.941 151.092 262.823 151.444C262.706 151.679 262.545 152.031 262.339 152.5C262.134 152.94 261.914 153.424 261.679 153.952C261.474 154.451 261.298 154.891 261.151 155.272C261.005 155.624 260.931 155.829 260.931 155.888C260.931 156.005 260.917 156.123 260.887 156.24C260.887 156.357 260.829 156.475 260.711 156.592C260.594 156.592 260.521 156.68 260.491 156.856C260.491 157.003 260.491 157.076 260.491 157.076C260.491 157.369 260.257 158.147 259.787 159.408C259.318 161.021 258.878 162.503 258.467 163.852C258.086 165.201 257.895 166.287 257.895 167.108C257.895 167.812 257.778 168.355 257.543 168.736C257.338 169.117 257.118 169.367 256.883 169.484ZM286.668 170.716C285.759 170.657 284.849 170.32 283.94 169.704C283.031 169.117 282.195 168.56 281.432 168.032C280.933 167.533 280.552 167.005 280.288 166.448C280.024 165.861 279.804 165.099 279.628 164.16C279.511 163.603 279.511 162.869 279.628 161.96C279.745 161.051 279.936 160.141 280.2 159.232C280.464 158.293 280.713 157.56 280.948 157.032C281.3 156.211 281.74 155.331 282.268 154.392C282.825 153.424 283.368 152.515 283.896 151.664C284.453 150.784 284.893 150.08 285.216 149.552C285.421 149.347 285.509 149.244 285.48 149.244C285.48 149.215 285.48 149.2 285.48 149.2C285.48 149.053 285.627 148.687 285.92 148.1C286.243 147.484 286.521 146.941 286.756 146.472C287.196 146.003 287.445 145.621 287.504 145.328C287.563 145.035 287.519 144.8 287.372 144.624C287.313 144.507 287.431 144.257 287.724 143.876C288.047 143.495 288.487 143.069 289.044 142.6C289.601 142.101 290.217 141.661 290.892 141.28C291.596 140.723 292.271 140.429 292.916 140.4C293.591 140.341 293.987 140.473 294.104 140.796C294.104 140.884 294.265 140.913 294.588 140.884C294.94 140.825 295.336 140.752 295.776 140.664C296.245 140.547 296.656 140.459 297.008 140.4C297.155 140.224 297.492 140.092 298.02 140.004C298.577 139.887 299.223 139.784 299.956 139.696C300.337 139.725 300.763 139.74 301.232 139.74C301.701 139.711 302.112 139.681 302.464 139.652C302.845 139.623 303.036 139.608 303.036 139.608C303.241 139.549 303.535 139.681 303.916 140.004C304.327 140.297 304.649 140.708 304.884 141.236C305.089 141.764 304.913 142.219 304.356 142.6C303.799 142.981 302.919 143.245 301.716 143.392C300.836 143.509 300.147 143.612 299.648 143.7C299.179 143.759 298.665 143.847 298.108 143.964C297.58 144.052 296.803 144.213 295.776 144.448C295.043 144.595 294.427 144.712 293.928 144.8C293.429 144.888 292.989 145.064 292.608 145.328C292.256 145.592 291.86 146.061 291.42 146.736C291.215 146.883 290.951 147.264 290.628 147.88C290.305 148.496 289.983 149.112 289.66 149.728C288.839 150.872 288.223 151.723 287.812 152.28C287.431 152.808 287.299 153.145 287.416 153.292C287.416 153.292 287.621 153.336 288.032 153.424C288.443 153.512 288.707 153.556 288.824 153.556C289.117 153.409 289.469 153.307 289.88 153.248C290.32 153.189 290.672 153.131 290.936 153.072C292.755 152.603 294.089 152.265 294.94 152.06C295.82 151.825 296.436 151.664 296.788 151.576C297.169 151.488 297.507 151.429 297.8 151.4C298.211 151.077 298.621 151.107 299.032 151.488C299.472 151.84 299.78 152.265 299.956 152.764C300.161 153.351 300.161 153.805 299.956 154.128C299.751 154.451 299.296 154.715 298.592 154.92C297.917 155.125 296.949 155.375 295.688 155.668C294.427 155.932 292.843 156.328 290.936 156.856C289.323 157.325 288.017 157.604 287.02 157.692C286.023 157.78 285.553 157.531 285.612 156.944C285.407 156.827 285.172 156.944 284.908 157.296C284.673 157.619 284.453 158.073 284.248 158.66C284.043 159.247 283.852 159.877 283.676 160.552C283.529 161.227 283.441 161.857 283.412 162.444C283.383 163.031 283.427 163.485 283.544 163.808C283.779 164.483 284.145 165.069 284.644 165.568C285.172 166.037 285.935 166.419 286.932 166.712C287.519 166.741 288.091 166.785 288.648 166.844C289.205 166.903 289.836 166.785 290.54 166.492C292.271 166.199 293.473 165.891 294.148 165.568C294.823 165.245 295.233 165.025 295.38 164.908C295.615 164.791 295.761 164.673 295.82 164.556C295.908 164.439 296.025 164.38 296.172 164.38C296.084 164.527 296.113 164.527 296.26 164.38C296.407 164.233 296.641 164.028 296.964 163.764C297.58 163.236 298.196 162.913 298.812 162.796C299.428 162.679 299.941 162.679 300.352 162.796C300.763 162.884 300.983 163.001 301.012 163.148C301.188 163.441 301.1 163.911 300.748 164.556C300.396 165.172 299.853 165.832 299.12 166.536C298.416 167.24 297.58 167.871 296.612 168.428C295.057 169.249 293.371 169.821 291.552 170.144C289.733 170.496 288.105 170.687 286.668 170.716ZM321.612 168.824C321.172 168.824 320.747 168.692 320.336 168.428C319.925 168.135 319.588 167.739 319.324 167.24C319.06 166.712 318.928 166.096 318.928 165.392C318.928 164.952 319.001 164.336 319.148 163.544C319.324 162.723 319.573 161.696 319.896 160.464C319.955 160.053 319.999 159.789 320.028 159.672C320.087 159.555 320.116 159.437 320.116 159.32C320.116 159.261 320.101 159.217 320.072 159.188C320.072 159.129 320.043 159.1 319.984 159.1C319.749 159.1 319.427 159.261 319.016 159.584C318.635 159.877 318.195 160.229 317.696 160.64C317.608 160.699 317.505 160.772 317.388 160.86C317.3 160.948 317.197 161.036 317.08 161.124C316.992 161.212 316.889 161.3 316.772 161.388C316.479 161.564 316.024 161.901 315.408 162.4C314.821 162.899 314.205 163.427 313.56 163.984C312.944 164.541 312.401 165.011 311.932 165.392C311.697 165.568 311.492 165.715 311.316 165.832C311.169 165.949 311.067 166.008 311.008 166.008C310.949 166.008 310.715 165.935 310.304 165.788C309.923 165.612 309.541 165.377 309.16 165.084C308.808 164.761 308.632 164.395 308.632 163.984C308.632 163.72 308.735 163.192 308.94 162.4C309.175 161.608 309.497 160.669 309.908 159.584C310.319 158.499 310.788 157.399 311.316 156.284C311.433 156.02 311.521 155.668 311.58 155.228C311.639 154.788 311.697 154.363 311.756 153.952C311.844 153.512 311.991 153.189 312.196 152.984C312.284 152.837 312.387 152.735 312.504 152.676C312.651 152.588 312.797 152.544 312.944 152.544C313.237 152.544 313.516 152.617 313.78 152.764C314.044 152.881 314.293 153.087 314.528 153.38C314.968 153.849 315.203 154.407 315.232 155.052C315.291 155.668 315.247 156.269 315.1 156.856C314.953 157.443 314.792 157.927 314.616 158.308C314.44 158.66 314.352 158.807 314.352 158.748C314.469 158.689 314.631 158.543 314.836 158.308C315.071 158.073 315.467 157.795 316.024 157.472C316.787 156.885 317.373 156.475 317.784 156.24C318.195 155.976 318.503 155.785 318.708 155.668C318.943 155.551 319.148 155.419 319.324 155.272C319.471 155.155 319.573 155.081 319.632 155.052C319.72 155.023 319.764 155.008 319.764 155.008C319.852 155.008 319.999 154.949 320.204 154.832C320.439 154.715 320.659 154.656 320.864 154.656C321.157 154.656 321.465 154.729 321.788 154.876C322.111 154.993 322.389 155.169 322.624 155.404C322.859 155.609 322.976 155.829 322.976 156.064C322.976 156.152 323.005 156.225 323.064 156.284C323.123 156.343 323.181 156.416 323.24 156.504C323.387 156.68 323.548 156.929 323.724 157.252C323.929 157.545 324.032 158.029 324.032 158.704C324.032 159.173 323.929 159.863 323.724 160.772C323.519 161.681 323.299 162.576 323.064 163.456C322.829 164.365 322.712 165.099 322.712 165.656C322.741 166.184 322.8 166.595 322.888 166.888C322.976 167.152 323.02 167.372 323.02 167.548C323.02 167.783 322.903 168.061 322.668 168.384C322.433 168.677 322.081 168.824 321.612 168.824ZM334.239 168.604C333.095 168.135 332.303 167.372 331.863 166.316C331.423 165.26 331.306 163.852 331.511 162.092C331.57 161.183 331.541 160.581 331.423 160.288C331.306 159.965 331.086 159.657 330.763 159.364C330.675 159.247 330.47 159.056 330.147 158.792C329.825 158.499 329.678 158.279 329.707 158.132C329.678 157.927 329.722 157.677 329.839 157.384C329.957 157.061 330.059 156.885 330.147 156.856C330.353 156.768 330.558 156.665 330.763 156.548C330.998 156.431 331.174 156.401 331.291 156.46C331.409 156.46 331.585 156.533 331.819 156.68C332.083 156.827 332.215 156.959 332.215 157.076C332.333 157.281 332.509 157.193 332.743 156.812C333.007 156.431 333.286 155.947 333.579 155.36C333.873 154.891 334.239 154.451 334.679 154.04C335.119 153.629 335.559 153.263 335.999 152.94C336.469 152.588 336.865 152.324 337.187 152.148C337.334 152.089 337.613 152.001 338.023 151.884C338.463 151.767 338.918 151.679 339.387 151.62C339.857 151.532 340.209 151.503 340.443 151.532C340.971 151.561 341.529 151.781 342.115 152.192C342.702 152.603 343.157 152.984 343.479 153.336C343.861 153.6 344.11 154.011 344.227 154.568C344.374 155.096 344.433 155.653 344.403 156.24C344.374 156.827 344.257 157.325 344.051 157.736C343.963 158.029 343.655 158.44 343.127 158.968C342.599 159.496 342.013 160.009 341.367 160.508C340.751 160.977 340.223 161.3 339.783 161.476C339.402 161.564 338.947 161.637 338.419 161.696C337.891 161.725 337.393 161.725 336.923 161.696C336.483 161.637 336.175 161.564 335.999 161.476C335.794 161.359 335.618 161.403 335.471 161.608C335.354 161.784 335.251 162.283 335.163 163.104C335.134 163.427 335.134 163.705 335.163 163.94C335.222 164.175 335.281 164.351 335.339 164.468C335.545 164.82 335.75 165.084 335.955 165.26C336.161 165.407 336.542 165.451 337.099 165.392C337.657 165.333 338.214 164.996 338.771 164.38C339.358 163.735 339.886 163.221 340.355 162.84C340.473 162.635 340.722 162.503 341.103 162.444C341.514 162.356 341.998 162.385 342.555 162.532C342.878 162.737 343.025 163.06 342.995 163.5C342.995 163.94 342.761 164.585 342.291 165.436C342.203 165.641 341.954 165.949 341.543 166.36C341.162 166.741 340.737 167.137 340.267 167.548C339.827 167.929 339.461 168.208 339.167 168.384C338.287 168.853 337.422 169.073 336.571 169.044C335.721 169.015 334.943 168.868 334.239 168.604ZM337.495 158.704C337.935 158.587 338.302 158.469 338.595 158.352C338.918 158.235 339.226 158.044 339.519 157.78C339.813 157.516 340.15 157.12 340.531 156.592C340.649 156.269 340.707 155.991 340.707 155.756C340.737 155.521 340.722 155.375 340.663 155.316C340.429 155.081 340.165 155.008 339.871 155.096C339.607 155.155 339.314 155.301 338.991 155.536C338.786 155.624 338.493 155.815 338.111 156.108C337.759 156.372 337.407 156.68 337.055 157.032C336.733 157.355 336.469 157.663 336.263 157.956C336.087 158.22 336.058 158.381 336.175 158.44C336.117 158.557 336.278 158.631 336.659 158.66C337.07 158.689 337.349 158.704 337.495 158.704ZM350.827 168.34C350.621 168.34 350.343 168.193 349.991 167.9C349.668 167.607 349.477 167.343 349.419 167.108C349.331 166.873 349.331 166.536 349.419 166.096C349.536 165.627 349.697 165.084 349.903 164.468C350.137 163.5 350.299 162.796 350.387 162.356C350.475 161.916 350.563 161.535 350.651 161.212C350.739 160.889 350.856 160.42 351.003 159.804C351.179 159.423 351.311 159.056 351.399 158.704C351.516 158.323 351.633 157.941 351.751 157.56C351.897 157.179 352.059 156.797 352.235 156.416C352.44 155.653 352.689 154.935 352.983 154.26C353.305 153.556 353.613 152.969 353.907 152.5C353.965 152.412 354.097 152.251 354.303 152.016C354.508 151.781 354.669 151.664 354.787 151.664C355.021 151.429 355.344 151.356 355.755 151.444C356.165 151.503 356.517 151.649 356.811 151.884C357.163 152.265 357.353 152.72 357.383 153.248C357.441 153.747 357.236 154.451 356.767 155.36C356.415 156.269 356.077 156.988 355.755 157.516C355.461 158.015 355.168 158.601 354.875 159.276C355.197 158.807 355.593 158.323 356.063 157.824C356.532 157.325 356.899 156.929 357.163 156.636C357.544 156.225 357.896 155.903 358.219 155.668C358.571 155.404 359.04 155.081 359.627 154.7C360.125 154.348 360.624 154.025 361.123 153.732C361.651 153.439 362.281 153.351 363.015 153.468C363.308 153.439 363.616 153.585 363.939 153.908C364.291 154.231 364.555 154.656 364.731 155.184C364.936 155.683 364.936 156.225 364.731 156.812C364.056 156.665 363.455 156.695 362.927 156.9C362.399 157.076 361.944 157.296 361.563 157.56C361.211 157.824 360.932 158.029 360.727 158.176C360.433 158.352 360.096 158.587 359.715 158.88C359.333 159.144 358.923 159.452 358.483 159.804C358.043 160.127 357.573 160.493 357.075 160.904C356.371 161.491 355.843 162.004 355.491 162.444C355.139 162.884 354.86 163.353 354.655 163.852C354.479 164.292 354.259 164.82 353.995 165.436C353.731 166.052 353.481 166.609 353.247 167.108C353.012 167.577 352.821 167.871 352.675 167.988C352.528 168.281 352.22 168.443 351.751 168.472C351.311 168.501 351.003 168.457 350.827 168.34ZM373.898 177.8C373.077 178.123 372.211 178.064 371.302 177.624C370.422 177.213 369.659 176.553 369.014 175.644C368.897 175.468 368.721 175.145 368.486 174.676C368.251 174.236 368.017 173.752 367.782 173.224C367.577 172.696 367.415 172.241 367.298 171.86C367.21 171.479 367.21 171.259 367.298 171.2C367.415 170.877 367.679 170.687 368.09 170.628C368.501 170.569 368.911 170.584 369.322 170.672C369.733 170.789 369.967 170.936 370.026 171.112C370.114 171.317 370.202 171.523 370.29 171.728C370.378 171.963 370.481 172.168 370.598 172.344C370.745 172.549 370.877 172.725 370.994 172.872C371.317 173.371 371.669 173.708 372.05 173.884C372.431 174.089 372.725 174.119 372.93 173.972C373.429 173.591 373.795 173.136 374.03 172.608C374.294 172.109 374.631 171.215 375.042 169.924C375.365 168.839 375.643 167.9 375.878 167.108C376.113 166.316 376.362 165.583 376.626 164.908C376.714 164.556 376.817 164.263 376.934 164.028C377.081 163.764 377.213 163.573 377.33 163.456H377.594C376.949 163.867 376.406 164.277 375.966 164.688C375.526 165.099 374.925 165.465 374.162 165.788C373.986 165.993 373.546 166.125 372.842 166.184C372.167 166.213 371.507 166.125 370.862 165.92C370.451 165.685 370.114 165.451 369.85 165.216C369.615 164.952 369.41 164.659 369.234 164.336C369.087 164.013 368.926 163.632 368.75 163.192C368.545 162.752 368.515 162.033 368.662 161.036C368.809 160.039 369.073 159.041 369.454 158.044C369.806 157.311 370.319 156.519 370.994 155.668C371.669 154.817 372.387 154.055 373.15 153.38C373.913 152.676 374.602 152.236 375.218 152.06C375.453 151.943 375.863 151.811 376.45 151.664C377.037 151.488 377.594 151.473 378.122 151.62C378.621 151.679 379.002 151.796 379.266 151.972C379.53 152.119 379.955 152.441 380.542 152.94C380.923 153.321 381.393 153.82 381.95 154.436C382.507 155.023 382.859 155.521 383.006 155.932C383.211 156.372 383.255 156.856 383.138 157.384C383.021 157.883 382.815 158.323 382.522 158.704C382.258 159.085 381.979 159.467 381.686 159.848C381.393 160.229 381.173 160.757 381.026 161.432C380.879 162.312 380.601 163.309 380.19 164.424C379.779 165.509 379.457 166.521 379.222 167.46L378.518 170.188C377.785 172.681 376.978 174.485 376.098 175.6C375.218 176.744 374.485 177.477 373.898 177.8ZM372.974 162.664C373.561 162.635 374.059 162.576 374.47 162.488C374.91 162.371 375.321 162.136 375.702 161.784C376.083 161.403 376.523 160.831 377.022 160.068C377.521 159.364 377.873 158.719 378.078 158.132C378.283 157.545 378.357 156.885 378.298 156.152C378.269 155.683 378.137 155.375 377.902 155.228C377.667 155.081 377.359 155.037 376.978 155.096C376.421 155.184 375.922 155.419 375.482 155.8C375.042 156.152 374.529 156.709 373.942 157.472C373.502 158.059 373.135 158.763 372.842 159.584C372.549 160.464 372.417 161.168 372.446 161.696C372.505 162.224 372.681 162.547 372.974 162.664ZM387.021 180.308C386.376 180.425 385.936 180.44 385.701 180.352C385.467 180.264 385.144 180.117 384.733 179.912C384.411 179.677 384.176 179.501 384.029 179.384C383.883 179.267 383.78 179.149 383.721 179.032C383.428 178.416 383.384 177.961 383.589 177.668C383.795 177.375 384.088 177.184 384.469 177.096C384.88 177.037 385.232 177.008 385.525 177.008C385.731 177.125 386.068 177.184 386.537 177.184C387.036 177.184 387.344 177.125 387.461 177.008C387.461 177.008 387.593 176.92 387.857 176.744C388.151 176.597 388.532 176.48 389.001 176.392C389.911 175.952 390.629 175.497 391.157 175.028C391.685 174.588 392.272 173.825 392.917 172.74C393.181 172.329 393.46 171.845 393.753 171.288C394.047 170.76 394.252 170.232 394.369 169.704C394.604 169.117 394.868 168.325 395.161 167.328C395.484 166.331 395.763 165.348 395.997 164.38C396.232 163.383 396.364 162.635 396.393 162.136C396.569 160.493 396.907 158.909 397.405 157.384C397.904 155.829 398.3 154.187 398.593 152.456C398.769 152.045 398.901 151.811 398.989 151.752C399.077 151.664 399.268 151.62 399.561 151.62C399.884 151.62 400.265 151.723 400.705 151.928C401.145 152.104 401.468 152.353 401.673 152.676C401.967 153.233 402.099 153.893 402.069 154.656C402.069 155.389 401.879 156.035 401.497 156.592C401.204 157.003 400.94 157.648 400.705 158.528C400.5 159.379 400.295 160.449 400.089 161.74C399.943 162.385 399.781 163.148 399.605 164.028C399.459 164.879 399.297 165.832 399.121 166.888C399.004 167.181 398.843 167.636 398.637 168.252C398.432 168.839 398.3 169.308 398.241 169.66C398.212 169.777 398.124 170.012 397.977 170.364C397.831 170.716 397.684 171.053 397.537 171.376C397.391 171.728 397.288 171.963 397.229 172.08C395.821 174.925 394.193 176.979 392.345 178.24C390.527 179.501 388.752 180.191 387.021 180.308ZM390.717 167.856C390.395 167.856 390.057 167.68 389.705 167.328C389.383 166.976 389.163 166.697 389.045 166.492C388.928 166.199 388.708 165.92 388.385 165.656C388.063 165.392 387.784 165.069 387.549 164.688C387.315 164.307 387.256 163.837 387.373 163.28C387.491 162.899 387.667 162.327 387.901 161.564C388.136 160.772 388.415 159.907 388.737 158.968C389.06 158 389.383 157.047 389.705 156.108C390.057 155.169 390.38 154.333 390.673 153.6C390.967 152.867 391.216 152.353 391.421 152.06C391.597 151.825 391.876 151.649 392.257 151.532C392.639 151.415 393.02 151.385 393.401 151.444C393.783 151.503 394.061 151.679 394.237 151.972C394.56 152.383 394.736 152.793 394.765 153.204C394.824 153.585 394.619 154.201 394.149 155.052C394.032 155.375 393.885 155.727 393.709 156.108C393.533 156.46 393.445 156.695 393.445 156.812C393.416 156.871 393.357 157.076 393.269 157.428C393.211 157.751 393.137 158.059 393.049 158.352C392.961 158.645 392.873 158.792 392.785 158.792C392.668 158.909 392.536 159.217 392.389 159.716C392.272 160.215 392.155 160.772 392.037 161.388C391.949 161.975 391.891 162.503 391.861 162.972C391.832 163.412 391.876 163.632 391.993 163.632C392.903 163.632 393.783 163.353 394.633 162.796C395.484 162.209 396.408 161.241 397.405 159.892L397.801 164.028C397.391 164.233 397.009 164.453 396.657 164.688C396.305 164.893 395.983 165.143 395.689 165.436C395.601 165.553 395.396 165.715 395.073 165.92C394.751 166.125 394.428 166.316 394.105 166.492C393.812 166.639 393.621 166.712 393.533 166.712C393.533 166.712 393.489 166.727 393.401 166.756C393.343 166.756 393.313 166.815 393.313 166.932C393.313 166.991 393.123 167.108 392.741 167.284C392.36 167.431 391.964 167.563 391.553 167.68C391.143 167.797 390.864 167.856 390.717 167.856ZM425.214 171.64C423.776 171.611 422.852 171.2 422.442 170.408C422.06 169.645 421.958 168.677 422.134 167.504C422.31 166.947 422.412 166.448 422.442 166.008C422.5 165.539 422.632 165.245 422.838 165.128C422.838 165.128 422.852 165.084 422.882 164.996C422.94 164.908 422.926 164.82 422.838 164.732C422.838 164.351 422.97 163.823 423.234 163.148C423.292 162.972 423.366 162.767 423.454 162.532C423.571 162.268 423.63 162.136 423.63 162.136C423.483 161.901 423.483 161.711 423.63 161.564C423.776 161.417 423.923 161.285 424.07 161.168C424.246 161.021 424.26 160.86 424.114 160.684C424.055 160.567 424.128 160.303 424.334 159.892C424.539 159.452 424.774 158.997 425.038 158.528C425.302 158.059 425.478 157.692 425.566 157.428C425.566 157.369 425.639 157.164 425.786 156.812C425.932 156.46 426.108 156.049 426.314 155.58C426.519 155.111 426.71 154.685 426.886 154.304C427.091 153.923 427.223 153.673 427.282 153.556C427.575 153.409 427.458 153.307 426.93 153.248C426.402 153.189 425.844 153.175 425.258 153.204C424.348 153.175 423.615 153.131 423.058 153.072C422.53 153.013 422.09 152.881 421.738 152.676C421.386 152.265 421.342 151.781 421.606 151.224C421.87 150.637 422.295 150.329 422.882 150.3C423.263 150.271 423.556 150.256 423.762 150.256C423.996 150.256 424.29 150.241 424.642 150.212C425.023 150.153 425.61 150.08 426.402 149.992L428.646 149.816L428.778 149.068C429.012 148.687 429.174 148.437 429.262 148.32C429.35 148.203 429.408 148.085 429.438 147.968C429.467 147.821 429.511 147.572 429.57 147.22C429.57 147.22 429.702 146.985 429.966 146.516C430.23 146.017 430.391 145.504 430.45 144.976C430.802 144.389 431.11 143.861 431.374 143.392C431.638 142.893 431.799 142.585 431.858 142.468C432.356 141.735 432.84 141.339 433.31 141.28C433.808 141.221 434.278 141.339 434.718 141.632C434.982 141.779 435.231 141.969 435.466 142.204C435.7 142.409 435.847 142.688 435.906 143.04C435.964 143.363 435.832 143.788 435.51 144.316C435.451 144.433 435.363 144.653 435.246 144.976C435.128 145.269 435.04 145.519 434.982 145.724C434.806 145.929 434.586 146.267 434.322 146.736C434.087 147.176 433.926 147.631 433.838 148.1C433.603 148.599 433.456 148.907 433.398 149.024C433.339 149.141 433.251 149.2 433.134 149.2C433.192 149.493 433.368 149.64 433.662 149.64C433.955 149.611 434.439 149.581 435.114 149.552C435.671 149.493 436.052 149.435 436.258 149.376C436.492 149.288 436.756 149.317 437.05 149.464C437.196 149.669 437.27 149.977 437.27 150.388C437.299 150.769 437.255 151.151 437.138 151.532C437.02 151.884 436.859 152.104 436.654 152.192C436.507 152.192 436.199 152.28 435.73 152.456C435.29 152.603 434.732 152.691 434.058 152.72L431.726 152.94L430.978 154.436C430.772 154.817 430.596 155.169 430.45 155.492C430.303 155.785 430.2 155.961 430.142 156.02C430.142 156.196 430.039 156.46 429.834 156.812C429.658 157.164 429.467 157.545 429.262 157.956C429.086 158.455 428.88 158.909 428.646 159.32C428.44 159.731 428.338 159.936 428.338 159.936C428.22 159.936 428.162 160.024 428.162 160.2C428.308 160.552 428.264 160.816 428.03 160.992C427.883 161.08 427.751 161.212 427.634 161.388C427.546 161.535 427.502 161.608 427.502 161.608C427.619 161.725 427.634 161.872 427.546 162.048C427.487 162.224 427.399 162.415 427.282 162.62C427.282 162.855 427.208 163.192 427.062 163.632C426.944 164.072 426.812 164.483 426.666 164.864C426.695 165.392 426.724 165.729 426.754 165.876C426.783 166.023 426.856 166.081 426.974 166.052C427.12 166.081 427.326 166.081 427.59 166.052C427.854 166.023 428.044 166.008 428.162 166.008C428.602 165.803 428.396 166.829 427.546 169.088C427.076 169.821 426.607 170.423 426.138 170.892C425.668 171.391 425.36 171.64 425.214 171.64ZM442.2 168.692C441.819 168.692 441.511 168.619 441.276 168.472C441.071 168.325 440.807 168.12 440.484 167.856C439.927 167.269 439.472 166.639 439.12 165.964C438.797 165.289 438.68 164.703 438.768 164.204C438.856 163.969 438.885 163.749 438.856 163.544C438.856 163.309 438.856 163.192 438.856 163.192C438.709 163.045 438.665 162.957 438.724 162.928C438.783 162.869 438.841 162.781 438.9 162.664C439.076 162.664 439.135 162.503 439.076 162.18C439.017 161.945 439.105 161.447 439.34 160.684C439.604 159.892 439.956 159.144 440.396 158.44C440.572 158.147 440.836 157.765 441.188 157.296C441.54 156.797 441.921 156.313 442.332 155.844C442.772 155.345 443.168 154.949 443.52 154.656C444.253 154.04 444.928 153.541 445.544 153.16C446.189 152.779 446.835 152.515 447.48 152.368C448.125 152.221 448.785 152.148 449.46 152.148C450.164 152.148 450.736 152.383 451.176 152.852C451.851 153.145 452.32 153.541 452.584 154.04C452.877 154.539 453.068 155.184 453.156 155.976C453.244 156.856 453.156 157.941 452.892 159.232C452.628 160.493 451.909 161.96 450.736 163.632C450.003 164.688 449.284 165.509 448.58 166.096C447.876 166.683 447.099 167.225 446.248 167.724C445.632 168.135 444.972 168.384 444.268 168.472C443.564 168.56 442.875 168.633 442.2 168.692ZM446.688 163.324C447.333 162.767 447.788 162.151 448.052 161.476C448.345 160.801 448.653 160.009 448.976 159.1C449.093 158.924 449.167 158.631 449.196 158.22C449.255 157.809 449.269 157.413 449.24 157.032C449.211 156.621 449.108 156.387 448.932 156.328C448.668 156.123 448.404 156.079 448.14 156.196C447.876 156.284 447.539 156.475 447.128 156.768C446.248 157.501 445.427 158.352 444.664 159.32C443.931 160.259 443.417 161.417 443.124 162.796C443.036 163.529 443.109 164.087 443.344 164.468C443.608 164.82 444.019 164.923 444.576 164.776C445.163 164.6 445.867 164.116 446.688 163.324ZM478.962 170.716C478.052 170.657 477.143 170.32 476.234 169.704C475.324 169.117 474.488 168.56 473.726 168.032C473.227 167.533 472.846 167.005 472.582 166.448C472.318 165.861 472.098 165.099 471.922 164.16C471.804 163.603 471.804 162.869 471.922 161.96C472.039 161.051 472.23 160.141 472.494 159.232C472.758 158.293 473.007 157.56 473.242 157.032C473.594 156.211 474.034 155.331 474.562 154.392C475.119 153.424 475.662 152.515 476.19 151.664C476.747 150.784 477.187 150.08 477.51 149.552C477.715 149.347 477.803 149.244 477.774 149.244C477.774 149.215 477.774 149.2 477.774 149.2C477.774 149.053 477.92 148.687 478.214 148.1C478.536 147.484 478.815 146.941 479.05 146.472C479.49 146.003 479.739 145.621 479.798 145.328C479.856 145.035 479.812 144.8 479.666 144.624C479.607 144.507 479.724 144.257 480.018 143.876C480.34 143.495 480.78 143.069 481.338 142.6C481.895 142.101 482.511 141.661 483.186 141.28C483.89 140.723 484.564 140.429 485.21 140.4C485.884 140.341 486.28 140.473 486.398 140.796C486.398 140.884 486.559 140.913 486.882 140.884C487.234 140.825 487.63 140.752 488.07 140.664C488.539 140.547 488.95 140.459 489.302 140.4C489.448 140.224 489.786 140.092 490.314 140.004C490.871 139.887 491.516 139.784 492.25 139.696C492.631 139.725 493.056 139.74 493.526 139.74C493.995 139.711 494.406 139.681 494.758 139.652C495.139 139.623 495.33 139.608 495.33 139.608C495.535 139.549 495.828 139.681 496.21 140.004C496.62 140.297 496.943 140.708 497.178 141.236C497.383 141.764 497.207 142.219 496.65 142.6C496.092 142.981 495.212 143.245 494.01 143.392C493.13 143.509 492.44 143.612 491.942 143.7C491.472 143.759 490.959 143.847 490.402 143.964C489.874 144.052 489.096 144.213 488.07 144.448C487.336 144.595 486.72 144.712 486.222 144.8C485.723 144.888 485.283 145.064 484.902 145.328C484.55 145.592 484.154 146.061 483.714 146.736C483.508 146.883 483.244 147.264 482.922 147.88C482.599 148.496 482.276 149.112 481.954 149.728C481.132 150.872 480.516 151.723 480.106 152.28C479.724 152.808 479.592 153.145 479.71 153.292C479.71 153.292 479.915 153.336 480.326 153.424C480.736 153.512 481 153.556 481.118 153.556C481.411 153.409 481.763 153.307 482.174 153.248C482.614 153.189 482.966 153.131 483.23 153.072C485.048 152.603 486.383 152.265 487.234 152.06C488.114 151.825 488.73 151.664 489.082 151.576C489.463 151.488 489.8 151.429 490.094 151.4C490.504 151.077 490.915 151.107 491.326 151.488C491.766 151.84 492.074 152.265 492.25 152.764C492.455 153.351 492.455 153.805 492.25 154.128C492.044 154.451 491.59 154.715 490.886 154.92C490.211 155.125 489.243 155.375 487.982 155.668C486.72 155.932 485.136 156.328 483.23 156.856C481.616 157.325 480.311 157.604 479.314 157.692C478.316 157.78 477.847 157.531 477.906 156.944C477.7 156.827 477.466 156.944 477.202 157.296C476.967 157.619 476.747 158.073 476.542 158.66C476.336 159.247 476.146 159.877 475.97 160.552C475.823 161.227 475.735 161.857 475.706 162.444C475.676 163.031 475.72 163.485 475.838 163.808C476.072 164.483 476.439 165.069 476.938 165.568C477.466 166.037 478.228 166.419 479.226 166.712C479.812 166.741 480.384 166.785 480.942 166.844C481.499 166.903 482.13 166.785 482.834 166.492C484.564 166.199 485.767 165.891 486.442 165.568C487.116 165.245 487.527 165.025 487.674 164.908C487.908 164.791 488.055 164.673 488.114 164.556C488.202 164.439 488.319 164.38 488.466 164.38C488.378 164.527 488.407 164.527 488.554 164.38C488.7 164.233 488.935 164.028 489.258 163.764C489.874 163.236 490.49 162.913 491.106 162.796C491.722 162.679 492.235 162.679 492.646 162.796C493.056 162.884 493.276 163.001 493.306 163.148C493.482 163.441 493.394 163.911 493.042 164.556C492.69 165.172 492.147 165.832 491.414 166.536C490.71 167.24 489.874 167.871 488.906 168.428C487.351 169.249 485.664 169.821 483.846 170.144C482.027 170.496 480.399 170.687 478.962 170.716ZM501.718 169.484C501.16 169.631 500.662 169.469 500.222 169C499.782 168.56 499.474 167.9 499.298 167.02C499.122 166.14 499.151 165.157 499.386 164.072C499.532 163.72 499.65 163.383 499.738 163.06C499.826 162.708 499.87 162.429 499.87 162.224C499.928 161.931 500.046 161.505 500.222 160.948C500.398 160.361 500.588 159.76 500.794 159.144C500.999 158.528 501.19 157.985 501.366 157.516C501.571 157.017 501.703 156.709 501.762 156.592C501.879 156.592 501.982 156.489 502.07 156.284C502.158 156.079 502.202 155.873 502.202 155.668C502.202 155.433 502.246 155.169 502.334 154.876C502.451 154.583 502.568 154.377 502.686 154.26C502.686 154.113 502.715 153.952 502.774 153.776C502.862 153.571 502.906 153.409 502.906 153.292C502.906 153.175 502.935 153.057 502.994 152.94C503.082 152.823 503.126 152.705 503.126 152.588C503.331 152.207 503.595 151.605 503.918 150.784C504.27 149.933 504.636 148.995 505.018 147.968C505.428 146.941 505.81 145.929 506.162 144.932C506.514 143.935 506.792 143.099 506.998 142.424C507.232 141.72 507.35 141.295 507.35 141.148C507.35 140.913 507.438 140.693 507.614 140.488C507.79 140.283 507.995 140.18 508.23 140.18C508.318 140.092 508.523 140.033 508.846 140.004C509.168 139.945 509.388 139.916 509.506 139.916C509.506 139.916 509.564 139.975 509.682 140.092C509.799 140.209 509.975 140.385 510.21 140.62C510.444 140.825 510.664 141.06 510.87 141.324C511.104 141.588 511.222 141.896 511.222 142.248C511.222 142.629 511.163 142.996 511.046 143.348C510.958 143.7 510.782 144.184 510.518 144.8C510.254 145.387 509.843 146.267 509.286 147.44C509.051 148.027 508.802 148.584 508.538 149.112C508.274 149.611 508.142 149.919 508.142 150.036C508.142 150.153 508.083 150.329 507.966 150.564C507.878 150.799 507.775 151.092 507.658 151.444C507.54 151.679 507.379 152.031 507.174 152.5C506.968 152.94 506.748 153.424 506.514 153.952C506.308 154.451 506.132 154.891 505.986 155.272C505.839 155.624 505.766 155.829 505.766 155.888C505.766 156.005 505.751 156.123 505.722 156.24C505.722 156.357 505.663 156.475 505.546 156.592C505.428 156.592 505.355 156.68 505.326 156.856C505.326 157.003 505.326 157.076 505.326 157.076C505.326 157.369 505.091 158.147 504.622 159.408C504.152 161.021 503.712 162.503 503.302 163.852C502.92 165.201 502.73 166.287 502.73 167.108C502.73 167.812 502.612 168.355 502.378 168.736C502.172 169.117 501.952 169.367 501.718 169.484ZM515.654 169.792C514.041 169.792 512.794 169.323 511.914 168.384C511.063 167.445 510.638 166.008 510.638 164.072C510.638 163.016 510.829 161.857 511.21 160.596C511.621 159.335 512.149 158.103 512.794 156.9C513.469 155.697 514.202 154.656 514.994 153.776C515.786 152.867 516.578 152.236 517.37 151.884C517.663 151.737 517.971 151.635 518.294 151.576C518.646 151.488 518.983 151.444 519.306 151.444C519.658 151.444 520.039 151.473 520.45 151.532C520.89 151.561 521.301 151.649 521.682 151.796C522.357 152.001 522.943 152.397 523.442 152.984C523.97 153.571 524.234 154.421 524.234 155.536C524.234 155.829 524.205 156.152 524.146 156.504C524.087 156.827 523.985 157.149 523.838 157.472C523.457 158.44 522.87 159.364 522.078 160.244C521.315 161.124 520.509 161.74 519.658 162.092C519.423 162.209 519.189 162.297 518.954 162.356C518.749 162.385 518.529 162.4 518.294 162.4C517.678 162.4 517.121 162.312 516.622 162.136C516.153 161.96 515.713 161.725 515.302 161.432L514.95 161.124L514.73 161.564C514.525 162.121 514.378 162.591 514.29 162.972C514.231 163.353 514.202 163.632 514.202 163.808C514.202 164.16 514.217 164.527 514.246 164.908C514.275 165.26 514.363 165.553 514.51 165.788C514.627 165.935 514.774 166.052 514.95 166.14C515.155 166.228 515.405 166.272 515.698 166.272C515.874 166.272 516.035 166.272 516.182 166.272C516.358 166.243 516.505 166.213 516.622 166.184C517.15 166.067 517.575 165.876 517.898 165.612C518.25 165.319 518.617 165.069 518.998 164.864L519.174 164.776L519.13 164.644C519.629 164.38 519.966 164.219 520.142 164.16C520.318 164.072 520.45 163.999 520.538 163.94C520.655 163.823 520.787 163.764 520.934 163.764C521.345 163.705 521.741 163.823 522.122 164.116C522.533 164.38 522.738 164.717 522.738 165.128C522.738 165.304 522.606 165.583 522.342 165.964C522.107 166.345 521.799 166.727 521.418 167.108C521.066 167.46 520.699 167.739 520.318 167.944C520.23 167.973 520.142 168.017 520.054 168.076C519.966 168.105 519.878 168.149 519.79 168.208H519.834C519.57 168.56 519.306 168.736 519.042 168.736H518.69C518.573 168.941 518.191 169.161 517.546 169.396C516.901 169.66 516.27 169.792 515.654 169.792ZM517.942 159.188C518.206 159.188 518.441 159.144 518.646 159.056C518.881 158.968 519.101 158.865 519.306 158.748C520.01 158.249 520.465 157.604 520.67 156.812C520.875 156.02 520.802 155.419 520.45 155.008C520.391 154.92 520.318 154.861 520.23 154.832C520.142 154.773 520.039 154.744 519.922 154.744C519.599 154.744 519.233 154.847 518.822 155.052C518.441 155.257 518.059 155.551 517.678 155.932C517.297 156.313 516.945 156.768 516.622 157.296L516.05 158.22C516.109 158.191 516.153 158.176 516.182 158.176C516.241 158.147 516.285 158.132 516.314 158.132C516.578 158.132 516.754 158.22 516.842 158.396C516.93 158.572 517.033 158.748 517.15 158.924C517.297 159.1 517.561 159.188 517.942 159.188ZM533.297 168.648C532.652 168.648 532.168 168.619 531.845 168.56C531.552 168.501 531.332 168.413 531.185 168.296C531.039 168.179 530.848 168.017 530.613 167.812C530.496 167.577 530.291 167.284 529.997 166.932C529.704 166.551 529.499 166.301 529.381 166.184C529.264 165.744 529.22 165.143 529.249 164.38C529.308 163.617 529.44 162.796 529.645 161.916C529.851 161.036 530.1 160.244 530.393 159.54C530.511 159.305 530.613 159.071 530.701 158.836C530.789 158.601 530.833 158.484 530.833 158.484C530.833 158.337 531.009 157.985 531.361 157.428C531.743 156.871 532.153 156.284 532.593 155.668C533.063 155.052 533.444 154.612 533.737 154.348C533.943 154.113 534.251 153.864 534.661 153.6C535.101 153.336 535.483 153.145 535.805 153.028C536.128 152.911 536.568 152.764 537.125 152.588C537.683 152.383 538.181 152.28 538.621 152.28C539.032 152.28 539.472 152.368 539.941 152.544C540.411 152.72 540.807 153.028 541.129 153.468C541.657 153.996 541.995 154.627 542.141 155.36C542.288 156.093 542.303 156.724 542.185 157.252C542.039 157.839 541.745 158.323 541.305 158.704C540.865 159.056 540.396 159.247 539.897 159.276C539.399 159.276 538.959 159.071 538.577 158.66C538.46 158.425 538.401 158.235 538.401 158.088C538.401 157.912 538.46 157.663 538.577 157.34C538.695 156.929 538.753 156.563 538.753 156.24C538.753 155.917 538.621 155.756 538.357 155.756C537.976 155.756 537.668 155.873 537.433 156.108C537.199 156.313 536.847 156.665 536.377 157.164C536.172 157.399 535.908 157.736 535.585 158.176C535.263 158.616 534.94 159.1 534.617 159.628C534.324 160.127 534.06 160.64 533.825 161.168C533.503 162.136 533.297 162.767 533.209 163.06C533.151 163.324 533.121 163.456 533.121 163.456C533.121 163.573 533.107 163.691 533.077 163.808C533.048 163.896 533.033 163.999 533.033 164.116C533.033 164.468 533.239 164.747 533.649 164.952C533.972 165.157 534.236 165.26 534.441 165.26C534.676 165.231 535.116 165.069 535.761 164.776C536.231 164.541 536.671 164.233 537.081 163.852C537.521 163.471 537.976 163.133 538.445 162.84C538.768 162.635 539.017 162.459 539.193 162.312C539.399 162.165 539.501 162.151 539.501 162.268C539.501 162.385 539.545 162.444 539.633 162.444C539.721 162.444 539.824 162.385 539.941 162.268C540.117 162.033 540.337 161.945 540.601 162.004C540.865 162.033 541.1 162.107 541.305 162.224C541.54 162.341 541.657 162.444 541.657 162.532C541.599 162.796 541.657 163.016 541.833 163.192C541.833 163.309 541.789 163.471 541.701 163.676C541.643 163.852 541.555 163.999 541.437 164.116C541.291 164.321 541.071 164.615 540.777 164.996C540.513 165.377 540.264 165.715 540.029 166.008C539.795 166.301 539.677 166.448 539.677 166.448C539.56 166.419 539.443 166.448 539.325 166.536C539.237 166.624 539.135 166.727 539.017 166.844C538.783 167.049 538.563 167.211 538.357 167.328C538.152 167.416 537.991 167.46 537.873 167.46C537.668 167.577 537.507 167.651 537.389 167.68C537.301 167.709 537.257 167.783 537.257 167.9C536.964 168.193 536.436 168.399 535.673 168.516C534.911 168.604 534.119 168.648 533.297 168.648ZM552.893 171.64C551.455 171.611 550.531 171.2 550.121 170.408C549.739 169.645 549.637 168.677 549.813 167.504C549.989 166.947 550.091 166.448 550.121 166.008C550.179 165.539 550.311 165.245 550.517 165.128C550.517 165.128 550.531 165.084 550.561 164.996C550.619 164.908 550.605 164.82 550.517 164.732C550.517 164.351 550.649 163.823 550.913 163.148C550.971 162.972 551.045 162.767 551.133 162.532C551.25 162.268 551.309 162.136 551.309 162.136C551.162 161.901 551.162 161.711 551.309 161.564C551.455 161.417 551.602 161.285 551.749 161.168C551.925 161.021 551.939 160.86 551.793 160.684C551.734 160.567 551.807 160.303 552.013 159.892C552.218 159.452 552.453 158.997 552.717 158.528C552.981 158.059 553.157 157.692 553.245 157.428C553.245 157.369 553.318 157.164 553.465 156.812C553.611 156.46 553.787 156.049 553.993 155.58C554.198 155.111 554.389 154.685 554.565 154.304C554.77 153.923 554.902 153.673 554.961 153.556C555.254 153.409 555.137 153.307 554.609 153.248C554.081 153.189 553.523 153.175 552.937 153.204C552.027 153.175 551.294 153.131 550.737 153.072C550.209 153.013 549.769 152.881 549.417 152.676C549.065 152.265 549.021 151.781 549.285 151.224C549.549 150.637 549.974 150.329 550.561 150.3C550.942 150.271 551.235 150.256 551.441 150.256C551.675 150.256 551.969 150.241 552.321 150.212C552.702 150.153 553.289 150.08 554.081 149.992L556.325 149.816L556.457 149.068C556.691 148.687 556.853 148.437 556.941 148.32C557.029 148.203 557.087 148.085 557.117 147.968C557.146 147.821 557.19 147.572 557.249 147.22C557.249 147.22 557.381 146.985 557.645 146.516C557.909 146.017 558.07 145.504 558.129 144.976C558.481 144.389 558.789 143.861 559.053 143.392C559.317 142.893 559.478 142.585 559.537 142.468C560.035 141.735 560.519 141.339 560.989 141.28C561.487 141.221 561.957 141.339 562.397 141.632C562.661 141.779 562.91 141.969 563.145 142.204C563.379 142.409 563.526 142.688 563.585 143.04C563.643 143.363 563.511 143.788 563.189 144.316C563.13 144.433 563.042 144.653 562.925 144.976C562.807 145.269 562.719 145.519 562.661 145.724C562.485 145.929 562.265 146.267 562.001 146.736C561.766 147.176 561.605 147.631 561.517 148.1C561.282 148.599 561.135 148.907 561.077 149.024C561.018 149.141 560.93 149.2 560.813 149.2C560.871 149.493 561.047 149.64 561.341 149.64C561.634 149.611 562.118 149.581 562.793 149.552C563.35 149.493 563.731 149.435 563.937 149.376C564.171 149.288 564.435 149.317 564.729 149.464C564.875 149.669 564.949 149.977 564.949 150.388C564.978 150.769 564.934 151.151 564.817 151.532C564.699 151.884 564.538 152.104 564.333 152.192C564.186 152.192 563.878 152.28 563.409 152.456C562.969 152.603 562.411 152.691 561.737 152.72L559.405 152.94L558.657 154.436C558.451 154.817 558.275 155.169 558.129 155.492C557.982 155.785 557.879 155.961 557.821 156.02C557.821 156.196 557.718 156.46 557.513 156.812C557.337 157.164 557.146 157.545 556.941 157.956C556.765 158.455 556.559 158.909 556.325 159.32C556.119 159.731 556.017 159.936 556.017 159.936C555.899 159.936 555.841 160.024 555.841 160.2C555.987 160.552 555.943 160.816 555.709 160.992C555.562 161.08 555.43 161.212 555.313 161.388C555.225 161.535 555.181 161.608 555.181 161.608C555.298 161.725 555.313 161.872 555.225 162.048C555.166 162.224 555.078 162.415 554.961 162.62C554.961 162.855 554.887 163.192 554.741 163.632C554.623 164.072 554.491 164.483 554.345 164.864C554.374 165.392 554.403 165.729 554.433 165.876C554.462 166.023 554.535 166.081 554.653 166.052C554.799 166.081 555.005 166.081 555.269 166.052C555.533 166.023 555.723 166.008 555.841 166.008C556.281 165.803 556.075 166.829 555.225 169.088C554.755 169.821 554.286 170.423 553.817 170.892C553.347 171.391 553.039 171.64 552.893 171.64ZM567.723 167.812C567.459 167.607 567.166 167.343 566.843 167.02C566.55 166.697 566.447 166.243 566.535 165.656C566.623 164.835 566.741 164.116 566.887 163.5C567.034 162.855 567.21 162.121 567.415 161.3C567.474 160.948 567.621 160.347 567.855 159.496C568.119 158.645 568.427 157.721 568.779 156.724C569.131 155.727 569.498 154.788 569.879 153.908C570.261 152.999 570.598 152.324 570.891 151.884C571.214 151.591 571.683 151.444 572.299 151.444C572.945 151.444 573.385 151.561 573.619 151.796C573.942 152.06 574.045 152.529 573.927 153.204C573.81 153.849 573.399 154.861 572.695 156.24C572.549 156.592 572.358 156.973 572.123 157.384C571.918 157.765 571.771 158.088 571.683 158.352C571.595 158.587 571.625 158.689 571.771 158.66C571.947 158.337 572.27 157.971 572.739 157.56C573.209 157.12 573.707 156.695 574.235 156.284C574.763 155.873 575.262 155.507 575.731 155.184C576.201 154.861 576.523 154.656 576.699 154.568C576.934 154.421 577.198 154.304 577.491 154.216C577.814 154.099 578.034 154.011 578.151 153.952C578.826 153.629 579.559 153.512 580.351 153.6C581.173 153.659 581.671 153.908 581.847 154.348C581.877 154.583 581.965 154.759 582.111 154.876C582.287 154.993 582.375 155.052 582.375 155.052C582.493 155.052 582.551 155.096 582.551 155.184C582.581 155.272 582.595 155.316 582.595 155.316C582.595 155.521 582.39 155.815 581.979 156.196C581.598 156.577 581.173 156.783 580.703 156.812C580.322 156.841 579.985 156.915 579.691 157.032C579.398 157.149 579.046 157.296 578.635 157.472C577.521 158.117 576.509 158.689 575.599 159.188C574.719 159.687 573.81 160.449 572.871 161.476C572.666 161.711 572.446 161.931 572.211 162.136C571.977 162.341 571.742 162.635 571.507 163.016C571.361 163.163 571.214 163.485 571.067 163.984C570.921 164.483 570.789 164.967 570.671 165.436C570.583 165.876 570.539 166.14 570.539 166.228C570.539 166.228 570.495 166.375 570.407 166.668C570.319 166.932 570.173 167.196 569.967 167.46C569.615 167.929 569.263 168.223 568.911 168.34C568.589 168.457 568.193 168.281 567.723 167.812ZM587.627 167.548C587.509 167.548 587.26 167.46 586.879 167.284C586.497 167.108 586.307 167.02 586.307 167.02C586.307 166.903 586.263 166.756 586.175 166.58C586.116 166.404 586.087 166.257 586.087 166.14C585.881 166.023 585.676 165.832 585.471 165.568C585.265 165.304 585.221 165.011 585.339 164.688C585.515 164.365 585.749 163.881 586.043 163.236C586.365 162.561 586.703 161.813 587.055 160.992C587.436 160.141 587.788 159.32 588.111 158.528C588.433 157.736 588.712 157.061 588.947 156.504C589.181 155.917 589.313 155.565 589.343 155.448C589.343 155.331 589.357 155.125 589.387 154.832C589.445 154.539 589.636 154.289 589.959 154.084C590.34 153.82 590.736 153.805 591.147 154.04C591.557 154.275 591.909 154.685 592.203 155.272C592.496 155.829 592.643 156.489 592.643 157.252C592.643 157.457 592.496 157.985 592.203 158.836C591.909 159.657 591.513 160.64 591.015 161.784C590.545 162.928 590.017 164.087 589.431 165.26C588.991 166.111 588.653 166.712 588.419 167.064C588.213 167.387 587.949 167.548 587.627 167.548ZM593.611 150.696C593.259 150.696 592.833 150.535 592.335 150.212C591.865 149.889 591.44 149.479 591.059 148.98C590.677 148.481 590.487 147.953 590.487 147.396C590.487 147.249 590.619 146.985 590.883 146.604C591.147 146.193 591.396 145.797 591.631 145.416C591.895 145.035 592.027 144.815 592.027 144.756C592.261 144.756 592.54 144.8 592.863 144.888C593.185 144.976 593.449 145.079 593.655 145.196C593.977 145.929 594.403 146.56 594.931 147.088C595.459 147.587 595.723 148.159 595.723 148.804C595.723 149.449 595.561 149.933 595.239 150.256C594.916 150.549 594.373 150.696 593.611 150.696ZM602.291 168.648C601.646 168.648 601.162 168.619 600.839 168.56C600.546 168.501 600.326 168.413 600.179 168.296C600.033 168.179 599.842 168.017 599.607 167.812C599.49 167.577 599.285 167.284 598.991 166.932C598.698 166.551 598.493 166.301 598.375 166.184C598.258 165.744 598.214 165.143 598.243 164.38C598.302 163.617 598.434 162.796 598.639 161.916C598.845 161.036 599.094 160.244 599.387 159.54C599.505 159.305 599.607 159.071 599.695 158.836C599.783 158.601 599.827 158.484 599.827 158.484C599.827 158.337 600.003 157.985 600.355 157.428C600.737 156.871 601.147 156.284 601.587 155.668C602.057 155.052 602.438 154.612 602.731 154.348C602.937 154.113 603.245 153.864 603.655 153.6C604.095 153.336 604.477 153.145 604.799 153.028C605.122 152.911 605.562 152.764 606.119 152.588C606.677 152.383 607.175 152.28 607.615 152.28C608.026 152.28 608.466 152.368 608.935 152.544C609.405 152.72 609.801 153.028 610.123 153.468C610.651 153.996 610.989 154.627 611.135 155.36C611.282 156.093 611.297 156.724 611.179 157.252C611.033 157.839 610.739 158.323 610.299 158.704C609.859 159.056 609.39 159.247 608.891 159.276C608.393 159.276 607.953 159.071 607.571 158.66C607.454 158.425 607.395 158.235 607.395 158.088C607.395 157.912 607.454 157.663 607.571 157.34C607.689 156.929 607.747 156.563 607.747 156.24C607.747 155.917 607.615 155.756 607.351 155.756C606.97 155.756 606.662 155.873 606.427 156.108C606.193 156.313 605.841 156.665 605.371 157.164C605.166 157.399 604.902 157.736 604.579 158.176C604.257 158.616 603.934 159.1 603.611 159.628C603.318 160.127 603.054 160.64 602.819 161.168C602.497 162.136 602.291 162.767 602.203 163.06C602.145 163.324 602.115 163.456 602.115 163.456C602.115 163.573 602.101 163.691 602.071 163.808C602.042 163.896 602.027 163.999 602.027 164.116C602.027 164.468 602.233 164.747 602.643 164.952C602.966 165.157 603.23 165.26 603.435 165.26C603.67 165.231 604.11 165.069 604.755 164.776C605.225 164.541 605.665 164.233 606.075 163.852C606.515 163.471 606.97 163.133 607.439 162.84C607.762 162.635 608.011 162.459 608.187 162.312C608.393 162.165 608.495 162.151 608.495 162.268C608.495 162.385 608.539 162.444 608.627 162.444C608.715 162.444 608.818 162.385 608.935 162.268C609.111 162.033 609.331 161.945 609.595 162.004C609.859 162.033 610.094 162.107 610.299 162.224C610.534 162.341 610.651 162.444 610.651 162.532C610.593 162.796 610.651 163.016 610.827 163.192C610.827 163.309 610.783 163.471 610.695 163.676C610.637 163.852 610.549 163.999 610.431 164.116C610.285 164.321 610.065 164.615 609.771 164.996C609.507 165.377 609.258 165.715 609.023 166.008C608.789 166.301 608.671 166.448 608.671 166.448C608.554 166.419 608.437 166.448 608.319 166.536C608.231 166.624 608.129 166.727 608.011 166.844C607.777 167.049 607.557 167.211 607.351 167.328C607.146 167.416 606.985 167.46 606.867 167.46C606.662 167.577 606.501 167.651 606.383 167.68C606.295 167.709 606.251 167.783 606.251 167.9C605.958 168.193 605.43 168.399 604.667 168.516C603.905 168.604 603.113 168.648 602.291 168.648ZM618.851 168.076C618.734 167.841 618.47 167.607 618.059 167.372C617.678 167.137 617.487 166.961 617.487 166.844C617.487 166.727 617.414 166.551 617.267 166.316C617.15 166.052 617.032 165.861 616.915 165.744C616.768 165.568 616.812 165.143 617.047 164.468C617.282 163.764 617.634 162.913 618.103 161.916C618.572 160.919 619.086 159.907 619.643 158.88C619.878 158.645 620.112 158.337 620.347 157.956C620.582 157.575 620.758 157.325 620.875 157.208C620.875 157.091 620.919 156.988 621.007 156.9C621.095 156.783 621.198 156.724 621.315 156.724L621.667 156.02C621.726 155.903 621.902 155.668 622.195 155.316C622.518 154.964 622.899 154.583 623.339 154.172C623.779 153.732 624.219 153.321 624.659 152.94C625.128 152.559 625.51 152.28 625.803 152.104C626.419 151.693 627.05 151.503 627.695 151.532C628.37 151.561 628.942 151.767 629.411 152.148C629.499 152.236 629.69 152.412 629.983 152.676C630.306 152.94 630.658 153.233 631.039 153.556C631.45 153.879 631.802 154.172 632.095 154.436L633.723 155.888L632.975 158.088C632.594 159.261 632.491 160.288 632.667 161.168C632.843 162.048 633.122 162.811 633.503 163.456C633.65 163.779 633.84 164.028 634.075 164.204C634.339 164.38 634.676 164.497 635.087 164.556C635.322 164.585 635.542 164.673 635.747 164.82C635.952 164.967 636.055 165.201 636.055 165.524C636.055 166.228 635.923 166.741 635.659 167.064C635.424 167.357 635.16 167.533 634.867 167.592C633.899 167.709 632.975 167.607 632.095 167.284C631.215 166.961 630.423 166.125 629.719 164.776C629.602 164.6 629.44 164.277 629.235 163.808C629.059 163.309 628.956 162.987 628.927 162.84C628.81 162.987 628.648 163.177 628.443 163.412C628.267 163.617 628.091 163.808 627.915 163.984C625.832 166.096 624.043 167.475 622.547 168.12C621.08 168.736 619.848 168.721 618.851 168.076ZM621.271 164.424C621.476 164.453 621.799 164.351 622.239 164.116C622.679 163.852 623.266 163.427 623.999 162.84C624.996 161.989 625.818 161.285 626.463 160.728C627.108 160.171 627.739 159.452 628.355 158.572L629.323 156.988C629.03 156.313 628.766 155.873 628.531 155.668C628.296 155.463 628.062 155.36 627.827 155.36C627.446 155.36 626.991 155.609 626.463 156.108C625.935 156.577 625.334 157.281 624.659 158.22C624.014 159.129 623.28 160.273 622.459 161.652C622.078 162.297 621.784 162.928 621.579 163.544C621.374 164.131 621.271 164.424 621.271 164.424ZM641.26 170.32C640.878 170.173 640.57 169.939 640.336 169.616C640.101 169.323 639.969 168.883 639.94 168.296C639.91 167.915 639.925 167.357 639.984 166.624C640.042 165.861 640.145 165.099 640.292 164.336C640.292 164.277 640.292 164.219 640.292 164.16C640.321 164.072 640.336 164.013 640.336 163.984C640.365 163.867 640.394 163.691 640.424 163.456C640.453 163.192 640.482 162.987 640.512 162.84C640.57 162.664 640.6 162.649 640.6 162.796L640.864 161.608C640.981 161.08 641.113 160.537 641.26 159.98C641.406 159.423 641.538 158.939 641.656 158.528C641.802 158.088 641.89 157.839 641.92 157.78C641.92 157.78 641.964 157.619 642.052 157.296C642.169 156.944 642.286 156.592 642.404 156.24C642.873 154.773 643.313 153.556 643.724 152.588C644.164 151.62 644.545 150.916 644.868 150.476C644.897 150.388 644.941 150.285 645 150.168C645.058 150.021 645.102 149.904 645.132 149.816C645.132 149.493 645.146 149.259 645.176 149.112C645.234 148.965 645.308 148.833 645.396 148.716C645.454 148.599 645.542 148.452 645.66 148.276C645.777 148.071 645.909 147.821 646.056 147.528L646.232 147.044C646.408 146.663 646.628 146.223 646.892 145.724C647.156 145.196 647.346 144.8 647.464 144.536C647.552 144.272 647.728 143.964 647.992 143.612C648.256 143.231 648.549 142.981 648.872 142.864L648.828 142.82C648.974 142.556 649.253 142.351 649.664 142.204C650.074 142.028 650.412 141.94 650.676 141.94C651.086 141.94 651.394 142.057 651.6 142.292C651.834 142.527 651.952 142.849 651.952 143.26C651.952 143.7 651.937 144.023 651.908 144.228C651.908 144.404 651.805 144.609 651.6 144.844H651.644C651.702 144.785 651.688 144.873 651.6 145.108C651.512 145.343 651.438 145.504 651.38 145.592C651.321 145.739 651.248 145.9 651.16 146.076C651.101 146.252 651.028 146.384 650.94 146.472C650.852 146.589 650.617 147 650.236 147.704C649.854 148.379 649.429 149.185 648.96 150.124C648.49 151.033 648.036 151.928 647.596 152.808C647.185 153.659 646.892 154.319 646.716 154.788L646.496 155.448C646.466 155.565 646.452 155.653 646.452 155.712C646.364 155.917 646.276 156.123 646.188 156.328C646.1 156.533 646.012 156.709 645.924 156.856L645.22 159.584L645.044 160.508L644.648 161.52L644.384 162.356C644.325 162.532 644.281 162.723 644.252 162.928C644.222 163.133 644.164 163.28 644.076 163.368C644.076 163.397 644.061 163.441 644.032 163.5C644.032 163.529 644.032 163.559 644.032 163.588C643.914 164.057 643.709 164.717 643.416 165.568C643.152 166.419 642.99 167.357 642.932 168.384C642.932 168.413 642.917 168.443 642.888 168.472C642.888 168.501 642.888 168.531 642.888 168.56C642.8 169.176 642.609 169.645 642.316 169.968C642.052 170.32 641.7 170.437 641.26 170.32ZM672.584 170.716C671.675 170.657 670.765 170.32 669.856 169.704C668.947 169.117 668.111 168.56 667.348 168.032C666.849 167.533 666.468 167.005 666.204 166.448C665.94 165.861 665.72 165.099 665.544 164.16C665.427 163.603 665.427 162.869 665.544 161.96C665.661 161.051 665.852 160.141 666.116 159.232C666.38 158.293 666.629 157.56 666.864 157.032C667.216 156.211 667.656 155.331 668.184 154.392C668.741 153.424 669.284 152.515 669.812 151.664C670.369 150.784 670.809 150.08 671.132 149.552C671.337 149.347 671.425 149.244 671.396 149.244C671.396 149.215 671.396 149.2 671.396 149.2C671.396 149.053 671.543 148.687 671.836 148.1C672.159 147.484 672.437 146.941 672.672 146.472C673.112 146.003 673.361 145.621 673.42 145.328C673.479 145.035 673.435 144.8 673.288 144.624C673.229 144.507 673.347 144.257 673.64 143.876C673.963 143.495 674.403 143.069 674.96 142.6C675.517 142.101 676.133 141.661 676.808 141.28C677.512 140.723 678.187 140.429 678.832 140.4C679.507 140.341 679.903 140.473 680.02 140.796C680.02 140.884 680.181 140.913 680.504 140.884C680.856 140.825 681.252 140.752 681.692 140.664C682.161 140.547 682.572 140.459 682.924 140.4C683.071 140.224 683.408 140.092 683.936 140.004C684.493 139.887 685.139 139.784 685.872 139.696C686.253 139.725 686.679 139.74 687.148 139.74C687.617 139.711 688.028 139.681 688.38 139.652C688.761 139.623 688.952 139.608 688.952 139.608C689.157 139.549 689.451 139.681 689.832 140.004C690.243 140.297 690.565 140.708 690.8 141.236C691.005 141.764 690.829 142.219 690.272 142.6C689.715 142.981 688.835 143.245 687.632 143.392C686.752 143.509 686.063 143.612 685.564 143.7C685.095 143.759 684.581 143.847 684.024 143.964C683.496 144.052 682.719 144.213 681.692 144.448C680.959 144.595 680.343 144.712 679.844 144.8C679.345 144.888 678.905 145.064 678.524 145.328C678.172 145.592 677.776 146.061 677.336 146.736C677.131 146.883 676.867 147.264 676.544 147.88C676.221 148.496 675.899 149.112 675.576 149.728C674.755 150.872 674.139 151.723 673.728 152.28C673.347 152.808 673.215 153.145 673.332 153.292C673.332 153.292 673.537 153.336 673.948 153.424C674.359 153.512 674.623 153.556 674.74 153.556C675.033 153.409 675.385 153.307 675.796 153.248C676.236 153.189 676.588 153.131 676.852 153.072C678.671 152.603 680.005 152.265 680.856 152.06C681.736 151.825 682.352 151.664 682.704 151.576C683.085 151.488 683.423 151.429 683.716 151.4C684.127 151.077 684.537 151.107 684.948 151.488C685.388 151.84 685.696 152.265 685.872 152.764C686.077 153.351 686.077 153.805 685.872 154.128C685.667 154.451 685.212 154.715 684.508 154.92C683.833 155.125 682.865 155.375 681.604 155.668C680.343 155.932 678.759 156.328 676.852 156.856C675.239 157.325 673.933 157.604 672.936 157.692C671.939 157.78 671.469 157.531 671.528 156.944C671.323 156.827 671.088 156.944 670.824 157.296C670.589 157.619 670.369 158.073 670.164 158.66C669.959 159.247 669.768 159.877 669.592 160.552C669.445 161.227 669.357 161.857 669.328 162.444C669.299 163.031 669.343 163.485 669.46 163.808C669.695 164.483 670.061 165.069 670.56 165.568C671.088 166.037 671.851 166.419 672.848 166.712C673.435 166.741 674.007 166.785 674.564 166.844C675.121 166.903 675.752 166.785 676.456 166.492C678.187 166.199 679.389 165.891 680.064 165.568C680.739 165.245 681.149 165.025 681.296 164.908C681.531 164.791 681.677 164.673 681.736 164.556C681.824 164.439 681.941 164.38 682.088 164.38C682 164.527 682.029 164.527 682.176 164.38C682.323 164.233 682.557 164.028 682.88 163.764C683.496 163.236 684.112 162.913 684.728 162.796C685.344 162.679 685.857 162.679 686.268 162.796C686.679 162.884 686.899 163.001 686.928 163.148C687.104 163.441 687.016 163.911 686.664 164.556C686.312 165.172 685.769 165.832 685.036 166.536C684.332 167.24 683.496 167.871 682.528 168.428C680.973 169.249 679.287 169.821 677.468 170.144C675.649 170.496 674.021 170.687 672.584 170.716ZM708.584 167.944C707.939 167.885 707.396 167.753 706.956 167.548C706.545 167.313 706.208 166.859 705.944 166.184C705.827 165.715 705.768 165.231 705.768 164.732C705.797 164.204 705.841 163.705 705.9 163.236C705.959 162.737 705.988 162.312 705.988 161.96C705.988 161.901 705.988 161.784 705.988 161.608C705.988 161.432 705.988 161.271 705.988 161.124C705.929 160.684 705.812 160.42 705.636 160.332C705.489 160.215 705.225 160.229 704.844 160.376C704.228 160.669 703.553 161.065 702.82 161.564C702.116 162.033 701.368 162.591 700.576 163.236C699.813 163.852 699.021 164.512 698.2 165.216C697.555 165.92 697.071 166.492 696.748 166.932C696.455 167.372 696.147 167.592 695.824 167.592C695.589 167.709 695.34 167.68 695.076 167.504C694.812 167.328 694.533 167.123 694.24 166.888C694.035 166.653 693.785 166.36 693.492 166.008C693.228 165.627 693.067 165.377 693.008 165.26C693.008 164.791 693.037 164.365 693.096 163.984C693.184 163.603 693.301 163.207 693.448 162.796C693.624 162.385 693.829 161.916 694.064 161.388C694.181 161.183 694.284 160.977 694.372 160.772C694.489 160.537 694.621 160.288 694.768 160.024C694.885 159.613 695.047 159.144 695.252 158.616C695.487 158.088 695.707 157.589 695.912 157.12C696.235 156.357 696.484 155.697 696.66 155.14C696.836 154.583 696.983 153.981 697.1 153.336C697.071 153.277 697.085 153.189 697.144 153.072C697.203 152.955 697.291 152.881 697.408 152.852H697.452H697.496C697.701 152.705 698.083 152.691 698.64 152.808C699.227 152.896 699.667 153.057 699.96 153.292C700.576 153.82 700.869 154.509 700.84 155.36C700.811 156.211 700.371 157.325 699.52 158.704C699.315 159.173 699.095 159.613 698.86 160.024C698.655 160.405 698.552 160.669 698.552 160.816C698.552 160.816 698.669 160.728 698.904 160.552C699.139 160.376 699.417 160.171 699.74 159.936C700.063 159.672 700.341 159.467 700.576 159.32C700.723 159.173 701.045 158.909 701.544 158.528C702.043 158.117 702.585 157.692 703.172 157.252C703.759 156.812 704.228 156.475 704.58 156.24C704.903 156.005 705.313 155.771 705.812 155.536C706.311 155.272 706.619 155.14 706.736 155.14C707.029 155.14 707.381 155.243 707.792 155.448C708.232 155.653 708.628 155.903 708.98 156.196C709.361 156.46 709.581 156.709 709.64 156.944C709.64 157.061 709.625 157.223 709.596 157.428C709.567 157.604 709.552 157.765 709.552 157.912C709.523 158.381 709.508 158.953 709.508 159.628C709.537 160.273 709.552 160.933 709.552 161.608C709.552 162.253 709.493 162.84 709.376 163.368C709.376 163.368 709.391 163.397 709.42 163.456C709.449 163.485 709.479 163.544 709.508 163.632C709.479 163.661 709.464 163.72 709.464 163.808C709.493 163.867 709.508 163.896 709.508 163.896C709.567 164.101 709.625 164.307 709.684 164.512C709.772 164.717 709.875 164.952 709.992 165.216C710.109 165.451 710.241 165.759 710.388 166.14C710.359 166.521 710.139 166.903 709.728 167.284C709.347 167.636 708.965 167.856 708.584 167.944ZM721.651 169.792C720.038 169.792 718.791 169.323 717.911 168.384C717.061 167.445 716.635 166.008 716.635 164.072C716.635 163.016 716.826 161.857 717.207 160.596C717.618 159.335 718.146 158.103 718.791 156.9C719.466 155.697 720.199 154.656 720.991 153.776C721.783 152.867 722.575 152.236 723.367 151.884C723.661 151.737 723.969 151.635 724.291 151.576C724.643 151.488 724.981 151.444 725.303 151.444C725.655 151.444 726.037 151.473 726.447 151.532C726.887 151.561 727.298 151.649 727.679 151.796C728.354 152.001 728.941 152.397 729.439 152.984C729.967 153.571 730.231 154.421 730.231 155.536C730.231 155.829 730.202 156.152 730.143 156.504C730.085 156.827 729.982 157.149 729.835 157.472C729.454 158.44 728.867 159.364 728.075 160.244C727.313 161.124 726.506 161.74 725.655 162.092C725.421 162.209 725.186 162.297 724.951 162.356C724.746 162.385 724.526 162.4 724.291 162.4C723.675 162.4 723.118 162.312 722.619 162.136C722.15 161.96 721.71 161.725 721.299 161.432L720.947 161.124L720.727 161.564C720.522 162.121 720.375 162.591 720.287 162.972C720.229 163.353 720.199 163.632 720.199 163.808C720.199 164.16 720.214 164.527 720.243 164.908C720.273 165.26 720.361 165.553 720.507 165.788C720.625 165.935 720.771 166.052 720.947 166.14C721.153 166.228 721.402 166.272 721.695 166.272C721.871 166.272 722.033 166.272 722.179 166.272C722.355 166.243 722.502 166.213 722.619 166.184C723.147 166.067 723.573 165.876 723.895 165.612C724.247 165.319 724.614 165.069 724.995 164.864L725.171 164.776L725.127 164.644C725.626 164.38 725.963 164.219 726.139 164.16C726.315 164.072 726.447 163.999 726.535 163.94C726.653 163.823 726.785 163.764 726.931 163.764C727.342 163.705 727.738 163.823 728.119 164.116C728.53 164.38 728.735 164.717 728.735 165.128C728.735 165.304 728.603 165.583 728.339 165.964C728.105 166.345 727.797 166.727 727.415 167.108C727.063 167.46 726.697 167.739 726.315 167.944C726.227 167.973 726.139 168.017 726.051 168.076C725.963 168.105 725.875 168.149 725.787 168.208H725.831C725.567 168.56 725.303 168.736 725.039 168.736H724.687C724.57 168.941 724.189 169.161 723.543 169.396C722.898 169.66 722.267 169.792 721.651 169.792ZM723.939 159.188C724.203 159.188 724.438 159.144 724.643 159.056C724.878 158.968 725.098 158.865 725.303 158.748C726.007 158.249 726.462 157.604 726.667 156.812C726.873 156.02 726.799 155.419 726.447 155.008C726.389 154.92 726.315 154.861 726.227 154.832C726.139 154.773 726.037 154.744 725.919 154.744C725.597 154.744 725.23 154.847 724.819 155.052C724.438 155.257 724.057 155.551 723.675 155.932C723.294 156.313 722.942 156.768 722.619 157.296L722.047 158.22C722.106 158.191 722.15 158.176 722.179 158.176C722.238 158.147 722.282 158.132 722.311 158.132C722.575 158.132 722.751 158.22 722.839 158.396C722.927 158.572 723.03 158.748 723.147 158.924C723.294 159.1 723.558 159.188 723.939 159.188ZM738.943 168.076C738.855 168.105 738.664 168.091 738.371 168.032C738.107 167.973 737.828 167.9 737.535 167.812C737.271 167.724 737.109 167.651 737.051 167.592C736.933 167.475 736.772 167.269 736.567 166.976C736.361 166.653 736.244 166.228 736.215 165.7C736.215 165.172 736.464 164.541 736.963 163.808C737.109 163.515 737.285 163.075 737.491 162.488C737.696 161.901 737.901 161.285 738.107 160.64C738.341 159.965 738.547 159.364 738.723 158.836C738.928 158.308 739.075 157.941 739.163 157.736C739.221 157.237 739.192 156.885 739.075 156.68C738.987 156.445 738.737 156.313 738.327 156.284C738.033 156.284 737.799 156.181 737.623 155.976C737.476 155.771 737.403 155.404 737.403 154.876C737.461 154.465 737.564 154.113 737.711 153.82C737.887 153.497 738.121 153.233 738.415 153.028C738.708 152.881 739.075 152.779 739.515 152.72C739.984 152.661 740.439 152.647 740.879 152.676C741.319 152.705 741.627 152.808 741.803 152.984C742.008 153.101 742.169 153.365 742.287 153.776C742.433 154.157 742.551 154.553 742.639 154.964C742.727 155.375 742.785 155.683 742.815 155.888C743.108 155.653 743.431 155.331 743.783 154.92C744.164 154.48 744.545 154.069 744.927 153.688C745.396 153.365 745.953 153.043 746.599 152.72C747.244 152.368 747.713 152.192 748.007 152.192C748.329 152.192 748.725 152.353 749.195 152.676C749.664 152.969 749.957 153.233 750.075 153.468C750.368 153.967 750.573 154.495 750.691 155.052C750.837 155.58 750.749 156.049 750.427 156.46C750.133 156.841 749.723 157.223 749.195 157.604C748.667 157.956 748.007 158.059 747.215 157.912C747.039 157.853 746.848 157.633 746.643 157.252C746.467 156.871 746.364 156.592 746.335 156.416C746.335 156.328 746.203 156.416 745.939 156.68C745.704 156.915 745.411 157.208 745.059 157.56C744.736 157.912 744.428 158.235 744.135 158.528C743.636 159.144 743.108 159.98 742.551 161.036C741.993 162.092 741.333 163.368 740.571 164.864C740.219 165.597 739.925 166.301 739.691 166.976C739.456 167.621 739.207 167.988 738.943 168.076ZM760.562 177.668C760.034 177.932 759.345 177.991 758.494 177.844C757.673 177.697 756.851 177.404 756.03 176.964C755.238 176.553 754.593 176.069 754.094 175.512C753.83 175.219 753.595 174.867 753.39 174.456C753.185 174.045 753.053 173.649 752.994 173.268C752.935 172.916 753.009 172.681 753.214 172.564C753.478 172.388 753.786 172.3 754.138 172.3C754.519 172.3 754.842 172.344 755.106 172.432C755.399 172.52 755.546 172.623 755.546 172.74C755.869 173.033 756.177 173.283 756.47 173.488C756.793 173.723 757.101 173.899 757.394 174.016C757.805 174.192 758.171 174.221 758.494 174.104C758.846 174.016 759.169 173.825 759.462 173.532C759.697 173.209 759.902 172.799 760.078 172.3C760.283 171.831 760.445 171.288 760.562 170.672L760.694 170.1C761.017 168.633 761.325 167.255 761.618 165.964C761.941 164.644 762.205 163.691 762.41 163.104C762.351 163.104 762.278 163.119 762.19 163.148C762.102 163.177 762.014 163.221 761.926 163.28C761.75 163.368 761.574 163.456 761.398 163.544C761.222 163.632 761.046 163.72 760.87 163.808C760.489 164.013 760.151 164.175 759.858 164.292C759.565 164.38 759.301 164.453 759.066 164.512C758.685 164.629 758.406 164.673 758.23 164.644C758.054 164.615 757.907 164.6 757.79 164.6C757.497 164.6 757.115 164.512 756.646 164.336C756.177 164.131 755.781 163.881 755.458 163.588C755.194 163.324 755.003 163.06 754.886 162.796C754.769 162.503 754.695 162.195 754.666 161.872C754.637 161.549 754.622 161.227 754.622 160.904C754.622 160.464 754.857 159.687 755.326 158.572C755.795 157.428 756.485 156.313 757.394 155.228C757.951 154.671 758.685 154.113 759.594 153.556C760.503 152.999 761.427 152.529 762.366 152.148C763.334 151.737 764.126 151.532 764.742 151.532C764.859 151.532 764.991 151.547 765.138 151.576C765.314 151.605 765.475 151.679 765.622 151.796C766.121 151.913 766.619 152.192 767.118 152.632C767.617 153.043 768.057 153.585 768.438 154.26C768.673 154.729 768.863 155.228 769.01 155.756C769.186 156.284 769.274 156.841 769.274 157.428C769.274 157.897 769.186 158.308 769.01 158.66C768.863 158.983 768.717 159.173 768.57 159.232C768.511 159.291 768.438 159.335 768.35 159.364C768.262 159.364 768.159 159.379 768.042 159.408C767.983 159.408 767.866 159.437 767.69 159.496C767.514 159.584 767.338 159.745 767.162 159.98C767.015 160.185 766.869 160.552 766.722 161.08C766.693 161.227 766.663 161.373 766.634 161.52C766.605 161.667 766.561 161.813 766.502 161.96C766.502 161.989 766.458 162.063 766.37 162.18C766.311 162.268 766.267 162.385 766.238 162.532C766.209 162.737 766.15 162.913 766.062 163.06C766.003 163.177 765.945 163.309 765.886 163.456C765.857 163.573 765.842 163.676 765.842 163.764C765.842 163.823 765.842 163.881 765.842 163.94L765.666 164.424C765.578 164.717 765.49 164.981 765.402 165.216C765.343 165.451 765.314 165.597 765.314 165.656L765.138 166.536C765.079 166.859 765.006 167.181 764.918 167.504C764.859 167.827 764.801 168.135 764.742 168.428C764.683 168.721 764.61 169.015 764.522 169.308C763.877 171.889 763.217 173.84 762.542 175.16C761.897 176.48 761.237 177.316 760.562 177.668ZM757.966 160.596C758.025 161.241 758.567 161.52 759.594 161.432C760.621 161.315 761.765 160.699 763.026 159.584C763.525 159.173 763.965 158.704 764.346 158.176C764.757 157.648 765.035 157.105 765.182 156.548C765.329 156.079 765.358 155.756 765.27 155.58C765.211 155.375 764.962 155.257 764.522 155.228C763.935 155.228 763.334 155.36 762.718 155.624C762.131 155.859 761.501 156.196 760.826 156.636C760.445 157.164 760.122 157.501 759.858 157.648C759.594 157.795 759.418 157.868 759.33 157.868C759.271 157.839 759.301 157.853 759.418 157.912C759.359 158.029 759.301 158.132 759.242 158.22C759.183 158.308 759.125 158.396 759.066 158.484C758.89 158.777 758.714 159.027 758.538 159.232C758.362 159.437 758.215 159.643 758.098 159.848C758.01 160.053 757.966 160.303 757.966 160.596ZM773.729 178.152C772.673 178.357 771.661 178.387 770.693 178.24C769.725 178.123 768.919 177.873 768.273 177.492C767.599 177.111 767.188 176.685 767.041 176.216C766.865 175.541 766.953 175.043 767.305 174.72C767.657 174.397 768.083 174.207 768.581 174.148C769.051 174.089 769.359 174.148 769.505 174.324C769.74 174.471 770.107 174.691 770.605 174.984C771.133 175.277 771.779 175.351 772.541 175.204C773.216 175.057 773.817 174.735 774.345 174.236C774.873 173.737 775.343 173.209 775.753 172.652C775.988 172.3 776.384 171.669 776.941 170.76C777.499 169.851 778.071 168.853 778.657 167.768C779.273 166.653 779.787 165.627 780.197 164.688C780.285 164.453 780.388 164.175 780.505 163.852C780.623 163.529 780.769 163.265 780.945 163.06C781.121 162.708 781.268 162.385 781.385 162.092C781.532 161.769 781.62 161.549 781.649 161.432C781.679 161.285 781.811 160.992 782.045 160.552C782.28 160.112 782.5 159.672 782.705 159.232C782.852 158.792 783.072 158.147 783.365 157.296C783.659 156.445 783.952 155.756 784.245 155.228C784.597 154.553 784.876 154.011 785.081 153.6C785.316 153.16 785.565 152.896 785.829 152.808C786.093 152.603 786.343 152.5 786.577 152.5C786.812 152.5 787.091 152.588 787.413 152.764C787.765 153.116 788.044 153.468 788.249 153.82C788.484 154.143 788.572 154.553 788.513 155.052C788.484 155.521 788.249 156.167 787.809 156.988C787.575 157.692 787.311 158.337 787.017 158.924C786.753 159.481 786.548 159.848 786.401 160.024C786.255 160.376 786.079 160.772 785.873 161.212C785.697 161.623 785.536 162.004 785.389 162.356C784.861 163.529 784.407 164.483 784.025 165.216C783.644 165.949 783.307 166.624 783.013 167.24C782.72 167.856 782.412 168.575 782.089 169.396C781.415 170.481 780.755 171.508 780.109 172.476C779.493 173.473 778.833 174.397 778.129 175.248C777.836 175.512 777.411 175.849 776.853 176.26C776.325 176.7 775.768 177.096 775.181 177.448C774.624 177.829 774.14 178.064 773.729 178.152ZM779.229 168.208C778.789 168.149 778.305 167.856 777.777 167.328C777.279 166.8 776.853 166.243 776.501 165.656C776.179 165.069 776.047 164.659 776.105 164.424C776.105 164.277 776.105 164.16 776.105 164.072C776.105 163.984 776.105 163.94 776.105 163.94C775.929 163.94 775.783 163.691 775.665 163.192C775.577 162.664 775.504 162.004 775.445 161.212C775.416 160.42 775.401 159.599 775.401 158.748C775.431 157.897 775.475 157.12 775.533 156.416C775.651 155.917 775.709 155.375 775.709 154.788C775.709 154.172 775.724 153.688 775.753 153.336C775.724 152.867 775.812 152.485 776.017 152.192C776.252 151.899 776.428 151.708 776.545 151.62C777.631 151.151 778.423 151.4 778.921 152.368C779.42 153.336 779.596 154.876 779.449 156.988C779.391 158.161 779.361 159.291 779.361 160.376C779.361 161.432 779.464 162.341 779.669 163.104C779.875 163.867 780.227 164.409 780.725 164.732C780.931 164.849 781.004 165.099 780.945 165.48C780.887 165.861 780.755 166.272 780.549 166.712C780.344 167.123 780.109 167.489 779.845 167.812C779.611 168.105 779.405 168.237 779.229 168.208Z" fill="#B8C318"/>
</svg>
