<svg width="900" height="250" viewBox="0 0 900 250" fill="none" xmlns="http://www.w3.org/2000/svg">
<rect y="30" width="900" height="220" rx="60" fill="#E0E772"/>
<rect x="5.5" y="5.5" width="889" height="209" rx="54.5" fill="#FDFDFB" stroke="#B8C318" stroke-width="11"/>
<rect width="449" height="172" transform="translate(225 24)" fill="#FDFDFB"/>
<path d="M234.78 88.46L240.54 92C238.62 98.54 236.22 105.62 234 111.5L227.46 108.02C229.62 103.16 232.56 95.6 234.78 88.46ZM240.48 77.84L236.22 83.6C234.18 82.04 229.92 79.58 226.86 77.84L230.88 72.74C233.88 74.12 238.2 76.4 240.48 77.84ZM276.12 85.4V88.76H283.14V95.12H276.12V104.96C276.12 108.2 275.64 109.94 273.42 111.02C271.32 112.1 268.38 112.16 264.42 112.16C264.18 110.24 263.34 107.54 262.56 105.62C265.02 105.74 267.66 105.74 268.5 105.74C269.28 105.74 269.52 105.56 269.52 104.84V95.12H261.9V88.76H269.52V83.54C270.48 82.76 271.56 81.8 272.52 80.72H264.36V77.72C262.92 76.7 260.22 75.2 258.66 74.48C259.32 73.58 259.92 72.62 260.52 71.54H251.46C251.4 73.76 251.34 75.92 251.22 78.14H261.24C261.24 78.14 261.18 80.12 261.18 80.96C260.52 99.62 259.92 106.76 258.24 108.92C257.16 110.54 256.02 111.14 254.4 111.38C253.02 111.62 250.86 111.68 248.58 111.62C248.4 109.7 247.86 107 246.84 105.2C248.58 105.44 250.08 105.44 250.98 105.44C251.7 105.44 252.18 105.26 252.72 104.54C253.56 103.28 254.16 98.3 254.58 84.62H250.8C249.84 95.36 247.56 105.2 241.68 112.1C240.6 110.48 238.56 108.5 236.82 107.48C244.14 99.14 244.68 85.28 244.92 71.54H240.6V64.88L238.2 68.06C236.16 66.38 231.9 63.62 228.96 61.88L233.04 56.78C235.98 58.34 240.3 60.8 242.46 62.3L240.66 64.82H249.36C248.46 62.78 246.96 60.2 245.58 58.16L252.18 55.7C253.8 57.92 255.66 60.92 256.62 62.9L252.18 64.82H261.72V69.02C263.28 65.24 264.36 60.8 265.02 56.24L271.86 57.38C271.5 59.36 271.08 61.34 270.6 63.26H282.96V69.98H268.56C267.96 71.6 267.3 73.16 266.7 74.54H277.86L279.12 74.18L283.32 77.18C281.34 79.94 278.76 82.88 276.12 85.4ZM303.72 71L310.68 72.32C310.08 74.54 309.36 76.76 308.52 78.8C310.68 80.66 312.96 82.7 314.34 84.08L309.54 89.06C308.64 87.92 307.14 86.42 305.52 84.86C303.54 88.1 301.26 90.92 298.62 93.08C297.48 91.82 294.66 89.48 293.1 88.4C298.38 84.62 302.04 78.32 303.72 71ZM346.56 86.54L341.58 91.52C339.9 89.66 336.84 87.02 333.84 84.56C332.64 86.54 331.32 88.28 329.82 89.72C328.8 88.88 326.82 87.56 325.14 86.66C330.48 93.74 339.06 100.1 348.06 103.4C346.32 104.9 343.98 107.96 342.78 109.94C335.52 106.58 328.74 101.18 323.34 94.76V112.22H315.84V95.12C310.44 101.42 303.72 106.64 296.58 109.94C295.44 108.2 293.1 105.32 291.54 103.82C301.26 100.04 310.62 92.6 315.84 84.5V70.64H294V63.62H315.84V56.24H323.34V63.62H345.96V70.64H323.34V84.08C323.64 84.56 323.94 84.98 324.24 85.46C328.08 82.04 330.6 76.7 331.8 71L338.76 72.26C338.22 74.48 337.56 76.64 336.78 78.68C340.2 81.32 344.34 84.5 346.56 86.54ZM364.38 88.46L370.14 92C368.22 98.54 365.82 105.62 363.6 111.5L357.06 108.02C359.22 103.16 362.16 95.6 364.38 88.46ZM370.08 77.84L365.82 83.6C363.78 82.04 359.52 79.58 356.46 77.84L360.48 72.74C363.48 74.12 367.8 76.4 370.08 77.84ZM405.72 85.4V88.76H412.74V95.12H405.72V104.96C405.72 108.2 405.24 109.94 403.02 111.02C400.92 112.1 397.98 112.16 394.02 112.16C393.78 110.24 392.94 107.54 392.16 105.62C394.62 105.74 397.26 105.74 398.1 105.74C398.88 105.74 399.12 105.56 399.12 104.84V95.12H391.5V88.76H399.12V83.54C400.08 82.76 401.16 81.8 402.12 80.72H393.96V77.72C392.52 76.7 389.82 75.2 388.26 74.48C388.92 73.58 389.52 72.62 390.12 71.54H381.06C381 73.76 380.94 75.92 380.82 78.14H390.84C390.84 78.14 390.78 80.12 390.78 80.96C390.12 99.62 389.52 106.76 387.84 108.92C386.76 110.54 385.62 111.14 384 111.38C382.62 111.62 380.46 111.68 378.18 111.62C378 109.7 377.46 107 376.44 105.2C378.18 105.44 379.68 105.44 380.58 105.44C381.3 105.44 381.78 105.26 382.32 104.54C383.16 103.28 383.76 98.3 384.18 84.62H380.4C379.44 95.36 377.16 105.2 371.28 112.1C370.2 110.48 368.16 108.5 366.42 107.48C373.74 99.14 374.28 85.28 374.52 71.54H370.2V64.88L367.8 68.06C365.76 66.38 361.5 63.62 358.56 61.88L362.64 56.78C365.58 58.34 369.9 60.8 372.06 62.3L370.26 64.82H378.96C378.06 62.78 376.56 60.2 375.18 58.16L381.78 55.7C383.4 57.92 385.26 60.92 386.22 62.9L381.78 64.82H391.32V69.02C392.88 65.24 393.96 60.8 394.62 56.24L401.46 57.38C401.1 59.36 400.68 61.34 400.2 63.26H412.56V69.98H398.16C397.56 71.6 396.9 73.16 396.3 74.54H407.46L408.72 74.18L412.92 77.18C410.94 79.94 408.36 82.88 405.72 85.4ZM476.82 87.32H448.2C444.9 92.6 440.94 97.7 437.04 102.02L461.34 100.58C459.24 97.52 457.02 94.52 454.92 91.94L461.52 89.06C466.74 95.06 472.2 102.92 474.84 108.38L467.88 111.98C467.22 110.48 466.38 108.8 465.36 107C435.12 109.4 430.92 109.58 427.92 110.72C427.5 109.28 426.3 105.68 425.46 103.7C427.02 103.34 428.28 102.14 430.08 100.1C431.52 98.6 435.78 93.2 439.14 87.32H422.28V80.12H445.62V71.6H426.84V64.4H445.62V56.12H453.18V64.4H472.5V71.6H453.18V80.12H476.82V87.32ZM495.24 99.74H504.78V87.98H495.24V99.74ZM504.78 81.8V72.08H495.24V81.8H504.78ZM523.86 65.42H540.72C540.72 65.42 540.72 67.82 540.66 68.66C539.88 95.48 539.22 105.02 536.76 108.2C535.08 110.42 533.4 111.08 531 111.5C528.72 111.8 525.12 111.74 521.58 111.62C521.46 109.64 520.5 106.64 519.24 104.66C523.08 105.02 526.62 105.02 528.18 105.02C529.38 105.02 530.04 104.78 530.82 104C532.56 102.08 533.34 93.08 534 71.9H521.16C519.6 75.5 517.74 78.8 515.88 81.38C514.92 80.48 512.88 79.1 511.26 78.02V106.04H495.24V110.42H488.76V65.84H495.54C496.32 62.84 497.04 59 497.28 56.18L505.08 57.26C504.06 60.26 502.98 63.26 501.96 65.84H511.26V75.56C514.74 70.52 517.62 63.26 519.36 56.24L526.2 57.8C525.54 60.38 524.76 62.9 523.86 65.42ZM530.76 92.78L524.7 96.5C523.02 92.9 519.3 87.02 516.36 82.64L521.94 79.46C524.94 83.6 528.9 89.3 530.76 92.78ZM580.62 65.3H569.82C568.62 66.8 567.3 68.3 565.98 69.74H577.26C578.46 68.42 579.66 66.86 580.62 65.3ZM593.22 80V75.56H582.36V80H593.22ZM593.22 89.84V85.4H582.36V89.84H593.22ZM565.26 85.4V89.84H575.46V85.4H565.26ZM565.26 75.56V80H575.46V75.56H565.26ZM558.36 95.66V76.64C557.64 77.24 556.92 77.78 556.14 78.32C555.06 76.58 552.66 74 551.04 72.8C558.78 67.94 564.3 61.34 567.42 55.76L575.28 57.32C574.8 58.1 574.32 58.88 573.84 59.66H584.64L585.78 59.36L590.82 62.42C589.62 64.7 587.88 67.34 586.02 69.74H600.36V95.66H558.36ZM557.28 112.28L550.62 108.62C553.74 106.16 556.98 101.72 558.72 97.34L565.74 99.2C563.88 104.12 560.7 109.22 557.28 112.28ZM569.04 99.44L575.82 98.78C576.6 102.68 577.32 107.6 577.38 110.6L570.18 111.5C570.18 108.5 569.7 103.4 569.04 99.44ZM580.5 99.62L587.04 98.12C588.78 101.72 590.64 106.58 591.42 109.64L584.46 111.32C583.86 108.38 582.12 103.4 580.5 99.62ZM592.02 99.44L598.56 96.74C601.68 100.34 605.7 105.5 607.38 109.1L600.36 112.28C598.92 108.86 595.14 103.4 592.02 99.44ZM640.74 91.58L639.12 71.06L638.82 62.12H648.78L648.48 71.06L646.86 91.58H640.74ZM643.8 107.54C640.74 107.54 638.52 105.38 638.52 102.26C638.52 99.08 640.8 96.92 643.8 96.92C646.8 96.92 649.08 99.08 649.08 102.26C649.08 105.38 646.8 107.54 643.8 107.54Z" fill="#594A39"/>
<path d="M333.778 171.86C333.25 171.713 332.824 171.581 332.502 171.464C332.179 171.376 332.018 171.332 332.018 171.332C332.076 171.185 332.047 171.053 331.93 170.936C331.842 170.819 331.636 170.745 331.314 170.716C330.874 170.423 330.419 170.012 329.95 169.484C329.48 168.956 329.07 168.413 328.718 167.856C328.366 167.299 328.131 166.888 328.014 166.624C327.808 166.184 327.823 165.92 328.058 165.832C328.292 165.715 328.571 165.583 328.894 165.436C329.216 165.201 329.554 165.025 329.906 164.908C330.287 164.791 330.595 164.981 330.83 165.48C331.211 166.155 331.798 166.727 332.59 167.196C333.411 167.665 334.335 167.944 335.362 168.032C336.418 168.12 337.474 167.944 338.53 167.504C339.234 167.181 339.615 166.741 339.674 166.184C339.732 165.597 339.512 164.923 339.014 164.16C338.926 163.925 338.794 163.735 338.618 163.588C338.471 163.441 338.236 163.251 337.914 163.016C337.62 162.781 337.195 162.4 336.638 161.872C336.198 161.667 335.787 161.476 335.406 161.3C335.054 161.124 334.672 160.933 334.262 160.728C333.792 160.493 333.264 160.171 332.678 159.76C332.091 159.32 331.548 158.851 331.05 158.352C330.551 157.824 330.17 157.325 329.906 156.856C329.436 156.416 329.143 155.815 329.026 155.052C328.908 154.26 328.923 153.424 329.07 152.544C329.246 151.664 329.524 150.872 329.906 150.168C330.082 149.757 330.404 149.229 330.874 148.584C331.343 147.909 331.871 147.22 332.458 146.516C333.044 145.812 333.602 145.181 334.13 144.624C334.687 144.037 335.127 143.641 335.45 143.436C335.684 143.201 335.934 142.967 336.198 142.732C336.462 142.468 336.594 142.336 336.594 142.336C336.623 142.189 336.667 142.116 336.726 142.116C336.814 142.116 336.858 142.116 336.858 142.116C337.004 142.028 337.327 141.881 337.826 141.676C338.324 141.471 338.867 141.089 339.454 140.532C341.419 139.593 343.091 138.963 344.47 138.64C345.848 138.288 346.934 138.112 347.726 138.112C348.459 138.141 349.178 138.347 349.882 138.728C350.586 139.08 351.187 139.535 351.686 140.092C352.214 140.649 352.522 141.28 352.61 141.984C352.815 142.688 352.712 143.539 352.302 144.536C351.92 145.504 351.378 146.428 350.674 147.308C349.999 148.159 349.295 148.789 348.562 149.2C347.74 149.552 347.036 149.596 346.45 149.332C345.892 149.068 345.628 148.657 345.658 148.1C345.658 147.865 345.731 147.587 345.878 147.264C346.054 146.941 346.508 146.369 347.242 145.548C348.18 144.169 348.679 143.187 348.738 142.6C348.796 142.013 348.532 141.676 347.946 141.588C347.77 141.529 347.432 141.544 346.934 141.632C346.435 141.72 345.892 141.837 345.306 141.984C344.748 142.101 344.25 142.233 343.81 142.38C343.399 142.527 343.194 142.629 343.194 142.688C343.194 142.688 343.194 142.732 343.194 142.82C343.194 142.908 343.135 142.937 343.018 142.908C342.959 142.908 342.754 143.011 342.402 143.216C342.079 143.392 341.683 143.627 341.214 143.92C340.744 144.213 340.275 144.521 339.806 144.844C339.366 145.137 338.984 145.401 338.662 145.636C338.339 145.871 338.163 146.017 338.134 146.076C338.075 146.399 337.738 146.692 337.122 146.956C336.535 147.308 336.022 147.807 335.582 148.452C335.142 149.097 334.628 149.919 334.042 150.916C333.543 151.591 333.191 152.324 332.986 153.116C332.78 153.879 332.78 154.495 332.986 154.964C333.132 155.433 333.528 155.903 334.174 156.372C334.848 156.812 335.758 157.369 336.902 158.044C337.899 158.601 338.838 159.188 339.718 159.804C340.598 160.42 341.346 161.021 341.962 161.608C342.578 162.165 342.974 162.635 343.15 163.016C343.502 163.515 343.707 164.087 343.766 164.732C343.854 165.377 343.854 166.008 343.766 166.624C343.707 167.211 343.619 167.695 343.502 168.076C343.296 168.545 342.974 169.044 342.534 169.572C342.123 170.1 341.742 170.349 341.39 170.32C341.067 170.408 340.818 170.511 340.642 170.628C340.495 170.745 340.319 170.848 340.114 170.936C339.908 171.053 339.424 171.185 338.662 171.332C337.899 171.508 337.063 171.64 336.154 171.728C335.244 171.845 334.452 171.889 333.778 171.86ZM353.527 167.68C353.087 167.68 352.647 167.357 352.207 166.712C351.767 166.037 351.415 165.216 351.151 164.248C350.916 163.28 350.828 162.327 350.887 161.388C350.887 160.449 350.931 159.701 351.019 159.144C351.136 158.557 351.253 157.985 351.371 157.428C351.459 157.252 351.503 157.105 351.503 156.988C351.532 156.871 351.561 156.68 351.591 156.416C351.649 156.152 351.752 155.712 351.899 155.096C352.016 154.597 352.133 154.187 352.251 153.864C352.397 153.541 352.515 153.321 352.603 153.204C352.955 152.735 353.351 152.456 353.791 152.368C354.231 152.251 354.627 152.295 354.979 152.5C355.36 152.705 355.58 153.013 355.639 153.424C355.815 153.571 355.903 153.908 355.903 154.436C355.932 154.935 355.903 155.463 355.815 156.02C355.727 156.548 355.595 156.929 355.419 157.164C355.36 157.311 355.287 157.692 355.199 158.308C355.14 158.924 355.067 159.569 354.979 160.244C354.92 160.919 354.847 161.461 354.759 161.872C354.671 162.4 354.7 162.737 354.847 162.884C355.023 163.001 355.316 162.869 355.727 162.488C356.167 162.077 356.739 161.359 357.443 160.332C358.029 159.452 358.455 158.763 358.719 158.264C359.012 157.765 359.232 157.311 359.379 156.9C359.555 156.489 359.745 156.005 359.951 155.448C360.097 154.979 360.229 154.597 360.347 154.304C360.493 154.011 360.625 153.805 360.743 153.688C361.065 153.219 361.491 153.028 362.019 153.116C362.576 153.175 363.031 153.321 363.383 153.556C363.735 153.908 363.94 154.392 363.999 155.008C364.087 155.595 363.955 156.24 363.603 156.944C363.368 157.413 363.133 157.971 362.899 158.616C362.693 159.261 362.517 159.907 362.371 160.552C362.253 161.197 362.195 161.755 362.195 162.224C362.195 162.811 362.268 163.163 362.415 163.28C362.591 163.368 362.796 163.412 363.031 163.412C363.383 163.412 363.72 163.295 364.043 163.06C364.365 162.796 364.835 162.341 365.451 161.696C365.715 161.432 366.037 161.036 366.419 160.508C366.8 159.98 367.167 159.423 367.519 158.836C367.9 158.249 368.208 157.736 368.443 157.296C368.707 156.827 368.839 156.533 368.839 156.416C368.839 156.24 368.971 155.991 369.235 155.668C369.411 155.433 369.543 155.257 369.631 155.14C369.748 154.993 369.953 154.847 370.247 154.7C370.481 154.583 370.745 154.568 371.039 154.656C371.332 154.715 371.581 154.861 371.787 155.096C371.933 155.213 372.036 155.507 372.095 155.976C372.183 156.416 372.227 156.812 372.227 157.164C372.139 157.487 372.007 157.941 371.831 158.528C371.655 159.085 371.464 159.628 371.259 160.156C371.083 160.655 370.921 160.992 370.775 161.168C370.657 161.285 370.452 161.505 370.159 161.828C369.865 162.121 369.601 162.444 369.367 162.796C368.633 163.676 368.105 164.248 367.783 164.512C367.46 164.776 367.181 165.025 366.947 165.26C366.331 165.876 365.627 166.375 364.835 166.756C364.043 167.108 363.295 167.313 362.591 167.372C361.887 167.401 361.329 167.269 360.919 166.976C360.009 166.507 359.555 165.715 359.555 164.6C359.555 164.365 359.511 164.16 359.423 163.984C359.364 163.779 359.335 163.676 359.335 163.676C359.217 163.676 359.056 163.705 358.851 163.764C358.675 163.823 358.484 164.028 358.279 164.38C358.015 164.879 357.56 165.392 356.915 165.92C356.299 166.419 355.668 166.844 355.023 167.196C354.377 167.519 353.879 167.68 353.527 167.68ZM377.259 168.252C377.024 168.017 376.848 167.665 376.731 167.196C376.643 166.727 376.614 166.272 376.643 165.832C376.672 165.363 376.746 165.011 376.863 164.776C376.863 164.541 376.892 164.365 376.951 164.248C377.039 164.101 377.068 163.969 377.039 163.852C377.01 163.735 377.039 163.529 377.127 163.236C377.215 162.943 377.303 162.664 377.391 162.4C377.596 161.931 377.831 161.329 378.095 160.596C378.359 159.833 378.623 159.071 378.887 158.308C379.151 157.516 379.371 156.841 379.547 156.284C379.723 155.697 379.826 155.345 379.855 155.228C379.855 154.876 380.09 154.685 380.559 154.656C380.911 154.539 381.336 154.685 381.835 155.096C382.334 155.507 382.73 155.947 383.023 156.416C383.258 156.651 383.346 156.959 383.287 157.34C383.228 157.721 383.038 158.264 382.715 158.968C382.598 159.203 382.451 159.599 382.275 160.156C382.128 160.684 382.026 161.124 381.967 161.476C381.85 161.711 381.703 162.048 381.527 162.488C381.38 162.899 381.248 163.295 381.131 163.676C381.072 163.823 381.014 164.101 380.955 164.512C380.896 164.893 380.823 165.289 380.735 165.7C380.647 166.111 380.53 166.433 380.383 166.668C380.119 167.871 379.65 168.575 378.975 168.78C378.33 168.985 377.758 168.809 377.259 168.252ZM382.011 150.608C381.688 150.373 381.439 150.095 381.263 149.772C381.116 149.42 381.028 149.112 380.999 148.848C380.999 148.584 381.028 148.423 381.087 148.364C381.38 148.041 381.63 147.616 381.835 147.088C382.07 146.56 382.319 146.076 382.583 145.636C382.642 145.548 382.715 145.431 382.803 145.284C382.92 145.108 383.038 145.005 383.155 144.976C383.507 144.741 383.991 144.756 384.607 145.02C385.252 145.284 385.722 145.651 386.015 146.12C386.279 146.677 386.352 147.249 386.235 147.836C386.147 148.423 385.839 149.039 385.311 149.684C384.871 150.271 384.314 150.652 383.639 150.828C382.964 150.975 382.422 150.901 382.011 150.608ZM390.516 167.372C390.428 167.255 390.237 167.108 389.944 166.932C389.65 166.756 389.504 166.609 389.504 166.492C389.504 166.433 389.489 166.36 389.46 166.272C389.46 166.184 389.401 166.14 389.284 166.14C389.196 166.052 389.24 165.729 389.416 165.172C389.621 164.615 389.885 163.955 390.208 163.192C390.56 162.429 390.926 161.696 391.308 160.992C391.689 160.259 392.012 159.672 392.276 159.232C392.422 159.144 392.51 159.027 392.54 158.88C392.598 158.704 392.598 158.616 392.54 158.616C392.54 158.616 392.613 158.484 392.76 158.22C392.936 157.927 393.068 157.736 393.156 157.648C393.39 157.237 393.566 156.827 393.684 156.416C393.801 155.976 393.83 155.609 393.772 155.316C393.654 155.169 393.522 155.125 393.376 155.184C393.229 155.243 393.156 155.272 393.156 155.272C393.038 155.301 392.862 155.36 392.628 155.448C392.422 155.507 392.232 155.595 392.056 155.712C391.381 156.181 390.882 156.416 390.56 156.416C390.266 156.416 389.973 156.064 389.68 155.36C389.562 155.037 389.518 154.729 389.548 154.436C389.577 154.143 389.694 153.908 389.9 153.732C390.134 153.527 390.428 153.321 390.78 153.116C391.132 152.881 391.366 152.72 391.484 152.632C391.806 152.427 392.261 152.207 392.848 151.972C393.434 151.737 393.786 151.605 393.904 151.576C394.666 151.341 395.312 151.341 395.84 151.576C396.368 151.781 396.764 152.192 397.028 152.808C397.438 153.307 397.644 153.835 397.644 154.392C397.644 154.949 397.438 155.639 397.028 156.46L396.588 157.12C396.441 157.413 396.412 157.56 396.5 157.56C396.617 157.56 396.749 157.457 396.896 157.252C396.984 157.135 397.16 156.959 397.424 156.724C397.688 156.489 397.864 156.372 397.952 156.372C397.952 156.372 397.981 156.357 398.04 156.328C398.128 156.299 398.172 156.181 398.172 155.976C398.26 155.888 398.348 155.8 398.436 155.712C398.553 155.624 398.612 155.58 398.612 155.58C398.729 155.58 398.876 155.521 399.052 155.404C399.257 155.257 399.594 154.993 400.064 154.612C400.386 154.377 400.68 154.26 400.944 154.26C401.618 154.055 402.161 154.275 402.572 154.92C403.012 155.565 403.232 156.401 403.232 157.428L402.308 159.804L403.892 157.868C404.068 157.633 404.244 157.428 404.42 157.252C404.625 157.076 404.801 156.929 404.948 156.812C405.006 156.607 405.094 156.489 405.212 156.46C405.329 156.431 405.388 156.416 405.388 156.416C405.388 156.416 405.417 156.416 405.476 156.416C405.534 156.387 405.564 156.328 405.564 156.24C405.71 156.123 405.872 156.02 406.048 155.932C406.224 155.815 406.341 155.697 406.4 155.58C406.898 155.375 407.5 155.345 408.204 155.492C408.908 155.609 409.406 155.976 409.7 156.592C409.905 156.944 410.096 157.252 410.272 157.516C410.448 157.78 410.536 158.176 410.536 158.704C410.477 159.144 410.418 159.452 410.36 159.628C410.33 159.804 410.301 159.995 410.272 160.2C410.242 160.376 410.198 160.699 410.14 161.168C410.022 161.403 409.949 161.652 409.92 161.916C409.92 162.18 409.92 162.429 409.92 162.664C409.92 163.045 409.934 163.309 409.964 163.456C409.993 163.573 410.11 163.632 410.316 163.632C410.726 163.544 411.064 163.412 411.328 163.236C411.621 163.031 411.944 162.767 412.296 162.444C412.736 162.033 413.117 161.975 413.44 162.268C413.792 162.532 414.012 162.84 414.1 163.192C414.158 163.309 414.1 163.573 413.924 163.984C413.748 164.395 413.542 164.791 413.308 165.172C413.073 165.553 412.882 165.744 412.736 165.744C412.648 165.744 412.472 165.861 412.208 166.096C411.944 166.331 411.738 166.492 411.592 166.58C411.386 166.785 411.181 166.976 410.976 167.152C410.8 167.328 410.594 167.416 410.36 167.416C410.242 167.416 410.096 167.46 409.92 167.548C409.773 167.607 409.597 167.636 409.392 167.636C409.098 167.724 408.644 167.68 408.028 167.504C407.441 167.328 407.06 166.917 406.884 166.272C406.766 165.949 406.59 165.539 406.356 165.04C406.15 164.541 406.106 163.925 406.224 163.192C406.341 162.664 406.414 162.18 406.444 161.74C406.473 161.3 406.532 160.992 406.62 160.816C406.62 160.728 406.62 160.523 406.62 160.2C406.62 159.848 406.576 159.672 406.488 159.672C406.37 159.672 406.15 159.819 405.828 160.112C405.505 160.405 405.124 160.801 404.684 161.3C404.244 161.769 403.789 162.283 403.32 162.84C402.88 163.397 402.484 163.955 402.132 164.512C401.868 164.835 401.633 165.231 401.428 165.7C401.222 166.169 401.076 166.433 400.988 166.492C400.782 166.727 400.43 166.756 399.932 166.58C399.462 166.404 399.11 166.125 398.876 165.744C398.788 165.568 398.685 165.465 398.568 165.436C398.45 165.377 398.348 165.289 398.26 165.172C398.201 165.025 398.201 164.747 398.26 164.336C398.348 163.925 398.538 163.265 398.832 162.356C399.154 161.359 399.433 160.464 399.668 159.672C399.932 158.851 400.064 158.44 400.064 158.44C400.064 158.323 399.844 158.44 399.404 158.792C398.964 159.115 398.45 159.525 397.864 160.024C397.6 160.347 397.248 160.757 396.808 161.256C396.397 161.755 395.913 162.341 395.356 163.016C394.828 163.691 394.226 164.483 393.552 165.392C392.701 166.595 392.056 167.328 391.616 167.592C391.205 167.856 390.838 167.783 390.516 167.372ZM422.033 167.548C421.476 167.313 421.021 166.961 420.669 166.492C420.346 165.993 420.185 165.392 420.185 164.688C420.185 164.395 420.244 163.896 420.361 163.192C420.478 162.488 420.64 161.696 420.845 160.816C421.05 159.936 421.256 159.115 421.461 158.352C421.754 157.824 421.945 157.296 422.033 156.768C422.15 156.24 422.209 155.917 422.209 155.8C422.268 155.448 422.37 154.979 422.517 154.392C422.664 153.805 422.81 153.277 422.957 152.808C423.133 152.309 423.25 152.031 423.309 151.972C423.456 151.825 423.705 151.737 424.057 151.708C424.409 151.679 424.761 151.723 425.113 151.84C425.465 151.928 425.7 152.119 425.817 152.412C426.14 152.764 426.316 153.292 426.345 153.996C426.404 154.7 426.272 155.521 425.949 156.46C425.685 157.047 425.421 157.736 425.157 158.528C424.893 159.32 424.658 160.053 424.453 160.728C424.277 161.373 424.174 161.813 424.145 162.048L422.561 162.004C423.06 161.535 423.529 161.051 423.969 160.552C424.409 160.024 424.732 159.613 424.937 159.32C425.436 158.645 425.861 158.088 426.213 157.648C426.594 157.179 427.078 156.621 427.665 155.976C428.252 155.301 428.882 154.832 429.557 154.568C430.232 154.275 430.73 154.128 431.053 154.128C431.698 154.245 432.27 154.583 432.769 155.14C433.297 155.668 433.62 156.46 433.737 157.516C433.737 157.927 433.693 158.411 433.605 158.968C433.546 159.525 433.517 159.804 433.517 159.804C433.517 159.804 433.752 159.511 434.221 158.924C434.72 158.337 435.38 157.677 436.201 156.944C436.758 156.533 437.301 156.299 437.829 156.24C438.357 156.152 438.826 156.328 439.237 156.768C440 157.179 440.557 157.897 440.909 158.924C441.261 159.951 441.378 161.109 441.261 162.4C441.173 163.163 441.173 163.779 441.261 164.248C441.378 164.688 441.496 165.084 441.613 165.436C441.994 165.964 442.053 166.433 441.789 166.844C441.525 167.225 441.29 167.416 441.085 167.416C440.792 167.416 440.352 167.357 439.765 167.24C439.178 167.123 438.636 166.917 438.137 166.624C437.668 166.331 437.433 165.935 437.433 165.436V162.708C437.433 162.063 437.404 161.593 437.345 161.3C437.316 160.977 437.242 160.772 437.125 160.684C436.802 160.508 436.406 160.64 435.937 161.08C435.468 161.52 434.954 162.151 434.397 162.972C433.869 163.764 433.297 164.659 432.681 165.656C432.124 166.565 431.669 167.123 431.317 167.328C430.965 167.504 430.628 167.489 430.305 167.284C429.66 167.079 429.249 166.8 429.073 166.448C428.926 166.067 428.912 165.641 429.029 165.172C429.176 164.673 429.352 164.028 429.557 163.236C429.792 162.444 430.012 161.681 430.217 160.948C430.422 160.185 430.554 159.628 430.613 159.276C430.496 159.041 430.29 158.968 429.997 159.056C429.733 159.115 429.454 159.247 429.161 159.452C428.809 159.687 428.428 159.936 428.017 160.2C427.636 160.464 427.181 161.021 426.653 161.872C426.301 162.429 425.905 163.045 425.465 163.72C425.025 164.365 424.614 164.952 424.233 165.48C423.881 166.008 423.588 166.375 423.353 166.58C423.148 167.108 422.957 167.445 422.781 167.592C422.605 167.709 422.356 167.695 422.033 167.548ZM451.44 168.956C450.736 168.956 450.12 168.589 449.592 167.856C449.093 167.093 448.785 166.184 448.668 165.128C448.697 164.893 448.726 164.556 448.756 164.116C448.814 163.676 448.873 163.221 448.932 162.752C449.049 162.195 449.21 161.476 449.416 160.596C449.621 159.716 449.841 158.836 450.076 157.956C450.31 157.047 450.516 156.269 450.692 155.624C450.868 154.949 450.97 154.553 451 154.436C451.176 154.025 451.572 153.923 452.188 154.128C452.804 154.333 453.332 154.773 453.772 155.448C453.948 155.683 454.05 155.961 454.08 156.284C454.138 156.607 454.094 157.076 453.948 157.692C453.83 158.308 453.596 159.217 453.244 160.42C452.921 161.593 452.672 162.547 452.496 163.28C452.349 163.984 452.29 164.732 452.32 165.524C452.202 166.873 452.085 167.797 451.968 168.296C451.85 168.765 451.674 168.985 451.44 168.956ZM455.488 150.696C455.37 150.784 455.253 150.828 455.136 150.828C455.048 150.799 454.886 150.711 454.652 150.564C454.446 150.535 454.182 150.403 453.86 150.168C453.566 149.904 453.302 149.64 453.068 149.376C452.862 149.112 452.76 148.951 452.76 148.892C452.73 148.599 452.745 148.129 452.804 147.484C452.892 146.839 453.053 146.237 453.288 145.68C453.552 145.093 453.904 144.785 454.344 144.756C454.461 144.756 454.71 144.815 455.092 144.932C455.502 145.049 455.928 145.196 456.368 145.372C456.602 145.812 456.822 146.384 457.028 147.088C457.233 147.792 457.248 148.481 457.072 149.156C456.925 149.801 456.397 150.315 455.488 150.696ZM475.564 167.944C474.919 167.885 474.376 167.753 473.936 167.548C473.526 167.313 473.188 166.859 472.924 166.184C472.807 165.715 472.748 165.231 472.748 164.732C472.778 164.204 472.822 163.705 472.88 163.236C472.939 162.737 472.968 162.312 472.968 161.96C472.968 161.901 472.968 161.784 472.968 161.608C472.968 161.432 472.968 161.271 472.968 161.124C472.91 160.684 472.792 160.42 472.616 160.332C472.47 160.215 472.206 160.229 471.824 160.376C471.208 160.669 470.534 161.065 469.8 161.564C469.096 162.033 468.348 162.591 467.556 163.236C466.794 163.852 466.002 164.512 465.18 165.216C464.535 165.92 464.051 166.492 463.728 166.932C463.435 167.372 463.127 167.592 462.804 167.592C462.57 167.709 462.32 167.68 462.056 167.504C461.792 167.328 461.514 167.123 461.22 166.888C461.015 166.653 460.766 166.36 460.472 166.008C460.208 165.627 460.047 165.377 459.988 165.26C459.988 164.791 460.018 164.365 460.076 163.984C460.164 163.603 460.282 163.207 460.428 162.796C460.604 162.385 460.81 161.916 461.044 161.388C461.162 161.183 461.264 160.977 461.352 160.772C461.47 160.537 461.602 160.288 461.748 160.024C461.866 159.613 462.027 159.144 462.232 158.616C462.467 158.088 462.687 157.589 462.892 157.12C463.215 156.357 463.464 155.697 463.64 155.14C463.816 154.583 463.963 153.981 464.08 153.336C464.051 153.277 464.066 153.189 464.124 153.072C464.183 152.955 464.271 152.881 464.388 152.852H464.432H464.476C464.682 152.705 465.063 152.691 465.62 152.808C466.207 152.896 466.647 153.057 466.94 153.292C467.556 153.82 467.85 154.509 467.82 155.36C467.791 156.211 467.351 157.325 466.5 158.704C466.295 159.173 466.075 159.613 465.84 160.024C465.635 160.405 465.532 160.669 465.532 160.816C465.532 160.816 465.65 160.728 465.884 160.552C466.119 160.376 466.398 160.171 466.72 159.936C467.043 159.672 467.322 159.467 467.556 159.32C467.703 159.173 468.026 158.909 468.524 158.528C469.023 158.117 469.566 157.692 470.152 157.252C470.739 156.812 471.208 156.475 471.56 156.24C471.883 156.005 472.294 155.771 472.792 155.536C473.291 155.272 473.599 155.14 473.716 155.14C474.01 155.14 474.362 155.243 474.772 155.448C475.212 155.653 475.608 155.903 475.96 156.196C476.342 156.46 476.562 156.709 476.62 156.944C476.62 157.061 476.606 157.223 476.576 157.428C476.547 157.604 476.532 157.765 476.532 157.912C476.503 158.381 476.488 158.953 476.488 159.628C476.518 160.273 476.532 160.933 476.532 161.608C476.532 162.253 476.474 162.84 476.356 163.368C476.356 163.368 476.371 163.397 476.4 163.456C476.43 163.485 476.459 163.544 476.488 163.632C476.459 163.661 476.444 163.72 476.444 163.808C476.474 163.867 476.488 163.896 476.488 163.896C476.547 164.101 476.606 164.307 476.664 164.512C476.752 164.717 476.855 164.952 476.972 165.216C477.09 165.451 477.222 165.759 477.368 166.14C477.339 166.521 477.119 166.903 476.708 167.284C476.327 167.636 475.946 167.856 475.564 167.944ZM488.06 177.536C487.737 177.565 487.238 177.492 486.564 177.316C485.889 177.169 485.229 176.876 484.584 176.436C483.792 175.761 483.249 175.204 482.956 174.764C482.662 174.324 482.501 173.928 482.472 173.576C482.472 173.253 482.486 172.96 482.516 172.696C482.662 172.051 482.97 171.743 483.44 171.772C483.938 171.801 484.32 171.933 484.584 172.168C484.877 172.403 485.185 172.681 485.508 173.004C485.86 173.356 486.197 173.664 486.52 173.928C486.872 174.192 487.165 174.309 487.4 174.28C487.986 174.221 488.47 173.972 488.852 173.532C489.233 173.121 489.614 172.461 489.996 171.552C490.23 170.907 490.406 170.349 490.524 169.88C490.67 169.411 490.817 168.897 490.964 168.34C491.11 167.783 491.286 167.035 491.492 166.096C491.638 165.421 491.741 164.952 491.8 164.688C491.888 164.395 491.932 164.219 491.932 164.16C491.932 164.072 491.917 164.028 491.888 164.028C491.888 164.028 491.785 164.087 491.58 164.204C491.374 164.321 491.081 164.453 490.7 164.6C490.348 164.747 489.952 164.893 489.512 165.04C488.69 165.304 487.869 165.539 487.048 165.744C486.226 165.92 485.596 165.935 485.156 165.788C484.716 165.612 484.364 165.319 484.1 164.908C483.836 164.497 483.66 164.057 483.572 163.588C483.513 163.119 483.498 162.737 483.528 162.444C483.586 162.209 483.718 161.828 483.924 161.3C484.129 160.772 484.364 160.215 484.628 159.628C484.892 159.041 485.141 158.528 485.376 158.088C485.61 157.648 485.801 157.413 485.948 157.384C486.065 157.325 486.168 157.208 486.256 157.032C486.373 156.827 486.432 156.665 486.432 156.548C486.461 156.431 486.578 156.24 486.784 155.976C487.018 155.712 487.678 155.199 488.764 154.436C489.849 153.409 490.832 152.647 491.712 152.148C492.592 151.62 493.398 151.327 494.132 151.268C494.337 151.297 494.528 151.312 494.704 151.312C494.909 151.312 495.012 151.312 495.012 151.312C495.012 151.312 495.173 151.356 495.496 151.444C495.818 151.532 496.141 151.649 496.464 151.796C496.845 151.943 497.256 152.295 497.696 152.852C498.136 153.38 498.517 153.967 498.84 154.612C499.162 155.257 499.338 155.844 499.368 156.372C499.338 157.017 499.192 157.663 498.928 158.308C498.664 158.953 498.414 159.261 498.18 159.232C497.945 159.203 497.681 159.291 497.388 159.496C497.124 159.672 496.918 160.024 496.772 160.552C496.684 160.669 496.581 160.86 496.464 161.124C496.346 161.359 496.214 161.593 496.068 161.828C496.038 161.975 495.965 162.341 495.848 162.928C495.73 163.485 495.584 164.116 495.408 164.82C495.261 165.495 495.129 166.125 495.012 166.712C494.894 167.269 494.821 167.636 494.792 167.812C494.762 167.929 494.689 168.208 494.572 168.648C494.454 169.059 494.308 169.528 494.132 170.056C493.985 170.584 493.824 171.068 493.648 171.508C493.53 172.359 493.296 173.092 492.944 173.708C492.592 174.353 492.21 174.925 491.8 175.424C491.125 176.157 490.45 176.671 489.776 176.964C489.13 177.287 488.558 177.477 488.06 177.536ZM487.224 162.136C487.312 162.371 487.546 162.459 487.928 162.4C488.338 162.341 488.896 162.209 489.6 162.004C490.45 161.652 491.081 161.373 491.492 161.168C491.932 160.963 492.269 160.699 492.504 160.376C492.68 160.141 492.841 159.907 492.988 159.672C493.164 159.437 493.325 159.232 493.472 159.056C493.53 158.997 493.618 158.895 493.736 158.748C493.882 158.601 494 158.469 494.088 158.352C494.264 158.235 494.41 158.132 494.528 158.044C494.674 157.927 494.806 157.824 494.924 157.736C495.07 157.677 495.202 157.545 495.32 157.34C495.437 157.105 495.466 156.871 495.408 156.636C495.378 156.431 495.246 156.152 495.012 155.8C494.777 155.419 494.454 155.125 494.044 154.92C493.662 154.685 493.208 154.847 492.68 155.404C492.181 155.961 491.374 156.709 490.26 157.648C489.614 158.352 489.042 159.012 488.544 159.628C488.045 160.215 487.678 160.728 487.444 161.168C487.209 161.579 487.136 161.901 487.224 162.136ZM519.495 174.324C519.231 174.324 518.879 174.192 518.439 173.928C517.999 173.664 517.603 173.341 517.251 172.96C517.017 172.696 516.811 172.417 516.635 172.124C516.489 171.831 516.415 171.537 516.415 171.244C516.415 170.921 516.474 170.452 516.591 169.836C516.709 169.22 516.767 168.853 516.767 168.736C516.767 168.472 516.811 168.017 516.899 167.372C517.017 166.697 517.134 166.023 517.251 165.348C517.398 164.644 517.501 164.116 517.559 163.764C517.589 163.617 517.603 163.515 517.603 163.456C517.633 163.397 517.647 163.368 517.647 163.368C517.794 162.869 517.911 162.415 517.999 162.004C518.117 161.564 518.205 161.153 518.263 160.772C518.527 159.628 518.703 158.777 518.791 158.22C518.909 157.633 519.055 157.105 519.231 156.636C519.319 156.372 519.422 156.123 519.539 155.888C519.627 155.683 519.73 155.463 519.847 155.228C519.965 154.993 520.111 154.729 520.287 154.436C520.874 152.793 521.358 151.503 521.739 150.564C522.121 149.596 522.502 148.745 522.883 148.012C522.913 147.953 522.927 147.895 522.927 147.836C522.957 147.777 522.986 147.733 523.015 147.704C523.309 146.912 523.69 146.12 524.159 145.328C524.658 144.536 525.245 143.744 525.919 142.952C526.623 142.16 527.415 141.368 528.295 140.576C528.911 140.283 529.513 140.019 530.099 139.784C530.715 139.549 531.302 139.432 531.859 139.432C532.446 139.432 532.974 139.564 533.443 139.828C533.913 140.063 534.309 140.341 534.631 140.664C535.013 141.016 535.291 141.397 535.467 141.808C535.673 142.189 535.775 142.497 535.775 142.732C535.658 143.201 535.423 143.744 535.071 144.36C534.749 144.947 534.382 145.504 533.971 146.032C533.561 146.56 533.179 147 532.827 147.352C532.505 147.704 532.285 147.88 532.167 147.88C531.874 147.88 531.683 147.748 531.595 147.484C531.537 147.191 531.434 146.883 531.287 146.56C531.229 146.443 531.155 146.325 531.067 146.208C531.009 146.091 530.935 145.988 530.847 145.9C530.847 145.753 530.906 145.504 531.023 145.152C531.17 144.771 531.243 144.433 531.243 144.14C531.243 143.964 531.185 143.788 531.067 143.612C530.979 143.436 530.847 143.421 530.671 143.568C530.407 143.744 530.158 143.92 529.923 144.096C529.718 144.243 529.513 144.404 529.307 144.58C529.102 144.756 528.882 144.991 528.647 145.284C528.442 145.548 528.193 145.885 527.899 146.296C527.782 146.472 527.665 146.648 527.547 146.824C527.43 146.971 527.342 147.117 527.283 147.264C527.107 147.528 526.975 147.763 526.887 147.968C526.829 148.144 526.77 148.305 526.711 148.452C526.653 148.628 526.609 148.745 526.579 148.804C526.55 148.863 526.506 148.892 526.447 148.892C526.477 148.833 526.418 148.965 526.271 149.288C526.154 149.611 525.993 149.977 525.787 150.388C525.67 150.681 525.538 150.96 525.391 151.224C525.245 151.488 525.098 151.693 524.951 151.84H524.995C524.995 151.84 524.922 152.016 524.775 152.368C524.658 152.691 524.526 153.028 524.379 153.38C524.233 153.732 524.159 153.937 524.159 153.996C524.159 154.143 524.409 154.172 524.907 154.084C525.435 153.996 526.007 153.893 526.623 153.776C527.269 153.629 527.767 153.556 528.119 153.556C528.354 153.556 528.559 153.6 528.735 153.688C528.941 153.747 529.102 153.835 529.219 153.952C529.483 154.187 529.674 154.509 529.791 154.92C529.938 155.301 530.011 155.697 530.011 156.108C530.011 156.343 529.791 156.548 529.351 156.724C528.911 156.871 528.237 157.061 527.327 157.296C526.535 157.472 525.861 157.619 525.303 157.736C524.775 157.853 524.335 157.956 523.983 158.044C523.631 158.132 523.338 158.249 523.103 158.396C522.898 158.513 522.737 158.66 522.619 158.836C522.531 158.983 522.458 159.173 522.399 159.408C522.399 159.525 522.385 159.628 522.355 159.716C522.355 159.775 522.341 159.833 522.311 159.892C522.282 160.009 522.223 160.244 522.135 160.596C522.047 160.919 521.945 161.3 521.827 161.74C521.739 162.18 521.637 162.635 521.519 163.104C521.431 163.544 521.343 163.969 521.255 164.38C521.226 164.673 521.182 164.937 521.123 165.172C521.094 165.407 521.079 165.583 521.079 165.7C520.962 165.847 520.83 166.199 520.683 166.756C520.566 167.313 520.493 167.753 520.463 168.076C520.463 168.135 520.463 168.208 520.463 168.296C520.463 168.355 520.463 168.413 520.463 168.472C520.463 168.589 520.419 168.941 520.331 169.528C520.273 170.144 520.243 170.775 520.243 171.42L520.111 172.696C520.082 173.107 520.023 173.473 519.935 173.796C519.877 174.148 519.73 174.324 519.495 174.324ZM532.607 168.736C532.138 168.736 531.698 168.501 531.287 168.032C530.877 167.563 530.671 166.917 530.671 166.096C530.671 165.48 530.73 164.893 530.847 164.336C530.994 163.779 531.17 163.075 531.375 162.224C531.581 161.725 531.801 161.095 532.035 160.332C532.299 159.54 532.549 158.763 532.783 158C533.047 157.208 533.267 156.533 533.443 155.976C533.619 155.389 533.722 155.052 533.751 154.964C533.781 154.817 533.854 154.7 533.971 154.612C534.089 154.524 534.25 154.48 534.455 154.48C534.749 154.48 535.086 154.612 535.467 154.876C535.849 155.14 536.186 155.477 536.479 155.888C536.802 156.269 536.993 156.636 537.051 156.988C537.051 157.281 537.022 157.516 536.963 157.692C536.934 157.868 536.861 158.103 536.743 158.396C536.626 158.66 536.465 159.1 536.259 159.716C536.054 160.303 535.79 161.153 535.467 162.268C535.174 163.353 534.807 164.82 534.367 166.668C534.191 167.401 533.971 167.929 533.707 168.252C533.443 168.575 533.077 168.736 532.607 168.736ZM534.851 149.068C534.851 148.745 534.983 148.291 535.247 147.704C535.511 147.088 535.834 146.531 536.215 146.032C536.597 145.504 536.963 145.24 537.315 145.24C537.491 145.24 537.653 145.255 537.799 145.284C537.975 145.313 538.137 145.357 538.283 145.416C538.899 145.651 539.369 146.12 539.691 146.824C540.043 147.528 540.102 148.291 539.867 149.112C539.633 149.904 538.958 150.593 537.843 151.18C537.726 151.239 537.609 151.268 537.491 151.268C537.403 151.268 537.286 151.268 537.139 151.268C536.611 151.268 536.171 151.136 535.819 150.872C535.497 150.579 535.247 150.256 535.071 149.904C534.925 149.552 534.851 149.273 534.851 149.068ZM545.983 169.308C544.428 169.308 543.284 168.809 542.551 167.812C542.345 167.343 542.243 166.873 542.243 166.404C542.272 165.905 542.389 165.553 542.595 165.348C542.8 165.113 543.049 165.157 543.343 165.48C543.724 165.715 544.267 165.832 544.971 165.832C545.323 165.832 545.631 165.832 545.895 165.832C546.188 165.803 546.525 165.773 546.907 165.744C547.581 165.685 548.007 165.48 548.183 165.128C548.388 164.776 548.344 164.483 548.051 164.248H548.095C547.303 164.043 546.525 163.749 545.763 163.368C545 162.987 544.355 162.561 543.827 162.092C543.299 161.593 542.991 161.124 542.903 160.684C542.668 159.716 542.727 158.719 543.079 157.692C543.431 156.665 543.944 155.771 544.619 155.008C544.883 154.832 545.249 154.583 545.719 154.26C546.188 153.908 546.525 153.717 546.731 153.688V153.732C547.288 153.145 547.919 152.676 548.623 152.324C549.327 151.943 550.148 151.591 551.087 151.268L551.791 151.18C552.143 151.121 552.451 151.092 552.715 151.092C552.685 151.092 552.759 151.121 552.935 151.18C553.111 151.239 553.257 151.283 553.375 151.312C553.551 151.4 553.727 151.444 553.903 151.444C554.313 151.503 554.709 151.723 555.091 152.104C555.501 152.456 555.824 152.881 556.059 153.38C556.323 153.849 556.425 154.289 556.367 154.7C556.279 155.375 556.029 156.049 555.619 156.724C555.208 157.369 554.768 157.736 554.299 157.824C554.357 157.795 554.299 157.736 554.123 157.648C553.947 157.56 553.785 157.472 553.639 157.384L553.463 157.472C553.463 157.472 553.448 157.428 553.419 157.34C553.419 157.252 553.389 157.149 553.331 157.032C553.213 156.827 553.125 156.607 553.067 156.372C553.037 156.137 553.037 155.873 553.067 155.58C553.125 155.257 553.14 155.067 553.111 155.008C553.081 154.949 552.905 154.905 552.583 154.876C552.201 154.788 551.717 154.832 551.131 155.008C550.544 155.155 550.001 155.419 549.503 155.8C548.916 156.181 548.476 156.489 548.183 156.724C547.919 156.959 547.713 157.193 547.567 157.428C547.42 157.633 547.259 157.941 547.083 158.352C546.965 158.557 546.863 158.748 546.775 158.924C546.687 159.071 546.643 159.217 546.643 159.364C546.643 159.657 546.892 159.965 547.391 160.288C547.889 160.581 548.637 160.933 549.635 161.344C550.427 161.667 550.94 162.107 551.175 162.664C551.439 163.221 551.673 163.749 551.879 164.248C551.937 164.365 551.996 164.585 552.055 164.908C552.143 165.201 552.157 165.377 552.099 165.436C552.157 165.495 552.187 165.553 552.187 165.612V165.568C552.421 166.008 552.377 166.477 552.055 166.976C551.761 167.445 551.292 167.885 550.647 168.296C550.001 168.677 549.268 168.956 548.447 169.132H548.491C548.051 169.191 547.611 169.235 547.171 169.264C546.76 169.293 546.364 169.308 545.983 169.308ZM562.246 167.328C562.04 167.357 561.806 167.284 561.542 167.108C561.307 166.903 561.087 166.727 560.882 166.58C560.588 166.228 560.383 165.92 560.266 165.656C560.148 165.392 560.09 165.099 560.09 164.776C560.09 164.453 560.119 164.072 560.178 163.632C560.324 163.163 560.5 162.532 560.706 161.74C560.911 160.948 561.16 160.097 561.454 159.188C561.512 158.836 561.615 158.425 561.762 157.956C561.938 157.457 562.114 156.988 562.29 156.548C562.466 156.079 562.598 155.727 562.686 155.492C562.891 154.759 563.096 154.055 563.302 153.38C563.536 152.705 563.815 151.928 564.138 151.048C564.46 150.168 564.856 149.053 565.326 147.704C565.971 145.944 566.455 144.624 566.778 143.744C567.1 142.864 567.335 142.233 567.482 141.852C567.628 141.471 567.731 141.163 567.79 140.928C567.79 140.693 567.951 140.473 568.274 140.268C568.626 140.033 568.934 139.916 569.198 139.916C569.608 139.945 570.004 140.195 570.386 140.664C570.767 141.104 571.031 141.647 571.178 142.292C571.324 142.908 571.222 143.509 570.87 144.096C570.4 145.152 569.931 146.34 569.462 147.66C569.022 148.951 568.582 150.241 568.142 151.532C567.702 152.823 567.262 154.011 566.822 155.096C566.792 155.243 566.69 155.492 566.514 155.844C566.367 156.196 566.235 156.489 566.118 156.724C566 156.959 565.883 157.179 565.766 157.384C565.678 157.589 565.634 157.692 565.634 157.692C565.604 157.868 565.546 158.117 565.458 158.44C565.37 158.763 565.282 159.041 565.194 159.276C565.164 159.423 565.12 159.613 565.062 159.848C565.003 160.083 564.959 160.317 564.93 160.552C565.076 160.376 565.282 160.171 565.546 159.936C565.81 159.672 566.147 159.349 566.558 158.968C567.027 158.557 567.438 158.205 567.79 157.912C568.142 157.619 568.494 157.355 568.846 157.12C569.168 156.885 569.462 156.665 569.726 156.46C570.019 156.255 570.166 156.152 570.166 156.152C570.224 156.064 570.283 155.961 570.342 155.844C570.43 155.727 570.518 155.653 570.606 155.624C570.664 155.565 570.767 155.492 570.914 155.404C571.06 155.287 571.207 155.169 571.354 155.052C571.618 154.876 571.896 154.729 572.19 154.612C572.483 154.495 572.791 154.407 573.114 154.348C573.436 154.289 573.744 154.26 574.038 154.26C574.39 154.26 574.756 154.407 575.138 154.7C575.519 154.964 575.871 155.345 576.194 155.844C576.487 156.225 576.663 156.68 576.722 157.208C576.81 157.707 576.824 158.381 576.766 159.232C576.766 159.467 576.692 159.907 576.546 160.552C576.428 161.197 576.34 161.681 576.282 162.004L575.886 163.5H576.238C576.56 163.383 576.868 163.368 577.162 163.456C577.484 163.544 577.646 163.588 577.646 163.588C577.792 163.676 577.924 163.779 578.042 163.896C578.188 164.013 578.32 164.101 578.438 164.16C578.614 164.395 578.584 164.732 578.35 165.172C578.115 165.612 577.851 165.92 577.558 166.096C576.854 166.565 576.223 166.859 575.666 166.976C575.138 167.093 574.58 166.991 573.994 166.668C573.436 166.287 573.055 165.832 572.85 165.304C572.674 164.776 572.6 164.057 572.63 163.148C572.747 161.857 572.82 160.933 572.85 160.376C572.879 159.789 572.732 159.496 572.41 159.496C572.058 159.496 571.574 159.672 570.958 160.024C570.371 160.347 569.711 160.801 568.978 161.388C568.244 161.945 567.511 162.576 566.778 163.28C566.074 163.955 565.443 164.644 564.886 165.348C564.534 165.788 564.152 166.228 563.742 166.668C563.331 167.079 562.832 167.299 562.246 167.328Z" fill="#B8C318"/>
</svg>
