<svg width="900" height="250" viewBox="0 0 900 250" fill="none" xmlns="http://www.w3.org/2000/svg">
<rect y="30" width="900" height="220" rx="60" fill="#E0E772"/>
<rect x="5.5" y="5.5" width="889" height="209" rx="54.5" fill="#FDFDFB" stroke="#B8C318" stroke-width="11"/>
<rect width="190" height="172" transform="translate(355 24)" fill="#FDFDFB"/>
<path d="M391.96 65.24H378.22V67.94H391.96V65.24ZM371.26 72.62V65.24H360.94V59.9H371.26V56.18H378.22V59.9H391.96V56.18H399.28V59.9H409.54V65.24H399.28V72.62H371.26ZM412.42 74.6V80.6H357.82V74.6H412.42ZM371.44 94.58V97.46H381.28V94.58H371.44ZM371.44 87.26V90.14H381.28V87.26H371.44ZM398.74 90.14V87.26H388.36V90.14H398.74ZM398.74 97.46V94.58H388.36V97.46H398.74ZM405.94 102.26H397.54C403.24 104.12 409.24 106.16 413.08 107.72L406.78 112.22C402.76 110.36 395.92 107.6 389.32 105.44L392.92 102.26H376.24L380.62 105.32C375.7 108.08 367.96 110.9 361.84 112.34C360.76 111.02 358.48 108.8 356.92 107.54C362.2 106.4 368.56 104.3 372.76 102.26H364.54V82.46H405.94V102.26ZM440.26 73.52H460.36C456.58 71.18 453.04 68.54 449.98 65.72C447.1 68.72 443.8 71.24 440.26 73.52ZM462.34 92.72H453.58V104.42H461.08L457.06 102.74C458.92 100.04 461.14 95.84 462.34 92.72ZM445.9 92.72H436.84C438.94 95.66 441.22 99.62 442.06 102.26L437.14 104.42H445.9V92.72ZM465.64 80.06H453.58V86.3H472.72V92.72H463.24L469.24 94.88C467.14 98.24 464.8 101.84 462.94 104.42H475.84V110.96H423.94V104.42H435.76C434.8 101.66 432.76 97.7 430.78 94.7L435.52 92.72H426.82V86.3H445.9V80.06H433.72V77.12C431.2 78.32 428.62 79.4 425.98 80.36C425.02 78.26 423.04 75.56 421.24 73.76C432.52 70.52 443.32 64.46 449.02 55.52L455.8 58.58C455.26 59.36 454.72 60.14 454.12 60.98C460 66.26 469.72 71.24 478.72 73.76C477.1 75.32 474.88 78.14 473.8 80C471.1 79.04 468.34 77.84 465.64 76.52V80.06ZM489.1 79.88C488.74 78.5 487.66 75.38 486.88 73.58C488.08 73.22 489.1 72.14 490.36 70.34C491.56 68.72 495.34 62.12 497.5 55.88L504.04 58.52C501.88 63.38 499 68.48 495.94 72.68L500.14 72.38C501.7 69.86 503.26 67.16 504.46 64.46L510.4 68.24C506.98 74.36 502.54 80.54 497.92 85.7L504.22 84.8C503.68 83.36 503.14 81.98 502.54 80.78L507.34 78.98C509.26 82.76 511.12 87.68 511.66 90.92L506.44 93.02C506.32 92.18 506.14 91.16 505.84 90.08C493.12 92.36 490.9 92.84 489.58 93.62C489.22 92.36 488.14 89.06 487.3 87.32C488.92 86.9 490.24 85.58 492.16 83.36C492.94 82.52 494.38 80.84 496.06 78.5C491.38 79.04 490 79.4 489.1 79.88ZM489.28 95.6L494.8 96.5C494.38 101.78 493.42 107.48 492.16 111.14C490.96 110.48 488.32 109.64 486.82 109.28C488.26 105.74 488.92 100.4 489.28 95.6ZM496.18 96.38L501.04 95.18C501.76 99.02 502.42 103.94 502.6 107.12L497.44 108.44C497.38 105.2 496.78 100.16 496.18 96.38ZM533.56 81.86H524.44C525.52 85.94 527.08 89.84 529.12 93.26C530.98 89.84 532.48 86 533.56 81.86ZM528.76 65.36H521.86C521.8 68.84 521.68 72.26 521.56 75.5H527.02C527.68 72.26 528.28 68.6 528.76 65.36ZM537.04 75.26L541.6 76.82C540.1 85.82 537.4 93.38 533.62 99.38C536.2 102.2 539.26 104.42 542.8 105.98C541.24 107.3 539.14 110 538.06 111.92C534.7 110.18 531.82 107.9 529.36 105.08C526.78 107.96 523.96 110.3 520.78 112.28C519.7 110.6 517.84 108.2 516.28 106.94C519.52 105.14 522.52 102.56 525.1 99.32C523.3 96.26 521.74 92.72 520.42 89C519.22 98.12 517.06 105.86 513.04 111.92C511.96 110.78 508.6 108.38 506.92 107.48C507.88 106.22 508.72 104.78 509.44 103.28L505.3 104.78C504.82 102.26 503.62 98.18 502.54 95.12L507.28 93.56C508.3 96.26 509.38 99.56 510.04 102.08C514.06 92.9 514.9 80.06 514.96 65.36H509.98V58.7H530.38L531.4 58.4L536.38 59.06C535.78 64.22 534.7 70.28 533.68 75.5H535.9L537.04 75.26Z" fill="#594A39"/>
<path d="M372.578 171.024C371.786 170.437 371.17 169.601 370.73 168.516C370.319 167.401 370.129 166.375 370.158 165.436C370.129 163.617 370.275 161.74 370.598 159.804C370.95 157.868 371.405 156.064 371.962 154.392C372.343 153.336 372.754 152.265 373.194 151.18C373.634 150.095 374.089 149.068 374.558 148.1C375.027 147.103 375.482 146.267 375.922 145.592C376.831 144.037 377.755 142.791 378.694 141.852C379.662 140.913 380.395 140.297 380.894 140.004C381.715 139.593 382.698 139.285 383.842 139.08C384.986 138.845 386.101 138.845 387.186 139.08C387.949 139.285 388.697 139.579 389.43 139.96C390.193 140.341 390.853 140.811 391.41 141.368C391.733 141.661 391.982 141.969 392.158 142.292C392.334 142.615 392.422 142.952 392.422 143.304C392.422 143.744 392.217 144.169 391.806 144.58C391.395 144.991 390.941 145.269 390.442 145.416C389.943 145.563 389.562 145.475 389.298 145.152C388.917 144.565 388.55 144.125 388.198 143.832C387.846 143.509 387.479 143.275 387.098 143.128C386.775 142.923 386.335 142.82 385.778 142.82C385.25 142.82 384.678 142.923 384.062 143.128C383.446 143.304 382.859 143.627 382.302 144.096C382.097 144.272 381.818 144.521 381.466 144.844C381.143 145.167 380.791 145.563 380.41 146.032C380.058 146.472 379.735 146.956 379.442 147.484C378.621 148.833 377.917 150.212 377.33 151.62C376.773 152.999 376.274 154.509 375.834 156.152C375.629 156.827 375.409 157.663 375.174 158.66C374.939 159.628 374.719 160.596 374.514 161.564C374.338 162.532 374.221 163.383 374.162 164.116C374.074 165.143 374.103 165.949 374.25 166.536C374.397 167.123 374.705 167.519 375.174 167.724C375.643 167.9 376.303 167.885 377.154 167.68C377.917 167.504 378.679 167.211 379.442 166.8C380.234 166.36 380.997 165.817 381.73 165.172C382.463 164.497 383.123 163.705 383.71 162.796C384.238 161.799 384.663 160.889 384.986 160.068C385.338 159.247 385.514 158.601 385.514 158.132C385.543 157.633 385.294 157.399 384.766 157.428C383.563 157.457 382.595 157.413 381.862 157.296C381.158 157.179 380.674 156.885 380.41 156.416C380.029 156.328 379.823 156.005 379.794 155.448C379.794 154.891 380.073 154.436 380.63 154.084C381.129 153.82 381.818 153.659 382.698 153.6C383.578 153.541 384.473 153.571 385.382 153.688C386.321 153.776 387.069 153.981 387.626 154.304C388.271 154.627 388.711 155.111 388.946 155.756C389.21 156.372 389.342 157.032 389.342 157.736C389.371 158.44 389.327 159.1 389.21 159.716C388.946 160.743 388.579 161.74 388.11 162.708C387.67 163.676 387.069 164.659 386.306 165.656C385.866 166.272 385.265 166.917 384.502 167.592C383.739 168.267 382.933 168.868 382.082 169.396C381.261 169.953 380.483 170.393 379.75 170.716C378.577 171.244 377.345 171.625 376.054 171.86C374.793 172.095 373.634 171.816 372.578 171.024ZM398.236 168.692C397.855 168.692 397.547 168.619 397.312 168.472C397.107 168.325 396.843 168.12 396.52 167.856C395.963 167.269 395.508 166.639 395.156 165.964C394.833 165.289 394.716 164.703 394.804 164.204C394.892 163.969 394.921 163.749 394.892 163.544C394.892 163.309 394.892 163.192 394.892 163.192C394.745 163.045 394.701 162.957 394.76 162.928C394.819 162.869 394.877 162.781 394.936 162.664C395.112 162.664 395.171 162.503 395.112 162.18C395.053 161.945 395.141 161.447 395.376 160.684C395.64 159.892 395.992 159.144 396.432 158.44C396.608 158.147 396.872 157.765 397.224 157.296C397.576 156.797 397.957 156.313 398.368 155.844C398.808 155.345 399.204 154.949 399.556 154.656C400.289 154.04 400.964 153.541 401.58 153.16C402.225 152.779 402.871 152.515 403.516 152.368C404.161 152.221 404.821 152.148 405.496 152.148C406.2 152.148 406.772 152.383 407.212 152.852C407.887 153.145 408.356 153.541 408.62 154.04C408.913 154.539 409.104 155.184 409.192 155.976C409.28 156.856 409.192 157.941 408.928 159.232C408.664 160.493 407.945 161.96 406.772 163.632C406.039 164.688 405.32 165.509 404.616 166.096C403.912 166.683 403.135 167.225 402.284 167.724C401.668 168.135 401.008 168.384 400.304 168.472C399.6 168.56 398.911 168.633 398.236 168.692ZM402.724 163.324C403.369 162.767 403.824 162.151 404.088 161.476C404.381 160.801 404.689 160.009 405.012 159.1C405.129 158.924 405.203 158.631 405.232 158.22C405.291 157.809 405.305 157.413 405.276 157.032C405.247 156.621 405.144 156.387 404.968 156.328C404.704 156.123 404.44 156.079 404.176 156.196C403.912 156.284 403.575 156.475 403.164 156.768C402.284 157.501 401.463 158.352 400.7 159.32C399.967 160.259 399.453 161.417 399.16 162.796C399.072 163.529 399.145 164.087 399.38 164.468C399.644 164.82 400.055 164.923 400.612 164.776C401.199 164.6 401.903 164.116 402.724 163.324ZM416.553 169.484C415.996 169.631 415.497 169.469 415.057 169C414.617 168.56 414.309 167.9 414.133 167.02C413.957 166.14 413.987 165.157 414.221 164.072C414.368 163.72 414.485 163.383 414.573 163.06C414.661 162.708 414.705 162.429 414.705 162.224C414.764 161.931 414.881 161.505 415.057 160.948C415.233 160.361 415.424 159.76 415.629 159.144C415.835 158.528 416.025 157.985 416.201 157.516C416.407 157.017 416.539 156.709 416.597 156.592C416.715 156.592 416.817 156.489 416.905 156.284C416.993 156.079 417.037 155.873 417.037 155.668C417.037 155.433 417.081 155.169 417.169 154.876C417.287 154.583 417.404 154.377 417.521 154.26C417.521 154.113 417.551 153.952 417.609 153.776C417.697 153.571 417.741 153.409 417.741 153.292C417.741 153.175 417.771 153.057 417.829 152.94C417.917 152.823 417.961 152.705 417.961 152.588C418.167 152.207 418.431 151.605 418.753 150.784C419.105 149.933 419.472 148.995 419.853 147.968C420.264 146.941 420.645 145.929 420.997 144.932C421.349 143.935 421.628 143.099 421.833 142.424C422.068 141.72 422.185 141.295 422.185 141.148C422.185 140.913 422.273 140.693 422.449 140.488C422.625 140.283 422.831 140.18 423.065 140.18C423.153 140.092 423.359 140.033 423.681 140.004C424.004 139.945 424.224 139.916 424.341 139.916C424.341 139.916 424.4 139.975 424.517 140.092C424.635 140.209 424.811 140.385 425.045 140.62C425.28 140.825 425.5 141.06 425.705 141.324C425.94 141.588 426.057 141.896 426.057 142.248C426.057 142.629 425.999 142.996 425.881 143.348C425.793 143.7 425.617 144.184 425.353 144.8C425.089 145.387 424.679 146.267 424.121 147.44C423.887 148.027 423.637 148.584 423.373 149.112C423.109 149.611 422.977 149.919 422.977 150.036C422.977 150.153 422.919 150.329 422.801 150.564C422.713 150.799 422.611 151.092 422.493 151.444C422.376 151.679 422.215 152.031 422.009 152.5C421.804 152.94 421.584 153.424 421.349 153.952C421.144 154.451 420.968 154.891 420.821 155.272C420.675 155.624 420.601 155.829 420.601 155.888C420.601 156.005 420.587 156.123 420.557 156.24C420.557 156.357 420.499 156.475 420.381 156.592C420.264 156.592 420.191 156.68 420.161 156.856C420.161 157.003 420.161 157.076 420.161 157.076C420.161 157.369 419.927 158.147 419.457 159.408C418.988 161.021 418.548 162.503 418.137 163.852C417.756 165.201 417.565 166.287 417.565 167.108C417.565 167.812 417.448 168.355 417.213 168.736C417.008 169.117 416.788 169.367 416.553 169.484ZM438.674 168.956C438.234 168.985 437.823 169 437.442 169C437.09 169 436.811 168.941 436.606 168.824C436.078 168.384 435.726 168.032 435.55 167.768C435.403 167.504 435.33 167.211 435.33 166.888C435.359 166.477 435.374 166.067 435.374 165.656C435.374 165.216 435.374 164.879 435.374 164.644C435.256 164.527 435.022 164.659 434.67 165.04C434.318 165.421 433.907 165.788 433.438 166.14C432.528 167.167 431.722 167.915 431.018 168.384C430.314 168.824 429.668 169.073 429.082 169.132C428.495 169.22 427.908 169.235 427.322 169.176C426.794 169.117 426.324 168.853 425.914 168.384C425.532 167.915 425.239 167.343 425.034 166.668C424.858 165.993 424.799 165.333 424.858 164.688C425.004 163.485 425.268 162.4 425.65 161.432C426.031 160.435 426.603 159.393 427.366 158.308C427.718 157.839 428.187 157.325 428.774 156.768C429.39 156.211 430.05 155.697 430.754 155.228C431.458 154.729 432.088 154.377 432.646 154.172C433.496 153.791 434.2 153.615 434.758 153.644C435.344 153.673 435.916 153.761 436.474 153.908C436.884 154.113 437.207 154.216 437.442 154.216C437.706 154.216 437.896 154.069 438.014 153.776C438.19 153.541 438.322 153.248 438.41 152.896C438.498 152.544 438.644 152.207 438.85 151.884L439.818 149.024C440.14 148.232 440.522 147.323 440.962 146.296C441.402 145.269 441.9 144.125 442.458 142.864C443.132 141.72 443.704 141.119 444.174 141.06C444.672 141.001 445.186 141.265 445.714 141.852C446.066 142.204 446.256 142.644 446.286 143.172C446.344 143.671 446.212 144.257 445.89 144.932C445.684 145.255 445.464 145.665 445.23 146.164C444.995 146.633 444.716 147.191 444.394 147.836C444.071 148.599 443.734 149.361 443.382 150.124C443.059 150.887 442.722 151.723 442.37 152.632C442.252 153.101 442.091 153.644 441.886 154.26C441.71 154.876 441.563 155.433 441.446 155.932C441.358 156.401 441.255 156.841 441.138 157.252C441.05 157.633 440.947 157.824 440.83 157.824C440.595 158.029 440.375 158.469 440.17 159.144C439.964 159.789 439.788 160.479 439.642 161.212C439.524 161.945 439.422 162.547 439.334 163.016C439.275 163.368 439.231 163.867 439.202 164.512C439.172 165.128 439.158 165.729 439.158 166.316C439.158 166.873 439.158 167.255 439.158 167.46C439.158 168.017 439.114 168.413 439.026 168.648C438.967 168.853 438.85 168.956 438.674 168.956ZM428.73 165.48C429.404 165.48 430.035 165.201 430.622 164.644C431.238 164.057 431.912 163.441 432.646 162.796C433.086 162.356 433.54 161.872 434.01 161.344C434.479 160.787 434.904 160.244 435.286 159.716C435.696 159.188 436.019 158.733 436.254 158.352C436.488 157.971 436.606 157.721 436.606 157.604C436.606 157.457 436.488 157.325 436.254 157.208C436.048 157.091 435.799 157.003 435.506 156.944C435.212 156.856 434.948 156.841 434.714 156.9C434.01 157.105 433.438 157.413 432.998 157.824C432.587 158.235 431.986 158.88 431.194 159.76C430.402 160.728 429.771 161.652 429.302 162.532C428.832 163.412 428.539 164.131 428.422 164.688C428.334 165.216 428.436 165.48 428.73 165.48ZM450.349 161.432C450.173 161.432 449.953 161.432 449.689 161.432C449.425 161.403 449.132 161.329 448.809 161.212C448.369 161.212 448.017 161.124 447.753 160.948C447.518 160.743 447.342 160.537 447.225 160.332C446.902 159.892 446.917 159.555 447.269 159.32C447.65 159.056 448.384 158.865 449.469 158.748C450.466 158.513 451.449 158.352 452.417 158.264C453.385 158.176 454.456 158.132 455.629 158.132C456.392 158.132 457.008 158.205 457.477 158.352C457.976 158.499 458.386 158.733 458.709 159.056C459.149 159.496 459.252 159.965 459.017 160.464C458.782 160.933 458.328 161.109 457.653 160.992C457.448 161.021 457.008 161.051 456.333 161.08C455.688 161.109 455.101 161.153 454.573 161.212C454.25 161.241 453.678 161.285 452.857 161.344C452.036 161.403 451.2 161.432 450.349 161.432ZM466.988 169.484C466.431 169.631 465.932 169.469 465.492 169C465.052 168.56 464.744 167.9 464.568 167.02C464.392 166.14 464.422 165.157 464.656 164.072C464.803 163.72 464.92 163.383 465.008 163.06C465.096 162.708 465.14 162.429 465.14 162.224C465.199 161.931 465.316 161.505 465.492 160.948C465.668 160.361 465.859 159.76 466.064 159.144C466.27 158.528 466.46 157.985 466.636 157.516C466.842 157.017 466.974 156.709 467.032 156.592C467.15 156.592 467.252 156.489 467.34 156.284C467.428 156.079 467.472 155.873 467.472 155.668C467.472 155.433 467.516 155.169 467.604 154.876C467.722 154.583 467.839 154.377 467.956 154.26C467.956 154.113 467.986 153.952 468.044 153.776C468.132 153.571 468.176 153.409 468.176 153.292C468.176 153.175 468.206 153.057 468.264 152.94C468.352 152.823 468.396 152.705 468.396 152.588C468.602 152.207 468.866 151.605 469.188 150.784C469.54 149.933 469.907 148.995 470.288 147.968C470.699 146.941 471.08 145.929 471.432 144.932C471.784 143.935 472.063 143.099 472.268 142.424C472.503 141.72 472.62 141.295 472.62 141.148C472.62 140.913 472.708 140.693 472.884 140.488C473.06 140.283 473.266 140.18 473.5 140.18C473.588 140.092 473.794 140.033 474.116 140.004C474.439 139.945 474.659 139.916 474.776 139.916C474.776 139.916 474.835 139.975 474.952 140.092C475.07 140.209 475.246 140.385 475.48 140.62C475.715 140.825 475.935 141.06 476.14 141.324C476.375 141.588 476.492 141.896 476.492 142.248C476.492 142.629 476.434 142.996 476.316 143.348C476.228 143.7 476.052 144.184 475.788 144.8C475.524 145.387 475.114 146.267 474.556 147.44C474.322 148.027 474.072 148.584 473.808 149.112C473.544 149.611 473.412 149.919 473.412 150.036C473.412 150.153 473.354 150.329 473.236 150.564C473.148 150.799 473.046 151.092 472.928 151.444C472.811 151.679 472.65 152.031 472.444 152.5C472.239 152.94 472.019 153.424 471.784 153.952C471.579 154.451 471.403 154.891 471.256 155.272C471.11 155.624 471.036 155.829 471.036 155.888C471.036 156.005 471.022 156.123 470.992 156.24C470.992 156.357 470.934 156.475 470.816 156.592C470.699 156.592 470.626 156.68 470.596 156.856C470.596 157.003 470.596 157.076 470.596 157.076C470.596 157.369 470.362 158.147 469.892 159.408C469.423 161.021 468.983 162.503 468.572 163.852C468.191 165.201 468 166.287 468 167.108C468 167.812 467.883 168.355 467.648 168.736C467.443 169.117 467.223 169.367 466.988 169.484ZM484.973 168.12C484.093 168.619 483.154 168.912 482.157 169C481.189 169.059 480.279 168.927 479.429 168.604C478.578 168.252 477.889 167.739 477.361 167.064C477.067 166.683 476.789 166.081 476.525 165.26C476.261 164.409 476.217 163.265 476.393 161.828C476.569 160.479 476.979 159.115 477.625 157.736C478.299 156.357 479.121 155.14 480.089 154.084C481.057 153.028 482.113 152.309 483.257 151.928C483.667 151.781 484.078 151.679 484.489 151.62C484.929 151.532 485.501 151.517 486.205 151.576C486.879 151.664 487.481 151.84 488.009 152.104C488.537 152.339 488.918 152.603 489.153 152.896C489.622 153.365 489.93 153.82 490.077 154.26C490.223 154.7 490.282 155.125 490.253 155.536C490.106 156.475 489.681 157.487 488.977 158.572C488.302 159.657 487.349 160.464 486.117 160.992C485.618 161.197 485.031 161.329 484.357 161.388C483.682 161.447 482.758 161.359 481.585 161.124C480.881 160.977 480.411 161.051 480.177 161.344C479.971 161.637 479.883 162.209 479.913 163.06C479.971 163.588 480.089 164.057 480.265 164.468C480.47 164.849 480.837 165.113 481.365 165.26C482.039 165.377 482.523 165.392 482.817 165.304C483.11 165.187 483.477 165.025 483.917 164.82C484.151 164.673 484.371 164.512 484.577 164.336C484.811 164.16 485.031 163.984 485.237 163.808C485.471 163.632 485.662 163.5 485.809 163.412C485.955 163.295 486.102 163.221 486.249 163.192C486.395 163.163 486.542 163.148 486.689 163.148C487.011 163.177 487.319 163.353 487.613 163.676C487.906 163.999 488.097 164.307 488.185 164.6C488.185 164.835 488.038 165.172 487.745 165.612C487.451 166.023 487.055 166.463 486.557 166.932C486.087 167.372 485.559 167.768 484.973 168.12ZM484.401 158.308C484.606 158.22 484.899 158.015 485.281 157.692C485.691 157.369 486.058 157.032 486.381 156.68C486.703 156.299 486.865 156.005 486.865 155.8C486.865 155.477 486.645 155.199 486.205 154.964C485.794 154.729 485.251 154.685 484.577 154.832C484.342 154.891 484.063 155.052 483.741 155.316C483.418 155.58 483.095 155.888 482.773 156.24C482.45 156.563 482.171 156.885 481.937 157.208C481.702 157.501 481.541 157.736 481.453 157.912C481.57 158.059 481.805 158.176 482.157 158.264C482.509 158.352 482.89 158.396 483.301 158.396C483.741 158.396 484.107 158.367 484.401 158.308ZM499.976 167.856C499.683 168.061 499.316 168.179 498.876 168.208C498.465 168.208 498.099 168.047 497.776 167.724C497.219 167.196 496.735 166.155 496.324 164.6C495.913 163.016 495.708 160.875 495.708 158.176C495.825 156.973 495.884 155.859 495.884 154.832C495.913 153.805 495.928 153.233 495.928 153.116C496.251 152.911 496.661 152.852 497.16 152.94C497.688 152.999 498.113 153.101 498.436 153.248C498.729 153.395 498.935 153.615 499.052 153.908C499.199 154.201 499.287 154.729 499.316 155.492C499.375 156.225 499.404 157.355 499.404 158.88C499.316 160.053 499.257 160.992 499.228 161.696C499.199 162.4 499.228 162.811 499.316 162.928C499.433 163.133 499.492 163.251 499.492 163.28C499.492 163.28 499.712 163.06 500.152 162.62C500.387 162.297 500.636 161.872 500.9 161.344C501.193 160.816 501.443 160.391 501.648 160.068C501.971 159.657 502.264 159.261 502.528 158.88C502.821 158.499 503.027 158.249 503.144 158.132C503.261 157.897 503.408 157.677 503.584 157.472C503.76 157.267 503.907 157.061 504.024 156.856C504.347 156.299 504.684 155.844 505.036 155.492C505.388 155.111 505.623 154.92 505.74 154.92C505.857 155.008 506.077 154.993 506.4 154.876C506.723 154.729 506.943 154.656 507.06 154.656C507.265 154.451 507.544 154.451 507.896 154.656C508.013 154.744 508.116 154.847 508.204 154.964C508.292 155.052 508.336 155.155 508.336 155.272C508.336 155.419 508.248 155.785 508.072 156.372C507.925 156.929 507.735 157.487 507.5 158.044C507.295 158.572 507.119 158.88 506.972 158.968C506.972 158.968 506.928 159.012 506.84 159.1C506.752 159.188 506.649 159.291 506.532 159.408C506.473 159.613 506.268 159.995 505.916 160.552C505.593 161.08 505.183 161.696 504.684 162.4C504.215 163.075 503.731 163.749 503.232 164.424C502.733 165.069 502.293 165.641 501.912 166.14C501.619 166.551 501.281 166.917 500.9 167.24C500.519 167.533 500.211 167.739 499.976 167.856ZM517.227 169.792C515.613 169.792 514.367 169.323 513.487 168.384C512.636 167.445 512.211 166.008 512.211 164.072C512.211 163.016 512.401 161.857 512.783 160.596C513.193 159.335 513.721 158.103 514.367 156.9C515.041 155.697 515.775 154.656 516.567 153.776C517.359 152.867 518.151 152.236 518.943 151.884C519.236 151.737 519.544 151.635 519.867 151.576C520.219 151.488 520.556 151.444 520.879 151.444C521.231 151.444 521.612 151.473 522.023 151.532C522.463 151.561 522.873 151.649 523.255 151.796C523.929 152.001 524.516 152.397 525.015 152.984C525.543 153.571 525.807 154.421 525.807 155.536C525.807 155.829 525.777 156.152 525.719 156.504C525.66 156.827 525.557 157.149 525.411 157.472C525.029 158.44 524.443 159.364 523.651 160.244C522.888 161.124 522.081 161.74 521.231 162.092C520.996 162.209 520.761 162.297 520.527 162.356C520.321 162.385 520.101 162.4 519.867 162.4C519.251 162.4 518.693 162.312 518.195 162.136C517.725 161.96 517.285 161.725 516.875 161.432L516.523 161.124L516.303 161.564C516.097 162.121 515.951 162.591 515.863 162.972C515.804 163.353 515.775 163.632 515.775 163.808C515.775 164.16 515.789 164.527 515.819 164.908C515.848 165.26 515.936 165.553 516.083 165.788C516.2 165.935 516.347 166.052 516.523 166.14C516.728 166.228 516.977 166.272 517.271 166.272C517.447 166.272 517.608 166.272 517.755 166.272C517.931 166.243 518.077 166.213 518.195 166.184C518.723 166.067 519.148 165.876 519.471 165.612C519.823 165.319 520.189 165.069 520.571 164.864L520.747 164.776L520.703 164.644C521.201 164.38 521.539 164.219 521.715 164.16C521.891 164.072 522.023 163.999 522.111 163.94C522.228 163.823 522.36 163.764 522.507 163.764C522.917 163.705 523.313 163.823 523.695 164.116C524.105 164.38 524.311 164.717 524.311 165.128C524.311 165.304 524.179 165.583 523.915 165.964C523.68 166.345 523.372 166.727 522.991 167.108C522.639 167.46 522.272 167.739 521.891 167.944C521.803 167.973 521.715 168.017 521.627 168.076C521.539 168.105 521.451 168.149 521.363 168.208H521.407C521.143 168.56 520.879 168.736 520.615 168.736H520.263C520.145 168.941 519.764 169.161 519.119 169.396C518.473 169.66 517.843 169.792 517.227 169.792ZM519.515 159.188C519.779 159.188 520.013 159.144 520.219 159.056C520.453 158.968 520.673 158.865 520.879 158.748C521.583 158.249 522.037 157.604 522.243 156.812C522.448 156.02 522.375 155.419 522.023 155.008C521.964 154.92 521.891 154.861 521.803 154.832C521.715 154.773 521.612 154.744 521.495 154.744C521.172 154.744 520.805 154.847 520.395 155.052C520.013 155.257 519.632 155.551 519.251 155.932C518.869 156.313 518.517 156.768 518.195 157.296L517.623 158.22C517.681 158.191 517.725 158.176 517.755 158.176C517.813 158.147 517.857 158.132 517.887 158.132C518.151 158.132 518.327 158.22 518.415 158.396C518.503 158.572 518.605 158.748 518.723 158.924C518.869 159.1 519.133 159.188 519.515 159.188ZM531.306 170.32C530.924 170.173 530.616 169.939 530.382 169.616C530.147 169.323 530.015 168.883 529.986 168.296C529.956 167.915 529.971 167.357 530.03 166.624C530.088 165.861 530.191 165.099 530.338 164.336C530.338 164.277 530.338 164.219 530.338 164.16C530.367 164.072 530.382 164.013 530.382 163.984C530.411 163.867 530.44 163.691 530.47 163.456C530.499 163.192 530.528 162.987 530.558 162.84C530.616 162.664 530.646 162.649 530.646 162.796L530.91 161.608C531.027 161.08 531.159 160.537 531.306 159.98C531.452 159.423 531.584 158.939 531.702 158.528C531.848 158.088 531.936 157.839 531.966 157.78C531.966 157.78 532.01 157.619 532.098 157.296C532.215 156.944 532.332 156.592 532.45 156.24C532.919 154.773 533.359 153.556 533.77 152.588C534.21 151.62 534.591 150.916 534.914 150.476C534.943 150.388 534.987 150.285 535.046 150.168C535.104 150.021 535.148 149.904 535.178 149.816C535.178 149.493 535.192 149.259 535.222 149.112C535.28 148.965 535.354 148.833 535.442 148.716C535.5 148.599 535.588 148.452 535.706 148.276C535.823 148.071 535.955 147.821 536.102 147.528L536.278 147.044C536.454 146.663 536.674 146.223 536.938 145.724C537.202 145.196 537.392 144.8 537.51 144.536C537.598 144.272 537.774 143.964 538.038 143.612C538.302 143.231 538.595 142.981 538.918 142.864L538.874 142.82C539.02 142.556 539.299 142.351 539.71 142.204C540.12 142.028 540.458 141.94 540.722 141.94C541.132 141.94 541.44 142.057 541.646 142.292C541.88 142.527 541.998 142.849 541.998 143.26C541.998 143.7 541.983 144.023 541.954 144.228C541.954 144.404 541.851 144.609 541.646 144.844H541.69C541.748 144.785 541.734 144.873 541.646 145.108C541.558 145.343 541.484 145.504 541.426 145.592C541.367 145.739 541.294 145.9 541.206 146.076C541.147 146.252 541.074 146.384 540.986 146.472C540.898 146.589 540.663 147 540.282 147.704C539.9 148.379 539.475 149.185 539.006 150.124C538.536 151.033 538.082 151.928 537.642 152.808C537.231 153.659 536.938 154.319 536.762 154.788L536.542 155.448C536.512 155.565 536.498 155.653 536.498 155.712C536.41 155.917 536.322 156.123 536.234 156.328C536.146 156.533 536.058 156.709 535.97 156.856L535.266 159.584L535.09 160.508L534.694 161.52L534.43 162.356C534.371 162.532 534.327 162.723 534.298 162.928C534.268 163.133 534.21 163.28 534.122 163.368C534.122 163.397 534.107 163.441 534.078 163.5C534.078 163.529 534.078 163.559 534.078 163.588C533.96 164.057 533.755 164.717 533.462 165.568C533.198 166.419 533.036 167.357 532.978 168.384C532.978 168.413 532.963 168.443 532.934 168.472C532.934 168.501 532.934 168.531 532.934 168.56C532.846 169.176 532.655 169.645 532.362 169.968C532.098 170.32 531.746 170.437 531.306 170.32Z" fill="#B8C318"/>
</svg>
