<svg width="900" height="250" viewBox="0 0 900 250" fill="none" xmlns="http://www.w3.org/2000/svg">
<rect y="30" width="900" height="220" rx="60" fill="#E0E772"/>
<rect x="5.5" y="5.5" width="889" height="209" rx="54.5" fill="#FDFDFB" stroke="#B8C318" stroke-width="11"/>
<rect width="384" height="172" transform="translate(258 24)" fill="#FDFDFB"/>
<path d="M273.78 100.88H301.56V93.8H273.78V100.88ZM301.56 80H273.78V87.08H301.56V80ZM301.56 66.38H273.78V73.28H301.56V66.38ZM266.58 59.42H309.12V111.56H301.56V107.84H273.78V111.56H266.58V59.42ZM335.7 94.52H345.72V90.62H335.88C335.88 91.88 335.82 93.14 335.7 94.52ZM345.72 81.2H335.88V85.34H345.72V81.2ZM352.62 75.62V105.14C352.62 108.2 352.02 109.88 349.98 110.9C348.06 111.92 345.3 112.04 341.64 112.04C341.28 110.24 340.26 107.6 339.36 105.98C341.58 106.1 343.98 106.1 344.76 106.04C345.48 106.04 345.72 105.8 345.72 105.08V99.74H335.16C334.5 104.3 333.12 108.8 330.72 112.22C329.64 111.08 326.82 108.92 325.38 108.2C329.1 102.8 329.46 95.24 329.46 89.36V75.62H352.62ZM369.72 104.24V74.54H376.74V104.36C376.74 107.9 376.08 109.64 373.68 110.78C371.4 111.86 368.16 112.04 363.84 111.98C363.48 110.06 362.34 107.12 361.26 105.26C364.32 105.38 367.44 105.38 368.46 105.32C369.42 105.32 369.72 105.08 369.72 104.24ZM364.32 76.22V100.7H357.78V76.22H364.32ZM367.74 65.06H379.92V71.48H325.62V65.06H338.4C337.32 63.02 335.58 60.44 333.9 58.46L340.68 56.12C342.84 58.4 345.24 61.64 346.26 63.92L342.96 65.06H359.64C361.44 62.3 363.36 58.76 364.56 56L372.3 58.28C370.86 60.62 369.24 62.96 367.74 65.06ZM436.56 67.46H398.34V71.12H436.56V67.46ZM409.02 83L426.54 81.86C425.46 80.9 424.38 80 423.42 79.22L426.36 77.24H415.98C413.82 79.28 411.42 81.2 409.02 83ZM398.04 77.24V72.44H391.38V60.98H414.42C413.94 59.72 413.4 58.4 412.8 57.38L419.76 55.34C420.78 57.08 421.8 59.18 422.46 60.98H443.82V72.44H437.46V77.24H430.38C434.04 80.18 438.18 83.9 440.4 86.6L434.76 90.38C433.98 89.36 432.9 88.04 431.58 86.66C404.76 88.82 401.52 89.06 399.12 90.02C398.76 88.7 397.8 85.52 397.08 83.84C398.4 83.66 399.72 82.88 401.34 81.68C402.3 81.02 404.46 79.4 406.86 77.24H398.04ZM421.2 104.3H444.36V110.6H391.2V104.3H413.88V99.14H396.42V93.02H413.88V88.46H421.2V93.02H439.56V99.14H421.2V104.3ZM499.5 76.46H488.1C490.2 83.06 493.74 88.28 499.5 91.46V76.46ZM465.66 76.46V92.12C471.54 88.88 475.32 83.48 477.3 76.46H465.66ZM506.82 69.5V103.88C506.82 107.78 506.04 109.76 503.46 110.96C500.94 112.1 497.22 112.16 491.94 112.16C491.7 110.12 490.62 106.88 489.6 104.96C492.9 105.08 496.92 105.08 498.06 105.08C499.14 105.08 499.5 104.72 499.5 103.76V93.02C498.06 94.58 496.38 96.74 495.48 98.24C489.18 94.52 485.1 88.88 482.58 81.98C479.94 89.48 475.68 95 468.9 98.6C468.24 97.52 466.92 95.72 465.66 94.34V112.22H458.4V69.5H479.64C479.46 68 479.34 66.44 479.22 64.88H469.08V58.64H485.4C485.52 62.48 485.88 66.08 486.42 69.5H506.82ZM542.52 56.24H550.74C550.68 58.76 550.56 62 550.32 65.6C551.16 73.7 554.82 96.32 575.76 105.56C573.54 107.3 571.5 109.7 570.54 111.74C557.22 105.38 550.56 93.68 547.08 83.36C543.78 93.92 537.48 104.78 525 112.1C523.74 110.18 521.46 107.9 519.06 106.28C543.42 93.26 542.28 66.38 542.52 56.24ZM616.32 97.46H610.98C610.5 99.44 609.54 101.48 607.74 103.4C609.66 104.24 611.52 105.02 613.2 105.8C617.88 103.22 621.3 99.86 623.88 95.48C622.44 91.76 621.3 87.62 620.34 83.12C619.56 84.98 618.72 86.72 617.88 88.22C617.22 87.38 615.66 85.82 614.4 84.68V89.96H601.8C601.38 90.86 600.9 91.76 600.42 92.66H605.76V90.92H611.34V92.66H616.32V97.46ZM605.04 97.46H597.54C597.12 98.18 596.64 98.84 596.22 99.5C598.14 100.04 600.06 100.58 601.92 101.24C603.48 100.04 604.44 98.72 605.04 97.46ZM593.1 83.36V86H597.84V83.36H593.1ZM608.16 83.36H603.24V86H608.16V83.36ZM629.88 73.52H623.76C624.54 78.68 625.68 83.6 627.18 87.98C628.5 83.78 629.34 78.98 629.88 73.52ZM593.52 73.1H597.84V70.64H593.52V73.1ZM597.84 64.22H593.52V66.32H597.84V64.22ZM607.92 64.22H603.24V66.32H607.92V64.22ZM603.24 73.1H607.92V70.64H603.24V73.1ZM640.02 73.52H636C634.98 82.28 633.24 89.6 630.42 95.66C632.94 100.4 636.36 104.18 640.74 106.58C639.24 107.78 637.2 110.36 636.24 112.1C632.34 109.52 629.22 106.04 626.76 101.72C623.52 106.16 619.32 109.64 613.8 112.4C613.44 111.62 612.66 110.18 611.82 108.92L610.02 110.54C608.1 109.4 605.64 108.2 602.82 107.06C599.16 109.16 593.82 110.96 586.26 112.22C585.78 110.84 584.46 108.74 583.5 107.6C588.9 106.76 592.92 105.74 596.04 104.48C593.28 103.52 590.4 102.68 587.76 102.02C588.84 100.7 589.98 99.14 591.06 97.46H584.7V92.66H594.12C594.66 91.76 595.14 90.86 595.56 89.96H587.22V79.34H597.84V77.6H588.24V71H584.1V65.96H588.24V59.78H597.84V56.18H603.24V59.78H613.56V65.96H616.68V71H613.56V77.6H603.24V79.34H614.4V81.74C617.7 75.08 620.16 65.48 621.66 56.18L627.54 57.26C627 60.56 626.28 63.98 625.44 67.28H640.02V73.52Z" fill="#594A39"/>
<path d="M288.328 171.904C287.888 171.728 287.374 171.479 286.788 171.156C286.201 170.863 285.644 170.467 285.116 169.968C284.588 169.469 284.177 168.868 283.884 168.164C283.59 167.313 283.385 166.477 283.268 165.656C283.18 164.835 283.15 163.881 283.18 162.796C283.18 161.271 283.282 159.951 283.488 158.836C283.722 157.692 284.074 156.533 284.544 155.36C284.602 155.272 284.705 155.023 284.852 154.612C285.028 154.172 285.218 153.703 285.424 153.204C285.658 152.705 285.834 152.324 285.952 152.06C286.186 151.561 286.538 150.901 287.008 150.08C287.506 149.229 288.034 148.408 288.592 147.616C289.442 146.355 290.161 145.328 290.748 144.536C291.334 143.715 291.892 143.025 292.42 142.468C292.977 141.911 293.578 141.368 294.224 140.84C294.898 140.312 295.734 139.711 296.732 139.036C297.377 138.567 298.198 138.273 299.196 138.156C300.222 138.039 301.22 138.2 302.188 138.64C303.156 139.051 303.874 139.843 304.344 141.016C304.666 141.632 304.813 142.409 304.784 143.348C304.754 144.257 304.578 145.24 304.256 146.296C303.933 147.323 303.522 148.291 303.024 149.2C302.525 150.109 301.968 150.843 301.352 151.4C300.97 151.752 300.457 151.811 299.812 151.576C299.196 151.341 298.682 151.033 298.272 150.652C298.008 150.153 297.861 149.86 297.832 149.772C297.832 149.684 297.89 149.625 298.008 149.596C298.184 149.391 298.418 149.039 298.712 148.54C299.005 148.041 299.298 147.513 299.592 146.956C299.885 146.369 300.09 145.9 300.208 145.548C300.442 144.316 300.604 143.509 300.692 143.128C300.78 142.717 300.692 142.38 300.428 142.116C300.31 141.999 300.134 141.955 299.9 141.984C299.694 142.013 299.342 142.16 298.844 142.424C298.169 142.717 297.362 143.319 296.424 144.228C295.514 145.108 294.605 146.164 293.696 147.396C292.522 148.951 291.54 150.329 290.748 151.532C289.956 152.735 289.354 153.967 288.944 155.228C288.885 155.345 288.782 155.565 288.636 155.888C288.518 156.211 288.46 156.372 288.46 156.372C288.489 156.489 288.445 156.783 288.328 157.252C288.21 157.692 288.078 158.073 287.932 158.396C287.609 159.745 287.418 161.051 287.36 162.312C287.301 163.544 287.374 164.629 287.58 165.568C287.814 166.477 288.152 167.152 288.592 167.592C288.973 167.856 289.457 167.944 290.044 167.856C290.63 167.768 291.305 167.563 292.068 167.24C292.83 166.917 293.652 166.565 294.532 166.184C295.236 165.891 295.881 165.568 296.468 165.216C297.054 164.864 297.494 164.556 297.788 164.292C298.022 164.116 298.316 163.94 298.668 163.764C299.049 163.559 299.372 163.456 299.636 163.456C300.046 163.309 300.354 163.427 300.56 163.808C300.765 164.189 300.868 164.673 300.868 165.26C300.868 165.671 300.574 166.169 299.988 166.756C299.401 167.343 298.756 167.841 298.052 168.252C297.817 168.487 297.494 168.707 297.084 168.912C296.702 169.088 296.306 169.249 295.896 169.396C295.28 169.865 294.517 170.32 293.608 170.76C292.698 171.2 291.774 171.537 290.836 171.772C289.926 172.007 289.09 172.051 288.328 171.904ZM317.447 168.912C317.153 168.619 316.919 168.223 316.743 167.724C316.567 167.196 316.391 166.595 316.215 165.92C316.156 165.685 316.127 165.421 316.127 165.128C316.156 164.835 316.156 164.6 316.127 164.424C316.039 164.629 315.892 164.893 315.687 165.216C315.511 165.539 315.335 165.773 315.159 165.92C315.041 166.037 314.777 166.272 314.367 166.624C313.956 166.947 313.545 167.211 313.135 167.416C312.167 168.032 311.301 168.325 310.539 168.296C309.805 168.237 309.16 167.856 308.603 167.152C308.133 166.771 307.752 166.287 307.459 165.7C307.165 165.113 307.107 164.409 307.283 163.588C307.341 162.561 307.488 161.564 307.723 160.596C307.957 159.599 308.441 158.279 309.175 156.636C309.791 155.433 310.26 154.495 310.583 153.82C310.905 153.145 311.111 152.749 311.199 152.632C311.639 152.485 312.181 152.5 312.827 152.676C313.472 152.823 313.824 153.101 313.883 153.512C314.059 153.805 314.059 154.363 313.883 155.184C313.707 155.976 313.355 156.885 312.827 157.912C312.416 158.909 312.02 159.877 311.639 160.816C311.287 161.755 311.067 162.547 310.979 163.192C310.92 163.837 311.096 164.233 311.507 164.38C311.771 164.527 312.152 164.512 312.651 164.336C313.179 164.16 313.795 163.632 314.499 162.752C315.203 161.872 315.951 160.479 316.743 158.572C316.977 157.985 317.153 157.472 317.271 157.032C317.388 156.563 317.461 156.049 317.491 155.492C317.432 155.14 317.52 154.773 317.755 154.392C318.019 154.011 318.327 153.717 318.679 153.512C318.796 153.365 318.957 153.233 319.163 153.116C319.368 152.969 319.5 152.969 319.559 153.116L320.263 153.072C320.38 153.043 320.512 153.16 320.659 153.424C320.805 153.688 320.952 153.879 321.099 153.996C321.421 154.26 321.568 154.832 321.539 155.712C321.509 156.592 321.157 157.824 320.483 159.408C319.925 160.611 319.544 161.52 319.339 162.136C319.163 162.752 319.06 163.353 319.031 163.94C319.031 164.468 319.075 164.923 319.163 165.304C319.251 165.656 319.515 166.023 319.955 166.404C320.277 166.609 320.453 166.961 320.483 167.46C320.541 167.929 320.556 168.34 320.527 168.692C320.468 168.956 320.233 169.132 319.823 169.22C319.441 169.337 319.016 169.367 318.547 169.308C318.107 169.249 317.74 169.117 317.447 168.912ZM327.704 167.812C327.44 167.607 327.147 167.343 326.824 167.02C326.531 166.697 326.428 166.243 326.516 165.656C326.604 164.835 326.721 164.116 326.868 163.5C327.015 162.855 327.191 162.121 327.396 161.3C327.455 160.948 327.601 160.347 327.836 159.496C328.1 158.645 328.408 157.721 328.76 156.724C329.112 155.727 329.479 154.788 329.86 153.908C330.241 152.999 330.579 152.324 330.872 151.884C331.195 151.591 331.664 151.444 332.28 151.444C332.925 151.444 333.365 151.561 333.6 151.796C333.923 152.06 334.025 152.529 333.908 153.204C333.791 153.849 333.38 154.861 332.676 156.24C332.529 156.592 332.339 156.973 332.104 157.384C331.899 157.765 331.752 158.088 331.664 158.352C331.576 158.587 331.605 158.689 331.752 158.66C331.928 158.337 332.251 157.971 332.72 157.56C333.189 157.12 333.688 156.695 334.216 156.284C334.744 155.873 335.243 155.507 335.712 155.184C336.181 154.861 336.504 154.656 336.68 154.568C336.915 154.421 337.179 154.304 337.472 154.216C337.795 154.099 338.015 154.011 338.132 153.952C338.807 153.629 339.54 153.512 340.332 153.6C341.153 153.659 341.652 153.908 341.828 154.348C341.857 154.583 341.945 154.759 342.092 154.876C342.268 154.993 342.356 155.052 342.356 155.052C342.473 155.052 342.532 155.096 342.532 155.184C342.561 155.272 342.576 155.316 342.576 155.316C342.576 155.521 342.371 155.815 341.96 156.196C341.579 156.577 341.153 156.783 340.684 156.812C340.303 156.841 339.965 156.915 339.672 157.032C339.379 157.149 339.027 157.296 338.616 157.472C337.501 158.117 336.489 158.689 335.58 159.188C334.7 159.687 333.791 160.449 332.852 161.476C332.647 161.711 332.427 161.931 332.192 162.136C331.957 162.341 331.723 162.635 331.488 163.016C331.341 163.163 331.195 163.485 331.048 163.984C330.901 164.483 330.769 164.967 330.652 165.436C330.564 165.876 330.52 166.14 330.52 166.228C330.52 166.228 330.476 166.375 330.388 166.668C330.3 166.932 330.153 167.196 329.948 167.46C329.596 167.929 329.244 168.223 328.892 168.34C328.569 168.457 328.173 168.281 327.704 167.812ZM349.763 168.076C349.675 168.105 349.485 168.091 349.191 168.032C348.927 167.973 348.649 167.9 348.355 167.812C348.091 167.724 347.93 167.651 347.871 167.592C347.754 167.475 347.593 167.269 347.387 166.976C347.182 166.653 347.065 166.228 347.035 165.7C347.035 165.172 347.285 164.541 347.783 163.808C347.93 163.515 348.106 163.075 348.311 162.488C348.517 161.901 348.722 161.285 348.927 160.64C349.162 159.965 349.367 159.364 349.543 158.836C349.749 158.308 349.895 157.941 349.983 157.736C350.042 157.237 350.013 156.885 349.895 156.68C349.807 156.445 349.558 156.313 349.147 156.284C348.854 156.284 348.619 156.181 348.443 155.976C348.297 155.771 348.223 155.404 348.223 154.876C348.282 154.465 348.385 154.113 348.531 153.82C348.707 153.497 348.942 153.233 349.235 153.028C349.529 152.881 349.895 152.779 350.335 152.72C350.805 152.661 351.259 152.647 351.699 152.676C352.139 152.705 352.447 152.808 352.623 152.984C352.829 153.101 352.99 153.365 353.107 153.776C353.254 154.157 353.371 154.553 353.459 154.964C353.547 155.375 353.606 155.683 353.635 155.888C353.929 155.653 354.251 155.331 354.603 154.92C354.985 154.48 355.366 154.069 355.747 153.688C356.217 153.365 356.774 153.043 357.419 152.72C358.065 152.368 358.534 152.192 358.827 152.192C359.15 152.192 359.546 152.353 360.015 152.676C360.485 152.969 360.778 153.233 360.895 153.468C361.189 153.967 361.394 154.495 361.511 155.052C361.658 155.58 361.57 156.049 361.247 156.46C360.954 156.841 360.543 157.223 360.015 157.604C359.487 157.956 358.827 158.059 358.035 157.912C357.859 157.853 357.669 157.633 357.463 157.252C357.287 156.871 357.185 156.592 357.155 156.416C357.155 156.328 357.023 156.416 356.759 156.68C356.525 156.915 356.231 157.208 355.879 157.56C355.557 157.912 355.249 158.235 354.955 158.528C354.457 159.144 353.929 159.98 353.371 161.036C352.814 162.092 352.154 163.368 351.391 164.864C351.039 165.597 350.746 166.301 350.511 166.976C350.277 167.621 350.027 167.988 349.763 168.076ZM370.063 169.792C368.449 169.792 367.203 169.323 366.323 168.384C365.472 167.445 365.047 166.008 365.047 164.072C365.047 163.016 365.237 161.857 365.619 160.596C366.029 159.335 366.557 158.103 367.203 156.9C367.877 155.697 368.611 154.656 369.403 153.776C370.195 152.867 370.987 152.236 371.779 151.884C372.072 151.737 372.38 151.635 372.703 151.576C373.055 151.488 373.392 151.444 373.715 151.444C374.067 151.444 374.448 151.473 374.859 151.532C375.299 151.561 375.709 151.649 376.091 151.796C376.765 152.001 377.352 152.397 377.851 152.984C378.379 153.571 378.643 154.421 378.643 155.536C378.643 155.829 378.613 156.152 378.555 156.504C378.496 156.827 378.393 157.149 378.247 157.472C377.865 158.44 377.279 159.364 376.487 160.244C375.724 161.124 374.917 161.74 374.067 162.092C373.832 162.209 373.597 162.297 373.363 162.356C373.157 162.385 372.937 162.4 372.703 162.4C372.087 162.4 371.529 162.312 371.031 162.136C370.561 161.96 370.121 161.725 369.711 161.432L369.359 161.124L369.139 161.564C368.933 162.121 368.787 162.591 368.699 162.972C368.64 163.353 368.611 163.632 368.611 163.808C368.611 164.16 368.625 164.527 368.655 164.908C368.684 165.26 368.772 165.553 368.919 165.788C369.036 165.935 369.183 166.052 369.359 166.14C369.564 166.228 369.813 166.272 370.107 166.272C370.283 166.272 370.444 166.272 370.591 166.272C370.767 166.243 370.913 166.213 371.031 166.184C371.559 166.067 371.984 165.876 372.307 165.612C372.659 165.319 373.025 165.069 373.407 164.864L373.583 164.776L373.539 164.644C374.037 164.38 374.375 164.219 374.551 164.16C374.727 164.072 374.859 163.999 374.947 163.94C375.064 163.823 375.196 163.764 375.343 163.764C375.753 163.705 376.149 163.823 376.531 164.116C376.941 164.38 377.147 164.717 377.147 165.128C377.147 165.304 377.015 165.583 376.751 165.964C376.516 166.345 376.208 166.727 375.827 167.108C375.475 167.46 375.108 167.739 374.727 167.944C374.639 167.973 374.551 168.017 374.463 168.076C374.375 168.105 374.287 168.149 374.199 168.208H374.243C373.979 168.56 373.715 168.736 373.451 168.736H373.099C372.981 168.941 372.6 169.161 371.955 169.396C371.309 169.66 370.679 169.792 370.063 169.792ZM372.351 159.188C372.615 159.188 372.849 159.144 373.055 159.056C373.289 158.968 373.509 158.865 373.715 158.748C374.419 158.249 374.873 157.604 375.079 156.812C375.284 156.02 375.211 155.419 374.859 155.008C374.8 154.92 374.727 154.861 374.639 154.832C374.551 154.773 374.448 154.744 374.331 154.744C374.008 154.744 373.641 154.847 373.231 155.052C372.849 155.257 372.468 155.551 372.087 155.932C371.705 156.313 371.353 156.768 371.031 157.296L370.459 158.22C370.517 158.191 370.561 158.176 370.591 158.176C370.649 158.147 370.693 158.132 370.723 158.132C370.987 158.132 371.163 158.22 371.251 158.396C371.339 158.572 371.441 158.748 371.559 158.924C371.705 159.1 371.969 159.188 372.351 159.188ZM386.122 167.504C386.005 167.504 385.726 167.401 385.286 167.196C384.846 166.961 384.567 166.785 384.45 166.668C384.245 166.433 384.113 166.184 384.054 165.92C383.995 165.627 383.966 165.069 383.966 164.248C383.966 163.309 384.157 162.253 384.538 161.08C384.919 159.877 385.565 158.279 386.474 156.284L388.278 152.632C388.425 152.427 388.557 152.251 388.674 152.104C388.791 151.928 388.923 151.767 389.07 151.62C389.129 151.62 389.202 151.62 389.29 151.62C389.407 151.62 389.495 151.635 389.554 151.664C389.818 151.693 390.229 151.855 390.786 152.148C391.373 152.441 391.725 152.881 391.842 153.468C391.842 153.849 391.783 154.304 391.666 154.832C391.549 155.331 391.197 155.991 390.61 156.812C390.375 157.105 390.141 157.531 389.906 158.088C389.701 158.645 389.51 159.173 389.334 159.672C389.305 159.731 389.217 159.877 389.07 160.112C388.953 160.317 388.835 160.537 388.718 160.772C388.601 160.977 388.542 161.109 388.542 161.168L388.366 161.564L390.258 159.716C391.578 158.396 392.693 157.457 393.602 156.9C394.511 156.343 395.274 156.108 395.89 156.196C396.535 156.284 397.049 156.651 397.43 157.296C397.635 157.589 397.782 157.912 397.87 158.264C397.958 158.587 398.017 158.968 398.046 159.408C398.075 159.848 398.061 160.405 398.002 161.08V163.588C398.559 163.441 398.985 163.324 399.278 163.236C399.571 163.119 399.865 163.016 400.158 162.928C400.393 162.869 400.627 162.811 400.862 162.752C401.126 162.693 401.449 162.649 401.83 162.62C401.801 163.001 401.639 163.471 401.346 164.028C401.053 164.585 400.686 165.143 400.246 165.7C399.835 166.257 399.381 166.727 398.882 167.108C398.413 167.489 397.973 167.68 397.562 167.68C397.181 167.68 396.741 167.563 396.242 167.328C395.743 167.064 395.318 166.565 394.966 165.832C394.849 165.451 394.731 165.011 394.614 164.512C394.497 164.013 394.438 163.485 394.438 162.928V160.992C394.438 160.816 394.423 160.699 394.394 160.64C394.394 160.552 394.379 160.508 394.35 160.508C394.233 160.508 393.851 160.816 393.206 161.432C392.59 162.048 391.959 162.693 391.314 163.368C389.965 164.776 388.835 165.817 387.926 166.492C387.046 167.167 386.445 167.504 386.122 167.504ZM410.673 169.044C410.351 168.985 409.999 168.795 409.617 168.472C409.236 168.12 408.884 167.739 408.561 167.328C408.268 166.888 408.077 166.521 407.989 166.228C407.989 166.169 407.945 166.096 407.857 166.008C407.799 165.92 407.769 165.876 407.769 165.876C407.652 165.788 407.579 165.407 407.549 164.732C407.549 164.028 407.593 163.251 407.681 162.4C407.769 161.549 407.872 160.875 407.989 160.376C408.136 159.907 408.356 159.276 408.649 158.484C408.943 157.663 409.192 156.929 409.397 156.284L410.585 153.732L408.825 153.248C408.62 153.189 408.444 153.072 408.297 152.896C408.18 152.72 408.121 152.573 408.121 152.456C408.121 152.221 408.253 151.884 408.517 151.444C408.781 151.004 408.972 150.784 409.089 150.784C409.236 150.813 409.5 150.828 409.881 150.828C410.292 150.828 410.688 150.813 411.069 150.784C411.451 150.755 411.685 150.725 411.773 150.696C411.891 150.637 412.008 150.564 412.125 150.476C412.243 150.359 412.331 150.197 412.389 149.992C412.536 149.669 412.668 149.42 412.785 149.244C412.903 149.068 413.064 148.804 413.269 148.452C413.475 148.071 413.636 147.748 413.753 147.484C413.9 147.22 414.12 146.853 414.413 146.384C414.56 146.179 414.721 145.929 414.897 145.636C415.073 145.343 415.293 145.093 415.557 144.888C415.821 144.653 416.247 144.492 416.833 144.404C417.449 144.287 417.977 144.419 418.417 144.8C418.652 145.093 418.784 145.372 418.813 145.636C418.843 145.9 418.725 146.237 418.461 146.648C418.227 147.147 417.948 147.601 417.625 148.012C417.332 148.393 417.053 148.833 416.789 149.332C416.32 149.977 416.232 150.344 416.525 150.432C416.819 150.52 417.64 150.461 418.989 150.256C419.84 150.109 420.456 150.197 420.837 150.52C421.219 150.843 421.439 151.253 421.497 151.752C421.585 152.456 421.512 152.881 421.277 153.028C421.043 153.175 420.368 153.248 419.253 153.248C418.549 153.365 417.948 153.439 417.449 153.468C416.951 153.468 416.584 153.468 416.349 153.468C415.968 153.497 415.719 153.512 415.601 153.512C415.484 153.512 415.308 153.541 415.073 153.6C414.839 153.659 414.663 153.761 414.545 153.908C414.457 154.025 414.355 154.201 414.237 154.436C414.12 154.553 413.944 154.861 413.709 155.36C413.475 155.859 413.181 156.401 412.829 156.988C412.419 158.22 412.067 159.408 411.773 160.552C411.509 161.667 411.275 162.781 411.069 163.896C410.981 164.453 410.996 164.864 411.113 165.128C411.26 165.363 411.641 165.509 412.257 165.568C412.58 165.597 413.049 165.597 413.665 165.568C414.281 165.509 414.795 165.421 415.205 165.304C415.528 165.157 415.865 165.011 416.217 164.864C416.569 164.688 416.892 164.512 417.185 164.336C417.449 164.189 417.713 164.043 417.977 163.896C418.241 163.72 418.373 163.632 418.373 163.632C418.52 163.397 418.725 163.441 418.989 163.764C419.283 164.057 419.488 164.38 419.605 164.732C419.605 165.084 419.532 165.509 419.385 166.008C419.239 166.477 418.696 166.976 417.757 167.504C416.437 168.325 415.117 168.824 413.797 169C412.477 169.176 411.436 169.191 410.673 169.044ZM443.64 170.54C442.555 169.748 441.689 169.015 441.044 168.34C440.428 167.636 440.091 166.961 440.032 166.316C439.973 165.788 439.973 165.069 440.032 164.16C440.12 163.251 440.223 162.356 440.34 161.476C440.457 160.596 440.56 159.936 440.648 159.496C440.795 159.349 440.853 159.159 440.824 158.924C440.824 158.66 440.824 158.528 440.824 158.528C440.795 158.381 440.897 158 441.132 157.384C441.367 156.739 441.587 155.917 441.792 154.92C442.379 153.16 442.936 151.693 443.464 150.52C444.021 149.317 444.564 148.291 445.092 147.44C445.62 146.589 446.148 145.812 446.676 145.108C447.879 143.876 449.008 142.893 450.064 142.16C451.149 141.427 452.147 140.855 453.056 140.444C453.643 140.092 454.185 139.813 454.684 139.608C455.183 139.403 455.593 139.373 455.916 139.52C457.559 139.872 458.952 140.591 460.096 141.676C461.24 142.761 462.003 144.331 462.384 146.384C462.589 147.675 462.707 148.848 462.736 149.904C462.795 150.931 462.721 151.957 462.516 152.984C462.311 153.981 461.929 155.081 461.372 156.284C460.844 157.487 460.096 158.895 459.128 160.508C457.925 162.884 456.605 164.879 455.168 166.492C453.76 168.076 452.337 169.279 450.9 170.1C449.492 170.921 448.143 171.361 446.852 171.42C445.591 171.508 444.52 171.215 443.64 170.54ZM447.16 167.636C447.835 167.548 448.377 167.416 448.788 167.24C449.228 167.064 449.683 166.727 450.152 166.228C450.621 165.729 451.281 164.996 452.132 164.028C452.895 163.148 453.525 162.4 454.024 161.784C454.552 161.168 454.992 160.537 455.344 159.892C455.725 159.247 456.077 158.484 456.4 157.604C456.752 156.695 457.133 155.536 457.544 154.128C457.779 153.248 457.94 152.603 458.028 152.192C458.145 151.752 458.219 151.385 458.248 151.092C458.277 150.799 458.277 150.403 458.248 149.904C458.248 149.376 458.248 148.584 458.248 147.528C458.219 147.029 458.116 146.472 457.94 145.856C457.764 145.211 457.559 144.756 457.324 144.492C457.031 144.169 456.591 143.891 456.004 143.656C455.417 143.421 454.801 143.451 454.156 143.744C453.804 143.891 453.364 144.199 452.836 144.668C452.308 145.108 451.765 145.636 451.208 146.252C450.651 146.868 450.123 147.484 449.624 148.1C449.125 148.716 448.729 149.273 448.436 149.772C448.143 150.271 447.996 150.623 447.996 150.828C447.996 150.828 447.981 150.901 447.952 151.048C447.952 151.195 447.893 151.341 447.776 151.488C447.395 151.899 446.999 152.573 446.588 153.512C446.177 154.451 445.796 155.521 445.444 156.724C445.092 157.927 444.799 159.129 444.564 160.332C444.329 161.535 444.183 162.62 444.124 163.588C444.124 164.057 444.124 164.453 444.124 164.776C444.124 165.099 444.153 165.392 444.212 165.656C444.3 165.891 444.432 166.155 444.608 166.448C444.784 166.741 445.136 167.035 445.664 167.328C446.221 167.621 446.72 167.724 447.16 167.636ZM469.419 168.648C468.774 168.648 468.29 168.619 467.967 168.56C467.674 168.501 467.454 168.413 467.307 168.296C467.16 168.179 466.97 168.017 466.735 167.812C466.618 167.577 466.412 167.284 466.119 166.932C465.826 166.551 465.62 166.301 465.503 166.184C465.386 165.744 465.342 165.143 465.371 164.38C465.43 163.617 465.562 162.796 465.767 161.916C465.972 161.036 466.222 160.244 466.515 159.54C466.632 159.305 466.735 159.071 466.823 158.836C466.911 158.601 466.955 158.484 466.955 158.484C466.955 158.337 467.131 157.985 467.483 157.428C467.864 156.871 468.275 156.284 468.715 155.668C469.184 155.052 469.566 154.612 469.859 154.348C470.064 154.113 470.372 153.864 470.783 153.6C471.223 153.336 471.604 153.145 471.927 153.028C472.25 152.911 472.69 152.764 473.247 152.588C473.804 152.383 474.303 152.28 474.743 152.28C475.154 152.28 475.594 152.368 476.063 152.544C476.532 152.72 476.928 153.028 477.251 153.468C477.779 153.996 478.116 154.627 478.263 155.36C478.41 156.093 478.424 156.724 478.307 157.252C478.16 157.839 477.867 158.323 477.427 158.704C476.987 159.056 476.518 159.247 476.019 159.276C475.52 159.276 475.08 159.071 474.699 158.66C474.582 158.425 474.523 158.235 474.523 158.088C474.523 157.912 474.582 157.663 474.699 157.34C474.816 156.929 474.875 156.563 474.875 156.24C474.875 155.917 474.743 155.756 474.479 155.756C474.098 155.756 473.79 155.873 473.555 156.108C473.32 156.313 472.968 156.665 472.499 157.164C472.294 157.399 472.03 157.736 471.707 158.176C471.384 158.616 471.062 159.1 470.739 159.628C470.446 160.127 470.182 160.64 469.947 161.168C469.624 162.136 469.419 162.767 469.331 163.06C469.272 163.324 469.243 163.456 469.243 163.456C469.243 163.573 469.228 163.691 469.199 163.808C469.17 163.896 469.155 163.999 469.155 164.116C469.155 164.468 469.36 164.747 469.771 164.952C470.094 165.157 470.358 165.26 470.563 165.26C470.798 165.231 471.238 165.069 471.883 164.776C472.352 164.541 472.792 164.233 473.203 163.852C473.643 163.471 474.098 163.133 474.567 162.84C474.89 162.635 475.139 162.459 475.315 162.312C475.52 162.165 475.623 162.151 475.623 162.268C475.623 162.385 475.667 162.444 475.755 162.444C475.843 162.444 475.946 162.385 476.063 162.268C476.239 162.033 476.459 161.945 476.723 162.004C476.987 162.033 477.222 162.107 477.427 162.224C477.662 162.341 477.779 162.444 477.779 162.532C477.72 162.796 477.779 163.016 477.955 163.192C477.955 163.309 477.911 163.471 477.823 163.676C477.764 163.852 477.676 163.999 477.559 164.116C477.412 164.321 477.192 164.615 476.899 164.996C476.635 165.377 476.386 165.715 476.151 166.008C475.916 166.301 475.799 166.448 475.799 166.448C475.682 166.419 475.564 166.448 475.447 166.536C475.359 166.624 475.256 166.727 475.139 166.844C474.904 167.049 474.684 167.211 474.479 167.328C474.274 167.416 474.112 167.46 473.995 167.46C473.79 167.577 473.628 167.651 473.511 167.68C473.423 167.709 473.379 167.783 473.379 167.9C473.086 168.193 472.558 168.399 471.795 168.516C471.032 168.604 470.24 168.648 469.419 168.648ZM491.434 168.604C491.053 168.78 490.613 168.853 490.114 168.824C489.616 168.795 488.941 168.633 488.09 168.34C488.032 168.34 487.826 168.208 487.474 167.944C487.122 167.68 486.77 167.372 486.418 167.02C486.066 166.668 485.832 166.375 485.714 166.14C485.245 165.465 485.098 164.468 485.274 163.148C485.48 161.828 485.949 160.244 486.682 158.396C486.888 157.956 487.196 157.399 487.606 156.724C488.046 156.049 488.472 155.433 488.882 154.876C489.322 154.289 489.63 153.952 489.806 153.864C489.806 153.864 489.968 153.805 490.29 153.688C490.613 153.571 491.024 153.38 491.522 153.116C491.669 153.057 491.918 152.984 492.27 152.896C492.652 152.808 493.033 152.735 493.414 152.676C493.825 152.588 494.104 152.559 494.25 152.588C494.837 152.617 495.438 152.837 496.054 153.248C496.7 153.629 497.228 154.084 497.638 154.612C498.049 155.111 498.181 155.551 498.034 155.932C498.034 155.991 497.946 156.181 497.77 156.504C497.624 156.797 497.462 157.105 497.286 157.428C497.11 157.721 496.964 157.941 496.846 158.088C496.7 158.264 496.436 158.337 496.054 158.308C495.702 158.279 495.38 158.161 495.086 157.956C494.793 157.751 494.632 157.472 494.602 157.12C494.544 156.885 494.324 156.665 493.942 156.46C493.59 156.255 493.414 156.152 493.414 156.152C493.18 156.152 492.872 156.387 492.49 156.856C492.109 157.325 491.713 157.853 491.302 158.44C490.774 158.968 490.393 159.54 490.158 160.156C489.953 160.743 489.806 161.3 489.718 161.828C489.66 162.327 489.586 162.708 489.498 162.972C489.381 163.265 489.381 163.632 489.498 164.072C489.616 164.512 489.762 164.761 489.938 164.82C490.202 164.849 490.554 164.835 490.994 164.776C491.464 164.688 491.948 164.585 492.446 164.468C492.974 164.321 493.502 164.175 494.03 164.028C494.558 163.852 495.028 163.676 495.438 163.5C495.996 163.148 496.48 163.016 496.89 163.104C497.301 163.163 497.609 163.221 497.814 163.28C498.137 163.397 498.298 163.647 498.298 164.028C498.298 164.409 498.166 164.82 497.902 165.26C497.638 165.671 497.257 166.008 496.758 166.272C496.289 166.507 495.864 166.771 495.482 167.064C495.13 167.328 494.954 167.533 494.954 167.68C494.837 167.68 494.705 167.724 494.558 167.812C494.441 167.871 494.338 167.885 494.25 167.856C494.192 167.856 493.957 167.9 493.546 167.988C493.136 168.076 492.71 168.179 492.27 168.296C491.86 168.413 491.581 168.516 491.434 168.604ZM515.627 168.912C515.334 168.619 515.099 168.223 514.923 167.724C514.747 167.196 514.571 166.595 514.395 165.92C514.337 165.685 514.307 165.421 514.307 165.128C514.337 164.835 514.337 164.6 514.307 164.424C514.219 164.629 514.073 164.893 513.867 165.216C513.691 165.539 513.515 165.773 513.339 165.92C513.222 166.037 512.958 166.272 512.547 166.624C512.137 166.947 511.726 167.211 511.315 167.416C510.347 168.032 509.482 168.325 508.719 168.296C507.986 168.237 507.341 167.856 506.783 167.152C506.314 166.771 505.933 166.287 505.639 165.7C505.346 165.113 505.287 164.409 505.463 163.588C505.522 162.561 505.669 161.564 505.903 160.596C506.138 159.599 506.622 158.279 507.355 156.636C507.971 155.433 508.441 154.495 508.763 153.82C509.086 153.145 509.291 152.749 509.379 152.632C509.819 152.485 510.362 152.5 511.007 152.676C511.653 152.823 512.005 153.101 512.063 153.512C512.239 153.805 512.239 154.363 512.063 155.184C511.887 155.976 511.535 156.885 511.007 157.912C510.597 158.909 510.201 159.877 509.819 160.816C509.467 161.755 509.247 162.547 509.159 163.192C509.101 163.837 509.277 164.233 509.687 164.38C509.951 164.527 510.333 164.512 510.831 164.336C511.359 164.16 511.975 163.632 512.679 162.752C513.383 161.872 514.131 160.479 514.923 158.572C515.158 157.985 515.334 157.472 515.451 157.032C515.569 156.563 515.642 156.049 515.671 155.492C515.613 155.14 515.701 154.773 515.935 154.392C516.199 154.011 516.507 153.717 516.859 153.512C516.977 153.365 517.138 153.233 517.343 153.116C517.549 152.969 517.681 152.969 517.739 153.116L518.443 153.072C518.561 153.043 518.693 153.16 518.839 153.424C518.986 153.688 519.133 153.879 519.279 153.996C519.602 154.26 519.749 154.832 519.719 155.712C519.69 156.592 519.338 157.824 518.663 159.408C518.106 160.611 517.725 161.52 517.519 162.136C517.343 162.752 517.241 163.353 517.211 163.94C517.211 164.468 517.255 164.923 517.343 165.304C517.431 165.656 517.695 166.023 518.135 166.404C518.458 166.609 518.634 166.961 518.663 167.46C518.722 167.929 518.737 168.34 518.707 168.692C518.649 168.956 518.414 169.132 518.003 169.22C517.622 169.337 517.197 169.367 516.727 169.308C516.287 169.249 515.921 169.117 515.627 168.912ZM523.332 179.252C523.215 179.252 523.039 179.252 522.804 179.252C522.599 179.281 522.423 179.164 522.276 178.9C522.159 178.753 521.983 178.46 521.748 178.02C521.514 177.609 521.47 177.023 521.616 176.26C521.763 175.761 521.88 175.263 521.968 174.764C522.056 174.295 522.1 173.943 522.1 173.708C522.1 173.591 522.13 173.356 522.188 173.004C522.276 172.681 522.32 172.447 522.32 172.3C522.467 172.065 522.584 171.743 522.672 171.332C522.76 170.921 522.804 170.555 522.804 170.232C522.804 169.88 522.98 169.557 523.332 169.264C523.332 169.029 523.376 168.736 523.464 168.384C523.582 168.032 523.64 167.797 523.64 167.68C523.728 167.269 523.919 166.551 524.212 165.524C524.535 164.468 524.916 163.28 525.356 161.96C525.826 160.64 526.28 159.349 526.72 158.088C527.16 156.827 527.556 155.756 527.908 154.876C528.26 154.055 528.554 153.292 528.788 152.588C529.023 151.884 529.14 151.385 529.14 151.092C529.14 150.975 529.17 150.887 529.228 150.828C529.287 150.74 529.419 150.579 529.624 150.344C529.918 150.051 530.299 149.948 530.768 150.036C531.267 150.095 531.678 150.241 532 150.476C532.235 150.857 532.396 151.209 532.484 151.532C532.602 151.825 532.602 152.295 532.484 152.94C532.484 153.38 532.382 153.791 532.176 154.172C531.971 154.524 531.78 154.817 531.604 155.052C531.458 155.257 531.414 155.345 531.472 155.316C532.763 154.524 533.922 154.099 534.948 154.04C536.004 153.952 536.884 154.128 537.588 154.568C538.322 154.979 538.879 155.551 539.26 156.284C539.642 157.017 539.832 157.809 539.832 158.66C539.832 159.012 539.715 159.481 539.48 160.068C539.246 160.655 538.982 161.212 538.688 161.74C538.395 162.239 538.16 162.576 537.984 162.752C537.867 162.752 537.75 162.855 537.632 163.06C537.515 163.236 537.398 163.441 537.28 163.676C537.046 163.969 536.65 164.307 536.092 164.688C535.564 165.04 535.022 165.333 534.464 165.568C533.907 165.773 533.511 165.832 533.276 165.744C533.276 165.744 533.232 165.773 533.144 165.832C533.086 165.891 533.056 165.993 533.056 166.14C533.056 166.199 532.851 166.316 532.44 166.492C532.03 166.668 531.546 166.829 530.988 166.976C530.431 167.123 529.918 167.196 529.448 167.196C528.832 167.196 528.392 167.079 528.128 166.844C528.07 166.903 527.996 166.991 527.908 167.108C527.85 167.225 527.82 167.328 527.82 167.416C527.82 167.592 527.747 167.871 527.6 168.252C527.483 168.633 527.336 168.971 527.16 169.264C526.984 169.587 526.823 169.748 526.676 169.748C526.676 169.748 526.647 169.792 526.588 169.88C526.53 169.968 526.559 170.085 526.676 170.232C526.676 170.232 526.662 170.393 526.632 170.716C526.632 171.068 526.559 171.361 526.412 171.596C526.412 171.831 526.368 172.183 526.28 172.652C526.192 173.121 526.09 173.473 525.972 173.708C525.972 174.06 525.914 174.397 525.796 174.72C525.708 175.072 525.606 175.248 525.488 175.248C525.371 175.277 525.298 175.453 525.268 175.776C525.239 176.128 525.224 176.377 525.224 176.524C525.195 177.257 524.96 177.888 524.52 178.416C524.08 178.973 523.684 179.252 523.332 179.252ZM528.964 163.852C529.199 163.852 529.624 163.749 530.24 163.544C530.856 163.339 531.502 163.089 532.176 162.796C532.851 162.473 533.379 162.151 533.76 161.828C534.523 161.153 535.11 160.493 535.52 159.848C535.96 159.203 535.931 158.484 535.432 157.692C535.198 157.281 534.816 157.12 534.288 157.208C533.79 157.267 533.232 157.501 532.616 157.912C532 158.323 531.37 158.836 530.724 159.452C530.372 159.833 530.05 160.273 529.756 160.772C529.463 161.271 529.214 161.755 529.008 162.224C528.832 162.693 528.73 163.089 528.7 163.412C528.671 163.705 528.759 163.852 528.964 163.852ZM549.113 168.384C548.879 168.443 548.571 168.472 548.189 168.472C547.808 168.443 547.471 168.399 547.177 168.34C546.913 168.252 546.781 168.164 546.781 168.076C546.781 167.929 546.708 167.856 546.561 167.856C546.561 167.856 546.4 167.739 546.077 167.504C545.755 167.24 545.461 167.049 545.197 166.932C544.933 166.521 544.757 166.052 544.669 165.524C544.611 164.967 544.787 163.999 545.197 162.62C545.227 161.681 545.491 160.699 545.989 159.672C546.488 158.616 547.119 157.589 547.881 156.592C548.644 155.595 549.436 154.715 550.257 153.952C551.079 153.16 551.812 152.573 552.457 152.192C552.868 151.781 553.411 151.561 554.085 151.532C554.789 151.503 555.405 151.635 555.933 151.928C556.227 152.075 556.549 152.368 556.901 152.808C557.253 153.248 557.591 153.717 557.913 154.216C558.236 154.685 558.485 155.111 558.661 155.492C558.749 155.815 558.823 156.108 558.881 156.372C558.969 156.607 559.028 156.9 559.057 157.252C559.087 157.604 559.057 158.132 558.969 158.836C558.823 159.364 558.691 159.907 558.573 160.464C558.485 160.992 558.441 161.535 558.441 162.092C558.383 162.649 558.441 163.045 558.617 163.28C558.823 163.515 559.116 163.529 559.497 163.324C559.849 163.148 560.216 163.133 560.597 163.28C560.979 163.397 561.243 163.632 561.389 163.984C561.565 164.307 561.521 164.732 561.257 165.26C561.081 165.641 560.803 166.008 560.421 166.36C560.04 166.712 559.615 167.005 559.145 167.24C558.676 167.445 558.221 167.548 557.781 167.548C557.459 167.548 557.136 167.431 556.813 167.196C556.491 166.932 556.197 166.58 555.933 166.14C555.669 165.7 555.449 165.216 555.273 164.688L555.009 163.676L553.425 165.128C553.044 165.539 552.663 165.92 552.281 166.272C551.929 166.595 551.709 166.829 551.621 166.976C551.475 167.24 551.181 167.475 550.741 167.68C550.331 167.885 549.788 168.12 549.113 168.384ZM550.301 164.16C550.8 163.867 551.225 163.515 551.577 163.104C551.959 162.693 552.325 162.239 552.677 161.74C553.029 161.212 553.411 160.655 553.821 160.068C554.32 159.393 554.672 158.851 554.877 158.44C555.112 158.029 555.288 157.589 555.405 157.12C555.288 156.797 555.127 156.46 554.921 156.108C554.716 155.727 554.511 155.521 554.305 155.492C553.895 155.492 553.396 155.741 552.809 156.24C552.252 156.739 551.636 157.457 550.961 158.396C550.844 158.543 550.697 158.777 550.521 159.1C550.345 159.423 550.169 159.731 549.993 160.024C549.847 160.288 549.744 160.464 549.685 160.552C549.597 160.669 549.465 160.948 549.289 161.388C549.143 161.799 549.011 162.224 548.893 162.664C548.776 163.075 548.717 163.368 548.717 163.544C548.717 163.72 548.732 163.911 548.761 164.116C548.82 164.321 548.967 164.453 549.201 164.512C549.436 164.571 549.803 164.453 550.301 164.16ZM580.8 168.824C580.36 168.824 579.935 168.692 579.524 168.428C579.113 168.135 578.776 167.739 578.512 167.24C578.248 166.712 578.116 166.096 578.116 165.392C578.116 164.952 578.189 164.336 578.336 163.544C578.512 162.723 578.761 161.696 579.084 160.464C579.143 160.053 579.187 159.789 579.216 159.672C579.275 159.555 579.304 159.437 579.304 159.32C579.304 159.261 579.289 159.217 579.26 159.188C579.26 159.129 579.231 159.1 579.172 159.1C578.937 159.1 578.615 159.261 578.204 159.584C577.823 159.877 577.383 160.229 576.884 160.64C576.796 160.699 576.693 160.772 576.576 160.86C576.488 160.948 576.385 161.036 576.268 161.124C576.18 161.212 576.077 161.3 575.96 161.388C575.667 161.564 575.212 161.901 574.596 162.4C574.009 162.899 573.393 163.427 572.748 163.984C572.132 164.541 571.589 165.011 571.12 165.392C570.885 165.568 570.68 165.715 570.504 165.832C570.357 165.949 570.255 166.008 570.196 166.008C570.137 166.008 569.903 165.935 569.492 165.788C569.111 165.612 568.729 165.377 568.348 165.084C567.996 164.761 567.82 164.395 567.82 163.984C567.82 163.72 567.923 163.192 568.128 162.4C568.363 161.608 568.685 160.669 569.096 159.584C569.507 158.499 569.976 157.399 570.504 156.284C570.621 156.02 570.709 155.668 570.768 155.228C570.827 154.788 570.885 154.363 570.944 153.952C571.032 153.512 571.179 153.189 571.384 152.984C571.472 152.837 571.575 152.735 571.692 152.676C571.839 152.588 571.985 152.544 572.132 152.544C572.425 152.544 572.704 152.617 572.968 152.764C573.232 152.881 573.481 153.087 573.716 153.38C574.156 153.849 574.391 154.407 574.42 155.052C574.479 155.668 574.435 156.269 574.288 156.856C574.141 157.443 573.98 157.927 573.804 158.308C573.628 158.66 573.54 158.807 573.54 158.748C573.657 158.689 573.819 158.543 574.024 158.308C574.259 158.073 574.655 157.795 575.212 157.472C575.975 156.885 576.561 156.475 576.972 156.24C577.383 155.976 577.691 155.785 577.896 155.668C578.131 155.551 578.336 155.419 578.512 155.272C578.659 155.155 578.761 155.081 578.82 155.052C578.908 155.023 578.952 155.008 578.952 155.008C579.04 155.008 579.187 154.949 579.392 154.832C579.627 154.715 579.847 154.656 580.052 154.656C580.345 154.656 580.653 154.729 580.976 154.876C581.299 154.993 581.577 155.169 581.812 155.404C582.047 155.609 582.164 155.829 582.164 156.064C582.164 156.152 582.193 156.225 582.252 156.284C582.311 156.343 582.369 156.416 582.428 156.504C582.575 156.68 582.736 156.929 582.912 157.252C583.117 157.545 583.22 158.029 583.22 158.704C583.22 159.173 583.117 159.863 582.912 160.772C582.707 161.681 582.487 162.576 582.252 163.456C582.017 164.365 581.9 165.099 581.9 165.656C581.929 166.184 581.988 166.595 582.076 166.888C582.164 167.152 582.208 167.372 582.208 167.548C582.208 167.783 582.091 168.061 581.856 168.384C581.621 168.677 581.269 168.824 580.8 168.824ZM596.991 168.604C596.61 168.78 596.17 168.853 595.671 168.824C595.173 168.795 594.498 168.633 593.647 168.34C593.589 168.34 593.383 168.208 593.031 167.944C592.679 167.68 592.327 167.372 591.975 167.02C591.623 166.668 591.389 166.375 591.271 166.14C590.802 165.465 590.655 164.468 590.831 163.148C591.037 161.828 591.506 160.244 592.239 158.396C592.445 157.956 592.753 157.399 593.163 156.724C593.603 156.049 594.029 155.433 594.439 154.876C594.879 154.289 595.187 153.952 595.363 153.864C595.363 153.864 595.525 153.805 595.847 153.688C596.17 153.571 596.581 153.38 597.079 153.116C597.226 153.057 597.475 152.984 597.827 152.896C598.209 152.808 598.59 152.735 598.971 152.676C599.382 152.588 599.661 152.559 599.807 152.588C600.394 152.617 600.995 152.837 601.611 153.248C602.257 153.629 602.785 154.084 603.195 154.612C603.606 155.111 603.738 155.551 603.591 155.932C603.591 155.991 603.503 156.181 603.327 156.504C603.181 156.797 603.019 157.105 602.843 157.428C602.667 157.721 602.521 157.941 602.403 158.088C602.257 158.264 601.993 158.337 601.611 158.308C601.259 158.279 600.937 158.161 600.643 157.956C600.35 157.751 600.189 157.472 600.159 157.12C600.101 156.885 599.881 156.665 599.499 156.46C599.147 156.255 598.971 156.152 598.971 156.152C598.737 156.152 598.429 156.387 598.047 156.856C597.666 157.325 597.27 157.853 596.859 158.44C596.331 158.968 595.95 159.54 595.715 160.156C595.51 160.743 595.363 161.3 595.275 161.828C595.217 162.327 595.143 162.708 595.055 162.972C594.938 163.265 594.938 163.632 595.055 164.072C595.173 164.512 595.319 164.761 595.495 164.82C595.759 164.849 596.111 164.835 596.551 164.776C597.021 164.688 597.505 164.585 598.003 164.468C598.531 164.321 599.059 164.175 599.587 164.028C600.115 163.852 600.585 163.676 600.995 163.5C601.553 163.148 602.037 163.016 602.447 163.104C602.858 163.163 603.166 163.221 603.371 163.28C603.694 163.397 603.855 163.647 603.855 164.028C603.855 164.409 603.723 164.82 603.459 165.26C603.195 165.671 602.814 166.008 602.315 166.272C601.846 166.507 601.421 166.771 601.039 167.064C600.687 167.328 600.511 167.533 600.511 167.68C600.394 167.68 600.262 167.724 600.115 167.812C599.998 167.871 599.895 167.885 599.807 167.856C599.749 167.856 599.514 167.9 599.103 167.988C598.693 168.076 598.267 168.179 597.827 168.296C597.417 168.413 597.138 168.516 596.991 168.604ZM610.184 178.152C609.128 178.357 608.116 178.387 607.148 178.24C606.18 178.123 605.374 177.873 604.728 177.492C604.054 177.111 603.643 176.685 603.496 176.216C603.32 175.541 603.408 175.043 603.76 174.72C604.112 174.397 604.538 174.207 605.036 174.148C605.506 174.089 605.814 174.148 605.96 174.324C606.195 174.471 606.562 174.691 607.06 174.984C607.588 175.277 608.234 175.351 608.996 175.204C609.671 175.057 610.272 174.735 610.8 174.236C611.328 173.737 611.798 173.209 612.208 172.652C612.443 172.3 612.839 171.669 613.396 170.76C613.954 169.851 614.526 168.853 615.112 167.768C615.728 166.653 616.242 165.627 616.652 164.688C616.74 164.453 616.843 164.175 616.96 163.852C617.078 163.529 617.224 163.265 617.4 163.06C617.576 162.708 617.723 162.385 617.84 162.092C617.987 161.769 618.075 161.549 618.104 161.432C618.134 161.285 618.266 160.992 618.5 160.552C618.735 160.112 618.955 159.672 619.16 159.232C619.307 158.792 619.527 158.147 619.82 157.296C620.114 156.445 620.407 155.756 620.7 155.228C621.052 154.553 621.331 154.011 621.536 153.6C621.771 153.16 622.02 152.896 622.284 152.808C622.548 152.603 622.798 152.5 623.032 152.5C623.267 152.5 623.546 152.588 623.868 152.764C624.22 153.116 624.499 153.468 624.704 153.82C624.939 154.143 625.027 154.553 624.968 155.052C624.939 155.521 624.704 156.167 624.264 156.988C624.03 157.692 623.766 158.337 623.472 158.924C623.208 159.481 623.003 159.848 622.856 160.024C622.71 160.376 622.534 160.772 622.328 161.212C622.152 161.623 621.991 162.004 621.844 162.356C621.316 163.529 620.862 164.483 620.48 165.216C620.099 165.949 619.762 166.624 619.468 167.24C619.175 167.856 618.867 168.575 618.544 169.396C617.87 170.481 617.21 171.508 616.564 172.476C615.948 173.473 615.288 174.397 614.584 175.248C614.291 175.512 613.866 175.849 613.308 176.26C612.78 176.7 612.223 177.096 611.636 177.448C611.079 177.829 610.595 178.064 610.184 178.152ZM615.684 168.208C615.244 168.149 614.76 167.856 614.232 167.328C613.734 166.8 613.308 166.243 612.956 165.656C612.634 165.069 612.502 164.659 612.56 164.424C612.56 164.277 612.56 164.16 612.56 164.072C612.56 163.984 612.56 163.94 612.56 163.94C612.384 163.94 612.238 163.691 612.12 163.192C612.032 162.664 611.959 162.004 611.9 161.212C611.871 160.42 611.856 159.599 611.856 158.748C611.886 157.897 611.93 157.12 611.988 156.416C612.106 155.917 612.164 155.375 612.164 154.788C612.164 154.172 612.179 153.688 612.208 153.336C612.179 152.867 612.267 152.485 612.472 152.192C612.707 151.899 612.883 151.708 613 151.62C614.086 151.151 614.878 151.4 615.376 152.368C615.875 153.336 616.051 154.876 615.904 156.988C615.846 158.161 615.816 159.291 615.816 160.376C615.816 161.432 615.919 162.341 616.124 163.104C616.33 163.867 616.682 164.409 617.18 164.732C617.386 164.849 617.459 165.099 617.4 165.48C617.342 165.861 617.21 166.272 617.004 166.712C616.799 167.123 616.564 167.489 616.3 167.812C616.066 168.105 615.86 168.237 615.684 168.208Z" fill="#B8C318"/>
</svg>
