<svg width="900" height="250" viewBox="0 0 900 250" fill="none" xmlns="http://www.w3.org/2000/svg">
<rect width="900" height="220" rx="60" fill="#FDFDFB"/>
<rect x="5.5" y="35.5" width="889" height="209" rx="54.5" fill="#FDFDFB" stroke="#B8C318" stroke-width="11"/>
<rect width="190" height="172" transform="translate(355 54)" fill="#FDFDFB"/>
<path d="M391.96 95.24H378.22V97.94H391.96V95.24ZM371.26 102.62V95.24H360.94V89.9H371.26V86.18H378.22V89.9H391.96V86.18H399.28V89.9H409.54V95.24H399.28V102.62H371.26ZM412.42 104.6V110.6H357.82V104.6H412.42ZM371.44 124.58V127.46H381.28V124.58H371.44ZM371.44 117.26V120.14H381.28V117.26H371.44ZM398.74 120.14V117.26H388.36V120.14H398.74ZM398.74 127.46V124.58H388.36V127.46H398.74ZM405.94 132.26H397.54C403.24 134.12 409.24 136.16 413.08 137.72L406.78 142.22C402.76 140.36 395.92 137.6 389.32 135.44L392.92 132.26H376.24L380.62 135.32C375.7 138.08 367.96 140.9 361.84 142.34C360.76 141.02 358.48 138.8 356.92 137.54C362.2 136.4 368.56 134.3 372.76 132.26H364.54V112.46H405.94V132.26ZM440.26 103.52H460.36C456.58 101.18 453.04 98.54 449.98 95.72C447.1 98.72 443.8 101.24 440.26 103.52ZM462.34 122.72H453.58V134.42H461.08L457.06 132.74C458.92 130.04 461.14 125.84 462.34 122.72ZM445.9 122.72H436.84C438.94 125.66 441.22 129.62 442.06 132.26L437.14 134.42H445.9V122.72ZM465.64 110.06H453.58V116.3H472.72V122.72H463.24L469.24 124.88C467.14 128.24 464.8 131.84 462.94 134.42H475.84V140.96H423.94V134.42H435.76C434.8 131.66 432.76 127.7 430.78 124.7L435.52 122.72H426.82V116.3H445.9V110.06H433.72V107.12C431.2 108.32 428.62 109.4 425.98 110.36C425.02 108.26 423.04 105.56 421.24 103.76C432.52 100.52 443.32 94.46 449.02 85.52L455.8 88.58C455.26 89.36 454.72 90.14 454.12 90.98C460 96.26 469.72 101.24 478.72 103.76C477.1 105.32 474.88 108.14 473.8 110C471.1 109.04 468.34 107.84 465.64 106.52V110.06ZM489.1 109.88C488.74 108.5 487.66 105.38 486.88 103.58C488.08 103.22 489.1 102.14 490.36 100.34C491.56 98.72 495.34 92.12 497.5 85.88L504.04 88.52C501.88 93.38 499 98.48 495.94 102.68L500.14 102.38C501.7 99.86 503.26 97.16 504.46 94.46L510.4 98.24C506.98 104.36 502.54 110.54 497.92 115.7L504.22 114.8C503.68 113.36 503.14 111.98 502.54 110.78L507.34 108.98C509.26 112.76 511.12 117.68 511.66 120.92L506.44 123.02C506.32 122.18 506.14 121.16 505.84 120.08C493.12 122.36 490.9 122.84 489.58 123.62C489.22 122.36 488.14 119.06 487.3 117.32C488.92 116.9 490.24 115.58 492.16 113.36C492.94 112.52 494.38 110.84 496.06 108.5C491.38 109.04 490 109.4 489.1 109.88ZM489.28 125.6L494.8 126.5C494.38 131.78 493.42 137.48 492.16 141.14C490.96 140.48 488.32 139.64 486.82 139.28C488.26 135.74 488.92 130.4 489.28 125.6ZM496.18 126.38L501.04 125.18C501.76 129.02 502.42 133.94 502.6 137.12L497.44 138.44C497.38 135.2 496.78 130.16 496.18 126.38ZM533.56 111.86H524.44C525.52 115.94 527.08 119.84 529.12 123.26C530.98 119.84 532.48 116 533.56 111.86ZM528.76 95.36H521.86C521.8 98.84 521.68 102.26 521.56 105.5H527.02C527.68 102.26 528.28 98.6 528.76 95.36ZM537.04 105.26L541.6 106.82C540.1 115.82 537.4 123.38 533.62 129.38C536.2 132.2 539.26 134.42 542.8 135.98C541.24 137.3 539.14 140 538.06 141.92C534.7 140.18 531.82 137.9 529.36 135.08C526.78 137.96 523.96 140.3 520.78 142.28C519.7 140.6 517.84 138.2 516.28 136.94C519.52 135.14 522.52 132.56 525.1 129.32C523.3 126.26 521.74 122.72 520.42 119C519.22 128.12 517.06 135.86 513.04 141.92C511.96 140.78 508.6 138.38 506.92 137.48C507.88 136.22 508.72 134.78 509.44 133.28L505.3 134.78C504.82 132.26 503.62 128.18 502.54 125.12L507.28 123.56C508.3 126.26 509.38 129.56 510.04 132.08C514.06 122.9 514.9 110.06 514.96 95.36H509.98V88.7H530.38L531.4 88.4L536.38 89.06C535.78 94.22 534.7 100.28 533.68 105.5H535.9L537.04 105.26Z" fill="#594A39"/>
<path d="M372.578 201.024C371.786 200.437 371.17 199.601 370.73 198.516C370.319 197.401 370.129 196.375 370.158 195.436C370.129 193.617 370.275 191.74 370.598 189.804C370.95 187.868 371.405 186.064 371.962 184.392C372.343 183.336 372.754 182.265 373.194 181.18C373.634 180.095 374.089 179.068 374.558 178.1C375.027 177.103 375.482 176.267 375.922 175.592C376.831 174.037 377.755 172.791 378.694 171.852C379.662 170.913 380.395 170.297 380.894 170.004C381.715 169.593 382.698 169.285 383.842 169.08C384.986 168.845 386.101 168.845 387.186 169.08C387.949 169.285 388.697 169.579 389.43 169.96C390.193 170.341 390.853 170.811 391.41 171.368C391.733 171.661 391.982 171.969 392.158 172.292C392.334 172.615 392.422 172.952 392.422 173.304C392.422 173.744 392.217 174.169 391.806 174.58C391.395 174.991 390.941 175.269 390.442 175.416C389.943 175.563 389.562 175.475 389.298 175.152C388.917 174.565 388.55 174.125 388.198 173.832C387.846 173.509 387.479 173.275 387.098 173.128C386.775 172.923 386.335 172.82 385.778 172.82C385.25 172.82 384.678 172.923 384.062 173.128C383.446 173.304 382.859 173.627 382.302 174.096C382.097 174.272 381.818 174.521 381.466 174.844C381.143 175.167 380.791 175.563 380.41 176.032C380.058 176.472 379.735 176.956 379.442 177.484C378.621 178.833 377.917 180.212 377.33 181.62C376.773 182.999 376.274 184.509 375.834 186.152C375.629 186.827 375.409 187.663 375.174 188.66C374.939 189.628 374.719 190.596 374.514 191.564C374.338 192.532 374.221 193.383 374.162 194.116C374.074 195.143 374.103 195.949 374.25 196.536C374.397 197.123 374.705 197.519 375.174 197.724C375.643 197.9 376.303 197.885 377.154 197.68C377.917 197.504 378.679 197.211 379.442 196.8C380.234 196.36 380.997 195.817 381.73 195.172C382.463 194.497 383.123 193.705 383.71 192.796C384.238 191.799 384.663 190.889 384.986 190.068C385.338 189.247 385.514 188.601 385.514 188.132C385.543 187.633 385.294 187.399 384.766 187.428C383.563 187.457 382.595 187.413 381.862 187.296C381.158 187.179 380.674 186.885 380.41 186.416C380.029 186.328 379.823 186.005 379.794 185.448C379.794 184.891 380.073 184.436 380.63 184.084C381.129 183.82 381.818 183.659 382.698 183.6C383.578 183.541 384.473 183.571 385.382 183.688C386.321 183.776 387.069 183.981 387.626 184.304C388.271 184.627 388.711 185.111 388.946 185.756C389.21 186.372 389.342 187.032 389.342 187.736C389.371 188.44 389.327 189.1 389.21 189.716C388.946 190.743 388.579 191.74 388.11 192.708C387.67 193.676 387.069 194.659 386.306 195.656C385.866 196.272 385.265 196.917 384.502 197.592C383.739 198.267 382.933 198.868 382.082 199.396C381.261 199.953 380.483 200.393 379.75 200.716C378.577 201.244 377.345 201.625 376.054 201.86C374.793 202.095 373.634 201.816 372.578 201.024ZM398.236 198.692C397.855 198.692 397.547 198.619 397.312 198.472C397.107 198.325 396.843 198.12 396.52 197.856C395.963 197.269 395.508 196.639 395.156 195.964C394.833 195.289 394.716 194.703 394.804 194.204C394.892 193.969 394.921 193.749 394.892 193.544C394.892 193.309 394.892 193.192 394.892 193.192C394.745 193.045 394.701 192.957 394.76 192.928C394.819 192.869 394.877 192.781 394.936 192.664C395.112 192.664 395.171 192.503 395.112 192.18C395.053 191.945 395.141 191.447 395.376 190.684C395.64 189.892 395.992 189.144 396.432 188.44C396.608 188.147 396.872 187.765 397.224 187.296C397.576 186.797 397.957 186.313 398.368 185.844C398.808 185.345 399.204 184.949 399.556 184.656C400.289 184.04 400.964 183.541 401.58 183.16C402.225 182.779 402.871 182.515 403.516 182.368C404.161 182.221 404.821 182.148 405.496 182.148C406.2 182.148 406.772 182.383 407.212 182.852C407.887 183.145 408.356 183.541 408.62 184.04C408.913 184.539 409.104 185.184 409.192 185.976C409.28 186.856 409.192 187.941 408.928 189.232C408.664 190.493 407.945 191.96 406.772 193.632C406.039 194.688 405.32 195.509 404.616 196.096C403.912 196.683 403.135 197.225 402.284 197.724C401.668 198.135 401.008 198.384 400.304 198.472C399.6 198.56 398.911 198.633 398.236 198.692ZM402.724 193.324C403.369 192.767 403.824 192.151 404.088 191.476C404.381 190.801 404.689 190.009 405.012 189.1C405.129 188.924 405.203 188.631 405.232 188.22C405.291 187.809 405.305 187.413 405.276 187.032C405.247 186.621 405.144 186.387 404.968 186.328C404.704 186.123 404.44 186.079 404.176 186.196C403.912 186.284 403.575 186.475 403.164 186.768C402.284 187.501 401.463 188.352 400.7 189.32C399.967 190.259 399.453 191.417 399.16 192.796C399.072 193.529 399.145 194.087 399.38 194.468C399.644 194.82 400.055 194.923 400.612 194.776C401.199 194.6 401.903 194.116 402.724 193.324ZM416.553 199.484C415.996 199.631 415.497 199.469 415.057 199C414.617 198.56 414.309 197.9 414.133 197.02C413.957 196.14 413.987 195.157 414.221 194.072C414.368 193.72 414.485 193.383 414.573 193.06C414.661 192.708 414.705 192.429 414.705 192.224C414.764 191.931 414.881 191.505 415.057 190.948C415.233 190.361 415.424 189.76 415.629 189.144C415.835 188.528 416.025 187.985 416.201 187.516C416.407 187.017 416.539 186.709 416.597 186.592C416.715 186.592 416.817 186.489 416.905 186.284C416.993 186.079 417.037 185.873 417.037 185.668C417.037 185.433 417.081 185.169 417.169 184.876C417.287 184.583 417.404 184.377 417.521 184.26C417.521 184.113 417.551 183.952 417.609 183.776C417.697 183.571 417.741 183.409 417.741 183.292C417.741 183.175 417.771 183.057 417.829 182.94C417.917 182.823 417.961 182.705 417.961 182.588C418.167 182.207 418.431 181.605 418.753 180.784C419.105 179.933 419.472 178.995 419.853 177.968C420.264 176.941 420.645 175.929 420.997 174.932C421.349 173.935 421.628 173.099 421.833 172.424C422.068 171.72 422.185 171.295 422.185 171.148C422.185 170.913 422.273 170.693 422.449 170.488C422.625 170.283 422.831 170.18 423.065 170.18C423.153 170.092 423.359 170.033 423.681 170.004C424.004 169.945 424.224 169.916 424.341 169.916C424.341 169.916 424.4 169.975 424.517 170.092C424.635 170.209 424.811 170.385 425.045 170.62C425.28 170.825 425.5 171.06 425.705 171.324C425.94 171.588 426.057 171.896 426.057 172.248C426.057 172.629 425.999 172.996 425.881 173.348C425.793 173.7 425.617 174.184 425.353 174.8C425.089 175.387 424.679 176.267 424.121 177.44C423.887 178.027 423.637 178.584 423.373 179.112C423.109 179.611 422.977 179.919 422.977 180.036C422.977 180.153 422.919 180.329 422.801 180.564C422.713 180.799 422.611 181.092 422.493 181.444C422.376 181.679 422.215 182.031 422.009 182.5C421.804 182.94 421.584 183.424 421.349 183.952C421.144 184.451 420.968 184.891 420.821 185.272C420.675 185.624 420.601 185.829 420.601 185.888C420.601 186.005 420.587 186.123 420.557 186.24C420.557 186.357 420.499 186.475 420.381 186.592C420.264 186.592 420.191 186.68 420.161 186.856C420.161 187.003 420.161 187.076 420.161 187.076C420.161 187.369 419.927 188.147 419.457 189.408C418.988 191.021 418.548 192.503 418.137 193.852C417.756 195.201 417.565 196.287 417.565 197.108C417.565 197.812 417.448 198.355 417.213 198.736C417.008 199.117 416.788 199.367 416.553 199.484ZM438.674 198.956C438.234 198.985 437.823 199 437.442 199C437.09 199 436.811 198.941 436.606 198.824C436.078 198.384 435.726 198.032 435.55 197.768C435.403 197.504 435.33 197.211 435.33 196.888C435.359 196.477 435.374 196.067 435.374 195.656C435.374 195.216 435.374 194.879 435.374 194.644C435.256 194.527 435.022 194.659 434.67 195.04C434.318 195.421 433.907 195.788 433.438 196.14C432.528 197.167 431.722 197.915 431.018 198.384C430.314 198.824 429.668 199.073 429.082 199.132C428.495 199.22 427.908 199.235 427.322 199.176C426.794 199.117 426.324 198.853 425.914 198.384C425.532 197.915 425.239 197.343 425.034 196.668C424.858 195.993 424.799 195.333 424.858 194.688C425.004 193.485 425.268 192.4 425.65 191.432C426.031 190.435 426.603 189.393 427.366 188.308C427.718 187.839 428.187 187.325 428.774 186.768C429.39 186.211 430.05 185.697 430.754 185.228C431.458 184.729 432.088 184.377 432.646 184.172C433.496 183.791 434.2 183.615 434.758 183.644C435.344 183.673 435.916 183.761 436.474 183.908C436.884 184.113 437.207 184.216 437.442 184.216C437.706 184.216 437.896 184.069 438.014 183.776C438.19 183.541 438.322 183.248 438.41 182.896C438.498 182.544 438.644 182.207 438.85 181.884L439.818 179.024C440.14 178.232 440.522 177.323 440.962 176.296C441.402 175.269 441.9 174.125 442.458 172.864C443.132 171.72 443.704 171.119 444.174 171.06C444.672 171.001 445.186 171.265 445.714 171.852C446.066 172.204 446.256 172.644 446.286 173.172C446.344 173.671 446.212 174.257 445.89 174.932C445.684 175.255 445.464 175.665 445.23 176.164C444.995 176.633 444.716 177.191 444.394 177.836C444.071 178.599 443.734 179.361 443.382 180.124C443.059 180.887 442.722 181.723 442.37 182.632C442.252 183.101 442.091 183.644 441.886 184.26C441.71 184.876 441.563 185.433 441.446 185.932C441.358 186.401 441.255 186.841 441.138 187.252C441.05 187.633 440.947 187.824 440.83 187.824C440.595 188.029 440.375 188.469 440.17 189.144C439.964 189.789 439.788 190.479 439.642 191.212C439.524 191.945 439.422 192.547 439.334 193.016C439.275 193.368 439.231 193.867 439.202 194.512C439.172 195.128 439.158 195.729 439.158 196.316C439.158 196.873 439.158 197.255 439.158 197.46C439.158 198.017 439.114 198.413 439.026 198.648C438.967 198.853 438.85 198.956 438.674 198.956ZM428.73 195.48C429.404 195.48 430.035 195.201 430.622 194.644C431.238 194.057 431.912 193.441 432.646 192.796C433.086 192.356 433.54 191.872 434.01 191.344C434.479 190.787 434.904 190.244 435.286 189.716C435.696 189.188 436.019 188.733 436.254 188.352C436.488 187.971 436.606 187.721 436.606 187.604C436.606 187.457 436.488 187.325 436.254 187.208C436.048 187.091 435.799 187.003 435.506 186.944C435.212 186.856 434.948 186.841 434.714 186.9C434.01 187.105 433.438 187.413 432.998 187.824C432.587 188.235 431.986 188.88 431.194 189.76C430.402 190.728 429.771 191.652 429.302 192.532C428.832 193.412 428.539 194.131 428.422 194.688C428.334 195.216 428.436 195.48 428.73 195.48ZM450.349 191.432C450.173 191.432 449.953 191.432 449.689 191.432C449.425 191.403 449.132 191.329 448.809 191.212C448.369 191.212 448.017 191.124 447.753 190.948C447.518 190.743 447.342 190.537 447.225 190.332C446.902 189.892 446.917 189.555 447.269 189.32C447.65 189.056 448.384 188.865 449.469 188.748C450.466 188.513 451.449 188.352 452.417 188.264C453.385 188.176 454.456 188.132 455.629 188.132C456.392 188.132 457.008 188.205 457.477 188.352C457.976 188.499 458.386 188.733 458.709 189.056C459.149 189.496 459.252 189.965 459.017 190.464C458.782 190.933 458.328 191.109 457.653 190.992C457.448 191.021 457.008 191.051 456.333 191.08C455.688 191.109 455.101 191.153 454.573 191.212C454.25 191.241 453.678 191.285 452.857 191.344C452.036 191.403 451.2 191.432 450.349 191.432ZM466.988 199.484C466.431 199.631 465.932 199.469 465.492 199C465.052 198.56 464.744 197.9 464.568 197.02C464.392 196.14 464.422 195.157 464.656 194.072C464.803 193.72 464.92 193.383 465.008 193.06C465.096 192.708 465.14 192.429 465.14 192.224C465.199 191.931 465.316 191.505 465.492 190.948C465.668 190.361 465.859 189.76 466.064 189.144C466.27 188.528 466.46 187.985 466.636 187.516C466.842 187.017 466.974 186.709 467.032 186.592C467.15 186.592 467.252 186.489 467.34 186.284C467.428 186.079 467.472 185.873 467.472 185.668C467.472 185.433 467.516 185.169 467.604 184.876C467.722 184.583 467.839 184.377 467.956 184.26C467.956 184.113 467.986 183.952 468.044 183.776C468.132 183.571 468.176 183.409 468.176 183.292C468.176 183.175 468.206 183.057 468.264 182.94C468.352 182.823 468.396 182.705 468.396 182.588C468.602 182.207 468.866 181.605 469.188 180.784C469.54 179.933 469.907 178.995 470.288 177.968C470.699 176.941 471.08 175.929 471.432 174.932C471.784 173.935 472.063 173.099 472.268 172.424C472.503 171.72 472.62 171.295 472.62 171.148C472.62 170.913 472.708 170.693 472.884 170.488C473.06 170.283 473.266 170.18 473.5 170.18C473.588 170.092 473.794 170.033 474.116 170.004C474.439 169.945 474.659 169.916 474.776 169.916C474.776 169.916 474.835 169.975 474.952 170.092C475.07 170.209 475.246 170.385 475.48 170.62C475.715 170.825 475.935 171.06 476.14 171.324C476.375 171.588 476.492 171.896 476.492 172.248C476.492 172.629 476.434 172.996 476.316 173.348C476.228 173.7 476.052 174.184 475.788 174.8C475.524 175.387 475.114 176.267 474.556 177.44C474.322 178.027 474.072 178.584 473.808 179.112C473.544 179.611 473.412 179.919 473.412 180.036C473.412 180.153 473.354 180.329 473.236 180.564C473.148 180.799 473.046 181.092 472.928 181.444C472.811 181.679 472.65 182.031 472.444 182.5C472.239 182.94 472.019 183.424 471.784 183.952C471.579 184.451 471.403 184.891 471.256 185.272C471.11 185.624 471.036 185.829 471.036 185.888C471.036 186.005 471.022 186.123 470.992 186.24C470.992 186.357 470.934 186.475 470.816 186.592C470.699 186.592 470.626 186.68 470.596 186.856C470.596 187.003 470.596 187.076 470.596 187.076C470.596 187.369 470.362 188.147 469.892 189.408C469.423 191.021 468.983 192.503 468.572 193.852C468.191 195.201 468 196.287 468 197.108C468 197.812 467.883 198.355 467.648 198.736C467.443 199.117 467.223 199.367 466.988 199.484ZM484.973 198.12C484.093 198.619 483.154 198.912 482.157 199C481.189 199.059 480.279 198.927 479.429 198.604C478.578 198.252 477.889 197.739 477.361 197.064C477.067 196.683 476.789 196.081 476.525 195.26C476.261 194.409 476.217 193.265 476.393 191.828C476.569 190.479 476.979 189.115 477.625 187.736C478.299 186.357 479.121 185.14 480.089 184.084C481.057 183.028 482.113 182.309 483.257 181.928C483.667 181.781 484.078 181.679 484.489 181.62C484.929 181.532 485.501 181.517 486.205 181.576C486.879 181.664 487.481 181.84 488.009 182.104C488.537 182.339 488.918 182.603 489.153 182.896C489.622 183.365 489.93 183.82 490.077 184.26C490.223 184.7 490.282 185.125 490.253 185.536C490.106 186.475 489.681 187.487 488.977 188.572C488.302 189.657 487.349 190.464 486.117 190.992C485.618 191.197 485.031 191.329 484.357 191.388C483.682 191.447 482.758 191.359 481.585 191.124C480.881 190.977 480.411 191.051 480.177 191.344C479.971 191.637 479.883 192.209 479.913 193.06C479.971 193.588 480.089 194.057 480.265 194.468C480.47 194.849 480.837 195.113 481.365 195.26C482.039 195.377 482.523 195.392 482.817 195.304C483.11 195.187 483.477 195.025 483.917 194.82C484.151 194.673 484.371 194.512 484.577 194.336C484.811 194.16 485.031 193.984 485.237 193.808C485.471 193.632 485.662 193.5 485.809 193.412C485.955 193.295 486.102 193.221 486.249 193.192C486.395 193.163 486.542 193.148 486.689 193.148C487.011 193.177 487.319 193.353 487.613 193.676C487.906 193.999 488.097 194.307 488.185 194.6C488.185 194.835 488.038 195.172 487.745 195.612C487.451 196.023 487.055 196.463 486.557 196.932C486.087 197.372 485.559 197.768 484.973 198.12ZM484.401 188.308C484.606 188.22 484.899 188.015 485.281 187.692C485.691 187.369 486.058 187.032 486.381 186.68C486.703 186.299 486.865 186.005 486.865 185.8C486.865 185.477 486.645 185.199 486.205 184.964C485.794 184.729 485.251 184.685 484.577 184.832C484.342 184.891 484.063 185.052 483.741 185.316C483.418 185.58 483.095 185.888 482.773 186.24C482.45 186.563 482.171 186.885 481.937 187.208C481.702 187.501 481.541 187.736 481.453 187.912C481.57 188.059 481.805 188.176 482.157 188.264C482.509 188.352 482.89 188.396 483.301 188.396C483.741 188.396 484.107 188.367 484.401 188.308ZM499.976 197.856C499.683 198.061 499.316 198.179 498.876 198.208C498.465 198.208 498.099 198.047 497.776 197.724C497.219 197.196 496.735 196.155 496.324 194.6C495.913 193.016 495.708 190.875 495.708 188.176C495.825 186.973 495.884 185.859 495.884 184.832C495.913 183.805 495.928 183.233 495.928 183.116C496.251 182.911 496.661 182.852 497.16 182.94C497.688 182.999 498.113 183.101 498.436 183.248C498.729 183.395 498.935 183.615 499.052 183.908C499.199 184.201 499.287 184.729 499.316 185.492C499.375 186.225 499.404 187.355 499.404 188.88C499.316 190.053 499.257 190.992 499.228 191.696C499.199 192.4 499.228 192.811 499.316 192.928C499.433 193.133 499.492 193.251 499.492 193.28C499.492 193.28 499.712 193.06 500.152 192.62C500.387 192.297 500.636 191.872 500.9 191.344C501.193 190.816 501.443 190.391 501.648 190.068C501.971 189.657 502.264 189.261 502.528 188.88C502.821 188.499 503.027 188.249 503.144 188.132C503.261 187.897 503.408 187.677 503.584 187.472C503.76 187.267 503.907 187.061 504.024 186.856C504.347 186.299 504.684 185.844 505.036 185.492C505.388 185.111 505.623 184.92 505.74 184.92C505.857 185.008 506.077 184.993 506.4 184.876C506.723 184.729 506.943 184.656 507.06 184.656C507.265 184.451 507.544 184.451 507.896 184.656C508.013 184.744 508.116 184.847 508.204 184.964C508.292 185.052 508.336 185.155 508.336 185.272C508.336 185.419 508.248 185.785 508.072 186.372C507.925 186.929 507.735 187.487 507.5 188.044C507.295 188.572 507.119 188.88 506.972 188.968C506.972 188.968 506.928 189.012 506.84 189.1C506.752 189.188 506.649 189.291 506.532 189.408C506.473 189.613 506.268 189.995 505.916 190.552C505.593 191.08 505.183 191.696 504.684 192.4C504.215 193.075 503.731 193.749 503.232 194.424C502.733 195.069 502.293 195.641 501.912 196.14C501.619 196.551 501.281 196.917 500.9 197.24C500.519 197.533 500.211 197.739 499.976 197.856ZM517.227 199.792C515.613 199.792 514.367 199.323 513.487 198.384C512.636 197.445 512.211 196.008 512.211 194.072C512.211 193.016 512.401 191.857 512.783 190.596C513.193 189.335 513.721 188.103 514.367 186.9C515.041 185.697 515.775 184.656 516.567 183.776C517.359 182.867 518.151 182.236 518.943 181.884C519.236 181.737 519.544 181.635 519.867 181.576C520.219 181.488 520.556 181.444 520.879 181.444C521.231 181.444 521.612 181.473 522.023 181.532C522.463 181.561 522.873 181.649 523.255 181.796C523.929 182.001 524.516 182.397 525.015 182.984C525.543 183.571 525.807 184.421 525.807 185.536C525.807 185.829 525.777 186.152 525.719 186.504C525.66 186.827 525.557 187.149 525.411 187.472C525.029 188.44 524.443 189.364 523.651 190.244C522.888 191.124 522.081 191.74 521.231 192.092C520.996 192.209 520.761 192.297 520.527 192.356C520.321 192.385 520.101 192.4 519.867 192.4C519.251 192.4 518.693 192.312 518.195 192.136C517.725 191.96 517.285 191.725 516.875 191.432L516.523 191.124L516.303 191.564C516.097 192.121 515.951 192.591 515.863 192.972C515.804 193.353 515.775 193.632 515.775 193.808C515.775 194.16 515.789 194.527 515.819 194.908C515.848 195.26 515.936 195.553 516.083 195.788C516.2 195.935 516.347 196.052 516.523 196.14C516.728 196.228 516.977 196.272 517.271 196.272C517.447 196.272 517.608 196.272 517.755 196.272C517.931 196.243 518.077 196.213 518.195 196.184C518.723 196.067 519.148 195.876 519.471 195.612C519.823 195.319 520.189 195.069 520.571 194.864L520.747 194.776L520.703 194.644C521.201 194.38 521.539 194.219 521.715 194.16C521.891 194.072 522.023 193.999 522.111 193.94C522.228 193.823 522.36 193.764 522.507 193.764C522.917 193.705 523.313 193.823 523.695 194.116C524.105 194.38 524.311 194.717 524.311 195.128C524.311 195.304 524.179 195.583 523.915 195.964C523.68 196.345 523.372 196.727 522.991 197.108C522.639 197.46 522.272 197.739 521.891 197.944C521.803 197.973 521.715 198.017 521.627 198.076C521.539 198.105 521.451 198.149 521.363 198.208H521.407C521.143 198.56 520.879 198.736 520.615 198.736H520.263C520.145 198.941 519.764 199.161 519.119 199.396C518.473 199.66 517.843 199.792 517.227 199.792ZM519.515 189.188C519.779 189.188 520.013 189.144 520.219 189.056C520.453 188.968 520.673 188.865 520.879 188.748C521.583 188.249 522.037 187.604 522.243 186.812C522.448 186.02 522.375 185.419 522.023 185.008C521.964 184.92 521.891 184.861 521.803 184.832C521.715 184.773 521.612 184.744 521.495 184.744C521.172 184.744 520.805 184.847 520.395 185.052C520.013 185.257 519.632 185.551 519.251 185.932C518.869 186.313 518.517 186.768 518.195 187.296L517.623 188.22C517.681 188.191 517.725 188.176 517.755 188.176C517.813 188.147 517.857 188.132 517.887 188.132C518.151 188.132 518.327 188.22 518.415 188.396C518.503 188.572 518.605 188.748 518.723 188.924C518.869 189.1 519.133 189.188 519.515 189.188ZM531.306 200.32C530.924 200.173 530.616 199.939 530.382 199.616C530.147 199.323 530.015 198.883 529.986 198.296C529.956 197.915 529.971 197.357 530.03 196.624C530.088 195.861 530.191 195.099 530.338 194.336C530.338 194.277 530.338 194.219 530.338 194.16C530.367 194.072 530.382 194.013 530.382 193.984C530.411 193.867 530.44 193.691 530.47 193.456C530.499 193.192 530.528 192.987 530.558 192.84C530.616 192.664 530.646 192.649 530.646 192.796L530.91 191.608C531.027 191.08 531.159 190.537 531.306 189.98C531.452 189.423 531.584 188.939 531.702 188.528C531.848 188.088 531.936 187.839 531.966 187.78C531.966 187.78 532.01 187.619 532.098 187.296C532.215 186.944 532.332 186.592 532.45 186.24C532.919 184.773 533.359 183.556 533.77 182.588C534.21 181.62 534.591 180.916 534.914 180.476C534.943 180.388 534.987 180.285 535.046 180.168C535.104 180.021 535.148 179.904 535.178 179.816C535.178 179.493 535.192 179.259 535.222 179.112C535.28 178.965 535.354 178.833 535.442 178.716C535.5 178.599 535.588 178.452 535.706 178.276C535.823 178.071 535.955 177.821 536.102 177.528L536.278 177.044C536.454 176.663 536.674 176.223 536.938 175.724C537.202 175.196 537.392 174.8 537.51 174.536C537.598 174.272 537.774 173.964 538.038 173.612C538.302 173.231 538.595 172.981 538.918 172.864L538.874 172.82C539.02 172.556 539.299 172.351 539.71 172.204C540.12 172.028 540.458 171.94 540.722 171.94C541.132 171.94 541.44 172.057 541.646 172.292C541.88 172.527 541.998 172.849 541.998 173.26C541.998 173.7 541.983 174.023 541.954 174.228C541.954 174.404 541.851 174.609 541.646 174.844H541.69C541.748 174.785 541.734 174.873 541.646 175.108C541.558 175.343 541.484 175.504 541.426 175.592C541.367 175.739 541.294 175.9 541.206 176.076C541.147 176.252 541.074 176.384 540.986 176.472C540.898 176.589 540.663 177 540.282 177.704C539.9 178.379 539.475 179.185 539.006 180.124C538.536 181.033 538.082 181.928 537.642 182.808C537.231 183.659 536.938 184.319 536.762 184.788L536.542 185.448C536.512 185.565 536.498 185.653 536.498 185.712C536.41 185.917 536.322 186.123 536.234 186.328C536.146 186.533 536.058 186.709 535.97 186.856L535.266 189.584L535.09 190.508L534.694 191.52L534.43 192.356C534.371 192.532 534.327 192.723 534.298 192.928C534.268 193.133 534.21 193.28 534.122 193.368C534.122 193.397 534.107 193.441 534.078 193.5C534.078 193.529 534.078 193.559 534.078 193.588C533.96 194.057 533.755 194.717 533.462 195.568C533.198 196.419 533.036 197.357 532.978 198.384C532.978 198.413 532.963 198.443 532.934 198.472C532.934 198.501 532.934 198.531 532.934 198.56C532.846 199.176 532.655 199.645 532.362 199.968C532.098 200.32 531.746 200.437 531.306 200.32Z" fill="#B8C318"/>
</svg>
