<svg width="900" height="250" viewBox="0 0 900 250" fill="none" xmlns="http://www.w3.org/2000/svg">
<rect width="900" height="220" rx="60" fill="#FDFDFB"/>
<rect x="5.5" y="35.5" width="889" height="209" rx="54.5" fill="#FDFDFB" stroke="#B8C318" stroke-width="11"/>
<rect width="594" height="172" transform="translate(153 54)" fill="#FDFDFB"/>
<path d="M235.94 94.46V102.2H244.76V94.46H235.94ZM250.76 128L251.48 134.12C243.56 136.34 234.98 138.56 228.5 140.3L226.88 133.58L229.64 132.98V112.64H235.34V131.72L238.4 131.06V108.2H229.88V88.46H251.18V108.2H244.64V114.62H250.94V120.8H244.64V129.56C246.68 129.02 248.72 128.54 250.76 128ZM259.94 105.14V110H273.74V105.14H259.94ZM273.74 94.76H259.94V99.38H273.74V94.76ZM278.84 116.72L283.28 121.76C280.58 123.86 277.46 126.2 274.88 127.94C277.16 131.3 280.16 134.06 283.76 135.86C282.32 137.24 280.28 140.06 279.26 142.04C270.92 137.06 266.48 127.82 263.78 116.18H259.94V132.98L268.52 131.12C268.46 133.16 268.58 136.1 268.82 137.6C257 140.6 254.78 141.5 253.34 142.4C252.86 140.84 251.36 138.08 250.34 136.82C251.54 136.04 253.1 134.42 253.1 131.66V88.64H280.28V116.18H269.66C270.32 118.52 271.04 120.74 272 122.84C274.46 120.98 277.1 118.64 278.84 116.72ZM334.7 126.2H322.94C325.46 127.52 328.22 128.9 330.92 130.4C332.36 129.14 333.62 127.76 334.7 126.2ZM338.96 121.28L342.86 122.66C341.36 127.04 339.14 130.52 336.26 133.34C338.96 134.84 341.42 136.34 343.22 137.54L339.62 142.28C337.58 140.84 334.7 138.98 331.46 137.06C327.68 139.4 323.06 141.08 318.08 142.22C317.48 140.66 316.22 138.38 315.08 137.06C318.98 136.4 322.64 135.26 325.76 133.7C322.82 132.08 320 130.46 317.42 129.08L319.82 126.2H318.38V121.46H337.88L338.96 121.28ZM342.08 92.48L347.24 96.14C344.96 98.18 342.38 100.1 340.16 101.66C342.8 103.04 345.68 104.18 348.74 105.02C347.24 106.4 345.44 108.92 344.48 110.66C342.02 109.88 339.8 108.92 337.64 107.78V112.94C337.64 114.38 337.76 114.86 338.54 114.86H341.48C342.32 114.86 343.76 114.8 344.54 114.56C344.66 116 344.78 118.04 345.02 119.42C344.18 119.72 342.8 119.78 341.54 119.78H337.82C332.78 119.78 331.82 117.74 331.82 112.88V109.4H326.3C326.12 113.6 324.68 118.1 319.7 121.28C319.04 120.26 317.3 118.52 316.1 117.44V119.24H304.22C303.98 120.62 303.8 122.06 303.62 123.38H316.1C316.1 123.38 316.04 125.06 315.98 125.9C315.32 134 314.6 137.84 313.04 139.4C311.78 140.78 310.34 141.26 308.24 141.38C306.62 141.56 303.5 141.56 300.32 141.44C300.2 139.58 299.36 137.12 298.28 135.5C301.28 135.74 304.22 135.8 305.54 135.8C306.5 135.8 307.16 135.74 307.7 135.2C308.42 134.54 308.96 132.62 309.38 128.54H296.78C297.62 124.64 298.58 118.7 299.12 113.96H309.74V109.76H301.04V108.8C299.24 109.7 297.44 110.48 295.58 111.14C294.74 109.58 293 107.18 291.74 105.92C295.28 104.9 298.7 103.28 301.82 101.3C300.2 100.1 298.04 98.72 296.24 97.7L300.32 93.92C302.36 94.94 304.88 96.38 306.62 97.7C307.88 96.5 309.08 95.24 310.1 93.86H298.28V88.28H313.94L315.14 87.98L319.52 90.14C317.12 96.02 313.1 100.7 308.24 104.36H316.1V116.3C319.82 113.84 320.36 110.96 320.36 108.26V104H331.82C326.6 99.86 322.58 94.52 319.7 88.1L325.4 86.42C326.3 88.46 327.44 90.38 328.82 92.06C330.8 90.38 333.02 88.22 334.46 86.54L339.56 90.2C337.1 92.24 334.52 94.4 332.24 96.02C333.26 96.98 334.34 97.88 335.42 98.72C337.7 96.92 340.46 94.4 342.08 92.48ZM366.92 113.36L365.3 108.92H358.76V95.42H381.44V93.02H361.46V88.34H408.5V93.02H388.4V95.42H411.56V108.92H404.66L403.4 113.18C400.22 112.04 394.04 110.6 389.54 109.88L390.92 105.86C395.18 106.34 401.12 107.6 404.42 108.68V100.1H401.18L403.34 103.16C400.16 104.48 395.78 105.44 392.66 106.04L390.44 102.68C392.78 102.14 396.14 101.06 398.66 100.1H388.4V112.58H381.44V100.1H369.98C373.22 100.7 377.06 101.72 379.34 102.56L377.42 106.4C375.02 105.44 370.52 104.18 367.1 103.46L368.78 100.1H365.54V108.32C369.2 107.9 374.24 107.18 379.4 106.4L379.64 110.48C375.14 111.5 370.7 112.52 366.92 113.36ZM371.12 128.48H381.08V125.78H371.12V128.48ZM381.08 118.88H371.12V121.58H381.08V118.88ZM398.78 121.58V118.88H387.92V121.58H398.78ZM387.92 128.48H398.78V125.78H387.92V128.48ZM392.24 135.98H403.58C406.64 135.98 407.18 135.08 407.6 130.04C408.98 131 411.68 131.9 413.54 132.26C412.7 139.46 410.72 141.38 404.18 141.38H391.58C383.42 141.38 381.08 139.7 381.08 133.46V133.28H371.12V135.86H364.28V114.08H405.86V133.28H387.92V133.46C387.92 135.62 388.64 135.98 392.24 135.98ZM462.92 114.92V111.14H441.38V114.92H462.92ZM441.26 124.76H462.92V120.86H441.38C441.38 122.12 441.32 123.38 441.26 124.76ZM476.6 100.1H444.38C443.72 101.72 442.88 103.28 441.98 104.84H469.88V134.48C469.88 138.02 469.22 139.94 466.76 141.02C464.42 142.16 461 142.22 456.14 142.22C455.84 140.24 454.88 137.24 453.98 135.32C457.04 135.5 460.52 135.5 461.54 135.5C462.56 135.44 462.92 135.14 462.92 134.3V130.7H440.36C439.34 135.2 437.42 139.52 433.7 142.64C432.74 141.14 430.04 138.14 428.54 137.18C433.7 132.68 434.12 126.26 434.12 120.68V115.82C431.84 118.22 429.44 120.44 426.68 122.36C425.6 120.74 423.38 118.16 422 116.84C428.06 112.82 432.86 106.76 436.4 100.1H423.38V93.38H439.46C440.42 90.92 441.2 88.52 441.86 86.12L449.24 87.8C448.64 89.66 447.98 91.52 447.32 93.38H476.6V100.1ZM496.34 100.4V103.16H505.94V100.4H496.34ZM505.94 93.26H496.34V96.08H505.94V93.26ZM508.7 117.8L512.12 116.9C513.08 119.06 514.16 121.82 514.64 123.5L512.24 124.34H513.14V130.1C513.14 134.84 511.94 139.28 504.38 141.92C503.84 140.78 502.34 138.86 501.32 137.96C504.44 137.06 506.18 135.86 507.14 134.42H500.36V125.36H504.68V130.46H508.28V129.98V124.34H510.92C510.8 123.92 510.68 123.38 510.56 122.84C502.34 123.86 500.9 124.16 499.94 124.58V124.52C499.76 123.68 499.16 121.64 498.74 120.56C499.58 120.44 500.66 119.84 501.86 118.94C502.34 118.58 503.3 117.8 504.44 116.72C501.62 116.96 500.72 117.2 500.18 117.44V117.38C499.94 116.48 499.28 114.44 498.74 113.3C499.4 113.18 500.12 112.88 500.72 112.22C501.32 111.74 503.06 110.06 504.26 107.96H496.34V142.22H489.5V88.46H512.66V107.96H506.6L508.82 109.16C507.62 110.72 506.18 112.28 504.68 113.54L507.8 113.42C508.58 112.52 509.3 111.62 510.02 110.72L513.5 113.12C511.16 115.58 508.46 118.1 505.7 120.08L509.42 119.72C509.24 119.06 508.94 118.4 508.7 117.8ZM529.04 125.36V135.02C530.48 135.08 531.74 135.08 532.28 135.02C533.06 135.02 533.3 134.72 533.3 133.94V107.96H522.38L524.78 109.22C523.58 110.78 522.2 112.34 520.76 113.6L523.7 113.48C524.6 112.52 525.38 111.56 526.1 110.6L529.58 113.06C527.18 115.58 524.54 118.1 521.84 120.2L525.44 119.84C525.2 119.18 524.96 118.52 524.66 117.92L528.02 116.84C529.1 119 530.3 121.82 530.84 123.44L527.3 124.82C527.12 124.28 526.88 123.56 526.64 122.84C520.46 123.62 518.12 124.04 516.92 124.34H520.88V130.46H524.48V125.36H529.04ZM533.3 93.26H523.4V96.08H533.3V93.26ZM523.4 100.4V103.16H533.3V100.4H523.4ZM540.2 88.46V134C540.2 137.42 539.72 139.4 537.68 140.6C535.7 141.8 532.88 141.92 528.86 141.92C528.68 140.36 528.08 137.96 527.36 136.1H524.48V134.42H520.88V141.44H515.96V124.34H516.02C515.72 123.38 515.18 121.64 514.76 120.62C515.72 120.56 516.74 119.96 517.94 119C518.42 118.64 519.32 117.86 520.46 116.78C517.64 117.02 516.74 117.26 516.2 117.5C515.96 116.54 515.3 114.5 514.76 113.42C515.42 113.24 516.14 112.94 516.74 112.34C517.28 111.8 519.02 110.12 520.28 107.96H516.62V88.46H540.2ZM564.26 98.06H559.7V119.12H564.26V98.06ZM570.62 125.72H559.7V130.64H553.4V91.46H570.62V125.72ZM572.9 140.3L567.8 137.84C570.08 134.48 571.46 129.14 572.06 124.34L577.34 125.84C576.62 130.94 575.42 136.76 572.9 140.3ZM578.66 125.54L583.28 124.76C584.24 128.66 584.78 133.7 584.66 137L579.74 137.78C579.98 134.48 579.5 129.44 578.66 125.54ZM585.26 125.06L589.52 123.86C590.96 127.16 592.16 131.48 592.52 134.24L587.96 135.68C587.72 132.8 586.58 128.36 585.26 125.06ZM599.12 131.06L594.98 132.62C594.5 130.28 593.18 126.8 591.8 124.22L595.58 122.9C597.14 125.42 598.52 128.84 599.12 131.06ZM580.7 112.7V116.3H587.12V112.7H580.7ZM587.12 94.7H580.7V98.12H587.12V94.7ZM587.12 107.18V103.7H580.7V107.18H587.12ZM593.72 116.3H606.68C606.68 116.3 606.62 118.04 606.56 118.88C606.02 132.38 605.3 137.84 603.8 139.76C602.66 141.2 601.46 141.68 599.9 141.92C598.46 142.16 596.18 142.22 593.66 142.16C593.6 140.24 592.94 137.72 591.98 136.1C593.96 136.28 595.58 136.28 596.48 136.28C597.26 136.28 597.8 136.16 598.28 135.56C599.06 134.6 599.6 131.12 600.02 122.24H573.98V88.52H605.06V94.7H593.72V98.12H603.38V103.7H593.72V107.18H603.38V112.7H593.72V116.3ZM639.74 121.58C638.48 112.16 651.2 110 651.2 104.18C651.2 100.58 648.32 98.54 643.64 98.54C639.92 98.54 636.98 100.16 634.04 103.28L629.12 98.72C632.9 94.28 638.18 91.4 644.6 91.4C653.3 91.4 659.66 95.42 659.66 103.4C659.66 112.22 646.58 113.24 647.48 121.58H639.74ZM643.64 137.54C640.58 137.54 638.36 135.38 638.36 132.26C638.36 129.08 640.64 126.92 643.64 126.92C646.7 126.92 648.92 129.08 648.92 132.26C648.92 135.38 646.7 137.54 643.64 137.54Z" fill="#594A39"/>
<path d="M160.288 201.64C160.171 201.933 159.775 202.08 159.1 202.08C158.426 202.08 157.839 201.889 157.34 201.508C156.988 201.156 156.754 200.877 156.636 200.672C156.548 200.496 156.607 200.173 156.812 199.704C157.018 199.264 157.37 198.472 157.868 197.328C157.986 196.624 158.191 195.92 158.484 195.216C158.778 194.483 158.998 193.969 159.144 193.676C159.262 193.265 159.496 192.591 159.848 191.652C160.23 190.684 160.655 189.613 161.124 188.44C161.623 187.267 162.092 186.167 162.532 185.14C162.972 184.084 163.295 183.292 163.5 182.764C163.999 181.591 164.512 180.359 165.04 179.068C165.568 177.777 166.287 176.149 167.196 174.184C167.314 173.891 167.27 173.583 167.064 173.26C166.859 172.937 166.507 172.776 166.008 172.776C165.715 172.453 165.554 172.116 165.524 171.764C165.495 171.383 165.642 171.119 165.964 170.972L170.012 169.608C171.391 169.285 172.799 169.197 174.236 169.344C175.703 169.461 177.082 169.857 178.372 170.532C179.78 171.353 180.807 172.263 181.452 173.26C182.098 174.257 182.45 175.269 182.508 176.296C182.596 177.293 182.479 178.203 182.156 179.024C181.922 179.64 181.467 180.315 180.792 181.048C180.147 181.781 179.384 182.515 178.504 183.248C177.654 183.981 176.759 184.656 175.82 185.272C174.911 185.859 174.06 186.313 173.268 186.636C172.535 186.988 171.714 187.355 170.804 187.736C169.895 188.088 169.015 188.396 168.164 188.66C167.695 188.777 167.138 188.836 166.492 188.836C165.847 188.836 165.363 188.777 165.04 188.66L164.292 190.068C163.999 191.124 163.486 192.693 162.752 194.776C162.048 196.859 161.227 199.147 160.288 201.64ZM177.756 202.476C177.522 202.564 177.126 202.593 176.568 202.564C176.04 202.535 175.439 202.3 174.764 201.86C173.474 201.097 172.183 200.173 170.892 199.088C169.602 198.003 168.15 196.536 166.536 194.688C165.92 193.955 165.451 193.221 165.128 192.488C164.835 191.755 164.454 190.831 163.984 189.716L163.368 187.34L165.04 186.24L166.976 187.824C167.446 188.851 167.988 189.833 168.604 190.772C169.25 191.711 169.895 192.547 170.54 193.28C171.068 193.896 171.787 194.644 172.696 195.524C173.606 196.375 174.574 197.196 175.6 197.988C176.627 198.78 177.551 199.381 178.372 199.792C178.548 199.939 178.592 200.217 178.504 200.628C178.446 201.068 178.328 201.479 178.152 201.86C178.006 202.241 177.874 202.447 177.756 202.476ZM166.668 185.228C167.343 185.169 168.076 184.993 168.868 184.7C169.69 184.377 170.555 184.025 171.464 183.644C172.315 183.233 173.151 182.793 173.972 182.324C174.823 181.825 175.586 181.283 176.26 180.696C176.964 180.109 177.507 179.479 177.888 178.804C178.299 178.129 178.475 177.411 178.416 176.648C178.416 176.267 178.299 175.841 178.064 175.372C177.83 174.903 177.522 174.477 177.14 174.096C176.788 173.715 176.422 173.465 176.04 173.348C174.867 173.055 173.972 172.879 173.356 172.82C172.74 172.761 172.286 172.849 171.992 173.084C171.728 173.319 171.523 173.729 171.376 174.316C171.376 174.404 171.259 174.683 171.024 175.152C170.79 175.621 170.496 176.223 170.144 176.956C169.822 177.66 169.499 178.423 169.176 179.244C168.326 180.975 167.695 182.251 167.284 183.072C166.903 183.864 166.668 184.392 166.58 184.656C166.522 184.92 166.551 185.111 166.668 185.228ZM193.164 198.12C192.284 198.619 191.346 198.912 190.348 199C189.38 199.059 188.471 198.927 187.62 198.604C186.77 198.252 186.08 197.739 185.552 197.064C185.259 196.683 184.98 196.081 184.716 195.26C184.452 194.409 184.408 193.265 184.584 191.828C184.76 190.479 185.171 189.115 185.816 187.736C186.491 186.357 187.312 185.14 188.28 184.084C189.248 183.028 190.304 182.309 191.448 181.928C191.859 181.781 192.27 181.679 192.68 181.62C193.12 181.532 193.692 181.517 194.396 181.576C195.071 181.664 195.672 181.84 196.2 182.104C196.728 182.339 197.11 182.603 197.344 182.896C197.814 183.365 198.122 183.82 198.268 184.26C198.415 184.7 198.474 185.125 198.444 185.536C198.298 186.475 197.872 187.487 197.168 188.572C196.494 189.657 195.54 190.464 194.308 190.992C193.81 191.197 193.223 191.329 192.548 191.388C191.874 191.447 190.95 191.359 189.776 191.124C189.072 190.977 188.603 191.051 188.368 191.344C188.163 191.637 188.075 192.209 188.104 193.06C188.163 193.588 188.28 194.057 188.456 194.468C188.662 194.849 189.028 195.113 189.556 195.26C190.231 195.377 190.715 195.392 191.008 195.304C191.302 195.187 191.668 195.025 192.108 194.82C192.343 194.673 192.563 194.512 192.768 194.336C193.003 194.16 193.223 193.984 193.428 193.808C193.663 193.632 193.854 193.5 194 193.412C194.147 193.295 194.294 193.221 194.44 193.192C194.587 193.163 194.734 193.148 194.88 193.148C195.203 193.177 195.511 193.353 195.804 193.676C196.098 193.999 196.288 194.307 196.376 194.6C196.376 194.835 196.23 195.172 195.936 195.612C195.643 196.023 195.247 196.463 194.748 196.932C194.279 197.372 193.751 197.768 193.164 198.12ZM192.592 188.308C192.798 188.22 193.091 188.015 193.472 187.692C193.883 187.369 194.25 187.032 194.572 186.68C194.895 186.299 195.056 186.005 195.056 185.8C195.056 185.477 194.836 185.199 194.396 184.964C193.986 184.729 193.443 184.685 192.768 184.832C192.534 184.891 192.255 185.052 191.932 185.316C191.61 185.58 191.287 185.888 190.964 186.24C190.642 186.563 190.363 186.885 190.128 187.208C189.894 187.501 189.732 187.736 189.644 187.912C189.762 188.059 189.996 188.176 190.348 188.264C190.7 188.352 191.082 188.396 191.492 188.396C191.932 188.396 192.299 188.367 192.592 188.308ZM205.165 199.484C204.608 199.631 204.109 199.469 203.669 199C203.229 198.56 202.921 197.9 202.745 197.02C202.569 196.14 202.599 195.157 202.833 194.072C202.98 193.72 203.097 193.383 203.185 193.06C203.273 192.708 203.317 192.429 203.317 192.224C203.376 191.931 203.493 191.505 203.669 190.948C203.845 190.361 204.036 189.76 204.241 189.144C204.447 188.528 204.637 187.985 204.813 187.516C205.019 187.017 205.151 186.709 205.209 186.592C205.327 186.592 205.429 186.489 205.517 186.284C205.605 186.079 205.649 185.873 205.649 185.668C205.649 185.433 205.693 185.169 205.781 184.876C205.899 184.583 206.016 184.377 206.133 184.26C206.133 184.113 206.163 183.952 206.221 183.776C206.309 183.571 206.353 183.409 206.353 183.292C206.353 183.175 206.383 183.057 206.441 182.94C206.529 182.823 206.573 182.705 206.573 182.588C206.779 182.207 207.043 181.605 207.365 180.784C207.717 179.933 208.084 178.995 208.465 177.968C208.876 176.941 209.257 175.929 209.609 174.932C209.961 173.935 210.24 173.099 210.445 172.424C210.68 171.72 210.797 171.295 210.797 171.148C210.797 170.913 210.885 170.693 211.061 170.488C211.237 170.283 211.443 170.18 211.677 170.18C211.765 170.092 211.971 170.033 212.293 170.004C212.616 169.945 212.836 169.916 212.953 169.916C212.953 169.916 213.012 169.975 213.129 170.092C213.247 170.209 213.423 170.385 213.657 170.62C213.892 170.825 214.112 171.06 214.317 171.324C214.552 171.588 214.669 171.896 214.669 172.248C214.669 172.629 214.611 172.996 214.493 173.348C214.405 173.7 214.229 174.184 213.965 174.8C213.701 175.387 213.291 176.267 212.733 177.44C212.499 178.027 212.249 178.584 211.985 179.112C211.721 179.611 211.589 179.919 211.589 180.036C211.589 180.153 211.531 180.329 211.413 180.564C211.325 180.799 211.223 181.092 211.105 181.444C210.988 181.679 210.827 182.031 210.621 182.5C210.416 182.94 210.196 183.424 209.961 183.952C209.756 184.451 209.58 184.891 209.433 185.272C209.287 185.624 209.213 185.829 209.213 185.888C209.213 186.005 209.199 186.123 209.169 186.24C209.169 186.357 209.111 186.475 208.993 186.592C208.876 186.592 208.803 186.68 208.773 186.856C208.773 187.003 208.773 187.076 208.773 187.076C208.773 187.369 208.539 188.147 208.069 189.408C207.6 191.021 207.16 192.503 206.749 193.852C206.368 195.201 206.177 196.287 206.177 197.108C206.177 197.812 206.06 198.355 205.825 198.736C205.62 199.117 205.4 199.367 205.165 199.484ZM218.574 198.384C218.339 198.443 218.031 198.472 217.65 198.472C217.268 198.443 216.931 198.399 216.638 198.34C216.374 198.252 216.242 198.164 216.242 198.076C216.242 197.929 216.168 197.856 216.022 197.856C216.022 197.856 215.86 197.739 215.538 197.504C215.215 197.24 214.922 197.049 214.658 196.932C214.394 196.521 214.218 196.052 214.13 195.524C214.071 194.967 214.247 193.999 214.658 192.62C214.687 191.681 214.951 190.699 215.45 189.672C215.948 188.616 216.579 187.589 217.342 186.592C218.104 185.595 218.896 184.715 219.718 183.952C220.539 183.16 221.272 182.573 221.918 182.192C222.328 181.781 222.871 181.561 223.546 181.532C224.25 181.503 224.866 181.635 225.394 181.928C225.687 182.075 226.01 182.368 226.362 182.808C226.714 183.248 227.051 183.717 227.374 184.216C227.696 184.685 227.946 185.111 228.122 185.492C228.21 185.815 228.283 186.108 228.342 186.372C228.43 186.607 228.488 186.9 228.518 187.252C228.547 187.604 228.518 188.132 228.43 188.836C228.283 189.364 228.151 189.907 228.034 190.464C227.946 190.992 227.902 191.535 227.902 192.092C227.843 192.649 227.902 193.045 228.078 193.28C228.283 193.515 228.576 193.529 228.958 193.324C229.31 193.148 229.676 193.133 230.058 193.28C230.439 193.397 230.703 193.632 230.85 193.984C231.026 194.307 230.982 194.732 230.718 195.26C230.542 195.641 230.263 196.008 229.882 196.36C229.5 196.712 229.075 197.005 228.606 197.24C228.136 197.445 227.682 197.548 227.242 197.548C226.919 197.548 226.596 197.431 226.274 197.196C225.951 196.932 225.658 196.58 225.394 196.14C225.13 195.7 224.91 195.216 224.734 194.688L224.47 193.676L222.886 195.128C222.504 195.539 222.123 195.92 221.742 196.272C221.39 196.595 221.17 196.829 221.082 196.976C220.935 197.24 220.642 197.475 220.202 197.68C219.791 197.885 219.248 198.12 218.574 198.384ZM219.762 194.16C220.26 193.867 220.686 193.515 221.038 193.104C221.419 192.693 221.786 192.239 222.138 191.74C222.49 191.212 222.871 190.655 223.282 190.068C223.78 189.393 224.132 188.851 224.338 188.44C224.572 188.029 224.748 187.589 224.866 187.12C224.748 186.797 224.587 186.46 224.382 186.108C224.176 185.727 223.971 185.521 223.766 185.492C223.355 185.492 222.856 185.741 222.27 186.24C221.712 186.739 221.096 187.457 220.422 188.396C220.304 188.543 220.158 188.777 219.982 189.1C219.806 189.423 219.63 189.731 219.454 190.024C219.307 190.288 219.204 190.464 219.146 190.552C219.058 190.669 218.926 190.948 218.75 191.388C218.603 191.799 218.471 192.224 218.354 192.664C218.236 193.075 218.178 193.368 218.178 193.544C218.178 193.72 218.192 193.911 218.222 194.116C218.28 194.321 218.427 194.453 218.662 194.512C218.896 194.571 219.263 194.453 219.762 194.16ZM241.944 199.264C241.534 199.147 241.123 198.941 240.712 198.648C240.302 198.355 239.876 198.017 239.436 197.636C239.084 197.167 238.835 196.741 238.688 196.36C238.542 195.949 238.454 195.48 238.424 194.952C238.424 194.395 238.424 193.691 238.424 192.84C238.424 192.488 238.483 191.989 238.6 191.344C238.747 190.699 238.894 190.024 239.04 189.32C239.216 188.616 239.378 188 239.524 187.472C239.671 186.915 239.759 186.548 239.788 186.372C239.876 185.991 239.73 185.771 239.348 185.712C238.967 185.653 238.542 185.639 238.072 185.668C237.632 185.668 237.339 185.624 237.192 185.536C237.075 185.507 237.016 185.36 237.016 185.096C237.016 184.803 237.016 184.656 237.016 184.656C237.016 184.539 236.958 184.465 236.84 184.436C236.723 184.377 236.62 184.275 236.532 184.128C236.474 184.011 236.547 183.791 236.752 183.468C236.958 183.145 237.222 182.955 237.544 182.896C237.808 182.837 238.204 182.793 238.732 182.764C239.26 182.705 239.788 182.603 240.316 182.456C240.874 182.28 241.299 182.016 241.592 181.664C241.856 181.019 242.15 180.329 242.472 179.596C242.795 178.833 243.103 178.173 243.396 177.616C243.69 177.029 243.895 176.663 244.012 176.516C244.511 176.252 245.024 176.149 245.552 176.208C246.08 176.237 246.491 176.487 246.784 176.956C246.931 177.161 247.048 177.308 247.136 177.396C247.254 177.484 247.298 177.616 247.268 177.792C247.268 177.968 247.151 178.291 246.916 178.76C246.711 179.2 246.359 179.889 245.86 180.828C245.714 181.121 245.582 181.385 245.464 181.62C245.347 181.825 245.288 181.928 245.288 181.928C245.406 181.957 245.582 181.972 245.816 181.972C246.051 181.972 246.344 181.957 246.696 181.928C247.019 181.869 247.371 181.825 247.752 181.796C248.134 181.737 248.471 181.737 248.764 181.796C249.439 181.796 249.938 181.987 250.26 182.368C250.583 182.749 250.759 183.233 250.788 183.82C250.847 184.143 250.73 184.421 250.436 184.656C250.143 184.891 249.6 185.008 248.808 185.008C248.544 185.008 248.163 185.023 247.664 185.052C247.166 185.081 246.652 185.111 246.124 185.14C245.596 185.169 245.142 185.213 244.76 185.272C244.408 185.301 244.232 185.345 244.232 185.404C244.144 185.463 243.998 185.697 243.792 186.108C243.616 186.489 243.426 186.959 243.22 187.516C243.044 188.073 242.883 188.601 242.736 189.1C242.531 190.097 242.384 191.065 242.296 192.004C242.208 192.943 242.194 193.764 242.252 194.468C242.34 195.143 242.516 195.627 242.78 195.92C243.044 196.184 243.44 196.184 243.968 195.92C244.526 195.627 245.039 195.289 245.508 194.908C246.036 194.468 246.491 194.336 246.872 194.512C247.254 194.659 247.488 194.981 247.576 195.48C247.694 195.949 247.562 196.463 247.18 197.02C246.828 197.577 246.33 198.047 245.684 198.428C245.039 198.809 244.379 199.073 243.704 199.22C243.03 199.396 242.443 199.411 241.944 199.264ZM257.259 198.604C256.115 198.135 255.323 197.372 254.883 196.316C254.443 195.26 254.326 193.852 254.531 192.092C254.59 191.183 254.56 190.581 254.443 190.288C254.326 189.965 254.106 189.657 253.783 189.364C253.695 189.247 253.49 189.056 253.167 188.792C252.844 188.499 252.698 188.279 252.727 188.132C252.698 187.927 252.742 187.677 252.859 187.384C252.976 187.061 253.079 186.885 253.167 186.856C253.372 186.768 253.578 186.665 253.783 186.548C254.018 186.431 254.194 186.401 254.311 186.46C254.428 186.46 254.604 186.533 254.839 186.68C255.103 186.827 255.235 186.959 255.235 187.076C255.352 187.281 255.528 187.193 255.763 186.812C256.027 186.431 256.306 185.947 256.599 185.36C256.892 184.891 257.259 184.451 257.699 184.04C258.139 183.629 258.579 183.263 259.019 182.94C259.488 182.588 259.884 182.324 260.207 182.148C260.354 182.089 260.632 182.001 261.043 181.884C261.483 181.767 261.938 181.679 262.407 181.62C262.876 181.532 263.228 181.503 263.463 181.532C263.991 181.561 264.548 181.781 265.135 182.192C265.722 182.603 266.176 182.984 266.499 183.336C266.88 183.6 267.13 184.011 267.247 184.568C267.394 185.096 267.452 185.653 267.423 186.24C267.394 186.827 267.276 187.325 267.071 187.736C266.983 188.029 266.675 188.44 266.147 188.968C265.619 189.496 265.032 190.009 264.387 190.508C263.771 190.977 263.243 191.3 262.803 191.476C262.422 191.564 261.967 191.637 261.439 191.696C260.911 191.725 260.412 191.725 259.943 191.696C259.503 191.637 259.195 191.564 259.019 191.476C258.814 191.359 258.638 191.403 258.491 191.608C258.374 191.784 258.271 192.283 258.183 193.104C258.154 193.427 258.154 193.705 258.183 193.94C258.242 194.175 258.3 194.351 258.359 194.468C258.564 194.82 258.77 195.084 258.975 195.26C259.18 195.407 259.562 195.451 260.119 195.392C260.676 195.333 261.234 194.996 261.791 194.38C262.378 193.735 262.906 193.221 263.375 192.84C263.492 192.635 263.742 192.503 264.123 192.444C264.534 192.356 265.018 192.385 265.575 192.532C265.898 192.737 266.044 193.06 266.015 193.5C266.015 193.94 265.78 194.585 265.311 195.436C265.223 195.641 264.974 195.949 264.563 196.36C264.182 196.741 263.756 197.137 263.287 197.548C262.847 197.929 262.48 198.208 262.187 198.384C261.307 198.853 260.442 199.073 259.591 199.044C258.74 199.015 257.963 198.868 257.259 198.604ZM260.515 188.704C260.955 188.587 261.322 188.469 261.615 188.352C261.938 188.235 262.246 188.044 262.539 187.78C262.832 187.516 263.17 187.12 263.551 186.592C263.668 186.269 263.727 185.991 263.727 185.756C263.756 185.521 263.742 185.375 263.683 185.316C263.448 185.081 263.184 185.008 262.891 185.096C262.627 185.155 262.334 185.301 262.011 185.536C261.806 185.624 261.512 185.815 261.131 186.108C260.779 186.372 260.427 186.68 260.075 187.032C259.752 187.355 259.488 187.663 259.283 187.956C259.107 188.22 259.078 188.381 259.195 188.44C259.136 188.557 259.298 188.631 259.679 188.66C260.09 188.689 260.368 188.704 260.515 188.704ZM283.834 199.528C283.512 199.645 283.145 199.704 282.734 199.704C282.353 199.733 281.913 199.557 281.414 199.176C281.121 198.853 280.916 198.516 280.798 198.164C280.71 197.812 280.666 197.269 280.666 196.536C280.725 196.096 280.842 195.465 281.018 194.644C281.194 193.793 281.385 192.913 281.59 192.004C281.825 191.065 282.03 190.229 282.206 189.496C282.412 188.733 282.573 188.22 282.69 187.956C282.896 187.252 282.94 186.812 282.822 186.636C282.705 186.46 282.353 186.357 281.766 186.328C281.092 186.299 280.388 186.621 279.654 187.296C278.921 187.971 278.085 189.041 277.146 190.508C276.442 191.593 276.017 192.488 275.87 193.192C275.724 193.867 275.709 194.336 275.826 194.6C275.885 194.717 275.988 194.791 276.134 194.82C276.31 194.82 276.516 194.776 276.75 194.688C277.014 194.6 277.293 194.483 277.586 194.336C277.792 194.219 278.041 194.101 278.334 193.984C278.657 193.837 278.965 193.705 279.258 193.588C279.434 193.588 279.552 193.691 279.61 193.896C279.698 194.101 279.742 194.351 279.742 194.644C279.742 194.761 279.772 194.981 279.83 195.304C279.918 195.627 280.065 195.847 280.27 195.964C280.388 196.081 280.138 196.331 279.522 196.712C278.936 197.064 278.173 197.504 277.234 198.032C276.354 198.237 275.694 198.34 275.254 198.34C274.844 198.34 274.389 198.149 273.89 197.768C273.069 197.269 272.541 196.345 272.306 194.996C272.101 193.647 272.277 192.151 272.834 190.508C273.392 189.188 274.008 188.059 274.682 187.12C275.386 186.152 276.12 185.272 276.882 184.48C277 184.363 277.366 184.128 277.982 183.776C278.598 183.424 279.229 183.145 279.874 182.94C280.608 182.705 281.224 182.617 281.722 182.676C282.25 182.705 282.749 182.881 283.218 183.204C283.746 183.321 284.098 183.307 284.274 183.16C284.48 183.013 284.714 182.603 284.978 181.928C285.506 180.461 286.064 178.98 286.65 177.484C287.237 175.959 287.853 174.419 288.498 172.864C288.792 172.307 288.968 171.881 289.026 171.588C289.114 171.265 289.217 171.045 289.334 170.928L290.566 170.532C290.889 170.444 291.256 170.591 291.666 170.972C292.106 171.353 292.385 171.72 292.502 172.072C292.502 172.336 292.385 172.923 292.15 173.832C291.916 174.712 291.534 175.768 291.006 177C290.537 178.085 290.068 179.185 289.598 180.3C289.158 181.385 288.733 182.544 288.322 183.776C288 184.685 287.706 185.419 287.442 185.976C287.178 186.533 287.002 187.017 286.914 187.428C286.738 188.191 286.518 188.88 286.254 189.496C286.02 190.083 285.858 190.493 285.77 190.728C285.389 191.843 285.096 192.767 284.89 193.5C284.685 194.204 284.553 194.82 284.494 195.348C284.436 195.847 284.421 196.345 284.45 196.844C284.48 197.313 284.538 197.856 284.626 198.472C284.626 198.589 284.538 198.765 284.362 199C284.216 199.205 284.04 199.381 283.834 199.528ZM311.05 199.044C310.727 198.985 310.375 198.795 309.994 198.472C309.612 198.12 309.26 197.739 308.938 197.328C308.644 196.888 308.454 196.521 308.366 196.228C308.366 196.169 308.322 196.096 308.234 196.008C308.175 195.92 308.146 195.876 308.146 195.876C308.028 195.788 307.955 195.407 307.926 194.732C307.926 194.028 307.97 193.251 308.058 192.4C308.146 191.549 308.248 190.875 308.366 190.376C308.512 189.907 308.732 189.276 309.026 188.484C309.319 187.663 309.568 186.929 309.774 186.284L310.962 183.732L309.202 183.248C308.996 183.189 308.82 183.072 308.674 182.896C308.556 182.72 308.498 182.573 308.498 182.456C308.498 182.221 308.63 181.884 308.894 181.444C309.158 181.004 309.348 180.784 309.466 180.784C309.612 180.813 309.876 180.828 310.258 180.828C310.668 180.828 311.064 180.813 311.446 180.784C311.827 180.755 312.062 180.725 312.15 180.696C312.267 180.637 312.384 180.564 312.502 180.476C312.619 180.359 312.707 180.197 312.766 179.992C312.912 179.669 313.044 179.42 313.162 179.244C313.279 179.068 313.44 178.804 313.646 178.452C313.851 178.071 314.012 177.748 314.13 177.484C314.276 177.22 314.496 176.853 314.79 176.384C314.936 176.179 315.098 175.929 315.274 175.636C315.45 175.343 315.67 175.093 315.934 174.888C316.198 174.653 316.623 174.492 317.21 174.404C317.826 174.287 318.354 174.419 318.794 174.8C319.028 175.093 319.16 175.372 319.19 175.636C319.219 175.9 319.102 176.237 318.838 176.648C318.603 177.147 318.324 177.601 318.002 178.012C317.708 178.393 317.43 178.833 317.166 179.332C316.696 179.977 316.608 180.344 316.902 180.432C317.195 180.52 318.016 180.461 319.366 180.256C320.216 180.109 320.832 180.197 321.214 180.52C321.595 180.843 321.815 181.253 321.874 181.752C321.962 182.456 321.888 182.881 321.654 183.028C321.419 183.175 320.744 183.248 319.63 183.248C318.926 183.365 318.324 183.439 317.826 183.468C317.327 183.468 316.96 183.468 316.726 183.468C316.344 183.497 316.095 183.512 315.978 183.512C315.86 183.512 315.684 183.541 315.45 183.6C315.215 183.659 315.039 183.761 314.922 183.908C314.834 184.025 314.731 184.201 314.614 184.436C314.496 184.553 314.32 184.861 314.086 185.36C313.851 185.859 313.558 186.401 313.206 186.988C312.795 188.22 312.443 189.408 312.15 190.552C311.886 191.667 311.651 192.781 311.446 193.896C311.358 194.453 311.372 194.864 311.49 195.128C311.636 195.363 312.018 195.509 312.634 195.568C312.956 195.597 313.426 195.597 314.042 195.568C314.658 195.509 315.171 195.421 315.582 195.304C315.904 195.157 316.242 195.011 316.594 194.864C316.946 194.688 317.268 194.512 317.562 194.336C317.826 194.189 318.09 194.043 318.354 193.896C318.618 193.72 318.75 193.632 318.75 193.632C318.896 193.397 319.102 193.441 319.366 193.764C319.659 194.057 319.864 194.38 319.982 194.732C319.982 195.084 319.908 195.509 319.762 196.008C319.615 196.477 319.072 196.976 318.134 197.504C316.814 198.325 315.494 198.824 314.174 199C312.854 199.176 311.812 199.191 311.05 199.044ZM329.004 198.692C328.623 198.692 328.315 198.619 328.08 198.472C327.875 198.325 327.611 198.12 327.288 197.856C326.731 197.269 326.276 196.639 325.924 195.964C325.601 195.289 325.484 194.703 325.572 194.204C325.66 193.969 325.689 193.749 325.66 193.544C325.66 193.309 325.66 193.192 325.66 193.192C325.513 193.045 325.469 192.957 325.528 192.928C325.587 192.869 325.645 192.781 325.704 192.664C325.88 192.664 325.939 192.503 325.88 192.18C325.821 191.945 325.909 191.447 326.144 190.684C326.408 189.892 326.76 189.144 327.2 188.44C327.376 188.147 327.64 187.765 327.992 187.296C328.344 186.797 328.725 186.313 329.136 185.844C329.576 185.345 329.972 184.949 330.324 184.656C331.057 184.04 331.732 183.541 332.348 183.16C332.993 182.779 333.639 182.515 334.284 182.368C334.929 182.221 335.589 182.148 336.264 182.148C336.968 182.148 337.54 182.383 337.98 182.852C338.655 183.145 339.124 183.541 339.388 184.04C339.681 184.539 339.872 185.184 339.96 185.976C340.048 186.856 339.96 187.941 339.696 189.232C339.432 190.493 338.713 191.96 337.54 193.632C336.807 194.688 336.088 195.509 335.384 196.096C334.68 196.683 333.903 197.225 333.052 197.724C332.436 198.135 331.776 198.384 331.072 198.472C330.368 198.56 329.679 198.633 329.004 198.692ZM333.492 193.324C334.137 192.767 334.592 192.151 334.856 191.476C335.149 190.801 335.457 190.009 335.78 189.1C335.897 188.924 335.971 188.631 336 188.22C336.059 187.809 336.073 187.413 336.044 187.032C336.015 186.621 335.912 186.387 335.736 186.328C335.472 186.123 335.208 186.079 334.944 186.196C334.68 186.284 334.343 186.475 333.932 186.768C333.052 187.501 332.231 188.352 331.468 189.32C330.735 190.259 330.221 191.417 329.928 192.796C329.84 193.529 329.913 194.087 330.148 194.468C330.412 194.82 330.823 194.923 331.38 194.776C331.967 194.6 332.671 194.116 333.492 193.324ZM364.094 199.792C362.48 199.792 361.234 199.323 360.354 198.384C359.503 197.445 359.078 196.008 359.078 194.072C359.078 193.016 359.268 191.857 359.65 190.596C360.06 189.335 360.588 188.103 361.234 186.9C361.908 185.697 362.642 184.656 363.434 183.776C364.226 182.867 365.018 182.236 365.81 181.884C366.103 181.737 366.411 181.635 366.734 181.576C367.086 181.488 367.423 181.444 367.746 181.444C368.098 181.444 368.479 181.473 368.89 181.532C369.33 181.561 369.74 181.649 370.122 181.796C370.796 182.001 371.383 182.397 371.882 182.984C372.41 183.571 372.674 184.421 372.674 185.536C372.674 185.829 372.644 186.152 372.586 186.504C372.527 186.827 372.424 187.149 372.278 187.472C371.896 188.44 371.31 189.364 370.518 190.244C369.755 191.124 368.948 191.74 368.098 192.092C367.863 192.209 367.628 192.297 367.394 192.356C367.188 192.385 366.968 192.4 366.734 192.4C366.118 192.4 365.56 192.312 365.062 192.136C364.592 191.96 364.152 191.725 363.742 191.432L363.39 191.124L363.17 191.564C362.964 192.121 362.818 192.591 362.73 192.972C362.671 193.353 362.642 193.632 362.642 193.808C362.642 194.16 362.656 194.527 362.686 194.908C362.715 195.26 362.803 195.553 362.95 195.788C363.067 195.935 363.214 196.052 363.39 196.14C363.595 196.228 363.844 196.272 364.138 196.272C364.314 196.272 364.475 196.272 364.622 196.272C364.798 196.243 364.944 196.213 365.062 196.184C365.59 196.067 366.015 195.876 366.338 195.612C366.69 195.319 367.056 195.069 367.438 194.864L367.614 194.776L367.57 194.644C368.068 194.38 368.406 194.219 368.582 194.16C368.758 194.072 368.89 193.999 368.978 193.94C369.095 193.823 369.227 193.764 369.374 193.764C369.784 193.705 370.18 193.823 370.562 194.116C370.972 194.38 371.178 194.717 371.178 195.128C371.178 195.304 371.046 195.583 370.782 195.964C370.547 196.345 370.239 196.727 369.858 197.108C369.506 197.46 369.139 197.739 368.758 197.944C368.67 197.973 368.582 198.017 368.494 198.076C368.406 198.105 368.318 198.149 368.23 198.208H368.274C368.01 198.56 367.746 198.736 367.482 198.736H367.13C367.012 198.941 366.631 199.161 365.986 199.396C365.34 199.66 364.71 199.792 364.094 199.792ZM366.382 189.188C366.646 189.188 366.88 189.144 367.086 189.056C367.32 188.968 367.54 188.865 367.746 188.748C368.45 188.249 368.904 187.604 369.11 186.812C369.315 186.02 369.242 185.419 368.89 185.008C368.831 184.92 368.758 184.861 368.67 184.832C368.582 184.773 368.479 184.744 368.362 184.744C368.039 184.744 367.672 184.847 367.262 185.052C366.88 185.257 366.499 185.551 366.118 185.932C365.736 186.313 365.384 186.768 365.062 187.296L364.49 188.22C364.548 188.191 364.592 188.176 364.622 188.176C364.68 188.147 364.724 188.132 364.754 188.132C365.018 188.132 365.194 188.22 365.282 188.396C365.37 188.572 365.472 188.748 365.59 188.924C365.736 189.1 366 189.188 366.382 189.188ZM379.009 197.944C378.716 197.768 378.393 197.519 378.041 197.196C377.689 196.844 377.513 196.507 377.513 196.184C377.513 195.744 377.572 195.201 377.689 194.556C377.806 193.881 377.924 193.309 378.041 192.84C378.1 192.312 378.173 191.784 378.261 191.256C378.378 190.699 378.584 190.185 378.877 189.716C379.2 188.601 379.537 187.501 379.889 186.416C380.241 185.301 380.549 184.157 380.813 182.984C381.194 181.899 381.532 180.945 381.825 180.124C382.148 179.273 382.544 178.203 383.013 176.912C383.277 176.179 383.497 175.401 383.673 174.58C383.878 173.729 384.186 172.967 384.597 172.292C384.773 172.028 384.905 171.808 384.993 171.632C385.11 171.427 385.228 171.236 385.345 171.06C385.374 170.943 385.521 170.84 385.785 170.752C386.078 170.664 386.372 170.62 386.665 170.62C386.988 170.591 387.208 170.649 387.325 170.796C387.413 170.767 387.56 170.884 387.765 171.148C387.97 171.383 388.161 171.661 388.337 171.984C388.542 172.277 388.63 172.512 388.601 172.688C388.601 172.805 388.572 172.967 388.513 173.172C388.484 173.377 388.41 173.568 388.293 173.744C388.176 173.861 388.058 174.037 387.941 174.272C387.853 174.477 387.706 174.771 387.501 175.152C387.384 175.533 387.281 175.929 387.193 176.34C387.105 176.721 386.988 177.073 386.841 177.396C386.724 177.748 386.577 178.085 386.401 178.408C386.254 178.731 386.152 178.995 386.093 179.2C385.888 179.875 385.638 180.535 385.345 181.18C385.081 181.825 384.846 182.515 384.641 183.248C384.436 183.952 384.23 184.685 384.025 185.448C383.82 186.181 383.526 186.885 383.145 187.56C382.94 187.883 382.793 188.293 382.705 188.792C382.617 189.291 382.529 189.789 382.441 190.288C382.265 190.816 382.104 191.315 381.957 191.784C381.84 192.224 381.781 192.503 381.781 192.62C381.605 193.265 381.473 193.911 381.385 194.556C381.326 195.172 381.18 195.715 380.945 196.184C380.916 196.477 380.813 196.8 380.637 197.152C380.461 197.504 380.226 197.768 379.933 197.944C379.669 198.12 379.361 198.12 379.009 197.944ZM392.153 198.604C391.009 198.135 390.217 197.372 389.777 196.316C389.337 195.26 389.22 193.852 389.425 192.092C389.484 191.183 389.455 190.581 389.337 190.288C389.22 189.965 389 189.657 388.677 189.364C388.589 189.247 388.384 189.056 388.061 188.792C387.739 188.499 387.592 188.279 387.621 188.132C387.592 187.927 387.636 187.677 387.753 187.384C387.871 187.061 387.973 186.885 388.061 186.856C388.267 186.768 388.472 186.665 388.677 186.548C388.912 186.431 389.088 186.401 389.205 186.46C389.323 186.46 389.499 186.533 389.733 186.68C389.997 186.827 390.129 186.959 390.129 187.076C390.247 187.281 390.423 187.193 390.657 186.812C390.921 186.431 391.2 185.947 391.493 185.36C391.787 184.891 392.153 184.451 392.593 184.04C393.033 183.629 393.473 183.263 393.913 182.94C394.383 182.588 394.779 182.324 395.101 182.148C395.248 182.089 395.527 182.001 395.937 181.884C396.377 181.767 396.832 181.679 397.301 181.62C397.771 181.532 398.123 181.503 398.357 181.532C398.885 181.561 399.443 181.781 400.029 182.192C400.616 182.603 401.071 182.984 401.393 183.336C401.775 183.6 402.024 184.011 402.141 184.568C402.288 185.096 402.347 185.653 402.317 186.24C402.288 186.827 402.171 187.325 401.965 187.736C401.877 188.029 401.569 188.44 401.041 188.968C400.513 189.496 399.927 190.009 399.281 190.508C398.665 190.977 398.137 191.3 397.697 191.476C397.316 191.564 396.861 191.637 396.333 191.696C395.805 191.725 395.307 191.725 394.837 191.696C394.397 191.637 394.089 191.564 393.913 191.476C393.708 191.359 393.532 191.403 393.385 191.608C393.268 191.784 393.165 192.283 393.077 193.104C393.048 193.427 393.048 193.705 393.077 193.94C393.136 194.175 393.195 194.351 393.253 194.468C393.459 194.82 393.664 195.084 393.869 195.26C394.075 195.407 394.456 195.451 395.013 195.392C395.571 195.333 396.128 194.996 396.685 194.38C397.272 193.735 397.8 193.221 398.269 192.84C398.387 192.635 398.636 192.503 399.017 192.444C399.428 192.356 399.912 192.385 400.469 192.532C400.792 192.737 400.939 193.06 400.909 193.5C400.909 193.94 400.675 194.585 400.205 195.436C400.117 195.641 399.868 195.949 399.457 196.36C399.076 196.741 398.651 197.137 398.181 197.548C397.741 197.929 397.375 198.208 397.081 198.384C396.201 198.853 395.336 199.073 394.485 199.044C393.635 199.015 392.857 198.868 392.153 198.604ZM395.409 188.704C395.849 188.587 396.216 188.469 396.509 188.352C396.832 188.235 397.14 188.044 397.433 187.78C397.727 187.516 398.064 187.12 398.445 186.592C398.563 186.269 398.621 185.991 398.621 185.756C398.651 185.521 398.636 185.375 398.577 185.316C398.343 185.081 398.079 185.008 397.785 185.096C397.521 185.155 397.228 185.301 396.905 185.536C396.7 185.624 396.407 185.815 396.025 186.108C395.673 186.372 395.321 186.68 394.969 187.032C394.647 187.355 394.383 187.663 394.177 187.956C394.001 188.22 393.972 188.381 394.089 188.44C394.031 188.557 394.192 188.631 394.573 188.66C394.984 188.689 395.263 188.704 395.409 188.704ZM413.933 198.604C413.551 198.78 413.111 198.853 412.613 198.824C412.114 198.795 411.439 198.633 410.589 198.34C410.53 198.34 410.325 198.208 409.973 197.944C409.621 197.68 409.269 197.372 408.917 197.02C408.565 196.668 408.33 196.375 408.213 196.14C407.743 195.465 407.597 194.468 407.773 193.148C407.978 191.828 408.447 190.244 409.181 188.396C409.386 187.956 409.694 187.399 410.105 186.724C410.545 186.049 410.97 185.433 411.381 184.876C411.821 184.289 412.129 183.952 412.305 183.864C412.305 183.864 412.466 183.805 412.789 183.688C413.111 183.571 413.522 183.38 414.021 183.116C414.167 183.057 414.417 182.984 414.769 182.896C415.15 182.808 415.531 182.735 415.913 182.676C416.323 182.588 416.602 182.559 416.749 182.588C417.335 182.617 417.937 182.837 418.553 183.248C419.198 183.629 419.726 184.084 420.137 184.612C420.547 185.111 420.679 185.551 420.533 185.932C420.533 185.991 420.445 186.181 420.269 186.504C420.122 186.797 419.961 187.105 419.785 187.428C419.609 187.721 419.462 187.941 419.345 188.088C419.198 188.264 418.934 188.337 418.553 188.308C418.201 188.279 417.878 188.161 417.585 187.956C417.291 187.751 417.13 187.472 417.101 187.12C417.042 186.885 416.822 186.665 416.441 186.46C416.089 186.255 415.913 186.152 415.913 186.152C415.678 186.152 415.37 186.387 414.989 186.856C414.607 187.325 414.211 187.853 413.801 188.44C413.273 188.968 412.891 189.54 412.657 190.156C412.451 190.743 412.305 191.3 412.217 191.828C412.158 192.327 412.085 192.708 411.997 192.972C411.879 193.265 411.879 193.632 411.997 194.072C412.114 194.512 412.261 194.761 412.437 194.82C412.701 194.849 413.053 194.835 413.493 194.776C413.962 194.688 414.446 194.585 414.945 194.468C415.473 194.321 416.001 194.175 416.529 194.028C417.057 193.852 417.526 193.676 417.937 193.5C418.494 193.148 418.978 193.016 419.389 193.104C419.799 193.163 420.107 193.221 420.313 193.28C420.635 193.397 420.797 193.647 420.797 194.028C420.797 194.409 420.665 194.82 420.401 195.26C420.137 195.671 419.755 196.008 419.257 196.272C418.787 196.507 418.362 196.771 417.981 197.064C417.629 197.328 417.453 197.533 417.453 197.68C417.335 197.68 417.203 197.724 417.057 197.812C416.939 197.871 416.837 197.885 416.749 197.856C416.69 197.856 416.455 197.9 416.045 197.988C415.634 198.076 415.209 198.179 414.769 198.296C414.358 198.413 414.079 198.516 413.933 198.604ZM430.865 199.044C430.543 198.985 430.191 198.795 429.809 198.472C429.428 198.12 429.076 197.739 428.753 197.328C428.46 196.888 428.269 196.521 428.181 196.228C428.181 196.169 428.137 196.096 428.049 196.008C427.991 195.92 427.961 195.876 427.961 195.876C427.844 195.788 427.771 195.407 427.741 194.732C427.741 194.028 427.785 193.251 427.873 192.4C427.961 191.549 428.064 190.875 428.181 190.376C428.328 189.907 428.548 189.276 428.841 188.484C429.135 187.663 429.384 186.929 429.589 186.284L430.777 183.732L429.017 183.248C428.812 183.189 428.636 183.072 428.489 182.896C428.372 182.72 428.313 182.573 428.313 182.456C428.313 182.221 428.445 181.884 428.709 181.444C428.973 181.004 429.164 180.784 429.281 180.784C429.428 180.813 429.692 180.828 430.073 180.828C430.484 180.828 430.88 180.813 431.261 180.784C431.643 180.755 431.877 180.725 431.965 180.696C432.083 180.637 432.2 180.564 432.317 180.476C432.435 180.359 432.523 180.197 432.581 179.992C432.728 179.669 432.86 179.42 432.977 179.244C433.095 179.068 433.256 178.804 433.461 178.452C433.667 178.071 433.828 177.748 433.945 177.484C434.092 177.22 434.312 176.853 434.605 176.384C434.752 176.179 434.913 175.929 435.089 175.636C435.265 175.343 435.485 175.093 435.749 174.888C436.013 174.653 436.439 174.492 437.025 174.404C437.641 174.287 438.169 174.419 438.609 174.8C438.844 175.093 438.976 175.372 439.005 175.636C439.035 175.9 438.917 176.237 438.653 176.648C438.419 177.147 438.14 177.601 437.817 178.012C437.524 178.393 437.245 178.833 436.981 179.332C436.512 179.977 436.424 180.344 436.717 180.432C437.011 180.52 437.832 180.461 439.181 180.256C440.032 180.109 440.648 180.197 441.029 180.52C441.411 180.843 441.631 181.253 441.689 181.752C441.777 182.456 441.704 182.881 441.469 183.028C441.235 183.175 440.56 183.248 439.445 183.248C438.741 183.365 438.14 183.439 437.641 183.468C437.143 183.468 436.776 183.468 436.541 183.468C436.16 183.497 435.911 183.512 435.793 183.512C435.676 183.512 435.5 183.541 435.265 183.6C435.031 183.659 434.855 183.761 434.737 183.908C434.649 184.025 434.547 184.201 434.429 184.436C434.312 184.553 434.136 184.861 433.901 185.36C433.667 185.859 433.373 186.401 433.021 186.988C432.611 188.22 432.259 189.408 431.965 190.552C431.701 191.667 431.467 192.781 431.261 193.896C431.173 194.453 431.188 194.864 431.305 195.128C431.452 195.363 431.833 195.509 432.449 195.568C432.772 195.597 433.241 195.597 433.857 195.568C434.473 195.509 434.987 195.421 435.397 195.304C435.72 195.157 436.057 195.011 436.409 194.864C436.761 194.688 437.084 194.512 437.377 194.336C437.641 194.189 437.905 194.043 438.169 193.896C438.433 193.72 438.565 193.632 438.565 193.632C438.712 193.397 438.917 193.441 439.181 193.764C439.475 194.057 439.68 194.38 439.797 194.732C439.797 195.084 439.724 195.509 439.577 196.008C439.431 196.477 438.888 196.976 437.949 197.504C436.629 198.325 435.309 198.824 433.989 199C432.669 199.176 431.628 199.191 430.865 199.044ZM449.348 198.076C449.26 198.105 449.069 198.091 448.776 198.032C448.512 197.973 448.233 197.9 447.94 197.812C447.676 197.724 447.514 197.651 447.456 197.592C447.338 197.475 447.177 197.269 446.972 196.976C446.766 196.653 446.649 196.228 446.62 195.7C446.62 195.172 446.869 194.541 447.368 193.808C447.514 193.515 447.69 193.075 447.896 192.488C448.101 191.901 448.306 191.285 448.512 190.64C448.746 189.965 448.952 189.364 449.128 188.836C449.333 188.308 449.48 187.941 449.568 187.736C449.626 187.237 449.597 186.885 449.48 186.68C449.392 186.445 449.142 186.313 448.732 186.284C448.438 186.284 448.204 186.181 448.028 185.976C447.881 185.771 447.808 185.404 447.808 184.876C447.866 184.465 447.969 184.113 448.116 183.82C448.292 183.497 448.526 183.233 448.82 183.028C449.113 182.881 449.48 182.779 449.92 182.72C450.389 182.661 450.844 182.647 451.284 182.676C451.724 182.705 452.032 182.808 452.208 182.984C452.413 183.101 452.574 183.365 452.692 183.776C452.838 184.157 452.956 184.553 453.044 184.964C453.132 185.375 453.19 185.683 453.22 185.888C453.513 185.653 453.836 185.331 454.188 184.92C454.569 184.48 454.95 184.069 455.332 183.688C455.801 183.365 456.358 183.043 457.004 182.72C457.649 182.368 458.118 182.192 458.412 182.192C458.734 182.192 459.13 182.353 459.6 182.676C460.069 182.969 460.362 183.233 460.48 183.468C460.773 183.967 460.978 184.495 461.096 185.052C461.242 185.58 461.154 186.049 460.832 186.46C460.538 186.841 460.128 187.223 459.6 187.604C459.072 187.956 458.412 188.059 457.62 187.912C457.444 187.853 457.253 187.633 457.048 187.252C456.872 186.871 456.769 186.592 456.74 186.416C456.74 186.328 456.608 186.416 456.344 186.68C456.109 186.915 455.816 187.208 455.464 187.56C455.141 187.912 454.833 188.235 454.54 188.528C454.041 189.144 453.513 189.98 452.956 191.036C452.398 192.092 451.738 193.368 450.976 194.864C450.624 195.597 450.33 196.301 450.096 196.976C449.861 197.621 449.612 197.988 449.348 198.076ZM465.335 198.252C465.101 198.017 464.925 197.665 464.807 197.196C464.719 196.727 464.69 196.272 464.719 195.832C464.749 195.363 464.822 195.011 464.939 194.776C464.939 194.541 464.969 194.365 465.027 194.248C465.115 194.101 465.145 193.969 465.115 193.852C465.086 193.735 465.115 193.529 465.203 193.236C465.291 192.943 465.379 192.664 465.467 192.4C465.673 191.931 465.907 191.329 466.171 190.596C466.435 189.833 466.699 189.071 466.963 188.308C467.227 187.516 467.447 186.841 467.623 186.284C467.799 185.697 467.902 185.345 467.931 185.228C467.931 184.876 468.166 184.685 468.635 184.656C468.987 184.539 469.413 184.685 469.911 185.096C470.41 185.507 470.806 185.947 471.099 186.416C471.334 186.651 471.422 186.959 471.363 187.34C471.305 187.721 471.114 188.264 470.791 188.968C470.674 189.203 470.527 189.599 470.351 190.156C470.205 190.684 470.102 191.124 470.043 191.476C469.926 191.711 469.779 192.048 469.603 192.488C469.457 192.899 469.325 193.295 469.207 193.676C469.149 193.823 469.09 194.101 469.031 194.512C468.973 194.893 468.899 195.289 468.811 195.7C468.723 196.111 468.606 196.433 468.459 196.668C468.195 197.871 467.726 198.575 467.051 198.78C466.406 198.985 465.834 198.809 465.335 198.252ZM470.087 180.608C469.765 180.373 469.515 180.095 469.339 179.772C469.193 179.42 469.105 179.112 469.075 178.848C469.075 178.584 469.105 178.423 469.163 178.364C469.457 178.041 469.706 177.616 469.911 177.088C470.146 176.56 470.395 176.076 470.659 175.636C470.718 175.548 470.791 175.431 470.879 175.284C470.997 175.108 471.114 175.005 471.231 174.976C471.583 174.741 472.067 174.756 472.683 175.02C473.329 175.284 473.798 175.651 474.091 176.12C474.355 176.677 474.429 177.249 474.311 177.836C474.223 178.423 473.915 179.039 473.387 179.684C472.947 180.271 472.39 180.652 471.715 180.828C471.041 180.975 470.498 180.901 470.087 180.608ZM483.872 198.604C483.491 198.78 483.051 198.853 482.552 198.824C482.053 198.795 481.379 198.633 480.528 198.34C480.469 198.34 480.264 198.208 479.912 197.944C479.56 197.68 479.208 197.372 478.856 197.02C478.504 196.668 478.269 196.375 478.152 196.14C477.683 195.465 477.536 194.468 477.712 193.148C477.917 191.828 478.387 190.244 479.12 188.396C479.325 187.956 479.633 187.399 480.044 186.724C480.484 186.049 480.909 185.433 481.32 184.876C481.76 184.289 482.068 183.952 482.244 183.864C482.244 183.864 482.405 183.805 482.728 183.688C483.051 183.571 483.461 183.38 483.96 183.116C484.107 183.057 484.356 182.984 484.708 182.896C485.089 182.808 485.471 182.735 485.852 182.676C486.263 182.588 486.541 182.559 486.688 182.588C487.275 182.617 487.876 182.837 488.492 183.248C489.137 183.629 489.665 184.084 490.076 184.612C490.487 185.111 490.619 185.551 490.472 185.932C490.472 185.991 490.384 186.181 490.208 186.504C490.061 186.797 489.9 187.105 489.724 187.428C489.548 187.721 489.401 187.941 489.284 188.088C489.137 188.264 488.873 188.337 488.492 188.308C488.14 188.279 487.817 188.161 487.524 187.956C487.231 187.751 487.069 187.472 487.04 187.12C486.981 186.885 486.761 186.665 486.38 186.46C486.028 186.255 485.852 186.152 485.852 186.152C485.617 186.152 485.309 186.387 484.928 186.856C484.547 187.325 484.151 187.853 483.74 188.44C483.212 188.968 482.831 189.54 482.596 190.156C482.391 190.743 482.244 191.3 482.156 191.828C482.097 192.327 482.024 192.708 481.936 192.972C481.819 193.265 481.819 193.632 481.936 194.072C482.053 194.512 482.2 194.761 482.376 194.82C482.64 194.849 482.992 194.835 483.432 194.776C483.901 194.688 484.385 194.585 484.884 194.468C485.412 194.321 485.94 194.175 486.468 194.028C486.996 193.852 487.465 193.676 487.876 193.5C488.433 193.148 488.917 193.016 489.328 193.104C489.739 193.163 490.047 193.221 490.252 193.28C490.575 193.397 490.736 193.647 490.736 194.028C490.736 194.409 490.604 194.82 490.34 195.26C490.076 195.671 489.695 196.008 489.196 196.272C488.727 196.507 488.301 196.771 487.92 197.064C487.568 197.328 487.392 197.533 487.392 197.68C487.275 197.68 487.143 197.724 486.996 197.812C486.879 197.871 486.776 197.885 486.688 197.856C486.629 197.856 486.395 197.9 485.984 197.988C485.573 198.076 485.148 198.179 484.708 198.296C484.297 198.413 484.019 198.516 483.872 198.604ZM500.805 198.956C500.101 198.956 499.485 198.589 498.957 197.856C498.458 197.093 498.15 196.184 498.033 195.128C498.062 194.893 498.091 194.556 498.121 194.116C498.179 193.676 498.238 193.221 498.297 192.752C498.414 192.195 498.575 191.476 498.781 190.596C498.986 189.716 499.206 188.836 499.441 187.956C499.675 187.047 499.881 186.269 500.057 185.624C500.233 184.949 500.335 184.553 500.365 184.436C500.541 184.025 500.937 183.923 501.553 184.128C502.169 184.333 502.697 184.773 503.137 185.448C503.313 185.683 503.415 185.961 503.445 186.284C503.503 186.607 503.459 187.076 503.313 187.692C503.195 188.308 502.961 189.217 502.609 190.42C502.286 191.593 502.037 192.547 501.861 193.28C501.714 193.984 501.655 194.732 501.685 195.524C501.567 196.873 501.45 197.797 501.333 198.296C501.215 198.765 501.039 198.985 500.805 198.956ZM504.853 180.696C504.735 180.784 504.618 180.828 504.501 180.828C504.413 180.799 504.251 180.711 504.017 180.564C503.811 180.535 503.547 180.403 503.225 180.168C502.931 179.904 502.667 179.64 502.433 179.376C502.227 179.112 502.125 178.951 502.125 178.892C502.095 178.599 502.11 178.129 502.169 177.484C502.257 176.839 502.418 176.237 502.653 175.68C502.917 175.093 503.269 174.785 503.709 174.756C503.826 174.756 504.075 174.815 504.457 174.932C504.867 175.049 505.293 175.196 505.733 175.372C505.967 175.812 506.187 176.384 506.393 177.088C506.598 177.792 506.613 178.481 506.437 179.156C506.29 179.801 505.762 180.315 504.853 180.696ZM512.961 199.044C512.639 198.985 512.287 198.795 511.905 198.472C511.524 198.12 511.172 197.739 510.849 197.328C510.556 196.888 510.365 196.521 510.277 196.228C510.277 196.169 510.233 196.096 510.145 196.008C510.087 195.92 510.057 195.876 510.057 195.876C509.94 195.788 509.867 195.407 509.837 194.732C509.837 194.028 509.881 193.251 509.969 192.4C510.057 191.549 510.16 190.875 510.277 190.376C510.424 189.907 510.644 189.276 510.937 188.484C511.231 187.663 511.48 186.929 511.685 186.284L512.873 183.732L511.113 183.248C510.908 183.189 510.732 183.072 510.585 182.896C510.468 182.72 510.409 182.573 510.409 182.456C510.409 182.221 510.541 181.884 510.805 181.444C511.069 181.004 511.26 180.784 511.377 180.784C511.524 180.813 511.788 180.828 512.169 180.828C512.58 180.828 512.976 180.813 513.357 180.784C513.739 180.755 513.973 180.725 514.061 180.696C514.179 180.637 514.296 180.564 514.413 180.476C514.531 180.359 514.619 180.197 514.677 179.992C514.824 179.669 514.956 179.42 515.073 179.244C515.191 179.068 515.352 178.804 515.557 178.452C515.763 178.071 515.924 177.748 516.041 177.484C516.188 177.22 516.408 176.853 516.701 176.384C516.848 176.179 517.009 175.929 517.185 175.636C517.361 175.343 517.581 175.093 517.845 174.888C518.109 174.653 518.535 174.492 519.121 174.404C519.737 174.287 520.265 174.419 520.705 174.8C520.94 175.093 521.072 175.372 521.101 175.636C521.131 175.9 521.013 176.237 520.749 176.648C520.515 177.147 520.236 177.601 519.913 178.012C519.62 178.393 519.341 178.833 519.077 179.332C518.608 179.977 518.52 180.344 518.813 180.432C519.107 180.52 519.928 180.461 521.277 180.256C522.128 180.109 522.744 180.197 523.125 180.52C523.507 180.843 523.727 181.253 523.785 181.752C523.873 182.456 523.8 182.881 523.565 183.028C523.331 183.175 522.656 183.248 521.541 183.248C520.837 183.365 520.236 183.439 519.737 183.468C519.239 183.468 518.872 183.468 518.637 183.468C518.256 183.497 518.007 183.512 517.889 183.512C517.772 183.512 517.596 183.541 517.361 183.6C517.127 183.659 516.951 183.761 516.833 183.908C516.745 184.025 516.643 184.201 516.525 184.436C516.408 184.553 516.232 184.861 515.997 185.36C515.763 185.859 515.469 186.401 515.117 186.988C514.707 188.22 514.355 189.408 514.061 190.552C513.797 191.667 513.563 192.781 513.357 193.896C513.269 194.453 513.284 194.864 513.401 195.128C513.548 195.363 513.929 195.509 514.545 195.568C514.868 195.597 515.337 195.597 515.953 195.568C516.569 195.509 517.083 195.421 517.493 195.304C517.816 195.157 518.153 195.011 518.505 194.864C518.857 194.688 519.18 194.512 519.473 194.336C519.737 194.189 520.001 194.043 520.265 193.896C520.529 193.72 520.661 193.632 520.661 193.632C520.808 193.397 521.013 193.441 521.277 193.764C521.571 194.057 521.776 194.38 521.893 194.732C521.893 195.084 521.82 195.509 521.673 196.008C521.527 196.477 520.984 196.976 520.045 197.504C518.725 198.325 517.405 198.824 516.085 199C514.765 199.176 513.724 199.191 512.961 199.044ZM526.516 210.308C525.871 210.425 525.431 210.44 525.196 210.352C524.961 210.264 524.639 210.117 524.228 209.912C523.905 209.677 523.671 209.501 523.524 209.384C523.377 209.267 523.275 209.149 523.216 209.032C522.923 208.416 522.879 207.961 523.084 207.668C523.289 207.375 523.583 207.184 523.964 207.096C524.375 207.037 524.727 207.008 525.02 207.008C525.225 207.125 525.563 207.184 526.032 207.184C526.531 207.184 526.839 207.125 526.956 207.008C526.956 207.008 527.088 206.92 527.352 206.744C527.645 206.597 528.027 206.48 528.496 206.392C529.405 205.952 530.124 205.497 530.652 205.028C531.18 204.588 531.767 203.825 532.412 202.74C532.676 202.329 532.955 201.845 533.248 201.288C533.541 200.76 533.747 200.232 533.864 199.704C534.099 199.117 534.363 198.325 534.656 197.328C534.979 196.331 535.257 195.348 535.492 194.38C535.727 193.383 535.859 192.635 535.888 192.136C536.064 190.493 536.401 188.909 536.9 187.384C537.399 185.829 537.795 184.187 538.088 182.456C538.264 182.045 538.396 181.811 538.484 181.752C538.572 181.664 538.763 181.62 539.056 181.62C539.379 181.62 539.76 181.723 540.2 181.928C540.64 182.104 540.963 182.353 541.168 182.676C541.461 183.233 541.593 183.893 541.564 184.656C541.564 185.389 541.373 186.035 540.992 186.592C540.699 187.003 540.435 187.648 540.2 188.528C539.995 189.379 539.789 190.449 539.584 191.74C539.437 192.385 539.276 193.148 539.1 194.028C538.953 194.879 538.792 195.832 538.616 196.888C538.499 197.181 538.337 197.636 538.132 198.252C537.927 198.839 537.795 199.308 537.736 199.66C537.707 199.777 537.619 200.012 537.472 200.364C537.325 200.716 537.179 201.053 537.032 201.376C536.885 201.728 536.783 201.963 536.724 202.08C535.316 204.925 533.688 206.979 531.84 208.24C530.021 209.501 528.247 210.191 526.516 210.308ZM530.212 197.856C529.889 197.856 529.552 197.68 529.2 197.328C528.877 196.976 528.657 196.697 528.54 196.492C528.423 196.199 528.203 195.92 527.88 195.656C527.557 195.392 527.279 195.069 527.044 194.688C526.809 194.307 526.751 193.837 526.868 193.28C526.985 192.899 527.161 192.327 527.396 191.564C527.631 190.772 527.909 189.907 528.232 188.968C528.555 188 528.877 187.047 529.2 186.108C529.552 185.169 529.875 184.333 530.168 183.6C530.461 182.867 530.711 182.353 530.916 182.06C531.092 181.825 531.371 181.649 531.752 181.532C532.133 181.415 532.515 181.385 532.896 181.444C533.277 181.503 533.556 181.679 533.732 181.972C534.055 182.383 534.231 182.793 534.26 183.204C534.319 183.585 534.113 184.201 533.644 185.052C533.527 185.375 533.38 185.727 533.204 186.108C533.028 186.46 532.94 186.695 532.94 186.812C532.911 186.871 532.852 187.076 532.764 187.428C532.705 187.751 532.632 188.059 532.544 188.352C532.456 188.645 532.368 188.792 532.28 188.792C532.163 188.909 532.031 189.217 531.884 189.716C531.767 190.215 531.649 190.772 531.532 191.388C531.444 191.975 531.385 192.503 531.356 192.972C531.327 193.412 531.371 193.632 531.488 193.632C532.397 193.632 533.277 193.353 534.128 192.796C534.979 192.209 535.903 191.241 536.9 189.892L537.296 194.028C536.885 194.233 536.504 194.453 536.152 194.688C535.8 194.893 535.477 195.143 535.184 195.436C535.096 195.553 534.891 195.715 534.568 195.92C534.245 196.125 533.923 196.316 533.6 196.492C533.307 196.639 533.116 196.712 533.028 196.712C533.028 196.712 532.984 196.727 532.896 196.756C532.837 196.756 532.808 196.815 532.808 196.932C532.808 196.991 532.617 197.108 532.236 197.284C531.855 197.431 531.459 197.563 531.048 197.68C530.637 197.797 530.359 197.856 530.212 197.856ZM566.38 207.668C565.852 207.932 565.163 207.991 564.312 207.844C563.491 207.697 562.669 207.404 561.848 206.964C561.056 206.553 560.411 206.069 559.912 205.512C559.648 205.219 559.413 204.867 559.208 204.456C559.003 204.045 558.871 203.649 558.812 203.268C558.753 202.916 558.827 202.681 559.032 202.564C559.296 202.388 559.604 202.3 559.956 202.3C560.337 202.3 560.66 202.344 560.924 202.432C561.217 202.52 561.364 202.623 561.364 202.74C561.687 203.033 561.995 203.283 562.288 203.488C562.611 203.723 562.919 203.899 563.212 204.016C563.623 204.192 563.989 204.221 564.312 204.104C564.664 204.016 564.987 203.825 565.28 203.532C565.515 203.209 565.72 202.799 565.896 202.3C566.101 201.831 566.263 201.288 566.38 200.672L566.512 200.1C566.835 198.633 567.143 197.255 567.436 195.964C567.759 194.644 568.023 193.691 568.228 193.104C568.169 193.104 568.096 193.119 568.008 193.148C567.92 193.177 567.832 193.221 567.744 193.28C567.568 193.368 567.392 193.456 567.216 193.544C567.04 193.632 566.864 193.72 566.688 193.808C566.307 194.013 565.969 194.175 565.676 194.292C565.383 194.38 565.119 194.453 564.884 194.512C564.503 194.629 564.224 194.673 564.048 194.644C563.872 194.615 563.725 194.6 563.608 194.6C563.315 194.6 562.933 194.512 562.464 194.336C561.995 194.131 561.599 193.881 561.276 193.588C561.012 193.324 560.821 193.06 560.704 192.796C560.587 192.503 560.513 192.195 560.484 191.872C560.455 191.549 560.44 191.227 560.44 190.904C560.44 190.464 560.675 189.687 561.144 188.572C561.613 187.428 562.303 186.313 563.212 185.228C563.769 184.671 564.503 184.113 565.412 183.556C566.321 182.999 567.245 182.529 568.184 182.148C569.152 181.737 569.944 181.532 570.56 181.532C570.677 181.532 570.809 181.547 570.956 181.576C571.132 181.605 571.293 181.679 571.44 181.796C571.939 181.913 572.437 182.192 572.936 182.632C573.435 183.043 573.875 183.585 574.256 184.26C574.491 184.729 574.681 185.228 574.828 185.756C575.004 186.284 575.092 186.841 575.092 187.428C575.092 187.897 575.004 188.308 574.828 188.66C574.681 188.983 574.535 189.173 574.388 189.232C574.329 189.291 574.256 189.335 574.168 189.364C574.08 189.364 573.977 189.379 573.86 189.408C573.801 189.408 573.684 189.437 573.508 189.496C573.332 189.584 573.156 189.745 572.98 189.98C572.833 190.185 572.687 190.552 572.54 191.08C572.511 191.227 572.481 191.373 572.452 191.52C572.423 191.667 572.379 191.813 572.32 191.96C572.32 191.989 572.276 192.063 572.188 192.18C572.129 192.268 572.085 192.385 572.056 192.532C572.027 192.737 571.968 192.913 571.88 193.06C571.821 193.177 571.763 193.309 571.704 193.456C571.675 193.573 571.66 193.676 571.66 193.764C571.66 193.823 571.66 193.881 571.66 193.94L571.484 194.424C571.396 194.717 571.308 194.981 571.22 195.216C571.161 195.451 571.132 195.597 571.132 195.656L570.956 196.536C570.897 196.859 570.824 197.181 570.736 197.504C570.677 197.827 570.619 198.135 570.56 198.428C570.501 198.721 570.428 199.015 570.34 199.308C569.695 201.889 569.035 203.84 568.36 205.16C567.715 206.48 567.055 207.316 566.38 207.668ZM563.784 190.596C563.843 191.241 564.385 191.52 565.412 191.432C566.439 191.315 567.583 190.699 568.844 189.584C569.343 189.173 569.783 188.704 570.164 188.176C570.575 187.648 570.853 187.105 571 186.548C571.147 186.079 571.176 185.756 571.088 185.58C571.029 185.375 570.78 185.257 570.34 185.228C569.753 185.228 569.152 185.36 568.536 185.624C567.949 185.859 567.319 186.196 566.644 186.636C566.263 187.164 565.94 187.501 565.676 187.648C565.412 187.795 565.236 187.868 565.148 187.868C565.089 187.839 565.119 187.853 565.236 187.912C565.177 188.029 565.119 188.132 565.06 188.22C565.001 188.308 564.943 188.396 564.884 188.484C564.708 188.777 564.532 189.027 564.356 189.232C564.18 189.437 564.033 189.643 563.916 189.848C563.828 190.053 563.784 190.303 563.784 190.596ZM583.112 198.604C581.968 198.135 581.176 197.372 580.736 196.316C580.296 195.26 580.178 193.852 580.384 192.092C580.442 191.183 580.413 190.581 580.296 190.288C580.178 189.965 579.958 189.657 579.636 189.364C579.548 189.247 579.342 189.056 579.02 188.792C578.697 188.499 578.55 188.279 578.58 188.132C578.55 187.927 578.594 187.677 578.712 187.384C578.829 187.061 578.932 186.885 579.02 186.856C579.225 186.768 579.43 186.665 579.636 186.548C579.87 186.431 580.046 186.401 580.164 186.46C580.281 186.46 580.457 186.533 580.692 186.68C580.956 186.827 581.088 186.959 581.088 187.076C581.205 187.281 581.381 187.193 581.616 186.812C581.88 186.431 582.158 185.947 582.452 185.36C582.745 184.891 583.112 184.451 583.552 184.04C583.992 183.629 584.432 183.263 584.872 182.94C585.341 182.588 585.737 182.324 586.06 182.148C586.206 182.089 586.485 182.001 586.896 181.884C587.336 181.767 587.79 181.679 588.26 181.62C588.729 181.532 589.081 181.503 589.316 181.532C589.844 181.561 590.401 181.781 590.988 182.192C591.574 182.603 592.029 182.984 592.352 183.336C592.733 183.6 592.982 184.011 593.1 184.568C593.246 185.096 593.305 185.653 593.276 186.24C593.246 186.827 593.129 187.325 592.924 187.736C592.836 188.029 592.528 188.44 592 188.968C591.472 189.496 590.885 190.009 590.24 190.508C589.624 190.977 589.096 191.3 588.656 191.476C588.274 191.564 587.82 191.637 587.292 191.696C586.764 191.725 586.265 191.725 585.796 191.696C585.356 191.637 585.048 191.564 584.872 191.476C584.666 191.359 584.49 191.403 584.344 191.608C584.226 191.784 584.124 192.283 584.036 193.104C584.006 193.427 584.006 193.705 584.036 193.94C584.094 194.175 584.153 194.351 584.212 194.468C584.417 194.82 584.622 195.084 584.828 195.26C585.033 195.407 585.414 195.451 585.972 195.392C586.529 195.333 587.086 194.996 587.644 194.38C588.23 193.735 588.758 193.221 589.228 192.84C589.345 192.635 589.594 192.503 589.976 192.444C590.386 192.356 590.87 192.385 591.428 192.532C591.75 192.737 591.897 193.06 591.868 193.5C591.868 193.94 591.633 194.585 591.164 195.436C591.076 195.641 590.826 195.949 590.416 196.36C590.034 196.741 589.609 197.137 589.14 197.548C588.7 197.929 588.333 198.208 588.04 198.384C587.16 198.853 586.294 199.073 585.444 199.044C584.593 199.015 583.816 198.868 583.112 198.604ZM586.368 188.704C586.808 188.587 587.174 188.469 587.468 188.352C587.79 188.235 588.098 188.044 588.392 187.78C588.685 187.516 589.022 187.12 589.404 186.592C589.521 186.269 589.58 185.991 589.58 185.756C589.609 185.521 589.594 185.375 589.536 185.316C589.301 185.081 589.037 185.008 588.744 185.096C588.48 185.155 588.186 185.301 587.864 185.536C587.658 185.624 587.365 185.815 586.984 186.108C586.632 186.372 586.28 186.68 585.928 187.032C585.605 187.355 585.341 187.663 585.136 187.956C584.96 188.22 584.93 188.381 585.048 188.44C584.989 188.557 585.15 188.631 585.532 188.66C585.942 188.689 586.221 188.704 586.368 188.704ZM613.471 197.944C612.825 197.885 612.283 197.753 611.843 197.548C611.432 197.313 611.095 196.859 610.831 196.184C610.713 195.715 610.655 195.231 610.655 194.732C610.684 194.204 610.728 193.705 610.787 193.236C610.845 192.737 610.875 192.312 610.875 191.96C610.875 191.901 610.875 191.784 610.875 191.608C610.875 191.432 610.875 191.271 610.875 191.124C610.816 190.684 610.699 190.42 610.523 190.332C610.376 190.215 610.112 190.229 609.731 190.376C609.115 190.669 608.44 191.065 607.707 191.564C607.003 192.033 606.255 192.591 605.463 193.236C604.7 193.852 603.908 194.512 603.087 195.216C602.441 195.92 601.957 196.492 601.635 196.932C601.341 197.372 601.033 197.592 600.711 197.592C600.476 197.709 600.227 197.68 599.963 197.504C599.699 197.328 599.42 197.123 599.127 196.888C598.921 196.653 598.672 196.36 598.379 196.008C598.115 195.627 597.953 195.377 597.895 195.26C597.895 194.791 597.924 194.365 597.983 193.984C598.071 193.603 598.188 193.207 598.335 192.796C598.511 192.385 598.716 191.916 598.951 191.388C599.068 191.183 599.171 190.977 599.259 190.772C599.376 190.537 599.508 190.288 599.655 190.024C599.772 189.613 599.933 189.144 600.139 188.616C600.373 188.088 600.593 187.589 600.799 187.12C601.121 186.357 601.371 185.697 601.547 185.14C601.723 184.583 601.869 183.981 601.987 183.336C601.957 183.277 601.972 183.189 602.031 183.072C602.089 182.955 602.177 182.881 602.295 182.852H602.339H602.383C602.588 182.705 602.969 182.691 603.527 182.808C604.113 182.896 604.553 183.057 604.847 183.292C605.463 183.82 605.756 184.509 605.727 185.36C605.697 186.211 605.257 187.325 604.407 188.704C604.201 189.173 603.981 189.613 603.747 190.024C603.541 190.405 603.439 190.669 603.439 190.816C603.439 190.816 603.556 190.728 603.791 190.552C604.025 190.376 604.304 190.171 604.627 189.936C604.949 189.672 605.228 189.467 605.463 189.32C605.609 189.173 605.932 188.909 606.431 188.528C606.929 188.117 607.472 187.692 608.059 187.252C608.645 186.812 609.115 186.475 609.467 186.24C609.789 186.005 610.2 185.771 610.699 185.536C611.197 185.272 611.505 185.14 611.623 185.14C611.916 185.14 612.268 185.243 612.679 185.448C613.119 185.653 613.515 185.903 613.867 186.196C614.248 186.46 614.468 186.709 614.527 186.944C614.527 187.061 614.512 187.223 614.483 187.428C614.453 187.604 614.439 187.765 614.439 187.912C614.409 188.381 614.395 188.953 614.395 189.628C614.424 190.273 614.439 190.933 614.439 191.608C614.439 192.253 614.38 192.84 614.263 193.368C614.263 193.368 614.277 193.397 614.307 193.456C614.336 193.485 614.365 193.544 614.395 193.632C614.365 193.661 614.351 193.72 614.351 193.808C614.38 193.867 614.395 193.896 614.395 193.896C614.453 194.101 614.512 194.307 614.571 194.512C614.659 194.717 614.761 194.952 614.879 195.216C614.996 195.451 615.128 195.759 615.275 196.14C615.245 196.521 615.025 196.903 614.615 197.284C614.233 197.636 613.852 197.856 613.471 197.944ZM630.586 198.12C629.706 198.619 628.767 198.912 627.77 199C626.802 199.059 625.893 198.927 625.042 198.604C624.191 198.252 623.502 197.739 622.974 197.064C622.681 196.683 622.402 196.081 622.138 195.26C621.874 194.409 621.83 193.265 622.006 191.828C622.182 190.479 622.593 189.115 623.238 187.736C623.913 186.357 624.734 185.14 625.702 184.084C626.67 183.028 627.726 182.309 628.87 181.928C629.281 181.781 629.691 181.679 630.102 181.62C630.542 181.532 631.114 181.517 631.818 181.576C632.493 181.664 633.094 181.84 633.622 182.104C634.15 182.339 634.531 182.603 634.766 182.896C635.235 183.365 635.543 183.82 635.69 184.26C635.837 184.7 635.895 185.125 635.866 185.536C635.719 186.475 635.294 187.487 634.59 188.572C633.915 189.657 632.962 190.464 631.73 190.992C631.231 191.197 630.645 191.329 629.97 191.388C629.295 191.447 628.371 191.359 627.198 191.124C626.494 190.977 626.025 191.051 625.79 191.344C625.585 191.637 625.497 192.209 625.526 193.06C625.585 193.588 625.702 194.057 625.878 194.468C626.083 194.849 626.45 195.113 626.978 195.26C627.653 195.377 628.137 195.392 628.43 195.304C628.723 195.187 629.09 195.025 629.53 194.82C629.765 194.673 629.985 194.512 630.19 194.336C630.425 194.16 630.645 193.984 630.85 193.808C631.085 193.632 631.275 193.5 631.422 193.412C631.569 193.295 631.715 193.221 631.862 193.192C632.009 193.163 632.155 193.148 632.302 193.148C632.625 193.177 632.933 193.353 633.226 193.676C633.519 193.999 633.71 194.307 633.798 194.6C633.798 194.835 633.651 195.172 633.358 195.612C633.065 196.023 632.669 196.463 632.17 196.932C631.701 197.372 631.173 197.768 630.586 198.12ZM630.014 188.308C630.219 188.22 630.513 188.015 630.894 187.692C631.305 187.369 631.671 187.032 631.994 186.68C632.317 186.299 632.478 186.005 632.478 185.8C632.478 185.477 632.258 185.199 631.818 184.964C631.407 184.729 630.865 184.685 630.19 184.832C629.955 184.891 629.677 185.052 629.354 185.316C629.031 185.58 628.709 185.888 628.386 186.24C628.063 186.563 627.785 186.885 627.55 187.208C627.315 187.501 627.154 187.736 627.066 187.912C627.183 188.059 627.418 188.176 627.77 188.264C628.122 188.352 628.503 188.396 628.914 188.396C629.354 188.396 629.721 188.367 630.014 188.308ZM643.829 198.076C643.741 198.105 643.551 198.091 643.257 198.032C642.993 197.973 642.715 197.9 642.421 197.812C642.157 197.724 641.996 197.651 641.937 197.592C641.82 197.475 641.659 197.269 641.453 196.976C641.248 196.653 641.131 196.228 641.101 195.7C641.101 195.172 641.351 194.541 641.849 193.808C641.996 193.515 642.172 193.075 642.377 192.488C642.583 191.901 642.788 191.285 642.993 190.64C643.228 189.965 643.433 189.364 643.609 188.836C643.815 188.308 643.961 187.941 644.049 187.736C644.108 187.237 644.079 186.885 643.961 186.68C643.873 186.445 643.624 186.313 643.213 186.284C642.92 186.284 642.685 186.181 642.509 185.976C642.363 185.771 642.289 185.404 642.289 184.876C642.348 184.465 642.451 184.113 642.597 183.82C642.773 183.497 643.008 183.233 643.301 183.028C643.595 182.881 643.961 182.779 644.401 182.72C644.871 182.661 645.325 182.647 645.765 182.676C646.205 182.705 646.513 182.808 646.689 182.984C646.895 183.101 647.056 183.365 647.173 183.776C647.32 184.157 647.437 184.553 647.525 184.964C647.613 185.375 647.672 185.683 647.701 185.888C647.995 185.653 648.317 185.331 648.669 184.92C649.051 184.48 649.432 184.069 649.813 183.688C650.283 183.365 650.84 183.043 651.485 182.72C652.131 182.368 652.6 182.192 652.893 182.192C653.216 182.192 653.612 182.353 654.081 182.676C654.551 182.969 654.844 183.233 654.961 183.468C655.255 183.967 655.46 184.495 655.577 185.052C655.724 185.58 655.636 186.049 655.313 186.46C655.02 186.841 654.609 187.223 654.081 187.604C653.553 187.956 652.893 188.059 652.101 187.912C651.925 187.853 651.735 187.633 651.529 187.252C651.353 186.871 651.251 186.592 651.221 186.416C651.221 186.328 651.089 186.416 650.825 186.68C650.591 186.915 650.297 187.208 649.945 187.56C649.623 187.912 649.315 188.235 649.021 188.528C648.523 189.144 647.995 189.98 647.437 191.036C646.88 192.092 646.22 193.368 645.457 194.864C645.105 195.597 644.812 196.301 644.577 196.976C644.343 197.621 644.093 197.988 643.829 198.076ZM663.601 198.384C663.366 198.443 663.058 198.472 662.677 198.472C662.296 198.443 661.958 198.399 661.665 198.34C661.401 198.252 661.269 198.164 661.269 198.076C661.269 197.929 661.196 197.856 661.049 197.856C661.049 197.856 660.888 197.739 660.565 197.504C660.242 197.24 659.949 197.049 659.685 196.932C659.421 196.521 659.245 196.052 659.157 195.524C659.098 194.967 659.274 193.999 659.685 192.62C659.714 191.681 659.978 190.699 660.477 189.672C660.976 188.616 661.606 187.589 662.369 186.592C663.132 185.595 663.924 184.715 664.745 183.952C665.566 183.16 666.3 182.573 666.945 182.192C667.356 181.781 667.898 181.561 668.573 181.532C669.277 181.503 669.893 181.635 670.421 181.928C670.714 182.075 671.037 182.368 671.389 182.808C671.741 183.248 672.078 183.717 672.401 184.216C672.724 184.685 672.973 185.111 673.149 185.492C673.237 185.815 673.31 186.108 673.369 186.372C673.457 186.607 673.516 186.9 673.545 187.252C673.574 187.604 673.545 188.132 673.457 188.836C673.31 189.364 673.178 189.907 673.061 190.464C672.973 190.992 672.929 191.535 672.929 192.092C672.87 192.649 672.929 193.045 673.105 193.28C673.31 193.515 673.604 193.529 673.985 193.324C674.337 193.148 674.704 193.133 675.085 193.28C675.466 193.397 675.73 193.632 675.877 193.984C676.053 194.307 676.009 194.732 675.745 195.26C675.569 195.641 675.29 196.008 674.909 196.36C674.528 196.712 674.102 197.005 673.633 197.24C673.164 197.445 672.709 197.548 672.269 197.548C671.946 197.548 671.624 197.431 671.301 197.196C670.978 196.932 670.685 196.58 670.421 196.14C670.157 195.7 669.937 195.216 669.761 194.688L669.497 193.676L667.913 195.128C667.532 195.539 667.15 195.92 666.769 196.272C666.417 196.595 666.197 196.829 666.109 196.976C665.962 197.24 665.669 197.475 665.229 197.68C664.818 197.885 664.276 198.12 663.601 198.384ZM664.789 194.16C665.288 193.867 665.713 193.515 666.065 193.104C666.446 192.693 666.813 192.239 667.165 191.74C667.517 191.212 667.898 190.655 668.309 190.068C668.808 189.393 669.16 188.851 669.365 188.44C669.6 188.029 669.776 187.589 669.893 187.12C669.776 186.797 669.614 186.46 669.409 186.108C669.204 185.727 668.998 185.521 668.793 185.492C668.382 185.492 667.884 185.741 667.297 186.24C666.74 186.739 666.124 187.457 665.449 188.396C665.332 188.543 665.185 188.777 665.009 189.1C664.833 189.423 664.657 189.731 664.481 190.024C664.334 190.288 664.232 190.464 664.173 190.552C664.085 190.669 663.953 190.948 663.777 191.388C663.63 191.799 663.498 192.224 663.381 192.664C663.264 193.075 663.205 193.368 663.205 193.544C663.205 193.72 663.22 193.911 663.249 194.116C663.308 194.321 663.454 194.453 663.689 194.512C663.924 194.571 664.29 194.453 664.789 194.16ZM685.344 201.64C683.906 201.611 682.982 201.2 682.572 200.408C682.19 199.645 682.088 198.677 682.264 197.504C682.44 196.947 682.542 196.448 682.572 196.008C682.63 195.539 682.762 195.245 682.968 195.128C682.968 195.128 682.982 195.084 683.012 194.996C683.07 194.908 683.056 194.82 682.968 194.732C682.968 194.351 683.1 193.823 683.364 193.148C683.422 192.972 683.496 192.767 683.584 192.532C683.701 192.268 683.76 192.136 683.76 192.136C683.613 191.901 683.613 191.711 683.76 191.564C683.906 191.417 684.053 191.285 684.2 191.168C684.376 191.021 684.39 190.86 684.244 190.684C684.185 190.567 684.258 190.303 684.464 189.892C684.669 189.452 684.904 188.997 685.168 188.528C685.432 188.059 685.608 187.692 685.696 187.428C685.696 187.369 685.769 187.164 685.916 186.812C686.062 186.46 686.238 186.049 686.444 185.58C686.649 185.111 686.84 184.685 687.016 184.304C687.221 183.923 687.353 183.673 687.412 183.556C687.705 183.409 687.588 183.307 687.06 183.248C686.532 183.189 685.974 183.175 685.388 183.204C684.478 183.175 683.745 183.131 683.188 183.072C682.66 183.013 682.22 182.881 681.868 182.676C681.516 182.265 681.472 181.781 681.736 181.224C682 180.637 682.425 180.329 683.012 180.3C683.393 180.271 683.686 180.256 683.892 180.256C684.126 180.256 684.42 180.241 684.772 180.212C685.153 180.153 685.74 180.08 686.532 179.992L688.776 179.816L688.908 179.068C689.142 178.687 689.304 178.437 689.392 178.32C689.48 178.203 689.538 178.085 689.568 177.968C689.597 177.821 689.641 177.572 689.7 177.22C689.7 177.22 689.832 176.985 690.096 176.516C690.36 176.017 690.521 175.504 690.58 174.976C690.932 174.389 691.24 173.861 691.504 173.392C691.768 172.893 691.929 172.585 691.988 172.468C692.486 171.735 692.97 171.339 693.44 171.28C693.938 171.221 694.408 171.339 694.848 171.632C695.112 171.779 695.361 171.969 695.596 172.204C695.83 172.409 695.977 172.688 696.036 173.04C696.094 173.363 695.962 173.788 695.64 174.316C695.581 174.433 695.493 174.653 695.376 174.976C695.258 175.269 695.17 175.519 695.112 175.724C694.936 175.929 694.716 176.267 694.452 176.736C694.217 177.176 694.056 177.631 693.968 178.1C693.733 178.599 693.586 178.907 693.528 179.024C693.469 179.141 693.381 179.2 693.264 179.2C693.322 179.493 693.498 179.64 693.792 179.64C694.085 179.611 694.569 179.581 695.244 179.552C695.801 179.493 696.182 179.435 696.388 179.376C696.622 179.288 696.886 179.317 697.18 179.464C697.326 179.669 697.4 179.977 697.4 180.388C697.429 180.769 697.385 181.151 697.268 181.532C697.15 181.884 696.989 182.104 696.784 182.192C696.637 182.192 696.329 182.28 695.86 182.456C695.42 182.603 694.862 182.691 694.188 182.72L691.856 182.94L691.108 184.436C690.902 184.817 690.726 185.169 690.58 185.492C690.433 185.785 690.33 185.961 690.272 186.02C690.272 186.196 690.169 186.46 689.964 186.812C689.788 187.164 689.597 187.545 689.392 187.956C689.216 188.455 689.01 188.909 688.776 189.32C688.57 189.731 688.468 189.936 688.468 189.936C688.35 189.936 688.292 190.024 688.292 190.2C688.438 190.552 688.394 190.816 688.16 190.992C688.013 191.08 687.881 191.212 687.764 191.388C687.676 191.535 687.632 191.608 687.632 191.608C687.749 191.725 687.764 191.872 687.676 192.048C687.617 192.224 687.529 192.415 687.412 192.62C687.412 192.855 687.338 193.192 687.192 193.632C687.074 194.072 686.942 194.483 686.796 194.864C686.825 195.392 686.854 195.729 686.884 195.876C686.913 196.023 686.986 196.081 687.104 196.052C687.25 196.081 687.456 196.081 687.72 196.052C687.984 196.023 688.174 196.008 688.292 196.008C688.732 195.803 688.526 196.829 687.676 199.088C687.206 199.821 686.737 200.423 686.268 200.892C685.798 201.391 685.49 201.64 685.344 201.64ZM700.702 197.548C700.585 197.548 700.336 197.46 699.954 197.284C699.573 197.108 699.382 197.02 699.382 197.02C699.382 196.903 699.338 196.756 699.25 196.58C699.192 196.404 699.162 196.257 699.162 196.14C698.957 196.023 698.752 195.832 698.546 195.568C698.341 195.304 698.297 195.011 698.414 194.688C698.59 194.365 698.825 193.881 699.118 193.236C699.441 192.561 699.778 191.813 700.13 190.992C700.512 190.141 700.864 189.32 701.186 188.528C701.509 187.736 701.788 187.061 702.022 186.504C702.257 185.917 702.389 185.565 702.418 185.448C702.418 185.331 702.433 185.125 702.462 184.832C702.521 184.539 702.712 184.289 703.034 184.084C703.416 183.82 703.812 183.805 704.222 184.04C704.633 184.275 704.985 184.685 705.278 185.272C705.572 185.829 705.718 186.489 705.718 187.252C705.718 187.457 705.572 187.985 705.278 188.836C704.985 189.657 704.589 190.64 704.09 191.784C703.621 192.928 703.093 194.087 702.506 195.26C702.066 196.111 701.729 196.712 701.494 197.064C701.289 197.387 701.025 197.548 700.702 197.548ZM706.686 180.696C706.334 180.696 705.909 180.535 705.41 180.212C704.941 179.889 704.516 179.479 704.134 178.98C703.753 178.481 703.562 177.953 703.562 177.396C703.562 177.249 703.694 176.985 703.958 176.604C704.222 176.193 704.472 175.797 704.706 175.416C704.97 175.035 705.102 174.815 705.102 174.756C705.337 174.756 705.616 174.8 705.938 174.888C706.261 174.976 706.525 175.079 706.73 175.196C707.053 175.929 707.478 176.56 708.006 177.088C708.534 177.587 708.798 178.159 708.798 178.804C708.798 179.449 708.637 179.933 708.314 180.256C707.992 180.549 707.449 180.696 706.686 180.696ZM714.487 198.692C714.106 198.692 713.798 198.619 713.563 198.472C713.358 198.325 713.094 198.12 712.771 197.856C712.214 197.269 711.759 196.639 711.407 195.964C711.084 195.289 710.967 194.703 711.055 194.204C711.143 193.969 711.172 193.749 711.143 193.544C711.143 193.309 711.143 193.192 711.143 193.192C710.996 193.045 710.952 192.957 711.011 192.928C711.07 192.869 711.128 192.781 711.187 192.664C711.363 192.664 711.422 192.503 711.363 192.18C711.304 191.945 711.392 191.447 711.627 190.684C711.891 189.892 712.243 189.144 712.683 188.44C712.859 188.147 713.123 187.765 713.475 187.296C713.827 186.797 714.208 186.313 714.619 185.844C715.059 185.345 715.455 184.949 715.807 184.656C716.54 184.04 717.215 183.541 717.831 183.16C718.476 182.779 719.122 182.515 719.767 182.368C720.412 182.221 721.072 182.148 721.747 182.148C722.451 182.148 723.023 182.383 723.463 182.852C724.138 183.145 724.607 183.541 724.871 184.04C725.164 184.539 725.355 185.184 725.443 185.976C725.531 186.856 725.443 187.941 725.179 189.232C724.915 190.493 724.196 191.96 723.023 193.632C722.29 194.688 721.571 195.509 720.867 196.096C720.163 196.683 719.386 197.225 718.535 197.724C717.919 198.135 717.259 198.384 716.555 198.472C715.851 198.56 715.162 198.633 714.487 198.692ZM718.975 193.324C719.62 192.767 720.075 192.151 720.339 191.476C720.632 190.801 720.94 190.009 721.263 189.1C721.38 188.924 721.454 188.631 721.483 188.22C721.542 187.809 721.556 187.413 721.527 187.032C721.498 186.621 721.395 186.387 721.219 186.328C720.955 186.123 720.691 186.079 720.427 186.196C720.163 186.284 719.826 186.475 719.415 186.768C718.535 187.501 717.714 188.352 716.951 189.32C716.218 190.259 715.704 191.417 715.411 192.796C715.323 193.529 715.396 194.087 715.631 194.468C715.895 194.82 716.306 194.923 716.863 194.776C717.45 194.6 718.154 194.116 718.975 193.324ZM746.048 197.944C745.403 197.885 744.86 197.753 744.42 197.548C744.01 197.313 743.672 196.859 743.408 196.184C743.291 195.715 743.232 195.231 743.232 194.732C743.262 194.204 743.306 193.705 743.364 193.236C743.423 192.737 743.452 192.312 743.452 191.96C743.452 191.901 743.452 191.784 743.452 191.608C743.452 191.432 743.452 191.271 743.452 191.124C743.394 190.684 743.276 190.42 743.1 190.332C742.954 190.215 742.69 190.229 742.308 190.376C741.692 190.669 741.018 191.065 740.284 191.564C739.58 192.033 738.832 192.591 738.04 193.236C737.278 193.852 736.486 194.512 735.664 195.216C735.019 195.92 734.535 196.492 734.212 196.932C733.919 197.372 733.611 197.592 733.288 197.592C733.054 197.709 732.804 197.68 732.54 197.504C732.276 197.328 731.998 197.123 731.704 196.888C731.499 196.653 731.25 196.36 730.956 196.008C730.692 195.627 730.531 195.377 730.472 195.26C730.472 194.791 730.502 194.365 730.56 193.984C730.648 193.603 730.766 193.207 730.912 192.796C731.088 192.385 731.294 191.916 731.528 191.388C731.646 191.183 731.748 190.977 731.836 190.772C731.954 190.537 732.086 190.288 732.232 190.024C732.35 189.613 732.511 189.144 732.716 188.616C732.951 188.088 733.171 187.589 733.376 187.12C733.699 186.357 733.948 185.697 734.124 185.14C734.3 184.583 734.447 183.981 734.564 183.336C734.535 183.277 734.55 183.189 734.608 183.072C734.667 182.955 734.755 182.881 734.872 182.852H734.916H734.96C735.166 182.705 735.547 182.691 736.104 182.808C736.691 182.896 737.131 183.057 737.424 183.292C738.04 183.82 738.334 184.509 738.304 185.36C738.275 186.211 737.835 187.325 736.984 188.704C736.779 189.173 736.559 189.613 736.324 190.024C736.119 190.405 736.016 190.669 736.016 190.816C736.016 190.816 736.134 190.728 736.368 190.552C736.603 190.376 736.882 190.171 737.204 189.936C737.527 189.672 737.806 189.467 738.04 189.32C738.187 189.173 738.51 188.909 739.008 188.528C739.507 188.117 740.05 187.692 740.636 187.252C741.223 186.812 741.692 186.475 742.044 186.24C742.367 186.005 742.778 185.771 743.276 185.536C743.775 185.272 744.083 185.14 744.2 185.14C744.494 185.14 744.846 185.243 745.256 185.448C745.696 185.653 746.092 185.903 746.444 186.196C746.826 186.46 747.046 186.709 747.104 186.944C747.104 187.061 747.09 187.223 747.06 187.428C747.031 187.604 747.016 187.765 747.016 187.912C746.987 188.381 746.972 188.953 746.972 189.628C747.002 190.273 747.016 190.933 747.016 191.608C747.016 192.253 746.958 192.84 746.84 193.368C746.84 193.368 746.855 193.397 746.884 193.456C746.914 193.485 746.943 193.544 746.972 193.632C746.943 193.661 746.928 193.72 746.928 193.808C746.958 193.867 746.972 193.896 746.972 193.896C747.031 194.101 747.09 194.307 747.148 194.512C747.236 194.717 747.339 194.952 747.456 195.216C747.574 195.451 747.706 195.759 747.852 196.14C747.823 196.521 747.603 196.903 747.192 197.284C746.811 197.636 746.43 197.856 746.048 197.944Z" fill="#B8C318"/>
</svg>
