<svg width="900" height="250" viewBox="0 0 900 250" fill="none" xmlns="http://www.w3.org/2000/svg">
<rect width="900" height="220" rx="60" fill="#FDFDFB"/>
<rect x="5.5" y="35.5" width="889" height="209" rx="54.5" fill="#FDFDFB" stroke="#B8C318" stroke-width="11"/>
<rect width="555" height="172" transform="translate(172 54)" fill="#FDFDFB"/>
<path d="M301.06 96.26V93.26H273.58V96.26H301.06ZM301.06 104V100.94H273.58V104H301.06ZM308.32 88.22V109.04H266.68V88.22H308.32ZM291.76 128.66V134.48C293.32 134.6 294.94 134.66 296.56 134.66C299.92 134.66 311.44 134.66 315.7 134.48C314.74 136.1 313.66 139.22 313.3 141.26H296.2C285.22 141.26 277.78 139.76 272.74 132.8C270.58 136.76 267.82 139.94 264.34 142.34C263.32 141.02 260.56 138.38 258.94 137.36C265.06 133.58 268.72 127.22 270.1 119.18L277.24 120.26C276.82 122.18 276.34 123.98 275.86 125.72C277.72 129.8 280.66 132.02 284.5 133.22V117.98H261.1V111.68H314.02V117.98H291.76V122.48H310.24V128.66H291.76ZM346.72 121.4L341.98 123.2C341.8 122.42 341.56 121.58 341.32 120.62C329.86 122.42 327.7 123.02 326.38 123.68C326.08 122.42 325.06 119.42 324.34 117.68C325.78 117.32 327.1 116 328.96 113.66C329.74 112.82 331.12 110.96 332.74 108.56C328.18 109.16 326.86 109.46 325.96 109.88C325.6 108.56 324.58 105.56 323.92 103.88C325 103.58 325.9 102.44 327.04 100.7C328.18 99.02 331.66 92.48 333.52 86.24L339.82 88.7C337.84 93.56 335.14 98.78 332.32 102.98L336.46 102.68C337.96 100.1 339.46 97.16 340.72 94.34L346.36 97.82C342.88 104.24 338.5 110.78 333.94 116.3L339.76 115.52C339.28 113.9 338.74 112.34 338.2 110.9L342.64 109.52C344.2 113.3 345.94 118.34 346.72 121.4ZM357.46 122.06L352.54 125.66C351.34 123.56 348.7 120.2 346.54 117.74L351.22 114.56C353.38 116.78 356.14 119.96 357.46 122.06ZM326.08 125.6L331.42 126.68C330.94 131.48 329.86 137.18 329.08 140.72C327.76 140.06 325.18 139.52 323.86 139.22C324.82 135.62 325.6 130.22 326.08 125.6ZM332.62 126.38L337.48 125.18C338.26 129.08 338.92 134.12 339.1 137.54L333.94 138.86C333.88 135.38 333.28 130.28 332.62 126.38ZM355.96 125.36L358.12 130.58C354.64 133.1 350.68 135.68 347.44 137.78L345.4 134.9L342.16 136.1C341.62 133.1 340.24 128.42 339.04 124.94L343.54 123.38C344.5 125.96 345.52 128.9 346.24 131.48C349.06 129.8 352.48 127.58 355.96 125.36ZM356.26 99.2H366.52L367.18 95.78H357.1L356.26 99.2ZM380.26 113.78H365.98V135.44C365.98 138.56 365.44 140.18 363.34 141.14C361.36 142.16 358.6 142.28 354.88 142.22C354.64 140.48 353.68 137.9 352.84 136.16C355.18 136.22 357.64 136.22 358.42 136.22C359.2 136.22 359.38 136.04 359.38 135.32V113.78H345.04V107.54H364.72L365.38 104.6H347.92C349.48 99.8 351.4 92.06 352.6 86.18L359.26 86.84C359.02 87.92 358.72 89.12 358.42 90.38H368.74L369.82 90.14L374.68 90.8C373.9 96.08 372.64 102.26 371.44 107.54H380.26V113.78ZM371.56 125.12L367.36 122C369.46 119.96 372.46 116.6 374.08 114.26L379.18 117.74C376.66 120.44 373.84 123.26 371.56 125.12ZM366.64 129.8L370.3 125.36C373.6 127.64 378.22 130.88 380.5 133.04L376.66 138.02C374.56 135.8 369.94 132.26 366.64 129.8ZM429.16 109.16H403.72V117.86H429.16V109.16ZM403.72 132.26H443.38V139.22H390.94V132.26H396.34V95.96H391.42V89.12H441.28V95.96H403.72V102.2H436.54V124.82H403.72V132.26ZM477.22 86.24H485.44C485.38 88.76 485.26 92 485.02 95.6C485.86 103.7 489.52 126.32 510.46 135.56C508.24 137.3 506.2 139.7 505.24 141.74C491.92 135.38 485.26 123.68 481.78 113.36C478.48 123.92 472.18 134.78 459.7 142.1C458.44 140.18 456.16 137.9 453.76 136.28C478.12 123.26 476.98 96.38 477.22 86.24ZM537.46 93.62L533.08 99.26C530.8 97.22 525.64 93.98 522.16 91.76L526.3 86.78C529.78 88.7 534.94 91.76 537.46 93.62ZM533.92 109.1L529.96 115.04C527.56 113.3 522.52 110.48 518.98 108.62L522.82 103.34C526.06 104.9 531.34 107.42 533.92 109.1ZM527.02 141.56L521.02 136.7C524.26 132.2 528.76 124.76 532.3 117.8L537.58 122.6C534.46 128.84 530.68 135.74 527.02 141.56ZM564.1 125.48H547V133.16H564.1V125.48ZM539.86 142.16V119.12H571.54V141.74H564.1V139.46H547V142.16H539.86ZM559 108.92H574.6V115.34H535.42V108.92H551.74V102.2H544.18C542.98 104.72 541.66 106.94 540.28 108.74C538.9 107.6 535.9 105.74 534.22 104.96C537.46 101.06 540.16 94.88 541.66 89L548.62 90.62C548.14 92.42 547.54 94.16 546.88 95.9H551.74V86.96H559V95.9H572.44V102.2H559V108.92ZM598.72 108.8V115.34H624.34V108.8H598.72ZM624.22 134.78H630.16C632.2 134.78 632.5 133.7 632.74 126.68C634.3 127.82 637.36 128.96 639.34 129.44C638.62 139.04 636.7 141.5 630.82 141.5H623.14C616.12 141.5 614.38 139.34 614.38 132.62V121.64H607.54C606.28 131.72 603.1 138.62 587.44 142.34C586.72 140.36 584.8 137.3 583.24 135.68C596.62 133.16 598.9 128.66 599.86 121.64H591.82V102.56H607.66V97.76H585.52V91.28H607.66V86.18H614.92V91.28H637.72V97.76H614.92V102.56H631.72V121.64H621.7V132.56C621.7 134.54 622.06 134.78 624.22 134.78Z" fill="#594A39"/>
<path d="M180.045 200.804C179.84 200.481 179.488 200.276 178.989 200.188C178.49 200.1 177.728 200.085 176.701 200.144C176.29 200.203 175.865 200.173 175.425 200.056C174.985 199.939 174.633 199.763 174.369 199.528C174.105 199.293 174.002 199.059 174.061 198.824C174.09 198.472 174.501 198.091 175.293 197.68C176.085 197.269 177.112 197.049 178.373 197.02L180.221 196.976L180.661 196.096C180.778 195.773 180.866 195.421 180.925 195.04C181.013 194.659 181.16 194.131 181.365 193.456C181.482 193.045 181.658 192.473 181.893 191.74C182.128 191.007 182.377 190.229 182.641 189.408C182.905 188.557 183.14 187.795 183.345 187.12C183.55 186.445 183.682 185.976 183.741 185.712C183.858 185.448 184.02 185.008 184.225 184.392C184.43 183.747 184.621 183.101 184.797 182.456C185.002 181.781 185.134 181.297 185.193 181.004C185.956 178.687 186.454 177.073 186.689 176.164C186.924 175.225 186.982 174.741 186.865 174.712C186.748 174.712 186.469 174.727 186.029 174.756C185.589 174.785 185.105 174.829 184.577 174.888C184.049 174.917 183.58 174.961 183.169 175.02C182.758 175.079 182.509 175.137 182.421 175.196C182.274 175.401 182.025 175.372 181.673 175.108C181.321 174.815 181.101 174.521 181.013 174.228C180.984 173.964 180.984 173.715 181.013 173.48C181.042 173.245 181.13 173.084 181.277 172.996C181.482 172.82 181.908 172.629 182.553 172.424C183.198 172.189 183.917 171.984 184.709 171.808C185.53 171.632 186.278 171.5 186.953 171.412C187.452 171.353 187.95 171.251 188.449 171.104C188.948 170.928 189.344 170.723 189.637 170.488C189.901 170.4 190.15 170.327 190.385 170.268C190.649 170.209 190.913 170.195 191.177 170.224C191.412 170.371 191.808 170.444 192.365 170.444C192.952 170.444 193.568 170.429 194.213 170.4C195.856 170.253 197 170.312 197.645 170.576C198.32 170.811 198.76 171.133 198.965 171.544C199.112 172.101 199.082 172.571 198.877 172.952C198.672 173.304 198.32 173.465 197.821 173.436C197.557 173.495 197.19 173.553 196.721 173.612C196.252 173.641 195.636 173.671 194.873 173.7C192.937 173.876 191.896 174.081 191.749 174.316C191.632 174.433 191.529 174.551 191.441 174.668C191.382 174.785 191.294 174.917 191.177 175.064C191.206 175.181 191.133 175.533 190.957 176.12C190.81 176.677 190.62 177.279 190.385 177.924C190.268 178.305 190.092 178.848 189.857 179.552C189.622 180.256 189.373 180.989 189.109 181.752C188.874 182.485 188.654 183.16 188.449 183.776C188.244 184.363 188.097 184.759 188.009 184.964C187.892 185.228 187.789 185.521 187.701 185.844C187.642 186.137 187.598 186.357 187.569 186.504C187.158 187.941 186.806 189.144 186.513 190.112C186.249 191.08 186.014 191.931 185.809 192.664C185.604 193.368 185.413 194.057 185.237 194.732C185.061 195.377 184.856 196.111 184.621 196.932C184.621 196.932 184.87 196.917 185.369 196.888C185.868 196.829 186.498 196.771 187.261 196.712C188.64 196.565 189.578 196.477 190.077 196.448C190.576 196.419 190.869 196.463 190.957 196.58C191.045 196.668 191.133 196.844 191.221 197.108C191.808 197.9 191.764 198.56 191.089 199.088C190.444 199.616 189.3 199.865 187.657 199.836C186.132 199.895 185.002 199.939 184.269 199.968C183.565 200.027 183.11 200.1 182.905 200.188C182.7 200.276 182.597 200.423 182.597 200.628C182.626 201.097 182.333 201.376 181.717 201.464C181.13 201.581 180.573 201.361 180.045 200.804ZM201.558 199.044C201.236 198.985 200.884 198.795 200.502 198.472C200.121 198.12 199.769 197.739 199.446 197.328C199.153 196.888 198.962 196.521 198.874 196.228C198.874 196.169 198.83 196.096 198.742 196.008C198.684 195.92 198.654 195.876 198.654 195.876C198.537 195.788 198.464 195.407 198.434 194.732C198.434 194.028 198.478 193.251 198.566 192.4C198.654 191.549 198.757 190.875 198.874 190.376C199.021 189.907 199.241 189.276 199.534 188.484C199.828 187.663 200.077 186.929 200.282 186.284L201.47 183.732L199.71 183.248C199.505 183.189 199.329 183.072 199.182 182.896C199.065 182.72 199.006 182.573 199.006 182.456C199.006 182.221 199.138 181.884 199.402 181.444C199.666 181.004 199.857 180.784 199.974 180.784C200.121 180.813 200.385 180.828 200.766 180.828C201.177 180.828 201.573 180.813 201.954 180.784C202.336 180.755 202.57 180.725 202.658 180.696C202.776 180.637 202.893 180.564 203.01 180.476C203.128 180.359 203.216 180.197 203.274 179.992C203.421 179.669 203.553 179.42 203.67 179.244C203.788 179.068 203.949 178.804 204.154 178.452C204.36 178.071 204.521 177.748 204.638 177.484C204.785 177.22 205.005 176.853 205.298 176.384C205.445 176.179 205.606 175.929 205.782 175.636C205.958 175.343 206.178 175.093 206.442 174.888C206.706 174.653 207.132 174.492 207.718 174.404C208.334 174.287 208.862 174.419 209.302 174.8C209.537 175.093 209.669 175.372 209.698 175.636C209.728 175.9 209.61 176.237 209.346 176.648C209.112 177.147 208.833 177.601 208.51 178.012C208.217 178.393 207.938 178.833 207.674 179.332C207.205 179.977 207.117 180.344 207.41 180.432C207.704 180.52 208.525 180.461 209.874 180.256C210.725 180.109 211.341 180.197 211.722 180.52C212.104 180.843 212.324 181.253 212.382 181.752C212.47 182.456 212.397 182.881 212.162 183.028C211.928 183.175 211.253 183.248 210.138 183.248C209.434 183.365 208.833 183.439 208.334 183.468C207.836 183.468 207.469 183.468 207.234 183.468C206.853 183.497 206.604 183.512 206.486 183.512C206.369 183.512 206.193 183.541 205.958 183.6C205.724 183.659 205.548 183.761 205.43 183.908C205.342 184.025 205.24 184.201 205.122 184.436C205.005 184.553 204.829 184.861 204.594 185.36C204.36 185.859 204.066 186.401 203.714 186.988C203.304 188.22 202.952 189.408 202.658 190.552C202.394 191.667 202.16 192.781 201.954 193.896C201.866 194.453 201.881 194.864 201.998 195.128C202.145 195.363 202.526 195.509 203.142 195.568C203.465 195.597 203.934 195.597 204.55 195.568C205.166 195.509 205.68 195.421 206.09 195.304C206.413 195.157 206.75 195.011 207.102 194.864C207.454 194.688 207.777 194.512 208.07 194.336C208.334 194.189 208.598 194.043 208.862 193.896C209.126 193.72 209.258 193.632 209.258 193.632C209.405 193.397 209.61 193.441 209.874 193.764C210.168 194.057 210.373 194.38 210.49 194.732C210.49 195.084 210.417 195.509 210.27 196.008C210.124 196.477 209.581 196.976 208.642 197.504C207.322 198.325 206.002 198.824 204.682 199C203.362 199.176 202.321 199.191 201.558 199.044ZM220.833 180.036C220.364 180.124 219.982 180.139 219.689 180.08C219.425 179.992 219.19 179.86 218.985 179.684C218.897 179.361 218.926 179.039 219.073 178.716C219.22 178.364 219.366 178.085 219.513 177.88C219.865 177.293 220.261 176.604 220.701 175.812C221.17 174.991 221.478 174.36 221.625 173.92C221.684 173.597 221.772 173.187 221.889 172.688C222.036 172.16 222.109 171.617 222.109 171.06C222.109 170.913 222.138 170.679 222.197 170.356C222.285 170.033 222.402 169.74 222.549 169.476C222.696 169.212 222.842 169.124 222.989 169.212C223.253 169.329 223.59 169.491 224.001 169.696C224.412 169.901 224.764 170.136 225.057 170.4C225.38 170.664 225.512 170.957 225.453 171.28C225.394 171.984 225.233 172.747 224.969 173.568C224.705 174.389 224.485 175.093 224.309 175.68C224.133 176.325 223.81 177 223.341 177.704C222.872 178.379 222.388 179.009 221.889 179.596C221.918 179.713 221.83 179.787 221.625 179.816C221.42 179.845 221.156 179.919 220.833 180.036ZM227.529 199.264C226.532 198.853 225.798 198.428 225.329 197.988C224.889 197.519 224.713 197.108 224.801 196.756C224.86 196.58 224.962 196.419 225.109 196.272C225.256 196.125 225.578 196.067 226.077 196.096C226.605 196.096 227.412 196.228 228.497 196.492C228.82 196.492 229.142 196.477 229.465 196.448C229.788 196.419 230.081 196.375 230.345 196.316C230.638 196.257 230.873 196.184 231.049 196.096C231.196 196.037 231.24 195.964 231.181 195.876C231.122 195.759 231.02 195.641 230.873 195.524C230.756 195.377 230.624 195.289 230.477 195.26C230.33 195.201 230.198 195.172 230.081 195.172C230.022 195.025 229.89 194.879 229.685 194.732C229.509 194.585 229.289 194.424 229.025 194.248C228.38 193.72 227.793 193.251 227.265 192.84C226.737 192.429 226.532 192.121 226.649 191.916C226.649 191.799 226.649 191.74 226.649 191.74C226.649 191.711 226.649 191.696 226.649 191.696C226.444 191.696 226.253 191.417 226.077 190.86C225.901 190.273 225.813 189.745 225.813 189.276C225.813 188.689 225.93 188.103 226.165 187.516C226.429 186.929 226.752 186.372 227.133 185.844C227.544 185.316 227.954 184.847 228.365 184.436C228.922 183.908 229.509 183.395 230.125 182.896C230.77 182.368 231.46 181.899 232.193 181.488C232.956 181.077 233.792 180.755 234.701 180.52C235.112 180.432 235.581 180.388 236.109 180.388C236.637 180.388 237.018 180.461 237.253 180.608C237.488 180.461 237.781 180.505 238.133 180.74C238.485 180.945 238.837 181.239 239.189 181.62C239.541 182.001 239.805 182.383 239.981 182.764C239.981 183.116 239.966 183.556 239.937 184.084C239.937 184.583 239.908 185.023 239.849 185.404C239.79 185.785 239.658 185.976 239.453 185.976C239.453 185.976 239.409 185.991 239.321 186.02C239.262 186.02 239.233 186.093 239.233 186.24C239.233 186.533 239.013 186.871 238.573 187.252C238.016 187.633 237.488 187.941 236.989 188.176C236.49 188.411 236.109 188.425 235.845 188.22C235.669 188.103 235.508 187.985 235.361 187.868C235.214 187.751 235.082 187.604 234.965 187.428C234.965 187.428 234.921 187.369 234.833 187.252C234.774 187.105 234.745 186.973 234.745 186.856C234.745 186.739 234.789 186.636 234.877 186.548C234.965 186.431 235.009 186.372 235.009 186.372C235.42 185.991 235.728 185.639 235.933 185.316C236.168 184.993 236.329 184.715 236.417 184.48C236.505 184.216 236.549 184.011 236.549 183.864C236.549 183.688 236.505 183.585 236.417 183.556C236.358 183.497 236.212 183.468 235.977 183.468C235.83 183.468 235.508 183.585 235.009 183.82C234.54 184.055 234.041 184.348 233.513 184.7C232.985 185.023 232.574 185.316 232.281 185.58C232.164 185.785 232.076 185.917 232.017 185.976C231.988 186.035 231.914 186.064 231.797 186.064C231.797 185.947 231.724 185.961 231.577 186.108C231.43 186.255 231.254 186.46 231.049 186.724C230.844 186.988 230.638 187.267 230.433 187.56C230.228 187.853 230.066 188.088 229.949 188.264C229.92 188.528 229.846 188.777 229.729 189.012C229.641 189.217 229.612 189.437 229.641 189.672C229.67 189.965 229.817 190.244 230.081 190.508C230.345 190.772 230.726 191.109 231.225 191.52C232.252 192.283 233.014 192.884 233.513 193.324C234.041 193.764 234.408 194.116 234.613 194.38C234.818 194.644 234.95 194.908 235.009 195.172C235.508 196.081 235.566 196.873 235.185 197.548C234.804 198.193 234.217 198.692 233.425 199.044C233.132 199.191 232.618 199.323 231.885 199.44C231.152 199.587 230.374 199.645 229.553 199.616C228.761 199.616 228.086 199.499 227.529 199.264ZM263.996 199.264C263.586 199.147 263.175 198.941 262.764 198.648C262.354 198.355 261.928 198.017 261.488 197.636C261.136 197.167 260.887 196.741 260.74 196.36C260.594 195.949 260.506 195.48 260.476 194.952C260.476 194.395 260.476 193.691 260.476 192.84C260.476 192.488 260.535 191.989 260.652 191.344C260.799 190.699 260.946 190.024 261.092 189.32C261.268 188.616 261.43 188 261.576 187.472C261.723 186.915 261.811 186.548 261.84 186.372C261.928 185.991 261.782 185.771 261.4 185.712C261.019 185.653 260.594 185.639 260.124 185.668C259.684 185.668 259.391 185.624 259.244 185.536C259.127 185.507 259.068 185.36 259.068 185.096C259.068 184.803 259.068 184.656 259.068 184.656C259.068 184.539 259.01 184.465 258.892 184.436C258.775 184.377 258.672 184.275 258.584 184.128C258.526 184.011 258.599 183.791 258.804 183.468C259.01 183.145 259.274 182.955 259.596 182.896C259.86 182.837 260.256 182.793 260.784 182.764C261.312 182.705 261.84 182.603 262.368 182.456C262.926 182.28 263.351 182.016 263.644 181.664C263.908 181.019 264.202 180.329 264.524 179.596C264.847 178.833 265.155 178.173 265.448 177.616C265.742 177.029 265.947 176.663 266.064 176.516C266.563 176.252 267.076 176.149 267.604 176.208C268.132 176.237 268.543 176.487 268.836 176.956C268.983 177.161 269.1 177.308 269.188 177.396C269.306 177.484 269.35 177.616 269.32 177.792C269.32 177.968 269.203 178.291 268.968 178.76C268.763 179.2 268.411 179.889 267.912 180.828C267.766 181.121 267.634 181.385 267.516 181.62C267.399 181.825 267.34 181.928 267.34 181.928C267.458 181.957 267.634 181.972 267.868 181.972C268.103 181.972 268.396 181.957 268.748 181.928C269.071 181.869 269.423 181.825 269.804 181.796C270.186 181.737 270.523 181.737 270.816 181.796C271.491 181.796 271.99 181.987 272.312 182.368C272.635 182.749 272.811 183.233 272.84 183.82C272.899 184.143 272.782 184.421 272.488 184.656C272.195 184.891 271.652 185.008 270.86 185.008C270.596 185.008 270.215 185.023 269.716 185.052C269.218 185.081 268.704 185.111 268.176 185.14C267.648 185.169 267.194 185.213 266.812 185.272C266.46 185.301 266.284 185.345 266.284 185.404C266.196 185.463 266.05 185.697 265.844 186.108C265.668 186.489 265.478 186.959 265.272 187.516C265.096 188.073 264.935 188.601 264.788 189.1C264.583 190.097 264.436 191.065 264.348 192.004C264.26 192.943 264.246 193.764 264.304 194.468C264.392 195.143 264.568 195.627 264.832 195.92C265.096 196.184 265.492 196.184 266.02 195.92C266.578 195.627 267.091 195.289 267.56 194.908C268.088 194.468 268.543 194.336 268.924 194.512C269.306 194.659 269.54 194.981 269.628 195.48C269.746 195.949 269.614 196.463 269.232 197.02C268.88 197.577 268.382 198.047 267.736 198.428C267.091 198.809 266.431 199.073 265.756 199.22C265.082 199.396 264.495 199.411 263.996 199.264ZM292.203 198.692C291.645 198.839 291.059 198.941 290.443 199C289.856 199.088 289.343 198.912 288.903 198.472C288.639 198.061 288.404 197.695 288.199 197.372C287.993 197.049 287.861 196.477 287.803 195.656C287.773 195.099 287.803 194.497 287.891 193.852C288.008 193.177 288.052 192.693 288.023 192.4C288.257 191.315 288.316 190.537 288.199 190.068C288.111 189.599 287.993 189.364 287.847 189.364C287.524 189.305 287.011 189.54 286.307 190.068C285.632 190.596 284.825 191.344 283.887 192.312C282.977 193.251 281.995 194.321 280.939 195.524C280.381 196.287 279.971 196.859 279.707 197.24C279.472 197.592 279.296 197.768 279.179 197.768C278.651 197.768 278.167 197.68 277.727 197.504C277.287 197.328 276.935 197.079 276.671 196.756C276.407 196.433 276.245 196.096 276.187 195.744C276.187 195.627 276.26 195.319 276.407 194.82C276.553 194.292 276.729 193.691 276.935 193.016C277.14 192.341 277.331 191.711 277.507 191.124C277.712 190.537 277.859 190.127 277.947 189.892C278.211 189.129 278.519 188.205 278.871 187.12C279.252 186.005 279.589 185.023 279.883 184.172C280 183.791 280.205 183.248 280.499 182.544C280.792 181.811 281.085 181.077 281.379 180.344C281.672 179.611 281.877 179.068 281.995 178.716C282.083 178.481 282.244 178.071 282.479 177.484C282.713 176.868 282.963 176.193 283.227 175.46C283.52 174.727 283.784 174.052 284.019 173.436C284.283 172.791 284.459 172.321 284.547 172.028C284.517 171.764 284.532 171.529 284.591 171.324C284.679 171.089 284.767 170.913 284.855 170.796C284.972 170.796 285.104 170.796 285.251 170.796C285.397 170.767 285.471 170.752 285.471 170.752C285.471 170.693 285.661 170.752 286.043 170.928C286.453 171.104 286.849 171.324 287.231 171.588C287.641 171.823 287.847 172.028 287.847 172.204C287.993 172.585 288.008 173.084 287.891 173.7C287.773 174.287 287.465 175.181 286.967 176.384C286.644 176.853 286.321 177.557 285.999 178.496C285.705 179.435 285.412 180.227 285.119 180.872C285.001 181.077 284.825 181.444 284.591 181.972C284.385 182.471 284.136 183.072 283.843 183.776C283.579 184.451 283.315 185.169 283.051 185.932C282.787 186.695 282.552 187.443 282.347 188.176C282.053 188.88 281.951 189.349 282.039 189.584C282.127 189.819 282.479 189.555 283.095 188.792C283.916 187.912 284.679 187.12 285.383 186.416C286.116 185.712 286.791 185.155 287.407 184.744C288.052 184.304 288.624 184.113 289.123 184.172C289.387 184.231 289.724 184.421 290.135 184.744C290.575 185.037 290.985 185.389 291.367 185.8C291.777 186.181 292.041 186.548 292.159 186.9C292.276 187.311 292.349 187.707 292.379 188.088C292.437 188.469 292.452 189.012 292.423 189.716C292.393 190.391 292.32 191.403 292.203 192.752C292.027 193.749 291.909 194.468 291.851 194.908C291.792 195.319 291.807 195.612 291.895 195.788C292.012 195.964 292.188 196.155 292.423 196.36C292.863 196.712 293.039 197.137 292.951 197.636C292.863 198.105 292.613 198.457 292.203 198.692ZM308.742 198.12C307.862 198.619 306.923 198.912 305.926 199C304.958 199.059 304.048 198.927 303.198 198.604C302.347 198.252 301.658 197.739 301.13 197.064C300.836 196.683 300.558 196.081 300.294 195.26C300.03 194.409 299.986 193.265 300.162 191.828C300.338 190.479 300.748 189.115 301.394 187.736C302.068 186.357 302.89 185.14 303.858 184.084C304.826 183.028 305.882 182.309 307.026 181.928C307.436 181.781 307.847 181.679 308.258 181.62C308.698 181.532 309.27 181.517 309.974 181.576C310.648 181.664 311.25 181.84 311.778 182.104C312.306 182.339 312.687 182.603 312.922 182.896C313.391 183.365 313.699 183.82 313.846 184.26C313.992 184.7 314.051 185.125 314.022 185.536C313.875 186.475 313.45 187.487 312.746 188.572C312.071 189.657 311.118 190.464 309.886 190.992C309.387 191.197 308.8 191.329 308.126 191.388C307.451 191.447 306.527 191.359 305.354 191.124C304.65 190.977 304.18 191.051 303.946 191.344C303.74 191.637 303.652 192.209 303.682 193.06C303.74 193.588 303.858 194.057 304.034 194.468C304.239 194.849 304.606 195.113 305.134 195.26C305.808 195.377 306.292 195.392 306.586 195.304C306.879 195.187 307.246 195.025 307.686 194.82C307.92 194.673 308.14 194.512 308.346 194.336C308.58 194.16 308.8 193.984 309.006 193.808C309.24 193.632 309.431 193.5 309.578 193.412C309.724 193.295 309.871 193.221 310.018 193.192C310.164 193.163 310.311 193.148 310.458 193.148C310.78 193.177 311.088 193.353 311.382 193.676C311.675 193.999 311.866 194.307 311.954 194.6C311.954 194.835 311.807 195.172 311.514 195.612C311.22 196.023 310.824 196.463 310.326 196.932C309.856 197.372 309.328 197.768 308.742 198.12ZM308.17 188.308C308.375 188.22 308.668 188.015 309.05 187.692C309.46 187.369 309.827 187.032 310.15 186.68C310.472 186.299 310.634 186.005 310.634 185.8C310.634 185.477 310.414 185.199 309.974 184.964C309.563 184.729 309.02 184.685 308.346 184.832C308.111 184.891 307.832 185.052 307.51 185.316C307.187 185.58 306.864 185.888 306.542 186.24C306.219 186.563 305.94 186.885 305.706 187.208C305.471 187.501 305.31 187.736 305.222 187.912C305.339 188.059 305.574 188.176 305.926 188.264C306.278 188.352 306.659 188.396 307.07 188.396C307.51 188.396 307.876 188.367 308.17 188.308ZM337.657 207.8C336.836 208.123 335.971 208.064 335.061 207.624C334.181 207.213 333.419 206.553 332.773 205.644C332.656 205.468 332.48 205.145 332.245 204.676C332.011 204.236 331.776 203.752 331.541 203.224C331.336 202.696 331.175 202.241 331.057 201.86C330.969 201.479 330.969 201.259 331.057 201.2C331.175 200.877 331.439 200.687 331.849 200.628C332.26 200.569 332.671 200.584 333.081 200.672C333.492 200.789 333.727 200.936 333.785 201.112C333.873 201.317 333.961 201.523 334.049 201.728C334.137 201.963 334.24 202.168 334.357 202.344C334.504 202.549 334.636 202.725 334.753 202.872C335.076 203.371 335.428 203.708 335.809 203.884C336.191 204.089 336.484 204.119 336.689 203.972C337.188 203.591 337.555 203.136 337.789 202.608C338.053 202.109 338.391 201.215 338.801 199.924C339.124 198.839 339.403 197.9 339.637 197.108C339.872 196.316 340.121 195.583 340.385 194.908C340.473 194.556 340.576 194.263 340.693 194.028C340.84 193.764 340.972 193.573 341.089 193.456H341.353C340.708 193.867 340.165 194.277 339.725 194.688C339.285 195.099 338.684 195.465 337.921 195.788C337.745 195.993 337.305 196.125 336.601 196.184C335.927 196.213 335.267 196.125 334.621 195.92C334.211 195.685 333.873 195.451 333.609 195.216C333.375 194.952 333.169 194.659 332.993 194.336C332.847 194.013 332.685 193.632 332.509 193.192C332.304 192.752 332.275 192.033 332.421 191.036C332.568 190.039 332.832 189.041 333.213 188.044C333.565 187.311 334.079 186.519 334.753 185.668C335.428 184.817 336.147 184.055 336.909 183.38C337.672 182.676 338.361 182.236 338.977 182.06C339.212 181.943 339.623 181.811 340.209 181.664C340.796 181.488 341.353 181.473 341.881 181.62C342.38 181.679 342.761 181.796 343.025 181.972C343.289 182.119 343.715 182.441 344.301 182.94C344.683 183.321 345.152 183.82 345.709 184.436C346.267 185.023 346.619 185.521 346.765 185.932C346.971 186.372 347.015 186.856 346.897 187.384C346.78 187.883 346.575 188.323 346.281 188.704C346.017 189.085 345.739 189.467 345.445 189.848C345.152 190.229 344.932 190.757 344.785 191.432C344.639 192.312 344.36 193.309 343.949 194.424C343.539 195.509 343.216 196.521 342.981 197.46L342.277 200.188C341.544 202.681 340.737 204.485 339.857 205.6C338.977 206.744 338.244 207.477 337.657 207.8ZM336.733 192.664C337.32 192.635 337.819 192.576 338.229 192.488C338.669 192.371 339.08 192.136 339.461 191.784C339.843 191.403 340.283 190.831 340.781 190.068C341.28 189.364 341.632 188.719 341.837 188.132C342.043 187.545 342.116 186.885 342.057 186.152C342.028 185.683 341.896 185.375 341.661 185.228C341.427 185.081 341.119 185.037 340.737 185.096C340.18 185.184 339.681 185.419 339.241 185.8C338.801 186.152 338.288 186.709 337.701 187.472C337.261 188.059 336.895 188.763 336.601 189.584C336.308 190.464 336.176 191.168 336.205 191.696C336.264 192.224 336.44 192.547 336.733 192.664ZM355.709 198.076C355.621 198.105 355.43 198.091 355.137 198.032C354.873 197.973 354.594 197.9 354.301 197.812C354.037 197.724 353.875 197.651 353.817 197.592C353.699 197.475 353.538 197.269 353.333 196.976C353.127 196.653 353.01 196.228 352.981 195.7C352.981 195.172 353.23 194.541 353.729 193.808C353.875 193.515 354.051 193.075 354.257 192.488C354.462 191.901 354.667 191.285 354.873 190.64C355.107 189.965 355.313 189.364 355.489 188.836C355.694 188.308 355.841 187.941 355.929 187.736C355.987 187.237 355.958 186.885 355.841 186.68C355.753 186.445 355.503 186.313 355.093 186.284C354.799 186.284 354.565 186.181 354.389 185.976C354.242 185.771 354.169 185.404 354.169 184.876C354.227 184.465 354.33 184.113 354.477 183.82C354.653 183.497 354.887 183.233 355.181 183.028C355.474 182.881 355.841 182.779 356.281 182.72C356.75 182.661 357.205 182.647 357.645 182.676C358.085 182.705 358.393 182.808 358.569 182.984C358.774 183.101 358.935 183.365 359.053 183.776C359.199 184.157 359.317 184.553 359.405 184.964C359.493 185.375 359.551 185.683 359.581 185.888C359.874 185.653 360.197 185.331 360.549 184.92C360.93 184.48 361.311 184.069 361.693 183.688C362.162 183.365 362.719 183.043 363.365 182.72C364.01 182.368 364.479 182.192 364.773 182.192C365.095 182.192 365.491 182.353 365.961 182.676C366.43 182.969 366.723 183.233 366.841 183.468C367.134 183.967 367.339 184.495 367.457 185.052C367.603 185.58 367.515 186.049 367.193 186.46C366.899 186.841 366.489 187.223 365.961 187.604C365.433 187.956 364.773 188.059 363.981 187.912C363.805 187.853 363.614 187.633 363.409 187.252C363.233 186.871 363.13 186.592 363.101 186.416C363.101 186.328 362.969 186.416 362.705 186.68C362.47 186.915 362.177 187.208 361.825 187.56C361.502 187.912 361.194 188.235 360.901 188.528C360.402 189.144 359.874 189.98 359.317 191.036C358.759 192.092 358.099 193.368 357.337 194.864C356.985 195.597 356.691 196.301 356.457 196.976C356.222 197.621 355.973 197.988 355.709 198.076ZM376.008 199.792C374.395 199.792 373.148 199.323 372.268 198.384C371.417 197.445 370.992 196.008 370.992 194.072C370.992 193.016 371.183 191.857 371.564 190.596C371.975 189.335 372.503 188.103 373.148 186.9C373.823 185.697 374.556 184.656 375.348 183.776C376.14 182.867 376.932 182.236 377.724 181.884C378.017 181.737 378.325 181.635 378.648 181.576C379 181.488 379.337 181.444 379.66 181.444C380.012 181.444 380.393 181.473 380.804 181.532C381.244 181.561 381.655 181.649 382.036 181.796C382.711 182.001 383.297 182.397 383.796 182.984C384.324 183.571 384.588 184.421 384.588 185.536C384.588 185.829 384.559 186.152 384.5 186.504C384.441 186.827 384.339 187.149 384.192 187.472C383.811 188.44 383.224 189.364 382.432 190.244C381.669 191.124 380.863 191.74 380.012 192.092C379.777 192.209 379.543 192.297 379.308 192.356C379.103 192.385 378.883 192.4 378.648 192.4C378.032 192.4 377.475 192.312 376.976 192.136C376.507 191.96 376.067 191.725 375.656 191.432L375.304 191.124L375.084 191.564C374.879 192.121 374.732 192.591 374.644 192.972C374.585 193.353 374.556 193.632 374.556 193.808C374.556 194.16 374.571 194.527 374.6 194.908C374.629 195.26 374.717 195.553 374.864 195.788C374.981 195.935 375.128 196.052 375.304 196.14C375.509 196.228 375.759 196.272 376.052 196.272C376.228 196.272 376.389 196.272 376.536 196.272C376.712 196.243 376.859 196.213 376.976 196.184C377.504 196.067 377.929 195.876 378.252 195.612C378.604 195.319 378.971 195.069 379.352 194.864L379.528 194.776L379.484 194.644C379.983 194.38 380.32 194.219 380.496 194.16C380.672 194.072 380.804 193.999 380.892 193.94C381.009 193.823 381.141 193.764 381.288 193.764C381.699 193.705 382.095 193.823 382.476 194.116C382.887 194.38 383.092 194.717 383.092 195.128C383.092 195.304 382.96 195.583 382.696 195.964C382.461 196.345 382.153 196.727 381.772 197.108C381.42 197.46 381.053 197.739 380.672 197.944C380.584 197.973 380.496 198.017 380.408 198.076C380.32 198.105 380.232 198.149 380.144 198.208H380.188C379.924 198.56 379.66 198.736 379.396 198.736H379.044C378.927 198.941 378.545 199.161 377.9 199.396C377.255 199.66 376.624 199.792 376.008 199.792ZM378.296 189.188C378.56 189.188 378.795 189.144 379 189.056C379.235 188.968 379.455 188.865 379.66 188.748C380.364 188.249 380.819 187.604 381.024 186.812C381.229 186.02 381.156 185.419 380.804 185.008C380.745 184.92 380.672 184.861 380.584 184.832C380.496 184.773 380.393 184.744 380.276 184.744C379.953 184.744 379.587 184.847 379.176 185.052C378.795 185.257 378.413 185.551 378.032 185.932C377.651 186.313 377.299 186.768 376.976 187.296L376.404 188.22C376.463 188.191 376.507 188.176 376.536 188.176C376.595 188.147 376.639 188.132 376.668 188.132C376.932 188.132 377.108 188.22 377.196 188.396C377.284 188.572 377.387 188.748 377.504 188.924C377.651 189.1 377.915 189.188 378.296 189.188ZM392.727 198.604C391.583 198.135 390.791 197.372 390.351 196.316C389.911 195.26 389.794 193.852 389.999 192.092C390.058 191.183 390.029 190.581 389.911 190.288C389.794 189.965 389.574 189.657 389.251 189.364C389.163 189.247 388.958 189.056 388.635 188.792C388.313 188.499 388.166 188.279 388.195 188.132C388.166 187.927 388.21 187.677 388.327 187.384C388.445 187.061 388.547 186.885 388.635 186.856C388.841 186.768 389.046 186.665 389.251 186.548C389.486 186.431 389.662 186.401 389.779 186.46C389.897 186.46 390.073 186.533 390.307 186.68C390.571 186.827 390.703 186.959 390.703 187.076C390.821 187.281 390.997 187.193 391.231 186.812C391.495 186.431 391.774 185.947 392.067 185.36C392.361 184.891 392.727 184.451 393.167 184.04C393.607 183.629 394.047 183.263 394.487 182.94C394.957 182.588 395.353 182.324 395.675 182.148C395.822 182.089 396.101 182.001 396.511 181.884C396.951 181.767 397.406 181.679 397.875 181.62C398.345 181.532 398.697 181.503 398.931 181.532C399.459 181.561 400.017 181.781 400.603 182.192C401.19 182.603 401.645 182.984 401.967 183.336C402.349 183.6 402.598 184.011 402.715 184.568C402.862 185.096 402.921 185.653 402.891 186.24C402.862 186.827 402.745 187.325 402.539 187.736C402.451 188.029 402.143 188.44 401.615 188.968C401.087 189.496 400.501 190.009 399.855 190.508C399.239 190.977 398.711 191.3 398.271 191.476C397.89 191.564 397.435 191.637 396.907 191.696C396.379 191.725 395.881 191.725 395.411 191.696C394.971 191.637 394.663 191.564 394.487 191.476C394.282 191.359 394.106 191.403 393.959 191.608C393.842 191.784 393.739 192.283 393.651 193.104C393.622 193.427 393.622 193.705 393.651 193.94C393.71 194.175 393.769 194.351 393.827 194.468C394.033 194.82 394.238 195.084 394.443 195.26C394.649 195.407 395.03 195.451 395.587 195.392C396.145 195.333 396.702 194.996 397.259 194.38C397.846 193.735 398.374 193.221 398.843 192.84C398.961 192.635 399.21 192.503 399.591 192.444C400.002 192.356 400.486 192.385 401.043 192.532C401.366 192.737 401.513 193.06 401.483 193.5C401.483 193.94 401.249 194.585 400.779 195.436C400.691 195.641 400.442 195.949 400.031 196.36C399.65 196.741 399.225 197.137 398.755 197.548C398.315 197.929 397.949 198.208 397.655 198.384C396.775 198.853 395.91 199.073 395.059 199.044C394.209 199.015 393.431 198.868 392.727 198.604ZM395.983 188.704C396.423 188.587 396.79 188.469 397.083 188.352C397.406 188.235 397.714 188.044 398.007 187.78C398.301 187.516 398.638 187.12 399.019 186.592C399.137 186.269 399.195 185.991 399.195 185.756C399.225 185.521 399.21 185.375 399.151 185.316C398.917 185.081 398.653 185.008 398.359 185.096C398.095 185.155 397.802 185.301 397.479 185.536C397.274 185.624 396.981 185.815 396.599 186.108C396.247 186.372 395.895 186.68 395.543 187.032C395.221 187.355 394.957 187.663 394.751 187.956C394.575 188.22 394.546 188.381 394.663 188.44C394.605 188.557 394.766 188.631 395.147 188.66C395.558 188.689 395.837 188.704 395.983 188.704ZM410.283 197.504C410.165 197.504 409.887 197.401 409.447 197.196C409.007 196.961 408.728 196.785 408.611 196.668C408.405 196.433 408.273 196.184 408.215 195.92C408.156 195.627 408.127 195.069 408.127 194.248C408.127 193.309 408.317 192.253 408.699 191.08C409.08 189.877 409.725 188.279 410.635 186.284L412.439 182.632C412.585 182.427 412.717 182.251 412.835 182.104C412.952 181.928 413.084 181.767 413.231 181.62C413.289 181.62 413.363 181.62 413.451 181.62C413.568 181.62 413.656 181.635 413.715 181.664C413.979 181.693 414.389 181.855 414.947 182.148C415.533 182.441 415.885 182.881 416.003 183.468C416.003 183.849 415.944 184.304 415.827 184.832C415.709 185.331 415.357 185.991 414.771 186.812C414.536 187.105 414.301 187.531 414.067 188.088C413.861 188.645 413.671 189.173 413.495 189.672C413.465 189.731 413.377 189.877 413.231 190.112C413.113 190.317 412.996 190.537 412.879 190.772C412.761 190.977 412.703 191.109 412.703 191.168L412.527 191.564L414.419 189.716C415.739 188.396 416.853 187.457 417.763 186.9C418.672 186.343 419.435 186.108 420.051 186.196C420.696 186.284 421.209 186.651 421.591 187.296C421.796 187.589 421.943 187.912 422.031 188.264C422.119 188.587 422.177 188.968 422.207 189.408C422.236 189.848 422.221 190.405 422.163 191.08V193.588C422.72 193.441 423.145 193.324 423.439 193.236C423.732 193.119 424.025 193.016 424.319 192.928C424.553 192.869 424.788 192.811 425.023 192.752C425.287 192.693 425.609 192.649 425.991 192.62C425.961 193.001 425.8 193.471 425.507 194.028C425.213 194.585 424.847 195.143 424.407 195.7C423.996 196.257 423.541 196.727 423.043 197.108C422.573 197.489 422.133 197.68 421.723 197.68C421.341 197.68 420.901 197.563 420.403 197.328C419.904 197.064 419.479 196.565 419.127 195.832C419.009 195.451 418.892 195.011 418.775 194.512C418.657 194.013 418.599 193.485 418.599 192.928V190.992C418.599 190.816 418.584 190.699 418.555 190.64C418.555 190.552 418.54 190.508 418.511 190.508C418.393 190.508 418.012 190.816 417.367 191.432C416.751 192.048 416.12 192.693 415.475 193.368C414.125 194.776 412.996 195.817 412.087 196.492C411.207 197.167 410.605 197.504 410.283 197.504ZM450.902 207.8C450.081 208.123 449.216 208.064 448.306 207.624C447.426 207.213 446.664 206.553 446.018 205.644C445.901 205.468 445.725 205.145 445.49 204.676C445.256 204.236 445.021 203.752 444.786 203.224C444.581 202.696 444.42 202.241 444.302 201.86C444.214 201.479 444.214 201.259 444.302 201.2C444.42 200.877 444.684 200.687 445.094 200.628C445.505 200.569 445.916 200.584 446.326 200.672C446.737 200.789 446.972 200.936 447.03 201.112C447.118 201.317 447.206 201.523 447.294 201.728C447.382 201.963 447.485 202.168 447.602 202.344C447.749 202.549 447.881 202.725 447.998 202.872C448.321 203.371 448.673 203.708 449.054 203.884C449.436 204.089 449.729 204.119 449.934 203.972C450.433 203.591 450.8 203.136 451.034 202.608C451.298 202.109 451.636 201.215 452.046 199.924C452.369 198.839 452.648 197.9 452.882 197.108C453.117 196.316 453.366 195.583 453.63 194.908C453.718 194.556 453.821 194.263 453.938 194.028C454.085 193.764 454.217 193.573 454.334 193.456H454.598C453.953 193.867 453.41 194.277 452.97 194.688C452.53 195.099 451.929 195.465 451.166 195.788C450.99 195.993 450.55 196.125 449.846 196.184C449.172 196.213 448.512 196.125 447.866 195.92C447.456 195.685 447.118 195.451 446.854 195.216C446.62 194.952 446.414 194.659 446.238 194.336C446.092 194.013 445.93 193.632 445.754 193.192C445.549 192.752 445.52 192.033 445.666 191.036C445.813 190.039 446.077 189.041 446.458 188.044C446.81 187.311 447.324 186.519 447.998 185.668C448.673 184.817 449.392 184.055 450.154 183.38C450.917 182.676 451.606 182.236 452.222 182.06C452.457 181.943 452.868 181.811 453.454 181.664C454.041 181.488 454.598 181.473 455.126 181.62C455.625 181.679 456.006 181.796 456.27 181.972C456.534 182.119 456.96 182.441 457.546 182.94C457.928 183.321 458.397 183.82 458.954 184.436C459.512 185.023 459.864 185.521 460.01 185.932C460.216 186.372 460.26 186.856 460.142 187.384C460.025 187.883 459.82 188.323 459.526 188.704C459.262 189.085 458.984 189.467 458.69 189.848C458.397 190.229 458.177 190.757 458.03 191.432C457.884 192.312 457.605 193.309 457.194 194.424C456.784 195.509 456.461 196.521 456.226 197.46L455.522 200.188C454.789 202.681 453.982 204.485 453.102 205.6C452.222 206.744 451.489 207.477 450.902 207.8ZM449.978 192.664C450.565 192.635 451.064 192.576 451.474 192.488C451.914 192.371 452.325 192.136 452.706 191.784C453.088 191.403 453.528 190.831 454.026 190.068C454.525 189.364 454.877 188.719 455.082 188.132C455.288 187.545 455.361 186.885 455.302 186.152C455.273 185.683 455.141 185.375 454.906 185.228C454.672 185.081 454.364 185.037 453.982 185.096C453.425 185.184 452.926 185.419 452.486 185.8C452.046 186.152 451.533 186.709 450.946 187.472C450.506 188.059 450.14 188.763 449.846 189.584C449.553 190.464 449.421 191.168 449.45 191.696C449.509 192.224 449.685 192.547 449.978 192.664ZM465.995 198.252C465.761 198.017 465.585 197.665 465.467 197.196C465.379 196.727 465.35 196.272 465.379 195.832C465.409 195.363 465.482 195.011 465.599 194.776C465.599 194.541 465.629 194.365 465.687 194.248C465.775 194.101 465.805 193.969 465.775 193.852C465.746 193.735 465.775 193.529 465.863 193.236C465.951 192.943 466.039 192.664 466.127 192.4C466.333 191.931 466.567 191.329 466.831 190.596C467.095 189.833 467.359 189.071 467.623 188.308C467.887 187.516 468.107 186.841 468.283 186.284C468.459 185.697 468.562 185.345 468.591 185.228C468.591 184.876 468.826 184.685 469.295 184.656C469.647 184.539 470.073 184.685 470.571 185.096C471.07 185.507 471.466 185.947 471.759 186.416C471.994 186.651 472.082 186.959 472.023 187.34C471.965 187.721 471.774 188.264 471.451 188.968C471.334 189.203 471.187 189.599 471.011 190.156C470.865 190.684 470.762 191.124 470.703 191.476C470.586 191.711 470.439 192.048 470.263 192.488C470.117 192.899 469.985 193.295 469.867 193.676C469.809 193.823 469.75 194.101 469.691 194.512C469.633 194.893 469.559 195.289 469.471 195.7C469.383 196.111 469.266 196.433 469.119 196.668C468.855 197.871 468.386 198.575 467.711 198.78C467.066 198.985 466.494 198.809 465.995 198.252ZM470.747 180.608C470.425 180.373 470.175 180.095 469.999 179.772C469.853 179.42 469.765 179.112 469.735 178.848C469.735 178.584 469.765 178.423 469.823 178.364C470.117 178.041 470.366 177.616 470.571 177.088C470.806 176.56 471.055 176.076 471.319 175.636C471.378 175.548 471.451 175.431 471.539 175.284C471.657 175.108 471.774 175.005 471.891 174.976C472.243 174.741 472.727 174.756 473.343 175.02C473.989 175.284 474.458 175.651 474.751 176.12C475.015 176.677 475.089 177.249 474.971 177.836C474.883 178.423 474.575 179.039 474.047 179.684C473.607 180.271 473.05 180.652 472.375 180.828C471.701 180.975 471.158 180.901 470.747 180.608ZM481.936 198.384C481.701 198.443 481.393 198.472 481.012 198.472C480.631 198.443 480.293 198.399 480 198.34C479.736 198.252 479.604 198.164 479.604 198.076C479.604 197.929 479.531 197.856 479.384 197.856C479.384 197.856 479.223 197.739 478.9 197.504C478.577 197.24 478.284 197.049 478.02 196.932C477.756 196.521 477.58 196.052 477.492 195.524C477.433 194.967 477.609 193.999 478.02 192.62C478.049 191.681 478.313 190.699 478.812 189.672C479.311 188.616 479.941 187.589 480.704 186.592C481.467 185.595 482.259 184.715 483.08 183.952C483.901 183.16 484.635 182.573 485.28 182.192C485.691 181.781 486.233 181.561 486.908 181.532C487.612 181.503 488.228 181.635 488.756 181.928C489.049 182.075 489.372 182.368 489.724 182.808C490.076 183.248 490.413 183.717 490.736 184.216C491.059 184.685 491.308 185.111 491.484 185.492C491.572 185.815 491.645 186.108 491.704 186.372C491.792 186.607 491.851 186.9 491.88 187.252C491.909 187.604 491.88 188.132 491.792 188.836C491.645 189.364 491.513 189.907 491.396 190.464C491.308 190.992 491.264 191.535 491.264 192.092C491.205 192.649 491.264 193.045 491.44 193.28C491.645 193.515 491.939 193.529 492.32 193.324C492.672 193.148 493.039 193.133 493.42 193.28C493.801 193.397 494.065 193.632 494.212 193.984C494.388 194.307 494.344 194.732 494.08 195.26C493.904 195.641 493.625 196.008 493.244 196.36C492.863 196.712 492.437 197.005 491.968 197.24C491.499 197.445 491.044 197.548 490.604 197.548C490.281 197.548 489.959 197.431 489.636 197.196C489.313 196.932 489.02 196.58 488.756 196.14C488.492 195.7 488.272 195.216 488.096 194.688L487.832 193.676L486.248 195.128C485.867 195.539 485.485 195.92 485.104 196.272C484.752 196.595 484.532 196.829 484.444 196.976C484.297 197.24 484.004 197.475 483.564 197.68C483.153 197.885 482.611 198.12 481.936 198.384ZM483.124 194.16C483.623 193.867 484.048 193.515 484.4 193.104C484.781 192.693 485.148 192.239 485.5 191.74C485.852 191.212 486.233 190.655 486.644 190.068C487.143 189.393 487.495 188.851 487.7 188.44C487.935 188.029 488.111 187.589 488.228 187.12C488.111 186.797 487.949 186.46 487.744 186.108C487.539 185.727 487.333 185.521 487.128 185.492C486.717 185.492 486.219 185.741 485.632 186.24C485.075 186.739 484.459 187.457 483.784 188.396C483.667 188.543 483.52 188.777 483.344 189.1C483.168 189.423 482.992 189.731 482.816 190.024C482.669 190.288 482.567 190.464 482.508 190.552C482.42 190.669 482.288 190.948 482.112 191.388C481.965 191.799 481.833 192.224 481.716 192.664C481.599 193.075 481.54 193.368 481.54 193.544C481.54 193.72 481.555 193.911 481.584 194.116C481.643 194.321 481.789 194.453 482.024 194.512C482.259 194.571 482.625 194.453 483.124 194.16ZM513.623 198.824C513.183 198.824 512.758 198.692 512.347 198.428C511.936 198.135 511.599 197.739 511.335 197.24C511.071 196.712 510.939 196.096 510.939 195.392C510.939 194.952 511.012 194.336 511.159 193.544C511.335 192.723 511.584 191.696 511.907 190.464C511.966 190.053 512.01 189.789 512.039 189.672C512.098 189.555 512.127 189.437 512.127 189.32C512.127 189.261 512.112 189.217 512.083 189.188C512.083 189.129 512.054 189.1 511.995 189.1C511.76 189.1 511.438 189.261 511.027 189.584C510.646 189.877 510.206 190.229 509.707 190.64C509.619 190.699 509.516 190.772 509.399 190.86C509.311 190.948 509.208 191.036 509.091 191.124C509.003 191.212 508.9 191.3 508.783 191.388C508.49 191.564 508.035 191.901 507.419 192.4C506.832 192.899 506.216 193.427 505.571 193.984C504.955 194.541 504.412 195.011 503.943 195.392C503.708 195.568 503.503 195.715 503.327 195.832C503.18 195.949 503.078 196.008 503.019 196.008C502.96 196.008 502.726 195.935 502.315 195.788C501.934 195.612 501.552 195.377 501.171 195.084C500.819 194.761 500.643 194.395 500.643 193.984C500.643 193.72 500.746 193.192 500.951 192.4C501.186 191.608 501.508 190.669 501.919 189.584C502.33 188.499 502.799 187.399 503.327 186.284C503.444 186.02 503.532 185.668 503.591 185.228C503.65 184.788 503.708 184.363 503.767 183.952C503.855 183.512 504.002 183.189 504.207 182.984C504.295 182.837 504.398 182.735 504.515 182.676C504.662 182.588 504.808 182.544 504.955 182.544C505.248 182.544 505.527 182.617 505.791 182.764C506.055 182.881 506.304 183.087 506.539 183.38C506.979 183.849 507.214 184.407 507.243 185.052C507.302 185.668 507.258 186.269 507.111 186.856C506.964 187.443 506.803 187.927 506.627 188.308C506.451 188.66 506.363 188.807 506.363 188.748C506.48 188.689 506.642 188.543 506.847 188.308C507.082 188.073 507.478 187.795 508.035 187.472C508.798 186.885 509.384 186.475 509.795 186.24C510.206 185.976 510.514 185.785 510.719 185.668C510.954 185.551 511.159 185.419 511.335 185.272C511.482 185.155 511.584 185.081 511.643 185.052C511.731 185.023 511.775 185.008 511.775 185.008C511.863 185.008 512.01 184.949 512.215 184.832C512.45 184.715 512.67 184.656 512.875 184.656C513.168 184.656 513.476 184.729 513.799 184.876C514.122 184.993 514.4 185.169 514.635 185.404C514.87 185.609 514.987 185.829 514.987 186.064C514.987 186.152 515.016 186.225 515.075 186.284C515.134 186.343 515.192 186.416 515.251 186.504C515.398 186.68 515.559 186.929 515.735 187.252C515.94 187.545 516.043 188.029 516.043 188.704C516.043 189.173 515.94 189.863 515.735 190.772C515.53 191.681 515.31 192.576 515.075 193.456C514.84 194.365 514.723 195.099 514.723 195.656C514.752 196.184 514.811 196.595 514.899 196.888C514.987 197.152 515.031 197.372 515.031 197.548C515.031 197.783 514.914 198.061 514.679 198.384C514.444 198.677 514.092 198.824 513.623 198.824ZM527.394 201.64C525.957 201.611 525.033 201.2 524.622 200.408C524.241 199.645 524.138 198.677 524.314 197.504C524.49 196.947 524.593 196.448 524.622 196.008C524.681 195.539 524.813 195.245 525.018 195.128C525.018 195.128 525.033 195.084 525.062 194.996C525.121 194.908 525.106 194.82 525.018 194.732C525.018 194.351 525.15 193.823 525.414 193.148C525.473 192.972 525.546 192.767 525.634 192.532C525.752 192.268 525.81 192.136 525.81 192.136C525.664 191.901 525.664 191.711 525.81 191.564C525.957 191.417 526.104 191.285 526.25 191.168C526.426 191.021 526.441 190.86 526.294 190.684C526.236 190.567 526.309 190.303 526.514 189.892C526.72 189.452 526.954 188.997 527.218 188.528C527.482 188.059 527.658 187.692 527.746 187.428C527.746 187.369 527.82 187.164 527.966 186.812C528.113 186.46 528.289 186.049 528.494 185.58C528.7 185.111 528.89 184.685 529.066 184.304C529.272 183.923 529.404 183.673 529.462 183.556C529.756 183.409 529.638 183.307 529.11 183.248C528.582 183.189 528.025 183.175 527.438 183.204C526.529 183.175 525.796 183.131 525.238 183.072C524.71 183.013 524.27 182.881 523.918 182.676C523.566 182.265 523.522 181.781 523.786 181.224C524.05 180.637 524.476 180.329 525.062 180.3C525.444 180.271 525.737 180.256 525.942 180.256C526.177 180.256 526.47 180.241 526.822 180.212C527.204 180.153 527.79 180.08 528.582 179.992L530.826 179.816L530.958 179.068C531.193 178.687 531.354 178.437 531.442 178.32C531.53 178.203 531.589 178.085 531.618 177.968C531.648 177.821 531.692 177.572 531.75 177.22C531.75 177.22 531.882 176.985 532.146 176.516C532.41 176.017 532.572 175.504 532.63 174.976C532.982 174.389 533.29 173.861 533.554 173.392C533.818 172.893 533.98 172.585 534.038 172.468C534.537 171.735 535.021 171.339 535.49 171.28C535.989 171.221 536.458 171.339 536.898 171.632C537.162 171.779 537.412 171.969 537.646 172.204C537.881 172.409 538.028 172.688 538.086 173.04C538.145 173.363 538.013 173.788 537.69 174.316C537.632 174.433 537.544 174.653 537.426 174.976C537.309 175.269 537.221 175.519 537.162 175.724C536.986 175.929 536.766 176.267 536.502 176.736C536.268 177.176 536.106 177.631 536.018 178.1C535.784 178.599 535.637 178.907 535.578 179.024C535.52 179.141 535.432 179.2 535.314 179.2C535.373 179.493 535.549 179.64 535.842 179.64C536.136 179.611 536.62 179.581 537.294 179.552C537.852 179.493 538.233 179.435 538.438 179.376C538.673 179.288 538.937 179.317 539.23 179.464C539.377 179.669 539.45 179.977 539.45 180.388C539.48 180.769 539.436 181.151 539.318 181.532C539.201 181.884 539.04 182.104 538.834 182.192C538.688 182.192 538.38 182.28 537.91 182.456C537.47 182.603 536.913 182.691 536.238 182.72L533.906 182.94L533.158 184.436C532.953 184.817 532.777 185.169 532.63 185.492C532.484 185.785 532.381 185.961 532.322 186.02C532.322 186.196 532.22 186.46 532.014 186.812C531.838 187.164 531.648 187.545 531.442 187.956C531.266 188.455 531.061 188.909 530.826 189.32C530.621 189.731 530.518 189.936 530.518 189.936C530.401 189.936 530.342 190.024 530.342 190.2C530.489 190.552 530.445 190.816 530.21 190.992C530.064 191.08 529.932 191.212 529.814 191.388C529.726 191.535 529.682 191.608 529.682 191.608C529.8 191.725 529.814 191.872 529.726 192.048C529.668 192.224 529.58 192.415 529.462 192.62C529.462 192.855 529.389 193.192 529.242 193.632C529.125 194.072 528.993 194.483 528.846 194.864C528.876 195.392 528.905 195.729 528.934 195.876C528.964 196.023 529.037 196.081 529.154 196.052C529.301 196.081 529.506 196.081 529.77 196.052C530.034 196.023 530.225 196.008 530.342 196.008C530.782 195.803 530.577 196.829 529.726 199.088C529.257 199.821 528.788 200.423 528.318 200.892C527.849 201.391 527.541 201.64 527.394 201.64ZM539.409 202.784C539.086 202.784 538.807 202.711 538.573 202.564C538.367 202.417 538.206 202.241 538.089 202.036C538.089 201.831 538.147 201.655 538.265 201.508C538.382 201.361 538.543 201.185 538.749 200.98C539.071 200.687 539.379 200.32 539.673 199.88C539.966 199.469 540.23 199.044 540.465 198.604C540.729 198.164 540.934 197.812 541.081 197.548C541.198 197.225 541.315 196.844 541.433 196.404C541.55 195.964 541.667 195.48 541.785 194.952C541.785 194.717 541.785 194.512 541.785 194.336C541.814 194.131 541.887 193.969 542.005 193.852C542.239 193.647 542.518 193.471 542.841 193.324C543.193 193.148 543.53 193.207 543.853 193.5C544.205 193.764 544.469 194.453 544.645 195.568C544.762 196.213 544.762 196.8 544.645 197.328C544.527 197.856 544.278 198.501 543.897 199.264C543.838 199.469 543.618 199.807 543.237 200.276C542.885 200.745 542.518 201.171 542.137 201.552C541.785 201.963 541.565 202.168 541.477 202.168C541.359 202.168 541.257 202.197 541.169 202.256C541.081 202.344 540.963 202.447 540.817 202.564C540.699 202.681 540.523 202.74 540.289 202.74C540.054 202.769 539.761 202.784 539.409 202.784ZM570.932 199.044C570.609 198.985 570.257 198.795 569.876 198.472C569.494 198.12 569.142 197.739 568.82 197.328C568.526 196.888 568.336 196.521 568.248 196.228C568.248 196.169 568.204 196.096 568.116 196.008C568.057 195.92 568.028 195.876 568.028 195.876C567.91 195.788 567.837 195.407 567.808 194.732C567.808 194.028 567.852 193.251 567.94 192.4C568.028 191.549 568.13 190.875 568.248 190.376C568.394 189.907 568.614 189.276 568.908 188.484C569.201 187.663 569.45 186.929 569.656 186.284L570.844 183.732L569.084 183.248C568.878 183.189 568.702 183.072 568.556 182.896C568.438 182.72 568.38 182.573 568.38 182.456C568.38 182.221 568.512 181.884 568.776 181.444C569.04 181.004 569.23 180.784 569.348 180.784C569.494 180.813 569.758 180.828 570.14 180.828C570.55 180.828 570.946 180.813 571.328 180.784C571.709 180.755 571.944 180.725 572.032 180.696C572.149 180.637 572.266 180.564 572.384 180.476C572.501 180.359 572.589 180.197 572.648 179.992C572.794 179.669 572.926 179.42 573.044 179.244C573.161 179.068 573.322 178.804 573.528 178.452C573.733 178.071 573.894 177.748 574.012 177.484C574.158 177.22 574.378 176.853 574.672 176.384C574.818 176.179 574.98 175.929 575.156 175.636C575.332 175.343 575.552 175.093 575.816 174.888C576.08 174.653 576.505 174.492 577.092 174.404C577.708 174.287 578.236 174.419 578.676 174.8C578.91 175.093 579.042 175.372 579.072 175.636C579.101 175.9 578.984 176.237 578.72 176.648C578.485 177.147 578.206 177.601 577.884 178.012C577.59 178.393 577.312 178.833 577.048 179.332C576.578 179.977 576.49 180.344 576.784 180.432C577.077 180.52 577.898 180.461 579.248 180.256C580.098 180.109 580.714 180.197 581.096 180.52C581.477 180.843 581.697 181.253 581.756 181.752C581.844 182.456 581.77 182.881 581.536 183.028C581.301 183.175 580.626 183.248 579.512 183.248C578.808 183.365 578.206 183.439 577.708 183.468C577.209 183.468 576.842 183.468 576.608 183.468C576.226 183.497 575.977 183.512 575.86 183.512C575.742 183.512 575.566 183.541 575.332 183.6C575.097 183.659 574.921 183.761 574.804 183.908C574.716 184.025 574.613 184.201 574.496 184.436C574.378 184.553 574.202 184.861 573.968 185.36C573.733 185.859 573.44 186.401 573.088 186.988C572.677 188.22 572.325 189.408 572.032 190.552C571.768 191.667 571.533 192.781 571.328 193.896C571.24 194.453 571.254 194.864 571.372 195.128C571.518 195.363 571.9 195.509 572.516 195.568C572.838 195.597 573.308 195.597 573.924 195.568C574.54 195.509 575.053 195.421 575.464 195.304C575.786 195.157 576.124 195.011 576.476 194.864C576.828 194.688 577.15 194.512 577.444 194.336C577.708 194.189 577.972 194.043 578.236 193.896C578.5 193.72 578.632 193.632 578.632 193.632C578.778 193.397 578.984 193.441 579.248 193.764C579.541 194.057 579.746 194.38 579.864 194.732C579.864 195.084 579.79 195.509 579.644 196.008C579.497 196.477 578.954 196.976 578.016 197.504C576.696 198.325 575.376 198.824 574.056 199C572.736 199.176 571.694 199.191 570.932 199.044ZM600.018 198.296C599.285 198.648 598.566 198.78 597.862 198.692C597.187 198.575 596.615 198.208 596.146 197.592C595.706 196.947 595.486 196.008 595.486 194.776C595.486 194.453 595.501 194.072 595.53 193.632C595.589 193.163 595.677 192.679 595.794 192.18C595.911 191.652 596.058 191.124 596.234 190.596C596.322 190.332 596.439 190.068 596.586 189.804C596.762 189.54 596.791 189.408 596.674 189.408C596.557 189.408 596.41 189.481 596.234 189.628C596.087 189.775 595.97 189.892 595.882 189.98C595.149 190.625 594.474 191.3 593.858 192.004C593.271 192.679 592.743 193.353 592.274 194.028C591.834 194.673 591.482 195.275 591.218 195.832C590.983 196.389 590.866 196.859 590.866 197.24C590.866 197.68 590.646 197.988 590.206 198.164C589.766 198.34 589.385 198.325 589.062 198.12C588.505 197.797 587.991 197.299 587.522 196.624C587.082 195.949 586.906 195.069 586.994 193.984C587.082 192.605 587.199 191.373 587.346 190.288C587.493 189.203 587.727 188.029 588.05 186.768C588.402 185.477 588.857 183.908 589.414 182.06C589.795 181.033 590.147 180.065 590.47 179.156C590.793 178.217 591.071 177.425 591.306 176.78C591.57 176.135 591.731 175.739 591.79 175.592C591.937 175.445 592.127 175.093 592.362 174.536C592.597 173.949 592.802 173.363 592.978 172.776C593.183 172.189 593.286 171.837 593.286 171.72C593.286 171.485 593.33 171.28 593.418 171.104C593.535 170.928 593.638 170.767 593.726 170.62C593.902 170.209 594.049 169.931 594.166 169.784C594.313 169.608 594.445 169.52 594.562 169.52C594.709 169.52 594.943 169.593 595.266 169.74C595.618 169.887 595.941 170.077 596.234 170.312C596.557 170.517 596.747 170.737 596.806 170.972C597.011 171.383 597.129 171.808 597.158 172.248C597.187 172.659 597.085 173.172 596.85 173.788C596.615 174.404 596.205 175.255 595.618 176.34C595.149 177.249 594.723 178.188 594.342 179.156C593.961 180.124 593.594 181.136 593.242 182.192C593.095 182.632 592.905 183.219 592.67 183.952C592.435 184.656 592.201 185.389 591.966 186.152C591.761 186.885 591.585 187.545 591.438 188.132C591.291 188.719 591.218 189.1 591.218 189.276C591.218 189.481 591.335 189.584 591.57 189.584C591.805 189.555 592.039 189.379 592.274 189.056C592.391 188.821 592.582 188.601 592.846 188.396C593.11 188.161 593.345 187.927 593.55 187.692C593.785 187.399 594.063 187.061 594.386 186.68C594.738 186.269 595.105 185.888 595.486 185.536C595.897 185.155 596.263 184.847 596.586 184.612C596.938 184.377 597.231 184.26 597.466 184.26C598.023 184.26 598.493 184.421 598.874 184.744C599.255 185.067 599.578 185.565 599.842 186.24C599.93 186.328 600.018 186.445 600.106 186.592C600.194 186.709 600.253 186.797 600.282 186.856C600.429 186.973 600.502 187.443 600.502 188.264C600.502 189.056 600.267 190.156 599.798 191.564C599.534 192.649 599.373 193.456 599.314 193.984C599.285 194.512 599.387 194.776 599.622 194.776C599.622 194.776 599.769 194.688 600.062 194.512C600.385 194.336 600.722 194.145 601.074 193.94C601.925 193.383 602.541 193.207 602.922 193.412C603.303 193.617 603.494 193.881 603.494 194.204C603.494 194.468 603.391 194.776 603.186 195.128C603.01 195.48 602.922 195.715 602.922 195.832C602.922 195.832 602.922 195.847 602.922 195.876C602.922 195.876 602.922 195.935 602.922 196.052C602.922 196.111 602.731 196.316 602.35 196.668C601.969 197.02 601.543 197.372 601.074 197.724C600.634 198.047 600.282 198.237 600.018 198.296ZM618.273 198.12C617.393 198.619 616.455 198.912 615.457 199C614.489 199.059 613.58 198.927 612.729 198.604C611.879 198.252 611.189 197.739 610.661 197.064C610.368 196.683 610.089 196.081 609.825 195.26C609.561 194.409 609.517 193.265 609.693 191.828C609.869 190.479 610.28 189.115 610.925 187.736C611.6 186.357 612.421 185.14 613.389 184.084C614.357 183.028 615.413 182.309 616.557 181.928C616.968 181.781 617.379 181.679 617.789 181.62C618.229 181.532 618.801 181.517 619.505 181.576C620.18 181.664 620.781 181.84 621.309 182.104C621.837 182.339 622.219 182.603 622.453 182.896C622.923 183.365 623.231 183.82 623.377 184.26C623.524 184.7 623.583 185.125 623.553 185.536C623.407 186.475 622.981 187.487 622.277 188.572C621.603 189.657 620.649 190.464 619.417 190.992C618.919 191.197 618.332 191.329 617.657 191.388C616.983 191.447 616.059 191.359 614.885 191.124C614.181 190.977 613.712 191.051 613.477 191.344C613.272 191.637 613.184 192.209 613.213 193.06C613.272 193.588 613.389 194.057 613.565 194.468C613.771 194.849 614.137 195.113 614.665 195.26C615.34 195.377 615.824 195.392 616.117 195.304C616.411 195.187 616.777 195.025 617.217 194.82C617.452 194.673 617.672 194.512 617.877 194.336C618.112 194.16 618.332 193.984 618.537 193.808C618.772 193.632 618.963 193.5 619.109 193.412C619.256 193.295 619.403 193.221 619.549 193.192C619.696 193.163 619.843 193.148 619.989 193.148C620.312 193.177 620.62 193.353 620.913 193.676C621.207 193.999 621.397 194.307 621.485 194.6C621.485 194.835 621.339 195.172 621.045 195.612C620.752 196.023 620.356 196.463 619.857 196.932C619.388 197.372 618.86 197.768 618.273 198.12ZM617.701 188.308C617.907 188.22 618.2 188.015 618.581 187.692C618.992 187.369 619.359 187.032 619.681 186.68C620.004 186.299 620.165 186.005 620.165 185.8C620.165 185.477 619.945 185.199 619.505 184.964C619.095 184.729 618.552 184.685 617.877 184.832C617.643 184.891 617.364 185.052 617.041 185.316C616.719 185.58 616.396 185.888 616.073 186.24C615.751 186.563 615.472 186.885 615.237 187.208C615.003 187.501 614.841 187.736 614.753 187.912C614.871 188.059 615.105 188.176 615.457 188.264C615.809 188.352 616.191 188.396 616.601 188.396C617.041 188.396 617.408 188.367 617.701 188.308ZM644.505 203.004C644.505 203.004 644.358 202.945 644.065 202.828C643.771 202.74 643.449 202.652 643.097 202.564C642.774 202.476 642.525 202.432 642.349 202.432C641.879 202.315 641.542 202.051 641.337 201.64C641.131 201.259 641.087 200.833 641.205 200.364C641.322 200.247 641.41 199.997 641.469 199.616C641.527 199.235 641.557 198.927 641.557 198.692C641.674 198.457 641.747 198.296 641.777 198.208C641.806 198.091 641.879 197.797 641.997 197.328C642.085 196.829 642.231 196.14 642.437 195.26C642.671 194.351 642.921 193.383 643.185 192.356C643.478 191.329 643.757 190.347 644.021 189.408C644.285 188.469 644.519 187.677 644.725 187.032C644.959 186.387 645.121 186.02 645.209 185.932C645.209 185.932 645.209 185.888 645.209 185.8C645.209 185.683 645.209 185.565 645.209 185.448C645.209 185.448 645.223 185.316 645.253 185.052C645.311 184.759 645.458 184.436 645.693 184.084C645.81 183.761 645.913 183.409 646.001 183.028C646.089 182.647 646.133 182.397 646.133 182.28C646.25 182.133 646.411 181.781 646.617 181.224C646.851 180.637 647.071 180.065 647.277 179.508C647.453 179.039 647.643 178.54 647.849 178.012C648.083 177.484 648.274 177.029 648.421 176.648C648.597 176.267 648.685 176.076 648.685 176.076C648.685 175.959 648.685 175.9 648.685 175.9C648.685 175.871 648.685 175.856 648.685 175.856C648.802 175.739 649.081 175.152 649.521 174.096C649.99 173.011 650.621 171.617 651.413 169.916C651.53 169.681 651.706 169.315 651.941 168.816C652.175 168.288 652.293 167.965 652.293 167.848C652.733 167.408 653.158 167.261 653.569 167.408C654.009 167.525 654.39 167.775 654.713 168.156C655.065 168.537 655.314 168.889 655.461 169.212L655.901 169.916L654.273 173.084C653.803 173.905 653.393 174.653 653.041 175.328C652.718 176.003 652.557 176.399 652.557 176.516C652.557 176.516 652.483 176.692 652.337 177.044C652.219 177.396 652.073 177.851 651.897 178.408C651.721 178.936 651.545 179.464 651.369 179.992C651.046 180.901 650.738 181.664 650.445 182.28C650.151 182.867 650.005 183.219 650.005 183.336C650.005 183.277 650.298 183.233 650.885 183.204C651.501 183.175 652.263 183.16 653.173 183.16C654.082 183.16 655.006 183.16 655.945 183.16C656.913 183.131 657.778 183.116 658.541 183.116C659.303 183.087 659.831 183.043 660.125 182.984L662.413 182.764L663.645 178.848C663.879 178.027 664.187 177.029 664.569 175.856C664.95 174.683 665.287 173.685 665.581 172.864C666.05 171.515 666.549 170.576 667.077 170.048C667.605 169.491 668.045 169.212 668.397 169.212C668.485 169.212 668.646 169.3 668.881 169.476C669.145 169.623 669.409 169.799 669.673 170.004C669.937 170.209 670.098 170.4 670.157 170.576C670.509 170.899 670.67 171.265 670.641 171.676C670.641 172.087 670.406 172.629 669.937 173.304C669.467 174.096 669.071 174.961 668.749 175.9C668.455 176.809 668.191 177.557 667.957 178.144C667.957 178.496 667.913 178.789 667.825 179.024C667.737 179.229 667.634 179.391 667.517 179.508C667.458 179.567 667.341 179.787 667.165 180.168C666.989 180.549 666.827 180.931 666.681 181.312C666.534 181.693 666.461 181.928 666.461 182.016C666.461 182.221 666.417 182.471 666.329 182.764C666.241 183.057 666.138 183.263 666.021 183.38C665.962 183.556 665.83 183.996 665.625 184.7C665.419 185.404 665.185 186.24 664.921 187.208C664.657 188.147 664.378 189.071 664.085 189.98C663.791 190.86 663.527 191.593 663.293 192.18C663.293 192.385 663.219 192.649 663.073 192.972C662.926 193.265 662.853 193.529 662.853 193.764C662.735 194.116 662.589 194.556 662.413 195.084C662.237 195.612 662.149 195.949 662.149 196.096C662.002 196.771 661.841 197.548 661.665 198.428C661.518 199.308 661.386 200.085 661.269 200.76C661.181 201.435 661.137 201.816 661.137 201.904C660.374 201.992 659.802 201.889 659.421 201.596C659.039 201.303 658.687 201.097 658.365 200.98C657.807 200.657 657.47 200.247 657.353 199.748C657.265 199.279 657.382 198.707 657.705 198.032C657.851 197.797 658.027 197.225 658.233 196.316C658.467 195.377 658.702 194.453 658.937 193.544C659.113 193.104 659.303 192.547 659.509 191.872C659.714 191.197 659.905 190.537 660.081 189.892C660.286 189.217 660.462 188.645 660.609 188.176C660.755 187.707 660.858 187.443 660.917 187.384C660.917 187.267 660.917 187.164 660.917 187.076C660.917 186.988 660.917 186.944 660.917 186.944C660.858 186.885 660.565 186.841 660.037 186.812C659.509 186.753 658.834 186.739 658.013 186.768C657.221 186.768 656.355 186.797 655.417 186.856C654.478 186.885 653.583 186.959 652.733 187.076C652.41 187.076 651.941 187.076 651.325 187.076C650.738 187.076 650.327 187.076 650.093 187.076C649.77 187.076 649.491 187.076 649.257 187.076C649.051 187.076 648.949 187.076 648.949 187.076C648.89 187.164 648.773 187.457 648.597 187.956C648.45 188.455 648.259 189.056 648.025 189.76C647.819 190.464 647.599 191.183 647.365 191.916C647.159 192.649 646.969 193.324 646.793 193.94C646.646 194.527 646.543 194.952 646.485 195.216C646.367 195.744 646.206 196.404 646.001 197.196C645.825 197.988 645.619 198.795 645.385 199.616C645.179 200.467 644.989 201.2 644.813 201.816C644.666 202.432 644.563 202.828 644.505 203.004ZM681.65 199.264C681.445 199.381 681.166 199.337 680.814 199.132C680.492 198.927 680.169 198.619 679.846 198.208C679.641 197.856 679.48 197.504 679.362 197.152C679.274 196.771 679.23 196.213 679.23 195.48C679.26 194.893 679.26 194.497 679.23 194.292C679.23 194.057 679.098 194.043 678.834 194.248C678.6 194.424 678.116 194.864 677.382 195.568C676.649 196.301 675.945 196.932 675.27 197.46C674.625 197.959 674.097 198.193 673.686 198.164C673.481 198.164 673.202 198.032 672.85 197.768C672.498 197.504 672.161 197.181 671.838 196.8C671.516 196.389 671.281 196.008 671.134 195.656C670.958 194.952 670.944 194.043 671.09 192.928C671.266 191.813 671.545 190.655 671.926 189.452C672.308 188.22 672.733 187.076 673.202 186.02C673.701 184.935 674.185 184.069 674.654 183.424C675.153 182.749 675.578 182.427 675.93 182.456C676.429 182.515 676.854 182.764 677.206 183.204C677.588 183.615 677.881 184.069 678.086 184.568C678.204 184.773 678.248 184.949 678.218 185.096C678.218 185.243 678.101 185.419 677.866 185.624C677.602 185.976 677.28 186.489 676.898 187.164C676.546 187.809 676.18 188.513 675.798 189.276C675.446 190.039 675.124 190.772 674.83 191.476C674.566 192.151 674.376 192.708 674.258 193.148C674.141 193.588 674.141 193.808 674.258 193.808C674.669 193.808 675.05 193.705 675.402 193.5C675.754 193.265 676.194 192.899 676.722 192.4C677.338 191.784 677.881 191.168 678.35 190.552C678.82 189.907 679.304 189.173 679.802 188.352C680.184 187.765 680.58 187.12 680.99 186.416C681.43 185.712 681.709 185.213 681.826 184.92C682.237 184.157 682.545 183.585 682.75 183.204C682.956 182.823 683.205 182.588 683.498 182.5C683.645 182.5 683.85 182.5 684.114 182.5C684.378 182.5 684.51 182.5 684.51 182.5C684.686 182.529 684.892 182.661 685.126 182.896C685.361 183.013 685.596 183.175 685.83 183.38C686.094 183.585 686.226 183.761 686.226 183.908C686.109 184.201 685.918 184.641 685.654 185.228C685.42 185.785 685.244 186.196 685.126 186.46C684.569 187.721 684.026 188.968 683.498 190.2C683 191.403 682.633 192.635 682.398 193.896C682.34 194.307 682.325 194.791 682.354 195.348C682.413 195.876 682.501 196.257 682.618 196.492C682.706 196.668 682.809 196.873 682.926 197.108C683.073 197.313 683.234 197.489 683.41 197.636C683.674 197.812 683.66 198.032 683.366 198.296C683.102 198.56 682.765 198.795 682.354 199C681.973 199.176 681.738 199.264 681.65 199.264ZM691.072 200.32C690.69 200.173 690.382 199.939 690.148 199.616C689.913 199.323 689.781 198.883 689.752 198.296C689.722 197.915 689.737 197.357 689.796 196.624C689.854 195.861 689.957 195.099 690.104 194.336C690.104 194.277 690.104 194.219 690.104 194.16C690.133 194.072 690.148 194.013 690.148 193.984C690.177 193.867 690.206 193.691 690.236 193.456C690.265 193.192 690.294 192.987 690.324 192.84C690.382 192.664 690.412 192.649 690.412 192.796L690.676 191.608C690.793 191.08 690.925 190.537 691.072 189.98C691.218 189.423 691.35 188.939 691.468 188.528C691.614 188.088 691.702 187.839 691.732 187.78C691.732 187.78 691.776 187.619 691.864 187.296C691.981 186.944 692.098 186.592 692.216 186.24C692.685 184.773 693.125 183.556 693.536 182.588C693.976 181.62 694.357 180.916 694.68 180.476C694.709 180.388 694.753 180.285 694.812 180.168C694.87 180.021 694.914 179.904 694.944 179.816C694.944 179.493 694.958 179.259 694.988 179.112C695.046 178.965 695.12 178.833 695.208 178.716C695.266 178.599 695.354 178.452 695.472 178.276C695.589 178.071 695.721 177.821 695.868 177.528L696.044 177.044C696.22 176.663 696.44 176.223 696.704 175.724C696.968 175.196 697.158 174.8 697.276 174.536C697.364 174.272 697.54 173.964 697.804 173.612C698.068 173.231 698.361 172.981 698.684 172.864L698.64 172.82C698.786 172.556 699.065 172.351 699.476 172.204C699.886 172.028 700.224 171.94 700.488 171.94C700.898 171.94 701.206 172.057 701.412 172.292C701.646 172.527 701.764 172.849 701.764 173.26C701.764 173.7 701.749 174.023 701.72 174.228C701.72 174.404 701.617 174.609 701.412 174.844H701.456C701.514 174.785 701.5 174.873 701.412 175.108C701.324 175.343 701.25 175.504 701.192 175.592C701.133 175.739 701.06 175.9 700.972 176.076C700.913 176.252 700.84 176.384 700.752 176.472C700.664 176.589 700.429 177 700.048 177.704C699.666 178.379 699.241 179.185 698.772 180.124C698.302 181.033 697.848 181.928 697.408 182.808C696.997 183.659 696.704 184.319 696.528 184.788L696.308 185.448C696.278 185.565 696.264 185.653 696.264 185.712C696.176 185.917 696.088 186.123 696 186.328C695.912 186.533 695.824 186.709 695.736 186.856L695.032 189.584L694.856 190.508L694.46 191.52L694.196 192.356C694.137 192.532 694.093 192.723 694.064 192.928C694.034 193.133 693.976 193.28 693.888 193.368C693.888 193.397 693.873 193.441 693.844 193.5C693.844 193.529 693.844 193.559 693.844 193.588C693.726 194.057 693.521 194.717 693.228 195.568C692.964 196.419 692.802 197.357 692.744 198.384C692.744 198.413 692.729 198.443 692.7 198.472C692.7 198.501 692.7 198.531 692.7 198.56C692.612 199.176 692.421 199.645 692.128 199.968C691.864 200.32 691.512 200.437 691.072 200.32ZM703.336 199.132C703.101 199.044 702.793 198.809 702.412 198.428C702.031 198.017 701.693 197.577 701.4 197.108C701.107 196.609 700.96 196.199 700.96 195.876C701.107 195.553 701.297 194.981 701.532 194.16C701.796 193.339 702.089 192.415 702.412 191.388C702.647 191.065 702.823 190.699 702.94 190.288C703.087 189.848 703.219 189.452 703.336 189.1C703.571 188.572 703.835 187.971 704.128 187.296C704.421 186.621 704.7 185.932 704.964 185.228C705.257 184.524 705.521 183.908 705.756 183.38C706.167 182.5 706.504 181.737 706.768 181.092C707.061 180.417 707.34 179.757 707.604 179.112C707.897 178.467 708.205 177.748 708.528 176.956C708.968 176.047 709.364 175.152 709.716 174.272C710.097 173.363 710.42 172.556 710.684 171.852C710.977 171.148 711.153 170.649 711.212 170.356C711.183 170.121 711.212 169.96 711.3 169.872C711.388 169.755 711.505 169.681 711.652 169.652C711.799 169.564 712.033 169.505 712.356 169.476C712.679 169.447 712.899 169.432 713.016 169.432C713.368 169.491 713.72 169.784 714.072 170.312C714.453 170.811 714.644 171.236 714.644 171.588C714.644 172.057 714.409 172.937 713.94 174.228C713.5 175.489 712.855 176.985 712.004 178.716C710.977 180.916 710.2 182.617 709.672 183.82C709.173 185.023 708.836 185.873 708.66 186.372C708.484 186.871 708.411 187.193 708.44 187.34C708.44 187.34 708.557 187.296 708.792 187.208C709.027 187.12 709.379 186.915 709.848 186.592C710.171 186.387 710.537 186.123 710.948 185.8C711.359 185.477 711.755 185.184 712.136 184.92C712.547 184.656 712.869 184.495 713.104 184.436C713.251 184.319 713.456 184.172 713.72 183.996C713.984 183.82 714.233 183.659 714.468 183.512C715.025 183.101 715.465 182.969 715.788 183.116C716.111 183.263 716.404 183.512 716.668 183.864C716.991 184.245 717.108 184.656 717.02 185.096C716.961 185.507 716.507 186.049 715.656 186.724C715.011 187.193 714.321 187.648 713.588 188.088C712.855 188.499 712.18 188.865 711.564 189.188C710.977 189.511 710.552 189.775 710.288 189.98C710.288 189.98 710.42 190.171 710.684 190.552C710.948 190.933 711.197 191.3 711.432 191.652C711.667 192.121 711.96 192.723 712.312 193.456C712.664 194.16 712.928 194.659 713.104 194.952C713.427 195.421 713.749 195.729 714.072 195.876C714.424 196.023 714.937 195.979 715.612 195.744C716.052 195.627 716.419 195.641 716.712 195.788C717.035 195.905 717.299 196.111 717.504 196.404C717.621 196.639 717.68 196.873 717.68 197.108C717.68 197.343 717.489 197.621 717.108 197.944C716.287 198.501 715.48 198.971 714.688 199.352C713.925 199.763 713.192 199.733 712.488 199.264C711.872 198.795 711.285 198.267 710.728 197.68C710.2 197.064 709.599 196.316 708.924 195.436C708.924 195.319 708.836 195.069 708.66 194.688C708.484 194.307 708.367 194.087 708.308 194.028C708.191 193.793 708.059 193.588 707.912 193.412C707.795 193.207 707.736 193.104 707.736 193.104C707.648 192.781 707.531 192.517 707.384 192.312C707.267 192.107 707.105 191.989 706.9 191.96C706.783 192.048 706.651 192.195 706.504 192.4C706.357 192.605 706.211 192.855 706.064 193.148C705.888 193.588 705.712 194.028 705.536 194.468C705.36 194.879 705.213 195.333 705.096 195.832C704.979 196.301 704.905 196.873 704.876 197.548C704.905 197.871 704.773 198.223 704.48 198.604C704.187 198.956 703.805 199.132 703.336 199.132ZM726.437 191.916C725.616 192.063 724.97 191.725 724.501 190.904C724.032 190.053 724.061 188.572 724.589 186.46C724.765 186.108 724.912 185.771 725.029 185.448C725.146 185.096 725.205 184.817 725.205 184.612C725.322 184.231 725.469 183.791 725.645 183.292C725.85 182.764 726.056 182.28 726.261 181.84C726.466 181.371 726.613 181.063 726.701 180.916C726.818 180.916 726.936 180.813 727.053 180.608C727.2 180.403 727.273 180.197 727.273 179.992C727.273 179.757 727.317 179.493 727.405 179.2C727.522 178.907 727.64 178.701 727.757 178.584C727.757 178.437 727.816 178.276 727.933 178.1C728.05 177.924 728.109 177.777 728.109 177.66C728.109 177.543 728.138 177.44 728.197 177.352C728.285 177.264 728.329 177.161 728.329 177.044C728.593 176.575 728.93 175.885 729.341 174.976C729.781 174.037 730.206 173.055 730.617 172.028C731.057 171.001 731.424 170.092 731.717 169.3C732.01 168.508 732.157 168.024 732.157 167.848C732.216 167.613 732.304 167.393 732.421 167.188C732.538 166.983 732.714 166.909 732.949 166.968C733.066 166.88 733.242 166.836 733.477 166.836C733.712 166.807 733.888 166.792 734.005 166.792C734.005 166.792 734.137 166.851 734.401 166.968C734.665 167.085 734.9 167.261 735.105 167.496C735.34 167.701 735.472 167.98 735.501 168.332C735.53 168.684 735.545 169.036 735.545 169.388C735.516 169.945 735.31 170.576 734.929 171.28C734.548 171.984 734.122 172.761 733.653 173.612C733.36 174.169 733.066 174.697 732.773 175.196C732.509 175.695 732.377 176.003 732.377 176.12C732.377 176.237 732.318 176.413 732.201 176.648C732.084 176.883 731.952 177.176 731.805 177.528C731.629 177.821 731.453 178.173 731.277 178.584C731.13 178.995 730.998 179.376 730.881 179.728C730.764 180.051 730.705 180.256 730.705 180.344C730.676 180.461 730.632 180.579 730.573 180.696C730.544 180.813 730.47 180.931 730.353 181.048C730.236 181.048 730.162 181.136 730.133 181.312C730.133 181.459 730.133 181.532 730.133 181.532C730.133 181.649 730.06 181.928 729.913 182.368C729.796 182.779 729.59 183.277 729.297 183.864C728.74 185.419 728.344 186.665 728.109 187.604C727.874 188.513 727.728 189.291 727.669 189.936C727.61 190.64 727.449 191.124 727.185 191.388C726.921 191.623 726.672 191.799 726.437 191.916ZM724.105 198.736C723.489 198.971 722.976 199.073 722.565 199.044C722.154 199.044 721.7 198.853 721.201 198.472C720.614 197.885 720.409 197.299 720.585 196.712C720.79 196.096 721.318 195.509 722.169 194.952C722.756 194.571 723.181 194.38 723.445 194.38C723.738 194.351 724.164 194.453 724.721 194.688C725.718 195.304 726.158 195.993 726.041 196.756C725.924 197.489 725.278 198.149 724.105 198.736Z" fill="#B8C318"/>
</svg>
