<svg width="900" height="250" viewBox="0 0 900 250" fill="none" xmlns="http://www.w3.org/2000/svg">
<rect y="30" width="900" height="220" rx="60" fill="#E0E772"/>
<rect x="5.5" y="5.5" width="889" height="209" rx="54.5" fill="#FDFDFB" stroke="#B8C318" stroke-width="11"/>
<rect width="249" height="172" transform="translate(325 24)" fill="#FDFDFB"/>
<path d="M401.54 64.22H398.84C398.42 65.24 398 66.14 397.58 66.92H401.54V64.22ZM388.4 80.9H395.96C395.48 80 394.52 78.74 393.68 77.96C390.68 79.52 389.18 80.36 388.4 80.9ZM401.84 87.02V84.92H387.8V87.02H401.84ZM387.44 71.42H385.94C385.4 75.32 384.26 78.5 381.32 80.9H387.56C387.14 79.82 386.48 78.38 385.88 77.6C386.66 77.12 387.44 76.16 387.44 73.88V71.42ZM384.92 64.34H382.28C381.92 65.3 381.56 66.2 381.14 66.92H384.92V64.34ZM401.84 96.74H387.8V98.9H401.84V96.74ZM387.8 92.9H401.84V90.8H387.8V92.9ZM363.62 71.3H375.02C373.04 69.38 370.4 67.28 367.76 65.48C366.5 67.52 365.12 69.44 363.62 71.3ZM408.38 76.22H408.92C409.1 76.22 409.34 76.22 409.46 76.16C409.58 76.1 409.7 75.86 409.82 75.5C409.94 75.02 410 74.18 410.06 73.1C410.78 73.7 412.1 74.36 413.06 74.72C412.94 76.16 412.76 77.72 412.4 78.2C412.1 78.86 411.62 79.34 411.08 79.64C410.54 79.88 409.7 80.06 409.04 80.06H407.12C406.04 80.06 404.9 79.76 404.24 78.98C403.52 78.2 403.34 77.36 403.34 74.6V71.42H402.02C401.6 75.68 400.4 78.8 396.68 80.9H408.74V102.92H402.2C405.68 104.6 409.34 106.34 411.74 107.66L408.2 112.46C405.32 110.78 400.58 108.08 396.56 106.1L398.78 102.92H388.64L392.36 106.52C388.04 108.56 382.46 110.84 378.38 112.4C377.78 111.02 376.46 108.8 375.38 107.36C378.32 106.22 382.46 104.54 385.52 102.92H381.2V80.96C380.78 81.26 380.36 81.56 379.88 81.86C379.28 80.78 377.96 79.04 376.94 78.26C379.76 76.7 380.72 74.3 381.14 71.42H378.8V67.46L376.34 72.68C375.92 72.26 375.56 71.78 375.08 71.3V77.24H370.52V81.62H377V87.68H370.52V101.6C372.74 101.18 374.9 100.76 377.12 100.28L377.48 105.92C370.82 107.6 363.62 109.16 358.28 110.48L357.02 104.06C359.3 103.7 362.12 103.16 365.12 102.62V87.68H357.8V81.62H365.12V77.24H360.92V74.42C360.02 75.38 359.12 76.28 358.22 77.06C357.92 75.5 356.66 71.6 355.94 69.8C360.08 66.56 364.46 61.28 366.98 55.82L371.72 58.28C371.36 59 371.06 59.72 370.7 60.5C373.94 62.48 377.06 65 379.04 66.92H381.02C380.18 66.32 378.38 65.36 377.48 64.94C378.8 62.54 379.58 59.48 380 56.54L384.08 57.44C383.96 58.28 383.78 59.12 383.54 60.02H384.92V56.18H389.6V60.02H393.62V64.34H389.6V66.92H394.04V71.42H391.82V74.84L393.74 74.12C393.86 74.96 394.22 76.16 394.52 77C396.5 75.68 397.22 73.88 397.46 71.42H395.06V66.92H397.46C396.62 66.38 394.88 65.36 393.92 64.94C395.3 62.54 396.08 59.48 396.56 56.54L400.64 57.44C400.46 58.28 400.28 59.12 400.04 60.02H401.54V56.18H406.28V60.02H411.38V64.22H406.28V66.92H412.58V71.42H407.84V74.78C407.84 75.44 407.84 75.8 407.9 75.98C408.02 76.16 408.2 76.22 408.38 76.22ZM374.72 100.7L371 99.38C371.72 96.62 372.56 92.3 372.86 89.24L377.54 90.62C376.46 94.16 375.5 98.12 374.72 100.7ZM358.22 91.04L362.18 89.78C363.14 93.08 363.98 97.34 364.28 100.1L360.02 101.42C359.84 98.6 359.06 94.34 358.22 91.04ZM464.66 101.72V87.32H440.66V101.72H464.66ZM475.7 67.28H446.96C445.22 71.72 443.18 76.22 440.78 80.48H472.34V111.98H464.66V108.62H440.66V112.22H433.4V90.86C430.94 93.74 428.3 96.2 425.3 98.36C424.16 96.74 421.76 94.16 420.26 92.84C428.96 86.9 435.26 76.82 438.68 67.28H423.02V60.26H475.7V67.28ZM488.6 79.88C488.24 78.5 487.16 75.38 486.38 73.58C487.58 73.22 488.6 72.14 489.86 70.34C491.06 68.72 494.84 62.12 497 55.88L503.54 58.52C501.38 63.38 498.5 68.48 495.44 72.68L499.64 72.38C501.2 69.86 502.76 67.16 503.96 64.46L509.9 68.24C506.48 74.36 502.04 80.54 497.42 85.7L503.72 84.8C503.18 83.36 502.64 81.98 502.04 80.78L506.84 78.98C508.76 82.76 510.62 87.68 511.16 90.92L505.94 93.02C505.82 92.18 505.64 91.16 505.34 90.08C492.62 92.36 490.4 92.84 489.08 93.62C488.72 92.36 487.64 89.06 486.8 87.32C488.42 86.9 489.74 85.58 491.66 83.36C492.44 82.52 493.88 80.84 495.56 78.5C490.88 79.04 489.5 79.4 488.6 79.88ZM488.78 95.6L494.3 96.5C493.88 101.78 492.92 107.48 491.66 111.14C490.46 110.48 487.82 109.64 486.32 109.28C487.76 105.74 488.42 100.4 488.78 95.6ZM495.68 96.38L500.54 95.18C501.26 99.02 501.92 103.94 502.1 107.12L496.94 108.44C496.88 105.2 496.28 100.16 495.68 96.38ZM533.06 81.86H523.94C525.02 85.94 526.58 89.84 528.62 93.26C530.48 89.84 531.98 86 533.06 81.86ZM528.26 65.36H521.36C521.3 68.84 521.18 72.26 521.06 75.5H526.52C527.18 72.26 527.78 68.6 528.26 65.36ZM536.54 75.26L541.1 76.82C539.6 85.82 536.9 93.38 533.12 99.38C535.7 102.2 538.76 104.42 542.3 105.98C540.74 107.3 538.64 110 537.56 111.92C534.2 110.18 531.32 107.9 528.86 105.08C526.28 107.96 523.46 110.3 520.28 112.28C519.2 110.6 517.34 108.2 515.78 106.94C519.02 105.14 522.02 102.56 524.6 99.32C522.8 96.26 521.24 92.72 519.92 89C518.72 98.12 516.56 105.86 512.54 111.92C511.46 110.78 508.1 108.38 506.42 107.48C507.38 106.22 508.22 104.78 508.94 103.28L504.8 104.78C504.32 102.26 503.12 98.18 502.04 95.12L506.78 93.56C507.8 96.26 508.88 99.56 509.54 102.08C513.56 92.9 514.4 80.06 514.46 65.36H509.48V58.7H529.88L530.9 58.4L535.88 59.06C535.28 64.22 534.2 70.28 533.18 75.5H535.4L536.54 75.26Z" fill="#594A39"/>
<path d="M334.712 173.664C334.155 173.752 333.48 173.737 332.688 173.62C331.896 173.532 331.045 173.371 330.136 173.136C329.667 172.989 329.329 172.813 329.124 172.608C328.948 172.403 328.64 172.021 328.2 171.464C327.907 171.024 327.716 170.525 327.628 169.968C327.569 169.411 327.643 168.912 327.848 168.472C328.083 168.032 328.464 167.768 328.992 167.68C329.227 167.621 329.505 167.68 329.828 167.856C330.18 168.003 330.547 168.193 330.928 168.428C331.544 168.78 332.204 169.132 332.908 169.484C333.612 169.865 334.257 170.012 334.844 169.924C335.255 169.836 335.739 169.777 336.296 169.748C336.883 169.748 337.44 169.704 337.968 169.616C338.525 169.528 338.965 169.367 339.288 169.132C340.843 168.076 342.001 167.24 342.764 166.624C343.527 165.979 343.908 165.656 343.908 165.656C343.967 165.539 344.069 165.451 344.216 165.392C344.392 165.304 344.597 165.216 344.832 165.128C345.008 164.952 345.287 164.673 345.668 164.292C346.049 163.881 346.416 163.485 346.768 163.104C347.149 162.723 347.384 162.503 347.472 162.444C347.531 162.18 347.589 161.975 347.648 161.828C347.707 161.652 347.736 161.476 347.736 161.3C347.971 161.065 348.279 160.581 348.66 159.848C349.071 159.085 349.481 158.249 349.892 157.34C350.303 156.401 350.596 155.551 350.772 154.788C351.153 153.175 351.285 151.708 351.168 150.388C351.051 149.068 350.713 147.88 350.156 146.824C349.599 145.768 348.851 144.844 347.912 144.052C347.589 143.788 347.149 143.509 346.592 143.216C346.035 142.893 345.463 142.6 344.876 142.336C344.289 142.043 343.761 141.823 343.292 141.676C342.852 141.529 342.588 141.471 342.5 141.5C342.383 141.529 342.148 141.984 341.796 142.864C341.473 143.715 341.063 144.815 340.564 146.164C340.095 147.513 339.581 148.965 339.024 150.52C338.496 152.045 337.983 153.497 337.484 154.876C337.337 155.433 337.147 156.02 336.912 156.636C336.707 157.252 336.531 157.795 336.384 158.264C336.237 158.704 336.164 158.997 336.164 159.144C335.841 159.643 335.504 160.405 335.152 161.432C334.8 162.459 334.507 163.925 334.272 165.832C334.008 166.829 333.817 167.665 333.7 168.34C333.583 168.985 333.465 169.293 333.348 169.264C333.348 169.264 333.333 169.396 333.304 169.66C333.275 169.953 333.216 170.144 333.128 170.232C333.128 170.408 332.952 170.525 332.6 170.584C332.248 170.643 331.837 170.569 331.368 170.364C330.899 170.159 330.459 169.763 330.048 169.176C329.96 168.853 329.887 168.384 329.828 167.768C329.799 167.123 329.901 166.375 330.136 165.524C330.283 164.967 330.488 164.248 330.752 163.368C331.016 162.488 331.309 161.579 331.632 160.64C331.955 159.701 332.248 158.836 332.512 158.044C332.805 157.252 333.011 156.665 333.128 156.284C333.333 155.785 333.627 154.847 334.008 153.468C334.243 152.705 334.477 151.943 334.712 151.18C334.976 150.417 335.225 149.743 335.46 149.156C335.695 148.54 335.856 148.144 335.944 147.968C336.091 147.587 336.267 146.971 336.472 146.12C336.707 145.24 337.059 144.243 337.528 143.128L337.836 141.676L337.352 141.456C337 141.573 336.721 141.617 336.516 141.588C336.34 141.529 336.223 141.485 336.164 141.456C335.988 141.515 335.753 141.471 335.46 141.324C335.196 141.148 334.947 140.928 334.712 140.664C334.507 140.4 334.375 140.18 334.316 140.004C334.257 139.887 334.213 139.74 334.184 139.564C334.184 139.359 334.184 139.256 334.184 139.256C334.213 139.08 334.463 138.904 334.932 138.728C335.401 138.523 336.003 138.332 336.736 138.156C337.499 137.98 338.305 137.848 339.156 137.76C340.007 137.672 340.799 137.657 341.532 137.716C342.295 137.775 343.233 137.951 344.348 138.244C345.463 138.537 346.416 138.831 347.208 139.124C348.147 139.476 349.159 140.077 350.244 140.928C351.329 141.779 352.312 142.791 353.192 143.964C354.101 145.137 354.703 146.369 354.996 147.66C355.084 148.012 355.172 148.511 355.26 149.156C355.348 149.801 355.392 150.432 355.392 151.048C355.421 151.635 355.363 152.016 355.216 152.192C355.157 152.309 355.113 152.456 355.084 152.632C355.084 152.779 355.143 152.881 355.26 152.94C355.231 153.028 355.128 153.365 354.952 153.952C354.776 154.509 354.615 154.993 354.468 155.404C354.409 156.167 354.204 157.047 353.852 158.044C353.529 159.041 353.163 159.995 352.752 160.904C352.371 161.784 352.033 162.473 351.74 162.972C351.623 162.972 351.505 163.001 351.388 163.06C351.3 163.089 351.315 163.119 351.432 163.148C351.432 163.295 351.271 163.573 350.948 163.984C350.831 164.072 350.64 164.292 350.376 164.644C350.141 164.967 349.951 165.187 349.804 165.304C349.775 165.509 349.687 165.685 349.54 165.832C349.393 165.949 349.261 166.008 349.144 166.008C349.144 166.008 349.115 166.008 349.056 166.008C349.027 166.008 349.012 166.067 349.012 166.184C348.777 166.536 348.381 166.991 347.824 167.548C347.267 168.105 346.636 168.677 345.932 169.264C345.228 169.851 344.524 170.393 343.82 170.892C343.116 171.391 342.471 171.757 341.884 171.992C341.591 172.197 341.283 172.359 340.96 172.476C340.637 172.623 340.329 172.769 340.036 172.916C339.889 173.033 339.464 173.136 338.76 173.224C338.056 173.312 337.308 173.385 336.516 173.444C335.753 173.503 335.152 173.576 334.712 173.664ZM359.905 168.252C359.67 168.017 359.494 167.665 359.377 167.196C359.289 166.727 359.259 166.272 359.289 165.832C359.318 165.363 359.391 165.011 359.509 164.776C359.509 164.541 359.538 164.365 359.597 164.248C359.685 164.101 359.714 163.969 359.685 163.852C359.655 163.735 359.685 163.529 359.773 163.236C359.861 162.943 359.949 162.664 360.037 162.4C360.242 161.931 360.477 161.329 360.741 160.596C361.005 159.833 361.269 159.071 361.533 158.308C361.797 157.516 362.017 156.841 362.193 156.284C362.369 155.697 362.471 155.345 362.501 155.228C362.501 154.876 362.735 154.685 363.205 154.656C363.557 154.539 363.982 154.685 364.481 155.096C364.979 155.507 365.375 155.947 365.669 156.416C365.903 156.651 365.991 156.959 365.933 157.34C365.874 157.721 365.683 158.264 365.361 158.968C365.243 159.203 365.097 159.599 364.921 160.156C364.774 160.684 364.671 161.124 364.613 161.476C364.495 161.711 364.349 162.048 364.173 162.488C364.026 162.899 363.894 163.295 363.777 163.676C363.718 163.823 363.659 164.101 363.601 164.512C363.542 164.893 363.469 165.289 363.381 165.7C363.293 166.111 363.175 166.433 363.029 166.668C362.765 167.871 362.295 168.575 361.621 168.78C360.975 168.985 360.403 168.809 359.905 168.252ZM364.657 150.608C364.334 150.373 364.085 150.095 363.909 149.772C363.762 149.42 363.674 149.112 363.645 148.848C363.645 148.584 363.674 148.423 363.733 148.364C364.026 148.041 364.275 147.616 364.481 147.088C364.715 146.56 364.965 146.076 365.229 145.636C365.287 145.548 365.361 145.431 365.449 145.284C365.566 145.108 365.683 145.005 365.801 144.976C366.153 144.741 366.637 144.756 367.253 145.02C367.898 145.284 368.367 145.651 368.661 146.12C368.925 146.677 368.998 147.249 368.881 147.836C368.793 148.423 368.485 149.039 367.957 149.684C367.517 150.271 366.959 150.652 366.285 150.828C365.61 150.975 365.067 150.901 364.657 150.608ZM375.845 168.384C375.611 168.443 375.303 168.472 374.921 168.472C374.54 168.443 374.203 168.399 373.909 168.34C373.645 168.252 373.513 168.164 373.513 168.076C373.513 167.929 373.44 167.856 373.293 167.856C373.293 167.856 373.132 167.739 372.809 167.504C372.487 167.24 372.193 167.049 371.929 166.932C371.665 166.521 371.489 166.052 371.401 165.524C371.343 164.967 371.519 163.999 371.929 162.62C371.959 161.681 372.223 160.699 372.721 159.672C373.22 158.616 373.851 157.589 374.613 156.592C375.376 155.595 376.168 154.715 376.989 153.952C377.811 153.16 378.544 152.573 379.189 152.192C379.6 151.781 380.143 151.561 380.817 151.532C381.521 151.503 382.137 151.635 382.665 151.928C382.959 152.075 383.281 152.368 383.633 152.808C383.985 153.248 384.323 153.717 384.645 154.216C384.968 154.685 385.217 155.111 385.393 155.492C385.481 155.815 385.555 156.108 385.613 156.372C385.701 156.607 385.76 156.9 385.789 157.252C385.819 157.604 385.789 158.132 385.701 158.836C385.555 159.364 385.423 159.907 385.305 160.464C385.217 160.992 385.173 161.535 385.173 162.092C385.115 162.649 385.173 163.045 385.349 163.28C385.555 163.515 385.848 163.529 386.229 163.324C386.581 163.148 386.948 163.133 387.329 163.28C387.711 163.397 387.975 163.632 388.121 163.984C388.297 164.307 388.253 164.732 387.989 165.26C387.813 165.641 387.535 166.008 387.153 166.36C386.772 166.712 386.347 167.005 385.877 167.24C385.408 167.445 384.953 167.548 384.513 167.548C384.191 167.548 383.868 167.431 383.545 167.196C383.223 166.932 382.929 166.58 382.665 166.14C382.401 165.7 382.181 165.216 382.005 164.688L381.741 163.676L380.157 165.128C379.776 165.539 379.395 165.92 379.013 166.272C378.661 166.595 378.441 166.829 378.353 166.976C378.207 167.24 377.913 167.475 377.473 167.68C377.063 167.885 376.52 168.12 375.845 168.384ZM377.033 164.16C377.532 163.867 377.957 163.515 378.309 163.104C378.691 162.693 379.057 162.239 379.409 161.74C379.761 161.212 380.143 160.655 380.553 160.068C381.052 159.393 381.404 158.851 381.609 158.44C381.844 158.029 382.02 157.589 382.137 157.12C382.02 156.797 381.859 156.46 381.653 156.108C381.448 155.727 381.243 155.521 381.037 155.492C380.627 155.492 380.128 155.741 379.541 156.24C378.984 156.739 378.368 157.457 377.693 158.396C377.576 158.543 377.429 158.777 377.253 159.1C377.077 159.423 376.901 159.731 376.725 160.024C376.579 160.288 376.476 160.464 376.417 160.552C376.329 160.669 376.197 160.948 376.021 161.388C375.875 161.799 375.743 162.224 375.625 162.664C375.508 163.075 375.449 163.368 375.449 163.544C375.449 163.72 375.464 163.911 375.493 164.116C375.552 164.321 375.699 164.453 375.933 164.512C376.168 164.571 376.535 164.453 377.033 164.16ZM414 167.944C413.795 167.885 413.472 167.695 413.032 167.372C412.592 167.049 412.196 166.565 411.844 165.92C411.522 165.275 411.375 164.439 411.404 163.412C411.434 162.532 411.492 161.916 411.58 161.564C411.698 161.183 411.654 160.977 411.448 160.948C411.302 160.919 411.008 161.051 410.568 161.344C410.128 161.637 409.556 162.107 408.852 162.752C408.148 163.397 407.298 164.248 406.3 165.304C405.948 165.597 405.552 165.964 405.112 166.404C404.702 166.815 404.276 167.123 403.836 167.328C403.426 167.533 403.059 167.489 402.736 167.196L402.296 166.8C402.091 166.624 401.915 166.389 401.768 166.096C401.622 165.803 401.578 165.553 401.636 165.348L402.868 161.916C403.22 161.153 403.455 160.596 403.572 160.244C403.719 159.892 403.778 159.672 403.748 159.584C403.748 159.496 403.675 159.467 403.528 159.496C403.352 159.525 403.103 159.687 402.78 159.98C402.458 160.244 402.238 160.464 402.12 160.64C402.003 160.64 401.842 160.757 401.636 160.992C401.46 161.227 401.284 161.432 401.108 161.608C400.932 161.784 400.624 162.121 400.184 162.62C399.744 163.089 399.275 163.588 398.776 164.116C398.395 164.468 397.955 164.937 397.456 165.524C396.958 166.111 396.518 166.639 396.136 167.108C395.755 167.577 395.52 167.812 395.432 167.812C394.904 167.783 394.42 167.607 393.98 167.284C393.57 166.961 393.291 166.565 393.144 166.096C392.968 165.773 392.954 165.187 393.1 164.336C393.247 163.456 393.526 162.063 393.936 160.156C394.054 159.716 394.156 159.335 394.244 159.012C394.362 158.689 394.479 158.367 394.596 158.044C394.714 157.721 394.846 157.355 394.992 156.944C395.168 156.533 395.388 156.035 395.652 155.448C395.799 155.037 395.858 154.656 395.828 154.304C395.799 153.923 395.77 153.615 395.74 153.38C395.74 152.94 395.872 152.588 396.136 152.324C396.43 152.06 396.752 151.884 397.104 151.796C397.456 151.679 397.735 151.649 397.94 151.708C398.762 151.796 399.319 152.089 399.612 152.588C399.906 153.087 400.067 153.571 400.096 154.04C400.126 154.48 400.067 154.876 399.92 155.228C399.774 155.58 399.656 155.873 399.568 156.108L399.084 157.296C398.791 157.971 398.571 158.469 398.424 158.792C398.307 159.085 398.234 159.291 398.204 159.408C398.204 159.496 398.204 159.584 398.204 159.672C398.234 159.76 398.366 159.716 398.6 159.54C398.835 159.364 399.114 159.129 399.436 158.836C399.788 158.513 400.111 158.235 400.404 158C400.932 157.56 401.49 157.12 402.076 156.68C402.692 156.211 403.294 155.8 403.88 155.448C404.467 155.096 404.951 154.861 405.332 154.744C405.831 154.832 406.286 155.081 406.696 155.492C407.136 155.903 407.415 156.255 407.532 156.548C407.679 156.988 407.694 157.384 407.576 157.736C407.488 158.088 407.415 158.411 407.356 158.704C407.327 158.821 407.268 159.041 407.18 159.364C407.092 159.687 407.004 159.995 406.916 160.288C406.828 160.552 406.784 160.684 406.784 160.684C406.784 160.684 406.872 160.596 407.048 160.42C407.224 160.244 407.459 160.039 407.752 159.804C408.046 159.54 408.339 159.305 408.632 159.1C410.099 157.985 411.258 157.281 412.108 156.988C412.988 156.665 413.736 156.915 414.352 157.736C414.704 158.059 414.924 158.499 415.012 159.056C415.13 159.613 415.188 160.361 415.188 161.3C415.218 161.681 415.247 162.107 415.276 162.576C415.335 163.045 415.394 163.456 415.452 163.808C415.54 164.16 415.614 164.38 415.672 164.468C415.76 164.585 415.922 164.703 416.156 164.82C416.391 164.908 416.611 164.981 416.816 165.04C417.227 165.245 417.447 165.627 417.476 166.184C417.535 166.712 417.33 167.123 416.86 167.416C416.42 167.68 415.951 167.841 415.452 167.9C414.983 167.959 414.499 167.973 414 167.944ZM426.379 169.396C425.998 169.425 425.69 169.381 425.455 169.264C425.22 169.176 424.927 169.029 424.575 168.824C423.93 168.325 423.387 167.709 422.947 166.976C422.536 166.243 422.346 165.627 422.375 165.128C422.434 164.864 422.434 164.629 422.375 164.424C422.346 164.219 422.331 164.116 422.331 164.116C422.155 163.969 422.096 163.881 422.155 163.852C422.214 163.793 422.258 163.705 422.287 163.588C422.522 163.529 422.551 163.368 422.375 163.104C422.287 162.869 422.331 162.341 422.507 161.52C422.712 160.669 422.976 159.877 423.299 159.144C423.446 158.821 423.651 158.396 423.915 157.868C424.208 157.34 424.531 156.812 424.883 156.284C425.235 155.727 425.558 155.287 425.851 154.964C426.496 154.231 427.068 153.629 427.567 153.16C428.095 152.691 428.682 152.339 429.327 152.104C429.914 151.869 430.5 151.767 431.087 151.796C431.703 151.825 432.246 152.031 432.715 152.412C433.419 152.617 434.05 152.94 434.607 153.38C435.164 153.791 435.546 154.377 435.751 155.14C435.986 155.991 436.059 157.003 435.971 158.176C435.912 159.32 435.414 160.801 434.475 162.62C433.918 163.764 433.36 164.688 432.803 165.392C432.275 166.096 431.63 166.771 430.867 167.416C430.31 167.885 429.591 168.296 428.711 168.648C427.831 169 427.054 169.249 426.379 169.396ZM430.207 162.752C430.588 162.224 430.882 161.711 431.087 161.212C431.322 160.713 431.542 160.024 431.747 159.144C431.835 158.821 431.879 158.425 431.879 157.956C431.908 157.487 431.894 157.061 431.835 156.68C431.806 156.269 431.703 156.049 431.527 156.02C431.146 155.873 430.75 155.873 430.339 156.02C429.958 156.137 429.503 156.489 428.975 157.076C428.506 157.604 428.124 158.103 427.831 158.572C427.567 159.012 427.318 159.555 427.083 160.2C426.878 160.816 426.643 161.623 426.379 162.62C426.144 163.588 426.13 164.365 426.335 164.952C426.57 165.539 427.01 165.7 427.655 165.436C428.3 165.172 429.151 164.277 430.207 162.752ZM455.564 168.824C455.124 168.824 454.699 168.692 454.288 168.428C453.878 168.135 453.54 167.739 453.276 167.24C453.012 166.712 452.88 166.096 452.88 165.392C452.88 164.952 452.954 164.336 453.1 163.544C453.276 162.723 453.526 161.696 453.848 160.464C453.907 160.053 453.951 159.789 453.98 159.672C454.039 159.555 454.068 159.437 454.068 159.32C454.068 159.261 454.054 159.217 454.024 159.188C454.024 159.129 453.995 159.1 453.936 159.1C453.702 159.1 453.379 159.261 452.968 159.584C452.587 159.877 452.147 160.229 451.648 160.64C451.56 160.699 451.458 160.772 451.34 160.86C451.252 160.948 451.15 161.036 451.032 161.124C450.944 161.212 450.842 161.3 450.724 161.388C450.431 161.564 449.976 161.901 449.36 162.4C448.774 162.899 448.158 163.427 447.512 163.984C446.896 164.541 446.354 165.011 445.884 165.392C445.65 165.568 445.444 165.715 445.268 165.832C445.122 165.949 445.019 166.008 444.96 166.008C444.902 166.008 444.667 165.935 444.256 165.788C443.875 165.612 443.494 165.377 443.112 165.084C442.76 164.761 442.584 164.395 442.584 163.984C442.584 163.72 442.687 163.192 442.892 162.4C443.127 161.608 443.45 160.669 443.86 159.584C444.271 158.499 444.74 157.399 445.268 156.284C445.386 156.02 445.474 155.668 445.532 155.228C445.591 154.788 445.65 154.363 445.708 153.952C445.796 153.512 445.943 153.189 446.148 152.984C446.236 152.837 446.339 152.735 446.456 152.676C446.603 152.588 446.75 152.544 446.896 152.544C447.19 152.544 447.468 152.617 447.732 152.764C447.996 152.881 448.246 153.087 448.48 153.38C448.92 153.849 449.155 154.407 449.184 155.052C449.243 155.668 449.199 156.269 449.052 156.856C448.906 157.443 448.744 157.927 448.568 158.308C448.392 158.66 448.304 158.807 448.304 158.748C448.422 158.689 448.583 158.543 448.788 158.308C449.023 158.073 449.419 157.795 449.976 157.472C450.739 156.885 451.326 156.475 451.736 156.24C452.147 155.976 452.455 155.785 452.66 155.668C452.895 155.551 453.1 155.419 453.276 155.272C453.423 155.155 453.526 155.081 453.584 155.052C453.672 155.023 453.716 155.008 453.716 155.008C453.804 155.008 453.951 154.949 454.156 154.832C454.391 154.715 454.611 154.656 454.816 154.656C455.11 154.656 455.418 154.729 455.74 154.876C456.063 154.993 456.342 155.169 456.576 155.404C456.811 155.609 456.928 155.829 456.928 156.064C456.928 156.152 456.958 156.225 457.016 156.284C457.075 156.343 457.134 156.416 457.192 156.504C457.339 156.68 457.5 156.929 457.676 157.252C457.882 157.545 457.984 158.029 457.984 158.704C457.984 159.173 457.882 159.863 457.676 160.772C457.471 161.681 457.251 162.576 457.016 163.456C456.782 164.365 456.664 165.099 456.664 165.656C456.694 166.184 456.752 166.595 456.84 166.888C456.928 167.152 456.972 167.372 456.972 167.548C456.972 167.783 456.855 168.061 456.62 168.384C456.386 168.677 456.034 168.824 455.564 168.824ZM476.552 169.528C476.229 169.645 475.862 169.704 475.452 169.704C475.07 169.733 474.63 169.557 474.132 169.176C473.838 168.853 473.633 168.516 473.516 168.164C473.428 167.812 473.384 167.269 473.384 166.536C473.442 166.096 473.56 165.465 473.736 164.644C473.912 163.793 474.102 162.913 474.308 162.004C474.542 161.065 474.748 160.229 474.924 159.496C475.129 158.733 475.29 158.22 475.408 157.956C475.613 157.252 475.657 156.812 475.54 156.636C475.422 156.46 475.07 156.357 474.484 156.328C473.809 156.299 473.105 156.621 472.372 157.296C471.638 157.971 470.802 159.041 469.864 160.508C469.16 161.593 468.734 162.488 468.588 163.192C468.441 163.867 468.426 164.336 468.544 164.6C468.602 164.717 468.705 164.791 468.852 164.82C469.028 164.82 469.233 164.776 469.468 164.688C469.732 164.6 470.01 164.483 470.304 164.336C470.509 164.219 470.758 164.101 471.052 163.984C471.374 163.837 471.682 163.705 471.976 163.588C472.152 163.588 472.269 163.691 472.328 163.896C472.416 164.101 472.46 164.351 472.46 164.644C472.46 164.761 472.489 164.981 472.548 165.304C472.636 165.627 472.782 165.847 472.988 165.964C473.105 166.081 472.856 166.331 472.24 166.712C471.653 167.064 470.89 167.504 469.952 168.032C469.072 168.237 468.412 168.34 467.972 168.34C467.561 168.34 467.106 168.149 466.608 167.768C465.786 167.269 465.258 166.345 465.024 164.996C464.818 163.647 464.994 162.151 465.552 160.508C466.109 159.188 466.725 158.059 467.4 157.12C468.104 156.152 468.837 155.272 469.6 154.48C469.717 154.363 470.084 154.128 470.7 153.776C471.316 153.424 471.946 153.145 472.592 152.94C473.325 152.705 473.941 152.617 474.44 152.676C474.968 152.705 475.466 152.881 475.936 153.204C476.464 153.321 476.816 153.307 476.992 153.16C477.197 153.013 477.432 152.603 477.696 151.928C478.224 150.461 478.781 148.98 479.368 147.484C479.954 145.959 480.57 144.419 481.216 142.864C481.509 142.307 481.685 141.881 481.744 141.588C481.832 141.265 481.934 141.045 482.052 140.928L483.284 140.532C483.606 140.444 483.973 140.591 484.384 140.972C484.824 141.353 485.102 141.72 485.22 142.072C485.22 142.336 485.102 142.923 484.868 143.832C484.633 144.712 484.252 145.768 483.724 147C483.254 148.085 482.785 149.185 482.316 150.3C481.876 151.385 481.45 152.544 481.04 153.776C480.717 154.685 480.424 155.419 480.16 155.976C479.896 156.533 479.72 157.017 479.632 157.428C479.456 158.191 479.236 158.88 478.972 159.496C478.737 160.083 478.576 160.493 478.488 160.728C478.106 161.843 477.813 162.767 477.608 163.5C477.402 164.204 477.27 164.82 477.212 165.348C477.153 165.847 477.138 166.345 477.168 166.844C477.197 167.313 477.256 167.856 477.344 168.472C477.344 168.589 477.256 168.765 477.08 169C476.933 169.205 476.757 169.381 476.552 169.528ZM489.547 161.432C489.371 161.432 489.151 161.432 488.887 161.432C488.623 161.403 488.33 161.329 488.007 161.212C487.567 161.212 487.215 161.124 486.951 160.948C486.716 160.743 486.54 160.537 486.423 160.332C486.1 159.892 486.115 159.555 486.467 159.32C486.848 159.056 487.582 158.865 488.667 158.748C489.664 158.513 490.647 158.352 491.615 158.264C492.583 158.176 493.654 158.132 494.827 158.132C495.59 158.132 496.206 158.205 496.675 158.352C497.174 158.499 497.584 158.733 497.907 159.056C498.347 159.496 498.45 159.965 498.215 160.464C497.98 160.933 497.526 161.109 496.851 160.992C496.646 161.021 496.206 161.051 495.531 161.08C494.886 161.109 494.299 161.153 493.771 161.212C493.448 161.241 492.876 161.285 492.055 161.344C491.234 161.403 490.398 161.432 489.547 161.432ZM506.186 169.484C505.629 169.631 505.13 169.469 504.69 169C504.25 168.56 503.942 167.9 503.766 167.02C503.59 166.14 503.62 165.157 503.854 164.072C504.001 163.72 504.118 163.383 504.206 163.06C504.294 162.708 504.338 162.429 504.338 162.224C504.397 161.931 504.514 161.505 504.69 160.948C504.866 160.361 505.057 159.76 505.262 159.144C505.468 158.528 505.658 157.985 505.834 157.516C506.04 157.017 506.172 156.709 506.23 156.592C506.348 156.592 506.45 156.489 506.538 156.284C506.626 156.079 506.67 155.873 506.67 155.668C506.67 155.433 506.714 155.169 506.802 154.876C506.92 154.583 507.037 154.377 507.154 154.26C507.154 154.113 507.184 153.952 507.242 153.776C507.33 153.571 507.374 153.409 507.374 153.292C507.374 153.175 507.404 153.057 507.462 152.94C507.55 152.823 507.594 152.705 507.594 152.588C507.8 152.207 508.064 151.605 508.386 150.784C508.738 149.933 509.105 148.995 509.486 147.968C509.897 146.941 510.278 145.929 510.63 144.932C510.982 143.935 511.261 143.099 511.466 142.424C511.701 141.72 511.818 141.295 511.818 141.148C511.818 140.913 511.906 140.693 512.082 140.488C512.258 140.283 512.464 140.18 512.698 140.18C512.786 140.092 512.992 140.033 513.314 140.004C513.637 139.945 513.857 139.916 513.974 139.916C513.974 139.916 514.033 139.975 514.15 140.092C514.268 140.209 514.444 140.385 514.678 140.62C514.913 140.825 515.133 141.06 515.338 141.324C515.573 141.588 515.69 141.896 515.69 142.248C515.69 142.629 515.632 142.996 515.514 143.348C515.426 143.7 515.25 144.184 514.986 144.8C514.722 145.387 514.312 146.267 513.754 147.44C513.52 148.027 513.27 148.584 513.006 149.112C512.742 149.611 512.61 149.919 512.61 150.036C512.61 150.153 512.552 150.329 512.434 150.564C512.346 150.799 512.244 151.092 512.126 151.444C512.009 151.679 511.848 152.031 511.642 152.5C511.437 152.94 511.217 153.424 510.982 153.952C510.777 154.451 510.601 154.891 510.454 155.272C510.308 155.624 510.234 155.829 510.234 155.888C510.234 156.005 510.22 156.123 510.19 156.24C510.19 156.357 510.132 156.475 510.014 156.592C509.897 156.592 509.824 156.68 509.794 156.856C509.794 157.003 509.794 157.076 509.794 157.076C509.794 157.369 509.56 158.147 509.09 159.408C508.621 161.021 508.181 162.503 507.77 163.852C507.389 165.201 507.198 166.287 507.198 167.108C507.198 167.812 507.081 168.355 506.846 168.736C506.641 169.117 506.421 169.367 506.186 169.484ZM524.171 168.12C523.291 168.619 522.352 168.912 521.355 169C520.387 169.059 519.477 168.927 518.627 168.604C517.776 168.252 517.087 167.739 516.559 167.064C516.265 166.683 515.987 166.081 515.723 165.26C515.459 164.409 515.415 163.265 515.591 161.828C515.767 160.479 516.177 159.115 516.823 157.736C517.497 156.357 518.319 155.14 519.287 154.084C520.255 153.028 521.311 152.309 522.455 151.928C522.865 151.781 523.276 151.679 523.687 151.62C524.127 151.532 524.699 151.517 525.403 151.576C526.077 151.664 526.679 151.84 527.207 152.104C527.735 152.339 528.116 152.603 528.351 152.896C528.82 153.365 529.128 153.82 529.275 154.26C529.421 154.7 529.48 155.125 529.451 155.536C529.304 156.475 528.879 157.487 528.175 158.572C527.5 159.657 526.547 160.464 525.315 160.992C524.816 161.197 524.229 161.329 523.555 161.388C522.88 161.447 521.956 161.359 520.783 161.124C520.079 160.977 519.609 161.051 519.375 161.344C519.169 161.637 519.081 162.209 519.111 163.06C519.169 163.588 519.287 164.057 519.463 164.468C519.668 164.849 520.035 165.113 520.563 165.26C521.237 165.377 521.721 165.392 522.015 165.304C522.308 165.187 522.675 165.025 523.115 164.82C523.349 164.673 523.569 164.512 523.775 164.336C524.009 164.16 524.229 163.984 524.435 163.808C524.669 163.632 524.86 163.5 525.007 163.412C525.153 163.295 525.3 163.221 525.447 163.192C525.593 163.163 525.74 163.148 525.887 163.148C526.209 163.177 526.517 163.353 526.811 163.676C527.104 163.999 527.295 164.307 527.383 164.6C527.383 164.835 527.236 165.172 526.943 165.612C526.649 166.023 526.253 166.463 525.755 166.932C525.285 167.372 524.757 167.768 524.171 168.12ZM523.599 158.308C523.804 158.22 524.097 158.015 524.479 157.692C524.889 157.369 525.256 157.032 525.579 156.68C525.901 156.299 526.063 156.005 526.063 155.8C526.063 155.477 525.843 155.199 525.403 154.964C524.992 154.729 524.449 154.685 523.775 154.832C523.54 154.891 523.261 155.052 522.939 155.316C522.616 155.58 522.293 155.888 521.971 156.24C521.648 156.563 521.369 156.885 521.135 157.208C520.9 157.501 520.739 157.736 520.651 157.912C520.768 158.059 521.003 158.176 521.355 158.264C521.707 158.352 522.088 158.396 522.499 158.396C522.939 158.396 523.305 158.367 523.599 158.308ZM539.174 167.856C538.881 168.061 538.514 168.179 538.074 168.208C537.663 168.208 537.297 168.047 536.974 167.724C536.417 167.196 535.933 166.155 535.522 164.6C535.111 163.016 534.906 160.875 534.906 158.176C535.023 156.973 535.082 155.859 535.082 154.832C535.111 153.805 535.126 153.233 535.126 153.116C535.449 152.911 535.859 152.852 536.358 152.94C536.886 152.999 537.311 153.101 537.634 153.248C537.927 153.395 538.133 153.615 538.25 153.908C538.397 154.201 538.485 154.729 538.514 155.492C538.573 156.225 538.602 157.355 538.602 158.88C538.514 160.053 538.455 160.992 538.426 161.696C538.397 162.4 538.426 162.811 538.514 162.928C538.631 163.133 538.69 163.251 538.69 163.28C538.69 163.28 538.91 163.06 539.35 162.62C539.585 162.297 539.834 161.872 540.098 161.344C540.391 160.816 540.641 160.391 540.846 160.068C541.169 159.657 541.462 159.261 541.726 158.88C542.019 158.499 542.225 158.249 542.342 158.132C542.459 157.897 542.606 157.677 542.782 157.472C542.958 157.267 543.105 157.061 543.222 156.856C543.545 156.299 543.882 155.844 544.234 155.492C544.586 155.111 544.821 154.92 544.938 154.92C545.055 155.008 545.275 154.993 545.598 154.876C545.921 154.729 546.141 154.656 546.258 154.656C546.463 154.451 546.742 154.451 547.094 154.656C547.211 154.744 547.314 154.847 547.402 154.964C547.49 155.052 547.534 155.155 547.534 155.272C547.534 155.419 547.446 155.785 547.27 156.372C547.123 156.929 546.933 157.487 546.698 158.044C546.493 158.572 546.317 158.88 546.17 158.968C546.17 158.968 546.126 159.012 546.038 159.1C545.95 159.188 545.847 159.291 545.73 159.408C545.671 159.613 545.466 159.995 545.114 160.552C544.791 161.08 544.381 161.696 543.882 162.4C543.413 163.075 542.929 163.749 542.43 164.424C541.931 165.069 541.491 165.641 541.11 166.14C540.817 166.551 540.479 166.917 540.098 167.24C539.717 167.533 539.409 167.739 539.174 167.856ZM556.424 169.792C554.811 169.792 553.564 169.323 552.684 168.384C551.834 167.445 551.408 166.008 551.408 164.072C551.408 163.016 551.599 161.857 551.98 160.596C552.391 159.335 552.919 158.103 553.564 156.9C554.239 155.697 554.972 154.656 555.764 153.776C556.556 152.867 557.348 152.236 558.14 151.884C558.434 151.737 558.742 151.635 559.064 151.576C559.416 151.488 559.754 151.444 560.076 151.444C560.428 151.444 560.81 151.473 561.22 151.532C561.66 151.561 562.071 151.649 562.452 151.796C563.127 152.001 563.714 152.397 564.212 152.984C564.74 153.571 565.004 154.421 565.004 155.536C565.004 155.829 564.975 156.152 564.916 156.504C564.858 156.827 564.755 157.149 564.608 157.472C564.227 158.44 563.64 159.364 562.848 160.244C562.086 161.124 561.279 161.74 560.428 162.092C560.194 162.209 559.959 162.297 559.724 162.356C559.519 162.385 559.299 162.4 559.064 162.4C558.448 162.4 557.891 162.312 557.392 162.136C556.923 161.96 556.483 161.725 556.072 161.432L555.72 161.124L555.5 161.564C555.295 162.121 555.148 162.591 555.06 162.972C555.002 163.353 554.972 163.632 554.972 163.808C554.972 164.16 554.987 164.527 555.016 164.908C555.046 165.26 555.134 165.553 555.28 165.788C555.398 165.935 555.544 166.052 555.72 166.14C555.926 166.228 556.175 166.272 556.468 166.272C556.644 166.272 556.806 166.272 556.952 166.272C557.128 166.243 557.275 166.213 557.392 166.184C557.92 166.067 558.346 165.876 558.668 165.612C559.02 165.319 559.387 165.069 559.768 164.864L559.944 164.776L559.9 164.644C560.399 164.38 560.736 164.219 560.912 164.16C561.088 164.072 561.22 163.999 561.308 163.94C561.426 163.823 561.558 163.764 561.704 163.764C562.115 163.705 562.511 163.823 562.892 164.116C563.303 164.38 563.508 164.717 563.508 165.128C563.508 165.304 563.376 165.583 563.112 165.964C562.878 166.345 562.57 166.727 562.188 167.108C561.836 167.46 561.47 167.739 561.088 167.944C561 167.973 560.912 168.017 560.824 168.076C560.736 168.105 560.648 168.149 560.56 168.208H560.604C560.34 168.56 560.076 168.736 559.812 168.736H559.46C559.343 168.941 558.962 169.161 558.316 169.396C557.671 169.66 557.04 169.792 556.424 169.792ZM558.712 159.188C558.976 159.188 559.211 159.144 559.416 159.056C559.651 158.968 559.871 158.865 560.076 158.748C560.78 158.249 561.235 157.604 561.44 156.812C561.646 156.02 561.572 155.419 561.22 155.008C561.162 154.92 561.088 154.861 561 154.832C560.912 154.773 560.81 154.744 560.692 154.744C560.37 154.744 560.003 154.847 559.592 155.052C559.211 155.257 558.83 155.551 558.448 155.932C558.067 156.313 557.715 156.768 557.392 157.296L556.82 158.22C556.879 158.191 556.923 158.176 556.952 158.176C557.011 158.147 557.055 158.132 557.084 158.132C557.348 158.132 557.524 158.22 557.612 158.396C557.7 158.572 557.803 158.748 557.92 158.924C558.067 159.1 558.331 159.188 558.712 159.188ZM570.504 170.32C570.122 170.173 569.814 169.939 569.58 169.616C569.345 169.323 569.213 168.883 569.184 168.296C569.154 167.915 569.169 167.357 569.228 166.624C569.286 165.861 569.389 165.099 569.536 164.336C569.536 164.277 569.536 164.219 569.536 164.16C569.565 164.072 569.58 164.013 569.58 163.984C569.609 163.867 569.638 163.691 569.668 163.456C569.697 163.192 569.726 162.987 569.756 162.84C569.814 162.664 569.844 162.649 569.844 162.796L570.108 161.608C570.225 161.08 570.357 160.537 570.504 159.98C570.65 159.423 570.782 158.939 570.9 158.528C571.046 158.088 571.134 157.839 571.164 157.78C571.164 157.78 571.208 157.619 571.296 157.296C571.413 156.944 571.53 156.592 571.648 156.24C572.117 154.773 572.557 153.556 572.968 152.588C573.408 151.62 573.789 150.916 574.112 150.476C574.141 150.388 574.185 150.285 574.244 150.168C574.302 150.021 574.346 149.904 574.376 149.816C574.376 149.493 574.39 149.259 574.42 149.112C574.478 148.965 574.552 148.833 574.64 148.716C574.698 148.599 574.786 148.452 574.904 148.276C575.021 148.071 575.153 147.821 575.3 147.528L575.476 147.044C575.652 146.663 575.872 146.223 576.136 145.724C576.4 145.196 576.59 144.8 576.708 144.536C576.796 144.272 576.972 143.964 577.236 143.612C577.5 143.231 577.793 142.981 578.116 142.864L578.072 142.82C578.218 142.556 578.497 142.351 578.908 142.204C579.318 142.028 579.656 141.94 579.92 141.94C580.33 141.94 580.638 142.057 580.844 142.292C581.078 142.527 581.196 142.849 581.196 143.26C581.196 143.7 581.181 144.023 581.152 144.228C581.152 144.404 581.049 144.609 580.844 144.844H580.888C580.946 144.785 580.932 144.873 580.844 145.108C580.756 145.343 580.682 145.504 580.624 145.592C580.565 145.739 580.492 145.9 580.404 146.076C580.345 146.252 580.272 146.384 580.184 146.472C580.096 146.589 579.861 147 579.48 147.704C579.098 148.379 578.673 149.185 578.204 150.124C577.734 151.033 577.28 151.928 576.84 152.808C576.429 153.659 576.136 154.319 575.96 154.788L575.74 155.448C575.71 155.565 575.696 155.653 575.696 155.712C575.608 155.917 575.52 156.123 575.432 156.328C575.344 156.533 575.256 156.709 575.168 156.856L574.464 159.584L574.288 160.508L573.892 161.52L573.628 162.356C573.569 162.532 573.525 162.723 573.496 162.928C573.466 163.133 573.408 163.28 573.32 163.368C573.32 163.397 573.305 163.441 573.276 163.5C573.276 163.529 573.276 163.559 573.276 163.588C573.158 164.057 572.953 164.717 572.66 165.568C572.396 166.419 572.234 167.357 572.176 168.384C572.176 168.413 572.161 168.443 572.132 168.472C572.132 168.501 572.132 168.531 572.132 168.56C572.044 169.176 571.853 169.645 571.56 169.968C571.296 170.32 570.944 170.437 570.504 170.32Z" fill="#B8C318"/>
</svg>
