<svg width="900" height="250" viewBox="0 0 900 250" fill="none" xmlns="http://www.w3.org/2000/svg">
<rect y="30" width="900" height="220" rx="60" fill="#E0E772"/>
<rect x="5.5" y="5.5" width="889" height="209" rx="54.5" fill="#FDFDFB" stroke="#B8C318" stroke-width="11"/>
<rect width="384" height="172" transform="translate(258 24)" fill="#FDFDFB"/>
<path d="M306.96 67.46H268.74V71.12H306.96V67.46ZM279.42 83L296.94 81.86C295.86 80.9 294.78 80 293.82 79.22L296.76 77.24H286.38C284.22 79.28 281.82 81.2 279.42 83ZM268.44 77.24V72.44H261.78V60.98H284.82C284.34 59.72 283.8 58.4 283.2 57.38L290.16 55.34C291.18 57.08 292.2 59.18 292.86 60.98H314.22V72.44H307.86V77.24H300.78C304.44 80.18 308.58 83.9 310.8 86.6L305.16 90.38C304.38 89.36 303.3 88.04 301.98 86.66C275.16 88.82 271.92 89.06 269.52 90.02C269.16 88.7 268.2 85.52 267.48 83.84C268.8 83.66 270.12 82.88 271.74 81.68C272.7 81.02 274.86 79.4 277.26 77.24H268.44ZM291.6 104.3H314.76V110.6H261.6V104.3H284.28V99.14H266.82V93.02H284.28V88.46H291.6V93.02H309.96V99.14H291.6V104.3ZM369.9 76.46H358.5C360.6 83.06 364.14 88.28 369.9 91.46V76.46ZM336.06 76.46V92.12C341.94 88.88 345.72 83.48 347.7 76.46H336.06ZM377.22 69.5V103.88C377.22 107.78 376.44 109.76 373.86 110.96C371.34 112.1 367.62 112.16 362.34 112.16C362.1 110.12 361.02 106.88 360 104.96C363.3 105.08 367.32 105.08 368.46 105.08C369.54 105.08 369.9 104.72 369.9 103.76V93.02C368.46 94.58 366.78 96.74 365.88 98.24C359.58 94.52 355.5 88.88 352.98 81.98C350.34 89.48 346.08 95 339.3 98.6C338.64 97.52 337.32 95.72 336.06 94.34V112.22H328.8V69.5H350.04C349.86 68 349.74 66.44 349.62 64.88H339.48V58.64H355.8C355.92 62.48 356.28 66.08 356.82 69.5H377.22ZM420.78 68.9H415.86C414.96 78.98 411.9 84.14 394.56 86.42C394.14 84.68 392.52 81.92 391.2 80.54C405.78 79.1 407.94 76.04 408.54 68.9H398.46V77.06H391.44V62.42H413.52C412.92 60.8 412.32 59.18 411.66 57.74L419.16 55.64C420.24 57.68 421.5 60.26 422.34 62.42H443.76V75.92H436.32V68.9H427.86V76.16C427.86 77.84 428.16 78.44 429.96 78.44H438.9C440.58 78.44 443.28 78.32 444.6 78.02C444.78 79.88 444.96 82.64 445.2 84.32C444 84.74 441.36 84.8 439.14 84.8H429.84C422.7 84.8 420.78 82.52 420.78 76.04V68.9ZM421.74 94.58V104.24H444V110.96H391.5V104.24H414.18V94.58H398.22V87.98H438.18V94.58H421.74ZM466.44 98.36L471.66 100.34C468.96 105.02 464.28 109.76 459.48 112.16C458.46 110.6 456.48 108.26 455.04 107C459.42 105.32 464.04 101.84 466.44 98.36ZM492.66 97.58H478.74V112.1H472.02V97.58H457.2V92.18H464.1C463.5 90.2 462 87.32 460.44 85.34L465.84 83.18C467.52 85.34 469.26 88.16 469.8 90.14L464.82 92.18H472.02V83.12H478.74V92.18H483.78L480.54 90.92C481.92 88.82 483.72 85.64 484.68 83.42L490.98 85.34C489 87.8 487.02 90.32 485.46 92.18H492.66V97.58ZM479.4 102.02L483.48 98.18C487.08 100.64 492.06 104.36 494.52 106.82L490.26 111.2C487.92 108.68 483.06 104.78 479.4 102.02ZM461.76 76.58H500.64C500.46 92.9 501.06 104.96 504.54 104.96C505.44 104.96 505.74 101.66 505.8 96.56C507.18 98.3 508.92 100.1 510.36 101.12C509.88 108.8 508.5 112.1 504 112.1C495.06 112.1 493.68 99.44 493.44 81.92H461.1V77.18C460.38 77.84 459.72 78.44 459 78.98C458.04 77.54 455.52 74.54 454.02 73.16C459.6 69.32 464.64 62.96 467.4 56.24L474.36 58.34C473.94 59.3 473.46 60.32 472.92 61.34H508.08V66.68H469.86C469.38 67.46 468.84 68.24 468.3 69.02H503.04V74.18H468V69.44C466.02 72.08 463.98 74.54 461.76 76.58ZM557.7 73.46V65.36H536.7V73.46H557.7ZM564.96 58.52V80.24H529.8V58.52H564.96ZM537.24 92.06H528.3V102.38H537.24V92.06ZM521.58 112.22V85.22H544.38V111.92H537.24V109.22H528.3V112.22H521.58ZM556.32 102.38H565.86V92.06H556.32V102.38ZM549.48 85.22H573.06V111.98H565.86V109.22H556.32V112.22H549.48V85.22ZM599.52 70.4H594.3C593.28 73.46 591.6 76.4 588.6 78.8C587.7 77.54 585.24 75.08 583.98 74.24C588.54 70.82 589.2 66.56 589.2 63.08V59.06C595.44 58.7 602.64 57.8 606.84 56.36L610.8 60.5C606.6 62 600.84 62.78 595.32 63.26C595.32 63.86 595.32 64.52 595.26 65.18H611.58V70.4H605.82V76.52H599.52V70.4ZM624.24 84.62V81.92H599.46V84.62H624.24ZM624.24 91.34V88.58H599.46V91.34H624.24ZM624.24 98.06V95.36H599.46V98.06H624.24ZM630.42 76.7H624V70.4H618.84C618.12 73.04 616.92 75.56 614.88 77.66H631.44V102.38H623.52C629.16 104.06 634.86 106.04 638.64 107.54L635.34 112.52C631.08 110.6 623.94 107.9 617.28 105.86L619.44 102.38H603.9L607.8 104.66C602.64 107.54 594.54 110.78 588.48 112.58C587.88 111.32 586.14 108.02 585.06 106.58C590.04 105.62 596.1 104.12 600.54 102.38H592.62V77.66H614.1C612.84 76.58 610.56 75.08 609.36 74.48C613.2 71.06 613.68 66.68 613.68 63.26V58.88C620.4 58.58 628.02 57.68 632.22 56.24L636.66 60.2C632.1 61.76 625.68 62.66 619.68 63.08V63.38C619.68 63.98 619.68 64.58 619.62 65.18H638.88V70.4H630.42V76.7Z" fill="#594A39"/>
<path d="M295.657 170.804C295.452 170.481 295.1 170.276 294.601 170.188C294.103 170.1 293.34 170.085 292.313 170.144C291.903 170.203 291.477 170.173 291.037 170.056C290.597 169.939 290.245 169.763 289.981 169.528C289.717 169.293 289.615 169.059 289.673 168.824C289.703 168.472 290.113 168.091 290.905 167.68C291.697 167.269 292.724 167.049 293.985 167.02L295.833 166.976L296.273 166.096C296.391 165.773 296.479 165.421 296.537 165.04C296.625 164.659 296.772 164.131 296.977 163.456C297.095 163.045 297.271 162.473 297.505 161.74C297.74 161.007 297.989 160.229 298.253 159.408C298.517 158.557 298.752 157.795 298.957 157.12C299.163 156.445 299.295 155.976 299.353 155.712C299.471 155.448 299.632 155.008 299.837 154.392C300.043 153.747 300.233 153.101 300.409 152.456C300.615 151.781 300.747 151.297 300.805 151.004C301.568 148.687 302.067 147.073 302.301 146.164C302.536 145.225 302.595 144.741 302.477 144.712C302.36 144.712 302.081 144.727 301.641 144.756C301.201 144.785 300.717 144.829 300.189 144.888C299.661 144.917 299.192 144.961 298.781 145.02C298.371 145.079 298.121 145.137 298.033 145.196C297.887 145.401 297.637 145.372 297.285 145.108C296.933 144.815 296.713 144.521 296.625 144.228C296.596 143.964 296.596 143.715 296.625 143.48C296.655 143.245 296.743 143.084 296.889 142.996C297.095 142.82 297.52 142.629 298.165 142.424C298.811 142.189 299.529 141.984 300.321 141.808C301.143 141.632 301.891 141.5 302.565 141.412C303.064 141.353 303.563 141.251 304.061 141.104C304.56 140.928 304.956 140.723 305.249 140.488C305.513 140.4 305.763 140.327 305.997 140.268C306.261 140.209 306.525 140.195 306.789 140.224C307.024 140.371 307.42 140.444 307.977 140.444C308.564 140.444 309.18 140.429 309.825 140.4C311.468 140.253 312.612 140.312 313.257 140.576C313.932 140.811 314.372 141.133 314.577 141.544C314.724 142.101 314.695 142.571 314.489 142.952C314.284 143.304 313.932 143.465 313.433 143.436C313.169 143.495 312.803 143.553 312.333 143.612C311.864 143.641 311.248 143.671 310.485 143.7C308.549 143.876 307.508 144.081 307.361 144.316C307.244 144.433 307.141 144.551 307.053 144.668C306.995 144.785 306.907 144.917 306.789 145.064C306.819 145.181 306.745 145.533 306.569 146.12C306.423 146.677 306.232 147.279 305.997 147.924C305.88 148.305 305.704 148.848 305.469 149.552C305.235 150.256 304.985 150.989 304.721 151.752C304.487 152.485 304.267 153.16 304.061 153.776C303.856 154.363 303.709 154.759 303.621 154.964C303.504 155.228 303.401 155.521 303.313 155.844C303.255 156.137 303.211 156.357 303.181 156.504C302.771 157.941 302.419 159.144 302.125 160.112C301.861 161.08 301.627 161.931 301.421 162.664C301.216 163.368 301.025 164.057 300.849 164.732C300.673 165.377 300.468 166.111 300.233 166.932C300.233 166.932 300.483 166.917 300.981 166.888C301.48 166.829 302.111 166.771 302.873 166.712C304.252 166.565 305.191 166.477 305.689 166.448C306.188 166.419 306.481 166.463 306.569 166.58C306.657 166.668 306.745 166.844 306.833 167.108C307.42 167.9 307.376 168.56 306.701 169.088C306.056 169.616 304.912 169.865 303.269 169.836C301.744 169.895 300.615 169.939 299.881 169.968C299.177 170.027 298.723 170.1 298.517 170.188C298.312 170.276 298.209 170.423 298.209 170.628C298.239 171.097 297.945 171.376 297.329 171.464C296.743 171.581 296.185 171.361 295.657 170.804ZM328.28 167.944C327.634 167.885 327.092 167.753 326.652 167.548C326.241 167.313 325.904 166.859 325.64 166.184C325.522 165.715 325.464 165.231 325.464 164.732C325.493 164.204 325.537 163.705 325.596 163.236C325.654 162.737 325.684 162.312 325.684 161.96C325.684 161.901 325.684 161.784 325.684 161.608C325.684 161.432 325.684 161.271 325.684 161.124C325.625 160.684 325.508 160.42 325.332 160.332C325.185 160.215 324.921 160.229 324.54 160.376C323.924 160.669 323.249 161.065 322.516 161.564C321.812 162.033 321.064 162.591 320.272 163.236C319.509 163.852 318.717 164.512 317.896 165.216C317.25 165.92 316.766 166.492 316.444 166.932C316.15 167.372 315.842 167.592 315.52 167.592C315.285 167.709 315.036 167.68 314.772 167.504C314.508 167.328 314.229 167.123 313.936 166.888C313.73 166.653 313.481 166.36 313.188 166.008C312.924 165.627 312.762 165.377 312.704 165.26C312.704 164.791 312.733 164.365 312.792 163.984C312.88 163.603 312.997 163.207 313.144 162.796C313.32 162.385 313.525 161.916 313.76 161.388C313.877 161.183 313.98 160.977 314.068 160.772C314.185 160.537 314.317 160.288 314.464 160.024C314.581 159.613 314.742 159.144 314.948 158.616C315.182 158.088 315.402 157.589 315.608 157.12C315.93 156.357 316.18 155.697 316.356 155.14C316.532 154.583 316.678 153.981 316.796 153.336C316.766 153.277 316.781 153.189 316.84 153.072C316.898 152.955 316.986 152.881 317.104 152.852H317.148H317.192C317.397 152.705 317.778 152.691 318.336 152.808C318.922 152.896 319.362 153.057 319.656 153.292C320.272 153.82 320.565 154.509 320.536 155.36C320.506 156.211 320.066 157.325 319.216 158.704C319.01 159.173 318.79 159.613 318.556 160.024C318.35 160.405 318.248 160.669 318.248 160.816C318.248 160.816 318.365 160.728 318.6 160.552C318.834 160.376 319.113 160.171 319.436 159.936C319.758 159.672 320.037 159.467 320.272 159.32C320.418 159.173 320.741 158.909 321.24 158.528C321.738 158.117 322.281 157.692 322.868 157.252C323.454 156.812 323.924 156.475 324.276 156.24C324.598 156.005 325.009 155.771 325.508 155.536C326.006 155.272 326.314 155.14 326.432 155.14C326.725 155.14 327.077 155.243 327.488 155.448C327.928 155.653 328.324 155.903 328.676 156.196C329.057 156.46 329.277 156.709 329.336 156.944C329.336 157.061 329.321 157.223 329.292 157.428C329.262 157.604 329.248 157.765 329.248 157.912C329.218 158.381 329.204 158.953 329.204 159.628C329.233 160.273 329.248 160.933 329.248 161.608C329.248 162.253 329.189 162.84 329.072 163.368C329.072 163.368 329.086 163.397 329.116 163.456C329.145 163.485 329.174 163.544 329.204 163.632C329.174 163.661 329.16 163.72 329.16 163.808C329.189 163.867 329.204 163.896 329.204 163.896C329.262 164.101 329.321 164.307 329.38 164.512C329.468 164.717 329.57 164.952 329.688 165.216C329.805 165.451 329.937 165.759 330.084 166.14C330.054 166.521 329.834 166.903 329.424 167.284C329.042 167.636 328.661 167.856 328.28 167.944ZM349.531 168.956C349.091 168.985 348.68 169 348.299 169C347.947 169 347.668 168.941 347.463 168.824C346.935 168.384 346.583 168.032 346.407 167.768C346.26 167.504 346.187 167.211 346.187 166.888C346.216 166.477 346.231 166.067 346.231 165.656C346.231 165.216 346.231 164.879 346.231 164.644C346.113 164.527 345.879 164.659 345.527 165.04C345.175 165.421 344.764 165.788 344.295 166.14C343.385 167.167 342.579 167.915 341.875 168.384C341.171 168.824 340.525 169.073 339.939 169.132C339.352 169.22 338.765 169.235 338.179 169.176C337.651 169.117 337.181 168.853 336.771 168.384C336.389 167.915 336.096 167.343 335.891 166.668C335.715 165.993 335.656 165.333 335.715 164.688C335.861 163.485 336.125 162.4 336.507 161.432C336.888 160.435 337.46 159.393 338.223 158.308C338.575 157.839 339.044 157.325 339.631 156.768C340.247 156.211 340.907 155.697 341.611 155.228C342.315 154.729 342.945 154.377 343.503 154.172C344.353 153.791 345.057 153.615 345.615 153.644C346.201 153.673 346.773 153.761 347.331 153.908C347.741 154.113 348.064 154.216 348.299 154.216C348.563 154.216 348.753 154.069 348.871 153.776C349.047 153.541 349.179 153.248 349.267 152.896C349.355 152.544 349.501 152.207 349.707 151.884L350.675 149.024C350.997 148.232 351.379 147.323 351.819 146.296C352.259 145.269 352.757 144.125 353.315 142.864C353.989 141.72 354.561 141.119 355.031 141.06C355.529 141.001 356.043 141.265 356.571 141.852C356.923 142.204 357.113 142.644 357.143 143.172C357.201 143.671 357.069 144.257 356.747 144.932C356.541 145.255 356.321 145.665 356.087 146.164C355.852 146.633 355.573 147.191 355.251 147.836C354.928 148.599 354.591 149.361 354.239 150.124C353.916 150.887 353.579 151.723 353.227 152.632C353.109 153.101 352.948 153.644 352.743 154.26C352.567 154.876 352.42 155.433 352.303 155.932C352.215 156.401 352.112 156.841 351.995 157.252C351.907 157.633 351.804 157.824 351.687 157.824C351.452 158.029 351.232 158.469 351.027 159.144C350.821 159.789 350.645 160.479 350.499 161.212C350.381 161.945 350.279 162.547 350.191 163.016C350.132 163.368 350.088 163.867 350.059 164.512C350.029 165.128 350.015 165.729 350.015 166.316C350.015 166.873 350.015 167.255 350.015 167.46C350.015 168.017 349.971 168.413 349.883 168.648C349.824 168.853 349.707 168.956 349.531 168.956ZM339.587 165.48C340.261 165.48 340.892 165.201 341.479 164.644C342.095 164.057 342.769 163.441 343.503 162.796C343.943 162.356 344.397 161.872 344.867 161.344C345.336 160.787 345.761 160.244 346.143 159.716C346.553 159.188 346.876 158.733 347.111 158.352C347.345 157.971 347.463 157.721 347.463 157.604C347.463 157.457 347.345 157.325 347.111 157.208C346.905 157.091 346.656 157.003 346.363 156.944C346.069 156.856 345.805 156.841 345.571 156.9C344.867 157.105 344.295 157.413 343.855 157.824C343.444 158.235 342.843 158.88 342.051 159.76C341.259 160.728 340.628 161.652 340.159 162.532C339.689 163.412 339.396 164.131 339.279 164.688C339.191 165.216 339.293 165.48 339.587 165.48ZM361.118 168.692C360.737 168.692 360.429 168.619 360.194 168.472C359.989 168.325 359.725 168.12 359.402 167.856C358.845 167.269 358.39 166.639 358.038 165.964C357.715 165.289 357.598 164.703 357.686 164.204C357.774 163.969 357.803 163.749 357.774 163.544C357.774 163.309 357.774 163.192 357.774 163.192C357.627 163.045 357.583 162.957 357.642 162.928C357.701 162.869 357.759 162.781 357.818 162.664C357.994 162.664 358.053 162.503 357.994 162.18C357.935 161.945 358.023 161.447 358.258 160.684C358.522 159.892 358.874 159.144 359.314 158.44C359.49 158.147 359.754 157.765 360.106 157.296C360.458 156.797 360.839 156.313 361.25 155.844C361.69 155.345 362.086 154.949 362.438 154.656C363.171 154.04 363.846 153.541 364.462 153.16C365.107 152.779 365.753 152.515 366.398 152.368C367.043 152.221 367.703 152.148 368.378 152.148C369.082 152.148 369.654 152.383 370.094 152.852C370.769 153.145 371.238 153.541 371.502 154.04C371.795 154.539 371.986 155.184 372.074 155.976C372.162 156.856 372.074 157.941 371.81 159.232C371.546 160.493 370.827 161.96 369.654 163.632C368.921 164.688 368.202 165.509 367.498 166.096C366.794 166.683 366.017 167.225 365.166 167.724C364.55 168.135 363.89 168.384 363.186 168.472C362.482 168.56 361.793 168.633 361.118 168.692ZM365.606 163.324C366.251 162.767 366.706 162.151 366.97 161.476C367.263 160.801 367.571 160.009 367.894 159.1C368.011 158.924 368.085 158.631 368.114 158.22C368.173 157.809 368.187 157.413 368.158 157.032C368.129 156.621 368.026 156.387 367.85 156.328C367.586 156.123 367.322 156.079 367.058 156.196C366.794 156.284 366.457 156.475 366.046 156.768C365.166 157.501 364.345 158.352 363.582 159.32C362.849 160.259 362.335 161.417 362.042 162.796C361.954 163.529 362.027 164.087 362.262 164.468C362.526 164.82 362.937 164.923 363.494 164.776C364.081 164.6 364.785 164.116 365.606 163.324ZM381.767 168.648C381.151 168.765 380.682 168.736 380.359 168.56C380.066 168.355 379.758 168.105 379.435 167.812C378.966 167.577 378.541 167.255 378.159 166.844C377.778 166.404 377.485 165.949 377.279 165.48C377.074 165.011 376.986 164.644 377.015 164.38C377.103 163.353 377.338 162.239 377.719 161.036C378.13 159.833 378.643 158.66 379.259 157.516C379.905 156.372 380.623 155.36 381.415 154.48C382.237 153.571 383.117 152.911 384.055 152.5C384.642 152.265 385.273 152.177 385.947 152.236C386.622 152.295 387.077 152.573 387.311 153.072C387.751 153.923 387.649 154.465 387.003 154.7C386.915 154.7 386.813 154.744 386.695 154.832C386.578 154.891 386.519 154.979 386.519 155.096C386.637 155.155 386.959 155.169 387.487 155.14C388.015 155.081 388.543 154.993 389.071 154.876C389.629 154.729 389.995 154.583 390.171 154.436C390.347 154.348 390.479 154.304 390.567 154.304C390.655 154.304 390.875 154.333 391.227 154.392C391.726 154.539 391.975 154.715 391.975 154.92C391.975 155.037 392.019 155.228 392.107 155.492C392.195 155.727 392.298 155.844 392.415 155.844C392.621 155.873 392.665 156.079 392.547 156.46C392.459 156.841 392.122 157.237 391.535 157.648C390.978 158 390.626 158.235 390.479 158.352C390.362 158.44 390.347 158.645 390.435 158.968C390.67 159.525 390.655 160.2 390.391 160.992C390.127 161.784 389.687 162.605 389.071 163.456C388.455 164.307 387.722 165.113 386.871 165.876C386.05 166.609 385.185 167.24 384.275 167.768C383.395 168.267 382.559 168.56 381.767 168.648ZM381.899 164.952C382.017 164.952 382.222 164.893 382.515 164.776C382.809 164.629 383.043 164.512 383.219 164.424C383.337 164.307 383.483 164.175 383.659 164.028C383.865 163.852 384.026 163.749 384.143 163.72C384.261 163.72 384.334 163.676 384.363 163.588C384.393 163.471 384.495 163.251 384.671 162.928C384.847 162.576 385.199 162.063 385.727 161.388C386.314 160.743 386.695 160.229 386.871 159.848C387.047 159.437 387.062 158.997 386.915 158.528C386.886 158.411 386.798 158.337 386.651 158.308C386.534 158.279 386.373 158.205 386.167 158.088C385.874 158.088 385.669 158.161 385.551 158.308C385.463 158.425 385.258 158.352 384.935 158.088L384.231 157.208L383.483 157.956C383.014 158.425 382.589 159.012 382.207 159.716C381.855 160.42 381.577 161.139 381.371 161.872C381.166 162.605 381.034 163.251 380.975 163.808C380.946 164.248 381.019 164.541 381.195 164.688C381.371 164.835 381.606 164.923 381.899 164.952ZM398.369 168.34C398.163 168.34 397.885 168.193 397.533 167.9C397.21 167.607 397.019 167.343 396.961 167.108C396.873 166.873 396.873 166.536 396.961 166.096C397.078 165.627 397.239 165.084 397.445 164.468C397.679 163.5 397.841 162.796 397.929 162.356C398.017 161.916 398.105 161.535 398.193 161.212C398.281 160.889 398.398 160.42 398.545 159.804C398.721 159.423 398.853 159.056 398.941 158.704C399.058 158.323 399.175 157.941 399.293 157.56C399.439 157.179 399.601 156.797 399.777 156.416C399.982 155.653 400.231 154.935 400.525 154.26C400.847 153.556 401.155 152.969 401.449 152.5C401.507 152.412 401.639 152.251 401.845 152.016C402.05 151.781 402.211 151.664 402.329 151.664C402.563 151.429 402.886 151.356 403.297 151.444C403.707 151.503 404.059 151.649 404.353 151.884C404.705 152.265 404.895 152.72 404.925 153.248C404.983 153.747 404.778 154.451 404.309 155.36C403.957 156.269 403.619 156.988 403.297 157.516C403.003 158.015 402.71 158.601 402.417 159.276C402.739 158.807 403.135 158.323 403.605 157.824C404.074 157.325 404.441 156.929 404.705 156.636C405.086 156.225 405.438 155.903 405.761 155.668C406.113 155.404 406.582 155.081 407.169 154.7C407.667 154.348 408.166 154.025 408.665 153.732C409.193 153.439 409.823 153.351 410.557 153.468C410.85 153.439 411.158 153.585 411.481 153.908C411.833 154.231 412.097 154.656 412.273 155.184C412.478 155.683 412.478 156.225 412.273 156.812C411.598 156.665 410.997 156.695 410.469 156.9C409.941 157.076 409.486 157.296 409.105 157.56C408.753 157.824 408.474 158.029 408.269 158.176C407.975 158.352 407.638 158.587 407.257 158.88C406.875 159.144 406.465 159.452 406.025 159.804C405.585 160.127 405.115 160.493 404.617 160.904C403.913 161.491 403.385 162.004 403.033 162.444C402.681 162.884 402.402 163.353 402.197 163.852C402.021 164.292 401.801 164.82 401.537 165.436C401.273 166.052 401.023 166.609 400.789 167.108C400.554 167.577 400.363 167.871 400.217 167.988C400.07 168.281 399.762 168.443 399.293 168.472C398.853 168.501 398.545 168.457 398.369 168.34ZM433.196 168.208C432.844 168.296 432.448 168.193 432.008 167.9C431.568 167.607 431.172 167.24 430.82 166.8C430.468 166.36 430.248 165.964 430.16 165.612C430.043 164.996 430.072 164.248 430.248 163.368C430.454 162.459 430.791 161.505 431.26 160.508C431.73 159.481 432.316 158.484 433.02 157.516C433.724 156.519 434.516 155.624 435.396 154.832C436.276 154.04 437.23 153.424 438.256 152.984C438.696 152.749 439.004 152.603 439.18 152.544C439.356 152.456 439.532 152.456 439.708 152.544C439.884 152.603 440.192 152.749 440.632 152.984C441.043 153.101 441.454 153.248 441.864 153.424C442.304 153.571 442.686 153.864 443.008 154.304C443.243 154.744 443.419 155.184 443.536 155.624C443.654 156.064 443.756 156.563 443.844 157.12C444.079 157.853 444.167 158.337 444.108 158.572C444.05 158.777 443.962 158.939 443.844 159.056C443.61 159.349 443.551 159.496 443.668 159.496C443.668 159.496 443.654 159.555 443.624 159.672C443.624 159.76 443.566 159.907 443.448 160.112C443.243 160.757 443.082 161.373 442.964 161.96C442.876 162.517 442.891 163.016 443.008 163.456C443.243 164.101 443.551 164.483 443.932 164.6C444.343 164.717 444.871 164.453 445.516 163.808C445.839 163.573 446.206 163.427 446.616 163.368C447.027 163.28 447.232 163.353 447.232 163.588C447.232 163.588 447.276 163.632 447.364 163.72C447.452 163.779 447.555 163.808 447.672 163.808C447.819 163.808 447.878 163.955 447.848 164.248C447.819 164.512 447.76 164.82 447.672 165.172C447.584 165.524 447.467 165.817 447.32 166.052C446.88 166.492 446.66 166.785 446.66 166.932C446.66 166.932 446.602 166.991 446.484 167.108C446.396 167.196 446.235 167.343 446 167.548C445.472 167.871 444.798 168.032 443.976 168.032C443.184 168.032 442.568 167.871 442.128 167.548C441.688 167.225 441.248 166.829 440.808 166.36C440.398 165.891 440.134 165.451 440.016 165.04L439.796 164.6L438.52 165.436C438.198 165.759 437.963 166.008 437.816 166.184C437.67 166.331 437.538 166.463 437.42 166.58C437.332 166.697 437.23 166.8 437.112 166.888C437.024 166.976 436.922 167.02 436.804 167.02C436.687 167.02 436.584 167.02 436.496 167.02C436.408 167.02 436.364 167.02 436.364 167.02C436.364 167.137 436.159 167.299 435.748 167.504C435.338 167.68 434.883 167.841 434.384 167.988C433.886 168.135 433.49 168.208 433.196 168.208ZM434.12 164.512C434.296 164.512 434.56 164.409 434.912 164.204C435.294 163.969 435.704 163.691 436.144 163.368C436.584 163.045 436.98 162.723 437.332 162.4C437.714 162.077 437.992 161.813 438.168 161.608C438.286 161.491 438.418 161.3 438.564 161.036C438.74 160.772 438.931 160.537 439.136 160.332C439.811 159.569 440.236 158.968 440.412 158.528C440.588 158.059 440.515 157.56 440.192 157.032C440.075 156.709 439.928 156.533 439.752 156.504C439.576 156.475 439.21 156.577 438.652 156.812C438.3 157.017 437.919 157.355 437.508 157.824C437.098 158.293 436.672 158.821 436.232 159.408C435.822 159.995 435.44 160.596 435.088 161.212C434.736 161.828 434.443 162.385 434.208 162.884C434.003 163.383 433.9 163.779 433.9 164.072C433.9 164.189 433.93 164.292 433.988 164.38C434.076 164.468 434.12 164.512 434.12 164.512ZM452.686 168.252C452.451 168.017 452.275 167.665 452.158 167.196C452.07 166.727 452.041 166.272 452.07 165.832C452.099 165.363 452.173 165.011 452.29 164.776C452.29 164.541 452.319 164.365 452.378 164.248C452.466 164.101 452.495 163.969 452.466 163.852C452.437 163.735 452.466 163.529 452.554 163.236C452.642 162.943 452.73 162.664 452.818 162.4C453.023 161.931 453.258 161.329 453.522 160.596C453.786 159.833 454.05 159.071 454.314 158.308C454.578 157.516 454.798 156.841 454.974 156.284C455.15 155.697 455.253 155.345 455.282 155.228C455.282 154.876 455.517 154.685 455.986 154.656C456.338 154.539 456.763 154.685 457.262 155.096C457.761 155.507 458.157 155.947 458.45 156.416C458.685 156.651 458.773 156.959 458.714 157.34C458.655 157.721 458.465 158.264 458.142 158.968C458.025 159.203 457.878 159.599 457.702 160.156C457.555 160.684 457.453 161.124 457.394 161.476C457.277 161.711 457.13 162.048 456.954 162.488C456.807 162.899 456.675 163.295 456.558 163.676C456.499 163.823 456.441 164.101 456.382 164.512C456.323 164.893 456.25 165.289 456.162 165.7C456.074 166.111 455.957 166.433 455.81 166.668C455.546 167.871 455.077 168.575 454.402 168.78C453.757 168.985 453.185 168.809 452.686 168.252ZM457.438 150.608C457.115 150.373 456.866 150.095 456.69 149.772C456.543 149.42 456.455 149.112 456.426 148.848C456.426 148.584 456.455 148.423 456.514 148.364C456.807 148.041 457.057 147.616 457.262 147.088C457.497 146.56 457.746 146.076 458.01 145.636C458.069 145.548 458.142 145.431 458.23 145.284C458.347 145.108 458.465 145.005 458.582 144.976C458.934 144.741 459.418 144.756 460.034 145.02C460.679 145.284 461.149 145.651 461.442 146.12C461.706 146.677 461.779 147.249 461.662 147.836C461.574 148.423 461.266 149.039 460.738 149.684C460.298 150.271 459.741 150.652 459.066 150.828C458.391 150.975 457.849 150.901 457.438 150.608ZM465.547 167.812C465.283 167.607 464.989 167.343 464.667 167.02C464.373 166.697 464.271 166.243 464.359 165.656C464.447 164.835 464.564 164.116 464.711 163.5C464.857 162.855 465.033 162.121 465.239 161.3C465.297 160.948 465.444 160.347 465.679 159.496C465.943 158.645 466.251 157.721 466.603 156.724C466.955 155.727 467.321 154.788 467.703 153.908C468.084 152.999 468.421 152.324 468.715 151.884C469.037 151.591 469.507 151.444 470.123 151.444C470.768 151.444 471.208 151.561 471.443 151.796C471.765 152.06 471.868 152.529 471.751 153.204C471.633 153.849 471.223 154.861 470.519 156.24C470.372 156.592 470.181 156.973 469.947 157.384C469.741 157.765 469.595 158.088 469.507 158.352C469.419 158.587 469.448 158.689 469.595 158.66C469.771 158.337 470.093 157.971 470.563 157.56C471.032 157.12 471.531 156.695 472.059 156.284C472.587 155.873 473.085 155.507 473.555 155.184C474.024 154.861 474.347 154.656 474.523 154.568C474.757 154.421 475.021 154.304 475.315 154.216C475.637 154.099 475.857 154.011 475.975 153.952C476.649 153.629 477.383 153.512 478.175 153.6C478.996 153.659 479.495 153.908 479.671 154.348C479.7 154.583 479.788 154.759 479.935 154.876C480.111 154.993 480.199 155.052 480.199 155.052C480.316 155.052 480.375 155.096 480.375 155.184C480.404 155.272 480.419 155.316 480.419 155.316C480.419 155.521 480.213 155.815 479.803 156.196C479.421 156.577 478.996 156.783 478.527 156.812C478.145 156.841 477.808 156.915 477.515 157.032C477.221 157.149 476.869 157.296 476.459 157.472C475.344 158.117 474.332 158.689 473.423 159.188C472.543 159.687 471.633 160.449 470.695 161.476C470.489 161.711 470.269 161.931 470.035 162.136C469.8 162.341 469.565 162.635 469.331 163.016C469.184 163.163 469.037 163.485 468.891 163.984C468.744 164.483 468.612 164.967 468.495 165.436C468.407 165.876 468.363 166.14 468.363 166.228C468.363 166.228 468.319 166.375 468.231 166.668C468.143 166.932 467.996 167.196 467.791 167.46C467.439 167.929 467.087 168.223 466.735 168.34C466.412 168.457 466.016 168.281 465.547 167.812ZM503.323 178.944C502.941 178.827 502.589 178.621 502.267 178.328C501.944 178.064 501.768 177.668 501.739 177.14C501.739 176.817 501.797 176.392 501.915 175.864C502.032 175.336 502.164 174.72 502.311 174.016C502.311 173.899 502.369 173.561 502.487 173.004C502.633 172.476 502.78 172.036 502.927 171.684C503.132 170.921 503.352 170.159 503.587 169.396C503.851 168.633 504.129 167.856 504.423 167.064C504.863 165.832 505.273 164.791 505.655 163.94C506.065 163.06 506.417 162.429 506.711 162.048L512.871 154.26C513.281 154.26 513.516 154.319 513.575 154.436C513.633 154.553 513.663 154.817 513.663 155.228C513.663 155.668 513.648 155.991 513.619 156.196C513.619 156.372 513.501 156.577 513.267 156.812H513.311C513.369 156.753 513.355 156.827 513.267 157.032C513.179 157.208 513.105 157.34 513.047 157.428C512.988 157.575 512.915 157.736 512.827 157.912C512.768 158.088 512.695 158.22 512.607 158.308C512.519 158.396 512.313 158.748 511.991 159.364C511.668 159.98 511.301 160.699 510.891 161.52C510.48 162.312 510.084 163.089 509.703 163.852C509.351 164.585 509.087 165.157 508.911 165.568C508.823 165.773 508.72 166.023 508.603 166.316C508.515 166.58 508.383 166.976 508.207 167.504C508.031 168.032 507.752 168.795 507.371 169.792L507.151 170.628L506.755 171.508C506.549 172.065 506.403 172.432 506.315 172.608C506.256 172.784 506.227 172.931 506.227 173.048C506.109 173.664 505.963 174.383 505.787 175.204C505.64 176.025 505.537 176.803 505.479 177.536C505.479 177.859 505.244 178.211 504.775 178.592C504.305 178.973 503.821 179.091 503.323 178.944ZM501.827 162.312C501.885 162.957 502.311 163.119 503.103 162.796C503.895 162.473 504.936 161.681 506.227 160.42C506.843 159.863 507.356 159.335 507.767 158.836C508.177 158.308 508.632 157.765 509.131 157.208C509.277 156.885 509.409 156.621 509.527 156.416C509.673 156.181 509.761 155.961 509.791 155.756C509.908 155.257 509.893 154.935 509.747 154.788C509.629 154.641 509.497 154.568 509.351 154.568C509.145 154.568 508.793 154.671 508.295 154.876C507.796 155.052 507.341 155.301 506.931 155.624C505.64 156.299 504.613 157.047 503.851 157.868C503.088 158.66 502.545 159.452 502.223 160.244C501.9 161.007 501.768 161.696 501.827 162.312ZM501.915 166.316C501.563 166.316 501.123 166.213 500.595 166.008C500.067 165.803 499.583 165.539 499.143 165.216C498.703 164.893 498.395 164.571 498.219 164.248C498.013 163.749 497.925 163.119 497.955 162.356C498.013 161.564 498.175 160.772 498.439 159.98C498.732 159.159 499.128 158.44 499.627 157.824C499.949 157.237 500.331 156.709 500.771 156.24C501.211 155.771 501.577 155.433 501.871 155.228C502.105 154.993 502.355 154.744 502.619 154.48C502.912 154.216 503.147 154.025 503.323 153.908C503.645 153.673 503.924 153.497 504.159 153.38C504.393 153.233 504.687 153.101 505.039 152.984C505.625 152.573 506.476 152.28 507.591 152.104C508.735 151.899 509.791 151.737 510.759 151.62C511.14 151.532 511.609 151.547 512.167 151.664C512.724 151.752 513.252 151.899 513.751 152.104C514.249 152.28 514.601 152.471 514.807 152.676C514.953 152.911 515.041 153.204 515.071 153.556C515.129 153.908 515.056 154.084 514.851 154.084C514.733 154.084 514.543 154.187 514.279 154.392C514.015 154.568 513.853 154.979 513.795 155.624C513.677 156.445 513.076 157.311 511.991 158.22C510.935 159.129 509.673 160.273 508.207 161.652C507.473 162.444 506.711 163.192 505.919 163.896C505.127 164.6 504.379 165.172 503.675 165.612C503 166.052 502.413 166.287 501.915 166.316ZM529.06 169.264C528.855 169.381 528.576 169.337 528.224 169.132C527.902 168.927 527.579 168.619 527.256 168.208C527.051 167.856 526.89 167.504 526.772 167.152C526.684 166.771 526.64 166.213 526.64 165.48C526.67 164.893 526.67 164.497 526.64 164.292C526.64 164.057 526.508 164.043 526.244 164.248C526.01 164.424 525.526 164.864 524.792 165.568C524.059 166.301 523.355 166.932 522.68 167.46C522.035 167.959 521.507 168.193 521.096 168.164C520.891 168.164 520.612 168.032 520.26 167.768C519.908 167.504 519.571 167.181 519.248 166.8C518.926 166.389 518.691 166.008 518.544 165.656C518.368 164.952 518.354 164.043 518.5 162.928C518.676 161.813 518.955 160.655 519.336 159.452C519.718 158.22 520.143 157.076 520.612 156.02C521.111 154.935 521.595 154.069 522.064 153.424C522.563 152.749 522.988 152.427 523.34 152.456C523.839 152.515 524.264 152.764 524.616 153.204C524.998 153.615 525.291 154.069 525.496 154.568C525.614 154.773 525.658 154.949 525.628 155.096C525.628 155.243 525.511 155.419 525.276 155.624C525.012 155.976 524.69 156.489 524.308 157.164C523.956 157.809 523.59 158.513 523.208 159.276C522.856 160.039 522.534 160.772 522.24 161.476C521.976 162.151 521.786 162.708 521.668 163.148C521.551 163.588 521.551 163.808 521.668 163.808C522.079 163.808 522.46 163.705 522.812 163.5C523.164 163.265 523.604 162.899 524.132 162.4C524.748 161.784 525.291 161.168 525.76 160.552C526.23 159.907 526.714 159.173 527.212 158.352C527.594 157.765 527.99 157.12 528.4 156.416C528.84 155.712 529.119 155.213 529.236 154.92C529.647 154.157 529.955 153.585 530.16 153.204C530.366 152.823 530.615 152.588 530.908 152.5C531.055 152.5 531.26 152.5 531.524 152.5C531.788 152.5 531.92 152.5 531.92 152.5C532.096 152.529 532.302 152.661 532.536 152.896C532.771 153.013 533.006 153.175 533.24 153.38C533.504 153.585 533.636 153.761 533.636 153.908C533.519 154.201 533.328 154.641 533.064 155.228C532.83 155.785 532.654 156.196 532.536 156.46C531.979 157.721 531.436 158.968 530.908 160.2C530.41 161.403 530.043 162.635 529.808 163.896C529.75 164.307 529.735 164.791 529.764 165.348C529.823 165.876 529.911 166.257 530.028 166.492C530.116 166.668 530.219 166.873 530.336 167.108C530.483 167.313 530.644 167.489 530.82 167.636C531.084 167.812 531.07 168.032 530.776 168.296C530.512 168.56 530.175 168.795 529.764 169C529.383 169.176 529.148 169.264 529.06 169.264ZM540.77 168.208C540.418 168.296 540.022 168.193 539.582 167.9C539.142 167.607 538.746 167.24 538.394 166.8C538.042 166.36 537.822 165.964 537.734 165.612C537.616 164.996 537.646 164.248 537.822 163.368C538.027 162.459 538.364 161.505 538.834 160.508C539.303 159.481 539.89 158.484 540.594 157.516C541.298 156.519 542.09 155.624 542.97 154.832C543.85 154.04 544.803 153.424 545.83 152.984C546.27 152.749 546.578 152.603 546.754 152.544C546.93 152.456 547.106 152.456 547.282 152.544C547.458 152.603 547.766 152.749 548.206 152.984C548.616 153.101 549.027 153.248 549.438 153.424C549.878 153.571 550.259 153.864 550.582 154.304C550.816 154.744 550.992 155.184 551.11 155.624C551.227 156.064 551.33 156.563 551.418 157.12C551.652 157.853 551.74 158.337 551.682 158.572C551.623 158.777 551.535 158.939 551.418 159.056C551.183 159.349 551.124 159.496 551.242 159.496C551.242 159.496 551.227 159.555 551.198 159.672C551.198 159.76 551.139 159.907 551.022 160.112C550.816 160.757 550.655 161.373 550.538 161.96C550.45 162.517 550.464 163.016 550.582 163.456C550.816 164.101 551.124 164.483 551.506 164.6C551.916 164.717 552.444 164.453 553.09 163.808C553.412 163.573 553.779 163.427 554.19 163.368C554.6 163.28 554.806 163.353 554.806 163.588C554.806 163.588 554.85 163.632 554.938 163.72C555.026 163.779 555.128 163.808 555.246 163.808C555.392 163.808 555.451 163.955 555.422 164.248C555.392 164.512 555.334 164.82 555.246 165.172C555.158 165.524 555.04 165.817 554.894 166.052C554.454 166.492 554.234 166.785 554.234 166.932C554.234 166.932 554.175 166.991 554.058 167.108C553.97 167.196 553.808 167.343 553.574 167.548C553.046 167.871 552.371 168.032 551.55 168.032C550.758 168.032 550.142 167.871 549.702 167.548C549.262 167.225 548.822 166.829 548.382 166.36C547.971 165.891 547.707 165.451 547.59 165.04L547.37 164.6L546.094 165.436C545.771 165.759 545.536 166.008 545.39 166.184C545.243 166.331 545.111 166.463 544.994 166.58C544.906 166.697 544.803 166.8 544.686 166.888C544.598 166.976 544.495 167.02 544.378 167.02C544.26 167.02 544.158 167.02 544.07 167.02C543.982 167.02 543.938 167.02 543.938 167.02C543.938 167.137 543.732 167.299 543.322 167.504C542.911 167.68 542.456 167.841 541.958 167.988C541.459 168.135 541.063 168.208 540.77 168.208ZM541.694 164.512C541.87 164.512 542.134 164.409 542.486 164.204C542.867 163.969 543.278 163.691 543.718 163.368C544.158 163.045 544.554 162.723 544.906 162.4C545.287 162.077 545.566 161.813 545.742 161.608C545.859 161.491 545.991 161.3 546.138 161.036C546.314 160.772 546.504 160.537 546.71 160.332C547.384 159.569 547.81 158.968 547.986 158.528C548.162 158.059 548.088 157.56 547.766 157.032C547.648 156.709 547.502 156.533 547.326 156.504C547.15 156.475 546.783 156.577 546.226 156.812C545.874 157.017 545.492 157.355 545.082 157.824C544.671 158.293 544.246 158.821 543.806 159.408C543.395 159.995 543.014 160.596 542.662 161.212C542.31 161.828 542.016 162.385 541.782 162.884C541.576 163.383 541.474 163.779 541.474 164.072C541.474 164.189 541.503 164.292 541.562 164.38C541.65 164.468 541.694 164.512 541.694 164.512ZM560.435 170.32C560.054 170.173 559.746 169.939 559.511 169.616C559.277 169.323 559.145 168.883 559.115 168.296C559.086 167.915 559.101 167.357 559.159 166.624C559.218 165.861 559.321 165.099 559.467 164.336C559.467 164.277 559.467 164.219 559.467 164.16C559.497 164.072 559.511 164.013 559.511 163.984C559.541 163.867 559.57 163.691 559.599 163.456C559.629 163.192 559.658 162.987 559.687 162.84C559.746 162.664 559.775 162.649 559.775 162.796L560.039 161.608C560.157 161.08 560.289 160.537 560.435 159.98C560.582 159.423 560.714 158.939 560.831 158.528C560.978 158.088 561.066 157.839 561.095 157.78C561.095 157.78 561.139 157.619 561.227 157.296C561.345 156.944 561.462 156.592 561.579 156.24C562.049 154.773 562.489 153.556 562.899 152.588C563.339 151.62 563.721 150.916 564.043 150.476C564.073 150.388 564.117 150.285 564.175 150.168C564.234 150.021 564.278 149.904 564.307 149.816C564.307 149.493 564.322 149.259 564.351 149.112C564.41 148.965 564.483 148.833 564.571 148.716C564.63 148.599 564.718 148.452 564.835 148.276C564.953 148.071 565.085 147.821 565.231 147.528L565.407 147.044C565.583 146.663 565.803 146.223 566.067 145.724C566.331 145.196 566.522 144.8 566.639 144.536C566.727 144.272 566.903 143.964 567.167 143.612C567.431 143.231 567.725 142.981 568.047 142.864L568.003 142.82C568.15 142.556 568.429 142.351 568.839 142.204C569.25 142.028 569.587 141.94 569.851 141.94C570.262 141.94 570.57 142.057 570.775 142.292C571.01 142.527 571.127 142.849 571.127 143.26C571.127 143.7 571.113 144.023 571.083 144.228C571.083 144.404 570.981 144.609 570.775 144.844H570.819C570.878 144.785 570.863 144.873 570.775 145.108C570.687 145.343 570.614 145.504 570.555 145.592C570.497 145.739 570.423 145.9 570.335 146.076C570.277 146.252 570.203 146.384 570.115 146.472C570.027 146.589 569.793 147 569.411 147.704C569.03 148.379 568.605 149.185 568.135 150.124C567.666 151.033 567.211 151.928 566.771 152.808C566.361 153.659 566.067 154.319 565.891 154.788L565.671 155.448C565.642 155.565 565.627 155.653 565.627 155.712C565.539 155.917 565.451 156.123 565.363 156.328C565.275 156.533 565.187 156.709 565.099 156.856L564.395 159.584L564.219 160.508L563.823 161.52L563.559 162.356C563.501 162.532 563.457 162.723 563.427 162.928C563.398 163.133 563.339 163.28 563.251 163.368C563.251 163.397 563.237 163.441 563.207 163.5C563.207 163.529 563.207 163.559 563.207 163.588C563.09 164.057 562.885 164.717 562.591 165.568C562.327 166.419 562.166 167.357 562.107 168.384C562.107 168.413 562.093 168.443 562.063 168.472C562.063 168.501 562.063 168.531 562.063 168.56C561.975 169.176 561.785 169.645 561.491 169.968C561.227 170.32 560.875 170.437 560.435 170.32ZM571.6 168.252C571.365 168.017 571.189 167.665 571.072 167.196C570.984 166.727 570.954 166.272 570.984 165.832C571.013 165.363 571.086 165.011 571.204 164.776C571.204 164.541 571.233 164.365 571.292 164.248C571.38 164.101 571.409 163.969 571.38 163.852C571.35 163.735 571.38 163.529 571.468 163.236C571.556 162.943 571.644 162.664 571.732 162.4C571.937 161.931 572.172 161.329 572.436 160.596C572.7 159.833 572.964 159.071 573.228 158.308C573.492 157.516 573.712 156.841 573.888 156.284C574.064 155.697 574.166 155.345 574.196 155.228C574.196 154.876 574.43 154.685 574.9 154.656C575.252 154.539 575.677 154.685 576.176 155.096C576.674 155.507 577.07 155.947 577.364 156.416C577.598 156.651 577.686 156.959 577.628 157.34C577.569 157.721 577.378 158.264 577.056 158.968C576.938 159.203 576.792 159.599 576.616 160.156C576.469 160.684 576.366 161.124 576.308 161.476C576.19 161.711 576.044 162.048 575.868 162.488C575.721 162.899 575.589 163.295 575.472 163.676C575.413 163.823 575.354 164.101 575.296 164.512C575.237 164.893 575.164 165.289 575.076 165.7C574.988 166.111 574.87 166.433 574.724 166.668C574.46 167.871 573.99 168.575 573.316 168.78C572.67 168.985 572.098 168.809 571.6 168.252ZM576.352 150.608C576.029 150.373 575.78 150.095 575.604 149.772C575.457 149.42 575.369 149.112 575.34 148.848C575.34 148.584 575.369 148.423 575.428 148.364C575.721 148.041 575.97 147.616 576.176 147.088C576.41 146.56 576.66 146.076 576.924 145.636C576.982 145.548 577.056 145.431 577.144 145.284C577.261 145.108 577.378 145.005 577.496 144.976C577.848 144.741 578.332 144.756 578.948 145.02C579.593 145.284 580.062 145.651 580.356 146.12C580.62 146.677 580.693 147.249 580.576 147.836C580.488 148.423 580.18 149.039 579.652 149.684C579.212 150.271 578.654 150.652 577.98 150.828C577.305 150.975 576.762 150.901 576.352 150.608ZM586.748 169.044C586.426 168.985 586.074 168.795 585.692 168.472C585.311 168.12 584.959 167.739 584.636 167.328C584.343 166.888 584.152 166.521 584.064 166.228C584.064 166.169 584.02 166.096 583.932 166.008C583.874 165.92 583.844 165.876 583.844 165.876C583.727 165.788 583.654 165.407 583.624 164.732C583.624 164.028 583.668 163.251 583.756 162.4C583.844 161.549 583.947 160.875 584.064 160.376C584.211 159.907 584.431 159.276 584.724 158.484C585.018 157.663 585.267 156.929 585.472 156.284L586.66 153.732L584.9 153.248C584.695 153.189 584.519 153.072 584.372 152.896C584.255 152.72 584.196 152.573 584.196 152.456C584.196 152.221 584.328 151.884 584.592 151.444C584.856 151.004 585.047 150.784 585.164 150.784C585.311 150.813 585.575 150.828 585.956 150.828C586.367 150.828 586.763 150.813 587.144 150.784C587.526 150.755 587.76 150.725 587.848 150.696C587.966 150.637 588.083 150.564 588.2 150.476C588.318 150.359 588.406 150.197 588.464 149.992C588.611 149.669 588.743 149.42 588.86 149.244C588.978 149.068 589.139 148.804 589.344 148.452C589.55 148.071 589.711 147.748 589.828 147.484C589.975 147.22 590.195 146.853 590.488 146.384C590.635 146.179 590.796 145.929 590.972 145.636C591.148 145.343 591.368 145.093 591.632 144.888C591.896 144.653 592.322 144.492 592.908 144.404C593.524 144.287 594.052 144.419 594.492 144.8C594.727 145.093 594.859 145.372 594.888 145.636C594.918 145.9 594.8 146.237 594.536 146.648C594.302 147.147 594.023 147.601 593.7 148.012C593.407 148.393 593.128 148.833 592.864 149.332C592.395 149.977 592.307 150.344 592.6 150.432C592.894 150.52 593.715 150.461 595.064 150.256C595.915 150.109 596.531 150.197 596.912 150.52C597.294 150.843 597.514 151.253 597.572 151.752C597.66 152.456 597.587 152.881 597.352 153.028C597.118 153.175 596.443 153.248 595.328 153.248C594.624 153.365 594.023 153.439 593.524 153.468C593.026 153.468 592.659 153.468 592.424 153.468C592.043 153.497 591.794 153.512 591.676 153.512C591.559 153.512 591.383 153.541 591.148 153.6C590.914 153.659 590.738 153.761 590.62 153.908C590.532 154.025 590.43 154.201 590.312 154.436C590.195 154.553 590.019 154.861 589.784 155.36C589.55 155.859 589.256 156.401 588.904 156.988C588.494 158.22 588.142 159.408 587.848 160.552C587.584 161.667 587.35 162.781 587.144 163.896C587.056 164.453 587.071 164.864 587.188 165.128C587.335 165.363 587.716 165.509 588.332 165.568C588.655 165.597 589.124 165.597 589.74 165.568C590.356 165.509 590.87 165.421 591.28 165.304C591.603 165.157 591.94 165.011 592.292 164.864C592.644 164.688 592.967 164.512 593.26 164.336C593.524 164.189 593.788 164.043 594.052 163.896C594.316 163.72 594.448 163.632 594.448 163.632C594.595 163.397 594.8 163.441 595.064 163.764C595.358 164.057 595.563 164.38 595.68 164.732C595.68 165.084 595.607 165.509 595.46 166.008C595.314 166.477 594.771 166.976 593.832 167.504C592.512 168.325 591.192 168.824 589.872 169C588.552 169.176 587.511 169.191 586.748 169.044ZM600.303 180.308C599.657 180.425 599.217 180.44 598.983 180.352C598.748 180.264 598.425 180.117 598.015 179.912C597.692 179.677 597.457 179.501 597.311 179.384C597.164 179.267 597.061 179.149 597.003 179.032C596.709 178.416 596.665 177.961 596.871 177.668C597.076 177.375 597.369 177.184 597.751 177.096C598.161 177.037 598.513 177.008 598.807 177.008C599.012 177.125 599.349 177.184 599.819 177.184C600.317 177.184 600.625 177.125 600.743 177.008C600.743 177.008 600.875 176.92 601.139 176.744C601.432 176.597 601.813 176.48 602.283 176.392C603.192 175.952 603.911 175.497 604.439 175.028C604.967 174.588 605.553 173.825 606.199 172.74C606.463 172.329 606.741 171.845 607.035 171.288C607.328 170.76 607.533 170.232 607.651 169.704C607.885 169.117 608.149 168.325 608.443 167.328C608.765 166.331 609.044 165.348 609.279 164.38C609.513 163.383 609.645 162.635 609.675 162.136C609.851 160.493 610.188 158.909 610.687 157.384C611.185 155.829 611.581 154.187 611.875 152.456C612.051 152.045 612.183 151.811 612.271 151.752C612.359 151.664 612.549 151.62 612.843 151.62C613.165 151.62 613.547 151.723 613.987 151.928C614.427 152.104 614.749 152.353 614.955 152.676C615.248 153.233 615.38 153.893 615.351 154.656C615.351 155.389 615.16 156.035 614.779 156.592C614.485 157.003 614.221 157.648 613.987 158.528C613.781 159.379 613.576 160.449 613.371 161.74C613.224 162.385 613.063 163.148 612.887 164.028C612.74 164.879 612.579 165.832 612.403 166.888C612.285 167.181 612.124 167.636 611.919 168.252C611.713 168.839 611.581 169.308 611.523 169.66C611.493 169.777 611.405 170.012 611.259 170.364C611.112 170.716 610.965 171.053 610.819 171.376C610.672 171.728 610.569 171.963 610.511 172.08C609.103 174.925 607.475 176.979 605.627 178.24C603.808 179.501 602.033 180.191 600.303 180.308ZM603.999 167.856C603.676 167.856 603.339 167.68 602.987 167.328C602.664 166.976 602.444 166.697 602.327 166.492C602.209 166.199 601.989 165.92 601.667 165.656C601.344 165.392 601.065 165.069 600.831 164.688C600.596 164.307 600.537 163.837 600.655 163.28C600.772 162.899 600.948 162.327 601.183 161.564C601.417 160.772 601.696 159.907 602.019 158.968C602.341 158 602.664 157.047 602.987 156.108C603.339 155.169 603.661 154.333 603.955 153.6C604.248 152.867 604.497 152.353 604.703 152.06C604.879 151.825 605.157 151.649 605.539 151.532C605.92 151.415 606.301 151.385 606.683 151.444C607.064 151.503 607.343 151.679 607.519 151.972C607.841 152.383 608.017 152.793 608.047 153.204C608.105 153.585 607.9 154.201 607.431 155.052C607.313 155.375 607.167 155.727 606.991 156.108C606.815 156.46 606.727 156.695 606.727 156.812C606.697 156.871 606.639 157.076 606.551 157.428C606.492 157.751 606.419 158.059 606.331 158.352C606.243 158.645 606.155 158.792 606.067 158.792C605.949 158.909 605.817 159.217 605.671 159.716C605.553 160.215 605.436 160.772 605.319 161.388C605.231 161.975 605.172 162.503 605.143 162.972C605.113 163.412 605.157 163.632 605.275 163.632C606.184 163.632 607.064 163.353 607.915 162.796C608.765 162.209 609.689 161.241 610.687 159.892L611.083 164.028C610.672 164.233 610.291 164.453 609.939 164.688C609.587 164.893 609.264 165.143 608.971 165.436C608.883 165.553 608.677 165.715 608.355 165.92C608.032 166.125 607.709 166.316 607.387 166.492C607.093 166.639 606.903 166.712 606.815 166.712C606.815 166.712 606.771 166.727 606.683 166.756C606.624 166.756 606.595 166.815 606.595 166.932C606.595 166.991 606.404 167.108 606.023 167.284C605.641 167.431 605.245 167.563 604.835 167.68C604.424 167.797 604.145 167.856 603.999 167.856Z" fill="#B8C318"/>
</svg>
