<svg width="1349" height="228" viewBox="0 0 1349 228" fill="none" xmlns="http://www.w3.org/2000/svg">
<g clip-path="url(#clip0_1059_1330)">
<path d="M202.074 22.2718C185.063 21.9282 168.099 20.3676 151.31 17.6021C123.217 12.7818 22.5938 34.7744 22.5938 131.557C22.5938 131.557 70.9472 160.78 129.167 124.025C187.387 87.2703 202.074 22.2718 202.074 22.2718Z" fill="#C7D04F"/>
<path d="M8.58614 157.918C9.18509 157.87 9.76591 157.69 10.2868 157.39C10.8077 157.091 11.2558 156.679 11.5988 156.186C12.0507 155.508 26.2856 126.888 73.434 91.1122C74.3233 90.6338 75.0194 89.8621 75.4039 88.9284C75.7884 87.9947 75.8375 86.9565 75.5429 85.9907C75.3652 85.5109 75.0877 85.0742 74.7288 84.7097C74.3698 84.3451 73.9375 84.0608 73.4605 83.8757C72.9836 83.6906 72.4727 83.6089 71.9618 83.6359C71.4509 83.6629 70.9515 83.7981 70.4967 84.0324C43.1347 100.216 19.1894 121.577 1.76728e-05 146.922C-1.28037 148.73 4.21777 156.035 5.95006 157.24C6.32093 157.526 6.74569 157.733 7.19875 157.849C7.6518 157.966 8.12375 157.989 8.58614 157.918Z" fill="#E2E5A7"/>
</g>
<path d="M193.24 143.08C197.68 146.68 198.52 151.72 194.2 155.68C190.12 159.52 185.8 158.92 182.2 154.36C178.96 150.16 175 145.72 170.92 141.4V157.12C170.92 171.88 155.56 174.52 138.4 166.48C136 165.4 135.28 163.36 136 160.96C136.72 158.56 138.28 157.6 141.16 157.96C151.12 159.04 152.68 158.32 152.68 152.32V143.56C149.08 146.92 145.12 149.92 141.28 152.2C137.92 154.12 134.8 154.24 132.52 152.2C132.88 155.2 131.44 157 128.2 157.96C124.24 159.16 121.48 157.72 120.64 153.76C119.08 146.68 116.92 139.84 115.12 134.68C114.28 132.28 115.12 130.72 116.92 129.76C118.84 128.92 120.4 129.64 121.84 131.44C124.6 134.92 127.48 139.48 129.76 144.4C130.12 141.76 132.04 139.48 134.92 138.76C140.32 137.32 146.56 135.16 152.68 132.16V108.64H132.76C129.64 108.64 127.84 106.84 127.84 103.72C127.84 100.6 129.64 98.8 132.76 98.8H162.4L163.84 93.28H149.8C148 97.12 144.4 98.44 139.72 97.48C134.8 96.52 133.36 93.52 134.68 88.84C137.08 79.96 139.72 68.8 141.04 63.16C142 59.08 146.32 57.52 150.4 58.12C154.84 58.84 157.48 61.6 157 65.44H168.28C170.32 62.2 174.28 60.76 178.6 61.6C183.28 62.56 186.4 66.04 185.08 72.52C183.88 78.28 180.88 89.68 178.12 98.8H191.08C194.2 98.8 196 100.6 196 103.72C196 106.84 194.2 108.64 191.08 108.64H170.92V127C173.56 123.16 175.96 118.96 177.88 114.88C180.04 110.68 184.48 109.36 188.44 112C192.64 114.76 193.12 118.96 189.76 122.44C185.8 126.64 181.48 130.24 177.64 132.76C183.52 135.88 188.68 139.36 193.24 143.08ZM95.68 115.84H97.96C101.32 110.8 104.32 105.88 106.96 101.08C103.96 102.28 100.84 103.36 97.84 104.08C92.44 105.4 88.36 102.52 88 96.88C87.64 91.72 90.52 88.36 95.44 88.6C98.2 79.84 99.88 72.16 100.96 64.96C101.8 59.32 106.72 57.4 111.76 58.36C116.92 59.32 119.2 63.64 117.64 68.44C115.48 74.92 110.92 82.96 106.24 89.2C108.4 89.32 110.68 89.32 112.84 89.44C114.4 85.96 115.84 82.72 117.04 79.48C118.96 74.2 123.76 73 128.08 74.8C132.88 76.84 134.92 81.04 132.16 85.96C126.64 95.8 119.44 105.88 110.08 115.24C113.08 115.12 115.96 114.76 118.84 114.4C118.6 113.68 118.48 112.84 118.24 112.12C117.52 109.36 118.36 107.56 120.4 106.72C122.56 105.88 124.12 106.72 125.68 108.76C128.68 112.72 131.44 117.88 133.48 123.04C135.16 127.12 133.72 130.6 129.28 131.8C125.08 132.88 122.32 131.08 121.6 127.12L120.64 122.56C113.68 126.28 106.24 129.04 97.96 131.44C92.2 133.12 88.12 130.48 87.52 124.96C86.8 119.68 89.44 115.96 95.68 115.84ZM152.56 83.68H166.36C166.96 80.92 167.56 78.52 167.92 76.6C168.16 75.64 167.56 75.04 166.6 75.04H154.84C154.12 77.92 153.4 80.8 152.56 83.68ZM147.4 131.08C143.56 133.48 139.12 132.28 137.68 128.44C136.24 124.6 134.44 120.16 132.76 116.92C131.56 114.64 132.04 112.72 133.72 111.28C135.4 109.84 137.56 110.08 139.48 111.64C143.44 114.88 146.68 118 149.32 121.84C151.72 125.32 150.88 128.92 147.4 131.08ZM112.24 135.16C115 141.64 117.64 150.4 118.96 157.96C119.8 162.64 118.12 165.28 113.44 165.76C108.76 166.24 105.88 164.32 105.88 159.28C105.88 151.48 105.4 142.84 104.56 136.84C104.32 134.08 105.4 132.52 107.68 132.04C109.96 131.56 111.28 132.88 112.24 135.16ZM97.48 133.72C99.88 133.84 101.2 135.64 101.56 138.52C102.76 146.8 103.12 154.96 102.76 162.52C102.52 168.04 98.44 170.44 93.04 169.12C88 167.92 86.44 164.44 88 159.88C90.52 152.8 91.96 145.72 93.04 137.68C93.4 134.92 95.32 133.6 97.48 133.72ZM332.56 135.28C337.6 162.76 332.92 166.84 312.76 167.44C293.08 168.04 276.16 168.16 261.04 167.56C240.76 166.72 236.92 163.48 236.92 146.8V108.88C235 110.2 233.2 111.28 231.4 112.24C228.64 113.68 226 113.32 224.44 110.8C222.88 108.4 223.36 106.12 225.88 103.84C236.44 94.48 245.92 79.24 251.68 63.76C254.08 57.4 259.6 55.84 265.72 58.24C271 60.28 272.32 64.84 270.64 70H284.32C288.16 66.64 294.16 65.92 298.6 68.2C303.52 70.72 305.68 75.64 301.48 82.48C299.56 85.6 296.92 88.84 294.04 91.72H313.48C318.52 91.72 321.28 94.48 321.28 99.52V123.76C321.28 128.8 318.52 131.56 313.48 131.56H255.88V139.84C255.88 148.96 256.96 150.04 266.44 150.52C280.6 151.24 298.12 151.12 311.2 150.52C321.4 150.04 322.72 148.48 322.72 136.12C322.72 132.76 324.52 130.96 327.16 130.96C330.04 130.96 331.96 132.28 332.56 135.28ZM283.36 82.72C283.72 81.64 283.12 81.04 282.16 81.04H264.64C262.24 84.64 259.36 88.36 256.24 91.72H279.4C281.08 88.6 282.28 85.84 283.36 82.72ZM270.64 120.76V102.52H257.32C256.48 102.52 255.88 103.12 255.88 103.96V120.76H270.64ZM303.52 103.96C303.52 103.12 302.92 102.52 302.08 102.52H288.64V120.76H301.6C303.16 120.76 303.52 120.28 303.52 118.72V103.96ZM397.6 111.04C395.8 112.84 393.88 114.64 391.72 116.32V157.84C391.72 169.72 380.2 174.52 364.12 167.8C361.72 166.72 361.12 164.56 361.6 162.16C362.08 159.76 363.4 158.8 366.16 158.8C372.4 158.92 373.96 158.8 373.96 154.84V128.08L373.6 128.32C368.56 131.2 364.12 129.4 362.2 123.88C360.4 118.6 362.44 114.64 367.72 112.96C369.76 112.36 371.8 111.64 373.96 110.92V93.16H366.52C363.52 93.16 361.84 91.48 361.84 88.48C361.84 85.48 363.52 83.8 366.52 83.8H373.96V65.56C373.96 60.28 377.2 57.64 382.84 57.64C388.48 57.64 391.72 60.28 391.72 65.56V83.8H398.68C401.68 83.8 403.36 85.48 403.36 88.48C403.36 91.48 401.68 93.16 398.68 93.16H391.72V104.08L392.92 103.6C394.84 102.76 396.64 102.64 397.72 103.6C398.44 99.88 401.08 97.84 405.4 97.84H410.2C409.24 97 408.4 95.68 407.92 94C406.84 90.4 405.28 86.68 403.48 82.6C402.52 80.32 403.12 78.52 404.92 77.44C406.72 76.36 408.52 76.6 410.2 78.16C413.44 80.92 416.68 84.4 419.32 88.12C422.08 92.08 421.36 95.68 417.52 97.84H430.48C428.8 97.12 427.48 95.32 427 92.68C426.16 88.96 425.08 84.64 423.64 80.44C423.04 78.64 423.28 77.32 424.12 76.36C416.08 76.48 408.16 76.48 401.44 76C398.68 75.76 397 74.32 397 71.56C397 68.8 398.44 67.6 401.08 67.36C418.12 66.16 438.4 62.92 452.8 58.72C457.36 57.4 461.44 59.08 462.64 63.76C463.96 68.68 461.68 72.64 456.52 73.6L454.72 73.96C455.8 73.96 456.88 74.2 458.08 74.56C462.88 76.12 463.24 80.32 461.68 83.68C459.16 89.32 456.16 94 452.68 97.84H457.96C463 97.84 465.76 100.6 465.76 105.64V112.12C465.76 117.28 462.4 119.44 457.12 119.44C451.84 119.44 448.84 116.92 448.84 112.12V109.12C448.84 108.28 448.24 107.68 447.4 107.68H415.6C414.76 107.68 414.16 108.28 414.16 109.12V111.28C414.16 116.08 411.04 118.48 405.76 118.48C400.48 118.48 397.6 116.08 397.6 111.28V111.04ZM438.88 88.24C441.16 92.56 439.72 95.92 435.4 97.6C435.16 97.72 434.92 97.72 434.68 97.84H444.16C443.92 97.24 443.92 96.4 444.28 95.44C445.84 91 446.92 86.44 448.24 79.6C448.72 76.84 450.16 75.04 452.2 74.32C446.32 75.04 438.76 75.76 430.6 76.12C430.84 76.24 430.96 76.48 431.2 76.72C434.2 80.2 436.6 83.92 438.88 88.24ZM460.36 152.8C466.6 154 469.12 158.08 467.56 164.56C466 170.8 461.2 172 455.56 170.68C446.56 168.64 438.76 164.44 432.04 158.92C422.32 164.92 410.8 169.24 398.44 170.8C395.2 171.16 393.4 170.08 392.8 167.2C392.32 164.56 393.52 162.76 396.64 161.8C406.96 158.56 415.6 154.24 422.68 149.32C417.52 142.96 413.56 135.76 410.92 128.56H407.08C403.96 128.56 402.16 126.76 402.16 123.64C402.16 120.52 403.96 118.72 407.08 118.72H449.44C457.24 118.72 460 124.12 457 131.2C454.36 137.44 450.28 143.2 445.36 148.36C449.8 150.16 454.72 151.6 460.36 152.8ZM438.4 128.56H420.4C423.76 133.36 427.6 137.44 432.28 141.04C435.4 137.56 437.92 134.08 439.6 130.36C440.08 129.28 439.48 128.56 438.4 128.56ZM599.56 76C602.92 76 604.84 77.92 604.84 81.28C604.84 84.64 602.92 86.56 599.56 86.56H538C534.64 86.56 532.72 84.64 532.72 81.28C532.72 77.92 534.64 76 538 76H557.56V65.32C557.56 60.88 561.16 57.52 567.88 57.52C574.48 57.52 578.2 60.76 578.2 65.32V76H599.56ZM534.4 70.72C533.08 76.36 531.16 82.12 528.76 87.88V162.88C528.76 168.4 525.52 170.8 519.64 170.8C513.76 170.8 510.52 168.4 510.52 162.88V117.4C508.72 119.56 506.8 121.48 504.88 123.28C502.6 125.32 500.32 125.68 498.64 124.24C496.6 122.32 496.48 120.28 497.92 117.76C505.96 103.84 512.32 84.88 515.32 67C516.52 59.8 520.6 57.28 527.08 58.48C533.44 59.68 535.96 63.76 534.4 70.72ZM594.28 93.76C597.64 93.76 599.56 95.68 599.56 99.04C599.56 102.4 597.64 104.32 594.28 104.32H541.6C538.24 104.32 536.32 102.4 536.32 99.04C536.32 95.68 538.24 93.76 541.6 93.76H594.28ZM594.04 110.08C597.4 110.08 599.32 112 599.32 115.36C599.32 118.72 597.4 120.64 594.04 120.64H541.96C538.6 120.64 536.68 118.72 536.68 115.36C536.68 112 538.6 110.08 541.96 110.08H594.04ZM590.56 127.72C595.6 127.72 598.36 130.48 598.36 135.52V163C598.36 168.4 595 170.8 588.88 170.8C582.76 170.8 579.4 168.4 579.4 163V161.2H556.48V163C556.48 168.4 553.12 170.8 547 170.8C540.88 170.8 537.52 168.4 537.52 163V135.52C537.52 130.48 540.28 127.72 545.32 127.72H590.56ZM556.48 151.12H579.4V139.24C579.4 138.4 578.8 137.8 577.96 137.8H557.92C557.08 137.8 556.48 138.4 556.48 139.24V151.12Z" fill="#594A39"/>
<path d="M669.12 149.62C667.467 149.513 665.813 148.9 664.16 147.78C662.507 146.713 660.987 145.7 659.6 144.74C658.693 143.833 658 142.873 657.52 141.86C657.04 140.793 656.64 139.407 656.32 137.7C656.107 136.687 656.107 135.353 656.32 133.7C656.533 132.047 656.88 130.393 657.36 128.74C657.84 127.033 658.293 125.7 658.72 124.74C659.36 123.247 660.16 121.647 661.12 119.94C662.133 118.18 663.12 116.527 664.08 114.98C665.093 113.38 665.893 112.1 666.48 111.14C666.853 110.767 667.013 110.58 666.96 110.58C666.96 110.527 666.96 110.5 666.96 110.5C666.96 110.233 667.227 109.567 667.76 108.5C668.347 107.38 668.853 106.393 669.28 105.54C670.08 104.687 670.533 103.993 670.64 103.46C670.747 102.927 670.667 102.5 670.4 102.18C670.293 101.967 670.507 101.513 671.04 100.82C671.627 100.127 672.427 99.3533 673.44 98.5C674.453 97.5933 675.573 96.7933 676.8 96.1C678.08 95.0867 679.307 94.5533 680.48 94.5C681.707 94.3933 682.427 94.6333 682.64 95.22C682.64 95.38 682.933 95.4333 683.52 95.38C684.16 95.2733 684.88 95.14 685.68 94.98C686.533 94.7667 687.28 94.6067 687.92 94.5C688.187 94.18 688.8 93.94 689.76 93.78C690.773 93.5667 691.947 93.38 693.28 93.22C693.973 93.2733 694.747 93.3 695.6 93.3C696.453 93.2467 697.2 93.1933 697.84 93.14C698.533 93.0867 698.88 93.06 698.88 93.06C699.253 92.9533 699.787 93.1933 700.48 93.78C701.227 94.3133 701.813 95.06 702.24 96.02C702.613 96.98 702.293 97.8067 701.28 98.5C700.267 99.1933 698.667 99.6733 696.48 99.94C694.88 100.153 693.627 100.34 692.72 100.5C691.867 100.607 690.933 100.767 689.92 100.98C688.96 101.14 687.547 101.433 685.68 101.86C684.347 102.127 683.227 102.34 682.32 102.5C681.413 102.66 680.613 102.98 679.92 103.46C679.28 103.94 678.56 104.793 677.76 106.02C677.387 106.287 676.907 106.98 676.32 108.1C675.733 109.22 675.147 110.34 674.56 111.46C673.067 113.54 671.947 115.087 671.2 116.1C670.507 117.06 670.267 117.673 670.48 117.94C670.48 117.94 670.853 118.02 671.6 118.18C672.347 118.34 672.827 118.42 673.04 118.42C673.573 118.153 674.213 117.967 674.96 117.86C675.76 117.753 676.4 117.647 676.88 117.54C680.187 116.687 682.613 116.073 684.16 115.7C685.76 115.273 686.88 114.98 687.52 114.82C688.213 114.66 688.827 114.553 689.36 114.5C690.107 113.913 690.853 113.967 691.6 114.66C692.4 115.3 692.96 116.073 693.28 116.98C693.653 118.047 693.653 118.873 693.28 119.46C692.907 120.047 692.08 120.527 690.8 120.9C689.573 121.273 687.813 121.727 685.52 122.26C683.227 122.74 680.347 123.46 676.88 124.42C673.947 125.273 671.573 125.78 669.76 125.94C667.947 126.1 667.093 125.647 667.2 124.58C666.827 124.367 666.4 124.58 665.92 125.22C665.493 125.807 665.093 126.633 664.72 127.7C664.347 128.767 664 129.913 663.68 131.14C663.413 132.367 663.253 133.513 663.2 134.58C663.147 135.647 663.227 136.473 663.44 137.06C663.867 138.287 664.533 139.353 665.44 140.26C666.4 141.113 667.787 141.807 669.6 142.34C670.667 142.393 671.707 142.473 672.72 142.58C673.733 142.687 674.88 142.473 676.16 141.94C679.307 141.407 681.493 140.847 682.72 140.26C683.947 139.673 684.693 139.273 684.96 139.06C685.387 138.847 685.653 138.633 685.76 138.42C685.92 138.207 686.133 138.1 686.4 138.1C686.24 138.367 686.293 138.367 686.56 138.1C686.827 137.833 687.253 137.46 687.84 136.98C688.96 136.02 690.08 135.433 691.2 135.22C692.32 135.007 693.253 135.007 694 135.22C694.747 135.38 695.147 135.593 695.2 135.86C695.52 136.393 695.36 137.247 694.72 138.42C694.08 139.54 693.093 140.74 691.76 142.02C690.48 143.3 688.96 144.447 687.2 145.46C684.373 146.953 681.307 147.993 678 148.58C674.693 149.22 671.733 149.567 669.12 149.62ZM717.211 151.7C716.251 151.433 715.478 151.193 714.891 150.98C714.305 150.82 714.011 150.74 714.011 150.74C714.118 150.473 714.065 150.233 713.851 150.02C713.691 149.807 713.318 149.673 712.731 149.62C711.931 149.087 711.105 148.34 710.251 147.38C709.398 146.42 708.651 145.433 708.011 144.42C707.371 143.407 706.945 142.66 706.731 142.18C706.358 141.38 706.385 140.9 706.811 140.74C707.238 140.527 707.745 140.287 708.331 140.02C708.918 139.593 709.531 139.273 710.171 139.06C710.865 138.847 711.425 139.193 711.851 140.1C712.545 141.327 713.611 142.367 715.051 143.22C716.545 144.073 718.225 144.58 720.091 144.74C722.011 144.9 723.931 144.58 725.851 143.78C727.131 143.193 727.825 142.393 727.931 141.38C728.038 140.313 727.638 139.087 726.731 137.7C726.571 137.273 726.331 136.927 726.011 136.66C725.745 136.393 725.318 136.047 724.731 135.62C724.198 135.193 723.425 134.5 722.411 133.54C721.611 133.167 720.865 132.82 720.171 132.5C719.531 132.18 718.838 131.833 718.091 131.46C717.238 131.033 716.278 130.447 715.211 129.7C714.145 128.9 713.158 128.047 712.251 127.14C711.345 126.18 710.651 125.273 710.171 124.42C709.318 123.62 708.785 122.527 708.571 121.14C708.358 119.7 708.385 118.18 708.651 116.58C708.971 114.98 709.478 113.54 710.171 112.26C710.491 111.513 711.078 110.553 711.931 109.38C712.785 108.153 713.745 106.9 714.811 105.62C715.878 104.34 716.891 103.193 717.851 102.18C718.865 101.113 719.665 100.393 720.251 100.02C720.678 99.5933 721.131 99.1667 721.611 98.74C722.091 98.26 722.331 98.02 722.331 98.02C722.385 97.7533 722.465 97.62 722.571 97.62C722.731 97.62 722.811 97.62 722.811 97.62C723.078 97.46 723.665 97.1933 724.571 96.82C725.478 96.4467 726.465 95.7533 727.531 94.74C731.105 93.0333 734.145 91.8867 736.651 91.3C739.158 90.66 741.131 90.34 742.571 90.34C743.905 90.3933 745.211 90.7667 746.491 91.46C747.771 92.1 748.865 92.9267 749.771 93.94C750.731 94.9533 751.291 96.1 751.451 97.38C751.825 98.66 751.638 100.207 750.891 102.02C750.198 103.78 749.211 105.46 747.931 107.06C746.705 108.607 745.425 109.753 744.091 110.5C742.598 111.14 741.318 111.22 740.251 110.74C739.238 110.26 738.758 109.513 738.811 108.5C738.811 108.073 738.945 107.567 739.211 106.98C739.531 106.393 740.358 105.353 741.691 103.86C743.398 101.353 744.305 99.5667 744.411 98.5C744.518 97.4333 744.038 96.82 742.971 96.66C742.651 96.5533 742.038 96.58 741.131 96.74C740.225 96.9 739.238 97.1133 738.171 97.38C737.158 97.5933 736.251 97.8333 735.451 98.1C734.705 98.3667 734.331 98.5533 734.331 98.66C734.331 98.66 734.331 98.74 734.331 98.9C734.331 99.06 734.225 99.1133 734.011 99.06C733.905 99.06 733.531 99.2467 732.891 99.62C732.305 99.94 731.585 100.367 730.731 100.9C729.878 101.433 729.025 101.993 728.171 102.58C727.371 103.113 726.678 103.593 726.091 104.02C725.505 104.447 725.185 104.713 725.131 104.82C725.025 105.407 724.411 105.94 723.291 106.42C722.225 107.06 721.291 107.967 720.491 109.14C719.691 110.313 718.758 111.807 717.691 113.62C716.785 114.847 716.145 116.18 715.771 117.62C715.398 119.007 715.398 120.127 715.771 120.98C716.038 121.833 716.758 122.687 717.931 123.54C719.158 124.34 720.811 125.353 722.891 126.58C724.705 127.593 726.411 128.66 728.011 129.78C729.611 130.9 730.971 131.993 732.091 133.06C733.211 134.073 733.931 134.927 734.251 135.62C734.891 136.527 735.265 137.567 735.371 138.74C735.531 139.913 735.531 141.06 735.371 142.18C735.265 143.247 735.105 144.127 734.891 144.82C734.518 145.673 733.931 146.58 733.131 147.54C732.385 148.5 731.691 148.953 731.051 148.9C730.465 149.06 730.011 149.247 729.691 149.46C729.425 149.673 729.105 149.86 728.731 150.02C728.358 150.233 727.478 150.473 726.091 150.74C724.705 151.06 723.185 151.3 721.531 151.46C719.878 151.673 718.438 151.753 717.211 151.7ZM756.981 150.74C756.234 150.26 755.407 149.38 754.501 148.1C753.647 146.873 752.901 145.353 752.261 143.54C751.674 141.727 751.407 139.807 751.461 137.78C751.461 135.647 751.647 133.14 752.021 130.26C752.447 127.327 753.141 124.233 754.101 120.98C754.741 118.633 755.461 116.42 756.261 114.34C757.061 112.26 757.861 110.367 758.661 108.66C759.514 106.953 760.261 105.487 760.901 104.26C762.447 101.54 763.994 99.3267 765.541 97.62C767.087 95.86 768.527 94.58 769.861 93.78C770.501 93.4067 771.381 93.0067 772.501 92.58C773.674 92.1533 774.954 91.8333 776.341 91.62C777.727 91.3533 779.087 91.3533 780.421 91.62C781.807 91.8867 783.141 92.2867 784.421 92.82C785.754 93.3533 786.634 93.8067 787.061 94.18C787.807 95.14 788.501 96.0733 789.141 96.98C789.834 97.8333 790.181 98.7933 790.181 99.86C790.234 101.033 789.967 101.993 789.381 102.74C788.794 103.487 788.101 103.913 787.301 104.02C786.501 104.127 785.781 103.833 785.141 103.14C784.874 102.127 784.474 101.353 783.941 100.82C783.407 100.233 782.554 99.7 781.381 99.22C780.634 98.9 779.807 98.6867 778.901 98.58C778.047 98.42 777.167 98.4467 776.261 98.66C775.354 98.82 774.474 99.2467 773.621 99.94C772.981 100.42 772.261 101.113 771.461 102.02C770.661 102.873 769.861 103.833 769.061 104.9C768.314 105.967 767.647 107.087 767.061 108.26C765.727 110.82 764.554 113.38 763.541 115.94C762.581 118.5 761.727 121.193 760.981 124.02C760.767 124.927 760.527 125.94 760.261 127.06C759.994 128.127 759.754 129.3 759.541 130.58C759.327 131.807 759.141 133.22 758.981 134.82C758.714 137.433 758.821 139.647 759.301 141.46C759.781 143.22 760.661 144.34 761.941 144.82C763.274 145.3 764.981 144.927 767.061 143.7C768.341 143.273 769.487 142.66 770.501 141.86C771.514 141.06 772.474 140.1 773.381 138.98C774.287 137.86 775.221 136.607 776.181 135.22C777.247 133.353 778.047 131.7 778.581 130.26C779.167 128.82 779.381 127.7 779.221 126.9C779.114 126.047 778.527 125.647 777.461 125.7C775.487 125.7 773.967 125.7 772.901 125.7C771.834 125.647 770.821 125.487 769.861 125.22C769.007 124.74 768.581 123.993 768.581 122.98C768.634 121.967 769.327 121.033 770.661 120.18C771.621 119.7 772.847 119.353 774.341 119.14C775.834 118.927 777.381 118.9 778.981 119.06C780.634 119.167 782.074 119.513 783.301 120.1C784.687 120.687 785.674 121.86 786.261 123.62C786.847 125.327 786.954 127.113 786.581 128.98C786.314 129.833 785.781 131.247 784.981 133.22C784.234 135.14 783.247 137.007 782.021 138.82C781.221 139.993 780.234 141.273 779.061 142.66C777.887 143.993 776.527 145.273 774.981 146.5C773.434 147.78 771.701 148.9 769.781 149.86C767.647 150.873 765.407 151.567 763.061 151.94C760.714 152.367 758.687 151.967 756.981 150.74ZM835.543 152.02C833.249 151.913 831.329 151.593 829.783 151.06C828.236 150.527 826.476 149.593 824.503 148.26C824.289 147.887 824.023 147.273 823.703 146.42C823.383 145.513 823.063 144.553 822.743 143.54C822.423 142.527 822.156 141.647 821.943 140.9C821.783 140.1 821.729 139.62 821.783 139.46C821.996 139.193 822.103 138.873 822.103 138.5C822.103 138.073 822.076 137.753 822.023 137.54C821.809 136.74 821.969 135.327 822.503 133.3C823.036 131.273 823.863 128.74 824.983 125.7C826.156 122.66 827.543 119.3 829.143 115.62C830.156 113.433 831.516 111.06 833.223 108.5C834.929 105.94 836.769 103.487 838.743 101.14C840.769 98.74 842.743 96.6867 844.663 94.98C846.583 93.22 848.209 92.0467 849.543 91.46C850.449 91.0867 851.276 90.9 852.023 90.9C852.769 90.8467 853.543 90.8733 854.343 90.98C855.783 91.1933 857.143 91.7 858.423 92.5C859.703 93.2467 860.769 94.2867 861.623 95.62C862.529 97.0067 863.116 98.5533 863.383 100.26C863.649 101.967 863.729 103.62 863.623 105.22C863.516 106.82 863.303 108.153 862.983 109.22C862.663 110.073 862.343 110.713 862.023 111.14C861.703 111.513 861.223 111.753 860.583 111.86C860.369 111.913 859.756 111.807 858.743 111.54C857.783 111.22 857.009 110.9 856.423 110.58C855.783 110.153 855.356 109.727 855.143 109.3C854.983 108.82 854.903 108.58 854.903 108.58C854.903 108.58 854.929 108.26 854.983 107.62C855.089 106.927 855.249 106.26 855.463 105.62C856.209 103.167 856.476 101.407 856.263 100.34C856.049 99.2733 855.329 98.5267 854.103 98.1C852.929 98.0467 851.489 98.7667 849.783 100.26C848.076 101.753 846.396 103.46 844.743 105.38C842.343 108.313 840.289 111.193 838.583 114.02C836.876 116.847 835.356 119.913 834.023 123.22C832.849 126.633 831.916 129.513 831.223 131.86C830.583 134.153 830.156 135.993 829.943 137.38C830.049 138.073 830.103 138.66 830.103 139.14C830.156 139.567 830.076 139.78 829.863 139.78C829.969 140.42 830.183 141.167 830.503 142.02C830.823 142.873 831.489 143.673 832.503 144.42C832.716 144.633 833.036 144.82 833.463 144.98C833.889 145.087 834.369 145.113 834.903 145.06C835.756 145.007 836.636 144.873 837.543 144.66C838.503 144.447 839.356 144.207 840.103 143.94C840.903 143.62 841.463 143.327 841.783 143.06C841.783 143.06 842.023 143.033 842.503 142.98C842.983 142.873 843.569 142.66 844.263 142.34C844.743 142.073 845.356 141.78 846.103 141.46C846.849 141.14 847.676 140.793 848.583 140.42C850.183 139.673 851.516 139.3 852.583 139.3C853.703 139.3 854.609 139.407 855.303 139.62C855.303 139.62 855.223 139.993 855.063 140.74C854.956 141.487 854.796 142.153 854.583 142.74C854.316 143.113 853.969 143.567 853.543 144.1C853.169 144.58 852.663 145.06 852.023 145.54C851.383 146.02 850.583 146.473 849.623 146.9C849.356 146.953 848.929 147.113 848.343 147.38C847.756 147.7 847.116 148.073 846.423 148.5C844.929 149.407 843.303 150.18 841.543 150.82C839.836 151.46 837.836 151.86 835.543 152.02ZM873.799 145.94C873.106 145.94 872.546 145.807 872.119 145.54C871.746 145.273 871.266 144.9 870.679 144.42C869.666 143.353 868.839 142.207 868.199 140.98C867.613 139.753 867.399 138.687 867.559 137.78C867.719 137.353 867.773 136.953 867.719 136.58C867.719 136.153 867.719 135.94 867.719 135.94C867.453 135.673 867.373 135.513 867.479 135.46C867.586 135.353 867.693 135.193 867.799 134.98C868.119 134.98 868.226 134.687 868.119 134.1C868.013 133.673 868.173 132.767 868.599 131.38C869.079 129.94 869.719 128.58 870.519 127.3C870.839 126.767 871.319 126.073 871.959 125.22C872.599 124.313 873.293 123.433 874.039 122.58C874.839 121.673 875.559 120.953 876.199 120.42C877.533 119.3 878.759 118.393 879.879 117.7C881.053 117.007 882.226 116.527 883.399 116.26C884.573 115.993 885.773 115.86 886.999 115.86C888.279 115.86 889.319 116.287 890.119 117.14C891.346 117.673 892.199 118.393 892.679 119.3C893.213 120.207 893.559 121.38 893.719 122.82C893.879 124.42 893.719 126.393 893.239 128.74C892.759 131.033 891.453 133.7 889.319 136.74C887.986 138.66 886.679 140.153 885.399 141.22C884.119 142.287 882.706 143.273 881.159 144.18C880.039 144.927 878.839 145.38 877.559 145.54C876.279 145.7 875.026 145.833 873.799 145.94ZM881.959 136.18C883.133 135.167 883.959 134.047 884.439 132.82C884.973 131.593 885.533 130.153 886.119 128.5C886.333 128.18 886.466 127.647 886.519 126.9C886.626 126.153 886.653 125.433 886.599 124.74C886.546 123.993 886.359 123.567 886.039 123.46C885.559 123.087 885.079 123.007 884.599 123.22C884.119 123.38 883.506 123.727 882.759 124.26C881.159 125.593 879.666 127.14 878.279 128.9C876.946 130.607 876.013 132.713 875.479 135.22C875.319 136.553 875.453 137.567 875.879 138.26C876.359 138.9 877.106 139.087 878.119 138.82C879.186 138.5 880.466 137.62 881.959 136.18ZM931.184 144.58C930.01 144.473 929.024 144.233 928.224 143.86C927.477 143.433 926.864 142.607 926.384 141.38C926.17 140.527 926.064 139.647 926.064 138.74C926.117 137.78 926.197 136.873 926.304 136.02C926.41 135.113 926.464 134.34 926.464 133.7C926.464 133.593 926.464 133.38 926.464 133.06C926.464 132.74 926.464 132.447 926.464 132.18C926.357 131.38 926.144 130.9 925.824 130.74C925.557 130.527 925.077 130.553 924.384 130.82C923.264 131.353 922.037 132.073 920.704 132.98C919.424 133.833 918.064 134.847 916.624 136.02C915.237 137.14 913.797 138.34 912.304 139.62C911.13 140.9 910.25 141.94 909.664 142.74C909.13 143.54 908.57 143.94 907.984 143.94C907.557 144.153 907.104 144.1 906.624 143.78C906.144 143.46 905.637 143.087 905.104 142.66C904.73 142.233 904.277 141.7 903.744 141.06C903.264 140.367 902.97 139.913 902.864 139.7C902.864 138.847 902.917 138.073 903.024 137.38C903.184 136.687 903.397 135.967 903.664 135.22C903.984 134.473 904.357 133.62 904.784 132.66C904.997 132.287 905.184 131.913 905.344 131.54C905.557 131.113 905.797 130.66 906.064 130.18C906.277 129.433 906.57 128.58 906.944 127.62C907.37 126.66 907.77 125.753 908.144 124.9C908.73 123.513 909.184 122.313 909.504 121.3C909.824 120.287 910.09 119.193 910.304 118.02C910.25 117.913 910.277 117.753 910.384 117.54C910.49 117.327 910.65 117.193 910.864 117.14H910.944H911.024C911.397 116.873 912.09 116.847 913.104 117.06C914.17 117.22 914.97 117.513 915.504 117.94C916.624 118.9 917.157 120.153 917.104 121.7C917.05 123.247 916.25 125.273 914.704 127.78C914.33 128.633 913.93 129.433 913.504 130.18C913.13 130.873 912.944 131.353 912.944 131.62C912.944 131.62 913.157 131.46 913.584 131.14C914.01 130.82 914.517 130.447 915.104 130.02C915.69 129.54 916.197 129.167 916.624 128.9C916.89 128.633 917.477 128.153 918.384 127.46C919.29 126.713 920.277 125.94 921.344 125.14C922.41 124.34 923.264 123.727 923.904 123.3C924.49 122.873 925.237 122.447 926.144 122.02C927.05 121.54 927.61 121.3 927.824 121.3C928.357 121.3 928.997 121.487 929.744 121.86C930.544 122.233 931.264 122.687 931.904 123.22C932.597 123.7 932.997 124.153 933.104 124.58C933.104 124.793 933.077 125.087 933.024 125.46C932.97 125.78 932.944 126.073 932.944 126.34C932.89 127.193 932.864 128.233 932.864 129.46C932.917 130.633 932.944 131.833 932.944 133.06C932.944 134.233 932.837 135.3 932.624 136.26C932.624 136.26 932.65 136.313 932.704 136.42C932.757 136.473 932.81 136.58 932.864 136.74C932.81 136.793 932.784 136.9 932.784 137.06C932.837 137.167 932.864 137.22 932.864 137.22C932.97 137.593 933.077 137.967 933.184 138.34C933.344 138.713 933.53 139.14 933.744 139.62C933.957 140.047 934.197 140.607 934.464 141.3C934.41 141.993 934.01 142.687 933.264 143.38C932.57 144.02 931.877 144.42 931.184 144.58ZM954.382 146.98C952.676 146.98 951.102 146.607 949.662 145.86C948.276 145.06 947.156 144.1 946.302 142.98C945.449 141.807 945.022 140.687 945.022 139.62C945.022 139.14 945.102 138.793 945.262 138.58C945.476 138.367 945.769 138.26 946.142 138.26C946.409 138.313 946.729 138.447 947.102 138.66C947.476 138.873 947.849 139.113 948.222 139.38C949.076 139.967 950.009 140.34 951.022 140.5C952.036 140.66 952.942 140.607 953.742 140.34C954.542 140.02 954.996 139.54 955.102 138.9C955.102 138.687 954.996 138.233 954.782 137.54C954.569 136.847 954.302 136.18 953.982 135.54C952.649 133.567 951.822 131.7 951.502 129.94C951.182 128.127 950.969 126.313 950.862 124.5C950.862 123.753 951.209 122.927 951.902 122.02C952.596 121.06 953.449 120.127 954.462 119.22C955.582 118.26 956.809 117.353 958.142 116.5C959.529 115.647 960.889 114.927 962.222 114.34C963.556 113.753 964.676 113.407 965.582 113.3C966.542 113.3 967.556 113.353 968.622 113.46C969.742 113.513 970.489 113.7 970.862 114.02C971.609 114.607 972.302 115.567 972.942 116.9C973.582 118.233 973.902 119.353 973.902 120.26C973.902 120.687 973.662 121.22 973.182 121.86C972.756 122.447 972.356 123.113 971.982 123.86C971.769 124.233 971.582 124.633 971.422 125.06C971.262 125.487 971.076 125.913 970.862 126.34C970.542 127.087 969.956 127.407 969.102 127.3C968.302 127.14 967.556 126.713 966.862 126.02C966.169 125.273 965.822 124.42 965.822 123.46C965.822 122.66 966.062 121.967 966.542 121.38C967.022 120.793 967.262 120.393 967.262 120.18C967.262 120.073 967.209 119.993 967.102 119.94C966.996 119.887 966.809 119.86 966.542 119.86C966.169 119.86 965.556 120.02 964.702 120.34C963.902 120.607 963.049 121.007 962.142 121.54C961.236 122.073 960.409 122.713 959.662 123.46C959.129 124.047 958.676 124.687 958.302 125.38C957.982 126.02 957.822 126.713 957.822 127.46C957.822 128.207 957.956 129.087 958.222 130.1C958.542 131.06 958.889 131.86 959.262 132.5C959.369 132.607 959.529 132.9 959.742 133.38C960.009 133.807 960.302 134.34 960.622 134.98C962.596 139.033 962.916 142.047 961.582 144.02C960.302 145.993 957.902 146.98 954.382 146.98ZM1000.67 146.98C1000.3 147.193 999.791 147.113 999.151 146.74C998.565 146.367 997.978 145.807 997.391 145.06C997.018 144.42 996.725 143.78 996.511 143.14C996.351 142.447 996.271 141.433 996.271 140.1C996.325 139.033 996.325 138.313 996.271 137.94C996.271 137.513 996.031 137.487 995.551 137.86C995.125 138.18 994.245 138.98 992.911 140.26C991.578 141.593 990.298 142.74 989.071 143.7C987.898 144.607 986.938 145.033 986.191 144.98C985.818 144.98 985.311 144.74 984.671 144.26C984.031 143.78 983.418 143.193 982.831 142.5C982.245 141.753 981.818 141.06 981.551 140.42C981.231 139.14 981.205 137.487 981.471 135.46C981.791 133.433 982.298 131.327 982.991 129.14C983.685 126.9 984.458 124.82 985.311 122.9C986.218 120.927 987.098 119.353 987.951 118.18C988.858 116.953 989.631 116.367 990.271 116.42C991.178 116.527 991.951 116.98 992.591 117.78C993.285 118.527 993.818 119.353 994.191 120.26C994.405 120.633 994.485 120.953 994.431 121.22C994.431 121.487 994.218 121.807 993.791 122.18C993.311 122.82 992.725 123.753 992.031 124.98C991.391 126.153 990.725 127.433 990.031 128.82C989.391 130.207 988.805 131.54 988.271 132.82C987.791 134.047 987.445 135.06 987.231 135.86C987.018 136.66 987.018 137.06 987.231 137.06C987.978 137.06 988.671 136.873 989.311 136.5C989.951 136.073 990.751 135.407 991.711 134.5C992.831 133.38 993.818 132.26 994.671 131.14C995.525 129.967 996.405 128.633 997.311 127.14C998.005 126.073 998.725 124.9 999.471 123.62C1000.27 122.34 1000.78 121.433 1000.99 120.9C1001.74 119.513 1002.3 118.473 1002.67 117.78C1003.04 117.087 1003.5 116.66 1004.03 116.5C1004.3 116.5 1004.67 116.5 1005.15 116.5C1005.63 116.5 1005.87 116.5 1005.87 116.5C1006.19 116.553 1006.56 116.793 1006.99 117.22C1007.42 117.433 1007.84 117.727 1008.27 118.1C1008.75 118.473 1008.99 118.793 1008.99 119.06C1008.78 119.593 1008.43 120.393 1007.95 121.46C1007.52 122.473 1007.2 123.22 1006.99 123.7C1005.98 125.993 1004.99 128.26 1004.03 130.5C1003.12 132.687 1002.46 134.927 1002.03 137.22C1001.92 137.967 1001.9 138.847 1001.95 139.86C1002.06 140.82 1002.22 141.513 1002.43 141.94C1002.59 142.26 1002.78 142.633 1002.99 143.06C1003.26 143.433 1003.55 143.753 1003.87 144.02C1004.35 144.34 1004.32 144.74 1003.79 145.22C1003.31 145.7 1002.7 146.127 1001.95 146.5C1001.26 146.82 1000.83 146.98 1000.67 146.98ZM1021.4 143.86C1020.39 143.433 1019.56 142.793 1018.92 141.94C1018.33 141.033 1018.04 139.94 1018.04 138.66C1018.04 138.127 1018.15 137.22 1018.36 135.94C1018.57 134.66 1018.87 133.22 1019.24 131.62C1019.61 130.02 1019.99 128.527 1020.36 127.14C1020.89 126.18 1021.24 125.22 1021.4 124.26C1021.61 123.3 1021.72 122.713 1021.72 122.5C1021.83 121.86 1022.01 121.007 1022.28 119.94C1022.55 118.873 1022.81 117.913 1023.08 117.06C1023.4 116.153 1023.61 115.647 1023.72 115.54C1023.99 115.273 1024.44 115.113 1025.08 115.06C1025.72 115.007 1026.36 115.087 1027 115.3C1027.64 115.46 1028.07 115.807 1028.28 116.34C1028.87 116.98 1029.19 117.94 1029.24 119.22C1029.35 120.5 1029.11 121.993 1028.52 123.7C1028.04 124.767 1027.56 126.02 1027.08 127.46C1026.6 128.9 1026.17 130.233 1025.8 131.46C1025.48 132.633 1025.29 133.433 1025.24 133.86L1022.36 133.78C1023.27 132.927 1024.12 132.047 1024.92 131.14C1025.72 130.18 1026.31 129.433 1026.68 128.9C1027.59 127.673 1028.36 126.66 1029 125.86C1029.69 125.007 1030.57 123.993 1031.64 122.82C1032.71 121.593 1033.85 120.74 1035.08 120.26C1036.31 119.727 1037.21 119.46 1037.8 119.46C1038.97 119.673 1040.01 120.287 1040.92 121.3C1041.88 122.26 1042.47 123.7 1042.68 125.62C1042.68 126.367 1042.6 127.247 1042.44 128.26C1042.33 129.273 1042.28 129.78 1042.28 129.78C1042.28 129.78 1042.71 129.247 1043.56 128.18C1044.47 127.113 1045.67 125.913 1047.16 124.58C1048.17 123.833 1049.16 123.407 1050.12 123.3C1051.08 123.14 1051.93 123.46 1052.68 124.26C1054.07 125.007 1055.08 126.313 1055.72 128.18C1056.36 130.047 1056.57 132.153 1056.36 134.5C1056.2 135.887 1056.2 137.007 1056.36 137.86C1056.57 138.66 1056.79 139.38 1057 140.02C1057.69 140.98 1057.8 141.833 1057.32 142.58C1056.84 143.273 1056.41 143.62 1056.04 143.62C1055.51 143.62 1054.71 143.513 1053.64 143.3C1052.57 143.087 1051.59 142.713 1050.68 142.18C1049.83 141.647 1049.4 140.927 1049.4 140.02V135.06C1049.4 133.887 1049.35 133.033 1049.24 132.5C1049.19 131.913 1049.05 131.54 1048.84 131.38C1048.25 131.06 1047.53 131.3 1046.68 132.1C1045.83 132.9 1044.89 134.047 1043.88 135.54C1042.92 136.98 1041.88 138.607 1040.76 140.42C1039.75 142.073 1038.92 143.087 1038.28 143.46C1037.64 143.78 1037.03 143.753 1036.44 143.38C1035.27 143.007 1034.52 142.5 1034.2 141.86C1033.93 141.167 1033.91 140.393 1034.12 139.54C1034.39 138.633 1034.71 137.46 1035.08 136.02C1035.51 134.58 1035.91 133.193 1036.28 131.86C1036.65 130.473 1036.89 129.46 1037 128.82C1036.79 128.393 1036.41 128.26 1035.88 128.42C1035.4 128.527 1034.89 128.767 1034.36 129.14C1033.72 129.567 1033.03 130.02 1032.28 130.5C1031.59 130.98 1030.76 131.993 1029.8 133.54C1029.16 134.553 1028.44 135.673 1027.64 136.9C1026.84 138.073 1026.09 139.14 1025.4 140.1C1024.76 141.06 1024.23 141.727 1023.8 142.1C1023.43 143.06 1023.08 143.673 1022.76 143.94C1022.44 144.153 1021.99 144.127 1021.4 143.86ZM1074.55 145.78C1072.47 144.927 1071.03 143.54 1070.23 141.62C1069.43 139.7 1069.21 137.14 1069.59 133.94C1069.69 132.287 1069.64 131.193 1069.43 130.66C1069.21 130.073 1068.81 129.513 1068.23 128.98C1068.07 128.767 1067.69 128.42 1067.11 127.94C1066.52 127.407 1066.25 127.007 1066.31 126.74C1066.25 126.367 1066.33 125.913 1066.55 125.38C1066.76 124.793 1066.95 124.473 1067.11 124.42C1067.48 124.26 1067.85 124.073 1068.23 123.86C1068.65 123.647 1068.97 123.593 1069.19 123.7C1069.4 123.7 1069.72 123.833 1070.15 124.1C1070.63 124.367 1070.87 124.607 1070.87 124.82C1071.08 125.193 1071.4 125.033 1071.83 124.34C1072.31 123.647 1072.81 122.767 1073.35 121.7C1073.88 120.847 1074.55 120.047 1075.35 119.3C1076.15 118.553 1076.95 117.887 1077.75 117.3C1078.6 116.66 1079.32 116.18 1079.91 115.86C1080.17 115.753 1080.68 115.593 1081.43 115.38C1082.23 115.167 1083.05 115.007 1083.91 114.9C1084.76 114.74 1085.4 114.687 1085.83 114.74C1086.79 114.793 1087.8 115.193 1088.87 115.94C1089.93 116.687 1090.76 117.38 1091.35 118.02C1092.04 118.5 1092.49 119.247 1092.71 120.26C1092.97 121.22 1093.08 122.233 1093.03 123.3C1092.97 124.367 1092.76 125.273 1092.39 126.02C1092.23 126.553 1091.67 127.3 1090.71 128.26C1089.75 129.22 1088.68 130.153 1087.51 131.06C1086.39 131.913 1085.43 132.5 1084.63 132.82C1083.93 132.98 1083.11 133.113 1082.15 133.22C1081.19 133.273 1080.28 133.273 1079.43 133.22C1078.63 133.113 1078.07 132.98 1077.75 132.82C1077.37 132.607 1077.05 132.687 1076.79 133.06C1076.57 133.38 1076.39 134.287 1076.23 135.78C1076.17 136.367 1076.17 136.873 1076.23 137.3C1076.33 137.727 1076.44 138.047 1076.55 138.26C1076.92 138.9 1077.29 139.38 1077.67 139.7C1078.04 139.967 1078.73 140.047 1079.75 139.94C1080.76 139.833 1081.77 139.22 1082.79 138.1C1083.85 136.927 1084.81 135.993 1085.67 135.3C1085.88 134.927 1086.33 134.687 1087.03 134.58C1087.77 134.42 1088.65 134.473 1089.67 134.74C1090.25 135.113 1090.52 135.7 1090.47 136.5C1090.47 137.3 1090.04 138.473 1089.19 140.02C1089.03 140.393 1088.57 140.953 1087.83 141.7C1087.13 142.393 1086.36 143.113 1085.51 143.86C1084.71 144.553 1084.04 145.06 1083.51 145.38C1081.91 146.233 1080.33 146.633 1078.79 146.58C1077.24 146.527 1075.83 146.26 1074.55 145.78ZM1080.47 127.78C1081.27 127.567 1081.93 127.353 1082.47 127.14C1083.05 126.927 1083.61 126.58 1084.15 126.1C1084.68 125.62 1085.29 124.9 1085.99 123.94C1086.2 123.353 1086.31 122.847 1086.31 122.42C1086.36 121.993 1086.33 121.727 1086.23 121.62C1085.8 121.193 1085.32 121.06 1084.79 121.22C1084.31 121.327 1083.77 121.593 1083.19 122.02C1082.81 122.18 1082.28 122.527 1081.59 123.06C1080.95 123.54 1080.31 124.1 1079.67 124.74C1079.08 125.327 1078.6 125.887 1078.23 126.42C1077.91 126.9 1077.85 127.193 1078.07 127.3C1077.96 127.513 1078.25 127.647 1078.95 127.7C1079.69 127.753 1080.2 127.78 1080.47 127.78ZM1103.83 144.34C1103.35 143.967 1102.81 143.487 1102.23 142.9C1101.69 142.313 1101.51 141.487 1101.67 140.42C1101.83 138.927 1102.04 137.62 1102.31 136.5C1102.57 135.327 1102.89 133.993 1103.27 132.5C1103.37 131.86 1103.64 130.767 1104.07 129.22C1104.55 127.673 1105.11 125.993 1105.75 124.18C1106.39 122.367 1107.05 120.66 1107.75 119.06C1108.44 117.407 1109.05 116.18 1109.59 115.38C1110.17 114.847 1111.03 114.58 1112.15 114.58C1113.32 114.58 1114.12 114.793 1114.55 115.22C1115.13 115.7 1115.32 116.553 1115.11 117.78C1114.89 118.953 1114.15 120.793 1112.87 123.3C1112.6 123.94 1112.25 124.633 1111.83 125.38C1111.45 126.073 1111.19 126.66 1111.03 127.14C1110.87 127.567 1110.92 127.753 1111.19 127.7C1111.51 127.113 1112.09 126.447 1112.95 125.7C1113.8 124.9 1114.71 124.127 1115.67 123.38C1116.63 122.633 1117.53 121.967 1118.39 121.38C1119.24 120.793 1119.83 120.42 1120.15 120.26C1120.57 119.993 1121.05 119.78 1121.59 119.62C1122.17 119.407 1122.57 119.247 1122.79 119.14C1124.01 118.553 1125.35 118.34 1126.79 118.5C1128.28 118.607 1129.19 119.06 1129.51 119.86C1129.56 120.287 1129.72 120.607 1129.99 120.82C1130.31 121.033 1130.47 121.14 1130.47 121.14C1130.68 121.14 1130.79 121.22 1130.79 121.38C1130.84 121.54 1130.87 121.62 1130.87 121.62C1130.87 121.993 1130.49 122.527 1129.75 123.22C1129.05 123.913 1128.28 124.287 1127.43 124.34C1126.73 124.393 1126.12 124.527 1125.59 124.74C1125.05 124.953 1124.41 125.22 1123.67 125.54C1121.64 126.713 1119.8 127.753 1118.15 128.66C1116.55 129.567 1114.89 130.953 1113.19 132.82C1112.81 133.247 1112.41 133.647 1111.99 134.02C1111.56 134.393 1111.13 134.927 1110.71 135.62C1110.44 135.887 1110.17 136.473 1109.91 137.38C1109.64 138.287 1109.4 139.167 1109.19 140.02C1109.03 140.82 1108.95 141.3 1108.95 141.46C1108.95 141.46 1108.87 141.727 1108.71 142.26C1108.55 142.74 1108.28 143.22 1107.91 143.7C1107.27 144.553 1106.63 145.087 1105.99 145.3C1105.4 145.513 1104.68 145.193 1103.83 144.34ZM1170.83 151.38C1168.7 150.847 1166.96 149.727 1165.63 148.02C1164.35 146.367 1163.31 144.367 1162.51 142.02C1162.46 141.327 1162.43 140.367 1162.43 139.14C1162.48 137.913 1162.56 136.767 1162.67 135.7C1162.78 134.633 1162.88 134.02 1162.99 133.86C1163.15 133.753 1163.23 133.433 1163.23 132.9C1163.18 132.687 1163.2 132.34 1163.31 131.86C1163.47 131.327 1163.63 130.793 1163.79 130.26C1164.06 129.62 1164.19 129.113 1164.19 128.74C1164.19 128.313 1164.16 127.993 1164.11 127.78C1164.11 127.78 1164.19 127.62 1164.35 127.3C1164.51 126.927 1164.7 126.633 1164.91 126.42C1165.23 126.1 1165.36 125.78 1165.31 125.46C1165.31 125.14 1165.31 124.98 1165.31 124.98C1165.26 124.767 1165.31 124.473 1165.47 124.1C1165.63 123.727 1165.79 123.433 1165.95 123.22C1166.06 123.113 1166.19 122.9 1166.35 122.58C1166.56 122.207 1166.67 122.02 1166.67 122.02C1166.67 121.86 1166.78 121.433 1166.99 120.74C1167.26 120.047 1167.55 119.3 1167.87 118.5C1168.19 117.647 1168.48 116.873 1168.75 116.18C1169.07 115.487 1169.31 115.033 1169.47 114.82V114.66C1169.68 114.127 1169.98 113.567 1170.35 112.98C1170.4 112.713 1170.54 112.287 1170.75 111.7C1170.96 111.06 1171.2 110.447 1171.47 109.86C1172.06 108.58 1172.78 107.14 1173.63 105.54C1174.54 103.887 1175.5 102.26 1176.51 100.66C1177.52 99.0067 1178.48 97.54 1179.39 96.26C1180.35 94.9267 1181.18 93.94 1181.87 93.3C1182.78 92.2867 1183.68 91.5667 1184.59 91.14C1185.55 90.66 1186.43 90.82 1187.23 91.62C1187.6 91.9933 1187.92 92.5533 1188.19 93.3C1188.46 93.9933 1188.56 94.66 1188.51 95.3C1188.51 95.8867 1188.3 96.2067 1187.87 96.26C1187.5 96.4733 1186.99 97.0867 1186.35 98.1C1185.71 99.06 1184.99 100.207 1184.19 101.54C1183.44 102.873 1182.7 104.26 1181.95 105.7C1181.2 107.087 1180.51 108.34 1179.87 109.46C1179.18 111.007 1178.54 112.367 1177.95 113.54C1177.36 114.66 1177.07 115.22 1177.07 115.22C1177.02 115.38 1176.96 115.513 1176.91 115.62C1176.86 115.727 1176.8 115.833 1176.75 115.94C1175.95 117.593 1175.28 119.113 1174.75 120.5C1174.22 121.833 1173.68 123.247 1173.15 124.74C1172.83 125.113 1172.64 125.487 1172.59 125.86C1172.54 126.233 1172.51 126.42 1172.51 126.42C1172.4 126.367 1172.32 126.5 1172.27 126.82C1172.22 127.087 1172.11 127.407 1171.95 127.78C1171.68 127.993 1171.52 128.34 1171.47 128.82C1171.42 129.247 1171.39 129.673 1171.39 130.1C1171.02 131.06 1170.67 132.233 1170.35 133.62C1170.03 134.953 1169.79 136.26 1169.63 137.54C1169.52 138.767 1169.5 139.727 1169.55 140.42C1169.66 141.327 1169.9 142.1 1170.27 142.74C1170.7 143.327 1171.28 143.807 1172.03 144.18C1172.62 144.447 1173.15 144.687 1173.63 144.9C1174.11 145.06 1174.54 145.14 1174.91 145.14C1175.34 145.193 1175.87 145.193 1176.51 145.14C1177.2 145.033 1178.14 144.873 1179.31 144.66H1179.23C1179.92 144.553 1180.64 144.42 1181.39 144.26C1182.19 144.047 1182.94 143.86 1183.63 143.7C1184.27 143.593 1184.88 143.487 1185.47 143.38C1186.06 143.22 1186.51 143.087 1186.83 142.98C1188 142.66 1188.94 142.393 1189.63 142.18C1190.38 141.967 1190.88 141.967 1191.15 142.18C1191.42 142.393 1191.71 142.793 1192.03 143.38C1192.35 143.967 1192.43 144.5 1192.27 144.98C1192.16 145.247 1191.63 145.78 1190.67 146.58C1189.71 147.433 1188.62 148.26 1187.39 149.06C1186.16 149.913 1185.04 150.5 1184.03 150.82C1182.96 151.3 1181.52 151.62 1179.71 151.78C1177.95 151.993 1176.24 152.047 1174.59 151.94C1172.94 151.833 1171.68 151.647 1170.83 151.38ZM1209.21 145.94C1208.52 145.94 1207.96 145.807 1207.53 145.54C1207.16 145.273 1206.68 144.9 1206.09 144.42C1205.08 143.353 1204.25 142.207 1203.61 140.98C1203.03 139.753 1202.81 138.687 1202.97 137.78C1203.13 137.353 1203.19 136.953 1203.13 136.58C1203.13 136.153 1203.13 135.94 1203.13 135.94C1202.87 135.673 1202.79 135.513 1202.89 135.46C1203 135.353 1203.11 135.193 1203.21 134.98C1203.53 134.98 1203.64 134.687 1203.53 134.1C1203.43 133.673 1203.59 132.767 1204.01 131.38C1204.49 129.94 1205.13 128.58 1205.93 127.3C1206.25 126.767 1206.73 126.073 1207.37 125.22C1208.01 124.313 1208.71 123.433 1209.45 122.58C1210.25 121.673 1210.97 120.953 1211.61 120.42C1212.95 119.3 1214.17 118.393 1215.29 117.7C1216.47 117.007 1217.64 116.527 1218.81 116.26C1219.99 115.993 1221.19 115.86 1222.41 115.86C1223.69 115.86 1224.73 116.287 1225.53 117.14C1226.76 117.673 1227.61 118.393 1228.09 119.3C1228.63 120.207 1228.97 121.38 1229.13 122.82C1229.29 124.42 1229.13 126.393 1228.65 128.74C1228.17 131.033 1226.87 133.7 1224.73 136.74C1223.4 138.66 1222.09 140.153 1220.81 141.22C1219.53 142.287 1218.12 143.273 1216.57 144.18C1215.45 144.927 1214.25 145.38 1212.97 145.54C1211.69 145.7 1210.44 145.833 1209.21 145.94ZM1217.37 136.18C1218.55 135.167 1219.37 134.047 1219.85 132.82C1220.39 131.593 1220.95 130.153 1221.53 128.5C1221.75 128.18 1221.88 127.647 1221.93 126.9C1222.04 126.153 1222.07 125.433 1222.01 124.74C1221.96 123.993 1221.77 123.567 1221.45 123.46C1220.97 123.087 1220.49 123.007 1220.01 123.22C1219.53 123.38 1218.92 123.727 1218.17 124.26C1216.57 125.593 1215.08 127.14 1213.69 128.9C1212.36 130.607 1211.43 132.713 1210.89 135.22C1210.73 136.553 1210.87 137.567 1211.29 138.26C1211.77 138.9 1212.52 139.087 1213.53 138.82C1214.6 138.5 1215.88 137.62 1217.37 136.18ZM1246.28 145.38C1245.85 145.487 1245.29 145.54 1244.6 145.54C1243.9 145.487 1243.29 145.407 1242.76 145.3C1242.28 145.14 1242.04 144.98 1242.04 144.82C1242.04 144.553 1241.9 144.42 1241.64 144.42C1241.64 144.42 1241.34 144.207 1240.76 143.78C1240.17 143.3 1239.64 142.953 1239.16 142.74C1238.68 141.993 1238.36 141.14 1238.2 140.18C1238.09 139.167 1238.41 137.407 1239.16 134.9C1239.21 133.193 1239.69 131.407 1240.6 129.54C1241.5 127.62 1242.65 125.753 1244.04 123.94C1245.42 122.127 1246.86 120.527 1248.36 119.14C1249.85 117.7 1251.18 116.633 1252.36 115.94C1253.1 115.193 1254.09 114.793 1255.32 114.74C1256.6 114.687 1257.72 114.927 1258.68 115.46C1259.21 115.727 1259.8 116.26 1260.44 117.06C1261.08 117.86 1261.69 118.713 1262.28 119.62C1262.86 120.473 1263.32 121.247 1263.64 121.94C1263.8 122.527 1263.93 123.06 1264.04 123.54C1264.2 123.967 1264.3 124.5 1264.36 125.14C1264.41 125.78 1264.36 126.74 1264.2 128.02C1263.93 128.98 1263.69 129.967 1263.48 130.98C1263.32 131.94 1263.24 132.927 1263.24 133.94C1263.13 134.953 1263.24 135.673 1263.56 136.1C1263.93 136.527 1264.46 136.553 1265.16 136.18C1265.8 135.86 1266.46 135.833 1267.16 136.1C1267.85 136.313 1268.33 136.74 1268.6 137.38C1268.92 137.967 1268.84 138.74 1268.36 139.7C1268.04 140.393 1267.53 141.06 1266.84 141.7C1266.14 142.34 1265.37 142.873 1264.52 143.3C1263.66 143.673 1262.84 143.86 1262.04 143.86C1261.45 143.86 1260.86 143.647 1260.28 143.22C1259.69 142.74 1259.16 142.1 1258.68 141.3C1258.2 140.5 1257.8 139.62 1257.48 138.66L1257 136.82L1254.12 139.46C1253.42 140.207 1252.73 140.9 1252.04 141.54C1251.4 142.127 1251 142.553 1250.84 142.82C1250.57 143.3 1250.04 143.727 1249.24 144.1C1248.49 144.473 1247.5 144.9 1246.28 145.38ZM1248.44 137.7C1249.34 137.167 1250.12 136.527 1250.76 135.78C1251.45 135.033 1252.12 134.207 1252.76 133.3C1253.4 132.34 1254.09 131.327 1254.84 130.26C1255.74 129.033 1256.38 128.047 1256.76 127.3C1257.18 126.553 1257.5 125.753 1257.72 124.9C1257.5 124.313 1257.21 123.7 1256.84 123.06C1256.46 122.367 1256.09 121.993 1255.72 121.94C1254.97 121.94 1254.06 122.393 1253 123.3C1251.98 124.207 1250.86 125.513 1249.64 127.22C1249.42 127.487 1249.16 127.913 1248.84 128.5C1248.52 129.087 1248.2 129.647 1247.88 130.18C1247.61 130.66 1247.42 130.98 1247.32 131.14C1247.16 131.353 1246.92 131.86 1246.6 132.66C1246.33 133.407 1246.09 134.18 1245.88 134.98C1245.66 135.727 1245.56 136.26 1245.56 136.58C1245.56 136.9 1245.58 137.247 1245.64 137.62C1245.74 137.993 1246.01 138.233 1246.44 138.34C1246.86 138.447 1247.53 138.233 1248.44 137.7ZM1303.89 146.18C1303.09 146.18 1302.32 145.94 1301.57 145.46C1300.82 144.927 1300.21 144.207 1299.73 143.3C1299.25 142.34 1299.01 141.22 1299.01 139.94C1299.01 139.14 1299.14 138.02 1299.41 136.58C1299.73 135.087 1300.18 133.22 1300.77 130.98C1300.88 130.233 1300.96 129.753 1301.01 129.54C1301.12 129.327 1301.17 129.113 1301.17 128.9C1301.17 128.793 1301.14 128.713 1301.09 128.66C1301.09 128.553 1301.04 128.5 1300.93 128.5C1300.5 128.5 1299.92 128.793 1299.17 129.38C1298.48 129.913 1297.68 130.553 1296.77 131.3C1296.61 131.407 1296.42 131.54 1296.21 131.7C1296.05 131.86 1295.86 132.02 1295.65 132.18C1295.49 132.34 1295.3 132.5 1295.09 132.66C1294.56 132.98 1293.73 133.593 1292.61 134.5C1291.54 135.407 1290.42 136.367 1289.25 137.38C1288.13 138.393 1287.14 139.247 1286.29 139.94C1285.86 140.26 1285.49 140.527 1285.17 140.74C1284.9 140.953 1284.72 141.06 1284.61 141.06C1284.5 141.06 1284.08 140.927 1283.33 140.66C1282.64 140.34 1281.94 139.913 1281.25 139.38C1280.61 138.793 1280.29 138.127 1280.29 137.38C1280.29 136.9 1280.48 135.94 1280.85 134.5C1281.28 133.06 1281.86 131.353 1282.61 129.38C1283.36 127.407 1284.21 125.407 1285.17 123.38C1285.38 122.9 1285.54 122.26 1285.65 121.46C1285.76 120.66 1285.86 119.887 1285.97 119.14C1286.13 118.34 1286.4 117.753 1286.77 117.38C1286.93 117.113 1287.12 116.927 1287.33 116.82C1287.6 116.66 1287.86 116.58 1288.13 116.58C1288.66 116.58 1289.17 116.713 1289.65 116.98C1290.13 117.193 1290.58 117.567 1291.01 118.1C1291.81 118.953 1292.24 119.967 1292.29 121.14C1292.4 122.26 1292.32 123.353 1292.05 124.42C1291.78 125.487 1291.49 126.367 1291.17 127.06C1290.85 127.7 1290.69 127.967 1290.69 127.86C1290.9 127.753 1291.2 127.487 1291.57 127.06C1292 126.633 1292.72 126.127 1293.73 125.54C1295.12 124.473 1296.18 123.727 1296.93 123.3C1297.68 122.82 1298.24 122.473 1298.61 122.26C1299.04 122.047 1299.41 121.807 1299.73 121.54C1300 121.327 1300.18 121.193 1300.29 121.14C1300.45 121.087 1300.53 121.06 1300.53 121.06C1300.69 121.06 1300.96 120.953 1301.33 120.74C1301.76 120.527 1302.16 120.42 1302.53 120.42C1303.06 120.42 1303.62 120.553 1304.21 120.82C1304.8 121.033 1305.3 121.353 1305.73 121.78C1306.16 122.153 1306.37 122.553 1306.37 122.98C1306.37 123.14 1306.42 123.273 1306.53 123.38C1306.64 123.487 1306.74 123.62 1306.85 123.78C1307.12 124.1 1307.41 124.553 1307.73 125.14C1308.1 125.673 1308.29 126.553 1308.29 127.78C1308.29 128.633 1308.1 129.887 1307.73 131.54C1307.36 133.193 1306.96 134.82 1306.53 136.42C1306.1 138.073 1305.89 139.407 1305.89 140.42C1305.94 141.38 1306.05 142.127 1306.21 142.66C1306.37 143.14 1306.45 143.54 1306.45 143.86C1306.45 144.287 1306.24 144.793 1305.81 145.38C1305.38 145.913 1304.74 146.18 1303.89 146.18ZM1329.41 147.06C1326.58 147.06 1324.5 146.153 1323.17 144.34C1322.79 143.487 1322.61 142.633 1322.61 141.78C1322.66 140.873 1322.87 140.233 1323.25 139.86C1323.62 139.433 1324.07 139.513 1324.61 140.1C1325.3 140.527 1326.29 140.74 1327.57 140.74C1328.21 140.74 1328.77 140.74 1329.25 140.74C1329.78 140.687 1330.39 140.633 1331.09 140.58C1332.31 140.473 1333.09 140.1 1333.41 139.46C1333.78 138.82 1333.7 138.287 1333.17 137.86H1333.25C1331.81 137.487 1330.39 136.953 1329.01 136.26C1327.62 135.567 1326.45 134.793 1325.49 133.94C1324.53 133.033 1323.97 132.18 1323.81 131.38C1323.38 129.62 1323.49 127.807 1324.13 125.94C1324.77 124.073 1325.7 122.447 1326.93 121.06C1327.41 120.74 1328.07 120.287 1328.93 119.7C1329.78 119.06 1330.39 118.713 1330.77 118.66V118.74C1331.78 117.673 1332.93 116.82 1334.21 116.18C1335.49 115.487 1336.98 114.847 1338.69 114.26L1339.97 114.1C1340.61 113.993 1341.17 113.94 1341.65 113.94C1341.59 113.94 1341.73 113.993 1342.05 114.1C1342.37 114.207 1342.63 114.287 1342.85 114.34C1343.17 114.5 1343.49 114.58 1343.81 114.58C1344.55 114.687 1345.27 115.087 1345.97 115.78C1346.71 116.42 1347.3 117.193 1347.73 118.1C1348.21 118.953 1348.39 119.753 1348.29 120.5C1348.13 121.727 1347.67 122.953 1346.93 124.18C1346.18 125.353 1345.38 126.02 1344.53 126.18C1344.63 126.127 1344.53 126.02 1344.21 125.86C1343.89 125.7 1343.59 125.54 1343.33 125.38L1343.01 125.54C1343.01 125.54 1342.98 125.46 1342.93 125.3C1342.93 125.14 1342.87 124.953 1342.77 124.74C1342.55 124.367 1342.39 123.967 1342.29 123.54C1342.23 123.113 1342.23 122.633 1342.29 122.1C1342.39 121.513 1342.42 121.167 1342.37 121.06C1342.31 120.953 1341.99 120.873 1341.41 120.82C1340.71 120.66 1339.83 120.74 1338.77 121.06C1337.7 121.327 1336.71 121.807 1335.81 122.5C1334.74 123.193 1333.94 123.753 1333.41 124.18C1332.93 124.607 1332.55 125.033 1332.29 125.46C1332.02 125.833 1331.73 126.393 1331.41 127.14C1331.19 127.513 1331.01 127.86 1330.85 128.18C1330.69 128.447 1330.61 128.713 1330.61 128.98C1330.61 129.513 1331.06 130.073 1331.97 130.66C1332.87 131.193 1334.23 131.833 1336.05 132.58C1337.49 133.167 1338.42 133.967 1338.85 134.98C1339.33 135.993 1339.75 136.953 1340.13 137.86C1340.23 138.073 1340.34 138.473 1340.45 139.06C1340.61 139.593 1340.63 139.913 1340.53 140.02C1340.63 140.127 1340.69 140.233 1340.69 140.34V140.26C1341.11 141.06 1341.03 141.913 1340.45 142.82C1339.91 143.673 1339.06 144.473 1337.89 145.22C1336.71 145.913 1335.38 146.42 1333.89 146.74H1333.97C1333.17 146.847 1332.37 146.927 1331.57 146.98C1330.82 147.033 1330.1 147.06 1329.41 147.06Z" fill="#B8C318"/>
<defs>
<clipPath id="clip0_1059_1330">
<rect width="202" height="140.918" fill="white" transform="translate(0 17)"/>
</clipPath>
</defs>
</svg>
