<svg width="500" height="500" viewBox="0 0 500 500" fill="none" xmlns="http://www.w3.org/2000/svg">
<g clip-path="url(#clip0_722_3126)">
<path d="M363.892 28.1177C403.041 49.6585 436.622 79.4647 462.113 115.3C485.697 148.035 498.828 186.705 499.888 226.545C500.948 266.385 489.891 305.654 468.079 339.511C439.664 386.434 399.694 442.487 348.927 467.318C273.155 503.834 216.329 514.607 143.777 473.435C83.1599 439.109 23.204 369.089 9.84924 314.588C-3.50557 260.088 -8.14549 199.562 27.562 141.136C71.6045 68.7422 143.302 16.5241 220.4 3.37819C269.761 -5.37959 320.742 3.40984 363.892 28.1177Z" fill="#F8F9E9"/>
</g>
<g clip-path="url(#clip1_722_3126)">
<path d="M203.4 382.872C293.091 382.872 365.8 310.147 365.8 220.436C365.8 130.725 293.091 58 203.4 58C113.709 58 41 130.725 41 220.436C41 310.147 113.709 382.872 203.4 382.872Z" fill="#40A8DC"/>
<path d="M207.263 198H206.309C205.894 197.876 205.509 197.67 205.175 197.397C204.841 197.125 204.566 196.788 204.366 196.409C204.166 196.031 204.046 195.618 204.011 195.193C203.976 194.768 204.027 194.343 204.162 193.938C206.468 186.829 213.068 170.503 225.234 170.503H225.79C228.366 170.494 230.85 171.435 232.751 173.142C234.651 174.85 235.828 177.197 236.047 179.718C236.842 182.921 237.479 184.798 240.103 186.126C240.911 185.996 241.69 185.731 242.408 185.344C244.27 184.363 245.772 182.833 246.702 180.969C247.507 179.655 248.411 178.402 249.406 177.22L250.519 175.736C251.903 173.866 253.534 172.183 255.369 170.735C257.013 169.606 258.97 169 260.975 169C262.981 169 264.938 169.606 266.581 170.735C268.711 172.36 270.269 174.599 271.034 177.14C271.304 177.888 271.622 178.621 271.988 179.329C274.453 183.938 275.725 185.266 278.269 185.031C283.994 184.563 286.221 180.344 288.924 176.281C289.567 175.143 290.284 174.048 291.071 173.001C291.606 172.328 292.387 171.886 293.248 171.769C294.109 171.652 294.983 171.87 295.683 172.376C296.031 172.629 296.324 172.948 296.545 173.314C296.766 173.68 296.91 174.09 296.969 174.512C297.029 174.934 297.002 175.363 296.89 175.774C296.778 176.186 296.584 176.57 296.319 176.907C295.763 177.688 295.206 178.626 294.57 179.642C293.171 182.782 290.973 185.514 288.188 187.579C285.403 189.645 282.125 190.973 278.667 191.436C270.716 192.061 267.933 185.968 266.024 182.297C265.507 181.403 265.081 180.462 264.752 179.485C264.393 178.234 263.739 177.082 262.844 176.125C262.292 175.759 261.641 175.564 260.975 175.564C260.309 175.564 259.659 175.759 259.107 176.125C257.763 177.233 256.586 178.524 255.608 179.955L254.335 181.515C253.523 182.533 252.779 183.604 252.109 184.719C250.54 187.596 248.093 189.918 245.112 191.359C243.927 192.057 242.6 192.487 241.225 192.622C239.851 192.757 238.463 192.594 237.161 192.141C235.05 191.168 233.218 189.695 231.83 187.854C230.443 186.013 229.542 183.862 229.209 181.595C228.255 178.08 227.937 177.296 224.995 177.14C218.555 177.14 213.147 186.906 210.205 196.123C209.94 196.673 209.525 197.139 209.005 197.47C208.486 197.801 207.882 197.986 207.263 198Z" fill="#B6DAF3"/>
<path d="M244.488 146.186H243.837C243.327 146.022 242.904 145.664 242.66 145.187C242.416 144.711 242.371 144.158 242.535 143.648C243.967 139.089 248.069 128.602 255.558 128.602H255.883C257.513 128.596 259.086 129.2 260.292 130.297C261.498 131.395 262.248 132.903 262.395 134.527C262.916 136.611 263.306 137.786 264.999 138.633C265.497 138.522 265.979 138.346 266.432 138.111C267.594 137.512 268.53 136.552 269.102 135.376C269.607 134.512 270.173 133.683 270.795 132.899L271.511 131.989C272.409 130.795 273.436 129.703 274.572 128.733C275.621 128.059 276.841 127.699 278.088 127.699C279.334 127.699 280.555 128.059 281.604 128.733C282.966 129.753 283.951 131.195 284.404 132.835L284.99 134.203C286.553 137.199 287.335 137.981 288.963 137.85C292.544 137.525 294.107 134.855 295.474 132.25C295.885 131.527 296.342 130.829 296.841 130.164C297.169 129.732 297.656 129.448 298.193 129.375C298.459 129.339 298.73 129.355 298.989 129.423C299.249 129.491 299.493 129.61 299.706 129.773C299.92 129.935 300.1 130.139 300.235 130.371C300.371 130.603 300.459 130.861 300.495 131.127C300.532 131.394 300.515 131.663 300.447 131.923C300.379 132.182 300.26 132.427 300.097 132.641L298.99 134.397C298.139 136.407 296.778 138.163 295.043 139.488C293.307 140.813 291.256 141.662 289.092 141.953C284.209 142.344 282.581 138.436 281.148 136.092C280.849 135.524 280.588 134.936 280.367 134.333C280.155 133.519 279.728 132.776 279.13 132.183C278.791 131.962 278.395 131.843 277.99 131.843C277.586 131.843 277.189 131.962 276.851 132.183C275.984 132.884 275.237 133.719 274.637 134.658L273.79 135.637C273.298 136.285 272.841 136.956 272.423 137.653C271.45 139.527 269.896 141.036 267.995 141.953C267.249 142.406 266.41 142.682 265.541 142.761C264.672 142.84 263.796 142.722 262.981 142.411C261.73 141.779 260.647 140.859 259.82 139.727C258.994 138.595 258.448 137.282 258.227 135.898C257.641 133.618 257.446 133.161 255.623 133.096C251.586 133.096 248.199 139.283 246.311 145.209C246.118 145.517 245.849 145.77 245.529 145.941C245.21 146.112 244.851 146.196 244.488 146.186Z" fill="#B6DAF3"/>
<path d="M84.8887 297.354H84.3025C83.8393 297.191 83.4551 296.86 83.2258 296.426C82.9966 295.991 82.9394 295.485 83.0657 295.01C84.4331 290.842 88.2097 281.332 95.112 281.332H95.5027C99.9957 281.332 100.777 284.655 101.363 286.739C101.949 288.823 102.145 289.672 103.707 290.453C104.14 290.362 104.557 290.206 104.945 289.995C106.029 289.447 106.899 288.552 107.419 287.454C107.875 286.803 108.331 286.022 108.982 285.241L109.633 284.395C110.428 283.294 111.37 282.307 112.433 281.463C113.39 280.802 114.525 280.448 115.689 280.448C116.852 280.448 117.987 280.802 118.944 281.463C120.183 282.421 121.094 283.742 121.549 285.241C121.655 285.679 121.831 286.096 122.07 286.478C123.503 289.213 124.154 289.932 125.652 289.801C128.907 289.801 130.34 287.064 131.773 284.719C132.139 284.061 132.553 283.43 133.01 282.83C133.308 282.439 133.746 282.181 134.233 282.108C134.719 282.035 135.215 282.155 135.614 282.442C136.01 282.752 136.272 283.201 136.345 283.698C136.417 284.196 136.296 284.7 136.005 285.11C136.005 285.501 135.354 286.089 134.963 286.675C134.187 288.502 132.951 290.096 131.377 291.305C129.803 292.515 127.943 293.3 125.977 293.579C121.549 293.905 119.856 290.386 118.749 288.237C118.456 287.719 118.217 287.174 118.033 286.608C117.642 285.696 117.382 284.916 116.926 284.656C116.607 284.446 116.233 284.334 115.852 284.334C115.47 284.334 115.096 284.446 114.777 284.656C114.024 285.316 113.347 286.058 112.759 286.869L112.042 287.782L110.74 289.671C109.853 291.354 108.464 292.72 106.768 293.579C106.076 293.988 105.301 294.234 104.501 294.301C103.7 294.369 102.895 294.254 102.145 293.967C100.984 293.374 99.9864 292.506 99.2374 291.439C98.4885 290.372 98.0111 289.139 97.8468 287.845C97.3259 285.761 97.1306 285.373 95.4375 285.308C91.7259 285.308 88.9259 290.974 86.9073 296.314C86.7484 296.699 86.4586 297.014 86.089 297.205C85.7194 297.396 85.2941 297.447 84.8887 297.354Z" fill="#B6DAF3"/>
<path d="M238.238 289.54C231.401 281.399 220.201 280.553 210.303 280.031C210.121 280.016 209.938 280.043 209.768 280.111C209.599 280.179 209.447 280.286 209.326 280.423C201.317 279.12 193.503 273.19 185.233 276.056C181.819 277.432 178.751 279.546 176.247 282.245C173.497 285.093 170.166 287.314 166.48 288.758C164.512 289.211 162.664 290.078 161.058 291.302C159.452 292.526 158.126 294.079 157.168 295.856C155.361 300.132 154.346 304.702 154.173 309.34C153.609 313.349 154.279 317.435 156.094 321.053C157.908 324.671 160.781 327.65 164.331 329.595C167.56 330.498 170.956 330.631 174.246 329.986C177.536 329.342 180.63 327.938 183.28 325.884C189.27 322.562 196.303 318.588 202.424 323.604C205.068 326.269 207.874 328.77 210.824 331.093C214.118 333.04 218.035 333.648 221.764 332.788C225.647 331.67 229.194 329.611 232.09 326.793C234.987 323.976 237.143 320.487 238.368 316.636C240.513 311.847 241.876 306.744 242.405 301.523C242.649 297.135 241.152 292.83 238.238 289.54Z" fill="#9ACC77"/>
<path d="M192.331 143.388C190.976 142.654 189.482 142.21 187.946 142.087C186.41 141.964 184.865 142.161 183.41 142.669C180.37 140.436 176.698 139.234 172.926 139.234C169.155 139.234 165.482 140.436 162.442 142.669C160.659 144.379 158.642 145.827 156.452 146.969C152.306 149.118 148.526 151.91 145.252 155.24L139.131 163.967C131.783 173.805 124.958 184.024 118.684 194.58C115.694 199.389 113.749 204.775 112.975 210.385C112.201 215.996 112.615 221.705 114.191 227.145C116.198 231.482 119.466 235.115 123.568 237.566C125.568 238.863 127.423 240.369 129.103 242.06C131.099 244.332 132.646 246.962 133.661 249.81C134.817 254.165 137.619 257.902 141.475 260.232C143.339 261.156 145.409 261.58 147.486 261.466C149.563 261.352 151.575 260.703 153.326 259.58C157.298 256.519 157.494 249.485 158.34 244.925C159.321 238.818 161.371 232.932 164.396 227.536C167.457 222.456 170.908 217.701 173.773 212.491C176.641 207.178 179.185 201.697 181.391 196.077C186.34 183.637 190.377 170.808 194.415 158.173C196.238 153.418 197.475 146.579 192.331 143.388Z" fill="#B2D795"/>
<path d="M356.684 299.439C322.889 310.576 292.545 275.861 297.428 243.296C300.619 222.128 317.614 208.778 331.744 194.384L355.056 170.545C359.808 164.911 365.332 159.977 371.466 155.891C401.093 139.087 433.13 171.195 434.758 200.048C436.256 227.142 415.224 243.491 398.033 260.946C394.191 264.854 395.103 269.087 400.572 270.455C403.813 271.094 407.157 270.986 410.35 270.14C413.543 269.293 416.501 267.73 419 265.57C437.168 247.008 459.698 229.032 460.935 200.961C461.398 191.392 459.593 181.85 455.666 173.112C451.739 164.373 445.802 156.685 438.34 150.678C430.143 144.508 420.702 140.196 410.673 138.037C400.644 135.878 390.265 135.923 380.256 138.174C352.126 143.84 335.261 164.749 316.312 184.093C299.512 201.287 276.917 218.805 271.838 243.49C269.733 253.883 270.394 264.648 273.753 274.707C277.113 284.765 283.054 293.765 290.982 300.807C300.527 308.616 311.925 313.827 324.074 315.938C336.223 318.049 348.712 316.989 360.331 312.856C364.303 311.554 372.898 308.36 371.531 302.629C370.163 296.897 360.2 298.267 356.684 299.439Z" fill="#DDE0E5"/>
<path d="M330.05 280.486C364.627 269.609 394.32 306.538 388.264 339.103C384.422 359.489 367.036 372.905 353.297 387.039L330.897 409.834C326.145 415.469 320.621 420.402 314.487 424.489C284.925 441.292 252.822 409.184 251.259 380.331C249.697 353.107 270.795 336.693 288.181 319.173C292.022 315.265 291.046 311.032 285.641 309.664C282.395 309.034 279.048 309.153 275.855 310.011C272.662 310.868 269.706 312.444 267.213 314.616C248.98 333.178 226.255 351.219 225.083 379.746C223.26 422.667 263.697 450.282 303.939 442.858C320.123 439.947 334.991 432.043 346.459 420.256C354.056 412.57 361.631 404.841 369.185 397.069C385.855 380.07 408.255 362.485 413.92 338.451C416.152 328.299 415.737 317.746 412.715 307.8C409.693 297.855 404.166 288.853 396.664 281.659C387.227 273.359 375.762 267.705 363.434 265.268C351.106 262.832 338.353 263.701 326.469 267.787C322.431 269.09 313.836 272.345 315.204 278.011C316.571 283.678 326.534 282.375 330.05 281.268V280.486Z" fill="#BDC3CD"/>
<path d="M180.153 74.7392C178.497 69.9311 176.54 65.2314 174.292 60.6699L167.781 61.9738C145.933 66.95 125.347 76.3819 107.313 89.683C89.2787 102.984 74.1837 119.867 62.9733 139.272C51.7629 158.677 44.6784 180.189 42.1634 202.46C39.6484 224.73 41.7572 247.279 48.3575 268.697C49.0086 270.911 49.7898 273.126 50.5712 275.21C62.0327 266.373 71.2903 254.998 77.6173 241.98C83.9442 228.962 87.1685 214.654 87.0366 200.179C86.1249 179.012 75.9017 152.441 91.5296 134.009C99.5389 124.63 111.065 125.41 122.525 124.172C134.352 122.5 145.817 118.869 156.45 113.426C165.502 109.128 179.892 104.244 182.953 93.4324C183.797 87.0622 182.827 80.5821 180.153 74.7392Z" fill="#9ACC77"/>
<path d="M178.461 173.866H158.926C160.065 171.627 161.326 169.453 162.703 167.353C164.461 164.878 166.349 162.729 167.652 162.859C168.954 162.989 170.842 164.879 172.796 167.028C174.749 169.178 178.461 173.866 178.461 173.866Z" fill="#DDEDD0"/>
<path d="M170.777 196.208H144.73C146.282 193.324 147.977 190.519 149.81 187.805C152.089 184.549 154.628 181.617 156.321 181.877C159.053 183.109 161.428 185.015 163.224 187.414C167.066 191.452 170.777 196.208 170.777 196.208Z" fill="#DDEDD0"/>
<path d="M158.992 216.07H137.764C139.055 213.697 140.468 211.396 141.996 209.169C143.82 206.498 145.903 204.087 147.336 204.217C149.585 205.255 151.534 206.845 153.001 208.841C156.062 212.163 158.992 216.07 158.992 216.07Z" fill="#DDEDD0"/>
</g>
<defs>
<clipPath id="clip0_722_3126">
<rect width="500" height="500" fill="white" transform="translate(0 500) rotate(-90)"/>
</clipPath>
<clipPath id="clip1_722_3126">
<rect width="420" height="385.574" fill="white" transform="translate(41 58)"/>
</clipPath>
</defs>
</svg>
