<svg width="880" height="996" viewBox="0 0 880 996" fill="none" xmlns="http://www.w3.org/2000/svg">
<g clip-path="url(#clip0_689_1625)">
<path d="M689.159 945.243C689.159 945.243 704.337 909.184 747.279 915.951C747.279 915.951 777.828 925.619 789.815 899.169C789.815 899.169 820.615 936.33 784.285 970.224C784.285 970.224 731.328 1014.69 685.157 964.191C685.118 964.191 682.276 956.051 689.159 945.243Z" fill="#F2D9AB"/>
<path d="M736.358 943.813C743.492 933.971 738.001 921.81 733.902 915.197C738.376 914.995 742.859 915.247 747.282 915.951C747.282 915.951 777.83 925.619 789.818 899.169C789.818 899.169 820.618 936.33 784.288 970.224C772.785 979.202 759.232 985.182 744.845 987.625C724.273 976.546 726.536 957.347 736.358 943.813Z" fill="#E9AF4E"/>
<path d="M674.854 687.706C674.854 687.706 710.797 837.859 703.586 939.462C701.652 967.111 698.249 1005.39 682.434 1020.34C662.468 1038.9 637.25 1050.83 610.238 1054.48C554.167 1062.47 382.089 1079.62 268.942 1047.58C223.564 1034.76 210.667 1004.68 210.667 1004.68C174.376 894.296 267.183 694.569 267.183 694.569C267.183 694.569 390.151 595.75 674.854 687.706Z" fill="#F6E5C6"/>
<path d="M698.23 796.23C718.358 787.046 755.693 777.63 814.644 789.773C814.644 789.773 805.924 812.974 833.051 815.372C837.283 815.853 841.568 815.469 845.646 814.243C849.725 813.016 853.511 810.973 856.774 808.237C865.92 800.155 873.074 783.972 850.143 754.1C812.382 704.719 762.17 664.639 661.398 664.078C585.818 663.652 574.392 743.93 618.049 784.707C639.549 804.738 671.432 808.431 698.23 796.23Z" fill="#F6E5C6"/>
<path d="M269.483 669.627C248.389 649.055 274.259 679.004 247.191 690.644C228.223 698.822 125.962 682.601 68.9827 679.836C61.3842 689.039 42.4749 693.776 34.625 702.767C70.4908 747.43 177.122 827.939 269.851 830.375C345.391 832.425 312.194 711.312 269.483 669.627Z" fill="#F6E5C6"/>
<path d="M40.9269 718.409C59.112 718.409 73.8539 705.978 73.8539 690.644C73.8539 675.31 59.112 662.88 40.9269 662.88C22.7419 662.88 8 675.31 8 690.644C8 705.978 22.7419 718.409 40.9269 718.409Z" fill="#F6E5C6"/>
<path d="M275.842 156.407C243.476 191.829 193.225 192.119 163.701 167.564C163.701 167.564 131.18 131.156 152.216 87.7887C157.781 76.3836 165.994 66.4752 176.168 58.8906C186.343 51.3059 198.184 46.2652 210.703 44.1891C231.043 40.8828 257.261 44.189 280.811 70.7355C280.888 70.7355 308.189 120.909 275.842 156.407Z" fill="#EAB04E"/>
<path d="M220.777 69.5566C229.749 69.5566 238.519 72.2174 245.979 77.2024C253.439 82.1873 259.253 89.2726 262.685 97.5621C266.118 105.851 267.015 114.973 265.263 123.772C263.512 132.571 259.19 140.654 252.844 146.996C246.498 153.339 238.414 157.658 229.614 159.406C220.814 161.154 211.693 160.253 203.405 156.817C195.117 153.381 188.035 147.564 183.053 140.102C178.071 132.64 175.414 123.868 175.418 114.896C175.418 108.941 176.591 103.043 178.871 97.5412C181.151 92.039 184.492 87.04 188.704 82.8295C192.917 78.6191 197.917 75.2798 203.42 73.0024C208.923 70.725 214.821 69.5541 220.777 69.5566Z" fill="#F6E5C6"/>
<path d="M711.668 700.408C711.668 700.408 636.166 857.715 387.039 882.348C387.039 882.348 242.029 840.101 154.191 680.068C154.191 680.068 417.723 580.147 711.668 700.408Z" fill="#22A364"/>
<path d="M158.153 178.778C131.413 202.734 98.0025 237.826 82.3994 283.514C66.7963 329.202 35.6094 343.123 35.6094 343.123C56.8775 358.165 83.5208 346.41 83.5208 346.41C50.6518 423.98 39.4378 523.535 68.8458 575.506C98.2538 627.478 90.8871 640.625 90.8871 640.625C109.796 629.604 113.915 603.889 113.915 603.889C175.786 783.276 404.515 823.551 404.515 823.551C728.023 776.683 746.545 637.454 746.545 637.454C762.69 668.68 784.635 669.956 784.635 669.956C779.994 652.11 793.954 620.13 805.516 597.954C832.585 546.137 844.727 487.746 838.578 429.607C834.734 392.918 825.772 356.948 811.955 322.744C832.17 326.006 852.899 322.812 871.196 313.618C871.196 313.618 831.328 291.074 809.673 245.309C788.018 199.543 739.044 150.704 739.044 150.704C739.044 150.704 682.741 100.086 610.951 64.7421C430.25 -11.7458 275.282 81.9693 275.282 81.9693C275.282 81.9693 218.67 117.139 158.153 178.778Z" fill="#EAB04E"/>
<path d="M670.02 179.435C670.02 179.435 610.991 190.282 586.475 136.667C569.248 98.9836 589.104 64.7419 589.104 64.7419C589.104 64.7419 635.74 7.70457 698.713 49.0228C698.713 49.0228 748.635 82.3363 717.197 150.704C717.197 150.704 709.095 169.71 670.02 179.435Z" fill="#EAB04E"/>
<path d="M655.015 59.0381C663.983 59.0381 672.749 61.6972 680.205 66.6792C687.661 71.6612 693.472 78.7423 696.904 87.0271C700.336 95.3119 701.234 104.428 699.484 113.223C697.735 122.018 693.416 130.097 687.076 136.438C680.735 142.779 672.656 147.097 663.861 148.846C655.066 150.596 645.95 149.698 637.665 146.266C629.38 142.835 622.299 137.023 617.317 129.567C612.335 122.111 609.676 113.345 609.676 104.378C609.676 98.4238 610.849 92.528 613.127 87.0271C615.406 81.5262 618.745 76.528 622.955 72.3178C627.166 68.1076 632.164 64.7679 637.665 62.4894C643.166 60.2109 649.061 59.0381 655.015 59.0381Z" fill="#F6E5C6"/>
<path d="M421.394 149.757C421.394 149.757 487.132 149.312 532.8 185.12C532.8 185.12 657.509 253.642 646.681 428.737C646.681 428.737 639.469 613.228 361.592 592.637C361.592 592.637 51.6569 574.076 155.581 328.622C155.581 328.661 194.482 153.005 421.394 149.757Z" fill="#F6E5C6"/>
<path d="M423.792 863.96C423.792 863.96 511.784 851.973 516.792 948.201C516.792 948.201 445.737 962.528 418.727 886.331L423.792 863.96Z" fill="#51B464"/>
<path d="M366.328 891.667C366.328 891.667 358.594 954.795 270.293 940.835C270.293 940.835 279.148 848.338 363.621 866.01L366.328 891.667Z" fill="#51B464"/>
<path d="M282.456 194.381C276.095 184.713 276.791 176.67 278.358 172.01C278.907 170.536 279.837 169.234 281.053 168.236C282.268 167.237 283.726 166.578 285.279 166.326L201.715 164.393C221.726 195.328 260.802 213.657 276.559 210.506C290.171 207.702 284.255 197.049 282.456 194.381Z" fill="#EAB04E"/>
<path d="M285.354 280.808C294.679 279.838 301.682 273.696 300.994 267.09C300.307 260.484 292.19 255.915 282.865 256.885C273.54 257.855 266.538 263.997 267.225 270.603C267.912 277.209 276.029 281.778 285.354 280.808Z" fill="#4A1D0E"/>
<path d="M421.438 272.037C421.68 265.4 414.281 259.742 404.912 259.4C395.543 259.058 387.751 264.162 387.509 270.799C387.267 277.437 394.666 283.095 404.035 283.436C413.404 283.778 421.196 278.675 421.438 272.037Z" fill="#4A1D0E"/>
<path d="M203.745 362.593C202.516 362.596 201.307 362.291 200.226 361.707C199.146 361.122 198.228 360.277 197.558 359.248L182.96 336.8C182.418 335.989 182.043 335.079 181.856 334.122C181.668 333.164 181.673 332.179 181.87 331.224C182.066 330.268 182.451 329.362 183.001 328.556C183.551 327.75 184.255 327.062 185.073 326.53C185.891 325.999 186.806 325.636 187.766 325.461C188.726 325.286 189.711 325.304 190.664 325.513C191.616 325.722 192.518 326.118 193.316 326.678C194.115 327.238 194.794 327.952 195.315 328.777L209.913 351.205C210.442 352.015 210.806 352.922 210.983 353.874C211.161 354.826 211.149 355.803 210.948 356.75C210.746 357.696 210.36 358.594 209.811 359.391C209.262 360.188 208.56 360.869 207.747 361.394C206.559 362.177 205.167 362.594 203.745 362.593Z" fill="#E9C4AA"/>
<path d="M180.33 369.264C179.102 369.266 177.892 368.961 176.812 368.377C175.731 367.793 174.814 366.948 174.143 365.919L159.545 343.49C159.017 342.679 158.654 341.772 158.476 340.82C158.299 339.869 158.311 338.892 158.511 337.944C158.711 336.997 159.096 336.099 159.643 335.301C160.191 334.502 160.89 333.819 161.701 333.291C162.512 332.763 163.42 332.4 164.371 332.223C165.323 332.045 166.3 332.057 167.247 332.257C168.194 332.457 169.092 332.842 169.891 333.389C170.689 333.937 171.372 334.636 171.9 335.447L186.498 357.875C187.565 359.514 187.937 361.51 187.535 363.424C187.133 365.337 185.988 367.013 184.352 368.084C183.15 368.85 181.755 369.259 180.33 369.264Z" fill="#E9C4AA"/>
<path d="M503.568 377.171C502.338 377.173 501.127 376.866 500.046 376.278C498.965 375.69 498.049 374.84 497.381 373.806L482.784 351.378C481.717 349.74 481.345 347.745 481.749 345.832C482.153 343.92 483.301 342.246 484.939 341.179C486.578 340.112 488.573 339.74 490.485 340.145C492.398 340.549 494.072 341.697 495.139 343.335L509.736 365.763C510.266 366.575 510.63 367.484 510.808 368.437C510.986 369.39 510.974 370.369 510.773 371.317C510.572 372.265 510.185 373.165 509.636 373.964C509.086 374.762 508.384 375.445 507.571 375.972C506.383 376.754 504.991 377.171 503.568 377.171Z" fill="#E9C4AA"/>
<path d="M480.154 383.861C478.926 383.862 477.717 383.557 476.637 382.972C475.557 382.388 474.639 381.544 473.967 380.516L459.37 358.088C458.842 357.277 458.478 356.37 458.301 355.418C458.123 354.466 458.135 353.489 458.335 352.542C458.535 351.595 458.92 350.697 459.468 349.898C460.015 349.1 460.714 348.417 461.525 347.889C462.337 347.361 463.244 346.998 464.196 346.82C465.147 346.643 466.124 346.654 467.071 346.855C468.018 347.055 468.917 347.44 469.715 347.987C470.514 348.534 471.196 349.234 471.725 350.045L486.322 372.473C487.046 373.584 487.457 374.871 487.511 376.196C487.564 377.521 487.259 378.837 486.628 380.003C485.996 381.169 485.061 382.143 483.922 382.823C482.782 383.502 481.481 383.86 480.154 383.861Z" fill="#E9C4AA"/>
<path d="M335.49 570.325C331.937 570.318 328.387 570.118 324.856 569.725C313.487 568.488 304.593 564.756 298.406 558.627C295.321 555.747 293.058 552.096 291.852 548.051L306.159 544.532V544.32C306.275 544.668 309.195 553.175 326.518 555.07C347.052 557.332 361.089 551.435 364.492 546.543C365.607 544.938 367.314 543.842 369.238 543.496C371.161 543.149 373.144 543.581 374.749 544.697C376.354 545.812 377.45 547.519 377.796 549.443C378.143 551.366 377.711 553.349 376.595 554.954C370.892 563.094 356.371 570.325 335.49 570.325Z" fill="#E9C4AA"/>
<path d="M267.18 410.214C267.18 410.214 276.248 526.222 329.65 525.603C383.052 524.985 386.436 469.127 383.555 429.471L334.116 377.654L267.18 410.214Z" fill="#E17E7C"/>
<path d="M384.041 440.183C384.041 440.183 362 486.392 362 440.183H384.041Z" fill="white"/>
<path d="M272.188 427.964C272.188 427.964 294.248 477.789 294.248 415.647L272.188 427.964Z" fill="white"/>
<path d="M259.156 302.539C259.156 302.539 276.692 299.523 289.221 319.766C289.59 320.335 289.787 320.999 289.788 321.677C289.789 322.355 289.594 323.019 289.226 323.589C288.859 324.159 288.334 324.61 287.715 324.889C287.097 325.168 286.412 325.262 285.741 325.16C275.165 323.343 254.806 320.984 240.092 325.895C239.468 326.12 238.794 326.164 238.146 326.023C237.498 325.881 236.904 325.559 236.431 325.095C235.958 324.63 235.626 324.041 235.474 323.396C235.321 322.751 235.353 322.076 235.568 321.448C237.144 316.291 240.238 311.729 244.446 308.356C248.653 304.983 253.779 302.956 259.156 302.539Z" fill="#4A1D0E"/>
<path d="M418.648 302.539C418.648 302.539 401.111 299.523 388.583 319.766C388.213 320.335 388.017 320.999 388.016 321.677C388.015 322.355 388.21 323.019 388.578 323.589C388.945 324.159 389.47 324.61 390.088 324.889C390.706 325.168 391.392 325.262 392.063 325.16C402.639 323.343 422.998 320.984 437.712 325.895C438.335 326.12 439.01 326.164 439.658 326.023C440.305 325.881 440.9 325.559 441.373 325.095C441.845 324.63 442.177 324.041 442.33 323.396C442.483 322.751 442.45 322.076 442.236 321.448C440.659 316.291 437.565 311.729 433.358 308.356C429.15 304.983 424.024 302.956 418.648 302.539Z" fill="#4A1D0E"/>
<path d="M375.261 356.985C399.197 355.207 439.548 355.535 459.676 374.947C459.676 374.947 487.247 403.06 459.676 429.084C432.105 455.109 360.257 448.69 341.406 439.68C318.069 428.543 318.397 414.738 318.204 408.377C318.204 408.377 315.71 428.098 261.553 429.123C252.527 429.324 243.519 428.21 234.813 425.817C218.166 421.177 194.926 410.523 198.716 387.708C204.516 352.712 250.919 349.155 296.936 359.673C327.62 366.711 343.726 364.159 351.073 361.606C358.909 359.056 367.036 357.503 375.261 356.985Z" fill="#E9C4AA"/>
<path d="M339.144 347.647C339.144 347.647 374.178 347.937 377.813 382.779C381.487 418.47 318.301 408.339 318.301 408.339C318.301 408.339 276.886 402.964 288.796 370.868C288.738 370.868 298.773 344.361 339.144 347.647Z" fill="#4A1D0E"/>
<path d="M397.36 953.441C430.847 953.441 457.994 926.294 457.994 892.807C457.994 859.32 430.847 832.174 397.36 832.174C363.873 832.174 336.727 859.32 336.727 892.807C336.727 926.294 363.873 953.441 397.36 953.441Z" fill="white"/>
<path d="M397.345 878.457L383.047 892.76L397.35 907.058L411.648 892.755L397.345 878.457Z" fill="#AF833C"/>
<path d="M397.363 878.5L411.671 892.808H410.24L397.363 879.931V878.5Z" fill="#C19646"/>
<path d="M397.363 879.931L384.505 892.808H383.074L397.363 878.52V879.931Z" fill="#D7BA8F"/>
<path d="M397.363 907.096L383.074 892.808H384.505L397.363 905.685V907.096Z" fill="#C19646"/>
<path d="M397.363 905.665L410.24 892.808H411.671L397.363 907.096V905.665Z" fill="#8C5F3E"/>
<mask id="mask0_689_1625" style="mask-type:luminance" maskUnits="userSpaceOnUse" x="352" y="849" width="76" height="80">
<path d="M352.719 892.827C352.719 912.664 368.979 928.132 389.049 928.132C394.149 928.239 399.214 927.26 403.908 925.26C408.601 923.259 412.816 920.284 416.272 916.531L416.059 916.318C409.941 921.436 402.186 924.181 394.211 924.052C389.944 924.126 385.705 923.355 381.738 921.781C377.77 920.208 374.154 917.864 371.098 914.885C368.042 911.906 365.607 908.351 363.932 904.426C362.257 900.5 361.377 896.282 361.342 892.015C361.461 884.425 363.731 877.025 367.89 870.674C372.049 864.324 377.924 859.284 384.834 856.141C391.744 852.998 399.403 851.881 406.923 852.919C414.442 853.958 421.513 857.109 427.312 862.007L427.66 861.659C419.389 853.705 408.354 849.269 396.879 849.285C391.128 849.249 385.426 850.347 380.1 852.515C374.773 854.683 369.925 857.879 365.833 861.92C361.742 865.962 358.486 870.769 356.252 876.069C354.019 881.369 352.851 887.056 352.816 892.807" fill="white"/>
</mask>
<g mask="url(#mask0_689_1625)">
<path d="M389.265 811.798L313.293 889.54L390.98 965.458L466.952 887.715L389.265 811.798Z" fill="url(#paint0_linear_689_1625)"/>
</g>
<mask id="mask1_689_1625" style="mask-type:luminance" maskUnits="userSpaceOnUse" x="367" y="857" width="75" height="80">
<path d="M378.451 869.045L378.663 869.257C384.788 864.139 392.55 861.394 400.531 861.524C404.798 861.449 409.037 862.221 413.004 863.795C416.972 865.368 420.588 867.712 423.644 870.691C426.7 873.67 429.135 877.224 430.81 881.15C432.485 885.075 433.365 889.294 433.4 893.561C433.367 898.779 432.307 903.939 430.279 908.747C428.252 913.555 425.298 917.917 421.585 921.583C417.872 925.249 413.473 928.148 408.64 930.115C403.807 932.081 398.634 933.076 393.416 933.043C383.905 933.061 374.697 929.704 367.43 923.569L367.082 923.917C373.286 929.895 381.102 933.93 389.569 935.525C398.037 937.12 406.785 936.206 414.739 932.894C422.693 929.583 429.506 924.019 434.34 916.886C439.174 909.754 441.817 901.364 441.946 892.749C441.946 872.912 425.666 857.463 405.616 857.463C400.512 857.354 395.443 858.331 390.746 860.332C386.049 862.332 381.831 865.309 378.373 869.064" fill="white"/>
</mask>
<g mask="url(#mask1_689_1625)">
<path d="M402.947 820.08L327.793 898.614L406.243 973.688L481.396 895.154L402.947 820.08Z" fill="url(#paint1_linear_689_1625)"/>
</g>
<mask id="mask2_689_1625" style="mask-type:luminance" maskUnits="userSpaceOnUse" x="361" y="852" width="67" height="73">
<path d="M361.245 892.035C361.28 896.302 362.16 900.52 363.835 904.446C365.51 908.371 367.945 911.926 371.002 914.905C374.058 917.884 377.674 920.227 381.641 921.801C385.608 923.374 389.847 924.146 394.114 924.072C402.089 924.201 409.844 921.456 415.962 916.338L415.576 915.971C410.287 920.27 403.676 922.613 396.86 922.603C388.918 922.624 381.287 919.518 375.617 913.957C369.947 908.396 366.694 900.826 366.562 892.885C366.562 868.949 383.963 855.144 404.825 855.144C412.746 855.127 420.468 857.618 426.886 862.259L427.118 862.008C421.319 857.11 414.249 853.958 406.729 852.92C399.21 851.882 391.55 852.999 384.64 856.142C377.731 859.285 371.855 864.324 367.697 870.675C363.538 877.025 361.267 884.425 361.148 892.015" fill="white"/>
</mask>
<g mask="url(#mask2_689_1625)">
<path d="M364.103 839.411L347.012 921.149L424.549 937.362L441.64 855.623L364.103 839.411Z" fill="url(#paint2_linear_689_1625)"/>
</g>
<mask id="mask3_689_1625" style="mask-type:luminance" maskUnits="userSpaceOnUse" x="361" y="852" width="67" height="73">
<path d="M361.09 892.092C361.09 910.112 375.92 924.168 394.21 924.168C402.214 924.292 409.998 921.549 416.155 916.434V916.318C410.066 921.205 402.461 923.81 394.655 923.685C376.461 923.685 361.786 909.802 361.786 891.956C361.842 886.766 362.919 881.638 364.957 876.865C366.994 872.091 369.952 867.766 373.661 864.135C377.37 860.505 381.759 857.641 386.575 855.707C391.391 853.772 396.541 852.806 401.731 852.862C411.078 852.834 420.143 856.06 427.369 861.988C420.069 855.894 410.854 852.567 401.345 852.591C390.774 852.509 380.604 856.628 373.069 864.042C365.535 871.457 361.254 881.56 361.167 892.13" fill="white"/>
</mask>
<g mask="url(#mask3_689_1625)">
<path d="M363.517 840.689L348.23 921.899L425.204 936.388L440.49 855.178L363.517 840.689Z" fill="url(#paint3_linear_689_1625)"/>
</g>
<mask id="mask4_689_1625" style="mask-type:luminance" maskUnits="userSpaceOnUse" x="367" y="861" width="67" height="73">
<path d="M378.664 869.258L379.05 869.625C384.341 865.329 390.951 862.987 397.766 862.994C405.71 862.972 413.343 866.077 419.016 871.638C424.689 877.199 427.946 884.768 428.083 892.711C428.083 916.647 410.682 930.452 389.8 930.452C381.87 930.459 374.14 927.955 367.72 923.299L367.469 923.55C374.736 929.685 383.944 933.043 393.455 933.024C398.672 933.057 403.846 932.062 408.679 930.096C413.512 928.13 417.911 925.231 421.624 921.565C425.337 917.898 428.291 913.537 430.318 908.729C432.345 903.921 433.406 898.76 433.439 893.542C433.404 889.275 432.523 885.057 430.849 881.131C429.174 877.206 426.738 873.651 423.682 870.672C420.626 867.693 417.01 865.35 413.043 863.776C409.076 862.203 404.837 861.431 400.57 861.505C392.589 861.375 384.827 864.12 378.702 869.239" fill="white"/>
</mask>
<g mask="url(#mask4_689_1625)">
<path d="M370.396 847.821L352.629 929.791L430.442 946.657L448.21 864.687L370.396 847.821Z" fill="url(#paint4_linear_689_1625)"/>
</g>
<path d="M378.567 869.161L378.663 869.277C384.748 864.382 392.356 861.775 400.164 861.911C418.357 861.911 433.033 875.793 433.033 893.62C432.979 898.81 431.905 903.938 429.869 908.713C427.834 913.487 424.878 917.814 421.171 921.446C417.463 925.079 413.076 927.945 408.261 929.882C403.446 931.818 398.296 932.787 393.106 932.734C383.753 932.766 374.681 929.54 367.449 923.608C374.748 929.705 383.963 933.032 393.474 933.005C404.044 933.087 414.215 928.968 421.749 921.553C429.283 914.139 433.564 904.036 433.651 893.465C433.651 875.426 418.821 861.389 400.531 861.389C392.527 861.264 384.743 864.008 378.586 869.123" fill="url(#paint5_linear_689_1625)"/>
<mask id="mask5_689_1625" style="mask-type:luminance" maskUnits="userSpaceOnUse" x="367" y="861" width="67" height="73">
<path d="M378.567 869.161L378.663 869.277C384.748 864.382 392.356 861.775 400.164 861.911C418.357 861.911 433.033 875.793 433.033 893.62C432.979 898.81 431.905 903.938 429.869 908.713C427.834 913.487 424.878 917.814 421.171 921.446C417.463 925.079 413.076 927.945 408.261 929.882C403.446 931.818 398.296 932.787 393.106 932.734C383.753 932.766 374.681 929.54 367.449 923.608C374.748 929.705 383.963 933.032 393.474 933.005C404.044 933.087 414.215 928.968 421.749 921.553C429.283 914.139 433.564 904.036 433.651 893.465C433.651 875.426 418.821 861.389 400.531 861.389C392.527 861.264 384.743 864.008 378.586 869.123" fill="white"/>
</mask>
<g mask="url(#mask5_689_1625)">
<path d="M369.877 848.376L353.316 930.066L430.857 945.786L447.417 864.096L369.877 848.376Z" fill="url(#paint6_linear_689_1625)"/>
</g>
</g>
<defs>
<linearGradient id="paint0_linear_689_1625" x1="369.791" y1="903.188" x2="430.906" y2="840.65" gradientUnits="userSpaceOnUse">
<stop stop-color="#AF833C"/>
<stop offset="0.13" stop-color="#B0853F"/>
<stop offset="0.24" stop-color="#B58B49"/>
<stop offset="0.33" stop-color="#BD9659"/>
<stop offset="0.42" stop-color="#C8A570"/>
<stop offset="0.5" stop-color="#D5B88D"/>
<stop offset="0.58" stop-color="#C8A570"/>
<stop offset="0.67" stop-color="#BD9659"/>
<stop offset="0.76" stop-color="#B58B49"/>
<stop offset="0.87" stop-color="#B0853F"/>
<stop offset="1" stop-color="#AF833C"/>
</linearGradient>
<linearGradient id="paint1_linear_689_1625" x1="435.678" y1="862.305" x2="376" y2="924.667" gradientUnits="userSpaceOnUse">
<stop stop-color="#00553D"/>
<stop offset="0.2" stop-color="#02573F"/>
<stop offset="0.3" stop-color="#0A5E46"/>
<stop offset="0.38" stop-color="#176951"/>
<stop offset="0.45" stop-color="#2A7961"/>
<stop offset="0.5" stop-color="#3F8C73"/>
<stop offset="0.55" stop-color="#2A7961"/>
<stop offset="0.62" stop-color="#176951"/>
<stop offset="0.7" stop-color="#0A5E46"/>
<stop offset="0.8" stop-color="#02573F"/>
<stop offset="1" stop-color="#00553D"/>
</linearGradient>
<linearGradient id="paint2_linear_689_1625" x1="400.849" y1="848.958" x2="389.397" y2="903.725" gradientUnits="userSpaceOnUse">
<stop stop-color="#8C5E33"/>
<stop offset="0.3" stop-color="#AA803C"/>
<stop offset="1" stop-color="#8C5E33"/>
</linearGradient>
<linearGradient id="paint3_linear_689_1625" x1="399.823" y1="846.994" x2="389.515" y2="901.759" gradientUnits="userSpaceOnUse">
<stop stop-color="#C39A4E"/>
<stop offset="0.34" stop-color="#DBC290"/>
<stop offset="1" stop-color="#C39A4E"/>
</linearGradient>
<linearGradient id="paint4_linear_689_1625" x1="405.32" y1="881.655" x2="393.487" y2="936.249" gradientUnits="userSpaceOnUse">
<stop stop-color="#004731"/>
<stop offset="0.01" stop-color="#004731"/>
<stop offset="0.7" stop-color="#00553D"/>
<stop offset="1" stop-color="#004731"/>
</linearGradient>
<linearGradient id="paint5_linear_689_1625" x1="367.43" y1="897.255" x2="433.632" y2="897.255" gradientUnits="userSpaceOnUse">
<stop stop-color="#007156"/>
<stop offset="0.3" stop-color="#E8F3F2"/>
<stop offset="0.55" stop-color="#94C4B9"/>
<stop offset="1" stop-color="#007156"/>
</linearGradient>
<linearGradient id="paint6_linear_689_1625" x1="394.844" y1="943.728" x2="405.907" y2="889.157" gradientUnits="userSpaceOnUse">
<stop stop-color="#007156"/>
<stop offset="0.4" stop-color="#83A28F"/>
<stop offset="1" stop-color="#007156"/>
</linearGradient>
<clipPath id="clip0_689_1625">
<rect width="863.216" height="1032.26" fill="white" transform="translate(8 34)"/>
</clipPath>
</defs>
</svg>
