<svg width="661" height="440" viewBox="0 0 661 440" fill="none" xmlns="http://www.w3.org/2000/svg">
<path d="M305.462 0C107.221 0 -17.2313 102.832 1.9407 236.302C18.3652 350.718 88.8338 367.685 219.868 381.719C220.773 398.988 226.57 421.793 247.976 438.73C248.957 439.445 250.13 439.847 251.343 439.885C252.555 439.923 253.751 439.594 254.774 438.941C255.797 438.288 256.6 437.342 257.079 436.225C257.557 435.108 257.689 433.873 257.457 432.681C255.494 420.583 256.702 402.889 272.553 385.741C289.642 386.467 307.515 386.981 326.174 386.83C572.3 384.894 660.069 309.766 660.069 174.421C660.069 39.0759 503.794 0 305.462 0Z" fill="#F3F5DE"/>
<path d="M161.759 189.032H153.919V198.44H158.791C160.863 198.44 162.039 199.56 162.039 201.688V222.072C162.039 223.976 160.863 224.984 158.791 224.984C156.775 224.984 155.599 223.976 155.599 222.072V220.448H146.415V222.128C146.415 223.976 145.295 224.984 143.223 224.984C141.207 224.984 140.087 223.976 140.087 222.128V218.656C139.863 218.936 139.527 219.16 139.135 219.328C137.679 219.944 136.447 219.496 136.055 217.872C135.495 215.912 134.655 213.728 133.815 211.768C133.423 210.816 133.647 210.256 134.431 209.808C135.159 209.416 135.831 209.528 136.447 210.256C137.735 211.712 139.247 213.896 140.087 215.8V201.688C140.087 199.56 141.207 198.44 143.335 198.44H147.143V176.32C147.143 174.304 148.319 173.24 150.503 173.24C152.687 173.24 153.919 174.304 153.919 176.32V184.832H161.759C163.047 184.832 163.775 185.616 163.775 186.904C163.775 188.248 163.047 189.032 161.759 189.032ZM117.687 211.432C115.671 211.6 114.327 210.816 114.215 208.856C114.047 206.84 114.999 205.944 117.127 205.888C119.423 205.776 121.775 205.664 124.127 205.496V201.912H116.959C115.671 201.912 114.999 201.184 114.999 199.952C114.999 198.72 115.671 198.048 116.959 198.048H124.127V195.248H118.527C116.399 195.248 115.279 194.072 115.279 192V177.944C115.279 175.872 116.399 174.696 118.527 174.696H136.615C138.743 174.696 139.863 175.872 139.863 177.944V192C139.863 194.072 138.743 195.248 136.615 195.248H130.847V198.048H137.175C138.407 198.048 139.135 198.72 139.135 199.952C139.135 201.24 138.407 201.912 137.175 201.912H130.847V204.936C133.087 204.712 135.271 204.432 137.343 204.152C138.463 203.984 139.135 204.376 139.359 205.384C139.527 206.448 139.023 207.176 138.015 207.512C131.911 209.416 124.295 210.76 117.687 211.432ZM121.103 191.496H125.191V178.504H121.103C120.711 178.504 120.431 178.784 120.431 179.176V190.824C120.431 191.216 120.711 191.496 121.103 191.496ZM129.839 178.504V191.496H134.039C134.431 191.496 134.711 191.216 134.711 190.824V179.176C134.711 178.784 134.431 178.504 134.039 178.504H129.839ZM133.087 180.072C134.263 180.184 134.711 180.912 134.543 182.032C134.207 184.608 133.535 187.296 132.695 189.256C132.415 190.096 131.799 190.376 130.959 190.152C130.287 189.984 129.783 189.48 130.007 188.528C130.511 186.568 130.847 183.88 131.127 181.64C131.295 180.408 131.967 179.904 133.087 180.072ZM123.175 181.08C123.959 183.152 124.743 185.784 125.079 188.136C125.247 189.368 124.799 190.04 123.623 190.208C122.503 190.376 121.775 189.928 121.663 188.64C121.383 186.288 120.991 183.712 120.655 181.696C120.487 180.8 120.823 180.296 121.551 180.128C122.279 179.96 122.839 180.24 123.175 181.08ZM154.927 202.416H147.087C146.695 202.416 146.415 202.696 146.415 203.088V216.472H155.599V203.088C155.599 202.696 155.319 202.416 154.927 202.416ZM131.127 211.936C132.471 214.12 133.535 216.528 134.263 218.88C134.767 220.56 134.375 221.736 132.695 222.184C130.903 222.632 129.895 221.848 129.671 220.112C129.279 217.592 128.719 215.128 128.159 212.944C127.879 211.936 128.271 211.32 129.111 211.04C129.951 210.76 130.623 211.096 131.127 211.936ZM125.583 213.112C126.479 215.52 127.207 218.712 127.599 221.344C127.823 223.136 127.095 224.144 125.359 224.312C123.623 224.424 122.615 223.64 122.671 221.848C122.727 219.496 122.727 216.36 122.447 213.672C122.391 212.664 122.951 211.992 123.791 211.936C124.631 211.824 125.247 212.216 125.583 213.112ZM118.807 212.272C119.703 212.384 120.207 212.832 120.207 213.896C120.263 216.808 119.983 220.224 119.255 222.856C118.751 224.984 117.183 225.656 115.335 224.872C113.431 224.088 113.095 222.632 114.159 220.84C115.391 218.824 116.343 216.136 116.959 213.504C117.239 212.552 117.911 212.16 118.807 212.272Z" fill="#594A39"/>
<path d="M179.063 194.8C178.111 194.8 177.439 194.184 177.439 193.176C177.439 192.168 178.111 191.552 179.063 191.552H188.023V190.32H182.927C181.247 190.32 180.295 189.368 180.295 187.688V182.368C180.295 180.688 181.247 179.68 182.927 179.68H188.023V178.504H179.791C178.727 178.504 178.167 177.944 178.167 176.936C178.167 175.928 178.727 175.368 179.791 175.368H188.023V174.528C188.023 173.016 189.087 172.176 190.935 172.176C192.783 172.176 193.847 173.016 193.847 174.528V175.368H202.079C203.087 175.368 203.647 175.928 203.647 176.936C203.647 177.944 203.087 178.504 202.079 178.504H193.847V179.68H198.887C200.567 179.68 201.575 180.688 201.575 182.368V187.688C201.575 189.368 200.567 190.32 198.887 190.32H193.847V191.552H202.807C203.759 191.552 204.431 192.168 204.431 193.176C204.431 194.184 203.759 194.8 202.807 194.8H193.847V198.384H196.647C196.983 198.384 197.263 198.216 197.263 197.824V197.376C197.263 195.92 198.159 195.248 199.783 195.248C201.407 195.248 202.247 195.92 202.247 197.376V198.776C202.247 200.624 201.183 201.744 199.335 201.744H182.591C180.687 201.744 179.623 200.624 179.623 198.776V197.32C179.623 195.92 180.575 195.248 182.199 195.248C183.767 195.248 184.719 195.92 184.719 197.32V197.824C184.719 198.16 184.943 198.384 185.279 198.384H188.023V194.8H179.063ZM201.911 186.848C201.575 186.064 201.743 185.28 202.471 184.72C205.103 182.872 206.167 180.856 206.335 176.824C206.391 174.808 207.399 173.856 209.303 173.856H217.871C219.775 173.856 220.839 174.864 220.839 176.824V179.456C220.839 180.744 221.231 180.968 222.855 180.968C223.359 180.968 224.087 180.912 224.535 180.8C225.879 180.408 226.719 180.744 227.167 181.976C227.671 183.32 227.279 184.384 225.991 184.888C224.871 185.336 223.303 185.504 221.455 185.504C216.807 185.504 215.687 184.72 215.687 181.584V178.28C215.687 177.888 215.407 177.608 215.015 177.608H212.271C211.879 177.608 211.655 177.832 211.599 178.224C211.207 181.976 209.415 184.776 206.167 186.568H220.503C223.303 186.568 224.423 188.752 222.911 191.384C221.847 193.176 220.503 194.8 218.823 196.144C220.279 196.592 221.791 196.928 223.415 197.208C225.319 197.544 226.103 198.72 225.655 200.568C225.263 202.304 223.807 202.808 222.071 202.416C218.935 201.688 216.303 200.568 214.063 199.056C211.431 200.232 208.407 201.072 204.879 201.632C203.815 201.8 203.143 201.296 202.919 200.288C202.695 199.336 203.143 198.552 204.207 198.272C206.671 197.656 208.799 196.928 210.591 196.144C209.023 194.408 207.791 192.504 206.839 190.376H205.943C204.767 190.376 204.039 189.648 204.039 188.472C204.039 188.08 204.095 187.744 204.263 187.464C204.207 187.464 204.151 187.52 204.095 187.52C203.143 187.856 202.303 187.688 201.911 186.848ZM184.943 183.152V183.768H188.359V182.536H185.559C185.167 182.536 184.943 182.76 184.943 183.152ZM193.511 182.536V183.768H196.927V183.152C196.927 182.76 196.703 182.536 196.367 182.536H193.511ZM185.559 187.52H188.359V186.288H184.943V186.904C184.943 187.296 185.167 187.52 185.559 187.52ZM193.511 186.288V187.52H196.367C196.703 187.52 196.927 187.296 196.927 186.904V186.288H193.511ZM216.975 191.16C217.311 190.712 217.031 190.376 216.527 190.376H210.311C211.431 191.944 212.719 193.12 214.119 194.016C215.239 193.176 216.191 192.224 216.975 191.16ZM225.655 213.616C226.887 213.616 227.559 214.288 227.559 215.52C227.559 216.752 226.887 217.424 225.655 217.424H206.279V219.216C206.279 224.424 201.519 227.056 191.607 223.472C190.599 223.08 190.207 222.352 190.375 221.456C190.599 220.448 191.327 220.056 192.559 220.224C198.663 220.952 199.167 220.728 199.167 218.432V217.424H179.007C177.775 217.424 177.103 216.752 177.103 215.52C177.103 214.344 177.775 213.616 179.007 213.616H199.167V212.048H183.095C181.975 212.048 181.303 211.376 181.303 210.2C181.303 209.024 181.975 208.352 183.095 208.352H199.167V206.84C194.631 207.008 189.983 207.008 185.615 206.896C184.551 206.84 183.935 206.224 183.935 205.216C183.935 204.152 184.439 203.592 185.559 203.536C196.031 203.368 206.167 202.808 215.239 200.792C216.919 200.4 218.207 201.24 218.543 202.64C218.879 204.096 217.927 205.44 216.135 205.664C213.111 206.056 209.751 206.336 206.279 206.56V208.352H221.567C222.743 208.352 223.415 209.024 223.415 210.2C223.415 211.376 222.743 212.048 221.567 212.048H206.279V213.616H225.655Z" fill="#594A39"/>
<path d="M285.127 176.152C287.255 178.056 287.479 181.136 284.791 183.544C281.039 186.96 276.167 190.488 271.127 193.12V217.648C271.127 225.152 264.015 227.392 251.919 222.52C250.799 222.072 250.407 221.176 250.631 220.168C250.855 219.104 251.583 218.712 252.815 218.824C262.223 219.888 263.511 219.496 263.511 216.416V191.552C263.511 189.312 264.855 188.08 267.319 188.08C268.495 188.08 269.391 188.36 270.007 188.864C272.751 186.568 274.991 184.216 277.007 181.696C277.343 181.248 277.175 180.856 276.615 180.856H247.327C245.927 180.856 245.087 179.904 245.087 178.392C245.087 176.936 245.927 176.096 247.327 176.096H278.127C280.199 174.696 283.223 174.528 285.127 176.152Z" fill="#594A39"/>
<path d="M353.335 209.08C354.623 209.08 355.351 209.808 355.351 211.096C355.351 212.328 354.623 213.056 353.335 213.056H346.279V222.296C346.279 224.2 345.159 225.208 343.031 225.208C340.959 225.208 339.839 224.2 339.839 222.296V213.056H331.999C330.711 213.056 330.039 212.328 330.039 211.096C330.039 209.808 330.711 209.08 331.999 209.08H339.839V203.144H335.303C334.463 204.712 333.511 206.224 332.447 207.456C331.831 208.296 331.047 208.464 330.263 207.96C329.871 207.736 329.591 207.4 329.479 207.064V218.544C329.479 224.2 324.551 226.72 316.599 222.744C315.647 222.296 315.255 221.568 315.535 220.672C315.759 219.72 316.431 219.328 317.551 219.44C322.759 219.944 323.543 219.496 323.543 216.024V209.36H313.855C313.407 214.568 311.727 219.944 307.807 224.256C307.023 225.208 306.183 225.32 305.343 224.704C304.503 224.032 304.447 223.192 304.951 222.184C307.359 217.76 308.087 213.056 308.087 203.424V191.664L307.583 192.056C306.743 192.784 305.735 192.84 305.119 192.112C304.447 191.384 304.447 190.544 305.063 189.648C307.919 186.12 310.215 181.024 311.447 175.144C312.007 172.848 313.519 172.064 315.759 172.568C317.775 173.016 318.559 174.752 317.663 177.216H320.575C321.583 176.096 323.431 175.816 324.887 176.432C326.959 177.328 327.183 179.456 326.119 181.36C325.167 183.152 324.047 184.664 322.927 185.952H326.231C328.303 185.952 329.479 187.128 329.479 189.2V206.056C329.535 205.944 329.535 205.832 329.591 205.72C330.935 202.92 332.055 199.336 332.559 195.696C332.839 193.848 333.959 192.896 335.751 193.288C337.543 193.736 338.271 195.08 337.711 196.928L337.039 199.168H339.839V195.136C339.839 193.232 340.959 192.168 343.031 192.168C345.159 192.168 346.279 193.232 346.279 195.136V199.168H352.103C353.391 199.168 354.119 199.896 354.119 201.184C354.119 202.472 353.391 203.144 352.103 203.144H346.279V209.08H353.335ZM330.599 190.6C334.519 187.352 335.751 183.992 336.199 179.848H331.999C330.711 179.848 329.983 179.064 329.983 177.776C329.983 176.6 330.711 175.872 331.999 175.872H350.143C352.327 175.872 353.447 177.104 353.335 179.344C353.167 182.984 352.943 185.784 352.551 187.576C351.711 192.112 347.735 193.624 341.687 190.544C340.791 190.096 340.455 189.2 340.735 188.416C341.015 187.632 341.743 187.184 342.807 187.352C345.887 187.968 346.335 187.52 346.559 185.784C346.783 184.608 347.007 182.144 347.007 180.52C347.007 180.072 346.839 179.848 346.391 179.848H342.359C341.463 186.4 338.047 190.656 332.335 193.624C331.327 194.184 330.487 194.016 329.927 193.12C329.479 192.28 329.591 191.496 330.599 190.6ZM320.015 181.92C320.127 181.472 319.903 181.192 319.455 181.192H315.927C315.143 182.928 314.191 184.496 313.183 185.952H318.391C319.063 184.72 319.623 183.32 320.015 181.92ZM316.319 195.584V189.928H314.359C313.967 189.928 313.687 190.208 313.687 190.6V195.584H316.319ZM323.935 190.6C323.935 190.208 323.655 189.928 323.263 189.928H321.191V195.584H323.935V190.6ZM316.319 205.44V199.504H313.687V205.44H316.319ZM321.191 199.504V205.44H323.935V199.504H321.191Z" fill="#594A39"/>
<path d="M414.487 216.472C417.399 216.472 418.687 217.984 418.519 220.448C418.407 222.968 417.007 224.032 414.095 223.976C405.919 223.864 397.407 222.296 389.903 219.048C385.815 222.464 380.047 224.592 371.983 225.264C370.751 225.32 370.079 224.816 369.911 223.752C369.743 222.688 370.247 221.904 371.479 221.68C377.415 220.448 381.559 218.656 384.415 216.248C381.167 214.288 378.143 211.936 375.567 209.192C374.783 208.352 374.839 207.232 375.567 206.392C376.239 205.664 377.079 205.496 378.255 206.28C381.503 208.52 384.695 210.368 387.943 211.824C389.007 209.864 389.623 207.624 390.015 205.048H378.871C376.407 205.048 375.567 203.872 375.567 201.8V186.68C375.567 184.608 376.743 183.432 378.871 183.432H390.575V179.456H373.159C371.703 179.456 370.863 178.616 370.863 177.16C370.863 175.76 371.703 174.92 373.159 174.92H414.767C416.223 174.92 417.063 175.704 417.063 177.16C417.063 178.616 416.223 179.456 414.767 179.456H397.855V183.432H409.671C411.799 183.432 412.919 184.608 412.919 186.68V201.8C412.919 203.872 411.743 205.048 409.671 205.048H397.183C396.623 208.464 395.615 211.488 394.047 214.064C400.151 215.856 406.703 216.584 414.487 216.472ZM382.511 188.304V192.168H390.575V187.632H383.183C382.791 187.632 382.511 187.912 382.511 188.304ZM405.303 187.632H397.855V192.168H405.975V188.304C405.975 187.912 405.695 187.632 405.303 187.632ZM383.183 200.904H390.463C390.519 199.448 390.575 197.936 390.575 196.312V196.256H382.511V200.232C382.511 200.624 382.791 200.904 383.183 200.904ZM405.975 200.232V196.256H397.855V196.704C397.855 198.16 397.799 199.56 397.687 200.904H405.303C405.695 200.904 405.975 200.624 405.975 200.232Z" fill="#594A39"/>
<path d="M479.223 196.648C481.295 197.992 481.743 200.064 480.455 202.528C472.615 217.2 456.767 224.256 437.335 225.152C436.159 225.208 435.319 224.704 435.207 223.416C435.095 222.408 435.543 221.624 436.887 221.4C455.591 218.264 466.399 212.832 472.951 201.912C473.175 201.464 473.007 201.128 472.503 201.128H463.319C461.695 202.752 459.903 204.208 457.999 205.552C459.231 206.392 460.351 207.288 461.303 208.296C462.815 209.808 462.535 211.544 460.855 212.72C459.175 213.896 457.383 213.616 456.375 211.656C455.647 210.312 454.975 209.08 454.247 208.016C450.719 210.032 446.967 211.544 443.159 212.44C441.983 212.776 441.143 212.272 440.863 211.264C440.583 210.256 440.919 209.416 441.983 208.968C449.655 206 456.207 200.904 461.135 194.408C454.639 199.952 446.351 203.76 437.111 205.44C435.879 205.608 435.151 205.216 434.871 204.04C434.591 203.088 434.983 202.192 436.215 201.744C449.879 197.32 457.943 191.664 463.263 182.592C463.543 182.144 463.319 181.808 462.815 181.808H453.911C452.735 182.984 451.503 184.048 450.215 185.112C451.335 185.84 452.399 186.736 453.463 187.632C455.087 189.144 454.919 190.824 453.295 192C451.671 193.232 449.879 193.008 448.927 191.16C448.255 189.984 447.583 188.864 446.799 187.688C444.111 189.592 441.311 191.16 438.735 192.28C437.727 192.728 436.775 192.448 436.327 191.496C435.823 190.544 436.103 189.704 437.111 189.032C442.487 185.728 447.751 180.52 451.615 174.136C452.847 172.064 454.639 171.616 456.711 172.68C458.727 173.744 458.951 175.76 457.439 177.776H464.047C465.727 176.488 467.687 176.264 469.479 177.328C471.495 178.504 471.831 180.688 470.599 182.872C469.143 185.504 467.407 187.968 465.447 190.208C466.007 190.152 466.679 190.32 467.407 190.768C469.199 191.832 469.535 193.568 468.359 195.248C467.911 195.864 467.519 196.48 467.015 197.04H473.623C475.135 195.752 477.487 195.472 479.223 196.648Z" fill="#594A39"/>
<path d="M521.447 207.68C519.711 207.68 518.535 206.672 518.423 204.88L517.079 182.256C516.855 179.12 518.423 177.44 521.447 177.44C524.527 177.44 526.039 179.12 525.815 182.256L524.415 204.88C524.303 206.672 523.239 207.68 521.447 207.68ZM521.503 221.568C518.815 221.568 516.575 219.384 516.575 216.752C516.575 214.176 518.815 212.104 521.503 212.104C524.079 212.104 526.319 214.176 526.319 216.752C526.319 219.384 524.079 221.568 521.503 221.568Z" fill="#594A39"/>
</svg>
