<svg width="660" height="440" viewBox="0 0 660 440" fill="none" xmlns="http://www.w3.org/2000/svg">
<path d="M305.423 0C107.182 0 -17.2704 102.832 1.90164 236.302C18.3262 350.718 88.7947 367.685 219.829 381.719C220.734 398.988 226.531 421.793 247.937 438.73C248.918 439.445 250.091 439.847 251.304 439.885C252.516 439.923 253.712 439.594 254.735 438.941C255.758 438.288 256.561 437.342 257.04 436.225C257.518 435.108 257.65 433.873 257.418 432.681C255.455 420.583 256.663 402.89 272.514 385.741C289.602 386.467 307.476 386.981 326.135 386.83C572.261 384.894 660.03 309.766 660.03 174.421C660.03 39.0759 503.755 0 305.423 0Z" fill="#F3F5DE"/>
</svg>
