<svg width="1971" height="350" viewBox="0 0 1971 350" fill="none" xmlns="http://www.w3.org/2000/svg">
<path d="M202.267 6.07157C185.256 5.72797 168.291 4.16743 151.503 1.40192C123.41 -3.41837 22.7865 18.5742 22.7865 115.356C22.7865 115.356 71.14 144.579 129.36 107.825C187.58 71.0701 202.267 6.07157 202.267 6.07157Z" fill="#C7D04F"/>
<path d="M8.77755 141.717C9.3765 141.669 9.95732 141.489 10.4782 141.189C10.9991 140.89 11.4472 140.478 11.7902 139.985C12.2421 139.307 26.477 110.687 73.6254 74.9112C74.5147 74.4329 75.2108 73.6612 75.5953 72.7274C75.9798 71.7937 76.0289 70.7556 75.7343 69.7897C75.5566 69.3099 75.2791 68.8733 74.9202 68.5087C74.5612 68.1441 74.1289 67.8598 73.6519 67.6748C73.175 67.4897 72.6641 67.4079 72.1532 67.4349C71.6423 67.4619 71.1429 67.5971 70.6881 67.8315C43.3261 84.015 19.3808 105.376 0.191424 130.721C-1.08896 132.529 4.40918 139.834 6.14147 141.04C6.51234 141.325 6.9371 141.532 7.39015 141.648C7.8432 141.765 8.31515 141.788 8.77755 141.717Z" fill="#E2E5A7"/>
<path d="M122.991 138.299C100.691 138.299 87.3914 124.499 87.3914 99.0994C87.3914 76.4994 101.591 61.8994 123.991 61.8994C136.091 61.8994 144.391 66.6994 148.091 70.3994C150.591 72.8994 150.791 75.9994 148.391 78.5994C145.891 81.2994 142.791 81.3994 139.791 78.8994C136.891 76.4994 131.891 73.5994 123.691 73.5994C112.391 73.5994 105.191 83.3994 105.191 99.2994C105.191 117.299 111.391 126.499 123.091 126.499C127.891 126.499 131.791 125.599 133.791 124.399C134.591 123.899 134.891 123.499 134.891 122.599V108.599C134.891 108.099 134.591 107.699 133.991 107.699H124.691C120.991 107.699 118.991 105.799 118.991 102.099C118.991 98.3994 120.991 96.4994 124.691 96.4994H143.791C148.091 96.4994 150.591 98.8994 150.591 103.299V124.399C150.591 128.199 149.491 130.599 146.691 132.599C141.691 136.199 132.891 138.299 122.991 138.299Z" fill="#594A39"/>
<path d="M205.501 89.2994C206.001 94.7994 202.501 96.4994 197.601 97.0994C192.301 97.7994 187.301 102.999 185.801 109.599V130.299C185.801 135.899 182.401 138.299 176.901 138.299C171.401 138.299 168.801 135.799 168.801 130.299V90.1994C168.801 85.3994 172.001 83.2994 176.901 83.2994C181.501 83.2994 184.501 85.6994 184.501 90.5994V95.2994C186.601 86.9994 191.301 83.5994 197.201 83.3994C201.701 83.2994 205.101 84.7994 205.501 89.2994Z" fill="#594A39"/>
<path d="M255.944 123.699C258.644 121.699 261.544 121.899 263.444 124.099C265.344 126.199 265.444 129.099 263.344 131.399C260.144 134.999 252.344 138.299 242.444 138.299C226.744 138.299 214.644 130.399 214.644 111.999C214.644 94.2994 225.044 83.1994 241.744 83.1994C258.144 83.1994 266.344 95.3994 266.344 107.199C266.344 112.899 263.444 115.899 257.344 115.899H231.944C232.944 124.199 236.644 127.299 243.744 127.499C248.644 127.599 252.644 126.199 255.944 123.699ZM241.944 93.6994C235.644 93.6994 232.844 97.9994 231.944 104.899H250.144C250.744 104.899 251.044 104.599 251.044 103.999C251.044 97.0994 247.544 93.6994 241.944 93.6994Z" fill="#594A39"/>
<path d="M319.733 123.699C322.433 121.699 325.333 121.899 327.233 124.099C329.133 126.199 329.233 129.099 327.133 131.399C323.933 134.999 316.133 138.299 306.233 138.299C290.533 138.299 278.433 130.399 278.433 111.999C278.433 94.2994 288.833 83.1994 305.533 83.1994C321.933 83.1994 330.133 95.3994 330.133 107.199C330.133 112.899 327.233 115.899 321.133 115.899H295.733C296.733 124.199 300.433 127.299 307.533 127.499C312.433 127.599 316.433 126.199 319.733 123.699ZM305.733 93.6994C299.433 93.6994 296.633 97.9994 295.733 104.899H313.933C314.533 104.899 314.833 104.599 314.833 103.999C314.833 97.0994 311.333 93.6994 305.733 93.6994Z" fill="#594A39"/>
<path d="M377.022 83.2994C388.922 83.2994 396.322 90.8994 396.322 103.199V129.999C396.322 135.399 393.322 138.299 387.822 138.299C382.322 138.299 379.322 135.399 379.322 129.999V104.499C379.322 98.1994 376.722 94.3994 372.122 94.3994C367.722 94.3994 363.722 98.3994 362.422 103.999V129.999C362.422 135.399 359.422 138.299 353.922 138.299C348.422 138.299 345.422 135.399 345.422 129.999V91.0994C345.422 86.0994 348.222 83.3994 353.222 83.3994C358.322 83.3994 361.122 85.8994 361.122 90.9994V92.5994C364.122 86.4994 370.322 83.2994 377.022 83.2994Z" fill="#594A39"/>
<path d="M474.15 74.7994C473.65 74.7994 473.25 75.0994 473.25 75.6994V93.1994H493.05C496.55 93.1994 498.45 95.1994 498.45 98.8994C498.45 102.599 496.55 104.599 493.05 104.599H473.25V129.599C473.25 135.299 470.05 138.299 464.65 138.299C459.15 138.299 456.05 135.299 456.05 129.599V71.6994C456.05 66.3994 458.95 63.3994 464.15 63.3994H496.15C499.65 63.3994 501.55 65.3994 501.55 69.0994C501.55 72.7994 499.65 74.7994 496.15 74.7994H474.15Z" fill="#594A39"/>
<path d="M523.54 77.1994C518.04 77.1994 513.44 72.9994 513.44 67.5994C513.44 61.9994 517.94 57.8994 523.54 57.8994C529.24 57.8994 533.24 61.8994 533.24 67.5994C533.24 73.0994 529.14 77.1994 523.54 77.1994ZM523.34 138.299C517.74 138.299 514.84 135.399 514.84 129.999V92.5994C514.84 87.1994 517.74 84.2994 523.34 84.2994C528.94 84.2994 531.84 87.1994 531.84 92.5994V129.999C531.84 135.399 528.94 138.299 523.34 138.299Z" fill="#594A39"/>
<path d="M583.448 83.2994C595.348 83.2994 602.748 90.8994 602.748 103.199V129.999C602.748 135.399 599.748 138.299 594.248 138.299C588.748 138.299 585.748 135.399 585.748 129.999V104.499C585.748 98.1994 583.148 94.3994 578.548 94.3994C574.148 94.3994 570.148 98.3994 568.848 103.999V129.999C568.848 135.399 565.848 138.299 560.348 138.299C554.848 138.299 551.848 135.399 551.848 129.999V91.0994C551.848 86.0994 554.648 83.3994 559.648 83.3994C564.748 83.3994 567.548 85.8994 567.548 90.9994V92.5994C570.548 86.4994 576.748 83.2994 583.448 83.2994Z" fill="#594A39"/>
<path d="M662.215 89.8994C665.215 93.0994 666.715 97.5994 666.715 103.399V129.999C666.715 135.399 664.615 138.299 659.415 138.299C654.115 138.299 651.715 135.399 651.715 129.999V129.699C648.415 135.499 642.215 138.299 634.315 138.299C623.715 138.299 617.215 132.099 617.215 122.199C617.215 110.299 628.315 102.899 645.115 102.899C647.115 102.899 649.215 102.999 650.515 103.199V102.299C650.515 97.2994 647.715 94.2994 642.415 94.0994C638.115 93.8994 633.515 95.7994 629.715 99.8994C627.315 102.499 623.815 102.899 621.315 100.699C618.715 98.5994 618.415 95.2994 620.715 92.3994C624.315 87.9994 632.215 83.2994 642.715 83.2994C652.015 83.2994 657.915 85.3994 662.215 89.8994ZM650.715 118.499V113.399C649.415 113.199 647.215 112.999 645.315 113.099C635.715 113.599 632.415 117.299 632.615 121.199C632.815 124.599 634.915 126.599 639.015 126.599C643.715 126.599 648.415 123.299 650.715 118.499Z" fill="#594A39"/>
<path d="M716.299 83.2994C728.199 83.2994 735.599 90.8994 735.599 103.199V129.999C735.599 135.399 732.599 138.299 727.099 138.299C721.599 138.299 718.599 135.399 718.599 129.999V104.499C718.599 98.1994 715.999 94.3994 711.399 94.3994C706.999 94.3994 702.999 98.3994 701.699 103.999V129.999C701.699 135.399 698.699 138.299 693.199 138.299C687.699 138.299 684.699 135.399 684.699 129.999V91.0994C684.699 86.0994 687.499 83.3994 692.499 83.3994C697.599 83.3994 700.399 85.8994 700.399 90.9994V92.5994C703.399 86.4994 709.599 83.2994 716.299 83.2994Z" fill="#594A39"/>
<path d="M777.566 138.299C760.466 138.299 750.366 128.299 750.366 111.199C750.366 94.0994 760.866 83.2994 777.666 83.2994C786.966 83.2994 793.366 87.0994 795.966 90.3994C797.966 92.6994 797.866 95.6994 795.666 97.6994C793.066 99.9994 790.166 100.099 787.866 97.8994C785.666 95.7994 782.366 94.8994 779.066 94.8994C771.666 94.8994 767.366 100.299 767.366 110.399C767.366 121.499 771.566 126.499 779.266 126.499C783.166 126.499 786.266 125.599 788.566 123.599C790.866 121.599 793.766 121.799 795.966 123.799C798.366 125.899 798.366 128.799 796.266 131.599C793.066 135.799 785.866 138.299 777.566 138.299Z" fill="#594A39"/>
<path d="M822.27 77.1994C816.77 77.1994 812.17 72.9994 812.17 67.5994C812.17 61.9994 816.67 57.8994 822.27 57.8994C827.97 57.8994 831.97 61.8994 831.97 67.5994C831.97 73.0994 827.87 77.1994 822.27 77.1994ZM822.07 138.299C816.47 138.299 813.57 135.399 813.57 129.999V92.5994C813.57 87.1994 816.47 84.2994 822.07 84.2994C827.67 84.2994 830.57 87.1994 830.57 92.5994V129.999C830.57 135.399 827.67 138.299 822.07 138.299Z" fill="#594A39"/>
<path d="M882.178 83.2994C894.078 83.2994 901.478 90.8994 901.478 103.199V129.999C901.478 135.399 898.478 138.299 892.978 138.299C887.478 138.299 884.478 135.399 884.478 129.999V104.499C884.478 98.1994 881.878 94.3994 877.278 94.3994C872.878 94.3994 868.878 98.3994 867.578 103.999V129.999C867.578 135.399 864.578 138.299 859.078 138.299C853.578 138.299 850.578 135.399 850.578 129.999V91.0994C850.578 86.0994 853.378 83.3994 858.378 83.3994C863.478 83.3994 866.278 85.8994 866.278 90.9994V92.5994C869.278 86.4994 875.478 83.2994 882.178 83.2994Z" fill="#594A39"/>
<path d="M960.545 83.3994C966.045 83.3994 967.945 86.1994 967.945 91.5994V135.699C967.945 153.299 958.745 161.999 941.345 161.999C935.045 161.999 927.945 160.099 923.845 157.399C920.445 155.199 919.245 152.299 920.945 149.099C922.545 145.999 925.845 145.399 928.845 147.299C931.945 149.199 935.245 150.699 940.745 150.699C948.545 150.699 951.945 146.499 951.945 136.299V132.399C948.845 135.099 944.345 136.799 939.945 136.799C928.145 136.799 916.245 130.899 916.245 110.899C916.245 93.4994 925.645 83.2994 939.445 83.2994C945.745 83.2994 950.145 85.6994 952.845 89.3994C953.545 85.5994 956.245 83.3994 960.545 83.3994ZM943.745 125.499C947.245 125.499 950.545 123.899 952.645 121.099V101.799C951.545 98.8994 948.845 94.5994 942.945 94.5994C936.445 94.5994 932.445 99.5994 932.445 111.099C932.445 120.499 936.945 125.499 943.745 125.499Z" fill="#594A39"/>
<path d="M1051.91 62.6994C1072.01 62.6994 1083.01 71.2994 1083.01 86.1994C1083.01 103.899 1067.91 110.099 1052.91 110.099C1050.61 110.099 1048.21 110.099 1046.11 109.999V129.599C1046.11 135.299 1042.91 138.299 1037.41 138.299C1031.61 138.299 1028.71 135.299 1028.71 129.599V72.1994C1028.71 67.2994 1031.01 64.1994 1035.81 63.4994C1039.81 62.8994 1046.31 62.6994 1051.91 62.6994ZM1052.21 98.9994C1060.51 98.9994 1065.81 94.3994 1065.81 86.2994C1065.81 78.6994 1060.51 73.8994 1052.31 73.8994C1050.31 73.8994 1047.91 73.9994 1046.71 74.1994C1046.21 74.2994 1045.91 74.5994 1045.91 75.1994V98.8994C1048.01 98.9994 1050.21 98.9994 1052.21 98.9994Z" fill="#594A39"/>
<path d="M1132.57 89.2994C1133.07 94.7994 1129.57 96.4994 1124.67 97.0994C1119.37 97.7994 1114.37 102.999 1112.87 109.599V130.299C1112.87 135.899 1109.47 138.299 1103.97 138.299C1098.47 138.299 1095.87 135.799 1095.87 130.299V90.1994C1095.87 85.3994 1099.07 83.2994 1103.97 83.2994C1108.57 83.2994 1111.57 85.6994 1111.57 90.5994V95.2994C1113.67 86.9994 1118.37 83.5994 1124.27 83.3994C1128.77 83.2994 1132.17 84.7994 1132.57 89.2994Z" fill="#594A39"/>
<path d="M1183.01 123.699C1185.71 121.699 1188.61 121.899 1190.51 124.099C1192.41 126.199 1192.51 129.099 1190.41 131.399C1187.21 134.999 1179.41 138.299 1169.51 138.299C1153.81 138.299 1141.71 130.399 1141.71 111.999C1141.71 94.2994 1152.11 83.1994 1168.81 83.1994C1185.21 83.1994 1193.41 95.3994 1193.41 107.199C1193.41 112.899 1190.51 115.899 1184.41 115.899H1159.01C1160.01 124.199 1163.71 127.299 1170.81 127.499C1175.71 127.599 1179.71 126.199 1183.01 123.699ZM1169.01 93.6994C1162.71 93.6994 1159.91 97.9994 1159.01 104.899H1177.21C1177.81 104.899 1178.11 104.599 1178.11 103.999C1178.11 97.0994 1174.61 93.6994 1169.01 93.6994Z" fill="#594A39"/>
<path d="M1240.9 60.4994C1243.2 62.0994 1244 64.8994 1242.9 67.3994C1241.7 70.0994 1238.9 71.1994 1236.5 69.9994C1235.5 69.4994 1234.6 69.2994 1233.7 69.2994C1231 69.2994 1230 70.9994 1230 75.3994V84.7994H1236.2C1239.4 84.7994 1241.2 86.9994 1241.2 90.4994C1241.2 94.0994 1239.3 96.1994 1236.2 96.1994H1230V130.099C1230 135.699 1226.8 138.299 1221.5 138.299C1216.1 138.299 1213 135.499 1213 130.099V96.1994H1208.2C1205 96.1994 1203 94.0994 1203 90.4994C1203 86.8994 1205 84.7994 1208.2 84.7994H1213V75.0994C1213 64.1994 1219.3 57.7994 1230.1 57.7994C1234.4 57.7994 1238.6 58.8994 1240.9 60.4994Z" fill="#594A39"/>
<path d="M1291.74 123.699C1294.44 121.699 1297.34 121.899 1299.24 124.099C1301.14 126.199 1301.24 129.099 1299.14 131.399C1295.94 134.999 1288.14 138.299 1278.24 138.299C1262.54 138.299 1250.44 130.399 1250.44 111.999C1250.44 94.2994 1260.84 83.1994 1277.54 83.1994C1293.94 83.1994 1302.14 95.3994 1302.14 107.199C1302.14 112.899 1299.24 115.899 1293.14 115.899H1267.74C1268.74 124.199 1272.44 127.299 1279.54 127.499C1284.44 127.599 1288.44 126.199 1291.74 123.699ZM1277.74 93.6994C1271.44 93.6994 1268.64 97.9994 1267.74 104.899H1285.94C1286.54 104.899 1286.84 104.599 1286.84 103.999C1286.84 97.0994 1283.34 93.6994 1277.74 93.6994Z" fill="#594A39"/>
<path d="M1354.13 89.2994C1354.63 94.7994 1351.13 96.4994 1346.23 97.0994C1340.93 97.7994 1335.93 102.999 1334.43 109.599V130.299C1334.43 135.899 1331.03 138.299 1325.53 138.299C1320.03 138.299 1317.43 135.799 1317.43 130.299V90.1994C1317.43 85.3994 1320.63 83.2994 1325.53 83.2994C1330.13 83.2994 1333.13 85.6994 1333.13 90.5994V95.2994C1335.23 86.9994 1339.93 83.5994 1345.83 83.3994C1350.33 83.2994 1353.73 84.7994 1354.13 89.2994Z" fill="#594A39"/>
<path d="M1404.58 123.699C1407.28 121.699 1410.18 121.899 1412.08 124.099C1413.98 126.199 1414.08 129.099 1411.98 131.399C1408.78 134.999 1400.98 138.299 1391.08 138.299C1375.38 138.299 1363.28 130.399 1363.28 111.999C1363.28 94.2994 1373.68 83.1994 1390.38 83.1994C1406.78 83.1994 1414.98 95.3994 1414.98 107.199C1414.98 112.899 1412.08 115.899 1405.98 115.899H1380.58C1381.58 124.199 1385.28 127.299 1392.38 127.499C1397.28 127.599 1401.28 126.199 1404.58 123.699ZM1390.58 93.6994C1384.28 93.6994 1381.48 97.9994 1380.58 104.899H1398.78C1399.38 104.899 1399.68 104.599 1399.68 103.999C1399.68 97.0994 1396.18 93.6994 1390.58 93.6994Z" fill="#594A39"/>
<path d="M1461.87 83.2994C1473.77 83.2994 1481.17 90.8994 1481.17 103.199V129.999C1481.17 135.399 1478.17 138.299 1472.67 138.299C1467.17 138.299 1464.17 135.399 1464.17 129.999V104.499C1464.17 98.1994 1461.57 94.3994 1456.97 94.3994C1452.57 94.3994 1448.57 98.3994 1447.27 103.999V129.999C1447.27 135.399 1444.27 138.299 1438.77 138.299C1433.27 138.299 1430.27 135.399 1430.27 129.999V91.0994C1430.27 86.0994 1433.07 83.3994 1438.07 83.3994C1443.17 83.3994 1445.97 85.8994 1445.97 90.9994V92.5994C1448.97 86.4994 1455.17 83.2994 1461.87 83.2994Z" fill="#594A39"/>
<path d="M1527.77 124.799C1530.67 124.799 1532.47 128.299 1532.47 130.799C1532.47 135.999 1525.07 137.499 1519.57 137.499C1508.07 137.499 1502.87 131.999 1502.87 120.099V96.1994H1497.27C1494.07 96.1994 1492.27 93.9994 1492.27 90.4994C1492.27 86.8994 1494.17 84.7994 1497.27 84.7994H1502.87V78.4994C1502.87 73.0994 1505.87 70.1994 1511.37 70.1994C1516.87 70.1994 1519.87 73.0994 1519.87 78.4994V84.7994H1526.37C1529.57 84.7994 1531.37 86.9994 1531.37 90.4994C1531.37 94.0994 1529.47 96.1994 1526.37 96.1994H1519.87V119.899C1519.87 123.899 1520.97 125.699 1522.77 125.699C1524.67 125.699 1525.97 124.799 1527.77 124.799Z" fill="#594A39"/>
<path d="M1556.9 77.1994C1551.4 77.1994 1546.8 72.9994 1546.8 67.5994C1546.8 61.9994 1551.3 57.8994 1556.9 57.8994C1562.6 57.8994 1566.6 61.8994 1566.6 67.5994C1566.6 73.0994 1562.5 77.1994 1556.9 77.1994ZM1556.7 138.299C1551.1 138.299 1548.2 135.399 1548.2 129.999V92.5994C1548.2 87.1994 1551.1 84.2994 1556.7 84.2994C1562.3 84.2994 1565.2 87.1994 1565.2 92.5994V129.999C1565.2 135.399 1562.3 138.299 1556.7 138.299Z" fill="#594A39"/>
<path d="M1626.71 89.8994C1629.71 93.0994 1631.21 97.5994 1631.21 103.399V129.999C1631.21 135.399 1629.11 138.299 1623.91 138.299C1618.61 138.299 1616.21 135.399 1616.21 129.999V129.699C1612.91 135.499 1606.71 138.299 1598.81 138.299C1588.21 138.299 1581.71 132.099 1581.71 122.199C1581.71 110.299 1592.81 102.899 1609.61 102.899C1611.61 102.899 1613.71 102.999 1615.01 103.199V102.299C1615.01 97.2994 1612.21 94.2994 1606.91 94.0994C1602.61 93.8994 1598.01 95.7994 1594.21 99.8994C1591.81 102.499 1588.31 102.899 1585.81 100.699C1583.21 98.5994 1582.91 95.2994 1585.21 92.3994C1588.81 87.9994 1596.71 83.2994 1607.21 83.2994C1616.51 83.2994 1622.41 85.3994 1626.71 89.8994ZM1615.21 118.499V113.399C1613.91 113.199 1611.71 112.999 1609.81 113.099C1600.21 113.599 1596.91 117.299 1597.11 121.199C1597.31 124.599 1599.41 126.599 1603.51 126.599C1608.21 126.599 1612.91 123.299 1615.21 118.499Z" fill="#594A39"/>
<path d="M1663.79 138.299C1653.29 138.299 1649.19 134.399 1649.19 121.799V66.9994C1649.19 61.6994 1652.19 58.7994 1657.69 58.7994C1662.99 58.7994 1666.09 61.6994 1666.09 66.9994V121.899C1666.09 124.799 1666.39 125.799 1668.49 125.799C1669.69 125.799 1670.39 125.299 1671.59 125.299C1673.39 125.299 1675.99 126.699 1675.99 130.999C1675.99 136.599 1670.49 138.299 1663.79 138.299Z" fill="#594A39"/>
<path d="M1774.91 130.999C1774.91 134.699 1772.91 136.799 1769.11 136.799H1741.01C1734.11 136.799 1731.01 133.399 1731.01 126.499V70.2994C1731.01 64.9994 1734.21 62.0994 1739.61 61.9994C1745.01 61.8994 1748.21 64.9994 1748.21 70.2994V124.099C1748.21 124.999 1748.61 125.199 1749.31 125.199H1769.11C1772.81 125.199 1774.91 127.199 1774.91 130.999Z" fill="#594A39"/>
<path d="M1811.92 138.399C1794.22 138.399 1784.92 127.799 1784.92 109.899C1784.92 93.6994 1796.12 83.2994 1812.62 83.2994C1828.92 83.2994 1839.32 93.5994 1839.42 109.899C1839.52 128.199 1828.92 138.399 1811.92 138.399ZM1812.12 127.299C1819.02 127.099 1822.02 122.099 1822.02 110.199C1822.02 99.3994 1819.12 94.1994 1812.12 94.2994C1805.32 94.3994 1802.22 99.4994 1802.32 110.199C1802.42 121.499 1804.92 127.499 1812.12 127.299Z" fill="#594A39"/>
<path d="M1896.73 89.8994C1899.73 93.0994 1901.23 97.5994 1901.23 103.399V129.999C1901.23 135.399 1899.13 138.299 1893.93 138.299C1888.63 138.299 1886.23 135.399 1886.23 129.999V129.699C1882.93 135.499 1876.73 138.299 1868.83 138.299C1858.23 138.299 1851.73 132.099 1851.73 122.199C1851.73 110.299 1862.83 102.899 1879.63 102.899C1881.63 102.899 1883.73 102.999 1885.03 103.199V102.299C1885.03 97.2994 1882.23 94.2994 1876.93 94.0994C1872.63 93.8994 1868.03 95.7994 1864.23 99.8994C1861.83 102.499 1858.33 102.899 1855.83 100.699C1853.23 98.5994 1852.93 95.2994 1855.23 92.3994C1858.83 87.9994 1866.73 83.2994 1877.23 83.2994C1886.53 83.2994 1892.43 85.3994 1896.73 89.8994ZM1885.23 118.499V113.399C1883.93 113.199 1881.73 112.999 1879.83 113.099C1870.23 113.599 1866.93 117.299 1867.13 121.199C1867.33 124.599 1869.43 126.599 1873.53 126.599C1878.23 126.599 1882.93 123.299 1885.23 118.499Z" fill="#594A39"/>
<path d="M1950.81 83.2994C1962.71 83.2994 1970.11 90.8994 1970.11 103.199V129.999C1970.11 135.399 1967.11 138.299 1961.61 138.299C1956.11 138.299 1953.11 135.399 1953.11 129.999V104.499C1953.11 98.1994 1950.51 94.3994 1945.91 94.3994C1941.51 94.3994 1937.51 98.3994 1936.21 103.999V129.999C1936.21 135.399 1933.21 138.299 1927.71 138.299C1922.21 138.299 1919.21 135.399 1919.21 129.999V91.0994C1919.21 86.0994 1922.01 83.3994 1927.01 83.3994C1932.11 83.3994 1934.91 85.8994 1934.91 90.9994V92.5994C1937.91 86.4994 1944.11 83.2994 1950.81 83.2994Z" fill="#594A39"/>
<path d="M6.92 271L0.92 241.52H5.68L8.44 256.88C8.96 260 9.48 263.16 10 266.32H10.16C10.8 263.16 11.48 260 12.16 256.88L15.96 241.52H20.08L23.88 256.88C24.56 259.96 25.2 263.12 25.88 266.32H26.08C26.56 263.12 27.08 259.96 27.56 256.88L30.36 241.52H34.8L29 271H23.28L19.32 254.64C18.8 252.32 18.36 250.12 17.96 247.88H17.8C17.36 250.12 16.88 252.32 16.4 254.64L12.52 271H6.92ZM49.9822 271.52C44.0222 271.52 39.2622 267.28 39.2622 260C39.2622 252.88 44.1822 248.44 49.3022 248.44C55.1422 248.44 58.3022 252.64 58.3022 258.84C58.3022 259.76 58.1822 260.64 58.0622 261.2H43.7822C44.1422 265.4 46.7822 267.92 50.5822 267.92C52.5422 267.92 54.2222 267.32 55.8222 266.28L57.4222 269.2C55.3822 270.56 52.8622 271.52 49.9822 271.52ZM43.7422 258H54.3022C54.3022 254.24 52.5822 252.04 49.3822 252.04C46.6222 252.04 44.1822 254.16 43.7422 258ZM84.4238 271.52C78.9838 271.52 74.0638 267.32 74.0638 260C74.0638 252.68 78.9838 248.44 84.4238 248.44C89.8638 248.44 94.7838 252.68 94.7838 260C94.7838 267.32 89.8638 271.52 84.4238 271.52ZM84.4238 267.76C87.9038 267.76 90.0638 264.68 90.0638 260C90.0638 255.36 87.9038 252.24 84.4238 252.24C80.9838 252.24 78.8238 255.36 78.8238 260C78.8238 264.68 80.9838 267.76 84.4238 267.76ZM115.677 271V252.68H107.037V271H102.437V252.68H99.4369V249.24L102.437 249V246.68C102.437 242.12 104.717 239.04 109.757 239.04C111.317 239.04 112.837 239.36 113.957 239.84L113.037 243.28C112.157 242.88 111.317 242.68 110.197 242.68C108.237 242.68 107.037 244.08 107.037 246.72V249H115.677V246.24C115.677 241.72 117.757 238.6 122.637 238.6C124.157 238.6 125.557 238.92 126.557 239.32L125.637 242.8C124.837 242.44 123.957 242.24 123.197 242.24C121.277 242.24 120.277 243.52 120.277 246.2V249H124.717V252.68H120.277V271H115.677ZM139.078 271.52C133.118 271.52 128.358 267.28 128.358 260C128.358 252.88 133.278 248.44 138.398 248.44C144.238 248.44 147.398 252.64 147.398 258.84C147.398 259.76 147.278 260.64 147.158 261.2H132.878C133.238 265.4 135.878 267.92 139.678 267.92C141.638 267.92 143.318 267.32 144.918 266.28L146.518 269.2C144.478 270.56 141.958 271.52 139.078 271.52ZM132.838 258H143.398C143.398 254.24 141.678 252.04 138.478 252.04C135.718 252.04 133.278 254.16 132.838 258ZM154.135 271V249H157.895L158.255 252.96H158.375C159.935 250.12 162.255 248.44 164.615 248.44C165.695 248.44 166.415 248.6 167.095 248.92L166.255 252.92C165.495 252.68 164.935 252.56 164.055 252.56C162.255 252.56 160.095 253.8 158.735 257.28V271H154.135ZM188.646 271.52C185.606 271.52 182.526 270.24 180.366 268.48L182.526 265.52C184.486 267.04 186.406 268.04 188.766 268.04C191.406 268.04 192.646 266.76 192.646 265.08C192.646 263.08 190.166 262.2 187.806 261.28C184.846 260.16 181.606 258.6 181.606 254.88C181.606 251.2 184.566 248.44 189.446 248.44C192.366 248.44 194.806 249.64 196.566 251.04L194.406 253.88C192.886 252.76 191.326 251.96 189.526 251.96C187.086 251.96 185.966 253.16 185.966 254.68C185.966 256.56 188.126 257.28 190.526 258.16C193.606 259.32 197.006 260.68 197.006 264.84C197.006 268.52 194.086 271.52 188.646 271.52ZM203.505 279.92V249H207.265L207.625 251.4H207.745C209.665 249.8 212.065 248.44 214.545 248.44C220.105 248.44 223.225 252.88 223.225 259.64C223.225 267.2 218.705 271.52 213.745 271.52C211.785 271.52 209.825 270.64 207.945 269.04L208.105 272.8V279.92H203.505ZM212.865 267.72C216.065 267.72 218.465 264.88 218.465 259.72C218.465 255.12 216.985 252.28 213.305 252.28C211.585 252.28 209.945 253.16 208.105 254.96V265.72C209.825 267.2 211.505 267.72 212.865 267.72ZM239.46 271.52C233.5 271.52 228.74 267.28 228.74 260C228.74 252.88 233.66 248.44 238.78 248.44C244.62 248.44 247.78 252.64 247.78 258.84C247.78 259.76 247.66 260.64 247.54 261.2H233.26C233.62 265.4 236.26 267.92 240.06 267.92C242.02 267.92 243.7 267.32 245.3 266.28L246.9 269.2C244.86 270.56 242.34 271.52 239.46 271.52ZM233.22 258H243.78C243.78 254.24 242.06 252.04 238.86 252.04C236.1 252.04 233.66 254.16 233.22 258ZM263.478 271.52C257.518 271.52 252.958 267.32 252.958 260C252.958 252.68 258.038 248.44 263.838 248.44C266.638 248.44 268.678 249.56 270.278 250.96L267.998 253.96C266.798 252.88 265.558 252.24 264.078 252.24C260.358 252.24 257.718 255.36 257.718 260C257.718 264.68 260.278 267.76 263.918 267.76C265.758 267.76 267.398 266.88 268.718 265.76L270.638 268.8C268.598 270.6 265.998 271.52 263.478 271.52ZM276.782 271V249H281.382V271H276.782ZM279.062 244.88C277.382 244.88 276.222 243.8 276.222 242.12C276.222 240.48 277.382 239.4 279.062 239.4C280.742 239.4 281.942 240.48 281.942 242.12C281.942 243.8 280.742 244.88 279.062 244.88ZM295.066 271.52C291.266 271.52 288.586 269.04 288.586 265.16C288.586 260.44 292.586 258 301.746 257C301.706 254.44 300.786 252.2 297.546 252.2C295.226 252.2 293.066 253.24 291.186 254.44L289.466 251.32C291.746 249.88 294.826 248.44 298.346 248.44C303.826 248.44 306.346 251.92 306.346 257.76V271H302.586L302.226 268.48H302.066C300.066 270.2 297.706 271.52 295.066 271.52ZM296.466 267.88C298.386 267.88 299.946 266.96 301.746 265.32V259.92C295.226 260.68 293.026 262.36 293.026 264.84C293.026 267 294.506 267.88 296.466 267.88ZM319.034 271.52C315.714 271.52 314.474 269.4 314.474 265.84V239.12H319.074V266.08C319.074 267.32 319.594 267.76 320.154 267.76C320.354 267.76 320.514 267.76 320.914 267.68L321.514 271.16C320.954 271.36 320.194 271.52 319.034 271.52ZM343.132 271.52C339.812 271.52 338.572 269.4 338.572 265.84V239.12H343.172V266.08C343.172 267.32 343.692 267.76 344.252 267.76C344.452 267.76 344.612 267.76 345.012 267.68L345.612 271.16C345.052 271.36 344.292 271.52 343.132 271.52ZM360.886 271.52C355.446 271.52 350.526 267.32 350.526 260C350.526 252.68 355.446 248.44 360.886 248.44C366.326 248.44 371.246 252.68 371.246 260C371.246 267.32 366.326 271.52 360.886 271.52ZM360.886 267.76C364.366 267.76 366.526 264.68 366.526 260C366.526 255.36 364.366 252.24 360.886 252.24C357.446 252.24 355.286 255.36 355.286 260C355.286 264.68 357.446 267.76 360.886 267.76ZM382.871 271.52C379.071 271.52 376.391 269.04 376.391 265.16C376.391 260.44 380.391 258 389.551 257C389.511 254.44 388.591 252.2 385.351 252.2C383.031 252.2 380.871 253.24 378.991 254.44L377.271 251.32C379.551 249.88 382.631 248.44 386.151 248.44C391.631 248.44 394.151 251.92 394.151 257.76V271H390.391L390.031 268.48H389.871C387.871 270.2 385.511 271.52 382.871 271.52ZM384.271 267.88C386.191 267.88 387.751 266.96 389.551 265.32V259.92C383.031 260.68 380.831 262.36 380.831 264.84C380.831 267 382.311 267.88 384.271 267.88ZM402.278 271V249H406.038L406.398 252.04H406.518C408.558 250.08 410.798 248.44 413.798 248.44C418.478 248.44 420.558 251.56 420.558 257.16V271H415.958V257.72C415.958 253.92 414.838 252.4 412.238 252.4C410.198 252.4 408.798 253.44 406.878 255.4V271H402.278ZM434.799 271.52C431.759 271.52 428.679 270.24 426.519 268.48L428.679 265.52C430.639 267.04 432.559 268.04 434.919 268.04C437.559 268.04 438.799 266.76 438.799 265.08C438.799 263.08 436.319 262.2 433.959 261.28C430.999 260.16 427.759 258.6 427.759 254.88C427.759 251.2 430.719 248.44 435.599 248.44C438.519 248.44 440.959 249.64 442.719 251.04L440.559 253.88C439.039 252.76 437.479 251.96 435.679 251.96C433.239 251.96 432.119 253.16 432.119 254.68C432.119 256.56 434.279 257.28 436.679 258.16C439.759 259.32 443.159 260.68 443.159 264.84C443.159 268.52 440.239 271.52 434.799 271.52ZM467.643 271.52C462.683 271.52 460.963 268.44 460.963 263.8V252.68H457.763V249.24L461.203 249L461.723 242.92H465.563V249H471.283V252.68H465.563V263.84C465.563 266.48 466.483 267.84 468.763 267.84C469.523 267.84 470.483 267.6 471.123 267.32L471.963 270.72C470.723 271.12 469.243 271.52 467.643 271.52ZM485.838 271.52C480.398 271.52 475.478 267.32 475.478 260C475.478 252.68 480.398 248.44 485.838 248.44C491.278 248.44 496.198 252.68 496.198 260C496.198 267.32 491.278 271.52 485.838 271.52ZM485.838 267.76C489.318 267.76 491.478 264.68 491.478 260C491.478 255.36 489.318 252.24 485.838 252.24C482.398 252.24 480.238 255.36 480.238 260C480.238 264.68 482.398 267.76 485.838 267.76ZM519.753 271.52C516.713 271.52 513.633 270.24 511.473 268.48L513.633 265.52C515.592 267.04 517.513 268.04 519.873 268.04C522.513 268.04 523.753 266.76 523.753 265.08C523.753 263.08 521.273 262.2 518.913 261.28C515.953 260.16 512.713 258.6 512.713 254.88C512.713 251.2 515.673 248.44 520.553 248.44C523.473 248.44 525.913 249.64 527.673 251.04L525.513 253.88C523.993 252.76 522.433 251.96 520.633 251.96C518.193 251.96 517.073 253.16 517.073 254.68C517.073 256.56 519.233 257.28 521.633 258.16C524.713 259.32 528.113 260.68 528.113 264.84C528.113 268.52 525.193 271.52 519.753 271.52ZM541.091 271.52C536.371 271.52 534.331 268.44 534.331 262.84V249H538.931V262.28C538.931 266.04 540.011 267.56 542.611 267.56C544.651 267.56 546.051 266.6 547.891 264.28V249H552.491V271H548.731L548.371 267.68H548.251C546.251 270 544.091 271.52 541.091 271.52ZM561.016 279.92V249H564.776L565.136 251.4H565.256C567.176 249.8 569.576 248.44 572.056 248.44C577.616 248.44 580.736 252.88 580.736 259.64C580.736 267.2 576.216 271.52 571.256 271.52C569.296 271.52 567.336 270.64 565.456 269.04L565.616 272.8V279.92H561.016ZM570.376 267.72C573.576 267.72 575.976 264.88 575.976 259.72C575.976 255.12 574.496 252.28 570.816 252.28C569.096 252.28 567.456 253.16 565.616 254.96V265.72C567.336 267.2 569.016 267.72 570.376 267.72ZM587.811 279.92V249H591.571L591.931 251.4H592.051C593.971 249.8 596.371 248.44 598.851 248.44C604.411 248.44 607.531 252.88 607.531 259.64C607.531 267.2 603.011 271.52 598.051 271.52C596.091 271.52 594.131 270.64 592.251 269.04L592.411 272.8V279.92H587.811ZM597.171 267.72C600.371 267.72 602.771 264.88 602.771 259.72C602.771 255.12 601.291 252.28 597.611 252.28C595.891 252.28 594.251 253.16 592.411 254.96V265.72C594.131 267.2 595.811 267.72 597.171 267.72ZM623.407 271.52C617.967 271.52 613.047 267.32 613.047 260C613.047 252.68 617.967 248.44 623.407 248.44C628.847 248.44 633.767 252.68 633.767 260C633.767 267.32 628.847 271.52 623.407 271.52ZM623.407 267.76C626.887 267.76 629.047 264.68 629.047 260C629.047 255.36 626.887 252.24 623.407 252.24C619.967 252.24 617.807 255.36 617.807 260C617.807 264.68 619.967 267.76 623.407 267.76ZM640.777 271V249H644.537L644.897 252.96H645.017C646.577 250.12 648.897 248.44 651.257 248.44C652.337 248.44 653.057 248.6 653.737 248.92L652.897 252.92C652.137 252.68 651.577 252.56 650.697 252.56C648.897 252.56 646.737 253.8 645.377 257.28V271H640.777ZM666.144 271.52C661.184 271.52 659.464 268.44 659.464 263.8V252.68H656.264V249.24L659.704 249L660.224 242.92H664.064V249H669.784V252.68H664.064V263.84C664.064 266.48 664.984 267.84 667.264 267.84C668.024 267.84 668.984 267.6 669.624 267.32L670.464 270.72C669.224 271.12 667.744 271.52 666.144 271.52ZM694.308 280.88C689.028 280.88 685.188 278.92 685.188 275.08C685.188 273.24 686.348 271.52 688.388 270.28V270.08C687.268 269.4 686.388 268.24 686.388 266.44C686.388 264.72 687.628 263.24 688.868 262.36V262.2C687.348 261.04 685.948 258.96 685.948 256.32C685.948 251.36 689.908 248.44 694.468 248.44C695.708 248.44 696.828 248.68 697.668 249H705.468V252.44H701.268C702.108 253.32 702.708 254.8 702.708 256.48C702.708 261.28 699.068 264.04 694.468 264.04C693.468 264.04 692.348 263.8 691.388 263.36C690.668 264 690.188 264.6 690.188 265.68C690.188 267 691.068 267.84 693.868 267.84H697.908C703.108 267.84 705.828 269.44 705.828 273.2C705.828 277.44 701.348 280.88 694.308 280.88ZM694.468 261.08C696.748 261.08 698.628 259.28 698.628 256.32C698.628 253.4 696.788 251.68 694.468 251.68C692.148 251.68 690.308 253.36 690.308 256.32C690.308 259.28 692.188 261.08 694.468 261.08ZM694.988 277.84C698.828 277.84 701.388 275.96 701.388 273.92C701.388 272.08 699.948 271.52 697.268 271.52H693.948C692.908 271.52 691.908 271.4 690.988 271.2C689.668 272.16 689.108 273.28 689.108 274.4C689.108 276.56 691.348 277.84 694.988 277.84ZM711.513 271V249H715.273L715.633 252.96H715.753C717.313 250.12 719.633 248.44 721.993 248.44C723.073 248.44 723.793 248.6 724.473 248.92L723.633 252.92C722.873 252.68 722.313 252.56 721.433 252.56C719.633 252.56 717.473 253.8 716.113 257.28V271H711.513ZM738.21 271.52C732.25 271.52 727.49 267.28 727.49 260C727.49 252.88 732.41 248.44 737.53 248.44C743.37 248.44 746.53 252.64 746.53 258.84C746.53 259.76 746.41 260.64 746.29 261.2H732.01C732.37 265.4 735.01 267.92 738.81 267.92C740.77 267.92 742.45 267.32 744.05 266.28L745.65 269.2C743.61 270.56 741.09 271.52 738.21 271.52ZM731.97 258H742.53C742.53 254.24 740.81 252.04 737.61 252.04C734.85 252.04 732.41 254.16 731.97 258ZM762.427 271.52C756.467 271.52 751.707 267.28 751.707 260C751.707 252.88 756.627 248.44 761.747 248.44C767.587 248.44 770.747 252.64 770.747 258.84C770.747 259.76 770.627 260.64 770.507 261.2H756.227C756.587 265.4 759.227 267.92 763.027 267.92C764.987 267.92 766.667 267.32 768.267 266.28L769.867 269.2C767.827 270.56 765.307 271.52 762.427 271.52ZM756.187 258H766.747C766.747 254.24 765.027 252.04 761.827 252.04C759.067 252.04 756.627 254.16 756.187 258ZM777.485 271V249H781.245L781.605 252.04H781.725C783.765 250.08 786.005 248.44 789.005 248.44C793.685 248.44 795.765 251.56 795.765 257.16V271H791.165V257.72C791.165 253.92 790.045 252.4 787.445 252.4C785.405 252.4 784.005 253.44 782.085 255.4V271H777.485ZM814.63 271V249H819.23V271H814.63ZM816.91 244.88C815.23 244.88 814.07 243.8 814.07 242.12C814.07 240.48 815.23 239.4 816.91 239.4C818.59 239.4 819.79 240.48 819.79 242.12C819.79 243.8 818.59 244.88 816.91 244.88ZM827.714 271V249H831.474L831.834 252.04H831.954C833.994 250.08 836.234 248.44 839.234 248.44C843.914 248.44 845.994 251.56 845.994 257.16V271H841.394V257.72C841.394 253.92 840.274 252.4 837.674 252.4C835.634 252.4 834.234 253.44 832.314 255.4V271H827.714ZM861.875 271.52C856.355 271.52 852.795 267.32 852.795 260C852.795 252.88 857.315 248.44 862.235 248.44C864.755 248.44 866.355 249.4 868.155 250.92L867.955 247.28V239.12H872.555V271H868.795L868.435 268.52H868.275C866.635 270.2 864.355 271.52 861.875 271.52ZM862.955 267.72C864.795 267.72 866.355 266.88 867.955 265.04V254.28C866.315 252.8 864.755 252.28 863.115 252.28C860.035 252.28 857.555 255.2 857.555 259.96C857.555 264.96 859.515 267.72 862.955 267.72ZM887.551 271.52C882.831 271.52 880.791 268.44 880.791 262.84V249H885.391V262.28C885.391 266.04 886.471 267.56 889.071 267.56C891.111 267.56 892.511 266.6 894.351 264.28V249H898.951V271H895.191L894.831 267.68H894.711C892.711 270 890.551 271.52 887.551 271.52ZM913.435 271.52C910.395 271.52 907.315 270.24 905.155 268.48L907.315 265.52C909.275 267.04 911.195 268.04 913.555 268.04C916.195 268.04 917.435 266.76 917.435 265.08C917.435 263.08 914.955 262.2 912.595 261.28C909.635 260.16 906.395 258.6 906.395 254.88C906.395 251.2 909.355 248.44 914.235 248.44C917.155 248.44 919.595 249.64 921.355 251.04L919.195 253.88C917.675 252.76 916.115 251.96 914.315 251.96C911.875 251.96 910.755 253.16 910.755 254.68C910.755 256.56 912.915 257.28 915.315 258.16C918.395 259.32 921.795 260.68 921.795 264.84C921.795 268.52 918.875 271.52 913.435 271.52ZM934.796 271.52C929.836 271.52 928.116 268.44 928.116 263.8V252.68H924.916V249.24L928.356 249L928.876 242.92H932.716V249H938.436V252.68H932.716V263.84C932.716 266.48 933.636 267.84 935.916 267.84C936.676 267.84 937.636 267.6 938.276 267.32L939.116 270.72C937.876 271.12 936.396 271.52 934.796 271.52ZM944.855 271V249H948.615L948.975 252.96H949.095C950.655 250.12 952.975 248.44 955.335 248.44C956.415 248.44 957.135 248.6 957.815 248.92L956.975 252.92C956.215 252.68 955.655 252.56 954.775 252.56C952.975 252.56 950.815 253.8 949.455 257.28V271H944.855ZM962.822 271V249H967.422V271H962.822ZM965.102 244.88C963.422 244.88 962.262 243.8 962.262 242.12C962.262 240.48 963.422 239.4 965.102 239.4C966.782 239.4 967.982 240.48 967.982 242.12C967.982 243.8 966.782 244.88 965.102 244.88ZM985.067 271.52C979.107 271.52 974.347 267.28 974.347 260C974.347 252.88 979.267 248.44 984.387 248.44C990.227 248.44 993.387 252.64 993.387 258.84C993.387 259.76 993.267 260.64 993.147 261.2H978.867C979.227 265.4 981.867 267.92 985.667 267.92C987.627 267.92 989.307 267.32 990.907 266.28L992.507 269.2C990.467 270.56 987.947 271.52 985.067 271.52ZM978.827 258H989.387C989.387 254.24 987.667 252.04 984.467 252.04C981.707 252.04 979.267 254.16 978.827 258ZM1006.08 271.52C1003.04 271.52 999.964 270.24 997.804 268.48L999.964 265.52C1001.92 267.04 1003.84 268.04 1006.2 268.04C1008.84 268.04 1010.08 266.76 1010.08 265.08C1010.08 263.08 1007.6 262.2 1005.24 261.28C1002.28 260.16 999.044 258.6 999.044 254.88C999.044 251.2 1002 248.44 1006.88 248.44C1009.8 248.44 1012.24 249.64 1014 251.04L1011.84 253.88C1010.32 252.76 1008.76 251.96 1006.96 251.96C1004.52 251.96 1003.4 253.16 1003.4 254.68C1003.4 256.56 1005.56 257.28 1007.96 258.16C1011.04 259.32 1014.44 260.68 1014.44 264.84C1014.44 268.52 1011.52 271.52 1006.08 271.52ZM1036.73 271.52C1032.93 271.52 1030.25 269.04 1030.25 265.16C1030.25 260.44 1034.25 258 1043.41 257C1043.37 254.44 1042.45 252.2 1039.21 252.2C1036.89 252.2 1034.73 253.24 1032.85 254.44L1031.13 251.32C1033.41 249.88 1036.49 248.44 1040.01 248.44C1045.49 248.44 1048.01 251.92 1048.01 257.76V271H1044.25L1043.89 268.48H1043.73C1041.73 270.2 1039.37 271.52 1036.73 271.52ZM1038.13 267.88C1040.05 267.88 1041.61 266.96 1043.41 265.32V259.92C1036.89 260.68 1034.69 262.36 1034.69 264.84C1034.69 267 1036.17 267.88 1038.13 267.88ZM1056.13 271V249H1059.89L1060.25 252.04H1060.37C1062.41 250.08 1064.65 248.44 1067.65 248.44C1072.33 248.44 1074.41 251.56 1074.41 257.16V271H1069.81V257.72C1069.81 253.92 1068.69 252.4 1066.09 252.4C1064.05 252.4 1062.65 253.44 1060.73 255.4V271H1056.13ZM1090.3 271.52C1084.78 271.52 1081.22 267.32 1081.22 260C1081.22 252.88 1085.74 248.44 1090.66 248.44C1093.18 248.44 1094.78 249.4 1096.58 250.92L1096.38 247.28V239.12H1100.98V271H1097.22L1096.86 268.52H1096.7C1095.06 270.2 1092.78 271.52 1090.3 271.52ZM1091.38 267.72C1093.22 267.72 1094.78 266.88 1096.38 265.04V254.28C1094.74 252.8 1093.18 252.28 1091.54 252.28C1088.46 252.28 1085.98 255.2 1085.98 259.96C1085.98 264.96 1087.94 267.72 1091.38 267.72ZM1129.24 271.52C1123.28 271.52 1118.52 267.28 1118.52 260C1118.52 252.88 1123.44 248.44 1128.56 248.44C1134.4 248.44 1137.56 252.64 1137.56 258.84C1137.56 259.76 1137.44 260.64 1137.32 261.2H1123.04C1123.4 265.4 1126.04 267.92 1129.84 267.92C1131.8 267.92 1133.48 267.32 1135.08 266.28L1136.68 269.2C1134.64 270.56 1132.12 271.52 1129.24 271.52ZM1123 258H1133.56C1133.56 254.24 1131.84 252.04 1128.64 252.04C1125.88 252.04 1123.44 254.16 1123 258ZM1153.25 271.52C1147.29 271.52 1142.73 267.32 1142.73 260C1142.73 252.68 1147.81 248.44 1153.61 248.44C1156.41 248.44 1158.45 249.56 1160.05 250.96L1157.77 253.96C1156.57 252.88 1155.33 252.24 1153.85 252.24C1150.13 252.24 1147.49 255.36 1147.49 260C1147.49 264.68 1150.05 267.76 1153.69 267.76C1155.53 267.76 1157.17 266.88 1158.49 265.76L1160.41 268.8C1158.37 270.6 1155.77 271.52 1153.25 271.52ZM1174.3 271.52C1168.86 271.52 1163.94 267.32 1163.94 260C1163.94 252.68 1168.86 248.44 1174.3 248.44C1179.74 248.44 1184.66 252.68 1184.66 260C1184.66 267.32 1179.74 271.52 1174.3 271.52ZM1174.3 267.76C1177.78 267.76 1179.94 264.68 1179.94 260C1179.94 255.36 1177.78 252.24 1174.3 252.24C1170.86 252.24 1168.7 255.36 1168.7 260C1168.7 264.68 1170.86 267.76 1174.3 267.76ZM1190.31 261.4V258H1200.87V261.4H1190.31ZM1208.56 271V252.68H1205.56V249.24L1208.56 249V246.24C1208.56 241.72 1210.6 238.6 1215.52 238.6C1217 238.6 1218.4 238.92 1219.4 239.32L1218.48 242.8C1217.68 242.44 1216.84 242.24 1216.08 242.24C1214.12 242.24 1213.16 243.52 1213.16 246.2V249H1217.6V252.68H1213.16V271H1208.56ZM1223.19 271V249H1226.95L1227.31 252.96H1227.43C1228.99 250.12 1231.31 248.44 1233.67 248.44C1234.75 248.44 1235.47 248.6 1236.15 248.92L1235.31 252.92C1234.55 252.68 1233.99 252.56 1233.11 252.56C1231.31 252.56 1229.15 253.8 1227.79 257.28V271H1223.19ZM1241.16 271V249H1245.76V271H1241.16ZM1243.44 244.88C1241.76 244.88 1240.6 243.8 1240.6 242.12C1240.6 240.48 1241.76 239.4 1243.44 239.4C1245.12 239.4 1246.32 240.48 1246.32 242.12C1246.32 243.8 1245.12 244.88 1243.44 244.88ZM1263.4 271.52C1257.44 271.52 1252.68 267.28 1252.68 260C1252.68 252.88 1257.6 248.44 1262.72 248.44C1268.56 248.44 1271.72 252.64 1271.72 258.84C1271.72 259.76 1271.6 260.64 1271.48 261.2H1257.2C1257.56 265.4 1260.2 267.92 1264 267.92C1265.96 267.92 1267.64 267.32 1269.24 266.28L1270.84 269.2C1268.8 270.56 1266.28 271.52 1263.4 271.52ZM1257.16 258H1267.72C1267.72 254.24 1266 252.04 1262.8 252.04C1260.04 252.04 1257.6 254.16 1257.16 258ZM1278.46 271V249H1282.22L1282.58 252.04H1282.7C1284.74 250.08 1286.98 248.44 1289.98 248.44C1294.66 248.44 1296.74 251.56 1296.74 257.16V271H1292.14V257.72C1292.14 253.92 1291.02 252.4 1288.42 252.4C1286.38 252.4 1284.98 253.44 1283.06 255.4V271H1278.46ZM1312.62 271.52C1307.1 271.52 1303.54 267.32 1303.54 260C1303.54 252.88 1308.06 248.44 1312.98 248.44C1315.5 248.44 1317.1 249.4 1318.9 250.92L1318.7 247.28V239.12H1323.3V271H1319.54L1319.18 268.52H1319.02C1317.38 270.2 1315.1 271.52 1312.62 271.52ZM1313.7 267.72C1315.54 267.72 1317.1 266.88 1318.7 265.04V254.28C1317.06 252.8 1315.5 252.28 1313.86 252.28C1310.78 252.28 1308.3 255.2 1308.3 259.96C1308.3 264.96 1310.26 267.72 1313.7 267.72ZM1336.38 271.52C1333.06 271.52 1331.82 269.4 1331.82 265.84V239.12H1336.42V266.08C1336.42 267.32 1336.94 267.76 1337.5 267.76C1337.7 267.76 1337.86 267.76 1338.26 267.68L1338.86 271.16C1338.3 271.36 1337.54 271.52 1336.38 271.52ZM1346.33 280.2C1345.21 280.2 1344.33 280.04 1343.57 279.76L1344.45 276.16C1344.85 276.28 1345.49 276.48 1346.05 276.48C1348.45 276.48 1349.85 274.72 1350.65 272.36L1351.09 270.84L1342.37 249H1347.09L1351.17 260.32C1351.81 262.28 1352.49 264.48 1353.17 266.52H1353.37C1353.93 264.52 1354.53 262.32 1355.09 260.32L1358.61 249H1363.09L1355.01 272.32C1353.29 277.04 1350.97 280.2 1346.33 280.2ZM1389.51 271.52C1387.51 271.52 1385.31 270.48 1383.43 268.72H1383.31L1382.87 271H1379.27V239.12H1383.87V247.56L1383.71 251.32C1385.59 249.68 1387.95 248.44 1390.27 248.44C1395.83 248.44 1398.99 252.88 1398.99 259.64C1398.99 267.2 1394.47 271.52 1389.51 271.52ZM1388.63 267.72C1391.83 267.72 1394.23 264.88 1394.23 259.72C1394.23 255.12 1392.75 252.28 1389.07 252.28C1387.35 252.28 1385.67 253.16 1383.87 254.96V265.72C1385.55 267.2 1387.27 267.72 1388.63 267.72ZM1412.51 271.52C1407.79 271.52 1405.75 268.44 1405.75 262.84V249H1410.35V262.28C1410.35 266.04 1411.43 267.56 1414.03 267.56C1416.07 267.56 1417.47 266.6 1419.31 264.28V249H1423.91V271H1420.15L1419.79 267.68H1419.67C1417.67 270 1415.51 271.52 1412.51 271.52ZM1438.39 271.52C1435.35 271.52 1432.27 270.24 1430.11 268.48L1432.27 265.52C1434.23 267.04 1436.15 268.04 1438.51 268.04C1441.15 268.04 1442.39 266.76 1442.39 265.08C1442.39 263.08 1439.91 262.2 1437.55 261.28C1434.59 260.16 1431.35 258.6 1431.35 254.88C1431.35 251.2 1434.31 248.44 1439.19 248.44C1442.11 248.44 1444.55 249.64 1446.31 251.04L1444.15 253.88C1442.63 252.76 1441.07 251.96 1439.27 251.96C1436.83 251.96 1435.71 253.16 1435.71 254.68C1435.71 256.56 1437.87 257.28 1440.27 258.16C1443.35 259.32 1446.75 260.68 1446.75 264.84C1446.75 268.52 1443.83 271.52 1438.39 271.52ZM1453.25 271V249H1457.85V271H1453.25ZM1455.53 244.88C1453.85 244.88 1452.69 243.8 1452.69 242.12C1452.69 240.48 1453.85 239.4 1455.53 239.4C1457.21 239.4 1458.41 240.48 1458.41 242.12C1458.41 243.8 1457.21 244.88 1455.53 244.88ZM1466.34 271V249H1470.1L1470.46 252.04H1470.58C1472.62 250.08 1474.86 248.44 1477.86 248.44C1482.54 248.44 1484.62 251.56 1484.62 257.16V271H1480.02V257.72C1480.02 253.92 1478.9 252.4 1476.3 252.4C1474.26 252.4 1472.86 253.44 1470.94 255.4V271H1466.34ZM1502.06 271.52C1496.1 271.52 1491.34 267.28 1491.34 260C1491.34 252.88 1496.26 248.44 1501.38 248.44C1507.22 248.44 1510.38 252.64 1510.38 258.84C1510.38 259.76 1510.26 260.64 1510.14 261.2H1495.86C1496.22 265.4 1498.86 267.92 1502.66 267.92C1504.62 267.92 1506.3 267.32 1507.9 266.28L1509.5 269.2C1507.46 270.56 1504.94 271.52 1502.06 271.52ZM1495.82 258H1506.38C1506.38 254.24 1504.66 252.04 1501.46 252.04C1498.7 252.04 1496.26 254.16 1495.82 258ZM1523.08 271.52C1520.04 271.52 1516.96 270.24 1514.8 268.48L1516.96 265.52C1518.92 267.04 1520.84 268.04 1523.2 268.04C1525.84 268.04 1527.08 266.76 1527.08 265.08C1527.08 263.08 1524.6 262.2 1522.24 261.28C1519.28 260.16 1516.04 258.6 1516.04 254.88C1516.04 251.2 1519 248.44 1523.88 248.44C1526.8 248.44 1529.24 249.64 1531 251.04L1528.84 253.88C1527.32 252.76 1525.76 251.96 1523.96 251.96C1521.52 251.96 1520.4 253.16 1520.4 254.68C1520.4 256.56 1522.56 257.28 1524.96 258.16C1528.04 259.32 1531.44 260.68 1531.44 264.84C1531.44 268.52 1528.52 271.52 1523.08 271.52ZM1543.89 271.52C1540.85 271.52 1537.77 270.24 1535.61 268.48L1537.77 265.52C1539.73 267.04 1541.65 268.04 1544.01 268.04C1546.65 268.04 1547.89 266.76 1547.89 265.08C1547.89 263.08 1545.41 262.2 1543.05 261.28C1540.09 260.16 1536.85 258.6 1536.85 254.88C1536.85 251.2 1539.81 248.44 1544.69 248.44C1547.61 248.44 1550.05 249.64 1551.81 251.04L1549.65 253.88C1548.13 252.76 1546.57 251.96 1544.77 251.96C1542.33 251.96 1541.21 253.16 1541.21 254.68C1541.21 256.56 1543.37 257.28 1545.77 258.16C1548.85 259.32 1552.25 260.68 1552.25 264.84C1552.25 268.52 1549.33 271.52 1543.89 271.52ZM1567.91 271.52C1561.95 271.52 1557.19 267.28 1557.19 260C1557.19 252.88 1562.11 248.44 1567.23 248.44C1573.07 248.44 1576.23 252.64 1576.23 258.84C1576.23 259.76 1576.11 260.64 1575.99 261.2H1561.71C1562.07 265.4 1564.71 267.92 1568.51 267.92C1570.47 267.92 1572.15 267.32 1573.75 266.28L1575.35 269.2C1573.31 270.56 1570.79 271.52 1567.91 271.52ZM1561.67 258H1572.23C1572.23 254.24 1570.51 252.04 1567.31 252.04C1564.55 252.04 1562.11 254.16 1561.67 258ZM1588.93 271.52C1585.89 271.52 1582.81 270.24 1580.65 268.48L1582.81 265.52C1584.77 267.04 1586.69 268.04 1589.05 268.04C1591.69 268.04 1592.93 266.76 1592.93 265.08C1592.93 263.08 1590.45 262.2 1588.09 261.28C1585.13 260.16 1581.89 258.6 1581.89 254.88C1581.89 251.2 1584.85 248.44 1589.73 248.44C1592.65 248.44 1595.09 249.64 1596.85 251.04L1594.69 253.88C1593.17 252.76 1591.61 251.96 1589.81 251.96C1587.37 251.96 1586.25 253.16 1586.25 254.68C1586.25 256.56 1588.41 257.28 1590.81 258.16C1593.89 259.32 1597.29 260.68 1597.29 264.84C1597.29 268.52 1594.37 271.52 1588.93 271.52ZM1614.37 271V249H1618.97V271H1614.37ZM1616.65 244.88C1614.97 244.88 1613.81 243.8 1613.81 242.12C1613.81 240.48 1614.97 239.4 1616.65 239.4C1618.33 239.4 1619.53 240.48 1619.53 242.12C1619.53 243.8 1618.33 244.88 1616.65 244.88ZM1627.46 271V249H1631.22L1631.58 252.04H1631.7C1633.74 250.08 1635.98 248.44 1638.98 248.44C1643.66 248.44 1645.74 251.56 1645.74 257.16V271H1641.14V257.72C1641.14 253.92 1640.02 252.4 1637.42 252.4C1635.38 252.4 1633.98 253.44 1632.06 255.4V271H1627.46ZM1664.6 271V249H1668.36L1668.72 252.96H1668.84C1670.4 250.12 1672.72 248.44 1675.08 248.44C1676.16 248.44 1676.88 248.6 1677.56 248.92L1676.72 252.92C1675.96 252.68 1675.4 252.56 1674.52 252.56C1672.72 252.56 1670.56 253.8 1669.2 257.28V271H1664.6ZM1691.3 271.52C1685.34 271.52 1680.58 267.28 1680.58 260C1680.58 252.88 1685.5 248.44 1690.62 248.44C1696.46 248.44 1699.62 252.64 1699.62 258.84C1699.62 259.76 1699.5 260.64 1699.38 261.2H1685.1C1685.46 265.4 1688.1 267.92 1691.9 267.92C1693.86 267.92 1695.54 267.32 1697.14 266.28L1698.74 269.2C1696.7 270.56 1694.18 271.52 1691.3 271.52ZM1685.06 258H1695.62C1695.62 254.24 1693.9 252.04 1690.7 252.04C1687.94 252.04 1685.5 254.16 1685.06 258ZM1713.96 271.52C1708.44 271.52 1704.88 267.32 1704.88 260C1704.88 252.88 1709.4 248.44 1714.32 248.44C1716.84 248.44 1718.44 249.4 1720.24 250.92L1720.04 247.28V239.12H1724.64V271H1720.88L1720.52 268.52H1720.36C1718.72 270.2 1716.44 271.52 1713.96 271.52ZM1715.04 267.72C1716.88 267.72 1718.44 266.88 1720.04 265.04V254.28C1718.4 252.8 1716.84 252.28 1715.2 252.28C1712.12 252.28 1709.64 255.2 1709.64 259.96C1709.64 264.96 1711.6 267.72 1715.04 267.72ZM1739.63 271.52C1734.91 271.52 1732.87 268.44 1732.87 262.84V249H1737.47V262.28C1737.47 266.04 1738.55 267.56 1741.15 267.56C1743.19 267.56 1744.59 266.6 1746.43 264.28V249H1751.03V271H1747.27L1746.91 267.68H1746.79C1744.79 270 1742.63 271.52 1739.63 271.52ZM1768.52 271.52C1762.56 271.52 1758 267.32 1758 260C1758 252.68 1763.08 248.44 1768.88 248.44C1771.68 248.44 1773.72 249.56 1775.32 250.96L1773.04 253.96C1771.84 252.88 1770.6 252.24 1769.12 252.24C1765.4 252.24 1762.76 255.36 1762.76 260C1762.76 264.68 1765.32 267.76 1768.96 267.76C1770.8 267.76 1772.44 266.88 1773.76 265.76L1775.68 268.8C1773.64 270.6 1771.04 271.52 1768.52 271.52ZM1781.82 271V249H1786.42V271H1781.82ZM1784.1 244.88C1782.42 244.88 1781.26 243.8 1781.26 242.12C1781.26 240.48 1782.42 239.4 1784.1 239.4C1785.78 239.4 1786.98 240.48 1786.98 242.12C1786.98 243.8 1785.78 244.88 1784.1 244.88ZM1794.91 271V249H1798.67L1799.03 252.04H1799.15C1801.19 250.08 1803.43 248.44 1806.43 248.44C1811.11 248.44 1813.19 251.56 1813.19 257.16V271H1808.59V257.72C1808.59 253.92 1807.47 252.4 1804.87 252.4C1802.83 252.4 1801.43 253.44 1799.51 255.4V271H1794.91ZM1828.99 280.88C1823.71 280.88 1819.87 278.92 1819.87 275.08C1819.87 273.24 1821.03 271.52 1823.07 270.28V270.08C1821.95 269.4 1821.07 268.24 1821.07 266.44C1821.07 264.72 1822.31 263.24 1823.55 262.36V262.2C1822.03 261.04 1820.63 258.96 1820.63 256.32C1820.63 251.36 1824.59 248.44 1829.15 248.44C1830.39 248.44 1831.51 248.68 1832.35 249H1840.15V252.44H1835.95C1836.79 253.32 1837.39 254.8 1837.39 256.48C1837.39 261.28 1833.75 264.04 1829.15 264.04C1828.15 264.04 1827.03 263.8 1826.07 263.36C1825.35 264 1824.87 264.6 1824.87 265.68C1824.87 267 1825.75 267.84 1828.55 267.84H1832.59C1837.79 267.84 1840.51 269.44 1840.51 273.2C1840.51 277.44 1836.03 280.88 1828.99 280.88ZM1829.15 261.08C1831.43 261.08 1833.31 259.28 1833.31 256.32C1833.31 253.4 1831.47 251.68 1829.15 251.68C1826.83 251.68 1824.99 253.36 1824.99 256.32C1824.99 259.28 1826.87 261.08 1829.15 261.08ZM1829.67 277.84C1833.51 277.84 1836.07 275.96 1836.07 273.92C1836.07 272.08 1834.63 271.52 1831.95 271.52H1828.63C1827.59 271.52 1826.59 271.4 1825.67 271.2C1824.35 272.16 1823.79 273.28 1823.79 274.4C1823.79 276.56 1826.03 277.84 1829.67 277.84ZM3.48 343.92V313H7.24L7.6 315.4H7.72C9.64 313.8 12.04 312.44 14.52 312.44C20.08 312.44 23.2 316.88 23.2 323.64C23.2 331.2 18.68 335.52 13.72 335.52C11.76 335.52 9.8 334.64 7.92 333.04L8.08 336.8V343.92H3.48ZM12.84 331.72C16.04 331.72 18.44 328.88 18.44 323.72C18.44 319.12 16.96 316.28 13.28 316.28C11.56 316.28 9.92 317.16 8.08 318.96V329.72C9.8 331.2 11.48 331.72 12.84 331.72ZM39.0753 335.52C33.6353 335.52 28.7153 331.32 28.7153 324C28.7153 316.68 33.6353 312.44 39.0753 312.44C44.5153 312.44 49.4353 316.68 49.4353 324C49.4353 331.32 44.5153 335.52 39.0753 335.52ZM39.0753 331.76C42.5553 331.76 44.7153 328.68 44.7153 324C44.7153 319.36 42.5553 316.24 39.0753 316.24C35.6353 316.24 33.4753 319.36 33.4753 324C33.4753 328.68 35.6353 331.76 39.0753 331.76ZM61.0056 335.52C57.6856 335.52 56.4456 333.4 56.4456 329.84V303.12H61.0456V330.08C61.0456 331.32 61.5656 331.76 62.1256 331.76C62.3256 331.76 62.4856 331.76 62.8856 331.68L63.4856 335.16C62.9256 335.36 62.1656 335.52 61.0056 335.52ZM74.5197 335.52C71.1997 335.52 69.9597 333.4 69.9597 329.84V303.12H74.5597V330.08C74.5597 331.32 75.0797 331.76 75.6397 331.76C75.8397 331.76 75.9997 331.76 76.3997 331.68L76.9997 335.16C76.4397 335.36 75.6797 335.52 74.5197 335.52ZM89.9538 335.52C85.2338 335.52 83.1938 332.44 83.1938 326.84V313H87.7938V326.28C87.7938 330.04 88.8738 331.56 91.4738 331.56C93.5138 331.56 94.9138 330.6 96.7538 328.28V313H101.354V335H97.5938L97.2338 331.68H97.1138C95.1138 334 92.9538 335.52 89.9538 335.52ZM117.278 335.52C112.318 335.52 110.598 332.44 110.598 327.8V316.68H107.398V313.24L110.838 313L111.358 306.92H115.198V313H120.918V316.68H115.198V327.84C115.198 330.48 116.118 331.84 118.398 331.84C119.158 331.84 120.118 331.6 120.758 331.32L121.598 334.72C120.358 335.12 118.878 335.52 117.278 335.52ZM127.338 335V313H131.938V335H127.338ZM129.618 308.88C127.938 308.88 126.778 307.8 126.778 306.12C126.778 304.48 127.938 303.4 129.618 303.4C131.298 303.4 132.498 304.48 132.498 306.12C132.498 307.8 131.298 308.88 129.618 308.88ZM149.222 335.52C143.782 335.52 138.862 331.32 138.862 324C138.862 316.68 143.782 312.44 149.222 312.44C154.662 312.44 159.582 316.68 159.582 324C159.582 331.32 154.662 335.52 149.222 335.52ZM149.222 331.76C152.702 331.76 154.862 328.68 154.862 324C154.862 319.36 152.702 316.24 149.222 316.24C145.782 316.24 143.622 319.36 143.622 324C143.622 328.68 145.782 331.76 149.222 331.76ZM166.593 335V313H170.353L170.713 316.04H170.833C172.873 314.08 175.113 312.44 178.113 312.44C182.793 312.44 184.873 315.56 184.873 321.16V335H180.273V321.72C180.273 317.92 179.153 316.4 176.553 316.4C174.513 316.4 173.113 317.44 171.193 319.4V335H166.593ZM208.938 335.52C205.138 335.52 202.458 333.04 202.458 329.16C202.458 324.44 206.458 322 215.618 321C215.578 318.44 214.658 316.2 211.418 316.2C209.098 316.2 206.938 317.24 205.058 318.44L203.338 315.32C205.618 313.88 208.698 312.44 212.218 312.44C217.698 312.44 220.218 315.92 220.218 321.76V335H216.458L216.098 332.48H215.938C213.938 334.2 211.578 335.52 208.938 335.52ZM210.338 331.88C212.258 331.88 213.818 330.96 215.618 329.32V323.92C209.098 324.68 206.898 326.36 206.898 328.84C206.898 331 208.378 331.88 210.338 331.88ZM228.346 335V313H232.106L232.466 316.04H232.586C234.626 314.08 236.866 312.44 239.866 312.44C244.546 312.44 246.626 315.56 246.626 321.16V335H242.026V321.72C242.026 317.92 240.906 316.4 238.306 316.4C236.266 316.4 234.866 317.44 232.946 319.4V335H228.346ZM262.507 335.52C256.987 335.52 253.427 331.32 253.427 324C253.427 316.88 257.947 312.44 262.867 312.44C265.387 312.44 266.987 313.4 268.787 314.92L268.587 311.28V303.12H273.187V335H269.427L269.067 332.52H268.907C267.267 334.2 264.987 335.52 262.507 335.52ZM263.587 331.72C265.427 331.72 266.987 330.88 268.587 329.04V318.28C266.947 316.8 265.387 316.28 263.747 316.28C260.667 316.28 258.187 319.2 258.187 323.96C258.187 328.96 260.147 331.72 263.587 331.72ZM292.286 335V313H296.046L296.406 316.08H296.526C298.406 314.08 300.606 312.44 303.326 312.44C306.606 312.44 308.446 313.96 309.406 316.48C311.566 314.16 313.806 312.44 316.566 312.44C321.166 312.44 323.326 315.56 323.326 321.16V335H318.726V321.72C318.726 317.92 317.526 316.4 315.046 316.4C313.526 316.4 311.926 317.4 310.086 319.4V335H305.486V321.72C305.486 317.92 304.326 316.4 301.806 316.4C300.326 316.4 298.686 317.4 296.886 319.4V335H292.286ZM331.582 335V313H336.182V335H331.582ZM333.862 308.88C332.182 308.88 331.022 307.8 331.022 306.12C331.022 304.48 332.182 303.4 333.862 303.4C335.542 303.4 336.742 304.48 336.742 306.12C336.742 307.8 335.542 308.88 333.862 308.88ZM344.666 335V313H348.426L348.786 316.04H348.906C350.946 314.08 353.186 312.44 356.186 312.44C360.866 312.44 362.946 315.56 362.946 321.16V335H358.346V321.72C358.346 317.92 357.226 316.4 354.626 316.4C352.586 316.4 351.186 317.44 349.266 319.4V335H344.666ZM371.227 335V313H375.827V335H371.227ZM373.507 308.88C371.827 308.88 370.667 307.8 370.667 306.12C370.667 304.48 371.827 303.4 373.507 303.4C375.187 303.4 376.387 304.48 376.387 306.12C376.387 307.8 375.187 308.88 373.507 308.88ZM384.311 335V313H388.071L388.431 316.08H388.551C390.431 314.08 392.631 312.44 395.351 312.44C398.631 312.44 400.471 313.96 401.431 316.48C403.591 314.16 405.831 312.44 408.591 312.44C413.191 312.44 415.351 315.56 415.351 321.16V335H410.751V321.72C410.751 317.92 409.551 316.4 407.071 316.4C405.551 316.4 403.951 317.4 402.111 319.4V335H397.511V321.72C397.511 317.92 396.351 316.4 393.831 316.4C392.351 316.4 390.711 317.4 388.911 319.4V335H384.311ZM423.607 335V313H428.207V335H423.607ZM425.887 308.88C424.207 308.88 423.047 307.8 423.047 306.12C423.047 304.48 424.207 303.4 425.887 303.4C427.567 303.4 428.767 304.48 428.767 306.12C428.767 307.8 427.567 308.88 425.887 308.88ZM434.691 335V332.52L445.571 316.68H435.891V313H451.331V315.44L440.491 331.32H451.691V335H434.691ZM457.9 335V313H462.5V335H457.9ZM460.18 308.88C458.5 308.88 457.34 307.8 457.34 306.12C457.34 304.48 458.5 303.4 460.18 303.4C461.86 303.4 463.06 304.48 463.06 306.12C463.06 307.8 461.86 308.88 460.18 308.88ZM470.985 335V313H474.745L475.105 316.04H475.225C477.265 314.08 479.505 312.44 482.505 312.44C487.185 312.44 489.265 315.56 489.265 321.16V335H484.665V321.72C484.665 317.92 483.545 316.4 480.945 316.4C478.905 316.4 477.505 317.44 475.585 319.4V335H470.985ZM505.066 344.88C499.786 344.88 495.946 342.92 495.946 339.08C495.946 337.24 497.106 335.52 499.146 334.28V334.08C498.026 333.4 497.146 332.24 497.146 330.44C497.146 328.72 498.386 327.24 499.626 326.36V326.2C498.106 325.04 496.706 322.96 496.706 320.32C496.706 315.36 500.666 312.44 505.226 312.44C506.466 312.44 507.586 312.68 508.426 313H516.226V316.44H512.026C512.866 317.32 513.466 318.8 513.466 320.48C513.466 325.28 509.826 328.04 505.226 328.04C504.226 328.04 503.106 327.8 502.146 327.36C501.426 328 500.946 328.6 500.946 329.68C500.946 331 501.826 331.84 504.626 331.84H508.666C513.866 331.84 516.586 333.44 516.586 337.2C516.586 341.44 512.106 344.88 505.066 344.88ZM505.226 325.08C507.506 325.08 509.386 323.28 509.386 320.32C509.386 317.4 507.546 315.68 505.226 315.68C502.906 315.68 501.066 317.36 501.066 320.32C501.066 323.28 502.946 325.08 505.226 325.08ZM505.746 341.84C509.586 341.84 512.146 339.96 512.146 337.92C512.146 336.08 510.706 335.52 508.026 335.52H504.706C503.666 335.52 502.666 335.4 501.746 335.2C500.426 336.16 499.866 337.28 499.866 338.4C499.866 340.56 502.106 341.84 505.746 341.84ZM532.855 335V313H536.615L536.975 316.96H537.095C538.655 314.12 540.975 312.44 543.335 312.44C544.415 312.44 545.135 312.6 545.815 312.92L544.975 316.92C544.215 316.68 543.655 316.56 542.775 316.56C540.975 316.56 538.815 317.8 537.455 321.28V335H532.855ZM559.552 335.52C553.592 335.52 548.832 331.28 548.832 324C548.832 316.88 553.752 312.44 558.872 312.44C564.712 312.44 567.872 316.64 567.872 322.84C567.872 323.76 567.752 324.64 567.632 325.2H553.352C553.712 329.4 556.352 331.92 560.152 331.92C562.112 331.92 563.792 331.32 565.392 330.28L566.992 333.2C564.952 334.56 562.432 335.52 559.552 335.52ZM553.312 322H563.872C563.872 318.24 562.152 316.04 558.952 316.04C556.192 316.04 553.752 318.16 553.312 322ZM580.57 335.52C577.53 335.52 574.45 334.24 572.29 332.48L574.45 329.52C576.41 331.04 578.33 332.04 580.69 332.04C583.33 332.04 584.57 330.76 584.57 329.08C584.57 327.08 582.09 326.2 579.73 325.28C576.77 324.16 573.53 322.6 573.53 318.88C573.53 315.2 576.49 312.44 581.37 312.44C584.29 312.44 586.73 313.64 588.49 315.04L586.33 317.88C584.81 316.76 583.25 315.96 581.45 315.96C579.01 315.96 577.89 317.16 577.89 318.68C577.89 320.56 580.05 321.28 582.45 322.16C585.53 323.32 588.93 324.68 588.93 328.84C588.93 332.52 586.01 335.52 580.57 335.52ZM604.228 335.52C598.788 335.52 593.868 331.32 593.868 324C593.868 316.68 598.788 312.44 604.228 312.44C609.668 312.44 614.588 316.68 614.588 324C614.588 331.32 609.668 335.52 604.228 335.52ZM604.228 331.76C607.708 331.76 609.868 328.68 609.868 324C609.868 319.36 607.708 316.24 604.228 316.24C600.788 316.24 598.628 319.36 598.628 324C598.628 328.68 600.788 331.76 604.228 331.76ZM628.079 335.52C623.359 335.52 621.319 332.44 621.319 326.84V313H625.919V326.28C625.919 330.04 626.999 331.56 629.599 331.56C631.639 331.56 633.039 330.6 634.879 328.28V313H639.479V335H635.719L635.359 331.68H635.239C633.239 334 631.079 335.52 628.079 335.52ZM648.003 335V313H651.763L652.123 316.96H652.243C653.803 314.12 656.123 312.44 658.483 312.44C659.563 312.44 660.283 312.6 660.963 312.92L660.123 316.92C659.363 316.68 658.803 316.56 657.923 316.56C656.123 316.56 653.963 317.8 652.603 321.28V335H648.003ZM674.501 335.52C668.541 335.52 663.981 331.32 663.981 324C663.981 316.68 669.061 312.44 674.861 312.44C677.661 312.44 679.701 313.56 681.301 314.96L679.021 317.96C677.821 316.88 676.581 316.24 675.101 316.24C671.381 316.24 668.741 319.36 668.741 324C668.741 328.68 671.301 331.76 674.941 331.76C676.781 331.76 678.421 330.88 679.741 329.76L681.661 332.8C679.621 334.6 677.021 335.52 674.501 335.52ZM695.91 335.52C689.95 335.52 685.19 331.28 685.19 324C685.19 316.88 690.11 312.44 695.23 312.44C701.07 312.44 704.23 316.64 704.23 322.84C704.23 323.76 704.11 324.64 703.99 325.2H689.71C690.07 329.4 692.71 331.92 696.51 331.92C698.47 331.92 700.15 331.32 701.75 330.28L703.35 333.2C701.31 334.56 698.79 335.52 695.91 335.52ZM689.67 322H700.23C700.23 318.24 698.51 316.04 695.31 316.04C692.55 316.04 690.11 318.16 689.67 322ZM725.112 335L719.152 313H723.792L726.712 324.88C727.152 327.04 727.512 329.04 727.912 331.16H728.072C728.552 329.04 728.992 327 729.512 324.88L732.632 313H736.872L740.032 324.88C740.552 327.04 740.992 329.04 741.512 331.16H741.672C742.112 329.04 742.472 327.04 742.952 324.88L745.792 313H750.112L744.432 335H738.912L736.112 324.12C735.592 322.04 735.192 320.04 734.712 317.76H734.512C734.072 320.04 733.672 322.08 733.112 324.16L730.432 335H725.112ZM761.047 335.52C757.247 335.52 754.567 333.04 754.567 329.16C754.567 324.44 758.567 322 767.727 321C767.687 318.44 766.767 316.2 763.527 316.2C761.207 316.2 759.047 317.24 757.167 318.44L755.447 315.32C757.727 313.88 760.807 312.44 764.327 312.44C769.807 312.44 772.327 315.92 772.327 321.76V335H768.567L768.207 332.48H768.047C766.047 334.2 763.687 335.52 761.047 335.52ZM762.447 331.88C764.367 331.88 765.927 330.96 767.727 329.32V323.92C761.207 324.68 759.007 326.36 759.007 328.84C759.007 331 760.487 331.88 762.447 331.88ZM786.415 335.52C783.375 335.52 780.295 334.24 778.135 332.48L780.295 329.52C782.255 331.04 784.175 332.04 786.535 332.04C789.175 332.04 790.415 330.76 790.415 329.08C790.415 327.08 787.935 326.2 785.575 325.28C782.615 324.16 779.375 322.6 779.375 318.88C779.375 315.2 782.335 312.44 787.215 312.44C790.135 312.44 792.575 313.64 794.335 315.04L792.175 317.88C790.655 316.76 789.095 315.96 787.295 315.96C784.855 315.96 783.735 317.16 783.735 318.68C783.735 320.56 785.895 321.28 788.295 322.16C791.375 323.32 794.775 324.68 794.775 328.84C794.775 332.52 791.855 335.52 786.415 335.52ZM807.775 335.52C802.815 335.52 801.095 332.44 801.095 327.8V316.68H797.895V313.24L801.335 313L801.855 306.92H805.695V313H811.415V316.68H805.695V327.84C805.695 330.48 806.615 331.84 808.895 331.84C809.655 331.84 810.615 331.6 811.255 331.32L812.095 334.72C810.855 335.12 809.375 335.52 807.775 335.52ZM822.058 335.52C818.258 335.52 815.578 333.04 815.578 329.16C815.578 324.44 819.578 322 828.738 321C828.698 318.44 827.778 316.2 824.538 316.2C822.218 316.2 820.058 317.24 818.178 318.44L816.458 315.32C818.738 313.88 821.818 312.44 825.338 312.44C830.818 312.44 833.338 315.92 833.338 321.76V335H829.578L829.218 332.48H829.058C827.058 334.2 824.698 335.52 822.058 335.52ZM823.458 331.88C825.378 331.88 826.938 330.96 828.738 329.32V323.92C822.218 324.68 820.018 326.36 820.018 328.84C820.018 331 821.498 331.88 823.458 331.88ZM848.986 344.88C843.706 344.88 839.866 342.92 839.866 339.08C839.866 337.24 841.026 335.52 843.066 334.28V334.08C841.946 333.4 841.066 332.24 841.066 330.44C841.066 328.72 842.306 327.24 843.546 326.36V326.2C842.026 325.04 840.626 322.96 840.626 320.32C840.626 315.36 844.586 312.44 849.146 312.44C850.386 312.44 851.506 312.68 852.346 313H860.146V316.44H855.946C856.786 317.32 857.386 318.8 857.386 320.48C857.386 325.28 853.746 328.04 849.146 328.04C848.146 328.04 847.026 327.8 846.066 327.36C845.346 328 844.866 328.6 844.866 329.68C844.866 331 845.746 331.84 848.546 331.84H852.586C857.786 331.84 860.506 333.44 860.506 337.2C860.506 341.44 856.026 344.88 848.986 344.88ZM849.146 325.08C851.426 325.08 853.306 323.28 853.306 320.32C853.306 317.4 851.466 315.68 849.146 315.68C846.826 315.68 844.986 317.36 844.986 320.32C844.986 323.28 846.866 325.08 849.146 325.08ZM849.666 341.84C853.506 341.84 856.066 339.96 856.066 337.92C856.066 336.08 854.626 335.52 851.946 335.52H848.626C847.586 335.52 846.586 335.4 845.666 335.2C844.346 336.16 843.786 337.28 843.786 338.4C843.786 340.56 846.026 341.84 849.666 341.84ZM874.687 335.52C868.727 335.52 863.967 331.28 863.967 324C863.967 316.88 868.887 312.44 874.007 312.44C879.847 312.44 883.007 316.64 883.007 322.84C883.007 323.76 882.887 324.64 882.767 325.2H868.487C868.847 329.4 871.487 331.92 875.287 331.92C877.247 331.92 878.927 331.32 880.527 330.28L882.127 333.2C880.087 334.56 877.567 335.52 874.687 335.52ZM868.447 322H879.007C879.007 318.24 877.287 316.04 874.087 316.04C871.327 316.04 868.887 318.16 868.447 322ZM907.928 335.52C902.408 335.52 898.848 331.32 898.848 324C898.848 316.88 903.368 312.44 908.288 312.44C910.808 312.44 912.408 313.4 914.208 314.92L914.008 311.28V303.12H918.608V335H914.848L914.488 332.52H914.328C912.688 334.2 910.408 335.52 907.928 335.52ZM909.008 331.72C910.848 331.72 912.408 330.88 914.008 329.04V318.28C912.368 316.8 910.808 316.28 909.168 316.28C906.088 316.28 903.608 319.2 903.608 323.96C903.608 328.96 905.568 331.72 909.008 331.72ZM933.604 335.52C928.884 335.52 926.844 332.44 926.844 326.84V313H931.444V326.28C931.444 330.04 932.524 331.56 935.124 331.56C937.164 331.56 938.564 330.6 940.404 328.28V313H945.004V335H941.244L940.884 331.68H940.764C938.764 334 936.604 335.52 933.604 335.52ZM953.528 335V313H957.288L957.648 316.96H957.768C959.328 314.12 961.648 312.44 964.008 312.44C965.088 312.44 965.808 312.6 966.488 312.92L965.648 316.92C964.888 316.68 964.328 316.56 963.448 316.56C961.648 316.56 959.488 317.8 958.128 321.28V335H953.528ZM971.496 335V313H976.096V335H971.496ZM973.776 308.88C972.096 308.88 970.936 307.8 970.936 306.12C970.936 304.48 972.096 303.4 973.776 303.4C975.456 303.4 976.656 304.48 976.656 306.12C976.656 307.8 975.456 308.88 973.776 308.88ZM984.58 335V313H988.34L988.7 316.04H988.82C990.86 314.08 993.1 312.44 996.1 312.44C1000.78 312.44 1002.86 315.56 1002.86 321.16V335H998.26V321.72C998.26 317.92 997.14 316.4 994.54 316.4C992.5 316.4 991.1 317.44 989.18 319.4V335H984.58ZM1018.66 344.88C1013.38 344.88 1009.54 342.92 1009.54 339.08C1009.54 337.24 1010.7 335.52 1012.74 334.28V334.08C1011.62 333.4 1010.74 332.24 1010.74 330.44C1010.74 328.72 1011.98 327.24 1013.22 326.36V326.2C1011.7 325.04 1010.3 322.96 1010.3 320.32C1010.3 315.36 1014.26 312.44 1018.82 312.44C1020.06 312.44 1021.18 312.68 1022.02 313H1029.82V316.44H1025.62C1026.46 317.32 1027.06 318.8 1027.06 320.48C1027.06 325.28 1023.42 328.04 1018.82 328.04C1017.82 328.04 1016.7 327.8 1015.74 327.36C1015.02 328 1014.54 328.6 1014.54 329.68C1014.54 331 1015.42 331.84 1018.22 331.84H1022.26C1027.46 331.84 1030.18 333.44 1030.18 337.2C1030.18 341.44 1025.7 344.88 1018.66 344.88ZM1018.82 325.08C1021.1 325.08 1022.98 323.28 1022.98 320.32C1022.98 317.4 1021.14 315.68 1018.82 315.68C1016.5 315.68 1014.66 317.36 1014.66 320.32C1014.66 323.28 1016.54 325.08 1018.82 325.08ZM1019.34 341.84C1023.18 341.84 1025.74 339.96 1025.74 337.92C1025.74 336.08 1024.3 335.52 1021.62 335.52H1018.3C1017.26 335.52 1016.26 335.4 1015.34 335.2C1014.02 336.16 1013.46 337.28 1013.46 338.4C1013.46 340.56 1015.7 341.84 1019.34 341.84ZM1053.85 335.52C1048.89 335.52 1047.17 332.44 1047.17 327.8V316.68H1043.97V313.24L1047.41 313L1047.93 306.92H1051.77V313H1057.49V316.68H1051.77V327.84C1051.77 330.48 1052.69 331.84 1054.97 331.84C1055.73 331.84 1056.69 331.6 1057.33 331.32L1058.17 334.72C1056.93 335.12 1055.45 335.52 1053.85 335.52ZM1063.91 335V303.12H1068.51V311.56L1068.31 315.92C1070.23 314.08 1072.43 312.44 1075.43 312.44C1080.11 312.44 1082.19 315.56 1082.19 321.16V335H1077.59V321.72C1077.59 317.92 1076.47 316.4 1073.87 316.4C1071.83 316.4 1070.43 317.44 1068.51 319.4V335H1063.91ZM1099.51 335.52C1093.55 335.52 1088.79 331.28 1088.79 324C1088.79 316.88 1093.71 312.44 1098.83 312.44C1104.67 312.44 1107.83 316.64 1107.83 322.84C1107.83 323.76 1107.71 324.64 1107.59 325.2H1093.31C1093.67 329.4 1096.31 331.92 1100.11 331.92C1102.07 331.92 1103.75 331.32 1105.35 330.28L1106.95 333.2C1104.91 334.56 1102.39 335.52 1099.51 335.52ZM1093.27 322H1103.83C1103.83 318.24 1102.11 316.04 1098.91 316.04C1096.15 316.04 1093.71 318.16 1093.27 322ZM1114.57 335V313H1119.17V335H1114.57ZM1116.85 308.88C1115.17 308.88 1114.01 307.8 1114.01 306.12C1114.01 304.48 1115.17 303.4 1116.85 303.4C1118.53 303.4 1119.73 304.48 1119.73 306.12C1119.73 307.8 1118.53 308.88 1116.85 308.88ZM1127.66 335V313H1131.42L1131.78 316.96H1131.9C1133.46 314.12 1135.78 312.44 1138.14 312.44C1139.22 312.44 1139.94 312.6 1140.62 312.92L1139.78 316.92C1139.02 316.68 1138.46 316.56 1137.58 316.56C1135.78 316.56 1133.62 317.8 1132.26 321.28V335H1127.66ZM1156.21 343.92V313H1159.97L1160.33 315.4H1160.45C1162.37 313.8 1164.77 312.44 1167.25 312.44C1172.81 312.44 1175.93 316.88 1175.93 323.64C1175.93 331.2 1171.41 335.52 1166.45 335.52C1164.49 335.52 1162.53 334.64 1160.65 333.04L1160.81 336.8V343.92H1156.21ZM1165.57 331.72C1168.77 331.72 1171.17 328.88 1171.17 323.72C1171.17 319.12 1169.69 316.28 1166.01 316.28C1164.29 316.28 1162.65 317.16 1160.81 318.96V329.72C1162.53 331.2 1164.21 331.72 1165.57 331.72ZM1183 335V313H1186.76L1187.12 316.96H1187.24C1188.8 314.12 1191.12 312.44 1193.48 312.44C1194.56 312.44 1195.28 312.6 1195.96 312.92L1195.12 316.92C1194.36 316.68 1193.8 316.56 1192.92 316.56C1191.12 316.56 1188.96 317.8 1187.6 321.28V335H1183ZM1209.34 335.52C1203.9 335.52 1198.98 331.32 1198.98 324C1198.98 316.68 1203.9 312.44 1209.34 312.44C1214.78 312.44 1219.7 316.68 1219.7 324C1219.7 331.32 1214.78 335.52 1209.34 335.52ZM1209.34 331.76C1212.82 331.76 1214.98 328.68 1214.98 324C1214.98 319.36 1212.82 316.24 1209.34 316.24C1205.9 316.24 1203.74 319.36 1203.74 324C1203.74 328.68 1205.9 331.76 1209.34 331.76ZM1234.31 335.52C1228.79 335.52 1225.23 331.32 1225.23 324C1225.23 316.88 1229.75 312.44 1234.67 312.44C1237.19 312.44 1238.79 313.4 1240.59 314.92L1240.39 311.28V303.12H1244.99V335H1241.23L1240.87 332.52H1240.71C1239.07 334.2 1236.79 335.52 1234.31 335.52ZM1235.39 331.72C1237.23 331.72 1238.79 330.88 1240.39 329.04V318.28C1238.75 316.8 1237.19 316.28 1235.55 316.28C1232.47 316.28 1229.99 319.2 1229.99 323.96C1229.99 328.96 1231.95 331.72 1235.39 331.72ZM1259.99 335.52C1255.27 335.52 1253.23 332.44 1253.23 326.84V313H1257.83V326.28C1257.83 330.04 1258.91 331.56 1261.51 331.56C1263.55 331.56 1264.95 330.6 1266.79 328.28V313H1271.39V335H1267.63L1267.27 331.68H1267.15C1265.15 334 1262.99 335.52 1259.99 335.52ZM1288.87 335.52C1282.91 335.52 1278.35 331.32 1278.35 324C1278.35 316.68 1283.43 312.44 1289.23 312.44C1292.03 312.44 1294.07 313.56 1295.67 314.96L1293.39 317.96C1292.19 316.88 1290.95 316.24 1289.47 316.24C1285.75 316.24 1283.11 319.36 1283.11 324C1283.11 328.68 1285.67 331.76 1289.31 331.76C1291.15 331.76 1292.79 330.88 1294.11 329.76L1296.03 332.8C1293.99 334.6 1291.39 335.52 1288.87 335.52ZM1309.14 335.52C1304.18 335.52 1302.46 332.44 1302.46 327.8V316.68H1299.26V313.24L1302.7 313L1303.22 306.92H1307.06V313H1312.78V316.68H1307.06V327.84C1307.06 330.48 1307.98 331.84 1310.26 331.84C1311.02 331.84 1311.98 331.6 1312.62 331.32L1313.46 334.72C1312.22 335.12 1310.74 335.52 1309.14 335.52ZM1319.2 335V313H1323.8V335H1319.2ZM1321.48 308.88C1319.8 308.88 1318.64 307.8 1318.64 306.12C1318.64 304.48 1319.8 303.4 1321.48 303.4C1323.16 303.4 1324.36 304.48 1324.36 306.12C1324.36 307.8 1323.16 308.88 1321.48 308.88ZM1341.09 335.52C1335.65 335.52 1330.73 331.32 1330.73 324C1330.73 316.68 1335.65 312.44 1341.09 312.44C1346.53 312.44 1351.45 316.68 1351.45 324C1351.45 331.32 1346.53 335.52 1341.09 335.52ZM1341.09 331.76C1344.57 331.76 1346.73 328.68 1346.73 324C1346.73 319.36 1344.57 316.24 1341.09 316.24C1337.65 316.24 1335.49 319.36 1335.49 324C1335.49 328.68 1337.65 331.76 1341.09 331.76ZM1358.46 335V313H1362.22L1362.58 316.04H1362.7C1364.74 314.08 1366.98 312.44 1369.98 312.44C1374.66 312.44 1376.74 315.56 1376.74 321.16V335H1372.14V321.72C1372.14 317.92 1371.02 316.4 1368.42 316.4C1366.38 316.4 1364.98 317.44 1363.06 319.4V335H1358.46ZM1404.4 335.52C1398.96 335.52 1394.04 331.32 1394.04 324C1394.04 316.68 1398.96 312.44 1404.4 312.44C1409.84 312.44 1414.76 316.68 1414.76 324C1414.76 331.32 1409.84 335.52 1404.4 335.52ZM1404.4 331.76C1407.88 331.76 1410.04 328.68 1410.04 324C1410.04 319.36 1407.88 316.24 1404.4 316.24C1400.96 316.24 1398.8 319.36 1398.8 324C1398.8 328.68 1400.96 331.76 1404.4 331.76ZM1421.77 335V313H1425.53L1425.89 316.96H1426.01C1427.57 314.12 1429.89 312.44 1432.25 312.44C1433.33 312.44 1434.05 312.6 1434.73 312.92L1433.89 316.92C1433.13 316.68 1432.57 316.56 1431.69 316.56C1429.89 316.56 1427.73 317.8 1426.37 321.28V335H1421.77ZM1456.29 335.52C1453.25 335.52 1450.17 334.24 1448.01 332.48L1450.17 329.52C1452.13 331.04 1454.05 332.04 1456.41 332.04C1459.05 332.04 1460.29 330.76 1460.29 329.08C1460.29 327.08 1457.81 326.2 1455.45 325.28C1452.49 324.16 1449.25 322.6 1449.25 318.88C1449.25 315.2 1452.21 312.44 1457.09 312.44C1460.01 312.44 1462.45 313.64 1464.21 315.04L1462.05 317.88C1460.53 316.76 1458.97 315.96 1457.17 315.96C1454.73 315.96 1453.61 317.16 1453.61 318.68C1453.61 320.56 1455.77 321.28 1458.17 322.16C1461.25 323.32 1464.65 324.68 1464.65 328.84C1464.65 332.52 1461.73 335.52 1456.29 335.52ZM1480.3 335.52C1474.34 335.52 1469.58 331.28 1469.58 324C1469.58 316.88 1474.5 312.44 1479.62 312.44C1485.46 312.44 1488.62 316.64 1488.62 322.84C1488.62 323.76 1488.5 324.64 1488.38 325.2H1474.1C1474.46 329.4 1477.1 331.92 1480.9 331.92C1482.86 331.92 1484.54 331.32 1486.14 330.28L1487.74 333.2C1485.7 334.56 1483.18 335.52 1480.3 335.52ZM1474.06 322H1484.62C1484.62 318.24 1482.9 316.04 1479.7 316.04C1476.94 316.04 1474.5 318.16 1474.06 322ZM1495.36 335V313H1499.12L1499.48 316.96H1499.6C1501.16 314.12 1503.48 312.44 1505.84 312.44C1506.92 312.44 1507.64 312.6 1508.32 312.92L1507.48 316.92C1506.72 316.68 1506.16 316.56 1505.28 316.56C1503.48 316.56 1501.32 317.8 1499.96 321.28V335H1495.36ZM1519.07 335L1511.27 313H1515.99L1519.75 324.84C1520.39 327 1521.03 329.24 1521.67 331.4H1521.83C1522.47 329.24 1523.15 327 1523.75 324.84L1527.51 313H1531.99L1524.39 335H1519.07ZM1537.62 335V313H1542.22V335H1537.62ZM1539.9 308.88C1538.22 308.88 1537.06 307.8 1537.06 306.12C1537.06 304.48 1538.22 303.4 1539.9 303.4C1541.58 303.4 1542.78 304.48 1542.78 306.12C1542.78 307.8 1541.58 308.88 1539.9 308.88ZM1559.67 335.52C1553.71 335.52 1549.15 331.32 1549.15 324C1549.15 316.68 1554.23 312.44 1560.03 312.44C1562.83 312.44 1564.87 313.56 1566.47 314.96L1564.19 317.96C1562.99 316.88 1561.75 316.24 1560.27 316.24C1556.55 316.24 1553.91 319.36 1553.91 324C1553.91 328.68 1556.47 331.76 1560.11 331.76C1561.95 331.76 1563.59 330.88 1564.91 329.76L1566.83 332.8C1564.79 334.6 1562.19 335.52 1559.67 335.52ZM1581.08 335.52C1575.12 335.52 1570.36 331.28 1570.36 324C1570.36 316.88 1575.28 312.44 1580.4 312.44C1586.24 312.44 1589.4 316.64 1589.4 322.84C1589.4 323.76 1589.28 324.64 1589.16 325.2H1574.88C1575.24 329.4 1577.88 331.92 1581.68 331.92C1583.64 331.92 1585.32 331.32 1586.92 330.28L1588.52 333.2C1586.48 334.56 1583.96 335.52 1581.08 335.52ZM1574.84 322H1585.4C1585.4 318.24 1583.68 316.04 1580.48 316.04C1577.72 316.04 1575.28 318.16 1574.84 322ZM1606.72 343.92V313H1610.48L1610.84 315.4H1610.96C1612.88 313.8 1615.28 312.44 1617.76 312.44C1623.32 312.44 1626.44 316.88 1626.44 323.64C1626.44 331.2 1621.92 335.52 1616.96 335.52C1615 335.52 1613.04 334.64 1611.16 333.04L1611.32 336.8V343.92H1606.72ZM1616.08 331.72C1619.28 331.72 1621.68 328.88 1621.68 323.72C1621.68 319.12 1620.2 316.28 1616.52 316.28C1614.8 316.28 1613.16 317.16 1611.32 318.96V329.72C1613.04 331.2 1614.72 331.72 1616.08 331.72ZM1633.51 335V313H1637.27L1637.63 316.96H1637.75C1639.31 314.12 1641.63 312.44 1643.99 312.44C1645.07 312.44 1645.79 312.6 1646.47 312.92L1645.63 316.92C1644.87 316.68 1644.31 316.56 1643.43 316.56C1641.63 316.56 1639.47 317.8 1638.11 321.28V335H1633.51ZM1659.85 335.52C1654.41 335.52 1649.49 331.32 1649.49 324C1649.49 316.68 1654.41 312.44 1659.85 312.44C1665.29 312.44 1670.21 316.68 1670.21 324C1670.21 331.32 1665.29 335.52 1659.85 335.52ZM1659.85 331.76C1663.33 331.76 1665.49 328.68 1665.49 324C1665.49 319.36 1663.33 316.24 1659.85 316.24C1656.41 316.24 1654.25 319.36 1654.25 324C1654.25 328.68 1656.41 331.76 1659.85 331.76ZM1686.18 335.52C1680.22 335.52 1675.66 331.32 1675.66 324C1675.66 316.68 1680.74 312.44 1686.54 312.44C1689.34 312.44 1691.38 313.56 1692.98 314.96L1690.7 317.96C1689.5 316.88 1688.26 316.24 1686.78 316.24C1683.06 316.24 1680.42 319.36 1680.42 324C1680.42 328.68 1682.98 331.76 1686.62 331.76C1688.46 331.76 1690.1 330.88 1691.42 329.76L1693.34 332.8C1691.3 334.6 1688.7 335.52 1686.18 335.52ZM1707.59 335.52C1701.63 335.52 1696.87 331.28 1696.87 324C1696.87 316.88 1701.79 312.44 1706.91 312.44C1712.75 312.44 1715.91 316.64 1715.91 322.84C1715.91 323.76 1715.79 324.64 1715.67 325.2H1701.39C1701.75 329.4 1704.39 331.92 1708.19 331.92C1710.15 331.92 1711.83 331.32 1713.43 330.28L1715.03 333.2C1712.99 334.56 1710.47 335.52 1707.59 335.52ZM1701.35 322H1711.91C1711.91 318.24 1710.19 316.04 1706.99 316.04C1704.23 316.04 1701.79 318.16 1701.35 322ZM1728.61 335.52C1725.57 335.52 1722.49 334.24 1720.33 332.48L1722.49 329.52C1724.45 331.04 1726.37 332.04 1728.73 332.04C1731.37 332.04 1732.61 330.76 1732.61 329.08C1732.61 327.08 1730.13 326.2 1727.77 325.28C1724.81 324.16 1721.57 322.6 1721.57 318.88C1721.57 315.2 1724.53 312.44 1729.41 312.44C1732.33 312.44 1734.77 313.64 1736.53 315.04L1734.37 317.88C1732.85 316.76 1731.29 315.96 1729.49 315.96C1727.05 315.96 1725.93 317.16 1725.93 318.68C1725.93 320.56 1728.09 321.28 1730.49 322.16C1733.57 323.32 1736.97 324.68 1736.97 328.84C1736.97 332.52 1734.05 335.52 1728.61 335.52ZM1749.43 335.52C1746.39 335.52 1743.31 334.24 1741.15 332.48L1743.31 329.52C1745.27 331.04 1747.19 332.04 1749.55 332.04C1752.19 332.04 1753.43 330.76 1753.43 329.08C1753.43 327.08 1750.95 326.2 1748.59 325.28C1745.63 324.16 1742.39 322.6 1742.39 318.88C1742.39 315.2 1745.35 312.44 1750.23 312.44C1753.15 312.44 1755.59 313.64 1757.35 315.04L1755.19 317.88C1753.67 316.76 1752.11 315.96 1750.31 315.96C1747.87 315.96 1746.75 317.16 1746.75 318.68C1746.75 320.56 1748.91 321.28 1751.31 322.16C1754.39 323.32 1757.79 324.68 1757.79 328.84C1757.79 332.52 1754.87 335.52 1749.43 335.52ZM1773.45 335.52C1767.49 335.52 1762.73 331.28 1762.73 324C1762.73 316.88 1767.65 312.44 1772.77 312.44C1778.61 312.44 1781.77 316.64 1781.77 322.84C1781.77 323.76 1781.65 324.64 1781.53 325.2H1767.25C1767.61 329.4 1770.25 331.92 1774.05 331.92C1776.01 331.92 1777.69 331.32 1779.29 330.28L1780.89 333.2C1778.85 334.56 1776.33 335.52 1773.45 335.52ZM1767.21 322H1777.77C1777.77 318.24 1776.05 316.04 1772.85 316.04C1770.09 316.04 1767.65 318.16 1767.21 322ZM1794.46 335.52C1791.42 335.52 1788.34 334.24 1786.18 332.48L1788.34 329.52C1790.3 331.04 1792.22 332.04 1794.58 332.04C1797.22 332.04 1798.46 330.76 1798.46 329.08C1798.46 327.08 1795.98 326.2 1793.62 325.28C1790.66 324.16 1787.42 322.6 1787.42 318.88C1787.42 315.2 1790.38 312.44 1795.26 312.44C1798.18 312.44 1800.62 313.64 1802.38 315.04L1800.22 317.88C1798.7 316.76 1797.14 315.96 1795.34 315.96C1792.9 315.96 1791.78 317.16 1791.78 318.68C1791.78 320.56 1793.94 321.28 1796.34 322.16C1799.42 323.32 1802.82 324.68 1802.82 328.84C1802.82 332.52 1799.9 335.52 1794.46 335.52ZM1811.8 335.52C1810.08 335.52 1808.72 334.2 1808.72 332.32C1808.72 330.4 1810.08 329.04 1811.8 329.04C1813.52 329.04 1814.88 330.4 1814.88 332.32C1814.88 334.2 1813.52 335.52 1811.8 335.52Z" fill="#594A39"/>
</svg>
