<svg width="500" height="847" viewBox="0 0 500 847" fill="none" xmlns="http://www.w3.org/2000/svg">
<rect x="120" y="760" width="260" height="87" rx="43.5" fill="#7DBD36"/>
<path d="M218.433 796.978C219.405 796.978 219.945 797.518 219.945 798.49C219.945 799.462 219.405 800.002 218.433 800.002H202.809C202.449 800.506 202.089 800.974 201.729 801.442H214.329C215.841 801.442 216.669 802.27 216.669 803.782V817.786C216.669 819.37 215.697 820.198 213.897 820.198C212.097 820.198 211.125 819.37 211.125 817.786V817.75H200.505V817.786C200.505 819.37 199.533 820.198 197.733 820.198C195.933 820.198 194.961 819.37 194.961 817.786V807.994C193.413 809.11 191.757 810.046 190.065 810.802C189.273 811.162 188.661 810.91 188.301 810.262C187.941 809.614 188.121 809.002 188.841 808.498C192.045 806.23 194.817 803.314 196.905 800.002H190.173C189.201 800.002 188.661 799.462 188.661 798.49C188.661 797.518 189.201 796.978 190.173 796.978H198.633L199.281 795.574H192.045C191.109 795.574 190.569 795.034 190.569 794.098C190.569 793.162 191.109 792.658 192.045 792.658H200.361C200.469 792.298 200.577 791.974 200.649 791.614C197.841 791.65 195.033 791.614 192.297 791.506C191.361 791.47 190.965 791.002 190.929 790.21C190.893 789.418 191.253 788.95 192.225 788.914C199.857 788.626 207.093 787.798 213.861 785.962C215.409 785.53 216.741 785.926 217.137 787.69C217.533 789.418 216.885 790.57 215.265 790.75C212.817 791.038 210.009 791.254 207.021 791.398C206.877 791.83 206.769 792.226 206.589 792.658H216.669C217.605 792.658 218.145 793.162 218.145 794.098C218.145 795.034 217.605 795.574 216.669 795.574H205.401L204.681 796.978H218.433ZM211.125 804.754C211.125 804.502 210.945 804.322 210.693 804.322H200.937C200.685 804.322 200.505 804.502 200.505 804.754V805.906H211.125V804.754ZM211.125 810.37V808.714H200.505V810.37H211.125ZM200.505 814.87H211.125V813.178H200.505V814.87Z" fill="white"/>
<path d="M262.965 813.646C265.269 813.646 266.277 814.906 266.133 816.814C265.989 818.794 264.837 819.55 262.533 819.514C258.069 819.442 252.669 818.434 247.773 816.454C245.109 818.542 241.329 819.838 236.073 820.09C235.137 820.126 234.669 819.658 234.561 818.866C234.453 818.11 234.849 817.462 235.785 817.282C239.241 816.634 241.689 815.662 243.417 814.33C241.473 813.214 239.709 811.918 238.197 810.442C237.585 809.83 237.585 808.894 238.161 808.246C238.701 807.67 239.241 807.526 240.249 808.102C242.301 809.254 244.245 810.19 246.189 810.946C246.693 809.902 247.017 808.714 247.233 807.418H240.537C238.629 807.418 238.197 806.59 238.197 805.078V795.466C238.197 793.954 239.025 793.126 240.537 793.126H247.593V790.93H237.081C236.001 790.93 235.389 790.318 235.389 789.238C235.389 788.158 236.001 787.546 237.081 787.546H263.793C264.873 787.546 265.485 788.158 265.485 789.238C265.485 790.318 264.873 790.93 263.793 790.93H253.425V793.126H260.553C262.137 793.126 262.893 793.954 262.893 795.466V805.078C262.893 806.59 262.065 807.418 260.553 807.418H252.921C252.561 809.254 251.985 810.946 251.157 812.458C254.793 813.322 258.609 813.646 262.965 813.646ZM243.669 796.654V798.742H247.593V796.222H244.101C243.849 796.222 243.669 796.402 243.669 796.654ZM256.989 796.222H253.425V798.742H257.421V796.654C257.421 796.402 257.241 796.222 256.989 796.222ZM244.101 804.322H247.521C247.557 803.494 247.593 802.666 247.593 801.766H243.669V803.89C243.669 804.142 243.849 804.322 244.101 804.322ZM257.421 803.89V801.766H253.425C253.425 802.63 253.389 803.494 253.317 804.322H256.989C257.241 804.322 257.421 804.142 257.421 803.89Z" fill="white"/>
<path d="M310.449 801.874C312.069 802.99 312.249 804.502 311.313 806.23C306.057 815.77 295.401 819.694 283.701 820.018C282.729 820.054 282.117 819.694 282.045 818.686C281.973 817.858 282.369 817.282 283.413 817.102C294.537 815.194 301.305 812.098 305.553 805.654C305.733 805.366 305.589 805.15 305.265 805.15H299.793C298.821 806.014 297.813 806.842 296.733 807.598C297.273 807.958 297.777 808.39 298.245 808.858C299.433 810.046 299.109 811.378 297.813 812.206C296.517 813.034 295.149 812.746 294.465 811.198C294.177 810.586 293.925 810.01 293.637 809.434C291.513 810.55 289.245 811.414 286.941 811.846C286.005 812.134 285.393 811.738 285.177 810.946C284.961 810.19 285.213 809.542 286.041 809.218C290.001 807.706 293.385 805.294 296.229 802.378C292.341 804.898 287.805 806.59 283.125 807.31C282.153 807.454 281.577 807.202 281.325 806.302C281.109 805.51 281.469 804.826 282.441 804.502C290.829 801.766 296.049 798.202 299.397 792.802C299.577 792.514 299.433 792.298 299.109 792.298H294.357C293.565 793.09 292.701 793.846 291.837 794.53C292.341 794.89 292.845 795.286 293.313 795.718C294.501 796.798 294.321 798.058 293.097 798.922C291.873 799.786 290.541 799.642 289.857 798.202C289.605 797.662 289.353 797.122 288.993 796.546C287.409 797.554 285.825 798.382 284.313 799.03C283.449 799.39 282.801 799.174 282.405 798.454C282.009 797.77 282.225 797.086 282.981 796.546C286.329 794.458 289.317 791.326 291.801 787.402C292.845 785.746 294.177 785.458 295.761 786.286C297.021 786.934 297.417 788.05 296.877 789.274H300.189C301.485 788.374 302.997 788.23 304.329 789.022C305.841 789.922 306.093 791.47 305.193 793.09C304.293 794.674 303.177 796.186 301.953 797.554C302.205 797.626 302.457 797.734 302.709 797.914C304.005 798.778 304.293 799.93 303.393 801.154L302.637 802.126H306.129C307.317 801.118 309.189 801.01 310.449 801.874Z" fill="white"/>
<rect width="160" height="349.962" transform="translate(75.0193 700) rotate(-90)" fill="#FDFDFB"/>
<path d="M131.465 590.509C133.833 592.429 134.281 595.117 131.977 597.229C129.801 599.277 127.497 598.957 125.577 596.525C123.849 594.285 121.737 591.917 119.561 589.613V597.997C119.561 605.869 111.369 607.277 102.217 602.989C100.937 602.413 100.553 601.325 100.937 600.045C101.321 598.765 102.153 598.253 103.689 598.445C109.001 599.021 109.833 598.637 109.833 595.437V590.765C107.913 592.557 105.801 594.157 103.753 595.373C101.961 596.397 100.297 596.461 99.0808 595.373C99.2728 596.973 98.5048 597.933 96.7768 598.445C94.6648 599.085 93.1928 598.317 92.7448 596.205C91.9128 592.429 90.7608 588.781 89.8008 586.029C89.3528 584.749 89.8008 583.917 90.7608 583.405C91.7848 582.957 92.6168 583.341 93.3848 584.301C94.8568 586.157 96.3928 588.589 97.6088 591.213C97.8008 589.805 98.8248 588.589 100.361 588.205C103.241 587.437 106.569 586.285 109.833 584.685V572.141H99.2088C97.5448 572.141 96.5848 571.181 96.5848 569.517C96.5848 567.853 97.5448 566.893 99.2088 566.893H115.017L115.785 563.949H108.297C107.337 565.997 105.417 566.701 102.921 566.189C100.297 565.677 99.5288 564.077 100.233 561.581C101.513 556.845 102.921 550.893 103.625 547.885C104.137 545.709 106.441 544.877 108.617 545.197C110.985 545.581 112.393 547.053 112.137 549.101H118.153C119.241 547.373 121.353 546.605 123.657 547.053C126.153 547.565 127.817 549.421 127.113 552.877C126.473 555.949 124.873 562.029 123.401 566.893H130.313C131.977 566.893 132.937 567.853 132.937 569.517C132.937 571.181 131.977 572.141 130.313 572.141H119.561V581.933C120.969 579.885 122.249 577.645 123.273 575.469C124.425 573.229 126.793 572.525 128.905 573.933C131.145 575.405 131.401 577.645 129.609 579.501C127.497 581.741 125.193 583.661 123.145 585.005C126.281 586.669 129.033 588.525 131.465 590.509ZM79.4328 575.981H80.6488C82.4408 573.293 84.0408 570.669 85.4488 568.109C83.8488 568.749 82.1848 569.325 80.5848 569.709C77.7048 570.413 75.5288 568.877 75.3368 565.869C75.1448 563.117 76.6808 561.325 79.3048 561.453C80.7768 556.781 81.6728 552.685 82.2488 548.845C82.6968 545.837 85.3208 544.813 88.0088 545.325C90.7608 545.837 91.9768 548.141 91.1448 550.701C89.9928 554.157 87.5608 558.445 85.0648 561.773C86.2168 561.837 87.4328 561.837 88.5848 561.901C89.4168 560.045 90.1848 558.317 90.8248 556.589C91.8488 553.773 94.4088 553.133 96.7128 554.093C99.2728 555.181 100.361 557.421 98.8888 560.045C95.9448 565.293 92.1048 570.669 87.1128 575.661C88.7128 575.597 90.2488 575.405 91.7848 575.213C91.6568 574.829 91.5928 574.381 91.4648 573.997C91.0808 572.525 91.5288 571.565 92.6168 571.117C93.7688 570.669 94.6008 571.117 95.4328 572.205C97.0328 574.317 98.5048 577.069 99.5928 579.821C100.489 581.997 99.7208 583.853 97.3528 584.493C95.1128 585.069 93.6408 584.109 93.2568 581.997L92.7448 579.565C89.0328 581.549 85.0648 583.021 80.6488 584.301C77.5768 585.197 75.4008 583.789 75.0808 580.845C74.6968 578.029 76.1048 576.045 79.4328 575.981ZM109.769 558.829H117.129C117.449 557.357 117.769 556.077 117.961 555.053C118.089 554.541 117.769 554.221 117.257 554.221H110.985C110.601 555.757 110.217 557.293 109.769 558.829ZM107.017 584.109C104.969 585.389 102.601 584.749 101.833 582.701C101.065 580.653 100.105 578.285 99.2088 576.557C98.5688 575.341 98.8248 574.317 99.7208 573.549C100.617 572.781 101.769 572.909 102.793 573.741C104.905 575.469 106.633 577.133 108.041 579.181C109.321 581.037 108.873 582.957 107.017 584.109ZM88.2648 586.285C89.7368 589.741 91.1448 594.413 91.8488 598.445C92.2968 600.941 91.4008 602.349 88.9048 602.605C86.4088 602.861 84.8728 601.837 84.8728 599.149C84.8728 594.989 84.6168 590.381 84.1688 587.181C84.0408 585.709 84.6168 584.877 85.8328 584.621C87.0488 584.365 87.7528 585.069 88.2648 586.285ZM80.3928 585.517C81.6728 585.581 82.3768 586.541 82.5688 588.077C83.2088 592.493 83.4008 596.845 83.2088 600.877C83.0808 603.821 80.9048 605.101 78.0248 604.397C75.3368 603.757 74.5048 601.901 75.3368 599.469C76.6808 595.693 77.4488 591.917 78.0248 587.629C78.2168 586.157 79.2408 585.453 80.3928 585.517Z" fill="#594A39"/>
<path d="M205.769 586.349C208.457 601.005 205.961 603.181 195.209 603.501C184.713 603.821 175.689 603.885 167.625 603.565C156.809 603.117 154.761 601.389 154.761 592.493V572.269C153.737 572.973 152.777 573.549 151.817 574.061C150.345 574.829 148.937 574.637 148.105 573.293C147.273 572.013 147.529 570.797 148.873 569.581C154.505 564.589 159.561 556.461 162.633 548.205C163.913 544.813 166.857 543.981 170.121 545.261C172.937 546.349 173.641 548.781 172.745 551.533H180.041C182.089 549.741 185.289 549.357 187.657 550.573C190.281 551.917 191.433 554.541 189.193 558.189C188.169 559.853 186.761 561.581 185.225 563.117H195.593C198.281 563.117 199.753 564.589 199.753 567.277V580.205C199.753 582.893 198.281 584.365 195.593 584.365H164.873V588.781C164.873 593.645 165.449 594.221 170.505 594.477C178.057 594.861 187.401 594.797 194.377 594.477C199.817 594.221 200.521 593.389 200.521 586.797C200.521 585.005 201.481 584.045 202.889 584.045C204.425 584.045 205.449 584.749 205.769 586.349ZM179.529 558.317C179.721 557.741 179.401 557.421 178.889 557.421H169.545C168.265 559.341 166.729 561.325 165.065 563.117H177.417C178.313 561.453 178.953 559.981 179.529 558.317ZM172.745 578.605V568.877H165.641C165.193 568.877 164.873 569.197 164.873 569.645V578.605H172.745ZM190.281 569.645C190.281 569.197 189.961 568.877 189.513 568.877H182.345V578.605H189.257C190.089 578.605 190.281 578.349 190.281 577.517V569.645Z" fill="#594A39"/>
<path d="M239.305 550.381C238.729 553.069 237.961 555.821 236.937 558.637V601.389C236.937 604.077 235.273 605.485 232.201 605.485C229.129 605.485 227.337 604.077 227.337 601.389V576.429C226.441 577.581 225.545 578.605 224.649 579.565C223.561 580.653 222.345 580.589 221.449 579.693C220.553 578.797 220.553 577.709 221.193 576.557C224.777 570.285 228.105 559.597 229.449 549.293C229.897 545.773 232.137 544.685 235.337 545.133C238.153 545.517 239.817 547.757 239.305 550.381ZM276.169 568.429H240.265C238.665 568.429 237.769 567.533 237.769 565.933C237.769 564.333 238.665 563.437 240.265 563.437H252.873V561.645H244.297C242.761 561.645 241.865 560.749 241.865 559.213C241.865 557.677 242.761 556.781 244.297 556.781H252.873V555.117H242.569C240.969 555.117 240.073 554.221 240.073 552.621C240.073 551.021 240.969 550.125 242.569 550.125H252.873V549.421C252.873 546.477 254.665 545.133 257.929 545.133C261.193 545.133 262.985 546.477 262.985 549.421V550.125H273.417C275.017 550.125 275.913 551.021 275.913 552.621C275.913 554.221 275.017 555.117 273.417 555.117H262.985V556.781H271.689C273.225 556.781 274.121 557.677 274.121 559.213C274.121 560.749 273.225 561.645 271.689 561.645H262.985V563.437H276.169C277.769 563.437 278.665 564.333 278.665 565.933C278.665 567.533 277.769 568.429 276.169 568.429ZM276.425 597.229C279.049 598.189 279.753 600.365 278.537 602.989C277.449 605.421 275.017 605.997 272.905 604.653C269.449 602.669 265.865 600.749 261.449 598.893C260.041 598.253 259.593 596.973 259.977 595.821C260.169 595.309 260.361 594.989 260.681 594.733H255.113L255.305 594.925C257.225 596.973 256.585 599.405 254.281 600.749C250.057 603.117 245.577 604.589 241.417 605.293C239.945 605.549 239.049 604.909 238.601 603.693C238.153 602.541 238.537 601.389 239.945 600.749C243.145 599.277 245.833 597.613 249.225 594.733H245.385C242.697 594.733 241.225 593.261 241.225 590.573V574.701C241.225 572.013 242.697 570.541 245.385 570.541H270.409C273.097 570.541 274.569 572.013 274.569 574.701V590.573C274.569 593.261 273.097 594.733 270.409 594.733H266.121C269.513 595.245 273.225 596.077 276.425 597.229ZM250.569 576.429V577.261H265.225V576.429C265.225 575.981 264.905 575.661 264.457 575.661H251.337C250.889 575.661 250.569 575.981 250.569 576.429ZM250.569 581.741V583.405H265.225V581.741H250.569ZM250.569 587.885V588.845C250.569 589.293 250.889 589.613 251.337 589.613H264.457C264.905 589.613 265.225 589.293 265.225 588.845V587.885H250.569Z" fill="#594A39"/>
<path d="M348.105 580.909C351.625 582.253 353.225 584.237 352.137 587.437C350.857 591.085 347.785 592.045 344.713 590.189C343.177 589.229 341.641 588.141 340.233 586.925C339.785 591.981 339.337 596.013 338.825 598.893C337.609 605.677 331.273 607.213 320.073 602.477C318.857 601.965 318.473 601.069 318.793 599.789C319.113 598.509 320.137 597.869 321.673 598.061C328.841 598.829 329.545 598.189 330.057 594.861C330.377 592.749 330.761 589.165 331.017 584.877C331.017 584.365 330.825 584.045 330.313 584.045H324.809C321.801 595.501 312.457 602.797 299.081 605.485C297.481 605.805 296.457 605.165 296.009 603.821C295.561 602.477 296.201 601.517 297.801 600.877C307.593 597.037 313.417 591.725 315.209 584.045H311.753C310.729 584.045 309.961 583.725 309.513 583.149C305.865 586.157 301.769 588.525 297.417 590.125C295.881 590.701 294.793 590.125 294.217 588.845C293.641 587.629 293.961 586.349 295.369 585.453C300.681 582.253 305.033 578.413 308.425 573.613H298.121C296.329 573.613 295.369 572.653 295.369 570.861C295.369 569.069 296.329 568.109 298.121 568.109H311.753C312.265 567.021 312.777 565.869 313.289 564.653H302.025C300.297 564.653 299.337 563.693 299.337 561.965C299.337 560.237 300.297 559.277 302.025 559.277H307.913C307.145 558.893 306.569 558.253 306.249 557.357C305.225 554.605 304.265 552.237 303.113 549.805C302.409 548.333 302.729 547.309 303.881 546.477C305.033 545.645 306.313 545.901 307.401 546.797C309.321 548.205 311.561 550.573 313.289 553.133C314.889 555.501 314.441 557.549 311.817 559.085L311.433 559.277H315.081C315.977 556.141 316.617 552.685 317.065 548.973C317.449 546.029 319.241 544.621 322.953 544.813C326.217 545.005 327.689 547.117 327.241 550.061C326.729 553.261 326.025 556.397 325.129 559.277H329.865C329.289 558.509 329.289 557.613 329.865 556.525C331.081 554.285 332.233 551.661 333.193 549.101C334.409 545.901 336.649 545.133 339.529 546.477C342.345 547.821 342.601 550.637 340.681 553.133C338.505 555.949 336.521 557.997 334.665 559.277H343.689C345.417 559.277 346.377 560.237 346.377 561.965C346.377 563.693 345.417 564.653 343.689 564.653H323.145C322.633 565.869 322.121 567.021 321.545 568.109H347.977C349.769 568.109 350.729 569.069 350.729 570.861C350.729 572.653 349.769 573.613 347.977 573.613H335.433C338.825 576.557 343.049 578.989 348.105 580.909ZM314.377 578.541H332.553C331.465 576.941 330.505 575.277 329.737 573.613H318.281C317.065 575.341 315.721 577.005 314.377 578.541Z" fill="#594A39"/>
<path d="M421.577 596.013C424.649 597.485 425.609 599.917 424.137 602.797C422.537 605.869 419.657 606.253 416.841 604.333C412.297 601.133 406.473 597.805 401.481 595.245C399.945 594.477 399.561 592.813 400.201 591.341C400.457 590.765 400.777 590.381 401.161 590.125H390.025C390.601 590.445 391.113 590.893 391.561 591.533C393.161 593.773 392.841 596.525 390.537 597.933C384.265 601.837 376.841 604.333 370.121 605.485C368.137 605.805 367.305 604.973 367.049 603.693C366.793 602.413 367.241 601.261 368.905 600.621C374.089 598.637 379.657 595.181 384.841 590.573C385.033 590.381 385.225 590.253 385.481 590.125H369.865C368.073 590.125 367.113 589.101 367.113 587.181C367.113 585.261 368.073 584.237 369.865 584.237H372.105C371.913 575.405 371.593 563.693 371.017 554.285C370.825 551.277 372.361 549.741 375.241 549.613C376.265 549.549 377.097 549.677 377.737 549.997C379.081 549.037 380.297 547.949 381.513 546.797C383.433 544.877 385.993 545.069 387.465 547.053C389.193 549.357 388.489 551.597 385.929 552.877C384.009 553.837 381.961 554.477 379.913 554.925L380.105 560.109H383.561C385.289 560.109 386.313 561.133 386.313 562.861C386.313 564.589 385.289 565.613 383.561 565.613H380.361C380.425 567.277 380.425 569.005 380.489 570.733H383.497C385.225 570.733 386.249 571.757 386.249 573.485C386.249 575.213 385.225 576.237 383.497 576.237H380.681L380.873 584.237H386.057C386.633 580.333 387.017 576.621 387.337 572.717C387.529 570.413 389.065 569.453 391.369 569.645C393.801 569.837 394.825 570.989 394.633 573.229C394.313 577.069 393.865 580.781 393.353 584.237H395.977C396.617 578.733 397.065 573.869 397.257 568.621C397.257 568.109 397.001 567.853 396.425 567.853H391.497C388.681 567.853 387.401 566.189 387.721 563.309C388.425 557.485 389.001 551.917 389.321 548.653C389.577 545.837 391.241 544.749 393.865 544.941C396.489 545.133 397.577 546.349 397.321 548.845L396.937 552.877H402.761C404.489 552.877 405.449 553.837 405.449 555.501C405.449 557.165 404.489 558.125 402.761 558.125H396.361L395.977 561.645C395.913 562.157 396.169 562.477 396.681 562.477H401.353C404.105 562.477 405.449 564.013 405.321 566.829C405.065 573.229 404.553 578.413 403.849 584.237H410.697C410.953 581.741 411.145 579.245 411.337 576.749H408.585C406.857 576.749 405.833 575.725 405.833 573.997C405.833 572.269 406.857 571.245 408.585 571.245H411.721L412.105 565.677H408.457C406.729 565.677 405.705 564.653 405.705 562.925C405.705 561.197 406.729 560.173 408.457 560.173H412.425C412.489 558.317 412.617 556.461 412.681 554.605C412.681 554.093 412.489 553.837 411.977 553.837H407.881C406.217 553.837 405.065 552.749 405.065 551.085C405.065 549.421 406.217 548.333 407.881 548.333H417.225C419.977 548.333 421.385 549.869 421.257 552.621C420.809 563.181 420.169 573.677 419.337 584.237H422.025C423.817 584.237 424.777 585.261 424.777 587.181C424.777 589.101 423.817 590.125 422.025 590.125H404.489C409.865 591.405 416.265 593.453 421.577 596.013Z" fill="#594A39"/>
<path d="M130.825 684.093C133.705 685.949 134.729 689.085 132.745 692.157C130.633 695.485 127.433 695.613 124.489 693.629C116.809 688.381 109.001 675.261 106.505 662.781C105.481 666.877 104.009 670.717 102.217 674.237C105.289 676.669 108.809 680.061 111.881 684.029C113.801 686.525 113.353 689.341 110.601 691.069C107.849 692.797 105.033 692.221 103.817 689.149C102.409 685.629 100.681 682.109 99.1448 679.293C94.2808 686.269 87.5608 691.645 78.8568 695.037C77.3208 695.613 76.2328 695.229 75.5928 693.885C74.9528 692.605 75.3368 691.325 76.6168 690.493C88.5848 682.621 95.4328 671.229 97.3528 658.429H79.8808C77.9608 658.429 76.8728 657.213 76.8728 655.101C76.8728 652.989 77.9608 651.773 79.8808 651.773H97.9288C98.1848 646.525 98.2488 643.197 98.2488 640.061C98.3128 636.669 100.297 635.133 103.625 635.133C106.953 635.133 108.745 636.669 108.809 640.061C108.873 643.901 108.745 647.677 108.361 651.773H128.905C130.825 651.773 131.913 652.989 131.913 655.101C131.913 657.213 130.825 658.429 128.905 658.429H110.473C113.865 668.861 120.841 677.757 130.825 684.093Z" fill="#594A39"/>
<path d="M203.209 665.917H183.305C182.985 666.685 182.601 667.453 182.153 668.157H200.393C203.081 668.157 204.553 669.693 204.489 672.445C204.361 677.885 203.849 685.117 203.273 689.021C202.313 695.741 195.465 697.021 187.465 693.117C185.865 692.349 185.417 691.261 185.993 689.725C186.505 688.445 187.273 688.061 188.873 688.317C193.993 689.149 194.697 688.637 194.953 686.781C195.401 683.581 195.785 678.141 195.977 674.365C195.977 673.981 195.785 673.725 195.465 673.661C192.457 683.837 184.969 690.877 174.601 694.525C172.937 695.101 171.721 694.589 171.209 693.373C170.633 692.029 170.825 690.749 172.489 689.917C179.529 686.269 185.289 681.149 187.849 673.597H186.697C183.689 680.125 177.033 685.757 171.145 687.997C169.545 688.637 168.457 688.317 167.817 686.909C167.305 685.693 167.433 684.605 169.033 683.709C173.193 681.341 176.841 677.949 179.209 673.597H178.057C175.945 675.773 173.513 677.501 170.889 678.781L170.505 678.973C168.393 682.877 163.273 683.581 159.177 681.725V691.517C159.177 693.885 157.641 695.293 154.761 695.293C151.881 695.293 150.345 693.885 150.345 691.517V640.253C150.345 637.821 151.881 636.477 154.761 636.477C156.745 636.477 158.089 637.117 158.729 638.333H163.273C164.553 636.861 166.921 636.413 169.097 637.245C171.337 638.077 172.617 640.189 171.529 643.709C169.993 648.765 167.113 654.269 164.745 657.597C164.425 658.045 164.489 658.301 164.873 658.685C168.649 662.461 170.761 667.325 171.337 672.317C173.001 670.397 174.217 668.157 175.113 665.917H172.105C170.377 665.917 169.417 664.957 169.417 663.229C169.417 661.501 170.377 660.541 172.105 660.541H203.209C204.937 660.541 205.897 661.501 205.897 663.229C205.897 664.957 204.937 665.917 203.209 665.917ZM177.737 658.365C175.049 658.365 173.577 656.893 173.577 654.205V641.405C173.577 638.717 175.049 637.245 177.737 637.245H197.001C199.689 637.245 201.161 638.717 201.161 641.405V654.205C201.161 656.893 199.689 658.365 197.001 658.365H177.737ZM183.305 642.493C182.857 642.493 182.537 642.813 182.537 643.261V645.309H192.201V643.261C192.201 642.813 191.881 642.493 191.433 642.493H183.305ZM159.753 676.797C162.825 677.117 163.977 676.861 163.977 673.405C163.977 669.949 163.145 665.533 161.033 660.989C160.073 658.941 159.881 657.789 160.457 655.869C161.737 651.517 162.761 647.869 163.209 644.413C163.273 643.901 162.953 643.581 162.441 643.581H159.177V676.733C159.369 676.733 159.561 676.797 159.753 676.797ZM191.433 653.117C191.881 653.117 192.201 652.797 192.201 652.349V650.301H182.537V652.349C182.537 652.797 182.857 653.117 183.305 653.117H191.433Z" fill="#594A39"/>
<path d="M244.489 643.709C246.921 645.949 249.097 648.893 250.633 651.837C252.041 654.461 251.401 656.573 248.841 657.725C246.345 658.877 244.617 657.981 243.529 654.973L243.145 653.821C238.473 655.869 232.265 657.469 226.441 658.173C223.497 658.557 221.705 657.213 221.513 654.397C221.321 651.709 222.601 650.045 225.865 650.045H226.185C227.529 646.589 228.681 642.749 229.641 639.101C230.601 635.517 232.649 634.557 235.913 635.389C238.985 636.157 239.817 638.461 238.409 641.469C237.065 644.413 235.209 647.293 233.161 649.853C235.977 649.661 238.793 649.469 241.481 649.085C241.161 648.125 240.777 647.165 240.393 646.205C239.817 644.797 240.137 643.773 241.289 643.133C242.441 642.493 243.401 642.749 244.489 643.709ZM260.873 663.485C253.961 663.101 252.169 662.077 252.169 654.845V639.357C252.169 636.797 253.769 635.453 256.713 635.453C259.657 635.453 261.257 636.797 261.257 639.357V644.477C263.561 643.005 265.737 641.405 267.785 639.613C270.153 637.501 272.649 637.501 274.377 639.677C276.233 641.981 275.849 644.285 272.841 646.077C269.769 647.933 265.545 649.405 261.257 650.365V652.541C261.257 654.653 261.769 655.165 263.753 655.293C265.737 655.421 268.297 655.421 270.281 655.293C272.265 655.165 272.841 654.397 272.841 650.813C272.841 649.277 273.673 648.573 274.825 648.573C276.041 648.573 276.873 649.085 277.193 650.685C278.793 658.685 277.769 663.165 271.817 663.485C268.361 663.677 264.521 663.677 260.873 663.485ZM245.065 659.325C247.753 659.325 249.225 660.797 249.225 663.485V687.741C249.225 694.013 243.849 695.997 236.745 693.565C235.081 692.989 234.377 691.901 234.697 690.557C235.017 689.277 235.849 688.765 237.321 688.893C239.945 689.085 240.265 688.573 240.265 686.333V681.789H233.225V691.005C233.225 693.565 231.625 694.909 228.681 694.909C225.737 694.909 224.137 693.565 224.137 691.005V663.485C224.137 660.797 225.609 659.325 228.297 659.325H245.065ZM233.993 664.445C233.545 664.445 233.225 664.765 233.225 665.213V668.221H240.265V665.213C240.265 664.765 239.945 664.445 239.497 664.445H233.993ZM278.473 680.189C280.329 689.085 279.049 693.821 272.969 694.141C269.513 694.333 264.841 694.333 261.193 694.141C254.281 693.757 252.169 692.733 252.169 685.501V669.117C252.169 666.557 253.769 665.213 256.713 665.213C259.657 665.213 261.257 666.557 261.257 669.117V673.277C263.625 671.805 265.993 669.949 268.425 667.773C270.729 665.725 273.097 665.661 274.889 667.837C276.745 670.077 276.681 672.445 273.673 674.301C270.089 676.477 265.673 678.205 261.257 679.229V682.749C261.257 684.861 261.769 685.373 263.753 685.501C265.737 685.629 269.385 685.629 271.369 685.501C273.417 685.373 273.865 684.477 273.865 680.125C273.865 678.525 274.697 677.821 275.977 677.821C277.257 677.821 278.153 678.525 278.473 680.189ZM233.225 676.925H240.265V673.085H233.225V676.925Z" fill="#594A39"/>
<path d="M348.233 675.837C351.369 676.989 352.521 679.293 351.305 682.109C350.025 685.053 347.721 685.501 344.713 684.285C342.409 683.453 340.233 682.173 338.185 680.573C337.929 681.917 336.969 682.621 335.497 682.621H328.201V687.485H346.569C348.233 687.485 349.193 688.509 349.193 690.237C349.193 691.965 348.233 692.989 346.569 692.989H299.721C298.057 692.989 297.097 691.965 297.097 690.237C297.097 688.509 298.057 687.485 299.721 687.485H317.833V682.621H310.473C308.809 682.621 307.849 681.597 307.849 679.933C304.457 682.237 300.681 684.093 297.033 685.053C295.561 685.437 294.537 684.989 294.025 683.773C293.513 682.493 293.961 681.469 295.305 680.765C300.681 677.757 304.969 673.917 307.913 668.989H298.313C296.585 668.989 295.689 668.093 295.689 666.301C295.689 664.509 296.585 663.613 298.313 663.613H307.017V646.269H300.745C299.081 646.269 298.185 645.245 298.185 643.581C298.185 641.917 299.081 640.893 300.745 640.893H307.017V638.781C307.017 636.029 308.681 634.749 311.689 634.749C314.697 634.749 316.361 636.029 316.361 638.781V640.893H329.225V638.717C329.225 635.965 330.889 634.621 333.897 634.621C336.905 634.621 338.569 635.965 338.569 638.717V640.893H345.097C346.761 640.893 347.657 641.917 347.657 643.581C347.657 645.245 346.761 646.269 345.097 646.269H338.569V663.613H347.721C349.449 663.613 350.345 664.573 350.345 666.301C350.345 668.093 349.449 668.989 347.721 668.989H334.857C338.505 671.805 342.793 674.045 348.233 675.837ZM316.361 646.269V648.829H329.225V646.269H316.361ZM316.361 653.693V656.125H329.225V653.693H316.361ZM316.361 660.989V663.613H329.225V660.989H316.361ZM323.017 670.333C326.345 670.333 328.201 671.741 328.201 674.877V677.117H334.345C331.977 674.621 329.993 671.805 328.521 668.989H318.345C316.681 671.869 314.249 674.685 311.433 677.117H317.833V674.877C317.833 671.741 319.689 670.333 323.017 670.333Z" fill="#594A39"/>
<path d="M408.201 660.221H401.289V666.109H417.609C419.465 666.109 420.489 667.133 420.489 669.053C420.489 670.973 419.465 671.869 417.609 671.869H401.289V687.869H420.681C422.473 687.869 423.497 688.893 423.497 690.685C423.497 692.477 422.473 693.629 420.681 693.629H371.209C369.417 693.629 368.393 692.477 368.393 690.685C368.393 688.893 369.417 687.869 371.209 687.869H390.665V671.869H374.409C372.553 671.869 371.529 670.909 371.529 668.989C371.529 667.069 372.553 666.109 374.409 666.109H390.665V660.221H383.817C382.793 660.221 381.961 659.773 381.513 659.005C377.609 661.053 373.641 662.653 370.057 663.741C368.457 664.189 367.305 663.421 366.793 662.013C366.345 660.797 366.665 659.645 368.073 658.877C377.161 653.693 385.353 647.101 391.433 636.861C392.969 634.301 395.657 633.661 398.601 635.261C400.905 636.477 401.993 638.717 400.841 641.405C406.409 645.821 412.617 649.277 421.129 652.221C424.521 653.373 425.737 656.125 424.521 659.325C423.305 662.589 420.297 663.613 417.097 662.141C414.985 661.181 412.809 659.965 410.761 658.557C410.377 659.581 409.417 660.221 408.201 660.221ZM397.769 646.077C395.145 649.341 391.881 652.221 388.425 654.717H405.769C402.697 652.093 399.945 649.085 397.769 646.077ZM408.457 674.877C409.481 672.253 412.105 671.613 414.537 672.893C417.033 674.173 417.929 676.669 416.713 678.589C414.281 682.429 412.041 684.605 409.353 686.845C408.201 687.805 406.345 687.805 405.193 686.717C404.169 685.757 403.849 684.669 404.617 683.261C405.897 680.829 407.177 678.077 408.457 674.877ZM385.673 686.717C382.921 688.317 380.297 687.549 379.209 684.733C378.121 681.853 376.905 679.037 375.625 676.413C374.857 674.877 375.177 673.725 376.393 672.829C377.609 671.933 379.081 671.869 380.297 672.957C382.729 675.069 385.417 677.885 387.017 680.253C388.873 683.005 388.169 685.245 385.673 686.717Z" fill="#594A39"/>
<g clip-path="url(#clip0_1327_12885)">
<path d="M28.1177 136.107C49.6586 96.9576 79.4648 63.3769 115.3 37.886C148.035 14.302 186.705 1.17139 226.545 0.111091C266.385 -0.949178 305.654 10.1084 339.511 31.9202C386.434 60.3346 442.487 100.305 467.318 151.072C503.834 226.844 514.607 283.67 473.435 356.222C439.109 416.839 369.089 476.795 314.588 490.15C260.088 503.505 199.562 508.144 141.136 472.437C68.7422 428.395 16.5241 356.697 3.37822 279.599C-5.37955 230.238 3.40988 179.257 28.1177 136.107Z" fill="#F8F9E9"/>
</g>
<g clip-path="url(#clip1_1327_12885)">
<path d="M40.7818 275.731C40.7818 275.731 46.9707 190.519 70.0977 149.802C70.0977 149.802 367.818 140.29 432.573 142.896C432.573 142.896 413.029 339.379 432.573 409.021C432.573 409.021 166.645 422.049 54.2019 401.593C54.2019 401.593 36.1564 366.089 40.7818 275.731Z" fill="#EEE9DD"/>
<path d="M92.7687 332.604C92.7687 332.604 93.0947 392.992 71.4661 439.507L106.385 429.216L139.609 456.185C146.66 413.766 148.454 370.639 144.951 327.781" fill="#6CAE6E"/>
<path d="M124.625 341.528C158.518 341.528 185.993 314.052 185.993 280.16C185.993 246.267 158.518 218.792 124.625 218.792C90.7327 218.792 63.2573 246.267 63.2573 280.16C63.2573 314.052 90.7327 341.528 124.625 341.528Z" fill="#BAC51A"/>
<path d="M124.625 320.746C147.041 320.746 165.212 302.575 165.212 280.16C165.212 257.744 147.041 239.573 124.625 239.573C102.21 239.573 84.0391 257.744 84.0391 280.16C84.0391 302.575 102.21 320.746 124.625 320.746Z" fill="#EFF2D2"/>
<path opacity="0.63" d="M117.133 359.248C117.46 363.946 117.264 368.667 116.547 373.321C115.026 384.727 111.45 395.763 105.994 405.894C104.56 408.565 111.27 407.783 112.508 405.894C118.175 395.421 121.904 384.012 123.518 372.214C124.289 367.259 124.507 362.232 124.169 357.228C124.169 355.209 117.134 356.579 117.329 359.054L117.133 359.248Z" fill="#FFFEFD"/>
<path d="M211.531 295.99C258.603 292.407 305.893 292.8 352.899 297.163H353.941C355.7 297.293 357.464 297.02 359.101 296.365C360.738 295.71 362.204 294.691 363.388 293.384C363.746 292.931 363.977 292.389 364.057 291.816C364.137 291.244 364.063 290.662 363.843 290.127C363.192 288.759 361.303 288.433 359.739 288.237C311.496 283.794 262.964 283.424 214.658 287.13C214.658 287.13 205.863 287.846 205.277 292.08C205.167 292.55 205.175 293.039 205.3 293.505C205.425 293.971 205.663 294.4 205.993 294.752C207.361 296.25 210.163 296.055 211.531 295.99Z" fill="#8C8468"/>
<path d="M363.974 322.31C363.257 320.942 361.433 320.614 359.87 320.484C311.626 316.051 263.097 315.661 214.788 319.313C214.788 319.313 205.928 320.094 205.407 324.263C205.292 324.732 205.297 325.224 205.422 325.691C205.547 326.158 205.789 326.586 206.124 326.935C207.492 328.433 210.293 328.174 211.661 328.109C258.734 324.515 306.027 324.929 353.029 329.346H354.071C355.836 329.478 357.607 329.199 359.246 328.532C360.885 327.865 362.347 326.826 363.518 325.5C363.864 325.054 364.089 324.527 364.169 323.967C364.249 323.407 364.181 322.836 363.974 322.31Z" fill="#8C8468"/>
<path d="M282.867 346.741C261.093 346.561 239.332 347.801 217.72 350.453L214.919 350.781C213.42 350.781 206.059 351.888 205.538 355.667C205.439 356.137 205.453 356.621 205.577 357.085C205.702 357.549 205.933 357.978 206.254 358.335C206.812 358.799 207.456 359.147 208.15 359.36C208.843 359.572 209.572 359.644 210.294 359.573H211.792L234.137 357.88C243.062 357.164 243.062 357.163 249.902 356.837C254.332 356.837 261.759 356.383 276.417 355.667C278.958 355.667 284.821 355.274 286.841 351.951C287.211 351.452 287.442 350.864 287.511 350.246C287.579 349.628 287.483 349.002 287.232 348.433C286.708 347.803 286.032 347.317 285.269 347.021C284.505 346.724 283.678 346.629 282.867 346.741Z" fill="#8C8468"/>
<path d="M364.69 267.716C417.328 267.716 460 225.045 460 172.407C460 119.769 417.328 77.0974 364.69 77.0974C312.052 77.0974 269.381 119.769 269.381 172.407C269.381 225.045 312.052 267.716 364.69 267.716Z" fill="#EFD64C"/>
<path d="M266.71 218.531C266.255 217.023 265.236 215.748 263.865 214.972C262.494 214.195 260.876 213.975 259.348 214.361C252.805 215.839 246.523 218.3 240.717 221.658L232.508 226.153L228.078 228.37L225.928 229.347L224.56 229.868C223.103 230.398 221.882 231.43 221.118 232.779C220.354 234.128 220.096 235.707 220.391 237.229C220.832 238.747 221.848 240.032 223.223 240.811C224.599 241.59 226.224 241.802 227.753 241.399C234.003 238.833 240.075 235.85 245.928 232.474C248.664 230.975 251.401 229.608 254.202 228.37L255.309 227.979L257.785 227.133C259.335 226.612 260.926 226.219 262.541 225.959C264.063 225.504 265.35 224.476 266.128 223.09C266.906 221.704 267.115 220.068 266.71 218.531Z" fill="white"/>
<path d="M244.039 168.239H217.524C216.689 168.152 215.845 168.241 215.046 168.5C214.248 168.76 213.513 169.185 212.889 169.747C212.265 170.309 211.766 170.994 211.425 171.761C211.083 172.528 210.907 173.361 210.907 174.201C210.907 175.04 211.083 175.87 211.425 176.637C211.766 177.404 212.265 178.092 212.889 178.654C213.513 179.216 214.248 179.638 215.046 179.898C215.845 180.157 216.689 180.246 217.524 180.159H244.039C245.611 180.159 247.119 179.537 248.231 178.425C249.343 177.313 249.967 175.805 249.967 174.232C249.951 172.659 249.323 171.152 248.217 170.034C247.11 168.915 245.612 168.273 244.039 168.239Z" fill="white"/>
<path d="M302.28 73.1241L289.251 50.0619C288.46 48.6936 287.16 47.6934 285.635 47.2786C284.11 46.8637 282.483 47.0688 281.108 47.8479C279.752 48.6509 278.763 49.9477 278.349 51.4679C277.936 52.9882 278.131 54.6123 278.893 55.9913L291.922 78.9866C292.714 80.3533 294.009 81.3568 295.53 81.7827C297.051 82.2086 298.679 82.0239 300.065 81.2674C301.408 80.4531 302.387 79.1535 302.799 77.6379C303.212 76.1223 303.026 74.5065 302.28 73.1241Z" fill="#F5E090"/>
<path d="M267.036 103.482C255.732 97.408 243.656 92.8931 231.14 90.0613C230.367 89.7954 229.547 89.6899 228.732 89.7527C227.916 89.8155 227.122 90.0428 226.398 90.4239C225.675 90.8051 225.037 91.3329 224.524 91.9699C224.011 92.6068 223.634 93.3415 223.415 94.1298C223.197 94.918 223.143 95.7404 223.255 96.5505C223.368 97.3606 223.645 98.1418 224.069 98.8408C224.494 99.5398 225.057 100.143 225.724 100.616C226.391 101.089 227.148 101.423 227.948 101.592C233.855 102.889 239.666 104.585 245.342 106.672C250.708 108.683 255.932 111.054 260.977 113.772C261.654 114.252 262.423 114.588 263.236 114.755C264.049 114.923 264.888 114.92 265.699 114.746C266.511 114.572 267.277 114.232 267.95 113.747C268.623 113.261 269.188 112.639 269.609 111.924C270.03 111.209 270.298 110.413 270.396 109.589C270.494 108.765 270.419 107.931 270.177 107.137C269.936 106.343 269.531 105.61 268.991 104.98C268.45 104.351 267.784 103.841 267.036 103.482Z" fill="#F5E090"/>
<path d="M408.404 172.537C397.394 157.032 371.466 155.664 361.824 173.189C361.503 173.736 361.293 174.342 361.206 174.97C361.12 175.599 361.157 176.239 361.318 176.853C361.478 177.467 361.758 178.043 362.141 178.549C362.524 179.055 363.003 179.481 363.55 179.802C364.098 180.123 364.703 180.332 365.332 180.419C365.961 180.506 366.6 180.468 367.214 180.308C367.828 180.148 368.405 179.867 368.911 179.484C369.417 179.101 369.842 178.622 370.163 178.075C376.287 166.935 391.726 168.236 399.544 176.901C401.629 179.181 402.801 181.659 400.847 184.395C398.896 186.777 396.714 188.959 394.332 190.91C389.254 195.782 383.712 200.146 377.785 203.939C372.606 207.648 366.369 209.588 360 209.474C353.912 208.896 348.11 206.617 343.257 202.896C338.016 199.264 333.996 194.133 331.726 188.174C330.755 181.5 331.823 174.688 334.788 168.63C338.958 157.099 347.101 139.184 362.541 142.181C368.599 143.418 371.205 134.101 365.081 132.863C346.319 129.15 333.811 144.982 327.557 160.487C323.326 168.895 321.329 178.25 321.759 187.653C323.487 196.289 328.363 203.974 335.44 209.217C341.737 214.931 349.576 218.669 357.98 219.965C366.693 220.682 375.387 218.382 382.606 213.451C390.678 208.231 398.131 202.11 404.821 195.208C410.879 188.041 414.006 180.55 408.404 172.537Z" fill="#FDF4DC"/>
<path d="M412.566 350.608C411.172 348.735 408.139 349.223 406.336 349.956C397.909 353.903 390.029 358.913 382.89 364.86C381.251 366.163 379.529 367.384 377.726 368.606L374.529 370.642L373.381 371.373C373.381 366.406 373.955 361.276 374.283 356.39C374.283 353.051 369.774 352.888 367.643 354.028C361.825 357.574 356.574 361.967 352.067 367.059C350.838 368.199 349.69 369.341 348.378 370.399L347.559 371.047C347.559 369.581 347.559 367.546 347.559 366.975C347.559 364.777 347.559 362.581 347.559 360.382C347.559 356.88 343.132 357.124 340.837 358.02C334.45 360.912 328.447 364.577 322.966 368.932C319.277 371.782 315.506 375.12 311.489 377.808C311.489 376.504 312.227 375.202 312.309 374.551C312.965 371.945 313.702 369.421 314.604 366.896C316.43 361.954 318.853 357.249 321.818 352.887C323.048 350.932 320.671 349.305 318.949 349.061C317.8 348.895 316.627 349.07 315.577 349.562C314.527 350.055 313.647 350.842 313.047 351.829C308.813 358.199 305.656 365.216 303.701 372.598C302.389 377.566 299.029 388.397 308.128 386.85C311.469 385.905 314.57 384.265 317.227 382.043C320.26 379.925 323.13 377.728 325.999 375.529C329.807 372.598 333.775 369.88 337.886 367.385C337.529 370.353 337.866 373.363 338.869 376.181C339.415 377.066 340.139 377.828 340.997 378.42C341.855 379.012 342.827 379.418 343.852 379.617C344.877 379.816 345.933 379.8 346.952 379.573C347.971 379.346 348.931 378.912 349.772 378.297C355.348 374.622 360.395 370.212 364.774 365.186V368.848C364.164 371.35 364.395 373.984 365.429 376.344C368.709 380.986 375.758 378.299 379.529 376.344C390.268 369.992 399.203 360.706 410.844 355.901C412.156 354.679 413.795 352.318 412.566 350.608Z" fill="#067455"/>
</g>
<defs>
<clipPath id="clip0_1327_12885">
<rect width="500" height="500" fill="white" transform="translate(500 500) rotate(-180)"/>
</clipPath>
<clipPath id="clip1_1327_12885">
<rect width="420" height="409.186" fill="white" transform="translate(40 46.9998)"/>
</clipPath>
</defs>
</svg>
