<svg width="500" height="847" viewBox="0 0 500 847" fill="none" xmlns="http://www.w3.org/2000/svg">
<rect x="120" y="760" width="260" height="87" rx="43.5" fill="#7DBD36"/>
<path d="M222.122 819.023C219.98 819.023 218.762 817.763 218.762 815.579V802.937C218.762 801.467 219.266 798.065 219.476 796.679L219.182 796.637C217.586 802.685 215.108 808.439 212.756 813.563C211.874 815.537 210.95 816.419 209.06 816.419C207.254 816.419 205.994 815.495 205.154 813.563C202.886 808.481 200.324 802.559 198.476 796.553H198.182C198.392 797.897 198.728 801.173 198.728 802.811V815.579C198.728 817.805 197.552 819.023 195.41 819.023C193.394 819.023 192.176 817.763 192.176 815.579V792.017C192.176 788.741 193.898 786.977 196.838 786.977C199.358 786.977 200.492 788.111 201.794 791.261C204.062 796.721 207.464 805.163 209.018 809.153H209.102L215.654 791.135C216.788 788.069 218.174 786.893 221.156 786.935C224.054 786.977 225.482 788.573 225.482 791.849V815.579C225.482 817.805 224.222 819.023 222.122 819.023Z" fill="white"/>
<path d="M246.146 819.065C238.712 819.065 234.806 814.613 234.806 807.095C234.806 800.291 239.51 795.923 246.44 795.923C253.286 795.923 257.654 800.249 257.696 807.095C257.738 814.781 253.286 819.065 246.146 819.065ZM246.23 814.403C249.128 814.319 250.388 812.219 250.388 807.221C250.388 802.685 249.17 800.501 246.23 800.543C243.374 800.585 242.072 802.727 242.114 807.221C242.156 811.967 243.206 814.487 246.23 814.403Z" fill="white"/>
<path d="M281.01 798.443C281.22 800.753 279.75 801.467 277.692 801.719C275.466 802.013 273.366 804.197 272.736 806.969V815.663C272.736 818.015 271.308 819.023 268.998 819.023C266.688 819.023 265.596 817.973 265.596 815.663V798.821C265.596 796.805 266.94 795.923 268.998 795.923C270.93 795.923 272.19 796.931 272.19 798.989V800.963C273.072 797.477 275.046 796.049 277.524 795.965C279.414 795.923 280.842 796.553 281.01 798.443Z" fill="white"/>
<path d="M303.456 812.891C304.59 812.051 305.808 812.135 306.606 813.059C307.404 813.941 307.446 815.159 306.564 816.125C305.22 817.637 301.944 819.023 297.786 819.023C291.192 819.023 286.11 815.705 286.11 807.977C286.11 800.543 290.478 795.881 297.492 795.881C304.38 795.881 307.824 801.005 307.824 805.961C307.824 808.355 306.606 809.615 304.044 809.615H293.376C293.796 813.101 295.35 814.403 298.332 814.487C300.39 814.529 302.07 813.941 303.456 812.891ZM297.576 800.291C294.93 800.291 293.754 802.097 293.376 804.995H301.02C301.272 804.995 301.398 804.869 301.398 804.617C301.398 801.719 299.928 800.291 297.576 800.291Z" fill="white"/>
<rect width="500" height="160" transform="translate(-0.000244141 540)" fill="#FDFDFB"/>
<path d="M9.36256 567.152C9.12256 567.152 8.93056 567.296 8.93056 567.584V575.984H18.4346C20.1146 575.984 21.0266 576.944 21.0266 578.72C21.0266 580.496 20.1146 581.456 18.4346 581.456H8.93056V593.456C8.93056 596.192 7.39456 597.632 4.80256 597.632C2.16256 597.632 0.674561 596.192 0.674561 593.456V565.664C0.674561 563.12 2.06656 561.68 4.56256 561.68H19.9226C21.6026 561.68 22.5146 562.64 22.5146 564.416C22.5146 566.192 21.6026 567.152 19.9226 567.152H9.36256Z" fill="#594A39"/>
<path d="M30.1897 568.304C27.5497 568.304 25.3417 566.288 25.3417 563.696C25.3417 561.008 27.5017 559.04 30.1897 559.04C32.9257 559.04 34.8457 560.96 34.8457 563.696C34.8457 566.336 32.8777 568.304 30.1897 568.304ZM30.0937 597.632C27.4057 597.632 26.0137 596.24 26.0137 593.648V575.696C26.0137 573.104 27.4057 571.712 30.0937 571.712C32.7817 571.712 34.1737 573.104 34.1737 575.696V593.648C34.1737 596.24 32.7817 597.632 30.0937 597.632Z" fill="#594A39"/>
<path d="M56.0654 571.232C61.7774 571.232 65.3294 574.88 65.3294 580.784V593.648C65.3294 596.24 63.8894 597.632 61.2494 597.632C58.6094 597.632 57.1694 596.24 57.1694 593.648V581.408C57.1694 578.384 55.9214 576.56 53.7134 576.56C51.6014 576.56 49.6814 578.48 49.0574 581.168V593.648C49.0574 596.24 47.6174 597.632 44.9774 597.632C42.3374 597.632 40.8974 596.24 40.8974 593.648V574.976C40.8974 572.576 42.2414 571.28 44.6414 571.28C47.0894 571.28 48.4334 572.48 48.4334 574.928V575.696C49.8734 572.768 52.8494 571.232 56.0654 571.232Z" fill="#594A39"/>
<path d="M90.9937 574.4C92.4337 575.936 93.1537 578.096 93.1537 580.88V593.648C93.1537 596.24 92.1457 597.632 89.6497 597.632C87.1057 597.632 85.9537 596.24 85.9537 593.648V593.504C84.3697 596.288 81.3937 597.632 77.6017 597.632C72.5137 597.632 69.3937 594.656 69.3937 589.904C69.3937 584.192 74.7217 580.64 82.7857 580.64C83.7457 580.64 84.7537 580.688 85.3777 580.784V580.352C85.3777 577.952 84.0337 576.512 81.4897 576.416C79.4257 576.32 77.2177 577.232 75.3937 579.2C74.2417 580.448 72.5617 580.64 71.3617 579.584C70.1137 578.576 69.9697 576.992 71.0737 575.6C72.8017 573.488 76.5937 571.232 81.6337 571.232C86.0977 571.232 88.9297 572.24 90.9937 574.4ZM85.4737 588.128V585.68C84.8497 585.584 83.7937 585.488 82.8817 585.536C78.2737 585.776 76.6897 587.552 76.7857 589.424C76.8817 591.056 77.8897 592.016 79.8577 592.016C82.1137 592.016 84.3697 590.432 85.4737 588.128Z" fill="#594A39"/>
<path d="M114.074 571.232C119.786 571.232 123.338 574.88 123.338 580.784V593.648C123.338 596.24 121.898 597.632 119.258 597.632C116.618 597.632 115.178 596.24 115.178 593.648V581.408C115.178 578.384 113.93 576.56 111.722 576.56C109.61 576.56 107.69 578.48 107.066 581.168V593.648C107.066 596.24 105.626 597.632 102.986 597.632C100.346 597.632 98.9062 596.24 98.9062 593.648V574.976C98.9062 572.576 100.25 571.28 102.65 571.28C105.098 571.28 106.442 572.48 106.442 574.928V575.696C107.882 572.768 110.858 571.232 114.074 571.232Z" fill="#594A39"/>
<path d="M140.602 597.632C132.394 597.632 127.546 592.832 127.546 584.624C127.546 576.416 132.586 571.232 140.65 571.232C145.114 571.232 148.186 573.056 149.434 574.64C150.394 575.744 150.346 577.184 149.29 578.144C148.042 579.248 146.65 579.296 145.546 578.24C144.49 577.232 142.906 576.8 141.322 576.8C137.77 576.8 135.706 579.392 135.706 584.24C135.706 589.568 137.722 591.968 141.418 591.968C143.29 591.968 144.778 591.536 145.882 590.576C146.986 589.616 148.378 589.712 149.434 590.672C150.586 591.68 150.586 593.072 149.578 594.416C148.042 596.432 144.586 597.632 140.602 597.632Z" fill="#594A39"/>
<path d="M159.18 568.304C156.54 568.304 154.332 566.288 154.332 563.696C154.332 561.008 156.492 559.04 159.18 559.04C161.916 559.04 163.836 560.96 163.836 563.696C163.836 566.336 161.868 568.304 159.18 568.304ZM159.084 597.632C156.396 597.632 155.004 596.24 155.004 593.648V575.696C155.004 573.104 156.396 571.712 159.084 571.712C161.772 571.712 163.164 573.104 163.164 575.696V593.648C163.164 596.24 161.772 597.632 159.084 597.632Z" fill="#594A39"/>
<path d="M185.056 571.232C190.768 571.232 194.32 574.88 194.32 580.784V593.648C194.32 596.24 192.88 597.632 190.24 597.632C187.6 597.632 186.16 596.24 186.16 593.648V581.408C186.16 578.384 184.912 576.56 182.704 576.56C180.592 576.56 178.672 578.48 178.048 581.168V593.648C178.048 596.24 176.608 597.632 173.968 597.632C171.328 597.632 169.888 596.24 169.888 593.648V574.976C169.888 572.576 171.232 571.28 173.632 571.28C176.08 571.28 177.424 572.48 177.424 574.928V575.696C178.864 572.768 181.84 571.232 185.056 571.232Z" fill="#594A39"/>
<path d="M219.792 571.28C222.432 571.28 223.344 572.624 223.344 575.216V596.384C223.344 604.832 218.928 609.008 210.576 609.008C207.552 609.008 204.144 608.096 202.176 606.8C200.544 605.744 199.968 604.352 200.784 602.816C201.552 601.328 203.136 601.04 204.576 601.952C206.064 602.864 207.648 603.584 210.288 603.584C214.032 603.584 215.664 601.568 215.664 596.672V594.8C214.176 596.096 212.016 596.912 209.904 596.912C204.24 596.912 198.528 594.08 198.528 584.48C198.528 576.128 203.04 571.232 209.664 571.232C212.688 571.232 214.8 572.384 216.096 574.16C216.432 572.336 217.728 571.28 219.792 571.28ZM211.728 591.488C213.408 591.488 214.992 590.72 216 589.376V580.112C215.472 578.72 214.176 576.656 211.344 576.656C208.224 576.656 206.304 579.056 206.304 584.576C206.304 589.088 208.464 591.488 211.728 591.488Z" fill="#594A39"/>
<path d="M261.342 560.288C262.446 561.056 262.83 562.4 262.302 563.6C261.726 564.896 260.382 565.424 259.23 564.848C258.75 564.608 258.318 564.512 257.886 564.512C256.59 564.512 256.11 565.328 256.11 567.44V571.952H259.086C260.622 571.952 261.486 573.008 261.486 574.688C261.486 576.416 260.574 577.424 259.086 577.424H256.11V593.696C256.11 596.384 254.574 597.632 252.03 597.632C249.438 597.632 247.95 596.288 247.95 593.696V577.424H245.646C244.11 577.424 243.15 576.416 243.15 574.688C243.15 572.96 244.11 571.952 245.646 571.952H247.95V567.296C247.95 562.064 250.974 558.992 256.158 558.992C258.222 558.992 260.238 559.52 261.342 560.288Z" fill="#594A39"/>
<path d="M276.001 597.68C267.505 597.68 263.041 592.592 263.041 584C263.041 576.224 268.417 571.232 276.337 571.232C284.161 571.232 289.153 576.176 289.201 584C289.249 592.784 284.161 597.68 276.001 597.68ZM276.097 592.352C279.409 592.256 280.849 589.856 280.849 584.144C280.849 578.96 279.457 576.464 276.097 576.512C272.833 576.56 271.345 579.008 271.393 584.144C271.441 589.568 272.641 592.448 276.097 592.352Z" fill="#594A39"/>
<path d="M311.526 574.112C311.766 576.752 310.086 577.568 307.734 577.856C305.19 578.192 302.79 580.688 302.07 583.856V593.792C302.07 596.48 300.438 597.632 297.798 597.632C295.158 597.632 293.91 596.432 293.91 593.792V574.544C293.91 572.24 295.446 571.232 297.798 571.232C300.006 571.232 301.446 572.384 301.446 574.736V576.992C302.454 573.008 304.71 571.376 307.542 571.28C309.702 571.232 311.334 571.952 311.526 574.112Z" fill="#594A39"/>
<path d="M330.957 589.376C331.917 588.08 333.645 587.84 334.941 588.848C336.909 590.384 339.069 591.872 342.381 591.872C345.309 591.872 347.085 590.624 347.133 588.32C347.181 586.448 346.509 584.528 340.941 581.648C333.741 577.856 330.669 574.928 330.669 569.984C330.669 564.512 335.613 560.96 343.341 560.96C348.045 560.96 351.693 562.304 353.325 563.888C354.669 565.184 354.957 566.864 354.045 568.256C353.037 569.744 351.165 570.032 349.677 568.784C348.045 567.44 346.173 566.624 343.293 566.672C340.653 566.72 339.117 567.776 339.117 569.408C339.117 571.232 339.789 572.864 345.405 575.744C352.653 579.536 355.677 582.56 355.677 587.36C355.677 593.792 350.829 597.632 342.813 597.632C337.293 597.632 333.357 595.808 331.389 593.84C330.093 592.544 329.949 590.768 330.957 589.376Z" fill="#594A39"/>
<path d="M365.47 568.304C362.83 568.304 360.622 566.288 360.622 563.696C360.622 561.008 362.782 559.04 365.47 559.04C368.206 559.04 370.126 560.96 370.126 563.696C370.126 566.336 368.158 568.304 365.47 568.304ZM365.374 597.632C362.686 597.632 361.294 596.24 361.294 593.648V575.696C361.294 573.104 362.686 571.712 365.374 571.712C368.062 571.712 369.454 573.104 369.454 575.696V593.648C369.454 596.24 368.062 597.632 365.374 597.632Z" fill="#594A39"/>
<path d="M375.697 596.912C373.921 595.568 373.585 593.84 375.025 592.112C377.137 589.616 379.201 587.024 381.169 584.336L375.409 576.896C374.065 575.168 374.689 573.296 376.561 571.904C378.193 570.704 380.113 571.136 381.409 572.864L386.353 579.392H386.545C388.081 577.232 389.569 575.264 391.057 572.912C392.209 571.088 393.985 570.656 395.857 571.76C397.729 572.864 398.113 574.832 396.817 576.656C394.945 579.296 393.073 581.648 391.057 584.096L397.009 591.584C398.497 593.456 398.209 595.472 396.241 596.912C394.465 598.208 392.449 597.68 391.105 595.856L386.209 589.184H386.017C384.241 591.728 382.225 593.792 380.401 596.144C379.105 597.824 377.329 598.112 375.697 596.912Z" fill="#594A39"/>
<path d="M423.521 597.632C420.929 597.632 419.441 596.336 419.441 593.696V564.944C419.441 562.256 421.025 560.96 423.569 560.96C426.209 560.96 427.697 562.304 427.697 564.944V576.32C428.945 575.024 429.521 574.448 432.689 570.656L439.553 562.448C440.993 560.72 443.009 560.48 444.785 561.776C446.465 563.024 446.609 564.992 445.169 566.672C442.385 569.936 439.217 573.584 436.241 576.704L445.937 591.728C447.281 593.792 446.897 595.664 444.833 596.96C442.865 598.208 440.705 597.68 439.457 595.616L430.961 581.264L427.601 584.576V593.696C427.601 596.336 426.113 597.632 423.521 597.632Z" fill="#594A39"/>
<path d="M467.135 590.624C468.431 589.664 469.823 589.76 470.735 590.816C471.647 591.824 471.695 593.216 470.687 594.32C469.151 596.048 465.407 597.632 460.655 597.632C453.119 597.632 447.311 593.84 447.311 585.008C447.311 576.512 452.303 571.184 460.319 571.184C468.191 571.184 472.127 577.04 472.127 582.704C472.127 585.44 470.735 586.88 467.807 586.88H455.615C456.095 590.864 457.871 592.352 461.279 592.448C463.631 592.496 465.551 591.824 467.135 590.624ZM460.415 576.224C457.391 576.224 456.047 578.288 455.615 581.6H464.351C464.639 581.6 464.783 581.456 464.783 581.168C464.783 577.856 463.103 576.224 460.415 576.224Z" fill="#594A39"/>
<path d="M479.418 608.72C476.778 608.72 474.09 607.76 474.09 605.36C474.09 603.728 475.002 602.528 476.442 602.528C477.402 602.528 478.17 602.72 478.65 602.72C480.186 602.72 480.954 602.384 481.626 601.328C482.154 600.464 483.354 597.92 483.93 596.432C481.05 590.336 477.306 582.176 474.762 576.464C473.706 574.064 474.282 572.672 476.634 571.616C478.554 570.752 480.666 571.664 481.626 574.016C483.834 579.392 486.714 586.784 487.578 589.04H487.77C488.634 586.592 490.746 579.248 492.186 573.968C492.858 571.52 494.394 570.848 496.794 571.52C498.954 572.144 499.818 573.536 499.05 575.648C496.938 581.504 493.194 591.488 491.034 596.48C489.882 599.072 488.442 602.48 486.954 604.88C485.37 607.472 482.778 608.72 479.418 608.72Z" fill="#594A39"/>
<path d="M15.3584 661.376C16.3184 660.08 18.0464 659.84 19.3424 660.848C21.3104 662.384 23.4704 663.872 26.7824 663.872C29.7104 663.872 31.4864 662.624 31.5344 660.32C31.5824 658.448 30.9104 656.528 25.3424 653.648C18.1424 649.856 15.0704 646.928 15.0704 641.984C15.0704 636.512 20.0144 632.96 27.7424 632.96C32.4464 632.96 36.0944 634.304 37.7264 635.888C39.0704 637.184 39.3584 638.864 38.4464 640.256C37.4384 641.744 35.5664 642.032 34.0784 640.784C32.4464 639.44 30.5744 638.624 27.6944 638.672C25.0544 638.72 23.5184 639.776 23.5184 641.408C23.5184 643.232 24.1904 644.864 29.8064 647.744C37.0544 651.536 40.0784 654.56 40.0784 659.36C40.0784 665.792 35.2304 669.632 27.2144 669.632C21.6944 669.632 17.7584 667.808 15.7904 665.84C14.4944 664.544 14.3504 662.768 15.3584 661.376Z" fill="#594A39"/>
<path d="M59.6636 663.152C61.0556 663.152 61.9196 664.832 61.9196 666.032C61.9196 668.528 58.3676 669.248 55.7276 669.248C50.2076 669.248 47.7116 666.608 47.7116 660.896V649.424H45.0236C43.4876 649.424 42.6236 648.368 42.6236 646.688C42.6236 644.96 43.5356 643.952 45.0236 643.952H47.7116V640.928C47.7116 638.336 49.1516 636.944 51.7916 636.944C54.4316 636.944 55.8716 638.336 55.8716 640.928V643.952H58.9916C60.5276 643.952 61.3916 645.008 61.3916 646.688C61.3916 648.416 60.4796 649.424 58.9916 649.424H55.8716V660.8C55.8716 662.72 56.3996 663.584 57.2636 663.584C58.1756 663.584 58.7996 663.152 59.6636 663.152Z" fill="#594A39"/>
<path d="M83.7266 646.112C83.9666 648.752 82.2866 649.568 79.9346 649.856C77.3906 650.192 74.9906 652.688 74.2706 655.856V665.792C74.2706 668.48 72.6386 669.632 69.9986 669.632C67.3586 669.632 66.1106 668.432 66.1106 665.792V646.544C66.1106 644.24 67.6466 643.232 69.9986 643.232C72.2066 643.232 73.6466 644.384 73.6466 646.736V648.992C74.6546 645.008 76.9106 643.376 79.7426 643.28C81.9026 643.232 83.5346 643.952 83.7266 646.112Z" fill="#594A39"/>
<path d="M106.972 646.4C108.412 647.936 109.132 650.096 109.132 652.88V665.648C109.132 668.24 108.124 669.632 105.628 669.632C103.084 669.632 101.932 668.24 101.932 665.648V665.504C100.348 668.288 97.3724 669.632 93.5804 669.632C88.4924 669.632 85.3724 666.656 85.3724 661.904C85.3724 656.192 90.7004 652.64 98.7644 652.64C99.7244 652.64 100.732 652.688 101.356 652.784V652.352C101.356 649.952 100.012 648.512 97.4684 648.416C95.4044 648.32 93.1964 649.232 91.3724 651.2C90.2204 652.448 88.5404 652.64 87.3404 651.584C86.0924 650.576 85.9484 648.992 87.0524 647.6C88.7804 645.488 92.5724 643.232 97.6124 643.232C102.076 643.232 104.908 644.24 106.972 646.4ZM101.452 660.128V657.68C100.828 657.584 99.7724 657.488 98.8604 657.536C94.2524 657.776 92.6684 659.552 92.7644 661.424C92.8604 663.056 93.8684 664.016 95.8364 664.016C98.0924 664.016 100.348 662.432 101.452 660.128Z" fill="#594A39"/>
<path d="M128.63 663.152C130.022 663.152 130.886 664.832 130.886 666.032C130.886 668.528 127.334 669.248 124.694 669.248C119.174 669.248 116.678 666.608 116.678 660.896V649.424H113.99C112.454 649.424 111.59 648.368 111.59 646.688C111.59 644.96 112.502 643.952 113.99 643.952H116.678V640.928C116.678 638.336 118.118 636.944 120.758 636.944C123.398 636.944 124.838 638.336 124.838 640.928V643.952H127.958C129.494 643.952 130.358 645.008 130.358 646.688C130.358 648.416 129.446 649.424 127.958 649.424H124.838V660.8C124.838 662.72 125.366 663.584 126.23 663.584C127.142 663.584 127.766 663.152 128.63 663.152Z" fill="#594A39"/>
<path d="M152.896 662.624C154.192 661.664 155.584 661.76 156.496 662.816C157.408 663.824 157.456 665.216 156.448 666.32C154.912 668.048 151.168 669.632 146.416 669.632C138.88 669.632 133.072 665.84 133.072 657.008C133.072 648.512 138.064 643.184 146.08 643.184C153.952 643.184 157.888 649.04 157.888 654.704C157.888 657.44 156.496 658.88 153.568 658.88H141.376C141.856 662.864 143.632 664.352 147.04 664.448C149.392 664.496 151.312 663.824 152.896 662.624ZM146.176 648.224C143.152 648.224 141.808 650.288 141.376 653.6H150.112C150.4 653.6 150.544 653.456 150.544 653.168C150.544 649.856 148.864 648.224 146.176 648.224Z" fill="#594A39"/>
<path d="M182.075 643.28C184.715 643.28 185.627 644.624 185.627 647.216V668.384C185.627 676.832 181.211 681.008 172.859 681.008C169.835 681.008 166.427 680.096 164.459 678.8C162.827 677.744 162.251 676.352 163.067 674.816C163.835 673.328 165.419 673.04 166.859 673.952C168.347 674.864 169.931 675.584 172.571 675.584C176.315 675.584 177.947 673.568 177.947 668.672V666.8C176.459 668.096 174.299 668.912 172.187 668.912C166.523 668.912 160.811 666.08 160.811 656.48C160.811 648.128 165.323 643.232 171.947 643.232C174.971 643.232 177.083 644.384 178.379 646.16C178.715 644.336 180.011 643.28 182.075 643.28ZM174.011 663.488C175.691 663.488 177.275 662.72 178.283 661.376V652.112C177.755 650.72 176.459 648.656 173.627 648.656C170.507 648.656 168.587 651.056 168.587 656.576C168.587 661.088 170.747 663.488 174.011 663.488Z" fill="#594A39"/>
<path d="M196.523 640.304C193.883 640.304 191.675 638.288 191.675 635.696C191.675 633.008 193.835 631.04 196.523 631.04C199.259 631.04 201.179 632.96 201.179 635.696C201.179 638.336 199.211 640.304 196.523 640.304ZM196.427 669.632C193.739 669.632 192.347 668.24 192.347 665.648V647.696C192.347 645.104 193.739 643.712 196.427 643.712C199.115 643.712 200.507 645.104 200.507 647.696V665.648C200.507 668.24 199.115 669.632 196.427 669.632Z" fill="#594A39"/>
<path d="M218.751 669.632C210.543 669.632 205.695 664.832 205.695 656.624C205.695 648.416 210.735 643.232 218.799 643.232C223.263 643.232 226.335 645.056 227.583 646.64C228.543 647.744 228.495 649.184 227.439 650.144C226.191 651.248 224.799 651.296 223.695 650.24C222.639 649.232 221.055 648.8 219.471 648.8C215.919 648.8 213.855 651.392 213.855 656.24C213.855 661.568 215.871 663.968 219.567 663.968C221.439 663.968 222.927 663.536 224.031 662.576C225.135 661.616 226.527 661.712 227.583 662.672C228.735 663.68 228.735 665.072 227.727 666.416C226.191 668.432 222.735 669.632 218.751 669.632Z" fill="#594A39"/>
<path d="M253.966 669.584C251.326 669.584 249.838 668.384 249.838 665.84V636.8C249.838 634.352 251.374 632.96 253.966 632.96C256.558 632.96 258.094 634.4 258.094 636.8V665.84C258.094 668.336 256.606 669.584 253.966 669.584Z" fill="#594A39"/>
<path d="M280.443 643.232C286.155 643.232 289.707 646.88 289.707 652.784V665.648C289.707 668.24 288.267 669.632 285.627 669.632C282.987 669.632 281.547 668.24 281.547 665.648V653.408C281.547 650.384 280.299 648.56 278.091 648.56C275.979 648.56 274.059 650.48 273.435 653.168V665.648C273.435 668.24 271.995 669.632 269.355 669.632C266.715 669.632 265.275 668.24 265.275 665.648V646.976C265.275 644.576 266.619 643.28 269.019 643.28C271.467 643.28 272.811 644.48 272.811 646.928V647.696C274.251 644.768 277.227 643.232 280.443 643.232Z" fill="#594A39"/>
<path d="M315.179 631.472C317.771 631.472 319.211 632.96 319.211 635.648V665.84C319.211 668.24 317.867 669.632 315.467 669.632C313.499 669.632 312.059 668.672 311.627 666.992C310.091 668.624 307.451 669.632 305.051 669.632C299.483 669.632 293.915 666.368 293.915 656.576C293.915 648.416 298.715 643.232 305.003 643.232C308.075 643.232 309.995 644.432 311.051 645.392V635.552C311.051 632.864 312.443 631.472 315.179 631.472ZM307.211 664.16C308.843 664.16 310.427 663.344 311.483 661.904V651.92C310.859 650.528 309.467 648.656 306.683 648.656C303.899 648.656 301.691 651.344 301.691 656.672C301.691 661.424 303.947 664.16 307.211 664.16Z" fill="#594A39"/>
<path d="M345.166 643.232C347.758 643.232 349.15 644.624 349.15 647.12V666.128C349.15 668.288 347.902 669.632 345.55 669.632C343.246 669.632 341.95 668.336 341.902 666.176V665.696C340.51 668.144 337.774 669.584 334.366 669.584C328.558 669.584 325.054 666.032 325.054 660.08V647.168C325.054 644.624 326.494 643.232 329.134 643.232C331.774 643.232 333.214 644.624 333.214 647.168V659.024C333.214 662.432 334.27 664.064 336.67 664.064C339.31 664.064 340.75 660.896 341.182 658.976V647.12C341.182 644.624 342.622 643.232 345.166 643.232Z" fill="#594A39"/>
<path d="M354.086 662.96C354.902 661.952 356.246 661.76 357.494 662.528C358.934 663.392 360.998 664.256 363.11 664.256C365.222 664.256 366.23 663.728 366.23 662.48C366.23 661.28 365.702 660.464 361.574 658.64C356.678 656.48 354.134 654.464 354.134 650.528C354.134 646.208 358.31 643.232 364.454 643.232C368.582 643.232 371.414 644.528 372.806 645.728C373.91 646.688 374.102 648.128 373.286 649.232C372.47 650.336 370.694 650.624 369.35 649.664C368.198 648.848 366.662 648.56 364.886 648.56C363.062 648.56 362.15 649.232 362.15 650.24C362.15 651.392 363.11 651.968 366.662 653.6C372.278 656.144 374.486 658.256 374.486 662.048C374.486 667.232 369.59 669.632 364.454 669.632C360.806 669.632 356.534 668.72 354.47 666.656C353.318 665.504 353.126 664.112 354.086 662.96Z" fill="#594A39"/>
<path d="M393.069 663.152C394.461 663.152 395.325 664.832 395.325 666.032C395.325 668.528 391.773 669.248 389.133 669.248C383.613 669.248 381.117 666.608 381.117 660.896V649.424H378.429C376.893 649.424 376.029 648.368 376.029 646.688C376.029 644.96 376.941 643.952 378.429 643.952H381.117V640.928C381.117 638.336 382.557 636.944 385.197 636.944C387.837 636.944 389.277 638.336 389.277 640.928V643.952H392.397C393.933 643.952 394.797 645.008 394.797 646.688C394.797 648.416 393.885 649.424 392.397 649.424H389.277V660.8C389.277 662.72 389.805 663.584 390.669 663.584C391.581 663.584 392.205 663.152 393.069 663.152Z" fill="#594A39"/>
<path d="M417.132 646.112C417.372 648.752 415.692 649.568 413.34 649.856C410.796 650.192 408.396 652.688 407.676 655.856V665.792C407.676 668.48 406.044 669.632 403.404 669.632C400.764 669.632 399.516 668.432 399.516 665.792V646.544C399.516 644.24 401.052 643.232 403.404 643.232C405.612 643.232 407.052 644.384 407.052 646.736V648.992C408.06 645.008 410.316 643.376 413.148 643.28C415.308 643.232 416.94 643.952 417.132 646.112Z" fill="#594A39"/>
<path d="M425.301 640.304C422.661 640.304 420.453 638.288 420.453 635.696C420.453 633.008 422.613 631.04 425.301 631.04C428.037 631.04 429.957 632.96 429.957 635.696C429.957 638.336 427.989 640.304 425.301 640.304ZM425.205 669.632C422.517 669.632 421.125 668.24 421.125 665.648V647.696C421.125 645.104 422.517 643.712 425.205 643.712C427.893 643.712 429.285 645.104 429.285 647.696V665.648C429.285 668.24 427.893 669.632 425.205 669.632Z" fill="#594A39"/>
<path d="M454.297 662.624C455.593 661.664 456.985 661.76 457.897 662.816C458.809 663.824 458.857 665.216 457.849 666.32C456.313 668.048 452.569 669.632 447.817 669.632C440.281 669.632 434.473 665.84 434.473 657.008C434.473 648.512 439.465 643.184 447.481 643.184C455.353 643.184 459.289 649.04 459.289 654.704C459.289 657.44 457.897 658.88 454.969 658.88H442.777C443.257 662.864 445.033 664.352 448.441 664.448C450.793 664.496 452.713 663.824 454.297 662.624ZM447.577 648.224C444.553 648.224 443.209 650.288 442.777 653.6H451.513C451.801 653.6 451.945 653.456 451.945 653.168C451.945 649.856 450.265 648.224 447.577 648.224Z" fill="#594A39"/>
<path d="M462.451 662.96C463.267 661.952 464.611 661.76 465.859 662.528C467.299 663.392 469.363 664.256 471.475 664.256C473.587 664.256 474.595 663.728 474.595 662.48C474.595 661.28 474.067 660.464 469.939 658.64C465.043 656.48 462.499 654.464 462.499 650.528C462.499 646.208 466.675 643.232 472.819 643.232C476.947 643.232 479.779 644.528 481.171 645.728C482.275 646.688 482.467 648.128 481.651 649.232C480.835 650.336 479.059 650.624 477.715 649.664C476.563 648.848 475.027 648.56 473.251 648.56C471.427 648.56 470.515 649.232 470.515 650.24C470.515 651.392 471.475 651.968 475.027 653.6C480.643 656.144 482.851 658.256 482.851 662.048C482.851 667.232 477.955 669.632 472.819 669.632C469.171 669.632 464.899 668.72 462.835 666.656C461.683 665.504 461.491 664.112 462.451 662.96Z" fill="#594A39"/>
<g clip-path="url(#clip0_1384_2007)">
<path d="M136.107 471.884C96.9576 450.343 63.3769 420.537 37.8861 384.702C14.302 351.967 1.1714 313.296 0.111103 273.456C-0.949168 233.616 10.1084 194.348 31.9202 160.491C60.3346 113.568 100.305 57.5152 151.072 32.6841C226.844 -3.83223 283.67 -14.605 356.222 26.5672C416.839 60.8926 476.795 130.913 490.15 185.414C503.505 239.914 508.144 300.44 472.437 358.866C428.395 431.26 356.697 483.478 279.599 496.624C230.238 505.382 179.257 496.592 136.107 471.884Z" fill="#F8F9E9"/>
</g>
<g clip-path="url(#clip1_1384_2007)">
<path d="M412.564 333.017V160.346L411.884 159.496L278.262 82.3422C273.175 78.9434 267.875 75.878 262.394 73.1609C252.364 69.1361 240.577 77.5253 231.964 82.5139L154.895 126.956L91.7671 163.407C90.4637 164.144 88.8206 165.334 88.8206 166.978V339.649L89.5569 340.499L223.123 417.653C228.205 421.042 233.506 424.09 238.991 426.779C249.021 430.86 260.808 422.47 269.478 417.481L346.376 373.039L409.504 336.588C413.698 334.15 412.394 331.713 408.088 331.373C401.966 331.307 395.945 332.936 390.691 336.078L259.958 411.585L241.2 422.356L262.224 418.503L131.491 342.993L119.251 335.907C117.054 334.973 114.979 333.775 113.074 332.336C112.338 331.542 113.641 333.639 113.471 332.732C113.386 331.865 113.386 330.992 113.471 330.124V160.346L110.581 163.917L241.314 88.4096L260.014 77.5814L238.991 81.4925L370.234 157L382.417 164.086C384.627 164.994 386.704 166.197 388.594 167.659C389.331 168.396 388.027 166.353 388.254 167.26C388.311 168.129 388.311 169 388.254 169.868V339.649C387.971 343.334 412.564 339.933 412.564 333.017Z" fill="#EEE9DD"/>
<path d="M250.834 114.715C271.459 114.715 288.178 97.9891 288.178 77.3573C288.178 56.7254 271.459 40 250.834 40C230.209 40 213.49 56.7254 213.49 77.3573C213.49 97.9891 230.209 114.715 250.834 114.715Z" fill="#47ACDF"/>
<path d="M250.834 460C271.459 460 288.178 443.274 288.178 422.642C288.178 402.011 271.459 385.285 250.834 385.285C230.209 385.285 213.49 402.011 213.49 422.642C213.49 443.274 230.209 460 250.834 460Z" fill="#9499A0"/>
<path d="M400.268 201.05C420.892 201.05 437.612 184.325 437.612 163.693C437.612 143.061 420.892 126.336 400.268 126.336C379.643 126.336 362.923 143.061 362.923 163.693C362.923 184.325 379.643 201.05 400.268 201.05Z" fill="#C375AD"/>
<path d="M101.344 201.05C121.969 201.05 138.688 184.325 138.688 163.693C138.688 143.061 121.969 126.336 101.344 126.336C80.7193 126.336 63.9998 143.061 63.9998 163.693C63.9998 184.325 80.7193 201.05 101.344 201.05Z" fill="#EE7941"/>
<path d="M400.268 373.609C420.892 373.609 437.612 356.884 437.612 336.252C437.612 315.62 420.892 298.895 400.268 298.895C379.643 298.895 362.923 315.62 362.923 336.252C362.923 356.884 379.643 373.609 400.268 373.609Z" fill="#99CB66"/>
<path d="M101.344 373.609C121.969 373.609 138.688 356.884 138.688 336.252C138.688 315.62 121.969 298.895 101.344 298.895C80.7193 298.895 63.9998 315.62 63.9998 336.252C63.9998 356.884 80.7193 373.609 101.344 373.609Z" fill="#C79C6A"/>
<path d="M317.452 149.993C315.092 148.709 312.492 147.932 309.818 147.712C307.143 147.492 304.453 147.836 301.917 148.717C296.603 144.927 290.23 142.926 283.714 143.002C277.198 143.079 270.873 145.228 265.648 149.142C262.558 152.192 259.008 154.732 255.13 156.672C247.924 160.483 241.34 165.379 235.606 171.19L224.967 186.559C212.099 203.623 200.114 221.341 189.061 239.646C179.934 256.228 174.01 278.459 181.203 296.864C184.718 304.453 190.426 310.803 197.584 315.086C201.025 317.39 204.243 320.014 207.196 322.922C210.689 326.921 213.378 331.562 215.114 336.589C217.187 344.209 222.101 350.735 228.836 354.811C232.077 356.427 235.681 357.17 239.294 356.967C242.906 356.765 246.405 355.625 249.448 353.658C256.4 348.252 256.763 335.921 258.274 327.964C259.951 317.283 263.535 306.994 268.852 297.593C274.051 288.725 280.156 280.403 285.112 271.292C290.118 261.972 294.558 252.359 298.411 242.502C307.055 220.756 314.067 198.22 321.683 176.11C324.343 167.607 326.519 155.581 317.452 149.993Z" fill="#7EC15A"/>
<path d="M294 204H260C260 204 263.113 197.896 266.715 192.892C270.316 187.888 272.818 184.715 275.321 185.02C277.824 185.325 280.998 188.561 284.416 192.344C288.994 197.714 294 204 294 204Z" fill="#CDE4B9"/>
<path d="M280 243H235C237.682 237.967 240.642 233.083 243.866 228.372C247.874 222.714 252.307 217.657 255.344 218.018C260.127 220.194 264.298 223.502 267.49 227.649C273.805 234.692 280 243 280 243Z" fill="#CDE4B9"/>
<path d="M259 277H222C224.229 272.986 226.67 269.085 229.315 265.314C232.58 260.757 236.267 256.723 238.746 257.015C241.225 257.307 244.792 260.756 248.601 264.729C253.921 270.339 259 277 259 277Z" fill="#CDE4B9"/>
</g>
<defs>
<clipPath id="clip0_1384_2007">
<rect width="500" height="500" fill="white" transform="translate(500) rotate(90)"/>
</clipPath>
<clipPath id="clip1_1384_2007">
<rect width="373.612" height="420" fill="white" transform="translate(63.9998 40)"/>
</clipPath>
</defs>
</svg>
