<svg width="661" height="440" viewBox="0 0 661 440" fill="none" xmlns="http://www.w3.org/2000/svg">
<path d="M305.462 0C107.221 0 -17.2313 102.832 1.9407 236.302C18.3652 350.718 88.8338 367.685 219.868 381.719C220.773 398.988 226.57 421.793 247.976 438.73C248.957 439.445 250.13 439.847 251.343 439.885C252.555 439.923 253.751 439.594 254.774 438.941C255.797 438.288 256.6 437.342 257.079 436.225C257.557 435.108 257.689 433.873 257.457 432.681C255.494 420.583 256.702 402.889 272.553 385.741C289.642 386.467 307.515 386.981 326.174 386.83C572.3 384.894 660.069 309.766 660.069 174.421C660.069 39.0759 503.794 0 305.462 0Z" fill="#F3F5DE"/>
<path d="M95.9284 219.862C85.8926 219.862 80 213.489 80 201.936C80 191.39 86.1688 184.788 96.2967 184.788C100.302 184.788 103.294 185.98 104.905 187.172C106.24 188.135 106.701 189.648 106.01 190.84C105.228 192.216 103.708 192.537 102.327 191.711C100.808 190.748 99.1049 190.198 96.5269 190.198C91.3248 190.198 88.1483 194.462 88.1483 201.844C88.1483 210.005 91.2327 214.452 96.3427 214.452C99.3811 214.452 101.038 213.535 102.373 212.572C103.708 211.61 105.182 211.931 106.24 213.26C107.161 214.406 106.977 215.874 105.688 217.02C104.031 218.533 100.486 219.862 95.9284 219.862Z" fill="#594A39"/>
<path d="M122.073 219.862C117.239 219.862 115.352 218.074 115.352 212.297V187.172C115.352 184.742 116.733 183.413 119.265 183.413C121.705 183.413 123.132 184.742 123.132 187.172V212.343C123.132 213.673 123.27 214.131 124.237 214.131C124.789 214.131 125.112 213.902 125.664 213.902C126.493 213.902 127.69 214.544 127.69 216.515C127.69 219.083 125.158 219.862 122.073 219.862Z" fill="#594A39"/>
<path d="M139.82 191.849C137.288 191.849 135.17 189.923 135.17 187.447C135.17 184.88 137.242 183 139.82 183C142.444 183 144.285 184.834 144.285 187.447C144.285 189.969 142.398 191.849 139.82 191.849ZM139.728 219.862C137.15 219.862 135.815 218.533 135.815 216.057V198.91C135.815 196.434 137.15 195.104 139.728 195.104C142.306 195.104 143.641 196.434 143.641 198.91V216.057C143.641 218.533 142.306 219.862 139.728 219.862Z" fill="#594A39"/>
<path d="M165.281 219.862C157.409 219.862 152.759 215.278 152.759 207.437C152.759 199.597 157.593 194.646 165.327 194.646C169.608 194.646 172.555 196.388 173.752 197.901C174.672 198.955 174.626 200.331 173.614 201.248C172.417 202.302 171.082 202.348 170.023 201.34C169.01 200.377 167.491 199.964 165.972 199.964C162.565 199.964 160.585 202.44 160.585 207.071C160.585 212.16 162.519 214.452 166.064 214.452C167.859 214.452 169.286 214.04 170.345 213.123C171.404 212.206 172.739 212.297 173.752 213.214C174.857 214.177 174.857 215.507 173.89 216.791C172.417 218.716 169.102 219.862 165.281 219.862Z" fill="#594A39"/>
<path d="M186.69 219.862C184.158 219.862 182.776 218.625 182.776 216.195V187.218C182.776 184.742 184.158 183.413 186.69 183.413C189.175 183.413 190.603 184.742 190.603 187.218V203.036C193.181 200.835 196.219 198.359 199.073 195.654C200.546 194.279 202.204 194.325 203.585 195.608C205.058 196.984 204.828 198.772 203.124 200.193L197.094 205.099L204.045 214.269C205.426 216.057 205.288 217.753 203.677 218.991C201.927 220.367 199.718 220.092 198.567 218.349L192.076 208.492L190.603 209.822V216.195C190.603 218.625 189.175 219.862 186.69 219.862Z" fill="#594A39"/>
<path d="M246.843 213.673C248.178 213.673 249.007 215.278 249.007 216.424C249.007 218.808 245.6 219.496 243.068 219.496C237.774 219.496 235.38 216.974 235.38 211.518V200.56H232.802C231.329 200.56 230.5 199.551 230.5 197.947C230.5 196.296 231.375 195.333 232.802 195.333H235.38V192.445C235.38 189.969 236.761 188.639 239.293 188.639C241.825 188.639 243.206 189.969 243.206 192.445V195.333H246.198C247.672 195.333 248.5 196.342 248.5 197.947C248.5 199.597 247.626 200.56 246.198 200.56H243.206V211.426C243.206 213.26 243.712 214.085 244.541 214.085C245.416 214.085 246.014 213.673 246.843 213.673Z" fill="#594A39"/>
<path d="M267.676 219.908C259.528 219.908 255.247 215.048 255.247 206.841C255.247 199.414 260.403 194.646 267.999 194.646C275.502 194.646 280.29 199.368 280.336 206.841C280.382 215.232 275.502 219.908 267.676 219.908ZM267.768 214.819C270.945 214.727 272.326 212.435 272.326 206.979C272.326 202.027 270.991 199.643 267.768 199.689C264.638 199.735 263.211 202.073 263.257 206.979C263.303 212.16 264.454 214.911 267.768 214.819Z" fill="#594A39"/>
<path d="M307.53 213.489C308.312 212.527 309.601 212.343 310.798 213.077C312.179 213.902 314.159 214.727 316.184 214.727C318.21 214.727 319.177 214.223 319.177 213.031C319.177 211.885 318.67 211.105 314.711 209.363C310.016 207.3 307.576 205.374 307.576 201.615C307.576 197.488 311.581 194.646 317.473 194.646C321.433 194.646 324.149 195.884 325.484 197.03C326.542 197.947 326.727 199.322 325.944 200.377C325.161 201.431 323.458 201.706 322.169 200.789C321.064 200.01 319.591 199.735 317.888 199.735C316.138 199.735 315.264 200.377 315.264 201.34C315.264 202.44 316.184 202.99 319.591 204.549C324.977 206.979 327.095 208.996 327.095 212.618C327.095 217.57 322.399 219.862 317.473 219.862C313.975 219.862 309.878 218.991 307.898 217.02C306.793 215.919 306.609 214.59 307.53 213.489Z" fill="#594A39"/>
<path d="M353.058 213.169C354.301 212.252 355.636 212.343 356.511 213.352C357.385 214.315 357.431 215.644 356.465 216.699C354.992 218.349 351.401 219.862 346.843 219.862C339.616 219.862 334.045 216.24 334.045 207.804C334.045 199.689 338.833 194.6 346.521 194.6C354.071 194.6 357.846 200.193 357.846 205.603C357.846 208.217 356.511 209.592 353.703 209.592H342.009C342.47 213.398 344.173 214.819 347.442 214.911C349.697 214.957 351.539 214.315 353.058 213.169ZM346.613 199.414C343.713 199.414 342.424 201.385 342.009 204.549H350.388C350.664 204.549 350.802 204.411 350.802 204.136C350.802 200.973 349.191 199.414 346.613 199.414Z" fill="#594A39"/>
<path d="M383.805 213.169C385.048 212.252 386.383 212.343 387.258 213.352C388.132 214.315 388.178 215.644 387.212 216.699C385.738 218.349 382.148 219.862 377.59 219.862C370.363 219.862 364.792 216.24 364.792 207.804C364.792 199.689 369.58 194.6 377.268 194.6C384.818 194.6 388.593 200.193 388.593 205.603C388.593 208.217 387.258 209.592 384.449 209.592H372.756C373.217 213.398 374.92 214.819 378.189 214.911C380.444 214.957 382.286 214.315 383.805 213.169ZM377.36 199.414C374.46 199.414 373.171 201.385 372.756 204.549H381.135C381.411 204.549 381.549 204.411 381.549 204.136C381.549 200.973 379.938 199.414 377.36 199.414Z" fill="#594A39"/>
<path d="M445.24 194.646C450.81 194.646 454.079 197.855 454.079 203.403V216.149C454.079 218.579 452.744 219.862 450.212 219.862C447.68 219.862 446.345 218.579 446.345 216.149V203.311C446.345 200.973 445.24 199.597 443.444 199.597C441.695 199.597 440.314 200.743 439.439 202.898V216.149C439.439 218.579 438.104 219.862 435.618 219.862C433.086 219.862 431.751 218.579 431.751 216.149V203.449C431.751 201.019 430.646 199.689 428.805 199.689C427.01 199.689 425.352 201.385 424.616 203.861V216.057C424.616 218.533 423.235 219.862 420.703 219.862C418.171 219.862 416.79 218.533 416.79 216.057V198.359C416.79 195.975 418.217 194.691 420.565 194.691C422.774 194.691 424.201 195.838 424.201 198.13V198.634C425.352 196.021 428.068 194.646 431.107 194.646C434.329 194.646 436.769 195.884 438.15 198.084C439.762 195.884 442.201 194.646 445.24 194.646ZM424.247 206.062L424.294 205.558C424.247 205.695 424.247 205.879 424.247 206.062Z" fill="#594A39"/>
<path d="M474.723 219.908C466.574 219.908 462.293 215.048 462.293 206.841C462.293 199.414 467.449 194.646 475.045 194.646C482.549 194.646 487.336 199.368 487.382 206.841C487.428 215.232 482.549 219.908 474.723 219.908ZM474.815 214.819C477.991 214.727 479.372 212.435 479.372 206.979C479.372 202.027 478.037 199.643 474.815 199.689C471.684 199.735 470.257 202.073 470.303 206.979C470.349 212.16 471.5 214.911 474.815 214.819Z" fill="#594A39"/>
<path d="M512.937 197.397C513.167 199.918 511.556 200.698 509.3 200.973C506.86 201.294 504.558 203.678 503.868 206.704V216.195C503.868 218.762 502.302 219.862 499.77 219.862C497.238 219.862 496.041 218.716 496.041 216.195V197.809C496.041 195.608 497.515 194.646 499.77 194.646C501.888 194.646 503.269 195.746 503.269 197.993V200.147C504.236 196.342 506.4 194.783 509.116 194.691C511.187 194.646 512.752 195.333 512.937 197.397Z" fill="#594A39"/>
<path d="M537.54 213.169C538.783 212.252 540.118 212.343 540.992 213.352C541.867 214.315 541.913 215.644 540.946 216.699C539.473 218.349 535.882 219.862 531.325 219.862C524.097 219.862 518.527 216.24 518.527 207.804C518.527 199.689 523.314 194.6 531.002 194.6C538.552 194.6 542.327 200.193 542.327 205.603C542.327 208.217 540.992 209.592 538.184 209.592H526.491C526.951 213.398 528.655 214.819 531.923 214.911C534.179 214.957 536.02 214.315 537.54 213.169ZM531.095 199.414C528.194 199.414 526.905 201.385 526.491 204.549H534.87C535.146 204.549 535.284 204.411 535.284 204.136C535.284 200.973 533.673 199.414 531.095 199.414Z" fill="#594A39"/>
<path d="M555.35 208.492C553.555 208.492 552.266 207.529 552.128 205.741L550.747 189.419C550.471 186.347 552.312 184.651 555.35 184.651C558.435 184.651 560.23 186.347 559.954 189.419L558.527 205.741C558.389 207.529 557.146 208.492 555.35 208.492ZM555.396 220C552.818 220 550.701 217.983 550.701 215.415C550.701 213.077 552.818 211.014 555.396 211.014C557.882 211.014 560 213.031 560 215.415C560 217.983 557.882 220 555.396 220Z" fill="#594A39"/>
</svg>
