<svg width="500" height="500" viewBox="0 0 500 500" fill="none" xmlns="http://www.w3.org/2000/svg">
<g clip-path="url(#clip0_722_3089)">
<path d="M136.108 471.882C96.9586 450.341 63.3779 420.535 37.887 384.7C14.303 351.965 1.17238 313.295 0.112079 273.455C-0.948191 233.615 10.1093 194.346 31.9211 160.489C60.3356 113.566 100.306 57.5133 151.073 32.6822C226.845 -3.83418 283.671 -14.6069 356.223 26.5653C416.84 60.8906 476.796 130.911 490.151 185.412C503.506 239.912 508.145 300.438 472.438 358.864C428.396 431.258 356.698 483.476 279.6 496.622C230.239 505.38 179.258 496.59 136.108 471.882Z" fill="#F8F9E9"/>
</g>
<g clip-path="url(#clip1_722_3089)">
<path d="M412.564 333.019V160.348L411.884 159.498L278.261 82.3442C273.175 78.9453 267.875 75.88 262.394 73.1629C252.364 69.138 240.577 77.5273 231.963 82.5158L154.895 126.958L91.7668 163.409C90.4634 164.146 88.8203 165.336 88.8203 166.98V339.651L89.5567 340.501L223.123 417.655C228.205 421.044 233.506 424.092 238.99 426.781C249.021 430.862 260.807 422.472 269.477 417.483L346.376 373.041L409.504 336.59C413.698 334.152 412.394 331.715 408.087 331.375C401.966 331.309 395.945 332.938 390.69 336.08L259.957 411.587L241.2 422.358L262.224 418.505L131.491 342.995L119.251 335.909C117.054 334.975 114.979 333.777 113.074 332.338C112.337 331.544 113.641 333.641 113.471 332.734C113.386 331.867 113.386 330.994 113.471 330.126V160.348L110.581 163.919L241.314 88.4116L260.014 77.5833L238.99 81.4944L370.233 157.002L382.417 164.088C384.627 164.996 386.704 166.199 388.594 167.661C389.33 168.398 388.027 166.355 388.254 167.262C388.31 168.131 388.31 169.002 388.254 169.87V339.651C387.97 343.336 412.564 339.935 412.564 333.019Z" fill="#EEE9DD"/>
<path d="M250.834 114.715C271.459 114.715 288.179 97.9891 288.179 77.3573C288.179 56.7254 271.459 40 250.834 40C230.21 40 213.49 56.7254 213.49 77.3573C213.49 97.9891 230.21 114.715 250.834 114.715Z" fill="#47ACDF"/>
<path d="M250.834 460C271.459 460 288.179 443.274 288.179 422.642C288.179 402.011 271.459 385.285 250.834 385.285C230.21 385.285 213.49 402.011 213.49 422.642C213.49 443.274 230.21 460 250.834 460Z" fill="#9499A0"/>
<path d="M400.268 201.05C420.893 201.05 437.612 184.325 437.612 163.693C437.612 143.061 420.893 126.336 400.268 126.336C379.643 126.336 362.924 143.061 362.924 163.693C362.924 184.325 379.643 201.05 400.268 201.05Z" fill="#C375AD"/>
<path d="M101.344 201.05C121.969 201.05 138.688 184.325 138.688 163.693C138.688 143.061 121.969 126.336 101.344 126.336C80.7196 126.336 64 143.061 64 163.693C64 184.325 80.7196 201.05 101.344 201.05Z" fill="#EE7941"/>
<path d="M400.268 373.608C420.893 373.608 437.612 356.883 437.612 336.251C437.612 315.619 420.893 298.894 400.268 298.894C379.643 298.894 362.924 315.619 362.924 336.251C362.924 356.883 379.643 373.608 400.268 373.608Z" fill="#99CB66"/>
<path d="M101.344 373.608C121.969 373.608 138.688 356.883 138.688 336.251C138.688 315.619 121.969 298.894 101.344 298.894C80.7196 298.894 64 315.619 64 336.251C64 356.883 80.7196 373.608 101.344 373.608Z" fill="#C79C6A"/>
<path d="M317.452 149.993C315.092 148.709 312.492 147.932 309.818 147.712C307.143 147.492 304.453 147.836 301.917 148.717C296.603 144.927 290.23 142.926 283.714 143.002C277.198 143.079 270.873 145.228 265.648 149.142C262.558 152.192 259.009 154.732 255.131 156.672C247.924 160.483 241.34 165.379 235.606 171.19L224.967 186.559C212.099 203.623 200.114 221.341 189.062 239.646C179.934 256.228 174.01 278.459 181.203 296.864C184.718 304.453 190.426 310.803 197.584 315.086C201.025 317.39 204.243 320.014 207.196 322.922C210.689 326.921 213.378 331.562 215.114 336.589C217.188 344.209 222.102 350.735 228.836 354.811C232.078 356.427 235.681 357.17 239.294 356.967C242.907 356.765 246.406 355.625 249.449 353.658C256.4 348.252 256.763 335.921 258.274 327.964C259.951 317.283 263.535 306.994 268.852 297.593C274.051 288.725 280.156 280.403 285.113 271.292C290.118 261.972 294.558 252.359 298.411 242.502C307.055 220.756 314.067 198.22 321.683 176.11C324.343 167.607 326.519 155.581 317.452 149.993Z" fill="#7EC15A"/>
<path d="M294 204H260C260 204 263.113 197.896 266.715 192.892C270.316 187.888 272.819 184.715 275.321 185.02C277.824 185.325 280.998 188.561 284.416 192.344C288.995 197.714 294 204 294 204Z" fill="#CDE4B9"/>
<path d="M280 243H235C237.683 237.967 240.642 233.083 243.866 228.372C247.874 222.714 252.308 217.657 255.344 218.018C260.127 220.194 264.298 223.502 267.49 227.649C273.806 234.692 280 243 280 243Z" fill="#CDE4B9"/>
<path d="M259 277H222C224.229 272.986 226.671 269.085 229.315 265.314C232.58 260.757 236.268 256.723 238.746 257.015C241.225 257.307 244.792 260.756 248.601 264.729C253.921 270.339 259 277 259 277Z" fill="#CDE4B9"/>
</g>
<defs>
<clipPath id="clip0_722_3089">
<rect width="500" height="500" fill="white" transform="translate(500) rotate(90)"/>
</clipPath>
<clipPath id="clip1_722_3089">
<rect width="373.612" height="420" fill="white" transform="translate(64 40)"/>
</clipPath>
</defs>
</svg>
