<svg width="1334" height="286" viewBox="0 0 1334 286" fill="none" xmlns="http://www.w3.org/2000/svg">
<path d="M117.301 254.537C122.222 258.527 123.153 264.113 118.365 268.502C113.843 272.758 109.055 272.093 105.065 267.039C101.474 262.384 97.0851 257.463 92.5631 252.675V270.098C92.5631 286.457 75.539 289.383 56.5201 280.472C53.8601 279.275 53.0621 277.014 53.8601 274.354C54.6581 271.694 56.3871 270.63 59.5791 271.029C70.618 272.226 72.3471 271.428 72.3471 264.778V255.069C68.357 258.793 63.968 262.118 59.712 264.645C55.988 266.773 52.5301 266.906 50.0031 264.645C50.4021 267.97 48.806 269.965 45.215 271.029C40.826 272.359 37.767 270.763 36.836 266.374C35.107 258.527 32.713 250.946 30.7181 245.227C29.7871 242.567 30.718 240.838 32.713 239.774C34.841 238.843 36.57 239.641 38.166 241.636C41.2251 245.493 44.417 250.547 46.944 256C47.343 253.074 49.4711 250.547 52.663 249.749C58.648 248.153 65.5641 245.759 72.3471 242.434V216.366H50.269C46.811 216.366 44.8161 214.371 44.8161 210.913C44.8161 207.455 46.811 205.46 50.269 205.46H83.12L84.716 199.342H69.155C67.16 203.598 63.1701 205.061 57.9831 203.997C52.5301 202.933 50.9341 199.608 52.397 194.421C55.057 184.579 57.9831 172.21 59.446 165.959C60.51 161.437 65.298 159.708 69.8201 160.373C74.7411 161.171 77.667 164.23 77.135 168.486H89.6371C91.8981 164.895 96.2871 163.299 101.075 164.23C106.262 165.294 109.72 169.151 108.257 176.333C106.927 182.717 103.602 195.352 100.543 205.46H114.907C118.365 205.46 120.36 207.455 120.36 210.913C120.36 214.371 118.365 216.366 114.907 216.366H92.5631V236.715C95.4891 232.459 98.149 227.804 100.277 223.282C102.671 218.627 107.592 217.164 111.981 220.09C116.636 223.149 117.168 227.804 113.444 231.661C109.055 236.316 104.267 240.306 100.011 243.099C106.528 246.557 112.247 250.414 117.301 254.537ZM9.17205 224.346H11.699C15.423 218.76 18.748 213.307 21.674 207.987C18.349 209.317 14.891 210.514 11.566 211.312C5.58105 212.775 1.05905 209.583 0.660046 203.332C0.261047 197.613 3.45305 193.889 8.90605 194.155C11.965 184.446 13.827 175.934 15.024 167.954C15.955 161.703 21.408 159.575 26.994 160.639C32.713 161.703 35.24 166.491 33.511 171.811C31.117 178.993 26.063 187.904 20.876 194.82C23.27 194.953 25.797 194.953 28.191 195.086C29.92 191.229 31.516 187.638 32.8461 184.047C34.9741 178.195 40.294 176.865 45.082 178.86C50.4021 181.121 52.6631 185.776 49.604 191.229C43.486 202.135 35.506 213.307 25.132 223.681C28.457 223.548 31.6491 223.149 34.841 222.75C34.5751 221.952 34.442 221.021 34.176 220.223C33.378 217.164 34.309 215.169 36.57 214.238C38.9641 213.307 40.6931 214.238 42.4221 216.499C45.7471 220.888 48.806 226.607 51.067 232.326C52.929 236.848 51.333 240.705 46.412 242.035C41.757 243.232 38.698 241.237 37.9 236.848L36.836 231.794C29.122 235.917 20.876 238.976 11.699 241.636C5.31505 243.498 0.793047 240.572 0.128047 234.454C-0.669953 228.602 2.25605 224.479 9.17205 224.346ZM72.214 188.702H87.509C88.174 185.643 88.8391 182.983 89.2381 180.855C89.5041 179.791 88.8391 179.126 87.7751 179.126H74.7411C73.943 182.318 73.1451 185.51 72.214 188.702ZM66.495 241.237C62.239 243.897 57.3181 242.567 55.722 238.311C54.126 234.055 52.131 229.134 50.269 225.543C48.939 223.016 49.4711 220.888 51.333 219.292C53.195 217.696 55.5891 217.962 57.717 219.691C62.106 223.282 65.6971 226.74 68.6231 230.996C71.2831 234.853 70.352 238.843 66.495 241.237ZM27.526 245.759C30.585 252.941 33.511 262.65 34.974 271.029C35.905 276.216 34.043 279.142 28.856 279.674C23.669 280.206 20.477 278.078 20.477 272.492C20.477 263.847 19.945 254.271 19.014 247.621C18.748 244.562 19.945 242.833 22.472 242.301C24.999 241.769 26.462 243.232 27.526 245.759ZM11.167 244.163C13.827 244.296 15.29 246.291 15.689 249.483C17.019 258.66 17.418 267.704 17.019 276.083C16.753 282.201 12.231 284.861 6.24605 283.398C0.660047 282.068 -1.06895 278.211 0.660046 273.157C3.45305 265.31 5.04905 257.463 6.24605 248.552C6.64505 245.493 8.77305 244.03 11.167 244.163Z" fill="#594A39"/>
<path d="M271.714 245.892C277.3 276.349 272.113 280.871 249.769 281.536C227.957 282.201 209.204 282.334 192.446 281.669C169.969 280.738 165.713 277.147 165.713 258.66V216.632C163.585 218.095 161.59 219.292 159.595 220.356C156.536 221.952 153.61 221.553 151.881 218.76C150.152 216.1 150.684 213.573 153.477 211.046C165.181 200.672 175.688 183.781 182.072 166.624C184.732 159.575 190.85 157.846 197.633 160.506C203.485 162.767 204.948 167.821 203.086 173.54H218.248C222.504 169.816 229.154 169.018 234.075 171.545C239.528 174.338 241.922 179.791 237.267 187.372C235.139 190.83 232.213 194.421 229.021 197.613H250.567C256.153 197.613 259.212 200.672 259.212 206.258V233.124C259.212 238.71 256.153 241.769 250.567 241.769H186.727V250.946C186.727 261.054 187.924 262.251 198.431 262.783C214.125 263.581 233.543 263.448 248.04 262.783C259.345 262.251 260.808 260.522 260.808 246.823C260.808 243.099 262.803 241.104 265.729 241.104C268.921 241.104 271.049 242.567 271.714 245.892ZM217.184 187.638C217.583 186.441 216.918 185.776 215.854 185.776H196.436C193.776 189.766 190.584 193.889 187.126 197.613H212.795C214.657 194.155 215.987 191.096 217.184 187.638ZM203.086 229.799V209.583H188.323C187.392 209.583 186.727 210.248 186.727 211.179V229.799H203.086ZM239.528 211.179C239.528 210.248 238.863 209.583 237.932 209.583H223.036V229.799H237.4C239.129 229.799 239.528 229.267 239.528 227.538V211.179Z" fill="#594A39"/>
<path d="M423.334 274.088C424.265 279.142 423.068 282.068 418.413 283.132C413.492 284.329 409.635 282.467 408.97 277.679L408.172 271.561C399.261 276.216 389.419 279.541 378.646 281.403C372.661 282.467 368.671 280.206 368.006 274.354C367.341 268.901 369.336 265.31 375.853 264.645C378.646 264.379 381.705 264.113 384.897 263.714V240.705H377.715C372.129 240.705 369.07 237.646 369.07 232.06V195.751C369.07 190.165 372.129 187.106 377.715 187.106H384.365V169.417C384.365 164.363 387.557 161.703 393.409 161.703C399.261 161.703 402.453 164.363 402.453 169.417V187.106H409.635C415.221 187.106 418.28 190.165 418.28 195.751V232.06C418.28 237.646 415.221 240.705 409.635 240.705H402.453V261.586C403.783 261.32 405.113 261.187 406.443 260.921C405.778 256.665 404.98 252.675 404.448 249.483C403.916 246.424 404.98 244.296 407.507 243.498C410.167 242.567 412.694 243.365 414.157 246.158C418.147 253.739 421.871 265.709 423.334 274.088ZM362.952 177.131H311.88C308.156 177.131 306.161 175.136 306.161 171.545C306.161 167.954 308.156 165.959 311.88 165.959H362.952C366.676 165.959 368.671 167.954 368.671 171.545C368.671 175.136 366.676 177.131 362.952 177.131ZM354.44 180.722C360.026 180.722 363.085 183.781 363.085 189.367V200.805C363.085 206.391 360.026 209.45 354.44 209.45H321.323C315.737 209.45 312.678 206.391 312.678 200.805V189.367C312.678 183.781 315.737 180.722 321.323 180.722H354.44ZM346.327 197.48V192.692C346.327 191.761 345.662 191.096 344.731 191.096H331.032C330.101 191.096 329.436 191.761 329.436 192.692V197.48C329.436 198.411 330.101 199.076 331.032 199.076H344.731C345.662 199.076 346.327 198.411 346.327 197.48ZM384.232 229.267H386.892V198.544H384.232C383.301 198.544 382.636 199.209 382.636 200.14V227.671C382.636 228.602 383.301 229.267 384.232 229.267ZM400.458 198.544V229.267H403.118C404.049 229.267 404.714 228.602 404.714 227.671V200.14C404.714 199.209 404.049 198.544 403.118 198.544H400.458ZM358.696 212.908C364.282 212.908 367.341 215.967 367.341 221.553V271.827C367.341 283.664 355.105 286.457 344.731 281.802C342.071 280.605 341.007 278.743 341.406 276.482C340.475 276.748 339.278 276.881 338.081 276.881C332.894 276.881 329.968 274.221 329.968 269.433V253.074H323.717V277.147C323.717 281.802 320.924 284.329 315.87 284.329C310.816 284.329 308.023 281.802 308.023 277.147V221.553C308.023 215.967 311.082 212.908 316.668 212.908H358.696ZM325.313 223.548C324.382 223.548 323.717 224.213 323.717 225.144V226.341C323.983 225.809 324.515 225.41 325.18 225.011C326.909 224.08 328.638 224.479 330.101 226.075C332.362 228.735 334.357 231.528 335.953 234.454C337.682 237.646 336.751 240.572 333.559 241.902C333.293 242.035 333.027 242.035 332.894 242.168H337.948C339.278 237.912 340.342 233.39 341.273 228.868C342.071 224.878 345.13 223.947 348.455 224.878C350.051 225.277 351.248 226.075 351.913 227.139V225.144C351.913 224.213 351.248 223.548 350.317 223.548H325.313ZM323.717 242.168H328.904C327.84 241.636 326.909 240.572 326.377 238.843C325.579 236.05 324.515 233.124 323.717 230.331V242.168ZM351.913 242.168V232.326C350.583 235.784 348.854 239.109 346.992 242.168H351.913ZM347.125 272.226C350.716 272.625 351.913 272.226 351.913 268.635V253.074H346.194V269.433C346.194 270.497 346.061 271.295 345.795 272.093C346.194 272.093 346.593 272.226 347.125 272.226Z" fill="#594A39"/>
<path d="M490.898 194.554C489.169 192.559 489.036 190.697 490.499 188.303C493.957 182.983 497.548 173.806 499.676 166.225C501.139 160.905 504.597 159.442 510.05 160.772C514.04 161.836 515.902 164.363 515.769 167.688H551.679C555.004 164.762 560.989 164.23 564.713 166.89C568.969 169.949 569.9 175.136 566.309 179.791C561.92 185.51 556.999 189.234 553.275 191.362C551.413 192.426 549.418 192.692 547.689 191.096C545.96 189.5 545.827 187.771 547.157 185.776C548.487 183.781 549.418 182.052 550.216 180.323C550.615 179.392 549.95 178.594 548.886 178.594H539.31C538.379 181.52 537.182 184.313 535.719 186.973C542.635 192.426 550.083 194.687 563.516 196.15C570.166 196.948 571.629 200.539 570.698 205.593C569.767 210.647 565.511 212.775 560.058 211.578C546.093 208.652 536.517 203.199 530 194.421C521.621 203.066 508.986 208.253 494.09 209.45C491.164 209.716 489.169 208.253 488.77 205.859C488.371 203.332 489.435 201.47 492.361 200.672C509.252 196.017 515.902 190.032 519.36 178.594H511.646C508.055 185.377 502.735 191.495 497.415 194.953C495.287 196.416 492.627 196.549 490.898 194.554ZM462.037 169.949C459.643 167.954 459.51 165.693 460.973 163.299C462.436 161.038 464.431 160.639 467.091 161.304C472.411 162.634 479.726 164.895 485.844 168.22C491.297 171.146 491.696 176.2 488.504 180.589C485.046 185.244 480.391 185.776 475.869 181.786C471.48 177.796 466.293 173.407 462.037 169.949ZM470.283 212.11C465.229 215.701 459.377 214.903 457.116 209.849C454.589 204.529 456.052 200.406 462.303 197.746C469.352 194.687 475.204 191.495 480.125 188.702C482.652 187.239 485.046 187.239 486.908 189.367C488.77 191.229 488.903 193.756 487.174 196.15C483.051 202.002 477.199 207.322 470.283 212.11ZM564.314 266.906C570.831 268.635 573.624 273.157 571.496 279.142C569.368 285.127 564.58 286.59 558.329 283.93C549.817 280.206 538.113 276.083 527.473 271.96C524.148 270.497 523.084 268.236 523.882 265.177C524.015 264.645 524.148 264.113 524.414 263.714H505.661L505.927 264.113C509.119 269.433 507.124 274.753 500.341 277.28C488.637 281.669 474.938 284.595 462.303 285.127C459.244 285.26 457.382 283.797 456.85 281.004C456.318 278.078 457.116 275.418 460.308 274.487C469.884 271.694 479.46 267.837 487.573 263.714H480.524C474.938 263.714 471.879 260.655 471.879 255.069V219.159C471.879 213.573 474.938 210.514 480.524 210.514H550.216C555.802 210.514 558.861 213.573 558.861 219.159V255.069C558.861 260.655 555.802 263.714 550.216 263.714H548.62C554.073 264.512 559.393 265.576 564.314 266.906ZM493.159 222.484V225.277H537.581V222.484C537.581 221.553 536.916 220.888 535.985 220.888H494.755C493.824 220.888 493.159 221.553 493.159 222.484ZM493.159 234.853V238.976H537.581V234.853H493.159ZM493.159 248.552V251.744C493.159 252.675 493.824 253.34 494.755 253.34H535.985C536.916 253.34 537.581 252.675 537.581 251.744V248.552H493.159Z" fill="#594A39"/>
<path d="M660.739 193.889C656.483 203.465 651.03 213.174 644.38 221.819V275.418C644.38 282.467 640.523 285.26 633.474 285.26C626.425 285.26 622.568 282.467 622.568 275.418V243.099C620.041 244.828 617.514 246.291 614.854 247.621C611.928 249.084 608.869 248.685 607.007 245.892C605.411 243.498 605.544 240.04 607.938 237.912C620.307 226.474 629.883 212.11 637.198 193.889H614.189C610.066 193.889 607.805 191.628 607.805 187.505C607.805 183.382 610.066 181.121 614.189 181.121H641.853C643.449 176.333 644.912 171.412 646.242 166.225C647.838 160.107 652.626 157.447 659.808 159.043C667.256 160.639 669.65 165.028 668.187 171.545C667.522 174.604 666.724 177.796 665.66 181.121H719.525C723.648 181.121 725.909 183.382 725.909 187.505C725.909 191.628 723.648 193.889 719.525 193.889H660.739ZM717.929 268.236C722.052 268.236 724.313 270.497 724.313 274.62C724.313 278.743 722.052 281.004 717.929 281.004H653.158C649.035 281.004 646.774 278.61 646.774 274.62C646.774 270.63 649.035 268.236 653.158 268.236H673.241V238.577H655.552C651.562 238.577 649.301 236.316 649.301 232.193C649.301 228.07 651.562 226.075 655.552 226.075H673.241V208.386C673.241 202.002 677.098 198.411 684.014 198.411C690.93 198.411 694.787 202.002 694.787 208.386V226.075H712.875C716.865 226.075 719.126 228.469 719.126 232.459C719.126 236.449 716.865 238.577 712.875 238.577H694.787V268.236H717.929Z" fill="#594A39"/>
<path d="M765.809 201.869C763.016 203.465 760.489 203.598 758.893 201.337C757.297 199.076 757.696 196.682 759.558 194.421C766.74 185.776 772.193 175.136 775.252 165.294C776.981 159.841 782.434 157.447 788.286 159.841C793.473 161.836 795.069 165.826 793.34 170.88H815.817C819.275 170.88 821.137 172.875 821.137 176.599C821.137 180.323 819.275 182.318 815.817 182.318H806.108C806.906 183.249 807.704 184.18 808.369 185.244C811.694 190.032 809.433 194.155 803.98 195.751C798.793 197.214 794.936 195.219 793.872 189.633C793.34 186.973 792.941 184.579 792.409 182.318H787.089C781.37 190.564 774.055 197.347 765.809 201.869ZM872.209 170.88C875.667 170.88 877.529 172.875 877.529 176.599C877.529 180.323 875.667 182.318 872.209 182.318H858.909C859.574 183.116 860.239 184.047 860.904 184.978C864.495 190.032 862.101 194.022 856.914 195.751C851.594 197.48 847.338 195.352 846.407 189.766C846.008 186.973 845.476 184.579 845.077 182.318H839.092C835.235 187.638 830.58 192.027 824.595 195.884C822.068 197.48 819.541 197.347 817.546 195.352C815.418 193.224 816.349 190.564 817.812 188.303C821.935 181.653 824.595 174.604 827.255 165.693C828.984 159.841 833.905 158.245 839.89 160.107C845.21 161.703 846.939 166.225 845.343 170.88H872.209ZM866.224 233.922C872.209 233.922 874.869 237.247 874.603 243.099C874.337 250.68 873.539 257.33 872.475 263.049C869.815 277.28 855.451 280.339 838.427 271.162C835.767 269.699 834.836 267.438 835.634 264.778C836.432 262.251 838.427 261.187 841.752 261.586C849.998 262.65 851.993 261.719 852.658 257.995C853.19 255.069 853.722 250.946 853.988 246.158C853.988 245.094 853.589 244.562 852.525 244.562H830.846V275.95C830.846 282.068 827.122 285.26 820.206 285.26C813.29 285.26 809.566 282.068 809.566 275.95V259.591C798.394 269.167 782.035 277.28 766.208 280.738C762.75 281.403 760.622 280.339 759.691 277.546C758.893 274.753 760.223 272.492 763.415 271.029C778.444 264.246 790.813 255.734 802.118 244.562H785.759L785.36 245.626C783.498 251.345 779.375 253.606 773.523 252.01C767.405 250.414 765.543 246.158 767.272 240.173C769.134 233.789 771.395 224.612 772.991 218.095C774.454 211.977 778.843 209.982 784.296 211.179C788.286 212.11 790.68 213.706 791.478 216.499H809.566V207.721H777.114C773.789 207.721 771.927 205.859 771.927 202.534C771.927 199.209 773.789 197.347 777.114 197.347H859.84C865.426 197.347 868.485 200.406 868.485 205.992V218.228C868.485 223.814 865.426 226.873 859.84 226.873H830.846V233.922H866.224ZM830.846 207.721V216.499H846.939C847.87 216.499 848.535 215.834 848.535 214.903V209.317C848.535 208.386 847.87 207.721 846.939 207.721H830.846ZM790.281 226.873C789.882 229.134 789.217 231.528 788.685 233.922H809.566V226.873H790.281Z" fill="#594A39"/>
<path d="M921.419 224.745C915.833 224.745 913.04 221.819 913.04 216.499C913.04 211.179 915.833 208.253 921.419 208.253H1019.17C1024.63 208.253 1027.55 211.179 1027.55 216.499C1027.55 221.819 1024.63 224.745 1019.17 224.745H921.419Z" fill="#594A39"/>
<path d="M1114.93 257.862C1116.26 260.522 1115.86 263.049 1113.2 264.778C1103.36 271.162 1088.47 277.014 1074.24 280.871C1067.72 282.6 1063.33 280.871 1062.13 274.886C1060.94 268.635 1063.06 264.645 1069.58 263.581C1073.31 263.049 1076.9 262.384 1080.35 261.852V255.069C1079.56 256.665 1077.83 257.729 1075.43 258.261C1071.18 259.192 1068.25 257.463 1067.59 252.675C1066.92 247.621 1066.12 240.838 1065.46 235.252C1065.19 232.592 1066.39 230.863 1068.65 230.198C1070.91 229.533 1073.17 230.331 1074.37 232.592C1076.76 237.38 1079.02 242.434 1080.35 248.286V227.671H1069.45C1065.86 227.671 1063.86 225.676 1063.86 222.085C1063.86 218.494 1065.86 216.499 1069.45 216.499H1080.35V206.923H1076.9C1075.57 206.923 1074.37 206.657 1073.57 205.992C1071.98 207.189 1070.38 208.253 1068.78 209.184C1066.26 210.647 1063.99 210.381 1062.27 208.253C1060.54 206.125 1060.8 203.997 1062.67 201.736C1070.11 193.224 1076.76 181.121 1081.15 166.89C1082.75 161.703 1087 159.176 1093.26 160.905C1098.57 162.368 1100.57 166.225 1099.51 171.013C1104.96 174.072 1110.41 178.195 1114.4 182.185C1118.13 186.175 1118.26 190.697 1113.87 194.421C1112.27 195.751 1110.54 196.549 1108.95 196.549C1110.68 197.48 1111.61 199.076 1111.61 201.47C1111.61 204.928 1109.61 206.923 1106.16 206.923H1099.24V216.499H1109.21C1112.81 216.499 1114.8 218.494 1114.8 222.085C1114.8 225.676 1112.81 227.671 1109.21 227.671H1099.24V250.015C1099.24 249.749 1099.37 249.616 1099.37 249.35C1100.44 245.626 1101.23 241.104 1102.17 235.784C1102.96 230.996 1105.89 229.267 1110.15 230.198C1114.27 231.129 1115.73 234.321 1114.27 238.444C1112.14 244.695 1109.75 249.483 1107.22 253.207C1105.62 255.468 1103.76 255.867 1101.63 254.803C1100.3 254.138 1099.51 253.207 1099.24 252.01V257.995L1109.08 255.601C1112.01 254.803 1113.87 255.601 1114.93 257.862ZM1177.71 266.64C1182.76 270.364 1183.56 276.083 1179.57 281.004C1175.45 286.058 1169.07 286.856 1163.61 281.403C1150.71 268.502 1143.66 246.158 1142.07 221.686H1136.61V263.049L1143.93 261.453C1146.59 260.788 1148.45 261.719 1149.38 263.98C1150.31 266.374 1150.18 268.236 1147.92 269.832C1139.54 275.684 1127.7 280.738 1115.86 283.93C1110.01 285.526 1105.49 283.93 1104.16 278.211C1102.96 272.758 1105.09 268.768 1111.61 267.704C1113.74 267.305 1115.73 267.039 1117.73 266.64V174.87C1117.73 169.284 1120.79 166.225 1126.37 166.225H1167.6C1173.19 166.225 1176.25 169.284 1176.25 174.87V213.041C1176.25 218.627 1173.19 221.686 1167.6 221.686H1152.31C1153.5 228.07 1155.1 234.188 1157.36 239.774C1159.76 236.981 1161.75 234.055 1163.74 230.863C1166.54 226.341 1171.06 225.011 1175.58 228.469C1180.1 232.06 1179.97 236.848 1175.45 240.838C1171.99 244.03 1167.6 246.956 1162.42 249.616C1166.41 256.266 1171.46 261.852 1177.71 266.64ZM1136.61 178.727V188.702H1157.63V178.727C1157.63 177.796 1156.96 177.131 1156.03 177.131H1138.21C1137.28 177.131 1136.61 177.796 1136.61 178.727ZM1105.89 196.017C1104.29 195.352 1102.96 193.889 1101.77 191.894C1099.9 188.702 1097.64 185.111 1094.98 181.387C1092.06 186.707 1088.47 191.628 1084.48 196.017H1105.89ZM1136.61 199.342V210.78H1156.03C1156.96 210.78 1157.63 210.115 1157.63 209.184V199.342H1136.61Z" fill="#594A39"/>
<path d="M1222.53 205.593C1219.74 207.056 1217.34 206.657 1215.61 204.396C1214.02 202.268 1214.29 199.741 1216.55 197.48C1224.39 189.367 1231.71 178.594 1237.03 167.023C1240.09 160.24 1245.27 158.777 1251.39 161.57C1257.11 164.23 1258.31 169.816 1254.19 176.067C1245.94 188.303 1234.1 199.209 1222.53 205.593ZM1272.41 178.461C1268.55 178.461 1266.42 176.333 1266.42 172.343C1266.42 168.353 1268.55 166.225 1272.41 166.225H1324.01C1327.87 166.225 1329.99 168.353 1329.99 172.343C1329.99 176.333 1327.87 178.461 1324.01 178.461H1272.41ZM1257.51 190.564C1262.96 193.224 1264.16 198.81 1259.77 205.726C1257.24 209.716 1254.32 213.706 1250.99 217.43V275.817C1250.99 281.935 1247.27 285.127 1240.35 285.127C1233.44 285.127 1229.71 281.935 1229.71 275.817V236.316C1226.92 238.045 1224.26 239.774 1221.47 241.237C1218.28 242.966 1216.15 242.434 1214.55 240.04C1212.96 237.646 1213.49 235.252 1215.88 232.991C1226.12 223.681 1235.43 210.514 1243.01 195.751C1246.6 188.835 1251.66 187.638 1257.51 190.564ZM1328 202.534C1331.72 202.534 1333.85 204.662 1333.85 208.519C1333.85 212.376 1331.72 214.504 1328 214.504H1314.57V267.837C1314.57 285.659 1296.21 289.782 1273.87 279.541C1270.68 278.078 1269.61 275.817 1270.28 272.891C1270.94 270.098 1273.2 268.901 1276.8 269.3C1291.56 271.162 1293.02 269.699 1293.02 261.32V214.504H1267.62C1263.76 214.504 1261.77 212.376 1261.77 208.519C1261.77 204.662 1263.76 202.534 1267.62 202.534H1328Z" fill="#594A39"/>
<path d="M10.705 78.12C8.81501 76.72 7.34501 74.725 6.29501 72.135C5.31502 69.475 4.86001 67.025 4.93001 64.785C4.86001 60.445 5.21002 55.965 5.98002 51.345C6.82001 46.725 7.90501 42.42 9.23502 38.43C10.145 35.91 11.125 33.355 12.175 30.765C13.225 28.175 14.31 25.725 15.43 23.415C16.55 21.035 17.635 19.04 18.685 17.43C20.855 13.72 23.06 10.745 25.3 8.505C27.61 6.265 29.36 4.795 30.55 4.095C32.51 3.115 34.855 2.38 37.585 1.89C40.315 1.33 42.975 1.33 45.565 1.89C47.385 2.38 49.17 3.08 50.92 3.99C52.74 4.9 54.315 6.02 55.645 7.35C56.415 8.05 57.01 8.785 57.43 9.555C57.85 10.325 58.06 11.13 58.06 11.97C58.06 13.02 57.57 14.035 56.59 15.015C55.61 15.995 54.525 16.66 53.335 17.01C52.145 17.36 51.235 17.15 50.605 16.38C49.695 14.98 48.82 13.93 47.98 13.23C47.14 12.46 46.265 11.9 45.355 11.55C44.585 11.06 43.535 10.815 42.205 10.815C40.945 10.815 39.58 11.06 38.11 11.55C36.64 11.97 35.24 12.74 33.91 13.86C33.42 14.28 32.755 14.875 31.915 15.645C31.145 16.415 30.305 17.36 29.395 18.48C28.555 19.53 27.785 20.685 27.085 21.945C25.125 25.165 23.445 28.455 22.045 31.815C20.715 35.105 19.525 38.71 18.475 42.63C17.985 44.24 17.46 46.235 16.9 48.615C16.34 50.925 15.815 53.235 15.325 55.545C14.905 57.855 14.625 59.885 14.485 61.635C14.275 64.085 14.345 66.01 14.695 67.41C15.045 68.81 15.78 69.755 16.9 70.245C18.02 70.665 19.595 70.63 21.625 70.14C23.445 69.72 25.265 69.02 27.085 68.04C28.975 66.99 30.795 65.695 32.545 64.155C34.295 62.545 35.87 60.655 37.27 58.485C38.53 56.105 39.545 53.935 40.315 51.975C41.155 50.015 41.575 48.475 41.575 47.355C41.645 46.165 41.05 45.605 39.79 45.675C36.92 45.745 34.61 45.64 32.86 45.36C31.18 45.08 30.025 44.38 29.395 43.26C28.485 43.05 27.995 42.28 27.925 40.95C27.925 39.62 28.59 38.535 29.92 37.695C31.11 37.065 32.755 36.68 34.855 36.54C36.955 36.4 39.09 36.47 41.26 36.75C43.5 36.96 45.285 37.45 46.615 38.22C48.155 38.99 49.205 40.145 49.765 41.685C50.395 43.155 50.71 44.73 50.71 46.41C50.78 48.09 50.675 49.665 50.395 51.135C49.765 53.585 48.89 55.965 47.77 58.275C46.72 60.585 45.285 62.93 43.465 65.31C42.415 66.78 40.98 68.32 39.16 69.93C37.34 71.54 35.415 72.975 33.385 74.235C31.425 75.565 29.57 76.615 27.82 77.385C25.02 78.645 22.08 79.555 19 80.115C15.99 80.675 13.225 80.01 10.705 78.12Z" fill="#B8C318"/>
<path d="M66.7898 70.455C66.1598 69.965 65.4598 69.335 64.6898 68.565C63.9898 67.795 63.7448 66.71 63.9548 65.31C64.1648 63.35 64.4448 61.635 64.7948 60.165C65.1448 58.625 65.5648 56.875 66.0548 54.915C66.1948 54.075 66.5448 52.64 67.1048 50.61C67.7348 48.58 68.4698 46.375 69.3098 43.995C70.1498 41.615 71.0248 39.375 71.9348 37.275C72.8448 35.105 73.6498 33.495 74.3498 32.445C75.1198 31.745 76.2398 31.395 77.7098 31.395C79.2498 31.395 80.2998 31.675 80.8598 32.235C81.6298 32.865 81.8748 33.985 81.5948 35.595C81.3148 37.135 80.3348 39.55 78.6548 42.84C78.3048 43.68 77.8498 44.59 77.2898 45.57C76.7998 46.48 76.4498 47.25 76.2398 47.88C76.0298 48.44 76.0998 48.685 76.4498 48.615C76.8698 47.845 77.6398 46.97 78.7598 45.99C79.8798 44.94 81.0698 43.925 82.3298 42.945C83.5898 41.965 84.7798 41.09 85.8998 40.32C87.0198 39.55 87.7898 39.06 88.2098 38.85C88.7698 38.5 89.3998 38.22 90.0998 38.01C90.8698 37.73 91.3948 37.52 91.6748 37.38C93.2848 36.61 95.0348 36.33 96.9248 36.54C98.8848 36.68 100.075 37.275 100.495 38.325C100.565 38.885 100.775 39.305 101.125 39.585C101.545 39.865 101.755 40.005 101.755 40.005C102.035 40.005 102.175 40.11 102.175 40.32C102.245 40.53 102.28 40.635 102.28 40.635C102.28 41.125 101.79 41.825 100.81 42.735C99.8998 43.645 98.8848 44.135 97.7648 44.205C96.8548 44.275 96.0498 44.45 95.3498 44.73C94.6498 45.01 93.8098 45.36 92.8298 45.78C90.1698 47.32 87.7548 48.685 85.5848 49.875C83.4848 51.065 81.3148 52.885 79.0748 55.335C78.5848 55.895 78.0598 56.42 77.4998 56.91C76.9398 57.4 76.3798 58.1 75.8198 59.01C75.4698 59.36 75.1198 60.13 74.7698 61.32C74.4198 62.51 74.1048 63.665 73.8248 64.785C73.6148 65.835 73.5098 66.465 73.5098 66.675C73.5098 66.675 73.4048 67.025 73.1948 67.725C72.9848 68.355 72.6348 68.985 72.1448 69.615C71.3048 70.735 70.4648 71.435 69.6248 71.715C68.8548 71.995 67.9098 71.575 66.7898 70.455Z" fill="#B8C318"/>
<path d="M131.297 71.19C129.197 72.38 126.957 73.08 124.577 73.29C122.267 73.43 120.097 73.115 118.067 72.345C116.037 71.505 114.392 70.28 113.132 68.67C112.432 67.76 111.767 66.325 111.137 64.365C110.507 62.335 110.402 59.605 110.822 56.175C111.242 52.955 112.222 49.7 113.762 46.41C115.372 43.12 117.332 40.215 119.642 37.695C121.952 35.175 124.472 33.46 127.202 32.55C128.182 32.2 129.162 31.955 130.142 31.815C131.192 31.605 132.557 31.57 134.237 31.71C135.847 31.92 137.282 32.34 138.542 32.97C139.802 33.53 140.712 34.16 141.272 34.86C142.392 35.98 143.127 37.065 143.477 38.115C143.827 39.165 143.967 40.18 143.897 41.16C143.547 43.4 142.532 45.815 140.852 48.405C139.242 50.995 136.967 52.92 134.027 54.18C132.837 54.67 131.437 54.985 129.827 55.125C128.217 55.265 126.012 55.055 123.212 54.495C121.532 54.145 120.412 54.32 119.852 55.02C119.362 55.72 119.152 57.085 119.222 59.115C119.362 60.375 119.642 61.495 120.062 62.475C120.552 63.385 121.427 64.015 122.687 64.365C124.297 64.645 125.452 64.68 126.152 64.47C126.852 64.19 127.727 63.805 128.777 63.315C129.337 62.965 129.862 62.58 130.352 62.16C130.912 61.74 131.437 61.32 131.927 60.9C132.487 60.48 132.942 60.165 133.292 59.955C133.642 59.675 133.992 59.5 134.342 59.43C134.692 59.36 135.042 59.325 135.392 59.325C136.162 59.395 136.897 59.815 137.597 60.585C138.297 61.355 138.752 62.09 138.962 62.79C138.962 63.35 138.612 64.155 137.912 65.205C137.212 66.185 136.267 67.235 135.077 68.355C133.957 69.405 132.697 70.35 131.297 71.19ZM129.932 47.775C130.422 47.565 131.122 47.075 132.032 46.305C133.012 45.535 133.887 44.73 134.657 43.89C135.427 42.98 135.812 42.28 135.812 41.79C135.812 41.02 135.287 40.355 134.237 39.795C133.257 39.235 131.962 39.13 130.352 39.48C129.792 39.62 129.127 40.005 128.357 40.635C127.587 41.265 126.817 42 126.047 42.84C125.277 43.61 124.612 44.38 124.052 45.15C123.492 45.85 123.107 46.41 122.897 46.83C123.177 47.18 123.737 47.46 124.577 47.67C125.417 47.88 126.327 47.985 127.307 47.985C128.357 47.985 129.232 47.915 129.932 47.775Z" fill="#B8C318"/>
<path d="M165.105 75.18C161.255 75.18 158.28 74.06 156.18 71.82C154.15 69.58 153.135 66.15 153.135 61.53C153.135 59.01 153.59 56.245 154.5 53.235C155.48 50.225 156.74 47.285 158.28 44.415C159.89 41.545 161.64 39.06 163.53 36.96C165.42 34.79 167.31 33.285 169.2 32.445C169.9 32.095 170.635 31.85 171.405 31.71C172.245 31.5 173.05 31.395 173.82 31.395C174.66 31.395 175.57 31.465 176.55 31.605C177.6 31.675 178.58 31.885 179.49 32.235C181.1 32.725 182.5 33.67 183.69 35.07C184.95 36.47 185.58 38.5 185.58 41.16C185.58 41.86 185.51 42.63 185.37 43.47C185.23 44.24 184.985 45.01 184.635 45.78C183.725 48.09 182.325 50.295 180.435 52.395C178.615 54.495 176.69 55.965 174.66 56.805C174.1 57.085 173.54 57.295 172.98 57.435C172.49 57.505 171.965 57.54 171.405 57.54C169.935 57.54 168.605 57.33 167.415 56.91C166.295 56.49 165.245 55.93 164.265 55.23L163.425 54.495L162.9 55.545C162.41 56.875 162.06 57.995 161.85 58.905C161.71 59.815 161.64 60.48 161.64 60.9C161.64 61.74 161.675 62.615 161.745 63.525C161.815 64.365 162.025 65.065 162.375 65.625C162.655 65.975 163.005 66.255 163.425 66.465C163.915 66.675 164.51 66.78 165.21 66.78C165.63 66.78 166.015 66.78 166.365 66.78C166.785 66.71 167.135 66.64 167.415 66.57C168.675 66.29 169.69 65.835 170.46 65.205C171.3 64.505 172.175 63.91 173.085 63.42L173.505 63.21L173.4 62.895C174.59 62.265 175.395 61.88 175.815 61.74C176.235 61.53 176.55 61.355 176.76 61.215C177.04 60.935 177.355 60.795 177.705 60.795C178.685 60.655 179.63 60.935 180.54 61.635C181.52 62.265 182.01 63.07 182.01 64.05C182.01 64.47 181.695 65.135 181.065 66.045C180.505 66.955 179.77 67.865 178.86 68.775C178.02 69.615 177.145 70.28 176.235 70.77C176.025 70.84 175.815 70.945 175.605 71.085C175.395 71.155 175.185 71.26 174.975 71.4H175.08C174.45 72.24 173.82 72.66 173.19 72.66H172.35C172.07 73.15 171.16 73.675 169.62 74.235C168.08 74.865 166.575 75.18 165.105 75.18ZM170.565 49.875C171.195 49.875 171.755 49.77 172.245 49.56C172.805 49.35 173.33 49.105 173.82 48.825C175.5 47.635 176.585 46.095 177.075 44.205C177.565 42.315 177.39 40.88 176.55 39.9C176.41 39.69 176.235 39.55 176.025 39.48C175.815 39.34 175.57 39.27 175.29 39.27C174.52 39.27 173.645 39.515 172.665 40.005C171.755 40.495 170.845 41.195 169.935 42.105C169.025 43.015 168.185 44.1 167.415 45.36L166.05 47.565C166.19 47.495 166.295 47.46 166.365 47.46C166.505 47.39 166.61 47.355 166.68 47.355C167.31 47.355 167.73 47.565 167.94 47.985C168.15 48.405 168.395 48.825 168.675 49.245C169.025 49.665 169.655 49.875 170.565 49.875Z" fill="#B8C318"/>
<path d="M231.463 72.87C230.413 72.87 229.398 72.555 228.418 71.925C227.438 71.225 226.633 70.28 226.003 69.09C225.373 67.83 225.058 66.36 225.058 64.68C225.058 63.63 225.233 62.16 225.583 60.27C226.003 58.31 226.598 55.86 227.368 52.92C227.508 51.94 227.613 51.31 227.683 51.03C227.823 50.75 227.893 50.47 227.893 50.19C227.893 50.05 227.858 49.945 227.788 49.875C227.788 49.735 227.718 49.665 227.578 49.665C227.018 49.665 226.248 50.05 225.268 50.82C224.358 51.52 223.308 52.36 222.118 53.34C221.908 53.48 221.663 53.655 221.383 53.865C221.173 54.075 220.928 54.285 220.648 54.495C220.438 54.705 220.193 54.915 219.913 55.125C219.213 55.545 218.128 56.35 216.658 57.54C215.258 58.73 213.788 59.99 212.248 61.32C210.778 62.65 209.483 63.77 208.363 64.68C207.803 65.1 207.313 65.45 206.893 65.73C206.543 66.01 206.298 66.15 206.158 66.15C206.018 66.15 205.458 65.975 204.478 65.625C203.568 65.205 202.658 64.645 201.748 63.945C200.908 63.175 200.488 62.3 200.488 61.32C200.488 60.69 200.733 59.43 201.223 57.54C201.783 55.65 202.553 53.41 203.533 50.82C204.513 48.23 205.633 45.605 206.893 42.945C207.173 42.315 207.383 41.475 207.523 40.425C207.663 39.375 207.803 38.36 207.943 37.38C208.153 36.33 208.503 35.56 208.993 35.07C209.203 34.72 209.448 34.475 209.728 34.335C210.078 34.125 210.428 34.02 210.778 34.02C211.478 34.02 212.143 34.195 212.773 34.545C213.403 34.825 213.998 35.315 214.558 36.015C215.608 37.135 216.168 38.465 216.238 40.005C216.378 41.475 216.273 42.91 215.923 44.31C215.573 45.71 215.188 46.865 214.768 47.775C214.348 48.615 214.138 48.965 214.138 48.825C214.418 48.685 214.803 48.335 215.293 47.775C215.853 47.215 216.798 46.55 218.128 45.78C219.948 44.38 221.348 43.4 222.328 42.84C223.308 42.21 224.043 41.755 224.533 41.475C225.093 41.195 225.583 40.88 226.003 40.53C226.353 40.25 226.598 40.075 226.738 40.005C226.948 39.935 227.053 39.9 227.053 39.9C227.263 39.9 227.613 39.76 228.103 39.48C228.663 39.2 229.188 39.06 229.678 39.06C230.378 39.06 231.113 39.235 231.883 39.585C232.653 39.865 233.318 40.285 233.878 40.845C234.438 41.335 234.718 41.86 234.718 42.42C234.718 42.63 234.788 42.805 234.928 42.945C235.068 43.085 235.208 43.26 235.348 43.47C235.698 43.89 236.083 44.485 236.503 45.255C236.993 45.955 237.238 47.11 237.238 48.72C237.238 49.84 236.993 51.485 236.503 53.655C236.013 55.825 235.488 57.96 234.928 60.06C234.368 62.23 234.088 63.98 234.088 65.31C234.158 66.57 234.298 67.55 234.508 68.25C234.718 68.88 234.823 69.405 234.823 69.825C234.823 70.385 234.543 71.05 233.983 71.82C233.423 72.52 232.583 72.87 231.463 72.87Z" fill="#B8C318"/>
<path d="M305.086 78.435C303.406 78.645 302.111 78.75 301.201 78.75C300.361 78.75 299.556 78.645 298.786 78.435C298.086 78.225 297.141 77.945 295.951 77.595C294.971 76.965 293.851 76.09 292.591 74.97C291.401 73.85 290.631 73.15 290.281 72.87C290.281 72.52 290.176 72.24 289.966 72.03C289.826 71.82 289.756 71.715 289.756 71.715C289.476 71.715 289.231 71.12 289.021 69.93C288.881 68.67 288.811 67.2 288.811 65.52C288.881 63.84 288.986 62.265 289.126 60.795C289.336 59.325 289.581 58.345 289.861 57.855C289.861 57.505 289.931 57.085 290.071 56.595C290.281 56.035 290.386 55.58 290.386 55.23C290.386 54.04 290.561 53.445 290.911 53.445C290.911 53.445 290.981 53.445 291.121 53.445C291.331 53.375 291.436 53.235 291.436 53.025C291.436 52.605 291.576 52.045 291.856 51.345C292.136 50.575 292.346 49.875 292.486 49.245C292.836 48.615 293.256 47.53 293.746 45.99C294.306 44.45 294.831 43.015 295.321 41.685C295.671 40.145 296.161 38.605 296.791 37.065C297.421 35.525 297.876 34.3 298.156 33.39C299.136 31.71 299.626 30.45 299.626 29.61C299.766 29.12 300.221 28.105 300.991 26.565C301.831 24.955 302.811 23.065 303.931 20.895C305.051 18.725 306.206 16.52 307.396 14.28C308.586 12.04 309.636 10.08 310.546 8.4C311.456 6.65 312.121 5.46 312.541 4.83C313.731 3.01 314.886 1.75 316.006 1.05C317.126 0.35 318.001 0 318.631 0C318.981 0.139998 319.471 0.524997 320.101 1.155C320.801 1.785 321.431 2.485 321.991 3.255C322.621 3.955 322.971 4.515 323.041 4.935C323.041 5.075 322.796 5.67 322.306 6.72C321.816 7.77 321.186 8.925 320.416 10.185C319.646 11.375 318.876 12.39 318.106 13.23C317.896 13.51 317.756 13.755 317.686 13.965C317.686 14.175 317.686 14.28 317.686 14.28C317.686 14.28 317.441 14.7 316.951 15.54C316.531 16.31 316.006 17.29 315.376 18.48C314.746 19.6 314.186 20.685 313.696 21.735C313.206 22.785 312.926 23.555 312.856 24.045C312.436 24.535 311.841 25.55 311.071 27.09C310.371 28.56 309.671 30.17 308.971 31.92C308.271 33.6 307.641 35.07 307.081 36.33C306.521 37.59 306.171 38.29 306.031 38.43C306.031 38.78 305.996 39.13 305.926 39.48C305.926 39.76 305.786 40.075 305.506 40.425C305.296 40.915 304.911 42.035 304.351 43.785C303.861 45.465 303.161 47.215 302.251 49.035C301.761 51.135 301.166 52.99 300.466 54.6C299.766 56.21 299.241 57.19 298.891 57.54C298.611 58.24 298.471 58.66 298.471 58.8C298.471 58.87 298.611 58.87 298.891 58.8C299.241 58.45 299.416 58.415 299.416 58.695C299.416 58.905 299.241 59.29 298.891 59.85C298.611 60.55 298.436 61.32 298.366 62.16C298.366 62.93 298.366 63.805 298.366 64.785C298.436 66.185 298.786 67.235 299.416 67.935C300.116 68.635 301.201 68.985 302.671 68.985C305.051 68.915 307.116 68.74 308.866 68.46C310.686 68.18 312.226 67.9 313.486 67.62C315.796 66.85 317.791 66.64 319.471 66.99C321.221 67.27 322.446 67.865 323.146 68.775C323.566 69.405 323.811 70.175 323.881 71.085C323.951 71.925 323.986 72.52 323.986 72.87C323.776 73.15 322.901 73.57 321.361 74.13C319.891 74.76 318.106 75.39 316.006 76.02C313.906 76.65 311.841 77.175 309.811 77.595C307.851 78.085 306.276 78.365 305.086 78.435Z" fill="#B8C318"/>
<path d="M351.788 74.235C350.878 74.305 350.143 74.2 349.583 73.92C349.023 73.71 348.323 73.36 347.483 72.87C345.943 71.68 344.648 70.21 343.598 68.46C342.618 66.71 342.163 65.24 342.233 64.05C342.374 63.42 342.374 62.86 342.233 62.37C342.163 61.88 342.128 61.635 342.128 61.635C341.708 61.285 341.568 61.075 341.708 61.005C341.848 60.865 341.953 60.655 342.023 60.375C342.583 60.235 342.654 59.85 342.233 59.22C342.023 58.66 342.128 57.4 342.548 55.44C343.038 53.41 343.668 51.52 344.438 49.77C344.788 49 345.278 47.985 345.908 46.725C346.608 45.465 347.378 44.205 348.218 42.945C349.058 41.615 349.828 40.565 350.528 39.795C352.068 38.045 353.433 36.61 354.623 35.49C355.883 34.37 357.283 33.53 358.823 32.97C360.223 32.41 361.623 32.165 363.023 32.235C364.493 32.305 365.788 32.795 366.908 33.705C368.588 34.195 370.094 34.965 371.423 36.015C372.753 36.995 373.663 38.395 374.153 40.215C374.713 42.245 374.888 44.66 374.678 47.46C374.538 50.19 373.348 53.725 371.108 58.065C369.779 60.795 368.448 63 367.118 64.68C365.858 66.36 364.318 67.97 362.498 69.51C361.168 70.63 359.453 71.61 357.353 72.45C355.253 73.29 353.398 73.885 351.788 74.235ZM360.923 58.38C361.833 57.12 362.533 55.895 363.023 54.705C363.583 53.515 364.108 51.87 364.598 49.77C364.808 49 364.913 48.055 364.913 46.935C364.983 45.815 364.948 44.8 364.808 43.89C364.738 42.91 364.493 42.385 364.073 42.315C363.163 41.965 362.219 41.965 361.238 42.315C360.328 42.595 359.243 43.435 357.983 44.835C356.863 46.095 355.953 47.285 355.253 48.405C354.623 49.455 354.028 50.75 353.468 52.29C352.978 53.76 352.418 55.685 351.788 58.065C351.228 60.375 351.193 62.23 351.683 63.63C352.243 65.03 353.293 65.415 354.833 64.785C356.373 64.155 358.404 62.02 360.923 58.38Z" fill="#B8C318"/>
<path d="M390.461 71.085C390.181 70.525 389.551 69.965 388.57 69.405C387.66 68.845 387.206 68.425 387.206 68.145C387.206 67.865 387.03 67.445 386.68 66.885C386.4 66.255 386.12 65.8 385.84 65.52C385.49 65.1 385.595 64.085 386.155 62.475C386.715 60.795 387.556 58.765 388.676 56.385C389.796 54.005 391.021 51.59 392.35 49.14C392.91 48.58 393.47 47.845 394.03 46.935C394.59 46.025 395.01 45.43 395.29 45.15C395.29 44.87 395.396 44.625 395.605 44.415C395.815 44.135 396.06 43.995 396.34 43.995L397.18 42.315C397.32 42.035 397.74 41.475 398.44 40.635C399.21 39.795 400.121 38.885 401.171 37.905C402.22 36.855 403.271 35.875 404.32 34.965C405.44 34.055 406.35 33.39 407.051 32.97C408.521 31.99 410.025 31.535 411.565 31.605C413.175 31.675 414.54 32.165 415.66 33.075C415.87 33.285 416.325 33.705 417.025 34.335C417.795 34.965 418.635 35.665 419.546 36.435C420.526 37.205 421.365 37.905 422.065 38.535L425.951 42L424.165 47.25C423.255 50.05 423.01 52.5 423.431 54.6C423.851 56.7 424.516 58.52 425.426 60.06C425.776 60.83 426.23 61.425 426.79 61.845C427.421 62.265 428.225 62.545 429.206 62.685C429.766 62.755 430.29 62.965 430.78 63.315C431.27 63.665 431.516 64.225 431.516 64.995C431.516 66.675 431.201 67.9 430.57 68.67C430.01 69.37 429.381 69.79 428.681 69.93C426.371 70.21 424.165 69.965 422.065 69.195C419.965 68.425 418.076 66.43 416.396 63.21C416.116 62.79 415.73 62.02 415.241 60.9C414.82 59.71 414.576 58.94 414.505 58.59C414.225 58.94 413.84 59.395 413.35 59.955C412.93 60.445 412.51 60.9 412.09 61.32C407.12 66.36 402.85 69.65 399.28 71.19C395.78 72.66 392.841 72.625 390.461 71.085ZM396.236 62.37C396.725 62.44 397.496 62.195 398.546 61.635C399.595 61.005 400.995 59.99 402.745 58.59C405.125 56.56 407.085 54.88 408.625 53.55C410.165 52.22 411.671 50.505 413.141 48.405L415.451 44.625C414.75 43.015 414.12 41.965 413.56 41.475C413 40.985 412.44 40.74 411.88 40.74C410.97 40.74 409.885 41.335 408.625 42.525C407.365 43.645 405.93 45.325 404.32 47.565C402.78 49.735 401.03 52.465 399.07 55.755C398.16 57.295 397.46 58.8 396.97 60.27C396.48 61.67 396.236 62.37 396.236 62.37Z" fill="#B8C318"/>
<path d="M448.661 69.72C448.381 69.72 447.716 69.475 446.666 68.985C445.616 68.425 444.951 68.005 444.671 67.725C444.181 67.165 443.866 66.57 443.726 65.94C443.586 65.24 443.516 63.91 443.516 61.95C443.516 59.71 443.971 57.19 444.881 54.39C445.791 51.52 447.331 47.705 449.501 42.945L453.806 34.23C454.156 33.74 454.471 33.32 454.751 32.97C455.031 32.55 455.346 32.165 455.696 31.815C455.836 31.815 456.011 31.815 456.221 31.815C456.501 31.815 456.711 31.85 456.851 31.92C457.481 31.99 458.461 32.375 459.791 33.075C461.191 33.775 462.031 34.825 462.311 36.225C462.311 37.135 462.171 38.22 461.891 39.48C461.611 40.67 460.771 42.245 459.371 44.205C458.811 44.905 458.251 45.92 457.691 47.25C457.201 48.58 456.746 49.84 456.326 51.03C456.256 51.17 456.046 51.52 455.696 52.08C455.416 52.57 455.136 53.095 454.856 53.655C454.576 54.145 454.436 54.46 454.436 54.6L454.016 55.545L458.531 51.135C461.681 47.985 464.341 45.745 466.511 44.415C468.681 43.085 470.501 42.525 471.971 42.735C473.511 42.945 474.736 43.82 475.646 45.36C476.136 46.06 476.486 46.83 476.696 47.67C476.906 48.44 477.046 49.35 477.116 50.4C477.186 51.45 477.151 52.78 477.011 54.39V60.375C478.341 60.025 479.356 59.745 480.056 59.535C480.756 59.255 481.456 59.01 482.156 58.8C482.716 58.66 483.276 58.52 483.836 58.38C484.466 58.24 485.236 58.135 486.146 58.065C486.076 58.975 485.691 60.095 484.991 61.425C484.291 62.755 483.416 64.085 482.366 65.415C481.386 66.745 480.301 67.865 479.111 68.775C477.991 69.685 476.941 70.14 475.961 70.14C475.051 70.14 474.001 69.86 472.811 69.3C471.621 68.67 470.606 67.48 469.766 65.73C469.486 64.82 469.206 63.77 468.926 62.58C468.646 61.39 468.506 60.13 468.506 58.8V54.18C468.506 53.76 468.471 53.48 468.401 53.34C468.401 53.13 468.366 53.025 468.296 53.025C468.016 53.025 467.106 53.76 465.566 55.23C464.096 56.7 462.591 58.24 461.051 59.85C457.831 63.21 455.136 65.695 452.966 67.305C450.866 68.915 449.431 69.72 448.661 69.72Z" fill="#B8C318"/>
<path d="M507.249 73.185C505.569 73.185 504.099 72.31 502.839 70.56C501.649 68.74 500.914 66.57 500.634 64.05C500.704 63.49 500.774 62.685 500.844 61.635C500.984 60.585 501.124 59.5 501.264 58.38C501.544 57.05 501.929 55.335 502.419 53.235C502.909 51.135 503.434 49.035 503.994 46.935C504.554 44.765 505.044 42.91 505.464 41.37C505.884 39.76 506.129 38.815 506.199 38.535C506.619 37.555 507.564 37.31 509.034 37.8C510.504 38.29 511.764 39.34 512.814 40.95C513.234 41.51 513.479 42.175 513.549 42.945C513.689 43.715 513.584 44.835 513.234 46.305C512.954 47.775 512.394 49.945 511.554 52.815C510.784 55.615 510.189 57.89 509.769 59.64C509.419 61.32 509.279 63.105 509.349 64.995C509.069 68.215 508.789 70.42 508.509 71.61C508.229 72.73 507.809 73.255 507.249 73.185ZM516.909 29.61C516.629 29.82 516.349 29.925 516.069 29.925C515.859 29.855 515.474 29.645 514.914 29.295C514.424 29.225 513.794 28.91 513.024 28.35C512.324 27.72 511.694 27.09 511.134 26.46C510.644 25.83 510.399 25.445 510.399 25.305C510.329 24.605 510.364 23.485 510.504 21.945C510.714 20.405 511.099 18.97 511.659 17.64C512.289 16.24 513.129 15.505 514.179 15.435C514.459 15.435 515.054 15.575 515.964 15.855C516.944 16.135 517.959 16.485 519.009 16.905C519.569 17.955 520.094 19.32 520.584 21C521.074 22.68 521.109 24.325 520.689 25.935C520.339 27.475 519.079 28.7 516.909 29.61Z" fill="#B8C318"/>
<path d="M564.82 70.77C563.28 70.63 561.985 70.315 560.935 69.825C559.955 69.265 559.15 68.18 558.52 66.57C558.24 65.45 558.1 64.295 558.1 63.105C558.17 61.845 558.275 60.655 558.415 59.535C558.555 58.345 558.625 57.33 558.625 56.49C558.625 56.35 558.625 56.07 558.625 55.65C558.625 55.23 558.625 54.845 558.625 54.495C558.485 53.445 558.205 52.815 557.785 52.605C557.435 52.325 556.805 52.36 555.895 52.71C554.425 53.41 552.815 54.355 551.065 55.545C549.385 56.665 547.6 57.995 545.71 59.535C543.89 61.005 542 62.58 540.04 64.26C538.5 65.94 537.345 67.305 536.575 68.355C535.875 69.405 535.14 69.93 534.37 69.93C533.81 70.21 533.215 70.14 532.585 69.72C531.955 69.3 531.29 68.81 530.59 68.25C530.1 67.69 529.505 66.99 528.805 66.15C528.175 65.24 527.79 64.645 527.65 64.365C527.65 63.245 527.72 62.23 527.86 61.32C528.07 60.41 528.35 59.465 528.7 58.485C529.12 57.505 529.61 56.385 530.17 55.125C530.45 54.635 530.695 54.145 530.905 53.655C531.185 53.095 531.5 52.5 531.85 51.87C532.13 50.89 532.515 49.77 533.005 48.51C533.565 47.25 534.09 46.06 534.58 44.94C535.35 43.12 535.945 41.545 536.365 40.215C536.785 38.885 537.135 37.45 537.415 35.91C537.345 35.77 537.38 35.56 537.52 35.28C537.66 35 537.87 34.825 538.15 34.755H538.36C538.85 34.405 539.76 34.37 541.09 34.65C542.49 34.86 543.54 35.245 544.24 35.805C545.71 37.065 546.41 38.71 546.34 40.74C546.27 42.77 545.22 45.43 543.19 48.72C542.7 49.84 542.175 50.89 541.615 51.87C541.125 52.78 540.88 53.41 540.88 53.76C540.88 53.76 541.16 53.55 541.72 53.13C542.28 52.71 542.945 52.22 543.715 51.66C544.485 51.03 545.15 50.54 545.71 50.19C546.06 49.84 546.83 49.21 548.02 48.3C549.21 47.32 550.505 46.305 551.905 45.255C553.305 44.205 554.425 43.4 555.265 42.84C556.035 42.28 557.015 41.72 558.205 41.16C559.395 40.53 560.13 40.215 560.41 40.215C561.11 40.215 561.95 40.46 562.93 40.95C563.98 41.44 564.925 42.035 565.765 42.735C566.675 43.365 567.2 43.96 567.34 44.52C567.34 44.8 567.305 45.185 567.235 45.675C567.165 46.095 567.13 46.48 567.13 46.83C567.06 47.95 567.025 49.315 567.025 50.925C567.095 52.465 567.13 54.04 567.13 55.65C567.13 57.19 566.99 58.59 566.71 59.85C566.71 59.85 566.745 59.92 566.815 60.06C566.885 60.13 566.955 60.27 567.025 60.48C566.955 60.55 566.92 60.69 566.92 60.9C566.99 61.04 567.025 61.11 567.025 61.11C567.165 61.6 567.305 62.09 567.445 62.58C567.655 63.07 567.9 63.63 568.18 64.26C568.46 64.82 568.775 65.555 569.125 66.465C569.055 67.375 568.53 68.285 567.55 69.195C566.64 70.035 565.73 70.56 564.82 70.77Z" fill="#B8C318"/>
<path d="M594.638 93.66C593.868 93.73 592.678 93.555 591.068 93.135C589.458 92.785 587.883 92.085 586.343 91.035C584.453 89.425 583.158 88.095 582.458 87.045C581.758 85.995 581.373 85.05 581.303 84.21C581.303 83.44 581.338 82.74 581.408 82.11C581.758 80.57 582.493 79.835 583.613 79.905C584.803 79.975 585.713 80.29 586.343 80.85C587.043 81.41 587.778 82.075 588.548 82.845C589.388 83.685 590.193 84.42 590.963 85.05C591.803 85.68 592.503 85.96 593.063 85.89C594.463 85.75 595.618 85.155 596.528 84.105C597.438 83.125 598.348 81.55 599.258 79.38C599.818 77.84 600.238 76.51 600.518 75.39C600.868 74.27 601.218 73.045 601.568 71.715C601.918 70.385 602.338 68.6 602.828 66.36C603.178 64.75 603.423 63.63 603.563 63C603.773 62.3 603.878 61.88 603.878 61.74C603.878 61.53 603.843 61.425 603.773 61.425C603.773 61.425 603.528 61.565 603.038 61.845C602.548 62.125 601.848 62.44 600.938 62.79C600.098 63.14 599.153 63.49 598.103 63.84C596.143 64.47 594.183 65.03 592.223 65.52C590.263 65.94 588.758 65.975 587.708 65.625C586.658 65.205 585.818 64.505 585.188 63.525C584.558 62.545 584.138 61.495 583.928 60.375C583.788 59.255 583.753 58.345 583.823 57.645C583.963 57.085 584.278 56.175 584.768 54.915C585.258 53.655 585.818 52.325 586.448 50.925C587.078 49.525 587.673 48.3 588.233 47.25C588.793 46.2 589.248 45.64 589.598 45.57C589.878 45.43 590.123 45.15 590.333 44.73C590.613 44.24 590.753 43.855 590.753 43.575C590.823 43.295 591.103 42.84 591.593 42.21C592.153 41.58 593.728 40.355 596.318 38.535C598.908 36.085 601.253 34.265 603.353 33.075C605.453 31.815 607.378 31.115 609.128 30.975C609.618 31.045 610.073 31.08 610.493 31.08C610.983 31.08 611.228 31.08 611.228 31.08C611.228 31.08 611.613 31.185 612.383 31.395C613.153 31.605 613.923 31.885 614.693 32.235C615.603 32.585 616.583 33.425 617.633 34.755C618.683 36.015 619.593 37.415 620.363 38.955C621.133 40.495 621.553 41.895 621.623 43.155C621.553 44.695 621.203 46.235 620.573 47.775C619.943 49.315 619.348 50.05 618.788 49.98C618.228 49.91 617.598 50.12 616.898 50.61C616.268 51.03 615.778 51.87 615.428 53.13C615.218 53.41 614.973 53.865 614.693 54.495C614.413 55.055 614.098 55.615 613.748 56.175C613.678 56.525 613.503 57.4 613.223 58.8C612.943 60.13 612.593 61.635 612.173 63.315C611.823 64.925 611.508 66.43 611.228 67.83C610.948 69.16 610.773 70.035 610.703 70.455C610.633 70.735 610.458 71.4 610.178 72.45C609.898 73.43 609.548 74.55 609.128 75.81C608.778 77.07 608.393 78.225 607.973 79.275C607.693 81.305 607.133 83.055 606.293 84.525C605.453 86.065 604.543 87.43 603.563 88.62C601.953 90.37 600.343 91.595 598.733 92.295C597.193 93.065 595.828 93.52 594.638 93.66ZM592.643 56.91C592.853 57.47 593.413 57.68 594.323 57.54C595.303 57.4 596.633 57.085 598.313 56.595C600.343 55.755 601.848 55.09 602.828 54.6C603.878 54.11 604.683 53.48 605.243 52.71C605.663 52.15 606.048 51.59 606.398 51.03C606.818 50.47 607.203 49.98 607.553 49.56C607.693 49.42 607.903 49.175 608.183 48.825C608.533 48.475 608.813 48.16 609.023 47.88C609.443 47.6 609.793 47.355 610.073 47.145C610.423 46.865 610.738 46.62 611.018 46.41C611.368 46.27 611.683 45.955 611.963 45.465C612.243 44.905 612.313 44.345 612.173 43.785C612.103 43.295 611.788 42.63 611.228 41.79C610.668 40.88 609.898 40.18 608.918 39.69C608.008 39.13 606.923 39.515 605.663 40.845C604.473 42.175 602.548 43.96 599.888 46.2C598.348 47.88 596.983 49.455 595.793 50.925C594.603 52.325 593.728 53.55 593.168 54.6C592.608 55.58 592.433 56.35 592.643 56.91Z" fill="#B8C318"/>
<path d="M672.07 71.4C671.23 71.61 670.285 71.365 669.235 70.665C668.185 69.965 667.24 69.09 666.4 68.04C665.56 66.99 665.035 66.045 664.825 65.205C664.545 63.735 664.615 61.95 665.035 59.85C665.525 57.68 666.33 55.405 667.45 53.025C668.57 50.575 669.97 48.195 671.65 45.885C673.33 43.505 675.22 41.37 677.32 39.48C679.42 37.59 681.695 36.12 684.145 35.07C685.195 34.51 685.93 34.16 686.35 34.02C686.77 33.81 687.19 33.81 687.61 34.02C688.03 34.16 688.765 34.51 689.815 35.07C690.795 35.35 691.775 35.7 692.755 36.12C693.805 36.47 694.715 37.17 695.485 38.22C696.045 39.27 696.465 40.32 696.745 41.37C697.025 42.42 697.27 43.61 697.48 44.94C698.04 46.69 698.25 47.845 698.11 48.405C697.97 48.895 697.76 49.28 697.48 49.56C696.92 50.26 696.78 50.61 697.06 50.61C697.06 50.61 697.025 50.75 696.955 51.03C696.955 51.24 696.815 51.59 696.535 52.08C696.045 53.62 695.66 55.09 695.38 56.49C695.17 57.82 695.205 59.01 695.485 60.06C696.045 61.6 696.78 62.51 697.69 62.79C698.67 63.07 699.93 62.44 701.47 60.9C702.24 60.34 703.115 59.99 704.095 59.85C705.075 59.64 705.565 59.815 705.565 60.375C705.565 60.375 705.67 60.48 705.88 60.69C706.09 60.83 706.335 60.9 706.615 60.9C706.965 60.9 707.105 61.25 707.035 61.95C706.965 62.58 706.825 63.315 706.615 64.155C706.405 64.995 706.125 65.695 705.775 66.255C704.725 67.305 704.2 68.005 704.2 68.355C704.2 68.355 704.06 68.495 703.78 68.775C703.57 68.985 703.185 69.335 702.625 69.825C701.365 70.595 699.755 70.98 697.795 70.98C695.905 70.98 694.435 70.595 693.385 69.825C692.335 69.055 691.285 68.11 690.235 66.99C689.255 65.87 688.625 64.82 688.345 63.84L687.82 62.79L684.775 64.785C684.005 65.555 683.445 66.15 683.095 66.57C682.745 66.92 682.43 67.235 682.15 67.515C681.94 67.795 681.695 68.04 681.415 68.25C681.205 68.46 680.96 68.565 680.68 68.565C680.4 68.565 680.155 68.565 679.945 68.565C679.735 68.565 679.63 68.565 679.63 68.565C679.63 68.845 679.14 69.23 678.16 69.72C677.18 70.14 676.095 70.525 674.905 70.875C673.715 71.225 672.77 71.4 672.07 71.4ZM674.275 62.58C674.695 62.58 675.325 62.335 676.165 61.845C677.075 61.285 678.055 60.62 679.105 59.85C680.155 59.08 681.1 58.31 681.94 57.54C682.85 56.77 683.515 56.14 683.935 55.65C684.215 55.37 684.53 54.915 684.88 54.285C685.3 53.655 685.755 53.095 686.245 52.605C687.855 50.785 688.87 49.35 689.29 48.3C689.71 47.18 689.535 45.99 688.765 44.73C688.485 43.96 688.135 43.54 687.715 43.47C687.295 43.4 686.42 43.645 685.09 44.205C684.25 44.695 683.34 45.5 682.36 46.62C681.38 47.74 680.365 49 679.315 50.4C678.335 51.8 677.425 53.235 676.585 54.705C675.745 56.175 675.045 57.505 674.485 58.695C673.995 59.885 673.75 60.83 673.75 61.53C673.75 61.81 673.82 62.055 673.96 62.265C674.17 62.475 674.275 62.58 674.275 62.58Z" fill="#B8C318"/>
<path d="M728.029 79.59C724.599 79.52 722.394 78.54 721.414 76.65C720.504 74.83 720.259 72.52 720.679 69.72C721.099 68.39 721.344 67.2 721.414 66.15C721.554 65.03 721.869 64.33 722.359 64.05C722.359 64.05 722.394 63.945 722.464 63.735C722.604 63.525 722.569 63.315 722.359 63.105C722.359 62.195 722.674 60.935 723.304 59.325C723.444 58.905 723.619 58.415 723.829 57.855C724.109 57.225 724.249 56.91 724.249 56.91C723.899 56.35 723.899 55.895 724.249 55.545C724.599 55.195 724.949 54.88 725.299 54.6C725.719 54.25 725.754 53.865 725.404 53.445C725.264 53.165 725.439 52.535 725.929 51.555C726.419 50.505 726.979 49.42 727.609 48.3C728.239 47.18 728.659 46.305 728.869 45.675C728.869 45.535 729.044 45.045 729.394 44.205C729.744 43.365 730.164 42.385 730.654 41.265C731.144 40.145 731.599 39.13 732.019 38.22C732.509 37.31 732.824 36.715 732.964 36.435C733.664 36.085 733.384 35.84 732.124 35.7C730.864 35.56 729.534 35.525 728.134 35.595C725.964 35.525 724.214 35.42 722.884 35.28C721.624 35.14 720.574 34.825 719.734 34.335C718.894 33.355 718.789 32.2 719.419 30.87C720.049 29.47 721.064 28.735 722.464 28.665C723.374 28.595 724.074 28.56 724.564 28.56C725.124 28.56 725.824 28.525 726.664 28.455C727.574 28.315 728.974 28.14 730.864 27.93L736.219 27.51L736.534 25.725C737.094 24.815 737.479 24.22 737.689 23.94C737.899 23.66 738.039 23.38 738.109 23.1C738.179 22.75 738.284 22.155 738.424 21.315C738.424 21.315 738.739 20.755 739.369 19.635C739.999 18.445 740.384 17.22 740.524 15.96C741.364 14.56 742.099 13.3 742.729 12.18C743.359 10.99 743.744 10.255 743.884 9.975C745.074 8.225 746.229 7.28 747.349 7.14C748.539 7 749.659 7.28 750.709 7.98C751.339 8.33 751.934 8.785 752.494 9.345C753.054 9.835 753.404 10.5 753.544 11.34C753.684 12.11 753.369 13.125 752.599 14.385C752.459 14.665 752.249 15.19 751.969 15.96C751.689 16.66 751.479 17.255 751.339 17.745C750.919 18.235 750.394 19.04 749.764 20.16C749.204 21.21 748.819 22.295 748.609 23.415C748.049 24.605 747.699 25.34 747.559 25.62C747.419 25.9 747.209 26.04 746.929 26.04C747.069 26.74 747.489 27.09 748.189 27.09C748.889 27.02 750.044 26.95 751.654 26.88C752.984 26.74 753.894 26.6 754.384 26.46C754.944 26.25 755.574 26.32 756.274 26.67C756.624 27.16 756.799 27.895 756.799 28.875C756.869 29.785 756.764 30.695 756.484 31.605C756.204 32.445 755.819 32.97 755.329 33.18C754.979 33.18 754.244 33.39 753.124 33.81C752.074 34.16 750.744 34.37 749.134 34.44L743.569 34.965L741.784 38.535C741.294 39.445 740.874 40.285 740.524 41.055C740.174 41.755 739.929 42.175 739.789 42.315C739.789 42.735 739.544 43.365 739.054 44.205C738.634 45.045 738.179 45.955 737.689 46.935C737.269 48.125 736.779 49.21 736.219 50.19C735.729 51.17 735.484 51.66 735.484 51.66C735.204 51.66 735.064 51.87 735.064 52.29C735.414 53.13 735.309 53.76 734.749 54.18C734.399 54.39 734.084 54.705 733.804 55.125C733.594 55.475 733.489 55.65 733.489 55.65C733.769 55.93 733.804 56.28 733.594 56.7C733.454 57.12 733.244 57.575 732.964 58.065C732.964 58.625 732.789 59.43 732.439 60.48C732.159 61.53 731.844 62.51 731.494 63.42C731.564 64.68 731.634 65.485 731.704 65.835C731.774 66.185 731.949 66.325 732.229 66.255C732.579 66.325 733.069 66.325 733.699 66.255C734.329 66.185 734.784 66.15 735.064 66.15C736.114 65.66 735.624 68.11 733.594 73.5C732.474 75.25 731.354 76.685 730.234 77.805C729.114 78.995 728.379 79.59 728.029 79.59Z" fill="#B8C318"/>
<path d="M839.354 41.685C838.934 41.965 838.059 42.315 836.729 42.735C835.469 43.085 833.299 43.435 830.219 43.785C829.309 43.855 828.014 43.925 826.334 43.995C824.654 44.065 822.834 44.135 820.874 44.205C818.984 44.275 817.234 44.31 815.624 44.31C814.084 44.24 812.999 44.135 812.369 43.995C812.369 43.995 812.194 44.17 811.844 44.52C811.564 44.87 811.424 45.325 811.424 45.885C810.934 46.725 810.339 47.985 809.639 49.665C808.939 51.275 808.169 53.06 807.329 55.02C806.559 56.98 805.824 58.94 805.124 60.9C804.424 62.79 803.829 64.47 803.339 65.94C802.919 67.34 802.709 68.32 802.709 68.88C802.079 70.56 801.694 71.995 801.554 73.185C801.414 74.375 801.169 75.075 800.819 75.285C800.609 76.335 799.944 76.86 798.824 76.86C797.774 76.86 796.969 76.545 796.409 75.915C794.869 75.145 793.819 74.165 793.259 72.975C792.699 71.715 792.664 70.315 793.154 68.775C793.364 67.865 793.714 66.535 794.204 64.785C794.764 62.965 795.359 60.97 795.989 58.8C796.689 56.63 797.389 54.53 798.089 52.5C798.859 50.4 799.594 48.685 800.294 47.355C801.064 46.025 801.554 44.835 801.764 43.785C801.974 42.665 802.254 41.65 802.604 40.74C802.534 39.97 802.534 39.48 802.604 39.27C802.674 38.99 802.954 38.535 803.444 37.905C803.794 37.625 804.214 37.135 804.704 36.435C805.264 35.665 805.894 34.51 806.594 32.97C806.804 32.27 807.119 31.325 807.539 30.135C808.029 28.875 808.484 27.615 808.904 26.355C809.324 25.025 809.709 23.905 810.059 22.995C810.409 22.085 810.584 21.595 810.584 21.525C810.724 21.245 810.934 20.72 811.214 19.95C811.494 19.11 811.704 18.445 811.844 17.955C812.124 16.975 812.334 16.17 812.474 15.54C812.684 14.91 812.649 14.595 812.369 14.595C811.809 14.735 810.689 14.84 809.009 14.91C808.169 15.05 807.539 15.155 807.119 15.225C806.769 15.225 806.454 15.26 806.174 15.33C805.474 15.4 804.844 15.33 804.284 15.12C803.724 14.91 803.444 14.49 803.444 13.86C803.584 12.74 803.969 11.585 804.599 10.395C805.299 9.205 806.174 8.575 807.224 8.505C807.714 8.365 808.239 8.26 808.799 8.19C809.429 8.05 810.269 7.84 811.319 7.56C812.649 7.28 813.804 7.21 814.784 7.35C815.834 7.42 816.569 7.525 816.989 7.665C817.339 7.455 817.619 7.245 817.829 7.035C818.109 6.755 818.284 6.475 818.354 6.195C818.704 4.935 819.334 3.99 820.244 3.36C821.154 2.66 822.099 2.31 823.079 2.31C824.129 2.24 824.969 2.52 825.599 3.15C826.229 3.71 826.404 4.655 826.124 5.985C826.194 6.195 826.264 6.37 826.334 6.51C826.474 6.65 826.999 6.65 827.909 6.51C828.889 6.3 830.569 5.95 832.949 5.46C834.209 5.32 835.784 5.18 837.674 5.04C839.634 4.9 841.174 5.005 842.294 5.355C843.484 5.145 844.534 5.075 845.444 5.145C846.424 5.145 847.089 5.005 847.439 4.725C848.909 5.005 849.959 5.215 850.589 5.355C851.289 5.425 851.849 5.635 852.269 5.985C852.549 6.265 852.654 6.545 852.584 6.825C852.514 7.035 852.479 7.14 852.479 7.14C852.199 7 852.164 7 852.374 7.14C852.584 7.21 852.864 7.385 853.214 7.665C853.704 7.875 853.949 8.33 853.949 9.03C854.019 9.66 853.984 10.325 853.844 11.025C853.774 11.655 853.704 12.075 853.634 12.285C853.564 12.915 853.214 13.3 852.584 13.44C851.954 13.51 850.379 13.51 847.859 13.44C844.849 13.02 842.049 12.88 839.459 13.02C836.939 13.09 833.754 13.405 829.904 13.965C828.364 14.035 827.034 14.245 825.914 14.595C824.864 14.875 824.339 15.015 824.339 15.015C824.059 15.015 823.569 15.505 822.869 16.485C822.169 17.395 821.504 18.76 820.874 20.58C820.594 21.07 820.104 22.085 819.404 23.625C818.774 25.165 818.109 26.845 817.409 28.665C816.709 30.415 816.079 31.99 815.519 33.39C814.959 34.72 814.609 35.455 814.469 35.595C815.449 35.875 816.954 36.015 818.984 36.015C821.084 36.015 823.394 35.945 825.914 35.805C828.434 35.595 830.814 35.385 833.054 35.175C834.104 34.965 835.189 34.79 836.309 34.65C837.429 34.51 838.199 34.475 838.619 34.545C839.459 34.615 840.089 35.175 840.509 36.225C840.929 37.205 841.069 38.255 840.929 39.375C840.789 40.425 840.264 41.195 839.354 41.685Z" fill="#B8C318"/>
<path d="M853.906 71.505C853.346 70.945 852.926 70.105 852.646 68.985C852.436 67.865 852.366 66.78 852.436 65.73C852.506 64.61 852.681 63.77 852.961 63.21C852.961 62.65 853.031 62.23 853.171 61.95C853.381 61.6 853.451 61.285 853.381 61.005C853.311 60.725 853.381 60.235 853.591 59.535C853.801 58.835 854.011 58.17 854.221 57.54C854.711 56.42 855.271 54.985 855.901 53.235C856.531 51.415 857.161 49.595 857.791 47.775C858.421 45.885 858.946 44.275 859.366 42.945C859.786 41.545 860.031 40.705 860.101 40.425C860.101 39.585 860.661 39.13 861.781 39.06C862.621 38.78 863.636 39.13 864.826 40.11C866.016 41.09 866.961 42.14 867.661 43.26C868.221 43.82 868.431 44.555 868.291 45.465C868.151 46.375 867.696 47.67 866.926 49.35C866.646 49.91 866.296 50.855 865.876 52.185C865.526 53.445 865.281 54.495 865.141 55.335C864.861 55.895 864.511 56.7 864.091 57.75C863.741 58.73 863.426 59.675 863.146 60.585C863.006 60.935 862.866 61.6 862.726 62.58C862.586 63.49 862.411 64.435 862.201 65.415C861.991 66.395 861.711 67.165 861.361 67.725C860.731 70.595 859.611 72.275 858.001 72.765C856.461 73.255 855.096 72.835 853.906 71.505ZM865.246 29.4C864.476 28.84 863.881 28.175 863.461 27.405C863.111 26.565 862.901 25.83 862.831 25.2C862.831 24.57 862.901 24.185 863.041 24.045C863.741 23.275 864.336 22.26 864.826 21C865.386 19.74 865.981 18.585 866.611 17.535C866.751 17.325 866.926 17.045 867.136 16.695C867.416 16.275 867.696 16.03 867.976 15.96C868.816 15.4 869.971 15.435 871.441 16.065C872.981 16.695 874.101 17.57 874.801 18.69C875.431 20.02 875.606 21.385 875.326 22.785C875.116 24.185 874.381 25.655 873.121 27.195C872.071 28.595 870.741 29.505 869.131 29.925C867.521 30.275 866.226 30.1 865.246 29.4Z" fill="#B8C318"/>
<path d="M884.596 70.455C883.966 69.965 883.266 69.335 882.496 68.565C881.796 67.795 881.551 66.71 881.761 65.31C881.971 63.35 882.251 61.635 882.601 60.165C882.951 58.625 883.371 56.875 883.861 54.915C884.001 54.075 884.351 52.64 884.911 50.61C885.541 48.58 886.276 46.375 887.116 43.995C887.956 41.615 888.831 39.375 889.741 37.275C890.651 35.105 891.456 33.495 892.156 32.445C892.926 31.745 894.046 31.395 895.516 31.395C897.056 31.395 898.106 31.675 898.666 32.235C899.436 32.865 899.681 33.985 899.401 35.595C899.121 37.135 898.141 39.55 896.461 42.84C896.111 43.68 895.656 44.59 895.096 45.57C894.606 46.48 894.256 47.25 894.046 47.88C893.836 48.44 893.906 48.685 894.256 48.615C894.676 47.845 895.446 46.97 896.566 45.99C897.686 44.94 898.876 43.925 900.136 42.945C901.396 41.965 902.586 41.09 903.706 40.32C904.826 39.55 905.596 39.06 906.016 38.85C906.576 38.5 907.206 38.22 907.906 38.01C908.676 37.73 909.201 37.52 909.481 37.38C911.091 36.61 912.841 36.33 914.731 36.54C916.691 36.68 917.881 37.275 918.301 38.325C918.371 38.885 918.581 39.305 918.931 39.585C919.351 39.865 919.561 40.005 919.561 40.005C919.841 40.005 919.981 40.11 919.981 40.32C920.051 40.53 920.086 40.635 920.086 40.635C920.086 41.125 919.596 41.825 918.616 42.735C917.706 43.645 916.691 44.135 915.571 44.205C914.661 44.275 913.856 44.45 913.156 44.73C912.456 45.01 911.616 45.36 910.636 45.78C907.976 47.32 905.561 48.685 903.391 49.875C901.291 51.065 899.121 52.885 896.881 55.335C896.391 55.895 895.866 56.42 895.306 56.91C894.746 57.4 894.186 58.1 893.626 59.01C893.276 59.36 892.926 60.13 892.576 61.32C892.226 62.51 891.911 63.665 891.631 64.785C891.421 65.835 891.316 66.465 891.316 66.675C891.316 66.675 891.211 67.025 891.001 67.725C890.791 68.355 890.441 68.985 889.951 69.615C889.111 70.735 888.271 71.435 887.431 71.715C886.661 71.995 885.716 71.575 884.596 70.455Z" fill="#B8C318"/>
<path d="M938.708 73.92C936.468 73.92 934.403 73.43 932.513 72.45C930.693 71.4 929.223 70.14 928.103 68.67C926.983 67.13 926.423 65.66 926.423 64.26C926.423 63.63 926.528 63.175 926.738 62.895C927.018 62.615 927.403 62.475 927.893 62.475C928.243 62.545 928.663 62.72 929.153 63C929.643 63.28 930.133 63.595 930.623 63.945C931.743 64.715 932.968 65.205 934.298 65.415C935.628 65.625 936.818 65.555 937.868 65.205C938.918 64.785 939.513 64.155 939.653 63.315C939.653 63.035 939.513 62.44 939.233 61.53C938.953 60.62 938.603 59.745 938.183 58.905C936.433 56.315 935.348 53.865 934.928 51.555C934.508 49.175 934.228 46.795 934.088 44.415C934.088 43.435 934.543 42.35 935.453 41.16C936.363 39.9 937.483 38.675 938.813 37.485C940.283 36.225 941.893 35.035 943.643 33.915C945.463 32.795 947.248 31.85 948.998 31.08C950.748 30.31 952.218 29.855 953.408 29.715C954.668 29.715 955.998 29.785 957.398 29.925C958.868 29.995 959.848 30.24 960.338 30.66C961.318 31.43 962.228 32.69 963.068 34.44C963.908 36.19 964.328 37.66 964.328 38.85C964.328 39.41 964.013 40.11 963.383 40.95C962.823 41.72 962.298 42.595 961.808 43.575C961.528 44.065 961.283 44.59 961.073 45.15C960.863 45.71 960.618 46.27 960.338 46.83C959.918 47.81 959.148 48.23 958.028 48.09C956.978 47.88 955.998 47.32 955.088 46.41C954.178 45.43 953.723 44.31 953.723 43.05C953.723 42 954.038 41.09 954.668 40.32C955.298 39.55 955.613 39.025 955.613 38.745C955.613 38.605 955.543 38.5 955.403 38.43C955.263 38.36 955.018 38.325 954.668 38.325C954.178 38.325 953.373 38.535 952.253 38.955C951.203 39.305 950.083 39.83 948.893 40.53C947.703 41.23 946.618 42.07 945.638 43.05C944.938 43.82 944.343 44.66 943.853 45.57C943.433 46.41 943.223 47.32 943.223 48.3C943.223 49.28 943.398 50.435 943.748 51.765C944.168 53.025 944.623 54.075 945.113 54.915C945.253 55.055 945.463 55.44 945.743 56.07C946.093 56.63 946.478 57.33 946.898 58.17C949.488 63.49 949.908 67.445 948.158 70.035C946.478 72.625 943.328 73.92 938.708 73.92Z" fill="#B8C318"/>
<path d="M983.712 79.59C980.282 79.52 978.077 78.54 977.097 76.65C976.187 74.83 975.942 72.52 976.362 69.72C976.782 68.39 977.027 67.2 977.097 66.15C977.237 65.03 977.552 64.33 978.042 64.05C978.042 64.05 978.077 63.945 978.147 63.735C978.287 63.525 978.252 63.315 978.042 63.105C978.042 62.195 978.357 60.935 978.987 59.325C979.127 58.905 979.302 58.415 979.512 57.855C979.792 57.225 979.932 56.91 979.932 56.91C979.582 56.35 979.582 55.895 979.932 55.545C980.282 55.195 980.632 54.88 980.982 54.6C981.402 54.25 981.437 53.865 981.087 53.445C980.947 53.165 981.122 52.535 981.612 51.555C982.102 50.505 982.662 49.42 983.292 48.3C983.922 47.18 984.342 46.305 984.552 45.675C984.552 45.535 984.727 45.045 985.077 44.205C985.427 43.365 985.847 42.385 986.337 41.265C986.827 40.145 987.282 39.13 987.702 38.22C988.192 37.31 988.507 36.715 988.647 36.435C989.347 36.085 989.067 35.84 987.807 35.7C986.547 35.56 985.217 35.525 983.817 35.595C981.647 35.525 979.897 35.42 978.567 35.28C977.307 35.14 976.257 34.825 975.417 34.335C974.577 33.355 974.472 32.2 975.102 30.87C975.732 29.47 976.747 28.735 978.147 28.665C979.057 28.595 979.757 28.56 980.247 28.56C980.807 28.56 981.507 28.525 982.347 28.455C983.257 28.315 984.657 28.14 986.547 27.93L991.902 27.51L992.217 25.725C992.777 24.815 993.162 24.22 993.372 23.94C993.582 23.66 993.722 23.38 993.792 23.1C993.862 22.75 993.967 22.155 994.107 21.315C994.107 21.315 994.422 20.755 995.052 19.635C995.682 18.445 996.067 17.22 996.207 15.96C997.047 14.56 997.782 13.3 998.412 12.18C999.042 10.99 999.427 10.255 999.567 9.975C1000.76 8.225 1001.91 7.28 1003.03 7.14C1004.22 7 1005.34 7.28 1006.39 7.98C1007.02 8.33 1007.62 8.785 1008.18 9.345C1008.74 9.835 1009.09 10.5 1009.23 11.34C1009.37 12.11 1009.05 13.125 1008.28 14.385C1008.14 14.665 1007.93 15.19 1007.65 15.96C1007.37 16.66 1007.16 17.255 1007.02 17.745C1006.6 18.235 1006.08 19.04 1005.45 20.16C1004.89 21.21 1004.5 22.295 1004.29 23.415C1003.73 24.605 1003.38 25.34 1003.24 25.62C1003.1 25.9 1002.89 26.04 1002.61 26.04C1002.75 26.74 1003.17 27.09 1003.87 27.09C1004.57 27.02 1005.73 26.95 1007.34 26.88C1008.67 26.74 1009.58 26.6 1010.07 26.46C1010.63 26.25 1011.26 26.32 1011.96 26.67C1012.31 27.16 1012.48 27.895 1012.48 28.875C1012.55 29.785 1012.45 30.695 1012.17 31.605C1011.89 32.445 1011.5 32.97 1011.01 33.18C1010.66 33.18 1009.93 33.39 1008.81 33.81C1007.76 34.16 1006.43 34.37 1004.82 34.44L999.252 34.965L997.467 38.535C996.977 39.445 996.557 40.285 996.207 41.055C995.857 41.755 995.612 42.175 995.472 42.315C995.472 42.735 995.227 43.365 994.737 44.205C994.317 45.045 993.862 45.955 993.372 46.935C992.952 48.125 992.462 49.21 991.902 50.19C991.412 51.17 991.167 51.66 991.167 51.66C990.887 51.66 990.747 51.87 990.747 52.29C991.097 53.13 990.992 53.76 990.432 54.18C990.082 54.39 989.767 54.705 989.487 55.125C989.277 55.475 989.172 55.65 989.172 55.65C989.452 55.93 989.487 56.28 989.277 56.7C989.137 57.12 988.927 57.575 988.647 58.065C988.647 58.625 988.472 59.43 988.122 60.48C987.842 61.53 987.527 62.51 987.177 63.42C987.247 64.68 987.317 65.485 987.387 65.835C987.457 66.185 987.632 66.325 987.912 66.255C988.262 66.325 988.752 66.325 989.382 66.255C990.012 66.185 990.467 66.15 990.747 66.15C991.797 65.66 991.307 68.11 989.277 73.5C988.157 75.25 987.037 76.685 985.917 77.805C984.797 78.995 984.062 79.59 983.712 79.59Z" fill="#B8C318"/>
<path d="M1030.65 72.66C1029.25 72.52 1028.13 72.17 1027.29 71.61C1026.52 70.98 1025.93 70.21 1025.51 69.3C1024.95 68.67 1024.6 68.18 1024.46 67.83C1024.39 67.48 1024.39 67.165 1024.46 66.885C1024.81 66.885 1025.12 66.885 1025.4 66.885C1025.68 66.815 1025.86 66.675 1025.93 66.465C1025.93 66.255 1026.03 66.115 1026.24 66.045C1026.52 65.975 1026.8 65.975 1027.08 66.045C1028.41 66.115 1030.02 65.66 1031.91 64.68C1033.87 63.7 1036.01 62.335 1038.32 60.585C1040.63 58.765 1042.94 56.805 1045.25 54.705C1047.07 52.325 1048.33 50.575 1049.03 49.455C1049.8 48.335 1050.18 47.495 1050.18 46.935C1050.25 46.305 1050.11 45.675 1049.76 45.045C1049.48 44.485 1048.82 44.205 1047.77 44.205C1046.72 44.205 1045.11 44.905 1042.94 46.305C1039.93 48.195 1037.51 49.945 1035.69 51.555C1033.87 53.165 1032.19 54.985 1030.65 57.015C1030.09 57.715 1029.46 58.485 1028.76 59.325C1028.13 60.095 1027.57 60.76 1027.08 61.32C1026.66 61.88 1026.45 62.16 1026.45 62.16C1026.45 62.44 1026.03 62.79 1025.19 63.21C1024.42 63.63 1023.76 63.84 1023.2 63.84C1022.92 63.7 1022.53 63.455 1022.04 63.105C1021.62 62.685 1021.34 62.16 1021.2 61.53C1020.57 61.04 1020.05 60.62 1019.63 60.27C1019.21 59.85 1019 59.185 1019 58.275C1019 57.715 1019.07 57.015 1019.21 56.175C1019.42 55.335 1019.7 54.25 1020.05 52.92C1020.47 51.1 1020.92 49.21 1021.41 47.25C1021.9 45.22 1022.36 43.505 1022.78 42.105C1023.27 40.635 1023.62 39.83 1023.83 39.69C1023.83 39.69 1023.97 39.375 1024.25 38.745C1024.53 38.115 1024.67 37.38 1024.67 36.54C1024.81 35.7 1025.02 34.965 1025.3 34.335C1025.65 33.705 1025.82 33.25 1025.82 32.97C1026.1 32.76 1026.52 31.92 1027.08 30.45C1027.64 28.98 1028.34 27.055 1029.18 24.675C1029.18 24.465 1029.43 23.8 1029.92 22.68C1030.41 21.49 1031 20.125 1031.7 18.585C1032.4 16.975 1033.1 15.33 1033.8 13.65C1034.57 11.9 1035.2 10.36 1035.69 9.03C1036.53 7.84 1037.23 6.65 1037.79 5.46C1038.42 4.2 1038.98 3.465 1039.47 3.255C1039.82 3.185 1040.42 3.325 1041.26 3.675C1042.17 4.025 1043.08 4.48 1043.99 5.04C1044.9 5.6 1045.53 6.16 1045.88 6.72C1046.09 7.07 1046.19 7.42 1046.19 7.77C1046.26 8.12 1046.12 8.715 1045.77 9.555C1045.42 10.325 1044.83 11.62 1043.99 13.44C1043.15 15.19 1041.96 17.675 1040.42 20.895C1038.46 25.095 1036.92 28.595 1035.8 31.395C1034.75 34.195 1033.87 36.61 1033.17 38.64C1032.54 40.67 1031.88 42.595 1031.18 44.415L1030.65 46.725L1033.38 43.68C1034.08 42.98 1034.82 42.315 1035.59 41.685C1036.36 41.055 1037.2 40.425 1038.11 39.795C1038.67 39.375 1039.4 38.955 1040.31 38.535C1041.29 38.045 1042.24 37.625 1043.15 37.275C1044.06 36.925 1044.72 36.715 1045.14 36.645C1045.35 36.575 1046.05 36.435 1047.24 36.225C1048.5 35.945 1049.73 35.805 1050.92 35.805C1052.46 35.805 1053.79 36.365 1054.91 37.485C1056.1 38.535 1057.15 39.83 1058.06 41.37C1058.83 42.84 1059.11 44.73 1058.9 47.04C1058.69 49.28 1058.09 51.205 1057.11 52.815C1056.76 53.095 1056.41 53.48 1056.06 53.97C1055.71 54.39 1055.54 54.74 1055.54 55.02C1055.47 55.51 1054.84 56.525 1053.65 58.065C1052.46 59.535 1051.27 60.935 1050.08 62.265C1048.82 63.595 1047.28 64.925 1045.46 66.255C1043.64 67.515 1041.82 68.67 1040 69.72C1038.25 70.7 1036.74 71.4 1035.48 71.82C1034.92 71.89 1034.12 72.03 1033.07 72.24C1032.02 72.38 1031.21 72.52 1030.65 72.66Z" fill="#B8C318"/>
<path d="M1081.51 71.82C1080.95 71.96 1080.21 72.03 1079.3 72.03C1078.39 71.96 1077.59 71.855 1076.89 71.715C1076.26 71.505 1075.94 71.295 1075.94 71.085C1075.94 70.735 1075.77 70.56 1075.42 70.56C1075.42 70.56 1075.03 70.28 1074.26 69.72C1073.49 69.09 1072.79 68.635 1072.16 68.355C1071.53 67.375 1071.11 66.255 1070.9 64.995C1070.76 63.665 1071.18 61.355 1072.16 58.065C1072.23 55.825 1072.86 53.48 1074.05 51.03C1075.24 48.51 1076.75 46.06 1078.57 43.68C1080.39 41.3 1082.28 39.2 1084.24 37.38C1086.2 35.49 1087.95 34.09 1089.49 33.18C1090.47 32.2 1091.76 31.675 1093.37 31.605C1095.05 31.535 1096.52 31.85 1097.78 32.55C1098.48 32.9 1099.25 33.6 1100.09 34.65C1100.93 35.7 1101.74 36.82 1102.51 38.01C1103.28 39.13 1103.87 40.145 1104.29 41.055C1104.5 41.825 1104.68 42.525 1104.82 43.155C1105.03 43.715 1105.17 44.415 1105.24 45.255C1105.31 46.095 1105.24 47.355 1105.03 49.035C1104.68 50.295 1104.36 51.59 1104.08 52.92C1103.87 54.18 1103.77 55.475 1103.77 56.805C1103.63 58.135 1103.77 59.08 1104.19 59.64C1104.68 60.2 1105.38 60.235 1106.29 59.745C1107.13 59.325 1108 59.29 1108.91 59.64C1109.82 59.92 1110.45 60.48 1110.8 61.32C1111.22 62.09 1111.12 63.105 1110.49 64.365C1110.07 65.275 1109.4 66.15 1108.49 66.99C1107.58 67.83 1106.57 68.53 1105.45 69.09C1104.33 69.58 1103.24 69.825 1102.19 69.825C1101.42 69.825 1100.65 69.545 1099.88 68.985C1099.11 68.355 1098.41 67.515 1097.78 66.465C1097.15 65.415 1096.63 64.26 1096.21 63L1095.58 60.585L1091.8 64.05C1090.89 65.03 1089.98 65.94 1089.07 66.78C1088.23 67.55 1087.7 68.11 1087.49 68.46C1087.14 69.09 1086.44 69.65 1085.39 70.14C1084.41 70.63 1083.12 71.19 1081.51 71.82ZM1084.34 61.74C1085.53 61.04 1086.55 60.2 1087.39 59.22C1088.3 58.24 1089.17 57.155 1090.01 55.965C1090.85 54.705 1091.76 53.375 1092.74 51.975C1093.93 50.365 1094.77 49.07 1095.26 48.09C1095.82 47.11 1096.24 46.06 1096.52 44.94C1096.24 44.17 1095.86 43.365 1095.37 42.525C1094.88 41.615 1094.39 41.125 1093.9 41.055C1092.92 41.055 1091.73 41.65 1090.33 42.84C1089 44.03 1087.53 45.745 1085.92 47.985C1085.64 48.335 1085.29 48.895 1084.87 49.665C1084.45 50.435 1084.03 51.17 1083.61 51.87C1083.26 52.5 1083.01 52.92 1082.87 53.13C1082.66 53.41 1082.35 54.075 1081.93 55.125C1081.58 56.105 1081.26 57.12 1080.98 58.17C1080.7 59.15 1080.56 59.85 1080.56 60.27C1080.56 60.69 1080.6 61.145 1080.67 61.635C1080.81 62.125 1081.16 62.44 1081.72 62.58C1082.28 62.72 1083.15 62.44 1084.34 61.74Z" fill="#B8C318"/>
<path d="M1157.12 72.87C1156.07 72.87 1155.06 72.555 1154.08 71.925C1153.1 71.225 1152.29 70.28 1151.66 69.09C1151.03 67.83 1150.72 66.36 1150.72 64.68C1150.72 63.63 1150.89 62.16 1151.24 60.27C1151.66 58.31 1152.26 55.86 1153.03 52.92C1153.17 51.94 1153.27 51.31 1153.34 51.03C1153.48 50.75 1153.55 50.47 1153.55 50.19C1153.55 50.05 1153.52 49.945 1153.45 49.875C1153.45 49.735 1153.38 49.665 1153.24 49.665C1152.68 49.665 1151.91 50.05 1150.93 50.82C1150.02 51.52 1148.97 52.36 1147.78 53.34C1147.57 53.48 1147.32 53.655 1147.04 53.865C1146.83 54.075 1146.59 54.285 1146.31 54.495C1146.1 54.705 1145.85 54.915 1145.57 55.125C1144.87 55.545 1143.79 56.35 1142.32 57.54C1140.92 58.73 1139.45 59.99 1137.91 61.32C1136.44 62.65 1135.14 63.77 1134.02 64.68C1133.46 65.1 1132.97 65.45 1132.55 65.73C1132.2 66.01 1131.96 66.15 1131.82 66.15C1131.68 66.15 1131.12 65.975 1130.14 65.625C1129.23 65.205 1128.32 64.645 1127.41 63.945C1126.57 63.175 1126.15 62.3 1126.15 61.32C1126.15 60.69 1126.39 59.43 1126.88 57.54C1127.44 55.65 1128.21 53.41 1129.19 50.82C1130.17 48.23 1131.29 45.605 1132.55 42.945C1132.83 42.315 1133.04 41.475 1133.18 40.425C1133.32 39.375 1133.46 38.36 1133.6 37.38C1133.81 36.33 1134.16 35.56 1134.65 35.07C1134.86 34.72 1135.11 34.475 1135.39 34.335C1135.74 34.125 1136.09 34.02 1136.44 34.02C1137.14 34.02 1137.8 34.195 1138.43 34.545C1139.06 34.825 1139.66 35.315 1140.22 36.015C1141.27 37.135 1141.83 38.465 1141.9 40.005C1142.04 41.475 1141.93 42.91 1141.58 44.31C1141.23 45.71 1140.85 46.865 1140.43 47.775C1140.01 48.615 1139.8 48.965 1139.8 48.825C1140.08 48.685 1140.46 48.335 1140.95 47.775C1141.51 47.215 1142.46 46.55 1143.79 45.78C1145.61 44.38 1147.01 43.4 1147.99 42.84C1148.97 42.21 1149.7 41.755 1150.19 41.475C1150.75 41.195 1151.24 40.88 1151.66 40.53C1152.01 40.25 1152.26 40.075 1152.4 40.005C1152.61 39.935 1152.71 39.9 1152.71 39.9C1152.92 39.9 1153.27 39.76 1153.76 39.48C1154.32 39.2 1154.85 39.06 1155.34 39.06C1156.04 39.06 1156.77 39.235 1157.54 39.585C1158.31 39.865 1158.98 40.285 1159.54 40.845C1160.1 41.335 1160.38 41.86 1160.38 42.42C1160.38 42.63 1160.45 42.805 1160.59 42.945C1160.73 43.085 1160.87 43.26 1161.01 43.47C1161.36 43.89 1161.74 44.485 1162.16 45.255C1162.65 45.955 1162.9 47.11 1162.9 48.72C1162.9 49.84 1162.65 51.485 1162.16 53.655C1161.67 55.825 1161.15 57.96 1160.59 60.06C1160.03 62.23 1159.75 63.98 1159.75 65.31C1159.82 66.57 1159.96 67.55 1160.17 68.25C1160.38 68.88 1160.48 69.405 1160.48 69.825C1160.48 70.385 1160.2 71.05 1159.64 71.82C1159.08 72.52 1158.24 72.87 1157.12 72.87Z" fill="#B8C318"/>
<path d="M1201.75 74.13C1201.47 73.85 1201.05 73.5 1200.49 73.08C1199.93 72.59 1199.51 72.1 1199.23 71.61C1199.09 71.4 1198.74 71.015 1198.18 70.455C1197.62 69.825 1197.06 69.23 1196.5 68.67C1195.94 68.04 1195.55 67.655 1195.34 67.515C1195.2 67.165 1194.96 66.78 1194.61 66.36C1194.26 65.87 1193.87 65.38 1193.45 64.89C1193.03 64.33 1192.54 63.805 1191.98 63.315C1191.21 62.265 1190.58 61.46 1190.09 60.9C1189.67 60.34 1189.32 60.06 1189.04 60.06C1189.04 60.06 1188.83 60.725 1188.41 62.055C1187.99 63.315 1187.54 64.785 1187.05 66.465C1186.56 68.075 1186.14 69.405 1185.79 70.455C1185.51 70.945 1185.23 71.33 1184.95 71.61C1184.67 71.89 1184.39 72.1 1184.11 72.24C1183.9 72.38 1183.65 72.485 1183.37 72.555C1183.09 72.555 1182.81 72.555 1182.53 72.555C1181.76 72.555 1180.78 72.205 1179.59 71.505C1178.4 70.805 1177.81 69.79 1177.81 68.46C1177.53 67.48 1177.88 65.345 1178.86 62.055C1179.84 58.765 1181.34 54.565 1183.37 49.455C1183.65 48.405 1184 47.32 1184.42 46.2C1184.84 45.01 1185.19 44.03 1185.47 43.26C1186.52 39.83 1187.68 36.68 1188.94 33.81C1190.2 30.87 1191.6 27.615 1193.14 24.045C1193.77 22.785 1194.22 21.875 1194.5 21.315C1194.78 20.685 1195.1 20.055 1195.45 19.425C1195.8 18.725 1196.32 17.71 1197.02 16.38C1198.56 13.51 1199.79 11.27 1200.7 9.66C1201.61 8.05 1202.31 6.86 1202.8 6.09C1203.29 5.32 1203.71 4.76 1204.06 4.41C1204.41 4.06 1204.97 3.815 1205.74 3.675C1206.51 3.535 1207.28 3.535 1208.05 3.675C1208.89 3.745 1209.48 3.99 1209.83 4.41C1210.39 4.97 1210.81 5.53 1211.09 6.09C1211.37 6.58 1211.37 7.28 1211.09 8.19C1210.88 9.03 1210.25 10.325 1209.2 12.075C1208.64 13.335 1208.19 14.245 1207.84 14.805C1207.49 15.365 1207.14 15.925 1206.79 16.485C1206.44 17.045 1205.88 18.025 1205.11 19.425C1205.04 19.705 1204.9 20.02 1204.69 20.37C1204.55 20.65 1204.37 20.93 1204.16 21.21C1203.95 21.42 1203.74 21.525 1203.53 21.525C1203.53 21.735 1203.43 22.155 1203.22 22.785C1203.01 23.415 1202.76 24.01 1202.48 24.57C1202.27 25.34 1201.92 26.18 1201.43 27.09C1201.01 27.93 1200.7 28.63 1200.49 29.19C1199.93 30.52 1199.16 32.13 1198.18 34.02C1197.27 35.84 1196.71 37.31 1196.5 38.43C1196.5 38.57 1196.6 38.605 1196.81 38.535C1197.02 38.395 1197.27 38.22 1197.55 38.01C1197.9 37.73 1198.21 37.52 1198.49 37.38C1200.1 36.12 1201.82 34.93 1203.64 33.81C1205.53 32.69 1207.1 32.025 1208.36 31.815C1209.06 31.605 1209.69 31.5 1210.25 31.5C1210.81 31.43 1211.34 31.43 1211.83 31.5C1212.32 31.57 1212.81 31.71 1213.3 31.92C1214.07 32.41 1214.77 33.32 1215.4 34.65C1216.03 35.98 1216.48 37.31 1216.76 38.64C1216.76 39.27 1216.45 40.425 1215.82 42.105C1215.26 43.715 1214.56 45.325 1213.72 46.935C1212.95 48.475 1212.21 49.525 1211.51 50.085C1211.16 50.225 1210.85 50.365 1210.57 50.505C1210.36 50.645 1210.18 50.785 1210.04 50.925C1209.97 50.995 1209.94 51.03 1209.94 51.03C1209.94 51.31 1209.8 51.66 1209.52 52.08C1209.31 52.5 1208.92 52.85 1208.36 53.13C1208.08 53.41 1207.77 53.76 1207.42 54.18C1207.07 54.6 1206.89 54.915 1206.89 55.125C1206.89 55.125 1206.89 55.23 1206.89 55.44C1206.89 55.58 1206.89 55.65 1206.89 55.65C1206.61 55.65 1206.37 55.685 1206.16 55.755C1206.02 55.755 1205.56 56.035 1204.79 56.595C1204.02 57.365 1203.46 57.785 1203.11 57.855C1202.83 57.925 1202.41 58.065 1201.85 58.275C1201.57 58.555 1201.22 58.73 1200.8 58.8C1200.45 58.87 1200.28 59.045 1200.28 59.325C1200.28 59.605 1200.56 60.13 1201.12 60.9C1201.68 61.67 1202.34 62.51 1203.11 63.42C1203.95 64.33 1204.76 65.17 1205.53 65.94C1206.3 66.71 1206.89 67.235 1207.31 67.515C1207.8 67.725 1208.15 68.11 1208.36 68.67C1208.57 69.23 1208.68 69.825 1208.68 70.455C1208.75 71.085 1208.71 71.68 1208.57 72.24C1208.5 72.8 1208.4 73.22 1208.26 73.5C1208.12 73.64 1207.63 73.815 1206.79 74.025C1206.02 74.305 1205.14 74.48 1204.16 74.55C1203.25 74.62 1202.45 74.48 1201.75 74.13ZM1195.66 54.075C1196.01 53.795 1196.64 53.27 1197.55 52.5C1198.53 51.73 1199.58 50.89 1200.7 49.98C1201.82 49 1202.83 48.055 1203.74 47.145C1204.72 46.235 1205.42 45.535 1205.84 45.045C1206.33 44.555 1206.86 43.75 1207.42 42.63C1207.98 41.51 1208.08 40.6 1207.73 39.9C1207.66 39.62 1207.14 39.795 1206.16 40.425C1205.18 41.055 1203.92 41.755 1202.38 42.525C1201.19 43.225 1199.86 44.03 1198.39 44.94C1196.99 45.78 1195.66 46.725 1194.4 47.775C1193.14 48.755 1192.16 49.84 1191.46 51.03C1191.32 51.52 1191.46 52.08 1191.88 52.71C1192.3 53.34 1192.86 53.83 1193.56 54.18C1194.26 54.46 1194.96 54.425 1195.66 54.075Z" fill="#B8C318"/>
</svg>
