<svg width="500" height="847" viewBox="0 0 500 847" fill="none" xmlns="http://www.w3.org/2000/svg">
<rect x="120" y="760" width="260" height="87" rx="43.5" fill="#7DBD36"/>
<path d="M218.433 796.978C219.405 796.978 219.945 797.518 219.945 798.49C219.945 799.462 219.405 800.002 218.433 800.002H202.809C202.449 800.506 202.089 800.974 201.729 801.442H214.329C215.841 801.442 216.669 802.27 216.669 803.782V817.786C216.669 819.37 215.697 820.198 213.897 820.198C212.097 820.198 211.125 819.37 211.125 817.786V817.75H200.505V817.786C200.505 819.37 199.533 820.198 197.733 820.198C195.933 820.198 194.961 819.37 194.961 817.786V807.994C193.413 809.11 191.757 810.046 190.065 810.802C189.273 811.162 188.661 810.91 188.301 810.262C187.941 809.614 188.121 809.002 188.841 808.498C192.045 806.23 194.817 803.314 196.905 800.002H190.173C189.201 800.002 188.661 799.462 188.661 798.49C188.661 797.518 189.201 796.978 190.173 796.978H198.633L199.281 795.574H192.045C191.109 795.574 190.569 795.034 190.569 794.098C190.569 793.162 191.109 792.658 192.045 792.658H200.361C200.469 792.298 200.577 791.974 200.649 791.614C197.841 791.65 195.033 791.614 192.297 791.506C191.361 791.47 190.965 791.002 190.929 790.21C190.893 789.418 191.253 788.95 192.225 788.914C199.857 788.626 207.093 787.798 213.861 785.962C215.409 785.53 216.741 785.926 217.137 787.69C217.533 789.418 216.885 790.57 215.265 790.75C212.817 791.038 210.009 791.254 207.021 791.398C206.877 791.83 206.769 792.226 206.589 792.658H216.669C217.605 792.658 218.145 793.162 218.145 794.098C218.145 795.034 217.605 795.574 216.669 795.574H205.401L204.681 796.978H218.433ZM211.125 804.754C211.125 804.502 210.945 804.322 210.693 804.322H200.937C200.685 804.322 200.505 804.502 200.505 804.754V805.906H211.125V804.754ZM211.125 810.37V808.714H200.505V810.37H211.125ZM200.505 814.87H211.125V813.178H200.505V814.87Z" fill="white"/>
<path d="M262.965 813.646C265.269 813.646 266.277 814.906 266.133 816.814C265.989 818.794 264.837 819.55 262.533 819.514C258.069 819.442 252.669 818.434 247.773 816.454C245.109 818.542 241.329 819.838 236.073 820.09C235.137 820.126 234.669 819.658 234.561 818.866C234.453 818.11 234.849 817.462 235.785 817.282C239.241 816.634 241.689 815.662 243.417 814.33C241.473 813.214 239.709 811.918 238.197 810.442C237.585 809.83 237.585 808.894 238.161 808.246C238.701 807.67 239.241 807.526 240.249 808.102C242.301 809.254 244.245 810.19 246.189 810.946C246.693 809.902 247.017 808.714 247.233 807.418H240.537C238.629 807.418 238.197 806.59 238.197 805.078V795.466C238.197 793.954 239.025 793.126 240.537 793.126H247.593V790.93H237.081C236.001 790.93 235.389 790.318 235.389 789.238C235.389 788.158 236.001 787.546 237.081 787.546H263.793C264.873 787.546 265.485 788.158 265.485 789.238C265.485 790.318 264.873 790.93 263.793 790.93H253.425V793.126H260.553C262.137 793.126 262.893 793.954 262.893 795.466V805.078C262.893 806.59 262.065 807.418 260.553 807.418H252.921C252.561 809.254 251.985 810.946 251.157 812.458C254.793 813.322 258.609 813.646 262.965 813.646ZM243.669 796.654V798.742H247.593V796.222H244.101C243.849 796.222 243.669 796.402 243.669 796.654ZM256.989 796.222H253.425V798.742H257.421V796.654C257.421 796.402 257.241 796.222 256.989 796.222ZM244.101 804.322H247.521C247.557 803.494 247.593 802.666 247.593 801.766H243.669V803.89C243.669 804.142 243.849 804.322 244.101 804.322ZM257.421 803.89V801.766H253.425C253.425 802.63 253.389 803.494 253.317 804.322H256.989C257.241 804.322 257.421 804.142 257.421 803.89Z" fill="white"/>
<path d="M310.449 801.874C312.069 802.99 312.249 804.502 311.313 806.23C306.057 815.77 295.401 819.694 283.701 820.018C282.729 820.054 282.117 819.694 282.045 818.686C281.973 817.858 282.369 817.282 283.413 817.102C294.537 815.194 301.305 812.098 305.553 805.654C305.733 805.366 305.589 805.15 305.265 805.15H299.793C298.821 806.014 297.813 806.842 296.733 807.598C297.273 807.958 297.777 808.39 298.245 808.858C299.433 810.046 299.109 811.378 297.813 812.206C296.517 813.034 295.149 812.746 294.465 811.198C294.177 810.586 293.925 810.01 293.637 809.434C291.513 810.55 289.245 811.414 286.941 811.846C286.005 812.134 285.393 811.738 285.177 810.946C284.961 810.19 285.213 809.542 286.041 809.218C290.001 807.706 293.385 805.294 296.229 802.378C292.341 804.898 287.805 806.59 283.125 807.31C282.153 807.454 281.577 807.202 281.325 806.302C281.109 805.51 281.469 804.826 282.441 804.502C290.829 801.766 296.049 798.202 299.397 792.802C299.577 792.514 299.433 792.298 299.109 792.298H294.357C293.565 793.09 292.701 793.846 291.837 794.53C292.341 794.89 292.845 795.286 293.313 795.718C294.501 796.798 294.321 798.058 293.097 798.922C291.873 799.786 290.541 799.642 289.857 798.202C289.605 797.662 289.353 797.122 288.993 796.546C287.409 797.554 285.825 798.382 284.313 799.03C283.449 799.39 282.801 799.174 282.405 798.454C282.009 797.77 282.225 797.086 282.981 796.546C286.329 794.458 289.317 791.326 291.801 787.402C292.845 785.746 294.177 785.458 295.761 786.286C297.021 786.934 297.417 788.05 296.877 789.274H300.189C301.485 788.374 302.997 788.23 304.329 789.022C305.841 789.922 306.093 791.47 305.193 793.09C304.293 794.674 303.177 796.186 301.953 797.554C302.205 797.626 302.457 797.734 302.709 797.914C304.005 798.778 304.293 799.93 303.393 801.154L302.637 802.126H306.129C307.317 801.118 309.189 801.01 310.449 801.874Z" fill="white"/>
<rect width="160" height="422.467" transform="translate(38.7664 700) rotate(-90)" fill="#FDFDFB"/>
<path d="M58.0336 549.592C56.6256 549.08 56.1136 547.736 56.4976 546.456C56.8816 545.176 57.7776 544.792 59.1856 544.92C64.1776 545.368 70.0656 546.584 75.1216 548.376C78.3216 549.528 79.4736 551.64 78.1296 554.392C76.7856 557.208 74.4176 557.848 71.5376 556.248C68.0176 554.008 63.5376 551.704 58.0336 549.592ZM93.2336 589.272C97.0096 591.576 97.4576 594.648 95.2816 597.848C93.1696 600.92 89.9056 600.984 86.5776 598.36C81.2016 594.136 77.1056 588.248 74.2256 580.952V595.544C74.2256 604.824 65.8416 607.384 54.3216 601.688C53.0416 601.048 52.5936 599.96 52.9136 598.744C53.2336 597.464 54.1936 597.016 55.7296 597.208C62.5776 597.976 63.6016 597.208 63.6016 593.944V563.608C63.6016 563.16 63.2816 562.84 62.8336 562.84H50.8656C48.9456 562.84 47.9216 561.752 47.9216 559.896C47.9216 558.04 49.0096 557.016 50.8656 557.016H70.0656C72.7536 557.016 74.2256 558.488 74.2256 561.176V566.04C74.8656 568.088 75.6336 570.072 76.5296 571.928C78.8976 569.496 80.9456 566.808 83.1856 563.416C85.0416 560.6 87.6656 560.024 90.4816 562.328C93.2976 564.632 92.5936 567.64 89.5216 569.944C85.6176 572.888 81.9696 574.808 78.8976 576.024C82.2256 581.08 86.8976 585.368 93.2336 589.272ZM58.8656 568.984C61.8096 568.984 63.7936 571.416 63.0256 574.488C60.4016 585.176 52.9776 595.672 42.4816 600.92C41.0096 601.688 39.9216 601.368 39.1536 600.152C38.4496 598.936 38.7056 597.72 39.9216 596.76C46.6416 591.192 51.1856 583.064 52.7216 575.192C52.8496 574.68 52.4656 574.36 51.9536 574.36H42.7376C41.0096 574.36 40.0496 573.4 40.0496 571.672C40.0496 569.944 41.0096 568.984 42.7376 568.984H58.8656Z" fill="#594A39"/>
<path d="M135.602 553.88C133.938 553.88 133.17 552.984 133.17 551.512C133.17 550.04 133.938 549.144 135.602 549.144H145.65V549.016C145.65 546.264 147.314 544.92 150.322 544.92C153.33 544.92 154.994 546.264 154.994 549.016V549.144H164.85C166.514 549.144 167.282 550.04 167.282 551.512C167.282 552.984 166.514 553.88 164.85 553.88H154.994V555.544H162.546C164.082 555.544 164.914 556.376 164.914 557.848C164.914 559.32 164.082 560.152 162.546 560.152H137.906C136.37 560.152 135.538 559.32 135.538 557.848C135.538 556.376 136.37 555.544 137.906 555.544H145.65V553.88H135.602ZM115.57 576.856H116.082C118.13 573.976 119.858 571.032 121.33 568.088C119.602 568.664 117.874 569.176 116.21 569.432C113.586 569.88 111.922 568.92 111.73 566.36C111.538 563.992 112.434 562.648 115.186 562.52C116.594 558.808 117.874 553.944 118.706 549.4C119.282 546.392 121.202 545.368 123.89 546.008C126.45 546.648 127.41 548.696 126.258 551.512C124.722 555.288 122.994 559 120.69 562.328L124.082 562.136C124.85 560.408 125.554 558.744 126.194 557.016C127.218 554.392 129.33 553.752 131.698 554.712C134.066 555.672 134.642 557.72 133.362 560.344C130.546 566.104 126.642 571.608 121.97 576.344C123.762 576.152 125.554 575.896 127.346 575.64C127.218 575.064 127.026 574.552 126.834 573.976C126.386 572.632 126.578 571.8 127.602 571.16C128.562 570.584 129.522 570.84 130.354 571.8C132.338 574.104 133.874 576.408 135.026 578.904C135.922 580.824 135.026 582.296 133.234 583.064C131.314 583.896 129.65 583.32 129.074 581.08L128.69 579.8C124.466 581.976 120.498 583.576 116.338 584.28C113.65 584.728 111.986 583.704 111.666 581.08C111.346 578.456 112.562 576.984 115.57 576.856ZM163.314 561.368C165.81 561.368 167.154 562.712 167.154 565.208V569.304C167.154 571.8 165.81 573.144 163.314 573.144H137.33C134.834 573.144 133.49 571.8 133.49 569.304V565.208C133.49 562.712 134.834 561.368 137.33 561.368H163.314ZM142.77 568.92V565.464H141.042C140.594 565.464 140.274 565.784 140.274 566.232V568.152C140.274 568.6 140.594 568.92 141.042 568.92H142.77ZM151.41 568.92V565.464H149.17V568.92H151.41ZM160.37 568.152V566.232C160.37 565.784 159.986 565.464 159.538 565.464H157.81V568.92H159.538C159.986 568.92 160.37 568.6 160.37 568.152ZM166.45 597.72C168.946 598.936 169.522 601.048 168.178 603.352C166.834 605.656 164.658 605.784 162.29 604.12C160.114 602.584 156.85 600.408 153.458 598.168C152.242 597.4 151.858 596.376 152.306 595.352C152.434 595.096 152.562 594.84 152.754 594.648H147.762C147.954 594.776 148.146 594.968 148.274 595.16C149.746 596.952 149.49 598.936 147.058 600.472C143.538 602.712 137.842 604.44 133.426 605.016C132.21 605.208 131.122 604.888 130.802 603.8C130.482 602.776 130.61 601.752 131.954 601.112C135.538 599.384 139.57 597.08 142.77 594.712L142.834 594.648H139.89C137.202 594.648 135.73 593.176 135.73 590.488V578.52C135.73 575.832 137.202 574.36 139.89 574.36H160.946C163.634 574.36 165.106 575.832 165.106 578.52V590.488C165.106 593.176 163.634 594.648 160.946 594.648H157.426C160.626 595.416 163.826 596.44 166.45 597.72ZM144.178 579.096V579.928H156.658V579.096C156.658 578.648 156.338 578.328 155.89 578.328H144.946C144.498 578.328 144.178 578.648 144.178 579.096ZM133.938 597.848C131.762 598.744 129.906 597.912 129.394 595.608C128.69 592.28 127.73 588.568 127.026 586.136C126.578 584.728 126.898 583.896 127.794 583.448C128.69 582.936 129.714 583 130.418 583.96C132.21 586.264 134.386 590.168 135.602 593.304C136.434 595.416 135.858 597.08 133.938 597.848ZM144.178 583.64V585.24H156.658V583.64H144.178ZM125.234 586.264C126.322 589.4 127.538 593.816 128.05 597.4C128.434 599.896 127.346 601.432 124.914 601.688C122.418 601.944 121.074 600.664 121.202 597.976C121.394 594.456 121.33 590.104 121.202 586.904C121.138 585.688 121.842 584.984 122.866 584.792C124.018 584.6 124.786 585.048 125.234 586.264ZM117.874 585.432C119.026 585.56 119.666 586.328 119.666 587.864C119.794 591.128 119.346 596.568 118.834 599.832C118.386 602.648 116.338 603.736 113.778 602.776C111.41 601.816 110.898 600.024 112.242 597.464C113.522 594.968 114.674 590.488 115.442 587.16C115.762 585.816 116.722 585.304 117.874 585.432ZM144.178 588.952V589.912C144.178 590.36 144.498 590.68 144.946 590.68H155.89C156.338 590.68 156.658 590.36 156.658 589.912V588.952H144.178Z" fill="#594A39"/>
<path d="M210.226 554.456C208.562 554.456 207.73 553.56 207.73 551.96C207.73 550.424 208.562 549.592 210.226 549.592H219.314V549.08C219.314 546.392 221.042 544.92 224.114 544.92C227.186 544.92 228.914 546.392 228.914 549.08V549.592H238.258C239.858 549.592 240.754 550.424 240.754 551.96C240.754 553.624 239.858 554.456 238.258 554.456H228.914V556.248H236.082C237.618 556.248 238.514 557.08 238.514 558.552C238.514 560.152 237.618 560.984 236.082 560.984H228.914V563.032H238.962C240.562 563.032 241.458 563.864 241.458 565.4C241.458 567.064 240.562 567.896 238.962 567.896H209.202C207.538 567.896 206.706 567 206.706 565.4C206.706 563.864 207.538 563.032 209.202 563.032H219.314V560.984H211.954C210.354 560.984 209.522 560.088 209.522 558.552C209.522 557.08 210.354 556.248 211.954 556.248H219.314V554.456H210.226ZM188.85 576.024H189.618C191.538 573.464 193.202 570.712 194.738 567.832C193.01 568.408 191.154 568.92 189.298 569.24C186.738 569.752 185.074 568.792 184.818 566.04C184.562 563.48 185.778 562.136 188.658 562.136C190.066 558.36 191.154 553.816 192.114 549.016C192.69 546.008 194.738 544.856 197.554 545.56C200.242 546.264 201.33 548.44 200.178 551.128C198.514 555.096 196.658 558.808 194.226 562.072C195.378 562.072 196.466 562.008 197.554 561.944L199.474 557.144C200.562 554.328 202.866 553.752 205.234 554.712C207.474 555.608 208.178 558.04 207.026 560.216C203.89 566.424 200.05 571.672 195.634 575.832C197.618 575.704 199.474 575.512 201.394 575.256C201.202 574.552 200.946 573.848 200.754 573.208C200.306 571.864 200.498 571.032 201.522 570.392C202.546 569.752 203.57 570.008 204.338 571.032C206.322 573.528 207.922 576.28 208.69 578.84C209.33 580.952 209.074 582.424 207.154 583.192C205.106 584.024 203.314 583.512 202.866 581.208C202.738 580.696 202.674 580.248 202.546 579.8C198.706 581.656 193.906 583.256 189.49 583.896C186.738 584.344 184.882 583.32 184.626 580.504C184.37 577.688 185.586 576.024 188.85 576.024ZM239.858 597.592C242.354 598.872 242.93 600.792 241.714 603.096C240.434 605.528 237.938 606.104 235.57 604.312C232.69 602.136 229.49 599.832 226.61 597.912C225.394 597.08 225.138 596.184 225.586 595.032C225.714 594.648 225.97 594.328 226.226 594.136H221.938C223.41 595.992 223.154 598.04 221.106 599.512C217.33 602.264 211.506 604.44 207.026 605.208C205.618 605.464 204.53 605.144 204.146 603.864C203.762 602.712 204.21 601.688 205.426 601.112C209.394 599.256 213.106 596.568 215.858 594.136H213.746C211.058 594.136 209.586 592.664 209.586 589.976V573.272C209.586 570.584 211.058 569.112 213.746 569.112H234.29C236.978 569.112 238.45 570.584 238.45 573.272V589.976C238.45 592.664 236.978 594.136 234.29 594.136H230.258C233.33 594.84 236.978 596.12 239.858 597.592ZM219.186 574.488V575.96H228.722V574.488C228.722 574.04 228.402 573.72 227.954 573.72H219.954C219.506 573.72 219.186 574.04 219.186 574.488ZM219.186 580.312V582.616H228.722V580.312H219.186ZM207.666 597.272C205.362 598.168 203.506 597.464 203.058 595.16C202.482 592.344 201.458 588.504 200.69 586.52C200.178 585.176 200.498 584.344 201.522 583.768C202.61 583.192 203.506 583.384 204.338 584.408C206.002 586.456 208.242 590.04 209.394 592.92C210.162 594.84 209.65 596.504 207.666 597.272ZM198.962 586.776C200.242 589.784 201.33 593.88 201.778 597.272C202.162 599.96 201.074 601.432 198.45 601.56C195.89 601.688 194.354 600.6 194.61 597.784C194.866 594.584 194.93 590.808 194.802 587.48C194.738 586.136 195.378 585.304 196.53 585.176C197.682 585.048 198.45 585.56 198.962 586.776ZM191.026 585.688C192.306 585.816 192.946 586.584 193.074 588.312C193.33 591.768 193.01 596.568 192.242 600.28C191.666 602.968 189.298 604.184 186.802 603.16C184.306 602.136 183.666 600.152 185.138 597.464C186.61 594.776 187.954 591.128 188.658 587.736C188.978 586.264 189.81 585.56 191.026 585.688ZM219.186 586.968V588.632C219.186 589.08 219.506 589.4 219.954 589.4H227.954C228.402 589.4 228.722 589.08 228.722 588.632V586.968H219.186Z" fill="#594A39"/>
<path d="M261.042 560.28C259.314 560.28 258.354 559.32 258.354 557.592C258.354 555.864 259.314 554.904 261.042 554.904H269.17V549.144C269.17 546.52 270.834 544.856 273.97 544.856C277.042 544.856 278.77 546.52 278.77 549.144V554.904H286.706C288.434 554.904 289.394 555.864 289.394 557.592C289.394 559.32 288.434 560.28 286.706 560.28H261.042ZM312.498 593.752C315.57 596.248 316.402 599.064 314.354 602.072C312.306 605.016 309.106 605.272 306.162 602.456C303.602 600.216 301.362 597.464 299.442 594.392C295.474 598.808 290.482 602.392 284.402 604.952C282.994 605.592 281.97 605.336 281.202 604.12C280.498 602.968 280.754 601.88 282.034 600.92C288.306 596.824 292.722 592.344 295.794 586.904C294.258 583 293.106 578.648 292.402 573.976C291.378 575.704 290.29 577.112 289.202 578.264C288.242 579.352 287.09 579.544 286.066 578.84C285.042 578.136 284.786 577.176 285.362 575.832C285.874 574.68 286.386 573.528 286.834 572.248C285.298 573.016 283.698 572.504 282.418 570.776C280.882 568.728 279.282 566.808 277.81 565.272C276.658 564.056 276.786 562.84 277.49 561.816C278.258 560.728 279.538 560.536 281.01 561.24C282.994 562.328 285.81 564.248 287.858 566.04C288.114 566.232 288.306 566.488 288.498 566.744C289.778 561.816 290.674 556.248 291.122 550.104C291.378 546.52 293.298 544.856 296.562 545.304C299.762 545.752 301.106 547.608 300.466 551C300.018 553.24 299.57 555.416 298.994 557.464H312.37C314.098 557.464 315.058 558.424 315.058 560.152C315.058 561.88 314.098 562.84 312.37 562.84H310.962C310.45 571.992 308.466 579.992 304.818 586.712C306.994 589.208 309.554 591.576 312.498 593.752ZM261.49 579.352C260.21 580.248 259.058 580.184 258.162 579.16C257.266 578.136 257.202 577.048 258.098 575.768C260.402 572.632 262.386 568.792 264.05 564.248C265.01 561.624 266.866 560.28 269.746 561.368C272.498 562.456 273.202 564.504 271.794 567.384C269.618 571.8 265.074 576.792 261.49 579.352ZM295.666 567.384C296.498 571.416 297.65 575.064 299.314 578.456C300.594 573.912 301.362 568.792 301.682 562.84H297.394C296.882 564.44 296.306 565.976 295.666 567.384ZM286.77 596.184C284.274 598.296 281.778 597.784 279.666 594.904C278.642 593.496 277.618 592.088 276.53 590.744C272.37 596.696 267.122 601.24 261.362 603.736C259.954 604.376 258.866 604.184 258.098 603.032C257.394 601.88 257.586 600.792 258.802 599.768C264.05 595.608 268.146 591 271.154 584.792C269.682 583.32 268.146 581.848 266.482 580.376C265.266 579.288 265.01 578.008 265.842 576.728C266.61 575.576 267.762 575.256 269.17 575.96C270.642 576.728 272.114 577.56 273.65 578.52L274.802 574.296C275.506 571.352 277.426 570.136 280.37 570.968C283.122 571.8 284.146 573.592 283.378 576.28C282.674 578.776 281.714 581.208 280.69 583.448C282.93 585.24 285.042 587.096 286.898 588.952C289.458 591.448 289.202 594.072 286.77 596.184Z" fill="#594A39"/>
<path d="M367.986 594.648C364.722 594.648 362.93 593.304 362.93 590.936V587.736H351.026C349.234 587.736 348.21 586.712 348.21 584.92C348.21 583.128 349.234 582.232 351.026 582.232H362.93V579.352H354.866C352.178 579.352 350.706 577.88 350.706 575.192V562.2C350.706 559.512 352.178 558.04 354.866 558.04H362.93V555.736H351.474C349.746 555.736 348.722 554.648 348.722 552.984C348.722 551.32 349.746 550.36 351.474 550.36H362.93V548.376C362.93 545.944 364.722 544.6 367.986 544.6C371.25 544.6 373.042 545.944 373.042 548.376V550.36H384.69C386.418 550.36 387.442 551.256 387.442 552.984C387.442 554.712 386.418 555.736 384.69 555.736H373.042V558.04H381.298C383.986 558.04 385.458 559.512 385.458 562.2V575.192C385.458 577.88 383.986 579.352 381.298 579.352H373.042V582.232H385.458C387.186 582.232 388.21 583.128 388.21 584.92C388.21 586.712 387.186 587.736 385.458 587.736H373.042V590.936C373.042 593.304 371.25 594.648 367.986 594.648ZM345.906 555.736C343.986 557.976 341.682 557.976 339.442 555.544C337.65 553.624 335.538 551.384 334.066 549.912C333.106 548.952 333.042 547.736 333.746 546.648C334.45 545.56 335.602 545.176 336.818 545.56C339.378 546.392 342.258 547.8 344.626 549.272C347.506 551.064 347.89 553.368 345.906 555.736ZM344.69 568.6C342.77 570.84 340.338 570.904 338.098 568.344C335.986 565.912 334.002 563.8 332.338 562.008C331.442 560.984 331.314 559.832 332.082 558.744C332.786 557.784 333.746 557.4 335.09 557.848C337.906 558.808 341.234 560.536 343.666 562.2C346.354 564.056 346.674 566.296 344.69 568.6ZM359.794 566.168H363.57V563.16H360.562C360.114 563.16 359.794 563.48 359.794 563.928V566.168ZM372.402 566.168H376.37V563.928C376.37 563.48 376.05 563.16 375.602 563.16H372.402V566.168ZM359.794 573.464C359.794 573.912 360.114 574.232 360.562 574.232H363.57V571.16H359.794V573.464ZM372.402 574.232H375.602C376.05 574.232 376.37 573.912 376.37 573.464V571.16H372.402V574.232ZM331.314 603.736C329.458 601.56 329.394 599.384 331.634 597.272C333.426 595.544 335.602 593.56 336.882 592.024V578.712C336.882 578.264 336.562 577.944 336.114 577.944H333.234C331.506 577.944 330.546 576.984 330.546 575.256C330.546 573.528 331.506 572.568 333.234 572.568H342.706C345.394 572.568 346.866 574.04 346.866 576.728V590.04C348.658 593.304 353.266 595.032 359.154 595.16C369.01 595.352 376.562 594.904 382.77 594.392C386.29 594.072 388.146 595.352 388.146 598.552C388.146 601.816 387.058 603.608 383.09 603.8C376.114 604.12 367.794 603.992 361.266 603.672C352.562 603.224 346.29 600.216 343.666 595.48C343.346 594.904 342.77 594.968 342.578 595.48C341.682 597.784 340.21 600.792 338.354 603.608C336.754 606.04 333.106 605.784 331.314 603.736Z" fill="#594A39"/>
<path d="M458.482 560.28H448.69V569.112H456.562C458.29 569.112 459.25 570.072 459.25 571.8C459.25 573.528 458.29 574.488 456.562 574.488H430.642C428.914 574.488 427.954 573.528 427.954 571.8C427.954 570.072 428.914 569.112 430.642 569.112H438.45V560.28H428.978C427.186 560.28 426.226 559.32 426.226 557.528C426.226 555.736 427.186 554.776 428.978 554.776H438.45V549.528C438.45 546.584 440.242 545.048 443.57 545.048C446.898 545.048 448.69 546.584 448.69 549.528V554.776H458.482C460.274 554.776 461.234 555.736 461.234 557.528C461.234 559.32 460.274 560.28 458.482 560.28ZM424.114 571.416C425.778 573.464 427.122 575.96 428.082 578.328C429.106 580.888 428.466 582.488 426.354 583.256C424.178 584.024 422.642 583.256 422.066 580.696C422.002 580.504 421.938 580.248 421.938 580.056C418.034 581.848 413.682 583.384 408.562 584.472C406.066 584.984 403.89 584.152 403.442 581.336C402.994 578.712 404.146 576.792 406.834 576.728C407.41 576.728 407.986 576.728 408.562 576.664C410.354 574.104 412.018 571.224 413.554 568.216C411.826 568.792 410.034 569.24 408.37 569.56C405.682 570.072 403.762 569.048 403.506 566.36C403.25 563.672 404.338 562.328 407.154 562.328C408.818 558.04 409.97 553.112 410.866 548.696C411.442 545.816 413.554 544.792 416.562 545.496C419.442 546.2 420.21 548.696 418.994 551.704C417.458 555.48 415.282 559.192 412.85 562.264C414.002 562.264 415.218 562.2 416.434 562.136C416.946 560.92 417.458 559.704 417.906 558.552C418.802 556.184 420.786 555.16 423.538 556.184C426.162 557.208 426.61 559.448 425.458 561.944C423.218 566.808 419.314 572.12 415.282 576.344C417.202 576.216 419.058 576.024 420.786 575.832C420.53 575 420.274 574.232 420.082 573.464C419.698 572.12 420.082 571.032 421.234 570.52C422.386 570.008 423.218 570.264 424.114 571.416ZM454.258 578.776C456.946 578.776 458.418 580.248 458.418 582.936V600.92C458.418 603.672 456.626 605.208 453.49 605.208C450.354 605.208 448.562 603.672 448.562 600.92V600.28H438.898V600.984C438.898 603.8 437.17 605.272 433.97 605.272C430.77 605.272 429.042 603.8 429.042 600.984V582.936C429.042 580.248 430.514 578.776 433.202 578.776H454.258ZM422.13 583.64C423.922 585.56 426.29 588.824 427.698 591.768C428.85 594.136 428.466 595.8 426.29 596.824C424.114 597.848 422.45 596.952 421.81 594.776C420.85 591.576 419.698 588.12 418.738 585.624C418.29 584.472 418.61 583.576 419.506 583.064C420.402 582.616 421.298 582.744 422.13 583.64ZM438.898 595.032H448.562V584.792C448.562 584.344 448.242 584.024 447.794 584.024H439.666C439.218 584.024 438.898 584.344 438.898 584.792V595.032ZM416.946 586.136C418.418 589.08 419.954 593.688 420.594 597.4C421.042 600.024 420.274 601.56 417.522 601.88C415.09 602.136 413.682 601.048 413.618 598.36C413.554 594.84 413.362 590.296 413.042 587.032C412.914 585.816 413.426 584.984 414.514 584.728C415.538 584.472 416.37 584.984 416.946 586.136ZM409.266 585.624C410.29 585.624 411.122 586.392 411.25 587.608C411.634 591.64 411.698 596.888 411.186 600.664C410.802 603.672 409.074 604.568 406.578 603.992C403.762 603.288 403.122 601.24 404.21 598.744C405.554 595.48 406.514 591.448 407.154 587.48C407.346 586.136 408.178 585.624 409.266 585.624Z" fill="#594A39"/>
<path d="M130.866 663.336C129.906 664.296 128.882 665.256 127.73 666.152V688.296C127.73 694.632 121.586 697.192 113.01 693.608C111.73 693.032 111.41 691.88 111.666 690.6C111.922 689.32 112.626 688.808 114.098 688.808C117.426 688.872 118.258 688.808 118.258 686.696V672.424L118.066 672.552C115.378 674.088 113.01 673.128 111.986 670.184C111.026 667.368 112.114 665.256 114.93 664.36C116.018 664.04 117.106 663.656 118.258 663.272V653.8H114.29C112.69 653.8 111.794 652.904 111.794 651.304C111.794 649.704 112.69 648.808 114.29 648.808H118.258V639.08C118.258 636.264 119.986 634.856 122.994 634.856C126.002 634.856 127.73 636.264 127.73 639.08V648.808H131.442C133.042 648.808 133.938 649.704 133.938 651.304C133.938 652.904 133.042 653.8 131.442 653.8H127.73V659.624L128.37 659.368C129.394 658.92 130.354 658.856 130.93 659.368C131.314 657.384 132.722 656.296 135.026 656.296H137.586C137.074 655.848 136.626 655.144 136.37 654.248C135.794 652.328 134.962 650.344 134.002 648.168C133.49 646.952 133.81 645.992 134.77 645.416C135.73 644.84 136.69 644.968 137.586 645.8C139.314 647.272 141.042 649.128 142.45 651.112C143.922 653.224 143.538 655.144 141.49 656.296H148.402C147.506 655.912 146.802 654.952 146.546 653.544C146.098 651.56 145.522 649.256 144.754 647.016C144.434 646.056 144.562 645.352 145.01 644.84C140.722 644.904 136.498 644.904 132.914 644.648C131.442 644.52 130.546 643.752 130.546 642.28C130.546 640.808 131.314 640.168 132.722 640.04C141.81 639.4 152.626 637.672 160.306 635.432C162.738 634.728 164.914 635.624 165.554 638.12C166.258 640.744 165.042 642.856 162.29 643.368L161.33 643.56C161.906 643.56 162.482 643.688 163.122 643.88C165.682 644.712 165.874 646.952 165.042 648.744C163.698 651.752 162.098 654.248 160.242 656.296H163.058C165.746 656.296 167.218 657.768 167.218 660.456V663.912C167.218 666.664 165.426 667.816 162.61 667.816C159.794 667.816 158.194 666.472 158.194 663.912V662.312C158.194 661.864 157.874 661.544 157.426 661.544H140.466C140.018 661.544 139.698 661.864 139.698 662.312V663.464C139.698 666.024 138.034 667.304 135.218 667.304C132.402 667.304 130.866 666.024 130.866 663.464V663.336ZM152.882 651.176C154.098 653.48 153.33 655.272 151.026 656.168C150.898 656.232 150.77 656.232 150.642 656.296H155.698C155.57 655.976 155.57 655.528 155.762 655.016C156.594 652.648 157.17 650.216 157.874 646.568C158.13 645.096 158.898 644.136 159.986 643.752C156.85 644.136 152.818 644.52 148.466 644.712C148.594 644.776 148.658 644.904 148.786 645.032C150.386 646.888 151.666 648.872 152.882 651.176ZM164.338 685.608C167.666 686.248 169.01 688.424 168.178 691.88C167.346 695.208 164.786 695.848 161.778 695.144C156.978 694.056 152.818 691.816 149.234 688.872C144.05 692.072 137.906 694.376 131.314 695.208C129.586 695.4 128.626 694.824 128.306 693.288C128.05 691.88 128.69 690.92 130.354 690.408C135.858 688.68 140.466 686.376 144.242 683.752C141.49 680.36 139.378 676.52 137.97 672.68H135.922C134.258 672.68 133.298 671.72 133.298 670.056C133.298 668.392 134.258 667.432 135.922 667.432H158.514C162.674 667.432 164.146 670.312 162.546 674.088C161.138 677.416 158.962 680.488 156.338 683.24C158.706 684.2 161.33 684.968 164.338 685.608ZM152.626 672.68H143.026C144.818 675.24 146.866 677.416 149.362 679.336C151.026 677.48 152.37 675.624 153.266 673.64C153.522 673.064 153.202 672.68 152.626 672.68Z" fill="#594A39"/>
<path d="M238.578 644.648C240.37 644.648 241.394 645.672 241.394 647.464C241.394 649.256 240.37 650.28 238.578 650.28H205.746C203.954 650.28 202.93 649.256 202.93 647.464C202.93 645.672 203.954 644.648 205.746 644.648H216.178V638.952C216.178 636.584 218.098 634.792 221.682 634.792C225.202 634.792 227.186 636.52 227.186 638.952V644.648H238.578ZM203.826 641.832C203.122 644.84 202.098 647.912 200.818 650.984V690.984C200.818 693.928 199.09 695.208 195.954 695.208C192.818 695.208 191.09 693.928 191.09 690.984V666.728C190.13 667.88 189.106 668.904 188.082 669.864C186.866 670.952 185.65 671.144 184.754 670.376C183.666 669.352 183.602 668.264 184.37 666.92C188.658 659.496 192.05 649.384 193.65 639.848C194.29 636.008 196.466 634.664 199.922 635.304C203.314 635.944 204.658 638.12 203.826 641.832ZM235.762 654.12C237.554 654.12 238.578 655.144 238.578 656.936C238.578 658.728 237.554 659.752 235.762 659.752H207.666C205.874 659.752 204.85 658.728 204.85 656.936C204.85 655.144 205.874 654.12 207.666 654.12H235.762ZM235.634 662.824C237.426 662.824 238.45 663.848 238.45 665.64C238.45 667.432 237.426 668.456 235.634 668.456H207.858C206.066 668.456 205.042 667.432 205.042 665.64C205.042 663.848 206.066 662.824 207.858 662.824H235.634ZM233.778 672.232C236.466 672.232 237.938 673.704 237.938 676.392V691.048C237.938 693.928 236.146 695.208 232.882 695.208C229.618 695.208 227.826 693.928 227.826 691.048V690.088H215.602V691.048C215.602 693.928 213.81 695.208 210.546 695.208C207.282 695.208 205.49 693.928 205.49 691.048V676.392C205.49 673.704 206.962 672.232 209.65 672.232H233.778ZM215.602 684.712H227.826V678.376C227.826 677.928 227.506 677.608 227.058 677.608H216.37C215.922 677.608 215.602 677.928 215.602 678.376V684.712Z" fill="#594A39"/>
<path d="M312.562 675.688C314.226 675.688 315.186 676.648 315.186 678.44C315.186 680.232 314.226 681.192 312.562 681.192H304.178V687.464C304.178 695.72 295.986 697.128 287.026 693.48C285.682 692.968 285.106 691.88 285.49 690.344C285.81 689 286.77 688.616 288.434 688.744C293.362 689.128 293.938 688.552 293.938 686.76V681.192H276.978C278.578 681.704 280.178 682.344 281.458 683.048C284.146 684.456 284.786 686.632 283.25 689.064C281.714 691.496 279.282 691.88 276.914 689.768C274.994 687.976 272.434 685.864 270.45 684.392C269.298 683.496 268.978 682.536 269.49 681.32C269.49 681.256 269.554 681.256 269.554 681.192H260.274C258.546 681.192 257.65 680.232 257.65 678.44C257.65 676.648 258.546 675.688 260.274 675.688H293.938V674.664C293.938 673.576 294.258 672.744 294.898 672.104C285.746 673.192 274.674 673.96 263.026 674.216C260.594 674.28 259.186 673.064 259.122 670.632C259.058 668.328 260.146 666.984 262.898 667.048C268.722 667.24 274.93 667.24 281.074 667.176V664.808H267.698C265.01 664.808 263.538 663.336 263.538 660.648V650.856C263.538 648.168 265.01 646.696 267.698 646.696H281.074V644.776H262.066C260.338 644.776 259.442 643.816 259.442 642.024C259.442 640.232 260.338 639.272 262.066 639.272H281.074V639.016C281.074 636.264 282.93 634.728 286.322 634.728C289.714 634.728 291.57 636.264 291.57 639.016V639.272H310.77C312.498 639.272 313.394 640.232 313.394 642.024C313.394 643.816 312.498 644.776 310.77 644.776H291.57V646.696H305.074C307.762 646.696 309.234 648.168 309.234 650.856V660.648C309.234 662.312 308.658 663.528 307.57 664.168C309.106 665.256 310.642 666.536 311.922 667.944C313.65 669.8 313.33 671.848 311.474 673.384C309.426 675.048 307.186 674.6 306.034 672.616C305.65 671.976 305.266 671.336 304.818 670.696C303.794 670.888 302.77 671.016 301.682 671.208C303.346 671.784 304.178 672.936 304.178 674.664V675.688H312.562ZM273.138 652.328V653.544H281.266V651.56H273.906C273.458 651.56 273.138 651.88 273.138 652.328ZM298.866 651.56H291.378V653.544H299.634V652.328C299.634 651.88 299.314 651.56 298.866 651.56ZM273.906 659.944H281.266V657.896H273.138V659.176C273.138 659.624 273.458 659.944 273.906 659.944ZM299.634 657.896H291.378V659.944H298.866C299.314 659.944 299.634 659.624 299.634 659.176V657.896ZM291.57 664.808V666.92L301.682 666.536C301.618 666.408 301.49 666.344 301.426 666.216C301.042 665.704 300.85 665.256 300.786 664.808H291.57Z" fill="#594A39"/>
<path d="M337.138 651.24C334.13 651.24 332.466 650.024 332.466 647.592V644.392C332.466 641.704 333.938 639.848 336.626 639.848H353.97V638.504C353.97 635.944 355.826 634.344 359.282 634.344C362.674 634.344 364.594 635.88 364.594 638.504V639.848H382.066C384.754 639.848 386.226 641.704 386.226 644.392V647.464C386.226 650.088 384.562 651.176 381.554 651.176C378.546 651.176 376.882 649.896 376.882 648.04V646.312C376.882 645.8 376.562 645.48 376.114 645.48H342.578C342.13 645.48 341.81 645.672 341.81 646.248V647.848C341.81 649.96 340.146 651.24 337.138 651.24ZM384.37 684.072C387.25 684.648 388.85 686.824 387.954 689.896C387.058 693.032 384.69 693.864 381.746 692.904C374.962 690.664 368.818 687.08 364.658 682.984V690.536C364.658 693.928 362.802 695.272 359.41 695.272C356.018 695.272 354.162 693.928 354.162 690.536V683.944C348.53 688.36 340.786 691.752 333.938 693.096C332.594 693.352 331.506 692.84 331.122 691.368C330.738 689.96 331.314 688.808 332.658 688.232C339.57 685.416 344.562 682.728 348.722 679.144H334.578C332.914 679.144 331.954 678.12 331.954 676.328C331.954 674.536 332.914 673.512 334.578 673.512H354.162V672.552C354.162 671.72 354.29 671.08 354.61 670.504C349.362 671.784 343.538 672.424 337.394 672.424C335.986 672.424 335.218 671.592 335.026 670.248C334.834 668.904 335.602 667.816 337.266 667.688C344.306 667.176 349.938 666.088 354.418 664.424L349.618 663.272C349.362 663.464 349.17 663.72 348.914 663.912C346.674 666.024 344.562 666.216 342.322 663.976C340.466 662.12 340.914 660.2 342.514 658.536C343.09 657.96 343.602 657.384 344.114 656.808H335.282C333.746 656.808 332.85 655.848 332.85 654.248C332.85 652.648 333.746 651.688 335.282 651.688H348.53C349.49 650.472 350.386 649.32 351.346 648.04C352.882 645.992 355.058 645.48 357.554 647.016C359.666 648.296 360.114 649.96 359.474 651.688H382.898C384.434 651.688 385.33 652.648 385.33 654.248C385.33 655.848 384.434 656.808 382.898 656.808H375.858C374.642 658.792 373.106 660.52 371.442 662.056C374.002 662.696 376.562 663.272 378.93 663.976C382.13 664.872 383.346 667.048 382.194 669.928C381.106 672.616 378.738 673.064 375.986 671.912C372.21 670.312 368.114 668.712 363.698 667.24C362.866 667.624 362.034 668.072 361.138 668.392C363.378 668.776 364.658 670.12 364.658 672.488V673.512H384.114C385.778 673.512 386.738 674.536 386.738 676.328C386.738 678.12 385.778 679.144 384.114 679.144H368.306C372.53 681.064 377.97 682.728 384.37 684.072ZM353.714 659.176C356.402 659.432 359.218 659.816 362.034 660.264C363.378 659.24 364.466 658.088 365.49 656.808H355.826C355.186 657.576 354.482 658.344 353.714 659.176Z" fill="#594A39"/>
<g clip-path="url(#clip0_1327_12884)">
<path d="M363.893 28.1177C403.042 49.6585 436.623 79.4647 462.114 115.3C485.698 148.035 498.828 186.705 499.889 226.545C500.949 266.385 489.891 305.654 468.08 339.511C439.665 386.434 399.695 442.487 348.927 467.318C273.156 503.834 216.33 514.607 143.778 473.435C83.1606 439.109 23.2048 369.089 9.84997 314.588C-3.50483 260.088 -8.14476 199.562 27.5628 141.136C71.6052 68.7422 143.303 16.5241 220.401 3.37819C269.762 -5.37959 320.743 3.40984 363.893 28.1177Z" fill="#F8F9E9"/>
</g>
<g clip-path="url(#clip1_1327_12884)">
<path d="M203.4 382.872C293.091 382.872 365.8 310.147 365.8 220.436C365.8 130.725 293.091 57.9998 203.4 57.9998C113.709 57.9998 41 130.725 41 220.436C41 310.147 113.709 382.872 203.4 382.872Z" fill="#40A8DC"/>
<path d="M207.263 198H206.309C205.894 197.875 205.509 197.67 205.175 197.397C204.841 197.124 204.566 196.788 204.366 196.409C204.166 196.031 204.046 195.617 204.011 195.192C203.976 194.768 204.027 194.343 204.162 193.938C206.468 186.829 213.068 170.503 225.234 170.503H225.79C228.366 170.493 230.85 171.434 232.751 173.142C234.651 174.85 235.828 177.197 236.047 179.718C236.842 182.921 237.479 184.798 240.103 186.126C240.911 185.996 241.69 185.731 242.408 185.344C244.27 184.363 245.772 182.833 246.702 180.969C247.507 179.655 248.411 178.401 249.406 177.22L250.519 175.736C251.903 173.865 253.534 172.183 255.369 170.735C257.013 169.606 258.97 169 260.975 169C262.981 169 264.938 169.606 266.581 170.735C268.711 172.36 270.269 174.599 271.034 177.139C271.304 177.888 271.622 178.621 271.988 179.329C274.453 183.938 275.725 185.266 278.269 185.031C283.994 184.562 286.221 180.343 288.924 176.281C289.567 175.143 290.284 174.048 291.071 173.001C291.606 172.328 292.387 171.886 293.248 171.769C294.109 171.652 294.983 171.869 295.683 172.375C296.031 172.629 296.324 172.947 296.545 173.314C296.766 173.68 296.91 174.09 296.969 174.511C297.029 174.933 297.002 175.362 296.89 175.774C296.778 176.185 296.584 176.57 296.319 176.907C295.763 177.688 295.206 178.626 294.57 179.642C293.171 182.782 290.973 185.514 288.188 187.579C285.403 189.645 282.125 190.973 278.667 191.435C270.716 192.06 267.933 185.968 266.024 182.296C265.507 181.402 265.081 180.461 264.752 179.485C264.393 178.234 263.739 177.082 262.844 176.125C262.292 175.759 261.641 175.564 260.975 175.564C260.309 175.564 259.659 175.759 259.107 176.125C257.763 177.233 256.586 178.523 255.608 179.954L254.335 181.514C253.523 182.533 252.779 183.604 252.109 184.718C250.54 187.595 248.093 189.918 245.112 191.359C243.927 192.056 242.6 192.487 241.225 192.622C239.851 192.757 238.463 192.594 237.161 192.141C235.05 191.168 233.218 189.694 231.83 187.854C230.443 186.013 229.542 183.862 229.209 181.595C228.255 178.079 227.937 177.296 224.995 177.139C218.555 177.139 213.147 186.905 210.205 196.123C209.94 196.673 209.525 197.138 209.005 197.47C208.486 197.801 207.882 197.986 207.263 198Z" fill="#B6DAF3"/>
<path d="M244.488 146.186H243.837C243.328 146.021 242.904 145.663 242.66 145.187C242.416 144.711 242.371 144.157 242.535 143.648C243.968 139.089 248.07 128.602 255.558 128.602H255.884C257.514 128.596 259.087 129.2 260.293 130.297C261.498 131.395 262.249 132.903 262.395 134.527C262.916 136.611 263.307 137.786 265 138.633C265.498 138.521 265.98 138.346 266.433 138.111C267.594 137.511 268.531 136.552 269.102 135.376C269.607 134.512 270.173 133.682 270.795 132.899L271.512 131.989C272.41 130.795 273.436 129.703 274.572 128.733C275.621 128.059 276.842 127.699 278.088 127.699C279.335 127.699 280.556 128.059 281.605 128.733C282.967 129.753 283.951 131.195 284.405 132.835L284.991 134.203C286.553 137.199 287.335 137.98 288.963 137.85C292.544 137.525 294.107 134.855 295.475 132.25C295.886 131.527 296.342 130.829 296.842 130.164C297.17 129.732 297.656 129.448 298.194 129.375C298.46 129.339 298.73 129.354 298.99 129.423C299.25 129.491 299.493 129.61 299.707 129.772C299.921 129.935 300.101 130.138 300.236 130.37C300.371 130.602 300.46 130.861 300.496 131.127C300.532 131.393 300.516 131.663 300.447 131.922C300.379 132.182 300.26 132.427 300.098 132.641L298.991 134.396C298.139 136.407 296.779 138.163 295.043 139.488C293.307 140.813 291.257 141.662 289.093 141.953C284.209 142.343 282.582 138.436 281.149 136.092C280.85 135.523 280.589 134.936 280.368 134.333C280.156 133.518 279.728 132.775 279.13 132.183C278.792 131.962 278.396 131.843 277.991 131.843C277.586 131.843 277.19 131.962 276.851 132.183C275.985 132.884 275.237 133.719 274.637 134.657L273.791 135.637C273.298 136.284 272.842 136.956 272.423 137.653C271.45 139.527 269.897 141.036 267.995 141.953C267.249 142.405 266.41 142.681 265.541 142.76C264.672 142.839 263.797 142.721 262.981 142.411C261.73 141.779 260.647 140.859 259.821 139.727C258.994 138.594 258.448 137.282 258.228 135.898C257.642 133.618 257.447 133.161 255.624 133.096C251.586 133.096 248.2 139.282 246.312 145.209C246.119 145.517 245.85 145.769 245.53 145.941C245.21 146.112 244.851 146.196 244.488 146.186Z" fill="#B6DAF3"/>
<path d="M84.8885 297.354H84.3023C83.8391 297.19 83.4549 296.86 83.2256 296.425C82.9963 295.991 82.9391 295.485 83.0654 295.01C84.4329 290.842 88.2095 281.332 95.1118 281.332H95.5025C99.9955 281.332 100.777 284.654 101.363 286.738C101.949 288.822 102.144 289.671 103.707 290.453C104.139 290.362 104.556 290.206 104.944 289.995C106.028 289.446 106.899 288.552 107.419 287.454C107.875 286.802 108.33 286.022 108.982 285.24L109.633 284.394C110.428 283.294 111.37 282.307 112.433 281.462C113.39 280.801 114.525 280.448 115.688 280.448C116.851 280.448 117.987 280.801 118.944 281.462C120.183 282.421 121.093 283.741 121.549 285.24C121.655 285.678 121.831 286.096 122.07 286.477C123.503 289.213 124.154 289.931 125.651 289.801C128.907 289.801 130.34 287.063 131.772 284.719C132.139 284.061 132.553 283.429 133.01 282.83C133.307 282.438 133.746 282.181 134.232 282.108C134.719 282.035 135.214 282.155 135.614 282.442C136.01 282.751 136.272 283.201 136.344 283.698C136.417 284.195 136.295 284.7 136.005 285.11C136.005 285.501 135.354 286.088 134.963 286.675C134.186 288.502 132.951 290.095 131.377 291.305C129.802 292.515 127.942 293.3 125.977 293.579C121.549 293.904 119.856 290.385 118.749 288.236C118.456 287.719 118.216 287.173 118.033 286.608C117.642 285.696 117.381 284.916 116.926 284.655C116.607 284.445 116.233 284.334 115.851 284.334C115.469 284.334 115.096 284.445 114.777 284.655C114.024 285.316 113.347 286.057 112.758 286.869L112.042 287.781L110.74 289.67C109.852 291.353 108.464 292.719 106.767 293.579C106.076 293.988 105.301 294.233 104.5 294.301C103.7 294.368 102.895 294.254 102.144 293.967C100.984 293.373 99.9861 292.505 99.2372 291.439C98.4883 290.372 98.0108 289.138 97.8466 287.845C97.3256 285.761 97.1303 285.372 95.4373 285.307C91.7257 285.307 88.9257 290.973 86.9071 296.314C86.7482 296.698 86.4583 297.013 86.0887 297.204C85.7192 297.395 85.2938 297.447 84.8885 297.354Z" fill="#B6DAF3"/>
<path d="M238.237 289.54C231.4 281.399 220.2 280.553 210.302 280.031C210.12 280.016 209.937 280.043 209.768 280.111C209.598 280.179 209.447 280.286 209.325 280.423C201.316 279.12 193.502 273.19 185.232 276.056C181.818 277.432 178.75 279.546 176.247 282.245C173.497 285.093 170.165 287.314 166.479 288.758C164.512 289.211 162.663 290.078 161.057 291.302C159.452 292.526 158.125 294.079 157.167 295.856C155.36 300.132 154.345 304.702 154.172 309.34C153.608 313.349 154.278 317.435 156.093 321.053C157.908 324.671 160.781 327.65 164.33 329.595C167.559 330.498 170.955 330.631 174.245 329.986C177.535 329.342 180.629 327.938 183.279 325.884C189.27 322.562 196.302 318.588 202.423 323.604C205.068 326.269 207.873 328.77 210.823 331.093C214.118 333.04 218.034 333.648 221.763 332.788C225.646 331.67 229.193 329.611 232.089 326.793C234.986 323.976 237.142 320.487 238.367 316.636C240.513 311.847 241.876 306.744 242.405 301.523C242.649 297.135 241.151 292.83 238.237 289.54Z" fill="#9ACC77"/>
<path d="M192.33 143.387C190.975 142.653 189.481 142.21 187.945 142.086C186.409 141.963 184.864 142.16 183.409 142.668C180.37 140.436 176.697 139.234 172.926 139.234C169.154 139.234 165.481 140.436 162.442 142.668C160.659 144.378 158.642 145.826 156.451 146.968C152.305 149.117 148.525 151.909 145.251 155.24L139.13 163.966C131.782 173.804 124.957 184.023 118.684 194.579C115.693 199.388 113.748 204.774 112.974 210.384C112.2 215.995 112.614 221.704 114.191 227.144C116.198 231.482 119.465 235.114 123.567 237.566C125.567 238.862 127.423 240.368 129.102 242.059C131.098 244.331 132.645 246.961 133.66 249.81C134.817 254.165 137.618 257.901 141.474 260.231C143.338 261.155 145.409 261.579 147.486 261.465C149.562 261.351 151.574 260.702 153.326 259.579C157.298 256.518 157.493 249.484 158.34 244.925C159.321 238.817 161.371 232.931 164.395 227.535C167.456 222.455 170.907 217.7 173.772 212.49C176.64 207.177 179.184 201.696 181.391 196.077C186.339 183.637 190.377 170.807 194.414 158.172C196.237 153.417 197.474 146.578 192.33 143.387Z" fill="#B2D795"/>
<path d="M356.684 299.439C322.888 310.576 292.544 275.861 297.428 243.295C300.619 222.128 317.614 208.778 331.744 194.384L355.056 170.545C359.807 164.911 365.332 159.977 371.465 155.891C401.093 139.087 433.13 171.195 434.758 200.048C436.256 227.142 415.223 243.491 398.033 260.946C394.191 264.853 395.102 269.087 400.572 270.454C403.813 271.093 407.157 270.986 410.35 270.14C413.543 269.293 416.501 267.73 419 265.57C437.167 247.007 459.698 229.032 460.935 200.961C461.398 191.391 459.592 181.85 455.666 173.111C451.739 164.373 445.802 156.684 438.34 150.678C430.142 144.508 420.702 140.196 410.673 138.037C400.643 135.878 390.265 135.923 380.256 138.174C352.125 143.84 335.26 164.749 316.311 184.093C299.511 201.287 276.916 218.805 271.837 243.489C269.733 253.883 270.393 264.648 273.753 274.706C277.112 284.765 283.054 293.765 290.981 300.806C300.526 308.616 311.924 313.827 324.074 315.938C336.223 318.049 348.711 316.988 360.33 312.856C364.302 311.554 372.898 308.36 371.53 302.629C370.163 296.897 360.2 298.267 356.684 299.439Z" fill="#DDE0E5"/>
<path d="M330.051 280.486C364.628 269.609 394.321 306.538 388.265 339.103C384.423 359.489 367.037 372.905 353.298 387.039L330.898 409.834C326.146 415.469 320.621 420.402 314.488 424.489C284.925 441.292 252.823 409.184 251.26 380.331C249.697 353.107 270.795 336.693 288.181 319.173C292.023 315.265 291.046 311.032 285.642 309.664C282.396 309.034 279.049 309.153 275.856 310.011C272.663 310.868 269.707 312.444 267.214 314.616C248.981 333.178 226.256 351.219 225.084 379.746C223.26 422.667 263.697 450.282 303.939 442.858C320.124 439.947 334.992 432.043 346.46 420.256C354.057 412.57 361.632 404.841 369.186 397.069C385.855 380.07 408.256 362.485 413.921 338.451C416.153 328.299 415.738 317.746 412.716 307.8C409.694 297.855 404.167 288.853 396.665 281.659C387.227 273.359 375.763 267.705 363.435 265.268C351.107 262.832 338.353 263.701 326.469 267.787C322.432 269.09 313.837 272.345 315.204 278.011C316.572 283.678 326.535 282.375 330.051 281.268V280.486Z" fill="#BDC3CD"/>
<path d="M180.154 74.7389C178.498 69.9309 176.54 65.2311 174.293 60.6697L167.781 61.9736C145.933 66.9498 125.348 76.3817 107.314 89.6827C89.2794 102.984 74.1844 119.866 62.974 139.272C51.7636 158.677 44.6791 180.189 42.1641 202.459C39.6492 224.73 41.758 247.279 48.3582 268.697C49.0094 270.911 49.7906 273.126 50.5719 275.21C62.0335 266.372 71.2911 254.998 77.618 241.98C83.945 228.962 87.1693 214.653 87.0373 200.179C86.1257 179.012 75.9024 152.44 91.5303 134.008C99.5396 124.63 111.065 125.41 122.526 124.172C134.353 122.5 145.818 118.869 156.451 113.426C165.502 109.128 179.893 104.244 182.953 93.4322C183.798 87.062 182.828 80.5818 180.154 74.7389Z" fill="#9ACC77"/>
<path d="M178.46 173.865H158.926C160.064 171.627 161.325 169.453 162.702 167.352C164.461 164.877 166.349 162.728 167.651 162.859C168.954 162.989 170.842 164.879 172.795 167.028C174.749 169.177 178.46 173.865 178.46 173.865Z" fill="#DDEDD0"/>
<path d="M170.777 196.207H144.73C146.281 193.323 147.977 190.519 149.809 187.805C152.089 184.549 154.628 181.617 156.321 181.877C159.053 183.109 161.428 185.014 163.223 187.414C167.065 191.452 170.777 196.207 170.777 196.207Z" fill="#DDEDD0"/>
<path d="M158.991 216.07H137.763C139.054 213.697 140.467 211.396 141.995 209.169C143.819 206.498 145.902 204.087 147.335 204.217C149.584 205.255 151.533 206.845 153 208.841C156.061 212.163 158.991 216.07 158.991 216.07Z" fill="#DDEDD0"/>
</g>
<defs>
<clipPath id="clip0_1327_12884">
<rect width="500" height="500" fill="white" transform="translate(0 500) rotate(-90)"/>
</clipPath>
<clipPath id="clip1_1327_12884">
<rect width="420" height="385.574" fill="white" transform="translate(41 57.9998)"/>
</clipPath>
</defs>
</svg>
