<svg width="500" height="847" viewBox="0 0 500 847" fill="none" xmlns="http://www.w3.org/2000/svg">
<rect x="120" y="760" width="260" height="87" rx="43.5" fill="#7DBD36"/>
<path d="M222.122 819.023C219.98 819.023 218.762 817.763 218.762 815.579V802.937C218.762 801.467 219.266 798.065 219.476 796.679L219.182 796.637C217.586 802.685 215.108 808.439 212.756 813.563C211.874 815.537 210.95 816.419 209.06 816.419C207.254 816.419 205.994 815.495 205.154 813.563C202.886 808.481 200.324 802.559 198.476 796.553H198.182C198.392 797.897 198.728 801.173 198.728 802.811V815.579C198.728 817.805 197.552 819.023 195.41 819.023C193.394 819.023 192.176 817.763 192.176 815.579V792.017C192.176 788.741 193.898 786.977 196.838 786.977C199.358 786.977 200.492 788.111 201.794 791.261C204.062 796.721 207.464 805.163 209.018 809.153H209.102L215.654 791.135C216.788 788.069 218.174 786.893 221.156 786.935C224.054 786.977 225.482 788.573 225.482 791.849V815.579C225.482 817.805 224.222 819.023 222.122 819.023Z" fill="white"/>
<path d="M246.146 819.065C238.712 819.065 234.806 814.613 234.806 807.095C234.806 800.291 239.51 795.923 246.44 795.923C253.286 795.923 257.654 800.249 257.696 807.095C257.738 814.781 253.286 819.065 246.146 819.065ZM246.23 814.403C249.128 814.319 250.388 812.219 250.388 807.221C250.388 802.685 249.17 800.501 246.23 800.543C243.374 800.585 242.072 802.727 242.114 807.221C242.156 811.967 243.206 814.487 246.23 814.403Z" fill="white"/>
<path d="M281.01 798.443C281.22 800.753 279.75 801.467 277.692 801.719C275.466 802.013 273.366 804.197 272.736 806.969V815.663C272.736 818.015 271.308 819.023 268.998 819.023C266.688 819.023 265.596 817.973 265.596 815.663V798.821C265.596 796.805 266.94 795.923 268.998 795.923C270.93 795.923 272.19 796.931 272.19 798.989V800.963C273.072 797.477 275.046 796.049 277.524 795.965C279.414 795.923 280.842 796.553 281.01 798.443Z" fill="white"/>
<path d="M303.456 812.891C304.59 812.051 305.808 812.135 306.606 813.059C307.404 813.941 307.446 815.159 306.564 816.125C305.22 817.637 301.944 819.023 297.786 819.023C291.192 819.023 286.11 815.705 286.11 807.977C286.11 800.543 290.478 795.881 297.492 795.881C304.38 795.881 307.824 801.005 307.824 805.961C307.824 808.355 306.606 809.615 304.044 809.615H293.376C293.796 813.101 295.35 814.403 298.332 814.487C300.39 814.529 302.07 813.941 303.456 812.891ZM297.576 800.291C294.93 800.291 293.754 802.097 293.376 804.995H301.02C301.272 804.995 301.398 804.869 301.398 804.617C301.398 801.719 299.928 800.291 297.576 800.291Z" fill="white"/>
<rect width="500" height="160" transform="translate(0 540)" fill="#FDFDFB"/>
<path d="M39.7246 597.39C29.0206 597.39 22.6366 590.766 22.6366 578.574C22.6366 567.726 29.4526 560.718 40.2046 560.718C46.0126 560.718 49.9966 563.022 51.7726 564.798C52.9726 565.998 53.0686 567.486 51.9166 568.734C50.7166 570.03 49.2286 570.078 47.7886 568.878C46.3966 567.726 43.9966 566.334 40.0606 566.334C34.6366 566.334 31.1806 571.038 31.1806 578.67C31.1806 587.31 34.1566 591.726 39.7726 591.726C42.0766 591.726 43.9486 591.294 44.9086 590.718C45.2926 590.478 45.4366 590.286 45.4366 589.854V583.134C45.4366 582.894 45.2926 582.702 45.0046 582.702H40.5406C38.7646 582.702 37.8046 581.79 37.8046 580.014C37.8046 578.238 38.7646 577.326 40.5406 577.326H49.7086C51.7726 577.326 52.9726 578.478 52.9726 580.59V590.718C52.9726 592.542 52.4446 593.694 51.1006 594.654C48.7006 596.382 44.4766 597.39 39.7246 597.39Z" fill="#594A39"/>
<path d="M78.8491 573.87C79.0891 576.51 77.4091 577.326 75.0571 577.614C72.5131 577.95 70.1131 580.446 69.3931 583.614V593.55C69.3931 596.238 67.7611 597.39 65.1211 597.39C62.4811 597.39 61.2331 596.19 61.2331 593.55V574.302C61.2331 571.998 62.7691 570.99 65.1211 570.99C67.3291 570.99 68.7691 572.142 68.7691 574.494V576.75C69.7771 572.766 72.0331 571.134 74.8651 571.038C77.0251 570.99 78.6571 571.71 78.8491 573.87Z" fill="#594A39"/>
<path d="M102.582 590.382C103.878 589.422 105.27 589.518 106.182 590.574C107.094 591.582 107.142 592.974 106.134 594.078C104.598 595.806 100.854 597.39 96.1017 597.39C88.5657 597.39 82.7577 593.598 82.7577 584.766C82.7577 576.27 87.7497 570.942 95.7657 570.942C103.638 570.942 107.574 576.798 107.574 582.462C107.574 585.198 106.182 586.638 103.254 586.638H91.0617C91.5417 590.622 93.3177 592.11 96.7257 592.206C99.0777 592.254 100.998 591.582 102.582 590.382ZM95.8617 575.982C92.8377 575.982 91.4937 578.046 91.0617 581.358H99.7977C100.086 581.358 100.23 581.214 100.23 580.926C100.23 577.614 98.5497 575.982 95.8617 575.982Z" fill="#594A39"/>
<path d="M132.721 590.382C134.017 589.422 135.409 589.518 136.321 590.574C137.233 591.582 137.28 592.974 136.272 594.078C134.736 595.806 130.993 597.39 126.241 597.39C118.704 597.39 112.896 593.598 112.896 584.766C112.896 576.27 117.889 570.942 125.905 570.942C133.777 570.942 137.713 576.798 137.713 582.462C137.713 585.198 136.321 586.638 133.393 586.638H121.201C121.681 590.622 123.457 592.11 126.865 592.206C129.216 592.254 131.137 591.582 132.721 590.382ZM126.001 575.982C122.977 575.982 121.632 578.046 121.201 581.358H129.937C130.225 581.358 130.368 581.214 130.368 580.926C130.368 577.614 128.689 575.982 126.001 575.982Z" fill="#594A39"/>
<path d="M159.739 570.99C165.451 570.99 169.003 574.638 169.003 580.542V593.406C169.003 595.998 167.563 597.39 164.923 597.39C162.283 597.39 160.843 595.998 160.843 593.406V581.166C160.843 578.142 159.595 576.318 157.387 576.318C155.275 576.318 153.355 578.238 152.731 580.926V593.406C152.731 595.998 151.291 597.39 148.651 597.39C146.011 597.39 144.571 595.998 144.571 593.406V574.734C144.571 572.334 145.915 571.038 148.315 571.038C150.763 571.038 152.107 572.238 152.107 574.686V575.454C153.547 572.526 156.523 570.99 159.739 570.99Z" fill="#594A39"/>
<path d="M215.529 578.478C219.033 579.102 223.257 581.646 223.257 586.974C223.257 594.846 215.673 597.054 208.377 597.054C205.689 597.054 202.761 597.054 200.649 596.766C198.009 596.382 196.713 595.086 196.713 592.638V565.566C196.713 563.118 197.961 561.774 200.505 561.438C201.897 561.246 204.729 561.15 207.177 561.15C214.953 561.15 221.961 563.454 221.961 570.318C221.961 575.022 218.697 577.422 215.529 578.094V578.478ZM205.401 566.718C205.065 566.766 204.969 566.91 204.969 567.15V575.982H206.553C211.113 575.982 213.897 575.07 213.897 571.038C213.897 568.014 211.401 566.622 206.841 566.622C206.361 566.622 205.881 566.67 205.401 566.718ZM207.609 591.438C211.689 591.438 215.049 589.998 215.049 586.158C215.049 582.462 212.313 580.83 206.649 580.83H204.969V590.862C204.969 591.15 205.113 591.294 205.401 591.342C205.977 591.438 206.793 591.438 207.609 591.438Z" fill="#594A39"/>
<path d="M242.24 597.438C233.744 597.438 229.28 592.35 229.28 583.758C229.28 575.982 234.656 570.99 242.576 570.99C250.4 570.99 255.392 575.934 255.44 583.758C255.488 592.542 250.4 597.438 242.24 597.438ZM242.336 592.11C245.648 592.014 247.088 589.614 247.088 583.902C247.088 578.718 245.696 576.222 242.336 576.27C239.072 576.318 237.584 578.766 237.632 583.902C237.68 589.326 238.88 592.206 242.336 592.11Z" fill="#594A39"/>
<path d="M277.716 570.99C283.428 570.99 286.98 574.638 286.98 580.542V593.406C286.98 595.998 285.54 597.39 282.9 597.39C280.26 597.39 278.82 595.998 278.82 593.406V581.166C278.82 578.142 277.572 576.318 275.364 576.318C273.252 576.318 271.332 578.238 270.708 580.926V593.406C270.708 595.998 269.268 597.39 266.628 597.39C263.988 597.39 262.548 595.998 262.548 593.406V574.734C262.548 572.334 263.892 571.038 266.292 571.038C268.74 571.038 270.084 572.238 270.084 574.686V575.454C271.524 572.526 274.5 570.99 277.716 570.99Z" fill="#594A39"/>
<path d="M314.852 559.23C317.444 559.23 318.884 560.718 318.884 563.406V593.598C318.884 595.998 317.54 597.39 315.14 597.39C313.172 597.39 311.732 596.43 311.3 594.75C309.764 596.382 307.124 597.39 304.724 597.39C299.156 597.39 293.588 594.126 293.588 584.334C293.588 576.174 298.388 570.99 304.676 570.99C307.748 570.99 309.668 572.19 310.724 573.15V563.31C310.724 560.622 312.116 559.23 314.852 559.23ZM306.884 591.918C308.516 591.918 310.1 591.102 311.156 589.662V579.678C310.532 578.286 309.14 576.414 306.356 576.414C303.572 576.414 301.364 579.102 301.364 584.43C301.364 589.182 303.62 591.918 306.884 591.918Z" fill="#594A39"/>
<path d="M326.311 590.718C327.127 589.71 328.471 589.518 329.719 590.286C331.159 591.15 333.223 592.014 335.335 592.014C337.447 592.014 338.455 591.486 338.455 590.238C338.455 589.038 337.927 588.222 333.799 586.398C328.903 584.238 326.359 582.222 326.359 578.286C326.359 573.966 330.535 570.99 336.679 570.99C340.807 570.99 343.639 572.286 345.031 573.486C346.135 574.446 346.327 575.886 345.511 576.99C344.695 578.094 342.919 578.382 341.575 577.422C340.423 576.606 338.887 576.318 337.111 576.318C335.287 576.318 334.375 576.99 334.375 577.998C334.375 579.15 335.335 579.726 338.887 581.358C344.503 583.902 346.711 586.014 346.711 589.806C346.711 594.99 341.815 597.39 336.679 597.39C333.031 597.39 328.759 596.478 326.695 594.414C325.543 593.262 325.351 591.87 326.311 590.718Z" fill="#594A39"/>
<path d="M392.195 574.158C393.635 575.694 394.355 577.854 394.355 580.638V593.406C394.355 595.998 393.347 597.39 390.851 597.39C388.307 597.39 387.155 595.998 387.155 593.406V593.262C385.571 596.046 382.595 597.39 378.803 597.39C373.715 597.39 370.595 594.414 370.595 589.662C370.595 583.95 375.923 580.398 383.987 580.398C384.947 580.398 385.955 580.446 386.579 580.542V580.11C386.579 577.71 385.235 576.27 382.691 576.174C380.627 576.078 378.419 576.99 376.595 578.958C375.443 580.206 373.763 580.398 372.563 579.342C371.315 578.334 371.171 576.75 372.275 575.358C374.003 573.246 377.795 570.99 382.835 570.99C387.299 570.99 390.131 571.998 392.195 574.158ZM386.675 587.886V585.438C386.051 585.342 384.995 585.246 384.083 585.294C379.475 585.534 377.891 587.31 377.987 589.182C378.083 590.814 379.091 591.774 381.059 591.774C383.315 591.774 385.571 590.19 386.675 587.886Z" fill="#594A39"/>
<path d="M417.675 570.99C423.387 570.99 426.939 574.638 426.939 580.542V593.406C426.939 595.998 425.5 597.39 422.859 597.39C420.219 597.39 418.779 595.998 418.779 593.406V581.166C418.779 578.142 417.531 576.318 415.323 576.318C413.211 576.318 411.291 578.238 410.667 580.926V593.406C410.667 595.998 409.228 597.39 406.587 597.39C403.947 597.39 402.507 595.998 402.507 593.406V574.734C402.507 572.334 403.852 571.038 406.251 571.038C408.699 571.038 410.043 572.238 410.043 574.686V575.454C411.483 572.526 414.459 570.99 417.675 570.99Z" fill="#594A39"/>
<path d="M454.812 559.23C457.404 559.23 458.844 560.718 458.844 563.406V593.598C458.844 595.998 457.5 597.39 455.1 597.39C453.132 597.39 451.692 596.43 451.26 594.75C449.724 596.382 447.084 597.39 444.684 597.39C439.116 597.39 433.548 594.126 433.548 584.334C433.548 576.174 438.348 570.99 444.636 570.99C447.708 570.99 449.628 572.19 450.684 573.15V563.31C450.684 560.622 452.076 559.23 454.812 559.23ZM446.844 591.918C448.476 591.918 450.06 591.102 451.116 589.662V579.678C450.492 578.286 449.1 576.414 446.316 576.414C443.532 576.414 441.324 579.102 441.324 584.43C441.324 589.182 443.58 591.918 446.844 591.918Z" fill="#594A39"/>
<path d="M16.391 661.134C17.351 659.838 19.079 659.598 20.375 660.606C22.343 662.142 24.503 663.63 27.815 663.63C30.743 663.63 32.519 662.382 32.567 660.078C32.615 658.206 31.943 656.286 26.375 653.406C19.175 649.614 16.103 646.686 16.103 641.742C16.103 636.27 21.047 632.718 28.775 632.718C33.479 632.718 37.127 634.062 38.759 635.646C40.103 636.942 40.391 638.622 39.479 640.014C38.471 641.502 36.599 641.79 35.111 640.542C33.479 639.198 31.607 638.382 28.727 638.43C26.087 638.478 24.551 639.534 24.551 641.166C24.551 642.99 25.223 644.622 30.839 647.502C38.087 651.294 41.111 654.318 41.111 659.118C41.111 665.55 36.263 669.39 28.247 669.39C22.727 669.39 18.791 667.566 16.823 665.598C15.527 664.302 15.383 662.526 16.391 661.134Z" fill="#594A39"/>
<path d="M60.0721 669.438C51.5761 669.438 47.1121 664.35 47.1121 655.758C47.1121 647.982 52.4881 642.99 60.4081 642.99C68.2321 642.99 73.2241 647.934 73.2721 655.758C73.3201 664.542 68.2321 669.438 60.0721 669.438ZM60.1681 664.11C63.4801 664.014 64.9201 661.614 64.9201 655.902C64.9201 650.718 63.5281 648.222 60.1681 648.27C56.9041 648.318 55.4161 650.766 55.4641 655.902C55.5121 661.326 56.7121 664.206 60.1681 664.11Z" fill="#594A39"/>
<path d="M87.3886 669.39C82.3486 669.39 80.3806 667.518 80.3806 661.47V635.166C80.3806 632.622 81.8206 631.23 84.4606 631.23C87.0046 631.23 88.4926 632.622 88.4926 635.166V661.518C88.4926 662.91 88.6366 663.39 89.6446 663.39C90.2206 663.39 90.5566 663.15 91.1326 663.15C91.9966 663.15 93.2446 663.822 93.2446 665.886C93.2446 668.574 90.6046 669.39 87.3886 669.39Z" fill="#594A39"/>
<path d="M119.424 646.158C120.864 647.694 121.584 649.854 121.584 652.638V665.406C121.584 667.998 120.576 669.39 118.08 669.39C115.536 669.39 114.384 667.998 114.384 665.406V665.262C112.8 668.046 109.824 669.39 106.032 669.39C100.944 669.39 97.8237 666.414 97.8237 661.662C97.8237 655.95 103.152 652.398 111.216 652.398C112.176 652.398 113.184 652.446 113.808 652.542V652.11C113.808 649.71 112.464 648.27 109.92 648.174C107.856 648.078 105.648 648.99 103.824 650.958C102.672 652.206 100.992 652.398 99.7917 651.342C98.5437 650.334 98.3997 648.75 99.5037 647.358C101.232 645.246 105.024 642.99 110.064 642.99C114.528 642.99 117.36 643.998 119.424 646.158ZM113.904 659.886V657.438C113.28 657.342 112.224 657.246 111.312 657.294C106.704 657.534 105.12 659.31 105.216 661.182C105.312 662.814 106.32 663.774 108.288 663.774C110.544 663.774 112.8 662.19 113.904 659.886Z" fill="#594A39"/>
<path d="M147.352 645.87C147.592 648.51 145.912 649.326 143.56 649.614C141.016 649.95 138.616 652.446 137.896 655.614V665.55C137.896 668.238 136.264 669.39 133.624 669.39C130.984 669.39 129.736 668.19 129.736 665.55V646.302C129.736 643.998 131.272 642.99 133.624 642.99C135.832 642.99 137.272 644.142 137.272 646.494V648.75C138.28 644.766 140.536 643.134 143.368 643.038C145.528 642.99 147.16 643.71 147.352 645.87Z" fill="#594A39"/>
<path d="M195.199 665.934C195.199 667.71 194.287 668.67 192.559 668.67H176.815C174.271 668.67 172.831 667.278 172.831 664.638V637.422C172.831 634.878 174.223 633.438 176.815 633.438H192.319C193.999 633.438 194.959 634.398 194.959 636.174C194.959 637.95 194.047 638.91 192.319 638.91H181.519C181.279 638.91 181.087 639.054 181.087 639.342V647.742H190.927C192.559 647.742 193.567 648.702 193.567 650.478C193.567 652.206 192.607 653.214 190.927 653.214H181.087V662.766C181.087 663.006 181.231 663.198 181.519 663.198H192.559C194.239 663.198 195.199 664.11 195.199 665.934Z" fill="#594A39"/>
<path d="M217.274 642.99C222.986 642.99 226.538 646.638 226.538 652.542V665.406C226.538 667.998 225.098 669.39 222.458 669.39C219.818 669.39 218.378 667.998 218.378 665.406V653.166C218.378 650.142 217.13 648.318 214.922 648.318C212.81 648.318 210.89 650.238 210.266 652.926V665.406C210.266 667.998 208.826 669.39 206.186 669.39C203.546 669.39 202.106 667.998 202.106 665.406V646.734C202.106 644.334 203.45 643.038 205.85 643.038C208.298 643.038 209.642 644.238 209.642 646.686V647.454C211.082 644.526 214.058 642.99 217.274 642.99Z" fill="#594A39"/>
<path d="M252.97 662.382C254.266 661.422 255.658 661.518 256.57 662.574C257.482 663.582 257.53 664.974 256.522 666.078C254.986 667.806 251.242 669.39 246.49 669.39C238.954 669.39 233.146 665.598 233.146 656.766C233.146 648.27 238.138 642.942 246.154 642.942C254.026 642.942 257.962 648.798 257.962 654.462C257.962 657.198 256.57 658.638 253.642 658.638H241.45C241.93 662.622 243.706 664.11 247.114 664.206C249.466 664.254 251.386 663.582 252.97 662.382ZM246.25 647.982C243.226 647.982 241.882 650.046 241.45 653.358H250.186C250.474 653.358 250.618 653.214 250.618 652.926C250.618 649.614 248.938 647.982 246.25 647.982Z" fill="#594A39"/>
<path d="M282.437 645.87C282.677 648.51 280.997 649.326 278.645 649.614C276.101 649.95 273.701 652.446 272.981 655.614V665.55C272.981 668.238 271.349 669.39 268.709 669.39C266.069 669.39 264.821 668.19 264.821 665.55V646.302C264.821 643.998 266.357 642.99 268.709 642.99C270.917 642.99 272.357 644.142 272.357 646.494V648.75C273.365 644.766 275.621 643.134 278.453 643.038C280.613 642.99 282.245 643.71 282.437 645.87Z" fill="#594A39"/>
<path d="M307.609 643.038C310.249 643.038 311.161 644.382 311.161 646.974V668.142C311.161 676.59 306.745 680.766 298.393 680.766C295.369 680.766 291.961 679.854 289.993 678.558C288.361 677.502 287.785 676.11 288.601 674.574C289.369 673.086 290.953 672.798 292.393 673.71C293.881 674.622 295.465 675.342 298.105 675.342C301.849 675.342 303.481 673.326 303.481 668.43V666.558C301.993 667.854 299.833 668.67 297.721 668.67C292.057 668.67 286.345 665.838 286.345 656.238C286.345 647.886 290.857 642.99 297.481 642.99C300.505 642.99 302.617 644.142 303.913 645.918C304.249 644.094 305.545 643.038 307.609 643.038ZM299.545 663.246C301.225 663.246 302.809 662.478 303.817 661.134V651.87C303.289 650.478 301.993 648.414 299.161 648.414C296.041 648.414 294.121 650.814 294.121 656.334C294.121 660.846 296.281 663.246 299.545 663.246Z" fill="#594A39"/>
<path d="M322.633 680.478C319.993 680.478 317.305 679.518 317.305 677.118C317.305 675.486 318.217 674.286 319.657 674.286C320.617 674.286 321.385 674.478 321.865 674.478C323.401 674.478 324.169 674.142 324.841 673.086C325.369 672.222 326.569 669.678 327.145 668.19C324.265 662.094 320.521 653.934 317.977 648.222C316.921 645.822 317.497 644.43 319.849 643.374C321.769 642.51 323.881 643.422 324.841 645.774C327.049 651.15 329.929 658.542 330.793 660.798H330.985C331.849 658.35 333.961 651.006 335.401 645.726C336.073 643.278 337.609 642.606 340.009 643.278C342.169 643.902 343.033 645.294 342.265 647.406C340.153 653.262 336.409 663.246 334.249 668.238C333.097 670.83 331.657 674.238 330.169 676.638C328.585 679.23 325.993 680.478 322.633 680.478Z" fill="#594A39"/>
<path d="M377.115 638.91C376.875 638.91 376.683 639.054 376.683 639.342V647.742H386.187C387.867 647.742 388.779 648.702 388.779 650.478C388.779 652.254 387.867 653.214 386.187 653.214H376.683V665.214C376.683 667.95 375.147 669.39 372.555 669.39C369.915 669.39 368.427 667.95 368.427 665.214V637.422C368.427 634.878 369.819 633.438 372.315 633.438H387.675C389.355 633.438 390.267 634.398 390.267 636.174C390.267 637.95 389.355 638.91 387.675 638.91H377.115Z" fill="#594A39"/>
<path d="M415.318 642.99C417.91 642.99 419.302 644.382 419.302 646.878V665.886C419.302 668.046 418.054 669.39 415.702 669.39C413.398 669.39 412.102 668.094 412.054 665.934V665.454C410.662 667.902 407.926 669.342 404.518 669.342C398.71 669.342 395.206 665.79 395.206 659.838V646.926C395.206 644.382 396.646 642.99 399.286 642.99C401.926 642.99 403.366 644.382 403.366 646.926V658.782C403.366 662.19 404.422 663.822 406.822 663.822C409.462 663.822 410.902 660.654 411.334 658.734V646.878C411.334 644.382 412.774 642.99 415.318 642.99Z" fill="#594A39"/>
<path d="M443.102 642.99C448.814 642.99 452.366 646.638 452.366 652.542V665.406C452.366 667.998 450.926 669.39 448.286 669.39C445.646 669.39 444.206 667.998 444.206 665.406V653.166C444.206 650.142 442.958 648.318 440.75 648.318C438.638 648.318 436.718 650.238 436.094 652.926V665.406C436.094 667.998 434.654 669.39 432.014 669.39C429.374 669.39 427.934 667.998 427.934 665.406V646.734C427.934 644.334 429.278 643.038 431.678 643.038C434.126 643.038 435.47 644.238 435.47 646.686V647.454C436.91 644.526 439.886 642.99 443.102 642.99Z" fill="#594A39"/>
<path d="M480.239 631.23C482.831 631.23 484.271 632.718 484.271 635.406V665.598C484.271 667.998 482.927 669.39 480.527 669.39C478.559 669.39 477.119 668.43 476.687 666.75C475.151 668.382 472.511 669.39 470.111 669.39C464.543 669.39 458.975 666.126 458.975 656.334C458.975 648.174 463.775 642.99 470.063 642.99C473.135 642.99 475.055 644.19 476.111 645.15V635.31C476.111 632.622 477.503 631.23 480.239 631.23ZM472.271 663.918C473.903 663.918 475.487 663.102 476.543 661.662V651.678C475.919 650.286 474.527 648.414 471.743 648.414C468.959 648.414 466.751 651.102 466.751 656.43C466.751 661.182 469.007 663.918 472.271 663.918Z" fill="#594A39"/>
<g clip-path="url(#clip0_1384_1950)">
<path d="M28.1177 136.106C49.6586 96.9566 79.4648 63.3759 115.3 37.8851C148.035 14.3011 186.705 1.17041 226.545 0.110114C266.385 -0.950155 305.654 10.1074 339.511 31.9192C386.434 60.3336 442.487 100.304 467.318 151.071C503.834 226.843 514.607 283.669 473.435 356.221C439.109 416.838 369.089 476.794 314.588 490.149C260.088 503.504 199.562 508.143 141.136 472.436C68.7422 428.394 16.5241 356.696 3.37822 279.598C-5.37955 230.237 3.40988 179.256 28.1177 136.106Z" fill="#F8F9E9"/>
</g>
<g clip-path="url(#clip1_1384_1950)">
<path d="M40.7818 275.732C40.7818 275.732 46.9707 190.52 70.0977 149.803C70.0977 149.803 367.818 140.291 432.573 142.897C432.573 142.897 413.029 339.38 432.573 409.022C432.573 409.022 166.645 422.05 54.2019 401.594C54.2019 401.594 36.1564 366.09 40.7818 275.732Z" fill="#EEE9DD"/>
<path d="M92.7687 332.604C92.7687 332.604 93.0947 392.992 71.4661 439.507L106.385 429.216L139.609 456.185C146.66 413.766 148.454 370.639 144.951 327.781" fill="#6CAE6E"/>
<path d="M124.625 341.529C158.518 341.529 185.993 314.054 185.993 280.161C185.993 246.268 158.518 218.793 124.625 218.793C90.7327 218.793 63.2573 246.268 63.2573 280.161C63.2573 314.054 90.7327 341.529 124.625 341.529Z" fill="#BAC51A"/>
<path d="M124.625 320.747C147.041 320.747 165.212 302.576 165.212 280.161C165.212 257.745 147.041 239.574 124.625 239.574C102.21 239.574 84.0391 257.745 84.0391 280.161C84.0391 302.576 102.21 320.747 124.625 320.747Z" fill="#EFF2D2"/>
<path opacity="0.63" d="M117.133 359.248C117.46 363.946 117.264 368.667 116.547 373.321C115.026 384.727 111.45 395.763 105.994 405.894C104.56 408.565 111.27 407.783 112.508 405.894C118.175 395.421 121.904 384.012 123.518 372.214C124.289 367.259 124.507 362.232 124.169 357.228C124.169 355.209 117.134 356.579 117.329 359.054L117.133 359.248Z" fill="#FFFEFD"/>
<path d="M211.531 295.989C258.603 292.406 305.893 292.799 352.899 297.162H353.941C355.7 297.292 357.464 297.019 359.101 296.364C360.738 295.709 362.204 294.69 363.388 293.383C363.746 292.93 363.977 292.388 364.057 291.815C364.137 291.243 364.063 290.661 363.843 290.126C363.192 288.758 361.303 288.432 359.739 288.236C311.496 283.793 262.964 283.423 214.658 287.13C214.658 287.13 205.863 287.845 205.277 292.079C205.167 292.549 205.175 293.038 205.3 293.504C205.425 293.97 205.663 294.399 205.993 294.751C207.361 296.25 210.163 296.054 211.531 295.989Z" fill="#8C8468"/>
<path d="M363.974 322.311C363.257 320.943 361.433 320.616 359.87 320.485C311.626 316.053 263.097 315.662 214.788 319.315C214.788 319.315 205.928 320.095 205.407 324.264C205.292 324.734 205.297 325.226 205.422 325.693C205.547 326.16 205.789 326.588 206.124 326.936C207.492 328.435 210.293 328.175 211.661 328.11C258.734 324.517 306.027 324.93 353.029 329.348H354.071C355.836 329.479 357.607 329.2 359.246 328.533C360.885 327.866 362.347 326.828 363.518 325.502C363.864 325.055 364.089 324.528 364.169 323.969C364.249 323.409 364.181 322.837 363.974 322.311Z" fill="#8C8468"/>
<path d="M282.867 346.741C261.093 346.561 239.332 347.801 217.72 350.453L214.919 350.781C213.42 350.781 206.059 351.888 205.538 355.667C205.439 356.137 205.453 356.621 205.577 357.085C205.702 357.549 205.933 357.978 206.254 358.335C206.812 358.799 207.456 359.147 208.15 359.36C208.843 359.572 209.572 359.644 210.294 359.573H211.792L234.137 357.88C243.062 357.164 243.062 357.163 249.902 356.837C254.332 356.837 261.759 356.383 276.417 355.667C278.958 355.667 284.821 355.274 286.841 351.951C287.211 351.452 287.442 350.864 287.511 350.246C287.579 349.628 287.483 349.002 287.232 348.433C286.708 347.803 286.032 347.317 285.269 347.021C284.505 346.724 283.678 346.629 282.867 346.741Z" fill="#8C8468"/>
<path d="M364.69 267.717C417.328 267.717 460 225.045 460 172.407C460 119.769 417.328 77.0977 364.69 77.0977C312.052 77.0977 269.381 119.769 269.381 172.407C269.381 225.045 312.052 267.717 364.69 267.717Z" fill="#EFD64C"/>
<path d="M266.71 218.532C266.255 217.023 265.236 215.749 263.865 214.972C262.494 214.196 260.876 213.976 259.348 214.362C252.805 215.839 246.523 218.3 240.717 221.659L232.508 226.154L228.078 228.371L225.928 229.347L224.56 229.869C223.103 230.399 221.882 231.43 221.118 232.779C220.354 234.129 220.096 235.707 220.391 237.23C220.832 238.748 221.848 240.033 223.223 240.811C224.599 241.59 226.224 241.803 227.753 241.4C234.003 238.833 240.075 235.851 245.928 232.474C248.664 230.976 251.401 229.608 254.202 228.371L255.309 227.979L257.785 227.133C259.335 226.613 260.926 226.219 262.541 225.959C264.063 225.505 265.35 224.476 266.128 223.09C266.906 221.704 267.115 220.069 266.71 218.532Z" fill="white"/>
<path d="M244.039 168.24H217.524C216.689 168.152 215.845 168.241 215.046 168.501C214.248 168.76 213.513 169.185 212.889 169.747C212.265 170.309 211.766 170.994 211.425 171.761C211.083 172.528 210.907 173.361 210.907 174.201C210.907 175.041 211.083 175.87 211.425 176.637C211.766 177.405 212.265 178.092 212.889 178.654C213.513 179.216 214.248 179.638 215.046 179.898C215.845 180.158 216.689 180.246 217.524 180.159H244.039C245.611 180.159 247.119 179.537 248.231 178.425C249.343 177.313 249.967 175.805 249.967 174.233C249.951 172.659 249.323 171.152 248.217 170.034C247.11 168.915 245.612 168.273 244.039 168.24Z" fill="white"/>
<path d="M302.28 73.1258L289.251 50.0636C288.46 48.6953 287.16 47.6951 285.635 47.2803C284.11 46.8654 282.483 47.0705 281.108 47.8497C279.752 48.6526 278.763 49.9494 278.349 51.4696C277.936 52.9899 278.131 54.6141 278.893 55.993L291.922 78.9883C292.714 80.355 294.009 81.3585 295.53 81.7844C297.051 82.2103 298.679 82.0256 300.065 81.2691C301.408 80.4548 302.387 79.1552 302.799 77.6396C303.212 76.124 303.026 74.5082 302.28 73.1258Z" fill="#F5E090"/>
<path d="M267.036 103.481C255.732 97.4072 243.656 92.8924 231.14 90.0606C230.367 89.7947 229.547 89.6892 228.732 89.752C227.916 89.8148 227.122 90.042 226.398 90.4232C225.675 90.8043 225.037 91.3322 224.524 91.9691C224.011 92.6061 223.634 93.3408 223.415 94.129C223.197 94.9173 223.143 95.7397 223.255 96.5498C223.368 97.3599 223.645 98.141 224.069 98.8401C224.494 99.5391 225.057 100.142 225.724 100.615C226.391 101.088 227.148 101.422 227.948 101.592C233.855 102.888 239.666 104.585 245.342 106.672C250.708 108.682 255.932 111.054 260.977 113.772C261.654 114.252 262.423 114.587 263.236 114.755C264.049 114.922 264.888 114.919 265.699 114.745C266.511 114.571 267.277 114.232 267.95 113.746C268.623 113.261 269.188 112.639 269.609 111.923C270.03 111.208 270.298 110.413 270.396 109.589C270.494 108.765 270.419 107.93 270.177 107.136C269.936 106.342 269.531 105.609 268.991 104.979C268.45 104.35 267.784 103.84 267.036 103.481Z" fill="#F5E090"/>
<path d="M408.404 172.537C397.394 157.032 371.466 155.665 361.824 173.189C361.503 173.737 361.293 174.342 361.206 174.971C361.12 175.599 361.157 176.24 361.318 176.854C361.478 177.468 361.758 178.043 362.141 178.549C362.524 179.055 363.003 179.482 363.55 179.803C364.098 180.123 364.703 180.333 365.332 180.42C365.961 180.507 366.6 180.469 367.214 180.308C367.828 180.148 368.405 179.868 368.911 179.484C369.417 179.101 369.842 178.623 370.163 178.075C376.287 166.935 391.726 168.237 399.544 176.901C401.629 179.182 402.801 181.66 400.847 184.396C398.896 186.777 396.714 188.959 394.332 190.911C389.254 195.783 383.712 200.146 377.785 203.94C372.606 207.649 366.369 209.588 360 209.475C353.912 208.897 348.11 206.618 343.257 202.896C338.016 199.265 333.996 194.134 331.726 188.175C330.755 181.501 331.823 174.689 334.788 168.631C338.958 157.1 347.101 139.184 362.541 142.181C368.599 143.419 371.205 134.102 365.081 132.864C346.319 129.151 333.811 144.983 327.557 160.488C323.326 168.896 321.329 178.25 321.759 187.653C323.487 196.289 328.363 203.975 335.44 209.217C341.737 214.932 349.576 218.669 357.98 219.966C366.693 220.683 375.387 218.383 382.606 213.451C390.678 208.232 398.131 202.11 404.821 195.208C410.879 188.042 414.006 180.55 408.404 172.537Z" fill="#FDF4DC"/>
<path d="M412.566 350.608C411.172 348.735 408.139 349.223 406.336 349.956C397.909 353.903 390.029 358.913 382.89 364.86C381.251 366.163 379.529 367.384 377.726 368.606L374.529 370.642L373.381 371.373C373.381 366.406 373.955 361.276 374.283 356.39C374.283 353.051 369.774 352.888 367.643 354.028C361.825 357.574 356.574 361.967 352.067 367.059C350.838 368.199 349.69 369.341 348.378 370.399L347.559 371.047C347.559 369.581 347.559 367.546 347.559 366.975C347.559 364.777 347.559 362.581 347.559 360.382C347.559 356.88 343.132 357.124 340.837 358.02C334.45 360.912 328.447 364.577 322.966 368.932C319.277 371.782 315.506 375.12 311.489 377.808C311.489 376.504 312.227 375.202 312.309 374.551C312.965 371.945 313.702 369.421 314.604 366.896C316.43 361.954 318.853 357.249 321.818 352.887C323.048 350.932 320.671 349.305 318.949 349.061C317.8 348.895 316.627 349.07 315.577 349.562C314.527 350.055 313.647 350.842 313.047 351.829C308.813 358.199 305.656 365.216 303.701 372.598C302.389 377.566 299.029 388.397 308.128 386.85C311.469 385.905 314.57 384.265 317.227 382.043C320.26 379.925 323.13 377.728 325.999 375.529C329.807 372.598 333.775 369.88 337.886 367.385C337.529 370.353 337.866 373.363 338.869 376.181C339.415 377.066 340.139 377.828 340.997 378.42C341.855 379.012 342.827 379.418 343.852 379.617C344.877 379.816 345.933 379.8 346.952 379.573C347.971 379.346 348.931 378.912 349.772 378.297C355.348 374.622 360.395 370.212 364.774 365.186V368.848C364.164 371.35 364.395 373.984 365.429 376.344C368.709 380.986 375.758 378.299 379.529 376.344C390.268 369.992 399.203 360.706 410.844 355.901C412.156 354.679 413.795 352.318 412.566 350.608Z" fill="#067455"/>
</g>
<defs>
<clipPath id="clip0_1384_1950">
<rect width="500" height="500" fill="white" transform="translate(500 500) rotate(-180)"/>
</clipPath>
<clipPath id="clip1_1384_1950">
<rect width="420" height="409.186" fill="white" transform="translate(40 47)"/>
</clipPath>
</defs>
</svg>
