<svg width="661" height="440" viewBox="0 0 661 440" fill="none" xmlns="http://www.w3.org/2000/svg">
<path d="M305.462 0C107.221 0 -17.2313 102.832 1.9407 236.302C18.3652 350.718 88.8338 367.685 219.868 381.719C220.773 398.988 226.57 421.793 247.976 438.73C248.957 439.445 250.13 439.847 251.343 439.885C252.555 439.923 253.751 439.594 254.774 438.941C255.797 438.288 256.6 437.342 257.079 436.225C257.557 435.108 257.689 433.873 257.457 432.681C255.494 420.583 256.702 402.889 272.553 385.741C289.642 386.467 307.515 386.981 326.174 386.83C572.3 384.894 660.069 309.766 660.069 174.421C660.069 39.0759 503.794 0 305.462 0Z" fill="#F3F5DE"/>
<path d="M64.6042 208.406C65.4442 207.272 66.9562 207.062 68.0902 207.944C69.8122 209.288 71.7022 210.59 74.6002 210.59C77.1622 210.59 78.7162 209.498 78.7582 207.482C78.8002 205.844 78.2122 204.164 73.3402 201.644C67.0402 198.326 64.3522 195.764 64.3522 191.438C64.3522 186.65 68.6782 183.542 75.4402 183.542C79.5562 183.542 82.7482 184.718 84.1762 186.104C85.3522 187.238 85.6042 188.708 84.8062 189.926C83.9242 191.228 82.2862 191.48 80.9842 190.388C79.5562 189.212 77.9182 188.498 75.3982 188.54C73.0882 188.582 71.7442 189.506 71.7442 190.934C71.7442 192.53 72.3322 193.958 77.2462 196.478C83.5882 199.796 86.2342 202.442 86.2342 206.642C86.2342 212.27 81.9922 215.63 74.9782 215.63C70.1482 215.63 66.7042 214.034 64.9822 212.312C63.8482 211.178 63.7222 209.624 64.6042 208.406Z" fill="#594A39"/>
<path d="M104.589 215.63C97.4072 215.63 93.1652 211.43 93.1652 204.248C93.1652 197.066 97.5752 192.53 104.631 192.53C108.537 192.53 111.225 194.126 112.317 195.512C113.157 196.478 113.115 197.738 112.191 198.578C111.099 199.544 109.881 199.586 108.915 198.662C107.991 197.78 106.605 197.402 105.219 197.402C102.111 197.402 100.305 199.67 100.305 203.912C100.305 208.574 102.069 210.674 105.303 210.674C106.941 210.674 108.243 210.296 109.209 209.456C110.175 208.616 111.393 208.7 112.317 209.54C113.325 210.422 113.325 211.64 112.443 212.816C111.099 214.58 108.075 215.63 104.589 215.63Z" fill="#594A39"/>
<path d="M135.965 195.05C136.175 197.36 134.705 198.074 132.647 198.326C130.421 198.62 128.321 200.804 127.691 203.576V212.27C127.691 214.622 126.263 215.63 123.953 215.63C121.643 215.63 120.551 214.58 120.551 212.27V195.428C120.551 193.412 121.895 192.53 123.953 192.53C125.885 192.53 127.145 193.538 127.145 195.596V197.57C128.027 194.084 130.001 192.656 132.479 192.572C134.369 192.53 135.797 193.16 135.965 195.05Z" fill="#594A39"/>
<path d="M152.405 215.672C144.971 215.672 141.065 211.22 141.065 203.702C141.065 196.898 145.769 192.53 152.699 192.53C159.545 192.53 163.913 196.856 163.955 203.702C163.997 211.388 159.545 215.672 152.405 215.672ZM152.489 211.01C155.387 210.926 156.647 208.826 156.647 203.828C156.647 199.292 155.429 197.108 152.489 197.15C149.633 197.192 148.331 199.334 148.373 203.828C148.415 208.574 149.465 211.094 152.489 211.01Z" fill="#594A39"/>
<path d="M177.987 215.63C173.577 215.63 171.855 213.992 171.855 208.7V185.684C171.855 183.458 173.115 182.24 175.425 182.24C177.651 182.24 178.953 183.458 178.953 185.684V208.742C178.953 209.96 179.079 210.38 179.961 210.38C180.465 210.38 180.759 210.17 181.263 210.17C182.019 210.17 183.111 210.758 183.111 212.564C183.111 214.916 180.801 215.63 177.987 215.63Z" fill="#594A39"/>
<path d="M195.661 215.63C191.251 215.63 189.529 213.992 189.529 208.7V185.684C189.529 183.458 190.789 182.24 193.099 182.24C195.325 182.24 196.627 183.458 196.627 185.684V208.742C196.627 209.96 196.753 210.38 197.635 210.38C198.139 210.38 198.433 210.17 198.937 210.17C199.693 210.17 200.785 210.758 200.785 212.564C200.785 214.916 198.475 215.63 195.661 215.63Z" fill="#594A39"/>
<path d="M242.919 182.24C245.187 182.24 246.447 183.542 246.447 185.894V212.312C246.447 214.412 245.271 215.63 243.171 215.63C241.449 215.63 240.189 214.79 239.811 213.32C238.467 214.748 236.157 215.63 234.057 215.63C229.185 215.63 224.313 212.774 224.313 204.206C224.313 197.066 228.513 192.53 234.015 192.53C236.703 192.53 238.383 193.58 239.307 194.42V185.81C239.307 183.458 240.525 182.24 242.919 182.24ZM235.947 210.842C237.375 210.842 238.761 210.128 239.685 208.868V200.132C239.139 198.914 237.921 197.276 235.485 197.276C233.049 197.276 231.117 199.628 231.117 204.29C231.117 208.448 233.091 210.842 235.947 210.842Z" fill="#594A39"/>
<path d="M265.756 215.672C258.322 215.672 254.416 211.22 254.416 203.702C254.416 196.898 259.12 192.53 266.05 192.53C272.896 192.53 277.264 196.856 277.306 203.702C277.348 211.388 272.896 215.672 265.756 215.672ZM265.84 211.01C268.738 210.926 269.998 208.826 269.998 203.828C269.998 199.292 268.78 197.108 265.84 197.15C262.984 197.192 261.682 199.334 261.724 203.828C261.766 208.574 262.816 211.094 265.84 211.01Z" fill="#594A39"/>
<path d="M315.035 192.698C316.967 193.118 317.807 194.546 317.261 196.52C315.875 201.728 314.321 207.608 312.851 212.018C312.053 214.412 310.709 215.63 308.147 215.63C305.669 215.63 304.451 214.328 303.695 211.892C302.435 207.902 301.385 204.164 300.545 199.922H300.335C299.411 204.248 298.277 207.944 296.807 211.976C295.925 214.412 294.791 215.63 292.397 215.63C289.919 215.63 288.197 214.412 287.483 212.018C285.929 206.768 284.501 201.77 283.073 196.646C282.527 194.672 283.493 193.202 285.551 192.698C287.357 192.236 289.163 193.076 289.625 195.092C290.801 200.3 292.355 206.306 292.985 208.952H293.153C293.783 206.348 295.421 200.216 296.429 195.974C296.975 193.664 298.235 192.53 300.461 192.53C302.687 192.53 303.905 193.706 304.493 196.016C305.585 200.384 307.349 206.264 307.895 209.036H308.063C308.651 206.306 310.163 200.174 311.213 195.05C311.633 193.076 313.061 192.278 315.035 192.698Z" fill="#594A39"/>
<path d="M338.054 192.53C343.052 192.53 346.16 195.722 346.16 200.888V212.144C346.16 214.412 344.9 215.63 342.59 215.63C340.28 215.63 339.02 214.412 339.02 212.144V201.434C339.02 198.788 337.928 197.192 335.996 197.192C334.148 197.192 332.468 198.872 331.922 201.224V212.144C331.922 214.412 330.662 215.63 328.352 215.63C326.042 215.63 324.782 214.412 324.782 212.144V195.806C324.782 193.706 325.958 192.572 328.058 192.572C330.2 192.572 331.376 193.622 331.376 195.764V196.436C332.636 193.874 335.24 192.53 338.054 192.53Z" fill="#594A39"/>
<path d="M386.534 182.954C387.5 183.626 387.836 184.802 387.374 185.852C386.87 186.986 385.694 187.448 384.686 186.944C384.266 186.734 383.888 186.65 383.51 186.65C382.376 186.65 381.956 187.364 381.956 189.212V193.16H384.56C385.904 193.16 386.66 194.084 386.66 195.554C386.66 197.066 385.862 197.948 384.56 197.948H381.956V212.186C381.956 214.538 380.612 215.63 378.386 215.63C376.118 215.63 374.816 214.454 374.816 212.186V197.948H372.8C371.456 197.948 370.616 197.066 370.616 195.554C370.616 194.042 371.456 193.16 372.8 193.16H374.816V189.086C374.816 184.508 377.462 181.82 381.998 181.82C383.804 181.82 385.568 182.282 386.534 182.954Z" fill="#594A39"/>
<path d="M403.142 215.672C395.708 215.672 391.802 211.22 391.802 203.702C391.802 196.898 396.506 192.53 403.436 192.53C410.282 192.53 414.65 196.856 414.692 203.702C414.734 211.388 410.282 215.672 403.142 215.672ZM403.226 211.01C406.124 210.926 407.384 208.826 407.384 203.828C407.384 199.292 406.166 197.108 403.226 197.15C400.37 197.192 399.068 199.334 399.11 203.828C399.152 208.574 400.202 211.094 403.226 211.01Z" fill="#594A39"/>
<path d="M438.006 195.05C438.216 197.36 436.746 198.074 434.688 198.326C432.462 198.62 430.362 200.804 429.732 203.576V212.27C429.732 214.622 428.304 215.63 425.994 215.63C423.684 215.63 422.592 214.58 422.592 212.27V195.428C422.592 193.412 423.936 192.53 425.994 192.53C427.926 192.53 429.186 193.538 429.186 195.596V197.57C430.068 194.084 432.042 192.656 434.52 192.572C436.41 192.53 437.838 193.16 438.006 195.05Z" fill="#594A39"/>
<path d="M488.859 192.53C493.941 192.53 496.923 195.47 496.923 200.552V212.228C496.923 214.454 495.705 215.63 493.395 215.63C491.085 215.63 489.867 214.454 489.867 212.228V200.468C489.867 198.326 488.859 197.066 487.221 197.066C485.625 197.066 484.365 198.116 483.567 200.09V212.228C483.567 214.454 482.349 215.63 480.081 215.63C477.771 215.63 476.553 214.454 476.553 212.228V200.594C476.553 198.368 475.545 197.15 473.865 197.15C472.227 197.15 470.715 198.704 470.043 200.972V212.144C470.043 214.412 468.783 215.63 466.473 215.63C464.163 215.63 462.903 214.412 462.903 212.144V195.932C462.903 193.748 464.205 192.572 466.347 192.572C468.363 192.572 469.665 193.622 469.665 195.722V196.184C470.715 193.79 473.193 192.53 475.965 192.53C478.905 192.53 481.131 193.664 482.391 195.68C483.861 193.664 486.087 192.53 488.859 192.53ZM469.707 202.988L469.749 202.526C469.707 202.652 469.707 202.82 469.707 202.988Z" fill="#594A39"/>
<path d="M515.757 215.672C508.323 215.672 504.417 211.22 504.417 203.702C504.417 196.898 509.121 192.53 516.051 192.53C522.897 192.53 527.265 196.856 527.307 203.702C527.349 211.388 522.897 215.672 515.757 215.672ZM515.841 211.01C518.739 210.926 519.999 208.826 519.999 203.828C519.999 199.292 518.781 197.108 515.841 197.15C512.985 197.192 511.683 199.334 511.725 203.828C511.767 208.574 512.817 211.094 515.841 211.01Z" fill="#594A39"/>
<path d="M550.621 195.05C550.831 197.36 549.361 198.074 547.303 198.326C545.077 198.62 542.977 200.804 542.347 203.576V212.27C542.347 214.622 540.919 215.63 538.609 215.63C536.299 215.63 535.207 214.58 535.207 212.27V195.428C535.207 193.412 536.551 192.53 538.609 192.53C540.541 192.53 541.801 193.538 541.801 195.596V197.57C542.683 194.084 544.657 192.656 547.135 192.572C549.025 192.53 550.453 193.16 550.621 195.05Z" fill="#594A39"/>
<path d="M573.067 209.498C574.201 208.658 575.419 208.742 576.217 209.666C577.015 210.548 577.057 211.766 576.175 212.732C574.831 214.244 571.555 215.63 567.397 215.63C560.803 215.63 555.721 212.312 555.721 204.584C555.721 197.15 560.089 192.488 567.103 192.488C573.991 192.488 577.435 197.612 577.435 202.568C577.435 204.962 576.217 206.222 573.655 206.222H562.987C563.407 209.708 564.961 211.01 567.943 211.094C570.001 211.136 571.681 210.548 573.067 209.498ZM567.187 196.898C564.541 196.898 563.365 198.704 562.987 201.602H570.631C570.883 201.602 571.009 201.476 571.009 201.224C571.009 198.326 569.539 196.898 567.187 196.898Z" fill="#594A39"/>
<path d="M589.317 205.214C587.679 205.214 586.503 204.332 586.377 202.694L585.117 187.742C584.865 184.928 586.545 183.374 589.317 183.374C592.131 183.374 593.769 184.928 593.517 187.742L592.215 202.694C592.089 204.332 590.955 205.214 589.317 205.214ZM589.359 215.756C587.007 215.756 585.075 213.908 585.075 211.556C585.075 209.414 587.007 207.524 589.359 207.524C591.627 207.524 593.559 209.372 593.559 211.556C593.559 213.908 591.627 215.756 589.359 215.756Z" fill="#594A39"/>
</svg>
