<svg width="500" height="500" viewBox="0 0 500 500" fill="none" xmlns="http://www.w3.org/2000/svg">
<g clip-path="url(#clip0_722_3109)">
<path d="M28.1177 136.107C49.6586 96.9576 79.4648 63.3769 115.3 37.886C148.035 14.302 186.705 1.17139 226.545 0.111091C266.385 -0.949178 305.654 10.1084 339.511 31.9202C386.434 60.3346 442.487 100.305 467.318 151.072C503.834 226.844 514.607 283.67 473.435 356.222C439.109 416.839 369.089 476.795 314.588 490.15C260.088 503.505 199.562 508.144 141.136 472.437C68.7422 428.395 16.5241 356.697 3.37822 279.599C-5.37955 230.238 3.40988 179.257 28.1177 136.107Z" fill="#F8F9E9"/>
</g>
<g clip-path="url(#clip1_722_3109)">
<path d="M40.7818 275.731C40.7818 275.731 46.9707 190.519 70.0977 149.802C70.0977 149.802 367.818 140.29 432.573 142.896C432.573 142.896 413.029 339.379 432.573 409.021C432.573 409.021 166.645 422.049 54.2019 401.593C54.2019 401.593 36.1564 366.089 40.7818 275.731Z" fill="#EEE9DD"/>
<path d="M92.7695 332.604C92.7695 332.604 93.0955 392.992 71.4668 439.507L106.385 429.216L139.61 456.185C146.661 413.766 148.455 370.639 144.952 327.781" fill="#6CAE6E"/>
<path d="M124.626 341.528C158.519 341.528 185.994 314.053 185.994 280.16C185.994 246.267 158.519 218.792 124.626 218.792C90.7332 218.792 63.2578 246.267 63.2578 280.16C63.2578 314.053 90.7332 341.528 124.626 341.528Z" fill="#BAC51A"/>
<path d="M124.625 320.746C147.041 320.746 165.212 302.575 165.212 280.16C165.212 257.744 147.041 239.573 124.625 239.573C102.21 239.573 84.0391 257.744 84.0391 280.16C84.0391 302.575 102.21 320.746 124.625 320.746Z" fill="#EFF2D2"/>
<path opacity="0.63" d="M117.134 359.248C117.461 363.946 117.265 368.667 116.548 373.321C115.027 384.727 111.451 395.763 105.995 405.894C104.561 408.565 111.271 407.783 112.509 405.894C118.176 395.421 121.905 384.012 123.519 372.214C124.289 367.259 124.508 362.232 124.17 357.228C124.17 355.209 117.135 356.579 117.33 359.054L117.134 359.248Z" fill="#FFFEFD"/>
<path d="M211.53 295.99C258.602 292.407 305.892 292.8 352.898 297.163H353.94C355.699 297.293 357.463 297.02 359.1 296.365C360.737 295.71 362.203 294.691 363.387 293.384C363.745 292.931 363.976 292.389 364.056 291.816C364.136 291.244 364.062 290.662 363.842 290.127C363.191 288.759 361.302 288.433 359.739 288.237C311.495 283.794 262.963 283.424 214.657 287.13C214.657 287.13 205.862 287.846 205.276 292.08C205.166 292.55 205.174 293.039 205.299 293.505C205.424 293.971 205.662 294.4 205.992 294.752C207.36 296.25 210.162 296.055 211.53 295.99Z" fill="#8C8468"/>
<path d="M363.974 322.31C363.257 320.942 361.433 320.615 359.87 320.484C311.626 316.052 263.097 315.661 214.788 319.314C214.788 319.314 205.928 320.094 205.407 324.263C205.292 324.733 205.297 325.225 205.422 325.692C205.547 326.159 205.789 326.587 206.124 326.935C207.492 328.434 210.293 328.174 211.661 328.109C258.734 324.516 306.027 324.929 353.029 329.347H354.071C355.836 329.478 357.607 329.199 359.246 328.532C360.885 327.865 362.347 326.827 363.518 325.501C363.864 325.054 364.089 324.527 364.169 323.968C364.249 323.408 364.181 322.836 363.974 322.31Z" fill="#8C8468"/>
<path d="M282.867 346.741C261.093 346.561 239.332 347.801 217.72 350.453L214.919 350.781C213.42 350.781 206.059 351.888 205.538 355.667C205.439 356.137 205.453 356.621 205.577 357.085C205.702 357.549 205.933 357.978 206.254 358.335C206.812 358.799 207.456 359.147 208.15 359.36C208.843 359.572 209.572 359.644 210.294 359.573H211.792L234.137 357.88C243.062 357.164 243.062 357.163 249.902 356.837C254.332 356.837 261.759 356.383 276.417 355.667C278.958 355.667 284.821 355.274 286.841 351.951C287.211 351.452 287.442 350.864 287.511 350.246C287.579 349.628 287.483 349.002 287.232 348.433C286.708 347.803 286.032 347.317 285.269 347.021C284.505 346.724 283.678 346.629 282.867 346.741Z" fill="#8C8468"/>
<path d="M364.69 267.717C417.328 267.717 460 225.045 460 172.407C460 119.769 417.328 77.0977 364.69 77.0977C312.052 77.0977 269.381 119.769 269.381 172.407C269.381 225.045 312.052 267.717 364.69 267.717Z" fill="#EFD64C"/>
<path d="M266.71 218.532C266.255 217.023 265.236 215.749 263.865 214.972C262.494 214.196 260.876 213.976 259.348 214.362C252.805 215.839 246.523 218.3 240.716 221.659L232.508 226.154L228.078 228.371L225.928 229.347L224.56 229.869C223.103 230.399 221.882 231.43 221.117 232.779C220.353 234.129 220.096 235.707 220.39 237.23C220.831 238.748 221.847 240.033 223.223 240.811C224.598 241.59 226.224 241.803 227.752 241.4C234.003 238.833 240.075 235.851 245.928 232.474C248.664 230.976 251.4 229.608 254.202 228.371L255.309 227.979L257.785 227.133C259.335 226.613 260.925 226.219 262.54 225.959C264.063 225.505 265.349 224.476 266.127 223.09C266.906 221.704 267.114 220.069 266.71 218.532Z" fill="white"/>
<path d="M244.039 168.24H217.524C216.689 168.152 215.844 168.241 215.046 168.501C214.247 168.76 213.512 169.185 212.888 169.747C212.264 170.309 211.766 170.994 211.424 171.761C211.083 172.528 210.906 173.361 210.906 174.201C210.906 175.041 211.083 175.87 211.424 176.637C211.766 177.405 212.264 178.092 212.888 178.654C213.512 179.216 214.247 179.638 215.046 179.898C215.844 180.158 216.689 180.246 217.524 180.159H244.039C245.611 180.159 247.119 179.537 248.23 178.425C249.342 177.313 249.967 175.805 249.967 174.233C249.95 172.659 249.322 171.152 248.216 170.034C247.11 168.915 245.612 168.273 244.039 168.24Z" fill="white"/>
<path d="M302.28 73.1238L289.251 50.0617C288.46 48.6933 287.16 47.6931 285.635 47.2783C284.11 46.8635 282.483 47.0686 281.108 47.8477C279.752 48.6506 278.763 49.9474 278.349 51.4677C277.936 52.9879 278.131 54.6121 278.893 55.991L291.922 78.9864C292.714 80.353 294.009 81.3565 295.53 81.7825C297.051 82.2084 298.679 82.0237 300.065 81.2671C301.408 80.4528 302.387 79.1532 302.799 77.6376C303.212 76.122 303.026 74.5063 302.28 73.1238Z" fill="#F5E090"/>
<path d="M267.035 103.482C255.731 97.4082 243.655 92.8934 231.139 90.0615C230.366 89.7956 229.546 89.6902 228.731 89.753C227.915 89.8158 227.121 90.043 226.397 90.4242C225.674 90.8053 225.036 91.3332 224.523 91.9701C224.01 92.6071 223.633 93.3418 223.414 94.13C223.196 94.9182 223.142 95.7406 223.254 96.5507C223.367 97.3609 223.644 98.142 224.068 98.8411C224.493 99.5401 225.056 100.143 225.723 100.616C226.39 101.089 227.147 101.423 227.947 101.593C233.854 102.889 239.665 104.586 245.341 106.673C250.707 108.683 255.931 111.055 260.976 113.773C261.653 114.253 262.422 114.588 263.235 114.756C264.048 114.923 264.887 114.92 265.698 114.746C266.51 114.572 267.276 114.233 267.949 113.747C268.622 113.262 269.187 112.64 269.608 111.924C270.029 111.209 270.297 110.414 270.395 109.59C270.493 108.766 270.418 107.931 270.176 107.137C269.935 106.343 269.53 105.61 268.99 104.98C268.449 104.351 267.783 103.841 267.035 103.482Z" fill="#F5E090"/>
<path d="M408.403 172.537C397.394 157.032 371.465 155.665 361.823 173.189C361.503 173.737 361.293 174.342 361.206 174.971C361.119 175.599 361.157 176.24 361.317 176.854C361.478 177.468 361.757 178.043 362.14 178.549C362.523 179.055 363.002 179.482 363.55 179.803C364.097 180.123 364.703 180.333 365.332 180.42C365.96 180.507 366.6 180.469 367.214 180.308C367.828 180.148 368.404 179.868 368.91 179.484C369.416 179.101 369.842 178.623 370.162 178.075C376.286 166.935 391.726 168.237 399.544 176.901C401.628 179.182 402.801 181.66 400.847 184.396C398.895 186.777 396.713 188.959 394.332 190.911C389.254 195.783 383.712 200.146 377.784 203.94C372.605 207.649 366.369 209.588 359.999 209.475C353.912 208.897 348.109 206.618 343.257 202.896C338.016 199.265 333.996 194.134 331.726 188.175C330.755 181.501 331.822 174.689 334.788 168.631C338.957 157.1 347.101 139.184 362.54 142.181C368.599 143.419 371.205 134.102 365.081 132.864C346.319 129.151 333.811 144.983 327.557 160.488C323.325 168.896 321.328 178.25 321.758 187.653C323.486 196.289 328.362 203.975 335.439 209.217C341.737 214.932 349.575 218.669 357.98 219.966C366.693 220.683 375.387 218.383 382.605 213.451C390.677 208.232 398.13 202.11 404.82 195.208C410.879 188.042 414.006 180.55 408.403 172.537Z" fill="#FDF4DC"/>
<path d="M412.566 350.608C411.172 348.735 408.139 349.223 406.336 349.956C397.909 353.903 390.029 358.913 382.89 364.86C381.251 366.163 379.529 367.384 377.726 368.606L374.529 370.642L373.381 371.373C373.381 366.406 373.955 361.276 374.283 356.39C374.283 353.051 369.774 352.888 367.643 354.028C361.825 357.574 356.574 361.967 352.067 367.059C350.838 368.199 349.69 369.341 348.378 370.399L347.559 371.047C347.559 369.581 347.559 367.546 347.559 366.975C347.559 364.777 347.559 362.581 347.559 360.382C347.559 356.88 343.132 357.124 340.837 358.02C334.45 360.912 328.447 364.577 322.966 368.932C319.277 371.782 315.506 375.12 311.489 377.808C311.489 376.504 312.227 375.202 312.309 374.551C312.965 371.945 313.702 369.421 314.604 366.896C316.43 361.954 318.853 357.249 321.818 352.887C323.048 350.932 320.671 349.305 318.949 349.061C317.8 348.895 316.627 349.07 315.577 349.562C314.527 350.055 313.647 350.842 313.047 351.829C308.813 358.199 305.656 365.216 303.701 372.598C302.389 377.566 299.029 388.397 308.128 386.85C311.469 385.905 314.57 384.265 317.227 382.043C320.26 379.925 323.13 377.728 325.999 375.529C329.807 372.598 333.775 369.88 337.886 367.385C337.529 370.353 337.866 373.363 338.869 376.181C339.415 377.066 340.139 377.828 340.997 378.42C341.855 379.012 342.827 379.418 343.852 379.617C344.877 379.816 345.933 379.8 346.952 379.573C347.971 379.346 348.931 378.912 349.772 378.297C355.348 374.622 360.395 370.212 364.774 365.186V368.848C364.164 371.35 364.395 373.984 365.429 376.344C368.709 380.986 375.758 378.299 379.529 376.344C390.268 369.992 399.203 360.706 410.844 355.901C412.156 354.679 413.795 352.318 412.566 350.608Z" fill="#067455"/>
</g>
<defs>
<clipPath id="clip0_722_3109">
<rect width="500" height="500" fill="white" transform="translate(500 500) rotate(-180)"/>
</clipPath>
<clipPath id="clip1_722_3109">
<rect width="420" height="409.186" fill="white" transform="translate(40 47)"/>
</clipPath>
</defs>
</svg>
