<svg width="1840" height="413" viewBox="0 0 1840 413" fill="none" xmlns="http://www.w3.org/2000/svg">
<path d="M202.267 5.86308C185.256 5.51947 168.291 3.95893 151.503 1.19342C123.41 -3.62686 22.7865 18.3657 22.7865 115.148C22.7865 115.148 71.14 144.371 129.36 107.616C187.58 70.8616 202.267 5.86308 202.267 5.86308Z" fill="#C7D04F"/>
<path d="M8.77755 141.509C9.3765 141.461 9.95732 141.28 10.4782 140.981C10.9991 140.681 11.4472 140.27 11.7902 139.777C12.2421 139.099 26.477 110.478 73.6254 74.7028C74.5147 74.2244 75.2108 73.4527 75.5953 72.5189C75.9798 71.5852 76.0289 70.5471 75.7343 69.5812C75.5566 69.1014 75.2791 68.6648 74.9202 68.3002C74.5612 67.9356 74.1289 67.6514 73.6519 67.4663C73.175 67.2812 72.6641 67.1994 72.1532 67.2264C71.6423 67.2534 71.1429 67.3886 70.6881 67.623C43.3261 83.8065 19.3808 105.168 0.191424 130.513C-1.08896 132.32 4.40918 139.626 6.14147 140.831C6.51234 141.116 6.9371 141.323 7.39015 141.44C7.8432 141.556 8.31515 141.58 8.77755 141.509Z" fill="#E2E5A7"/>
<path d="M193.431 126.671C197.871 130.271 198.711 135.311 194.391 139.271C190.311 143.111 185.991 142.511 182.391 137.951C179.151 133.751 175.191 129.311 171.111 124.991V140.711C171.111 155.471 155.751 158.111 138.591 150.071C136.191 148.991 135.471 146.951 136.191 144.551C136.911 142.151 138.471 141.191 141.351 141.551C151.311 142.631 152.871 141.911 152.871 135.911V127.151C149.271 130.511 145.311 133.511 141.471 135.791C138.111 137.711 134.991 137.831 132.711 135.791C133.071 138.791 131.631 140.591 128.391 141.551C124.431 142.751 121.671 141.311 120.831 137.351C119.271 130.271 117.111 123.431 115.311 118.271C114.471 115.871 115.311 114.311 117.111 113.351C119.031 112.511 120.591 113.231 122.031 115.031C124.791 118.511 127.671 123.071 129.951 127.991C130.311 125.351 132.231 123.071 135.111 122.351C140.511 120.911 146.751 118.751 152.871 115.751V92.2309H132.951C129.831 92.2309 128.031 90.4309 128.031 87.3109C128.031 84.1909 129.831 82.3909 132.951 82.3909H162.591L164.031 76.8709H149.991C148.191 80.7109 144.591 82.0309 139.911 81.0709C134.991 80.1109 133.551 77.1109 134.871 72.4309C137.271 63.5509 139.911 52.3909 141.231 46.7509C142.191 42.6709 146.511 41.1109 150.591 41.7109C155.031 42.4309 157.671 45.1909 157.191 49.0309H168.471C170.511 45.7909 174.471 44.3509 178.791 45.1909C183.471 46.1509 186.591 49.6309 185.271 56.1109C184.071 61.8709 181.071 73.2709 178.311 82.3909H191.271C194.391 82.3909 196.191 84.1909 196.191 87.3109C196.191 90.4309 194.391 92.2309 191.271 92.2309H171.111V110.591C173.751 106.751 176.151 102.551 178.071 98.4709C180.231 94.2709 184.671 92.9509 188.631 95.5909C192.831 98.3509 193.311 102.551 189.951 106.031C185.991 110.231 181.671 113.831 177.831 116.351C183.711 119.471 188.871 122.951 193.431 126.671ZM95.8714 99.4309H98.1514C101.511 94.3909 104.511 89.4709 107.151 84.6709C104.151 85.8709 101.031 86.9509 98.0314 87.6709C92.6314 88.9909 88.5514 86.1109 88.1914 80.4709C87.8314 75.3109 90.7114 71.9509 95.6314 72.1909C98.3914 63.4309 100.071 55.7509 101.151 48.5509C101.991 42.9109 106.911 40.9909 111.951 41.9509C117.111 42.9109 119.391 47.2309 117.831 52.0309C115.671 58.5109 111.111 66.5509 106.431 72.7909C108.591 72.9109 110.871 72.9109 113.031 73.0309C114.591 69.5509 116.031 66.3109 117.231 63.0709C119.151 57.7909 123.951 56.5909 128.271 58.3909C133.071 60.4309 135.111 64.6309 132.351 69.5509C126.831 79.3909 119.631 89.4709 110.271 98.8309C113.271 98.7109 116.151 98.3509 119.031 97.9909C118.791 97.2709 118.671 96.4309 118.431 95.7109C117.711 92.9509 118.551 91.1509 120.591 90.3109C122.751 89.4709 124.311 90.3109 125.871 92.3509C128.871 96.3109 131.631 101.471 133.671 106.631C135.351 110.711 133.911 114.191 129.471 115.391C125.271 116.471 122.511 114.671 121.791 110.711L120.831 106.151C113.871 109.871 106.431 112.631 98.1514 115.031C92.3914 116.711 88.3114 114.071 87.7114 108.551C86.9914 103.271 89.6314 99.5509 95.8714 99.4309ZM152.751 67.2709H166.551C167.151 64.5109 167.751 62.1109 168.111 60.1909C168.351 59.2309 167.751 58.6309 166.791 58.6309H155.031C154.311 61.5109 153.591 64.3909 152.751 67.2709ZM147.591 114.671C143.751 117.071 139.311 115.871 137.871 112.031C136.431 108.191 134.631 103.751 132.951 100.511C131.751 98.2309 132.231 96.3109 133.911 94.8709C135.591 93.4309 137.751 93.6709 139.671 95.2309C143.631 98.4709 146.871 101.591 149.511 105.431C151.911 108.911 151.071 112.511 147.591 114.671ZM112.431 118.751C115.191 125.231 117.831 133.991 119.151 141.551C119.991 146.231 118.311 148.871 113.631 149.351C108.951 149.831 106.071 147.911 106.071 142.871C106.071 135.071 105.591 126.431 104.751 120.431C104.511 117.671 105.591 116.111 107.871 115.631C110.151 115.151 111.471 116.471 112.431 118.751ZM97.6714 117.311C100.071 117.431 101.391 119.231 101.751 122.111C102.951 130.391 103.311 138.551 102.951 146.111C102.711 151.631 98.6314 154.031 93.2314 152.711C88.1914 151.511 86.6314 148.031 88.1914 143.471C90.7114 136.391 92.1514 129.311 93.2314 121.271C93.5914 118.511 95.5114 117.191 97.6714 117.311Z" fill="#594A39"/>
<path d="M332.751 118.871C337.791 146.351 333.111 150.431 312.951 151.031C293.271 151.631 276.351 151.751 261.231 151.151C240.951 150.311 237.111 147.071 237.111 130.391V92.4709C235.191 93.7909 233.391 94.8709 231.591 95.8309C228.831 97.2709 226.191 96.9109 224.631 94.3909C223.071 91.9909 223.551 89.7109 226.071 87.4309C236.631 78.0709 246.111 62.8309 251.871 47.3509C254.271 40.9909 259.791 39.4309 265.911 41.8309C271.191 43.8709 272.511 48.4309 270.831 53.5909H284.511C288.351 50.2309 294.351 49.5109 298.791 51.7909C303.711 54.3109 305.871 59.2309 301.671 66.0709C299.751 69.1909 297.111 72.4309 294.231 75.3109H313.671C318.711 75.3109 321.471 78.0709 321.471 83.1109V107.351C321.471 112.391 318.711 115.151 313.671 115.151H256.071V123.431C256.071 132.551 257.151 133.631 266.631 134.111C280.791 134.831 298.311 134.711 311.391 134.111C321.591 133.631 322.911 132.071 322.911 119.711C322.911 116.351 324.711 114.551 327.351 114.551C330.231 114.551 332.151 115.871 332.751 118.871ZM283.551 66.3109C283.911 65.2309 283.311 64.6309 282.351 64.6309H264.831C262.431 68.2309 259.551 71.9509 256.431 75.3109H279.591C281.271 72.1909 282.471 69.4309 283.551 66.3109ZM270.831 104.351V86.1109H257.511C256.671 86.1109 256.071 86.7109 256.071 87.5509V104.351H270.831ZM303.711 87.5509C303.711 86.7109 303.111 86.1109 302.271 86.1109H288.831V104.351H301.791C303.351 104.351 303.711 103.871 303.711 102.311V87.5509Z" fill="#594A39"/>
<path d="M469.551 144.311C470.391 148.871 469.311 151.511 465.111 152.471C460.671 153.551 457.191 151.871 456.591 147.551L455.871 142.031C447.831 146.231 438.951 149.231 429.231 150.911C423.831 151.871 420.231 149.831 419.631 144.551C419.031 139.631 420.831 136.391 426.711 135.791C429.231 135.551 431.991 135.311 434.871 134.951V114.191H428.391C423.351 114.191 420.591 111.431 420.591 106.391V73.6309C420.591 68.5909 423.351 65.8309 428.391 65.8309H434.391V49.8709C434.391 45.3109 437.271 42.9109 442.551 42.9109C447.831 42.9109 450.711 45.3109 450.711 49.8709V65.8309H457.191C462.231 65.8309 464.991 68.5909 464.991 73.6309V106.391C464.991 111.431 462.231 114.191 457.191 114.191H450.711V133.031C451.911 132.791 453.111 132.671 454.311 132.431C453.711 128.591 452.991 124.991 452.511 122.111C452.031 119.351 452.991 117.431 455.271 116.711C457.671 115.871 459.951 116.591 461.271 119.111C464.871 125.951 468.231 136.751 469.551 144.311ZM415.071 56.8309H368.991C365.631 56.8309 363.831 55.0309 363.831 51.7909C363.831 48.5509 365.631 46.7509 368.991 46.7509H415.071C418.431 46.7509 420.231 48.5509 420.231 51.7909C420.231 55.0309 418.431 56.8309 415.071 56.8309ZM407.391 60.0709C412.431 60.0709 415.191 62.8309 415.191 67.8709V78.1909C415.191 83.2309 412.431 85.9909 407.391 85.9909H377.511C372.471 85.9909 369.711 83.2309 369.711 78.1909V67.8709C369.711 62.8309 372.471 60.0709 377.511 60.0709H407.391ZM400.071 75.1909V70.8709C400.071 70.0309 399.471 69.4309 398.631 69.4309H386.271C385.431 69.4309 384.831 70.0309 384.831 70.8709V75.1909C384.831 76.0309 385.431 76.6309 386.271 76.6309H398.631C399.471 76.6309 400.071 76.0309 400.071 75.1909ZM434.271 103.871H436.671V76.1509H434.271C433.431 76.1509 432.831 76.7509 432.831 77.5909V102.431C432.831 103.271 433.431 103.871 434.271 103.871ZM448.911 76.1509V103.871H451.311C452.151 103.871 452.751 103.271 452.751 102.431V77.5909C452.751 76.7509 452.151 76.1509 451.311 76.1509H448.911ZM411.231 89.1109C416.271 89.1109 419.031 91.8709 419.031 96.9109V142.271C419.031 152.951 407.991 155.471 398.631 151.271C396.231 150.191 395.271 148.511 395.631 146.471C394.791 146.711 393.711 146.831 392.631 146.831C387.951 146.831 385.311 144.431 385.311 140.111V125.351H379.671V147.071C379.671 151.271 377.151 153.551 372.591 153.551C368.031 153.551 365.511 151.271 365.511 147.071V96.9109C365.511 91.8709 368.271 89.1109 373.311 89.1109H411.231ZM381.111 98.7109C380.271 98.7109 379.671 99.3109 379.671 100.151V101.231C379.911 100.751 380.391 100.391 380.991 100.031C382.551 99.1909 384.111 99.5509 385.431 100.991C387.471 103.391 389.271 105.911 390.711 108.551C392.271 111.431 391.431 114.071 388.551 115.271C388.311 115.391 388.071 115.391 387.951 115.511H392.511C393.711 111.671 394.671 107.591 395.511 103.511C396.231 99.9109 398.991 99.0709 401.991 99.9109C403.431 100.271 404.511 100.991 405.111 101.951V100.151C405.111 99.3109 404.511 98.7109 403.671 98.7109H381.111ZM379.671 115.511H384.351C383.391 115.031 382.551 114.071 382.071 112.511C381.351 109.991 380.391 107.351 379.671 104.831V115.511ZM405.111 115.511V106.631C403.911 109.751 402.351 112.751 400.671 115.511H405.111ZM400.791 142.631C404.031 142.991 405.111 142.631 405.111 139.391V125.351H399.951V140.111C399.951 141.071 399.831 141.791 399.591 142.511C399.951 142.511 400.311 142.631 400.791 142.631Z" fill="#594A39"/>
<path d="M530.511 72.5509C528.951 70.7509 528.831 69.0709 530.151 66.9109C533.271 62.1109 536.511 53.8309 538.431 46.9909C539.751 42.1909 542.871 40.8709 547.791 42.0709C551.391 43.0309 553.071 45.3109 552.951 48.3109H585.351C588.351 45.6709 593.751 45.1909 597.111 47.5909C600.951 50.3509 601.791 55.0309 598.551 59.2309C594.591 64.3909 590.151 67.7509 586.791 69.6709C585.111 70.6309 583.311 70.8709 581.751 69.4309C580.191 67.9909 580.071 66.4309 581.271 64.6309C582.471 62.8309 583.311 61.2709 584.031 59.7109C584.391 58.8709 583.791 58.1509 582.831 58.1509H574.191C573.351 60.7909 572.271 63.3109 570.951 65.7109C577.191 70.6309 583.911 72.6709 596.031 73.9909C602.031 74.7109 603.351 77.9509 602.511 82.5109C601.671 87.0709 597.831 88.9909 592.911 87.9109C580.311 85.2709 571.671 80.3509 565.791 72.4309C558.231 80.2309 546.831 84.9109 533.391 85.9909C530.751 86.2309 528.951 84.9109 528.591 82.7509C528.231 80.4709 529.191 78.7909 531.831 78.0709C547.071 73.8709 553.071 68.4709 556.191 58.1509H549.231C545.991 64.2709 541.191 69.7909 536.391 72.9109C534.471 74.2309 532.071 74.3509 530.511 72.5509ZM504.471 50.3509C502.311 48.5509 502.191 46.5109 503.511 44.3509C504.831 42.3109 506.631 41.9509 509.031 42.5509C513.831 43.7509 520.431 45.7909 525.951 48.7909C530.871 51.4309 531.231 55.9909 528.351 59.9509C525.231 64.1509 521.031 64.6309 516.951 61.0309C512.991 57.4309 508.311 53.4709 504.471 50.3509ZM511.911 88.3909C507.351 91.6309 502.071 90.9109 500.031 86.3509C497.751 81.5509 499.071 77.8309 504.711 75.4309C511.071 72.6709 516.351 69.7909 520.791 67.2709C523.071 65.9509 525.231 65.9509 526.911 67.8709C528.591 69.5509 528.711 71.8309 527.151 73.9909C523.431 79.2709 518.151 84.0709 511.911 88.3909ZM596.751 137.831C602.631 139.391 605.151 143.471 603.231 148.871C601.311 154.271 596.991 155.591 591.351 153.191C583.671 149.831 573.111 146.111 563.511 142.391C560.511 141.071 559.551 139.031 560.271 136.271C560.391 135.791 560.511 135.311 560.751 134.951H543.831L544.071 135.311C546.951 140.111 545.151 144.911 539.031 147.191C528.471 151.151 516.111 153.791 504.711 154.271C501.951 154.391 500.271 153.071 499.791 150.551C499.311 147.911 500.031 145.511 502.911 144.671C511.551 142.151 520.191 138.671 527.511 134.951H521.151C516.111 134.951 513.351 132.191 513.351 127.151V94.7509C513.351 89.7109 516.111 86.9509 521.151 86.9509H584.031C589.071 86.9509 591.831 89.7109 591.831 94.7509V127.151C591.831 132.191 589.071 134.951 584.031 134.951H582.591C587.511 135.671 592.311 136.631 596.751 137.831ZM532.551 97.7509V100.271H572.631V97.7509C572.631 96.9109 572.031 96.3109 571.191 96.3109H533.991C533.151 96.3109 532.551 96.9109 532.551 97.7509ZM532.551 108.911V112.631H572.631V108.911H532.551ZM532.551 121.271V124.151C532.551 124.991 533.151 125.591 533.991 125.591H571.191C572.031 125.591 572.631 124.991 572.631 124.151V121.271H532.551Z" fill="#594A39"/>
<path d="M669.111 53.2309C667.791 59.5909 665.511 66.7909 662.631 73.9909V146.711C662.631 152.111 659.511 154.391 653.871 154.391C648.231 154.391 645.111 152.111 645.111 146.711V104.831C644.151 106.031 643.191 107.231 642.111 108.311C640.431 110.351 637.551 110.111 635.991 108.671C634.311 107.111 634.071 105.311 635.271 103.031C644.511 86.2309 648.111 68.5909 651.111 49.2709C652.311 42.7909 656.391 40.9909 662.391 41.8309C666.591 42.4309 669.111 44.9509 669.591 48.5509C670.191 47.2309 671.511 46.6309 673.311 46.6309H732.111C734.991 46.6309 736.551 48.0709 736.551 50.8309C736.551 53.7109 734.991 55.2709 732.111 55.2709H709.671C708.951 56.2309 708.111 57.0709 707.271 57.9109H721.911C726.591 57.9109 729.111 60.4309 729.111 65.1109V87.0709H731.631C736.311 87.0709 738.831 89.5909 738.831 94.2709V99.3109C738.831 102.911 737.271 104.831 734.391 105.551C734.751 106.031 735.111 106.391 735.351 106.751C737.991 109.871 737.391 112.991 734.031 115.031C730.791 117.071 727.911 116.111 726.231 112.391C725.031 109.271 723.231 105.671 721.311 102.191C720.471 100.511 720.711 99.1909 722.031 98.1109C722.631 97.6309 723.351 97.3909 723.951 97.2709V96.6709C723.951 95.8309 723.351 95.2309 722.511 95.2309H701.391C703.791 95.7109 706.551 96.6709 708.831 97.7509C711.711 99.0709 712.791 100.991 711.351 103.871C709.791 106.751 707.511 107.351 704.871 105.551C702.231 103.751 699.471 102.071 697.191 100.751C695.631 99.9109 695.271 98.3509 695.751 96.7909C695.991 96.0709 696.351 95.5909 696.831 95.2309H681.351C680.511 95.2309 679.911 95.8309 679.911 96.6709V97.8709C680.271 97.8709 680.751 97.9909 681.231 98.1109C682.911 98.5909 683.511 100.031 683.151 102.071C682.431 106.511 681.231 111.431 679.551 114.791C677.751 118.391 674.871 118.991 671.751 117.071C668.511 115.031 668.391 111.791 670.911 108.911C671.511 108.191 672.111 107.591 672.591 106.871H672.471C667.671 106.871 665.031 104.951 665.031 100.151V94.2709C665.031 89.5909 667.551 87.0709 672.231 87.0709H674.391V65.1109C674.391 60.4309 676.911 57.9109 681.591 57.9109H693.711C693.831 57.0709 693.951 56.1109 693.951 55.2709H673.311C671.151 55.2709 669.831 54.3109 669.231 52.7509L669.111 53.2309ZM713.511 67.0309C713.511 66.1909 712.911 65.5909 712.071 65.5909H691.431C690.591 65.5909 689.991 66.1909 689.991 67.0309V67.9909H713.511V67.0309ZM689.991 74.9509V77.4709H713.511V74.9509H689.991ZM689.991 87.0709H713.511V84.4309H689.991V87.0709ZM733.191 138.311C738.351 138.551 740.631 141.311 739.911 146.951C739.191 152.591 735.231 154.031 730.071 153.311C720.711 151.991 712.551 149.831 705.471 146.951C696.111 150.791 684.471 153.191 669.831 154.271C667.071 154.511 665.391 153.311 664.911 150.911C664.551 148.271 665.871 146.711 668.631 146.231C677.871 144.671 685.911 142.751 692.631 140.111C689.511 138.071 686.751 135.671 684.351 133.271C680.631 135.551 676.671 137.591 672.711 139.031C670.191 139.991 668.271 139.271 667.191 137.111C666.111 135.071 666.831 133.031 669.111 131.591C676.551 126.671 682.431 122.111 687.111 114.551C684.951 113.231 684.111 111.191 684.111 108.191V101.711C684.111 97.9909 686.271 95.8309 689.991 95.8309C693.471 95.8309 695.871 97.7509 695.871 101.591V104.111C695.871 106.031 696.711 106.871 699.471 106.991C704.991 107.351 707.631 107.351 711.111 106.871C713.031 106.631 713.991 105.791 713.991 103.031C713.991 100.751 715.191 99.6709 716.991 99.6709C718.911 99.6709 720.111 100.871 720.591 103.271C722.271 111.911 719.391 115.511 713.631 116.111C710.271 116.471 705.951 116.591 701.271 116.591L700.071 118.391H721.311C729.711 118.391 732.471 125.351 727.671 130.991C725.751 133.271 723.711 135.431 721.551 137.351C725.151 137.711 728.991 138.071 733.191 138.311ZM691.311 128.111C695.631 130.631 699.951 132.551 704.751 133.991C707.031 132.431 708.951 130.631 710.631 128.711C711.471 127.631 710.871 126.791 709.671 126.791H692.871C692.391 127.271 691.911 127.631 691.311 128.111Z" fill="#594A39"/>
<path d="M779.031 60.1909C775.911 60.1909 774.111 58.3909 774.111 55.1509C774.111 51.9109 775.911 50.1109 779.031 50.1109H816.351V49.6309C816.351 43.9909 819.711 41.4709 825.951 41.4709C832.191 41.4709 835.551 43.9909 835.551 49.6309V50.1109H873.111C876.231 50.1109 878.031 51.9109 878.031 55.1509C878.031 58.3909 876.231 60.1909 873.111 60.1909H835.551V63.5509H860.871C865.911 63.5509 868.671 66.3109 868.671 71.3509V92.3509C868.671 96.6709 866.631 99.3109 862.791 100.031C866.151 101.831 869.511 104.231 872.751 106.871C876.831 110.231 877.311 113.831 873.711 117.311C870.231 120.671 866.391 120.311 863.151 116.231L858.591 110.591C850.071 112.871 840.591 114.551 830.151 115.871C832.911 116.831 835.671 118.151 838.311 119.591C842.871 122.111 844.071 126.551 840.831 130.511C837.711 134.351 833.271 134.711 829.791 130.751C826.911 127.511 823.671 124.511 820.071 121.511C818.751 120.431 818.271 118.751 818.631 117.191C808.551 118.031 797.631 118.751 785.751 119.231C779.751 119.471 776.511 116.471 776.511 111.311C776.511 106.271 778.911 103.271 785.031 103.631C794.031 104.231 805.071 104.351 816.351 104.351V99.9109H791.511C786.471 99.9109 783.711 97.1509 783.711 92.1109V71.3509C783.711 66.3109 786.471 63.5509 791.511 63.5509H816.351V60.1909H779.031ZM801.951 74.5909V77.2309H816.351V73.1509H803.391C802.551 73.1509 801.951 73.7509 801.951 74.5909ZM848.991 73.1509H835.551V77.2309H850.431V74.5909C850.431 73.7509 849.831 73.1509 848.991 73.1509ZM803.391 90.3109H816.351V86.1109H801.951V88.8709C801.951 89.7109 802.551 90.3109 803.391 90.3109ZM850.431 88.8709V86.1109H835.551V90.3109H848.991C849.831 90.3109 850.431 89.7109 850.431 88.8709ZM835.551 100.151V103.871C841.191 103.751 846.711 103.511 851.751 103.271C851.511 102.911 851.151 102.671 850.911 102.431C850.191 101.711 849.711 100.991 849.591 100.151H835.551ZM877.671 135.191C881.151 140.111 879.951 145.391 874.911 147.911C869.631 150.551 866.391 148.151 864.351 142.391C862.311 136.511 859.791 131.111 856.911 125.111C855.831 122.831 856.071 120.911 857.991 119.471C859.911 118.031 861.591 118.271 863.631 119.831C868.791 123.791 873.471 129.191 877.671 135.191ZM850.311 123.671C853.071 123.551 854.391 125.111 855.231 127.631C859.911 141.671 858.111 150.311 844.671 151.031C833.031 151.631 824.991 151.631 815.991 151.151C801.231 150.551 796.551 147.191 796.551 137.471V127.751C796.551 122.351 799.791 119.831 805.791 119.951C811.791 120.071 815.031 122.351 815.031 127.751V130.631C815.031 134.231 816.111 135.911 821.151 136.271C826.311 136.631 832.671 136.511 840.711 136.031C845.151 135.791 846.111 134.951 846.111 127.991C846.111 124.991 847.791 123.791 850.311 123.671ZM789.951 122.591C792.711 123.671 793.431 124.991 793.191 127.631C792.591 134.831 790.671 140.471 787.311 146.711C785.031 150.911 779.871 152.711 775.311 149.111C770.991 145.751 771.231 140.951 775.191 137.231C778.791 133.871 782.391 129.191 784.551 125.231C785.871 122.831 787.551 121.631 789.951 122.591Z" fill="#594A39"/>
<path d="M914.391 76.2709C911.511 77.1109 909.711 76.3909 908.631 74.2309C907.671 72.0709 908.391 70.0309 910.791 68.5909C919.911 63.1909 928.191 54.9109 935.031 45.7909C938.751 40.8709 943.311 39.7909 948.231 42.7909C952.311 45.4309 952.911 50.4709 949.071 54.7909C947.391 56.7109 945.351 58.6309 943.191 60.5509V76.9909C943.191 82.7509 940.071 84.7909 934.311 84.7909C928.551 84.7909 925.431 82.7509 925.431 76.9909V71.9509C921.831 73.6309 918.111 75.1909 914.391 76.2709ZM959.751 59.5909C958.431 57.4309 957.351 55.1509 956.391 52.7509C954.231 47.3509 955.431 44.1109 959.751 42.3109C964.071 40.5109 967.791 42.3109 970.191 47.1109C972.231 51.0709 974.391 54.3109 976.671 57.1909C980.511 56.7109 984.351 56.1109 988.191 55.5109C984.351 53.2309 980.511 51.1909 977.271 49.1509C974.991 47.7109 974.271 46.0309 975.111 43.9909C975.951 41.9509 977.751 41.2309 980.151 41.7109C984.951 42.6709 989.871 44.1109 994.311 45.6709C998.631 47.2309 999.831 50.4709 997.671 53.8309C997.551 53.9509 997.431 54.0709 997.431 54.1909L1005.47 53.1109C1008.35 52.7509 1010.15 54.1909 1010.51 57.0709C1010.87 60.0709 1009.55 61.7509 1006.55 62.2309L985.191 65.2309C989.151 68.1109 993.351 70.0309 997.551 71.1109C1001.15 72.0709 1004.39 72.5509 1004.75 67.7509C1004.99 64.8709 1006.07 63.6709 1008.23 63.5509C1010.51 63.4309 1012.31 64.8709 1012.67 67.7509C1014.47 82.2709 1011.47 87.5509 997.431 85.7509C985.311 84.3109 974.031 78.0709 965.631 68.1109L950.031 70.2709C947.271 70.6309 945.351 69.1909 944.991 66.3109C944.631 63.3109 946.071 61.5109 948.951 61.1509C952.551 60.6709 956.151 60.1909 959.751 59.5909ZM1009.07 139.871C1013.99 141.311 1016.27 144.911 1014.59 149.591C1012.79 154.511 1008.83 156.191 1003.79 154.151C993.951 150.071 982.431 145.031 972.591 142.031C969.831 141.191 968.751 139.031 969.351 136.751C969.591 135.671 970.071 134.951 970.791 134.471H954.231C954.711 134.951 955.071 135.431 955.431 136.151C957.831 140.831 956.391 144.311 950.871 146.231C940.311 149.951 926.991 152.711 915.351 153.791C912.711 154.031 911.271 152.831 910.911 150.671C910.551 148.391 911.751 146.711 914.271 146.111C924.471 143.711 935.271 138.791 943.191 134.591C943.311 134.591 943.311 134.471 943.431 134.471H931.431C926.391 134.471 923.631 131.711 923.631 126.671V94.3909C923.631 89.3509 926.391 86.5909 931.431 86.5909H994.431C999.471 86.5909 1002.23 89.3509 1002.23 94.3909V126.671C1002.23 131.711 999.471 134.471 994.431 134.471H981.471C991.311 135.551 1001.75 137.711 1009.07 139.871ZM942.591 96.9109V99.5509H983.271V96.9109C983.271 96.0709 982.671 95.4709 981.831 95.4709H944.031C943.191 95.4709 942.591 96.0709 942.591 96.9109ZM942.591 108.191V112.151H983.271V108.191H942.591ZM942.591 123.911C942.591 124.751 943.191 125.351 944.031 125.351H981.831C982.671 125.351 983.271 124.751 983.271 123.911V120.791H942.591V123.911Z" fill="#594A39"/>
<path d="M1150.43 135.791C1155.23 140.831 1155.35 146.231 1150.31 150.551C1145.87 154.391 1139.99 154.271 1135.79 148.151C1129.31 138.911 1126.31 120.671 1126.19 105.431C1124.51 125.111 1114.91 142.631 1096.43 153.071C1093.43 154.751 1091.03 154.151 1089.47 151.991C1087.91 149.591 1088.63 147.671 1091.03 145.391C1093.91 142.631 1096.43 139.871 1098.59 136.991C1094.75 138.551 1091.27 136.871 1090.19 132.551C1089.11 128.111 1087.91 123.911 1086.35 119.471C1085.63 117.191 1086.35 115.391 1088.27 114.191C1089.95 113.111 1091.99 113.231 1093.79 114.911C1097.03 118.031 1100.27 122.231 1102.55 125.951C1103.15 127.031 1103.63 127.991 1103.87 129.071C1109.63 118.151 1111.79 105.911 1111.79 90.5509V84.7909C1111.79 83.4709 1112.03 82.2709 1112.39 81.1909C1110.23 84.6709 1107.71 87.6709 1105.31 90.3109C1103.39 92.2309 1101.47 92.4709 1099.67 91.2709C1097.63 89.9509 1097.27 88.1509 1098.47 85.8709C1103.39 76.9909 1105.79 65.3509 1107.11 49.0309C1107.47 43.6309 1111.19 40.9909 1117.31 41.8309C1122.23 42.5509 1124.75 45.9109 1123.91 51.0709C1123.31 54.7909 1122.47 58.2709 1121.51 61.6309H1135.67C1138.43 58.7509 1142.75 57.6709 1147.43 59.8309C1152.35 62.1109 1153.55 67.1509 1151.15 72.4309C1147.43 80.2309 1143.71 85.6309 1139.15 90.6709C1137.35 92.7109 1135.07 93.0709 1133.27 91.8709C1131.35 90.5509 1130.75 88.7509 1131.59 86.3509C1133.27 81.6709 1134.95 76.7509 1135.79 73.2709C1136.03 72.3109 1135.55 71.7109 1134.59 71.7109H1117.67C1116.47 74.3509 1115.15 76.8709 1113.71 79.2709C1115.27 77.5909 1117.79 76.6309 1121.15 76.6309C1127.15 76.6309 1130.51 79.5109 1130.51 84.7909V89.4709C1132.43 107.111 1137.11 121.751 1150.43 135.791ZM1051.55 65.1109C1048.31 65.1109 1046.63 63.4309 1046.63 60.1909C1046.63 56.9509 1048.31 55.2709 1051.55 55.2709H1066.19V49.7509C1066.19 44.4709 1069.43 41.7109 1075.43 41.7109C1081.43 41.7109 1084.67 44.4709 1084.67 49.7509V55.2709H1099.31C1102.43 55.2709 1104.23 56.9509 1104.23 60.1909C1104.23 63.4309 1102.43 65.1109 1099.31 65.1109H1084.67V72.1909H1094.99C1098.11 72.1909 1099.91 73.8709 1099.91 76.9909C1099.91 80.2309 1098.11 82.0309 1094.99 82.0309H1055.39C1052.15 82.0309 1050.47 80.2309 1050.47 76.9909C1050.47 73.9909 1052.15 72.1909 1055.39 72.1909H1066.19V65.1109H1051.55ZM1057.07 86.5909H1092.47C1095.59 86.5909 1097.51 88.2709 1097.51 91.3909C1097.51 94.6309 1095.59 96.4309 1092.47 96.4309H1057.07C1053.83 96.4309 1052.03 94.6309 1052.03 91.3909C1052.03 88.2709 1053.83 86.5909 1057.07 86.5909ZM1098.23 111.191H1084.67V141.191C1084.67 154.271 1069.31 157.151 1057.43 150.671C1054.91 149.231 1054.43 147.311 1055.03 145.151C1055.63 143.111 1057.07 142.391 1059.23 142.511C1066.07 142.991 1066.91 142.631 1066.91 138.911V111.191H1051.31C1048.07 111.191 1046.27 109.391 1046.27 106.151C1046.27 103.031 1048.07 101.351 1051.31 101.351H1098.23C1101.47 101.351 1103.27 103.031 1103.27 106.151C1103.27 109.391 1101.47 111.191 1098.23 111.191ZM1059.95 113.351C1065.23 114.671 1065.95 118.511 1064.87 122.231C1062.35 130.991 1056.83 139.631 1052.39 144.191C1050.35 146.111 1048.19 146.591 1046.15 145.031C1043.99 143.591 1043.75 141.551 1044.95 139.151C1047.59 133.991 1049.63 126.671 1050.95 118.751C1051.79 114.071 1055.27 112.151 1059.95 113.351Z" fill="#594A39"/>
<path d="M8.684 290.796L4.94 288.196C7.696 285.492 9.568 281.124 10.556 277.172L14.56 278.472C13.468 282.788 11.804 287.728 8.684 290.796ZM17.212 278.524L21.164 278.056C22.152 281.332 22.724 285.596 22.724 288.456L18.512 289.028C18.616 286.22 18.096 281.904 17.212 278.524ZM24.856 278.056L28.652 277.224C29.9 280.084 31.148 283.776 31.564 286.22L27.612 287.26C27.248 284.764 26.104 280.968 24.856 278.056ZM36.036 256.372H26.104C25.272 258.088 24.336 259.752 23.4 261.364H34.892C35.256 259.856 35.672 258.14 36.036 256.372ZM16.64 270.62H38.584C39 269.112 39.416 267.344 39.728 265.524H20.696C19.448 267.292 18.096 269.008 16.64 270.62ZM42.952 270.62H48.672C48.672 270.62 48.568 272.024 48.464 272.596C47.58 283.256 46.644 287.728 44.98 289.392C43.94 290.484 42.796 290.9 41.236 291.004C39.832 291.16 37.336 291.16 34.684 291.056C34.632 289.756 34.06 287.832 33.28 286.636C35.724 286.896 38.064 286.896 39.104 286.896C39.988 286.896 40.456 286.792 41.028 286.324C42.016 285.44 42.848 282.216 43.524 274.884H12.324C9.88 277.068 7.124 278.992 4.16 280.708C3.536 279.564 2.34 277.64 1.508 276.6C10.088 271.972 16.38 264.64 20.696 256.372H4.056V252.004H14.924C14.04 250.08 11.96 247.22 10.14 245.14L14.456 243.424C16.38 245.452 18.616 248.364 19.604 250.236L15.496 252.004H22.776C24.024 249.144 25.012 246.232 25.844 243.32L30.784 244.568C30.004 247.064 29.068 249.56 28.08 252.004H41.34C40.716 255.02 39.988 258.608 39.312 261.364H44.98C44.408 264.328 43.68 267.864 42.952 270.62ZM39.624 282.788L36.088 284.244C35.516 282.372 34.06 279.356 32.552 277.224L35.984 275.976C37.44 278.056 39.052 280.968 39.624 282.788ZM98.8 252.68H89.96C88.14 258.244 84.448 262.3 77.168 265.056C76.7 264.068 75.608 262.508 74.724 261.728C80.652 259.7 83.668 256.684 85.28 252.68H76.856V248.78H86.372C86.684 247.116 86.892 245.296 86.996 243.372H91.52C91.416 245.296 91.208 247.116 90.896 248.78H103.532C103.532 248.78 103.48 249.924 103.376 250.496C102.752 258.036 102.076 261.26 100.828 262.56C99.892 263.6 98.904 263.912 97.5 264.016C96.304 264.12 94.172 264.172 91.884 264.068C91.832 262.768 91.364 261.052 90.688 259.96C92.768 260.116 94.744 260.168 95.576 260.168C96.304 260.168 96.772 260.116 97.188 259.752C97.812 259.128 98.384 257.1 98.8 252.68ZM74.724 261.104H69.004V291.056H64.376V261.104H58.292V256.684H64.376V243.372H69.004V256.684H74.724V261.104ZM80.86 270.308H87.932C87.932 270.308 87.932 271.504 87.88 272.024C87.516 283.724 87.152 288.04 86.06 289.444C85.384 290.432 84.604 290.796 83.408 290.952C82.524 291.108 80.964 291.108 79.456 291.056C79.404 289.912 79.04 288.248 78.468 287.26C79.82 287.416 80.86 287.416 81.484 287.416C82.004 287.416 82.368 287.312 82.68 286.844C83.304 286.012 83.616 282.788 83.876 274.052H80.548C79.716 281.332 77.74 287.156 73.164 291.212C72.644 290.276 71.396 288.872 70.512 288.196C74.256 284.92 75.816 280.084 76.492 274.052H71.968V270.308H76.752C76.856 268.696 76.908 266.98 76.96 265.212H81.068C81.016 266.98 80.964 268.696 80.86 270.308ZM97.916 270.308H105.352C105.352 270.308 105.352 271.504 105.3 272.076C104.988 283.672 104.624 287.988 103.584 289.444C102.804 290.432 102.024 290.796 100.828 290.952C99.84 291.108 98.228 291.108 96.564 291.056C96.46 289.86 96.096 288.196 95.524 287.104C96.928 287.312 98.176 287.312 98.748 287.312C99.372 287.312 99.736 287.208 100.048 286.74C100.672 285.908 100.984 282.788 101.244 274.052H97.552C96.668 281.332 94.588 287 89.856 291.004C89.336 290.068 88.14 288.612 87.152 287.936C91.052 284.712 92.664 280.032 93.34 274.052H89.128V270.308H93.652C93.756 268.644 93.808 266.876 93.86 265.056H98.124C98.072 266.876 98.02 268.644 97.916 270.308ZM122.148 271.764V279.564C124.8 278.992 127.66 278.42 130.624 277.796V271.764H122.148ZM130.624 250.132H122.148V256.684H130.624V250.132ZM130.624 267.5V260.896H122.148V267.5H130.624ZM137.644 276.236L138.112 280.604C129.948 282.58 121.264 284.66 115.024 286.116L114.14 281.124C115.284 280.916 116.532 280.708 117.832 280.448V245.764H135.096V276.808L137.644 276.236ZM149.136 254.812H160.576C160.576 254.812 160.524 256.476 160.524 257.1C160.004 278.628 159.536 286.116 157.872 288.352C156.78 289.912 155.636 290.38 153.92 290.64C152.308 290.848 149.552 290.796 146.848 290.692C146.744 289.34 146.224 287.364 145.444 286.064C148.148 286.272 150.696 286.272 151.788 286.272C152.672 286.324 153.192 286.168 153.712 285.492C154.856 283.984 155.428 277.224 155.844 259.388H148.928C148.096 272.96 145.34 284.348 134.992 291.212C134.264 290.016 132.756 288.404 131.612 287.52C141.024 281.54 143.52 271.556 144.248 259.388H136.656V254.812H144.404C144.508 251.172 144.508 247.324 144.508 243.424H149.24C149.24 247.324 149.24 251.172 149.136 254.812ZM197.444 273.428V285.232H216.632V289.652H172.692V285.232H178.88V266.616H183.612V285.232H192.348V257.724H197.444V269.112H211.9V273.428H197.444ZM194.064 242.904L198.432 244.984C198.068 245.556 197.652 246.076 197.236 246.648C203.788 253.98 211.328 257.932 219.076 261.052C217.88 262.092 216.528 263.756 215.956 265.264C208.416 261.728 201.396 257.568 194.532 249.976C188.864 256.372 181.272 261.676 173.472 265.212C172.744 263.964 171.392 262.248 170.144 261.104C179.556 257.412 188.916 250.704 194.064 242.904ZM242.684 281.228L246.22 282.892C242.58 285.7 236.08 288.404 230.724 289.6C230.048 288.56 228.8 286.948 227.812 286.064C233.064 285.284 239.356 283.36 242.684 281.228ZM255.788 283.36L258.908 280.916C263.484 282.58 269.828 285.076 273.312 286.74L270.088 289.548C266.864 287.936 260.52 285.18 255.788 283.36ZM258.544 256.112H243.204C244.244 257.568 245.232 259.492 245.648 260.688L243.308 261.312H257.504L255.632 260.74C256.62 259.44 257.816 257.464 258.544 256.112ZM252.928 274.988H273.416V279.044H252.928V291.108H248.196V279.044H228.02V274.988H248.196V271.868H232.856V268.228H248.196V265.108H230.308V261.312H240.76C240.24 260.012 239.356 258.192 238.472 256.84L241.488 256.112H228.228V252.264H235.976C235.196 250.236 233.636 247.376 232.18 245.244L236.392 243.788C238.004 246.024 239.824 249.196 240.552 251.224L237.796 252.264H243.62V243.32H248.144V252.264H253.292V243.32H257.868V252.264H263.536L261.508 251.588C262.756 249.508 264.368 246.232 265.148 243.892L270.14 245.192C268.736 247.74 267.176 250.34 265.824 252.264H273.26V256.112H259.636L263.692 257.152C262.548 258.712 261.352 260.116 260.312 261.312H271.336V265.108H252.928V268.228H268.892V271.868H252.928V274.988ZM297.804 245.296L301.028 247.116C299.416 251.432 297.44 256.528 295.62 260.532C299.52 264.744 300.404 268.384 300.404 271.556C300.404 274.52 299.728 276.756 298.116 277.9C297.284 278.472 296.348 278.784 295.204 278.94C294.164 279.044 292.76 279.044 291.564 279.044C291.512 277.848 291.044 276.028 290.368 274.832C291.564 274.936 292.552 274.936 293.332 274.936C294.008 274.884 294.58 274.78 294.996 274.416C295.828 273.948 296.14 272.648 296.14 271.088C296.088 268.384 295.1 264.952 291.304 261.052C292.708 257.62 294.216 253.252 295.36 249.82H289.068V290.952H284.856V245.504H297.18L297.804 245.296ZM306.852 279.304H314.444V273.168H308.412C307.996 275.144 307.424 277.328 306.852 279.304ZM319.072 273.168V279.304H330.408V283.516H319.072V291.056H314.444V283.516H301.132C302.12 280.76 303.16 276.652 303.992 273.168H302.276V268.956H314.444V265.472H319.072V268.956H329.004V273.168H319.072ZM311.064 251.484L310.648 251.952C312 253.772 313.716 255.488 315.744 256.944C318.084 255.384 320.164 253.512 321.724 251.484H311.064ZM325.26 247.584L328.224 249.092C326.3 253.2 323.336 256.58 319.8 259.284C323.128 261 327.028 262.248 331.188 262.976C330.252 263.912 329.004 265.732 328.38 266.928C323.7 265.888 319.436 264.224 315.744 261.936C311.688 264.276 307.06 265.94 302.276 267.136C301.756 265.992 300.716 264.224 299.884 263.236C304.096 262.352 308.256 261.052 312 259.128C310.44 257.828 309.036 256.372 307.892 254.812C306.436 256.112 304.928 257.412 303.212 258.608C302.588 257.516 301.08 255.904 300.092 255.28C305.448 251.848 309.244 247.22 311.324 243.424L316.108 244.308C315.484 245.504 314.756 246.596 313.924 247.792H324.428L325.26 247.584ZM350.324 243.632L354.848 244.984C353.444 248.728 351.624 252.472 349.648 256.008V291.056H345.072V263.184C343.668 265.16 342.16 266.928 340.652 268.54C340.184 267.344 338.78 264.744 338 263.652C342.888 258.816 347.516 251.224 350.324 243.632ZM361.244 289.86V285.908H375.076V289.86H361.244ZM361.036 262.872H371.8C371.436 258.972 371.176 254.708 371.02 250.288C367.692 250.964 364.364 251.536 361.036 252.004V262.872ZM385.996 267.344H376.636C377.832 277.848 379.808 285.128 382.096 285.232C382.928 285.232 383.552 282.684 383.916 278.16C384.644 279.044 386.412 280.188 387.192 280.552C386.1 288.508 384.124 290.692 382.096 290.64C376.688 290.536 373.776 281.228 372.164 267.344H361.036V280.24L369.98 278.056C369.876 279.304 369.928 281.124 370.084 282.112C358.748 285.284 356.98 285.908 355.888 286.636C355.628 285.544 354.796 283.672 354.172 282.736C355.108 282.268 356.512 281.332 356.512 279.304V248.728H356.564L356.512 248.676C365.196 247.376 374.972 245.348 380.692 243.164L384.384 246.752C381.784 247.688 378.664 248.572 375.388 249.3C375.544 254.032 375.804 258.66 376.168 262.872H385.996V267.344ZM421.72 284.816H442.312V289.496H396.136V284.816H416.728V272.856H401.908V268.228H416.728V257.828H405.184C403.572 260.948 401.856 263.704 400.036 265.888C399.048 265.056 396.916 263.652 395.616 262.976C399.828 258.556 403.104 251.432 405.028 244.152L410.02 245.296C409.24 247.948 408.304 250.6 407.316 253.096H416.728V243.424H421.72V253.096H439.816V257.828H421.72V268.228H437.892V272.856H421.72V284.816ZM465.816 261.208H488.54C485.784 260.22 482.248 259.128 478.504 257.984C474.24 259.284 469.872 260.324 465.816 261.208ZM486.772 251.692H466.908C470.704 252.576 474.812 253.616 478.764 254.708C481.832 253.772 484.588 252.784 486.772 251.692ZM482.092 285.648H499.096V289.6H460.98V285.648H477.308V281.384H465.764V277.588H477.308V273.792H467.532C466.024 276.34 464.256 278.68 462.384 280.396C462.02 279.512 460.824 277.12 460.044 276.132C459.576 281.488 458.224 287.416 454.636 291.628C453.908 290.744 451.88 289.028 450.944 288.56C455.104 283.568 455.572 276.548 455.572 271.296V261.208H462.228C461.552 260.48 460.72 259.596 460.096 259.128C464.048 258.452 468.572 257.464 472.836 256.424C469.092 255.384 465.348 254.448 461.916 253.72L464.568 251.692H455.988V247.896H474.5C473.772 246.7 472.94 245.504 472.108 244.516L475.488 242.904C476.788 244.36 478.296 246.336 479.128 247.896H496.756V251.692H489.008L491.296 253.148C489.164 254.188 486.668 255.228 483.964 256.216C487.448 257.204 490.672 258.244 493.22 259.128L490.828 261.208H498.368V265.16H460.252V271.348C460.252 272.856 460.2 274.468 460.044 276.132C462.8 273.532 465.244 269.788 466.648 265.836L470.808 267.032C470.444 268.02 470.028 268.956 469.56 269.944H477.308V266.096H482.092V269.944H495.56V273.792H482.092V277.588H494.208V281.384H482.092V285.648ZM531.492 278.368L531.908 282.944C524.108 284.764 515.632 286.532 509.6 287.832L508.664 282.892C514.384 281.904 523.172 280.084 531.492 278.368ZM525.408 271.92V264.224H516.1V271.92H525.408ZM511.68 260.116H530.088V276.028H511.68V260.116ZM547.508 259.284L552.292 260.48C550.108 267.344 547.144 273.428 543.348 278.628C545.012 283.308 546.988 286.116 549.016 286.116C550.264 286.116 550.888 283.412 551.2 276.704C552.24 277.796 554.008 278.992 555.36 279.512C554.528 288.768 552.812 291.212 548.496 291.212C544.856 291.212 541.892 288.144 539.656 283.204C536.796 286.376 533.52 289.08 529.932 291.316C529.204 290.328 527.28 288.456 526.188 287.52C530.608 285.076 534.508 281.8 537.784 277.9C535.912 271.868 534.768 264.224 534.144 256.06H508.924V251.328H533.832C533.676 248.728 533.624 246.076 533.572 243.476H538.772C538.772 246.128 538.772 248.78 538.928 251.328H549.224C547.3 249.716 544.18 247.688 541.476 246.388L544.336 243.424C547.3 244.724 550.992 246.908 552.864 248.572L550.368 251.328H554.164V256.06H539.188C539.708 262.196 540.488 267.864 541.58 272.544C544.024 268.592 546 264.12 547.508 259.284ZM571.324 269.268H578.084V261.624H571.428V263.808C571.428 265.472 571.428 267.344 571.324 269.268ZM578.084 249.716H571.428V257.1H578.084V249.716ZM582.556 245.244V285.648C582.556 287.988 582.14 289.444 580.684 290.224C579.228 291.056 577.096 291.16 573.612 291.108C573.508 289.912 572.884 287.676 572.312 286.48C574.444 286.584 576.524 286.532 577.2 286.532C577.824 286.48 578.084 286.272 578.084 285.544V273.844H571.064C570.596 279.98 569.608 286.428 567.32 291.212C566.488 290.484 564.512 289.392 563.368 288.924C566.8 281.748 567.06 271.4 567.06 263.808V245.244H582.556ZM590.98 267.448V287.312C593.684 285.908 596.18 283.776 598.364 281.228C595.608 277.224 593.476 272.544 591.916 267.448H590.98ZM605.332 267.448H596.024C597.22 271.088 598.884 274.468 600.964 277.484C602.784 274.52 604.292 271.192 605.332 267.448ZM607.724 262.872L610.532 263.86C609.284 270.828 606.944 276.548 603.824 281.176C606.216 283.776 608.972 285.96 612.092 287.416C611 288.3 609.7 289.964 608.972 291.16C606.008 289.548 603.356 287.364 601.068 284.764C598.884 287.26 596.492 289.288 593.788 290.9C593.164 289.808 591.968 288.248 590.98 287.416V291.108H586.404V245.348H609.024V255.332C609.024 257.568 608.556 258.816 606.736 259.44C604.916 260.116 602.16 260.116 598.312 260.116C598.104 258.868 597.376 257.152 596.804 256.008C599.664 256.112 602.576 256.112 603.304 256.06C604.136 256.06 604.396 255.904 604.396 255.28V249.872H590.98V263.028H606.944L607.724 262.872ZM654.212 272.232H666.068C666.068 272.232 666.016 273.48 665.912 274.156C665.028 283.464 664.092 287.468 662.636 289.028C661.596 290.068 660.556 290.38 659.152 290.588C657.852 290.692 655.72 290.692 653.38 290.588C653.276 289.236 652.756 287.364 652.08 286.116C654.108 286.324 656.032 286.376 656.916 286.376C657.696 286.376 658.112 286.272 658.58 285.804C659.464 285.024 660.192 282.372 660.868 276.288H653.328C651.56 282.684 647.92 287.884 639.704 291.108C639.132 289.964 637.832 288.196 636.844 287.364C643.604 284.92 646.776 281.02 648.388 276.288H641.108V272.232H649.428C649.688 270.62 649.896 269.008 650.052 267.292H654.836C654.68 269.008 654.472 270.62 654.212 272.232ZM658.112 252.732H648.492C649.844 254.864 651.612 256.736 653.744 258.452C655.564 256.84 657.02 254.916 658.112 252.732ZM667.004 252.732H663.416C662.012 256.008 660.036 258.764 657.644 261.052C660.712 262.82 664.3 264.12 668.148 264.952C667.16 265.888 665.756 267.76 665.132 269.008C660.972 267.916 657.176 266.252 653.848 264.016C650.676 266.096 646.932 267.656 642.876 268.904C642.616 268.332 642.096 267.552 641.524 266.772C640.64 269.84 639.652 272.908 638.664 275.144L635.336 273.48C636.168 271.452 636.948 268.54 637.624 265.68H633.62V285.648C633.62 287.988 633.256 289.288 631.696 290.12C630.188 290.796 628.056 290.9 624.832 290.9C624.676 289.6 624.052 287.624 623.428 286.324C625.508 286.428 627.588 286.428 628.212 286.376C628.836 286.324 629.044 286.22 629.044 285.596V271.504C627.12 275.976 624.676 280.188 622.024 282.788C621.556 281.384 620.412 279.408 619.58 278.16C622.7 275.404 625.664 270.464 627.536 265.68H620.308V261.468H633.568C630.708 259.388 626.184 256.944 622.44 255.332L625.456 252.212C626.912 252.784 628.576 253.512 630.136 254.292C631.748 253.044 633.308 251.484 634.608 249.924H620.932V245.816H638.04L638.82 245.66L641.94 247.584C640.016 250.652 636.896 253.876 633.828 256.268C635.492 257.204 636.896 258.192 637.988 259.024L635.752 261.468H638.976L639.704 261.208L642.616 262.248C642.46 262.924 642.304 263.6 642.148 264.328C645.112 263.496 647.764 262.404 650.104 261.052C648.336 259.388 646.776 257.568 645.476 255.592C644.436 256.736 643.396 257.724 642.356 258.608C641.42 257.828 639.548 256.476 638.352 255.852C642.46 252.888 646.152 248.208 648.232 243.32L652.756 244.568C652.132 245.972 651.404 247.324 650.624 248.676H667.004V252.732ZM699.972 248.728V260.896H704.08V252.472H713.024V248.728H699.972ZM713.024 260.896V255.696H707.72V260.896H713.024ZM696.072 264.692V283.36H691.86V260.896H695.708V245.036H717.392V260.896H721.344V278.888C721.344 280.916 720.98 282.06 719.628 282.684C718.224 283.308 716.144 283.36 713.18 283.36C713.076 282.216 712.556 280.604 712.036 279.512C713.908 279.616 715.676 279.616 716.196 279.564C716.768 279.564 716.976 279.356 716.976 278.888V264.692H696.072ZM709.592 275.404V270.724H703.404V275.404H709.592ZM713.232 267.5V278.628H703.404V280.448H699.816V267.5H713.232ZM688.012 251.276L684.216 253.876C682.968 251.692 680.316 248.052 678.08 245.504L681.772 243.372C684.06 245.868 686.712 249.196 688.012 251.276ZM687.544 267.916L689.624 268.748C689.052 272.908 688.116 276.548 686.92 279.72C690.144 285.284 696.332 286.116 705.484 286.116C710.944 286.116 718.9 285.856 724.412 285.336C723.684 286.376 723.06 288.56 722.8 289.808C717.756 290.12 711.256 290.276 705.432 290.276C695.396 290.276 689.156 289.236 685.152 283.62C683.332 286.896 681.2 289.392 678.756 291.264C678.08 290.224 676.52 288.612 675.532 287.936C680.056 284.868 683.28 279.356 684.84 271.816H680.42C679.172 271.816 677.768 272.18 677.352 272.596C677.092 271.504 676.156 269.372 675.688 268.488C676.468 268.28 677.352 267.916 678.236 266.876C679.328 265.836 681.876 262.248 683.956 259.232H676.468V255.332H686.972L687.596 255.072L690.612 256.424C688.584 259.388 685.1 264.484 682.292 268.02H686.764L687.544 267.916ZM772.408 258.66V249.924H758.056V258.66H772.408ZM777.088 245.816V262.768H753.584V245.816H777.088ZM752.232 271.816L749.424 275.612C748.644 274.156 746.928 271.712 745.368 269.58V291.004H740.688V269.996C738.764 274.728 736.372 279.2 734.032 282.112C733.564 280.76 732.42 278.784 731.692 277.64C734.76 274.104 738.088 267.916 740.064 262.404H732.68V257.828H740.688V250.808C738.296 251.276 735.904 251.64 733.668 251.952C733.46 250.912 732.784 249.248 732.264 248.208C738.088 247.272 744.744 245.764 748.696 244.048L752.024 247.74C750.048 248.52 747.76 249.196 745.368 249.768V257.828H751.452V262.404H745.368V264.796C746.876 266.096 751.296 270.62 752.232 271.816ZM767.572 285.596H779.636V289.912H750.36V285.596H762.788V279.616H753.116V275.456H762.788V270.152C759.46 270.464 756.132 270.672 753.064 270.776C752.96 269.788 752.388 268.124 751.92 267.136C759.98 266.616 769.6 265.628 775.112 264.172L778.076 267.76C775.112 268.54 771.42 269.164 767.572 269.632V275.456H777.504V279.616H767.572V285.596ZM814.632 269.788H828.152V257.204H814.632V269.788ZM796.12 269.788H809.588V257.204H796.12V269.788ZM814.632 252.472H833.196V277.328H828.152V274.52H814.632V291.056H809.588V274.52H796.12V277.588H791.284V252.472H809.588V243.424H814.632V252.472ZM858.936 261.208H881.66C878.904 260.22 875.368 259.128 871.624 257.984C867.36 259.284 862.992 260.324 858.936 261.208ZM879.892 251.692H860.028C863.824 252.576 867.932 253.616 871.884 254.708C874.952 253.772 877.708 252.784 879.892 251.692ZM875.212 285.648H892.216V289.6H854.1V285.648H870.428V281.384H858.884V277.588H870.428V273.792H860.652C859.144 276.34 857.376 278.68 855.504 280.396C855.14 279.512 853.944 277.12 853.164 276.132C852.696 281.488 851.344 287.416 847.756 291.628C847.028 290.744 845 289.028 844.064 288.56C848.224 283.568 848.692 276.548 848.692 271.296V261.208H855.348C854.672 260.48 853.84 259.596 853.216 259.128C857.168 258.452 861.692 257.464 865.956 256.424C862.212 255.384 858.468 254.448 855.036 253.72L857.688 251.692H849.108V247.896H867.62C866.892 246.7 866.06 245.504 865.228 244.516L868.608 242.904C869.908 244.36 871.416 246.336 872.248 247.896H889.876V251.692H882.128L884.416 253.148C882.284 254.188 879.788 255.228 877.084 256.216C880.568 257.204 883.792 258.244 886.34 259.128L883.948 261.208H891.488V265.16H853.372V271.348C853.372 272.856 853.32 274.468 853.164 276.132C855.92 273.532 858.364 269.788 859.768 265.836L863.928 267.032C863.564 268.02 863.148 268.956 862.68 269.944H870.428V266.096H875.212V269.944H888.68V273.792H875.212V277.588H887.328V281.384H875.212V285.648ZM927.16 284.816H947.752V289.496H901.576V284.816H922.168V272.856H907.348V268.228H922.168V257.828H910.624C909.012 260.948 907.296 263.704 905.476 265.888C904.488 265.056 902.356 263.652 901.056 262.976C905.268 258.556 908.544 251.432 910.468 244.152L915.46 245.296C914.68 247.948 913.744 250.6 912.756 253.096H922.168V243.424H927.16V253.096H945.256V257.828H927.16V268.228H943.332V272.856H927.16V284.816ZM972.348 282.268L973.024 282.684C976.248 284.764 980.616 285.128 986.284 285.128C991.952 285.128 999.7 284.712 1004.69 284.088C1004.12 285.388 1003.39 287.936 1003.29 289.288C999.492 289.548 991.12 289.808 986.076 289.808C979.784 289.808 975.676 289.184 972.14 287.052C970.008 285.7 968.344 283.984 967.2 283.984C965.588 283.984 963.196 287.208 960.908 290.588L957.372 286.064C960.908 282.216 964.548 279.408 967.356 279.408C967.564 279.408 967.72 279.408 967.928 279.46C976.872 274.208 986.388 265.524 992.108 258.088H959.972V253.356H981.032C979.784 251.068 977.652 247.74 975.884 245.296L980.2 243.008C982.176 245.608 984.724 249.196 985.92 251.38L982.488 253.356H995.8L996.736 253.096L1000.43 255.488C994.032 265.108 982.852 275.612 972.348 282.268ZM1025.18 262.768L1022.48 266.772C1020.45 264.952 1016.29 262.56 1012.91 261.156L1015.46 257.516C1018.78 258.816 1023.05 261.052 1025.18 262.768ZM1018.78 290.38L1014.62 287.26C1017.28 283.256 1021.02 276.704 1023.88 270.776L1027.52 273.948C1024.97 279.356 1021.7 285.544 1018.78 290.38ZM1015.82 247.22L1018.47 243.684C1021.75 245.036 1025.96 247.324 1027.99 249.196L1025.23 253.148C1023.2 251.276 1019.15 248.728 1015.82 247.22ZM1060.9 263.184V267.864H1047.64V284.66C1047.64 287.676 1047.02 289.236 1045.04 290.068C1043.12 290.952 1040 291.004 1035.53 291.004C1035.32 289.548 1034.49 287.104 1033.76 285.648C1036.88 285.804 1040.31 285.804 1041.25 285.752C1042.18 285.7 1042.55 285.44 1042.55 284.608V267.864H1028.61V263.184H1042.55V251.432H1030.48V246.804H1059.76V251.432H1047.64V263.184H1060.9ZM1103.23 253.252H1097.25C1095.54 261.052 1091.84 265.94 1084.72 269.216C1084.2 268.28 1082.38 266.356 1081.39 265.576C1087.63 263.236 1090.96 259.336 1092.42 253.252H1085.08V248.988H1093.2C1093.4 247.272 1093.46 245.4 1093.51 243.372L1098.34 243.32C1098.29 245.348 1098.14 247.272 1097.93 248.988H1107.96V261.78C1107.96 262.716 1108.02 263.288 1108.22 263.496C1108.48 263.652 1108.74 263.756 1109.16 263.756H1110.67C1111.08 263.756 1111.55 263.652 1111.81 263.496C1112.07 263.34 1112.33 262.976 1112.44 262.144C1112.54 261.364 1112.59 259.492 1112.64 257.152C1113.63 258.036 1115.45 258.868 1116.75 259.388C1116.65 261.676 1116.44 264.172 1116.08 265.108C1115.71 266.2 1115.09 266.824 1114.15 267.24C1113.48 267.604 1112.18 267.76 1111.19 267.76H1108.02C1106.82 267.76 1105.36 267.396 1104.48 266.72C1103.65 265.888 1103.23 264.848 1103.23 261.676V253.252ZM1074.11 269.996L1070.58 266.824C1073.18 264.64 1076.92 261 1080.09 257.516L1083 260.48C1080.14 263.704 1076.97 267.084 1074.11 269.996ZM1083.89 247.116L1081.96 250.6C1079.88 249.456 1075.98 247.792 1073.02 246.856L1074.89 243.684C1077.8 244.516 1081.81 245.972 1083.89 247.116ZM1080.2 254.344L1078.17 257.88C1076.19 256.736 1072.29 255.072 1069.33 254.136L1071.36 250.912C1074.27 251.744 1078.17 253.148 1080.2 254.344ZM1084.41 276.704L1088.26 278.16C1084.62 283.204 1078.12 287.624 1071.98 289.86C1071.25 288.56 1069.69 286.584 1068.65 285.544C1074.53 283.984 1081.03 280.5 1084.41 276.704ZM1115.97 276.028H1095.43V291.056H1090.54V276.028H1070.21V271.712H1090.54V266.564H1095.43V271.712H1115.97V276.028ZM1097.93 279.72L1100.84 276.288C1106.09 279.096 1113.16 283.308 1116.6 286.324L1113.42 290.172C1110.15 287.208 1103.28 282.632 1097.93 279.72ZM1164.23 264.952H1147.28C1149.25 269.84 1152.11 274.104 1155.8 277.64C1159.44 274.208 1162.36 270.048 1164.23 264.952ZM1141.71 250.392V254.812C1141.71 256.58 1141.66 258.452 1141.56 260.376H1151.59C1152.48 257.412 1153.31 253.824 1154.09 250.392H1141.71ZM1167.24 260.116L1170.73 261.572C1168.6 269.84 1164.85 276.132 1159.86 280.916C1163.66 283.464 1168.13 285.44 1173.28 286.584C1172.13 287.676 1170.68 289.808 1169.95 291.212C1164.44 289.652 1159.76 287.312 1155.8 284.244C1151.18 287.624 1145.77 289.964 1139.89 291.68C1139.32 290.276 1138.02 288.196 1137.08 287.156C1142.54 285.908 1147.64 283.776 1152.01 280.76C1147.95 276.444 1144.83 271.192 1142.6 264.952H1141.14C1140.05 273.376 1136.93 282.684 1128.61 290.276C1127.88 289.028 1126.16 287.052 1125.12 286.168C1135.78 276.496 1136.72 263.6 1136.72 254.76V250.392H1127.98V245.712H1160.22C1159.24 250.444 1158.04 256.112 1156.95 260.376H1166.31L1167.24 260.116ZM1195.84 246.232V249.872H1183.1V246.232H1195.84ZM1213.99 250.34V251.172C1213.99 251.536 1213.99 251.952 1213.89 252.42C1216.7 255.28 1222.26 257.048 1229.12 257.464C1228.19 258.452 1226.99 260.168 1226.52 261.416C1220.6 260.584 1215.86 258.712 1212.59 255.696C1210.72 258.088 1206.61 260.324 1197.66 261.572C1197.2 260.48 1196.1 258.868 1195.22 257.984H1182.01V254.188H1197.09V257.62C1208.38 256.164 1209.57 253.252 1209.57 251.016V250.34H1205.26C1204.11 252.212 1202.81 253.876 1201.46 255.176C1200.68 254.5 1198.91 253.252 1197.82 252.732C1200.52 250.392 1202.66 246.804 1203.8 243.164L1208.12 244.1C1207.8 244.984 1207.49 245.816 1207.13 246.7H1223.35L1224.03 246.492L1227.36 247.584C1226.06 250.34 1224.29 253.356 1222.83 255.28L1219.04 253.928C1219.71 252.992 1220.49 251.64 1221.22 250.34H1213.99ZM1193.45 276.6V279.616H1217.84V276.6H1193.45ZM1193.45 270.724V273.636H1217.84V270.724H1193.45ZM1193.45 264.848V267.812H1217.84V264.848H1193.45ZM1222.68 282.684H1213.58C1218.93 284.452 1224.7 286.636 1228.24 288.352L1223.87 291.004C1220.7 289.288 1215.24 286.948 1209.88 285.128L1212.9 282.684H1197.35L1201.67 284.66C1197.46 287.208 1190.96 289.704 1185.76 291.16C1184.92 290.172 1183.21 288.404 1182.17 287.52C1187.47 286.48 1193.56 284.712 1197.14 282.684H1188.77V261.78H1222.68V282.684ZM1251.48 249.144L1248.52 252.992C1246.6 251.484 1242.75 249.04 1239.99 247.324L1242.85 243.892C1245.5 245.4 1249.46 247.688 1251.48 249.144ZM1248.99 262.716L1246.08 266.564C1244.15 265.16 1240.3 262.768 1237.5 261.156L1240.3 257.724C1243.01 259.128 1246.91 261.312 1248.99 262.716ZM1246.02 271.088L1249.87 273.792C1247.84 279.252 1245.19 285.492 1242.8 290.432L1238.43 287.78C1240.62 283.724 1243.74 277.068 1246.02 271.088ZM1257.72 250.34V260.168C1257.72 269.216 1256.79 282.372 1250.7 290.952C1249.87 290.172 1247.79 288.924 1246.65 288.404C1252.47 280.292 1252.99 268.592 1252.99 260.168V245.972H1284.82V250.34H1257.72ZM1261.62 276.34L1265.94 277.536C1264.28 281.28 1261.78 285.492 1259.65 288.092C1258.76 287.468 1256.89 286.324 1255.8 285.752C1258.04 283.308 1260.27 279.668 1261.62 276.34ZM1264.54 266.408V270.204H1278.58V266.408H1264.54ZM1264.54 259.232V262.976H1278.58V259.232H1264.54ZM1283.1 273.792H1273.58V286.324C1273.58 288.508 1273.22 289.704 1271.66 290.328C1270.15 291.056 1267.86 291.108 1264.48 291.056C1264.33 289.86 1263.7 288.092 1263.24 286.896C1265.42 287 1267.55 286.948 1268.18 286.948C1268.8 286.948 1269.01 286.74 1269.01 286.168V273.792H1260.22V255.592H1267.66C1268.18 253.98 1268.75 252.056 1269.06 250.652L1274.47 251.64C1273.79 253.044 1273.06 254.344 1272.44 255.592H1283.1V273.792ZM1276.18 277.432L1280.34 275.872C1282.27 278.992 1284.71 283.204 1285.86 285.752L1281.44 287.676C1280.34 285.076 1278.06 280.708 1276.18 277.432ZM1307.49 251.12L1304.11 254.448C1302.5 252.524 1299.12 249.716 1296.31 247.74L1299.58 244.828C1302.29 246.596 1305.77 249.248 1307.49 251.12ZM1305.51 263.756L1302.5 267.5C1300.62 265.732 1296.78 263.184 1293.76 261.52L1296.62 258.244C1299.58 259.752 1303.48 262.04 1305.51 263.756ZM1299.27 289.808L1294.85 286.896C1297.19 282.996 1300.47 276.548 1302.86 270.724L1306.76 273.584C1304.58 278.94 1301.77 284.972 1299.27 289.808ZM1314.3 261.988V266.876H1332.29V261.988H1314.3ZM1332.29 253.096H1314.3V257.932H1332.29V253.096ZM1336.14 272.024L1339.26 275.196C1337.02 277.068 1334.06 278.992 1331.51 280.448C1334.22 283.152 1337.54 285.232 1341.55 286.48C1340.51 287.468 1339.16 289.34 1338.48 290.64C1329.64 287.468 1324.28 280.604 1321.22 271.088H1314.3V284.66L1323.45 281.852C1323.56 283.152 1323.87 285.076 1324.18 286.116C1312.95 289.808 1311.08 290.536 1309.98 291.42C1309.52 290.328 1308.16 288.508 1307.44 287.728C1308.32 287 1309.46 285.44 1309.46 282.944V248.936H1321.63C1321.06 247.376 1320.33 245.504 1319.55 244.048L1324.02 242.904C1325.06 244.724 1326.1 247.116 1326.73 248.936H1337.02V271.088H1325.84C1326.62 273.324 1327.72 275.404 1328.96 277.276C1331.41 275.716 1334.32 273.636 1336.14 272.024ZM1361.98 277.692V280.448H1386.27V277.692H1361.98ZM1377.32 260.324H1368.85C1368.12 261.572 1367.13 262.716 1365.73 263.756H1377.32V260.324ZM1365.83 254.552H1359.64C1359.49 255.488 1359.33 256.424 1359.18 257.308H1365.21C1365.57 256.424 1365.73 255.54 1365.83 254.552ZM1370.25 248.988V251.536H1377.32V248.988H1370.25ZM1388.76 248.988H1381.9V251.536H1388.76V248.988ZM1377.32 257.308V254.552H1370.25C1370.25 255.54 1370.15 256.424 1369.94 257.308H1377.32ZM1391.68 260.324H1381.9V263.756H1387.41C1387.26 263.132 1387 262.56 1386.79 262.092C1388.19 262.248 1389.44 262.3 1389.96 262.3C1390.53 262.3 1390.84 262.248 1391.16 261.936C1391.36 261.676 1391.52 261.26 1391.68 260.324ZM1386.27 269.372V266.72H1361.98V269.372H1386.27ZM1386.27 274.884V272.18H1361.98V274.884H1386.27ZM1391.16 283.36H1383.67C1388.56 284.868 1393.55 286.688 1396.77 288.04L1393.18 291.004C1389.8 289.392 1383.93 287.104 1378.21 285.284L1380.18 283.36H1366.4L1370.15 285.024C1365.94 287.468 1359.38 289.808 1354.18 291.16C1353.46 290.172 1351.69 288.456 1350.7 287.624C1355.8 286.74 1361.67 285.128 1365.31 283.36H1357.3V267.448C1356 267.812 1354.6 268.124 1353.04 268.384C1352.62 267.292 1351.48 265.472 1350.75 264.588C1357.04 263.6 1360.79 262.092 1362.97 260.324H1354.39C1354.96 257.88 1355.48 254.396 1355.8 251.536H1365.88V248.988H1353.61V245.972H1365.88V243.372H1370.25V245.972H1377.32V243.372H1381.9V245.972H1393.18V254.552H1381.9V257.308H1396.46C1396.46 257.308 1396.41 258.192 1396.36 258.712C1396.04 261.676 1395.73 263.288 1395 264.12C1394.28 264.796 1393.34 265.108 1392.3 265.16C1391.99 265.212 1391.62 265.212 1391.16 265.212V283.36ZM1425.68 277.848L1424.33 274.468C1428.34 272.96 1430.68 270.568 1430.94 267.448C1430.73 267.5 1430.47 267.5 1430.21 267.5C1427.87 267.5 1425.84 266.044 1425.84 263.34C1425.84 260.688 1427.87 259.18 1430.26 259.18C1433.54 259.18 1435.25 261.728 1435.25 265.68C1435.25 271.452 1431.61 275.924 1425.68 277.848ZM1477.11 282.788L1485.02 281.332L1485.33 285.18C1478.05 286.688 1470.3 288.352 1464.63 289.444L1463.59 285.128C1466.09 284.712 1469.31 284.14 1472.85 283.516V269.476H1464.16V265.368H1472.85V260.48H1467.91V258.192C1466.97 259.024 1466.14 259.752 1465.2 260.428C1464.89 259.388 1463.8 256.736 1463.18 255.54C1467.44 252.576 1471.96 247.948 1474.46 243.06L1478.41 244.724C1478.05 245.348 1477.68 246.024 1477.27 246.7C1480.86 248.832 1484.44 251.328 1486.68 253.252L1483.98 257.048C1481.84 255.02 1478.41 252.368 1474.93 250.236C1473.37 252.472 1471.6 254.552 1469.73 256.424H1482.78V260.48H1477.11V265.368H1484.81V269.476H1477.11V282.788ZM1465.67 272.7L1468.9 271.868C1469.88 274.832 1470.77 278.628 1471.08 281.072L1467.6 282.06C1467.39 279.512 1466.5 275.716 1465.67 272.7ZM1481.22 281.384L1478.2 280.5C1478.98 278.004 1480.08 274.052 1480.49 271.348L1484.24 272.336C1483.25 275.508 1482.1 279.096 1481.22 281.384ZM1510.13 260.22V264.952H1499.94V291.056H1495V264.952H1484.81V260.22H1495V243.788H1499.94V260.22H1510.13ZM1527.34 265.68H1533.64C1534.78 263.6 1536.18 260.584 1536.91 258.452H1526.72C1528.18 260.168 1529.79 262.352 1530.41 263.912L1527.34 265.68ZM1565.72 256.892V261.416H1561.2V285.388C1561.2 288.092 1560.57 289.392 1558.91 290.172C1557.24 290.952 1554.7 291.108 1550.54 291.108C1550.28 289.86 1549.55 287.728 1548.87 286.532C1551.78 286.636 1554.49 286.584 1555.32 286.584C1556.2 286.532 1556.52 286.272 1556.52 285.388V261.416H1544.71V258.452H1537.07L1541.12 259.908C1540.08 261.884 1538.99 263.912 1538 265.68H1543.26V269.684H1534.16V274.156H1542.32V278.108H1534.16V282.736C1537.64 282.372 1541.18 281.956 1544.66 281.488L1544.76 285.752C1535.72 287 1526.1 288.144 1519.44 289.028L1518.76 284.504C1521.78 284.192 1525.58 283.776 1529.68 283.256V278.108H1521.68V274.156H1529.68V269.684H1520.53V265.68H1526.77C1526.1 264.016 1524.54 261.676 1523.08 260.012L1525.99 258.452H1518.92V254.448H1526.41V251.9L1523.86 253.616C1523.08 251.796 1521.16 248.988 1519.39 247.064L1522.35 245.088C1523.86 246.596 1525.42 248.624 1526.41 250.34V243.424H1530.26V254.448H1533.53V243.424H1537.43V250.704C1538.84 248.988 1540.4 246.804 1541.33 245.192L1545.18 247.324C1543.2 249.612 1541.07 252.108 1539.36 253.72L1537.43 252.576V254.448H1544.76V256.892H1556.52V243.476H1561.2V256.892H1565.72ZM1554.28 276.6L1549.91 278.108C1549.55 275.092 1547.73 270.152 1545.75 266.408L1549.76 265.004C1551.89 268.696 1553.81 273.48 1554.28 276.6ZM1593.44 273.324L1590 274.676C1589.85 273.948 1589.64 273.168 1589.38 272.284C1578.88 273.896 1577.16 274.364 1576.17 274.884C1575.91 273.948 1575.24 271.868 1574.66 270.724C1575.86 270.412 1577 269.164 1578.56 267.188C1579.29 266.356 1580.75 264.432 1582.41 261.988C1577.68 262.508 1576.59 262.82 1575.81 263.132C1575.55 262.196 1574.82 260.116 1574.3 258.972C1575.18 258.712 1576.07 257.672 1577.06 256.164C1578.1 254.656 1581.37 248.884 1583.19 243.424L1587.56 245.14C1585.58 249.664 1582.98 254.448 1580.33 258.296L1585.01 257.88C1586.42 255.592 1587.82 253.148 1588.91 250.704L1592.81 253.044C1589.64 258.92 1585.64 264.848 1581.53 269.632L1588.29 268.696C1587.77 267.136 1587.2 265.524 1586.68 264.172L1589.9 263.236C1591.15 266.46 1592.76 270.776 1593.44 273.324ZM1576.48 276.808L1580.23 277.64C1579.66 281.8 1578.67 286.636 1577.89 289.756C1577 289.34 1575.24 288.924 1574.2 288.716C1575.18 285.544 1576.02 280.916 1576.48 276.808ZM1581.84 277.328L1585.27 276.548C1585.95 279.928 1586.52 284.296 1586.73 287.208L1583.09 288.144C1582.98 285.18 1582.41 280.76 1581.84 277.328ZM1601.86 277.224L1603.37 280.812C1600.35 282.996 1596.97 285.232 1594.16 287.052L1592.55 284.712L1590 285.648C1589.54 283.1 1588.29 279.2 1587.3 276.184L1590.52 275.196C1591.41 277.588 1592.4 280.604 1593.02 282.944C1595.52 281.436 1598.69 279.356 1601.86 277.224ZM1593.85 269.84L1597.08 267.656C1599.1 269.632 1601.65 272.492 1602.85 274.312L1599.47 276.808C1598.32 274.988 1595.83 271.972 1593.85 269.84ZM1610.6 280.188L1613.09 277.172C1616.11 279.148 1620.22 282.112 1622.19 283.984L1619.59 287.468C1617.67 285.44 1613.61 282.32 1610.6 280.188ZM1617.56 267.448L1621.1 269.892C1618.86 272.232 1616.21 274.728 1614.13 276.392L1611.27 274.208C1613.3 272.492 1616 269.528 1617.56 267.448ZM1600.72 255.072H1611.01C1611.32 253.72 1611.58 252.316 1611.79 251.12H1601.7C1601.34 252.472 1601.03 253.824 1600.72 255.072ZM1614.03 262.196H1622.24V266.46H1609.45V286.272C1609.45 288.508 1609.04 289.704 1607.53 290.328C1606.07 291.056 1603.84 291.108 1600.77 291.108C1600.56 289.912 1599.88 288.092 1599.31 286.948C1601.44 287 1603.58 287 1604.2 287C1604.82 286.948 1605.03 286.792 1605.03 286.22V266.46H1592.4V262.196H1609.5C1609.76 261.156 1610.02 260.012 1610.28 258.868H1594.94C1596.24 254.812 1597.96 248.312 1598.95 243.372L1603.47 243.84C1603.21 244.984 1602.95 246.128 1602.69 247.324H1612.88L1613.61 247.116L1616.94 247.636C1616.21 252.056 1615.12 257.568 1614.03 262.196ZM1658.96 252.004H1646.27C1644.76 253.98 1643.1 255.904 1641.28 257.672H1654.07C1655.78 256.06 1657.55 253.98 1658.96 252.004ZM1668.63 269.892V262.144H1657.55V269.892H1668.63ZM1641.9 262.144V269.892H1652.82V262.144H1641.9ZM1648.56 285.804H1667.54C1672.53 285.804 1673.36 284.452 1673.98 277.848C1675.18 278.628 1677.26 279.304 1678.56 279.564C1677.57 287.832 1675.8 290.224 1667.64 290.224H1648.71C1639.92 290.224 1637.22 288.612 1637.22 282.008V261.364C1635.92 262.456 1634.62 263.444 1633.32 264.328C1632.85 263.288 1631.5 260.844 1630.72 259.752C1636.91 256.008 1643.15 249.872 1646.68 243.164L1651.1 244.776C1650.58 245.764 1649.96 246.7 1649.34 247.688H1662.23L1663.22 247.428L1666.39 249.664C1664.57 252.316 1662.28 255.176 1659.89 257.672H1673.41V276.548H1668.63V274.52H1641.9V282.008C1641.9 285.128 1642.89 285.804 1648.56 285.804ZM1701.34 261.208H1724.06C1721.3 260.22 1717.77 259.128 1714.02 257.984C1709.76 259.284 1705.39 260.324 1701.34 261.208ZM1722.29 251.692H1702.43C1706.22 252.576 1710.33 253.616 1714.28 254.708C1717.35 253.772 1720.11 252.784 1722.29 251.692ZM1717.61 285.648H1734.62V289.6H1696.5V285.648H1712.83V281.384H1701.28V277.588H1712.83V273.792H1703.05C1701.54 276.34 1699.78 278.68 1697.9 280.396C1697.54 279.512 1696.34 277.12 1695.56 276.132C1695.1 281.488 1693.74 287.416 1690.16 291.628C1689.43 290.744 1687.4 289.028 1686.46 288.56C1690.62 283.568 1691.09 276.548 1691.09 271.296V261.208H1697.75C1697.07 260.48 1696.24 259.596 1695.62 259.128C1699.57 258.452 1704.09 257.464 1708.36 256.424C1704.61 255.384 1700.87 254.448 1697.44 253.72L1700.09 251.692H1691.51V247.896H1710.02C1709.29 246.7 1708.46 245.504 1707.63 244.516L1711.01 242.904C1712.31 244.36 1713.82 246.336 1714.65 247.896H1732.28V251.692H1724.53L1726.82 253.148C1724.68 254.188 1722.19 255.228 1719.48 256.216C1722.97 257.204 1726.19 258.244 1728.74 259.128L1726.35 261.208H1733.89V265.16H1695.77V271.348C1695.77 272.856 1695.72 274.468 1695.56 276.132C1698.32 273.532 1700.76 269.788 1702.17 265.836L1706.33 267.032C1705.96 268.02 1705.55 268.956 1705.08 269.944H1712.83V266.096H1717.61V269.944H1731.08V273.792H1717.61V277.588H1729.73V281.384H1717.61V285.648ZM1759 281.228L1762.54 282.892C1758.9 285.7 1752.4 288.404 1747.04 289.6C1746.37 288.56 1745.12 286.948 1744.13 286.064C1749.38 285.284 1755.68 283.36 1759 281.228ZM1772.11 283.36L1775.23 280.916C1779.8 282.58 1786.15 285.076 1789.63 286.74L1786.41 289.548C1783.18 287.936 1776.84 285.18 1772.11 283.36ZM1774.86 256.112H1759.52C1760.56 257.568 1761.55 259.492 1761.97 260.688L1759.63 261.312H1773.82L1771.95 260.74C1772.94 259.44 1774.14 257.464 1774.86 256.112ZM1769.25 274.988H1789.74V279.044H1769.25V291.108H1764.52V279.044H1744.34V274.988H1764.52V271.868H1749.18V268.228H1764.52V265.108H1746.63V261.312H1757.08C1756.56 260.012 1755.68 258.192 1754.79 256.84L1757.81 256.112H1744.55V252.264H1752.3C1751.52 250.236 1749.96 247.376 1748.5 245.244L1752.71 243.788C1754.32 246.024 1756.14 249.196 1756.87 251.224L1754.12 252.264H1759.94V243.32H1764.46V252.264H1769.61V243.32H1774.19V252.264H1779.86L1777.83 251.588C1779.08 249.508 1780.69 246.232 1781.47 243.892L1786.46 245.192C1785.06 247.74 1783.5 250.34 1782.14 252.264H1789.58V256.112H1775.96L1780.01 257.152C1778.87 258.712 1777.67 260.116 1776.63 261.312H1787.66V265.108H1769.25V268.228H1785.21V271.868H1769.25V274.988ZM41.028 363.952H24.076C26.052 368.84 28.912 373.104 32.604 376.64C36.244 373.208 39.156 369.048 41.028 363.952ZM18.512 349.392V353.812C18.512 355.58 18.46 357.452 18.356 359.376H28.392C29.276 356.412 30.108 352.824 30.888 349.392H18.512ZM44.044 359.116L47.528 360.572C45.396 368.84 41.652 375.132 36.66 379.916C40.456 382.464 44.928 384.44 50.076 385.584C48.932 386.676 47.476 388.808 46.748 390.212C41.236 388.652 36.556 386.312 32.604 383.244C27.976 386.624 22.568 388.964 16.692 390.68C16.12 389.276 14.82 387.196 13.884 386.156C19.344 384.908 24.44 382.776 28.808 379.76C24.752 375.444 21.632 370.192 19.396 363.952H17.94C16.848 372.376 13.728 381.684 5.408 389.276C4.68 388.028 2.964 386.052 1.924 385.168C12.584 375.496 13.52 362.6 13.52 353.76V349.392H4.784V344.712H37.024C36.036 349.444 34.84 355.112 33.748 359.376H43.108L44.044 359.116ZM77.116 372.324L73.684 373.676C73.528 372.948 73.32 372.168 73.06 371.284C62.556 372.896 60.84 373.364 59.852 373.884C59.592 372.948 58.916 370.868 58.344 369.724C59.54 369.412 60.684 368.164 62.244 366.188C62.972 365.356 64.428 363.432 66.092 360.988C61.36 361.508 60.268 361.82 59.488 362.132C59.228 361.196 58.5 359.116 57.98 357.972C58.864 357.712 59.748 356.672 60.736 355.164C61.776 353.656 65.052 347.884 66.872 342.424L71.24 344.14C69.264 348.664 66.664 353.448 64.012 357.296L68.692 356.88C70.096 354.592 71.5 352.148 72.592 349.704L76.492 352.044C73.32 357.92 69.316 363.848 65.208 368.632L71.968 367.696C71.448 366.136 70.876 364.524 70.356 363.172L73.58 362.236C74.828 365.46 76.44 369.776 77.116 372.324ZM60.164 375.808L63.908 376.64C63.336 380.8 62.348 385.636 61.568 388.756C60.684 388.34 58.916 387.924 57.876 387.716C58.864 384.544 59.696 379.916 60.164 375.808ZM65.52 376.328L68.952 375.548C69.628 378.928 70.2 383.296 70.408 386.208L66.768 387.144C66.664 384.18 66.092 379.76 65.52 376.328ZM85.54 376.224L87.048 379.812C84.032 381.996 80.652 384.232 77.844 386.052L76.232 383.712L73.684 384.648C73.216 382.1 71.968 378.2 70.98 375.184L74.204 374.196C75.088 376.588 76.076 379.604 76.7 381.944C79.196 380.436 82.368 378.356 85.54 376.224ZM77.532 368.84L80.756 366.656C82.784 368.632 85.332 371.492 86.528 373.312L83.148 375.808C82.004 373.988 79.508 370.972 77.532 368.84ZM94.276 379.188L96.772 376.172C99.788 378.148 103.896 381.112 105.872 382.984L103.272 386.468C101.348 384.44 97.292 381.32 94.276 379.188ZM101.244 366.448L104.78 368.892C102.544 371.232 99.892 373.728 97.812 375.392L94.952 373.208C96.98 371.492 99.684 368.528 101.244 366.448ZM84.396 354.072H94.692C95.004 352.72 95.264 351.316 95.472 350.12H85.384C85.02 351.472 84.708 352.824 84.396 354.072ZM97.708 361.196H105.924V365.46H93.132V385.272C93.132 387.508 92.716 388.704 91.208 389.328C89.752 390.056 87.516 390.108 84.448 390.108C84.24 388.912 83.564 387.092 82.992 385.948C85.124 386 87.256 386 87.88 386C88.504 385.948 88.712 385.792 88.712 385.22V365.46H76.076V361.196H93.184C93.444 360.156 93.704 359.012 93.964 357.868H78.624C79.924 353.812 81.64 347.312 82.628 342.372L87.152 342.84C86.892 343.984 86.632 345.128 86.372 346.324H96.564L97.292 346.116L100.62 346.636C99.892 351.056 98.8 356.568 97.708 361.196ZM142.636 351.004H129.948C128.44 352.98 126.776 354.904 124.956 356.672H137.748C139.464 355.06 141.232 352.98 142.636 351.004ZM152.308 368.892V361.144H141.232V368.892H152.308ZM125.58 361.144V368.892H136.5V361.144H125.58ZM132.236 384.804H151.216C156.208 384.804 157.04 383.452 157.664 376.848C158.86 377.628 160.94 378.304 162.24 378.564C161.252 386.832 159.484 389.224 151.32 389.224H132.392C123.604 389.224 120.9 387.612 120.9 381.008V360.364C119.6 361.456 118.3 362.444 117 363.328C116.532 362.288 115.18 359.844 114.4 358.752C120.588 355.008 126.828 348.872 130.364 342.164L134.784 343.776C134.264 344.764 133.64 345.7 133.016 346.688H145.912L146.9 346.428L150.072 348.664C148.252 351.316 145.964 354.176 143.572 356.672H157.092V375.548H152.308V373.52H125.58V381.008C125.58 384.128 126.568 384.804 132.236 384.804ZM197.444 372.428V384.232H216.632V388.652H172.692V384.232H178.88V365.616H183.612V384.232H192.348V356.724H197.444V368.112H211.9V372.428H197.444ZM194.064 341.904L198.432 343.984C198.068 344.556 197.652 345.076 197.236 345.648C203.788 352.98 211.328 356.932 219.076 360.052C217.88 361.092 216.528 362.756 215.956 364.264C208.416 360.728 201.396 356.568 194.532 348.976C188.864 355.372 181.272 360.676 173.472 364.212C172.744 362.964 171.392 361.248 170.144 360.104C179.556 356.412 188.916 349.704 194.064 341.904ZM242.684 380.228L246.22 381.892C242.58 384.7 236.08 387.404 230.724 388.6C230.048 387.56 228.8 385.948 227.812 385.064C233.064 384.284 239.356 382.36 242.684 380.228ZM255.788 382.36L258.908 379.916C263.484 381.58 269.828 384.076 273.312 385.74L270.088 388.548C266.864 386.936 260.52 384.18 255.788 382.36ZM258.544 355.112H243.204C244.244 356.568 245.232 358.492 245.648 359.688L243.308 360.312H257.504L255.632 359.74C256.62 358.44 257.816 356.464 258.544 355.112ZM252.928 373.988H273.416V378.044H252.928V390.108H248.196V378.044H228.02V373.988H248.196V370.868H232.856V367.228H248.196V364.108H230.308V360.312H240.76C240.24 359.012 239.356 357.192 238.472 355.84L241.488 355.112H228.228V351.264H235.976C235.196 349.236 233.636 346.376 232.18 344.244L236.392 342.788C238.004 345.024 239.824 348.196 240.552 350.224L237.796 351.264H243.62V342.32H248.144V351.264H253.292V342.32H257.868V351.264H263.536L261.508 350.588C262.756 348.508 264.368 345.232 265.148 342.892L270.14 344.192C268.736 346.74 267.176 349.34 265.824 351.264H273.26V355.112H259.636L263.692 356.152C262.548 357.712 261.352 359.116 260.312 360.312H271.336V364.108H252.928V367.228H268.892V370.868H252.928V373.988ZM322.348 351.004V347.624H306.54V351.004H322.348ZM322.348 357.712V354.28H306.54V357.712H322.348ZM326.976 344.036V361.3H302.12V344.036H326.976ZM299.104 369.048L293.436 370.816V384.284C293.436 386.676 292.968 387.976 291.616 388.704C290.212 389.484 288.132 389.64 284.856 389.64C284.752 388.496 284.18 386.416 283.556 385.168C285.636 385.22 287.56 385.22 288.132 385.22C288.756 385.22 289.016 385.012 289.016 384.284V372.22L283.556 373.884L282.464 369.204C284.284 368.736 286.572 368.112 289.016 367.436V356.984H282.984V352.512H289.016V342.476H293.436V352.512H298.948V356.984H293.436V366.136L298.428 364.68L299.104 369.048ZM316.68 377.68V384.908C318.084 385.116 319.54 385.168 321.048 385.168C322.504 385.168 329.212 385.168 331.188 385.116C330.616 386.156 329.992 388.184 329.836 389.38H320.892C313.664 389.38 308.256 388.08 304.876 381.216C303.472 384.856 301.548 387.82 299 390.108C298.272 389.328 296.452 387.82 295.412 387.196C299.884 383.608 302.12 377.784 302.952 370.452L307.32 370.972C307.06 372.896 306.748 374.716 306.332 376.432C307.684 380.176 309.66 382.412 312.156 383.608V368.424H299.676V364.472H329.732V368.424H316.68V373.832H327.08V377.68H316.68ZM350.532 342.476L355.056 343.932C353.652 347.572 351.884 351.316 349.908 354.748V390.056H345.176V362.184C343.772 364.108 342.316 365.876 340.86 367.436C340.392 366.24 338.988 363.64 338.208 362.496C343.096 357.66 347.724 350.12 350.532 342.476ZM362.024 376.536L366.6 377.992C364.052 382.516 360.048 387.04 356.512 389.952C355.628 389.068 353.756 387.612 352.664 386.884C356.304 384.336 359.84 380.384 362.024 376.536ZM373.516 378.772L377.416 376.64C380.796 379.968 384.54 384.44 386.36 387.508L382.304 390.108C380.588 386.936 376.896 382.204 373.516 378.772ZM365.56 357.608V369.308H374.504V357.608H365.56ZM379.236 369.308H386.828V374.04H353.34V369.308H360.828V357.608H354.588V352.98H360.828V342.892H365.56V352.98H374.504V342.788H379.236V352.98H386.308V357.608H379.236V369.308ZM410.748 381.268L411.424 381.684C414.648 383.764 419.016 384.128 424.684 384.128C430.352 384.128 438.1 383.712 443.092 383.088C442.52 384.388 441.792 386.936 441.688 388.288C437.892 388.548 429.52 388.808 424.476 388.808C418.184 388.808 414.076 388.184 410.54 386.052C408.408 384.7 406.744 382.984 405.6 382.984C403.988 382.984 401.596 386.208 399.308 389.588L395.772 385.064C399.308 381.216 402.948 378.408 405.756 378.408C405.964 378.408 406.12 378.408 406.328 378.46C415.272 373.208 424.788 364.524 430.508 357.088H398.372V352.356H419.432C418.184 350.068 416.052 346.74 414.284 344.296L418.6 342.008C420.576 344.608 423.124 348.196 424.32 350.38L420.888 352.356H434.2L435.136 352.096L438.828 354.488C432.432 364.108 421.252 374.612 410.748 381.268ZM460.876 342.58L465.4 343.828C464.36 347.052 463.112 350.328 461.76 353.5V390.108H457.132V362.548C455.832 364.68 454.584 366.552 453.232 368.216C452.816 367.072 451.516 364.368 450.736 363.12C454.896 358.076 458.64 350.328 460.876 342.58ZM475.592 379.24L475.124 379.656C476.892 380.852 479.024 381.944 481.364 382.88C484.068 381.788 486.252 380.54 487.916 379.24H475.592ZM491.764 376.016L494.78 377.68C493.012 380.384 490.256 382.62 486.668 384.492C490.412 385.48 494.52 386.104 498.94 386.468C498.108 387.352 497.068 389.016 496.548 390.16C490.984 389.536 485.836 388.444 481.364 386.78C476.996 388.34 471.848 389.484 465.92 390.264C465.504 389.172 464.464 387.716 463.58 386.728C468.312 386.208 472.576 385.48 476.216 384.492C474.708 383.66 473.252 382.828 471.952 381.788C470.496 382.724 468.832 383.556 467.064 384.388C466.44 383.452 465.244 382.204 464.308 381.58C466.024 380.852 467.688 380.124 469.144 379.292C468.416 378.564 467.844 377.784 467.22 377.056L470.808 375.704C471.276 376.276 471.744 376.796 472.264 377.316C473.824 376.172 475.176 375.08 476.216 373.884C474.864 373.364 474.448 372.376 474.448 370.4V369.672C473.2 371.492 471.536 373.572 469.508 374.872L466.752 372.688C468.78 371.492 470.704 369.36 471.9 367.54L474.448 368.892V367.644H478.348V370.4C478.348 371.388 478.66 371.544 480.22 371.544H485.784C486.928 371.544 487.188 371.232 487.344 369.516C488.02 369.932 489.372 370.296 490.36 370.504C489.788 369.984 489.216 369.412 488.748 368.944L491.348 367.384C493.376 369.1 495.872 371.596 497.016 373.26L494.364 375.08C493.532 373.832 492.024 372.168 490.516 370.608C490.204 373.416 489.112 374.3 486.304 374.3H480.74C480.272 374.976 479.648 375.6 479.024 376.224H490.984L491.764 376.016ZM473.928 361.404V363.38H489.944V361.404H473.928ZM489.944 353.032H473.928V354.956H489.944V353.032ZM489.944 359.168V357.14H473.928V359.168H489.944ZM494.468 363.38H499.096V370.452H494.78V366.24H482.404C483.808 367.228 485.368 368.372 486.2 369.256L483.444 370.972C482.508 369.932 480.532 368.32 478.92 367.28L480.636 366.24H468.832V370.504H464.672V363.38H469.612V350.432H478.4C478.608 349.652 478.764 348.924 478.92 348.144H466.076V344.556H498.212V348.144H484.016L483.08 350.432H494.468V363.38ZM545.012 355.008H533.572V357.92H545.012V355.008ZM545.012 363.796V360.832H533.572V363.796H545.012ZM533.572 370.4L541.944 370.296C540.748 369.62 539.604 369.048 538.46 368.58L540.852 366.812H533.572V370.4ZM517.244 363.796H528.58V360.832H517.244V363.796ZM517.244 355.008V357.92H528.58V355.008H517.244ZM528.58 351.992V349.08H509.392V345.232H528.58V342.424H533.572V345.232H553.384V349.08H533.572V351.992H549.796V366.812H543.088C547.092 368.788 551.46 371.648 553.748 373.884L550.472 376.536C549.692 375.704 548.6 374.872 547.508 373.936C541.684 374.092 535.704 374.196 530.036 374.3C533 375.86 536.38 378.148 538.096 379.968L534.82 382.828C533.156 380.956 529.62 378.356 526.604 376.692L529.464 374.3C521.976 374.456 515.008 374.508 509.652 374.56L509.444 370.452C514.488 370.504 521.248 370.452 528.58 370.4V366.812H512.668V351.992H528.58ZM512.148 388.6L507.988 386.26C510.068 383.816 511.836 379.968 512.824 376.796L516.984 378.512C515.892 381.788 514.228 385.948 512.148 388.6ZM527.54 385.376H537.784C540.228 385.376 540.696 384.752 540.956 380.488C541.996 381.216 543.92 381.84 545.168 382.1C544.544 387.976 543.14 389.38 538.2 389.38H527.176C520.728 389.38 519.064 388.184 519.064 383.816V377.108H523.848V383.764C523.848 385.168 524.42 385.376 527.54 385.376ZM544.232 378.356L548.392 376.952C550.836 379.968 553.332 384.076 554.216 386.832L549.796 388.392C548.964 385.688 546.572 381.528 544.232 378.356ZM579.852 348.924L587.964 348.456C587.132 346.584 586.56 344.556 586.3 342.372H590.772C591.032 344.504 591.76 346.428 592.748 348.144L602.992 347.572C600.86 346.532 597.636 345.388 594.932 344.712L597.168 342.268C600.132 342.84 604.084 344.14 606.216 345.284L604.292 347.468L609.856 347.156L610.22 350.796L595.504 351.732C598.364 354.592 602.004 356.308 605.176 356.256C606.632 356.256 606.944 355.32 607.152 352.512C608.14 353.292 609.648 353.916 610.844 354.228C610.168 359.324 608.66 360.468 605.02 360.468C599.508 360.468 593.684 357.296 589.992 352.044L580.216 352.668L579.852 348.924ZM575.692 375.6V378.616H600.132V375.6H575.692ZM575.692 369.672V372.636H600.132V369.672H575.692ZM575.692 363.848V366.76H600.132V363.848H575.692ZM571.012 381.684V360.78H604.968V381.684H571.012ZM573.248 359.376V352.148C571.116 353.656 568.88 354.956 566.8 356.048C566.02 355.112 564.356 353.396 563.316 352.564C568.88 350.172 574.808 346.22 578.292 342.06L582.66 343.672C581.308 345.388 579.644 347 577.876 348.56V359.376H573.248ZM579.488 381.788L583.908 383.816C579.696 386.364 573.196 388.86 567.996 390.264C567.164 389.328 565.448 387.508 564.356 386.676C569.712 385.636 575.9 383.816 579.488 381.788ZM591.344 384.336L595.296 381.892C600.86 383.764 607.1 386.156 610.844 387.924L605.28 390.212C602.212 388.548 596.752 386.208 591.344 384.336ZM642.824 361.872V362.86C645.84 357.712 647.556 350.172 648.492 342.476L653.224 343.1C652.808 346.064 652.288 348.976 651.664 351.732H663.364L664.092 351.524L667.368 352.512C666.432 357.348 664.924 362.912 663.572 366.448L659.62 365.304C660.452 362.912 661.336 359.48 661.96 356.1H650.572C649.376 360.156 647.972 363.692 646.256 366.552C645.528 365.876 643.916 364.784 642.824 364.056V365.824H622.18V361.872H642.824ZM630.188 354.644V350.952H620.516V347H630.188V342.684H634.712V347H644.384V350.952H634.712V354.644H643.344V358.596H621.712V354.644H630.188ZM623.74 374.56L627.744 375.548C626.496 379.396 624.728 383.712 623.168 386.572C622.284 386 620.464 385.168 619.372 384.804C621.088 382.1 622.7 378.096 623.74 374.56ZM644.904 373.156H634.816V390.056H630.24V373.156H619.84V369.152H644.904V373.156ZM637.104 375.964L640.744 374.508C642.148 377.056 643.76 380.488 644.488 382.516L640.588 384.284C639.964 382.1 638.456 378.616 637.104 375.964ZM657.02 359.74V362.288C657.02 363.796 656.968 365.408 656.864 367.228C658.58 375.548 662.22 382.776 668.2 385.948C667.108 386.936 665.652 388.756 664.924 390.004C660.4 387.196 657.28 382.36 655.2 376.328C653.692 381.112 651.092 386 646.412 390.212C645.58 389.172 643.916 387.612 642.72 386.936C651.664 379.084 652.444 368.944 652.444 362.132V359.74H657.02ZM700.076 358.18C704.6 358.18 708.188 361.82 708.188 366.292C708.188 370.764 704.6 374.404 700.076 374.404C695.604 374.404 691.964 370.764 691.964 366.292C691.964 361.82 695.604 358.18 700.076 358.18ZM700.076 371.284C702.832 371.284 705.068 369.048 705.068 366.292C705.068 363.536 702.832 361.3 700.076 361.3C697.372 361.3 695.084 363.536 695.084 366.292C695.084 369.048 697.372 371.284 700.076 371.284Z" fill="#594A39"/>
</svg>
