<svg width="2560" height="1440" viewBox="0 0 2560 1440" fill="none" xmlns="http://www.w3.org/2000/svg">
<g clip-path="url(#clip0_1880_122)">
<path opacity="0.97" d="M1980.5 1077.72H576.354C515.703 1077.72 466.535 1126.89 466.535 1187.54V1245.27C466.535 1305.93 515.703 1355.09 576.354 1355.09H1980.5C2041.15 1355.09 2090.32 1305.93 2090.32 1245.27V1187.54C2090.32 1126.89 2041.15 1077.72 1980.5 1077.72Z" fill="url(#paint0_linear_1880_122)"/>
<path opacity="0.97" d="M987.227 1088.76H1908.98C1932.18 1088.76 1955.36 1088.76 1978.56 1088.76C1992.5 1088.77 2006.26 1091.93 2018.81 1098C2031.36 1104.06 2042.39 1112.88 2051.06 1123.8C2065.21 1141.49 2073.02 1163.42 2073.23 1186.08C2073.39 1198.46 2073.23 1210.85 2073.23 1223.22C2073.23 1237.08 2073.94 1251.21 2071.41 1264.92C2067.08 1286.81 2055.65 1306.66 2038.9 1321.4C2022.17 1336.1 2000.63 1344.16 1978.35 1344.05H608.223C589.973 1344.05 569.967 1345.76 552.629 1340.79C510.86 1328.81 483.987 1287.77 483.668 1245.34C483.668 1232.16 483.668 1218.95 483.668 1205.74C483.668 1191.23 482.96 1176.45 486.724 1162.4C497.515 1121.72 533.444 1089.28 576.172 1088.87C582.65 1088.87 593.167 1086.3 593.486 1078.15C593.806 1070.01 582.673 1066.75 576.582 1066.75C526.6 1067.25 478.649 1094.58 458.756 1141.62C445.708 1172.41 449.449 1207.59 449.449 1240.26C449.449 1283.6 469.524 1323.93 507.187 1346.83C528.929 1359.74 553.811 1366.39 579.092 1366.07H1978.65C2010.34 1366.07 2040.59 1356.21 2065.04 1335.82C2083.11 1320.75 2096.25 1300.61 2102.77 1278.01C2107.15 1262.25 2107.34 1246.71 2107.34 1230.56C2107.34 1194.72 2109.91 1159.02 2090.34 1127.02C2066.96 1088.83 2024.82 1066.97 1980.36 1066.63C1974.43 1066.63 1968.48 1066.63 1962.55 1066.63H987.638C981.159 1066.63 970.642 1069.26 970.323 1077.35C970.004 1085.45 981.159 1088.76 987.227 1088.76Z" fill="#E5EAAF"/>
<path d="M765.217 1121.61L626.746 1119.9C615.402 1119.88 604.398 1116.03 595.516 1108.97C578.635 1095.28 581.578 1078.75 581.578 1078.75C581.578 1055.07 597.843 1035.88 621.522 1035.88L762.958 1036.34C786.615 1036.34 808.127 1055.07 808.127 1078.75C808.081 1078.75 816.339 1115.97 765.217 1121.61Z" fill="#584938"/>
<path d="M766.426 1119.15L734.831 1118.74L672.896 1117.98L629.963 1117.46C619.972 1117.53 610.219 1114.42 602.109 1108.58C592.596 1101.54 586.323 1090.61 587.144 1078.61C587.3 1072.9 588.291 1067.24 590.087 1061.82C592.374 1055.55 596.212 1049.96 601.242 1045.58C607.029 1040.68 614.427 1038.11 622.001 1038.37L663.702 1038.48L726.049 1038.69C737.865 1038.69 749.659 1038.69 761.476 1038.69C767.504 1038.85 773.428 1040.3 778.852 1042.94C784.277 1045.58 789.077 1049.34 792.934 1053.97C797.605 1059.41 800.704 1066.02 801.9 1073.09C802.333 1075.69 802.333 1078.31 802.675 1080.91C803.533 1087.79 802.155 1094.75 798.744 1100.78C795.334 1106.81 790.073 1111.57 783.741 1114.38C777.757 1116.94 771.405 1118.54 764.921 1119.12C763.529 1119.28 759.286 1120.1 759.56 1122.2C759.834 1124.3 764.282 1123.98 765.514 1123.85C779.064 1122.29 793.824 1118.51 803.861 1108.68C809.544 1103.07 813.121 1095.67 813.99 1087.73C814.256 1083.53 814.134 1079.32 813.625 1075.14C812.553 1060.04 802.561 1046.9 789.421 1039.9C775.734 1032.55 760.221 1033.74 745.142 1033.69L683.754 1033.49L630.123 1033.33C625.465 1033.16 620.802 1033.29 616.162 1033.71C608.78 1034.45 601.696 1037.01 595.545 1041.16C589.395 1045.31 584.368 1050.92 580.916 1057.48C577.763 1064.21 576.061 1071.52 575.921 1078.95C575.66 1082 575.775 1085.06 576.263 1088.08C579.411 1104.57 594.513 1116.2 609.957 1120.33C616.763 1121.88 623.736 1122.59 630.716 1122.43L651.475 1122.68L715.35 1123.48L761.681 1124.05H764.1C765.879 1124.05 770.122 1123.59 770.943 1121.52C771.764 1119.44 767.658 1119.15 766.426 1119.15Z" fill="#B8C318"/>
<path d="M625.925 1089.12C625.624 1088.86 625.437 1088.5 625.403 1088.1C625.369 1087.7 625.491 1087.31 625.742 1087C628.972 1081.75 631.149 1075.91 632.152 1069.83C632.178 1069.42 632.297 1069.03 632.5 1068.69C632.702 1068.34 632.982 1068.04 633.318 1067.82C633.654 1067.6 634.037 1067.46 634.436 1067.41C634.836 1067.36 635.241 1067.41 635.62 1067.54C636.002 1067.59 636.368 1067.73 636.691 1067.94C637.014 1068.15 637.286 1068.42 637.488 1068.75C637.689 1069.08 637.814 1069.45 637.854 1069.83C637.894 1070.22 637.848 1070.6 637.719 1070.97C636.169 1077.7 632.836 1083.89 628.069 1088.9C627.339 1089.58 626.518 1089.72 625.925 1089.12ZM633.225 1093.96C633.43 1093.23 633.932 1092.89 634.935 1093.03C641.779 1093.82 642.509 1093.32 642.509 1090.95V1060.24C642.509 1058.42 643.513 1057.51 645.384 1057.51C647.254 1057.51 648.303 1058.42 648.303 1060.24V1092.18C648.303 1097.31 643.467 1099.5 634.114 1095.65C633.943 1095.6 633.783 1095.52 633.645 1095.4C633.507 1095.29 633.393 1095.15 633.31 1094.99C633.227 1094.84 633.176 1094.66 633.162 1094.49C633.147 1094.31 633.168 1094.13 633.225 1093.96ZM658.318 1086.41C656.778 1080.65 654.865 1075 652.592 1069.48C652.38 1069.12 652.32 1068.69 652.425 1068.29C652.53 1067.89 652.791 1067.54 653.151 1067.33C653.511 1067.12 653.94 1067.06 654.345 1067.16C654.749 1067.27 655.095 1067.53 655.307 1067.89C658.931 1072.95 661.898 1078.45 664.135 1084.27C664.357 1084.65 664.484 1085.09 664.508 1085.53C664.531 1085.98 664.45 1086.42 664.27 1086.83C664.09 1087.24 663.817 1087.6 663.473 1087.88C663.129 1088.17 662.723 1088.37 662.287 1088.46C661.893 1088.7 661.446 1088.83 660.988 1088.85C660.529 1088.87 660.072 1088.77 659.661 1088.57C659.25 1088.36 658.897 1088.06 658.634 1087.68C658.371 1087.3 658.208 1086.87 658.158 1086.41H658.318Z" fill="#FDFDFB"/>
<path d="M711.289 1076.35C711.08 1076.68 710.796 1076.95 710.462 1077.15C710.127 1077.35 709.75 1077.47 709.362 1077.49C708.974 1077.52 708.584 1077.46 708.226 1077.31C707.867 1077.15 707.549 1076.92 707.297 1076.62C707.449 1077 707.526 1077.4 707.525 1077.81C707.525 1082.97 707.137 1088.81 706.658 1093.12C706.179 1097.43 702.415 1098.87 696.142 1095.83C695.97 1095.77 695.813 1095.68 695.679 1095.56C695.545 1095.44 695.437 1095.29 695.362 1095.13C695.287 1094.96 695.247 1094.78 695.244 1094.6C695.241 1094.42 695.274 1094.24 695.343 1094.08C695.387 1093.91 695.463 1093.76 695.568 1093.63C695.672 1093.5 695.803 1093.4 695.951 1093.32C696.098 1093.24 696.261 1093.2 696.427 1093.19C696.593 1093.17 696.76 1093.2 696.917 1093.25C701.001 1094.03 701.48 1093.64 701.799 1091.59C702.164 1088.24 702.415 1082.97 702.415 1078.84C702.419 1078.77 702.407 1078.7 702.382 1078.64C702.356 1078.57 702.318 1078.51 702.268 1078.47C702.218 1078.42 702.158 1078.38 702.093 1078.36C702.028 1078.34 701.959 1078.33 701.89 1078.33H698.674C698.126 1086.52 695.069 1094.17 687.884 1097.41C687.581 1097.6 687.214 1097.67 686.863 1097.59C686.512 1097.51 686.207 1097.3 686.013 1097C685.819 1096.69 685.754 1096.33 685.831 1095.97C685.908 1095.62 686.121 1095.32 686.424 1095.12C690.986 1091.29 693.267 1086.3 693.541 1078.31H692.127C691.915 1078.34 691.7 1078.31 691.499 1078.24C691.297 1078.18 691.113 1078.06 690.96 1077.92C690.807 1077.77 690.689 1077.59 690.615 1077.39C690.541 1077.19 690.511 1076.97 690.53 1076.76C690.102 1077.25 689.645 1077.7 689.161 1078.13C688.431 1078.68 687.792 1078.72 687.268 1078.13C687.141 1078.02 687.04 1077.88 686.971 1077.73C686.902 1077.57 686.866 1077.41 686.866 1077.24C686.866 1077.07 686.902 1076.91 686.971 1076.75C687.04 1076.6 687.141 1076.46 687.268 1076.35C687.535 1075.98 687.779 1075.59 687.998 1075.19C687.75 1075.31 687.475 1075.36 687.199 1075.35H684.097V1076.81C686.074 1078.5 687.822 1080.45 689.298 1082.6C689.502 1082.82 689.653 1083.08 689.741 1083.36C689.829 1083.64 689.851 1083.94 689.804 1084.24C689.758 1084.53 689.645 1084.81 689.474 1085.05C689.303 1085.29 689.079 1085.49 688.819 1085.63C688.581 1085.85 688.292 1086 687.98 1086.07C687.667 1086.14 687.342 1086.12 687.036 1086.03C686.73 1085.93 686.454 1085.76 686.235 1085.53C686.015 1085.3 685.86 1085.01 685.785 1084.7C685.26 1083.47 684.713 1082.17 684.097 1080.98V1095.51C684.097 1096.97 683.207 1097.79 681.564 1097.79C679.922 1097.79 679.078 1097.02 679.078 1095.51V1084.11C678.126 1086.56 676.734 1088.83 674.972 1090.79C674.333 1091.47 673.717 1091.52 673.215 1091.06C673.08 1090.97 672.968 1090.84 672.884 1090.7C672.801 1090.55 672.749 1090.39 672.732 1090.23C672.715 1090.06 672.733 1089.89 672.784 1089.74C672.836 1089.58 672.921 1089.43 673.033 1089.31C675.577 1085.03 677.324 1080.34 678.188 1075.44H674.88C674.674 1075.46 674.466 1075.43 674.271 1075.37C674.076 1075.3 673.899 1075.18 673.752 1075.04C673.606 1074.89 673.494 1074.71 673.425 1074.52C673.355 1074.32 673.331 1074.12 673.352 1073.91C673.333 1073.71 673.36 1073.5 673.431 1073.31C673.502 1073.12 673.615 1072.95 673.762 1072.81C673.909 1072.67 674.086 1072.56 674.28 1072.5C674.474 1072.44 674.679 1072.42 674.88 1072.45H679.078V1060.02C679.078 1058.51 679.945 1057.74 681.564 1057.74C683.184 1057.74 684.097 1058.51 684.097 1060.02V1072.45H687.199C687.399 1072.42 687.603 1072.44 687.795 1072.5C687.987 1072.56 688.162 1072.67 688.306 1072.81C688.45 1072.95 688.558 1073.12 688.624 1073.31C688.689 1073.51 688.709 1073.71 688.682 1073.91C690.064 1070.88 690.965 1067.66 691.351 1064.35C691.366 1064.01 691.458 1063.68 691.62 1063.38C691.782 1063.07 692.009 1062.81 692.285 1062.61C692.561 1062.41 692.878 1062.27 693.214 1062.21C693.55 1062.15 693.896 1062.16 694.225 1062.25C695.822 1062.5 696.507 1063.53 696.119 1065.22C695.455 1068.9 693.94 1072.38 691.693 1075.37C691.867 1075.35 692.044 1075.35 692.218 1075.37H705.152C705.552 1075.36 705.949 1075.44 706.316 1075.6C703.463 1071.71 701.807 1067.07 701.548 1062.25C701.555 1062.18 701.547 1062.12 701.525 1062.05C701.502 1061.99 701.465 1061.93 701.417 1061.88C701.369 1061.83 701.311 1061.8 701.246 1061.77C701.182 1061.75 701.114 1061.74 701.046 1061.75H695.982C695.767 1061.78 695.549 1061.75 695.344 1061.68C695.139 1061.61 694.954 1061.49 694.802 1061.34C694.65 1061.19 694.535 1061 694.467 1060.79C694.398 1060.59 694.378 1060.37 694.408 1060.15C694.386 1059.94 694.413 1059.73 694.484 1059.53C694.556 1059.33 694.671 1059.14 694.822 1058.99C694.972 1058.84 695.154 1058.73 695.355 1058.66C695.556 1058.58 695.77 1058.56 695.982 1058.58H701.502C702.17 1058.52 702.833 1058.73 703.349 1059.16C703.865 1059.58 704.193 1060.19 704.263 1060.86C705.036 1065.42 707.366 1069.57 710.856 1072.61C711.145 1072.81 711.389 1073.08 711.569 1073.38C711.75 1073.69 711.865 1074.03 711.906 1074.38C711.947 1074.74 711.913 1075.09 711.807 1075.43C711.7 1075.77 711.524 1076.08 711.289 1076.35ZM673.557 1062.66C673.489 1062.51 673.453 1062.35 673.454 1062.19C673.454 1062.03 673.49 1061.86 673.56 1061.72C673.63 1061.57 673.731 1061.44 673.857 1061.33C673.982 1061.23 674.129 1061.15 674.287 1061.11C674.926 1060.86 675.474 1061.11 675.907 1061.84C677.22 1064.03 678.147 1066.43 678.645 1068.94C678.724 1069.19 678.746 1069.45 678.709 1069.72C678.672 1069.98 678.576 1070.23 678.429 1070.44C678.283 1070.66 678.088 1070.85 677.861 1070.98C677.634 1071.11 677.379 1071.2 677.116 1071.22C675.816 1071.47 675.017 1070.99 674.835 1069.53C674.447 1067.23 674.128 1064.76 673.557 1062.53V1062.66ZM684.302 1069.51C684.983 1067.33 685.472 1065.09 685.762 1062.82C685.774 1062.52 685.856 1062.23 686.001 1061.97C686.145 1061.71 686.348 1061.49 686.594 1061.32C686.84 1061.15 687.121 1061.04 687.417 1061C687.712 1060.96 688.012 1060.99 688.294 1061.09C689.686 1061.43 690.051 1062.43 689.64 1063.89C688.926 1066.27 687.865 1068.52 686.492 1070.58C686.427 1070.72 686.333 1070.85 686.217 1070.95C686.101 1071.05 685.964 1071.13 685.816 1071.18C685.668 1071.22 685.511 1071.24 685.357 1071.22C685.202 1071.21 685.053 1071.16 684.918 1071.08C684.773 1071.02 684.643 1070.93 684.533 1070.82C684.424 1070.7 684.338 1070.57 684.28 1070.42C684.223 1070.28 684.196 1070.12 684.199 1069.96C684.203 1069.81 684.238 1069.65 684.302 1069.51Z" fill="#FDFDFB"/>
<path d="M728.375 1067.68C730.201 1072.91 731.044 1078.43 730.862 1083.97C730.862 1091.27 729.402 1097.36 725.501 1097.36C724.471 1097.38 723.45 1097.17 722.513 1096.74C721.577 1096.3 720.75 1095.67 720.095 1094.87C719.839 1094.63 719.678 1094.31 719.641 1093.97C719.603 1093.62 719.691 1093.27 719.889 1092.98C720.323 1092.41 720.916 1092.34 721.691 1092.73C722.509 1093.2 723.44 1093.44 724.383 1093.41C726.322 1093.14 726.847 1089.08 726.665 1082.6C725.416 1084.49 723.812 1086.12 721.942 1087.39C721.827 1087.52 721.685 1087.63 721.525 1087.7C721.366 1087.77 721.193 1087.81 721.018 1087.81C720.844 1087.81 720.671 1087.77 720.512 1087.7C720.352 1087.63 720.21 1087.52 720.095 1087.39C719.873 1087.12 719.765 1086.77 719.79 1086.42C719.815 1086.07 719.973 1085.74 720.231 1085.5C722.781 1082.6 724.811 1079.28 726.231 1075.69C726.076 1074.15 725.809 1072.63 725.433 1071.13C724.22 1072.29 722.899 1073.32 721.486 1074.23C721.362 1074.34 721.214 1074.43 721.052 1074.48C720.89 1074.53 720.72 1074.54 720.553 1074.51C720.386 1074.49 720.227 1074.42 720.089 1074.33C719.95 1074.23 719.835 1074.1 719.752 1073.95C719.553 1073.68 719.469 1073.33 719.521 1073C719.572 1072.66 719.753 1072.36 720.026 1072.15C721.584 1070.66 722.948 1068.97 724.087 1067.13C723.088 1064.93 721.897 1062.83 720.528 1060.84C720.287 1060.59 720.152 1060.26 720.152 1059.91C720.152 1059.57 720.287 1059.24 720.528 1058.99C721.053 1058.44 721.646 1058.44 722.33 1058.99C723.747 1060.23 724.99 1061.66 726.026 1063.23C726.528 1062.12 727.007 1060.95 727.44 1059.58C727.507 1059.24 727.651 1058.92 727.862 1058.64C728.072 1058.37 728.342 1058.14 728.652 1057.99C728.963 1057.83 729.304 1057.75 729.652 1057.74C729.999 1057.74 730.343 1057.81 730.657 1057.96C732.139 1058.49 732.573 1059.77 731.775 1061.57C730.901 1063.74 729.759 1065.79 728.375 1067.68ZM741.629 1082.76V1094.6C741.629 1095.72 740.945 1096.27 739.827 1096.27C738.709 1096.27 738.025 1095.67 738.025 1094.6V1093.19H735.881V1095.47C735.881 1096.01 735.667 1096.52 735.286 1096.9C734.905 1097.28 734.389 1097.5 733.85 1097.5C733.312 1097.5 732.796 1097.28 732.415 1096.9C732.034 1096.52 731.82 1096.01 731.82 1095.47V1066.61C731.781 1066.27 731.818 1065.93 731.929 1065.61C732.039 1065.29 732.22 1064.99 732.459 1064.75C732.697 1064.51 732.987 1064.32 733.306 1064.2C733.626 1064.09 733.968 1064.04 734.307 1064.08H735.037C735.196 1062.66 735.288 1061.27 735.333 1059.74C735.302 1059.42 735.35 1059.09 735.473 1058.79C735.597 1058.49 735.792 1058.23 736.042 1058.02C736.292 1057.81 736.589 1057.67 736.907 1057.61C737.225 1057.54 737.554 1057.55 737.865 1057.64C739.348 1057.85 739.964 1059.06 739.234 1060.81C738.867 1061.94 738.409 1063.03 737.865 1064.08H738.983C739.322 1064.04 739.664 1064.09 739.983 1064.2C740.303 1064.32 740.593 1064.51 740.831 1064.75C741.07 1064.99 741.251 1065.29 741.361 1065.61C741.472 1065.93 741.509 1066.27 741.47 1066.61V1074.14C741.509 1074.48 741.472 1074.82 741.361 1075.14C741.251 1075.46 741.07 1075.75 740.831 1076C740.593 1076.24 740.303 1076.43 739.983 1076.54C739.664 1076.66 739.322 1076.7 738.983 1076.67H735.881V1080.23H739.097C739.439 1080.19 739.786 1080.23 740.112 1080.34C740.438 1080.45 740.733 1080.64 740.977 1080.88C741.221 1081.12 741.406 1081.42 741.519 1081.75C741.632 1082.07 741.67 1082.42 741.629 1082.76ZM737.82 1067.64C737.827 1067.57 737.82 1067.51 737.798 1067.44C737.777 1067.38 737.742 1067.33 737.696 1067.28C737.65 1067.23 737.594 1067.2 737.532 1067.18C737.471 1067.16 737.405 1067.15 737.341 1067.16H736.36C736.295 1067.15 736.23 1067.16 736.168 1067.18C736.107 1067.2 736.051 1067.23 736.005 1067.28C735.959 1067.33 735.924 1067.38 735.902 1067.44C735.881 1067.51 735.873 1067.57 735.881 1067.64V1073.77H737.341C737.405 1073.78 737.468 1073.77 737.528 1073.74C737.587 1073.72 737.642 1073.68 737.687 1073.64C737.732 1073.59 737.767 1073.54 737.79 1073.48C737.813 1073.42 737.823 1073.36 737.82 1073.29V1067.64ZM738.025 1090.27V1083.67C738.028 1083.61 738.019 1083.55 737.997 1083.49C737.976 1083.43 737.942 1083.38 737.9 1083.34C737.857 1083.29 737.806 1083.25 737.749 1083.23C737.692 1083.21 737.631 1083.19 737.569 1083.19H735.881V1090.27H738.025ZM752.214 1062.39V1067.41H754.678C755.013 1067.38 755.35 1067.42 755.666 1067.53C755.982 1067.65 756.269 1067.83 756.507 1068.07C756.744 1068.3 756.926 1068.59 757.04 1068.91C757.154 1069.22 757.196 1069.56 757.165 1069.89V1087.92C757.165 1091 754.883 1092.11 751.872 1091.09V1095.81C751.872 1096.37 751.651 1096.9 751.257 1097.29C750.864 1097.69 750.33 1097.91 749.773 1097.91C749.217 1097.91 748.683 1097.69 748.289 1097.29C747.896 1096.9 747.675 1096.37 747.675 1095.81V1070.37H746.694C746.629 1070.37 746.564 1070.37 746.502 1070.4C746.441 1070.42 746.385 1070.45 746.339 1070.5C746.293 1070.54 746.258 1070.6 746.236 1070.66C746.215 1070.72 746.207 1070.79 746.215 1070.85V1090.88C746.215 1091.95 745.576 1092.55 744.413 1092.55C744.18 1092.58 743.942 1092.56 743.717 1092.49C743.492 1092.42 743.285 1092.31 743.112 1092.15C742.939 1091.99 742.805 1091.79 742.718 1091.57C742.631 1091.35 742.594 1091.12 742.61 1090.88V1069.89C742.579 1069.56 742.621 1069.22 742.735 1068.91C742.849 1068.59 743.031 1068.3 743.268 1068.07C743.506 1067.83 743.793 1067.65 744.109 1067.53C744.425 1067.42 744.762 1067.38 745.097 1067.41H747.378V1062.39H742.816C742.618 1062.41 742.418 1062.39 742.229 1062.33C742.04 1062.27 741.867 1062.16 741.723 1062.03C741.579 1061.89 741.467 1061.72 741.396 1061.54C741.324 1061.35 741.295 1061.15 741.31 1060.95C741.288 1060.75 741.313 1060.54 741.381 1060.35C741.449 1060.16 741.559 1059.98 741.703 1059.84C741.848 1059.7 742.022 1059.58 742.215 1059.52C742.407 1059.45 742.613 1059.42 742.816 1059.45H757.005C757.208 1059.42 757.413 1059.45 757.606 1059.52C757.798 1059.58 757.973 1059.7 758.117 1059.84C758.262 1059.98 758.372 1060.16 758.44 1060.35C758.508 1060.54 758.532 1060.75 758.511 1060.95C758.53 1061.15 758.504 1061.35 758.434 1061.54C758.364 1061.73 758.252 1061.9 758.107 1062.04C757.962 1062.17 757.788 1062.28 757.597 1062.34C757.406 1062.4 757.203 1062.42 757.005 1062.39H752.214ZM751.872 1070.37V1088.51C753.127 1088.51 753.469 1088.35 753.469 1087.44V1070.85C753.472 1070.79 753.462 1070.72 753.439 1070.67C753.416 1070.61 753.381 1070.55 753.336 1070.51C753.291 1070.46 753.237 1070.43 753.177 1070.4C753.118 1070.38 753.054 1070.37 752.99 1070.37H751.872Z" fill="#FDFDFB"/>
<g opacity="0.97">
<path d="M845.63 1110.98C843.191 1110.41 841.023 1109.02 839.494 1107.03C837.85 1104.85 836.578 1102.42 835.729 1099.82C835.667 1098.68 835.667 1097.54 835.729 1096.4C835.729 1094.94 835.844 1093.57 835.958 1092.3C835.975 1091.52 836.106 1090.75 836.345 1090.01C836.528 1090.01 836.619 1089.51 836.619 1088.87C836.588 1088.44 836.642 1088.01 836.779 1087.6C836.939 1086.98 837.098 1086.36 837.304 1085.73C837.581 1085.15 837.743 1084.52 837.783 1083.88C837.791 1083.51 837.753 1083.14 837.669 1082.78C837.908 1082.2 838.231 1081.65 838.627 1081.16C838.831 1080.93 838.981 1080.65 839.064 1080.35C839.147 1080.05 839.161 1079.74 839.106 1079.43C839.058 1079.07 839.122 1078.7 839.288 1078.38C839.445 1078.02 839.644 1077.67 839.881 1077.35C840.197 1076.9 840.479 1076.42 840.725 1075.92C840.807 1075.39 840.952 1074.88 841.159 1074.39C841.455 1073.57 841.775 1072.65 842.163 1071.67C842.55 1070.69 842.893 1069.78 843.258 1068.96C843.471 1068.39 843.739 1067.85 844.056 1067.34V1067.22C844.348 1066.53 844.699 1065.87 845.105 1065.24C845.237 1064.71 845.397 1064.18 845.584 1063.67C845.836 1062.94 846.125 1062.22 846.451 1061.52C847.136 1059.99 848.025 1058.26 849.075 1056.32C850.124 1054.38 851.356 1052.44 852.451 1050.5C853.546 1048.56 854.732 1046.83 855.941 1045.26C856.787 1044.01 857.757 1042.84 858.838 1041.79C859.752 1040.71 860.868 1039.82 862.123 1039.17C862.632 1038.89 863.219 1038.8 863.785 1038.92C864.351 1039.03 864.861 1039.33 865.226 1039.78C865.735 1040.35 866.123 1041.02 866.366 1041.74C866.654 1042.47 866.801 1043.24 866.8 1044.02C866.8 1044.75 866.503 1045.17 865.979 1045.21C865.25 1045.81 864.639 1046.54 864.176 1047.36C863.424 1048.54 862.58 1049.93 861.644 1051.51C860.709 1053.08 859.819 1054.75 858.93 1056.41C858.04 1058.08 857.219 1059.61 856.466 1060.97C855.622 1062.82 854.527 1065.1 853.113 1067.82C853.07 1067.98 853.009 1068.14 852.93 1068.3C852.86 1068.41 852.799 1068.54 852.747 1068.66C851.789 1070.65 850.991 1072.43 850.352 1074.05C849.713 1075.67 849.075 1077.38 848.459 1079.16C848.017 1079.74 847.748 1080.43 847.683 1081.16C847.546 1081.16 847.455 1081.3 847.409 1081.57C847.319 1081.99 847.189 1082.39 847.022 1082.78C846.852 1082.93 846.714 1083.11 846.616 1083.32C846.518 1083.52 846.462 1083.74 846.451 1083.97C846.419 1084.49 846.419 1085.02 846.451 1085.54C845.935 1086.9 845.516 1088.28 845.197 1089.69C844.846 1091.2 844.579 1092.72 844.398 1094.26C844.25 1095.41 844.204 1096.58 844.261 1097.75C844.338 1098.71 844.643 1099.64 845.151 1100.46C845.663 1101.22 846.373 1101.83 847.204 1102.22L849.12 1103.04C849.597 1103.24 850.108 1103.35 850.626 1103.36C851.278 1103.44 851.936 1103.44 852.588 1103.36C853.386 1103.36 854.481 1103.09 855.873 1102.83C856.756 1102.71 857.632 1102.53 858.496 1102.31L861.12 1101.69C861.872 1101.58 862.602 1101.42 863.401 1101.26C863.948 1101.15 864.489 1101 865.021 1100.83L868.397 1099.89C869.264 1099.63 869.857 1099.63 870.176 1099.89C870.607 1100.3 870.962 1100.78 871.225 1101.31C871.398 1101.59 871.511 1101.91 871.558 1102.24C871.605 1102.57 871.585 1102.9 871.499 1103.22C870.979 1103.97 870.339 1104.64 869.606 1105.18C868.352 1106.24 867.042 1107.22 865.682 1108.13C864.453 1108.99 863.109 1109.68 861.69 1110.18C860.057 1110.83 858.334 1111.23 856.58 1111.37C854.542 1111.59 852.489 1111.64 850.443 1111.5C848.823 1111.53 847.207 1111.35 845.63 1110.98Z" fill="#FBFDF6"/>
<path d="M852.291 1117.41C851.424 1117.41 850.58 1117.41 849.759 1117.41C847.847 1117.33 845.95 1117.04 844.102 1116.55C840.473 1115.65 837.255 1113.55 834.977 1110.59C832.989 1107.91 831.449 1104.92 830.414 1101.74L830.186 1101.06V1100.35C830.111 1099.02 830.111 1097.69 830.186 1096.36C830.186 1094.71 830.3 1093.19 830.437 1091.79C830.519 1090.63 830.733 1089.48 831.076 1088.37C831.113 1087.66 831.228 1086.96 831.418 1086.27C831.6 1085.61 831.783 1084.93 831.988 1084.24L832.171 1083.72L831.829 1082.33L832.673 1080.52C832.932 1079.93 833.229 1079.35 833.562 1078.79C833.645 1077.92 833.869 1077.08 834.224 1076.28C834.545 1075.47 834.966 1074.71 835.479 1074C835.479 1073.59 835.729 1073.13 835.912 1072.63C836.209 1071.74 836.574 1070.78 836.984 1069.73C837.395 1068.68 837.76 1067.73 838.148 1066.84C838.535 1065.95 838.627 1065.74 838.855 1065.31V1065.15C839.163 1064.41 839.513 1063.7 839.904 1063C839.904 1062.66 840.132 1062.25 840.292 1061.8C840.611 1060.93 840.954 1060.04 841.341 1059.17C842.094 1057.55 843.007 1055.73 844.147 1053.63C845.288 1051.53 846.428 1049.52 847.706 1047.52C848.983 1045.51 850.215 1043.61 851.379 1041.97C852.407 1040.49 853.568 1039.1 854.846 1037.82C856.22 1036.27 857.877 1034.99 859.728 1034.06C861.305 1033.28 863.09 1033.02 864.823 1033.33C866.555 1033.64 868.144 1034.49 869.355 1035.77C870.454 1036.91 871.288 1038.28 871.796 1039.78C872.356 1041.24 872.627 1042.79 872.594 1044.34C872.577 1045.49 872.274 1046.61 871.712 1047.61C871.15 1048.6 870.348 1049.44 869.378 1050.05L869.058 1050.53C868.328 1051.64 867.553 1052.94 866.777 1054.45C866.001 1055.96 865.021 1057.53 864.154 1059.15C863.287 1060.77 862.488 1062.27 861.736 1063.71C860.914 1065.54 859.842 1067.73 858.542 1070.28C858.448 1070.52 858.342 1070.76 858.222 1070.99L858.04 1071.38C857.173 1073.18 856.42 1074.87 855.759 1076.33C855.097 1077.79 854.527 1079.54 853.911 1081.25L853.386 1082.46L852.337 1089.79L851.265 1089.28C851.082 1089.85 850.922 1090.49 850.763 1091.18C850.44 1092.48 850.203 1093.81 850.056 1095.15C849.96 1095.9 849.921 1096.67 849.942 1097.43L851.059 1097.91H851.333H851.903C852.611 1097.91 853.614 1097.66 854.869 1097.43V1098.02V1097.41C855.591 1097.3 856.307 1097.15 857.013 1096.97L859.705 1096.36H860.047L861.895 1095.99L862.967 1095.72H863.287L866.549 1094.8C867.701 1094.38 868.94 1094.25 870.155 1094.42C871.37 1094.6 872.522 1095.08 873.507 1095.81C874.54 1096.69 875.386 1097.77 875.993 1098.98C876.55 1099.94 876.901 1101.01 877.023 1102.11C877.145 1103.21 877.035 1104.33 876.7 1105.39L876.564 1105.75C875.766 1107.4 874.575 1108.81 873.096 1109.88C871.645 1111.09 870.122 1112.21 868.534 1113.24C866.939 1114.35 865.205 1115.24 863.378 1115.91C861.283 1116.74 859.077 1117.25 856.831 1117.43C855.318 1117.51 853.803 1117.5 852.291 1117.41ZM832.034 1083.95C832.026 1084.03 832.026 1084.11 832.034 1084.2V1083.95Z" fill="#FBFDF6"/>
<path d="M900.448 1103.27C898.594 1104.32 896.53 1104.95 894.403 1105.12C892.373 1105.29 890.328 1105.01 888.426 1104.27C886.63 1103.61 885.051 1102.47 883.864 1100.96C883.044 1099.76 882.435 1098.43 882.062 1097.02C881.45 1094.6 881.349 1092.08 881.765 1089.63C882.194 1086.55 883.11 1083.56 884.48 1080.77C885.842 1077.89 887.626 1075.22 889.772 1072.86C891.634 1070.79 893.988 1069.22 896.616 1068.3C897.499 1067.98 898.407 1067.75 899.331 1067.59C900.55 1067.44 901.784 1067.44 903.003 1067.59C904.354 1067.74 905.672 1068.11 906.904 1068.68C907.853 1069.08 908.702 1069.68 909.391 1070.44C910.272 1071.27 910.958 1072.28 911.398 1073.41C911.695 1074.29 911.819 1075.23 911.763 1076.17C911.321 1078.52 910.397 1080.76 909.049 1082.74C907.978 1084.48 906.507 1085.95 904.757 1087.01C903.008 1088.07 901.03 1088.7 898.988 1088.85C896.972 1088.92 894.956 1088.73 892.989 1088.28C891.46 1087.96 890.457 1088.12 890 1088.74C889.422 1089.88 889.2 1091.18 889.362 1092.45C889.471 1093.5 889.748 1094.51 890.183 1095.47C890.41 1095.91 890.732 1096.3 891.127 1096.6C891.521 1096.9 891.978 1097.12 892.464 1097.22C893.499 1097.47 894.577 1097.47 895.612 1097.22C896.431 1096.94 897.231 1096.6 898.007 1096.22C898.514 1095.9 899.001 1095.56 899.467 1095.19L900.905 1094.03C901.283 1093.72 901.679 1093.44 902.091 1093.18C902.368 1092.95 902.696 1092.79 903.049 1092.71C903.368 1092.67 903.689 1092.67 904.007 1092.71C904.8 1092.81 905.52 1093.22 906.015 1093.85C906.56 1094.42 906.98 1095.11 907.246 1095.85C907.127 1096.64 906.796 1097.38 906.288 1098C905.545 1099.03 904.696 1099.99 903.756 1100.85C902.735 1101.76 901.627 1102.57 900.448 1103.27ZM899.217 1082.01C899.914 1081.65 900.565 1081.2 901.156 1080.68C901.976 1079.99 902.739 1079.22 903.437 1078.4C903.969 1077.91 904.329 1077.26 904.463 1076.55C904.463 1075.85 904.007 1075.25 903.095 1074.75C901.979 1074.21 900.702 1074.1 899.513 1074.46C898.846 1074.68 898.233 1075.03 897.711 1075.51C896.972 1076.12 896.271 1076.77 895.612 1077.47C894.964 1078.12 894.362 1078.83 893.81 1079.57C893.411 1080.05 893.06 1080.57 892.761 1081.12C893.167 1081.53 893.695 1081.8 894.266 1081.89C895.097 1082.08 895.947 1082.17 896.798 1082.17C897.608 1082.2 898.418 1082.14 899.217 1082.01Z" fill="#FBFDF6"/>
<path d="M893.285 1110.86C890.943 1110.86 888.622 1110.42 886.442 1109.56C883.741 1108.52 881.376 1106.76 879.598 1104.48C878.342 1102.75 877.407 1100.81 876.838 1098.75C875.983 1095.55 875.812 1092.21 876.336 1088.94C876.838 1085.25 877.932 1081.66 879.575 1078.31C881.179 1074.92 883.278 1071.78 885.803 1069C888.308 1066.17 891.496 1064.03 895.065 1062.78C896.221 1062.36 897.412 1062.06 898.623 1061.86C900.314 1061.6 902.032 1061.56 903.733 1061.75H903.984C905.926 1061.99 907.82 1062.53 909.596 1063.35C911.217 1064.06 912.67 1065.11 913.862 1066.43C915.276 1067.83 916.366 1069.53 917.056 1071.4C917.595 1073 917.819 1074.69 917.717 1076.37V1076.87C917.151 1080 915.947 1082.97 914.181 1085.61C913.208 1087.18 912 1088.59 910.6 1089.79C911.72 1090.98 912.561 1092.4 913.064 1093.96L913.314 1094.78V1095.63C913.218 1097.58 912.534 1099.45 911.353 1101.01C910.374 1102.38 909.258 1103.64 908.022 1104.77C906.672 1106.05 905.189 1107.17 903.596 1108.13H903.46C900.876 1109.61 897.992 1110.5 895.019 1110.73L893.285 1110.86Z" fill="#FBFDF6"/>
<path d="M925.062 1104.5C924.376 1104.54 923.693 1104.37 923.1 1104.02C922.621 1103.7 922.051 1103.27 921.344 1102.7C920.181 1101.48 919.204 1100.1 918.447 1098.59C917.778 1097.44 917.491 1096.11 917.626 1094.78C917.845 1094.04 917.907 1093.27 917.808 1092.5C917.489 1092.18 917.397 1091.98 917.534 1091.89C917.694 1091.73 917.825 1091.56 917.922 1091.36C918.287 1091.36 918.424 1091 918.287 1090.31C918.268 1089.19 918.478 1088.07 918.903 1087.03C919.457 1085.33 920.223 1083.71 921.184 1082.21C921.707 1081.34 922.279 1080.49 922.895 1079.68C923.683 1078.59 924.528 1077.54 925.427 1076.53C926.2 1075.63 927.039 1074.78 927.937 1074C929.343 1072.82 930.829 1071.74 932.385 1070.76C933.662 1069.98 935.056 1069.4 936.514 1069.05C937.937 1068.73 939.39 1068.57 940.848 1068.57C941.535 1068.54 942.219 1068.67 942.853 1068.93C943.487 1069.2 944.056 1069.59 944.521 1070.1C945.812 1070.59 946.903 1071.5 947.624 1072.68C948.304 1073.98 948.708 1075.41 948.81 1076.87C948.975 1079.22 948.782 1081.59 948.24 1083.88C946.523 1089.6 943.301 1094.75 938.909 1098.8C937.319 1100.1 935.625 1101.28 933.845 1102.31C932.566 1103.19 931.095 1103.74 929.556 1103.93C928.096 1104.23 926.591 1104.39 925.062 1104.5ZM934.78 1092.87C936.079 1091.79 937.109 1090.42 937.792 1088.87C938.385 1087.41 939.046 1085.7 939.731 1083.72C940.06 1083.14 940.24 1082.49 940.255 1081.82C940.346 1080.95 940.346 1080.07 940.255 1079.2C940.255 1078.33 939.982 1077.86 939.594 1077.72C939.364 1077.52 939.085 1077.38 938.784 1077.32C938.484 1077.26 938.173 1077.28 937.883 1077.38C937.074 1077.72 936.308 1078.16 935.602 1078.68C933.646 1080.31 931.872 1082.14 930.309 1084.15C928.618 1086.38 927.462 1088.98 926.933 1091.73C926.667 1092.94 926.854 1094.22 927.458 1095.31C927.982 1096.11 928.872 1096.31 930.127 1095.97C931.929 1095.33 933.55 1094.27 934.849 1092.87H934.78Z" fill="#FBFDF6"/>
<path d="M925.382 1110.2H925.063C923.247 1110.25 921.46 1109.74 919.93 1108.77C919.337 1108.38 918.607 1107.81 917.649 1107.12L917.124 1106.62C915.569 1105 914.262 1103.15 913.246 1101.15C912.02 1098.91 911.555 1096.33 911.923 1093.8C911.721 1093.12 911.644 1092.41 911.695 1091.7L911.877 1089.1L912.584 1088.55C912.863 1087.5 913.222 1086.47 913.657 1085.47C914.331 1083.33 915.282 1081.28 916.485 1079.38C917.083 1078.4 917.73 1077.45 918.424 1076.53C919.268 1075.37 920.227 1074.25 921.276 1072.97C922.244 1071.85 923.296 1070.79 924.424 1069.83C926.039 1068.45 927.755 1067.2 929.557 1066.08C931.371 1065.02 933.342 1064.25 935.397 1063.8C937.231 1063.39 939.106 1063.18 940.986 1063.19C943.487 1063.17 945.914 1064.04 947.829 1065.65C949.85 1066.66 951.526 1068.25 952.643 1070.21C953.71 1072.17 954.355 1074.33 954.536 1076.55C954.767 1079.5 954.544 1082.46 953.875 1085.34C951.887 1092.35 947.985 1098.67 942.605 1103.59C940.825 1105.07 938.925 1106.39 936.925 1107.56C934.934 1108.86 932.672 1109.7 930.31 1110C928.713 1110.2 927.161 1110.36 925.633 1110.5L925.382 1110.2Z" fill="#FBFDF6"/>
</g>
<path d="M845.63 1110.98C843.191 1110.41 841.023 1109.02 839.494 1107.03C837.85 1104.85 836.578 1102.42 835.729 1099.82C835.667 1098.68 835.667 1097.54 835.729 1096.4C835.729 1094.94 835.844 1093.57 835.958 1092.3C835.975 1091.52 836.106 1090.75 836.345 1090.01C836.528 1090.01 836.619 1089.51 836.619 1088.87C836.588 1088.44 836.642 1088.01 836.779 1087.6C836.939 1086.98 837.098 1086.36 837.304 1085.73C837.581 1085.15 837.743 1084.52 837.783 1083.88C837.791 1083.51 837.753 1083.14 837.669 1082.78C837.908 1082.2 838.231 1081.65 838.627 1081.16C838.831 1080.93 838.981 1080.65 839.064 1080.35C839.147 1080.05 839.161 1079.74 839.106 1079.43C839.058 1079.07 839.122 1078.7 839.288 1078.38C839.447 1078.02 839.638 1077.68 839.859 1077.35C840.195 1076.9 840.485 1076.42 840.725 1075.92C840.807 1075.39 840.952 1074.88 841.159 1074.39C841.433 1073.57 841.775 1072.65 842.163 1071.67C842.55 1070.69 842.893 1069.78 843.258 1068.96C843.471 1068.39 843.739 1067.85 844.056 1067.34V1067.22C844.348 1066.53 844.699 1065.87 845.105 1065.24C845.237 1064.71 845.397 1064.18 845.584 1063.67C845.836 1062.94 846.125 1062.22 846.451 1061.52C847.136 1059.99 848.025 1058.26 849.075 1056.32C850.124 1054.38 851.356 1052.44 852.451 1050.5C853.546 1048.56 854.732 1046.83 855.918 1045.26C856.778 1044.01 857.755 1042.85 858.838 1041.79C859.752 1040.71 860.868 1039.82 862.123 1039.17C862.632 1038.89 863.219 1038.8 863.785 1038.92C864.351 1039.03 864.861 1039.33 865.226 1039.78C865.735 1040.35 866.123 1041.02 866.366 1041.74C866.654 1042.47 866.801 1043.24 866.8 1044.02C866.8 1044.75 866.503 1045.17 865.979 1045.21C865.25 1045.81 864.639 1046.54 864.176 1047.36C863.424 1048.54 862.58 1049.93 861.644 1051.51C860.709 1053.08 859.819 1054.75 858.93 1056.41C858.04 1058.08 857.219 1059.61 856.466 1060.97C855.622 1062.82 854.504 1065.1 853.113 1067.82C853.113 1068 852.998 1068.16 852.93 1068.3C852.86 1068.41 852.799 1068.54 852.747 1068.66C851.789 1070.65 850.991 1072.43 850.352 1074.05C849.713 1075.67 849.075 1077.38 848.459 1079.16C848.017 1079.74 847.748 1080.43 847.683 1081.16C847.546 1081.16 847.455 1081.3 847.409 1081.57C847.319 1081.99 847.189 1082.39 847.022 1082.78C846.848 1082.93 846.707 1083.11 846.609 1083.31C846.51 1083.52 846.457 1083.74 846.451 1083.97C846.419 1084.49 846.419 1085.02 846.451 1085.54C845.935 1086.9 845.516 1088.28 845.197 1089.69C844.846 1091.2 844.579 1092.72 844.398 1094.26C844.256 1095.41 844.203 1096.58 844.239 1097.75C844.332 1098.71 844.645 1099.64 845.151 1100.46C845.663 1101.22 846.373 1101.83 847.204 1102.22L849.12 1103.04C849.597 1103.24 850.108 1103.35 850.626 1103.36C851.278 1103.44 851.936 1103.44 852.588 1103.36C853.386 1103.36 854.481 1103.09 855.873 1102.83C856.756 1102.71 857.632 1102.53 858.496 1102.31L861.12 1101.69C861.872 1101.58 862.602 1101.42 863.401 1101.26C863.948 1101.15 864.489 1101 865.021 1100.83L868.397 1099.89C869.264 1099.63 869.857 1099.63 870.176 1099.89C870.607 1100.3 870.962 1100.78 871.225 1101.31C871.398 1101.59 871.511 1101.91 871.558 1102.24C871.605 1102.57 871.585 1102.9 871.499 1103.22C870.979 1103.97 870.339 1104.64 869.606 1105.18C868.352 1106.24 867.042 1107.22 865.682 1108.13C864.453 1108.99 863.109 1109.68 861.69 1110.18C860.057 1110.83 858.334 1111.23 856.58 1111.37C854.542 1111.59 852.489 1111.64 850.443 1111.5C848.823 1111.53 847.207 1111.35 845.63 1110.98Z" fill="#B8C318"/>
<path d="M900.448 1103.27C898.587 1104.33 896.515 1104.96 894.38 1105.12C892.357 1105.29 890.32 1105.01 888.426 1104.27C886.63 1103.61 885.051 1102.47 883.864 1100.96C883.044 1099.76 882.435 1098.43 882.062 1097.02C881.45 1094.6 881.349 1092.08 881.765 1089.63C882.194 1086.55 883.11 1083.56 884.48 1080.78C885.842 1077.89 887.626 1075.22 889.772 1072.86C891.634 1070.79 893.988 1069.22 896.616 1068.3C897.499 1067.98 898.407 1067.75 899.331 1067.59C900.55 1067.44 901.784 1067.44 903.003 1067.59C904.354 1067.74 905.672 1068.11 906.904 1068.69C907.849 1069.09 908.697 1069.69 909.391 1070.44C910.274 1071.26 910.953 1072.28 911.376 1073.41C911.693 1074.29 911.825 1075.23 911.763 1076.17C911.321 1078.52 910.397 1080.76 909.049 1082.74C907.978 1084.48 906.507 1085.95 904.757 1087.01C903.008 1088.07 901.03 1088.7 898.988 1088.85C896.972 1088.92 894.956 1088.73 892.989 1088.28C891.46 1087.96 890.457 1088.12 889.978 1088.74C889.42 1089.89 889.206 1091.18 889.362 1092.46C889.471 1093.5 889.748 1094.51 890.183 1095.47C890.41 1095.91 890.732 1096.3 891.127 1096.6C891.521 1096.9 891.978 1097.12 892.464 1097.22C893.499 1097.47 894.577 1097.47 895.612 1097.22C896.431 1096.94 897.231 1096.6 898.007 1096.22C898.514 1095.91 899.001 1095.56 899.467 1095.19L900.905 1094.03C901.283 1093.73 901.679 1093.44 902.091 1093.19C902.368 1092.95 902.696 1092.79 903.049 1092.71C903.368 1092.67 903.689 1092.67 904.007 1092.71C904.397 1092.76 904.773 1092.88 905.114 1093.08C905.455 1093.27 905.753 1093.54 905.992 1093.85C906.551 1094.42 906.98 1095.1 907.246 1095.85C907.127 1096.64 906.796 1097.38 906.288 1098C905.545 1099.03 904.696 1099.99 903.756 1100.85C902.731 1101.76 901.624 1102.57 900.448 1103.27ZM899.217 1082.01C899.914 1081.65 900.565 1081.2 901.156 1080.68C901.982 1079.99 902.745 1079.23 903.437 1078.4C903.982 1077.92 904.351 1077.27 904.486 1076.56C904.486 1075.85 904.03 1075.26 903.117 1074.75C902.002 1074.21 900.725 1074.11 899.536 1074.46C898.869 1074.68 898.256 1075.04 897.734 1075.51C896.99 1076.11 896.289 1076.77 895.635 1077.47C894.987 1078.13 894.385 1078.83 893.833 1079.57C893.434 1080.05 893.082 1080.57 892.783 1081.12C893.19 1081.53 893.717 1081.8 894.289 1081.89C895.12 1082.08 895.969 1082.17 896.821 1082.17C897.623 1082.2 898.426 1082.14 899.217 1082.01Z" fill="#B8C318"/>
<path d="M925.063 1104.5C924.377 1104.54 923.694 1104.37 923.101 1104.02C922.622 1103.7 922.052 1103.27 921.345 1102.7C920.182 1101.48 919.205 1100.1 918.448 1098.59C917.769 1097.44 917.481 1096.11 917.626 1094.78C917.846 1094.04 917.908 1093.27 917.809 1092.5C917.49 1092.18 917.398 1091.98 917.535 1091.89C917.695 1091.74 917.826 1091.56 917.923 1091.36C918.288 1091.36 918.425 1091 918.288 1090.31C918.269 1089.19 918.479 1088.07 918.904 1087.03C919.458 1085.33 920.224 1083.71 921.185 1082.21C921.708 1081.34 922.28 1080.49 922.896 1079.68C923.684 1078.59 924.529 1077.54 925.428 1076.53C926.201 1075.63 927.04 1074.78 927.938 1074C929.344 1072.82 930.83 1071.74 932.386 1070.76C933.661 1069.97 935.056 1069.39 936.515 1069.05C937.938 1068.73 939.391 1068.57 940.849 1068.57C941.536 1068.55 942.219 1068.67 942.853 1068.93C943.487 1069.2 944.056 1069.6 944.522 1070.1C945.813 1070.59 946.904 1071.5 947.625 1072.68C948.295 1073.98 948.699 1075.41 948.811 1076.88C948.976 1079.22 948.783 1081.59 948.241 1083.88C946.5 1089.59 943.281 1094.73 938.91 1098.8C937.32 1100.1 935.626 1101.28 933.846 1102.31C932.567 1103.19 931.096 1103.74 929.557 1103.93C928.075 1104.23 926.592 1104.39 925.063 1104.5ZM934.781 1092.87C936.08 1091.79 937.11 1090.42 937.793 1088.87C938.386 1087.41 939.047 1085.7 939.732 1083.72C940.061 1083.14 940.241 1082.49 940.256 1081.83C940.347 1080.95 940.347 1080.07 940.256 1079.2C940.256 1078.34 939.983 1077.86 939.595 1077.72C939.365 1077.52 939.086 1077.38 938.785 1077.32C938.485 1077.26 938.174 1077.28 937.884 1077.38C937.075 1077.72 936.309 1078.16 935.603 1078.68C933.647 1080.31 931.873 1082.14 930.31 1084.15C928.611 1086.38 927.455 1088.97 926.934 1091.73C926.668 1092.94 926.855 1094.22 927.459 1095.31C927.983 1096.11 928.873 1096.31 930.128 1095.97C931.93 1095.33 933.551 1094.27 934.85 1092.87H934.781Z" fill="#B8C318"/>
</g>
<defs>
<linearGradient id="paint0_linear_1880_122" x1="466.535" y1="1216.39" x2="2090.34" y2="1216.39" gradientUnits="userSpaceOnUse">
<stop stop-color="#FBFDF6"/>
<stop offset="1" stop-color="white"/>
</linearGradient>
<clipPath id="clip0_1880_122">
<rect width="2560" height="1440" fill="white"/>
</clipPath>
</defs>
</svg>
