<svg width="417" height="141" viewBox="0 0 417 141" fill="none" xmlns="http://www.w3.org/2000/svg">
<path d="M345.761 8.55078H70.16C36.134 8.55078 8.55054 36.1343 8.55054 70.1603C8.55054 104.186 36.134 131.77 70.16 131.77H345.761C379.787 131.77 407.37 104.186 407.37 70.1603C407.37 36.1343 379.787 8.55078 345.761 8.55078Z" fill="white"/>
<path d="M345.875 140.32H70.16C51.5524 140.32 33.707 132.928 20.5494 119.771C7.39185 106.613 0 88.7676 0 70.16C0 51.5524 7.39185 33.707 20.5494 20.5494C33.707 7.39185 51.5524 0 70.16 0H345.875C364.483 0 382.328 7.39185 395.486 20.5494C408.643 33.707 416.035 51.5524 416.035 70.16C416.035 88.7676 408.643 106.613 395.486 119.771C382.328 132.928 364.483 140.32 345.875 140.32ZM70.274 17.1923C56.208 17.1923 42.718 22.78 32.7718 32.7262C22.8256 42.6724 17.2379 56.1624 17.2379 70.2284C17.2379 84.2945 22.8256 97.7844 32.7718 107.731C42.718 117.677 56.208 123.265 70.274 123.265H345.875C359.941 123.265 373.431 117.677 383.377 107.731C393.323 97.7844 398.911 84.2945 398.911 70.2284C398.911 56.1624 393.323 42.6724 383.377 32.7262C373.431 22.78 359.941 17.1923 345.875 17.1923H70.274Z" fill="#7DBD36"/>
<path d="M345.761 8.55078H70.16C36.134 8.55078 8.55054 36.1343 8.55054 70.1603C8.55054 104.186 36.134 131.77 70.16 131.77H345.761C379.787 131.77 407.37 104.186 407.37 70.1603C407.37 36.1343 379.787 8.55078 345.761 8.55078Z" fill="#FDFDFB"/>
<path d="M131.404 69.0431C131.145 69.5114 130.784 69.9157 130.349 70.2263C129.913 70.5368 129.413 70.7457 128.886 70.8376C128.358 70.9295 127.817 70.902 127.302 70.7572C126.787 70.6124 126.311 70.3539 125.909 70.0007C120.824 66.5349 115.625 57.802 113.984 49.4794C113.316 52.115 112.361 54.669 111.133 57.0951C113.519 58.9998 115.67 61.1813 117.541 63.5935C117.851 63.9328 118.078 64.339 118.206 64.7805C118.333 65.2221 118.357 65.6872 118.276 66.1395C118.194 66.5917 118.009 67.0191 117.735 67.3883C117.461 67.7574 117.106 68.0584 116.697 68.2678C116.343 68.5777 115.918 68.7945 115.46 68.8987C115.001 69.0028 114.524 68.9909 114.071 68.8641C113.618 68.7374 113.204 68.4997 112.867 68.1726C112.529 67.8455 112.278 67.4394 112.137 66.991C111.234 64.7499 110.199 62.5647 109.036 60.4469C105.716 65.2136 101.024 68.8562 95.5828 70.89C95.3901 71.0177 95.171 71.1 94.9419 71.1307C94.7127 71.1615 94.4796 71.1398 94.2601 71.0674C94.0406 70.9949 93.8403 70.8736 93.6745 70.7125C93.5086 70.5514 93.3815 70.3549 93.3027 70.1375C93.0921 69.7442 93.0459 69.2836 93.1741 68.8563C93.3023 68.429 93.5945 68.0698 93.9867 67.8574C97.6645 65.5003 100.791 62.3775 103.152 58.7023C105.512 55.027 107.053 50.8857 107.668 46.5609H96.0617C94.7848 46.5609 94.078 45.7628 94.078 44.2807C94.078 42.7986 94.7848 42.0006 96.0617 42.0006H108.055C108.215 38.512 108.26 36.3002 108.26 34.2025C108.26 32.1048 109.629 30.9419 111.84 30.9419C112.293 30.8694 112.756 30.9021 113.194 31.0375C113.632 31.1728 114.034 31.4072 114.366 31.7225C114.699 32.0378 114.955 32.4254 115.114 32.8555C115.273 33.2856 115.331 33.7465 115.283 34.2025C115.329 36.8053 115.23 39.4087 114.987 42.0006H128.668C128.961 41.9811 129.254 42.0292 129.525 42.1412C129.797 42.2531 130.039 42.426 130.233 42.6463C130.427 42.8667 130.567 43.1287 130.644 43.4121C130.72 43.6955 130.731 43.9927 130.674 44.2807C130.674 45.6944 129.945 46.5609 128.668 46.5609H116.423C118.793 53.6544 123.579 59.6906 129.945 63.6163C130.433 63.8396 130.865 64.1677 131.212 64.5775C131.559 64.9872 131.811 65.4683 131.95 65.9866C132.09 66.5049 132.113 67.0475 132.018 67.5759C131.924 68.1042 131.714 68.6052 131.404 69.0431Z" fill="#594A39"/>
<path d="M163.258 51.5319C163.036 52.0516 162.777 52.5545 162.482 53.0367H174.59C174.968 52.9944 175.35 53.0393 175.707 53.1679C176.065 53.2964 176.388 53.5052 176.653 53.7783C176.917 54.0513 177.115 54.3813 177.232 54.7429C177.348 55.1045 177.381 55.4881 177.326 55.8641C177.24 59.5467 176.966 63.2225 176.505 66.8772C175.867 71.4375 171.329 72.1899 166.017 69.6134C165.788 69.549 165.576 69.4342 165.397 69.2775C165.218 69.1207 165.076 68.9259 164.982 68.7073C164.888 68.4887 164.844 68.2519 164.854 68.0142C164.863 67.7764 164.925 67.5438 165.036 67.3332C165.378 66.4896 165.88 66.216 166.951 66.3984C170.349 66.9456 170.805 66.6036 170.987 65.3723C171.284 63.2518 171.535 59.6264 171.671 57.1182C171.679 57.0137 171.649 56.9099 171.586 56.826C171.523 56.7422 171.432 56.684 171.329 56.6622C170.328 59.9277 168.54 62.8975 166.123 65.3107C163.706 67.7239 160.733 69.5067 157.466 70.5026C157.262 70.6218 157.036 70.6969 156.801 70.723C156.567 70.7492 156.329 70.7258 156.104 70.6544C155.879 70.583 155.672 70.4652 155.495 70.3086C155.318 70.152 155.176 69.96 155.079 69.7452C154.981 69.5303 154.929 69.2974 154.927 69.0613C154.925 68.8252 154.972 68.5914 155.066 68.3748C155.16 68.1582 155.299 67.9637 155.472 67.804C155.646 67.6442 155.852 67.5227 156.075 67.4473C160.773 65.3298 164.439 61.4345 166.267 56.6166H165.492C163.324 60.9419 159.663 64.3358 155.186 66.1704C154.114 66.6036 153.385 66.3984 152.906 65.4635C152.8 65.2752 152.737 65.0662 152.721 64.851C152.705 64.6359 152.736 64.4197 152.812 64.2178C152.888 64.0159 153.007 63.833 153.161 63.6819C153.315 63.5308 153.501 63.4151 153.704 63.343C156.569 61.7863 158.94 59.4555 160.544 56.6166H159.792C158.415 58.0314 156.802 59.1964 155.026 60.0596L154.776 60.1964C153.978 61.3877 152.762 62.2361 151.369 62.5739C149.975 62.9117 148.506 62.7142 147.251 62.0205V68.5189C147.251 70.0922 146.225 71.0271 144.31 71.0271C142.394 71.0271 141.391 70.0922 141.391 68.5189V34.4992C141.391 32.8803 142.417 31.991 144.31 31.991C144.822 31.9286 145.341 32.0108 145.808 32.2284C146.276 32.4461 146.673 32.7904 146.955 33.2223H149.964C150.463 32.7265 151.099 32.3919 151.79 32.2618C152.482 32.1317 153.196 32.2121 153.841 32.4927C155.323 33.0627 156.121 34.4536 155.46 36.8021C154.388 40.0465 152.852 43.1186 150.899 45.9227C150.694 46.2191 150.74 46.4015 150.899 46.6523C153.326 49.1149 154.839 52.3329 155.186 55.7729C156.26 54.506 157.109 53.0637 157.694 51.509H155.71C155.239 51.509 154.786 51.3217 154.453 50.9881C154.119 50.6546 153.932 50.2022 153.932 49.7305C153.932 49.2588 154.119 48.8065 154.453 48.4729C154.786 48.1394 155.239 47.952 155.71 47.952H176.232C176.703 47.952 177.156 48.1394 177.489 48.4729C177.823 48.8065 178.01 49.2588 178.01 49.7305C178.01 50.2022 177.823 50.6546 177.489 50.9881C177.156 51.3217 176.703 51.509 176.232 51.509L163.258 51.5319ZM150.42 56.5026C150.366 53.6498 149.697 50.8423 148.46 48.2712C148.156 47.7655 147.964 47.2006 147.897 46.6146C147.83 46.0285 147.89 45.4349 148.072 44.8738C148.882 42.388 149.492 39.8413 149.896 37.2581C149.911 37.1871 149.909 37.1135 149.89 37.0434C149.871 36.9734 149.835 36.9089 149.786 36.8554C149.737 36.8019 149.676 36.7608 149.608 36.7357C149.54 36.7106 149.466 36.7021 149.394 36.7109H147.114V58.7143H147.502C149.645 58.9879 150.42 58.8055 150.42 56.5026ZM156.782 43.7566V35.2744C156.738 34.8985 156.78 34.5176 156.904 34.1601C157.029 33.8027 157.232 33.478 157.5 33.2104C157.767 32.9428 158.092 32.7392 158.45 32.6149C158.807 32.4906 159.188 32.4488 159.564 32.4927H172.355C172.73 32.448 173.111 32.4895 173.467 32.6139C173.824 32.7382 174.148 32.9423 174.414 33.2105C174.68 33.4786 174.881 33.8039 175.002 34.1615C175.124 34.5191 175.162 34.8998 175.114 35.2744V43.7566C175.158 44.1295 175.117 44.5075 174.994 44.8622C174.871 45.2169 174.669 45.5391 174.404 45.8046C174.138 46.0702 173.816 46.272 173.461 46.3952C173.106 46.5183 172.728 46.5594 172.355 46.5155H159.564C159.189 46.5632 158.809 46.5249 158.451 46.4035C158.093 46.282 157.768 46.0807 157.5 45.8147C157.232 45.5487 157.028 45.2252 156.903 44.8685C156.779 44.5119 156.737 44.1316 156.782 43.7566ZM162.733 36.5057V37.851H169.163V36.5057C169.163 36.3666 169.108 36.2332 169.01 36.1349C168.911 36.0365 168.778 35.9813 168.639 35.9813H163.258C163.119 35.9813 162.985 36.0365 162.887 36.1349C162.788 36.2332 162.733 36.3666 162.733 36.5057ZM169.163 42.5253V41.18H162.733V42.5253C162.733 42.6644 162.788 42.7978 162.887 42.8961C162.985 42.9945 163.119 43.0497 163.258 43.0497H168.639C168.778 43.0497 168.911 42.9945 169.01 42.8961C169.108 42.7978 169.163 42.6644 169.163 42.5253Z" fill="#594A39"/>
<path d="M206.239 42.1828C206.481 42.5011 206.644 42.8721 206.715 43.2655C206.785 43.6588 206.762 44.0634 206.646 44.446C206.531 44.8286 206.326 45.1783 206.049 45.4666C205.772 45.7549 205.431 45.9736 205.053 46.1046C203.389 46.8571 202.249 46.2642 201.519 44.2805L201.268 43.5052C197.718 44.9776 193.981 45.9521 190.164 46.401C189.779 46.5119 189.374 46.5308 188.981 46.4562C188.587 46.3815 188.217 46.2155 187.9 45.9714C187.582 45.7272 187.327 45.4119 187.154 45.0509C186.981 44.6898 186.895 44.2932 186.904 43.8929C186.767 42.1144 187.61 40.9971 189.799 40.9971H190.005C190.901 38.6173 191.662 36.1889 192.285 33.7234C192.324 33.2531 192.476 32.799 192.727 32.399C192.977 31.9991 193.32 31.6647 193.726 31.4238C194.132 31.1829 194.589 31.0425 195.06 31.0141C195.532 30.9858 196.003 31.0704 196.435 31.2609C198.487 31.7853 199.034 33.313 198.099 35.2967C197.169 37.2946 195.998 39.1707 194.61 40.8831C196.48 40.7463 198.35 40.6095 200.128 40.3586C199.923 39.7202 199.672 39.0818 199.422 38.4433C199.315 38.2741 199.246 38.0843 199.219 37.8865C199.191 37.6886 199.206 37.4872 199.262 37.2955C199.318 37.1037 199.414 36.926 199.544 36.7741C199.673 36.6222 199.834 36.4994 200.014 36.414C200.356 36.2166 200.757 36.1471 201.146 36.2182C201.534 36.2892 201.885 36.496 202.135 36.8016C203.791 38.3558 205.178 40.1743 206.239 42.1828ZM205.304 49.9352V66.033C205.304 70.2057 201.724 71.5054 197.005 69.9093C195.91 69.5217 195.431 68.792 195.659 67.9028C195.887 67.0135 196.412 66.7171 197.392 66.7855C199.148 66.9223 199.353 66.5803 199.353 65.0982V62.2024H194.679V68.3132C194.679 70.0233 193.607 70.9126 191.669 70.9126C189.731 70.9126 188.636 70.0233 188.636 68.3132V50.072C188.589 49.6974 188.627 49.3168 188.749 48.9591C188.87 48.6015 189.071 48.2763 189.337 48.0081C189.603 47.7399 189.927 47.5359 190.283 47.4115C190.64 47.2871 191.02 47.2457 191.395 47.2903H202.545C202.908 47.2492 203.275 47.2884 203.62 47.4052C203.966 47.5219 204.282 47.7133 204.545 47.9657C204.808 48.2182 205.013 48.5255 205.144 48.8659C205.275 49.2063 205.33 49.5713 205.304 49.9352ZM194.679 51.0753V53.0818H199.353V51.0753C199.356 51.0086 199.346 50.9419 199.322 50.8796C199.298 50.8172 199.261 50.7606 199.213 50.7134C199.166 50.6661 199.11 50.6293 199.047 50.6052C198.985 50.5812 198.918 50.5704 198.852 50.5737H195.18C195.114 50.5704 195.047 50.5812 194.985 50.6052C194.922 50.6293 194.866 50.6661 194.818 50.7134C194.771 50.7606 194.734 50.8172 194.71 50.8796C194.686 50.9419 194.676 51.0086 194.679 51.0753ZM199.353 58.8506V56.2968H194.679V58.8506H199.353ZM207.265 44.1893V33.9058C207.265 32.1957 208.314 31.3065 210.275 31.3065C212.236 31.3065 213.285 32.1957 213.285 33.9058V37.3033C214.814 36.3426 216.263 35.2598 217.617 34.0655C217.877 33.7336 218.21 33.4652 218.589 33.2807C218.968 33.0962 219.384 33.0003 219.806 33.0003C220.228 33.0003 220.644 33.0962 221.023 33.2807C221.402 33.4652 221.735 33.7336 221.995 34.0655C223.226 35.5931 222.975 37.1208 220.992 38.3293C218.582 39.6654 215.984 40.6265 213.285 41.1795V42.616C213.285 44.0069 213.627 44.3489 214.949 44.4401C216.392 44.5313 217.839 44.5313 219.282 44.4401C220.604 44.4401 220.992 43.8473 220.992 41.4759C220.992 40.4499 221.539 39.971 222.291 39.971C223.044 39.971 223.659 40.313 223.865 41.3847C224.936 46.6974 224.252 49.6616 220.308 49.8897C218.027 49.8897 215.451 49.8897 213.034 49.8897C208.451 49.6616 207.265 49.0004 207.265 44.1893ZM220.946 70.2741C218.341 70.4109 215.73 70.4109 213.125 70.2741C208.565 70.0233 207.151 69.3393 207.151 64.551V53.6747C207.151 51.9646 208.2 51.0753 210.161 51.0753C212.122 51.0753 213.171 51.9646 213.171 53.6747V56.4337C214.864 55.3518 216.458 54.1234 217.936 52.7626C218.19 52.4359 218.515 52.1715 218.886 51.9896C219.258 51.8077 219.666 51.7131 220.08 51.7131C220.493 51.7131 220.901 51.8077 221.273 51.9896C221.644 52.1715 221.969 52.4359 222.223 52.7626C222.542 53.0607 222.781 53.4343 222.918 53.8492C223.055 54.264 223.085 54.7066 223.005 55.1361C222.926 55.5656 222.739 55.9681 222.463 56.3064C222.187 56.6448 221.83 56.9081 221.425 57.0721C218.855 58.5718 216.072 59.6712 213.171 60.3327V62.6128C213.171 64.0037 213.513 64.3457 214.835 64.4369C216.158 64.5281 218.575 64.4369 219.897 64.4369C221.22 64.4369 221.539 63.7529 221.539 60.8571C221.507 60.6592 221.521 60.4565 221.579 60.2646C221.637 60.0727 221.738 59.8965 221.874 59.7493C222.01 59.6021 222.178 59.4878 222.365 59.4151C222.552 59.3424 222.753 59.3131 222.953 59.3294C223.796 59.3294 224.389 59.8082 224.617 60.9027C225.962 66.9223 225.028 70.0689 221.06 70.2741H220.946Z" fill="#594A39"/>
<path d="M250.292 66.2851C249.175 72.0311 243.452 72.4871 238.093 68.5652C237.784 68.3675 237.56 68.0622 237.463 67.7084C237.366 67.3546 237.404 66.9775 237.569 66.6499C237.626 66.4701 237.72 66.3046 237.846 66.1643C237.972 66.0241 238.127 65.9125 238.3 65.8369C238.473 65.7613 238.659 65.7235 238.848 65.7261C239.037 65.7287 239.222 65.7716 239.393 65.8519C243.566 66.9008 244.341 66.6955 244.706 64.8258C244.967 63.4792 245.127 62.1149 245.185 60.7444C245.185 60.3567 245.048 60.1971 244.706 60.1971H241.947C241.878 60.5308 241.741 60.8468 241.545 61.1254C241.349 61.404 241.098 61.6394 240.807 61.8169C240.516 61.9944 240.192 62.1101 239.855 62.1571C239.517 62.204 239.174 62.181 238.846 62.0896C238.474 62.1094 238.102 62.0377 237.765 61.8808C237.427 61.7239 237.132 61.4866 236.907 61.1896C236.682 60.8926 236.534 60.545 236.474 60.1772C236.414 59.8095 236.446 59.4327 236.566 59.0799C237.056 56.8206 237.429 54.5374 237.683 52.2394C237.842 50.6661 239.005 49.9593 240.693 49.9593C241.328 49.9923 241.94 50.2146 242.448 50.5977H244.979C245.047 50.6008 245.115 50.5901 245.178 50.5663C245.242 50.5425 245.3 50.506 245.349 50.4591C245.398 50.4122 245.437 50.3559 245.464 50.2935C245.49 50.2311 245.504 50.1639 245.504 50.0961V47.2459C245.504 47.1781 245.49 47.1109 245.464 47.0485C245.437 46.9861 245.398 46.9298 245.349 46.8829C245.3 46.836 245.242 46.7995 245.178 46.7757C245.115 46.7519 245.047 46.7412 244.979 46.7443H244.615C241.812 48.7963 238.671 50.3399 235.334 51.3046C235.135 51.3956 234.919 51.4434 234.7 51.4449C234.481 51.4464 234.264 51.4015 234.064 51.3132C233.864 51.2249 233.685 51.0952 233.538 50.9325C233.391 50.7699 233.281 50.5781 233.214 50.3697C233.116 50.1543 233.065 49.9205 233.064 49.6839C233.064 49.4473 233.114 49.2133 233.211 48.9975C233.308 48.7818 233.45 48.5892 233.628 48.4326C233.805 48.276 234.014 48.1591 234.24 48.0896C236.793 46.8448 239.163 45.2568 241.286 43.3697C240.1 41.9332 238.823 40.5651 237.683 39.3794C237.529 39.2526 237.404 39.0957 237.313 38.9185C237.223 38.7412 237.169 38.5473 237.156 38.3487C237.144 38.1501 237.172 37.9509 237.239 37.7635C237.306 37.5761 237.41 37.4044 237.546 37.2589C237.786 36.9454 238.137 36.7355 238.527 36.6719C238.917 36.6083 239.316 36.6959 239.644 36.9169C241.339 37.7147 242.925 38.7261 244.364 39.9266C245.116 38.923 245.751 37.8367 246.256 36.6888C246.439 36.3696 246.256 36.096 245.891 36.096H237.934C237.45 36.096 236.986 35.9038 236.644 35.5617C236.302 35.2197 236.11 34.7557 236.11 34.2719C236.11 33.7881 236.302 33.3241 236.644 32.982C236.986 32.64 237.45 32.4478 237.934 32.4478H246.735C247.375 31.8985 248.175 31.5689 249.016 31.5073C249.857 31.4457 250.696 31.6555 251.409 32.1058C251.809 32.3655 252.153 32.7031 252.419 33.0982C252.686 33.4934 252.871 33.9382 252.962 34.4062C253.054 34.8742 253.05 35.3557 252.952 35.8223C252.854 36.2888 252.662 36.7309 252.39 37.1221C251.223 39.5845 249.685 41.8531 247.83 43.8485H248.172C248.539 43.7935 248.913 43.8238 249.267 43.937C249.62 44.0502 249.943 44.2433 250.21 44.5013C250.476 44.7592 250.68 45.0752 250.805 45.4246C250.93 45.7741 250.973 46.1476 250.931 46.5163V51.4414C250.978 51.816 250.94 52.1967 250.818 52.5543C250.697 52.9119 250.496 53.2372 250.23 53.5054C249.964 53.7735 249.64 53.9775 249.283 54.1019C248.927 54.2263 248.547 54.2678 248.172 54.2231H242.95C242.95 54.9756 242.745 55.7964 242.608 56.5033H248.308C248.697 56.4181 249.102 56.4363 249.482 56.556C249.861 56.6757 250.203 56.8928 250.473 57.1857C250.743 57.4786 250.931 57.837 251.02 58.2254C251.108 58.6137 251.093 59.0184 250.976 59.3991C250.894 61.7066 250.666 64.0066 250.292 66.2851ZM271.452 47.6791C271.269 48.1073 270.992 48.489 270.642 48.7965C270.292 49.1039 269.878 49.3293 269.43 49.4561C268.982 49.5828 268.511 49.6078 268.052 49.5292C267.593 49.4506 267.158 49.2703 266.777 49.0016C266.093 48.614 265.455 48.2264 264.817 47.7931V48.5228C264.817 49.7997 264.817 50.2557 265.751 50.2557C266.388 50.2495 267.019 50.1418 267.621 49.9365C267.832 49.8558 268.057 49.8219 268.282 49.8372C268.507 49.8526 268.726 49.9167 268.923 50.0253C269.121 50.1338 269.292 50.2841 269.426 50.4656C269.559 50.6472 269.651 50.8557 269.696 51.0765C269.811 51.3013 269.876 51.5482 269.887 51.8003C269.897 52.0524 269.854 52.3039 269.758 52.5376C269.663 52.7713 269.519 52.9818 269.335 53.1546C269.151 53.3274 268.932 53.4586 268.693 53.5391C267.325 54.0212 265.878 54.2379 264.429 54.1775C260.484 54.0407 259.869 52.8551 259.869 49.7997V47.7019C259.869 47.5689 259.816 47.4413 259.722 47.3472C259.628 47.2532 259.5 47.2003 259.367 47.2003H258.181C258.11 47.1905 258.037 47.1961 257.968 47.2169C257.899 47.2377 257.836 47.2731 257.782 47.3207C257.727 47.3683 257.684 47.427 257.655 47.4928C257.625 47.5586 257.611 47.6299 257.611 47.7019C257.657 49.1176 257.329 50.5202 256.66 51.7689C255.992 53.0176 255.007 54.0685 253.803 54.816H264.931C265.377 54.7989 265.819 54.9011 266.213 55.1122C266.606 55.3232 266.936 55.6354 267.168 56.0166C267.4 56.3977 267.527 56.8339 267.534 57.2802C267.542 57.7265 267.43 58.1667 267.211 58.5554C266.391 60.4786 265.267 62.2572 263.882 63.8226C265.159 64.3242 266.527 64.7574 268.054 65.1906C268.455 65.2537 268.835 65.4095 269.164 65.6457C269.494 65.8818 269.763 66.1917 269.952 66.5506C270.14 66.9095 270.242 67.3075 270.249 67.7127C270.256 68.1179 270.168 68.5192 269.993 68.8845C269.889 69.2662 269.704 69.6209 269.45 69.9242C269.196 70.2274 268.879 70.472 268.521 70.641C268.164 70.8101 267.774 70.8996 267.378 70.9033C266.983 70.9071 266.591 70.8252 266.23 70.663C263.958 69.9991 261.846 68.8736 260.028 67.3568C257.557 69.1 254.744 70.297 251.774 70.8682C250.634 71.0962 250.041 70.7086 249.768 69.8649C249.494 69.0213 249.768 68.3372 250.885 67.9496C253.122 67.0849 255.19 65.8347 256.996 64.2558C255.612 62.5076 254.574 60.5108 253.94 58.373H253.461C253.217 58.3938 252.97 58.3609 252.74 58.2766C252.509 58.1923 252.299 58.0586 252.125 57.8849C251.952 57.7111 251.818 57.5016 251.734 57.2708C251.649 57.0401 251.617 56.7937 251.637 56.5489C251.63 56.2913 251.677 56.035 251.774 55.7965C251.506 55.8797 251.217 55.8686 250.955 55.7649C250.694 55.6612 250.476 55.4712 250.338 55.2264C249.859 54.5652 250.041 53.9267 250.702 53.2883C251.503 52.3587 252.086 51.2624 252.409 50.0791C252.733 48.8958 252.788 47.6553 252.572 46.4479C252.514 46.0701 252.543 45.6839 252.658 45.3194C252.773 44.9549 252.971 44.6218 253.235 44.346C253.5 44.0703 253.825 43.8593 254.184 43.7295C254.544 43.5997 254.929 43.5546 255.308 43.5977H259.686C256.63 40.5772 254.367 36.8492 253.097 32.7442C253.026 32.5607 252.997 32.3641 253.009 32.168C253.022 31.9719 253.076 31.7808 253.169 31.6077C253.262 31.4347 253.392 31.2836 253.548 31.165C253.705 31.0463 253.885 30.9628 254.077 30.9201C254.449 30.779 254.862 30.7909 255.225 30.9533C255.588 31.1157 255.872 31.4153 256.015 31.7865C256.563 32.7763 257.164 33.7354 257.817 34.6595C258.227 34.0667 258.706 33.3598 259.299 32.3794C259.464 32.0767 259.696 31.8155 259.977 31.6155C260.259 31.4156 260.582 31.282 260.922 31.2249C261.262 31.1679 261.611 31.1887 261.942 31.286C262.273 31.3833 262.578 31.5544 262.833 31.7865C263.166 31.9661 263.445 32.2326 263.639 32.5578C263.833 32.883 263.936 33.2547 263.936 33.6335C263.936 34.0122 263.833 34.3839 263.639 34.7091C263.445 35.0342 263.166 35.3008 262.833 35.4804C261.936 36.1906 260.991 36.8382 260.005 37.4185C260.646 38.1238 261.34 38.7793 262.08 39.3794C263.012 38.3806 263.837 37.2879 264.543 36.1188C264.718 35.8206 264.959 35.5662 265.247 35.3747C265.535 35.1833 265.862 35.0598 266.205 35.0137C266.548 34.9676 266.896 35 267.225 35.1085C267.553 35.217 267.852 35.3987 268.1 35.64C268.431 35.8351 268.703 36.1166 268.887 36.4544C269.071 36.7922 269.159 37.1735 269.142 37.5576C269.126 37.9417 269.006 38.3141 268.794 38.635C268.582 38.9559 268.287 39.2133 267.94 39.3794C267.001 40.0999 265.993 40.7262 264.931 41.2491C266.291 41.9991 267.709 42.6395 269.172 43.1644C271.452 43.9625 272.295 45.627 271.452 47.6791ZM260.94 58.4186H256.699C257.471 59.6448 258.469 60.7128 259.641 61.5652C260.264 60.8036 260.828 59.9956 261.328 59.1483C261.51 58.715 261.51 58.4186 260.94 58.4186Z" fill="#594A39"/>
<path d="M284.312 47.0841C282.351 47.0841 281.256 46.1948 281.256 44.2339V40.3577C281.212 39.9848 281.253 39.6068 281.377 39.252C281.5 38.8973 281.702 38.5751 281.967 38.3096C282.233 38.0441 282.555 37.8422 282.91 37.7191C283.264 37.5959 283.642 37.5548 284.015 37.5987H295.781V35.9342H285.68C285.44 35.962 285.197 35.9388 284.967 35.8661C284.737 35.7935 284.525 35.6729 284.345 35.5125C284.165 35.3521 284.021 35.1554 283.922 34.9353C283.824 34.7152 283.772 34.4767 283.772 34.2355C283.772 33.9943 283.824 33.7558 283.922 33.5357C284.021 33.3156 284.165 33.1189 284.345 32.9585C284.525 32.798 284.737 32.6775 284.967 32.6048C285.197 32.5322 285.44 32.509 285.68 32.5368H312.813C313.053 32.509 313.296 32.5322 313.526 32.6048C313.756 32.6775 313.968 32.798 314.148 32.9585C314.328 33.1189 314.472 33.3156 314.571 33.5357C314.67 33.7558 314.721 33.9943 314.721 34.2355C314.721 34.4767 314.67 34.7152 314.571 34.9353C314.472 35.1554 314.328 35.3521 314.148 35.5125C313.968 35.6729 313.756 35.7935 313.526 35.8661C313.296 35.9388 313.053 35.962 312.813 35.9342H302.735V37.5987H314.524C314.896 37.5548 315.274 37.5959 315.629 37.7191C315.984 37.8422 316.306 38.0441 316.572 38.3096C316.837 38.5751 317.039 38.8973 317.162 39.252C317.285 39.6068 317.326 39.9848 317.283 40.3577V44.2339C317.283 46.1948 316.165 47.0841 314.227 47.0841C312.289 47.0841 311.149 46.1948 311.149 44.2339V41.3381C311.152 41.2714 311.141 41.2047 311.117 41.1424C311.093 41.08 311.056 41.0234 311.009 40.9762C310.962 40.9289 310.905 40.8921 310.843 40.868C310.781 40.844 310.714 40.8333 310.647 40.8365H302.325V47.2437C302.325 48.9538 301.253 49.8431 299.292 49.8431C297.331 49.8431 296.282 48.9538 296.282 47.2437V40.8365H287.96C287.892 40.8334 287.824 40.8441 287.761 40.8679C287.697 40.8918 287.639 40.9282 287.59 40.9751C287.541 41.022 287.502 41.0783 287.476 41.1407C287.449 41.2031 287.435 41.2703 287.435 41.3381V44.2339C287.435 46.2404 286.341 47.0841 284.312 47.0841ZM313.68 69.8855C309.717 70.1478 305.741 70.1478 301.778 69.8855C297.217 69.5891 295.781 68.6999 295.781 64.0256V63.3415H287.367C286.994 63.3854 286.616 63.3443 286.261 63.2212C285.907 63.098 285.584 62.8961 285.319 62.6306C285.053 62.3651 284.852 62.0429 284.728 61.6882C284.605 61.3335 284.564 60.9554 284.608 60.5825V53.1493C284.564 52.7764 284.605 52.3984 284.728 52.0436C284.852 51.6889 285.053 51.3667 285.319 51.1012C285.584 50.8357 285.907 50.6338 286.261 50.5107C286.616 50.3875 286.994 50.3464 287.367 50.3903H310.716C311.089 50.3464 311.467 50.3875 311.821 50.5107C312.176 50.6338 312.498 50.8357 312.764 51.1012C313.029 51.3667 313.231 51.6889 313.354 52.0436C313.477 52.3984 313.519 52.7764 313.475 53.1493V60.5825C313.519 60.9554 313.477 61.3335 313.354 61.6882C313.231 62.0429 313.029 62.3651 312.764 62.6306C312.498 62.8961 312.176 63.098 311.821 63.2212C311.467 63.3443 311.089 63.3854 310.716 63.3415H302.553C302.553 64.55 303.032 64.892 304.377 64.9604C307.323 65.1296 310.277 65.1296 313.224 64.9604C314.318 64.9604 314.66 63.7976 314.706 61.0386C314.706 59.9441 315.299 59.3741 316.165 59.3741C317.032 59.3741 317.511 59.8073 317.761 61.0386C319.015 67.2178 317.784 69.6347 313.748 69.9083L313.68 69.8855ZM295.667 47.4489C295.685 47.6381 295.661 47.8289 295.596 48.0075C295.531 48.186 295.427 48.3479 295.291 48.4811C295.156 48.6144 294.992 48.7158 294.813 48.7778C294.633 48.8399 294.442 48.861 294.253 48.8398H288.393C288.052 48.7962 287.738 48.6298 287.511 48.3716C287.284 48.1135 287.159 47.7814 287.159 47.4375C287.159 47.0936 287.284 46.7615 287.511 46.5034C287.738 46.2452 288.052 46.0788 288.393 46.0352H294.253C294.45 46.005 294.651 46.021 294.84 46.0821C295.029 46.1433 295.201 46.2477 295.343 46.3873C295.485 46.5268 295.592 46.6975 295.656 46.8858C295.72 47.074 295.74 47.2747 295.712 47.4717L295.667 47.4489ZM295.667 43.5271C295.684 43.7171 295.66 43.9087 295.595 44.0882C295.53 44.2676 295.427 44.4307 295.292 44.5656C295.157 44.7006 294.994 44.8041 294.814 44.869C294.635 44.9338 294.443 44.9583 294.253 44.9407H289.465C289.275 44.9583 289.083 44.9338 288.904 44.869C288.724 44.8041 288.561 44.7006 288.426 44.5656C288.291 44.4307 288.188 44.2676 288.123 44.0882C288.058 43.9087 288.034 43.7171 288.051 43.5271C288.033 43.3379 288.057 43.1471 288.122 42.9685C288.187 42.79 288.291 42.6282 288.427 42.4949C288.562 42.3616 288.726 42.2602 288.905 42.1982C289.085 42.1361 289.276 42.1149 289.465 42.1362H294.253C294.447 42.1067 294.646 42.1225 294.833 42.1825C295.021 42.2424 295.192 42.3447 295.333 42.4815C295.474 42.6184 295.582 42.786 295.648 42.9713C295.714 43.1566 295.736 43.3546 295.712 43.5499L295.667 43.5271ZM290.628 55.361H295.849V53.6281H291.152C291.084 53.625 291.017 53.6357 290.953 53.6595C290.89 53.6834 290.832 53.7198 290.783 53.7667C290.734 53.8136 290.694 53.8699 290.668 53.9323C290.641 53.9947 290.628 54.0619 290.628 54.1298V55.361ZM295.849 60.2861V58.348H290.628V59.7845C290.628 59.8523 290.641 59.9195 290.668 59.9819C290.694 60.0443 290.734 60.1006 290.783 60.1475C290.832 60.1944 290.89 60.2309 290.953 60.2547C291.017 60.2785 291.084 60.2892 291.152 60.2861H295.849ZM307.067 53.6281H302.507V55.361H307.615V54.1298C307.621 54.0601 307.613 53.99 307.59 53.9237C307.568 53.8575 307.532 53.7967 307.485 53.7452C307.438 53.6936 307.38 53.6525 307.316 53.6245C307.252 53.5965 307.183 53.5822 307.113 53.5825L307.067 53.6281ZM307.592 58.348H302.553V60.2861H307.113C307.181 60.2892 307.249 60.2785 307.312 60.2547C307.376 60.2309 307.434 60.1944 307.483 60.1475C307.532 60.1006 307.571 60.0443 307.597 59.9819C307.624 59.9195 307.638 59.8523 307.637 59.7845L307.592 58.348ZM303.032 43.5955C303.01 43.4075 303.031 43.2171 303.093 43.0383C303.155 42.8596 303.257 42.6973 303.39 42.5635C303.524 42.4297 303.687 42.3279 303.865 42.2657C304.044 42.2036 304.235 42.1827 304.423 42.2046H309.234C309.422 42.178 309.615 42.1956 309.796 42.2561C309.977 42.3166 310.141 42.4183 310.276 42.5532C310.411 42.6881 310.512 42.8524 310.573 43.0333C310.633 43.2142 310.651 43.4066 310.624 43.5955C310.65 43.7852 310.632 43.9783 310.572 44.1599C310.511 44.3415 310.41 44.5069 310.276 44.6434C310.141 44.7799 309.978 44.8838 309.797 44.9472C309.616 45.0106 309.424 45.0318 309.234 45.0092H304.423C304.224 45.0403 304.02 45.0241 303.829 44.9618C303.638 44.8995 303.464 44.7928 303.322 44.6506C303.18 44.5083 303.073 44.3345 303.011 44.1432C302.948 43.9519 302.932 43.7486 302.963 43.5499L303.032 43.5955ZM303.032 47.5173C303.01 47.3285 303.032 47.1373 303.094 46.9577C303.156 46.7781 303.257 46.6146 303.39 46.4792C303.524 46.3437 303.685 46.2397 303.864 46.1747C304.043 46.1098 304.233 46.0855 304.423 46.1036H310.123C310.464 46.1472 310.778 46.3137 311.005 46.5718C311.232 46.8299 311.357 47.162 311.357 47.5059C311.357 47.8498 311.232 48.1819 311.005 48.44C310.778 48.6982 310.464 48.8646 310.123 48.9082H304.423C304.225 48.9437 304.022 48.9312 303.83 48.872C303.639 48.8127 303.464 48.7083 303.321 48.5676C303.178 48.4269 303.071 48.2539 303.009 48.0632C302.946 47.8725 302.931 47.6697 302.963 47.4717L303.032 47.5173Z" fill="#594A39"/>
<path d="M83.8856 108.468L82.7227 108.126C82.7447 108.087 82.7563 108.044 82.7563 108C82.7563 107.956 82.7447 107.913 82.7227 107.875C82.7227 107.875 82.5174 107.738 82.2894 107.715C81.9673 107.488 81.6761 107.219 81.423 106.917C81.1159 106.595 80.841 106.244 80.6021 105.868C80.3741 105.503 80.2373 105.23 80.1461 105.07C80.0549 104.911 80.1461 104.614 80.1461 104.546L80.6705 104.295C80.8762 104.141 81.1079 104.025 81.3546 103.953C81.5826 103.953 81.7878 103.953 81.9474 104.318C82.2122 104.792 82.608 105.18 83.0875 105.435C83.6709 105.763 84.322 105.952 84.9902 105.988C85.6585 106.023 86.326 105.904 86.9409 105.64C87.1327 105.581 87.3035 105.467 87.4328 105.314C87.5621 105.16 87.6446 104.973 87.6706 104.774C87.6936 104.305 87.548 103.844 87.2602 103.474C87.2094 103.326 87.1233 103.193 87.0093 103.086L86.5533 102.722C86.3481 102.562 86.0745 102.311 85.7096 101.969C85.4452 101.861 85.1864 101.739 84.9344 101.604L84.1592 101.239C83.3894 100.836 82.6889 100.313 82.0842 99.689C81.816 99.3788 81.5793 99.0427 81.3774 98.6857C81.0678 98.36 80.8684 97.9452 80.8074 97.5C80.7281 96.9633 80.7281 96.4179 80.8074 95.8812C80.9024 95.3407 81.0793 94.8178 81.3318 94.3306C81.5035 93.9576 81.7177 93.6057 81.9702 93.2818C82.2666 92.8714 82.6087 92.4153 82.9963 91.9593L84.0908 90.728C84.3443 90.441 84.627 90.1812 84.9344 89.9528L85.6869 89.2459C85.6924 89.2077 85.7116 89.1727 85.741 89.1475C85.7703 89.1224 85.8078 89.1087 85.8465 89.1091C86.0513 88.994 86.2648 88.8949 86.4849 88.8127C86.8747 88.6331 87.2298 88.3861 87.5338 88.0831C88.5777 87.5609 89.6696 87.1409 90.7944 86.829C91.4856 86.6368 92.1977 86.5296 92.9149 86.5098C93.4024 86.5286 93.8788 86.6613 94.3058 86.8974C94.7548 87.1143 95.1575 87.4163 95.4915 87.7866C95.8103 88.1268 96.0172 88.5565 96.0843 89.0179C96.2088 89.5701 96.1446 90.1482 95.9019 90.6596C95.6289 91.3063 95.2683 91.9124 94.8302 92.4609C94.4578 92.9619 93.9935 93.3875 93.4622 93.715C93.2479 93.8149 93.0145 93.8666 92.7781 93.8666C92.5418 93.8666 92.3083 93.8149 92.0941 93.715C91.9301 93.6596 91.7894 93.5509 91.6944 93.4063C91.5994 93.2617 91.5554 93.0894 91.5696 92.917C91.5809 92.7249 91.6355 92.5378 91.7292 92.3697C91.9725 91.971 92.2635 91.6035 92.5957 91.2753C93.0426 90.7058 93.3755 90.0555 93.5762 89.3599C93.593 89.2811 93.5921 89.1995 93.5737 89.121C93.5553 89.0424 93.5198 88.9689 93.4697 88.9058C93.4196 88.8426 93.3561 88.7913 93.2839 88.7555C93.2116 88.7197 93.1323 88.7003 93.0517 88.6987C92.8335 88.6545 92.6087 88.6545 92.3905 88.6987L91.3416 88.9039L90.3839 89.1775C90.1103 89.2687 89.9735 89.3371 89.9735 89.3827C89.9735 89.4967 89.9735 89.5423 89.8595 89.5195L89.4719 89.702L88.6738 90.1808L87.7846 90.7736L87.0321 91.298C86.8041 91.4577 86.6901 91.5489 86.6901 91.5945C86.6901 91.6401 86.4165 91.9821 86.0289 92.1645C85.6259 92.4033 85.2828 92.7308 85.0256 93.1222C84.7292 93.5554 84.41 94.0798 84.0224 94.7183C83.7143 95.1464 83.4829 95.6247 83.3383 96.132C83.1993 96.5306 83.1993 96.9646 83.3383 97.3632C83.498 97.733 83.769 98.0438 84.1136 98.2525C84.5392 98.5413 85.132 98.9061 85.8921 99.3469C86.5199 99.7026 87.1288 100.091 87.7162 100.51C88.2269 100.858 88.7144 101.239 89.1755 101.65C89.4759 101.918 89.7301 102.234 89.9279 102.585C90.1647 102.914 90.3138 103.299 90.3612 103.702C90.4067 104.104 90.4067 104.509 90.3612 104.911C90.3292 105.236 90.2603 105.558 90.156 105.868C90.008 106.223 89.8082 106.553 89.5631 106.849C89.2667 107.191 89.0159 107.35 88.7879 107.327C88.6234 107.364 88.4682 107.434 88.3318 107.533L87.967 107.738C87.6639 107.856 87.3511 107.947 87.0321 108.011L85.3904 108.262C84.8953 108.372 84.392 108.441 83.8856 108.468Z" fill="#B8C318"/>
<path d="M96.358 106.415C96.1482 106.429 95.9399 106.373 95.7651 106.256L95.2407 105.868C94.8968 105.499 94.6052 105.085 94.3742 104.637C94.1726 104.293 94.0848 103.894 94.1234 103.497C94.1766 103.28 94.1766 103.053 94.1234 102.836C94.1234 102.836 93.9866 102.676 94.1234 102.653C94.138 102.601 94.138 102.546 94.1234 102.493C94.2374 102.493 94.283 102.493 94.2374 102.174C94.2371 101.839 94.299 101.507 94.4199 101.194C94.5823 100.686 94.8124 100.203 95.1039 99.7573C95.2566 99.4897 95.424 99.2309 95.6055 98.9821C95.8336 98.6856 96.0844 98.3664 96.3808 98.0472C96.6081 97.7739 96.8599 97.522 97.1332 97.2947C97.5472 96.9332 97.9895 96.6053 98.4557 96.3143C98.8414 96.0754 99.2657 95.9056 99.7098 95.8127C100.137 95.7197 100.573 95.6738 101.009 95.6758C101.214 95.6681 101.418 95.7048 101.607 95.7836C101.796 95.8623 101.965 95.9812 102.104 96.1319C102.49 96.2732 102.818 96.5376 103.039 96.8843C103.228 97.2861 103.344 97.7186 103.381 98.1612C103.432 98.8645 103.378 99.5715 103.221 100.259C102.983 101.333 102.534 102.348 101.899 103.246C101.504 103.835 101.037 104.371 100.508 104.842C100.028 105.233 99.5174 105.584 98.9801 105.891C98.6037 106.159 98.1634 106.324 97.7033 106.37L96.358 106.415ZM99.2766 102.927C99.6668 102.602 99.972 102.187 100.166 101.718C100.348 101.285 100.553 100.761 100.759 100.168C100.854 99.9922 100.909 99.7973 100.918 99.5977C100.918 99.3469 100.918 99.0732 100.918 98.8224C100.918 98.5716 100.918 98.412 100.713 98.3892C100.644 98.3247 100.559 98.2801 100.467 98.26C100.374 98.24 100.278 98.2452 100.189 98.2752C99.9631 98.3822 99.7492 98.5121 99.5502 98.6628C98.9564 99.1465 98.4208 99.6974 97.9541 100.305C97.4469 100.979 97.0964 101.758 96.928 102.585C96.8602 102.95 96.9164 103.327 97.0876 103.656C97.1803 103.773 97.3083 103.856 97.4523 103.893C97.5963 103.93 97.7484 103.919 97.8857 103.862C98.4141 103.659 98.8896 103.34 99.2766 102.927Z" fill="#B8C318"/>
<path d="M107.395 106.917C107.22 106.965 107.035 106.963 106.862 106.911C106.688 106.858 106.533 106.758 106.414 106.62C106.101 106.25 105.896 105.8 105.821 105.321C105.697 104.688 105.697 104.038 105.821 103.405C105.924 103.195 106.001 102.973 106.049 102.744C106.075 102.563 106.075 102.378 106.049 102.197C106.049 102.015 106.163 101.741 106.277 101.353C106.391 100.966 106.528 100.601 106.665 100.213C106.802 99.8256 106.916 99.438 107.03 99.1416C107.144 98.8451 107.235 98.6171 107.281 98.5487C107.326 98.4803 107.417 98.5487 107.486 98.3435C107.507 98.2152 107.507 98.0842 107.486 97.9559C107.457 97.7823 107.457 97.6051 107.486 97.4315C107.53 97.2906 107.599 97.1592 107.691 97.0438C107.663 96.9315 107.663 96.8141 107.691 96.7018C107.708 96.6037 107.708 96.5035 107.691 96.4054C107.671 96.3308 107.671 96.252 107.691 96.1774C107.711 96.1027 107.711 96.024 107.691 95.9494C107.893 95.5666 108.068 95.1704 108.216 94.7637C108.444 94.2165 108.672 93.6236 108.922 92.9396C109.173 92.2555 109.424 91.6171 109.652 90.9786C109.88 90.3402 110.085 89.793 110.222 89.3369C110.315 89.07 110.383 88.7952 110.427 88.5161C110.437 88.3551 110.501 88.2023 110.61 88.0829C110.71 87.974 110.849 87.9086 110.997 87.9005C111.116 87.8131 111.26 87.7653 111.408 87.7637H111.841C111.981 87.9269 112.134 88.0793 112.297 88.2197L112.73 88.6757C112.872 88.8504 112.952 89.0667 112.958 89.2914C112.954 89.5312 112.915 89.7691 112.844 89.9982C112.742 90.317 112.62 90.6292 112.479 90.9331C112.32 91.3207 112.046 91.8907 111.681 92.6432C111.554 93.0139 111.394 93.3725 111.203 93.7148C111.096 93.9098 111.011 94.1163 110.952 94.3305C110.939 94.4514 110.9 94.568 110.838 94.6725C110.838 94.8321 110.701 95.0145 110.632 95.2425L110.313 95.9266L109.903 96.8614L109.538 97.7279C109.477 97.8591 109.431 97.9968 109.401 98.1383V98.3663C109.373 98.4514 109.326 98.5292 109.264 98.5944C109.264 98.5944 109.128 98.7084 109.128 98.9136C109.029 99.4299 108.876 99.9343 108.672 100.418C108.352 101.467 108.079 102.425 107.828 103.314C107.593 103.998 107.463 104.713 107.44 105.435C107.465 105.799 107.386 106.162 107.212 106.484C107.307 106.612 107.369 106.76 107.395 106.917Z" fill="#B8C318"/>
<path d="M113.299 106.005C113.177 105.81 113.004 105.652 112.798 105.549C112.547 105.389 112.41 105.275 112.41 105.207C112.388 105.081 112.35 104.958 112.296 104.842C112.228 104.718 112.143 104.603 112.045 104.5C112.045 104.386 112.045 104.089 112.045 103.656C112.227 103.091 112.456 102.542 112.729 102.015C113.026 101.353 113.368 100.692 113.733 100.031C113.905 99.8496 114.058 99.6509 114.189 99.438C114.272 99.2586 114.388 99.0962 114.531 98.9591C114.508 98.8849 114.508 98.8054 114.531 98.7311C114.597 98.7045 114.67 98.7045 114.736 98.7311L114.964 98.2751C115.069 98.1104 115.191 97.9575 115.329 97.8191L116.058 97.0438C116.332 96.7702 116.628 96.5194 116.925 96.2686C117.155 96.0697 117.399 95.8868 117.655 95.7213C118.028 95.48 118.464 95.3532 118.909 95.3565C119.308 95.3744 119.691 95.5181 120.003 95.767L120.391 96.109L121.075 96.679C121.326 96.8842 121.554 97.0666 121.736 97.249L122.808 98.1839L122.306 99.6204C122.072 100.254 122.01 100.938 122.124 101.604C122.225 102.128 122.402 102.635 122.648 103.109C122.739 103.296 122.872 103.46 123.036 103.588C123.23 103.708 123.448 103.786 123.674 103.816C123.829 103.835 123.977 103.889 124.107 103.975C124.175 104.03 124.229 104.099 124.265 104.179C124.301 104.258 124.317 104.345 124.313 104.432C124.338 104.784 124.25 105.135 124.062 105.435C123.937 105.612 123.75 105.734 123.537 105.777C122.931 105.866 122.312 105.804 121.736 105.594C120.914 105.027 120.273 104.236 119.889 103.314C119.768 102.995 119.699 102.79 119.684 102.699L119.387 103.063L119.023 103.451C118.04 104.545 116.866 105.449 115.557 106.119C115.199 106.283 114.807 106.359 114.414 106.339C114.021 106.319 113.639 106.204 113.299 106.005ZM115.58 103.428C115.979 103.182 116.36 102.908 116.72 102.607L118.316 101.239C118.781 100.819 119.195 100.344 119.547 99.8256L120.163 98.7995C120.047 98.4906 119.877 98.2048 119.661 97.9559C119.538 97.8359 119.376 97.7632 119.205 97.7507C118.86 97.7974 118.544 97.9675 118.316 98.2295C117.876 98.6388 117.486 99.0979 117.153 99.5976C116.72 100.19 116.241 100.943 115.716 101.878C115.405 102.454 115.146 103.057 114.941 103.679C115.174 103.662 115.397 103.574 115.58 103.428Z" fill="#B8C318"/>
<path d="M127.415 105.845L126.868 105.321C126.762 105.201 126.688 105.057 126.653 104.902C126.617 104.747 126.62 104.585 126.663 104.431C126.696 103.954 126.773 103.481 126.891 103.018C126.891 102.607 127.096 102.151 127.233 101.604C127.304 101.21 127.403 100.821 127.529 100.441C127.689 99.8938 127.871 99.2781 128.099 98.6397C128.327 98.0013 128.578 97.3628 128.829 96.7928C129.006 96.3389 129.228 95.9036 129.49 95.4931C129.746 95.2837 130.072 95.1779 130.402 95.1967C130.702 95.1691 131.001 95.25 131.246 95.4247C131.355 95.5466 131.431 95.6943 131.467 95.854C131.503 96.0137 131.498 96.1799 131.451 96.3368C131.278 97.0316 131.009 97.6992 130.653 98.3205C130.555 98.5746 130.432 98.8189 130.288 99.0502C130.178 99.2577 130.08 99.4708 129.992 99.6886C129.992 99.8482 129.992 99.9166 129.992 99.8938C130.159 99.6207 130.366 99.3747 130.607 99.1642L131.588 98.3433L132.546 97.6364L133.184 97.226L133.708 96.998L134.119 96.8384C134.575 96.6287 135.078 96.5423 135.578 96.5876C136.103 96.5876 136.422 96.8156 136.536 97.0892C136.65 97.3628 136.65 97.4084 136.878 97.5452C137.106 97.6821 136.878 97.5453 137.015 97.7277C137.151 97.9101 136.878 98.0469 136.627 98.2977C136.403 98.5264 136.103 98.6644 135.783 98.6853C135.555 98.7005 135.332 98.7545 135.122 98.8449L134.438 99.1186L132.477 100.236C131.812 100.637 131.213 101.136 130.699 101.718L130.265 102.151C130.086 102.318 129.932 102.51 129.809 102.721C129.671 102.911 129.577 103.129 129.536 103.36C129.434 103.658 129.35 103.963 129.285 104.272C129.271 104.446 129.271 104.622 129.285 104.796C129.202 105.089 129.071 105.367 128.897 105.617C128.727 105.858 128.5 106.054 128.236 106.187C127.985 106.255 127.734 106.141 127.415 105.845Z" fill="#B8C318"/>
<path d="M147.365 108.239C147.247 108.231 147.133 108.193 147.034 108.13C146.934 108.066 146.852 107.978 146.795 107.875C146.65 107.709 146.527 107.525 146.43 107.327C146.276 106.944 146.229 106.527 146.294 106.119C146.406 105.27 146.613 104.437 146.909 103.634C147.092 102.904 147.251 102.379 147.365 102.06C147.457 101.826 147.518 101.581 147.548 101.331C147.521 101.149 147.521 100.965 147.548 100.783C147.569 100.647 147.569 100.509 147.548 100.373C147.548 100.373 147.776 100.373 147.89 100.054C148.025 99.7888 148.117 99.504 148.163 99.2101C148.163 98.8908 148.323 98.6172 148.391 98.412C148.414 98.2762 148.414 98.1374 148.391 98.0016C148.523 97.7812 148.623 97.5432 148.688 97.2947C148.831 96.8974 148.999 96.509 149.189 96.1319C149.349 95.539 149.509 94.9462 149.714 94.3305C149.919 93.7149 150.101 93.1449 150.284 92.5977C150.466 92.0504 150.671 91.6172 150.785 91.3208C150.899 91.0244 151.173 90.3175 151.287 90.0667C151.401 89.8159 151.401 89.6791 151.287 89.6107C151.173 89.5423 151.082 89.2686 151.105 88.881C151.111 88.6818 151.161 88.4864 151.251 88.309C151.342 88.1315 151.471 87.9765 151.629 87.8549C151.848 87.617 152.122 87.4369 152.427 87.3305C152.79 87.2247 153.166 87.1709 153.544 87.1709H154.844H156.691L157.307 87.4217L157.991 87.6953C158.173 87.6953 158.287 87.8549 158.287 87.9233C158.287 87.9918 158.287 88.1058 158.287 88.1286H158.561C158.813 88.1807 159.043 88.3079 159.222 88.4934C159.551 88.7548 159.863 89.0366 160.157 89.337C160.439 89.6262 160.664 89.9668 160.818 90.3403C160.972 90.6332 161.102 90.9383 161.206 91.2524C161.319 91.655 161.319 92.081 161.206 92.4836C161.182 92.768 161.137 93.0501 161.069 93.3273C161.036 93.5282 160.966 93.7215 160.864 93.8973C160.747 93.984 160.639 94.0834 160.544 94.1937C160.462 94.2805 160.414 94.3937 160.408 94.513C160.352 94.7032 160.275 94.8867 160.18 95.0602C160.02 95.3566 159.838 95.6987 159.61 96.0635C159.382 96.4283 159.131 96.7931 158.857 97.1579C158.641 97.4683 158.396 97.7583 158.127 98.0244C157.865 98.3394 157.567 98.6226 157.238 98.868C156.957 99.1087 156.66 99.3296 156.349 99.5293C155.792 99.7823 155.221 100.003 154.639 100.191C154.034 100.395 153.417 100.562 152.792 100.692C152.329 100.802 151.854 100.856 151.378 100.852C151.008 100.885 150.641 100.954 150.284 101.057C150.188 101.106 150.105 101.177 150.041 101.264C149.978 101.351 149.936 101.452 149.919 101.559L149.645 102.334C149.574 102.517 149.528 102.708 149.509 102.904L149.28 103.542C149.144 103.884 149.007 104.272 148.847 104.728C148.688 105.184 148.528 105.64 148.391 106.096C148.254 106.552 148.163 106.963 148.095 107.282C148.01 107.529 147.84 107.739 147.616 107.875C147.555 108.01 147.47 108.134 147.365 108.239ZM151.424 98.6856C151.424 98.6856 151.743 98.6856 152.176 98.6856C152.691 98.5916 153.195 98.4465 153.681 98.2524C154.081 98.1142 154.469 97.9466 154.844 97.7508C155.228 97.5681 155.602 97.3625 155.961 97.1351C156.179 96.9832 156.384 96.8155 156.577 96.6335C156.882 96.3138 157.172 95.979 157.443 95.6302L157.763 95.0602C157.899 94.7866 158.013 94.513 158.15 94.285C158.363 93.9105 158.531 93.5126 158.652 93.0993C158.816 92.6864 158.855 92.2347 158.766 91.7996C158.694 91.3372 158.497 90.9034 158.196 90.5455C157.905 90.2067 157.526 89.9543 157.101 89.8159L156.075 89.6791C155.772 89.6456 155.466 89.6456 155.163 89.6791C154.913 89.7466 154.69 89.89 154.525 90.0895C154.314 90.4361 154.139 90.8028 154 91.184L153.43 92.2784C153.185 92.7343 152.972 93.2067 152.792 93.6921C152.442 94.9538 152.146 95.9115 151.903 96.5651C151.629 97.2492 151.469 97.6824 151.401 97.8876C151.444 98.0289 151.444 98.1795 151.401 98.3208C151.367 98.3766 151.351 98.4416 151.355 98.5068C151.359 98.572 151.383 98.6345 151.424 98.6856Z" fill="#B8C318"/>
<path d="M162.825 106.414C162.615 106.427 162.407 106.371 162.232 106.254L161.708 105.867C161.357 105.504 161.064 105.088 160.841 104.635C160.64 104.291 160.552 103.892 160.59 103.495C160.644 103.278 160.644 103.051 160.59 102.834C160.59 102.834 160.454 102.674 160.59 102.652C160.727 102.629 160.59 102.652 160.704 102.492C160.818 102.332 160.864 102.492 160.818 102.173C160.806 101.837 160.868 101.502 161.001 101.192C161.163 100.685 161.393 100.202 161.685 99.7558C161.838 99.4883 162.005 99.2295 162.187 98.9806L162.939 98.0457C163.174 97.7714 163.433 97.5195 163.714 97.2933C164.124 96.9264 164.567 96.5982 165.037 96.3128C165.416 96.0783 165.833 95.9088 166.268 95.8112C166.695 95.7206 167.131 95.6747 167.568 95.6744C167.776 95.6648 167.984 95.7006 168.177 95.7794C168.369 95.8581 168.543 95.9779 168.685 96.1304C169.065 96.2715 169.386 96.5366 169.597 96.8829C169.795 97.283 169.918 97.7156 169.962 98.1598C170.004 98.8642 169.942 99.5709 169.779 100.257C169.509 101.297 169.037 102.274 168.389 103.13C167.994 103.719 167.527 104.255 166.998 104.727C166.514 105.113 166.004 105.463 165.47 105.775C165.094 106.044 164.653 106.209 164.193 106.254L162.825 106.414ZM165.744 102.925C166.127 102.594 166.431 102.181 166.633 101.717C166.815 101.284 167.02 100.759 167.226 100.166C167.321 99.9907 167.376 99.7958 167.385 99.5962C167.408 99.3383 167.408 99.0789 167.385 98.821C167.385 98.5702 167.385 98.4105 167.203 98.3877C167.134 98.3233 167.049 98.2787 166.956 98.2586C166.864 98.2385 166.768 98.2438 166.678 98.2738C166.448 98.3847 166.227 98.5144 166.017 98.6614C165.436 99.1515 164.909 99.7018 164.444 100.303C163.928 100.972 163.576 101.753 163.418 102.583C163.35 102.948 163.406 103.325 163.577 103.655C163.67 103.771 163.798 103.854 163.942 103.891C164.086 103.928 164.238 103.917 164.375 103.86C164.893 103.649 165.359 103.331 165.744 102.925Z" fill="#B8C318"/>
<path d="M174.363 105.752C174.089 105.752 173.792 105.524 173.519 105.113C173.197 104.627 172.966 104.086 172.835 103.517C172.674 102.916 172.612 102.292 172.652 101.67C172.61 101.177 172.61 100.681 172.652 100.188C172.652 99.8235 172.812 99.4587 172.88 99.0939C172.897 98.9958 172.897 98.8956 172.88 98.7975C172.891 98.6761 172.891 98.554 172.88 98.4326C172.88 98.273 172.88 97.9766 173.063 97.5662C173.123 97.2933 173.207 97.0263 173.314 96.7682C173.353 96.6186 173.423 96.4788 173.519 96.3577C173.697 96.0771 173.973 95.8736 174.294 95.7877C174.557 95.7216 174.836 95.7626 175.069 95.9017C175.186 95.9525 175.287 96.0349 175.359 96.1396C175.432 96.2444 175.473 96.3673 175.48 96.4945C175.629 96.6724 175.703 96.9015 175.685 97.133C175.719 97.4742 175.719 97.8179 175.685 98.159C175.67 98.4278 175.584 98.6876 175.434 98.9115C175.41 99.1617 175.41 99.4137 175.434 99.6639C175.434 100.052 175.32 100.485 175.275 100.918C175.247 101.271 175.193 101.622 175.115 101.967C175.115 102.309 175.115 102.537 175.115 102.628C175.115 102.719 175.389 102.628 175.685 102.354C176.095 101.937 176.462 101.478 176.779 100.986C177.167 100.416 177.441 99.9603 177.623 99.6411C177.806 99.3219 177.942 99.0255 178.056 98.7519L178.398 97.7942C178.471 97.5443 178.562 97.3003 178.672 97.0645C178.734 96.9159 178.819 96.7775 178.923 96.6541C179.008 96.5119 179.134 96.3988 179.285 96.3296C179.435 96.2604 179.603 96.2384 179.766 96.2665C180.077 96.3024 180.374 96.4119 180.633 96.5857C180.871 96.833 181.016 97.1554 181.043 97.4978C181.079 97.941 180.983 98.3848 180.77 98.7747C180.602 99.1298 180.457 99.4954 180.336 99.8691C180.198 100.28 180.084 100.699 179.994 101.123C179.911 101.475 179.865 101.834 179.858 102.195C179.858 102.582 179.858 102.811 180.017 102.879C180.144 102.915 180.278 102.915 180.405 102.879C180.645 102.881 180.878 102.8 181.066 102.651C181.389 102.374 181.694 102.077 181.978 101.762C182.208 101.532 182.414 101.28 182.594 101.009C182.855 100.657 183.099 100.292 183.324 99.9147C183.567 99.5195 183.772 99.1775 183.939 98.8887C184.05 98.7226 184.127 98.5368 184.167 98.3415C184.204 98.1563 184.3 97.9882 184.441 97.8626L184.714 97.4978C184.809 97.3748 184.935 97.2802 185.079 97.2242C185.249 97.1668 185.434 97.1668 185.604 97.2242C185.787 97.2775 185.953 97.38 186.082 97.5206C186.224 97.6775 186.305 97.8796 186.31 98.0906C186.33 98.3487 186.33 98.6078 186.31 98.8659L186.06 99.7551C185.946 100.12 185.809 100.462 185.695 100.804C185.616 101.037 185.509 101.259 185.376 101.465L184.965 101.898C184.773 102.096 184.597 102.31 184.441 102.537C184.129 102.936 183.786 103.31 183.415 103.654L182.867 104.133C182.474 104.534 182.01 104.858 181.499 105.091C181.041 105.309 180.546 105.44 180.04 105.478C179.667 105.533 179.287 105.452 178.968 105.25C178.684 105.108 178.449 104.885 178.29 104.609C178.132 104.333 178.059 104.017 178.079 103.7C178.068 103.496 178.022 103.295 177.942 103.107H177.646C177.468 103.188 177.329 103.335 177.258 103.517C177.028 103.898 176.726 104.231 176.369 104.498C175.992 104.818 175.578 105.093 175.138 105.319C174.91 105.513 174.647 105.66 174.363 105.752Z" fill="#B8C318"/>
<path d="M194.086 106.026C193.532 106.358 192.906 106.553 192.262 106.596C191.658 106.643 191.051 106.557 190.483 106.345C189.952 106.14 189.487 105.793 189.138 105.342C188.9 104.975 188.715 104.576 188.591 104.156C188.436 103.404 188.436 102.628 188.591 101.876C188.712 100.957 188.981 100.064 189.389 99.2312C189.801 98.3939 190.339 97.6249 190.985 96.951C191.534 96.3086 192.241 95.8211 193.037 95.5373C193.305 95.4476 193.579 95.379 193.858 95.3321C194.222 95.2955 194.589 95.2955 194.952 95.3321C195.354 95.3911 195.746 95.5062 196.115 95.6741C196.404 95.7878 196.661 95.9674 196.868 96.1986C197.133 96.4438 197.336 96.7486 197.461 97.0878C197.554 97.3509 197.593 97.6302 197.575 97.9087C197.447 98.6103 197.175 99.2779 196.777 99.8696C196.329 100.573 195.676 101.122 194.907 101.443C194.534 101.59 194.143 101.682 193.744 101.717C193.138 101.731 192.533 101.669 191.943 101.534C191.487 101.443 191.19 101.489 191.053 101.671C190.884 102.017 190.821 102.406 190.871 102.788C190.896 103.103 190.973 103.411 191.099 103.7C191.173 103.833 191.274 103.948 191.396 104.038C191.518 104.129 191.658 104.192 191.806 104.225C192.121 104.292 192.448 104.292 192.764 104.225L193.47 103.905L193.904 103.609L194.337 103.267L194.702 102.993L194.975 102.857H195.272C195.505 102.894 195.716 103.015 195.865 103.199C196.029 103.366 196.154 103.569 196.229 103.791C196.199 104.025 196.104 104.246 195.956 104.43C195.738 104.746 195.486 105.037 195.203 105.296C194.859 105.581 194.485 105.825 194.086 106.026ZM193.721 99.6644C193.926 99.5491 194.117 99.4115 194.291 99.254C194.548 99.0573 194.785 98.8358 194.998 98.5927C195.153 98.4434 195.264 98.2539 195.317 98.0455C195.311 97.9239 195.268 97.807 195.195 97.7096C195.122 97.6122 195.022 97.5387 194.907 97.4982C194.562 97.3667 194.18 97.3667 193.835 97.4982C193.631 97.5611 193.443 97.6704 193.288 97.8175C193.064 97.9946 192.851 98.185 192.65 98.3875L192.102 99.0259C191.991 99.1773 191.892 99.3374 191.806 99.5048C191.934 99.6216 192.092 99.7005 192.262 99.7328C192.512 99.7574 192.764 99.7574 193.014 99.7328C193.252 99.7351 193.489 99.7121 193.721 99.6644Z" fill="#B8C318"/>
<path d="M200.082 105.844C199.888 105.682 199.705 105.507 199.534 105.32C199.43 105.2 199.355 105.057 199.315 104.902C199.276 104.748 199.273 104.586 199.306 104.431C199.306 103.906 199.443 103.427 199.534 103.017C199.626 102.606 199.74 102.15 199.876 101.603C200.013 101.056 200.013 100.988 200.173 100.44C200.332 99.8932 200.538 99.2775 200.766 98.6391C200.994 98.0006 201.244 97.3622 201.472 96.7921C201.659 96.3425 201.88 95.908 202.134 95.4925C202.399 95.2834 202.731 95.1781 203.069 95.1961C203.368 95.1705 203.667 95.2512 203.912 95.4241C204.022 95.5459 204.098 95.6937 204.134 95.8533C204.17 96.013 204.164 96.1792 204.117 96.3361C203.934 97.0276 203.666 97.6938 203.319 98.3198C203.212 98.5697 203.09 98.8133 202.955 99.0495C202.836 99.2523 202.736 99.4661 202.658 99.6879C202.658 99.8475 202.658 99.9159 202.658 99.8931C202.834 99.6203 203.05 99.3745 203.297 99.1635C203.593 98.8899 203.935 98.6163 204.277 98.3427L205.235 97.6358L205.873 97.2254C206.038 97.1277 206.214 97.051 206.398 96.9973L206.808 96.8378C207.255 96.6257 207.752 96.5391 208.245 96.5869C208.769 96.5869 209.088 96.815 209.202 97.0886C209.224 97.1842 209.266 97.2741 209.325 97.3526C209.384 97.4311 209.459 97.4965 209.544 97.5446C209.544 97.5446 209.681 97.5446 209.704 97.727C209.727 97.9094 209.567 98.0462 209.316 98.297C209.089 98.5206 208.79 98.6577 208.473 98.6847C208.244 98.697 208.02 98.7511 207.811 98.8443L207.127 99.1179L205.166 100.235C204.497 100.63 203.897 101.131 203.388 101.717L202.955 102.15C202.775 102.317 202.622 102.509 202.499 102.721C202.351 102.907 202.249 103.126 202.202 103.359C202.202 103.678 202.043 103.975 201.974 104.271C201.906 104.567 201.974 104.75 201.974 104.795C201.897 105.087 201.774 105.364 201.609 105.616C201.439 105.858 201.212 106.053 200.948 106.186C200.652 106.255 200.378 106.141 200.082 105.844Z" fill="#B8C318"/>
<path d="M221.287 107.918C220.742 107.497 220.331 106.927 220.102 106.277C219.839 105.649 219.707 104.974 219.714 104.293C219.702 103.07 219.801 101.849 220.011 100.645C220.224 99.4495 220.514 98.2691 220.877 97.1105C221.128 96.4265 221.401 95.7425 221.675 95.0356C221.949 94.3288 222.268 93.6675 222.564 93.0291C222.861 92.3907 223.18 91.8434 223.454 91.4102C223.958 90.5247 224.571 89.7052 225.278 88.9705C225.706 88.5269 226.18 88.1295 226.691 87.7848C227.296 87.4863 227.941 87.2788 228.607 87.1691C229.358 87.0048 230.136 87.0048 230.887 87.1691C231.395 87.3191 231.891 87.5098 232.369 87.7392C232.826 87.9849 233.248 88.2917 233.623 88.6512C233.817 88.8332 233.986 89.0402 234.125 89.2669C234.234 89.47 234.289 89.6977 234.284 89.9281C234.262 90.2405 234.124 90.5334 233.897 90.749C233.652 91.005 233.346 91.1935 233.007 91.2962C232.878 91.3453 232.737 91.3542 232.603 91.3217C232.469 91.2891 232.347 91.2166 232.255 91.1138C232.053 90.7993 231.816 90.5086 231.548 90.2473C231.334 90.0585 231.087 89.9116 230.818 89.8141C230.571 89.6661 230.285 89.5947 229.998 89.6089C229.61 89.606 229.225 89.6676 228.858 89.7913C228.437 89.9226 228.049 90.1401 227.717 90.4297L227.193 90.9086C226.948 91.1517 226.72 91.4107 226.509 91.6838C226.263 91.9845 226.042 92.3048 225.848 92.6415C225.327 93.4925 224.877 94.3847 224.502 95.3093C224.108 96.2735 223.78 97.2639 223.522 98.2734C223.385 98.7067 223.248 99.2311 223.089 99.8695C222.929 100.508 222.792 101.146 222.678 101.785C222.56 102.326 222.477 102.875 222.428 103.427C222.339 103.947 222.339 104.479 222.428 105C222.458 105.167 222.528 105.324 222.631 105.459C222.734 105.594 222.867 105.702 223.02 105.775C223.437 105.897 223.88 105.897 224.297 105.775C224.824 105.647 225.33 105.448 225.802 105.182C226.336 104.892 226.833 104.54 227.284 104.133C227.768 103.676 228.196 103.163 228.561 102.606C228.903 101.944 229.177 101.352 229.405 100.827C229.6 100.428 229.716 99.994 229.747 99.5503C229.747 99.2311 229.587 99.0943 229.245 99.1171C228.623 99.1711 227.998 99.1711 227.375 99.1171C227.184 99.099 226.998 99.0385 226.832 98.9399C226.667 98.8413 226.525 98.7071 226.418 98.5471C226.167 98.5471 226.053 98.2734 226.03 97.9086C226.03 97.7301 226.079 97.5551 226.172 97.4024C226.264 97.2497 226.397 97.1252 226.555 97.0421C226.976 96.8428 227.434 96.734 227.9 96.7229C228.484 96.6665 229.072 96.6665 229.656 96.7229C230.164 96.7612 230.661 96.9007 231.115 97.1334C231.512 97.3236 231.822 97.6578 231.981 98.0682C232.146 98.4819 232.231 98.9228 232.232 99.3679C232.268 99.7928 232.268 100.22 232.232 100.645C232.055 101.311 231.818 101.959 231.525 102.583C231.206 103.265 230.808 103.908 230.34 104.498C229.997 104.955 229.607 105.376 229.177 105.752C228.689 106.194 228.162 106.591 227.603 106.938C227.121 107.265 226.61 107.548 226.076 107.782C225.347 108.118 224.582 108.37 223.796 108.534C223.359 108.646 222.902 108.648 222.464 108.541C222.027 108.433 221.623 108.22 221.287 107.918Z" fill="#B8C318"/>
<path d="M240.669 106.026C240.129 106.343 239.526 106.536 238.903 106.591C238.28 106.647 237.653 106.562 237.066 106.345C236.531 106.145 236.065 105.797 235.721 105.342C235.463 104.986 235.277 104.583 235.173 104.156C235.004 103.406 235.004 102.627 235.173 101.876C235.303 100.956 235.58 100.063 235.994 99.2312C236.408 98.4002 236.937 97.6324 237.568 96.951C238.129 96.3123 238.843 95.8259 239.642 95.5373C239.902 95.445 240.169 95.3763 240.441 95.3321C240.812 95.2955 241.186 95.2955 241.558 95.3321C241.96 95.3911 242.351 95.5062 242.721 95.6741C243.009 95.7878 243.267 95.9674 243.473 96.1986C243.738 96.4439 243.942 96.7486 244.066 97.0878C244.159 97.3509 244.198 97.6302 244.18 97.9087C244.053 98.6145 243.773 99.2839 243.359 99.8696C243.035 100.39 242.595 100.828 242.072 101.149C241.55 101.469 240.96 101.664 240.349 101.717C239.744 101.732 239.138 101.67 238.548 101.534C238.092 101.443 237.796 101.489 237.659 101.671C237.48 102.014 237.409 102.404 237.454 102.788C237.496 103.102 237.581 103.409 237.704 103.7C237.776 103.835 237.876 103.951 237.999 104.042C238.121 104.133 238.262 104.195 238.411 104.225C238.719 104.289 239.038 104.289 239.346 104.225L240.053 103.905C240.213 103.82 240.366 103.721 240.509 103.609L240.942 103.267L241.284 102.993C241.373 102.929 241.474 102.883 241.581 102.857H241.854C242.094 102.892 242.313 103.014 242.47 103.199C242.635 103.366 242.76 103.569 242.835 103.791C242.804 104.025 242.71 104.246 242.561 104.43C242.335 104.746 242.075 105.037 241.786 105.296C241.443 105.582 241.068 105.827 240.669 106.026ZM240.281 99.6644C240.497 99.5566 240.697 99.4184 240.874 99.254C241.125 99.0488 241.353 98.8208 241.581 98.5927C241.731 98.4437 241.835 98.2532 241.877 98.0455C241.87 97.9239 241.828 97.807 241.755 97.7096C241.682 97.6122 241.581 97.5387 241.467 97.4983C241.121 97.3668 240.74 97.3668 240.395 97.4983C240.195 97.5715 240.01 97.6796 239.848 97.8175C239.631 97.995 239.426 98.1854 239.232 98.3875L238.685 99.0259C238.568 99.1781 238.461 99.3381 238.366 99.5048C238.497 99.6171 238.653 99.6955 238.822 99.7328C239.079 99.7584 239.339 99.7584 239.597 99.7328C239.827 99.7362 240.056 99.7132 240.281 99.6644Z" fill="#B8C318"/>
<path d="M255.923 105.912C255.56 105.902 255.202 105.816 254.874 105.661C254.557 105.45 254.323 105.136 254.213 104.772C254.127 104.46 254.089 104.137 254.099 103.814V102.856C254.118 102.583 254.118 102.309 254.099 102.036V101.488C254.099 101.215 253.985 101.032 253.871 100.964C253.757 100.896 253.597 100.964 253.346 100.964C252.895 101.183 252.461 101.434 252.047 101.716C251.591 102.036 251.089 102.4 250.587 102.811L249.037 104.111C248.704 104.465 248.392 104.838 248.102 105.228C247.897 105.501 247.714 105.638 247.486 105.638C247.417 105.688 247.333 105.715 247.247 105.715C247.161 105.715 247.077 105.688 247.007 105.638L246.46 105.228C246.293 105.05 246.141 104.86 246.004 104.658L245.662 104.179C245.637 103.906 245.637 103.631 245.662 103.358C245.717 103.094 245.793 102.835 245.89 102.583L246.278 101.671C246.367 101.534 246.444 101.389 246.506 101.238C246.506 101.101 246.643 100.941 246.734 100.782C246.829 100.471 246.943 100.166 247.076 99.8695C247.213 99.5274 247.35 99.1854 247.486 98.889C247.623 98.5926 247.851 97.9769 247.965 97.6121C248.079 97.2473 248.17 96.8597 248.262 96.4264C248.262 96.4264 248.262 96.4264 248.262 96.2668C248.262 96.1072 248.262 96.13 248.421 96.13C248.558 96.13 248.809 96.13 249.174 96.13C249.477 96.1641 249.767 96.2739 250.017 96.4493C250.214 96.6107 250.369 96.8174 250.468 97.0517C250.567 97.286 250.608 97.5409 250.587 97.7945C250.485 98.574 250.195 99.3171 249.744 99.9607C249.622 100.253 249.478 100.535 249.31 100.804C249.208 100.964 249.138 101.142 249.105 101.329L249.88 100.759L250.428 100.371L251.043 99.8466C251.363 99.573 251.727 99.2994 252.115 99.0258C252.503 98.7522 252.799 98.5242 253.027 98.3646C253.277 98.18 253.545 98.0197 253.825 97.8857C254.015 97.7502 254.242 97.6773 254.475 97.6773C254.708 97.6773 254.935 97.7502 255.125 97.8857C255.396 98.0234 255.655 98.1836 255.9 98.3646C256.084 98.4865 256.227 98.6614 256.31 98.8662C256.31 98.8662 256.31 99.0486 256.31 99.1626C256.301 99.2764 256.301 99.3908 256.31 99.5046C256.287 99.8691 256.287 100.235 256.31 100.599V101.876C256.36 102.262 256.36 102.653 256.31 103.039C256.319 103.099 256.319 103.161 256.31 103.221C256.31 103.221 256.31 103.221 256.31 103.381L256.447 103.791C256.497 103.94 256.558 104.085 256.63 104.225C256.63 104.384 256.789 104.589 256.881 104.84C256.841 105.127 256.694 105.387 256.47 105.57C256.312 105.719 256.126 105.836 255.923 105.912Z" fill="#B8C318"/>
<path d="M266.184 106.026C265.63 106.357 265.005 106.553 264.36 106.596C263.756 106.642 263.149 106.557 262.582 106.345C262.047 106.145 261.581 105.797 261.236 105.342C260.988 104.98 260.803 104.579 260.689 104.156C260.52 103.405 260.52 102.626 260.689 101.876C260.818 100.956 261.096 100.063 261.51 99.2309C261.923 98.3999 262.453 97.6321 263.083 96.9507C263.645 96.312 264.358 95.8256 265.158 95.537C265.418 95.4447 265.685 95.376 265.956 95.3318C266.328 95.2957 266.702 95.2957 267.074 95.3318C267.475 95.3907 267.867 95.5059 268.236 95.6738C268.525 95.7874 268.782 95.9671 268.989 96.1983C269.254 96.4435 269.457 96.7483 269.582 97.0875C269.675 97.3505 269.714 97.6298 269.696 97.9084C269.569 98.6142 269.289 99.2836 268.875 99.8693C268.551 100.39 268.111 100.828 267.588 101.148C267.066 101.469 266.476 101.663 265.865 101.716C265.259 101.73 264.654 101.669 264.064 101.534C263.608 101.443 263.311 101.488 263.174 101.671C262.996 102.014 262.925 102.403 262.969 102.788C263.012 103.102 263.096 103.408 263.22 103.7C263.294 103.832 263.395 103.948 263.517 104.038C263.639 104.128 263.779 104.192 263.927 104.224C264.235 104.289 264.554 104.289 264.862 104.224L265.591 103.905L266.025 103.609L266.458 103.267L266.8 102.993L267.096 102.856H267.37C267.61 102.892 267.828 103.014 267.986 103.198C268.151 103.366 268.275 103.568 268.35 103.791C268.32 104.025 268.225 104.246 268.077 104.43C267.851 104.746 267.591 105.036 267.302 105.296C266.959 105.582 266.584 105.826 266.184 106.026ZM265.797 99.6641C266.013 99.5562 266.212 99.418 266.389 99.2536C266.64 99.0484 266.868 98.8204 267.096 98.5924C267.247 98.4433 267.35 98.2529 267.393 98.0452C267.386 97.9236 267.344 97.8067 267.271 97.7093C267.197 97.6119 267.097 97.5383 266.982 97.4979C266.638 97.3643 266.255 97.3643 265.911 97.4979C265.711 97.5712 265.526 97.6792 265.363 97.8171C265.147 97.9947 264.941 98.1851 264.748 98.3872L264.201 99.0256C264.083 99.1778 263.977 99.3378 263.881 99.5045C264.012 99.6168 264.169 99.6952 264.337 99.7325C264.595 99.7581 264.855 99.7581 265.113 99.7325C265.342 99.7359 265.572 99.7129 265.797 99.6641Z" fill="#B8C318"/>
<path d="M272.18 105.844C271.979 105.683 271.788 105.507 271.61 105.32C271.51 105.198 271.439 105.054 271.403 104.899C271.368 104.745 271.368 104.585 271.405 104.431C271.45 103.955 271.526 103.483 271.633 103.017C271.633 102.606 271.838 102.15 271.975 101.603C272.112 101.056 272.112 100.988 272.272 100.44C272.431 99.8932 272.636 99.2775 272.864 98.6391C273.092 98.0006 273.32 97.3622 273.571 96.7921C273.758 96.3425 273.979 95.908 274.233 95.4925C274.498 95.2834 274.83 95.1781 275.167 95.1961C275.467 95.1705 275.765 95.2512 276.011 95.4241C276.123 95.5445 276.199 95.6934 276.231 95.8544C276.263 96.0153 276.25 96.1821 276.193 96.3361C276.02 97.031 275.751 97.6985 275.395 98.3198C275.296 98.5696 275.182 98.8132 275.053 99.0495C274.925 99.2473 274.825 99.4622 274.757 99.6879C274.757 99.8475 274.757 99.9159 274.757 99.8931C274.926 99.615 275.142 99.3682 275.395 99.1635L276.353 98.3427L277.334 97.6358L277.949 97.2254C278.124 97.1317 278.307 97.0553 278.496 96.9973L278.907 96.8378C279.354 96.6257 279.851 96.5391 280.343 96.5869C280.868 96.5869 281.187 96.815 281.301 97.0886C281.323 97.1842 281.365 97.2741 281.424 97.3526C281.483 97.4311 281.557 97.4965 281.643 97.5446C281.643 97.5446 281.78 97.5446 281.78 97.727C281.78 97.9094 281.78 98.0462 281.392 98.297C281.171 98.5294 280.869 98.6681 280.549 98.6847C280.328 98.6997 280.112 98.7538 279.91 98.8443L279.226 99.1179L277.265 100.235C276.589 100.629 275.981 101.13 275.464 101.717C275.339 101.873 275.202 102.017 275.053 102.15C274.868 102.311 274.713 102.504 274.597 102.721C274.44 102.901 274.337 103.122 274.301 103.359C274.301 103.678 274.118 103.975 274.05 104.271C274.036 104.446 274.036 104.621 274.05 104.795C273.973 105.087 273.85 105.364 273.685 105.616C273.512 105.864 273.276 106.061 273.001 106.186C272.75 106.255 272.477 106.141 272.18 105.844Z" fill="#B8C318"/>
<path d="M283.901 106.004C283.773 105.813 283.601 105.657 283.399 105.548C283.126 105.388 283.012 105.274 283.012 105.206C282.989 105.077 282.943 104.953 282.875 104.841C282.815 104.712 282.729 104.595 282.624 104.499C282.624 104.385 282.624 104.088 282.624 103.655C282.624 103.222 283.012 102.652 283.308 102.013C283.605 101.375 283.947 100.691 284.312 100.03C284.497 99.8604 284.651 99.6597 284.768 99.4369C284.867 99.2677 284.982 99.1075 285.11 98.9581C285.095 98.9219 285.087 98.8832 285.087 98.8441C285.087 98.8049 285.095 98.7662 285.11 98.7301C285.141 98.714 285.177 98.7057 285.212 98.7057C285.248 98.7057 285.283 98.714 285.315 98.7301L285.543 98.274C285.637 98.1083 285.752 97.9551 285.885 97.818L286.614 97.0427L287.504 96.2675C287.73 96.0632 287.974 95.88 288.233 95.7203C288.594 95.4701 289.026 95.3422 289.465 95.3554C289.865 95.365 290.251 95.5097 290.559 95.7659L290.947 96.1079L291.631 96.6779C291.904 96.8831 292.11 97.0655 292.315 97.248L293.364 98.1828L292.885 99.6193C292.646 100.252 292.575 100.935 292.68 101.603C292.778 102.131 292.963 102.64 293.227 103.108C293.311 103.299 293.445 103.465 293.615 103.587C293.807 103.71 294.026 103.788 294.253 103.815C294.408 103.834 294.556 103.888 294.686 103.974C294.754 104.029 294.808 104.098 294.844 104.178C294.88 104.257 294.896 104.344 294.891 104.43C294.916 104.783 294.829 105.134 294.641 105.434C294.512 105.606 294.326 105.727 294.116 105.776C293.51 105.866 292.891 105.804 292.315 105.593C291.616 105.252 291.066 104.668 290.764 103.952C290.644 103.749 290.545 103.535 290.468 103.313C290.381 103.115 290.312 102.908 290.263 102.697L289.943 103.062L289.601 103.45C288.612 104.545 287.429 105.449 286.113 106.118C285.762 106.278 285.378 106.352 284.993 106.332C284.608 106.312 284.233 106.199 283.901 106.004ZM286.181 103.427C286.584 103.187 286.965 102.912 287.321 102.606L288.917 101.238C289.395 100.83 289.81 100.354 290.149 99.8245L290.787 98.7985C290.666 98.4871 290.488 98.201 290.263 97.9548C290.204 97.8917 290.134 97.841 290.056 97.8057C289.977 97.7704 289.893 97.7513 289.807 97.7496C289.462 97.7963 289.146 97.9664 288.917 98.2284C288.479 98.6328 288.096 99.0927 287.777 99.5965C287.344 100.189 286.865 100.942 286.318 101.877C286.006 102.45 285.754 103.053 285.566 103.678C285.76 103.643 285.941 103.557 286.09 103.427H286.181Z" fill="#B8C318"/>
<path d="M299.405 106.641C299.151 106.564 298.917 106.432 298.721 106.253C298.47 106.025 298.241 105.773 298.037 105.501C297.875 105.288 297.751 105.049 297.672 104.794C297.63 104.711 297.576 104.634 297.513 104.566C297.513 104.566 297.513 104.269 297.513 103.813C297.47 103.313 297.47 102.809 297.513 102.309C297.54 101.87 297.609 101.435 297.718 101.009C297.718 100.69 297.946 100.279 298.128 99.7548C298.311 99.2303 298.493 98.7743 298.63 98.3411L299.405 96.6994L298.242 96.3801C298.118 96.3337 298.007 96.255 297.923 96.1521C297.846 96.0713 297.798 95.967 297.786 95.8557C297.824 95.6167 297.918 95.3901 298.06 95.1945C298.219 94.9208 298.356 94.784 298.425 94.784H299.702H300.158L300.386 94.6244C300.477 94.5481 300.541 94.444 300.568 94.328C300.642 94.1633 300.725 94.0034 300.819 93.8492C300.934 93.6799 301.041 93.5048 301.138 93.3247C301.275 93.0739 301.389 92.8687 301.457 92.7091C301.589 92.4587 301.734 92.2151 301.891 91.9795C301.891 91.8654 302.073 91.6831 302.187 91.5006C302.308 91.3213 302.454 91.16 302.62 91.0218C302.865 90.8337 303.157 90.7155 303.464 90.6798C303.644 90.6425 303.831 90.6478 304.009 90.6953C304.187 90.7428 304.352 90.8312 304.49 90.9534C304.611 91.116 304.697 91.3026 304.741 91.5006C304.736 91.7395 304.656 91.9708 304.513 92.1619C304.362 92.4645 304.186 92.7542 303.988 93.0283C303.775 93.3011 303.584 93.5909 303.418 93.8948C303.122 94.328 303.053 94.556 303.259 94.6244C303.793 94.6478 304.329 94.6095 304.855 94.5104C305.051 94.4455 305.26 94.4261 305.466 94.4537C305.671 94.4814 305.868 94.5554 306.04 94.67C306.164 94.7653 306.267 94.8856 306.342 95.023C306.416 95.1605 306.461 95.3121 306.474 95.4681C306.474 95.9241 306.474 96.1977 306.337 96.3117C305.908 96.4395 305.46 96.4859 305.014 96.4486C304.627 96.4759 304.239 96.4759 303.851 96.4486H302.552H302.21C302.087 96.4754 301.976 96.5391 301.891 96.631C301.808 96.7438 301.739 96.8663 301.685 96.9958C301.531 97.1712 301.407 97.3717 301.32 97.5886C301.156 97.9518 300.966 98.3023 300.75 98.6375C300.5 99.4355 300.272 100.211 300.089 100.918C299.907 101.624 299.747 102.377 299.61 103.198C299.534 103.458 299.534 103.735 299.61 103.996C299.61 104.155 299.952 104.247 300.34 104.292C300.644 104.313 300.948 104.313 301.252 104.292C301.592 104.284 301.929 104.23 302.255 104.133L302.917 103.836C303.131 103.748 303.337 103.641 303.532 103.517L304.307 103.061C304.307 102.901 304.558 102.924 304.718 103.061C304.897 103.239 305.03 103.458 305.105 103.699C305.098 103.978 305.052 104.254 304.969 104.52C304.747 104.961 304.375 105.309 303.92 105.501C303.138 105.997 302.26 106.323 301.343 106.458C300.709 106.611 300.057 106.673 299.405 106.641Z" fill="#B8C318"/>
<path d="M308.502 106.118C308.327 105.926 308.208 105.69 308.16 105.434C308.115 105.139 308.115 104.839 308.16 104.545C308.171 104.311 308.217 104.08 308.297 103.861C308.269 103.741 308.269 103.616 308.297 103.496C308.314 103.46 308.322 103.421 308.322 103.382C308.322 103.343 308.314 103.304 308.297 103.268C308.26 103.134 308.26 102.992 308.297 102.857C308.297 102.675 308.411 102.493 308.457 102.31C308.633 101.925 308.786 101.529 308.913 101.125C309.095 100.646 309.255 100.144 309.437 99.6425C309.62 99.1408 309.756 98.7076 309.87 98.3428C309.95 98.12 310.011 97.8913 310.053 97.6587C310.053 97.4307 310.213 97.3167 310.509 97.2939C310.661 97.2681 310.817 97.2795 310.964 97.3272C311.111 97.3748 311.244 97.4573 311.353 97.5675C311.647 97.8221 311.907 98.1133 312.128 98.434C312.199 98.5135 312.25 98.6086 312.278 98.7115C312.306 98.8144 312.309 98.9224 312.287 99.0268C312.218 99.3998 312.095 99.7608 311.923 100.098C311.818 100.344 311.727 100.595 311.649 100.851C311.55 101.132 311.481 101.422 311.444 101.717C311.332 101.921 311.24 102.135 311.17 102.356C311.066 102.617 310.974 102.883 310.897 103.154C310.83 103.321 310.792 103.498 310.783 103.678L310.646 104.454C310.602 104.68 310.517 104.896 310.395 105.092C310.228 105.867 309.931 106.323 309.506 106.46C309.323 106.505 309.132 106.497 308.954 106.436C308.776 106.376 308.619 106.265 308.502 106.118ZM311.581 94.7173C311.379 94.5665 311.216 94.3715 311.102 94.1473C311.012 93.9693 310.958 93.7758 310.942 93.5773C310.942 93.3949 310.942 93.2808 310.942 93.258C311.147 93.0053 311.309 92.7202 311.421 92.4144C311.581 92.0724 311.74 91.776 311.9 91.4795C311.96 91.4009 312.014 91.317 312.059 91.2287C312.11 91.15 312.181 91.0868 312.265 91.0463C312.412 90.9684 312.577 90.9277 312.743 90.9277C312.91 90.9277 313.075 90.9684 313.222 91.0463C313.599 91.1691 313.921 91.419 314.134 91.7532C314.3 92.1007 314.356 92.4904 314.294 92.8704C314.192 93.3111 313.98 93.7189 313.678 94.0561C313.415 94.4254 313.026 94.6851 312.584 94.7857C312.276 94.8669 311.95 94.8261 311.672 94.6718L311.581 94.7173Z" fill="#B8C318"/>
<path d="M317.374 106.415C317.171 106.433 316.969 106.376 316.804 106.256L316.257 105.868C315.92 105.494 315.629 105.08 315.391 104.637C315.195 104.291 315.115 103.891 315.162 103.497C315.202 103.278 315.202 103.054 315.162 102.836C315.162 102.836 315.048 102.676 315.162 102.653C315.218 102.614 315.258 102.558 315.277 102.493C315.391 102.493 315.436 102.493 315.391 102.174C315.39 101.839 315.452 101.507 315.573 101.194C315.735 100.686 315.965 100.203 316.257 99.7573C316.41 99.4897 316.577 99.2309 316.759 98.9821L317.534 98.0472C317.761 97.7739 318.013 97.522 318.286 97.2947C318.7 96.9332 319.142 96.6053 319.609 96.3143C319.994 96.0754 320.419 95.9056 320.863 95.8127C321.29 95.7197 321.726 95.6738 322.163 95.6758C322.367 95.6681 322.571 95.7048 322.76 95.7836C322.949 95.8623 323.118 95.9812 323.257 96.1319C323.643 96.2732 323.971 96.5376 324.192 96.8843C324.392 97.2821 324.508 97.7167 324.534 98.1612C324.585 98.8645 324.531 99.5715 324.374 100.259C324.095 101.299 323.614 102.275 322.961 103.132C322.573 103.726 322.105 104.263 321.57 104.728C321.094 105.114 320.591 105.464 320.065 105.777C319.678 106.042 319.231 106.206 318.765 106.256L317.374 106.415ZM320.293 102.927C320.682 102.596 320.994 102.183 321.205 101.718C321.387 101.285 321.57 100.761 321.775 100.168C321.881 99.9964 321.936 99.7989 321.935 99.5977C321.957 99.3398 321.957 99.0803 321.935 98.8224C321.935 98.5716 321.935 98.412 321.729 98.3892C321.66 98.3247 321.575 98.2801 321.483 98.26C321.39 98.24 321.294 98.2452 321.205 98.2752C320.979 98.3822 320.765 98.5121 320.566 98.6628C319.978 99.1525 319.443 99.7028 318.97 100.305C318.461 100.975 318.118 101.756 317.967 102.585C317.883 102.947 317.931 103.327 318.104 103.656C318.202 103.772 318.334 103.853 318.482 103.89C318.629 103.927 318.784 103.917 318.925 103.862C319.443 103.652 319.909 103.333 320.293 102.927Z" fill="#B8C318"/>
<path d="M337.005 105.912C336.642 105.899 336.286 105.813 335.956 105.661C335.639 105.45 335.406 105.136 335.295 104.772C335.248 104.454 335.248 104.132 335.295 103.814C335.271 103.495 335.271 103.175 335.295 102.856C335.295 102.537 335.295 102.264 335.295 102.036V101.488C335.297 101.294 335.223 101.106 335.09 100.964C335.007 100.927 334.918 100.908 334.827 100.908C334.737 100.908 334.648 100.927 334.565 100.964C334.109 101.173 333.674 101.425 333.266 101.716C332.787 102.036 332.308 102.4 331.806 102.811L330.233 104.111C329.9 104.458 329.595 104.832 329.321 105.228C329.258 105.34 329.169 105.435 329.062 105.506C328.955 105.578 328.833 105.623 328.705 105.638C328.631 105.687 328.544 105.713 328.454 105.713C328.365 105.713 328.278 105.687 328.204 105.638L327.679 105.228C327.542 105.091 327.383 104.886 327.2 104.658C327.08 104.508 326.973 104.348 326.881 104.179C326.856 103.906 326.856 103.631 326.881 103.358C326.925 103.091 327.002 102.831 327.109 102.583C327.222 102.272 327.351 101.968 327.497 101.671L327.702 101.238C327.773 101.079 327.857 100.926 327.953 100.782C328.039 100.471 328.146 100.166 328.272 99.8695C328.409 99.5274 328.546 99.1854 328.682 98.889C328.819 98.5926 329.07 97.9769 329.184 97.6121C329.304 97.2242 329.396 96.8278 329.458 96.4264C329.458 96.4264 329.458 96.4264 329.458 96.2668C329.458 96.1072 329.458 96.13 329.64 96.13C329.777 96.13 330.028 96.13 330.415 96.13C330.712 96.1629 330.995 96.273 331.236 96.4493C331.431 96.6131 331.586 96.8197 331.689 97.0529C331.792 97.2861 331.84 97.5399 331.829 97.7945C331.716 98.5751 331.419 99.3176 330.963 99.9607C330.826 100.28 330.689 100.553 330.552 100.804C330.446 100.965 330.369 101.142 330.324 101.329L331.099 100.759L331.647 100.371C331.847 100.182 332.06 100.006 332.285 99.8466C332.604 99.573 332.946 99.2994 333.334 99.0258L334.246 98.3646C334.496 98.18 334.763 98.0197 335.044 97.8857C335.228 97.7791 335.429 97.7021 335.637 97.6577C335.882 97.6721 336.122 97.734 336.344 97.8401C336.618 97.9726 336.878 98.1331 337.119 98.319C337.347 98.5014 337.507 98.661 337.529 98.8206C337.539 98.9192 337.539 99.0184 337.529 99.117C337.519 99.2308 337.519 99.3453 337.529 99.459C337.529 99.7554 337.529 100.12 337.529 100.554C337.529 100.987 337.529 101.397 337.529 101.83C337.568 102.217 337.568 102.607 337.529 102.993C337.529 102.993 337.529 102.993 337.529 103.176V103.244L337.666 103.654L337.849 104.088C337.948 104.286 338.032 104.492 338.099 104.703C338.089 104.848 338.047 104.988 337.976 105.114C337.905 105.24 337.807 105.349 337.689 105.433C337.507 105.65 337.271 105.815 337.005 105.912Z" fill="#B8C318"/>
</svg>
