<svg width="414" height="141" viewBox="0 0 414 141" fill="none" xmlns="http://www.w3.org/2000/svg">
<path d="M344.607 8.62109H69.0509C35.0305 8.62109 7.45142 36.2001 7.45142 70.2205C7.45142 104.241 35.0305 131.82 69.0509 131.82H344.607C378.627 131.82 406.206 104.241 406.206 70.2205C406.206 36.2001 378.627 8.62109 344.607 8.62109Z" fill="white"/>
<path d="M344.607 140.37H69.0511C50.6626 140.038 33.1392 132.501 20.2521 119.379C7.36507 106.258 0.144531 88.6014 0.144531 70.2098C0.144531 51.8183 7.36507 34.1618 20.2521 21.0404C33.1392 7.91889 50.6626 0.381292 69.0511 0.0498047H344.607C362.996 0.381292 380.519 7.91889 393.406 21.0404C406.293 34.1618 413.514 51.8183 413.514 70.2098C413.514 88.6014 406.293 106.258 393.406 119.379C380.519 132.501 362.996 140.038 344.607 140.37ZM69.0511 17.2621C61.9934 17.1158 54.9776 18.3795 48.4145 20.9792C41.8514 23.5789 35.8731 27.4624 30.83 32.402C25.7869 37.3416 21.7805 43.238 19.0453 49.7458C16.3101 56.2536 14.9011 63.2418 14.9011 70.301C14.9011 77.3602 16.3101 84.3484 19.0453 90.8562C21.7805 97.364 25.7869 103.26 30.83 108.2C35.8731 113.14 41.8514 117.023 48.4145 119.623C54.9776 122.222 61.9934 123.486 69.0511 123.34H344.607C358.484 123.052 371.695 117.338 381.406 107.422C391.118 97.507 396.558 84.1804 396.558 70.301C396.558 56.4216 391.118 43.095 381.406 33.1796C371.695 23.2642 358.484 17.5498 344.607 17.2621H69.0511Z" fill="#7DBD36"/>
<path d="M344.607 8.62109H69.0509C35.0305 8.62109 7.45142 36.2001 7.45142 70.2205C7.45142 104.241 35.0305 131.82 69.0509 131.82H344.607C378.627 131.82 406.206 104.241 406.206 70.2205C406.206 36.2001 378.627 8.62109 344.607 8.62109Z" fill="#FDFDFB"/>
<path d="M116.198 47.4243C115.966 47.0545 115.888 46.6082 115.982 46.1818C116.076 45.7553 116.334 45.3827 116.7 45.1445C120.523 41.8362 123.627 37.7781 125.819 33.2213C125.99 32.7969 126.248 32.4127 126.576 32.0931C126.904 31.7735 127.294 31.5255 127.723 31.3647C128.151 31.204 128.609 31.1341 129.066 31.1593C129.523 31.1846 129.97 31.3045 130.378 31.5115C130.759 31.6124 131.113 31.795 131.417 32.0467C131.72 32.2983 131.964 32.613 132.134 32.9689C132.303 33.3247 132.393 33.7131 132.397 34.1071C132.4 34.5011 132.318 34.8912 132.156 35.2503H135.895C136.489 34.6755 137.248 34.3005 138.065 34.1779C138.883 34.0553 139.718 34.1911 140.455 34.5664C140.905 34.7693 141.302 35.0731 141.615 35.4543C141.929 35.8355 142.151 36.2837 142.263 36.7643C142.375 37.2449 142.376 37.745 142.264 38.2257C142.152 38.7064 141.931 39.1548 141.617 39.5363C140.932 40.572 140.17 41.5551 139.338 42.4772H146.177C146.55 42.4333 146.928 42.4745 147.282 42.5976C147.637 42.7207 147.959 42.9225 148.225 43.188C148.49 43.4534 148.692 43.7756 148.815 44.1303C148.938 44.4849 148.979 44.8629 148.935 45.2357V57.5693C148.979 57.9421 148.938 58.3201 148.815 58.6747C148.692 59.0294 148.49 59.3516 148.225 59.617C147.959 59.8825 147.637 60.0844 147.282 60.2075C146.928 60.3306 146.55 60.3717 146.177 60.3278H123.539C123.164 60.3755 122.784 60.3372 122.426 60.2158C122.069 60.0944 121.743 59.893 121.475 59.6271C121.207 59.3612 121.003 59.0376 120.879 58.6811C120.754 58.3245 120.713 57.9443 120.757 57.5693V46.9911C119.967 47.4319 119.147 47.8423 118.295 48.2222C118.107 48.3197 117.901 48.3763 117.689 48.3884C117.478 48.4005 117.266 48.3679 117.068 48.2926C116.87 48.2172 116.69 48.101 116.54 47.9514C116.39 47.8017 116.274 47.6221 116.198 47.4243ZM124.816 63.1548C124.135 65.5014 123.03 67.7034 121.555 69.6521C121.316 70.0222 120.996 70.3334 120.62 70.5622C120.243 70.791 119.819 70.9315 119.381 70.9732C118.942 71.0149 118.499 70.9566 118.086 70.8029C117.673 70.6491 117.301 70.4037 116.996 70.0852C116.695 69.8161 116.46 69.4816 116.308 69.1074C116.156 68.7333 116.092 68.3293 116.121 67.9266C116.149 67.5238 116.27 67.133 116.473 66.784C116.676 66.435 116.956 66.1372 117.292 65.9133C118.897 64.5397 120.363 63.0126 121.669 61.3537C121.924 61.0084 122.289 60.761 122.704 60.6531C123.119 60.5452 123.559 60.5833 123.949 60.761C124.381 60.9637 124.715 61.3297 124.878 61.7785C125.04 62.2274 125.018 62.7224 124.816 63.1548ZM134.938 38.9663H129.831C128.858 40.2441 127.783 41.4411 126.617 42.5456H133.957C134.474 41.5789 134.931 40.5815 135.325 39.5591C135.439 39.1943 135.28 38.9663 134.938 38.9663ZM131.495 49.6357V46.1704H128.007C127.939 46.1704 127.872 46.184 127.81 46.2106C127.747 46.2373 127.691 46.2763 127.644 46.3253C127.597 46.3743 127.561 46.4323 127.537 46.4958C127.513 46.5593 127.503 46.627 127.506 46.6948V49.7041L131.495 49.6357ZM128.007 56.6574H131.495V53.0097H127.506V56.1102C127.499 56.1798 127.508 56.25 127.53 56.3162C127.552 56.3824 127.588 56.4432 127.635 56.4947C127.683 56.5462 127.74 56.5874 127.804 56.6154C127.868 56.6434 127.937 56.6577 128.007 56.6574ZM134.459 67.2355C135.074 68.8085 134.459 70.1992 132.476 70.7464C130.492 71.2935 129.238 70.45 128.942 68.6262C128.554 66.3464 128.212 64.0666 128.007 62.6304C127.943 62.2334 128.029 61.8268 128.248 61.4897C128.467 61.1525 128.804 60.909 129.193 60.8066C129.57 60.656 129.986 60.637 130.375 60.7529C130.764 60.8688 131.103 61.1126 131.336 61.4449C132.62 63.234 133.669 65.1799 134.459 67.2355ZM143.35 66.5516C143.615 66.8877 143.79 67.2854 143.859 67.7076C143.928 68.1298 143.889 68.5627 143.746 68.9657C143.603 69.3688 143.359 69.7289 143.039 70.0124C142.718 70.2959 142.331 70.4935 141.914 70.5868C141.543 70.7969 141.125 70.9116 140.699 70.9206C140.272 70.9296 139.85 70.8325 139.471 70.6382C139.091 70.4438 138.766 70.1582 138.524 69.8071C138.281 69.4559 138.13 69.0502 138.084 68.6262C137.537 66.5972 136.967 64.4998 136.511 63.0635C136.37 62.6813 136.379 62.2601 136.535 61.884C136.692 61.5079 136.984 61.2046 137.354 61.0345C137.714 60.8217 138.136 60.7374 138.55 60.7954C138.964 60.8534 139.346 61.0502 139.634 61.3537C141.07 62.9366 142.317 64.6809 143.35 66.5516ZM141.731 46.0337H138.038V49.5673H142.256V46.6264C142.239 46.4995 142.177 46.3831 142.08 46.2991C141.983 46.2151 141.859 46.1693 141.731 46.1704V46.0337ZM142.256 56.0646V53.0097H138.038V56.6346H141.731C141.867 56.6347 141.997 56.5826 142.094 56.4892C142.192 56.3957 142.25 56.2681 142.256 56.133V56.0646ZM152.241 70.1764C151.891 70.4567 151.477 70.6458 151.035 70.7267C150.594 70.8077 150.14 70.7779 149.713 70.6401C149.286 70.5023 148.9 70.2608 148.589 69.9372C148.278 69.6135 148.053 69.218 147.932 68.7858C147.135 66.8252 146.291 64.9558 145.47 63.1319C145.262 62.7539 145.201 62.3125 145.297 61.892C145.394 61.4715 145.642 61.1013 145.995 60.8522C146.316 60.5892 146.719 60.4455 147.134 60.4455C147.55 60.4455 147.953 60.5892 148.274 60.8522C149.954 62.2959 151.482 63.9077 152.834 65.6625C153.177 65.9633 153.442 66.3441 153.603 66.7713C153.765 67.1985 153.819 67.6589 153.76 68.1118C153.701 68.5647 153.532 68.9962 153.267 69.3682C153.002 69.7402 152.65 70.0413 152.241 70.2448V70.1764Z" fill="#594A39"/>
<path d="M200.185 66.802C200.054 67.2778 199.818 67.7183 199.494 68.091C199.171 68.4638 198.768 68.7594 198.315 68.9562C197.863 69.1529 197.372 69.2459 196.879 69.2282C196.386 69.2105 195.903 69.0826 195.465 68.8539C191.426 67.3989 187.797 64.99 184.887 61.8322V68.3295C184.887 70.3357 183.656 71.2704 181.399 71.2704C179.142 71.2704 177.911 70.3357 177.911 68.3295V62.6073C174.116 65.9273 169.57 68.2745 164.666 69.4466C164.47 69.5297 164.26 69.5713 164.048 69.5687C163.836 69.5661 163.627 69.5193 163.434 69.4313C163.241 69.3434 163.068 69.2163 162.927 69.0579C162.786 68.8996 162.679 68.7137 162.614 68.5119C162.272 67.6228 162.614 66.9389 163.594 66.4373C167.698 64.7844 171.382 62.2377 174.377 58.9824H165.258C164.789 58.931 164.356 58.7083 164.041 58.357C163.726 58.0058 163.552 57.5506 163.552 57.0788C163.552 56.6071 163.726 56.1519 164.041 55.8006C164.356 55.4493 164.789 55.2267 165.258 55.1753H177.865V54.1493C177.821 53.4538 178.048 52.7681 178.498 52.2365C178.949 51.7049 179.589 51.3691 180.282 51.2996C180.125 51.0678 180.002 50.8144 179.917 50.5473C179.393 49.0883 178.709 47.5608 178.207 46.4665C178.127 46.2813 178.058 46.0909 178.002 45.8966C175.54 45.8966 172.987 45.8966 170.593 45.8966C172.196 46.8175 173.636 47.9959 174.856 49.3846C176.247 50.9577 176.201 52.3711 174.605 53.511C174.295 53.7961 173.917 53.996 173.506 54.0912C173.096 54.1865 172.668 54.1737 172.264 54.0544C171.86 53.935 171.493 53.713 171.2 53.41C170.908 53.1071 170.698 52.7334 170.593 52.3255C169.921 50.859 169.16 49.4352 168.313 48.0623C168.036 47.77 167.881 47.3825 167.881 46.9795C167.881 46.5765 168.036 46.1889 168.313 45.8966C167.652 45.8966 166.968 45.8966 166.33 45.8966C165.099 45.8966 164.62 45.2583 164.62 44.278C164.62 43.2976 165.144 42.8416 166.33 42.796C172.984 42.6935 179.618 42.0377 186.164 40.8355C185.665 40.6095 185.249 40.2329 184.975 39.7585C184.701 39.2842 184.583 38.736 184.636 38.1909H177.501V38.6697C177.501 40.7443 176.361 41.679 174.264 41.679C172.166 41.679 171.049 40.7443 171.049 38.6697V38.1909H164.21C163.953 38.2193 163.694 38.1901 163.45 38.1054C163.206 38.0207 162.985 37.8826 162.801 37.7013C162.618 37.5199 162.477 37.3 162.389 37.0573C162.302 36.8146 162.269 36.5555 162.295 36.2987C162.263 36.0427 162.292 35.7827 162.378 35.5395C162.464 35.2963 162.605 35.0765 162.791 34.8974C162.977 34.7183 163.202 34.5849 163.448 34.5076C163.694 34.4303 163.955 34.4113 164.21 34.4521H171.049V34.2469C171.022 33.8267 171.088 33.4058 171.243 33.0143C171.398 32.6228 171.638 32.2705 171.945 31.9828C172.253 31.695 172.62 31.4789 173.021 31.3501C173.422 31.2212 173.846 31.1829 174.264 31.2377C176.361 31.2377 177.501 32.1723 177.501 34.2469V34.4521H184.636V34.2925C184.605 33.8632 184.67 33.4321 184.827 33.0312C184.984 32.6304 185.229 32.27 185.544 31.9767C185.859 31.6833 186.237 31.4646 186.648 31.3367C187.059 31.2088 187.493 31.175 187.919 31.2377C190.04 31.2377 191.179 32.1723 191.179 34.2925V34.4521H198.269C198.524 34.4303 198.781 34.4654 199.021 34.5546C199.261 34.6438 199.478 34.7851 199.656 34.9682C199.835 35.1513 199.971 35.3716 200.055 35.6135C200.138 35.8554 200.167 36.1128 200.139 36.3671C200.161 36.6161 200.127 36.8668 200.04 37.1011C199.953 37.3355 199.815 37.5476 199.636 37.7221C199.458 37.8966 199.242 38.0292 199.006 38.1103C198.769 38.1914 198.518 38.2189 198.269 38.1909H191.179C191.18 38.7591 191.03 39.3174 190.746 39.8095L192.889 39.2169C193.245 39.0663 193.629 38.9927 194.015 39.0011C194.401 39.0095 194.781 39.0995 195.13 39.2653C195.479 39.4312 195.789 39.669 196.039 39.9632C196.289 40.2574 196.475 40.6013 196.582 40.9723C196.748 41.3412 196.822 41.7444 196.8 42.1481C196.777 42.5518 196.658 42.9442 196.453 43.2925C196.247 43.6408 195.962 43.9348 195.619 44.1499C195.277 44.3649 194.888 44.4948 194.485 44.5287C194.216 44.5727 193.949 44.6335 193.687 44.711C193.961 44.7616 194.224 44.862 194.462 45.0074C196.24 45.9649 196.286 47.6748 195.055 49.2934C193.598 51.1793 191.756 52.7335 189.652 53.853C189.333 54.0886 188.94 54.2041 188.544 54.179C188.148 54.154 187.773 53.9901 187.486 53.7162C187.313 53.5862 187.17 53.4211 187.066 53.2317C186.962 53.0422 186.899 52.8328 186.882 52.6173C186.865 52.4018 186.893 52.1852 186.966 51.9816C187.039 51.778 187.154 51.5922 187.304 51.4364C188.443 49.8797 189.4 48.1968 190.153 46.4209C190.393 45.8207 190.796 45.2996 191.316 44.9163C188.717 45.2582 185.617 45.509 182.197 45.6914C182.96 46.3697 183.641 47.1348 184.226 47.9712C184.471 48.2507 184.65 48.5826 184.747 48.9415C184.844 49.3004 184.858 49.6768 184.788 50.042C184.718 50.4072 184.565 50.7514 184.341 51.0484C184.117 51.3454 183.828 51.5873 183.497 51.7556C183.867 52.0035 184.165 52.3449 184.362 52.7452C184.558 53.1455 184.645 53.5906 184.614 54.0354V55.0612H197.358C197.606 55.0417 197.856 55.0783 198.088 55.1682C198.321 55.2581 198.53 55.399 198.701 55.5807C198.871 55.7623 198.999 55.9799 199.074 56.2175C199.15 56.4551 199.171 56.7067 199.136 56.9535C199.136 58.2074 198.497 58.8685 197.358 58.8685H186.985C190.166 60.5842 193.574 61.8429 197.107 62.6073C199.934 63.2456 200.868 64.7958 200.185 66.802Z" fill="#594A39"/>
<path d="M208.983 55.7464C208.955 55.493 208.983 55.2364 209.067 54.9954C209.15 54.7545 209.287 54.5352 209.466 54.3538C209.645 54.1724 209.863 54.0333 210.103 53.9469C210.343 53.8604 210.599 53.8287 210.853 53.8541H217.692V44.3247H212.904C212.396 44.3247 211.909 44.1229 211.55 43.7638C211.191 43.4047 210.989 42.9176 210.989 42.4097C210.989 41.9018 211.191 41.4147 211.55 41.0556C211.909 40.6965 212.396 40.4947 212.904 40.4947H217.692V34.4305C217.692 32.5611 218.9 31.5352 221.02 31.5352C223.141 31.5352 224.326 32.5611 224.326 34.4305V40.4947H231.644V34.4305C231.644 32.5611 232.83 31.5352 234.95 31.5352C237.07 31.5352 238.255 32.5611 238.255 34.4305V40.4947H243.18C243.688 40.4947 244.175 40.6965 244.534 41.0556C244.893 41.4147 245.095 41.9018 245.095 42.4097C245.095 42.9176 244.893 43.4047 244.534 43.7638C244.175 44.1229 243.688 44.3247 243.18 44.3247H238.255V53.8541H245.095C245.564 53.9055 245.997 54.1282 246.312 54.4795C246.627 54.8308 246.801 55.286 246.801 55.7577C246.801 56.2295 246.627 56.6847 246.312 57.036C245.997 57.3873 245.564 57.61 245.095 57.6614H210.67C210.429 57.6599 210.191 57.6075 209.972 57.5076C209.753 57.4078 209.557 57.2627 209.398 57.0819C209.238 56.901 209.119 56.6886 209.047 56.4584C208.976 56.2283 208.954 55.9856 208.983 55.7464ZM224.668 64.5007C220.757 67.5877 216.258 69.845 211.445 71.1349C211.034 71.2929 210.577 71.2836 210.172 71.1089C209.767 70.9342 209.447 70.608 209.279 70.2001C209.091 69.7883 209.072 69.319 209.225 68.8929C209.378 68.4668 209.693 68.1177 210.1 67.9204C213.75 65.5939 217.09 62.8131 220.04 59.6448C220.344 59.2583 220.73 58.9435 221.17 58.7228C221.609 58.5021 222.092 58.381 222.584 58.3679C223.076 58.3549 223.564 58.4502 224.015 58.6472C224.466 58.8443 224.868 59.1382 225.192 59.508C225.557 59.8261 225.839 60.2273 226.015 60.6777C226.192 61.128 226.257 61.6143 226.206 62.0952C226.154 62.5762 225.988 63.0376 225.72 63.4404C225.452 63.8433 225.091 64.1757 224.668 64.4095V64.5007ZM224.326 53.8541H231.644V44.3247H224.235L224.326 53.8541ZM246.075 69.6074C245.801 70.0471 245.426 70.4153 244.982 70.6812C244.537 70.9472 244.035 71.1034 243.518 71.1369C243.001 71.1703 242.484 71.08 242.008 70.8735C241.533 70.667 241.114 70.3501 240.786 69.9493C237.959 67.3504 234.266 64.2043 231.462 62.0385C231.241 61.9144 231.048 61.7463 230.896 61.5446C230.743 61.343 230.633 61.112 230.573 60.8662C230.513 60.6204 230.505 60.3649 230.548 60.1156C230.591 59.8663 230.685 59.6284 230.823 59.4168C231.348 58.4365 232.146 58.2313 233.377 58.5961C237.538 59.9769 241.489 61.9255 245.117 64.3867C245.567 64.6278 245.956 64.967 246.256 65.379C246.556 65.791 246.76 66.2653 246.852 66.7668C246.944 67.2682 246.922 67.7839 246.787 68.2756C246.653 68.7673 246.409 69.2225 246.075 69.6074Z" fill="#594A39"/>
<path d="M293.517 67.2806C293.543 67.5574 293.506 67.8364 293.41 68.0973C293.315 68.3582 293.162 68.5944 292.963 68.7888C292.764 68.9831 292.525 69.1307 292.262 69.2208C291.999 69.3109 291.719 69.3412 291.443 69.3095H258.181C257.895 69.3398 257.606 69.3096 257.332 69.2209C257.058 69.1321 256.806 68.9868 256.593 68.7944C256.379 68.602 256.208 68.3668 256.091 68.104C255.974 67.8413 255.913 67.5568 255.913 67.2691C255.913 66.9815 255.974 66.697 256.091 66.4343C256.208 66.1715 256.379 65.9362 256.593 65.7438C256.806 65.5514 257.058 65.4062 257.332 65.3174C257.606 65.2287 257.895 65.1984 258.181 65.2287H271.86V56.2236H262.923C262.43 56.1709 261.975 55.9381 261.644 55.5698C261.313 55.2015 261.13 54.7239 261.13 54.2288C261.13 53.7337 261.313 53.2561 261.644 52.8879C261.975 52.5196 262.43 52.2868 262.923 52.234H271.86V45.0071H265.476C263.9 48.079 261.766 50.8311 259.184 53.1231C258.918 53.4617 258.528 53.6808 258.101 53.7321C257.673 53.7834 257.243 53.6628 256.904 53.3968C256.566 53.1307 256.346 52.741 256.295 52.3135C256.244 51.886 256.365 51.4556 256.631 51.117C259.262 46.3968 260.979 41.2223 261.692 35.8653C261.698 35.3727 261.817 34.888 262.041 34.4489C262.264 34.0097 262.585 33.6278 262.979 33.3326C263.374 33.0373 263.831 32.8367 264.315 32.7461C264.799 32.6556 265.298 32.6776 265.772 32.8104C268.052 33.1524 269.055 34.543 268.463 37.1875C268.149 38.548 267.73 39.8819 267.209 41.1771H271.768V34.3378C271.768 32.2632 273.045 31.1006 275.416 31.1006C277.787 31.1006 279.064 32.2632 279.064 34.3378V40.972H289.049C289.317 40.9379 289.588 40.9659 289.843 41.0539C290.098 41.1418 290.33 41.2874 290.519 41.4792C290.709 41.6711 290.852 41.9041 290.937 42.1601C291.022 42.4161 291.047 42.6882 291.01 42.9554C291.041 43.2225 291.013 43.4935 290.926 43.7483C290.84 44.0031 290.697 44.2352 290.509 44.4276C290.321 44.62 290.092 44.7679 289.84 44.8603C289.587 44.9527 289.317 44.9873 289.049 44.9616H279.064V52.1885H287.863C288.131 52.1544 288.403 52.1824 288.658 52.2704C288.913 52.3583 289.144 52.5039 289.334 52.6957C289.524 52.8876 289.666 53.1205 289.751 53.3765C289.836 53.6325 289.861 53.9047 289.824 54.1719C289.856 54.439 289.828 54.71 289.741 54.9647C289.654 55.2195 289.512 55.4517 289.324 55.6441C289.136 55.8365 288.907 55.9844 288.654 56.0768C288.401 56.1692 288.131 56.2038 287.863 56.1781H279.064V65.1831H291.306C291.599 65.1256 291.901 65.139 292.188 65.2221C292.474 65.3052 292.737 65.4558 292.953 65.6611C293.169 65.8664 293.334 66.1205 293.432 66.4023C293.53 66.684 293.559 66.9852 293.517 67.2806Z" fill="#594A39"/>
<path d="M146.86 107.588C146.525 107.406 146.343 107.201 146.313 106.973C146.338 106.544 146.471 106.128 146.7 105.764C146.974 105.194 147.43 104.305 148.045 103.12C148.401 102.468 148.706 101.789 148.957 101.091C149.083 100.751 149.174 100.4 149.231 100.042C149.231 99.8369 149.231 99.7001 149.231 99.6545C149.2 99.5903 149.184 99.5203 149.184 99.4493C149.184 99.3783 149.2 99.3082 149.231 99.2441C149.322 99.1184 149.449 99.0231 149.595 98.9706L150.257 98.4462C150.586 98.2134 150.859 97.9095 151.055 97.5571C151.237 97.1696 151.419 96.7592 151.647 96.326C151.875 95.8929 152.149 95.3913 152.514 94.753C152.878 94.1146 153.357 93.2711 153.973 92.2452L155.341 89.9654C155.865 89.1219 156.366 88.3696 156.891 87.6857C157.076 87.439 157.299 87.2236 157.552 87.0473C157.726 86.9198 157.93 86.8411 158.145 86.8193C158.585 86.8253 159.016 86.943 159.398 87.1614C159.817 87.3664 160.195 87.6443 160.516 87.982C160.796 88.2377 161.021 88.5481 161.177 88.8939C161.258 89.208 161.258 89.5375 161.177 89.8515C161.177 90.353 161.177 90.9458 161.177 91.6525C161.177 92.3592 161.04 93.1116 160.972 93.9323C160.903 94.753 160.835 95.6421 160.721 96.7136C160.607 97.7851 160.493 98.9934 160.379 100.042C160.265 101.091 160.196 102.322 160.151 103.416C160.082 104.35 160.082 105.287 160.151 106.22C160.174 106.379 160.174 106.54 160.151 106.699C160.143 106.828 160.143 106.957 160.151 107.087C160.151 107.087 159.809 107.246 159.421 107.246C159.041 107.235 158.664 107.166 158.304 107.041C157.939 106.927 157.734 106.79 157.711 106.631C157.664 106.585 157.625 106.531 157.598 106.471C157.569 106.29 157.569 106.105 157.598 105.924C157.598 105.589 157.598 104.974 157.598 104.077L157.757 99.7001H157.369H156.458L154.999 99.8596L153.539 100.065C153.231 100.1 152.926 100.161 152.628 100.247C152.389 100.287 152.172 100.408 152.012 100.589C151.752 100.854 151.53 101.153 151.351 101.478C151.266 101.782 151.127 102.068 150.94 102.322C150.794 102.492 150.692 102.695 150.644 102.915C150.46 103.059 150.305 103.237 150.188 103.439C150.137 103.731 150.045 104.015 149.915 104.282C149.737 104.787 149.531 105.282 149.299 105.764C149.079 106.263 148.819 106.743 148.524 107.201L147.749 108.272L146.86 107.588ZM153.699 97.7623L154.771 97.5799H155.546L156.64 97.3291L157.369 97.2152C157.52 97.1862 157.675 97.1862 157.825 97.2152C157.906 97.3167 158.019 97.3888 158.145 97.4203C158.166 97.2233 158.166 97.0246 158.145 96.8276C158.145 96.4628 158.281 96.0069 158.35 95.4825C158.418 94.9582 158.509 94.3882 158.578 93.8183C158.646 93.2483 158.715 92.6784 158.783 92.1768C158.851 91.6753 158.783 91.2877 158.783 90.9914C158.822 90.5134 158.822 90.0331 158.783 89.5551C158.669 89.5551 158.464 89.783 158.145 90.1706C157.748 90.696 157.383 91.2441 157.05 91.812C156.64 92.496 156.252 93.2027 155.842 94.0918C155.696 94.3896 155.52 94.6723 155.318 94.9354C155.158 95.1634 155.021 95.2545 154.93 95.2545C154.818 95.3973 154.719 95.5499 154.634 95.7105C154.474 95.9613 154.292 96.2348 154.109 96.554C153.927 96.8732 153.79 97.1468 153.653 97.4203C153.517 97.6939 153.631 97.7395 153.699 97.7623Z" fill="#B8C318"/>
<path d="M167.812 113.241C167.566 113.089 167.33 112.922 167.105 112.74C166.854 112.512 166.686 112.207 166.627 111.874C166.544 111.23 166.544 110.579 166.627 109.936C166.714 109.058 166.874 108.188 167.105 107.337C167.333 106.379 167.63 105.399 167.972 104.396C168.092 104.19 168.198 103.977 168.291 103.758C168.381 103.606 168.428 103.432 168.428 103.256C167.539 103.712 166.9 104.054 166.444 104.259C166.097 104.461 165.706 104.578 165.304 104.601C164.982 104.561 164.688 104.398 164.484 104.145C164.175 103.838 163.907 103.494 163.686 103.119C163.499 102.791 163.389 102.425 163.366 102.048C163.419 101.56 163.566 101.088 163.8 100.657C164.087 100.056 164.431 99.4838 164.826 98.9472C165.059 98.5819 165.352 98.2583 165.692 97.9898C166.107 97.6025 166.549 97.2445 167.014 96.9183C167.356 96.6467 167.714 96.3954 168.086 96.1659L168.542 95.9152L168.998 95.71C169.135 95.621 169.28 95.5447 169.431 95.482C169.528 95.4604 169.63 95.4604 169.727 95.482C170.083 95.4344 170.443 95.4344 170.799 95.482C171.123 95.4973 171.444 95.5509 171.756 95.6416C172.081 95.893 172.366 96.1929 172.6 96.5307C172.903 96.8841 173.114 97.307 173.215 97.7618C173.227 97.9364 173.227 98.1115 173.215 98.2861C173.182 98.5059 173.121 98.7206 173.033 98.9245L172.486 100.178C172.189 100.604 171.93 101.054 171.71 101.523C171.59 101.773 171.491 102.032 171.414 102.299C171.414 102.549 171.186 102.868 171.004 103.279L170.502 104.373C170.343 104.692 170.251 104.92 170.183 105.034C170.12 105.381 170.036 105.724 169.932 106.06C169.795 106.539 169.659 107.063 169.522 107.656C169.385 108.249 169.248 108.773 169.134 109.297C168.985 110.048 168.909 110.812 168.906 111.577C168.864 112.023 168.943 112.472 169.134 112.877C169.134 113.105 169.134 113.31 168.77 113.469C168.606 113.533 168.426 113.545 168.255 113.505C168.084 113.464 167.93 113.372 167.812 113.241ZM165.532 102.344C166.154 102.416 166.78 102.254 167.288 101.888C167.898 101.468 168.47 100.995 168.998 100.475C169.334 100.162 169.633 99.8095 169.887 99.426C170.113 99.0856 170.311 98.7273 170.479 98.3545C170.569 98.1196 170.569 97.86 170.479 97.625C170.479 97.4654 170.183 97.4882 169.773 97.625C169.247 97.8926 168.751 98.2134 168.291 98.5825C167.709 99.0117 167.168 99.4924 166.672 100.019C166.286 100.444 165.97 100.929 165.738 101.455L165.532 102.344Z" fill="#B8C318"/>
<path d="M182.38 106.583C182.169 106.364 182.013 106.098 181.924 105.808C181.802 105.458 181.688 105.07 181.582 104.645C181.546 104.48 181.546 104.309 181.582 104.143C181.596 103.992 181.596 103.839 181.582 103.687C181.507 103.863 181.416 104.031 181.308 104.189C181.223 104.36 181.107 104.515 180.966 104.645L180.442 105.101C180.192 105.299 179.925 105.475 179.644 105.625C179.156 105.97 178.577 106.16 177.98 106.172C177.726 106.153 177.48 106.078 177.259 105.952C177.038 105.826 176.848 105.652 176.703 105.443C176.394 105.184 176.138 104.866 175.951 104.508C175.798 104.065 175.798 103.583 175.951 103.14C175.992 102.479 176.092 101.823 176.247 101.18C176.403 100.303 176.632 99.4416 176.931 98.6034C177.341 97.8283 177.638 97.2128 177.843 96.7797C177.959 96.5109 178.096 96.2516 178.253 96.0045C178.597 95.9126 178.958 95.9126 179.302 96.0045C179.735 96.1185 179.963 96.3008 179.986 96.5744C180.106 96.9215 180.106 97.2988 179.986 97.6459C179.836 98.2658 179.606 98.8635 179.302 99.4241C179.051 100.085 178.801 100.701 178.55 101.316C178.345 101.814 178.199 102.335 178.117 102.867C178.117 103.277 178.231 103.528 178.459 103.619C178.618 103.733 178.869 103.619 179.211 103.619C179.69 103.389 180.1 103.034 180.396 102.593C180.995 101.754 181.485 100.842 181.855 99.8801C181.996 99.5477 182.111 99.2046 182.197 98.8542C182.27 98.5318 182.316 98.2039 182.334 97.8739C182.299 97.6235 182.365 97.3694 182.517 97.1672C182.666 96.9329 182.869 96.7376 183.109 96.5972C183.2 96.4896 183.308 96.3973 183.428 96.3237C183.565 96.3237 183.634 96.3237 183.679 96.3237H184.135C184.135 96.3237 184.295 96.3237 184.386 96.5517C184.469 96.6919 184.569 96.822 184.682 96.9392C184.895 97.1064 184.986 97.4712 184.956 98.0335C184.886 98.8755 184.653 99.696 184.272 100.45C183.93 101.225 183.679 101.818 183.543 102.205C183.432 102.592 183.363 102.99 183.337 103.391C183.297 103.678 183.297 103.97 183.337 104.257C183.428 104.545 183.602 104.799 183.839 104.987C183.95 105.058 184.041 105.156 184.104 105.271C184.168 105.387 184.202 105.516 184.204 105.648C184.204 105.967 184.204 106.241 184.204 106.469C184.204 106.697 184.021 106.765 183.748 106.833C183.476 106.88 183.198 106.88 182.927 106.833C182.73 106.785 182.545 106.7 182.38 106.583Z" fill="#B8C318"/>
<path d="M188.329 106.059C188.208 105.864 188.034 105.706 187.828 105.604C187.554 105.444 187.44 105.33 187.44 105.262C187.425 105.131 187.378 105.005 187.303 104.897C187.236 104.765 187.152 104.642 187.052 104.532C187.052 104.418 187.052 104.145 187.052 103.689C187.052 103.233 187.44 102.708 187.736 102.047C188.033 101.386 188.375 100.748 188.739 100.086C188.913 99.8981 189.066 99.6918 189.195 99.471C189.355 99.243 189.469 99.0606 189.538 98.9923C189.511 98.9264 189.511 98.8528 189.538 98.787C189.56 98.7527 189.59 98.7244 189.626 98.7046C189.662 98.6847 189.702 98.6739 189.743 98.673L189.971 98.2171C190.07 98.0549 190.185 97.9023 190.313 97.7612L191.042 97.0088L191.931 96.2109C192.163 96.0203 192.406 95.8452 192.661 95.6866C193.019 95.4298 193.451 95.294 193.892 95.299C194.292 95.3086 194.678 95.4532 194.986 95.7094L195.374 96.0513L196.058 96.6213L196.742 97.1912L197.79 98.1259L197.311 99.5622C197.072 100.202 197.002 100.893 197.106 101.568C197.201 102.09 197.386 102.592 197.653 103.05C197.737 103.242 197.871 103.407 198.041 103.529C198.229 103.662 198.45 103.741 198.679 103.757C198.836 103.784 198.984 103.847 199.112 103.939C199.182 103.992 199.237 104.062 199.273 104.141C199.309 104.221 199.324 104.308 199.318 104.395C199.344 104.741 199.256 105.085 199.067 105.376C198.939 105.554 198.754 105.682 198.542 105.74C197.934 105.812 197.318 105.742 196.742 105.535C196.044 105.204 195.492 104.628 195.191 103.916C195.16 103.667 195.152 103.415 195.168 103.164C195.079 102.974 195.011 102.776 194.963 102.571L194.644 102.913L194.302 103.301C193.312 104.396 192.13 105.3 190.814 105.968C190.445 106.203 190.021 106.335 189.584 106.351C189.147 106.367 188.714 106.266 188.329 106.059ZM190.609 103.461C191.007 103.222 191.388 102.955 191.749 102.663L193.345 101.272C193.816 100.867 194.23 100.399 194.576 99.8813L195.214 98.8554C195.092 98.5381 194.914 98.2449 194.69 97.9891C194.631 97.926 194.561 97.8753 194.483 97.84C194.404 97.8048 194.32 97.7857 194.234 97.784C193.889 97.8307 193.573 98.0008 193.345 98.2627C192.918 98.6777 192.536 99.1362 192.205 99.6306C191.772 100.246 191.293 100.976 190.746 101.91C190.426 102.482 190.166 103.086 189.971 103.711C190.2 103.681 190.42 103.594 190.609 103.461Z" fill="#B8C318"/>
<path d="M200.687 113.309H200.368C200.208 113.309 200.094 113.309 200.003 113.081C199.876 112.899 199.762 112.709 199.661 112.512C199.527 112.143 199.527 111.74 199.661 111.372C199.756 111.057 199.832 110.738 199.889 110.414C199.913 110.179 199.913 109.942 199.889 109.707C199.876 109.563 199.876 109.418 199.889 109.274C199.902 109.115 199.902 108.955 199.889 108.796C200.012 108.603 200.09 108.385 200.117 108.157C200.147 107.923 200.147 107.685 200.117 107.45C200.124 107.326 200.159 107.204 200.218 107.094C200.277 106.984 200.359 106.888 200.459 106.812C200.472 106.618 200.511 106.427 200.573 106.242C200.582 106.09 200.582 105.938 200.573 105.786C200.573 105.535 200.755 105.057 200.96 104.373C201.165 103.689 201.393 102.936 201.69 102.093L202.579 99.5852C202.852 98.7645 203.103 98.0806 203.331 97.5106C203.559 96.9407 203.764 96.4619 203.924 96.006C204.036 95.6963 204.112 95.3752 204.152 95.0485C204.129 94.9898 204.129 94.9247 204.152 94.8661L204.403 94.5469C204.508 94.4559 204.632 94.3901 204.767 94.3546C204.901 94.319 205.042 94.3146 205.178 94.3418C205.454 94.3841 205.719 94.4852 205.953 94.6381C206.097 94.8468 206.204 95.0779 206.272 95.322C206.342 95.622 206.342 95.934 206.272 96.2339C206.277 96.5136 206.206 96.7893 206.067 97.0319C205.958 97.2298 205.836 97.4202 205.702 97.6018C205.702 97.7386 205.565 97.807 205.702 97.7842C206.387 97.3306 207.167 97.0418 207.982 96.9407C208.573 96.8806 209.169 96.9998 209.692 97.2827C210.147 97.5562 210.518 97.9508 210.763 98.4226C211.009 98.8937 211.135 99.4185 211.128 99.95C211.111 100.273 211.034 100.59 210.9 100.885C210.751 101.243 210.584 101.593 210.398 101.933C210.263 102.178 210.103 102.407 209.92 102.617C209.92 102.617 209.783 102.617 209.692 102.8C209.625 102.941 209.548 103.078 209.464 103.21C209.259 103.471 209.003 103.689 208.711 103.848C208.377 104.085 208.018 104.284 207.64 104.441C207.402 104.568 207.129 104.608 206.865 104.555C206.825 104.585 206.793 104.622 206.769 104.666C206.745 104.709 206.731 104.757 206.728 104.806C206.728 104.806 206.591 104.943 206.341 105.057C206.029 105.179 205.709 105.278 205.383 105.353C205.056 105.447 204.719 105.501 204.38 105.513C204.081 105.534 203.784 105.454 203.536 105.285C203.48 105.328 203.433 105.382 203.4 105.444C203.38 105.511 203.38 105.582 203.4 105.649C203.382 105.838 203.336 106.022 203.263 106.197C203.192 106.428 203.092 106.65 202.966 106.858C202.966 107.063 202.761 107.154 202.647 107.154C202.614 107.201 202.596 107.256 202.596 107.314C202.596 107.371 202.614 107.427 202.647 107.473C202.666 107.778 202.611 108.083 202.488 108.362C202.513 108.59 202.513 108.819 202.488 109.046C202.46 109.285 202.391 109.516 202.282 109.73C202.317 109.949 202.317 110.172 202.282 110.391C202.282 110.619 202.214 110.733 202.077 110.733C202.077 110.733 201.941 110.87 201.918 111.075C201.909 111.235 201.909 111.395 201.918 111.554C201.91 112.011 201.749 112.452 201.462 112.808C201.165 113.127 200.915 113.309 200.687 113.309ZM204.357 103.301C204.636 103.268 204.911 103.207 205.178 103.119L206.432 102.617C206.797 102.453 207.141 102.247 207.458 102.002C207.901 101.622 208.292 101.185 208.62 100.702C208.764 100.499 208.84 100.256 208.84 100.007C208.84 99.758 208.764 99.5152 208.62 99.3117C208.551 99.1848 208.442 99.0833 208.311 99.0219C208.18 98.9604 208.033 98.9421 207.891 98.9697C207.496 99.0495 207.123 99.2127 206.796 99.4484C206.354 99.7408 205.941 100.077 205.565 100.452C205.317 100.712 205.102 101.003 204.927 101.318C204.745 101.637 204.585 101.956 204.448 102.253C204.349 102.494 204.28 102.747 204.243 103.005C204.152 103.164 204.289 103.301 204.289 103.301H204.357Z" fill="#B8C318"/>
<path d="M215.984 106.447C215.777 106.459 215.572 106.411 215.391 106.311L214.867 105.9C214.506 105.541 214.206 105.125 213.978 104.669C213.779 104.324 213.699 103.924 213.75 103.529C213.789 103.318 213.789 103.102 213.75 102.891C213.75 102.777 213.75 102.731 213.75 102.686C213.797 102.64 213.835 102.586 213.864 102.526C213.864 102.526 214.001 102.526 213.864 102.23C213.848 101.886 213.91 101.543 214.046 101.227C214.21 100.724 214.432 100.242 214.707 99.7904L215.232 99.0381C215.463 98.7112 215.714 98.399 215.984 98.1034C216.218 97.829 216.469 97.57 216.736 97.3283C217.156 96.9807 217.597 96.6608 218.058 96.3707C218.445 96.129 218.869 95.9519 219.312 95.8464C219.739 95.7535 220.175 95.7076 220.612 95.7097C220.816 95.7034 221.019 95.7408 221.208 95.8194C221.397 95.8981 221.567 96.0161 221.706 96.1656C222.094 96.3142 222.423 96.5866 222.641 96.9407C222.842 97.3313 222.966 97.7571 223.006 98.1946C223.049 98.8989 222.987 99.6056 222.823 100.292C222.553 101.332 222.081 102.308 221.433 103.164C221.037 103.759 220.562 104.296 220.019 104.76C219.544 105.154 219.041 105.512 218.514 105.832C218.12 106.081 217.677 106.244 217.215 106.311L215.984 106.447ZM218.879 102.959C219.274 102.643 219.587 102.237 219.791 101.774L220.384 100.224C220.47 100.046 220.517 99.8513 220.521 99.6536C220.555 99.3887 220.555 99.1206 220.521 98.8557C220.521 98.6049 220.521 98.4682 220.316 98.4226C220.241 98.3736 220.154 98.3474 220.065 98.3474C219.976 98.3474 219.888 98.3736 219.814 98.4226C219.576 98.5196 219.354 98.65 219.153 98.8101C218.559 99.294 218.024 99.8448 217.557 100.452C217.049 101.123 216.705 101.903 216.554 102.731C216.472 103.096 216.529 103.478 216.713 103.803C216.801 103.926 216.929 104.014 217.075 104.051C217.221 104.089 217.376 104.074 217.511 104.008C218.046 103.775 218.516 103.415 218.879 102.959Z" fill="#B8C318"/>
<path d="M235.612 105.97C235.249 105.942 234.894 105.849 234.563 105.696C234.241 105.496 233.999 105.19 233.879 104.83C233.834 104.512 233.834 104.19 233.879 103.872C233.856 103.546 233.856 103.218 233.879 102.892C233.898 102.619 233.898 102.344 233.879 102.071V101.547C233.879 101.25 233.879 101.068 233.651 101C233.423 100.931 233.378 101 233.127 101C232.68 101.226 232.246 101.477 231.827 101.752C231.349 102.071 230.87 102.436 230.368 102.846L228.818 104.146C228.484 104.499 228.172 104.872 227.883 105.263C227.678 105.559 227.473 105.696 227.268 105.696C227.196 105.74 227.113 105.764 227.028 105.764C226.944 105.764 226.861 105.74 226.789 105.696L226.242 105.308L225.763 104.716C225.64 104.568 225.533 104.407 225.444 104.237C225.419 103.964 225.419 103.689 225.444 103.416C225.492 103.15 225.568 102.89 225.672 102.641C225.786 102.39 225.9 102.071 226.06 101.729L226.265 101.319L226.516 100.84C226.606 100.531 226.712 100.226 226.835 99.9281L227.268 98.9706C227.481 98.4691 227.64 98.0359 227.747 97.6711C227.864 97.2903 227.956 96.9018 228.02 96.5084C228.004 96.4488 228.004 96.3857 228.02 96.3261C228.035 96.2931 228.057 96.2638 228.085 96.2402C228.113 96.2165 228.145 96.1992 228.18 96.1893C228.422 96.0984 228.69 96.0984 228.932 96.1893C229.233 96.2333 229.521 96.3421 229.776 96.5084C229.967 96.6745 230.117 96.882 230.216 97.1151C230.315 97.3482 230.359 97.6008 230.346 97.8536C230.259 98.6758 229.961 99.4614 229.479 100.133L229.365 100.886C229.263 101.045 229.193 101.223 229.16 101.41L229.935 100.817L230.46 100.43L231.098 99.9053L232.147 99.0846L233.081 98.4235C233.335 98.2506 233.602 98.0981 233.879 97.9675C234.065 97.8586 234.264 97.7742 234.472 97.7167C234.719 97.7357 234.96 97.8056 235.179 97.9219C235.446 98.0545 235.698 98.215 235.931 98.4007C236.126 98.5166 236.278 98.6926 236.364 98.9022C236.37 99.0009 236.37 99.0999 236.364 99.1986C236.364 99.1986 236.364 99.4265 236.364 99.5177C236.364 99.6089 236.364 100.202 236.364 100.612C236.364 101.022 236.364 101.478 236.364 101.912C236.402 102.298 236.402 102.688 236.364 103.074C236.372 103.127 236.372 103.181 236.364 103.234C236.364 103.234 236.364 103.234 236.364 103.416C236.364 103.599 236.364 103.667 236.364 103.804C236.364 103.941 236.478 104.077 236.569 104.237L236.82 104.852C236.781 105.139 236.634 105.4 236.41 105.582C236.177 105.77 235.904 105.903 235.612 105.97Z" fill="#B8C318"/>
<path d="M240.423 106.173C240.263 105.974 240.154 105.739 240.104 105.489C240.059 105.187 240.059 104.879 240.104 104.577C240.11 104.35 240.157 104.127 240.24 103.916C240.212 103.796 240.212 103.671 240.24 103.551C240.272 103.471 240.272 103.381 240.24 103.3C240.204 103.174 240.204 103.039 240.24 102.913C240.24 102.708 240.24 102.525 240.4 102.366C240.573 101.979 240.725 101.583 240.856 101.18C241.038 100.701 241.198 100.2 241.38 99.6983L241.791 98.376L241.996 97.7148C241.996 97.4869 242.155 97.3501 242.452 97.3273C242.606 97.3044 242.763 97.3194 242.91 97.371C243.057 97.4227 243.189 97.5094 243.295 97.6237C243.588 97.8641 243.842 98.1487 244.048 98.4672C244.128 98.5459 244.187 98.6436 244.218 98.7513C244.25 98.859 244.254 98.9731 244.23 99.0827C244.149 99.4452 244.027 99.7972 243.865 100.131C243.744 100.37 243.652 100.623 243.592 100.884C243.5 101.176 243.424 101.473 243.364 101.773C243.364 101.91 243.204 102.138 243.09 102.411C242.976 102.685 242.908 102.936 242.839 103.186C242.776 103.355 242.737 103.531 242.725 103.711C242.725 103.984 242.725 104.235 242.566 104.509C242.529 104.733 242.452 104.95 242.338 105.147C242.171 105.922 241.874 106.378 241.449 106.515C241.263 106.559 241.068 106.55 240.887 106.49C240.706 106.43 240.545 106.32 240.423 106.173ZM243.523 94.774C243.323 94.6321 243.158 94.4445 243.045 94.2268C242.952 94.0406 242.89 93.8404 242.862 93.6341C242.839 93.5289 242.839 93.4201 242.862 93.3149C243.086 93.0801 243.257 92.8003 243.364 92.4942C243.505 92.1662 243.665 91.8465 243.842 91.5367L244.002 91.3087C244.002 91.3087 244.139 91.1263 244.207 91.1263C244.353 91.0423 244.518 90.998 244.686 90.998C244.854 90.998 245.019 91.0423 245.165 91.1263C245.533 91.2639 245.851 91.5104 246.077 91.8331C246.231 92.1839 246.286 92.5702 246.236 92.9501C246.135 93.3978 245.923 93.8131 245.621 94.1584C245.351 94.5203 244.964 94.778 244.526 94.8879C244.356 94.9267 244.179 94.9306 244.006 94.8992C243.834 94.8679 243.67 94.8021 243.523 94.7056V94.774Z" fill="#B8C318"/>
<path d="M250.817 106.766C250.267 106.857 249.703 106.81 249.176 106.629C248.655 106.437 248.192 106.115 247.83 105.694C247.482 105.253 247.297 104.706 247.306 104.144C247.265 103.456 247.319 102.766 247.466 102.092C247.64 101.309 247.892 100.546 248.218 99.8126C248.503 99.0823 248.895 98.3985 249.381 97.7837C249.737 97.3449 250.118 96.9262 250.521 96.5298C250.813 96.2112 251.16 95.9485 251.546 95.7546C251.859 95.6226 252.189 95.5381 252.527 95.5039H253.348C253.692 95.5959 254.028 95.7179 254.351 95.8686C254.715 96.051 254.921 96.2562 254.921 96.4842L255.057 96.621C255.171 96.621 255.308 96.7577 255.445 97.0313C255.595 97.334 255.703 97.6564 255.764 97.9888C255.871 98.2521 255.871 98.5463 255.764 98.8095C255.675 99.1904 255.521 99.553 255.308 99.881C255.103 100.223 254.921 100.383 254.761 100.383H254.442C254.442 100.383 254.442 100.383 254.442 100.542C254.442 100.702 254.442 100.679 254.145 100.679C253.934 100.685 253.725 100.646 253.53 100.565C253.441 100.541 253.358 100.498 253.287 100.439C253.216 100.38 253.159 100.306 253.119 100.223C253.103 100.102 253.103 99.9793 253.119 99.8582C253.119 99.6986 253.119 99.4479 253.279 99.0831C253.38 98.733 253.38 98.3617 253.279 98.0116C253.279 97.8292 252.937 97.8292 252.55 98.0116C252.111 98.254 251.718 98.5702 251.387 98.9463C251.038 99.3867 250.762 99.879 250.566 100.405C250.26 101.272 250.002 102.155 249.791 103.05C249.69 103.384 249.69 103.741 249.791 104.076C249.791 104.327 249.951 104.463 249.996 104.463C250.288 104.533 250.593 104.533 250.885 104.463C251.155 104.434 251.418 104.357 251.661 104.235C251.945 104.087 252.219 103.919 252.481 103.734L253.256 103.141C253.374 103.066 253.462 102.954 253.507 102.822C253.578 102.659 253.709 102.528 253.872 102.457C253.93 102.355 254.013 102.268 254.112 102.205C254.211 102.141 254.324 102.103 254.442 102.092H255.148C255.33 102.138 255.496 102.233 255.627 102.366C255.782 102.494 255.913 102.649 256.015 102.822C256.015 102.959 256.015 103.05 256.015 103.118C256.015 103.187 256.015 103.118 255.878 103.255C255.741 103.392 255.878 103.506 255.627 103.779C255.397 104.079 255.146 104.361 254.875 104.623C254.604 104.908 254.315 105.174 254.009 105.421C253.841 105.575 253.637 105.685 253.416 105.74C253.233 105.74 253.142 105.74 253.142 105.922C253.02 106.033 252.881 106.125 252.732 106.196L251.774 106.652C251.46 106.72 251.139 106.758 250.817 106.766Z" fill="#B8C318"/>
<path d="M260.711 106.812C260.189 106.626 259.708 106.34 259.298 105.968C259.001 105.672 258.887 105.421 258.933 105.193C258.979 105.074 259.049 104.965 259.138 104.874C259.33 104.759 259.557 104.718 259.776 104.76C260.309 104.791 260.837 104.883 261.349 105.033H261.965H262.558C262.709 105.002 262.855 104.948 262.991 104.874C262.991 104.874 263.128 104.874 262.991 104.714L262.786 104.509C262.725 104.422 262.636 104.358 262.535 104.327C262.453 104.306 262.366 104.306 262.284 104.327C262.216 104.216 262.131 104.116 262.033 104.03L261.6 103.734C261.167 103.392 260.802 103.073 260.46 102.822C260.118 102.571 259.982 102.343 260.05 102.206V102.07C259.913 102.07 259.799 101.887 259.685 101.5C259.575 101.176 259.514 100.838 259.503 100.497C259.509 100.104 259.595 99.716 259.754 99.3566C259.914 98.9682 260.12 98.6008 260.369 98.2624C260.618 97.9438 260.884 97.6394 261.167 97.3505C261.532 97.0085 261.919 96.6665 262.33 96.3474C262.747 95.9995 263.197 95.694 263.675 95.4354C264.173 95.1527 264.711 94.9453 265.271 94.8199C265.573 94.7827 265.88 94.7827 266.183 94.8199C266.441 94.8029 266.699 94.8499 266.935 94.9567C267.021 94.9043 267.119 94.8766 267.22 94.8766C267.32 94.8766 267.419 94.9043 267.505 94.9567C267.76 95.1205 267.99 95.3202 268.189 95.5494C268.395 95.7683 268.571 96.0137 268.713 96.279C268.713 96.507 268.713 96.8033 268.713 97.1225C268.739 97.4183 268.739 97.7158 268.713 98.0116C268.713 98.2623 268.713 98.3763 268.462 98.3763C268.212 98.3763 268.303 98.3764 268.303 98.5359C268.286 98.6691 268.24 98.7971 268.17 98.9112C268.099 99.0253 268.004 99.1228 267.892 99.1971C267.565 99.4255 267.222 99.6312 266.866 99.8126C266.525 99.9494 266.274 99.9722 266.114 99.8126L265.795 99.5846C265.694 99.5019 265.609 99.4015 265.544 99.2882C265.473 99.1779 265.426 99.0536 265.407 98.9235C265.425 98.8028 265.481 98.6909 265.567 98.6043C265.798 98.4011 266.005 98.1716 266.183 97.9204C266.306 97.7524 266.406 97.5683 266.479 97.3732C266.504 97.2452 266.504 97.1137 266.479 96.9857C266.494 96.9496 266.502 96.9108 266.502 96.8717C266.502 96.8326 266.494 96.7938 266.479 96.7577H266.183C265.965 96.8052 265.756 96.89 265.567 97.0085C265.224 97.1605 264.896 97.3437 264.587 97.5557C264.297 97.7297 264.022 97.9279 263.766 98.1483L263.629 98.3992C263.604 98.4113 263.577 98.4175 263.549 98.4175C263.522 98.4175 263.495 98.4113 263.47 98.3992C263.47 98.3992 263.47 98.3992 263.31 98.3992L262.968 98.7867L262.581 99.3339L262.261 99.7898C262.243 99.9559 262.197 100.118 262.125 100.269C262.081 100.41 262.081 100.561 262.125 100.702C262.148 100.916 262.254 101.112 262.421 101.249C262.65 101.484 262.894 101.705 263.15 101.91C263.834 102.412 264.313 102.799 264.655 103.073C264.906 103.284 265.142 103.512 265.362 103.757C265.481 103.912 265.567 104.09 265.613 104.281C265.749 104.512 265.821 104.776 265.821 105.045C265.821 105.313 265.749 105.577 265.613 105.808C265.354 106.255 264.953 106.6 264.473 106.789C264.15 106.918 263.813 107.01 263.47 107.062C262.969 107.109 262.465 107.109 261.965 107.062C261.535 107.062 261.108 106.977 260.711 106.812Z" fill="#B8C318"/>
</svg>
