<svg width="416" height="141" viewBox="0 0 416 141" fill="none" xmlns="http://www.w3.org/2000/svg">
<path d="M346.935 8.58105H71.4238C37.4089 8.58105 9.83438 36.1556 9.83438 70.1705C9.83438 104.185 37.4089 131.76 71.4238 131.76H346.935C380.95 131.76 408.525 104.185 408.525 70.1705C408.525 36.1556 380.95 8.58105 346.935 8.58105Z" fill="white"/>
<path d="M346.936 140.309H71.4245C62.1061 140.477 52.8476 138.786 44.1896 135.336C35.5317 131.887 27.6478 126.746 20.9985 120.216C14.3492 113.685 9.0676 105.895 5.46224 97.3009C1.85688 88.7065 0 79.48 0 70.16C0 60.84 1.85688 51.6135 5.46224 43.0191C9.0676 34.4248 14.3492 26.6348 20.9985 20.1043C27.6478 13.5737 35.5317 8.43341 44.1896 4.98354C52.8476 1.53367 62.1061 -0.156584 71.4245 0.0113981H346.936C365.322 0.342832 382.842 7.87914 395.727 20.9985C408.612 34.1178 415.831 51.7714 415.831 70.16C415.831 88.5486 408.612 106.202 395.727 119.322C382.842 132.441 365.322 139.977 346.936 140.309ZM71.4245 17.2209C64.368 17.0746 57.3532 18.3381 50.7912 20.9374C44.2292 23.5367 38.2519 27.4195 33.2097 32.3583C28.1674 37.2971 24.1615 43.1926 21.4268 49.6993C18.692 56.206 17.2833 63.1931 17.2833 70.2512C17.2833 77.3093 18.692 84.2963 21.4268 90.803C24.1615 97.3098 28.1674 103.205 33.2097 108.144C38.2519 113.083 44.2292 116.966 50.7912 119.565C57.3532 122.164 64.368 123.428 71.4245 123.281H346.936C360.81 122.994 374.019 117.28 383.729 107.367C393.44 97.4528 398.878 84.1283 398.878 70.2512C398.878 56.3741 393.44 43.0496 383.729 33.1358C374.019 23.222 360.81 17.5085 346.936 17.2209H71.4245Z" fill="#7DBD36"/>
<path d="M346.935 8.58105H71.4238C37.4089 8.58105 9.83438 36.1556 9.83438 70.1705C9.83438 104.185 37.4089 131.76 71.4238 131.76H346.935C380.95 131.76 408.525 104.185 408.525 70.1705C408.525 36.1556 380.95 8.58105 346.935 8.58105Z" fill="#FDFDFB"/>
<path d="M93.512 36.7105V40.2435H104.727C105.101 40.1958 105.482 40.2342 105.839 40.3556C106.197 40.477 106.522 40.6783 106.79 40.9441C107.058 41.21 107.262 41.5335 107.386 41.89C107.511 42.2465 107.552 42.6266 107.508 43.0016V65.3169C107.508 70.9243 102.105 72.1551 96.8856 69.5566C96.457 69.4196 96.0974 69.1233 95.8811 68.7288C95.6648 68.3343 95.6082 67.8718 95.723 67.4368C95.7787 67.2176 95.8774 67.0116 96.0133 66.8308C96.1491 66.65 96.3195 66.4979 96.5146 66.3835C96.7096 66.269 96.9254 66.1943 97.1495 66.1639C97.3736 66.1334 97.6016 66.1477 97.8201 66.2059C100.487 66.5479 101.034 66.0691 101.034 64.2456V62.3765C99.9399 63.8809 98.4811 63.7442 97.1363 62.1258C96.1893 60.9035 95.1532 59.7531 94.0363 58.6839C93.8131 58.4189 93.6359 58.1185 93.512 57.7949V67.9155C93.512 69.6934 92.3724 70.6736 90.3437 70.6736C88.315 70.6736 87.1525 69.6934 87.1525 67.9155V52.0964C86.9567 52.3973 86.7436 52.6864 86.5142 52.9625C86.241 53.2942 85.8865 53.5494 85.4852 53.703C85.0839 53.8567 84.6497 53.9037 84.2248 53.8394C83.8 53.7751 83.399 53.6017 83.0612 53.3362C82.7234 53.0706 82.4602 52.722 82.2974 52.3243C81.454 51.0479 80.4283 49.6347 79.5849 48.5861V59.3677C79.7545 59.247 79.9382 59.1475 80.1319 59.0714C81.5905 58.3546 82.9859 57.5158 84.3032 56.564C84.621 56.2927 85.0251 56.1437 85.4429 56.1437C85.8607 56.1437 86.2649 56.2927 86.5826 56.564C87.2436 57.1111 87.0841 58.0912 86.5826 58.8434C85.6307 60.5565 84.3979 62.0975 82.9356 63.4023C82.532 63.9025 81.9599 64.2387 81.3265 64.3477C80.693 64.4568 80.0414 64.3314 79.4937 63.9949V67.9839C79.4937 69.7618 78.354 70.7419 76.3026 70.7419C74.2511 70.7419 73.1113 69.7618 73.1113 67.9839V43.0928C73.0668 42.7178 73.1082 42.3377 73.2326 41.9812C73.3569 41.6247 73.5609 41.3011 73.8289 41.0353C74.097 40.7694 74.4222 40.5681 74.7797 40.4467C75.1372 40.3253 75.5177 40.287 75.8922 40.3347H87.0157V36.7105H73.6356C73.3805 36.7426 73.1213 36.7169 72.8775 36.635C72.6337 36.5531 72.4116 36.4173 72.2276 36.2377C72.0435 36.058 71.9023 35.8392 71.8146 35.5974C71.7269 35.3556 71.6949 35.0972 71.7209 34.8413C71.6992 34.5864 71.7343 34.3299 71.8235 34.0901C71.9127 33.8504 72.0539 33.6333 72.2369 33.4546C72.42 33.2759 72.6404 33.14 72.8822 33.0566C73.124 32.9732 73.3813 32.9444 73.6356 32.9722H106.938C107.433 32.9722 107.909 33.1691 108.259 33.5197C108.61 33.8702 108.807 34.3456 108.807 34.8413C108.807 35.3371 108.61 35.8125 108.259 36.163C107.909 36.5135 107.433 36.7105 106.938 36.7105H93.512ZM87.1525 49.8398V44.0729H80.0864C80.0197 44.0696 79.9529 44.0804 79.8906 44.1044C79.8283 44.1285 79.7717 44.1653 79.7245 44.2126C79.6773 44.2598 79.6405 44.3164 79.6164 44.3787C79.5924 44.441 79.5816 44.5076 79.5849 44.5744V46.2384C79.8313 45.9494 80.1691 45.7533 80.5423 45.6828C80.9155 45.6123 81.3015 45.6716 81.6364 45.8508C83.2253 46.5775 84.7058 47.5211 86.0356 48.6545C86.494 48.9585 86.8762 49.3641 87.1525 49.8398ZM93.512 44.0729V50.7288C93.633 50.5081 93.7782 50.3016 93.9451 50.1133C94.9377 49.176 95.8106 48.1195 96.5437 46.9678C97.6378 45.2126 99.051 44.8023 100.487 46.1016L101.034 46.6942V44.5744C101.037 44.5076 101.027 44.441 101.003 44.3787C100.978 44.3164 100.942 44.2598 100.894 44.2126C100.847 44.1653 100.791 44.1285 100.728 44.1044C100.666 44.0804 100.599 44.0696 100.533 44.0729H93.512ZM101.034 58.6839V49.5663C100.773 49.9377 100.458 50.268 100.1 50.5464C98.891 51.6527 97.4936 52.5329 95.9738 53.1449C95.5849 53.3532 95.1306 53.4031 94.7058 53.2841C94.281 53.1652 93.9186 52.8866 93.6944 52.5067C93.6175 52.4188 93.5559 52.3186 93.512 52.2104V57.0199C93.5687 56.8373 93.6451 56.6616 93.74 56.4957C93.8249 56.3145 93.9456 56.1525 94.0948 56.0192C94.244 55.886 94.4187 55.7844 94.6082 55.7205C94.7978 55.6566 94.9984 55.6317 95.1978 55.6474C95.3972 55.6631 95.5914 55.719 95.7686 55.8118C97.4439 56.3759 99.0207 57.1989 100.441 58.2508C100.66 58.3641 100.86 58.5102 101.034 58.6839Z" fill="#594A39"/>
<path d="M155.259 65.705C153.572 67.7792 151.316 67.688 149.287 65.477C145.718 61.5333 143.036 56.8695 141.423 51.8006V65.3175C141.423 70.8792 135.77 72.6343 128.886 69.3064C128.437 69.1509 128.067 68.824 127.858 68.397C127.649 67.9699 127.617 67.4774 127.77 67.027C127.998 66.1836 128.636 65.7505 130.049 65.9329C133.536 66.366 134.608 65.9329 134.608 63.6535V46.3301C132.488 55.4477 127.291 63.5395 120.589 67.4373C119.609 67.9843 118.926 67.8248 118.424 67.0498C118.293 66.8811 118.197 66.688 118.141 66.4818C118.084 66.2756 118.07 66.0603 118.097 65.8484C118.125 65.6364 118.194 65.4321 118.301 65.2471C118.408 65.062 118.55 64.9001 118.72 64.7704C123.698 59.5023 126.944 52.8364 128.02 45.669C128.035 45.597 128.032 45.5227 128.013 45.4519C127.994 45.3811 127.958 45.3156 127.91 45.2605C127.862 45.2055 127.801 45.1623 127.733 45.1343C127.665 45.1063 127.592 45.0943 127.519 45.0992H120.681C120.197 45.0992 119.733 44.907 119.391 44.5651C119.049 44.2231 118.857 43.7592 118.857 43.2756C118.857 42.792 119.049 42.3282 119.391 41.9862C119.733 41.6442 120.197 41.4521 120.681 41.4521H127.792C128.436 40.8551 129.232 40.4476 130.093 40.2746C130.954 40.1017 131.846 40.17 132.67 40.472C133.48 40.7725 134.147 41.3664 134.539 42.1359V34.3176C134.539 33.3926 134.907 32.5056 135.561 31.8515C136.215 31.1975 137.102 30.8301 138.027 30.8301C138.952 30.8301 139.839 31.1975 140.493 31.8515C141.147 32.5056 141.514 33.3926 141.514 34.3176V39.1727C142.102 41.4318 142.864 43.6419 143.794 45.783C145.436 43.9771 146.959 42.066 148.353 40.0617C149.72 38.1014 151.407 38.0558 153.322 39.5374C153.717 39.8073 154.04 40.1695 154.263 40.5925C154.486 41.0156 154.603 41.4867 154.603 41.965C154.603 42.4433 154.486 42.9144 154.263 43.3374C154.04 43.7605 153.717 44.1226 153.322 44.3926C151.083 46.5401 148.473 48.2625 145.617 49.4756C147.795 53.4026 150.714 56.8704 154.211 59.6873C156.422 61.6248 157.014 63.5623 155.259 65.705Z" fill="#594A39"/>
<path d="M200.484 36.9821V67.9363C200.484 70.079 199.298 71.0363 197.179 71.0363C195.059 71.0363 193.851 70.079 193.851 67.9363V67.3437H173.518V68.0731C173.518 70.1929 172.356 71.1731 170.236 71.1731C168.116 71.1731 166.885 70.1929 166.885 68.0731V36.9364C166.841 36.5636 166.883 36.1858 167.006 35.8312C167.129 35.4766 167.331 35.1544 167.596 34.889C167.861 34.6236 168.184 34.4218 168.538 34.2987C168.893 34.1756 169.271 34.1345 169.643 34.1784H197.657C198.039 34.1262 198.427 34.1626 198.792 34.2847C199.157 34.4068 199.489 34.6114 199.763 34.8825C200.036 35.1536 200.243 35.484 200.368 35.8481C200.493 36.2122 200.533 36.6002 200.484 36.9821ZM193.851 63.6055V38.4181C193.854 38.3514 193.843 38.2847 193.819 38.2224C193.795 38.16 193.758 38.1035 193.711 38.0562C193.664 38.009 193.607 37.9722 193.545 37.9481C193.483 37.9241 193.416 37.9134 193.349 37.9166H174.02C173.953 37.9134 173.887 37.9241 173.824 37.9481C173.762 37.9722 173.705 38.009 173.658 38.0562C173.611 38.1035 173.574 38.16 173.55 38.2224C173.526 38.2847 173.515 38.3514 173.518 38.4181V63.6055H193.851ZM191.434 45.6894V55.9239C191.478 56.2967 191.437 56.6746 191.314 57.0292C191.191 57.3838 190.989 57.7059 190.724 57.9713C190.458 58.2367 190.136 58.4385 189.782 58.5616C189.427 58.6847 189.049 58.7259 188.676 58.682H178.738C178.365 58.7259 177.988 58.6847 177.633 58.5616C177.278 58.4385 176.956 58.2367 176.691 57.9713C176.425 57.7059 176.224 57.3838 176.1 57.0292C175.977 56.6746 175.936 56.2967 175.98 55.9239V45.6894C175.936 45.3166 175.977 44.9387 176.1 44.5841C176.224 44.2295 176.425 43.9073 176.691 43.6419C176.956 43.3765 177.278 43.1747 177.633 43.0516C177.988 42.9285 178.365 42.8874 178.738 42.9313H188.676C189.049 42.8874 189.427 42.9285 189.782 43.0516C190.136 43.1747 190.458 43.3765 190.724 43.6419C190.989 43.9073 191.191 44.2295 191.314 44.5841C191.437 44.9387 191.478 45.3166 191.434 45.6894ZM185.485 46.9886C185.489 46.9219 185.478 46.8552 185.454 46.7929C185.43 46.7306 185.393 46.674 185.346 46.6268C185.298 46.5796 185.242 46.5428 185.179 46.5187C185.117 46.4947 185.051 46.4839 184.984 46.4871H182.431C182.364 46.4839 182.298 46.4947 182.235 46.5187C182.173 46.5428 182.116 46.5796 182.069 46.6268C182.022 46.674 181.985 46.7306 181.961 46.7929C181.937 46.8552 181.926 46.9219 181.929 46.9886V54.6018C181.926 54.6685 181.937 54.7352 181.961 54.7975C181.985 54.8599 182.022 54.9164 182.069 54.9637C182.116 55.0109 182.173 55.0477 182.235 55.0718C182.298 55.0958 182.364 55.1065 182.431 55.1033H184.984C185.051 55.1065 185.117 55.0958 185.179 55.0718C185.242 55.0477 185.298 55.0109 185.346 54.9637C185.393 54.9164 185.43 54.8599 185.454 54.7975C185.478 54.7352 185.489 54.6685 185.485 54.6018V46.9886Z" fill="#594A39"/>
<path d="M248.898 69.3055C248.671 69.7621 248.341 70.16 247.934 70.4679C247.528 70.7757 247.055 70.9854 246.554 71.0803C246.053 71.1752 245.537 71.1529 245.046 71.015C244.555 70.8772 244.102 70.6275 243.724 70.2857C241.692 68.8052 239.907 67.0128 238.436 64.9747C236.046 67.4741 233.178 69.4665 230.002 70.8328C228.976 71.2659 228.201 71.0379 227.836 70.1945C227.752 70.061 227.691 69.9147 227.654 69.7615C227.369 70.2473 226.946 70.637 226.438 70.8807C225.931 71.1244 225.362 71.2108 224.805 71.129C222.776 71.129 221.659 70.1945 221.659 68.4165V58.4784C219.738 59.7154 217.708 60.7759 215.596 61.6468C213.499 62.5586 211.972 61.9203 211.379 60.0512C210.786 58.1821 211.379 56.8144 213.134 56.3357V38.4197C213.134 36.505 214.183 35.6615 216.097 35.6615C218.012 35.6615 219.083 36.505 219.083 38.4197V55.196C219.972 54.9909 220.816 54.7858 221.659 54.5123V34.2028C221.659 32.1741 222.776 31.2851 224.805 31.2851C226.833 31.2851 227.95 32.1741 227.95 34.2028V68.3938C228.117 68.2176 228.3 68.0573 228.497 67.9151C231.438 65.8563 233.902 63.19 235.723 60.0967C234.286 56.5762 233.402 52.8549 233.102 49.0644C232.434 50.1195 231.671 51.1114 230.822 52.0277C230.047 52.8027 229.363 52.8483 228.702 52.2784C228.519 52.1614 228.362 52.0082 228.241 51.8283C228.119 51.6484 228.035 51.4455 227.995 51.2321C227.954 51.0187 227.957 50.7992 228.005 50.5872C228.052 50.3751 228.142 50.175 228.269 49.999C230.189 44.95 231.334 39.6397 231.666 34.2483C231.632 33.7402 231.723 33.2314 231.933 32.7671C232.142 32.3029 232.463 31.8973 232.866 31.5863C233.269 31.2754 233.743 31.0685 234.245 30.9842C234.748 30.8999 235.263 30.9406 235.746 31.1027C238.025 31.4902 238.755 32.7211 238.344 35.0917C238.048 36.6706 237.66 38.231 237.182 39.7645H247.804C248.255 39.8149 248.672 40.0299 248.975 40.3684C249.278 40.707 249.445 41.1452 249.445 41.5994C249.445 42.0536 249.278 42.4919 248.975 42.8304C248.672 43.1689 248.255 43.3839 247.804 43.4343H246.231C246.115 49.1538 244.705 54.7727 242.105 59.8688C243.701 61.5324 245.501 62.9876 247.462 64.1997C247.937 64.3913 248.362 64.6893 248.704 65.0707C249.045 65.4521 249.295 65.9068 249.434 66.3999C249.573 66.893 249.596 67.4113 249.504 67.915C249.411 68.4187 249.203 68.8944 248.898 69.3055ZM238.185 54.2615C239.094 50.7674 239.599 47.1804 239.689 43.5711H235.905C235.905 43.8218 235.677 44.0725 235.609 44.2777C235.871 47.7316 236.743 51.1117 238.185 54.2615Z" fill="#594A39"/>
<path d="M260.09 69.4652C259.064 69.7615 258.381 69.4652 258.016 68.7586C257.908 68.5761 257.841 68.3728 257.819 68.1622C257.797 67.9516 257.82 67.7387 257.887 67.5378C257.954 67.3369 258.063 67.1527 258.207 66.9976C258.351 66.8425 258.527 66.7201 258.722 66.6387C261.879 64.6341 264.657 62.0877 266.928 59.1167C268.342 57.2704 270.165 56.8373 271.738 58.1365C273.311 59.4358 273.265 61.0998 271.738 62.6954C268.446 65.8428 264.454 68.1632 260.09 69.4652ZM281.448 55.5836V66.0004C281.448 70.9923 276.479 72.4512 270.051 69.5107C269.025 69.0549 268.683 68.4166 268.934 67.5732C269.185 66.7299 269.8 66.3651 270.803 66.5019C274.131 66.8894 274.587 66.2512 274.587 64.2225V56.427C270.849 56.8145 266.997 57.1108 263.19 57.2704C260.911 57.4071 259.794 56.427 259.794 54.5123C259.794 52.5976 260.797 51.5946 263.008 51.6858H267.27C270.274 50.4414 273.145 48.8989 275.841 47.0814C272.701 47.7189 269.528 48.1755 266.336 48.4491C264.056 48.6542 262.939 47.6741 262.939 45.805C262.898 45.4025 262.951 44.996 263.093 44.6173C263.235 44.2385 263.463 43.8979 263.759 43.6219C264.055 43.346 264.41 43.1422 264.798 43.0266C265.186 42.911 265.595 42.8868 265.994 42.9557C267.019 42.9557 268.045 42.9557 269.048 42.9557C270.241 41.5739 271.338 40.1116 272.33 38.5792C269.185 38.716 266.153 38.716 263.213 38.5792C261.936 38.5792 261.253 38.0322 261.253 37.0064C261.253 35.9807 261.686 35.4793 263.167 35.3425C271.774 34.6487 280.293 33.122 288.605 30.7837C288.976 30.6171 289.381 30.5391 289.788 30.556C290.194 30.5728 290.591 30.6841 290.947 30.8809C291.303 31.0777 291.609 31.3547 291.839 31.69C292.07 32.0252 292.219 32.4094 292.275 32.8123C292.42 33.1921 292.472 33.6007 292.428 34.0046C292.384 34.4086 292.246 34.7965 292.024 35.1365C291.801 35.4766 291.502 35.7593 291.149 35.9615C290.797 36.1637 290.402 36.2796 289.996 36.2998C286.759 36.9381 283.705 37.3712 280.878 37.7131C278.742 39.6059 276.455 41.3212 274.04 42.8418L281.061 42.6366C281.95 41.7704 282.838 40.8359 283.636 39.9013C283.898 39.5043 284.243 39.1684 284.646 38.9166C285.05 38.6649 285.503 38.5032 285.974 38.4426C286.446 38.382 286.925 38.4239 287.38 38.5655C287.834 38.7071 288.252 38.9451 288.605 39.2631C288.996 39.5179 289.316 39.866 289.538 40.2759C289.76 40.6858 289.877 41.1447 289.877 41.6109C289.877 42.077 289.76 42.5358 289.538 42.9458C289.316 43.3557 288.996 43.7039 288.605 43.9587C284.863 47.1189 280.628 49.6445 276.069 51.4351C279.761 51.4351 283.545 51.116 287.739 50.8652C287.385 50.1514 286.989 49.4588 286.554 48.791C286.434 48.6368 286.347 48.4594 286.299 48.2699C286.251 48.0804 286.243 47.883 286.275 47.6902C286.307 47.4974 286.379 47.3134 286.486 47.1497C286.593 46.9861 286.732 46.8464 286.896 46.7395C287.191 46.4672 287.577 46.316 287.979 46.316C288.38 46.316 288.766 46.4672 289.061 46.7395C291.214 48.3343 293.119 50.2392 294.714 52.3924C295.023 52.7038 295.253 53.0845 295.385 53.5026C295.517 53.9208 295.548 54.3644 295.475 54.7967C295.401 55.2291 295.225 55.6377 294.962 55.9886C294.699 56.3395 294.356 56.6226 293.962 56.8145C292.298 57.8402 290.725 57.3159 289.882 55.2417L289.244 53.7145C286.987 54.6035 284.275 55.1049 281.448 55.5836ZM295.124 68.3255C293.643 69.9439 291.865 69.7615 290.338 67.8924C288.04 65.1359 285.565 62.5319 282.93 60.0968C282.614 59.8569 282.405 59.502 282.35 59.1093C282.294 58.7166 282.396 58.3178 282.633 57.9998C282.859 57.6842 283.193 57.4631 283.572 57.3789C283.95 57.2948 284.347 57.3535 284.685 57.5439C288.262 59.0748 291.62 61.0755 294.669 63.4932C295.085 63.724 295.44 64.0509 295.704 64.4466C295.968 64.8424 296.134 65.2956 296.187 65.7684C296.241 66.2412 296.18 66.7199 296.011 67.1647C295.842 67.6095 295.57 68.0075 295.216 68.3255H295.124Z" fill="#594A39"/>
<path d="M310.283 60.2104C310.603 63.0049 310.603 65.8269 310.283 68.6214C310.249 69.0437 310.112 69.4512 309.884 69.8084C309.656 70.1656 309.344 70.4615 308.975 70.6706C308.606 70.8796 308.192 70.9953 307.769 71.0076C307.345 71.0199 306.925 70.9285 306.545 70.7412C306.165 70.6905 305.804 70.5447 305.495 70.3175C305.187 70.0903 304.94 69.789 304.779 69.4414C304.618 69.0938 304.547 68.7111 304.573 68.3287C304.598 67.9463 304.72 67.5766 304.927 67.2537C306.061 64.9398 306.888 62.4877 307.388 59.9596C307.399 59.7736 307.448 59.5918 307.532 59.4253C307.616 59.2589 307.733 59.1114 307.876 58.9918C308.019 58.8723 308.185 58.7833 308.364 58.7302C308.543 58.6771 308.73 58.6611 308.915 58.6832C309.736 58.7288 310.146 59.2758 310.283 60.2104ZM337.476 70.2853C331.664 70.2853 330.638 69.5104 330.638 64.9743V51.1155L329.316 51.3663V52.5972C329.316 60.5979 327.287 67.9376 318.58 71.3111C318.409 71.4118 318.219 71.4754 318.021 71.4976C317.824 71.5198 317.624 71.5001 317.435 71.4399C317.245 71.3797 317.071 71.2803 316.923 71.1481C316.775 71.0159 316.656 70.854 316.574 70.6729C316.48 70.4967 316.421 70.3033 316.402 70.1042C316.382 69.905 316.403 69.7041 316.463 69.5131C316.522 69.322 316.619 69.1448 316.748 68.9917C316.877 68.8386 317.035 68.7127 317.213 68.6214C322.387 64.9288 323.549 61.3501 323.549 52.392V52.1413H322.615C320.905 52.2553 319.925 51.2751 319.879 49.3832C319.834 47.4913 320.7 46.6479 322.432 46.6479H323.595C324.406 44.5581 325.084 42.4187 325.624 40.2428H320.746C320.534 40.2665 320.319 40.2665 320.107 40.2428C320.221 40.6996 320.237 41.1752 320.155 41.6386C320.072 42.1021 319.893 42.5429 319.629 42.9325C317.737 46.209 315.49 49.2667 312.927 52.0501L315.89 51.731L315.64 50.9104C315.493 50.5179 315.495 50.0852 315.647 49.6944C315.798 49.3036 316.087 48.9819 316.46 48.7906C316.828 48.5901 317.259 48.5398 317.662 48.6503C318.066 48.7608 318.412 49.0236 318.626 49.3832C319.769 50.8512 320.734 52.4505 321.498 54.1472C321.684 54.4256 321.799 54.7453 321.833 55.0784C321.867 55.4115 321.819 55.7479 321.693 56.0581C321.567 56.3684 321.367 56.6431 321.111 56.8583C320.854 57.0735 320.549 57.2227 320.221 57.2928C319.911 57.4417 319.571 57.5184 319.226 57.5171C318.882 57.5158 318.543 57.4365 318.233 57.2851C317.924 57.1338 317.653 56.9143 317.441 56.6432C317.228 56.3721 317.08 56.0565 317.007 55.72C317.007 55.4692 316.871 55.1501 316.779 54.8994C314.177 56.2195 311.431 57.2367 308.596 57.931C306.477 58.3869 305.405 57.589 305.109 55.5376C304.813 53.4861 305.747 52.3464 307.958 52.3236H308.368C309.554 50.4396 310.635 48.4916 311.605 46.4884C310.553 46.965 309.462 47.3538 308.346 47.6509C306.203 48.1523 304.904 47.3545 304.813 45.1435C304.735 44.7842 304.746 44.4116 304.844 44.0574C304.942 43.7031 305.124 43.3778 305.375 43.1092C305.625 42.8405 305.937 42.6365 306.284 42.5144C306.631 42.3924 307.002 42.356 307.366 42.4083C308.103 39.6169 308.681 36.7858 309.098 33.9289C309.105 33.4586 309.224 32.9967 309.444 32.5809C309.663 32.1651 309.978 31.807 310.363 31.536C310.747 31.2649 311.19 31.0885 311.655 31.0211C312.121 30.9536 312.596 30.9972 313.041 31.148C313.533 31.17 314.011 31.3201 314.427 31.5835C314.843 31.8469 315.183 32.2145 315.414 32.6498C315.644 33.0851 315.757 33.5731 315.74 34.0653C315.724 34.5575 315.579 35.0369 315.321 35.4561C314.24 37.9471 312.935 40.335 311.423 42.5906H313.451L314.227 40.6303C314.319 40.1897 314.51 39.7761 314.787 39.4214C315.065 39.0666 315.419 38.7802 315.825 38.5843C316.23 38.3883 316.674 38.2879 317.125 38.2909C317.575 38.2939 318.018 38.4002 318.421 38.6016C318.662 38.6756 318.892 38.7831 319.104 38.9208C319.082 38.785 319.082 38.6463 319.104 38.5104C319.069 38.2667 319.09 38.0182 319.164 37.7834C319.238 37.5486 319.364 37.3334 319.533 37.1539C319.701 36.9744 319.908 36.8351 320.138 36.7464C320.367 36.6576 320.614 36.6218 320.86 36.6414H327.105V34.134C327.105 32.3105 328.336 31.148 330.593 31.148C332.849 31.148 334.057 32.3105 334.057 34.134V36.6414H341.237C341.733 36.6414 342.209 36.8383 342.559 37.1888C342.91 37.5394 343.107 38.0147 343.107 38.5104C343.107 39.0062 342.91 39.4816 342.559 39.8321C342.209 40.1826 341.733 40.3796 341.237 40.3796H332.143C331.077 42.6026 329.81 44.7237 328.359 46.7163C331.048 46.7163 333.647 46.4884 336.132 46.2832C335.767 45.3487 335.425 44.5053 335.037 43.6847C334.924 43.5238 334.845 43.3405 334.808 43.147C334.77 42.9535 334.774 42.7543 334.819 42.5624C334.865 42.3706 334.95 42.1906 335.07 42.0343C335.19 41.878 335.342 41.7491 335.516 41.656C335.831 41.4181 336.223 41.3072 336.616 41.3452C337.009 41.3832 337.373 41.5674 337.636 41.8612C339.572 44.075 341.254 46.4987 342.651 49.0869C342.8 49.3937 342.888 49.727 342.909 50.0677C342.93 50.4085 342.883 50.75 342.772 51.0728C342.661 51.3955 342.487 51.6933 342.261 51.949C342.035 52.2046 341.761 52.4133 341.454 52.563C341.147 52.7127 340.814 52.8004 340.473 52.8213C340.132 52.8421 339.791 52.7957 339.468 52.6846C339.145 52.5735 338.848 52.3998 338.592 52.1736C338.336 51.9475 338.128 51.6731 337.978 51.3663C337.75 50.7281 337.545 50.0442 337.294 49.406C336.998 49.5428 336.656 49.6112 336.314 49.748V63.0368C336.314 64.4957 336.61 64.792 337.887 64.792C339.163 64.792 339.551 64.6096 339.551 59.1391C339.551 57.9994 340.189 57.5207 340.987 57.5207C341.784 57.5207 342.514 57.8626 342.696 59.1391C343.882 68.5302 342.947 70.2853 337.476 70.2853ZM314.158 68.7125C312.357 68.9177 311.468 67.8919 311.514 66.0684C311.546 63.899 311.447 61.7297 311.218 59.5722C311.171 59.3982 311.16 59.2164 311.187 59.0382C311.214 58.8601 311.278 58.6894 311.374 58.5372C311.471 58.385 311.598 58.2546 311.748 58.1542C311.897 58.0537 312.066 57.9854 312.243 57.9537C312.996 57.7486 313.52 57.9538 314.021 58.8883C315.071 61.005 315.837 63.2504 316.301 65.5669C316.734 67.5956 315.982 68.5302 314.158 68.7125ZM316.665 63.4927C316.216 61.8755 315.676 60.2849 315.047 58.7287C314.959 58.5753 314.904 58.405 314.886 58.2288C314.868 58.0526 314.888 57.8747 314.944 57.7067C315 57.5388 315.091 57.3846 315.211 57.2543C315.331 57.124 315.477 57.0205 315.64 56.9508C316.278 56.6089 316.825 56.8141 317.509 57.4979C318.813 58.8389 319.898 60.3775 320.723 62.0567C320.895 62.3225 321.003 62.6251 321.038 62.9401C321.073 63.2552 321.033 63.5739 320.922 63.8709C320.811 64.1678 320.632 64.4347 320.4 64.6501C320.167 64.8655 319.888 65.0234 319.583 65.1111C318.238 65.7038 317.076 65.0655 316.665 63.4927Z" fill="#594A39"/>
<path d="M100.053 108.306C100.053 108.488 99.7107 108.602 99.2776 108.602C98.8648 108.606 98.463 108.469 98.1379 108.215C97.963 108.062 97.8097 107.885 97.6821 107.691C97.642 107.478 97.6827 107.259 97.796 107.075L98.4798 105.502C98.5557 105.033 98.6858 104.574 98.8674 104.135L99.3004 103.132C99.3004 102.881 99.5284 102.425 99.7791 101.81C100.03 101.194 100.281 100.511 100.6 99.7355C100.919 98.9605 101.215 98.2539 101.511 97.5929L102.127 96.0429C102.469 95.2907 102.788 94.4929 103.13 93.6495C103.472 92.8061 103.95 91.7576 104.543 90.4812C104.591 90.3897 104.616 90.288 104.616 90.1848C104.616 90.0816 104.591 89.9799 104.543 89.8885C104.466 89.7814 104.362 89.6959 104.243 89.6401C104.123 89.5842 103.991 89.5599 103.859 89.5694C103.678 89.3935 103.565 89.1594 103.54 88.9084C103.518 88.8029 103.537 88.6931 103.591 88.6003C103.646 88.5076 103.734 88.4387 103.836 88.4069L106.458 87.5179C107.361 87.3079 108.293 87.2463 109.216 87.3356C110.148 87.4088 111.056 87.6725 111.883 88.1106C112.677 88.5442 113.363 89.1521 113.889 89.8885C114.279 90.4734 114.514 91.148 114.572 91.8488C114.63 92.451 114.552 93.0585 114.345 93.6267C114.128 94.1162 113.827 94.5637 113.456 94.9488C112.995 95.4532 112.5 95.9254 111.974 96.362C111.427 96.8346 110.848 97.2688 110.242 97.6613C109.716 98.0157 109.159 98.3209 108.578 98.573L106.959 99.2796C106.367 99.5076 105.797 99.7127 105.25 99.8723C104.894 99.9234 104.534 99.9234 104.178 99.8723C103.862 99.9321 103.537 99.9321 103.221 99.8723L102.742 100.807C102.56 101.491 102.218 102.494 101.762 103.861C101.306 105.229 100.668 106.688 100.053 108.306ZM111.45 108.853C111.201 108.9 110.946 108.9 110.697 108.853C110.267 108.8 109.859 108.635 109.512 108.374C108.629 107.851 107.791 107.256 107.005 106.596C105.99 105.713 105.045 104.753 104.178 103.724C103.803 103.295 103.495 102.811 103.267 102.288L102.514 100.488L102.127 98.9605L103.198 98.2311L104.452 99.2796C105.033 100.564 105.801 101.754 106.731 102.813C107.163 103.321 107.628 103.8 108.122 104.249C108.72 104.824 109.352 105.365 110.014 105.867C110.575 106.318 111.178 106.715 111.814 107.052C111.928 107.052 111.951 107.326 111.814 107.599C111.776 107.867 111.7 108.129 111.586 108.374C111.541 108.663 111.472 108.823 111.381 108.853H111.45ZM104.201 97.6613C104.694 97.6046 105.177 97.4819 105.637 97.2966L107.301 96.6355L108.942 95.7466C109.469 95.4553 109.966 95.1117 110.424 94.7208C110.848 94.3742 111.211 93.958 111.495 93.4899C111.745 93.0631 111.857 92.5694 111.814 92.0767C111.808 91.7885 111.729 91.5064 111.586 91.2561C111.455 90.9383 111.27 90.6453 111.039 90.39C110.845 90.1716 110.603 90.0002 110.333 89.8885C109.754 89.7421 109.169 89.628 108.578 89.5466C108.276 89.4956 107.967 89.5607 107.711 89.7289C107.489 89.9412 107.344 90.2222 107.301 90.5267C107.237 90.7137 107.161 90.8963 107.073 91.0738C106.914 91.3701 106.731 91.7576 106.503 92.2363C106.275 92.715 106.07 93.1936 105.865 93.7179L104.657 96.2024C104.475 96.5304 104.323 96.8736 104.201 97.2282C104.201 97.4561 104.201 97.5701 104.201 97.6613Z" fill="#B8C318"/>
<path d="M115.712 106.004C115.591 105.808 115.417 105.65 115.21 105.548C114.937 105.389 114.823 105.275 114.823 105.206C114.808 105.075 114.761 104.95 114.686 104.842C114.619 104.709 114.535 104.587 114.435 104.477C114.435 104.363 114.435 104.089 114.435 103.633C114.435 103.178 114.823 102.653 115.119 101.992C115.416 101.331 115.757 100.693 116.122 100.032C116.303 99.8497 116.456 99.6424 116.578 99.4165C116.738 99.1886 116.852 99.0063 116.92 98.9379C116.903 98.8706 116.903 98.8 116.92 98.7327C116.92 98.7327 116.92 98.6187 117.125 98.6187L117.353 98.1629C117.453 98.0007 117.567 97.8481 117.695 97.707L118.424 96.9548L119.313 96.157C119.545 95.9664 119.788 95.7913 120.043 95.6327C120.401 95.376 120.833 95.2403 121.274 95.2453C121.674 95.2548 122.06 95.3994 122.368 95.6555L122.755 95.9974L123.439 96.5673L124.123 97.1371L125.171 98.0717L124.693 99.5077C124.454 100.148 124.383 100.838 124.488 101.514C124.582 102.036 124.767 102.537 125.035 102.995C125.118 103.187 125.252 103.352 125.422 103.474C125.61 103.607 125.831 103.686 126.06 103.702C126.217 103.729 126.365 103.791 126.493 103.884C126.563 103.937 126.618 104.006 126.654 104.086C126.69 104.166 126.705 104.253 126.699 104.34C126.725 104.685 126.637 105.03 126.448 105.32C126.32 105.498 126.135 105.627 125.924 105.685C125.316 105.756 124.699 105.686 124.123 105.48C123.425 105.149 122.873 104.573 122.573 103.861C122.454 103.651 122.355 103.429 122.277 103.2C122.188 103.011 122.119 102.812 122.071 102.608L121.752 102.95L121.41 103.337C120.424 104.425 119.25 105.329 117.946 106.004C117.599 106.177 117.216 106.267 116.829 106.267C116.441 106.267 116.059 106.177 115.712 106.004ZM117.991 103.405C118.389 103.166 118.77 102.9 119.131 102.608L120.727 101.217C121.204 100.818 121.619 100.349 121.957 99.8269L122.596 98.8011C122.482 98.4795 122.304 98.1846 122.071 97.9349C122.013 97.8718 121.943 97.8211 121.864 97.7859C121.786 97.7506 121.701 97.7315 121.616 97.7298C121.271 97.7765 120.955 97.9465 120.727 98.2084C120.3 98.6234 119.918 99.0818 119.587 99.5761C119.154 100.192 118.675 100.921 118.128 101.856C117.817 102.429 117.565 103.032 117.376 103.656C117.561 103.614 117.733 103.528 117.877 103.405H117.991Z" fill="#B8C318"/>
<path d="M129.275 106.117C129.1 105.925 128.981 105.688 128.934 105.433C128.9 105.13 128.9 104.824 128.934 104.521C128.934 104.291 128.989 104.065 129.093 103.86C129.065 103.74 129.065 103.615 129.093 103.495C129.114 103.413 129.114 103.327 129.093 103.245C129.065 103.117 129.065 102.985 129.093 102.857C129.093 102.652 129.207 102.47 129.275 102.31L129.731 101.125C129.891 100.646 130.073 100.145 130.233 99.6431C130.392 99.1416 130.552 98.6858 130.666 98.3211L130.871 97.66C130.871 97.4321 131.008 97.2953 131.327 97.2725C131.478 97.2494 131.632 97.2644 131.775 97.3162C131.918 97.368 132.046 97.4548 132.148 97.5689C132.447 97.809 132.708 98.0934 132.922 98.4122C132.998 98.4941 133.053 98.5921 133.085 98.6988C133.117 98.8055 133.123 98.918 133.105 99.0277C133.014 99.3902 132.884 99.7417 132.717 100.076C132.717 100.243 132.626 100.494 132.444 100.828C132.261 101.163 132.193 101.459 132.239 101.717L131.965 102.356C131.861 102.609 131.77 102.868 131.692 103.131C131.639 103.302 131.601 103.477 131.578 103.655L131.441 104.453C131.394 104.675 131.317 104.889 131.213 105.091C131.031 105.866 130.734 106.322 130.301 106.459C130.115 106.505 129.92 106.498 129.738 106.438C129.557 106.377 129.396 106.266 129.275 106.117ZM132.353 94.7196C132.158 94.5777 132.001 94.3898 131.897 94.1726C131.794 93.9907 131.731 93.7884 131.714 93.5799C131.714 93.3975 131.714 93.3064 131.714 93.2608C131.928 93.0182 132.097 92.7406 132.216 92.4402C132.348 92.108 132.508 91.7877 132.695 91.4829L132.831 91.2549C132.853 91.2096 132.885 91.1697 132.925 91.1382C132.964 91.1067 133.01 91.0842 133.059 91.0725C133.205 90.9885 133.37 90.9443 133.538 90.9443C133.706 90.9443 133.871 90.9885 134.017 91.0725C134.382 91.2046 134.694 91.4528 134.906 91.7791C135.082 92.1232 135.138 92.5164 135.065 92.8961C134.964 93.3437 134.752 93.759 134.45 94.1042C134.194 94.4703 133.813 94.7299 133.378 94.8336C133.026 94.9105 132.657 94.8449 132.353 94.6512V94.7196Z" fill="#B8C318"/>
<path d="M146.006 105.912C145.644 105.879 145.29 105.786 144.958 105.639C144.637 105.443 144.401 105.134 144.297 104.773C144.252 104.455 144.252 104.133 144.297 103.815C144.273 103.489 144.273 103.162 144.297 102.835C144.297 102.516 144.297 102.243 144.297 102.015V101.49C144.302 101.288 144.229 101.092 144.091 100.943C143.923 100.878 143.736 100.878 143.567 100.943C143.116 101.169 142.681 101.428 142.268 101.718C141.759 102.043 141.272 102.401 140.809 102.79L139.236 104.089C138.908 104.441 138.604 104.814 138.325 105.206C138.119 105.502 137.914 105.639 137.709 105.639C137.633 105.683 137.546 105.706 137.458 105.706C137.37 105.706 137.284 105.683 137.208 105.639C137.026 105.519 136.851 105.39 136.683 105.251C136.547 105.092 136.387 104.91 136.205 104.659C136.074 104.517 135.966 104.356 135.886 104.18C135.861 103.907 135.861 103.633 135.886 103.36C135.933 103.094 136.009 102.834 136.114 102.585C136.114 102.334 136.341 102.015 136.501 101.673L136.706 101.262L136.957 100.784C137.047 100.474 137.153 100.17 137.276 99.8721L137.686 98.9147C137.891 98.4132 138.074 97.9802 138.188 97.6155C138.306 97.2347 138.397 96.8463 138.461 96.453C138.461 96.453 138.461 96.4529 138.461 96.2706C138.506 96.2067 138.57 96.1588 138.644 96.1338C138.894 96.0413 139.169 96.0413 139.419 96.1338C139.723 96.1784 140.012 96.2957 140.262 96.4758C140.45 96.6394 140.599 96.8431 140.697 97.0719C140.796 97.3008 140.842 97.5488 140.832 97.7978C140.734 98.6171 140.437 99.3998 139.966 100.077L139.555 100.921C139.45 101.081 139.373 101.258 139.327 101.445L140.102 100.852L140.65 100.465C140.85 100.275 141.063 100.1 141.288 99.9405L142.336 99.1198L143.248 98.4589L144.046 98.003C144.238 97.8898 144.445 97.8053 144.661 97.7523C144.902 97.7689 145.135 97.839 145.345 97.9574C145.619 98.0898 145.879 98.2502 146.12 98.436C146.371 98.6184 146.508 98.778 146.53 98.9375C146.539 99.0361 146.539 99.1353 146.53 99.2339C146.52 99.34 146.52 99.4468 146.53 99.5529C146.53 99.872 146.53 100.237 146.53 100.647C146.53 101.057 146.53 101.513 146.53 101.946C146.531 102.337 146.493 102.726 146.416 103.109C146.425 103.162 146.425 103.216 146.416 103.268V103.451L146.553 103.838C146.553 103.975 146.553 104.112 146.736 104.294C146.918 104.476 146.895 104.659 147.009 104.91C146.963 105.193 146.807 105.447 146.576 105.616C146.407 105.751 146.214 105.852 146.006 105.912Z" fill="#B8C318"/>
<path d="M152.182 105.73C151.886 105.73 151.612 105.525 151.316 105.092C151.016 104.605 150.793 104.074 150.655 103.519C150.494 102.91 150.432 102.279 150.472 101.65C150.43 101.165 150.43 100.676 150.472 100.191L150.678 99.0742C150.727 98.9883 150.765 98.8964 150.792 98.8007C150.792 98.8007 150.792 98.5955 150.792 98.4132C150.792 98.2308 150.792 97.9573 150.997 97.5698C151.047 97.2971 151.123 97.0299 151.225 96.772C151.28 96.6178 151.357 96.4721 151.453 96.3389C151.633 96.0756 151.899 95.8825 152.205 95.7919C152.461 95.6892 152.747 95.6892 153.003 95.7919C153.111 95.8542 153.203 95.9397 153.274 96.0422C153.345 96.1446 153.393 96.2616 153.413 96.3845C153.557 96.5728 153.623 96.8099 153.595 97.0456C153.639 97.3861 153.639 97.7308 153.595 98.0713C153.572 98.3382 153.486 98.5959 153.344 98.8235C153.27 99.0602 153.224 99.3051 153.208 99.5529C153.208 99.9632 153.208 100.373 153.071 100.829C152.934 101.285 152.957 101.604 152.911 101.878C152.866 102.151 152.911 102.425 152.911 102.516C152.911 102.607 153.208 102.516 153.481 102.265C153.89 101.838 154.257 101.373 154.575 100.875C154.963 100.305 155.236 99.8492 155.419 99.5301C155.591 99.2481 155.736 98.9504 155.852 98.6411C155.852 98.3904 156.08 98.0713 156.217 97.7066C156.293 97.4507 156.384 97.1996 156.49 96.9544C156.549 96.8158 156.625 96.6854 156.718 96.5669C156.803 96.4247 156.929 96.3116 157.08 96.2424C157.23 96.1733 157.398 96.1513 157.561 96.1794C157.877 96.2049 158.182 96.3066 158.45 96.4757C158.689 96.732 158.833 97.0613 158.861 97.4102C158.896 97.8533 158.801 98.297 158.587 98.6868C158.415 99.0348 158.262 99.3924 158.131 99.758C157.994 100.191 157.881 100.601 157.789 101.012C157.724 101.373 157.686 101.739 157.675 102.106C157.675 102.493 157.675 102.698 157.835 102.767C157.961 102.806 158.096 102.806 158.222 102.767C158.458 102.759 158.683 102.67 158.861 102.516C159.193 102.251 159.505 101.961 159.795 101.65C159.955 101.468 160.16 101.217 160.411 100.875C160.672 100.523 160.915 100.158 161.14 99.7808C161.356 99.458 161.554 99.1231 161.733 98.7779C161.848 98.6033 161.932 98.4107 161.983 98.208C162.019 98.0277 162.106 97.8616 162.234 97.7294L162.508 97.3875C162.616 97.2701 162.748 97.177 162.895 97.114C162.978 97.0795 163.067 97.0617 163.157 97.0617C163.247 97.0617 163.336 97.0795 163.419 97.114C163.611 97.1592 163.781 97.2666 163.905 97.4191C164.029 97.5717 164.098 97.761 164.103 97.9573C164.122 98.2229 164.122 98.4895 164.103 98.7551L163.83 99.6213C163.716 99.986 163.602 100.351 163.488 100.67C163.403 100.911 163.288 101.141 163.146 101.354L162.758 101.764C162.565 101.96 162.389 102.174 162.234 102.402C161.923 102.801 161.58 103.175 161.208 103.519L160.661 103.998C160.275 104.407 159.81 104.733 159.294 104.955C158.84 105.188 158.344 105.327 157.835 105.365C157.452 105.413 157.065 105.324 156.741 105.115C156.463 104.973 156.233 104.752 156.079 104.481C155.925 104.209 155.854 103.899 155.875 103.587C155.854 103.375 155.8 103.167 155.715 102.972H155.419C155.251 103.056 155.115 103.192 155.031 103.36C154.818 103.752 154.523 104.094 154.165 104.362C153.776 104.667 153.365 104.941 152.934 105.183C152.724 105.415 152.468 105.601 152.182 105.73Z" fill="#B8C318"/>
<path d="M167.067 106.004C166.946 105.808 166.772 105.65 166.565 105.548C166.315 105.389 166.178 105.275 166.178 105.206C166.163 105.075 166.116 104.95 166.041 104.842C165.981 104.711 165.904 104.588 165.813 104.477C165.813 104.363 165.813 104.089 165.813 103.633C165.813 103.178 166.201 102.653 166.497 101.992C166.793 101.331 167.135 100.693 167.5 100.032C167.68 99.8497 167.834 99.6424 167.956 99.4165C168.115 99.1886 168.229 99.0063 168.298 98.9379C168.28 98.8706 168.28 98.8 168.298 98.7327C168.349 98.6701 168.422 98.6293 168.503 98.6187L168.731 98.1629C168.842 98.0026 168.964 97.8503 169.096 97.707C169.32 97.439 169.564 97.1877 169.825 96.9548L170.691 96.157C170.923 95.9664 171.166 95.7913 171.42 95.6327C171.779 95.376 172.21 95.2403 172.651 95.2453C173.058 95.2599 173.449 95.4036 173.768 95.6555L174.133 95.9974L174.84 96.5673L175.501 97.1371L176.549 98.0717L176.07 99.5077C175.831 100.148 175.761 100.838 175.865 101.514C175.96 102.036 176.145 102.537 176.412 102.995C176.496 103.187 176.63 103.352 176.8 103.474C176.988 103.607 177.209 103.686 177.438 103.702C177.594 103.729 177.743 103.791 177.871 103.884C177.941 103.937 177.996 104.006 178.032 104.086C178.067 104.166 178.083 104.253 178.076 104.34C178.103 104.685 178.015 105.03 177.826 105.32C177.698 105.498 177.513 105.627 177.301 105.685C176.693 105.756 176.077 105.686 175.501 105.48C174.803 105.149 174.251 104.573 173.951 103.861C173.951 103.747 173.791 103.519 173.654 103.2C173.518 102.881 173.472 102.699 173.449 102.608L173.153 102.95L172.788 103.337C171.806 104.431 170.632 105.334 169.323 106.004C168.973 106.18 168.587 106.272 168.195 106.272C167.803 106.272 167.417 106.18 167.067 106.004ZM169.346 103.405C169.744 103.166 170.125 102.9 170.486 102.608L172.104 101.217C172.568 100.81 172.974 100.343 173.312 99.8269L173.951 98.8011C173.837 98.4795 173.659 98.1846 173.426 97.9349C173.368 97.8718 173.298 97.8211 173.219 97.7859C173.141 97.7506 173.056 97.7315 172.971 97.7298C172.635 97.7836 172.328 97.9528 172.104 98.2084C171.676 98.6281 171.287 99.0859 170.942 99.5761C170.509 100.192 170.03 100.921 169.506 101.856C169.177 102.423 168.916 103.027 168.731 103.656C168.924 103.619 169.105 103.533 169.255 103.405H169.346Z" fill="#B8C318"/>
<path d="M182.568 106.62C182.306 106.563 182.068 106.428 181.885 106.233C181.635 106.017 181.413 105.772 181.224 105.503C181.053 105.292 180.922 105.053 180.836 104.796C180.836 104.796 180.836 104.682 180.699 104.569C180.562 104.455 180.563 104.249 180.563 103.816C180.563 103.383 180.563 102.859 180.563 102.312C180.604 101.867 180.672 101.426 180.768 100.99C180.768 100.694 180.996 100.283 181.201 99.759L181.679 98.3457L182.454 96.6818L181.315 96.3627C181.176 96.3319 181.054 96.2506 180.973 96.1347C180.943 96.0459 180.943 95.95 180.973 95.8612C180.991 95.6214 181.078 95.3919 181.224 95.2001C181.383 94.9038 181.52 94.7671 181.588 94.7671H182.887H183.343L183.571 94.6075C183.642 94.5195 183.697 94.419 183.731 94.3112C183.8 94.1373 183.884 93.9696 183.982 93.8097C184.098 93.649 184.204 93.4815 184.301 93.3083L184.643 92.67C184.757 92.4222 184.894 92.1856 185.053 91.9634C185.053 91.8267 185.258 91.6671 185.372 91.462C185.484 91.2824 185.622 91.121 185.782 90.9833C186.03 90.8034 186.321 90.6931 186.626 90.6642C186.806 90.6269 186.993 90.6322 187.171 90.6797C187.349 90.7272 187.513 90.8155 187.651 90.9377C187.785 91.0839 187.872 91.2663 187.902 91.462C187.912 91.7032 187.831 91.9393 187.674 92.123C187.532 92.4373 187.356 92.7353 187.15 93.0119C186.937 93.2846 186.746 93.5743 186.58 93.8781C186.284 94.2884 186.238 94.5391 186.421 94.5847C186.955 94.634 187.494 94.5955 188.016 94.4708C188.218 94.4089 188.432 94.3931 188.641 94.4247C188.85 94.4562 189.049 94.5343 189.224 94.6531C189.346 94.7502 189.447 94.871 189.522 95.008C189.596 95.1451 189.642 95.2957 189.657 95.4509C189.657 95.9068 189.657 96.1803 189.498 96.2715C189.077 96.3996 188.636 96.4461 188.199 96.4083C187.809 96.4913 187.412 96.5371 187.013 96.5451H185.828H185.486C185.359 96.5768 185.241 96.6394 185.144 96.7274C184.965 97.0485 184.783 97.3676 184.597 97.6848C184.437 98.0267 184.255 98.3686 184.027 98.7561C183.754 99.5539 183.526 100.329 183.343 101.035C183.161 101.742 183.001 102.494 182.887 103.315C182.814 103.568 182.814 103.837 182.887 104.09C182.977 104.193 183.09 104.274 183.217 104.326C183.343 104.377 183.481 104.398 183.617 104.386H184.529C184.866 104.357 185.201 104.304 185.532 104.227L186.193 103.93L186.831 103.588L187.606 103.132C187.697 102.981 187.834 102.981 188.016 103.132C188.183 103.32 188.314 103.536 188.404 103.771C188.398 104.051 188.344 104.329 188.244 104.591C188.244 104.91 187.811 105.23 187.196 105.571C186.42 106.084 185.54 106.419 184.62 106.552C183.943 106.677 183.252 106.701 182.568 106.62Z" fill="#B8C318"/>
<path d="M196.949 106.026C196.389 106.34 195.767 106.527 195.126 106.573C194.522 106.631 193.913 106.545 193.348 106.322C192.819 106.123 192.355 105.784 192.003 105.342C191.755 104.981 191.57 104.58 191.456 104.157C191.287 103.406 191.287 102.628 191.456 101.877C191.582 100.95 191.859 100.049 192.277 99.2104C192.695 98.3827 193.224 97.6159 193.849 96.931C194.412 96.2993 195.126 95.8209 195.924 95.5406C196.179 95.4302 196.447 95.3536 196.722 95.3127C197.092 95.2669 197.468 95.2669 197.838 95.3127C198.241 95.3534 198.634 95.4612 199.001 95.6317C199.285 95.7537 199.541 95.9321 199.753 96.156C200.01 96.4085 200.211 96.7112 200.346 97.045C200.434 97.3093 200.472 97.5874 200.46 97.8656C200.33 98.5773 200.05 99.2532 199.639 99.8486C199.197 100.556 198.543 101.107 197.77 101.421C197.408 101.571 197.022 101.656 196.63 101.672C196.026 101.696 195.421 101.643 194.83 101.513C194.374 101.399 194.077 101.513 193.941 101.649C193.759 101.992 193.688 102.382 193.735 102.766C193.775 103.073 193.859 103.373 193.986 103.655C194.056 103.791 194.157 103.908 194.279 103.999C194.401 104.09 194.543 104.152 194.693 104.179C194.999 104.26 195.321 104.26 195.627 104.179L196.357 103.883L196.79 103.564L197.223 103.222L197.565 102.971C197.651 102.903 197.753 102.856 197.861 102.835H198.135C198.374 102.871 198.593 102.992 198.75 103.177C198.916 103.352 199.041 103.562 199.115 103.792C199.08 104.025 198.986 104.245 198.841 104.43C198.609 104.734 198.349 105.016 198.066 105.274C197.724 105.566 197.349 105.819 196.949 106.026ZM196.562 99.6435C196.778 99.546 196.978 99.4153 197.155 99.256C197.407 99.0459 197.643 98.8173 197.861 98.5722C198.02 98.429 198.124 98.236 198.158 98.0251C198.158 97.8124 198.021 97.63 197.747 97.478C197.403 97.3444 197.021 97.3444 196.676 97.478C196.486 97.5569 196.309 97.6646 196.152 97.7972C195.923 97.9765 195.709 98.1747 195.513 98.3899L194.966 99.0053C194.849 99.1574 194.743 99.3173 194.647 99.4839C194.772 99.6051 194.931 99.6847 195.103 99.7119C195.36 99.7493 195.621 99.7493 195.878 99.7119C196.108 99.7165 196.338 99.6936 196.562 99.6435Z" fill="#B8C318"/>
<path d="M202.944 105.822C202.743 105.669 202.552 105.501 202.375 105.32C202.276 105.197 202.206 105.053 202.17 104.9C202.135 104.746 202.134 104.586 202.169 104.432C202.212 103.956 202.288 103.483 202.397 103.018C202.397 102.608 202.603 102.129 202.739 101.605C202.876 101.081 202.876 100.99 203.036 100.42C203.195 99.8499 203.4 99.2801 203.628 98.619C203.856 97.958 204.084 97.3654 204.335 96.7727C204.526 96.3255 204.747 95.8915 204.996 95.4735C205.264 95.2727 205.596 95.1755 205.93 95.1999C206.231 95.1634 206.533 95.2452 206.774 95.4279C206.886 95.5433 206.962 95.6883 206.995 95.8458C207.027 96.0033 207.014 96.1668 206.956 96.3169C206.783 97.0115 206.514 97.6788 206.158 98.3C206.059 98.5496 205.945 98.7932 205.816 99.0294C205.692 99.2294 205.593 99.4437 205.52 99.6676C205.52 99.8272 205.52 99.8956 205.52 99.8728C205.691 99.6026 205.907 99.3636 206.158 99.1662C206.462 98.8752 206.782 98.6012 207.116 98.3455L208.096 97.6162C208.29 97.4702 208.496 97.3405 208.711 97.2286C208.885 97.1271 209.068 97.0432 209.258 96.9779L209.669 96.8184C210.118 96.6142 210.614 96.5354 211.105 96.5904C211.629 96.5904 211.948 96.7956 212.062 97.0919C212.118 97.2798 212.239 97.4416 212.404 97.5478C212.404 97.5478 212.518 97.5477 212.541 97.7073C212.563 97.8669 212.427 98.0264 212.153 98.2772C211.933 98.5142 211.632 98.6605 211.31 98.6875C211.092 98.7063 210.878 98.7523 210.672 98.8243L209.988 99.1205L208.027 100.215C207.351 100.617 206.743 101.125 206.227 101.719C206.102 101.867 205.964 102.004 205.816 102.129C205.631 102.299 205.477 102.499 205.361 102.722C205.208 102.896 205.105 103.109 205.064 103.337C205.064 103.657 204.882 103.976 204.814 104.272C204.8 104.446 204.8 104.622 204.814 104.796C204.733 105.079 204.61 105.348 204.449 105.594C204.289 105.854 204.049 106.054 203.765 106.164C203.514 106.346 203.241 106.141 202.944 105.822Z" fill="#B8C318"/>
<path d="M224.167 108.306C224.167 108.488 223.825 108.602 223.392 108.602C222.979 108.606 222.578 108.469 222.252 108.215C222.078 108.062 221.924 107.885 221.797 107.691C221.797 107.691 221.797 107.372 221.911 107.075L222.594 105.502C222.67 105.033 222.8 104.574 222.982 104.135L223.415 103.132C223.415 102.881 223.643 102.425 223.894 101.81C224.144 101.194 224.395 100.511 224.714 99.7355C225.033 98.9605 225.33 98.2539 225.626 97.5929L226.241 96.0429C226.561 95.2907 226.902 94.4929 227.244 93.6495C227.586 92.8061 228.065 91.7576 228.658 90.4812C228.706 90.3897 228.731 90.288 228.731 90.1848C228.731 90.0816 228.706 89.9799 228.658 89.8885C228.58 89.7814 228.477 89.6959 228.357 89.6401C228.237 89.5842 228.105 89.5599 227.974 89.5694C227.793 89.3935 227.68 89.1594 227.655 88.9084C227.633 88.8029 227.651 88.6931 227.706 88.6003C227.761 88.5076 227.848 88.4387 227.951 88.4069L230.572 87.5179C231.476 87.3079 232.407 87.2463 233.33 87.3356C234.263 87.4088 235.171 87.6725 235.997 88.1106C236.792 88.5442 237.477 89.1521 238.003 89.8885C238.394 90.4734 238.629 91.148 238.687 91.8488C238.744 92.451 238.667 93.0585 238.459 93.6267C238.243 94.1162 237.942 94.5637 237.57 94.9488C237.109 95.4532 236.614 95.9254 236.088 96.362C235.542 96.8346 234.963 97.2688 234.356 97.6613C233.831 98.0157 233.274 98.3209 232.692 98.573L231.074 99.2796C230.481 99.5076 229.911 99.7127 229.364 99.8723C229.009 99.9234 228.648 99.9234 228.293 99.8723C227.977 99.9321 227.652 99.9321 227.336 99.8723L226.857 100.807C226.652 101.491 226.333 102.494 225.877 103.861C225.421 105.229 224.783 106.688 224.167 108.306ZM235.564 108.853C235.316 108.9 235.061 108.9 234.812 108.853C234.382 108.8 233.973 108.635 233.627 108.374C232.744 107.851 231.905 107.256 231.119 106.596C230.105 105.713 229.16 104.753 228.293 103.724C227.917 103.295 227.61 102.811 227.381 102.288L226.629 100.488L226.241 98.9605L227.313 98.2311L228.566 99.2796C229.147 100.564 229.915 101.754 230.846 102.813C231.278 103.321 231.742 103.8 232.236 104.249C232.835 104.824 233.467 105.365 234.128 105.867C234.69 106.318 235.293 106.715 235.929 107.052C236.043 107.052 236.066 107.326 235.929 107.599C235.891 107.867 235.814 108.129 235.701 108.374C235.655 108.663 235.587 108.823 235.496 108.853H235.564ZM228.384 97.6613C228.877 97.6046 229.36 97.4819 229.82 97.2966L231.484 96.6355L233.125 95.7466C233.652 95.4553 234.149 95.1117 234.607 94.7208C235.025 94.3679 235.386 93.9527 235.678 93.4899C235.928 93.0631 236.039 92.5694 235.997 92.0767C235.991 91.7885 235.912 91.5064 235.769 91.2561C235.62 90.9511 235.419 90.6736 235.177 90.4355C234.978 90.211 234.728 90.0388 234.447 89.9341C233.877 89.7861 233.299 89.6719 232.715 89.5922C232.413 89.5388 232.103 89.6042 231.849 89.7746C231.626 89.9868 231.482 90.2678 231.438 90.5723C231.374 90.7592 231.298 90.942 231.211 91.1194C231.051 91.4157 230.869 91.8032 230.641 92.2818C230.413 92.7605 230.208 93.2392 230.002 93.7635L228.794 96.248C228.613 96.576 228.46 96.9192 228.338 97.2737C228.224 97.4561 228.225 97.5701 228.316 97.6613H228.384Z" fill="#B8C318"/>
<path d="M244.635 106.026C244.084 106.341 243.468 106.528 242.835 106.573C242.202 106.647 241.562 106.569 240.966 106.345C240.447 106.139 239.991 105.802 239.644 105.365C239.386 105.009 239.2 104.606 239.096 104.179C238.928 103.429 238.928 102.651 239.096 101.9C239.222 100.972 239.5 100.071 239.917 99.2332C240.335 98.4055 240.865 97.6387 241.49 96.9538C242.048 96.3275 242.753 95.8496 243.541 95.5634C243.805 95.4558 244.08 95.3793 244.362 95.3355C244.725 95.2892 245.093 95.2892 245.456 95.3355C245.866 95.3737 246.267 95.4816 246.641 95.6546C246.922 95.7698 247.172 95.9494 247.371 96.1788C247.64 96.4249 247.851 96.7288 247.986 97.0678C248.074 97.332 248.113 97.6102 248.1 97.8884C247.97 98.6001 247.69 99.276 247.28 99.8715C246.832 100.574 246.18 101.123 245.41 101.444C245.048 101.594 244.662 101.679 244.271 101.695C243.666 101.72 243.061 101.666 242.47 101.535C242.014 101.421 241.718 101.535 241.558 101.672C241.386 102.018 241.323 102.407 241.376 102.789C241.405 103.098 241.49 103.399 241.627 103.678C241.694 103.816 241.793 103.935 241.916 104.026C242.039 104.117 242.182 104.178 242.333 104.202C242.64 104.282 242.961 104.282 243.268 104.202L243.974 103.906L244.43 103.587L244.841 103.245L245.205 102.994C245.289 102.921 245.392 102.873 245.502 102.857H245.775C246.014 102.897 246.231 103.018 246.391 103.199C246.548 103.381 246.672 103.589 246.755 103.815C246.719 104.052 246.617 104.273 246.459 104.453C246.242 104.762 245.989 105.045 245.707 105.296C245.377 105.577 245.018 105.822 244.635 106.026ZM244.271 99.6435C244.484 99.5406 244.683 99.4103 244.863 99.256C245.113 99.0514 245.343 98.8223 245.547 98.5722C245.719 98.4367 245.833 98.2412 245.866 98.0251C245.866 97.8124 245.73 97.63 245.456 97.478C245.111 97.3466 244.73 97.3466 244.385 97.478C244.185 97.5504 243.999 97.6585 243.838 97.7972C243.621 97.9827 243.416 98.1806 243.222 98.3899L242.675 99.0053C242.558 99.1574 242.451 99.3173 242.356 99.4839C242.478 99.6091 242.639 99.6895 242.812 99.7119C243.061 99.748 243.315 99.748 243.564 99.7119C243.802 99.7164 244.039 99.6935 244.271 99.6435Z" fill="#B8C318"/>
<path d="M253.549 106.709C252.999 106.8 252.435 106.753 251.908 106.573C251.384 106.386 250.92 106.064 250.563 105.638C250.226 105.185 250.057 104.629 250.084 104.065C250.043 103.377 250.097 102.687 250.244 102.014C250.411 101.192 250.663 100.39 250.996 99.6203C251.282 98.8954 251.665 98.2129 252.136 97.5917C252.523 97.1358 252.911 96.7254 253.298 96.3379C253.59 96.0194 253.938 95.7568 254.324 95.563C254.64 95.4416 254.969 95.3575 255.304 95.3123L256.125 95.1982C256.469 95.2902 256.805 95.4123 257.128 95.563C257.492 95.7453 257.697 95.9505 257.697 96.1784L257.834 96.3152C257.948 96.3152 258.062 96.4519 258.222 96.7255C258.372 97.0281 258.48 97.3504 258.541 97.6829C258.637 97.948 258.637 98.2383 258.541 98.5034C258.452 98.8842 258.298 99.2467 258.085 99.5747C257.88 99.9166 257.675 100.076 257.538 100.076H257.31C257.31 100.076 257.31 100.076 257.31 100.236C257.31 100.395 257.31 100.373 257.014 100.373C256.811 100.416 256.601 100.416 256.398 100.373C256.309 100.349 256.226 100.306 256.156 100.247C256.085 100.188 256.028 100.114 255.988 100.031C255.972 99.9096 255.972 99.787 255.988 99.6659C255.988 99.5064 255.988 99.2556 256.147 98.8909C256.248 98.5409 256.248 98.1696 256.147 97.8196C256.034 97.6373 255.806 97.6373 255.418 97.8196C254.976 98.0562 254.582 98.3731 254.256 98.7542C253.907 99.1944 253.63 99.6867 253.435 100.213C253.132 101.081 252.874 101.963 252.66 102.857C252.559 103.192 252.559 103.548 252.66 103.883C252.66 104.134 252.82 104.27 252.865 104.27C253.15 104.339 253.447 104.339 253.731 104.27C254.009 104.244 254.279 104.166 254.529 104.042C254.814 103.894 255.088 103.726 255.35 103.541L256.125 102.948C256.242 102.873 256.33 102.761 256.375 102.629C256.452 102.477 256.571 102.351 256.717 102.264C256.782 102.163 256.869 102.077 256.972 102.014C257.074 101.951 257.19 101.912 257.31 101.9H258.017C258.196 101.951 258.36 102.045 258.495 102.173C258.65 102.302 258.781 102.456 258.883 102.629C258.883 102.766 258.883 102.857 258.883 102.925C258.883 102.994 258.769 102.925 258.746 103.062C258.723 103.199 258.746 103.313 258.495 103.586C258.259 103.88 258.008 104.162 257.743 104.43C257.472 104.715 257.183 104.981 256.877 105.228C256.709 105.382 256.505 105.491 256.284 105.547C256.102 105.547 256.011 105.547 256.011 105.729C255.889 105.852 255.741 105.946 255.578 106.003C255.278 106.177 254.965 106.329 254.643 106.458C254.293 106.596 253.924 106.681 253.549 106.709Z" fill="#B8C318"/>
<path d="M261.48 112.545C260.822 112.635 260.155 112.635 259.497 112.545C258.945 112.482 258.411 112.312 257.925 112.043C257.566 111.878 257.282 111.586 257.127 111.223C257.062 111.059 257.044 110.88 257.076 110.707C257.109 110.533 257.189 110.372 257.309 110.243C257.528 110.037 257.808 109.909 258.107 109.878C258.426 109.878 258.631 109.878 258.722 109.992L259.452 110.402C259.835 110.609 260.282 110.666 260.705 110.562C261.14 110.45 261.54 110.231 261.868 109.924C262.208 109.615 262.513 109.271 262.78 108.898C262.939 108.67 263.19 108.26 263.555 107.667C263.919 107.074 264.307 106.436 264.694 105.707C265.082 104.977 265.401 104.339 265.675 103.724L265.88 103.177C265.938 102.993 266.031 102.823 266.153 102.675C266.267 102.447 266.381 102.219 266.449 102.037C266.515 101.897 266.568 101.752 266.609 101.604C266.683 101.406 266.775 101.215 266.883 101.034L267.293 100.191C267.293 99.8942 267.544 99.484 267.726 98.9369C267.874 98.472 268.065 98.0218 268.296 97.5921C268.524 97.1362 268.706 96.7943 268.866 96.5208C268.948 96.3012 269.111 96.1217 269.322 96.0193C269.462 95.8976 269.638 95.8255 269.823 95.8141C270.008 95.823 270.189 95.8778 270.347 95.9737C270.564 96.1784 270.755 96.4079 270.917 96.6575C271.065 96.8955 271.121 97.1789 271.077 97.4553C271.003 97.9049 270.849 98.3374 270.621 98.7318C270.48 99.1522 270.312 99.5633 270.119 99.9627C270.008 100.219 269.871 100.464 269.709 100.692C269.595 100.92 269.504 101.171 269.367 101.467L269.048 102.219C268.714 102.979 268.417 103.594 268.159 104.066C267.908 104.544 267.68 104.977 267.498 105.388C267.316 105.798 267.111 106.254 266.905 106.778L265.629 108.807C265.233 109.426 264.799 110.019 264.33 110.585L263.509 111.246C263.167 111.524 262.809 111.783 262.438 112.021C262.148 112.245 261.825 112.422 261.48 112.545ZM265.036 106.071C264.675 105.995 264.352 105.793 264.125 105.502C263.804 105.178 263.521 104.818 263.281 104.43C263.123 104.192 263.029 103.917 263.008 103.632V103.313C262.894 103.313 262.802 103.154 262.734 102.812C262.666 102.47 262.62 102.06 262.597 101.535C262.575 101.011 262.597 100.487 262.597 99.9399C262.597 99.3928 262.597 98.8913 262.597 98.4126C262.635 98.0641 262.635 97.7126 262.597 97.3641C262.597 96.9538 262.597 96.6575 262.597 96.4296C262.566 96.1651 262.631 95.8984 262.78 95.6774C262.883 95.5462 262.997 95.4242 263.122 95.3127C263.252 95.231 263.399 95.1784 263.551 95.1585C263.704 95.1385 263.859 95.1516 264.006 95.1971C264.153 95.2425 264.289 95.3191 264.404 95.4217C264.519 95.5242 264.61 95.6503 264.672 95.7913C265.034 96.7501 265.152 97.7844 265.013 98.8002C265.013 99.5448 265.013 100.305 265.013 101.08C265.004 101.679 265.073 102.276 265.219 102.857C265.306 103.281 265.55 103.656 265.902 103.906C266.039 103.906 266.085 104.157 266.039 104.407C266.003 104.679 265.918 104.941 265.789 105.182C265.675 105.44 265.521 105.679 265.333 105.889C265.196 106.041 265.067 106.102 264.945 106.071H265.036Z" fill="#B8C318"/>
<path d="M276.411 106.709C275.861 106.8 275.297 106.753 274.77 106.573C274.243 106.392 273.777 106.069 273.425 105.638C273.051 105.201 272.855 104.64 272.878 104.065C272.814 103.377 272.868 102.683 273.037 102.014C273.207 101.195 273.451 100.394 273.767 99.6203C274.069 98.8987 274.459 98.2173 274.929 97.5917C275.317 97.1358 275.681 96.7254 276.069 96.3379C276.37 96.0298 276.716 95.7685 277.095 95.563C277.411 95.4443 277.74 95.3603 278.075 95.3123L278.895 95.1982C279.246 95.2933 279.589 95.4153 279.921 95.563C280.286 95.7453 280.468 95.9505 280.468 96.1784L280.605 96.3152C280.719 96.3152 280.856 96.4519 280.992 96.7255C281.151 97.0269 281.266 97.3493 281.334 97.6829C281.432 97.9477 281.432 98.2386 281.334 98.5034C281.254 98.8832 281.107 99.2458 280.901 99.5747C280.673 99.9166 280.491 100.076 280.331 100.076H280.126C280.092 100.086 280.062 100.108 280.042 100.136C280.021 100.165 280.011 100.2 280.012 100.236C280.012 100.236 280.012 100.373 279.716 100.373C279.513 100.412 279.304 100.412 279.1 100.373C279.013 100.352 278.931 100.31 278.864 100.25C278.796 100.191 278.744 100.115 278.713 100.031C278.706 99.9092 278.706 99.7874 278.713 99.6659C278.713 99.5064 278.713 99.2556 278.895 98.8909C279 98.5415 279 98.1691 278.895 97.8196C278.895 97.6373 278.553 97.6373 278.189 97.8196C277.744 98.0631 277.344 98.379 277.003 98.7542C276.655 99.1904 276.385 99.6841 276.206 100.213C275.894 101.08 275.627 101.962 275.408 102.857C275.319 103.193 275.319 103.547 275.408 103.883C275.408 104.134 275.567 104.27 275.636 104.27C275.92 104.341 276.218 104.341 276.502 104.27C276.772 104.241 277.034 104.164 277.277 104.042C277.567 103.905 277.842 103.736 278.098 103.541L278.895 102.948C279.013 102.873 279.101 102.761 279.146 102.629C279.208 102.467 279.331 102.337 279.488 102.264C279.551 102.162 279.638 102.075 279.741 102.012C279.844 101.949 279.96 101.91 280.081 101.9H280.764C280.951 101.95 281.122 102.044 281.266 102.173C281.415 102.308 281.545 102.461 281.653 102.629C281.653 102.766 281.653 102.857 281.653 102.925C281.615 102.925 281.577 102.939 281.548 102.964C281.519 102.989 281.499 103.024 281.494 103.062C281.494 103.062 281.494 103.313 281.266 103.586C281.029 103.88 280.778 104.162 280.514 104.43C280.195 104.749 279.898 105 279.625 105.228C279.464 105.38 279.269 105.49 279.055 105.547C278.85 105.547 278.759 105.547 278.759 105.729C278.643 105.849 278.503 105.942 278.348 106.003C278.048 106.177 277.736 106.329 277.414 106.458C277.09 106.58 276.753 106.664 276.411 106.709Z" fill="#B8C318"/>
<path d="M286.257 106.915C286.086 106.965 285.904 106.963 285.734 106.91C285.564 106.858 285.413 106.756 285.3 106.619C284.971 106.256 284.757 105.804 284.684 105.319C284.549 104.688 284.549 104.036 284.684 103.405C284.684 103.177 284.844 102.949 284.912 102.721C284.928 102.547 284.928 102.371 284.912 102.197C284.968 101.91 285.044 101.629 285.14 101.353C285.254 100.989 285.368 100.601 285.505 100.191C285.642 99.7805 285.755 99.4386 285.892 99.1195C286.029 98.8004 286.097 98.618 286.12 98.5269C286.143 98.4357 286.28 98.5268 286.325 98.3445C286.357 98.2096 286.357 98.0691 286.325 97.9342C286.296 97.7683 286.296 97.5986 286.325 97.4327C286.361 97.2772 286.44 97.1349 286.553 97.0225C286.534 96.917 286.534 96.8088 286.553 96.7033C286.568 96.6051 286.568 96.5053 286.553 96.407C286.533 96.3247 286.533 96.2386 286.553 96.1563C286.576 96.082 286.576 96.0026 286.553 95.9283C286.756 95.5539 286.931 95.1655 287.078 94.7659C287.306 94.2188 287.556 93.6033 287.807 92.9423C288.058 92.2813 288.308 91.6203 288.536 90.9592C288.764 90.2982 288.947 89.7739 289.083 89.3181C289.18 89.0583 289.256 88.7916 289.311 88.5203C289.309 88.361 289.366 88.2066 289.471 88.0872C289.519 88.0241 289.581 87.9729 289.652 87.9373C289.724 87.9018 289.802 87.8829 289.881 87.882C290.008 87.8492 290.142 87.8492 290.269 87.882C290.413 87.8657 290.558 87.8657 290.702 87.882C290.861 88.0188 290.998 88.1784 291.158 88.3379C291.324 88.467 291.47 88.6207 291.591 88.7938C291.667 88.8717 291.727 88.9645 291.766 89.0665C291.805 89.1684 291.823 89.2773 291.819 89.3864C291.816 89.6263 291.778 89.8645 291.705 90.0931C291.616 90.4132 291.502 90.7258 291.363 91.0276L291.112 92.6688C290.963 93.0341 290.796 93.3917 290.611 93.7401C290.5 93.9331 290.416 94.1401 290.36 94.3555C290.381 94.4685 290.381 94.5845 290.36 94.6975L290.132 95.2673C290.132 95.4269 289.95 95.632 289.836 95.9283L289.403 96.8857L289.061 97.7291L288.901 98.1393V98.3673C288.895 98.4125 288.879 98.4559 288.856 98.4951C288.832 98.5342 288.801 98.5683 288.764 98.5953C288.764 98.5953 288.764 98.7092 288.628 98.9143C288.533 99.4389 288.381 99.9513 288.172 100.442C287.875 101.49 287.579 102.447 287.328 103.314C287.109 104.001 286.979 104.713 286.941 105.433C286.962 105.795 286.891 106.155 286.736 106.482C286.612 106.661 286.448 106.81 286.257 106.915Z" fill="#B8C318"/>
<path d="M291.66 106.117C291.483 105.929 291.371 105.689 291.341 105.433C291.308 105.13 291.308 104.824 291.341 104.521C291.341 104.291 291.396 104.065 291.5 103.86C291.472 103.74 291.472 103.615 291.5 103.495C291.532 103.415 291.532 103.325 291.5 103.245C291.472 103.117 291.472 102.985 291.5 102.857C291.5 102.652 291.614 102.47 291.682 102.31C291.751 102.15 291.956 101.603 292.138 101.125C292.321 100.646 292.48 100.145 292.64 99.6431C292.799 99.1416 292.959 98.6858 293.073 98.3211L293.278 97.66C293.278 97.4321 293.438 97.2953 293.734 97.2725C293.885 97.2494 294.039 97.2644 294.182 97.3162C294.325 97.368 294.453 97.4548 294.555 97.5689C294.854 97.809 295.115 98.0934 295.33 98.4122C295.405 98.4941 295.46 98.5921 295.492 98.6988C295.524 98.8055 295.53 98.918 295.512 99.0277C295.432 99.3934 295.301 99.7463 295.124 100.076C295.124 100.243 295.033 100.494 294.851 100.828C294.668 101.163 294.6 101.459 294.646 101.717L294.372 102.356C294.372 102.629 294.19 102.903 294.099 103.131C294.007 103.359 294.099 103.404 294.099 103.655C294.099 103.906 294.099 104.179 293.962 104.453C293.915 104.675 293.838 104.889 293.734 105.091C293.552 105.866 293.255 106.322 292.822 106.459C292.618 106.536 292.393 106.545 292.183 106.483C291.974 106.421 291.79 106.293 291.66 106.117ZM294.737 94.7196C294.542 94.5777 294.385 94.3898 294.281 94.1726C294.188 93.9864 294.126 93.7861 294.099 93.5799C294.099 93.3975 294.099 93.3064 294.099 93.2608C294.312 93.0182 294.481 92.7406 294.6 92.4402C294.732 92.108 294.892 91.7877 295.079 91.4829L295.215 91.2549C295.267 91.1683 295.348 91.1033 295.443 91.0725C295.589 90.9885 295.754 90.9443 295.922 90.9443C296.09 90.9443 296.255 90.9885 296.401 91.0725C296.766 91.2046 297.079 91.4528 297.29 91.7791C297.466 92.1232 297.522 92.5164 297.449 92.8961C297.348 93.3437 297.136 93.759 296.834 94.1042C296.578 94.4703 296.197 94.7299 295.763 94.8336C295.41 94.9105 295.041 94.8449 294.737 94.6512V94.7196Z" fill="#B8C318"/>
<path d="M308.391 105.913C308.036 105.882 307.689 105.79 307.366 105.639C307.043 105.44 306.801 105.133 306.682 104.773C306.637 104.456 306.637 104.133 306.682 103.816C306.658 103.49 306.658 103.162 306.682 102.836C306.702 102.563 306.702 102.288 306.682 102.015V101.491C306.682 101.202 306.613 101.02 306.477 100.944C306.308 100.879 306.121 100.879 305.952 100.944C305.501 101.17 305.066 101.429 304.653 101.719C304.144 102.044 303.657 102.402 303.194 102.79L301.644 104.089C301.31 104.442 300.998 104.815 300.71 105.206C300.505 105.503 300.299 105.639 300.094 105.639C300.022 105.684 299.939 105.707 299.855 105.707C299.77 105.707 299.688 105.684 299.616 105.639C299.423 105.526 299.24 105.396 299.068 105.252C298.932 105.092 298.772 104.91 298.59 104.659C298.459 104.518 298.351 104.356 298.271 104.181C298.246 103.908 298.246 103.633 298.271 103.36C298.318 103.094 298.395 102.834 298.499 102.585C298.499 102.334 298.727 102.015 298.886 101.673L299.091 101.263L299.342 100.784C299.432 100.475 299.539 100.17 299.661 99.8725C299.813 99.5382 299.95 99.219 300.071 98.9151C300.265 98.4928 300.433 98.0589 300.573 97.6159C300.691 97.2351 300.782 96.8467 300.846 96.4534C300.846 96.4534 300.846 96.4533 300.846 96.271C300.862 96.238 300.884 96.2087 300.911 96.1851C300.939 96.1615 300.971 96.1441 301.006 96.1342C301.248 96.0412 301.516 96.0412 301.758 96.1342C302.063 96.1788 302.352 96.2961 302.602 96.4762C302.794 96.6365 302.945 96.8396 303.044 97.0693C303.143 97.2989 303.187 97.5486 303.171 97.7982C303.074 98.6175 302.776 99.4002 302.305 100.078L301.895 100.921C301.793 101.08 301.723 101.259 301.69 101.445L302.442 100.853L302.989 100.465L303.627 99.9409L304.676 99.1202L305.588 98.4593C305.816 98.3225 306.066 98.1629 306.385 98.0034C306.578 97.8926 306.785 97.8083 307.001 97.7527C307.241 97.7693 307.475 97.8394 307.685 97.9578C307.962 98.085 308.222 98.2457 308.46 98.4364C308.71 98.6188 308.847 98.7784 308.87 98.9379C308.879 99.0365 308.879 99.1357 308.87 99.2343C308.859 99.3404 308.859 99.4472 308.87 99.5533C308.87 99.8724 308.87 100.237 308.87 100.647C308.87 101.058 308.87 101.514 308.87 101.947C308.87 102.337 308.832 102.726 308.756 103.109C308.763 103.162 308.763 103.216 308.756 103.269C308.756 103.269 308.756 103.269 308.756 103.451C308.749 103.58 308.749 103.71 308.756 103.839L308.938 104.295C309.046 104.492 309.138 104.698 309.212 104.91C309.165 105.187 309.019 105.438 308.802 105.617C308.679 105.733 308.541 105.833 308.391 105.913Z" fill="#B8C318"/>
<path d="M316.391 112.317C316.122 112.415 315.834 112.456 315.547 112.436C315.261 112.417 314.981 112.337 314.728 112.203C314.122 111.908 313.603 111.46 313.223 110.903L312.881 110.288C312.719 109.977 312.574 109.658 312.448 109.331C312.316 109.044 312.209 108.747 312.129 108.442C312.129 108.214 312.129 108.054 312.129 108.031C312.169 107.923 312.24 107.828 312.333 107.759C312.426 107.69 312.538 107.65 312.653 107.644C312.917 107.597 313.187 107.597 313.451 107.644C313.725 107.644 313.861 107.803 313.907 107.917L314.067 108.328C314.128 108.472 314.205 108.609 314.294 108.738C314.372 108.849 314.456 108.955 314.545 109.057C314.712 109.339 314.948 109.574 315.229 109.741C315.316 109.791 315.414 109.817 315.514 109.817C315.614 109.817 315.712 109.791 315.799 109.741C316.109 109.506 316.359 109.202 316.528 108.852C316.776 108.28 316.989 107.694 317.166 107.097C317.372 106.39 317.554 105.798 317.714 105.273C317.846 104.786 318.005 104.306 318.192 103.837C318.239 103.64 318.308 103.449 318.397 103.267C318.467 103.137 318.551 103.014 318.648 102.903H318.808C318.443 103.148 318.093 103.415 317.759 103.701C317.418 104.005 317.024 104.245 316.597 104.407C316.355 104.59 316.055 104.679 315.753 104.658C315.314 104.687 314.873 104.632 314.454 104.498C314.001 104.281 313.632 103.921 313.405 103.473C313.287 103.235 313.18 102.992 313.086 102.743C312.959 102.281 312.959 101.792 313.086 101.33C313.186 100.666 313.362 100.016 313.611 99.3925C313.884 98.8387 314.22 98.3185 314.614 97.8424C315.035 97.3037 315.5 96.8006 316.004 96.338C316.388 95.965 316.846 95.6775 317.349 95.4946C317.606 95.3846 317.873 95.3006 318.147 95.2439C318.504 95.1413 318.883 95.1413 319.241 95.2439C319.494 95.2712 319.74 95.3405 319.97 95.4491C320.26 95.6407 320.534 95.8541 320.791 96.0873C321.041 96.338 321.361 96.6571 321.725 97.0674C322.003 97.3566 322.234 97.6873 322.409 98.0476C322.513 98.3425 322.513 98.6644 322.409 98.9594C322.345 99.2801 322.213 99.5832 322.022 99.8483L321.475 100.578C321.26 100.885 321.112 101.235 321.042 101.603C320.926 102.266 320.743 102.916 320.494 103.541C320.236 104.24 320.031 104.901 319.879 105.524L319.423 107.302C319.104 108.561 318.572 109.756 317.85 110.835C317.458 111.414 316.964 111.916 316.391 112.317ZM315.799 102.47C316.129 102.472 316.458 102.434 316.779 102.356C317.078 102.272 317.352 102.115 317.577 101.9C317.884 101.556 318.166 101.191 318.42 100.806C318.699 100.41 318.929 99.9811 319.104 99.5292C319.243 99.1188 319.297 98.6847 319.264 98.2528C319.269 98.1393 319.247 98.0261 319.199 97.923C319.152 97.8198 319.08 97.7296 318.99 97.6601C318.8 97.584 318.588 97.584 318.397 97.6601C318.037 97.7129 317.699 97.8626 317.417 98.0932C317.052 98.4367 316.717 98.8103 316.414 99.2101C316.115 99.6304 315.878 100.091 315.708 100.578C315.544 101.015 315.459 101.478 315.457 101.945C315.503 102.234 315.616 102.409 315.799 102.47Z" fill="#B8C318"/>
</svg>
