<svg width="1660" height="301" viewBox="0 0 1660 301" fill="none" xmlns="http://www.w3.org/2000/svg">
<path opacity="0.97" d="M539.075 22.7596H1460.69C1483.89 22.7596 1507.06 22.7596 1530.26 22.7596C1544.2 22.7718 1557.95 25.9289 1570.5 31.9956C1583.05 38.0623 1594.07 46.8826 1602.74 57.7995C1616.89 75.4919 1624.7 97.421 1624.91 120.077C1625.07 132.464 1624.91 144.851 1624.91 157.215C1624.91 171.085 1625.62 185.206 1623.09 198.916C1618.76 220.807 1607.34 240.66 1590.59 255.399C1573.86 270.103 1552.32 278.163 1530.05 278.052H160.129C141.882 278.052 121.879 279.763 104.544 274.79C62.781 262.813 35.9122 221.774 35.5929 179.343C35.5929 166.157 35.5929 152.949 35.5929 139.741C35.5929 125.232 34.8858 110.45 38.6493 96.3976C49.4379 55.7234 85.3618 23.2844 128.083 22.8738C134.56 22.8738 145.075 20.2961 145.395 12.1521C145.714 4.00816 134.583 0.746009 128.493 0.746009C78.5191 1.24788 30.575 28.5768 10.6856 75.6157C-2.361 106.412 1.37964 141.589 1.37964 174.256C1.37964 217.599 21.4514 257.931 59.1088 280.835C80.8478 293.738 105.725 300.393 131.002 300.065H1530.35C1562.03 300.065 1592.27 290.21 1616.72 269.816C1634.79 254.748 1647.93 234.614 1654.45 212.01C1658.83 196.247 1659.01 180.712 1659.01 164.561C1659.01 128.723 1661.59 93.0214 1642.02 61.0158C1618.64 22.8281 1576.51 0.97402 1532.06 0.631836C1526.13 0.631836 1520.17 0.631836 1514.24 0.631836H539.486C533.008 0.631836 522.493 3.25513 522.174 11.3535C521.854 19.4518 533.008 22.7596 539.075 22.7596Z" fill="#E5EAAF"/>
</svg>
