<svg width="319" height="99" viewBox="0 0 319 99" fill="none" xmlns="http://www.w3.org/2000/svg">
<path d="M269.709 0.0908203H49.3142C22.1041 0.0908203 0.0458984 22.1278 0.0458984 49.3119C0.0458984 76.4959 22.1041 98.5329 49.3142 98.5329H269.709C296.919 98.5329 318.977 76.4959 318.977 49.3119C318.977 22.1278 296.919 0.0908203 269.709 0.0908203Z" fill="#7DBD36"/>
<path d="M318.977 49.3123C318.989 42.8408 317.724 36.4305 315.253 30.4482C312.783 24.4659 309.155 19.029 304.579 14.4488C300.003 9.8685 294.568 6.2347 288.584 3.75541C282.601 1.27612 276.187 -5.78726e-06 269.709 5.31953e-06H49.2912C42.8116 -0.00300412 36.395 1.27093 30.4089 3.74887C24.4228 6.22682 18.9848 9.86013 14.4062 14.4407C9.82759 19.0213 6.19838 24.4591 3.72636 30.4429C1.25435 36.4267 -0.011921 42.8389 8.45743e-05 49.3123C8.31731e-05 62.3625 5.18769 74.8787 14.4223 84.1088C23.657 93.3389 36.1827 98.5273 49.2455 98.5333H269.663C276.137 98.5393 282.549 97.2706 288.532 94.7997C294.514 92.3288 299.951 88.7041 304.531 84.1329C309.111 79.5617 312.744 74.1336 315.223 68.1589C317.701 62.1841 318.977 55.7799 318.977 49.3123ZM269.709 91.6939H49.2912C38.0398 91.6879 27.2507 87.2214 19.2927 79.2753C11.3346 71.3292 6.85816 60.5528 6.84607 49.3123C6.84007 43.7387 7.93334 38.2186 10.0634 33.0673C12.1935 27.916 15.3187 23.2345 19.2604 19.2902C23.2021 15.346 27.8831 12.2163 33.0359 10.0799C38.1887 7.94356 43.7123 6.84242 49.2912 6.83943H269.709C280.956 6.8515 291.74 11.3206 299.693 19.2661C307.646 27.2116 312.119 37.9844 312.131 49.2211C312.137 54.7927 311.045 60.3109 308.916 65.4607C306.787 70.6105 303.664 75.2911 299.725 79.235C295.786 83.179 291.107 86.3092 285.957 88.4469C280.807 90.5846 275.286 91.6879 269.709 91.6939Z" fill="#FDFDFB"/>
<path d="M89.9109 55.0114V53.5751C89.8629 50.8205 90.9043 48.1581 92.809 46.1657L94.5205 43.9999C95.9659 42.5058 96.7826 40.5149 96.8025 38.4372C96.8528 37.8625 96.7784 37.2838 96.5845 36.7404C96.3906 36.197 96.0817 35.7018 95.6788 35.2885C95.276 34.8752 94.7887 34.5536 94.2501 34.3455C93.7115 34.1374 93.1344 34.0478 92.558 34.0828C90.6023 34.2067 88.7525 35.0137 87.3322 36.3626C87.0667 36.6634 86.7401 36.9043 86.3742 37.0693C86.0083 37.2344 85.6114 37.3197 85.21 37.3197C84.8085 37.3197 84.4117 37.2344 84.0457 37.0693C83.6798 36.9043 83.3533 36.6634 83.0877 36.3626C82.7995 36.0651 82.5749 35.7122 82.4274 35.3253C82.2799 34.9384 82.2126 34.5257 82.2296 34.1121C82.2467 33.6984 82.3478 33.2926 82.5267 32.9192C82.7056 32.5457 82.9586 32.2125 83.2703 31.9398C85.835 29.3724 89.2933 27.894 92.9231 27.8133C100.34 27.5397 104.333 31.7802 104.493 36.9326C104.653 41.4922 102.485 44.4331 99.4268 47.3969C97.0079 49.6767 95.9354 51.1585 96.0951 53.3471V54.6466C96.2548 56.3109 95.0225 57.314 93.0828 57.428C91.1431 57.542 89.9793 56.6757 89.9109 55.0114ZM88.5873 64.6778C88.5873 63.4685 89.0682 62.3087 89.9241 61.4536C90.78 60.5985 91.9409 60.1182 93.1513 60.1182C94.3618 60.1182 95.5226 60.5985 96.3785 61.4536C97.2344 62.3087 97.7153 63.4685 97.7153 64.6778C97.7153 65.8871 97.2344 67.0468 96.3785 67.9019C95.5226 68.757 94.3618 69.2374 93.1513 69.2374C91.95 69.2085 90.8059 68.7188 89.9561 67.8699C89.1064 67.021 88.6163 65.878 88.5873 64.6778Z" fill="#FDFDFB"/>
<path d="M134.41 55.0114L134.296 53.5751C134.27 50.8244 135.308 48.17 137.194 46.1657L138.928 43.9999C140.366 42.5007 141.181 40.513 141.21 38.4372C141.264 37.8616 141.193 37.2812 141 36.7361C140.808 36.1909 140.499 35.6941 140.095 35.28C139.692 34.8658 139.203 34.5442 138.662 34.3375C138.122 34.1308 137.543 34.0439 136.966 34.0828C135.016 34.2023 133.172 35.0103 131.763 36.3626C131.497 36.6634 131.171 36.9043 130.805 37.0693C130.439 37.2344 130.042 37.3197 129.641 37.3197C129.239 37.3197 128.842 37.2344 128.476 37.0693C128.11 36.9043 127.784 36.6634 127.518 36.3626C127.232 36.0651 127.008 35.7129 126.86 35.3272C126.713 34.9415 126.644 34.53 126.659 34.1173C126.674 33.7046 126.772 33.2992 126.947 32.9251C127.122 32.551 127.371 32.2159 127.678 31.9398C130.25 29.369 133.716 27.8905 137.354 27.8133C144.77 27.5397 148.764 31.7802 148.901 36.9326C148.907 38.9444 148.457 40.9315 147.584 42.7442C146.71 44.5568 145.436 46.1477 143.857 47.3969C141.438 49.6767 140.366 51.1585 140.526 53.3471V54.6466C140.708 56.3109 139.453 57.314 137.536 57.428C135.619 57.542 134.456 56.6757 134.41 55.0114ZM133.064 64.6778C133.063 64.0693 133.185 63.4669 133.422 62.9061C133.658 62.3454 134.004 61.8376 134.44 61.4127C134.876 60.9877 135.393 60.6543 135.96 60.432C136.527 60.2097 137.133 60.1029 137.742 60.1182C138.346 60.0992 138.948 60.2042 139.51 60.4266C140.073 60.649 140.583 60.9842 141.011 61.4114C141.439 61.8386 141.774 62.3489 141.997 62.9107C142.22 63.4724 142.325 64.0739 142.306 64.6778C142.306 65.8871 141.825 67.0468 140.969 67.9019C140.113 68.757 138.952 69.2374 137.742 69.2374C136.522 69.232 135.353 68.7534 134.48 67.9027C133.607 67.0519 133.099 65.8955 133.064 64.6778Z" fill="#FDFDFB"/>
<path d="M178.909 55.0114L178.795 53.5751C178.747 50.8205 179.788 48.1581 181.693 46.1657L183.404 43.9999C184.85 42.5058 185.666 40.5149 185.686 38.4372C185.737 37.8625 185.662 37.2838 185.468 36.7404C185.274 36.197 184.966 35.7018 184.563 35.2885C184.16 34.8752 183.672 34.5536 183.134 34.3455C182.595 34.1374 182.018 34.0478 181.442 34.0828C179.492 34.2023 177.648 35.0103 176.239 36.3626C175.973 36.6634 175.647 36.9043 175.281 37.0693C174.915 37.2344 174.518 37.3197 174.117 37.3197C173.715 37.3197 173.318 37.2344 172.952 37.0693C172.586 36.9043 172.26 36.6634 171.994 36.3626C171.702 36.0683 171.473 35.717 171.321 35.3307C171.17 34.9443 171.1 34.5312 171.115 34.1166C171.13 33.702 171.23 33.2949 171.408 32.9205C171.587 32.5461 171.841 32.2123 172.154 31.9398C174.719 29.3724 178.177 27.894 181.807 27.8133C189.223 27.5397 193.217 31.7802 193.377 36.9326C193.536 41.4922 191.369 44.4331 188.311 47.3969C185.892 49.6767 184.819 51.1585 184.979 53.3471L185.093 54.6466C185.253 56.3109 184.02 57.314 182.081 57.428C180.141 57.542 178.954 56.6757 178.909 55.0114ZM177.562 64.6778C177.562 63.4685 178.043 62.3087 178.899 61.4536C179.755 60.5985 180.916 60.1182 182.126 60.1182C182.731 60.0992 183.333 60.2042 183.895 60.4266C184.458 60.649 184.968 60.9842 185.396 61.4114C185.824 61.8386 186.159 62.3489 186.382 62.9107C186.604 63.4724 186.709 64.0739 186.69 64.6778C186.69 65.8871 186.21 67.0468 185.354 67.9019C184.498 68.757 183.337 69.2374 182.126 69.2374C180.925 69.2085 179.781 68.7188 178.931 67.8699C178.082 67.021 177.591 65.878 177.562 64.6778Z" fill="#FDFDFB"/>
<path d="M223.385 55.0117V53.5754C223.358 50.8202 224.405 48.1628 226.306 46.166L228.017 44.0002C229.455 42.501 230.27 40.5133 230.299 38.4375C230.339 37.8586 230.251 37.2781 230.043 36.7365C229.835 36.1949 229.511 35.7051 229.094 35.3014C228.677 34.8977 228.176 34.5898 227.628 34.399C227.079 34.2083 226.496 34.1393 225.918 34.197C223.968 34.3166 222.124 35.1246 220.715 36.4769C220.449 36.7777 220.123 37.0186 219.757 37.1836C219.391 37.3486 218.994 37.434 218.593 37.434C218.191 37.434 217.794 37.3486 217.428 37.1836C217.063 37.0186 216.736 36.7777 216.47 36.4769C216.184 36.1793 215.96 35.8272 215.812 35.4415C215.665 35.0557 215.596 34.6443 215.611 34.2316C215.626 33.8189 215.724 33.4134 215.899 33.0393C216.074 32.6652 216.323 32.3301 216.63 32.054C219.202 29.4832 222.669 28.0048 226.306 27.9276C233.722 27.654 237.716 31.8944 237.853 37.0468C237.86 39.0586 237.409 41.0458 236.536 42.8584C235.662 44.6711 234.388 46.2619 232.81 47.5111C230.391 49.7909 229.318 51.2728 229.478 53.4615L229.592 54.7609C229.752 56.4252 228.497 57.4283 226.58 57.5423C224.663 57.6562 223.431 56.676 223.385 55.0117ZM222.039 64.6781C222.039 63.4688 222.519 62.309 223.375 61.4539C224.231 60.5988 225.392 60.1185 226.602 60.1185C227.207 60.0995 227.809 60.2045 228.371 60.4269C228.934 60.6493 229.444 60.9845 229.872 61.4117C230.3 61.8389 230.635 62.3492 230.858 62.911C231.08 63.4727 231.185 64.0742 231.166 64.6781C231.166 65.8874 230.686 67.0471 229.83 67.9022C228.974 68.7573 227.813 69.2377 226.602 69.2377C225.403 69.2033 224.262 68.7118 223.413 67.8641C222.565 67.0163 222.073 65.8765 222.039 64.6781Z" fill="#FDFDFB"/>
</svg>
