<svg width="76" height="52" viewBox="0 0 76 52" fill="none" xmlns="http://www.w3.org/2000/svg">
<path opacity="0.5" d="M75.52 26.588C75.2898 25.4171 74.7859 24.3173 74.0496 23.3783C73.3133 22.4393 72.3653 21.6878 71.2831 21.1851C70.1818 20.5631 69.0287 20.1225 67.8886 19.5913C67.0723 19.2026 65.1677 18.4771 64.7142 17.5572C64.5848 16.8591 64.5848 16.1432 64.7142 15.4452C64.7142 14.6548 64.8697 13.8903 64.9474 13.1129C65.1812 11.5691 65.2204 10.0021 65.064 8.44849C64.8656 7.16716 64.3996 5.94192 63.6964 4.85255C62.9933 3.76317 62.0686 2.83405 60.9827 2.12556C54.8025 -2.11132 45.8625 2.1256 40.6929 4.92428C36.6116 3.69338 35.5103 2.33287 31.3124 1.55546C28.3169 0.969965 25.2133 1.33696 22.4371 2.60496C20.0013 3.74064 17.9506 5.56356 16.5372 7.84944C15.1238 10.1353 14.4094 12.7845 14.4818 15.4711C6.64309 15.5488 0.812655 23.5431 0.709003 31.4079C0.631264 36.176 4.22023 39.9594 8.57361 41.4624C12.4398 42.6488 16.614 42.3056 20.2345 40.5036C22.512 43.9046 25.5679 46.7133 29.1486 48.6963C32.7292 50.6793 36.7313 51.7795 40.8224 51.9056C44.3043 51.9478 47.7258 50.9947 50.6844 49.1585C53.643 47.3222 56.0157 44.6791 57.5233 41.5402C59.4205 42.55 61.549 43.0454 63.6971 42.9772C65.8451 42.909 67.938 42.2796 69.7673 41.1515C73.9263 38.4046 76.3233 32.0558 75.52 26.588Z" fill="#EEECE9"/>
<path d="M24.601 35.891C24.2507 35.7513 23.909 35.5912 23.5774 35.4116C23.1748 35.2015 22.8041 34.9355 22.4761 34.6213C22.1321 34.2811 21.859 33.8759 21.6728 33.4293C21.4852 32.8962 21.3548 32.3445 21.284 31.7838C21.2089 31.1562 21.1829 30.5237 21.2063 29.892C21.1998 29.0233 21.2736 28.1558 21.4266 27.3007C21.5768 26.5247 21.8024 25.7653 22.1003 25.0332C22.1856 24.8702 22.2593 24.7013 22.3206 24.5279C22.4243 24.2428 22.5538 23.9449 22.6964 23.608L23.0333 22.8565C23.1887 22.5326 23.4219 22.092 23.7459 21.5608C24.0698 21.0296 24.4066 20.4854 24.7694 19.9542C25.3266 19.1249 25.806 18.4512 26.1817 17.9199C26.5246 17.4643 26.8968 17.0315 27.296 16.6243C27.6588 16.2615 28.0604 15.8987 28.488 15.5488C28.9156 15.199 29.4728 14.8103 30.1206 14.3698C30.6092 14.0359 31.1763 13.8349 31.7661 13.7867C32.4331 13.7156 33.1071 13.8182 33.7226 14.0847C34.3842 14.4038 34.892 14.9723 35.1349 15.6655C35.359 16.1424 35.4571 16.6688 35.42 17.1944C35.395 17.8501 35.2817 18.4995 35.0831 19.1249C34.8718 19.7925 34.5985 20.4388 34.2668 21.0555C33.98 21.5952 33.6082 22.0852 33.1655 22.5066C33.03 22.6238 32.8625 22.6975 32.6846 22.7183C32.5067 22.7391 32.3266 22.706 32.1678 22.6233C31.7895 22.4903 31.4416 22.2832 31.1442 22.0143C31.0356 21.8269 30.9403 21.6321 30.8591 21.4313C30.8591 21.4313 30.8592 21.3405 30.9628 21.3146C31.1397 21.0964 31.2958 20.8622 31.4292 20.615C31.6279 20.2954 31.8223 19.9456 32.0123 19.5655C32.1692 19.2694 32.3035 18.9619 32.414 18.6455C32.5695 17.8422 32.6731 17.3499 32.7379 17.0389C32.7684 16.9246 32.7677 16.8041 32.7358 16.6901C32.7039 16.5762 32.642 16.4729 32.5565 16.3911C32.5149 16.3284 32.4561 16.2792 32.3871 16.2493C32.3181 16.2194 32.2419 16.2101 32.1678 16.2226C31.9212 16.287 31.6854 16.3874 31.4681 16.5206C30.8784 16.816 30.3437 17.2105 29.8874 17.6867C29.2286 18.3377 28.6221 19.0395 28.0735 19.7857C27.3047 20.805 26.6569 21.7119 26.13 22.5066C25.6337 23.2644 25.2374 24.0832 24.9508 24.9425L24.6269 25.694C24.6412 25.8874 24.6147 26.0816 24.5492 26.2641C24.4847 26.5275 24.3935 26.7837 24.2771 27.0286C24.0736 27.8792 23.9478 28.7466 23.9013 29.62C23.8585 30.337 23.9151 31.0564 24.0698 31.7578C24.1677 32.2393 24.3912 32.6863 24.7176 33.0535C25.0032 33.2321 25.3471 33.2926 25.6764 33.2219C26.124 33.1454 26.5597 33.0104 26.9721 32.8203L28.5917 32.1336C29.0379 31.9475 29.4708 31.7311 29.8874 31.4858C30.1991 31.3166 30.4903 31.1123 30.7555 30.8768C30.945 30.7452 31.1442 30.6282 31.3515 30.5269C31.5406 30.4141 31.7537 30.3475 31.9734 30.3326C32.0853 30.2842 32.2117 30.2815 32.3255 30.3251C32.4393 30.3687 32.5315 30.4551 32.5824 30.5658C32.7277 30.8641 32.7988 31.193 32.7897 31.5246C32.7251 31.9141 32.5172 32.2654 32.2067 32.5093C31.8161 32.8886 31.381 33.2193 30.911 33.4941C30.7317 33.6702 30.5206 33.8109 30.289 33.9087C30.0314 34.0342 29.7676 34.1466 29.4987 34.2455C29.0303 34.5952 28.5266 34.8948 27.9957 35.1395C27.4141 35.4185 26.8065 35.6399 26.1817 35.8003C25.6677 35.9449 25.1282 35.9759 24.601 35.891Z" fill="white"/>
<path d="M38.6459 34.997C38.0336 34.5657 37.4651 34.0753 36.9486 33.5329C36.5896 33.1854 36.3531 32.7307 36.2748 32.2372C36.2298 31.7675 36.2298 31.2946 36.2748 30.8249C36.2748 30.2289 36.3785 29.6329 36.4562 29.0499C36.534 28.4668 36.6117 28.0392 36.6635 27.7542C36.7746 27.5624 36.8158 27.338 36.7801 27.1192C36.7988 26.8492 36.8691 26.5853 36.9874 26.3419C37.1668 25.8168 37.3097 25.28 37.415 24.7352C37.8037 23.5821 38.1794 22.6103 38.5293 21.8329C38.8425 21.1426 39.1973 20.4719 39.5917 19.8246C39.9085 19.2919 40.2546 18.7772 40.6284 18.2828C41.3163 17.5696 42.0664 16.9191 42.8699 16.3392C43.4905 15.9113 44.1448 15.5342 44.8263 15.2119C45.1699 15.0025 45.5294 14.8205 45.9017 14.6678C46.0283 14.6121 46.1651 14.5834 46.3034 14.5834C46.4417 14.5834 46.5784 14.6121 46.705 14.6678C47.7401 14.8756 48.6961 15.3694 49.4648 16.0931C50.2839 16.9381 50.8106 18.0234 50.9679 19.1897C51.0924 19.9533 51.1746 20.7233 51.214 21.496C51.2402 22.1735 51.188 22.8518 51.0586 23.5173C50.8868 24.2702 50.6393 25.0038 50.32 25.707C49.8729 26.657 49.3755 27.5826 48.83 28.4798C48.1316 29.8784 47.2611 31.1842 46.2386 32.3668C45.4337 33.3055 44.4847 34.1102 43.427 34.7508C42.6193 35.2532 41.7052 35.5594 40.7579 35.6448C39.9988 35.691 39.2486 35.4609 38.6459 34.997ZM40.9652 33.0794C41.3379 33.042 41.704 32.9548 42.0536 32.8203C42.3876 32.6596 42.6869 32.4351 42.9346 32.1594L44.2303 30.7083L45.526 29.2312C45.8539 28.8264 46.1445 28.3928 46.3941 27.9355C46.6574 27.4465 46.8869 26.94 47.0808 26.4196C47.3011 25.8236 47.5473 25.1239 47.8194 24.1392C47.9748 23.5691 48.0915 23.1285 48.1563 22.8435C48.221 22.5584 48.2599 22.3252 48.2858 22.1309C48.3002 21.8676 48.3002 21.6038 48.2858 21.3405C48.2858 21.0037 48.2858 20.4854 48.2858 19.7857C48.2527 19.4085 48.1833 19.0353 48.0785 18.6714C48.0104 18.352 47.8733 18.0513 47.6768 17.7904C47.435 17.5393 47.1377 17.3485 46.8087 17.2333C46.6171 17.1475 46.4097 17.1031 46.1998 17.1031C45.9899 17.1031 45.7823 17.1475 45.5908 17.2333C45.2727 17.3865 44.9799 17.5874 44.7227 17.8292C44.3448 18.1587 43.9858 18.509 43.6472 18.8787C43.2844 19.2804 42.9346 19.695 42.6107 20.0967C42.3226 20.4424 42.0626 20.8107 41.8333 21.198C41.6827 21.4059 41.5808 21.645 41.5353 21.8977C41.5318 22.0513 41.4822 22.2003 41.3928 22.3253C41.0705 22.716 40.8085 23.1527 40.6154 23.621C40.3155 24.3064 40.0644 25.0121 39.8639 25.7329C39.6306 26.519 39.4363 27.3093 39.2808 28.104C39.1385 28.8138 39.0433 29.5324 38.9958 30.2548V31.0322C38.9681 31.2212 38.9681 31.4133 38.9958 31.6023C39.0582 31.7878 39.1408 31.966 39.242 32.1336C39.425 32.3864 39.6705 32.5873 39.9546 32.7166C40.2148 32.9478 40.5524 33.0727 40.9004 33.0664L40.9652 33.0794Z" fill="white"/>
<path d="M52.7165 33.805C52.6115 33.7404 52.5156 33.662 52.4315 33.5718C52.2847 33.4373 52.1503 33.2899 52.0299 33.1313C51.9307 33.0153 51.8439 32.8894 51.7707 32.7555C51.7252 32.63 51.7252 32.4924 51.7707 32.3669C51.8226 32.1855 51.8744 32.0947 51.9262 32.0947C51.9262 32.0947 52.0299 32.0947 52.1076 31.9393C52.1854 31.7838 52.2501 31.6672 52.3149 31.5246C52.3637 31.44 52.3987 31.3481 52.4186 31.2525C52.447 31.1934 52.492 31.1439 52.5481 31.11L52.7295 30.9934C52.8085 30.8647 52.9044 30.747 53.0146 30.6436L53.2996 30.3326C53.4965 30.1027 53.7086 29.8863 53.9345 29.6848L54.8155 28.8037L55.606 27.9356C55.7696 27.7918 55.8944 27.6091 55.9687 27.4044C56.0436 27.322 56.131 27.2519 56.2279 27.197C56.3281 27.1306 56.4233 27.057 56.5129 26.9768C56.625 26.8914 56.7291 26.796 56.8239 26.6918C56.8753 26.5535 56.945 26.4228 57.0312 26.3031C57.1417 26.1443 57.2675 25.9967 57.4069 25.8625C57.5253 25.6786 57.6334 25.4882 57.7308 25.2924C57.8106 25.1436 57.8758 24.9874 57.9252 24.826C57.9252 24.6705 57.9252 24.5798 57.9252 24.5409L57.3421 24.3336C57.0243 24.2446 56.6882 24.2446 56.3704 24.3336C55.9344 24.4786 55.5268 24.6978 55.1654 24.9815C54.9795 25.022 54.7975 25.0784 54.6212 25.1499C54.4941 25.218 54.3506 25.2494 54.2066 25.2406C54.1294 25.1896 54.0633 25.1234 54.0122 25.0462L53.779 24.7612L53.5588 23.8412L54.2196 23.4784C54.7524 23.1321 55.3215 22.8454 55.9169 22.6233C56.3597 22.4356 56.8529 22.4036 57.3162 22.5326C57.5268 22.5435 57.7355 22.5783 57.9382 22.6363C58.1197 22.6406 58.2957 22.6993 58.4435 22.8047C58.6861 22.9477 58.912 23.1172 59.1172 23.31C59.3147 23.4687 59.4704 23.6734 59.5707 23.906C59.6971 24.0943 59.785 24.3057 59.8294 24.5281C59.8739 24.7504 59.874 24.9793 59.8298 25.2017C59.753 25.7552 59.5393 26.2807 59.2079 26.7306L58.7415 27.2619L57.9122 28.1817C57.6013 28.5186 57.3292 28.8166 57.07 29.0758L56.5906 29.5681C56.4028 29.6757 56.2325 29.8111 56.0854 29.9698L55.3338 30.7343L54.6601 31.4599C54.4916 31.6672 54.4139 31.7838 54.4398 31.7838C54.4657 31.7838 54.5046 31.7838 54.6601 31.7838L55.1006 31.6153L55.865 31.408L56.7591 31.2525L57.5495 31.1619C57.7698 31.1619 57.8993 31.1619 57.9382 31.1619C57.977 31.1619 57.9381 31.2396 58.0547 31.1619C58.1714 31.0841 58.2621 31.0323 58.599 31.0712C58.9051 31.1168 59.208 31.1817 59.5059 31.2655C59.6424 31.2991 59.7704 31.3609 59.8817 31.4469C59.9854 31.4469 60.0242 31.5765 60.0242 31.6413L60.2574 31.9781C60.3083 32.0094 60.3504 32.0532 60.3795 32.1054C60.4087 32.1576 60.424 32.2164 60.424 32.2761C60.424 32.3359 60.4087 32.3946 60.3795 32.4468C60.3504 32.499 60.3083 32.5428 60.2574 32.5741C60.0856 32.693 59.889 32.7712 59.6824 32.8027C59.4758 32.8341 59.2648 32.818 59.0654 32.7555C58.7595 32.725 58.4513 32.725 58.1455 32.7555C58.0254 32.7756 57.9028 32.7756 57.7827 32.7555H57.2385C56.9857 32.7102 56.7269 32.7102 56.4741 32.7555C56.1587 32.8199 55.8472 32.9021 55.5411 33.0017L54.9452 33.196L54.0641 33.4552C53.7837 33.539 53.498 33.6039 53.2089 33.6496C53.0527 33.7236 52.887 33.776 52.7165 33.805Z" fill="white"/>
</svg>
