<svg width="277" height="96" viewBox="0 0 277 96" fill="none" xmlns="http://www.w3.org/2000/svg">
<rect width="277" height="96" rx="48" fill="#B1AAA2"/>
<path d="M63.34 58.2C62.74 57.8 62.7 57.24 62.98 56.56C64.58 52.84 64.9 48.92 64.9 40.64V33.72C64.9 32.32 65.78 31.56 67.3 31.56C68.34 31.56 69.06 31.96 69.42 32.64C73.22 32.2 77.46 31.24 81.54 29.88C83.06 29.28 84.34 29.64 84.86 31.16C85.38 32.76 84.7 34.04 83.02 34.36C78.98 34.96 74.18 35.28 69.66 35.16V38.96H82.02C84.14 38.96 85.18 40.4 84.66 42.4C83.74 46.24 82.14 49.48 79.94 52.08C81.38 53.08 83.06 53.88 84.94 54.64C86.58 55.32 87.18 56.4 86.62 57.84C86.06 59.32 84.7 59.96 82.94 59.16C80.7 58.16 78.66 56.8 76.86 55.08C74.3 57.12 71.22 58.56 67.78 59.4C66.94 59.6 66.38 59.48 66.14 58.76C65.86 58.08 66.06 57.52 66.82 57.16C69.86 55.8 72.38 54.2 74.38 52.24C72.26 49.36 70.82 45.84 70.3 41.8H69.66C69.58 48.28 68.62 53.68 65.06 57.88C64.58 58.48 64.02 58.64 63.34 58.2ZM54.94 31.96C54.34 31.44 54.3 30.88 54.7 30.28C55.06 29.72 55.66 29.52 56.38 29.84C58.1 30.56 60.42 31.92 62.06 33.24C63.34 34.24 63.5 35.44 62.46 36.6C61.38 37.76 60.14 37.72 59.1 36.4C57.94 34.96 56.3 33.2 54.94 31.96ZM53.54 39.6C52.94 39.04 52.94 38.4 53.3 37.84C53.66 37.24 54.26 37.16 54.98 37.44C56.66 38.16 59.02 39.56 60.66 40.92C61.94 41.96 62.1 43.12 61.06 44.28C59.98 45.44 58.74 45.32 57.78 44.16C56.58 42.64 54.98 40.96 53.54 39.6ZM79.58 42.32C79.66 42 79.5 41.8 79.18 41.8H72.86C73.74 44.92 75.02 47.36 76.74 49.32C78.06 47.32 79.02 45 79.58 42.32ZM85.34 60.32C87.18 60.12 88.14 60.92 88.14 62.6C88.14 64.28 87.34 65.12 85.5 65.24C81.1 65.52 77.38 65.52 72.94 65.4C65.54 65.12 62.3 63.64 60.5 60.32C60.3 59.96 60.02 60 59.9 60.32C59.02 62.16 57.9 64.04 56.78 65.32C55.7 66.6 54.34 66.56 53.3 65.48C52.18 64.36 52.14 63.08 53.42 62C54.82 60.88 56.18 59.6 57.02 58.44V50.16C57.02 49.88 56.82 49.68 56.54 49.68H53.66C52.78 49.68 52.3 49.16 52.3 48.24C52.3 47.36 52.78 46.8 53.66 46.8H59.78C61.26 46.8 62.1 47.64 62.1 49.16V57.6C63.46 60.04 66.3 61.08 71.5 61.08C76.22 61.08 80.7 60.84 85.34 60.32ZM129.02 32.04C130.54 32.04 131.34 32.88 131.34 34.36V64C131.34 65.64 130.42 66.44 128.82 66.44C127.18 66.44 126.26 65.64 126.26 64V62.84H105.1V64.16C105.1 65.8 104.18 66.6 102.58 66.6C100.94 66.6 100.02 65.8 100.02 64.16V34.36C100.02 32.84 100.82 32.04 102.34 32.04H129.02ZM105.1 59.88H126.26V35.48C126.26 35.2 126.06 35 125.78 35H105.58C105.3 35 105.1 35.2 105.1 35.48V59.88ZM120.7 40.32C122.22 40.32 123.02 41.16 123.02 42.64V52.16C123.02 53.68 122.22 54.52 120.7 54.52H110.5C109.02 54.52 108.18 53.68 108.18 52.16V42.64C108.18 41.16 109.02 40.32 110.5 40.32H120.7ZM118.38 51.2V43.64C118.38 43.36 118.18 43.16 117.9 43.16H113.34C113.06 43.16 112.86 43.36 112.86 43.64V51.2C112.86 51.48 113.06 51.68 113.34 51.68H117.9C118.18 51.68 118.38 51.48 118.38 51.2ZM177.42 36.08C178.42 36.08 178.94 36.6 178.94 37.6C178.94 38.56 178.42 39.12 177.42 39.12H163.74C163.06 40.44 162.3 41.76 161.42 42.88H171.74C173.26 42.88 174.06 43.72 174.06 45.2V64.36C174.06 65.92 173.14 66.76 171.46 66.76C169.74 66.76 168.82 65.92 168.82 64.36V63.76H153.78V64.36C153.78 65.92 152.86 66.76 151.14 66.76C149.42 66.76 148.5 65.92 148.5 64.36V45.2C148.5 43.72 149.34 42.88 150.82 42.88H157.82C158.02 41.64 158.18 40.4 158.26 39.12H145.22C144.22 39.12 143.66 38.56 143.66 37.6C143.66 36.64 144.22 36.08 145.22 36.08H154.62C154.5 35.96 154.38 35.84 154.3 35.68C153.38 34.16 152.18 32.72 150.98 31.36C150.42 30.72 150.42 30 150.94 29.4C151.42 28.8 152.18 28.8 152.94 29.24C154.54 30.12 156.3 31.4 157.58 32.6C158.9 33.76 159.1 34.92 157.9 36.08H163.66C164.66 34.36 165.62 32.4 166.34 30.48C166.94 28.92 168.3 28.36 169.86 29.2C171.34 30 171.42 31.4 170.34 32.76C169.42 33.96 168.34 35.12 167.3 36.08H177.42ZM168.82 46.24C168.82 45.96 168.62 45.76 168.34 45.76H154.26C153.98 45.76 153.78 45.96 153.78 46.24V48.84H168.82V46.24ZM153.78 51.72V54.8H168.82V51.72H153.78ZM153.78 60.88H168.82V57.64H153.78V60.88ZM222.62 61.96C224.14 62.68 224.66 63.92 223.94 65.4C223.22 66.88 221.82 67.16 220.26 66.24C217.22 64.4 213.78 62.68 209.98 60.96C209.14 60.56 208.9 59.92 209.18 59.16C209.3 58.8 209.5 58.56 209.74 58.44H203.62L203.86 58.68C204.9 59.92 204.74 61.44 203.14 62.36C199.62 64.36 195.26 65.88 190.86 66.56C190.02 66.68 189.42 66.4 189.26 65.64C189.1 64.92 189.34 64.32 190.14 63.96C193.86 62.56 197.38 60.68 200.26 58.56L200.42 58.44H195.98C194.34 58.44 193.54 57.68 193.54 56.12V40.04C193.54 38.52 194.38 37.56 195.98 37.56H203.42C203.7 36.36 203.94 35.08 204.1 33.8H191.34C190.42 33.8 189.94 33.28 189.94 32.32C189.94 31.36 190.42 30.8 191.34 30.8H222.54C223.38 30.8 223.86 31.36 223.86 32.32C223.86 33.28 223.38 33.8 222.54 33.8H209.18C208.46 35.24 207.66 36.52 206.78 37.56H217.82C219.46 37.56 220.3 38.48 220.3 40V56C220.3 57.56 219.46 58.44 217.9 58.44H211.46C215.38 59.2 219.42 60.48 222.62 61.96ZM198.58 40.96V43.68H215.22V40.96C215.22 40.68 215.02 40.48 214.74 40.48H199.06C198.78 40.48 198.58 40.68 198.58 40.96ZM198.58 46.48V49.56H215.22V46.48H198.58ZM198.58 55.04C198.58 55.32 198.78 55.52 199.06 55.52H214.74C215.02 55.52 215.22 55.32 215.22 55.04V52.36H198.58V55.04Z" fill="#FDFDFB"/>
</svg>
