<svg width="258" height="57" viewBox="0 0 258 57" fill="none" xmlns="http://www.w3.org/2000/svg">
<path d="M4.17944 4.36C4.06944 4.36 3.98144 4.426 3.98144 4.558V8.408H8.33744C9.10744 8.408 9.52544 8.848 9.52544 9.662C9.52544 10.476 9.10744 10.916 8.33744 10.916H3.98144V16.416C3.98144 17.67 3.27744 18.33 2.08944 18.33C0.879444 18.33 0.197444 17.67 0.197444 16.416V3.678C0.197444 2.512 0.835444 1.852 1.97944 1.852H9.01944C9.78945 1.852 10.2074 2.292 10.2074 3.106C10.2074 3.92 9.78945 4.36 9.01944 4.36H4.17944ZM15.7052 4.888C14.4952 4.888 13.4832 3.964 13.4832 2.776C13.4832 1.544 14.4732 0.641999 15.7052 0.641999C16.9592 0.641999 17.8392 1.522 17.8392 2.776C17.8392 3.986 16.9372 4.888 15.7052 4.888ZM15.6612 18.33C14.4292 18.33 13.7912 17.692 13.7912 16.504V8.276C13.7912 7.088 14.4292 6.45 15.6612 6.45C16.8932 6.45 17.5312 7.088 17.5312 8.276V16.504C17.5312 17.692 16.8932 18.33 15.6612 18.33ZM30.6669 7.55C30.7769 8.76 30.0069 9.134 28.9289 9.266C27.7629 9.42 26.6629 10.564 26.3329 12.016V16.57C26.3329 17.802 25.5849 18.33 24.3749 18.33C23.1649 18.33 22.5929 17.78 22.5929 16.57V7.748C22.5929 6.692 23.2969 6.23 24.3749 6.23C25.3869 6.23 26.0469 6.758 26.0469 7.836V8.87C26.5089 7.044 27.5429 6.296 28.8409 6.252C29.8309 6.23 30.5789 6.56 30.6669 7.55ZM33.6632 15.272C34.0372 14.81 34.6532 14.722 35.2252 15.074C35.8852 15.47 36.8312 15.866 37.7992 15.866C38.7672 15.866 39.2292 15.624 39.2292 15.052C39.2292 14.502 38.9872 14.128 37.0952 13.292C34.8512 12.302 33.6852 11.378 33.6852 9.574C33.6852 7.594 35.5992 6.23 38.4152 6.23C40.3072 6.23 41.6052 6.824 42.2432 7.374C42.7492 7.814 42.8372 8.474 42.4632 8.98C42.0892 9.486 41.2752 9.618 40.6592 9.178C40.1312 8.804 39.4272 8.672 38.6132 8.672C37.7772 8.672 37.3592 8.98 37.3592 9.442C37.3592 9.97 37.7992 10.234 39.4272 10.982C42.0012 12.148 43.0132 13.116 43.0132 14.854C43.0132 17.23 40.7692 18.33 38.4152 18.33C36.7432 18.33 34.7852 17.912 33.8392 16.966C33.3112 16.438 33.2232 15.8 33.6632 15.272ZM53.5103 15.36C54.1483 15.36 54.5443 16.13 54.5443 16.68C54.5443 17.824 52.9163 18.154 51.7063 18.154C49.1763 18.154 48.0323 16.944 48.0323 14.326V9.068H46.8003C46.0963 9.068 45.7003 8.584 45.7003 7.814C45.7003 7.022 46.1183 6.56 46.8003 6.56H48.0323V5.174C48.0323 3.986 48.6923 3.348 49.9023 3.348C51.1123 3.348 51.7723 3.986 51.7723 5.174V6.56H53.2023C53.9063 6.56 54.3023 7.044 54.3023 7.814C54.3023 8.606 53.8843 9.068 53.2023 9.068H51.7723V14.282C51.7723 15.162 52.0143 15.558 52.4103 15.558C52.8283 15.558 53.1143 15.36 53.5103 15.36ZM64.9132 6.23C67.4652 6.23 69.8852 7.726 69.8852 12.214C69.8852 15.954 67.9492 18.33 64.9352 18.33C63.1972 18.33 62.3172 17.428 61.8992 16.834C61.8332 17.78 61.3712 18.33 60.1172 18.33C59.0612 18.33 58.4452 17.648 58.4452 16.482V2.578C58.4452 1.478 59.0612 0.839999 60.2712 0.839999C61.5032 0.839999 62.1852 1.5 62.1852 2.578V7.374C62.9112 6.714 63.8572 6.23 64.9132 6.23ZM64.1652 15.844C65.5732 15.844 66.3212 14.612 66.3212 12.17C66.3212 10.058 65.4192 8.76 63.9232 8.76C63.0652 8.76 62.4052 9.332 61.9652 10.146V14.238C62.2072 14.898 62.8232 15.844 64.1652 15.844ZM83.1496 7.682C83.8096 8.386 84.1396 9.376 84.1396 10.652V16.504C84.1396 17.692 83.6776 18.33 82.5336 18.33C81.3676 18.33 80.8396 17.692 80.8396 16.504V16.438C80.1136 17.714 78.7496 18.33 77.0116 18.33C74.6796 18.33 73.2496 16.966 73.2496 14.788C73.2496 12.17 75.6916 10.542 79.3876 10.542C79.8276 10.542 80.2896 10.564 80.5756 10.608V10.41C80.5756 9.31 79.9596 8.65 78.7936 8.606C77.8476 8.562 76.8356 8.98 75.9996 9.882C75.4716 10.454 74.7016 10.542 74.1516 10.058C73.5796 9.596 73.5136 8.87 74.0196 8.232C74.8116 7.264 76.5496 6.23 78.8596 6.23C80.9056 6.23 82.2036 6.692 83.1496 7.682ZM80.6196 13.974V12.852C80.3336 12.808 79.8496 12.764 79.4316 12.786C77.3196 12.896 76.5936 13.71 76.6376 14.568C76.6816 15.316 77.1436 15.756 78.0456 15.756C79.0796 15.756 80.1136 15.03 80.6196 13.974ZM95.7082 6.23C98.3262 6.23 99.9542 7.902 99.9542 10.608V16.504C99.9542 17.692 99.2942 18.33 98.0842 18.33C96.8742 18.33 96.2142 17.692 96.2142 16.504V10.894C96.2142 9.508 95.6422 8.672 94.6302 8.672C93.6622 8.672 92.7822 9.552 92.4962 10.784V16.504C92.4962 17.692 91.8362 18.33 90.6262 18.33C89.4162 18.33 88.7562 17.692 88.7562 16.504V7.946C88.7562 6.846 89.3722 6.252 90.4722 6.252C91.5942 6.252 92.2102 6.802 92.2102 7.924V8.276C92.8702 6.934 94.2342 6.23 95.7082 6.23ZM106.437 18.33C105.227 18.33 104.567 17.736 104.567 16.57V2.666C104.567 1.478 105.227 0.839999 106.437 0.839999C107.625 0.839999 108.307 1.478 108.307 2.666V10.256C109.539 9.2 110.991 8.012 112.355 6.714C113.059 6.054 113.851 6.076 114.511 6.692C115.215 7.352 115.105 8.21 114.291 8.892L111.409 11.246L114.731 15.646C115.391 16.504 115.325 17.318 114.555 17.912C113.719 18.572 112.663 18.44 112.113 17.604L109.011 12.874L108.307 13.512V16.57C108.307 17.736 107.625 18.33 106.437 18.33ZM135.998 18.33C131.092 18.33 128.166 15.294 128.166 9.706C128.166 4.734 131.29 1.522 136.218 1.522C138.88 1.522 140.706 2.578 141.52 3.392C142.07 3.942 142.114 4.624 141.586 5.196C141.036 5.79 140.354 5.812 139.694 5.262C139.056 4.734 137.956 4.096 136.152 4.096C133.666 4.096 132.082 6.252 132.082 9.75C132.082 13.71 133.446 15.734 136.02 15.734C137.076 15.734 137.934 15.536 138.374 15.272C138.55 15.162 138.616 15.074 138.616 14.876V11.796C138.616 11.686 138.55 11.598 138.418 11.598H136.372C135.558 11.598 135.118 11.18 135.118 10.366C135.118 9.552 135.558 9.134 136.372 9.134H140.574C141.52 9.134 142.07 9.662 142.07 10.63V15.272C142.07 16.108 141.828 16.636 141.212 17.076C140.112 17.868 138.176 18.33 135.998 18.33ZM154.81 7.55C154.92 8.76 154.15 9.134 153.072 9.266C151.906 9.42 150.806 10.564 150.476 12.016V16.57C150.476 17.802 149.728 18.33 148.518 18.33C147.308 18.33 146.736 17.78 146.736 16.57V7.748C146.736 6.692 147.44 6.23 148.518 6.23C149.53 6.23 150.19 6.758 150.19 7.836V8.87C150.652 7.044 151.686 6.296 152.984 6.252C153.974 6.23 154.722 6.56 154.81 7.55ZM166.567 15.118C167.161 14.678 167.799 14.722 168.217 15.206C168.635 15.668 168.657 16.306 168.195 16.812C167.491 17.604 165.775 18.33 163.597 18.33C160.143 18.33 157.481 16.592 157.481 12.544C157.481 8.65 159.769 6.208 163.443 6.208C167.051 6.208 168.855 8.892 168.855 11.488C168.855 12.742 168.217 13.402 166.875 13.402H161.287C161.507 15.228 162.321 15.91 163.883 15.954C164.961 15.976 165.841 15.668 166.567 15.118ZM163.487 8.518C162.101 8.518 161.485 9.464 161.287 10.982H165.291C165.423 10.982 165.489 10.916 165.489 10.784C165.489 9.266 164.719 8.518 163.487 8.518ZM181.261 15.118C181.855 14.678 182.493 14.722 182.911 15.206C183.329 15.668 183.351 16.306 182.889 16.812C182.185 17.604 180.469 18.33 178.291 18.33C174.837 18.33 172.175 16.592 172.175 12.544C172.175 8.65 174.463 6.208 178.137 6.208C181.745 6.208 183.549 8.892 183.549 11.488C183.549 12.742 182.911 13.402 181.569 13.402H175.981C176.201 15.228 177.015 15.91 178.577 15.954C179.655 15.976 180.535 15.668 181.261 15.118ZM178.181 8.518C176.795 8.518 176.179 9.464 175.981 10.982H179.985C180.117 10.982 180.183 10.916 180.183 10.784C180.183 9.266 179.413 8.518 178.181 8.518ZM194.524 6.23C197.142 6.23 198.77 7.902 198.77 10.608V16.504C198.77 17.692 198.11 18.33 196.9 18.33C195.69 18.33 195.03 17.692 195.03 16.504V10.894C195.03 9.508 194.458 8.672 193.446 8.672C192.478 8.672 191.598 9.552 191.312 10.784V16.504C191.312 17.692 190.652 18.33 189.442 18.33C188.232 18.33 187.572 17.692 187.572 16.504V7.946C187.572 6.846 188.188 6.252 189.288 6.252C190.41 6.252 191.026 6.802 191.026 7.924V8.276C191.686 6.934 193.05 6.23 194.524 6.23ZM222.888 16.724C222.888 17.538 222.448 18 221.612 18H215.43C213.912 18 213.23 17.252 213.23 15.734V3.37C213.23 2.204 213.934 1.566 215.122 1.544C216.31 1.522 217.014 2.204 217.014 3.37V15.206C217.014 15.404 217.102 15.448 217.256 15.448H221.612C222.426 15.448 222.888 15.888 222.888 16.724ZM228.91 4.888C227.7 4.888 226.688 3.964 226.688 2.776C226.688 1.544 227.678 0.641999 228.91 0.641999C230.164 0.641999 231.044 1.522 231.044 2.776C231.044 3.986 230.142 4.888 228.91 4.888ZM228.866 18.33C227.634 18.33 226.996 17.692 226.996 16.504V8.276C226.996 7.088 227.634 6.45 228.866 6.45C230.098 6.45 230.736 7.088 230.736 8.276V16.504C230.736 17.692 230.098 18.33 228.866 18.33ZM242.882 1.214C243.388 1.566 243.564 2.182 243.322 2.732C243.058 3.326 242.442 3.568 241.914 3.304C241.694 3.194 241.496 3.15 241.298 3.15C240.704 3.15 240.484 3.524 240.484 4.492V6.56H241.848C242.552 6.56 242.948 7.044 242.948 7.814C242.948 8.606 242.53 9.068 241.848 9.068H240.484V16.526C240.484 17.758 239.78 18.33 238.614 18.33C237.426 18.33 236.744 17.714 236.744 16.526V9.068H235.688C234.984 9.068 234.544 8.606 234.544 7.814C234.544 7.022 234.984 6.56 235.688 6.56H236.744V4.426C236.744 2.028 238.13 0.62 240.506 0.62C241.452 0.62 242.376 0.861999 242.882 1.214ZM254.727 15.118C255.321 14.678 255.959 14.722 256.377 15.206C256.795 15.668 256.817 16.306 256.355 16.812C255.651 17.604 253.935 18.33 251.757 18.33C248.303 18.33 245.641 16.592 245.641 12.544C245.641 8.65 247.929 6.208 251.603 6.208C255.211 6.208 257.015 8.892 257.015 11.488C257.015 12.742 256.377 13.402 255.035 13.402H249.447C249.667 15.228 250.481 15.91 252.043 15.954C253.121 15.976 254.001 15.668 254.727 15.118ZM251.647 8.518C250.261 8.518 249.645 9.464 249.447 10.982H253.451C253.583 10.982 253.649 10.916 253.649 10.784C253.649 9.266 252.879 8.518 251.647 8.518ZM23.1389 51.33C18.3429 51.33 15.5269 48.272 15.5269 42.728C15.5269 37.668 18.4749 34.5 23.3149 34.5C25.2289 34.5 26.6589 35.072 27.4289 35.644C28.0669 36.106 28.2869 36.832 27.9569 37.404C27.5829 38.064 26.8569 38.218 26.1969 37.822C25.4709 37.36 24.6569 37.096 23.4249 37.096C20.9389 37.096 19.4209 39.142 19.4209 42.684C19.4209 46.6 20.8949 48.734 23.3369 48.734C24.7889 48.734 25.5809 48.294 26.2189 47.832C26.8569 47.37 27.5609 47.524 28.0669 48.162C28.5069 48.712 28.4189 49.416 27.8029 49.966C27.0109 50.692 25.3169 51.33 23.1389 51.33ZM39.3952 39.23C41.8592 39.23 43.4212 40.946 43.4212 43.608V49.592C43.4212 50.758 42.8052 51.33 41.5952 51.33C40.3852 51.33 39.7692 50.758 39.7692 49.592V43.762C39.7692 42.53 39.2632 41.87 38.2732 41.87C37.2392 41.87 36.5792 42.508 36.1612 43.63V49.592C36.1612 50.758 35.5012 51.33 34.2912 51.33C33.0812 51.33 32.4212 50.758 32.4212 49.592V35.622C32.4212 34.434 33.0592 33.84 34.2912 33.84C35.5232 33.84 36.1612 34.434 36.1612 35.622V40.814C36.8432 39.78 37.9432 39.23 39.3952 39.23ZM57.1686 40.682C57.8286 41.386 58.1586 42.376 58.1586 43.652V49.504C58.1586 50.692 57.6966 51.33 56.5526 51.33C55.3866 51.33 54.8586 50.692 54.8586 49.504V49.438C54.1326 50.714 52.7686 51.33 51.0306 51.33C48.6986 51.33 47.2686 49.966 47.2686 47.788C47.2686 45.17 49.7106 43.542 53.4066 43.542C53.8466 43.542 54.3086 43.564 54.5946 43.608V43.41C54.5946 42.31 53.9786 41.65 52.8126 41.606C51.8666 41.562 50.8546 41.98 50.0186 42.882C49.4906 43.454 48.7206 43.542 48.1706 43.058C47.5986 42.596 47.5326 41.87 48.0386 41.232C48.8306 40.264 50.5686 39.23 52.8786 39.23C54.9246 39.23 56.2226 39.692 57.1686 40.682ZM54.6386 46.974V45.852C54.3526 45.808 53.8686 45.764 53.4506 45.786C51.3386 45.896 50.6126 46.71 50.6566 47.568C50.7006 48.316 51.1626 48.756 52.0646 48.756C53.0986 48.756 54.1326 48.03 54.6386 46.974ZM65.9872 51.33C63.6772 51.33 62.7752 50.472 62.7752 47.7V35.644C62.7752 34.478 63.4352 33.84 64.6452 33.84C65.8112 33.84 66.4932 34.478 66.4932 35.644V47.722C66.4932 48.36 66.5592 48.58 67.0212 48.58C67.2852 48.58 67.4392 48.47 67.7032 48.47C68.0992 48.47 68.6712 48.778 68.6712 49.724C68.6712 50.956 67.4612 51.33 65.9872 51.33ZM75.2452 51.33C72.9352 51.33 72.0332 50.472 72.0332 47.7V35.644C72.0332 34.478 72.6932 33.84 73.9032 33.84C75.0692 33.84 75.7512 34.478 75.7512 35.644V47.722C75.7512 48.36 75.8172 48.58 76.2792 48.58C76.5432 48.58 76.6972 48.47 76.9612 48.47C77.3572 48.47 77.9292 48.778 77.9292 49.724C77.9292 50.956 76.7192 51.33 75.2452 51.33ZM89.8881 48.118C90.4821 47.678 91.1201 47.722 91.5381 48.206C91.9561 48.668 91.9781 49.306 91.5161 49.812C90.8121 50.604 89.0961 51.33 86.9181 51.33C83.4641 51.33 80.8021 49.592 80.8021 45.544C80.8021 41.65 83.0901 39.208 86.7641 39.208C90.3721 39.208 92.1761 41.892 92.1761 44.488C92.1761 45.742 91.5381 46.402 90.1961 46.402H84.6081C84.8281 48.228 85.6421 48.91 87.2041 48.954C88.2821 48.976 89.1621 48.668 89.8881 48.118ZM86.8081 41.518C85.4221 41.518 84.8061 42.464 84.6081 43.982H88.6121C88.7441 43.982 88.8101 43.916 88.8101 43.784C88.8101 42.266 88.0401 41.518 86.8081 41.518ZM103.152 39.23C105.77 39.23 107.398 40.902 107.398 43.608V49.504C107.398 50.692 106.738 51.33 105.528 51.33C104.318 51.33 103.658 50.692 103.658 49.504V43.894C103.658 42.508 103.086 41.672 102.074 41.672C101.106 41.672 100.226 42.552 99.9397 43.784V49.504C99.9397 50.692 99.2797 51.33 98.0697 51.33C96.8597 51.33 96.1997 50.692 96.1997 49.504V40.946C96.1997 39.846 96.8157 39.252 97.9157 39.252C99.0377 39.252 99.6537 39.802 99.6537 40.924V41.276C100.314 39.934 101.678 39.23 103.152 39.23ZM121.052 39.252C122.262 39.252 122.68 39.868 122.68 41.056V50.758C122.68 54.63 120.656 56.544 116.828 56.544C115.442 56.544 113.88 56.126 112.978 55.532C112.23 55.048 111.966 54.41 112.34 53.706C112.692 53.024 113.418 52.892 114.078 53.31C114.76 53.728 115.486 54.058 116.696 54.058C118.412 54.058 119.16 53.134 119.16 50.89V50.032C118.478 50.626 117.488 51 116.52 51C113.924 51 111.306 49.702 111.306 45.302C111.306 41.474 113.374 39.23 116.41 39.23C117.796 39.23 118.764 39.758 119.358 40.572C119.512 39.736 120.106 39.252 121.052 39.252ZM117.356 48.514C118.126 48.514 118.852 48.162 119.314 47.546V43.3C119.072 42.662 118.478 41.716 117.18 41.716C115.75 41.716 114.87 42.816 114.87 45.346C114.87 47.414 115.86 48.514 117.356 48.514ZM119.71 46.732L119.776 46.512L119.71 46.732ZM135.902 48.118C136.496 47.678 137.134 47.722 137.552 48.206C137.97 48.668 137.992 49.306 137.53 49.812C136.826 50.604 135.11 51.33 132.932 51.33C129.478 51.33 126.816 49.592 126.816 45.544C126.816 41.65 129.104 39.208 132.778 39.208C136.386 39.208 138.19 41.892 138.19 44.488C138.19 45.742 137.552 46.402 136.21 46.402H130.622C130.842 48.228 131.656 48.91 133.218 48.954C134.296 48.976 135.176 48.668 135.902 48.118ZM132.822 41.518C131.436 41.518 130.82 42.464 130.622 43.982H134.626C134.758 43.982 134.824 43.916 134.824 43.784C134.824 42.266 134.054 41.518 132.822 41.518ZM163.831 48.69C164.381 49.68 164.183 50.538 163.215 51.044C162.203 51.572 161.279 51.352 160.729 50.318L157.847 44.906C157.715 44.906 157.583 44.906 157.451 44.906C156.923 44.906 156.351 44.906 155.889 44.884V49.416C155.889 50.67 155.207 51.33 154.019 51.33C152.765 51.33 152.061 50.67 152.061 49.416V36.744C152.061 35.666 152.611 34.984 153.667 34.83C154.547 34.698 155.977 34.654 157.165 34.654C161.653 34.654 164.007 36.502 164.007 39.802C164.007 42.156 162.775 43.564 161.059 44.268C162.335 46.204 163.215 47.59 163.831 48.69ZM157.297 42.464C159.145 42.464 160.223 41.518 160.223 39.824C160.223 38.042 159.233 37.096 157.275 37.096C156.813 37.096 156.285 37.118 156.021 37.162C155.911 37.184 155.845 37.25 155.845 37.382V42.442C156.307 42.464 156.835 42.464 157.297 42.464ZM176.352 48.118C176.946 47.678 177.584 47.722 178.002 48.206C178.42 48.668 178.442 49.306 177.98 49.812C177.276 50.604 175.56 51.33 173.382 51.33C169.928 51.33 167.266 49.592 167.266 45.544C167.266 41.65 169.554 39.208 173.228 39.208C176.836 39.208 178.64 41.892 178.64 44.488C178.64 45.742 178.002 46.402 176.66 46.402H171.072C171.292 48.228 172.106 48.91 173.668 48.954C174.746 48.976 175.626 48.668 176.352 48.118ZM173.272 41.518C171.886 41.518 171.27 42.464 171.072 43.982H175.076C175.208 43.982 175.274 43.916 175.274 43.784C175.274 42.266 174.504 41.518 173.272 41.518ZM182.07 48.272C182.444 47.81 183.06 47.722 183.632 48.074C184.292 48.47 185.238 48.866 186.206 48.866C187.174 48.866 187.636 48.624 187.636 48.052C187.636 47.502 187.394 47.128 185.502 46.292C183.258 45.302 182.092 44.378 182.092 42.574C182.092 40.594 184.006 39.23 186.822 39.23C188.714 39.23 190.012 39.824 190.65 40.374C191.156 40.814 191.244 41.474 190.87 41.98C190.496 42.486 189.682 42.618 189.066 42.178C188.538 41.804 187.834 41.672 187.02 41.672C186.184 41.672 185.766 41.98 185.766 42.442C185.766 42.97 186.206 43.234 187.834 43.982C190.408 45.148 191.42 46.116 191.42 47.854C191.42 50.23 189.176 51.33 186.822 51.33C185.15 51.33 183.192 50.912 182.246 49.966C181.718 49.438 181.63 48.8 182.07 48.272ZM204.443 39.23C205.631 39.23 206.269 39.868 206.269 41.012V49.724C206.269 50.714 205.697 51.33 204.619 51.33C203.563 51.33 202.969 50.736 202.947 49.746V49.526C202.309 50.648 201.055 51.308 199.493 51.308C196.831 51.308 195.225 49.68 195.225 46.952V41.034C195.225 39.868 195.885 39.23 197.095 39.23C198.305 39.23 198.965 39.868 198.965 41.034V46.468C198.965 48.03 199.449 48.778 200.549 48.778C201.759 48.778 202.419 47.326 202.617 46.446V41.012C202.617 39.868 203.277 39.23 204.443 39.23ZM202.683 46.05V45.962V46.05ZM214.318 51.33C212.008 51.33 211.106 50.472 211.106 47.7V35.644C211.106 34.478 211.766 33.84 212.976 33.84C214.142 33.84 214.824 34.478 214.824 35.644V47.722C214.824 48.36 214.89 48.58 215.352 48.58C215.616 48.58 215.77 48.47 216.034 48.47C216.43 48.47 217.002 48.778 217.002 49.724C217.002 50.956 215.792 51.33 214.318 51.33ZM227.201 48.36C227.839 48.36 228.235 49.13 228.235 49.68C228.235 50.824 226.607 51.154 225.397 51.154C222.867 51.154 221.723 49.944 221.723 47.326V42.068H220.491C219.787 42.068 219.391 41.584 219.391 40.814C219.391 40.022 219.809 39.56 220.491 39.56H221.723V38.174C221.723 36.986 222.383 36.348 223.593 36.348C224.803 36.348 225.463 36.986 225.463 38.174V39.56H226.893C227.597 39.56 227.993 40.044 227.993 40.814C227.993 41.606 227.575 42.068 226.893 42.068H225.463V47.282C225.463 48.162 225.705 48.558 226.101 48.558C226.519 48.558 226.805 48.36 227.201 48.36ZM231.542 48.272C231.916 47.81 232.532 47.722 233.104 48.074C233.764 48.47 234.71 48.866 235.678 48.866C236.646 48.866 237.108 48.624 237.108 48.052C237.108 47.502 236.866 47.128 234.974 46.292C232.73 45.302 231.564 44.378 231.564 42.574C231.564 40.594 233.478 39.23 236.294 39.23C238.186 39.23 239.484 39.824 240.122 40.374C240.628 40.814 240.716 41.474 240.342 41.98C239.968 42.486 239.154 42.618 238.538 42.178C238.01 41.804 237.306 41.672 236.492 41.672C235.656 41.672 235.238 41.98 235.238 42.442C235.238 42.97 235.678 43.234 237.306 43.982C239.88 45.148 240.892 46.116 240.892 47.854C240.892 50.23 238.648 51.33 236.294 51.33C234.622 51.33 232.664 50.912 231.718 49.966C231.19 49.438 231.102 48.8 231.542 48.272Z" fill="#594A39"/>
</svg>
