<svg width="288" height="50" viewBox="0 0 288 50" fill="none" xmlns="http://www.w3.org/2000/svg">
<g clip-path="url(#clip0_1384_696)">
<path opacity="0.97" d="M5.62806 48.9402C10.6396 48.6169 15.7388 48.3267 20.8004 48.0449C34.3649 47.2823 47.9419 46.5942 61.5314 45.9808C81.3603 45.0745 101.202 44.3119 121.055 43.6929C145.002 42.9469 168.953 42.419 192.908 42.1095C205.587 41.9603 218.266 41.8859 230.945 41.8859C244.113 41.8859 255.727 41.9769 268.907 42.1842L278.429 42.3582C281.361 42.4163 284.894 41.6453 286.423 39.8714C287.675 38.429 286.911 36.5558 283.917 36.4977C257.882 35.9672 231.822 35.8924 205.775 36.1246C181.444 36.3401 157.126 36.81 132.82 37.5339C112.223 38.1308 91.638 38.8823 71.0658 39.7886C56.4573 40.4297 41.8404 41.148 27.2152 41.9438C20.9508 42.2919 14.6864 42.5738 8.50974 43.0463H8.27169C5.46525 43.2204 2.00732 44.4307 1.15536 46.3621C0.303407 48.2935 3.12238 49.139 5.54043 48.9815L5.62806 48.9402Z" fill="#E5EAAF"/>
<path d="M1.83976 12.0688C1.81515 11.8638 1.8376 11.656 1.90545 11.4611C1.97331 11.2662 2.08474 11.0895 2.23129 10.9442C2.37783 10.7988 2.55565 10.6888 2.75112 10.6226C2.9466 10.5563 3.15463 10.5355 3.35933 10.5618H24.7962C25.1737 10.5963 25.5247 10.7706 25.7804 11.0506C26.036 11.3305 26.1777 11.6961 26.1777 12.0752C26.1777 12.4543 26.036 12.8196 25.7804 13.0995C25.5247 13.3795 25.1737 13.5538 24.7962 13.5883H3.33419C3.13077 13.6084 2.92545 13.5828 2.73326 13.5131C2.54108 13.4435 2.36688 13.3317 2.22355 13.186C2.08022 13.0403 1.97141 12.8642 1.90499 12.6709C1.83857 12.4776 1.81627 12.2718 1.83976 12.0688Z" fill="#594A39"/>
<path d="M42.7683 22.618C40.061 24.0458 37.1769 25.1099 34.191 25.7827C33.0231 26.0715 32.1692 25.7825 31.9682 24.6774C31.7673 23.5723 32.1692 22.7938 33.3873 22.618C34.3041 22.4798 35.2208 22.3416 36.1501 22.1658V14.2666H33.2994C33.1618 14.2783 33.0233 14.2598 32.8937 14.212C32.7641 14.1642 32.6466 14.0883 32.5495 13.9901C32.4525 13.8918 32.3782 13.7735 32.332 13.6433C32.2858 13.5131 32.2688 13.3745 32.2822 13.2371C32.2677 13.101 32.2843 12.9635 32.3307 12.8348C32.3771 12.7061 32.4521 12.5894 32.55 12.4939C32.6479 12.3983 32.7662 12.3264 32.8961 12.2832C33.0259 12.2401 33.1638 12.227 33.2994 12.2449H36.1501V9.73326H34.819C34.6321 9.74477 34.4455 9.70562 34.279 9.62013C33.9273 9.90897 33.5632 10.1603 33.1864 10.424C33.0956 10.5003 32.9901 10.557 32.8765 10.5908C32.7629 10.6247 32.6436 10.635 32.5258 10.6209C32.4081 10.6067 32.2945 10.5684 32.1921 10.5086C32.0897 10.4489 32.0008 10.3687 31.9306 10.2732C31.8454 10.1892 31.7794 10.088 31.7371 9.97609C31.6948 9.86421 31.6773 9.74434 31.6856 9.62504C31.694 9.50573 31.728 9.38961 31.7855 9.28471C31.8429 9.17982 31.9225 9.08864 32.0185 9.01736C33.9309 6.76625 35.3778 4.15813 36.2757 1.34417C36.3313 1.11188 36.438 0.895082 36.588 0.709204C36.738 0.523327 36.9275 0.373287 37.1428 0.269851C37.3581 0.166415 37.5937 0.112283 37.8326 0.111341C38.0714 0.110398 38.3075 0.162598 38.5236 0.264332C38.7377 0.308059 38.9392 0.399001 39.1137 0.530458C39.2882 0.661915 39.4311 0.830405 39.5322 1.02408C39.6332 1.21775 39.6898 1.43154 39.6978 1.64984C39.7058 1.86814 39.6651 2.08547 39.5785 2.28603C40.8684 3.04491 42.0403 3.98867 43.0571 5.08679C43.2138 5.23317 43.3368 5.4116 43.4178 5.61015C43.4987 5.80871 43.5356 6.02265 43.5258 6.23684C43.5161 6.45102 43.46 6.66055 43.3614 6.85095C43.2628 7.04135 43.1241 7.20809 42.9548 7.33966C42.7855 7.47123 42.5897 7.56432 42.3809 7.61284C42.172 7.66137 41.9551 7.66396 41.7451 7.62051C41.5352 7.57705 41.3372 7.48856 41.1647 7.36113C40.9923 7.23369 40.8496 7.07049 40.7464 6.88253C40.1464 5.90395 39.4793 4.96824 38.7497 4.08207C38.06 5.38368 37.2167 6.59777 36.238 7.69869H41.3743C41.5086 7.68693 41.6439 7.70491 41.7705 7.75142C41.8971 7.79794 42.0118 7.87193 42.1065 7.96788C42.2013 8.06383 42.2737 8.17953 42.3186 8.30667C42.3635 8.43381 42.3799 8.56923 42.3664 8.70341C42.3827 8.83758 42.3681 8.97362 42.324 9.10137C42.2799 9.22911 42.2072 9.3452 42.1117 9.44077C42.0161 9.53634 41.9001 9.60881 41.7723 9.65294C41.6446 9.69706 41.5085 9.71176 41.3743 9.69555H39.5157V12.2072H42.1404C42.2751 12.1884 42.4123 12.2011 42.5412 12.2443C42.6701 12.2875 42.7873 12.36 42.8834 12.4561C42.9796 12.5523 43.0521 12.6694 43.0953 12.7983C43.1385 12.9272 43.1513 13.0647 43.1325 13.1993C43.15 13.3355 43.1367 13.4737 43.0935 13.604C43.0504 13.7343 42.9786 13.8532 42.8834 13.952C42.7881 14.0509 42.672 14.127 42.5434 14.1749C42.4148 14.2229 42.2771 14.2413 42.1404 14.2289H39.5157V21.5001C40.3948 21.2992 41.2864 21.0732 42.0274 20.8722C42.605 20.7341 42.9692 20.8724 43.1701 21.3245C43.2386 21.4334 43.2828 21.5559 43.2995 21.6835C43.3162 21.8111 43.305 21.9408 43.2668 22.0637C43.2287 22.1866 43.1644 22.2997 43.0783 22.3954C42.9922 22.4911 42.8865 22.5671 42.7683 22.618ZM33.2994 20.1063C33.1361 18.8505 32.9101 17.4061 32.7092 16.1126C32.6625 15.9032 32.6976 15.6838 32.8073 15.4994C32.917 15.315 33.093 15.1797 33.2994 15.1208C33.5083 15.0514 33.7355 15.0618 33.9372 15.1499C34.1389 15.238 34.3008 15.3975 34.3919 15.5978C35.0358 16.8777 35.5208 18.2314 35.8362 19.629C35.8961 19.7975 35.9169 19.9776 35.8971 20.1554C35.8773 20.3332 35.8174 20.504 35.7218 20.6552C35.6263 20.8064 35.4976 20.9338 35.3455 21.028C35.1935 21.1222 35.022 21.1805 34.8441 21.1988C34.6673 21.2621 34.4778 21.2816 34.2918 21.2552C34.1059 21.2287 33.9292 21.1574 33.7771 21.0473C33.6249 20.9372 33.502 20.7916 33.4187 20.6233C33.3355 20.4549 33.2945 20.2689 33.2994 20.0812V20.1063ZM42.8813 16.6277C42.5384 17.8818 42.0406 19.0881 41.3994 20.2192C41.3022 20.4151 41.1315 20.5647 40.9244 20.6352C40.7174 20.7058 40.491 20.6917 40.2943 20.596C40.0991 20.51 39.9432 20.354 39.8572 20.1588C39.7712 19.9635 39.7614 19.7434 39.8297 19.5413C40.1092 18.4231 40.3314 17.2912 40.4953 16.1503C40.4952 15.9662 40.5392 15.7848 40.6234 15.6211C40.7077 15.4575 40.8299 15.3163 40.9798 15.2094C41.1297 15.1025 41.303 15.0331 41.4852 15.0067C41.6674 14.9804 41.8533 14.9979 42.0274 15.0579C42.1968 15.082 42.3583 15.1448 42.4992 15.2419C42.6401 15.339 42.7565 15.4677 42.8393 15.6175C42.9221 15.7672 42.969 15.934 42.9763 16.105C42.9836 16.2759 42.9511 16.4463 42.8813 16.6026V16.6277ZM57.1098 26.1592C56.945 26.3923 56.7281 26.5839 56.4763 26.7184C56.2244 26.8529 55.9447 26.9269 55.6593 26.9343C55.3739 26.9416 55.0908 26.8822 54.8324 26.7607C54.5741 26.6393 54.3476 26.459 54.1711 26.2346C50.8934 23.183 49.2483 18.3732 48.7837 13.0359H47.3018V22.5928C48.0427 22.417 48.7334 22.2536 49.3864 22.0778C49.5914 22.0123 49.8131 22.0221 50.0115 22.1054C50.2099 22.1887 50.3722 22.3403 50.469 22.5324C50.5659 22.7246 50.591 22.9449 50.5399 23.1539C50.4887 23.363 50.3648 23.5469 50.1902 23.6727C48.0507 24.9832 45.7205 25.9534 43.2832 26.5486C42.2032 26.8625 41.3492 26.5488 41.0855 25.4939C41.0095 25.2706 40.988 25.0321 41.0226 24.7988C41.0573 24.5655 41.1471 24.3438 41.2846 24.1522C41.4222 23.9606 41.6035 23.8046 41.8135 23.6972C42.0235 23.5898 42.2561 23.5341 42.492 23.5347L43.9739 23.271V3.06479C43.9453 2.83698 43.9691 2.60561 44.0436 2.38843C44.1181 2.17125 44.2412 1.97407 44.4036 1.81173C44.5659 1.64938 44.7632 1.52625 44.9803 1.45178C45.1975 1.37731 45.4289 1.35331 45.6567 1.38188H54.3469C54.5728 1.35745 54.8013 1.38436 55.0152 1.46067C55.2292 1.53699 55.4232 1.66093 55.5826 1.82276C55.742 1.9846 55.8628 2.18039 55.9359 2.39549C56.009 2.61058 56.0325 2.83932 56.0046 3.06479V11.3533C56.0308 11.5773 56.0059 11.8044 55.9318 12.0174C55.8578 12.2304 55.7365 12.4239 55.577 12.5834C55.4175 12.7429 55.2241 12.8641 55.011 12.9381C54.798 13.0122 54.5709 13.0369 54.3469 13.0108H50.6674C50.917 14.5638 51.3382 16.0844 51.9232 17.5444C52.6494 16.7669 53.305 15.9264 53.8823 15.0328C53.9798 14.8315 54.123 14.6558 54.3006 14.5198C54.4782 14.3839 54.6853 14.2916 54.905 14.25C55.1248 14.2085 55.3512 14.2192 55.5661 14.281C55.7811 14.3428 55.9786 14.4539 56.1428 14.6057C56.3399 14.7302 56.5023 14.9028 56.6148 15.107C56.7274 15.3112 56.7865 15.5407 56.7865 15.7738C56.7865 16.007 56.7274 16.2362 56.6148 16.4404C56.5023 16.6446 56.3399 16.8171 56.1428 16.9417C55.1634 17.8862 54.0506 18.6815 52.8399 19.3025C53.7897 20.9409 55.0733 22.3614 56.6074 23.4719C56.8347 23.5965 57.0314 23.7701 57.1832 23.9802C57.335 24.1903 57.4381 24.4317 57.485 24.6866C57.5319 24.9415 57.5214 25.2036 57.4543 25.454C57.3872 25.7044 57.2652 25.937 57.0972 26.1343L57.1098 26.1592ZM47.3018 6.22948H52.6892V3.71784C52.691 3.67284 52.6834 3.62794 52.667 3.586C52.6506 3.54406 52.6257 3.50594 52.5939 3.47409C52.5621 3.44225 52.5239 3.41723 52.482 3.40082C52.4401 3.3844 52.3952 3.37697 52.3502 3.37874H47.6534C47.6078 3.37705 47.5624 3.38453 47.5198 3.40082C47.4772 3.4171 47.4383 3.44182 47.4055 3.47348C47.3727 3.50514 47.3465 3.5431 47.3287 3.58508C47.3109 3.62706 47.3018 3.67223 47.3018 3.71784V6.22948ZM47.3018 11.0768H52.3251C52.3707 11.0768 52.4158 11.0679 52.4578 11.0501C52.4997 11.0323 52.5377 11.006 52.5694 10.9731C52.601 10.9403 52.6258 10.9014 52.642 10.8588C52.6583 10.8162 52.6658 10.771 52.6641 10.7254V8.21377H47.3018V11.0768Z" fill="#594A39"/>
<path d="M65.6735 19.0623C65.7819 21.0847 65.7356 23.1126 65.5353 25.128C65.5197 25.3666 65.4467 25.5977 65.3223 25.8019C65.198 26.0061 65.0261 26.1773 64.8213 26.3007C64.6165 26.4241 64.3848 26.496 64.1461 26.5104C63.9075 26.5249 63.6688 26.4816 63.4506 26.3838C62.3957 26.0699 62.1948 25.3036 62.5339 24.3367C63.2089 22.5388 63.6888 20.6738 63.9655 18.7735C63.9699 18.6572 63.9983 18.5431 64.049 18.4384C64.0997 18.3336 64.1716 18.2404 64.2601 18.1649C64.3486 18.0893 64.4519 18.0332 64.5633 17.9996C64.6747 17.966 64.7918 17.9559 64.9074 17.9699C65.3594 18.0327 65.6483 18.3967 65.6735 19.0623ZM64.6311 14.3655C65.7196 12.9401 66.7098 11.4421 67.5948 9.88216C66.5905 10.2387 65.5624 10.5242 64.5181 10.7363C64.3006 10.8133 64.0678 10.8362 63.8394 10.8038C63.611 10.7714 63.3939 10.6844 63.2064 10.5499C63.019 10.4155 62.8668 10.2377 62.7629 10.0318C62.6589 9.82589 62.6062 9.59803 62.6093 9.36739C62.5213 8.28738 63.0613 7.6594 64.1539 7.72219H64.2669C65.0528 5.71317 65.6702 3.6424 66.113 1.53108C66.1466 1.28754 66.2345 1.05465 66.37 0.84952C66.5056 0.644388 66.6853 0.472279 66.8962 0.345782C67.107 0.219285 67.3435 0.141654 67.5883 0.118594C67.8331 0.0955337 68.0799 0.127514 68.3107 0.212412C68.5294 0.244582 68.7378 0.326441 68.9199 0.451864C69.1019 0.577288 69.2528 0.743071 69.3607 0.93598C69.4687 1.12889 69.5309 1.34405 69.5426 1.56481C69.5544 1.78557 69.5153 2.00601 69.4283 2.20928C68.6535 4.19423 67.6143 6.06545 66.339 7.77247C67.1176 7.77247 67.9088 7.77247 68.7125 7.77247C69.1395 6.91852 69.5037 6.06456 69.8553 5.26083C69.916 5.03321 70.0276 4.82222 70.1817 4.64396C70.3357 4.4657 70.5282 4.32468 70.7446 4.23159C70.961 4.13849 71.1957 4.09574 71.431 4.1065C71.6664 4.11726 71.8962 4.18137 72.1033 4.29383C72.3311 4.36788 72.538 4.49511 72.7068 4.66512C72.8756 4.83512 73.0014 5.04289 73.0739 5.27126C73.1463 5.49962 73.1632 5.74205 73.1233 5.97827C73.0834 6.21449 72.9876 6.43794 72.8441 6.62979C71.3052 9.43476 69.3632 11.9986 67.08 14.2398C68.0846 14.1268 69.1144 14.014 70.0563 13.8759L69.7046 12.8083C69.6089 12.6117 69.5948 12.3853 69.6653 12.1783C69.7359 11.9713 69.8855 11.8003 70.0814 11.703C70.4833 11.5021 70.8223 11.6152 71.1614 12.0421C72.0358 13.1256 72.7544 14.3262 73.2963 15.6088C73.3959 15.7798 73.4536 15.972 73.4648 16.1695C73.4761 16.3671 73.4404 16.5644 73.3608 16.7456C73.2813 16.9268 73.16 17.0869 73.0069 17.2123C72.8539 17.3377 72.6733 17.425 72.48 17.4674C72.3134 17.5524 72.1285 17.5953 71.9415 17.5922C71.7545 17.589 71.5712 17.5401 71.4076 17.4496C71.2439 17.3591 71.105 17.2298 71.003 17.0731C70.9009 16.9164 70.8389 16.7369 70.8223 16.5506C70.7344 16.1739 70.6214 15.8347 70.5335 15.4705C68.6172 16.3428 66.6246 17.0367 64.5809 17.5428C64.3639 17.6354 64.1279 17.6748 63.8925 17.6578C63.6572 17.6408 63.4293 17.5678 63.2278 17.445C63.0264 17.3221 62.8572 17.1531 62.7343 16.9517C62.6114 16.7502 62.5384 16.5223 62.5213 16.287C62.4579 16.0569 62.4531 15.8146 62.5072 15.5821C62.5613 15.3496 62.6726 15.1345 62.8311 14.956C62.9896 14.7776 63.1902 14.6414 63.4146 14.5602C63.6391 14.479 63.8803 14.4554 64.1163 14.4912L64.6311 14.3655ZM69.5413 23.9099C69.7046 24.9145 69.3153 25.4795 68.2855 25.5925C68.0845 25.6467 67.8731 25.6503 67.6705 25.6026C67.4678 25.5549 67.2803 25.4572 67.1246 25.319C66.9689 25.1807 66.85 25.006 66.7787 24.8104C66.7073 24.6148 66.6856 24.4047 66.7157 24.1987C66.7157 22.4029 66.6279 20.3181 66.4646 18.7232C66.4646 18.2083 66.6279 17.8692 67.0925 17.7813C67.5572 17.6934 67.8586 17.9195 68.0344 18.4092C68.694 20.1841 69.2023 22.0116 69.5539 23.8722L69.5413 23.9099ZM72.6432 21.9507C72.7404 22.1196 72.7968 22.3087 72.8082 22.5032C72.8196 22.6977 72.7856 22.8923 72.7089 23.0713C72.6321 23.2504 72.5147 23.4093 72.366 23.5352C72.2173 23.6611 72.0414 23.7506 71.8521 23.7967C71.6819 23.8813 71.4937 23.9228 71.3038 23.9182C71.1139 23.9135 70.9279 23.8626 70.7621 23.7698C70.5963 23.677 70.4557 23.5454 70.3524 23.3859C70.249 23.2265 70.1862 23.0441 70.1692 22.8549C69.8544 21.2798 69.4348 19.7276 68.9134 18.2084C68.8655 18.1117 68.838 18.0059 68.8324 17.8981C68.8268 17.7903 68.8434 17.6826 68.8811 17.5814C68.9187 17.4803 68.9766 17.388 69.0513 17.3101C69.126 17.2321 69.2158 17.1702 69.3153 17.1283C69.7423 16.9525 70.0563 17.1284 70.3702 17.5302C71.3286 18.8754 72.0977 20.3459 72.6558 21.9004L72.6432 21.9507ZM87.8386 23.1186C87.6761 23.3035 87.472 23.4472 87.2431 23.538C87.0142 23.6287 86.767 23.664 86.5219 23.6407C86.2768 23.6174 86.0407 23.5362 85.833 23.404C85.6252 23.2718 85.4518 23.0922 85.327 22.88C84.2468 21.5967 83.0982 20.3727 81.8861 19.2131V23.8219C81.8861 26.9866 78.7967 27.878 74.5772 25.8562C74.3622 25.7743 74.1879 25.6117 74.0916 25.4027C73.9953 25.1937 73.9848 24.9552 74.0623 24.7386C74.0926 24.6261 74.1452 24.5209 74.2171 24.4293C74.2889 24.3376 74.3785 24.2614 74.4804 24.2051C74.5824 24.1489 74.6948 24.1137 74.8107 24.1018C74.9265 24.0899 75.0436 24.1015 75.1549 24.1358C78.0056 24.5126 78.4074 24.3368 78.4074 22.88V19.8033C77.3808 20.8598 76.2296 21.7875 74.9791 22.5661C74.8071 22.7112 74.6029 22.8127 74.3835 22.8625C74.1641 22.9124 73.9359 22.909 73.7182 22.8524C73.5004 22.7958 73.2994 22.6879 73.132 22.5376C72.9647 22.3872 72.8358 22.1989 72.7562 21.9884C72.6504 21.7883 72.5911 21.5668 72.5825 21.3406C72.574 21.1144 72.6166 20.8889 72.7071 20.6814C72.7976 20.4739 72.9336 20.2895 73.1052 20.1418C73.2768 19.9941 73.4794 19.8871 73.6981 19.8285C75.3489 19.2358 76.9285 18.4607 78.4074 17.5176V11.9796H73.0702C72.936 11.9958 72.8 11.9811 72.6722 11.937C72.5445 11.8928 72.4284 11.8204 72.3328 11.7248C72.2372 11.6292 72.1647 11.5132 72.1206 11.3854C72.0764 11.2577 72.0619 11.1216 72.0781 10.9874C72.0623 10.8528 72.077 10.7162 72.1211 10.588C72.1652 10.4597 72.2376 10.3432 72.3328 10.2467C72.4281 10.1502 72.5438 10.0762 72.6715 10.0306C72.7991 9.98487 72.9353 9.96862 73.0702 9.98273H80.5423L80.9693 8.36267H76.8376C76.7857 8.58002 76.6884 8.78384 76.552 8.96084C76.4156 9.13785 76.2433 9.28418 76.0463 9.38977C75.8494 9.49536 75.6323 9.55778 75.4094 9.57342C75.1864 9.58906 74.9628 9.55758 74.753 9.48052C74.5588 9.45351 74.3735 9.38137 74.2122 9.26989C74.0508 9.15841 73.9178 9.01064 73.8238 8.83851C73.7298 8.66638 73.6774 8.47468 73.6709 8.27866C73.6643 8.08265 73.7037 7.88765 73.786 7.70962C74.439 5.65008 75.0419 3.02561 75.4688 1.31769C75.517 1.12431 75.6033 0.942509 75.7228 0.782989C75.8422 0.623469 75.9923 0.489337 76.1644 0.388705C76.3364 0.288074 76.5268 0.222731 76.7244 0.196776C76.9219 0.170821 77.1227 0.18476 77.3149 0.237553C78.2316 0.413368 78.7214 1.00365 78.5707 1.85761C78.5649 1.94542 78.5649 2.03347 78.5707 2.12128H82.0745C82.3022 1.79014 82.6293 1.53978 83.0085 1.40661C83.3877 1.27343 83.7994 1.26422 84.1842 1.38024C85.1889 1.60629 85.7038 2.32224 85.4401 3.7162C85.1763 5.11016 84.3852 7.96087 83.7824 9.9953H87.261C87.3963 9.98156 87.533 9.99811 87.6611 10.0437C87.7893 10.0894 87.9056 10.1628 88.0018 10.259C88.098 10.3552 88.1716 10.4718 88.2172 10.5999C88.2628 10.728 88.2794 10.8647 88.2656 11C88.2798 11.1349 88.2634 11.2709 88.2177 11.3986C88.172 11.5262 88.0981 11.6421 88.0017 11.7374C87.9052 11.8326 87.7886 11.9049 87.6603 11.9489C87.5321 11.993 87.3957 12.008 87.261 11.9922H82.0493V16.8772C82.8966 15.7936 83.6408 14.6332 84.2722 13.4111C84.354 13.209 84.4818 13.0289 84.6453 12.8847C84.8088 12.7404 85.0035 12.6362 85.2142 12.5802C85.4249 12.5242 85.6458 12.5179 85.8593 12.5618C86.0729 12.6058 86.2733 12.6988 86.4447 12.8335C86.6415 12.9347 86.8103 13.083 86.9361 13.2652C87.0618 13.4473 87.1406 13.6575 87.1655 13.8774C87.1904 14.0974 87.1605 14.3203 87.0786 14.5259C86.9967 14.7315 86.8652 14.9137 86.6959 15.0563C85.789 16.0519 84.7643 16.9331 83.6442 17.6808C85.0749 18.4712 86.4323 19.3876 87.7005 20.4187C87.9245 20.5552 88.1119 20.744 88.2467 20.969C88.3815 21.194 88.4598 21.4482 88.4746 21.71C88.4894 21.9719 88.4405 22.2335 88.3319 22.4722C88.2233 22.711 88.0583 22.9199 87.8512 23.0808L87.8386 23.1186ZM73.4218 14.0893C73.3525 14.0052 73.3003 13.9084 73.2685 13.8041C73.2366 13.6999 73.2256 13.5904 73.2361 13.4819C73.2466 13.3734 73.2784 13.2681 73.3296 13.1719C73.3809 13.0758 73.4507 12.9907 73.5349 12.9215C73.7064 12.7943 73.9169 12.7309 74.1302 12.7424C74.3434 12.7539 74.5459 12.8392 74.7028 12.984C75.6603 13.7173 76.5286 14.5602 77.2898 15.4956C77.4001 15.6508 77.4772 15.8272 77.5162 16.0135C77.5552 16.1998 77.5552 16.3922 77.5164 16.5785C77.4775 16.7649 77.4006 16.9412 77.2903 17.0964C77.1801 17.2516 77.0389 17.3825 76.8757 17.4806C76.7126 17.5786 76.5309 17.6418 76.3421 17.6663C76.1533 17.6909 75.9615 17.6762 75.7787 17.6231C75.5959 17.57 75.426 17.4795 75.2797 17.3576C75.1335 17.2357 75.0141 17.0851 74.9288 16.9149C74.4516 15.9479 73.9116 14.9181 73.4218 14.0893ZM81.434 6.42866C81.6224 5.65005 81.7982 4.94701 81.9112 4.45724C81.974 4.2312 81.8233 4.08044 81.5972 4.08044H77.9805C77.8047 4.85904 77.5786 5.65005 77.3777 6.42866H81.434Z" fill="#594A39"/>
<path d="M118.518 24.564C118.535 24.7283 118.513 24.8941 118.454 25.0484C118.395 25.2028 118.301 25.3413 118.178 25.4525C118.056 25.5637 117.91 25.6444 117.75 25.6886C117.591 25.7328 117.424 25.739 117.262 25.7067H94.8707C94.7147 25.7265 94.5564 25.7108 94.4074 25.6607C94.2584 25.6107 94.1227 25.5275 94.0103 25.4176C93.898 25.3077 93.8121 25.1739 93.7588 25.0261C93.7055 24.8782 93.6863 24.7203 93.7027 24.564C93.675 24.4005 93.6852 24.2327 93.7327 24.0738C93.7802 23.9149 93.8637 23.769 93.9766 23.6476C94.0896 23.5262 94.229 23.4324 94.384 23.3735C94.539 23.3146 94.7056 23.2924 94.8707 23.3082H104.54V16.8782H97.8092C97.5284 16.8487 97.2685 16.7162 97.0795 16.5063C96.8906 16.2965 96.7861 16.0241 96.7861 15.7417C96.7861 15.4593 96.8906 15.1869 97.0795 14.977C97.2685 14.7672 97.5284 14.6347 97.8092 14.6051H104.54V9.29305H99.5172C98.498 11.3273 97.1147 13.1575 95.4358 14.6931C94.9837 15.0824 94.519 15.1705 94.18 14.8314C94.001 14.6798 93.8859 14.4659 93.858 14.2329C93.83 14 93.8912 13.7653 94.0292 13.5756C96.0321 10.3922 97.3454 6.82416 97.8846 3.10194C97.8912 2.83291 97.9595 2.56902 98.0842 2.33054C98.2089 2.09206 98.3867 1.88517 98.6038 1.72624C98.821 1.56731 99.0718 1.46056 99.3368 1.41382C99.6019 1.36708 99.8741 1.38169 100.133 1.45674C101.388 1.65767 101.903 2.51154 101.589 3.88039C101.327 4.97338 100.991 6.04752 100.585 7.09536H104.553V1.97152C104.553 0.803605 105.244 0.175781 106.487 0.175781C107.73 0.175781 108.459 0.803605 108.459 1.97152V6.9948H115.843C115.996 6.97831 116.151 6.99677 116.295 7.04876C116.44 7.10074 116.571 7.18494 116.679 7.29496C116.787 7.40498 116.868 7.53806 116.917 7.68403C116.965 7.82999 116.98 7.98519 116.96 8.13779C116.974 8.28845 116.954 8.44009 116.903 8.58236C116.851 8.72462 116.77 8.85408 116.663 8.96162C116.557 9.06915 116.428 9.15214 116.287 9.20505C116.145 9.25796 115.994 9.27941 115.843 9.26791H108.459V14.58H115.052C115.333 14.6096 115.592 14.742 115.781 14.9519C115.97 15.1618 116.075 15.4342 116.075 15.7166C116.075 15.9989 115.97 16.2713 115.781 16.4812C115.592 16.6911 115.333 16.8235 115.052 16.8531H108.459V23.3833H117.375C117.53 23.3756 117.685 23.4013 117.83 23.4584C117.975 23.5156 118.106 23.603 118.214 23.7147C118.322 23.8265 118.405 23.9601 118.457 24.1066C118.51 24.253 118.53 24.409 118.518 24.564Z" fill="#594A39"/>
<path d="M126.845 11.3892C125.991 10.2464 124.849 8.87758 123.97 7.93571C123.797 7.77718 123.692 7.55878 123.676 7.32528C123.66 7.09178 123.733 6.86088 123.882 6.67989C124.028 6.49553 124.238 6.37278 124.471 6.33559C124.703 6.2984 124.941 6.34958 125.138 6.47907C126.607 7.17099 127.986 8.03983 129.244 9.06614C129.473 9.19453 129.667 9.37697 129.809 9.59747C129.951 9.81797 130.037 10.0698 130.059 10.3312C130.081 10.5925 130.039 10.8554 129.936 11.0967C129.834 11.3381 129.674 11.5505 129.47 11.7157C129.304 11.9216 129.087 12.0818 128.842 12.1809C128.596 12.2799 128.33 12.3147 128.067 12.282C127.804 12.2493 127.554 12.1503 127.341 11.9941C127.127 11.8379 126.956 11.6296 126.845 11.3892ZM130.776 14.6922C130.199 18.0431 129.359 21.3437 128.265 24.5631C127.725 26.0198 126.67 26.4719 125.477 25.8189C124.284 25.1659 124.083 24.1611 124.824 22.9053C126.429 20.0709 127.847 17.1344 129.068 14.1146C129.1 13.997 129.155 13.8869 129.23 13.7911C129.305 13.6953 129.399 13.6158 129.506 13.5572C129.613 13.4985 129.73 13.462 129.851 13.4499C129.972 13.4377 130.095 13.4503 130.211 13.4866C130.446 13.5717 130.637 13.7462 130.743 13.9723C130.849 14.1984 130.861 14.4574 130.776 14.6922ZM130.299 5.48693C129.407 6.366 128.478 6.25298 127.674 5.17297C126.871 4.09297 125.816 2.83723 124.911 1.80746C124.756 1.64077 124.665 1.42396 124.655 1.19611C124.646 0.968252 124.718 0.744549 124.86 0.565437C125.001 0.386325 125.201 0.263567 125.425 0.219596C125.649 0.175624 125.881 0.213299 126.079 0.325678C127.501 0.975199 128.824 1.82063 130.01 2.83732C131.015 3.69128 131.191 4.63297 130.299 5.48693ZM149.425 9.7569C149.443 9.90688 149.427 10.0589 149.378 10.2018C149.329 10.3446 149.248 10.4745 149.142 10.5819C149.036 10.6894 148.907 10.7714 148.764 10.822C148.622 10.8727 148.47 10.8906 148.32 10.8744H141.953V14.9181H146.26C146.486 14.8937 146.715 14.9206 146.929 14.9969C147.143 15.0733 147.337 15.1972 147.496 15.359C147.655 15.5209 147.776 15.7167 147.849 15.9318C147.922 16.1468 147.946 16.3756 147.918 16.6011V25.2409C147.918 26.3837 147.29 26.8987 146.147 26.8987C145.005 26.8987 144.352 26.3837 144.352 25.2409V24.701H135.938V25.3038C135.938 26.4466 135.31 26.949 134.167 26.949C133.024 26.949 132.371 26.4466 132.371 25.3038V16.6011C132.347 16.3743 132.375 16.1448 132.451 15.9299C132.527 15.715 132.65 15.52 132.812 15.3587C132.973 15.1975 133.168 15.0744 133.383 14.9982C133.598 14.922 133.827 14.8945 134.054 14.9181H138.273V10.8744H131.994C131.847 10.8822 131.7 10.8582 131.563 10.8042C131.426 10.7503 131.302 10.6677 131.2 10.5617C131.097 10.4558 131.019 10.329 130.97 10.1901C130.92 10.0513 130.902 9.90367 130.914 9.7569C130.899 9.61019 130.916 9.46173 130.965 9.32245C131.013 9.18317 131.092 9.05634 131.195 8.95086C131.298 8.84537 131.423 8.76404 131.561 8.71232C131.699 8.66061 131.847 8.63977 131.994 8.65162H138.273V4.99729C136.39 5.19822 134.506 5.31127 132.949 5.33639C132.346 5.33639 131.982 5.05995 131.944 4.54506C131.924 4.42524 131.93 4.30252 131.963 4.18542C131.995 4.06832 132.053 3.95975 132.132 3.86748C132.211 3.77522 132.31 3.70164 132.42 3.65164C132.531 3.60163 132.651 3.57635 132.773 3.57806C136.885 3.06282 140.904 1.97675 144.716 0.350819C145.896 -0.164067 146.913 0.0995693 147.34 1.20469C147.456 1.4398 147.514 1.69905 147.511 1.96106C147.507 2.22308 147.441 2.4803 147.318 2.71192C147.196 2.94354 147.02 3.14297 146.806 3.29353C146.591 3.4441 146.344 3.54147 146.085 3.57806C144.734 3.95567 143.363 4.2575 141.978 4.48221V8.65162H148.345C148.492 8.63977 148.64 8.66061 148.778 8.71232C148.916 8.76404 149.041 8.84537 149.144 8.95086C149.247 9.05634 149.326 9.18317 149.375 9.32245C149.423 9.46173 149.44 9.61019 149.425 9.7569ZM136.214 17.0281C136.168 17.0281 136.123 17.037 136.081 17.0548C136.039 17.0726 136.001 17.0989 135.97 17.1318C135.938 17.1646 135.913 17.2035 135.897 17.2461C135.881 17.2887 135.873 17.3339 135.875 17.3795V22.6165H144.289V17.3795C144.29 17.3339 144.283 17.2887 144.267 17.2461C144.25 17.2035 144.226 17.1646 144.194 17.1318C144.162 17.0989 144.124 17.0726 144.082 17.0548C144.04 17.037 143.995 17.0281 143.95 17.0281H136.214Z" fill="#594A39"/>
<path d="M173.562 14.9564V23.7471C173.562 26.4345 170.736 27.3765 167.283 25.744C167.08 25.6648 166.915 25.5123 166.819 25.3169C166.724 25.1215 166.706 24.8973 166.768 24.689C166.881 24.2117 167.195 24.036 167.772 24.0988C169.732 24.375 170.159 24.0987 170.159 23.408V16.6518C169.806 16.8207 169.446 16.9714 169.079 17.1038C167.94 17.5642 167.199 17.2503 166.856 16.1619C166.754 15.9409 166.707 15.6986 166.719 15.4555C166.731 15.2123 166.801 14.9758 166.925 14.766C167.048 14.5561 167.221 14.3792 167.427 14.2506C167.634 14.1219 167.869 14.0452 168.112 14.0271C168.802 13.8889 169.48 13.7133 170.133 13.55V8.52671H167.999C167.865 8.54049 167.73 8.52418 167.603 8.47919C167.477 8.4342 167.362 8.36144 167.267 8.26641C167.172 8.17139 167.099 8.0564 167.054 7.92977C167.009 7.80314 166.993 7.66824 167.006 7.53457C166.993 7.4004 167.009 7.26497 167.054 7.13783C167.099 7.01069 167.172 6.89499 167.266 6.79904C167.361 6.7031 167.476 6.6291 167.602 6.58258C167.729 6.53607 167.864 6.5181 167.999 6.52985H170.121V1.65711C170.121 0.665011 170.724 0.112475 171.841 0.112475C172.959 0.112475 173.549 0.665011 173.549 1.65711V6.52985H175.345C175.48 6.51574 175.616 6.53199 175.744 6.57768C175.871 6.62337 175.987 6.69736 176.082 6.79383C176.178 6.8903 176.25 7.00686 176.294 7.13507C176.338 7.26329 176.353 7.39991 176.337 7.53457C176.353 7.66874 176.339 7.80479 176.295 7.93253C176.251 8.06027 176.178 8.17637 176.082 8.27193C175.987 8.3675 175.871 8.43997 175.743 8.4841C175.615 8.52823 175.479 8.54292 175.345 8.52671H173.549V12.4321C174.152 12.2061 174.805 11.98 175.32 11.7288C175.835 11.4776 176.224 11.6032 176.45 12.0428C176.513 12.1332 176.555 12.2361 176.575 12.3441C176.595 12.4522 176.592 12.5633 176.566 12.6701C176.54 12.7768 176.491 12.8768 176.424 12.9635C176.356 13.0502 176.271 13.1217 176.174 13.1732C175.383 13.8137 174.504 14.3661 173.562 14.9564ZM182.88 1.58199V11.528C182.88 19.5401 181.197 24.0863 175.533 26.7235C175.432 26.7924 175.318 26.8391 175.198 26.8606C175.077 26.8821 174.954 26.8777 174.835 26.848C174.716 26.8184 174.605 26.7642 174.509 26.6886C174.413 26.613 174.334 26.5179 174.278 26.4096C174.211 26.308 174.166 26.1935 174.145 26.0735C174.125 25.9536 174.129 25.8307 174.159 25.7127C174.188 25.5946 174.242 25.4839 174.317 25.3877C174.391 25.2915 174.485 25.2119 174.592 25.1538C177.819 22.6421 179.012 20.3941 179.389 15.9108C178.643 16.5864 177.85 17.2075 177.015 17.7694C176.852 17.9079 176.658 18.0052 176.449 18.0527C176.241 18.1002 176.024 18.0965 175.817 18.0422C175.61 17.988 175.419 17.8849 175.26 17.7412C175.101 17.5975 174.98 17.4176 174.906 17.2169C174.785 17.0306 174.71 16.8187 174.687 16.5982C174.663 16.3776 174.691 16.1546 174.769 15.947C174.848 15.7394 174.973 15.553 175.137 15.4028C175.3 15.2525 175.496 15.1428 175.709 15.0821C176.997 14.511 178.255 13.8739 179.477 13.1732C179.477 12.5704 179.477 11.9802 179.477 11.3523V10.8121C179.388 10.8729 179.291 10.9197 179.188 10.9504C179.007 11.0563 178.803 11.1153 178.594 11.1224C178.385 11.1294 178.178 11.0841 177.99 10.9905C177.803 10.8969 177.642 10.7583 177.523 10.5867C177.403 10.4152 177.328 10.2164 177.304 10.0085C176.86 8.33636 176.328 6.68901 175.709 5.07321C175.617 4.87605 175.605 4.65077 175.675 4.44469C175.745 4.2386 175.892 4.06759 176.086 3.96793C176.179 3.90383 176.284 3.85882 176.394 3.83548C176.505 3.81214 176.619 3.81108 176.73 3.83211C176.841 3.85313 176.946 3.89598 177.041 3.95812C177.135 4.02026 177.216 4.10022 177.279 4.19389C178.138 5.30021 178.875 6.49609 179.477 7.76053V1.54428C179.477 0.564742 180.042 0.0625 181.134 0.0625C182.227 0.0625 182.88 0.552221 182.88 1.58199ZM190.415 26.0705C189.287 26.1836 188.152 26.1836 187.024 26.0705C184.801 25.8947 184.236 25.2416 184.236 22.9309V1.58199C184.236 0.602454 184.801 0.0999048 185.881 0.0999048C186.961 0.0999048 187.539 0.602454 187.539 1.58199V7.62225C188.054 6.73614 188.519 5.82226 188.933 4.88465C189.014 4.68785 189.135 4.51038 189.289 4.36344C189.443 4.2165 189.626 4.10341 189.826 4.0317C190.027 3.96 190.24 3.93117 190.452 3.94708C190.664 3.96299 190.871 4.02321 191.058 4.12399C191.246 4.22476 191.41 4.36382 191.54 4.53207C191.67 4.70031 191.764 4.89414 191.814 5.1008C191.865 5.30747 191.872 5.52237 191.834 5.73178C191.796 5.94119 191.715 6.14046 191.595 6.31646C190.46 7.95637 189.094 9.42399 187.539 10.6741V12.4447C188.961 13.1046 190.319 13.8951 191.595 14.8058C191.813 14.9239 191.999 15.092 192.138 15.2964C192.278 15.5007 192.367 15.7355 192.397 15.981C192.428 16.2265 192.4 16.4758 192.315 16.7082C192.23 16.9407 192.091 17.1495 191.909 17.3175C191.768 17.4975 191.587 17.6419 191.379 17.7387C191.172 17.8356 190.945 17.8822 190.716 17.8748C190.487 17.8675 190.264 17.8063 190.063 17.6964C189.862 17.5865 189.69 17.4308 189.561 17.242C188.935 16.4391 188.26 15.6757 187.539 14.9564V22.2025C187.539 22.8806 187.652 23.0815 188.28 23.1443C188.719 23.1874 189.16 23.1874 189.599 23.1443C190.277 23.1443 190.39 22.6293 190.365 19.5903C190.352 19.4787 190.363 19.3658 190.398 19.2591C190.433 19.1525 190.491 19.0548 190.567 18.9725C190.644 18.8902 190.737 18.8253 190.841 18.7824C190.944 18.7395 191.056 18.7195 191.168 18.7238C191.397 18.72 191.617 18.8039 191.786 18.9581C191.954 19.1122 192.057 19.3249 192.073 19.5525C192.977 24.1363 192.437 25.8444 190.377 26.0705H190.415Z" fill="#594A39"/>
<path d="M206.979 21.5368V25.4174C206.979 26.4723 206.351 27.0123 205.22 27.0123C204.09 27.0123 203.45 26.4723 203.45 25.4174V21.5368H198.54C198.403 21.5469 198.267 21.527 198.139 21.4782C198.012 21.4295 197.896 21.353 197.802 21.2547C197.707 21.1564 197.635 21.0384 197.591 20.9092C197.547 20.7799 197.532 20.6426 197.547 20.5069C197.531 20.3728 197.546 20.2367 197.59 20.109C197.634 19.9812 197.707 19.8651 197.802 19.7696C197.898 19.674 198.014 19.6015 198.141 19.5574C198.269 19.5133 198.405 19.4989 198.54 19.5151H203.45V18.1336H200.536C200.313 18.1577 200.088 18.1313 199.876 18.0563C199.665 17.9813 199.473 17.8596 199.315 17.7003C199.157 17.5411 199.037 17.3485 198.963 17.1365C198.89 16.9245 198.865 16.6986 198.891 16.4758V10.1967C198.865 9.97434 198.889 9.74904 198.963 9.53752C199.036 9.32599 199.157 9.13385 199.315 8.97553C199.473 8.8172 199.665 8.69666 199.877 8.62325C200.089 8.54984 200.314 8.5256 200.536 8.55181H209.892C210.115 8.52353 210.342 8.54647 210.555 8.61895C210.769 8.69143 210.962 8.81143 211.122 8.97001C211.282 9.12858 211.403 9.32157 211.478 9.53415C211.552 9.74672 211.576 9.97316 211.55 10.1967V16.4758C211.576 16.6998 211.551 16.9269 211.477 17.1399C211.403 17.3529 211.282 17.5464 211.122 17.7059C210.963 17.8653 210.769 17.9868 210.556 18.0609C210.343 18.135 210.116 18.1597 209.892 18.1336H206.979V19.5277H211.801C211.937 19.5102 212.075 19.5235 212.206 19.5666C212.336 19.6097 212.455 19.6814 212.554 19.7766C212.653 19.8718 212.729 19.988 212.777 20.1166C212.825 20.2452 212.843 20.3828 212.831 20.5195C212.847 20.6586 212.831 20.7996 212.785 20.9319C212.739 21.0641 212.664 21.1842 212.565 21.2832C212.466 21.3823 212.346 21.4576 212.213 21.5037C212.081 21.5497 211.94 21.5654 211.801 21.5494L206.979 21.5368ZM198.464 5.93961V2.91288C198.436 2.69237 198.459 2.46858 198.53 2.25799C198.601 2.04741 198.719 1.85561 198.875 1.69723C199.031 1.53885 199.221 1.4181 199.43 1.34372C199.64 1.26935 199.863 1.24343 200.084 1.26799H203.274C203.497 1.24219 203.723 1.26668 203.935 1.34004C204.147 1.4134 204.339 1.53369 204.499 1.69171C204.658 1.84973 204.779 2.04166 204.854 2.25309C204.929 2.46452 204.956 2.68985 204.932 2.91288V5.93961C204.955 6.16311 204.929 6.38902 204.854 6.60093C204.779 6.81285 204.658 7.00522 204.499 7.16415C204.34 7.32308 204.147 7.44458 203.935 7.5195C203.723 7.59441 203.497 7.62111 203.274 7.59737H200.084C199.862 7.62233 199.637 7.5961 199.427 7.52103C199.216 7.44597 199.025 7.324 198.869 7.16415C198.713 7.0043 198.595 6.81098 198.525 6.59879C198.455 6.38659 198.434 6.16108 198.464 5.93961ZM200.976 5.3117C200.974 5.3567 200.982 5.40159 200.998 5.44353C201.014 5.48547 201.039 5.52359 201.071 5.55544C201.103 5.58729 201.141 5.612 201.183 5.62841C201.225 5.64482 201.27 5.65256 201.315 5.65079H202.006C202.051 5.65256 202.095 5.64482 202.137 5.62841C202.179 5.612 202.217 5.58729 202.249 5.55544C202.281 5.52359 202.306 5.48547 202.322 5.44353C202.339 5.40159 202.346 5.3567 202.345 5.3117V3.54079C202.346 3.49579 202.339 3.4512 202.322 3.40926C202.306 3.36733 202.281 3.3292 202.249 3.29736C202.217 3.26551 202.179 3.24049 202.137 3.22408C202.095 3.20766 202.051 3.20024 202.006 3.202H201.315C201.27 3.20024 201.225 3.20766 201.183 3.22408C201.141 3.24049 201.103 3.26551 201.071 3.29736C201.039 3.3292 201.014 3.36733 200.998 3.40926C200.982 3.4512 200.974 3.49579 200.976 3.54079V5.3117ZM201.88 12.2941H203.688V10.4729H202.232C202.186 10.4713 202.141 10.479 202.098 10.4953C202.055 10.5116 202.017 10.536 201.984 10.5677C201.951 10.5993 201.925 10.6373 201.907 10.6793C201.889 10.7213 201.88 10.7664 201.88 10.812V12.2941ZM202.232 16.1493H203.688V14.2153H201.88V15.8102C201.879 15.8605 201.89 15.9106 201.91 15.9564C201.931 16.0023 201.962 16.0429 202 16.0754C202.039 16.1079 202.084 16.1313 202.133 16.1441C202.181 16.1569 202.232 16.1586 202.282 16.1493H202.232ZM205.848 5.93961V2.91288C205.823 2.69285 205.847 2.46992 205.919 2.26045C205.991 2.05097 206.109 1.86057 206.265 1.70275C206.42 1.54492 206.609 1.42386 206.817 1.34863C207.025 1.2734 207.248 1.24587 207.468 1.26799H210.558C210.782 1.24052 211.01 1.26366 211.224 1.33606C211.438 1.40845 211.633 1.52822 211.794 1.68619C211.956 1.84416 212.08 2.03642 212.157 2.2488C212.234 2.46117 212.263 2.68802 212.24 2.91288V5.93961C212.262 6.16494 212.234 6.39237 212.157 6.60523C212.08 6.81808 211.956 7.01079 211.795 7.16967C211.633 7.32856 211.438 7.44953 211.225 7.52348C211.011 7.59743 210.783 7.62277 210.558 7.59737H207.468C207.251 7.61191 207.033 7.5781 206.83 7.49865C206.627 7.4192 206.444 7.29581 206.294 7.13748C206.144 6.97915 206.031 6.78993 205.962 6.58285C205.894 6.37576 205.872 6.15606 205.899 5.93961H205.848ZM206.702 12.2941H208.498V10.812C208.5 10.767 208.492 10.7221 208.476 10.6802C208.46 10.6383 208.435 10.6001 208.403 10.5683C208.371 10.5365 208.333 10.5117 208.291 10.4953C208.249 10.4789 208.204 10.4712 208.159 10.4729H206.702V12.2941ZM206.702 16.1493H208.159C208.204 16.151 208.249 16.1436 208.291 16.1272C208.333 16.1108 208.371 16.0858 208.403 16.0539C208.435 16.0221 208.46 15.984 208.476 15.942C208.492 15.9001 208.5 15.8552 208.498 15.8102V14.2153H206.702V16.1493ZM208.36 5.3117C208.358 5.3567 208.366 5.40159 208.382 5.44353C208.399 5.48547 208.424 5.52359 208.455 5.55544C208.487 5.58729 208.525 5.612 208.567 5.62841C208.609 5.64482 208.654 5.65256 208.699 5.65079H209.302C209.347 5.65256 209.392 5.64482 209.434 5.62841C209.476 5.612 209.514 5.58729 209.546 5.55544C209.577 5.52359 209.602 5.48547 209.619 5.44353C209.635 5.40159 209.643 5.3567 209.641 5.3117V3.54079C209.643 3.49579 209.635 3.4512 209.619 3.40926C209.602 3.36733 209.577 3.3292 209.546 3.29736C209.514 3.26551 209.476 3.24049 209.434 3.22408C209.392 3.20766 209.347 3.20024 209.302 3.202H208.699C208.654 3.20024 208.609 3.20766 208.567 3.22408C208.525 3.24049 208.487 3.26551 208.455 3.29736C208.424 3.3292 208.399 3.36733 208.382 3.40926C208.366 3.4512 208.358 3.49579 208.36 3.54079V5.3117ZM220.303 26.8112C218.482 26.334 217.088 24.7267 216.083 22.2527C214.299 23.9918 212.185 25.3578 209.867 26.2713C209.761 26.3395 209.641 26.3835 209.516 26.4C209.391 26.4165 209.264 26.405 209.144 26.3666C209.024 26.3282 208.914 26.2637 208.822 26.1777C208.73 26.0918 208.658 25.9864 208.611 25.8693C208.551 25.7689 208.514 25.6562 208.503 25.5394C208.492 25.4226 208.508 25.3047 208.549 25.1948C208.59 25.0849 208.655 24.9858 208.74 24.9048C208.825 24.8237 208.927 24.7628 209.038 24.7266C211.396 23.4074 213.463 21.6264 215.116 19.49C214.436 16.6414 214.016 13.7367 213.861 10.812L213.094 10.9C212.957 10.9357 212.813 10.9401 212.674 10.9132C212.535 10.8863 212.403 10.8288 212.289 10.7446C212.174 10.6604 212.08 10.5518 212.013 10.4266C211.946 10.3015 211.908 10.1628 211.901 10.021C211.814 9.36799 212.128 8.96594 212.843 8.87803C213.12 8.87803 213.434 8.81543 213.722 8.7652C213.722 8.56427 213.722 8.33822 213.722 8.13729C213.634 6.25356 213.572 4.05596 213.572 1.63223C213.572 0.602457 214.112 0.125 215.179 0.125C216.247 0.125 216.824 0.639886 216.799 1.69477C216.799 4.20641 216.799 6.02738 216.887 7.68506C216.887 7.91111 216.887 8.11206 216.887 8.33811C218.482 8.07439 220.027 7.82338 221.483 7.55966C221.621 7.52269 221.764 7.5152 221.905 7.53789C222.045 7.56059 222.179 7.61284 222.298 7.69119C222.417 7.76955 222.517 7.87208 222.593 7.99227C222.669 8.11246 222.719 8.24756 222.739 8.38839C222.787 8.53275 222.8 8.68661 222.777 8.83694C222.753 8.98727 222.694 9.1298 222.604 9.25269C222.515 9.37557 222.397 9.47522 222.261 9.54334C222.125 9.61147 221.975 9.646 221.822 9.64421C220.428 9.89538 218.771 10.1592 217 10.4104C217.151 12.2062 217.352 13.889 217.578 15.4337C218.048 14.4258 218.467 13.3945 218.834 12.3441C219.235 11.2139 219.976 10.8372 220.906 11.214C221.13 11.2833 221.335 11.4026 221.506 11.5629C221.677 11.7232 221.809 11.9206 221.893 12.1396C221.976 12.3586 222.009 12.5935 221.988 12.827C221.967 13.0605 221.893 13.2863 221.772 13.4871C220.921 15.6339 219.807 17.6671 218.457 19.5402C218.683 20.8849 219.335 22.1214 220.315 23.0689C220.943 23.4958 220.994 22.667 221.019 19.6153C221.019 18.9874 221.333 18.6483 221.797 18.6483C222.262 18.6483 222.651 18.9121 222.764 19.6531C223.631 24.9903 222.865 27.4391 220.353 26.8112H220.303ZM217.653 2.71206C217.589 2.62475 217.543 2.52489 217.52 2.41896C217.496 2.31302 217.495 2.20346 217.516 2.09703C217.537 1.9906 217.581 1.88987 217.643 1.80116C217.706 1.71246 217.786 1.63775 217.879 1.58195C218.053 1.45089 218.269 1.38962 218.485 1.41056C218.701 1.43149 218.902 1.5329 219.047 1.69477C220.002 2.53419 220.846 3.4922 221.559 4.54551C221.703 4.70075 221.807 4.88844 221.863 5.09248C221.919 5.29652 221.925 5.51104 221.881 5.71794C221.836 5.92484 221.743 6.11799 221.608 6.28115C221.473 6.44432 221.301 6.57282 221.107 6.65551C220.936 6.79825 220.731 6.89299 220.512 6.93053C220.293 6.96806 220.068 6.94679 219.86 6.8689C219.652 6.79101 219.468 6.6593 219.327 6.48719C219.187 6.31507 219.094 6.10882 219.06 5.88932C218.733 4.83443 218.218 3.74183 217.703 2.71206H217.653Z" fill="#594A39"/>
<path d="M250.192 26.6736C249.042 26.3211 247.98 25.7322 247.071 24.945C246.163 24.1578 245.429 23.1895 244.917 22.1022C242.522 24.134 239.703 25.6058 236.666 26.4099C236.038 26.5857 235.649 26.4097 235.411 25.8948C235.352 25.7768 235.321 25.6475 235.318 25.5159C235.316 25.3842 235.343 25.2536 235.397 25.1335C235.451 25.0135 235.531 24.9069 235.631 24.8214C235.731 24.7359 235.849 24.6735 235.976 24.639C238.871 23.3799 241.481 21.5472 243.649 19.2515C242.508 15.4942 241.887 11.5985 241.803 7.67285H234.167C234.122 7.67109 234.077 7.67882 234.035 7.69524C233.993 7.71165 233.955 7.73636 233.924 7.76821C233.892 7.80005 233.867 7.83818 233.85 7.88011C233.834 7.92205 233.826 7.96695 233.828 8.01195V11.2898H238.965C239.199 11.266 239.436 11.2961 239.657 11.3781C239.878 11.46 240.078 11.5913 240.24 11.7622C240.403 11.9332 240.524 12.1391 240.594 12.3641C240.665 12.5891 240.683 12.8273 240.647 13.0604C240.657 15.2578 240.552 17.4543 240.333 19.6409C240.07 21.9892 237.508 22.9814 233.966 21.2986C233.77 21.2008 233.615 21.0348 233.532 20.8314C233.449 20.628 233.442 20.401 233.514 20.1933C233.627 19.7287 233.966 19.5278 234.544 19.6157C236.566 19.8794 236.968 19.7666 237.056 18.875C237.206 17.6192 237.231 15.9991 237.257 13.8517C237.26 13.8062 237.254 13.7603 237.239 13.7174C237.223 13.6745 237.198 13.6356 237.166 13.6034C237.133 13.5711 237.095 13.5464 237.052 13.5307C237.009 13.515 236.963 13.5088 236.918 13.5126H233.841C233.753 19.641 232.673 23.9986 229.596 26.573C229.508 26.6661 229.402 26.7403 229.284 26.791C229.167 26.8417 229.04 26.868 228.912 26.868C228.784 26.868 228.657 26.8417 228.539 26.791C228.421 26.7403 228.315 26.6661 228.227 26.573C228.044 26.4088 227.931 26.1812 227.91 25.9362C227.889 25.6913 227.962 25.4473 228.114 25.2543C229.709 22.4915 230.224 20.2311 230.224 12.6961V7.3589C230.198 7.11047 230.226 6.8593 230.307 6.62307C230.389 6.38683 230.521 6.17141 230.694 5.99178C230.868 5.81216 231.079 5.67264 231.312 5.5834C231.546 5.49416 231.796 5.45724 232.045 5.47517H241.765C241.765 4.21935 241.765 2.96353 241.765 1.70771C241.765 0.451889 242.443 0.0753887 243.586 0.0753887C244.729 0.0753887 245.319 0.564913 245.319 1.70771C245.319 2.85051 245.319 4.33237 245.319 5.47517H249.476C249.212 5.30602 248.996 5.07261 248.848 4.79698C248.057 3.54116 247.278 2.39851 246.6 1.49432C246.517 1.40935 246.452 1.30764 246.411 1.196C246.37 1.08436 246.353 0.965462 246.361 0.846786C246.37 0.72811 246.403 0.612519 246.459 0.50769C246.516 0.402861 246.593 0.311036 246.688 0.238498C246.859 0.0814147 247.083 -0.00585938 247.316 -0.00585937C247.548 -0.00585938 247.772 0.0814147 247.944 0.238498C249.167 0.983997 250.289 1.88278 251.284 2.91325C251.473 3.05068 251.628 3.23122 251.734 3.43967C251.84 3.64813 251.896 3.87867 251.896 4.11265C251.896 4.34664 251.84 4.57749 251.734 4.78594C251.628 4.99439 251.473 5.17463 251.284 5.31206L251.033 5.47517H252.741C253.041 5.47517 253.328 5.59433 253.54 5.80629C253.752 6.01825 253.871 6.30583 253.871 6.60559C253.871 6.90535 253.752 7.19262 253.54 7.40458C253.328 7.61654 253.041 7.73571 252.741 7.73571H245.47C245.576 10.3977 245.89 13.0473 246.412 15.66C247.353 13.9819 248.127 12.2153 248.722 10.3856C248.814 10.1663 248.948 9.96702 249.116 9.79941C249.285 9.63179 249.484 9.49887 249.704 9.4085C249.924 9.31812 250.16 9.27205 250.397 9.27268C250.635 9.2733 250.87 9.32065 251.089 9.41218C251.309 9.50371 251.508 9.63765 251.676 9.80615C251.843 9.97465 251.976 10.1744 252.066 10.3942C252.157 10.614 252.203 10.8494 252.202 11.0871C252.202 11.3248 252.154 11.5601 252.063 11.7794C251.013 14.5719 249.511 17.1728 247.617 19.4777C248.123 20.9408 249.146 22.1688 250.493 22.9312C251.297 23.308 251.661 22.8433 251.661 18.8498C251.661 18.1968 252 17.8828 252.49 17.8828C252.979 17.8828 253.432 18.1089 253.545 18.8498C254.549 25.5559 253.268 27.5275 250.192 26.6736Z" fill="#594A39"/>
<path d="M262.284 19.1771C262.369 21.1359 262.157 23.096 261.656 24.9914C261.618 25.2253 261.524 25.4468 261.384 25.6374C261.243 25.8281 261.059 25.9826 260.846 26.0881C260.634 26.1936 260.4 26.2471 260.163 26.2442C259.926 26.2413 259.693 26.1823 259.483 26.0716C258.542 25.6446 258.29 24.8157 258.855 23.8488C259.678 22.3213 260.267 20.6785 260.601 18.976C260.714 18.3983 261.053 18.1473 261.518 18.1976C261.983 18.2478 262.246 18.5492 262.284 19.1771ZM260.764 14.1539C261.827 12.8061 262.764 11.3641 263.565 9.84618C262.614 10.1544 261.64 10.3855 260.651 10.5369C259.659 10.6751 259.006 10.3109 258.893 9.28112C258.78 8.25135 259.257 7.73649 260.4 7.73649H260.626C261.427 5.7336 262.057 3.66682 262.51 1.55795C262.527 1.31854 262.6 1.08637 262.723 0.880375C262.846 0.674379 263.016 0.500345 263.219 0.372038C263.422 0.24373 263.652 0.164828 263.891 0.141784C264.13 0.11874 264.371 0.15211 264.595 0.239281C264.829 0.275375 265.051 0.368486 265.241 0.510619C265.43 0.652753 265.582 0.839496 265.683 1.05422C265.783 1.26893 265.829 1.50514 265.817 1.74191C265.805 1.97868 265.734 2.20874 265.612 2.41183C264.877 4.29094 263.911 6.07114 262.736 7.71135C263.427 7.71135 263.992 7.71154 264.683 7.59852C265.022 6.85759 265.298 6.11665 265.587 5.40084C265.648 5.1767 265.759 4.96908 265.912 4.79347C266.064 4.61785 266.254 4.47843 266.467 4.38569C266.68 4.29296 266.911 4.24925 267.144 4.25754C267.376 4.26582 267.603 4.32614 267.809 4.43383C268.017 4.51228 268.204 4.63606 268.357 4.79653C268.511 4.95701 268.626 5.15005 268.694 5.36098C268.763 5.57191 268.784 5.79536 268.754 6.01526C268.725 6.23515 268.647 6.44591 268.525 6.63152C267.155 9.37039 265.343 11.865 263.163 14.0156C264.193 14.0156 265.223 13.8146 266.215 13.6765C266.102 13.2495 265.963 12.8225 265.813 12.4207C265.662 12.0188 265.7 11.5669 266.102 11.3283C266.189 11.2719 266.287 11.2339 266.39 11.2167C266.492 11.1994 266.597 11.2033 266.698 11.228C266.799 11.2527 266.894 11.2976 266.977 11.3602C267.06 11.4227 267.13 11.5016 267.182 11.5919C268.085 12.6649 268.791 13.8893 269.266 15.2086C269.555 16.0625 269.404 16.6906 268.613 17.0046C267.822 17.3186 267.069 17.0671 266.868 16.1253L266.704 15.4097C264.77 16.266 262.737 16.8777 260.651 17.2306C259.596 17.3813 258.856 16.9794 258.717 15.9747C258.579 14.9701 259.056 14.2418 260.312 14.2041L260.764 14.1539ZM266.102 23.5725C266.277 24.6274 265.813 25.2175 264.846 25.2803C263.879 25.343 263.238 24.9036 263.301 23.7985C263.389 22.1252 263.389 20.4485 263.301 18.7752C263.277 18.6737 263.276 18.568 263.297 18.4658C263.318 18.3637 263.361 18.2675 263.423 18.1838C263.485 18.1 263.565 18.0308 263.657 17.9811C263.749 17.9314 263.85 17.9025 263.954 17.8962C264.381 17.8962 264.67 18.0092 264.871 18.5241C265.499 20.1548 265.913 21.8603 266.102 23.5977V23.5725ZM267.157 17.5445C268.137 18.731 268.944 20.0499 269.555 21.4625C269.653 21.6248 269.714 21.8072 269.731 21.996C269.749 22.1848 269.723 22.3754 269.657 22.5531C269.591 22.7307 269.485 22.891 269.347 23.0219C269.21 23.1528 269.045 23.2509 268.864 23.3088C268.687 23.4062 268.488 23.4589 268.286 23.4631C268.084 23.4672 267.883 23.4225 267.702 23.3324C267.521 23.2424 267.364 23.1099 267.245 22.9461C267.126 22.7824 267.048 22.5921 267.018 22.3918C266.687 21.0182 266.268 19.6675 265.763 18.3481C265.708 18.2595 265.674 18.1606 265.66 18.0578C265.647 17.9549 265.655 17.8503 265.685 17.7509C265.714 17.6514 265.765 17.5593 265.832 17.4804C265.9 17.4016 265.983 17.338 266.076 17.2934C266.165 17.2393 266.264 17.2033 266.367 17.1879C266.469 17.1726 266.574 17.1781 266.675 17.2039C266.775 17.2296 266.87 17.2751 266.953 17.3379C267.035 17.4007 267.105 17.4796 267.157 17.5697V17.5445ZM275.144 22.1407C275.307 22.2771 275.433 22.453 275.51 22.6515C275.587 22.85 275.612 23.0648 275.584 23.2757C275.555 23.4867 275.473 23.6868 275.345 23.8573C275.218 24.0279 275.049 24.1633 274.855 24.2507C272.809 25.6127 270.498 26.5243 268.073 26.9255C267.533 27.0134 267.131 26.8627 266.993 26.3604C266.955 26.2576 266.938 26.1478 266.945 26.0382C266.951 25.9286 266.981 25.8218 267.032 25.7245C267.083 25.6273 267.154 25.5419 267.241 25.474C267.327 25.4062 267.427 25.3571 267.533 25.3305C269.483 24.5627 271.295 23.4809 272.896 22.1281L273.235 21.9022H271.414C271.19 21.9305 270.964 21.9075 270.75 21.835C270.537 21.7625 270.343 21.6426 270.184 21.484C270.024 21.3254 269.902 21.1324 269.828 20.9198C269.754 20.7073 269.729 20.4805 269.756 20.257V12.7221C269.731 12.4971 269.756 12.2692 269.83 12.0552C269.904 11.8412 270.025 11.6465 270.183 11.4852C270.342 11.324 270.535 11.2003 270.748 11.1232C270.961 11.046 271.188 11.0174 271.414 11.0395H280.795C281.02 11.0146 281.248 11.0413 281.462 11.1176C281.675 11.194 281.869 11.3179 282.027 11.48C282.186 11.6422 282.305 11.8382 282.377 12.0534C282.448 12.2686 282.47 12.4973 282.44 12.7221V20.257C282.469 20.4798 282.446 20.7065 282.373 20.9192C282.301 21.1319 282.18 21.3251 282.022 21.484C281.863 21.6429 281.669 21.7631 281.457 21.8356C281.244 21.9082 281.018 21.9309 280.795 21.9022H274.804C274.923 21.9826 275.036 22.0706 275.144 22.1658V22.1407ZM268.726 3.30341C268.726 2.70061 269.04 2.38668 269.693 2.38668H274.352V1.64595C274.352 0.653849 274.98 0.0761719 276.085 0.0761719C277.191 0.0761719 277.831 0.653849 277.831 1.64595V2.38668H282.729C283.357 2.38668 283.708 2.70061 283.708 3.30341C283.722 3.43496 283.707 3.56814 283.662 3.69279C283.618 3.81743 283.546 3.93034 283.452 4.0233C283.358 4.11625 283.244 4.18685 283.118 4.22964C282.993 4.27243 282.86 4.2863 282.729 4.27041H277.831V5.30027H281.737C281.867 5.28505 281.999 5.29763 282.124 5.33706C282.249 5.3765 282.364 5.44181 282.462 5.52899C282.56 5.61618 282.639 5.7233 282.692 5.84295C282.746 5.9626 282.774 6.09199 282.774 6.22313C282.774 6.35427 282.746 6.48397 282.692 6.60361C282.639 6.72326 282.56 6.83039 282.462 6.91757C282.364 7.00475 282.249 7.07006 282.124 7.1095C281.999 7.14894 281.867 7.16151 281.737 7.14629H277.831V8.40211H283.143C283.396 8.40211 283.639 8.50274 283.818 8.68173C283.997 8.86072 284.098 9.10342 284.098 9.35655C284.098 9.60967 283.997 9.85238 283.818 10.0314C283.639 10.2104 283.396 10.311 283.143 10.311H269.329C269.199 10.3248 269.067 10.3093 268.943 10.2656C268.82 10.2219 268.707 10.1511 268.615 10.0583C268.522 9.96564 268.451 9.85329 268.407 9.72967C268.364 9.60606 268.348 9.47435 268.362 9.34398C268.347 9.21452 268.363 9.08343 268.406 8.96073C268.45 8.83803 268.521 8.72695 268.615 8.63604C268.708 8.54514 268.821 8.4767 268.945 8.43614C269.069 8.39559 269.2 8.38404 269.329 8.40211H274.352V7.14629H270.585C270.459 7.15989 270.332 7.14538 270.212 7.10367C270.092 7.06197 269.984 6.99396 269.893 6.905C269.803 6.81604 269.734 6.70823 269.691 6.5892C269.647 6.47018 269.631 6.34309 269.643 6.217C269.631 6.09137 269.647 5.96456 269.69 5.84601C269.734 5.72747 269.803 5.6201 269.894 5.53206C269.984 5.44402 270.093 5.37752 270.213 5.33737C270.332 5.29722 270.46 5.2846 270.585 5.30027H274.352V4.3207H269.643C269.51 4.3309 269.376 4.31022 269.253 4.2603C269.129 4.21037 269.018 4.13247 268.93 4.0328C268.841 3.93313 268.776 3.81443 268.741 3.68573C268.706 3.55704 268.701 3.42182 268.726 3.29084V3.30341ZM273.172 13.9904H279.049V13.1994C279.051 13.1544 279.043 13.1095 279.027 13.0676C279.01 13.0257 278.986 12.9875 278.954 12.9557C278.922 12.9238 278.884 12.8988 278.842 12.8824C278.8 12.866 278.755 12.8586 278.71 12.8603H273.511C273.466 12.8586 273.421 12.866 273.379 12.8824C273.337 12.8988 273.299 12.9238 273.267 12.9557C273.235 12.9875 273.211 13.0257 273.194 13.0676C273.178 13.1095 273.17 13.1544 273.172 13.1994V13.9904ZM273.172 16.992H279.049V15.7362H273.172V16.992ZM273.172 19.6919C273.17 19.7375 273.178 19.783 273.194 19.8256C273.21 19.8682 273.235 19.9071 273.267 19.94C273.298 19.9728 273.336 19.9988 273.378 20.0166C273.42 20.0344 273.465 20.0436 273.511 20.0436H278.71C278.756 20.0436 278.801 20.0344 278.843 20.0166C278.885 19.9988 278.923 19.9728 278.954 19.94C278.986 19.9071 279.011 19.8682 279.027 19.8256C279.043 19.783 279.051 19.7375 279.049 19.6919V18.7626H273.172V19.6919ZM284.298 26.0842C284.205 26.2997 284.061 26.4895 283.878 26.6379C283.696 26.7862 283.481 26.8885 283.251 26.9365C283.021 26.9845 282.783 26.9766 282.556 26.9135C282.33 26.8504 282.122 26.7339 281.95 26.5738C280.442 25.4844 278.865 24.4946 277.228 23.6102C277.123 23.569 277.027 23.5069 276.947 23.4278C276.866 23.3487 276.802 23.254 276.759 23.1497C276.715 23.0454 276.693 22.9337 276.694 22.8207C276.695 22.7078 276.719 22.596 276.764 22.4924C276.914 22.0403 277.304 21.8897 277.844 21.9776C279.835 22.347 281.766 22.9893 283.583 23.8865C283.793 23.9593 283.984 24.0797 284.14 24.2384C284.296 24.3972 284.413 24.5898 284.482 24.8014C284.552 25.0129 284.571 25.2378 284.539 25.4581C284.507 25.6784 284.425 25.8884 284.298 26.0716V26.0842Z" fill="#594A39"/>
</g>
<defs>
<clipPath id="clip0_1384_696">
<rect width="286.553" height="49.09" fill="white" transform="translate(0.722656)"/>
</clipPath>
</defs>
</svg>
