<svg width="140" height="175" viewBox="0 0 140 175" fill="none" xmlns="http://www.w3.org/2000/svg">
<rect x="137.5" y="2.5" width="170" height="135" rx="67.5" transform="rotate(90 137.5 2.5)" stroke="#E9E3D8" stroke-width="5"/>
<g clip-path="url(#clip0_2965_2)">
<path d="M51.4736 100.716C51.4736 100.716 48.5945 109.712 59.2106 116.549C69.8246 123.385 76.483 133.821 66.4062 141.378C66.4062 141.378 48.7749 134.36 49.3143 109.533C49.3143 109.533 44.0975 131.842 63.5271 143.178C63.5271 143.178 49.6731 147.497 44.0954 134.362C38.5177 121.228 46.6136 106.476 51.4715 100.718L51.4736 100.716Z" fill="#E9E3D8"/>
<path d="M40.3444 115.49C40.3444 115.49 39.8273 100.641 61.7569 92.8691C61.7569 92.8691 69.1817 90.4524 77.8148 89.4163C86.448 88.3802 103.716 84.5807 103.372 66.7953C103.372 66.7953 103.159 56.9842 93.6822 52.1121C87.6524 49.012 80.3574 49.0769 74.5708 52.6149C72.3953 53.9449 70.3212 55.8346 68.9992 58.5068C68.9992 58.5068 67.6489 52.0107 59.3219 50.8023C56.4205 50.3806 53.4462 50.8144 50.7455 51.9539C45.405 54.2024 36.4556 60.0944 35.2654 74.4958C35.2654 74.4958 33.2501 95.3508 40.3464 115.488L40.3444 115.49Z" fill="#E9E3D8"/>
<path d="M105.242 41.5172C106.337 36.222 103.4 31.138 98.6819 30.1617C93.9635 29.1854 89.2503 32.6866 88.1547 37.9818C87.0591 43.277 89.9959 48.361 94.7143 49.3373C99.4327 50.3136 104.146 46.8124 105.242 41.5172Z" fill="#E9E3D8"/>
<path d="M85.3833 39.1082C85.7966 34.8923 83.3095 31.198 79.828 30.8566C76.3466 30.5153 73.1892 33.6562 72.7758 37.872C72.3624 42.0879 74.8496 45.7822 78.3311 46.1236C81.8125 46.4649 84.9699 43.324 85.3833 39.1082Z" fill="#E9E3D8"/>
<path d="M70.7618 41.3352C71.4645 37.9392 69.7816 34.7202 67.0029 34.1453C64.2243 33.5703 61.4022 35.8573 60.6995 39.2532C59.9969 42.6492 61.6798 45.8683 64.4584 46.4432C67.237 47.0181 70.0592 44.7312 70.7618 41.3352Z" fill="#E9E3D8"/>
<path d="M58.7756 44.0169C59.2474 41.3519 57.7332 38.8557 55.3934 38.4414C53.0537 38.0272 50.7744 39.8518 50.3026 42.5168C49.8307 45.1819 51.345 47.6781 53.6847 48.0923C56.0245 48.5066 58.3037 46.682 58.7756 44.0169Z" fill="#E9E3D8"/>
<path d="M49.1707 47.8332C49.4135 45.8616 48.1373 44.082 46.3202 43.8582C44.5031 43.6345 42.8332 45.0514 42.5905 47.0229C42.3477 48.9945 43.6239 50.7742 45.441 50.9979C47.2581 51.2217 48.928 49.8048 49.1707 47.8332Z" fill="#E9E3D8"/>
</g>
<defs>
<clipPath id="clip0_2965_2">
<rect width="70.4764" height="113.855" fill="white" transform="translate(35 30)"/>
</clipPath>
</defs>
</svg>
