<svg width="138" height="15" viewBox="0 0 138 15" fill="none" xmlns="http://www.w3.org/2000/svg">
<path d="M6.82175 14.5599C2.89775 14.5599 0.59375 12.0579 0.59375 7.52189C0.59375 3.38189 3.00575 0.78989 6.96575 0.78989C8.53175 0.78989 9.70175 1.25789 10.3318 1.72589C10.8538 2.10389 11.0338 2.69789 10.7638 3.16589C10.4578 3.70589 9.86375 3.83189 9.32375 3.50789C8.72975 3.12989 8.06375 2.91389 7.05575 2.91389C5.02175 2.91389 3.77975 4.58789 3.77975 7.48589C3.77975 10.6899 4.98575 12.4359 6.98375 12.4359C8.17175 12.4359 8.81975 12.0759 9.34175 11.6979C9.86375 11.3199 10.4398 11.4459 10.8538 11.9679C11.2137 12.4179 11.1418 12.9939 10.6378 13.4439C9.98975 14.0379 8.60375 14.5599 6.82175 14.5599Z" fill="white"/>
<path d="M20.4823 4.65989C22.4983 4.65989 23.7763 6.06389 23.7763 8.24189V13.1379C23.7763 14.0919 23.2723 14.5599 22.2823 14.5599C21.2923 14.5599 20.7883 14.0919 20.7883 13.1379V8.36789C20.7883 7.35989 20.3743 6.81989 19.5643 6.81989C18.7183 6.81989 18.1783 7.34189 17.8363 8.25989V13.1379C17.8363 14.0919 17.2963 14.5599 16.3063 14.5599C15.3163 14.5599 14.7763 14.0919 14.7763 13.1379V1.70789C14.7763 0.735891 15.2983 0.249891 16.3063 0.249891C17.3143 0.249891 17.8363 0.735891 17.8363 1.70789V5.95589C18.3943 5.10989 19.2943 4.65989 20.4823 4.65989Z" fill="white"/>
<path d="M34.7722 11.9319C35.2582 11.5719 35.7802 11.6079 36.1222 12.0039C36.4642 12.3819 36.4822 12.9039 36.1042 13.3179C35.5282 13.9659 34.1242 14.5599 32.3422 14.5599C29.5162 14.5599 27.3382 13.1379 27.3382 9.82589C27.3382 6.63989 29.2102 4.64189 32.2162 4.64189C35.1682 4.64189 36.6442 6.83789 36.6442 8.96189C36.6442 9.98789 36.1222 10.5279 35.0242 10.5279H30.4522C30.6322 12.0219 31.2982 12.5799 32.5762 12.6159C33.4582 12.6339 34.1782 12.3819 34.7722 11.9319ZM32.2522 6.53189C31.1182 6.53189 30.6142 7.30589 30.4522 8.54789H33.7282C33.8362 8.54789 33.8902 8.49389 33.8902 8.38589C33.8902 7.14389 33.2602 6.53189 32.2522 6.53189Z" fill="white"/>
<path d="M44.6163 14.5599C41.5383 14.5599 39.7203 12.7599 39.7203 9.68189C39.7203 6.60389 41.6103 4.65989 44.6343 4.65989C46.3083 4.65989 47.4603 5.34389 47.9283 5.93789C48.2883 6.35189 48.2703 6.89189 47.8743 7.25189C47.4063 7.66589 46.8843 7.68389 46.4703 7.28789C46.0743 6.90989 45.4803 6.74789 44.8863 6.74789C43.5543 6.74789 42.7803 7.71989 42.7803 9.53789C42.7803 11.5359 43.5363 12.4359 44.9223 12.4359C45.6243 12.4359 46.1823 12.2739 46.5963 11.9139C47.0103 11.5539 47.5323 11.5899 47.9283 11.9499C48.3603 12.3279 48.3603 12.8499 47.9823 13.3539C47.4063 14.1099 46.1103 14.5599 44.6163 14.5599Z" fill="white"/>
<path d="M53.347 14.5599C52.357 14.5599 51.817 14.0739 51.817 13.1199V1.74389C51.817 0.77189 52.357 0.249891 53.347 0.249891C54.319 0.249891 54.877 0.77189 54.877 1.74389V7.95389C55.885 7.08989 57.073 6.11789 58.189 5.05589C58.765 4.51589 59.413 4.53389 59.953 5.03789C60.529 5.57789 60.439 6.27989 59.773 6.83789L57.415 8.76389L60.133 12.3639C60.673 13.0659 60.619 13.7319 59.989 14.2179C59.305 14.7579 58.441 14.6499 57.991 13.9659L55.453 10.0959L54.877 10.6179V13.1199C54.877 14.0739 54.319 14.5599 53.347 14.5599Z" fill="white"/>
<path d="M73.9149 3.56189C72.9249 3.56189 72.0969 2.80589 72.0969 1.83389C72.0969 0.825891 72.9069 0.0878906 73.9149 0.0878906C74.9409 0.0878906 75.6609 0.807891 75.6609 1.83389C75.6609 2.82389 74.9229 3.56189 73.9149 3.56189ZM73.8789 14.5599C72.8709 14.5599 72.3489 14.0379 72.3489 13.0659V6.33389C72.3489 5.36189 72.8709 4.83989 73.8789 4.83989C74.8869 4.83989 75.4089 5.36189 75.4089 6.33389V13.0659C75.4089 14.0379 74.8869 14.5599 73.8789 14.5599Z" fill="white"/>
<path d="M85.3283 12.1299C85.8503 12.1299 86.1743 12.7599 86.1743 13.2099C86.1743 14.1459 84.8423 14.4159 83.8523 14.4159C81.7823 14.4159 80.8463 13.4259 80.8463 11.2839V6.98189H79.8383C79.2623 6.98189 78.9383 6.58589 78.9383 5.95589C78.9383 5.30789 79.2803 4.92989 79.8383 4.92989H80.8463V3.79589C80.8463 2.82389 81.3863 2.30189 82.3763 2.30189C83.3663 2.30189 83.9063 2.82389 83.9063 3.79589V4.92989H85.0763C85.6523 4.92989 85.9763 5.32589 85.9763 5.95589C85.9763 6.60389 85.6343 6.98189 85.0763 6.98189H83.9063V11.2479C83.9063 11.9679 84.1043 12.2919 84.4283 12.2919C84.7703 12.2919 85.0043 12.1299 85.3283 12.1299Z" fill="white"/>
<path d="M102.103 14.5779C98.9169 14.5779 97.2429 12.6699 97.2429 9.44789C97.2429 6.53189 99.2589 4.65989 102.229 4.65989C105.163 4.65989 107.035 6.51389 107.053 9.44789C107.071 12.7419 105.163 14.5779 102.103 14.5779ZM102.139 12.5799C103.381 12.5439 103.921 11.6439 103.921 9.50189C103.921 7.55789 103.399 6.62189 102.139 6.63989C100.915 6.65789 100.357 7.57589 100.375 9.50189C100.393 11.5359 100.843 12.6159 102.139 12.5799Z" fill="white"/>
<path d="M118.161 4.65989C119.133 4.65989 119.655 5.18189 119.655 6.11789V13.2459C119.655 14.0559 119.187 14.5599 118.305 14.5599C117.441 14.5599 116.955 14.0739 116.937 13.2639V13.0839C116.415 14.0019 115.389 14.5419 114.111 14.5419C111.933 14.5419 110.619 13.2099 110.619 10.9779V6.13589C110.619 5.18189 111.159 4.65989 112.149 4.65989C113.139 4.65989 113.679 5.18189 113.679 6.13589V10.5819C113.679 11.8599 114.075 12.4719 114.975 12.4719C115.965 12.4719 116.505 11.2839 116.667 10.5639V6.11789C116.667 5.18189 117.207 4.65989 118.161 4.65989Z" fill="white"/>
<path d="M129.39 12.1299C129.912 12.1299 130.236 12.7599 130.236 13.2099C130.236 14.1459 128.904 14.4159 127.914 14.4159C125.844 14.4159 124.908 13.4259 124.908 11.2839V6.98189H123.9C123.324 6.98189 123 6.58589 123 5.95589C123 5.30789 123.342 4.92989 123.9 4.92989H124.908V3.79589C124.908 2.82389 125.448 2.30189 126.438 2.30189C127.428 2.30189 127.968 2.82389 127.968 3.79589V4.92989H129.138C129.714 4.92989 130.038 5.32589 130.038 5.95589C130.038 6.60389 129.696 6.98189 129.138 6.98189H127.968V11.2479C127.968 11.9679 128.166 12.2919 128.49 12.2919C128.832 12.2919 129.066 12.1299 129.39 12.1299Z" fill="white"/>
<path d="M135.587 10.0959C134.885 10.0959 134.381 9.71789 134.327 9.01589L133.787 2.60789C133.679 1.40189 134.399 0.735891 135.587 0.735891C136.793 0.735891 137.495 1.40189 137.387 2.60789L136.829 9.01589C136.775 9.71789 136.289 10.0959 135.587 10.0959ZM135.605 14.6139C134.597 14.6139 133.769 13.8219 133.769 12.8139C133.769 11.8959 134.597 11.0859 135.605 11.0859C136.577 11.0859 137.405 11.8779 137.405 12.8139C137.405 13.8219 136.577 14.6139 135.605 14.6139Z" fill="white"/>
</svg>
