<svg width="35" height="33" viewBox="0 0 35 33" fill="none" xmlns="http://www.w3.org/2000/svg">
<path d="M19.5572 1.16239L23.2986 8.74433C23.4448 9.042 23.6612 9.29969 23.9292 9.49506C24.1972 9.69043 24.5087 9.81762 24.8368 9.86576L33.2028 11.0765C33.5794 11.1322 33.933 11.2918 34.2237 11.5375C34.5145 11.7833 34.7309 12.1054 34.8485 12.4674C34.9661 12.8295 34.9802 13.2172 34.8894 13.5869C34.7985 13.9566 34.6062 14.2936 34.3342 14.5599L28.2804 20.4647C28.0454 20.6969 27.8696 20.9822 27.7677 21.2965C27.6658 21.6108 27.6409 21.9449 27.695 22.2708L29.1141 30.6071C29.1797 30.9844 29.138 31.3726 28.9937 31.7274C28.8495 32.0821 28.6085 32.3893 28.2981 32.6138C27.9878 32.8382 27.6207 32.971 27.2386 32.9969C26.8564 33.0229 26.4747 32.941 26.1369 32.7606L18.6542 28.791C18.3612 28.6395 18.0362 28.5605 17.7064 28.5605C17.3766 28.5605 17.0516 28.6395 16.7586 28.791L9.27589 32.7606C8.93806 32.941 8.55633 33.0229 8.17421 32.9969C7.7921 32.971 7.42496 32.8382 7.11463 32.6138C6.80431 32.3893 6.56329 32.0821 6.41903 31.7274C6.27476 31.3726 6.23306 30.9844 6.29867 30.6071L7.72774 22.2808C7.78883 21.9548 7.76721 21.6187 7.66493 21.3032C7.56264 20.9876 7.38293 20.7028 7.14219 20.4746L1.08854 14.5698C0.816488 14.3035 0.624205 13.9665 0.533336 13.5969C0.442468 13.2272 0.456626 12.8394 0.574222 12.4774C0.691819 12.1153 0.908147 11.7932 1.1989 11.5475C1.48965 11.3017 1.84329 11.1421 2.2199 11.0865L10.5859 9.87569C10.914 9.82756 11.2255 9.7003 11.4935 9.50493C11.7615 9.30956 11.9779 9.05194 12.1241 8.75427L15.8655 1.17232C16.0306 0.823004 16.2913 0.527629 16.6175 0.320444C16.9436 0.113259 17.3218 0.00269401 17.7082 0.00165534C18.0946 0.000616664 18.4734 0.10914 18.8006 0.314569C19.1279 0.519997 19.3902 0.813963 19.5572 1.16239Z" fill="#F2EEE4"/>
</svg>
