<svg width="40" height="40" viewBox="0 0 40 40" fill="none" xmlns="http://www.w3.org/2000/svg">
<g clip-path="url(#clip0_3_78)">
<path d="M19.9999 -0.00171105C23.9524 -0.0017114 27.8161 1.17033 31.1025 3.3662C34.3888 5.56207 36.9503 8.6832 38.4628 12.3348C39.9753 15.9864 40.3711 20.0045 39.6 23.881C38.8289 27.7576 36.9256 31.3184 34.1308 34.1132C31.336 36.908 27.7752 38.8112 23.8987 39.5823C20.0222 40.3534 16.004 39.9577 12.3524 38.4452C8.70084 36.9326 5.5797 34.3712 3.38383 31.0848C1.18796 27.7985 0.0159173 23.9348 0.015917 19.9823C0.0285813 14.6861 2.13811 9.61046 5.8831 5.86547C9.62808 2.12048 14.7037 0.0109542 19.9999 -0.00171105Z" fill="#E9E3D8"/>
<path d="M23.2694 10.7833C23.5181 10.7771 23.7625 10.8485 23.9689 10.9874C24.1753 11.1263 24.3333 11.3259 24.4211 11.5587C24.5089 11.7915 24.5222 12.0457 24.4591 12.2863C24.3959 12.527 24.2595 12.742 24.0687 12.9017L15.6114 20L24.0687 27.1063C24.1996 27.2041 24.3091 27.3276 24.3906 27.4692C24.472 27.6109 24.5236 27.7677 24.5423 27.93C24.5609 28.0923 24.5462 28.2568 24.4991 28.4132C24.4519 28.5696 24.3733 28.7147 24.268 28.8396C24.1627 28.9645 24.0329 29.0667 23.8868 29.1397C23.7406 29.2126 23.581 29.255 23.4179 29.2641C23.2548 29.2732 23.0915 29.2488 22.9381 29.1925C22.7847 29.1363 22.6445 29.0492 22.5259 28.9368L12.9816 20.9432C12.8461 20.8322 12.7369 20.6926 12.6619 20.5343C12.587 20.3761 12.5481 20.2031 12.5481 20.028C12.5481 19.8529 12.587 19.6798 12.6619 19.5216C12.7369 19.3633 12.8461 19.2237 12.9816 19.1127L22.5259 11.1191C22.7284 10.926 22.9906 10.8075 23.2694 10.7833Z" fill="white"/>
</g>
<defs>
<clipPath id="clip0_3_78">
<rect width="40" height="40" fill="white" transform="translate(40 40) rotate(180)"/>
</clipPath>
</defs>
</svg>
