<svg width="100" height="100" viewBox="0 0 100 100" fill="none" xmlns="http://www.w3.org/2000/svg">
<g clip-path="url(#clip0_3_385)">
<path d="M27.789 36.4264C27.789 36.4264 14.4282 38.9951 2.86634 33.6951C2.5519 33.551 2.20456 33.4888 1.85783 33.514C1.5111 33.5393 1.17683 33.6513 0.888071 33.8393C0.599313 34.0274 0.365903 34.285 0.210273 34.5868C0.0546427 34.8887 -0.0178758 35.2247 0.000129946 35.5618C0.335256 42.189 4.23346 57.3357 31.2464 67.1138" fill="#5E9A33"/>
<path opacity="0.2" d="M31.5636 66.9594C31.5636 66.9594 19.8958 64.699 9.79786 69.3483C9.52328 69.472 9.22076 69.5249 8.91896 69.5021C8.61717 69.4793 8.32654 69.3817 8.07495 69.2182C7.82335 69.0548 7.61927 68.8311 7.48241 68.569C7.34556 68.3068 7.28038 68.0151 7.29337 67.7215C7.5844 61.9334 10.9888 48.6962 34.5887 40.1597" fill="#5E9A33"/>
<path d="M42.0242 81.8029C42.6926 78.5377 41.1007 75.479 38.4685 74.9711C35.8362 74.4633 33.1603 76.6985 32.4919 79.9637C31.8236 83.229 33.4158 86.2877 36.0481 86.7956C38.6803 87.3035 41.3558 85.0681 42.0242 81.8029Z" fill="#FEFAE9"/>
<path d="M59.7394 86.6027C62.3717 86.0948 63.9639 83.036 63.2956 79.7708C62.6272 76.5056 59.9513 74.2703 57.319 74.7782C54.6868 75.2861 53.0949 78.3448 53.7633 81.61C54.4317 84.8752 57.1072 87.1106 59.7394 86.6027Z" fill="#FEFAE9"/>
<path d="M47.544 9.00146C47.544 9.00146 46.8032 15.5685 35.012 20.7829C31.7304 22.2359 28.9213 24.534 26.8897 27.4275C20.5928 36.4264 10.4683 56.0253 24.9493 74.4684C24.9493 74.4684 32.7275 83.0307 47.6495 83.0307C47.6495 83.0307 61.8395 84.0495 70.5792 75.0078C78.6487 66.6852 82.5471 46.0159 68.0308 26.8279C65.9276 24.0593 63.0505 21.9347 59.7409 20.706C55.4195 19.0706 48.9109 16.0225 47.544 9.00146Z" fill="#FEFAE9"/>
<path d="M73.7456 36.2637C72.1976 32.9378 70.2907 29.7807 68.057 26.8452C65.9538 24.0766 63.0768 21.952 59.7672 20.7233C55.4193 19.0964 48.9109 16.0481 47.544 9.0271C47.544 9.0271 46.8032 15.5946 35.012 20.809C31.7304 22.262 28.9213 24.5597 26.8897 27.4531C24.9171 30.2749 23.1939 33.2537 21.739 36.3577C24.1378 39.1662 33.2041 48.4908 47.5793 48.4908C47.5793 48.4651 61.0725 48.756 73.7456 36.2637Z" fill="#7DBE37"/>
<path d="M21.7835 36.2384C21.7835 36.2384 19.305 43.0879 19.9047 49.8778C20.4251 55.7515 26.5455 61.6509 33.1334 61.6509C59.0969 61.6509 73.8689 36.4265 73.8689 36.4265C73.8689 36.4265 72.7932 32.7362 65.4998 32.6249C58.2064 32.5136 29.8706 32.6249 29.8706 32.6249C29.8706 32.6249 22.8066 32.9076 21.7835 36.2384Z" fill="#F2E865"/>
<path d="M31.2462 38.0275C35.8295 38.0275 39.545 34.4202 39.545 29.9704C39.545 25.5206 35.8295 21.9133 31.2462 21.9133C26.6629 21.9133 22.9474 25.5206 22.9474 29.9704C22.9474 34.4202 26.6629 38.0275 31.2462 38.0275Z" fill="white"/>
<path d="M53.682 38.0275C58.2653 38.0275 61.9808 34.4202 61.9808 29.9704C61.9808 25.5206 58.2653 21.9133 53.682 21.9133C49.0987 21.9133 45.3832 25.5206 45.3832 29.9704C45.3832 34.4202 49.0987 38.0275 53.682 38.0275Z" fill="white"/>
<path d="M61.9542 35.5699C61.8503 35.5685 61.7481 35.545 61.6545 35.5013C61.5698 35.4644 61.4934 35.4116 61.4301 35.3458C61.3668 35.2799 61.3179 35.2025 61.2858 35.1179C61.2538 35.0334 61.2394 34.9437 61.2436 34.8537C61.2479 34.7637 61.2705 34.6754 61.3104 34.5941L62.5187 32.0764C62.5567 31.9942 62.6111 31.9204 62.6789 31.859C62.7467 31.7975 62.8265 31.7496 62.9136 31.7185C63.0007 31.6874 63.0935 31.6739 63.1862 31.678C63.2789 31.6821 63.3698 31.7041 63.4536 31.7428C63.6229 31.8191 63.7539 31.9573 63.8183 32.1274C63.8828 32.2975 63.8753 32.4857 63.7972 32.6504L62.5893 35.176C62.5335 35.2939 62.444 35.3938 62.3314 35.4637C62.2188 35.5335 62.0878 35.5702 61.9542 35.5699Z" fill="#E27E7C"/>
<path d="M64.0797 36.3321C63.9786 36.3309 63.8791 36.3074 63.7886 36.2635C63.704 36.2267 63.6276 36.1739 63.5643 36.108C63.501 36.0421 63.452 35.9647 63.42 35.8802C63.388 35.7956 63.3736 35.7055 63.3778 35.6155C63.382 35.5255 63.4047 35.4372 63.4445 35.3559L64.6438 32.8386C64.7287 32.6845 64.871 32.5677 65.0417 32.5121C65.2124 32.4565 65.3989 32.4664 65.5623 32.5397C65.7258 32.613 65.854 32.7441 65.921 32.9064C65.9881 33.0686 65.9887 33.2496 65.9228 33.4122L64.7235 35.9295C64.6675 36.0496 64.5767 36.1516 64.4625 36.223C64.3483 36.2944 64.2155 36.3323 64.0797 36.3321Z" fill="#E27E7C"/>
<path d="M20.5046 35.3731C20.3857 35.3756 20.2682 35.3486 20.1631 35.2945C20.0581 35.2404 19.9689 35.1611 19.9043 35.0641C19.8398 34.9671 19.8022 34.8553 19.7945 34.7401C19.7869 34.6249 19.8096 34.5099 19.8608 34.4056L21.0692 31.8796C21.1072 31.7974 21.1615 31.7237 21.2294 31.6622C21.2972 31.6008 21.377 31.5528 21.4641 31.5217C21.5511 31.4906 21.6439 31.4771 21.7366 31.4812C21.8293 31.4853 21.9203 31.5073 22.0041 31.546C22.1718 31.624 22.3015 31.7624 22.3658 31.9319C22.43 32.1014 22.4234 32.2887 22.3477 32.4536L21.1398 34.9793C21.084 35.0971 20.9944 35.1971 20.8819 35.2669C20.7693 35.3367 20.6382 35.3734 20.5046 35.3731Z" fill="#E27E7C"/>
<path d="M22.5856 36.1096C22.4853 36.1105 22.3859 36.0898 22.2945 36.0494C22.1252 35.9731 21.9942 35.8349 21.9298 35.6648C21.8653 35.4947 21.8728 35.3065 21.9509 35.1418L23.1502 32.6162C23.2288 32.4518 23.3711 32.3242 23.5463 32.2616C23.7216 32.1991 23.9154 32.2064 24.085 32.2821C24.1697 32.319 24.2457 32.3718 24.309 32.4377C24.3723 32.5035 24.4216 32.581 24.4536 32.6655C24.4857 32.7501 24.5001 32.8402 24.4959 32.9302C24.4916 33.0201 24.4689 33.1084 24.4291 33.1898L23.2294 35.7154C23.1712 35.8333 23.0802 35.9329 22.9663 36.0026C22.8524 36.0723 22.7202 36.1096 22.5856 36.1096Z" fill="#E27E7C"/>
<path d="M51.3538 31.8626C53.3167 31.8626 54.9079 30.3177 54.9079 28.412C54.9079 26.5063 53.3167 24.9614 51.3538 24.9614C49.3909 24.9614 47.7997 26.5063 47.7997 28.412C47.7997 30.3177 49.3909 31.8626 51.3538 31.8626Z" fill="#4A1E0E"/>
<path d="M30.6994 31.8626C32.6622 31.8626 34.2535 30.3177 34.2535 28.412C34.2535 26.5063 32.6622 24.9614 30.6994 24.9614C28.7365 24.9614 27.1453 26.5063 27.1453 28.412C27.1453 30.3177 28.7365 31.8626 30.6994 31.8626Z" fill="#4A1E0E"/>
<path d="M33.0895 88.1593C32.8712 88.1616 32.6548 88.1169 32.4565 88.028C32.2582 87.9392 32.0831 87.8087 31.9432 87.6459L25.5403 80.2906C25.3159 79.9934 25.2161 79.6248 25.2608 79.2588C25.3056 78.8929 25.4916 78.5569 25.7815 78.319C26.0713 78.081 26.4436 77.9586 26.8227 77.9766C27.2018 77.9945 27.5597 78.1514 27.8243 78.4156L34.2272 85.762C34.3549 85.9081 34.4516 86.0771 34.5119 86.2596C34.5721 86.442 34.595 86.6343 34.5786 86.8252C34.5622 87.0161 34.5068 87.2018 34.4163 87.3721C34.3257 87.5423 34.2015 87.6934 34.0507 87.8169C33.7828 88.039 33.4418 88.1604 33.0895 88.1593Z" fill="#695D41"/>
<path d="M35.4178 88.2881C35.0703 88.2886 34.7334 88.1718 34.4648 87.9578C34.1962 87.7438 34.0125 87.4459 33.945 87.115L32.5339 80.1623C32.4832 79.9706 32.4735 79.7709 32.505 79.5753C32.5366 79.3798 32.6087 79.1926 32.7173 79.0251C32.826 78.8576 32.9688 78.7133 33.1368 78.6012C33.3048 78.4891 33.4944 78.4114 33.6944 78.3729C33.8944 78.3344 34.1005 78.3361 34.2999 78.3775C34.4992 78.419 34.6878 78.4991 34.8541 78.6137C35.0203 78.7283 35.1606 78.8749 35.2666 79.0439C35.3726 79.213 35.4422 79.4011 35.4707 79.5971L36.8905 86.5497C36.9658 86.9288 36.884 87.3215 36.6627 87.6422C36.4414 87.9629 36.0986 88.1856 35.7089 88.2622C35.6129 88.2792 35.5154 88.288 35.4178 88.2881Z" fill="#695D41"/>
<path d="M59.0529 88.1594C58.778 88.1583 58.5086 88.0845 58.2739 87.9457C58.0392 87.8069 57.8484 87.6083 57.7214 87.3717L53.8497 80.0168C53.7312 79.8465 53.6512 79.6536 53.615 79.4512C53.5788 79.2487 53.5872 79.0411 53.6395 78.842C53.6919 78.6429 53.7872 78.4569 53.919 78.296C54.0508 78.1352 54.2158 78.0036 54.4039 77.9093C54.5919 77.815 54.7984 77.7601 55.0098 77.7488C55.2211 77.7375 55.4327 77.7699 55.6303 77.8437C55.8279 77.9174 56.007 78.0311 56.1561 78.1769C56.3052 78.3227 56.4209 78.4975 56.4954 78.6899L60.3671 86.0447C60.5464 86.3891 60.5785 86.7884 60.4563 87.1555C60.3341 87.5227 60.0673 87.8281 59.7143 88.0055C59.5078 88.1024 59.2822 88.1547 59.0529 88.1594Z" fill="#695D41"/>
<path d="M56.7244 88.2882C56.3811 88.2859 56.0488 88.171 55.7809 87.9625L46.9618 81.0103C46.8067 80.8911 46.6775 80.743 46.5815 80.5751C46.4856 80.4072 46.4249 80.2224 46.4028 80.0316C46.3807 79.8407 46.3976 79.6478 46.4528 79.4634C46.5079 79.279 46.6002 79.1068 46.7241 78.9571C46.848 78.8074 47.0013 78.6832 47.1749 78.5913C47.3486 78.4994 47.5393 78.4416 47.736 78.4216C47.9328 78.4015 48.1313 78.4194 48.3208 78.4742C48.5104 78.5291 48.6869 78.6196 48.8402 78.741L57.7036 85.7024C57.9373 85.8935 58.1053 86.1494 58.1851 86.4357C58.2648 86.7221 58.2524 87.0251 58.1498 87.3045C58.0471 87.5839 57.859 87.8262 57.6106 87.9989C57.3622 88.1716 57.0652 88.2667 56.7597 88.2711L56.7244 88.2882Z" fill="#695D41"/>
<path d="M97.1338 33.6951C87.4945 38.1303 76.6116 37.0687 73.2515 36.5978C72.4756 36.4823 71.682 36.6272 71.0024 37.0088C69.4303 37.8462 68.1415 39.1075 67.2917 40.6406C66.442 42.1737 66.0678 43.9128 66.2139 45.6479C66.6108 51.6415 70.0413 60.5807 72.9957 63.8001C73.3108 64.1461 73.7328 64.3841 74.1985 64.4782C74.6642 64.5723 75.1488 64.5175 75.5799 64.3223C96.4459 54.6469 99.6913 41.581 100 35.5618C100.015 35.2255 99.9414 34.8911 99.7851 34.5906C99.6288 34.2901 99.3953 34.0335 99.1073 33.846C98.8193 33.6585 98.4867 33.5459 98.141 33.5195C97.7953 33.493 97.4484 33.5536 97.1338 33.6951Z" fill="#5E9A33"/>
<path opacity="0.2" d="M74.6275 64.5278C74.6275 64.5278 85.9072 64.699 96.0139 69.3483C96.2881 69.47 96.5897 69.5213 96.8902 69.4975C97.1907 69.4738 97.48 69.3756 97.7303 69.2124C97.9807 69.0492 98.1839 68.8267 98.3203 68.5656C98.4567 68.3046 98.522 68.014 98.5098 67.7215C98.2275 61.9334 94.823 48.6962 71.223 40.1597" fill="#5E9A33"/>
<path d="M41.3791 28.292C41.3791 28.292 30.5934 30.3299 24.8963 30.0901C24.7409 30.0784 24.5856 30.1153 24.4531 30.1951C24.3207 30.2749 24.218 30.3937 24.1599 30.5341C24.1018 30.6746 24.0918 30.8291 24.1306 30.9756C24.1695 31.1222 24.2554 31.2532 24.3761 31.349C28.9174 34.813 34.1432 37.3339 39.7299 38.7552C39.7299 38.7552 44.2279 34.748 44.6954 33.1212C44.6954 33.1212 44.4482 31.5799 41.3791 28.292Z" fill="#84765B"/>
</g>
<defs>
<clipPath id="clip0_3_385">
<rect width="100" height="79.2865" fill="white" transform="translate(0 9.00146)"/>
</clipPath>
</defs>
</svg>
