<svg width="288" height="96" viewBox="0 0 288 96" fill="none" xmlns="http://www.w3.org/2000/svg">
<path d="M85.472 38.1996C86.592 44.6636 84.736 47.1596 81.632 45.9756C80.192 45.4316 79.04 44.0876 78.144 41.9756C76.448 43.6396 74.432 45.0476 72.128 46.0716C71.328 46.4236 70.816 46.1676 70.464 45.5916C70.112 44.9836 70.272 44.4396 70.976 43.9276C73.408 42.1676 75.392 40.2156 76.96 38.1036C76.192 34.5196 75.808 29.7516 75.744 23.7356H69.056C68.832 23.7356 68.672 23.8956 68.672 24.1196V28.7276C68.672 37.4636 67.808 42.3276 65.056 45.7196C64.64 46.2316 64.064 46.3596 63.52 45.9756C62.976 45.5916 62.88 45.1116 63.104 44.4716C64.256 41.1436 64.384 37.1436 64.384 28.7916V23.1276C64.384 21.7836 65.248 21.0476 66.592 21.0476H75.744V17.8796C75.744 16.6956 76.512 16.0556 77.888 16.0556C78.88 16.0556 79.552 16.3756 79.84 16.9836C79.84 16.6956 79.968 16.4396 80.256 16.1516C80.672 15.7676 81.216 15.7356 81.76 16.1196C82.752 16.8236 83.648 17.6556 84.544 18.8716C85.056 19.5436 84.896 20.4396 83.968 21.0476H84.096C84.96 21.0476 85.44 21.5276 85.44 22.3916C85.44 23.2556 84.96 23.7356 84.096 23.7356H80.032C80.064 26.8716 80.128 29.5596 80.256 31.7996C80.736 30.4556 81.088 29.0476 81.344 27.5756C81.568 26.3276 82.592 25.7196 83.968 26.0716C85.28 26.4236 85.664 27.4156 85.376 28.5676C84.512 31.9916 83.136 35.3836 81.152 38.3596C81.408 39.4156 81.76 40.2156 82.176 40.7916C82.912 41.8156 83.136 41.0796 83.168 38.1356C83.168 37.3356 83.68 36.9196 84.32 36.9196C84.992 36.9196 85.344 37.3356 85.472 38.1996ZM60.864 21.5276C60.064 20.2796 59.264 19.1596 58.464 18.2316C58.016 17.6876 58.016 17.0796 58.432 16.5676C58.848 16.0556 59.328 16.0876 60.032 16.3436C61.184 16.7596 62.656 17.5916 63.872 18.5516C65.024 19.4476 65.088 20.6956 64 21.7516C62.848 22.8396 61.632 22.7436 60.864 21.5276ZM80.032 17.6236V17.8796C80.032 18.8716 80.032 19.9916 80.032 21.0476H81.792C81.664 20.9196 81.568 20.7916 81.504 20.6316C81.024 19.5436 80.544 18.5836 80.064 17.7196C80.064 17.6876 80.032 17.6556 80.032 17.6236ZM59.264 28.9516C58.432 27.6396 57.6 26.5836 56.832 25.6556C56.384 25.1436 56.416 24.5356 56.8 24.0236C57.184 23.4796 57.696 23.5116 58.304 23.7356C59.52 24.1836 60.8 24.8876 62.272 25.9756C63.392 26.7756 63.584 28.1196 62.464 29.2396C61.344 30.3596 60 30.0716 59.264 28.9516ZM74.176 28.1196H70.496C69.664 28.1196 69.152 27.6076 69.152 26.7756C69.152 25.9436 69.664 25.4316 70.496 25.4316H74.176C75.008 25.4316 75.52 25.9436 75.52 26.7756C75.52 27.6076 75.008 28.1196 74.176 28.1196ZM73.728 39.5756H70.944C69.76 39.5756 69.088 38.9036 69.088 37.7196V31.6716C69.088 30.4876 69.76 29.8156 70.944 29.8156H73.728C74.912 29.8156 75.584 30.4876 75.584 31.6716V37.7196C75.584 38.9036 74.784 39.5756 73.728 39.5756ZM62.144 32.1516C62.784 32.2796 63.136 32.7596 63.072 33.5276C62.752 36.9836 62.144 40.8236 61.536 43.4796C61.088 45.3996 59.744 46.1676 58.144 45.4636C56.448 44.7276 56.192 43.3836 57.024 41.7516C58.176 39.4796 59.52 36.4716 60.736 33.0156C60.992 32.2796 61.472 32.0236 62.144 32.1516ZM71.776 32.8876V36.5036C71.776 36.7276 71.936 36.8876 72.16 36.8876H72.512C72.736 36.8876 72.896 36.7276 72.896 36.5036V32.8876C72.896 32.6636 72.736 32.5036 72.512 32.5036H72.16C71.936 32.5036 71.776 32.6636 71.776 32.8876ZM107.52 25.3996C106.176 25.3996 105.44 24.6636 105.44 23.3196V19.3836C105.44 18.1996 106.208 17.5596 107.584 17.5596C108.96 17.5596 109.728 18.1996 109.728 19.3836V22.4556C109.728 22.6796 109.888 22.8396 110.112 22.8396H111.072V18.1356C111.072 16.8876 111.872 16.1836 113.344 16.1836C114.816 16.1836 115.616 16.8876 115.616 18.1356V22.8396H116.544C116.768 22.8396 116.928 22.6796 116.928 22.4556V19.4796C116.928 18.2636 117.696 17.6236 119.104 17.6236C120.512 17.6236 121.28 18.2636 121.28 19.4796V23.3196C121.28 24.6636 120.544 25.3996 119.2 25.3996H107.52ZM103.712 38.6476C103.712 39.9916 102.976 40.7276 101.632 40.7276H99.072V42.7436C99.072 43.8316 98.4 44.4396 97.216 44.4396C96.032 44.4396 95.36 43.8316 95.36 42.7436V35.4476L94.88 35.9916C94.4 36.5036 93.984 36.6316 93.504 36.2476C93.024 35.8636 92.96 35.4156 93.216 34.8396C94.912 31.5116 95.744 26.3596 96 20.7596H94.464C93.632 20.7596 93.152 20.2796 93.152 19.4476C93.152 18.6156 93.632 18.1356 94.464 18.1356H103.168C104.032 18.1356 104.48 18.6156 104.48 19.4476C104.48 20.2796 104.032 20.7596 103.168 20.7596H100.416C100.256 22.9036 99.904 25.0156 99.392 26.9676H101.632C102.976 26.9676 103.712 27.7036 103.712 29.0476V38.6476ZM120.928 41.8796C121.92 42.7116 122.336 43.9276 121.312 45.1436C120.32 46.3276 118.944 46.3596 117.856 45.1116C116.064 43.0636 115.264 39.8636 115.04 37.2076C114.56 40.9836 111.04 44.8556 106.88 46.1356C106.208 46.3276 105.696 46.1996 105.44 45.6556C105.184 45.1436 105.312 44.6316 105.888 44.2476C108.224 42.6156 109.76 40.5676 110.656 38.0716C109.728 38.3916 108.928 38.0076 108.672 36.8876C108.64 36.6956 108.576 36.5036 108.544 36.2796C107.968 41.0476 106.432 43.4476 103.68 45.6876C103.104 46.1356 102.528 46.1036 102.112 45.6876C101.664 45.2396 101.632 44.6956 102.048 44.0876C103.936 41.4636 104.48 39.0636 104.48 31.5116V28.4716C104.48 27.0316 105.216 26.2636 106.56 26.2636H120.608C121.44 26.2636 121.92 26.7436 121.92 27.5756C121.92 28.4076 121.44 28.8876 120.608 28.8876H109.152C108.928 28.8876 108.768 29.0156 108.768 29.2716V31.5116V31.7676C108.896 31.8636 109.056 31.9596 109.216 32.1196C110.112 32.9196 110.848 34.0716 111.36 35.1596C111.52 34.0396 111.616 32.8876 111.616 31.6396C111.616 30.1356 112.448 29.3356 113.952 29.3676C115.488 29.3996 116.352 30.1676 116.288 31.6396C116.256 32.5356 116.224 33.5276 116.128 34.4236C116.224 34.8396 116.32 35.2556 116.48 35.6716C117.088 34.6796 117.632 33.5596 118.176 32.3756C118.784 31.0636 119.808 31.0636 120.8 31.6076C121.76 32.1516 121.824 33.3036 121.088 34.3276C120.224 35.5436 119.008 36.7596 117.728 37.6876C117.632 37.7516 117.536 37.8156 117.44 37.8476C118.24 39.2556 119.392 40.5996 120.928 41.8796ZM100.192 37.7836V29.9116C100.192 29.6876 100.032 29.5276 99.808 29.5276H99.456C99.232 29.5276 99.072 29.6876 99.072 29.9116V38.1676H99.808C100.032 38.1676 100.192 38.0076 100.192 37.7836ZM157.632 36.7916C158.56 42.3276 158.016 44.8876 155.2 45.1436C153.12 45.3356 151.072 45.3356 148.832 45.1756C145.696 44.9516 144.96 44.0236 144.96 40.7276V35.9596H142.816C142.08 42.1676 137.024 45.3356 131.136 46.2316C130.336 46.3596 129.76 46.1036 129.6 45.3996C129.44 44.7596 129.696 44.1836 130.464 43.8956C135.136 42.1676 137.216 39.8316 137.792 35.9596H136C134.464 35.9596 133.6 35.0956 133.6 33.5596V19.7036C133.6 18.1676 134.464 17.3036 136 17.3036H151.808C153.344 17.3036 154.208 18.1676 154.208 19.7036V33.5596C154.208 35.0956 153.344 35.9596 151.808 35.9596H149.76V39.6076C149.76 40.8236 149.984 41.1436 150.816 41.2076C151.776 41.2716 152.8 41.3036 153.824 41.2076C154.784 41.1116 155.168 40.5036 155.264 36.9196C155.296 35.9916 155.712 35.6076 156.384 35.6076C157.152 35.6076 157.504 35.9916 157.632 36.7916ZM138.496 20.5676V22.5516H149.312V20.5676C149.312 20.3436 149.152 20.1836 148.928 20.1836H138.88C138.656 20.1836 138.496 20.3436 138.496 20.5676ZM138.496 25.3676V27.6716H149.312V25.3676H138.496ZM138.496 30.4876V32.6956C138.496 32.9196 138.656 33.0796 138.88 33.0796H148.928C149.152 33.0796 149.312 32.9196 149.312 32.6956V30.4876H138.496ZM191.264 17.3676C192.608 17.3676 193.344 18.1036 193.344 19.4476V29.1116C193.344 30.4876 192.544 31.1596 191.072 31.1596C189.6 31.1596 188.8 30.4876 188.8 29.1116V27.5436C187.296 28.5356 185.632 29.3676 184.192 29.9116C183.744 30.0716 183.296 30.1356 182.944 30.1036C182.976 30.5196 182.848 30.9356 182.624 31.3196C182.464 31.6076 182.208 31.9276 181.92 32.2476H189.28C190.624 32.2476 191.36 32.9836 191.36 34.3276V44.2476C191.36 45.7196 190.464 46.3596 188.864 46.3596C187.264 46.3596 186.368 45.7196 186.368 44.2476H174.688C174.688 45.6236 173.792 46.3276 172.192 46.3276C170.592 46.3276 169.696 45.6236 169.696 44.2476V34.3276C169.696 32.9836 170.432 32.2476 171.776 32.2476H177.44C177.632 31.6396 177.856 30.9996 178.048 30.3596C177.888 30.3916 177.664 30.3916 177.472 30.3916C176 30.3916 175.2 29.7196 175.2 28.4396V27.7996C173.504 28.9836 171.584 29.9756 169.984 30.5516C168.608 31.0636 167.456 30.6476 167.2 29.4316C166.944 28.1516 167.232 27.1276 168.768 26.8396C170.848 26.4556 173.248 25.8156 175.2 25.0156V20.3116C175.2 20.0876 175.04 19.9276 174.816 19.9276H168.288C167.488 19.9276 167.008 19.4476 167.008 18.6476C167.008 17.8476 167.488 17.3676 168.288 17.3676H177.664C179.008 17.3676 179.744 18.1036 179.744 19.4476V28.2796C180.192 28.1836 180.672 28.2156 181.184 28.4076C181.216 28.4396 181.28 28.4396 181.312 28.4716C181.088 27.4156 181.632 26.6476 182.912 26.3596C184.8 25.9436 186.976 25.3996 188.8 24.6636V20.3116C188.8 20.0876 188.64 19.9276 188.416 19.9276H181.888C181.088 19.9276 180.608 19.4476 180.608 18.6476C180.608 17.8476 181.088 17.3676 181.888 17.3676H191.264ZM171.552 24.6316C170.656 23.9276 169.6 23.1276 168.576 22.4236C168.032 22.0396 167.872 21.5276 168.096 20.9836C168.32 20.4076 168.8 20.2476 169.472 20.3756C170.912 20.6636 172.288 21.1116 173.504 21.6876C174.72 22.2636 175.104 23.2236 174.4 24.3116C173.696 25.3996 172.672 25.4956 171.552 24.6316ZM181.792 22.4236C181.28 22.0396 181.12 21.5596 181.344 21.0476C181.568 20.5036 181.984 20.3436 182.624 20.4716C184 20.7596 185.312 21.1756 186.496 21.7196C187.648 22.2636 187.936 23.1916 187.264 24.2476C186.592 25.2716 185.632 25.3676 184.608 24.5356C183.776 23.8636 182.752 23.1596 181.792 22.4236ZM186.368 35.2556C186.368 35.0316 186.208 34.8716 185.984 34.8716H175.072C174.848 34.8716 174.688 35.0316 174.688 35.2556V36.8556H186.368V35.2556ZM174.688 41.6236H186.368V39.4156H174.688V41.6236ZM229.504 41.8156C230.496 41.8156 231.072 42.3596 231.072 43.3516C231.072 44.3436 230.496 44.8876 229.504 44.8876H204.448C203.456 44.8876 202.88 44.3436 202.88 43.3516C202.88 42.3596 203.456 41.8156 204.448 41.8156H214.784V35.0316H208.064C207.136 35.0316 206.592 34.5196 206.592 33.5276C206.592 32.5356 207.136 32.0236 208.064 32.0236H214.784V26.5836H209.984C208.704 28.9836 207.04 31.1596 205.248 32.6956C204.64 33.2076 204.064 33.3036 203.552 32.8876C203.008 32.4396 202.944 31.8316 203.328 31.1916C205.248 27.9276 206.4 24.2156 207.136 19.7036C207.424 17.8476 208.512 17.1436 210.208 17.3996C211.872 17.6556 212.672 18.7116 212.224 20.6956C212 21.6876 211.68 22.7116 211.296 23.7036H214.784V18.5836C214.784 17.0156 215.744 16.1516 217.536 16.1516C219.328 16.1516 220.288 17.0156 220.288 18.5836V23.5756H227.808C228.768 23.5756 229.28 24.0876 229.28 25.0796C229.28 26.0716 228.736 26.5836 227.808 26.5836H220.288V32.0236H226.912C227.872 32.0236 228.384 32.5356 228.384 33.5276C228.384 34.5196 227.84 35.0316 226.912 35.0316H220.288V41.8156H229.504Z" fill="#594A39"/>
<path d="M13.4242 81.9356C13.1842 81.8396 12.9042 81.7036 12.5842 81.5276C12.2642 81.3676 11.9602 81.1516 11.6722 80.8796C11.3842 80.6076 11.1602 80.2796 11.0002 79.8956C10.8402 79.4316 10.7282 78.9756 10.6642 78.5276C10.6162 78.0796 10.6002 77.5596 10.6162 76.9676C10.6162 76.1356 10.6722 75.4156 10.7842 74.8076C10.9122 74.1836 11.1042 73.5516 11.3602 72.9116C11.3922 72.8636 11.4482 72.7276 11.5282 72.5036C11.6242 72.2636 11.7282 72.0076 11.8402 71.7356C11.9682 71.4636 12.0642 71.2556 12.1282 71.1116C12.2562 70.8396 12.4482 70.4796 12.7042 70.0316C12.9762 69.5676 13.2642 69.1196 13.5682 68.6876C14.0322 67.9996 14.4242 67.4396 14.7442 67.0076C15.0642 66.5596 15.3682 66.1836 15.6562 65.8796C15.9602 65.5756 16.2882 65.2796 16.6402 64.9916C17.0082 64.7036 17.4642 64.3756 18.0082 64.0076C18.3602 63.7516 18.8082 63.5916 19.3522 63.5276C19.9122 63.4636 20.4562 63.5516 20.9842 63.7916C21.5122 64.0156 21.9042 64.4476 22.1602 65.0876C22.3362 65.4236 22.4162 65.8476 22.4002 66.3596C22.3842 66.8556 22.2882 67.3916 22.1122 67.9676C21.9362 68.5276 21.7122 69.0556 21.4402 69.5516C21.1682 70.0476 20.8642 70.4476 20.5282 70.7516C20.3202 70.9436 20.0402 70.9756 19.6882 70.8476C19.3522 70.7196 19.0722 70.5516 18.8482 70.3436C18.7042 70.0716 18.6242 69.9116 18.6082 69.8636C18.6082 69.8156 18.6402 69.7836 18.7042 69.7676C18.8002 69.6556 18.9282 69.4636 19.0882 69.1916C19.2482 68.9196 19.4082 68.6316 19.5682 68.3276C19.7282 68.0076 19.8402 67.7516 19.9042 67.5596C20.0322 66.8876 20.1202 66.4476 20.1682 66.2396C20.2162 66.0156 20.1682 65.8316 20.0242 65.6876C19.9602 65.6236 19.8642 65.5996 19.7362 65.6156C19.6242 65.6316 19.4322 65.7116 19.1602 65.8556C18.7922 66.0156 18.3522 66.3436 17.8402 66.8396C17.3442 67.3196 16.8482 67.8956 16.3522 68.5676C15.7122 69.4156 15.1762 70.1676 14.7442 70.8236C14.3122 71.4796 13.9842 72.1516 13.7602 72.8396C13.7282 72.9036 13.6722 73.0236 13.5922 73.1996C13.5282 73.3756 13.4962 73.4636 13.4962 73.4636C13.5122 73.5276 13.4882 73.6876 13.4242 73.9436C13.3602 74.1836 13.2882 74.3916 13.2082 74.5676C13.0322 75.3036 12.9282 76.0156 12.8962 76.7036C12.8642 77.3756 12.9042 77.9676 13.0162 78.4796C13.1442 78.9756 13.3282 79.3436 13.5682 79.5836C13.7762 79.7276 14.0402 79.7756 14.3602 79.7276C14.6802 79.6796 15.0482 79.5676 15.4642 79.3916C15.8802 79.2156 16.3282 79.0236 16.8082 78.8156C17.1922 78.6556 17.5442 78.4796 17.8642 78.2876C18.1842 78.0956 18.4242 77.9276 18.5842 77.7836C18.7122 77.6876 18.8722 77.5916 19.0642 77.4956C19.2722 77.3836 19.4482 77.3276 19.5922 77.3276C19.8162 77.2476 19.9842 77.3116 20.0962 77.5196C20.2082 77.7276 20.2642 77.9916 20.2642 78.3116C20.2642 78.5356 20.1042 78.8076 19.7842 79.1276C19.4642 79.4476 19.1122 79.7196 18.7282 79.9436C18.6002 80.0716 18.4242 80.1916 18.2002 80.3036C17.9922 80.3996 17.7762 80.4876 17.5522 80.5676C17.2162 80.8236 16.8002 81.0716 16.3042 81.3116C15.8082 81.5516 15.3042 81.7356 14.7922 81.8636C14.2962 81.9916 13.8402 82.0156 13.4242 81.9356ZM24.4537 79.8476C24.3897 79.7196 24.2457 79.5916 24.0217 79.4636C23.8137 79.3356 23.7097 79.2396 23.7097 79.1756C23.7097 79.1116 23.6697 79.0156 23.5897 78.8876C23.5257 78.7436 23.4617 78.6396 23.3977 78.5756C23.3177 78.4796 23.3417 78.2476 23.4697 77.8796C23.5977 77.4956 23.7897 77.0316 24.0457 76.4876C24.3017 75.9436 24.5817 75.3916 24.8857 74.8316C25.0137 74.7036 25.1417 74.5356 25.2697 74.3276C25.3977 74.1196 25.4937 73.9836 25.5577 73.9196C25.5577 73.8556 25.5817 73.7996 25.6297 73.7516C25.6777 73.6876 25.7337 73.6556 25.7977 73.6556L25.9897 73.2716C26.0217 73.2076 26.1177 73.0796 26.2777 72.8876C26.4537 72.6956 26.6617 72.4876 26.9017 72.2636C27.1417 72.0236 27.3817 71.7996 27.6217 71.5916C27.8777 71.3836 28.0857 71.2316 28.2457 71.1356C28.5817 70.9116 28.9257 70.8076 29.2777 70.8236C29.6457 70.8396 29.9577 70.9516 30.2137 71.1596C30.2617 71.2076 30.3657 71.3036 30.5257 71.4476C30.7017 71.5916 30.8937 71.7516 31.1017 71.9276C31.3257 72.1036 31.5177 72.2636 31.6777 72.4076L32.5657 73.1996L32.1577 74.3996C31.9497 75.0396 31.8937 75.5996 31.9897 76.0796C32.0857 76.5596 32.2377 76.9756 32.4457 77.3276C32.5257 77.5036 32.6297 77.6396 32.7577 77.7356C32.9017 77.8316 33.0857 77.8956 33.3097 77.9276C33.4377 77.9436 33.5577 77.9916 33.6697 78.0716C33.7817 78.1516 33.8377 78.2796 33.8377 78.4556C33.8377 78.8396 33.7657 79.1196 33.6217 79.2956C33.4937 79.4556 33.3497 79.5516 33.1897 79.5836C32.6617 79.6476 32.1577 79.5916 31.6777 79.4156C31.1977 79.2396 30.7657 78.7836 30.3817 78.0476C30.3177 77.9516 30.2297 77.7756 30.1177 77.5196C30.0217 77.2476 29.9657 77.0716 29.9497 76.9916C29.8857 77.0716 29.7977 77.1756 29.6857 77.3036C29.5897 77.4156 29.4937 77.5196 29.3977 77.6156C28.2617 78.7676 27.2857 79.5196 26.4697 79.8716C25.6697 80.2076 24.9977 80.1996 24.4537 79.8476ZM25.7737 77.8556C25.8857 77.8716 26.0617 77.8156 26.3017 77.6876C26.5417 77.5436 26.8617 77.3116 27.2617 76.9916C27.8057 76.5276 28.2537 76.1436 28.6057 75.8396C28.9577 75.5356 29.3017 75.1436 29.6377 74.6636L30.1657 73.7996C30.0057 73.4316 29.8617 73.1916 29.7337 73.0796C29.6057 72.9676 29.4777 72.9116 29.3497 72.9116C29.1417 72.9116 28.8937 73.0476 28.6057 73.3196C28.3177 73.5756 27.9897 73.9596 27.6217 74.4716C27.2697 74.9676 26.8697 75.5916 26.4217 76.3436C26.2137 76.6956 26.0537 77.0396 25.9417 77.3756C25.8297 77.6956 25.7737 77.8556 25.7737 77.8556ZM36.9646 79.7036C36.8206 79.5916 36.6606 79.4476 36.4846 79.2716C36.3246 79.0956 36.2686 78.8476 36.3166 78.5276C36.3646 78.0796 36.4286 77.6876 36.5086 77.3516C36.5886 76.9996 36.6846 76.5996 36.7966 76.1516C36.8286 75.9596 36.9086 75.6316 37.0366 75.1676C37.1806 74.7036 37.3486 74.1996 37.5406 73.6556C37.7326 73.1116 37.9326 72.5996 38.1406 72.1196C38.3486 71.6236 38.5326 71.2556 38.6926 71.0156C38.8686 70.8556 39.1246 70.7756 39.4606 70.7756C39.8126 70.7756 40.0526 70.8396 40.1806 70.9676C40.3566 71.1116 40.4126 71.3676 40.3486 71.7356C40.2846 72.0876 40.0606 72.6396 39.6766 73.3916C39.5966 73.5836 39.4926 73.7916 39.3646 74.0156C39.2526 74.2236 39.1726 74.3996 39.1246 74.5436C39.0766 74.6716 39.0926 74.7276 39.1726 74.7116C39.2686 74.5356 39.4446 74.3356 39.7006 74.1116C39.9566 73.8716 40.2286 73.6396 40.5166 73.4156C40.8046 73.1916 41.0766 72.9916 41.3326 72.8156C41.5886 72.6396 41.7646 72.5276 41.8606 72.4796C41.9886 72.3996 42.1326 72.3356 42.2926 72.2876C42.4686 72.2236 42.5886 72.1756 42.6526 72.1436C43.0206 71.9676 43.4206 71.9036 43.8526 71.9516C44.3006 71.9836 44.5726 72.1196 44.6686 72.3596C44.6846 72.4876 44.7326 72.5836 44.8126 72.6476C44.9086 72.7116 44.9566 72.7436 44.9566 72.7436C45.0206 72.7436 45.0526 72.7676 45.0526 72.8156C45.0686 72.8636 45.0766 72.8876 45.0766 72.8876C45.0766 72.9996 44.9646 73.1596 44.7406 73.3676C44.5326 73.5756 44.3006 73.6876 44.0446 73.7036C43.8366 73.7196 43.6526 73.7596 43.4926 73.8236C43.3326 73.8876 43.1406 73.9676 42.9166 74.0636C42.3086 74.4156 41.7566 74.7276 41.2606 74.9996C40.7806 75.2716 40.2846 75.6876 39.7726 76.2476C39.6606 76.3756 39.5406 76.4956 39.4126 76.6076C39.2846 76.7196 39.1566 76.8796 39.0286 77.0876C38.9486 77.1676 38.8686 77.3436 38.7886 77.6156C38.7086 77.8876 38.6366 78.1516 38.5726 78.4076C38.5246 78.6476 38.5006 78.7916 38.5006 78.8396C38.5006 78.8396 38.4766 78.9196 38.4286 79.0796C38.3806 79.2236 38.3006 79.3676 38.1886 79.5116C37.9966 79.7676 37.8046 79.9276 37.6126 79.9916C37.4366 80.0556 37.2206 79.9596 36.9646 79.7036ZM49.357 80.0156C49.149 80.0636 48.877 80.0316 48.541 79.9196C48.205 79.7916 47.877 79.6396 47.557 79.4636C47.253 79.2716 47.045 79.1196 46.933 79.0076C46.821 78.8796 46.789 78.7676 46.837 78.6716C46.885 78.5596 46.965 78.5036 47.077 78.5036C47.141 78.5036 47.245 78.4396 47.389 78.3116C47.533 78.1676 47.621 77.9116 47.653 77.5436C47.685 77.3196 47.725 77.1276 47.773 76.9676C47.837 76.7916 47.869 76.6716 47.869 76.6076C47.885 76.5596 47.901 76.4316 47.917 76.2236C47.949 75.9996 47.997 75.8076 48.061 75.6476C48.125 75.3596 48.221 74.9916 48.349 74.5436C48.477 74.0796 48.605 73.6316 48.733 73.1996C48.877 72.7516 48.989 72.4076 49.069 72.1676C49.101 71.9916 49.173 71.7676 49.285 71.4956C49.397 71.2236 49.493 71.0076 49.573 70.8476C49.733 70.3996 49.949 69.8556 50.221 69.2156C50.509 68.5756 50.805 67.9356 51.109 67.2956C51.413 66.6396 51.677 66.0876 51.901 65.6396C52.141 65.1756 52.293 64.8956 52.357 64.7996C52.485 64.6716 52.693 64.6236 52.981 64.6556C53.269 64.6876 53.501 64.7916 53.677 64.9676C53.821 65.1436 53.957 65.3276 54.085 65.5196C54.213 65.7116 54.181 65.9196 53.989 66.1436C53.925 66.2556 53.821 66.4316 53.677 66.6716C53.533 66.8956 53.421 67.0636 53.341 67.1756C53.213 67.5596 53.053 67.9356 52.861 68.3036C52.685 68.6716 52.493 69.0876 52.285 69.5516C52.077 69.9996 51.853 70.5596 51.613 71.2316C51.469 71.5356 51.349 71.8396 51.253 72.1436C51.157 72.4316 51.077 72.6156 51.013 72.6956C50.917 73.0476 50.813 73.3116 50.701 73.4876C50.605 73.6636 50.525 73.9436 50.461 74.3276C50.461 74.3276 50.541 74.2476 50.701 74.0876C50.877 73.9276 51.085 73.7276 51.325 73.4876C51.949 72.8156 52.509 72.3036 53.005 71.9516C53.501 71.5996 53.957 71.4156 54.373 71.3996C54.597 71.3836 54.837 71.4396 55.093 71.5676C55.365 71.6956 55.613 71.8556 55.837 72.0476C56.061 72.2236 56.213 72.4156 56.293 72.6236C56.421 72.9116 56.485 73.2876 56.485 73.7516C56.485 74.1996 56.413 74.6636 56.269 75.1436C56.141 75.6236 55.933 76.0476 55.645 76.4156C55.469 76.7196 55.253 77.0156 54.997 77.3036C54.757 77.5756 54.549 77.7756 54.373 77.9036C54.213 78.0476 54.053 78.1916 53.893 78.3356C53.749 78.4636 53.629 78.5676 53.533 78.6476C53.325 78.7916 53.157 78.9036 53.029 78.9836C52.901 79.0476 52.725 79.1196 52.501 79.1996C52.165 79.4396 51.701 79.6156 51.109 79.7276C50.517 79.8396 49.933 79.9356 49.357 80.0156ZM49.957 78.1916C50.069 78.1916 50.269 78.1676 50.557 78.1196C50.861 78.0716 51.141 77.9516 51.397 77.7596C52.149 77.3756 52.749 76.9516 53.197 76.4876C53.661 76.0236 53.989 75.5596 54.181 75.0956C54.373 74.6316 54.453 74.2156 54.421 73.8476C54.389 73.4796 54.189 73.3676 53.821 73.5116C53.469 73.6396 52.917 74.0796 52.165 74.8316C51.813 75.1516 51.509 75.4556 51.253 75.7436C50.997 76.0316 50.733 76.3356 50.461 76.6556C50.349 76.8316 50.237 76.9756 50.125 77.0876C50.029 77.1836 49.973 77.2956 49.957 77.4236C49.845 77.9356 49.845 78.1916 49.957 78.1916ZM61.9411 80.1596C61.6051 80.2236 61.3491 80.2076 61.1731 80.1116C61.0131 79.9996 60.8451 79.8636 60.6691 79.7036C60.4131 79.5756 60.1811 79.3996 59.9731 79.1756C59.7651 78.9356 59.6051 78.6876 59.4931 78.4316C59.3811 78.1756 59.3331 77.9756 59.3491 77.8316C59.3971 77.2716 59.5251 76.6636 59.7331 76.0076C59.9571 75.3516 60.2371 74.7116 60.5731 74.0876C60.9251 73.4636 61.3171 72.9116 61.7491 72.4316C62.1971 71.9356 62.6771 71.5756 63.1891 71.3516C63.5091 71.2236 63.8531 71.1756 64.2211 71.2076C64.5891 71.2396 64.8371 71.3916 64.9651 71.6636C65.2051 72.1276 65.1491 72.4236 64.7971 72.5516C64.7491 72.5516 64.6931 72.5756 64.6291 72.6236C64.5651 72.6556 64.5331 72.7036 64.5331 72.7676C64.5971 72.7996 64.7731 72.8076 65.0611 72.7916C65.3491 72.7596 65.6371 72.7116 65.9251 72.6476C66.2291 72.5676 66.4291 72.4876 66.5251 72.4076C66.6211 72.3596 66.6931 72.3356 66.7411 72.3356C66.7891 72.3356 66.9091 72.3516 67.1011 72.3836C67.3731 72.4636 67.5091 72.5596 67.5091 72.6716C67.5091 72.7356 67.5331 72.8396 67.5811 72.9836C67.6291 73.1116 67.6851 73.1756 67.7491 73.1756C67.8611 73.1916 67.8851 73.3036 67.8211 73.5116C67.7731 73.7196 67.5891 73.9356 67.2691 74.1596C66.9651 74.3516 66.7731 74.4796 66.6931 74.5436C66.6291 74.5916 66.6211 74.7036 66.6691 74.8796C66.7971 75.1836 66.7891 75.5516 66.6451 75.9836C66.5011 76.4156 66.2611 76.8636 65.9251 77.3276C65.5891 77.7916 65.1891 78.2316 64.7251 78.6476C64.2771 79.0476 63.8051 79.3916 63.3091 79.6796C62.8291 79.9516 62.3731 80.1116 61.9411 80.1596ZM62.0131 78.1436C62.0771 78.1436 62.1891 78.1116 62.3491 78.0476C62.5091 77.9676 62.6371 77.9036 62.7331 77.8556C62.7971 77.7916 62.8771 77.7196 62.9731 77.6396C63.0851 77.5436 63.1731 77.4876 63.2371 77.4716C63.3011 77.4716 63.3411 77.4476 63.3571 77.3996C63.3731 77.3356 63.4291 77.2156 63.5251 77.0396C63.6211 76.8476 63.8131 76.5676 64.1011 76.1996C64.4211 75.8476 64.6291 75.5676 64.7251 75.3596C64.8211 75.1356 64.8291 74.8956 64.7491 74.6396C64.7331 74.5756 64.6851 74.5356 64.6051 74.5196C64.5411 74.5036 64.4531 74.4636 64.3411 74.3996C64.1811 74.3996 64.0691 74.4396 64.0051 74.5196C63.9571 74.5836 63.8451 74.5436 63.6691 74.3996L63.2851 73.9196L62.8771 74.3276C62.6211 74.5836 62.3891 74.9036 62.1811 75.2876C61.9891 75.6716 61.8371 76.0636 61.7251 76.4636C61.6131 76.8636 61.5411 77.2156 61.5091 77.5196C61.4931 77.7596 61.5331 77.9196 61.6291 77.9996C61.7251 78.0796 61.8531 78.1276 62.0131 78.1436ZM71.5244 79.5356C71.4604 79.5356 71.3084 79.4796 71.0684 79.3676C70.8284 79.2396 70.6764 79.1436 70.6124 79.0796C70.5004 78.9516 70.4284 78.8156 70.3964 78.6716C70.3644 78.5116 70.3484 78.2076 70.3484 77.7596C70.3484 77.2476 70.4524 76.6716 70.6604 76.0316C70.8684 75.3756 71.2204 74.5036 71.7164 73.4156L72.7004 71.4236C72.7804 71.3116 72.8524 71.2156 72.9164 71.1356C72.9804 71.0396 73.0524 70.9516 73.1324 70.8716C73.1644 70.8716 73.2044 70.8716 73.2524 70.8716C73.3164 70.8716 73.3644 70.8796 73.3964 70.8956C73.5404 70.9116 73.7644 70.9996 74.0684 71.1596C74.3884 71.3196 74.5804 71.5596 74.6444 71.8796C74.6444 72.0876 74.6124 72.3356 74.5484 72.6236C74.4844 72.8956 74.2924 73.2556 73.9724 73.7036C73.8444 73.8636 73.7164 74.0956 73.5884 74.3996C73.4764 74.7036 73.3724 74.9916 73.2764 75.2636C73.2604 75.2956 73.2124 75.3756 73.1324 75.5036C73.0684 75.6156 73.0044 75.7356 72.9404 75.8636C72.8764 75.9756 72.8444 76.0476 72.8444 76.0796L72.7484 76.2956L73.7804 75.2876C74.5004 74.5676 75.1084 74.0556 75.6044 73.7516C76.1004 73.4476 76.5164 73.3196 76.8524 73.3676C77.2044 73.4156 77.4844 73.6156 77.6924 73.9676C77.8044 74.1276 77.8844 74.3036 77.9324 74.4956C77.9804 74.6716 78.0124 74.8796 78.0284 75.1196C78.0444 75.3596 78.0364 75.6636 78.0044 76.0316V77.3996C78.3084 77.3196 78.5404 77.2556 78.7004 77.2076C78.8604 77.1436 79.0204 77.0876 79.1804 77.0396C79.3084 77.0076 79.4364 76.9756 79.5644 76.9436C79.7084 76.9116 79.8844 76.8876 80.0924 76.8716C80.0764 77.0796 79.9884 77.3356 79.8284 77.6396C79.6684 77.9436 79.4684 78.2476 79.2284 78.5516C79.0044 78.8556 78.7564 79.1116 78.4844 79.3196C78.2284 79.5276 77.9884 79.6316 77.7644 79.6316C77.5564 79.6316 77.3164 79.5676 77.0444 79.4396C76.7724 79.2956 76.5404 79.0236 76.3484 78.6236C76.2844 78.4156 76.2204 78.1756 76.1564 77.9036C76.0924 77.6316 76.0604 77.3436 76.0604 77.0396V75.9836C76.0604 75.8876 76.0524 75.8236 76.0364 75.7916C76.0364 75.7436 76.0284 75.7196 76.0124 75.7196C75.9484 75.7196 75.7404 75.8876 75.3884 76.2236C75.0524 76.5596 74.7084 76.9116 74.3564 77.2796C73.6204 78.0476 73.0044 78.6156 72.5084 78.9836C72.0284 79.3516 71.7004 79.5356 71.5244 79.5356ZM92.3845 81.7916C92.3205 81.9516 92.1045 82.0316 91.7365 82.0316C91.3685 82.0316 91.0485 81.9276 90.7765 81.7196C90.5845 81.5276 90.4565 81.3756 90.3925 81.2636C90.3445 81.1676 90.3765 80.9916 90.4885 80.7356C90.6005 80.4956 90.7925 80.0636 91.0645 79.4396C91.1285 79.0556 91.2405 78.6716 91.4005 78.2876C91.5605 77.8876 91.6805 77.6076 91.7605 77.4476C91.8245 77.2236 91.9525 76.8556 92.1445 76.3436C92.3525 75.8156 92.5845 75.2316 92.8405 74.5916C93.1125 73.9516 93.3685 73.3516 93.6085 72.7916C93.8485 72.2156 94.0245 71.7836 94.1365 71.4956C94.4085 70.8556 94.6885 70.1836 94.9765 69.4796C95.2645 68.7756 95.6565 67.8876 96.1525 66.8156C96.2165 66.6556 96.1925 66.4876 96.0805 66.3116C95.9685 66.1356 95.7765 66.0476 95.5045 66.0476C95.3445 65.8716 95.2565 65.6876 95.2405 65.4956C95.2245 65.2876 95.3045 65.1436 95.4805 65.0636L97.6885 64.3196C98.4405 64.1436 99.2085 64.0956 99.9925 64.1756C100.793 64.2396 101.545 64.4556 102.249 64.8236C103.017 65.2716 103.577 65.7676 103.929 66.3116C104.281 66.8556 104.473 67.4076 104.505 67.9676C104.553 68.5116 104.489 69.0076 104.313 69.4556C104.185 69.7916 103.937 70.1596 103.569 70.5596C103.217 70.9596 102.801 71.3596 102.321 71.7596C101.857 72.1596 101.369 72.5276 100.857 72.8636C100.361 73.1836 99.8965 73.4316 99.4645 73.6076C99.0645 73.7996 98.6165 73.9996 98.1205 74.2076C97.6245 74.3996 97.1445 74.5676 96.6805 74.7116C96.4245 74.7756 96.1205 74.8076 95.7685 74.8076C95.4165 74.8076 95.1525 74.7756 94.9765 74.7116L94.5685 75.4796C94.4085 76.0556 94.1285 76.9116 93.7285 78.0476C93.3445 79.1836 92.8965 80.4316 92.3845 81.7916ZM101.913 82.2476C101.785 82.2956 101.569 82.3116 101.265 82.2956C100.977 82.2796 100.649 82.1516 100.281 81.9116C99.5765 81.4956 98.8725 80.9916 98.1685 80.3996C97.4645 79.8076 96.6725 79.0076 95.7925 77.9996C95.4565 77.5996 95.2005 77.1996 95.0245 76.7996C94.8645 76.3996 94.6565 75.8956 94.4005 75.2876L94.0645 73.9916L94.9765 73.3916L96.0325 74.2556C96.2885 74.8156 96.5845 75.3516 96.9205 75.8636C97.2725 76.3756 97.6245 76.8316 97.9765 77.2316C98.2645 77.5676 98.6565 77.9756 99.1525 78.4556C99.6485 78.9196 100.177 79.3676 100.737 79.7996C101.297 80.2316 101.801 80.5596 102.249 80.7836C102.345 80.8636 102.369 81.0156 102.321 81.2396C102.289 81.4796 102.225 81.7036 102.129 81.9116C102.049 82.1196 101.977 82.2316 101.913 82.2476ZM95.8645 72.8396C96.2325 72.8076 96.6325 72.7116 97.0645 72.5516C97.5125 72.3756 97.9845 72.1836 98.4805 71.9756C98.9445 71.7516 99.4005 71.5116 99.8485 71.2556C100.313 70.9836 100.729 70.6876 101.097 70.3676C101.481 70.0476 101.777 69.7036 101.985 69.3356C102.209 68.9676 102.305 68.5756 102.273 68.1596C102.273 67.9516 102.209 67.7196 102.081 67.4636C101.953 67.2076 101.785 66.9756 101.577 66.7676C101.385 66.5596 101.185 66.4236 100.977 66.3596C100.337 66.1996 99.8485 66.1036 99.5125 66.0716C99.1765 66.0396 98.9285 66.0876 98.7685 66.2156C98.6245 66.3436 98.5125 66.5676 98.4325 66.8876C98.4325 66.9356 98.3685 67.0876 98.2405 67.3436C98.1125 67.5996 97.9525 67.9276 97.7605 68.3276C97.5845 68.7116 97.4085 69.1276 97.2325 69.5756C96.7685 70.5196 96.4245 71.2156 96.2005 71.6636C95.9925 72.0956 95.8645 72.3836 95.8165 72.5276C95.7845 72.6716 95.8005 72.7756 95.8645 72.8396ZM107.293 80.1356C106.669 79.8796 106.237 79.4636 105.997 78.8876C105.757 78.3116 105.693 77.5436 105.805 76.5836C105.837 76.0876 105.821 75.7596 105.757 75.5996C105.693 75.4236 105.573 75.2556 105.397 75.0956C105.349 75.0316 105.237 74.9276 105.061 74.7836C104.885 74.6236 104.805 74.5036 104.821 74.4236C104.805 74.3116 104.829 74.1756 104.893 74.0156C104.957 73.8396 105.013 73.7436 105.061 73.7276C105.173 73.6796 105.285 73.6236 105.397 73.5596C105.525 73.4956 105.621 73.4796 105.685 73.5116C105.749 73.5116 105.845 73.5516 105.973 73.6316C106.117 73.7116 106.189 73.7836 106.189 73.8476C106.253 73.9596 106.349 73.9116 106.477 73.7036C106.621 73.4956 106.773 73.2316 106.933 72.9116C107.093 72.6556 107.293 72.4156 107.533 72.1916C107.773 71.9676 108.013 71.7676 108.253 71.5916C108.509 71.3996 108.725 71.2556 108.901 71.1596C108.981 71.1276 109.133 71.0796 109.357 71.0156C109.597 70.9516 109.845 70.9036 110.101 70.8716C110.357 70.8236 110.549 70.8076 110.677 70.8236C110.965 70.8396 111.269 70.9596 111.589 71.1836C111.909 71.4076 112.157 71.6156 112.333 71.8076C112.541 71.9516 112.677 72.1756 112.741 72.4796C112.821 72.7676 112.853 73.0716 112.837 73.3916C112.821 73.7116 112.757 73.9836 112.645 74.2076C112.597 74.3676 112.429 74.5916 112.141 74.8796C111.853 75.1676 111.533 75.4476 111.181 75.7196C110.845 75.9756 110.557 76.1516 110.317 76.2476C110.109 76.2956 109.861 76.3356 109.573 76.3676C109.285 76.3836 109.013 76.3836 108.757 76.3676C108.517 76.3356 108.349 76.2956 108.253 76.2476C108.141 76.1836 108.045 76.2076 107.965 76.3196C107.901 76.4156 107.845 76.6876 107.797 77.1356C107.781 77.3116 107.781 77.4636 107.797 77.5916C107.829 77.7196 107.861 77.8156 107.893 77.8796C108.005 78.0716 108.117 78.2156 108.229 78.3116C108.341 78.3916 108.549 78.4156 108.853 78.3836C109.157 78.3516 109.461 78.1676 109.765 77.8316C110.085 77.4796 110.373 77.1996 110.629 76.9916C110.693 76.8796 110.829 76.8076 111.037 76.7756C111.261 76.7276 111.525 76.7436 111.829 76.8236C112.005 76.9356 112.085 77.1116 112.069 77.3516C112.069 77.5916 111.941 77.9436 111.685 78.4076C111.637 78.5196 111.501 78.6876 111.277 78.9116C111.069 79.1196 110.837 79.3356 110.581 79.5596C110.341 79.7676 110.141 79.9196 109.981 80.0156C109.501 80.2716 109.029 80.3916 108.565 80.3756C108.101 80.3596 107.677 80.2796 107.293 80.1356ZM109.069 74.7356C109.309 74.6716 109.509 74.6076 109.669 74.5436C109.845 74.4796 110.013 74.3756 110.173 74.2316C110.333 74.0876 110.517 73.8716 110.725 73.5836C110.789 73.4076 110.821 73.2556 110.821 73.1276C110.837 72.9996 110.829 72.9196 110.797 72.8876C110.669 72.7596 110.525 72.7196 110.365 72.7676C110.221 72.7996 110.061 72.8796 109.885 73.0076C109.773 73.0556 109.613 73.1596 109.405 73.3196C109.213 73.4636 109.021 73.6316 108.829 73.8236C108.653 73.9996 108.509 74.1676 108.397 74.3276C108.301 74.4716 108.285 74.5596 108.349 74.5916C108.317 74.6556 108.405 74.6956 108.613 74.7116C108.837 74.7276 108.989 74.7356 109.069 74.7356ZM122.196 80.8076C121.988 80.8556 121.78 80.7996 121.572 80.6396C121.38 80.4956 121.244 80.3356 121.164 80.1596C121.068 79.9036 121.004 79.6636 120.972 79.4396C120.956 79.1996 120.94 78.9276 120.924 78.6236L120.9 77.8076L119.916 78.6956C119.372 79.2076 118.86 79.5756 118.38 79.7996C117.916 80.0076 117.492 80.1116 117.108 80.1116C116.932 80.0796 116.716 79.9676 116.46 79.7756C116.22 79.5676 115.996 79.3436 115.788 79.1036C115.596 78.8476 115.46 78.6396 115.38 78.4796C115.284 78.2556 115.252 77.9436 115.284 77.5436C115.332 77.1436 115.428 76.7036 115.572 76.2236C115.732 75.7436 115.924 75.2716 116.148 74.8076C116.388 74.3436 116.66 73.9436 116.964 73.6076C117.492 72.8076 118.148 72.3116 118.932 72.1196C119.716 71.9116 120.412 71.9756 121.02 72.3116C121.308 72.4556 121.516 72.5116 121.644 72.4796C121.772 72.4476 121.852 72.3436 121.884 72.1676C121.948 71.9116 122.02 71.6716 122.1 71.4476C122.18 71.2236 122.292 70.8876 122.436 70.4396C122.836 69.2236 123.18 68.2716 123.468 67.5836C123.772 66.8956 124.044 66.2956 124.284 65.7836C124.46 65.4156 124.636 65.1596 124.812 65.0156C124.988 64.8716 125.14 64.8076 125.268 64.8236C125.444 64.8236 125.66 64.8876 125.916 65.0156C126.188 65.1436 126.364 65.3196 126.444 65.5436C126.508 65.6876 126.532 65.8396 126.516 65.9996C126.516 66.1596 126.468 66.3276 126.372 66.5036C126.164 66.8876 125.916 67.3996 125.628 68.0396C125.356 68.6636 125.076 69.3516 124.788 70.1036C124.516 70.8556 124.26 71.5996 124.02 72.3356C123.78 73.0716 123.58 73.7196 123.42 74.2796C123.324 74.6316 123.244 75.0796 123.18 75.6236C123.132 76.1676 123.092 76.7276 123.06 77.3036C123.044 77.8636 123.044 78.3676 123.06 78.8156C123.076 79.2476 123.1 79.5276 123.132 79.6556C123.228 79.9756 123.228 80.2156 123.132 80.3756C123.036 80.5356 122.9 80.6396 122.724 80.6876C122.548 80.7516 122.372 80.7916 122.196 80.8076ZM118.236 77.9036C118.46 77.8236 118.66 77.7276 118.836 77.6156C119.012 77.5036 119.22 77.3596 119.46 77.1836C119.94 76.8156 120.284 76.4956 120.492 76.2236C120.716 75.9516 120.892 75.6156 121.02 75.2156C121.1 74.9756 121.1 74.7676 121.02 74.5916C120.956 74.4156 120.836 74.2476 120.66 74.0876C120.484 73.9436 120.26 73.8876 119.988 73.9196C119.716 73.9356 119.404 74.1036 119.052 74.4236C118.668 74.7756 118.34 75.1836 118.068 75.6476C117.796 76.1116 117.572 76.7756 117.396 77.6396C117.364 77.7996 117.42 77.9116 117.564 77.9756C117.708 78.0396 117.932 78.0156 118.236 77.9036ZM132.626 80.3036C132.466 80.1436 132.338 79.9276 132.242 79.6556C132.146 79.3676 132.05 79.0396 131.954 78.6716C131.922 78.5436 131.906 78.3996 131.906 78.2396C131.922 78.0796 131.922 77.9516 131.906 77.8556C131.858 77.9676 131.778 78.1116 131.666 78.2876C131.57 78.4636 131.474 78.5916 131.378 78.6716C131.314 78.7356 131.17 78.8636 130.946 79.0556C130.722 79.2316 130.498 79.3756 130.274 79.4876C129.746 79.8236 129.274 79.9836 128.858 79.9676C128.458 79.9356 128.106 79.7276 127.802 79.3436C127.546 79.1356 127.338 78.8716 127.178 78.5516C127.018 78.2316 126.986 77.8476 127.082 77.3996C127.114 76.8396 127.194 76.2956 127.322 75.7676C127.45 75.2236 127.714 74.5036 128.114 73.6076C128.45 72.9516 128.706 72.4396 128.882 72.0716C129.058 71.7036 129.17 71.4876 129.218 71.4236C129.458 71.3436 129.754 71.3516 130.106 71.4476C130.458 71.5276 130.65 71.6796 130.682 71.9036C130.778 72.0636 130.778 72.3676 130.682 72.8156C130.586 73.2476 130.394 73.7436 130.106 74.3036C129.882 74.8476 129.666 75.3756 129.458 75.8876C129.266 76.3996 129.146 76.8316 129.098 77.1836C129.066 77.5356 129.162 77.7516 129.386 77.8316C129.53 77.9116 129.738 77.9036 130.01 77.8076C130.298 77.7116 130.634 77.4236 131.018 76.9436C131.402 76.4636 131.81 75.7036 132.242 74.6636C132.37 74.3436 132.466 74.0636 132.53 73.8236C132.594 73.5676 132.634 73.2876 132.65 72.9836C132.618 72.7916 132.666 72.5916 132.794 72.3836C132.938 72.1756 133.106 72.0156 133.298 71.9036C133.362 71.8236 133.45 71.7516 133.562 71.6876C133.674 71.6076 133.746 71.6076 133.778 71.6876L134.162 71.6636C134.226 71.6476 134.298 71.7116 134.378 71.8556C134.458 71.9996 134.538 72.1036 134.618 72.1676C134.794 72.3116 134.874 72.6236 134.858 73.1036C134.842 73.5836 134.65 74.2556 134.282 75.1196C133.978 75.7756 133.77 76.2716 133.658 76.6076C133.562 76.9436 133.506 77.2716 133.49 77.5916C133.49 77.8796 133.514 78.1276 133.562 78.3356C133.61 78.5276 133.754 78.7276 133.994 78.9356C134.17 79.0476 134.266 79.2396 134.282 79.5116C134.314 79.7676 134.322 79.9916 134.306 80.1836C134.274 80.3276 134.146 80.4236 133.922 80.4716C133.714 80.5356 133.482 80.5516 133.226 80.5196C132.986 80.4876 132.786 80.4156 132.626 80.3036ZM139.877 80.1596C139.525 80.1596 139.261 80.1436 139.085 80.1116C138.925 80.0796 138.805 80.0316 138.725 79.9676C138.645 79.9036 138.541 79.8156 138.413 79.7036C138.349 79.5756 138.237 79.4156 138.077 79.2236C137.917 79.0156 137.805 78.8796 137.741 78.8156C137.677 78.5756 137.653 78.2476 137.669 77.8316C137.701 77.4156 137.773 76.9676 137.885 76.4876C137.997 76.0076 138.133 75.5756 138.293 75.1916C138.357 75.0636 138.413 74.9356 138.461 74.8076C138.509 74.6796 138.533 74.6156 138.533 74.6156C138.533 74.5356 138.629 74.3436 138.821 74.0396C139.029 73.7356 139.253 73.4156 139.493 73.0796C139.749 72.7436 139.957 72.5036 140.117 72.3596C140.229 72.2316 140.397 72.0956 140.621 71.9516C140.861 71.8076 141.069 71.7036 141.245 71.6396C141.421 71.5756 141.661 71.4956 141.965 71.3996C142.269 71.2876 142.541 71.2316 142.781 71.2316C143.005 71.2316 143.245 71.2796 143.501 71.3756C143.757 71.4716 143.973 71.6396 144.149 71.8796C144.437 72.1676 144.621 72.5116 144.701 72.9116C144.781 73.3116 144.789 73.6556 144.725 73.9436C144.645 74.2636 144.485 74.5276 144.245 74.7356C144.005 74.9276 143.749 75.0316 143.477 75.0476C143.205 75.0476 142.965 74.9356 142.757 74.7116C142.693 74.5836 142.661 74.4796 142.661 74.3996C142.661 74.3036 142.693 74.1676 142.757 73.9916C142.821 73.7676 142.853 73.5676 142.853 73.3916C142.853 73.2156 142.781 73.1276 142.637 73.1276C142.429 73.1276 142.261 73.1916 142.133 73.3196C142.005 73.4316 141.813 73.6236 141.557 73.8956C141.445 74.0236 141.301 74.2076 141.125 74.4476C140.949 74.6876 140.773 74.9516 140.597 75.2396C140.437 75.5116 140.293 75.7916 140.165 76.0796C139.989 76.6076 139.877 76.9516 139.829 77.1116C139.797 77.2556 139.781 77.3276 139.781 77.3276C139.781 77.3916 139.773 77.4556 139.757 77.5196C139.741 77.5676 139.733 77.6236 139.733 77.6876C139.733 77.8796 139.845 78.0316 140.069 78.1436C140.245 78.2556 140.389 78.3116 140.501 78.3116C140.629 78.2956 140.869 78.2076 141.221 78.0476C141.477 77.9196 141.717 77.7516 141.941 77.5436C142.181 77.3356 142.429 77.1516 142.685 76.9916C142.861 76.8796 142.997 76.7836 143.093 76.7036C143.205 76.6236 143.261 76.6156 143.261 76.6796C143.261 76.7436 143.285 76.7756 143.333 76.7756C143.381 76.7756 143.437 76.7436 143.501 76.6796C143.597 76.5516 143.717 76.5036 143.861 76.5356C144.005 76.5516 144.133 76.5916 144.245 76.6556C144.373 76.7196 144.437 76.7756 144.437 76.8236C144.405 76.9676 144.437 77.0876 144.533 77.1836C144.533 77.2476 144.509 77.3356 144.461 77.4476C144.429 77.5436 144.381 77.6236 144.317 77.6876C144.237 77.7996 144.117 77.9596 143.957 78.1676C143.813 78.3756 143.677 78.5596 143.549 78.7196C143.421 78.8796 143.357 78.9596 143.357 78.9596C143.293 78.9436 143.229 78.9596 143.165 79.0076C143.117 79.0556 143.061 79.1116 142.997 79.1756C142.869 79.2876 142.749 79.3756 142.637 79.4396C142.525 79.4876 142.437 79.5116 142.373 79.5116C142.261 79.5756 142.173 79.6156 142.109 79.6316C142.061 79.6476 142.037 79.6876 142.037 79.7516C141.877 79.9116 141.589 80.0236 141.173 80.0876C140.757 80.1356 140.325 80.1596 139.877 80.1596ZM150.566 81.7916C149.782 81.7756 149.278 81.5516 149.054 81.1196C148.846 80.7036 148.79 80.1756 148.886 79.5356C148.982 79.2316 149.038 78.9596 149.054 78.7196C149.086 78.4636 149.158 78.3036 149.27 78.2396C149.27 78.2396 149.278 78.2156 149.294 78.1676C149.326 78.1196 149.318 78.0716 149.27 78.0236C149.27 77.8156 149.342 77.5276 149.486 77.1596C149.518 77.0636 149.558 76.9516 149.606 76.8236C149.67 76.6796 149.702 76.6076 149.702 76.6076C149.622 76.4796 149.622 76.3756 149.702 76.2956C149.782 76.2156 149.862 76.1436 149.942 76.0796C150.038 75.9996 150.046 75.9116 149.966 75.8156C149.934 75.7516 149.974 75.6076 150.086 75.3836C150.198 75.1436 150.326 74.8956 150.47 74.6396C150.614 74.3836 150.71 74.1836 150.758 74.0396C150.758 74.0076 150.798 73.8956 150.878 73.7036C150.958 73.5116 151.054 73.2876 151.166 73.0316C151.278 72.7756 151.382 72.5436 151.478 72.3356C151.59 72.1276 151.662 71.9916 151.694 71.9276C151.854 71.8476 151.79 71.7916 151.502 71.7596C151.214 71.7276 150.91 71.7196 150.59 71.7356C150.094 71.7196 149.694 71.6956 149.39 71.6636C149.102 71.6316 148.862 71.5596 148.67 71.4476C148.478 71.2236 148.454 70.9596 148.598 70.6556C148.742 70.3356 148.974 70.1676 149.294 70.1516C149.502 70.1356 149.662 70.1276 149.774 70.1276C149.902 70.1276 150.062 70.1196 150.254 70.1036C150.462 70.0716 150.782 70.0316 151.214 69.9836L152.438 69.8876L152.51 69.4796C152.638 69.2716 152.726 69.1356 152.774 69.0716C152.822 69.0076 152.854 68.9436 152.87 68.8796C152.886 68.7996 152.91 68.6636 152.942 68.4716C152.942 68.4716 153.014 68.3436 153.158 68.0876C153.302 67.8156 153.39 67.5356 153.422 67.2476C153.614 66.9276 153.782 66.6396 153.926 66.3836C154.07 66.1116 154.158 65.9436 154.19 65.8796C154.462 65.4796 154.726 65.2636 154.982 65.2316C155.254 65.1996 155.51 65.2636 155.75 65.4236C155.894 65.5036 156.03 65.6076 156.158 65.7356C156.286 65.8476 156.366 65.9996 156.398 66.1916C156.43 66.3676 156.358 66.5996 156.182 66.8876C156.15 66.9516 156.102 67.0716 156.038 67.2476C155.974 67.4076 155.926 67.5436 155.894 67.6556C155.798 67.7676 155.678 67.9516 155.534 68.2076C155.406 68.4476 155.318 68.6956 155.27 68.9516C155.142 69.2236 155.062 69.3916 155.03 69.4556C154.998 69.5196 154.95 69.5516 154.886 69.5516C154.918 69.7116 155.014 69.7916 155.174 69.7916C155.334 69.7756 155.598 69.7596 155.966 69.7436C156.27 69.7116 156.478 69.6796 156.59 69.6476C156.718 69.5996 156.862 69.6156 157.022 69.6956C157.102 69.8076 157.142 69.9756 157.142 70.1996C157.158 70.4076 157.134 70.6156 157.07 70.8236C157.006 71.0156 156.918 71.1356 156.806 71.1836C156.726 71.1836 156.558 71.2316 156.302 71.3276C156.062 71.4076 155.758 71.4556 155.39 71.4716L154.118 71.5916L153.71 72.4076C153.598 72.6156 153.502 72.8076 153.422 72.9836C153.342 73.1436 153.286 73.2396 153.254 73.2716C153.254 73.3676 153.198 73.5116 153.086 73.7036C152.99 73.8956 152.886 74.1036 152.774 74.3276C152.678 74.5996 152.566 74.8476 152.438 75.0716C152.326 75.2956 152.27 75.4076 152.27 75.4076C152.206 75.4076 152.174 75.4556 152.174 75.5516C152.254 75.7436 152.23 75.8876 152.102 75.9836C152.022 76.0316 151.95 76.1036 151.886 76.1996C151.838 76.2796 151.814 76.3196 151.814 76.3196C151.878 76.3836 151.886 76.4636 151.838 76.5596C151.806 76.6556 151.758 76.7596 151.694 76.8716C151.694 76.9996 151.654 77.1836 151.574 77.4236C151.51 77.6636 151.438 77.8876 151.358 78.0956C151.374 78.3836 151.39 78.5676 151.406 78.6476C151.422 78.7276 151.462 78.7596 151.526 78.7436C151.606 78.7596 151.718 78.7596 151.862 78.7436C152.006 78.7276 152.11 78.7196 152.174 78.7196C152.414 78.6076 152.302 79.1676 151.838 80.3996C151.582 80.7996 151.326 81.1276 151.07 81.3836C150.814 81.6556 150.646 81.7916 150.566 81.7916ZM159.903 80.3276C159.519 80.3276 159.183 80.1276 158.895 79.7276C158.623 79.3116 158.455 78.8156 158.391 78.2396C158.407 78.1116 158.423 77.9276 158.439 77.6876C158.471 77.4476 158.503 77.1996 158.535 76.9436C158.599 76.6396 158.687 76.2476 158.799 75.7676C158.911 75.2876 159.031 74.8076 159.159 74.3276C159.287 73.8316 159.399 73.4076 159.495 73.0556C159.591 72.6876 159.647 72.4716 159.663 72.4076C159.759 72.1836 159.975 72.1276 160.311 72.2396C160.647 72.3516 160.935 72.5916 161.175 72.9596C161.271 73.0876 161.327 73.2396 161.343 73.4156C161.375 73.5916 161.351 73.8476 161.271 74.1836C161.207 74.5196 161.079 75.0156 160.887 75.6716C160.711 76.3116 160.575 76.8316 160.479 77.2316C160.399 77.6156 160.367 78.0236 160.383 78.4556C160.319 79.1916 160.255 79.6956 160.191 79.9676C160.127 80.2236 160.031 80.3436 159.903 80.3276ZM162.111 70.3676C162.047 70.4156 161.983 70.4396 161.919 70.4396C161.871 70.4236 161.783 70.3756 161.655 70.2956C161.543 70.2796 161.399 70.2076 161.223 70.0796C161.063 69.9356 160.919 69.7916 160.791 69.6476C160.679 69.5036 160.623 69.4156 160.623 69.3836C160.607 69.2236 160.615 68.9676 160.647 68.6156C160.695 68.2636 160.783 67.9356 160.911 67.6316C161.055 67.3116 161.247 67.1436 161.487 67.1276C161.551 67.1276 161.687 67.1596 161.895 67.2236C162.119 67.2876 162.351 67.3676 162.591 67.4636C162.719 67.7036 162.839 68.0156 162.951 68.3996C163.063 68.7836 163.071 69.1596 162.975 69.5276C162.895 69.8796 162.607 70.1596 162.111 70.3676ZM167.182 80.5676C166.974 80.5836 166.806 80.5596 166.678 80.4956C166.55 80.4476 166.39 80.3676 166.198 80.2556C165.846 79.9836 165.55 79.6476 165.31 79.2476C165.086 78.8476 164.982 78.5116 164.998 78.2396C165.03 78.0956 165.03 77.9676 164.998 77.8556C164.982 77.7436 164.974 77.6876 164.974 77.6876C164.878 77.6076 164.846 77.5596 164.878 77.5436C164.91 77.5116 164.934 77.4636 164.95 77.3996C165.078 77.3676 165.094 77.2796 164.998 77.1356C164.95 77.0076 164.974 76.7196 165.07 76.2716C165.182 75.8076 165.326 75.3756 165.502 74.9756C165.582 74.7996 165.694 74.5676 165.838 74.2796C165.998 73.9916 166.174 73.7036 166.366 73.4156C166.558 73.1116 166.734 72.8716 166.894 72.6956C167.246 72.2956 167.558 71.9676 167.83 71.7116C168.118 71.4556 168.438 71.2636 168.79 71.1356C169.11 71.0076 169.43 70.9516 169.75 70.9676C170.086 70.9836 170.382 71.0956 170.638 71.3036C171.022 71.4156 171.366 71.5916 171.67 71.8316C171.974 72.0556 172.182 72.3756 172.294 72.7916C172.422 73.2556 172.462 73.8076 172.414 74.4476C172.382 75.0716 172.11 75.8796 171.598 76.8716C171.294 77.4956 170.99 77.9996 170.686 78.3836C170.398 78.7676 170.046 79.1356 169.63 79.4876C169.326 79.7436 168.934 79.9676 168.454 80.1596C167.974 80.3516 167.55 80.4876 167.182 80.5676ZM169.27 76.9436C169.478 76.6556 169.638 76.3756 169.75 76.1036C169.878 75.8316 169.998 75.4556 170.11 74.9756C170.158 74.7996 170.182 74.5836 170.182 74.3276C170.198 74.0716 170.19 73.8396 170.158 73.6316C170.142 73.4076 170.086 73.2876 169.99 73.2716C169.782 73.1916 169.566 73.1916 169.342 73.2716C169.134 73.3356 168.886 73.5276 168.598 73.8476C168.342 74.1356 168.134 74.4076 167.974 74.6636C167.83 74.9036 167.694 75.1996 167.566 75.5516C167.454 75.8876 167.326 76.3276 167.182 76.8716C167.054 77.3996 167.046 77.8236 167.158 78.1436C167.286 78.4636 167.526 78.5516 167.878 78.4076C168.23 78.2636 168.694 77.7756 169.27 76.9436ZM183.677 79.7756C183.325 79.7436 183.029 79.6716 182.789 79.5596C182.565 79.4316 182.381 79.1836 182.237 78.8156C182.173 78.5596 182.141 78.2956 182.141 78.0236C182.157 77.7356 182.181 77.4636 182.213 77.2076C182.245 76.9356 182.261 76.7036 182.261 76.5116C182.261 76.4796 182.261 76.4156 182.261 76.3196C182.261 76.2236 182.261 76.1356 182.261 76.0556C182.229 75.8156 182.165 75.6716 182.069 75.6236C181.989 75.5596 181.845 75.5676 181.637 75.6476C181.301 75.8076 180.933 76.0236 180.533 76.2956C180.149 76.5516 179.741 76.8556 179.309 77.2076C178.893 77.5436 178.461 77.9036 178.013 78.2876C177.661 78.6716 177.397 78.9836 177.221 79.2236C177.061 79.4636 176.893 79.5836 176.717 79.5836C176.589 79.6476 176.453 79.6316 176.309 79.5356C176.165 79.4396 176.013 79.3276 175.853 79.1996C175.741 79.0716 175.605 78.9116 175.445 78.7196C175.301 78.5116 175.213 78.3756 175.181 78.3116C175.181 78.0556 175.197 77.8236 175.229 77.6156C175.277 77.4076 175.341 77.1916 175.421 76.9676C175.517 76.7436 175.629 76.4876 175.757 76.1996C175.821 76.0876 175.877 75.9756 175.925 75.8636C175.989 75.7356 176.061 75.5996 176.141 75.4556C176.205 75.2316 176.293 74.9756 176.405 74.6876C176.533 74.3996 176.653 74.1276 176.765 73.8716C176.941 73.4556 177.077 73.0956 177.173 72.7916C177.269 72.4876 177.349 72.1596 177.413 71.8076C177.397 71.7756 177.405 71.7276 177.437 71.6636C177.469 71.5996 177.517 71.5596 177.581 71.5436H177.605H177.629C177.741 71.4636 177.949 71.4556 178.253 71.5196C178.573 71.5676 178.813 71.6556 178.973 71.7836C179.309 72.0716 179.469 72.4476 179.453 72.9116C179.437 73.3756 179.197 73.9836 178.733 74.7356C178.621 74.9916 178.501 75.2316 178.373 75.4556C178.261 75.6636 178.205 75.8076 178.205 75.8876C178.205 75.8876 178.269 75.8396 178.397 75.7436C178.525 75.6476 178.677 75.5356 178.853 75.4076C179.029 75.2636 179.181 75.1516 179.309 75.0716C179.389 74.9916 179.565 74.8476 179.837 74.6396C180.109 74.4156 180.405 74.1836 180.725 73.9436C181.045 73.7036 181.301 73.5196 181.493 73.3916C181.669 73.2636 181.893 73.1356 182.165 73.0076C182.437 72.8636 182.605 72.7916 182.669 72.7916C182.829 72.7916 183.021 72.8476 183.245 72.9596C183.485 73.0716 183.701 73.2076 183.893 73.3676C184.101 73.5116 184.221 73.6476 184.253 73.7756C184.253 73.8396 184.245 73.9276 184.229 74.0396C184.213 74.1356 184.205 74.2236 184.205 74.3036C184.189 74.5596 184.181 74.8716 184.181 75.2396C184.197 75.5916 184.205 75.9516 184.205 76.3196C184.205 76.6716 184.173 76.9916 184.109 77.2796C184.109 77.2796 184.117 77.2956 184.133 77.3276C184.149 77.3436 184.165 77.3756 184.181 77.4236C184.165 77.4396 184.157 77.4716 184.157 77.5196C184.173 77.5516 184.181 77.5676 184.181 77.5676C184.213 77.6796 184.245 77.7916 184.277 77.9036C184.325 78.0156 184.381 78.1436 184.445 78.2876C184.509 78.4156 184.581 78.5836 184.661 78.7916C184.645 78.9996 184.525 79.2076 184.301 79.4156C184.093 79.6076 183.885 79.7276 183.677 79.7756ZM198.585 82.0796C197.897 81.6316 197.489 81.1836 197.361 80.7356C197.249 80.2876 197.409 79.9276 197.841 79.6556C197.937 79.5916 198.121 79.5836 198.393 79.6316C198.681 79.6796 198.897 79.7756 199.041 79.9196C199.361 80.2076 199.721 80.3836 200.121 80.4476C200.537 80.5276 201.041 80.4876 201.633 80.3276C202.305 80.1196 202.817 79.8636 203.169 79.5596C203.537 79.2396 203.945 78.8076 204.393 78.2636C204.729 77.8316 204.961 77.4076 205.089 76.9916C205.233 76.5756 205.297 76.1996 205.281 75.8636C205.281 75.5116 205.201 75.2476 205.041 75.0716C204.641 74.5116 204.145 74.1276 203.553 73.9196C202.961 73.6956 202.185 73.7116 201.225 73.9676C201.113 73.9836 200.945 74.0156 200.721 74.0636C200.497 74.1116 200.297 74.1596 200.121 74.2076C199.945 74.2396 199.849 74.2556 199.833 74.2556C199.721 74.2876 199.633 74.3036 199.569 74.3036C199.505 74.3036 199.425 74.3836 199.329 74.5436C199.249 74.6876 199.121 74.9996 198.945 75.4796C198.769 75.9436 198.505 76.6636 198.153 77.6396C197.817 78.6156 197.529 79.3116 197.289 79.7276C197.065 80.1276 196.865 80.3116 196.689 80.2796C196.513 80.2316 196.313 80.0556 196.089 79.7516C195.961 79.5276 195.817 79.2796 195.657 79.0076C195.513 78.7356 195.521 78.4556 195.681 78.1676C195.761 78.0236 195.825 77.8956 195.873 77.7836C195.921 77.6556 195.985 77.4396 196.065 77.1356C196.145 76.8956 196.297 76.4796 196.521 75.8876C196.761 75.2796 197.041 74.5756 197.361 73.7756C197.681 72.9596 198.017 72.1196 198.369 71.2556C198.721 70.3916 199.057 69.5756 199.377 68.8076C199.713 68.0396 199.993 67.3916 200.217 66.8636C200.441 66.3676 200.577 66.0076 200.625 65.7836C200.673 65.5596 200.657 65.4396 200.577 65.4236C200.577 65.3436 200.553 65.2716 200.505 65.2076C200.457 65.1276 200.441 65.0556 200.457 64.9916C200.457 64.9276 200.593 64.8396 200.865 64.7276C201.153 64.6156 201.457 64.5116 201.777 64.4156C202.097 64.3196 202.329 64.2876 202.473 64.3196C202.553 64.3196 202.649 64.3196 202.761 64.3196C202.873 64.3036 202.929 64.2636 202.929 64.1996C202.977 64.1996 203.129 64.1836 203.385 64.1516C203.641 64.1196 203.921 64.1196 204.225 64.1516C205.297 64.2476 206.177 64.5596 206.865 65.0876C207.553 65.5996 207.889 66.4236 207.873 67.5596C207.857 67.8316 207.745 68.1836 207.537 68.6156C207.329 69.0476 207.065 69.4796 206.745 69.9116C206.441 70.3436 206.113 70.7196 205.761 71.0396C205.553 71.2156 205.329 71.3996 205.089 71.5916C204.865 71.7676 204.665 71.9196 204.489 72.0476C204.329 72.1596 204.249 72.2156 204.249 72.2156C204.249 72.2156 204.313 72.2396 204.441 72.2876C204.569 72.3356 204.705 72.3836 204.849 72.4316C205.585 72.7036 206.161 73.0476 206.577 73.4636C207.009 73.8796 207.313 74.4556 207.489 75.1916C207.553 75.4316 207.553 75.7276 207.489 76.0796C207.441 76.4316 207.369 76.7836 207.273 77.1356C207.177 77.4716 207.073 77.7596 206.961 77.9996C206.849 78.1116 206.761 78.2316 206.697 78.3596C206.633 78.4716 206.601 78.5276 206.601 78.5276C206.601 78.5596 206.537 78.6876 206.409 78.9116C206.281 79.1196 206.129 79.3516 205.953 79.6076C205.777 79.8636 205.609 80.0876 205.449 80.2796C205.289 80.4076 205.057 80.5836 204.753 80.8076C204.465 81.0476 204.145 81.2796 203.793 81.5036C203.457 81.7276 203.137 81.8956 202.833 82.0076C202.385 82.1996 201.881 82.3276 201.321 82.3916C200.777 82.4716 200.257 82.4796 199.761 82.4156C199.265 82.3676 198.873 82.2556 198.585 82.0796ZM200.313 72.1196C200.313 72.1196 200.441 72.0956 200.697 72.0476C200.969 71.9836 201.265 71.9196 201.585 71.8556C201.905 71.7756 202.145 71.7036 202.305 71.6396C202.385 71.5916 202.497 71.5276 202.641 71.4476C202.801 71.3676 202.961 71.2476 203.121 71.0876C203.345 70.8796 203.585 70.6476 203.841 70.3916C204.097 70.1196 204.345 69.8316 204.585 69.5276C204.841 69.2236 205.057 68.8956 205.233 68.5436C205.601 67.9676 205.801 67.5516 205.833 67.2956C205.865 67.0396 205.777 66.8076 205.569 66.5996C205.425 66.4236 205.225 66.2956 204.969 66.2156C204.713 66.1196 204.433 66.0716 204.129 66.0716C203.841 66.0556 203.561 66.0876 203.289 66.1676C203.081 66.2316 202.921 66.3116 202.809 66.4076C202.697 66.4876 202.641 66.6156 202.641 66.7916C202.641 66.9356 202.593 67.0876 202.497 67.2476C202.417 67.3916 202.337 67.5036 202.257 67.5836C202.241 67.6956 202.185 67.8076 202.089 67.9196C202.009 68.0156 201.969 68.0636 201.969 68.0636C201.969 68.1276 201.865 68.3276 201.657 68.6636C201.465 68.9836 201.257 69.4476 201.033 70.0556C200.745 70.7436 200.553 71.2396 200.457 71.5436C200.361 71.8476 200.313 72.0396 200.313 72.1196ZM215.228 79.8716C214.748 80.1436 214.236 80.3036 213.692 80.3516C213.164 80.3836 212.668 80.3116 212.204 80.1356C211.74 79.9436 211.364 79.6636 211.076 79.2956C210.916 79.0876 210.764 78.7596 210.62 78.3116C210.476 77.8476 210.452 77.2236 210.548 76.4396C210.644 75.7036 210.868 74.9596 211.22 74.2076C211.588 73.4556 212.036 72.7916 212.564 72.2156C213.092 71.6396 213.668 71.2476 214.292 71.0396C214.516 70.9596 214.74 70.9036 214.964 70.8716C215.204 70.8236 215.516 70.8156 215.9 70.8476C216.268 70.8956 216.596 70.9916 216.884 71.1356C217.172 71.2636 217.38 71.4076 217.508 71.5676C217.764 71.8236 217.932 72.0716 218.012 72.3116C218.092 72.5516 218.124 72.7836 218.108 73.0076C218.028 73.5196 217.796 74.0716 217.412 74.6636C217.044 75.2556 216.524 75.6956 215.852 75.9836C215.58 76.0956 215.26 76.1676 214.892 76.1996C214.524 76.2316 214.02 76.1836 213.38 76.0556C212.996 75.9756 212.74 76.0156 212.612 76.1756C212.5 76.3356 212.452 76.6476 212.468 77.1116C212.5 77.3996 212.564 77.6556 212.66 77.8796C212.772 78.0876 212.972 78.2316 213.26 78.3116C213.628 78.3756 213.892 78.3836 214.052 78.3356C214.212 78.2716 214.412 78.1836 214.652 78.0716C214.78 77.9916 214.9 77.9036 215.012 77.8076C215.14 77.7116 215.26 77.6156 215.372 77.5196C215.5 77.4236 215.604 77.3516 215.684 77.3036C215.764 77.2396 215.844 77.1996 215.924 77.1836C216.004 77.1676 216.084 77.1596 216.164 77.1596C216.34 77.1756 216.508 77.2716 216.668 77.4476C216.828 77.6236 216.932 77.7916 216.98 77.9516C216.98 78.0796 216.9 78.2636 216.74 78.5036C216.58 78.7276 216.364 78.9676 216.092 79.2236C215.836 79.4636 215.548 79.6796 215.228 79.8716ZM214.916 74.5196C215.028 74.4716 215.188 74.3596 215.396 74.1836C215.62 74.0076 215.82 73.8236 215.996 73.6316C216.172 73.4236 216.26 73.2636 216.26 73.1516C216.26 72.9756 216.14 72.8236 215.9 72.6956C215.676 72.5676 215.38 72.5436 215.012 72.6236C214.884 72.6556 214.732 72.7436 214.556 72.8876C214.38 73.0316 214.204 73.1996 214.028 73.3916C213.852 73.5676 213.7 73.7436 213.572 73.9196C213.444 74.0796 213.356 74.2076 213.308 74.3036C213.372 74.3836 213.5 74.4476 213.692 74.4956C213.884 74.5436 214.092 74.5676 214.316 74.5676C214.556 74.5676 214.756 74.5516 214.916 74.5196ZM222.643 85.0076C222.467 85.0236 222.195 84.9836 221.827 84.8876C221.459 84.8076 221.099 84.6476 220.747 84.4076C220.315 84.0396 220.019 83.7356 219.859 83.4956C219.699 83.2556 219.611 83.0396 219.595 82.8476C219.595 82.6716 219.603 82.5116 219.619 82.3676C219.699 82.0156 219.867 81.8476 220.123 81.8636C220.395 81.8796 220.603 81.9516 220.747 82.0796C220.907 82.2076 221.075 82.3596 221.251 82.5356C221.443 82.7276 221.627 82.8956 221.803 83.0396C221.995 83.1836 222.155 83.2476 222.283 83.2316C222.603 83.1996 222.867 83.0636 223.075 82.8236C223.283 82.5996 223.491 82.2396 223.699 81.7436C223.827 81.3916 223.923 81.0876 223.987 80.8316C224.067 80.5756 224.147 80.2956 224.227 79.9916C224.307 79.6876 224.403 79.2796 224.515 78.7676C224.595 78.3996 224.651 78.1436 224.683 77.9996C224.731 77.8396 224.755 77.7436 224.755 77.7116C224.755 77.6636 224.747 77.6396 224.731 77.6396C224.731 77.6396 224.675 77.6716 224.563 77.7356C224.451 77.7996 224.291 77.8716 224.083 77.9516C223.891 78.0316 223.675 78.1116 223.435 78.1916C222.987 78.3356 222.539 78.4636 222.091 78.5756C221.643 78.6716 221.299 78.6796 221.059 78.5996C220.819 78.5036 220.627 78.3436 220.483 78.1196C220.339 77.8956 220.243 77.6556 220.195 77.3996C220.163 77.1436 220.155 76.9356 220.171 76.7756C220.203 76.6476 220.275 76.4396 220.387 76.1516C220.499 75.8636 220.627 75.5596 220.771 75.2396C220.915 74.9196 221.051 74.6396 221.179 74.3996C221.307 74.1596 221.411 74.0316 221.491 74.0156C221.555 73.9836 221.611 73.9196 221.659 73.8236C221.723 73.7116 221.755 73.6236 221.755 73.5596C221.771 73.4956 221.835 73.3916 221.947 73.2476C222.075 73.1036 222.435 72.8236 223.027 72.4076C223.619 71.8476 224.155 71.4316 224.635 71.1596C225.115 70.8716 225.555 70.7116 225.955 70.6796C226.067 70.6956 226.171 70.7036 226.267 70.7036C226.379 70.7036 226.435 70.7036 226.435 70.7036C226.435 70.7036 226.523 70.7276 226.699 70.7756C226.875 70.8236 227.051 70.8876 227.227 70.9676C227.435 71.0476 227.659 71.2396 227.899 71.5436C228.139 71.8316 228.347 72.1516 228.523 72.5036C228.699 72.8556 228.795 73.1756 228.811 73.4636C228.795 73.8156 228.715 74.1676 228.571 74.5196C228.427 74.8716 228.291 75.0396 228.163 75.0236C228.035 75.0076 227.891 75.0556 227.731 75.1676C227.587 75.2636 227.475 75.4556 227.395 75.7436C227.347 75.8076 227.291 75.9116 227.227 76.0556C227.163 76.1836 227.091 76.3116 227.011 76.4396C226.995 76.5196 226.955 76.7196 226.891 77.0396C226.827 77.3436 226.747 77.6876 226.651 78.0716C226.571 78.4396 226.499 78.7836 226.435 79.1036C226.371 79.4076 226.331 79.6076 226.315 79.7036C226.299 79.7676 226.259 79.9196 226.195 80.1596C226.131 80.3836 226.051 80.6396 225.955 80.9276C225.875 81.2156 225.787 81.4796 225.691 81.7196C225.627 82.1836 225.499 82.5836 225.307 82.9196C225.115 83.2716 224.907 83.5836 224.683 83.8556C224.315 84.2556 223.947 84.5356 223.579 84.6956C223.227 84.8716 222.915 84.9756 222.643 85.0076ZM222.187 76.6076C222.235 76.7356 222.363 76.7836 222.571 76.7516C222.795 76.7196 223.099 76.6476 223.483 76.5356C223.947 76.3436 224.291 76.1916 224.515 76.0796C224.755 75.9676 224.939 75.8236 225.067 75.6476C225.163 75.5196 225.251 75.3916 225.331 75.2636C225.427 75.1356 225.515 75.0236 225.595 74.9276C225.627 74.8956 225.675 74.8396 225.739 74.7596C225.819 74.6796 225.883 74.6076 225.931 74.5436C226.027 74.4796 226.107 74.4236 226.171 74.3756C226.251 74.3116 226.323 74.2556 226.387 74.2076C226.467 74.1756 226.539 74.1036 226.603 73.9916C226.667 73.8636 226.683 73.7356 226.651 73.6076C226.635 73.4956 226.563 73.3436 226.435 73.1516C226.307 72.9436 226.131 72.7836 225.907 72.6716C225.699 72.5436 225.451 72.6316 225.163 72.9356C224.891 73.2396 224.451 73.6476 223.843 74.1596C223.491 74.5436 223.179 74.9036 222.907 75.2396C222.635 75.5596 222.435 75.8396 222.307 76.0796C222.179 76.3036 222.139 76.4796 222.187 76.6076ZM232.898 80.3276C232.514 80.3276 232.178 80.1276 231.89 79.7276C231.618 79.3116 231.45 78.8156 231.386 78.2396C231.402 78.1116 231.418 77.9276 231.434 77.6876C231.466 77.4476 231.498 77.1996 231.53 76.9436C231.594 76.6396 231.682 76.2476 231.794 75.7676C231.906 75.2876 232.026 74.8076 232.154 74.3276C232.282 73.8316 232.394 73.4076 232.49 73.0556C232.586 72.6876 232.642 72.4716 232.658 72.4076C232.754 72.1836 232.97 72.1276 233.306 72.2396C233.642 72.3516 233.93 72.5916 234.17 72.9596C234.266 73.0876 234.322 73.2396 234.338 73.4156C234.37 73.5916 234.346 73.8476 234.266 74.1836C234.202 74.5196 234.074 75.0156 233.882 75.6716C233.706 76.3116 233.57 76.8316 233.474 77.2316C233.394 77.6156 233.362 78.0236 233.378 78.4556C233.314 79.1916 233.25 79.6956 233.186 79.9676C233.122 80.2236 233.026 80.3436 232.898 80.3276ZM235.106 70.3676C235.042 70.4156 234.978 70.4396 234.914 70.4396C234.866 70.4236 234.778 70.3756 234.65 70.2956C234.538 70.2796 234.394 70.2076 234.218 70.0796C234.058 69.9356 233.914 69.7916 233.786 69.6476C233.674 69.5036 233.618 69.4156 233.618 69.3836C233.602 69.2236 233.61 68.9676 233.642 68.6156C233.69 68.2636 233.778 67.9356 233.906 67.6316C234.05 67.3116 234.242 67.1436 234.482 67.1276C234.546 67.1276 234.682 67.1596 234.89 67.2236C235.114 67.2876 235.346 67.3676 235.586 67.4636C235.714 67.7036 235.834 68.0156 235.946 68.3996C236.058 68.7836 236.066 69.1596 235.97 69.5276C235.89 69.8796 235.602 70.1596 235.106 70.3676ZM239.073 79.5356C239.009 79.5356 238.857 79.4796 238.617 79.3676C238.377 79.2396 238.225 79.1436 238.161 79.0796C238.049 78.9516 237.977 78.8156 237.945 78.6716C237.913 78.5116 237.897 78.2076 237.897 77.7596C237.897 77.2476 238.001 76.6716 238.209 76.0316C238.417 75.3756 238.769 74.5036 239.265 73.4156L240.249 71.4236C240.329 71.3116 240.401 71.2156 240.465 71.1356C240.529 71.0396 240.601 70.9516 240.681 70.8716C240.713 70.8716 240.753 70.8716 240.801 70.8716C240.865 70.8716 240.913 70.8796 240.945 70.8956C241.089 70.9116 241.313 70.9996 241.617 71.1596C241.937 71.3196 242.129 71.5596 242.193 71.8796C242.193 72.0876 242.161 72.3356 242.097 72.6236C242.033 72.8956 241.841 73.2556 241.521 73.7036C241.393 73.8636 241.265 74.0956 241.137 74.3996C241.025 74.7036 240.921 74.9916 240.825 75.2636C240.809 75.2956 240.761 75.3756 240.681 75.5036C240.617 75.6156 240.553 75.7356 240.489 75.8636C240.425 75.9756 240.393 76.0476 240.393 76.0796L240.297 76.2956L241.329 75.2876C242.049 74.5676 242.657 74.0556 243.153 73.7516C243.649 73.4476 244.065 73.3196 244.401 73.3676C244.753 73.4156 245.033 73.6156 245.241 73.9676C245.353 74.1276 245.433 74.3036 245.481 74.4956C245.529 74.6716 245.561 74.8796 245.577 75.1196C245.593 75.3596 245.585 75.6636 245.553 76.0316V77.3996C245.857 77.3196 246.089 77.2556 246.249 77.2076C246.409 77.1436 246.569 77.0876 246.729 77.0396C246.857 77.0076 246.985 76.9756 247.113 76.9436C247.257 76.9116 247.433 76.8876 247.641 76.8716C247.625 77.0796 247.537 77.3356 247.377 77.6396C247.217 77.9436 247.017 78.2476 246.777 78.5516C246.553 78.8556 246.305 79.1116 246.033 79.3196C245.777 79.5276 245.537 79.6316 245.313 79.6316C245.105 79.6316 244.865 79.5676 244.593 79.4396C244.321 79.2956 244.089 79.0236 243.897 78.6236C243.833 78.4156 243.769 78.1756 243.705 77.9036C243.641 77.6316 243.609 77.3436 243.609 77.0396V75.9836C243.609 75.8876 243.601 75.8236 243.585 75.7916C243.585 75.7436 243.577 75.7196 243.561 75.7196C243.497 75.7196 243.289 75.8876 242.937 76.2236C242.601 76.5596 242.257 76.9116 241.905 77.2796C241.169 78.0476 240.553 78.6156 240.057 78.9836C239.577 79.3516 239.249 79.5356 239.073 79.5356ZM258.992 79.7756C258.64 79.7436 258.344 79.6716 258.104 79.5596C257.88 79.4316 257.696 79.1836 257.552 78.8156C257.488 78.5596 257.456 78.2956 257.456 78.0236C257.472 77.7356 257.496 77.4636 257.528 77.2076C257.56 76.9356 257.576 76.7036 257.576 76.5116C257.576 76.4796 257.576 76.4156 257.576 76.3196C257.576 76.2236 257.576 76.1356 257.576 76.0556C257.544 75.8156 257.48 75.6716 257.384 75.6236C257.304 75.5596 257.16 75.5676 256.952 75.6476C256.616 75.8076 256.248 76.0236 255.848 76.2956C255.464 76.5516 255.056 76.8556 254.624 77.2076C254.208 77.5436 253.776 77.9036 253.328 78.2876C252.976 78.6716 252.712 78.9836 252.536 79.2236C252.376 79.4636 252.208 79.5836 252.032 79.5836C251.904 79.6476 251.768 79.6316 251.624 79.5356C251.48 79.4396 251.328 79.3276 251.168 79.1996C251.056 79.0716 250.92 78.9116 250.76 78.7196C250.616 78.5116 250.528 78.3756 250.496 78.3116C250.496 78.0556 250.512 77.8236 250.544 77.6156C250.592 77.4076 250.656 77.1916 250.736 76.9676C250.832 76.7436 250.944 76.4876 251.072 76.1996C251.136 76.0876 251.192 75.9756 251.24 75.8636C251.304 75.7356 251.376 75.5996 251.456 75.4556C251.52 75.2316 251.608 74.9756 251.72 74.6876C251.848 74.3996 251.968 74.1276 252.08 73.8716C252.256 73.4556 252.392 73.0956 252.488 72.7916C252.584 72.4876 252.664 72.1596 252.728 71.8076C252.712 71.7756 252.72 71.7276 252.752 71.6636C252.784 71.5996 252.832 71.5596 252.896 71.5436H252.92H252.944C253.056 71.4636 253.264 71.4556 253.568 71.5196C253.888 71.5676 254.128 71.6556 254.288 71.7836C254.624 72.0716 254.784 72.4476 254.768 72.9116C254.752 73.3756 254.512 73.9836 254.048 74.7356C253.936 74.9916 253.816 75.2316 253.688 75.4556C253.576 75.6636 253.52 75.8076 253.52 75.8876C253.52 75.8876 253.584 75.8396 253.712 75.7436C253.84 75.6476 253.992 75.5356 254.168 75.4076C254.344 75.2636 254.496 75.1516 254.624 75.0716C254.704 74.9916 254.88 74.8476 255.152 74.6396C255.424 74.4156 255.72 74.1836 256.04 73.9436C256.36 73.7036 256.616 73.5196 256.808 73.3916C256.984 73.2636 257.208 73.1356 257.48 73.0076C257.752 72.8636 257.92 72.7916 257.984 72.7916C258.144 72.7916 258.336 72.8476 258.56 72.9596C258.8 73.0716 259.016 73.2076 259.208 73.3676C259.416 73.5116 259.536 73.6476 259.568 73.7756C259.568 73.8396 259.56 73.9276 259.544 74.0396C259.528 74.1356 259.52 74.2236 259.52 74.3036C259.504 74.5596 259.496 74.8716 259.496 75.2396C259.512 75.5916 259.52 75.9516 259.52 76.3196C259.52 76.6716 259.488 76.9916 259.424 77.2796C259.424 77.2796 259.432 77.2956 259.448 77.3276C259.464 77.3436 259.48 77.3756 259.496 77.4236C259.48 77.4396 259.472 77.4716 259.472 77.5196C259.488 77.5516 259.496 77.5676 259.496 77.5676C259.528 77.6796 259.56 77.7916 259.592 77.9036C259.64 78.0156 259.696 78.1436 259.76 78.2876C259.824 78.4156 259.896 78.5836 259.976 78.7916C259.96 78.9996 259.84 79.2076 259.616 79.4156C259.408 79.6076 259.2 79.7276 258.992 79.7756ZM265.304 80.1356C264.68 79.8796 264.248 79.4636 264.008 78.8876C263.768 78.3116 263.704 77.5436 263.816 76.5836C263.848 76.0876 263.832 75.7596 263.768 75.5996C263.704 75.4236 263.584 75.2556 263.408 75.0956C263.36 75.0316 263.248 74.9276 263.072 74.7836C262.896 74.6236 262.816 74.5036 262.832 74.4236C262.816 74.3116 262.84 74.1756 262.904 74.0156C262.968 73.8396 263.024 73.7436 263.072 73.7276C263.184 73.6796 263.296 73.6236 263.408 73.5596C263.536 73.4956 263.632 73.4796 263.696 73.5116C263.76 73.5116 263.856 73.5516 263.984 73.6316C264.128 73.7116 264.2 73.7836 264.2 73.8476C264.264 73.9596 264.36 73.9116 264.488 73.7036C264.632 73.4956 264.784 73.2316 264.944 72.9116C265.104 72.6556 265.304 72.4156 265.544 72.1916C265.784 71.9676 266.024 71.7676 266.264 71.5916C266.52 71.3996 266.736 71.2556 266.912 71.1596C266.992 71.1276 267.144 71.0796 267.368 71.0156C267.608 70.9516 267.856 70.9036 268.112 70.8716C268.368 70.8236 268.56 70.8076 268.688 70.8236C268.976 70.8396 269.28 70.9596 269.6 71.1836C269.92 71.4076 270.168 71.6156 270.344 71.8076C270.552 71.9516 270.688 72.1756 270.752 72.4796C270.832 72.7676 270.864 73.0716 270.848 73.3916C270.832 73.7116 270.768 73.9836 270.656 74.2076C270.608 74.3676 270.44 74.5916 270.152 74.8796C269.864 75.1676 269.544 75.4476 269.192 75.7196C268.856 75.9756 268.568 76.1516 268.328 76.2476C268.12 76.2956 267.872 76.3356 267.584 76.3676C267.296 76.3836 267.024 76.3836 266.768 76.3676C266.528 76.3356 266.36 76.2956 266.264 76.2476C266.152 76.1836 266.056 76.2076 265.976 76.3196C265.912 76.4156 265.856 76.6876 265.808 77.1356C265.792 77.3116 265.792 77.4636 265.808 77.5916C265.84 77.7196 265.872 77.8156 265.904 77.8796C266.016 78.0716 266.128 78.2156 266.24 78.3116C266.352 78.3916 266.56 78.4156 266.864 78.3836C267.168 78.3516 267.472 78.1676 267.776 77.8316C268.096 77.4796 268.384 77.1996 268.64 76.9916C268.704 76.8796 268.84 76.8076 269.048 76.7756C269.272 76.7276 269.536 76.7436 269.84 76.8236C270.016 76.9356 270.096 77.1116 270.08 77.3516C270.08 77.5916 269.952 77.9436 269.696 78.4076C269.648 78.5196 269.512 78.6876 269.288 78.9116C269.08 79.1196 268.848 79.3356 268.592 79.5596C268.352 79.7676 268.152 79.9196 267.992 80.0156C267.512 80.2716 267.04 80.3916 266.576 80.3756C266.112 80.3596 265.688 80.2796 265.304 80.1356ZM267.08 74.7356C267.32 74.6716 267.52 74.6076 267.68 74.5436C267.856 74.4796 268.024 74.3756 268.184 74.2316C268.344 74.0876 268.528 73.8716 268.736 73.5836C268.8 73.4076 268.832 73.2556 268.832 73.1276C268.848 72.9996 268.84 72.9196 268.808 72.8876C268.68 72.7596 268.536 72.7196 268.376 72.7676C268.232 72.7996 268.072 72.8796 267.896 73.0076C267.784 73.0556 267.624 73.1596 267.416 73.3196C267.224 73.4636 267.032 73.6316 266.84 73.8236C266.664 73.9996 266.52 74.1676 266.408 74.3276C266.312 74.4716 266.296 74.5596 266.36 74.5916C266.328 74.6556 266.416 74.6956 266.624 74.7116C266.848 74.7276 267 74.7356 267.08 74.7356ZM275.551 79.8476C275.503 79.8636 275.399 79.8556 275.239 79.8236C275.095 79.7916 274.943 79.7516 274.783 79.7036C274.639 79.6556 274.551 79.6156 274.519 79.5836C274.455 79.5196 274.367 79.4076 274.255 79.2476C274.143 79.0716 274.079 78.8396 274.063 78.5516C274.063 78.2636 274.199 77.9196 274.471 77.5196C274.551 77.3596 274.647 77.1196 274.759 76.7996C274.871 76.4796 274.983 76.1436 275.095 75.7916C275.223 75.4236 275.335 75.0956 275.431 74.8076C275.543 74.5196 275.623 74.3196 275.671 74.2076C275.703 73.9356 275.687 73.7436 275.623 73.6316C275.575 73.5036 275.439 73.4316 275.215 73.4156C275.055 73.4156 274.927 73.3596 274.831 73.2476C274.751 73.1356 274.711 72.9356 274.711 72.6476C274.743 72.4236 274.799 72.2316 274.879 72.0716C274.975 71.8956 275.103 71.7516 275.263 71.6396C275.423 71.5596 275.623 71.5036 275.863 71.4716C276.119 71.4396 276.367 71.4316 276.607 71.4476C276.847 71.4636 277.015 71.5196 277.111 71.6156C277.223 71.6796 277.311 71.8236 277.375 72.0476C277.455 72.2556 277.519 72.4716 277.567 72.6956C277.615 72.9196 277.647 73.0876 277.663 73.1996C277.823 73.0716 277.999 72.8956 278.191 72.6716C278.399 72.4316 278.607 72.2076 278.815 71.9996C279.071 71.8236 279.375 71.6476 279.727 71.4716C280.079 71.2796 280.335 71.1836 280.495 71.1836C280.671 71.1836 280.887 71.2716 281.143 71.4476C281.399 71.6076 281.559 71.7516 281.623 71.8796C281.783 72.1516 281.895 72.4396 281.959 72.7436C282.039 73.0316 281.991 73.2876 281.815 73.5116C281.655 73.7196 281.431 73.9276 281.143 74.1356C280.855 74.3276 280.495 74.3836 280.063 74.3036C279.967 74.2716 279.863 74.1516 279.751 73.9436C279.655 73.7356 279.599 73.5836 279.583 73.4876C279.583 73.4396 279.511 73.4876 279.367 73.6316C279.239 73.7596 279.079 73.9196 278.887 74.1116C278.711 74.3036 278.543 74.4796 278.383 74.6396C278.111 74.9756 277.823 75.4316 277.519 76.0076C277.215 76.5836 276.855 77.2796 276.439 78.0956C276.247 78.4956 276.087 78.8796 275.959 79.2476C275.831 79.5996 275.695 79.7996 275.551 79.8476Z" fill="#B8C318"/>
</svg>
