<svg width="288" height="96" viewBox="0 0 288 96" fill="none" xmlns="http://www.w3.org/2000/svg">
<path d="M85.472 38.1996C86.592 44.6636 84.736 47.1596 81.632 45.9756C80.192 45.4316 79.04 44.0876 78.144 41.9756C76.448 43.6396 74.432 45.0476 72.128 46.0716C71.328 46.4236 70.816 46.1676 70.464 45.5916C70.112 44.9836 70.272 44.4396 70.976 43.9276C73.408 42.1676 75.392 40.2156 76.96 38.1036C76.192 34.5196 75.808 29.7516 75.744 23.7356H69.056C68.832 23.7356 68.672 23.8956 68.672 24.1196V28.7276C68.672 37.4636 67.808 42.3276 65.056 45.7196C64.64 46.2316 64.064 46.3596 63.52 45.9756C62.976 45.5916 62.88 45.1116 63.104 44.4716C64.256 41.1436 64.384 37.1436 64.384 28.7916V23.1276C64.384 21.7836 65.248 21.0476 66.592 21.0476H75.744V17.8796C75.744 16.6956 76.512 16.0556 77.888 16.0556C78.88 16.0556 79.552 16.3756 79.84 16.9836C79.84 16.6956 79.968 16.4396 80.256 16.1516C80.672 15.7676 81.216 15.7356 81.76 16.1196C82.752 16.8236 83.648 17.6556 84.544 18.8716C85.056 19.5436 84.896 20.4396 83.968 21.0476H84.096C84.96 21.0476 85.44 21.5276 85.44 22.3916C85.44 23.2556 84.96 23.7356 84.096 23.7356H80.032C80.064 26.8716 80.128 29.5596 80.256 31.7996C80.736 30.4556 81.088 29.0476 81.344 27.5756C81.568 26.3276 82.592 25.7196 83.968 26.0716C85.28 26.4236 85.664 27.4156 85.376 28.5676C84.512 31.9916 83.136 35.3836 81.152 38.3596C81.408 39.4156 81.76 40.2156 82.176 40.7916C82.912 41.8156 83.136 41.0796 83.168 38.1356C83.168 37.3356 83.68 36.9196 84.32 36.9196C84.992 36.9196 85.344 37.3356 85.472 38.1996ZM60.864 21.5276C60.064 20.2796 59.264 19.1596 58.464 18.2316C58.016 17.6876 58.016 17.0796 58.432 16.5676C58.848 16.0556 59.328 16.0876 60.032 16.3436C61.184 16.7596 62.656 17.5916 63.872 18.5516C65.024 19.4476 65.088 20.6956 64 21.7516C62.848 22.8396 61.632 22.7436 60.864 21.5276ZM80.032 17.6236V17.8796C80.032 18.8716 80.032 19.9916 80.032 21.0476H81.792C81.664 20.9196 81.568 20.7916 81.504 20.6316C81.024 19.5436 80.544 18.5836 80.064 17.7196C80.064 17.6876 80.032 17.6556 80.032 17.6236ZM59.264 28.9516C58.432 27.6396 57.6 26.5836 56.832 25.6556C56.384 25.1436 56.416 24.5356 56.8 24.0236C57.184 23.4796 57.696 23.5116 58.304 23.7356C59.52 24.1836 60.8 24.8876 62.272 25.9756C63.392 26.7756 63.584 28.1196 62.464 29.2396C61.344 30.3596 60 30.0716 59.264 28.9516ZM74.176 28.1196H70.496C69.664 28.1196 69.152 27.6076 69.152 26.7756C69.152 25.9436 69.664 25.4316 70.496 25.4316H74.176C75.008 25.4316 75.52 25.9436 75.52 26.7756C75.52 27.6076 75.008 28.1196 74.176 28.1196ZM73.728 39.5756H70.944C69.76 39.5756 69.088 38.9036 69.088 37.7196V31.6716C69.088 30.4876 69.76 29.8156 70.944 29.8156H73.728C74.912 29.8156 75.584 30.4876 75.584 31.6716V37.7196C75.584 38.9036 74.784 39.5756 73.728 39.5756ZM62.144 32.1516C62.784 32.2796 63.136 32.7596 63.072 33.5276C62.752 36.9836 62.144 40.8236 61.536 43.4796C61.088 45.3996 59.744 46.1676 58.144 45.4636C56.448 44.7276 56.192 43.3836 57.024 41.7516C58.176 39.4796 59.52 36.4716 60.736 33.0156C60.992 32.2796 61.472 32.0236 62.144 32.1516ZM71.776 32.8876V36.5036C71.776 36.7276 71.936 36.8876 72.16 36.8876H72.512C72.736 36.8876 72.896 36.7276 72.896 36.5036V32.8876C72.896 32.6636 72.736 32.5036 72.512 32.5036H72.16C71.936 32.5036 71.776 32.6636 71.776 32.8876ZM107.52 25.3996C106.176 25.3996 105.44 24.6636 105.44 23.3196V19.3836C105.44 18.1996 106.208 17.5596 107.584 17.5596C108.96 17.5596 109.728 18.1996 109.728 19.3836V22.4556C109.728 22.6796 109.888 22.8396 110.112 22.8396H111.072V18.1356C111.072 16.8876 111.872 16.1836 113.344 16.1836C114.816 16.1836 115.616 16.8876 115.616 18.1356V22.8396H116.544C116.768 22.8396 116.928 22.6796 116.928 22.4556V19.4796C116.928 18.2636 117.696 17.6236 119.104 17.6236C120.512 17.6236 121.28 18.2636 121.28 19.4796V23.3196C121.28 24.6636 120.544 25.3996 119.2 25.3996H107.52ZM103.712 38.6476C103.712 39.9916 102.976 40.7276 101.632 40.7276H99.072V42.7436C99.072 43.8316 98.4 44.4396 97.216 44.4396C96.032 44.4396 95.36 43.8316 95.36 42.7436V35.4476L94.88 35.9916C94.4 36.5036 93.984 36.6316 93.504 36.2476C93.024 35.8636 92.96 35.4156 93.216 34.8396C94.912 31.5116 95.744 26.3596 96 20.7596H94.464C93.632 20.7596 93.152 20.2796 93.152 19.4476C93.152 18.6156 93.632 18.1356 94.464 18.1356H103.168C104.032 18.1356 104.48 18.6156 104.48 19.4476C104.48 20.2796 104.032 20.7596 103.168 20.7596H100.416C100.256 22.9036 99.904 25.0156 99.392 26.9676H101.632C102.976 26.9676 103.712 27.7036 103.712 29.0476V38.6476ZM120.928 41.8796C121.92 42.7116 122.336 43.9276 121.312 45.1436C120.32 46.3276 118.944 46.3596 117.856 45.1116C116.064 43.0636 115.264 39.8636 115.04 37.2076C114.56 40.9836 111.04 44.8556 106.88 46.1356C106.208 46.3276 105.696 46.1996 105.44 45.6556C105.184 45.1436 105.312 44.6316 105.888 44.2476C108.224 42.6156 109.76 40.5676 110.656 38.0716C109.728 38.3916 108.928 38.0076 108.672 36.8876C108.64 36.6956 108.576 36.5036 108.544 36.2796C107.968 41.0476 106.432 43.4476 103.68 45.6876C103.104 46.1356 102.528 46.1036 102.112 45.6876C101.664 45.2396 101.632 44.6956 102.048 44.0876C103.936 41.4636 104.48 39.0636 104.48 31.5116V28.4716C104.48 27.0316 105.216 26.2636 106.56 26.2636H120.608C121.44 26.2636 121.92 26.7436 121.92 27.5756C121.92 28.4076 121.44 28.8876 120.608 28.8876H109.152C108.928 28.8876 108.768 29.0156 108.768 29.2716V31.5116V31.7676C108.896 31.8636 109.056 31.9596 109.216 32.1196C110.112 32.9196 110.848 34.0716 111.36 35.1596C111.52 34.0396 111.616 32.8876 111.616 31.6396C111.616 30.1356 112.448 29.3356 113.952 29.3676C115.488 29.3996 116.352 30.1676 116.288 31.6396C116.256 32.5356 116.224 33.5276 116.128 34.4236C116.224 34.8396 116.32 35.2556 116.48 35.6716C117.088 34.6796 117.632 33.5596 118.176 32.3756C118.784 31.0636 119.808 31.0636 120.8 31.6076C121.76 32.1516 121.824 33.3036 121.088 34.3276C120.224 35.5436 119.008 36.7596 117.728 37.6876C117.632 37.7516 117.536 37.8156 117.44 37.8476C118.24 39.2556 119.392 40.5996 120.928 41.8796ZM100.192 37.7836V29.9116C100.192 29.6876 100.032 29.5276 99.808 29.5276H99.456C99.232 29.5276 99.072 29.6876 99.072 29.9116V38.1676H99.808C100.032 38.1676 100.192 38.0076 100.192 37.7836ZM138.112 24.4076C137.696 23.9276 137.664 23.4796 138.016 22.9036C138.848 21.6236 139.712 19.4156 140.224 17.5916C140.576 16.3116 141.408 15.9596 142.72 16.2796C143.68 16.5356 144.128 17.1436 144.096 17.9436H152.736C153.536 17.2396 154.976 17.1116 155.872 17.7516C156.896 18.4876 157.12 19.7356 156.256 20.8556C155.2 22.2316 154.016 23.1276 153.12 23.6396C152.672 23.8956 152.192 23.9596 151.776 23.5756C151.36 23.1916 151.328 22.7756 151.648 22.2956C151.968 21.8156 152.192 21.3996 152.384 20.9836C152.48 20.7596 152.32 20.5676 152.064 20.5676H149.76C149.536 21.2716 149.248 21.9436 148.896 22.5836C150.56 23.8956 152.352 24.4396 155.584 24.7916C157.184 24.9836 157.536 25.8476 157.312 27.0636C157.088 28.2796 156.064 28.7916 154.752 28.5036C151.392 27.7996 149.088 26.4876 147.52 24.3756C145.504 26.4556 142.464 27.7036 138.88 27.9916C138.176 28.0556 137.696 27.7036 137.6 27.1276C137.504 26.5196 137.76 26.0716 138.464 25.8796C142.528 24.7596 144.128 23.3196 144.96 20.5676H143.104C142.24 22.1996 140.96 23.6716 139.68 24.5036C139.168 24.8556 138.528 24.8876 138.112 24.4076ZM131.168 18.4876C130.592 18.0076 130.56 17.4636 130.912 16.8876C131.264 16.3436 131.744 16.2476 132.384 16.4076C133.664 16.7276 135.424 17.2716 136.896 18.0716C138.208 18.7756 138.304 19.9916 137.536 21.0476C136.704 22.1676 135.584 22.2956 134.496 21.3356C133.44 20.3756 132.192 19.3196 131.168 18.4876ZM133.152 28.6316C131.936 29.4956 130.528 29.3036 129.984 28.0876C129.376 26.8076 129.728 25.8156 131.232 25.1756C132.928 24.4396 134.336 23.6716 135.52 22.9996C136.128 22.6476 136.704 22.6476 137.152 23.1596C137.6 23.6076 137.632 24.2156 137.216 24.7916C136.224 26.1996 134.816 27.4796 133.152 28.6316ZM155.776 41.8156C157.344 42.2316 158.016 43.3196 157.504 44.7596C156.992 46.1996 155.84 46.5516 154.336 45.9116C152.288 45.0156 149.472 44.0236 146.912 43.0316C146.112 42.6796 145.856 42.1356 146.048 41.3996C146.08 41.2716 146.112 41.1436 146.176 41.0476H141.664L141.728 41.1436C142.496 42.4236 142.016 43.7036 140.384 44.3116C137.568 45.3676 134.272 46.0716 131.232 46.1996C130.496 46.2316 130.048 45.8796 129.92 45.2076C129.792 44.5036 129.984 43.8636 130.752 43.6396C133.056 42.9676 135.36 42.0396 137.312 41.0476H135.616C134.272 41.0476 133.536 40.3116 133.536 38.9676V30.3276C133.536 28.9836 134.272 28.2476 135.616 28.2476H152.384C153.728 28.2476 154.464 28.9836 154.464 30.3276V38.9676C154.464 40.3116 153.728 41.0476 152.384 41.0476H152C153.312 41.2396 154.592 41.4956 155.776 41.8156ZM138.656 31.1276V31.7996H149.344V31.1276C149.344 30.9036 149.184 30.7436 148.96 30.7436H139.04C138.816 30.7436 138.656 30.9036 138.656 31.1276ZM138.656 34.1036V35.0956H149.344V34.1036H138.656ZM138.656 37.3996V38.1676C138.656 38.3916 138.816 38.5516 139.04 38.5516H148.96C149.184 38.5516 149.344 38.3916 149.344 38.1676V37.3996H138.656ZM175.072 19.2556C174.72 20.9516 174.112 22.8716 173.344 24.7916V44.1836C173.344 45.6236 172.512 46.2316 171.008 46.2316C169.504 46.2316 168.672 45.6236 168.672 44.1836V33.0156C168.416 33.3356 168.16 33.6556 167.872 33.9436C167.424 34.4876 166.656 34.4236 166.24 34.0396C165.792 33.6236 165.728 33.1436 166.048 32.5356C168.512 28.0556 169.472 23.3516 170.272 18.1996C170.592 16.4716 171.68 15.9916 173.28 16.2156C174.4 16.3756 175.072 17.0476 175.2 18.0076C175.36 17.6556 175.712 17.4956 176.192 17.4956H191.872C192.64 17.4956 193.056 17.8796 193.056 18.6156C193.056 19.3836 192.64 19.7996 191.872 19.7996H185.888C185.696 20.0556 185.472 20.2796 185.248 20.5036H189.152C190.4 20.5036 191.072 21.1756 191.072 22.4236V28.2796H191.744C192.992 28.2796 193.664 28.9516 193.664 30.1996V31.5436C193.664 32.5036 193.248 33.0156 192.48 33.2076C192.576 33.3356 192.672 33.4316 192.736 33.5276C193.44 34.3596 193.28 35.1916 192.384 35.7356C191.52 36.2796 190.752 36.0236 190.304 35.0316C189.984 34.1996 189.504 33.2396 188.992 32.3116C188.768 31.8636 188.832 31.5116 189.184 31.2236C189.344 31.0956 189.536 31.0316 189.696 30.9996V30.8396C189.696 30.6156 189.536 30.4556 189.312 30.4556H183.68C184.32 30.5836 185.056 30.8396 185.664 31.1276C186.432 31.4796 186.72 31.9916 186.336 32.7596C185.92 33.5276 185.312 33.6876 184.608 33.2076C183.904 32.7276 183.168 32.2796 182.56 31.9276C182.144 31.7036 182.048 31.2876 182.176 30.8716C182.24 30.6796 182.336 30.5516 182.464 30.4556H178.336C178.112 30.4556 177.952 30.6156 177.952 30.8396V31.1596C178.048 31.1596 178.176 31.1916 178.304 31.2236C178.752 31.3516 178.912 31.7356 178.816 32.2796C178.624 33.4636 178.304 34.7756 177.856 35.6716C177.376 36.6316 176.608 36.7916 175.776 36.2796C174.912 35.7356 174.88 34.8716 175.552 34.1036C175.712 33.9116 175.872 33.7516 176 33.5596H175.968C174.688 33.5596 173.984 33.0476 173.984 31.7676V30.1996C173.984 28.9516 174.656 28.2796 175.904 28.2796H176.48V22.4236C176.48 21.1756 177.152 20.5036 178.4 20.5036H181.632C181.664 20.2796 181.696 20.0236 181.696 19.7996H176.192C175.616 19.7996 175.264 19.5436 175.104 19.1276L175.072 19.2556ZM186.912 22.9356C186.912 22.7116 186.752 22.5516 186.528 22.5516H181.024C180.8 22.5516 180.64 22.7116 180.64 22.9356V23.1916H186.912V22.9356ZM180.64 25.0476V25.7196H186.912V25.0476H180.64ZM180.64 28.2796H186.912V27.5756H180.64V28.2796ZM192.16 41.9436C193.536 42.0076 194.144 42.7436 193.952 44.2476C193.76 45.7516 192.704 46.1356 191.328 45.9436C188.832 45.5916 186.656 45.0156 184.768 44.2476C182.272 45.2716 179.168 45.9116 175.264 46.1996C174.528 46.2636 174.08 45.9436 173.952 45.3036C173.856 44.5996 174.208 44.1836 174.944 44.0556C177.408 43.6396 179.552 43.1276 181.344 42.4236C180.512 41.8796 179.776 41.2396 179.136 40.5996C178.144 41.2076 177.088 41.7516 176.032 42.1356C175.36 42.3916 174.848 42.1996 174.56 41.6236C174.272 41.0796 174.464 40.5356 175.072 40.1516C177.056 38.8396 178.624 37.6236 179.872 35.6076C179.296 35.2556 179.072 34.7116 179.072 33.9116V32.1836C179.072 31.1916 179.648 30.6156 180.64 30.6156C181.568 30.6156 182.208 31.1276 182.208 32.1516V32.8236C182.208 33.3356 182.432 33.5596 183.168 33.5916C184.64 33.6876 185.344 33.6876 186.272 33.5596C186.784 33.4956 187.04 33.2716 187.04 32.5356C187.04 31.9276 187.36 31.6396 187.84 31.6396C188.352 31.6396 188.672 31.9596 188.8 32.5996C189.248 34.9036 188.48 35.8636 186.944 36.0236C186.048 36.1196 184.896 36.1516 183.648 36.1516L183.328 36.6316H188.992C191.232 36.6316 191.968 38.4876 190.688 39.9916C190.176 40.5996 189.632 41.1756 189.056 41.6876C190.016 41.7836 191.04 41.8796 192.16 41.9436ZM180.992 39.2236C182.144 39.8956 183.296 40.4076 184.576 40.7916C185.184 40.3756 185.696 39.8956 186.144 39.3836C186.368 39.0956 186.208 38.8716 185.888 38.8716H181.408C181.28 38.9996 181.152 39.0956 180.992 39.2236ZM229.504 41.8156C230.496 41.8156 231.072 42.3596 231.072 43.3516C231.072 44.3436 230.496 44.8876 229.504 44.8876H204.448C203.456 44.8876 202.88 44.3436 202.88 43.3516C202.88 42.3596 203.456 41.8156 204.448 41.8156H214.784V35.0316H208.064C207.136 35.0316 206.592 34.5196 206.592 33.5276C206.592 32.5356 207.136 32.0236 208.064 32.0236H214.784V26.5836H209.984C208.704 28.9836 207.04 31.1596 205.248 32.6956C204.64 33.2076 204.064 33.3036 203.552 32.8876C203.008 32.4396 202.944 31.8316 203.328 31.1916C205.248 27.9276 206.4 24.2156 207.136 19.7036C207.424 17.8476 208.512 17.1436 210.208 17.3996C211.872 17.6556 212.672 18.7116 212.224 20.6956C212 21.6876 211.68 22.7116 211.296 23.7036H214.784V18.5836C214.784 17.0156 215.744 16.1516 217.536 16.1516C219.328 16.1516 220.288 17.0156 220.288 18.5836V23.5756H227.808C228.768 23.5756 229.28 24.0876 229.28 25.0796C229.28 26.0716 228.736 26.5836 227.808 26.5836H220.288V32.0236H226.912C227.872 32.0236 228.384 32.5356 228.384 33.5276C228.384 34.5196 227.84 35.0316 226.912 35.0316H220.288V41.8156H229.504Z" fill="#594A39"/>
<path d="M16.8831 81.1436C16.5951 80.9836 16.4351 80.8076 16.4031 80.6156C16.3871 80.4236 16.4991 80.0876 16.7391 79.6076C16.9791 79.1276 17.3551 78.3836 17.8671 77.3756C18.2511 76.6556 18.5071 76.0956 18.6351 75.6956C18.7791 75.2796 18.8591 74.9836 18.8751 74.8076C18.8911 74.6316 18.8991 74.5196 18.8991 74.4716C18.8671 74.3276 18.8831 74.2156 18.9471 74.1356C19.0111 74.0396 19.1151 73.9596 19.2591 73.8956C19.3391 73.8156 19.5231 73.6716 19.8111 73.4636C20.0991 73.2556 20.3231 73.0076 20.4831 72.7196C20.6271 72.3836 20.7871 72.0396 20.9631 71.6876C21.1551 71.3356 21.4031 70.8956 21.7071 70.3676C22.0111 69.8236 22.4191 69.1196 22.9311 68.2556C23.2511 67.6956 23.6271 67.0636 24.0591 66.3596C24.5071 65.6556 24.9471 65.0156 25.3791 64.4396C25.5551 64.2156 25.7391 64.0396 25.9311 63.9116C26.1231 63.7836 26.2911 63.7196 26.4351 63.7196C26.7871 63.7196 27.1391 63.8156 27.4911 64.0076C27.8431 64.1836 28.1551 64.4076 28.4271 64.6796C28.6991 64.9516 28.8831 65.2076 28.9791 65.4476C29.0591 65.5756 29.0911 65.8476 29.0751 66.2636C29.0591 66.6796 29.0271 67.1836 28.9791 67.7756C28.9311 68.3676 28.8751 68.9996 28.8111 69.6716C28.7631 70.3276 28.6911 71.1036 28.5951 71.9996C28.4991 72.8956 28.4031 73.8316 28.3071 74.8076C28.2271 75.7836 28.1631 76.7276 28.1151 77.6396C28.0671 78.5356 28.0671 79.3196 28.1151 79.9916C28.1311 80.1356 28.1311 80.2716 28.1151 80.3996C28.0991 80.5276 28.0911 80.6316 28.0911 80.7116C27.9951 80.8076 27.7871 80.8476 27.4671 80.8316C27.1471 80.8316 26.8351 80.7836 26.5311 80.6876C26.2271 80.5916 26.0591 80.4716 26.0271 80.3276C25.9791 80.2796 25.9471 80.2396 25.9311 80.2076C25.9151 80.1756 25.9151 80.0236 25.9311 79.7516C25.9471 79.4636 25.9711 78.9436 26.0031 78.1916L26.1231 74.5196L25.8111 74.5436C25.6671 74.5436 25.4031 74.5596 25.0191 74.5916C24.6511 74.6236 24.2431 74.6716 23.7951 74.7356C23.3631 74.7836 22.9631 74.8396 22.5951 74.9036C22.2271 74.9516 21.9711 74.9996 21.8271 75.0476C21.6831 75.0476 21.5071 75.1436 21.2991 75.3356C21.1071 75.5276 20.9231 75.7756 20.7471 76.0796C20.6831 76.3036 20.5631 76.5436 20.3871 76.7996C20.2271 77.0396 20.1471 77.1996 20.1471 77.2796C20.0351 77.3596 19.9391 77.4556 19.8591 77.5676C19.7951 77.6796 19.7631 77.7356 19.7631 77.7356C19.7631 77.8316 19.6911 78.0716 19.5471 78.4556C19.4031 78.8236 19.2271 79.2396 19.0191 79.7036C18.8111 80.1516 18.5951 80.5436 18.3711 80.8796L17.7231 81.7916L16.8831 81.1436ZM22.6191 72.8876C22.6191 72.8876 22.7071 72.8716 22.8831 72.8396C23.0591 72.8076 23.2671 72.7756 23.5071 72.7436C23.7631 72.6956 23.9871 72.6716 24.1791 72.6716C24.5471 72.5756 24.8511 72.5036 25.0911 72.4556C25.3471 72.4076 25.5551 72.3836 25.7151 72.3836C25.8751 72.3676 26.0031 72.3836 26.0991 72.4316C26.1631 72.5116 26.2191 72.5596 26.2671 72.5756C26.3311 72.5916 26.3631 72.5996 26.3631 72.5996C26.3791 72.5676 26.4111 72.3996 26.4591 72.0956C26.5071 71.7916 26.5631 71.4156 26.6271 70.9676C26.6911 70.5196 26.7551 70.0556 26.8191 69.5756C26.8831 69.0796 26.9391 68.6236 26.9871 68.2076C27.0351 67.7756 27.0671 67.4396 27.0831 67.1996C27.0991 66.8956 27.0911 66.6236 27.0591 66.3836C27.0271 66.1276 27.0111 65.9996 27.0111 65.9996C26.9151 65.9996 26.7311 66.1756 26.4591 66.5276C26.2031 66.8636 25.8991 67.3196 25.5471 67.8956C25.2111 68.4556 24.8751 69.0636 24.5391 69.7196C24.3791 70.0236 24.2271 70.2636 24.0831 70.4396C23.9551 70.6156 23.8511 70.7036 23.7711 70.7036C23.7391 70.7356 23.6511 70.8636 23.5071 71.0876C23.3791 71.2956 23.2351 71.5356 23.0751 71.8076C22.9311 72.0636 22.8031 72.3036 22.6911 72.5276C22.5951 72.7356 22.5711 72.8556 22.6191 72.8876ZM38.5729 80.8076C38.3649 80.8556 38.1569 80.7996 37.9489 80.6396C37.7569 80.4956 37.6209 80.3356 37.5409 80.1596C37.4449 79.9036 37.3809 79.6636 37.3489 79.4396C37.3329 79.1996 37.3169 78.9276 37.3009 78.6236L37.2769 77.8076L36.2929 78.6956C35.7489 79.2076 35.2369 79.5756 34.7569 79.7996C34.2929 80.0076 33.8689 80.1116 33.4849 80.1116C33.3089 80.0796 33.0929 79.9676 32.8369 79.7756C32.5969 79.5676 32.3729 79.3436 32.1649 79.1036C31.9729 78.8476 31.8369 78.6396 31.7569 78.4796C31.6609 78.2556 31.6289 77.9436 31.6609 77.5436C31.7089 77.1436 31.8049 76.7036 31.9489 76.2236C32.1089 75.7436 32.3009 75.2716 32.5249 74.8076C32.7649 74.3436 33.0369 73.9436 33.3409 73.6076C33.8689 72.8076 34.5249 72.3116 35.3089 72.1196C36.0929 71.9116 36.7889 71.9756 37.3969 72.3116C37.6849 72.4556 37.8929 72.5116 38.0209 72.4796C38.1489 72.4476 38.2289 72.3436 38.2609 72.1676C38.3249 71.9116 38.3969 71.6716 38.4769 71.4476C38.5569 71.2236 38.6689 70.8876 38.8129 70.4396C39.2129 69.2236 39.5569 68.2716 39.8449 67.5836C40.1489 66.8956 40.4209 66.2956 40.6609 65.7836C40.8369 65.4156 41.0129 65.1596 41.1889 65.0156C41.3649 64.8716 41.5169 64.8076 41.6449 64.8236C41.8209 64.8236 42.0369 64.8876 42.2929 65.0156C42.5649 65.1436 42.7409 65.3196 42.8209 65.5436C42.8849 65.6876 42.9089 65.8396 42.8929 65.9996C42.8929 66.1596 42.8449 66.3276 42.7489 66.5036C42.5409 66.8876 42.2929 67.3996 42.0049 68.0396C41.7329 68.6636 41.4529 69.3516 41.1649 70.1036C40.8929 70.8556 40.6369 71.5996 40.3969 72.3356C40.1569 73.0716 39.9569 73.7196 39.7969 74.2796C39.7009 74.6316 39.6209 75.0796 39.5569 75.6236C39.5089 76.1676 39.4689 76.7276 39.4369 77.3036C39.4209 77.8636 39.4209 78.3676 39.4369 78.8156C39.4529 79.2476 39.4769 79.5276 39.5089 79.6556C39.6049 79.9756 39.6049 80.2156 39.5089 80.3756C39.4129 80.5356 39.2769 80.6396 39.1009 80.6876C38.9249 80.7516 38.7489 80.7916 38.5729 80.8076ZM34.6129 77.9036C34.8369 77.8236 35.0369 77.7276 35.2129 77.6156C35.3889 77.5036 35.5969 77.3596 35.8369 77.1836C36.3169 76.8156 36.6609 76.4956 36.8689 76.2236C37.0929 75.9516 37.2689 75.6156 37.3969 75.2156C37.4769 74.9756 37.4769 74.7676 37.3969 74.5916C37.3329 74.4156 37.2129 74.2476 37.0369 74.0876C36.8609 73.9436 36.6369 73.8876 36.3649 73.9196C36.0929 73.9356 35.7809 74.1036 35.4289 74.4236C35.0449 74.7756 34.7169 75.1836 34.4449 75.6476C34.1729 76.1116 33.9489 76.7756 33.7729 77.6396C33.7409 77.7996 33.7969 77.9116 33.9409 77.9756C34.0849 78.0396 34.3089 78.0156 34.6129 77.9036ZM46.4531 79.7276C46.2931 79.8396 46.0931 79.9036 45.8531 79.9196C45.6291 79.9196 45.4291 79.8316 45.2531 79.6556C44.9491 79.3676 44.6851 78.7996 44.4611 77.9516C44.2371 77.0876 44.1251 75.9196 44.1251 74.4476C44.1891 73.7916 44.2211 73.1836 44.2211 72.6236C44.2371 72.0636 44.2451 71.7516 44.2451 71.6876C44.4211 71.5756 44.6451 71.5436 44.9171 71.5916C45.2051 71.6236 45.4371 71.6796 45.6131 71.7596C45.7731 71.8396 45.8851 71.9596 45.9491 72.1196C46.0291 72.2796 46.0771 72.5676 46.0931 72.9836C46.1251 73.3836 46.1411 73.9996 46.1411 74.8316C46.0931 75.4716 46.0611 75.9836 46.0451 76.3676C46.0291 76.7516 46.0451 76.9756 46.0931 77.0396C46.1571 77.1516 46.1891 77.2156 46.1891 77.2316C46.1891 77.2316 46.3091 77.1116 46.5491 76.8716C46.6771 76.6956 46.8131 76.4636 46.9571 76.1756C47.1171 75.8876 47.2531 75.6556 47.3651 75.4796C47.5411 75.2556 47.7011 75.0396 47.8451 74.8316C48.0051 74.6236 48.1171 74.4876 48.1811 74.4236C48.2451 74.2956 48.3251 74.1756 48.4211 74.0636C48.5171 73.9516 48.5971 73.8396 48.6611 73.7276C48.8371 73.4236 49.0211 73.1756 49.2131 72.9836C49.4051 72.7756 49.5331 72.6716 49.5971 72.6716C49.6611 72.7196 49.7811 72.7116 49.9571 72.6476C50.1331 72.5676 50.2531 72.5276 50.3171 72.5276C50.4291 72.4156 50.5811 72.4156 50.7731 72.5276C50.8371 72.5756 50.8931 72.6316 50.9411 72.6956C50.9891 72.7436 51.0131 72.7996 51.0131 72.8636C51.0131 72.9436 50.9651 73.1436 50.8691 73.4636C50.7891 73.7676 50.6851 74.0716 50.5571 74.3756C50.4451 74.6636 50.3491 74.8316 50.2691 74.8796C50.2691 74.8796 50.2451 74.9036 50.1971 74.9516C50.1491 74.9996 50.0931 75.0556 50.0291 75.1196C49.9971 75.2316 49.8851 75.4396 49.6931 75.7436C49.5171 76.0316 49.2931 76.3676 49.0211 76.7516C48.7651 77.1196 48.5011 77.4876 48.2291 77.8556C47.9571 78.2076 47.7171 78.5196 47.5091 78.7916C47.3491 79.0156 47.1651 79.2156 46.9571 79.3916C46.7491 79.5516 46.5811 79.6636 46.4531 79.7276ZM54.0144 79.8476C53.9504 79.7196 53.8064 79.5916 53.5824 79.4636C53.3744 79.3356 53.2704 79.2396 53.2704 79.1756C53.2704 79.1116 53.2304 79.0156 53.1504 78.8876C53.0864 78.7436 53.0224 78.6396 52.9584 78.5756C52.8784 78.4796 52.9024 78.2476 53.0304 77.8796C53.1584 77.4956 53.3504 77.0316 53.6064 76.4876C53.8624 75.9436 54.1424 75.3916 54.4464 74.8316C54.5744 74.7036 54.7024 74.5356 54.8304 74.3276C54.9584 74.1196 55.0544 73.9836 55.1184 73.9196C55.1184 73.8556 55.1424 73.7996 55.1904 73.7516C55.2384 73.6876 55.2944 73.6556 55.3584 73.6556L55.5504 73.2716C55.5824 73.2076 55.6784 73.0796 55.8384 72.8876C56.0144 72.6956 56.2224 72.4876 56.4624 72.2636C56.7024 72.0236 56.9424 71.7996 57.1824 71.5916C57.4384 71.3836 57.6464 71.2316 57.8064 71.1356C58.1424 70.9116 58.4864 70.8076 58.8384 70.8236C59.2064 70.8396 59.5184 70.9516 59.7744 71.1596C59.8224 71.2076 59.9264 71.3036 60.0864 71.4476C60.2624 71.5916 60.4544 71.7516 60.6624 71.9276C60.8864 72.1036 61.0784 72.2636 61.2384 72.4076L62.1264 73.1996L61.7184 74.3996C61.5104 75.0396 61.4544 75.5996 61.5504 76.0796C61.6464 76.5596 61.7984 76.9756 62.0064 77.3276C62.0864 77.5036 62.1904 77.6396 62.3184 77.7356C62.4624 77.8316 62.6464 77.8956 62.8704 77.9276C62.9984 77.9436 63.1184 77.9916 63.2304 78.0716C63.3424 78.1516 63.3984 78.2796 63.3984 78.4556C63.3984 78.8396 63.3264 79.1196 63.1824 79.2956C63.0544 79.4556 62.9104 79.5516 62.7504 79.5836C62.2224 79.6476 61.7184 79.5916 61.2384 79.4156C60.7584 79.2396 60.3264 78.7836 59.9424 78.0476C59.8784 77.9516 59.7904 77.7756 59.6784 77.5196C59.5824 77.2476 59.5264 77.0716 59.5104 76.9916C59.4464 77.0716 59.3584 77.1756 59.2464 77.3036C59.1504 77.4156 59.0544 77.5196 58.9584 77.6156C57.8224 78.7676 56.8464 79.5196 56.0304 79.8716C55.2304 80.2076 54.5584 80.1996 54.0144 79.8476ZM55.3344 77.8556C55.4464 77.8716 55.6224 77.8156 55.8624 77.6876C56.1024 77.5436 56.4224 77.3116 56.8224 76.9916C57.3664 76.5276 57.8144 76.1436 58.1664 75.8396C58.5184 75.5356 58.8624 75.1436 59.1984 74.6636L59.7264 73.7996C59.5664 73.4316 59.4224 73.1916 59.2944 73.0796C59.1664 72.9676 59.0384 72.9116 58.9104 72.9116C58.7024 72.9116 58.4544 73.0476 58.1664 73.3196C57.8784 73.5756 57.5504 73.9596 57.1824 74.4716C56.8304 74.9676 56.4304 75.5916 55.9824 76.3436C55.7744 76.6956 55.6144 77.0396 55.5024 77.3756C55.3904 77.6956 55.3344 77.8556 55.3344 77.8556ZM67.3174 79.5356C67.2534 79.5356 67.1014 79.4796 66.8614 79.3676C66.6214 79.2396 66.4694 79.1436 66.4054 79.0796C66.2934 78.9516 66.2214 78.8156 66.1894 78.6716C66.1574 78.5116 66.1414 78.2076 66.1414 77.7596C66.1414 77.2476 66.2454 76.6716 66.4534 76.0316C66.6614 75.3756 67.0134 74.5036 67.5094 73.4156L68.4934 71.4236C68.5734 71.3116 68.6454 71.2156 68.7094 71.1356C68.7734 71.0396 68.8454 70.9516 68.9254 70.8716C68.9574 70.8716 68.9974 70.8716 69.0454 70.8716C69.1094 70.8716 69.1574 70.8796 69.1894 70.8956C69.3334 70.9116 69.5574 70.9996 69.8614 71.1596C70.1814 71.3196 70.3734 71.5596 70.4374 71.8796C70.4374 72.0876 70.4054 72.3356 70.3414 72.6236C70.2774 72.8956 70.0854 73.2556 69.7654 73.7036C69.6374 73.8636 69.5094 74.0956 69.3814 74.3996C69.2694 74.7036 69.1654 74.9916 69.0694 75.2636C69.0534 75.2956 69.0054 75.3756 68.9254 75.5036C68.8614 75.6156 68.7974 75.7356 68.7334 75.8636C68.6694 75.9756 68.6374 76.0476 68.6374 76.0796L68.5414 76.2956L69.5734 75.2876C70.2934 74.5676 70.9014 74.0556 71.3974 73.7516C71.8934 73.4476 72.3094 73.3196 72.6454 73.3676C72.9974 73.4156 73.2774 73.6156 73.4854 73.9676C73.5974 74.1276 73.6774 74.3036 73.7254 74.4956C73.7734 74.6716 73.8054 74.8796 73.8214 75.1196C73.8374 75.3596 73.8294 75.6636 73.7974 76.0316V77.3996C74.1014 77.3196 74.3334 77.2556 74.4934 77.2076C74.6534 77.1436 74.8134 77.0876 74.9734 77.0396C75.1014 77.0076 75.2294 76.9756 75.3574 76.9436C75.5014 76.9116 75.6774 76.8876 75.8854 76.8716C75.8694 77.0796 75.7814 77.3356 75.6214 77.6396C75.4614 77.9436 75.2614 78.2476 75.0214 78.5516C74.7974 78.8556 74.5494 79.1116 74.2774 79.3196C74.0214 79.5276 73.7814 79.6316 73.5574 79.6316C73.3494 79.6316 73.1094 79.5676 72.8374 79.4396C72.5654 79.2956 72.3334 79.0236 72.1414 78.6236C72.0774 78.4156 72.0134 78.1756 71.9494 77.9036C71.8854 77.6316 71.8534 77.3436 71.8534 77.0396V75.9836C71.8534 75.8876 71.8454 75.8236 71.8294 75.7916C71.8294 75.7436 71.8214 75.7196 71.8054 75.7196C71.7414 75.7196 71.5334 75.8876 71.1814 76.2236C70.8454 76.5596 70.5014 76.9116 70.1494 77.2796C69.4134 78.0476 68.7974 78.6156 68.3014 78.9836C67.8214 79.3516 67.4934 79.5356 67.3174 79.5356ZM81.909 80.4476C81.445 80.5276 80.981 80.4876 80.517 80.3276C80.069 80.1676 79.693 79.9116 79.389 79.5596C79.101 79.1916 78.957 78.7516 78.957 78.2396C78.909 77.7596 78.949 77.1916 79.077 76.5356C79.221 75.8636 79.429 75.1916 79.701 74.5196C79.989 73.8476 80.317 73.2796 80.685 72.8156C81.005 72.4316 81.325 72.0796 81.645 71.7596C81.965 71.4396 82.253 71.2236 82.509 71.1116C82.733 71.0156 83.005 70.9436 83.325 70.8956C83.661 70.8316 83.893 70.7996 84.021 70.7996C84.277 70.8636 84.557 70.9676 84.861 71.1116C85.181 71.2556 85.341 71.4236 85.341 71.6156C85.341 71.6156 85.357 71.6396 85.389 71.6876C85.437 71.7196 85.461 71.7356 85.461 71.7356C85.557 71.7356 85.661 71.8556 85.773 72.0956C85.901 72.3196 85.997 72.5836 86.061 72.8876C86.125 73.1756 86.109 73.4076 86.013 73.5836C85.949 73.8876 85.821 74.1836 85.629 74.4716C85.453 74.7596 85.301 74.9036 85.173 74.9036C85.109 74.9036 85.045 74.9116 84.981 74.9276C84.933 74.9276 84.909 74.9676 84.909 75.0476C84.909 75.1276 84.821 75.1676 84.645 75.1676C84.485 75.1676 84.317 75.1356 84.141 75.0716C83.965 75.0076 83.853 74.9116 83.805 74.7836C83.805 74.7036 83.821 74.5996 83.853 74.4716C83.885 74.3436 83.933 74.1276 83.997 73.8236C84.093 73.3756 84.101 73.0796 84.021 72.9356C83.941 72.7756 83.741 72.7596 83.421 72.8876C83.021 73.1116 82.693 73.3756 82.437 73.6796C82.181 73.9676 81.949 74.3756 81.741 74.9036C81.549 75.4316 81.333 76.1676 81.093 77.1116C80.997 77.4796 80.981 77.7676 81.045 77.9756C81.125 78.1836 81.189 78.2956 81.237 78.3116C81.461 78.3756 81.701 78.3916 81.957 78.3596C82.229 78.3116 82.453 78.2396 82.629 78.1436C82.885 78.0156 83.109 77.8796 83.301 77.7356C83.509 77.5756 83.733 77.4076 83.973 77.2316C84.053 77.1836 84.125 77.0956 84.189 76.9676C84.253 76.8236 84.349 76.7196 84.477 76.6556C84.605 76.4636 84.765 76.3676 84.957 76.3676C85.165 76.3516 85.365 76.3436 85.557 76.3436C85.685 76.3756 85.821 76.4556 85.965 76.5836C86.109 76.7116 86.213 76.8396 86.277 76.9676C86.357 77.0796 86.349 77.1596 86.253 77.2076C86.189 77.2076 86.149 77.2316 86.133 77.2796C86.133 77.3116 86.133 77.3276 86.133 77.3276C86.165 77.3916 86.093 77.5356 85.917 77.7596C85.757 77.9836 85.549 78.2236 85.293 78.4796C85.037 78.7356 84.789 78.9596 84.549 79.1516C84.325 79.3276 84.165 79.4156 84.069 79.4156C83.909 79.4156 83.829 79.4636 83.829 79.5596C83.829 79.5916 83.709 79.6716 83.469 79.7996C83.245 79.9276 82.981 80.0556 82.677 80.1836C82.389 80.3116 82.133 80.3996 81.909 80.4476ZM92.0912 80.7836C91.2112 80.7836 90.5312 80.5276 90.0512 80.0156C89.5872 79.5036 89.3552 78.7196 89.3552 77.6636C89.3552 77.0876 89.4592 76.4556 89.6672 75.7676C89.8912 75.0796 90.1792 74.4076 90.5312 73.7516C90.8992 73.0956 91.2992 72.5276 91.7312 72.0476C92.1632 71.5516 92.5952 71.2076 93.0272 71.0156C93.1872 70.9356 93.3552 70.8796 93.5312 70.8476C93.7232 70.7996 93.9072 70.7756 94.0832 70.7756C94.2752 70.7756 94.4832 70.7916 94.7072 70.8236C94.9472 70.8396 95.1712 70.8876 95.3792 70.9676C95.7472 71.0796 96.0672 71.2956 96.3392 71.6156C96.6272 71.9356 96.7712 72.3996 96.7712 73.0076C96.7712 73.1676 96.7552 73.3436 96.7232 73.5356C96.6912 73.7116 96.6352 73.8876 96.5552 74.0636C96.3472 74.5916 96.0272 75.0956 95.5952 75.5756C95.1792 76.0556 94.7392 76.3916 94.2752 76.5836C94.1472 76.6476 94.0192 76.6956 93.8912 76.7276C93.7792 76.7436 93.6592 76.7516 93.5312 76.7516C93.1952 76.7516 92.8912 76.7036 92.6192 76.6076C92.3632 76.5116 92.1232 76.3836 91.8992 76.2236L91.7072 76.0556L91.5872 76.2956C91.4752 76.5996 91.3952 76.8556 91.3472 77.0636C91.3152 77.2716 91.2992 77.4236 91.2992 77.5196C91.2992 77.7116 91.3072 77.9116 91.3232 78.1196C91.3392 78.3116 91.3872 78.4716 91.4672 78.5996C91.5312 78.6796 91.6112 78.7436 91.7072 78.7916C91.8192 78.8396 91.9552 78.8636 92.1152 78.8636C92.2112 78.8636 92.2992 78.8636 92.3792 78.8636C92.4752 78.8476 92.5552 78.8316 92.6192 78.8156C92.9072 78.7516 93.1392 78.6476 93.3152 78.5036C93.5072 78.3436 93.7072 78.2076 93.9152 78.0956L94.0112 78.0476L93.9872 77.9756C94.2592 77.8316 94.4432 77.7436 94.5392 77.7116C94.6352 77.6636 94.7072 77.6236 94.7552 77.5916C94.8192 77.5276 94.8912 77.4956 94.9712 77.4956C95.1952 77.4636 95.4112 77.5276 95.6192 77.6876C95.8432 77.8316 95.9552 78.0156 95.9552 78.2396C95.9552 78.3356 95.8832 78.4876 95.7392 78.6956C95.6112 78.9036 95.4432 79.1116 95.2352 79.3196C95.0432 79.5116 94.8432 79.6636 94.6352 79.7756C94.5872 79.7916 94.5392 79.8156 94.4912 79.8476C94.4432 79.8636 94.3952 79.8876 94.3472 79.9196H94.3712C94.2272 80.1116 94.0832 80.2076 93.9392 80.2076H93.7472C93.6832 80.3196 93.4752 80.4396 93.1232 80.5676C92.7712 80.7116 92.4272 80.7836 92.0912 80.7836ZM93.3392 74.9996C93.4832 74.9996 93.6112 74.9756 93.7232 74.9276C93.8512 74.8796 93.9712 74.8236 94.0832 74.7596C94.4672 74.4876 94.7152 74.1356 94.8272 73.7036C94.9392 73.2716 94.8992 72.9436 94.7072 72.7196C94.6752 72.6716 94.6352 72.6396 94.5872 72.6236C94.5392 72.5916 94.4832 72.5756 94.4192 72.5756C94.2432 72.5756 94.0432 72.6316 93.8192 72.7436C93.6112 72.8556 93.4032 73.0156 93.1952 73.2236C92.9872 73.4316 92.7952 73.6796 92.6192 73.9676L92.3072 74.4716C92.3392 74.4556 92.3632 74.4476 92.3792 74.4476C92.4112 74.4316 92.4352 74.4236 92.4512 74.4236C92.5952 74.4236 92.6912 74.4716 92.7392 74.5676C92.7872 74.6636 92.8432 74.7596 92.9072 74.8556C92.9872 74.9516 93.1312 74.9996 93.3392 74.9996ZM106.491 80.3276C106.251 80.3436 106.027 80.3516 105.819 80.3516C105.627 80.3516 105.475 80.3196 105.363 80.2556C105.075 80.0156 104.883 79.8236 104.787 79.6796C104.707 79.5356 104.667 79.3756 104.667 79.1996C104.683 78.9756 104.691 78.7516 104.691 78.5276C104.691 78.2876 104.691 78.1036 104.691 77.9756C104.627 77.9116 104.499 77.9836 104.307 78.1916C104.115 78.3996 103.891 78.5996 103.635 78.7916C103.139 79.3516 102.699 79.7596 102.315 80.0156C101.931 80.2556 101.579 80.3916 101.259 80.4236C100.939 80.4716 100.619 80.4796 100.299 80.4476C100.011 80.4156 99.7548 80.2716 99.5308 80.0156C99.3228 79.7596 99.1628 79.4476 99.0508 79.0796C98.9548 78.7116 98.9228 78.3516 98.9548 77.9996C99.0348 77.3436 99.1788 76.7516 99.3868 76.2236C99.5948 75.6796 99.9068 75.1116 100.323 74.5196C100.515 74.2636 100.771 73.9836 101.091 73.6796C101.427 73.3756 101.787 73.0956 102.171 72.8396C102.555 72.5676 102.899 72.3756 103.203 72.2636C103.667 72.0556 104.051 71.9596 104.355 71.9756C104.675 71.9916 104.987 72.0396 105.291 72.1196C105.515 72.2316 105.691 72.2876 105.819 72.2876C105.963 72.2876 106.067 72.2076 106.131 72.0476C106.227 71.9196 106.299 71.7596 106.347 71.5676C106.395 71.3756 106.475 71.1916 106.587 71.0156L107.115 69.4556C107.291 69.0236 107.499 68.5276 107.739 67.9676C107.979 67.4076 108.251 66.7836 108.555 66.0956C108.923 65.4716 109.235 65.1436 109.491 65.1116C109.763 65.0796 110.043 65.2236 110.331 65.5436C110.523 65.7356 110.627 65.9756 110.643 66.2636C110.675 66.5356 110.603 66.8556 110.427 67.2236C110.315 67.3996 110.195 67.6236 110.067 67.8956C109.939 68.1516 109.787 68.4556 109.611 68.8076C109.435 69.2236 109.251 69.6396 109.059 70.0556C108.883 70.4716 108.699 70.9276 108.507 71.4236C108.443 71.6796 108.355 71.9756 108.243 72.3116C108.147 72.6476 108.067 72.9516 108.003 73.2236C107.955 73.4796 107.899 73.7196 107.835 73.9436C107.787 74.1516 107.731 74.2556 107.667 74.2556C107.539 74.3676 107.419 74.6076 107.307 74.9756C107.195 75.3276 107.099 75.7036 107.019 76.1036C106.955 76.5036 106.899 76.8316 106.851 77.0876C106.819 77.2796 106.795 77.5516 106.779 77.9036C106.763 78.2396 106.755 78.5676 106.755 78.8876C106.755 79.1916 106.755 79.3996 106.755 79.5116C106.755 79.8156 106.731 80.0316 106.683 80.1596C106.651 80.2716 106.587 80.3276 106.491 80.3276ZM101.067 78.4316C101.435 78.4316 101.779 78.2796 102.099 77.9756C102.435 77.6556 102.803 77.3196 103.203 76.9676C103.443 76.7276 103.691 76.4636 103.947 76.1756C104.203 75.8716 104.435 75.5756 104.643 75.2876C104.867 74.9996 105.043 74.7516 105.171 74.5436C105.299 74.3356 105.363 74.1996 105.363 74.1356C105.363 74.0556 105.299 73.9836 105.171 73.9196C105.059 73.8556 104.923 73.8076 104.763 73.7756C104.603 73.7276 104.459 73.7196 104.331 73.7516C103.947 73.8636 103.635 74.0316 103.395 74.2556C103.171 74.4796 102.843 74.8316 102.411 75.3116C101.979 75.8396 101.635 76.3436 101.379 76.8236C101.123 77.3036 100.963 77.6956 100.899 77.9996C100.851 78.2876 100.907 78.4316 101.067 78.4316ZM121.816 81.9356C121.576 81.8396 121.296 81.7036 120.976 81.5276C120.656 81.3676 120.352 81.1516 120.064 80.8796C119.776 80.6076 119.552 80.2796 119.392 79.8956C119.232 79.4316 119.12 78.9756 119.056 78.5276C119.008 78.0796 118.992 77.5596 119.008 76.9676C119.008 76.1356 119.064 75.4156 119.176 74.8076C119.304 74.1836 119.496 73.5516 119.752 72.9116C119.784 72.8636 119.84 72.7276 119.92 72.5036C120.016 72.2636 120.12 72.0076 120.232 71.7356C120.36 71.4636 120.456 71.2556 120.52 71.1116C120.648 70.8396 120.84 70.4796 121.096 70.0316C121.368 69.5676 121.656 69.1196 121.96 68.6876C122.424 67.9996 122.816 67.4396 123.136 67.0076C123.456 66.5596 123.76 66.1836 124.048 65.8796C124.352 65.5756 124.68 65.2796 125.032 64.9916C125.4 64.7036 125.856 64.3756 126.4 64.0076C126.752 63.7516 127.2 63.5916 127.744 63.5276C128.304 63.4636 128.848 63.5516 129.376 63.7916C129.904 64.0156 130.296 64.4476 130.552 65.0876C130.728 65.4236 130.808 65.8476 130.792 66.3596C130.776 66.8556 130.68 67.3916 130.504 67.9676C130.328 68.5276 130.104 69.0556 129.832 69.5516C129.56 70.0476 129.256 70.4476 128.92 70.7516C128.712 70.9436 128.432 70.9756 128.08 70.8476C127.744 70.7196 127.464 70.5516 127.24 70.3436C127.096 70.0716 127.016 69.9116 127 69.8636C127 69.8156 127.032 69.7836 127.096 69.7676C127.192 69.6556 127.32 69.4636 127.48 69.1916C127.64 68.9196 127.8 68.6316 127.96 68.3276C128.12 68.0076 128.232 67.7516 128.296 67.5596C128.424 66.8876 128.512 66.4476 128.56 66.2396C128.608 66.0156 128.56 65.8316 128.416 65.6876C128.352 65.6236 128.256 65.5996 128.128 65.6156C128.016 65.6316 127.824 65.7116 127.552 65.8556C127.184 66.0156 126.744 66.3436 126.232 66.8396C125.736 67.3196 125.24 67.8956 124.744 68.5676C124.104 69.4156 123.568 70.1676 123.136 70.8236C122.704 71.4796 122.376 72.1516 122.152 72.8396C122.12 72.9036 122.064 73.0236 121.984 73.1996C121.92 73.3756 121.888 73.4636 121.888 73.4636C121.904 73.5276 121.88 73.6876 121.816 73.9436C121.752 74.1836 121.68 74.3916 121.6 74.5676C121.424 75.3036 121.32 76.0156 121.288 76.7036C121.256 77.3756 121.296 77.9676 121.408 78.4796C121.536 78.9756 121.72 79.3436 121.96 79.5836C122.168 79.7276 122.432 79.7756 122.752 79.7276C123.072 79.6796 123.44 79.5676 123.856 79.3916C124.272 79.2156 124.72 79.0236 125.2 78.8156C125.584 78.6556 125.936 78.4796 126.256 78.2876C126.576 78.0956 126.816 77.9276 126.976 77.7836C127.104 77.6876 127.264 77.5916 127.456 77.4956C127.664 77.3836 127.84 77.3276 127.984 77.3276C128.208 77.2476 128.376 77.3116 128.488 77.5196C128.6 77.7276 128.656 77.9916 128.656 78.3116C128.656 78.5356 128.496 78.8076 128.176 79.1276C127.856 79.4476 127.504 79.7196 127.12 79.9436C126.992 80.0716 126.816 80.1916 126.592 80.3036C126.384 80.3996 126.168 80.4876 125.944 80.5676C125.608 80.8236 125.192 81.0716 124.696 81.3116C124.2 81.5516 123.696 81.7356 123.184 81.8636C122.688 81.9916 122.232 82.0156 121.816 81.9356ZM133.685 79.9196C133.493 79.9676 133.277 79.9116 133.037 79.7516C132.797 79.5916 132.581 79.3916 132.389 79.1516C132.197 78.9116 132.077 78.6956 132.029 78.5036C131.965 78.1676 131.981 77.7596 132.077 77.2796C132.189 76.7836 132.373 76.2636 132.629 75.7196C132.885 75.1596 133.205 74.6156 133.589 74.0876C133.973 73.5436 134.405 73.0556 134.885 72.6236C135.365 72.1916 135.885 71.8556 136.445 71.6156C136.685 71.4876 136.853 71.4076 136.949 71.3756C137.045 71.3276 137.141 71.3276 137.237 71.3756C137.333 71.4076 137.501 71.4876 137.741 71.6156C137.965 71.6796 138.189 71.7596 138.413 71.8556C138.653 71.9356 138.861 72.0956 139.037 72.3356C139.165 72.5756 139.261 72.8156 139.325 73.0556C139.389 73.2956 139.445 73.5676 139.493 73.8716C139.621 74.2716 139.669 74.5356 139.637 74.6636C139.605 74.7756 139.557 74.8636 139.493 74.9276C139.365 75.0876 139.333 75.1676 139.397 75.1676C139.397 75.1676 139.389 75.1996 139.373 75.2636C139.373 75.3116 139.341 75.3916 139.277 75.5036C139.165 75.8556 139.077 76.1916 139.013 76.5116C138.965 76.8156 138.973 77.0876 139.037 77.3276C139.165 77.6796 139.333 77.8876 139.541 77.9516C139.765 78.0156 140.053 77.8716 140.405 77.5196C140.581 77.3916 140.781 77.3116 141.005 77.2796C141.229 77.2316 141.341 77.2716 141.341 77.3996C141.341 77.3996 141.365 77.4236 141.413 77.4716C141.461 77.5036 141.517 77.5196 141.581 77.5196C141.661 77.5196 141.693 77.5996 141.677 77.7596C141.661 77.9036 141.629 78.0716 141.581 78.2636C141.533 78.4556 141.469 78.6156 141.389 78.7436C141.149 78.9836 141.029 79.1436 141.029 79.2236C141.029 79.2236 140.997 79.2556 140.933 79.3196C140.885 79.3676 140.797 79.4476 140.669 79.5596C140.381 79.7356 140.013 79.8236 139.565 79.8236C139.133 79.8236 138.797 79.7356 138.557 79.5596C138.317 79.3836 138.077 79.1676 137.837 78.9116C137.613 78.6556 137.469 78.4156 137.405 78.1916L137.285 77.9516L136.589 78.4076C136.413 78.5836 136.285 78.7196 136.205 78.8156C136.125 78.8956 136.053 78.9676 135.989 79.0316C135.941 79.0956 135.885 79.1516 135.821 79.1996C135.773 79.2476 135.717 79.2716 135.653 79.2716C135.589 79.2716 135.533 79.2716 135.485 79.2716C135.437 79.2716 135.413 79.2716 135.413 79.2716C135.413 79.3356 135.301 79.4236 135.077 79.5356C134.853 79.6316 134.605 79.7196 134.333 79.7996C134.061 79.8796 133.845 79.9196 133.685 79.9196ZM134.189 77.9036C134.285 77.9036 134.429 77.8476 134.621 77.7356C134.829 77.6076 135.053 77.4556 135.293 77.2796C135.533 77.1036 135.749 76.9276 135.941 76.7516C136.149 76.5756 136.301 76.4316 136.397 76.3196C136.461 76.2556 136.533 76.1516 136.613 76.0076C136.709 75.8636 136.813 75.7356 136.925 75.6236C137.293 75.2076 137.525 74.8796 137.621 74.6396C137.717 74.3836 137.677 74.1116 137.501 73.8236C137.437 73.6476 137.357 73.5516 137.261 73.5356C137.165 73.5196 136.965 73.5756 136.661 73.7036C136.469 73.8156 136.261 73.9996 136.037 74.2556C135.813 74.5116 135.581 74.7996 135.341 75.1196C135.117 75.4396 134.909 75.7676 134.717 76.1036C134.525 76.4396 134.365 76.7436 134.237 77.0156C134.125 77.2876 134.069 77.5036 134.069 77.6636C134.069 77.7276 134.085 77.7836 134.117 77.8316C134.165 77.8796 134.189 77.9036 134.189 77.9036ZM144.964 79.9916C144.852 79.9916 144.7 79.9116 144.508 79.7516C144.332 79.5916 144.228 79.4476 144.196 79.3196C144.148 79.1916 144.148 79.0076 144.196 78.7676C144.26 78.5116 144.348 78.2156 144.46 77.8796C144.588 77.3516 144.676 76.9676 144.724 76.7276C144.772 76.4876 144.82 76.2796 144.868 76.1036C144.916 75.9276 144.98 75.6716 145.06 75.3356C145.156 75.1276 145.228 74.9276 145.276 74.7356C145.34 74.5276 145.404 74.3196 145.468 74.1116C145.548 73.9036 145.636 73.6956 145.732 73.4876C145.844 73.0716 145.98 72.6796 146.14 72.3116C146.316 71.9276 146.484 71.6076 146.644 71.3516C146.676 71.3036 146.748 71.2156 146.86 71.0876C146.972 70.9596 147.06 70.8956 147.124 70.8956C147.252 70.7676 147.428 70.7276 147.652 70.7756C147.876 70.8076 148.068 70.8876 148.228 71.0156C148.42 71.2236 148.524 71.4716 148.54 71.7596C148.572 72.0316 148.46 72.4156 148.204 72.9116C148.012 73.4076 147.828 73.7996 147.652 74.0876C147.492 74.3596 147.332 74.6796 147.172 75.0476C147.348 74.7916 147.564 74.5276 147.82 74.2556C148.076 73.9836 148.276 73.7676 148.42 73.6076C148.628 73.3836 148.82 73.2076 148.996 73.0796C149.188 72.9356 149.444 72.7596 149.764 72.5516C150.036 72.3596 150.308 72.1836 150.58 72.0236C150.868 71.8636 151.212 71.8156 151.612 71.8796C151.772 71.8636 151.94 71.9436 152.116 72.1196C152.308 72.2956 152.452 72.5276 152.548 72.8156C152.66 73.0876 152.66 73.3836 152.548 73.7036C152.18 73.6236 151.852 73.6396 151.564 73.7516C151.276 73.8476 151.028 73.9676 150.82 74.1116C150.628 74.2556 150.476 74.3676 150.364 74.4476C150.204 74.5436 150.02 74.6716 149.812 74.8316C149.604 74.9756 149.38 75.1436 149.14 75.3356C148.9 75.5116 148.644 75.7116 148.372 75.9356C147.988 76.2556 147.7 76.5356 147.508 76.7756C147.316 77.0156 147.164 77.2716 147.052 77.5436C146.956 77.7836 146.836 78.0716 146.692 78.4076C146.548 78.7436 146.412 79.0476 146.284 79.3196C146.156 79.5756 146.052 79.7356 145.972 79.7996C145.892 79.9596 145.724 80.0476 145.468 80.0636C145.228 80.0796 145.06 80.0556 144.964 79.9916ZM157.908 80.2076C157.588 80.1756 157.332 80.0956 157.14 79.9676C156.964 79.8236 156.828 79.6476 156.732 79.4396C156.604 79.2956 156.524 79.1836 156.492 79.1036C156.476 79.0236 156.476 78.9516 156.492 78.8876C156.572 78.8876 156.644 78.8876 156.708 78.8876C156.772 78.8716 156.812 78.8396 156.828 78.7916C156.828 78.7436 156.852 78.7116 156.9 78.6956C156.964 78.6796 157.028 78.6796 157.092 78.6956C157.396 78.7116 157.764 78.6076 158.196 78.3836C158.644 78.1596 159.132 77.8476 159.66 77.4476C160.188 77.0316 160.716 76.5836 161.244 76.1036C161.66 75.5596 161.948 75.1596 162.108 74.9036C162.284 74.6476 162.372 74.4556 162.372 74.3276C162.388 74.1836 162.356 74.0396 162.276 73.8956C162.212 73.7676 162.06 73.7036 161.82 73.7036C161.58 73.7036 161.212 73.8636 160.716 74.1836C160.028 74.6156 159.476 75.0156 159.06 75.3836C158.644 75.7516 158.26 76.1676 157.908 76.6316C157.78 76.7916 157.636 76.9676 157.476 77.1596C157.332 77.3356 157.204 77.4876 157.092 77.6156C156.996 77.7436 156.948 77.8076 156.948 77.8076C156.948 77.8716 156.852 77.9516 156.66 78.0476C156.484 78.1436 156.332 78.1916 156.204 78.1916C156.14 78.1596 156.052 78.1036 155.94 78.0236C155.844 77.9276 155.78 77.8076 155.748 77.6636C155.604 77.5516 155.484 77.4556 155.388 77.3756C155.292 77.2796 155.244 77.1276 155.244 76.9196C155.244 76.7916 155.26 76.6316 155.292 76.4396C155.34 76.2476 155.404 75.9996 155.484 75.6956C155.58 75.2796 155.684 74.8476 155.796 74.3996C155.908 73.9356 156.012 73.5436 156.108 73.2236C156.22 72.8876 156.3 72.7036 156.348 72.6716C156.348 72.6716 156.38 72.5996 156.444 72.4556C156.508 72.3116 156.54 72.1436 156.54 71.9516C156.572 71.7596 156.62 71.5916 156.684 71.4476C156.764 71.3036 156.804 71.1996 156.804 71.1356C156.868 71.0876 156.964 70.8956 157.092 70.5596C157.22 70.2236 157.38 69.7836 157.572 69.2396C157.572 69.1916 157.628 69.0396 157.74 68.7836C157.852 68.5116 157.988 68.1996 158.148 67.8476C158.308 67.4796 158.468 67.1036 158.628 66.7196C158.804 66.3196 158.948 65.9676 159.06 65.6636C159.252 65.3916 159.412 65.1196 159.54 64.8476C159.684 64.5596 159.812 64.3916 159.924 64.3436C160.004 64.3276 160.14 64.3596 160.332 64.4396C160.54 64.5196 160.748 64.6236 160.956 64.7516C161.164 64.8796 161.308 65.0076 161.388 65.1356C161.436 65.2156 161.46 65.2956 161.46 65.3756C161.476 65.4556 161.444 65.5916 161.364 65.7836C161.284 65.9596 161.148 66.2556 160.956 66.6716C160.764 67.0716 160.492 67.6396 160.14 68.3756C159.692 69.3356 159.34 70.1356 159.084 70.7756C158.844 71.4156 158.644 71.9676 158.484 72.4316C158.34 72.8956 158.188 73.3356 158.028 73.7516L157.908 74.2796L158.532 73.5836C158.692 73.4236 158.86 73.2716 159.036 73.1276C159.212 72.9836 159.404 72.8396 159.612 72.6956C159.74 72.5996 159.908 72.5036 160.116 72.4076C160.34 72.2956 160.556 72.1996 160.764 72.1196C160.972 72.0396 161.124 71.9916 161.22 71.9756C161.268 71.9596 161.428 71.9276 161.7 71.8796C161.988 71.8156 162.268 71.7836 162.54 71.7836C162.892 71.7836 163.196 71.9116 163.452 72.1676C163.724 72.4076 163.964 72.7036 164.172 73.0556C164.348 73.3916 164.412 73.8236 164.364 74.3516C164.316 74.8636 164.18 75.3036 163.956 75.6716C163.876 75.7356 163.796 75.8236 163.716 75.9356C163.636 76.0316 163.596 76.1116 163.596 76.1756C163.58 76.2876 163.436 76.5196 163.164 76.8716C162.892 77.2076 162.62 77.5276 162.348 77.8316C162.06 78.1356 161.708 78.4396 161.292 78.7436C160.876 79.0316 160.46 79.2956 160.044 79.5356C159.644 79.7596 159.3 79.9196 159.012 80.0156C158.884 80.0316 158.7 80.0636 158.46 80.1116C158.22 80.1436 158.036 80.1756 157.908 80.2076ZM169.028 80.1836C168.82 80.1836 168.652 80.1436 168.524 80.0636C168.412 79.9836 168.268 79.8716 168.092 79.7276C167.788 79.4076 167.54 79.0636 167.348 78.6956C167.172 78.3276 167.108 78.0076 167.156 77.7356C167.204 77.6076 167.22 77.4876 167.204 77.3756C167.204 77.2476 167.204 77.1836 167.204 77.1836C167.124 77.1036 167.1 77.0556 167.132 77.0396C167.164 77.0076 167.196 76.9596 167.228 76.8956C167.324 76.8956 167.356 76.8076 167.324 76.6316C167.292 76.5036 167.34 76.2316 167.468 75.8156C167.612 75.3836 167.804 74.9756 168.044 74.5916C168.14 74.4316 168.284 74.2236 168.476 73.9676C168.668 73.6956 168.876 73.4316 169.1 73.1756C169.34 72.9036 169.556 72.6876 169.748 72.5276C170.148 72.1916 170.516 71.9196 170.852 71.7116C171.204 71.5036 171.556 71.3596 171.908 71.2796C172.26 71.1996 172.62 71.1596 172.988 71.1596C173.372 71.1596 173.684 71.2876 173.924 71.5436C174.292 71.7036 174.548 71.9196 174.692 72.1916C174.852 72.4636 174.956 72.8156 175.004 73.2476C175.052 73.7276 175.004 74.3196 174.86 75.0236C174.716 75.7116 174.324 76.5116 173.684 77.4236C173.284 77.9996 172.892 78.4476 172.508 78.7676C172.124 79.0876 171.7 79.3836 171.236 79.6556C170.9 79.8796 170.54 80.0156 170.156 80.0636C169.772 80.1116 169.396 80.1516 169.028 80.1836ZM171.476 77.2556C171.828 76.9516 172.076 76.6156 172.22 76.2476C172.38 75.8796 172.548 75.4476 172.724 74.9516C172.788 74.8556 172.828 74.6956 172.844 74.4716C172.876 74.2476 172.884 74.0316 172.868 73.8236C172.852 73.5996 172.796 73.4716 172.7 73.4396C172.556 73.3276 172.412 73.3036 172.268 73.3676C172.124 73.4156 171.94 73.5196 171.716 73.6796C171.236 74.0796 170.788 74.5436 170.372 75.0716C169.972 75.5836 169.692 76.2156 169.532 76.9676C169.484 77.3676 169.524 77.6716 169.652 77.8796C169.796 78.0716 170.02 78.1276 170.324 78.0476C170.644 77.9516 171.028 77.6876 171.476 77.2556ZM185.668 80.2556C185.428 80.2556 185.196 80.1836 184.972 80.0396C184.748 79.8796 184.564 79.6636 184.42 79.3916C184.276 79.1036 184.204 78.7676 184.204 78.3836C184.204 78.1436 184.244 77.8076 184.324 77.3756C184.42 76.9276 184.556 76.3676 184.732 75.6956C184.764 75.4716 184.788 75.3276 184.804 75.2636C184.836 75.1996 184.852 75.1356 184.852 75.0716C184.852 75.0396 184.844 75.0156 184.828 74.9996C184.828 74.9676 184.812 74.9516 184.78 74.9516C184.652 74.9516 184.476 75.0396 184.252 75.2156C184.044 75.3756 183.804 75.5676 183.532 75.7916C183.484 75.8236 183.428 75.8636 183.364 75.9116C183.316 75.9596 183.26 76.0076 183.196 76.0556C183.148 76.1036 183.092 76.1516 183.028 76.1996C182.868 76.2956 182.62 76.4796 182.284 76.7516C181.964 77.0236 181.628 77.3116 181.276 77.6156C180.94 77.9196 180.644 78.1756 180.388 78.3836C180.26 78.4796 180.148 78.5596 180.052 78.6236C179.972 78.6876 179.916 78.7196 179.884 78.7196C179.852 78.7196 179.724 78.6796 179.5 78.5996C179.292 78.5036 179.084 78.3756 178.876 78.2156C178.684 78.0396 178.588 77.8396 178.588 77.6156C178.588 77.4716 178.644 77.1836 178.756 76.7516C178.884 76.3196 179.06 75.8076 179.284 75.2156C179.508 74.6236 179.764 74.0236 180.052 73.4156C180.116 73.2716 180.164 73.0796 180.196 72.8396C180.228 72.5996 180.26 72.3676 180.292 72.1436C180.34 71.9036 180.42 71.7276 180.532 71.6156C180.58 71.5356 180.636 71.4796 180.7 71.4476C180.78 71.3996 180.86 71.3756 180.94 71.3756C181.1 71.3756 181.252 71.4156 181.396 71.4956C181.54 71.5596 181.676 71.6716 181.804 71.8316C182.044 72.0876 182.172 72.3916 182.188 72.7436C182.22 73.0796 182.196 73.4076 182.116 73.7276C182.036 74.0476 181.948 74.3116 181.852 74.5196C181.756 74.7116 181.708 74.7916 181.708 74.7596C181.772 74.7276 181.86 74.6476 181.972 74.5196C182.1 74.3916 182.316 74.2396 182.62 74.0636C183.036 73.7436 183.356 73.5196 183.58 73.3916C183.804 73.2476 183.972 73.1436 184.084 73.0796C184.212 73.0156 184.324 72.9436 184.42 72.8636C184.5 72.7996 184.556 72.7596 184.588 72.7436C184.636 72.7276 184.66 72.7196 184.66 72.7196C184.708 72.7196 184.788 72.6876 184.9 72.6236C185.028 72.5596 185.148 72.5276 185.26 72.5276C185.42 72.5276 185.588 72.5676 185.764 72.6476C185.94 72.7116 186.092 72.8076 186.22 72.9356C186.348 73.0476 186.412 73.1676 186.412 73.2956C186.412 73.3436 186.428 73.3836 186.46 73.4156C186.492 73.4476 186.524 73.4876 186.556 73.5356C186.636 73.6316 186.724 73.7676 186.82 73.9436C186.932 74.1036 186.988 74.3676 186.988 74.7356C186.988 74.9916 186.932 75.3676 186.82 75.8636C186.708 76.3596 186.588 76.8476 186.46 77.3276C186.332 77.8236 186.268 78.2236 186.268 78.5276C186.284 78.8156 186.316 79.0396 186.364 79.1996C186.412 79.3436 186.436 79.4636 186.436 79.5596C186.436 79.6876 186.372 79.8396 186.244 80.0156C186.116 80.1756 185.924 80.2556 185.668 80.2556ZM200.12 81.7916C200.056 81.9516 199.84 82.0316 199.472 82.0316C199.104 82.0316 198.784 81.9276 198.512 81.7196C198.32 81.5276 198.192 81.3756 198.128 81.2636C198.08 81.1676 198.112 80.9916 198.224 80.7356C198.336 80.4956 198.528 80.0636 198.8 79.4396C198.864 79.0556 198.976 78.6716 199.136 78.2876C199.296 77.8876 199.416 77.6076 199.496 77.4476C199.56 77.2236 199.688 76.8556 199.88 76.3436C200.088 75.8156 200.32 75.2316 200.576 74.5916C200.848 73.9516 201.104 73.3516 201.344 72.7916C201.584 72.2156 201.76 71.7836 201.872 71.4956C202.144 70.8556 202.424 70.1836 202.712 69.4796C203 68.7756 203.392 67.8876 203.888 66.8156C203.952 66.6556 203.928 66.4876 203.816 66.3116C203.704 66.1356 203.512 66.0476 203.24 66.0476C203.08 65.8716 202.992 65.6876 202.976 65.4956C202.96 65.2876 203.04 65.1436 203.216 65.0636L205.424 64.3196C206.176 64.1436 206.944 64.0956 207.728 64.1756C208.528 64.2396 209.28 64.4556 209.984 64.8236C210.752 65.2716 211.312 65.7676 211.664 66.3116C212.016 66.8556 212.208 67.4076 212.24 67.9676C212.288 68.5116 212.224 69.0076 212.048 69.4556C211.92 69.7916 211.672 70.1596 211.304 70.5596C210.952 70.9596 210.536 71.3596 210.056 71.7596C209.592 72.1596 209.104 72.5276 208.592 72.8636C208.096 73.1836 207.632 73.4316 207.2 73.6076C206.8 73.7996 206.352 73.9996 205.856 74.2076C205.36 74.3996 204.88 74.5676 204.416 74.7116C204.16 74.7756 203.856 74.8076 203.504 74.8076C203.152 74.8076 202.888 74.7756 202.712 74.7116L202.304 75.4796C202.144 76.0556 201.864 76.9116 201.464 78.0476C201.08 79.1836 200.632 80.4316 200.12 81.7916ZM209.648 82.2476C209.52 82.2956 209.304 82.3116 209 82.2956C208.712 82.2796 208.384 82.1516 208.016 81.9116C207.312 81.4956 206.608 80.9916 205.904 80.3996C205.2 79.8076 204.408 79.0076 203.528 77.9996C203.192 77.5996 202.936 77.1996 202.76 76.7996C202.6 76.3996 202.392 75.8956 202.136 75.2876L201.8 73.9916L202.712 73.3916L203.768 74.2556C204.024 74.8156 204.32 75.3516 204.656 75.8636C205.008 76.3756 205.36 76.8316 205.712 77.2316C206 77.5676 206.392 77.9756 206.888 78.4556C207.384 78.9196 207.912 79.3676 208.472 79.7996C209.032 80.2316 209.536 80.5596 209.984 80.7836C210.08 80.8636 210.104 81.0156 210.056 81.2396C210.024 81.4796 209.96 81.7036 209.864 81.9116C209.784 82.1196 209.712 82.2316 209.648 82.2476ZM203.6 72.8396C203.968 72.8076 204.368 72.7116 204.8 72.5516C205.248 72.3756 205.72 72.1836 206.216 71.9756C206.68 71.7516 207.136 71.5116 207.584 71.2556C208.048 70.9836 208.464 70.6876 208.832 70.3676C209.216 70.0476 209.512 69.7036 209.72 69.3356C209.944 68.9676 210.04 68.5756 210.008 68.1596C210.008 67.9516 209.944 67.7196 209.816 67.4636C209.688 67.2076 209.52 66.9756 209.312 66.7676C209.12 66.5596 208.92 66.4236 208.712 66.3596C208.072 66.1996 207.584 66.1036 207.248 66.0716C206.912 66.0396 206.664 66.0876 206.504 66.2156C206.36 66.3436 206.248 66.5676 206.168 66.8876C206.168 66.9356 206.104 67.0876 205.976 67.3436C205.848 67.5996 205.688 67.9276 205.496 68.3276C205.32 68.7116 205.144 69.1276 204.968 69.5756C204.504 70.5196 204.16 71.2156 203.936 71.6636C203.728 72.0956 203.6 72.3836 203.552 72.5276C203.52 72.6716 203.536 72.7756 203.6 72.8396ZM215.844 80.7836C214.964 80.7836 214.284 80.5276 213.804 80.0156C213.34 79.5036 213.108 78.7196 213.108 77.6636C213.108 77.0876 213.212 76.4556 213.42 75.7676C213.644 75.0796 213.932 74.4076 214.284 73.7516C214.652 73.0956 215.052 72.5276 215.484 72.0476C215.916 71.5516 216.348 71.2076 216.78 71.0156C216.94 70.9356 217.108 70.8796 217.284 70.8476C217.476 70.7996 217.66 70.7756 217.836 70.7756C218.028 70.7756 218.236 70.7916 218.46 70.8236C218.7 70.8396 218.924 70.8876 219.132 70.9676C219.5 71.0796 219.82 71.2956 220.092 71.6156C220.38 71.9356 220.524 72.3996 220.524 73.0076C220.524 73.1676 220.508 73.3436 220.476 73.5356C220.444 73.7116 220.388 73.8876 220.308 74.0636C220.1 74.5916 219.78 75.0956 219.348 75.5756C218.932 76.0556 218.492 76.3916 218.028 76.5836C217.9 76.6476 217.772 76.6956 217.644 76.7276C217.532 76.7436 217.412 76.7516 217.284 76.7516C216.948 76.7516 216.644 76.7036 216.372 76.6076C216.116 76.5116 215.876 76.3836 215.652 76.2236L215.46 76.0556L215.34 76.2956C215.228 76.5996 215.148 76.8556 215.1 77.0636C215.068 77.2716 215.052 77.4236 215.052 77.5196C215.052 77.7116 215.06 77.9116 215.076 78.1196C215.092 78.3116 215.14 78.4716 215.22 78.5996C215.284 78.6796 215.364 78.7436 215.46 78.7916C215.572 78.8396 215.708 78.8636 215.868 78.8636C215.964 78.8636 216.052 78.8636 216.132 78.8636C216.228 78.8476 216.308 78.8316 216.372 78.8156C216.66 78.7516 216.892 78.6476 217.068 78.5036C217.26 78.3436 217.46 78.2076 217.668 78.0956L217.764 78.0476L217.74 77.9756C218.012 77.8316 218.196 77.7436 218.292 77.7116C218.388 77.6636 218.46 77.6236 218.508 77.5916C218.572 77.5276 218.644 77.4956 218.724 77.4956C218.948 77.4636 219.164 77.5276 219.372 77.6876C219.596 77.8316 219.708 78.0156 219.708 78.2396C219.708 78.3356 219.636 78.4876 219.492 78.6956C219.364 78.9036 219.196 79.1116 218.988 79.3196C218.796 79.5116 218.596 79.6636 218.388 79.7756C218.34 79.7916 218.292 79.8156 218.244 79.8476C218.196 79.8636 218.148 79.8876 218.1 79.9196H218.124C217.98 80.1116 217.836 80.2076 217.692 80.2076H217.5C217.436 80.3196 217.228 80.4396 216.876 80.5676C216.524 80.7116 216.18 80.7836 215.844 80.7836ZM217.092 74.9996C217.236 74.9996 217.364 74.9756 217.476 74.9276C217.604 74.8796 217.724 74.8236 217.836 74.7596C218.22 74.4876 218.468 74.1356 218.58 73.7036C218.692 73.2716 218.652 72.9436 218.46 72.7196C218.428 72.6716 218.388 72.6396 218.34 72.6236C218.292 72.5916 218.236 72.5756 218.172 72.5756C217.996 72.5756 217.796 72.6316 217.572 72.7436C217.364 72.8556 217.156 73.0156 216.948 73.2236C216.74 73.4316 216.548 73.6796 216.372 73.9676L216.06 74.4716C216.092 74.4556 216.116 74.4476 216.132 74.4476C216.164 74.4316 216.188 74.4236 216.204 74.4236C216.348 74.4236 216.444 74.4716 216.492 74.5676C216.54 74.6636 216.596 74.7596 216.66 74.8556C216.74 74.9516 216.884 74.9996 217.092 74.9996ZM229.524 80.6396C229.348 80.7036 229.148 80.7356 228.924 80.7356C228.716 80.7516 228.476 80.6556 228.204 80.4476C228.044 80.2716 227.932 80.0876 227.868 79.8956C227.82 79.7036 227.796 79.4076 227.796 79.0076C227.828 78.7676 227.892 78.4236 227.988 77.9756C228.084 77.5116 228.188 77.0316 228.3 76.5356C228.428 76.0236 228.54 75.5676 228.636 75.1676C228.748 74.7516 228.836 74.4716 228.9 74.3276C229.012 73.9436 229.036 73.7036 228.972 73.6076C228.908 73.5116 228.716 73.4556 228.396 73.4396C228.028 73.4236 227.644 73.5996 227.244 73.9676C226.844 74.3356 226.388 74.9196 225.876 75.7196C225.492 76.3116 225.26 76.7996 225.18 77.1836C225.1 77.5516 225.092 77.8076 225.156 77.9516C225.188 78.0156 225.244 78.0556 225.324 78.0716C225.42 78.0716 225.532 78.0476 225.66 77.9996C225.804 77.9516 225.956 77.8876 226.116 77.8076C226.228 77.7436 226.364 77.6796 226.524 77.6156C226.7 77.5356 226.868 77.4636 227.028 77.3996C227.124 77.3996 227.188 77.4556 227.22 77.5676C227.268 77.6796 227.292 77.8156 227.292 77.9756C227.292 78.0396 227.308 78.1596 227.34 78.3356C227.388 78.5116 227.468 78.6316 227.58 78.6956C227.644 78.7596 227.508 78.8956 227.172 79.1036C226.852 79.2956 226.436 79.5356 225.924 79.8236C225.444 79.9356 225.084 79.9916 224.844 79.9916C224.62 79.9916 224.372 79.8876 224.1 79.6796C223.652 79.4076 223.364 78.9036 223.236 78.1676C223.124 77.4316 223.22 76.6156 223.524 75.7196C223.828 74.9996 224.164 74.3836 224.532 73.8716C224.916 73.3436 225.316 72.8636 225.732 72.4316C225.796 72.3676 225.996 72.2396 226.332 72.0476C226.668 71.8556 227.012 71.7036 227.364 71.5916C227.764 71.4636 228.1 71.4156 228.372 71.4476C228.66 71.4636 228.932 71.5596 229.188 71.7356C229.476 71.7996 229.668 71.7916 229.764 71.7116C229.876 71.6316 230.004 71.4076 230.148 71.0396C230.436 70.2396 230.74 69.4316 231.06 68.6156C231.38 67.7836 231.716 66.9436 232.068 66.0956C232.228 65.7916 232.324 65.5596 232.356 65.3996C232.404 65.2236 232.46 65.1036 232.524 65.0396L233.196 64.8236C233.372 64.7756 233.572 64.8556 233.796 65.0636C234.036 65.2716 234.188 65.4716 234.252 65.6636C234.252 65.8076 234.188 66.1276 234.06 66.6236C233.932 67.1036 233.724 67.6796 233.436 68.3516C233.18 68.9436 232.924 69.5436 232.668 70.1516C232.428 70.7436 232.196 71.3756 231.972 72.0476C231.796 72.5436 231.636 72.9436 231.492 73.2476C231.348 73.5516 231.252 73.8156 231.204 74.0396C231.108 74.4556 230.988 74.8316 230.844 75.1676C230.716 75.4876 230.628 75.7116 230.58 75.8396C230.372 76.4476 230.212 76.9516 230.1 77.3516C229.988 77.7356 229.916 78.0716 229.884 78.3596C229.852 78.6316 229.844 78.9036 229.86 79.1756C229.876 79.4316 229.908 79.7276 229.956 80.0636C229.956 80.1276 229.908 80.2236 229.812 80.3516C229.732 80.4636 229.636 80.5596 229.524 80.6396ZM236.612 79.5116C236.308 79.2396 236.044 78.9596 235.82 78.6716C235.596 78.3676 235.444 77.9036 235.364 77.2796C235.332 76.9916 235.364 76.5916 235.46 76.0796C235.556 75.5676 235.7 75.0316 235.892 74.4716C236.084 73.8956 236.292 73.3676 236.516 72.8876C236.74 72.4076 236.964 72.0556 237.188 71.8316C237.38 71.5916 237.62 71.3996 237.908 71.2556C238.212 71.1116 238.524 71.1116 238.844 71.2556C239.02 71.4636 239.108 71.7516 239.108 72.1196C239.124 72.4716 239.036 72.7996 238.844 73.1036C238.524 73.5356 238.244 74.0796 238.004 74.7356C237.78 75.3756 237.628 75.9516 237.548 76.4636C237.436 76.8316 237.388 77.1196 237.404 77.3276C237.42 77.5196 237.532 77.6396 237.74 77.6876C238.044 77.7676 238.356 77.6796 238.676 77.4236C239.012 77.1676 239.332 76.7916 239.636 76.2956C239.956 75.7996 240.236 75.2316 240.476 74.5916C240.572 74.3676 240.644 74.1036 240.692 73.7996C240.756 73.4956 240.82 73.2716 240.884 73.1276C240.964 72.8076 241.1 72.5596 241.292 72.3836C241.5 72.1916 241.716 72.0716 241.94 72.0236C242.164 71.9756 242.332 71.9996 242.444 72.0956C242.588 72.1596 242.74 72.2636 242.9 72.4076C243.06 72.5516 243.124 72.8076 243.092 73.1756C243.092 73.7676 242.964 74.2716 242.708 74.6876C242.452 75.1036 242.236 75.5436 242.06 76.0076C241.916 76.3436 241.684 76.7356 241.364 77.1836C241.044 77.6316 240.7 78.0396 240.332 78.4076C239.98 78.7756 239.652 79.0236 239.348 79.1516C238.9 79.4396 238.444 79.6156 237.98 79.6796C237.516 79.7276 237.06 79.6716 236.612 79.5116ZM248.639 80.4476C248.175 80.5276 247.711 80.4876 247.247 80.3276C246.799 80.1676 246.423 79.9116 246.119 79.5596C245.831 79.1916 245.687 78.7516 245.687 78.2396C245.639 77.7596 245.679 77.1916 245.807 76.5356C245.951 75.8636 246.159 75.1916 246.431 74.5196C246.719 73.8476 247.047 73.2796 247.415 72.8156C247.735 72.4316 248.055 72.0796 248.375 71.7596C248.695 71.4396 248.983 71.2236 249.239 71.1116C249.463 71.0156 249.735 70.9436 250.055 70.8956C250.391 70.8316 250.623 70.7996 250.751 70.7996C251.007 70.8636 251.287 70.9676 251.591 71.1116C251.911 71.2556 252.071 71.4236 252.071 71.6156C252.071 71.6156 252.087 71.6396 252.119 71.6876C252.167 71.7196 252.191 71.7356 252.191 71.7356C252.287 71.7356 252.391 71.8556 252.503 72.0956C252.631 72.3196 252.727 72.5836 252.791 72.8876C252.855 73.1756 252.839 73.4076 252.743 73.5836C252.679 73.8876 252.551 74.1836 252.359 74.4716C252.183 74.7596 252.031 74.9036 251.903 74.9036C251.839 74.9036 251.775 74.9116 251.711 74.9276C251.663 74.9276 251.639 74.9676 251.639 75.0476C251.639 75.1276 251.551 75.1676 251.375 75.1676C251.215 75.1676 251.047 75.1356 250.871 75.0716C250.695 75.0076 250.583 74.9116 250.535 74.7836C250.535 74.7036 250.551 74.5996 250.583 74.4716C250.615 74.3436 250.663 74.1276 250.727 73.8236C250.823 73.3756 250.831 73.0796 250.751 72.9356C250.671 72.7756 250.471 72.7596 250.151 72.8876C249.751 73.1116 249.423 73.3756 249.167 73.6796C248.911 73.9676 248.679 74.3756 248.471 74.9036C248.279 75.4316 248.063 76.1676 247.823 77.1116C247.727 77.4796 247.711 77.7676 247.775 77.9756C247.855 78.1836 247.919 78.2956 247.967 78.3116C248.191 78.3756 248.431 78.3916 248.687 78.3596C248.959 78.3116 249.183 78.2396 249.359 78.1436C249.615 78.0156 249.839 77.8796 250.031 77.7356C250.239 77.5756 250.463 77.4076 250.703 77.2316C250.783 77.1836 250.855 77.0956 250.919 76.9676C250.983 76.8236 251.079 76.7196 251.207 76.6556C251.335 76.4636 251.495 76.3676 251.687 76.3676C251.895 76.3516 252.095 76.3436 252.287 76.3436C252.415 76.3756 252.551 76.4556 252.695 76.5836C252.839 76.7116 252.943 76.8396 253.007 76.9676C253.087 77.0796 253.079 77.1596 252.983 77.2076C252.919 77.2076 252.879 77.2316 252.863 77.2796C252.863 77.3116 252.863 77.3276 252.863 77.3276C252.895 77.3916 252.823 77.5356 252.647 77.7596C252.487 77.9836 252.279 78.2236 252.023 78.4796C251.767 78.7356 251.519 78.9596 251.279 79.1516C251.055 79.3276 250.895 79.4156 250.799 79.4156C250.639 79.4156 250.559 79.4636 250.559 79.5596C250.559 79.5916 250.439 79.6716 250.199 79.7996C249.975 79.9276 249.711 80.0556 249.407 80.1836C249.119 80.3116 248.863 80.3996 248.639 80.4476ZM261.029 79.8716C260.549 80.1436 260.037 80.3036 259.493 80.3516C258.965 80.3836 258.469 80.3116 258.005 80.1356C257.541 79.9436 257.165 79.6636 256.877 79.2956C256.717 79.0876 256.565 78.7596 256.421 78.3116C256.277 77.8476 256.253 77.2236 256.349 76.4396C256.445 75.7036 256.669 74.9596 257.021 74.2076C257.389 73.4556 257.837 72.7916 258.365 72.2156C258.893 71.6396 259.469 71.2476 260.093 71.0396C260.317 70.9596 260.541 70.9036 260.765 70.8716C261.005 70.8236 261.317 70.8156 261.701 70.8476C262.069 70.8956 262.397 70.9916 262.685 71.1356C262.973 71.2636 263.181 71.4076 263.309 71.5676C263.565 71.8236 263.733 72.0716 263.813 72.3116C263.893 72.5516 263.925 72.7836 263.909 73.0076C263.829 73.5196 263.597 74.0716 263.213 74.6636C262.845 75.2556 262.325 75.6956 261.653 75.9836C261.381 76.0956 261.061 76.1676 260.693 76.1996C260.325 76.2316 259.821 76.1836 259.181 76.0556C258.797 75.9756 258.541 76.0156 258.413 76.1756C258.301 76.3356 258.253 76.6476 258.269 77.1116C258.301 77.3996 258.365 77.6556 258.461 77.8796C258.573 78.0876 258.773 78.2316 259.061 78.3116C259.429 78.3756 259.693 78.3836 259.853 78.3356C260.013 78.2716 260.213 78.1836 260.453 78.0716C260.581 77.9916 260.701 77.9036 260.813 77.8076C260.941 77.7116 261.061 77.6156 261.173 77.5196C261.301 77.4236 261.405 77.3516 261.485 77.3036C261.565 77.2396 261.645 77.1996 261.725 77.1836C261.805 77.1676 261.885 77.1596 261.965 77.1596C262.141 77.1756 262.309 77.2716 262.469 77.4476C262.629 77.6236 262.733 77.7916 262.781 77.9516C262.781 78.0796 262.701 78.2636 262.541 78.5036C262.381 78.7276 262.165 78.9676 261.893 79.2236C261.637 79.4636 261.349 79.6796 261.029 79.8716ZM260.717 74.5196C260.829 74.4716 260.989 74.3596 261.197 74.1836C261.421 74.0076 261.621 73.8236 261.797 73.6316C261.973 73.4236 262.061 73.2636 262.061 73.1516C262.061 72.9756 261.941 72.8236 261.701 72.6956C261.477 72.5676 261.181 72.5436 260.813 72.6236C260.685 72.6556 260.533 72.7436 260.357 72.8876C260.181 73.0316 260.005 73.1996 259.829 73.3916C259.653 73.5676 259.501 73.7436 259.373 73.9196C259.245 74.0796 259.157 74.2076 259.109 74.3036C259.173 74.3836 259.301 74.4476 259.493 74.4956C259.685 74.5436 259.893 74.5676 260.117 74.5676C260.357 74.5676 260.557 74.5516 260.717 74.5196ZM268.252 79.8476C268.204 79.8636 268.1 79.8556 267.94 79.8236C267.796 79.7916 267.644 79.7516 267.484 79.7036C267.34 79.6556 267.252 79.6156 267.22 79.5836C267.156 79.5196 267.068 79.4076 266.956 79.2476C266.844 79.0716 266.78 78.8396 266.764 78.5516C266.764 78.2636 266.9 77.9196 267.172 77.5196C267.252 77.3596 267.348 77.1196 267.46 76.7996C267.572 76.4796 267.684 76.1436 267.796 75.7916C267.924 75.4236 268.036 75.0956 268.132 74.8076C268.244 74.5196 268.324 74.3196 268.372 74.2076C268.404 73.9356 268.388 73.7436 268.324 73.6316C268.276 73.5036 268.14 73.4316 267.916 73.4156C267.756 73.4156 267.628 73.3596 267.532 73.2476C267.452 73.1356 267.412 72.9356 267.412 72.6476C267.444 72.4236 267.5 72.2316 267.58 72.0716C267.676 71.8956 267.804 71.7516 267.964 71.6396C268.124 71.5596 268.324 71.5036 268.564 71.4716C268.82 71.4396 269.068 71.4316 269.308 71.4476C269.548 71.4636 269.716 71.5196 269.812 71.6156C269.924 71.6796 270.012 71.8236 270.076 72.0476C270.156 72.2556 270.22 72.4716 270.268 72.6956C270.316 72.9196 270.348 73.0876 270.364 73.1996C270.524 73.0716 270.7 72.8956 270.892 72.6716C271.1 72.4316 271.308 72.2076 271.516 71.9996C271.772 71.8236 272.076 71.6476 272.428 71.4716C272.78 71.2796 273.036 71.1836 273.196 71.1836C273.372 71.1836 273.588 71.2716 273.844 71.4476C274.1 71.6076 274.26 71.7516 274.324 71.8796C274.484 72.1516 274.596 72.4396 274.66 72.7436C274.74 73.0316 274.692 73.2876 274.516 73.5116C274.356 73.7196 274.132 73.9276 273.844 74.1356C273.556 74.3276 273.196 74.3836 272.764 74.3036C272.668 74.2716 272.564 74.1516 272.452 73.9436C272.356 73.7356 272.3 73.5836 272.284 73.4876C272.284 73.4396 272.212 73.4876 272.068 73.6316C271.94 73.7596 271.78 73.9196 271.588 74.1116C271.412 74.3036 271.244 74.4796 271.084 74.6396C270.812 74.9756 270.524 75.4316 270.22 76.0076C269.916 76.5836 269.556 77.2796 269.14 78.0956C268.948 78.4956 268.788 78.8796 268.66 79.2476C268.532 79.5996 268.396 79.7996 268.252 79.8476Z" fill="#B8C318"/>
</svg>
