<svg width="288" height="96" viewBox="0 0 288 96" fill="none" xmlns="http://www.w3.org/2000/svg">
<path d="M103.712 38.1996C104.832 44.6636 102.976 47.1596 99.872 45.9756C98.432 45.4316 97.28 44.0876 96.384 41.9756C94.688 43.6396 92.672 45.0476 90.368 46.0716C89.568 46.4236 89.056 46.1676 88.704 45.5916C88.352 44.9836 88.512 44.4396 89.216 43.9276C91.648 42.1676 93.632 40.2156 95.2 38.1036C94.432 34.5196 94.048 29.7516 93.984 23.7356H87.296C87.072 23.7356 86.912 23.8956 86.912 24.1196V28.7276C86.912 37.4636 86.048 42.3276 83.296 45.7196C82.88 46.2316 82.304 46.3596 81.76 45.9756C81.216 45.5916 81.12 45.1116 81.344 44.4716C82.496 41.1436 82.624 37.1436 82.624 28.7916V23.1276C82.624 21.7836 83.488 21.0476 84.832 21.0476H93.984V17.8796C93.984 16.6956 94.752 16.0556 96.128 16.0556C97.12 16.0556 97.792 16.3756 98.08 16.9836C98.08 16.6956 98.208 16.4396 98.496 16.1516C98.912 15.7676 99.456 15.7356 100 16.1196C100.992 16.8236 101.888 17.6556 102.784 18.8716C103.296 19.5436 103.136 20.4396 102.208 21.0476H102.336C103.2 21.0476 103.68 21.5276 103.68 22.3916C103.68 23.2556 103.2 23.7356 102.336 23.7356H98.272C98.304 26.8716 98.368 29.5596 98.496 31.7996C98.976 30.4556 99.328 29.0476 99.584 27.5756C99.808 26.3276 100.832 25.7196 102.208 26.0716C103.52 26.4236 103.904 27.4156 103.616 28.5676C102.752 31.9916 101.376 35.3836 99.392 38.3596C99.648 39.4156 100 40.2156 100.416 40.7916C101.152 41.8156 101.376 41.0796 101.408 38.1356C101.408 37.3356 101.92 36.9196 102.56 36.9196C103.232 36.9196 103.584 37.3356 103.712 38.1996ZM79.104 21.5276C78.304 20.2796 77.504 19.1596 76.704 18.2316C76.256 17.6876 76.256 17.0796 76.672 16.5676C77.088 16.0556 77.568 16.0876 78.272 16.3436C79.424 16.7596 80.896 17.5916 82.112 18.5516C83.264 19.4476 83.328 20.6956 82.24 21.7516C81.088 22.8396 79.872 22.7436 79.104 21.5276ZM98.272 17.6236V17.8796C98.272 18.8716 98.272 19.9916 98.272 21.0476H100.032C99.904 20.9196 99.808 20.7916 99.744 20.6316C99.264 19.5436 98.784 18.5836 98.304 17.7196C98.304 17.6876 98.272 17.6556 98.272 17.6236ZM77.504 28.9516C76.672 27.6396 75.84 26.5836 75.072 25.6556C74.624 25.1436 74.656 24.5356 75.04 24.0236C75.424 23.4796 75.936 23.5116 76.544 23.7356C77.76 24.1836 79.04 24.8876 80.512 25.9756C81.632 26.7756 81.824 28.1196 80.704 29.2396C79.584 30.3596 78.24 30.0716 77.504 28.9516ZM92.416 28.1196H88.736C87.904 28.1196 87.392 27.6076 87.392 26.7756C87.392 25.9436 87.904 25.4316 88.736 25.4316H92.416C93.248 25.4316 93.76 25.9436 93.76 26.7756C93.76 27.6076 93.248 28.1196 92.416 28.1196ZM91.968 39.5756H89.184C88 39.5756 87.328 38.9036 87.328 37.7196V31.6716C87.328 30.4876 88 29.8156 89.184 29.8156H91.968C93.152 29.8156 93.824 30.4876 93.824 31.6716V37.7196C93.824 38.9036 93.024 39.5756 91.968 39.5756ZM80.384 32.1516C81.024 32.2796 81.376 32.7596 81.312 33.5276C80.992 36.9836 80.384 40.8236 79.776 43.4796C79.328 45.3996 77.984 46.1676 76.384 45.4636C74.688 44.7276 74.432 43.3836 75.264 41.7516C76.416 39.4796 77.76 36.4716 78.976 33.0156C79.232 32.2796 79.712 32.0236 80.384 32.1516ZM90.016 32.8876V36.5036C90.016 36.7276 90.176 36.8876 90.4 36.8876H90.752C90.976 36.8876 91.136 36.7276 91.136 36.5036V32.8876C91.136 32.6636 90.976 32.5036 90.752 32.5036H90.4C90.176 32.5036 90.016 32.6636 90.016 32.8876ZM125.76 25.3996C124.416 25.3996 123.68 24.6636 123.68 23.3196V19.3836C123.68 18.1996 124.448 17.5596 125.824 17.5596C127.2 17.5596 127.968 18.1996 127.968 19.3836V22.4556C127.968 22.6796 128.128 22.8396 128.352 22.8396H129.312V18.1356C129.312 16.8876 130.112 16.1836 131.584 16.1836C133.056 16.1836 133.856 16.8876 133.856 18.1356V22.8396H134.784C135.008 22.8396 135.168 22.6796 135.168 22.4556V19.4796C135.168 18.2636 135.936 17.6236 137.344 17.6236C138.752 17.6236 139.52 18.2636 139.52 19.4796V23.3196C139.52 24.6636 138.784 25.3996 137.44 25.3996H125.76ZM121.952 38.6476C121.952 39.9916 121.216 40.7276 119.872 40.7276H117.312V42.7436C117.312 43.8316 116.64 44.4396 115.456 44.4396C114.272 44.4396 113.6 43.8316 113.6 42.7436V35.4476L113.12 35.9916C112.64 36.5036 112.224 36.6316 111.744 36.2476C111.264 35.8636 111.2 35.4156 111.456 34.8396C113.152 31.5116 113.984 26.3596 114.24 20.7596H112.704C111.872 20.7596 111.392 20.2796 111.392 19.4476C111.392 18.6156 111.872 18.1356 112.704 18.1356H121.408C122.272 18.1356 122.72 18.6156 122.72 19.4476C122.72 20.2796 122.272 20.7596 121.408 20.7596H118.656C118.496 22.9036 118.144 25.0156 117.632 26.9676H119.872C121.216 26.9676 121.952 27.7036 121.952 29.0476V38.6476ZM139.168 41.8796C140.16 42.7116 140.576 43.9276 139.552 45.1436C138.56 46.3276 137.184 46.3596 136.096 45.1116C134.304 43.0636 133.504 39.8636 133.28 37.2076C132.8 40.9836 129.28 44.8556 125.12 46.1356C124.448 46.3276 123.936 46.1996 123.68 45.6556C123.424 45.1436 123.552 44.6316 124.128 44.2476C126.464 42.6156 128 40.5676 128.896 38.0716C127.968 38.3916 127.168 38.0076 126.912 36.8876C126.88 36.6956 126.816 36.5036 126.784 36.2796C126.208 41.0476 124.672 43.4476 121.92 45.6876C121.344 46.1356 120.768 46.1036 120.352 45.6876C119.904 45.2396 119.872 44.6956 120.288 44.0876C122.176 41.4636 122.72 39.0636 122.72 31.5116V28.4716C122.72 27.0316 123.456 26.2636 124.8 26.2636H138.848C139.68 26.2636 140.16 26.7436 140.16 27.5756C140.16 28.4076 139.68 28.8876 138.848 28.8876H127.392C127.168 28.8876 127.008 29.0156 127.008 29.2716V31.5116V31.7676C127.136 31.8636 127.296 31.9596 127.456 32.1196C128.352 32.9196 129.088 34.0716 129.6 35.1596C129.76 34.0396 129.856 32.8876 129.856 31.6396C129.856 30.1356 130.688 29.3356 132.192 29.3676C133.728 29.3996 134.592 30.1676 134.528 31.6396C134.496 32.5356 134.464 33.5276 134.368 34.4236C134.464 34.8396 134.56 35.2556 134.72 35.6716C135.328 34.6796 135.872 33.5596 136.416 32.3756C137.024 31.0636 138.048 31.0636 139.04 31.6076C140 32.1516 140.064 33.3036 139.328 34.3276C138.464 35.5436 137.248 36.7596 135.968 37.6876C135.872 37.7516 135.776 37.8156 135.68 37.8476C136.48 39.2556 137.632 40.5996 139.168 41.8796ZM118.432 37.7836V29.9116C118.432 29.6876 118.272 29.5276 118.048 29.5276H117.696C117.472 29.5276 117.312 29.6876 117.312 29.9116V38.1676H118.048C118.272 38.1676 118.432 38.0076 118.432 37.7836ZM157.76 25.3356C156.928 25.3356 156.48 24.8876 156.48 24.0556C156.48 23.2236 156.928 22.7756 157.76 22.7756H163.456V21.4956H158.944C158.144 21.4956 157.664 21.0156 157.664 20.2156C157.664 19.4156 158.144 18.9356 158.944 18.9356H163.456V18.1676C163.456 16.7916 164.352 16.1516 165.952 16.1516C167.552 16.1516 168.448 16.7916 168.448 18.1676V18.9356H173.248C174.08 18.9356 174.528 19.4156 174.528 20.2156C174.528 21.0156 174.08 21.4956 173.248 21.4956H168.448V22.7756H174.656C175.488 22.7756 175.936 23.2236 175.936 24.0556C175.936 24.8876 175.488 25.3356 174.656 25.3356H171.648C172.256 25.9756 172.096 26.9356 171.04 27.9276L170.464 28.4396H173.984C174.816 28.4396 175.264 28.9196 175.264 29.7196C175.264 30.5196 174.816 30.9996 173.984 30.9996H168.416V31.9596H172.896C173.696 31.9596 174.176 32.4076 174.176 33.2396C174.176 34.0716 173.696 34.5196 172.896 34.5196H168.416V35.5116H174.688C175.488 35.5116 175.968 35.9916 175.968 36.7916C175.968 37.5916 175.488 38.0716 174.688 38.0716H168.416V38.9676C168.416 40.3436 167.552 41.0476 165.952 41.0476C164.352 41.0476 163.488 40.3116 163.488 38.9676V38.0716H157.568C156.768 38.0716 156.288 37.5916 156.288 36.7916C156.288 35.9916 156.768 35.5116 157.568 35.5116H163.488V34.5196H159.232C158.4 34.5196 157.952 34.0716 157.952 33.2396C157.952 32.4076 158.4 31.9596 159.232 31.9596H163.488V30.9996H158.016C157.216 30.9996 156.736 30.5196 156.736 29.7196C156.736 28.9196 157.216 28.4396 158.016 28.4396H161.216C160.8 27.7356 160.384 27.0636 159.936 26.3596C159.68 25.9756 159.616 25.6556 159.776 25.3356H157.76ZM152.704 21.6876C151.808 20.6956 150.688 19.5756 149.792 18.7116C149.28 18.1996 149.216 17.5916 149.568 17.0476C149.92 16.5036 150.432 16.4076 151.104 16.6636C152.48 17.1756 154.112 17.9436 155.328 18.7756C156.64 19.6076 156.736 20.7916 155.808 21.8476C154.88 22.9036 153.76 22.8716 152.704 21.6876ZM151.648 27.8636C150.784 26.7116 149.728 25.6236 148.8 24.6956C148.32 24.1836 148.256 23.6396 148.608 23.1276C148.96 22.5836 149.472 22.5196 150.08 22.7436C151.456 23.1916 153.024 24.0236 154.304 24.9836C155.584 25.8156 155.68 26.9996 154.72 28.0876C153.792 29.1436 152.64 29.0796 151.648 27.8636ZM168.384 26.0716C168.48 25.7836 168.64 25.5276 168.768 25.3356H162.336C162.88 25.6876 163.392 26.1036 163.84 26.4876C164.576 27.1276 164.672 27.8316 164.288 28.4396H167.392C167.776 27.6716 168.064 26.9036 168.384 26.0716ZM174.08 41.0796C175.776 40.9516 176.672 41.5596 176.672 43.0636C176.672 44.5996 176 45.2716 174.304 45.3676C170.4 45.5596 166.72 45.5916 163.136 45.3996C158.304 45.1436 155.52 43.7356 154.144 41.2716C153.984 40.9836 153.824 40.9516 153.728 41.1756C153.216 42.4876 152.544 43.8956 151.488 45.3036C150.528 46.6156 148.992 46.5836 147.904 45.4316C146.784 44.2476 147.072 42.9676 148.224 42.0396C149.472 41.0156 150.464 40.0876 151.008 39.3836V32.9196C151.008 32.6956 150.848 32.5356 150.624 32.5356H149.056C148.224 32.5356 147.744 31.9916 147.744 31.1596C147.744 30.3276 148.224 29.8476 149.056 29.8476H153.792C155.136 29.8476 155.872 30.5836 155.872 31.9276V38.7756C156.544 40.4716 158.848 41.1756 163.296 41.3036C166.592 41.3996 170.272 41.3356 174.08 41.0796ZM184.576 45.4636C184.224 44.7916 184.384 43.9276 185.12 43.4476C192.576 38.5516 195.744 31.0956 195.744 21.1436V18.8076C195.744 17.1756 196.832 16.3436 198.496 16.3436C200.224 16.3436 201.376 17.1436 201.408 18.8076C201.44 20.1196 201.44 21.8156 201.536 22.8716C202.048 28.5996 206.272 36.3436 211.744 40.6316C213.12 41.6876 213.472 43.2236 212.416 44.8236C211.392 46.3596 209.44 46.6156 207.968 45.2396C203.776 41.2716 200.64 33.9116 200.064 27.3516C199.392 34.9036 195.136 42.5836 186.304 46.0396C185.504 46.3596 184.928 46.1356 184.576 45.4636Z" fill="#594A39"/>
<path d="M21.1098 81.9356C20.8698 81.8396 20.5898 81.7036 20.2698 81.5276C19.9498 81.3676 19.6458 81.1516 19.3578 80.8796C19.0698 80.6076 18.8458 80.2796 18.6858 79.8956C18.5258 79.4316 18.4138 78.9756 18.3498 78.5276C18.3018 78.0796 18.2858 77.5596 18.3018 76.9676C18.3018 76.1356 18.3578 75.4156 18.4698 74.8076C18.5978 74.1836 18.7898 73.5516 19.0458 72.9116C19.0778 72.8636 19.1338 72.7276 19.2138 72.5036C19.3098 72.2636 19.4138 72.0076 19.5258 71.7356C19.6538 71.4636 19.7498 71.2556 19.8138 71.1116C19.9418 70.8396 20.1338 70.4796 20.3898 70.0316C20.6618 69.5676 20.9498 69.1196 21.2538 68.6876C21.7178 67.9996 22.1098 67.4396 22.4298 67.0076C22.7498 66.5596 23.0538 66.1836 23.3418 65.8796C23.6458 65.5756 23.9738 65.2796 24.3258 64.9916C24.6938 64.7036 25.1498 64.3756 25.6938 64.0076C26.0458 63.7516 26.4938 63.5916 27.0378 63.5276C27.5978 63.4636 28.1418 63.5516 28.6698 63.7916C29.1978 64.0156 29.5898 64.4476 29.8458 65.0876C30.0218 65.4236 30.1018 65.8476 30.0858 66.3596C30.0698 66.8556 29.9738 67.3916 29.7978 67.9676C29.6218 68.5276 29.3978 69.0556 29.1258 69.5516C28.8538 70.0476 28.5498 70.4476 28.2138 70.7516C28.0058 70.9436 27.7258 70.9756 27.3738 70.8476C27.0378 70.7196 26.7578 70.5516 26.5338 70.3436C26.3898 70.0716 26.3098 69.9116 26.2938 69.8636C26.2938 69.8156 26.3258 69.7836 26.3898 69.7676C26.4858 69.6556 26.6138 69.4636 26.7738 69.1916C26.9338 68.9196 27.0938 68.6316 27.2538 68.3276C27.4138 68.0076 27.5258 67.7516 27.5898 67.5596C27.7178 66.8876 27.8058 66.4476 27.8538 66.2396C27.9018 66.0156 27.8538 65.8316 27.7098 65.6876C27.6458 65.6236 27.5498 65.5996 27.4218 65.6156C27.3098 65.6316 27.1178 65.7116 26.8458 65.8556C26.4778 66.0156 26.0378 66.3436 25.5258 66.8396C25.0298 67.3196 24.5338 67.8956 24.0378 68.5676C23.3978 69.4156 22.8618 70.1676 22.4298 70.8236C21.9978 71.4796 21.6698 72.1516 21.4458 72.8396C21.4138 72.9036 21.3578 73.0236 21.2778 73.1996C21.2138 73.3756 21.1818 73.4636 21.1818 73.4636C21.1978 73.5276 21.1738 73.6876 21.1098 73.9436C21.0458 74.1836 20.9738 74.3916 20.8938 74.5676C20.7178 75.3036 20.6138 76.0156 20.5818 76.7036C20.5498 77.3756 20.5898 77.9676 20.7018 78.4796C20.8298 78.9756 21.0138 79.3436 21.2538 79.5836C21.4618 79.7276 21.7258 79.7756 22.0458 79.7276C22.3658 79.6796 22.7338 79.5676 23.1498 79.3916C23.5658 79.2156 24.0138 79.0236 24.4938 78.8156C24.8778 78.6556 25.2298 78.4796 25.5498 78.2876C25.8698 78.0956 26.1098 77.9276 26.2698 77.7836C26.3978 77.6876 26.5578 77.5916 26.7498 77.4956C26.9578 77.3836 27.1338 77.3276 27.2778 77.3276C27.5018 77.2476 27.6698 77.3116 27.7818 77.5196C27.8938 77.7276 27.9498 77.9916 27.9498 78.3116C27.9498 78.5356 27.7898 78.8076 27.4698 79.1276C27.1498 79.4476 26.7978 79.7196 26.4138 79.9436C26.2858 80.0716 26.1098 80.1916 25.8858 80.3036C25.6778 80.3996 25.4618 80.4876 25.2378 80.5676C24.9018 80.8236 24.4858 81.0716 23.9898 81.3116C23.4938 81.5516 22.9898 81.7356 22.4778 81.8636C21.9818 81.9916 21.5258 82.0156 21.1098 81.9356ZM32.1393 79.8476C32.0753 79.7196 31.9313 79.5916 31.7073 79.4636C31.4993 79.3356 31.3953 79.2396 31.3953 79.1756C31.3953 79.1116 31.3553 79.0156 31.2753 78.8876C31.2113 78.7436 31.1473 78.6396 31.0833 78.5756C31.0033 78.4796 31.0273 78.2476 31.1553 77.8796C31.2833 77.4956 31.4753 77.0316 31.7313 76.4876C31.9873 75.9436 32.2673 75.3916 32.5713 74.8316C32.6993 74.7036 32.8273 74.5356 32.9553 74.3276C33.0833 74.1196 33.1793 73.9836 33.2433 73.9196C33.2433 73.8556 33.2673 73.7996 33.3153 73.7516C33.3633 73.6876 33.4193 73.6556 33.4833 73.6556L33.6753 73.2716C33.7073 73.2076 33.8033 73.0796 33.9633 72.8876C34.1393 72.6956 34.3473 72.4876 34.5873 72.2636C34.8273 72.0236 35.0673 71.7996 35.3073 71.5916C35.5633 71.3836 35.7713 71.2316 35.9313 71.1356C36.2673 70.9116 36.6113 70.8076 36.9633 70.8236C37.3313 70.8396 37.6433 70.9516 37.8993 71.1596C37.9473 71.2076 38.0513 71.3036 38.2113 71.4476C38.3873 71.5916 38.5793 71.7516 38.7873 71.9276C39.0113 72.1036 39.2033 72.2636 39.3633 72.4076L40.2513 73.1996L39.8433 74.3996C39.6353 75.0396 39.5793 75.5996 39.6753 76.0796C39.7713 76.5596 39.9233 76.9756 40.1313 77.3276C40.2113 77.5036 40.3153 77.6396 40.4433 77.7356C40.5873 77.8316 40.7713 77.8956 40.9953 77.9276C41.1233 77.9436 41.2433 77.9916 41.3553 78.0716C41.4673 78.1516 41.5233 78.2796 41.5233 78.4556C41.5233 78.8396 41.4513 79.1196 41.3073 79.2956C41.1793 79.4556 41.0353 79.5516 40.8753 79.5836C40.3473 79.6476 39.8433 79.5916 39.3633 79.4156C38.8833 79.2396 38.4513 78.7836 38.0673 78.0476C38.0033 77.9516 37.9153 77.7756 37.8033 77.5196C37.7073 77.2476 37.6513 77.0716 37.6353 76.9916C37.5713 77.0716 37.4833 77.1756 37.3713 77.3036C37.2753 77.4156 37.1793 77.5196 37.0833 77.6156C35.9473 78.7676 34.9713 79.5196 34.1553 79.8716C33.3553 80.2076 32.6833 80.1996 32.1393 79.8476ZM33.4593 77.8556C33.5713 77.8716 33.7473 77.8156 33.9873 77.6876C34.2273 77.5436 34.5473 77.3116 34.9473 76.9916C35.4913 76.5276 35.9393 76.1436 36.2913 75.8396C36.6433 75.5356 36.9873 75.1436 37.3233 74.6636L37.8513 73.7996C37.6913 73.4316 37.5473 73.1916 37.4193 73.0796C37.2913 72.9676 37.1633 72.9116 37.0353 72.9116C36.8273 72.9116 36.5793 73.0476 36.2913 73.3196C36.0033 73.5756 35.6753 73.9596 35.3073 74.4716C34.9553 74.9676 34.5553 75.5916 34.1073 76.3436C33.8993 76.6956 33.7393 77.0396 33.6273 77.3756C33.5153 77.6956 33.4593 77.8556 33.4593 77.8556ZM44.6502 79.7036C44.5062 79.5916 44.3462 79.4476 44.1702 79.2716C44.0102 79.0956 43.9542 78.8476 44.0022 78.5276C44.0502 78.0796 44.1142 77.6876 44.1942 77.3516C44.2742 76.9996 44.3702 76.5996 44.4822 76.1516C44.5142 75.9596 44.5942 75.6316 44.7222 75.1676C44.8662 74.7036 45.0342 74.1996 45.2262 73.6556C45.4182 73.1116 45.6182 72.5996 45.8262 72.1196C46.0342 71.6236 46.2182 71.2556 46.3782 71.0156C46.5542 70.8556 46.8102 70.7756 47.1462 70.7756C47.4982 70.7756 47.7382 70.8396 47.8662 70.9676C48.0422 71.1116 48.0982 71.3676 48.0342 71.7356C47.9702 72.0876 47.7462 72.6396 47.3622 73.3916C47.2822 73.5836 47.1782 73.7916 47.0502 74.0156C46.9382 74.2236 46.8582 74.3996 46.8102 74.5436C46.7622 74.6716 46.7782 74.7276 46.8582 74.7116C46.9542 74.5356 47.1302 74.3356 47.3862 74.1116C47.6422 73.8716 47.9142 73.6396 48.2022 73.4156C48.4902 73.1916 48.7622 72.9916 49.0182 72.8156C49.2742 72.6396 49.4502 72.5276 49.5462 72.4796C49.6742 72.3996 49.8182 72.3356 49.9782 72.2876C50.1542 72.2236 50.2742 72.1756 50.3382 72.1436C50.7062 71.9676 51.1062 71.9036 51.5382 71.9516C51.9862 71.9836 52.2582 72.1196 52.3542 72.3596C52.3702 72.4876 52.4182 72.5836 52.4982 72.6476C52.5942 72.7116 52.6422 72.7436 52.6422 72.7436C52.7062 72.7436 52.7382 72.7676 52.7382 72.8156C52.7542 72.8636 52.7622 72.8876 52.7622 72.8876C52.7622 72.9996 52.6502 73.1596 52.4262 73.3676C52.2182 73.5756 51.9862 73.6876 51.7302 73.7036C51.5222 73.7196 51.3382 73.7596 51.1782 73.8236C51.0182 73.8876 50.8262 73.9676 50.6022 74.0636C49.9942 74.4156 49.4422 74.7276 48.9462 74.9996C48.4662 75.2716 47.9702 75.6876 47.4582 76.2476C47.3462 76.3756 47.2262 76.4956 47.0982 76.6076C46.9702 76.7196 46.8422 76.8796 46.7142 77.0876C46.6342 77.1676 46.5542 77.3436 46.4742 77.6156C46.3942 77.8876 46.3222 78.1516 46.2582 78.4076C46.2102 78.6476 46.1862 78.7916 46.1862 78.8396C46.1862 78.8396 46.1622 78.9196 46.1142 79.0796C46.0662 79.2236 45.9862 79.3676 45.8742 79.5116C45.6822 79.7676 45.4902 79.9276 45.2982 79.9916C45.1222 80.0556 44.9062 79.9596 44.6502 79.7036ZM57.0427 80.0156C56.8347 80.0636 56.5627 80.0316 56.2267 79.9196C55.8907 79.7916 55.5627 79.6396 55.2427 79.4636C54.9387 79.2716 54.7307 79.1196 54.6187 79.0076C54.5067 78.8796 54.4747 78.7676 54.5227 78.6716C54.5707 78.5596 54.6507 78.5036 54.7627 78.5036C54.8267 78.5036 54.9307 78.4396 55.0747 78.3116C55.2187 78.1676 55.3067 77.9116 55.3387 77.5436C55.3707 77.3196 55.4107 77.1276 55.4587 76.9676C55.5227 76.7916 55.5547 76.6716 55.5547 76.6076C55.5707 76.5596 55.5867 76.4316 55.6027 76.2236C55.6347 75.9996 55.6827 75.8076 55.7467 75.6476C55.8107 75.3596 55.9067 74.9916 56.0347 74.5436C56.1627 74.0796 56.2907 73.6316 56.4187 73.1996C56.5627 72.7516 56.6747 72.4076 56.7547 72.1676C56.7867 71.9916 56.8587 71.7676 56.9707 71.4956C57.0827 71.2236 57.1787 71.0076 57.2587 70.8476C57.4187 70.3996 57.6347 69.8556 57.9067 69.2156C58.1947 68.5756 58.4907 67.9356 58.7947 67.2956C59.0987 66.6396 59.3627 66.0876 59.5867 65.6396C59.8267 65.1756 59.9787 64.8956 60.0427 64.7996C60.1707 64.6716 60.3787 64.6236 60.6667 64.6556C60.9547 64.6876 61.1867 64.7916 61.3627 64.9676C61.5067 65.1436 61.6427 65.3276 61.7707 65.5196C61.8987 65.7116 61.8667 65.9196 61.6747 66.1436C61.6107 66.2556 61.5067 66.4316 61.3627 66.6716C61.2187 66.8956 61.1067 67.0636 61.0267 67.1756C60.8987 67.5596 60.7387 67.9356 60.5467 68.3036C60.3707 68.6716 60.1787 69.0876 59.9707 69.5516C59.7627 69.9996 59.5387 70.5596 59.2987 71.2316C59.1547 71.5356 59.0347 71.8396 58.9387 72.1436C58.8427 72.4316 58.7627 72.6156 58.6987 72.6956C58.6027 73.0476 58.4987 73.3116 58.3867 73.4876C58.2907 73.6636 58.2107 73.9436 58.1467 74.3276C58.1467 74.3276 58.2267 74.2476 58.3867 74.0876C58.5627 73.9276 58.7707 73.7276 59.0107 73.4876C59.6347 72.8156 60.1947 72.3036 60.6907 71.9516C61.1867 71.5996 61.6427 71.4156 62.0587 71.3996C62.2827 71.3836 62.5227 71.4396 62.7787 71.5676C63.0507 71.6956 63.2987 71.8556 63.5227 72.0476C63.7467 72.2236 63.8987 72.4156 63.9787 72.6236C64.1067 72.9116 64.1707 73.2876 64.1707 73.7516C64.1707 74.1996 64.0987 74.6636 63.9547 75.1436C63.8267 75.6236 63.6187 76.0476 63.3307 76.4156C63.1547 76.7196 62.9387 77.0156 62.6827 77.3036C62.4427 77.5756 62.2347 77.7756 62.0587 77.9036C61.8987 78.0476 61.7387 78.1916 61.5787 78.3356C61.4347 78.4636 61.3147 78.5676 61.2187 78.6476C61.0107 78.7916 60.8427 78.9036 60.7147 78.9836C60.5867 79.0476 60.4107 79.1196 60.1867 79.1996C59.8507 79.4396 59.3867 79.6156 58.7947 79.7276C58.2027 79.8396 57.6187 79.9356 57.0427 80.0156ZM57.6427 78.1916C57.7547 78.1916 57.9547 78.1676 58.2427 78.1196C58.5467 78.0716 58.8267 77.9516 59.0827 77.7596C59.8347 77.3756 60.4347 76.9516 60.8827 76.4876C61.3467 76.0236 61.6747 75.5596 61.8667 75.0956C62.0587 74.6316 62.1387 74.2156 62.1067 73.8476C62.0747 73.4796 61.8747 73.3676 61.5067 73.5116C61.1547 73.6396 60.6027 74.0796 59.8507 74.8316C59.4987 75.1516 59.1947 75.4556 58.9387 75.7436C58.6827 76.0316 58.4187 76.3356 58.1467 76.6556C58.0347 76.8316 57.9227 76.9756 57.8107 77.0876C57.7147 77.1836 57.6587 77.2956 57.6427 77.4236C57.5307 77.9356 57.5307 78.1916 57.6427 78.1916ZM69.6267 80.1596C69.2907 80.2236 69.0347 80.2076 68.8587 80.1116C68.6987 79.9996 68.5307 79.8636 68.3547 79.7036C68.0987 79.5756 67.8667 79.3996 67.6587 79.1756C67.4507 78.9356 67.2907 78.6876 67.1787 78.4316C67.0667 78.1756 67.0187 77.9756 67.0347 77.8316C67.0827 77.2716 67.2107 76.6636 67.4187 76.0076C67.6427 75.3516 67.9227 74.7116 68.2587 74.0876C68.6107 73.4636 69.0027 72.9116 69.4347 72.4316C69.8827 71.9356 70.3627 71.5756 70.8747 71.3516C71.1947 71.2236 71.5387 71.1756 71.9067 71.2076C72.2747 71.2396 72.5227 71.3916 72.6507 71.6636C72.8907 72.1276 72.8347 72.4236 72.4827 72.5516C72.4347 72.5516 72.3787 72.5756 72.3147 72.6236C72.2507 72.6556 72.2187 72.7036 72.2187 72.7676C72.2827 72.7996 72.4587 72.8076 72.7467 72.7916C73.0347 72.7596 73.3227 72.7116 73.6107 72.6476C73.9147 72.5676 74.1147 72.4876 74.2107 72.4076C74.3067 72.3596 74.3787 72.3356 74.4267 72.3356C74.4747 72.3356 74.5947 72.3516 74.7867 72.3836C75.0587 72.4636 75.1947 72.5596 75.1947 72.6716C75.1947 72.7356 75.2187 72.8396 75.2667 72.9836C75.3147 73.1116 75.3707 73.1756 75.4347 73.1756C75.5467 73.1916 75.5707 73.3036 75.5067 73.5116C75.4587 73.7196 75.2747 73.9356 74.9547 74.1596C74.6507 74.3516 74.4587 74.4796 74.3787 74.5436C74.3147 74.5916 74.3067 74.7036 74.3547 74.8796C74.4827 75.1836 74.4747 75.5516 74.3307 75.9836C74.1867 76.4156 73.9467 76.8636 73.6107 77.3276C73.2747 77.7916 72.8747 78.2316 72.4107 78.6476C71.9627 79.0476 71.4907 79.3916 70.9947 79.6796C70.5147 79.9516 70.0587 80.1116 69.6267 80.1596ZM69.6987 78.1436C69.7627 78.1436 69.8747 78.1116 70.0347 78.0476C70.1947 77.9676 70.3227 77.9036 70.4187 77.8556C70.4827 77.7916 70.5627 77.7196 70.6587 77.6396C70.7707 77.5436 70.8587 77.4876 70.9227 77.4716C70.9867 77.4716 71.0267 77.4476 71.0427 77.3996C71.0587 77.3356 71.1147 77.2156 71.2107 77.0396C71.3067 76.8476 71.4987 76.5676 71.7867 76.1996C72.1067 75.8476 72.3147 75.5676 72.4107 75.3596C72.5067 75.1356 72.5147 74.8956 72.4347 74.6396C72.4187 74.5756 72.3707 74.5356 72.2907 74.5196C72.2267 74.5036 72.1387 74.4636 72.0267 74.3996C71.8667 74.3996 71.7547 74.4396 71.6907 74.5196C71.6427 74.5836 71.5307 74.5436 71.3547 74.3996L70.9707 73.9196L70.5627 74.3276C70.3067 74.5836 70.0747 74.9036 69.8667 75.2876C69.6747 75.6716 69.5227 76.0636 69.4107 76.4636C69.2987 76.8636 69.2267 77.2156 69.1947 77.5196C69.1787 77.7596 69.2187 77.9196 69.3147 77.9996C69.4107 78.0796 69.5387 78.1276 69.6987 78.1436ZM79.21 79.5356C79.146 79.5356 78.994 79.4796 78.754 79.3676C78.514 79.2396 78.362 79.1436 78.298 79.0796C78.186 78.9516 78.114 78.8156 78.082 78.6716C78.05 78.5116 78.034 78.2076 78.034 77.7596C78.034 77.2476 78.138 76.6716 78.346 76.0316C78.554 75.3756 78.906 74.5036 79.402 73.4156L80.386 71.4236C80.466 71.3116 80.538 71.2156 80.602 71.1356C80.666 71.0396 80.738 70.9516 80.818 70.8716C80.85 70.8716 80.89 70.8716 80.938 70.8716C81.002 70.8716 81.05 70.8796 81.082 70.8956C81.226 70.9116 81.45 70.9996 81.754 71.1596C82.074 71.3196 82.266 71.5596 82.33 71.8796C82.33 72.0876 82.298 72.3356 82.234 72.6236C82.17 72.8956 81.978 73.2556 81.658 73.7036C81.53 73.8636 81.402 74.0956 81.274 74.3996C81.162 74.7036 81.058 74.9916 80.962 75.2636C80.946 75.2956 80.898 75.3756 80.818 75.5036C80.754 75.6156 80.69 75.7356 80.626 75.8636C80.562 75.9756 80.53 76.0476 80.53 76.0796L80.434 76.2956L81.466 75.2876C82.186 74.5676 82.794 74.0556 83.29 73.7516C83.786 73.4476 84.202 73.3196 84.538 73.3676C84.89 73.4156 85.17 73.6156 85.378 73.9676C85.49 74.1276 85.57 74.3036 85.618 74.4956C85.666 74.6716 85.698 74.8796 85.714 75.1196C85.73 75.3596 85.722 75.6636 85.69 76.0316V77.3996C85.994 77.3196 86.226 77.2556 86.386 77.2076C86.546 77.1436 86.706 77.0876 86.866 77.0396C86.994 77.0076 87.122 76.9756 87.25 76.9436C87.394 76.9116 87.57 76.8876 87.778 76.8716C87.762 77.0796 87.674 77.3356 87.514 77.6396C87.354 77.9436 87.154 78.2476 86.914 78.5516C86.69 78.8556 86.442 79.1116 86.17 79.3196C85.914 79.5276 85.674 79.6316 85.45 79.6316C85.242 79.6316 85.002 79.5676 84.73 79.4396C84.458 79.2956 84.226 79.0236 84.034 78.6236C83.97 78.4156 83.906 78.1756 83.842 77.9036C83.778 77.6316 83.746 77.3436 83.746 77.0396V75.9836C83.746 75.8876 83.738 75.8236 83.722 75.7916C83.722 75.7436 83.714 75.7196 83.698 75.7196C83.634 75.7196 83.426 75.8876 83.074 76.2236C82.738 76.5596 82.394 76.9116 82.042 77.2796C81.306 78.0476 80.69 78.6156 80.194 78.9836C79.714 79.3516 79.386 79.5356 79.21 79.5356ZM100.07 81.7916C100.006 81.9516 99.7902 82.0316 99.4222 82.0316C99.0542 82.0316 98.7342 81.9276 98.4622 81.7196C98.2702 81.5276 98.1422 81.3756 98.0782 81.2636C98.0302 81.1676 98.0622 80.9916 98.1742 80.7356C98.2862 80.4956 98.4782 80.0636 98.7502 79.4396C98.8142 79.0556 98.9262 78.6716 99.0862 78.2876C99.2462 77.8876 99.3662 77.6076 99.4462 77.4476C99.5102 77.2236 99.6382 76.8556 99.8302 76.3436C100.038 75.8156 100.27 75.2316 100.526 74.5916C100.798 73.9516 101.054 73.3516 101.294 72.7916C101.534 72.2156 101.71 71.7836 101.822 71.4956C102.094 70.8556 102.374 70.1836 102.662 69.4796C102.95 68.7756 103.342 67.8876 103.838 66.8156C103.902 66.6556 103.878 66.4876 103.766 66.3116C103.654 66.1356 103.462 66.0476 103.19 66.0476C103.03 65.8716 102.942 65.6876 102.926 65.4956C102.91 65.2876 102.99 65.1436 103.166 65.0636L105.374 64.3196C106.126 64.1436 106.894 64.0956 107.678 64.1756C108.478 64.2396 109.23 64.4556 109.934 64.8236C110.702 65.2716 111.262 65.7676 111.614 66.3116C111.966 66.8556 112.158 67.4076 112.19 67.9676C112.238 68.5116 112.174 69.0076 111.998 69.4556C111.87 69.7916 111.622 70.1596 111.254 70.5596C110.902 70.9596 110.486 71.3596 110.006 71.7596C109.542 72.1596 109.054 72.5276 108.542 72.8636C108.046 73.1836 107.582 73.4316 107.15 73.6076C106.75 73.7996 106.302 73.9996 105.806 74.2076C105.31 74.3996 104.83 74.5676 104.366 74.7116C104.11 74.7756 103.806 74.8076 103.454 74.8076C103.102 74.8076 102.838 74.7756 102.662 74.7116L102.254 75.4796C102.094 76.0556 101.814 76.9116 101.414 78.0476C101.03 79.1836 100.582 80.4316 100.07 81.7916ZM109.598 82.2476C109.47 82.2956 109.254 82.3116 108.95 82.2956C108.662 82.2796 108.334 82.1516 107.966 81.9116C107.262 81.4956 106.558 80.9916 105.854 80.3996C105.15 79.8076 104.358 79.0076 103.478 77.9996C103.142 77.5996 102.886 77.1996 102.71 76.7996C102.55 76.3996 102.342 75.8956 102.086 75.2876L101.75 73.9916L102.662 73.3916L103.718 74.2556C103.974 74.8156 104.27 75.3516 104.606 75.8636C104.958 76.3756 105.31 76.8316 105.662 77.2316C105.95 77.5676 106.342 77.9756 106.838 78.4556C107.334 78.9196 107.862 79.3676 108.422 79.7996C108.982 80.2316 109.486 80.5596 109.934 80.7836C110.03 80.8636 110.054 81.0156 110.006 81.2396C109.974 81.4796 109.91 81.7036 109.814 81.9116C109.734 82.1196 109.662 82.2316 109.598 82.2476ZM103.55 72.8396C103.918 72.8076 104.318 72.7116 104.75 72.5516C105.198 72.3756 105.67 72.1836 106.166 71.9756C106.63 71.7516 107.086 71.5116 107.534 71.2556C107.998 70.9836 108.414 70.6876 108.782 70.3676C109.166 70.0476 109.462 69.7036 109.67 69.3356C109.894 68.9676 109.99 68.5756 109.958 68.1596C109.958 67.9516 109.894 67.7196 109.766 67.4636C109.638 67.2076 109.47 66.9756 109.262 66.7676C109.07 66.5596 108.87 66.4236 108.662 66.3596C108.022 66.1996 107.534 66.1036 107.198 66.0716C106.862 66.0396 106.614 66.0876 106.454 66.2156C106.31 66.3436 106.198 66.5676 106.118 66.8876C106.118 66.9356 106.054 67.0876 105.926 67.3436C105.798 67.5996 105.638 67.9276 105.446 68.3276C105.27 68.7116 105.094 69.1276 104.918 69.5756C104.454 70.5196 104.11 71.2156 103.886 71.6636C103.678 72.0956 103.55 72.3836 103.502 72.5276C103.47 72.6716 103.486 72.7756 103.55 72.8396ZM114.978 80.1356C114.354 79.8796 113.922 79.4636 113.682 78.8876C113.442 78.3116 113.378 77.5436 113.49 76.5836C113.522 76.0876 113.506 75.7596 113.442 75.5996C113.378 75.4236 113.258 75.2556 113.082 75.0956C113.034 75.0316 112.922 74.9276 112.746 74.7836C112.57 74.6236 112.49 74.5036 112.506 74.4236C112.49 74.3116 112.514 74.1756 112.578 74.0156C112.642 73.8396 112.698 73.7436 112.746 73.7276C112.858 73.6796 112.97 73.6236 113.082 73.5596C113.21 73.4956 113.306 73.4796 113.37 73.5116C113.434 73.5116 113.53 73.5516 113.658 73.6316C113.802 73.7116 113.874 73.7836 113.874 73.8476C113.938 73.9596 114.034 73.9116 114.162 73.7036C114.306 73.4956 114.458 73.2316 114.618 72.9116C114.778 72.6556 114.978 72.4156 115.218 72.1916C115.458 71.9676 115.698 71.7676 115.938 71.5916C116.194 71.3996 116.41 71.2556 116.586 71.1596C116.666 71.1276 116.818 71.0796 117.042 71.0156C117.282 70.9516 117.53 70.9036 117.786 70.8716C118.042 70.8236 118.234 70.8076 118.362 70.8236C118.65 70.8396 118.954 70.9596 119.274 71.1836C119.594 71.4076 119.842 71.6156 120.018 71.8076C120.226 71.9516 120.362 72.1756 120.426 72.4796C120.506 72.7676 120.538 73.0716 120.522 73.3916C120.506 73.7116 120.442 73.9836 120.33 74.2076C120.282 74.3676 120.114 74.5916 119.826 74.8796C119.538 75.1676 119.218 75.4476 118.866 75.7196C118.53 75.9756 118.242 76.1516 118.002 76.2476C117.794 76.2956 117.546 76.3356 117.258 76.3676C116.97 76.3836 116.698 76.3836 116.442 76.3676C116.202 76.3356 116.034 76.2956 115.938 76.2476C115.826 76.1836 115.73 76.2076 115.65 76.3196C115.586 76.4156 115.53 76.6876 115.482 77.1356C115.466 77.3116 115.466 77.4636 115.482 77.5916C115.514 77.7196 115.546 77.8156 115.578 77.8796C115.69 78.0716 115.802 78.2156 115.914 78.3116C116.026 78.3916 116.234 78.4156 116.538 78.3836C116.842 78.3516 117.146 78.1676 117.45 77.8316C117.77 77.4796 118.058 77.1996 118.314 76.9916C118.378 76.8796 118.514 76.8076 118.722 76.7756C118.946 76.7276 119.21 76.7436 119.514 76.8236C119.69 76.9356 119.77 77.1116 119.754 77.3516C119.754 77.5916 119.626 77.9436 119.37 78.4076C119.322 78.5196 119.186 78.6876 118.962 78.9116C118.754 79.1196 118.522 79.3356 118.266 79.5596C118.026 79.7676 117.826 79.9196 117.666 80.0156C117.186 80.2716 116.714 80.3916 116.25 80.3756C115.786 80.3596 115.362 80.2796 114.978 80.1356ZM116.754 74.7356C116.994 74.6716 117.194 74.6076 117.354 74.5436C117.53 74.4796 117.698 74.3756 117.858 74.2316C118.018 74.0876 118.202 73.8716 118.41 73.5836C118.474 73.4076 118.506 73.2556 118.506 73.1276C118.522 72.9996 118.514 72.9196 118.482 72.8876C118.354 72.7596 118.21 72.7196 118.05 72.7676C117.906 72.7996 117.746 72.8796 117.57 73.0076C117.458 73.0556 117.298 73.1596 117.09 73.3196C116.898 73.4636 116.706 73.6316 116.514 73.8236C116.338 73.9996 116.194 74.1676 116.082 74.3276C115.986 74.4716 115.97 74.5596 116.034 74.5916C116.002 74.6556 116.09 74.6956 116.298 74.7116C116.522 74.7276 116.674 74.7356 116.754 74.7356ZM129.882 80.8076C129.674 80.8556 129.466 80.7996 129.258 80.6396C129.066 80.4956 128.93 80.3356 128.85 80.1596C128.754 79.9036 128.69 79.6636 128.658 79.4396C128.642 79.1996 128.626 78.9276 128.61 78.6236L128.586 77.8076L127.602 78.6956C127.058 79.2076 126.546 79.5756 126.066 79.7996C125.602 80.0076 125.178 80.1116 124.794 80.1116C124.618 80.0796 124.402 79.9676 124.146 79.7756C123.906 79.5676 123.682 79.3436 123.474 79.1036C123.282 78.8476 123.146 78.6396 123.066 78.4796C122.97 78.2556 122.938 77.9436 122.97 77.5436C123.018 77.1436 123.114 76.7036 123.258 76.2236C123.418 75.7436 123.61 75.2716 123.834 74.8076C124.074 74.3436 124.346 73.9436 124.65 73.6076C125.178 72.8076 125.834 72.3116 126.618 72.1196C127.402 71.9116 128.098 71.9756 128.706 72.3116C128.994 72.4556 129.202 72.5116 129.33 72.4796C129.458 72.4476 129.538 72.3436 129.57 72.1676C129.634 71.9116 129.706 71.6716 129.786 71.4476C129.866 71.2236 129.978 70.8876 130.122 70.4396C130.522 69.2236 130.866 68.2716 131.154 67.5836C131.458 66.8956 131.73 66.2956 131.97 65.7836C132.146 65.4156 132.322 65.1596 132.498 65.0156C132.674 64.8716 132.826 64.8076 132.954 64.8236C133.13 64.8236 133.346 64.8876 133.602 65.0156C133.874 65.1436 134.05 65.3196 134.13 65.5436C134.194 65.6876 134.218 65.8396 134.202 65.9996C134.202 66.1596 134.154 66.3276 134.058 66.5036C133.85 66.8876 133.602 67.3996 133.314 68.0396C133.042 68.6636 132.762 69.3516 132.474 70.1036C132.202 70.8556 131.946 71.5996 131.706 72.3356C131.466 73.0716 131.266 73.7196 131.106 74.2796C131.01 74.6316 130.93 75.0796 130.866 75.6236C130.818 76.1676 130.778 76.7276 130.746 77.3036C130.73 77.8636 130.73 78.3676 130.746 78.8156C130.762 79.2476 130.786 79.5276 130.818 79.6556C130.914 79.9756 130.914 80.2156 130.818 80.3756C130.722 80.5356 130.586 80.6396 130.41 80.6876C130.234 80.7516 130.058 80.7916 129.882 80.8076ZM125.922 77.9036C126.146 77.8236 126.346 77.7276 126.522 77.6156C126.698 77.5036 126.906 77.3596 127.146 77.1836C127.626 76.8156 127.97 76.4956 128.178 76.2236C128.402 75.9516 128.578 75.6156 128.706 75.2156C128.786 74.9756 128.786 74.7676 128.706 74.5916C128.642 74.4156 128.522 74.2476 128.346 74.0876C128.17 73.9436 127.946 73.8876 127.674 73.9196C127.402 73.9356 127.09 74.1036 126.738 74.4236C126.354 74.7756 126.026 75.1836 125.754 75.6476C125.482 76.1116 125.258 76.7756 125.082 77.6396C125.05 77.7996 125.106 77.9116 125.25 77.9756C125.394 78.0396 125.618 78.0156 125.922 77.9036ZM140.312 80.3036C140.152 80.1436 140.024 79.9276 139.928 79.6556C139.832 79.3676 139.736 79.0396 139.64 78.6716C139.608 78.5436 139.592 78.3996 139.592 78.2396C139.608 78.0796 139.608 77.9516 139.592 77.8556C139.544 77.9676 139.464 78.1116 139.352 78.2876C139.256 78.4636 139.16 78.5916 139.064 78.6716C139 78.7356 138.856 78.8636 138.632 79.0556C138.408 79.2316 138.184 79.3756 137.96 79.4876C137.432 79.8236 136.96 79.9836 136.544 79.9676C136.144 79.9356 135.792 79.7276 135.488 79.3436C135.232 79.1356 135.024 78.8716 134.864 78.5516C134.704 78.2316 134.672 77.8476 134.768 77.3996C134.8 76.8396 134.88 76.2956 135.008 75.7676C135.136 75.2236 135.4 74.5036 135.8 73.6076C136.136 72.9516 136.392 72.4396 136.568 72.0716C136.744 71.7036 136.856 71.4876 136.904 71.4236C137.144 71.3436 137.44 71.3516 137.792 71.4476C138.144 71.5276 138.336 71.6796 138.368 71.9036C138.464 72.0636 138.464 72.3676 138.368 72.8156C138.272 73.2476 138.08 73.7436 137.792 74.3036C137.568 74.8476 137.352 75.3756 137.144 75.8876C136.952 76.3996 136.832 76.8316 136.784 77.1836C136.752 77.5356 136.848 77.7516 137.072 77.8316C137.216 77.9116 137.424 77.9036 137.696 77.8076C137.984 77.7116 138.32 77.4236 138.704 76.9436C139.088 76.4636 139.496 75.7036 139.928 74.6636C140.056 74.3436 140.152 74.0636 140.216 73.8236C140.28 73.5676 140.32 73.2876 140.336 72.9836C140.304 72.7916 140.352 72.5916 140.48 72.3836C140.624 72.1756 140.792 72.0156 140.984 71.9036C141.048 71.8236 141.136 71.7516 141.248 71.6876C141.36 71.6076 141.432 71.6076 141.464 71.6876L141.848 71.6636C141.912 71.6476 141.984 71.7116 142.064 71.8556C142.144 71.9996 142.224 72.1036 142.304 72.1676C142.48 72.3116 142.56 72.6236 142.544 73.1036C142.528 73.5836 142.336 74.2556 141.968 75.1196C141.664 75.7756 141.456 76.2716 141.344 76.6076C141.248 76.9436 141.192 77.2716 141.176 77.5916C141.176 77.8796 141.2 78.1276 141.248 78.3356C141.296 78.5276 141.44 78.7276 141.68 78.9356C141.856 79.0476 141.952 79.2396 141.968 79.5116C142 79.7676 142.008 79.9916 141.992 80.1836C141.96 80.3276 141.832 80.4236 141.608 80.4716C141.4 80.5356 141.168 80.5516 140.912 80.5196C140.672 80.4876 140.472 80.4156 140.312 80.3036ZM147.563 80.1596C147.211 80.1596 146.947 80.1436 146.771 80.1116C146.611 80.0796 146.491 80.0316 146.411 79.9676C146.331 79.9036 146.227 79.8156 146.099 79.7036C146.035 79.5756 145.923 79.4156 145.763 79.2236C145.603 79.0156 145.491 78.8796 145.427 78.8156C145.363 78.5756 145.339 78.2476 145.355 77.8316C145.387 77.4156 145.459 76.9676 145.571 76.4876C145.683 76.0076 145.819 75.5756 145.979 75.1916C146.043 75.0636 146.099 74.9356 146.147 74.8076C146.195 74.6796 146.219 74.6156 146.219 74.6156C146.219 74.5356 146.315 74.3436 146.507 74.0396C146.715 73.7356 146.939 73.4156 147.179 73.0796C147.435 72.7436 147.643 72.5036 147.803 72.3596C147.915 72.2316 148.083 72.0956 148.307 71.9516C148.547 71.8076 148.755 71.7036 148.931 71.6396C149.107 71.5756 149.347 71.4956 149.651 71.3996C149.955 71.2876 150.227 71.2316 150.467 71.2316C150.691 71.2316 150.931 71.2796 151.187 71.3756C151.443 71.4716 151.659 71.6396 151.835 71.8796C152.123 72.1676 152.307 72.5116 152.387 72.9116C152.467 73.3116 152.475 73.6556 152.411 73.9436C152.331 74.2636 152.171 74.5276 151.931 74.7356C151.691 74.9276 151.435 75.0316 151.163 75.0476C150.891 75.0476 150.651 74.9356 150.443 74.7116C150.379 74.5836 150.347 74.4796 150.347 74.3996C150.347 74.3036 150.379 74.1676 150.443 73.9916C150.507 73.7676 150.539 73.5676 150.539 73.3916C150.539 73.2156 150.467 73.1276 150.323 73.1276C150.115 73.1276 149.947 73.1916 149.819 73.3196C149.691 73.4316 149.499 73.6236 149.243 73.8956C149.131 74.0236 148.987 74.2076 148.811 74.4476C148.635 74.6876 148.459 74.9516 148.283 75.2396C148.123 75.5116 147.979 75.7916 147.851 76.0796C147.675 76.6076 147.563 76.9516 147.515 77.1116C147.483 77.2556 147.467 77.3276 147.467 77.3276C147.467 77.3916 147.459 77.4556 147.443 77.5196C147.427 77.5676 147.419 77.6236 147.419 77.6876C147.419 77.8796 147.531 78.0316 147.755 78.1436C147.931 78.2556 148.075 78.3116 148.187 78.3116C148.315 78.2956 148.555 78.2076 148.907 78.0476C149.163 77.9196 149.403 77.7516 149.627 77.5436C149.867 77.3356 150.115 77.1516 150.371 76.9916C150.547 76.8796 150.683 76.7836 150.779 76.7036C150.891 76.6236 150.947 76.6156 150.947 76.6796C150.947 76.7436 150.971 76.7756 151.019 76.7756C151.067 76.7756 151.123 76.7436 151.187 76.6796C151.283 76.5516 151.403 76.5036 151.547 76.5356C151.691 76.5516 151.819 76.5916 151.931 76.6556C152.059 76.7196 152.123 76.7756 152.123 76.8236C152.091 76.9676 152.123 77.0876 152.219 77.1836C152.219 77.2476 152.195 77.3356 152.147 77.4476C152.115 77.5436 152.067 77.6236 152.003 77.6876C151.923 77.7996 151.803 77.9596 151.643 78.1676C151.499 78.3756 151.363 78.5596 151.235 78.7196C151.107 78.8796 151.043 78.9596 151.043 78.9596C150.979 78.9436 150.915 78.9596 150.851 79.0076C150.803 79.0556 150.747 79.1116 150.683 79.1756C150.555 79.2876 150.435 79.3756 150.323 79.4396C150.211 79.4876 150.123 79.5116 150.059 79.5116C149.947 79.5756 149.859 79.6156 149.795 79.6316C149.747 79.6476 149.723 79.6876 149.723 79.7516C149.563 79.9116 149.275 80.0236 148.859 80.0876C148.443 80.1356 148.011 80.1596 147.563 80.1596ZM158.251 81.7916C157.467 81.7756 156.963 81.5516 156.739 81.1196C156.531 80.7036 156.475 80.1756 156.571 79.5356C156.667 79.2316 156.723 78.9596 156.739 78.7196C156.771 78.4636 156.843 78.3036 156.955 78.2396C156.955 78.2396 156.963 78.2156 156.979 78.1676C157.011 78.1196 157.003 78.0716 156.955 78.0236C156.955 77.8156 157.027 77.5276 157.171 77.1596C157.203 77.0636 157.243 76.9516 157.291 76.8236C157.355 76.6796 157.387 76.6076 157.387 76.6076C157.307 76.4796 157.307 76.3756 157.387 76.2956C157.467 76.2156 157.547 76.1436 157.627 76.0796C157.723 75.9996 157.731 75.9116 157.651 75.8156C157.619 75.7516 157.659 75.6076 157.771 75.3836C157.883 75.1436 158.011 74.8956 158.155 74.6396C158.299 74.3836 158.395 74.1836 158.443 74.0396C158.443 74.0076 158.483 73.8956 158.563 73.7036C158.643 73.5116 158.739 73.2876 158.851 73.0316C158.963 72.7756 159.067 72.5436 159.163 72.3356C159.275 72.1276 159.347 71.9916 159.379 71.9276C159.539 71.8476 159.475 71.7916 159.187 71.7596C158.899 71.7276 158.595 71.7196 158.275 71.7356C157.779 71.7196 157.379 71.6956 157.075 71.6636C156.787 71.6316 156.547 71.5596 156.355 71.4476C156.163 71.2236 156.139 70.9596 156.283 70.6556C156.427 70.3356 156.659 70.1676 156.979 70.1516C157.187 70.1356 157.347 70.1276 157.459 70.1276C157.587 70.1276 157.747 70.1196 157.939 70.1036C158.147 70.0716 158.467 70.0316 158.899 69.9836L160.123 69.8876L160.195 69.4796C160.323 69.2716 160.411 69.1356 160.459 69.0716C160.507 69.0076 160.539 68.9436 160.555 68.8796C160.571 68.7996 160.595 68.6636 160.627 68.4716C160.627 68.4716 160.699 68.3436 160.843 68.0876C160.987 67.8156 161.075 67.5356 161.107 67.2476C161.299 66.9276 161.467 66.6396 161.611 66.3836C161.755 66.1116 161.843 65.9436 161.875 65.8796C162.147 65.4796 162.411 65.2636 162.667 65.2316C162.939 65.1996 163.195 65.2636 163.435 65.4236C163.579 65.5036 163.715 65.6076 163.843 65.7356C163.971 65.8476 164.051 65.9996 164.083 66.1916C164.115 66.3676 164.043 66.5996 163.867 66.8876C163.835 66.9516 163.787 67.0716 163.723 67.2476C163.659 67.4076 163.611 67.5436 163.579 67.6556C163.483 67.7676 163.363 67.9516 163.219 68.2076C163.091 68.4476 163.003 68.6956 162.955 68.9516C162.827 69.2236 162.747 69.3916 162.715 69.4556C162.683 69.5196 162.635 69.5516 162.571 69.5516C162.603 69.7116 162.699 69.7916 162.859 69.7916C163.019 69.7756 163.283 69.7596 163.651 69.7436C163.955 69.7116 164.163 69.6796 164.275 69.6476C164.403 69.5996 164.547 69.6156 164.707 69.6956C164.787 69.8076 164.827 69.9756 164.827 70.1996C164.843 70.4076 164.819 70.6156 164.755 70.8236C164.691 71.0156 164.603 71.1356 164.491 71.1836C164.411 71.1836 164.243 71.2316 163.987 71.3276C163.747 71.4076 163.443 71.4556 163.075 71.4716L161.803 71.5916L161.395 72.4076C161.283 72.6156 161.187 72.8076 161.107 72.9836C161.027 73.1436 160.971 73.2396 160.939 73.2716C160.939 73.3676 160.883 73.5116 160.771 73.7036C160.675 73.8956 160.571 74.1036 160.459 74.3276C160.363 74.5996 160.251 74.8476 160.123 75.0716C160.011 75.2956 159.955 75.4076 159.955 75.4076C159.891 75.4076 159.859 75.4556 159.859 75.5516C159.939 75.7436 159.915 75.8876 159.787 75.9836C159.707 76.0316 159.635 76.1036 159.571 76.1996C159.523 76.2796 159.499 76.3196 159.499 76.3196C159.563 76.3836 159.571 76.4636 159.523 76.5596C159.491 76.6556 159.443 76.7596 159.379 76.8716C159.379 76.9996 159.339 77.1836 159.259 77.4236C159.195 77.6636 159.123 77.8876 159.043 78.0956C159.059 78.3836 159.075 78.5676 159.091 78.6476C159.107 78.7276 159.147 78.7596 159.211 78.7436C159.291 78.7596 159.403 78.7596 159.547 78.7436C159.691 78.7276 159.795 78.7196 159.859 78.7196C160.099 78.6076 159.987 79.1676 159.523 80.3996C159.267 80.7996 159.011 81.1276 158.755 81.3836C158.499 81.6556 158.331 81.7916 158.251 81.7916ZM167.589 80.3276C167.205 80.3276 166.869 80.1276 166.581 79.7276C166.309 79.3116 166.141 78.8156 166.077 78.2396C166.093 78.1116 166.109 77.9276 166.125 77.6876C166.157 77.4476 166.189 77.1996 166.221 76.9436C166.285 76.6396 166.373 76.2476 166.485 75.7676C166.597 75.2876 166.717 74.8076 166.845 74.3276C166.973 73.8316 167.085 73.4076 167.181 73.0556C167.277 72.6876 167.333 72.4716 167.349 72.4076C167.445 72.1836 167.661 72.1276 167.997 72.2396C168.333 72.3516 168.621 72.5916 168.861 72.9596C168.957 73.0876 169.013 73.2396 169.029 73.4156C169.061 73.5916 169.037 73.8476 168.957 74.1836C168.893 74.5196 168.765 75.0156 168.573 75.6716C168.397 76.3116 168.261 76.8316 168.165 77.2316C168.085 77.6156 168.053 78.0236 168.069 78.4556C168.005 79.1916 167.941 79.6956 167.877 79.9676C167.813 80.2236 167.717 80.3436 167.589 80.3276ZM169.797 70.3676C169.733 70.4156 169.669 70.4396 169.605 70.4396C169.557 70.4236 169.469 70.3756 169.341 70.2956C169.229 70.2796 169.085 70.2076 168.909 70.0796C168.749 69.9356 168.605 69.7916 168.477 69.6476C168.365 69.5036 168.309 69.4156 168.309 69.3836C168.293 69.2236 168.301 68.9676 168.333 68.6156C168.381 68.2636 168.469 67.9356 168.597 67.6316C168.741 67.3116 168.933 67.1436 169.173 67.1276C169.237 67.1276 169.373 67.1596 169.581 67.2236C169.805 67.2876 170.037 67.3676 170.277 67.4636C170.405 67.7036 170.525 68.0156 170.637 68.3996C170.749 68.7836 170.757 69.1596 170.661 69.5276C170.581 69.8796 170.293 70.1596 169.797 70.3676ZM174.867 80.5676C174.659 80.5836 174.491 80.5596 174.363 80.4956C174.235 80.4476 174.075 80.3676 173.883 80.2556C173.531 79.9836 173.235 79.6476 172.995 79.2476C172.771 78.8476 172.667 78.5116 172.683 78.2396C172.715 78.0956 172.715 77.9676 172.683 77.8556C172.667 77.7436 172.659 77.6876 172.659 77.6876C172.563 77.6076 172.531 77.5596 172.563 77.5436C172.595 77.5116 172.619 77.4636 172.635 77.3996C172.763 77.3676 172.779 77.2796 172.683 77.1356C172.635 77.0076 172.659 76.7196 172.755 76.2716C172.867 75.8076 173.011 75.3756 173.187 74.9756C173.267 74.7996 173.379 74.5676 173.523 74.2796C173.683 73.9916 173.859 73.7036 174.051 73.4156C174.243 73.1116 174.419 72.8716 174.579 72.6956C174.931 72.2956 175.243 71.9676 175.515 71.7116C175.803 71.4556 176.123 71.2636 176.475 71.1356C176.795 71.0076 177.115 70.9516 177.435 70.9676C177.771 70.9836 178.067 71.0956 178.323 71.3036C178.707 71.4156 179.051 71.5916 179.355 71.8316C179.659 72.0556 179.867 72.3756 179.979 72.7916C180.107 73.2556 180.147 73.8076 180.099 74.4476C180.067 75.0716 179.795 75.8796 179.283 76.8716C178.979 77.4956 178.675 77.9996 178.371 78.3836C178.083 78.7676 177.731 79.1356 177.315 79.4876C177.011 79.7436 176.619 79.9676 176.139 80.1596C175.659 80.3516 175.235 80.4876 174.867 80.5676ZM176.955 76.9436C177.163 76.6556 177.323 76.3756 177.435 76.1036C177.563 75.8316 177.683 75.4556 177.795 74.9756C177.843 74.7996 177.867 74.5836 177.867 74.3276C177.883 74.0716 177.875 73.8396 177.843 73.6316C177.827 73.4076 177.771 73.2876 177.675 73.2716C177.467 73.1916 177.251 73.1916 177.027 73.2716C176.819 73.3356 176.571 73.5276 176.283 73.8476C176.027 74.1356 175.819 74.4076 175.659 74.6636C175.515 74.9036 175.379 75.1996 175.251 75.5516C175.139 75.8876 175.011 76.3276 174.867 76.8716C174.739 77.3996 174.731 77.8236 174.843 78.1436C174.971 78.4636 175.211 78.5516 175.563 78.4076C175.915 78.2636 176.379 77.7756 176.955 76.9436ZM191.363 79.7756C191.011 79.7436 190.715 79.6716 190.475 79.5596C190.251 79.4316 190.067 79.1836 189.923 78.8156C189.859 78.5596 189.827 78.2956 189.827 78.0236C189.843 77.7356 189.867 77.4636 189.899 77.2076C189.931 76.9356 189.947 76.7036 189.947 76.5116C189.947 76.4796 189.947 76.4156 189.947 76.3196C189.947 76.2236 189.947 76.1356 189.947 76.0556C189.915 75.8156 189.851 75.6716 189.755 75.6236C189.675 75.5596 189.531 75.5676 189.323 75.6476C188.987 75.8076 188.619 76.0236 188.219 76.2956C187.835 76.5516 187.427 76.8556 186.995 77.2076C186.579 77.5436 186.147 77.9036 185.699 78.2876C185.347 78.6716 185.083 78.9836 184.907 79.2236C184.747 79.4636 184.579 79.5836 184.403 79.5836C184.275 79.6476 184.139 79.6316 183.995 79.5356C183.851 79.4396 183.699 79.3276 183.539 79.1996C183.427 79.0716 183.291 78.9116 183.131 78.7196C182.987 78.5116 182.899 78.3756 182.867 78.3116C182.867 78.0556 182.883 77.8236 182.915 77.6156C182.963 77.4076 183.027 77.1916 183.107 76.9676C183.203 76.7436 183.315 76.4876 183.443 76.1996C183.507 76.0876 183.563 75.9756 183.611 75.8636C183.675 75.7356 183.747 75.5996 183.827 75.4556C183.891 75.2316 183.979 74.9756 184.091 74.6876C184.219 74.3996 184.339 74.1276 184.451 73.8716C184.627 73.4556 184.763 73.0956 184.859 72.7916C184.955 72.4876 185.035 72.1596 185.099 71.8076C185.083 71.7756 185.091 71.7276 185.123 71.6636C185.155 71.5996 185.203 71.5596 185.267 71.5436H185.291H185.315C185.427 71.4636 185.635 71.4556 185.939 71.5196C186.259 71.5676 186.499 71.6556 186.659 71.7836C186.995 72.0716 187.155 72.4476 187.139 72.9116C187.123 73.3756 186.883 73.9836 186.419 74.7356C186.307 74.9916 186.187 75.2316 186.059 75.4556C185.947 75.6636 185.891 75.8076 185.891 75.8876C185.891 75.8876 185.955 75.8396 186.083 75.7436C186.211 75.6476 186.363 75.5356 186.539 75.4076C186.715 75.2636 186.867 75.1516 186.995 75.0716C187.075 74.9916 187.251 74.8476 187.523 74.6396C187.795 74.4156 188.091 74.1836 188.411 73.9436C188.731 73.7036 188.987 73.5196 189.179 73.3916C189.355 73.2636 189.579 73.1356 189.851 73.0076C190.123 72.8636 190.291 72.7916 190.355 72.7916C190.515 72.7916 190.707 72.8476 190.931 72.9596C191.171 73.0716 191.387 73.2076 191.579 73.3676C191.787 73.5116 191.907 73.6476 191.939 73.7756C191.939 73.8396 191.931 73.9276 191.915 74.0396C191.899 74.1356 191.891 74.2236 191.891 74.3036C191.875 74.5596 191.867 74.8716 191.867 75.2396C191.883 75.5916 191.891 75.9516 191.891 76.3196C191.891 76.6716 191.859 76.9916 191.795 77.2796C191.795 77.2796 191.803 77.2956 191.819 77.3276C191.835 77.3436 191.851 77.3756 191.867 77.4236C191.851 77.4396 191.843 77.4716 191.843 77.5196C191.859 77.5516 191.867 77.5676 191.867 77.5676C191.899 77.6796 191.931 77.7916 191.963 77.9036C192.011 78.0156 192.067 78.1436 192.131 78.2876C192.195 78.4156 192.267 78.5836 192.347 78.7916C192.331 78.9996 192.211 79.2076 191.987 79.4156C191.779 79.6076 191.571 79.7276 191.363 79.7756ZM217.599 81.5036C217.535 81.5676 217.383 81.5836 217.143 81.5516C216.903 81.5356 216.711 81.4236 216.567 81.2156C216.455 80.9916 216.391 80.7356 216.375 80.4476C216.359 80.1596 216.359 79.7596 216.375 79.2476C216.471 78.6876 216.631 77.9516 216.855 77.0396C217.079 76.1276 217.327 75.1116 217.599 73.9916C217.887 72.8556 218.175 71.6956 218.463 70.5116C218.607 69.9516 218.719 69.4796 218.799 69.0956C218.895 68.7116 218.959 68.4236 218.991 68.2316C219.039 68.0236 219.063 67.9196 219.063 67.9196C219.047 67.9516 219.023 67.9836 218.991 68.0156C218.975 68.0476 218.959 68.0796 218.943 68.1116C218.927 68.1436 218.911 68.1756 218.895 68.2076C218.895 68.2076 218.863 68.2636 218.799 68.3756C218.751 68.4876 218.639 68.6796 218.463 68.9516C218.335 69.1436 218.215 69.3676 218.103 69.6236C217.991 69.8796 217.799 70.2156 217.527 70.6316C217.271 71.1116 216.983 71.6636 216.663 72.2876C216.343 72.9116 216.071 73.4076 215.847 73.7756C215.735 73.9516 215.631 74.1036 215.535 74.2316C215.455 74.3596 215.399 74.4636 215.367 74.5436C215.303 74.7196 215.199 74.9356 215.055 75.1916C214.911 75.4476 214.743 75.6956 214.551 75.9356C214.455 76.0796 214.327 76.2476 214.167 76.4396C214.023 76.6316 213.895 76.8076 213.783 76.9676C213.671 77.1116 213.615 77.1836 213.615 77.1836C213.583 77.2796 213.479 77.4316 213.303 77.6396C213.127 77.8476 212.911 78.0796 212.655 78.3356C212.415 78.5756 212.167 78.7996 211.911 79.0076C211.351 79.4556 210.887 79.7356 210.519 79.8476C210.167 79.9596 209.759 79.8236 209.295 79.4396C209.087 79.1836 208.919 78.9276 208.791 78.6716C208.663 78.3996 208.599 78.0316 208.599 77.5676C208.599 77.1036 208.679 76.4556 208.839 75.6236C208.951 75.0956 209.071 74.5356 209.199 73.9436C209.343 73.3516 209.487 72.7836 209.631 72.2396C209.775 71.6796 209.903 71.1996 210.015 70.7996C210.143 70.3836 210.231 70.0956 210.279 69.9356C210.327 69.5356 210.335 69.3276 210.303 69.3116C210.271 69.2796 210.191 69.3676 210.063 69.5756C209.951 69.7516 209.743 70.1196 209.439 70.6796C209.135 71.2396 208.791 71.8956 208.407 72.6476C208.039 73.3996 207.679 74.1516 207.327 74.9036C206.671 76.1196 206.119 77.1356 205.671 77.9516C205.223 78.7676 204.855 79.4236 204.567 79.9196C204.279 80.3996 204.055 80.7596 203.895 80.9996C203.751 81.2556 203.639 81.4316 203.559 81.5276C203.495 81.6396 203.447 81.7116 203.415 81.7436C203.175 81.7276 202.967 81.6156 202.791 81.4076C202.615 81.1996 202.471 80.9516 202.359 80.6636C202.327 80.5036 202.303 80.3356 202.287 80.1596C202.271 79.9836 202.287 79.7916 202.335 79.5836C202.399 79.3596 202.495 79.1196 202.623 78.8636C202.831 78.4476 203.031 78.0956 203.223 77.8076C203.415 77.5196 203.535 77.3436 203.583 77.2796C203.663 77.1676 203.727 77.0476 203.775 76.9196C203.823 76.7916 203.855 76.6716 203.871 76.5596C203.951 76.4636 204.071 76.2636 204.231 75.9596C204.407 75.6556 204.583 75.3276 204.759 74.9756C204.887 74.7676 205.063 74.4796 205.287 74.1116C205.511 73.7276 205.751 73.3196 206.007 72.8876C206.263 72.4396 206.487 72.0316 206.679 71.6636C207.383 70.3996 207.943 69.3916 208.359 68.6396C208.775 67.8716 209.071 67.3836 209.247 67.1756C209.359 67.0956 209.455 66.9436 209.535 66.7196C209.631 66.4796 209.711 66.3036 209.775 66.1916C209.999 65.7436 210.223 65.3756 210.447 65.0876C210.687 64.7836 210.895 64.6316 211.071 64.6316C211.199 64.6316 211.359 64.6796 211.551 64.7756C211.759 64.8716 211.959 65.0076 212.151 65.1836C212.327 65.3916 212.487 65.6716 212.631 66.0236C212.791 66.3596 212.823 66.8076 212.727 67.3676C212.711 67.6236 212.671 67.9356 212.607 68.3036C212.543 68.6556 212.479 69.0076 212.415 69.3596C212.351 69.7116 212.287 70.0076 212.223 70.2476C212.095 70.9676 211.951 71.6556 211.791 72.3116C211.647 72.9516 211.511 73.5436 211.383 74.0876C211.255 74.6316 211.151 75.1116 211.071 75.5276C210.991 75.9276 210.935 76.2556 210.903 76.5116C210.887 76.7676 210.919 76.9356 210.999 77.0156C211.047 77.0316 211.111 77.0156 211.191 76.9676C211.287 76.9036 211.359 76.8396 211.407 76.7756C211.503 76.6476 211.591 76.5196 211.671 76.3916C211.751 76.2636 211.855 76.1036 211.983 75.9116C212.239 75.5596 212.503 75.1756 212.775 74.7596C213.063 74.3276 213.399 73.7996 213.783 73.1756C214.183 72.5356 214.655 71.7516 215.199 70.8236C215.743 69.8796 216.407 68.7116 217.191 67.3196C217.559 66.7596 217.911 66.1996 218.247 65.6396C218.583 65.0796 218.887 64.6476 219.159 64.3436C219.399 64.0876 219.695 63.9996 220.047 64.0796C220.415 64.1596 220.751 64.3596 221.055 64.6796C221.359 64.9996 221.527 65.3916 221.559 65.8556C221.575 66.0796 221.527 66.4796 221.415 67.0556C221.319 67.6156 221.183 68.2476 221.007 68.9516C220.831 69.6556 220.631 70.3436 220.407 71.0156C220.359 71.2876 220.279 71.6476 220.167 72.0956C220.055 72.5436 219.935 72.9996 219.807 73.4636C219.679 73.9276 219.559 74.3436 219.447 74.7116C219.335 75.2556 219.239 75.6876 219.159 76.0076C219.095 76.3276 219.063 76.6956 219.063 77.1116C218.919 77.3676 218.823 77.7356 218.775 78.2156C218.727 78.6956 218.703 79.1916 218.703 79.7036C218.639 80.3276 218.503 80.7676 218.295 81.0236C218.103 81.2796 217.975 81.3996 217.911 81.3836C217.783 81.3356 217.679 81.3756 217.599 81.5036ZM223.779 79.8476C223.715 79.7196 223.571 79.5916 223.347 79.4636C223.139 79.3356 223.035 79.2396 223.035 79.1756C223.035 79.1116 222.995 79.0156 222.915 78.8876C222.851 78.7436 222.787 78.6396 222.723 78.5756C222.643 78.4796 222.667 78.2476 222.795 77.8796C222.923 77.4956 223.115 77.0316 223.371 76.4876C223.627 75.9436 223.907 75.3916 224.211 74.8316C224.339 74.7036 224.467 74.5356 224.595 74.3276C224.723 74.1196 224.819 73.9836 224.883 73.9196C224.883 73.8556 224.907 73.7996 224.955 73.7516C225.003 73.6876 225.059 73.6556 225.123 73.6556L225.315 73.2716C225.347 73.2076 225.443 73.0796 225.603 72.8876C225.779 72.6956 225.987 72.4876 226.227 72.2636C226.467 72.0236 226.707 71.7996 226.947 71.5916C227.203 71.3836 227.411 71.2316 227.571 71.1356C227.907 70.9116 228.251 70.8076 228.603 70.8236C228.971 70.8396 229.283 70.9516 229.539 71.1596C229.587 71.2076 229.691 71.3036 229.851 71.4476C230.027 71.5916 230.219 71.7516 230.427 71.9276C230.651 72.1036 230.843 72.2636 231.003 72.4076L231.891 73.1996L231.483 74.3996C231.275 75.0396 231.219 75.5996 231.315 76.0796C231.411 76.5596 231.563 76.9756 231.771 77.3276C231.851 77.5036 231.955 77.6396 232.083 77.7356C232.227 77.8316 232.411 77.8956 232.635 77.9276C232.763 77.9436 232.883 77.9916 232.995 78.0716C233.107 78.1516 233.163 78.2796 233.163 78.4556C233.163 78.8396 233.091 79.1196 232.947 79.2956C232.819 79.4556 232.675 79.5516 232.515 79.5836C231.987 79.6476 231.483 79.5916 231.003 79.4156C230.523 79.2396 230.091 78.7836 229.707 78.0476C229.643 77.9516 229.555 77.7756 229.443 77.5196C229.347 77.2476 229.291 77.0716 229.275 76.9916C229.211 77.0716 229.123 77.1756 229.011 77.3036C228.915 77.4156 228.819 77.5196 228.723 77.6156C227.587 78.7676 226.611 79.5196 225.795 79.8716C224.995 80.2076 224.323 80.1996 223.779 79.8476ZM225.099 77.8556C225.211 77.8716 225.387 77.8156 225.627 77.6876C225.867 77.5436 226.187 77.3116 226.587 76.9916C227.131 76.5276 227.579 76.1436 227.931 75.8396C228.283 75.5356 228.627 75.1436 228.963 74.6636L229.491 73.7996C229.331 73.4316 229.187 73.1916 229.059 73.0796C228.931 72.9676 228.803 72.9116 228.675 72.9116C228.467 72.9116 228.219 73.0476 227.931 73.3196C227.643 73.5756 227.315 73.9596 226.947 74.4716C226.595 74.9676 226.195 75.5916 225.747 76.3436C225.539 76.6956 225.379 77.0396 225.267 77.3756C225.155 77.6956 225.099 77.8556 225.099 77.8556ZM238.09 80.4956C237.578 80.4956 237.106 80.3836 236.674 80.1596C236.258 79.9196 235.922 79.6316 235.666 79.2956C235.41 78.9436 235.282 78.6076 235.282 78.2876C235.282 78.1436 235.306 78.0396 235.354 77.9756C235.418 77.9116 235.506 77.8796 235.618 77.8796C235.698 77.8956 235.794 77.9356 235.906 77.9996C236.018 78.0636 236.13 78.1356 236.242 78.2156C236.498 78.3916 236.778 78.5036 237.082 78.5516C237.386 78.5996 237.658 78.5836 237.898 78.5036C238.138 78.4076 238.274 78.2636 238.306 78.0716C238.306 78.0076 238.274 77.8716 238.21 77.6636C238.146 77.4556 238.066 77.2556 237.97 77.0636C237.57 76.4716 237.322 75.9116 237.226 75.3836C237.13 74.8396 237.066 74.2956 237.034 73.7516C237.034 73.5276 237.138 73.2796 237.346 73.0076C237.554 72.7196 237.81 72.4396 238.114 72.1676C238.45 71.8796 238.818 71.6076 239.218 71.3516C239.634 71.0956 240.042 70.8796 240.442 70.7036C240.842 70.5276 241.178 70.4236 241.45 70.3916C241.738 70.3916 242.042 70.4076 242.362 70.4396C242.698 70.4556 242.922 70.5116 243.034 70.6076C243.258 70.7836 243.466 71.0716 243.658 71.4716C243.85 71.8716 243.946 72.2076 243.946 72.4796C243.946 72.6076 243.874 72.7676 243.73 72.9596C243.602 73.1356 243.482 73.3356 243.37 73.5596C243.306 73.6716 243.25 73.7916 243.202 73.9196C243.154 74.0476 243.098 74.1756 243.034 74.3036C242.938 74.5276 242.762 74.6236 242.506 74.5916C242.266 74.5436 242.042 74.4156 241.834 74.2076C241.626 73.9836 241.522 73.7276 241.522 73.4396C241.522 73.1996 241.594 72.9916 241.738 72.8156C241.882 72.6396 241.954 72.5196 241.954 72.4556C241.954 72.4236 241.938 72.3996 241.906 72.3836C241.874 72.3676 241.818 72.3596 241.738 72.3596C241.626 72.3596 241.442 72.4076 241.186 72.5036C240.946 72.5836 240.69 72.7036 240.418 72.8636C240.146 73.0236 239.898 73.2156 239.674 73.4396C239.514 73.6156 239.378 73.8076 239.266 74.0156C239.17 74.2076 239.122 74.4156 239.122 74.6396C239.122 74.8636 239.162 75.1276 239.242 75.4316C239.338 75.7196 239.442 75.9596 239.554 76.1516C239.586 76.1836 239.634 76.2716 239.698 76.4156C239.778 76.5436 239.866 76.7036 239.962 76.8956C240.554 78.1116 240.65 79.0156 240.25 79.6076C239.866 80.1996 239.146 80.4956 238.09 80.4956ZM248.377 81.7916C247.593 81.7756 247.089 81.5516 246.865 81.1196C246.657 80.7036 246.601 80.1756 246.697 79.5356C246.793 79.2316 246.849 78.9596 246.865 78.7196C246.897 78.4636 246.969 78.3036 247.081 78.2396C247.081 78.2396 247.089 78.2156 247.105 78.1676C247.137 78.1196 247.129 78.0716 247.081 78.0236C247.081 77.8156 247.153 77.5276 247.297 77.1596C247.329 77.0636 247.369 76.9516 247.417 76.8236C247.481 76.6796 247.513 76.6076 247.513 76.6076C247.433 76.4796 247.433 76.3756 247.513 76.2956C247.593 76.2156 247.673 76.1436 247.753 76.0796C247.849 75.9996 247.857 75.9116 247.777 75.8156C247.745 75.7516 247.785 75.6076 247.897 75.3836C248.009 75.1436 248.137 74.8956 248.281 74.6396C248.425 74.3836 248.521 74.1836 248.569 74.0396C248.569 74.0076 248.609 73.8956 248.689 73.7036C248.769 73.5116 248.865 73.2876 248.977 73.0316C249.089 72.7756 249.193 72.5436 249.289 72.3356C249.401 72.1276 249.473 71.9916 249.505 71.9276C249.665 71.8476 249.601 71.7916 249.313 71.7596C249.025 71.7276 248.721 71.7196 248.401 71.7356C247.905 71.7196 247.505 71.6956 247.201 71.6636C246.913 71.6316 246.673 71.5596 246.481 71.4476C246.289 71.2236 246.265 70.9596 246.409 70.6556C246.553 70.3356 246.785 70.1676 247.105 70.1516C247.313 70.1356 247.473 70.1276 247.585 70.1276C247.713 70.1276 247.873 70.1196 248.065 70.1036C248.273 70.0716 248.593 70.0316 249.025 69.9836L250.249 69.8876L250.321 69.4796C250.449 69.2716 250.537 69.1356 250.585 69.0716C250.633 69.0076 250.665 68.9436 250.681 68.8796C250.697 68.7996 250.721 68.6636 250.753 68.4716C250.753 68.4716 250.825 68.3436 250.969 68.0876C251.113 67.8156 251.201 67.5356 251.233 67.2476C251.425 66.9276 251.593 66.6396 251.737 66.3836C251.881 66.1116 251.969 65.9436 252.001 65.8796C252.273 65.4796 252.537 65.2636 252.793 65.2316C253.065 65.1996 253.321 65.2636 253.561 65.4236C253.705 65.5036 253.841 65.6076 253.969 65.7356C254.097 65.8476 254.177 65.9996 254.209 66.1916C254.241 66.3676 254.169 66.5996 253.993 66.8876C253.961 66.9516 253.913 67.0716 253.849 67.2476C253.785 67.4076 253.737 67.5436 253.705 67.6556C253.609 67.7676 253.489 67.9516 253.345 68.2076C253.217 68.4476 253.129 68.6956 253.081 68.9516C252.953 69.2236 252.873 69.3916 252.841 69.4556C252.809 69.5196 252.761 69.5516 252.697 69.5516C252.729 69.7116 252.825 69.7916 252.985 69.7916C253.145 69.7756 253.409 69.7596 253.777 69.7436C254.081 69.7116 254.289 69.6796 254.401 69.6476C254.529 69.5996 254.673 69.6156 254.833 69.6956C254.913 69.8076 254.953 69.9756 254.953 70.1996C254.969 70.4076 254.945 70.6156 254.881 70.8236C254.817 71.0156 254.729 71.1356 254.617 71.1836C254.537 71.1836 254.369 71.2316 254.113 71.3276C253.873 71.4076 253.569 71.4556 253.201 71.4716L251.929 71.5916L251.521 72.4076C251.409 72.6156 251.313 72.8076 251.233 72.9836C251.153 73.1436 251.097 73.2396 251.065 73.2716C251.065 73.3676 251.009 73.5116 250.897 73.7036C250.801 73.8956 250.697 74.1036 250.585 74.3276C250.489 74.5996 250.377 74.8476 250.249 75.0716C250.137 75.2956 250.081 75.4076 250.081 75.4076C250.017 75.4076 249.985 75.4556 249.985 75.5516C250.065 75.7436 250.041 75.8876 249.913 75.9836C249.833 76.0316 249.761 76.1036 249.697 76.1996C249.649 76.2796 249.625 76.3196 249.625 76.3196C249.689 76.3836 249.697 76.4636 249.649 76.5596C249.617 76.6556 249.569 76.7596 249.505 76.8716C249.505 76.9996 249.465 77.1836 249.385 77.4236C249.321 77.6636 249.249 77.8876 249.169 78.0956C249.185 78.3836 249.201 78.5676 249.217 78.6476C249.233 78.7276 249.273 78.7596 249.337 78.7436C249.417 78.7596 249.529 78.7596 249.673 78.7436C249.817 78.7276 249.921 78.7196 249.985 78.7196C250.225 78.6076 250.113 79.1676 249.649 80.3996C249.393 80.7996 249.137 81.1276 248.881 81.3836C248.625 81.6556 248.457 81.7916 248.377 81.7916ZM258.434 80.7836C257.554 80.7836 256.874 80.5276 256.394 80.0156C255.93 79.5036 255.698 78.7196 255.698 77.6636C255.698 77.0876 255.802 76.4556 256.01 75.7676C256.234 75.0796 256.522 74.4076 256.874 73.7516C257.242 73.0956 257.642 72.5276 258.074 72.0476C258.506 71.5516 258.938 71.2076 259.37 71.0156C259.53 70.9356 259.698 70.8796 259.874 70.8476C260.066 70.7996 260.25 70.7756 260.426 70.7756C260.618 70.7756 260.826 70.7916 261.05 70.8236C261.29 70.8396 261.514 70.8876 261.722 70.9676C262.09 71.0796 262.41 71.2956 262.682 71.6156C262.97 71.9356 263.114 72.3996 263.114 73.0076C263.114 73.1676 263.098 73.3436 263.066 73.5356C263.034 73.7116 262.978 73.8876 262.898 74.0636C262.69 74.5916 262.37 75.0956 261.938 75.5756C261.522 76.0556 261.082 76.3916 260.618 76.5836C260.49 76.6476 260.362 76.6956 260.234 76.7276C260.122 76.7436 260.002 76.7516 259.874 76.7516C259.538 76.7516 259.234 76.7036 258.962 76.6076C258.706 76.5116 258.466 76.3836 258.242 76.2236L258.05 76.0556L257.93 76.2956C257.818 76.5996 257.738 76.8556 257.69 77.0636C257.658 77.2716 257.642 77.4236 257.642 77.5196C257.642 77.7116 257.65 77.9116 257.666 78.1196C257.682 78.3116 257.73 78.4716 257.81 78.5996C257.874 78.6796 257.954 78.7436 258.05 78.7916C258.162 78.8396 258.298 78.8636 258.458 78.8636C258.554 78.8636 258.642 78.8636 258.722 78.8636C258.818 78.8476 258.898 78.8316 258.962 78.8156C259.25 78.7516 259.482 78.6476 259.658 78.5036C259.85 78.3436 260.05 78.2076 260.258 78.0956L260.354 78.0476L260.33 77.9756C260.602 77.8316 260.786 77.7436 260.882 77.7116C260.978 77.6636 261.05 77.6236 261.098 77.5916C261.162 77.5276 261.234 77.4956 261.314 77.4956C261.538 77.4636 261.754 77.5276 261.962 77.6876C262.186 77.8316 262.298 78.0156 262.298 78.2396C262.298 78.3356 262.226 78.4876 262.082 78.6956C261.954 78.9036 261.786 79.1116 261.578 79.3196C261.386 79.5116 261.186 79.6636 260.978 79.7756C260.93 79.7916 260.882 79.8156 260.834 79.8476C260.786 79.8636 260.738 79.8876 260.69 79.9196H260.714C260.57 80.1116 260.426 80.2076 260.282 80.2076H260.09C260.026 80.3196 259.818 80.4396 259.466 80.5676C259.114 80.7116 258.77 80.7836 258.434 80.7836ZM259.682 74.9996C259.826 74.9996 259.954 74.9756 260.066 74.9276C260.194 74.8796 260.314 74.8236 260.426 74.7596C260.81 74.4876 261.058 74.1356 261.17 73.7036C261.282 73.2716 261.242 72.9436 261.05 72.7196C261.018 72.6716 260.978 72.6396 260.93 72.6236C260.882 72.5916 260.826 72.5756 260.762 72.5756C260.586 72.5756 260.386 72.6316 260.162 72.7436C259.954 72.8556 259.746 73.0156 259.538 73.2236C259.33 73.4316 259.138 73.6796 258.962 73.9676L258.65 74.4716C258.682 74.4556 258.706 74.4476 258.722 74.4476C258.754 74.4316 258.778 74.4236 258.794 74.4236C258.938 74.4236 259.034 74.4716 259.082 74.5676C259.13 74.6636 259.186 74.7596 259.25 74.8556C259.33 74.9516 259.474 74.9996 259.682 74.9996ZM266.402 79.7036C266.258 79.5916 266.098 79.4476 265.922 79.2716C265.762 79.0956 265.706 78.8476 265.754 78.5276C265.802 78.0796 265.866 77.6876 265.946 77.3516C266.026 76.9996 266.122 76.5996 266.234 76.1516C266.266 75.9596 266.346 75.6316 266.474 75.1676C266.618 74.7036 266.786 74.1996 266.978 73.6556C267.17 73.1116 267.37 72.5996 267.578 72.1196C267.786 71.6236 267.97 71.2556 268.13 71.0156C268.306 70.8556 268.562 70.7756 268.898 70.7756C269.25 70.7756 269.49 70.8396 269.618 70.9676C269.794 71.1116 269.85 71.3676 269.786 71.7356C269.722 72.0876 269.498 72.6396 269.114 73.3916C269.034 73.5836 268.93 73.7916 268.802 74.0156C268.69 74.2236 268.61 74.3996 268.562 74.5436C268.514 74.6716 268.53 74.7276 268.61 74.7116C268.706 74.5356 268.882 74.3356 269.138 74.1116C269.394 73.8716 269.666 73.6396 269.954 73.4156C270.242 73.1916 270.514 72.9916 270.77 72.8156C271.026 72.6396 271.202 72.5276 271.298 72.4796C271.426 72.3996 271.57 72.3356 271.73 72.2876C271.906 72.2236 272.026 72.1756 272.09 72.1436C272.458 71.9676 272.858 71.9036 273.29 71.9516C273.738 71.9836 274.01 72.1196 274.106 72.3596C274.122 72.4876 274.17 72.5836 274.25 72.6476C274.346 72.7116 274.394 72.7436 274.394 72.7436C274.458 72.7436 274.49 72.7676 274.49 72.8156C274.506 72.8636 274.514 72.8876 274.514 72.8876C274.514 72.9996 274.402 73.1596 274.178 73.3676C273.97 73.5756 273.738 73.6876 273.482 73.7036C273.274 73.7196 273.09 73.7596 272.93 73.8236C272.77 73.8876 272.578 73.9676 272.354 74.0636C271.746 74.4156 271.194 74.7276 270.698 74.9996C270.218 75.2716 269.722 75.6876 269.21 76.2476C269.098 76.3756 268.978 76.4956 268.85 76.6076C268.722 76.7196 268.594 76.8796 268.466 77.0876C268.386 77.1676 268.306 77.3436 268.226 77.6156C268.146 77.8876 268.074 78.1516 268.01 78.4076C267.962 78.6476 267.938 78.7916 267.938 78.8396C267.938 78.8396 267.914 78.9196 267.866 79.0796C267.818 79.2236 267.738 79.3676 267.626 79.5116C267.434 79.7676 267.242 79.9276 267.05 79.9916C266.874 80.0556 266.658 79.9596 266.402 79.7036Z" fill="#B8C318"/>
</svg>
