<svg width="30" height="33" viewBox="0 0 30 33" fill="none" xmlns="http://www.w3.org/2000/svg">
<g opacity="0.4" clip-path="url(#clip0_3_255)">
<path d="M28.3792 17.772C28.1506 17.773 27.9243 17.7261 27.7154 17.6342C27.5065 17.5422 27.3197 17.4073 27.1673 17.2386L14.2031 2.67204C14.0616 2.51444 13.9531 2.33085 13.8833 2.13163C13.8135 1.93242 13.784 1.72151 13.7965 1.51101C13.809 1.30052 13.863 1.09471 13.9559 0.904973C14.0488 0.715238 14.1786 0.545281 14.3377 0.405193C14.4969 0.265105 14.6825 0.157615 14.8837 0.0885009C15.0849 0.019387 15.2976 -0.00982572 15.5101 0.00255649C15.7227 0.0149387 15.9308 0.0686489 16.1224 0.160642C16.314 0.252635 16.4853 0.380938 16.6268 0.538537L29.591 15.1105C29.7994 15.3413 29.9356 15.6269 29.9834 15.9328C30.0312 16.2386 29.9881 16.5516 29.8598 16.8339C29.7315 17.1161 29.5236 17.3555 29.2607 17.523C28.9979 17.6904 28.6917 17.7789 28.3792 17.7774V17.772Z" fill="#EEECE9"/>
<path d="M26.2247 33C25.9961 33.0011 25.7698 32.9539 25.5609 32.862C25.352 32.77 25.1653 32.6354 25.0129 32.4666L0.404006 4.80554C0.262546 4.64794 0.154003 4.46435 0.0842122 4.26513C0.0144214 4.06592 -0.0150772 3.85501 -0.00257389 3.64451C0.00992946 3.43401 0.0639029 3.22821 0.156797 3.03847C0.249691 2.84874 0.379513 2.67878 0.538656 2.53869C0.697798 2.3986 0.883456 2.29111 1.08462 2.222C1.28578 2.15289 1.4985 2.12367 1.71106 2.13606C1.92361 2.14844 2.1317 2.20215 2.32329 2.29414C2.51489 2.38613 2.68624 2.51444 2.8277 2.67204L27.4366 30.3331C27.6449 30.5638 27.7812 30.8494 27.8289 31.1553C27.8767 31.4612 27.8336 31.7742 27.7053 32.0564C27.5771 32.3387 27.3691 32.5781 27.1062 32.7456C26.8434 32.913 26.5373 33.0014 26.2247 33Z" fill="#EEECE9"/>
</g>
<defs>
<clipPath id="clip0_3_255">
<rect width="30" height="33" fill="white"/>
</clipPath>
</defs>
</svg>
