<svg width="35" height="33" viewBox="0 0 35 33" fill="none" xmlns="http://www.w3.org/2000/svg">
<path d="M19.083 1.16239L22.8244 8.74433C22.9706 9.042 23.187 9.29969 23.455 9.49506C23.723 9.69043 24.0345 9.81762 24.3626 9.86576L32.7286 11.0765C33.1052 11.1322 33.4587 11.2918 33.7495 11.5375C34.0402 11.7833 34.2566 12.1054 34.3742 12.4674C34.4918 12.8295 34.506 13.2172 34.4151 13.5869C34.3243 13.9566 34.132 14.2936 33.8599 14.5599L27.8062 20.4647C27.5712 20.6969 27.3954 20.9822 27.2935 21.2965C27.1916 21.6108 27.1666 21.9449 27.2207 22.2708L28.6399 30.6071C28.7055 30.9844 28.6638 31.3726 28.5195 31.7274C28.3752 32.0821 28.1342 32.3893 27.8239 32.6138C27.5136 32.8382 27.1464 32.971 26.7643 32.9969C26.3822 33.0229 26.0005 32.941 25.6626 32.7606L18.1799 28.791C17.8869 28.6395 17.5619 28.5605 17.2321 28.5605C16.9024 28.5605 16.5773 28.6395 16.2844 28.791L8.80165 32.7606C8.46382 32.941 8.08209 33.0229 7.69997 32.9969C7.31786 32.971 6.95071 32.8382 6.64039 32.6138C6.33007 32.3893 6.08905 32.0821 5.94479 31.7274C5.80052 31.3726 5.75882 30.9844 5.82443 30.6071L7.2535 22.2808C7.31459 21.9548 7.29297 21.6187 7.19068 21.3032C7.0884 20.9876 6.90869 20.7028 6.66795 20.4746L0.614294 14.5698C0.342245 14.3035 0.149961 13.9665 0.0590933 13.5969C-0.0317747 13.2272 -0.0176173 12.8394 0.0999792 12.4774C0.217576 12.1153 0.433904 11.7932 0.724655 11.5475C1.01541 11.3017 1.36905 11.1421 1.74565 11.0865L10.1116 9.87569C10.4398 9.82756 10.7513 9.7003 11.0192 9.50493C11.2872 9.30956 11.5036 9.05194 11.6499 8.75427L15.3912 1.17232C15.5564 0.823004 15.8171 0.527629 16.1432 0.320444C16.4694 0.113259 16.8476 0.00269401 17.234 0.00165534C17.6203 0.000616664 17.9991 0.10914 18.3264 0.314569C18.6536 0.519997 18.916 0.813963 19.083 1.16239Z" fill="#F8E47E"/>
</svg>
