<svg width="340" height="383" viewBox="0 0 340 383" fill="none" xmlns="http://www.w3.org/2000/svg">
<g clip-path="url(#clip0_1384_829)">
<path d="M170.003 371.894C207.34 371.894 237.608 364.352 237.608 355.048C237.608 345.744 207.34 338.201 170.003 338.201C132.666 338.201 102.398 345.744 102.398 355.048C102.398 364.352 132.666 371.894 170.003 371.894Z" fill="#F9F8F3"/>
<path d="M82.5393 16.8625C29.3512 16.8625 -4.02593 39.7268 1.10902 69.3459C5.52313 94.7615 24.4188 98.5034 59.5697 101.646C59.7073 104.211 60.4662 106.704 61.7812 108.911C63.0962 111.117 64.9277 112.971 67.1182 114.313C68.2683 115.066 69.9044 114.192 69.6614 112.928C69.1268 110.239 69.4508 106.319 73.711 102.504C78.2952 102.674 83.09 102.78 88.0954 102.747C154.113 102.318 263.801 106.327 263.801 55.569C263.785 12.3593 135.719 16.8625 82.5393 16.8625Z" fill="#F3F0EB"/>
<path d="M24.6793 64.4297C24.6187 64.3454 24.5414 64.2746 24.4522 64.2216C24.363 64.1687 24.2639 64.1347 24.1609 64.1219C23.784 64.0825 23.404 64.0825 23.027 64.1219C22.8153 64.1456 22.6009 64.1292 22.3953 64.0733C22.2045 64.0288 22.027 63.94 21.8769 63.8141C21.8187 63.7788 21.7727 63.7265 21.7451 63.6642C21.7176 63.6019 21.7099 63.5327 21.7231 63.4659C21.7231 63.2958 21.9417 63.1014 22.3305 62.8989C22.8074 62.6782 23.3278 62.5675 23.8532 62.575H24.7684L24.9871 62.1376C25.0482 61.9692 25.0943 61.7958 25.1248 61.6192C25.1248 61.433 25.2301 61.1738 25.3272 60.8093C25.392 60.6068 25.473 60.3233 25.5945 59.9994L25.959 58.8331C26.0886 58.4201 26.2101 58.0232 26.3073 57.7154C26.4044 57.4076 26.4773 57.1485 26.5097 57.0189C26.5421 56.8893 26.6393 56.6625 26.7446 56.3547C26.8499 56.0469 26.9471 55.723 27.0362 55.399C27.1253 55.0751 27.1982 54.8321 27.2225 54.6863C27.6031 53.5443 27.8461 52.7425 27.9595 52.2565C28.0729 51.7706 28.1053 51.56 28.0486 51.5438H27.6355L26.9228 51.6004L26.2263 51.6733C26.0979 51.6813 25.9718 51.7115 25.8537 51.7624C25.7808 51.8677 25.6593 51.8434 25.4811 51.7057C25.3325 51.6019 25.2193 51.4549 25.1571 51.2845C25.1409 51.1609 25.1409 51.0357 25.1571 50.912C25.159 50.8655 25.1717 50.82 25.1942 50.7792C25.2167 50.7384 25.2484 50.7035 25.2867 50.6771C25.4808 50.5455 25.6938 50.4444 25.9185 50.3774C26.2344 50.2721 26.5988 50.1749 26.9957 50.0859C27.3593 50.0024 27.727 49.9375 28.0972 49.8915C28.3473 49.86 28.594 49.8058 28.8342 49.7295C29.0435 49.6656 29.2406 49.5669 29.4174 49.4379C29.547 49.3893 29.6766 49.357 29.798 49.3246C29.9244 49.3085 30.0523 49.3085 30.1787 49.3246C30.3654 49.4134 30.5718 49.4524 30.7781 49.4379H31.6852C32.2516 49.3469 32.8308 49.3746 33.386 49.5189C33.6555 49.5935 33.8869 49.767 34.034 50.0049C34.0721 50.1171 34.0874 50.2358 34.079 50.354C34.0707 50.4722 34.0389 50.5876 33.9854 50.6933C33.934 50.7818 33.8569 50.8525 33.7642 50.8959C33.6716 50.9393 33.5679 50.9534 33.467 50.9363C33.288 50.9745 33.1067 51.0016 32.9244 51.0173C32.6895 51.0173 32.3817 51.0577 32.0092 51.0739C31.4774 51.0549 30.9484 51.1574 30.4622 51.3736C30.4089 51.4269 30.3626 51.4868 30.3245 51.5519L30.1787 51.7463C30.1761 51.9207 30.1432 52.0933 30.0815 52.2565C30.0005 52.5373 29.9033 52.8369 29.7899 53.1555C29.7332 53.3499 29.6442 53.6172 29.5308 53.9654C29.4174 54.3137 29.2959 54.6701 29.1663 55.0426L28.8342 56.0388C28.7289 56.3385 28.6561 56.541 28.6156 56.6382C28.5564 56.7739 28.5103 56.9149 28.4779 57.0593C28.4779 57.2132 28.4131 57.3266 28.3969 57.3995L27.8866 59.1813C27.7489 59.6592 27.6274 60.0804 27.5303 60.4368C27.4331 60.7931 27.3359 61.1333 27.2468 61.4573C27.1577 61.7813 27.0605 62.1457 26.939 62.5588L28.243 62.4454C28.9233 62.3725 29.3931 62.332 29.6361 62.3158C29.879 62.2996 30.0329 62.3158 30.0734 62.3725C30.1327 62.4529 30.1767 62.5434 30.203 62.6398C30.4946 63.0366 30.4784 63.3606 30.1463 63.6197C29.6361 63.9285 29.038 64.0596 28.4455 63.9924C27.6841 63.9924 27.1334 64.0409 26.777 64.0652C26.5445 64.0703 26.3134 64.1029 26.0886 64.1624C26.0453 64.1802 26.0082 64.2105 25.9822 64.2494C25.9562 64.2884 25.9425 64.3343 25.9428 64.3811C25.9428 64.616 25.8132 64.7537 25.5135 64.8023C25.3538 64.8213 25.1919 64.7966 25.045 64.731C24.8981 64.6654 24.7718 64.5613 24.6793 64.4297Z" fill="#A69D91"/>
<path d="M34.6562 63.5555C34.4593 63.5093 34.2795 63.4082 34.1378 63.264C33.9472 63.0945 33.7761 62.9043 33.6276 62.697C33.5025 62.5385 33.404 62.3607 33.336 62.1706C33.336 62.1706 33.336 62.0814 33.2226 61.9923C33.1092 61.9032 33.1335 61.7575 33.1254 61.4173C33.122 61.0359 33.1409 60.6545 33.1821 60.2753C33.2123 59.9376 33.2637 59.6022 33.336 59.271C33.4089 59.0442 33.5142 58.7284 33.6599 58.3315C33.8057 57.9347 33.9272 57.5701 34.0325 57.2543L34.6157 55.9908L33.7491 55.7478C33.6468 55.725 33.5571 55.6642 33.498 55.5778C33.4447 55.5161 33.4109 55.44 33.4008 55.3591C33.4243 55.1785 33.491 55.0063 33.5952 54.8569C33.7248 54.6382 33.8219 54.5329 33.8786 54.5329C34.0133 54.5455 34.1489 54.5455 34.2836 54.5329C34.478 54.5329 34.6643 54.5329 34.8587 54.5329H35.2069L35.377 54.4114C35.4419 54.3505 35.487 54.2716 35.5066 54.1847C35.5626 54.0561 35.6276 53.9316 35.701 53.8121C35.7658 53.723 35.8387 53.5934 35.944 53.4233C36.0492 53.2532 36.1302 53.0751 36.195 52.9455C36.2905 52.7565 36.396 52.5726 36.5109 52.3947C36.5974 52.2787 36.6758 52.1569 36.7458 52.0303C36.8319 51.8862 36.9446 51.7597 37.0778 51.6576C37.2661 51.5206 37.4864 51.4342 37.7177 51.4066C37.8535 51.3808 37.9935 51.3863 38.1268 51.4228C38.2602 51.4593 38.3834 51.5258 38.4871 51.6172C38.5902 51.7334 38.6577 51.8768 38.6815 52.0303C38.6828 52.212 38.6229 52.3889 38.5114 52.5324C38.3994 52.7645 38.2637 52.9843 38.1065 53.1884C37.9484 53.3981 37.8075 53.6202 37.6853 53.8526C37.4504 54.1766 37.4099 54.3547 37.5557 54.4033C37.9628 54.4291 38.3716 54.3991 38.7706 54.3142C38.9234 54.2677 39.0845 54.2552 39.2426 54.2776C39.4007 54.2999 39.552 54.3567 39.6858 54.4438C39.8694 54.5959 39.9858 54.8141 40.0098 55.0513C40.0584 55.3996 40.0098 55.6102 39.9045 55.6831C39.5796 55.7824 39.2386 55.8182 38.9002 55.7884C38.6067 55.8472 38.3085 55.8798 38.0093 55.8855H37.4666H37.0941C37.0081 55.8739 36.9209 55.8739 36.8349 55.8855C36.7377 55.9007 36.6488 55.9494 36.5838 56.0232C36.5222 56.1103 36.468 56.2025 36.4218 56.2986C36.3156 56.4376 36.2284 56.5901 36.1626 56.7521C36.0304 57.0292 35.8845 57.2995 35.7253 57.5621C35.5255 58.1722 35.3554 58.7554 35.215 59.3115C35.0773 59.8704 34.9558 60.4211 34.8587 60.9314C34.7961 61.1263 34.7961 61.3358 34.8587 61.5307C34.9234 61.6522 35.1097 61.7332 35.4094 61.7575C35.8991 61.786 36.3903 61.7423 36.8673 61.6279L37.3694 61.4011C37.5329 61.3257 37.6924 61.2419 37.8473 61.1501L38.4304 60.8018C38.5033 60.6884 38.6086 60.7046 38.7463 60.8585C38.8753 61.0006 38.9769 61.1654 39.046 61.3445C39.0382 61.5567 39 61.7667 38.9326 61.9681C38.8597 62.203 38.5924 62.454 38.1227 62.7132C37.5313 63.1012 36.8624 63.3556 36.1626 63.4584C35.6678 63.5635 35.1604 63.5963 34.6562 63.5555Z" fill="#A69D91"/>
<path d="M43.5341 54.1598C43.3526 54.1995 43.1648 54.1995 42.9833 54.1598C42.85 54.1243 42.7257 54.0608 42.6188 53.9735C42.5788 53.8081 42.5959 53.6338 42.6674 53.4794C42.7263 53.3399 42.7997 53.2069 42.8861 53.0825C43.0562 52.791 43.2587 52.4428 43.4774 52.0459C43.6539 51.7524 43.803 51.4434 43.9228 51.1226C43.9228 50.9606 44.0038 50.7581 44.0686 50.507C44.135 50.2422 44.1677 49.9701 44.1658 49.6971C44.172 49.5793 44.191 49.4624 44.2225 49.3488C44.2544 49.1983 44.309 49.0536 44.3845 48.9196C44.4574 48.79 44.5303 48.7414 44.6032 48.79L45.0972 49.0248C45.2899 49.1169 45.4697 49.234 45.6318 49.3731C45.701 49.421 45.7552 49.4875 45.7881 49.5649C45.8211 49.6423 45.8315 49.7274 45.8181 49.8105C45.7842 50.1963 45.7054 50.5769 45.5832 50.9444C45.4455 51.3494 45.3402 51.6976 45.2511 51.9891C45.1509 52.3439 44.9891 52.6784 44.7733 52.9772C44.5547 53.3044 44.3167 53.6181 44.0605 53.9168C44.0605 53.9816 44.0605 54.014 43.9228 54.0302C43.7898 54.0624 43.6598 54.1057 43.5341 54.1598Z" fill="#A69D91"/>
<path d="M46.1902 63.6682C45.795 63.5224 45.43 63.3055 45.113 63.0283C44.8862 62.8015 44.7971 62.599 44.8376 62.4289C44.87 62.3375 44.9226 62.2544 44.9915 62.1859C45.1361 62.0951 45.309 62.0605 45.4774 62.0887C45.8799 62.1223 46.2784 62.1928 46.668 62.2993H47.1459C47.2956 62.2874 47.4444 62.2658 47.5913 62.2346C47.7091 62.2116 47.8235 62.1735 47.9315 62.1212C47.9963 62.1212 48.0206 62.0564 47.9963 62.0078C47.9563 61.9441 47.9039 61.8891 47.8424 61.8458C47.7937 61.7788 47.726 61.728 47.648 61.7C47.581 61.689 47.5126 61.689 47.4456 61.7C47.4068 61.6125 47.3453 61.5369 47.2674 61.4813C47.1702 61.4084 47.0568 61.3275 46.9272 61.2465C46.6113 60.9792 46.3197 60.7524 46.0606 60.55C45.8014 60.3475 45.6961 60.1935 45.7528 60.0882V59.9829C45.6475 59.9829 45.5584 59.8452 45.4693 59.5618C45.3835 59.3004 45.3398 59.027 45.3397 58.7518C45.3431 58.4534 45.4065 58.1587 45.526 57.8853C45.6515 57.5967 45.812 57.3247 46.0039 57.0753C46.1871 56.8294 46.3873 56.5966 46.6032 56.3788C46.8786 56.1196 47.1702 55.8605 47.4779 55.5689C47.7981 55.3071 48.1425 55.0766 48.5066 54.8805C48.8921 54.6694 49.3031 54.5087 49.7295 54.4025C49.959 54.3582 50.1924 54.3366 50.4261 54.3378C50.6211 54.3215 50.8169 54.3579 50.993 54.4431C51.1064 54.3702 51.2522 54.3944 51.4304 54.4997C51.6225 54.6241 51.7969 54.774 51.9488 54.9452C52.1102 55.112 52.2441 55.3033 52.3456 55.5121C52.3456 55.6822 52.3456 55.9009 52.3456 56.152C52.3456 56.4031 52.3456 56.6299 52.297 56.8162C52.2484 57.0025 52.1998 57.0997 52.0945 57.0997C52.0638 57.1037 52.0357 57.1194 52.0161 57.1435C51.9965 57.1676 51.9869 57.1982 51.9892 57.2292C51.9728 57.3307 51.9356 57.4278 51.8798 57.5142C51.824 57.6006 51.751 57.6745 51.6653 57.7313C51.4078 57.9038 51.1369 58.0555 50.8554 58.1849C50.7697 58.2363 50.6717 58.2635 50.5719 58.2635C50.472 58.2635 50.374 58.2363 50.2884 58.1849L50.0535 58.0068C49.9766 57.9457 49.9108 57.8716 49.8591 57.7881C49.8024 57.7053 49.7637 57.6115 49.7458 57.5127C49.7605 57.4195 49.8061 57.3339 49.8753 57.2697C50.0502 57.1144 50.2077 56.9406 50.3451 56.7513C50.4376 56.6178 50.5137 56.4737 50.5719 56.3221C50.6114 56.2297 50.6333 56.1309 50.6367 56.0305C50.6367 55.9414 50.6367 55.8928 50.58 55.8685C50.5057 55.849 50.4275 55.849 50.3532 55.8685C50.1909 55.899 50.0348 55.9564 49.8915 56.0386C49.6322 56.1666 49.3806 56.31 49.1383 56.4679C48.9239 56.5994 48.7208 56.7485 48.5309 56.9134L48.4094 57.1078C48.3703 57.1227 48.327 57.1227 48.2879 57.1078C48.2879 57.0511 48.2879 57.0592 48.1826 57.1078C48.0874 57.2026 48.0006 57.3056 47.9234 57.4155C47.8181 57.5451 47.7128 57.6828 47.6156 57.8205C47.5184 57.9582 47.4375 58.0877 47.3727 58.1687C47.3664 58.2957 47.3333 58.42 47.2755 58.5332C47.2275 58.6369 47.2106 58.7522 47.2269 58.8652C47.2429 59.0244 47.3181 59.1718 47.4375 59.2783C47.5751 59.416 47.7614 59.578 48.0044 59.7805C48.5147 60.1611 48.8953 60.4608 49.1464 60.6714C49.3423 60.8279 49.5214 61.0044 49.6809 61.1978C49.7771 61.3092 49.844 61.4428 49.8753 61.5866C49.994 61.7549 50.0649 61.9522 50.0805 62.1576C50.0962 62.3629 50.0561 62.5686 49.9644 62.7529C49.7643 63.089 49.46 63.3506 49.0978 63.4981C48.8539 63.6 48.5981 63.6706 48.3365 63.7086C47.9596 63.7757 47.5771 63.8056 47.1945 63.7978C46.8546 63.8163 46.5142 63.7723 46.1902 63.6682Z" fill="#A69D91"/>
<path d="M62.9806 51.9007C62.7752 51.9484 62.5622 51.9536 62.3546 51.916C62.1471 51.8784 61.9495 51.7988 61.7738 51.682C61.6776 51.6073 61.605 51.5064 61.5648 51.3915C61.5245 51.2765 61.5184 51.1525 61.5471 51.0341C61.5916 50.8529 61.7011 50.6943 61.8548 50.5886C62.1388 50.4171 62.4566 50.3094 62.7863 50.2727L63.4018 50.1593L64.1307 50.0298C64.6086 49.9731 65.0055 49.9244 65.3132 49.8758C65.621 49.8272 65.9531 49.7948 66.2851 49.7705C66.6172 49.7462 67.0384 49.7139 67.5486 49.6815L69.0713 49.5762C69.1118 49.5762 69.2657 49.5762 69.5248 49.6167L70.3753 49.722C70.6037 49.752 70.8288 49.8035 71.0475 49.8758C71.3496 49.9288 71.6305 50.0664 71.8574 50.2727C72.0523 50.4435 72.1907 50.6695 72.2543 50.9207C72.2959 51.0525 72.2959 51.1939 72.2543 51.3256C72.2031 51.4279 72.1168 51.5084 72.0113 51.5524L71.2014 51.8035C70.9993 51.8726 70.7799 51.8726 70.5778 51.8035C70.501 51.7278 70.4169 51.66 70.3267 51.601C70.1758 51.5299 70.0144 51.4834 69.8488 51.4633C69.6221 51.4633 69.2738 51.3985 68.7959 51.3661C68.3181 51.3337 68.0346 51.4309 67.7268 51.4309C67.419 51.4309 67.2732 51.4309 67.2732 51.5362L65.9855 51.601L64.9245 51.7144L64.317 51.771L63.5557 51.8359C63.3628 51.8452 63.1707 51.8668 62.9806 51.9007ZM62.7863 64.6895C62.6528 64.6959 62.5203 64.6643 62.4042 64.5983C62.288 64.5324 62.193 64.4347 62.1302 64.3168C61.986 64.1302 61.9013 63.9044 61.8872 63.669C61.9227 63.3285 61.9905 62.9922 62.0897 62.6646C62.2031 62.2354 62.3327 61.7899 62.4785 61.3445C62.6243 60.899 62.7538 60.5345 62.8672 60.2753C62.9806 60.0161 62.9806 59.838 63.0373 59.6517L63.1345 59.2953C63.214 59.1498 63.2817 58.9981 63.337 58.8418C63.4285 58.6068 63.5043 58.366 63.5638 58.121C63.5638 58.0076 63.6529 57.7807 63.7501 57.4568C63.8473 57.1328 63.9606 56.7521 64.0983 56.3147L64.5114 55.0351C64.6491 54.6139 64.7706 54.2252 64.8678 53.9255L65.0702 53.2937C65.1755 53.1368 65.2625 52.9683 65.3294 52.7916C65.3861 52.6296 65.4185 52.5243 65.4347 52.4676C65.475 52.4429 65.5096 52.41 65.5362 52.3709C65.5627 52.3318 65.5806 52.2874 65.5886 52.2409C65.5946 52.1654 65.5946 52.0895 65.5886 52.0141C65.5869 51.9808 65.5926 51.9477 65.6052 51.9169C65.6178 51.8861 65.637 51.8584 65.6615 51.8359C65.6852 51.8175 65.7046 51.7942 65.7186 51.7677C65.7326 51.7411 65.7407 51.7119 65.7425 51.682C65.7992 51.682 65.8316 51.6334 65.8478 51.682C65.864 51.7306 65.9045 51.682 65.9774 51.6091L66.0826 50.872H68.0265C68.0265 51.0502 67.9536 51.2608 67.8888 51.52C67.7922 51.8728 67.6535 52.2128 67.4757 52.5324C67.4131 52.8085 67.3291 53.0793 67.2246 53.3424C67.1537 53.4862 67.115 53.6437 67.1113 53.804C67.0273 53.9365 66.9645 54.0814 66.925 54.2333C66.8278 54.5005 66.7225 54.8165 66.601 55.189C66.4795 55.5616 66.3499 55.9503 66.2285 56.3228C66.107 56.6954 65.9936 57.0276 65.9045 57.311L65.7182 57.8455C65.5605 58.1753 65.4278 58.5164 65.3213 58.866C65.1836 59.3196 64.965 59.927 64.6734 60.6965C64.5142 61.0369 64.3737 61.3857 64.2522 61.7413C64.096 62.1554 63.9608 62.577 63.8473 63.0048C63.7376 63.4197 63.5968 63.8258 63.4261 64.2196C63.3533 64.3952 63.2361 64.5487 63.0859 64.6651C63.0007 64.683 62.9138 64.6912 62.8267 64.6895H62.7863Z" fill="#A69D91"/>
<path d="M71.2004 63.1666C71.0694 63.021 70.9824 62.8412 70.9493 62.6482C70.8987 62.4224 70.8796 62.1908 70.8926 61.9598C70.8981 61.7841 70.9366 61.611 71.006 61.4495C71.002 61.3553 71.0186 61.2612 71.0546 61.1741C71.0677 61.1462 71.0744 61.1158 71.0744 61.085C71.0744 61.0542 71.0677 61.0238 71.0546 60.9959C71.0482 60.891 71.0648 60.786 71.1032 60.6881C71.1437 60.5424 71.1923 60.4047 71.2328 60.2751C71.2733 60.1455 71.4515 59.7405 71.5811 59.368C71.7107 58.9954 71.8403 58.6228 71.9699 58.2421C72.0994 57.8615 72.2128 57.5213 72.3019 57.2378C72.391 56.9544 72.4396 56.7843 72.4477 56.7276C72.4558 56.6709 72.5692 56.4603 72.796 56.4441C72.9112 56.4239 73.0296 56.4333 73.1402 56.4716C73.2507 56.5099 73.3497 56.5757 73.4277 56.6628C73.6606 56.8464 73.8605 57.0683 74.019 57.3189C74.0755 57.3785 74.1168 57.4508 74.1393 57.5298C74.1619 57.6088 74.1651 57.692 74.1486 57.7724C74.0843 58.052 73.9892 58.3237 73.8651 58.5823C73.782 58.7718 73.7117 58.9666 73.6545 59.1655C73.5877 59.3835 73.5336 59.6053 73.4925 59.8297C73.4146 59.9871 73.3469 60.1494 73.29 60.3156C73.209 60.5262 73.1361 60.7287 73.0795 60.9149C73.0402 61.0449 73.0104 61.1775 72.9903 61.3118C72.9903 61.5143 72.9256 61.7087 72.8851 61.9111C72.8552 62.0799 72.7949 62.2418 72.7069 62.389C72.5773 62.9883 72.3505 63.3366 72.0265 63.4338C71.878 63.4788 71.7193 63.4772 71.5716 63.4295C71.424 63.3817 71.2945 63.29 71.2004 63.1666ZM73.5492 54.4436C73.3945 54.338 73.2714 54.1924 73.1928 54.0224C73.1195 53.8839 73.0728 53.7328 73.0552 53.577C73.0356 53.4972 73.0356 53.4138 73.0552 53.334C73.221 53.1495 73.3502 52.9351 73.4358 52.7023C73.5425 52.4574 73.6642 52.2194 73.8003 51.9895C73.8367 51.9248 73.8773 51.8626 73.9218 51.8032C73.9704 51.7223 74.019 51.6736 74.0838 51.6655C74.1951 51.6031 74.3206 51.5703 74.4482 51.5703C74.5759 51.5703 74.7014 51.6031 74.8127 51.6655C75.0894 51.7729 75.3268 51.9623 75.493 52.2082C75.6128 52.4602 75.6551 52.7421 75.6145 53.0181C75.538 53.3581 75.3763 53.673 75.1448 53.9334C74.9509 54.2095 74.6629 54.4054 74.3348 54.4842C74.2087 54.5346 74.0732 54.557 73.9376 54.55C73.8019 54.543 73.6694 54.5068 73.5492 54.4436Z" fill="#A69D91"/>
<path d="M86.6225 63.0118C86.4481 62.9455 86.2864 62.8496 86.1446 62.7283C85.8987 62.5401 85.7015 62.2957 85.5696 62.0156C85.3895 61.6285 85.3087 61.2025 85.3347 60.7764C85.3362 60.4661 85.3688 60.1569 85.4319 59.8531C85.4886 59.6668 85.4319 59.5696 85.359 59.5534C85.1991 59.58 85.0486 59.647 84.9216 59.7478C84.6365 59.9618 84.366 60.1945 84.1117 60.4444C83.7661 60.7683 83.345 61.1894 82.8482 61.7078C82.67 61.8536 82.4838 62.0318 82.2732 62.2424C82.0895 62.4323 81.8762 62.5909 81.6414 62.7121C81.5538 62.7631 81.452 62.7843 81.3512 62.7726C81.2505 62.7609 81.1563 62.717 81.0826 62.6473L80.8639 62.4449C80.7549 62.3474 80.6668 62.2289 80.6047 62.0965C80.5397 61.9869 80.5167 61.8574 80.5399 61.7321L81.1474 60.0313C81.3256 59.6587 81.447 59.3887 81.5118 59.2214C81.5598 59.1197 81.5873 59.0096 81.5928 58.8974C81.5928 58.8974 81.5523 58.8407 81.4794 58.8974C81.3391 58.9424 81.2114 59.0202 81.1069 59.1242C80.986 59.2215 80.8773 59.3329 80.7829 59.4562C80.7262 59.4562 80.6452 59.521 80.5561 59.6344C80.467 59.7478 80.3698 59.8531 80.2807 59.9422C80.1213 60.0963 79.97 60.2585 79.8272 60.4281L79.1307 61.1813C78.8947 61.3966 78.6754 61.6295 78.4746 61.8779L77.8267 62.6879C77.6323 62.9228 77.5189 63.0361 77.4784 63.0361C77.2198 63.0252 76.9708 62.9348 76.7656 62.777C76.5659 62.6297 76.4184 62.4225 76.3445 62.1856C76.255 61.9009 76.255 61.5956 76.3445 61.3109C76.4174 60.8817 76.5551 60.1932 76.7576 59.2537C76.8143 59.035 76.8709 58.8488 76.9195 58.6868C76.9681 58.5248 77.0248 58.3709 77.0896 58.2089C77.1544 58.047 77.2111 57.8687 77.2921 57.6663C77.3731 57.4638 77.4784 57.2127 77.608 56.9292C77.6758 56.7426 77.7061 56.5444 77.6971 56.3461C77.6971 56.1679 77.6971 56.0222 77.6485 55.9007C77.6453 55.8043 77.6625 55.7084 77.6987 55.6191C77.735 55.5298 77.7896 55.4491 77.8591 55.3823C77.9924 55.2557 78.1532 55.1614 78.3288 55.1069C78.4642 55.0712 78.6065 55.0712 78.7419 55.1069C78.9014 55.1125 79.0576 55.1549 79.1981 55.2307C79.3385 55.3066 79.4596 55.4139 79.5518 55.5442C79.686 55.7626 79.7665 56.0096 79.7867 56.2651C79.8047 56.4638 79.7741 56.6639 79.6976 56.8482C79.6274 57.0264 79.5707 57.1722 79.5275 57.2856L79.2845 57.8687L78.9768 58.5977C78.9267 58.6953 78.8886 58.7987 78.8634 58.9055C78.8595 58.9513 78.8595 58.9974 78.8634 59.0432C78.8634 59.0918 78.9444 59.0431 79.0578 58.9783C79.2059 58.8691 79.3466 58.7501 79.4789 58.622L79.9487 58.2171C80.2079 57.9984 80.4913 57.7796 80.7586 57.561C81.0407 57.3438 81.3355 57.1437 81.6414 56.9616C81.8659 56.8153 82.1081 56.6983 82.3623 56.6134C82.6211 56.662 82.8587 56.7892 83.0426 56.9778C83.2125 57.1235 83.3504 57.3027 83.4476 57.5043C83.5067 57.6942 83.5067 57.8976 83.4476 58.0874C83.399 58.2656 83.3585 58.4195 83.3261 58.5653L83.2451 58.8974C83.1965 59.0512 83.1317 59.27 83.0426 59.5453L83.5205 59.0998C83.6603 58.9815 83.8063 58.8707 83.9578 58.7677C84.4818 58.3329 85.0655 57.9757 85.6911 57.7068C85.889 57.6313 86.1072 57.6281 86.3072 57.6977C86.5072 57.7673 86.6763 57.9053 86.7845 58.0874C86.969 58.2612 87.0889 58.4925 87.1246 58.7434C87.18 59.1106 87.2043 59.4819 87.1975 59.8531C87.1975 60.0394 87.1975 60.2499 87.2542 60.4848C87.2725 60.6888 87.3022 60.8916 87.3433 61.0922C87.3562 61.2051 87.3891 61.3149 87.4405 61.4162C87.5035 61.4896 87.5844 61.5454 87.6754 61.5782C87.7815 61.6303 87.8928 61.671 88.0075 61.6997C88.1061 61.7626 88.1874 61.8495 88.2436 61.9521C88.2999 62.0547 88.3294 62.1698 88.3294 62.2869C88.3294 62.4039 88.2999 62.5191 88.2436 62.6217C88.1874 62.7244 88.1061 62.8112 88.0075 62.8741C87.7993 62.9999 87.5679 63.0825 87.3271 63.1171C87.0898 63.1011 86.8541 63.0659 86.6225 63.0118Z" fill="#A69D91"/>
<path d="M94.1469 63.1023C93.724 63.3477 93.2499 63.4919 92.7619 63.5235C92.302 63.568 91.8381 63.5013 91.4094 63.3291C91.0065 63.1763 90.6515 62.9192 90.3807 62.584C90.1949 62.306 90.0554 61.9996 89.9677 61.6769C89.8337 61.1253 89.8116 60.5524 89.9029 59.9922C90.0044 59.289 90.2148 58.6059 90.5265 57.9674C90.8379 57.3093 91.2445 56.7008 91.7333 56.1613C92.1543 55.6789 92.6928 55.3134 93.2965 55.1002C93.4987 55.0264 93.7076 54.9722 93.9201 54.9383C94.1892 54.906 94.4611 54.906 94.7301 54.9383C95.0377 54.9782 95.3378 55.0628 95.621 55.1894C95.8383 55.2795 96.0322 55.418 96.1879 55.5943C96.3895 55.78 96.5448 56.0102 96.6415 56.2665C96.7128 56.4691 96.7431 56.6839 96.7306 56.8983C96.6297 57.4345 96.4202 57.9444 96.115 58.3967C95.7767 58.9353 95.2782 59.3544 94.6896 59.5953C94.4104 59.707 94.115 59.7727 93.8149 59.7897C93.3548 59.8085 92.8944 59.7649 92.4461 59.6601C92.0978 59.5872 91.871 59.6601 91.7657 59.7654C91.6367 60.0145 91.5859 60.2968 91.6199 60.5753C91.6432 60.8136 91.7062 61.0464 91.8062 61.2638C91.8612 61.3656 91.9374 61.4543 92.0296 61.5242C92.1218 61.594 92.2279 61.6434 92.3408 61.6688C92.5754 61.7217 92.8189 61.7217 93.0535 61.6688C93.2382 61.6025 93.4193 61.5268 93.5962 61.442C93.7159 61.3703 93.8297 61.289 93.9363 61.199L94.2603 60.9399C94.3472 60.8683 94.4392 60.8034 94.5357 60.7455C94.5994 60.6921 94.674 60.6534 94.7544 60.6321C94.827 60.6241 94.9004 60.6241 94.973 60.6321C95.062 60.6433 95.1478 60.6719 95.2257 60.7164C95.3035 60.7609 95.3718 60.8203 95.4266 60.8912C95.5545 61.0188 95.6515 61.174 95.7101 61.3448C95.6849 61.5267 95.6091 61.6979 95.4914 61.8389C95.1222 62.3412 94.657 62.7652 94.1226 63.0862L94.1469 63.1023ZM93.8634 58.2427C94.0242 58.1623 94.1739 58.0616 94.3089 57.9431C94.4986 57.7855 94.6773 57.615 94.8435 57.4328C94.9673 57.3198 95.05 57.1689 95.0783 57.0036C95.0783 56.8416 94.973 56.7039 94.7625 56.5905C94.5094 56.4711 94.2214 56.448 93.9525 56.5257C93.7976 56.573 93.6561 56.6563 93.5395 56.7687C93.3685 56.9041 93.2086 57.0531 93.0616 57.2142C92.9122 57.3629 92.7741 57.5226 92.6486 57.692C92.553 57.8002 92.4714 57.9199 92.4056 58.0484C92.501 58.1401 92.6228 58.1997 92.7538 58.2185C92.9414 58.2687 93.1348 58.2932 93.3289 58.2914C93.508 58.297 93.6872 58.2834 93.8634 58.2508V58.2427Z" fill="#A69D91"/>
<path d="M106.197 63.5542C105.997 63.5103 105.814 63.409 105.671 63.2627C105.48 63.0932 105.309 62.903 105.161 62.6957C105.036 62.5371 104.937 62.3594 104.869 62.1693C104.869 62.1693 104.829 62.0801 104.756 61.991C104.683 61.9019 104.667 61.7562 104.659 61.416C104.655 61.0346 104.674 60.6532 104.715 60.274C104.746 59.9363 104.797 59.6009 104.869 59.2697C104.942 59.0429 105.047 58.7271 105.193 58.3302C105.339 57.9334 105.46 57.5688 105.566 57.253L106.149 55.9895L105.282 55.7465C105.18 55.7237 105.09 55.6629 105.031 55.5765C104.978 55.5148 104.944 55.4386 104.934 55.3578C104.958 55.1772 105.024 55.005 105.128 54.8556C105.258 54.6369 105.355 54.5316 105.412 54.5316C105.547 54.5442 105.682 54.5442 105.817 54.5316C106.011 54.5316 106.197 54.5316 106.392 54.5316H106.74L106.91 54.4101C106.975 54.3492 107.02 54.2702 107.04 54.1834C107.096 54.0548 107.161 53.9303 107.234 53.8108C107.299 53.7217 107.372 53.5921 107.477 53.422L107.728 52.9442C107.824 52.7552 107.929 52.5713 108.044 52.3934C108.131 52.2774 108.209 52.1556 108.279 52.029C108.368 51.8867 108.48 51.7606 108.611 51.6563C108.799 51.5193 109.02 51.4329 109.251 51.4053C109.387 51.3788 109.527 51.384 109.66 51.4205C109.794 51.4571 109.917 51.5239 110.02 51.6159C110.127 51.7295 110.195 51.8742 110.215 52.029C110.216 52.2107 110.156 52.3876 110.045 52.5311C109.936 52.7648 109.8 52.9849 109.64 53.1871C109.482 53.3967 109.341 53.6189 109.218 53.8513C108.984 54.1753 108.943 54.3534 109.089 54.402C109.496 54.4278 109.905 54.3978 110.304 54.3129C110.457 54.2664 110.618 54.2539 110.776 54.2762C110.934 54.2986 111.085 54.3554 111.219 54.4425C111.403 54.5946 111.519 54.8128 111.543 55.05C111.592 55.3983 111.543 55.6089 111.438 55.6818C111.113 55.7811 110.772 55.8169 110.433 55.787C110.14 55.8464 109.842 55.8789 109.542 55.8842H109H108.627C108.541 55.8726 108.454 55.8726 108.368 55.8842C108.272 55.9012 108.183 55.9496 108.117 56.0219C108.055 56.109 108.001 56.2012 107.955 56.2973C107.849 56.4363 107.762 56.5887 107.696 56.7508C107.567 57.0295 107.421 57.3 107.258 57.5607C107.059 58.1709 106.889 58.7541 106.748 59.3102C106.611 59.8691 106.489 60.4198 106.392 60.9301C106.329 61.125 106.329 61.3345 106.392 61.5294C106.457 61.6509 106.643 61.7319 106.943 61.7562C107.432 61.7847 107.923 61.741 108.4 61.6266L108.903 61.3998C109.066 61.3243 109.226 61.2406 109.38 61.1488L109.972 60.8005C110.037 60.6871 110.142 60.7033 110.28 60.8572C110.411 60.9972 110.513 61.1625 110.579 61.3431C110.571 61.5554 110.533 61.7654 110.466 61.9668C110.393 62.2017 110.126 62.4527 109.656 62.7119C109.065 63.0999 108.396 63.3543 107.696 63.457C107.204 63.5623 106.699 63.5951 106.197 63.5542Z" fill="#A69D91"/>
<path d="M114.419 63.3854C114.263 63.3939 114.108 63.3573 113.973 63.2801C113.86 63.2072 113.73 63.102 113.568 62.9724C113.301 62.6939 113.078 62.3772 112.904 62.0328C112.75 61.7715 112.685 61.4676 112.718 61.1662C112.768 61.0038 112.784 60.833 112.766 60.6641C112.693 60.5912 112.669 60.5507 112.702 60.5264C112.736 60.4913 112.763 60.4501 112.783 60.4049C112.872 60.4049 112.904 60.3238 112.872 60.1699C112.861 59.9118 112.908 59.6545 113.009 59.4168C113.137 59.0301 113.311 58.6603 113.528 58.3153C113.646 58.1163 113.776 57.9242 113.916 57.7402C114.087 57.5053 114.281 57.2624 114.492 57.0194C114.671 56.8157 114.863 56.6235 115.067 56.4443C115.386 56.1752 115.725 55.9289 116.079 55.7072C116.373 55.5299 116.693 55.3988 117.027 55.3185C117.351 55.2434 117.682 55.2054 118.015 55.2051C118.166 55.2056 118.316 55.2368 118.455 55.2966C118.594 55.3565 118.72 55.4438 118.825 55.5534C119.119 55.6656 119.368 55.8739 119.529 56.1446C119.683 56.4414 119.774 56.7668 119.797 57.1004C119.838 57.6438 119.794 58.1903 119.667 58.7202C119.461 59.5119 119.1 60.255 118.606 60.907C118.307 61.3594 117.948 61.7683 117.537 62.1219C117.176 62.4221 116.791 62.693 116.387 62.9318C116.092 63.1283 115.757 63.2556 115.407 63.3044L114.419 63.3854ZM116.638 60.7288C116.933 60.4844 117.166 60.1735 117.318 59.8217C117.456 59.4816 117.61 59.0927 117.764 58.6473C117.834 58.5116 117.876 58.3627 117.885 58.21C117.905 58.0107 117.905 57.8099 117.885 57.6106C117.885 57.4163 117.82 57.3028 117.739 57.2704C117.685 57.2247 117.62 57.1938 117.551 57.1811C117.481 57.1683 117.409 57.174 117.342 57.1976C117.164 57.2735 116.995 57.3714 116.84 57.4891C116.396 57.8651 115.992 58.2857 115.634 58.7445C115.235 59.2501 114.958 59.8402 114.824 60.4696C114.771 60.7456 114.814 61.0311 114.945 61.2795C115.015 61.3691 115.112 61.4329 115.222 61.4608C115.332 61.4886 115.449 61.479 115.553 61.4335C115.965 61.2873 116.337 61.0459 116.638 60.7288Z" fill="#A69D91"/>
<path d="M130.293 64.8676C129.733 64.7401 129.237 64.4188 128.891 63.9604C128.517 63.4719 128.227 62.9245 128.033 62.3406C128.018 62.0708 128.018 61.8004 128.033 61.5306C128.033 61.1986 128.033 60.8827 128.09 60.5911C128.095 60.4203 128.125 60.2513 128.179 60.089C128.219 60.089 128.243 59.9756 128.243 59.8298C128.219 59.7342 128.219 59.6339 128.243 59.5383C128.276 59.3958 128.317 59.2552 128.365 59.1171C128.427 58.982 128.463 58.8363 128.47 58.6878C128.48 58.6044 128.48 58.5202 128.47 58.4368C128.525 58.3053 128.599 58.1825 128.689 58.0722C128.735 58.0179 128.769 57.9544 128.788 57.886C128.808 57.8175 128.813 57.7458 128.802 57.6754C128.778 57.599 128.778 57.5169 128.802 57.4405C128.835 57.3543 128.879 57.2728 128.932 57.1975C129.01 57.098 129.075 56.9892 129.126 56.8736C129.146 56.7543 129.179 56.6375 129.223 56.5252C129.288 56.339 129.369 56.1284 129.458 55.9097C129.547 55.691 129.628 55.4724 129.701 55.2861C129.753 55.157 129.815 55.0323 129.888 54.9135C129.951 54.7536 130.033 54.6015 130.131 54.46C130.131 54.3871 130.179 54.2655 130.236 54.0955C130.292 53.9254 130.365 53.7715 130.43 53.6095C130.592 53.2613 130.795 52.8644 131.03 52.419C131.264 51.9735 131.532 51.5361 131.839 51.0988C132.147 50.6614 132.374 50.2888 132.649 49.9001C132.839 49.6059 133.062 49.3342 133.314 49.0902C133.52 48.843 133.773 48.6393 134.059 48.4908C134.175 48.4298 134.309 48.4109 134.437 48.4375C134.566 48.4641 134.681 48.5345 134.763 48.6365C134.887 48.7616 134.978 48.9144 135.031 49.082C135.1 49.2543 135.133 49.4391 135.128 49.6247C135.128 49.7867 135.055 49.8839 134.941 49.892C134.771 50.0259 134.63 50.1942 134.528 50.386C134.35 50.6533 134.164 50.9692 133.953 51.3337C133.743 51.6981 133.532 52.0626 133.33 52.4514C133.127 52.8401 132.941 53.1802 132.763 53.4799C132.585 53.7796 132.325 54.4276 132.001 55.0512C132.007 55.0861 132.007 55.1217 132.001 55.1565C131.985 55.1846 131.971 55.2145 131.961 55.2456C131.742 55.6911 131.556 56.1041 131.418 56.4767C131.281 56.8493 131.127 57.2299 130.981 57.6348C130.881 57.7698 130.819 57.9294 130.803 58.0966C130.803 58.0966 130.754 58.0966 130.738 58.1937C130.72 58.2853 130.693 58.3748 130.657 58.461C130.579 58.5326 130.53 58.6308 130.519 58.7364C130.519 58.8579 130.519 58.9794 130.519 59.0928C130.402 59.4013 130.307 59.718 130.236 60.0404C130.149 60.392 130.087 60.7492 130.05 61.1095C130.027 61.379 130.027 61.6499 130.05 61.9194C130.07 62.1384 130.142 62.3494 130.26 62.535C130.374 62.7098 130.534 62.85 130.722 62.9399L131.159 63.1262C131.27 63.1712 131.388 63.1958 131.507 63.199C131.655 63.2149 131.805 63.2149 131.953 63.199L132.706 63.0776C132.892 63.0776 133.095 63.0128 133.305 62.9561L133.905 62.8184L134.399 62.7212L134.771 62.624L135.581 62.4053C135.784 62.3486 135.913 62.3486 135.986 62.4053C136.087 62.4969 136.17 62.6068 136.229 62.7293C136.307 62.861 136.331 63.0181 136.294 63.1667C136.171 63.3355 136.023 63.4855 135.857 63.6121C135.571 63.851 135.274 64.0755 134.966 64.2844C134.684 64.4835 134.376 64.6416 134.051 64.7541C133.678 64.903 133.285 64.9931 132.884 65.0214C132.418 65.0655 131.949 65.0655 131.483 65.0214C131.081 65.0184 130.682 64.9667 130.293 64.8676Z" fill="#A69D91"/>
<path d="M138.886 63.1666C138.752 63.0231 138.664 62.8424 138.635 62.6482C138.58 62.4231 138.561 62.1908 138.578 61.9598C138.58 61.7836 138.619 61.6098 138.692 61.4495C138.688 61.3553 138.704 61.2612 138.74 61.1741C138.753 61.1462 138.76 61.1158 138.76 61.085C138.76 61.0542 138.753 61.0238 138.74 60.9959C138.729 60.8908 138.746 60.7848 138.789 60.6881C138.789 60.5424 138.87 60.4047 138.919 60.2751C138.967 60.1455 139.137 59.7405 139.267 59.368C139.396 58.9954 139.526 58.6228 139.656 58.2421C139.785 57.8615 139.899 57.5213 139.98 57.2378C140.061 56.9544 140.117 56.7843 140.133 56.7276C140.15 56.6709 140.247 56.4603 140.482 56.4441C140.597 56.4239 140.715 56.4333 140.826 56.4716C140.936 56.5099 141.035 56.5757 141.113 56.6628C141.344 56.8465 141.541 57.0685 141.697 57.3189C141.756 57.3769 141.799 57.4488 141.823 57.528C141.847 57.6073 141.851 57.6913 141.834 57.7724C141.77 58.052 141.675 58.3237 141.551 58.5823C141.464 58.7704 141.394 58.9654 141.34 59.1655C141.273 59.3835 141.219 59.6053 141.178 59.8297C141.1 59.9871 141.033 60.1494 140.976 60.3156C140.895 60.5262 140.822 60.7287 140.765 60.9149C140.722 61.0438 140.692 61.1768 140.676 61.3118C140.676 61.5143 140.611 61.7087 140.571 61.9111C140.537 62.0788 140.477 62.2401 140.393 62.389C140.263 62.9883 140.036 63.3366 139.712 63.4338C139.564 63.4788 139.405 63.4772 139.257 63.4295C139.11 63.3817 138.98 63.29 138.886 63.1666ZM141.235 54.4436C141.08 54.336 140.955 54.1911 140.87 54.0224C140.803 53.8821 140.759 53.7317 140.741 53.577C140.717 53.4978 140.717 53.4133 140.741 53.334C140.907 53.1495 141.036 52.9351 141.122 52.7023C141.225 52.4559 141.347 52.2176 141.486 51.9895C141.486 51.9409 141.551 51.8842 141.599 51.8032C141.648 51.7223 141.705 51.6736 141.769 51.6655C141.881 51.6031 142.006 51.5703 142.134 51.5703C142.262 51.5703 142.387 51.6031 142.498 51.6655C142.775 51.7729 143.013 51.9623 143.179 52.2082C143.299 52.4602 143.341 52.7421 143.3 53.0181C143.224 53.3581 143.062 53.673 142.83 53.9334C142.637 54.2095 142.349 54.4054 142.021 54.4842C141.894 54.5346 141.759 54.557 141.623 54.55C141.488 54.543 141.355 54.5068 141.235 54.4436Z" fill="#A69D91"/>
<path d="M146.103 62.3816C145.919 62.1401 145.784 61.8649 145.706 61.5717C145.517 61.0733 145.354 60.565 145.22 60.0491C145.074 59.4659 144.953 58.9313 144.864 58.4292C144.816 58.1801 144.754 57.934 144.677 57.6921C144.612 57.4896 144.564 57.3196 144.515 57.19C144.446 56.9189 144.475 56.6321 144.596 56.38C144.677 56.1401 144.833 55.9327 145.042 55.7888C145.168 55.7339 145.302 55.7011 145.439 55.6916C145.565 55.6757 145.693 55.6757 145.819 55.6916C145.997 55.7483 146.159 56.0156 146.297 56.5016C146.472 57.1127 146.605 57.735 146.694 58.3643C146.751 58.8098 146.799 59.1742 146.832 59.3524C146.86 59.4831 146.879 59.6159 146.888 59.7494C146.95 59.8856 146.991 60.0302 147.01 60.1786C147.01 60.3406 147.099 60.373 147.212 60.2515C147.326 60.13 147.366 60.0977 147.488 59.9519C147.609 59.8061 147.755 59.6116 147.933 59.3849C148.233 58.9799 148.476 58.6397 148.662 58.3724C148.848 58.1052 149.051 57.8217 149.278 57.5625C149.404 57.3915 149.542 57.2291 149.691 57.0766C149.869 56.9065 150.039 56.7445 150.217 56.5906C150.336 56.468 150.484 56.3762 150.646 56.3233C150.713 56.2999 150.785 56.2913 150.855 56.2979C150.926 56.3045 150.994 56.3261 151.056 56.3615C151.117 56.3968 151.17 56.4449 151.211 56.5026C151.253 56.5604 151.281 56.6263 151.294 56.6959C151.323 56.8877 151.31 57.0833 151.255 57.2693C151.2 57.4553 151.106 57.6272 150.979 57.7731C150.87 57.9282 150.778 58.0937 150.703 58.2671C150.66 58.3827 150.597 58.4897 150.517 58.583C150.358 58.8901 150.176 59.1851 149.974 59.4658C149.731 59.8141 149.488 60.1462 149.261 60.4378C149.035 60.7294 148.865 60.9318 148.784 61.0209L148.403 61.3449C148.191 61.5219 148.003 61.7261 147.844 61.9524C147.572 62.2395 147.228 62.4491 146.848 62.5598C146.719 62.6004 146.582 62.6052 146.451 62.5739C146.319 62.5425 146.199 62.476 146.103 62.3816Z" fill="#A69D91"/>
<path d="M156.867 63.1018C156.447 63.3483 155.975 63.4926 155.49 63.523C155.027 63.567 154.561 63.5003 154.129 63.3286C153.727 63.1793 153.373 62.9214 153.108 62.5836C152.923 62.3055 152.783 61.9992 152.695 61.6765C152.557 61.1255 152.535 60.5517 152.631 59.9917C152.729 59.2889 152.937 58.6057 153.246 57.9669C153.56 57.3105 153.967 56.7023 154.453 56.1608C154.877 55.6781 155.418 55.3127 156.024 55.0997C156.224 55.0259 156.43 54.9717 156.64 54.9378C156.909 54.9062 157.181 54.9062 157.45 54.9378C157.757 54.9777 158.057 55.0624 158.341 55.1889C158.557 55.2812 158.75 55.4194 158.908 55.5939C159.106 55.7818 159.261 56.0113 159.361 56.2661C159.429 56.4695 159.459 56.6836 159.45 56.8979C159.346 57.4343 159.133 57.944 158.827 58.3962C158.488 58.9348 157.99 59.354 157.401 59.5949C157.125 59.7074 156.832 59.7731 156.534 59.7893C156.074 59.8083 155.614 59.7647 155.166 59.6596C154.817 59.5868 154.591 59.6597 154.477 59.7649C154.355 60.0163 154.307 60.2973 154.34 60.5749C154.36 60.8127 154.421 61.0454 154.518 61.2634C154.573 61.3651 154.649 61.4539 154.741 61.5237C154.833 61.5936 154.939 61.6429 155.052 61.6684C155.29 61.7225 155.536 61.7225 155.773 61.6684C155.919 61.6198 156.097 61.5387 156.316 61.4416L156.656 61.1985L156.98 60.9394C157.063 60.8664 157.152 60.8014 157.247 60.745C157.311 60.6917 157.386 60.6529 157.466 60.6316C157.539 60.6236 157.612 60.6236 157.685 60.6316C157.775 60.6418 157.862 60.67 157.942 60.7145C158.021 60.759 158.091 60.8189 158.146 60.8908C158.269 61.0207 158.363 61.1754 158.422 61.3444C158.4 61.5258 158.327 61.6972 158.211 61.8384C158.04 62.0744 157.845 62.2917 157.628 62.4864C157.399 62.7208 157.144 62.9273 156.867 63.1018ZM156.591 58.2423C156.75 58.158 156.899 58.0576 157.037 57.9426C157.226 57.7871 157.402 57.6165 157.563 57.4323C157.687 57.318 157.772 57.168 157.806 57.0032C157.806 56.8412 157.701 56.7035 157.49 56.5901C157.237 56.4728 156.949 56.4498 156.68 56.5252C156.527 56.5761 156.386 56.6589 156.267 56.7682C156.1 56.9078 155.94 57.0565 155.789 57.2137C155.64 57.3625 155.502 57.5222 155.376 57.6916C155.286 57.8016 155.207 57.9211 155.141 58.0479C155.236 58.1411 155.358 58.2009 155.49 58.218C155.677 58.2687 155.871 58.2932 156.065 58.2909C156.241 58.296 156.418 58.2823 156.591 58.2504V58.2423Z" fill="#A69D91"/>
<path d="M168.659 64.535C168.244 64.2135 167.93 63.781 167.752 63.2878C167.552 62.808 167.453 62.2926 167.46 61.7732C167.449 60.8422 167.525 59.9121 167.687 58.9951C167.842 58.0864 168.064 57.1903 168.351 56.3142C168.545 55.7959 168.748 55.2613 168.958 54.6944C169.169 54.1274 169.404 53.6496 169.639 53.1637C169.833 52.7378 170.058 52.3263 170.311 51.9326C170.686 51.2564 171.152 50.635 171.696 50.0859C172.02 49.745 172.378 49.4383 172.765 49.1707C173.229 48.9529 173.719 48.7951 174.223 48.701C174.757 48.5919 175.308 48.5919 175.843 48.701C176.232 48.8037 176.61 48.9475 176.969 49.1301C177.322 49.3136 177.647 49.5484 177.932 49.8268C178.082 49.9585 178.208 50.1146 178.305 50.2884C178.391 50.4387 178.436 50.6092 178.435 50.7824C178.428 50.903 178.398 51.0211 178.345 51.1297C178.292 51.2382 178.218 51.335 178.127 51.4142C177.942 51.6074 177.71 51.7497 177.455 51.8273C177.359 51.8697 177.252 51.88 177.15 51.8566C177.047 51.8333 176.955 51.7775 176.888 51.6977C176.739 51.4516 176.556 51.228 176.345 51.0336C176.184 50.8935 176 50.7812 175.802 50.7015C175.609 50.5889 175.386 50.5354 175.162 50.5475C174.871 50.5522 174.582 50.5986 174.304 50.6852C173.982 50.7891 173.684 50.9572 173.429 51.1793L173.032 51.5438C172.845 51.7275 172.669 51.9222 172.506 52.1269C172.322 52.3544 172.159 52.5985 172.02 52.8559C171.622 53.5054 171.275 54.1851 170.983 54.8888C170.683 55.6212 170.434 56.3734 170.238 57.1404C170.133 57.4724 170.027 57.8774 169.906 58.3634C169.785 58.8493 169.687 59.3353 169.59 59.8132C169.507 60.2306 169.447 60.6524 169.412 61.0766C169.36 61.473 169.373 61.8753 169.452 62.2673C169.476 62.3935 169.53 62.5121 169.609 62.6135C169.688 62.7149 169.79 62.7961 169.906 62.8504C170.225 62.948 170.567 62.948 170.886 62.8504C171.285 62.7553 171.67 62.6054 172.028 62.4049C172.432 62.1814 172.808 61.9095 173.146 61.595C173.522 61.251 173.852 60.8589 174.126 60.4287C174.393 59.9347 174.604 59.4892 174.774 59.0842C174.912 58.7764 175 58.4482 175.033 58.1123C175.033 57.8774 174.911 57.764 174.652 57.7721C174.176 57.7972 173.699 57.7755 173.227 57.7074C173.08 57.6966 172.939 57.6522 172.812 57.5777C172.686 57.5033 172.578 57.4008 172.498 57.2781C172.311 57.2295 172.214 57.0756 172.206 56.8002C172.203 56.6613 172.239 56.5242 172.309 56.4041C172.379 56.284 172.481 56.1856 172.603 56.1198C172.926 55.9712 173.276 55.8913 173.632 55.885C174.076 55.845 174.523 55.845 174.968 55.885C175.351 55.9123 175.723 56.02 176.061 56.2009C176.367 56.3397 176.605 56.5927 176.726 56.9055C176.848 57.2211 176.913 57.5554 176.92 57.8936C176.93 58.2219 176.905 58.5504 176.847 58.8736C176.717 59.3839 176.538 59.8803 176.313 60.3558C176.063 60.8709 175.762 61.3593 175.413 61.8137C175.151 62.1624 174.852 62.4827 174.523 62.7694C174.148 63.0971 173.75 63.3976 173.332 63.6684C172.964 63.9129 172.577 64.127 172.174 64.3083C171.593 64.5735 170.98 64.764 170.351 64.8752C170.061 64.9429 169.76 64.9476 169.468 64.889C169.176 64.8303 168.9 64.7095 168.659 64.535Z" fill="#A69D91"/>
<path d="M179.617 62.9469C179.467 62.829 179.326 62.699 179.196 62.5581C179.117 62.4675 179.061 62.359 179.032 62.2419C179.004 62.1249 179.005 62.0026 179.034 61.8858C179.067 61.5234 179.124 61.1636 179.204 60.8086C179.277 60.4928 179.366 60.1364 179.472 59.7315C179.526 59.4294 179.601 59.1317 179.698 58.8406C179.82 58.4194 179.966 57.9577 180.144 57.4717C180.322 56.9858 180.5 56.5079 180.686 56.0625C180.825 55.7192 180.993 55.3886 181.189 55.0744C181.387 54.914 181.639 54.8357 181.893 54.8557C182.122 54.8286 182.351 54.8926 182.533 55.0338C182.618 55.1223 182.678 55.2325 182.705 55.3525C182.732 55.4725 182.726 55.5975 182.687 55.7142C182.553 56.244 182.349 56.7535 182.079 57.2287C181.999 57.4178 181.907 57.6018 181.804 57.7795C181.716 57.9352 181.64 58.0977 181.577 58.2654C181.577 58.3869 181.577 58.4356 181.577 58.4275C181.707 58.218 181.869 58.0296 182.055 57.8686C182.29 57.658 182.541 57.4555 182.8 57.253C183.06 57.0506 183.302 56.8643 183.537 56.7023C183.691 56.5941 183.851 56.4941 184.015 56.4027C184.141 56.3231 184.278 56.2604 184.42 56.2163C184.529 56.1856 184.635 56.145 184.736 56.0949C185.077 55.9366 185.456 55.8749 185.829 55.9166C186.234 55.9166 186.477 56.0787 186.558 56.2974C186.578 56.3692 186.611 56.4364 186.657 56.4948C186.703 56.5533 186.76 56.6018 186.826 56.6375C186.882 56.6375 186.915 56.6861 186.931 56.7752C186.947 56.8643 186.834 57.0182 186.639 57.2045C186.471 57.3822 186.243 57.4917 186 57.5123C185.828 57.5228 185.659 57.5583 185.497 57.6176L184.971 57.8362C184.42 58.1601 183.926 58.4355 183.481 58.6461C182.97 58.9504 182.511 59.3331 182.12 59.78C182.02 59.8959 181.912 60.0043 181.796 60.104C181.659 60.2319 181.542 60.3793 181.448 60.5414C181.338 60.6814 181.264 60.845 181.229 61.0192C181.156 61.2622 181.099 61.4971 181.051 61.7239C181.012 61.8563 180.985 61.9918 180.97 62.1288C180.911 62.3463 180.816 62.5518 180.686 62.7363C180.56 62.9266 180.384 63.078 180.176 63.1737C180.055 63.2709 179.852 63.1817 179.617 62.9469Z" fill="#A69D91"/>
<path d="M192.326 63.1018C191.903 63.3473 191.429 63.4915 190.941 63.523C190.478 63.567 190.012 63.5003 189.58 63.3286C189.178 63.1793 188.824 62.9214 188.56 62.5836C188.374 62.3055 188.234 61.9992 188.147 61.6765C188.008 61.1255 187.986 60.5517 188.082 59.9917C188.18 59.2889 188.388 58.6057 188.697 57.9669C189.012 57.3105 189.418 56.7023 189.904 56.1608C190.33 55.6797 190.87 55.3146 191.475 55.0997C191.675 55.0259 191.881 54.9717 192.091 54.9378C192.36 54.9062 192.632 54.9062 192.901 54.9378C193.208 54.9777 193.509 55.0624 193.792 55.1889C194.008 55.2812 194.201 55.4194 194.359 55.5939C194.558 55.7818 194.713 56.0113 194.812 56.2661C194.884 56.4687 194.914 56.6835 194.901 56.8979C194.797 57.4343 194.585 57.944 194.278 58.3962C193.942 58.9367 193.442 59.3564 192.852 59.5949C192.576 59.7074 192.283 59.7731 191.986 59.7893C191.526 59.8083 191.065 59.7647 190.617 59.6596C190.269 59.5868 190.042 59.6597 189.928 59.7649C189.806 60.0163 189.759 60.2973 189.791 60.5749C189.81 60.8138 189.873 61.0473 189.977 61.2634C190.031 61.3643 190.106 61.4525 190.197 61.5223C190.288 61.5921 190.392 61.6419 190.503 61.6684C190.741 61.7225 190.987 61.7225 191.224 61.6684C191.37 61.6198 191.548 61.5387 191.767 61.4416L192.107 61.1985L192.431 60.9394C192.517 60.866 192.609 60.801 192.706 60.745C192.767 60.692 192.839 60.6533 192.917 60.6316C192.99 60.6236 193.063 60.6236 193.136 60.6316C193.226 60.6418 193.314 60.67 193.393 60.7145C193.472 60.759 193.542 60.8189 193.597 60.8908C193.722 61.0206 193.819 61.1751 193.881 61.3444C193.856 61.5263 193.78 61.6975 193.662 61.8384C193.492 62.0725 193.299 62.2895 193.087 62.4864C192.855 62.7173 192.6 62.9235 192.326 63.1018ZM192.042 58.2423C192.202 58.1599 192.351 58.0594 192.488 57.9426C192.677 57.7871 192.853 57.6165 193.014 57.4323C193.138 57.318 193.223 57.168 193.257 57.0032C193.257 56.8412 193.152 56.7035 192.941 56.5901C192.688 56.4728 192.401 56.4498 192.131 56.5252C191.978 56.5761 191.837 56.6589 191.718 56.7682C191.551 56.9078 191.391 57.0565 191.241 57.2137C191.087 57.3757 190.949 57.5377 190.827 57.6916C190.737 57.8016 190.658 57.9211 190.593 58.0479C190.687 58.1411 190.809 58.2009 190.941 58.218C191.128 58.2687 191.322 58.2932 191.516 58.2909C191.692 58.296 191.869 58.2823 192.042 58.2504V58.2423Z" fill="#A69D91"/>
<path d="M200.675 63.1023C200.252 63.3477 199.778 63.4919 199.29 63.5235C198.828 63.5674 198.362 63.5008 197.93 63.3291C197.527 63.1797 197.174 62.9219 196.909 62.584C196.723 62.306 196.584 61.9996 196.496 61.6769C196.358 61.126 196.336 60.5522 196.431 59.9922C196.529 59.2881 196.74 58.6044 197.055 57.9674C197.366 57.3093 197.773 56.7008 198.262 56.1613C198.683 55.6789 199.221 55.3134 199.825 55.1002C200.027 55.0264 200.236 54.9722 200.449 54.9383C200.718 54.906 200.99 54.906 201.259 54.9383C201.566 54.9782 201.866 55.0628 202.15 55.1894C202.367 55.2795 202.561 55.418 202.716 55.5943C202.915 55.7822 203.07 56.0118 203.17 56.2665C203.241 56.4691 203.272 56.6839 203.259 56.8983C203.154 57.4347 202.942 57.9444 202.635 58.3967C202.3 58.9347 201.804 59.354 201.218 59.5953C200.939 59.707 200.644 59.7727 200.343 59.7897C199.883 59.8085 199.423 59.7649 198.975 59.6601C198.626 59.5872 198.4 59.6601 198.286 59.7654C198.164 60.0167 198.116 60.2977 198.148 60.5753C198.172 60.8136 198.235 61.0464 198.335 61.2638C198.39 61.3656 198.466 61.4543 198.558 61.5242C198.65 61.594 198.756 61.6434 198.869 61.6688C199.104 61.7217 199.347 61.7217 199.582 61.6688C199.728 61.6202 199.906 61.5392 200.125 61.442C200.244 61.3703 200.358 61.289 200.465 61.199L200.789 60.9399C200.876 60.8683 200.968 60.8034 201.064 60.7455C201.128 60.6921 201.203 60.6534 201.283 60.6321C201.353 60.6243 201.424 60.6243 201.493 60.6321C201.584 60.6422 201.671 60.6704 201.751 60.7149C201.83 60.7594 201.899 60.8193 201.955 60.8912C202.08 61.021 202.177 61.1756 202.239 61.3448C202.213 61.5267 202.138 61.6979 202.02 61.8389C201.651 62.3412 201.185 62.7652 200.651 63.0862L200.675 63.1023ZM200.392 58.2427C200.552 58.1604 200.701 58.0598 200.837 57.9431C201.027 57.7855 201.206 57.615 201.372 57.4328C201.493 57.3173 201.575 57.1675 201.607 57.0036C201.607 56.8416 201.502 56.7039 201.291 56.5905C201.038 56.4711 200.75 56.448 200.481 56.5257C200.326 56.573 200.185 56.6563 200.068 56.7687C199.896 56.906 199.734 57.0549 199.582 57.2142C199.428 57.3762 199.29 57.5381 199.169 57.692C199.078 57.8021 198.999 57.9215 198.934 58.0484C199.028 58.1416 199.151 58.2014 199.282 58.2185C199.47 58.2692 199.663 58.2937 199.857 58.2914C200.037 58.297 200.216 58.2834 200.392 58.2508V58.2427Z" fill="#A69D91"/>
<path d="M212.291 63.0134C212.01 63.0006 211.735 62.9317 211.481 62.8109C211.237 62.6575 211.056 62.422 210.971 62.1468C210.907 61.9093 210.88 61.6635 210.89 61.4178C210.896 61.1713 210.915 60.9253 210.947 60.6808C210.974 60.474 210.988 60.2658 210.987 60.0572V59.6441C210.989 59.5692 210.975 59.4947 210.947 59.4251C210.92 59.3556 210.878 59.2924 210.825 59.2392C210.763 59.2102 210.695 59.1952 210.627 59.1952C210.558 59.1952 210.491 59.2102 210.428 59.2392C210.082 59.4076 209.749 59.6025 209.432 59.8223C209.076 60.0572 208.711 60.3325 208.323 60.6322C207.934 60.9319 207.513 61.272 207.14 61.6203C206.89 61.8768 206.655 62.1472 206.435 62.4302C206.388 62.5173 206.321 62.5921 206.239 62.6483C206.158 62.7046 206.064 62.7409 205.966 62.7542C205.905 62.7816 205.838 62.7916 205.773 62.783C205.707 62.7744 205.645 62.7476 205.593 62.7056C205.464 62.6246 205.326 62.5193 205.18 62.4059C205.034 62.2925 204.961 62.1387 204.824 61.9605C204.686 61.7823 204.605 61.6608 204.573 61.6041C204.569 61.3921 204.588 61.1803 204.629 60.9723C204.665 60.7697 204.721 60.5714 204.799 60.3811C204.88 60.1786 204.978 59.9437 205.099 59.6846C205.156 59.5874 205.204 59.4821 205.261 59.3687C205.318 59.2553 205.375 59.1419 205.447 59.0124C205.515 58.7759 205.597 58.5433 205.69 58.3158L206.006 57.5788C206.168 57.1981 206.29 56.8742 206.379 56.5988C206.472 56.307 206.545 56.0093 206.597 55.7078C206.597 55.7078 206.597 55.635 206.597 55.5783C206.607 55.5495 206.624 55.5238 206.647 55.5039C206.67 55.484 206.697 55.4705 206.727 55.4649C206.912 55.3945 207.117 55.3945 207.302 55.4649C207.533 55.4951 207.752 55.5813 207.942 55.7159C208.091 55.8386 208.209 55.9953 208.285 56.1729C208.361 56.3504 208.393 56.5437 208.379 56.7364C208.293 57.3196 208.071 57.8743 207.731 58.3563C207.626 58.5911 207.521 58.8018 207.416 59.0042C207.332 59.1231 207.274 59.2583 207.245 59.4011L207.837 58.9556L208.25 58.664C208.323 58.5911 208.485 58.4535 208.728 58.2591L209.538 57.6435C209.829 57.4248 210.064 57.2548 210.234 57.1414C210.429 57.0064 210.635 56.8872 210.85 56.7851C210.989 56.6978 211.143 56.6348 211.303 56.5988C211.491 56.6089 211.673 56.6615 211.838 56.7526C212.045 56.8491 212.241 56.9687 212.421 57.109C212.566 57.1963 212.678 57.3305 212.737 57.4897C212.737 57.5464 212.737 57.6274 212.737 57.7165C212.73 57.8 212.73 57.884 212.737 57.9675C212.737 58.2024 212.737 58.4778 212.737 58.7774C212.737 59.0771 212.737 59.4335 212.737 59.7574C212.739 60.0541 212.709 60.3501 212.648 60.6403C212.676 60.68 212.697 60.7236 212.712 60.7698C212.712 60.7698 212.712 60.8266 212.712 60.8995L212.81 61.2072L212.955 61.5393C213.012 61.6689 213.077 61.8228 213.15 62.0091C213.116 62.2276 213.004 62.4264 212.834 62.568C212.698 62.7638 212.51 62.918 212.291 63.0134Z" fill="#A69D91"/>
<path d="M220.097 63.1023C219.674 63.3477 219.2 63.4919 218.712 63.5235C218.25 63.5674 217.783 63.5008 217.352 63.3291C216.95 63.1775 216.598 62.9201 216.331 62.584C216.145 62.306 216.006 61.9996 215.918 61.6769C215.78 61.126 215.758 60.5522 215.853 59.9922C215.951 59.2881 216.162 58.6044 216.477 57.9674C216.788 57.3093 217.195 56.7008 217.684 56.1613C218.105 55.6789 218.643 55.3134 219.247 55.1002C219.449 55.0264 219.658 54.9722 219.871 54.9383C220.14 54.906 220.411 54.906 220.68 54.9383C220.988 54.9782 221.288 55.0628 221.571 55.1894C221.789 55.2795 221.983 55.418 222.138 55.5943C222.34 55.78 222.495 56.0102 222.592 56.2665C222.663 56.4691 222.693 56.6839 222.681 56.8983C222.58 57.4345 222.371 57.9444 222.065 58.3967C221.725 58.9335 221.227 59.3521 220.64 59.5953C220.361 59.707 220.065 59.7727 219.765 59.7897C219.305 59.8085 218.845 59.7649 218.396 59.6601C218.048 59.5872 217.821 59.6601 217.708 59.7654C217.586 60.0167 217.538 60.2977 217.57 60.5753C217.594 60.8136 217.657 61.0464 217.757 61.2638C217.812 61.3656 217.888 61.4543 217.98 61.5242C218.072 61.594 218.178 61.6434 218.291 61.6688C218.526 61.7217 218.769 61.7217 219.004 61.6688C219.15 61.6202 219.328 61.5392 219.547 61.442C219.666 61.3703 219.78 61.289 219.887 61.199L220.211 60.9399C220.298 60.8683 220.39 60.8034 220.486 60.7455C220.55 60.6921 220.624 60.6534 220.705 60.6321C220.777 60.6241 220.851 60.6241 220.923 60.6321C221.012 60.6433 221.098 60.6719 221.176 60.7164C221.254 60.7609 221.322 60.8203 221.377 60.8912C221.502 61.021 221.599 61.1756 221.66 61.3448C221.635 61.5267 221.56 61.6979 221.442 61.8389C221.073 62.3412 220.607 62.7652 220.073 63.0862L220.097 63.1023ZM219.814 58.2427C219.973 58.1604 220.123 58.0598 220.259 57.9431C220.449 57.7855 220.628 57.615 220.794 57.4328C220.915 57.3173 220.997 57.1675 221.029 57.0036C221.029 56.8416 220.923 56.7039 220.713 56.5905C220.46 56.4711 220.172 56.448 219.903 56.5257C219.748 56.573 219.606 56.6563 219.49 56.7687C219.319 56.9041 219.159 57.0531 219.012 57.2142C218.862 57.3651 218.722 57.5246 218.591 57.692C218.5 57.8021 218.421 57.9215 218.356 58.0484C218.45 58.1416 218.573 58.2014 218.704 58.2185C218.892 58.2692 219.085 58.2937 219.279 58.2914C219.458 58.297 219.638 58.2834 219.814 58.2508V58.2427Z" fill="#A69D91"/>
<path d="M224.667 62.9467C224.513 62.8292 224.37 62.6991 224.237 62.5579C224.162 62.4648 224.109 62.3562 224.081 62.24C224.053 62.1238 224.051 62.0027 224.075 61.8856C224.115 61.5236 224.175 61.164 224.254 60.8085C224.327 60.4926 224.408 60.1363 224.513 59.7313C224.513 59.5531 224.618 59.2616 224.74 58.8404C224.861 58.4192 225.015 57.9575 225.185 57.4716C225.355 56.9856 225.541 56.5078 225.728 56.0623C225.869 55.7205 226.037 55.3902 226.23 55.0742C226.429 54.916 226.681 54.838 226.935 54.8555C227.165 54.8289 227.398 54.8928 227.582 55.0337C227.666 55.123 227.725 55.2336 227.75 55.3535C227.776 55.4734 227.768 55.5981 227.728 55.714C227.595 56.2439 227.39 56.7533 227.121 57.2286C227.048 57.3986 226.959 57.585 226.854 57.7793C226.763 57.9352 226.685 58.0976 226.619 58.2653C226.578 58.3868 226.619 58.4354 226.667 58.4273C226.795 58.2161 226.956 58.0273 227.145 57.8684C227.372 57.6578 227.623 57.4554 227.882 57.2529C228.141 57.0504 228.392 56.8642 228.619 56.7022C228.775 56.5933 228.938 56.4933 229.105 56.4025C229.228 56.3227 229.362 56.26 229.502 56.2161C229.611 56.1854 229.717 56.1448 229.818 56.0947C230.162 55.9366 230.543 55.8749 230.919 55.9165C231.316 55.9165 231.559 56.0785 231.648 56.2972C231.666 56.3687 231.698 56.4358 231.742 56.4944C231.787 56.5529 231.843 56.6015 231.907 56.6373C231.964 56.6373 232.005 56.686 232.013 56.775C232.021 56.8641 231.916 57.018 231.721 57.2043C231.554 57.3839 231.326 57.4939 231.081 57.5121C230.91 57.5236 230.741 57.559 230.579 57.6174L230.061 57.836C229.51 58.16 229.008 58.4353 228.571 58.6459C228.057 58.946 227.598 59.3292 227.21 59.7798L226.886 60.1038C226.744 60.2274 226.626 60.3756 226.538 60.5412C226.428 60.6812 226.353 60.8449 226.319 61.0191C226.246 61.262 226.181 61.4969 226.133 61.7237C226.099 61.8569 226.075 61.9922 226.06 62.1287C225.998 62.3448 225.902 62.5498 225.776 62.7361C225.646 62.923 225.471 63.0736 225.266 63.1735C225.096 63.2707 224.894 63.1816 224.667 62.9467Z" fill="#A69D91"/>
<path d="M234.531 62.4059C234.287 62.4965 234.03 62.5458 233.77 62.5518C233.524 62.5246 233.291 62.4293 233.097 62.2764C232.964 62.177 232.865 62.0389 232.812 61.8809C232.76 61.723 232.758 61.5528 232.806 61.3935C232.958 61.0243 233.228 60.7164 233.575 60.5188C233.744 60.3627 233.959 60.2669 234.188 60.2463C234.416 60.2258 234.645 60.2817 234.839 60.4054C235.333 60.7132 235.543 61.0453 235.487 61.4178C235.43 61.7904 235.098 62.1143 234.531 62.4059Z" fill="#A69D91"/>
<path d="M113.584 312.722C111.707 310.49 109.138 308.95 106.285 308.347C103.432 307.744 100.459 308.112 97.8393 309.393C97.8393 309.393 91.1492 313.629 86.6217 308.065C86.6217 308.065 81.6083 318.893 92.437 324.701C92.437 324.701 107.907 331.99 115.747 316.99C115.747 316.958 115.917 314.868 113.584 312.722Z" fill="#F2D9AB"/>
<path d="M102.221 315.338C99.8884 313.435 100.431 310.179 100.998 308.341C99.912 308.572 98.8533 308.917 97.8393 309.369C97.8393 309.369 91.1492 313.605 86.6217 308.041C86.6217 308.041 81.6083 318.87 92.437 324.677C95.7584 326.081 99.3764 326.637 102.966 326.297C107.178 322.417 105.42 317.971 102.221 315.338Z" fill="#E9AF4E"/>
<path d="M222.382 243.002C222.382 243.002 231.291 280.13 229.485 305.246C228.999 312.081 225.5 317.241 221.588 320.942C216.66 325.524 210.437 328.471 203.77 329.381C189.928 331.358 155.069 335.051 127.086 327.13C115.86 323.955 109.551 310.931 109.551 310.931C100.585 283.645 110.693 244.89 110.693 244.89C110.693 244.89 152.007 220.268 222.382 243.002Z" fill="#F6E5C6"/>
<path d="M191.605 323.956C191.605 323.956 202.506 341.021 203.753 347.768C203.753 347.768 199.858 351.396 202.02 354.749C202.587 355.632 203.924 355.559 204.952 355.559H213.213C214.631 355.559 216.453 355.316 216.777 353.624C217.312 350.894 215.424 348.44 215.424 348.44C217.992 343.281 221.863 335.011 226.836 316.237C230.748 301.472 216.599 288.319 203.348 294.572L202.32 295.074C180.176 306.299 191.605 323.956 191.605 323.956Z" fill="#F6E5C6"/>
<path d="M146.679 323.956C146.679 323.956 135.777 341.021 134.53 347.768C134.53 347.768 138.426 351.396 136.271 354.749C135.696 355.632 134.368 355.559 133.331 355.559H125.07C123.653 355.559 121.83 355.316 121.506 353.624C120.98 350.894 122.859 348.44 122.859 348.44C120.291 343.281 116.428 335.011 111.455 316.237C107.535 301.472 121.693 288.319 134.943 294.572L135.964 295.074C158.115 306.299 146.679 323.956 146.679 323.956Z" fill="#F6E5C6"/>
<path d="M105.51 241.675C100.294 243.295 92.0164 244.866 77.9237 240.055C77.9237 240.055 78.8065 234.135 73.0236 232.823C72.0007 232.57 70.9369 232.53 69.8978 232.704C68.8587 232.878 67.8662 233.263 66.9815 233.835C64.4869 235.544 62.2434 239.294 66.941 247.353C74.6839 260.628 85.7719 271.999 110.483 275.239C129.006 277.668 134.262 258.319 124.827 246.972C120.17 241.392 112.459 239.505 105.51 241.675Z" fill="#F6E5C6"/>
<path d="M313.418 116.241C313.418 114.467 312.365 113.244 310.923 112.377C310.17 111.924 309.36 111.567 308.582 111.203C308.016 110.928 306.687 110.393 306.46 109.729C306.453 109.221 306.538 108.716 306.712 108.239C306.841 107.688 307.011 107.137 307.165 106.619C307.521 105.555 307.739 104.45 307.813 103.331C307.826 102.449 307.625 101.577 307.228 100.79C306.83 100.002 306.247 99.3235 305.529 98.8112C301.431 95.7415 296.231 97.499 292.06 99.37C290.44 100.107 292.465 101.103 293.477 100.642C296.425 99.3214 300.143 97.5153 303.196 99.6211C306.525 101.954 304.436 105.744 303.901 108.87C303.763 109.68 303.699 110.101 304.249 110.685C304.746 111.184 305.314 111.607 305.934 111.94C307.092 112.612 308.445 113.009 309.506 113.835C310.947 114.945 310.834 116.605 310.413 118.209C310 119.873 309.289 121.448 308.315 122.858C306.169 125.855 301.941 127.604 299.058 124.478C298.531 123.911 296.928 123.992 296.555 124.721C294.303 129.111 289.606 132.318 284.584 132.205C279.563 132.091 274.865 128.511 272.784 123.919C272.435 123.109 271.05 123.384 270.483 123.652C268.054 124.753 265.122 125.668 262.603 124.34C260.084 123.012 259.298 120.404 260.173 117.78C261.485 113.787 265.478 108.368 270.281 109.275C270.791 109.373 271.957 109.211 271.998 108.506C272.142 106.64 272.801 104.851 273.902 103.338C275.003 101.825 276.503 100.647 278.234 99.937C282.681 98.1308 284.657 100.553 288.764 101.856C289.076 101.97 289.413 102 289.741 101.945C290.068 101.889 290.376 101.75 290.634 101.541C291.023 101.047 290.634 100.674 290.116 100.512C287.225 99.5968 286.536 98.6248 283.539 98.0254C280.38 97.4246 277.112 98.1009 274.45 99.9061C271.789 101.711 269.952 104.498 269.341 107.656C263.486 107.656 258.189 113.204 257.192 118.76C256.569 122.129 258.812 124.842 261.85 125.96C264.765 127.013 267.851 126.47 270.678 125.417C272.074 127.905 274.1 129.981 276.552 131.438C279.004 132.896 281.797 133.682 284.649 133.719C287.342 133.739 289.998 133.097 292.385 131.85C294.772 130.603 296.815 128.789 298.337 126.567C299.754 127.303 301.332 127.677 302.929 127.654C304.526 127.631 306.093 127.214 307.489 126.438C310.826 124.567 313.361 120.145 313.418 116.241Z" fill="#DCD7D1"/>
<path d="M58.3955 176.426C58.3818 175.794 58.1927 175.179 57.8495 174.648C57.5062 174.117 57.0223 173.693 56.4517 173.421C55.8685 173.065 55.2368 172.806 54.6374 172.506C54.2001 172.287 53.1634 171.874 53.0176 171.364C53.0102 170.969 53.0761 170.576 53.212 170.206C53.3173 169.768 53.4468 169.347 53.5683 168.918C53.8405 168.091 54.0092 167.234 54.0705 166.367C54.0806 165.68 53.9236 165.002 53.6132 164.389C53.3028 163.777 52.8483 163.249 52.2886 162.851C49.1056 160.47 45.0641 161.831 41.8163 163.289C40.5447 163.856 42.1321 164.633 42.9259 164.277C45.2099 163.248 48.1094 161.847 50.4501 163.467C53.0338 165.281 51.4058 168.221 50.9928 170.659C50.8875 171.267 50.8389 171.615 51.26 172.068C51.6502 172.454 52.0917 172.784 52.5721 173.048C53.5327 173.474 54.4635 173.964 55.3583 174.514C56.476 175.381 56.3869 176.669 56.0548 177.924C55.7407 179.217 55.1917 180.442 54.435 181.537C52.7665 183.861 49.4782 185.222 47.2428 182.816C46.9516 182.6 46.5902 182.5 46.2292 182.536C45.8683 182.572 45.5337 182.741 45.2909 183.011C44.4242 184.742 43.0971 186.201 41.4553 187.226C39.8135 188.252 37.9206 188.806 35.9848 188.826C31.9918 188.737 28.3957 185.951 26.8083 182.347C26.541 181.739 25.4638 181.933 25.0183 182.136C23.1312 182.994 20.8472 183.707 18.8953 182.67C18.0005 182.209 17.3097 181.43 16.9578 180.487C16.6059 179.544 16.6181 178.503 16.9919 177.568C18.0206 174.466 21.1226 170.279 24.8563 170.959C25.2451 171.032 26.1603 170.91 26.1927 170.36C26.3051 168.907 26.8191 167.515 27.6773 166.338C28.5354 165.16 29.7039 164.245 31.0523 163.694C34.5107 162.293 36.0496 164.172 39.2488 165.192C39.493 165.278 39.7552 165.301 40.0105 165.257C40.2657 165.213 40.5054 165.104 40.7067 164.941C41.0063 164.561 40.7067 164.269 40.3017 164.131C38.0501 163.419 37.5236 162.657 35.1829 162.196C32.7259 161.728 30.1836 162.254 28.114 163.658C26.0444 165.063 24.6165 167.231 24.1436 169.687C19.5918 169.687 15.4774 173.996 14.6755 178.313C14.1977 180.937 15.9228 183.051 18.304 183.91C20.6852 184.768 22.9692 184.315 25.1641 183.488C26.2187 185.37 27.7373 186.951 29.5754 188.08C31.4134 189.209 33.5098 189.849 35.665 189.939C37.8203 190.029 39.9628 189.567 41.8887 188.595C43.8145 187.623 45.4597 186.175 46.6677 184.387C47.7717 184.961 49.0007 185.252 50.2447 185.233C51.4887 185.215 52.7086 184.888 53.7951 184.282C55.1361 183.438 56.2542 182.283 57.0549 180.916C57.8556 179.549 58.3154 178.008 58.3955 176.426Z" fill="#DCD7D1"/>
<path d="M257.088 289.225C257.088 289.225 266.807 280.195 277.749 287.767C288.691 295.34 283.378 305.481 281.912 307.692C277.053 315.086 273.003 313.264 270.039 317.783C267.074 322.303 266.912 333.431 252.22 333.561C242.023 333.642 233.122 322.108 240.938 309.263C248.754 296.418 250.657 294.344 257.088 289.225Z" fill="#EE856C"/>
<path d="M264.223 303.925C266.32 306.233 269.536 308.04 272.727 307.732C274.317 307.521 275.781 306.755 276.862 305.57C277.942 304.384 278.569 302.855 278.631 301.252C278.61 299.474 277.975 297.757 276.833 296.393C275.013 294.109 272.554 292.418 269.771 291.533C269.508 291.452 269.235 291.411 268.961 291.412C268.275 291.101 267.55 290.886 266.806 290.772C265.93 290.661 265.04 290.811 264.249 291.205C263.457 291.598 262.8 292.217 262.36 292.983C261.537 294.622 261.328 296.5 261.769 298.28C262.053 300.351 262.902 302.304 264.223 303.925ZM269.026 304.994C268.987 304.93 268.937 304.872 268.88 304.824C268.88 304.824 268.88 304.824 268.88 304.759C268.94 304.83 268.989 304.909 269.026 304.994Z" fill="#F2A181"/>
<path d="M246.121 312.422C247.685 308.974 250.515 306.26 254.026 304.841C254.223 304.779 254.427 304.741 254.633 304.728C255.086 304.531 255.583 304.455 256.075 304.509C257.551 304.62 258.96 305.167 260.124 306.08C261.514 307.007 262.588 308.335 263.202 309.887C263.826 311.628 263.421 313.508 263.202 315.281C262.716 318.845 262.611 323.186 259.638 325.673C255.816 328.912 249.919 326.272 247.117 322.976C244.452 319.882 244.558 315.986 246.121 312.422Z" fill="#F2A181"/>
<path d="M265.811 310.834C265.787 311.049 265.787 311.267 265.811 311.482V311.628C265.842 311.803 265.883 311.976 265.933 312.146C266.007 312.367 266.111 312.577 266.24 312.77C266.359 312.946 266.489 313.113 266.629 313.272C266.759 313.402 266.921 313.531 267.058 313.653C267.251 313.804 267.464 313.93 267.69 314.025C268.221 314.286 268.826 314.349 269.399 314.203C269.556 314.144 269.708 314.071 269.853 313.985L269.958 313.912C270.03 313.843 270.097 313.77 270.16 313.693C270.231 313.626 270.296 313.553 270.355 313.475C270.471 313.287 270.564 313.086 270.63 312.875C270.63 312.786 270.679 312.705 270.695 312.616C270.727 312.369 270.744 312.12 270.744 311.871C270.744 311.766 270.744 311.652 270.744 311.547C270.709 311.237 270.6 310.94 270.428 310.68L270.112 310.267C269.859 310.004 269.56 309.789 269.229 309.635L268.759 309.474C268.657 309.466 268.554 309.466 268.452 309.474L268.184 309.384C267.972 309.32 267.749 309.295 267.528 309.312C267.113 309.319 266.713 309.467 266.394 309.733C266.241 309.871 266.11 310.033 266.005 310.211C265.915 310.41 265.85 310.619 265.811 310.834ZM267.115 311.717L266.937 311.352C267.046 311.61 267.196 311.848 267.382 312.057L267.115 311.717Z" fill="#F8CCBB"/>
<path d="M261.964 306.162C261.964 306.162 256.059 297.585 245.295 299.683C245.295 299.683 242.266 296.054 230.903 306.162C219.54 316.27 218.948 310.965 214.745 326.289C210.76 340.795 219.605 350.068 241.205 350.959C262.806 351.85 276.688 345.233 278.883 335.87C281.078 326.507 279.944 312.358 261.964 306.162ZM257.444 313.127C255.063 315.104 251.548 315.63 248.576 316.019C245.109 316.472 241.197 316.918 237.982 315.209C237.166 314.778 236.466 314.155 235.943 313.395C235.42 312.635 235.088 311.759 234.977 310.843C234.742 308.608 236.062 306.599 237.747 305.255C241.748 302.015 247.021 302.687 251.751 303.732C251.842 303.656 251.953 303.608 252.071 303.594C252.189 303.579 252.308 303.599 252.415 303.651L252.601 303.724C252.745 303.643 252.913 303.612 253.077 303.635C253.241 303.658 253.392 303.735 253.508 303.854C255.209 305.473 257.89 306.705 258.716 309.061C258.96 309.787 258.968 310.57 258.74 311.301C258.511 312.031 258.058 312.67 257.444 313.127Z" fill="#F7C5B2"/>
<path opacity="0.9" d="M232.101 318.148C230.676 322.895 229.356 327.746 229.121 332.727C229.052 337.164 229.459 341.595 230.336 345.945C230.619 347.646 235.341 346.52 235.025 344.682C234.312 340.478 233.616 336.218 233.843 331.942C234.102 327.082 235.406 322.279 236.807 317.614C237.115 316.561 235.365 316.431 234.75 316.496C233.778 316.61 232.409 317.104 232.101 318.116V318.148Z" fill="#FDFDFB"/>
<path opacity="0.9" d="M245.06 319.386C245.06 328.709 243.505 337.95 243.48 347.264C243.48 348.398 248.17 347.62 248.178 346.009C248.178 336.695 249.733 327.453 249.749 318.131C249.749 317.005 245.06 317.775 245.06 319.386Z" fill="#FDFDFB"/>
<path opacity="0.9" d="M257.598 318.504C259.034 322.793 259.87 327.26 260.085 331.778C260.17 336.281 259.326 340.753 257.606 344.915C257.209 345.887 259.137 345.903 259.607 345.839C260.571 345.717 261.891 345.28 262.288 344.292C264.018 340.036 264.867 335.473 264.782 330.879C264.611 326.239 263.77 321.648 262.288 317.248C261.802 315.685 257.128 316.997 257.598 318.504Z" fill="#FDFDFB"/>
<path d="M222.179 278.389C227.347 280.187 235.632 284.869 244.096 297.115C244.096 297.115 238.589 299.763 243.011 304.842C243.685 305.651 244.516 306.314 245.455 306.792C246.393 307.27 247.419 307.551 248.47 307.62C251.483 307.733 255.524 306.064 256.569 296.791C258.254 281.507 256.115 265.771 238.2 248.454C224.763 235.495 209.042 247.879 209.852 262.612C210.233 269.885 215.303 275.992 222.179 278.389Z" fill="#F6E5C6"/>
<path d="M147.18 107.932C146.83 108.098 146.529 108.355 146.308 108.674C146.088 108.994 145.956 109.367 145.925 109.754C145.876 110.977 146.249 112.921 148.428 114.792C149.043 115.318 151.173 117.448 148.128 119.02C144.605 120.85 134.068 119.182 127.191 113.18" fill="#EAB04E"/>
<path d="M96.9961 240.112C96.9961 240.112 109.542 276.907 170.7 287.817C170.7 287.817 215.918 279.353 234.919 240.112C234.927 240.112 170.708 213.044 96.9961 240.112Z" fill="#22A364"/>
<path d="M237.771 113.664C244.38 119.585 252.65 128.243 256.505 139.582C260.36 150.921 268.071 154.315 268.071 154.315C262.838 158.04 256.221 155.125 256.221 155.125C264.321 174.304 267.131 198.918 259.858 211.771C252.585 224.625 254.407 227.873 254.407 227.873C249.726 225.143 248.738 218.785 248.738 218.785C233.422 263.137 170.742 273.099 170.742 273.099C90.7449 261.501 92.308 227.055 92.308 227.055C88.3151 234.781 82.8966 235.097 82.8966 235.097C84.0386 230.683 80.5883 222.77 77.7293 217.279C70.9716 204.513 68.1289 190.038 69.5571 175.665C70.5043 166.591 72.7181 157.696 76.1337 149.237C71.1372 150.045 66.0131 149.257 61.4902 146.985C68.0386 142.884 73.3077 137.031 76.7007 130.09C82.0543 118.751 94.1628 106.699 94.1628 106.699C103.819 98.3582 114.453 91.2217 125.831 85.4466C170.515 66.5348 208.832 89.7068 208.832 89.7068C219.311 96.6303 229.013 104.662 237.771 113.664Z" fill="#EAB04E"/>
<path d="M210.08 119.521C218.082 128.277 230.506 128.35 237.787 122.275C237.787 122.275 245.83 113.277 240.63 102.553C239.251 99.7376 237.218 97.2923 234.702 95.4213C232.186 93.5503 229.259 92.3079 226.165 91.7976C221.135 90.9877 214.656 91.7976 208.832 98.358C208.832 98.3337 202.086 110.758 210.08 119.521Z" fill="#EAB04E"/>
<path d="M223.718 98.041C221.499 98.0394 219.329 98.696 217.483 99.9276C215.638 101.159 214.199 102.911 213.348 104.96C212.498 107.01 212.275 109.266 212.707 111.442C213.139 113.619 214.206 115.618 215.775 117.188C217.343 118.757 219.342 119.826 221.518 120.26C223.694 120.693 225.95 120.472 228.001 119.623C230.051 118.774 231.803 117.336 233.036 115.492C234.269 113.647 234.927 111.478 234.927 109.259C234.927 106.285 233.746 103.433 231.645 101.329C229.543 99.226 226.691 98.0432 223.718 98.041Z" fill="#F6E5C6"/>
<path d="M105.826 122.437C105.826 122.437 120.405 125.118 126.487 111.908C130.748 102.586 125.831 94.0895 125.831 94.0895C125.831 94.0895 114.306 79.9806 98.7392 90.2019C98.7392 90.2019 86.3878 98.4388 94.1631 115.31C94.1631 115.334 96.1636 120.031 105.826 122.437Z" fill="#EAB04E"/>
<path d="M109.536 92.6797C107.319 92.6797 105.151 93.3372 103.308 94.5689C101.465 95.8006 100.028 97.5512 99.1795 99.5995C98.331 101.648 98.109 103.902 98.5416 106.076C98.9741 108.25 100.042 110.248 101.609 111.815C103.177 113.383 105.174 114.451 107.349 114.883C109.523 115.316 111.777 115.094 113.825 114.245C115.873 113.397 117.624 111.96 118.856 110.117C120.088 108.273 120.745 106.106 120.745 103.889C120.745 100.916 119.564 98.0651 117.462 95.9629C115.36 93.8607 112.509 92.6797 109.536 92.6797Z" fill="#F6E5C6"/>
<path d="M161.776 282.94C161.776 282.94 140.143 279.182 138.037 302.913C138.037 302.913 155.467 307.092 162.829 288.496L161.776 282.94Z" fill="#51B464"/>
<path d="M175.746 290.303C175.746 290.303 177.099 305.975 199.023 303.319C199.023 303.319 197.679 280.382 176.645 283.986L175.746 290.303Z" fill="#51B464"/>
<path d="M168.06 305.294C176.34 305.294 183.052 298.582 183.052 290.302C183.052 282.023 176.34 275.311 168.06 275.311C159.78 275.311 153.068 282.023 153.068 290.302C153.068 298.582 159.78 305.294 168.06 305.294Z" fill="white"/>
<path d="M168.072 286.751L164.539 290.285L168.073 293.818L171.606 290.284L168.072 286.751Z" fill="#AF833C"/>
<path d="M168.061 286.771L171.6 290.303H171.244L168.061 287.12V286.771Z" fill="#C19646"/>
<path d="M168.061 287.12L164.878 290.303H164.529L168.061 286.771V287.12Z" fill="#D7BA8F"/>
<path d="M168.061 293.842L164.529 290.303H164.878L168.061 293.486V293.842Z" fill="#C19646"/>
<path d="M168.061 293.486L171.244 290.303H171.6L168.061 293.834V293.486Z" fill="#8C5F3E"/>
<mask id="mask0_1384_829" style="mask-type:luminance" maskUnits="userSpaceOnUse" x="157" y="279" width="19" height="21">
<path d="M157.021 290.311C157.032 291.476 157.274 292.628 157.732 293.699C158.191 294.77 158.858 295.739 159.694 296.551C160.531 297.362 161.52 297.999 162.604 298.425C163.689 298.852 164.847 299.059 166.012 299.034C167.271 299.062 168.523 298.822 169.683 298.33C170.843 297.839 171.886 297.107 172.742 296.183L172.686 296.126C171.172 297.388 169.254 298.064 167.283 298.03C166.227 298.051 165.177 297.863 164.194 297.476C163.211 297.088 162.315 296.51 161.557 295.774C160.799 295.038 160.195 294.159 159.779 293.188C159.364 292.217 159.145 291.173 159.135 290.117C159.161 288.238 159.72 286.406 160.748 284.833C161.775 283.261 163.229 282.013 164.939 281.235C166.649 280.457 168.545 280.182 170.406 280.441C172.266 280.7 174.015 281.482 175.447 282.698L175.528 282.609C173.485 280.642 170.759 279.544 167.923 279.547C165.05 279.53 162.288 280.654 160.244 282.672C158.2 284.691 157.041 287.438 157.021 290.311Z" fill="white"/>
</mask>
<g mask="url(#mask0_1384_829)">
<path d="M166.069 270.27L147.287 289.49L166.496 308.261L185.278 289.041L166.069 270.27Z" fill="url(#paint0_linear_1384_829)"/>
</g>
<mask id="mask1_1384_829" style="mask-type:luminance" maskUnits="userSpaceOnUse" x="160" y="281" width="20" height="21">
<path d="M163.388 284.431L163.444 284.48C164.958 283.218 166.876 282.542 168.847 282.577C169.904 282.555 170.954 282.744 171.938 283.131C172.921 283.519 173.818 284.098 174.576 284.835C175.333 285.572 175.938 286.452 176.353 287.424C176.768 288.396 176.986 289.441 176.995 290.498C176.987 291.788 176.726 293.063 176.225 294.252C175.724 295.441 174.994 296.519 174.077 297.425C173.159 298.332 172.072 299.048 170.877 299.534C169.682 300.02 168.403 300.266 167.113 300.257C164.76 300.263 162.481 299.434 160.683 297.917L160.602 297.998C162.135 299.476 164.067 300.473 166.16 300.868C168.253 301.262 170.416 301.037 172.382 300.218C174.348 299.4 176.033 298.025 177.228 296.262C178.423 294.499 179.076 292.425 179.108 290.295C179.098 289.131 178.857 287.98 178.398 286.91C177.94 285.839 177.274 284.87 176.438 284.059C175.603 283.248 174.615 282.61 173.532 282.183C172.448 281.756 171.291 281.549 170.126 281.572C168.865 281.545 167.612 281.785 166.45 282.278C165.288 282.771 164.244 283.505 163.388 284.431Z" fill="white"/>
</mask>
<g mask="url(#mask1_1384_829)">
<path d="M169.445 272.327L150.865 291.742L170.263 310.305L188.843 290.89L169.445 272.327Z" fill="url(#paint1_linear_1384_829)"/>
</g>
<mask id="mask2_1384_829" style="mask-type:luminance" maskUnits="userSpaceOnUse" x="159" y="280" width="17" height="19">
<path d="M159.135 290.117C159.144 291.173 159.363 292.217 159.779 293.188C160.195 294.159 160.799 295.038 161.557 295.774C162.314 296.51 163.211 297.089 164.194 297.476C165.177 297.863 166.226 298.051 167.283 298.03C169.253 298.064 171.171 297.389 172.685 296.126L172.596 296.037C171.283 297.092 169.647 297.664 167.963 297.657C165.999 297.664 164.112 296.897 162.709 295.522C161.307 294.147 160.503 292.275 160.471 290.311C160.471 284.399 164.788 280.981 169.931 280.981C171.891 280.976 173.802 281.591 175.39 282.738L175.447 282.682C174.014 281.466 172.266 280.684 170.405 280.425C168.544 280.166 166.648 280.441 164.938 281.219C163.228 281.997 161.775 283.245 160.747 284.817C159.72 286.39 159.16 288.222 159.135 290.101" fill="white"/>
</mask>
<g mask="url(#mask2_1384_829)">
<path d="M159.825 277.116L155.6 297.324L174.769 301.332L178.995 281.124L159.825 277.116Z" fill="url(#paint2_linear_1384_829)"/>
</g>
<mask id="mask3_1384_829" style="mask-type:luminance" maskUnits="userSpaceOnUse" x="159" y="280" width="17" height="19">
<path d="M159.094 290.124C159.104 291.184 159.325 292.232 159.744 293.206C160.162 294.18 160.77 295.062 161.531 295.799C162.293 296.537 163.194 297.116 164.181 297.503C165.168 297.89 166.222 298.077 167.282 298.053C169.261 298.089 171.186 297.414 172.709 296.15C171.206 297.361 169.325 298.006 167.396 297.972C166.345 297.998 165.299 297.815 164.32 297.434C163.34 297.053 162.446 296.481 161.689 295.752C160.931 295.023 160.327 294.15 159.909 293.186C159.491 292.221 159.269 291.183 159.256 290.132C159.268 288.849 159.534 287.58 160.037 286.4C160.54 285.219 161.271 284.149 162.188 283.251C163.105 282.353 164.19 281.644 165.381 281.165C166.572 280.687 167.845 280.448 169.129 280.462C171.441 280.456 173.683 281.255 175.471 282.721C173.667 281.214 171.39 280.391 169.04 280.397C166.426 280.377 163.912 281.396 162.048 283.229C160.185 285.062 159.125 287.559 159.102 290.173" fill="white"/>
</mask>
<g mask="url(#mask3_1384_829)">
<path d="M159.667 277.455L155.889 297.529L174.92 301.112L178.698 281.038L159.667 277.455Z" fill="url(#paint3_linear_1384_829)"/>
</g>
<mask id="mask4_1384_829" style="mask-type:luminance" maskUnits="userSpaceOnUse" x="160" y="282" width="17" height="19">
<path d="M163.443 284.479L163.533 284.568C164.846 283.514 166.481 282.943 168.165 282.948C170.129 282.943 172.015 283.711 173.417 285.086C174.818 286.46 175.623 288.331 175.657 290.294C175.657 296.215 171.34 299.624 166.197 299.624C164.24 299.63 162.331 299.015 160.746 297.867L160.682 297.932C162.481 299.447 164.76 300.277 167.112 300.272C168.402 300.281 169.681 300.035 170.876 299.549C172.071 299.063 173.158 298.346 174.076 297.44C174.993 296.534 175.723 295.455 176.224 294.267C176.725 293.078 176.986 291.802 176.994 290.513C176.985 289.456 176.767 288.411 176.352 287.439C175.937 286.467 175.333 285.587 174.575 284.85C173.817 284.113 172.92 283.534 171.937 283.146C170.953 282.759 169.903 282.57 168.846 282.591C166.875 282.557 164.957 283.233 163.443 284.495" fill="white"/>
</mask>
<g mask="url(#mask4_1384_829)">
<path d="M161.404 279.162L157.012 299.426L176.254 303.597L180.646 283.333L161.404 279.162Z" fill="url(#paint4_linear_1384_829)"/>
</g>
<path d="M163.42 284.456C164.925 283.248 166.804 282.603 168.733 282.634C169.784 282.608 170.83 282.791 171.809 283.172C172.789 283.553 173.683 284.125 174.44 284.854C175.197 285.583 175.802 286.455 176.22 287.42C176.637 288.385 176.859 289.423 176.873 290.474C176.866 291.761 176.604 293.034 176.103 294.22C175.603 295.406 174.873 296.481 173.955 297.384C173.038 298.287 171.951 299 170.758 299.482C169.564 299.964 168.287 300.206 167 300.193C164.688 300.198 162.446 299.399 160.658 297.933C162.461 299.441 164.739 300.264 167.089 300.258C168.383 300.268 169.667 300.024 170.867 299.538C172.067 299.053 173.16 298.336 174.083 297.428C175.006 296.52 175.741 295.44 176.246 294.248C176.751 293.056 177.016 291.776 177.027 290.482C177.015 289.422 176.794 288.375 176.375 287.401C175.956 286.427 175.348 285.546 174.587 284.809C173.825 284.071 172.925 283.492 171.939 283.105C170.952 282.718 169.898 282.53 168.839 282.553C166.86 282.518 164.935 283.193 163.412 284.456" fill="url(#paint5_linear_1384_829)"/>
<mask id="mask5_1384_829" style="mask-type:luminance" maskUnits="userSpaceOnUse" x="160" y="282" width="18" height="19">
<path d="M163.42 284.456C164.925 283.248 166.804 282.603 168.733 282.634C169.784 282.608 170.83 282.791 171.809 283.172C172.789 283.553 173.683 284.125 174.44 284.854C175.197 285.583 175.802 286.455 176.22 287.42C176.637 288.385 176.859 289.423 176.873 290.474C176.866 291.761 176.604 293.034 176.103 294.22C175.603 295.406 174.873 296.481 173.955 297.384C173.038 298.287 171.951 299 170.758 299.482C169.564 299.964 168.287 300.206 167 300.193C164.688 300.198 162.446 299.399 160.658 297.933C162.461 299.441 164.739 300.264 167.089 300.258C168.383 300.268 169.667 300.024 170.867 299.538C172.067 299.053 173.16 298.336 174.083 297.428C175.006 296.52 175.741 295.44 176.246 294.248C176.751 293.056 177.016 291.776 177.027 290.482C177.015 289.422 176.794 288.375 176.375 287.401C175.956 286.427 175.348 285.546 174.587 284.809C173.825 284.071 172.925 283.492 171.939 283.105C170.952 282.718 169.898 282.53 168.839 282.553C166.86 282.518 164.935 283.193 163.412 284.456" fill="white"/>
</mask>
<g mask="url(#mask5_1384_829)">
<path d="M161.291 279.293L157.197 299.486L176.367 303.373L180.461 283.179L161.291 279.293Z" fill="url(#paint6_linear_1384_829)"/>
</g>
<path d="M134.149 132.65C134.149 132.65 103.08 148.443 105.802 188.794C105.802 188.794 107.6 231.307 176.816 226.561C176.816 226.561 254.011 222.284 228.125 165.727C228.125 165.727 218.406 125.231 161.922 124.51C161.897 124.51 145.529 124.404 134.149 132.65Z" fill="#F6E5C6"/>
<path d="M202.49 177.424C202.163 177.422 201.841 177.332 201.56 177.164C201.279 176.996 201.048 176.755 200.892 176.467C200.735 176.179 200.659 175.854 200.671 175.527C200.683 175.199 200.783 174.881 200.96 174.605L204.572 169.057C204.703 168.857 204.872 168.684 205.069 168.549C205.267 168.414 205.489 168.319 205.723 168.269C205.958 168.22 206.199 168.218 206.435 168.262C206.67 168.306 206.894 168.396 207.095 168.527C207.295 168.658 207.468 168.827 207.603 169.024C207.738 169.222 207.833 169.444 207.883 169.678C207.932 169.913 207.934 170.154 207.89 170.39C207.846 170.625 207.756 170.849 207.625 171.05L204.013 176.59C203.85 176.845 203.625 177.056 203.358 177.202C203.092 177.347 202.794 177.424 202.49 177.424Z" fill="#E9C4AA"/>
<path d="M208.274 179.059C207.946 179.058 207.624 178.969 207.343 178.801C207.061 178.633 206.83 178.392 206.674 178.103C206.518 177.814 206.443 177.489 206.457 177.161C206.47 176.833 206.572 176.515 206.751 176.241L210.364 170.701C210.636 170.317 211.046 170.054 211.508 169.966C211.97 169.878 212.448 169.972 212.842 170.228C213.237 170.484 213.517 170.883 213.624 171.341C213.731 171.799 213.657 172.28 213.417 172.685L209.805 178.233C209.639 178.487 209.412 178.696 209.144 178.84C208.877 178.985 208.578 179.06 208.274 179.059Z" fill="#E9C4AA"/>
<path d="M128.358 181.01C128.005 181.013 127.658 180.911 127.362 180.719C126.959 180.454 126.677 180.041 126.577 179.569C126.477 179.098 126.567 178.605 126.828 178.2L130.44 172.652C130.712 172.268 131.122 172.005 131.584 171.917C132.046 171.829 132.524 171.923 132.918 172.179C133.313 172.435 133.593 172.834 133.7 173.292C133.807 173.75 133.733 174.232 133.493 174.636L129.889 180.184C129.722 180.437 129.495 180.646 129.228 180.79C128.96 180.934 128.662 181.01 128.358 181.01Z" fill="#E9C4AA"/>
<path d="M134.141 182.654C133.813 182.654 133.491 182.565 133.21 182.396C132.928 182.228 132.697 181.987 132.541 181.698C132.385 181.409 132.31 181.084 132.324 180.756C132.337 180.429 132.439 180.11 132.619 179.836L136.231 174.288C136.495 173.883 136.909 173.599 137.383 173.5C137.856 173.4 138.349 173.493 138.754 173.757C139.159 174.021 139.442 174.436 139.542 174.909C139.641 175.382 139.549 175.875 139.284 176.28L135.672 181.828C135.506 182.083 135.279 182.291 135.012 182.436C134.744 182.58 134.445 182.655 134.141 182.654Z" fill="#E9C4AA"/>
<path d="M148.428 133.372C146.249 131.501 145.876 129.549 145.925 128.334C145.956 127.947 146.088 127.574 146.308 127.255C146.529 126.935 146.83 126.678 147.18 126.512L127.191 131.76C134.068 137.762 144.605 139.422 148.128 137.6C151.173 136.02 149.043 133.914 148.428 133.372Z" fill="#EAB04E"/>
<path d="M174.306 211.132C171.49 211.111 168.718 210.437 166.206 209.164C165.994 209.054 165.805 208.903 165.65 208.72C165.496 208.537 165.379 208.325 165.306 208.097C165.234 207.869 165.207 207.628 165.227 207.39C165.248 207.151 165.315 206.919 165.425 206.706C165.647 206.276 166.031 205.953 166.492 205.806C166.72 205.734 166.961 205.707 167.199 205.727C167.438 205.747 167.67 205.814 167.883 205.925C168.264 206.119 177.27 210.638 181.927 203.349C182.188 202.942 182.6 202.655 183.072 202.552C183.545 202.449 184.039 202.537 184.446 202.798C184.853 203.059 185.14 203.471 185.243 203.944C185.346 204.416 185.258 204.91 184.997 205.317C183.883 207.141 182.309 208.639 180.432 209.66C178.555 210.681 176.442 211.189 174.306 211.132Z" fill="#E9C4AA"/>
<path d="M164.789 189.288C164.789 189.288 165.299 202.458 174.33 201.785C183.361 201.113 182.907 191.394 183.134 184.979L172.605 178.062L164.789 189.288Z" fill="#E17E7C"/>
<path d="M160.074 178.646C154.162 178.208 144.184 178.289 139.211 183.084C139.211 183.084 132.391 190.033 139.211 196.464C146.03 202.895 163.784 201.324 168.449 199.08C174.216 196.326 174.119 192.917 174.175 191.345C174.175 191.345 174.791 196.205 188.187 196.472C190.418 196.528 192.645 196.255 194.796 195.662C198.91 194.52 204.661 191.888 203.705 186.243C202.264 177.593 190.803 176.71 179.407 179.31C171.818 181.051 167.833 180.419 166.027 179.804C164.098 179.175 162.099 178.785 160.074 178.646Z" fill="#E9C4AA"/>
<path d="M169.007 176.337C169.007 176.337 160.349 176.41 159.458 185.019C158.551 193.848 174.174 191.345 174.174 191.345C174.174 191.345 184.412 190.017 181.464 182.079C181.472 182.079 178.985 175.527 169.007 176.337Z" fill="#4A1D0E"/>
<path d="M189.831 175.601C193.342 175.601 196.189 172.754 196.189 169.243C196.189 165.731 193.342 162.885 189.831 162.885C186.319 162.885 183.473 165.731 183.473 169.243C183.473 172.754 186.319 175.601 189.831 175.601Z" fill="#4A1D0E"/>
<path d="M150.096 176.411C153.608 176.411 156.454 173.565 156.454 170.053C156.454 166.542 153.608 163.695 150.096 163.695C146.585 163.695 143.738 166.542 143.738 170.053C143.738 173.565 146.585 176.411 150.096 176.411Z" fill="#4A1D0E"/>
<path d="M183.918 156.462C183.918 156.462 186.988 159.013 191.701 156.462C191.831 156.387 191.937 156.278 192.009 156.147C192.08 156.016 192.114 155.868 192.107 155.719C192.099 155.569 192.051 155.425 191.966 155.302C191.882 155.179 191.765 155.081 191.628 155.02C189.369 154.21 185.149 152.372 182.824 149.756C182.725 149.647 182.599 149.568 182.458 149.526C182.317 149.484 182.167 149.481 182.025 149.518C181.883 149.554 181.753 149.629 181.65 149.734C181.547 149.838 181.474 149.969 181.44 150.112C181.164 151.297 181.254 152.537 181.696 153.67C182.138 154.803 182.913 155.776 183.918 156.462Z" fill="#4A1D0E"/>
<path d="M155.07 156.867C155.07 156.867 151.878 159.297 147.286 156.535C147.161 156.455 147.06 156.341 146.995 156.207C146.93 156.074 146.904 155.924 146.918 155.776C146.932 155.628 146.987 155.487 147.076 155.368C147.165 155.249 147.286 155.157 147.424 155.102C149.724 154.365 154.017 152.745 156.463 150.242C156.566 150.14 156.696 150.068 156.837 150.033C156.978 149.998 157.126 150.002 157.266 150.045C157.405 150.087 157.53 150.166 157.628 150.273C157.726 150.381 157.794 150.513 157.823 150.655C158.044 151.847 157.898 153.078 157.407 154.187C156.916 155.295 156.101 156.23 155.07 156.867Z" fill="#4A1D0E"/>
<path d="M44.2797 238.679L73.0516 244.957L67.4327 270.706C67.1488 272.008 66.3595 273.143 65.2387 273.862C64.1178 274.581 62.7572 274.826 61.456 274.542L42.4646 270.398C41.1634 270.114 40.0283 269.325 39.309 268.204C38.5897 267.083 38.3452 265.722 38.6291 264.421L44.248 238.672L44.2797 238.679Z" fill="#C4E3F1"/>
<path d="M71.1602 201.478L67.6532 200.716L64.1462 199.906C64.1462 199.906 54.6377 202.336 50.9849 208.006L45.5098 233.113L74.2865 239.39L79.7536 214.282C78.8059 207.617 71.1602 201.478 71.1602 201.478Z" fill="#C4E3F1"/>
<path d="M67.9618 250.131L46.2881 249.321C46.0847 249.305 45.895 249.212 45.7568 249.062C45.6187 248.912 45.5423 248.715 45.543 248.511C45.5573 248.306 45.649 248.114 45.7993 247.975C45.9497 247.835 46.1476 247.757 46.3529 247.758L68.0266 248.568C68.1917 248.619 68.336 248.722 68.4385 248.861C68.541 249 68.5963 249.168 68.5963 249.341C68.5963 249.514 68.541 249.682 68.4385 249.821C68.336 249.961 68.1917 250.063 68.0266 250.115L67.9618 250.131Z" fill="#70AEC7"/>
<path d="M66.5106 256.771L44.8369 255.961C44.6336 255.945 44.4438 255.852 44.3057 255.702C44.1675 255.552 44.0911 255.355 44.0918 255.151C44.0938 255.048 44.1166 254.947 44.1588 254.853C44.201 254.759 44.2618 254.675 44.3375 254.605C44.4132 254.536 44.5022 254.482 44.5992 254.448C44.6962 254.413 44.7991 254.399 44.9017 254.406L66.5754 255.216C66.7405 255.267 66.8848 255.37 66.9873 255.509C67.0898 255.648 67.1451 255.816 67.1451 255.989C67.1451 256.162 67.0898 256.33 66.9873 256.47C66.8848 256.609 66.7405 256.712 66.5754 256.763L66.5106 256.771Z" fill="#70AEC7"/>
<path d="M65.0608 263.421L43.3871 262.611C43.2251 262.558 43.084 262.455 42.9839 262.317C42.8839 262.178 42.8301 262.012 42.8301 261.842C42.8301 261.671 42.8839 261.505 42.9839 261.367C43.084 261.229 43.2251 261.126 43.3871 261.072L65.0608 261.882C65.229 261.931 65.3768 262.034 65.482 262.174C65.5871 262.314 65.644 262.484 65.644 262.66C65.644 262.835 65.5871 263.006 65.482 263.146C65.3768 263.286 65.229 263.388 65.0608 263.437V263.421Z" fill="#70AEC7"/>
<path d="M79.1411 217.05L50.3691 210.771L46.2888 229.47L75.0607 235.749L79.1411 217.05Z" fill="#F3F3F4"/>
<path d="M72.7982 198.315L63.9355 196.381L62.5541 202.711L71.4168 204.645L72.7982 198.315Z" fill="#C4E3F1"/>
<path d="M74.1253 194.206L64.4476 192.094C63.9232 191.979 63.4053 192.312 63.2908 192.836L62.272 197.505C62.1576 198.029 62.49 198.547 63.0144 198.662L72.6921 200.774C73.2165 200.888 73.7344 200.556 73.8489 200.031L74.8677 195.363C74.9821 194.838 74.6498 194.32 74.1253 194.206Z" fill="#70AEC7"/>
<path d="M45.5095 233.131C45.8769 233.544 46.1414 234.038 46.2814 234.573C46.4215 235.107 46.4332 235.668 46.3155 236.208C46.1979 236.748 45.9542 237.253 45.6044 237.681C45.2546 238.109 44.8086 238.448 44.3027 238.671L73.0714 244.956C72.706 244.541 72.4435 244.045 72.305 243.51C72.1665 242.975 72.156 242.414 72.2743 241.874C72.3926 241.334 72.6364 240.829 72.9859 240.401C73.3354 239.972 73.7809 239.632 74.2863 239.408L45.5095 233.131Z" fill="#99C4D7"/>
<path d="M71.8643 199.121H71.7751C71.6756 199.098 71.5892 199.037 71.5347 198.95C71.4801 198.864 71.4618 198.759 71.4836 198.66L72.1315 195.687C72.1421 195.637 72.1625 195.59 72.1914 195.548C72.2203 195.505 72.2573 195.469 72.3002 195.442C72.3431 195.414 72.391 195.395 72.4413 195.385C72.4916 195.376 72.5432 195.377 72.5932 195.388C72.6931 195.411 72.7802 195.472 72.8361 195.558C72.8919 195.644 72.9123 195.748 72.8929 195.849L72.2368 198.822C72.2197 198.907 72.1731 198.984 72.1049 199.039C72.0368 199.094 71.9516 199.123 71.8643 199.121Z" fill="#B3D3E2"/>
<path d="M75.51 233.794C75.51 233.794 71.8978 231.137 70.6991 232.004C69.5004 232.87 67.4188 236.442 74.8378 241.051" fill="#F6E5C6"/>
<path d="M72.4964 237.997C72.4964 237.997 69.1676 241.488 73.5736 246.169C77.9796 250.85 75.1287 237.26 75.1287 237.26L72.4964 237.997Z" fill="#F6E5C6"/>
</g>
<defs>
<linearGradient id="paint0_linear_1384_829" x1="162.703" y1="288.97" x2="177.756" y2="273.567" gradientUnits="userSpaceOnUse">
<stop stop-color="#AF833C"/>
<stop offset="0.13" stop-color="#B0853F"/>
<stop offset="0.24" stop-color="#B58B49"/>
<stop offset="0.33" stop-color="#BD9659"/>
<stop offset="0.42" stop-color="#C8A570"/>
<stop offset="0.5" stop-color="#D5B88D"/>
<stop offset="0.58" stop-color="#C8A570"/>
<stop offset="0.67" stop-color="#BD9659"/>
<stop offset="0.76" stop-color="#B58B49"/>
<stop offset="0.87" stop-color="#B0853F"/>
<stop offset="1" stop-color="#AF833C"/>
</linearGradient>
<linearGradient id="paint1_linear_1384_829" x1="178.146" y1="281.457" x2="163.34" y2="296.929" gradientUnits="userSpaceOnUse">
<stop stop-color="#00553D"/>
<stop offset="0.2" stop-color="#02573F"/>
<stop offset="0.3" stop-color="#0A5E46"/>
<stop offset="0.38" stop-color="#176951"/>
<stop offset="0.45" stop-color="#2A7961"/>
<stop offset="0.5" stop-color="#3F8C73"/>
<stop offset="0.55" stop-color="#2A7961"/>
<stop offset="0.62" stop-color="#176951"/>
<stop offset="0.7" stop-color="#0A5E46"/>
<stop offset="0.8" stop-color="#02573F"/>
<stop offset="1" stop-color="#00553D"/>
</linearGradient>
<linearGradient id="paint2_linear_1384_829" x1="168.819" y1="277.694" x2="165.998" y2="291.184" gradientUnits="userSpaceOnUse">
<stop stop-color="#8C5E33"/>
<stop offset="0.3" stop-color="#AA803C"/>
<stop offset="1" stop-color="#8C5E33"/>
</linearGradient>
<linearGradient id="paint3_linear_1384_829" x1="168.397" y1="276.547" x2="165.858" y2="290.036" gradientUnits="userSpaceOnUse">
<stop stop-color="#C39A4E"/>
<stop offset="0.34" stop-color="#DBC290"/>
<stop offset="1" stop-color="#C39A4E"/>
</linearGradient>
<linearGradient id="paint4_linear_1384_829" x1="170.183" y1="289.281" x2="167.268" y2="302.728" gradientUnits="userSpaceOnUse">
<stop stop-color="#004731"/>
<stop offset="0.01" stop-color="#004731"/>
<stop offset="0.7" stop-color="#00553D"/>
<stop offset="1" stop-color="#004731"/>
</linearGradient>
<linearGradient id="paint5_linear_1384_829" x1="160.666" y1="291.405" x2="177.035" y2="291.405" gradientUnits="userSpaceOnUse">
<stop stop-color="#007156"/>
<stop offset="0.3" stop-color="#E8F3F2"/>
<stop offset="0.55" stop-color="#94C4B9"/>
<stop offset="1" stop-color="#007156"/>
</linearGradient>
<linearGradient id="paint6_linear_1384_829" x1="168.508" y1="306.339" x2="171.233" y2="292.898" gradientUnits="userSpaceOnUse">
<stop stop-color="#007156"/>
<stop offset="0.4" stop-color="#83A28F"/>
<stop offset="1" stop-color="#007156"/>
</linearGradient>
<clipPath id="clip0_1384_829">
<rect width="340" height="382.351" fill="white"/>
</clipPath>
</defs>
</svg>
