<svg width="120" height="21" viewBox="0 0 120 21" fill="none" xmlns="http://www.w3.org/2000/svg">
<path d="M1.5 15.918C2.02 15.216 2.956 15.086 3.658 15.632C4.724 16.464 5.894 17.27 7.688 17.27C9.274 17.27 10.236 16.594 10.262 15.346C10.288 14.332 9.924 13.292 6.908 11.732C3.008 9.678 1.344 8.092 1.344 5.414C1.344 2.45 4.022 0.526 8.208 0.526C10.756 0.526 12.732 1.254 13.616 2.112C14.344 2.814 14.5 3.724 14.006 4.478C13.46 5.284 12.446 5.44 11.64 4.764C10.756 4.036 9.742 3.594 8.182 3.62C6.752 3.646 5.92 4.218 5.92 5.102C5.92 6.09 6.284 6.974 9.326 8.534C13.252 10.588 14.89 12.226 14.89 14.826C14.89 18.31 12.264 20.39 7.922 20.39C4.932 20.39 2.8 19.402 1.734 18.336C1.032 17.634 0.954 16.672 1.5 15.918ZM40.344 0.915999C41.306 0.915999 41.8 1.462 41.8 2.424C41.8 3.386 41.306 3.932 40.344 3.932H36.21V18.258C36.21 19.662 35.378 20.39 33.974 20.39C32.544 20.39 31.738 19.662 31.738 18.258V3.932H27.63C26.668 3.932 26.174 3.386 26.174 2.424C26.174 1.462 26.668 0.915999 27.63 0.915999H40.344ZM68.216 17.4C68.658 18.856 68.242 19.844 66.916 20.234C65.486 20.65 64.446 20.13 64.056 18.752L62.808 14.254H56.958L55.58 18.83C55.19 20.104 54.306 20.624 53.032 20.234C51.784 19.844 51.316 18.908 51.758 17.608L56.62 3.152C57.218 1.332 58.232 0.526 59.922 0.526C61.586 0.526 62.886 1.332 63.51 3.126C64.758 6.74 66.76 12.616 68.216 17.4ZM57.842 11.342H61.976C61.352 9.08 60.702 6.844 60.078 4.634H59.87L57.842 11.342ZM93.254 17.27C93.904 18.44 93.67 19.454 92.526 20.052C91.33 20.676 90.238 20.416 89.588 19.194L86.182 12.798C86.026 12.798 85.87 12.798 85.714 12.798C85.09 12.798 84.414 12.798 83.868 12.772V18.128C83.868 19.61 83.062 20.39 81.658 20.39C80.176 20.39 79.344 19.61 79.344 18.128V3.152C79.344 1.878 79.994 1.072 81.242 0.89C82.282 0.733999 83.972 0.681999 85.376 0.681999C90.68 0.681999 93.462 2.866 93.462 6.766C93.462 9.548 92.006 11.212 89.978 12.044C91.486 14.332 92.526 15.97 93.254 17.27ZM85.532 9.912C87.716 9.912 88.99 8.794 88.99 6.792C88.99 4.686 87.82 3.568 85.506 3.568C84.96 3.568 84.336 3.594 84.024 3.646C83.894 3.672 83.816 3.75 83.816 3.906V9.886C84.362 9.912 84.986 9.912 85.532 9.912ZM118.344 0.915999C119.306 0.915999 119.8 1.462 119.8 2.424C119.8 3.386 119.306 3.932 118.344 3.932H114.21V18.258C114.21 19.662 113.378 20.39 111.974 20.39C110.544 20.39 109.738 19.662 109.738 18.258V3.932H105.63C104.668 3.932 104.174 3.386 104.174 2.424C104.174 1.462 104.668 0.915999 105.63 0.915999H118.344Z" fill="white"/>
</svg>
