<svg width="31" height="29" viewBox="0 0 31 29" fill="none" xmlns="http://www.w3.org/2000/svg">
<path d="M2.14331 22.2575C1.96866 22.2758 1.79204 22.2549 1.62651 22.1963C1.46097 22.1377 1.31067 22.0428 1.18649 21.9186C1.06232 21.7945 0.967471 21.6441 0.908837 21.4785C0.850203 21.313 0.8293 21.1365 0.847627 20.9618V2.10968C0.8293 1.93503 0.850203 1.75849 0.908837 1.59296C0.967471 1.42742 1.06232 1.27704 1.18649 1.15286C1.31067 1.02869 1.46097 0.93384 1.62651 0.875206C1.79204 0.816572 1.96866 0.79567 2.14331 0.813997C2.31796 0.79567 2.4945 0.816572 2.66003 0.875206C2.82556 0.93384 2.97587 1.02869 3.10004 1.15286C3.22422 1.27704 3.31907 1.42742 3.3777 1.59296C3.43633 1.75849 3.45732 1.93503 3.43899 2.10968V13.7708C5.29181 12.1253 7.41673 10.2465 9.91739 7.84954C10.1309 7.60287 10.4296 7.44587 10.7538 7.40984C11.0781 7.37381 11.4041 7.46145 11.6665 7.65523C11.792 7.76105 11.8928 7.89296 11.962 8.04178C12.0311 8.19061 12.0669 8.35272 12.0669 8.51683C12.0669 8.68094 12.0311 8.84305 11.962 8.99188C11.8928 9.1407 11.792 9.27262 11.6665 9.37843L6.75593 13.6671L12.0164 20.0808C12.2461 20.3353 12.3655 20.6706 12.3485 21.013C12.3315 21.3554 12.1794 21.6772 11.9257 21.9077C11.7838 22.0317 11.6165 22.1231 11.4356 22.1758C11.2547 22.2285 11.0645 22.241 10.8782 22.2127C10.692 22.1843 10.5142 22.1157 10.3572 22.0116C10.2002 21.9074 10.0678 21.7702 9.96919 21.6097L5.01968 15.0665L3.43899 16.4658V20.91C3.46589 21.0887 3.45131 21.2711 3.39652 21.4432C3.34173 21.6153 3.24819 21.7726 3.12298 21.9028C2.99777 22.033 2.84429 22.1327 2.67442 22.1942C2.50456 22.2557 2.32286 22.2774 2.14331 22.2575ZM29.1453 7.46085C29.3204 7.44001 29.4981 7.45917 29.6647 7.51692C29.8314 7.57466 29.9828 7.66952 30.1075 7.79426C30.2323 7.91899 30.3271 8.07035 30.3849 8.23704C30.4426 8.40372 30.4618 8.58136 30.4409 8.75653V21.5449C30.4409 26.3648 28.1476 28.6322 23.833 28.6322C22.2555 28.7174 20.6963 28.2602 19.4147 27.3366C18.8187 26.8571 18.5855 26.2612 18.9872 25.7429C19.0649 25.6322 19.1648 25.539 19.2806 25.4692C19.3964 25.3994 19.5255 25.3545 19.6597 25.3374C19.7938 25.3204 19.9301 25.3314 20.0597 25.37C20.1893 25.4086 20.3094 25.4738 20.4124 25.5615C21.4423 26.2763 22.6576 26.6769 23.9107 26.7146C27.0722 26.7146 27.7978 24.8878 27.7978 21.8948V20.2492C27.2716 20.7754 26.6447 21.1901 25.9545 21.4683C25.2644 21.7466 24.5251 21.8829 23.7811 21.8688C20.4642 21.8688 17.4194 19.8735 17.4194 14.937C17.4194 9.55988 20.5031 7.51265 23.8978 7.51265C24.6615 7.52058 25.4142 7.69518 26.1035 8.02415C26.7928 8.35312 27.402 8.82858 27.8885 9.41734V8.71762C27.8725 8.54858 27.8939 8.37814 27.9514 8.21837C28.0089 8.05861 28.101 7.91353 28.221 7.79347C28.3411 7.67341 28.4862 7.58129 28.646 7.5238C28.8058 7.4663 28.9762 7.44483 29.1453 7.46085ZM24.1569 20.0548C24.8923 20.0209 25.6088 19.8116 26.2467 19.4442C26.8846 19.0767 27.4253 18.5619 27.8236 17.9429V11.5941C27.4285 10.9449 26.8756 10.4061 26.2164 10.0278C25.5573 9.64948 24.8131 9.44398 24.0532 9.43031C21.7081 9.43031 20.1662 11.322 20.1662 14.7685C20.2051 18.7592 22.1097 20.0807 24.1569 20.0548Z" fill="white"/>
</svg>
