<svg width="632" height="550" viewBox="0 0 632 550" fill="none" xmlns="http://www.w3.org/2000/svg">
<path opacity="0.7" d="M436.976 0C569.531 0 642.416 50.7446 629.621 136.21C618.874 208 561.841 235.816 474.218 244.799C474.003 251.89 472.201 258.844 468.948 265.146C465.695 271.449 461.072 276.941 455.419 281.219C454.775 281.715 453.993 282.005 453.181 282.046C452.369 282.087 451.563 281.879 450.872 281.45C450.18 281.022 449.637 280.394 449.311 279.648C448.986 278.902 448.894 278.073 449.051 277.274C450.007 271.782 449.597 266.14 447.852 260.846C446.106 255.551 443.08 250.768 439.046 246.924C427.565 247.41 435.621 247.654 423.211 247.654C290.655 247.654 200 198.184 200 111.444C200 24.7039 304.42 0 436.976 0Z" fill="#B8C318"/>
<path d="M342.302 169.5C343.652 169.5 344.408 170.256 344.408 171.606C344.408 173.01 343.652 173.766 342.302 173.766H326.426V184.62C326.426 186.888 325.13 187.968 322.862 187.968C320.594 187.968 319.298 186.888 319.298 184.62V173.766H297.806C296.402 173.766 295.646 173.01 295.646 171.606C295.646 170.256 296.402 169.5 297.806 169.5H304.988V158.268C304.988 156.216 306.122 155.136 308.174 155.136H319.298V148.008H309.308C306.77 152.328 303.422 156.27 300.29 158.538C299.426 159.24 298.616 159.24 297.968 158.538C297.266 157.782 297.212 156.972 297.86 156.108C301.208 151.734 303.746 145.794 305.42 139.422C306.068 136.884 307.742 136.236 310.172 136.83C312.548 137.37 313.304 139.26 312.278 141.906C312.008 142.554 311.792 143.202 311.468 143.85H340.844C342.194 143.85 342.95 144.552 342.95 145.902C342.95 147.252 342.194 148.008 340.844 148.008H326.426V155.136H338.036C339.332 155.136 340.034 155.838 340.034 157.134C340.034 158.43 339.332 159.132 338.036 159.132H326.426V169.5H342.302ZM319.298 169.5V159.132H312.494C312.116 159.132 311.846 159.402 311.846 159.78V169.5H319.298Z" fill="#594A39"/>
<path d="M367.952 147.306V157.998C367.952 172.2 365.63 181.596 360.662 187.158C359.96 188.022 358.88 188.13 358.124 187.482C357.314 186.888 357.098 186.132 357.584 185.16C360.338 179.544 361.094 172.2 361.094 157.35V145.74C361.094 143.634 362.174 142.446 364.226 142.446H380.048V140.286C380.048 138.288 381.344 137.154 383.72 137.154C386.042 137.154 387.392 138.288 387.392 140.286V142.446H403.214C404.51 142.446 405.212 143.256 405.212 144.552C405.212 145.848 404.51 146.604 403.214 146.604H368.6C368.222 146.604 367.952 146.928 367.952 147.306ZM377.996 163.614C375.944 163.614 374.864 162.48 374.864 160.482V156.162H370.328C369.086 156.162 368.438 155.406 368.438 154.164C368.438 152.976 369.086 152.274 370.328 152.274H374.864V149.844C374.864 148.17 375.998 147.198 378.05 147.198C379.994 147.198 381.236 148.17 381.236 149.844V152.274H389.768V149.79C389.768 148.116 390.902 147.144 392.954 147.144C394.952 147.144 396.14 148.116 396.14 149.79V152.274H401.54C402.782 152.274 403.484 152.976 403.484 154.164C403.484 155.46 402.782 156.162 401.54 156.162H396.14V160.482C396.14 162.48 395.006 163.614 393.008 163.614H377.996ZM381.236 156.162V159.186C381.236 159.564 381.506 159.834 381.884 159.834H389.12C389.498 159.834 389.768 159.564 389.768 159.186V156.162H381.236ZM402.404 181.326C404.51 181.596 405.482 183.108 405.158 185.214C404.726 187.428 403.16 188.022 401.162 187.806C395.762 187.104 390.632 185.484 386.204 182.892C380.912 185.646 374.486 187.266 367.412 187.752C366.332 187.806 365.576 187.374 365.414 186.348C365.252 185.43 365.684 184.566 366.872 184.296C372.92 183.054 377.726 181.542 381.56 179.652C378.482 177.006 375.998 173.82 374.378 170.094H371.57C370.382 170.094 369.626 169.284 369.626 168.096C369.626 166.908 370.382 166.206 371.57 166.206H395.276C398.408 166.206 399.812 168.474 398.3 171.336C396.734 174.36 394.574 176.952 391.928 179.166C395.06 180.192 398.57 180.894 402.404 181.326ZM378.428 170.094C380.588 172.848 383.18 175.008 386.258 176.682C388.31 175.062 389.984 173.172 391.334 170.958C391.658 170.472 391.388 170.094 390.902 170.094H378.428Z" fill="#594A39"/>
<path d="M465.746 181.11C467.474 182.622 467.96 184.512 466.502 186.294C464.99 188.13 462.992 188.184 461.156 186.348C459.104 184.404 457.268 182.082 455.702 179.436C453.272 182.838 450.14 185.538 446.198 187.59C445.226 188.13 444.362 187.86 443.876 187.05C443.498 186.402 443.498 185.862 443.876 185.322C443.012 185.7 441.986 185.592 440.96 184.944C439.664 184.026 438.314 183.216 437.018 182.406C433.13 185.43 427.784 187.32 421.358 187.86C420.278 187.914 419.576 187.428 419.468 186.51C419.36 185.538 419.738 184.89 420.98 184.674C425.678 183.81 429.512 182.244 432.374 179.922C431.294 179.382 430.106 178.896 428.918 178.41C428.756 178.734 428.54 179.058 428.378 179.328C427.406 180.84 425.895 181.056 424.49 180.246C423.086 179.382 422.816 178.248 423.788 176.574C424.328 175.548 425.03 174.36 425.678 173.064H421.25C420.062 173.064 419.36 172.362 419.36 171.174C419.36 169.986 420.062 169.338 421.25 169.338H427.568L428.648 167.124H424.328C422.33 167.124 421.358 166.152 421.358 164.154V160.374C421.358 158.322 422.33 157.404 424.328 157.404H430.754V155.73H425.516C423.518 155.73 422.384 154.65 422.384 152.652V150.168H420.764C419.63 150.168 418.982 149.52 418.982 148.386C418.982 147.198 419.684 146.496 420.764 146.496H422.384V144.12C422.384 142.122 423.518 141.042 425.516 141.042H430.754V139.53C430.754 137.802 431.78 136.992 433.724 136.992C435.668 136.992 436.694 137.802 436.694 139.53V141.042H441.932C443.984 141.042 445.064 142.122 445.064 144.12V146.496H446.522C447.548 146.496 448.196 147.144 448.196 148.332C448.196 149.52 447.548 150.168 446.522 150.168H445.064V152.652C445.064 154.65 443.984 155.73 441.932 155.73H436.694V157.404H443.012C444.686 157.404 445.658 158.052 445.928 159.402C448.142 154.11 449.276 146.928 449.762 140.124C449.924 137.748 451.112 136.938 453.164 137.1C455.216 137.262 456.188 138.342 455.918 140.61C455.594 143.31 455.108 146.01 454.46 148.602H465.044C466.286 148.602 466.988 149.304 466.988 150.546C466.988 151.788 466.286 152.544 465.044 152.544H463.316C462.884 160.914 461.534 168.042 458.942 173.874C460.832 176.574 463.1 178.896 465.746 181.11ZM427.73 145.038V146.604H430.862V144.39H428.378C428 144.39 427.73 144.66 427.73 145.038ZM436.586 144.39V146.604H439.772V145.038C439.772 144.66 439.502 144.39 439.124 144.39H436.586ZM428.378 152.382H430.862V150.006H427.73V151.734C427.73 152.112 428 152.382 428.378 152.382ZM436.586 150.006V152.382H439.124C439.502 152.382 439.772 152.112 439.772 151.734V150.006H436.586ZM457.16 152.544H453.272C453.056 153.192 452.84 153.894 452.57 154.542C453.11 159.726 454.082 163.992 455.54 167.556C456.566 163.344 456.998 158.484 457.16 152.544ZM445.118 184.242C448.79 181.218 451.382 178.032 453.218 174.252C451.544 170.148 450.41 165.396 449.87 160.05C449.384 160.806 448.898 161.508 448.412 162.102C447.71 162.858 446.9 162.966 446.144 162.534C446.09 162.534 446.09 162.48 446.036 162.426V164.154C446.036 166.152 445.064 167.124 443.012 167.124H434.696C434.372 167.826 434.048 168.582 433.67 169.338H446.846C448.034 169.338 448.736 169.986 448.736 171.174C448.736 172.416 448.034 173.064 446.846 173.064H443.498C442.904 175.116 441.986 177.006 440.69 178.734C441.77 179.166 442.796 179.598 443.768 180.084C445.712 181.002 446.144 182.352 445.226 184.026C445.172 184.08 445.172 184.134 445.118 184.242ZM426.92 163.128C426.92 163.506 427.19 163.776 427.568 163.776H430.754V160.752H427.568C427.19 160.752 426.92 161.022 426.92 161.4V163.128ZM439.88 160.752H436.694V163.776H439.88C440.258 163.776 440.528 163.506 440.528 163.128V161.4C440.528 161.022 440.258 160.752 439.88 160.752ZM431.834 173.064C431.402 173.928 430.97 174.792 430.538 175.602C432.05 175.926 433.724 176.358 435.344 176.844C436.154 175.71 436.856 174.468 437.342 173.064H431.834Z" fill="#594A39"/>
<path d="M527.09 178.464C528.602 179.652 528.818 181.38 527.522 182.73C526.172 184.08 524.552 183.972 523.364 182.568C521.15 180.03 519.746 176.304 518.882 172.254L517.748 172.578C518.504 174.63 518.936 176.898 518.936 179.22C518.936 187.86 513.104 189.912 506.3 185.862C505.49 185.43 505.328 184.674 505.598 183.864C505.868 183.108 506.516 182.838 507.488 183C512.132 183.972 513.59 183.594 513.752 179.058C510.296 181.164 505.598 183.108 501.116 183.81C500.144 183.972 499.55 183.648 499.334 182.784C499.064 181.974 499.442 181.218 500.414 180.894C505.868 179.274 510.188 176.952 513.374 174.09L513.158 173.064C510.35 175.062 506.678 176.79 503.222 177.708C502.196 177.978 501.602 177.546 501.278 176.736C500.144 180.57 498.47 183.594 496.148 186.24C495.392 187.104 494.42 187.212 493.664 186.618C492.962 186.024 492.854 185.268 493.286 184.458C495.986 179.328 496.904 172.902 496.904 159.888V147.522C496.904 145.632 498.038 144.552 500.036 144.552C501.602 144.552 502.628 145.092 502.952 146.226H508.568V140.016C508.568 137.964 509.702 137.1 511.7 137.1C513.752 137.1 514.832 137.964 514.832 139.908V140.88H523.31C524.444 140.88 525.092 141.528 525.092 142.608C525.092 143.742 524.444 144.39 523.31 144.39H514.832V146.226H524.39C527.036 146.226 528.116 148.332 526.766 150.384C525.686 152.058 524.714 153.138 523.904 153.84C523.202 154.326 522.5 154.38 521.852 153.894C521.258 153.408 521.096 152.868 521.42 152.22C521.69 151.68 521.96 151.14 522.122 150.654C522.284 150.114 522.068 149.844 521.636 149.844H512.618V151.68C514.562 151.464 516.56 151.194 518.774 150.924C519.8 150.816 520.502 151.194 520.664 152.274C520.826 153.3 520.34 154.002 519.206 154.11C517.046 154.434 514.832 154.704 512.672 154.974C512.834 156.054 513.59 156.378 515.966 156.378C518.126 156.378 520.286 156.108 521.96 155.514C523.148 155.136 524.012 155.298 524.498 156.54C525.038 157.836 524.714 158.862 523.472 159.402C521.798 160.104 519.854 160.266 514.832 160.266C508.73 160.266 507.488 159.294 507.434 155.622C506.192 155.784 505.004 155.946 503.816 156.054H503.114V161.562C503.384 161.4 503.762 161.292 504.194 161.292H525.362C526.442 161.292 527.09 161.886 527.09 162.966C527.09 164.046 526.442 164.586 525.362 164.586H516.506C515.804 165.234 514.994 165.936 514.076 166.638C515.048 167.664 515.858 168.798 516.56 170.094C518.072 169.068 519.476 167.88 520.934 166.26C521.96 165.126 523.526 164.964 524.66 166.206C525.848 167.556 525.578 168.906 524.012 169.878C523.202 170.418 522.284 170.904 521.366 171.282C522.77 174.144 524.876 176.682 527.09 178.464ZM495.014 148.71C496.202 148.71 496.904 149.412 496.904 150.6C496.904 151.788 496.202 152.49 495.014 152.49H492.368V160.806C493.07 160.536 493.772 160.266 494.474 159.942C495.392 159.564 496.094 159.726 496.58 160.536C497.012 161.346 496.85 162.102 496.094 162.696C495.014 163.614 493.718 164.586 492.368 165.45V182.136C492.368 187.59 487.4 189.048 481.352 186.186C480.434 185.754 480.164 184.998 480.38 184.08C480.596 183.162 481.19 182.838 482.324 182.946C485.402 183.378 486.05 182.946 486.05 181.218V169.014C485.51 169.23 484.97 169.5 484.43 169.716C482.486 170.58 481.082 169.986 480.434 167.88C479.732 165.882 480.488 164.478 482.486 163.992L486.05 163.02V152.49H482.864C481.622 152.49 480.974 151.788 480.974 150.6C480.974 149.412 481.622 148.71 482.864 148.71H486.05V140.34C486.05 138.342 487.184 137.37 489.182 137.37C491.234 137.37 492.368 138.234 492.368 140.286V148.71H495.014ZM507.434 152.274V149.844H503.114V152.76C503.222 152.76 503.33 152.706 503.492 152.706C504.788 152.598 506.084 152.436 507.434 152.274ZM504.194 164.586C503.708 164.586 503.33 164.478 503.006 164.316C502.952 166.044 502.844 167.664 502.682 169.176C502.844 168.96 503.114 168.744 503.438 168.636C505.814 167.556 508.244 166.152 509.918 164.586H504.194ZM502.196 174.684C506.246 173.118 509.162 171.606 511.754 169.122C511.646 168.852 511.538 168.636 511.376 168.366C509.27 169.608 506.84 170.742 504.356 171.39C503.384 171.66 502.844 171.282 502.52 170.472C502.358 172.092 502.088 173.55 501.764 174.954C501.872 174.846 502.034 174.738 502.196 174.684Z" fill="#594A39"/>
<path opacity="0.2" d="M348.26 411.301C348.26 411.301 395.133 382.773 446.433 387.629C447.829 387.765 449.237 387.534 450.516 386.959C451.795 386.385 452.902 385.485 453.729 384.351C454.555 383.217 455.07 381.89 455.227 380.495C455.383 379.1 455.175 377.688 454.62 376.399C444.008 351.027 407.746 297.49 291.684 296.336" fill="#7DBE37"/>
<path opacity="0.2" d="M157.796 468.601C126.28 481.507 97.4792 500.248 72.902 523.839C71.9236 524.836 70.7008 525.562 69.3579 525.946C68.015 526.33 66.5962 526.357 65.2393 526.026C63.8824 525.696 62.635 525.019 61.6182 524.061C60.6013 523.103 59.8504 521.897 59.439 520.561C51.2528 494.217 44.5211 429.512 132.871 354.366" fill="#7DBE37"/>
<path d="M315.092 269.203C315.092 269.203 377.124 259.675 418.601 217.671C419.731 216.544 421.134 215.728 422.672 215.303C424.209 214.877 425.828 214.856 427.377 215.24C428.925 215.625 430.349 216.403 431.51 217.499C432.67 218.594 433.529 219.969 434.003 221.494C443.341 251.844 451.042 325.472 349.897 411.726" fill="#5E9A33"/>
<path d="M361.569 505.445C372.165 499.014 374.112 482.833 365.917 469.303C357.721 455.773 342.486 450.017 331.891 456.448C321.295 462.879 319.352 479.061 327.547 492.592C335.743 506.122 350.974 511.876 361.569 505.445Z" fill="#FEFAE9"/>
<path d="M258.246 544.437C270.492 542.55 278.47 528.344 276.065 512.705C273.661 497.066 261.785 485.917 249.538 487.804C237.291 489.69 229.311 503.899 231.716 519.538C234.12 535.177 245.999 546.324 258.246 544.437Z" fill="#FEFAE9"/>
<path d="M184.963 177.851C184.963 177.851 198.848 206.015 258.395 210.749C274.963 212.046 290.86 217.861 304.359 227.563C346.261 257.913 421.937 329.418 389.253 434.671C389.253 434.671 369.484 485.232 304.783 508.602C304.783 508.602 244.995 535.615 192.3 509.028C143.789 484.749 93.3965 398.372 125.171 289.78C129.767 274.108 138.779 260.095 151.126 249.416C167.195 235.273 190.481 211.357 184.963 177.851Z" fill="#FEFAE9"/>
<path d="M115.711 340.951C117 323.611 120.131 306.457 125.049 289.78C129.646 274.108 138.658 260.095 151.004 249.416C167.195 235.273 190.481 211.357 184.963 177.851C184.963 177.851 198.848 206.015 258.395 210.749C274.963 212.046 290.86 217.861 304.359 227.563C317.473 237.054 329.766 247.633 341.107 259.188C335.043 275.576 311.212 331.48 248.876 354.182C248.876 354.182 190.781 376.825 115.711 340.951Z" fill="#7DBE37"/>
<path d="M340.8 258.886C354.369 276.186 364.646 295.834 371.119 316.853C378.396 343.925 361.478 379.919 333.099 390.238C220.614 431.21 115.709 341.678 115.709 341.678C115.709 341.678 114.375 323.468 146.028 311.328C177.682 299.188 300.417 255.122 300.417 255.122C300.417 255.122 330.916 245.471 340.8 258.886Z" fill="#F2E865"/>
<path d="M289.623 284.075C310.755 284.075 327.886 266.927 327.886 245.773C327.886 224.62 310.755 207.472 289.623 207.472C268.491 207.472 251.36 224.62 251.36 245.773C251.36 266.927 268.491 284.075 289.623 284.075Z" fill="white"/>
<path d="M192.419 319.523C213.551 319.523 230.682 302.375 230.682 281.222C230.682 260.069 213.551 242.92 192.419 242.92C171.287 242.92 154.156 260.069 154.156 281.222C154.156 302.375 171.287 319.523 192.419 319.523Z" fill="white"/>
<path d="M330.253 260.524H329.948C329.52 260.486 329.105 260.361 328.725 260.159C328.345 259.957 328.008 259.681 327.736 259.347C327.465 259.013 327.264 258.628 327.144 258.215C327.024 257.801 326.987 257.368 327.038 256.94L328.311 243.831C328.466 243.033 328.913 242.321 329.563 241.834C330.213 241.346 331.023 241.118 331.831 241.193C332.64 241.269 333.39 241.643 333.939 242.243C334.488 242.842 334.796 243.623 334.801 244.436L333.466 257.61C333.404 258.415 333.036 259.164 332.438 259.706C331.84 260.248 331.059 260.542 330.253 260.524Z" fill="#E27E7C"/>
<path d="M340.501 260.645H340.196C339.337 260.553 338.55 260.124 338.005 259.453C337.46 258.782 337.2 257.922 337.285 257.061L338.621 243.952C338.658 243.523 338.78 243.105 338.982 242.725C339.183 242.345 339.46 242.01 339.793 241.738C340.127 241.466 340.511 241.263 340.924 241.142C341.337 241.022 341.77 240.988 342.197 241.039C342.624 241.076 343.04 241.198 343.417 241.4C343.794 241.603 344.125 241.88 344.391 242.215C344.658 242.55 344.853 242.937 344.966 243.35C345.079 243.764 345.108 244.195 345.049 244.619L343.776 257.731C343.699 258.541 343.317 259.292 342.71 259.832C342.102 260.373 341.314 260.663 340.501 260.645Z" fill="#E27E7C"/>
<path d="M149.004 322.378C148.575 322.34 148.158 322.215 147.778 322.013C147.398 321.811 147.063 321.538 146.792 321.204C146.521 320.87 146.32 320.482 146.2 320.069C146.08 319.655 146.043 319.222 146.093 318.794L147.366 305.685C147.458 304.825 147.886 304.035 148.557 303.489C149.227 302.943 150.083 302.687 150.943 302.772C151.372 302.809 151.789 302.932 152.169 303.133C152.549 303.335 152.883 303.612 153.155 303.946C153.426 304.279 153.63 304.664 153.75 305.078C153.87 305.491 153.904 305.925 153.854 306.352L152.521 319.464C152.483 319.887 152.361 320.298 152.163 320.673C151.965 321.049 151.696 321.384 151.369 321.655C151.042 321.925 150.665 322.129 150.259 322.253C149.853 322.377 149.426 322.419 149.004 322.378Z" fill="#E27E7C"/>
<path d="M159.495 322.558C159.072 322.52 158.662 322.4 158.286 322.203C157.911 322.005 157.577 321.733 157.306 321.405C157.036 321.078 156.832 320.7 156.708 320.294C156.584 319.887 156.542 319.46 156.584 319.037L157.919 305.866C158.026 305.024 158.447 304.255 159.101 303.714C159.754 303.173 160.587 302.899 161.434 302.952C161.862 302.99 162.28 303.115 162.66 303.317C163.04 303.519 163.374 303.792 163.646 304.126C163.917 304.46 164.121 304.848 164.241 305.261C164.361 305.675 164.395 306.108 164.344 306.536L163.071 319.645C162.965 320.498 162.536 321.277 161.869 321.82C161.203 322.363 160.351 322.627 159.495 322.558Z" fill="#E27E7C"/>
<path d="M199.999 286.927C209.042 286.927 216.372 279.59 216.372 270.538C216.372 261.487 209.042 254.149 199.999 254.149C190.957 254.149 183.627 261.487 183.627 270.538C183.627 279.59 190.957 286.927 199.999 286.927Z" fill="#4A1E0E"/>
<path d="M289.441 254.393C298.483 254.393 305.813 247.055 305.813 238.004C305.813 228.952 298.483 221.615 289.441 221.615C280.399 221.615 273.068 228.952 273.068 238.004C273.068 247.055 280.399 254.393 289.441 254.393Z" fill="#4A1E0E"/>
<path d="M373.728 509.03C372.92 509.037 372.117 508.891 371.362 508.603C369.643 507.973 368.242 506.687 367.469 505.025C366.696 503.364 366.616 501.464 367.241 499.741L383.067 456.768C383.377 455.916 383.853 455.135 384.467 454.468C385.082 453.802 385.823 453.264 386.646 452.885C387.47 452.507 388.359 452.295 389.264 452.263C390.169 452.231 391.072 452.379 391.92 452.699C393.629 453.341 395.019 454.631 395.79 456.288C396.561 457.945 396.653 459.837 396.044 461.561L380.215 504.536C379.721 505.858 378.835 506.997 377.675 507.8C376.515 508.603 375.138 509.033 373.728 509.03Z" fill="#695D41"/>
<path d="M363.847 513.277C362.162 513.275 360.534 512.658 359.272 511.54C358.011 510.422 357.2 508.881 356.993 507.207L351.841 473.884C351.562 472.074 352.01 470.224 353.09 468.745C354.17 467.266 355.791 466.276 357.6 465.992C358.497 465.837 359.419 465.864 360.306 466.072C361.193 466.28 362.028 466.666 362.763 467.204C363.499 467.742 364.117 468.422 364.584 469.205C365.052 469.987 365.359 470.856 365.484 471.759L370.636 505.085C370.915 506.896 370.467 508.742 369.387 510.221C368.307 511.701 366.686 512.691 364.877 512.975L363.847 513.277Z" fill="#695D41"/>
<path d="M261.242 550H260.395C259.487 549.903 258.607 549.625 257.808 549.182C257.009 548.74 256.306 548.14 255.741 547.422C255.176 546.704 254.76 545.882 254.518 545C254.276 544.119 254.213 543.198 254.332 542.291L259.122 503.323C259.238 502.418 259.528 501.545 259.981 500.753C260.433 499.961 261.037 499.266 261.757 498.708C262.478 498.15 263.303 497.738 264.182 497.499C265.062 497.259 265.979 497.196 266.883 497.312C267.786 497.428 268.659 497.722 269.45 498.175C270.241 498.628 270.935 499.231 271.493 499.953C272.05 500.674 272.459 501.497 272.698 502.377C272.937 503.257 273.003 504.179 272.887 505.083L268.034 543.99C267.828 545.648 267.026 547.175 265.775 548.281C264.525 549.388 262.911 549.999 261.242 550Z" fill="#695D41"/>
<path d="M271.551 546.903C270.28 546.943 269.03 546.583 267.975 545.872C266.41 544.927 265.282 543.402 264.839 541.627C264.396 539.853 264.673 537.973 265.609 536.402L292.716 491.364C293.66 489.798 295.183 488.671 296.956 488.228C298.728 487.784 300.603 488.058 302.173 488.995C303.741 489.952 304.871 491.491 305.314 493.275C305.757 495.059 305.477 496.947 304.538 498.527L277.435 543.566C276.822 544.58 275.957 545.421 274.927 546.005C273.897 546.59 272.735 546.897 271.551 546.903Z" fill="#695D41"/>
<path d="M272.582 267.806L257.544 206.742C257.34 205.98 256.893 205.308 256.268 204.827C255.643 204.347 254.876 204.086 254.088 204.086C253.3 204.086 252.534 204.347 251.909 204.827C251.284 205.308 250.833 205.98 250.63 206.742L232.439 276.185C232.001 277.826 232.089 279.56 232.687 281.15C233.285 282.739 234.365 284.103 235.775 285.047L292.716 322.558C293.374 323.02 294.166 323.248 294.969 323.204C295.772 323.159 296.537 322.845 297.139 322.312C297.742 321.778 298.148 321.059 298.291 320.266C298.434 319.474 298.308 318.656 297.93 317.946L272.703 267.928L272.582 267.806Z" fill="#695D41"/>
<path d="M232.379 276.123L250.571 206.683C250.729 206.001 251.092 205.384 251.613 204.916C252.134 204.449 252.787 204.154 253.481 204.072C253.028 204.567 252.789 205.223 252.815 205.895L248.51 270.234C248.445 271.859 248.704 273.483 249.277 275.006C249.85 276.528 250.723 277.921 251.844 279.099L294.836 321.589C295.038 321.833 295.289 322.032 295.57 322.178C295.851 322.324 296.157 322.412 296.473 322.436C295.901 322.825 295.226 323.035 294.534 323.035C293.842 323.035 293.167 322.825 292.594 322.436L235.654 284.926C234.266 283.978 233.206 282.622 232.619 281.046C232.033 279.47 231.949 277.749 232.379 276.123Z" fill="#84765B"/>
<path d="M10.2615 366.385C59.1967 370.998 104.615 349.084 118.38 341.679C121.555 339.918 125.24 339.319 128.809 339.98C136.972 341.244 144.598 344.844 150.763 350.348C156.929 355.852 161.37 363.022 163.554 370.997C171.559 398.373 171.255 443.837 163.554 462.776C162.741 464.813 161.292 466.536 159.424 467.684C157.556 468.832 155.369 469.344 153.185 469.148C47.068 458.89 11.8362 405.659 0.739332 379.254C0.106959 377.765 -0.125595 376.137 0.0642548 374.53C0.254105 372.923 0.861069 371.393 1.82301 370.093C2.78495 368.793 4.07073 367.765 5.55073 367.114C7.03074 366.464 8.65422 366.214 10.2615 366.385Z" fill="#5E9A33"/>
</svg>
