<svg width="632" height="550" viewBox="0 0 632 550" fill="none" xmlns="http://www.w3.org/2000/svg">
<path opacity="0.7" d="M436.976 0C569.531 0 642.416 50.7446 629.621 136.21C618.874 208 561.841 235.816 474.218 244.799C474.003 251.89 472.201 258.844 468.948 265.146C465.695 271.449 461.072 276.941 455.419 281.219C454.775 281.715 453.993 282.005 453.181 282.046C452.369 282.087 451.563 281.879 450.872 281.45C450.18 281.022 449.637 280.394 449.311 279.648C448.986 278.902 448.894 278.073 449.051 277.274C450.007 271.782 449.597 266.14 447.852 260.846C446.106 255.551 443.08 250.768 439.046 246.924C427.565 247.41 435.621 247.654 423.211 247.654C290.655 247.654 200 198.184 200 111.444C200 24.7039 304.42 0 436.976 0Z" fill="#B8C318"/>
<path opacity="0.2" d="M348.26 411.301C348.26 411.301 395.133 382.773 446.433 387.629C447.829 387.764 449.237 387.533 450.516 386.959C451.795 386.384 452.902 385.484 453.729 384.351C454.555 383.217 455.07 381.889 455.227 380.495C455.383 379.1 455.175 377.687 454.62 376.398C444.008 351.026 407.746 297.489 291.684 296.336" fill="#7DBE37"/>
<path opacity="0.2" d="M157.796 468.601C126.28 481.507 97.4792 500.247 72.902 523.838C71.9236 524.836 70.7008 525.562 69.3579 525.946C68.015 526.329 66.5962 526.356 65.2393 526.026C63.8824 525.695 62.635 525.019 61.6182 524.061C60.6013 523.102 59.8504 521.896 59.439 520.56C51.2528 494.217 44.5211 429.511 132.871 354.365" fill="#7DBE37"/>
<path d="M315.092 269.203C315.092 269.203 377.124 259.675 418.601 217.671C419.732 216.544 421.135 215.728 422.672 215.303C424.21 214.877 425.829 214.856 427.377 215.24C428.925 215.625 430.35 216.403 431.51 217.499C432.671 218.594 433.529 219.969 434.003 221.494C443.342 251.844 451.042 325.472 349.897 411.726" fill="#5E9A33"/>
<path d="M361.569 505.445C372.164 499.014 374.112 482.833 365.916 469.303C357.721 455.773 342.486 450.017 331.89 456.448C321.294 462.879 319.351 479.061 327.547 492.592C335.742 506.122 350.973 511.876 361.569 505.445Z" fill="#FEFAE9"/>
<path d="M258.246 544.437C270.493 542.55 278.47 528.345 276.066 512.706C273.661 497.067 261.785 485.917 249.538 487.804C237.291 489.691 229.311 503.9 231.716 519.539C234.121 535.178 245.999 546.324 258.246 544.437Z" fill="#FEFAE9"/>
<path d="M184.962 177.852C184.962 177.852 198.848 206.016 258.395 210.75C274.963 212.046 290.86 217.862 304.359 227.564C346.26 257.914 421.937 329.419 389.253 434.672C389.253 434.672 369.484 485.233 304.782 508.603C304.782 508.603 244.994 535.616 192.299 509.029C143.788 484.75 93.396 398.373 125.171 289.781C129.767 274.109 138.779 260.096 151.125 249.417C167.195 235.274 190.48 211.358 184.962 177.852Z" fill="#FEFAE9"/>
<path d="M115.711 340.952C117 323.612 120.131 306.458 125.049 289.781C129.646 274.109 138.658 260.096 151.004 249.417C167.195 235.274 190.481 211.358 184.963 177.852C184.963 177.852 198.848 206.016 258.395 210.75C274.963 212.046 290.86 217.862 304.359 227.564C317.473 237.055 329.766 247.634 341.107 259.189C335.043 275.577 311.212 331.481 248.876 354.183C248.876 354.183 190.781 376.826 115.711 340.952Z" fill="#7DBE37"/>
<path d="M340.8 258.885C354.37 276.185 364.647 295.833 371.12 316.852C378.396 343.924 361.478 379.918 333.099 390.237C220.615 431.209 115.71 341.677 115.71 341.677C115.71 341.677 114.376 323.467 146.029 311.327C177.682 299.187 300.417 255.121 300.417 255.121C300.417 255.121 330.916 245.47 340.8 258.885Z" fill="#F2E865"/>
<path d="M289.623 284.076C310.755 284.076 327.886 266.928 327.886 245.774C327.886 224.621 310.755 207.473 289.623 207.473C268.491 207.473 251.36 224.621 251.36 245.774C251.36 266.928 268.491 284.076 289.623 284.076Z" fill="white"/>
<path d="M192.42 319.523C213.552 319.523 230.682 302.375 230.682 281.221C230.682 260.068 213.552 242.92 192.42 242.92C171.288 242.92 154.157 260.068 154.157 281.221C154.157 302.375 171.288 319.523 192.42 319.523Z" fill="white"/>
<path d="M330.253 260.524H329.948C329.52 260.486 329.105 260.361 328.725 260.16C328.345 259.958 328.008 259.681 327.736 259.347C327.465 259.014 327.264 258.629 327.144 258.215C327.024 257.802 326.987 257.368 327.038 256.941L328.311 243.832C328.466 243.034 328.913 242.321 329.563 241.834C330.213 241.347 331.023 241.118 331.831 241.194C332.64 241.27 333.39 241.644 333.939 242.243C334.488 242.842 334.796 243.623 334.801 244.436L333.466 257.611C333.404 258.416 333.036 259.164 332.438 259.706C331.84 260.248 331.059 260.542 330.253 260.524Z" fill="#E27E7C"/>
<path d="M340.5 260.644H340.195C339.336 260.552 338.55 260.123 338.004 259.453C337.459 258.782 337.2 257.921 337.285 257.061L338.62 243.952C338.658 243.523 338.78 243.105 338.981 242.725C339.183 242.344 339.459 242.009 339.793 241.738C340.126 241.466 340.511 241.262 340.924 241.142C341.337 241.022 341.77 240.988 342.197 241.038C342.623 241.075 343.04 241.197 343.417 241.4C343.794 241.602 344.124 241.88 344.391 242.215C344.658 242.55 344.852 242.937 344.965 243.35C345.078 243.763 345.107 244.194 345.048 244.618L343.775 257.731C343.699 258.541 343.317 259.291 342.709 259.832C342.102 260.373 341.313 260.663 340.5 260.644Z" fill="#E27E7C"/>
<path d="M149.004 322.378C148.575 322.34 148.158 322.215 147.778 322.013C147.398 321.811 147.063 321.538 146.792 321.204C146.521 320.87 146.32 320.482 146.2 320.069C146.08 319.655 146.043 319.222 146.093 318.794L147.366 305.685C147.458 304.825 147.886 304.035 148.557 303.489C149.227 302.943 150.083 302.687 150.943 302.772C151.372 302.809 151.789 302.932 152.169 303.133C152.549 303.335 152.883 303.612 153.155 303.946C153.426 304.279 153.63 304.664 153.75 305.078C153.87 305.491 153.904 305.925 153.854 306.352L152.521 319.464C152.483 319.887 152.361 320.298 152.163 320.673C151.965 321.049 151.696 321.384 151.369 321.655C151.042 321.925 150.665 322.129 150.259 322.253C149.853 322.377 149.426 322.419 149.004 322.378Z" fill="#E27E7C"/>
<path d="M159.494 322.558C159.071 322.52 158.662 322.4 158.286 322.202C157.91 322.004 157.577 321.732 157.306 321.405C157.035 321.077 156.832 320.7 156.708 320.293C156.584 319.887 156.542 319.459 156.583 319.037L157.919 305.865C158.025 305.023 158.447 304.255 159.1 303.714C159.754 303.172 160.587 302.899 161.433 302.952C161.862 302.989 162.279 303.115 162.659 303.316C163.039 303.518 163.374 303.792 163.645 304.125C163.917 304.459 164.12 304.847 164.24 305.261C164.36 305.674 164.394 306.108 164.344 306.535L163.071 319.644C162.964 320.498 162.535 321.277 161.869 321.82C161.202 322.362 160.35 322.627 159.494 322.558Z" fill="#E27E7C"/>
<path d="M200 286.926C209.042 286.926 216.372 279.589 216.372 270.537C216.372 261.486 209.042 254.148 200 254.148C190.958 254.148 183.627 261.486 183.627 270.537C183.627 279.589 190.958 286.926 200 286.926Z" fill="#4A1E0E"/>
<path d="M289.441 254.393C298.483 254.393 305.814 247.056 305.814 238.004C305.814 228.953 298.483 221.615 289.441 221.615C280.399 221.615 273.069 228.953 273.069 238.004C273.069 247.056 280.399 254.393 289.441 254.393Z" fill="#4A1E0E"/>
<path d="M373.729 509.029C372.921 509.036 372.118 508.89 371.363 508.602C369.643 507.973 368.243 506.686 367.469 505.025C366.696 503.363 366.616 501.463 367.241 499.74L383.067 456.767C383.378 455.915 383.853 455.134 384.468 454.467C385.082 453.801 385.824 453.263 386.647 452.884C387.47 452.506 388.359 452.294 389.264 452.262C390.17 452.23 391.073 452.378 391.92 452.698C393.63 453.34 395.019 454.63 395.79 456.287C396.561 457.944 396.654 459.836 396.045 461.56L380.216 504.535C379.721 505.857 378.835 506.996 377.676 507.799C376.516 508.602 375.139 509.032 373.729 509.029Z" fill="#695D41"/>
<path d="M363.847 513.277C362.162 513.275 360.534 512.658 359.272 511.54C358.011 510.422 357.2 508.881 356.993 507.207L351.841 473.884C351.562 472.074 352.01 470.224 353.09 468.745C354.17 467.266 355.791 466.276 357.6 465.992C358.497 465.837 359.419 465.864 360.306 466.072C361.193 466.28 362.028 466.666 362.763 467.204C363.499 467.742 364.117 468.422 364.584 469.205C365.052 469.987 365.359 470.856 365.484 471.759L370.636 505.085C370.915 506.896 370.467 508.742 369.387 510.221C368.307 511.701 366.686 512.691 364.877 512.975L363.847 513.277Z" fill="#695D41"/>
<path d="M261.242 550H260.395C259.487 549.903 258.607 549.625 257.808 549.182C257.009 548.74 256.306 548.14 255.741 547.422C255.176 546.704 254.76 545.882 254.518 545C254.276 544.119 254.213 543.198 254.332 542.291L259.122 503.323C259.238 502.418 259.528 501.545 259.981 500.753C260.433 499.961 261.037 499.266 261.757 498.708C262.478 498.15 263.303 497.738 264.182 497.499C265.062 497.259 265.979 497.196 266.883 497.312C267.786 497.428 268.659 497.722 269.45 498.175C270.241 498.628 270.935 499.231 271.493 499.953C272.05 500.674 272.459 501.497 272.698 502.377C272.937 503.257 273.003 504.179 272.887 505.083L268.034 543.99C267.828 545.648 267.026 547.175 265.775 548.281C264.525 549.388 262.911 549.999 261.242 550Z" fill="#695D41"/>
<path d="M271.552 546.902C270.281 546.942 269.03 546.582 267.975 545.871C266.411 544.926 265.283 543.401 264.84 541.627C264.396 539.852 264.673 537.972 265.609 536.401L292.716 491.363C293.66 489.797 295.184 488.67 296.956 488.227C298.729 487.783 300.604 488.057 302.173 488.994C303.742 489.951 304.872 491.49 305.315 493.274C305.757 495.059 305.478 496.946 304.539 498.526L277.435 543.565C276.822 544.579 275.957 545.42 274.927 546.004C273.897 546.589 272.736 546.896 271.552 546.902Z" fill="#695D41"/>
<path d="M272.582 267.806L257.544 206.742C257.341 205.98 256.893 205.307 256.268 204.827C255.643 204.347 254.877 204.086 254.089 204.086C253.301 204.086 252.535 204.347 251.91 204.827C251.285 205.307 250.834 205.98 250.631 206.742L232.439 276.185C232.001 277.825 232.09 279.56 232.688 281.149C233.286 282.738 234.365 284.103 235.776 285.047L292.716 322.557C293.374 323.02 294.166 323.248 294.969 323.203C295.773 323.158 296.537 322.844 297.14 322.311C297.742 321.778 298.148 321.058 298.292 320.266C298.435 319.474 298.308 318.656 297.93 317.945L272.704 267.927L272.582 267.806Z" fill="#695D41"/>
<path d="M232.379 276.124L250.571 206.683C250.729 206.001 251.092 205.384 251.613 204.917C252.134 204.45 252.787 204.154 253.481 204.072C253.028 204.568 252.789 205.224 252.815 205.895L248.51 270.234C248.445 271.86 248.704 273.484 249.277 275.006C249.85 276.529 250.723 277.921 251.844 279.099L294.836 321.589C295.038 321.833 295.289 322.033 295.57 322.179C295.851 322.325 296.157 322.412 296.473 322.437C295.901 322.826 295.226 323.035 294.534 323.035C293.842 323.035 293.167 322.826 292.594 322.437L235.654 284.926C234.266 283.978 233.206 282.623 232.619 281.046C232.033 279.47 231.949 277.749 232.379 276.124Z" fill="#84765B"/>
<path d="M10.2615 366.386C59.1967 370.999 104.615 349.084 118.38 341.679C121.555 339.919 125.24 339.319 128.809 339.981C136.972 341.244 144.598 344.845 150.763 350.348C156.929 355.852 161.37 363.023 163.554 370.998C171.559 398.373 171.255 443.838 163.554 462.776C162.741 464.814 161.292 466.536 159.424 467.684C157.556 468.833 155.369 469.344 153.185 469.148C47.068 458.89 11.8362 405.659 0.739332 379.255C0.106959 377.766 -0.125595 376.137 0.0642548 374.53C0.254105 372.924 0.861069 371.394 1.82301 370.094C2.78495 368.793 4.07073 367.765 5.55073 367.115C7.03074 366.465 8.65422 366.215 10.2615 366.386Z" fill="#5E9A33"/>
<path d="M302.761 165.69C303.363 167.625 302.761 168.872 300.998 169.388C299.063 169.99 297.73 169.431 297.171 167.539C296.354 164.744 295.494 161.949 294.634 159.154H283.626L280.831 167.711C280.315 169.388 279.197 169.947 277.52 169.431C275.843 168.915 275.241 167.754 275.843 166.034L284.787 140.234C285.561 137.912 286.894 136.794 289.13 136.794C291.366 136.794 293.172 137.912 293.989 140.234C296.655 147.63 300.052 157.219 302.761 165.69ZM284.916 155.198H293.43C292.097 150.898 290.764 146.641 289.431 142.513H289.087L284.916 155.198Z" fill="#594A39"/>
<path d="M322.444 145.996C327.045 145.996 330.442 149.092 330.442 154.51V166.765C330.442 168.614 329.41 169.646 327.518 169.646C325.626 169.646 324.594 168.614 324.594 166.765V154.983C324.594 151.801 323.175 149.995 320.81 149.995C318.273 149.995 316.381 152.059 315.736 154.596V166.765C315.736 168.614 314.704 169.646 312.769 169.646C310.92 169.646 309.845 168.614 309.845 166.765V148.705C309.845 146.985 310.834 146.039 312.597 146.039C314.317 145.996 315.306 146.899 315.306 148.662V149.995C316.768 147.329 319.348 145.996 322.444 145.996Z" fill="#594A39"/>
<path d="M351.081 145.996C355.682 145.996 359.079 149.092 359.079 154.51V166.765C359.079 168.614 358.047 169.646 356.155 169.646C354.263 169.646 353.231 168.614 353.231 166.765V154.983C353.231 151.801 351.812 149.995 349.447 149.995C346.91 149.995 345.018 152.059 344.373 154.596V166.765C344.373 168.614 343.341 169.646 341.406 169.646C339.557 169.646 338.482 168.614 338.482 166.765V148.705C338.482 146.985 339.471 146.039 341.234 146.039C342.954 145.996 343.943 146.899 343.943 148.662V149.995C345.405 147.329 347.985 145.996 351.081 145.996Z" fill="#594A39"/>
<path d="M384.276 145.996C386.125 145.996 387.157 147.028 387.157 148.834V167.066C387.157 168.7 386.211 169.646 384.534 169.646C382.857 169.646 381.911 168.7 381.868 167.109V165.776C380.578 168.27 378.041 169.603 374.902 169.603C369.699 169.603 366.732 166.593 366.732 161.304V148.877C366.732 147.028 367.764 145.996 369.656 145.996C371.548 145.996 372.623 147.028 372.623 148.877V160.487C372.623 164.013 373.698 165.561 376.278 165.561C379.073 165.561 380.922 162.68 381.395 160.659V148.834C381.395 147.028 382.427 145.996 384.276 145.996Z" fill="#594A39"/>
<path d="M412.401 148.576C413.691 149.909 414.336 151.844 414.336 154.424V166.851C414.336 168.657 413.519 169.646 411.756 169.646C409.95 169.646 409.047 168.657 409.047 166.851V165.69C407.499 168.313 404.661 169.646 401.264 169.646C396.749 169.646 393.997 167.023 393.997 162.852C393.997 157.821 398.684 154.596 405.865 154.51C406.983 154.467 408.101 154.553 408.703 154.682V154.252C408.703 151.457 407.284 149.909 404.618 149.866C402.253 149.823 400.275 151.027 398.727 152.618C397.867 153.521 396.577 153.693 395.674 152.919C394.771 152.188 394.642 150.984 395.459 149.909C396.921 148.06 400.146 145.996 404.704 145.996C408.23 145.996 410.724 146.856 412.401 148.576ZM408.703 161.562V158.294C408.015 158.208 406.94 158.122 405.908 158.165C401.221 158.337 399.501 160.358 399.544 162.465C399.587 164.4 400.576 165.475 402.64 165.518C405.048 165.561 407.499 163.841 408.703 161.562Z" fill="#594A39"/>
<path d="M428.054 169.646C423.969 169.603 422.378 167.883 422.378 163.239V138.342C422.378 136.493 423.41 135.461 425.302 135.461C427.151 135.461 428.226 136.493 428.226 138.342V163.368C428.226 164.787 428.484 165.217 429.473 165.217C430.204 165.217 430.462 164.916 431.193 164.916C431.967 164.916 432.87 165.561 432.87 166.98C432.87 169.087 430.634 169.646 428.054 169.646Z" fill="#594A39"/>
<path d="M465.691 169.259C462.896 169.259 461.133 169.13 459.585 168.915C457.607 168.614 456.618 167.496 456.618 165.561V140.836C456.618 138.901 457.65 137.783 459.671 137.568C461.176 137.396 462.681 137.267 465.433 137.267C475.882 137.267 482.375 142.685 482.375 152.704C482.375 163.454 476.57 169.259 465.691 169.259ZM465.433 165.174C473.259 165.174 476.269 160.917 476.269 152.962C476.269 145.222 472.528 141.352 465.261 141.352C464.358 141.352 463.541 141.438 463.025 141.481C462.724 141.524 462.595 141.696 462.595 141.954V164.486C462.595 164.744 462.724 164.916 463.025 165.002C463.584 165.088 464.487 165.174 465.433 165.174Z" fill="#594A39"/>
<path d="M506.835 148.576C508.125 149.909 508.77 151.844 508.77 154.424V166.851C508.77 168.657 507.953 169.646 506.19 169.646C504.384 169.646 503.481 168.657 503.481 166.851V165.69C501.933 168.313 499.095 169.646 495.698 169.646C491.183 169.646 488.431 167.023 488.431 162.852C488.431 157.821 493.118 154.596 500.299 154.51C501.417 154.467 502.535 154.553 503.137 154.682V154.252C503.137 151.457 501.718 149.909 499.052 149.866C496.687 149.823 494.709 151.027 493.161 152.618C492.301 153.521 491.011 153.693 490.108 152.919C489.205 152.188 489.076 150.984 489.893 149.909C491.355 148.06 494.58 145.996 499.138 145.996C502.664 145.996 505.158 146.856 506.835 148.576ZM503.137 161.562V158.294C502.449 158.208 501.374 158.122 500.342 158.165C495.655 158.337 493.935 160.358 493.978 162.465C494.021 164.4 495.01 165.475 497.074 165.518C499.482 165.561 501.933 163.841 503.137 161.562Z" fill="#594A39"/>
<path d="M527.838 164.529C528.913 164.529 529.601 165.819 529.601 166.765C529.601 168.786 526.548 169.302 524.312 169.302C520.012 169.302 518.034 167.195 518.034 162.508V150.683H515.411C514.25 150.683 513.562 149.952 513.562 148.662C513.562 147.372 514.25 146.641 515.411 146.641H518.034V143.244C518.034 141.395 519.066 140.363 520.958 140.363C522.85 140.363 523.882 141.395 523.882 143.244V146.641H527.58C528.741 146.641 529.386 147.372 529.386 148.662C529.386 149.952 528.741 150.683 527.58 150.683H523.882V162.465C523.882 164.443 524.398 165.174 525.387 165.088C526.333 165.002 526.935 164.529 527.838 164.529Z" fill="#594A39"/>
<path d="M552.897 148.576C554.187 149.909 554.832 151.844 554.832 154.424V166.851C554.832 168.657 554.015 169.646 552.252 169.646C550.446 169.646 549.543 168.657 549.543 166.851V165.69C547.995 168.313 545.157 169.646 541.76 169.646C537.245 169.646 534.493 167.023 534.493 162.852C534.493 157.821 539.18 154.596 546.361 154.51C547.479 154.467 548.597 154.553 549.199 154.682V154.252C549.199 151.457 547.78 149.909 545.114 149.866C542.749 149.823 540.771 151.027 539.223 152.618C538.363 153.521 537.073 153.693 536.17 152.919C535.267 152.188 535.138 150.984 535.955 149.909C537.417 148.06 540.642 145.996 545.2 145.996C548.726 145.996 551.22 146.856 552.897 148.576ZM549.199 161.562V158.294C548.511 158.208 547.436 158.122 546.404 158.165C541.717 158.337 539.997 160.358 540.04 162.465C540.083 164.4 541.072 165.475 543.136 165.518C545.544 165.561 547.995 163.841 549.199 161.562Z" fill="#594A39"/>
<path d="M497.689 112C497.41 112 496.714 111.507 495.599 110.522C494.553 109.537 494.031 108.06 494.031 106.09C494.1 103.909 494.449 101.622 495.076 99.2301C495.773 96.7676 496.435 94.5865 497.062 92.6869C497.48 91.4204 497.829 90.3651 498.107 89.5208C498.456 88.6765 498.63 88.1488 498.63 87.9377C498.56 87.9377 498.177 88.0081 497.48 88.1488C496.853 88.2895 496.052 88.4654 495.076 88.6765C491.661 89.3801 489.048 89.7318 487.236 89.7318C485.494 89.7318 483.996 88.6765 482.741 86.5657C482.323 86.1436 481.766 85.3697 481.069 84.2439C480.372 83.1182 479.884 81.887 479.605 80.5502C479.396 79.2134 479.745 78.0877 480.651 77.173C481.347 75.4141 481.905 74.1476 482.323 73.3737C482.741 72.5998 483.02 72.0369 483.159 71.6851C483.368 71.3333 483.473 70.9815 483.473 70.6298C483.543 70.489 483.647 70.278 483.786 69.9965C483.926 69.7151 484.1 69.4337 484.309 69.1523C484.936 68.0969 485.807 66.7249 486.922 65.0363C488.107 63.3478 489.327 61.6592 490.581 59.9706C491.905 58.2116 493.09 56.6638 494.135 55.327C495.18 53.9198 495.947 53.0052 496.435 52.583C496.853 52.372 497.585 52.0554 498.63 51.6332C499.745 51.2111 500.546 51 501.034 51C501.592 51 502.114 51.387 502.602 52.1609C503.16 52.8645 503.613 53.6032 503.961 54.3772C504.31 55.1511 504.484 55.6788 504.484 55.9602C504.484 55.9602 504.449 56.0306 504.379 56.1713C504.31 56.312 504.17 56.5582 503.961 56.91C503.682 57.3322 503.264 57.895 502.707 58.5986C502.219 59.3022 501.487 60.2168 500.512 61.3426C499.675 62.3276 498.63 63.7699 497.376 65.6696C496.121 67.4988 494.867 69.4689 493.612 71.5796C492.428 73.62 491.417 75.4493 490.581 77.0675C489.745 78.6857 489.327 79.7762 489.327 80.3391C489.327 80.6909 489.431 80.9723 489.64 81.1834C489.919 81.3241 490.407 81.3945 491.104 81.3945C492.01 81.2538 492.811 81.113 493.508 80.9723C494.275 80.8316 494.971 80.6909 495.599 80.5502C496.365 80.4095 497.027 80.2687 497.585 80.128C498.142 79.917 498.665 79.7411 499.153 79.6003C499.71 79.3893 500.198 79.2134 500.616 79.0727C501.104 78.8616 501.522 78.6153 501.871 78.3339C502.707 77.6303 503.334 76.6805 503.752 75.4844C504.17 74.2884 504.832 72.6701 505.738 70.6298C506.296 69.2226 506.853 67.9562 507.411 66.8305C508.038 65.6344 508.595 64.5438 509.083 63.5588C510.825 60.3224 512.289 57.9654 513.474 56.4879C514.658 54.94 515.32 54.1661 515.46 54.1661C515.669 54.1661 516.157 54.4475 516.923 55.0104C517.69 55.5732 518.421 56.1713 519.118 56.8045C519.676 57.297 520.129 57.7543 520.477 58.1765C520.826 58.5283 521 58.7745 521 58.9152C521 59.7595 520.791 60.639 520.373 61.5536C520.024 62.3979 519.502 63.3829 518.805 64.5087C518.108 65.6344 517.306 67.0767 516.4 68.8356C515.355 70.876 514.38 72.9164 513.474 74.9567C512.568 76.9268 511.697 78.8968 510.86 80.8668C510.024 82.7664 509.257 84.6309 508.561 86.4602C507.864 88.2895 507.202 90.0133 506.574 91.6315C505.041 95.7826 503.996 98.8431 503.439 100.813C502.881 102.783 502.602 104.155 502.602 104.929C502.672 105.633 502.811 106.231 503.02 106.723C503.02 107.638 502.742 108.517 502.184 109.362C501.627 110.136 500.93 110.769 500.093 111.261C499.257 111.754 498.456 112 497.689 112Z" fill="white"/>
<path d="M302.774 110.262C302.494 110.121 302.004 109.733 301.305 109.099C300.675 108.465 300.046 107.76 299.416 106.985C298.787 106.14 298.367 105.506 298.157 105.083C297.948 104.731 297.948 104.096 298.157 103.18C298.437 102.265 298.717 101.807 298.997 101.807C299.207 101.947 299.486 101.701 299.836 101.067C300.186 100.433 300.535 99.7632 300.885 99.0587C301.235 98.2836 301.41 97.8256 301.41 97.6847C301.48 97.4029 301.655 97.1915 301.934 97.0506C302.284 96.8392 302.599 96.6278 302.879 96.4165C303.228 95.8528 303.683 95.2891 304.243 94.7255C304.872 94.0913 305.362 93.5629 305.711 93.1402C306.271 92.4356 307.285 91.3787 308.754 89.9695C310.223 88.5604 311.657 87.116 313.056 85.6364C314.524 84.0158 315.818 82.6066 316.937 81.4089C318.057 80.1406 318.651 79.2599 318.721 78.7667C318.721 78.7667 318.826 78.661 319.036 78.4496C319.316 78.1678 319.63 77.9212 319.98 77.7098C320.33 77.4984 320.784 77.1461 321.344 76.6529C321.973 76.1597 322.498 75.7017 322.918 75.279C323.058 74.7153 323.372 74.0812 323.862 73.3766C324.422 72.6016 325.051 71.8618 325.75 71.1572C326.31 70.3117 326.835 69.3957 327.324 68.4093C327.814 67.3524 328.129 66.5774 328.268 66.0842C328.478 65.3091 328.408 64.8512 328.059 64.7102C327.709 64.4989 326.765 64.1466 325.226 63.6534C323.547 63.0897 321.973 62.984 320.505 63.3363C319.036 63.6886 317.077 64.7455 314.629 66.5069C313.65 66.7183 312.741 67.0001 311.901 67.3524C311.132 67.7047 310.468 67.8456 309.908 67.7752C309.628 67.6343 309.314 67.3172 308.964 66.824C308.614 66.3308 308.229 65.8728 307.81 65.4501L306.761 60.9055L310.013 59.1088C312.881 57.2769 315.609 55.903 318.196 54.987C320.854 54.0006 323.163 53.8244 325.121 54.4586C325.89 54.4586 326.59 54.5643 327.219 54.7756C327.849 54.9165 328.164 54.987 328.164 54.987C328.723 54.9165 329.528 55.1984 330.577 55.8325C331.696 56.4666 332.78 57.2769 333.829 58.2633C334.948 59.2497 335.718 60.2361 336.137 61.2226C337.256 62.9136 337.676 64.9568 337.396 67.3524C337.116 69.748 336.102 72.2493 334.354 74.8562C334.004 75.279 333.235 76.1597 332.046 77.4984C330.856 78.8371 329.493 80.352 327.954 82.043C326.485 83.6635 325.121 85.1079 323.862 86.3762C322.673 87.6444 321.904 88.4547 321.554 88.807C321.064 89.0184 320.225 89.6877 319.036 90.815C317.917 91.9424 316.693 93.2106 315.364 94.6198C314.105 95.9585 313.021 97.1563 312.111 98.2132C311.272 99.1996 310.922 99.6928 311.062 99.6928C310.992 99.9746 311.342 99.9746 312.111 99.6928C312.951 99.3405 313.685 99.0587 314.315 98.8473C315.364 98.495 316.588 98.1779 317.987 97.8961C319.455 97.5438 320.924 97.262 322.393 97.0506C323.862 96.8392 325.121 96.6983 326.17 96.6278C327.289 96.5574 327.954 96.6278 328.164 96.8392C328.303 97.1915 328.408 97.3324 328.478 97.262C328.618 97.1211 328.688 97.0506 328.688 97.0506C328.828 96.5574 329.702 96.4165 331.311 96.6278C332.99 96.8392 334.494 97.1563 335.823 97.579C336.592 97.7904 337.186 98.0722 337.606 98.4245C338.096 98.7768 338.341 99.0939 338.341 99.3757C338.341 99.3757 338.41 99.5519 338.55 99.9042C338.76 100.186 339.075 100.574 339.495 101.067C340.614 101.983 340.614 102.969 339.495 104.026C338.445 105.083 336.522 105.365 333.724 104.871C331.906 104.871 330.402 104.977 329.213 105.189C328.933 105.329 328.338 105.4 327.429 105.4C326.52 105.4 325.646 105.435 324.806 105.506C323.547 105.365 322.288 105.435 321.029 105.717C319.77 105.928 318.266 106.316 316.518 106.88C315.888 107.091 314.909 107.408 313.58 107.831C312.251 108.253 310.817 108.676 309.279 109.099C307.74 109.522 306.341 109.839 305.082 110.05C303.893 110.262 303.123 110.332 302.774 110.262Z" fill="#FDFDFB"/>
<path d="M376.144 110.79C375.655 110.79 374.745 110.614 373.416 110.262C372.157 109.909 370.828 109.486 369.43 108.993C368.101 108.43 367.051 107.831 366.282 107.197C363.904 105.153 362.19 102.899 361.141 100.433C360.092 97.8961 359.462 95.3244 359.253 92.7174C359.113 90.1105 359.218 87.6444 359.567 85.3193C360.337 80.81 361.945 76.3359 364.394 71.897C366.842 67.3877 369.779 63.6534 373.207 60.6941C375.025 59.0736 376.844 57.6996 378.662 56.5723C380.481 55.445 382.439 54.6347 384.538 54.1415C385.307 53.9301 386.391 53.8244 387.79 53.8244C389.259 53.754 390.238 53.7188 390.728 53.7188C392.127 53.7188 393.665 54.0358 395.344 54.6699C397.093 55.2336 398.596 55.9382 399.855 56.7837C401.114 57.5587 401.744 58.2985 401.744 59.0031C401.744 59.4963 401.709 59.9895 401.639 60.4827C401.569 60.976 401.254 61.0816 400.695 60.7998H399.646L400.695 63.9704C400.975 64.5341 401.219 65.3091 401.429 66.2956C401.639 67.2115 401.744 68.057 401.744 68.8321C401.744 69.5366 401.639 70.5935 401.429 72.0027C401.289 73.3414 401.044 74.7858 400.695 76.3359C400.415 77.8859 400.1 79.3303 399.75 80.669C399.471 82.0078 399.191 82.9942 398.911 83.6283C398.701 84.051 398.561 84.4738 398.491 84.8965C398.491 85.2488 398.491 85.5659 398.491 85.8477C398.212 86.4114 397.757 87.3978 397.128 88.807C396.498 90.2161 396.043 91.2026 395.764 91.7662C395.484 92.0481 395.239 92.2947 395.029 92.506C394.889 92.7174 394.959 92.964 395.239 93.2458C395.239 93.4572 395.064 93.9504 394.714 94.7255C394.365 95.4301 393.98 96.0994 393.56 96.7335C393.211 97.3677 392.931 97.6847 392.721 97.6847C392.721 97.6847 392.616 97.7199 392.406 97.7904C392.266 97.7904 392.196 97.8961 392.196 98.1075C392.196 98.3893 391.707 99.1291 390.728 100.327C389.818 101.525 388.734 102.758 387.475 104.026C386.776 104.731 385.657 105.647 384.118 106.774C382.579 107.831 381.04 108.782 379.502 109.627C378.033 110.402 376.914 110.79 376.144 110.79ZM375.934 100.644C376.704 100.644 377.438 100.538 378.138 100.327C378.837 100.045 379.432 99.6575 379.921 99.1643C381.18 98.3188 382.369 97.1915 383.488 95.7823C384.677 94.3732 385.657 92.7526 386.426 90.9207C387.195 89.8638 387.79 88.7717 388.21 87.6444C388.699 86.4466 389.434 84.4386 390.413 81.6202C390.972 80.8452 391.357 79.894 391.567 78.7667C391.777 77.6393 391.882 76.6882 391.882 75.9131C391.882 75.1381 391.882 74.0812 391.882 72.7425C391.952 71.4038 392.127 70.2764 392.406 69.3605C392.406 67.5286 392.371 66.4717 392.301 66.1899C392.231 65.8376 391.952 65.3796 391.462 64.8159C391.182 64.6046 390.798 64.3932 390.308 64.1818C389.888 63.9704 389.434 63.8647 388.944 63.8647C388.454 63.8647 387.79 64.0057 386.951 64.2875C386.181 64.4989 385.517 64.7807 384.957 65.133C384.468 65.4148 383.908 65.4501 383.279 65.2387C382.719 65.0273 382.439 64.7455 382.439 64.3932C382.439 63.4068 381.95 63.4772 380.97 64.6046C380.061 65.6614 378.837 67.1411 377.298 69.0434C376.039 70.3117 374.955 71.6152 374.046 72.9539C373.207 74.2221 372.787 74.9972 372.787 75.279C372.787 75.5608 372.682 75.9131 372.472 76.3359C372.262 76.7586 372.052 77.2518 371.843 77.8155C371.493 78.3087 371.073 79.119 370.584 80.2463C370.094 81.3736 369.604 82.501 369.115 83.6283C368.695 84.6852 368.415 85.4954 368.275 86.0591C368.275 86.3409 368.275 87.116 368.275 88.3842C368.275 89.582 368.275 90.7093 368.275 91.7662C368.275 92.964 368.31 93.8447 368.38 94.4084C368.45 94.9721 368.555 95.43 368.695 95.7823C368.905 96.1346 369.185 96.6631 369.534 97.3677C369.814 97.8609 370.234 98.4598 370.793 99.1643C371.423 99.7985 371.843 100.256 372.052 100.538C372.822 101.243 373.311 101.525 373.521 101.384C373.801 101.172 374.605 100.926 375.934 100.644Z" fill="#FDFDFB"/>
<path d="M423.026 110.262C422.747 110.121 422.257 109.733 421.558 109.099C420.928 108.465 420.299 107.76 419.669 106.985C419.04 106.14 418.62 105.506 418.41 105.083C418.2 104.731 418.2 104.096 418.41 103.18C418.69 102.265 418.97 101.807 419.249 101.807C419.459 101.947 419.739 101.701 420.089 101.067C420.439 100.433 420.788 99.7632 421.138 99.0587C421.488 98.2836 421.663 97.8256 421.663 97.6847C421.733 97.4029 421.907 97.1915 422.187 97.0506C422.537 96.8392 422.852 96.6278 423.131 96.4165C423.481 95.8528 423.936 95.2891 424.495 94.7255C425.125 94.0913 425.614 93.5629 425.964 93.1402C426.524 92.4356 427.538 91.3787 429.007 89.9695C430.476 88.5604 431.909 87.116 433.308 85.6364C434.777 84.0158 436.071 82.6066 437.19 81.4089C438.309 80.1406 438.904 79.2599 438.974 78.7667C438.974 78.7667 439.079 78.661 439.289 78.4496C439.568 78.1678 439.883 77.9212 440.233 77.7098C440.583 77.4984 441.037 77.1461 441.597 76.6529C442.226 76.1597 442.751 75.7017 443.171 75.279C443.31 74.7153 443.625 74.0812 444.115 73.3766C444.674 72.6016 445.304 71.8618 446.003 71.1572C446.563 70.3117 447.087 69.3957 447.577 68.4093C448.067 67.3524 448.381 66.5774 448.521 66.0842C448.731 65.3091 448.661 64.8512 448.311 64.7102C447.962 64.4989 447.017 64.1466 445.479 63.6534C443.8 63.0897 442.226 62.984 440.757 63.3363C439.289 63.6886 437.33 64.7455 434.882 66.5069C433.903 66.7183 432.994 67.0001 432.154 67.3524C431.385 67.7047 430.72 67.8456 430.161 67.7752C429.881 67.6343 429.566 67.3172 429.217 66.824C428.867 66.3308 428.482 65.8728 428.062 65.4501L427.013 60.9055L430.266 59.1088C433.133 57.2769 435.861 55.903 438.449 54.987C441.107 54.0006 443.415 53.8244 445.374 54.4586C446.143 54.4586 446.843 54.5643 447.472 54.7756C448.102 54.9165 448.416 54.987 448.416 54.987C448.976 54.9165 449.78 55.1984 450.829 55.8325C451.949 56.4666 453.033 57.2769 454.082 58.2633C455.201 59.2497 455.97 60.2361 456.39 61.2226C457.509 62.9136 457.929 64.9568 457.649 67.3524C457.369 69.748 456.355 72.2493 454.606 74.8562C454.257 75.279 453.487 76.1597 452.298 77.4984C451.109 78.8371 449.745 80.352 448.207 82.043C446.738 83.6635 445.374 85.1079 444.115 86.3762C442.926 87.6444 442.156 88.4547 441.807 88.807C441.317 89.0184 440.478 89.6877 439.289 90.815C438.169 91.9424 436.945 93.2106 435.617 94.6198C434.358 95.9585 433.273 97.1563 432.364 98.2132C431.525 99.1996 431.175 99.6928 431.315 99.6928C431.245 99.9746 431.595 99.9746 432.364 99.6928C433.203 99.3405 433.938 99.0587 434.567 98.8473C435.617 98.495 436.841 98.1779 438.239 97.8961C439.708 97.5438 441.177 97.262 442.646 97.0506C444.115 96.8392 445.374 96.6983 446.423 96.6278C447.542 96.5574 448.207 96.6278 448.416 96.8392C448.556 97.1915 448.661 97.3324 448.731 97.262C448.871 97.1211 448.941 97.0506 448.941 97.0506C449.081 96.5574 449.955 96.4165 451.564 96.6278C453.243 96.8392 454.746 97.1563 456.075 97.579C456.845 97.7904 457.439 98.0722 457.859 98.4245C458.348 98.7768 458.593 99.0939 458.593 99.3757C458.593 99.3757 458.663 99.5519 458.803 99.9042C459.013 100.186 459.328 100.574 459.747 101.067C460.866 101.983 460.866 102.969 459.747 104.026C458.698 105.083 456.775 105.365 453.977 104.871C452.158 104.871 450.655 104.977 449.466 105.189C449.186 105.329 448.591 105.4 447.682 105.4C446.773 105.4 445.898 105.435 445.059 105.506C443.8 105.365 442.541 105.435 441.282 105.717C440.023 105.928 438.519 106.316 436.771 106.88C436.141 107.091 435.162 107.408 433.833 107.831C432.504 108.253 431.07 108.676 429.531 109.099C427.993 109.522 426.594 109.839 425.335 110.05C424.146 110.262 423.376 110.332 423.026 110.262Z" fill="#FDFDFB"/>
</svg>
