<svg width="632" height="550" viewBox="0 0 632 550" fill="none" xmlns="http://www.w3.org/2000/svg">
<path opacity="0.7" d="M436.976 0C569.531 0 642.416 50.7446 629.621 136.21C618.874 208 561.841 235.816 474.218 244.799C474.003 251.89 472.201 258.844 468.948 265.146C465.695 271.449 461.072 276.941 455.419 281.219C454.775 281.715 453.993 282.005 453.181 282.046C452.369 282.087 451.563 281.879 450.872 281.45C450.18 281.022 449.637 280.394 449.311 279.648C448.986 278.902 448.894 278.073 449.051 277.274C450.007 271.782 449.597 266.14 447.852 260.846C446.106 255.551 443.08 250.768 439.046 246.924C427.565 247.41 435.621 247.654 423.211 247.654C290.655 247.654 200 198.184 200 111.444C200 24.7039 304.42 0 436.976 0Z" fill="#B8C318"/>
<path d="M342.303 169.5C343.653 169.5 344.409 170.256 344.409 171.606C344.409 173.01 343.653 173.766 342.303 173.766H326.427V184.62C326.427 186.888 325.131 187.968 322.863 187.968C320.595 187.968 319.299 186.888 319.299 184.62V173.766H297.807C296.403 173.766 295.647 173.01 295.647 171.606C295.647 170.256 296.403 169.5 297.807 169.5H304.989V158.268C304.989 156.216 306.123 155.136 308.175 155.136H319.299V148.008H309.309C306.771 152.328 303.423 156.27 300.291 158.538C299.427 159.24 298.617 159.24 297.969 158.538C297.267 157.782 297.213 156.972 297.861 156.108C301.209 151.734 303.747 145.794 305.421 139.422C306.069 136.884 307.743 136.236 310.173 136.83C312.549 137.37 313.305 139.26 312.279 141.906C312.009 142.554 311.793 143.202 311.469 143.85H340.845C342.195 143.85 342.951 144.552 342.951 145.902C342.951 147.252 342.195 148.008 340.845 148.008H326.427V155.136H338.037C339.333 155.136 340.035 155.838 340.035 157.134C340.035 158.43 339.333 159.132 338.037 159.132H326.427V169.5H342.303ZM319.299 169.5V159.132H312.495C312.117 159.132 311.847 159.402 311.847 159.78V169.5H319.299Z" fill="#594A39"/>
<path d="M367.953 147.306V157.998C367.953 172.2 365.631 181.596 360.663 187.158C359.961 188.022 358.881 188.13 358.125 187.482C357.315 186.888 357.099 186.132 357.585 185.16C360.339 179.544 361.095 172.2 361.095 157.35V145.74C361.095 143.634 362.175 142.446 364.227 142.446H380.049V140.286C380.049 138.288 381.345 137.154 383.721 137.154C386.043 137.154 387.393 138.288 387.393 140.286V142.446H403.215C404.511 142.446 405.213 143.256 405.213 144.552C405.213 145.848 404.511 146.604 403.215 146.604H368.601C368.223 146.604 367.953 146.928 367.953 147.306ZM377.997 163.614C375.945 163.614 374.865 162.48 374.865 160.482V156.162H370.329C369.087 156.162 368.439 155.406 368.439 154.164C368.439 152.976 369.087 152.274 370.329 152.274H374.865V149.844C374.865 148.17 375.999 147.198 378.051 147.198C379.995 147.198 381.237 148.17 381.237 149.844V152.274H389.769V149.79C389.769 148.116 390.903 147.144 392.955 147.144C394.953 147.144 396.141 148.116 396.141 149.79V152.274H401.541C402.783 152.274 403.485 152.976 403.485 154.164C403.485 155.46 402.783 156.162 401.541 156.162H396.141V160.482C396.141 162.48 395.007 163.614 393.009 163.614H377.997ZM381.237 156.162V159.186C381.237 159.564 381.507 159.834 381.885 159.834H389.121C389.499 159.834 389.769 159.564 389.769 159.186V156.162H381.237ZM402.405 181.326C404.511 181.596 405.483 183.108 405.159 185.214C404.727 187.428 403.161 188.022 401.163 187.806C395.763 187.104 390.633 185.484 386.205 182.892C380.913 185.646 374.487 187.266 367.413 187.752C366.333 187.806 365.577 187.374 365.415 186.348C365.253 185.43 365.685 184.566 366.873 184.296C372.921 183.054 377.727 181.542 381.561 179.652C378.483 177.006 375.999 173.82 374.379 170.094H371.571C370.383 170.094 369.627 169.284 369.627 168.096C369.627 166.908 370.383 166.206 371.571 166.206H395.277C398.409 166.206 399.813 168.474 398.301 171.336C396.735 174.36 394.575 176.952 391.929 179.166C395.061 180.192 398.571 180.894 402.405 181.326ZM378.429 170.094C380.589 172.848 383.181 175.008 386.259 176.682C388.311 175.062 389.985 173.172 391.335 170.958C391.659 170.472 391.389 170.094 390.903 170.094H378.429Z" fill="#594A39"/>
<path d="M465.747 181.11C467.475 182.622 467.961 184.512 466.503 186.294C464.991 188.13 462.993 188.184 461.157 186.348C459.105 184.404 457.269 182.082 455.703 179.436C453.273 182.838 450.141 185.538 446.199 187.59C445.227 188.13 444.363 187.86 443.877 187.05C443.499 186.402 443.499 185.862 443.877 185.322C443.013 185.7 441.987 185.592 440.961 184.944C439.665 184.026 438.315 183.216 437.019 182.406C433.131 185.43 427.785 187.32 421.359 187.86C420.279 187.914 419.577 187.428 419.469 186.51C419.361 185.538 419.739 184.89 420.981 184.674C425.679 183.81 429.513 182.244 432.375 179.922C431.295 179.382 430.107 178.896 428.919 178.41C428.757 178.734 428.541 179.058 428.379 179.328C427.407 180.84 425.895 181.056 424.491 180.246C423.087 179.382 422.817 178.248 423.789 176.574C424.329 175.548 425.031 174.36 425.679 173.064H421.251C420.063 173.064 419.361 172.362 419.361 171.174C419.361 169.986 420.063 169.338 421.251 169.338H427.569L428.649 167.124H424.329C422.331 167.124 421.359 166.152 421.359 164.154V160.374C421.359 158.322 422.331 157.404 424.329 157.404H430.755V155.73H425.517C423.519 155.73 422.385 154.65 422.385 152.652V150.168H420.765C419.631 150.168 418.983 149.52 418.983 148.386C418.983 147.198 419.685 146.496 420.765 146.496H422.385V144.12C422.385 142.122 423.519 141.042 425.517 141.042H430.755V139.53C430.755 137.802 431.781 136.992 433.725 136.992C435.669 136.992 436.695 137.802 436.695 139.53V141.042H441.933C443.985 141.042 445.065 142.122 445.065 144.12V146.496H446.523C447.549 146.496 448.197 147.144 448.197 148.332C448.197 149.52 447.549 150.168 446.523 150.168H445.065V152.652C445.065 154.65 443.985 155.73 441.933 155.73H436.695V157.404H443.013C444.687 157.404 445.659 158.052 445.929 159.402C448.143 154.11 449.277 146.928 449.763 140.124C449.925 137.748 451.113 136.938 453.165 137.1C455.217 137.262 456.189 138.342 455.919 140.61C455.595 143.31 455.109 146.01 454.461 148.602H465.045C466.287 148.602 466.989 149.304 466.989 150.546C466.989 151.788 466.287 152.544 465.045 152.544H463.317C462.885 160.914 461.535 168.042 458.943 173.874C460.833 176.574 463.101 178.896 465.747 181.11ZM427.731 145.038V146.604H430.863V144.39H428.379C428.001 144.39 427.731 144.66 427.731 145.038ZM436.587 144.39V146.604H439.773V145.038C439.773 144.66 439.503 144.39 439.125 144.39H436.587ZM428.379 152.382H430.863V150.006H427.731V151.734C427.731 152.112 428.001 152.382 428.379 152.382ZM436.587 150.006V152.382H439.125C439.503 152.382 439.773 152.112 439.773 151.734V150.006H436.587ZM457.161 152.544H453.273C453.057 153.192 452.841 153.894 452.571 154.542C453.111 159.726 454.083 163.992 455.541 167.556C456.567 163.344 456.999 158.484 457.161 152.544ZM445.119 184.242C448.791 181.218 451.383 178.032 453.219 174.252C451.545 170.148 450.411 165.396 449.871 160.05C449.385 160.806 448.899 161.508 448.413 162.102C447.711 162.858 446.901 162.966 446.145 162.534C446.091 162.534 446.091 162.48 446.037 162.426V164.154C446.037 166.152 445.065 167.124 443.013 167.124H434.697C434.373 167.826 434.049 168.582 433.671 169.338H446.847C448.035 169.338 448.737 169.986 448.737 171.174C448.737 172.416 448.035 173.064 446.847 173.064H443.499C442.905 175.116 441.987 177.006 440.691 178.734C441.771 179.166 442.797 179.598 443.769 180.084C445.713 181.002 446.145 182.352 445.227 184.026C445.173 184.08 445.173 184.134 445.119 184.242ZM426.921 163.128C426.921 163.506 427.191 163.776 427.569 163.776H430.755V160.752H427.569C427.191 160.752 426.921 161.022 426.921 161.4V163.128ZM439.881 160.752H436.695V163.776H439.881C440.259 163.776 440.529 163.506 440.529 163.128V161.4C440.529 161.022 440.259 160.752 439.881 160.752ZM431.835 173.064C431.403 173.928 430.971 174.792 430.539 175.602C432.051 175.926 433.725 176.358 435.345 176.844C436.155 175.71 436.857 174.468 437.343 173.064H431.835Z" fill="#594A39"/>
<path d="M527.091 178.464C528.603 179.652 528.819 181.38 527.523 182.73C526.173 184.08 524.553 183.972 523.365 182.568C521.151 180.03 519.747 176.304 518.883 172.254L517.749 172.578C518.505 174.63 518.937 176.898 518.937 179.22C518.937 187.86 513.105 189.912 506.301 185.862C505.491 185.43 505.329 184.674 505.599 183.864C505.869 183.108 506.517 182.838 507.489 183C512.133 183.972 513.591 183.594 513.753 179.058C510.297 181.164 505.599 183.108 501.117 183.81C500.145 183.972 499.551 183.648 499.335 182.784C499.065 181.974 499.443 181.218 500.415 180.894C505.869 179.274 510.189 176.952 513.375 174.09L513.159 173.064C510.351 175.062 506.679 176.79 503.223 177.708C502.197 177.978 501.603 177.546 501.279 176.736C500.145 180.57 498.471 183.594 496.149 186.24C495.393 187.104 494.421 187.212 493.665 186.618C492.963 186.024 492.855 185.268 493.287 184.458C495.987 179.328 496.905 172.902 496.905 159.888V147.522C496.905 145.632 498.039 144.552 500.037 144.552C501.603 144.552 502.629 145.092 502.953 146.226H508.569V140.016C508.569 137.964 509.703 137.1 511.701 137.1C513.753 137.1 514.833 137.964 514.833 139.908V140.88H523.311C524.445 140.88 525.093 141.528 525.093 142.608C525.093 143.742 524.445 144.39 523.311 144.39H514.833V146.226H524.391C527.037 146.226 528.117 148.332 526.767 150.384C525.687 152.058 524.715 153.138 523.905 153.84C523.203 154.326 522.501 154.38 521.853 153.894C521.259 153.408 521.097 152.868 521.421 152.22C521.691 151.68 521.961 151.14 522.123 150.654C522.285 150.114 522.069 149.844 521.637 149.844H512.619V151.68C514.563 151.464 516.561 151.194 518.775 150.924C519.801 150.816 520.503 151.194 520.665 152.274C520.827 153.3 520.341 154.002 519.207 154.11C517.047 154.434 514.833 154.704 512.673 154.974C512.835 156.054 513.591 156.378 515.967 156.378C518.127 156.378 520.287 156.108 521.961 155.514C523.149 155.136 524.013 155.298 524.499 156.54C525.039 157.836 524.715 158.862 523.473 159.402C521.799 160.104 519.855 160.266 514.833 160.266C508.731 160.266 507.489 159.294 507.435 155.622C506.193 155.784 505.005 155.946 503.817 156.054H503.115V161.562C503.385 161.4 503.763 161.292 504.195 161.292H525.363C526.443 161.292 527.091 161.886 527.091 162.966C527.091 164.046 526.443 164.586 525.363 164.586H516.507C515.805 165.234 514.995 165.936 514.077 166.638C515.049 167.664 515.859 168.798 516.561 170.094C518.073 169.068 519.477 167.88 520.935 166.26C521.961 165.126 523.527 164.964 524.661 166.206C525.849 167.556 525.579 168.906 524.013 169.878C523.203 170.418 522.285 170.904 521.367 171.282C522.771 174.144 524.877 176.682 527.091 178.464ZM495.015 148.71C496.203 148.71 496.905 149.412 496.905 150.6C496.905 151.788 496.203 152.49 495.015 152.49H492.369V160.806C493.071 160.536 493.773 160.266 494.475 159.942C495.393 159.564 496.095 159.726 496.581 160.536C497.013 161.346 496.851 162.102 496.095 162.696C495.015 163.614 493.719 164.586 492.369 165.45V182.136C492.369 187.59 487.401 189.048 481.353 186.186C480.435 185.754 480.165 184.998 480.381 184.08C480.597 183.162 481.191 182.838 482.325 182.946C485.403 183.378 486.051 182.946 486.051 181.218V169.014C485.511 169.23 484.971 169.5 484.431 169.716C482.487 170.58 481.083 169.986 480.435 167.88C479.733 165.882 480.489 164.478 482.487 163.992L486.051 163.02V152.49H482.865C481.623 152.49 480.975 151.788 480.975 150.6C480.975 149.412 481.623 148.71 482.865 148.71H486.051V140.34C486.051 138.342 487.185 137.37 489.183 137.37C491.235 137.37 492.369 138.234 492.369 140.286V148.71H495.015ZM507.435 152.274V149.844H503.115V152.76C503.223 152.76 503.331 152.706 503.493 152.706C504.789 152.598 506.085 152.436 507.435 152.274ZM504.195 164.586C503.709 164.586 503.331 164.478 503.007 164.316C502.953 166.044 502.845 167.664 502.683 169.176C502.845 168.96 503.115 168.744 503.439 168.636C505.815 167.556 508.245 166.152 509.919 164.586H504.195ZM502.197 174.684C506.247 173.118 509.163 171.606 511.755 169.122C511.647 168.852 511.539 168.636 511.377 168.366C509.271 169.608 506.841 170.742 504.357 171.39C503.385 171.66 502.845 171.282 502.521 170.472C502.359 172.092 502.089 173.55 501.765 174.954C501.873 174.846 502.035 174.738 502.197 174.684Z" fill="#594A39"/>
<path opacity="0.2" d="M348.26 411.301C348.26 411.301 395.133 382.773 446.433 387.629C447.829 387.765 449.237 387.534 450.516 386.959C451.795 386.385 452.902 385.485 453.729 384.351C454.555 383.217 455.07 381.89 455.227 380.495C455.383 379.1 455.175 377.688 454.62 376.399C444.008 351.027 407.746 297.49 291.684 296.336" fill="#7DBE37"/>
<path opacity="0.2" d="M157.796 468.601C126.28 481.507 97.4792 500.248 72.902 523.839C71.9236 524.836 70.7008 525.562 69.3579 525.946C68.015 526.33 66.5962 526.357 65.2393 526.026C63.8824 525.696 62.635 525.019 61.6182 524.061C60.6013 523.103 59.8504 521.897 59.439 520.561C51.2528 494.217 44.5211 429.512 132.871 354.366" fill="#7DBE37"/>
<path d="M315.092 269.203C315.092 269.203 377.124 259.675 418.601 217.671C419.732 216.544 421.135 215.728 422.672 215.303C424.21 214.877 425.829 214.856 427.377 215.24C428.925 215.625 430.35 216.403 431.51 217.499C432.671 218.594 433.529 219.969 434.003 221.494C443.342 251.844 451.042 325.472 349.897 411.726" fill="#5E9A33"/>
<path d="M361.569 505.445C372.164 499.014 374.112 482.833 365.916 469.303C357.721 455.773 342.486 450.017 331.89 456.448C321.294 462.879 319.351 479.061 327.547 492.592C335.742 506.122 350.973 511.876 361.569 505.445Z" fill="#FEFAE9"/>
<path d="M258.246 544.437C270.493 542.55 278.47 528.344 276.066 512.705C273.661 497.066 261.785 485.917 249.538 487.804C237.291 489.69 229.311 503.899 231.716 519.538C234.121 535.177 245.999 546.324 258.246 544.437Z" fill="#FEFAE9"/>
<path d="M184.962 177.851C184.962 177.851 198.848 206.015 258.395 210.749C274.963 212.046 290.86 217.861 304.359 227.563C346.26 257.913 421.937 329.418 389.253 434.671C389.253 434.671 369.484 485.232 304.782 508.602C304.782 508.602 244.994 535.615 192.299 509.028C143.788 484.749 93.396 398.372 125.171 289.78C129.767 274.108 138.779 260.095 151.125 249.416C167.195 235.273 190.48 211.357 184.962 177.851Z" fill="#FEFAE9"/>
<path d="M115.711 340.951C117 323.611 120.131 306.457 125.049 289.78C129.646 274.108 138.658 260.095 151.004 249.416C167.195 235.273 190.481 211.357 184.963 177.851C184.963 177.851 198.848 206.015 258.395 210.749C274.963 212.046 290.86 217.861 304.359 227.563C317.473 237.054 329.766 247.633 341.107 259.188C335.043 275.576 311.212 331.48 248.876 354.182C248.876 354.182 190.781 376.825 115.711 340.951Z" fill="#7DBE37"/>
<path d="M340.8 258.886C354.37 276.186 364.647 295.834 371.12 316.853C378.396 343.925 361.478 379.919 333.099 390.238C220.615 431.21 115.71 341.678 115.71 341.678C115.71 341.678 114.376 323.468 146.029 311.328C177.682 299.188 300.417 255.122 300.417 255.122C300.417 255.122 330.916 245.471 340.8 258.886Z" fill="#F2E865"/>
<path d="M289.623 284.075C310.755 284.075 327.886 266.927 327.886 245.773C327.886 224.62 310.755 207.472 289.623 207.472C268.491 207.472 251.36 224.62 251.36 245.773C251.36 266.927 268.491 284.075 289.623 284.075Z" fill="white"/>
<path d="M192.42 319.523C213.552 319.523 230.682 302.375 230.682 281.222C230.682 260.069 213.552 242.92 192.42 242.92C171.288 242.92 154.157 260.069 154.157 281.222C154.157 302.375 171.288 319.523 192.42 319.523Z" fill="white"/>
<path d="M330.253 260.524H329.948C329.52 260.486 329.105 260.361 328.725 260.159C328.345 259.957 328.008 259.681 327.736 259.347C327.465 259.013 327.264 258.628 327.144 258.215C327.024 257.801 326.987 257.368 327.038 256.94L328.311 243.831C328.466 243.033 328.913 242.321 329.563 241.834C330.213 241.346 331.023 241.118 331.831 241.193C332.64 241.269 333.39 241.643 333.939 242.243C334.488 242.842 334.796 243.623 334.801 244.436L333.466 257.61C333.404 258.415 333.036 259.164 332.438 259.706C331.84 260.248 331.059 260.542 330.253 260.524Z" fill="#E27E7C"/>
<path d="M340.5 260.645H340.195C339.336 260.553 338.55 260.124 338.004 259.453C337.459 258.782 337.2 257.922 337.285 257.061L338.62 243.952C338.658 243.523 338.78 243.105 338.981 242.725C339.183 242.345 339.459 242.01 339.793 241.738C340.126 241.466 340.511 241.263 340.924 241.142C341.337 241.022 341.77 240.988 342.197 241.039C342.623 241.076 343.04 241.198 343.417 241.4C343.794 241.603 344.124 241.88 344.391 242.215C344.658 242.55 344.852 242.937 344.965 243.35C345.078 243.764 345.107 244.195 345.048 244.619L343.775 257.731C343.699 258.541 343.317 259.292 342.709 259.832C342.102 260.373 341.313 260.663 340.5 260.645Z" fill="#E27E7C"/>
<path d="M149.004 322.378C148.575 322.34 148.158 322.215 147.778 322.013C147.398 321.811 147.063 321.538 146.792 321.204C146.521 320.87 146.32 320.482 146.2 320.069C146.08 319.655 146.043 319.222 146.093 318.794L147.366 305.685C147.458 304.825 147.886 304.035 148.557 303.489C149.227 302.943 150.083 302.687 150.943 302.772C151.372 302.809 151.789 302.932 152.169 303.133C152.549 303.335 152.883 303.612 153.155 303.946C153.426 304.279 153.63 304.664 153.75 305.078C153.87 305.491 153.904 305.925 153.854 306.352L152.521 319.464C152.483 319.887 152.361 320.298 152.163 320.673C151.965 321.049 151.696 321.384 151.369 321.655C151.042 321.925 150.665 322.129 150.259 322.253C149.853 322.377 149.426 322.419 149.004 322.378Z" fill="#E27E7C"/>
<path d="M159.494 322.558C159.071 322.52 158.662 322.4 158.286 322.203C157.91 322.005 157.577 321.733 157.306 321.405C157.035 321.078 156.832 320.7 156.708 320.294C156.584 319.887 156.542 319.46 156.583 319.037L157.919 305.866C158.025 305.024 158.447 304.255 159.1 303.714C159.754 303.173 160.587 302.899 161.433 302.952C161.862 302.99 162.279 303.115 162.659 303.317C163.039 303.519 163.374 303.792 163.645 304.126C163.917 304.46 164.12 304.848 164.24 305.261C164.36 305.675 164.394 306.108 164.344 306.536L163.071 319.645C162.964 320.498 162.535 321.277 161.869 321.82C161.202 322.363 160.35 322.627 159.494 322.558Z" fill="#E27E7C"/>
<path d="M200 286.927C209.042 286.927 216.372 279.59 216.372 270.538C216.372 261.487 209.042 254.149 200 254.149C190.958 254.149 183.627 261.487 183.627 270.538C183.627 279.59 190.958 286.927 200 286.927Z" fill="#4A1E0E"/>
<path d="M289.441 254.393C298.483 254.393 305.814 247.055 305.814 238.004C305.814 228.952 298.483 221.615 289.441 221.615C280.399 221.615 273.069 228.952 273.069 238.004C273.069 247.055 280.399 254.393 289.441 254.393Z" fill="#4A1E0E"/>
<path d="M373.729 509.03C372.921 509.037 372.118 508.891 371.363 508.603C369.643 507.973 368.243 506.687 367.469 505.025C366.696 503.364 366.616 501.464 367.241 499.741L383.067 456.768C383.378 455.916 383.853 455.135 384.468 454.468C385.082 453.802 385.824 453.264 386.647 452.885C387.47 452.507 388.359 452.295 389.264 452.263C390.17 452.231 391.073 452.379 391.92 452.699C393.63 453.341 395.019 454.631 395.79 456.288C396.561 457.945 396.654 459.837 396.045 461.561L380.216 504.536C379.721 505.858 378.835 506.997 377.676 507.8C376.516 508.603 375.139 509.033 373.729 509.03Z" fill="#695D41"/>
<path d="M363.847 513.277C362.162 513.275 360.534 512.658 359.272 511.54C358.011 510.422 357.2 508.881 356.993 507.207L351.841 473.884C351.562 472.074 352.01 470.224 353.09 468.745C354.17 467.266 355.791 466.276 357.6 465.992C358.497 465.837 359.419 465.864 360.306 466.072C361.193 466.28 362.028 466.666 362.763 467.204C363.499 467.742 364.117 468.422 364.584 469.205C365.052 469.987 365.359 470.856 365.484 471.759L370.636 505.085C370.915 506.896 370.467 508.742 369.387 510.221C368.307 511.701 366.686 512.691 364.877 512.975L363.847 513.277Z" fill="#695D41"/>
<path d="M261.242 550H260.395C259.487 549.903 258.607 549.625 257.808 549.182C257.009 548.74 256.306 548.14 255.741 547.422C255.176 546.704 254.76 545.882 254.518 545C254.276 544.119 254.213 543.198 254.332 542.291L259.122 503.323C259.238 502.418 259.528 501.545 259.981 500.753C260.433 499.961 261.037 499.266 261.757 498.708C262.478 498.15 263.303 497.738 264.182 497.499C265.062 497.259 265.979 497.196 266.883 497.312C267.786 497.428 268.659 497.722 269.45 498.175C270.241 498.628 270.935 499.231 271.493 499.953C272.05 500.674 272.459 501.497 272.698 502.377C272.937 503.257 273.003 504.179 272.887 505.083L268.034 543.99C267.828 545.648 267.026 547.175 265.775 548.281C264.525 549.388 262.911 549.999 261.242 550Z" fill="#695D41"/>
<path d="M271.552 546.903C270.281 546.943 269.03 546.583 267.975 545.872C266.411 544.927 265.283 543.402 264.84 541.627C264.396 539.853 264.673 537.973 265.609 536.402L292.716 491.364C293.66 489.798 295.184 488.671 296.956 488.228C298.729 487.784 300.604 488.058 302.173 488.995C303.742 489.952 304.872 491.491 305.315 493.275C305.757 495.059 305.478 496.947 304.539 498.527L277.435 543.566C276.822 544.58 275.957 545.421 274.927 546.005C273.897 546.59 272.736 546.897 271.552 546.903Z" fill="#695D41"/>
<path d="M272.582 267.806L257.544 206.742C257.341 205.98 256.893 205.308 256.268 204.827C255.643 204.347 254.877 204.086 254.089 204.086C253.301 204.086 252.535 204.347 251.91 204.827C251.285 205.308 250.834 205.98 250.631 206.742L232.439 276.185C232.001 277.826 232.09 279.56 232.688 281.15C233.286 282.739 234.365 284.103 235.776 285.047L292.716 322.558C293.374 323.02 294.166 323.248 294.969 323.204C295.773 323.159 296.537 322.845 297.14 322.312C297.742 321.778 298.148 321.059 298.292 320.266C298.435 319.474 298.308 318.656 297.93 317.946L272.704 267.928L272.582 267.806Z" fill="#695D41"/>
<path d="M232.379 276.123L250.571 206.683C250.729 206.001 251.092 205.384 251.613 204.916C252.134 204.449 252.787 204.154 253.481 204.072C253.028 204.567 252.789 205.223 252.815 205.895L248.51 270.234C248.445 271.859 248.704 273.483 249.277 275.006C249.85 276.528 250.723 277.921 251.844 279.099L294.836 321.589C295.038 321.833 295.289 322.032 295.57 322.178C295.851 322.324 296.157 322.412 296.473 322.436C295.901 322.825 295.226 323.035 294.534 323.035C293.842 323.035 293.167 322.825 292.594 322.436L235.654 284.926C234.266 283.978 233.206 282.622 232.619 281.046C232.033 279.47 231.949 277.749 232.379 276.123Z" fill="#84765B"/>
<path d="M10.2615 366.385C59.1967 370.998 104.615 349.084 118.38 341.679C121.555 339.918 125.24 339.319 128.809 339.98C136.972 341.244 144.598 344.844 150.763 350.348C156.929 355.852 161.37 363.022 163.554 370.997C171.559 398.373 171.255 443.837 163.554 462.776C162.741 464.813 161.292 466.536 159.424 467.684C157.556 468.832 155.369 469.344 153.185 469.148C47.068 458.89 11.8362 405.659 0.739332 379.254C0.106959 377.765 -0.125595 376.137 0.0642548 374.53C0.254105 372.923 0.861069 371.393 1.82301 370.093C2.78495 368.793 4.07073 367.765 5.55073 367.114C7.03074 366.464 8.65422 366.214 10.2615 366.385Z" fill="#5E9A33"/>
<path d="M498.689 112C498.41 112 497.714 111.507 496.599 110.522C495.553 109.537 495.031 108.06 495.031 106.09C495.1 103.909 495.449 101.622 496.076 99.2301C496.773 96.7676 497.435 94.5865 498.062 92.6869C498.48 91.4204 498.829 90.3651 499.107 89.5208C499.456 88.6765 499.63 88.1488 499.63 87.9377C499.56 87.9377 499.177 88.0081 498.48 88.1488C497.853 88.2895 497.052 88.4654 496.076 88.6765C492.661 89.3801 490.048 89.7318 488.236 89.7318C486.494 89.7318 484.996 88.6765 483.741 86.5657C483.323 86.1436 482.766 85.3697 482.069 84.2439C481.372 83.1182 480.884 81.887 480.605 80.5502C480.396 79.2134 480.745 78.0877 481.651 77.173C482.347 75.4141 482.905 74.1476 483.323 73.3737C483.741 72.5998 484.02 72.0369 484.159 71.6851C484.368 71.3333 484.473 70.9815 484.473 70.6298C484.543 70.489 484.647 70.278 484.786 69.9965C484.926 69.7151 485.1 69.4337 485.309 69.1523C485.936 68.0969 486.807 66.7249 487.922 65.0363C489.107 63.3478 490.327 61.6592 491.581 59.9706C492.905 58.2116 494.09 56.6638 495.135 55.327C496.18 53.9198 496.947 53.0052 497.435 52.583C497.853 52.372 498.585 52.0554 499.63 51.6332C500.745 51.2111 501.546 51 502.034 51C502.592 51 503.114 51.387 503.602 52.1609C504.16 52.8645 504.613 53.6032 504.961 54.3772C505.31 55.1511 505.484 55.6788 505.484 55.9602C505.484 55.9602 505.449 56.0306 505.379 56.1713C505.31 56.312 505.17 56.5582 504.961 56.91C504.682 57.3322 504.264 57.895 503.707 58.5986C503.219 59.3022 502.487 60.2168 501.512 61.3426C500.675 62.3276 499.63 63.7699 498.376 65.6696C497.121 67.4988 495.867 69.4689 494.612 71.5796C493.428 73.62 492.417 75.4493 491.581 77.0675C490.745 78.6857 490.327 79.7762 490.327 80.3391C490.327 80.6909 490.431 80.9723 490.64 81.1834C490.919 81.3241 491.407 81.3945 492.104 81.3945C493.01 81.2538 493.811 81.113 494.508 80.9723C495.275 80.8316 495.971 80.6909 496.599 80.5502C497.365 80.4095 498.027 80.2687 498.585 80.128C499.142 79.917 499.665 79.7411 500.153 79.6003C500.71 79.3893 501.198 79.2134 501.616 79.0727C502.104 78.8616 502.522 78.6153 502.871 78.3339C503.707 77.6303 504.334 76.6805 504.752 75.4844C505.17 74.2884 505.832 72.6701 506.738 70.6298C507.296 69.2226 507.853 67.9562 508.411 66.8305C509.038 65.6344 509.595 64.5438 510.083 63.5588C511.825 60.3224 513.289 57.9654 514.474 56.4879C515.658 54.94 516.32 54.1661 516.46 54.1661C516.669 54.1661 517.157 54.4475 517.923 55.0104C518.69 55.5732 519.421 56.1713 520.118 56.8045C520.676 57.297 521.129 57.7543 521.477 58.1765C521.826 58.5283 522 58.7745 522 58.9152C522 59.7595 521.791 60.639 521.373 61.5536C521.024 62.3979 520.502 63.3829 519.805 64.5087C519.108 65.6344 518.306 67.0767 517.4 68.8356C516.355 70.876 515.38 72.9164 514.474 74.9567C513.568 76.9268 512.697 78.8968 511.86 80.8668C511.024 82.7664 510.257 84.6309 509.561 86.4602C508.864 88.2895 508.202 90.0133 507.574 91.6315C506.041 95.7826 504.996 98.8431 504.439 100.813C503.881 102.783 503.602 104.155 503.602 104.929C503.672 105.633 503.811 106.231 504.02 106.723C504.02 107.638 503.742 108.517 503.184 109.362C502.627 110.136 501.93 110.769 501.093 111.261C500.257 111.754 499.456 112 498.689 112Z" fill="white"/>
<path d="M303.774 110.261C303.494 110.12 303.004 109.732 302.305 109.098C301.675 108.464 301.046 107.759 300.416 106.984C299.787 106.139 299.367 105.505 299.157 105.082C298.948 104.73 298.948 104.095 299.157 103.179C299.437 102.264 299.717 101.806 299.997 101.806C300.207 101.946 300.486 101.7 300.836 101.066C301.186 100.432 301.535 99.7623 301.885 99.0577C302.235 98.2826 302.41 97.8247 302.41 97.6837C302.48 97.4019 302.655 97.1905 302.934 97.0496C303.284 96.8382 303.599 96.6269 303.879 96.4155C304.228 95.8518 304.683 95.2882 305.243 94.7245C305.872 94.0904 306.362 93.5619 306.711 93.1392C307.271 92.4346 308.285 91.3777 309.754 89.9686C311.223 88.5594 312.657 87.115 314.056 85.6354C315.524 84.0148 316.818 82.6057 317.937 81.4079C319.057 80.1396 319.651 79.2589 319.721 78.7657C319.721 78.7657 319.826 78.66 320.036 78.4486C320.316 78.1668 320.63 77.9202 320.98 77.7088C321.33 77.4974 321.784 77.1452 322.344 76.6519C322.973 76.1587 323.498 75.7008 323.918 75.278C324.058 74.7143 324.372 74.0802 324.862 73.3756C325.422 72.6006 326.051 71.8608 326.75 71.1562C327.31 70.3107 327.835 69.3947 328.324 68.4083C328.814 67.3515 329.129 66.5764 329.268 66.0832C329.478 65.3082 329.408 64.8502 329.059 64.7093C328.709 64.4979 327.765 64.1456 326.226 63.6524C324.547 63.0887 322.973 62.983 321.505 63.3353C320.036 63.6876 318.077 64.7445 315.629 66.506C314.65 66.7173 313.741 66.9992 312.901 67.3515C312.132 67.7037 311.468 67.8447 310.908 67.7742C310.628 67.6333 310.314 67.3162 309.964 66.823C309.614 66.3298 309.229 65.8718 308.81 65.4491L307.761 60.9045L311.013 59.1078C313.881 57.2759 316.609 55.902 319.196 54.986C321.854 53.9996 324.163 53.8235 326.121 54.4576C326.89 54.4576 327.59 54.5633 328.219 54.7746C328.849 54.9156 329.164 54.986 329.164 54.986C329.723 54.9156 330.528 55.1974 331.577 55.8315C332.696 56.4657 333.78 57.2759 334.829 58.2623C335.948 59.2488 336.718 60.2352 337.137 61.2216C338.256 62.9126 338.676 64.9559 338.396 67.3515C338.116 69.747 337.102 72.2483 335.354 74.8553C335.004 75.278 334.235 76.1587 333.046 77.4974C331.856 78.8362 330.493 80.351 328.954 82.042C327.485 83.6625 326.121 85.1069 324.862 86.3752C323.673 87.6434 322.904 88.4537 322.554 88.806C322.064 89.0174 321.225 89.6867 320.036 90.8141C318.917 91.9414 317.693 93.2096 316.364 94.6188C315.105 95.9575 314.021 97.1553 313.111 98.2122C312.272 99.1986 311.922 99.6918 312.062 99.6918C311.992 99.9736 312.342 99.9736 313.111 99.6918C313.951 99.3395 314.685 99.0577 315.315 98.8463C316.364 98.494 317.588 98.1769 318.987 97.8951C320.455 97.5428 321.924 97.261 323.393 97.0496C324.862 96.8382 326.121 96.6973 327.17 96.6269C328.289 96.5564 328.954 96.6269 329.164 96.8382C329.303 97.1905 329.408 97.3314 329.478 97.261C329.618 97.1201 329.688 97.0496 329.688 97.0496C329.828 96.5564 330.702 96.4155 332.311 96.6269C333.99 96.8382 335.494 97.1553 336.823 97.5781C337.592 97.7894 338.186 98.0713 338.606 98.4236C339.096 98.7758 339.341 99.0929 339.341 99.3747C339.341 99.3747 339.41 99.5509 339.55 99.9032C339.76 100.185 340.075 100.573 340.495 101.066C341.614 101.982 341.614 102.968 340.495 104.025C339.445 105.082 337.522 105.364 334.724 104.87C332.906 104.87 331.402 104.976 330.213 105.188C329.933 105.328 329.338 105.399 328.429 105.399C327.52 105.399 326.646 105.434 325.806 105.505C324.547 105.364 323.288 105.434 322.029 105.716C320.77 105.927 319.266 106.315 317.518 106.879C316.888 107.09 315.909 107.407 314.58 107.83C313.251 108.252 311.817 108.675 310.279 109.098C308.74 109.521 307.341 109.838 306.082 110.049C304.893 110.261 304.123 110.331 303.774 110.261Z" fill="#FDFDFB"/>
<path d="M377.144 110.789C376.655 110.789 375.745 110.613 374.416 110.261C373.157 109.908 371.828 109.486 370.43 108.992C369.101 108.429 368.051 107.83 367.282 107.196C364.904 105.152 363.19 102.898 362.141 100.432C361.092 97.8951 360.462 95.3234 360.253 92.7164C360.113 90.1095 360.218 87.6434 360.567 85.3183C361.337 80.809 362.945 76.3349 365.394 71.896C367.842 67.3867 370.779 63.6524 374.207 60.6931C376.025 59.0726 377.844 57.6987 379.662 56.5713C381.481 55.444 383.439 54.6337 385.538 54.1405C386.307 53.9291 387.391 53.8235 388.79 53.8235C390.259 53.753 391.238 53.7178 391.728 53.7178C393.127 53.7178 394.665 54.0348 396.344 54.669C398.093 55.2326 399.596 55.9372 400.855 56.7827C402.114 57.5578 402.744 58.2976 402.744 59.0021C402.744 59.4954 402.709 59.9886 402.639 60.4818C402.569 60.975 402.254 61.0807 401.695 60.7988H400.646L401.695 63.9695C401.975 64.5331 402.219 65.3082 402.429 66.2946C402.639 67.2105 402.744 68.056 402.744 68.8311C402.744 69.5357 402.639 70.5925 402.429 72.0017C402.289 73.3404 402.044 74.7848 401.695 76.3349C401.415 77.885 401.1 79.3294 400.75 80.6681C400.471 82.0068 400.191 82.9932 399.911 83.6273C399.701 84.0501 399.561 84.4728 399.491 84.8956C399.491 85.2479 399.491 85.5649 399.491 85.8467C399.212 86.4104 398.757 87.3968 398.128 88.806C397.498 90.2152 397.043 91.2016 396.764 91.7652C396.484 92.0471 396.239 92.2937 396.029 92.5051C395.889 92.7164 395.959 92.963 396.239 93.2449C396.239 93.4562 396.064 93.9495 395.714 94.7245C395.365 95.4291 394.98 96.0984 394.56 96.7326C394.211 97.3667 393.931 97.6837 393.721 97.6837C393.721 97.6837 393.616 97.719 393.406 97.7894C393.266 97.7894 393.196 97.8951 393.196 98.1065C393.196 98.3883 392.707 99.1281 391.728 100.326C390.818 101.524 389.734 102.757 388.475 104.025C387.776 104.73 386.657 105.646 385.118 106.773C383.579 107.83 382.04 108.781 380.502 109.626C379.033 110.401 377.914 110.789 377.144 110.789ZM376.934 100.643C377.704 100.643 378.438 100.537 379.138 100.326C379.837 100.044 380.432 99.6566 380.921 99.1634C382.18 98.3179 383.369 97.1905 384.488 95.7814C385.677 94.3722 386.657 92.7517 387.426 90.9197C388.195 89.8629 388.79 88.7708 389.21 87.6434C389.699 86.4456 390.434 84.4376 391.413 81.6193C391.972 80.8442 392.357 79.893 392.567 78.7657C392.777 77.6384 392.882 76.6872 392.882 75.9121C392.882 75.1371 392.882 74.0802 392.882 72.7415C392.952 71.4028 393.127 70.2755 393.406 69.3595C393.406 67.5276 393.371 66.4707 393.301 66.1889C393.231 65.8366 392.952 65.3786 392.462 64.815C392.182 64.6036 391.798 64.3922 391.308 64.1808C390.888 63.9695 390.434 63.8638 389.944 63.8638C389.454 63.8638 388.79 64.0047 387.951 64.2865C387.181 64.4979 386.517 64.7797 385.957 65.132C385.468 65.4138 384.908 65.4491 384.279 65.2377C383.719 65.0263 383.439 64.7445 383.439 64.3922C383.439 63.4058 382.95 63.4762 381.97 64.6036C381.061 65.6605 379.837 67.1401 378.298 69.0424C377.039 70.3107 375.955 71.6142 375.046 72.9529C374.207 74.2211 373.787 74.9962 373.787 75.278C373.787 75.5598 373.682 75.9121 373.472 76.3349C373.262 76.7576 373.052 77.2508 372.843 77.8145C372.493 78.3077 372.073 79.118 371.584 80.2453C371.094 81.3726 370.604 82.5 370.115 83.6273C369.695 84.6842 369.415 85.4945 369.275 86.0581C369.275 86.34 369.275 87.115 369.275 88.3832C369.275 89.581 369.275 90.7084 369.275 91.7652C369.275 92.963 369.31 93.8438 369.38 94.4074C369.45 94.9711 369.555 95.4291 369.695 95.7814C369.905 96.1337 370.185 96.6621 370.534 97.3667C370.814 97.8599 371.234 98.4588 371.793 99.1634C372.423 99.7975 372.843 100.255 373.052 100.537C373.822 101.242 374.311 101.524 374.521 101.383C374.801 101.171 375.605 100.925 376.934 100.643Z" fill="#FDFDFB"/>
<path d="M424.026 110.261C423.747 110.12 423.257 109.732 422.558 109.098C421.928 108.464 421.299 107.759 420.669 106.984C420.04 106.139 419.62 105.505 419.41 105.082C419.2 104.73 419.2 104.095 419.41 103.179C419.69 102.264 419.97 101.806 420.249 101.806C420.459 101.946 420.739 101.7 421.089 101.066C421.439 100.432 421.788 99.7623 422.138 99.0577C422.488 98.2826 422.663 97.8247 422.663 97.6837C422.733 97.4019 422.907 97.1905 423.187 97.0496C423.537 96.8382 423.852 96.6269 424.131 96.4155C424.481 95.8518 424.936 95.2882 425.495 94.7245C426.125 94.0904 426.614 93.5619 426.964 93.1392C427.524 92.4346 428.538 91.3777 430.007 89.9686C431.476 88.5594 432.909 87.115 434.308 85.6354C435.777 84.0148 437.071 82.6057 438.19 81.4079C439.309 80.1396 439.904 79.2589 439.974 78.7657C439.974 78.7657 440.079 78.66 440.289 78.4486C440.568 78.1668 440.883 77.9202 441.233 77.7088C441.583 77.4974 442.037 77.1452 442.597 76.6519C443.226 76.1587 443.751 75.7008 444.171 75.278C444.31 74.7143 444.625 74.0802 445.115 73.3756C445.674 72.6006 446.304 71.8608 447.003 71.1562C447.563 70.3107 448.087 69.3947 448.577 68.4083C449.067 67.3515 449.381 66.5764 449.521 66.0832C449.731 65.3082 449.661 64.8502 449.311 64.7093C448.962 64.4979 448.017 64.1456 446.479 63.6524C444.8 63.0887 443.226 62.983 441.757 63.3353C440.289 63.6876 438.33 64.7445 435.882 66.506C434.903 66.7173 433.994 66.9992 433.154 67.3515C432.385 67.7037 431.72 67.8447 431.161 67.7742C430.881 67.6333 430.566 67.3162 430.217 66.823C429.867 66.3298 429.482 65.8718 429.062 65.4491L428.013 60.9045L431.266 59.1078C434.133 57.2759 436.861 55.902 439.449 54.986C442.107 53.9996 444.415 53.8235 446.374 54.4576C447.143 54.4576 447.843 54.5633 448.472 54.7746C449.102 54.9156 449.416 54.986 449.416 54.986C449.976 54.9156 450.78 55.1974 451.829 55.8315C452.949 56.4657 454.033 57.2759 455.082 58.2623C456.201 59.2488 456.97 60.2352 457.39 61.2216C458.509 62.9126 458.929 64.9559 458.649 67.3515C458.369 69.747 457.355 72.2483 455.606 74.8553C455.257 75.278 454.487 76.1587 453.298 77.4974C452.109 78.8362 450.745 80.351 449.207 82.042C447.738 83.6625 446.374 85.1069 445.115 86.3752C443.926 87.6434 443.156 88.4537 442.807 88.806C442.317 89.0174 441.478 89.6867 440.289 90.8141C439.169 91.9414 437.945 93.2096 436.617 94.6188C435.358 95.9575 434.273 97.1553 433.364 98.2122C432.525 99.1986 432.175 99.6918 432.315 99.6918C432.245 99.9736 432.595 99.9736 433.364 99.6918C434.203 99.3395 434.938 99.0577 435.567 98.8463C436.617 98.494 437.841 98.1769 439.239 97.8951C440.708 97.5428 442.177 97.261 443.646 97.0496C445.115 96.8382 446.374 96.6973 447.423 96.6269C448.542 96.5564 449.207 96.6269 449.416 96.8382C449.556 97.1905 449.661 97.3314 449.731 97.261C449.871 97.1201 449.941 97.0496 449.941 97.0496C450.081 96.5564 450.955 96.4155 452.564 96.6269C454.243 96.8382 455.746 97.1553 457.075 97.5781C457.845 97.7894 458.439 98.0713 458.859 98.4236C459.348 98.7758 459.593 99.0929 459.593 99.3747C459.593 99.3747 459.663 99.5509 459.803 99.9032C460.013 100.185 460.328 100.573 460.747 101.066C461.866 101.982 461.866 102.968 460.747 104.025C459.698 105.082 457.775 105.364 454.977 104.87C453.158 104.87 451.655 104.976 450.466 105.188C450.186 105.328 449.591 105.399 448.682 105.399C447.773 105.399 446.898 105.434 446.059 105.505C444.8 105.364 443.541 105.434 442.282 105.716C441.023 105.927 439.519 106.315 437.771 106.879C437.141 107.09 436.162 107.407 434.833 107.83C433.504 108.252 432.07 108.675 430.531 109.098C428.993 109.521 427.594 109.838 426.335 110.049C425.146 110.261 424.376 110.331 424.026 110.261Z" fill="#FDFDFB"/>
</svg>
