<svg width="125" height="163" viewBox="0 0 125 163" fill="none" xmlns="http://www.w3.org/2000/svg">
<rect x="1.5" y="1.5" width="122" height="160" rx="8.5" fill="white"/>
<rect x="1.5" y="1.5" width="122" height="160" rx="8.5" stroke="#E9E3D8" stroke-width="3"/>
<path d="M25.2594 26.7844L23.6816 27.2828C23.6383 26.9577 23.5735 26.5677 23.487 26.1777C19.3804 26.7844 18.6888 26.9577 18.2565 27.1744C18.1484 26.7627 17.8458 25.8093 17.6297 25.2893C18.1052 25.1593 18.6023 24.6609 19.2723 23.8808C19.5533 23.5341 20.1585 22.7757 20.8285 21.779C18.9049 22.0173 18.4294 22.1473 18.1052 22.2557C17.9971 21.8873 17.7161 20.9772 17.5 20.5005C17.889 20.4139 18.2349 19.9588 18.6671 19.3304C19.0994 18.7021 20.4827 16.2969 21.2608 14L23.1196 14.7584C22.255 16.6436 21.1744 18.6154 20.072 20.1972L21.9524 20.0455C22.536 19.1354 23.098 18.1387 23.5303 17.1636L25.2594 18.2254C23.9841 20.5655 22.2983 22.9707 20.6124 24.9209L23.1628 24.5959C22.9899 23.9242 22.7954 23.2308 22.5793 22.6457L24.0706 22.2557C24.5893 23.7291 25.1081 25.636 25.2594 26.7844ZM18.5159 27.9762L20.0937 28.2579C19.8991 30.1863 19.5101 32.2665 19.0562 33.6316C18.7104 33.4366 17.9539 33.1983 17.5432 33.0683C18.0403 31.7248 18.3429 29.7746 18.5159 27.9762ZM20.6988 28.2145L22.147 27.9545C22.4063 29.4063 22.6225 31.2698 22.6657 32.5265L21.1311 32.8082C21.1095 31.5515 20.915 29.6446 20.6988 28.2145ZM22.7522 27.8028L24.0922 27.3694C24.5029 28.4095 24.9135 29.7313 25.0865 30.6197L23.6816 31.1181C23.5303 30.208 23.1412 28.8212 22.7522 27.8028ZM29.1931 25.5276L30.3602 25.9393C29.647 29.2329 27.8963 31.6165 25.6916 32.8949C25.4323 32.5049 24.9135 31.8332 24.5461 31.5081C26.0375 30.6847 27.3775 29.1246 28.1124 27.2394H25.7349V25.5926H28.8905L29.1931 25.5276ZM28.3718 20.8689V22.429H34.5101V20.8689H28.3718ZM28.3718 17.8787V19.4171H34.5101V17.8787H28.3718ZM35.6556 24.5742L37.147 25.8093C36.1744 26.6544 35.1153 27.5645 34.2075 28.2362C35.0937 29.623 36.2392 30.7714 37.5576 31.4648C37.1254 31.8115 36.5418 32.5482 36.2392 33.0466C34.7695 32.0932 33.5375 30.5547 32.6081 28.7346V31.8332C32.6081 32.7866 32.4135 33.3283 31.7867 33.6316C31.1599 33.935 30.1873 33.9567 28.8256 33.9567C28.7608 33.4149 28.5014 32.6132 28.2637 32.1148C29.1715 32.1582 30.0793 32.1582 30.3386 32.1365C30.6196 32.1148 30.6844 32.0498 30.6844 31.8115V24.0108H26.4914V16.3185H29.6902C29.9712 15.5818 30.2305 14.6934 30.3818 14.0217L32.6513 14.4767C32.3487 15.1051 32.0461 15.7551 31.7219 16.3185H36.4769V24.0108H32.6081V24.7692C32.8458 25.506 33.1052 26.221 33.451 26.8927C34.2507 26.156 35.0937 25.2459 35.6556 24.5742Z" fill="#B8C318"/>
<path d="M51.2824 30.8581H60.5764V32.8949H41.232V30.8581H49.121V14.3467H51.2824V20.7822H59.085V22.7974H51.2824V30.8581Z" fill="#B8C318"/>
<path d="M75.2089 26.2644H80.6988V23.4041H75.2089V26.2644ZM67.7954 26.2644H73.134V23.4041H67.7954V26.2644ZM73.134 18.8321H67.7954V21.5406H73.134V18.8321ZM80.6988 18.8321H75.2089V21.5406H80.6988V18.8321ZM75.2089 16.9036H82.7738V29.2763H80.6988V28.1928H75.2089V33.935H73.134V28.1928H67.7954V29.3846H65.8069V16.9036H73.134V14.065H75.2089V16.9036Z" fill="#B8C318"/>
<path d="M107.241 16.7952V18.442H100.908V16.7952H103.242C103.004 16.0802 102.659 15.2784 102.313 14.6284L103.977 14.13C104.409 14.9534 104.885 15.9935 105.187 16.7952H107.241ZM103.501 22.169L102.075 22.559C102.053 21.6273 101.794 20.1538 101.448 19.0271L102.788 18.6804C103.177 19.7855 103.48 21.2156 103.501 22.169ZM94.0562 16.8386V18.4854H87.8746V16.8386H90.1657C89.928 16.1668 89.6037 15.3868 89.2795 14.7801L90.9438 14.2817C91.3977 15.0618 91.83 16.0802 92.0893 16.8386H94.0562ZM90.3602 22.169L88.9121 22.559C88.9121 21.649 88.6744 20.2189 88.3501 19.1138L89.6902 18.7671C90.0576 19.8288 90.317 21.2373 90.3602 22.169ZM93.7752 28.1712H91.7651C91.6138 30.208 90.9654 32.4615 89.0634 34C88.804 33.61 88.2637 33.0033 87.8746 32.6999C89.4308 31.5731 89.8631 29.7746 89.9712 28.1712H87.9827V26.5244H90.0144V24.2709H87.7234V22.6241H91.1167C91.4409 21.4973 91.83 19.8288 91.9813 18.6587L93.5375 18.9837C93.1917 20.1972 92.8242 21.5623 92.5 22.6241H94.1427V24.2709H91.8084V26.5244H93.7752V28.1712ZM100.065 18.8537V19.6988C99.9352 28.9079 99.8271 31.8982 99.33 32.7216C99.0058 33.2633 98.6599 33.4583 98.1196 33.545C97.6873 33.6316 97.0605 33.61 96.3905 33.5883C96.3689 33.1116 96.196 32.3965 95.9582 31.9415C96.5418 31.9848 97.0605 31.9848 97.3415 31.9848C97.5793 31.9848 97.7305 31.9198 97.8818 31.6381C98.2061 31.0748 98.3141 28.4095 98.4222 20.5872H97.1902C96.9525 26.156 96.2824 30.6414 94.121 33.9783C93.9049 33.675 93.17 33.0683 92.8242 32.7866C94.8127 29.948 95.4611 25.7226 95.6556 20.5872H94.4885V18.8537H95.6989C95.7205 17.3153 95.7205 15.7118 95.7205 14.065H97.2983C97.2983 15.7335 97.2767 17.3153 97.2334 18.8537H100.065ZM107.5 24.2925H105.101V26.8494H107.241V28.4962H105.101V33.8917H103.285V28.4962H101.21V26.8494H103.285V24.2925H100.821V22.6457H104.409C104.755 21.4973 105.144 19.7638 105.295 18.5937L106.83 18.9404C106.549 20.1538 106.182 21.5623 105.857 22.6457H107.5V24.2925Z" fill="#B8C318"/>
<g clip-path="url(#clip0_1384_5763)">
<path d="M16.9381 46H14V48.9381H16.9381V46Z" fill="#594A39"/>
<path d="M16.9381 48.9375H14V51.8756H16.9381V48.9375Z" fill="#594A39"/>
<path d="M16.9381 51.877H14V54.8151H16.9381V51.877Z" fill="#594A39"/>
<path d="M16.9381 54.8145H14V57.7526H16.9381V54.8145Z" fill="#594A39"/>
<path d="M16.9381 57.752H14V60.6901H16.9381V57.752Z" fill="#594A39"/>
<path d="M16.9381 60.6914H14V63.6295H16.9381V60.6914Z" fill="#594A39"/>
<path d="M16.9381 63.6289H14V66.567H16.9381V63.6289Z" fill="#594A39"/>
<path d="M16.9381 69.5039H14V72.442H16.9381V69.5039Z" fill="#594A39"/>
<path d="M16.9381 75.3809H14V78.319H16.9381V75.3809Z" fill="#594A39"/>
<path d="M16.9381 87.1328H14V90.0709H16.9381V87.1328Z" fill="#594A39"/>
<path d="M16.9381 90.0723H14V93.0104H16.9381V90.0723Z" fill="#594A39"/>
<path d="M16.9381 104.805H14V107.743H16.9381V104.805Z" fill="#594A39"/>
<path d="M16.9381 107.742H14V110.68H16.9381V107.742Z" fill="#594A39"/>
<path d="M16.9381 113.619H14V116.557H16.9381V113.619Z" fill="#594A39"/>
<path d="M16.9381 122.434H14V125.372H16.9381V122.434Z" fill="#594A39"/>
<path d="M16.9381 125.371H14V128.309H16.9381V125.371Z" fill="#594A39"/>
<path d="M16.9381 128.309H14V131.247H16.9381V128.309Z" fill="#594A39"/>
<path d="M16.9381 131.248H14V134.186H16.9381V131.248Z" fill="#594A39"/>
<path d="M16.9381 134.186H14V137.124H16.9381V134.186Z" fill="#594A39"/>
<path d="M16.9381 137.123H14V140.061H16.9381V137.123Z" fill="#594A39"/>
<path d="M16.9381 140.062H14V143.001H16.9381V140.062Z" fill="#594A39"/>
<path d="M19.8766 46H16.9385V48.9381H19.8766V46Z" fill="#594A39"/>
<path d="M19.8766 63.6289H16.9385V66.567H19.8766V63.6289Z" fill="#594A39"/>
<path d="M19.8766 72.4434H16.9385V75.3815H19.8766V72.4434Z" fill="#594A39"/>
<path d="M19.8766 75.3809H16.9385V78.319H19.8766V75.3809Z" fill="#594A39"/>
<path d="M19.8766 78.3184H16.9385V81.2565H19.8766V78.3184Z" fill="#594A39"/>
<path d="M19.8766 81.2578H16.9385V84.1959H19.8766V81.2578Z" fill="#594A39"/>
<path d="M19.8766 84.1953H16.9385V87.1334H19.8766V84.1953Z" fill="#594A39"/>
<path d="M19.8766 90.0723H16.9385V93.0104H19.8766V90.0723Z" fill="#594A39"/>
<path d="M19.8766 93.0098H16.9385V95.9479H19.8766V93.0098Z" fill="#594A39"/>
<path d="M19.8766 98.9277H16.9385V101.866H19.8766V98.9277Z" fill="#594A39"/>
<path d="M19.8766 107.742H16.9385V110.68H19.8766V107.742Z" fill="#594A39"/>
<path d="M19.8766 116.557H16.9385V119.495H19.8766V116.557Z" fill="#594A39"/>
<path d="M19.8766 122.434H16.9385V125.372H19.8766V122.434Z" fill="#594A39"/>
<path d="M19.8766 140.062H16.9385V143.001H19.8766V140.062Z" fill="#594A39"/>
<path d="M22.8141 46H19.876V48.9381H22.8141V46Z" fill="#594A39"/>
<path d="M22.8141 51.877H19.876V54.8151H22.8141V51.877Z" fill="#594A39"/>
<path d="M22.8141 54.8145H19.876V57.7526H22.8141V54.8145Z" fill="#594A39"/>
<path d="M22.8141 57.752H19.876V60.6901H22.8141V57.752Z" fill="#594A39"/>
<path d="M22.8141 63.6289H19.876V66.567H22.8141V63.6289Z" fill="#594A39"/>
<path d="M22.8141 81.2578H19.876V84.1959H22.8141V81.2578Z" fill="#594A39"/>
<path d="M22.8141 98.9277H19.876V101.866H22.8141V98.9277Z" fill="#594A39"/>
<path d="M22.8141 101.867H19.876V104.805H22.8141V101.867Z" fill="#594A39"/>
<path d="M22.8141 113.619H19.876V116.557H22.8141V113.619Z" fill="#594A39"/>
<path d="M22.8141 122.434H19.876V125.372H22.8141V122.434Z" fill="#594A39"/>
<path d="M22.8141 128.309H19.876V131.247H22.8141V128.309Z" fill="#594A39"/>
<path d="M22.8141 131.248H19.876V134.186H22.8141V131.248Z" fill="#594A39"/>
<path d="M22.8141 134.186H19.876V137.124H22.8141V134.186Z" fill="#594A39"/>
<path d="M22.8141 140.062H19.876V143.001H22.8141V140.062Z" fill="#594A39"/>
<path d="M25.7526 46H22.8145V48.9381H25.7526V46Z" fill="#594A39"/>
<path d="M25.7526 51.877H22.8145V54.8151H25.7526V51.877Z" fill="#594A39"/>
<path d="M25.7526 54.8145H22.8145V57.7526H25.7526V54.8145Z" fill="#594A39"/>
<path d="M25.7526 57.752H22.8145V60.6901H25.7526V57.752Z" fill="#594A39"/>
<path d="M25.7526 63.6289H22.8145V66.567H25.7526V63.6289Z" fill="#594A39"/>
<path d="M25.7526 69.5039H22.8145V72.442H25.7526V69.5039Z" fill="#594A39"/>
<path d="M25.7526 72.4434H22.8145V75.3815H25.7526V72.4434Z" fill="#594A39"/>
<path d="M25.7526 75.3809H22.8145V78.319H25.7526V75.3809Z" fill="#594A39"/>
<path d="M25.7526 78.3184H22.8145V81.2565H25.7526V78.3184Z" fill="#594A39"/>
<path d="M25.7526 81.2578H22.8145V84.1959H25.7526V81.2578Z" fill="#594A39"/>
<path d="M25.7526 84.1953H22.8145V87.1334H25.7526V84.1953Z" fill="#594A39"/>
<path d="M25.7526 87.1328H22.8145V90.0709H25.7526V87.1328Z" fill="#594A39"/>
<path d="M25.7526 93.0098H22.8145V95.9479H25.7526V93.0098Z" fill="#594A39"/>
<path d="M25.7526 104.805H22.8145V107.743H25.7526V104.805Z" fill="#594A39"/>
<path d="M25.7526 113.619H22.8145V116.557H25.7526V113.619Z" fill="#594A39"/>
<path d="M25.7526 116.557H22.8145V119.495H25.7526V116.557Z" fill="#594A39"/>
<path d="M25.7526 122.434H22.8145V125.372H25.7526V122.434Z" fill="#594A39"/>
<path d="M25.7526 128.309H22.8145V131.247H25.7526V128.309Z" fill="#594A39"/>
<path d="M25.7526 131.248H22.8145V134.186H25.7526V131.248Z" fill="#594A39"/>
<path d="M25.7526 134.186H22.8145V137.124H25.7526V134.186Z" fill="#594A39"/>
<path d="M25.7526 140.062H22.8145V143.001H25.7526V140.062Z" fill="#594A39"/>
<path d="M28.6901 46H25.752V48.9381H28.6901V46Z" fill="#594A39"/>
<path d="M28.6901 51.877H25.752V54.8151H28.6901V51.877Z" fill="#594A39"/>
<path d="M28.6901 54.8145H25.752V57.7526H28.6901V54.8145Z" fill="#594A39"/>
<path d="M28.6901 57.752H25.752V60.6901H28.6901V57.752Z" fill="#594A39"/>
<path d="M28.6901 63.6289H25.752V66.567H28.6901V63.6289Z" fill="#594A39"/>
<path d="M28.6901 72.4434H25.752V75.3815H28.6901V72.4434Z" fill="#594A39"/>
<path d="M28.6901 75.3809H25.752V78.319H28.6901V75.3809Z" fill="#594A39"/>
<path d="M28.6901 81.2578H25.752V84.1959H28.6901V81.2578Z" fill="#594A39"/>
<path d="M28.6901 87.1328H25.752V90.0709H28.6901V87.1328Z" fill="#594A39"/>
<path d="M28.6901 98.9277H25.752V101.866H28.6901V98.9277Z" fill="#594A39"/>
<path d="M28.6901 110.682H25.752V113.62H28.6901V110.682Z" fill="#594A39"/>
<path d="M28.6901 122.434H25.752V125.372H28.6901V122.434Z" fill="#594A39"/>
<path d="M28.6901 128.309H25.752V131.247H28.6901V128.309Z" fill="#594A39"/>
<path d="M28.6901 131.248H25.752V134.186H28.6901V131.248Z" fill="#594A39"/>
<path d="M28.6901 134.186H25.752V137.124H28.6901V134.186Z" fill="#594A39"/>
<path d="M28.6901 140.062H25.752V143.001H28.6901V140.062Z" fill="#594A39"/>
<path d="M31.6285 46H28.6904V48.9381H31.6285V46Z" fill="#594A39"/>
<path d="M31.6285 63.6289H28.6904V66.567H31.6285V63.6289Z" fill="#594A39"/>
<path d="M31.6285 69.5039H28.6904V72.442H31.6285V69.5039Z" fill="#594A39"/>
<path d="M31.6285 78.3184H28.6904V81.2565H31.6285V78.3184Z" fill="#594A39"/>
<path d="M31.6285 81.2578H28.6904V84.1959H31.6285V81.2578Z" fill="#594A39"/>
<path d="M31.6285 84.1953H28.6904V87.1334H31.6285V84.1953Z" fill="#594A39"/>
<path d="M31.6285 98.9277H28.6904V101.866H31.6285V98.9277Z" fill="#594A39"/>
<path d="M31.6285 101.867H28.6904V104.805H31.6285V101.867Z" fill="#594A39"/>
<path d="M31.6285 104.805H28.6904V107.743H31.6285V104.805Z" fill="#594A39"/>
<path d="M31.6285 116.557H28.6904V119.495H31.6285V116.557Z" fill="#594A39"/>
<path d="M31.6285 122.434H28.6904V125.372H31.6285V122.434Z" fill="#594A39"/>
<path d="M31.6285 140.062H28.6904V143.001H31.6285V140.062Z" fill="#594A39"/>
<path d="M34.567 46H31.6289V48.9381H34.567V46Z" fill="#594A39"/>
<path d="M34.567 48.9375H31.6289V51.8756H34.567V48.9375Z" fill="#594A39"/>
<path d="M34.567 51.877H31.6289V54.8151H34.567V51.877Z" fill="#594A39"/>
<path d="M34.567 54.8145H31.6289V57.7526H34.567V54.8145Z" fill="#594A39"/>
<path d="M34.567 57.752H31.6289V60.6901H34.567V57.752Z" fill="#594A39"/>
<path d="M34.567 60.6914H31.6289V63.6295H34.567V60.6914Z" fill="#594A39"/>
<path d="M34.567 63.6289H31.6289V66.567H34.567V63.6289Z" fill="#594A39"/>
<path d="M34.567 69.5039H31.6289V72.442H34.567V69.5039Z" fill="#594A39"/>
<path d="M34.567 75.3809H31.6289V78.319H34.567V75.3809Z" fill="#594A39"/>
<path d="M34.567 81.2578H31.6289V84.1959H34.567V81.2578Z" fill="#594A39"/>
<path d="M34.567 87.1328H31.6289V90.0709H34.567V87.1328Z" fill="#594A39"/>
<path d="M34.567 93.0098H31.6289V95.9479H34.567V93.0098Z" fill="#594A39"/>
<path d="M34.567 98.9277H31.6289V101.866H34.567V98.9277Z" fill="#594A39"/>
<path d="M34.567 104.805H31.6289V107.743H34.567V104.805Z" fill="#594A39"/>
<path d="M34.567 110.682H31.6289V113.62H34.567V110.682Z" fill="#594A39"/>
<path d="M34.567 116.557H31.6289V119.495H34.567V116.557Z" fill="#594A39"/>
<path d="M34.567 122.434H31.6289V125.372H34.567V122.434Z" fill="#594A39"/>
<path d="M34.567 125.371H31.6289V128.309H34.567V125.371Z" fill="#594A39"/>
<path d="M34.567 128.309H31.6289V131.247H34.567V128.309Z" fill="#594A39"/>
<path d="M34.567 131.248H31.6289V134.186H34.567V131.248Z" fill="#594A39"/>
<path d="M34.567 134.186H31.6289V137.124H34.567V134.186Z" fill="#594A39"/>
<path d="M34.567 137.123H31.6289V140.061H34.567V137.123Z" fill="#594A39"/>
<path d="M34.567 140.062H31.6289V143.001H34.567V140.062Z" fill="#594A39"/>
<path d="M37.5045 72.4434H34.5664V75.3815H37.5045V72.4434Z" fill="#594A39"/>
<path d="M37.5045 78.3184H34.5664V81.2565H37.5045V78.3184Z" fill="#594A39"/>
<path d="M37.5045 84.1953H34.5664V87.1334H37.5045V84.1953Z" fill="#594A39"/>
<path d="M37.5045 87.1328H34.5664V90.0709H37.5045V87.1328Z" fill="#594A39"/>
<path d="M37.5045 90.0723H34.5664V93.0104H37.5045V90.0723Z" fill="#594A39"/>
<path d="M37.5045 98.9277H34.5664V101.866H37.5045V98.9277Z" fill="#594A39"/>
<path d="M37.5045 101.867H34.5664V104.805H37.5045V101.867Z" fill="#594A39"/>
<path d="M37.5045 107.742H34.5664V110.68H37.5045V107.742Z" fill="#594A39"/>
<path d="M37.5045 113.619H34.5664V116.557H37.5045V113.619Z" fill="#594A39"/>
<path d="M40.443 60.6914H37.5049V63.6295H40.443V60.6914Z" fill="#594A39"/>
<path d="M40.443 63.6289H37.5049V66.567H40.443V63.6289Z" fill="#594A39"/>
<path d="M40.443 69.5039H37.5049V72.442H40.443V69.5039Z" fill="#594A39"/>
<path d="M40.443 75.3809H37.5049V78.319H40.443V75.3809Z" fill="#594A39"/>
<path d="M40.443 78.3184H37.5049V81.2565H40.443V78.3184Z" fill="#594A39"/>
<path d="M40.443 84.1953H37.5049V87.1334H40.443V84.1953Z" fill="#594A39"/>
<path d="M40.443 87.1328H37.5049V90.0709H40.443V87.1328Z" fill="#594A39"/>
<path d="M40.443 93.0098H37.5049V95.9479H40.443V93.0098Z" fill="#594A39"/>
<path d="M40.443 101.867H37.5049V104.805H40.443V101.867Z" fill="#594A39"/>
<path d="M40.443 107.742H37.5049V110.68H40.443V107.742Z" fill="#594A39"/>
<path d="M40.443 110.682H37.5049V113.62H40.443V110.682Z" fill="#594A39"/>
<path d="M40.443 113.619H37.5049V116.557H40.443V113.619Z" fill="#594A39"/>
<path d="M40.443 116.557H37.5049V119.495H40.443V116.557Z" fill="#594A39"/>
<path d="M40.443 119.496H37.5049V122.434H40.443V119.496Z" fill="#594A39"/>
<path d="M40.443 125.371H37.5049V128.309H40.443V125.371Z" fill="#594A39"/>
<path d="M40.443 131.248H37.5049V134.186H40.443V131.248Z" fill="#594A39"/>
<path d="M40.443 140.062H37.5049V143.001H40.443V140.062Z" fill="#594A39"/>
<path d="M43.3815 48.9375H40.4434V51.8756H43.3815V48.9375Z" fill="#594A39"/>
<path d="M43.3815 51.877H40.4434V54.8151H43.3815V51.877Z" fill="#594A39"/>
<path d="M43.3815 57.752H40.4434V60.6901H43.3815V57.752Z" fill="#594A39"/>
<path d="M43.3815 60.6914H40.4434V63.6295H43.3815V60.6914Z" fill="#594A39"/>
<path d="M43.3815 69.5039H40.4434V72.442H43.3815V69.5039Z" fill="#594A39"/>
<path d="M43.3815 78.3184H40.4434V81.2565H43.3815V78.3184Z" fill="#594A39"/>
<path d="M43.3815 84.1953H40.4434V87.1334H43.3815V84.1953Z" fill="#594A39"/>
<path d="M43.3815 90.0723H40.4434V93.0104H43.3815V90.0723Z" fill="#594A39"/>
<path d="M43.3815 93.0098H40.4434V95.9479H43.3815V93.0098Z" fill="#594A39"/>
<path d="M43.3815 95.9902H40.4434V98.9283H43.3815V95.9902Z" fill="#594A39"/>
<path d="M43.3815 107.742H40.4434V110.68H43.3815V107.742Z" fill="#594A39"/>
<path d="M43.3815 110.682H40.4434V113.62H43.3815V110.682Z" fill="#594A39"/>
<path d="M43.3815 119.496H40.4434V122.434H43.3815V119.496Z" fill="#594A39"/>
<path d="M43.3815 122.434H40.4434V125.372H43.3815V122.434Z" fill="#594A39"/>
<path d="M43.3815 125.371H40.4434V128.309H43.3815V125.371Z" fill="#594A39"/>
<path d="M43.3815 128.309H40.4434V131.247H43.3815V128.309Z" fill="#594A39"/>
<path d="M43.3815 131.248H40.4434V134.186H43.3815V131.248Z" fill="#594A39"/>
<path d="M43.3815 134.186H40.4434V137.124H43.3815V134.186Z" fill="#594A39"/>
<path d="M46.319 46H43.3809V48.9381H46.319V46Z" fill="#594A39"/>
<path d="M46.319 48.9375H43.3809V51.8756H46.319V48.9375Z" fill="#594A39"/>
<path d="M46.319 51.877H43.3809V54.8151H46.319V51.877Z" fill="#594A39"/>
<path d="M46.319 54.8145H43.3809V57.7526H46.319V54.8145Z" fill="#594A39"/>
<path d="M46.319 63.6289H43.3809V66.567H46.319V63.6289Z" fill="#594A39"/>
<path d="M46.319 66.5664H43.3809V69.5045H46.319V66.5664Z" fill="#594A39"/>
<path d="M46.319 75.3809H43.3809V78.319H46.319V75.3809Z" fill="#594A39"/>
<path d="M46.319 78.3184H43.3809V81.2565H46.319V78.3184Z" fill="#594A39"/>
<path d="M46.319 87.1328H43.3809V90.0709H46.319V87.1328Z" fill="#594A39"/>
<path d="M46.319 101.867H43.3809V104.805H46.319V101.867Z" fill="#594A39"/>
<path d="M46.319 104.805H43.3809V107.743H46.319V104.805Z" fill="#594A39"/>
<path d="M46.319 107.742H43.3809V110.68H46.319V107.742Z" fill="#594A39"/>
<path d="M46.319 110.682H43.3809V113.62H46.319V110.682Z" fill="#594A39"/>
<path d="M46.319 116.557H43.3809V119.495H46.319V116.557Z" fill="#594A39"/>
<path d="M46.319 119.496H43.3809V122.434H46.319V119.496Z" fill="#594A39"/>
<path d="M46.319 122.434H43.3809V125.372H46.319V122.434Z" fill="#594A39"/>
<path d="M46.319 125.371H43.3809V128.309H46.319V125.371Z" fill="#594A39"/>
<path d="M46.319 128.309H43.3809V131.247H46.319V128.309Z" fill="#594A39"/>
<path d="M46.319 131.248H43.3809V134.186H46.319V131.248Z" fill="#594A39"/>
<path d="M46.319 140.062H43.3809V143.001H46.319V140.062Z" fill="#594A39"/>
<path d="M49.2574 51.877H46.3193V54.8151H49.2574V51.877Z" fill="#594A39"/>
<path d="M49.2574 60.6914H46.3193V63.6295H49.2574V60.6914Z" fill="#594A39"/>
<path d="M49.2574 69.5039H46.3193V72.442H49.2574V69.5039Z" fill="#594A39"/>
<path d="M49.2574 75.3809H46.3193V78.319H49.2574V75.3809Z" fill="#594A39"/>
<path d="M49.2574 78.3184H46.3193V81.2565H49.2574V78.3184Z" fill="#594A39"/>
<path d="M49.2574 84.1953H46.3193V87.1334H49.2574V84.1953Z" fill="#594A39"/>
<path d="M49.2574 93.0098H46.3193V95.9479H49.2574V93.0098Z" fill="#594A39"/>
<path d="M49.2574 98.9277H46.3193V101.866H49.2574V98.9277Z" fill="#594A39"/>
<path d="M49.2574 104.805H46.3193V107.743H49.2574V104.805Z" fill="#594A39"/>
<path d="M49.2574 110.682H46.3193V113.62H49.2574V110.682Z" fill="#594A39"/>
<path d="M49.2574 119.496H46.3193V122.434H49.2574V119.496Z" fill="#594A39"/>
<path d="M49.2574 122.434H46.3193V125.372H49.2574V122.434Z" fill="#594A39"/>
<path d="M49.2574 128.309H46.3193V131.247H49.2574V128.309Z" fill="#594A39"/>
<path d="M49.2574 131.248H46.3193V134.186H49.2574V131.248Z" fill="#594A39"/>
<path d="M49.2574 140.062H46.3193V143.001H49.2574V140.062Z" fill="#594A39"/>
<path d="M52.1949 48.9375H49.2568V51.8756H52.1949V48.9375Z" fill="#594A39"/>
<path d="M52.1949 60.6914H49.2568V63.6295H52.1949V60.6914Z" fill="#594A39"/>
<path d="M52.1949 63.6289H49.2568V66.567H52.1949V63.6289Z" fill="#594A39"/>
<path d="M52.1949 66.5664H49.2568V69.5045H52.1949V66.5664Z" fill="#594A39"/>
<path d="M52.1949 69.5039H49.2568V72.442H52.1949V69.5039Z" fill="#594A39"/>
<path d="M52.1949 72.4434H49.2568V75.3815H52.1949V72.4434Z" fill="#594A39"/>
<path d="M52.1949 75.3809H49.2568V78.319H52.1949V75.3809Z" fill="#594A39"/>
<path d="M52.1949 84.1953H49.2568V87.1334H52.1949V84.1953Z" fill="#594A39"/>
<path d="M52.1949 93.0098H49.2568V95.9479H52.1949V93.0098Z" fill="#594A39"/>
<path d="M52.1949 101.867H49.2568V104.805H52.1949V101.867Z" fill="#594A39"/>
<path d="M52.1949 107.742H49.2568V110.68H52.1949V107.742Z" fill="#594A39"/>
<path d="M52.1949 113.619H49.2568V116.557H52.1949V113.619Z" fill="#594A39"/>
<path d="M52.1949 116.557H49.2568V119.495H52.1949V116.557Z" fill="#594A39"/>
<path d="M52.1949 128.309H49.2568V131.247H52.1949V128.309Z" fill="#594A39"/>
<path d="M52.1949 134.186H49.2568V137.124H52.1949V134.186Z" fill="#594A39"/>
<path d="M52.1949 137.123H49.2568V140.061H52.1949V137.123Z" fill="#594A39"/>
<path d="M55.1334 54.8145H52.1953V57.7526H55.1334V54.8145Z" fill="#594A39"/>
<path d="M55.1334 57.752H52.1953V60.6901H55.1334V57.752Z" fill="#594A39"/>
<path d="M55.1334 69.5039H52.1953V72.442H55.1334V69.5039Z" fill="#594A39"/>
<path d="M55.1334 84.1953H52.1953V87.1334H55.1334V84.1953Z" fill="#594A39"/>
<path d="M55.1334 87.1328H52.1953V90.0709H55.1334V87.1328Z" fill="#594A39"/>
<path d="M55.1334 95.9902H52.1953V98.9283H55.1334V95.9902Z" fill="#594A39"/>
<path d="M55.1334 98.9277H52.1953V101.866H55.1334V98.9277Z" fill="#594A39"/>
<path d="M55.1334 101.867H52.1953V104.805H55.1334V101.867Z" fill="#594A39"/>
<path d="M55.1334 104.805H52.1953V107.743H55.1334V104.805Z" fill="#594A39"/>
<path d="M55.1334 110.682H52.1953V113.62H55.1334V110.682Z" fill="#594A39"/>
<path d="M55.1334 116.557H52.1953V119.495H55.1334V116.557Z" fill="#594A39"/>
<path d="M55.1334 119.496H52.1953V122.434H55.1334V119.496Z" fill="#594A39"/>
<path d="M55.1334 125.371H52.1953V128.309H55.1334V125.371Z" fill="#594A39"/>
<path d="M55.1334 128.309H52.1953V131.247H55.1334V128.309Z" fill="#594A39"/>
<path d="M55.1334 140.062H52.1953V143.001H55.1334V140.062Z" fill="#594A39"/>
<path d="M58.0719 51.877H55.1338V54.8151H58.0719V51.877Z" fill="#594A39"/>
<path d="M58.0719 60.6914H55.1338V63.6295H58.0719V60.6914Z" fill="#594A39"/>
<path d="M58.0719 63.6289H55.1338V66.567H58.0719V63.6289Z" fill="#594A39"/>
<path d="M58.0719 66.5664H55.1338V69.5045H58.0719V66.5664Z" fill="#594A39"/>
<path d="M58.0719 69.5039H55.1338V72.442H58.0719V69.5039Z" fill="#594A39"/>
<path d="M58.0719 78.3184H55.1338V81.2565H58.0719V78.3184Z" fill="#594A39"/>
<path d="M58.0719 87.1328H55.1338V90.0709H58.0719V87.1328Z" fill="#594A39"/>
<path d="M58.0719 90.0723H55.1338V93.0104H58.0719V90.0723Z" fill="#594A39"/>
<path d="M58.0719 93.0098H55.1338V95.9479H58.0719V93.0098Z" fill="#594A39"/>
<path d="M58.0719 98.9277H55.1338V101.866H58.0719V98.9277Z" fill="#594A39"/>
<path d="M58.0719 101.867H55.1338V104.805H58.0719V101.867Z" fill="#594A39"/>
<path d="M58.0719 104.805H55.1338V107.743H58.0719V104.805Z" fill="#594A39"/>
<path d="M58.0719 107.742H55.1338V110.68H58.0719V107.742Z" fill="#594A39"/>
<path d="M58.0719 110.682H55.1338V113.62H58.0719V110.682Z" fill="#594A39"/>
<path d="M58.0719 119.496H55.1338V122.434H58.0719V119.496Z" fill="#594A39"/>
<path d="M58.0719 125.371H55.1338V128.309H58.0719V125.371Z" fill="#594A39"/>
<path d="M58.0719 128.309H55.1338V131.247H58.0719V128.309Z" fill="#594A39"/>
<path d="M58.0719 140.062H55.1338V143.001H58.0719V140.062Z" fill="#594A39"/>
<path d="M61.0094 46H58.0713V48.9381H61.0094V46Z" fill="#594A39"/>
<path d="M61.0094 48.9375H58.0713V51.8756H61.0094V48.9375Z" fill="#594A39"/>
<path d="M61.0094 51.877H58.0713V54.8151H61.0094V51.877Z" fill="#594A39"/>
<path d="M61.0094 69.5039H58.0713V72.442H61.0094V69.5039Z" fill="#594A39"/>
<path d="M61.0094 84.1953H58.0713V87.1334H61.0094V84.1953Z" fill="#594A39"/>
<path d="M61.0094 90.0723H58.0713V93.0104H61.0094V90.0723Z" fill="#594A39"/>
<path d="M61.0094 101.867H58.0713V104.805H61.0094V101.867Z" fill="#594A39"/>
<path d="M61.0094 107.742H58.0713V110.68H61.0094V107.742Z" fill="#594A39"/>
<path d="M61.0094 110.682H58.0713V113.62H61.0094V110.682Z" fill="#594A39"/>
<path d="M61.0094 116.557H58.0713V119.495H61.0094V116.557Z" fill="#594A39"/>
<path d="M61.0094 128.309H58.0713V131.247H61.0094V128.309Z" fill="#594A39"/>
<path d="M61.0094 131.248H58.0713V134.186H61.0094V131.248Z" fill="#594A39"/>
<path d="M61.0094 137.123H58.0713V140.061H61.0094V137.123Z" fill="#594A39"/>
<path d="M63.9479 57.752H61.0098V60.6901H63.9479V57.752Z" fill="#594A39"/>
<path d="M63.9479 63.6289H61.0098V66.567H63.9479V63.6289Z" fill="#594A39"/>
<path d="M63.9479 69.5039H61.0098V72.442H63.9479V69.5039Z" fill="#594A39"/>
<path d="M63.9479 75.3809H61.0098V78.319H63.9479V75.3809Z" fill="#594A39"/>
<path d="M63.9479 78.3184H61.0098V81.2565H63.9479V78.3184Z" fill="#594A39"/>
<path d="M63.9479 84.1953H61.0098V87.1334H63.9479V84.1953Z" fill="#594A39"/>
<path d="M63.9479 93.0098H61.0098V95.9479H63.9479V93.0098Z" fill="#594A39"/>
<path d="M63.9479 95.9902H61.0098V98.9283H63.9479V95.9902Z" fill="#594A39"/>
<path d="M63.9479 98.9277H61.0098V101.866H63.9479V98.9277Z" fill="#594A39"/>
<path d="M63.9479 104.805H61.0098V107.743H63.9479V104.805Z" fill="#594A39"/>
<path d="M63.9479 107.742H61.0098V110.68H63.9479V107.742Z" fill="#594A39"/>
<path d="M63.9479 113.619H61.0098V116.557H63.9479V113.619Z" fill="#594A39"/>
<path d="M63.9479 122.434H61.0098V125.372H63.9479V122.434Z" fill="#594A39"/>
<path d="M63.9479 125.371H61.0098V128.309H63.9479V125.371Z" fill="#594A39"/>
<path d="M63.9479 128.309H61.0098V131.247H63.9479V128.309Z" fill="#594A39"/>
<path d="M63.9479 137.123H61.0098V140.061H63.9479V137.123Z" fill="#594A39"/>
<path d="M63.9479 140.062H61.0098V143.001H63.9479V140.062Z" fill="#594A39"/>
<path d="M66.9283 48.9375H63.9902V51.8756H66.9283V48.9375Z" fill="#594A39"/>
<path d="M66.9283 51.877H63.9902V54.8151H66.9283V51.877Z" fill="#594A39"/>
<path d="M66.9283 54.8145H63.9902V57.7526H66.9283V54.8145Z" fill="#594A39"/>
<path d="M66.9283 57.752H63.9902V60.6901H66.9283V57.752Z" fill="#594A39"/>
<path d="M66.9283 60.6914H63.9902V63.6295H66.9283V60.6914Z" fill="#594A39"/>
<path d="M66.9283 66.5664H63.9902V69.5045H66.9283V66.5664Z" fill="#594A39"/>
<path d="M66.9283 75.3809H63.9902V78.319H66.9283V75.3809Z" fill="#594A39"/>
<path d="M66.9283 78.3184H63.9902V81.2565H66.9283V78.3184Z" fill="#594A39"/>
<path d="M66.9283 84.1953H63.9902V87.1334H66.9283V84.1953Z" fill="#594A39"/>
<path d="M66.9283 90.0723H63.9902V93.0104H66.9283V90.0723Z" fill="#594A39"/>
<path d="M66.9283 93.0098H63.9902V95.9479H66.9283V93.0098Z" fill="#594A39"/>
<path d="M66.9283 101.867H63.9902V104.805H66.9283V101.867Z" fill="#594A39"/>
<path d="M66.9283 104.805H63.9902V107.743H66.9283V104.805Z" fill="#594A39"/>
<path d="M66.9283 110.682H63.9902V113.62H66.9283V110.682Z" fill="#594A39"/>
<path d="M66.9283 116.557H63.9902V119.495H66.9283V116.557Z" fill="#594A39"/>
<path d="M66.9283 131.248H63.9902V134.186H66.9283V131.248Z" fill="#594A39"/>
<path d="M66.9283 137.123H63.9902V140.061H66.9283V137.123Z" fill="#594A39"/>
<path d="M69.8668 46H66.9287V48.9381H69.8668V46Z" fill="#594A39"/>
<path d="M69.8668 60.6914H66.9287V63.6295H69.8668V60.6914Z" fill="#594A39"/>
<path d="M69.8668 63.6289H66.9287V66.567H69.8668V63.6289Z" fill="#594A39"/>
<path d="M69.8668 87.1328H66.9287V90.0709H69.8668V87.1328Z" fill="#594A39"/>
<path d="M69.8668 90.0723H66.9287V93.0104H69.8668V90.0723Z" fill="#594A39"/>
<path d="M69.8668 98.9277H66.9287V101.866H69.8668V98.9277Z" fill="#594A39"/>
<path d="M69.8668 101.867H66.9287V104.805H69.8668V101.867Z" fill="#594A39"/>
<path d="M69.8668 104.805H66.9287V107.743H69.8668V104.805Z" fill="#594A39"/>
<path d="M69.8668 107.742H66.9287V110.68H69.8668V107.742Z" fill="#594A39"/>
<path d="M69.8668 113.619H66.9287V116.557H69.8668V113.619Z" fill="#594A39"/>
<path d="M69.8668 137.123H66.9287V140.061H69.8668V137.123Z" fill="#594A39"/>
<path d="M69.8668 140.062H66.9287V143.001H69.8668V140.062Z" fill="#594A39"/>
<path d="M72.8043 46H69.8662V48.9381H72.8043V46Z" fill="#594A39"/>
<path d="M72.8043 51.877H69.8662V54.8151H72.8043V51.877Z" fill="#594A39"/>
<path d="M72.8043 57.752H69.8662V60.6901H72.8043V57.752Z" fill="#594A39"/>
<path d="M72.8043 66.5664H69.8662V69.5045H72.8043V66.5664Z" fill="#594A39"/>
<path d="M72.8043 69.5039H69.8662V72.442H72.8043V69.5039Z" fill="#594A39"/>
<path d="M72.8043 75.3809H69.8662V78.319H72.8043V75.3809Z" fill="#594A39"/>
<path d="M72.8043 81.2578H69.8662V84.1959H72.8043V81.2578Z" fill="#594A39"/>
<path d="M72.8043 90.0723H69.8662V93.0104H72.8043V90.0723Z" fill="#594A39"/>
<path d="M72.8043 93.0098H69.8662V95.9479H72.8043V93.0098Z" fill="#594A39"/>
<path d="M72.8043 110.682H69.8662V113.62H72.8043V110.682Z" fill="#594A39"/>
<path d="M72.8043 113.619H69.8662V116.557H72.8043V113.619Z" fill="#594A39"/>
<path d="M72.8043 116.557H69.8662V119.495H72.8043V116.557Z" fill="#594A39"/>
<path d="M72.8043 119.496H69.8662V122.434H72.8043V119.496Z" fill="#594A39"/>
<path d="M72.8043 128.309H69.8662V131.247H72.8043V128.309Z" fill="#594A39"/>
<path d="M72.8043 137.123H69.8662V140.061H72.8043V137.123Z" fill="#594A39"/>
<path d="M72.8043 140.062H69.8662V143.001H72.8043V140.062Z" fill="#594A39"/>
<path d="M75.7428 46H72.8047V48.9381H75.7428V46Z" fill="#594A39"/>
<path d="M75.7428 48.9375H72.8047V51.8756H75.7428V48.9375Z" fill="#594A39"/>
<path d="M75.7428 60.6914H72.8047V63.6295H75.7428V60.6914Z" fill="#594A39"/>
<path d="M75.7428 63.6289H72.8047V66.567H75.7428V63.6289Z" fill="#594A39"/>
<path d="M75.7428 66.5664H72.8047V69.5045H75.7428V66.5664Z" fill="#594A39"/>
<path d="M75.7428 72.4434H72.8047V75.3815H75.7428V72.4434Z" fill="#594A39"/>
<path d="M75.7428 75.3809H72.8047V78.319H75.7428V75.3809Z" fill="#594A39"/>
<path d="M75.7428 81.2578H72.8047V84.1959H75.7428V81.2578Z" fill="#594A39"/>
<path d="M75.7428 87.1328H72.8047V90.0709H75.7428V87.1328Z" fill="#594A39"/>
<path d="M75.7428 90.0723H72.8047V93.0104H75.7428V90.0723Z" fill="#594A39"/>
<path d="M75.7428 93.0098H72.8047V95.9479H75.7428V93.0098Z" fill="#594A39"/>
<path d="M75.7428 107.742H72.8047V110.68H75.7428V107.742Z" fill="#594A39"/>
<path d="M75.7428 116.557H72.8047V119.495H75.7428V116.557Z" fill="#594A39"/>
<path d="M75.7428 119.496H72.8047V122.434H75.7428V119.496Z" fill="#594A39"/>
<path d="M75.7428 128.309H72.8047V131.247H75.7428V128.309Z" fill="#594A39"/>
<path d="M75.7428 137.123H72.8047V140.061H75.7428V137.123Z" fill="#594A39"/>
<path d="M78.6813 46H75.7432V48.9381H78.6813V46Z" fill="#594A39"/>
<path d="M78.6813 57.752H75.7432V60.6901H78.6813V57.752Z" fill="#594A39"/>
<path d="M78.6813 60.6914H75.7432V63.6295H78.6813V60.6914Z" fill="#594A39"/>
<path d="M78.6813 66.5664H75.7432V69.5045H78.6813V66.5664Z" fill="#594A39"/>
<path d="M78.6813 69.5039H75.7432V72.442H78.6813V69.5039Z" fill="#594A39"/>
<path d="M78.6813 72.4434H75.7432V75.3815H78.6813V72.4434Z" fill="#594A39"/>
<path d="M78.6813 78.3184H75.7432V81.2565H78.6813V78.3184Z" fill="#594A39"/>
<path d="M78.6813 81.2578H75.7432V84.1959H78.6813V81.2578Z" fill="#594A39"/>
<path d="M78.6813 84.1953H75.7432V87.1334H78.6813V84.1953Z" fill="#594A39"/>
<path d="M78.6813 87.1328H75.7432V90.0709H78.6813V87.1328Z" fill="#594A39"/>
<path d="M78.6813 90.0723H75.7432V93.0104H78.6813V90.0723Z" fill="#594A39"/>
<path d="M78.6813 93.0098H75.7432V95.9479H78.6813V93.0098Z" fill="#594A39"/>
<path d="M78.6813 101.867H75.7432V104.805H78.6813V101.867Z" fill="#594A39"/>
<path d="M78.6813 104.805H75.7432V107.743H78.6813V104.805Z" fill="#594A39"/>
<path d="M78.6813 107.742H75.7432V110.68H78.6813V107.742Z" fill="#594A39"/>
<path d="M78.6813 110.682H75.7432V113.62H78.6813V110.682Z" fill="#594A39"/>
<path d="M78.6813 113.619H75.7432V116.557H78.6813V113.619Z" fill="#594A39"/>
<path d="M78.6813 116.557H75.7432V119.495H78.6813V116.557Z" fill="#594A39"/>
<path d="M78.6813 125.371H75.7432V128.309H78.6813V125.371Z" fill="#594A39"/>
<path d="M78.6813 128.309H75.7432V131.247H78.6813V128.309Z" fill="#594A39"/>
<path d="M78.6813 131.248H75.7432V134.186H78.6813V131.248Z" fill="#594A39"/>
<path d="M78.6813 137.123H75.7432V140.061H78.6813V137.123Z" fill="#594A39"/>
<path d="M78.6813 140.062H75.7432V143.001H78.6813V140.062Z" fill="#594A39"/>
<path d="M81.6188 46H78.6807V48.9381H81.6188V46Z" fill="#594A39"/>
<path d="M81.6188 51.877H78.6807V54.8151H81.6188V51.877Z" fill="#594A39"/>
<path d="M81.6188 54.8145H78.6807V57.7526H81.6188V54.8145Z" fill="#594A39"/>
<path d="M81.6188 63.6289H78.6807V66.567H81.6188V63.6289Z" fill="#594A39"/>
<path d="M81.6188 72.4434H78.6807V75.3815H81.6188V72.4434Z" fill="#594A39"/>
<path d="M81.6188 78.3184H78.6807V81.2565H81.6188V78.3184Z" fill="#594A39"/>
<path d="M81.6188 84.1953H78.6807V87.1334H81.6188V84.1953Z" fill="#594A39"/>
<path d="M81.6188 87.1328H78.6807V90.0709H81.6188V87.1328Z" fill="#594A39"/>
<path d="M81.6188 93.0098H78.6807V95.9479H81.6188V93.0098Z" fill="#594A39"/>
<path d="M81.6188 95.9902H78.6807V98.9283H81.6188V95.9902Z" fill="#594A39"/>
<path d="M81.6188 101.867H78.6807V104.805H81.6188V101.867Z" fill="#594A39"/>
<path d="M81.6188 113.619H78.6807V116.557H81.6188V113.619Z" fill="#594A39"/>
<path d="M81.6188 122.434H78.6807V125.372H81.6188V122.434Z" fill="#594A39"/>
<path d="M81.6188 128.309H78.6807V131.247H81.6188V128.309Z" fill="#594A39"/>
<path d="M81.6188 137.123H78.6807V140.061H81.6188V137.123Z" fill="#594A39"/>
<path d="M84.5572 46H81.6191V48.9381H84.5572V46Z" fill="#594A39"/>
<path d="M84.5572 48.9375H81.6191V51.8756H84.5572V48.9375Z" fill="#594A39"/>
<path d="M84.5572 54.8145H81.6191V57.7526H84.5572V54.8145Z" fill="#594A39"/>
<path d="M84.5572 57.752H81.6191V60.6901H84.5572V57.752Z" fill="#594A39"/>
<path d="M84.5572 78.3184H81.6191V81.2565H84.5572V78.3184Z" fill="#594A39"/>
<path d="M84.5572 81.2578H81.6191V84.1959H84.5572V81.2578Z" fill="#594A39"/>
<path d="M84.5572 87.1328H81.6191V90.0709H84.5572V87.1328Z" fill="#594A39"/>
<path d="M84.5572 95.9902H81.6191V98.9283H84.5572V95.9902Z" fill="#594A39"/>
<path d="M84.5572 104.805H81.6191V107.743H84.5572V104.805Z" fill="#594A39"/>
<path d="M84.5572 113.619H81.6191V116.557H84.5572V113.619Z" fill="#594A39"/>
<path d="M84.5572 131.248H81.6191V134.186H84.5572V131.248Z" fill="#594A39"/>
<path d="M84.5572 134.186H81.6191V137.124H84.5572V134.186Z" fill="#594A39"/>
<path d="M87.4947 60.6914H84.5566V63.6295H87.4947V60.6914Z" fill="#594A39"/>
<path d="M87.4947 63.6289H84.5566V66.567H87.4947V63.6289Z" fill="#594A39"/>
<path d="M87.4947 66.5664H84.5566V69.5045H87.4947V66.5664Z" fill="#594A39"/>
<path d="M87.4947 69.5039H84.5566V72.442H87.4947V69.5039Z" fill="#594A39"/>
<path d="M87.4947 72.4434H84.5566V75.3815H87.4947V72.4434Z" fill="#594A39"/>
<path d="M87.4947 75.3809H84.5566V78.319H87.4947V75.3809Z" fill="#594A39"/>
<path d="M87.4947 78.3184H84.5566V81.2565H87.4947V78.3184Z" fill="#594A39"/>
<path d="M87.4947 81.2578H84.5566V84.1959H87.4947V81.2578Z" fill="#594A39"/>
<path d="M87.4947 84.1953H84.5566V87.1334H87.4947V84.1953Z" fill="#594A39"/>
<path d="M87.4947 93.0098H84.5566V95.9479H87.4947V93.0098Z" fill="#594A39"/>
<path d="M87.4947 101.867H84.5566V104.805H87.4947V101.867Z" fill="#594A39"/>
<path d="M87.4947 107.742H84.5566V110.68H87.4947V107.742Z" fill="#594A39"/>
<path d="M87.4947 110.682H84.5566V113.62H87.4947V110.682Z" fill="#594A39"/>
<path d="M87.4947 116.557H84.5566V119.495H87.4947V116.557Z" fill="#594A39"/>
<path d="M87.4947 119.496H84.5566V122.434H87.4947V119.496Z" fill="#594A39"/>
<path d="M87.4947 122.434H84.5566V125.372H87.4947V122.434Z" fill="#594A39"/>
<path d="M87.4947 125.371H84.5566V128.309H87.4947V125.371Z" fill="#594A39"/>
<path d="M87.4947 128.309H84.5566V131.247H87.4947V128.309Z" fill="#594A39"/>
<path d="M87.4947 131.248H84.5566V134.186H87.4947V131.248Z" fill="#594A39"/>
<path d="M87.4947 134.186H84.5566V137.124H87.4947V134.186Z" fill="#594A39"/>
<path d="M87.4947 137.123H84.5566V140.061H87.4947V137.123Z" fill="#594A39"/>
<path d="M87.4947 140.062H84.5566V143.001H87.4947V140.062Z" fill="#594A39"/>
<path d="M90.4332 69.5039H87.4951V72.442H90.4332V69.5039Z" fill="#594A39"/>
<path d="M90.4332 72.4434H87.4951V75.3815H90.4332V72.4434Z" fill="#594A39"/>
<path d="M90.4332 81.2578H87.4951V84.1959H90.4332V81.2578Z" fill="#594A39"/>
<path d="M90.4332 84.1953H87.4951V87.1334H90.4332V84.1953Z" fill="#594A39"/>
<path d="M90.4332 87.1328H87.4951V90.0709H90.4332V87.1328Z" fill="#594A39"/>
<path d="M90.4332 104.805H87.4951V107.743H90.4332V104.805Z" fill="#594A39"/>
<path d="M90.4332 107.742H87.4951V110.68H90.4332V107.742Z" fill="#594A39"/>
<path d="M90.4332 116.557H87.4951V119.495H90.4332V116.557Z" fill="#594A39"/>
<path d="M90.4332 128.309H87.4951V131.247H90.4332V128.309Z" fill="#594A39"/>
<path d="M90.4332 134.186H87.4951V137.124H90.4332V134.186Z" fill="#594A39"/>
<path d="M90.4332 137.123H87.4951V140.061H90.4332V137.123Z" fill="#594A39"/>
<path d="M90.4332 140.062H87.4951V143.001H90.4332V140.062Z" fill="#594A39"/>
<path d="M93.3717 46H90.4336V48.9381H93.3717V46Z" fill="#594A39"/>
<path d="M93.3717 48.9375H90.4336V51.8756H93.3717V48.9375Z" fill="#594A39"/>
<path d="M93.3717 51.877H90.4336V54.8151H93.3717V51.877Z" fill="#594A39"/>
<path d="M93.3717 54.8145H90.4336V57.7526H93.3717V54.8145Z" fill="#594A39"/>
<path d="M93.3717 57.752H90.4336V60.6901H93.3717V57.752Z" fill="#594A39"/>
<path d="M93.3717 60.6914H90.4336V63.6295H93.3717V60.6914Z" fill="#594A39"/>
<path d="M93.3717 63.6289H90.4336V66.567H93.3717V63.6289Z" fill="#594A39"/>
<path d="M93.3717 72.4434H90.4336V75.3815H93.3717V72.4434Z" fill="#594A39"/>
<path d="M93.3717 81.2578H90.4336V84.1959H93.3717V81.2578Z" fill="#594A39"/>
<path d="M93.3717 84.1953H90.4336V87.1334H93.3717V84.1953Z" fill="#594A39"/>
<path d="M93.3717 87.1328H90.4336V90.0709H93.3717V87.1328Z" fill="#594A39"/>
<path d="M93.3717 90.0723H90.4336V93.0104H93.3717V90.0723Z" fill="#594A39"/>
<path d="M93.3717 93.0098H90.4336V95.9479H93.3717V93.0098Z" fill="#594A39"/>
<path d="M93.3717 98.9277H90.4336V101.866H93.3717V98.9277Z" fill="#594A39"/>
<path d="M93.3717 107.742H90.4336V110.68H93.3717V107.742Z" fill="#594A39"/>
<path d="M93.3717 110.682H90.4336V113.62H93.3717V110.682Z" fill="#594A39"/>
<path d="M93.3717 116.557H90.4336V119.495H93.3717V116.557Z" fill="#594A39"/>
<path d="M93.3717 122.434H90.4336V125.372H93.3717V122.434Z" fill="#594A39"/>
<path d="M93.3717 128.309H90.4336V131.247H93.3717V128.309Z" fill="#594A39"/>
<path d="M93.3717 131.248H90.4336V134.186H93.3717V131.248Z" fill="#594A39"/>
<path d="M96.3092 46H93.3711V48.9381H96.3092V46Z" fill="#594A39"/>
<path d="M96.3092 63.6289H93.3711V66.567H96.3092V63.6289Z" fill="#594A39"/>
<path d="M96.3092 69.5039H93.3711V72.442H96.3092V69.5039Z" fill="#594A39"/>
<path d="M96.3092 72.4434H93.3711V75.3815H96.3092V72.4434Z" fill="#594A39"/>
<path d="M96.3092 75.3809H93.3711V78.319H96.3092V75.3809Z" fill="#594A39"/>
<path d="M96.3092 84.1953H93.3711V87.1334H96.3092V84.1953Z" fill="#594A39"/>
<path d="M96.3092 90.0723H93.3711V93.0104H96.3092V90.0723Z" fill="#594A39"/>
<path d="M96.3092 95.9902H93.3711V98.9283H96.3092V95.9902Z" fill="#594A39"/>
<path d="M96.3092 101.867H93.3711V104.805H96.3092V101.867Z" fill="#594A39"/>
<path d="M96.3092 110.682H93.3711V113.62H96.3092V110.682Z" fill="#594A39"/>
<path d="M96.3092 113.619H93.3711V116.557H96.3092V113.619Z" fill="#594A39"/>
<path d="M96.3092 116.557H93.3711V119.495H96.3092V116.557Z" fill="#594A39"/>
<path d="M96.3092 128.309H93.3711V131.247H96.3092V128.309Z" fill="#594A39"/>
<path d="M99.2477 46H96.3096V48.9381H99.2477V46Z" fill="#594A39"/>
<path d="M99.2477 51.877H96.3096V54.8151H99.2477V51.877Z" fill="#594A39"/>
<path d="M99.2477 54.8145H96.3096V57.7526H99.2477V54.8145Z" fill="#594A39"/>
<path d="M99.2477 57.752H96.3096V60.6901H99.2477V57.752Z" fill="#594A39"/>
<path d="M99.2477 63.6289H96.3096V66.567H99.2477V63.6289Z" fill="#594A39"/>
<path d="M99.2477 75.3809H96.3096V78.319H99.2477V75.3809Z" fill="#594A39"/>
<path d="M99.2477 78.3184H96.3096V81.2565H99.2477V78.3184Z" fill="#594A39"/>
<path d="M99.2477 84.1953H96.3096V87.1334H99.2477V84.1953Z" fill="#594A39"/>
<path d="M99.2477 93.0098H96.3096V95.9479H99.2477V93.0098Z" fill="#594A39"/>
<path d="M99.2477 110.682H96.3096V113.62H99.2477V110.682Z" fill="#594A39"/>
<path d="M99.2477 116.557H96.3096V119.495H99.2477V116.557Z" fill="#594A39"/>
<path d="M99.2477 119.496H96.3096V122.434H99.2477V119.496Z" fill="#594A39"/>
<path d="M99.2477 122.434H96.3096V125.372H99.2477V122.434Z" fill="#594A39"/>
<path d="M99.2477 125.371H96.3096V128.309H99.2477V125.371Z" fill="#594A39"/>
<path d="M99.2477 128.309H96.3096V131.247H99.2477V128.309Z" fill="#594A39"/>
<path d="M99.2477 131.248H96.3096V134.186H99.2477V131.248Z" fill="#594A39"/>
<path d="M99.2477 134.186H96.3096V137.124H99.2477V134.186Z" fill="#594A39"/>
<path d="M99.2477 140.062H96.3096V143.001H99.2477V140.062Z" fill="#594A39"/>
<path d="M102.186 46H99.248V48.9381H102.186V46Z" fill="#594A39"/>
<path d="M102.186 51.877H99.248V54.8151H102.186V51.877Z" fill="#594A39"/>
<path d="M102.186 54.8145H99.248V57.7526H102.186V54.8145Z" fill="#594A39"/>
<path d="M102.186 57.752H99.248V60.6901H102.186V57.752Z" fill="#594A39"/>
<path d="M102.186 63.6289H99.248V66.567H102.186V63.6289Z" fill="#594A39"/>
<path d="M102.186 78.3184H99.248V81.2565H102.186V78.3184Z" fill="#594A39"/>
<path d="M102.186 81.2578H99.248V84.1959H102.186V81.2578Z" fill="#594A39"/>
<path d="M102.186 84.1953H99.248V87.1334H102.186V84.1953Z" fill="#594A39"/>
<path d="M102.186 90.0723H99.248V93.0104H102.186V90.0723Z" fill="#594A39"/>
<path d="M102.186 95.9902H99.248V98.9283H102.186V95.9902Z" fill="#594A39"/>
<path d="M102.186 110.682H99.248V113.62H102.186V110.682Z" fill="#594A39"/>
<path d="M102.186 113.619H99.248V116.557H102.186V113.619Z" fill="#594A39"/>
<path d="M102.186 119.496H99.248V122.434H102.186V119.496Z" fill="#594A39"/>
<path d="M102.186 122.434H99.248V125.372H102.186V122.434Z" fill="#594A39"/>
<path d="M102.186 128.309H99.248V131.247H102.186V128.309Z" fill="#594A39"/>
<path d="M102.186 131.248H99.248V134.186H102.186V131.248Z" fill="#594A39"/>
<path d="M102.186 140.062H99.248V143.001H102.186V140.062Z" fill="#594A39"/>
<path d="M105.124 46H102.186V48.9381H105.124V46Z" fill="#594A39"/>
<path d="M105.124 51.877H102.186V54.8151H105.124V51.877Z" fill="#594A39"/>
<path d="M105.124 54.8145H102.186V57.7526H105.124V54.8145Z" fill="#594A39"/>
<path d="M105.124 57.752H102.186V60.6901H105.124V57.752Z" fill="#594A39"/>
<path d="M105.124 63.6289H102.186V66.567H105.124V63.6289Z" fill="#594A39"/>
<path d="M105.124 75.3809H102.186V78.319H105.124V75.3809Z" fill="#594A39"/>
<path d="M105.124 98.9277H102.186V101.866H105.124V98.9277Z" fill="#594A39"/>
<path d="M105.124 107.742H102.186V110.68H105.124V107.742Z" fill="#594A39"/>
<path d="M105.124 122.434H102.186V125.372H105.124V122.434Z" fill="#594A39"/>
<path d="M108.062 46H105.124V48.9381H108.062V46Z" fill="#594A39"/>
<path d="M108.062 63.6289H105.124V66.567H108.062V63.6289Z" fill="#594A39"/>
<path d="M108.062 81.2578H105.124V84.1959H108.062V81.2578Z" fill="#594A39"/>
<path d="M108.062 84.1953H105.124V87.1334H108.062V84.1953Z" fill="#594A39"/>
<path d="M108.062 87.1328H105.124V90.0709H108.062V87.1328Z" fill="#594A39"/>
<path d="M108.062 90.0723H105.124V93.0104H108.062V90.0723Z" fill="#594A39"/>
<path d="M108.062 93.0098H105.124V95.9479H108.062V93.0098Z" fill="#594A39"/>
<path d="M108.062 95.9902H105.124V98.9283H108.062V95.9902Z" fill="#594A39"/>
<path d="M108.062 98.9277H105.124V101.866H108.062V98.9277Z" fill="#594A39"/>
<path d="M108.062 104.805H105.124V107.743H108.062V104.805Z" fill="#594A39"/>
<path d="M108.062 107.742H105.124V110.68H108.062V107.742Z" fill="#594A39"/>
<path d="M108.062 119.496H105.124V122.434H108.062V119.496Z" fill="#594A39"/>
<path d="M108.062 122.434H105.124V125.372H108.062V122.434Z" fill="#594A39"/>
<path d="M108.062 128.309H105.124V131.247H108.062V128.309Z" fill="#594A39"/>
<path d="M108.062 140.062H105.124V143.001H108.062V140.062Z" fill="#594A39"/>
<path d="M111 46H108.062V48.9381H111V46Z" fill="#594A39"/>
<path d="M111 48.9375H108.062V51.8756H111V48.9375Z" fill="#594A39"/>
<path d="M111 51.877H108.062V54.8151H111V51.877Z" fill="#594A39"/>
<path d="M111 54.8145H108.062V57.7526H111V54.8145Z" fill="#594A39"/>
<path d="M111 57.752H108.062V60.6901H111V57.752Z" fill="#594A39"/>
<path d="M111 60.6914H108.062V63.6295H111V60.6914Z" fill="#594A39"/>
<path d="M111 63.6289H108.062V66.567H111V63.6289Z" fill="#594A39"/>
<path d="M111 72.4434H108.062V75.3815H111V72.4434Z" fill="#594A39"/>
<path d="M111 75.3809H108.062V78.319H111V75.3809Z" fill="#594A39"/>
<path d="M111 78.3184H108.062V81.2565H111V78.3184Z" fill="#594A39"/>
<path d="M111 81.2578H108.062V84.1959H111V81.2578Z" fill="#594A39"/>
<path d="M111 84.1953H108.062V87.1334H111V84.1953Z" fill="#594A39"/>
<path d="M111 98.9277H108.062V101.866H111V98.9277Z" fill="#594A39"/>
<path d="M111 107.742H108.062V110.68H111V107.742Z" fill="#594A39"/>
<path d="M111 110.682H108.062V113.62H111V110.682Z" fill="#594A39"/>
<path d="M111 116.557H108.062V119.495H111V116.557Z" fill="#594A39"/>
<path d="M111 119.496H108.062V122.434H111V119.496Z" fill="#594A39"/>
<path d="M111 134.186H108.062V137.124H111V134.186Z" fill="#594A39"/>
</g>
<defs>
<clipPath id="clip0_1384_5763">
<rect width="97" height="97" fill="white" transform="translate(14 46)"/>
</clipPath>
</defs>
</svg>
