<svg width="632" height="550" viewBox="0 0 632 550" fill="none" xmlns="http://www.w3.org/2000/svg">
<path opacity="0.7" d="M437.111 0C569.667 0 642.551 50.7446 629.756 136.21C619.009 208 561.976 235.816 474.353 244.799C474.138 251.89 472.336 258.844 469.083 265.146C465.83 271.449 461.208 276.941 455.555 281.219C454.91 281.715 454.128 282.005 453.316 282.046C452.504 282.087 451.698 281.879 451.007 281.45C450.315 281.022 449.772 280.394 449.446 279.648C449.121 278.902 449.03 278.073 449.186 277.274C450.142 271.782 449.732 266.14 447.987 260.846C446.241 255.551 443.215 250.768 439.181 246.924C427.7 247.41 435.757 247.654 423.346 247.654C290.79 247.654 200.135 198.184 200.135 111.444C200.135 24.7039 304.555 0 437.111 0Z" fill="#B8C318"/>
<path d="M302.615 110.718C302.084 110.371 301.594 109.963 301.158 109.503C300.471 108.855 299.803 108.128 299.156 107.318C298.666 106.704 298.221 106.056 297.824 105.377C297.611 104.747 297.611 104.063 297.824 103.433C297.824 102.522 298.371 102.037 298.674 102.037C298.977 102.037 299.157 102.039 299.521 101.31L300.613 99.1854C300.857 98.7467 301.04 98.2772 301.158 97.7894C301.202 97.6394 301.281 97.502 301.386 97.3863C301.491 97.2706 301.62 97.1806 301.765 97.1225L302.674 96.5149C303.101 95.8821 303.589 95.2923 304.131 94.7544L305.584 93.1747C306.562 92.0132 307.615 90.9179 308.738 89.8967C310.254 88.4399 311.709 86.9832 313.164 85.4657L317.167 81.097C317.985 80.371 318.609 79.4537 318.985 78.4265C319.388 78.0372 319.816 77.6713 320.261 77.3329C320.801 77.0193 321.309 76.6523 321.777 76.2392C322.309 75.8029 322.815 75.3369 323.293 74.8433C323.539 74.1296 323.886 73.4576 324.324 72.8427C324.919 72.0699 325.566 71.3376 326.263 70.6553C326.85 69.7185 327.378 68.7455 327.841 67.7419C328.25 67.0118 328.573 66.2388 328.809 65.436C329.052 64.6671 329.052 64.1801 328.809 63.9778C327.862 63.5723 326.89 63.2281 325.899 62.9463C324.292 62.5016 322.594 62.5016 320.987 62.9463C318.78 63.6239 316.722 64.7173 314.923 66.1651C313.97 66.3669 313.037 66.6491 312.134 67.0128C311.478 67.349 310.748 67.5163 310.011 67.4988C309.643 67.2234 309.318 66.8983 309.043 66.5296C308.692 66.0182 308.308 65.53 307.891 65.0714L306.798 60.4597L310.132 58.5776C312.794 56.8481 315.644 55.4216 318.624 54.3275C320.867 53.3727 323.366 53.2012 325.718 53.8414C326.788 53.8894 327.848 54.075 328.872 54.3897C329.785 54.4173 330.67 54.7106 331.418 55.2374C332.604 55.9623 333.719 56.7964 334.752 57.727C335.724 58.5658 336.508 59.5999 337.055 60.762C338.179 62.5738 338.651 64.7155 338.391 66.832C337.976 69.6184 336.894 72.2632 335.237 74.5409L332.872 77.2736C331.598 78.609 330.265 80.1858 328.688 81.8854L324.445 86.3786L322.017 88.8652C321.058 89.4037 320.197 90.1035 319.471 90.931L315.714 94.7544C314.379 96.1505 313.226 97.3651 312.377 98.397C311.528 99.4289 311.043 99.9738 311.225 99.9738C311.407 99.9738 311.528 100.277 312.377 99.9738L314.559 99.1854C315.811 98.7674 317.089 98.4233 318.381 98.154C319.897 97.8505 321.413 97.5447 322.929 97.3626C324.234 97.1501 325.55 97.0093 326.87 96.9388C327.521 96.7337 328.22 96.7337 328.872 96.9388C328.872 97.303 329.174 97.3637 329.416 96.9388C329.659 96.5139 330.448 96.2721 332.146 96.5149C333.71 96.6909 335.252 97.0141 336.753 97.4841C337.433 97.631 338.074 97.9215 338.634 98.3347C339.119 98.6989 339.362 99.0034 339.362 99.3069C339.696 99.9247 340.081 100.514 340.514 101.067C340.779 101.214 340.999 101.428 341.153 101.69C341.307 101.951 341.39 102.249 341.39 102.552C341.39 102.856 341.307 103.156 341.153 103.418C340.999 103.679 340.779 103.893 340.514 104.04C339.643 104.653 338.641 105.056 337.588 105.214C336.536 105.372 335.462 105.28 334.45 104.95C332.908 104.907 331.363 105.01 329.84 105.255C329.221 105.396 328.578 105.396 327.96 105.255H325.292C323.984 105.074 322.659 105.074 321.351 105.255C319.787 105.572 318.248 105.998 316.744 106.53L313.712 107.502L309.285 108.776C307.869 109.177 306.432 109.499 304.98 109.746C304.244 110.184 303.447 110.513 302.615 110.718Z" fill="#FDFDFB"/>
<path d="M376.288 111.262C375.34 111.186 374.405 111.004 373.499 110.716C372.165 110.352 370.829 109.867 369.374 109.32C368.185 108.937 367.075 108.34 366.099 107.56C363.824 105.674 362.02 103.285 360.826 100.58C359.741 98.0987 359.083 95.4507 358.884 92.7495C358.706 90.2168 358.809 87.6723 359.189 85.162C360.056 80.3014 361.736 75.6236 364.16 71.3238C367.634 64.9306 372.714 59.5521 378.896 55.7221C381.698 53.8485 384.987 52.8359 388.356 52.8086H391.326C392.962 52.8437 394.581 53.1508 396.117 53.7185C397.718 54.3013 399.259 55.035 400.724 55.9058C401.997 56.7556 402.666 57.5426 402.666 58.271C402.694 58.7764 402.694 59.283 402.666 59.7885C402.666 60.2741 402.301 60.3972 401.695 60.0937H400.605L401.695 63.3095C402.038 64.0694 402.302 64.8635 402.483 65.6776C402.663 66.5366 402.766 67.4113 402.787 68.2888C402.854 69.3601 402.854 70.4333 402.787 71.5046C402.787 72.9007 402.303 74.4166 402 75.9948C401.697 77.573 401.332 79.0933 401.029 80.4287C400.839 81.471 400.534 82.4888 400.12 83.4637C399.888 83.8491 399.762 84.2886 399.756 84.7382C399.726 85.0815 399.726 85.4263 399.756 85.7696C399.452 86.3159 398.967 87.3478 398.361 88.8046L396.904 91.8396L396.238 92.5687C396.238 92.5687 396.238 93.0536 396.238 93.3571C396.128 93.8583 395.965 94.345 395.752 94.8123C395.389 95.5407 394.965 96.2711 394.601 96.8781C394.237 97.4851 393.874 97.8473 393.692 97.8473C393.51 97.8473 393.144 97.8478 393.144 98.3334C392.803 99.1662 392.311 99.9286 391.69 100.58C390.623 101.91 389.469 103.168 388.235 104.344C387.178 105.388 386.019 106.323 384.777 107.136C383.2 108.229 381.623 109.2 380.107 110.049C378.948 110.751 377.639 111.166 376.288 111.262ZM376.288 100.823C377.07 100.825 377.848 100.702 378.591 100.458C379.29 100.245 379.921 99.8467 380.412 99.3055C381.822 98.3349 383.085 97.1682 384.17 95.8437C385.375 94.3229 386.375 92.6503 387.142 90.8674C387.908 89.8172 388.54 88.6749 389.022 87.4679C389.508 86.3146 390.234 84.2508 391.205 81.3979C391.824 80.5311 392.24 79.535 392.419 78.4844C392.52 77.5159 392.52 76.5395 392.419 75.571C392.419 74.7819 392.419 73.6891 392.419 72.293C392.465 71.1264 392.628 69.9684 392.904 68.8341C392.904 66.9525 392.904 65.8596 392.904 65.5561C392.696 65.0529 392.384 64.597 391.992 64.2194C391.655 63.9566 391.29 63.7334 390.903 63.5526C390.429 63.3294 389.909 63.2264 389.387 63.2502C388.707 63.284 388.033 63.4067 387.385 63.6148C386.659 63.821 385.966 64.1268 385.324 64.5247C385.058 64.6454 384.767 64.7085 384.475 64.7085C384.182 64.7085 383.892 64.6454 383.625 64.5247C383.018 64.5247 382.716 63.9776 382.716 63.6741C382.716 63.3706 382.229 62.7029 381.259 63.6741L377.38 68.2888C376.169 69.4992 375.072 70.8195 374.106 72.2337C373.525 72.9607 373.073 73.7813 372.77 74.6611C372.743 75.0502 372.618 75.4272 372.406 75.7547C372.406 76.1796 371.984 76.7259 371.802 77.2722C371.288 78.0624 370.84 78.893 370.467 79.7589L369.01 83.1584C368.64 83.9827 368.336 84.8347 368.101 85.7074V91.7773C368.054 92.667 368.054 93.5581 368.101 94.4478C368.134 94.9318 368.258 95.4052 368.465 95.8437L369.253 97.4827C369.68 98.1179 370.145 98.7279 370.647 99.3055C371.089 99.7587 371.496 100.244 371.861 100.761C372.65 101.489 373.194 101.734 373.436 101.552C374.268 101.189 375.146 100.943 376.045 100.823H376.288Z" fill="#FDFDFB"/>
<path d="M421.889 110.718C421.37 110.355 420.882 109.948 420.432 109.503C419.786 108.855 419.121 108.128 418.434 107.318C417.936 106.722 417.508 106.072 417.161 105.377C417.161 105.013 417.161 104.404 417.161 103.433C417.161 102.461 417.645 102.037 417.948 102.037C418.251 102.037 418.434 102.039 418.798 101.31L419.888 99.1854C420.131 98.7467 420.314 98.2772 420.432 97.7894C420.546 97.5003 420.763 97.2636 421.039 97.1225L421.948 96.5149C422.375 95.8821 422.864 95.2923 423.405 94.7544L424.862 93.1747C425.856 92.0286 426.906 90.9343 428.012 89.8967C429.528 88.4399 430.986 86.9832 432.442 85.4657L436.442 81.097C437.259 80.371 437.886 79.4537 438.263 78.4265L439.595 77.3329C440.123 77.03 440.613 76.662 441.052 76.2392L442.627 74.8433C442.843 74.117 443.192 73.4401 443.657 72.8427C444.231 72.0701 444.859 71.3377 445.538 70.6553C446.083 69.7448 446.629 68.8345 447.175 67.7419C447.721 66.6493 447.964 65.9216 448.146 65.436C448.328 64.9504 448.146 64.1599 448.146 63.9778C447.199 63.5723 446.227 63.2281 445.236 62.9463C443.649 62.5006 441.969 62.5006 440.383 62.9463C438.179 63.6306 436.122 64.7234 434.319 66.1651C433.366 66.3669 432.433 66.6491 431.53 67.0128C430.895 67.3489 430.186 67.5166 429.469 67.4988C429.066 67.2445 428.717 66.9168 428.439 66.5296C428.108 66.0042 427.722 65.5144 427.287 65.0714L426.194 60.4597L429.528 58.5776C432.198 56.8608 435.046 55.4351 438.02 54.3275C440.263 53.3727 442.762 53.2012 445.114 53.8414C446.185 53.8833 447.245 54.069 448.267 54.3897C449.181 54.4173 450.066 54.7106 450.814 55.2374C452.01 55.9472 453.127 56.7823 454.148 57.727C455.139 58.5479 455.929 59.5865 456.454 60.762C457.632 62.5511 458.106 64.7132 457.787 66.832C457.371 69.6184 456.29 72.2632 454.633 74.5409L452.268 77.2736L448.084 81.8854C446.568 83.585 445.113 85.0432 443.9 86.3786L441.475 88.8652C440.494 89.3715 439.628 90.0759 438.929 90.931C437.716 92.1046 436.443 93.3786 435.109 94.7544C433.775 96.1505 432.682 97.3651 431.773 98.397C430.863 99.4289 430.499 99.9738 430.621 99.9738C430.742 99.9738 430.924 100.277 431.773 99.9738L434.017 99.1854C435.264 98.7519 436.54 98.4076 437.836 98.154C439.292 97.8505 440.809 97.5447 442.325 97.3626C443.63 97.1501 444.945 97.0093 446.266 96.9388C446.917 96.7337 447.616 96.7337 448.267 96.9388C448.267 97.303 448.267 97.3637 448.812 96.9388C449.358 96.5139 449.844 96.2721 451.542 96.5149C453.107 96.6844 454.649 97.0077 456.149 97.4841C456.833 97.6174 457.477 97.9092 458.029 98.3347C458.515 98.6989 458.758 99.0034 458.758 99.3069C459.091 99.9396 459.496 100.531 459.969 101.067C460.219 101.226 460.427 101.445 460.57 101.705C460.713 101.965 460.789 102.256 460.789 102.552C460.789 102.849 460.713 103.143 460.57 103.403C460.427 103.663 460.219 103.881 459.969 104.04C459.092 104.64 458.094 105.035 457.043 105.193C455.993 105.351 454.919 105.266 453.905 104.95C452.363 104.909 450.821 105.012 449.298 105.255C448.679 105.396 448.036 105.396 447.418 105.255H444.75C443.463 105.073 442.155 105.073 440.868 105.255C439.284 105.571 437.724 105.997 436.199 106.53L433.167 107.502L428.741 108.776C427.325 109.183 425.888 109.505 424.435 109.746C423.644 110.204 422.785 110.533 421.889 110.718Z" fill="#FDFDFB"/>
<path d="M481.071 110.718C480.565 110.339 480.081 109.932 479.617 109.503C478.93 108.855 478.262 108.128 477.615 107.318C477.139 106.707 476.713 106.058 476.342 105.377C476.342 105.013 476.342 104.404 476.342 103.433C476.342 102.462 476.827 102.037 477.13 102.037C477.433 102.037 477.676 102.039 477.98 101.311L479.072 99.1855C479.316 98.7468 479.499 98.2774 479.617 97.7896C479.731 97.5004 479.947 97.2638 480.224 97.1227L481.133 96.5151C481.56 95.8823 482.045 95.2925 482.587 94.7546L484.043 93.1748C485.038 92.0288 486.09 90.9345 487.197 89.8968C488.713 88.44 490.168 86.9834 491.623 85.4659L495.626 81.0971C496.434 80.3491 497.075 79.4394 497.507 78.4267C497.895 78.0227 498.321 77.6558 498.78 77.3331C499.308 77.0302 499.795 76.6621 500.233 76.2394L501.812 74.8434C502.027 74.1172 502.377 73.4403 502.842 72.8428C503.416 72.0703 504.044 71.3379 504.722 70.6555C505.352 69.734 505.9 68.7592 506.36 67.742C506.742 66.9992 507.064 66.2288 507.328 65.4362C507.328 64.6471 507.328 64.16 507.328 63.9779C506.38 63.5724 505.408 63.2282 504.417 62.9465C502.831 62.4976 501.153 62.4976 499.567 62.9465C497.369 63.6436 495.314 64.7352 493.503 66.1653C492.568 66.3578 491.653 66.6404 490.774 67.0129C490.116 67.3444 489.387 67.5115 488.651 67.499C488.269 67.2398 487.941 66.9122 487.682 66.5298C487.311 66.0174 486.905 65.5292 486.468 65.0716L485.379 60.4598L488.772 58.5778C491.428 56.8377 494.279 55.4106 497.264 54.3276C499.486 53.3728 501.964 53.2011 504.296 53.8416C505.366 53.8834 506.427 54.0692 507.449 54.3899C508.365 54.4024 509.255 54.6972 509.995 55.2375C511.192 55.9474 512.311 56.7825 513.332 57.7272C514.339 58.5475 515.148 59.585 515.698 60.7622C516.829 62.57 517.28 64.7216 516.971 66.8321C516.556 69.6185 515.474 72.2634 513.818 74.5411L511.452 77.2738L507.268 81.8855C505.753 83.5851 504.358 85.0433 503.085 86.3787L500.66 88.8654C499.679 89.3716 498.809 90.0761 498.111 90.9312L494.291 94.7546C492.957 96.1507 491.867 97.3653 490.957 98.3972C490.048 99.429 489.684 99.9739 489.805 99.9739C489.927 99.9739 490.108 100.277 490.957 99.9739L493.198 99.1855C494.448 98.7598 495.727 98.4156 497.021 98.1541C498.476 97.8506 499.991 97.5449 501.507 97.3628C502.812 97.1534 504.127 97.0126 505.448 96.9389C506.098 96.7258 506.799 96.7258 507.449 96.9389C507.449 97.3031 507.754 97.3638 507.997 96.9389C508.239 96.514 509.087 96.2723 510.724 96.5151C512.288 96.6845 513.834 97.0079 515.334 97.4843C516.032 97.6317 516.691 97.9218 517.273 98.3349C517.698 98.6991 517.939 99.0036 517.939 99.3071C518.294 99.9266 518.701 100.516 519.153 101.068C519.404 101.226 519.609 101.445 519.751 101.705C519.894 101.965 519.971 102.256 519.971 102.552C519.971 102.849 519.894 103.143 519.751 103.403C519.609 103.663 519.404 103.882 519.153 104.04C518.281 104.649 517.28 105.047 516.228 105.205C515.176 105.363 514.102 105.276 513.09 104.95C511.527 104.907 509.964 105.01 508.42 105.256C507.821 105.391 507.201 105.391 506.602 105.256H503.872C502.585 105.074 501.278 105.074 499.991 105.256C498.407 105.571 496.846 105.997 495.321 106.53L492.289 107.502L487.863 108.777C486.467 109.176 485.051 109.498 483.62 109.746C482.825 110.197 481.964 110.525 481.071 110.718Z" fill="#FDFDFB"/>
<path opacity="0.2" d="M348.26 411.303C348.26 411.303 395.133 382.775 446.433 387.63C447.829 387.766 449.237 387.535 450.516 386.961C451.795 386.386 452.902 385.486 453.729 384.352C454.555 383.219 455.07 381.891 455.227 380.496C455.383 379.102 455.175 377.689 454.62 376.4C444.008 351.028 407.746 297.491 291.684 296.338" fill="#7DBE37"/>
<path opacity="0.2" d="M157.796 468.603C126.28 481.509 97.4792 500.249 72.902 523.84C71.9236 524.838 70.7008 525.564 69.3579 525.948C68.015 526.331 66.5962 526.358 65.2393 526.028C63.8824 525.697 62.635 525.021 61.6182 524.063C60.6013 523.104 59.8504 521.898 59.439 520.562C51.2528 494.219 44.5211 429.513 132.871 354.367" fill="#7DBE37"/>
<path d="M315.092 269.205C315.092 269.205 377.124 259.677 418.601 217.673C419.732 216.546 421.135 215.73 422.672 215.304C424.21 214.879 425.829 214.858 427.377 215.242C428.925 215.627 430.35 216.405 431.51 217.501C432.671 218.596 433.529 219.971 434.003 221.496C443.342 251.846 451.042 325.474 349.897 411.728" fill="#5E9A33"/>
<path d="M361.569 505.447C372.164 499.016 374.112 482.835 365.916 469.305C357.721 455.775 342.486 450.019 331.89 456.45C321.294 462.881 319.351 479.063 327.547 492.593C335.742 506.124 350.973 511.878 361.569 505.447Z" fill="#FEFAE9"/>
<path d="M258.246 544.437C270.493 542.55 278.47 528.345 276.066 512.706C273.661 497.067 261.785 485.917 249.538 487.804C237.291 489.691 229.311 503.9 231.716 519.539C234.121 535.178 245.999 546.324 258.246 544.437Z" fill="#FEFAE9"/>
<path d="M184.962 177.852C184.962 177.852 198.848 206.016 258.395 210.75C274.963 212.046 290.86 217.862 304.359 227.564C346.26 257.914 421.937 329.419 389.253 434.672C389.253 434.672 369.484 485.233 304.782 508.603C304.782 508.603 244.994 535.616 192.299 509.029C143.788 484.75 93.396 398.373 125.171 289.781C129.767 274.109 138.779 260.096 151.125 249.417C167.195 235.274 190.48 211.358 184.962 177.852Z" fill="#FEFAE9"/>
<path d="M115.711 340.952C117 323.612 120.131 306.458 125.049 289.781C129.646 274.109 138.658 260.096 151.004 249.417C167.195 235.274 190.481 211.358 184.963 177.852C184.963 177.852 198.848 206.016 258.395 210.75C274.963 212.046 290.86 217.862 304.359 227.564C317.473 237.055 329.766 247.634 341.107 259.189C335.043 275.577 311.212 331.481 248.876 354.183C248.876 354.183 190.781 376.826 115.711 340.952Z" fill="#7DBE37"/>
<path d="M340.8 258.887C354.37 276.187 364.647 295.835 371.12 316.854C378.396 343.926 361.478 379.92 333.099 390.239C220.615 431.211 115.71 341.679 115.71 341.679C115.71 341.679 114.376 323.469 146.029 311.329C177.682 299.189 300.417 255.123 300.417 255.123C300.417 255.123 330.916 245.472 340.8 258.887Z" fill="#F2E865"/>
<path d="M289.623 284.076C310.755 284.076 327.886 266.928 327.886 245.774C327.886 224.621 310.755 207.473 289.623 207.473C268.491 207.473 251.36 224.621 251.36 245.774C251.36 266.928 268.491 284.076 289.623 284.076Z" fill="white"/>
<path d="M192.42 319.525C213.552 319.525 230.682 302.377 230.682 281.223C230.682 260.07 213.552 242.922 192.42 242.922C171.288 242.922 154.157 260.07 154.157 281.223C154.157 302.377 171.288 319.525 192.42 319.525Z" fill="white"/>
<path d="M330.253 260.524H329.948C329.52 260.486 329.105 260.361 328.725 260.16C328.345 259.958 328.008 259.681 327.736 259.347C327.465 259.014 327.264 258.629 327.144 258.215C327.024 257.802 326.987 257.368 327.038 256.941L328.311 243.832C328.466 243.034 328.913 242.321 329.563 241.834C330.213 241.347 331.023 241.118 331.831 241.194C332.64 241.27 333.39 241.644 333.939 242.243C334.488 242.842 334.796 243.623 334.801 244.436L333.466 257.611C333.404 258.416 333.036 259.164 332.438 259.706C331.84 260.248 331.059 260.542 330.253 260.524Z" fill="#E27E7C"/>
<path d="M340.5 260.646H340.195C339.336 260.554 338.55 260.125 338.004 259.455C337.459 258.784 337.2 257.923 337.285 257.063L338.62 243.954C338.658 243.525 338.78 243.107 338.981 242.727C339.183 242.346 339.459 242.011 339.793 241.74C340.126 241.468 340.511 241.264 340.924 241.144C341.337 241.024 341.77 240.99 342.197 241.04C342.623 241.077 343.04 241.199 343.417 241.402C343.794 241.604 344.124 241.882 344.391 242.217C344.658 242.552 344.852 242.939 344.965 243.352C345.078 243.765 345.107 244.196 345.048 244.62L343.775 257.733C343.699 258.543 343.317 259.293 342.709 259.834C342.102 260.375 341.313 260.665 340.5 260.646Z" fill="#E27E7C"/>
<path d="M149.004 322.38C148.575 322.342 148.158 322.217 147.778 322.015C147.398 321.813 147.063 321.54 146.792 321.206C146.521 320.872 146.32 320.484 146.2 320.071C146.08 319.657 146.043 319.224 146.093 318.796L147.366 305.687C147.458 304.827 147.886 304.037 148.557 303.491C149.227 302.945 150.083 302.689 150.943 302.774C151.372 302.811 151.789 302.934 152.169 303.135C152.549 303.337 152.883 303.613 153.155 303.947C153.426 304.281 153.63 304.666 153.75 305.08C153.87 305.493 153.904 305.927 153.854 306.354L152.521 319.466C152.483 319.889 152.361 320.299 152.163 320.675C151.965 321.051 151.696 321.386 151.369 321.656C151.042 321.927 150.665 322.131 150.259 322.255C149.853 322.379 149.426 322.421 149.004 322.38Z" fill="#E27E7C"/>
<path d="M159.494 322.56C159.071 322.522 158.662 322.402 158.286 322.204C157.91 322.006 157.577 321.734 157.306 321.407C157.035 321.079 156.832 320.702 156.708 320.295C156.584 319.889 156.542 319.461 156.583 319.039L157.919 305.867C158.025 305.025 158.447 304.257 159.1 303.715C159.754 303.174 160.587 302.901 161.433 302.954C161.862 302.991 162.279 303.117 162.659 303.318C163.039 303.52 163.374 303.793 163.645 304.127C163.917 304.461 164.12 304.849 164.24 305.263C164.36 305.676 164.394 306.109 164.344 306.537L163.071 319.646C162.964 320.5 162.535 321.279 161.869 321.822C161.202 322.364 160.35 322.629 159.494 322.56Z" fill="#E27E7C"/>
<path d="M200 286.928C209.042 286.928 216.372 279.591 216.372 270.539C216.372 261.488 209.042 254.15 200 254.15C190.958 254.15 183.627 261.488 183.627 270.539C183.627 279.591 190.958 286.928 200 286.928Z" fill="#4A1E0E"/>
<path d="M289.441 254.393C298.483 254.393 305.814 247.056 305.814 238.004C305.814 228.953 298.483 221.615 289.441 221.615C280.399 221.615 273.069 228.953 273.069 238.004C273.069 247.056 280.399 254.393 289.441 254.393Z" fill="#4A1E0E"/>
<path d="M373.729 509.031C372.921 509.038 372.118 508.892 371.363 508.604C369.643 507.974 368.243 506.688 367.469 505.026C366.696 503.365 366.616 501.465 367.241 499.742L383.067 456.769C383.378 455.917 383.853 455.135 384.468 454.469C385.082 453.803 385.824 453.265 386.647 452.886C387.47 452.508 388.359 452.296 389.264 452.264C390.17 452.232 391.073 452.38 391.92 452.7C393.63 453.342 395.019 454.632 395.79 456.289C396.561 457.946 396.654 459.838 396.045 461.562L380.216 504.537C379.721 505.859 378.835 506.998 377.676 507.801C376.516 508.604 375.139 509.034 373.729 509.031Z" fill="#695D41"/>
<path d="M363.847 513.279C362.162 513.277 360.534 512.66 359.272 511.542C358.011 510.424 357.2 508.883 356.993 507.209L351.841 473.886C351.562 472.076 352.01 470.226 353.09 468.747C354.17 467.268 355.791 466.278 357.6 465.994C358.497 465.838 359.419 465.866 360.306 466.074C361.193 466.282 362.028 466.668 362.763 467.206C363.499 467.744 364.117 468.424 364.584 469.206C365.052 469.989 365.359 470.858 365.484 471.761L370.636 505.087C370.915 506.898 370.467 508.744 369.387 510.223C368.307 511.702 366.686 512.693 364.877 512.977L363.847 513.279Z" fill="#695D41"/>
<path d="M261.242 550.002H260.395C259.487 549.905 258.607 549.627 257.808 549.184C257.009 548.742 256.306 548.142 255.741 547.424C255.176 546.706 254.76 545.884 254.518 545.002C254.276 544.121 254.213 543.2 254.332 542.293L259.122 503.325C259.238 502.42 259.528 501.547 259.981 500.755C260.433 499.963 261.037 499.268 261.757 498.71C262.478 498.152 263.303 497.74 264.182 497.501C265.062 497.261 265.979 497.198 266.883 497.314C267.786 497.43 268.659 497.723 269.45 498.177C270.241 498.63 270.935 499.233 271.493 499.955C272.05 500.676 272.459 501.499 272.698 502.379C272.937 503.259 273.003 504.181 272.887 505.085L268.034 543.992C267.828 545.649 267.026 547.177 265.775 548.283C264.525 549.39 262.911 550.001 261.242 550.002Z" fill="#695D41"/>
<path d="M271.552 546.904C270.281 546.944 269.03 546.584 267.975 545.873C266.411 544.928 265.283 543.403 264.84 541.628C264.396 539.854 264.673 537.974 265.609 536.403L292.716 491.364C293.66 489.799 295.184 488.672 296.956 488.229C298.729 487.785 300.604 488.059 302.173 488.996C303.742 489.953 304.872 491.492 305.315 493.276C305.757 495.06 305.478 496.948 304.539 498.528L277.435 543.567C276.822 544.581 275.957 545.421 274.927 546.006C273.897 546.591 272.736 546.898 271.552 546.904Z" fill="#695D41"/>
<path d="M272.582 267.808L257.544 206.744C257.341 205.981 256.893 205.309 256.268 204.829C255.643 204.348 254.877 204.088 254.089 204.088C253.301 204.088 252.535 204.348 251.91 204.829C251.285 205.309 250.834 205.981 250.631 206.744L232.439 276.187C232.001 277.827 232.09 279.562 232.688 281.151C233.286 282.74 234.365 284.105 235.776 285.048L292.716 322.559C293.374 323.022 294.166 323.25 294.969 323.205C295.773 323.16 296.537 322.846 297.14 322.313C297.742 321.78 298.148 321.06 298.292 320.268C298.435 319.476 298.308 318.658 297.93 317.947L272.704 267.929L272.582 267.808Z" fill="#695D41"/>
<path d="M232.379 276.124L250.571 206.683C250.729 206.001 251.092 205.384 251.613 204.917C252.134 204.45 252.787 204.154 253.481 204.072C253.028 204.568 252.789 205.224 252.815 205.895L248.51 270.234C248.445 271.86 248.704 273.484 249.277 275.006C249.85 276.529 250.723 277.921 251.844 279.099L294.836 321.589C295.038 321.833 295.289 322.033 295.57 322.179C295.851 322.325 296.157 322.412 296.473 322.437C295.901 322.826 295.226 323.035 294.534 323.035C293.842 323.035 293.167 322.826 292.594 322.437L235.654 284.926C234.266 283.978 233.206 282.623 232.619 281.046C232.033 279.47 231.949 277.749 232.379 276.124Z" fill="#84765B"/>
<path d="M10.2615 366.386C59.1967 370.999 104.615 349.084 118.38 341.679C121.555 339.919 125.24 339.319 128.809 339.981C136.972 341.244 144.598 344.845 150.763 350.348C156.929 355.852 161.37 363.023 163.554 370.998C171.559 398.373 171.255 443.838 163.554 462.776C162.741 464.814 161.292 466.536 159.424 467.684C157.556 468.833 155.369 469.344 153.185 469.148C47.068 458.89 11.8362 405.659 0.739332 379.255C0.106959 377.766 -0.125595 376.137 0.0642548 374.53C0.254105 372.924 0.861069 371.394 1.82301 370.094C2.78495 368.793 4.07073 367.765 5.55073 367.115C7.03074 366.465 8.65422 366.215 10.2615 366.386Z" fill="#5E9A33"/>
<path d="M302.896 166.69C303.498 168.625 302.896 169.872 301.133 170.388C299.198 170.99 297.865 170.431 297.306 168.539C296.489 165.744 295.629 162.949 294.769 160.154H283.761L280.966 168.711C280.45 170.388 279.332 170.947 277.655 170.431C275.978 169.915 275.376 168.754 275.978 167.034L284.922 141.234C285.696 138.912 287.029 137.794 289.265 137.794C291.501 137.794 293.307 138.912 294.124 141.234C296.79 148.63 300.187 158.219 302.896 166.69ZM285.051 156.198H293.565C292.232 151.898 290.899 147.641 289.566 143.513H289.222L285.051 156.198Z" fill="#594A39"/>
<path d="M322.579 146.996C327.18 146.996 330.577 150.092 330.577 155.51V167.765C330.577 169.614 329.545 170.646 327.653 170.646C325.761 170.646 324.729 169.614 324.729 167.765V155.983C324.729 152.801 323.31 150.995 320.945 150.995C318.408 150.995 316.516 153.059 315.871 155.596V167.765C315.871 169.614 314.839 170.646 312.904 170.646C311.055 170.646 309.98 169.614 309.98 167.765V149.705C309.98 147.985 310.969 147.039 312.732 147.039C314.452 146.996 315.441 147.899 315.441 149.662V150.995C316.903 148.329 319.483 146.996 322.579 146.996Z" fill="#594A39"/>
<path d="M351.216 146.996C355.817 146.996 359.214 150.092 359.214 155.51V167.765C359.214 169.614 358.182 170.646 356.29 170.646C354.398 170.646 353.366 169.614 353.366 167.765V155.983C353.366 152.801 351.947 150.995 349.582 150.995C347.045 150.995 345.153 153.059 344.508 155.596V167.765C344.508 169.614 343.476 170.646 341.541 170.646C339.692 170.646 338.617 169.614 338.617 167.765V149.705C338.617 147.985 339.606 147.039 341.369 147.039C343.089 146.996 344.078 147.899 344.078 149.662V150.995C345.54 148.329 348.12 146.996 351.216 146.996Z" fill="#594A39"/>
<path d="M384.411 146.996C386.26 146.996 387.292 148.028 387.292 149.834V168.066C387.292 169.7 386.346 170.646 384.669 170.646C382.992 170.646 382.046 169.7 382.003 168.109V166.776C380.713 169.27 378.176 170.603 375.037 170.603C369.834 170.603 366.867 167.593 366.867 162.304V149.877C366.867 148.028 367.899 146.996 369.791 146.996C371.683 146.996 372.758 148.028 372.758 149.877V161.487C372.758 165.013 373.833 166.561 376.413 166.561C379.208 166.561 381.057 163.68 381.53 161.659V149.834C381.53 148.028 382.562 146.996 384.411 146.996Z" fill="#594A39"/>
<path d="M412.536 149.576C413.826 150.909 414.471 152.844 414.471 155.424V167.851C414.471 169.657 413.654 170.646 411.891 170.646C410.085 170.646 409.182 169.657 409.182 167.851V166.69C407.634 169.313 404.796 170.646 401.399 170.646C396.884 170.646 394.132 168.023 394.132 163.852C394.132 158.821 398.819 155.596 406 155.51C407.118 155.467 408.236 155.553 408.838 155.682V155.252C408.838 152.457 407.419 150.909 404.753 150.866C402.388 150.823 400.41 152.027 398.862 153.618C398.002 154.521 396.712 154.693 395.809 153.919C394.906 153.188 394.777 151.984 395.594 150.909C397.056 149.06 400.281 146.996 404.839 146.996C408.365 146.996 410.859 147.856 412.536 149.576ZM408.838 162.562V159.294C408.15 159.208 407.075 159.122 406.043 159.165C401.356 159.337 399.636 161.358 399.679 163.465C399.722 165.4 400.711 166.475 402.775 166.518C405.183 166.561 407.634 164.841 408.838 162.562Z" fill="#594A39"/>
<path d="M428.188 170.646C424.103 170.603 422.512 168.883 422.512 164.239V139.342C422.512 137.493 423.544 136.461 425.436 136.461C427.285 136.461 428.36 137.493 428.36 139.342V164.368C428.36 165.787 428.618 166.217 429.607 166.217C430.338 166.217 430.596 165.916 431.327 165.916C432.101 165.916 433.004 166.561 433.004 167.98C433.004 170.087 430.768 170.646 428.188 170.646Z" fill="#594A39"/>
<path d="M465.826 170.259C463.031 170.259 461.268 170.13 459.72 169.915C457.742 169.614 456.753 168.496 456.753 166.561V141.836C456.753 139.901 457.785 138.783 459.806 138.568C461.311 138.396 462.816 138.267 465.568 138.267C476.017 138.267 482.51 143.685 482.51 153.704C482.51 164.454 476.705 170.259 465.826 170.259ZM465.568 166.174C473.394 166.174 476.404 161.917 476.404 153.962C476.404 146.222 472.663 142.352 465.396 142.352C464.493 142.352 463.676 142.438 463.16 142.481C462.859 142.524 462.73 142.696 462.73 142.954V165.486C462.73 165.744 462.859 165.916 463.16 166.002C463.719 166.088 464.622 166.174 465.568 166.174Z" fill="#594A39"/>
<path d="M506.97 149.576C508.26 150.909 508.905 152.844 508.905 155.424V167.851C508.905 169.657 508.088 170.646 506.325 170.646C504.519 170.646 503.616 169.657 503.616 167.851V166.69C502.068 169.313 499.23 170.646 495.833 170.646C491.318 170.646 488.566 168.023 488.566 163.852C488.566 158.821 493.253 155.596 500.434 155.51C501.552 155.467 502.67 155.553 503.272 155.682V155.252C503.272 152.457 501.853 150.909 499.187 150.866C496.822 150.823 494.844 152.027 493.296 153.618C492.436 154.521 491.146 154.693 490.243 153.919C489.34 153.188 489.211 151.984 490.028 150.909C491.49 149.06 494.715 146.996 499.273 146.996C502.799 146.996 505.293 147.856 506.97 149.576ZM503.272 162.562V159.294C502.584 159.208 501.509 159.122 500.477 159.165C495.79 159.337 494.07 161.358 494.113 163.465C494.156 165.4 495.145 166.475 497.209 166.518C499.617 166.561 502.068 164.841 503.272 162.562Z" fill="#594A39"/>
<path d="M527.973 165.529C529.048 165.529 529.736 166.819 529.736 167.765C529.736 169.786 526.683 170.302 524.447 170.302C520.147 170.302 518.169 168.195 518.169 163.508V151.683H515.546C514.385 151.683 513.697 150.952 513.697 149.662C513.697 148.372 514.385 147.641 515.546 147.641H518.169V144.244C518.169 142.395 519.201 141.363 521.093 141.363C522.985 141.363 524.017 142.395 524.017 144.244V147.641H527.715C528.876 147.641 529.521 148.372 529.521 149.662C529.521 150.952 528.876 151.683 527.715 151.683H524.017V163.465C524.017 165.443 524.533 166.174 525.522 166.088C526.468 166.002 527.07 165.529 527.973 165.529Z" fill="#594A39"/>
<path d="M553.032 149.576C554.322 150.909 554.967 152.844 554.967 155.424V167.851C554.967 169.657 554.15 170.646 552.387 170.646C550.581 170.646 549.678 169.657 549.678 167.851V166.69C548.13 169.313 545.292 170.646 541.895 170.646C537.38 170.646 534.628 168.023 534.628 163.852C534.628 158.821 539.315 155.596 546.496 155.51C547.614 155.467 548.732 155.553 549.334 155.682V155.252C549.334 152.457 547.915 150.909 545.249 150.866C542.884 150.823 540.906 152.027 539.358 153.618C538.498 154.521 537.208 154.693 536.305 153.919C535.402 153.188 535.273 151.984 536.09 150.909C537.552 149.06 540.777 146.996 545.335 146.996C548.861 146.996 551.355 147.856 553.032 149.576ZM549.334 162.562V159.294C548.646 159.208 547.571 159.122 546.539 159.165C541.852 159.337 540.132 161.358 540.175 163.465C540.218 165.4 541.207 166.475 543.271 166.518C545.679 166.561 548.13 164.841 549.334 162.562Z" fill="#594A39"/>
</svg>
