<svg width="631" height="550" viewBox="0 0 631 550" fill="none" xmlns="http://www.w3.org/2000/svg">
<g clip-path="url(#clip0_575_136)">
<path opacity="0.7" d="M436.962 0C569.518 0 642.402 50.7446 629.608 136.21C618.571 209.596 581.827 235.816 494.204 244.799C493.989 251.89 492.187 258.844 488.934 265.146C485.681 271.449 481.059 276.941 475.406 281.219C474.761 281.715 473.979 282.005 473.167 282.046C472.355 282.087 471.549 281.879 470.858 281.45C470.167 281.022 469.623 280.394 469.298 279.648C468.972 278.902 468.881 278.073 469.037 277.274C469.993 271.782 469.583 266.14 467.838 260.846C466.092 255.551 463.066 250.768 459.032 246.924C447.551 247.41 435.608 247.654 423.197 247.654C290.641 247.654 199.986 198.184 199.986 111.444C199.986 24.7039 304.406 0 436.962 0Z" fill="#B8C318"/>
<path opacity="0.2" d="M348.125 411.301C348.125 411.301 394.998 382.773 446.298 387.629C447.694 387.765 449.102 387.534 450.381 386.959C451.66 386.384 452.767 385.485 453.594 384.351C454.42 383.217 454.936 381.89 455.092 380.495C455.249 379.1 455.04 377.688 454.485 376.399C443.873 351.026 407.611 297.49 291.549 296.336" fill="#7DBE37"/>
<path opacity="0.2" d="M157.66 468.601C126.145 481.507 97.3435 500.248 72.7663 523.839C71.7879 524.836 70.565 525.562 69.2221 525.946C67.8792 526.33 66.4605 526.356 65.1036 526.026C63.7466 525.696 62.4993 525.019 61.4824 524.061C60.4656 523.103 59.7146 521.897 59.3032 520.561C51.117 494.217 44.3853 429.512 132.736 354.366" fill="#7DBE37"/>
<path d="M314.957 269.203C314.957 269.203 376.989 259.675 418.466 217.671C419.597 216.544 421 215.728 422.537 215.302C424.074 214.877 425.694 214.856 427.242 215.24C428.79 215.625 430.215 216.403 431.375 217.499C432.536 218.594 433.394 219.969 433.868 221.494C443.207 251.844 450.907 325.472 349.762 411.726" fill="#5E9A33"/>
<path d="M361.435 505.445C372.03 499.014 373.978 482.833 365.782 469.303C357.586 455.773 342.351 450.017 331.756 456.448C321.16 462.879 319.217 479.061 327.412 492.592C335.608 506.122 350.839 511.876 361.435 505.445Z" fill="#FEFAE9"/>
<path d="M258.111 544.437C270.358 542.55 278.335 528.344 275.93 512.705C273.526 497.066 261.65 485.917 249.403 487.804C237.156 489.69 229.176 503.899 231.581 519.538C233.985 535.177 245.864 546.324 258.111 544.437Z" fill="#FEFAE9"/>
<path d="M184.828 177.85C184.828 177.85 198.713 206.015 258.26 210.749C274.828 212.045 290.726 217.86 304.225 227.563C346.126 257.913 421.803 329.418 389.119 434.671C389.119 434.671 369.349 485.232 304.648 508.601C304.648 508.601 244.86 535.615 192.165 509.028C143.654 484.748 93.2617 398.372 125.036 289.78C129.632 274.108 138.645 260.094 150.991 249.416C167.06 235.272 190.346 211.357 184.828 177.85Z" fill="#FEFAE9"/>
<path d="M115.576 340.951C116.865 323.611 119.996 306.457 124.915 289.78C129.511 274.108 138.523 260.094 150.87 249.416C167.06 235.272 190.346 211.357 184.828 177.85C184.828 177.85 198.713 206.015 258.26 210.749C274.828 212.045 290.725 217.86 304.225 227.563C317.338 237.054 329.631 247.633 340.972 259.187C334.908 275.576 311.077 331.48 248.741 354.182C248.741 354.182 190.647 376.825 115.576 340.951Z" fill="#7DBE37"/>
<path d="M340.665 258.886C354.234 276.186 364.512 295.834 370.984 316.853C378.261 343.925 361.343 379.919 332.964 390.238C220.48 431.21 115.574 341.678 115.574 341.678C115.574 341.678 114.24 323.468 145.894 311.328C177.547 299.188 300.282 255.122 300.282 255.122C300.282 255.122 330.781 245.471 340.665 258.886Z" fill="#F2E865"/>
<path d="M289.487 284.075C310.619 284.075 327.75 266.926 327.75 245.773C327.75 224.62 310.619 207.472 289.487 207.472C268.355 207.472 251.225 224.62 251.225 245.773C251.225 266.926 268.355 284.075 289.487 284.075Z" fill="white"/>
<path d="M192.284 319.523C213.416 319.523 230.547 302.375 230.547 281.222C230.547 260.068 213.416 242.92 192.284 242.92C171.152 242.92 154.021 260.068 154.021 281.222C154.021 302.375 171.152 319.523 192.284 319.523Z" fill="white"/>
<path d="M330.118 260.523H329.813C329.385 260.486 328.97 260.361 328.59 260.159C328.21 259.957 327.873 259.681 327.602 259.347C327.33 259.013 327.129 258.628 327.009 258.215C326.889 257.801 326.852 257.368 326.903 256.94L328.176 243.831C328.331 243.033 328.778 242.32 329.428 241.833C330.079 241.346 330.888 241.117 331.696 241.193C332.505 241.269 333.256 241.643 333.805 242.242C334.353 242.842 334.661 243.623 334.666 244.436L333.331 257.61C333.269 258.415 332.901 259.163 332.303 259.705C331.706 260.247 330.925 260.541 330.118 260.523Z" fill="#E27E7C"/>
<path d="M340.366 260.644H340.061C339.202 260.552 338.415 260.124 337.87 259.453C337.325 258.782 337.066 257.922 337.151 257.061L338.486 243.952C338.524 243.523 338.646 243.105 338.847 242.725C339.049 242.345 339.325 242.01 339.658 241.738C339.992 241.466 340.376 241.262 340.789 241.142C341.202 241.022 341.636 240.988 342.063 241.039C342.489 241.076 342.905 241.198 343.283 241.4C343.66 241.603 343.99 241.88 344.257 242.215C344.523 242.55 344.718 242.937 344.831 243.35C344.944 243.764 344.973 244.195 344.914 244.619L343.641 257.731C343.564 258.541 343.182 259.292 342.575 259.832C341.967 260.373 341.179 260.663 340.366 260.644Z" fill="#E27E7C"/>
<path d="M148.868 322.378C148.44 322.34 148.022 322.215 147.642 322.013C147.262 321.812 146.928 321.538 146.656 321.204C146.385 320.87 146.184 320.482 146.064 320.069C145.944 319.656 145.907 319.222 145.957 318.795L147.231 305.685C147.322 304.826 147.751 304.035 148.421 303.489C149.091 302.943 149.948 302.687 150.807 302.772C151.236 302.81 151.653 302.932 152.033 303.134C152.413 303.335 152.748 303.612 153.019 303.946C153.291 304.28 153.494 304.664 153.614 305.078C153.734 305.491 153.768 305.925 153.718 306.352L152.385 319.464C152.347 319.888 152.225 320.298 152.027 320.674C151.829 321.05 151.561 321.384 151.234 321.655C150.907 321.926 150.529 322.129 150.123 322.253C149.717 322.377 149.29 322.42 148.868 322.378Z" fill="#E27E7C"/>
<path d="M159.358 322.558C158.935 322.52 158.525 322.4 158.15 322.202C157.774 322.004 157.44 321.732 157.17 321.405C156.899 321.078 156.696 320.7 156.572 320.294C156.448 319.887 156.406 319.46 156.447 319.037L157.783 305.866C157.889 305.023 158.311 304.255 158.964 303.714C159.617 303.173 160.451 302.899 161.297 302.952C161.726 302.99 162.143 303.115 162.523 303.317C162.903 303.518 163.237 303.792 163.509 304.126C163.78 304.46 163.984 304.848 164.104 305.261C164.224 305.674 164.258 306.108 164.208 306.535L162.935 319.645C162.828 320.498 162.399 321.277 161.732 321.82C161.066 322.363 160.214 322.627 159.358 322.558Z" fill="#E27E7C"/>
<path d="M199.865 286.928C208.907 286.928 216.237 279.59 216.237 270.539C216.237 261.487 208.907 254.15 199.865 254.15C190.822 254.15 183.492 261.487 183.492 270.539C183.492 279.59 190.822 286.928 199.865 286.928Z" fill="#4A1E0E"/>
<path d="M289.306 254.392C298.348 254.392 305.678 247.055 305.678 238.004C305.678 228.952 298.348 221.615 289.306 221.615C280.264 221.615 272.934 228.952 272.934 238.004C272.934 247.055 280.264 254.392 289.306 254.392Z" fill="#4A1E0E"/>
<path d="M373.593 509.03C372.786 509.037 371.983 508.891 371.228 508.603C369.508 507.973 368.107 506.687 367.334 505.025C366.561 503.364 366.481 501.463 367.106 499.741L382.932 456.768C383.243 455.916 383.718 455.134 384.333 454.468C384.947 453.802 385.688 453.263 386.512 452.885C387.335 452.507 388.224 452.295 389.129 452.263C390.034 452.231 390.937 452.379 391.785 452.699C393.495 453.341 394.884 454.631 395.655 456.288C396.426 457.945 396.518 459.837 395.909 461.56L380.081 504.536C379.586 505.858 378.7 506.997 377.54 507.8C376.381 508.602 375.004 509.033 373.593 509.03Z" fill="#695D41"/>
<path d="M363.712 513.277C362.027 513.275 360.399 512.658 359.138 511.54C357.876 510.422 357.065 508.881 356.858 507.207L351.706 473.884C351.427 472.073 351.876 470.224 352.955 468.745C354.035 467.266 355.657 466.275 357.465 465.991C358.362 465.836 359.284 465.864 360.171 466.071C361.058 466.279 361.893 466.666 362.629 467.204C363.364 467.742 363.982 468.422 364.449 469.204C364.917 469.987 365.225 470.856 365.35 471.759L370.501 505.085C370.78 506.895 370.332 508.742 369.252 510.221C368.172 511.7 366.551 512.69 364.743 512.974L363.712 513.277Z" fill="#695D41"/>
<path d="M261.107 550H260.261C259.353 549.903 258.472 549.625 257.673 549.182C256.874 548.74 256.171 548.14 255.606 547.422C255.041 546.704 254.626 545.882 254.383 545C254.141 544.119 254.078 543.198 254.197 542.291L258.987 503.323C259.103 502.418 259.394 501.545 259.846 500.753C260.299 499.961 260.902 499.266 261.623 498.708C262.343 498.15 263.168 497.738 264.048 497.499C264.927 497.259 265.844 497.196 266.748 497.312C267.652 497.428 268.524 497.722 269.315 498.175C270.106 498.628 270.8 499.231 271.358 499.953C271.915 500.674 272.324 501.497 272.563 502.377C272.802 503.257 272.868 504.179 272.752 505.083L267.9 543.99C267.693 545.648 266.891 547.175 265.641 548.281C264.39 549.388 262.776 549.999 261.107 550Z" fill="#695D41"/>
<path d="M271.417 546.903C270.146 546.943 268.895 546.583 267.84 545.872C266.276 544.927 265.148 543.402 264.704 541.627C264.261 539.853 264.538 537.973 265.474 536.402L292.581 491.364C293.525 489.798 295.048 488.671 296.821 488.228C298.593 487.784 300.469 488.058 302.038 488.995C303.606 489.952 304.737 491.491 305.179 493.275C305.622 495.059 305.343 496.947 304.404 498.527L277.3 543.566C276.687 544.58 275.822 545.421 274.792 546.005C273.762 546.59 272.601 546.897 271.417 546.903Z" fill="#695D41"/>
<path d="M272.447 267.806L257.409 206.742C257.205 205.98 256.758 205.308 256.133 204.827C255.508 204.347 254.742 204.086 253.954 204.086C253.166 204.086 252.399 204.347 251.774 204.827C251.149 205.308 250.699 205.98 250.495 206.742L232.304 276.185C231.866 277.826 231.954 279.56 232.552 281.15C233.151 282.739 234.23 284.103 235.641 285.047L292.581 322.558C293.239 323.02 294.031 323.248 294.834 323.204C295.637 323.159 296.402 322.845 297.005 322.312C297.607 321.778 298.013 321.059 298.156 320.266C298.299 319.474 298.173 318.656 297.795 317.946L272.569 267.928L272.447 267.806Z" fill="#695D41"/>
<path d="M232.244 276.123L250.435 206.683C250.593 206.001 250.956 205.383 251.477 204.916C251.998 204.449 252.651 204.154 253.346 204.072C252.892 204.567 252.654 205.223 252.68 205.894L248.374 270.234C248.309 271.859 248.568 273.483 249.141 275.005C249.714 276.528 250.588 277.92 251.708 279.098L294.7 321.588C294.902 321.832 295.153 322.032 295.434 322.178C295.716 322.324 296.022 322.411 296.337 322.436C295.765 322.825 295.09 323.035 294.398 323.035C293.706 323.035 293.031 322.825 292.459 322.436L235.518 284.925C234.13 283.977 233.07 282.622 232.483 281.046C231.897 279.47 231.813 277.749 232.244 276.123Z" fill="#84765B"/>
<path d="M10.1267 366.385C59.062 370.998 104.481 349.084 118.246 341.679C121.42 339.918 125.105 339.319 128.674 339.98C136.837 341.244 144.463 344.844 150.629 350.348C156.794 355.852 161.235 363.022 163.419 370.997C171.424 398.373 171.121 443.837 163.419 462.776C162.606 464.813 161.157 466.536 159.289 467.684C157.421 468.832 155.234 469.344 153.051 469.148C46.9332 458.89 11.7014 405.659 0.604566 379.254C-0.0278064 377.765 -0.260361 376.137 -0.0705108 374.53C0.119339 372.923 0.726303 371.393 1.68824 370.093C2.65018 368.793 3.93596 367.765 5.41597 367.114C6.89598 366.464 8.51945 366.214 10.1267 366.385Z" fill="#5E9A33"/>
<path d="M302.466 110.717C301.935 110.371 301.445 109.962 301.009 109.502C300.322 108.855 299.654 108.127 299.007 107.318C298.517 106.703 298.072 106.055 297.675 105.376C297.462 104.746 297.462 104.062 297.675 103.432C297.675 102.522 298.222 102.036 298.525 102.036C298.828 102.036 299.008 102.038 299.372 101.31L300.464 99.1849C300.708 98.7462 300.891 98.2767 301.009 97.7889C301.053 97.6389 301.132 97.5015 301.237 97.3858C301.342 97.2702 301.471 97.1801 301.616 97.122L302.525 96.5145C302.952 95.8816 303.44 95.2918 303.982 94.7539L305.435 93.1742C306.413 92.0127 307.466 90.9174 308.589 89.8962C310.105 88.4394 311.56 86.9827 313.015 85.4652L317.018 81.0965C317.836 80.3705 318.46 79.4532 318.836 78.4261C319.239 78.0367 319.667 77.6708 320.112 77.3324C320.652 77.0188 321.16 76.6518 321.628 76.2387C322.16 75.8024 322.666 75.3364 323.144 74.8428C323.391 74.1291 323.737 73.4571 324.175 72.8422C324.77 72.0694 325.417 71.3371 326.114 70.6548C326.701 69.7181 327.229 68.745 327.692 67.7414C328.101 67.0113 328.424 66.2383 328.66 65.4355C328.903 64.6666 328.903 64.1796 328.66 63.9773C327.713 63.5718 326.741 63.2276 325.75 62.9459C324.143 62.5011 322.445 62.5011 320.838 62.9459C318.631 63.6234 316.573 64.7168 314.774 66.1646C313.821 66.3664 312.888 66.6486 311.985 67.0123C311.329 67.3485 310.599 67.5159 309.862 67.4983C309.494 67.2229 309.169 66.8978 308.894 66.5292C308.544 66.0177 308.159 65.5296 307.742 65.0709L306.649 60.4592L309.983 58.5771C312.646 56.8476 315.496 55.4212 318.475 54.327C320.718 53.3722 323.217 53.2007 325.569 53.8409C326.639 53.8889 327.699 54.0745 328.723 54.3892C329.636 54.4168 330.521 54.7102 331.269 55.2369C332.455 55.9618 333.57 56.7959 334.603 57.7265C335.575 58.5653 336.359 59.5994 336.906 60.7615C338.03 62.5733 338.502 64.7151 338.242 66.8315C337.827 69.6179 336.745 72.2627 335.089 74.5405L332.723 77.2731C331.449 78.6085 330.116 80.1853 328.539 81.8849L324.296 86.3781L321.868 88.8647C320.909 89.4032 320.048 90.1031 319.322 90.9306L315.565 94.7539C314.231 96.15 313.077 97.3646 312.228 98.3965C311.379 99.4284 310.894 99.9733 311.076 99.9733C311.258 99.9733 311.379 100.277 312.228 99.9733L314.41 99.1849C315.662 98.7669 316.94 98.4228 318.232 98.1535C319.748 97.85 321.264 97.5442 322.78 97.3621C324.085 97.1496 325.401 97.0088 326.721 96.9383C327.372 96.7333 328.071 96.7333 328.723 96.9383C328.723 97.3025 329.025 97.3632 329.267 96.9383C329.51 96.5134 330.299 96.2717 331.997 96.5145C333.561 96.6904 335.103 97.0136 336.604 97.4836C337.284 97.6305 337.925 97.921 338.485 98.3343C338.97 98.6985 339.213 99.0029 339.213 99.3064C339.547 99.9242 339.932 100.513 340.365 101.067C340.63 101.214 340.85 101.428 341.004 101.689C341.158 101.951 341.241 102.248 341.241 102.552C341.241 102.855 341.158 103.156 341.004 103.417C340.85 103.679 340.63 103.893 340.365 104.04C339.494 104.652 338.492 105.055 337.439 105.213C336.387 105.371 335.313 105.28 334.301 104.95C332.759 104.906 331.214 105.01 329.691 105.255C329.072 105.395 328.429 105.395 327.811 105.255H325.143C323.835 105.074 322.51 105.074 321.202 105.255C319.638 105.572 318.1 105.997 316.595 106.529L313.563 107.501L309.137 108.776C307.72 109.176 306.283 109.498 304.831 109.745C304.095 110.184 303.298 110.512 302.466 110.717Z" fill="#FDFDFB"/>
<path d="M376.139 111.261C375.191 111.186 374.256 111.004 373.35 110.716C372.016 110.352 370.681 109.866 369.225 109.32C368.036 108.937 366.926 108.34 365.951 107.56C363.675 105.674 361.871 103.285 360.677 100.58C359.592 98.0985 358.934 95.4505 358.735 92.7492C358.557 90.2166 358.661 87.6721 359.04 85.1618C359.907 80.3011 361.587 75.6234 364.011 71.3235C367.485 64.9304 372.565 59.5519 378.747 55.7218C381.549 53.8482 384.838 52.8356 388.207 52.8083H391.177C392.813 52.8434 394.433 53.1506 395.968 53.7183C397.569 54.3011 399.11 55.0348 400.575 55.9056C401.848 56.7554 402.517 57.5423 402.517 58.2707C402.545 58.7762 402.545 59.2828 402.517 59.7882C402.517 60.2738 402.152 60.397 401.546 60.0935H400.456L401.546 63.3093C401.889 64.0692 402.153 64.8633 402.334 65.6774C402.514 66.5363 402.617 67.4111 402.639 68.2886C402.705 69.3599 402.705 70.433 402.639 71.5043C402.639 72.9004 402.154 74.4164 401.851 75.9946C401.548 77.5728 401.183 79.0931 400.88 80.4285C400.69 81.4707 400.385 82.4886 399.971 83.4635C399.739 83.8488 399.614 84.2884 399.607 84.7379C399.577 85.0813 399.577 85.426 399.607 85.7694C399.303 86.3157 398.818 87.3475 398.212 88.8043L396.755 91.8393L396.089 92.5684C396.089 92.5684 396.089 93.0533 396.089 93.3568C395.979 93.858 395.816 94.3448 395.604 94.8121C395.24 95.5405 394.816 96.2709 394.452 96.8779C394.088 97.4849 393.725 97.847 393.543 97.847C393.361 97.847 392.995 97.8475 392.995 98.3331C392.654 99.166 392.162 99.9284 391.541 100.58C390.474 101.91 389.32 103.168 388.086 104.344C387.029 105.387 385.87 106.322 384.628 107.136C383.051 108.228 381.474 109.199 379.958 110.049C378.799 110.751 377.49 111.165 376.139 111.261ZM376.139 100.823C376.921 100.825 377.699 100.702 378.442 100.458C379.141 100.245 379.772 99.8465 380.263 99.3053C381.673 98.3347 382.936 97.168 384.021 95.8435C385.226 94.3226 386.226 92.6501 386.993 90.8672C387.759 89.817 388.391 88.6747 388.874 87.4676C389.359 86.3143 390.085 84.2506 391.056 81.3977C391.675 80.5309 392.091 79.5348 392.27 78.4842C392.371 77.5157 392.371 76.5393 392.27 75.5707C392.27 74.7816 392.27 73.6888 392.27 72.2927C392.316 71.1261 392.479 69.9682 392.755 68.8339C392.755 66.9522 392.755 65.8594 392.755 65.5559C392.547 65.0527 392.235 64.5967 391.843 64.2192C391.506 63.9563 391.141 63.7332 390.754 63.5523C390.281 63.3292 389.76 63.2262 389.238 63.25C388.558 63.2837 387.885 63.4065 387.236 63.6146C386.51 63.8207 385.817 64.1266 385.175 64.5245C384.909 64.6451 384.618 64.7082 384.326 64.7082C384.033 64.7082 383.743 64.6451 383.476 64.5245C382.869 64.5245 382.567 63.9773 382.567 63.6738C382.567 63.3703 382.08 62.7026 381.11 63.6738L377.231 68.2886C376.02 69.4989 374.923 70.8192 373.957 72.2334C373.377 72.9604 372.924 73.7811 372.621 74.6608C372.594 75.05 372.469 75.427 372.257 75.7545C372.257 76.1794 371.835 76.7257 371.653 77.272C371.139 78.0622 370.691 78.8927 370.318 79.7587L368.861 83.1582C368.491 83.9824 368.187 84.8345 367.952 85.7071V91.7771C367.905 92.6667 367.905 93.5579 367.952 94.4475C367.985 94.9315 368.109 95.4049 368.316 95.8435L369.104 97.4825C369.531 98.1177 369.996 98.7276 370.498 99.3053C370.94 99.7585 371.347 100.244 371.712 100.761C372.501 101.489 373.045 101.734 373.288 101.552C374.119 101.189 374.997 100.943 375.896 100.823H376.139Z" fill="#FDFDFB"/>
<path d="M421.74 110.717C421.221 110.355 420.733 109.948 420.283 109.502C419.637 108.855 418.972 108.127 418.285 107.318C417.787 106.722 417.359 106.071 417.012 105.376C417.012 105.012 417.012 104.403 417.012 103.432C417.012 102.461 417.496 102.036 417.799 102.036C418.103 102.036 418.285 102.038 418.649 101.31L419.739 99.1849C419.982 98.7462 420.165 98.2767 420.283 97.7889C420.398 97.4998 420.614 97.2632 420.89 97.122L421.799 96.5145C422.226 95.8816 422.715 95.2918 423.256 94.7539L424.713 93.1742C425.707 92.0281 426.757 90.9338 427.863 89.8962C429.379 88.4394 430.837 86.9827 432.293 85.4652L436.293 81.0965C437.111 80.3705 437.737 79.4532 438.114 78.4261L439.446 77.3324C439.974 77.0295 440.465 76.6615 440.903 76.2387L442.478 74.8428C442.694 74.1165 443.043 73.4396 443.508 72.8422C444.082 72.0696 444.711 71.3372 445.389 70.6548C445.934 69.7443 446.48 68.834 447.026 67.7414C447.572 66.6488 447.815 65.9211 447.997 65.4355C448.179 64.9499 447.997 64.1594 447.997 63.9773C447.05 63.5718 446.078 63.2276 445.087 62.9459C443.5 62.5001 441.82 62.5001 440.234 62.9459C438.03 63.6301 435.973 64.7229 434.17 66.1646C433.217 66.3664 432.284 66.6486 431.381 67.0123C430.747 67.3485 430.037 67.5162 429.32 67.4983C428.917 67.2441 428.568 66.9163 428.29 66.5292C427.959 66.0037 427.573 65.5139 427.138 65.0709L426.045 60.4592L429.379 58.5771C432.049 56.8603 434.897 55.4346 437.871 54.327C440.114 53.3722 442.613 53.2007 444.965 53.8409C446.036 53.8828 447.096 54.0685 448.119 54.3892C449.032 54.4168 449.917 54.7102 450.665 55.2369C451.861 55.9467 452.978 56.7819 453.999 57.7265C454.99 58.5475 455.78 59.586 456.305 60.7615C457.483 62.5506 457.957 64.7127 457.638 66.8315C457.223 69.6179 456.141 72.2627 454.484 74.5405L452.119 77.2731L447.935 81.8849C446.419 83.5845 444.964 85.0427 443.751 86.3781L441.326 88.8647C440.345 89.371 439.479 90.0754 438.78 90.9306C437.567 92.1041 436.295 93.3781 434.96 94.7539C433.626 96.15 432.533 97.3646 431.624 98.3965C430.714 99.4284 430.351 99.9733 430.472 99.9733C430.593 99.9733 430.775 100.277 431.624 99.9733L433.868 99.1849C435.115 98.7514 436.391 98.4071 437.687 98.1535C439.143 97.85 440.66 97.5442 442.176 97.3621C443.481 97.1496 444.796 97.0088 446.117 96.9383C446.768 96.7333 447.467 96.7333 448.119 96.9383C448.119 97.3025 448.118 97.3632 448.663 96.9383C449.209 96.5134 449.695 96.2717 451.393 96.5145C452.958 96.6839 454.5 97.0072 456 97.4836C456.684 97.6169 457.328 97.9087 457.881 98.3343C458.366 98.6985 458.609 99.0029 458.609 99.3064C458.942 99.9391 459.347 100.53 459.82 101.067C460.07 101.226 460.278 101.444 460.421 101.704C460.564 101.964 460.64 102.255 460.64 102.552C460.64 102.849 460.564 103.142 460.421 103.402C460.278 103.662 460.07 103.881 459.82 104.04C458.943 104.64 457.945 105.035 456.895 105.193C455.844 105.35 454.77 105.266 453.756 104.95C452.214 104.908 450.672 105.012 449.149 105.255C448.53 105.395 447.887 105.395 447.269 105.255H444.601C443.314 105.072 442.007 105.072 440.719 105.255C439.135 105.571 437.575 105.996 436.05 106.529L433.018 107.501L428.592 108.776C427.177 109.183 425.739 109.505 424.287 109.745C423.495 110.204 422.636 110.533 421.74 110.717Z" fill="#FDFDFB"/>
<path d="M480.922 110.717C480.416 110.338 479.932 109.932 479.468 109.502C478.781 108.855 478.113 108.127 477.467 107.318C476.99 106.706 476.564 106.058 476.193 105.377C476.193 105.012 476.193 104.403 476.193 103.432C476.193 102.461 476.678 102.036 476.981 102.036C477.284 102.036 477.528 102.039 477.831 101.31L478.923 99.185C479.167 98.7464 479.35 98.2769 479.468 97.7891C479.582 97.4999 479.798 97.2633 480.075 97.1222L480.984 96.5146C481.411 95.8818 481.897 95.292 482.438 94.7541L483.895 93.1744C484.889 92.0283 485.941 90.934 487.048 89.8963C488.564 88.4395 490.019 86.9829 491.474 85.4654L495.477 81.0967C496.285 80.3486 496.926 79.4389 497.358 78.4262C497.746 78.0222 498.172 77.6553 498.631 77.3326C499.159 77.0297 499.646 76.6616 500.085 76.2389L501.663 74.8429C501.878 74.1167 502.228 73.4398 502.693 72.8423C503.267 72.0698 503.895 71.3374 504.573 70.655C505.203 69.7335 505.751 68.7587 506.211 67.7415C506.593 66.9988 506.915 66.2283 507.179 65.4357C507.179 64.6466 507.179 64.1595 507.179 63.9774C506.231 63.5719 505.259 63.2278 504.268 62.946C502.682 62.4971 501.004 62.4971 499.418 62.946C497.22 63.6431 495.165 64.7347 493.355 66.1648C492.419 66.3574 491.504 66.6399 490.625 67.0124C489.967 67.3439 489.238 67.511 488.502 67.4985C488.12 67.2393 487.792 66.9117 487.533 66.5293C487.163 66.0169 486.756 65.5288 486.32 65.0711L485.23 60.4594L488.623 58.5773C491.279 56.8372 494.13 55.4101 497.115 54.3271C499.337 53.3723 501.815 53.2006 504.147 53.8411C505.217 53.883 506.278 54.0687 507.3 54.3894C508.217 54.4019 509.106 54.6967 509.847 55.237C511.043 55.9469 512.162 56.782 513.183 57.7267C514.19 58.547 514.999 59.5845 515.549 60.7617C516.68 62.5695 517.131 64.7211 516.822 66.8316C516.407 69.6181 515.325 72.2629 513.669 74.5406L511.303 77.2733L507.12 81.885C505.604 83.5846 504.209 85.0429 502.936 86.3782L500.511 88.8649C499.53 89.3711 498.661 90.0756 497.962 90.9307L494.142 94.7541C492.808 96.1502 491.718 97.3648 490.808 98.3967C489.899 99.4286 489.535 99.9734 489.656 99.9734C489.778 99.9734 489.959 100.277 490.808 99.9734L493.05 99.185C494.3 98.7593 495.578 98.4151 496.872 98.1536C498.327 97.8501 499.842 97.5444 501.358 97.3623C502.663 97.1529 503.978 97.0121 505.299 96.9384C505.949 96.7253 506.65 96.7253 507.3 96.9384C507.3 97.3026 507.605 97.3633 507.848 96.9384C508.09 96.5136 508.938 96.2718 510.575 96.5146C512.14 96.684 513.685 97.0074 515.185 97.4838C515.883 97.6312 516.542 97.9213 517.124 98.3344C517.549 98.6986 517.791 99.0031 517.791 99.3066C518.145 99.9261 518.552 100.515 519.004 101.067C519.255 101.226 519.46 101.444 519.603 101.704C519.746 101.964 519.822 102.255 519.822 102.552C519.822 102.849 519.746 103.143 519.603 103.403C519.46 103.663 519.255 103.881 519.004 104.04C518.132 104.648 517.131 105.047 516.079 105.205C515.027 105.363 513.953 105.275 512.941 104.95C511.378 104.907 509.815 105.01 508.271 105.255C507.673 105.391 507.052 105.391 506.453 105.255H503.723C502.436 105.073 501.129 105.073 499.842 105.255C498.258 105.571 496.697 105.996 495.172 106.529L492.141 107.502L487.714 108.776C486.318 109.176 484.902 109.498 483.471 109.745C482.676 110.196 481.815 110.524 480.922 110.717Z" fill="#FDFDFB"/>
<path d="M344.79 151.631C344.79 164.378 344.427 174.211 344.003 180.463C343.578 186.715 337.269 189.021 327.81 184.408C327.606 184.334 327.419 184.217 327.259 184.07C327.099 183.923 326.973 183.746 326.883 183.548C326.793 183.351 326.742 183.137 326.735 182.92C326.728 182.703 326.764 182.486 326.842 182.283C326.842 181.372 327.811 181.069 328.902 181.251C336.664 182.587 337.513 182.102 337.755 178.702C338.24 172.632 338.482 163.708 338.543 152.964C338.552 152.874 338.543 152.783 338.513 152.698C338.483 152.612 338.435 152.536 338.371 152.472C338.307 152.408 338.228 152.357 338.143 152.327C338.058 152.297 337.967 152.288 337.877 152.298H329.811C328.345 155.906 326.296 159.247 323.747 162.191C323.517 162.505 323.175 162.719 322.791 162.787C322.407 162.854 322.011 162.772 321.687 162.555V183.498C321.687 185.319 320.595 186.228 318.655 186.228C316.714 186.228 315.623 185.319 315.623 183.498V180.644H309.559V183.62C309.559 185.44 308.469 186.411 306.468 186.411C304.467 186.411 303.436 185.44 303.436 183.62V151.69C303.387 151.288 303.428 150.879 303.56 150.495C303.692 150.112 303.911 149.765 304.197 149.479C304.483 149.192 304.83 148.974 305.212 148.842C305.595 148.71 306.004 148.668 306.406 148.717H309.195C309.631 146.45 309.934 144.158 310.104 141.856C310.104 139.792 311.681 138.944 313.864 139.248C314.311 139.236 314.754 139.342 315.146 139.556C315.539 139.769 315.866 140.082 316.1 140.463C316.333 140.844 316.464 141.281 316.476 141.728C316.487 142.175 316.381 142.616 316.168 143.009C315.576 145.006 314.743 146.925 313.683 148.717H318.957C319.354 148.678 319.757 148.726 320.132 148.862C320.507 148.999 320.845 149.22 321.124 149.506C321.403 149.791 321.617 150.135 321.746 150.513C321.875 150.891 321.915 151.293 321.867 151.69V159.277C324.447 153.864 326.107 148.058 326.779 142.099C326.779 141.643 326.886 141.193 327.09 140.786C327.295 140.379 327.592 140.026 327.958 139.754C328.323 139.483 328.747 139.302 329.195 139.224C329.644 139.146 330.104 139.174 330.54 139.307C332.601 139.61 333.512 140.884 333.027 143.13C332.675 144.925 332.187 146.691 331.57 148.412H342.182C342.578 148.413 342.97 148.502 343.328 148.673C343.685 148.844 344.002 149.091 344.251 149.399C344.501 149.707 344.679 150.068 344.773 150.454C344.866 150.84 344.871 151.242 344.79 151.631ZM314.894 152.6H309.861C309.784 152.591 309.709 152.6 309.636 152.624C309.563 152.647 309.495 152.685 309.438 152.736C309.38 152.788 309.333 152.852 309.301 152.923C309.27 152.993 309.257 153.071 309.257 153.148V162.434H315.321V153.086C315.311 152.97 315.264 152.862 315.188 152.775C315.111 152.687 315.008 152.625 314.894 152.6ZM315.501 177.185V166.076H309.438V177.185H315.501ZM330.175 170.507C329.205 168.079 327.811 164.924 326.477 162.253C326.261 161.86 326.196 161.401 326.297 160.964C326.397 160.527 326.656 160.143 327.022 159.885C327.346 159.591 327.769 159.429 328.207 159.429C328.644 159.429 329.064 159.591 329.388 159.885C331.749 162.099 333.79 164.631 335.452 167.41C335.706 167.745 335.878 168.136 335.958 168.548C336.038 168.961 336.022 169.385 335.911 169.79C335.799 170.195 335.595 170.57 335.316 170.884C335.036 171.198 334.69 171.441 334.3 171.598C333.98 171.868 333.598 172.058 333.19 172.149C332.782 172.241 332.359 172.233 331.955 172.126C331.551 172.019 331.178 171.814 330.868 171.533C330.559 171.251 330.321 170.9 330.175 170.507Z" fill="#FDFDFB"/>
<path d="M396.028 186.711C393.988 186.09 392.1 185.051 390.482 183.661C388.864 182.272 387.553 180.561 386.63 178.638C382.381 182.233 377.39 184.846 372.015 186.287C370.924 186.591 370.199 186.285 369.895 185.375C369.799 185.165 369.749 184.938 369.75 184.708C369.752 184.477 369.803 184.252 369.901 184.044C370 183.836 370.142 183.652 370.319 183.504C370.496 183.357 370.703 183.249 370.926 183.19C376.053 180.942 380.671 177.679 384.507 173.599C382.482 166.922 381.38 160.001 381.233 153.024H367.651C367.569 153.014 367.486 153.021 367.408 153.048C367.33 153.075 367.259 153.12 367.201 153.178C367.143 153.237 367.098 153.308 367.071 153.386C367.044 153.464 367.034 153.547 367.044 153.629V159.699H376.14C376.559 159.658 376.98 159.716 377.375 159.862C377.769 160.008 378.128 160.24 378.42 160.543C378.711 160.847 378.929 161.213 379.059 161.613C379.19 162.014 379.229 162.438 379.172 162.855C379.185 166.768 378.982 170.68 378.565 174.571C378.14 178.699 373.593 180.641 367.287 177.485C366.949 177.304 366.685 177.013 366.541 176.658C366.397 176.303 366.383 175.908 366.499 175.543C366.499 174.694 367.286 174.33 368.317 174.512C371.895 174.937 372.622 174.511 372.744 173.175C373.022 170.189 373.144 167.191 373.108 164.192C373.118 164.11 373.108 164.027 373.081 163.949C373.054 163.871 373.009 163.8 372.951 163.741C372.893 163.683 372.822 163.638 372.744 163.611C372.666 163.584 372.583 163.575 372.501 163.584H367.044C367.044 174.45 364.984 182.218 359.526 186.771C359.368 186.932 359.178 187.062 358.97 187.15C358.762 187.237 358.538 187.283 358.313 187.283C358.087 187.283 357.863 187.237 357.655 187.15C357.447 187.062 357.257 186.932 357.099 186.771C356.805 186.447 356.643 186.026 356.643 185.588C356.643 185.15 356.805 184.729 357.099 184.405C359.949 179.489 360.859 175.483 360.859 162.008V152.538C360.813 152.093 360.866 151.644 361.013 151.222C361.16 150.8 361.399 150.415 361.712 150.096C362.024 149.777 362.403 149.531 362.822 149.376C363.241 149.22 363.689 149.16 364.134 149.198H381.354C381.354 147.073 381.354 144.83 381.354 142.523C381.354 140.217 382.568 139.669 384.569 139.669C386.571 139.669 387.661 140.52 387.661 142.523C387.661 144.526 387.661 147.195 387.661 149.198H395.06C394.575 148.902 394.178 148.485 393.908 147.986C392.513 145.861 391.118 143.737 389.905 141.916C389.758 141.774 389.641 141.602 389.561 141.415C389.482 141.227 389.44 141.026 389.44 140.822C389.44 140.618 389.482 140.417 389.561 140.229C389.641 140.041 389.758 139.87 389.905 139.728C390.511 139.121 391.238 139.243 392.087 139.728C394.301 141.042 396.339 142.635 398.151 144.464C398.489 144.706 398.766 145.026 398.956 145.395C399.146 145.765 399.243 146.174 399.243 146.59C399.243 147.005 399.146 147.414 398.956 147.784C398.766 148.154 398.489 148.473 398.151 148.715L397.665 149.017H400.697C400.96 148.996 401.224 149.034 401.47 149.13C401.716 149.225 401.938 149.373 402.118 149.565C402.299 149.758 402.436 149.989 402.515 150.241C402.595 150.493 402.615 150.759 402.577 151.021C402.615 151.282 402.595 151.548 402.515 151.8C402.436 152.052 402.299 152.28 402.118 152.473C401.938 152.665 401.716 152.816 401.47 152.911C401.224 153.007 400.96 153.045 400.697 153.024H387.844C388.026 157.757 388.592 162.465 389.541 167.105C391.183 164.123 392.543 160.993 393.603 157.757C393.713 157.324 393.923 156.923 394.213 156.584C394.503 156.244 394.869 155.974 395.279 155.798C395.689 155.622 396.133 155.543 396.579 155.567C397.024 155.591 397.46 155.719 397.849 155.938C399.789 156.666 400.334 158.123 399.545 160.247C397.679 165.199 395.017 169.812 391.664 173.904C392.592 176.467 394.395 178.617 396.756 179.974C398.151 180.642 398.82 179.975 398.82 172.751C398.82 171.537 399.426 170.991 400.336 170.991C401.246 170.991 401.972 171.416 402.154 172.751C403.549 184.709 401.485 188.168 396.028 186.711Z" fill="#FDFDFB"/>
<path d="M418.767 173.357C418.938 176.833 418.572 180.315 417.678 183.677C417.599 184.09 417.425 184.48 417.171 184.815C416.918 185.151 416.594 185.422 416.218 185.61C415.843 185.798 415.427 185.896 415.007 185.897C414.587 185.899 414.173 185.804 413.796 185.619C413.416 185.486 413.073 185.266 412.798 184.973C412.523 184.679 412.325 184.32 412.218 183.932C412.111 183.544 412.098 183.137 412.182 182.744C412.267 182.35 412.446 181.983 412.704 181.674C414.141 178.942 415.183 176.021 415.798 172.996C415.798 171.964 416.585 171.536 417.373 171.597C418.161 171.657 418.707 172.204 418.767 173.357ZM416.1 164.495C417.959 162.096 419.603 159.538 421.012 156.849C419.321 157.36 417.599 157.764 415.857 158.061C414.098 158.061 412.948 157.638 412.766 155.817C412.584 153.996 413.372 153.084 415.433 153.084H415.857C417.237 149.509 418.354 145.837 419.194 142.097C419.222 141.671 419.349 141.259 419.567 140.891C419.784 140.523 420.086 140.212 420.446 139.981C420.806 139.751 421.215 139.607 421.639 139.563C422.064 139.52 422.493 139.576 422.892 139.729C423.3 139.812 423.684 139.99 424.011 140.248C424.339 140.506 424.601 140.837 424.778 141.214C424.955 141.592 425.041 142.007 425.03 142.423C425.018 142.84 424.91 143.248 424.713 143.615C423.388 146.951 421.656 150.113 419.558 153.025H423.013C423.62 151.69 424.105 150.352 424.651 149.077C424.766 148.684 424.968 148.323 425.24 148.016C425.512 147.709 425.847 147.464 426.223 147.302C426.599 147.14 427.007 147.064 427.416 147.077C427.826 147.09 428.226 147.193 428.592 147.379C428.96 147.515 429.293 147.733 429.566 148.016C429.838 148.299 430.044 148.639 430.167 149.012C430.289 149.386 430.325 149.784 430.273 150.174C430.221 150.564 430.081 150.936 429.865 151.265C427.44 156.133 424.223 160.562 420.346 164.374C422.156 164.295 423.96 164.094 425.743 163.769C425.565 163.021 425.321 162.288 425.015 161.582C424.712 160.671 425.014 160.065 425.56 159.64C425.714 159.54 425.89 159.469 426.072 159.436C426.254 159.403 426.439 159.408 426.62 159.448C426.8 159.487 426.972 159.561 427.123 159.667C427.274 159.773 427.403 159.908 427.502 160.064C429.093 161.994 430.322 164.196 431.138 166.561C431.684 168.079 431.441 169.171 429.986 169.718C428.531 170.264 427.259 169.716 426.895 168.138L426.59 166.863C423.173 168.427 419.564 169.529 415.857 170.141C413.977 170.141 412.706 169.655 412.464 167.773C412.221 165.892 413.07 164.679 415.253 164.679L416.1 164.495ZM425.56 181.188C425.681 181.549 425.712 181.935 425.648 182.311C425.584 182.687 425.427 183.042 425.192 183.342C424.958 183.643 424.653 183.882 424.304 184.036C423.956 184.19 423.577 184.253 423.197 184.223C421.378 184.223 420.406 183.557 420.467 181.614C420.619 178.642 420.619 175.663 420.467 172.69C420.467 171.78 420.77 171.235 421.619 171.114C422.468 170.992 422.894 171.112 423.197 172.204C424.373 175.083 425.166 178.103 425.56 181.188ZM427.44 170.506C429.168 172.605 430.598 174.934 431.686 177.427C431.857 177.719 431.96 178.046 431.991 178.384C432.021 178.722 431.979 179.061 431.863 179.38C431.747 179.699 431.562 179.988 431.321 180.227C431.081 180.467 430.791 180.65 430.472 180.764C430.153 180.946 429.796 181.046 429.429 181.057C429.063 181.069 428.699 180.991 428.369 180.829C428.04 180.667 427.755 180.427 427.54 180.13C427.325 179.832 427.189 179.488 427.138 179.125C426.562 176.674 425.83 174.262 424.953 171.902C424.858 171.744 424.799 171.569 424.775 171.386C424.751 171.204 424.765 171.018 424.816 170.841C424.868 170.664 424.953 170.499 425.071 170.358C425.189 170.216 425.336 170.102 425.5 170.02C425.825 169.837 426.205 169.784 426.566 169.875C426.927 169.965 427.24 170.192 427.44 170.506ZM441.569 178.639C441.846 178.889 442.058 179.202 442.188 179.552C442.317 179.902 442.36 180.278 442.312 180.648C442.264 181.018 442.126 181.371 441.912 181.677C441.699 181.982 441.415 182.232 441.083 182.403C437.418 184.805 433.284 186.398 428.956 187.077C427.986 187.077 427.32 187.077 427.016 186.045C426.951 185.862 426.925 185.667 426.939 185.473C426.954 185.28 427.008 185.091 427.099 184.919C427.191 184.748 427.317 184.597 427.469 184.478C427.622 184.358 427.797 184.271 427.985 184.223C431.453 182.891 434.673 180.984 437.507 178.579L438.114 178.153H434.898C434.504 178.202 434.104 178.16 433.729 178.031C433.353 177.902 433.012 177.69 432.731 177.409C432.45 177.128 432.238 176.786 432.109 176.41C431.98 176.034 431.938 175.634 431.988 175.239V161.766C431.94 161.369 431.983 160.967 432.112 160.589C432.241 160.211 432.452 159.864 432.731 159.578C433.01 159.293 433.351 159.075 433.726 158.938C434.101 158.801 434.501 158.751 434.898 158.79H451.515C451.916 158.741 452.322 158.785 452.705 158.917C453.088 159.049 453.437 159.268 453.723 159.555C454.01 159.841 454.228 160.188 454.36 160.571C454.492 160.954 454.533 161.363 454.484 161.766V175.239C454.523 175.637 454.473 176.04 454.336 176.416C454.2 176.791 453.982 177.129 453.697 177.409C453.412 177.688 453.068 177.902 452.69 178.031C452.312 178.16 451.911 178.2 451.515 178.153H440.903L441.569 178.639ZM430.229 145.132C430.229 144.04 430.776 143.493 431.928 143.493H440.296V142.16C440.296 140.399 441.386 139.427 443.387 139.427C445.388 139.427 446.481 140.399 446.481 142.16V143.493H455.15C455.375 143.465 455.605 143.49 455.82 143.562C456.034 143.633 456.228 143.751 456.391 143.908C456.554 144.065 456.679 144.256 456.758 144.469C456.837 144.681 456.87 144.907 456.85 145.132C456.88 145.363 456.857 145.597 456.782 145.817C456.707 146.037 456.582 146.237 456.418 146.401C456.254 146.565 456.054 146.691 455.834 146.766C455.615 146.84 455.381 146.863 455.15 146.834H446.481V148.653H453.395C453.829 148.653 454.245 148.826 454.552 149.134C454.859 149.441 455.032 149.858 455.032 150.292C455.032 150.727 454.859 151.144 454.552 151.451C454.245 151.759 453.829 151.931 453.395 151.931H446.481V154.057H455.698C455.931 154.029 456.166 154.053 456.388 154.128C456.61 154.202 456.812 154.324 456.98 154.486C457.149 154.649 457.28 154.848 457.362 155.067C457.445 155.287 457.477 155.521 457.457 155.755C457.477 155.988 457.445 156.223 457.362 156.442C457.28 156.662 457.149 156.861 456.98 157.023C456.812 157.186 456.61 157.31 456.388 157.385C456.166 157.46 455.931 157.484 455.698 157.456H431.138C430.908 157.486 430.676 157.463 430.457 157.388C430.237 157.313 430.038 157.188 429.874 157.023C429.71 156.859 429.584 156.659 429.509 156.44C429.435 156.22 429.412 155.985 429.441 155.755C429.412 155.525 429.435 155.29 429.509 155.07C429.584 154.85 429.71 154.651 429.874 154.486C430.038 154.322 430.237 154.2 430.457 154.125C430.676 154.05 430.908 154.027 431.138 154.057H440.296V151.931H433.382C433.163 151.95 432.941 151.921 432.734 151.846C432.527 151.77 432.339 151.649 432.183 151.493C432.027 151.337 431.909 151.149 431.834 150.942C431.758 150.734 431.726 150.512 431.745 150.292C431.715 150.07 431.738 149.844 431.81 149.632C431.882 149.419 432.001 149.227 432.159 149.068C432.318 148.91 432.51 148.787 432.722 148.716C432.934 148.644 433.16 148.623 433.382 148.653H440.296V146.834H431.928C431.698 146.863 431.464 146.84 431.244 146.766C431.025 146.691 430.825 146.565 430.661 146.401C430.497 146.237 430.372 146.037 430.297 145.817C430.222 145.597 430.199 145.363 430.229 145.132ZM438.114 164.131H448.542V162.432C448.542 162.271 448.478 162.117 448.364 162.003C448.25 161.889 448.096 161.825 447.935 161.825H438.718C438.557 161.825 438.405 161.889 438.291 162.003C438.178 162.117 438.114 162.271 438.114 162.432V164.131ZM438.114 169.412H448.542V167.287H438.114V169.412ZM438.114 174.27C438.104 174.352 438.11 174.435 438.137 174.513C438.164 174.591 438.209 174.662 438.268 174.721C438.326 174.779 438.397 174.824 438.475 174.851C438.553 174.878 438.636 174.884 438.718 174.875H447.935C448.017 174.884 448.1 174.878 448.178 174.851C448.256 174.824 448.327 174.779 448.385 174.721C448.443 174.662 448.488 174.591 448.515 174.513C448.542 174.435 448.552 174.352 448.542 174.27V172.569H438.114V174.27ZM457.821 185.619C457.651 185.992 457.393 186.32 457.072 186.576C456.751 186.832 456.375 187.009 455.974 187.092C455.572 187.174 455.155 187.161 454.76 187.053C454.364 186.945 454.001 186.745 453.697 186.469C451.013 184.515 448.196 182.75 445.267 181.188C445.078 181.116 444.908 181.007 444.764 180.865C444.62 180.722 444.506 180.549 444.432 180.361C444.358 180.172 444.323 179.97 444.331 179.768C444.34 179.566 444.39 179.366 444.48 179.184C444.48 178.395 445.449 178.154 446.419 178.336C449.936 178.96 453.349 180.083 456.548 181.674C456.96 181.759 457.342 181.946 457.664 182.216C457.986 182.486 458.237 182.833 458.393 183.224C458.549 183.615 458.605 184.039 458.558 184.457C458.511 184.875 458.362 185.273 458.123 185.619H457.821Z" fill="#FDFDFB"/>
<path d="M486.441 179.549C486.568 178.47 487.085 177.478 487.895 176.757C488.706 176.035 489.754 175.636 490.838 175.636C491.923 175.636 492.968 176.035 493.778 176.757C494.589 177.478 495.108 178.47 495.235 179.549C495.108 180.627 494.589 181.622 493.778 182.343C492.968 183.065 491.923 183.464 490.838 183.464C489.754 183.464 488.706 183.065 487.895 182.343C487.085 181.622 486.568 180.627 486.441 179.549ZM488.079 168.805L486.868 148.351C486.736 147.788 486.741 147.198 486.886 146.638C487.03 146.077 487.306 145.562 487.694 145.132C488.081 144.703 488.567 144.373 489.109 144.172C489.651 143.971 490.235 143.905 490.809 143.979C491.382 143.905 491.963 143.971 492.505 144.172C493.048 144.373 493.533 144.703 493.921 145.132C494.308 145.562 494.588 146.077 494.732 146.638C494.876 147.198 494.882 147.788 494.75 148.351L493.476 168.805C493.496 169.155 493.44 169.507 493.311 169.833C493.182 170.159 492.984 170.453 492.73 170.696C492.477 170.938 492.174 171.124 491.842 171.238C491.51 171.352 491.157 171.392 490.809 171.356C490.459 171.381 490.109 171.334 489.778 171.217C489.448 171.1 489.143 170.914 488.887 170.675C488.631 170.435 488.428 170.146 488.289 169.824C488.15 169.502 488.078 169.155 488.079 168.805Z" fill="#FDFDFB"/>
</g>
<defs>
<clipPath id="clip0_575_136">
<rect width="630.943" height="550" fill="white"/>
</clipPath>
</defs>
</svg>
