<svg width="632" height="550" viewBox="0 0 632 550" fill="none" xmlns="http://www.w3.org/2000/svg">
<path opacity="0.7" d="M436.976 0C569.531 0 642.416 50.7446 629.621 136.21C618.874 208 561.841 235.816 474.218 244.799C474.003 251.89 472.201 258.844 468.948 265.146C465.695 271.449 461.072 276.941 455.419 281.219C454.775 281.715 453.993 282.005 453.181 282.046C452.369 282.087 451.563 281.879 450.872 281.45C450.18 281.022 449.637 280.394 449.311 279.648C448.986 278.902 448.894 278.073 449.051 277.274C450.007 271.782 449.597 266.14 447.852 260.846C446.106 255.551 443.08 250.768 439.046 246.924C427.565 247.41 435.621 247.654 423.211 247.654C290.655 247.654 200 198.184 200 111.444C200 24.7039 304.42 0 436.976 0Z" fill="#B8C318"/>
<path d="M302.775 110.26C302.495 110.119 302.005 109.732 301.306 109.098C300.676 108.464 300.047 107.759 299.417 106.984C298.788 106.138 298.368 105.504 298.158 105.082C297.949 104.729 297.949 104.095 298.158 103.179C298.438 102.263 298.718 101.805 298.998 101.805C299.208 101.946 299.487 101.7 299.837 101.065C300.187 100.431 300.536 99.7619 300.886 99.0573C301.236 98.2823 301.411 97.8243 301.411 97.6834C301.481 97.4016 301.656 97.1902 301.935 97.0493C302.285 96.8379 302.6 96.6265 302.88 96.4151C303.229 95.8515 303.684 95.2878 304.244 94.7241C304.873 94.09 305.363 93.5616 305.712 93.1388C306.272 92.4342 307.286 91.3774 308.755 89.9682C310.224 88.559 311.658 87.1146 313.057 85.635C314.525 84.0145 315.819 82.6053 316.938 81.4075C318.058 80.1393 318.652 79.2585 318.722 78.7653C318.722 78.7653 318.827 78.6597 319.037 78.4483C319.317 78.1664 319.631 77.9198 319.981 77.7085C320.331 77.4971 320.785 77.1448 321.345 76.6516C321.974 76.1584 322.499 75.7004 322.919 75.2777C323.059 74.714 323.373 74.0799 323.863 73.3753C324.423 72.6002 325.052 71.8604 325.751 71.1558C326.311 70.3103 326.836 69.3944 327.325 68.408C327.815 67.3511 328.13 66.5761 328.269 66.0828C328.479 65.3078 328.409 64.8498 328.06 64.7089C327.71 64.4975 326.766 64.1452 325.227 63.652C323.548 63.0884 321.974 62.9827 320.506 63.335C319.037 63.6873 317.078 64.7441 314.63 66.5056C313.651 66.717 312.742 66.9988 311.902 67.3511C311.133 67.7034 310.469 67.8443 309.909 67.7738C309.629 67.6329 309.315 67.3159 308.965 66.8227C308.615 66.3295 308.23 65.8715 307.811 65.4487L306.762 60.9042L310.014 59.1075C312.882 57.2756 315.61 55.9016 318.197 54.9857C320.855 53.9993 323.164 53.8231 325.122 54.4572C325.891 54.4572 326.591 54.5629 327.22 54.7743C327.85 54.9152 328.165 54.9857 328.165 54.9857C328.724 54.9152 329.528 55.197 330.578 55.8312C331.697 56.4653 332.781 57.2756 333.83 58.262C334.949 59.2484 335.719 60.2348 336.138 61.2212C337.257 62.9122 337.677 64.9555 337.397 67.3511C337.117 69.7467 336.103 72.2479 334.355 74.8549C334.005 75.2777 333.236 76.1584 332.046 77.4971C330.857 78.8358 329.494 80.3506 327.955 82.0416C326.486 83.6622 325.122 85.1066 323.863 86.3748C322.674 87.6431 321.905 88.4534 321.555 88.8056C321.065 89.017 320.226 89.6864 319.037 90.8137C317.918 91.941 316.694 93.2093 315.365 94.6185C314.106 95.9572 313.022 97.1549 312.112 98.2118C311.273 99.1982 310.923 99.6914 311.063 99.6914C310.993 99.9733 311.343 99.9733 312.112 99.6914C312.952 99.3392 313.686 99.0573 314.316 98.8459C315.365 98.4937 316.589 98.1766 317.988 97.8948C319.456 97.5425 320.925 97.2606 322.394 97.0493C323.863 96.8379 325.122 96.697 326.171 96.6265C327.29 96.5561 327.955 96.6265 328.165 96.8379C328.304 97.1902 328.409 97.3311 328.479 97.2606C328.619 97.1197 328.689 97.0493 328.689 97.0493C328.829 96.5561 329.703 96.4151 331.312 96.6265C332.991 96.8379 334.495 97.1549 335.823 97.5777C336.593 97.7891 337.187 98.0709 337.607 98.4232C338.097 98.7755 338.341 99.0926 338.341 99.3744C338.341 99.3744 338.411 99.5505 338.551 99.9028C338.761 100.185 339.076 100.572 339.496 101.065C340.615 101.981 340.615 102.968 339.496 104.025C338.446 105.082 336.523 105.363 333.725 104.87C331.907 104.87 330.403 104.976 329.214 105.187C328.934 105.328 328.339 105.399 327.43 105.399C326.521 105.399 325.647 105.434 324.807 105.504C323.548 105.363 322.289 105.434 321.03 105.716C319.771 105.927 318.267 106.315 316.519 106.878C315.889 107.09 314.91 107.407 313.581 107.829C312.252 108.252 310.818 108.675 309.28 109.098C307.741 109.52 306.342 109.837 305.083 110.049C303.894 110.26 303.124 110.331 302.775 110.26Z" fill="#FDFDFB"/>
<path d="M376.145 110.789C375.656 110.789 374.746 110.612 373.417 110.26C372.158 109.908 370.829 109.485 369.431 108.992C368.102 108.428 367.052 107.829 366.283 107.195C363.905 105.152 362.191 102.897 361.142 100.431C360.093 97.8948 359.463 95.323 359.254 92.7161C359.114 90.1091 359.219 87.6431 359.568 85.318C360.338 80.8086 361.946 76.3345 364.395 71.8957C366.843 67.3863 369.78 63.652 373.208 60.6928C375.026 59.0722 376.845 57.6983 378.663 56.571C380.482 55.4436 382.44 54.6334 384.539 54.1402C385.308 53.9288 386.392 53.8231 387.791 53.8231C389.26 53.7526 390.239 53.7174 390.729 53.7174C392.128 53.7174 393.666 54.0345 395.345 54.6686C397.094 55.2323 398.597 55.9369 399.856 56.7824C401.115 57.5574 401.745 58.2972 401.745 59.0018C401.745 59.495 401.71 59.9882 401.64 60.4814C401.57 60.9746 401.255 61.0803 400.696 60.7985H399.647L400.696 63.9691C400.975 64.5328 401.22 65.3078 401.43 66.2942C401.64 67.2102 401.745 68.0557 401.745 68.8307C401.745 69.5353 401.64 70.5922 401.43 72.0013C401.29 73.3401 401.045 74.7844 400.696 76.3345C400.416 77.8846 400.101 79.329 399.751 80.6677C399.472 82.0064 399.192 82.9928 398.912 83.627C398.702 84.0497 398.562 84.4725 398.492 84.8952C398.492 85.2475 398.492 85.5646 398.492 85.8464C398.213 86.4101 397.758 87.3965 397.129 88.8056C396.499 90.2148 396.044 91.2012 395.765 91.7649C395.485 92.0467 395.24 92.2933 395.03 92.5047C394.89 92.7161 394.96 92.9627 395.24 93.2445C395.24 93.4559 395.065 93.9491 394.715 94.7241C394.366 95.4287 393.981 96.0981 393.561 96.7322C393.212 97.3663 392.932 97.6834 392.722 97.6834C392.722 97.6834 392.617 97.7186 392.407 97.7891C392.267 97.7891 392.197 97.8948 392.197 98.1061C392.197 98.388 391.708 99.1278 390.729 100.326C389.819 101.523 388.735 102.756 387.476 104.025C386.777 104.729 385.658 105.645 384.119 106.773C382.58 107.829 381.041 108.781 379.503 109.626C378.034 110.401 376.915 110.789 376.145 110.789ZM375.935 100.643C376.705 100.643 377.439 100.537 378.139 100.326C378.838 100.044 379.433 99.6562 379.922 99.163C381.181 98.3175 382.37 97.1902 383.489 95.781C384.678 94.3718 385.658 92.7513 386.427 90.9194C387.196 89.8625 387.791 88.7704 388.211 87.6431C388.7 86.4453 389.435 84.4372 390.414 81.6189C390.973 80.8439 391.358 79.8927 391.568 78.7653C391.778 77.638 391.883 76.6868 391.883 75.9118C391.883 75.1367 391.883 74.0799 391.883 72.7412C391.953 71.4024 392.128 70.2751 392.407 69.3592C392.407 67.5272 392.372 66.4704 392.302 66.1885C392.232 65.8362 391.953 65.3783 391.463 64.8146C391.183 64.6032 390.799 64.3918 390.309 64.1805C389.889 63.9691 389.435 63.8634 388.945 63.8634C388.455 63.8634 387.791 64.0043 386.952 64.2862C386.182 64.4975 385.518 64.7794 384.958 65.1317C384.469 65.4135 383.909 65.4487 383.28 65.2373C382.72 65.026 382.44 64.7441 382.44 64.3918C382.44 63.4054 381.951 63.4759 380.971 64.6032C380.062 65.6601 378.838 67.1397 377.299 69.0421C376.04 70.3103 374.956 71.6138 374.047 72.9525C373.208 74.2208 372.788 74.9958 372.788 75.2777C372.788 75.5595 372.683 75.9118 372.473 76.3345C372.263 76.7573 372.053 77.2505 371.844 77.8142C371.494 78.3074 371.074 79.1176 370.585 80.245C370.095 81.3723 369.605 82.4996 369.116 83.627C368.696 84.6838 368.416 85.4941 368.276 86.0578C368.276 86.3396 368.276 87.1146 368.276 88.3829C368.276 89.5807 368.276 90.708 368.276 91.7649C368.276 92.9627 368.311 93.8434 368.381 94.4071C368.451 94.9707 368.556 95.4287 368.696 95.781C368.906 96.1333 369.186 96.6617 369.535 97.3663C369.815 97.8595 370.235 98.4584 370.794 99.163C371.424 99.7971 371.844 100.255 372.053 100.537C372.823 101.242 373.312 101.523 373.522 101.382C373.802 101.171 374.606 100.924 375.935 100.643Z" fill="#FDFDFB"/>
<path d="M423.027 110.26C422.748 110.119 422.258 109.732 421.559 109.098C420.929 108.464 420.3 107.759 419.67 106.984C419.041 106.138 418.621 105.504 418.411 105.082C418.201 104.729 418.201 104.095 418.411 103.179C418.691 102.263 418.971 101.805 419.25 101.805C419.46 101.946 419.74 101.7 420.09 101.065C420.44 100.431 420.789 99.7619 421.139 99.0573C421.489 98.2823 421.664 97.8243 421.664 97.6834C421.734 97.4016 421.908 97.1902 422.188 97.0493C422.538 96.8379 422.853 96.6265 423.132 96.4151C423.482 95.8515 423.937 95.2878 424.496 94.7241C425.126 94.09 425.615 93.5616 425.965 93.1388C426.525 92.4342 427.539 91.3774 429.008 89.9682C430.477 88.559 431.91 87.1146 433.309 85.635C434.778 84.0145 436.072 82.6053 437.191 81.4075C438.31 80.1393 438.905 79.2585 438.975 78.7653C438.975 78.7653 439.08 78.6597 439.29 78.4483C439.569 78.1664 439.884 77.9198 440.234 77.7085C440.584 77.4971 441.038 77.1448 441.598 76.6516C442.227 76.1584 442.752 75.7004 443.171 75.2777C443.311 74.714 443.626 74.0799 444.116 73.3753C444.675 72.6002 445.305 71.8604 446.004 71.1558C446.564 70.3103 447.088 69.3944 447.578 68.408C448.068 67.3511 448.382 66.5761 448.522 66.0828C448.732 65.3078 448.662 64.8498 448.312 64.7089C447.963 64.4975 447.018 64.1452 445.48 63.652C443.801 63.0884 442.227 62.9827 440.758 63.335C439.29 63.6873 437.331 64.7441 434.883 66.5056C433.904 66.717 432.995 66.9988 432.155 67.3511C431.386 67.7034 430.721 67.8443 430.162 67.7738C429.882 67.6329 429.567 67.3159 429.218 66.8227C428.868 66.3295 428.483 65.8715 428.063 65.4487L427.014 60.9042L430.267 59.1075C433.134 57.2756 435.862 55.9016 438.45 54.9857C441.108 53.9993 443.416 53.8231 445.375 54.4572C446.144 54.4572 446.844 54.5629 447.473 54.7743C448.103 54.9152 448.417 54.9857 448.417 54.9857C448.977 54.9152 449.781 55.197 450.83 55.8312C451.95 56.4653 453.034 57.2756 454.083 58.262C455.202 59.2484 455.971 60.2348 456.391 61.2212C457.51 62.9122 457.93 64.9555 457.65 67.3511C457.37 69.7467 456.356 72.2479 454.607 74.8549C454.258 75.2777 453.488 76.1584 452.299 77.4971C451.11 78.8358 449.746 80.3506 448.208 82.0416C446.739 83.6622 445.375 85.1066 444.116 86.3748C442.927 87.6431 442.157 88.4534 441.808 88.8056C441.318 89.017 440.479 89.6864 439.29 90.8137C438.17 91.941 436.946 93.2093 435.617 94.6185C434.358 95.9572 433.274 97.1549 432.365 98.2118C431.526 99.1982 431.176 99.6914 431.316 99.6914C431.246 99.9733 431.596 99.9733 432.365 99.6914C433.204 99.3392 433.939 99.0573 434.568 98.8459C435.617 98.4937 436.842 98.1766 438.24 97.8948C439.709 97.5425 441.178 97.2606 442.647 97.0493C444.116 96.8379 445.375 96.697 446.424 96.6265C447.543 96.5561 448.208 96.6265 448.417 96.8379C448.557 97.1902 448.662 97.3311 448.732 97.2606C448.872 97.1197 448.942 97.0493 448.942 97.0493C449.082 96.5561 449.956 96.4151 451.565 96.6265C453.243 96.8379 454.747 97.1549 456.076 97.5777C456.846 97.7891 457.44 98.0709 457.86 98.4232C458.349 98.7755 458.594 99.0926 458.594 99.3744C458.594 99.3744 458.664 99.5505 458.804 99.9028C459.014 100.185 459.329 100.572 459.748 101.065C460.867 101.981 460.867 102.968 459.748 104.025C458.699 105.082 456.776 105.363 453.978 104.87C452.159 104.87 450.656 104.976 449.467 105.187C449.187 105.328 448.592 105.399 447.683 105.399C446.774 105.399 445.899 105.434 445.06 105.504C443.801 105.363 442.542 105.434 441.283 105.716C440.024 105.927 438.52 106.315 436.772 106.878C436.142 107.09 435.163 107.407 433.834 107.829C432.505 108.252 431.071 108.675 429.532 109.098C427.994 109.52 426.595 109.837 425.336 110.049C424.147 110.26 423.377 110.331 423.027 110.26Z" fill="#FDFDFB"/>
<path d="M491.257 111C489.508 111 487.795 110.683 486.116 110.049C484.507 109.344 483.213 108.534 482.234 107.618C481.255 106.702 480.8 105.821 480.87 104.976C480.94 103.848 481.325 102.968 482.024 102.334C482.724 101.7 483.843 101.488 485.382 101.7C487.76 102.193 490.173 102.369 492.621 102.228C495.069 102.017 497.342 101.523 499.441 100.748C501.609 99.9733 503.357 98.9164 504.686 97.5777C506.575 95.7458 507.554 94.1957 507.624 92.9275C507.694 91.5887 506.715 90.25 504.686 88.9113C503.777 88.2772 502.658 87.6783 501.329 87.1146C500 86.551 498.671 86.1282 497.342 85.8464C496.083 85.4941 494.964 85.3532 493.985 85.4236C493.355 85.4941 492.586 85.3884 491.677 85.1066C490.767 84.7543 489.858 84.3315 488.949 83.8383C488.529 83.3451 488.145 82.5349 487.795 81.4075C487.445 80.2802 487.2 79.5756 487.06 79.2938C486.99 78.9415 487.235 78.5187 487.795 78.0255C488.354 77.5323 489.473 76.7925 491.152 75.8061C492.831 74.7492 495.279 73.3401 498.496 71.5786C501.434 69.9581 503.672 68.725 505.211 67.8795C506.82 66.9636 508.044 66.259 508.883 65.7658C509.792 65.2021 510.562 64.6385 511.191 64.0748C512.031 63.0884 512.415 62.3486 512.345 61.8554C512.275 61.3621 511.331 60.9394 509.513 60.5871C507.764 60.4462 506.365 60.4462 505.316 60.5871C504.267 60.6576 503.742 60.8337 503.742 61.1155C503.742 61.1155 503.707 61.1155 503.637 61.1155C503.637 61.1155 503.532 61.1155 503.322 61.1155C502.973 60.9746 502.203 61.0099 501.014 61.2212C499.825 61.4326 498.671 61.6792 497.552 61.961C496.503 62.2429 495.943 62.4895 495.873 62.7008C495.803 62.8418 495.314 63.0884 494.405 63.4407C493.565 63.7225 492.691 63.9691 491.782 64.1805C490.942 64.3918 490.418 64.4975 490.208 64.4975C489.858 64.3566 489.438 63.8634 488.949 63.0179C488.529 62.1724 488.179 61.2917 487.9 60.3757C487.62 59.3893 487.55 58.72 487.69 58.3677C487.83 58.0858 488.319 57.6631 489.159 57.0994C490.068 56.4653 491.082 55.8312 492.201 55.197C493.32 54.4925 494.265 53.964 495.034 53.6117C496.013 53.3299 497.447 53.0833 499.336 52.8719C501.294 52.5901 503.218 52.3787 505.106 52.2378C507.065 52.0264 508.463 51.956 509.303 52.0264C512.52 52.3787 515.108 53.2242 517.067 54.5629C519.025 55.8312 520.284 57.8745 520.844 60.6928C521.053 61.6792 521.053 62.7008 520.844 63.7577C520.634 64.8146 520.179 65.8715 519.48 66.9283C518.78 67.9852 517.731 69.1478 516.332 70.416C514.584 71.5434 513.22 72.4946 512.24 73.2696C511.331 73.9742 510.072 74.714 508.463 75.489C507.974 75.8413 507.204 76.2288 506.155 76.6516C505.106 77.0743 504.127 77.4619 503.218 77.8142C502.308 78.1664 501.854 78.413 501.854 78.554C501.854 78.554 502.168 78.6244 502.798 78.7653C503.497 78.8358 504.232 78.9767 505.001 79.1881C505.84 79.329 506.435 79.5756 506.785 79.9279C508.813 80.6325 510.667 81.8655 512.345 83.627C514.094 85.318 515.318 86.6567 516.017 87.6431C516.997 89.8273 517.102 92.2229 516.332 94.8298C515.633 97.3663 514.339 99.7971 512.45 102.122C510.632 104.377 508.498 106.244 506.05 107.724C504.092 108.851 501.679 109.661 498.811 110.155C496.013 110.577 493.495 110.859 491.257 111Z" fill="#FDFDFB"/>
<path opacity="0.2" d="M348.26 411.301C348.26 411.301 395.133 382.773 446.433 387.629C447.829 387.764 449.237 387.533 450.516 386.959C451.795 386.384 452.902 385.484 453.729 384.351C454.555 383.217 455.07 381.889 455.227 380.495C455.383 379.1 455.175 377.687 454.62 376.398C444.008 351.026 407.746 297.489 291.684 296.336" fill="#7DBE37"/>
<path opacity="0.2" d="M157.796 468.601C126.28 481.507 97.4792 500.247 72.902 523.838C71.9236 524.836 70.7008 525.562 69.3579 525.946C68.015 526.329 66.5962 526.356 65.2393 526.026C63.8824 525.695 62.635 525.019 61.6182 524.061C60.6013 523.102 59.8504 521.896 59.439 520.56C51.2528 494.217 44.5211 429.511 132.871 354.365" fill="#7DBE37"/>
<path d="M315.092 269.203C315.092 269.203 377.124 259.675 418.601 217.671C419.731 216.544 421.134 215.728 422.672 215.303C424.209 214.877 425.828 214.856 427.377 215.24C428.925 215.625 430.349 216.403 431.51 217.499C432.67 218.594 433.529 219.969 434.003 221.494C443.341 251.844 451.042 325.472 349.897 411.726" fill="#5E9A33"/>
<path d="M361.569 505.445C372.165 499.014 374.112 482.833 365.917 469.303C357.721 455.773 342.486 450.017 331.891 456.448C321.295 462.879 319.352 479.061 327.547 492.592C335.743 506.122 350.974 511.876 361.569 505.445Z" fill="#FEFAE9"/>
<path d="M258.246 544.437C270.492 542.55 278.47 528.345 276.065 512.706C273.661 497.067 261.785 485.917 249.538 487.804C237.291 489.691 229.311 503.9 231.716 519.539C234.12 535.178 245.999 546.324 258.246 544.437Z" fill="#FEFAE9"/>
<path d="M184.963 177.852C184.963 177.852 198.848 206.016 258.395 210.75C274.963 212.046 290.86 217.862 304.359 227.564C346.261 257.914 421.937 329.419 389.253 434.672C389.253 434.672 369.484 485.233 304.783 508.603C304.783 508.603 244.995 535.616 192.3 509.029C143.789 484.75 93.3965 398.373 125.171 289.781C129.767 274.109 138.779 260.096 151.126 249.417C167.195 235.274 190.481 211.358 184.963 177.852Z" fill="#FEFAE9"/>
<path d="M115.711 340.952C117 323.612 120.131 306.458 125.049 289.781C129.646 274.109 138.658 260.096 151.004 249.417C167.195 235.274 190.481 211.358 184.963 177.852C184.963 177.852 198.848 206.016 258.395 210.75C274.963 212.046 290.86 217.862 304.359 227.564C317.473 237.055 329.766 247.634 341.107 259.189C335.043 275.577 311.212 331.481 248.876 354.183C248.876 354.183 190.781 376.826 115.711 340.952Z" fill="#7DBE37"/>
<path d="M340.8 258.885C354.369 276.185 364.646 295.833 371.119 316.852C378.396 343.924 361.478 379.918 333.099 390.237C220.614 431.209 115.709 341.677 115.709 341.677C115.709 341.677 114.375 323.467 146.028 311.327C177.682 299.187 300.417 255.121 300.417 255.121C300.417 255.121 330.916 245.47 340.8 258.885Z" fill="#F2E865"/>
<path d="M289.623 284.076C310.755 284.076 327.886 266.928 327.886 245.774C327.886 224.621 310.755 207.473 289.623 207.473C268.491 207.473 251.36 224.621 251.36 245.774C251.36 266.928 268.491 284.076 289.623 284.076Z" fill="white"/>
<path d="M192.419 319.523C213.551 319.523 230.682 302.375 230.682 281.221C230.682 260.068 213.551 242.92 192.419 242.92C171.287 242.92 154.156 260.068 154.156 281.221C154.156 302.375 171.287 319.523 192.419 319.523Z" fill="white"/>
<path d="M330.253 260.524H329.948C329.52 260.486 329.105 260.361 328.725 260.16C328.345 259.958 328.008 259.681 327.736 259.347C327.465 259.014 327.264 258.629 327.144 258.215C327.024 257.802 326.987 257.368 327.038 256.941L328.311 243.832C328.466 243.034 328.913 242.321 329.563 241.834C330.213 241.347 331.023 241.118 331.831 241.194C332.64 241.27 333.39 241.644 333.939 242.243C334.488 242.842 334.796 243.623 334.801 244.436L333.466 257.611C333.404 258.416 333.036 259.164 332.438 259.706C331.84 260.248 331.059 260.542 330.253 260.524Z" fill="#E27E7C"/>
<path d="M340.501 260.644H340.196C339.337 260.552 338.55 260.123 338.005 259.453C337.46 258.782 337.2 257.921 337.285 257.061L338.621 243.952C338.658 243.523 338.78 243.105 338.982 242.725C339.183 242.344 339.46 242.009 339.793 241.738C340.127 241.466 340.511 241.262 340.924 241.142C341.337 241.022 341.77 240.988 342.197 241.038C342.624 241.075 343.04 241.197 343.417 241.4C343.794 241.602 344.125 241.88 344.391 242.215C344.658 242.55 344.853 242.937 344.966 243.35C345.079 243.763 345.108 244.194 345.049 244.618L343.776 257.731C343.699 258.541 343.317 259.291 342.71 259.832C342.102 260.373 341.314 260.663 340.501 260.644Z" fill="#E27E7C"/>
<path d="M149.004 322.378C148.575 322.34 148.158 322.215 147.778 322.013C147.398 321.811 147.063 321.538 146.792 321.204C146.521 320.87 146.32 320.482 146.2 320.069C146.08 319.655 146.043 319.222 146.093 318.794L147.366 305.685C147.458 304.825 147.886 304.035 148.557 303.489C149.227 302.943 150.083 302.687 150.943 302.772C151.372 302.809 151.789 302.932 152.169 303.133C152.549 303.335 152.883 303.612 153.155 303.946C153.426 304.279 153.63 304.664 153.75 305.078C153.87 305.491 153.904 305.925 153.854 306.352L152.521 319.464C152.483 319.887 152.361 320.298 152.163 320.673C151.965 321.049 151.696 321.384 151.369 321.655C151.042 321.925 150.665 322.129 150.259 322.253C149.853 322.377 149.426 322.419 149.004 322.378Z" fill="#E27E7C"/>
<path d="M159.495 322.558C159.072 322.52 158.662 322.4 158.286 322.202C157.911 322.004 157.577 321.732 157.306 321.405C157.036 321.077 156.832 320.7 156.708 320.293C156.584 319.887 156.542 319.459 156.584 319.037L157.919 305.865C158.026 305.023 158.447 304.255 159.101 303.714C159.754 303.172 160.587 302.899 161.434 302.952C161.862 302.989 162.28 303.115 162.66 303.316C163.04 303.518 163.374 303.792 163.646 304.125C163.917 304.459 164.121 304.847 164.241 305.261C164.361 305.674 164.395 306.108 164.344 306.535L163.071 319.644C162.965 320.498 162.536 321.277 161.869 321.82C161.203 322.362 160.351 322.627 159.495 322.558Z" fill="#E27E7C"/>
<path d="M199.999 286.926C209.042 286.926 216.372 279.589 216.372 270.537C216.372 261.486 209.042 254.148 199.999 254.148C190.957 254.148 183.627 261.486 183.627 270.537C183.627 279.589 190.957 286.926 199.999 286.926Z" fill="#4A1E0E"/>
<path d="M289.441 254.393C298.483 254.393 305.813 247.056 305.813 238.004C305.813 228.953 298.483 221.615 289.441 221.615C280.399 221.615 273.068 228.953 273.068 238.004C273.068 247.056 280.399 254.393 289.441 254.393Z" fill="#4A1E0E"/>
<path d="M373.728 509.029C372.92 509.036 372.117 508.89 371.362 508.602C369.643 507.973 368.242 506.686 367.469 505.025C366.696 503.363 366.616 501.463 367.241 499.74L383.067 456.767C383.377 455.915 383.853 455.134 384.467 454.467C385.082 453.801 385.823 453.263 386.646 452.884C387.47 452.506 388.359 452.294 389.264 452.262C390.169 452.23 391.072 452.378 391.92 452.698C393.629 453.34 395.019 454.63 395.79 456.287C396.561 457.944 396.653 459.836 396.044 461.56L380.215 504.535C379.721 505.857 378.835 506.996 377.675 507.799C376.515 508.602 375.138 509.032 373.728 509.029Z" fill="#695D41"/>
<path d="M363.847 513.277C362.162 513.275 360.534 512.658 359.272 511.54C358.011 510.422 357.2 508.881 356.993 507.207L351.841 473.884C351.562 472.074 352.01 470.224 353.09 468.745C354.17 467.266 355.791 466.276 357.6 465.992C358.497 465.837 359.419 465.864 360.306 466.072C361.193 466.28 362.028 466.666 362.763 467.204C363.499 467.742 364.117 468.422 364.584 469.205C365.052 469.987 365.359 470.856 365.484 471.759L370.636 505.085C370.915 506.896 370.467 508.742 369.387 510.221C368.307 511.701 366.686 512.691 364.877 512.975L363.847 513.277Z" fill="#695D41"/>
<path d="M261.242 550H260.395C259.487 549.903 258.607 549.625 257.808 549.182C257.009 548.74 256.306 548.14 255.741 547.422C255.176 546.704 254.76 545.882 254.518 545C254.276 544.119 254.213 543.198 254.332 542.291L259.122 503.323C259.238 502.418 259.528 501.545 259.981 500.753C260.433 499.961 261.037 499.266 261.757 498.708C262.478 498.15 263.303 497.738 264.182 497.499C265.062 497.259 265.979 497.196 266.883 497.312C267.786 497.428 268.659 497.722 269.45 498.175C270.241 498.628 270.935 499.231 271.493 499.953C272.05 500.674 272.459 501.497 272.698 502.377C272.937 503.257 273.003 504.179 272.887 505.083L268.034 543.99C267.828 545.648 267.026 547.175 265.775 548.281C264.525 549.388 262.911 549.999 261.242 550Z" fill="#695D41"/>
<path d="M271.551 546.902C270.28 546.942 269.03 546.582 267.975 545.871C266.41 544.926 265.282 543.401 264.839 541.627C264.396 539.852 264.673 537.972 265.609 536.401L292.716 491.363C293.66 489.797 295.183 488.67 296.956 488.227C298.728 487.783 300.603 488.057 302.173 488.994C303.741 489.951 304.871 491.49 305.314 493.274C305.757 495.059 305.477 496.946 304.538 498.526L277.435 543.565C276.822 544.579 275.957 545.42 274.927 546.004C273.897 546.589 272.735 546.896 271.551 546.902Z" fill="#695D41"/>
<path d="M272.582 267.806L257.544 206.742C257.34 205.98 256.893 205.307 256.268 204.827C255.643 204.347 254.876 204.086 254.088 204.086C253.3 204.086 252.534 204.347 251.909 204.827C251.284 205.307 250.833 205.98 250.63 206.742L232.439 276.185C232.001 277.825 232.089 279.56 232.687 281.149C233.285 282.738 234.365 284.103 235.775 285.047L292.716 322.557C293.374 323.02 294.166 323.248 294.969 323.203C295.772 323.158 296.537 322.844 297.139 322.311C297.742 321.778 298.148 321.058 298.291 320.266C298.434 319.474 298.308 318.656 297.93 317.945L272.703 267.927L272.582 267.806Z" fill="#695D41"/>
<path d="M232.379 276.124L250.571 206.683C250.729 206.001 251.092 205.384 251.613 204.917C252.134 204.45 252.787 204.154 253.481 204.072C253.028 204.568 252.789 205.224 252.815 205.895L248.51 270.234C248.445 271.86 248.704 273.484 249.277 275.006C249.85 276.529 250.723 277.921 251.844 279.099L294.836 321.589C295.038 321.833 295.289 322.033 295.57 322.179C295.851 322.325 296.157 322.412 296.473 322.437C295.901 322.826 295.226 323.035 294.534 323.035C293.842 323.035 293.167 322.826 292.594 322.437L235.654 284.926C234.266 283.978 233.206 282.623 232.619 281.046C232.033 279.47 231.949 277.749 232.379 276.124Z" fill="#84765B"/>
<path d="M10.2615 366.386C59.1967 370.999 104.615 349.084 118.38 341.679C121.555 339.919 125.24 339.319 128.809 339.981C136.972 341.244 144.598 344.845 150.763 350.348C156.929 355.852 161.37 363.023 163.554 370.998C171.559 398.373 171.255 443.838 163.554 462.776C162.741 464.814 161.292 466.536 159.424 467.684C157.556 468.833 155.369 469.344 153.185 469.148C47.068 458.89 11.8362 405.659 0.739332 379.255C0.106959 377.766 -0.125595 376.137 0.0642548 374.53C0.254105 372.924 0.861069 371.394 1.82301 370.094C2.78495 368.793 4.07073 367.765 5.55073 367.115C7.03074 366.465 8.65422 366.215 10.2615 366.386Z" fill="#5E9A33"/>
<path d="M302.761 165.69C303.363 167.625 302.761 168.872 300.998 169.388C299.063 169.99 297.73 169.431 297.171 167.539C296.354 164.744 295.494 161.949 294.634 159.154H283.626L280.831 167.711C280.315 169.388 279.197 169.947 277.52 169.431C275.843 168.915 275.241 167.754 275.843 166.034L284.787 140.234C285.561 137.912 286.894 136.794 289.13 136.794C291.366 136.794 293.172 137.912 293.989 140.234C296.655 147.63 300.052 157.219 302.761 165.69ZM284.916 155.198H293.43C292.097 150.898 290.764 146.641 289.431 142.513H289.087L284.916 155.198Z" fill="#594A39"/>
<path d="M322.444 145.996C327.045 145.996 330.442 149.092 330.442 154.51V166.765C330.442 168.614 329.41 169.646 327.518 169.646C325.626 169.646 324.594 168.614 324.594 166.765V154.983C324.594 151.801 323.175 149.995 320.81 149.995C318.273 149.995 316.381 152.059 315.736 154.596V166.765C315.736 168.614 314.704 169.646 312.769 169.646C310.92 169.646 309.845 168.614 309.845 166.765V148.705C309.845 146.985 310.834 146.039 312.597 146.039C314.317 145.996 315.306 146.899 315.306 148.662V149.995C316.768 147.329 319.348 145.996 322.444 145.996Z" fill="#594A39"/>
<path d="M351.081 145.996C355.682 145.996 359.079 149.092 359.079 154.51V166.765C359.079 168.614 358.047 169.646 356.155 169.646C354.263 169.646 353.231 168.614 353.231 166.765V154.983C353.231 151.801 351.812 149.995 349.447 149.995C346.91 149.995 345.018 152.059 344.373 154.596V166.765C344.373 168.614 343.341 169.646 341.406 169.646C339.557 169.646 338.482 168.614 338.482 166.765V148.705C338.482 146.985 339.471 146.039 341.234 146.039C342.954 145.996 343.943 146.899 343.943 148.662V149.995C345.405 147.329 347.985 145.996 351.081 145.996Z" fill="#594A39"/>
<path d="M384.276 145.996C386.125 145.996 387.157 147.028 387.157 148.834V167.066C387.157 168.7 386.211 169.646 384.534 169.646C382.857 169.646 381.911 168.7 381.868 167.109V165.776C380.578 168.27 378.041 169.603 374.902 169.603C369.699 169.603 366.732 166.593 366.732 161.304V148.877C366.732 147.028 367.764 145.996 369.656 145.996C371.548 145.996 372.623 147.028 372.623 148.877V160.487C372.623 164.013 373.698 165.561 376.278 165.561C379.073 165.561 380.922 162.68 381.395 160.659V148.834C381.395 147.028 382.427 145.996 384.276 145.996Z" fill="#594A39"/>
<path d="M412.401 148.576C413.691 149.909 414.336 151.844 414.336 154.424V166.851C414.336 168.657 413.519 169.646 411.756 169.646C409.95 169.646 409.047 168.657 409.047 166.851V165.69C407.499 168.313 404.661 169.646 401.264 169.646C396.749 169.646 393.997 167.023 393.997 162.852C393.997 157.821 398.684 154.596 405.865 154.51C406.983 154.467 408.101 154.553 408.703 154.682V154.252C408.703 151.457 407.284 149.909 404.618 149.866C402.253 149.823 400.275 151.027 398.727 152.618C397.867 153.521 396.577 153.693 395.674 152.919C394.771 152.188 394.642 150.984 395.459 149.909C396.921 148.06 400.146 145.996 404.704 145.996C408.23 145.996 410.724 146.856 412.401 148.576ZM408.703 161.562V158.294C408.015 158.208 406.94 158.122 405.908 158.165C401.221 158.337 399.501 160.358 399.544 162.465C399.587 164.4 400.576 165.475 402.64 165.518C405.048 165.561 407.499 163.841 408.703 161.562Z" fill="#594A39"/>
<path d="M428.054 169.646C423.969 169.603 422.378 167.883 422.378 163.239V138.342C422.378 136.493 423.41 135.461 425.302 135.461C427.151 135.461 428.226 136.493 428.226 138.342V163.368C428.226 164.787 428.484 165.217 429.473 165.217C430.204 165.217 430.462 164.916 431.193 164.916C431.967 164.916 432.87 165.561 432.87 166.98C432.87 169.087 430.634 169.646 428.054 169.646Z" fill="#594A39"/>
<path d="M465.691 169.259C462.896 169.259 461.133 169.13 459.585 168.915C457.607 168.614 456.618 167.496 456.618 165.561V140.836C456.618 138.901 457.65 137.783 459.671 137.568C461.176 137.396 462.681 137.267 465.433 137.267C475.882 137.267 482.375 142.685 482.375 152.704C482.375 163.454 476.57 169.259 465.691 169.259ZM465.433 165.174C473.259 165.174 476.269 160.917 476.269 152.962C476.269 145.222 472.528 141.352 465.261 141.352C464.358 141.352 463.541 141.438 463.025 141.481C462.724 141.524 462.595 141.696 462.595 141.954V164.486C462.595 164.744 462.724 164.916 463.025 165.002C463.584 165.088 464.487 165.174 465.433 165.174Z" fill="#594A39"/>
<path d="M506.835 148.576C508.125 149.909 508.77 151.844 508.77 154.424V166.851C508.77 168.657 507.953 169.646 506.19 169.646C504.384 169.646 503.481 168.657 503.481 166.851V165.69C501.933 168.313 499.095 169.646 495.698 169.646C491.183 169.646 488.431 167.023 488.431 162.852C488.431 157.821 493.118 154.596 500.299 154.51C501.417 154.467 502.535 154.553 503.137 154.682V154.252C503.137 151.457 501.718 149.909 499.052 149.866C496.687 149.823 494.709 151.027 493.161 152.618C492.301 153.521 491.011 153.693 490.108 152.919C489.205 152.188 489.076 150.984 489.893 149.909C491.355 148.06 494.58 145.996 499.138 145.996C502.664 145.996 505.158 146.856 506.835 148.576ZM503.137 161.562V158.294C502.449 158.208 501.374 158.122 500.342 158.165C495.655 158.337 493.935 160.358 493.978 162.465C494.021 164.4 495.01 165.475 497.074 165.518C499.482 165.561 501.933 163.841 503.137 161.562Z" fill="#594A39"/>
<path d="M527.838 164.529C528.913 164.529 529.601 165.819 529.601 166.765C529.601 168.786 526.548 169.302 524.312 169.302C520.012 169.302 518.034 167.195 518.034 162.508V150.683H515.411C514.25 150.683 513.562 149.952 513.562 148.662C513.562 147.372 514.25 146.641 515.411 146.641H518.034V143.244C518.034 141.395 519.066 140.363 520.958 140.363C522.85 140.363 523.882 141.395 523.882 143.244V146.641H527.58C528.741 146.641 529.386 147.372 529.386 148.662C529.386 149.952 528.741 150.683 527.58 150.683H523.882V162.465C523.882 164.443 524.398 165.174 525.387 165.088C526.333 165.002 526.935 164.529 527.838 164.529Z" fill="#594A39"/>
<path d="M552.897 148.576C554.187 149.909 554.832 151.844 554.832 154.424V166.851C554.832 168.657 554.015 169.646 552.252 169.646C550.446 169.646 549.543 168.657 549.543 166.851V165.69C547.995 168.313 545.157 169.646 541.76 169.646C537.245 169.646 534.493 167.023 534.493 162.852C534.493 157.821 539.18 154.596 546.361 154.51C547.479 154.467 548.597 154.553 549.199 154.682V154.252C549.199 151.457 547.78 149.909 545.114 149.866C542.749 149.823 540.771 151.027 539.223 152.618C538.363 153.521 537.073 153.693 536.17 152.919C535.267 152.188 535.138 150.984 535.955 149.909C537.417 148.06 540.642 145.996 545.2 145.996C548.726 145.996 551.22 146.856 552.897 148.576ZM549.199 161.562V158.294C548.511 158.208 547.436 158.122 546.404 158.165C541.717 158.337 539.997 160.358 540.04 162.465C540.083 164.4 541.072 165.475 543.136 165.518C545.544 165.561 547.995 163.841 549.199 161.562Z" fill="#594A39"/>
</svg>
