<svg width="632" height="550" viewBox="0 0 632 550" fill="none" xmlns="http://www.w3.org/2000/svg">
<path opacity="0.7" d="M437.11 0C569.666 0 642.551 50.7446 629.756 136.21C619.008 208 561.975 235.816 474.353 244.799C474.137 251.89 472.336 258.844 469.082 265.146C465.829 271.449 461.207 276.941 455.554 281.219C454.91 281.715 454.128 282.005 453.316 282.046C452.504 282.087 451.698 281.879 451.006 281.45C450.315 281.022 449.771 280.394 449.446 279.648C449.121 278.902 449.029 278.073 449.185 277.274C450.142 271.782 449.732 266.14 447.986 260.846C446.241 255.551 443.215 250.768 439.181 246.924C427.7 247.41 435.756 247.654 423.345 247.654C290.79 247.654 200.135 198.184 200.135 111.444C200.135 24.7039 304.555 0 437.11 0Z" fill="#B8C318"/>
<path d="M302.614 110.717C302.083 110.371 301.594 109.962 301.157 109.502C300.47 108.855 299.803 108.127 299.156 107.318C298.665 106.703 298.221 106.055 297.823 105.376C297.611 104.746 297.611 104.062 297.823 103.432C297.823 102.522 298.37 102.036 298.673 102.036C298.976 102.036 299.156 102.038 299.52 101.31L300.613 99.1849C300.856 98.7462 301.039 98.2767 301.157 97.7889C301.201 97.6389 301.28 97.5015 301.385 97.3858C301.49 97.2702 301.619 97.1801 301.764 97.122L302.673 96.5145C303.1 95.8816 303.589 95.2918 304.13 94.7539L305.584 93.1742C306.561 92.0127 307.615 90.9174 308.737 89.8962C310.253 88.4394 311.708 86.9827 313.164 85.4652L317.167 81.0965C317.984 80.3705 318.608 79.4532 318.985 78.4261C319.387 78.0367 319.815 77.6708 320.261 77.3324C320.801 77.0188 321.309 76.6518 321.777 76.2387C322.308 75.8024 322.814 75.3364 323.293 74.8428C323.539 74.1291 323.886 73.4571 324.323 72.8422C324.918 72.0694 325.566 71.3371 326.263 70.6548C326.849 69.7181 327.377 68.745 327.841 67.7414C328.249 67.0113 328.573 66.2383 328.809 65.4355C329.051 64.6666 329.051 64.1796 328.809 63.9773C327.862 63.5718 326.89 63.2276 325.898 62.9459C324.291 62.5011 322.593 62.5011 320.986 62.9459C318.779 63.6234 316.722 64.7168 314.922 66.1646C313.97 66.3664 313.037 66.6486 312.133 67.0123C311.477 67.3485 310.747 67.5159 310.01 67.4983C309.642 67.2229 309.317 66.8978 309.042 66.5292C308.692 66.0177 308.307 65.5296 307.89 65.0709L306.798 60.4592L310.132 58.5771C312.794 56.8476 315.644 55.4212 318.624 54.327C320.867 53.3722 323.366 53.2007 325.718 53.8409C326.788 53.8889 327.847 54.0745 328.871 54.3892C329.785 54.4168 330.67 54.7102 331.417 55.2369C332.603 55.9618 333.719 56.7959 334.751 57.7265C335.723 58.5653 336.508 59.5994 337.055 60.7615C338.178 62.5733 338.65 64.7151 338.39 66.8315C337.975 69.6179 336.893 72.2627 335.237 74.5405L332.871 77.2731C331.598 78.6085 330.264 80.1853 328.688 81.8849L324.445 86.3781L322.017 88.8647C321.057 89.4032 320.196 90.1031 319.47 90.9306L315.713 94.7539C314.379 96.15 313.225 97.3646 312.376 98.3965C311.527 99.4284 311.042 99.9733 311.224 99.9733C311.406 99.9733 311.527 100.277 312.376 99.9733L314.558 99.1849C315.811 98.7669 317.088 98.4228 318.381 98.1535C319.897 97.85 321.413 97.5442 322.929 97.3621C324.234 97.1496 325.549 97.0088 326.87 96.9383C327.521 96.7333 328.22 96.7333 328.871 96.9383C328.871 97.3025 329.173 97.3632 329.416 96.9383C329.658 96.5134 330.448 96.2717 332.146 96.5145C333.709 96.6904 335.251 97.0136 336.753 97.4836C337.433 97.6305 338.074 97.921 338.633 98.3343C339.118 98.6985 339.361 99.0029 339.361 99.3064C339.696 99.9242 340.081 100.513 340.513 101.067C340.779 101.214 340.999 101.428 341.153 101.689C341.307 101.951 341.39 102.248 341.39 102.552C341.39 102.855 341.307 103.156 341.153 103.417C340.999 103.679 340.779 103.893 340.513 104.04C339.643 104.652 338.64 105.055 337.588 105.213C336.535 105.371 335.461 105.28 334.449 104.95C332.907 104.906 331.363 105.01 329.839 105.255C329.221 105.395 328.578 105.395 327.959 105.255H325.291C323.984 105.074 322.658 105.074 321.351 105.255C319.787 105.572 318.248 105.997 316.743 106.529L313.711 107.501L309.285 108.776C307.868 109.176 306.431 109.498 304.98 109.745C304.244 110.184 303.446 110.512 302.614 110.717Z" fill="#FDFDFB"/>
<path d="M376.287 111.262C375.34 111.186 374.404 111.004 373.498 110.716C372.164 110.352 370.829 109.867 369.374 109.32C368.185 108.937 367.075 108.34 366.099 107.56C363.823 105.674 362.019 103.285 360.826 100.58C359.741 98.0987 359.083 95.4507 358.883 92.7495C358.705 90.2168 358.809 87.6723 359.188 85.162C360.055 80.3014 361.735 75.6236 364.16 71.3238C367.634 64.9306 372.713 59.5521 378.896 55.7221C381.698 53.8485 384.986 52.8359 388.356 52.8086H391.326C392.962 52.8437 394.581 53.1508 396.116 53.7185C397.717 54.3013 399.259 55.035 400.723 55.9058C401.997 56.7556 402.666 57.5426 402.666 58.271C402.693 58.7764 402.693 59.283 402.666 59.7885C402.666 60.2741 402.301 60.3972 401.694 60.0937H400.605L401.694 63.3095C402.038 64.0694 402.301 64.8635 402.482 65.6776C402.662 66.5366 402.766 67.4113 402.787 68.2888C402.854 69.3601 402.854 70.4333 402.787 71.5046C402.787 72.9007 402.303 74.4166 401.999 75.9948C401.696 77.573 401.331 79.0933 401.028 80.4287C400.838 81.471 400.534 82.4888 400.119 83.4637C399.888 83.8491 399.762 84.2886 399.755 84.7382C399.726 85.0815 399.726 85.4263 399.755 85.7696C399.452 86.3159 398.967 87.3478 398.361 88.8046L396.904 91.8396L396.238 92.5687C396.238 92.5687 396.238 93.0536 396.238 93.3571C396.127 93.8583 395.964 94.345 395.752 94.8123C395.388 95.5407 394.964 96.2711 394.6 96.8781C394.236 97.4851 393.873 97.8473 393.691 97.8473C393.509 97.8473 393.143 97.8478 393.143 98.3334C392.802 99.1662 392.31 99.9286 391.69 100.58C390.622 101.91 389.469 103.168 388.234 104.344C387.178 105.388 386.018 106.323 384.776 107.136C383.199 108.229 381.623 109.2 380.107 110.049C378.947 110.751 377.639 111.166 376.287 111.262ZM376.287 100.823C377.07 100.825 377.847 100.702 378.591 100.458C379.29 100.245 379.92 99.8467 380.412 99.3055C381.821 98.3349 383.085 97.1682 384.169 95.8437C385.374 94.3229 386.375 92.6503 387.142 90.8674C387.907 89.8172 388.539 88.6749 389.022 87.4679C389.507 86.3146 390.234 84.2508 391.204 81.3979C391.823 80.5311 392.239 79.535 392.418 78.4844C392.52 77.5159 392.52 76.5395 392.418 75.571C392.418 74.7819 392.418 73.6891 392.418 72.293C392.464 71.1264 392.627 69.9684 392.904 68.8341C392.904 66.9525 392.904 65.8596 392.904 65.5561C392.696 65.0529 392.384 64.597 391.992 64.2194C391.654 63.9566 391.29 63.7334 390.902 63.5526C390.429 63.3294 389.909 63.2264 389.386 63.2502C388.706 63.284 388.033 63.4067 387.385 63.6148C386.658 63.821 385.965 64.1268 385.324 64.5247C385.057 64.6454 384.767 64.7085 384.474 64.7085C384.181 64.7085 383.891 64.6454 383.624 64.5247C383.018 64.5247 382.715 63.9776 382.715 63.6741C382.715 63.3706 382.229 62.7029 381.259 63.6741L377.38 68.2888C376.168 69.4992 375.072 70.8195 374.105 72.2337C373.525 72.9607 373.072 73.7813 372.77 74.6611C372.743 75.0502 372.617 75.4272 372.406 75.7547C372.406 76.1796 371.983 76.7259 371.802 77.2722C371.287 78.0624 370.84 78.893 370.466 79.7589L369.009 83.1584C368.639 83.9827 368.335 84.8347 368.1 85.7074V91.7773C368.054 92.667 368.054 93.5581 368.1 94.4478C368.134 94.9318 368.257 95.4052 368.465 95.8437L369.252 97.4827C369.679 98.1179 370.145 98.7279 370.647 99.3055C371.088 99.7587 371.495 100.244 371.861 100.761C372.649 101.489 373.193 101.734 373.436 101.552C374.267 101.189 375.146 100.943 376.044 100.823H376.287Z" fill="#FDFDFB"/>
<path d="M421.889 110.717C421.37 110.355 420.882 109.948 420.432 109.502C419.785 108.855 419.121 108.127 418.433 107.318C417.935 106.722 417.508 106.071 417.16 105.376C417.16 105.012 417.16 104.403 417.16 103.432C417.16 102.461 417.645 102.036 417.948 102.036C418.251 102.036 418.434 102.038 418.798 101.31L419.887 99.1849C420.131 98.7462 420.314 98.2767 420.432 97.7889C420.546 97.4998 420.762 97.2632 421.039 97.122L421.948 96.5145C422.375 95.8816 422.863 95.2918 423.405 94.7539L424.861 93.1742C425.855 92.0281 426.905 90.9338 428.012 89.8962C429.528 88.4394 430.986 86.9827 432.441 85.4652L436.441 81.0965C437.259 80.3705 437.886 79.4532 438.262 78.4261L439.595 77.3324C440.123 77.0295 440.613 76.6615 441.051 76.2387L442.627 74.8428C442.842 74.1165 443.191 73.4396 443.657 72.8422C444.23 72.0696 444.859 71.3372 445.537 70.6548C446.083 69.7443 446.629 68.834 447.174 67.7414C447.72 66.6488 447.964 65.9211 448.146 65.4355C448.328 64.9499 448.146 64.1594 448.146 63.9773C447.198 63.5718 446.226 63.2276 445.235 62.9459C443.649 62.5001 441.969 62.5001 440.382 62.9459C438.178 63.6301 436.121 64.7229 434.318 66.1646C433.366 66.3664 432.433 66.6486 431.529 67.0123C430.895 67.3485 430.186 67.5162 429.468 67.4983C429.066 67.2441 428.716 66.9163 428.438 66.5292C428.107 66.0037 427.721 65.5139 427.286 65.0709L426.194 60.4592L429.528 58.5771C432.197 56.8603 435.046 55.4346 438.019 54.327C440.263 53.3722 442.761 53.2007 445.114 53.8409C446.184 53.8828 447.245 54.0685 448.267 54.3892C449.181 54.4168 450.066 54.7102 450.813 55.2369C452.009 55.9467 453.126 56.7819 454.147 57.7265C455.138 58.5475 455.929 59.586 456.454 60.7615C457.632 62.5506 458.105 64.7127 457.786 66.8315C457.371 69.6179 456.289 72.2627 454.633 74.5405L452.267 77.2731L448.083 81.8849C446.567 83.5845 445.112 85.0427 443.9 86.3781L441.475 88.8647C440.494 89.371 439.627 90.0754 438.928 90.9306C437.716 92.1041 436.443 93.3781 435.109 94.7539C433.775 96.15 432.682 97.3646 431.772 98.3965C430.862 99.4284 430.499 99.9733 430.62 99.9733C430.742 99.9733 430.923 100.277 431.772 99.9733L434.016 99.1849C435.264 98.7514 436.54 98.4071 437.836 98.1535C439.291 97.85 440.809 97.5442 442.325 97.3621C443.63 97.1496 444.945 97.0088 446.265 96.9383C446.917 96.7333 447.616 96.7333 448.267 96.9383C448.267 97.3025 448.266 97.3632 448.812 96.9383C449.358 96.5134 449.844 96.2717 451.542 96.5145C453.106 96.6839 454.649 97.0072 456.149 97.4836C456.833 97.6169 457.477 97.9087 458.029 98.3343C458.514 98.6985 458.757 99.0029 458.757 99.3064C459.091 99.9391 459.496 100.53 459.968 101.067C460.219 101.226 460.426 101.444 460.569 101.704C460.712 101.964 460.788 102.255 460.788 102.552C460.788 102.849 460.712 103.142 460.569 103.402C460.426 103.662 460.219 103.881 459.968 104.04C459.092 104.64 458.093 105.035 457.043 105.193C455.993 105.35 454.918 105.266 453.904 104.95C452.362 104.908 450.821 105.012 449.297 105.255C448.679 105.395 448.036 105.395 447.417 105.255H444.749C443.462 105.072 442.155 105.072 440.868 105.255C439.284 105.571 437.723 105.996 436.199 106.529L433.167 107.501L428.74 108.776C427.325 109.183 425.888 109.505 424.435 109.745C423.644 110.204 422.784 110.533 421.889 110.717Z" fill="#FDFDFB"/>
<path d="M481.07 110.717C480.564 110.338 480.08 109.932 479.617 109.502C478.929 108.855 478.262 108.127 477.615 107.318C477.138 106.706 476.713 106.058 476.342 105.377C476.342 105.012 476.342 104.403 476.342 103.432C476.342 102.461 476.826 102.036 477.129 102.036C477.433 102.036 477.676 102.039 477.979 101.31L479.072 99.185C479.315 98.7464 479.498 98.2769 479.617 97.7891C479.731 97.4999 479.947 97.2633 480.223 97.1222L481.132 96.5146C481.559 95.8818 482.045 95.292 482.586 94.7541L484.043 93.1744C485.037 92.0283 486.09 90.934 487.196 89.8963C488.712 88.4395 490.167 86.9829 491.623 85.4654L495.626 81.0967C496.433 80.3486 497.074 79.4389 497.506 78.4262C497.895 78.0222 498.321 77.6553 498.779 77.3326C499.307 77.0297 499.795 76.6616 500.233 76.2389L501.811 74.8429C502.027 74.1167 502.376 73.4398 502.842 72.8423C503.415 72.0698 504.044 71.3374 504.722 70.655C505.351 69.7335 505.899 68.7587 506.359 67.7415C506.741 66.9988 507.063 66.2283 507.327 65.4357C507.327 64.6466 507.327 64.1595 507.327 63.9774C506.38 63.5719 505.408 63.2278 504.417 62.946C502.831 62.4971 501.153 62.4971 499.567 62.946C497.368 63.6431 495.314 64.7347 493.503 66.1648C492.568 66.3574 491.652 66.6399 490.773 67.0124C490.115 67.3439 489.386 67.511 488.65 67.4985C488.268 67.2393 487.941 66.9117 487.682 66.5293C487.311 66.0169 486.905 65.5288 486.468 65.0711L485.378 60.4594L488.771 58.5773C491.428 56.8372 494.279 55.4101 497.263 54.3271C499.485 53.3723 501.963 53.2006 504.295 53.8411C505.366 53.883 506.426 54.0687 507.449 54.3894C508.365 54.4019 509.254 54.6967 509.995 55.237C511.191 55.9469 512.311 56.782 513.332 57.7267C514.339 58.547 515.148 59.5845 515.698 60.7617C516.828 62.5695 517.28 64.7211 516.971 66.8316C516.556 69.6181 515.474 72.2629 513.817 74.5406L511.452 77.2733L507.268 81.885C505.752 83.5846 504.358 85.0429 503.084 86.3782L500.659 88.8649C499.678 89.3711 498.809 90.0756 498.11 90.9307L494.291 94.7541C492.957 96.1502 491.866 97.3648 490.957 98.3967C490.047 99.4286 489.684 99.9734 489.805 99.9734C489.926 99.9734 490.108 100.277 490.957 99.9734L493.198 99.185C494.448 98.7593 495.726 98.4151 497.02 98.1536C498.476 97.8501 499.99 97.5444 501.506 97.3623C502.812 97.1529 504.127 97.0121 505.447 96.9384C506.097 96.7253 506.799 96.7253 507.449 96.9384C507.449 97.3026 507.754 97.3633 507.996 96.9384C508.239 96.5136 509.086 96.2718 510.723 96.5146C512.288 96.684 513.833 97.0074 515.333 97.4838C516.031 97.6312 516.691 97.9213 517.273 98.3344C517.697 98.6986 517.939 99.0031 517.939 99.3066C518.293 99.9261 518.7 100.515 519.153 101.067C519.403 101.226 519.608 101.444 519.751 101.704C519.894 101.964 519.97 102.255 519.97 102.552C519.97 102.849 519.894 103.143 519.751 103.403C519.608 103.663 519.403 103.881 519.153 104.04C518.28 104.648 517.279 105.047 516.228 105.205C515.176 105.363 514.102 105.275 513.089 104.95C511.527 104.907 509.963 105.01 508.42 105.255C507.821 105.391 507.201 105.391 506.602 105.255H503.872C502.585 105.073 501.277 105.073 499.99 105.255C498.406 105.571 496.846 105.996 495.321 106.529L492.289 107.502L487.863 108.776C486.466 109.176 485.051 109.498 483.62 109.745C482.825 110.196 481.963 110.524 481.07 110.717Z" fill="#FDFDFB"/>
<path d="M342.438 169.5C343.788 169.5 344.544 170.256 344.544 171.606C344.544 173.01 343.788 173.766 342.438 173.766H326.562V184.62C326.562 186.888 325.266 187.968 322.998 187.968C320.73 187.968 319.434 186.888 319.434 184.62V173.766H297.942C296.538 173.766 295.782 173.01 295.782 171.606C295.782 170.256 296.538 169.5 297.942 169.5H305.124V158.268C305.124 156.216 306.258 155.136 308.31 155.136H319.434V148.008H309.444C306.906 152.328 303.558 156.27 300.426 158.538C299.562 159.24 298.752 159.24 298.104 158.538C297.402 157.782 297.348 156.972 297.996 156.108C301.344 151.734 303.882 145.794 305.556 139.422C306.204 136.884 307.878 136.236 310.308 136.83C312.684 137.37 313.44 139.26 312.414 141.906C312.144 142.554 311.928 143.202 311.604 143.85H340.98C342.33 143.85 343.086 144.552 343.086 145.902C343.086 147.252 342.33 148.008 340.98 148.008H326.562V155.136H338.172C339.468 155.136 340.17 155.838 340.17 157.134C340.17 158.43 339.468 159.132 338.172 159.132H326.562V169.5H342.438ZM319.434 169.5V159.132H312.63C312.252 159.132 311.982 159.402 311.982 159.78V169.5H319.434Z" fill="#594A39"/>
<path d="M368.088 147.306V157.998C368.088 172.2 365.766 181.596 360.798 187.158C360.096 188.022 359.016 188.13 358.26 187.482C357.45 186.888 357.234 186.132 357.72 185.16C360.474 179.544 361.23 172.2 361.23 157.35V145.74C361.23 143.634 362.31 142.446 364.362 142.446H380.184V140.286C380.184 138.288 381.48 137.154 383.856 137.154C386.178 137.154 387.528 138.288 387.528 140.286V142.446H403.35C404.646 142.446 405.348 143.256 405.348 144.552C405.348 145.848 404.646 146.604 403.35 146.604H368.736C368.358 146.604 368.088 146.928 368.088 147.306ZM378.132 163.614C376.08 163.614 375 162.48 375 160.482V156.162H370.464C369.222 156.162 368.574 155.406 368.574 154.164C368.574 152.976 369.222 152.274 370.464 152.274H375V149.844C375 148.17 376.134 147.198 378.186 147.198C380.13 147.198 381.372 148.17 381.372 149.844V152.274H389.904V149.79C389.904 148.116 391.038 147.144 393.09 147.144C395.088 147.144 396.276 148.116 396.276 149.79V152.274H401.676C402.918 152.274 403.62 152.976 403.62 154.164C403.62 155.46 402.918 156.162 401.676 156.162H396.276V160.482C396.276 162.48 395.142 163.614 393.144 163.614H378.132ZM381.372 156.162V159.186C381.372 159.564 381.642 159.834 382.02 159.834H389.256C389.634 159.834 389.904 159.564 389.904 159.186V156.162H381.372ZM402.54 181.326C404.646 181.596 405.618 183.108 405.294 185.214C404.862 187.428 403.296 188.022 401.298 187.806C395.898 187.104 390.768 185.484 386.34 182.892C381.048 185.646 374.622 187.266 367.548 187.752C366.468 187.806 365.712 187.374 365.55 186.348C365.388 185.43 365.82 184.566 367.008 184.296C373.056 183.054 377.862 181.542 381.696 179.652C378.618 177.006 376.134 173.82 374.514 170.094H371.706C370.518 170.094 369.762 169.284 369.762 168.096C369.762 166.908 370.518 166.206 371.706 166.206H395.412C398.544 166.206 399.948 168.474 398.436 171.336C396.87 174.36 394.71 176.952 392.064 179.166C395.196 180.192 398.706 180.894 402.54 181.326ZM378.564 170.094C380.724 172.848 383.316 175.008 386.394 176.682C388.446 175.062 390.12 173.172 391.47 170.958C391.794 170.472 391.524 170.094 391.038 170.094H378.564Z" fill="#594A39"/>
<path d="M465.882 181.11C467.61 182.622 468.096 184.512 466.638 186.294C465.126 188.13 463.128 188.184 461.292 186.348C459.24 184.404 457.404 182.082 455.838 179.436C453.408 182.838 450.276 185.538 446.334 187.59C445.362 188.13 444.498 187.86 444.012 187.05C443.634 186.402 443.634 185.862 444.012 185.322C443.148 185.7 442.122 185.592 441.096 184.944C439.8 184.026 438.45 183.216 437.154 182.406C433.266 185.43 427.92 187.32 421.494 187.86C420.414 187.914 419.712 187.428 419.604 186.51C419.496 185.538 419.874 184.89 421.116 184.674C425.814 183.81 429.648 182.244 432.51 179.922C431.43 179.382 430.242 178.896 429.054 178.41C428.892 178.734 428.676 179.058 428.514 179.328C427.542 180.84 426.03 181.056 424.626 180.246C423.222 179.382 422.952 178.248 423.924 176.574C424.464 175.548 425.166 174.36 425.814 173.064H421.386C420.198 173.064 419.496 172.362 419.496 171.174C419.496 169.986 420.198 169.338 421.386 169.338H427.704L428.784 167.124H424.464C422.466 167.124 421.494 166.152 421.494 164.154V160.374C421.494 158.322 422.466 157.404 424.464 157.404H430.89V155.73H425.652C423.654 155.73 422.52 154.65 422.52 152.652V150.168H420.9C419.766 150.168 419.118 149.52 419.118 148.386C419.118 147.198 419.82 146.496 420.9 146.496H422.52V144.12C422.52 142.122 423.654 141.042 425.652 141.042H430.89V139.53C430.89 137.802 431.916 136.992 433.86 136.992C435.804 136.992 436.83 137.802 436.83 139.53V141.042H442.068C444.12 141.042 445.2 142.122 445.2 144.12V146.496H446.658C447.684 146.496 448.332 147.144 448.332 148.332C448.332 149.52 447.684 150.168 446.658 150.168H445.2V152.652C445.2 154.65 444.12 155.73 442.068 155.73H436.83V157.404H443.148C444.822 157.404 445.794 158.052 446.064 159.402C448.278 154.11 449.412 146.928 449.898 140.124C450.06 137.748 451.248 136.938 453.3 137.1C455.352 137.262 456.324 138.342 456.054 140.61C455.73 143.31 455.244 146.01 454.596 148.602H465.18C466.422 148.602 467.124 149.304 467.124 150.546C467.124 151.788 466.422 152.544 465.18 152.544H463.452C463.02 160.914 461.67 168.042 459.078 173.874C460.968 176.574 463.236 178.896 465.882 181.11ZM427.866 145.038V146.604H430.998V144.39H428.514C428.136 144.39 427.866 144.66 427.866 145.038ZM436.722 144.39V146.604H439.908V145.038C439.908 144.66 439.638 144.39 439.26 144.39H436.722ZM428.514 152.382H430.998V150.006H427.866V151.734C427.866 152.112 428.136 152.382 428.514 152.382ZM436.722 150.006V152.382H439.26C439.638 152.382 439.908 152.112 439.908 151.734V150.006H436.722ZM457.296 152.544H453.408C453.192 153.192 452.976 153.894 452.706 154.542C453.246 159.726 454.218 163.992 455.676 167.556C456.702 163.344 457.134 158.484 457.296 152.544ZM445.254 184.242C448.926 181.218 451.518 178.032 453.354 174.252C451.68 170.148 450.546 165.396 450.006 160.05C449.52 160.806 449.034 161.508 448.548 162.102C447.846 162.858 447.036 162.966 446.28 162.534C446.226 162.534 446.226 162.48 446.172 162.426V164.154C446.172 166.152 445.2 167.124 443.148 167.124H434.832C434.508 167.826 434.184 168.582 433.806 169.338H446.982C448.17 169.338 448.872 169.986 448.872 171.174C448.872 172.416 448.17 173.064 446.982 173.064H443.634C443.04 175.116 442.122 177.006 440.826 178.734C441.906 179.166 442.932 179.598 443.904 180.084C445.848 181.002 446.28 182.352 445.362 184.026C445.308 184.08 445.308 184.134 445.254 184.242ZM427.056 163.128C427.056 163.506 427.326 163.776 427.704 163.776H430.89V160.752H427.704C427.326 160.752 427.056 161.022 427.056 161.4V163.128ZM440.016 160.752H436.83V163.776H440.016C440.394 163.776 440.664 163.506 440.664 163.128V161.4C440.664 161.022 440.394 160.752 440.016 160.752ZM431.97 173.064C431.538 173.928 431.106 174.792 430.674 175.602C432.186 175.926 433.86 176.358 435.48 176.844C436.29 175.71 436.992 174.468 437.478 173.064H431.97Z" fill="#594A39"/>
<path d="M527.226 178.464C528.738 179.652 528.954 181.38 527.658 182.73C526.308 184.08 524.688 183.972 523.5 182.568C521.286 180.03 519.882 176.304 519.018 172.254L517.884 172.578C518.64 174.63 519.072 176.898 519.072 179.22C519.072 187.86 513.24 189.912 506.436 185.862C505.626 185.43 505.464 184.674 505.734 183.864C506.004 183.108 506.652 182.838 507.624 183C512.268 183.972 513.726 183.594 513.888 179.058C510.432 181.164 505.734 183.108 501.252 183.81C500.28 183.972 499.686 183.648 499.47 182.784C499.2 181.974 499.578 181.218 500.55 180.894C506.004 179.274 510.324 176.952 513.51 174.09L513.294 173.064C510.486 175.062 506.814 176.79 503.358 177.708C502.332 177.978 501.738 177.546 501.414 176.736C500.28 180.57 498.606 183.594 496.284 186.24C495.528 187.104 494.556 187.212 493.8 186.618C493.098 186.024 492.99 185.268 493.422 184.458C496.122 179.328 497.04 172.902 497.04 159.888V147.522C497.04 145.632 498.174 144.552 500.172 144.552C501.738 144.552 502.764 145.092 503.088 146.226H508.704V140.016C508.704 137.964 509.838 137.1 511.836 137.1C513.888 137.1 514.968 137.964 514.968 139.908V140.88H523.446C524.58 140.88 525.228 141.528 525.228 142.608C525.228 143.742 524.58 144.39 523.446 144.39H514.968V146.226H524.526C527.172 146.226 528.252 148.332 526.902 150.384C525.822 152.058 524.85 153.138 524.04 153.84C523.338 154.326 522.636 154.38 521.988 153.894C521.394 153.408 521.232 152.868 521.556 152.22C521.826 151.68 522.096 151.14 522.258 150.654C522.42 150.114 522.204 149.844 521.772 149.844H512.754V151.68C514.698 151.464 516.696 151.194 518.91 150.924C519.936 150.816 520.638 151.194 520.8 152.274C520.962 153.3 520.476 154.002 519.342 154.11C517.182 154.434 514.968 154.704 512.808 154.974C512.97 156.054 513.726 156.378 516.102 156.378C518.262 156.378 520.422 156.108 522.096 155.514C523.284 155.136 524.148 155.298 524.634 156.54C525.174 157.836 524.85 158.862 523.608 159.402C521.934 160.104 519.99 160.266 514.968 160.266C508.866 160.266 507.624 159.294 507.57 155.622C506.328 155.784 505.14 155.946 503.952 156.054H503.25V161.562C503.52 161.4 503.898 161.292 504.33 161.292H525.498C526.578 161.292 527.226 161.886 527.226 162.966C527.226 164.046 526.578 164.586 525.498 164.586H516.642C515.94 165.234 515.13 165.936 514.212 166.638C515.184 167.664 515.994 168.798 516.696 170.094C518.208 169.068 519.612 167.88 521.07 166.26C522.096 165.126 523.662 164.964 524.796 166.206C525.984 167.556 525.714 168.906 524.148 169.878C523.338 170.418 522.42 170.904 521.502 171.282C522.906 174.144 525.012 176.682 527.226 178.464ZM495.15 148.71C496.338 148.71 497.04 149.412 497.04 150.6C497.04 151.788 496.338 152.49 495.15 152.49H492.504V160.806C493.206 160.536 493.908 160.266 494.61 159.942C495.528 159.564 496.23 159.726 496.716 160.536C497.148 161.346 496.986 162.102 496.23 162.696C495.15 163.614 493.854 164.586 492.504 165.45V182.136C492.504 187.59 487.536 189.048 481.488 186.186C480.57 185.754 480.3 184.998 480.516 184.08C480.732 183.162 481.326 182.838 482.46 182.946C485.538 183.378 486.186 182.946 486.186 181.218V169.014C485.646 169.23 485.106 169.5 484.566 169.716C482.622 170.58 481.218 169.986 480.57 167.88C479.868 165.882 480.624 164.478 482.622 163.992L486.186 163.02V152.49H483C481.758 152.49 481.11 151.788 481.11 150.6C481.11 149.412 481.758 148.71 483 148.71H486.186V140.34C486.186 138.342 487.32 137.37 489.318 137.37C491.37 137.37 492.504 138.234 492.504 140.286V148.71H495.15ZM507.57 152.274V149.844H503.25V152.76C503.358 152.76 503.466 152.706 503.628 152.706C504.924 152.598 506.22 152.436 507.57 152.274ZM504.33 164.586C503.844 164.586 503.466 164.478 503.142 164.316C503.088 166.044 502.98 167.664 502.818 169.176C502.98 168.96 503.25 168.744 503.574 168.636C505.95 167.556 508.38 166.152 510.054 164.586H504.33ZM502.332 174.684C506.382 173.118 509.298 171.606 511.89 169.122C511.782 168.852 511.674 168.636 511.512 168.366C509.406 169.608 506.976 170.742 504.492 171.39C503.52 171.66 502.98 171.282 502.656 170.472C502.494 172.092 502.224 173.55 501.9 174.954C502.008 174.846 502.17 174.738 502.332 174.684Z" fill="#594A39"/>
<path opacity="0.2" d="M348.26 411.301C348.26 411.301 395.133 382.773 446.433 387.629C447.829 387.765 449.237 387.534 450.516 386.959C451.795 386.385 452.902 385.485 453.729 384.351C454.555 383.217 455.07 381.89 455.227 380.495C455.383 379.1 455.175 377.688 454.62 376.399C444.008 351.027 407.746 297.49 291.684 296.336" fill="#7DBE37"/>
<path opacity="0.2" d="M157.796 468.601C126.28 481.507 97.4792 500.248 72.902 523.839C71.9236 524.836 70.7008 525.562 69.3579 525.946C68.015 526.33 66.5962 526.357 65.2393 526.026C63.8824 525.696 62.635 525.019 61.6182 524.061C60.6013 523.103 59.8504 521.897 59.439 520.561C51.2528 494.217 44.5211 429.512 132.871 354.366" fill="#7DBE37"/>
<path d="M315.092 269.203C315.092 269.203 377.124 259.675 418.601 217.671C419.731 216.544 421.134 215.728 422.672 215.303C424.209 214.877 425.828 214.856 427.377 215.24C428.925 215.625 430.349 216.403 431.51 217.499C432.67 218.594 433.529 219.969 434.003 221.494C443.341 251.844 451.042 325.472 349.897 411.726" fill="#5E9A33"/>
<path d="M361.569 505.445C372.165 499.014 374.112 482.833 365.917 469.303C357.721 455.773 342.486 450.017 331.891 456.448C321.295 462.879 319.352 479.061 327.547 492.592C335.743 506.122 350.974 511.876 361.569 505.445Z" fill="#FEFAE9"/>
<path d="M258.246 544.437C270.492 542.55 278.47 528.344 276.065 512.705C273.661 497.066 261.785 485.917 249.538 487.804C237.291 489.69 229.311 503.899 231.716 519.538C234.12 535.177 245.999 546.324 258.246 544.437Z" fill="#FEFAE9"/>
<path d="M184.963 177.851C184.963 177.851 198.848 206.015 258.395 210.749C274.963 212.046 290.86 217.861 304.359 227.563C346.261 257.913 421.937 329.418 389.253 434.671C389.253 434.671 369.484 485.232 304.783 508.602C304.783 508.602 244.995 535.615 192.3 509.028C143.789 484.749 93.3965 398.372 125.171 289.78C129.767 274.108 138.779 260.095 151.126 249.416C167.195 235.273 190.481 211.357 184.963 177.851Z" fill="#FEFAE9"/>
<path d="M115.711 340.951C117 323.611 120.131 306.457 125.049 289.78C129.646 274.108 138.658 260.095 151.004 249.416C167.195 235.273 190.481 211.357 184.963 177.851C184.963 177.851 198.848 206.015 258.395 210.749C274.963 212.046 290.86 217.861 304.359 227.563C317.473 237.054 329.766 247.633 341.107 259.188C335.043 275.576 311.212 331.48 248.876 354.182C248.876 354.182 190.781 376.825 115.711 340.951Z" fill="#7DBE37"/>
<path d="M340.8 258.886C354.369 276.186 364.646 295.834 371.119 316.853C378.396 343.925 361.478 379.919 333.099 390.238C220.614 431.21 115.709 341.678 115.709 341.678C115.709 341.678 114.375 323.468 146.028 311.328C177.682 299.188 300.417 255.122 300.417 255.122C300.417 255.122 330.916 245.471 340.8 258.886Z" fill="#F2E865"/>
<path d="M289.623 284.075C310.755 284.075 327.886 266.927 327.886 245.773C327.886 224.62 310.755 207.472 289.623 207.472C268.491 207.472 251.36 224.62 251.36 245.773C251.36 266.927 268.491 284.075 289.623 284.075Z" fill="white"/>
<path d="M192.419 319.523C213.551 319.523 230.682 302.375 230.682 281.222C230.682 260.069 213.551 242.92 192.419 242.92C171.287 242.92 154.156 260.069 154.156 281.222C154.156 302.375 171.287 319.523 192.419 319.523Z" fill="white"/>
<path d="M330.253 260.524H329.948C329.52 260.486 329.105 260.361 328.725 260.159C328.345 259.957 328.008 259.681 327.736 259.347C327.465 259.013 327.264 258.628 327.144 258.215C327.024 257.801 326.987 257.368 327.038 256.94L328.311 243.831C328.466 243.033 328.913 242.321 329.563 241.834C330.213 241.346 331.023 241.118 331.831 241.193C332.64 241.269 333.39 241.643 333.939 242.243C334.488 242.842 334.796 243.623 334.801 244.436L333.466 257.61C333.404 258.415 333.036 259.164 332.438 259.706C331.84 260.248 331.059 260.542 330.253 260.524Z" fill="#E27E7C"/>
<path d="M340.501 260.645H340.196C339.337 260.553 338.55 260.124 338.005 259.453C337.46 258.782 337.2 257.922 337.285 257.061L338.621 243.952C338.658 243.523 338.78 243.105 338.982 242.725C339.183 242.345 339.46 242.01 339.793 241.738C340.127 241.466 340.511 241.263 340.924 241.142C341.337 241.022 341.77 240.988 342.197 241.039C342.624 241.076 343.04 241.198 343.417 241.4C343.794 241.603 344.125 241.88 344.391 242.215C344.658 242.55 344.853 242.937 344.966 243.35C345.079 243.764 345.108 244.195 345.049 244.619L343.776 257.731C343.699 258.541 343.317 259.292 342.71 259.832C342.102 260.373 341.314 260.663 340.501 260.645Z" fill="#E27E7C"/>
<path d="M149.004 322.378C148.575 322.34 148.158 322.215 147.778 322.013C147.398 321.811 147.063 321.538 146.792 321.204C146.521 320.87 146.32 320.482 146.2 320.069C146.08 319.655 146.043 319.222 146.093 318.794L147.366 305.685C147.458 304.825 147.886 304.035 148.557 303.489C149.227 302.943 150.083 302.687 150.943 302.772C151.372 302.809 151.789 302.932 152.169 303.133C152.549 303.335 152.883 303.612 153.155 303.946C153.426 304.279 153.63 304.664 153.75 305.078C153.87 305.491 153.904 305.925 153.854 306.352L152.521 319.464C152.483 319.887 152.361 320.298 152.163 320.673C151.965 321.049 151.696 321.384 151.369 321.655C151.042 321.925 150.665 322.129 150.259 322.253C149.853 322.377 149.426 322.419 149.004 322.378Z" fill="#E27E7C"/>
<path d="M159.495 322.558C159.072 322.52 158.662 322.4 158.286 322.203C157.911 322.005 157.577 321.733 157.306 321.405C157.036 321.078 156.832 320.7 156.708 320.294C156.584 319.887 156.542 319.46 156.584 319.037L157.919 305.866C158.026 305.024 158.447 304.255 159.101 303.714C159.754 303.173 160.587 302.899 161.434 302.952C161.862 302.99 162.28 303.115 162.66 303.317C163.04 303.519 163.374 303.792 163.646 304.126C163.917 304.46 164.121 304.848 164.241 305.261C164.361 305.675 164.395 306.108 164.344 306.536L163.071 319.645C162.965 320.498 162.536 321.277 161.869 321.82C161.203 322.363 160.351 322.627 159.495 322.558Z" fill="#E27E7C"/>
<path d="M199.999 286.927C209.042 286.927 216.372 279.59 216.372 270.538C216.372 261.487 209.042 254.149 199.999 254.149C190.957 254.149 183.627 261.487 183.627 270.538C183.627 279.59 190.957 286.927 199.999 286.927Z" fill="#4A1E0E"/>
<path d="M289.441 254.393C298.483 254.393 305.813 247.055 305.813 238.004C305.813 228.952 298.483 221.615 289.441 221.615C280.399 221.615 273.068 228.952 273.068 238.004C273.068 247.055 280.399 254.393 289.441 254.393Z" fill="#4A1E0E"/>
<path d="M373.728 509.03C372.92 509.037 372.117 508.891 371.362 508.603C369.643 507.973 368.242 506.687 367.469 505.025C366.696 503.364 366.616 501.464 367.241 499.741L383.067 456.768C383.377 455.916 383.853 455.135 384.467 454.468C385.082 453.802 385.823 453.264 386.646 452.885C387.47 452.507 388.359 452.295 389.264 452.263C390.169 452.231 391.072 452.379 391.92 452.699C393.629 453.341 395.019 454.631 395.79 456.288C396.561 457.945 396.653 459.837 396.044 461.561L380.215 504.536C379.721 505.858 378.835 506.997 377.675 507.8C376.515 508.603 375.138 509.033 373.728 509.03Z" fill="#695D41"/>
<path d="M363.847 513.277C362.162 513.275 360.534 512.658 359.272 511.54C358.011 510.422 357.2 508.881 356.993 507.207L351.841 473.884C351.562 472.074 352.01 470.224 353.09 468.745C354.17 467.266 355.791 466.276 357.6 465.992C358.497 465.837 359.419 465.864 360.306 466.072C361.193 466.28 362.028 466.666 362.763 467.204C363.499 467.742 364.117 468.422 364.584 469.205C365.052 469.987 365.359 470.856 365.484 471.759L370.636 505.085C370.915 506.896 370.467 508.742 369.387 510.221C368.307 511.701 366.686 512.691 364.877 512.975L363.847 513.277Z" fill="#695D41"/>
<path d="M261.242 550H260.395C259.487 549.903 258.607 549.625 257.808 549.182C257.009 548.74 256.306 548.14 255.741 547.422C255.176 546.704 254.76 545.882 254.518 545C254.276 544.119 254.213 543.198 254.332 542.291L259.122 503.323C259.238 502.418 259.528 501.545 259.981 500.753C260.433 499.961 261.037 499.266 261.757 498.708C262.478 498.15 263.303 497.738 264.182 497.499C265.062 497.259 265.979 497.196 266.883 497.312C267.786 497.428 268.659 497.722 269.45 498.175C270.241 498.628 270.935 499.231 271.493 499.953C272.05 500.674 272.459 501.497 272.698 502.377C272.937 503.257 273.003 504.179 272.887 505.083L268.034 543.99C267.828 545.648 267.026 547.175 265.775 548.281C264.525 549.388 262.911 549.999 261.242 550Z" fill="#695D41"/>
<path d="M271.551 546.903C270.28 546.943 269.03 546.583 267.975 545.872C266.41 544.927 265.282 543.402 264.839 541.627C264.396 539.853 264.673 537.973 265.609 536.402L292.716 491.364C293.66 489.798 295.183 488.671 296.956 488.228C298.728 487.784 300.603 488.058 302.173 488.995C303.741 489.952 304.871 491.491 305.314 493.275C305.757 495.059 305.477 496.947 304.538 498.527L277.435 543.566C276.822 544.58 275.957 545.421 274.927 546.005C273.897 546.59 272.735 546.897 271.551 546.903Z" fill="#695D41"/>
<path d="M272.582 267.806L257.544 206.742C257.34 205.98 256.893 205.308 256.268 204.827C255.643 204.347 254.876 204.086 254.088 204.086C253.3 204.086 252.534 204.347 251.909 204.827C251.284 205.308 250.833 205.98 250.63 206.742L232.439 276.185C232.001 277.826 232.089 279.56 232.687 281.15C233.285 282.739 234.365 284.103 235.775 285.047L292.716 322.558C293.374 323.02 294.166 323.248 294.969 323.204C295.772 323.159 296.537 322.845 297.139 322.312C297.742 321.778 298.148 321.059 298.291 320.266C298.434 319.474 298.308 318.656 297.93 317.946L272.703 267.928L272.582 267.806Z" fill="#695D41"/>
<path d="M232.379 276.123L250.571 206.683C250.729 206.001 251.092 205.384 251.613 204.916C252.134 204.449 252.787 204.154 253.481 204.072C253.028 204.567 252.789 205.223 252.815 205.895L248.51 270.234C248.445 271.859 248.704 273.483 249.277 275.006C249.85 276.528 250.723 277.921 251.844 279.099L294.836 321.589C295.038 321.833 295.289 322.032 295.57 322.178C295.851 322.324 296.157 322.412 296.473 322.436C295.901 322.825 295.226 323.035 294.534 323.035C293.842 323.035 293.167 322.825 292.594 322.436L235.654 284.926C234.266 283.978 233.206 282.622 232.619 281.046C232.033 279.47 231.949 277.749 232.379 276.123Z" fill="#84765B"/>
<path d="M10.2615 366.385C59.1967 370.998 104.615 349.084 118.38 341.679C121.555 339.918 125.24 339.319 128.809 339.98C136.972 341.244 144.598 344.844 150.763 350.348C156.929 355.852 161.37 363.022 163.554 370.997C171.559 398.373 171.255 443.837 163.554 462.776C162.741 464.813 161.292 466.536 159.424 467.684C157.556 468.832 155.369 469.344 153.185 469.148C47.068 458.89 11.8362 405.659 0.739332 379.254C0.106959 377.765 -0.125595 376.137 0.0642548 374.53C0.254105 372.923 0.861069 371.393 1.82301 370.093C2.78495 368.793 4.07073 367.765 5.55073 367.114C7.03074 366.464 8.65422 366.214 10.2615 366.385Z" fill="#5E9A33"/>
</svg>
