<svg width="886" height="160" viewBox="0 0 886 160" fill="none" xmlns="http://www.w3.org/2000/svg">
<rect width="885.899" height="160" transform="translate(0.0507812)" fill="#FDFDFB"/>
<path d="M108.607 21.7227L81.0207 28.6192C69.2161 31.2404 57.8371 35.5146 47.2249 41.3112C40.3795 44.968 34.4465 50.1183 29.8623 56.3805C25.278 62.6427 22.1606 69.8541 20.7432 77.4844C19.3257 85.1147 19.6432 92.9664 21.6726 100.457C23.702 107.948 27.3933 114.888 32.4687 120.76C32.4687 120.76 69.8439 148.345 104.189 105.724C113.938 94.0968 119.644 79.615 120.44 64.4624C121.236 49.3098 117.084 34.3074 108.607 21.7227Z" fill="#B8C318"/>
<path d="M32.3251 138.002C32.8561 137.833 33.347 137.546 33.7529 137.164C34.1587 136.782 34.468 136.313 34.6688 135.793C43.9076 108.945 58.6622 84.3258 77.9811 63.5177C78.7116 62.8824 79.2065 62.0183 79.3819 61.0662C79.5573 60.114 79.4004 59.1318 78.9441 58.2779C78.6859 57.8783 78.3486 57.5402 77.9474 57.2845C77.5462 57.0288 77.0918 56.8617 76.6206 56.7962C76.1494 56.7308 75.6687 56.7673 75.213 56.904C74.7573 57.0407 74.3379 57.2735 73.9805 57.5876C52.2265 78.0229 34.7027 102.533 22.3978 129.725C21.5702 131.518 28.0503 137.175 29.9813 137.864C30.3379 138.059 30.7344 138.171 31.1397 138.194C31.545 138.218 31.9482 138.153 32.3251 138.002Z" fill="#DADD8D"/>
<path d="M232.67 23.3598C237.95 23.3598 240.83 25.7598 240.83 30.3198V75.0798C240.83 105.2 233.15 125.84 210.47 136.4C208.07 137.48 205.91 136.64 204.83 134.6C203.63 132.44 204.11 130.64 206.15 128.96C216.47 119.48 221.39 110.6 223.43 95.9598C221.63 97.6398 219.71 99.0798 217.67 100.64C213.47 103.64 209.39 101.48 207.35 97.0398C205.43 92.8398 206.63 89.4798 211.19 87.0798C216.11 84.5598 220.43 82.2798 224.51 79.8798V68.4798H224.39C219.59 70.6398 215.87 68.3598 214.43 62.7198L212.27 54.6798C211.91 57.1998 210.35 58.6398 207.47 58.6398H202.79V62.8398C206.99 65.8398 210.95 69.0798 214.31 72.7998C217.31 76.0398 217.31 79.7598 213.83 82.7598C210.71 85.3998 206.39 85.8798 204.11 81.4398L202.79 78.9198V128.84C202.79 133.64 199.67 136.52 194.15 136.52C188.63 136.52 185.51 133.64 185.51 128.84V91.8798C182.99 96.9198 180.11 101.96 177.11 105.8C175.43 107.96 173.39 108.32 171.71 107C169.91 105.56 169.55 103.76 170.75 101.48C176.63 90.1998 182.27 74.3598 184.43 58.6398H175.67C172.31 58.6398 170.63 56.8398 170.63 53.5998C170.63 50.3598 172.31 48.5598 175.67 48.5598H185.51V30.9198C185.51 26.1198 188.63 23.4798 194.15 23.4798C199.67 23.4798 202.79 26.1198 202.79 30.9198V48.5598H207.47C208.91 48.5598 210.11 48.9198 210.83 49.5198C210.35 47.7198 209.87 45.9198 209.39 44.4798C208.67 41.9598 209.15 40.3998 211.19 39.1998C213.11 38.1198 215.15 38.4798 216.71 40.2798C219.11 42.9198 221.99 47.2398 224.51 51.7998V30.3198C224.51 25.7598 227.39 23.3598 232.67 23.3598ZM278.27 104.84C282.11 125.84 279.11 131.6 271.43 132.2C266.27 132.56 260.03 132.56 255.47 132.08C246.71 131.12 244.31 129.32 244.31 119V30.3198C244.31 25.7598 247.19 23.3598 252.47 23.3598C257.75 23.3598 260.63 25.7598 260.63 30.3198V49.8798L263.99 44.1198C266.87 38.9598 271.55 38.2398 275.87 41.7198C280.43 45.3198 280.19 49.6398 276.11 54.0798C271.91 58.5198 266.51 62.3598 260.63 65.4798V74.4798C265.19 76.2798 270.47 78.6798 274.91 82.0398C279.47 85.3998 280.67 89.3598 276.95 94.1598C273.83 98.2398 268.79 98.2398 265.07 93.4398C263.51 91.3998 262.07 89.5998 260.63 87.9198V114.32C260.63 116.48 260.87 116.96 262.67 117.08C264.83 117.2 266.03 117.2 268.07 117.08C269.75 116.96 270.23 116.36 270.23 104.84C270.23 102.44 271.55 101.12 273.95 101.12C276.23 101.12 277.79 102.44 278.27 104.84Z" fill="#594A39"/>
<path d="M402.35 26.8398C407.39 26.8398 410.15 29.5998 410.15 34.6398V130.88C410.15 135.2 407.03 137.72 401.51 137.72C395.99 137.72 392.87 135.2 392.87 130.88V130.4H330.11V130.88C330.11 135.2 326.99 137.72 321.47 137.72C315.95 137.72 312.83 135.2 312.83 130.88V34.6398C312.83 29.5998 315.59 26.8398 320.63 26.8398H402.35ZM330.11 120.8H392.87V37.8798C392.87 37.0398 392.27 36.4398 391.43 36.4398H331.55C330.71 36.4398 330.11 37.0398 330.11 37.8798V120.8ZM337.19 65.2398C334.31 65.2398 332.75 63.5598 332.75 60.9198C332.75 58.1598 334.31 56.5998 337.19 56.5998H352.43V53.1198H339.95C337.19 53.1198 335.63 51.6798 335.63 48.7998C335.63 45.9198 337.19 44.4798 339.95 44.4798H352.43C352.43 39.4398 355.67 37.5198 361.43 37.5198C367.31 37.5198 370.43 39.4398 370.43 44.4798H383.15C385.91 44.4798 387.47 45.9198 387.47 48.7998C387.47 51.6798 385.91 53.1198 383.15 53.1198H370.43V56.5998H385.91C388.79 56.5998 390.35 58.1598 390.35 60.9198C390.35 63.6798 388.79 65.2398 385.91 65.2398H337.19ZM390.11 89.3598C392.63 91.5198 392.87 94.3998 390.11 97.0398C388.67 98.4798 386.51 99.9198 384.35 101.24C385.91 102.32 387.47 103.52 388.91 104.84C392.63 108.08 393.11 111.56 389.99 114.92C386.75 118.52 382.79 118.28 379.79 114.56C375.59 109.28 370.31 103.76 364.07 97.9998C362.15 96.1998 362.03 94.2798 363.35 92.5998C364.67 90.9198 366.23 90.9198 368.39 91.8798C371.03 93.0798 374.03 94.6398 377.15 96.4398C378.71 94.6398 380.03 92.7198 381.23 90.7998L382.19 89.4798C381.83 89.5998 381.47 89.5998 380.99 89.5998H364.79C363.23 90.7998 361.55 92.1198 359.63 93.1998V104.24L365.03 103.16C367.43 102.68 369.11 103.4 369.83 105.44C370.67 107.84 369.47 109.28 367.55 110.24C360.23 114.08 350.75 117.92 341.39 119.24C337.07 119.84 334.43 118.28 333.83 114.08C333.23 110.12 335.03 107.48 339.71 107L343.07 106.64V101.12C340.67 101.96 338.27 102.8 335.99 103.4C333.35 104.12 331.07 103.04 330.47 100.88C329.87 98.7198 330.35 96.5598 332.87 95.4798C337.55 93.4398 341.27 91.6398 344.51 89.5998H341.99C337.31 89.5998 334.79 87.0798 334.79 82.3998V75.9198C334.79 71.2398 337.31 68.7198 341.99 68.7198H380.99C385.67 68.7198 388.19 71.2398 388.19 75.9198V82.3998C388.19 84.6798 387.59 86.4798 386.39 87.7998C387.59 87.7998 388.91 88.3998 390.11 89.3598ZM372.83 79.6398V78.6798C372.83 77.8398 372.35 77.3598 371.51 77.3598H351.11C350.27 77.3598 349.79 77.8398 349.79 78.6798V79.6398C349.79 80.4798 350.27 80.9598 351.11 80.9598H371.51C372.35 80.9598 372.83 80.4798 372.83 79.6398Z" fill="#594A39"/>
<path d="M483.71 52.5198H449.51C446.27 52.5198 444.35 50.5998 444.35 47.2398C444.35 43.8798 446.27 42.1998 449.51 42.1998H458.75V32.1198C458.75 27.6798 461.75 24.6798 467.27 24.6798C472.67 24.6798 475.79 27.6798 475.79 32.1198V42.1998H483.71C487.07 42.1998 488.99 43.8798 488.99 47.2398C488.99 50.5998 487.07 52.5198 483.71 52.5198ZM491.51 55.5198C489.47 53.8398 489.11 51.7998 490.19 49.7598C491.27 47.7198 493.07 46.8798 495.59 47.7198C498.83 48.5598 502.19 49.8798 505.31 51.4398C506.03 47.8398 506.39 43.9998 506.63 40.0398H494.99C491.87 40.0398 490.19 38.3598 490.19 35.2398C490.19 32.1198 491.87 30.4398 494.99 30.4398H539.51C544.55 30.4398 547.31 33.3198 547.19 38.4798C546.83 50.8398 545.87 62.4798 544.91 69.4398C543.23 80.7198 533.27 85.0398 517.91 77.3598C515.15 76.0398 514.31 73.9998 515.15 71.3598C515.87 69.1998 517.55 68.1198 520.43 68.5998C527.87 69.9198 528.35 69.0798 528.83 65.3598C529.79 57.4398 530.27 48.5598 530.51 41.4798C530.51 40.5198 529.91 40.0398 529.07 40.0398H522.83C521.39 62.2398 511.79 77.7198 493.91 85.7598C491.51 86.8398 488.87 86.3598 487.79 84.3198C486.71 82.2798 486.83 80.2398 488.99 78.6798C494.75 74.5998 498.83 69.4398 501.59 63.3198C498.47 60.5598 494.99 57.9198 491.51 55.5198ZM480.47 59.1198C483.71 59.1198 485.51 60.9198 485.51 64.1598C485.51 67.3998 483.71 69.1998 480.47 69.1998H453.11C449.87 69.1998 448.07 67.3998 448.07 64.1598C448.07 60.9198 449.87 59.1198 453.11 59.1198H480.47ZM480.47 74.7198C483.71 74.7198 485.51 76.5198 485.51 79.7598C485.51 82.9998 483.71 84.7998 480.47 84.7998H453.11C449.87 84.7998 448.07 82.9998 448.07 79.7598C448.07 76.5198 449.87 74.7198 453.11 74.7198H480.47ZM529.55 86.4798C533.63 89.4798 534.59 93.0798 531.23 96.9198C528.11 100.52 524.03 100.28 520.67 96.3198C517.43 92.4798 513.59 88.6398 510.23 85.3998C508.31 83.4798 508.07 81.5598 509.27 79.7598C510.59 77.8398 512.39 77.1198 514.91 78.1998C519.83 80.2398 524.87 82.9998 529.55 86.4798ZM533.39 105.56C535.79 105.56 537.23 106.76 537.83 109.16C542.15 127.76 538.07 132.44 528.95 133.4C522.95 134 518.15 134.12 511.43 133.52C503.51 132.8 501.11 128.72 501.11 121.88V97.3998C501.11 93.3198 503.87 91.0398 508.67 91.0398C513.47 91.0398 516.11 93.3198 516.11 97.3998V115.28C516.11 118.64 516.71 119.24 518.75 119.48C521.03 119.72 523.07 119.72 525.83 119.48C528.59 119.12 528.83 117.68 529.19 109.52C529.31 106.64 531.11 105.56 533.39 105.56ZM553.91 112.76C555.35 116.96 554.27 120.2 550.07 121.76C546.11 123.2 542.51 121.52 541.67 116.84C540.47 110.48 538.55 104 536.51 97.3998C535.79 94.9998 536.75 93.1998 538.79 92.2398C540.71 91.3998 542.51 91.8798 544.07 93.7998C548.15 98.7198 551.63 106.16 553.91 112.76ZM495.59 94.2798C497.99 94.7598 499.19 95.9598 499.07 99.3198C498.83 106.88 497.87 114.44 495.35 121.04C493.67 125.36 489.83 126.32 486.23 124.64L485.51 124.28V128.24C485.51 132.68 482.75 135.2 477.83 135.2C472.91 135.2 470.15 132.68 470.15 128.24V126.2H463.43V128.72C463.43 133.16 460.67 135.68 455.75 135.68C450.83 135.68 448.07 133.16 448.07 128.72V99.6798C448.07 94.6398 450.83 91.8798 455.87 91.8798H477.71C482.75 91.8798 485.51 94.6398 485.51 99.6798V111.2C487.43 107 489.11 102.56 490.31 97.7598C491.15 94.3998 493.19 93.7998 495.59 94.2798ZM463.43 116.36H470.15V103.16C470.15 102.32 469.55 101.72 468.71 101.72H464.87C464.03 101.72 463.43 102.32 463.43 103.16V116.36Z" fill="#594A39"/>
<path d="M596.63 136.52C590.87 136.52 587.87 134.24 587.87 128.48V36.6798C587.87 31.6398 590.63 28.8798 595.67 28.8798H674.63C679.67 28.8798 682.43 31.6398 682.43 36.6798V121.4C682.43 137 665.51 139.64 643.19 131C640.55 129.92 639.71 128 640.31 125.48C640.91 122.96 642.59 122 645.71 122.24C664.07 123.44 664.43 122.24 664.43 115.28V40.8798C664.43 40.0398 663.83 39.4398 662.99 39.4398H607.31C606.47 39.4398 605.87 40.0398 605.87 40.8798V128.48C605.87 134.24 602.39 136.52 596.63 136.52ZM613.67 59.2398C610.43 59.2398 608.51 57.3198 608.51 54.0798C608.51 50.8398 610.43 49.1598 613.67 49.1598H656.63C659.87 49.1598 661.79 50.8398 661.79 54.0798C661.79 57.3198 659.87 59.2398 656.63 59.2398H613.67ZM619.43 108.08C614.39 108.08 611.63 105.32 611.63 100.28V75.9198C611.63 70.8798 614.39 68.1198 619.43 68.1198H650.87C655.91 68.1198 658.67 70.8798 658.67 75.9198V100.28C658.67 105.32 655.91 108.08 650.87 108.08H619.43ZM629.39 98.4798H640.91C641.75 98.4798 642.35 97.8798 642.35 97.0398V79.1598C642.35 78.3198 641.75 77.7198 640.91 77.7198H629.39C628.55 77.7198 627.95 78.3198 627.95 79.1598V97.0398C627.95 97.8798 628.55 98.4798 629.39 98.4798Z" fill="#594A39"/>
<path d="M820.19 64.2798C823.91 64.2798 825.95 66.4398 825.95 70.2798C825.95 74.1198 823.91 76.2798 820.19 76.2798H778.07V81.9198C788.27 85.3998 800.03 90.3198 810.35 96.4398C816.11 99.9198 817.67 106.28 813.71 111.32C809.99 116.12 804.59 117.44 799.55 112.64C792.95 106.28 785.27 99.5598 778.07 93.9198V127.64C778.07 133.04 774.47 136.64 767.87 136.64C761.27 136.64 757.67 133.04 757.67 127.64V76.2798H723.59C719.87 76.2798 717.83 74.1198 717.83 70.2798C717.83 66.4398 719.87 64.2798 723.59 64.2798H757.67V31.2798C757.67 25.8798 761.27 22.2798 767.87 22.2798C774.47 22.2798 778.07 25.8798 778.07 31.2798V40.0398H810.35C813.95 40.0398 815.87 42.1998 815.87 45.7998C815.87 49.3998 813.83 51.5598 810.35 51.5598H778.07V64.2798H820.19Z" fill="#594A39"/>
</svg>
