<svg width="1150" height="129" viewBox="0 0 1150 129" fill="none" xmlns="http://www.w3.org/2000/svg">
<rect x="0.5" width="1149" height="129" rx="64.5" fill="#F9F8F3"/>
<path d="M94.9 77.2H83.14C85.66 78.52 88.42 79.9 91.12 81.4C92.56 80.14 93.82 78.76 94.9 77.2ZM99.16 72.28L103.06 73.66C101.56 78.04 99.34 81.52 96.46 84.34C99.16 85.84 101.62 87.34 103.42 88.54L99.82 93.28C97.78 91.84 94.9 89.98 91.66 88.06C87.88 90.4 83.26 92.08 78.28 93.22C77.68 91.66 76.42 89.38 75.28 88.06C79.18 87.4 82.84 86.26 85.96 84.7C83.02 83.08 80.2 81.46 77.62 80.08L80.02 77.2H78.58V72.46H98.08L99.16 72.28ZM102.28 43.48L107.44 47.14C105.16 49.18 102.58 51.1 100.36 52.66C103 54.04 105.88 55.18 108.94 56.02C107.44 57.4 105.64 59.92 104.68 61.66C102.22 60.88 100 59.92 97.84 58.78V63.94C97.84 65.38 97.96 65.86 98.74 65.86H101.68C102.52 65.86 103.96 65.8 104.74 65.56C104.86 67 104.98 69.04 105.22 70.42C104.38 70.72 103 70.78 101.74 70.78H98.02C92.98 70.78 92.02 68.74 92.02 63.88V60.4H86.5C86.32 64.6 84.88 69.1 79.9 72.28C79.24 71.26 77.5 69.52 76.3 68.44V70.24H64.42C64.18 71.62 64 73.06 63.82 74.38H76.3C76.3 74.38 76.24 76.06 76.18 76.9C75.52 85 74.8 88.84 73.24 90.4C71.98 91.78 70.54 92.26 68.44 92.38C66.82 92.56 63.7 92.56 60.52 92.44C60.4 90.58 59.56 88.12 58.48 86.5C61.48 86.74 64.42 86.8 65.74 86.8C66.7 86.8 67.36 86.74 67.9 86.2C68.62 85.54 69.16 83.62 69.58 79.54H56.98C57.82 75.64 58.78 69.7 59.32 64.96H69.94V60.76H61.24V59.8C59.44 60.7 57.64 61.48 55.78 62.14C54.94 60.58 53.2 58.18 51.94 56.92C55.48 55.9 58.9 54.28 62.02 52.3C60.4 51.1 58.24 49.72 56.44 48.7L60.52 44.92C62.56 45.94 65.08 47.38 66.82 48.7C68.08 47.5 69.28 46.24 70.3 44.86H58.48V39.28H74.14L75.34 38.98L79.72 41.14C77.32 47.02 73.3 51.7 68.44 55.36H76.3V67.3C80.02 64.84 80.56 61.96 80.56 59.26V55H92.02C86.8 50.86 82.78 45.52 79.9 39.1L85.6 37.42C86.5 39.46 87.64 41.38 89.02 43.06C91 41.38 93.22 39.22 94.66 37.54L99.76 41.2C97.3 43.24 94.72 45.4 92.44 47.02C93.46 47.98 94.54 48.88 95.62 49.72C97.9 47.92 100.66 45.4 102.28 43.48ZM171.28 40.6V47.38H142.12V40.6H171.28ZM130.6 37.18L137.5 40C133.18 45.64 126.7 51.82 121 55.78C120.1 54.22 118.3 51.34 117.04 49.96C122.02 46.78 127.72 41.38 130.6 37.18ZM132.88 50.14L139.72 52.78C137.92 55.84 135.7 58.96 133.3 61.96V93.28H126.16V69.82C124.48 71.44 122.86 72.94 121.24 74.26C120.22 72.82 117.82 69.58 116.38 68.08C122.5 63.88 129.04 56.92 132.88 50.14ZM172.78 57.1V63.88H164.56V84.94C164.56 88.78 163.84 90.76 161.2 91.84C158.68 92.92 154.84 93.04 149.5 93.04C149.2 90.94 148.3 87.88 147.34 85.78C150.76 85.96 154.72 85.96 155.8 85.9C156.88 85.9 157.3 85.66 157.3 84.76V63.88H139.6V57.1H172.78ZM199.3 73.6H209.68V64.48H199.3V73.6ZM237.58 73.6V80.44H217.06V93.28H209.68V80.44H182.68V73.6H192.16V57.82H209.68V50.68H196.84C194.38 54.94 191.5 58.78 188.68 61.6C187.3 60.4 184.24 58 182.5 56.98C187.9 52.42 192.52 44.74 195.1 37L202.36 38.86C201.82 40.54 201.16 42.16 200.38 43.78H234.28V50.68H217.06V57.82H232.9V64.48H217.06V73.6H237.58ZM259.36 37.36L266.08 39.52C264.46 43.66 262.54 47.92 260.32 52V93.1H253.3V62.86C252.04 64.48 250.78 65.92 249.52 67.3C248.86 65.5 246.94 61.6 245.68 59.86C251.08 54.46 256.36 45.94 259.36 37.36ZM281.74 38.92H292.48C294.16 46.12 298.12 53.26 303.34 57.16C302.02 58.84 299.92 62.44 298.96 64.78C298.12 64 297.34 63.22 296.62 62.38C296.56 63.04 296.56 63.88 296.56 64.36C295.84 81.22 295.18 87.76 293.44 89.92C292.24 91.6 290.92 92.14 289.12 92.44C287.56 92.74 285.1 92.8 282.4 92.68C282.22 90.7 281.56 87.94 280.54 86.2C282.58 86.44 284.44 86.44 285.46 86.44C286.3 86.44 286.78 86.26 287.32 85.6C288.28 84.34 288.88 79.78 289.42 68.08H281.86C280.3 80.14 276.16 88 267.4 92.92C266.56 91.54 264.1 88.84 262.66 87.64C270.28 84.04 273.76 77.56 274.9 68.08H269.38V61.9C268.6 62.8 267.76 63.64 266.92 64.36C266.08 62.8 263.8 59.38 262.54 57.88C267.4 53.68 271.18 47.08 273.22 39.88L280.24 41.68C278.02 49.12 274.36 56.26 269.74 61.48H295.84C292.12 56.98 289.06 51.28 287.08 45.76H281.74V38.92Z" fill="#594A39"/>
<path d="M329.08 88V82.9C341.14 72.1 348.28 63.76 348.28 56.92C348.28 52.42 345.88 49.72 341.62 49.72C338.38 49.72 335.74 51.82 333.46 54.28L328.66 49.48C332.74 45.1 336.7 42.76 342.76 42.76C351.16 42.76 356.74 48.16 356.74 56.44C356.74 64.48 350.08 73.12 341.98 81.04C344.2 80.8 347.14 80.56 349.24 80.56H358.84V88H329.08ZM384.332 88.84C375.272 88.84 369.272 80.92 369.272 65.62C369.272 50.26 375.272 42.76 384.332 42.76C393.392 42.76 399.332 50.32 399.332 65.62C399.332 80.92 393.392 88.84 384.332 88.84ZM384.332 81.94C388.172 81.94 390.992 78.1 390.992 65.62C390.992 53.2 388.172 49.6 384.332 49.6C380.492 49.6 377.612 53.2 377.612 65.62C377.612 78.1 380.492 81.94 384.332 81.94ZM409.344 88V82.9C421.404 72.1 428.544 63.76 428.544 56.92C428.544 52.42 426.144 49.72 421.884 49.72C418.644 49.72 416.004 51.82 413.724 54.28L408.924 49.48C413.004 45.1 416.964 42.76 423.024 42.76C431.424 42.76 437.004 48.16 437.004 56.44C437.004 64.48 430.344 73.12 422.244 81.04C424.464 80.8 427.404 80.56 429.504 80.56H439.104V88H409.344ZM451.816 88V80.86H461.356V52.78H453.316V47.32C457.756 46.48 460.816 45.34 463.636 43.54H470.176V80.86H478.516V88H451.816Z" fill="#B8C318"/>
<path d="M611.42 38.98V52.12H580.82V38.98H587.18V46.36H592.76V37.24H599.06V46.36H604.7V38.98H611.42ZM572.06 79.72V64.66H567.74V79.72H572.06ZM577.34 85.96H567.74V90.4H561.86V71.74C561.08 72.88 560.24 74.02 559.4 75.04C559.16 73.12 557.9 68.62 556.94 66.52C560.66 61.6 563.12 54.22 564.68 46.3H558.26V39.82H578.66V46.3H571.28C570.44 50.44 569.42 54.52 568.04 58.42H577.34V85.96ZM594.56 74.74L589.82 77.86C589.1 76.24 587.72 73.78 586.28 71.44C585.92 78.7 584.66 87.4 580.88 93.34C579.74 92.26 576.92 90.46 575.42 89.8C579.68 82.96 580.1 73.42 580.1 66.64V54.88H612.86V60.82H586.4V66.64V67.78L589.1 66.16C590.9 68.92 593.36 72.58 594.56 74.74ZM605.9 77.38L602.24 74.56C604.7 80.32 608.54 85.24 613.88 87.82C612.44 88.96 610.64 91.24 609.68 92.86C605.24 90.22 601.76 86.02 599.18 80.92C597.38 86.14 594.02 90.22 588.2 93.22C587.48 91.6 585.68 89.14 584.18 88C594.26 83.26 595.22 74.98 595.64 63.1H601.82C601.7 66.16 601.52 69.1 601.22 71.74C601.52 72.64 601.82 73.54 602.18 74.38C604.1 72.1 606.68 68.38 608.06 65.8L613.34 69.58C610.52 72.28 608 75.4 605.9 77.38ZM636.98 46.54V54.76H664.46V46.54H636.98ZM654.44 75.52V85.12C657.32 85.6 660.5 85.78 663.74 85.78C666.32 85.84 675.2 85.78 678.5 85.72C677.54 87.34 676.4 90.64 676.04 92.62H663.32C651.26 92.62 641.96 90.46 635.72 81.28C633.74 85.9 631.16 90.04 627.5 93.04C626.42 91.6 623.96 89.26 622.46 88.18C628.94 83.08 631.58 73.3 632.42 65.14L639.86 65.98C639.5 68.32 639.02 70.72 638.42 73.12C640.34 77.86 643.4 80.86 647.06 82.78V61.54H629.84V39.7H672.08V61.54H654.44V68.92H674V75.52H654.44ZM695.72 45.34V53.44H702.5V45.34H695.72ZM709.1 78.46L709.76 84.4C702.14 86.38 694.04 88.36 687.86 89.86L686.54 83.38L689.36 82.84V63.52H694.88V81.64L697.4 81.1V59.38H689.84V39.4H708.74V59.38H703.34V65.86H708.92V71.56C710.54 67.9 711.56 63.4 712.22 58.96L718.16 60.04C716.96 67.06 714.86 74.02 712.04 78.46C710.96 77.5 708.32 75.88 706.94 75.16C707.6 74.26 708.2 73.12 708.74 71.92H703.34V79.72L709.1 78.46ZM744.02 75.7L738.02 78.22C737.6 74.26 736.04 68.56 734.12 63.52V85.54C734.12 88.9 733.58 90.82 731.54 91.9C729.56 93.04 726.68 93.22 722.6 93.22C722.42 91.3 721.64 88.36 720.74 86.38C723.14 86.5 725.66 86.5 726.44 86.5C727.22 86.44 727.52 86.2 727.52 85.48V53.32H724.7V62.8C724.7 73.18 723.08 84.76 711.68 93.22C710.6 91.72 708.44 89.86 706.76 88.6C717.26 81.04 718.64 71.08 718.64 62.8V53.32H710.18V46.54H724.04C723.38 44.2 722.12 41.14 720.98 38.74L727.46 36.94C729.02 39.64 730.7 43.36 731.24 45.7L728.6 46.54H742.88V53.32H734.12V59.98L738.38 58.24C741.08 63.76 743.3 70.9 744.02 75.7Z" fill="#594A39"/>
<path d="M786.06 88.84C779.04 88.84 774.36 86.08 771.06 82.78L775.14 77.14C777.66 79.6 780.78 81.64 784.92 81.64C789.54 81.64 792.78 78.94 792.78 74.08C792.78 69.28 789.78 66.58 785.28 66.58C782.64 66.58 781.2 67.24 778.62 68.92L774.6 66.34L775.8 44.74H799.56V52.12H783.42L782.58 61.54C784.38 60.76 785.88 60.34 787.92 60.34C795.36 60.34 801.6 64.54 801.6 73.78C801.6 83.32 794.28 88.84 786.06 88.84ZM827.332 88.84C818.212 88.84 812.272 80.86 812.272 66.16C812.272 51.52 818.212 43.9 827.332 43.9C836.452 43.9 842.332 51.58 842.332 66.16C842.332 80.86 836.452 88.84 827.332 88.84ZM827.332 81.94C831.172 81.94 833.992 78.22 833.992 66.16C833.992 54.16 831.172 50.8 827.332 50.8C823.492 50.8 820.612 54.16 820.612 66.16C820.612 78.22 823.492 81.94 827.332 81.94ZM867.464 88.84C858.344 88.84 852.404 80.86 852.404 66.16C852.404 51.52 858.344 43.9 867.464 43.9C876.584 43.9 882.464 51.58 882.464 66.16C882.464 80.86 876.584 88.84 867.464 88.84ZM867.464 81.94C871.304 81.94 874.124 78.22 874.124 66.16C874.124 54.16 871.304 50.8 867.464 50.8C863.624 50.8 860.744 54.16 860.744 66.16C860.744 78.22 863.624 81.94 867.464 81.94ZM906.456 102.58C898.536 102.58 892.416 99.88 892.416 93.94C892.416 91.12 894.156 88.72 897.216 86.98V86.68C895.476 85.54 894.156 83.8 894.156 81.04C894.156 78.52 895.896 76.18 897.936 74.74V74.5C895.596 72.82 893.436 69.64 893.436 65.68C893.436 57.82 899.856 53.56 906.996 53.56C908.856 53.56 910.656 53.92 912.036 54.4H924.156V60.88H918.456C919.296 62.02 919.956 63.88 919.956 65.98C919.956 73.54 914.196 77.38 906.996 77.38C905.676 77.38 904.116 77.08 902.676 76.6C901.776 77.38 901.236 78.1 901.236 79.48C901.236 81.28 902.556 82.24 906.516 82.24H912.216C920.316 82.24 924.756 84.76 924.756 90.64C924.756 97.42 917.676 102.58 906.456 102.58ZM906.996 71.92C909.936 71.92 912.276 69.7 912.276 65.68C912.276 61.78 909.996 59.56 906.996 59.56C903.996 59.56 901.716 61.78 901.716 65.68C901.716 69.7 904.056 71.92 906.996 71.92ZM907.776 97C912.816 97 916.296 94.78 916.296 92.14C916.296 89.74 914.316 89.14 910.716 89.14H906.636C904.596 89.14 903.156 88.96 901.956 88.66C900.456 89.86 899.796 91.18 899.796 92.56C899.796 95.38 902.916 97 907.776 97ZM972.471 88.84C961.251 88.84 952.131 80.8 952.131 65.98C952.131 51.34 961.551 42.76 972.771 42.76C978.411 42.76 982.911 45.46 985.791 48.46L981.171 54.1C978.891 51.94 976.311 50.38 972.951 50.38C966.231 50.38 961.191 56.14 961.191 65.68C961.191 75.34 965.751 81.16 972.771 81.16C976.611 81.16 979.551 79.36 981.951 76.78L986.631 82.3C982.971 86.56 978.231 88.84 972.471 88.84ZM1013.88 88.84C1002.12 88.84 994.02 80.02 994.02 65.62C994.02 51.16 1002.12 42.76 1013.88 42.76C1025.64 42.76 1033.74 51.22 1033.74 65.62C1033.74 80.02 1025.64 88.84 1013.88 88.84ZM1013.88 81.16C1020.48 81.16 1024.68 75.1 1024.68 65.62C1024.68 56.08 1020.48 50.38 1013.88 50.38C1007.28 50.38 1003.08 56.08 1003.08 65.62C1003.08 75.1 1007.28 81.16 1013.88 81.16ZM1043.21 88V85.11C1050.05 78.99 1054.09 74.264 1054.09 70.388C1054.09 67.838 1052.73 66.308 1050.32 66.308C1048.48 66.308 1046.99 67.498 1045.7 68.892L1042.98 66.172C1045.29 63.69 1047.53 62.364 1050.97 62.364C1055.73 62.364 1058.89 65.424 1058.89 70.116C1058.89 74.672 1055.11 79.568 1050.52 84.056C1051.78 83.92 1053.45 83.784 1054.64 83.784H1060.08V88H1043.21ZM1083.87 88.84C1074.45 88.84 1067.13 82.3 1067.13 71.2C1067.13 60.34 1074.81 53.56 1082.79 53.56C1092.03 53.56 1096.83 60.34 1096.83 69.58C1096.83 71.26 1096.65 72.88 1096.41 73.66H1075.71C1076.43 79.18 1080.03 82.06 1085.01 82.06C1087.77 82.06 1090.17 81.22 1092.57 79.72L1095.57 85.12C1092.27 87.4 1088.01 88.84 1083.87 88.84ZM1075.59 67.78H1089.27C1089.27 63.28 1087.23 60.4 1082.91 60.4C1079.37 60.4 1076.25 62.92 1075.59 67.78Z" fill="#B8C318"/>
</svg>
