<svg width="1272" height="129" viewBox="0 0 1272 129" fill="none" xmlns="http://www.w3.org/2000/svg">
<rect width="1272" height="129" rx="64.5" fill="#F9F8F3"/>
<path d="M53.64 79V49.36H59.56V79H53.64ZM74.3631 79.56C71.3631 79.56 68.0831 78.24 65.8431 76.4L68.5231 72.72C70.5231 74.28 72.4431 75.16 74.5231 75.16C76.7631 75.16 77.7631 74.2 77.7631 72.8C77.7631 71.12 75.4431 70.36 73.0831 69.44C70.2431 68.36 67.0831 66.64 67.0831 62.88C67.0831 58.88 70.3231 56.04 75.4431 56.04C78.6831 56.04 81.2031 57.4 83.0431 58.8L80.4031 62.36C78.8031 61.2 77.2431 60.44 75.6031 60.44C73.5631 60.44 72.6031 61.32 72.6031 62.6C72.6031 64.24 74.6831 64.84 77.0431 65.72C80.0031 66.84 83.2831 68.32 83.2831 72.48C83.2831 76.4 80.2031 79.56 74.3631 79.56ZM95.7678 79.56C92.7678 79.56 89.4878 78.24 87.2478 76.4L89.9278 72.72C91.9278 74.28 93.8478 75.16 95.9278 75.16C98.1678 75.16 99.1678 74.2 99.1678 72.8C99.1678 71.12 96.8478 70.36 94.4878 69.44C91.6478 68.36 88.4878 66.64 88.4878 62.88C88.4878 58.88 91.7278 56.04 96.8478 56.04C100.088 56.04 102.608 57.4 104.448 58.8L101.808 62.36C100.208 61.2 98.6478 60.44 97.0078 60.44C94.9678 60.44 94.0078 61.32 94.0078 62.6C94.0078 64.24 96.0878 64.84 98.4478 65.72C101.408 66.84 104.688 68.32 104.688 72.48C104.688 76.4 101.608 79.56 95.7678 79.56ZM117.452 79.56C112.612 79.56 110.532 76.2 110.532 70.6V56.6H116.412V69.84C116.412 73.28 117.372 74.52 119.532 74.52C121.372 74.52 122.572 73.72 124.093 71.72V56.6H129.972V79H125.172L124.733 75.8H124.573C122.652 78.08 120.493 79.56 117.452 79.56ZM147.601 79.56C141.321 79.56 136.441 75.2 136.441 67.8C136.441 60.56 141.561 56.04 146.881 56.04C153.041 56.04 156.241 60.56 156.241 66.72C156.241 67.84 156.121 68.92 155.961 69.44H142.161C142.641 73.12 145.041 75.04 148.361 75.04C150.201 75.04 151.801 74.48 153.401 73.48L155.401 77.08C153.201 78.6 150.361 79.56 147.601 79.56ZM142.081 65.52H151.201C151.201 62.52 149.841 60.6 146.961 60.6C144.601 60.6 142.521 62.28 142.081 65.52ZM178.826 79V68.16L169.946 49.36H176.226L179.186 56.6C180.026 58.8 180.826 60.88 181.746 63.16H181.906C182.826 60.88 183.706 58.8 184.546 56.6L187.506 49.36H193.666L184.746 68.16V79H178.826ZM205.643 79.56C199.363 79.56 194.483 75.2 194.483 67.8C194.483 60.56 199.603 56.04 204.923 56.04C211.083 56.04 214.283 60.56 214.283 66.72C214.283 67.84 214.163 68.92 214.003 69.44H200.203C200.683 73.12 203.083 75.04 206.403 75.04C208.243 75.04 209.843 74.48 211.443 73.48L213.443 77.08C211.243 78.6 208.403 79.56 205.643 79.56ZM200.123 65.52H209.243C209.243 62.52 207.883 60.6 205.003 60.6C202.643 60.6 200.563 62.28 200.123 65.52ZM225.699 79.56C221.699 79.56 219.059 76.72 219.059 72.92C219.059 68.12 222.939 65.6 231.979 64.64C231.859 62.44 230.899 60.76 228.139 60.76C226.059 60.76 224.059 61.68 221.979 62.88L219.859 59C222.499 57.36 225.699 56.04 229.219 56.04C234.899 56.04 237.819 59.44 237.819 65.92V79H233.019L232.619 76.6H232.459C230.499 78.28 228.259 79.56 225.699 79.56ZM227.619 74.96C229.299 74.96 230.539 74.16 231.979 72.76V68.24C226.499 68.92 224.659 70.44 224.659 72.44C224.659 74.2 225.899 74.96 227.619 74.96ZM245.412 79V56.6H250.212L250.652 60.56H250.772C252.412 57.64 254.812 56.04 257.132 56.04C258.372 56.04 259.092 56.24 259.772 56.52L258.772 61.6C257.972 61.36 257.332 61.24 256.412 61.24C254.652 61.24 252.532 62.4 251.292 65.64V79H245.412Z" fill="#594A39"/>
<path d="M282.58 88V82.9C294.64 72.1 301.78 63.76 301.78 56.92C301.78 52.42 299.38 49.72 295.12 49.72C291.88 49.72 289.24 51.82 286.96 54.28L282.16 49.48C286.24 45.1 290.2 42.76 296.26 42.76C304.66 42.76 310.24 48.16 310.24 56.44C310.24 64.48 303.58 73.12 295.48 81.04C297.7 80.8 300.64 80.56 302.74 80.56H312.34V88H282.58ZM337.832 88.84C328.772 88.84 322.772 80.92 322.772 65.62C322.772 50.26 328.772 42.76 337.832 42.76C346.892 42.76 352.832 50.32 352.832 65.62C352.832 80.92 346.892 88.84 337.832 88.84ZM337.832 81.94C341.672 81.94 344.492 78.1 344.492 65.62C344.492 53.2 341.672 49.6 337.832 49.6C333.992 49.6 331.112 53.2 331.112 65.62C331.112 78.1 333.992 81.94 337.832 81.94ZM362.844 88V82.9C374.904 72.1 382.044 63.76 382.044 56.92C382.044 52.42 379.644 49.72 375.384 49.72C372.144 49.72 369.504 51.82 367.224 54.28L362.424 49.48C366.504 45.1 370.464 42.76 376.524 42.76C384.924 42.76 390.504 48.16 390.504 56.44C390.504 64.48 383.844 73.12 375.744 81.04C377.964 80.8 380.904 80.56 383.004 80.56H392.604V88H362.844ZM405.316 88V80.86H414.856V52.78H406.816V47.32C411.256 46.48 414.316 45.34 417.136 43.54H423.676V80.86H432.016V88H405.316Z" fill="#B8C318"/>
<path d="M524.72 79.56C517.24 79.56 511.16 74.2 511.16 64.32C511.16 54.56 517.44 48.84 524.92 48.84C528.68 48.84 531.68 50.64 533.6 52.64L530.52 56.4C529 54.96 527.28 53.92 525.04 53.92C520.56 53.92 517.2 57.76 517.2 64.12C517.2 70.56 520.24 74.44 524.92 74.44C527.48 74.44 529.44 73.24 531.04 71.52L534.16 75.2C531.72 78.04 528.56 79.56 524.72 79.56ZM545.569 79.56C541.569 79.56 538.929 76.72 538.929 72.92C538.929 68.12 542.809 65.6 551.849 64.64C551.729 62.44 550.769 60.76 548.009 60.76C545.929 60.76 543.929 61.68 541.849 62.88L539.729 59C542.369 57.36 545.569 56.04 549.089 56.04C554.769 56.04 557.689 59.44 557.689 65.92V79H552.889L552.489 76.6H552.329C550.369 78.28 548.129 79.56 545.569 79.56ZM547.489 74.96C549.169 74.96 550.409 74.16 551.849 72.76V68.24C546.369 68.92 544.529 70.44 544.529 72.44C544.529 74.2 545.769 74.96 547.489 74.96ZM565.282 79V56.6H570.082L570.522 60.56H570.642C572.282 57.64 574.682 56.04 577.002 56.04C578.242 56.04 578.962 56.24 579.642 56.52L578.642 61.6C577.842 61.36 577.202 61.24 576.282 61.24C574.522 61.24 572.402 62.4 571.162 65.64V79H565.282ZM595.544 79.56C593.544 79.56 591.384 78.52 589.584 76.64H589.424L588.904 79H584.304V47.08H590.184V55.12L590.024 58.72C591.784 57.12 594.024 56.04 596.224 56.04C601.744 56.04 605.064 60.56 605.064 67.4C605.064 75.12 600.464 79.56 595.544 79.56ZM594.224 74.72C596.944 74.72 599.024 72.4 599.024 67.52C599.024 63.24 597.664 60.88 594.584 60.88C593.064 60.88 591.704 61.64 590.184 63.2V73.04C591.584 74.28 593.024 74.72 594.224 74.72ZM621.006 79.56C615.406 79.56 610.246 75.24 610.246 67.8C610.246 60.36 615.406 56.04 621.006 56.04C626.606 56.04 631.766 60.36 631.766 67.8C631.766 75.24 626.606 79.56 621.006 79.56ZM621.006 74.76C624.046 74.76 625.766 72.04 625.766 67.8C625.766 63.6 624.046 60.84 621.006 60.84C617.966 60.84 616.246 63.6 616.246 67.8C616.246 72.04 617.966 74.76 621.006 74.76ZM638.285 79V56.6H643.085L643.525 59.56H643.645C645.605 57.64 647.885 56.04 650.925 56.04C655.765 56.04 657.845 59.4 657.845 65.04V79H651.965V65.76C651.965 62.28 651.005 61.08 648.805 61.08C646.965 61.08 645.805 61.96 644.165 63.6V79H638.285ZM676.652 79V49.36H694.892V54.32H682.572V62.04H693.092V67H682.572V79H676.652ZM709.789 79.56C704.189 79.56 699.029 75.24 699.029 67.8C699.029 60.36 704.189 56.04 709.789 56.04C715.389 56.04 720.549 60.36 720.549 67.8C720.549 75.24 715.389 79.56 709.789 79.56ZM709.789 74.76C712.829 74.76 714.549 72.04 714.549 67.8C714.549 63.6 712.829 60.84 709.789 60.84C706.749 60.84 705.029 63.6 705.029 67.8C705.029 72.04 706.749 74.76 709.789 74.76ZM736.428 79.56C730.828 79.56 725.668 75.24 725.668 67.8C725.668 60.36 730.828 56.04 736.428 56.04C742.028 56.04 747.188 60.36 747.188 67.8C747.188 75.24 742.028 79.56 736.428 79.56ZM736.428 74.76C739.468 74.76 741.188 72.04 741.188 67.8C741.188 63.6 739.468 60.84 736.428 60.84C733.388 60.84 731.668 63.6 731.668 67.8C731.668 72.04 733.388 74.76 736.428 74.76ZM760.774 79.56C755.454 79.56 753.414 76.16 753.414 71.16V61.24H750.254V56.88L753.734 56.6L754.414 50.56H759.294V56.6H764.814V61.24H759.294V71.16C759.294 73.72 760.334 74.92 762.334 74.92C763.054 74.92 763.934 74.68 764.534 74.44L765.494 78.72C764.294 79.12 762.734 79.56 760.774 79.56ZM770.971 87.6V56.6H775.771L776.211 58.92H776.331C778.211 57.32 780.531 56.04 782.931 56.04C788.451 56.04 791.731 60.56 791.731 67.44C791.731 75.12 787.131 79.56 782.211 79.56C780.251 79.56 778.371 78.68 776.651 77.12L776.851 80.8V87.6H770.971ZM780.891 74.72C783.611 74.72 785.691 72.4 785.691 67.52C785.691 63.24 784.331 60.88 781.251 60.88C779.731 60.88 778.371 61.64 776.851 63.2V73.04C778.251 74.28 779.691 74.72 780.891 74.72ZM798.313 79V56.6H803.113L803.553 60.56H803.673C805.313 57.64 807.713 56.04 810.033 56.04C811.273 56.04 811.993 56.24 812.673 56.52L811.673 61.6C810.873 61.36 810.233 61.24 809.313 61.24C807.553 61.24 805.433 62.4 804.193 65.64V79H798.313ZM817.335 79V56.6H823.215V79H817.335ZM820.295 53C818.255 53 816.855 51.72 816.855 49.76C816.855 47.84 818.255 46.56 820.295 46.56C822.295 46.56 823.695 47.84 823.695 49.76C823.695 51.72 822.295 53 820.295 53ZM831.083 79V56.6H835.883L836.323 59.56H836.443C838.403 57.64 840.683 56.04 843.723 56.04C848.563 56.04 850.643 59.4 850.643 65.04V79H844.763V65.76C844.763 62.28 843.803 61.08 841.603 61.08C839.763 61.08 838.603 61.96 836.963 63.6V79H831.083ZM866.508 79.56C861.188 79.56 859.148 76.16 859.148 71.16V61.24H855.988V56.88L859.468 56.6L860.148 50.56H865.028V56.6H870.548V61.24H865.028V71.16C865.028 73.72 866.068 74.92 868.068 74.92C868.788 74.92 869.668 74.68 870.268 74.44L871.228 78.72C870.028 79.12 868.468 79.56 866.508 79.56Z" fill="#594A39"/>
<path d="M902.5 58.24C902.5 63.1 904.96 65.32 908.86 65.32C911.2 65.32 914.02 63.94 916.06 60.58C915.16 53.32 912.16 50.56 908.5 50.56C905.2 50.56 902.5 53.08 902.5 58.24ZM907.18 88.84C901.72 88.84 897.7 86.5 895.12 83.8L899.8 78.46C901.36 80.26 904.06 81.64 906.64 81.64C911.74 81.64 915.94 77.92 916.3 66.76C913.84 69.82 910.06 71.62 907.18 71.62C899.74 71.62 894.4 67.3 894.4 58.24C894.4 49.42 900.76 43.9 908.38 43.9C916.78 43.9 924.34 50.32 924.34 65.2C924.34 81.7 916.12 88.84 907.18 88.84ZM949.832 88.84C940.712 88.84 934.772 80.86 934.772 66.16C934.772 51.52 940.712 43.9 949.832 43.9C958.952 43.9 964.832 51.58 964.832 66.16C964.832 80.86 958.952 88.84 949.832 88.84ZM949.832 81.94C953.672 81.94 956.492 78.22 956.492 66.16C956.492 54.16 953.672 50.8 949.832 50.8C945.992 50.8 943.112 54.16 943.112 66.16C943.112 78.22 945.992 81.94 949.832 81.94ZM989.964 88.84C980.844 88.84 974.904 80.86 974.904 66.16C974.904 51.52 980.844 43.9 989.964 43.9C999.084 43.9 1004.96 51.58 1004.96 66.16C1004.96 80.86 999.084 88.84 989.964 88.84ZM989.964 81.94C993.804 81.94 996.624 78.22 996.624 66.16C996.624 54.16 993.804 50.8 989.964 50.8C986.124 50.8 983.244 54.16 983.244 66.16C983.244 78.22 986.124 81.94 989.964 81.94ZM1028.96 102.58C1021.04 102.58 1014.92 99.88 1014.92 93.94C1014.92 91.12 1016.66 88.72 1019.72 86.98V86.68C1017.98 85.54 1016.66 83.8 1016.66 81.04C1016.66 78.52 1018.4 76.18 1020.44 74.74V74.5C1018.1 72.82 1015.94 69.64 1015.94 65.68C1015.94 57.82 1022.36 53.56 1029.5 53.56C1031.36 53.56 1033.16 53.92 1034.54 54.4H1046.66V60.88H1040.96C1041.8 62.02 1042.46 63.88 1042.46 65.98C1042.46 73.54 1036.7 77.38 1029.5 77.38C1028.18 77.38 1026.62 77.08 1025.18 76.6C1024.28 77.38 1023.74 78.1 1023.74 79.48C1023.74 81.28 1025.06 82.24 1029.02 82.24H1034.72C1042.82 82.24 1047.26 84.76 1047.26 90.64C1047.26 97.42 1040.18 102.58 1028.96 102.58ZM1029.5 71.92C1032.44 71.92 1034.78 69.7 1034.78 65.68C1034.78 61.78 1032.5 59.56 1029.5 59.56C1026.5 59.56 1024.22 61.78 1024.22 65.68C1024.22 69.7 1026.56 71.92 1029.5 71.92ZM1030.28 97C1035.32 97 1038.8 94.78 1038.8 92.14C1038.8 89.74 1036.82 89.14 1033.22 89.14H1029.14C1027.1 89.14 1025.66 88.96 1024.46 88.66C1022.96 89.86 1022.3 91.18 1022.3 92.56C1022.3 95.38 1025.42 97 1030.28 97ZM1094.97 88.84C1083.75 88.84 1074.63 80.8 1074.63 65.98C1074.63 51.34 1084.05 42.76 1095.27 42.76C1100.91 42.76 1105.41 45.46 1108.29 48.46L1103.67 54.1C1101.39 51.94 1098.81 50.38 1095.45 50.38C1088.73 50.38 1083.69 56.14 1083.69 65.68C1083.69 75.34 1088.25 81.16 1095.27 81.16C1099.11 81.16 1102.05 79.36 1104.45 76.78L1109.13 82.3C1105.47 86.56 1100.73 88.84 1094.97 88.84ZM1136.38 88.84C1124.62 88.84 1116.52 80.02 1116.52 65.62C1116.52 51.16 1124.62 42.76 1136.38 42.76C1148.14 42.76 1156.24 51.22 1156.24 65.62C1156.24 80.02 1148.14 88.84 1136.38 88.84ZM1136.38 81.16C1142.98 81.16 1147.18 75.1 1147.18 65.62C1147.18 56.08 1142.98 50.38 1136.38 50.38C1129.78 50.38 1125.58 56.08 1125.58 65.62C1125.58 75.1 1129.78 81.16 1136.38 81.16ZM1165.71 88V85.11C1172.55 78.99 1176.59 74.264 1176.59 70.388C1176.59 67.838 1175.23 66.308 1172.82 66.308C1170.98 66.308 1169.49 67.498 1168.2 68.892L1165.48 66.172C1167.79 63.69 1170.03 62.364 1173.47 62.364C1178.23 62.364 1181.39 65.424 1181.39 70.116C1181.39 74.672 1177.61 79.568 1173.02 84.056C1174.28 83.92 1175.95 83.784 1177.14 83.784H1182.58V88H1165.71ZM1206.37 88.84C1196.95 88.84 1189.63 82.3 1189.63 71.2C1189.63 60.34 1197.31 53.56 1205.29 53.56C1214.53 53.56 1219.33 60.34 1219.33 69.58C1219.33 71.26 1219.15 72.88 1218.91 73.66H1198.21C1198.93 79.18 1202.53 82.06 1207.51 82.06C1210.27 82.06 1212.67 81.22 1215.07 79.72L1218.07 85.12C1214.77 87.4 1210.51 88.84 1206.37 88.84ZM1198.09 67.78H1211.77C1211.77 63.28 1209.73 60.4 1205.41 60.4C1201.87 60.4 1198.75 62.92 1198.09 67.78Z" fill="#B8C318"/>
</svg>
