<svg width="632" height="550" viewBox="0 0 632 550" fill="none" xmlns="http://www.w3.org/2000/svg">
<path opacity="0.7" d="M436.976 0C569.531 0 642.416 50.7446 629.621 136.21C618.874 208 561.841 235.816 474.218 244.799C474.003 251.89 472.201 258.844 468.948 265.146C465.695 271.449 461.072 276.941 455.419 281.219C454.775 281.715 453.993 282.005 453.181 282.046C452.369 282.087 451.563 281.879 450.872 281.45C450.18 281.022 449.637 280.394 449.311 279.648C448.986 278.902 448.894 278.073 449.051 277.274C450.007 271.782 449.597 266.14 447.852 260.846C446.106 255.551 443.08 250.768 439.046 246.924C427.565 247.41 435.621 247.654 423.211 247.654C290.655 247.654 200 198.184 200 111.444C200 24.7039 304.42 0 436.976 0Z" fill="#EEB690"/>
<path d="M342.302 169.5C343.652 169.5 344.408 170.256 344.408 171.606C344.408 173.01 343.652 173.766 342.302 173.766H326.426V184.62C326.426 186.888 325.13 187.968 322.862 187.968C320.594 187.968 319.298 186.888 319.298 184.62V173.766H297.806C296.402 173.766 295.646 173.01 295.646 171.606C295.646 170.256 296.402 169.5 297.806 169.5H304.988V158.268C304.988 156.216 306.122 155.136 308.174 155.136H319.298V148.008H309.308C306.77 152.328 303.422 156.27 300.29 158.538C299.426 159.24 298.616 159.24 297.968 158.538C297.266 157.782 297.212 156.972 297.86 156.108C301.208 151.734 303.746 145.794 305.42 139.422C306.068 136.884 307.742 136.236 310.172 136.83C312.548 137.37 313.304 139.26 312.278 141.906C312.008 142.554 311.792 143.202 311.468 143.85H340.844C342.194 143.85 342.95 144.552 342.95 145.902C342.95 147.252 342.194 148.008 340.844 148.008H326.426V155.136H338.036C339.332 155.136 340.034 155.838 340.034 157.134C340.034 158.43 339.332 159.132 338.036 159.132H326.426V169.5H342.302ZM319.298 169.5V159.132H312.494C312.116 159.132 311.846 159.402 311.846 159.78V169.5H319.298Z" fill="#594A39"/>
<path d="M367.952 147.306V157.998C367.952 172.2 365.63 181.596 360.662 187.158C359.96 188.022 358.88 188.13 358.124 187.482C357.314 186.888 357.098 186.132 357.584 185.16C360.338 179.544 361.094 172.2 361.094 157.35V145.74C361.094 143.634 362.174 142.446 364.226 142.446H380.048V140.286C380.048 138.288 381.344 137.154 383.72 137.154C386.042 137.154 387.392 138.288 387.392 140.286V142.446H403.214C404.51 142.446 405.212 143.256 405.212 144.552C405.212 145.848 404.51 146.604 403.214 146.604H368.6C368.222 146.604 367.952 146.928 367.952 147.306ZM377.996 163.614C375.944 163.614 374.864 162.48 374.864 160.482V156.162H370.328C369.086 156.162 368.438 155.406 368.438 154.164C368.438 152.976 369.086 152.274 370.328 152.274H374.864V149.844C374.864 148.17 375.998 147.198 378.05 147.198C379.994 147.198 381.236 148.17 381.236 149.844V152.274H389.768V149.79C389.768 148.116 390.902 147.144 392.954 147.144C394.952 147.144 396.14 148.116 396.14 149.79V152.274H401.54C402.782 152.274 403.484 152.976 403.484 154.164C403.484 155.46 402.782 156.162 401.54 156.162H396.14V160.482C396.14 162.48 395.006 163.614 393.008 163.614H377.996ZM381.236 156.162V159.186C381.236 159.564 381.506 159.834 381.884 159.834H389.12C389.498 159.834 389.768 159.564 389.768 159.186V156.162H381.236ZM402.404 181.326C404.51 181.596 405.482 183.108 405.158 185.214C404.726 187.428 403.16 188.022 401.162 187.806C395.762 187.104 390.632 185.484 386.204 182.892C380.912 185.646 374.486 187.266 367.412 187.752C366.332 187.806 365.576 187.374 365.414 186.348C365.252 185.43 365.684 184.566 366.872 184.296C372.92 183.054 377.726 181.542 381.56 179.652C378.482 177.006 375.998 173.82 374.378 170.094H371.57C370.382 170.094 369.626 169.284 369.626 168.096C369.626 166.908 370.382 166.206 371.57 166.206H395.276C398.408 166.206 399.812 168.474 398.3 171.336C396.734 174.36 394.574 176.952 391.928 179.166C395.06 180.192 398.57 180.894 402.404 181.326ZM378.428 170.094C380.588 172.848 383.18 175.008 386.258 176.682C388.31 175.062 389.984 173.172 391.334 170.958C391.658 170.472 391.388 170.094 390.902 170.094H378.428Z" fill="#594A39"/>
<path d="M465.746 181.11C467.474 182.622 467.96 184.512 466.502 186.294C464.99 188.13 462.992 188.184 461.156 186.348C459.104 184.404 457.268 182.082 455.702 179.436C453.272 182.838 450.14 185.538 446.198 187.59C445.226 188.13 444.362 187.86 443.876 187.05C443.498 186.402 443.498 185.862 443.876 185.322C443.012 185.7 441.986 185.592 440.96 184.944C439.664 184.026 438.314 183.216 437.018 182.406C433.13 185.43 427.784 187.32 421.358 187.86C420.278 187.914 419.576 187.428 419.468 186.51C419.36 185.538 419.738 184.89 420.98 184.674C425.678 183.81 429.512 182.244 432.374 179.922C431.294 179.382 430.106 178.896 428.918 178.41C428.756 178.734 428.54 179.058 428.378 179.328C427.406 180.84 425.895 181.056 424.49 180.246C423.086 179.382 422.816 178.248 423.788 176.574C424.328 175.548 425.03 174.36 425.678 173.064H421.25C420.062 173.064 419.36 172.362 419.36 171.174C419.36 169.986 420.062 169.338 421.25 169.338H427.568L428.648 167.124H424.328C422.33 167.124 421.358 166.152 421.358 164.154V160.374C421.358 158.322 422.33 157.404 424.328 157.404H430.754V155.73H425.516C423.518 155.73 422.384 154.65 422.384 152.652V150.168H420.764C419.63 150.168 418.982 149.52 418.982 148.386C418.982 147.198 419.684 146.496 420.764 146.496H422.384V144.12C422.384 142.122 423.518 141.042 425.516 141.042H430.754V139.53C430.754 137.802 431.78 136.992 433.724 136.992C435.668 136.992 436.694 137.802 436.694 139.53V141.042H441.932C443.984 141.042 445.064 142.122 445.064 144.12V146.496H446.522C447.548 146.496 448.196 147.144 448.196 148.332C448.196 149.52 447.548 150.168 446.522 150.168H445.064V152.652C445.064 154.65 443.984 155.73 441.932 155.73H436.694V157.404H443.012C444.686 157.404 445.658 158.052 445.928 159.402C448.142 154.11 449.276 146.928 449.762 140.124C449.924 137.748 451.112 136.938 453.164 137.1C455.216 137.262 456.188 138.342 455.918 140.61C455.594 143.31 455.108 146.01 454.46 148.602H465.044C466.286 148.602 466.988 149.304 466.988 150.546C466.988 151.788 466.286 152.544 465.044 152.544H463.316C462.884 160.914 461.534 168.042 458.942 173.874C460.832 176.574 463.1 178.896 465.746 181.11ZM427.73 145.038V146.604H430.862V144.39H428.378C428 144.39 427.73 144.66 427.73 145.038ZM436.586 144.39V146.604H439.772V145.038C439.772 144.66 439.502 144.39 439.124 144.39H436.586ZM428.378 152.382H430.862V150.006H427.73V151.734C427.73 152.112 428 152.382 428.378 152.382ZM436.586 150.006V152.382H439.124C439.502 152.382 439.772 152.112 439.772 151.734V150.006H436.586ZM457.16 152.544H453.272C453.056 153.192 452.84 153.894 452.57 154.542C453.11 159.726 454.082 163.992 455.54 167.556C456.566 163.344 456.998 158.484 457.16 152.544ZM445.118 184.242C448.79 181.218 451.382 178.032 453.218 174.252C451.544 170.148 450.41 165.396 449.87 160.05C449.384 160.806 448.898 161.508 448.412 162.102C447.71 162.858 446.9 162.966 446.144 162.534C446.09 162.534 446.09 162.48 446.036 162.426V164.154C446.036 166.152 445.064 167.124 443.012 167.124H434.696C434.372 167.826 434.048 168.582 433.67 169.338H446.846C448.034 169.338 448.736 169.986 448.736 171.174C448.736 172.416 448.034 173.064 446.846 173.064H443.498C442.904 175.116 441.986 177.006 440.69 178.734C441.77 179.166 442.796 179.598 443.768 180.084C445.712 181.002 446.144 182.352 445.226 184.026C445.172 184.08 445.172 184.134 445.118 184.242ZM426.92 163.128C426.92 163.506 427.19 163.776 427.568 163.776H430.754V160.752H427.568C427.19 160.752 426.92 161.022 426.92 161.4V163.128ZM439.88 160.752H436.694V163.776H439.88C440.258 163.776 440.528 163.506 440.528 163.128V161.4C440.528 161.022 440.258 160.752 439.88 160.752ZM431.834 173.064C431.402 173.928 430.97 174.792 430.538 175.602C432.05 175.926 433.724 176.358 435.344 176.844C436.154 175.71 436.856 174.468 437.342 173.064H431.834Z" fill="#594A39"/>
<path d="M527.09 178.464C528.602 179.652 528.818 181.38 527.522 182.73C526.172 184.08 524.552 183.972 523.364 182.568C521.15 180.03 519.746 176.304 518.882 172.254L517.748 172.578C518.504 174.63 518.936 176.898 518.936 179.22C518.936 187.86 513.104 189.912 506.3 185.862C505.49 185.43 505.328 184.674 505.598 183.864C505.868 183.108 506.516 182.838 507.488 183C512.132 183.972 513.59 183.594 513.752 179.058C510.296 181.164 505.598 183.108 501.116 183.81C500.144 183.972 499.55 183.648 499.334 182.784C499.064 181.974 499.442 181.218 500.414 180.894C505.868 179.274 510.188 176.952 513.374 174.09L513.158 173.064C510.35 175.062 506.678 176.79 503.222 177.708C502.196 177.978 501.602 177.546 501.278 176.736C500.144 180.57 498.47 183.594 496.148 186.24C495.392 187.104 494.42 187.212 493.664 186.618C492.962 186.024 492.854 185.268 493.286 184.458C495.986 179.328 496.904 172.902 496.904 159.888V147.522C496.904 145.632 498.038 144.552 500.036 144.552C501.602 144.552 502.628 145.092 502.952 146.226H508.568V140.016C508.568 137.964 509.702 137.1 511.7 137.1C513.752 137.1 514.832 137.964 514.832 139.908V140.88H523.31C524.444 140.88 525.092 141.528 525.092 142.608C525.092 143.742 524.444 144.39 523.31 144.39H514.832V146.226H524.39C527.036 146.226 528.116 148.332 526.766 150.384C525.686 152.058 524.714 153.138 523.904 153.84C523.202 154.326 522.5 154.38 521.852 153.894C521.258 153.408 521.096 152.868 521.42 152.22C521.69 151.68 521.96 151.14 522.122 150.654C522.284 150.114 522.068 149.844 521.636 149.844H512.618V151.68C514.562 151.464 516.56 151.194 518.774 150.924C519.8 150.816 520.502 151.194 520.664 152.274C520.826 153.3 520.34 154.002 519.206 154.11C517.046 154.434 514.832 154.704 512.672 154.974C512.834 156.054 513.59 156.378 515.966 156.378C518.126 156.378 520.286 156.108 521.96 155.514C523.148 155.136 524.012 155.298 524.498 156.54C525.038 157.836 524.714 158.862 523.472 159.402C521.798 160.104 519.854 160.266 514.832 160.266C508.73 160.266 507.488 159.294 507.434 155.622C506.192 155.784 505.004 155.946 503.816 156.054H503.114V161.562C503.384 161.4 503.762 161.292 504.194 161.292H525.362C526.442 161.292 527.09 161.886 527.09 162.966C527.09 164.046 526.442 164.586 525.362 164.586H516.506C515.804 165.234 514.994 165.936 514.076 166.638C515.048 167.664 515.858 168.798 516.56 170.094C518.072 169.068 519.476 167.88 520.934 166.26C521.96 165.126 523.526 164.964 524.66 166.206C525.848 167.556 525.578 168.906 524.012 169.878C523.202 170.418 522.284 170.904 521.366 171.282C522.77 174.144 524.876 176.682 527.09 178.464ZM495.014 148.71C496.202 148.71 496.904 149.412 496.904 150.6C496.904 151.788 496.202 152.49 495.014 152.49H492.368V160.806C493.07 160.536 493.772 160.266 494.474 159.942C495.392 159.564 496.094 159.726 496.58 160.536C497.012 161.346 496.85 162.102 496.094 162.696C495.014 163.614 493.718 164.586 492.368 165.45V182.136C492.368 187.59 487.4 189.048 481.352 186.186C480.434 185.754 480.164 184.998 480.38 184.08C480.596 183.162 481.19 182.838 482.324 182.946C485.402 183.378 486.05 182.946 486.05 181.218V169.014C485.51 169.23 484.97 169.5 484.43 169.716C482.486 170.58 481.082 169.986 480.434 167.88C479.732 165.882 480.488 164.478 482.486 163.992L486.05 163.02V152.49H482.864C481.622 152.49 480.974 151.788 480.974 150.6C480.974 149.412 481.622 148.71 482.864 148.71H486.05V140.34C486.05 138.342 487.184 137.37 489.182 137.37C491.234 137.37 492.368 138.234 492.368 140.286V148.71H495.014ZM507.434 152.274V149.844H503.114V152.76C503.222 152.76 503.33 152.706 503.492 152.706C504.788 152.598 506.084 152.436 507.434 152.274ZM504.194 164.586C503.708 164.586 503.33 164.478 503.006 164.316C502.952 166.044 502.844 167.664 502.682 169.176C502.844 168.96 503.114 168.744 503.438 168.636C505.814 167.556 508.244 166.152 509.918 164.586H504.194ZM502.196 174.684C506.246 173.118 509.162 171.606 511.754 169.122C511.646 168.852 511.538 168.636 511.376 168.366C509.27 169.608 506.84 170.742 504.356 171.39C503.384 171.66 502.844 171.282 502.52 170.472C502.358 172.092 502.088 173.55 501.764 174.954C501.872 174.846 502.034 174.738 502.196 174.684Z" fill="#594A39"/>
<path d="M302.774 110.26C302.494 110.119 302.004 109.732 301.305 109.098C300.675 108.464 300.046 107.759 299.416 106.984C298.787 106.138 298.367 105.504 298.157 105.082C297.948 104.729 297.948 104.095 298.157 103.179C298.437 102.263 298.717 101.805 298.997 101.805C299.207 101.946 299.486 101.7 299.836 101.065C300.186 100.431 300.535 99.7619 300.885 99.0573C301.235 98.2823 301.41 97.8243 301.41 97.6834C301.48 97.4016 301.655 97.1902 301.934 97.0493C302.284 96.8379 302.599 96.6265 302.879 96.4151C303.228 95.8515 303.683 95.2878 304.243 94.7241C304.872 94.09 305.362 93.5616 305.711 93.1388C306.271 92.4342 307.285 91.3774 308.754 89.9682C310.223 88.559 311.657 87.1146 313.056 85.635C314.524 84.0145 315.818 82.6053 316.937 81.4075C318.057 80.1393 318.651 79.2585 318.721 78.7653C318.721 78.7653 318.826 78.6597 319.036 78.4483C319.316 78.1664 319.63 77.9198 319.98 77.7085C320.33 77.4971 320.784 77.1448 321.344 76.6516C321.973 76.1584 322.498 75.7004 322.918 75.2777C323.058 74.714 323.372 74.0799 323.862 73.3753C324.422 72.6002 325.051 71.8604 325.75 71.1558C326.31 70.3103 326.835 69.3944 327.324 68.408C327.814 67.3511 328.129 66.5761 328.268 66.0828C328.478 65.3078 328.408 64.8498 328.059 64.7089C327.709 64.4975 326.765 64.1452 325.226 63.652C323.547 63.0884 321.973 62.9827 320.505 63.335C319.036 63.6873 317.077 64.7441 314.629 66.5056C313.65 66.717 312.741 66.9988 311.901 67.3511C311.132 67.7034 310.468 67.8443 309.908 67.7738C309.628 67.6329 309.314 67.3159 308.964 66.8227C308.614 66.3295 308.229 65.8715 307.81 65.4487L306.761 60.9042L310.013 59.1075C312.881 57.2756 315.609 55.9016 318.196 54.9857C320.854 53.9993 323.163 53.8231 325.121 54.4572C325.89 54.4572 326.59 54.5629 327.219 54.7743C327.849 54.9152 328.164 54.9857 328.164 54.9857C328.723 54.9152 329.528 55.197 330.577 55.8312C331.696 56.4653 332.78 57.2756 333.829 58.262C334.948 59.2484 335.718 60.2348 336.137 61.2212C337.256 62.9122 337.676 64.9555 337.396 67.3511C337.116 69.7467 336.102 72.2479 334.354 74.8549C334.004 75.2777 333.235 76.1584 332.046 77.4971C330.856 78.8358 329.493 80.3506 327.954 82.0416C326.485 83.6622 325.121 85.1066 323.862 86.3748C322.673 87.6431 321.904 88.4534 321.554 88.8056C321.064 89.017 320.225 89.6864 319.036 90.8137C317.917 91.941 316.693 93.2093 315.364 94.6185C314.105 95.9572 313.021 97.1549 312.111 98.2118C311.272 99.1982 310.922 99.6914 311.062 99.6914C310.992 99.9733 311.342 99.9733 312.111 99.6914C312.951 99.3392 313.685 99.0573 314.315 98.8459C315.364 98.4937 316.588 98.1766 317.987 97.8948C319.455 97.5425 320.924 97.2606 322.393 97.0493C323.862 96.8379 325.121 96.697 326.17 96.6265C327.289 96.5561 327.954 96.6265 328.164 96.8379C328.303 97.1902 328.408 97.3311 328.478 97.2606C328.618 97.1197 328.688 97.0493 328.688 97.0493C328.828 96.5561 329.702 96.4151 331.311 96.6265C332.99 96.8379 334.494 97.1549 335.823 97.5777C336.592 97.7891 337.186 98.0709 337.606 98.4232C338.096 98.7755 338.341 99.0926 338.341 99.3744C338.341 99.3744 338.41 99.5505 338.55 99.9028C338.76 100.185 339.075 100.572 339.495 101.065C340.614 101.981 340.614 102.968 339.495 104.025C338.445 105.082 336.522 105.363 333.724 104.87C331.906 104.87 330.402 104.976 329.213 105.187C328.933 105.328 328.338 105.399 327.429 105.399C326.52 105.399 325.646 105.434 324.806 105.504C323.547 105.363 322.288 105.434 321.029 105.716C319.77 105.927 318.266 106.315 316.518 106.878C315.888 107.09 314.909 107.407 313.58 107.829C312.251 108.252 310.817 108.675 309.279 109.098C307.74 109.52 306.341 109.837 305.082 110.049C303.893 110.26 303.123 110.331 302.774 110.26Z" fill="#FDFDFB"/>
<path d="M376.144 110.789C375.655 110.789 374.745 110.612 373.416 110.26C372.157 109.908 370.828 109.485 369.43 108.992C368.101 108.428 367.051 107.829 366.282 107.195C363.904 105.152 362.19 102.897 361.141 100.431C360.092 97.8948 359.462 95.323 359.253 92.7161C359.113 90.1091 359.218 87.6431 359.567 85.318C360.337 80.8086 361.945 76.3345 364.394 71.8957C366.842 67.3863 369.779 63.652 373.207 60.6928C375.025 59.0722 376.844 57.6983 378.662 56.571C380.481 55.4436 382.439 54.6334 384.538 54.1402C385.307 53.9288 386.391 53.8231 387.79 53.8231C389.259 53.7526 390.238 53.7174 390.728 53.7174C392.127 53.7174 393.665 54.0345 395.344 54.6686C397.093 55.2323 398.596 55.9369 399.855 56.7824C401.114 57.5574 401.744 58.2972 401.744 59.0018C401.744 59.495 401.709 59.9882 401.639 60.4814C401.569 60.9746 401.254 61.0803 400.695 60.7985H399.646L400.695 63.9691C400.975 64.5328 401.219 65.3078 401.429 66.2942C401.639 67.2102 401.744 68.0557 401.744 68.8307C401.744 69.5353 401.639 70.5922 401.429 72.0013C401.289 73.3401 401.044 74.7844 400.695 76.3345C400.415 77.8846 400.1 79.329 399.75 80.6677C399.471 82.0064 399.191 82.9928 398.911 83.627C398.701 84.0497 398.561 84.4725 398.491 84.8952C398.491 85.2475 398.491 85.5646 398.491 85.8464C398.212 86.4101 397.757 87.3965 397.128 88.8056C396.498 90.2148 396.043 91.2012 395.764 91.7649C395.484 92.0467 395.239 92.2933 395.029 92.5047C394.889 92.7161 394.959 92.9627 395.239 93.2445C395.239 93.4559 395.064 93.9491 394.714 94.7241C394.365 95.4287 393.98 96.0981 393.56 96.7322C393.211 97.3663 392.931 97.6834 392.721 97.6834C392.721 97.6834 392.616 97.7186 392.406 97.7891C392.266 97.7891 392.196 97.8948 392.196 98.1061C392.196 98.388 391.707 99.1278 390.728 100.326C389.818 101.523 388.734 102.756 387.475 104.025C386.776 104.729 385.657 105.645 384.118 106.773C382.579 107.829 381.04 108.781 379.502 109.626C378.033 110.401 376.914 110.789 376.144 110.789ZM375.934 100.643C376.704 100.643 377.438 100.537 378.138 100.326C378.837 100.044 379.432 99.6562 379.921 99.163C381.18 98.3175 382.369 97.1902 383.488 95.781C384.677 94.3718 385.657 92.7513 386.426 90.9194C387.195 89.8625 387.79 88.7704 388.21 87.6431C388.699 86.4453 389.434 84.4372 390.413 81.6189C390.972 80.8439 391.357 79.8927 391.567 78.7653C391.777 77.638 391.882 76.6868 391.882 75.9118C391.882 75.1367 391.882 74.0799 391.882 72.7412C391.952 71.4024 392.127 70.2751 392.406 69.3592C392.406 67.5272 392.371 66.4704 392.301 66.1885C392.231 65.8362 391.952 65.3783 391.462 64.8146C391.182 64.6032 390.798 64.3918 390.308 64.1805C389.888 63.9691 389.434 63.8634 388.944 63.8634C388.454 63.8634 387.79 64.0043 386.951 64.2862C386.181 64.4975 385.517 64.7794 384.957 65.1317C384.468 65.4135 383.908 65.4487 383.279 65.2373C382.719 65.026 382.439 64.7441 382.439 64.3918C382.439 63.4054 381.95 63.4759 380.97 64.6032C380.061 65.6601 378.837 67.1397 377.298 69.0421C376.039 70.3103 374.955 71.6138 374.046 72.9525C373.207 74.2208 372.787 74.9958 372.787 75.2777C372.787 75.5595 372.682 75.9118 372.472 76.3345C372.262 76.7573 372.052 77.2505 371.843 77.8142C371.493 78.3074 371.073 79.1176 370.584 80.245C370.094 81.3723 369.604 82.4996 369.115 83.627C368.695 84.6838 368.415 85.4941 368.275 86.0578C368.275 86.3396 368.275 87.1146 368.275 88.3829C368.275 89.5807 368.275 90.708 368.275 91.7649C368.275 92.9627 368.31 93.8434 368.38 94.4071C368.45 94.9707 368.555 95.4287 368.695 95.781C368.905 96.1333 369.185 96.6617 369.534 97.3663C369.814 97.8595 370.234 98.4584 370.793 99.163C371.423 99.7971 371.843 100.255 372.052 100.537C372.822 101.242 373.311 101.523 373.521 101.382C373.801 101.171 374.605 100.924 375.934 100.643Z" fill="#FDFDFB"/>
<path d="M423.026 110.26C422.747 110.119 422.257 109.732 421.558 109.098C420.928 108.464 420.299 107.759 419.669 106.984C419.04 106.138 418.62 105.504 418.41 105.082C418.2 104.729 418.2 104.095 418.41 103.179C418.69 102.263 418.97 101.805 419.249 101.805C419.459 101.946 419.739 101.7 420.089 101.065C420.439 100.431 420.788 99.7619 421.138 99.0573C421.488 98.2823 421.663 97.8243 421.663 97.6834C421.733 97.4016 421.907 97.1902 422.187 97.0493C422.537 96.8379 422.852 96.6265 423.131 96.4151C423.481 95.8515 423.936 95.2878 424.495 94.7241C425.125 94.09 425.614 93.5616 425.964 93.1388C426.524 92.4342 427.538 91.3774 429.007 89.9682C430.476 88.559 431.909 87.1146 433.308 85.635C434.777 84.0145 436.071 82.6053 437.19 81.4075C438.309 80.1393 438.904 79.2585 438.974 78.7653C438.974 78.7653 439.079 78.6597 439.289 78.4483C439.568 78.1664 439.883 77.9198 440.233 77.7085C440.583 77.4971 441.037 77.1448 441.597 76.6516C442.226 76.1584 442.751 75.7004 443.171 75.2777C443.31 74.714 443.625 74.0799 444.115 73.3753C444.674 72.6002 445.304 71.8604 446.003 71.1558C446.563 70.3103 447.087 69.3944 447.577 68.408C448.067 67.3511 448.381 66.5761 448.521 66.0828C448.731 65.3078 448.661 64.8498 448.311 64.7089C447.962 64.4975 447.017 64.1452 445.479 63.652C443.8 63.0884 442.226 62.9827 440.757 63.335C439.289 63.6873 437.33 64.7441 434.882 66.5056C433.903 66.717 432.994 66.9988 432.154 67.3511C431.385 67.7034 430.72 67.8443 430.161 67.7738C429.881 67.6329 429.566 67.3159 429.217 66.8227C428.867 66.3295 428.482 65.8715 428.062 65.4487L427.013 60.9042L430.266 59.1075C433.133 57.2756 435.861 55.9016 438.449 54.9857C441.107 53.9993 443.415 53.8231 445.374 54.4572C446.143 54.4572 446.843 54.5629 447.472 54.7743C448.102 54.9152 448.416 54.9857 448.416 54.9857C448.976 54.9152 449.78 55.197 450.829 55.8312C451.949 56.4653 453.033 57.2756 454.082 58.262C455.201 59.2484 455.97 60.2348 456.39 61.2212C457.509 62.9122 457.929 64.9555 457.649 67.3511C457.369 69.7467 456.355 72.2479 454.606 74.8549C454.257 75.2777 453.487 76.1584 452.298 77.4971C451.109 78.8358 449.745 80.3506 448.207 82.0416C446.738 83.6622 445.374 85.1066 444.115 86.3748C442.926 87.6431 442.156 88.4534 441.807 88.8056C441.317 89.017 440.478 89.6864 439.289 90.8137C438.169 91.941 436.945 93.2093 435.617 94.6185C434.358 95.9572 433.273 97.1549 432.364 98.2118C431.525 99.1982 431.175 99.6914 431.315 99.6914C431.245 99.9733 431.595 99.9733 432.364 99.6914C433.203 99.3392 433.938 99.0573 434.567 98.8459C435.617 98.4937 436.841 98.1766 438.239 97.8948C439.708 97.5425 441.177 97.2606 442.646 97.0493C444.115 96.8379 445.374 96.697 446.423 96.6265C447.542 96.5561 448.207 96.6265 448.416 96.8379C448.556 97.1902 448.661 97.3311 448.731 97.2606C448.871 97.1197 448.941 97.0493 448.941 97.0493C449.081 96.5561 449.955 96.4151 451.564 96.6265C453.243 96.8379 454.746 97.1549 456.075 97.5777C456.845 97.7891 457.439 98.0709 457.859 98.4232C458.348 98.7755 458.593 99.0926 458.593 99.3744C458.593 99.3744 458.663 99.5505 458.803 99.9028C459.013 100.185 459.328 100.572 459.747 101.065C460.866 101.981 460.866 102.968 459.747 104.025C458.698 105.082 456.775 105.363 453.977 104.87C452.158 104.87 450.655 104.976 449.466 105.187C449.186 105.328 448.591 105.399 447.682 105.399C446.773 105.399 445.898 105.434 445.059 105.504C443.8 105.363 442.541 105.434 441.282 105.716C440.023 105.927 438.519 106.315 436.771 106.878C436.141 107.09 435.162 107.407 433.833 107.829C432.504 108.252 431.07 108.675 429.531 109.098C427.993 109.52 426.594 109.837 425.335 110.049C424.146 110.26 423.376 110.331 423.026 110.26Z" fill="#FDFDFB"/>
<path d="M491.256 111C489.507 111 487.794 110.683 486.115 110.049C484.506 109.344 483.212 108.534 482.233 107.618C481.254 106.702 480.799 105.821 480.869 104.976C480.939 103.848 481.324 102.968 482.023 102.334C482.723 101.7 483.842 101.488 485.381 101.7C487.759 102.193 490.172 102.369 492.62 102.228C495.068 102.017 497.341 101.523 499.44 100.748C501.608 99.9733 503.356 98.9164 504.685 97.5777C506.574 95.7458 507.553 94.1957 507.623 92.9275C507.693 91.5887 506.714 90.25 504.685 88.9113C503.776 88.2772 502.657 87.6783 501.328 87.1146C499.999 86.551 498.67 86.1282 497.341 85.8464C496.082 85.4941 494.963 85.3532 493.984 85.4236C493.354 85.4941 492.585 85.3884 491.676 85.1066C490.766 84.7543 489.857 84.3315 488.948 83.8383C488.528 83.3451 488.144 82.5349 487.794 81.4075C487.444 80.2802 487.199 79.5756 487.059 79.2938C486.989 78.9415 487.234 78.5187 487.794 78.0255C488.353 77.5323 489.473 76.7925 491.151 75.8061C492.83 74.7492 495.278 73.3401 498.495 71.5786C501.433 69.9581 503.671 68.725 505.21 67.8795C506.819 66.9636 508.043 66.259 508.882 65.7658C509.791 65.2021 510.561 64.6385 511.19 64.0748C512.03 63.0884 512.414 62.3486 512.344 61.8554C512.274 61.3621 511.33 60.9394 509.512 60.5871C507.763 60.4462 506.364 60.4462 505.315 60.5871C504.266 60.6576 503.741 60.8337 503.741 61.1155C503.741 61.1155 503.706 61.1155 503.636 61.1155C503.636 61.1155 503.531 61.1155 503.322 61.1155C502.972 60.9746 502.202 61.0099 501.013 61.2212C499.824 61.4326 498.67 61.6792 497.551 61.961C496.502 62.2429 495.942 62.4895 495.872 62.7008C495.802 62.8418 495.313 63.0884 494.404 63.4407C493.564 63.7225 492.69 63.9691 491.781 64.1805C490.941 64.3918 490.417 64.4975 490.207 64.4975C489.857 64.3566 489.438 63.8634 488.948 63.0179C488.528 62.1724 488.179 61.2917 487.899 60.3757C487.619 59.3893 487.549 58.72 487.689 58.3677C487.829 58.0858 488.318 57.6631 489.158 57.0994C490.067 56.4653 491.081 55.8312 492.2 55.197C493.319 54.4925 494.264 53.964 495.033 53.6117C496.012 53.3299 497.446 53.0833 499.335 52.8719C501.293 52.5901 503.217 52.3787 505.105 52.2378C507.064 52.0264 508.462 51.956 509.302 52.0264C512.519 52.3787 515.107 53.2242 517.066 54.5629C519.024 55.8312 520.283 57.8745 520.843 60.6928C521.052 61.6792 521.052 62.7008 520.843 63.7577C520.633 64.8146 520.178 65.8715 519.479 66.9283C518.779 67.9852 517.73 69.1478 516.331 70.416C514.583 71.5434 513.219 72.4946 512.239 73.2696C511.33 73.9742 510.071 74.714 508.462 75.489C507.973 75.8413 507.203 76.2288 506.154 76.6516C505.105 77.0743 504.126 77.4619 503.217 77.8142C502.307 78.1664 501.853 78.413 501.853 78.554C501.853 78.554 502.167 78.6244 502.797 78.7653C503.496 78.8358 504.231 78.9767 505 79.1881C505.84 79.329 506.434 79.5756 506.784 79.9279C508.812 80.6325 510.666 81.8655 512.344 83.627C514.093 85.318 515.317 86.6567 516.016 87.6431C516.996 89.8273 517.101 92.2229 516.331 94.8298C515.632 97.3663 514.338 99.7971 512.449 102.122C510.631 104.377 508.497 106.244 506.049 107.724C504.091 108.851 501.678 109.661 498.81 110.155C496.012 110.577 493.494 110.859 491.256 111Z" fill="#FDFDFB"/>
<path opacity="0.2" d="M348.26 411.301C348.26 411.301 395.133 382.773 446.433 387.629C447.829 387.765 449.237 387.534 450.516 386.959C451.795 386.385 452.902 385.485 453.729 384.351C454.555 383.217 455.07 381.89 455.227 380.495C455.383 379.1 455.175 377.688 454.62 376.399C444.008 351.027 407.746 297.49 291.684 296.336" fill="#7DBE37"/>
<path opacity="0.2" d="M157.797 468.601C126.281 481.507 97.4802 500.248 72.903 523.839C71.9246 524.836 70.7017 525.562 69.3589 525.946C68.016 526.33 66.5972 526.357 65.2403 526.026C63.8834 525.696 62.636 525.019 61.6192 524.061C60.6023 523.103 59.8514 521.897 59.44 520.561C51.2538 494.217 44.5221 429.512 132.872 354.366" fill="#7DBE37"/>
<path d="M315.092 269.203C315.092 269.203 377.124 259.675 418.601 217.671C419.731 216.544 421.134 215.728 422.672 215.303C424.209 214.877 425.828 214.856 427.377 215.24C428.925 215.625 430.349 216.403 431.51 217.499C432.67 218.594 433.529 219.969 434.003 221.494C443.341 251.844 451.042 325.472 349.897 411.726" fill="#5E9A33"/>
<path d="M361.569 505.445C372.165 499.014 374.112 482.833 365.917 469.303C357.721 455.773 342.486 450.017 331.891 456.448C321.295 462.879 319.352 479.061 327.547 492.592C335.743 506.122 350.974 511.876 361.569 505.445Z" fill="#FEFAE9"/>
<path d="M258.246 544.437C270.492 542.55 278.47 528.344 276.065 512.705C273.661 497.066 261.785 485.917 249.538 487.804C237.291 489.69 229.311 503.899 231.716 519.538C234.12 535.177 245.999 546.324 258.246 544.437Z" fill="#FEFAE9"/>
<path d="M184.963 177.851C184.963 177.851 198.848 206.015 258.395 210.749C274.963 212.046 290.86 217.861 304.359 227.563C346.261 257.913 421.937 329.418 389.253 434.671C389.253 434.671 369.484 485.232 304.783 508.602C304.783 508.602 244.995 535.615 192.3 509.028C143.789 484.749 93.3965 398.372 125.171 289.78C129.767 274.108 138.779 260.095 151.126 249.416C167.195 235.273 190.481 211.357 184.963 177.851Z" fill="#FEFAE9"/>
<path d="M115.711 340.951C117 323.611 120.131 306.457 125.049 289.78C129.646 274.108 138.658 260.095 151.004 249.416C167.195 235.273 190.481 211.357 184.963 177.851C184.963 177.851 198.848 206.015 258.395 210.749C274.963 212.046 290.86 217.861 304.359 227.563C317.473 237.054 329.766 247.633 341.107 259.188C335.043 275.576 311.212 331.48 248.876 354.182C248.876 354.182 190.781 376.825 115.711 340.951Z" fill="#7DBE37"/>
<path d="M340.8 258.886C354.369 276.186 364.646 295.834 371.119 316.853C378.396 343.925 361.478 379.919 333.099 390.238C220.614 431.21 115.709 341.678 115.709 341.678C115.709 341.678 114.375 323.468 146.028 311.328C177.682 299.188 300.417 255.122 300.417 255.122C300.417 255.122 330.916 245.471 340.8 258.886Z" fill="#F2E865"/>
<path d="M289.622 284.075C310.754 284.075 327.885 266.927 327.885 245.773C327.885 224.62 310.754 207.472 289.622 207.472C268.49 207.472 251.359 224.62 251.359 245.773C251.359 266.927 268.49 284.075 289.622 284.075Z" fill="white"/>
<path d="M192.419 319.523C213.551 319.523 230.682 302.375 230.682 281.222C230.682 260.069 213.551 242.92 192.419 242.92C171.287 242.92 154.156 260.069 154.156 281.222C154.156 302.375 171.287 319.523 192.419 319.523Z" fill="white"/>
<path d="M330.253 260.524H329.948C329.52 260.486 329.105 260.361 328.725 260.159C328.345 259.957 328.008 259.681 327.736 259.347C327.465 259.013 327.264 258.628 327.144 258.215C327.024 257.801 326.987 257.368 327.038 256.94L328.311 243.831C328.466 243.033 328.913 242.321 329.563 241.834C330.213 241.346 331.023 241.118 331.831 241.193C332.64 241.269 333.39 241.643 333.939 242.243C334.488 242.842 334.796 243.623 334.801 244.436L333.466 257.61C333.404 258.415 333.036 259.164 332.438 259.706C331.84 260.248 331.059 260.542 330.253 260.524Z" fill="#E27E7C"/>
<path d="M340.501 260.645H340.196C339.337 260.553 338.55 260.124 338.005 259.453C337.46 258.782 337.2 257.922 337.285 257.061L338.621 243.952C338.658 243.523 338.78 243.105 338.982 242.725C339.183 242.345 339.46 242.01 339.793 241.738C340.127 241.466 340.511 241.263 340.924 241.142C341.337 241.022 341.77 240.988 342.197 241.039C342.624 241.076 343.04 241.198 343.417 241.4C343.794 241.603 344.125 241.88 344.391 242.215C344.658 242.55 344.853 242.937 344.966 243.35C345.079 243.764 345.108 244.195 345.049 244.619L343.776 257.731C343.699 258.541 343.317 259.292 342.71 259.832C342.102 260.373 341.314 260.663 340.501 260.645Z" fill="#E27E7C"/>
<path d="M149.003 322.378C148.574 322.34 148.157 322.215 147.777 322.013C147.397 321.811 147.062 321.538 146.791 321.204C146.52 320.87 146.319 320.482 146.199 320.069C146.079 319.655 146.042 319.222 146.092 318.794L147.365 305.685C147.457 304.825 147.886 304.035 148.556 303.489C149.226 302.943 150.082 302.687 150.942 302.772C151.371 302.809 151.788 302.932 152.168 303.133C152.548 303.335 152.882 303.612 153.154 303.946C153.425 304.279 153.629 304.664 153.749 305.078C153.869 305.491 153.903 305.925 153.853 306.352L152.52 319.464C152.482 319.887 152.36 320.298 152.162 320.673C151.964 321.049 151.695 321.384 151.368 321.655C151.041 321.925 150.664 322.129 150.258 322.253C149.852 322.377 149.425 322.419 149.003 322.378Z" fill="#E27E7C"/>
<path d="M159.495 322.558C159.072 322.52 158.662 322.4 158.286 322.203C157.911 322.005 157.577 321.733 157.306 321.405C157.036 321.078 156.832 320.7 156.708 320.294C156.584 319.887 156.542 319.46 156.584 319.037L157.919 305.866C158.026 305.024 158.447 304.255 159.101 303.714C159.754 303.173 160.587 302.899 161.434 302.952C161.862 302.99 162.28 303.115 162.66 303.317C163.04 303.519 163.374 303.792 163.646 304.126C163.917 304.46 164.121 304.848 164.241 305.261C164.361 305.675 164.395 306.108 164.344 306.536L163.071 319.645C162.965 320.498 162.536 321.277 161.869 321.82C161.203 322.363 160.351 322.627 159.495 322.558Z" fill="#E27E7C"/>
<path d="M199.999 286.927C209.042 286.927 216.372 279.59 216.372 270.538C216.372 261.487 209.042 254.149 199.999 254.149C190.957 254.149 183.627 261.487 183.627 270.538C183.627 279.59 190.957 286.927 199.999 286.927Z" fill="#4A1E0E"/>
<path d="M289.441 254.393C298.483 254.393 305.813 247.055 305.813 238.004C305.813 228.952 298.483 221.615 289.441 221.615C280.399 221.615 273.068 228.952 273.068 238.004C273.068 247.055 280.399 254.393 289.441 254.393Z" fill="#4A1E0E"/>
<path d="M373.728 509.03C372.92 509.037 372.117 508.891 371.362 508.603C369.643 507.973 368.242 506.687 367.469 505.025C366.696 503.364 366.616 501.464 367.241 499.741L383.067 456.768C383.377 455.916 383.853 455.135 384.467 454.468C385.082 453.802 385.823 453.264 386.646 452.885C387.47 452.507 388.359 452.295 389.264 452.263C390.169 452.231 391.072 452.379 391.92 452.699C393.629 453.341 395.019 454.631 395.79 456.288C396.561 457.945 396.653 459.837 396.044 461.561L380.215 504.536C379.721 505.858 378.835 506.997 377.675 507.8C376.515 508.603 375.138 509.033 373.728 509.03Z" fill="#695D41"/>
<path d="M363.847 513.277C362.162 513.275 360.534 512.658 359.272 511.54C358.011 510.422 357.2 508.881 356.993 507.207L351.841 473.884C351.562 472.074 352.01 470.224 353.09 468.745C354.17 467.266 355.791 466.276 357.6 465.992C358.497 465.837 359.419 465.864 360.306 466.072C361.193 466.28 362.028 466.666 362.763 467.204C363.499 467.742 364.117 468.422 364.584 469.205C365.052 469.987 365.359 470.856 365.484 471.759L370.636 505.085C370.915 506.896 370.467 508.742 369.387 510.221C368.307 511.701 366.686 512.691 364.877 512.975L363.847 513.277Z" fill="#695D41"/>
<path d="M261.242 550H260.395C259.487 549.903 258.607 549.625 257.808 549.182C257.009 548.74 256.306 548.14 255.741 547.422C255.176 546.704 254.76 545.882 254.518 545C254.276 544.119 254.213 543.198 254.332 542.291L259.122 503.323C259.238 502.418 259.528 501.545 259.981 500.753C260.433 499.961 261.037 499.266 261.757 498.708C262.478 498.15 263.303 497.738 264.182 497.499C265.062 497.259 265.979 497.196 266.883 497.312C267.786 497.428 268.659 497.722 269.45 498.175C270.241 498.628 270.935 499.231 271.493 499.953C272.05 500.674 272.459 501.497 272.698 502.377C272.937 503.257 273.003 504.179 272.887 505.083L268.034 543.99C267.828 545.648 267.026 547.175 265.775 548.281C264.525 549.388 262.911 549.999 261.242 550Z" fill="#695D41"/>
<path d="M271.551 546.903C270.28 546.943 269.03 546.583 267.975 545.872C266.41 544.927 265.282 543.402 264.839 541.627C264.396 539.853 264.673 537.973 265.609 536.402L292.716 491.364C293.66 489.798 295.183 488.671 296.956 488.228C298.728 487.784 300.603 488.058 302.173 488.995C303.741 489.952 304.871 491.491 305.314 493.275C305.757 495.059 305.477 496.947 304.538 498.527L277.435 543.566C276.822 544.58 275.957 545.421 274.927 546.005C273.897 546.59 272.735 546.897 271.551 546.903Z" fill="#695D41"/>
<path d="M272.582 267.806L257.544 206.742C257.34 205.98 256.893 205.308 256.268 204.827C255.643 204.347 254.876 204.086 254.088 204.086C253.3 204.086 252.534 204.347 251.909 204.827C251.284 205.308 250.833 205.98 250.63 206.742L232.439 276.185C232.001 277.826 232.089 279.56 232.687 281.15C233.285 282.739 234.365 284.103 235.775 285.047L292.716 322.558C293.374 323.02 294.166 323.248 294.969 323.204C295.772 323.159 296.537 322.845 297.139 322.312C297.742 321.778 298.148 321.059 298.291 320.266C298.434 319.474 298.308 318.656 297.93 317.946L272.703 267.928L272.582 267.806Z" fill="#695D41"/>
<path d="M232.38 276.123L250.572 206.683C250.729 206.001 251.093 205.384 251.614 204.916C252.135 204.449 252.788 204.154 253.482 204.072C253.029 204.567 252.79 205.223 252.816 205.895L248.511 270.234C248.446 271.859 248.705 273.483 249.278 275.006C249.851 276.528 250.724 277.921 251.845 279.099L294.837 321.589C295.039 321.833 295.29 322.032 295.571 322.178C295.852 322.324 296.158 322.412 296.474 322.436C295.902 322.825 295.227 323.035 294.535 323.035C293.843 323.035 293.168 322.825 292.595 322.436L235.655 284.926C234.267 283.978 233.207 282.622 232.62 281.046C232.034 279.47 231.95 277.749 232.38 276.123Z" fill="#84765B"/>
<path d="M10.2615 366.385C59.1967 370.998 104.615 349.084 118.38 341.679C121.555 339.918 125.24 339.319 128.809 339.98C136.972 341.244 144.598 344.844 150.763 350.348C156.929 355.852 161.37 363.022 163.554 370.997C171.559 398.373 171.255 443.837 163.554 462.776C162.741 464.813 161.292 466.536 159.424 467.684C157.556 468.832 155.369 469.344 153.185 469.148C47.068 458.89 11.8362 405.659 0.739332 379.254C0.106959 377.765 -0.125595 376.137 0.0642548 374.53C0.254105 372.923 0.861069 371.393 1.82301 370.093C2.78495 368.793 4.07073 367.765 5.55073 367.114C7.03074 366.464 8.65422 366.214 10.2615 366.385Z" fill="#5E9A33"/>
</svg>
