<svg width="444" height="110" viewBox="0 0 444 110" fill="none" xmlns="http://www.w3.org/2000/svg">
<path d="M8.81664 104.44C6.29664 102.573 4.33664 99.9133 2.93664 96.46C1.62997 92.9133 1.02331 89.6467 1.11664 86.66C1.02331 80.8733 1.48998 74.9 2.51664 68.74C3.63664 62.58 5.08331 56.84 6.85664 51.52C8.06998 48.16 9.37664 44.7533 10.7766 41.3C12.1766 37.8467 13.6233 34.58 15.1166 31.5C16.61 28.3267 18.0566 25.6667 19.4566 23.52C22.35 18.5733 25.29 14.6067 28.2766 11.62C31.3566 8.63333 33.69 6.67333 35.2766 5.73999C37.89 4.43333 41.0166 3.45333 44.6566 2.8C48.2966 2.05333 51.8433 2.05333 55.2966 2.8C57.7233 3.45333 60.1033 4.38666 62.4366 5.6C64.8633 6.81333 66.9633 8.30666 68.7366 10.08C69.7633 11.0133 70.5566 11.9933 71.1166 13.02C71.6766 14.0467 71.9566 15.12 71.9566 16.24C71.9566 17.64 71.3033 18.9933 69.9966 20.3C68.69 21.6067 67.2433 22.4933 65.6566 22.96C64.07 23.4267 62.8566 23.1467 62.0166 22.12C60.8033 20.2533 59.6366 18.8533 58.5166 17.92C57.3966 16.8933 56.23 16.1467 55.0166 15.68C53.99 15.0267 52.59 14.7 50.8166 14.7C49.1366 14.7 47.3166 15.0267 45.3566 15.68C43.3966 16.24 41.53 17.2667 39.7566 18.76C39.1033 19.32 38.2166 20.1133 37.0966 21.14C36.07 22.1667 34.95 23.4267 33.7366 24.92C32.6166 26.32 31.59 27.86 30.6566 29.54C28.0433 33.8333 25.8033 38.22 23.9366 42.7C22.1633 47.0867 20.5766 51.8933 19.1766 57.12C18.5233 59.2667 17.8233 61.9267 17.0766 65.1C16.33 68.18 15.63 71.26 14.9766 74.34C14.4166 77.42 14.0433 80.1267 13.8566 82.46C13.5766 85.7267 13.67 88.2933 14.1366 90.16C14.6033 92.0267 15.5833 93.2867 17.0766 93.94C18.57 94.5 20.67 94.4533 23.3766 93.8C25.8033 93.24 28.23 92.3067 30.6566 91C33.1766 89.6 35.6033 87.8733 37.9366 85.82C40.27 83.6733 42.37 81.1533 44.2366 78.26C45.9166 75.0867 47.27 72.1933 48.2966 69.58C49.4166 66.9667 49.9766 64.9133 49.9766 63.42C50.07 61.8333 49.2766 61.0867 47.5966 61.18C43.77 61.2733 40.69 61.1333 38.3566 60.76C36.1166 60.3867 34.5766 59.4533 33.7366 57.96C32.5233 57.68 31.87 56.6533 31.7766 54.88C31.7766 53.1067 32.6633 51.66 34.4366 50.54C36.0233 49.7 38.2166 49.1867 41.0166 49C43.8166 48.8133 46.6633 48.9067 49.5566 49.28C52.5433 49.56 54.9233 50.2133 56.6966 51.24C58.75 52.2667 60.15 53.8067 60.8966 55.86C61.7366 57.82 62.1566 59.92 62.1566 62.16C62.25 64.4 62.11 66.5 61.7366 68.46C60.8966 71.7267 59.73 74.9 58.2366 77.98C56.8366 81.06 54.9233 84.1867 52.4966 87.36C51.0966 89.32 49.1833 91.3733 46.7566 93.52C44.33 95.6667 41.7633 97.58 39.0566 99.26C36.4433 101.033 33.97 102.433 31.6366 103.46C27.9033 105.14 23.9833 106.353 19.8766 107.1C15.8633 107.847 12.1766 106.96 8.81664 104.44ZM103.196 104.86C100.956 105.14 99.2297 105.28 98.0163 105.28C96.8963 105.28 95.823 105.14 94.7963 104.86C93.863 104.58 92.603 104.207 91.0163 103.74C89.7097 102.9 88.2163 101.733 86.5363 100.24C84.9497 98.7467 83.923 97.8133 83.4563 97.44C83.4563 96.9733 83.3163 96.6 83.0363 96.32C82.8497 96.04 82.7563 95.9 82.7563 95.9C82.383 95.9 82.0563 95.1067 81.7763 93.52C81.5897 91.84 81.4963 89.88 81.4963 87.64C81.5897 85.4 81.7297 83.3 81.9163 81.34C82.1963 79.38 82.523 78.0733 82.8963 77.42C82.8963 76.9533 82.9897 76.3933 83.1763 75.74C83.4563 74.9933 83.5963 74.3867 83.5963 73.92C83.5963 72.3333 83.8297 71.54 84.2963 71.54C84.2963 71.54 84.3897 71.54 84.5763 71.54C84.8563 71.4467 84.9963 71.26 84.9963 70.98C84.9963 70.42 85.183 69.6733 85.5563 68.74C85.9297 67.7133 86.2097 66.78 86.3963 65.94C86.863 65.1 87.423 63.6533 88.0763 61.6C88.823 59.5467 89.523 57.6333 90.1763 55.86C90.643 53.8067 91.2963 51.7533 92.1363 49.7C92.9763 47.6467 93.583 46.0133 93.9563 44.8C95.263 42.56 95.9163 40.88 95.9163 39.76C96.103 39.1067 96.7097 37.7533 97.7363 35.7C98.8563 33.5533 100.163 31.0333 101.656 28.14C103.15 25.2467 104.69 22.3067 106.276 19.32C107.863 16.3333 109.263 13.72 110.476 11.48C111.69 9.14666 112.576 7.56 113.136 6.72C114.723 4.29333 116.263 2.61333 117.756 1.68C119.25 0.746664 120.416 0.279998 121.256 0.279998C121.723 0.466662 122.376 0.979995 123.216 1.81999C124.15 2.66 124.99 3.59333 125.736 4.61999C126.576 5.55333 127.043 6.3 127.136 6.86C127.136 7.04666 126.81 7.84 126.156 9.24C125.503 10.64 124.663 12.18 123.636 13.86C122.61 15.4467 121.583 16.8 120.556 17.92C120.276 18.2933 120.09 18.62 119.996 18.9C119.996 19.18 119.996 19.32 119.996 19.32C119.996 19.32 119.67 19.88 119.016 21C118.456 22.0267 117.756 23.3333 116.916 24.92C116.076 26.4133 115.33 27.86 114.676 29.26C114.023 30.66 113.65 31.6867 113.556 32.34C112.996 32.9933 112.203 34.3467 111.176 36.4C110.243 38.36 109.31 40.5067 108.376 42.84C107.443 45.08 106.603 47.04 105.856 48.72C105.11 50.4 104.643 51.3333 104.456 51.52C104.456 51.9867 104.41 52.4533 104.316 52.92C104.316 53.2933 104.13 53.7133 103.756 54.18C103.476 54.8333 102.963 56.3267 102.216 58.66C101.563 60.9 100.63 63.2333 99.4163 65.66C98.763 68.46 97.9697 70.9333 97.0363 73.08C96.103 75.2267 95.403 76.5333 94.9363 77C94.563 77.9333 94.3763 78.4933 94.3763 78.68C94.3763 78.7733 94.563 78.7733 94.9363 78.68C95.403 78.2133 95.6363 78.1667 95.6363 78.54C95.6363 78.82 95.403 79.3333 94.9363 80.08C94.563 81.0133 94.3297 82.04 94.2363 83.16C94.2363 84.1867 94.2363 85.3533 94.2363 86.66C94.3297 88.5267 94.7963 89.9267 95.6363 90.86C96.5697 91.7933 98.0163 92.26 99.9763 92.26C103.15 92.1667 105.903 91.9333 108.236 91.56C110.663 91.1867 112.716 90.8133 114.396 90.44C117.476 89.4133 120.136 89.1333 122.376 89.6C124.71 89.9733 126.343 90.7667 127.276 91.98C127.836 92.82 128.163 93.8467 128.256 95.06C128.35 96.18 128.396 96.9733 128.396 97.44C128.116 97.8133 126.95 98.3733 124.896 99.12C122.936 99.96 120.556 100.8 117.756 101.64C114.956 102.48 112.203 103.18 109.496 103.74C106.883 104.393 104.783 104.767 103.196 104.86ZM161.191 102.9C157.738 100.38 154.985 98.0467 152.931 95.9C150.971 93.66 149.898 91.5133 149.711 89.46C149.525 87.78 149.525 85.4933 149.711 82.6C149.991 79.7067 150.318 76.86 150.691 74.06C151.065 71.26 151.391 69.16 151.671 67.76C152.138 67.2933 152.325 66.6867 152.231 65.94C152.231 65.1 152.231 64.68 152.231 64.68C152.138 64.2133 152.465 63 153.211 61.04C153.958 58.9867 154.658 56.3733 155.311 53.2C157.178 47.6 158.951 42.9333 160.631 39.2C162.405 35.3733 164.131 32.1067 165.811 29.4C167.491 26.6933 169.171 24.22 170.851 21.98C174.678 18.06 178.271 14.9333 181.631 12.6C185.085 10.2667 188.258 8.44666 191.151 7.13999C193.018 6.02 194.745 5.13333 196.331 4.47999C197.918 3.82666 199.225 3.73333 200.251 4.2C205.478 5.31999 209.911 7.60666 213.551 11.06C217.191 14.5133 219.618 19.5067 220.831 26.04C221.485 30.1467 221.858 33.88 221.951 37.24C222.138 40.5067 221.905 43.7733 221.251 47.04C220.598 50.2133 219.385 53.7133 217.611 57.54C215.931 61.3667 213.551 65.8467 210.471 70.98C206.645 78.54 202.445 84.8867 197.871 90.02C193.391 95.06 188.865 98.8867 184.291 101.5C179.811 104.113 175.518 105.513 171.411 105.7C167.398 105.98 163.991 105.047 161.191 102.9ZM172.391 93.66C174.538 93.38 176.265 92.96 177.571 92.4C178.971 91.84 180.418 90.7667 181.911 89.18C183.405 87.5933 185.505 85.26 188.211 82.18C190.638 79.38 192.645 77 194.231 75.04C195.911 73.08 197.311 71.0733 198.431 69.02C199.645 66.9667 200.765 64.54 201.791 61.74C202.911 58.8467 204.125 55.16 205.431 50.68C206.178 47.88 206.691 45.8267 206.971 44.52C207.345 43.12 207.578 41.9533 207.671 41.02C207.765 40.0867 207.765 38.8267 207.671 37.24C207.671 35.56 207.671 33.04 207.671 29.68C207.578 28.0933 207.251 26.32 206.691 24.36C206.131 22.3067 205.478 20.86 204.731 20.02C203.798 18.9933 202.398 18.1067 200.531 17.36C198.665 16.6133 196.705 16.7067 194.651 17.64C193.531 18.1067 192.131 19.0867 190.451 20.58C188.771 21.98 187.045 23.66 185.271 25.62C183.498 27.58 181.818 29.54 180.231 31.5C178.645 33.46 177.385 35.2333 176.451 36.82C175.518 38.4067 175.051 39.5267 175.051 40.18C175.051 40.18 175.005 40.4133 174.911 40.88C174.911 41.3467 174.725 41.8133 174.351 42.28C173.138 43.5867 171.878 45.7333 170.571 48.72C169.265 51.7067 168.051 55.1133 166.931 58.94C165.811 62.7667 164.878 66.5933 164.131 70.42C163.385 74.2467 162.918 77.7 162.731 80.78C162.731 82.2733 162.731 83.5333 162.731 84.56C162.731 85.5867 162.825 86.52 163.011 87.36C163.291 88.1067 163.711 88.9467 164.271 89.88C164.831 90.8133 165.951 91.7467 167.631 92.68C169.405 93.6133 170.991 93.94 172.391 93.66ZM230.055 103.74C229.682 103.74 229.168 103.227 228.515 102.2C227.955 101.173 227.675 100.473 227.675 100.1C227.675 99.6333 227.582 99.4 227.395 99.4C226.648 99.4 226.228 98.7 226.135 97.3C226.042 95.9 226.368 94.8733 227.115 94.22C227.302 94.22 227.395 93.6133 227.395 92.4C227.395 91.84 227.442 91.3733 227.535 91C227.722 90.6267 227.768 90.2533 227.675 89.88C227.675 89.6 227.768 89.18 227.955 88.62C228.235 88.06 228.375 87.5933 228.375 87.22C228.375 86.8467 228.562 86.2867 228.935 85.54C229.402 84.7933 229.775 84.0933 230.055 83.44C230.335 82.9733 230.662 82.18 231.035 81.06C231.408 79.94 231.782 78.9133 232.155 77.98C232.155 77.7933 232.528 77 233.275 75.6C234.115 74.2 234.768 72.66 235.235 70.98C235.608 69.58 235.935 68.1333 236.215 66.64C236.495 65.0533 236.635 64.1667 236.635 63.98C236.635 63.42 236.635 62.9533 236.635 62.58C236.635 62.2067 236.635 62.02 236.635 62.02C237.382 62.02 237.755 61.88 237.755 61.6C238.128 61.2267 238.315 61.04 238.315 61.04C238.408 60.9467 238.455 60.9 238.455 60.9C238.455 60.9 238.502 60.6667 238.595 60.2C238.688 59.64 239.062 59.1733 239.715 58.8C240.555 57.7733 241.022 57.0733 241.115 56.7C241.302 56.3267 241.395 56 241.395 55.72C241.395 55.72 242.002 54.0867 243.215 50.82C244.428 47.46 246.388 42.6533 249.095 36.4C250.682 33.88 251.848 31.5933 252.595 29.54C253.342 27.4867 253.948 26.1333 254.415 25.48C255.162 23.7067 255.535 22.26 255.535 21.14C255.535 21.14 255.488 21.14 255.395 21.14C255.395 21.14 255.302 21.14 255.115 21.14C254.275 21.6067 253.435 21.28 252.595 20.16C251.755 19.04 250.775 18.0133 249.655 17.08C249.002 16.3333 248.862 15.54 249.235 14.7C249.608 13.7667 249.795 13.2533 249.795 13.16C249.795 12.88 250.542 12.3667 252.035 11.62C253.528 10.78 255.208 9.98666 257.075 9.24C258.942 8.4 260.435 7.84 261.555 7.56C262.675 7 264.168 6.72 266.035 6.72C267.995 6.72 269.955 6.86 271.915 7.13999C273.875 7.42 275.462 7.7 276.675 7.98C279.755 8.63333 282.928 10.0333 286.195 12.18C289.462 14.3267 291.842 16.9867 293.335 20.16C294.082 21.4667 294.642 23.24 295.015 25.48C295.482 27.72 295.715 30.1 295.715 32.62C295.808 35.0467 295.575 37.1933 295.015 39.06C294.362 40.8333 293.242 42.9333 291.655 45.36C290.068 47.6933 288.342 50.0267 286.475 52.36C284.608 54.6 282.882 56.4667 281.295 57.96C279.708 59.4533 278.588 60.2 277.935 60.2C277.282 60.2 276.908 60.2 276.815 60.2C276.722 60.2 276.675 60.2 276.675 60.2C276.675 60.2933 276.255 60.62 275.415 61.18C274.668 61.6467 273.735 62.2067 272.615 62.86C271.495 63.42 270.375 63.9333 269.255 64.4C268.135 64.8667 267.295 65.1467 266.735 65.24C266.082 65.24 265.568 65.2867 265.195 65.38C264.822 65.4733 264.495 65.8 264.215 66.36C263.655 67.2933 263.328 68.0867 263.235 68.74C263.235 69.3 263.328 70.3733 263.515 71.96C263.982 73.08 264.635 74.48 265.475 76.16C266.315 77.7467 267.108 79.1933 267.855 80.5C268.695 81.7133 269.208 82.32 269.395 82.32C269.768 82.32 270.282 82.5067 270.935 82.88C271.588 83.2533 272.242 83.86 272.895 84.7C274.762 85.9133 276.302 87.08 277.515 88.2C278.728 89.2267 279.288 89.4133 279.195 88.76C279.195 88.48 279.615 88.1533 280.455 87.78C281.295 87.4067 282.228 87.1733 283.255 87.08C284.842 87.08 285.962 87.4067 286.615 88.06C287.362 88.62 287.782 88.9 287.875 88.9C287.875 88.9 287.875 89.18 287.875 89.74C287.968 90.3 288.062 90.9533 288.155 91.7C288.155 92.82 287.688 94.1267 286.755 95.62C285.822 97.1133 284.702 98.42 283.395 99.54C282.182 100.753 280.968 101.407 279.755 101.5C276.582 101.873 273.268 101.033 269.815 98.98C266.362 96.9267 263.095 93.9867 260.015 90.16C256.935 86.24 254.368 81.8067 252.315 76.86C251.662 74.7133 251.335 73.1267 251.335 72.1C251.428 70.98 250.775 70.5133 249.375 70.7C248.255 70.7 247.648 70.8867 247.555 71.26C247.462 71.54 247.042 72.6133 246.295 74.48C246.202 75.2267 246.108 75.9267 246.015 76.58C246.015 77.14 245.782 77.42 245.315 77.42C245.315 77.42 245.082 77.98 244.615 79.1C244.148 80.1267 243.588 81.2933 242.935 82.6C242.748 83.8133 242.422 84.9333 241.955 85.96C241.582 86.8933 241.395 87.5467 241.395 87.92C241.395 88.9467 241.348 89.6467 241.255 90.02C241.162 90.3933 240.882 90.58 240.415 90.58C240.508 90.9533 240.462 91.3267 240.275 91.7C240.088 92.0733 239.995 92.54 239.995 93.1C239.995 93.1933 239.948 93.6133 239.855 94.36C239.855 95.0133 239.762 95.8067 239.575 96.74C239.202 97.6733 238.782 98.3267 238.315 98.7C237.942 99.1667 237.802 99.6333 237.895 100.1C237.895 100.567 237.382 101.127 236.355 101.78C235.422 102.433 234.302 102.947 232.995 103.32C231.782 103.787 230.802 103.927 230.055 103.74ZM255.115 55.44C255.768 57.5867 257.635 57.4933 260.715 55.16C263.888 54.04 266.082 53.1067 267.295 52.36C268.602 51.52 269.722 50.7733 270.655 50.12C271.495 49.6533 272.195 49.14 272.755 48.58C273.315 47.9267 273.595 47.6 273.595 47.6C274.248 47.5067 275.088 46.9933 276.115 46.06C277.235 45.1267 278.355 43.9133 279.475 42.42C280.595 40.9267 281.528 39.34 282.275 37.66C283.115 36.1667 283.582 35.0933 283.675 34.44C283.862 33.7867 283.908 33.1333 283.815 32.48C283.722 31.8267 283.675 30.8467 283.675 29.54C283.208 27.86 282.742 26.5067 282.275 25.48C281.902 24.36 281.248 23.4267 280.315 22.68C279.475 21.84 278.028 21.0467 275.975 20.3C274.575 19.5533 272.895 19.1333 270.935 19.04C268.975 18.9467 267.342 19.0867 266.035 19.46C264.822 19.74 264.448 20.2533 264.915 21C265.288 22.5867 265.755 24.1267 266.315 25.62C266.875 27.02 266.735 28.3733 265.895 29.68C265.895 30.52 265.242 32.3867 263.935 35.28C262.628 38.1733 261.368 41.2533 260.155 44.52C258.568 48.16 257.308 50.82 256.375 52.5C255.535 54.18 255.115 55.16 255.115 55.44ZM336.176 61.74L331.276 55.58C329.409 52.78 327.916 50.1667 326.796 47.74C325.676 45.3133 324.883 42.3267 324.416 38.78C323.763 36.54 323.343 34.44 323.156 32.48C322.969 30.52 322.876 28.28 322.876 25.76C322.969 23.1467 323.063 19.9267 323.156 16.1C323.249 12.5533 323.809 9.66 324.836 7.42C325.863 5.08666 326.563 3.54666 326.936 2.8C328.896 1.12 330.483 0.79333 331.696 1.81999C333.003 2.84666 333.936 4.57333 334.496 6.99999C335.149 9.42666 335.429 11.9933 335.336 14.7C335.616 24.6867 336.223 32.2467 337.156 37.38C338.183 42.5133 339.443 45.6867 340.936 46.9C342.056 47.18 343.036 47.0867 343.876 46.62C344.716 46.06 345.789 45.0333 347.096 43.54C348.496 41.9533 350.409 39.9 352.836 37.38C355.449 34.6733 358.063 31.8267 360.676 28.84C363.289 25.76 365.763 22.82 368.096 20.02C370.523 17.22 372.669 14.7933 374.536 12.74C376.496 10.6867 378.036 9.33333 379.156 8.68C379.529 8.11999 380.183 7.65333 381.116 7.28C382.049 6.81333 382.936 6.48666 383.776 6.3C384.709 6.01999 385.176 5.87999 385.176 5.87999C385.923 6.06666 386.343 6.67333 386.436 7.69999C386.529 8.63333 386.903 9.56666 387.556 10.5C387.743 10.8733 388.163 11.4333 388.816 12.18C389.469 12.9267 389.749 13.5333 389.656 14C389.656 14.28 389.236 14.9333 388.396 15.96C387.556 16.8933 386.669 17.8267 385.736 18.76C384.803 19.6933 384.103 20.3933 383.636 20.86C382.423 21.8867 380.509 23.7067 377.896 26.32C375.376 28.84 372.763 31.5933 370.056 34.58C367.349 37.4733 365.063 40.0867 363.196 42.42C359.089 47.18 355.403 51.2867 352.136 54.74C348.963 58.1933 347.003 60.2467 346.256 60.9C346.163 61.0867 345.556 61.2267 344.436 61.32C343.316 61.32 342.523 61.6933 342.056 62.44L336.176 61.74ZM328.336 108.64C327.963 108.547 327.169 108.127 325.956 107.38C324.836 106.633 323.809 105.933 322.876 105.28C322.223 104.533 321.803 103.74 321.616 102.9C321.523 102.06 321.663 100.94 322.036 99.54C322.409 98.14 322.923 96.18 323.576 93.66C323.669 91.5133 324.089 88.9 324.836 85.82C325.676 82.74 326.656 80.1733 327.776 78.12C327.776 77.0933 328.009 75.6933 328.476 73.92C328.943 72.1467 329.503 70.3267 330.156 68.46C330.903 66.5 331.556 64.82 332.116 63.42L334.636 56.14L340.236 51.38L347.516 56.42C347.143 56.98 346.816 57.6333 346.536 58.38C346.256 59.1267 345.883 60.3867 345.416 62.16C344.949 63.9333 344.249 66.6867 343.316 70.42C342.569 72.94 341.729 75.6467 340.796 78.54C339.956 81.4333 339.163 84.14 338.416 86.66C337.669 89.18 337.016 91.2333 336.456 92.82C335.336 97.02 334.309 100.333 333.376 102.76C332.536 105.187 331.696 106.82 330.856 107.66C330.109 108.593 329.269 108.92 328.336 108.64ZM397.763 73.92C397.203 73.92 396.503 73.92 395.663 73.92C394.823 73.8267 393.89 73.5933 392.863 73.22C391.463 73.22 390.343 72.94 389.503 72.38C388.756 71.7267 388.196 71.0733 387.823 70.42C386.796 69.02 386.843 67.9467 387.963 67.2C389.176 66.36 391.51 65.7533 394.963 65.38C396.55 65.0067 398.883 64.7267 401.963 64.54C405.136 64.26 408.543 64.0733 412.183 63.98C415.823 63.7933 419.276 63.6533 422.543 63.56C425.81 63.4667 428.376 63.42 430.243 63.42C432.67 63.42 434.816 63.6533 436.683 64.12C438.643 64.5867 440.136 65.3333 441.163 66.36C442.563 67.76 442.89 69.2533 442.143 70.84C441.396 72.3333 439.95 72.8933 437.803 72.52C437.336 72.52 436.45 72.5667 435.143 72.66C433.836 72.7533 432.39 72.8467 430.803 72.94C429.31 73.0333 428.003 73.1267 426.883 73.22C426.323 73.22 424.783 73.2667 422.263 73.36C419.743 73.4533 416.803 73.5467 413.443 73.64C410.176 73.7333 407.05 73.8267 404.063 73.92C401.17 73.92 399.07 73.92 397.763 73.92ZM416.523 95.76C415.123 96.7867 414.003 96.74 413.163 95.62C412.416 94.4067 411.856 92.0733 411.483 88.62C411.11 87.0333 410.783 84.7 410.503 81.62C410.316 78.4467 410.13 75.04 409.943 71.4C409.85 67.76 409.756 64.3067 409.663 61.04C409.57 57.7733 409.523 55.2067 409.523 53.34C409.523 50.9133 409.756 48.7667 410.223 46.9C410.69 44.94 411.39 43.4467 412.323 42.42C413.723 41.02 415.216 40.6933 416.803 41.44C418.39 42.1867 418.996 43.6333 418.623 45.78C418.716 46.2467 418.763 47.1333 418.763 48.44C418.856 49.7467 418.95 51.1933 419.043 52.78C419.136 54.2733 419.23 55.58 419.323 56.7C419.323 57.26 419.37 58.8 419.463 61.32C419.556 63.84 419.65 66.78 419.743 70.14C419.836 73.4067 419.883 76.5333 419.883 79.52C419.976 82.4133 420.023 84.5133 420.023 85.82C420.023 86.38 419.976 87.08 419.883 87.92C419.883 88.76 419.696 89.6933 419.323 90.72C419.323 92.12 418.996 93.24 418.343 94.08C417.783 94.8267 417.176 95.3867 416.523 95.76Z" fill="#EEB690"/>
</svg>
