<svg width="1049" height="114" viewBox="0 0 1049 114" fill="none" xmlns="http://www.w3.org/2000/svg">
<path d="M44.4 72.2H32.64C35.16 73.52 37.92 74.9 40.62 76.4C42.06 75.14 43.32 73.76 44.4 72.2ZM48.66 67.28L52.56 68.66C51.06 73.04 48.84 76.52 45.96 79.34C48.66 80.84 51.12 82.34 52.92 83.54L49.32 88.28C47.28 86.84 44.4 84.98 41.16 83.06C37.38 85.4 32.76 87.08 27.78 88.22C27.18 86.66 25.92 84.38 24.78 83.06C28.68 82.4 32.34 81.26 35.46 79.7C32.52 78.08 29.7 76.46 27.12 75.08L29.52 72.2H28.08V67.46H47.58L48.66 67.28ZM51.78 38.48L56.94 42.14C54.66 44.18 52.08 46.1 49.86 47.66C52.5 49.04 55.38 50.18 58.44 51.02C56.94 52.4 55.14 54.92 54.18 56.66C51.72 55.88 49.5 54.92 47.34 53.78V58.94C47.34 60.38 47.46 60.86 48.24 60.86H51.18C52.02 60.86 53.46 60.8 54.24 60.56C54.36 62 54.48 64.04 54.72 65.42C53.88 65.72 52.5 65.78 51.24 65.78H47.52C42.48 65.78 41.52 63.74 41.52 58.88V55.4H36C35.82 59.6 34.38 64.1 29.4 67.28C28.74 66.26 27 64.52 25.8 63.44V65.24H13.92C13.68 66.62 13.5 68.06 13.32 69.38H25.8C25.8 69.38 25.74 71.06 25.68 71.9C25.02 80 24.3 83.84 22.74 85.4C21.48 86.78 20.04 87.26 17.94 87.38C16.32 87.56 13.2 87.56 10.02 87.44C9.9 85.58 9.06 83.12 7.98 81.5C10.98 81.74 13.92 81.8 15.24 81.8C16.2 81.8 16.86 81.74 17.4 81.2C18.12 80.54 18.66 78.62 19.08 74.54H6.48C7.32 70.64 8.28 64.7 8.82 59.96H19.44V55.76H10.74V54.8C8.94 55.7 7.14 56.48 5.28 57.14C4.44 55.58 2.7 53.18 1.44 51.92C4.98 50.9 8.4 49.28 11.52 47.3C9.9 46.1 7.74 44.72 5.94 43.7L10.02 39.92C12.06 40.94 14.58 42.38 16.32 43.7C17.58 42.5 18.78 41.24 19.8 39.86H7.98V34.28H23.64L24.84 33.98L29.22 36.14C26.82 42.02 22.8 46.7 17.94 50.36H25.8V62.3C29.52 59.84 30.06 56.96 30.06 54.26V50H41.52C36.3 45.86 32.28 40.52 29.4 34.1L35.1 32.42C36 34.46 37.14 36.38 38.52 38.06C40.5 36.38 42.72 34.22 44.16 32.54L49.26 36.2C46.8 38.24 44.22 40.4 41.94 42.02C42.96 42.98 44.04 43.88 45.12 44.72C47.4 42.92 50.16 40.4 51.78 38.48ZM120.78 35.6V42.38H91.62V35.6H120.78ZM80.1 32.18L87 35C82.68 40.64 76.2 46.82 70.5 50.78C69.6 49.22 67.8 46.34 66.54 44.96C71.52 41.78 77.22 36.38 80.1 32.18ZM82.38 45.14L89.22 47.78C87.42 50.84 85.2 53.96 82.8 56.96V88.28H75.66V64.82C73.98 66.44 72.36 67.94 70.74 69.26C69.72 67.82 67.32 64.58 65.88 63.08C72 58.88 78.54 51.92 82.38 45.14ZM122.28 52.1V58.88H114.06V79.94C114.06 83.78 113.34 85.76 110.7 86.84C108.18 87.92 104.34 88.04 99 88.04C98.7 85.94 97.8 82.88 96.84 80.78C100.26 80.96 104.22 80.96 105.3 80.9C106.38 80.9 106.8 80.66 106.8 79.76V58.88H89.1V52.1H122.28ZM148.8 68.6H159.18V59.48H148.8V68.6ZM187.08 68.6V75.44H166.56V88.28H159.18V75.44H132.18V68.6H141.66V52.82H159.18V45.68H146.34C143.88 49.94 141 53.78 138.18 56.6C136.8 55.4 133.74 53 132 51.98C137.4 47.42 142.02 39.74 144.6 32L151.86 33.86C151.32 35.54 150.66 37.16 149.88 38.78H183.78V45.68H166.56V52.82H182.4V59.48H166.56V68.6H187.08ZM208.86 32.36L215.58 34.52C213.96 38.66 212.04 42.92 209.82 47V88.1H202.8V57.86C201.54 59.48 200.28 60.92 199.02 62.3C198.36 60.5 196.44 56.6 195.18 54.86C200.58 49.46 205.86 40.94 208.86 32.36ZM231.24 33.92H241.98C243.66 41.12 247.62 48.26 252.84 52.16C251.52 53.84 249.42 57.44 248.46 59.78C247.62 59 246.84 58.22 246.12 57.38C246.06 58.04 246.06 58.88 246.06 59.36C245.34 76.22 244.68 82.76 242.94 84.92C241.74 86.6 240.42 87.14 238.62 87.44C237.06 87.74 234.6 87.8 231.9 87.68C231.72 85.7 231.06 82.94 230.04 81.2C232.08 81.44 233.94 81.44 234.96 81.44C235.8 81.44 236.28 81.26 236.82 80.6C237.78 79.34 238.38 74.78 238.92 63.08H231.36C229.8 75.14 225.66 83 216.9 87.92C216.06 86.54 213.6 83.84 212.16 82.64C219.78 79.04 223.26 72.56 224.4 63.08H218.88V56.9C218.1 57.8 217.26 58.64 216.42 59.36C215.58 57.8 213.3 54.38 212.04 52.88C216.9 48.68 220.68 42.08 222.72 34.88L229.74 36.68C227.52 44.12 223.86 51.26 219.24 56.48H245.34C241.62 51.98 238.56 46.28 236.58 40.76H231.24V33.92Z" fill="#594A39"/>
<path d="M278.58 83V77.9C290.64 67.1 297.78 58.76 297.78 51.92C297.78 47.42 295.38 44.72 291.12 44.72C287.88 44.72 285.24 46.82 282.96 49.28L278.16 44.48C282.24 40.1 286.2 37.76 292.26 37.76C300.66 37.76 306.24 43.16 306.24 51.44C306.24 59.48 299.58 68.12 291.48 76.04C293.7 75.8 296.64 75.56 298.74 75.56H308.34V83H278.58ZM333.832 83.84C324.772 83.84 318.772 75.92 318.772 60.62C318.772 45.26 324.772 37.76 333.832 37.76C342.892 37.76 348.832 45.32 348.832 60.62C348.832 75.92 342.892 83.84 333.832 83.84ZM333.832 76.94C337.672 76.94 340.492 73.1 340.492 60.62C340.492 48.2 337.672 44.6 333.832 44.6C329.992 44.6 327.112 48.2 327.112 60.62C327.112 73.1 329.992 76.94 333.832 76.94ZM361.184 83V75.86H370.724V47.78H362.684V42.32C367.124 41.48 370.184 40.34 373.004 38.54H379.544V75.86H387.884V83H361.184ZM414.876 61.28C412.476 61.28 409.656 62.6 407.616 65.96C408.456 74.06 411.456 77.18 415.176 77.18C418.476 77.18 421.236 74.42 421.236 68.96C421.236 63.74 418.716 61.28 414.876 61.28ZM415.356 83.84C406.896 83.84 399.396 77.06 399.396 61.4C399.396 44.84 407.616 37.76 416.556 37.76C422.016 37.76 425.916 40.04 428.616 42.8L423.936 48.08C422.376 46.28 419.676 44.84 417.096 44.84C411.996 44.84 407.796 48.68 407.436 59.84C409.836 56.84 413.676 55.04 416.556 55.04C423.996 55.04 429.276 59.48 429.276 68.96C429.276 78.08 422.916 83.84 415.356 83.84Z" fill="#EEB690"/>
<path d="M560.92 33.98V47.12H530.32V33.98H536.68V41.36H542.26V32.24H548.56V41.36H554.2V33.98H560.92ZM521.56 74.72V59.66H517.24V74.72H521.56ZM526.84 80.96H517.24V85.4H511.36V66.74C510.58 67.88 509.74 69.02 508.9 70.04C508.66 68.12 507.4 63.62 506.44 61.52C510.16 56.6 512.62 49.22 514.18 41.3H507.76V34.82H528.16V41.3H520.78C519.94 45.44 518.92 49.52 517.54 53.42H526.84V80.96ZM544.06 69.74L539.32 72.86C538.6 71.24 537.22 68.78 535.78 66.44C535.42 73.7 534.16 82.4 530.38 88.34C529.24 87.26 526.42 85.46 524.92 84.8C529.18 77.96 529.6 68.42 529.6 61.64V49.88H562.36V55.82H535.9V61.64V62.78L538.6 61.16C540.4 63.92 542.86 67.58 544.06 69.74ZM555.4 72.38L551.74 69.56C554.2 75.32 558.04 80.24 563.38 82.82C561.94 83.96 560.14 86.24 559.18 87.86C554.74 85.22 551.26 81.02 548.68 75.92C546.88 81.14 543.52 85.22 537.7 88.22C536.98 86.6 535.18 84.14 533.68 83C543.76 78.26 544.72 69.98 545.14 58.1H551.32C551.2 61.16 551.02 64.1 550.72 66.74C551.02 67.64 551.32 68.54 551.68 69.38C553.6 67.1 556.18 63.38 557.56 60.8L562.84 64.58C560.02 67.28 557.5 70.4 555.4 72.38ZM586.48 41.54V49.76H613.96V41.54H586.48ZM603.94 70.52V80.12C606.82 80.6 610 80.78 613.24 80.78C615.82 80.84 624.7 80.78 628 80.72C627.04 82.34 625.9 85.64 625.54 87.62H612.82C600.76 87.62 591.46 85.46 585.22 76.28C583.24 80.9 580.66 85.04 577 88.04C575.92 86.6 573.46 84.26 571.96 83.18C578.44 78.08 581.08 68.3 581.92 60.14L589.36 60.98C589 63.32 588.52 65.72 587.92 68.12C589.84 72.86 592.9 75.86 596.56 77.78V56.54H579.34V34.7H621.58V56.54H603.94V63.92H623.5V70.52H603.94ZM645.22 40.34V48.44H652V40.34H645.22ZM658.6 73.46L659.26 79.4C651.64 81.38 643.54 83.36 637.36 84.86L636.04 78.38L638.86 77.84V58.52H644.38V76.64L646.9 76.1V54.38H639.34V34.4H658.24V54.38H652.84V60.86H658.42V66.56C660.04 62.9 661.06 58.4 661.72 53.96L667.66 55.04C666.46 62.06 664.36 69.02 661.54 73.46C660.46 72.5 657.82 70.88 656.44 70.16C657.1 69.26 657.7 68.12 658.24 66.92H652.84V74.72L658.6 73.46ZM693.52 70.7L687.52 73.22C687.1 69.26 685.54 63.56 683.62 58.52V80.54C683.62 83.9 683.08 85.82 681.04 86.9C679.06 88.04 676.18 88.22 672.1 88.22C671.92 86.3 671.14 83.36 670.24 81.38C672.64 81.5 675.16 81.5 675.94 81.5C676.72 81.44 677.02 81.2 677.02 80.48V48.32H674.2V57.8C674.2 68.18 672.58 79.76 661.18 88.22C660.1 86.72 657.94 84.86 656.26 83.6C666.76 76.04 668.14 66.08 668.14 57.8V48.32H659.68V41.54H673.54C672.88 39.2 671.62 36.14 670.48 33.74L676.96 31.94C678.52 34.64 680.2 38.36 680.74 40.7L678.1 41.54H692.38V48.32H683.62V54.98L687.88 53.24C690.58 58.76 692.8 65.9 693.52 70.7Z" fill="#594A39"/>
<path d="M729.5 53.24C729.5 58.1 731.96 60.32 735.86 60.32C738.2 60.32 741.02 58.94 743.06 55.58C742.16 48.32 739.16 45.56 735.5 45.56C732.2 45.56 729.5 48.08 729.5 53.24ZM734.18 83.84C728.72 83.84 724.7 81.5 722.12 78.8L726.8 73.46C728.36 75.26 731.06 76.64 733.64 76.64C738.74 76.64 742.94 72.92 743.3 61.76C740.84 64.82 737.06 66.62 734.18 66.62C726.74 66.62 721.4 62.3 721.4 53.24C721.4 44.42 727.76 38.9 735.38 38.9C743.78 38.9 751.34 45.32 751.34 60.2C751.34 76.7 743.12 83.84 734.18 83.84ZM776.832 83.84C767.712 83.84 761.772 75.86 761.772 61.16C761.772 46.52 767.712 38.9 776.832 38.9C785.952 38.9 791.832 46.58 791.832 61.16C791.832 75.86 785.952 83.84 776.832 83.84ZM776.832 76.94C780.672 76.94 783.492 73.22 783.492 61.16C783.492 49.16 780.672 45.8 776.832 45.8C772.992 45.8 770.112 49.16 770.112 61.16C770.112 73.22 772.992 76.94 776.832 76.94ZM816.964 83.84C807.844 83.84 801.904 75.86 801.904 61.16C801.904 46.52 807.844 38.9 816.964 38.9C826.084 38.9 831.964 46.58 831.964 61.16C831.964 75.86 826.084 83.84 816.964 83.84ZM816.964 76.94C820.804 76.94 823.624 73.22 823.624 61.16C823.624 49.16 820.804 45.8 816.964 45.8C813.124 45.8 810.244 49.16 810.244 61.16C810.244 73.22 813.124 76.94 816.964 76.94ZM855.956 97.58C848.036 97.58 841.916 94.88 841.916 88.94C841.916 86.12 843.656 83.72 846.716 81.98V81.68C844.976 80.54 843.656 78.8 843.656 76.04C843.656 73.52 845.396 71.18 847.436 69.74V69.5C845.096 67.82 842.936 64.64 842.936 60.68C842.936 52.82 849.356 48.56 856.496 48.56C858.356 48.56 860.156 48.92 861.536 49.4H873.656V55.88H867.956C868.796 57.02 869.456 58.88 869.456 60.98C869.456 68.54 863.696 72.38 856.496 72.38C855.176 72.38 853.616 72.08 852.176 71.6C851.276 72.38 850.736 73.1 850.736 74.48C850.736 76.28 852.056 77.24 856.016 77.24H861.716C869.816 77.24 874.256 79.76 874.256 85.64C874.256 92.42 867.176 97.58 855.956 97.58ZM856.496 66.92C859.436 66.92 861.776 64.7 861.776 60.68C861.776 56.78 859.496 54.56 856.496 54.56C853.496 54.56 851.216 56.78 851.216 60.68C851.216 64.7 853.556 66.92 856.496 66.92ZM857.276 92C862.316 92 865.796 89.78 865.796 87.14C865.796 84.74 863.816 84.14 860.216 84.14H856.136C854.096 84.14 852.656 83.96 851.456 83.66C849.956 84.86 849.296 86.18 849.296 87.56C849.296 90.38 852.416 92 857.276 92ZM921.971 83.84C910.751 83.84 901.631 75.8 901.631 60.98C901.631 46.34 911.051 37.76 922.271 37.76C927.911 37.76 932.411 40.46 935.291 43.46L930.671 49.1C928.391 46.94 925.811 45.38 922.451 45.38C915.731 45.38 910.691 51.14 910.691 60.68C910.691 70.34 915.251 76.16 922.271 76.16C926.111 76.16 929.051 74.36 931.451 71.78L936.131 77.3C932.471 81.56 927.731 83.84 921.971 83.84ZM963.38 83.84C951.62 83.84 943.52 75.02 943.52 60.62C943.52 46.16 951.62 37.76 963.38 37.76C975.14 37.76 983.24 46.22 983.24 60.62C983.24 75.02 975.14 83.84 963.38 83.84ZM963.38 76.16C969.98 76.16 974.18 70.1 974.18 60.62C974.18 51.08 969.98 45.38 963.38 45.38C956.78 45.38 952.58 51.08 952.58 60.62C952.58 70.1 956.78 76.16 963.38 76.16ZM992.714 83V80.11C999.548 73.99 1003.59 69.264 1003.59 65.388C1003.59 62.838 1002.23 61.308 999.82 61.308C997.984 61.308 996.488 62.498 995.196 63.892L992.476 61.172C994.788 58.69 997.032 57.364 1000.47 57.364C1005.23 57.364 1008.39 60.424 1008.39 65.116C1008.39 69.672 1004.61 74.568 1000.02 79.056C1001.28 78.92 1002.95 78.784 1004.14 78.784H1009.58V83H992.714ZM1033.37 83.84C1023.95 83.84 1016.63 77.3 1016.63 66.2C1016.63 55.34 1024.31 48.56 1032.29 48.56C1041.53 48.56 1046.33 55.34 1046.33 64.58C1046.33 66.26 1046.15 67.88 1045.91 68.66H1025.21C1025.93 74.18 1029.53 77.06 1034.51 77.06C1037.27 77.06 1039.67 76.22 1042.07 74.72L1045.07 80.12C1041.77 82.4 1037.51 83.84 1033.37 83.84ZM1025.09 62.78H1038.77C1038.77 58.28 1036.73 55.4 1032.41 55.4C1028.87 55.4 1025.75 57.92 1025.09 62.78Z" fill="#EEB690"/>
</svg>
