<svg width="1104" height="130" viewBox="0 0 1104 130" fill="none" xmlns="http://www.w3.org/2000/svg">
<path d="M14.8542 62.74L9.95417 56.58C8.0875 53.78 6.59417 51.1667 5.47417 48.74C4.35417 46.3133 3.56083 43.3267 3.09417 39.78C2.44083 37.54 2.02083 35.44 1.83417 33.48C1.6475 31.52 1.55417 29.28 1.55417 26.76C1.6475 24.1467 1.74083 20.9267 1.83417 17.1C1.9275 13.5533 2.4875 10.66 3.51417 8.42C4.54083 6.08666 5.24083 4.54666 5.61417 3.8C7.57417 2.12 9.16083 1.79333 10.3742 2.81999C11.6808 3.84666 12.6142 5.57333 13.1742 7.99999C13.8275 10.4267 14.1075 12.9933 14.0142 15.7C14.2942 25.6867 14.9008 33.2467 15.8342 38.38C16.8608 43.5133 18.1208 46.6867 19.6142 47.9C20.7342 48.18 21.7142 48.0867 22.5542 47.62C23.3942 47.06 24.4675 46.0333 25.7742 44.54C27.1742 42.9533 29.0875 40.9 31.5142 38.38C34.1275 35.6733 36.7408 32.8267 39.3542 29.84C41.9675 26.76 44.4408 23.82 46.7742 21.02C49.2008 18.22 51.3475 15.7933 53.2142 13.74C55.1742 11.6867 56.7142 10.3333 57.8342 9.68C58.2075 9.11999 58.8608 8.65333 59.7942 8.28C60.7275 7.81333 61.6142 7.48666 62.4542 7.3C63.3875 7.01999 63.8542 6.87999 63.8542 6.87999C64.6008 7.06666 65.0208 7.67333 65.1142 8.69999C65.2075 9.63333 65.5808 10.5667 66.2342 11.5C66.4208 11.8733 66.8408 12.4333 67.4942 13.18C68.1475 13.9267 68.4275 14.5333 68.3342 15C68.3342 15.28 67.9142 15.9333 67.0742 16.96C66.2342 17.8933 65.3475 18.8267 64.4142 19.76C63.4808 20.6933 62.7808 21.3933 62.3142 21.86C61.1008 22.8867 59.1875 24.7067 56.5742 27.32C54.0542 29.84 51.4408 32.5933 48.7342 35.58C46.0275 38.4733 43.7408 41.0867 41.8742 43.42C37.7675 48.18 34.0808 52.2867 30.8142 55.74C27.6408 59.1933 25.6808 61.2467 24.9342 61.9C24.8408 62.0867 24.2342 62.2267 23.1142 62.32C21.9942 62.32 21.2008 62.6933 20.7342 63.44L14.8542 62.74ZM7.01417 109.64C6.64083 109.547 5.8475 109.127 4.63417 108.38C3.51417 107.633 2.4875 106.933 1.55417 106.28C0.900833 105.533 0.480833 104.74 0.294166 103.9C0.200833 103.06 0.340833 101.94 0.714167 100.54C1.0875 99.14 1.60083 97.18 2.25417 94.66C2.3475 92.5133 2.7675 89.9 3.51417 86.82C4.35417 83.74 5.33417 81.1733 6.45417 79.12C6.45417 78.0933 6.6875 76.6933 7.15417 74.92C7.62083 73.1467 8.18083 71.3267 8.83417 69.46C9.58083 67.5 10.2342 65.82 10.7942 64.42L13.3142 57.14L18.9142 52.38L26.1942 57.42C25.8208 57.98 25.4942 58.6333 25.2142 59.38C24.9342 60.1267 24.5608 61.3867 24.0942 63.16C23.6275 64.9333 22.9275 67.6867 21.9942 71.42C21.2475 73.94 20.4075 76.6467 19.4742 79.54C18.6342 82.4333 17.8408 85.14 17.0942 87.66C16.3475 90.18 15.6942 92.2333 15.1342 93.82C14.0142 98.02 12.9875 101.333 12.0542 103.76C11.2142 106.187 10.3742 107.82 9.53417 108.66C8.7875 109.593 7.9475 109.92 7.01417 109.64ZM67.061 96.62C66.3144 95.8733 65.7544 94.7533 65.381 93.26C65.101 91.7667 65.0077 90.32 65.101 88.92C65.1944 87.4267 65.4277 86.3067 65.801 85.56C65.801 84.8133 65.8944 84.2533 66.081 83.88C66.361 83.4133 66.4544 82.9933 66.361 82.62C66.2677 82.2467 66.361 81.5933 66.641 80.66C66.921 79.7267 67.201 78.84 67.481 78C68.1344 76.5067 68.881 74.5933 69.721 72.26C70.561 69.8333 71.401 67.4067 72.241 64.98C73.081 62.46 73.781 60.3133 74.341 58.54C74.901 56.6733 75.2277 55.5533 75.321 55.18C75.321 54.06 76.0677 53.4533 77.561 53.36C78.681 52.9867 80.0344 53.4533 81.621 54.76C83.2077 56.0667 84.4677 57.4667 85.401 58.96C86.1477 59.7067 86.4277 60.6867 86.241 61.9C86.0544 63.1133 85.4477 64.84 84.421 67.08C84.0477 67.8267 83.581 69.0867 83.021 70.86C82.5544 72.54 82.2277 73.94 82.041 75.06C81.6677 75.8067 81.201 76.88 80.641 78.28C80.1744 79.5867 79.7544 80.8467 79.381 82.06C79.1944 82.5267 79.0077 83.4133 78.821 84.72C78.6344 85.9333 78.401 87.1933 78.121 88.5C77.841 89.8067 77.4677 90.8333 77.001 91.58C76.161 95.4067 74.6677 97.6467 72.521 98.3C70.4677 98.9533 68.6477 98.3933 67.061 96.62ZM82.181 40.48C81.1544 39.7333 80.361 38.8467 79.801 37.82C79.3344 36.7 79.0544 35.72 78.961 34.88C78.961 34.04 79.0544 33.5267 79.241 33.34C80.1744 32.3133 80.9677 30.96 81.621 29.28C82.3677 27.6 83.161 26.06 84.001 24.66C84.1877 24.38 84.421 24.0067 84.701 23.54C85.0744 22.98 85.4477 22.6533 85.821 22.56C86.941 21.8133 88.481 21.86 90.441 22.7C92.4944 23.54 93.9877 24.7067 94.921 26.2C95.761 27.9733 95.9944 29.7933 95.621 31.66C95.341 33.5267 94.361 35.4867 92.681 37.54C91.281 39.4067 89.5077 40.62 87.361 41.18C85.2144 41.6467 83.4877 41.4133 82.181 40.48ZM127.582 105.86C125.342 106.14 123.615 106.28 122.402 106.28C121.282 106.28 120.208 106.14 119.182 105.86C118.248 105.58 116.988 105.207 115.402 104.74C114.095 103.9 112.602 102.733 110.922 101.24C109.335 99.7467 108.308 98.8133 107.842 98.44C107.842 97.9733 107.702 97.6 107.422 97.32C107.235 97.04 107.142 96.9 107.142 96.9C106.768 96.9 106.442 96.1067 106.162 94.52C105.975 92.84 105.882 90.88 105.882 88.64C105.975 86.4 106.115 84.3 106.302 82.34C106.582 80.38 106.908 79.0733 107.282 78.42C107.282 77.9533 107.375 77.3933 107.562 76.74C107.842 75.9933 107.982 75.3867 107.982 74.92C107.982 73.3333 108.215 72.54 108.682 72.54C108.682 72.54 108.775 72.54 108.962 72.54C109.242 72.4467 109.382 72.26 109.382 71.98C109.382 71.42 109.568 70.6733 109.942 69.74C110.315 68.7133 110.595 67.78 110.782 66.94C111.248 66.1 111.808 64.6533 112.462 62.6C113.208 60.5467 113.908 58.6333 114.562 56.86C115.028 54.8067 115.682 52.7533 116.522 50.7C117.362 48.6467 117.968 47.0133 118.342 45.8C119.648 43.56 120.302 41.88 120.302 40.76C120.488 40.1067 121.095 38.7533 122.122 36.7C123.242 34.5533 124.548 32.0333 126.042 29.14C127.535 26.2467 129.075 23.3067 130.662 20.32C132.248 17.3333 133.648 14.72 134.862 12.48C136.075 10.1467 136.962 8.56 137.522 7.72C139.108 5.29333 140.648 3.61333 142.142 2.68C143.635 1.74666 144.802 1.28 145.642 1.28C146.108 1.46666 146.762 1.97999 147.602 2.81999C148.535 3.66 149.375 4.59333 150.122 5.61999C150.962 6.55333 151.428 7.3 151.522 7.86C151.522 8.04666 151.195 8.84 150.542 10.24C149.888 11.64 149.048 13.18 148.022 14.86C146.995 16.4467 145.968 17.8 144.942 18.92C144.662 19.2933 144.475 19.62 144.382 19.9C144.382 20.18 144.382 20.32 144.382 20.32C144.382 20.32 144.055 20.88 143.402 22C142.842 23.0267 142.142 24.3333 141.302 25.92C140.462 27.4133 139.715 28.86 139.062 30.26C138.408 31.66 138.035 32.6867 137.942 33.34C137.382 33.9933 136.588 35.3467 135.562 37.4C134.628 39.36 133.695 41.5067 132.762 43.84C131.828 46.08 130.988 48.04 130.242 49.72C129.495 51.4 129.028 52.3333 128.842 52.52C128.842 52.9867 128.795 53.4533 128.702 53.92C128.702 54.2933 128.515 54.7133 128.142 55.18C127.862 55.8333 127.348 57.3267 126.602 59.66C125.948 61.9 125.015 64.2333 123.802 66.66C123.148 69.46 122.355 71.9333 121.422 74.08C120.488 76.2267 119.788 77.5333 119.322 78C118.948 78.9333 118.762 79.4933 118.762 79.68C118.762 79.7733 118.948 79.7733 119.322 79.68C119.788 79.2133 120.022 79.1667 120.022 79.54C120.022 79.82 119.788 80.3333 119.322 81.08C118.948 82.0133 118.715 83.04 118.622 84.16C118.622 85.1867 118.622 86.3533 118.622 87.66C118.715 89.5267 119.182 90.9267 120.022 91.86C120.955 92.7933 122.402 93.26 124.362 93.26C127.535 93.1667 130.288 92.9333 132.622 92.56C135.048 92.1867 137.102 91.8133 138.782 91.44C141.862 90.4133 144.522 90.1333 146.762 90.6C149.095 90.9733 150.728 91.7667 151.662 92.98C152.222 93.82 152.548 94.8467 152.642 96.06C152.735 97.18 152.782 97.9733 152.782 98.44C152.502 98.8133 151.335 99.3733 149.282 100.12C147.322 100.96 144.942 101.8 142.142 102.64C139.342 103.48 136.588 104.18 133.882 104.74C131.268 105.393 129.168 105.767 127.582 105.86ZM188.591 97.04C187.844 97.2267 186.864 97.32 185.651 97.32C184.438 97.2267 183.364 97.0867 182.431 96.9C181.591 96.62 181.171 96.34 181.171 96.06C181.171 95.5933 180.938 95.36 180.471 95.36C180.471 95.36 179.958 94.9867 178.931 94.24C177.904 93.4 176.971 92.7933 176.131 92.42C175.291 91.1133 174.731 89.62 174.451 87.94C174.264 86.1667 174.824 83.0867 176.131 78.7C176.224 75.7133 177.064 72.5867 178.651 69.32C180.238 65.96 182.244 62.6933 184.671 59.52C187.098 56.3467 189.618 53.5467 192.231 51.12C194.844 48.6 197.178 46.7333 199.231 45.52C200.538 44.2133 202.264 43.5133 204.411 43.42C206.651 43.3267 208.611 43.7467 210.291 44.68C211.224 45.1467 212.251 46.08 213.371 47.48C214.491 48.88 215.564 50.3733 216.591 51.96C217.618 53.4533 218.411 54.8067 218.971 56.02C219.251 57.0467 219.484 57.98 219.671 58.82C219.951 59.5667 220.138 60.5 220.231 61.62C220.324 62.74 220.231 64.42 219.951 66.66C219.484 68.34 219.064 70.0667 218.691 71.84C218.411 73.52 218.271 75.2467 218.271 77.02C218.084 78.7933 218.271 80.0533 218.831 80.8C219.484 81.5467 220.418 81.5933 221.631 80.94C222.751 80.38 223.918 80.3333 225.131 80.8C226.344 81.1733 227.184 81.92 227.651 83.04C228.211 84.0667 228.071 85.42 227.231 87.1C226.671 88.3133 225.784 89.48 224.571 90.6C223.358 91.72 222.004 92.6533 220.511 93.4C219.018 94.0533 217.571 94.38 216.171 94.38C215.144 94.38 214.118 94.0067 213.091 93.26C212.064 92.42 211.131 91.3 210.291 89.9C209.451 88.5 208.751 86.96 208.191 85.28L207.351 82.06L202.311 86.68C201.098 87.9867 199.884 89.2 198.671 90.32C197.551 91.3467 196.851 92.0933 196.571 92.56C196.104 93.4 195.171 94.1467 193.771 94.8C192.464 95.4533 190.738 96.2 188.591 97.04ZM192.371 83.6C193.958 82.6667 195.311 81.5467 196.431 80.24C197.644 78.9333 198.811 77.4867 199.931 75.9C201.051 74.22 202.264 72.4467 203.571 70.58C205.158 68.4333 206.278 66.7067 206.931 65.4C207.678 64.0933 208.238 62.6933 208.611 61.2C208.238 60.1733 207.724 59.1 207.071 57.98C206.418 56.7667 205.764 56.1133 205.111 56.02C203.804 56.02 202.218 56.8133 200.351 58.4C198.578 59.9867 196.618 62.2733 194.471 65.26C194.098 65.7267 193.631 66.4733 193.071 67.5C192.511 68.5267 191.951 69.5067 191.391 70.44C190.924 71.28 190.598 71.84 190.411 72.12C190.131 72.4933 189.711 73.38 189.151 74.78C188.684 76.0867 188.264 77.44 187.891 78.84C187.518 80.1467 187.331 81.08 187.331 81.64C187.331 82.2 187.378 82.8067 187.471 83.46C187.658 84.1133 188.124 84.5333 188.871 84.72C189.618 84.9067 190.784 84.5333 192.371 83.6ZM292.773 95.64C290.719 95.4533 288.993 95.0333 287.593 94.38C286.286 93.6333 285.213 92.1867 284.373 90.04C283.999 88.5467 283.813 87.0067 283.813 85.42C283.906 83.74 284.046 82.1533 284.233 80.66C284.419 79.0733 284.513 77.72 284.513 76.6C284.513 76.4133 284.513 76.04 284.513 75.48C284.513 74.92 284.513 74.4067 284.513 73.94C284.326 72.54 283.953 71.7 283.393 71.42C282.926 71.0467 282.086 71.0933 280.873 71.56C278.913 72.4933 276.766 73.7533 274.433 75.34C272.193 76.8333 269.813 78.6067 267.293 80.66C264.866 82.62 262.346 84.72 259.733 86.96C257.679 89.2 256.139 91.02 255.113 92.42C254.179 93.82 253.199 94.52 252.173 94.52C251.426 94.8933 250.633 94.8 249.793 94.24C248.953 93.68 248.066 93.0267 247.133 92.28C246.479 91.5333 245.686 90.6 244.753 89.48C243.913 88.2667 243.399 87.4733 243.213 87.1C243.213 85.6067 243.306 84.2533 243.493 83.04C243.773 81.8267 244.146 80.5667 244.613 79.26C245.173 77.9533 245.826 76.46 246.573 74.78C246.946 74.1267 247.273 73.4733 247.553 72.82C247.926 72.0733 248.346 71.28 248.813 70.44C249.186 69.1333 249.699 67.64 250.353 65.96C251.099 64.28 251.799 62.6933 252.453 61.2C253.479 58.7733 254.273 56.6733 254.833 54.9C255.393 53.1267 255.859 51.2133 256.233 49.16C256.139 48.9733 256.186 48.6933 256.373 48.32C256.559 47.9467 256.839 47.7133 257.213 47.62H257.353H257.493C258.146 47.1533 259.359 47.1067 261.133 47.48C262.999 47.76 264.399 48.2733 265.333 49.02C267.293 50.7 268.226 52.8933 268.133 55.6C268.039 58.3067 266.639 61.8533 263.933 66.24C263.279 67.7333 262.579 69.1333 261.833 70.44C261.179 71.6533 260.853 72.4933 260.853 72.96C260.853 72.96 261.226 72.68 261.973 72.12C262.719 71.56 263.606 70.9067 264.633 70.16C265.659 69.32 266.546 68.6667 267.293 68.2C267.759 67.7333 268.786 66.8933 270.373 65.68C271.959 64.3733 273.686 63.02 275.553 61.62C277.419 60.22 278.913 59.1467 280.033 58.4C281.059 57.6533 282.366 56.9067 283.953 56.16C285.539 55.32 286.519 54.9 286.893 54.9C287.826 54.9 288.946 55.2267 290.253 55.88C291.653 56.5333 292.913 57.3267 294.033 58.26C295.246 59.1 295.946 59.8933 296.133 60.64C296.133 61.0133 296.086 61.5267 295.993 62.18C295.899 62.74 295.853 63.2533 295.853 63.72C295.759 65.2133 295.713 67.0333 295.713 69.18C295.806 71.2333 295.853 73.3333 295.853 75.48C295.853 77.5333 295.666 79.4 295.293 81.08C295.293 81.08 295.339 81.1733 295.433 81.36C295.526 81.4533 295.619 81.64 295.713 81.92C295.619 82.0133 295.573 82.2 295.573 82.48C295.666 82.6667 295.713 82.76 295.713 82.76C295.899 83.4133 296.086 84.0667 296.273 84.72C296.553 85.3733 296.879 86.12 297.253 86.96C297.626 87.7067 298.046 88.6867 298.513 89.9C298.419 91.1133 297.719 92.3267 296.413 93.54C295.199 94.66 293.986 95.36 292.773 95.64ZM359.857 103.62C358.177 102.687 357.244 101.66 357.057 100.54C356.964 99.42 357.617 97.46 359.017 94.66C360.417 91.86 362.61 87.52 365.597 81.64C367.837 77.44 369.33 74.1733 370.077 71.84C370.917 69.4133 371.384 67.6867 371.477 66.66C371.57 65.6333 371.617 64.98 371.617 64.7C371.43 63.86 371.524 63.2067 371.897 62.74C372.27 62.18 372.877 61.7133 373.717 61.34C374.184 60.8733 375.257 60.0333 376.937 58.82C378.617 57.6067 379.924 56.16 380.857 54.48C381.697 52.52 382.63 50.5133 383.657 48.46C384.777 46.4067 386.224 43.84 387.997 40.76C389.77 37.5867 392.15 33.48 395.137 28.44C397.004 25.1733 399.197 21.4867 401.717 17.38C404.33 13.2733 406.897 9.53999 409.417 6.17999C410.444 4.87333 411.517 3.84666 412.637 3.09999C413.757 2.35333 414.737 1.98 415.577 1.98C417.63 1.98 419.684 2.54 421.737 3.65999C423.79 4.68666 425.61 5.99333 427.197 7.57999C428.784 9.16666 429.857 10.66 430.417 12.06C430.884 12.8067 431.07 14.3933 430.977 16.82C430.884 19.2467 430.697 22.1867 430.417 25.64C430.137 29.0933 429.81 32.78 429.437 36.7C429.157 40.5267 428.737 45.0533 428.177 50.28C427.617 55.5067 427.057 60.9667 426.497 66.66C426.03 72.3533 425.657 77.86 425.377 83.18C425.097 88.4067 425.097 92.98 425.377 96.9C425.47 97.74 425.47 98.5333 425.377 99.28C425.284 100.027 425.237 100.633 425.237 101.1C424.677 101.66 423.464 101.893 421.597 101.8C419.73 101.8 417.91 101.52 416.137 100.96C414.364 100.4 413.384 99.7 413.197 98.86C412.917 98.58 412.73 98.3467 412.637 98.16C412.544 97.9733 412.544 97.0867 412.637 95.5C412.73 93.82 412.87 90.7867 413.057 86.4L413.757 64.98L411.937 65.12C411.097 65.12 409.557 65.2133 407.317 65.4C405.17 65.5867 402.79 65.8667 400.177 66.24C397.657 66.52 395.324 66.8467 393.177 67.22C391.03 67.5 389.537 67.78 388.697 68.06C387.857 68.06 386.83 68.62 385.617 69.74C384.497 70.86 383.424 72.3067 382.397 74.08C382.024 75.3867 381.324 76.7867 380.297 78.28C379.364 79.68 378.897 80.6133 378.897 81.08C378.244 81.5467 377.684 82.1067 377.217 82.76C376.844 83.4133 376.657 83.74 376.657 83.74C376.657 84.3 376.237 85.7 375.397 87.94C374.557 90.0867 373.53 92.5133 372.317 95.22C371.104 97.8333 369.844 100.12 368.537 102.08L364.757 107.4L359.857 103.62ZM393.317 55.46C393.317 55.46 393.83 55.3667 394.857 55.18C395.884 54.9933 397.097 54.8067 398.497 54.62C399.99 54.34 401.297 54.2 402.417 54.2C404.564 53.64 406.337 53.22 407.737 52.94C409.23 52.66 410.444 52.52 411.377 52.52C412.31 52.4267 413.057 52.52 413.617 52.8C413.99 53.2667 414.317 53.5467 414.597 53.64C414.97 53.7333 415.157 53.78 415.157 53.78C415.25 53.5933 415.437 52.6133 415.717 50.84C415.997 49.0667 416.324 46.8733 416.697 44.26C417.07 41.6467 417.444 38.94 417.817 36.14C418.19 33.2467 418.517 30.5867 418.797 28.16C419.077 25.64 419.264 23.68 419.357 22.28C419.45 20.5067 419.404 18.92 419.217 17.52C419.03 16.0267 418.937 15.28 418.937 15.28C418.377 15.28 417.304 16.3067 415.717 18.36C414.224 20.32 412.45 22.98 410.397 26.34C408.437 29.6067 406.477 33.1533 404.517 36.98C403.584 38.7533 402.697 40.1533 401.857 41.18C401.11 42.2067 400.504 42.72 400.037 42.72C399.85 42.9067 399.337 43.6533 398.497 44.96C397.75 46.1733 396.91 47.5733 395.977 49.16C395.137 50.6533 394.39 52.0533 393.737 53.36C393.177 54.5733 393.037 55.2733 393.317 55.46ZM481.621 115.66C480.781 115.66 479.614 115.287 478.121 114.54C476.627 113.887 475.321 113 474.201 111.88C473.267 110.947 472.661 109.827 472.381 108.52C472.101 107.307 472.147 105.533 472.521 103.2C472.707 102.173 472.847 101.193 472.941 100.26C473.034 99.42 473.081 98.8133 473.081 98.44C473.081 96.6667 473.221 95.0333 473.501 93.54C473.781 92.0467 474.107 90.5067 474.481 88.92C474.947 87.24 475.414 85.3733 475.881 83.32C476.067 82.76 476.207 82.2467 476.301 81.78C476.394 81.22 476.487 80.66 476.581 80.1C476.767 78.98 476.954 77.8133 477.141 76.6C477.421 75.3867 477.607 74.0333 477.701 72.54C478.167 70.7667 478.634 69.3667 479.101 68.34C479.567 67.22 479.894 66.0533 480.081 64.84C478.961 64.84 477.514 64.9333 475.741 65.12C474.061 65.3067 472.334 65.5867 470.561 65.96C468.787 66.24 467.247 66.52 465.941 66.8C464.727 66.9867 464.027 67.1733 463.841 67.36C463.467 67.5467 463.001 68.3867 462.441 69.88C461.974 71.28 461.461 73.0533 460.901 75.2C460.434 77.3467 459.967 79.68 459.501 82.2C458.754 86.5867 458.381 90.2733 458.381 93.26C458.381 96.1533 458.521 98.4867 458.801 100.26C459.081 102.127 459.221 103.62 459.221 104.74C459.221 106.513 458.707 108.053 457.681 109.36C456.747 110.76 455.814 111.647 454.881 112.02C452.641 112.02 450.727 110.2 449.141 106.56C447.554 102.92 446.761 98.3933 446.761 92.98C446.761 89.1533 447.274 84.58 448.301 79.26C449.327 73.8467 450.727 67.8733 452.501 61.34C453.247 58.82 454.274 55.8333 455.581 52.38C456.887 48.9267 458.241 45.52 459.641 42.16C461.134 38.8 462.441 36 463.561 33.76C464.681 31.4267 465.381 30.12 465.661 29.84C465.754 29.84 465.801 29.84 465.801 29.84C465.801 29.84 465.847 29.84 465.941 29.84C466.127 29.84 466.174 29.9333 466.081 30.12C466.081 30.2133 466.267 29.7933 466.641 28.86C467.107 27.9267 468.134 25.8267 469.721 22.56C471.961 19.3867 474.621 16.54 477.701 14.02C480.874 11.4067 483.767 9.63333 486.381 8.69999C487.781 8.23333 488.901 7.99999 489.741 7.99999C492.074 7.99999 494.314 8.74666 496.461 10.24C498.607 11.7333 500.147 13.6933 501.081 16.12C502.667 14.2533 504.534 12.62 506.681 11.22C508.827 9.72666 510.507 8.51333 511.721 7.57999C513.681 6.55333 515.314 5.85333 516.621 5.47999C517.927 5.10666 519.467 4.91999 521.241 4.91999C523.107 4.91999 524.741 5.33999 526.141 6.17999C527.541 7.01999 528.847 7.95333 530.061 8.98C531.834 10.8467 532.861 12.06 533.141 12.62C533.421 13.18 533.561 14.1133 533.561 15.42C533.281 17.1 532.534 18.8733 531.321 20.74C530.201 22.6067 528.941 24.38 527.541 26.06C526.234 27.74 525.021 29.14 523.901 30.26C522.781 31.2867 522.081 31.8 521.801 31.8C520.961 31.8 520.401 31.4267 520.121 30.68C519.934 29.9333 519.747 29.14 519.561 28.3C519.374 27.6467 519.141 27.0867 518.861 26.62C518.581 26.06 518.161 25.6867 517.601 25.5C517.601 24.8467 517.834 23.8667 518.301 22.56C518.767 21.16 519.001 20.2267 519.001 19.76C519.001 19.2 518.861 18.7333 518.581 18.36C518.301 17.9867 517.881 17.8 517.321 17.8C516.201 18.4533 515.174 19.2 514.241 20.04C513.307 20.7867 512.467 21.5333 511.721 22.28C511.067 23.0267 510.507 23.68 510.041 24.24C509.667 24.8 509.434 25.1733 509.341 25.36C508.967 26.0133 508.547 26.6667 508.081 27.32C507.614 27.9733 507.147 28.6733 506.681 29.42C506.307 30.0733 505.981 30.6333 505.701 31.1C505.421 31.5667 505.187 31.9867 505.001 32.36C504.534 33.3867 504.254 34.0867 504.161 34.46C504.067 34.8333 503.881 35.02 503.601 35.02C503.601 34.8333 503.414 35.3 503.041 36.42C502.667 37.4467 502.154 38.6133 501.501 39.92C501.127 40.8533 500.707 41.74 500.241 42.58C499.774 43.3267 499.307 43.9333 498.841 44.4H498.981C498.981 44.4 498.747 44.9133 498.281 45.94C497.907 46.9667 497.487 48.04 497.021 49.16C496.554 50.1867 496.321 50.7933 496.321 50.98C496.321 51.3533 496.834 51.54 497.861 51.54C498.887 51.4467 500.147 51.26 501.641 50.98C503.134 50.6067 504.581 50.28 505.981 50C507.381 49.72 508.501 49.58 509.341 49.58C509.901 49.58 510.414 49.6733 510.881 49.86C511.441 50.0467 511.907 50.28 512.281 50.56C513.307 51.3067 514.054 52.38 514.521 53.78C515.081 55.18 515.361 56.58 515.361 57.98C515.361 58.3533 514.661 59.1 513.261 60.22C511.954 61.34 509.387 62.04 505.561 62.32C503.227 62.88 501.221 63.3467 499.541 63.72C497.954 64.0933 496.647 64.42 495.621 64.7C494.594 64.98 493.801 65.3067 493.241 65.68C492.681 66.0533 492.261 66.4733 491.981 66.94C491.794 67.4067 491.607 68.06 491.421 68.9C491.421 69.46 491.327 69.9267 491.141 70.3C490.674 71.7 490.161 73.1467 489.601 74.64C489.134 76.04 488.667 77.4867 488.201 78.98C487.827 80.38 487.454 81.78 487.081 83.18C486.801 84.58 486.614 85.8867 486.521 87.1C486.241 87.7533 486.007 88.5467 485.821 89.48C485.727 90.32 485.587 91.1133 485.401 91.86C485.307 92.5133 485.214 93.12 485.121 93.68C485.027 94.1467 484.981 94.5667 484.981 94.94C484.981 94.94 484.934 95.1267 484.841 95.5C484.841 95.78 484.841 96.1533 484.841 96.62C484.747 97.5533 484.607 98.72 484.421 100.12C484.327 101.52 484.281 103.013 484.281 104.6L483.861 108.66C483.301 110.34 483.067 111.927 483.161 113.42C483.254 114.913 482.741 115.66 481.621 115.66ZM469.861 55.6C470.234 55.6 471.074 55.5067 472.381 55.32C473.781 55.04 475.461 54.7133 477.421 54.34C479.381 53.9667 481.434 53.64 483.581 53.36L484.421 51.82C485.914 47.2467 487.174 43.8867 488.201 41.74C489.227 39.5 490.067 37.54 490.721 35.86L491.001 34.6C491.001 34.4133 491.187 33.8533 491.561 32.92C492.027 31.9867 492.261 31.0533 492.261 30.12C492.821 27.04 493.334 24.8 493.801 23.4C494.267 22 494.314 21.1133 493.941 20.74C493.567 20.3667 492.494 20.18 490.721 20.18C490.254 20.18 489.507 20.3667 488.481 20.74C487.547 21.02 486.661 21.44 485.821 22C485.074 22.4667 484.701 22.9333 484.701 23.4V23.96C484.514 23.8667 483.861 24.4267 482.741 25.64C481.621 26.8533 480.361 28.3933 478.961 30.26C477.561 32.1267 476.347 33.9933 475.321 35.86C474.481 37.3533 473.547 39.4067 472.521 42.02C471.587 44.54 470.327 47.8533 468.741 51.96L467.621 55.32L469.861 55.6ZM525.301 96.34C524.741 96.34 523.761 96.0133 522.361 95.36C520.961 94.6133 520.214 94.0533 520.121 93.68C519.561 92.28 518.767 91.3467 517.741 90.88C516.714 90.32 516.201 89.5733 516.201 88.64C516.387 87.8933 516.527 87.0533 516.621 86.12C516.807 85.0933 516.994 83.9267 517.181 82.62C517.461 81.22 517.787 79.54 518.161 77.58C518.534 75.62 519.001 73.24 519.561 70.44C520.587 65.2133 521.194 61.4333 521.381 59.1C521.567 56.7667 521.707 55.2267 521.801 54.48C521.894 53.7333 522.221 53.1267 522.781 52.66C523.527 52.1 524.321 51.7733 525.161 51.68C526.001 51.5867 526.934 51.8667 527.961 52.52C528.987 53.08 530.107 54.06 531.321 55.46C533.094 57.3267 533.747 60.1267 533.281 63.86C532.814 67.5933 532.067 72.3533 531.041 78.14C530.481 81.1267 529.827 84.02 529.081 86.82C528.427 89.5267 527.774 91.7667 527.121 93.54C526.467 95.3133 525.861 96.2467 525.301 96.34ZM536.501 46.08C535.754 46.08 534.541 45.66 532.861 44.82C531.181 43.8867 529.641 42.72 528.241 41.32C526.934 39.8267 526.281 38.1933 526.281 36.42C526.281 35.86 526.654 34.88 527.401 33.48C528.147 32.08 528.941 30.7267 529.781 29.42C530.621 28.1133 531.227 27.3667 531.601 27.18C532.067 27.18 532.581 27.2733 533.141 27.46C533.701 27.5533 534.307 27.6933 534.961 27.88C535.614 28.0667 536.221 28.3 536.781 28.58C537.807 30.6333 539.021 32.5 540.421 34.18C541.821 35.86 542.521 37.7733 542.521 39.92C542.521 40.9467 542.287 41.9733 541.821 43C541.447 43.9333 540.794 44.68 539.861 45.24C539.021 45.8 537.901 46.08 536.501 46.08ZM595.482 98.44C594.082 98.44 592.729 98.02 591.422 97.18C590.116 96.2467 589.042 94.9867 588.202 93.4C587.362 91.72 586.942 89.76 586.942 87.52C586.942 86.12 587.176 84.16 587.642 81.64C588.202 79.0267 588.996 75.76 590.022 71.84C590.209 70.5333 590.349 69.6933 590.442 69.32C590.629 68.9467 590.722 68.5733 590.722 68.2C590.722 68.0133 590.676 67.8733 590.582 67.78C590.582 67.5933 590.489 67.5 590.302 67.5C589.556 67.5 588.529 68.0133 587.222 69.04C586.009 69.9733 584.609 71.0933 583.022 72.4C582.742 72.5867 582.416 72.82 582.042 73.1C581.762 73.38 581.436 73.66 581.062 73.94C580.782 74.22 580.456 74.5 580.082 74.78C579.149 75.34 577.702 76.4133 575.742 78C573.876 79.5867 571.916 81.2667 569.862 83.04C567.902 84.8133 566.176 86.3067 564.682 87.52C563.936 88.08 563.282 88.5467 562.722 88.92C562.256 89.2933 561.929 89.48 561.742 89.48C561.556 89.48 560.809 89.2467 559.502 88.78C558.289 88.22 557.076 87.4733 555.862 86.54C554.742 85.5133 554.182 84.3467 554.182 83.04C554.182 82.2 554.509 80.52 555.162 78C555.909 75.48 556.936 72.4933 558.242 69.04C559.549 65.5867 561.042 62.0867 562.722 58.54C563.096 57.7 563.376 56.58 563.562 55.18C563.749 53.78 563.936 52.4267 564.122 51.12C564.402 49.72 564.869 48.6933 565.522 48.04C565.802 47.5733 566.129 47.2467 566.502 47.06C566.969 46.78 567.436 46.64 567.902 46.64C568.836 46.64 569.722 46.8733 570.562 47.34C571.402 47.7133 572.196 48.3667 572.942 49.3C574.342 50.7933 575.089 52.5667 575.182 54.62C575.369 56.58 575.229 58.4933 574.762 60.36C574.296 62.2267 573.782 63.7667 573.222 64.98C572.662 66.1 572.382 66.5667 572.382 66.38C572.756 66.1933 573.269 65.7267 573.922 64.98C574.669 64.2333 575.929 63.3467 577.702 62.32C580.129 60.4533 581.996 59.1467 583.302 58.4C584.609 57.56 585.589 56.9533 586.242 56.58C586.989 56.2067 587.642 55.7867 588.202 55.32C588.669 54.9467 588.996 54.7133 589.182 54.62C589.462 54.5267 589.602 54.48 589.602 54.48C589.882 54.48 590.349 54.2933 591.002 53.92C591.749 53.5467 592.449 53.36 593.102 53.36C594.036 53.36 595.016 53.5933 596.042 54.06C597.069 54.4333 597.956 54.9933 598.702 55.74C599.449 56.3933 599.822 57.0933 599.822 57.84C599.822 58.12 599.916 58.3533 600.102 58.54C600.289 58.7267 600.476 58.96 600.662 59.24C601.129 59.8 601.642 60.5933 602.202 61.62C602.856 62.5533 603.182 64.0933 603.182 66.24C603.182 67.7333 602.856 69.9267 602.202 72.82C601.549 75.7133 600.849 78.56 600.102 81.36C599.356 84.2533 598.982 86.5867 598.982 88.36C599.076 90.04 599.262 91.3467 599.542 92.28C599.822 93.12 599.962 93.82 599.962 94.38C599.962 95.1267 599.589 96.0133 598.842 97.04C598.096 97.9733 596.976 98.44 595.482 98.44ZM630.62 94.38C630.247 94.38 629.453 94.1 628.24 93.54C627.027 92.98 626.42 92.7 626.42 92.7C626.42 92.3267 626.28 91.86 626 91.3C625.813 90.74 625.72 90.2733 625.72 89.9C625.067 89.5267 624.413 88.92 623.76 88.08C623.107 87.24 622.967 86.3067 623.34 85.28C623.9 84.2533 624.647 82.7133 625.58 80.66C626.607 78.5133 627.68 76.1333 628.8 73.52C630.013 70.8133 631.133 68.2 632.16 65.68C633.187 63.16 634.073 61.0133 634.82 59.24C635.567 57.3733 635.987 56.2533 636.08 55.88C636.08 55.5067 636.127 54.8533 636.22 53.92C636.407 52.9867 637.013 52.1933 638.04 51.54C639.253 50.7 640.513 50.6533 641.82 51.4C643.127 52.1467 644.247 53.4533 645.18 55.32C646.113 57.0933 646.58 59.1933 646.58 61.62C646.58 62.2733 646.113 63.9533 645.18 66.66C644.247 69.2733 642.987 72.4 641.4 76.04C639.907 79.68 638.227 83.3667 636.36 87.1C634.96 89.8067 633.887 91.72 633.14 92.84C632.487 93.8667 631.647 94.38 630.62 94.38ZM649.66 40.76C648.54 40.76 647.187 40.2467 645.6 39.22C644.107 38.1933 642.753 36.8867 641.54 35.3C640.327 33.7133 639.72 32.0333 639.72 30.26C639.72 29.7933 640.14 28.9533 640.98 27.74C641.82 26.4333 642.613 25.1733 643.36 23.96C644.2 22.7467 644.62 22.0467 644.62 21.86C645.367 21.86 646.253 22 647.28 22.28C648.307 22.56 649.147 22.8867 649.8 23.26C650.827 25.5933 652.18 27.6 653.86 29.28C655.54 30.8667 656.38 32.6867 656.38 34.74C656.38 36.7933 655.867 38.3333 654.84 39.36C653.813 40.2933 652.087 40.76 649.66 40.76ZM677.981 107.4C673.407 107.307 670.467 106 669.161 103.48C667.947 101.053 667.621 97.9733 668.181 94.24C668.741 92.4667 669.067 90.88 669.161 89.48C669.347 87.9867 669.767 87.0533 670.421 86.68C670.421 86.68 670.467 86.54 670.561 86.26C670.747 85.98 670.701 85.7 670.421 85.42C670.421 84.2067 670.841 82.5267 671.681 80.38C671.867 79.82 672.101 79.1667 672.381 78.42C672.754 77.58 672.941 77.16 672.941 77.16C672.474 76.4133 672.474 75.8067 672.941 75.34C673.407 74.8733 673.874 74.4533 674.341 74.08C674.901 73.6133 674.947 73.1 674.481 72.54C674.294 72.1667 674.527 71.3267 675.181 70.02C675.834 68.62 676.581 67.1733 677.421 65.68C678.261 64.1867 678.821 63.02 679.101 62.18C679.101 61.9933 679.334 61.34 679.801 60.22C680.267 59.1 680.827 57.7933 681.481 56.3C682.134 54.8067 682.741 53.4533 683.301 52.24C683.954 51.0267 684.374 50.2333 684.561 49.86C685.494 49.3933 685.121 49.0667 683.441 48.88C681.761 48.6933 679.987 48.6467 678.121 48.74C675.227 48.6467 672.894 48.5067 671.121 48.32C669.441 48.1333 668.041 47.7133 666.921 47.06C665.801 45.7533 665.661 44.2133 666.501 42.44C667.341 40.5733 668.694 39.5933 670.561 39.5C671.774 39.4067 672.707 39.36 673.361 39.36C674.107 39.36 675.041 39.3133 676.161 39.22C677.374 39.0333 679.241 38.8 681.761 38.52L688.901 37.96L689.321 35.58C690.067 34.3667 690.581 33.5733 690.861 33.2C691.141 32.8267 691.327 32.4533 691.421 32.08C691.514 31.6133 691.654 30.82 691.841 29.7C691.841 29.7 692.261 28.9533 693.101 27.46C693.941 25.8733 694.454 24.24 694.641 22.56C695.761 20.6933 696.741 19.0133 697.581 17.52C698.421 15.9333 698.934 14.9533 699.121 14.58C700.707 12.2467 702.247 10.9867 703.741 10.8C705.327 10.6133 706.821 10.9867 708.221 11.92C709.061 12.3867 709.854 12.9933 710.601 13.74C711.347 14.3933 711.814 15.28 712.001 16.4C712.187 17.4267 711.767 18.78 710.741 20.46C710.554 20.8333 710.274 21.5333 709.901 22.56C709.527 23.4933 709.247 24.2867 709.061 24.94C708.501 25.5933 707.801 26.6667 706.961 28.16C706.214 29.56 705.701 31.0067 705.421 32.5C704.674 34.0867 704.207 35.0667 704.021 35.44C703.834 35.8133 703.554 36 703.181 36C703.367 36.9333 703.927 37.4 704.861 37.4C705.794 37.3067 707.334 37.2133 709.481 37.12C711.254 36.9333 712.467 36.7467 713.121 36.56C713.867 36.28 714.707 36.3733 715.641 36.84C716.107 37.4933 716.341 38.4733 716.341 39.78C716.434 40.9933 716.294 42.2067 715.921 43.42C715.547 44.54 715.034 45.24 714.381 45.52C713.914 45.52 712.934 45.8 711.441 46.36C710.041 46.8267 708.267 47.1067 706.121 47.2L698.701 47.9L696.321 52.66C695.667 53.8733 695.107 54.9933 694.641 56.02C694.174 56.9533 693.847 57.5133 693.661 57.7C693.661 58.26 693.334 59.1 692.681 60.22C692.121 61.34 691.514 62.5533 690.861 63.86C690.301 65.4467 689.647 66.8933 688.901 68.2C688.247 69.5067 687.921 70.16 687.921 70.16C687.547 70.16 687.361 70.44 687.361 71C687.827 72.12 687.687 72.96 686.941 73.52C686.474 73.8 686.054 74.22 685.681 74.78C685.401 75.2467 685.261 75.48 685.261 75.48C685.634 75.8533 685.681 76.32 685.401 76.88C685.214 77.44 684.934 78.0467 684.561 78.7C684.561 79.4467 684.327 80.52 683.861 81.92C683.487 83.32 683.067 84.6267 682.601 85.84C682.694 87.52 682.787 88.5933 682.881 89.06C682.974 89.5267 683.207 89.7133 683.581 89.62C684.047 89.7133 684.701 89.7133 685.541 89.62C686.381 89.5267 686.987 89.48 687.361 89.48C688.761 88.8267 688.107 92.0933 685.401 99.28C683.907 101.613 682.414 103.527 680.921 105.02C679.427 106.607 678.447 107.4 677.981 107.4ZM720.548 128.12C717.188 128.773 713.968 128.867 710.888 128.4C707.808 128.027 705.242 127.233 703.188 126.02C701.042 124.807 699.735 123.453 699.268 121.96C698.708 119.813 698.988 118.227 700.108 117.2C701.228 116.173 702.582 115.567 704.168 115.38C705.662 115.193 706.642 115.38 707.108 115.94C707.855 116.407 709.022 117.107 710.608 118.04C712.288 118.973 714.342 119.207 716.768 118.74C718.915 118.273 720.828 117.247 722.508 115.66C724.188 114.073 725.682 112.393 726.988 110.62C727.735 109.5 728.995 107.493 730.768 104.6C732.542 101.707 734.362 98.5333 736.228 95.08C738.188 91.5333 739.822 88.2667 741.128 85.28C741.408 84.5333 741.735 83.6467 742.108 82.62C742.482 81.5933 742.948 80.7533 743.508 80.1C744.068 78.98 744.535 77.9533 744.908 77.02C745.375 75.9933 745.655 75.2933 745.748 74.92C745.842 74.4533 746.262 73.52 747.008 72.12C747.755 70.72 748.455 69.32 749.108 67.92C749.575 66.52 750.275 64.4667 751.208 61.76C752.142 59.0533 753.075 56.86 754.008 55.18C755.128 53.0333 756.015 51.3067 756.668 50C757.415 48.6 758.208 47.76 759.048 47.48C759.888 46.8267 760.682 46.5 761.428 46.5C762.175 46.5 763.062 46.78 764.088 47.34C765.208 48.46 766.095 49.58 766.748 50.7C767.495 51.7267 767.775 53.0333 767.588 54.62C767.495 56.1133 766.748 58.1667 765.348 60.78C764.602 63.02 763.762 65.0733 762.828 66.94C761.988 68.7133 761.335 69.88 760.868 70.44C760.402 71.56 759.842 72.82 759.188 74.22C758.628 75.5267 758.115 76.74 757.648 77.86C755.968 81.5933 754.522 84.6267 753.308 86.96C752.095 89.2933 751.022 91.44 750.088 93.4C749.155 95.36 748.175 97.6467 747.148 100.26C745.002 103.713 742.902 106.98 740.848 110.06C738.888 113.233 736.788 116.173 734.548 118.88C733.615 119.72 732.262 120.793 730.488 122.1C728.808 123.5 727.035 124.76 725.168 125.88C723.395 127.093 721.855 127.84 720.548 128.12ZM738.048 96.48C736.648 96.2933 735.108 95.36 733.428 93.68C731.842 92 730.488 90.2267 729.368 88.36C728.342 86.4933 727.922 85.1867 728.108 84.44C728.108 83.9733 728.108 83.6 728.108 83.32C728.108 83.04 728.108 82.9 728.108 82.9C727.548 82.9 727.082 82.1067 726.708 80.52C726.428 78.84 726.195 76.74 726.008 74.22C725.915 71.7 725.868 69.0867 725.868 66.38C725.962 63.6733 726.102 61.2 726.288 58.96C726.662 57.3733 726.848 55.6467 726.848 53.78C726.848 51.82 726.895 50.28 726.988 49.16C726.895 47.6667 727.175 46.4533 727.828 45.52C728.575 44.5867 729.135 43.98 729.508 43.7C732.962 42.2067 735.482 43 737.068 46.08C738.655 49.16 739.215 54.06 738.748 60.78C738.562 64.5133 738.468 68.1067 738.468 71.56C738.468 74.92 738.795 77.8133 739.448 80.24C740.102 82.6667 741.222 84.3933 742.808 85.42C743.462 85.7933 743.695 86.5867 743.508 87.8C743.322 89.0133 742.902 90.32 742.248 91.72C741.595 93.0267 740.848 94.1933 740.008 95.22C739.262 96.1533 738.608 96.5733 738.048 96.48ZM843.469 108.24C842.069 107.68 840.436 106.887 838.569 105.86C836.703 104.927 834.929 103.667 833.249 102.08C831.569 100.493 830.263 98.58 829.329 96.34C828.396 93.6333 827.743 90.9733 827.369 88.36C827.089 85.7467 826.996 82.7133 827.089 79.26C827.089 74.4067 827.416 70.2067 828.069 66.66C828.816 63.02 829.936 59.3333 831.429 55.6C831.616 55.32 831.943 54.5267 832.409 53.22C832.969 51.82 833.576 50.3267 834.229 48.74C834.976 47.1533 835.536 45.94 835.909 45.1C836.656 43.5133 837.776 41.4133 839.269 38.8C840.856 36.0933 842.536 33.48 844.309 30.96C847.016 26.9467 849.303 23.68 851.169 21.16C853.036 18.5467 854.809 16.3533 856.489 14.58C858.263 12.8067 860.176 11.08 862.229 9.39999C864.376 7.71999 867.036 5.80666 870.209 3.65999C872.263 2.16666 874.876 1.23333 878.049 0.859995C881.316 0.486661 884.489 0.999993 887.569 2.39999C890.649 3.70666 892.936 6.22666 894.429 9.95999C895.456 11.92 895.923 14.3933 895.829 17.38C895.736 20.2733 895.176 23.4 894.149 26.76C893.123 30.0267 891.816 33.1067 890.229 36C888.643 38.8933 886.869 41.2267 884.909 43C883.696 44.12 882.063 44.3067 880.009 43.56C878.049 42.8133 876.416 41.8333 875.109 40.62C874.269 39.0333 873.803 38.1 873.709 37.82C873.709 37.54 873.896 37.3533 874.269 37.26C874.829 36.6067 875.576 35.4867 876.509 33.9C877.443 32.3133 878.376 30.6333 879.309 28.86C880.243 26.9933 880.896 25.5 881.269 24.38C882.016 20.46 882.529 17.8933 882.809 16.68C883.089 15.3733 882.809 14.3 881.969 13.46C881.596 13.0867 881.036 12.9467 880.289 13.04C879.636 13.1333 878.516 13.6 876.929 14.44C874.783 15.3733 872.216 17.2867 869.229 20.18C866.336 22.98 863.443 26.34 860.549 30.26C856.816 35.2067 853.689 39.5933 851.169 43.42C848.649 47.2467 846.736 51.1667 845.429 55.18C845.243 55.5533 844.916 56.2533 844.449 57.28C844.076 58.3067 843.889 58.82 843.889 58.82C843.983 59.1933 843.843 60.1267 843.469 61.62C843.096 63.02 842.676 64.2333 842.209 65.26C841.183 69.5533 840.576 73.7067 840.389 77.72C840.203 81.64 840.436 85.0933 841.089 88.08C841.836 90.9733 842.909 93.12 844.309 94.52C845.523 95.36 847.063 95.64 848.929 95.36C850.796 95.08 852.943 94.4267 855.369 93.4C857.796 92.3733 860.409 91.2533 863.209 90.04C865.449 89.1067 867.503 88.08 869.369 86.96C871.236 85.84 872.636 84.86 873.569 84.02C874.316 83.46 875.249 82.9 876.369 82.34C877.583 81.6867 878.609 81.36 879.449 81.36C880.756 80.8933 881.736 81.2667 882.389 82.48C883.043 83.6933 883.369 85.2333 883.369 87.1C883.369 88.4067 882.436 89.9933 880.569 91.86C878.703 93.7267 876.649 95.3133 874.409 96.62C873.663 97.3667 872.636 98.0667 871.329 98.72C870.116 99.28 868.856 99.7933 867.549 100.26C865.589 101.753 863.163 103.2 860.269 104.6C857.376 106 854.436 107.073 851.449 107.82C848.556 108.567 845.896 108.707 843.469 108.24ZM907.808 96.06C907.435 95.3133 906.595 94.5667 905.288 93.82C904.075 93.0733 903.468 92.5133 903.468 92.14C903.468 91.7667 903.235 91.2067 902.768 90.46C902.395 89.62 902.021 89.0133 901.648 88.64C901.181 88.08 901.321 86.7267 902.068 84.58C902.815 82.34 903.935 79.6333 905.428 76.46C906.921 73.2867 908.555 70.0667 910.328 66.8C911.075 66.0533 911.821 65.0733 912.568 63.86C913.315 62.6467 913.875 61.8533 914.248 61.48C914.248 61.1067 914.388 60.78 914.668 60.5C914.948 60.1267 915.275 59.94 915.648 59.94L916.768 57.7C916.955 57.3267 917.515 56.58 918.448 55.46C919.475 54.34 920.688 53.1267 922.088 51.82C923.488 50.42 924.888 49.1133 926.288 47.9C927.781 46.6867 928.995 45.8 929.928 45.24C931.888 43.9333 933.895 43.3267 935.948 43.42C938.095 43.5133 939.915 44.1667 941.408 45.38C941.688 45.66 942.295 46.22 943.228 47.06C944.255 47.9 945.375 48.8333 946.588 49.86C947.895 50.8867 949.015 51.82 949.948 52.66L955.128 57.28L952.748 64.28C951.535 68.0133 951.208 71.28 951.768 74.08C952.328 76.88 953.215 79.3067 954.428 81.36C954.895 82.3867 955.501 83.18 956.248 83.74C957.088 84.3 958.161 84.6733 959.468 84.86C960.215 84.9533 960.915 85.2333 961.568 85.7C962.221 86.1667 962.548 86.9133 962.548 87.94C962.548 90.18 962.128 91.8133 961.288 92.84C960.541 93.7733 959.701 94.3333 958.768 94.52C955.688 94.8933 952.748 94.5667 949.948 93.54C947.148 92.5133 944.628 89.8533 942.388 85.56C942.015 85 941.501 83.9733 940.848 82.48C940.288 80.8933 939.961 79.8667 939.868 79.4C939.495 79.8667 938.981 80.4733 938.328 81.22C937.768 81.8733 937.208 82.48 936.648 83.04C930.021 89.76 924.328 94.1467 919.568 96.2C914.901 98.16 910.981 98.1133 907.808 96.06ZM915.508 84.44C916.161 84.5333 917.188 84.2067 918.588 83.46C919.988 82.62 921.855 81.2667 924.188 79.4C927.361 76.6933 929.975 74.4533 932.028 72.68C934.081 70.9067 936.088 68.62 938.048 65.82L941.128 60.78C940.195 58.6333 939.355 57.2333 938.608 56.58C937.861 55.9267 937.115 55.6 936.368 55.6C935.155 55.6 933.708 56.3933 932.028 57.98C930.348 59.4733 928.435 61.7133 926.288 64.7C924.235 67.5933 921.901 71.2333 919.288 75.62C918.075 77.6733 917.141 79.68 916.488 81.64C915.835 83.5067 915.508 84.44 915.508 84.44ZM989.329 96.06C989.049 96.1533 988.442 96.1067 987.509 95.92C986.669 95.7333 985.782 95.5 984.849 95.22C984.009 94.94 983.495 94.7067 983.309 94.52C982.935 94.1467 982.422 93.4933 981.769 92.56C981.115 91.5333 980.742 90.18 980.649 88.5C980.649 86.82 981.442 84.8133 983.029 82.48C983.495 81.5467 984.055 80.1467 984.709 78.28C985.362 76.4133 986.015 74.4533 986.669 72.4C987.415 70.2533 988.069 68.34 988.629 66.66C989.282 64.98 989.749 63.8133 990.029 63.16C990.215 61.5733 990.122 60.4533 989.749 59.8C989.469 59.0533 988.675 58.6333 987.369 58.54C986.435 58.54 985.689 58.2133 985.129 57.56C984.662 56.9067 984.429 55.74 984.429 54.06C984.615 52.7533 984.942 51.6333 985.409 50.7C985.969 49.6733 986.715 48.8333 987.649 48.18C988.582 47.7133 989.749 47.3867 991.149 47.2C992.642 47.0133 994.089 46.9667 995.489 47.06C996.889 47.1533 997.869 47.48 998.429 48.04C999.082 48.4133 999.595 49.2533 999.969 50.56C1000.44 51.7733 1000.81 53.0333 1001.09 54.34C1001.37 55.6467 1001.56 56.6267 1001.65 57.28C1002.58 56.5333 1003.61 55.5067 1004.73 54.2C1005.94 52.8 1007.16 51.4933 1008.37 50.28C1009.86 49.2533 1011.64 48.2267 1013.69 47.2C1015.74 46.08 1017.24 45.52 1018.17 45.52C1019.2 45.52 1020.46 46.0333 1021.95 47.06C1023.44 47.9933 1024.38 48.8333 1024.75 49.58C1025.68 51.1667 1026.34 52.8467 1026.71 54.62C1027.18 56.3 1026.9 57.7933 1025.87 59.1C1024.94 60.3133 1023.63 61.5267 1021.95 62.74C1020.27 63.86 1018.17 64.1867 1015.65 63.72C1015.09 63.5333 1014.48 62.8333 1013.83 61.62C1013.27 60.4067 1012.94 59.52 1012.85 58.96C1012.85 58.68 1012.43 58.96 1011.59 59.8C1010.84 60.5467 1009.91 61.48 1008.79 62.6C1007.76 63.72 1006.78 64.7467 1005.85 65.68C1004.26 67.64 1002.58 70.3 1000.81 73.66C999.035 77.02 996.935 81.08 994.509 85.84C993.389 88.1733 992.455 90.4133 991.709 92.56C990.962 94.6133 990.169 95.78 989.329 96.06ZM1075.76 100.68C1074.73 101.053 1073.56 101.24 1072.26 101.24C1071.04 101.333 1069.64 100.773 1068.06 99.56C1067.12 98.5333 1066.47 97.46 1066.1 96.34C1065.82 95.22 1065.68 93.4933 1065.68 91.16C1065.86 89.76 1066.24 87.7533 1066.8 85.14C1067.36 82.4333 1067.96 79.6333 1068.62 76.74C1069.36 73.7533 1070.02 71.0933 1070.58 68.76C1071.23 66.3333 1071.74 64.7 1072.12 63.86C1072.77 61.62 1072.91 60.22 1072.54 59.66C1072.16 59.1 1071.04 58.7733 1069.18 58.68C1067.03 58.5867 1064.79 59.6133 1062.46 61.76C1060.12 63.9067 1057.46 67.3133 1054.48 71.98C1052.24 75.4333 1050.88 78.28 1050.42 80.52C1049.95 82.6667 1049.9 84.16 1050.28 85C1050.46 85.3733 1050.79 85.6067 1051.26 85.7C1051.82 85.7 1052.47 85.56 1053.22 85.28C1054.06 85 1054.94 84.6267 1055.88 84.16C1056.53 83.7867 1057.32 83.4133 1058.26 83.04C1059.28 82.5733 1060.26 82.1533 1061.2 81.78C1061.76 81.78 1062.13 82.1067 1062.32 82.76C1062.6 83.4133 1062.74 84.2067 1062.74 85.14C1062.74 85.5133 1062.83 86.2133 1063.02 87.24C1063.3 88.2667 1063.76 88.9667 1064.42 89.34C1064.79 89.7133 1064 90.5067 1062.04 91.72C1060.17 92.84 1057.74 94.24 1054.76 95.92C1051.96 96.5733 1049.86 96.9 1048.46 96.9C1047.15 96.9 1045.7 96.2933 1044.12 95.08C1041.5 93.4933 1039.82 90.5533 1039.08 86.26C1038.42 81.9667 1038.98 77.2067 1040.76 71.98C1042.53 67.78 1044.49 64.1867 1046.64 61.2C1048.88 58.12 1051.21 55.32 1053.64 52.8C1054.01 52.4267 1055.18 51.68 1057.14 50.56C1059.1 49.44 1061.1 48.5533 1063.16 47.9C1065.49 47.1533 1067.45 46.8733 1069.04 47.06C1070.72 47.1533 1072.3 47.7133 1073.8 48.74C1075.48 49.1133 1076.6 49.0667 1077.16 48.6C1077.81 48.1333 1078.56 46.8267 1079.4 44.68C1081.08 40.0133 1082.85 35.3 1084.72 30.54C1086.58 25.6867 1088.54 20.7867 1090.6 15.84C1091.53 14.0667 1092.09 12.7133 1092.28 11.78C1092.56 10.7533 1092.88 10.0533 1093.26 9.68L1097.18 8.42C1098.2 8.14 1099.37 8.60666 1100.68 9.82C1102.08 11.0333 1102.96 12.2 1103.34 13.32C1103.34 14.16 1102.96 16.0267 1102.22 18.92C1101.47 21.72 1100.26 25.08 1098.58 29C1097.08 32.4533 1095.59 35.9533 1094.1 39.5C1092.7 42.9533 1091.34 46.64 1090.04 50.56C1089.01 53.4533 1088.08 55.7867 1087.24 57.56C1086.4 59.3333 1085.84 60.8733 1085.56 62.18C1085 64.6067 1084.3 66.8 1083.46 68.76C1082.71 70.6267 1082.2 71.9333 1081.92 72.68C1080.7 76.2267 1079.77 79.1667 1079.12 81.5C1078.46 83.74 1078.04 85.7 1077.86 87.38C1077.67 88.9667 1077.62 90.5533 1077.72 92.14C1077.81 93.6333 1078 95.36 1078.28 97.32C1078.28 97.6933 1078 98.2533 1077.44 99C1076.97 99.6533 1076.41 100.213 1075.76 100.68Z" fill="#B8C318"/>
</svg>
