<svg width="2560" height="1440" viewBox="0 0 2560 1440" fill="none" xmlns="http://www.w3.org/2000/svg">
<g clip-path="url(#clip0_1912_905)">
<path opacity="0.52" d="M2155.63 502.599C2155.63 597.065 2134.76 699.743 2074.21 778.422C1899.06 1006.02 1686.97 1002.76 1359.41 1002.76C1160.46 1002.76 865.592 1022.17 697.031 961.445C445.183 870.743 358.747 755.929 358.747 589.4C358.747 450.587 460.49 258.85 608.36 179.646C756.685 100.191 951.526 46.6738 1199.93 46.6738C1506.66 46.6738 1794.53 88.5115 1973.27 206.109C2083.82 278.743 2155.63 396.454 2155.63 502.599Z" fill="#FDFDFB"/>
<path d="M2108.11 503.831C2108.11 593.324 2088.33 690.549 2030.98 765.077C1865.11 980.63 1664.23 977.55 1354 977.55C1165.57 977.55 886.35 995.937 726.664 938.427C488.184 852.539 406.265 743.679 406.265 586.046C406.265 454.602 502.624 272.994 642.692 197.965C783.17 122.684 967.699 72.041 1203.01 72.041C1493.55 72.041 1766.18 111.666 1935.51 223.058C2040.08 291.837 2108.11 403.32 2108.11 503.831Z" fill="#FDFDFB"/>
<path d="M964.094 448.328H932.157V721.756L964.094 738.203V587.848H1158.8V555.911H964.094V448.328Z" fill="#D1CDC8"/>
<path d="M1495.17 769.434V801.964H1691.79L1711.31 769.434H1495.17Z" fill="#D1CDC8"/>
<path d="M1087.3 396.934C1087.3 427.069 1024.98 451.5 948.149 451.5C871.317 451.5 808.994 427.069 808.994 396.934" fill="#BAB4AC"/>
<path d="M971.577 534.902H924.675C904.264 534.902 887.719 551.448 887.719 571.858C887.719 592.268 904.264 608.814 924.675 608.814H971.577C991.987 608.814 1008.53 592.268 1008.53 571.858C1008.53 551.448 991.987 534.902 971.577 534.902Z" fill="#A69E94"/>
<path d="M1190.8 913.493L1174.65 850.736C1174.43 849.856 1174.56 848.922 1175.02 848.139C1175.48 847.356 1176.24 846.788 1177.12 846.562C1178 846.335 1178.93 846.467 1179.71 846.929C1180.5 847.391 1181.06 848.145 1181.29 849.025L1195.48 904.208L1318.94 854.021C1319.78 853.679 1320.72 853.686 1321.56 854.039C1322.4 854.391 1323.06 855.062 1323.4 855.903C1323.74 856.744 1323.74 857.686 1323.38 858.523C1323.03 859.359 1322.36 860.021 1321.52 860.363L1190.8 913.493Z" fill="#BAB3AD"/>
<path d="M1190.46 925.333C1189.85 925.326 1189.23 925.242 1188.64 925.082C1186.89 924.597 1185.4 923.438 1184.51 921.86C1183.62 920.281 1183.39 918.412 1183.87 916.664L1198.67 863.306C1199.16 861.558 1200.32 860.074 1201.9 859.182C1203.48 858.29 1205.36 858.063 1207.1 858.55C1208.85 859.037 1210.34 860.199 1211.23 861.779C1212.12 863.36 1212.35 865.23 1211.86 866.979L1197.05 920.314C1196.66 921.756 1195.79 923.028 1194.6 923.934C1193.41 924.841 1191.96 925.332 1190.46 925.333Z" fill="#A69E94"/>
<path d="M1499.82 913.493L1369.1 860.318C1368.26 859.976 1367.59 859.314 1367.24 858.478C1366.89 857.641 1366.88 856.699 1367.22 855.858C1367.56 855.017 1368.23 854.346 1369.06 853.993C1369.9 853.64 1370.84 853.634 1371.68 853.976L1495.14 904.163L1509.35 848.98C1509.45 848.524 1509.63 848.091 1509.89 847.708C1510.16 847.325 1510.5 847 1510.89 846.753C1511.29 846.506 1511.73 846.342 1512.19 846.271C1512.65 846.2 1513.12 846.223 1513.57 846.339C1514.02 846.456 1514.44 846.663 1514.81 846.948C1515.17 847.233 1515.48 847.591 1515.71 847.998C1515.93 848.405 1516.07 848.854 1516.12 849.317C1516.16 849.78 1516.11 850.248 1515.97 850.691L1499.82 913.493Z" fill="#BAB3AD"/>
<path d="M1500.16 925.333C1498.67 925.332 1497.21 924.841 1496.02 923.934C1494.83 923.028 1493.97 921.756 1493.57 920.314L1478.76 866.979C1478.28 865.23 1478.5 863.36 1479.4 861.779C1480.29 860.199 1481.77 859.037 1483.52 858.55C1485.27 858.063 1487.14 858.29 1488.72 859.182C1490.3 860.074 1491.46 861.558 1491.95 863.306L1506.75 916.664C1507.24 918.412 1507.01 920.281 1506.11 921.86C1505.22 923.438 1503.73 924.597 1501.99 925.082C1501.39 925.242 1500.78 925.326 1500.16 925.333Z" fill="#A69E94"/>
<path d="M1450.61 426.863H1240.01C1195.16 426.863 1158.8 463.223 1158.8 508.075V796.239C1158.8 841.091 1195.16 877.451 1240.01 877.451H1450.61C1495.47 877.451 1531.83 841.091 1531.83 796.239V508.075C1531.83 463.223 1495.47 426.863 1450.61 426.863Z" fill="#F7F6F5"/>
<path d="M1453.15 873.138H1253.08C1248.25 873.138 1243.39 873.275 1238.55 873.138C1218.78 872.069 1200.19 863.358 1186.72 848.843C1173.28 834.381 1165.73 815.412 1165.57 795.668V509.534C1165.35 498.06 1167.51 486.663 1171.92 476.068C1179.64 458.213 1193.92 444.004 1211.81 436.375C1220 433.037 1228.75 431.265 1237.59 431.151H1445.91C1461.96 430.717 1477.75 435.325 1491.04 444.328C1504.34 453.33 1514.48 466.274 1520.03 481.338C1523.55 491.005 1525.29 501.231 1525.16 511.518V788.573C1525.16 792.155 1525.16 795.736 1525.16 799.295C1524.63 819.51 1516.27 838.729 1501.85 852.904C1495.42 859.149 1487.9 864.153 1479.65 867.663C1475.5 869.413 1471.2 870.758 1466.79 871.678C1465.26 871.997 1465.58 871.952 1464 872.203C1462.43 872.454 1461.43 872.568 1460.13 872.705C1457.78 872.967 1455.42 873.112 1453.05 873.138C1449.98 873.138 1446.01 874.005 1444.39 876.993C1442.77 879.982 1445.64 881.761 1448.22 881.761C1470.69 881.79 1492.41 873.687 1509.38 858.949C1525.21 845.106 1535.38 825.914 1537.94 805.043C1538.45 799.638 1538.64 794.206 1538.51 788.778V527.418C1538.51 510.309 1539.33 493.314 1533.01 476.981C1525.48 457.647 1511.16 441.724 1492.73 432.2C1479.88 425.749 1465.69 422.449 1451.32 422.573H1245.42C1232.5 422.339 1219.66 424.561 1207.57 429.12C1187.81 436.925 1171.5 451.559 1161.6 470.365C1155.31 482.644 1152.07 496.26 1152.16 510.058V763.274C1152.16 774.498 1152.16 785.721 1152.16 796.945C1152.11 818.038 1159.97 838.384 1174.17 853.976C1188.69 869.581 1208.42 879.321 1229.63 881.35C1235.43 881.898 1241.29 881.738 1247.08 881.738H1448.2C1451.25 881.738 1455.24 880.871 1456.86 877.883C1458.48 874.894 1455.61 873.138 1453.15 873.138Z" fill="#DDDAD6"/>
<path d="M1499.07 632.31V790.901C1499.07 804.854 1493.53 818.237 1483.66 828.106C1473.8 837.975 1460.42 843.522 1446.46 843.528H1244.18C1230.23 843.528 1216.84 837.984 1206.97 828.114C1197.1 818.244 1191.56 804.858 1191.56 790.901V632.31C1191.56 632.31 1248.36 596.768 1345.31 632.31C1442.26 667.851 1499.07 632.31 1499.07 632.31Z" fill="#98CEE6"/>
<path d="M1202.03 500.661H1358.22C1361.51 500.671 1364.74 499.804 1367.58 498.151C1369.54 496.919 1369.54 495.619 1366.89 495.619H1210.7C1207.41 495.613 1204.19 496.471 1201.34 498.106C1199.38 499.36 1199.38 500.661 1202.03 500.661Z" fill="#DDDAD6"/>
<path d="M1202.05 553.813H1289.35C1292.64 553.841 1295.87 552.982 1298.71 551.327C1300.67 550.049 1300.69 548.703 1298.02 548.703H1210.7C1207.41 548.682 1204.18 549.549 1201.34 551.213C1199.38 552.468 1199.38 553.813 1202.05 553.813Z" fill="#DDDAD6"/>
<path d="M957.023 560.656C963.57 561.956 973.836 564.899 975.797 572.404C977.554 579.043 970.231 583.263 965.053 585.134C956.165 588.114 946.624 588.564 937.495 586.434C931.427 585.065 922.576 582.054 920.523 575.324C917.831 566.519 930.15 562.276 936.492 560.839C937.61 560.588 939.685 559.493 939.298 558.055C938.91 556.618 936.56 556.801 935.488 557.052C927.526 558.854 914.592 563.485 913.611 573.226C912.744 581.803 922.257 586.913 929.078 589.194C940.183 592.704 952.067 592.926 963.296 589.833C970.596 587.848 981.295 583.309 982.595 574.708C984.284 563.599 969.182 558.42 960.924 556.778C960.101 556.594 959.246 556.612 958.431 556.831C957.617 557.049 956.868 557.462 956.247 558.033C955.335 559.014 955.472 560.314 956.977 560.724L957.023 560.656Z" fill="white"/>
<path d="M955.586 558.672L963.388 569.508L973.471 553.973L955.586 558.672Z" fill="white"/>
<path d="M952.529 560.063L960.331 570.898C960.969 571.788 962.612 571.765 963.456 571.583C964.062 571.499 964.644 571.294 965.17 570.981C965.695 570.667 966.151 570.251 966.513 569.758L975.341 556.07L976.596 554.131C976.701 553.967 976.77 553.783 976.801 553.591C976.831 553.398 976.821 553.202 976.772 553.013C976.723 552.825 976.635 552.648 976.514 552.495C976.394 552.342 976.243 552.216 976.071 552.124C975.592 551.878 975.069 551.731 974.532 551.692C973.995 551.653 973.455 551.722 972.946 551.896L957.274 556.002L954.992 556.572C953.829 556.892 951.822 557.964 952.232 559.469C952.643 560.975 954.947 560.884 956.065 560.587L971.805 556.618L974.086 556.025L970.414 553.744L961.585 567.317L960.308 569.256L966.49 568.115L958.688 557.279C957.068 555.135 950.704 557.53 952.529 560.063Z" fill="white"/>
<path d="M1156.59 351.308C1156.43 351.718 1155.88 351.924 1154.97 351.924C1154.09 351.939 1153.24 351.658 1152.55 351.125C1152.2 350.793 1151.89 350.426 1151.61 350.03C1151.48 349.757 1151.61 349.323 1151.84 348.707L1153.28 345.422C1153.45 344.42 1153.73 343.44 1154.12 342.502C1154.51 341.521 1154.83 340.837 1155.01 340.426C1155.19 340.016 1155.51 338.943 1156.01 337.643C1156.52 336.343 1157.09 334.883 1157.75 333.286C1158.41 331.689 1159.05 330.161 1159.64 328.724C1160.24 327.286 1160.69 326.214 1160.97 325.507C1161.65 323.91 1162.36 322.222 1163.06 320.443C1163.77 318.663 1164.77 316.473 1166.03 313.782C1166.09 313.562 1166.09 313.333 1166.03 313.113C1165.97 312.894 1165.86 312.692 1165.71 312.527C1165.55 312.298 1165.33 312.116 1165.07 312C1164.81 311.884 1164.53 311.837 1164.25 311.865C1163.89 311.475 1163.65 310.98 1163.59 310.451C1163.55 310.232 1163.6 310.007 1163.71 309.816C1163.82 309.625 1164 309.478 1164.2 309.402L1169.73 307.531C1171.62 307.093 1173.58 306.962 1175.52 307.143C1177.49 307.319 1179.4 307.877 1181.15 308.786C1182.83 309.689 1184.26 310.97 1185.35 312.527C1186.19 313.748 1186.7 315.161 1186.83 316.633C1186.95 317.911 1186.77 319.199 1186.31 320.397C1185.88 321.423 1185.26 322.359 1184.48 323.157C1183.52 324.234 1182.47 325.24 1181.36 326.169C1180.2 327.161 1178.97 328.075 1177.69 328.906C1176.58 329.644 1175.4 330.278 1174.17 330.8C1173.17 331.279 1172.05 331.758 1170.82 332.26C1169.59 332.761 1168.36 333.195 1167.22 333.56C1166.47 333.725 1165.7 333.801 1164.93 333.788C1164.27 333.817 1163.6 333.74 1162.95 333.56L1161.95 335.476C1161.54 336.913 1160.85 339.058 1159.87 341.909C1158.89 344.761 1157.75 347.817 1156.59 351.308ZM1180.45 352.448C1179.93 352.595 1179.39 352.641 1178.85 352.585C1177.95 352.481 1177.09 352.143 1176.36 351.604C1174.49 350.501 1172.72 349.234 1171.07 347.817C1168.94 345.968 1166.95 343.962 1165.12 341.818C1164.33 340.918 1163.7 339.902 1163.22 338.807C1162.81 337.803 1162.27 336.525 1161.63 335.02L1160.78 331.78L1163.06 330.275L1165.71 332.442C1166.36 333.841 1167.12 335.184 1167.99 336.457C1168.79 337.664 1169.66 338.815 1170.61 339.902C1171.32 340.723 1172.3 341.749 1173.56 342.936C1174.82 344.132 1176.14 345.259 1177.53 346.312C1178.71 347.26 1179.97 348.093 1181.31 348.798C1181.54 348.981 1181.61 349.369 1181.52 349.962C1181.43 350.528 1181.27 351.08 1181.04 351.604C1180.68 352.038 1180.49 352.312 1180.33 352.357L1180.45 352.448ZM1165.3 328.883C1166.34 328.785 1167.37 328.531 1168.33 328.13C1169.43 327.72 1170.61 327.241 1171.85 326.716C1173.08 326.191 1174.13 325.553 1175.31 324.891C1176.42 324.222 1177.47 323.459 1178.44 322.61C1179.34 321.882 1180.11 321.011 1180.72 320.032C1181.25 319.147 1181.5 318.12 1181.43 317.089C1181.4 316.473 1181.22 315.873 1180.93 315.333C1180.61 314.696 1180.19 314.111 1179.69 313.599C1179.28 313.131 1178.76 312.778 1178.17 312.573C1176.96 312.246 1175.73 312.002 1174.49 311.843C1173.86 311.728 1173.21 311.859 1172.67 312.208C1172.21 312.669 1171.91 313.258 1171.8 313.896C1171.69 314.295 1171.53 314.678 1171.32 315.036L1170.14 317.477C1169.68 318.458 1169.22 319.507 1168.79 320.625L1166.23 325.826C1165.85 326.557 1165.53 327.321 1165.28 328.108C1165 328.496 1165.03 328.632 1165.19 328.792L1165.3 328.883Z" fill="#B8C318"/>
<path d="M1189.41 346.359C1189.15 345.953 1188.79 345.622 1188.36 345.401C1187.82 345.082 1187.54 344.831 1187.54 344.671C1187.51 344.403 1187.41 344.147 1187.27 343.918C1187.14 343.645 1186.97 343.392 1186.77 343.165C1186.56 342.937 1186.63 342.344 1186.95 341.386C1187.37 340.214 1187.85 339.064 1188.39 337.941C1189.02 336.573 1189.73 335.204 1190.48 333.79C1190.85 333.411 1191.17 332.99 1191.44 332.535C1191.65 332.169 1191.89 331.825 1192.17 331.508C1192.18 331.34 1192.24 331.179 1192.36 331.052C1192.4 330.989 1192.47 330.938 1192.54 330.902C1192.61 330.867 1192.69 330.848 1192.77 330.847L1193.24 329.889C1193.47 329.552 1193.72 329.232 1194 328.931C1194.43 328.452 1194.93 327.904 1195.55 327.334C1196.16 326.763 1196.76 326.193 1197.37 325.668C1197.86 325.262 1198.37 324.881 1198.9 324.528C1199.67 323.994 1200.59 323.722 1201.53 323.752C1202.36 323.778 1203.16 324.075 1203.81 324.596L1204.63 325.326L1206.07 326.513L1207.48 327.722L1209.76 329.706L1208.76 332.717C1208.26 334.057 1208.11 335.502 1208.32 336.915C1208.53 338.013 1208.91 339.069 1209.46 340.04C1209.65 340.446 1209.93 340.799 1210.29 341.067C1210.69 341.322 1211.15 341.485 1211.63 341.546C1211.96 341.593 1212.27 341.718 1212.54 341.911C1212.69 342.025 1212.8 342.172 1212.87 342.339C1212.94 342.506 1212.97 342.688 1212.95 342.869C1213.02 343.597 1212.84 344.326 1212.45 344.945C1212.17 345.311 1211.78 345.575 1211.34 345.698C1210.06 345.866 1208.76 345.717 1207.55 345.264C1206.08 344.567 1204.92 343.347 1204.31 341.842C1204.05 341.418 1203.83 340.967 1203.67 340.496C1203.5 340.071 1203.34 339.637 1203.21 339.196C1203.05 339.401 1202.85 339.652 1202.58 339.949L1201.85 340.77C1199.77 343.07 1197.28 344.971 1194.52 346.382C1193.74 346.818 1192.86 347.045 1191.96 347.041C1191.07 347.037 1190.19 346.802 1189.41 346.359ZM1193.97 340.907C1194.81 340.393 1195.61 339.821 1196.37 339.196L1199.75 336.322C1200.71 335.439 1201.58 334.452 1202.32 333.379L1203.65 331.212C1203.41 330.545 1203.03 329.932 1202.55 329.41C1202.3 329.147 1201.96 328.992 1201.59 328.976C1200.88 329.076 1200.22 329.433 1199.75 329.98C1198.83 330.849 1198.02 331.813 1197.31 332.854C1196.39 334.132 1195.39 335.706 1194.27 337.576C1193.6 338.78 1193.06 340.049 1192.65 341.363C1193.15 341.356 1193.64 341.197 1194.04 340.907H1193.97Z" fill="#B8C318"/>
<path d="M1217.95 346.587C1217.59 346.183 1217.35 345.685 1217.27 345.15C1217.13 344.528 1217.08 343.892 1217.11 343.256C1217.12 342.769 1217.23 342.29 1217.43 341.842C1217.41 341.584 1217.46 341.327 1217.56 341.089C1217.6 341.011 1217.62 340.925 1217.62 340.838C1217.62 340.752 1217.6 340.666 1217.56 340.587C1217.53 340.301 1217.57 340.012 1217.68 339.743L1218.04 338.603C1218.4 337.791 1218.72 336.961 1219 336.116L1220.1 332.991C1220.46 331.919 1220.76 331.006 1220.98 330.208C1221.21 329.409 1221.37 328.953 1221.42 328.793C1221.46 328.634 1221.74 328.063 1222.38 328.018C1222.69 327.964 1223.02 327.99 1223.32 328.094C1223.62 328.197 1223.89 328.375 1224.11 328.611C1224.75 329.124 1225.3 329.732 1225.75 330.413C1225.91 330.581 1226.03 330.786 1226.08 331.009C1226.14 331.232 1226.15 331.466 1226.09 331.691C1225.94 332.483 1225.68 333.25 1225.32 333.972C1225.09 334.491 1224.9 335.024 1224.75 335.569C1224.56 336.175 1224.41 336.792 1224.29 337.417C1224.13 337.736 1223.95 338.169 1223.72 338.762C1223.49 339.356 1223.31 339.903 1223.15 340.405C1223.04 340.769 1222.96 341.144 1222.92 341.523C1222.92 342.07 1222.74 342.618 1222.63 343.165C1222.53 343.631 1222.36 344.078 1222.13 344.488C1221.78 346.154 1221.14 347.112 1220.23 347.385C1219.82 347.5 1219.37 347.486 1218.97 347.343C1218.56 347.2 1218.2 346.936 1217.95 346.587ZM1224.45 322.497C1224.02 322.192 1223.68 321.784 1223.45 321.311C1223.26 320.924 1223.15 320.507 1223.11 320.079C1223.11 319.714 1223.11 319.509 1223.11 319.418C1223.55 318.904 1223.91 318.318 1224.16 317.684C1224.43 316.996 1224.76 316.333 1225.14 315.699L1225.48 315.197C1225.57 315.011 1225.72 314.864 1225.91 314.787C1226.22 314.619 1226.57 314.531 1226.93 314.531C1227.28 314.531 1227.63 314.619 1227.94 314.787C1228.71 315.087 1229.37 315.612 1229.84 316.292C1230.18 317.002 1230.29 317.798 1230.16 318.574C1229.95 319.505 1229.51 320.369 1228.88 321.083C1228.33 321.856 1227.52 322.406 1226.6 322.634C1226.25 322.757 1225.88 322.808 1225.51 322.785C1225.14 322.761 1224.78 322.664 1224.45 322.497Z" fill="#B8C318"/>
<path d="M1253.2 346.176C1252.41 346.128 1251.63 345.935 1250.91 345.605C1250.24 345.18 1249.73 344.524 1249.5 343.758C1249.34 343.101 1249.27 342.426 1249.29 341.75C1249.31 341.071 1249.37 340.393 1249.45 339.72C1249.45 339.058 1249.45 338.488 1249.45 338.009V336.846C1249.45 336.252 1249.23 335.887 1249 335.751C1248.82 335.669 1248.63 335.627 1248.44 335.627C1248.25 335.627 1248.06 335.669 1247.88 335.751C1246.94 336.215 1246.03 336.749 1245.17 337.347C1244.1 338.055 1243.07 338.817 1242.09 339.629C1241.04 340.473 1239.94 341.385 1238.82 342.366C1238.12 343.083 1237.47 343.845 1236.86 344.647C1236.74 344.896 1236.55 345.109 1236.33 345.269C1236.1 345.428 1235.84 345.528 1235.56 345.56C1235.41 345.653 1235.24 345.702 1235.06 345.702C1234.88 345.702 1234.71 345.653 1234.56 345.56C1234.19 345.309 1233.8 345.035 1233.42 344.716C1233.03 344.396 1232.8 343.986 1232.41 343.484C1232.15 343.172 1231.92 342.836 1231.73 342.48C1231.72 341.899 1231.77 341.319 1231.87 340.746C1231.99 340.196 1232.15 339.654 1232.34 339.127C1232.57 338.556 1232.85 337.918 1233.17 337.188C1233.33 336.914 1233.49 336.617 1233.62 336.321C1233.77 335.985 1233.94 335.658 1234.12 335.34C1234.32 334.681 1234.54 334.034 1234.81 333.401C1235.13 332.694 1235.4 332.009 1235.7 331.371C1236.08 330.483 1236.41 329.577 1236.7 328.656C1236.97 327.851 1237.17 327.027 1237.32 326.192C1237.32 326.192 1237.32 325.987 1237.32 325.827C1237.36 325.756 1237.41 325.692 1237.47 325.641C1237.53 325.59 1237.6 325.553 1237.68 325.531H1237.82C1238.33 325.344 1238.89 325.344 1239.39 325.531C1240.03 325.609 1240.65 325.844 1241.17 326.215C1241.58 326.561 1241.9 326.996 1242.11 327.487C1242.32 327.978 1242.41 328.511 1242.38 329.044C1242.16 330.687 1241.54 332.252 1240.58 333.606C1240.32 334.208 1240.02 334.794 1239.69 335.363C1239.47 335.702 1239.32 336.082 1239.26 336.481L1240.88 335.249C1241.31 334.907 1241.7 334.633 1242.02 334.427C1242.34 334.222 1242.66 333.857 1243.34 333.332C1244.02 332.808 1244.75 332.215 1245.62 331.622C1246.49 331.028 1247.08 330.549 1247.56 330.23C1248.09 329.854 1248.65 329.518 1249.23 329.226C1249.63 329.005 1250.06 328.836 1250.5 328.724C1251.02 328.753 1251.52 328.902 1251.96 329.158C1252.55 329.422 1253.1 329.751 1253.61 330.139C1253.99 330.397 1254.29 330.762 1254.47 331.188C1254.49 331.401 1254.49 331.614 1254.47 331.827C1254.45 332.055 1254.45 332.284 1254.47 332.511C1254.47 333.15 1254.47 333.926 1254.47 334.792C1254.47 335.659 1254.47 336.595 1254.47 337.484C1254.48 338.304 1254.41 339.122 1254.24 339.925C1254.32 340.04 1254.38 340.162 1254.43 340.29C1254.43 340.29 1254.43 340.45 1254.43 340.632C1254.49 340.921 1254.59 341.203 1254.7 341.476C1254.81 341.797 1254.94 342.109 1255.09 342.412C1255.24 342.746 1255.42 343.18 1255.64 343.712C1255.55 344.316 1255.23 344.863 1254.75 345.24C1254.32 345.682 1253.79 346.005 1253.2 346.176Z" fill="#B8C318"/>
<path d="M1266.09 345.811C1265.47 345.811 1264.88 345.355 1264.28 344.465C1263.62 343.444 1263.15 342.317 1262.87 341.134C1262.53 339.856 1262.4 338.531 1262.48 337.211C1262.46 336.18 1262.53 335.15 1262.69 334.131C1262.82 333.333 1262.98 332.58 1263.14 331.85C1263.24 331.664 1263.31 331.464 1263.35 331.257C1263.35 331.097 1263.35 330.823 1263.35 330.458C1263.35 330.093 1263.53 329.5 1263.74 328.656C1263.87 328.088 1264.04 327.531 1264.26 326.991C1264.36 326.669 1264.51 326.362 1264.69 326.078C1265.08 325.51 1265.65 325.097 1266.31 324.915C1266.87 324.769 1267.47 324.843 1267.98 325.12C1268.21 325.242 1268.42 325.42 1268.57 325.639C1268.72 325.858 1268.81 326.111 1268.85 326.375C1269.1 326.58 1269.21 327.037 1269.23 327.744C1269.25 328.461 1269.21 329.179 1269.1 329.888C1269.03 330.452 1268.84 330.996 1268.55 331.485C1268.4 331.998 1268.31 332.526 1268.28 333.059C1268.28 333.903 1268.07 334.77 1267.98 335.705C1267.92 336.473 1267.8 337.235 1267.64 337.986C1267.64 338.716 1267.64 339.173 1267.8 339.355C1267.96 339.538 1268.41 339.355 1269.01 338.808C1269.85 337.905 1270.62 336.928 1271.29 335.888C1272.08 334.679 1272.68 333.743 1273.07 333.059C1273.41 332.461 1273.71 331.836 1273.96 331.188C1274.18 330.641 1274.43 329.979 1274.71 329.226C1274.98 328.474 1275.12 328.063 1275.28 327.652C1275.41 327.345 1275.59 327.061 1275.8 326.808C1275.98 326.51 1276.25 326.274 1276.57 326.131C1276.89 325.988 1277.24 325.946 1277.58 326.01C1278.23 326.072 1278.85 326.283 1279.41 326.626C1279.91 327.16 1280.22 327.853 1280.27 328.588C1280.35 329.514 1280.15 330.442 1279.7 331.257C1279.34 331.996 1279.03 332.758 1278.77 333.538C1278.48 334.406 1278.25 335.289 1278.06 336.184C1277.89 336.934 1277.8 337.698 1277.79 338.465C1277.79 339.264 1277.79 339.743 1278.11 339.88C1278.36 340.022 1278.64 340.093 1278.93 340.085C1279.43 340.072 1279.91 339.896 1280.3 339.583C1280.98 339.019 1281.63 338.41 1282.24 337.758C1282.71 337.249 1283.16 336.708 1283.56 336.139C1284.06 335.409 1284.59 334.656 1285.09 333.857C1285.59 333.059 1286 332.352 1286.34 331.736C1286.59 331.374 1286.76 330.973 1286.87 330.55C1286.93 330.168 1287.11 329.816 1287.39 329.546L1287.96 328.793C1288.19 328.545 1288.47 328.35 1288.78 328.223C1289.13 328.084 1289.51 328.084 1289.86 328.223C1290.26 328.308 1290.62 328.525 1290.88 328.839C1291.16 329.174 1291.32 329.591 1291.34 330.025C1291.42 330.568 1291.47 331.117 1291.48 331.667C1291.36 332.124 1291.18 332.717 1290.95 333.515C1290.72 334.314 1290.45 335.021 1290.2 335.796C1290.03 336.295 1289.8 336.77 1289.51 337.211L1288.67 338.078C1288.27 338.502 1287.9 338.96 1287.57 339.446C1286.92 340.268 1286.19 341.031 1285.41 341.728C1284.97 342.093 1284.59 342.435 1284.27 342.754C1283.43 343.587 1282.46 344.266 1281.39 344.762C1280.43 345.238 1279.38 345.525 1278.31 345.606C1277.52 345.703 1276.71 345.526 1276.03 345.104C1275.44 344.805 1274.95 344.338 1274.62 343.762C1274.29 343.186 1274.14 342.526 1274.18 341.864C1274.15 341.423 1274.04 340.991 1273.86 340.587C1273.65 340.598 1273.44 340.644 1273.25 340.724C1272.97 340.724 1272.72 341.066 1272.43 341.545C1271.97 342.354 1271.35 343.06 1270.6 343.621C1269.79 344.297 1268.91 344.886 1267.98 345.378C1267.38 345.648 1266.74 345.795 1266.09 345.811Z" fill="#B8C318"/>
<path d="M1297.47 346.359C1297.22 345.947 1296.86 345.615 1296.43 345.401C1295.9 345.081 1295.63 344.83 1295.63 344.671C1295.59 344.403 1295.5 344.146 1295.35 343.918C1295.22 343.645 1295.05 343.391 1294.85 343.165C1294.65 342.937 1294.69 342.344 1295.01 341.386C1295.44 340.213 1295.93 339.064 1296.47 337.941C1297.11 336.572 1297.79 335.204 1298.57 333.789C1298.94 333.41 1299.26 332.989 1299.53 332.534C1299.74 332.168 1299.98 331.824 1300.26 331.508C1300.26 331.423 1300.27 331.339 1300.3 331.261C1300.33 331.182 1300.38 331.111 1300.44 331.052C1300.49 330.989 1300.55 330.937 1300.62 330.902C1300.69 330.866 1300.77 330.847 1300.85 330.846L1301.33 329.888C1301.56 329.551 1301.81 329.231 1302.08 328.93C1302.52 328.451 1303.02 327.904 1303.61 327.333C1304.2 326.763 1304.82 326.193 1305.46 325.668C1305.94 325.256 1306.45 324.875 1306.99 324.527C1307.75 323.997 1308.66 323.725 1309.59 323.752C1310.42 323.78 1311.22 324.076 1311.87 324.596L1312.67 325.326L1314.13 326.512L1315.54 327.721L1317.82 329.706L1316.8 332.717C1316.29 334.056 1316.15 335.503 1316.39 336.914C1316.58 338.015 1316.97 339.073 1317.53 340.04C1317.71 340.439 1317.98 340.791 1318.33 341.066C1318.74 341.321 1319.21 341.485 1319.69 341.545C1320.02 341.588 1320.32 341.714 1320.58 341.91C1320.73 342.019 1320.85 342.165 1320.93 342.333C1321 342.5 1321.03 342.685 1321.02 342.868C1321.08 343.599 1320.89 344.329 1320.49 344.944C1320.22 345.308 1319.83 345.573 1319.4 345.697C1318.12 345.867 1316.82 345.718 1315.61 345.264C1314.13 344.569 1312.97 343.349 1312.35 341.842C1312.1 341.416 1311.89 340.965 1311.73 340.496C1311.55 340.075 1311.4 339.64 1311.28 339.196C1311.12 339.401 1310.91 339.652 1310.64 339.948L1309.88 340.77C1307.82 343.073 1305.34 344.975 1302.58 346.382C1301.8 346.814 1300.92 347.038 1300.03 347.034C1299.13 347.03 1298.25 346.798 1297.47 346.359ZM1302.04 340.907C1302.89 340.399 1303.69 339.827 1304.46 339.196L1307.81 336.321C1308.79 335.445 1309.66 334.458 1310.41 333.379L1311.73 331.211C1311.49 330.544 1311.12 329.931 1310.64 329.409C1310.39 329.147 1310.04 328.992 1309.68 328.976C1308.96 329.08 1308.29 329.435 1307.81 329.98C1306.91 330.856 1306.1 331.819 1305.39 332.854C1304.48 334.131 1303.47 335.705 1302.36 337.576C1301.69 338.783 1301.14 340.051 1300.71 341.363C1301.22 341.368 1301.7 341.207 1302.11 340.907H1302.04Z" fill="#B8C318"/>
<path d="M1330.12 347.682C1329.58 347.532 1329.09 347.25 1328.68 346.861C1328.15 346.4 1327.68 345.879 1327.27 345.31C1326.93 344.855 1326.65 344.356 1326.45 343.827C1326.39 343.646 1326.29 343.482 1326.15 343.348C1325.99 343.348 1325.9 342.686 1325.88 341.751C1325.87 340.699 1325.92 339.648 1326.04 338.603C1326.11 337.675 1326.25 336.753 1326.45 335.842C1326.65 335.204 1326.95 334.314 1327.36 333.219C1327.77 332.124 1328.09 331.12 1328.39 330.253L1330.01 326.763L1327.72 326.102C1327.44 326.019 1327.2 325.851 1327.02 325.623C1326.87 325.449 1326.77 325.234 1326.74 325.007C1326.81 324.512 1327 324.041 1327.29 323.638C1327.66 323.022 1327.91 322.725 1328.07 322.725C1328.44 322.76 1328.81 322.76 1329.18 322.725C1329.73 322.725 1330.26 322.725 1330.78 322.725C1331.1 322.727 1331.43 322.688 1331.74 322.611C1331.91 322.521 1332.08 322.405 1332.22 322.269C1332.39 322.101 1332.52 321.888 1332.58 321.653C1332.74 321.298 1332.92 320.955 1333.13 320.627L1333.79 319.555L1334.48 318.231C1334.66 317.866 1334.96 317.365 1335.34 316.726C1335.59 316.399 1335.81 316.056 1336 315.699C1336.24 315.302 1336.55 314.953 1336.92 314.673C1337.43 314.285 1338.04 314.047 1338.67 313.988C1339.05 313.911 1339.44 313.922 1339.81 314.021C1340.19 314.12 1340.53 314.304 1340.82 314.559C1341.1 314.88 1341.29 315.275 1341.37 315.699C1341.34 316.2 1341.18 316.683 1340.89 317.091C1340.56 317.729 1340.19 318.339 1339.77 318.916C1339.32 319.487 1338.92 320.098 1338.58 320.741C1337.94 321.638 1337.83 322.14 1338.24 322.246C1339.36 322.332 1340.49 322.255 1341.59 322.018C1342.02 321.892 1342.46 321.858 1342.9 321.917C1343.33 321.976 1343.75 322.127 1344.13 322.36C1344.38 322.569 1344.59 322.826 1344.74 323.116C1344.89 323.405 1344.99 323.722 1345.02 324.049C1345.15 325.007 1345.02 325.6 1344.72 325.805C1343.83 326.075 1342.89 326.175 1341.96 326.102C1341.14 326.246 1340.32 326.337 1339.49 326.375H1337.99H1336.96C1336.73 326.343 1336.49 326.343 1336.26 326.375C1335.98 326.423 1335.74 326.56 1335.55 326.763C1335.38 327.001 1335.24 327.253 1335.12 327.516C1334.81 327.898 1334.57 328.32 1334.39 328.771C1334.02 329.551 1333.62 330.313 1333.18 331.052C1332.63 332.717 1332.15 334.337 1331.76 335.888C1331.37 337.439 1331.05 338.968 1330.78 340.451C1330.61 340.993 1330.61 341.573 1330.78 342.116C1330.96 342.458 1331.47 342.663 1332.31 342.755C1332.95 342.796 1333.59 342.796 1334.23 342.755C1334.94 342.725 1335.65 342.618 1336.35 342.435L1337.72 341.796C1338.17 341.596 1338.61 341.368 1339.04 341.112L1340.66 340.154C1340.86 339.835 1341.16 339.88 1341.53 340.291C1341.89 340.682 1342.18 341.149 1342.35 341.66C1342.33 342.241 1342.23 342.818 1342.05 343.371C1341.84 344.032 1341.11 344.716 1339.77 345.446C1336.88 347.242 1333.47 347.983 1330.1 347.545L1330.12 347.682Z" fill="#B8C318"/>
<path d="M1360.37 346.403C1359.19 347.073 1357.88 347.478 1356.54 347.589C1355.26 347.692 1353.98 347.505 1352.79 347.042C1351.68 346.628 1350.7 345.909 1349.97 344.966C1349.44 344.212 1349.05 343.369 1348.83 342.479C1348.45 340.988 1348.39 339.434 1348.64 337.917C1348.9 335.972 1349.48 334.083 1350.35 332.328C1351.2 330.502 1352.33 328.817 1353.68 327.332C1354.85 325.996 1356.35 324.982 1358.02 324.389C1358.57 324.179 1359.15 324.026 1359.73 323.933C1360.49 323.84 1361.25 323.84 1362.01 323.933C1362.86 324.024 1363.7 324.255 1364.47 324.617C1365.08 324.864 1365.62 325.246 1366.05 325.735C1366.6 326.249 1367.03 326.881 1367.3 327.583C1367.5 328.148 1367.58 328.743 1367.55 329.339C1367.26 330.823 1366.68 332.234 1365.84 333.491C1364.89 334.969 1363.52 336.123 1361.9 336.799C1361.17 337.084 1360.4 337.261 1359.62 337.324C1358.34 337.379 1357.07 337.256 1355.83 336.959C1354.85 336.776 1354.23 336.959 1353.94 337.278C1353.57 337.978 1353.43 338.777 1353.55 339.559C1353.59 340.217 1353.76 340.86 1354.05 341.453C1354.19 341.736 1354.4 341.983 1354.65 342.176C1354.91 342.369 1355.2 342.504 1355.51 342.571C1356.16 342.734 1356.84 342.734 1357.49 342.571C1358.01 342.392 1358.51 342.187 1359 341.955L1359.93 341.293L1360.85 340.563L1361.6 340.016C1361.78 339.877 1361.98 339.776 1362.19 339.719H1362.79C1363.29 339.777 1363.75 340.031 1364.06 340.426C1364.41 340.792 1364.67 341.228 1364.84 341.704C1364.76 342.2 1364.55 342.666 1364.22 343.05C1363.77 343.707 1363.24 344.311 1362.65 344.852C1361.95 345.448 1361.18 345.968 1360.37 346.403ZM1359.62 333.058C1360.06 332.827 1360.47 332.543 1360.85 332.214C1361.38 331.784 1361.88 331.311 1362.33 330.799C1362.66 330.486 1362.89 330.081 1362.99 329.636C1362.99 329.18 1362.7 328.815 1362.12 328.495C1361.41 328.155 1360.6 328.09 1359.84 328.313C1359.42 328.443 1359.03 328.669 1358.7 328.974C1358.22 329.342 1357.78 329.754 1357.38 330.206C1356.97 330.618 1356.59 331.06 1356.24 331.529C1355.99 331.836 1355.77 332.164 1355.58 332.51C1355.84 332.77 1356.17 332.938 1356.54 332.989C1357.06 333.113 1357.6 333.174 1358.13 333.172C1358.63 333.177 1359.13 333.138 1359.62 333.058Z" fill="#B8C318"/>
<path d="M1372.98 345.993C1372.57 345.668 1372.18 345.31 1371.82 344.921C1371.6 344.67 1371.44 344.369 1371.36 344.042C1371.28 343.716 1371.28 343.376 1371.36 343.05C1371.46 342.045 1371.62 341.047 1371.84 340.062C1372.05 339.218 1372.28 338.214 1372.55 337.096C1372.55 336.617 1372.85 335.796 1373.19 334.633C1373.53 333.469 1373.94 332.215 1374.42 330.846C1374.9 329.477 1375.4 328.2 1375.93 326.968C1376.3 326.014 1376.77 325.097 1377.32 324.23C1377.87 323.798 1378.56 323.586 1379.26 323.637C1379.89 323.565 1380.52 323.737 1381.04 324.116C1381.27 324.366 1381.43 324.673 1381.5 325.006C1381.57 325.34 1381.55 325.686 1381.45 326.01C1381.07 327.467 1380.51 328.87 1379.78 330.184C1379.58 330.663 1379.32 331.165 1379.03 331.713C1378.78 332.136 1378.57 332.579 1378.39 333.036C1378.28 333.378 1378.39 333.538 1378.39 333.492C1378.75 332.918 1379.2 332.402 1379.71 331.964C1380.37 331.358 1381.05 330.787 1381.77 330.253C1382.47 329.682 1383.16 329.18 1383.8 328.747C1384.22 328.436 1384.66 328.154 1385.12 327.903C1385.47 327.692 1385.85 327.516 1386.24 327.378C1386.53 327.298 1386.82 327.191 1387.1 327.059C1388.05 326.616 1389.1 326.442 1390.14 326.557C1391.26 326.557 1391.92 326.991 1392.17 327.606C1392.21 327.807 1392.3 327.996 1392.42 328.161C1392.54 328.326 1392.7 328.464 1392.88 328.565C1393.03 328.565 1393.15 328.679 1393.17 328.93C1393.19 329.18 1392.92 329.614 1392.37 330.116C1391.9 330.601 1391.27 330.901 1390.59 330.96C1390.13 330.988 1389.66 331.088 1389.23 331.256L1387.77 331.872L1383.66 334.154C1382.24 334.975 1380.96 336.032 1379.89 337.279C1379.62 337.598 1379.32 337.895 1379.01 338.169C1378.62 338.519 1378.29 338.927 1378.02 339.378C1377.74 339.777 1377.54 340.226 1377.43 340.701C1377.23 341.385 1377.07 342.024 1376.93 342.64C1376.84 343.008 1376.77 343.381 1376.72 343.758C1376.55 344.361 1376.28 344.932 1375.93 345.446C1375.58 345.976 1375.09 346.395 1374.51 346.655C1374.17 346.883 1373.62 346.746 1372.98 345.993Z" fill="#B8C318"/>
<path d="M1417.65 351.308C1417.48 351.718 1416.94 351.924 1416.01 351.924C1415.14 351.936 1414.3 351.654 1413.61 351.125C1413.26 350.8 1412.94 350.432 1412.68 350.03C1412.62 349.807 1412.61 349.575 1412.64 349.347C1412.68 349.12 1412.76 348.902 1412.88 348.707C1413.18 348.068 1413.66 346.973 1414.34 345.422C1414.51 344.42 1414.79 343.44 1415.19 342.502C1415.57 341.521 1415.87 340.837 1416.08 340.426C1416.28 340.016 1416.58 338.943 1417.08 337.643C1417.58 336.343 1418.15 334.883 1418.81 333.286C1419.48 331.689 1420.11 330.161 1420.71 328.724C1421.3 327.286 1421.76 326.214 1422.03 325.507C1422.71 323.91 1423.42 322.222 1424.13 320.443C1424.84 318.663 1425.84 316.473 1427.07 313.782C1427.15 313.575 1427.18 313.35 1427.15 313.13C1427.12 312.91 1427.03 312.702 1426.89 312.527C1426.73 312.296 1426.52 312.112 1426.26 311.996C1426.01 311.879 1425.73 311.834 1425.45 311.865C1425.09 311.475 1424.86 310.98 1424.79 310.451C1424.75 310.231 1424.79 310.005 1424.9 309.812C1425.02 309.62 1425.2 309.474 1425.41 309.402L1430.93 307.531C1432.83 307.093 1434.78 306.962 1436.72 307.143C1438.69 307.322 1440.6 307.879 1442.36 308.786C1444.02 309.696 1445.46 310.976 1446.55 312.527C1447.34 313.662 1447.84 314.972 1448.01 316.344C1448.17 317.715 1448 319.106 1447.51 320.397C1447.07 321.418 1446.45 322.353 1445.69 323.157C1444.71 324.229 1443.67 325.234 1442.56 326.169C1441.39 327.155 1440.17 328.07 1438.89 328.906C1437.78 329.64 1436.6 330.273 1435.38 330.8C1434.37 331.279 1433.25 331.758 1432 332.26C1430.74 332.761 1429.56 333.195 1428.39 333.56C1427.65 333.728 1426.88 333.804 1426.11 333.788C1425.44 333.82 1424.77 333.743 1424.13 333.56L1423.1 335.476C1422.71 336.913 1422.01 339.058 1421.05 341.909C1420.09 344.761 1418.93 347.817 1417.65 351.308ZM1441.51 352.448C1440.99 352.594 1440.45 352.64 1439.92 352.585C1439.01 352.482 1438.14 352.144 1437.41 351.604C1435.54 350.495 1433.78 349.228 1432.14 347.817C1429.99 345.98 1428 343.974 1426.18 341.818C1425.4 340.918 1424.76 339.902 1424.29 338.807C1423.86 337.803 1423.33 336.525 1422.69 335.02L1421.85 331.78L1424.13 330.275L1426.78 332.442C1427.42 333.841 1428.19 335.184 1429.06 336.457C1429.85 337.664 1430.73 338.815 1431.68 339.902C1432.39 340.723 1433.37 341.749 1434.62 342.936C1435.88 344.132 1437.21 345.259 1438.59 346.312C1439.77 347.265 1441.04 348.098 1442.38 348.798C1442.61 348.981 1442.68 349.369 1442.58 349.962C1442.48 350.523 1442.32 351.073 1442.1 351.604C1441.85 352.038 1441.74 352.312 1441.51 352.357V352.448ZM1426.36 328.883C1427.41 328.782 1428.43 328.529 1429.4 328.13C1430.49 327.72 1431.68 327.241 1432.91 326.716C1434.14 326.191 1435.19 325.553 1436.36 324.891C1437.47 324.228 1438.51 323.464 1439.48 322.61C1440.38 321.887 1441.16 321.015 1441.76 320.032C1442.3 319.149 1442.54 318.118 1442.45 317.089C1442.42 316.475 1442.26 315.874 1441.97 315.333C1441.65 314.696 1441.23 314.111 1440.74 313.599C1440.32 313.131 1439.8 312.778 1439.21 312.573C1438 312.246 1436.77 312.002 1435.54 311.843C1434.9 311.721 1434.25 311.852 1433.71 312.208C1433.25 312.662 1432.94 313.254 1432.84 313.896C1432.73 314.295 1432.57 314.678 1432.36 315.036C1432.02 315.675 1431.63 316.496 1431.18 317.477C1430.72 318.458 1430.27 319.507 1429.83 320.625L1427.28 325.826C1426.89 326.557 1426.57 327.321 1426.32 328.108C1426.27 328.217 1426.25 328.336 1426.26 328.456C1426.26 328.575 1426.3 328.69 1426.36 328.792V328.883Z" fill="#B8C318"/>
<path d="M1460.74 346.405C1459.57 347.075 1458.26 347.48 1456.91 347.591C1455.64 347.691 1454.36 347.504 1453.17 347.044C1452.05 346.624 1451.07 345.906 1450.34 344.968C1449.82 344.208 1449.44 343.368 1449.2 342.481C1448.82 340.989 1448.76 339.436 1449.02 337.919C1449.29 335.978 1449.87 334.093 1450.73 332.33C1451.58 330.508 1452.71 328.825 1454.06 327.334C1455.23 326.002 1456.72 324.99 1458.39 324.391C1459.68 323.894 1461.07 323.73 1462.43 323.912C1463.28 324.009 1464.11 324.24 1464.89 324.596C1465.49 324.848 1466.02 325.23 1466.45 325.714C1467 326.228 1467.44 326.859 1467.72 327.562C1467.91 328.128 1467.98 328.724 1467.95 329.318C1467.66 330.802 1467.08 332.213 1466.24 333.47C1465.3 334.953 1463.92 336.108 1462.29 336.778C1461.56 337.063 1460.79 337.24 1460.01 337.303C1458.74 337.356 1457.46 337.233 1456.23 336.938C1455.27 336.755 1454.63 336.938 1454.33 337.257C1453.97 337.96 1453.84 338.756 1453.94 339.538C1454 340.194 1454.17 340.835 1454.45 341.432C1454.6 341.712 1454.81 341.956 1455.07 342.148C1455.32 342.341 1455.62 342.478 1455.93 342.55C1456.58 342.712 1457.26 342.712 1457.91 342.55L1459.42 341.934C1459.74 341.728 1460.04 341.5 1460.33 341.272L1461.24 340.542L1462 339.995C1462.17 339.86 1462.38 339.759 1462.59 339.698H1463.21C1463.7 339.764 1464.15 340.017 1464.46 340.405C1464.81 340.771 1465.07 341.207 1465.24 341.683C1465.16 342.175 1464.95 342.639 1464.64 343.029C1464.17 343.68 1463.64 344.284 1463.05 344.831C1462.34 345.436 1461.56 345.964 1460.74 346.405ZM1459.99 333.06C1460.43 332.817 1460.84 332.535 1461.22 332.216C1461.75 331.785 1462.23 331.312 1462.68 330.801C1463.01 330.488 1463.24 330.083 1463.34 329.638C1463.34 329.182 1463.05 328.817 1462.48 328.497C1461.76 328.157 1460.95 328.092 1460.19 328.315C1459.77 328.445 1459.38 328.671 1459.05 328.976C1458.58 329.349 1458.14 329.761 1457.73 330.208C1457.32 330.625 1456.94 331.067 1456.59 331.531C1456.34 331.838 1456.12 332.166 1455.93 332.512C1456.19 332.772 1456.52 332.94 1456.89 332.991C1457.41 333.113 1457.95 333.175 1458.48 333.174C1458.99 333.177 1459.49 333.139 1459.99 333.06Z" fill="#B8C318"/>
<path d="M1479.49 347.865C1478.33 348.059 1477.14 347.949 1476.03 347.545C1474.93 347.178 1473.95 346.506 1473.22 345.606C1472.46 344.682 1472.07 343.515 1472.1 342.321C1472 340.884 1472.11 339.439 1472.42 338.032C1472.78 336.312 1473.31 334.632 1474 333.014C1474.61 331.485 1475.43 330.049 1476.44 328.748C1477.24 327.79 1478.03 326.9 1478.72 326.102C1479.37 325.423 1480.14 324.873 1481 324.482C1481.66 324.204 1482.36 324.012 1483.08 323.912C1483.64 323.788 1484.21 323.711 1484.79 323.684C1485.52 323.882 1486.23 324.149 1486.91 324.482C1487.71 324.824 1488.09 325.258 1488.09 325.737L1488.39 326.033C1488.62 326.033 1488.89 326.33 1489.21 326.9C1489.52 327.531 1489.75 328.197 1489.9 328.885C1490.06 329.473 1490.02 330.102 1489.78 330.664C1489.6 331.473 1489.29 332.245 1488.85 332.945C1488.37 333.675 1487.98 334.04 1487.66 334.04H1487.2C1487.07 334.04 1487 334.154 1487 334.383C1487 334.588 1486.79 334.679 1486.38 334.679C1485.94 334.673 1485.5 334.588 1485.08 334.428C1484.9 334.381 1484.73 334.293 1484.58 334.17C1484.43 334.048 1484.32 333.894 1484.24 333.721C1484.21 333.455 1484.21 333.188 1484.24 332.923C1484.24 332.626 1484.44 332.078 1484.6 331.303C1484.84 330.561 1484.84 329.763 1484.6 329.022C1484.4 328.634 1483.9 328.611 1483.1 329.022C1482.17 329.517 1481.33 330.174 1480.63 330.961C1479.89 331.891 1479.31 332.94 1478.92 334.063C1478.42 335.386 1477.87 337.234 1477.26 339.584C1477.03 340.328 1477.03 341.121 1477.26 341.865C1477.44 342.39 1477.6 342.663 1477.71 342.709C1478.32 342.836 1478.94 342.836 1479.54 342.709C1480.12 342.638 1480.68 342.468 1481.2 342.207C1481.8 341.905 1482.37 341.554 1482.92 341.158L1484.56 339.926C1484.8 339.745 1484.99 339.5 1485.11 339.219C1485.25 338.891 1485.51 338.625 1485.84 338.466C1485.96 338.249 1486.14 338.066 1486.36 337.935C1486.57 337.804 1486.82 337.727 1487.07 337.713H1488.53C1488.91 337.832 1489.26 338.035 1489.55 338.306C1489.87 338.576 1490.15 338.891 1490.38 339.242C1490.56 339.538 1490.51 339.766 1490.38 339.88C1490.24 339.994 1490.1 339.88 1490.08 340.177C1490.06 340.473 1490.08 340.702 1489.55 341.272C1489.07 341.914 1488.54 342.517 1487.96 343.074C1487.38 343.66 1486.77 344.209 1486.13 344.716C1485.79 345.055 1485.37 345.292 1484.9 345.401C1484.49 345.401 1484.31 345.538 1484.31 345.766C1484.31 345.994 1484.01 346.04 1483.42 346.359C1482.78 346.727 1482.13 347.054 1481.46 347.34C1480.82 347.568 1480.16 347.744 1479.49 347.865Z" fill="#B8C318"/>
<path d="M1495.96 360.114C1494.6 360.392 1493.2 360.446 1491.81 360.274C1490.65 360.135 1489.52 359.779 1488.48 359.224C1487.73 358.866 1487.13 358.24 1486.82 357.468C1486.68 357.129 1486.64 356.759 1486.71 356.4C1486.77 356.041 1486.94 355.707 1487.18 355.437C1487.65 354.993 1488.25 354.713 1488.89 354.639C1489.55 354.639 1489.99 354.639 1490.19 354.89L1491.72 355.802C1492.53 356.201 1493.46 356.306 1494.34 356.099C1495.27 355.881 1496.12 355.424 1496.81 354.776C1497.51 354.067 1498.15 353.304 1498.72 352.495C1499.04 352.016 1499.59 351.149 1500.34 349.894C1501.1 348.639 1501.9 347.293 1502.63 345.788C1503.36 344.282 1504.15 342.891 1504.7 341.613C1504.84 341.294 1504.97 340.906 1505.13 340.473C1505.26 340.073 1505.46 339.702 1505.73 339.378C1505.98 338.898 1506.18 338.465 1506.37 338.032C1506.49 337.751 1506.6 337.461 1506.69 337.165C1506.83 336.745 1507.01 336.34 1507.23 335.956C1507.55 335.363 1507.85 334.769 1508.12 334.154C1508.4 333.538 1508.62 332.671 1509.04 331.507C1509.36 330.532 1509.76 329.586 1510.24 328.679L1511.41 326.397C1511.59 325.933 1511.94 325.553 1512.39 325.325C1512.68 325.081 1513.04 324.937 1513.42 324.915C1513.82 324.932 1514.22 325.058 1514.56 325.28C1515 325.703 1515.4 326.178 1515.74 326.694C1516.04 327.194 1516.17 327.779 1516.11 328.359C1515.93 329.309 1515.59 330.22 1515.1 331.051C1514.82 331.942 1514.46 332.811 1514.05 333.652C1513.82 334.196 1513.53 334.715 1513.19 335.203L1512.5 336.777C1512.23 337.37 1512 337.895 1511.8 338.374C1511.09 339.971 1510.45 341.294 1509.93 342.297C1509.4 343.301 1508.94 344.214 1508.56 345.058C1508.17 345.902 1507.74 346.883 1507.3 348.001L1504.61 352.244C1503.77 353.545 1502.86 354.794 1501.87 355.985C1501.33 356.485 1500.76 356.957 1500.16 357.399C1499.43 357.98 1498.67 358.52 1497.88 359.019C1497.31 359.493 1496.66 359.863 1495.96 360.114ZM1503.47 346.426C1502.71 346.248 1502.03 345.823 1501.53 345.217C1500.85 344.533 1500.26 343.767 1499.77 342.936C1499.41 342.446 1499.21 341.856 1499.2 341.248V340.587C1498.98 340.587 1498.77 340.244 1498.63 339.537C1498.48 338.654 1498.38 337.763 1498.34 336.868C1498.34 335.773 1498.34 334.587 1498.34 333.492C1498.34 332.397 1498.34 331.211 1498.5 330.298C1498.67 329.551 1498.76 328.785 1498.75 328.017C1498.75 327.196 1498.75 326.534 1498.75 326.055C1498.68 325.508 1498.82 324.957 1499.13 324.504C1499.34 324.211 1499.58 323.943 1499.84 323.705C1500.12 323.542 1500.43 323.44 1500.74 323.403C1501.06 323.367 1501.39 323.398 1501.69 323.495C1502 323.592 1502.28 323.752 1502.52 323.965C1502.76 324.179 1502.95 324.44 1503.08 324.732C1503.86 326.743 1504.1 328.919 1503.79 331.051C1503.79 332.648 1503.67 334.176 1503.67 335.613C1503.65 336.882 1503.79 338.148 1504.11 339.378C1504.28 340.293 1504.79 341.11 1505.55 341.659C1505.82 341.818 1505.93 342.161 1505.84 342.662C1505.75 343.244 1505.57 343.807 1505.29 344.328C1505.04 344.863 1504.73 345.367 1504.36 345.833C1504.02 346.381 1503.72 346.563 1503.47 346.541V346.426Z" fill="#B8C318"/>
<path d="M1527.58 347.865C1526.42 348.059 1525.22 347.949 1524.11 347.545C1523.01 347.172 1522.03 346.501 1521.29 345.606C1520.54 344.675 1520.16 343.511 1520.19 342.321C1520.07 340.884 1520.18 339.437 1520.51 338.032C1520.87 336.312 1521.4 334.632 1522.08 333.014C1522.69 331.486 1523.5 330.05 1524.5 328.748C1525.32 327.79 1526.12 326.9 1526.92 326.102C1527.54 325.434 1528.27 324.885 1529.09 324.482C1529.75 324.204 1530.45 324.012 1531.16 323.912C1531.73 323.788 1532.3 323.711 1532.87 323.684C1533.61 323.882 1534.32 324.149 1535 324.482C1535.77 324.824 1536.18 325.258 1536.18 325.737L1536.48 326.033C1536.71 326.033 1536.98 326.33 1537.28 326.9C1537.59 327.53 1537.83 328.196 1537.98 328.885C1538.16 329.474 1538.11 330.108 1537.85 330.664C1537.69 331.475 1537.38 332.249 1536.94 332.945C1536.46 333.675 1536.07 334.04 1535.75 334.04H1535.27C1535.13 334.04 1535.06 334.154 1535.06 334.383C1535.06 334.588 1534.86 334.679 1534.43 334.679C1533.99 334.671 1533.56 334.586 1533.15 334.428C1532.96 334.381 1532.79 334.293 1532.65 334.17C1532.5 334.048 1532.38 333.894 1532.3 333.721C1532.28 333.455 1532.28 333.188 1532.3 332.923C1532.3 332.626 1532.51 332.078 1532.67 331.303C1532.9 330.56 1532.9 329.765 1532.67 329.022C1532.46 328.634 1531.96 328.611 1531.16 329.022C1530.23 329.517 1529.4 330.174 1528.7 330.961C1527.96 331.891 1527.38 332.94 1526.99 334.063C1526.49 335.386 1525.94 337.234 1525.32 339.584C1525.1 340.328 1525.1 341.121 1525.32 341.865C1525.51 342.39 1525.67 342.663 1525.78 342.709C1526.38 342.836 1527 342.836 1527.6 342.709C1528.18 342.634 1528.75 342.465 1529.27 342.207C1529.87 341.905 1530.44 341.554 1530.98 341.158L1532.62 339.926C1532.87 339.745 1533.06 339.5 1533.17 339.219C1533.32 338.891 1533.58 338.625 1533.9 338.466C1534.03 338.212 1534.22 337.998 1534.47 337.849C1534.71 337.7 1534.99 337.621 1535.27 337.622H1536.73C1537.11 337.741 1537.46 337.943 1537.76 338.215C1538.07 338.484 1538.35 338.8 1538.58 339.15C1538.76 339.447 1538.71 339.675 1538.58 339.789C1538.44 339.903 1538.3 339.789 1538.28 340.086C1538.26 340.382 1538.28 340.61 1537.76 341.181C1537.27 341.817 1536.73 342.419 1536.16 342.983C1535.58 343.563 1534.97 344.112 1534.33 344.625C1533.99 344.955 1533.57 345.191 1533.1 345.31C1532.69 345.31 1532.51 345.446 1532.51 345.675C1532.51 345.903 1532.21 345.948 1531.62 346.268C1530.98 346.64 1530.32 346.968 1529.64 347.249C1528.97 347.514 1528.28 347.72 1527.58 347.865Z" fill="#B8C318"/>
<path d="M1548.32 348.274C1547.95 348.379 1547.56 348.374 1547.2 348.261C1546.83 348.148 1546.51 347.93 1546.27 347.635C1545.6 346.87 1545.16 345.927 1545.01 344.921C1544.77 343.582 1544.81 342.206 1545.13 340.883C1545.32 340.425 1545.48 339.952 1545.6 339.469C1545.72 339.107 1545.78 338.73 1545.79 338.351C1545.79 337.963 1546.04 337.37 1546.27 336.594C1546.49 335.819 1546.77 334.997 1547.06 334.153C1547.36 333.309 1547.61 332.556 1547.86 331.872L1548.36 330.64C1548.52 330.64 1548.68 330.503 1548.8 330.23C1548.91 329.962 1548.97 329.676 1548.98 329.386C1548.99 329.012 1549.06 328.642 1549.19 328.291C1549.28 327.98 1549.43 327.692 1549.64 327.446C1549.65 327.213 1549.7 326.982 1549.78 326.762C1549.88 326.563 1549.93 326.345 1549.94 326.123C1549.94 325.951 1549.99 325.783 1550.1 325.644C1550.19 325.5 1550.23 325.334 1550.23 325.165C1550.51 324.641 1550.9 323.819 1551.35 322.679L1552.86 318.869C1553.38 317.455 1553.91 316.086 1554.39 314.717C1554.87 313.349 1555.25 312.208 1555.55 311.25C1555.77 310.699 1555.92 310.125 1556.01 309.539C1556.01 309.206 1556.14 308.887 1556.37 308.649C1556.47 308.516 1556.6 308.407 1556.74 308.332C1556.89 308.256 1557.05 308.217 1557.22 308.216C1557.48 308.054 1557.78 307.967 1558.08 307.965H1558.97L1559.93 308.946C1560.27 309.237 1560.58 309.557 1560.87 309.904C1561.16 310.255 1561.32 310.699 1561.32 311.159C1561.32 311.668 1561.25 312.174 1561.12 312.664C1560.91 313.334 1560.66 313.989 1560.36 314.626C1560 315.447 1559.43 316.656 1558.68 318.253C1558.36 319.059 1558.01 319.82 1557.65 320.534C1557.41 320.929 1557.23 321.361 1557.12 321.812C1557.09 322.066 1557.01 322.313 1556.9 322.542C1556.76 322.861 1556.62 323.272 1556.46 323.751C1556.3 324.23 1556.07 324.549 1555.8 325.165C1555.53 325.781 1555.23 326.443 1554.91 327.15C1554.59 327.857 1554.36 328.45 1554.16 328.952C1554.04 329.233 1553.94 329.523 1553.86 329.819C1553.87 329.978 1553.87 330.139 1553.86 330.298C1553.83 330.483 1553.73 330.651 1553.59 330.777C1553.43 330.777 1553.34 331.005 1553.29 331.439C1553.1 332.537 1552.78 333.609 1552.33 334.632L1550.55 340.7C1550.08 342.139 1549.8 343.635 1549.73 345.149C1549.79 345.934 1549.64 346.72 1549.3 347.43C1549.05 347.795 1548.72 348.086 1548.32 348.274Z" fill="#B8C318"/>
<path d="M1559.68 346.587C1559.32 346.183 1559.08 345.685 1559 345.15C1558.84 344.531 1558.79 343.892 1558.84 343.257C1558.85 342.771 1558.95 342.292 1559.13 341.842C1559.11 341.581 1559.17 341.321 1559.29 341.089C1559.34 340.926 1559.34 340.751 1559.29 340.587C1559.23 340.31 1559.23 340.021 1559.29 339.743C1559.29 339.333 1559.52 338.968 1559.66 338.603C1559.79 338.238 1560.25 337.12 1560.61 336.116C1560.98 335.113 1561.34 334.04 1561.69 332.991C1562.03 331.942 1562.35 331.006 1562.6 330.208C1562.85 329.409 1562.99 328.953 1563.01 328.794C1563.03 328.634 1563.33 328.064 1563.99 328.018C1564.65 327.972 1565.04 328.018 1565.72 328.611C1566.35 329.125 1566.9 329.733 1567.34 330.413C1567.5 330.582 1567.62 330.786 1567.68 331.008C1567.74 331.23 1567.75 331.464 1567.71 331.691C1567.54 332.48 1567.28 333.246 1566.93 333.972C1566.7 334.487 1566.51 335.021 1566.36 335.569C1566.16 336.172 1566.01 336.79 1565.91 337.417C1565.69 337.852 1565.5 338.301 1565.34 338.763C1565.11 339.333 1564.93 339.903 1564.77 340.405C1564.64 340.768 1564.56 341.143 1564.52 341.523C1564.52 342.07 1564.33 342.618 1564.22 343.165C1564.14 343.632 1563.98 344.081 1563.74 344.488C1563.37 346.154 1562.76 347.112 1561.85 347.386C1561.45 347.476 1561.03 347.449 1560.64 347.307C1560.26 347.165 1559.92 346.915 1559.68 346.587ZM1566.16 322.497C1565.74 322.191 1565.4 321.783 1565.18 321.311C1564.97 320.929 1564.85 320.51 1564.81 320.079C1564.74 319.864 1564.74 319.633 1564.81 319.418C1565.27 318.91 1565.62 318.322 1565.86 317.684C1566.14 316.996 1566.48 316.332 1566.87 315.699L1567.18 315.197C1567.28 315.008 1567.44 314.862 1567.64 314.787C1567.95 314.619 1568.29 314.531 1568.64 314.531C1569 314.531 1569.34 314.619 1569.65 314.787C1570.42 315.074 1571.09 315.602 1571.54 316.292C1571.89 317 1572.01 317.796 1571.88 318.574C1571.68 319.51 1571.23 320.376 1570.58 321.083C1570.04 321.861 1569.23 322.412 1568.3 322.634C1567.95 322.756 1567.58 322.807 1567.22 322.783C1566.85 322.76 1566.49 322.662 1566.16 322.497Z" fill="#B8C318"/>
<path d="M1594.9 346.176C1594.11 346.135 1593.34 345.942 1592.62 345.606C1591.94 345.186 1591.43 344.528 1591.21 343.758C1591.04 343.102 1590.97 342.426 1591 341.751C1591.01 341.072 1591.06 340.394 1591.14 339.72C1591.22 339.153 1591.25 338.582 1591.25 338.009V336.846C1591.26 336.644 1591.22 336.443 1591.14 336.255C1591.07 336.067 1590.96 335.896 1590.82 335.751C1590.64 335.669 1590.45 335.627 1590.26 335.627C1590.07 335.627 1589.88 335.669 1589.7 335.751C1588.75 336.21 1587.83 336.744 1586.96 337.348C1585.9 338.051 1584.88 338.812 1583.91 339.629C1582.83 340.481 1581.73 341.393 1580.62 342.366C1579.92 343.089 1579.27 343.851 1578.66 344.648C1578.25 345.264 1577.82 345.56 1577.38 345.56C1577.23 345.653 1577.05 345.701 1576.87 345.701C1576.69 345.701 1576.51 345.653 1576.36 345.56C1575.99 345.309 1575.6 345.035 1575.21 344.716C1574.83 344.397 1574.6 343.986 1574.21 343.484C1573.82 342.982 1573.62 342.64 1573.53 342.481C1573.52 341.899 1573.57 341.317 1573.69 340.747C1573.79 340.191 1573.95 339.648 1574.17 339.127C1574.37 338.557 1574.64 337.918 1574.96 337.188C1575.12 336.914 1575.28 336.618 1575.42 336.321C1575.58 335.985 1575.75 335.658 1575.94 335.34C1576.13 334.678 1576.35 334.03 1576.63 333.401L1577.5 331.371C1577.93 330.322 1578.27 329.432 1578.52 328.656C1578.77 327.847 1578.97 327.025 1579.12 326.193C1579.12 326.193 1579.12 325.987 1579.12 325.828C1579.15 325.753 1579.2 325.688 1579.26 325.636C1579.33 325.585 1579.4 325.549 1579.48 325.531C1580 325.339 1580.56 325.339 1581.08 325.531C1581.71 325.608 1582.31 325.844 1582.83 326.215C1583.24 326.557 1583.57 326.992 1583.78 327.484C1583.99 327.976 1584.08 328.511 1584.04 329.044C1583.82 330.688 1583.2 332.252 1582.24 333.607C1581.98 334.207 1581.69 334.794 1581.37 335.363C1581.15 335.703 1581 336.082 1580.92 336.481L1582.54 335.249C1582.99 334.907 1583.36 334.633 1583.68 334.428C1584 334.222 1584.32 333.857 1585 333.333C1585.69 332.808 1586.44 332.215 1587.28 331.622C1588.13 331.029 1588.72 330.55 1589.2 330.23C1589.73 329.849 1590.3 329.514 1590.89 329.227C1591.28 329.007 1591.7 328.838 1592.14 328.725C1592.66 328.753 1593.17 328.902 1593.62 329.158C1594.2 329.428 1594.74 329.757 1595.24 330.139C1595.64 330.384 1595.94 330.753 1596.11 331.188C1596.13 331.401 1596.13 331.615 1596.11 331.827C1596.11 332.078 1596.11 332.306 1596.11 332.512C1596.11 333.15 1596.11 333.926 1596.11 334.793C1596.11 335.66 1596.11 336.595 1596.11 337.485C1596.11 338.305 1596.03 339.123 1595.86 339.926C1595.94 340.035 1596 340.159 1596.04 340.291C1596.04 340.291 1596.04 340.45 1596.04 340.633L1596.32 341.477C1596.42 341.797 1596.55 342.109 1596.7 342.412C1596.86 342.747 1597.04 343.18 1597.25 343.712C1597.16 344.311 1596.85 344.855 1596.38 345.241C1595.98 345.671 1595.47 345.993 1594.9 346.176Z" fill="#B8C318"/>
<path d="M1611.74 359.634C1611.17 359.849 1610.56 359.942 1609.96 359.907C1609.35 359.871 1608.76 359.708 1608.22 359.429C1606.95 358.799 1605.86 357.857 1605.05 356.692C1604.89 356.441 1604.67 356.03 1604.35 355.391C1604.03 354.753 1603.71 354.114 1603.41 353.384C1603.15 352.775 1602.93 352.15 1602.75 351.513C1602.61 351.011 1602.59 350.692 1602.75 350.624C1602.83 350.401 1602.98 350.208 1603.18 350.07C1603.37 349.932 1603.61 349.855 1603.84 349.848C1604.4 349.723 1604.98 349.723 1605.53 349.848C1606.08 349.985 1606.4 350.167 1606.49 350.418C1606.58 350.669 1606.72 350.989 1606.86 351.285C1606.97 351.582 1607.11 351.865 1607.29 352.129L1607.81 352.814C1608.16 353.405 1608.65 353.893 1609.25 354.228C1609.78 354.479 1610.16 354.525 1610.46 354.228C1611.11 353.742 1611.63 353.109 1611.99 352.38C1612.53 351.182 1612.98 349.947 1613.33 348.685C1613.77 347.202 1614.16 345.924 1614.47 344.852C1614.79 343.78 1615.14 342.776 1615.5 341.841C1615.6 341.413 1615.75 340.999 1615.96 340.609C1616.09 340.336 1616.26 340.083 1616.46 339.856H1616.82C1616.01 340.342 1615.25 340.908 1614.54 341.544C1613.81 342.177 1612.98 342.685 1612.08 343.05C1611.56 343.419 1610.93 343.596 1610.3 343.552C1609.38 343.619 1608.45 343.511 1607.56 343.232C1607.07 342.962 1606.62 342.624 1606.22 342.229C1605.87 341.892 1605.59 341.499 1605.37 341.065C1605.14 340.609 1604.92 340.107 1604.67 339.491C1604.4 338.528 1604.4 337.512 1604.67 336.548C1604.88 335.151 1605.25 333.782 1605.76 332.465C1606.33 331.308 1607.04 330.221 1607.86 329.226C1608.75 328.089 1609.73 327.028 1610.8 326.055C1611.6 325.264 1612.57 324.664 1613.63 324.298C1614.17 324.051 1614.74 323.859 1615.32 323.728C1616.06 323.513 1616.85 323.513 1617.6 323.728C1618.14 323.771 1618.67 323.926 1619.15 324.184C1619.52 324.412 1620.09 324.869 1620.91 325.53C1621.73 326.192 1622.07 326.739 1622.82 327.56C1623.42 328.153 1623.91 328.849 1624.26 329.614C1624.54 330.229 1624.6 330.92 1624.44 331.575C1624.3 332.247 1624.02 332.879 1623.6 333.423C1623.23 333.925 1622.87 334.45 1622.46 334.974C1622.01 335.624 1621.71 336.363 1621.57 337.142C1621.31 338.529 1620.92 339.889 1620.41 341.202C1619.9 342.57 1619.47 343.964 1619.11 345.377L1618.12 349.095C1617.47 351.751 1616.35 354.27 1614.82 356.532C1614 357.755 1612.95 358.809 1611.74 359.634ZM1610.46 338.967C1611.16 338.936 1611.85 338.844 1612.54 338.693C1613.17 338.532 1613.74 338.201 1614.2 337.735C1614.88 337.04 1615.48 336.276 1616 335.453C1616.61 334.644 1617.09 333.753 1617.44 332.807C1617.73 331.941 1617.83 331.024 1617.74 330.115C1617.75 329.874 1617.71 329.632 1617.62 329.41C1617.52 329.187 1617.38 328.991 1617.19 328.838C1616.8 328.64 1616.36 328.576 1615.93 328.655C1615.19 328.781 1614.49 329.104 1613.9 329.591C1613.11 330.269 1612.4 331.035 1611.78 331.872C1611.14 332.749 1610.65 333.718 1610.3 334.746C1609.93 335.667 1609.75 336.652 1609.78 337.643C1609.84 338.351 1610.07 338.807 1610.55 338.967H1610.46Z" fill="#B8C318"/>
<path d="M1657.29 351.514C1656.56 351.331 1655.77 351.08 1655.01 350.807C1655.06 350.724 1655.09 350.629 1655.09 350.533C1655.09 350.436 1655.06 350.341 1655.01 350.259C1654.76 350.064 1654.44 349.959 1654.12 349.963C1653.44 349.478 1652.82 348.911 1652.27 348.274C1651.65 347.559 1651.09 346.796 1650.59 345.993C1650.14 345.51 1649.72 345 1649.33 344.465C1649.04 343.849 1649.06 343.484 1649.33 343.347L1650.47 342.845C1650.9 342.531 1651.38 342.285 1651.89 342.115C1652.39 341.955 1652.8 342.115 1653.12 342.891C1653.72 343.854 1654.56 344.642 1655.56 345.172C1656.72 345.832 1658.01 346.222 1659.35 346.313C1660.82 346.421 1662.3 346.179 1663.66 345.605C1664.06 345.473 1664.42 345.23 1664.7 344.903C1664.97 344.577 1665.15 344.18 1665.21 343.758C1665.23 342.771 1664.91 341.808 1664.32 341.02C1664.2 340.726 1664.03 340.461 1663.8 340.244C1663.49 339.97 1663.17 339.711 1662.84 339.469C1662.43 339.15 1661.83 338.625 1661.06 337.895L1659.42 337.119L1657.82 336.344C1656.2 335.475 1654.72 334.368 1653.44 333.059C1652.83 332.457 1652.3 331.783 1651.86 331.051C1651.19 330.376 1650.76 329.491 1650.66 328.542C1650.47 327.424 1650.47 326.284 1650.66 325.166C1650.86 324.027 1651.23 322.927 1651.77 321.903C1652.15 321.105 1652.59 320.342 1653.1 319.622C1653.73 318.733 1654.46 317.797 1655.38 316.839C1656.29 315.881 1656.95 314.991 1657.66 314.216C1658.2 313.63 1658.8 313.095 1659.44 312.619L1661.01 311.113C1661.01 311.071 1661.03 311.03 1661.04 310.993C1661.06 310.955 1661.09 310.921 1661.12 310.894C1661.15 310.866 1661.19 310.845 1661.23 310.832C1661.27 310.819 1661.31 310.814 1661.35 310.817C1661.78 310.595 1662.23 310.397 1662.68 310.224C1663.53 309.851 1664.31 309.317 1664.96 308.65C1667.15 307.56 1669.44 306.689 1671.8 306.049C1673.29 305.642 1674.82 305.405 1676.36 305.342C1677.39 305.395 1678.4 305.675 1679.31 306.163C1680.25 306.644 1681.1 307.285 1681.82 308.056C1682.48 308.77 1682.91 309.67 1683.05 310.634C1683.3 311.801 1683.16 313.019 1682.66 314.102C1682.08 315.466 1681.32 316.741 1680.38 317.889C1679.59 318.943 1678.6 319.827 1677.46 320.489C1677.03 320.722 1676.55 320.858 1676.05 320.89C1675.56 320.921 1675.07 320.847 1674.61 320.672C1674.27 320.55 1673.98 320.323 1673.78 320.023C1673.57 319.723 1673.47 319.367 1673.49 319.006C1673.51 318.597 1673.63 318.199 1673.83 317.843C1674.36 317.023 1674.97 316.259 1675.66 315.562C1676.6 314.365 1677.3 312.992 1677.71 311.524C1677.75 311.36 1677.75 311.189 1677.71 311.024C1677.67 310.86 1677.6 310.706 1677.49 310.575C1677.39 310.443 1677.26 310.337 1677.1 310.264C1676.95 310.192 1676.78 310.154 1676.62 310.155C1676.17 310.054 1675.7 310.054 1675.25 310.155C1674.56 310.155 1673.83 310.429 1672.97 310.611C1672.27 310.761 1671.59 310.952 1670.91 311.182C1670.34 311.387 1670.05 311.524 1670.05 311.592C1670.05 311.661 1670.05 311.935 1669.79 311.912C1669.51 311.999 1669.24 312.13 1669 312.3L1667.33 313.28L1665.44 314.512L1663.84 315.63C1663.58 315.802 1663.35 316.001 1663.13 316.223C1663.13 316.679 1662.59 317.067 1661.74 317.432C1660.9 317.951 1660.18 318.653 1659.64 319.485C1659.05 320.352 1658.34 321.47 1657.54 322.839C1656.88 323.737 1656.38 324.75 1656.08 325.827C1655.81 326.656 1655.81 327.553 1656.08 328.382C1656.43 329.171 1657.01 329.832 1657.75 330.276C1658.66 330.891 1659.89 331.667 1661.45 332.557C1663 333.446 1664.09 334.131 1665.3 334.952C1666.37 335.702 1667.39 336.517 1668.36 337.393C1669.02 337.938 1669.57 338.604 1669.98 339.355C1670.45 340.03 1670.75 340.815 1670.84 341.636C1670.96 342.476 1670.96 343.328 1670.84 344.168C1670.78 344.855 1670.65 345.535 1670.46 346.198C1670.12 346.93 1669.69 347.612 1669.18 348.229C1668.59 348.959 1668.06 349.301 1667.58 349.255C1667.22 349.337 1666.88 349.484 1666.58 349.689C1666.35 349.862 1666.1 350 1665.83 350.099C1665.19 350.366 1664.52 350.557 1663.84 350.67C1662.71 350.914 1661.57 351.097 1660.42 351.217C1659.39 351.395 1658.34 351.494 1657.29 351.514Z" fill="#B8C318"/>
<path d="M1678.33 360.114C1676.96 360.392 1675.56 360.446 1674.17 360.274C1673.01 360.132 1671.88 359.776 1670.84 359.224C1670.1 358.865 1669.51 358.238 1669.2 357.468C1669.06 357.132 1669.01 356.762 1669.07 356.402C1669.13 356.042 1669.3 355.707 1669.54 355.437C1670.02 354.997 1670.63 354.718 1671.28 354.639C1671.94 354.639 1672.35 354.639 1672.55 354.89L1674.08 355.802C1674.9 356.201 1675.82 356.306 1676.71 356.099C1677.63 355.881 1678.48 355.424 1679.17 354.776C1679.88 354.079 1680.52 353.315 1681.09 352.495C1681.41 352.023 1681.95 351.156 1682.73 349.894C1683.48 348.662 1684.28 347.293 1685.01 345.788C1685.74 344.282 1686.52 342.891 1687.09 341.613L1687.5 340.473C1687.63 340.077 1687.83 339.708 1688.09 339.378C1688.34 338.898 1688.55 338.465 1688.73 338.032C1688.87 337.755 1688.97 337.464 1689.05 337.165C1689.19 336.745 1689.37 336.34 1689.6 335.956C1689.91 335.363 1690.21 334.769 1690.51 334.154C1690.8 333.538 1691.01 332.671 1691.4 331.507C1691.72 330.532 1692.13 329.586 1692.61 328.679L1693.77 326.397C1693.96 325.926 1694.32 325.543 1694.77 325.325C1695.06 325.077 1695.42 324.932 1695.8 324.915C1696.21 324.939 1696.6 325.064 1696.94 325.28C1697.38 325.709 1697.77 326.183 1698.1 326.694C1698.4 327.194 1698.53 327.779 1698.47 328.359C1698.31 329.312 1697.97 330.225 1697.47 331.051C1697.18 331.942 1696.83 332.811 1696.42 333.652C1696.18 334.196 1695.89 334.715 1695.55 335.203L1694.87 336.777C1694.59 337.37 1694.36 337.895 1694.16 338.374C1693.45 339.971 1692.83 341.294 1692.31 342.297C1691.79 343.301 1691.33 344.214 1690.92 345.058C1690.51 345.902 1690.1 346.883 1689.66 348.001L1686.99 352.244C1686.15 353.539 1685.24 354.788 1684.26 355.985C1683.85 356.35 1683.28 356.829 1682.55 357.399C1681.82 357.979 1681.05 358.52 1680.27 359.019C1679.69 359.499 1679.03 359.87 1678.33 360.114ZM1685.85 346.426C1685.09 346.249 1684.4 345.824 1683.89 345.217C1683.22 344.533 1682.64 343.766 1682.16 342.936C1681.78 342.452 1681.58 341.86 1681.57 341.248V340.587C1681.34 340.587 1681.15 340.244 1681 339.537C1680.84 338.654 1680.74 337.763 1680.7 336.868C1680.7 335.773 1680.7 334.587 1680.7 333.492C1680.7 332.397 1680.7 331.211 1680.84 330.298C1681.01 329.551 1681.09 328.785 1681.09 328.017C1681.09 327.196 1681.09 326.534 1681.09 326.055C1681.03 325.505 1681.18 324.954 1681.5 324.504C1681.7 324.213 1681.92 323.946 1682.18 323.705C1682.46 323.542 1682.76 323.44 1683.08 323.403C1683.4 323.367 1683.72 323.398 1684.03 323.495C1684.34 323.592 1684.62 323.752 1684.86 323.965C1685.1 324.179 1685.29 324.44 1685.42 324.732C1686.19 326.743 1686.44 328.917 1686.15 331.051C1686.06 332.572 1686.01 334.093 1686.01 335.613C1686 336.881 1686.14 338.146 1686.45 339.378C1686.62 340.293 1687.13 341.11 1687.88 341.659C1688.16 341.818 1688.27 342.161 1688.18 342.662C1688.09 343.241 1687.91 343.802 1687.66 344.328C1687.39 344.858 1687.08 345.362 1686.72 345.833C1686.38 346.381 1686.08 346.563 1685.83 346.541L1685.85 346.426Z" fill="#B8C318"/>
<path d="M1705.86 347.977C1704.77 347.569 1703.75 346.966 1702.87 346.198C1702.26 345.59 1702.01 345.042 1702.12 344.556C1702.21 344.305 1702.36 344.079 1702.55 343.894C1702.95 343.638 1703.43 343.54 1703.9 343.62C1705.01 343.706 1706.11 343.897 1707.18 344.191H1708.51C1708.92 344.167 1709.33 344.106 1709.74 344.008C1710.06 343.947 1710.38 343.847 1710.67 343.712C1710.86 343.712 1710.92 343.529 1710.86 343.392C1710.74 343.218 1710.59 343.064 1710.42 342.936C1710.29 342.746 1710.1 342.609 1709.88 342.548C1709.7 342.517 1709.52 342.517 1709.35 342.548C1709.24 342.304 1709.05 342.098 1708.83 341.955C1708.58 341.75 1708.26 341.522 1707.91 341.293L1705.5 339.354C1704.79 338.807 1704.49 338.373 1704.65 338.1V337.621C1704.38 337.621 1704.1 337.233 1703.88 336.434C1703.64 335.751 1703.52 335.035 1703.51 334.313C1703.53 333.483 1703.7 332.663 1704.01 331.895C1704.37 331.083 1704.82 330.317 1705.36 329.614C1705.86 328.935 1706.41 328.295 1707 327.697C1707.75 326.967 1708.58 326.26 1709.44 325.553C1710.33 324.841 1711.28 324.208 1712.27 323.66C1713.34 323.092 1714.48 322.648 1715.65 322.336C1716.29 322.22 1716.94 322.166 1717.59 322.177C1718.12 322.136 1718.66 322.238 1719.14 322.473C1719.33 322.374 1719.55 322.334 1719.76 322.358C1719.98 322.383 1720.18 322.47 1720.35 322.61C1720.87 322.96 1721.36 323.374 1721.78 323.842C1722.22 324.31 1722.59 324.841 1722.88 325.416C1722.88 325.895 1722.88 326.488 1722.88 327.195C1722.88 327.903 1722.88 328.496 1722.74 329.02C1722.6 329.545 1722.47 329.796 1722.19 329.796C1722.11 329.807 1722.03 329.852 1721.97 329.92C1721.92 329.987 1721.89 330.074 1721.9 330.161C1721.9 330.572 1721.6 331.028 1720.99 331.553C1720.29 332.024 1719.57 332.443 1718.82 332.807C1718.13 333.127 1717.63 333.149 1717.27 332.807C1717.03 332.674 1716.81 332.521 1716.61 332.351C1716.39 332.173 1716.21 331.966 1716.06 331.735C1715.9 331.502 1715.8 331.237 1715.76 330.959C1715.8 330.704 1715.93 330.471 1716.13 330.298C1716.6 329.863 1717.03 329.381 1717.4 328.861C1717.67 328.498 1717.89 328.098 1718.04 327.675C1718.14 327.419 1718.2 327.15 1718.22 326.876C1718.22 326.625 1718.22 326.488 1718.07 326.42C1717.86 326.367 1717.65 326.367 1717.45 326.42C1716.99 326.506 1716.55 326.668 1716.15 326.899C1715.44 327.249 1714.74 327.637 1714.07 328.062C1713.37 328.541 1712.8 328.952 1712.39 329.294C1712.3 329.486 1712.19 329.67 1712.07 329.842C1712.01 329.868 1711.95 329.881 1711.89 329.881C1711.84 329.881 1711.78 329.868 1711.72 329.842C1711.72 329.682 1711.72 329.705 1711.43 329.842C1711.17 330.106 1710.94 330.388 1710.72 330.686C1710.42 331.051 1710.15 331.416 1709.88 331.826L1709.21 332.784C1709.17 333.131 1709.08 333.47 1708.94 333.788C1708.81 334.081 1708.75 334.403 1708.78 334.723C1708.85 335.163 1709.07 335.565 1709.4 335.864C1709.76 336.206 1710.26 336.685 1710.95 337.233C1712.36 338.282 1713.41 339.103 1714.12 339.697C1714.64 340.141 1715.13 340.621 1715.58 341.134C1715.83 341.458 1716.02 341.831 1716.13 342.229C1716.45 342.694 1716.65 343.239 1716.69 343.805C1716.73 344.372 1716.61 344.939 1716.35 345.445C1715.8 346.378 1714.96 347.106 1713.96 347.521C1713.29 347.8 1712.58 347.991 1711.86 348.091C1710.81 348.273 1709.75 348.349 1708.69 348.32C1707.73 348.386 1706.77 348.269 1705.86 347.977Z" fill="#B8C318"/>
<path d="M1731.59 347.682C1731.04 347.538 1730.54 347.255 1730.13 346.861C1729.61 346.394 1729.14 345.874 1728.72 345.309C1728.38 344.86 1728.11 344.36 1727.92 343.827C1727.85 343.651 1727.75 343.488 1727.62 343.348C1727.46 343.348 1727.37 342.686 1727.35 341.751C1727.33 340.7 1727.38 339.648 1727.49 338.603C1727.58 337.676 1727.73 336.754 1727.92 335.842C1728.13 335.204 1728.42 334.314 1728.81 333.219C1729.2 332.124 1729.56 331.12 1729.84 330.253L1731.46 326.763L1729.17 326.101C1728.9 326.018 1728.66 325.851 1728.49 325.622C1728.34 325.449 1728.24 325.234 1728.22 325.007C1728.28 324.515 1728.46 324.046 1728.74 323.638C1729.11 323.022 1729.38 322.725 1729.54 322.725C1729.91 322.761 1730.29 322.761 1730.66 322.725C1731.19 322.725 1731.71 322.725 1732.23 322.725C1732.55 322.727 1732.88 322.688 1733.19 322.611C1733.37 322.516 1733.54 322.401 1733.69 322.269C1733.87 322.104 1733.99 321.889 1734.03 321.653C1734.19 321.298 1734.37 320.955 1734.58 320.627C1734.74 320.376 1734.97 320.033 1735.24 319.554L1735.93 318.231C1736.2 317.715 1736.5 317.212 1736.82 316.726L1737.48 315.699C1737.7 315.297 1738 314.948 1738.37 314.673C1738.89 314.29 1739.5 314.054 1740.15 313.988C1740.52 313.911 1740.91 313.922 1741.28 314.021C1741.64 314.12 1741.98 314.304 1742.27 314.558C1742.56 314.879 1742.74 315.275 1742.82 315.699C1742.81 316.203 1742.65 316.692 1742.34 317.091C1742.03 317.738 1741.66 318.35 1741.22 318.916C1740.78 319.493 1740.4 320.103 1740.06 320.741C1739.42 321.63 1739.28 322.132 1739.69 322.246C1740.82 322.332 1741.96 322.255 1743.07 322.018C1743.49 321.891 1743.93 321.856 1744.36 321.915C1744.79 321.974 1745.21 322.126 1745.58 322.36C1746.08 322.786 1746.41 323.39 1746.49 324.048C1746.6 325.007 1746.49 325.6 1746.19 325.805C1745.29 326.072 1744.35 326.172 1743.41 326.101C1742.59 326.246 1741.77 326.337 1740.95 326.375H1739.46H1738.44C1738.19 326.342 1737.95 326.342 1737.71 326.375C1737.44 326.417 1737.2 326.555 1737.02 326.763C1736.85 327 1736.7 327.252 1736.57 327.516C1736.26 327.898 1736.02 328.32 1735.84 328.771C1735.48 329.551 1735.08 330.313 1734.65 331.052C1734.08 332.717 1733.6 334.337 1733.24 335.888C1732.87 337.439 1732.53 338.968 1732.23 340.45C1732.07 340.993 1732.07 341.573 1732.23 342.116C1732.41 342.458 1732.94 342.663 1733.76 342.754C1734.41 342.796 1735.05 342.796 1735.7 342.754C1736.41 342.725 1737.11 342.618 1737.8 342.435L1739.19 341.796C1739.64 341.591 1740.08 341.363 1740.51 341.112L1742.13 340.154C1742.31 339.834 1742.61 339.88 1743 340.291C1743.36 340.683 1743.63 341.15 1743.8 341.659C1743.78 342.241 1743.68 342.818 1743.5 343.37C1743.3 344.032 1742.57 344.716 1741.22 345.446C1738.33 347.242 1734.92 347.983 1731.55 347.545L1731.59 347.682Z" fill="#B8C318"/>
<path d="M1761.82 346.403C1760.65 347.07 1759.35 347.475 1758.01 347.589C1756.73 347.69 1755.44 347.503 1754.25 347.042C1753.13 346.622 1752.15 345.904 1751.42 344.966C1750.91 344.202 1750.53 343.363 1750.28 342.48C1749.91 340.987 1749.85 339.435 1750.09 337.917C1750.37 335.977 1750.95 334.091 1751.8 332.328C1752.67 330.506 1753.8 328.822 1755.16 327.332C1756.32 325.997 1757.8 324.983 1759.47 324.389C1760.02 324.185 1760.6 324.032 1761.18 323.933C1761.94 323.843 1762.7 323.843 1763.46 323.933C1764.31 324.03 1765.15 324.261 1765.93 324.618C1766.52 324.869 1767.05 325.251 1767.48 325.735C1768.03 326.249 1768.47 326.88 1768.75 327.583C1768.94 328.149 1769.02 328.745 1768.98 329.34C1768.69 330.823 1768.11 332.235 1767.27 333.492C1766.33 334.974 1764.95 336.13 1763.32 336.799C1762.59 337.087 1761.83 337.263 1761.04 337.324C1759.77 337.377 1758.5 337.254 1757.26 336.959C1756.3 336.777 1755.66 336.959 1755.36 337.278C1755.01 337.982 1754.87 338.777 1754.98 339.56C1755.03 340.215 1755.2 340.856 1755.48 341.453C1755.63 341.733 1755.84 341.977 1756.1 342.17C1756.36 342.362 1756.65 342.499 1756.96 342.571C1757.61 342.733 1758.29 342.733 1758.94 342.571L1760.45 341.955L1761.39 341.293L1762.28 340.563L1763.03 340.016C1763.21 339.886 1763.41 339.785 1763.62 339.719H1764.24C1764.48 339.748 1764.72 339.826 1764.94 339.947C1765.15 340.069 1765.34 340.232 1765.49 340.426C1765.85 340.787 1766.11 341.224 1766.27 341.704C1766.19 342.196 1765.99 342.66 1765.67 343.05C1765.2 343.702 1764.67 344.305 1764.08 344.852C1763.38 345.447 1762.62 345.967 1761.82 346.403ZM1761.11 333.058C1761.55 332.816 1761.96 332.533 1762.34 332.214C1762.87 331.784 1763.36 331.311 1763.8 330.8C1764.15 330.497 1764.38 330.087 1764.47 329.636C1764.47 329.18 1764.17 328.815 1763.6 328.496C1762.89 328.153 1762.07 328.088 1761.32 328.313C1760.89 328.443 1760.5 328.669 1760.18 328.975C1759.7 329.348 1759.26 329.76 1758.85 330.207C1758.45 330.624 1758.07 331.066 1757.71 331.53C1757.46 331.836 1757.24 332.165 1757.05 332.511C1757.31 332.77 1757.65 332.938 1758.01 332.99C1758.53 333.112 1759.07 333.173 1759.61 333.172C1760.11 333.177 1760.61 333.139 1761.11 333.058Z" fill="#B8C318"/>
<path d="M1801.31 346.175C1800.84 345.973 1800.39 345.713 1799.98 345.4C1799.32 344.854 1798.78 344.179 1798.39 343.415C1797.89 342.337 1797.68 341.152 1797.77 339.97C1797.76 339.119 1797.84 338.27 1798.02 337.438C1798.19 336.936 1798.12 336.662 1797.82 336.617C1797.61 336.617 1797.22 336.754 1796.63 337.164C1795.82 337.737 1795.05 338.378 1794.35 339.081C1793.39 339.978 1792.23 341.141 1790.86 342.571C1790.38 342.959 1789.86 343.461 1789.26 344.031C1788.77 344.563 1788.18 345.004 1787.53 345.331C1787.29 345.475 1787.01 345.535 1786.73 345.502C1786.46 345.469 1786.2 345.345 1786 345.149L1785.38 344.601C1785.08 344.34 1784.84 344.012 1784.68 343.643C1784.58 343.493 1784.51 343.324 1784.48 343.148C1784.45 342.972 1784.46 342.791 1784.49 342.616L1786.16 337.94C1786.66 336.891 1786.98 336.138 1787.16 335.659C1787.3 335.374 1787.38 335.063 1787.39 334.746C1787.39 334.632 1787.39 334.587 1787.07 334.632C1786.68 334.761 1786.33 334.98 1786.05 335.271C1785.71 335.538 1785.41 335.844 1785.16 336.183C1785 336.183 1784.77 336.366 1784.52 336.685C1784.29 336.979 1784.04 337.254 1783.76 337.507L1782.51 338.875L1780.57 340.951C1780.07 341.43 1779.45 342.069 1778.77 342.867C1778.08 343.666 1777.49 344.396 1776.97 345.035C1776.44 345.673 1776.12 345.993 1776.01 345.993C1775.3 345.954 1774.61 345.7 1774.05 345.263C1773.5 344.858 1773.09 344.291 1772.88 343.643C1772.66 342.844 1772.66 342.001 1772.88 341.202C1773.09 340.039 1773.48 338.145 1774.05 335.545C1774.21 334.929 1774.34 334.404 1774.48 333.971C1774.62 333.537 1774.78 333.081 1774.94 332.648C1775.1 332.214 1775.28 331.712 1775.51 331.142C1775.73 330.572 1776.01 329.91 1776.37 329.112C1776.57 328.604 1776.66 328.059 1776.62 327.515C1776.62 327.013 1776.62 326.602 1776.62 326.283C1776.61 326.013 1776.65 325.743 1776.75 325.491C1776.85 325.239 1777 325.011 1777.19 324.823C1777.56 324.481 1777.99 324.231 1778.47 324.093C1778.84 323.974 1779.24 323.974 1779.61 324.093C1780.06 324.093 1780.5 324.2 1780.9 324.407C1781.3 324.613 1781.64 324.913 1781.89 325.279C1782.26 325.88 1782.48 326.561 1782.53 327.264C1782.59 327.814 1782.51 328.37 1782.3 328.884C1782.1 329.363 1781.94 329.773 1781.83 330.093L1781.16 331.712C1780.75 332.648 1780.48 333.309 1780.3 333.743C1780.16 334 1780.06 334.277 1780 334.564C1779.99 334.7 1779.99 334.838 1780 334.974C1780 334.974 1780.23 334.974 1780.55 334.792C1780.87 334.609 1781.26 334.222 1781.71 333.788C1782.17 333.355 1782.6 332.99 1783.01 332.67C1783.42 332.351 1784.49 331.461 1785.29 330.845C1786.08 330.256 1786.89 329.708 1787.73 329.203C1788.35 328.793 1789.02 328.463 1789.72 328.222C1790.44 328.374 1791.09 328.73 1791.61 329.249C1792.07 329.657 1792.45 330.144 1792.73 330.686C1792.9 331.22 1792.9 331.794 1792.73 332.328C1792.59 332.807 1792.48 333.241 1792.39 333.651L1792.16 334.541C1792.02 334.974 1791.86 335.59 1791.61 336.343C1792.09 335.864 1792.52 335.453 1792.94 335.111C1793.35 334.769 1793.73 334.473 1794.14 334.176C1795.59 332.99 1797.2 332.007 1798.91 331.256C1799.46 331.046 1800.07 331.039 1800.63 331.235C1801.18 331.431 1801.65 331.819 1801.95 332.328C1802.45 332.805 1802.78 333.441 1802.88 334.13C1803.04 335.142 1803.11 336.164 1803.09 337.187C1803.09 337.712 1803.09 338.282 1803.25 338.921C1803.41 339.56 1803.38 340.13 1803.47 340.609C1803.54 340.921 1803.63 341.226 1803.75 341.522C1803.93 341.715 1804.16 341.863 1804.41 341.955C1804.7 342.095 1805.01 342.21 1805.32 342.297C1805.6 342.446 1805.83 342.666 1806 342.935C1806.16 343.204 1806.25 343.511 1806.26 343.826C1806.3 344.167 1806.23 344.512 1806.07 344.816C1805.91 345.121 1805.67 345.371 1805.37 345.536C1804.79 345.895 1804.15 346.121 1803.47 346.198C1802.75 346.27 1802.03 346.263 1801.31 346.175Z" fill="#B8C318"/>
<path d="M1187.75 220.367V226.914H1208.1C1208.77 226.846 1209.45 226.929 1210.09 227.157C1210.73 227.386 1211.31 227.754 1211.79 228.235C1212.27 228.715 1212.63 229.297 1212.86 229.936C1213.08 230.576 1213.16 231.258 1213.09 231.933V272.128C1213.09 282.302 1203.33 284.469 1193.84 279.838C1193.06 279.591 1192.41 279.05 1192.02 278.331C1191.63 277.611 1191.54 276.77 1191.76 275.983C1191.85 275.582 1192.02 275.204 1192.26 274.871C1192.5 274.537 1192.81 274.256 1193.16 274.043C1193.51 273.83 1193.9 273.69 1194.31 273.631C1194.71 273.573 1195.13 273.597 1195.53 273.702C1200.39 274.318 1201.39 273.474 1201.39 270.166V266.904C1199.38 269.596 1196.83 269.368 1194.29 266.425C1192.6 264.199 1190.72 262.116 1188.68 260.197C1188.28 259.714 1187.96 259.167 1187.75 258.577V276.827C1187.75 280.067 1185.67 281.846 1181.98 281.846C1178.28 281.846 1176.2 280.067 1176.2 276.827V248.175C1175.87 248.729 1175.48 249.249 1175.04 249.726C1172.76 252.258 1169.5 251.871 1167.42 248.563C1165.87 246.282 1164.02 243.704 1162.49 241.719V261.292C1162.8 261.065 1163.14 260.881 1163.5 260.745C1166.14 259.447 1168.67 257.92 1171.05 256.182C1171.63 255.687 1172.36 255.415 1173.12 255.415C1173.89 255.415 1174.62 255.687 1175.2 256.182C1176.43 257.186 1176.14 258.965 1175.36 260.425C1173.65 263.584 1171.4 266.424 1168.72 268.82C1168 269.74 1166.97 270.362 1165.82 270.564C1164.67 270.766 1163.48 270.535 1162.49 269.915V277.147C1162.49 280.386 1160.42 282.142 1156.72 282.142C1153.03 282.142 1150.93 280.386 1150.93 277.147V231.933C1150.86 231.256 1150.94 230.572 1151.16 229.93C1151.39 229.289 1151.76 228.706 1152.24 228.225C1152.72 227.744 1153.3 227.376 1153.94 227.149C1154.59 226.923 1155.27 226.842 1155.95 226.914H1176.14V220.367H1151.86C1151.4 220.424 1150.93 220.376 1150.49 220.228C1150.05 220.08 1149.65 219.835 1149.32 219.511C1148.99 219.186 1148.73 218.792 1148.57 218.356C1148.41 217.92 1148.35 217.453 1148.4 216.991C1148.36 216.528 1148.42 216.063 1148.58 215.628C1148.74 215.193 1149 214.799 1149.33 214.474C1149.66 214.149 1150.06 213.902 1150.5 213.749C1150.94 213.597 1151.4 213.543 1151.86 213.592H1212.11C1213.02 213.592 1213.89 213.952 1214.53 214.594C1215.17 215.236 1215.53 216.106 1215.53 217.013C1215.53 217.921 1215.17 218.791 1214.53 219.433C1213.89 220.075 1213.02 220.435 1212.11 220.435L1187.75 220.367ZM1176.2 244.092V233.598H1163.43C1163.31 233.595 1163.18 233.617 1163.07 233.663C1162.96 233.709 1162.85 233.778 1162.77 233.866C1162.68 233.954 1162.62 234.059 1162.57 234.173C1162.53 234.288 1162.51 234.411 1162.52 234.533V237.545C1162.96 237.025 1163.57 236.671 1164.24 236.543C1164.91 236.414 1165.61 236.518 1166.21 236.837C1169.1 238.153 1171.8 239.865 1174.22 241.924C1175.04 242.487 1175.72 243.228 1176.2 244.092ZM1187.75 233.598V245.711C1187.96 245.293 1188.22 244.903 1188.52 244.548C1190.32 242.852 1191.9 240.936 1193.22 238.845C1195.23 235.697 1197.78 234.921 1200.39 237.316L1201.39 238.389V234.533C1201.4 234.411 1201.38 234.288 1201.33 234.173C1201.29 234.059 1201.22 233.954 1201.14 233.866C1201.05 233.778 1200.95 233.709 1200.84 233.663C1200.72 233.617 1200.6 233.595 1200.48 233.598H1187.75ZM1201.43 260.106V243.635C1200.95 244.3 1200.39 244.898 1199.75 245.415C1197.54 247.402 1195.01 248.992 1192.26 250.114C1191.56 250.496 1190.73 250.589 1189.95 250.371C1189.18 250.154 1188.52 249.645 1188.11 248.951C1187.98 248.784 1187.87 248.6 1187.79 248.403V257.117C1187.9 256.798 1188.03 256.486 1188.18 256.182C1188.34 255.855 1188.56 255.563 1188.83 255.323C1189.11 255.082 1189.42 254.9 1189.77 254.785C1190.11 254.67 1190.48 254.625 1190.84 254.654C1191.2 254.682 1191.55 254.783 1191.88 254.95C1194.92 255.961 1197.78 257.447 1200.36 259.353C1200.74 259.586 1201.09 259.87 1201.39 260.197L1201.43 260.106Z" fill="#584938"/>
<path d="M1295.9 272.904C1292.82 276.691 1288.74 276.531 1285.04 272.516C1278.57 265.34 1273.71 256.861 1270.78 247.651V272.06C1270.78 282.143 1260.54 285.314 1247.97 279.291C1247.19 279.011 1246.54 278.44 1246.17 277.697C1245.8 276.954 1245.72 276.095 1245.96 275.299C1246.35 273.748 1247.49 273.018 1249.98 273.292C1256.28 274.067 1258.05 273.292 1258.05 269.14V237.705C1254.2 254.266 1244.8 268.912 1232.64 275.983C1230.86 276.987 1229.63 276.691 1228.72 275.299C1228.28 274.69 1228.08 273.934 1228.18 273.187C1228.28 272.44 1228.66 271.759 1229.24 271.284C1238.48 261.749 1243.57 250.343 1246.12 236.632C1246.15 236.501 1246.15 236.365 1246.11 236.236C1246.07 236.107 1246.01 235.988 1245.91 235.89C1245.82 235.792 1245.71 235.717 1245.58 235.672C1245.46 235.626 1245.32 235.611 1245.19 235.629H1232.94C1232.11 235.56 1231.33 235.18 1230.76 234.565C1230.2 233.95 1229.88 233.145 1229.88 232.309C1229.88 231.474 1230.2 230.669 1230.76 230.054C1231.33 229.439 1232.11 229.059 1232.94 228.99H1245.8C1246.98 227.909 1248.43 227.173 1249.99 226.863C1251.56 226.553 1253.18 226.681 1254.68 227.234C1256.14 227.775 1257.34 228.841 1258.05 230.222V216.056C1258.05 211.972 1260.34 209.965 1264.37 209.965C1268.41 209.965 1270.69 211.972 1270.69 216.056V224.838C1271.77 228.945 1273.16 232.964 1274.84 236.86C1277.77 233.572 1280.47 230.097 1282.94 226.458C1285.41 222.922 1288.49 222.831 1292.07 225.546C1295.15 227.827 1295.31 231.386 1292.23 234.328C1288.15 238.177 1283.43 241.267 1278.27 243.453C1282.22 250.558 1287.51 256.833 1293.85 261.931C1298.02 265.513 1299.05 269.049 1295.9 272.904Z" fill="#584938"/>
<path d="M1374.06 220.822V276.986C1374.06 280.841 1371.91 282.62 1368.06 282.62C1364.2 282.62 1362.06 280.841 1362.06 276.986V276.028H1325.15V277.328C1325.15 281.183 1323.07 282.963 1319.21 282.963C1315.36 282.963 1313.12 281.183 1313.12 277.328V220.754C1313.06 220.079 1313.14 219.397 1313.37 218.758C1313.6 218.12 1313.96 217.54 1314.44 217.061C1314.92 216.583 1315.51 216.217 1316.15 215.992C1316.79 215.766 1317.47 215.686 1318.14 215.758H1369.06C1369.74 215.688 1370.42 215.772 1371.07 216.003C1371.71 216.234 1372.29 216.606 1372.77 217.092C1373.25 217.578 1373.62 218.166 1373.84 218.811C1374.06 219.457 1374.13 220.144 1374.06 220.822ZM1362.06 269.184V223.559C1362.06 223.437 1362.04 223.315 1361.99 223.201C1361.95 223.087 1361.88 222.984 1361.79 222.899C1361.7 222.813 1361.6 222.746 1361.48 222.703C1361.37 222.66 1361.24 222.641 1361.12 222.647H1326.08C1325.96 222.641 1325.84 222.66 1325.72 222.703C1325.61 222.746 1325.5 222.813 1325.41 222.899C1325.33 222.984 1325.26 223.087 1325.21 223.201C1325.16 223.315 1325.14 223.437 1325.15 223.559V269.184H1362.06ZM1357.65 236.676V255.246C1357.72 255.918 1357.64 256.598 1357.41 257.235C1357.18 257.872 1356.82 258.45 1356.34 258.928C1355.86 259.406 1355.28 259.772 1354.65 259.999C1354.01 260.226 1353.33 260.309 1352.66 260.242H1334.64C1333.96 260.313 1333.28 260.233 1332.64 260.007C1332 259.782 1331.42 259.416 1330.94 258.938C1330.46 258.459 1330.09 257.88 1329.86 257.241C1329.63 256.602 1329.55 255.921 1329.62 255.246V236.676C1329.55 236 1329.63 235.316 1329.85 234.674C1330.08 234.033 1330.45 233.45 1330.93 232.969C1331.41 232.487 1331.99 232.12 1332.63 231.893C1333.27 231.666 1333.96 231.586 1334.64 231.658H1352.77C1353.43 231.609 1354.1 231.704 1354.72 231.938C1355.34 232.172 1355.9 232.538 1356.37 233.012C1356.83 233.485 1357.19 234.054 1357.41 234.679C1357.63 235.304 1357.71 235.97 1357.65 236.631V236.676ZM1346.86 238.958C1346.87 238.836 1346.85 238.715 1346.81 238.601C1346.76 238.487 1346.7 238.384 1346.61 238.298C1346.52 238.212 1346.42 238.145 1346.31 238.101C1346.19 238.058 1346.07 238.039 1345.95 238.045H1341.39C1341.27 238.042 1341.15 238.064 1341.04 238.108C1340.92 238.153 1340.82 238.22 1340.74 238.306C1340.65 238.391 1340.58 238.493 1340.54 238.605C1340.49 238.717 1340.47 238.837 1340.48 238.958V252.645C1340.47 252.766 1340.49 252.886 1340.54 252.998C1340.58 253.11 1340.65 253.212 1340.74 253.297C1340.82 253.383 1340.92 253.45 1341.04 253.494C1341.15 253.539 1341.27 253.561 1341.39 253.558H1345.95C1346.07 253.564 1346.19 253.545 1346.31 253.502C1346.42 253.458 1346.52 253.391 1346.61 253.305C1346.7 253.219 1346.76 253.116 1346.81 253.002C1346.85 252.888 1346.87 252.767 1346.86 252.645V238.958Z" fill="#584938"/>
<path d="M1458.03 279.449C1456.02 283.077 1452.23 283.761 1448.61 281.229C1444.95 278.533 1441.73 275.286 1439.07 271.602C1434.72 276.13 1429.51 279.744 1423.74 282.233C1421.89 283.008 1420.5 282.62 1419.82 281.069C1419.67 280.828 1419.56 280.567 1419.5 280.294C1418.99 281.182 1418.23 281.901 1417.32 282.359C1416.41 282.818 1415.38 282.996 1414.37 282.871C1410.67 282.871 1408.66 281.183 1408.66 277.944V259.991C1405.17 262.252 1401.48 264.191 1397.64 265.785C1393.88 267.405 1391.1 266.241 1390.02 262.842C1388.95 259.443 1389.86 257.002 1393.17 256.158V223.559C1393.17 220.092 1395.11 218.564 1398.58 218.564C1402.05 218.564 1403.96 220.092 1403.96 223.559V253.991C1405.58 253.603 1407.11 253.215 1408.66 252.759V215.826C1408.66 212.131 1410.67 210.511 1414.37 210.511C1418.06 210.511 1420.07 212.131 1420.07 215.826V277.83C1420.37 277.516 1420.71 277.234 1421.07 276.986C1426.38 273.234 1430.84 268.407 1434.17 262.819C1431.56 256.427 1429.94 249.672 1429.38 242.79C1428.2 244.715 1426.83 246.518 1425.29 248.174C1425.09 248.478 1424.82 248.736 1424.51 248.928C1424.2 249.12 1423.85 249.243 1423.49 249.289C1423.12 249.334 1422.75 249.301 1422.4 249.191C1422.05 249.081 1421.73 248.898 1421.46 248.653C1420.84 248.224 1420.42 247.572 1420.28 246.836C1420.13 246.1 1420.28 245.337 1420.68 244.706C1424.14 235.544 1426.22 225.918 1426.84 216.145C1427.23 211.446 1429.99 209.735 1434.23 210.442C1438.48 211.15 1439.71 213.362 1438.93 217.674C1438.39 220.53 1437.7 223.355 1436.86 226.137H1455.95C1456.41 226.099 1456.87 226.157 1457.31 226.306C1457.74 226.456 1458.14 226.694 1458.48 227.006C1458.82 227.318 1459.09 227.697 1459.28 228.118C1459.46 228.54 1459.56 228.996 1459.56 229.456C1459.56 229.917 1459.46 230.373 1459.28 230.794C1459.09 231.216 1458.82 231.595 1458.48 231.907C1458.14 232.219 1457.74 232.457 1457.31 232.607C1456.87 232.756 1456.41 232.814 1455.95 232.776H1453.15C1452.95 243.151 1450.4 253.347 1445.69 262.591C1448.58 265.604 1451.83 268.24 1455.38 270.439C1459.17 272.743 1459.99 275.845 1458.03 279.449ZM1438.61 252.075C1440.24 245.725 1441.14 239.213 1441.31 232.662H1434.46C1434.3 233.118 1434.07 233.574 1433.94 233.962C1434.4 240.268 1435.98 246.441 1438.61 252.189V252.075Z" fill="#584938"/>
<path d="M1474.48 279.769C1472.63 280.294 1471.4 279.929 1470.71 278.446C1470.52 278.113 1470.41 277.745 1470.37 277.364C1470.34 276.984 1470.38 276.601 1470.5 276.239C1470.63 275.877 1470.82 275.545 1471.08 275.265C1471.34 274.985 1471.66 274.763 1472.01 274.613C1477.76 270.986 1482.79 266.349 1486.89 260.926C1489.42 257.618 1492.75 256.751 1495.6 259.147C1498.45 261.542 1498.36 264.553 1495.6 267.382C1489.66 273.148 1482.41 277.396 1474.48 279.769ZM1513.26 254.676V273.541C1513.26 282.666 1504.13 285.244 1492.73 279.929C1490.88 279.085 1490.26 277.921 1490.74 276.393C1491.22 274.864 1492.27 274.112 1494.12 274.454C1500.12 275.161 1500.96 273.998 1500.96 270.142V256.204C1494.12 256.888 1487.16 257.436 1480.32 257.755C1476.3 257.983 1474.13 256.204 1474.13 252.737C1474.13 249.269 1476 247.421 1480 247.581C1482.62 247.581 1485.15 247.741 1487.71 247.741C1493.11 245.425 1498.26 242.583 1503.1 239.254C1497.41 240.415 1491.65 241.238 1485.86 241.718C1481.84 242.106 1479.7 240.327 1479.7 236.95C1479.62 236.221 1479.72 235.484 1479.98 234.797C1480.24 234.11 1480.65 233.493 1481.19 232.993C1481.73 232.494 1482.37 232.126 1483.07 231.918C1483.78 231.71 1484.52 231.668 1485.24 231.795C1487.09 231.795 1488.94 231.932 1490.79 231.932C1492.94 229.427 1494.92 226.783 1496.72 224.016C1491.01 224.244 1485.54 224.244 1480.22 224.016C1477.94 224.016 1476.69 223.012 1476.69 221.164C1476.69 219.317 1477.46 218.381 1480.16 218.153C1495.76 216.967 1511.22 214.262 1526.3 210.078C1526.98 209.763 1527.72 209.611 1528.46 209.635C1529.2 209.659 1529.93 209.859 1530.58 210.216C1531.23 210.574 1531.79 211.081 1532.21 211.695C1532.63 212.309 1532.89 213.013 1532.99 213.75C1533.25 214.44 1533.34 215.182 1533.26 215.914C1533.18 216.647 1532.93 217.35 1532.52 217.966C1532.12 218.582 1531.57 219.094 1530.93 219.459C1530.29 219.825 1529.57 220.034 1528.84 220.069C1522.97 221.21 1517.43 221.986 1512.18 222.602C1508.36 226.034 1504.26 229.154 1499.93 231.932C1504.11 231.932 1508.26 231.704 1512.66 231.544C1514.26 229.993 1515.88 228.305 1517.36 226.616C1520.19 223.377 1523.52 223.058 1526.37 225.453C1529.22 227.848 1529.68 230.86 1526.21 233.939C1519.42 239.697 1511.71 244.277 1503.4 247.49C1510.09 247.33 1516.95 246.942 1524.57 246.486C1523.93 245.193 1523.21 243.936 1522.43 242.722C1522.2 242.444 1522.04 242.123 1521.95 241.779C1521.86 241.435 1521.85 241.076 1521.91 240.725C1521.96 240.375 1522.09 240.04 1522.29 239.743C1522.49 239.447 1522.74 239.195 1523.04 239.004C1523.6 238.533 1524.31 238.288 1525.04 238.317C1525.76 238.347 1526.45 238.649 1526.97 239.163C1530.87 242.051 1534.32 245.503 1537.21 249.406C1537.77 249.97 1538.19 250.66 1538.43 251.42C1538.67 252.179 1538.72 252.985 1538.59 253.77C1538.45 254.555 1538.13 255.295 1537.65 255.929C1537.16 256.563 1536.54 257.072 1535.82 257.413C1532.83 259.284 1529.98 258.348 1528.43 254.584L1527.26 251.801C1523.25 252.805 1518.48 253.717 1513.23 254.584L1513.26 254.676ZM1538.21 277.784C1535.52 280.704 1532.28 280.385 1529.5 277.009C1525.34 271.997 1520.87 267.258 1516.11 262.82C1515.82 262.612 1515.58 262.349 1515.39 262.045C1515.21 261.742 1515.09 261.405 1515.04 261.054C1514.99 260.702 1515.01 260.345 1515.1 260.001C1515.19 259.658 1515.34 259.336 1515.56 259.055C1515.96 258.482 1516.56 258.079 1517.25 257.923C1517.93 257.767 1518.64 257.87 1519.26 258.211C1525.75 260.987 1531.84 264.616 1537.37 269.002C1538.09 269.443 1538.7 270.047 1539.15 270.766C1539.6 271.485 1539.88 272.298 1539.96 273.142C1540.03 273.985 1539.92 274.836 1539.61 275.626C1539.3 276.416 1538.82 277.124 1538.19 277.693L1538.21 277.784Z" fill="#584938"/>
<path d="M1561.66 262.98C1562.25 268.042 1562.25 273.155 1561.66 278.218C1561.21 281.914 1558.13 283.077 1554.82 282.073C1554.14 281.974 1553.49 281.706 1552.93 281.292C1552.38 280.879 1551.94 280.334 1551.65 279.706C1551.36 279.078 1551.23 278.388 1551.27 277.698C1551.32 277.008 1551.53 276.34 1551.9 275.754C1553.96 271.542 1555.5 267.09 1556.46 262.5C1556.49 262.166 1556.58 261.84 1556.73 261.541C1556.88 261.243 1557.09 260.979 1557.35 260.765C1557.61 260.552 1557.91 260.393 1558.23 260.299C1558.55 260.205 1558.89 260.178 1559.22 260.219C1560.66 260.265 1561.44 261.269 1561.66 262.98ZM1610.96 281.229C1600.42 281.229 1598.48 279.838 1598.48 271.603V246.509L1596.2 246.965V249.247C1596.2 263.732 1592.51 277.055 1576.7 283.146C1576.39 283.335 1576.05 283.455 1575.69 283.499C1575.33 283.542 1574.97 283.507 1574.63 283.397C1574.28 283.286 1573.97 283.102 1573.7 282.858C1573.44 282.614 1573.23 282.315 1573.09 281.982C1572.74 281.368 1572.64 280.636 1572.82 279.948C1572.99 279.26 1573.44 278.671 1574.05 278.309C1583.45 271.603 1585.46 265.147 1585.46 248.882V248.425C1584.93 248.425 1584.32 248.425 1583.77 248.585C1580.69 248.813 1578.91 247.034 1578.84 243.566C1578.73 242.926 1578.77 242.269 1578.95 241.645C1579.14 241.022 1579.46 240.449 1579.9 239.972C1580.34 239.495 1580.89 239.127 1581.5 238.896C1582.11 238.664 1582.76 238.576 1583.4 238.639H1585.48C1586.97 234.846 1588.2 230.96 1589.18 227.005H1580.23C1579.85 226.994 1579.47 226.948 1579.09 226.868C1579.29 227.69 1579.32 228.544 1579.17 229.377C1579.02 230.21 1578.7 231.002 1578.23 231.704C1574.78 237.624 1570.7 243.154 1566.07 248.197C1567.92 247.969 1569.69 247.809 1571.45 247.581L1570.99 246.121C1570.72 245.411 1570.72 244.627 1570.99 243.916C1571.26 243.205 1571.78 242.618 1572.45 242.266C1573.12 241.899 1573.9 241.806 1574.63 242.007C1575.37 242.207 1575.99 242.684 1576.38 243.338C1578.45 246 1580.21 248.894 1581.63 251.961C1581.96 252.465 1582.16 253.042 1582.22 253.642C1582.28 254.242 1582.2 254.849 1581.97 255.409C1581.75 255.969 1581.39 256.467 1580.94 256.859C1580.48 257.252 1579.93 257.528 1579.34 257.664C1578.78 257.967 1578.16 258.131 1577.52 258.145C1576.89 258.158 1576.25 258.02 1575.68 257.741C1575.11 257.463 1574.61 257.052 1574.23 256.543C1573.85 256.033 1573.59 255.44 1573.48 254.813C1573.32 254.356 1573.25 253.809 1573.09 253.353C1568.37 255.755 1563.38 257.592 1558.22 258.828C1554.39 259.672 1552.45 258.212 1551.92 254.516C1551.4 250.821 1553.06 248.745 1557.08 248.653H1558.08C1560.23 245.25 1562.18 241.731 1563.95 238.114C1562.03 238.963 1560.04 239.657 1558.01 240.19C1554.16 241.103 1551.79 239.643 1551.63 235.628C1551.5 234.984 1551.52 234.318 1551.7 233.685C1551.87 233.051 1552.2 232.469 1552.64 231.986C1553.09 231.503 1553.64 231.132 1554.26 230.905C1554.88 230.677 1555.54 230.599 1556.19 230.677C1557.54 225.612 1558.59 220.47 1559.34 215.279C1559.35 214.426 1559.57 213.589 1559.97 212.836C1560.37 212.083 1560.94 211.436 1561.64 210.948C1562.34 210.461 1563.15 210.146 1563.99 210.03C1564.84 209.915 1565.7 210.001 1566.5 210.283C1567.38 210.341 1568.23 210.625 1568.97 211.108C1569.7 211.591 1570.3 212.256 1570.71 213.039C1571.11 213.821 1571.3 214.695 1571.27 215.575C1571.24 216.456 1570.98 217.312 1570.52 218.062C1568.54 222.576 1566.17 226.905 1563.42 230.997H1567.21C1567.66 229.765 1568.14 228.716 1568.6 227.461C1570.13 223.514 1572.82 222.442 1576.22 223.742C1576.65 223.906 1577.06 224.112 1577.45 224.358C1577.42 224.109 1577.42 223.855 1577.45 223.606C1577.39 223.166 1577.43 222.719 1577.56 222.296C1577.69 221.872 1577.92 221.484 1578.22 221.158C1578.52 220.833 1578.89 220.579 1579.3 220.414C1579.71 220.249 1580.16 220.179 1580.6 220.207H1592V215.644C1592 212.336 1594.29 210.26 1598.3 210.26C1602.32 210.26 1604.62 212.336 1604.62 215.644V220.207H1617.39C1618.3 220.207 1619.17 220.567 1619.81 221.209C1620.46 221.851 1620.82 222.721 1620.82 223.628C1620.82 224.536 1620.46 225.406 1619.81 226.048C1619.17 226.69 1618.3 227.05 1617.39 227.05H1601.06C1599.13 231.053 1596.84 234.871 1594.22 238.456C1599.05 238.319 1603.75 238.091 1608.32 237.704C1607.61 235.993 1606.99 234.464 1606.31 233.004C1606.1 232.712 1605.96 232.379 1605.89 232.029C1605.82 231.678 1605.83 231.317 1605.91 230.969C1605.99 230.621 1606.14 230.293 1606.35 230.007C1606.57 229.721 1606.84 229.483 1607.15 229.309C1607.72 228.878 1608.44 228.677 1609.15 228.744C1609.86 228.812 1610.53 229.143 1611.01 229.674C1614.52 233.696 1617.58 238.095 1620.13 242.791C1621.75 245.779 1621.14 247.946 1618.13 249.406C1617.55 249.791 1616.9 250.03 1616.21 250.101C1615.53 250.172 1614.84 250.074 1614.2 249.815C1613.56 249.556 1613 249.143 1612.55 248.615C1612.11 248.086 1611.81 247.457 1611.67 246.783C1611.28 245.619 1610.89 244.388 1610.44 243.247C1609.89 243.475 1609.27 243.635 1608.66 243.863V267.975C1608.66 270.599 1609.21 271.124 1611.51 271.124C1613.81 271.124 1614.52 270.827 1614.52 260.881C1614.52 258.805 1615.66 257.961 1617.14 257.961C1618.63 257.961 1619.9 258.577 1620.22 260.881C1622.6 278.058 1620.91 281.229 1610.96 281.229ZM1568.67 278.309C1565.45 278.697 1563.83 276.849 1563.9 273.542C1563.97 269.603 1563.78 265.663 1563.35 261.748C1563.26 261.432 1563.23 261.1 1563.28 260.773C1563.32 260.447 1563.44 260.134 1563.62 259.857C1563.79 259.579 1564.03 259.344 1564.31 259.166C1564.58 258.988 1564.9 258.873 1565.22 258.828C1566.59 258.44 1567.5 258.828 1568.44 260.516C1570.37 264.338 1571.78 268.405 1572.61 272.606C1573.39 276.142 1572 278.058 1568.67 278.309ZM1573.23 268.842C1572.43 265.903 1571.44 263.016 1570.29 260.196C1570.13 259.917 1570.03 259.607 1570 259.288C1569.98 258.969 1570.01 258.647 1570.12 258.344C1570.22 258.04 1570.39 257.762 1570.6 257.527C1570.82 257.292 1571.09 257.106 1571.38 256.98C1572.52 256.364 1573.53 256.729 1574.76 257.984C1577.13 260.408 1579.11 263.187 1580.62 266.219C1580.89 266.723 1581.06 267.28 1581.09 267.852C1581.13 268.424 1581.04 268.997 1580.84 269.533C1580.63 270.068 1580.31 270.552 1579.9 270.952C1579.49 271.352 1579 271.659 1578.46 271.85C1577.92 272.042 1577.34 272.115 1576.77 272.063C1576.2 272.011 1575.65 271.836 1575.15 271.55C1574.66 271.264 1574.23 270.874 1573.89 270.407C1573.56 269.939 1573.34 269.406 1573.23 268.842Z" fill="#584938"/>
<path d="M830.095 411.646H1031.32C1040.65 411.646 1050.01 411.897 1059.34 411.646H1059.72C1061 411.646 1063.47 411.19 1064.13 409.913C1064.79 408.635 1063.56 408.224 1062.39 408.224H861.165C851.835 408.224 842.459 407.996 833.129 408.224C833 408.235 832.87 408.235 832.741 408.224C831.487 408.224 829.023 408.704 828.361 409.981C827.7 411.258 828.932 411.646 830.095 411.646Z" fill="#DDDAD6"/>
</g>
<defs>
<clipPath id="clip0_1912_905">
<rect width="2560" height="1440" fill="white"/>
</clipPath>
</defs>
</svg>
