<svg xmlns="http://www.w3.org/2000/svg" viewBox="0 0 1122.2 631.24"><defs><style>.cls-1{fill:none;}.cls-2,.cls-3{fill:#fdfdfb;}.cls-2{opacity:0.52;}.cls-4{fill:#d1cdc8;}.cls-5{fill:#bab4ac;}.cls-6{fill:#a69e94;}.cls-7{fill:#bab3ad;}.cls-8{fill:#fff;}.cls-9{fill:#b8c318;}.cls-10{fill:#584938;}.cls-11{fill:#dddad6;}.cls-12{fill:#f7f6f5;}.cls-13{fill:#98cee6;}</style></defs><g id="底"><rect class="cls-1" width="1122.2" height="631.24"/></g><g id="白底"><path class="cls-2" d="M944.94,220.32c0,41.41-9.15,86.42-35.69,120.91C832.47,441,739.5,439.57,595.91,439.57c-87.21,0-216.47,8.51-290.36-18.11-110.4-39.76-148.29-90.09-148.29-163.09,0-60.85,44.6-144.9,109.42-179.62C331.7,43.92,417.11,20.46,526,20.46c134.46,0,260.65,18.34,339,69.89C913.46,122.19,944.94,173.79,944.94,220.32Z"/><path class="cls-3" d="M924.11,220.86c0,39.23-8.67,81.85-33.81,114.52-72.71,94.49-160.77,93.14-296.76,93.14-82.6,0-205,8.06-275-17.15C214,373.72,178.09,326,178.09,256.9c0-57.62,42.24-137.23,103.64-170.12,61.58-33,142.47-55.2,245.62-55.2,127.36,0,246.87,17.37,321.1,66.2C894.29,127.93,924.11,176.8,924.11,220.86Z"/></g><g id="圖層_1" data-name="圖層 1"><polygon class="cls-4" points="422.62 196.53 408.62 196.53 408.62 316.39 422.62 323.6 422.62 257.69 507.97 257.69 507.97 243.69 422.62 243.69 422.62 196.53"/><polygon class="cls-4" points="655.42 337.29 655.42 351.55 741.61 351.55 750.17 337.29 655.42 337.29"/><path class="cls-5" d="M476.63,174c0,13.21-27.32,23.92-61,23.92s-61-10.71-61-23.92"/><rect class="cls-6" x="389.14" y="234.48" width="52.96" height="32.4" rx="16.2"/><path class="cls-7" d="M522,400.44l-7.08-27.51a1.5,1.5,0,1,1,2.91-.75l6.22,24.19,54.12-22a1.5,1.5,0,0,1,1.13,2.78Z"/><line class="cls-6" x1="528.34" y1="379.25" x2="521.85" y2="402.63"/><path class="cls-6" d="M521.85,405.63a3.21,3.21,0,0,1-.8-.11,3,3,0,0,1-2.09-3.69l6.49-23.39a3,3,0,0,1,5.78,1.61l-6.49,23.38A3,3,0,0,1,521.85,405.63Z"/><path class="cls-7" d="M657.46,400.44l-57.3-23.31a1.5,1.5,0,0,1,1.13-2.78l54.12,22,6.23-24.19a1.5,1.5,0,1,1,2.9.75Z"/><line class="cls-6" x1="651.12" y1="379.25" x2="657.61" y2="402.63"/><path class="cls-6" d="M657.61,405.63a3,3,0,0,1-2.89-2.2l-6.49-23.38a3,3,0,0,1,5.78-1.61l6.49,23.39a3,3,0,0,1-2.09,3.69A3.21,3.21,0,0,1,657.61,405.63Z"/><path class="cls-8" d="M419.52,245.77c2.87.57,7.37,1.86,8.23,5.15.77,2.91-2.44,4.76-4.71,5.58a22.16,22.16,0,0,1-12.08.57c-2.66-.6-6.54-1.92-7.44-4.87-1.18-3.86,4.22-5.72,7-6.35.49-.11,1.4-.59,1.23-1.22s-1.2-.55-1.67-.44c-3.49.79-9.16,2.82-9.59,7.09-.38,3.76,3.79,6,6.78,7a26.46,26.46,0,0,0,15,.28c3.2-.87,7.89-2.86,8.46-6.63.74-4.87-5.88-7.14-9.5-7.86a2.29,2.29,0,0,0-2.05.55c-.4.43-.34,1,.32,1.18Z"/><polygon class="cls-8" points="418.89 244.9 422.31 249.65 426.73 242.84 418.89 244.9"/><path class="cls-8" d="M417.55,245.51l3.42,4.75c.28.39,1,.38,1.37.3a2,2,0,0,0,1.34-.8l3.87-6,.55-.85a.62.62,0,0,0-.23-.88,1.76,1.76,0,0,0-1.37-.1l-6.87,1.8-1,.25c-.51.14-1.39.61-1.21,1.27s1.19.62,1.68.49L426,244l1-.26-1.61-1-3.87,5.95-.56.85,2.71-.5-3.42-4.75C419.54,243.35,416.75,244.4,417.55,245.51Z"/><path class="cls-9" d="M507,154c-.07.18-.31.27-.71.27a1.69,1.69,0,0,1-1.06-.35,3.08,3.08,0,0,1-.41-.48c-.06-.12,0-.31.1-.58l.63-1.44a5.77,5.77,0,0,1,.37-1.28c.17-.43.31-.73.39-.91s.22-.65.44-1.22.47-1.21.76-1.91.57-1.37.83-2,.46-1.1.58-1.41c.3-.7.61-1.44.92-2.22s.75-1.74,1.3-2.92A.59.59,0,0,0,511,137a.7.7,0,0,0-.64-.29,1.11,1.11,0,0,1-.29-.62.42.42,0,0,1,.27-.46l2.42-.82a8,8,0,0,1,2.54-.17,6.65,6.65,0,0,1,2.47.72,5.35,5.35,0,0,1,1.84,1.64,3.83,3.83,0,0,1,.65,1.8,3.68,3.68,0,0,1-.23,1.65,3.93,3.93,0,0,1-.8,1.21,13.37,13.37,0,0,1-1.37,1.32,15.28,15.28,0,0,1-1.61,1.2,9.47,9.47,0,0,1-1.54.83c-.44.21-.93.42-1.47.64s-1.08.41-1.58.57a4.31,4.31,0,0,1-1,.1,2.79,2.79,0,0,1-.87-.1l-.44.84c-.18.63-.48,1.57-.91,2.82S507.51,152.47,507,154Zm10.46.5a1.86,1.86,0,0,1-.7.06,2.27,2.27,0,0,1-1.09-.43,16.12,16.12,0,0,1-2.32-1.66,25,25,0,0,1-2.61-2.63,5.06,5.06,0,0,1-.83-1.32c-.18-.44-.42-1-.7-1.66l-.37-1.42,1-.66,1.16.95a12.19,12.19,0,0,0,1,1.76,13.84,13.84,0,0,0,1.15,1.51c.31.36.74.81,1.29,1.33a21.15,21.15,0,0,0,1.74,1.48,10.35,10.35,0,0,0,1.66,1.09q.15.12.09.51a2.85,2.85,0,0,1-.21.72C517.56,154.32,517.48,154.44,517.41,154.46Zm-6.64-10.33a4.61,4.61,0,0,0,1.33-.33c.48-.18,1-.39,1.54-.62s1-.51,1.52-.8a9.83,9.83,0,0,0,1.37-1,4.6,4.6,0,0,0,1-1.13,2.21,2.21,0,0,0,.31-1.29,1.78,1.78,0,0,0-.22-.77,3.09,3.09,0,0,0-.54-.76,1.59,1.59,0,0,0-.67-.45,12,12,0,0,0-1.61-.32,1.11,1.11,0,0,0-.8.16,1.39,1.39,0,0,0-.38.74,2.13,2.13,0,0,1-.21.5l-.52,1.07c-.2.43-.4.89-.59,1.38l-1.12,2.28a6.19,6.19,0,0,0-.42,1C510.69,144,510.7,144.06,510.77,144.13Z"/><path class="cls-9" d="M521.39,151.83a1.2,1.2,0,0,0-.46-.42c-.24-.14-.36-.25-.36-.32a.83.83,0,0,0-.12-.33,1.43,1.43,0,0,0-.22-.33c-.09-.1-.06-.36.08-.78a15.76,15.76,0,0,1,.63-1.51c.28-.6.59-1.2.92-1.82a2.92,2.92,0,0,0,.42-.55,2.7,2.7,0,0,1,.32-.45.32.32,0,0,1,.08-.2.23.23,0,0,1,.18-.09l.21-.42a3.73,3.73,0,0,1,.33-.42c.19-.21.41-.45.68-.7s.53-.5.8-.73a8.08,8.08,0,0,1,.67-.5,1.91,1.91,0,0,1,1.15-.34,1.68,1.68,0,0,1,1,.37l.36.32.63.52.62.53,1,.87-.44,1.32a3.7,3.7,0,0,0-.19,1.84,4.43,4.43,0,0,0,.5,1.37,1.16,1.16,0,0,0,.36.45,1.46,1.46,0,0,0,.59.21.91.91,0,0,1,.4.16.49.49,0,0,1,.18.42,1.47,1.47,0,0,1-.22.91.93.93,0,0,1-.49.33,3.45,3.45,0,0,1-1.66-.19,2.86,2.86,0,0,1-1.42-1.5,3,3,0,0,1-.28-.59,6,6,0,0,1-.2-.57c-.07.09-.16.2-.28.33l-.32.36a11.2,11.2,0,0,1-3.21,2.46A2.28,2.28,0,0,1,521.39,151.83Zm2-2.39a9.34,9.34,0,0,0,1.05-.75l1.48-1.26a7.77,7.77,0,0,0,1.13-1.29l.58-.95a2.35,2.35,0,0,0-.48-.79.62.62,0,0,0-.42-.19,1.31,1.31,0,0,0-.81.44,7.85,7.85,0,0,0-1.07,1.26c-.4.56-.84,1.25-1.33,2.07a8.89,8.89,0,0,0-.71,1.66A1.08,1.08,0,0,0,523.42,149.44Z"/><path class="cls-9" d="M533.9,151.93a1.24,1.24,0,0,1-.3-.63,3.37,3.37,0,0,1-.07-.83,1.72,1.72,0,0,1,.14-.62.75.75,0,0,1,.06-.33.26.26,0,0,0,0-.22.8.8,0,0,1,.05-.37l.16-.5a11.59,11.59,0,0,0,.42-1.09l.48-1.37c.16-.47.29-.87.39-1.22s.17-.55.19-.62.14-.32.42-.34a.84.84,0,0,1,.76.26,3.51,3.51,0,0,1,.72.79.61.61,0,0,1,.15.56,3.9,3.9,0,0,1-.34,1,5.52,5.52,0,0,0-.25.7,7.2,7.2,0,0,0-.2.81c-.07.14-.15.33-.25.59s-.18.5-.25.72a2.65,2.65,0,0,0-.1.49c0,.24-.08.48-.13.72a1.9,1.9,0,0,1-.22.58c-.15.73-.43,1.15-.83,1.27A.93.93,0,0,1,533.9,151.93Zm2.85-10.56a1.38,1.38,0,0,1-.44-.52,1.58,1.58,0,0,1-.15-.54c0-.16,0-.25,0-.29a2.6,2.6,0,0,0,.46-.76,5.87,5.87,0,0,1,.43-.87l.15-.22a.36.36,0,0,1,.19-.18.94.94,0,0,1,.89,0,1.8,1.8,0,0,1,.83.66,1.67,1.67,0,0,1,.14,1,2.45,2.45,0,0,1-.56,1.1,1.74,1.74,0,0,1-1,.68A1.2,1.2,0,0,1,536.75,141.37Z"/><path class="cls-9" d="M549.35,151.75a2.8,2.8,0,0,1-1-.25,1.46,1.46,0,0,1-.62-.81,3.17,3.17,0,0,1-.09-.88,8.66,8.66,0,0,1,.07-.89c0-.29,0-.54,0-.75v-.51c0-.26-.1-.42-.2-.48a.58.58,0,0,0-.49,0,9.32,9.32,0,0,0-1.19.7,16.62,16.62,0,0,0-1.35,1c-.46.37-.94.77-1.43,1.2a10.13,10.13,0,0,0-.86,1,.73.73,0,0,1-.57.4.42.42,0,0,1-.44,0c-.16-.11-.33-.23-.5-.37s-.27-.32-.44-.54a2.79,2.79,0,0,1-.3-.44,4.42,4.42,0,0,1,.06-.76,5.15,5.15,0,0,1,.21-.71c.1-.25.22-.53.36-.85.07-.12.14-.25.2-.38a4.41,4.41,0,0,1,.22-.43,8.1,8.1,0,0,1,.3-.85c.14-.31.26-.61.39-.89a12.45,12.45,0,0,0,.44-1.19,7.74,7.74,0,0,0,.27-1.08s0-.09,0-.16a.26.26,0,0,1,.16-.13h.06a1,1,0,0,1,.69,0,1.72,1.72,0,0,1,.78.3,1.51,1.51,0,0,1,.53,1.24,4.53,4.53,0,0,1-.79,2,7.88,7.88,0,0,1-.39.77,1.29,1.29,0,0,0-.19.49l.71-.54c.19-.15.36-.27.5-.36s.28-.25.58-.48.62-.49,1-.75.64-.47.85-.61a5.6,5.6,0,0,1,.73-.44,2.34,2.34,0,0,1,.56-.22,1.45,1.45,0,0,1,.64.19,3.71,3.71,0,0,1,.72.43,1.05,1.05,0,0,1,.38.46,1.78,1.78,0,0,1,0,.28,1.69,1.69,0,0,0,0,.3c0,.28,0,.62,0,1s0,.79,0,1.18a5,5,0,0,1-.1,1.07.8.8,0,0,1,.08.16s0,.07,0,.15a2.29,2.29,0,0,0,.12.37,3.27,3.27,0,0,0,.17.41q.1.22.24.57a1.05,1.05,0,0,1-.39.67A1.54,1.54,0,0,1,549.35,151.75Z"/><path class="cls-9" d="M555,151.59c-.27,0-.53-.2-.79-.59a4.66,4.66,0,0,1-.62-1.46,5.36,5.36,0,0,1-.17-1.72,8.09,8.09,0,0,1,.09-1.35c.06-.35.13-.68.2-1a.9.9,0,0,0,.09-.26c0-.07,0-.19,0-.35s.08-.42.17-.79a4.9,4.9,0,0,1,.23-.73,1.66,1.66,0,0,1,.19-.4,1.26,1.26,0,0,1,.71-.51,1,1,0,0,1,.73.09.71.71,0,0,1,.38.55c.11.09.16.29.17.6a5.06,5.06,0,0,1-.06.94,1.8,1.8,0,0,1-.24.7,3.12,3.12,0,0,0-.12.69c0,.37-.09.75-.13,1.16a7.17,7.17,0,0,1-.15,1c0,.32,0,.52.07.6s.27,0,.53-.24a9,9,0,0,0,1-1.28c.35-.53.61-.94.78-1.24a5.4,5.4,0,0,0,.39-.82c.1-.24.21-.53.33-.86s.18-.51.25-.69a1.4,1.4,0,0,1,.23-.37.75.75,0,0,1,.78-.35,1.85,1.85,0,0,1,.8.27,1.4,1.4,0,0,1,.38.86,2.09,2.09,0,0,1-.25,1.17,8.23,8.23,0,0,0-.41,1,10.52,10.52,0,0,0-.31,1.16,5.07,5.07,0,0,0-.12,1c0,.35,0,.56.14.62a.69.69,0,0,0,.36.09,1,1,0,0,0,.6-.22,8.63,8.63,0,0,0,.85-.8,6.78,6.78,0,0,0,.58-.71c.22-.32.45-.65.67-1s.4-.66.55-.93a1.63,1.63,0,0,0,.23-.52.8.8,0,0,1,.23-.44l.25-.33a1,1,0,0,1,.36-.25.63.63,0,0,1,.47,0,.81.81,0,0,1,.45.27.88.88,0,0,1,.2.52,5,5,0,0,1,.06.72c-.05.2-.13.46-.23.81s-.22.66-.33,1a2.72,2.72,0,0,1-.3.62l-.37.38a4.51,4.51,0,0,0-.48.6,8,8,0,0,1-.95,1c-.19.16-.36.31-.5.45a4.4,4.4,0,0,1-1.26.88,3.66,3.66,0,0,1-1.35.37,1.54,1.54,0,0,1-1-.22,1.48,1.48,0,0,1-.81-1.42,1.67,1.67,0,0,0-.14-.56.83.83,0,0,0-.27.06c-.12,0-.23.15-.36.36a3,3,0,0,1-.8.91,6.6,6.6,0,0,1-1.15.77A2.13,2.13,0,0,1,555,151.59Z"/><path class="cls-9" d="M568.76,151.83a1.13,1.13,0,0,0-.46-.42c-.23-.14-.35-.25-.35-.32a.83.83,0,0,0-.12-.33,1.43,1.43,0,0,0-.22-.33c-.09-.1-.07-.36.07-.78a16.2,16.2,0,0,1,.64-1.51c.28-.6.58-1.2.92-1.82a2.92,2.92,0,0,0,.42-.55,2.7,2.7,0,0,1,.32-.45.27.27,0,0,1,.08-.2.23.23,0,0,1,.18-.09l.21-.42a3.73,3.73,0,0,1,.33-.42c.19-.21.41-.45.67-.7s.53-.5.81-.73a6.69,6.69,0,0,1,.67-.5,1.9,1.9,0,0,1,1.14-.34,1.69,1.69,0,0,1,1,.37l.35.32.64.52.62.53,1,.87-.45,1.32a3.58,3.58,0,0,0-.18,1.84,4.19,4.19,0,0,0,.5,1.37,1.24,1.24,0,0,0,.35.45,1.51,1.51,0,0,0,.6.21.83.83,0,0,1,.39.16.47.47,0,0,1,.19.42,1.46,1.46,0,0,1-.23.91.91.91,0,0,1-.48.33,3.43,3.43,0,0,1-1.66-.19,2.87,2.87,0,0,1-1.43-1.5,3.14,3.14,0,0,1-.27-.59,4,4,0,0,1-.2-.57c-.07.09-.16.2-.28.33l-.33.36a11.05,11.05,0,0,1-3.2,2.46A2.3,2.3,0,0,1,568.76,151.83Zm2-2.39a8.46,8.46,0,0,0,1.06-.75l1.47-1.26a7.37,7.37,0,0,0,1.14-1.29l.58-.95a2.35,2.35,0,0,0-.48-.79.62.62,0,0,0-.42-.19,1.36,1.36,0,0,0-.82.44,8.42,8.42,0,0,0-1.06,1.26c-.4.56-.84,1.25-1.33,2.07a9.52,9.52,0,0,0-.72,1.66A1,1,0,0,0,570.79,149.44Z"/><path class="cls-9" d="M583.07,152.41a1.48,1.48,0,0,1-.63-.36,4,4,0,0,1-.62-.68,2.75,2.75,0,0,1-.36-.65.53.53,0,0,0-.13-.21c-.07,0-.11-.29-.12-.7a11.58,11.58,0,0,1,.07-1.38,9.7,9.7,0,0,1,.18-1.21c.09-.28.22-.67.4-1.15s.32-.92.45-1.3l.71-1.53-1-.29a.62.62,0,0,1-.31-.21.51.51,0,0,1-.12-.27,1.31,1.31,0,0,1,.24-.6c.16-.27.27-.4.34-.4a2.62,2.62,0,0,0,.49,0c.24,0,.47,0,.7,0a1.73,1.73,0,0,0,.42-.05.91.91,0,0,0,.21-.15.59.59,0,0,0,.16-.27,3.45,3.45,0,0,1,.24-.45l.29-.47.3-.58c.08-.16.21-.38.38-.66a3.94,3.94,0,0,0,.29-.45,1.58,1.58,0,0,1,.4-.45,1.5,1.5,0,0,1,.77-.3,1.09,1.09,0,0,1,.94.25,1,1,0,0,1,.24.5,1.13,1.13,0,0,1-.21.61,5.68,5.68,0,0,1-.49.8,5.25,5.25,0,0,0-.52.8q-.42.59-.15.66a5.14,5.14,0,0,0,1.47-.1,1.36,1.36,0,0,1,1.11.15,1.09,1.09,0,0,1,.39.74c.06.42,0,.68-.13.77a3.29,3.29,0,0,1-1.21.13,8.43,8.43,0,0,1-1.08.12h-.66l-.45,0a1.13,1.13,0,0,0-.31,0,.55.55,0,0,0-.31.17,2.25,2.25,0,0,0-.19.33,2.27,2.27,0,0,0-.32.55,10.93,10.93,0,0,1-.53,1c-.24.73-.45,1.44-.62,2.12s-.31,1.35-.43,2a1.25,1.25,0,0,0,0,.73c.08.15.3.24.67.28a6.43,6.43,0,0,0,.84,0,4.36,4.36,0,0,0,.93-.14l.6-.28a5.21,5.21,0,0,0,.58-.3l.71-.42c.09-.14.22-.12.38.06a1.63,1.63,0,0,1,.36.6,2.57,2.57,0,0,1-.13.75c-.09.29-.41.59-1,.91a6.45,6.45,0,0,1-4.24.92Z"/><path class="cls-9" d="M596.33,151.85a4.07,4.07,0,0,1-1.68.52,3.7,3.7,0,0,1-1.64-.24,2.79,2.79,0,0,1-1.24-.91,3.38,3.38,0,0,1-.5-1.09,4.87,4.87,0,0,1-.08-2,7.75,7.75,0,0,1,.75-2.45,8.63,8.63,0,0,1,1.46-2.19,4.54,4.54,0,0,1,1.9-1.29,3.77,3.77,0,0,1,.75-.2,4.11,4.11,0,0,1,1,0,3.42,3.42,0,0,1,1.08.3,1.86,1.86,0,0,1,.69.49,2.2,2.2,0,0,1,.55.81,2.11,2.11,0,0,1,.11.77,5,5,0,0,1-.75,1.82,3.79,3.79,0,0,1-1.73,1.45,3.53,3.53,0,0,1-1,.23,6,6,0,0,1-1.66-.16c-.43-.08-.7,0-.83.14a1.63,1.63,0,0,0-.17,1,2.25,2.25,0,0,0,.22.83.94.94,0,0,0,.64.49,1.79,1.79,0,0,0,.87,0,6.65,6.65,0,0,0,.66-.27l.41-.29.4-.32.33-.24a.71.71,0,0,1,.26-.13l.26,0a.84.84,0,0,1,.56.31,1.56,1.56,0,0,1,.34.56,1.2,1.2,0,0,1-.27.59,4.74,4.74,0,0,1-.69.79A5.73,5.73,0,0,1,596.33,151.85ZM596,146a2.74,2.74,0,0,0,.54-.37,5.46,5.46,0,0,0,.65-.62,1,1,0,0,0,.29-.51c0-.2-.13-.36-.38-.5a1.4,1.4,0,0,0-1-.08,1.27,1.27,0,0,0-.5.29,4.13,4.13,0,0,0-.58.54,5,5,0,0,0-.5.58,2.92,2.92,0,0,0-.29.43.74.74,0,0,0,.42.21,3,3,0,0,0,.7.08A3.78,3.78,0,0,0,596,146Z"/><path class="cls-9" d="M601.86,151.67a4.22,4.22,0,0,1-.51-.47.9.9,0,0,1-.2-.82,10.29,10.29,0,0,1,.21-1.31c.09-.37.19-.81.31-1.3,0-.21.13-.57.28-1.08s.33-1.06.54-1.66.43-1.16.66-1.7a7.19,7.19,0,0,1,.61-1.2,1.23,1.23,0,0,1,.85-.26,1.1,1.1,0,0,1,.78.21.83.83,0,0,1,.18.83,7.68,7.68,0,0,1-.73,1.83c-.09.21-.2.43-.33.67a4.13,4.13,0,0,0-.28.58c-.05.15,0,.22,0,.2a2.9,2.9,0,0,1,.58-.67,11.17,11.17,0,0,1,.9-.75c.31-.25.61-.47.89-.66a5,5,0,0,1,.58-.37,2.78,2.78,0,0,1,.49-.23,2.29,2.29,0,0,0,.38-.14,2.49,2.49,0,0,1,1.33-.22c.49,0,.78.19.89.46a.64.64,0,0,0,.31.42c.07,0,.12.05.13.16s-.11.3-.35.52a1.24,1.24,0,0,1-.78.37,2,2,0,0,0-.6.13l-.64.27-1.8,1a6.36,6.36,0,0,0-1.65,1.37,3.59,3.59,0,0,1-.39.39,2.23,2.23,0,0,0-.43.53,1.68,1.68,0,0,0-.26.58c-.09.3-.16.58-.22.85a4.14,4.14,0,0,0-.09.49,2.44,2.44,0,0,1-.35.74,1.45,1.45,0,0,1-.62.53C602.38,152.06,602.14,152,601.86,151.67Z"/><path class="cls-9" d="M621.44,154q-.11.27-.72.27a1.68,1.68,0,0,1-1.05-.35,2.6,2.6,0,0,1-.41-.48.74.74,0,0,1,.09-.58c.13-.28.34-.76.64-1.44a5.77,5.77,0,0,1,.37-1.28c.17-.43.3-.73.39-.91s.22-.65.44-1.22.47-1.21.76-1.91.57-1.37.83-2,.46-1.1.58-1.41c.3-.7.61-1.44.92-2.22s.75-1.74,1.29-2.92a.56.56,0,0,0-.08-.55.67.67,0,0,0-.63-.29,1.11,1.11,0,0,1-.29-.62.41.41,0,0,1,.27-.46l2.42-.82a8,8,0,0,1,2.54-.17,6.7,6.7,0,0,1,2.47.72,5.45,5.45,0,0,1,1.84,1.64,3.73,3.73,0,0,1,.42,3.45,4.12,4.12,0,0,1-.8,1.21,14.49,14.49,0,0,1-1.37,1.32,16.39,16.39,0,0,1-1.61,1.2,9.9,9.9,0,0,1-1.54.83c-.44.21-.93.42-1.48.64s-1.07.41-1.58.57a4.17,4.17,0,0,1-1,.1,2.71,2.71,0,0,1-.87-.1l-.45.84c-.17.63-.48,1.57-.9,2.82S622,152.47,621.44,154Zm10.46.5a1.88,1.88,0,0,1-.7.06,2.3,2.3,0,0,1-1.1-.43,16.62,16.62,0,0,1-2.31-1.66,23.16,23.16,0,0,1-2.61-2.63,5.06,5.06,0,0,1-.83-1.32c-.19-.44-.42-1-.7-1.66l-.37-1.42,1-.66,1.16.95a12.19,12.19,0,0,0,1,1.76,13.84,13.84,0,0,0,1.15,1.51c.31.36.74.81,1.29,1.33a21.15,21.15,0,0,0,1.74,1.48,9.93,9.93,0,0,0,1.66,1.09q.15.12.09.51a4,4,0,0,1-.21.72C632.05,154.32,632,154.44,631.9,154.46Zm-6.64-10.33a4.69,4.69,0,0,0,1.33-.33c.48-.18,1-.39,1.54-.62s1-.51,1.51-.8a9.27,9.27,0,0,0,1.37-1,4.44,4.44,0,0,0,1-1.13,2.13,2.13,0,0,0,.3-1.29,1.75,1.75,0,0,0-.21-.77,3.09,3.09,0,0,0-.54-.76,1.59,1.59,0,0,0-.67-.45,12,12,0,0,0-1.61-.32,1.08,1.08,0,0,0-.8.16,1.32,1.32,0,0,0-.38.74,2.13,2.13,0,0,1-.21.5c-.15.28-.32.64-.52,1.07s-.4.89-.59,1.38l-1.12,2.28a6.19,6.19,0,0,0-.42,1A.32.32,0,0,0,625.26,144.13Z"/><path class="cls-9" d="M640.33,151.85a4.07,4.07,0,0,1-1.68.52,3.74,3.74,0,0,1-1.64-.24,2.85,2.85,0,0,1-1.24-.91,3.61,3.61,0,0,1-.5-1.09,4.87,4.87,0,0,1-.08-2,8.31,8.31,0,0,1,.75-2.45,8.9,8.9,0,0,1,1.46-2.19,4.6,4.6,0,0,1,1.9-1.29,3.59,3.59,0,0,1,1.77-.21,3.57,3.57,0,0,1,1.08.3,1.89,1.89,0,0,1,.68.49,2.24,2.24,0,0,1,.56.81,2.1,2.1,0,0,1,.1.77,5,5,0,0,1-.75,1.82,3.74,3.74,0,0,1-1.73,1.45,3.53,3.53,0,0,1-1,.23,6.07,6.07,0,0,1-1.66-.16c-.42-.08-.7,0-.83.14a1.7,1.7,0,0,0-.17,1,2.46,2.46,0,0,0,.22.83,1,1,0,0,0,.65.49,1.8,1.8,0,0,0,.87,0l.66-.27c.14-.09.27-.19.4-.29l.4-.32.33-.24a.79.79,0,0,1,.26-.13l.27,0a.85.85,0,0,1,.55.31,1.56,1.56,0,0,1,.34.56,1.26,1.26,0,0,1-.26.59,5.37,5.37,0,0,1-.7.79A5.73,5.73,0,0,1,640.33,151.85ZM640,146a3.49,3.49,0,0,0,.54-.37,5.37,5.37,0,0,0,.64-.62,1,1,0,0,0,.29-.51c0-.2-.13-.36-.38-.5a1.4,1.4,0,0,0-1-.08,1.27,1.27,0,0,0-.5.29,4.77,4.77,0,0,0-.58.54,6.23,6.23,0,0,0-.5.58,2.92,2.92,0,0,0-.29.43.74.74,0,0,0,.42.21,3.06,3.06,0,0,0,.7.08A4,4,0,0,0,640,146Z"/><path class="cls-9" d="M648.55,152.49a3,3,0,0,1-1.52-.14,2.68,2.68,0,0,1-1.23-.85,2.17,2.17,0,0,1-.49-1.44,6.43,6.43,0,0,1,.14-1.88,11.86,11.86,0,0,1,.69-2.2,7.71,7.71,0,0,1,1.07-1.87c.35-.42.7-.81,1-1.16a3.27,3.27,0,0,1,1-.71,3.7,3.7,0,0,1,.91-.25,4.5,4.5,0,0,1,.75-.1,5.21,5.21,0,0,1,.93.35c.35.15.52.34.52.55l.13.13c.1,0,.22.13.36.38a3.71,3.71,0,0,1,.3.87,1.16,1.16,0,0,1-.05.78,3.15,3.15,0,0,1-.41,1c-.21.32-.38.48-.52.48h-.2q-.09,0-.09.15c0,.09-.09.13-.27.13a1.65,1.65,0,0,1-.57-.11.56.56,0,0,1-.37-.31,1.93,1.93,0,0,1,0-.35c0-.13.09-.37.16-.71a1.62,1.62,0,0,0,0-1c-.09-.17-.31-.18-.66,0a3.91,3.91,0,0,0-1.08.85,4.63,4.63,0,0,0-.75,1.36c-.22.58-.46,1.39-.73,2.42a1.74,1.74,0,0,0,0,1c.08.23.15.35.2.37a1.94,1.94,0,0,0,.8,0,2.25,2.25,0,0,0,.73-.22,5.33,5.33,0,0,0,.75-.46l.72-.54a.73.73,0,0,0,.24-.31.68.68,0,0,1,.32-.33.67.67,0,0,1,.54-.33h.64a1.18,1.18,0,0,1,.45.26,1.85,1.85,0,0,1,.36.41c.08.13.06.23,0,.28s-.12,0-.13.13,0,.23-.23.48a6.63,6.63,0,0,1-.7.79,8.37,8.37,0,0,1-.8.72,1.13,1.13,0,0,1-.54.3c-.18,0-.26.06-.26.16s-.13.12-.39.26a7.65,7.65,0,0,1-.86.43A5.44,5.44,0,0,1,648.55,152.49Z"/><path class="cls-9" d="M655.77,157.86a5.62,5.62,0,0,1-1.82.07,4.11,4.11,0,0,1-1.46-.46,1.47,1.47,0,0,1-.73-.77.85.85,0,0,1,.16-.89,1.31,1.31,0,0,1,.75-.35c.29,0,.48,0,.57.11l.67.4a1.72,1.72,0,0,0,1.15.13,2.38,2.38,0,0,0,1.08-.58,8.28,8.28,0,0,0,.84-1c.14-.21.38-.59.71-1.14s.68-1.14,1-1.8.67-1.27.91-1.83c.06-.14.12-.31.19-.5a1.46,1.46,0,0,1,.26-.48c.11-.21.2-.4.28-.59a2.84,2.84,0,0,0,.14-.38,3,3,0,0,1,.24-.53c.14-.26.27-.52.39-.79s.22-.65.4-1.16a8.06,8.06,0,0,1,.53-1.24l.51-1a.91.91,0,0,1,.43-.47.77.77,0,0,1,.45-.18,1,1,0,0,1,.5.16,3.49,3.49,0,0,1,.52.62,1.17,1.17,0,0,1,.16.73,3.57,3.57,0,0,1-.44,1.18,8.72,8.72,0,0,1-.46,1.14,4,4,0,0,1-.38.68l-.3.69c-.12.26-.22.49-.31.7-.31.7-.59,1.28-.82,1.72s-.43.84-.6,1.21-.36.8-.55,1.29l-1.18,1.86a16.86,16.86,0,0,1-1.2,1.64,9.51,9.51,0,0,1-.75.62,11.35,11.35,0,0,1-1,.71A2.79,2.79,0,0,1,655.77,157.86Zm3.29-6a1.56,1.56,0,0,1-.85-.53,5.05,5.05,0,0,1-.77-1,1.29,1.29,0,0,1-.25-.74v-.29c-.1,0-.19-.15-.25-.46a9.64,9.64,0,0,1-.13-1.17c0-.48,0-1,0-1.48s0-1,.07-1.4a4.2,4.2,0,0,0,.11-1c0-.36,0-.65,0-.86a1,1,0,0,1,.17-.68,2,2,0,0,1,.31-.35,1,1,0,0,1,1.42.45,5.5,5.5,0,0,1,.31,2.77c0,.7-.05,1.37-.05,2a6.14,6.14,0,0,0,.19,1.65,1.6,1.6,0,0,0,.63,1c.12.07.17.22.13.44a2.31,2.31,0,0,1-.24.73,3.53,3.53,0,0,1-.41.66C659.3,151.84,659.17,151.92,659.06,151.91Z"/><path class="cls-9" d="M669.63,152.49a3,3,0,0,1-1.52-.14,2.77,2.77,0,0,1-1.24-.85,2.21,2.21,0,0,1-.48-1.44,6.1,6.1,0,0,1,.14-1.88,11.86,11.86,0,0,1,.69-2.2,7.7,7.7,0,0,1,1.06-1.87c.36-.42.71-.81,1.06-1.16a3.27,3.27,0,0,1,.95-.71,3.7,3.7,0,0,1,.91-.25,4.5,4.5,0,0,1,.75-.1,5.21,5.21,0,0,1,.93.35c.34.15.52.34.52.55l.13.13c.1,0,.22.13.35.38a3.72,3.72,0,0,1,.31.87,1.09,1.09,0,0,1-.06.78,2.89,2.89,0,0,1-.4,1c-.21.32-.38.48-.52.48H673q-.09,0-.09.15c0,.09-.09.13-.28.13a1.64,1.64,0,0,1-.56-.11.56.56,0,0,1-.37-.31,1.93,1.93,0,0,1,0-.35c0-.13.09-.37.16-.71a1.7,1.7,0,0,0,0-1c-.09-.17-.31-.18-.66,0a3.91,3.91,0,0,0-1.08.85,4.63,4.63,0,0,0-.75,1.36c-.22.58-.46,1.39-.73,2.42a1.74,1.74,0,0,0,0,1c.08.23.15.35.2.37a1.93,1.93,0,0,0,.8,0,2.33,2.33,0,0,0,.73-.22,5.33,5.33,0,0,0,.75-.46l.72-.54a.73.73,0,0,0,.24-.31.68.68,0,0,1,.32-.33A.67.67,0,0,1,673,148h.64a1.18,1.18,0,0,1,.45.26,1.85,1.85,0,0,1,.36.41c.08.13.06.23,0,.28s-.12,0-.13.13,0,.23-.23.48a7.66,7.66,0,0,1-.7.79,9.78,9.78,0,0,1-.8.72,1.22,1.22,0,0,1-.54.3c-.18,0-.26.06-.26.16s-.13.12-.39.26a7.06,7.06,0,0,1-.87.43A5.36,5.36,0,0,1,669.63,152.49Z"/><path class="cls-9" d="M678.72,152.67a.86.86,0,0,1-.9-.28,2.32,2.32,0,0,1-.55-1.19,4.27,4.27,0,0,1,.05-1.77,4.12,4.12,0,0,0,.21-.62,1.7,1.7,0,0,0,.08-.49c0-.17.11-.43.21-.77s.22-.7.35-1.07.24-.7.35-1l.22-.54c.07,0,.14-.06.19-.18a1,1,0,0,0,.08-.37,1.54,1.54,0,0,1,.09-.48,1,1,0,0,1,.2-.37,1,1,0,0,1,.06-.3.67.67,0,0,0,.07-.28.35.35,0,0,1,.07-.21.42.42,0,0,0,.06-.21c.12-.23.29-.59.49-1.09l.66-1.67c.23-.62.46-1.22.67-1.82s.38-1.1.51-1.52a3.39,3.39,0,0,0,.2-.75.56.56,0,0,1,.16-.39.46.46,0,0,1,.37-.19A.73.73,0,0,1,683,135l.39,0,.42.43a3.28,3.28,0,0,1,.41.42.85.85,0,0,1,.2.55,2.39,2.39,0,0,1-.09.66,7,7,0,0,1-.33.86c-.16.36-.41.89-.74,1.59q-.21.53-.45,1a1.9,1.9,0,0,0-.23.56,1,1,0,0,1-.1.32c-.06.14-.12.32-.19.53s-.17.35-.29.62-.25.56-.39.87-.24.57-.33.79a2.67,2.67,0,0,0-.13.38,1.48,1.48,0,0,1,0,.21.38.38,0,0,1-.12.21c-.07,0-.11.1-.13.29a6.29,6.29,0,0,1-.42,1.4l-.78,2.66a7.27,7.27,0,0,0-.36,1.95,2,2,0,0,1-.19,1A1.07,1.07,0,0,1,678.72,152.67Z"/><path class="cls-9" d="M683.7,151.93a1.24,1.24,0,0,1-.3-.63,2.62,2.62,0,0,1-.07-.83,1.75,1.75,0,0,1,.13-.62.62.62,0,0,1,.07-.33.36.36,0,0,0,0-.22.8.8,0,0,1,0-.37c0-.18.1-.34.16-.5s.26-.65.42-1.09.32-.91.47-1.37.29-.87.4-1.22.17-.55.18-.62.14-.32.43-.34.46,0,.76.26a3.46,3.46,0,0,1,.71.79.64.64,0,0,1,.16.56,4.37,4.37,0,0,1-.34,1,4.28,4.28,0,0,0-.25.7,5.52,5.52,0,0,0-.2.81,4.73,4.73,0,0,0-.25.59c-.1.25-.18.5-.25.72a2.44,2.44,0,0,0-.11.49c0,.24-.08.48-.13.72a1.68,1.68,0,0,1-.21.58c-.16.73-.43,1.15-.83,1.27A.93.93,0,0,1,683.7,151.93Zm2.84-10.56a1.35,1.35,0,0,1-.43-.52,1.42,1.42,0,0,1-.16-.54.48.48,0,0,1,0-.29,2.4,2.4,0,0,0,.46-.76,5.89,5.89,0,0,1,.44-.87l.14-.22a.37.37,0,0,1,.2-.18.92.92,0,0,1,.88,0,1.7,1.7,0,0,1,.83.66,1.68,1.68,0,0,1,.15,1,2.38,2.38,0,0,1-.57,1.1,1.71,1.71,0,0,1-1,.68A1.21,1.21,0,0,1,686.54,141.37Z"/><path class="cls-9" d="M699.14,151.75a2.68,2.68,0,0,1-1-.25,1.42,1.42,0,0,1-.62-.81,3.17,3.17,0,0,1-.09-.88,8.67,8.67,0,0,1,.06-.89,5.41,5.41,0,0,0,.05-.75v-.51a.67.67,0,0,0-.19-.48.58.58,0,0,0-.49,0,8.74,8.74,0,0,0-1.2.7,15,15,0,0,0-1.34,1q-.71.56-1.44,1.2a11.69,11.69,0,0,0-.86,1c-.18.27-.37.4-.56.4a.44.44,0,0,1-.45,0c-.16-.11-.33-.23-.5-.37s-.27-.32-.44-.54-.26-.37-.3-.44a3.57,3.57,0,0,1,.07-.76,3.35,3.35,0,0,1,.21-.71c.09-.25.21-.53.35-.85.07-.12.14-.25.2-.38a4.65,4.65,0,0,1,.23-.43,6.31,6.31,0,0,1,.3-.85l.38-.89c.19-.46.34-.85.45-1.19a9.52,9.52,0,0,0,.26-1.08s0-.09,0-.16a.23.23,0,0,1,.16-.13h0a1,1,0,0,1,.7,0,1.67,1.67,0,0,1,.77.3,1.48,1.48,0,0,1,.53,1.24,4.53,4.53,0,0,1-.79,2,7.9,7.9,0,0,1-.38.77,1.38,1.38,0,0,0-.2.49l.71-.54c.2-.15.36-.27.5-.36s.28-.25.58-.48.63-.49,1-.75.63-.47.84-.61a5.16,5.16,0,0,1,.74-.44,2.34,2.34,0,0,1,.55-.22,1.49,1.49,0,0,1,.65.19,4,4,0,0,1,.71.43.93.93,0,0,1,.38.46,1.78,1.78,0,0,1,0,.28c0,.11,0,.21,0,.3,0,.28,0,.62,0,1s0,.79,0,1.18a5,5,0,0,1-.11,1.07.48.48,0,0,1,.08.16s0,.07,0,.15l.12.37a3.27,3.27,0,0,0,.17.41q.1.22.24.57a1.08,1.08,0,0,1-.38.67A1.56,1.56,0,0,1,699.14,151.75Z"/><path class="cls-9" d="M706.52,157.65a1.89,1.89,0,0,1-1.54-.09,3.68,3.68,0,0,1-1.39-1.2c-.07-.11-.17-.29-.31-.57s-.28-.56-.41-.88a7,7,0,0,1-.29-.82c-.06-.22-.07-.36,0-.39a.53.53,0,0,1,.48-.34,1.69,1.69,0,0,1,.74,0c.24.06.38.14.42.25s.1.25.16.38a1.85,1.85,0,0,0,.19.37l.23.3a1.68,1.68,0,0,0,.63.62c.23.11.4.13.53,0a2.24,2.24,0,0,0,.67-.81,11.9,11.9,0,0,0,.59-1.62c.19-.65.36-1.21.5-1.68s.29-.91.45-1.32a2.26,2.26,0,0,1,.2-.54,1.43,1.43,0,0,1,.22-.33h.16a6.28,6.28,0,0,0-1,.74,3.91,3.91,0,0,1-1.08.66,1.2,1.2,0,0,1-.78.22,3.22,3.22,0,0,1-1.2-.14,2.66,2.66,0,0,1-.59-.44,1.85,1.85,0,0,1-.37-.51c-.1-.2-.2-.42-.31-.69a2.44,2.44,0,0,1,0-1.29,8.49,8.49,0,0,1,.48-1.79,7.34,7.34,0,0,1,.92-1.42,11.41,11.41,0,0,1,1.29-1.39,3.28,3.28,0,0,1,1.24-.77,3.79,3.79,0,0,1,.74-.25,1.8,1.8,0,0,1,1,0,1.72,1.72,0,0,1,.68.2c.16.1.41.3.77.59s.51.53.84.89a3.09,3.09,0,0,1,.63.9,1.32,1.32,0,0,1,.08.86,2,2,0,0,1-.37.81c-.16.22-.32.45-.5.68a2.39,2.39,0,0,0-.39.95,9.66,9.66,0,0,1-.51,1.78,18.6,18.6,0,0,0-.57,1.83l-.43,1.63a10.07,10.07,0,0,1-1.45,3.26A5,5,0,0,1,706.52,157.65Zm-.56-9.06a5.3,5.3,0,0,0,.91-.12,1.56,1.56,0,0,0,.73-.42,6,6,0,0,0,.79-1,4.65,4.65,0,0,0,.63-1.16,2.81,2.81,0,0,0,.13-1.18.66.66,0,0,0-.24-.56.86.86,0,0,0-.55-.08,1.87,1.87,0,0,0-.89.41,6.11,6.11,0,0,0-.93,1,4.67,4.67,0,0,0-.65,1.26,3.25,3.25,0,0,0-.23,1.27C705.69,148.32,705.79,148.52,706,148.59Z"/><path class="cls-9" d="M726.49,154.09c-.32-.08-.67-.19-1-.31a.23.23,0,0,0,0-.24.63.63,0,0,0-.39-.13,4.46,4.46,0,0,1-.81-.74,8,8,0,0,1-.74-1A7.05,7.05,0,0,1,723,151c-.13-.27-.12-.43,0-.49l.5-.22a2.29,2.29,0,0,1,.62-.32c.22-.07.4,0,.54.34a2.8,2.8,0,0,0,1.07,1,3.89,3.89,0,0,0,1.66.5,4.09,4.09,0,0,0,1.89-.31,1,1,0,0,0,.68-.81,1.94,1.94,0,0,0-.39-1.2.93.93,0,0,0-.23-.34,5.37,5.37,0,0,0-.42-.34q-.27-.21-.78-.69l-.72-.34-.7-.34a8,8,0,0,1-1.92-1.44,4.54,4.54,0,0,1-.69-.88,1.85,1.85,0,0,1-.53-1.1,4.64,4.64,0,0,1,0-1.48,4.93,4.93,0,0,1,.49-1.43,6.54,6.54,0,0,1,.58-1c.28-.39.6-.8,1-1.22s.69-.81,1-1.15a5.67,5.67,0,0,1,.78-.7l.69-.66a.14.14,0,0,1,.15-.13,5.71,5.71,0,0,1,.58-.26,3.16,3.16,0,0,0,1-.69,16.3,16.3,0,0,1,3-1.14,9,9,0,0,1,2-.31,3.06,3.06,0,0,1,1.29.36,4,4,0,0,1,1.1.83,2.1,2.1,0,0,1,.54,1.13,2.41,2.41,0,0,1-.17,1.52,6.84,6.84,0,0,1-1,1.66,4.3,4.3,0,0,1-1.28,1.14,1.51,1.51,0,0,1-1.25.08.74.74,0,0,1-.49-.73,1.15,1.15,0,0,1,.15-.51,6.36,6.36,0,0,1,.8-1,5.06,5.06,0,0,0,.9-1.77.49.49,0,0,0-.48-.6,1.37,1.37,0,0,0-.6,0c-.3,0-.62.12-1,.2a8,8,0,0,0-.9.25c-.25.09-.38.15-.38.18s0,.15-.11.14a1.27,1.27,0,0,0-.35.17l-.73.43-.83.54-.7.49a1.89,1.89,0,0,0-.31.26c0,.2-.24.37-.61.53a2.91,2.91,0,0,0-.92.9c-.26.38-.57.87-.92,1.47a4,4,0,0,0-.64,1.31,1.77,1.77,0,0,0,0,1.12,1.82,1.82,0,0,0,.73.83c.4.27.94.61,1.62,1s1.16.69,1.69,1.05a13.94,13.94,0,0,1,1.34,1.07,2.94,2.94,0,0,1,.71.86,2.14,2.14,0,0,1,.38,1,4.12,4.12,0,0,1,0,1.11,5,5,0,0,1-.17.89,3.92,3.92,0,0,1-.56.89c-.26.32-.49.47-.7.45a1.31,1.31,0,0,0-.44.19,1.29,1.29,0,0,1-.33.18,3.89,3.89,0,0,1-.87.25,13.89,13.89,0,0,1-1.5.24A9.06,9.06,0,0,1,726.49,154.09Z"/><path class="cls-9" d="M735.71,157.86a5.62,5.62,0,0,1-1.82.07,4.18,4.18,0,0,1-1.46-.46,1.45,1.45,0,0,1-.72-.77.83.83,0,0,1,.15-.89,1.37,1.37,0,0,1,.76-.35c.29,0,.47,0,.56.11l.67.4a1.72,1.72,0,0,0,1.15.13,2.38,2.38,0,0,0,1.08-.58,6.73,6.73,0,0,0,.84-1q.21-.31.72-1.14c.33-.54.68-1.14,1-1.8s.66-1.27.91-1.83l.18-.5a1.67,1.67,0,0,1,.26-.48c.11-.21.2-.4.28-.59a1.87,1.87,0,0,0,.14-.38,3,3,0,0,1,.24-.53c.14-.26.27-.52.4-.79s.22-.65.39-1.16a8.06,8.06,0,0,1,.53-1.24l.51-1a.88.88,0,0,1,.44-.47.74.74,0,0,1,.45-.18,1.06,1.06,0,0,1,.5.16,3.87,3.87,0,0,1,.51.62,1.17,1.17,0,0,1,.16.73,3.35,3.35,0,0,1-.44,1.18,8.72,8.72,0,0,1-.46,1.14,4,4,0,0,1-.38.68l-.3.69c-.12.26-.22.49-.31.7-.31.7-.58,1.28-.81,1.72s-.43.84-.61,1.21-.36.8-.55,1.29l-1.17,1.86a18.71,18.71,0,0,1-1.2,1.64c-.18.16-.43.37-.75.62a11.5,11.5,0,0,1-1,.71A2.69,2.69,0,0,1,735.71,157.86Zm3.3-6a1.58,1.58,0,0,1-.86-.53,5,5,0,0,1-.76-1,1.25,1.25,0,0,1-.26-.74v-.29c-.1,0-.18-.15-.25-.46a9.64,9.64,0,0,1-.13-1.17c0-.48,0-1,0-1.48s0-1,.06-1.4a4.2,4.2,0,0,0,.11-1c0-.36,0-.65,0-.86a1,1,0,0,1,.18-.68,2.09,2.09,0,0,1,.3-.35,1,1,0,0,1,1.42.45,5.6,5.6,0,0,1,.32,2.77q-.06,1-.06,2a6.57,6.57,0,0,0,.19,1.65,1.6,1.6,0,0,0,.63,1c.12.07.17.22.13.44a2.55,2.55,0,0,1-.23.73,4.14,4.14,0,0,1-.41.66C739.24,151.84,739.11,151.92,739,151.91Z"/><path class="cls-9" d="M747.78,152.54a4.25,4.25,0,0,1-1.31-.78q-.4-.4-.33-.72a.77.77,0,0,1,.19-.29.83.83,0,0,1,.59-.12,7.69,7.69,0,0,1,1.44.25l.58,0a3.05,3.05,0,0,0,.54-.08,1.8,1.8,0,0,0,.41-.13c.08,0,.11-.08.08-.14a.86.86,0,0,0-.19-.2.43.43,0,0,0-.24-.17.66.66,0,0,0-.23,0,.61.61,0,0,0-.23-.26c-.11-.09-.25-.19-.4-.29l-1.06-.85c-.31-.24-.44-.43-.37-.55V148c-.12,0-.24-.17-.34-.52a3,3,0,0,1-.16-.93,2.92,2.92,0,0,1,.22-1.06,4.86,4.86,0,0,1,.59-1,7.53,7.53,0,0,1,.72-.84c.33-.32.69-.63,1.07-.94a8.64,8.64,0,0,1,1.24-.83,7,7,0,0,1,1.48-.58,4.36,4.36,0,0,1,.85-.07,1.32,1.32,0,0,1,.68.13.48.48,0,0,1,.53.06,3.36,3.36,0,0,1,.63.54,2.88,2.88,0,0,1,.48.69c0,.21,0,.47,0,.78s0,.57-.06.8-.12.34-.24.34a.15.15,0,0,0-.13.16c0,.18-.13.38-.4.61a7.41,7.41,0,0,1-.95.55c-.3.14-.52.15-.68,0a2.11,2.11,0,0,1-.29-.2,1.25,1.25,0,0,1-.24-.27.81.81,0,0,1-.13-.34.5.5,0,0,1,.16-.29,4.23,4.23,0,0,0,.56-.63,2.08,2.08,0,0,0,.28-.52,1.2,1.2,0,0,0,.08-.35c0-.11,0-.17-.07-.2a.53.53,0,0,0-.27,0,1.82,1.82,0,0,0-.57.21,9.62,9.62,0,0,0-.91.51c-.31.21-.56.39-.74.54a1.49,1.49,0,0,1-.14.24.17.17,0,0,1-.15,0c0-.07,0-.06-.13,0a3.5,3.5,0,0,0-.31.37c-.13.16-.25.32-.37.5l-.29.42a1.5,1.5,0,0,1-.12.44.81.81,0,0,0-.07.41.86.86,0,0,0,.27.5c.16.15.38.36.68.6.62.46,1.08.82,1.39,1.08a6.4,6.4,0,0,1,.64.63,1.35,1.35,0,0,1,.24.48,1.37,1.37,0,0,1,.1,1.41,2.2,2.2,0,0,1-1.05.91,3.76,3.76,0,0,1-.92.25,7,7,0,0,1-1.39.1A3.32,3.32,0,0,1,747.78,152.54Z"/><path class="cls-9" d="M759.06,152.41a1.45,1.45,0,0,1-.64-.36,4.47,4.47,0,0,1-.62-.68,2.35,2.35,0,0,1-.35-.65.7.7,0,0,0-.13-.21c-.07,0-.11-.29-.12-.7a11.41,11.41,0,0,1,.06-1.38,11.6,11.6,0,0,1,.19-1.21c.09-.28.22-.67.39-1.15s.33-.92.45-1.3l.71-1.53-1-.29a.59.59,0,0,1-.3-.21.51.51,0,0,1-.12-.27,1.38,1.38,0,0,1,.23-.6c.16-.27.28-.4.35-.4a2.55,2.55,0,0,0,.49,0q.35,0,.69,0a1.73,1.73,0,0,0,.42-.05,1.23,1.23,0,0,0,.22-.15.51.51,0,0,0,.15-.27,3.45,3.45,0,0,1,.24-.45c.07-.11.17-.26.29-.47l.3-.58a7.65,7.65,0,0,1,.39-.66l.29-.45a1.41,1.41,0,0,1,.39-.45,1.59,1.59,0,0,1,.78-.3,1.07,1.07,0,0,1,.93.25,1,1,0,0,1,.24.5,1,1,0,0,1-.21.61,4.28,4.28,0,0,1-.49.8,6.11,6.11,0,0,0-.51.8c-.28.39-.34.61-.16.66a5.19,5.19,0,0,0,1.48-.1,1.33,1.33,0,0,1,1.1.15,1.14,1.14,0,0,1,.4.74c.05.42,0,.68-.13.77a3.4,3.4,0,0,1-1.22.13,8.43,8.43,0,0,1-1.08.12h-.65l-.45,0a1.19,1.19,0,0,0-.32,0,.49.49,0,0,0-.3.17,2.18,2.18,0,0,0-.2.33,2.27,2.27,0,0,0-.32.55,10.66,10.66,0,0,1-.52,1c-.25.73-.46,1.44-.62,2.12s-.31,1.35-.44,2a1.25,1.25,0,0,0,0,.73c.08.15.31.24.67.28a6.55,6.55,0,0,0,.85,0,4.26,4.26,0,0,0,.92-.14l.61-.28a6.27,6.27,0,0,0,.58-.3l.71-.42c.08-.14.21-.12.38.06a1.6,1.6,0,0,1,.35.6,2.57,2.57,0,0,1-.13.75c-.09.29-.41.59-1,.91a6.45,6.45,0,0,1-4.24.92Z"/><path class="cls-9" d="M772.31,151.85a4.07,4.07,0,0,1-1.67.52,3.77,3.77,0,0,1-1.65-.24,2.85,2.85,0,0,1-1.24-.91,3.87,3.87,0,0,1-.5-1.09,5,5,0,0,1-.08-2,8.31,8.31,0,0,1,.75-2.45,8.93,8.93,0,0,1,1.47-2.19,4.51,4.51,0,0,1,1.89-1.29,4.17,4.17,0,0,1,.75-.2,4.21,4.21,0,0,1,1,0,3.57,3.57,0,0,1,1.08.3,1.89,1.89,0,0,1,.68.49,2.24,2.24,0,0,1,.56.81,2.1,2.1,0,0,1,.1.77,5,5,0,0,1-.75,1.82,3.74,3.74,0,0,1-1.73,1.45,3.46,3.46,0,0,1-1,.23,6.07,6.07,0,0,1-1.66-.16c-.42-.08-.7,0-.83.14a1.7,1.7,0,0,0-.17,1,2.46,2.46,0,0,0,.22.83,1,1,0,0,0,.65.49,1.8,1.8,0,0,0,.87,0l.66-.27.41-.29.39-.32.33-.24a.9.9,0,0,1,.26-.13l.27,0a.82.82,0,0,1,.55.31,1.43,1.43,0,0,1,.34.56,1.26,1.26,0,0,1-.26.59,5.37,5.37,0,0,1-.7.79A5.73,5.73,0,0,1,772.31,151.85ZM772,146a3.49,3.49,0,0,0,.54-.37,5.37,5.37,0,0,0,.64-.62.9.9,0,0,0,.29-.51c0-.2-.13-.36-.38-.5a1.39,1.39,0,0,0-1-.08,1.27,1.27,0,0,0-.5.29,4.77,4.77,0,0,0-.58.54,6.23,6.23,0,0,0-.5.58,2.92,2.92,0,0,0-.29.43.74.74,0,0,0,.42.21,3.06,3.06,0,0,0,.7.08A3.91,3.91,0,0,0,772,146Z"/><path class="cls-9" d="M789.62,151.75a2.68,2.68,0,0,1-.58-.34,2.75,2.75,0,0,1-.7-.87,3.07,3.07,0,0,1-.27-1.51,5,5,0,0,1,.11-1.11q.11-.33-.09-.36c-.09,0-.26.06-.52.24a7.63,7.63,0,0,0-1,.84q-.63.59-1.53,1.53c-.21.17-.44.39-.7.64a2.7,2.7,0,0,1-.76.57.55.55,0,0,1-.67-.08l-.27-.24a1.15,1.15,0,0,1-.31-.42.59.59,0,0,1-.08-.45l.73-2.05c.22-.46.36-.79.44-1a1,1,0,0,0,.1-.4c0-.05,0-.07-.14-.05a1.13,1.13,0,0,0-.45.28,2.3,2.3,0,0,0-.39.4c-.07,0-.17.08-.28.22a2.94,2.94,0,0,1-.33.36l-.55.6-.85.91c-.22.21-.49.49-.79.84s-.56.67-.79.95-.37.42-.42.42a1.54,1.54,0,0,1-.86-.32,1.43,1.43,0,0,1-.51-.71,2,2,0,0,1,0-1.07c.09-.51.26-1.34.51-2.48.07-.27.13-.5.19-.69s.13-.39.2-.58.15-.41.25-.66.22-.54.38-.89a1.62,1.62,0,0,0,.11-.7c0-.22,0-.4,0-.54a.83.83,0,0,1,.25-.64,1.37,1.37,0,0,1,.56-.32.82.82,0,0,1,.5,0,1.22,1.22,0,0,1,1,.52,1.93,1.93,0,0,1,.28.87,1.48,1.48,0,0,1-.1.71c-.09.21-.16.39-.21.53l-.29.71c-.18.41-.3.7-.38.89a1.32,1.32,0,0,0-.13.36,1.24,1.24,0,0,0,0,.18s.1,0,.24-.08.31-.25.51-.44.39-.35.57-.49.65-.53,1-.8a12.55,12.55,0,0,1,1.07-.72,3.81,3.81,0,0,1,.87-.43,1.66,1.66,0,0,1,.83.45,2.24,2.24,0,0,1,.49.63,1.2,1.2,0,0,1,0,.72c-.06.21-.11.4-.15.58l-.1.39c-.06.19-.13.46-.24.79.21-.21.4-.39.58-.54s.35-.28.53-.41a9,9,0,0,1,2.09-1.28,1.09,1.09,0,0,1,1.33.47,1.34,1.34,0,0,1,.41.79,7.87,7.87,0,0,1,.09,1.34c0,.23,0,.48.07.76s.06.53.1.74a2.26,2.26,0,0,0,.12.4.76.76,0,0,0,.29.19,2.48,2.48,0,0,0,.4.15.78.78,0,0,1,.41.67.76.76,0,0,1-.39.75,2,2,0,0,1-.83.29A4.3,4.3,0,0,1,789.62,151.75Z"/><path class="cls-10" d="M520.66,96.6v2.87h8.92a2,2,0,0,1,2.19,2.2v17.62c0,4.46-4.28,5.41-8.44,3.38a1.38,1.38,0,0,1-.91-1.69,1.34,1.34,0,0,1,1.65-1c2.13.27,2.57-.1,2.57-1.55V117c-.88,1.18-2,1.08-3.11-.21a22.47,22.47,0,0,0-2.46-2.73,2.42,2.42,0,0,1-.41-.71v8c0,1.42-.91,2.2-2.53,2.2s-2.53-.78-2.53-2.2V108.79a4.31,4.31,0,0,1-.51.68c-1,1.11-2.43.94-3.34-.51-.68-1-1.49-2.13-2.16-3v8.58a1.85,1.85,0,0,1,.44-.24,22.13,22.13,0,0,0,3.31-2,1.4,1.4,0,0,1,1.82,0c.54.44.41,1.22.07,1.86a13.72,13.72,0,0,1-2.91,3.68,2.07,2.07,0,0,1-2.73.48v3.17c0,1.42-.91,2.19-2.53,2.19s-2.54-.77-2.54-2.19V101.67a2,2,0,0,1,2.2-2.2h8.85V96.6H504.93a1.36,1.36,0,0,1-1.52-1.48,1.38,1.38,0,0,1,1.52-1.49h26.41a1.49,1.49,0,1,1,0,3ZM515.6,107v-4.6H510a.39.39,0,0,0-.4.41v1.32a1.32,1.32,0,0,1,1.62-.31,15,15,0,0,1,3.51,2.23A2.86,2.86,0,0,1,515.6,107Zm5.06-4.6v5.31a2.51,2.51,0,0,1,.34-.51,12.91,12.91,0,0,0,2.06-2.5c.88-1.38,2-1.72,3.14-.67l.44.47v-1.69a.39.39,0,0,0-.4-.41Zm6,11.62V106.8a4.09,4.09,0,0,1-.74.78,11.26,11.26,0,0,1-3.28,2.06,1.36,1.36,0,0,1-1.82-.51,1,1,0,0,1-.14-.24v3.82a3.56,3.56,0,0,1,.17-.41,1.19,1.19,0,0,1,1.62-.54,13.32,13.32,0,0,1,3.72,1.93A2.13,2.13,0,0,1,526.64,114.06Z"/><path class="cls-10" d="M568.07,119.63c-1.35,1.66-3.14,1.59-4.76-.17a29.69,29.69,0,0,1-6.25-10.9v10.7c0,4.42-4.49,5.81-10,3.17a1.42,1.42,0,0,1-.88-1.75c.17-.68.67-1,1.76-.88,2.76.34,3.54,0,3.54-1.82V104.2c-1.69,7.26-5.81,13.68-11.14,16.78-.78.44-1.32.31-1.72-.3a1.29,1.29,0,0,1,.23-1.76c4.05-4.18,6.28-9.18,7.4-15.19a.37.37,0,0,0-.41-.44h-5.37a1.46,1.46,0,0,1,0-2.91h5.64a3.8,3.8,0,0,1,3.89-.77,2.74,2.74,0,0,1,1.48,1.31V94.71c0-1.79,1-2.67,2.77-2.67s2.77.88,2.77,2.67v3.85a36.7,36.7,0,0,0,1.82,5.27,44.56,44.56,0,0,0,3.55-4.56c1.08-1.55,2.43-1.59,4-.4,1.35,1,1.42,2.56.07,3.85a20.63,20.63,0,0,1-6.12,4,27.68,27.68,0,0,0,6.83,8.1C569,116.39,569.45,117.94,568.07,119.63Z"/><path class="cls-10" d="M602.33,96.8v24.62c0,1.69-.94,2.47-2.63,2.47s-2.63-.78-2.63-2.47V121H580.89v.57c0,1.69-.91,2.47-2.6,2.47s-2.67-.78-2.67-2.47V96.77a2,2,0,0,1,2.2-2.19h22.32A2,2,0,0,1,602.33,96.8ZM597.07,118V98a.39.39,0,0,0-.41-.4H581.3a.39.39,0,0,0-.41.4v20Zm-1.93-14.25v8.14a2,2,0,0,1-2.19,2.19h-7.9a2,2,0,0,1-2.2-2.19v-8.14a2,2,0,0,1,2.2-2.2H593A2,2,0,0,1,595.14,103.73Zm-4.73,1a.38.38,0,0,0-.4-.4h-2a.39.39,0,0,0-.4.4v6a.39.39,0,0,0,.4.4h2a.38.38,0,0,0,.4-.4Z"/><path class="cls-10" d="M639.14,122.5c-.88,1.59-2.54,1.89-4.13.78a19.22,19.22,0,0,1-4.18-4.22,20.7,20.7,0,0,1-6.72,4.66c-.81.34-1.42.17-1.72-.51a1.22,1.22,0,0,1-.14-.34A2.27,2.27,0,0,1,620,124c-1.62,0-2.5-.74-2.5-2.16v-7.87a30.08,30.08,0,0,1-4.83,2.54c-1.65.71-2.87.2-3.34-1.29s-.07-2.56,1.38-2.93V98c0-1.52.85-2.19,2.37-2.19s2.36.67,2.36,2.19v13.34c.71-.17,1.38-.34,2.06-.54V94.61c0-1.62.88-2.33,2.5-2.33s2.5.71,2.5,2.33v27.18a2.93,2.93,0,0,1,.44-.37,20.33,20.33,0,0,0,5.74-6.21,29.66,29.66,0,0,1-2.1-8.78,15,15,0,0,1-1.79,2.36,1.12,1.12,0,0,1-1.68.21,1.27,1.27,0,0,1-.34-1.73,43.34,43.34,0,0,0,2.7-12.52c.17-2.06,1.38-2.81,3.24-2.5s2.4,1.28,2.06,3.17a35.85,35.85,0,0,1-.91,3.71h8.37a1.46,1.46,0,1,1,0,2.91H637a30,30,0,0,1-3.27,13.07,21.78,21.78,0,0,0,4.25,3.44C639.64,119.56,640,120.92,639.14,122.5Zm-8.51-12a38.38,38.38,0,0,0,1.18-8.51h-3c-.07.2-.17.4-.23.57A23.21,23.21,0,0,0,630.63,110.55Z"/><path class="cls-10" d="M646.35,122.64c-.81.23-1.35.07-1.65-.58a1.19,1.19,0,0,1,.57-1.68,24.66,24.66,0,0,0,6.52-6c1.11-1.45,2.57-1.83,3.82-.78s1.21,2.37,0,3.61A22.6,22.6,0,0,1,646.35,122.64Zm17-11v8.27c0,4-4,5.13-9,2.8-.81-.37-1.08-.88-.87-1.55s.67-1,1.48-.85c2.63.31,3-.2,3-1.89v-6.11c-3,.3-6.05.54-9.05.68-1.76.1-2.71-.68-2.71-2.2s.82-2.33,2.57-2.26c1.15,0,2.26.07,3.38.07a39.16,39.16,0,0,0,6.75-3.72,64.58,64.58,0,0,1-7.56,1.08c-1.76.17-2.7-.61-2.7-2.09a2.08,2.08,0,0,1,2.43-2.26c.81,0,1.62.06,2.43.06a32.66,32.66,0,0,0,2.6-3.47c-2.5.1-4.9.1-7.23,0-1,0-1.55-.44-1.55-1.25s.34-1.22,1.52-1.32a105.64,105.64,0,0,0,20.23-3.54A2.07,2.07,0,0,1,672,93.7a2.05,2.05,0,0,1-1.82,2.77c-2.57.5-5,.84-7.3,1.11a42.19,42.19,0,0,1-5.37,4.09c1.83,0,3.65-.1,5.58-.17.7-.68,1.41-1.42,2.06-2.16,1.24-1.42,2.7-1.56,3.95-.51s1.45,2.37-.07,3.72a35,35,0,0,1-10,5.94c2.93-.07,5.94-.24,9.28-.44a17.33,17.33,0,0,0-.94-1.65,1.11,1.11,0,0,1,.27-1.63,1.27,1.27,0,0,1,1.72.07,21.47,21.47,0,0,1,4.49,4.49,2.18,2.18,0,0,1-.61,3.51c-1.31.82-2.56.41-3.24-1.24l-.51-1.22C667.73,110.82,665.64,111.22,663.34,111.6Zm10.94,10.13c-1.18,1.28-2.6,1.14-3.82-.34a66.64,66.64,0,0,0-5.87-6.22,1.16,1.16,0,0,1-.24-1.65,1.24,1.24,0,0,1,1.62-.37,34.81,34.81,0,0,1,7.94,4.73A2.39,2.39,0,0,1,674.28,121.73Z"/><path class="cls-10" d="M684.57,115.28a29.17,29.17,0,0,1,0,6.68c-.2,1.62-1.55,2.13-3,1.69a1.82,1.82,0,0,1-1.28-2.77,24.88,24.88,0,0,0,2-5.81,1.08,1.08,0,0,1,1.21-1C684.13,114.09,684.47,114.53,684.57,115.28Zm21.61,8c-4.62,0-5.47-.61-5.47-4.22v-11l-1,.2v1c0,6.35-1.62,12.19-8.55,14.86a1.09,1.09,0,0,1-1.58-.51A1.18,1.18,0,0,1,690,122c4.12-2.94,5-5.77,5-12.9v-.2c-.23,0-.5,0-.74.07-1.35.1-2.13-.68-2.16-2.2a1.85,1.85,0,0,1,2-2.16h.91a40.69,40.69,0,0,0,1.62-5.1h-3.92a2.73,2.73,0,0,1-.5-.06,2.67,2.67,0,0,1-.38,2.12,41.65,41.65,0,0,1-5.33,7.23c.81-.1,1.59-.17,2.36-.27l-.2-.64a1.36,1.36,0,0,1,.64-1.69,1.28,1.28,0,0,1,1.72.47,19.18,19.18,0,0,1,2.3,3.78,1.64,1.64,0,0,1-1,2.5,1.76,1.76,0,0,1-2.57-1.25c-.07-.2-.1-.44-.17-.64a29.64,29.64,0,0,1-6.52,2.4c-1.68.37-2.53-.27-2.76-1.89s.5-2.53,2.26-2.57H683a48.41,48.41,0,0,0,2.57-4.62,17.29,17.29,0,0,1-2.6.91c-1.69.4-2.73-.24-2.8-2a1.82,1.82,0,0,1,2-2.17,57.9,57.9,0,0,0,1.38-6.75,2.36,2.36,0,0,1,3.14-2.19,2.24,2.24,0,0,1,1.76,3.41,36.35,36.35,0,0,1-3.11,5.67H687c.2-.54.41-1,.61-1.55.67-1.73,1.85-2.2,3.34-1.63a3,3,0,0,1,.54.27,1.23,1.23,0,0,1,0-.33,1.31,1.31,0,0,1,1.38-1.49h5v-2c0-1.45,1-2.36,2.76-2.36s2.77.91,2.77,2.36v2H709a1.49,1.49,0,0,1,0,3h-7.16a32,32,0,0,1-3,5c2.12-.06,4.18-.16,6.18-.33-.31-.75-.58-1.42-.88-2.06a1.12,1.12,0,0,1,.37-1.62,1.26,1.26,0,0,1,1.69.16,31.78,31.78,0,0,1,4,5.75c.71,1.31.44,2.26-.88,2.9a1.84,1.84,0,0,1-2.83-1.15c-.17-.51-.34-1.05-.54-1.55-.24.1-.51.17-.78.27v10.57c0,1.15.24,1.38,1.25,1.38s1.32-.13,1.32-4.49c0-.91.5-1.28,1.15-1.28s1.21.27,1.35,1.28C711.28,121.89,710.54,123.28,706.18,123.28ZM687.64,122c-1.41.17-2.12-.64-2.09-2.09a40.77,40.77,0,0,0-.24-5.17,1,1,0,0,1,.82-1.28c.6-.17,1,0,1.41.74a20.68,20.68,0,0,1,1.83,5.3C689.71,121.05,689.1,121.89,687.64,122Zm2-4.15a32.74,32.74,0,0,0-1.29-3.79,1,1,0,0,1,.48-1.41c.5-.27.94-.11,1.48.44a14.34,14.34,0,0,1,2.57,3.61,1.74,1.74,0,1,1-3.24,1.15Z"/><path class="cls-11" d="M363.88,180.45h88.21c4.09,0,8.19.11,12.28,0h.17c.56,0,1.64-.2,1.93-.76s-.25-.74-.76-.74H377.5c-4.09,0-8.2-.1-12.29,0a1,1,0,0,1-.17,0c-.55,0-1.63.21-1.92.77s.25.73.76.73Z"/><rect class="cls-12" x="507.97" y="187.12" width="163.52" height="197.52" rx="35.6"/><path class="cls-11" d="M637,382.75h-87.7c-2.12,0-4.25.06-6.37,0a33.46,33.46,0,0,1-22.72-10.65,34.65,34.65,0,0,1-9.27-23.31V223.36a36.31,36.31,0,0,1,2.78-14.67,33.27,33.27,0,0,1,17.49-17.4A31,31,0,0,1,542.51,189h91.32a33.66,33.66,0,0,1,32.49,22,37.3,37.3,0,0,1,2.25,13.23V345.68c0,1.57,0,3.14,0,4.7a34.21,34.21,0,0,1-10.22,23.5,31.88,31.88,0,0,1-9.73,6.47,30.61,30.61,0,0,1-5.64,1.76c-.67.14-.53.12-1.22.23s-1.13.16-1.7.22a31,31,0,0,1-3.1.19c-1.35,0-3.09.38-3.8,1.69s.55,2.09,1.68,2.09a40.8,40.8,0,0,0,26.81-10,37.46,37.46,0,0,0,12.52-23.63,60.61,60.61,0,0,0,.25-7.13V231.2c0-7.5.36-14.95-2.41-22.11a37.35,37.35,0,0,0-17.66-19.63,39.67,39.67,0,0,0-18.15-4.22H545.94a44.71,44.71,0,0,0-16.59,2.87,38.92,38.92,0,0,0-20.15,18.08,37.61,37.61,0,0,0-4.14,17.4v111c0,4.92,0,9.84,0,14.76a37,37,0,0,0,9.65,25,38.16,38.16,0,0,0,24.31,12c2.54.24,5.11.17,7.65.17h88.16c1.34,0,3.09-.38,3.8-1.69S638.08,382.75,637,382.75Z"/><path class="cls-13" d="M657.13,277.18V346.7a23.07,23.07,0,0,1-23.06,23.07H545.4a23.07,23.07,0,0,1-23.07-23.07V277.18s24.9-15.58,67.4,0S657.13,277.18,657.13,277.18Z"/><path class="cls-3" d="M546.66,335.78c0,.1-.17.14-.39.14a1,1,0,0,1-.58-.18,1.21,1.21,0,0,1-.22-.27c0-.06,0-.17,0-.32s.18-.41.34-.79a3.9,3.9,0,0,1,.2-.7c.1-.23.17-.4.22-.5s.12-.36.24-.67.26-.66.42-1.05.31-.74.45-1.09.25-.6.32-.77c.17-.39.34-.79.51-1.22s.41-.95.71-1.6a.3.3,0,0,0,0-.3.36.36,0,0,0-.34-.16.56.56,0,0,1-.16-.34.25.25,0,0,1,.14-.26l1.33-.44a4.38,4.38,0,0,1,1.4-.1,3.82,3.82,0,0,1,1.35.4,2.91,2.91,0,0,1,1,.9,2,2,0,0,1,.35,1,1.9,1.9,0,0,1-.12.9,2.25,2.25,0,0,1-.44.67,8.67,8.67,0,0,1-.75.72,10.62,10.62,0,0,1-.88.66,5.48,5.48,0,0,1-.85.45c-.24.12-.51.23-.81.35s-.59.23-.87.32a2.76,2.76,0,0,1-.54.05,1.79,1.79,0,0,1-.48-.05L548,332c-.09.35-.26.86-.5,1.55S547,335,546.66,335.78Zm5.74.27a1,1,0,0,1-.39,0,1.19,1.19,0,0,1-.6-.23,9.11,9.11,0,0,1-1.27-.91,13.89,13.89,0,0,1-1.43-1.44,3.27,3.27,0,0,1-.46-.73c-.1-.24-.22-.54-.38-.91l-.2-.78.55-.36.63.52a7.12,7.12,0,0,0,.55,1,6.1,6.1,0,0,0,.63.82,7.44,7.44,0,0,0,.7.73,10.9,10.9,0,0,0,1,.82,5.11,5.11,0,0,0,.91.59c.06.05.07.14,0,.28a1.69,1.69,0,0,1-.12.4C552.48,336,552.43,336,552.4,336.05Zm-3.65-5.66a2.77,2.77,0,0,0,.73-.18l.85-.34c.28-.14.56-.28.83-.44a5.92,5.92,0,0,0,.75-.53,2.38,2.38,0,0,0,.54-.62,1.18,1.18,0,0,0,.16-.71,1,1,0,0,0-.11-.42,2,2,0,0,0-.3-.42.9.9,0,0,0-.37-.24,6.2,6.2,0,0,0-.88-.18.57.57,0,0,0-.44.09.79.79,0,0,0-.21.4,1,1,0,0,1-.12.28l-.28.58c-.11.24-.22.49-.32.76l-.62,1.25a5.15,5.15,0,0,0-.23.53A.23.23,0,0,0,548.75,330.39Z"/><path class="cls-3" d="M554.58,334.61a.6.6,0,0,0-.26-.23c-.13-.08-.19-.14-.19-.18a.46.46,0,0,0-.07-.18.7.7,0,0,0-.12-.18c-.05-.06,0-.2,0-.42s.2-.51.35-.83.32-.66.51-1a2.27,2.27,0,0,0,.23-.31,2,2,0,0,1,.17-.24.16.16,0,0,1,0-.11.12.12,0,0,1,.1-.05l.11-.23a1.33,1.33,0,0,1,.18-.23c.1-.12.23-.25.37-.39s.29-.27.44-.39a2.75,2.75,0,0,1,.37-.28,1.13,1.13,0,0,1,.63-.19.92.92,0,0,1,.56.21l.19.17.35.29.34.29.53.48-.24.72a1.93,1.93,0,0,0-.1,1,2.08,2.08,0,0,0,.27.75.56.56,0,0,0,.2.25.86.86,0,0,0,.32.11.47.47,0,0,1,.22.09.28.28,0,0,1,.1.23.82.82,0,0,1-.12.5.53.53,0,0,1-.27.18,2,2,0,0,1-.91-.1,1.6,1.6,0,0,1-.78-.82,1.82,1.82,0,0,1-.15-.33,1.68,1.68,0,0,1-.11-.31l-.15.18-.18.2a6.23,6.23,0,0,1-1.76,1.35A1.27,1.27,0,0,1,554.58,334.61Zm1.11-1.31a4.35,4.35,0,0,0,.58-.41l.81-.69a4,4,0,0,0,.62-.71L558,331a1.66,1.66,0,0,0-.26-.44.42.42,0,0,0-.23-.1.71.71,0,0,0-.45.24,4.49,4.49,0,0,0-.59.69c-.21.31-.46.69-.73,1.14a5.69,5.69,0,0,0-.39.91A.6.6,0,0,0,555.69,333.3Z"/><path class="cls-3" d="M561.44,334.67a.76.76,0,0,1-.16-.35,1.44,1.44,0,0,1,0-.46.81.81,0,0,1,.07-.33.36.36,0,0,1,0-.19.17.17,0,0,0,0-.12.41.41,0,0,1,0-.2l.09-.28c.06-.15.14-.35.23-.6l.26-.75c.08-.25.16-.47.21-.66l.11-.34c0-.12.07-.18.23-.19s.25,0,.42.15a1.75,1.75,0,0,1,.39.43.35.35,0,0,1,.08.3,2.39,2.39,0,0,1-.18.54,2.1,2.1,0,0,0-.14.38c-.05.18-.09.33-.11.44s-.08.19-.14.33-.1.27-.13.39a1.41,1.41,0,0,0-.06.27c0,.13,0,.26-.07.4a1.07,1.07,0,0,1-.12.32c-.09.39-.24.62-.46.69A.52.52,0,0,1,561.44,334.67Zm1.56-5.8a.77.77,0,0,1-.23-.28.64.64,0,0,1-.09-.3.23.23,0,0,1,0-.16,1.2,1.2,0,0,0,.25-.42,4.12,4.12,0,0,1,.24-.47,1.05,1.05,0,0,0,.08-.13.22.22,0,0,1,.11-.09.51.51,0,0,1,.48,0,1,1,0,0,1,.46.37.91.91,0,0,1,.08.56,1.47,1.47,0,0,1-.31.61,1,1,0,0,1-.55.37A.65.65,0,0,1,563,328.87Z"/><path class="cls-3" d="M569.91,334.57a1.4,1.4,0,0,1-.52-.14.76.76,0,0,1-.34-.44,1.6,1.6,0,0,1,0-.49,3.91,3.91,0,0,1,0-.49,3.43,3.43,0,0,0,0-.41v-.27c0-.15-.06-.24-.11-.27s-.14,0-.27,0a5.15,5.15,0,0,0-.65.38c-.24.16-.48.34-.74.55l-.79.66a6.62,6.62,0,0,0-.47.56c-.1.15-.2.22-.31.22a.21.21,0,0,1-.24,0l-.28-.2-.24-.3a1.85,1.85,0,0,1-.16-.24,2.54,2.54,0,0,1,0-.41,2.25,2.25,0,0,1,.12-.4c0-.13.12-.28.19-.46a1,1,0,0,0,.11-.21,2.68,2.68,0,0,0,.12-.24c0-.13.1-.28.17-.46s.14-.34.21-.49.19-.47.25-.65.1-.38.14-.59c0,0,0,0,0-.09a.13.13,0,0,1,.09-.07h0a.5.5,0,0,1,.38,0,1,1,0,0,1,.43.16.83.83,0,0,1,.29.68,2.42,2.42,0,0,1-.43,1.1c-.07.16-.14.3-.21.43a.63.63,0,0,0-.11.26l.39-.29.27-.2.32-.27.54-.41.46-.33a2.34,2.34,0,0,1,.4-.24,1.18,1.18,0,0,1,.31-.12.82.82,0,0,1,.35.1,2.55,2.55,0,0,1,.39.24.51.51,0,0,1,.21.25.86.86,0,0,1,0,.15,1.28,1.28,0,0,0,0,.17c0,.15,0,.34,0,.56s0,.43,0,.65a2.58,2.58,0,0,1-.06.58.41.41,0,0,1,.05.09s0,0,0,.09l.06.2.1.22.13.31a.57.57,0,0,1-.21.37A.89.89,0,0,1,569.91,334.57Z"/><path class="cls-3" d="M573,334.48c-.15,0-.29-.11-.44-.33a2.57,2.57,0,0,1-.34-.8,3,3,0,0,1-.09-.94,3.78,3.78,0,0,1,.05-.74c0-.19.07-.38.11-.56a.6.6,0,0,0,0-.14.89.89,0,0,1,0-.19,3.72,3.72,0,0,1,.09-.43,3.58,3.58,0,0,1,.12-.41,1.43,1.43,0,0,1,.11-.22.78.78,0,0,1,.39-.28.6.6,0,0,1,.4.05.41.41,0,0,1,.21.31c.06,0,.09.15.09.32a2.3,2.3,0,0,1,0,.52.93.93,0,0,1-.13.39,2.14,2.14,0,0,0-.07.37c0,.2-.05.41-.07.64a4,4,0,0,1-.08.53c0,.17,0,.28,0,.33s.15,0,.28-.13a4.45,4.45,0,0,0,.56-.71c.19-.28.34-.51.43-.67s.16-.32.22-.45l.18-.48a2.55,2.55,0,0,1,.13-.37.86.86,0,0,1,.13-.21.4.4,0,0,1,.42-.19.92.92,0,0,1,.44.15.71.71,0,0,1,.21.47,1.1,1.1,0,0,1-.13.64,4.15,4.15,0,0,0-.23.55,5,5,0,0,0-.17.64,2.36,2.36,0,0,0-.07.55c0,.19,0,.3.08.34a.39.39,0,0,0,.2.05.51.51,0,0,0,.33-.13,4.12,4.12,0,0,0,.46-.44,2.56,2.56,0,0,0,.32-.39,5.85,5.85,0,0,0,.37-.55q.18-.29.3-.51a1.09,1.09,0,0,0,.13-.28.45.45,0,0,1,.13-.25l.13-.18a.74.74,0,0,1,.2-.14.44.44,0,0,1,.26,0,.49.49,0,0,1,.24.16c.05,0,.09.13.11.28a2,2,0,0,1,0,.4c0,.1-.07.25-.13.43s-.12.37-.18.54a1.16,1.16,0,0,1-.17.34l-.2.21a2.6,2.6,0,0,0-.26.32,6,6,0,0,1-.52.57l-.28.24a2.23,2.23,0,0,1-.69.49,2,2,0,0,1-.74.2.92.92,0,0,1-.55-.12.83.83,0,0,1-.44-.78.94.94,0,0,0-.08-.31l-.15,0a.41.41,0,0,0-.19.2,1.79,1.79,0,0,1-.44.5,3.83,3.83,0,0,1-.63.42A1.28,1.28,0,0,1,573,334.48Z"/><path class="cls-3" d="M580.56,334.61a.52.52,0,0,0-.25-.23c-.13-.08-.19-.14-.19-.18a.46.46,0,0,0-.07-.18.7.7,0,0,0-.12-.18c0-.06,0-.2,0-.42s.2-.51.35-.83.32-.66.51-1a2.27,2.27,0,0,0,.23-.31,1.27,1.27,0,0,1,.17-.24.15.15,0,0,1,0-.11.16.16,0,0,1,.1-.05l.12-.23a1.33,1.33,0,0,1,.18-.23A4.26,4.26,0,0,1,582,330a5.34,5.34,0,0,1,.44-.39,2.75,2.75,0,0,1,.37-.28,1.13,1.13,0,0,1,.63-.19.89.89,0,0,1,.55.21l.2.17.35.29.34.29.53.48-.25.72a2.16,2.16,0,0,0-.1,1,2.3,2.3,0,0,0,.28.75.62.62,0,0,0,.19.25.85.85,0,0,0,.33.11.51.51,0,0,1,.22.09.28.28,0,0,1,.1.23.75.75,0,0,1-.13.5.48.48,0,0,1-.26.18,2,2,0,0,1-.91-.1,1.6,1.6,0,0,1-.78-.82,2.58,2.58,0,0,1-.16-.33,3.23,3.23,0,0,1-.11-.31,1,1,0,0,1-.15.18l-.18.2a6.22,6.22,0,0,1-1.75,1.35A1.29,1.29,0,0,1,580.56,334.61Zm1.12-1.31a6.23,6.23,0,0,0,.58-.41l.81-.69a4.5,4.5,0,0,0,.62-.71L584,331a1.4,1.4,0,0,0-.27-.44.37.37,0,0,0-.23-.1.72.72,0,0,0-.44.24,4.49,4.49,0,0,0-.59.69c-.22.31-.46.69-.73,1.14a4.9,4.9,0,0,0-.39.91A.62.62,0,0,0,581.68,333.3Z"/><path class="cls-3" d="M588.41,334.93a.77.77,0,0,1-.34-.2,2,2,0,0,1-.34-.37,1.34,1.34,0,0,1-.2-.36.2.2,0,0,0-.07-.11s-.06-.16-.07-.39a7.18,7.18,0,0,1,0-.76,5.24,5.24,0,0,1,.1-.66c.05-.15.12-.36.22-.63s.18-.5.24-.71l.39-.84-.57-.16a.37.37,0,0,1-.24-.26.71.71,0,0,1,.14-.33c.08-.15.14-.22.18-.22h.65l.23,0,.12-.08a.27.27,0,0,0,.09-.15,1.14,1.14,0,0,1,.13-.25l.16-.26.16-.31.21-.37c.05-.06.1-.15.16-.24a.81.81,0,0,1,.64-.41.6.6,0,0,1,.52.13.64.64,0,0,1,.13.28.53.53,0,0,1-.12.33,2.16,2.16,0,0,1-.27.44,3.7,3.7,0,0,0-.28.44c-.15.21-.18.33-.08.36a2.82,2.82,0,0,0,.8-.05.76.76,0,0,1,.61.08.6.6,0,0,1,.22.41c0,.23,0,.37-.07.42a2,2,0,0,1-.67.07,3.56,3.56,0,0,1-.59.06H590l-.17,0a.29.29,0,0,0-.17.1,1.18,1.18,0,0,0-.11.18,2.33,2.33,0,0,0-.17.3,5.94,5.94,0,0,1-.29.54c-.13.4-.25.79-.34,1.16s-.17.74-.24,1.11a.67.67,0,0,0,0,.39.44.44,0,0,0,.37.15,3.59,3.59,0,0,0,.47,0,2.75,2.75,0,0,0,.5-.08l.33-.15a3.1,3.1,0,0,0,.32-.17l.39-.23c0-.08.12-.07.21,0a.91.91,0,0,1,.2.32,1.4,1.4,0,0,1-.08.41c0,.16-.22.33-.53.5a3.16,3.16,0,0,1-1.3.49A3.62,3.62,0,0,1,588.41,334.93Z"/><path class="cls-3" d="M595.68,334.62a2.16,2.16,0,0,1-.91.29,2.1,2.1,0,0,1-.91-.13,1.72,1.72,0,0,1-.68-.5,2.47,2.47,0,0,1-.27-.6,2.81,2.81,0,0,1,0-1.12,4.47,4.47,0,0,1,.42-1.35,4.74,4.74,0,0,1,.8-1.2,2.58,2.58,0,0,1,1-.71,2.73,2.73,0,0,1,.41-.1,2,2,0,0,1,.56,0,1.77,1.77,0,0,1,.59.17,1.19,1.19,0,0,1,.38.26,1.35,1.35,0,0,1,.3.45,1,1,0,0,1,.06.42,2.82,2.82,0,0,1-.41,1,2.11,2.11,0,0,1-1,.79,2,2,0,0,1-.58.13,3.66,3.66,0,0,1-.91-.08c-.23-.05-.38,0-.45.07a.86.86,0,0,0-.1.56,1.55,1.55,0,0,0,.12.46.5.5,0,0,0,.36.26,1.06,1.06,0,0,0,.47,0,2.87,2.87,0,0,0,.37-.15l.22-.16.22-.17.18-.13a.34.34,0,0,1,.14-.08h.15a.52.52,0,0,1,.3.17.81.81,0,0,1,.19.31.66.66,0,0,1-.15.32,2.42,2.42,0,0,1-.38.44A3,3,0,0,1,595.68,334.62Zm-.18-3.22a2.22,2.22,0,0,0,.29-.2,3.89,3.89,0,0,0,.36-.34.59.59,0,0,0,.16-.28c0-.11-.08-.2-.21-.28a.77.77,0,0,0-.55,0,.81.81,0,0,0-.27.16,2.8,2.8,0,0,0-.32.29,2.42,2.42,0,0,0-.27.32,1.4,1.4,0,0,0-.16.24.41.41,0,0,0,.23.12,2.11,2.11,0,0,0,.38,0A1.86,1.86,0,0,0,595.5,331.4Z"/><path class="cls-3" d="M598.72,334.52a2.16,2.16,0,0,1-.28-.26.5.5,0,0,1-.11-.45c0-.27.07-.5.11-.71s.11-.45.18-.72c0-.11.07-.31.15-.59s.18-.58.29-.91.24-.64.37-.93a3.62,3.62,0,0,1,.33-.66.65.65,0,0,1,.47-.14.56.56,0,0,1,.42.11.47.47,0,0,1,.11.46,4.42,4.42,0,0,1-.41,1c-.05.12-.11.24-.18.37a2.73,2.73,0,0,0-.15.32c0,.08,0,.12,0,.11a1.41,1.41,0,0,1,.32-.37,5.06,5.06,0,0,1,.49-.41c.17-.14.33-.26.49-.37l.32-.2a.89.89,0,0,1,.26-.12,1,1,0,0,0,.21-.08,1.3,1.3,0,0,1,.73-.12c.27,0,.43.1.49.25a.38.38,0,0,0,.17.23s.06,0,.07.09-.06.16-.19.29a.69.69,0,0,1-.43.2,1.14,1.14,0,0,0-.33.07l-.35.14q-.54.33-1,.57a3.64,3.64,0,0,0-.9.75l-.22.22a1.27,1.27,0,0,0-.23.29.69.69,0,0,0-.14.32c-.05.16-.09.32-.13.46s-.05.24-.05.27a1.33,1.33,0,0,1-.18.41.86.86,0,0,1-.34.29C599,334.73,598.87,334.68,598.72,334.52Z"/><path class="cls-3" d="M610.51,327.18a1,1,0,0,1-.8-.15.42.42,0,0,1-.15-.43.59.59,0,0,1,.21-.3,1.52,1.52,0,0,1,.61-.2l.41-.08.49-.08.79-.1.64-.08.84-.06,1-.07.3,0,.57.07a1.84,1.84,0,0,1,.44.11,1,1,0,0,1,.54.26.84.84,0,0,1,.26.43.41.41,0,0,1,0,.27.34.34,0,0,1-.16.15l-.54.16a.58.58,0,0,1-.41,0,1.09,1.09,0,0,0-.17-.13,1,1,0,0,0-.32-.1l-.7-.06a6.32,6.32,0,0,1-.71,0c-.2,0-.3,0-.3.07l-.85.05-.71.07-.41,0-.5,0A2.35,2.35,0,0,0,610.51,327.18Zm-.13,8.5a.46.46,0,0,1-.43-.25.7.7,0,0,1-.16-.43,3.6,3.6,0,0,1,.13-.67c.08-.29.16-.58.26-.88s.18-.53.26-.71.07-.29.11-.41l.06-.24a1.21,1.21,0,0,0,.14-.3,4.42,4.42,0,0,0,.15-.48c0-.07.06-.22.13-.44s.14-.47.23-.76l.27-.85.24-.74c.07-.21.11-.35.13-.41a1.54,1.54,0,0,0,.17-.34l.08-.21a.25.25,0,0,0,.1-.16.86.86,0,0,0,0-.15.14.14,0,0,1,0-.11.13.13,0,0,0,.05-.11s.07,0,.07,0,0,0,.09,0l.07-.49,1.29,0c0,.12,0,.26-.09.43a2.8,2.8,0,0,1-.27.67,3.17,3.17,0,0,1-.17.52.75.75,0,0,0-.08.3,1.4,1.4,0,0,0-.12.29c-.06.18-.14.39-.22.64l-.24.75c-.08.25-.16.47-.22.66s-.1.3-.12.35a4.27,4.27,0,0,0-.26.68c-.1.3-.24.7-.44,1.22-.07.15-.17.38-.28.69s-.2.59-.27.84a5.13,5.13,0,0,1-.28.81c-.08.16-.15.26-.22.29A.57.57,0,0,1,610.38,335.68Z"/><path class="cls-3" d="M615,334.61a.6.6,0,0,0-.26-.23c-.12-.08-.19-.14-.19-.18a.59.59,0,0,0-.06-.18,1.06,1.06,0,0,0-.13-.18c-.05-.06,0-.2,0-.42a6.67,6.67,0,0,1,.34-.83c.16-.33.33-.66.51-1a2.27,2.27,0,0,0,.23-.31,2,2,0,0,1,.17-.24.16.16,0,0,1,.05-.11.14.14,0,0,1,.1-.05l.11-.23a1.33,1.33,0,0,1,.18-.23c.1-.12.23-.25.37-.39s.29-.27.44-.39a3.59,3.59,0,0,1,.37-.28,1.13,1.13,0,0,1,.63-.19.92.92,0,0,1,.56.21l.19.17.35.29.34.29.53.48-.24.72a1.93,1.93,0,0,0-.1,1,2.29,2.29,0,0,0,.27.75.56.56,0,0,0,.2.25.86.86,0,0,0,.32.11.47.47,0,0,1,.22.09.25.25,0,0,1,.1.23.82.82,0,0,1-.12.5.5.5,0,0,1-.27.18,2,2,0,0,1-.91-.1,1.6,1.6,0,0,1-.78-.82,1.82,1.82,0,0,1-.15-.33,1.68,1.68,0,0,1-.11-.31l-.15.18-.18.2a6.23,6.23,0,0,1-1.76,1.35A1.27,1.27,0,0,1,615,334.61Zm1.11-1.31a4.35,4.35,0,0,0,.58-.41l.81-.69a4,4,0,0,0,.62-.71l.32-.52a1.66,1.66,0,0,0-.26-.44.42.42,0,0,0-.23-.1.71.71,0,0,0-.45.24,5.13,5.13,0,0,0-.59.69c-.21.31-.46.69-.73,1.14a5.69,5.69,0,0,0-.39.91A.6.6,0,0,0,616.09,333.3Z"/><path class="cls-3" d="M626.76,334.57a1.52,1.52,0,0,1-.53-.14.8.8,0,0,1-.34-.44,2,2,0,0,1,0-.49c0-.17,0-.33,0-.49s0-.3,0-.41v-.27c0-.15,0-.24-.1-.27s-.15,0-.27,0a6,6,0,0,0-.66.38c-.23.16-.48.34-.74.55l-.78.66a6.62,6.62,0,0,0-.47.56.41.41,0,0,1-.31.22.23.23,0,0,1-.25,0,2.34,2.34,0,0,1-.27-.2l-.24-.3a2.46,2.46,0,0,1-.17-.24,1.73,1.73,0,0,1,0-.41,2.19,2.19,0,0,1,.11-.4l.2-.46a2,2,0,0,0,.11-.21,2.67,2.67,0,0,1,.12-.24,3.94,3.94,0,0,1,.17-.46c.07-.17.14-.34.21-.49s.18-.47.24-.65a4.61,4.61,0,0,0,.15-.59.1.1,0,0,1,0-.09.13.13,0,0,1,.09-.07h0a.49.49,0,0,1,.38,0,1,1,0,0,1,.43.16.82.82,0,0,1,.28.68,2.42,2.42,0,0,1-.43,1.1c-.07.16-.14.3-.21.43a.83.83,0,0,0-.11.26l.39-.29.28-.2.31-.27.54-.41.46-.33a2.47,2.47,0,0,1,.41-.24,1.05,1.05,0,0,1,.3-.12.86.86,0,0,1,.36.1,3,3,0,0,1,.38.24c.12.09.2.17.21.25a.86.86,0,0,1,0,.15,1.09,1.09,0,0,0,0,.17,4.88,4.88,0,0,0,0,.56c0,.21,0,.43,0,.65a2.58,2.58,0,0,1-.06.58.36.36,0,0,1,0,.09s0,0,0,.09,0,.13.07.2a1.28,1.28,0,0,0,.09.22c0,.08.08.19.13.31a.57.57,0,0,1-.21.37A.92.92,0,0,1,626.76,334.57Z"/><path class="cls-3" d="M629.56,335a.74.74,0,0,1-.3-.23,2,2,0,0,1-.33-.44.8.8,0,0,1-.15-.39c.05-.11.11-.3.2-.57s.17-.57.28-.91a1.59,1.59,0,0,0,.18-.37c0-.14.08-.26.12-.38s.16-.37.26-.59.19-.45.28-.68.18-.44.26-.61l.34-.76.27-.64.3-.71c.14-.3.27-.59.39-.89s.23-.55.32-.79a3.65,3.65,0,0,0,.17-.49.19.19,0,0,1,0-.16.16.16,0,0,1,.11-.07.58.58,0,0,1,.23-.06h.22a.62.62,0,0,1,.36.28.79.79,0,0,1,.18.43,3.31,3.31,0,0,1-.23.86,14.4,14.4,0,0,1-.64,1.48c-.34.72-.59,1.28-.76,1.68s-.28.67-.34.83a.77.77,0,0,0-.07.32,2,2,0,0,0,.46-.24l.36-.26a4.41,4.41,0,0,1,.4-.29,1,1,0,0,1,.31-.16l.2-.15.25-.16c.18-.13.33-.17.43-.12a.65.65,0,0,1,.29.24.45.45,0,0,1,.12.4q0,.21-.45.54c-.21.15-.44.3-.68.44l-.66.37a2.1,2.1,0,0,0-.42.26l.37.55c.08.15.17.35.29.58s.2.41.26.5a.79.79,0,0,0,.33.31.68.68,0,0,0,.49-.05.57.57,0,0,1,.37,0,.58.58,0,0,1,.26.21.64.64,0,0,1,0,.23c0,.08-.06.17-.18.28a6.66,6.66,0,0,1-.79.46.67.67,0,0,1-.73,0,4,4,0,0,1-.57-.53c-.18-.2-.38-.44-.6-.73a.72.72,0,0,0-.09-.24,1.05,1.05,0,0,0-.12-.22,1.8,1.8,0,0,0-.18-.3,1.16,1.16,0,0,0-.11-.27.27.27,0,0,0-.17-.11.92.92,0,0,0-.13.14,1.86,1.86,0,0,0-.14.25l-.18.43a4.56,4.56,0,0,0-.14.44,3,3,0,0,0-.07.58.54.54,0,0,1-.13.34A.46.46,0,0,1,629.56,335Z"/><path class="cls-3" d="M569.94,300.61v1.63H575a1.13,1.13,0,0,1,1.25,1.26v10c0,2.54-2.44,3.08-4.81,1.92a.78.78,0,0,1-.51-1,.76.76,0,0,1,.94-.56c1.21.16,1.46-.06,1.46-.88v-.85c-.5.67-1.15.62-1.77-.11a12.12,12.12,0,0,0-1.41-1.56,1.44,1.44,0,0,1-.23-.41v4.58c0,.81-.52,1.25-1.44,1.25s-1.44-.44-1.44-1.25v-7.16a3.27,3.27,0,0,1-.29.39,1.13,1.13,0,0,1-1.91-.29c-.38-.58-.84-1.21-1.23-1.69v4.89a1.23,1.23,0,0,1,.25-.14,12.93,12.93,0,0,0,1.89-1.13.79.79,0,0,1,1,0c.31.25.23.69,0,1.05a8.06,8.06,0,0,1-1.66,2.1,1.18,1.18,0,0,1-1.56.27v1.81c0,.81-.52,1.25-1.44,1.25s-1.44-.44-1.44-1.25V303.5a1.13,1.13,0,0,1,1.25-1.26h5v-1.63H561a.85.85,0,1,1,0-1.69h15a.77.77,0,0,1,.87.84.79.79,0,0,1-.87.85Zm-2.88,5.94v-2.61h-3.2a.22.22,0,0,0-.23.23v.75a.75.75,0,0,1,.93-.17,8.42,8.42,0,0,1,2,1.27A1.65,1.65,0,0,1,567.06,306.55Zm2.88-2.61v3a1.26,1.26,0,0,1,.2-.29,7.36,7.36,0,0,0,1.17-1.42c.5-.79,1.14-1,1.79-.39l.25.27v-1a.22.22,0,0,0-.23-.23Zm3.41,6.62v-4.14a2.44,2.44,0,0,1-.42.44,6.82,6.82,0,0,1-1.87,1.18.78.78,0,0,1-1-.29.5.5,0,0,1-.08-.14v2.18a.94.94,0,0,1,.1-.23.66.66,0,0,1,.92-.31,7.26,7.26,0,0,1,2.12,1.1A1.09,1.09,0,0,1,573.35,310.56Z"/><path class="cls-3" d="M560.19,318a3.2,3.2,0,0,1-3.44-3.25V303.5a3.5,3.5,0,0,1,.34-1.55,2.8,2.8,0,0,1-1-2.19,2.76,2.76,0,0,1,2.87-2.84h15a2.76,2.76,0,0,1,2.87,2.84,2.81,2.81,0,0,1-1,2.18,3.54,3.54,0,0,1,.34,1.56v10a4.29,4.29,0,0,1-2,3.81,5.9,5.9,0,0,1-5.63,0,3.73,3.73,0,0,1-2.18.65,3.3,3.3,0,0,1-3.14-1.82A3.28,3.28,0,0,1,560.19,318Z"/><path class="cls-3" d="M597.25,315.19c-.29.93-1.08,1.14-2,.76a7.07,7.07,0,0,1-3.58-3.55c-1,1.91-3,3.16-5.93,3.7a.65.65,0,0,1-.86-.48c-.12-.41.06-.66.5-.85a6.61,6.61,0,0,0,3.67-3.06h-2.83a.79.79,0,0,1,0-1.58h3.31a5.25,5.25,0,0,0,.08-.59h-2.42a.77.77,0,0,1,0-1.54h2.48v-.6h-3a.72.72,0,0,1-.79-.73l0,0a14.34,14.34,0,0,1-1.29,1.11v5.91c0,2.33-2,3-4.27,1.93a.66.66,0,0,1-.39-.87c.1-.35.35-.48.77-.46.89.06,1-.16,1-.91V309.6h0a1.17,1.17,0,0,1-1.84-.65,1.21,1.21,0,0,1,.88-1.69c.35-.1.68-.22,1-.33v-3.06h-.79a.74.74,0,0,1-.8-.83.71.71,0,0,1,.8-.79h.79v-3c0-.81.5-1.23,1.43-1.23s1.42.42,1.42,1.23v3h.17a.73.73,0,0,1,.83.79.76.76,0,0,1-.83.83h-.17v1.87a3.61,3.61,0,0,0,.44-.22.73.73,0,0,1,1,.14.77.77,0,0,1,.16.31.85.85,0,0,1,.52-.16h1.73c0-.05-.06-.09-.08-.15a7.75,7.75,0,0,0-.65-1.44.7.7,0,0,1-.06-.62h-1.06a.79.79,0,1,1,0-1.58h.48a1.21,1.21,0,0,1-.44-.63c-.21-.62-.44-1.18-.67-1.7a.55.55,0,0,1,.21-.8.62.62,0,0,1,.85.09,7.24,7.24,0,0,1,1.36,1.46.93.93,0,0,1-.31,1.54s0,0-.07,0h.77v-2.88c0-.68.4-1,1.13-1s1.14.36,1.14,1V302h.57v-2.88c0-.68.41-1,1.14-1s1.14.36,1.14,1V302h.48a.67.67,0,0,1-.39-.92,7.51,7.51,0,0,0,.5-1.52c.23-.79.73-1.08,1.46-.75s.85,1,.27,1.77a5.47,5.47,0,0,1-1.11,1.25,1.11,1.11,0,0,1-.25.17h1.27a.79.79,0,1,1,0,1.58h-1.39c.37.39.29,1-.27,1.64a5.54,5.54,0,0,1-.48.57h1.75a.79.79,0,1,1,0,1.58h-3.1v.6h2.76a.77.77,0,0,1,0,1.54h-2.81a5.25,5.25,0,0,1-.08.59h3.77a.79.79,0,1,1,0,1.58H593a9.7,9.7,0,0,0,3.25,1.69A1.25,1.25,0,0,1,597.25,315.19Zm-7-9.37H592a9.88,9.88,0,0,0,.57-1.69,1.93,1.93,0,0,1,.23-.52h-3.75a6.19,6.19,0,0,1,1,1A.94.94,0,0,1,590.29,305.82Z"/><path class="cls-3" d="M582.29,318.15a6.81,6.81,0,0,1-2.84-.68,2.63,2.63,0,0,1-1.47-3.19,2.59,2.59,0,0,1,1.74-1.83v-.87h0a3.13,3.13,0,0,1-1.76-2.05,3.2,3.2,0,0,1,1.66-3.95,2.73,2.73,0,0,1-1.47-2.52,2.67,2.67,0,0,1,1.59-2.54V299.3a3.19,3.19,0,0,1,3.43-3.23,3.52,3.52,0,0,1,2.44.88,2.59,2.59,0,0,1,2,.05,3.16,3.16,0,0,1,2.3-.89,3.61,3.61,0,0,1,1.43.28,3.53,3.53,0,0,1,1.42-.28,3.29,3.29,0,0,1,2,.66,3.23,3.23,0,0,1,2,.24,3,3,0,0,1,1.72,2,3,3,0,0,1-.19,2,2.82,2.82,0,0,1,.64,1.82,2.76,2.76,0,0,1-.92,2.12,3,3,0,0,1,.09,3.21,3.18,3.18,0,0,1,.06.62v0a2.78,2.78,0,0,1,.9,2.11,2.89,2.89,0,0,1-.46,1.6,3.67,3.67,0,0,1,.42.61,3.35,3.35,0,0,1,.16,2.67,3.26,3.26,0,0,1-1.73,2,3.59,3.59,0,0,1-2.94,0,8.19,8.19,0,0,1-3-2.09,11.33,11.33,0,0,1-5.4,2.36,2.73,2.73,0,0,1-2-.3A4.52,4.52,0,0,1,582.29,318.15Zm13.06-3.55,1.9.59-1.89-.6Z"/><path class="cls-3" d="M603.93,306.21a1.19,1.19,0,0,1-2-.27c-.52-.75-1-1.54-1.48-2.16a.74.74,0,0,1,0-1,.7.7,0,0,1,1-.15,12,12,0,0,1,2.39,1.62A1.17,1.17,0,0,1,603.93,306.21Zm.08-4.33a1.21,1.21,0,0,1-2-.31c-.46-.71-1.14-1.62-1.52-2.19a.75.75,0,0,1,0-1,.79.79,0,0,1,1-.2,12.83,12.83,0,0,1,2.46,1.66A1.23,1.23,0,0,1,604,301.88Zm.36,6.62a47.58,47.58,0,0,1-1.09,6.25,1.28,1.28,0,0,1-1.95,1,1.34,1.34,0,0,1-.73-2.1c.79-1.59,1.68-3.67,2.37-5.5a.69.69,0,0,1,.87-.46A.68.68,0,0,1,604.37,308.5Zm7.91-4.29v.92h3.41a1.12,1.12,0,0,1,1.25,1.25v7.79c0,2-1.79,2.37-4,1.51a.69.69,0,0,1-.44-.85c.1-.37.31-.52.77-.48,1.2.09,1.23-.06,1.23-.64v-.54a.58.58,0,0,1-.21.08c-.4.1-.71,0-.79-.44a25,25,0,0,1-.15-3.06,10.2,10.2,0,0,1-.81,3.17c-.17.33-.36.46-.65.39V315c0,.64-.37,1-1.06,1s-1.06-.32-1.06-1v-1.85a.64.64,0,0,1-.19.08c-.41.11-.71,0-.79-.44a24,24,0,0,1-.21-3.06,10.89,10.89,0,0,1-.71,3.15c-.14.37-.35.5-.66.39v1.87c0,.63-.42,1-1.19,1s-1.19-.35-1.19-1v-8.78a1.12,1.12,0,0,1,1.25-1.25h3.34v-.92H608a1.13,1.13,0,0,1-1.25-1.25v-1.52h-1.23a.83.83,0,1,1,0-1.66h1.23v-.52c0-.82.48-1.19,1.37-1.19s1.36.37,1.36,1.19v.52h2.81v-.52c0-.82.48-1.19,1.37-1.19s1.37.37,1.37,1.19v.52h1.4a.83.83,0,1,1,0,1.66H615V303a1.14,1.14,0,0,1-1.26,1.25Zm-2.46,7.12v-4.55h-2.33a.23.23,0,0,0-.23.24v.53l1.18,0c.59,0,.94.37,1,1A22.67,22.67,0,0,0,609.82,311.33Zm-2.17-2.16a.17.17,0,0,0-.18-.19h-.21v2.6A16.4,16.4,0,0,0,607.65,309.17Zm1.82-7.73v.92a.23.23,0,0,0,.23.23h2.35a.22.22,0,0,0,.23-.23v-.92Zm4.85,5.34h-2.38v.75h1.21c.6,0,.92.37,1,1,.15,1.27.27,2.15.4,2.84V307A.22.22,0,0,0,614.32,306.78Zm-2,2.37a.17.17,0,0,0-.17-.19h-.21v2.65A14.07,14.07,0,0,0,612.32,309.15Z"/><path class="cls-3" d="M608.07,318.16a3.38,3.38,0,0,1-2.23-.77,3.13,3.13,0,0,1-.34.21,3.8,3.8,0,0,1-4.94-1.92,3.54,3.54,0,0,1,.25-2.89c.68-1.39,1.48-3.21,2.15-5a4.21,4.21,0,0,1-.68-.77l-.6-.88c-.3-.45-.59-.87-.86-1.24a2.73,2.73,0,0,1,.08-3.43,2.4,2.4,0,0,1,.39-.39l-.45-.64a2.73,2.73,0,0,1,0-3.25,2.8,2.8,0,0,1,3.45-.84,12.88,12.88,0,0,1,2.37,1.49l.36-.08a3.2,3.2,0,0,1,3.06-1.74,3.69,3.69,0,0,0,5.54,0,3.19,3.19,0,0,1,3.05,1.72,2.84,2.84,0,0,1,.33,5.59,3.08,3.08,0,0,1,1.91,3v7.79a3.78,3.78,0,0,1-1.61,3.26,5.27,5.27,0,0,1-4.88.18,3.28,3.28,0,0,1-1.57.37,3.06,3.06,0,0,1-2.28-.9A3.25,3.25,0,0,1,608.07,318.16Zm-3.55-13.36.51.51-.51-.51Zm.14-4.4,0,0h0l0,0Zm-.5-2.15h0Z"/><path class="cls-10" d="M567.94,300.61v1.63H573a1.13,1.13,0,0,1,1.25,1.26v10c0,2.54-2.44,3.08-4.81,1.92a.78.78,0,0,1-.51-1,.76.76,0,0,1,.94-.56c1.21.16,1.46-.06,1.46-.88v-.85c-.5.67-1.15.62-1.77-.11a12.12,12.12,0,0,0-1.41-1.56,1.44,1.44,0,0,1-.23-.41v4.58c0,.81-.52,1.25-1.44,1.25s-1.44-.44-1.44-1.25v-7.16a3.27,3.27,0,0,1-.29.39,1.13,1.13,0,0,1-1.91-.29c-.38-.58-.84-1.21-1.23-1.69v4.89a1.23,1.23,0,0,1,.25-.14,12.93,12.93,0,0,0,1.89-1.13.79.79,0,0,1,1,0c.31.25.23.69,0,1.05a8.06,8.06,0,0,1-1.66,2.1,1.18,1.18,0,0,1-1.56.27v1.81c0,.81-.52,1.25-1.44,1.25s-1.44-.44-1.44-1.25V303.5a1.13,1.13,0,0,1,1.25-1.26h5v-1.63H559a.85.85,0,1,1,0-1.69h15a.77.77,0,0,1,.87.84.79.79,0,0,1-.87.85Zm-2.88,5.94v-2.61h-3.2a.22.22,0,0,0-.23.23v.75a.75.75,0,0,1,.93-.17,8.42,8.42,0,0,1,2,1.27A1.65,1.65,0,0,1,565.06,306.55Zm2.88-2.61v3a1.26,1.26,0,0,1,.2-.29,7.36,7.36,0,0,0,1.17-1.42c.5-.79,1.14-1,1.79-.39l.25.27v-1a.22.22,0,0,0-.23-.23Zm3.41,6.62v-4.14a2.44,2.44,0,0,1-.42.44,6.82,6.82,0,0,1-1.87,1.18.78.78,0,0,1-1-.29.5.5,0,0,1-.08-.14v2.18a.94.94,0,0,1,.1-.23.66.66,0,0,1,.92-.31,7.26,7.26,0,0,1,2.12,1.1A1.09,1.09,0,0,1,571.35,310.56Z"/><path class="cls-10" d="M597.25,315.19c-.29.93-1.08,1.14-2,.76a7.07,7.07,0,0,1-3.58-3.55c-1,1.91-3,3.16-5.93,3.7a.65.65,0,0,1-.86-.48c-.12-.41.06-.66.5-.85a6.61,6.61,0,0,0,3.67-3.06h-2.83a.79.79,0,0,1,0-1.58h3.31a5.25,5.25,0,0,0,.08-.59h-2.42a.77.77,0,0,1,0-1.54h2.48v-.6h-3a.72.72,0,0,1-.79-.73l0,0a14.34,14.34,0,0,1-1.29,1.11v5.91c0,2.33-2,3-4.27,1.93a.66.66,0,0,1-.39-.87c.1-.35.35-.48.77-.46.89.06,1-.16,1-.91V309.6h0a1.17,1.17,0,0,1-1.84-.65,1.21,1.21,0,0,1,.88-1.69c.35-.1.68-.22,1-.33v-3.06h-.79a.74.74,0,0,1-.8-.83.71.71,0,0,1,.8-.79h.79v-3c0-.81.5-1.23,1.43-1.23s1.42.42,1.42,1.23v3h.17a.73.73,0,0,1,.83.79.76.76,0,0,1-.83.83h-.17v1.87a3.61,3.61,0,0,0,.44-.22.73.73,0,0,1,1,.14.77.77,0,0,1,.16.31.85.85,0,0,1,.52-.16h1.73c0-.05-.06-.09-.08-.15a7.75,7.75,0,0,0-.65-1.44.7.7,0,0,1-.06-.62h-1.06a.79.79,0,1,1,0-1.58h.48a1.21,1.21,0,0,1-.44-.63c-.21-.62-.44-1.18-.67-1.7a.55.55,0,0,1,.21-.8.62.62,0,0,1,.85.09,7.24,7.24,0,0,1,1.36,1.46.93.93,0,0,1-.31,1.54s0,0-.07,0h.77v-2.88c0-.68.4-1,1.13-1s1.14.36,1.14,1V302h.57v-2.88c0-.68.41-1,1.14-1s1.14.36,1.14,1V302h.48a.67.67,0,0,1-.39-.92,7.51,7.51,0,0,0,.5-1.52c.23-.79.73-1.08,1.46-.75s.85,1,.27,1.77a5.47,5.47,0,0,1-1.11,1.25,1.11,1.11,0,0,1-.25.17h1.27a.79.79,0,1,1,0,1.58h-1.39c.37.39.29,1-.27,1.64a5.54,5.54,0,0,1-.48.57h1.75a.79.79,0,1,1,0,1.58h-3.1v.6h2.76a.77.77,0,0,1,0,1.54h-2.81a5.25,5.25,0,0,1-.08.59h3.77a.79.79,0,1,1,0,1.58H593a9.7,9.7,0,0,0,3.25,1.69A1.25,1.25,0,0,1,597.25,315.19Zm-7-9.37H592a9.88,9.88,0,0,0,.57-1.69,1.93,1.93,0,0,1,.23-.52h-3.75a6.19,6.19,0,0,1,1,1A.94.94,0,0,1,590.29,305.82Z"/><path class="cls-10" d="M605.93,306.21a1.19,1.19,0,0,1-2-.27c-.52-.75-1-1.54-1.48-2.16a.74.74,0,0,1,0-1,.7.7,0,0,1,1-.15,12,12,0,0,1,2.39,1.62A1.17,1.17,0,0,1,605.93,306.21Zm.08-4.33a1.21,1.21,0,0,1-2-.31c-.46-.71-1.14-1.62-1.52-2.19a.75.75,0,0,1,0-1,.79.79,0,0,1,1-.2,12.83,12.83,0,0,1,2.46,1.66A1.23,1.23,0,0,1,606,301.88Zm.36,6.62a47.58,47.58,0,0,1-1.09,6.25,1.28,1.28,0,0,1-1.95,1,1.34,1.34,0,0,1-.73-2.1c.79-1.59,1.68-3.67,2.37-5.5a.69.69,0,0,1,.87-.46A.68.68,0,0,1,606.37,308.5Zm7.91-4.29v.92h3.41a1.12,1.12,0,0,1,1.25,1.25v7.79c0,2-1.79,2.37-4,1.51a.69.69,0,0,1-.44-.85c.1-.37.31-.52.77-.48,1.2.09,1.23-.06,1.23-.64v-.54a.58.58,0,0,1-.21.08c-.4.1-.71,0-.79-.44a25,25,0,0,1-.15-3.06,10.2,10.2,0,0,1-.81,3.17c-.17.33-.36.46-.65.39V315c0,.64-.37,1-1.06,1s-1.06-.32-1.06-1v-1.85a.64.64,0,0,1-.19.08c-.41.11-.71,0-.79-.44a24,24,0,0,1-.21-3.06,10.89,10.89,0,0,1-.71,3.15c-.14.37-.35.5-.66.39v1.87c0,.63-.42,1-1.19,1s-1.19-.35-1.19-1v-8.78a1.12,1.12,0,0,1,1.25-1.25h3.34v-.92H610a1.13,1.13,0,0,1-1.25-1.25v-1.52h-1.23a.83.83,0,1,1,0-1.66h1.23v-.52c0-.82.48-1.19,1.37-1.19s1.36.37,1.36,1.19v.52h2.81v-.52c0-.82.48-1.19,1.37-1.19s1.37.37,1.37,1.19v.52h1.4a.83.83,0,1,1,0,1.66H617V303a1.14,1.14,0,0,1-1.26,1.25Zm-2.46,7.12v-4.55h-2.33a.23.23,0,0,0-.23.24v.53l1.18,0c.59,0,.94.37,1,1A22.67,22.67,0,0,0,611.82,311.33Zm-2.17-2.16a.17.17,0,0,0-.18-.19h-.21v2.6A16.4,16.4,0,0,0,609.65,309.17Zm1.82-7.73v.92a.23.23,0,0,0,.23.23h2.35a.22.22,0,0,0,.23-.23v-.92Zm4.85,5.34h-2.38v.75h1.21c.6,0,.92.37,1,1,.15,1.27.27,2.15.4,2.84V307A.22.22,0,0,0,616.32,306.78Zm-2,2.37a.17.17,0,0,0-.17-.19h-.21v2.65A14.07,14.07,0,0,0,614.32,309.15Z"/><path class="cls-11" d="M526.92,219.47h68.47a8.1,8.1,0,0,0,4.1-1.1c.86-.54.86-1.11-.3-1.11H530.72a8.2,8.2,0,0,0-4.1,1.09c-.86.55-.86,1.12.3,1.12Z"/><path class="cls-11" d="M526.93,242.77H565.2a8,8,0,0,0,4.1-1.09c.86-.56.87-1.15-.3-1.15H530.72a8,8,0,0,0-4.1,1.1c-.86.55-.86,1.14.31,1.14Z"/></g></svg>