<svg width="160" height="160" viewBox="0 0 160 160" fill="none" xmlns="http://www.w3.org/2000/svg">
<g clip-path="url(#clip0_1700_6515)">
<path d="M160 0H0V160H160V0Z" fill="#FDFDFB"/>
<path d="M126.521 141.377H33.5261C31.5649 141.384 29.667 140.683 28.1827 139.401C26.6984 138.119 25.7279 136.343 25.4503 134.402L14.2175 57.2407C14.1752 56.9622 14.1936 56.6778 14.2713 56.407C14.349 56.1362 14.4842 55.8853 14.6678 55.6716C14.8513 55.4579 15.0788 55.2862 15.3348 55.1685C15.5907 55.0507 15.869 54.9896 16.1508 54.9893H143.847C144.129 54.9896 144.407 55.0507 144.663 55.1685C144.919 55.2862 145.147 55.4579 145.33 55.6716C145.514 55.8853 145.649 56.1362 145.727 56.407C145.805 56.6778 145.823 56.9622 145.781 57.2407L134.597 134.402C134.314 136.341 133.342 138.114 131.859 139.395C130.376 140.676 128.481 141.379 126.521 141.377Z" fill="#F29A63"/>
<path d="M49.7025 78.7517C49.7025 76.1026 47.555 73.9551 44.906 73.9551C42.2569 73.9551 40.1094 76.1026 40.1094 78.7517V93.7777C40.1094 96.4267 42.2569 98.5742 44.906 98.5742C47.555 98.5742 49.7025 96.4267 49.7025 93.7777V78.7517Z" fill="#C07143"/>
<path d="M49.7025 110.223C49.7025 107.574 47.555 105.427 44.906 105.427C42.2569 105.427 40.1094 107.574 40.1094 110.223V125.249C40.1094 127.898 42.2569 130.046 44.906 130.046C47.555 130.046 49.7025 127.898 49.7025 125.249V110.223Z" fill="#C07143"/>
<path d="M73.099 78.7517C73.099 76.1026 70.9515 73.9551 68.3024 73.9551C65.6534 73.9551 63.5059 76.1026 63.5059 78.7517V93.7777C63.5059 96.4267 65.6534 98.5742 68.3024 98.5742C70.9515 98.5742 73.099 96.4267 73.099 93.7777V78.7517Z" fill="#C07143"/>
<path d="M73.099 110.223C73.099 107.574 70.9515 105.427 68.3024 105.427C65.6534 105.427 63.5059 107.574 63.5059 110.223V125.249C63.5059 127.898 65.6534 130.046 68.3024 130.046C70.9515 130.046 73.099 127.898 73.099 125.249V110.223Z" fill="#C07143"/>
<path d="M96.4935 78.7517C96.4935 76.1026 94.346 73.9551 91.697 73.9551C89.0479 73.9551 86.9004 76.1026 86.9004 78.7517V93.7777C86.9004 96.4267 89.0479 98.5742 91.697 98.5742C94.346 98.5742 96.4935 96.4267 96.4935 93.7777V78.7517Z" fill="#C07143"/>
<path d="M96.4935 110.223C96.4935 107.574 94.346 105.427 91.697 105.427C89.0479 105.427 86.9004 107.574 86.9004 110.223V125.249C86.9004 127.898 89.0479 130.046 91.697 130.046C94.346 130.046 96.4935 127.898 96.4935 125.249V110.223Z" fill="#C07143"/>
<path d="M119.89 78.7517C119.89 76.1026 117.743 73.9551 115.093 73.9551C112.444 73.9551 110.297 76.1026 110.297 78.7517V93.7777C110.297 96.4267 112.444 98.5742 115.093 98.5742C117.743 98.5742 119.89 96.4267 119.89 93.7777V78.7517Z" fill="#C07143"/>
<path d="M119.89 110.223C119.89 107.574 117.743 105.427 115.093 105.427C112.444 105.427 110.297 107.574 110.297 110.223V125.249C110.297 127.898 112.444 130.046 115.093 130.046C117.743 130.046 119.89 127.898 119.89 125.249V110.223Z" fill="#C07143"/>
<path d="M23.5915 63.8974H134.133C135.846 63.8974 140.031 61.8662 136.409 61.8662H25.843C24.1299 61.8662 19.9696 63.8974 23.5915 63.8974Z" fill="#FDF0E8"/>
<path d="M76.7749 24.1241L70.1414 19.916C69.0914 19.2499 67.7003 19.5611 67.0342 20.6111L40.9466 61.7344C40.2806 62.7844 40.5918 64.1755 41.6418 64.8416L48.2752 69.0497C49.3252 69.7158 50.7163 69.4046 51.3824 68.3546L77.47 27.2313C78.1361 26.1813 77.8248 24.7902 76.7749 24.1241Z" fill="#F9D2B9"/>
<path d="M48.4064 64.8518C50.2445 64.8518 51.7346 63.3617 51.7346 61.5235C51.7346 59.6854 50.2445 58.1953 48.4064 58.1953C46.5682 58.1953 45.0781 59.6854 45.0781 61.5235C45.0781 63.3617 46.5682 64.8518 48.4064 64.8518Z" fill="#A05633"/>
<path d="M111.719 69.0587L118.353 64.8506C119.403 64.1845 119.714 62.7933 119.048 61.7434L92.9603 20.6201C92.2942 19.5701 90.9031 19.2589 89.8531 19.925L83.2196 24.1331C82.1696 24.7992 81.8584 26.1903 82.5245 27.2403L108.612 68.3636C109.278 69.4136 110.669 69.7248 111.719 69.0587Z" fill="#F9D2B9"/>
<path d="M111.594 64.8518C113.432 64.8518 114.922 63.3617 114.922 61.5235C114.922 59.6854 113.432 58.1953 111.594 58.1953C109.756 58.1953 108.266 59.6854 108.266 61.5235C108.266 63.3617 109.756 64.8518 111.594 64.8518Z" fill="#A05633"/>
</g>
<defs>
<clipPath id="clip0_1700_6515">
<rect width="160" height="160" fill="white"/>
</clipPath>
</defs>
</svg>
