<svg width="160" height="160" viewBox="0 0 160 160" fill="none" xmlns="http://www.w3.org/2000/svg">
<g clip-path="url(#clip0_1700_6491)">
<path d="M160 0H0V160H160V0Z" fill="#FDFDFB"/>
<path d="M20.2878 18.1339H139.688C140.519 18.1339 141.316 18.4639 141.903 19.0514C142.491 19.6388 142.821 20.4356 142.821 21.2663V143.799H17.1309V21.2663C17.1308 20.8529 17.2127 20.4436 17.3716 20.0619C17.5306 19.6803 17.7635 19.3339 18.057 19.0427C18.3504 18.7515 18.6987 18.5212 19.0815 18.3653C19.4644 18.2093 19.8744 18.1307 20.2878 18.1339Z" fill="#E1E1E5"/>
<path d="M130.487 29.6357H29.514C28.3111 29.6357 27.3359 30.6109 27.3359 31.8138V105.965C27.3359 107.168 28.3111 108.143 29.514 108.143H130.487C131.69 108.143 132.665 107.168 132.665 105.965V31.8138C132.665 30.6109 131.69 29.6357 130.487 29.6357Z" fill="#7A7772"/>
<path d="M73.1236 118.006H29.514C28.3111 118.006 27.3359 118.981 27.3359 120.184V133.277C27.3359 134.479 28.3111 135.455 29.514 135.455H73.1236C74.3265 135.455 75.3017 134.479 75.3017 133.277V120.184C75.3017 118.981 74.3265 118.006 73.1236 118.006Z" fill="white"/>
<path d="M130.487 118.006H86.8773C85.6744 118.006 84.6992 118.981 84.6992 120.184V133.277C84.6992 134.479 85.6744 135.455 86.8773 135.455H130.487C131.69 135.455 132.665 134.479 132.665 133.277V120.184C132.665 118.981 131.69 118.006 130.487 118.006Z" fill="white"/>
<path d="M51.294 130.438C53.3484 130.438 55.0138 128.772 55.0138 126.718C55.0138 124.663 53.3484 122.998 51.294 122.998C49.2396 122.998 47.5742 124.663 47.5742 126.718C47.5742 128.772 49.2396 130.438 51.294 130.438Z" fill="#8D8986"/>
<path d="M108.681 130.438C110.735 130.438 112.401 128.772 112.401 126.718C112.401 124.663 110.735 122.998 108.681 122.998C106.626 122.998 104.961 124.663 104.961 126.718C104.961 128.772 106.626 130.438 108.681 130.438Z" fill="#8D8986"/>
<path d="M132.665 37.1738H27.3359V40.3308H132.665V37.1738Z" fill="white"/>
<path d="M107.09 36.2439C107.09 36.4397 107.09 36.0237 107.09 36.2439C107.102 36.1792 107.102 36.1129 107.09 36.0482C107.078 35.9261 107.078 35.8031 107.09 35.6811C107.09 35.8524 107.09 35.4853 107.09 35.6811V35.5098C107.145 35.3745 107.211 35.2436 107.286 35.1182C107.139 35.3629 107.286 35.1182 107.286 34.9714L107.555 34.6777L107.726 34.5553C107.851 34.4497 107.982 34.3517 108.118 34.2617C107.873 34.2617 108.314 34.1148 108.118 34.2617H108.289L108.681 34.0659H108.877C109.121 33.9435 108.607 34.0659 108.877 34.0659L109.366 33.9191C109.504 33.9073 109.644 33.9073 109.782 33.9191C109.586 33.9191 109.537 33.9191 109.782 33.9191H110.394C110.59 33.9191 110.516 33.9191 110.394 33.9191H110.663H111.03C111.25 33.9191 110.81 33.9191 111.03 33.9191H111.201C111.201 33.9191 111.617 34.1393 111.348 33.9191L111.691 34.1393V34.2617C111.75 34.3557 111.815 34.4457 111.887 34.5309C111.74 34.3351 111.887 34.5309 111.887 34.7266C111.898 34.8733 111.898 35.0205 111.887 35.1671V35.4363C111.869 35.6223 111.802 35.7999 111.691 35.9503C111.466 36.2705 111.173 36.5377 110.834 36.7334L110.565 36.9292C110.785 36.9292 110.296 37.1249 110.565 36.9292L110.027 37.1739C109.565 37.3521 109.129 37.5908 108.73 37.8836C108.37 38.2626 108.111 38.7248 107.974 39.2288C107.838 39.7327 107.828 40.2628 107.947 40.7713C107.947 41.3097 107.947 41.8236 108.118 42.3375C108.289 42.8515 108.118 43.2185 108.118 43.5122C108.118 43.8059 108.681 44.3198 109.195 44.2953C109.709 44.2709 110.467 43.9282 110.467 43.3409C110.467 42.362 110.247 41.4076 110.174 40.4287C110.125 39.9977 110.125 39.5626 110.174 39.1317C110.179 39.0747 110.179 39.0173 110.174 38.9604C110.174 38.9604 110.174 38.7646 110.174 38.7891C110.174 38.8135 109.88 39.0338 110.174 38.7891H110.345C110.736 38.5688 111.177 38.422 111.593 38.2017C112.093 37.9093 112.56 37.5648 112.988 37.1739C113.495 36.8829 113.91 36.4559 114.187 35.9413C114.463 35.4266 114.591 34.8449 114.554 34.2617C114.421 33.5869 114.063 32.9772 113.539 32.5326C113.014 32.088 112.354 31.8348 111.666 31.8144C110.132 31.6702 108.591 32.0127 107.261 32.7933C106.503 33.1457 105.865 33.7149 105.43 34.4292C104.994 35.1435 104.78 35.9709 104.814 36.8068C104.814 37.3697 105.793 37.3941 106.185 37.2962C106.45 37.2503 106.692 37.1124 106.866 36.9066C107.041 36.7009 107.137 36.4403 107.139 36.1705L107.09 36.2439Z" fill="#E3BD8B"/>
<path d="M109.219 42.4102C107.219 43.1208 105.409 44.2851 103.933 45.8118C103.837 45.9001 103.763 46.0114 103.721 46.1354C103.678 46.2594 103.667 46.3922 103.689 46.5215C103.739 46.6453 103.818 46.7547 103.921 46.8401C104.023 46.9255 104.145 46.9842 104.276 47.0109C104.63 47.1077 105.003 47.1112 105.359 47.0211C105.715 46.9311 106.042 46.7505 106.307 46.497L107.188 45.6894C107.384 45.5181 106.992 45.8363 107.188 45.6894L107.433 45.4692L107.996 45.0776L108.534 44.7106L108.803 44.5637H108.926L109.489 44.2945H109.758C110.106 44.2026 110.425 44.0261 110.688 43.7806C110.789 43.6953 110.865 43.5843 110.908 43.4594C110.951 43.3345 110.959 43.2003 110.933 43.0709C110.712 42.4836 109.807 42.3857 109.268 42.5815L109.219 42.4102Z" fill="#E3BD8B"/>
<path d="M109.245 44.0501C109.441 44.0501 109.637 44.0501 109.833 44.0501H109.979H110.298L110.909 44.2948C111.13 44.4172 110.787 44.2948 110.909 44.2948H111.056L111.374 44.4661C112.121 44.9297 112.84 45.4363 113.528 45.9834C113.784 46.1378 114.081 46.2089 114.379 46.187C114.677 46.165 114.961 46.0512 115.192 45.861C115.608 45.5184 115.779 45.0045 115.192 44.6374C114.48 44.0441 113.718 43.512 112.916 43.0467C112.059 42.5729 111.104 42.3048 110.126 42.2636C109.817 42.2268 109.503 42.2776 109.221 42.4105C108.963 42.5302 108.75 42.7269 108.609 42.9733C108.57 43.0888 108.559 43.2121 108.577 43.3327C108.595 43.4533 108.643 43.5677 108.715 43.6662C108.787 43.7647 108.882 43.8443 108.991 43.8984C109.1 43.9524 109.221 43.9793 109.343 43.9767L109.245 44.0501Z" fill="#E3BD8B"/>
<path d="M78.6539 36.2439C78.6539 36.4397 78.6539 36.0237 78.6539 36.2439C78.6419 36.1792 78.6419 36.1129 78.6539 36.0482C78.6419 35.9261 78.6419 35.8031 78.6539 35.6811C78.6539 35.8524 78.6539 35.4853 78.6539 35.6811V35.5098C78.7092 35.3745 78.7746 35.2436 78.8496 35.1182C78.7028 35.3629 78.8496 35.1182 78.8496 34.9714L79.1188 34.6777C79.2901 34.5064 78.9231 34.8245 79.1188 34.6777L79.2901 34.5553C79.4147 34.4497 79.5454 34.3517 79.6817 34.2617C79.437 34.2617 79.8775 34.1148 79.6817 34.2617H79.8775L80.269 34.0659H80.4648C80.7095 33.9435 80.1956 34.0659 80.4648 34.0659L80.9543 33.9191C81.0926 33.9052 81.232 33.9052 81.3703 33.9191C81.1745 33.9191 81.1256 33.9191 81.3703 33.9191H82.0066C82.2023 33.9191 82.1289 33.9191 82.0066 33.9191H82.2758H82.6428C82.8631 33.9191 82.4226 33.9191 82.6428 33.9191H82.8141C82.8141 33.9191 83.2057 34.1393 82.961 33.9191L83.2791 34.1393V34.2617L83.4504 34.5309C83.4504 34.3351 83.4504 34.5309 83.4504 34.7266C83.4738 34.8726 83.4738 35.0212 83.4504 35.1671V35.4363C83.4331 35.6223 83.3654 35.7999 83.2546 35.9503C83.0295 36.2705 82.7372 36.5377 82.3981 36.7334L82.1289 36.9292C82.3492 36.9292 81.8353 37.1249 82.1289 36.9292L81.5905 37.1739C81.1262 37.3467 80.6894 37.5857 80.2935 37.8836C79.9286 38.2589 79.6652 38.7209 79.5282 39.2261C79.3912 39.7313 79.3851 40.2631 79.5104 40.7713C79.5104 41.3097 79.5104 41.8236 79.6817 42.3375C79.853 42.8515 79.6817 43.2185 79.6817 43.5122C79.6817 43.8059 80.2201 44.3198 80.7585 44.2953C81.2969 44.2709 82.031 43.9282 82.031 43.3409C82.031 42.362 81.8108 41.4076 81.7374 40.4287C81.6761 39.9985 81.6761 39.5618 81.7374 39.1317C81.7374 39.1317 81.7374 38.8625 81.7374 38.9604C81.7374 39.0582 81.7374 38.7646 81.7374 38.7891C81.7374 38.8135 81.4437 39.0338 81.7374 38.7891C82.031 38.5443 81.9331 38.7891 81.7374 38.7891H81.9331C82.3247 38.5688 82.7652 38.422 83.1568 38.2017C83.6645 37.9096 84.1402 37.5651 84.5762 37.1739C85.0829 36.8829 85.4981 36.4559 85.7748 35.9413C86.0516 35.4266 86.1789 34.8449 86.1424 34.2617C86.0077 33.5789 85.6425 32.9631 85.1078 32.5175C84.5732 32.072 83.9016 31.8237 83.2057 31.8144C81.671 31.6702 80.1299 32.0127 78.8007 32.7933C78.0478 33.1533 77.4157 33.7243 76.9813 34.4368C76.5468 35.1493 76.3287 35.9726 76.3535 36.8068C76.3535 37.3697 77.3568 37.3941 77.7484 37.2962C78.0141 37.2546 78.2554 37.117 78.4267 36.9097C78.5981 36.7023 78.6876 36.4394 78.6783 36.1705L78.6539 36.2439Z" fill="#E3BD8B"/>
<path d="M80.7585 42.4102C78.7576 43.1208 76.9483 44.2851 75.4725 45.8118C75.3756 45.9001 75.3023 46.0114 75.2596 46.1354C75.2168 46.2594 75.2059 46.3922 75.2278 46.5215C75.2777 46.6453 75.3574 46.7547 75.4599 46.8401C75.5624 46.9255 75.6844 46.9842 75.8151 47.0109C76.1693 47.1077 76.5424 47.1112 76.8983 47.0211C77.2542 46.9311 77.5808 46.7505 77.8463 46.497L78.7273 45.6894C78.8986 45.5181 78.5316 45.8363 78.7273 45.6894L78.9965 45.4692L79.5594 45.0776L80.0978 44.7106L80.367 44.5637H80.4893L81.0522 44.2945H81.3214C81.8353 44.1232 81.4438 44.2945 81.3214 44.2945C81.6766 44.2035 82.0043 44.0271 82.2758 43.7806C82.4227 43.6093 82.6184 43.3156 82.5206 43.0709C82.4227 42.8262 81.3704 42.3857 80.8564 42.5815L80.7585 42.4102Z" fill="#E3BD8B"/>
<path d="M80.7584 44.0497C80.9787 44.0497 81.15 44.0497 81.3457 44.0497C81.5415 44.0497 81.1255 44.0497 81.3457 44.0497H81.4926H81.8107L82.4225 44.2944C82.6183 44.4168 82.3002 44.2944 82.4225 44.2944H82.5694L82.8875 44.4657C83.6342 44.9293 84.3533 45.4359 85.0411 45.983C85.297 46.1374 85.5945 46.2085 85.8926 46.1866C86.1906 46.1646 86.4746 46.0508 86.7052 45.8607C87.1212 45.518 87.2925 45.0041 86.7052 44.637C85.9927 44.0437 85.2313 43.5116 84.4292 43.0463C83.5586 42.4679 82.5579 42.1148 81.517 42.0185C81.2074 41.9816 80.8937 42.0325 80.6116 42.1653C80.3543 42.2851 80.1405 42.4818 79.9998 42.7282C79.8245 42.8288 79.6964 42.9949 79.6436 43.1899C79.5909 43.385 79.6177 43.593 79.7183 43.7683C79.8189 43.9435 79.985 44.0716 80.1801 44.1244C80.3751 44.1772 80.5832 44.1503 80.7584 44.0497Z" fill="#E3BD8B"/>
<path d="M50.2416 36.2439C50.2416 36.4397 50.2416 36.0237 50.2416 36.2439V36.0482V35.6811C50.2416 35.8524 50.2416 35.4853 50.2416 35.6811V35.5098C50.297 35.3745 50.3624 35.2436 50.4374 35.1182C50.2906 35.3629 50.4374 35.1182 50.4374 34.9714L50.7066 34.6777C50.8779 34.5064 50.5108 34.8245 50.7066 34.6777C50.753 34.6237 50.8118 34.5817 50.8779 34.5553C50.9983 34.4446 51.1295 34.3462 51.2695 34.2617C51.0247 34.2617 51.4652 34.1148 51.2695 34.2617H51.4652L51.8568 34.0659H52.0526C52.2973 33.9435 51.7834 34.0659 52.0526 34.0659L52.542 33.9191C52.6804 33.9052 52.8197 33.9052 52.9581 33.9191C52.7623 33.9191 52.6889 33.9191 52.9581 33.9191H53.8391C54.0593 33.9191 53.9859 33.9191 53.8391 33.9191H54.1083H54.4753C54.6956 33.9191 54.2551 33.9191 54.4753 33.9191H54.6466C54.6466 33.9191 55.0382 34.1393 54.7935 33.9191L55.1116 34.1393C54.9648 33.968 55.1116 34.1393 55.234 34.2617L55.4053 34.5309C55.4053 34.3351 55.4053 34.5309 55.4053 34.7266C55.4286 34.8726 55.4286 35.0212 55.4053 35.1671V35.4363C55.3768 35.6195 55.3101 35.7946 55.2095 35.9503C54.978 36.2648 54.687 36.5309 54.353 36.7334L54.0838 36.7089C54.304 36.7089 53.7901 36.9047 54.0838 36.7089L53.5699 36.9536C53.0979 37.1262 52.6529 37.3651 52.2484 37.6633C51.8542 38.0407 51.5672 38.5159 51.4167 39.0404C51.2662 39.5649 51.2576 40.12 51.3918 40.6489C51.3918 41.1873 51.3918 41.7013 51.5631 42.2152C51.7344 42.7291 51.5631 43.0962 51.5631 43.3898C51.5631 43.6835 52.126 44.1974 52.6399 44.173C53.1538 44.1485 53.9369 43.8059 53.9369 43.2185C53.9369 42.2396 53.7167 41.2852 53.6188 40.3063C53.5699 39.8754 53.5699 39.4403 53.6188 39.0093C53.6188 39.0093 53.6188 38.7401 53.6188 38.838C53.6188 38.9359 53.6188 38.6422 53.6188 38.6667C53.6188 38.6912 53.3496 38.9114 53.6188 38.6667C53.888 38.422 53.7901 38.6667 53.6188 38.6667H53.8146C54.2061 38.4464 54.6466 38.2996 55.0382 38.0794C55.5459 37.7872 56.0216 37.4427 56.4576 37.0515C56.891 36.7346 57.2357 36.3115 57.4586 35.823C57.6814 35.3344 57.7749 34.7968 57.7302 34.2617C57.5973 33.5869 57.2393 32.9772 56.7146 32.5326C56.19 32.088 55.5298 31.8348 54.8424 31.8144C53.3077 31.6702 51.7666 32.0127 50.4374 32.7933C49.6845 33.1533 49.0525 33.7243 48.618 34.4368C48.1835 35.1493 47.9654 35.9726 47.9902 36.8068C47.9902 37.3697 48.9691 37.3941 49.3606 37.2962C49.7522 37.1984 50.3885 36.7578 50.315 36.1705L50.2416 36.2439Z" fill="#E3BD8B"/>
<path d="M52.3953 42.4102C50.3943 43.1208 48.585 44.2851 47.1092 45.8118C47.0123 45.9001 46.9391 46.0114 46.8963 46.1354C46.8535 46.2594 46.8426 46.3922 46.8645 46.5215C46.9144 46.6453 46.9941 46.7547 47.0966 46.8401C47.1991 46.9255 47.3211 46.9842 47.4519 47.0109C47.806 47.1077 48.1791 47.1112 48.535 47.0211C48.8909 46.9311 49.2175 46.7505 49.4831 46.497L50.3396 45.6894C50.5354 45.5181 50.1683 45.8363 50.3396 45.6894L50.6088 45.4692L51.1472 45.0776L51.71 44.7106L51.9792 44.5637C52.175 44.4414 51.7345 44.5637 51.9792 44.5637L52.5421 44.2945H52.8113C53.3252 44.1232 52.9337 44.2945 52.8113 44.2945C53.1638 44.1967 53.49 44.0211 53.7657 43.7806C53.9125 43.6093 54.1083 43.3156 54.0104 43.0709C53.9125 42.8262 52.8602 42.3857 52.3463 42.5815L52.3953 42.4102Z" fill="#E3BD8B"/>
<path d="M52.3956 44.0498C52.5913 44.0498 52.7871 44.0498 52.9829 44.0498C53.1787 44.0498 52.7626 44.0498 52.9829 44.0498H53.1297H53.4479L54.0597 44.2945H54.231L54.5491 44.4659C55.2958 44.9294 56.0149 45.436 56.7027 45.9831C56.9586 46.1375 57.2561 46.2086 57.5542 46.1867C57.8523 46.1648 58.1362 46.0509 58.3668 45.8608C58.7828 45.5182 58.9541 45.0042 58.4892 44.6372C57.7724 44.0494 57.0115 43.5176 56.2132 43.0465C55.3426 42.4681 54.3419 42.1149 53.301 42.0186C52.9835 41.9835 52.6624 42.0342 52.3711 42.1655C52.12 42.2852 51.9141 42.4826 51.7837 42.7283C51.7389 42.8418 51.7231 42.9646 51.7377 43.0857C51.7522 43.2068 51.7968 43.3224 51.8672 43.422C51.9376 43.5215 52.0318 43.602 52.1411 43.6561C52.2505 43.7102 52.3716 43.7361 52.4934 43.7317L52.3956 44.0498Z" fill="#E3BD8B"/>
<path d="M116.169 44.1729C116.169 44.1729 110.59 51.5145 102.905 44.1729L96.4936 46.3019L85.2363 60.2512L92.0152 71.0924L98.5248 62.4047L95.4413 87.4399C95.4413 87.4399 111.642 93.2888 125.518 85.4821L121.578 61.3279L127.965 67.9599L133.985 56.8985L122.875 46.2041L116.169 44.1729Z" fill="#99CC8C"/>
<path d="M87.7572 44.1729C87.7572 44.1729 82.1775 51.5145 74.4932 44.1729L68.0815 46.3019L56.8242 60.2512L63.6275 71.0924L70.1372 62.4047L67.1271 87.4399C67.1271 87.4399 83.3277 93.2888 97.2035 85.4821L93.2635 61.3279L99.6508 67.9599L105.671 56.8985L94.5361 46.2041L87.7572 44.1729Z" fill="#EFD100"/>
<path d="M59.3462 44.1729C59.3462 44.1729 53.7665 51.5145 46.0822 44.1729L39.6704 46.3019L28.3887 60.2512L35.192 71.0924L41.6037 62.4047L38.6915 87.4399C38.6915 87.4399 54.9167 93.2888 68.7925 85.4821L64.8524 61.3279L71.2397 67.9599L77.2599 56.8985L66.076 46.2041L59.3462 44.1729Z" fill="#F29A63"/>
<path d="M45.2734 49.3604C46.5204 50.4487 48.0307 51.1912 49.654 51.514C53.5583 52.182 57.5693 51.3043 60.8378 49.0667C61.156 48.871 61.0336 48.6752 60.8378 48.6262C60.3872 48.5939 59.9388 48.7146 59.5653 48.9689C58.2405 49.8894 56.7293 50.5069 55.139 50.7776C53.5488 51.0483 51.9184 50.9655 50.3637 50.5351C49.1369 50.1656 48.0025 49.54 47.0354 48.6997C46.6684 48.357 45.0532 49.0178 45.3713 49.3115L45.2734 49.3604Z" fill="white"/>
<path d="M73.7344 49.3604C74.9962 50.4403 76.5121 51.1814 78.1394 51.514C82.0436 52.1794 86.0537 51.3019 89.3232 49.0667C89.6414 48.871 89.4945 48.6752 89.3232 48.6262C88.88 48.5916 88.4386 48.7128 88.0752 48.9689C86.7497 49.8878 85.2385 50.5044 83.6485 50.7751C82.0585 51.0457 80.4284 50.9638 78.8736 50.5351C77.6396 50.1654 76.4972 49.54 75.5209 48.6997C75.1782 48.357 73.5386 49.0178 73.8567 49.3115L73.7344 49.3604Z" fill="white"/>
<path d="M102.146 49.3604C103.408 50.4403 104.924 51.1814 106.551 51.514C110.456 52.182 114.467 51.3043 117.735 49.0667C118.053 48.871 117.907 48.6752 117.735 48.6262C117.292 48.5916 116.851 48.7128 116.487 48.9689C115.163 49.8894 113.651 50.5069 112.061 50.7776C110.471 51.0483 108.84 50.9655 107.286 50.5351C106.054 50.1601 104.913 49.5353 103.933 48.6997C103.59 48.357 101.975 49.0178 102.269 49.3115L102.146 49.3604Z" fill="white"/>
</g>
<defs>
<clipPath id="clip0_1700_6491">
<rect width="160" height="160" fill="white"/>
</clipPath>
</defs>
</svg>
