<svg width="160" height="160" viewBox="0 0 160 160" fill="none" xmlns="http://www.w3.org/2000/svg">
<g clip-path="url(#clip0_1700_6565)">
<path d="M160 0H0V160H160V0Z" fill="#FDFDFB"/>
<path d="M24.2277 89.9606L13.9004 144.877L24.2277 145.048L38.6174 88.4434" fill="#C69B6A"/>
<path d="M63.309 86.8768L57.3867 128.308L66.2212 128.406L74.5173 85.7266" fill="#946B37"/>
<path d="M128.554 91.8689L134.501 133.301L125.642 133.398L117.346 90.7432" fill="#946B37"/>
<path d="M91.5273 96.2741L96.7644 151.214L107.067 151.361L105.917 94.7812" fill="#C69B6A"/>
<path d="M117.345 37.0264L107.066 79.9508H119.89L129.043 37.0264" fill="#BC8F59"/>
<path d="M61.034 37.0264L54.9648 79.9508H67.7883L72.7317 37.0264" fill="#BC8F59"/>
<path d="M75.0812 107.066C108.87 107.066 136.262 100.58 136.262 92.5784C136.262 84.5771 108.87 78.0908 75.0812 78.0908C41.292 78.0908 13.9004 84.5771 13.9004 92.5784C13.9004 100.58 41.292 107.066 75.0812 107.066Z" fill="#BDC3CD"/>
<path d="M136.262 85.751H13.9004V92.6032H136.262V85.751Z" fill="#BDC3CD"/>
<path d="M75.0812 100.239C108.87 100.239 136.262 93.7526 136.262 85.7513C136.262 77.75 108.87 71.2637 75.0812 71.2637C41.292 71.2637 13.9004 77.75 13.9004 85.7513C13.9004 93.7526 41.292 100.239 75.0812 100.239Z" fill="#EFEFF1"/>
<path d="M150.016 31.6426C150.016 37.5893 152.83 48.4306 135.724 52.1748C120.16 55.5765 85.311 52.1748 70.3829 52.1748C39.1562 52.1748 36.709 42.9732 36.709 31.6426C36.709 20.3119 61.9889 11.1348 93.3135 11.1348C124.638 11.1348 150.016 20.3119 150.016 31.6426Z" fill="#E3BD8B"/>
<path d="M112.843 25.2552C115.476 25.3737 118.099 25.6516 120.698 26.0873C125.579 26.6787 130.299 28.2077 134.599 30.5902C134.941 30.786 135.626 30.5902 135.969 30.4433C136.312 30.2965 136.899 30.0518 136.605 29.8805C132.198 27.4544 127.36 25.9084 122.362 25.3286C119.674 24.8754 116.961 24.5894 114.238 24.4721C113.712 24.4497 113.192 24.5861 112.745 24.8637C112.451 25.0839 112.402 25.2552 112.745 25.2552H112.843Z" fill="#FCF4EA"/>
<path d="M118.911 32.083C121.211 32.4501 123.511 32.9396 125.763 33.478C129.494 34.1593 133.094 35.4228 136.433 37.2222C137.069 37.6138 138.88 36.7083 138.121 36.1699C134.721 34.3328 131.055 33.0366 127.256 32.3278C124.808 31.7649 122.557 31.251 120.183 30.8839C119.917 30.8314 119.643 30.8393 119.38 30.9071C119.117 30.9748 118.873 31.1007 118.666 31.2754C118.372 31.5691 118.421 31.9851 118.886 32.083H118.911Z" fill="#FCF4EA"/>
<path d="M130.512 25.2551C131.133 27.7621 131.607 30.3034 131.931 32.8659C132.788 37.4186 132.788 42.0912 131.931 46.6439C131.76 47.2801 133.889 46.962 134.036 46.3257C134.949 41.7837 135.007 37.1111 134.207 32.5478C133.864 29.904 133.374 27.2813 132.739 24.6922C132.592 24.0559 130.463 24.6922 130.61 25.2551H130.512Z" fill="#FCF4EA"/>
<path d="M121.602 22.2457C122.396 24.0069 123.011 25.8434 123.438 27.7275C124.504 31.5238 124.622 35.5239 123.78 39.3763C123.633 40.0371 125.738 39.7189 125.909 39.0582C127.107 33.1761 126.341 27.0638 123.731 21.6584C123.438 21.0221 121.284 21.6584 121.602 22.2457Z" fill="#FCF4EA"/>
</g>
<defs>
<clipPath id="clip0_1700_6565">
<rect width="160" height="160" fill="white"/>
</clipPath>
</defs>
</svg>
