<svg width="160" height="160" viewBox="0 0 160 160" fill="none" xmlns="http://www.w3.org/2000/svg">
<g clip-path="url(#clip0_1700_6581)">
<path d="M160 0H0V160H160V0Z" fill="#FDFDFB"/>
<path d="M146.247 88.2476L143.995 143.31H16.6168L13.4844 94.1699L48.8958 44.9561L128.284 78.8013L146.247 88.2476Z" fill="#EFEFF1"/>
<path d="M146.516 81.4438L143.995 143.31H76.2559L77.2837 79.6084L84.7233 65.2676L128.284 68.6448L146.516 81.4438Z" fill="#BDC3CD"/>
<path d="M50.9758 143.456H16.2741L14.7812 114.188H50.9758V143.456Z" fill="#BDC3CD"/>
<path d="M14.6831 95.7111L49.6295 48.7487C49.7735 48.5609 49.9587 48.4088 50.1709 48.3041C50.3831 48.1994 50.6165 48.1449 50.8531 48.1449C51.0898 48.1449 51.3232 48.1994 51.5354 48.3041C51.7476 48.4088 51.9328 48.5609 52.0768 48.7487L76.8183 87.5373C76.9581 87.7563 77.1494 87.9377 77.3755 88.0657C77.6016 88.1937 77.8556 88.2643 78.1153 88.2715H148.963C149.263 88.2637 149.555 88.1736 149.808 88.0109C150.061 87.8482 150.264 87.6193 150.395 87.3491C150.526 87.0789 150.581 86.7778 150.553 86.4786C150.525 86.1795 150.415 85.8939 150.235 85.653L124.246 47.9901C124.11 47.7985 123.935 47.6381 123.733 47.5199C123.53 47.4017 123.304 47.3284 123.071 47.3048L47.9654 41.6028C47.7078 41.5838 47.4495 41.6299 47.2143 41.7368C46.9791 41.8437 46.7746 42.008 46.6194 42.2146L9.91096 91.1592C9.67548 91.4771 9.56093 91.8684 9.58784 92.263C9.61475 92.6577 9.78136 93.0299 10.0578 93.3128L12.505 95.76C12.8005 96.0421 13.1958 96.1953 13.6042 96.1861C14.0125 96.1769 14.4006 96.0061 14.6831 95.7111Z" fill="#8ABB91"/>
<path d="M14.6837 114.188L9.78922 120.991C9.49555 121.407 9.78922 122.043 10.1808 122.043H46.6201C46.7126 122.036 46.8017 122.006 46.8789 121.954C46.9561 121.903 47.0186 121.832 47.0606 121.749L50.9761 114.188H14.6837Z" fill="#4E9880"/>
<path d="M124.808 112.94H98.8187C98.6781 112.928 98.5472 112.863 98.452 112.759C98.3568 112.654 98.3043 112.518 98.3048 112.377L97.0322 95.8093C97.022 95.7288 97.0278 95.6471 97.0494 95.569C97.0711 95.4908 97.108 95.4178 97.1581 95.354C97.2082 95.2902 97.2704 95.2371 97.3413 95.1976C97.4121 95.1581 97.4901 95.1331 97.5706 95.124H126.228C126.307 95.1329 126.385 95.1579 126.454 95.1977C126.524 95.2375 126.585 95.2912 126.633 95.3554C126.681 95.4196 126.716 95.493 126.734 95.5711C126.753 95.6491 126.755 95.7302 126.742 95.8093L125.298 112.377C125.299 112.514 125.25 112.647 125.16 112.751C125.07 112.855 124.945 112.922 124.808 112.94Z" fill="#5C6979"/>
<path d="M82.399 84.2582C82.1693 84.257 81.9436 84.1981 81.7426 84.087C81.5416 83.9758 81.3718 83.8159 81.2488 83.6219C73.9071 71.3858 68.1071 61.1808 63.0658 51.8079C62.9718 51.6545 62.9102 51.4836 62.8845 51.3055C62.8589 51.1274 62.87 50.946 62.9169 50.7724C62.9639 50.5987 63.0458 50.4365 63.1577 50.2956C63.2696 50.1547 63.409 50.0382 63.5675 49.9531C63.726 49.868 63.9002 49.8161 64.0795 49.8007C64.2587 49.7853 64.4392 49.8067 64.6099 49.8635C64.7806 49.9203 64.9379 50.0114 65.0721 50.1311C65.2064 50.2508 65.3148 50.3967 65.3907 50.5598C70.432 59.9082 76.2075 69.9908 83.5492 82.3738C83.6716 82.5757 83.7378 82.8067 83.7407 83.0428C83.7436 83.2789 83.6832 83.5115 83.5658 83.7164C83.4484 83.9212 83.2782 84.0909 83.073 84.2077C82.8678 84.3245 82.6351 84.3842 82.399 84.3806V84.2582Z" fill="#4E9880"/>
<path d="M94.4138 83.2058C94.1743 83.2088 93.9385 83.1466 93.7316 83.0259C93.5247 82.9052 93.3544 82.7306 93.2391 82.5206L76.1085 51.7834C75.9365 51.4588 75.9005 51.0793 76.0083 50.7282C76.1162 50.3771 76.3591 50.0832 76.6836 49.9112C77.0081 49.7392 77.3877 49.7032 77.7388 49.8111C78.0899 49.9189 78.3837 50.1618 78.5557 50.4863L95.6864 81.2236C95.7728 81.3759 95.8281 81.5439 95.8491 81.7178C95.87 81.8917 95.8561 82.0681 95.8083 82.2366C95.7605 82.4051 95.6797 82.5624 95.5705 82.6994C95.4613 82.8364 95.326 82.9503 95.1724 83.0345C94.9463 83.1761 94.6788 83.2365 94.4138 83.2058Z" fill="#4E9880"/>
<path d="M116.317 83.4505C116.088 83.4522 115.862 83.3918 115.663 83.2754C115.465 83.1591 115.302 82.9912 115.192 82.7897C109.367 73.0008 98.2079 52.8601 98.061 52.6643C97.9755 52.5105 97.9216 52.3411 97.9024 52.1662C97.8832 51.9913 97.8992 51.8143 97.9493 51.6456C97.9995 51.4769 98.0828 51.3199 98.1944 51.1839C98.3061 51.0478 98.4438 50.9355 98.5994 50.8533C98.9029 50.7035 99.2523 50.6758 99.5756 50.776C99.8988 50.8762 100.171 51.0966 100.337 51.3917C100.337 51.5875 111.594 71.7282 117.468 81.4682C117.559 81.6167 117.62 81.7822 117.646 81.9548C117.673 82.1274 117.664 82.3035 117.621 82.4726C117.577 82.6417 117.5 82.8003 117.394 82.9389C117.288 83.0775 117.155 83.1932 117.003 83.2792C116.798 83.4083 116.558 83.4683 116.317 83.4505Z" fill="#4E9880"/>
<path d="M127.256 83.4502C127.023 83.4488 126.795 83.3872 126.594 83.2714C126.392 83.1556 126.224 82.9896 126.105 82.7895C120.232 72.9761 107.678 53.8387 107.507 53.5451C107.315 53.2498 107.249 52.8905 107.322 52.5463C107.396 52.2021 107.603 51.9011 107.898 51.7097C108.193 51.5182 108.553 51.4519 108.897 51.5253C109.241 51.5987 109.542 51.8059 109.734 52.1012C109.88 52.297 122.508 71.6791 128.332 81.468C128.504 81.7779 128.549 82.1421 128.457 82.4843C128.366 82.8264 128.146 83.12 127.843 83.3034C127.662 83.3989 127.46 83.4493 127.256 83.4502Z" fill="#4E9880"/>
<path d="M137.363 82.1287C137.145 82.1313 136.93 82.0788 136.737 81.9762C136.545 81.8735 136.381 81.724 136.262 81.5413L117.639 53.6184C117.498 53.3249 117.468 52.9903 117.555 52.6765C117.641 52.3627 117.839 52.091 118.111 51.9117C118.383 51.7325 118.71 51.6579 119.033 51.7017C119.356 51.7455 119.651 51.9048 119.866 52.1501L138.465 80.073C138.561 80.2175 138.628 80.3797 138.662 80.5503C138.696 80.7208 138.696 80.8964 138.662 81.0669C138.628 81.2374 138.561 81.3995 138.464 81.5439C138.367 81.6883 138.242 81.8122 138.098 81.9084C137.881 82.0541 137.625 82.1309 137.363 82.1287Z" fill="#4E9880"/>
<path d="M104.914 83.4507C104.672 83.4513 104.434 83.3854 104.227 83.2603C104.02 83.1351 103.851 82.9555 103.739 82.741C100.117 75.8887 88.0277 53.6923 87.9054 53.3742C87.8202 53.2135 87.7675 53.0376 87.7503 52.8566C87.7332 52.6755 87.7518 52.4929 87.8052 52.319C87.8586 52.1452 87.9457 51.9835 88.0616 51.8434C88.1774 51.7032 88.3198 51.5872 88.4805 51.5021C88.6412 51.4169 88.8171 51.3642 88.9981 51.347C89.1791 51.3298 89.3618 51.3485 89.5357 51.4019C89.7095 51.4553 89.8711 51.5424 90.0113 51.6583C90.1515 51.7741 90.2674 51.9165 90.3526 52.0772C90.3526 52.3219 102.589 74.5427 106.186 81.4439C106.35 81.759 106.383 82.1261 106.278 82.4654C106.172 82.8046 105.937 83.0884 105.623 83.2549C105.409 83.3825 105.163 83.4501 104.914 83.4507Z" fill="#4E9880"/>
<path d="M111.985 111.3C111.834 111.288 111.686 111.246 111.551 111.176C111.417 111.107 111.297 111.011 111.199 110.895C111.101 110.779 111.027 110.645 110.981 110.5C110.936 110.355 110.919 110.203 110.933 110.052C110.933 105.769 110.933 103.053 110.933 98.5744C110.891 98.2662 110.973 97.954 111.161 97.7062C111.349 97.4585 111.628 97.2955 111.936 97.2529C112.226 97.3072 112.49 97.4572 112.685 97.679C112.881 97.9008 112.996 98.1816 113.013 98.4765C113.16 103.004 113.16 105.818 113.16 110.052C113.173 110.213 113.153 110.375 113.1 110.528C113.047 110.681 112.962 110.821 112.851 110.938C112.74 111.056 112.606 111.149 112.457 111.212C112.307 111.274 112.147 111.304 111.985 111.3Z" fill="#BDC3CD"/>
<path d="M47.7936 76.1338C48.6374 76.1338 49.4466 76.469 50.0432 77.0657C50.6399 77.6623 50.975 78.4715 50.975 79.3152V95.1488H44.6367V79.2908C44.6367 78.447 44.9719 77.6378 45.5685 77.0412C46.1652 76.4446 46.9744 76.1094 47.8181 76.1094L47.7936 76.1338Z" fill="#8A96A4"/>
<path d="M147.299 27.5067C143.236 25.0595 137.657 23.8114 137.363 13.0191C137.388 12.5544 137.388 12.0888 137.363 11.6242C137.363 9.86216 134.059 11.6242 134.059 13.1659C134.167 16.5385 133.489 19.89 132.077 22.9548C130.432 26.1339 127.876 28.7498 124.735 30.4678C123.585 31.1775 124.148 32.1809 125.249 32.3767C131.539 33.5269 134.28 39.7184 135.234 45.3715C135.479 46.8643 138.733 45.9588 138.88 44.7352C139.144 41.6099 139.974 38.5585 141.328 35.7294C142.724 33.1114 144.751 30.8826 147.225 29.2442C147.617 28.8037 148.082 27.9472 147.299 27.5067Z" fill="#F1E765"/>
<path d="M110.591 22.6856C108.144 21.2662 104.864 20.5076 104.693 14.1203C104.717 13.8435 104.717 13.5651 104.693 13.2883C104.693 12.2604 102.735 13.2883 102.735 14.1937C102.798 16.1841 102.396 18.1616 101.56 19.9692C100.594 21.874 99.0762 23.4433 97.2044 24.4721C96.5192 24.9126 96.8618 25.4999 97.4981 25.6223C101.218 26.2831 102.858 29.9294 103.42 33.3066C103.567 34.1876 105.476 33.6492 105.574 32.9151C105.708 31.0691 106.172 29.2621 106.944 27.5801C107.781 26.04 108.982 24.729 110.444 23.7624C110.762 23.4687 111.031 22.9548 110.591 22.6856Z" fill="#F2EDA7"/>
</g>
<defs>
<clipPath id="clip0_1700_6581">
<rect width="160" height="160" fill="white"/>
</clipPath>
</defs>
</svg>
