<svg width="160" height="160" viewBox="0 0 160 160" fill="none" xmlns="http://www.w3.org/2000/svg">
<g clip-path="url(#clip0_1700_6547)">
<path d="M160 0H0V160H160V0Z" fill="#FDFDFB"/>
<path d="M79.9991 138.586C118.073 138.586 148.938 114.679 148.938 85.1877C148.938 55.6964 118.073 31.7891 79.9991 31.7891C41.9254 31.7891 11.0605 55.6964 11.0605 85.1877C11.0605 114.679 41.9254 138.586 79.9991 138.586Z" fill="#EFEFF1"/>
<path d="M42.1656 66.0753C42.0514 68.4949 40.9827 70.7705 39.1937 72.4035C37.4047 74.0365 35.0413 74.8938 32.6214 74.7875C30.1974 74.9005 27.8277 74.0462 26.0333 72.4125C24.239 70.7787 23.1669 68.4993 23.0527 66.0753C23.0527 61.1809 27.3354 53.3008 32.6214 53.3008C37.9074 53.3008 42.1656 61.3277 42.1656 66.0753Z" fill="white"/>
<path d="M29.3658 61.0091C29.3432 62.4448 28.9558 63.8512 28.2401 65.096C28.068 65.4359 27.8717 65.7631 27.6528 66.0749L27.4815 66.2952L27.1144 66.7112L26.7473 67.0538L26.5515 67.2006H26.4292H26.2089C26.3557 67.2006 25.9642 67.323 26.2089 67.2006C26.0621 67.2006 25.8174 67.2006 26.2089 67.2006C25.7195 67.2006 24.9364 67.5188 24.8385 68.1061C24.7406 68.6934 25.5237 68.8648 25.9397 68.7913C26.8807 68.5793 27.7634 68.1624 28.5248 67.5702C29.2862 66.978 29.9076 66.2251 30.3447 65.3652C31.2589 63.8925 31.7656 62.2035 31.8131 60.4707C31.8131 59.9079 31.2013 59.7366 30.7118 59.81C30.2224 59.8834 29.3414 60.1526 29.3414 60.7155L29.3658 61.0091Z" fill="#F0D4DD"/>
<path d="M34.6037 60.3976C35.4286 61.4592 35.8609 62.7734 35.8273 64.1174C35.8473 65.4659 35.6319 66.8075 35.191 68.082C34.9952 68.5959 35.9741 68.6203 36.2433 68.5959C36.5125 68.5714 37.4424 68.3022 37.6382 67.7638C38.1061 66.3777 38.3216 64.9189 38.2745 63.4567C38.3024 62.0029 37.8074 60.5873 36.8796 59.4677C36.3167 58.8314 33.9919 59.7124 34.6037 60.3976Z" fill="#F0D4DD"/>
<path d="M46.7658 101.046C46.6199 103.964 45.3261 106.705 43.1667 108.672C41.0072 110.639 38.1575 111.671 35.2394 111.545C32.3212 111.671 29.4715 110.639 27.312 108.672C25.1526 106.705 23.8588 103.964 23.7129 101.046C23.7129 95.2465 28.8765 85.6533 35.2394 85.6533C41.6022 85.6533 46.7658 95.2465 46.7658 101.046Z" fill="white"/>
<path d="M31.4217 94.8552C31.3882 96.5766 30.9165 98.2611 30.0512 99.7496C29.8382 100.155 29.6012 100.547 29.3415 100.924C29.3415 100.924 29.1213 101.242 29.3415 101.047C29.2825 101.141 29.2171 101.231 29.1458 101.316L28.7053 101.805C28.562 101.957 28.4065 102.096 28.2403 102.221L28.02 102.393H27.8487H27.604C27.7753 102.393 27.2859 102.539 27.604 102.393C27.4327 102.393 27.139 102.393 27.604 102.393C26.9922 102.393 26.0623 102.76 25.9644 103.494C25.8665 104.228 26.772 104.399 27.2859 104.326C28.4112 104.088 29.4713 103.608 30.3926 102.919C31.3138 102.23 32.0742 101.349 32.6208 100.337C33.7202 98.5783 34.3364 96.5609 34.4073 94.4881C34.4073 93.8029 33.6731 93.6071 33.0613 93.6805C32.4495 93.7539 31.4217 94.0965 31.4217 94.7818V94.8552Z" fill="#F0D4DD"/>
<path d="M37.6638 94.1203C38.6674 95.3925 39.1877 96.9793 39.1322 98.5987C39.1793 100.265 38.9136 101.925 38.3491 103.493C38.1288 104.129 39.279 104.154 39.6216 104.105C39.9642 104.056 41.09 103.762 41.3102 103.126C41.8825 101.442 42.1396 99.6665 42.0689 97.889C42.1259 96.1097 41.5345 94.3703 40.4047 92.9946C39.7195 92.2604 36.9052 93.3372 37.6638 94.1448V94.1203Z" fill="#F0D4DD"/>
<path d="M80.0007 101.854C99.6525 101.854 115.583 92.0698 115.583 80.0003C115.583 67.9307 99.6525 58.1465 80.0007 58.1465C60.3489 58.1465 44.418 67.9307 44.418 80.0003C44.418 92.0698 60.3489 101.854 80.0007 101.854Z" fill="#EEC695"/>
<path d="M132.15 109.929C133.846 108.712 135.059 106.935 135.576 104.912C136.39 101.861 136.21 98.6289 135.062 95.6864C134.011 92.7114 132.051 90.1428 129.458 88.3447C128.374 87.5594 127.118 87.0433 125.794 86.839C124.471 86.6348 123.118 86.7482 121.847 87.17C116.953 88.9565 114.97 95.7353 117.369 102.245C118.409 105.225 120.372 107.797 122.973 109.587C124.639 110.767 126.662 111.338 128.699 111.202C132.786 122.508 136.898 133.79 141.229 145.023C141.817 146.515 145.243 145.194 144.655 143.701C140.25 132.468 136.139 121.211 132.15 109.929Z" fill="#CE995E"/>
<path d="M115.583 41.9697H44.418V79.9997H115.583V41.9697Z" fill="#EEC695"/>
<path d="M80.0007 63.8237C99.6525 63.8237 115.583 52.9438 115.583 39.5227C115.583 26.1016 99.6525 15.2217 80.0007 15.2217C60.3489 15.2217 44.418 26.1016 44.418 39.5227C44.418 52.9438 60.3489 63.8237 80.0007 63.8237Z" fill="#BD657D"/>
<path d="M76.8674 75.6197L76.5737 67.1767C76.329 64.289 77.3569 62.4536 81.9821 58.3422L84.2825 56.2865C85.3372 55.5414 86.1939 54.55 86.7781 53.3985C87.3624 52.2469 87.6567 50.9701 87.6352 49.679C87.6352 46.3997 84.8454 43.7812 79.6572 43.8791C76.5302 44.0558 73.5175 45.1166 70.9696 46.9381C70.3294 47.4362 69.5415 47.7066 68.7304 47.7066C67.9192 47.7066 67.1313 47.4362 66.4911 46.9381C65.0473 45.8858 64.9004 44.6132 66.3443 43.4875C70.324 40.5204 75.1582 38.9233 80.1222 38.9357C90.5719 38.6909 95.9313 43.0225 96.1761 48.5778C96.4208 54.133 92.0892 57.241 88.8344 60.0063C84.8454 63.2122 83.5484 63.9953 83.7931 66.7362L83.9644 75.4484C84.1112 76.7454 82.5939 77.504 80.7585 77.6264C78.9231 77.7488 77.0387 76.8922 76.8674 75.6197ZM74.8851 85.0415C74.8851 82.7656 77.3324 80.9302 80.6117 80.9302C83.891 80.9302 86.1914 82.7656 86.1914 85.0415C86.1914 87.3174 83.7441 89.1284 80.6117 89.1284C77.4792 89.1284 74.8851 87.2685 74.8851 85.0415Z" fill="#F9ECF0"/>
<path d="M59.7115 124.319C65.5097 124.319 70.2101 120.671 70.2101 116.17C70.2101 111.669 65.5097 108.021 59.7115 108.021C53.9133 108.021 49.2129 111.669 49.2129 116.17C49.2129 120.671 53.9133 124.319 59.7115 124.319Z" fill="#DA87A2"/>
<path d="M66.0745 113.649C66.0745 113.649 88.0996 123.071 105.524 117.736C105.524 117.736 108.754 117.345 107.971 119.376C107.188 121.407 87.8794 128.21 59.7852 120.281" fill="#DA87A2"/>
<path d="M128.187 63.8975C129.781 63.8975 131.074 62.6047 131.074 61.0098C131.074 59.415 129.781 58.1221 128.187 58.1221C126.592 58.1221 125.299 59.415 125.299 61.0098C125.299 62.6047 126.592 63.8975 128.187 63.8975Z" fill="white"/>
<path d="M135.87 74.8116C137.465 74.8116 138.758 73.5187 138.758 71.9239C138.758 70.329 137.465 69.0361 135.87 69.0361C134.275 69.0361 132.982 70.329 132.982 71.9239C132.982 73.5187 134.275 74.8116 135.87 74.8116Z" fill="white"/>
</g>
<defs>
<clipPath id="clip0_1700_6547">
<rect width="160" height="160" fill="white"/>
</clipPath>
</defs>
</svg>
