<svg width="160" height="160" viewBox="0 0 160 160" fill="none" xmlns="http://www.w3.org/2000/svg">
<g clip-path="url(#clip0_1700_6599)">
<path d="M160 0H0V160H160V0Z" fill="#FDFDFB"/>
<path d="M63.7755 15.834H59.6152V39.4498H63.7755V15.834Z" fill="#8A96A4"/>
<path d="M100.361 15.834H96.2012V39.4498H100.361V15.834Z" fill="#8A96A4"/>
<path d="M112.866 148.914C117.056 148.914 120.452 145.517 120.452 141.328C120.452 137.138 117.056 133.741 112.866 133.741C108.676 133.741 105.279 137.138 105.279 141.328C105.279 145.517 108.676 148.914 112.866 148.914Z" fill="#5C6979"/>
<path d="M47.1099 148.914C51.2997 148.914 54.6963 145.517 54.6963 141.328C54.6963 137.138 51.2997 133.741 47.1099 133.741C42.92 133.741 39.5234 137.138 39.5234 141.328C39.5234 145.517 42.92 148.914 47.1099 148.914Z" fill="#5C6979"/>
<path d="M118.567 35.7051H41.4307C33.4835 35.7051 27.041 42.1476 27.041 50.0948V126.938C27.041 134.885 33.4835 141.328 41.4307 141.328H118.567C126.515 141.328 132.957 134.885 132.957 126.938V50.0948C132.957 42.1476 126.515 35.7051 118.567 35.7051Z" fill="#C69B6A"/>
<path d="M47.1583 62.6493V120.208C47.1595 120.86 47.3235 121.502 47.6354 122.075C47.9474 122.647 48.3975 123.133 48.9448 123.488C49.6545 123.879 51.2452 124.271 51.2452 122.9V65.3658C51.2388 64.7091 51.0673 64.0646 50.7466 63.4915C50.4259 62.9185 49.9662 62.4353 49.4098 62.0865C48.7245 61.6704 47.1094 61.3034 47.1094 62.6493H47.1583Z" fill="#9F7337"/>
<path d="M67.666 62.6493V120.208C67.6724 120.865 67.8439 121.509 68.1646 122.082C68.4853 122.656 68.9451 123.139 69.5014 123.488C70.2111 123.879 71.9487 124.271 71.9487 122.9V65.3658C71.9374 64.7073 71.7613 64.0621 71.4364 63.4892C71.1115 62.9164 70.6482 62.4341 70.0888 62.0865C69.4035 61.6704 67.7884 61.3034 67.7884 62.6493H67.666Z" fill="#9F7337"/>
<path d="M88.0996 62.6493V120.208C88.106 120.865 88.2775 121.509 88.5982 122.082C88.9189 122.656 89.3786 123.139 89.935 123.488C90.6447 123.879 92.2599 124.271 92.2599 122.9V65.3658C92.2668 64.7203 92.114 64.0832 91.8151 63.511C91.5162 62.9389 91.0806 62.4495 90.5468 62.0865C89.8371 61.6704 88.222 61.3034 88.222 62.6493H88.0996Z" fill="#9F7337"/>
<path d="M108.682 62.6493V120.208C108.688 120.865 108.859 121.509 109.18 122.082C109.501 122.656 109.961 123.139 110.517 123.488C111.227 123.879 112.964 124.271 112.964 122.9V65.3658C112.958 64.7091 112.786 64.0646 112.466 63.4915C112.145 62.9185 111.685 62.4353 111.129 62.0865C110.419 61.6704 108.682 61.3034 108.682 62.6493Z" fill="#9F7337"/>
<path d="M80.0004 57.4613C88.4747 57.4613 95.3445 54.3058 95.3445 50.4133C95.3445 46.5207 88.4747 43.3652 80.0004 43.3652C71.5261 43.3652 64.6562 46.5207 64.6562 50.4133C64.6562 54.3058 71.5261 57.4613 80.0004 57.4613Z" fill="#F7F7F8"/>
<path d="M104.692 12.0156H55.3069C54.104 12.0156 53.1289 12.9908 53.1289 14.1937V17.4974C53.1289 18.7003 54.104 19.6755 55.3069 19.6755H104.692C105.895 19.6755 106.87 18.7003 106.87 17.4974V14.1937C106.87 12.9908 105.895 12.0156 104.692 12.0156Z" fill="#BDC3CD"/>
<path d="M61.1816 19.5775H70.1385C69.9478 18.5287 69.3951 17.58 68.5767 16.897C67.7583 16.214 66.7261 15.8398 65.6601 15.8398C64.5941 15.8398 63.5619 16.214 62.7435 16.897C61.9251 17.58 61.3723 18.5287 61.1816 19.5775Z" fill="#5E6E80"/>
<path d="M75.5215 19.5775H84.4784C84.2877 18.5287 83.7349 17.58 82.9165 16.897C82.0981 16.214 81.0659 15.8398 79.9999 15.8398C78.9339 15.8398 77.9017 16.214 77.0833 16.897C76.2649 17.58 75.7122 18.5287 75.5215 19.5775Z" fill="#5E6E80"/>
<path d="M89.7891 19.5776H98.7704C98.5942 18.5138 98.0461 17.5471 97.2237 16.8497C96.4013 16.1523 95.358 15.7695 94.2797 15.7695C93.2015 15.7695 92.1582 16.1523 91.3358 16.8497C90.5134 17.5471 89.9653 18.5138 89.7891 19.5776Z" fill="#5E6E80"/>
<path d="M92.9953 46.7425C92.7016 46.3265 92.0409 46.4488 91.6738 46.5957C89.9187 47.4427 88.2748 48.503 86.7793 49.7526L85.7026 50.5357L85.0173 50.9762L84.7726 51.1231C84.7726 50.0707 84.9194 48.994 84.9684 47.9417C85.0173 46.8893 84.014 47.2075 83.5735 47.4522C82.3565 48.2162 81.2526 49.147 80.2942 50.2176C80.0495 50.4623 79.8047 50.707 79.5355 50.9273L79.3398 51.0496C79.3398 50.756 79.3398 50.3155 79.3398 50.1931V48.7982C79.3398 48.064 78.4343 48.113 77.9448 48.3087C76.604 48.9133 75.3458 49.6863 74.2006 50.6091C73.4175 51.2209 72.6343 51.9306 71.7533 52.4935C71.7533 52.1998 71.9002 51.9306 71.9246 51.8083C72.0505 51.2513 72.2141 50.7035 72.4141 50.1686C72.8027 49.1303 73.3033 48.1374 73.9069 47.2075C74.1761 46.7915 73.6867 46.4488 73.3196 46.3999C73.0771 46.3675 72.8304 46.4056 72.609 46.5098C72.3877 46.614 72.2011 46.7797 72.0715 46.9872C71.1923 48.344 70.5317 49.8305 70.1137 51.3923C69.8445 52.4201 69.1348 54.7205 71.0436 54.4023C71.7413 54.1884 72.3899 53.8392 72.9525 53.3745C73.5888 52.934 74.2006 52.469 74.8124 52.0041C75.5923 51.361 76.4094 50.7644 77.2596 50.2176C77.1707 50.8442 77.2379 51.4831 77.4554 52.0775C77.8714 53.0074 78.9727 52.934 79.7558 52.5425C80.9222 51.7596 81.9761 50.8209 82.8882 49.7526C82.8882 50.0218 82.8882 50.2665 82.8882 50.5357C82.7579 51.0675 82.8096 51.6275 83.0351 52.1264C83.7203 53.1053 85.2131 52.5425 85.9962 52.1264C88.0796 50.5279 90.2802 49.0882 92.5793 47.8193C92.9953 47.5746 93.2645 47.1341 92.9953 46.7425Z" fill="#017455"/>
</g>
<defs>
<clipPath id="clip0_1700_6599">
<rect width="160" height="160" fill="white"/>
</clipPath>
</defs>
</svg>
