<svg width="100" height="101" viewBox="0 0 100 101" fill="none" xmlns="http://www.w3.org/2000/svg">
<g clip-path="url(#clip0_1705_6676)">
<path d="M50.0006 86.9685C73.7967 86.9685 93.0872 72.0264 93.0872 53.5943C93.0872 35.1623 73.7967 20.2202 50.0006 20.2202C26.2046 20.2202 6.91406 35.1623 6.91406 53.5943C6.91406 72.0264 26.2046 86.9685 50.0006 86.9685Z" fill="#E8E8EB"/>
<path d="M26.3538 41.6486C26.2823 43.1609 25.6144 44.5831 24.4963 45.6037C23.3782 46.6244 21.9011 47.1602 20.3886 47.0937C18.8736 47.1644 17.3925 46.6304 16.2711 45.6094C15.1496 44.5883 14.4796 43.1636 14.4082 41.6486C14.4082 38.5896 17.0849 33.6646 20.3886 33.6646C23.6924 33.6646 26.3538 38.6814 26.3538 41.6486Z" fill="white"/>
<path d="M18.3544 38.4826C18.3402 39.38 18.0981 40.2589 17.6508 41.0369C17.5432 41.2494 17.4205 41.4538 17.2837 41.6487L17.1767 41.7864L16.9472 42.0464L16.7178 42.2606L16.5954 42.3523H16.519H16.3813C16.2284 42.4288 16.4731 42.3523 16.3813 42.3523C16.1366 42.3523 16.2895 42.3523 16.3813 42.3523C16.0754 42.3523 15.586 42.5512 15.5248 42.9183C15.4636 43.2853 15.953 43.3924 16.2131 43.3465C16.8012 43.214 17.3529 42.9534 17.8287 42.5833C18.3046 42.2132 18.693 41.7426 18.9662 41.2052C19.5375 40.2847 19.8542 39.2291 19.8839 38.1461C19.8839 37.7944 19.5015 37.6873 19.1956 37.7332C18.8897 37.7791 18.3391 37.9473 18.3391 38.2991L18.3544 38.4826Z" fill="#F0D4DD"/>
<path d="M21.628 38.1003C22.1436 38.7638 22.4138 39.5852 22.3928 40.4252C22.4053 41.268 22.2707 42.1065 21.9951 42.903C21.8727 43.2242 22.4846 43.2395 22.6528 43.2242C22.821 43.2089 23.4023 43.0407 23.5246 42.7042C23.817 41.8379 23.9517 40.9261 23.9223 40.0122C23.9397 39.1036 23.6304 38.2189 23.0505 37.5191C22.6987 37.1214 21.2456 37.6721 21.628 38.1003Z" fill="#F0D4DD"/>
<path d="M29.2284 63.5054C29.1372 65.3287 28.3286 67.0419 26.9789 68.2712C25.6293 69.5005 23.8482 70.1461 22.0244 70.0671C20.2005 70.1461 18.4194 69.5005 17.0698 68.2712C15.7201 67.0419 14.9115 65.3287 14.8203 63.5054C14.8203 59.8805 18.0476 53.8848 22.0244 53.8848C26.0011 53.8848 29.2284 59.8805 29.2284 63.5054Z" fill="white"/>
<path d="M19.6381 59.6358C19.6171 60.7117 19.3223 61.7645 18.7815 62.6948C18.6484 62.9482 18.5003 63.1933 18.338 63.429C18.338 63.429 18.2003 63.6279 18.338 63.5055C18.3011 63.5643 18.2602 63.6205 18.2156 63.6737L17.9403 63.9796C17.8508 64.0742 17.7536 64.1612 17.6497 64.2397L17.512 64.3467H17.405H17.252C17.0532 64.4385 17.3591 64.3467 17.252 64.3467C16.9614 64.3467 17.145 64.3467 17.252 64.3467C16.8696 64.3467 16.2884 64.5762 16.2272 65.035C16.1661 65.4939 16.732 65.6009 17.0532 65.5551C17.7565 65.4062 18.4191 65.1061 18.9949 64.6756C19.5706 64.2451 20.0459 63.6945 20.3875 63.0619C21.0746 61.9628 21.4597 60.7019 21.5041 59.4064C21.5041 58.9781 21.0452 58.8558 20.6628 58.9016C20.2805 58.9475 19.6381 59.1617 19.6381 59.5899V59.6358Z" fill="#F0D4DD"/>
<path d="M23.5394 59.1767C24.1666 59.9719 24.4918 60.9636 24.4571 61.9758C24.4865 63.0171 24.3205 64.0547 23.9677 65.0348C23.83 65.4325 24.5489 65.4478 24.763 65.4172C24.9772 65.3866 25.6807 65.203 25.8184 64.8054C26.1761 63.7527 26.3368 62.6431 26.2925 61.5322C26.3282 60.4201 25.9586 59.333 25.2525 58.4732C24.8242 58.0143 23.0653 58.6873 23.5394 59.192V59.1767Z" fill="#F0D4DD"/>
<path d="M50.0009 64.0101C62.2833 64.0101 72.2402 57.8949 72.2402 50.3515C72.2402 42.808 62.2833 36.6929 50.0009 36.6929C37.7186 36.6929 27.7617 42.808 27.7617 50.3515C27.7617 57.8949 37.7186 64.0101 50.0009 64.0101Z" fill="#EEC695"/>
<path d="M82.5947 69.0576C83.6548 68.2965 84.413 67.1864 84.7361 65.9221C85.2447 64.0147 85.1322 61.9948 84.4149 60.1558C83.758 58.2965 82.5326 56.6911 80.9123 55.5672C80.2344 55.0764 79.4495 54.7539 78.6224 54.6262C77.7954 54.4985 76.9498 54.5694 76.1555 54.833C73.0964 55.9496 71.8575 60.1864 73.3564 64.2549C74.0067 66.1177 75.2336 67.725 76.859 68.8434C77.9006 69.5813 79.1645 69.9378 80.4381 69.8529C82.9924 76.9193 85.562 83.9704 88.2693 90.9909C88.6363 91.9239 90.7777 91.098 90.4106 90.165C87.6575 83.1445 85.0879 76.1087 82.5947 69.0576Z" fill="#CE995E"/>
<path d="M72.2402 26.583H27.7617V50.3517H72.2402V26.583Z" fill="#EEC695"/>
<path d="M50.0009 40.2415C62.2833 40.2415 72.2402 33.4415 72.2402 25.0534C72.2402 16.6652 62.2833 9.86523 50.0009 9.86523C37.7186 9.86523 27.7617 16.6652 27.7617 25.0534C27.7617 33.4415 37.7186 40.2415 50.0009 40.2415Z" fill="#BD657D"/>
<path d="M48.0416 47.6139L47.8581 42.337C47.7051 40.5322 48.3475 39.385 51.2383 36.8154L52.6761 35.5306C53.3352 35.065 53.8707 34.4453 54.2359 33.7256C54.601 33.0059 54.7849 32.2079 54.7715 31.4009C54.7715 29.3514 53.0279 27.7148 49.7853 27.776C47.8309 27.8864 45.948 28.5494 44.3555 29.6879C43.9554 29.9992 43.4629 30.1682 42.956 30.1682C42.449 30.1682 41.9566 29.9992 41.5565 29.6879C40.6541 29.0302 40.5623 28.2348 41.4647 27.5313C43.952 25.6768 46.9734 24.6786 50.0759 24.6864C56.607 24.5334 59.9566 27.2407 60.1096 30.7127C60.2625 34.1847 57.5553 36.1272 55.521 37.8555C53.0279 39.8592 52.2172 40.3486 52.3702 42.0617L52.4773 47.5068C52.569 48.3174 51.6207 48.7916 50.4736 48.8681C49.3264 48.9445 48.1487 48.4092 48.0416 47.6139ZM46.8027 53.5025C46.8027 52.0801 48.3322 50.9329 50.3818 50.9329C52.4314 50.9329 53.8691 52.0801 53.8691 53.5025C53.8691 54.925 52.3396 56.0568 50.3818 56.0568C48.424 56.0568 46.8027 54.8944 46.8027 53.5025Z" fill="#F9ECF0"/>
<path d="M37.3195 78.0513C40.9433 78.0513 43.8811 75.771 43.8811 72.958C43.8811 70.1451 40.9433 67.8647 37.3195 67.8647C33.6956 67.8647 30.7578 70.1451 30.7578 72.958C30.7578 75.771 33.6956 78.0513 37.3195 78.0513Z" fill="#DA87A2"/>
<path d="M41.2961 71.3823C41.2961 71.3823 55.0618 77.271 65.952 73.9366C65.952 73.9366 67.9709 73.6919 67.4815 74.9614C66.992 76.2309 54.9241 80.483 37.3652 75.5273" fill="#DA87A2"/>
<path d="M80.1154 40.2874C81.1122 40.2874 81.9202 39.4794 81.9202 38.4826C81.9202 37.4858 81.1122 36.6777 80.1154 36.6777C79.1186 36.6777 78.3105 37.4858 78.3105 38.4826C78.3105 39.4794 79.1186 40.2874 80.1154 40.2874Z" fill="white"/>
<path d="M84.9181 47.1092C85.9149 47.1092 86.7229 46.3011 86.7229 45.3043C86.7229 44.3076 85.9149 43.4995 84.9181 43.4995C83.9213 43.4995 83.1133 44.3076 83.1133 45.3043C83.1133 46.3011 83.9213 47.1092 84.9181 47.1092Z" fill="white"/>
</g>
<defs>
<clipPath id="clip0_1705_6676">
<rect width="100" height="100" fill="white" transform="translate(0 0.351562)"/>
</clipPath>
</defs>
</svg>
