<svg width="100" height="101" viewBox="0 0 100 101" fill="none" xmlns="http://www.w3.org/2000/svg">
<g clip-path="url(#clip0_1705_6660)">
<path d="M79.0766 88.7118H20.9548C19.729 88.7167 18.5429 88.2782 17.6152 87.477C16.6875 86.6758 16.0809 85.5661 15.9074 84.3526L8.88689 36.1269C8.86048 35.9528 8.87195 35.7751 8.92052 35.6058C8.9691 35.4366 9.05362 35.2798 9.16834 35.1462C9.28305 35.0126 9.42524 34.9053 9.5852 34.8317C9.74517 34.7581 9.91913 34.7199 10.0952 34.7197H89.9056C90.0816 34.7199 90.2556 34.7581 90.4156 34.8317C90.5755 34.9053 90.7177 35.0126 90.8324 35.1462C90.9471 35.2798 91.0317 35.4366 91.0802 35.6058C91.1288 35.7751 91.1403 35.9528 91.1139 36.1269L84.124 84.3526C83.9474 85.5647 83.34 86.6726 82.4129 87.4732C81.4859 88.2738 80.3014 88.7135 79.0766 88.7118Z" fill="#F29A63"/>
<path d="M31.0641 49.5716C31.0641 47.9159 29.7219 46.5737 28.0662 46.5737C26.4105 46.5737 25.0684 47.9159 25.0684 49.5716V58.9628C25.0684 60.6185 26.4105 61.9607 28.0662 61.9607C29.7219 61.9607 31.0641 60.6185 31.0641 58.9628V49.5716Z" fill="#C07143"/>
<path d="M31.0641 69.241C31.0641 67.5853 29.7219 66.2432 28.0662 66.2432C26.4105 66.2432 25.0684 67.5853 25.0684 69.241V78.6323C25.0684 80.2879 26.4105 81.6301 28.0662 81.6301C29.7219 81.6301 31.0641 80.2879 31.0641 78.6323V69.241Z" fill="#C07143"/>
<path d="M45.6871 49.5716C45.6871 47.9159 44.3449 46.5737 42.6893 46.5737C41.0336 46.5737 39.6914 47.9159 39.6914 49.5716V58.9628C39.6914 60.6185 41.0336 61.9607 42.6893 61.9607C44.3449 61.9607 45.6871 60.6185 45.6871 58.9628V49.5716Z" fill="#C07143"/>
<path d="M45.6871 69.241C45.6871 67.5853 44.3449 66.2432 42.6893 66.2432C41.0336 66.2432 39.6914 67.5853 39.6914 69.241V78.6323C39.6914 80.2879 41.0336 81.6301 42.6893 81.6301C44.3449 81.6301 45.6871 80.2879 45.6871 78.6323V69.241Z" fill="#C07143"/>
<path d="M60.3082 49.5716C60.3082 47.9159 58.966 46.5737 57.3104 46.5737C55.6547 46.5737 54.3125 47.9159 54.3125 49.5716V58.9628C54.3125 60.6185 55.6547 61.9607 57.3104 61.9607C58.966 61.9607 60.3082 60.6185 60.3082 58.9628V49.5716Z" fill="#C07143"/>
<path d="M60.3082 69.241C60.3082 67.5853 58.966 66.2432 57.3104 66.2432C55.6547 66.2432 54.3125 67.5853 54.3125 69.241V78.6323C54.3125 80.2879 55.6547 81.6301 57.3104 81.6301C58.966 81.6301 60.3082 80.2879 60.3082 78.6323V69.241Z" fill="#C07143"/>
<path d="M74.9313 49.5716C74.9313 47.9159 73.5891 46.5737 71.9334 46.5737C70.2777 46.5737 68.9355 47.9159 68.9355 49.5716V58.9628C68.9355 60.6185 70.2777 61.9607 71.9334 61.9607C73.5891 61.9607 74.9313 60.6185 74.9313 58.9628V49.5716Z" fill="#C07143"/>
<path d="M74.9313 69.241C74.9313 67.5853 73.5891 66.2432 71.9334 66.2432C70.2777 66.2432 68.9355 67.5853 68.9355 69.241V78.6323C68.9355 80.2879 70.2777 81.6301 71.9334 81.6301C73.5891 81.6301 74.9313 80.2879 74.9313 78.6323V69.241Z" fill="#C07143"/>
<path d="M14.744 40.2871H83.8324C84.9031 40.2871 87.5185 39.0176 85.2549 39.0176H16.1511C15.0805 39.0176 12.4803 40.2871 14.744 40.2871Z" fill="#FDF0E8"/>
<path d="M47.9845 15.4293L43.8386 12.7992C43.1824 12.3829 42.3129 12.5774 41.8966 13.2336L25.5919 38.9357C25.1756 39.5919 25.3701 40.4614 26.0263 40.8777L30.1722 43.5078C30.8285 43.9241 31.698 43.7295 32.1143 43.0733L48.419 17.3713C48.8353 16.715 48.6408 15.8456 47.9845 15.4293Z" fill="#F9D2B9"/>
<path d="M30.254 40.8839C31.4028 40.8839 32.3341 39.9526 32.3341 38.8038C32.3341 37.6549 31.4028 36.7236 30.254 36.7236C29.1051 36.7236 28.1738 37.6549 28.1738 38.8038C28.1738 39.9526 29.1051 40.8839 30.254 40.8839Z" fill="#A05633"/>
<path d="M69.8241 43.5132L73.97 40.8832C74.6262 40.4669 74.8207 39.5974 74.4044 38.9412L58.0997 13.2391C57.6834 12.5829 56.8139 12.3884 56.1577 12.8047L52.0118 15.4347C51.3555 15.851 51.161 16.7205 51.5773 17.3768L67.882 43.0788C68.2983 43.735 69.1678 43.9295 69.8241 43.5132Z" fill="#F9D2B9"/>
<path d="M69.7462 40.8839C70.895 40.8839 71.8263 39.9526 71.8263 38.8038C71.8263 37.6549 70.895 36.7236 69.7462 36.7236C68.5973 36.7236 67.666 37.6549 67.666 38.8038C67.666 39.9526 68.5973 40.8839 69.7462 40.8839Z" fill="#A05633"/>
</g>
<defs>
<clipPath id="clip0_1705_6660">
<rect width="100" height="100" fill="white" transform="translate(0 0.351562)"/>
</clipPath>
</defs>
</svg>
