<svg width="100" height="101" viewBox="0 0 100 101" fill="none" xmlns="http://www.w3.org/2000/svg">
<g clip-path="url(#clip0_1705_6718)">
<path d="M61.9143 11.0581C61.9143 11.0581 51.5594 22.2542 37.3196 11.0581L25.42 14.2854L4.58789 35.6375L17.13 52.2175L29.2132 38.9107L23.6457 77.2557C23.6457 77.2557 53.7008 86.2034 79.4273 74.1967L72.1162 37.2894L83.97 47.4301L95.1507 30.483L74.5175 14.1171L61.9143 11.0581Z" fill="#89C07D"/>
<path d="M50.7807 27.9286C51.8957 27.9286 52.7997 27.0246 52.7997 25.9096C52.7997 24.7945 51.8957 23.8906 50.7807 23.8906C49.6656 23.8906 48.7617 24.7945 48.7617 25.9096C48.7617 27.0246 49.6656 27.9286 50.7807 27.9286Z" fill="white"/>
<path d="M50.7807 36.9681C51.8957 36.9681 52.7997 36.0642 52.7997 34.9491C52.7997 33.8341 51.8957 32.9302 50.7807 32.9302C49.6656 32.9302 48.7617 33.8341 48.7617 34.9491C48.7617 36.0642 49.6656 36.9681 50.7807 36.9681Z" fill="white"/>
<path d="M44.7383 21.3825V41.8475C44.7402 41.8796 44.7485 41.9111 44.7626 41.9401C44.7768 41.969 44.7965 41.9949 44.8206 42.0162C44.8448 42.0375 44.8729 42.0539 44.9034 42.0643C44.9339 42.0747 44.9661 42.079 44.9983 42.0769L54.6802 41.6487C54.9101 41.633 55.1345 41.5707 55.3396 41.4655C55.5447 41.3603 55.7263 41.2145 55.8732 41.0368C56.0108 40.8839 56.332 40.3486 55.8732 40.3639L46.1913 40.8074L46.4513 41.0215V20.5413C46.4513 19.9601 44.7536 20.7707 44.7536 21.3825H44.7383Z" fill="#65A655"/>
<path d="M10.0488 34.8577L16.8246 43.6524L17.7882 44.922C17.9564 45.1514 19.0424 44.7843 18.8589 44.5396L12.129 35.7295L11.1501 34.46C10.9818 34.2459 9.89588 34.613 10.0794 34.8577H10.0488Z" fill="#65A655"/>
<path d="M89.0793 29.4124L81.9824 40.012L80.9576 41.5415C80.8352 41.725 81.3706 41.6791 81.4164 41.6638C81.6718 41.6522 81.9128 41.5426 82.0894 41.3579L89.1864 30.7431L90.1959 29.2136C90.3182 29.03 89.7829 29.0759 89.737 29.0759C89.4853 29.0969 89.2507 29.2115 89.0793 29.3971V29.4124Z" fill="#65A655"/>
<path d="M79.0762 59.2842C81.5504 58.836 84.1 59.074 86.4485 59.9725C87.3203 60.3548 88.9875 61.502 88.7428 62.4044C88.6051 62.9244 87.8557 63.5057 87.3203 63.9339C84.885 65.368 82.2659 66.464 79.5351 67.1918C76.629 68.1401 73.677 68.9355 70.7097 69.6696C69.0273 70.0826 67.3601 70.4803 65.6623 70.8321C64.5917 71.0615 65.4482 72.5145 66.3965 72.3616C71.3599 71.326 76.2578 69.9981 81.0646 68.3848C83.89 67.6197 86.5642 66.3783 88.9722 64.714C89.3498 64.4667 89.6733 64.1454 89.9231 63.7694C90.1729 63.3935 90.3437 62.9707 90.4252 62.5268C90.5323 61.1961 89.2322 59.9266 88.2227 59.2383C85.3286 57.6298 81.9616 57.0884 78.7091 57.7088C77.5926 57.877 77.9902 59.4218 79.015 59.2383L79.0762 59.2842Z" fill="#EAEAEB"/>
<path d="M59.4522 67.895L29.5195 81.156L36.5706 95.824L65.815 84.5668L70.373 72.6365L59.4522 67.895Z" fill="#EAD2B3"/>
<path d="M62.8471 78.9383C64.6126 78.9383 66.0438 77.5071 66.0438 75.7416C66.0438 73.9761 64.6126 72.5449 62.8471 72.5449C61.0816 72.5449 59.6504 73.9761 59.6504 75.7416C59.6504 77.5071 61.0816 78.9383 62.8471 78.9383Z" fill="#75B565"/>
<path d="M64.3323 75.7264C65.0426 76.0789 65.8084 76.3065 66.596 76.3994C67.3674 76.5104 68.1539 76.4471 68.8977 76.2142C69.6415 75.9813 70.3236 75.5846 70.8939 75.0534C71.1998 74.7628 70.8939 74.1663 70.7562 73.9063C70.6186 73.6462 70.1444 73.4015 69.8385 73.6921C69.358 74.1189 68.7903 74.4358 68.1748 74.6207C67.5593 74.8056 66.9109 74.8541 66.2748 74.7628C65.8156 74.6977 65.3645 74.5849 64.9288 74.4263C64.8217 74.4263 64.8523 74.4263 64.9288 74.4263H64.8064H64.6229L64.4852 74.3498C64.4136 74.3029 64.3306 74.2762 64.2451 74.2726C64.1596 74.269 64.0746 74.2886 63.9994 74.3294C63.9241 74.3702 63.8612 74.4306 63.8175 74.5042C63.7738 74.5778 63.7508 74.6619 63.751 74.7475C63.7356 74.9653 63.7802 75.1831 63.88 75.3773C63.9797 75.5715 64.1309 75.7345 64.317 75.8487L64.3323 75.7264Z" fill="#EFEFF1"/>
<path d="M55.1431 73.8124L35.2324 81.4395L38.838 90.852L58.7487 83.225L55.1431 73.8124Z" fill="#F5ECE1"/>
<path d="M42.689 86.4327C42.1383 85.9433 40.6853 84.7196 39.9358 84.0008C40.0582 84.2455 40.1958 84.5361 40.2876 84.7655L41.1594 87.0292C41.2818 87.3657 41.1594 87.641 40.8841 87.7481C40.8155 87.7795 40.7407 87.7952 40.6653 87.7939C40.5898 87.7927 40.5156 87.7745 40.4481 87.7407C40.3806 87.707 40.3215 87.6585 40.2752 87.5989C40.2289 87.5393 40.1965 87.4701 40.1805 87.3963L38.7428 83.6643C38.6892 83.5762 38.6561 83.4772 38.6459 83.3745C38.6358 83.2719 38.6488 83.1683 38.684 83.0714C38.7193 82.9745 38.7758 82.8868 38.8495 82.8146C38.9232 82.7425 39.0122 82.6879 39.1099 82.6548C39.5381 82.4866 39.7982 82.6548 40.2264 83.0219C40.9759 83.6643 42.2913 84.7808 42.9184 85.3467C42.7908 85.1147 42.6784 84.8745 42.5819 84.6279L41.6948 82.303C41.6598 82.2367 41.6396 82.1635 41.6355 82.0886C41.6315 82.0137 41.6437 81.9388 41.6713 81.8691C41.6989 81.7994 41.7412 81.7364 41.7955 81.6846C41.8497 81.6328 41.9145 81.5933 41.9854 81.5688C42.3066 81.4465 42.536 81.5688 42.6737 81.9359L44.1114 85.6832C44.2949 86.1727 44.1114 86.5092 43.729 86.6774C43.5515 86.7481 43.3565 86.7625 43.1705 86.7187C42.9845 86.6749 42.8164 86.5751 42.689 86.4327Z" fill="#946B37"/>
<path d="M48.5622 84.7199L46.3903 85.5458C46.3197 85.5861 46.2407 85.6092 46.1596 85.6134C46.0785 85.6176 45.9975 85.6028 45.9232 85.5701C45.8489 85.5374 45.7832 85.4877 45.7315 85.4251C45.6798 85.3624 45.6435 85.2885 45.6255 85.2093L44.2031 81.4161C44.1628 81.3456 44.1397 81.2666 44.1355 81.1854C44.1313 81.1043 44.1461 81.0234 44.1788 80.949C44.2115 80.8747 44.2612 80.809 44.3238 80.7573C44.3865 80.7056 44.4604 80.6693 44.5396 80.6514L46.6656 79.8866C46.713 79.8619 46.7654 79.8483 46.8188 79.8468C46.8722 79.8454 46.9253 79.8561 46.9739 79.8782C47.0226 79.9003 47.0656 79.9332 47.0996 79.9744C47.1336 80.0156 47.1578 80.0641 47.1703 80.116C47.1982 80.1629 47.2147 80.2157 47.2187 80.2701C47.2226 80.3245 47.2139 80.3791 47.1931 80.4295C47.1723 80.4799 47.1401 80.5249 47.099 80.5607C47.0579 80.5966 47.009 80.6224 46.9562 80.6361L45.4267 81.202V81.2937L45.8703 82.4409L47.2315 81.9209C47.3287 81.8986 47.4307 81.9122 47.5186 81.9592C47.6065 82.0062 47.6744 82.0835 47.7099 82.1767C47.7453 82.2699 47.7458 82.3727 47.7113 82.4663C47.6768 82.5598 47.6096 82.6377 47.5221 82.6856L46.1609 83.2056L46.6656 84.5057H46.7574L48.2869 83.9245C48.3343 83.8998 48.3867 83.8862 48.4401 83.8847C48.4935 83.8833 48.5466 83.894 48.5952 83.9161C48.6439 83.9383 48.6868 83.9712 48.7209 84.0124C48.7549 84.0536 48.7791 84.102 48.7916 84.154C48.8256 84.2039 48.8467 84.2615 48.8531 84.3215C48.8595 84.3816 48.851 84.4423 48.8283 84.4983C48.8056 84.5542 48.7694 84.6038 48.723 84.6424C48.6766 84.6811 48.6214 84.7077 48.5622 84.7199Z" fill="#946B37"/>
<path d="M54.4666 77.5617C54.6501 78.5253 54.956 80.4525 55.0937 81.6303C55.1363 81.8206 55.1047 82.02 55.0052 82.1877C54.9057 82.3555 54.7458 82.4789 54.5583 82.5327C54.3779 82.6249 54.1695 82.6462 53.9742 82.5924C53.7789 82.5386 53.6107 82.4136 53.503 82.2421C52.8453 81.2938 51.9734 79.8713 51.6369 79.3819C51.7593 79.9478 51.9887 81.6456 52.157 82.7621C52.1989 82.9585 52.1635 83.1635 52.0581 83.3345C51.9527 83.5054 51.7854 83.6291 51.5911 83.6798C51.4066 83.7715 51.1945 83.791 50.9964 83.7344C50.7983 83.6778 50.6286 83.5492 50.5204 83.3739C49.9851 82.6244 48.7309 80.682 48.2567 79.9937C48.193 79.8623 48.1783 79.7124 48.2154 79.5712C48.2524 79.43 48.3388 79.3066 48.4589 79.2235C48.5789 79.1404 48.7248 79.103 48.87 79.118C49.0153 79.133 49.1504 79.1995 49.2509 79.3054C49.8474 80.2843 50.4898 81.2479 51.0251 82.1503C51.1034 82.2712 51.1699 82.3992 51.224 82.5327C51.071 81.5079 50.8875 80.3455 50.6275 78.8159C50.6021 78.6588 50.6347 78.4977 50.7191 78.3627C50.8034 78.2277 50.9339 78.1279 51.0863 78.0818C51.1634 78.0345 51.2496 78.004 51.3393 77.9923C51.429 77.9807 51.5202 77.9881 51.6068 78.0141C51.6934 78.0401 51.7736 78.084 51.842 78.1432C51.9105 78.2023 51.9657 78.2752 52.004 78.3571C52.8759 79.6113 53.5336 80.6055 54.1301 81.4926C54.0855 81.3626 54.0497 81.2297 54.023 81.0949C53.8853 80.1925 53.61 78.8159 53.3806 77.7912C53.3041 77.4547 53.3806 77.2252 53.8395 77.1488C53.9079 77.1332 53.9787 77.1316 54.0477 77.1441C54.1167 77.1566 54.1825 77.1829 54.2411 77.2215C54.2997 77.26 54.3499 77.3101 54.3886 77.3686C54.4274 77.427 54.4539 77.4927 54.4666 77.5617Z" fill="#946B37"/>
</g>
<defs>
<clipPath id="clip0_1705_6718">
<rect width="100" height="100" fill="white" transform="translate(0 0.351562)"/>
</clipPath>
</defs>
</svg>
