<svg width="100" height="101" viewBox="0 0 100 101" fill="none" xmlns="http://www.w3.org/2000/svg">
<g clip-path="url(#clip0_1705_6768)">
<path d="M66.901 43.0866C65.9281 43.0984 64.9588 42.9643 64.0255 42.6889C62.389 42.1995 61.3183 41.2359 61.3183 39.9511C61.2816 39.5167 61.3317 39.0793 61.4656 38.6644C61.5996 38.2495 61.8146 37.8654 62.0983 37.5344C62.581 37.0101 63.1751 36.6006 63.8368 36.3359C64.4984 36.0713 65.211 35.9582 65.9221 36.0049C67.4643 35.9926 68.9864 36.3547 70.3577 37.0603C70.8031 37.2718 71.1887 37.5909 71.4798 37.9887C71.7709 38.3866 71.9582 38.8508 72.0249 39.3393C71.9911 39.9886 71.781 40.6165 71.4172 41.1555C71.0534 41.6944 70.5497 42.1241 69.9601 42.3983C69.0151 42.8831 67.9625 43.1199 66.901 43.0866Z" fill="#EAEDCB"/>
<path d="M88.1777 19.5621C87.3745 22.0157 85.9334 24.2117 84.0021 25.9249C81.7429 27.8109 79.1088 29.1953 76.2741 29.9864C73.4395 30.7775 70.4691 30.9571 67.5598 30.5135C63.4301 30.0546 58.3827 29.2134 55.3236 27.2709C50.8421 24.3495 48.7773 21.8258 50.1385 17.5584C51.7619 13.4491 54.8445 10.0834 58.7956 8.10601C62.8964 6.06999 67.4818 5.21221 72.0413 5.62819C78.4041 6.34706 83.9256 8.79429 86.6635 12.2204C87.5248 13.2113 88.1166 14.4072 88.3818 15.693C88.647 16.9789 88.5767 18.3113 88.1777 19.5621Z" fill="#EAEDCB"/>
<path d="M78.4948 83.6798C79.3361 67.7575 86.4024 52.6917 90.731 37.5341C91.404 35.2093 87.0142 35.8364 86.5248 37.5341C84.2764 45.4112 81.4774 53.12 79.076 60.9511C76.6747 68.7822 74.4875 76.4604 74.0898 84.4751C73.9827 86.5553 78.4031 85.4999 78.5101 83.6645L78.4948 83.6798Z" fill="#C8C9CA"/>
<path d="M81.2477 37.06C79.3829 39.5418 78.3546 42.5518 78.311 45.6559C78.1724 47.2344 78.2496 48.8244 78.5404 50.3821C78.6847 51.5117 79.227 52.553 80.0699 53.3188C80.7168 53.6915 81.4274 53.9405 82.1654 54.0529C83.0876 54.2721 84.0318 54.385 84.9797 54.3894C86.5841 54.3756 88.1603 53.9658 89.5683 53.1964C91.8882 51.7402 93.5377 49.4253 94.1568 46.7571C94.7785 44.2019 95.1727 41.5966 95.3346 38.9719C95.4569 37.7482 92.1837 38.5895 92.0614 39.6907C91.8472 41.725 91.7096 43.7746 91.3119 45.8088C90.9892 47.9372 90.0899 49.9367 88.7117 51.5904C88.7117 51.5904 88.3752 51.8963 88.62 51.6822L88.3141 51.9269L87.9929 52.141C88.3446 51.9116 87.9164 52.141 87.9011 52.141C87.8858 52.141 88.1458 52.141 87.9011 52.141L87.5187 52.2787C87.9317 52.141 87.5187 52.2787 87.4116 52.2787L87.1822 52.3552C85.8659 52.4675 84.5415 52.2738 83.3125 51.7892C82.716 51.5445 82.2266 50.5044 82.0124 49.7091C81.6791 48.4219 81.5501 47.0902 81.6301 45.7629C81.6748 44.0876 81.9213 42.4237 82.3642 40.8073C82.665 39.5206 83.233 38.3116 84.0314 37.2588C84.475 36.7541 84.322 36.2493 83.6337 36.1728C83.2151 36.1459 82.7954 36.2052 82.4007 36.3473C82.0061 36.4894 81.6448 36.7112 81.3394 36.9988L81.2477 37.06Z" fill="#C8C9CA"/>
<path d="M81.5084 74.3345C81.5084 74.3345 76.9198 70.8013 73.0807 71.7955C69.2416 72.7897 74.3808 77.1335 74.3808 77.1335C74.3808 77.1335 70.0522 78.4948 70.144 79.642C70.2358 80.7891 75.2832 84.5364 80.9424 81.6762C81.821 80.6798 82.3514 79.4245 82.4535 78.1C82.5556 76.7755 82.2239 75.4538 81.5084 74.3345Z" fill="#422B23"/>
<path d="M79.9932 44.7842L92.8259 46.176C92.8259 46.176 89.981 55.0473 83.4958 53.6401C77.0107 52.2329 79.9932 44.7842 79.9932 44.7842Z" fill="#C8C9CA"/>
<path d="M85.4235 54.3438C84.7373 54.4024 84.0462 54.356 83.374 54.2062C82.5532 54.0743 81.7725 53.7599 81.0895 53.286C80.4066 52.8122 79.8387 52.191 79.4278 51.4683C77.8983 48.5928 79.4278 44.7384 79.4278 44.5702L79.5961 44.1572L93.5606 45.6867L93.3465 46.3597C93.3006 46.4362 90.8839 53.885 85.4235 54.3438ZM80.3914 45.3961C79.7115 47.1791 79.7115 49.15 80.3914 50.933C80.7252 51.5088 81.1846 52.0018 81.7355 52.3752C82.2863 52.7486 82.9144 52.9928 83.5728 53.0896C88.452 54.145 91.2204 48.6234 91.9852 46.6656L80.3914 45.3961Z" fill="#C8C9CA"/>
<path d="M68.3078 20.9236V20.3882C68.2314 19.4858 68.5067 18.6905 69.9597 17.4057L70.6786 16.7633C71.0108 16.5289 71.2806 16.2168 71.4646 15.8542C71.6485 15.4917 71.741 15.0896 71.734 14.6831C71.734 13.6583 70.8621 12.8324 69.2409 12.863C68.2498 12.9141 67.2943 13.2486 66.4877 13.8266C66.2844 13.978 66.0377 14.0598 65.7841 14.0598C65.5306 14.0598 65.2839 13.978 65.0806 13.8266C64.637 13.4901 64.5911 13.0924 65.0806 12.7406C66.3332 11.8121 67.8499 11.3083 69.4091 11.3029C72.6823 11.2264 74.3494 12.5877 74.4259 14.3619C74.5024 16.1362 73.1564 17.0845 72.1011 17.941C71.0457 18.7975 70.4492 19.4705 70.5715 20.3882V20.893C70.5715 21.3059 70.1433 21.5354 69.5621 21.5813C68.9808 21.6271 68.369 21.3212 68.3078 20.9236ZM67.696 23.8755C67.696 23.1567 68.4914 22.5907 69.4856 22.5907C70.4798 22.5907 71.2445 23.1567 71.2445 23.8755C71.2445 24.5944 70.4339 25.1603 69.4856 25.1603C68.5373 25.1603 67.696 24.5791 67.696 23.8755Z" fill="#706556"/>
<path d="M19.0421 69.0117C16.6985 71.0661 14.0183 72.7011 11.1192 73.8449C11.0011 73.8816 10.8921 73.943 10.7995 74.025C10.707 74.107 10.6329 74.2078 10.5823 74.3206C10.5316 74.4335 10.5056 74.5558 10.5059 74.6795C10.5061 74.8031 10.5327 74.9254 10.5838 75.038C11.0772 76.0244 11.7975 76.8797 12.6855 77.5338C13.5736 78.1879 14.6041 78.622 15.6924 78.8006C21.7187 80.1007 26.2002 74.8391 26.2002 74.8391C26.2002 74.8391 26.7356 68.2622 19.0421 69.0117Z" fill="#E9C4AA"/>
<path d="M47.5678 47.3997C50.2358 45.7823 52.6012 43.7119 54.5577 41.2816C54.6261 41.179 54.7162 41.0928 54.8217 41.0289C54.9271 40.9651 55.0453 40.9251 55.1679 40.912C55.2904 40.8989 55.4144 40.9128 55.531 40.9529C55.6476 40.993 55.7539 41.0582 55.8425 41.1439C56.636 41.9091 57.2368 42.8514 57.5957 43.8936C57.9546 44.9358 58.0614 46.0482 57.9073 47.1397C57.3261 53.2577 50.9786 55.965 50.9786 55.965C50.9786 55.965 44.5393 54.5119 47.5678 47.3997Z" fill="#E9C4AA"/>
<path d="M18.8438 67.8184C19.8096 73.0529 22.0729 77.9616 25.4263 82.0953C28.7798 86.229 33.1163 89.4557 38.0392 91.4801C41.8488 93.0402 45.9868 93.6278 50.0801 93.1899C54.1734 92.752 58.0934 91.3024 61.4868 88.9717C61.4868 88.9717 76.782 79.3204 54.7722 52.9668C54.7722 52.9668 48.0576 46.7264 42.536 48.5006C42.5666 48.5006 20.6333 50.9631 18.8438 67.8184Z" fill="#E9C4AA"/>
<path d="M50.3664 85.1938C50.2537 85.1923 50.1449 85.1519 50.0585 85.0794C49.9721 85.007 49.9134 84.9069 49.8923 84.7962C49.87 84.6724 49.8978 84.5449 49.9695 84.4417C50.0412 84.3384 50.1509 84.2679 50.2747 84.2455C50.2747 84.2455 54.5573 83.4349 55.7809 80.4829C55.8044 80.4242 55.8394 80.3707 55.8838 80.3257C55.9282 80.2806 55.9812 80.245 56.0397 80.2207C56.0981 80.1965 56.1608 80.1842 56.2241 80.1846C56.2873 80.185 56.3499 80.198 56.408 80.2229C56.524 80.2735 56.6159 80.3671 56.6644 80.484C56.7129 80.601 56.7142 80.7321 56.668 80.85C55.2456 84.2914 50.6417 85.148 50.4429 85.1938H50.3664Z" fill="#E17E7C"/>
<path d="M57.5107 89.859C57.4163 89.8602 57.3236 89.8332 57.2445 89.7815C57.1655 89.7297 57.1038 89.6555 57.0672 89.5684C56.1369 87.4434 54.9504 85.4402 53.534 83.6032C53.4434 83.5116 53.3926 83.3879 53.3926 83.2591C53.3926 83.1302 53.4434 83.0066 53.534 82.9149C53.6357 82.842 53.7609 82.8094 53.8852 82.8235C54.0096 82.8377 54.1243 82.8975 54.207 82.9914C55.6756 84.8734 56.9084 86.928 57.8778 89.1095C57.9028 89.1677 57.9158 89.2302 57.9162 89.2935C57.9165 89.3567 57.9042 89.4194 57.88 89.4779C57.8558 89.5363 57.8201 89.5893 57.7751 89.6337C57.73 89.6782 57.6766 89.7131 57.6178 89.7366L57.5107 89.859Z" fill="#E17E7C"/>
<path d="M35.1635 74.7319C36.8277 74.7319 38.1767 73.3828 38.1767 71.7187C38.1767 70.0546 36.8277 68.7056 35.1635 68.7056C33.4994 68.7056 32.1504 70.0546 32.1504 71.7187C32.1504 73.3828 33.4994 74.7319 35.1635 74.7319Z" fill="#4A1D0E"/>
<path d="M50.8413 64.6528C52.5054 64.6528 53.8544 63.3037 53.8544 61.6396C53.8544 59.9755 52.5054 58.6265 50.8413 58.6265C49.1772 58.6265 47.8281 59.9755 47.8281 61.6396C47.8281 63.3037 49.1772 64.6528 50.8413 64.6528Z" fill="#4A1D0E"/>
<path d="M19.4251 38.9261C17.3755 37.9625 12.2975 36.1424 8.10664 39.3238C6.72431 40.3757 5.6608 41.7903 5.03435 43.4104C4.4079 45.0306 4.24306 46.7927 4.55815 48.5009C4.9177 50.2025 5.7234 51.7778 6.89259 53.0652C8.06179 54.3527 9.55241 55.306 11.2116 55.8273C11.4479 55.9199 11.6429 56.0946 11.7609 56.3193C11.8789 56.5441 11.9119 56.8038 11.854 57.0509C11.4905 58.6619 11.5411 60.3387 12.0012 61.9248C12.4612 63.5109 13.3157 64.9545 14.4847 66.121C15.8345 67.6023 17.5803 68.6661 19.5156 69.1865C21.4509 69.7069 23.4948 69.6622 25.4055 69.0576C28.0836 68.0795 30.4427 66.3868 32.2272 64.1632C32.3517 64.0063 32.5195 63.8894 32.7098 63.8269C32.9001 63.7644 33.1045 63.759 33.2978 63.8114C34.4942 64.1752 35.7592 64.2541 36.9915 64.0416C38.2238 63.8291 39.3893 63.3312 40.3948 62.5878C41.2535 61.8825 41.9446 60.9952 42.4181 59.9899C42.8916 58.9847 43.1357 57.8868 43.1326 56.7756C43.1352 56.5498 43.209 56.3306 43.3436 56.1493C43.4782 55.968 43.6667 55.8338 43.8821 55.7661C45.7481 55.1543 50.3214 53.1965 49.4649 48.3785C49.2049 46.6943 48.3694 45.1521 47.1006 44.0144C45.8318 42.8766 44.2081 42.2136 42.5055 42.1381C42.2833 42.115 42.0738 42.0229 41.9065 41.8748C41.7392 41.7267 41.6224 41.53 41.5725 41.3122C41.0678 39.1249 39.11 33.0069 32.686 32.3033C30.3095 32.0495 27.9109 32.5053 25.7931 33.6132C23.6753 34.7211 21.9331 36.4314 20.7864 38.5284C20.6519 38.7546 20.4366 38.9215 20.184 38.9952C19.9314 39.069 19.6602 39.0443 19.4251 38.9261Z" fill="#FDF8E2"/>
<path d="M22.2696 70.0213C20.74 70.0081 19.2291 69.6825 17.8299 69.0644C16.4306 68.4463 15.1724 67.5488 14.1325 66.4269C12.918 65.2021 12.0297 63.6924 11.5487 62.0359C11.0678 60.3793 11.0096 58.6287 11.3794 56.9439C11.4146 56.808 11.3982 56.664 11.3332 56.5396C11.2681 56.4153 11.1593 56.3195 11.0276 56.2709C9.29819 55.7224 7.74474 54.726 6.5251 53.3828C5.30546 52.0396 4.4631 50.3975 4.0836 48.6233C3.74072 46.8175 3.90834 44.9518 4.56763 43.236C5.22692 41.5203 6.35174 40.0224 7.81563 38.9108C12.2206 35.5612 17.5434 37.4731 19.6235 38.4673C19.7568 38.5246 19.9065 38.5314 20.0444 38.4864C20.1824 38.4413 20.2992 38.3475 20.373 38.2225C21.0688 37.0509 21.9348 35.989 22.9426 35.0717C22.9867 35.0273 23.0391 34.9921 23.0968 34.9681C23.1546 34.944 23.2165 34.9316 23.2791 34.9316C23.3416 34.9316 23.4036 34.944 23.4613 34.9681C23.5191 34.9921 23.5715 35.0273 23.6156 35.0717C23.66 35.1158 23.6952 35.1682 23.7192 35.226C23.7433 35.2837 23.7557 35.3457 23.7557 35.4082C23.7557 35.4708 23.7433 35.5327 23.7192 35.5905C23.6952 35.6482 23.66 35.7007 23.6156 35.7447C22.6947 36.6084 21.9062 37.6031 21.2754 38.6967C21.0871 39.0398 20.7743 39.2977 20.4016 39.4172C20.0289 39.5367 19.6245 39.5087 19.2717 39.3391C17.3445 38.4214 12.4501 36.6471 8.45803 39.6756C7.13766 40.679 6.12326 42.0308 5.52884 43.579C4.93442 45.1272 4.78351 46.8105 5.09309 48.4397C5.43383 50.0529 6.19463 51.5475 7.2985 52.7723C8.40237 53.997 9.81016 54.9084 11.3794 55.4144C11.7253 55.5454 12.012 55.7974 12.1863 56.1236C12.3607 56.4498 12.4109 56.8282 12.3277 57.1886C11.9797 58.7141 12.0274 60.3032 12.4665 61.805C12.9055 63.3068 13.7212 64.6714 14.8361 65.7692C16.1245 67.1806 17.7898 68.1941 19.6353 68.69C21.4809 69.186 23.4298 69.1437 25.2522 68.5682C27.8484 67.617 30.1338 65.9717 31.8597 63.8114C32.0442 63.5961 32.2849 63.4362 32.555 63.3498C32.8251 63.2634 33.1139 63.2537 33.3892 63.322C34.5131 63.6573 35.6991 63.7297 36.8555 63.5334C38.0118 63.3371 39.1076 62.8775 40.0579 62.1901C40.8628 61.5261 41.5106 60.6921 41.9549 59.748C42.3992 58.8039 42.6289 57.7732 42.6275 56.7297C42.6121 56.3924 42.7087 56.0594 42.9024 55.7827C43.0961 55.506 43.3759 55.3012 43.6982 55.2002C45.5336 54.6037 49.7398 52.7683 48.9597 48.3633C48.73 46.6403 47.8351 45.0757 46.4666 44.0041C46.4164 43.966 46.3742 43.9183 46.3424 43.8638C46.3106 43.8093 46.2899 43.7491 46.2813 43.6866C46.2728 43.6242 46.2767 43.5606 46.2927 43.4996C46.3088 43.4386 46.3367 43.3814 46.3748 43.3311C46.413 43.2809 46.4607 43.2387 46.5151 43.2069C46.5696 43.1751 46.6298 43.1544 46.6923 43.1459C46.7548 43.1374 46.8184 43.1412 46.8794 43.1573C46.9404 43.1733 46.9976 43.2012 47.0478 43.2394C48.6065 44.4589 49.6318 46.2353 49.908 48.195C50.8257 53.3495 46.0689 55.4449 43.9888 56.1179C43.8718 56.1543 43.7699 56.2277 43.6981 56.327C43.6264 56.4262 43.5889 56.5461 43.5911 56.6686C43.585 57.8406 43.32 58.9968 42.815 60.0545C42.3099 61.1121 41.5774 62.0451 40.6697 62.7866C39.606 63.5798 38.3708 64.112 37.0637 64.3405C35.7567 64.569 34.4142 64.4873 33.1445 64.102C33.0387 64.081 32.9292 64.0883 32.8271 64.1232C32.725 64.1581 32.634 64.2194 32.5633 64.3009C30.7147 66.5856 28.2841 68.3293 25.5275 69.3483C24.4841 69.7442 23.3844 69.9714 22.2696 70.0213Z" fill="#F6F1D8"/>
<path d="M35.5927 80.5441C34.1278 80.5461 32.6883 80.1627 31.4184 79.4325C30.1486 78.7023 29.0931 77.6509 28.358 76.3839C27.2597 74.468 26.965 72.1951 27.5383 70.0625C28.1116 67.9299 29.5062 66.1112 31.4171 65.0042C33.332 63.9018 35.6062 63.6048 37.74 64.1784C39.8739 64.752 41.6926 66.1493 42.7967 68.0633C43.3422 69.0103 43.6958 70.0555 43.8373 71.1392C43.9788 72.2228 43.9054 73.3238 43.6213 74.3791C43.3372 75.4344 42.848 76.4235 42.1817 77.2897C41.5153 78.1559 40.6848 78.8824 39.7377 79.4276C38.4797 80.1613 37.049 80.5467 35.5927 80.5441ZM35.5927 65.1419C34.0329 65.1396 32.5161 65.6523 31.2776 66.6004C30.0391 67.5485 29.1482 68.879 28.7433 70.3853C28.3384 71.8915 28.4422 73.4894 29.0384 74.9306C29.6346 76.3719 30.69 77.576 32.0407 78.3561C33.3914 79.1361 34.9618 79.4484 36.5082 79.2444C38.0545 79.0405 39.4903 78.3317 40.5926 77.2282C41.6949 76.1247 42.402 74.6881 42.6042 73.1415C42.8064 71.5949 42.4923 70.0249 41.7107 68.6751C41.0881 67.5966 40.1915 66.7018 39.1117 66.0813C38.0319 65.4609 36.8074 65.1368 35.5621 65.1419H35.5927Z" fill="#64B96D"/>
<path d="M51.1019 70.373C49.0905 70.369 47.1492 69.634 45.6397 68.3048C44.1302 66.9756 43.1553 65.1429 42.8969 63.1483C42.6384 61.1536 43.1139 59.133 44.2348 57.463C45.3558 55.793 47.0456 54.5874 48.9895 54.0709C50.9334 53.5545 52.9987 53.7623 54.8007 54.6558C56.6027 55.5493 58.0184 57.0674 58.784 58.9273C59.5497 60.7872 59.613 62.8621 58.9622 64.7652C58.3115 66.6683 56.991 68.27 55.2469 69.2717C53.9857 69.996 52.5562 70.3758 51.1019 70.373ZM51.1019 54.9707C49.5425 54.9665 48.0253 55.477 46.7858 56.4232C45.5463 57.3693 44.6537 58.6981 44.2466 60.2034C43.8394 61.7087 43.9405 63.3062 44.5341 64.7482C45.1277 66.1901 46.1807 67.3959 47.5296 68.1782C48.8785 68.9606 50.4479 69.2758 51.9943 69.0751C53.5407 68.8743 54.9776 68.1688 56.082 67.0679C57.1864 65.9671 57.8966 64.5325 58.1024 62.9868C58.3081 61.441 57.9979 59.8706 57.2199 58.5192C56.7563 57.7127 56.1379 57.0057 55.4004 56.4388C54.6628 55.8718 53.8206 55.4561 52.922 55.2154C52.3188 55.0515 51.6963 54.9691 51.0713 54.9707H51.1019Z" fill="#64B96D"/>
<path d="M40.6394 66.3351L39.584 65.6621C40.0335 64.9989 40.6278 64.4464 41.322 64.0464C42.0162 63.6463 42.7921 63.409 43.5913 63.3525V64.5915C43.0034 64.6547 42.4358 64.843 41.9266 65.1438C41.4175 65.4445 40.9785 65.8507 40.6394 66.3351Z" fill="#64B96D"/>
<path d="M57.6327 68.1094C57.5376 68.1056 57.4441 68.0825 57.3581 68.0416C57.2721 68.0007 57.1953 67.9427 57.1324 67.8712C57.0695 67.7997 57.0217 67.7161 56.9921 67.6256C56.9624 67.5351 56.9514 67.4395 56.9597 67.3446L57.1586 64.4079C57.1644 64.3135 57.1889 64.2211 57.2305 64.1361C57.2721 64.0511 57.3301 63.9751 57.4012 63.9126C57.4722 63.8501 57.5549 63.8022 57.6445 63.7717C57.7341 63.7412 57.8289 63.7287 57.9233 63.735C58.0185 63.7387 58.1119 63.7618 58.1979 63.8027C58.2839 63.8437 58.3607 63.9017 58.4236 63.9732C58.4866 64.0447 58.5343 64.1282 58.564 64.2187C58.5937 64.3092 58.6047 64.4048 58.5963 64.4997L58.3975 67.4364C58.3819 67.6257 58.2934 67.8016 58.1508 67.9271C58.0082 68.0526 57.8225 68.1179 57.6327 68.1094Z" fill="#E17E7C"/>
<path d="M60.2468 67.3597C60.0547 67.3441 59.8765 67.2535 59.7506 67.1075C59.6246 66.9616 59.5612 66.772 59.5739 66.5797L59.7727 63.643C59.7883 63.4537 59.8767 63.2778 60.0194 63.1523C60.162 63.0268 60.3477 62.9614 60.5375 62.97C60.6319 62.9758 60.7243 63.0003 60.8093 63.0419C60.8943 63.0835 60.9703 63.1415 61.0328 63.2126C61.0953 63.2836 61.1432 63.3663 61.1737 63.4559C61.2042 63.5456 61.2167 63.6403 61.2104 63.7347L61.0116 66.6867C61.0078 66.7819 60.9848 66.8753 60.9438 66.9613C60.9029 67.0473 60.8449 67.1241 60.7734 67.187C60.7019 67.25 60.6183 67.2977 60.5278 67.3274C60.4373 67.3571 60.3417 67.3681 60.2468 67.3597Z" fill="#E17E7C"/>
<path d="M30.7585 84.7507C30.6641 84.7448 30.5717 84.7204 30.4867 84.6787C30.4017 84.6371 30.3257 84.5791 30.2632 84.5081C30.2007 84.437 30.1528 84.3543 30.1223 84.2647C30.0918 84.1751 30.0793 84.0803 30.0855 83.9859L30.2844 81.0339C30.2902 80.9394 30.3146 80.8471 30.3563 80.7621C30.3979 80.6771 30.4559 80.6011 30.527 80.5386C30.598 80.476 30.6807 80.4282 30.7703 80.3977C30.8599 80.3672 30.9547 80.3547 31.0491 80.3609C31.2413 80.3766 31.4195 80.4671 31.5454 80.6131C31.6713 80.759 31.7348 80.9486 31.7221 81.141L31.5233 84.0777C31.5175 84.1721 31.493 84.2645 31.4514 84.3495C31.4098 84.4345 31.3517 84.5105 31.2807 84.573C31.2096 84.6355 31.1269 84.6834 31.0373 84.7139C30.9477 84.7444 30.853 84.7569 30.7585 84.7507Z" fill="#E17E7C"/>
<path d="M33.3749 84.0161C33.2797 84.0123 33.1863 83.9893 33.1003 83.9483C33.0143 83.9074 32.9375 83.8494 32.8746 83.7779C32.8117 83.7064 32.7639 83.6229 32.7343 83.5323C32.7046 83.4418 32.6936 83.3462 32.7019 83.2514L32.9008 80.3147C32.9066 80.2202 32.931 80.1278 32.9727 80.0428C33.0143 79.9578 33.0723 79.8819 33.1434 79.8193C33.2144 79.7568 33.2971 79.7089 33.3867 79.6784C33.4763 79.648 33.5711 79.6355 33.6655 79.6417C33.7607 79.6455 33.8541 79.6685 33.9401 79.7095C34.0261 79.7504 34.1029 79.8084 34.1658 79.8799C34.2288 79.9514 34.2765 80.035 34.3062 80.1255C34.3359 80.216 34.3469 80.3116 34.3385 80.4065L34.1397 83.3584C34.1339 83.4523 34.1094 83.544 34.0676 83.6282C34.0258 83.7125 33.9675 83.7875 33.8962 83.8488C33.8249 83.9101 33.742 83.9565 33.6525 83.9852C33.563 84.014 33.4686 84.0245 33.3749 84.0161Z" fill="#E17E7C"/>
<path d="M47.5674 93.3924C46.5983 93.0207 45.6705 92.5491 44.799 91.9853C43.7495 91.2745 42.8886 90.3191 42.2906 89.2016C42.0153 88.7274 41.6482 88.2838 41.2046 88.345C40.3022 88.4827 39.9504 90.0428 42.5047 92.9336C44.1708 93.2688 45.8682 93.4227 47.5674 93.3924Z" fill="#E17E7C"/>
<path d="M22.2696 70.0213C20.74 70.0081 19.2291 69.6825 17.8299 69.0644C16.4306 68.4463 15.1724 67.5488 14.1325 66.4269C12.918 65.2021 12.0297 63.6924 11.5487 62.0359C11.0678 60.3794 11.0096 58.6287 11.3794 56.9439C11.4146 56.8081 11.3982 56.664 11.3332 56.5396C11.2682 56.4153 11.1593 56.3195 11.0276 56.2709C9.29819 55.7225 7.74474 54.726 6.5251 53.3828C5.30546 52.0396 4.4631 50.3975 4.0836 48.6233C3.74072 46.8175 3.90834 44.9518 4.56763 43.2361C5.22692 41.5203 6.35174 40.0224 7.81563 38.9109C12.2206 35.5612 17.5434 37.4731 19.6235 38.4673C19.7568 38.5247 19.9065 38.5315 20.0445 38.4864C20.1824 38.4414 20.2992 38.3476 20.373 38.2226C21.5673 36.0448 23.3799 34.2695 25.5821 33.1208C27.7843 31.972 30.2774 31.5013 32.7468 31.768C39.5532 32.5175 41.5721 39.1403 42.0463 41.144C42.0697 41.2632 42.1319 41.3714 42.2232 41.4517C42.3145 41.5319 42.4297 41.5797 42.551 41.5875C44.3623 41.6699 46.0888 42.3782 47.4361 43.5915C48.7833 44.8049 49.6678 46.4482 49.9386 48.2409C50.8563 53.3954 46.0995 55.4909 44.0194 56.1638C43.9024 56.2002 43.8004 56.2736 43.7287 56.3729C43.657 56.4722 43.6195 56.592 43.6217 56.7145C43.6156 57.8865 43.3506 59.0427 42.8455 60.1004C42.3405 61.158 41.608 62.091 40.7003 62.8325C39.6366 63.6257 38.4014 64.1579 37.0943 64.3864C35.7873 64.6149 34.4448 64.5332 33.1751 64.1479C33.0693 64.1269 32.9598 64.1342 32.8577 64.1691C32.7556 64.204 32.6646 64.2653 32.5939 64.3468C30.7453 66.6315 28.3147 68.3753 25.5581 69.3942C24.5025 69.7776 23.3922 69.9893 22.2696 70.0213ZM13.5972 38.0084C11.7227 37.9768 9.89164 38.5746 8.39685 39.7062C7.07647 40.7096 6.06208 42.0614 5.46766 43.6096C4.87324 45.1578 4.72233 46.8411 5.03191 48.4704C5.38288 50.0851 6.15503 51.5781 7.2699 52.7977C8.38477 54.0174 9.80263 54.9202 11.3794 55.4144C11.7253 55.5455 12.012 55.7974 12.1863 56.1237C12.3607 56.4499 12.4109 56.8282 12.3277 57.1886C11.9797 58.7141 12.0274 60.3032 12.4665 61.805C12.9055 63.3068 13.7212 64.6714 14.8361 65.7692C16.1245 67.1806 17.7898 68.1941 19.6353 68.6901C21.4809 69.186 23.4298 69.1437 25.2522 68.5682C27.8484 67.617 30.1338 65.9717 31.8597 63.8114C32.0442 63.5961 32.2849 63.4363 32.555 63.3498C32.8251 63.2634 33.1139 63.2538 33.3892 63.322C34.5131 63.6573 35.6991 63.7297 36.8555 63.5334C38.0119 63.3372 39.1076 62.8776 40.0579 62.1902C40.8628 61.5262 41.5106 60.6922 41.9549 59.7481C42.3992 58.804 42.6289 57.7732 42.6275 56.7298C42.6121 56.3924 42.7087 56.0594 42.9024 55.7827C43.0961 55.506 43.3759 55.3012 43.6982 55.2002C45.5336 54.6037 49.7398 52.7683 48.9597 48.3633C48.7116 46.7844 47.9263 45.3394 46.7365 44.2722C45.5467 43.205 44.0252 42.5809 42.4287 42.5052C42.1043 42.4771 41.7974 42.3463 41.5526 42.1317C41.3078 41.9171 41.1378 41.6301 41.0674 41.3122C40.5321 38.9415 38.6049 33.3434 32.6091 32.6857C30.3277 32.4337 28.0229 32.8664 25.9882 33.9287C23.9535 34.991 22.281 36.6348 21.1836 38.6508C20.9953 38.994 20.6825 39.2518 20.3098 39.3713C19.9371 39.4908 19.5327 39.4629 19.18 39.2932C17.4322 38.4711 15.5285 38.033 13.5972 38.0084Z" fill="#EBE5C3"/>
</g>
<defs>
<clipPath id="clip0_1705_6768">
<rect width="100" height="100" fill="white" transform="translate(0 0.351562)"/>
</clipPath>
</defs>
</svg>
