<svg width="100" height="101" viewBox="0 0 100 101" fill="none" xmlns="http://www.w3.org/2000/svg">
<g clip-path="url(#clip0_1705_6750)">
<path d="M91.4042 55.5059L89.997 89.9201H10.3855L8.42773 59.2074L30.5599 28.4487L80.1775 49.602L91.4042 55.5059Z" fill="#EFEFF1"/>
<path d="M91.5727 51.2542L89.9973 89.9204H47.6602L48.3026 50.107L52.9523 41.144L80.1777 43.2548L91.5727 51.2542Z" fill="#BDC3CD"/>
<path d="M31.8599 90.0118H10.1713L9.23828 71.7188H31.8599V90.0118Z" fill="#BDC3CD"/>
<path d="M9.17716 60.1709L31.0187 30.8194C31.1087 30.702 31.2244 30.6069 31.3571 30.5415C31.4897 30.476 31.6356 30.442 31.7835 30.442C31.9313 30.442 32.0772 30.476 32.2099 30.5415C32.3425 30.6069 32.4582 30.702 32.5482 30.8194L48.0117 55.0623C48.099 55.1991 48.2186 55.3125 48.3599 55.3925C48.5012 55.4725 48.66 55.5167 48.8223 55.5211H93.1019C93.2896 55.5163 93.4724 55.4599 93.6302 55.3583C93.7881 55.2566 93.915 55.1135 93.9971 54.9446C94.0792 54.7757 94.1133 54.5875 94.0957 54.4006C94.0781 54.2136 94.0094 54.0351 93.8973 53.8845L77.6538 30.3452C77.5691 30.2255 77.4598 30.1253 77.3332 30.0514C77.2065 29.9775 77.0655 29.9317 76.9196 29.917L29.9786 26.3532C29.8176 26.3413 29.6562 26.3701 29.5092 26.437C29.3622 26.5038 29.2343 26.6065 29.1374 26.7356L6.19459 57.326C6.04742 57.5246 5.97583 57.7692 5.99264 58.0158C6.00946 58.2625 6.11359 58.4951 6.28636 58.6719L7.81588 60.2015C8.00055 60.3777 8.24762 60.4735 8.50285 60.4678C8.75807 60.462 9.00059 60.3552 9.17716 60.1709Z" fill="#8ABB91"/>
<path d="M9.17657 71.7188L6.11753 75.9708C5.93399 76.2308 6.11753 76.6285 6.36225 76.6285H29.1368C29.1946 76.6242 29.2503 76.6051 29.2986 76.5729C29.3468 76.5408 29.3859 76.4967 29.4121 76.445L31.8593 71.7188H9.17657Z" fill="#4E9880"/>
<path d="M78.0057 70.9391H61.7622C61.6743 70.9314 61.5925 70.891 61.533 70.8258C61.4735 70.7607 61.4407 70.6755 61.441 70.5873L60.6456 60.2325C60.6392 60.1822 60.6429 60.1311 60.6564 60.0823C60.6699 60.0335 60.693 59.9878 60.7243 59.9479C60.7556 59.9081 60.7945 59.8749 60.8388 59.8502C60.883 59.8255 60.9318 59.8099 60.9821 59.8042H78.8928C78.9427 59.8097 78.9909 59.8254 79.0344 59.8503C79.078 59.8751 79.116 59.9087 79.1461 59.9488C79.1762 59.9889 79.1978 60.0348 79.2094 60.0836C79.2211 60.1324 79.2227 60.1831 79.214 60.2325L78.3116 70.5873C78.3123 70.6732 78.2816 70.7564 78.2253 70.8212C78.1689 70.886 78.0908 70.9279 78.0057 70.9391Z" fill="#5C6979"/>
<path d="M51.4998 53.0131C51.3563 53.0123 51.2152 52.9755 51.0896 52.906C50.964 52.8365 50.8579 52.7366 50.781 52.6154C46.1924 44.9678 42.5675 38.5897 39.4166 32.7316C39.3579 32.6358 39.3193 32.5289 39.3033 32.4176C39.2873 32.3063 39.2942 32.1929 39.3236 32.0844C39.3529 31.9759 39.4041 31.8745 39.4741 31.7864C39.544 31.6984 39.6311 31.6255 39.7302 31.5724C39.8293 31.5192 39.9381 31.4868 40.0502 31.4772C40.1622 31.4675 40.275 31.4809 40.3817 31.5164C40.4884 31.5519 40.5867 31.6088 40.6706 31.6836C40.7545 31.7585 40.8222 31.8496 40.8697 31.9516C44.0205 37.7943 47.6302 44.096 52.2187 51.8353C52.2953 51.9615 52.3366 52.1059 52.3384 52.2535C52.3403 52.401 52.3025 52.5464 52.2291 52.6744C52.1557 52.8025 52.0494 52.9085 51.9211 52.9815C51.7929 53.0545 51.6474 53.0918 51.4998 53.0895V53.0131Z" fill="#4E9880"/>
<path d="M59.0084 52.3552C58.8587 52.3571 58.7113 52.3182 58.582 52.2428C58.4527 52.1673 58.3463 52.0582 58.2742 51.9269L47.5676 32.7162C47.4601 32.5133 47.4375 32.2761 47.505 32.0567C47.5724 31.8373 47.7242 31.6536 47.927 31.5461C48.1298 31.4386 48.3671 31.4161 48.5865 31.4835C48.8059 31.5509 48.9896 31.7027 49.0971 31.9055L59.8037 51.1163C59.8578 51.2115 59.8923 51.3165 59.9054 51.4252C59.9185 51.5339 59.9098 51.6441 59.88 51.7494C59.8501 51.8547 59.7995 51.9531 59.7313 52.0387C59.6631 52.1243 59.5785 52.1955 59.4825 52.2481C59.3412 52.3366 59.174 52.3744 59.0084 52.3552Z" fill="#4E9880"/>
<path d="M72.6979 52.5083C72.5542 52.5095 72.413 52.4717 72.2891 52.3989C72.1652 52.3262 72.0633 52.2213 71.9943 52.0954C68.354 45.9773 61.3794 33.3893 61.2877 33.267C61.2342 33.1709 61.2005 33.065 61.1885 32.9557C61.1765 32.8463 61.1865 32.7357 61.2178 32.6303C61.2492 32.5249 61.3013 32.4268 61.371 32.3417C61.4408 32.2567 61.5269 32.1865 61.6241 32.1351C61.8138 32.0415 62.0322 32.0242 62.2342 32.0868C62.4363 32.1494 62.6066 32.2872 62.7101 32.4716C62.7101 32.594 69.7459 45.1819 73.4167 51.2694C73.4741 51.3623 73.5121 51.4657 73.5286 51.5736C73.545 51.6814 73.5395 51.7915 73.5123 51.8972C73.4852 52.0029 73.437 52.102 73.3706 52.1886C73.3043 52.2752 73.2211 52.3476 73.1261 52.4013C72.9986 52.482 72.8484 52.5195 72.6979 52.5083Z" fill="#4E9880"/>
<path d="M79.5353 52.508C79.39 52.5071 79.2474 52.4686 79.1215 52.3962C78.9955 52.3238 78.8904 52.2201 78.8164 52.095C75.1456 45.9616 67.2991 34.0008 67.1921 33.8172C67.0724 33.6327 67.031 33.4081 67.0769 33.193C67.1227 32.9779 67.2522 32.7898 67.4368 32.6701C67.6214 32.5504 67.8459 32.509 68.061 32.5549C68.2762 32.6008 68.4643 32.7302 68.5839 32.9148C68.6757 33.0372 76.568 45.151 80.2083 51.2691C80.3154 51.4627 80.3433 51.6904 80.2863 51.9042C80.2293 52.1181 80.0917 52.3016 79.9024 52.4162C79.7892 52.4759 79.6633 52.5073 79.5353 52.508Z" fill="#4E9880"/>
<path d="M85.8523 51.6822C85.716 51.6839 85.5815 51.6511 85.4611 51.5869C85.3408 51.5227 85.2387 51.4293 85.1641 51.3151L73.5244 33.8633C73.4363 33.6799 73.4176 33.4707 73.4719 33.2746C73.5261 33.0785 73.6497 32.9087 73.8196 32.7966C73.9895 32.6846 74.1942 32.638 74.3959 32.6654C74.5975 32.6928 74.7824 32.7923 74.9163 32.9456L86.5406 50.3974C86.6011 50.4878 86.6431 50.5891 86.6642 50.6957C86.6854 50.8023 86.6853 50.9121 86.664 51.0186C86.6427 51.1252 86.6006 51.2265 86.54 51.3168C86.4795 51.407 86.4017 51.4844 86.3112 51.5446C86.1756 51.6356 86.0157 51.6836 85.8523 51.6822Z" fill="#4E9880"/>
<path d="M65.5708 52.5081C65.4195 52.5085 65.2711 52.4673 65.1416 52.3891C65.0121 52.3109 64.9066 52.1986 64.8366 52.0646C62.5729 47.7819 55.0171 33.9091 54.9406 33.7103C54.8874 33.6099 54.8545 33.4999 54.8437 33.3868C54.833 33.2736 54.8446 33.1595 54.878 33.0508C54.9114 32.9422 54.9658 32.8412 55.0382 32.7535C55.1107 32.6659 55.1996 32.5935 55.3001 32.5402C55.4005 32.487 55.5104 32.4541 55.6236 32.4433C55.7367 32.4326 55.8509 32.4442 55.9595 32.4776C56.0682 32.511 56.1692 32.5654 56.2568 32.6379C56.3444 32.7103 56.4169 32.7992 56.4701 32.8997C56.4701 33.0526 64.1177 46.9407 66.3661 51.2539C66.4687 51.4508 66.4893 51.6803 66.4234 51.8923C66.3575 52.1043 66.2105 52.2817 66.0143 52.3857C65.8801 52.4655 65.7269 52.5078 65.5708 52.5081Z" fill="#4E9880"/>
<path d="M69.9905 69.9142C69.896 69.9065 69.8039 69.8802 69.7196 69.8367C69.6353 69.7933 69.5604 69.7336 69.4993 69.6611C69.4382 69.5886 69.392 69.5047 69.3634 69.4143C69.3348 69.3238 69.3245 69.2286 69.3328 69.1342C69.3328 66.4575 69.3328 64.7597 69.3328 61.9607C69.3067 61.7681 69.3581 61.5729 69.4756 61.4181C69.5932 61.2632 69.7674 61.1614 69.9599 61.1348C70.1415 61.1687 70.3064 61.2624 70.4284 61.401C70.5504 61.5397 70.6224 61.7152 70.6329 61.8995C70.7247 64.7291 70.7247 66.4881 70.7247 69.1342C70.7333 69.2349 70.7206 69.3363 70.6874 69.4318C70.6542 69.5272 70.6012 69.6146 70.5319 69.6882C70.4626 69.7619 70.3786 69.82 70.2853 69.859C70.192 69.8979 70.0916 69.9167 69.9905 69.9142Z" fill="#BDC3CD"/>
<path d="M29.8715 47.9347C30.3989 47.9347 30.9046 48.1442 31.2775 48.5171C31.6504 48.89 31.8599 49.3958 31.8599 49.9231V59.8191H27.8984V49.9078C27.8984 49.3805 28.1079 48.8747 28.4808 48.5018C28.8537 48.1289 29.3595 47.9194 29.8868 47.9194L29.8715 47.9347Z" fill="#8A96A4"/>
<path d="M92.0627 17.5435C89.5237 16.014 86.0364 15.2339 85.8529 8.48874C85.8682 8.19833 85.8682 7.90732 85.8529 7.61691C85.8529 6.51565 83.788 7.61691 83.788 8.58051C83.8557 10.6884 83.4315 12.7831 82.5491 14.6986C81.5209 16.6855 79.9232 18.3204 77.9606 19.3942C77.2417 19.8378 77.5935 20.4649 78.2818 20.5872C82.2126 21.3061 83.9257 25.1758 84.5222 28.709C84.6751 29.642 86.7094 29.0761 86.8012 28.3113C86.9662 26.358 87.4845 24.4509 88.3307 22.6827C89.2037 21.0464 90.4706 19.6534 92.0168 18.6295C92.2616 18.3541 92.5522 17.8188 92.0627 17.5435Z" fill="#F1E765"/>
<path d="M69.1192 14.5301C67.5897 13.643 65.5401 13.1688 65.4331 9.17676C65.4484 9.00375 65.4484 8.82973 65.4331 8.65672C65.4331 8.01432 64.2095 8.65672 64.2095 9.22264C64.2489 10.4666 63.9975 11.7026 63.4753 12.8323C62.8714 14.0228 61.9226 15.0036 60.7528 15.6466C60.3245 15.9219 60.5386 16.289 60.9363 16.3655C63.2612 16.7785 64.2859 19.0575 64.6377 21.1682C64.7295 21.7188 65.9225 21.3823 65.9837 20.9235C66.0674 19.7697 66.3575 18.6404 66.8402 17.5891C67.3628 16.6266 68.1139 15.8072 69.0275 15.2031C69.2263 15.0195 69.3945 14.6983 69.1192 14.5301Z" fill="#F2EDA7"/>
</g>
<defs>
<clipPath id="clip0_1705_6750">
<rect width="100" height="100" fill="white" transform="translate(0 0.351562)"/>
</clipPath>
</defs>
</svg>
