<svg width="100" height="101" viewBox="0 0 100 101" fill="none" xmlns="http://www.w3.org/2000/svg">
<g clip-path="url(#clip0_1705_6796)">
<path d="M39.8599 10.2476H37.2598V25.0074H39.8599V10.2476Z" fill="#8A96A4"/>
<path d="M62.7252 10.2476H60.125V25.0074H62.7252V10.2476Z" fill="#8A96A4"/>
<path d="M70.5423 93.423C73.161 93.423 75.2838 91.3001 75.2838 88.6815C75.2838 86.0628 73.161 83.9399 70.5423 83.9399C67.9236 83.9399 65.8008 86.0628 65.8008 88.6815C65.8008 91.3001 67.9236 93.423 70.5423 93.423Z" fill="#5C6979"/>
<path d="M29.4427 93.423C32.0613 93.423 34.1842 91.3001 34.1842 88.6815C34.1842 86.0628 32.0613 83.9399 29.4427 83.9399C26.824 83.9399 24.7012 86.0628 24.7012 88.6815C24.7012 91.3001 26.824 93.423 29.4427 93.423Z" fill="#5C6979"/>
<path d="M74.1044 22.6675H25.894C20.927 22.6675 16.9004 26.694 16.9004 31.6611V79.688C16.9004 84.655 20.927 88.6815 25.894 88.6815H74.1044C79.0715 88.6815 83.098 84.655 83.098 79.688V31.6611C83.098 26.694 79.0715 22.6675 74.1044 22.6675Z" fill="#C69B6A"/>
<path d="M29.474 39.5072V75.4815C29.4747 75.889 29.5772 76.29 29.7722 76.6479C29.9671 77.0058 30.2484 77.3094 30.5905 77.531C31.0341 77.7757 32.0282 78.0205 32.0282 77.1639V41.2049C32.0242 40.7945 31.9171 40.3917 31.7166 40.0335C31.5162 39.6754 31.2288 39.3734 30.8811 39.1554C30.4528 38.8953 29.4434 38.6659 29.4434 39.5072H29.474Z" fill="#9F7337"/>
<path d="M42.291 39.5072V75.4815C42.295 75.8919 42.4022 76.2947 42.6026 76.6529C42.8031 77.011 43.0904 77.313 43.4382 77.531C43.8817 77.7757 44.9677 78.0205 44.9677 77.1639V41.2049C44.9607 40.7934 44.8506 40.3901 44.6475 40.0321C44.4444 39.674 44.1549 39.3726 43.8052 39.1554C43.377 38.8953 42.3675 38.6659 42.3675 39.5072H42.291Z" fill="#9F7337"/>
<path d="M55.0625 39.5072V75.4815C55.0665 75.8919 55.1737 76.2947 55.3741 76.6529C55.5746 77.011 55.8619 77.313 56.2096 77.531C56.6532 77.7757 57.6627 78.0205 57.6627 77.1639V41.2049C57.667 40.8015 57.5715 40.4033 57.3847 40.0457C57.1979 39.6881 56.9256 39.3823 56.592 39.1554C56.1485 38.8953 55.139 38.6659 55.139 39.5072H55.0625Z" fill="#9F7337"/>
<path d="M67.9258 39.5072V75.4815C67.9298 75.8919 68.0369 76.2947 68.2374 76.6529C68.4379 77.011 68.7252 77.313 69.0729 77.531C69.5165 77.7757 70.6024 78.0205 70.6024 77.1639V41.2049C70.5984 40.7945 70.4913 40.3917 70.2908 40.0335C70.0904 39.6754 69.803 39.3734 69.4553 39.1554C69.0117 38.8953 67.9258 38.6659 67.9258 39.5072Z" fill="#9F7337"/>
<path d="M50.0002 36.2646C55.2967 36.2646 59.5903 34.2924 59.5903 31.8596C59.5903 29.4268 55.2967 27.4546 50.0002 27.4546C44.7038 27.4546 40.4102 29.4268 40.4102 31.8596C40.4102 34.2924 44.7038 36.2646 50.0002 36.2646Z" fill="#F7F7F8"/>
<path d="M65.4321 7.86133H34.5664C33.8145 7.86133 33.2051 8.47079 33.2051 9.2226V11.2875C33.2051 12.0393 33.8145 12.6487 34.5664 12.6487H65.4321C66.1839 12.6487 66.7933 12.0393 66.7933 11.2875V9.2226C66.7933 8.47079 66.1839 7.86133 65.4321 7.86133Z" fill="#BDC3CD"/>
<path d="M38.2383 12.588H43.8363C43.7171 11.9325 43.3717 11.3396 42.8602 10.9127C42.3487 10.4858 41.7035 10.252 41.0373 10.252C40.3711 10.252 39.7259 10.4858 39.2144 10.9127C38.7029 11.3396 38.3575 11.9325 38.2383 12.588Z" fill="#5E6E80"/>
<path d="M47.2012 12.588H52.7992C52.68 11.9325 52.3346 11.3396 51.8231 10.9127C51.3116 10.4858 50.6664 10.252 50.0002 10.252C49.3339 10.252 48.6888 10.4858 48.1773 10.9127C47.6658 11.3396 47.3203 11.9325 47.2012 12.588Z" fill="#5E6E80"/>
<path d="M56.1172 12.5876H61.7305C61.6204 11.9227 61.2778 11.3185 60.7638 10.8826C60.2498 10.4468 59.5978 10.2075 58.9239 10.2075C58.2499 10.2075 57.5979 10.4468 57.0839 10.8826C56.5699 11.3185 56.2273 11.9227 56.1172 12.5876Z" fill="#5E6E80"/>
<path d="M58.1218 29.5654C57.9383 29.3054 57.5253 29.3818 57.2959 29.4736C56.1989 30.003 55.1715 30.6657 54.2368 31.4467L53.5639 31.9361L53.1356 32.2115L52.9826 32.3032C52.9826 31.6455 53.0744 30.9725 53.105 30.3149C53.1356 29.6572 52.5085 29.856 52.2332 30.009C51.4726 30.4864 50.7827 31.0682 50.1836 31.7373C50.0307 31.8903 49.8777 32.0432 49.7095 32.1809L49.5871 32.2573C49.5871 32.0738 49.5871 31.7985 49.5871 31.722V30.8502C49.5871 30.3913 49.0212 30.4219 48.7153 30.5443C47.8773 30.9221 47.0909 31.4053 46.3751 31.982C45.8857 32.3644 45.3962 32.808 44.8456 33.1598C44.8456 32.9762 44.9374 32.808 44.9527 32.7315C45.0313 32.3834 45.1335 32.041 45.2586 31.7067C45.5015 31.0578 45.8143 30.4372 46.1916 29.856C46.3598 29.596 46.0539 29.3818 45.8245 29.3513C45.6729 29.331 45.5188 29.3548 45.3804 29.4199C45.2421 29.485 45.1254 29.5887 45.0444 29.7183C44.495 30.5663 44.082 31.4954 43.8208 32.4715C43.6526 33.1139 43.209 34.5516 44.402 34.3528C44.838 34.2191 45.2434 34.0008 45.5951 33.7104C45.9927 33.4351 46.3751 33.1445 46.7575 32.8539C47.2449 32.4519 47.7557 32.0791 48.287 31.7373C48.2314 32.129 48.2735 32.5283 48.4094 32.8997C48.6694 33.481 49.3577 33.4351 49.8471 33.1904C50.5761 32.701 51.2348 32.1144 51.8049 31.4467C51.8049 31.6149 51.8049 31.7679 51.8049 31.9361C51.7234 32.2685 51.7557 32.6185 51.8967 32.9303C52.3249 33.5421 53.258 33.1904 53.7474 32.9303C55.0495 31.9313 56.4249 31.0314 57.8618 30.2384C58.1218 30.0854 58.2901 29.8101 58.1218 29.5654Z" fill="#017455"/>
</g>
<defs>
<clipPath id="clip0_1705_6796">
<rect width="100" height="100" fill="white" transform="translate(0 0.351562)"/>
</clipPath>
</defs>
</svg>
