<svg width="100" height="101" viewBox="0 0 100 101" fill="none" xmlns="http://www.w3.org/2000/svg">
<g clip-path="url(#clip0_1705_6734)">
<path d="M15.1421 56.5767L8.6875 90.8991L15.1421 91.0062L24.1357 55.6284" fill="#C69B6A"/>
<path d="M39.5686 54.6495L35.8672 80.5443L41.3888 80.6055L46.5738 53.9307" fill="#946B37"/>
<path d="M80.345 57.7695L84.0618 83.6643L78.5249 83.7254L73.3398 57.0659" fill="#946B37"/>
<path d="M57.2031 60.5229L60.4763 94.8606L66.9156 94.9523L66.1967 59.5898" fill="#C69B6A"/>
<path d="M73.34 23.4932L66.916 50.3209H74.9307L80.6511 23.4932" fill="#BC8F59"/>
<path d="M38.1467 23.4932L34.3535 50.3209H42.3682L45.4578 23.4932" fill="#BC8F59"/>
<path d="M46.9255 67.2682C68.0438 67.2682 85.1635 63.2143 85.1635 58.2135C85.1635 53.2126 68.0438 49.1587 46.9255 49.1587C25.8072 49.1587 8.6875 53.2126 8.6875 58.2135C8.6875 63.2143 25.8072 67.2682 46.9255 67.2682Z" fill="#BDC3CD"/>
<path d="M85.1635 53.9458H8.6875V58.2285H85.1635V53.9458Z" fill="#BDC3CD"/>
<path d="M46.9255 63.0006C68.0438 63.0006 85.1635 58.9467 85.1635 53.9459C85.1635 48.9451 68.0438 44.8911 46.9255 44.8911C25.8072 44.8911 8.6875 48.9451 8.6875 53.9459C8.6875 58.9467 25.8072 63.0006 46.9255 63.0006Z" fill="#EFEFF1"/>
<path d="M93.7601 20.1284C93.7601 23.8451 95.5191 30.6209 84.8277 32.9611C75.1 35.0871 53.3196 32.9611 43.9895 32.9611C24.4729 32.9611 22.9434 27.2101 22.9434 20.1284C22.9434 13.0467 38.7433 7.31104 58.3211 7.31104C77.899 7.31104 93.7601 13.0467 93.7601 20.1284Z" fill="#E3BD8B"/>
<path d="M70.5269 16.1364C72.1725 16.2105 73.8121 16.3842 75.4367 16.6565C78.4869 17.0261 81.4368 17.9817 84.1244 19.4708C84.3385 19.5932 84.7668 19.4708 84.9809 19.379C85.195 19.2872 85.5621 19.1343 85.3786 19.0272C82.6237 17.5109 79.6004 16.5447 76.4768 16.1823C74.7968 15.8991 73.1009 15.7203 71.3988 15.647C71.0702 15.633 70.7451 15.7183 70.4658 15.8917C70.2822 16.0294 70.2516 16.1364 70.4658 16.1364H70.5269Z" fill="#FCF4EA"/>
<path d="M74.3203 20.4037C75.758 20.6331 77.1958 20.939 78.6029 21.2755C80.9347 21.7014 83.1851 22.4911 85.2717 23.6157C85.6693 23.8604 86.8012 23.2945 86.327 22.958C84.2017 21.8098 81.9106 20.9997 79.536 20.5567C78.0064 20.2049 76.5993 19.8837 75.1156 19.6542C74.9493 19.6214 74.7778 19.6264 74.6137 19.6687C74.4495 19.7111 74.297 19.7898 74.1673 19.899C73.9838 20.0825 74.0144 20.3425 74.305 20.4037H74.3203Z" fill="#FCF4EA"/>
<path d="M81.5684 16.1363C81.9568 17.7032 82.253 19.2916 82.4555 20.8931C82.991 23.7386 82.991 26.6589 82.4555 29.5043C82.3484 29.902 83.6791 29.7032 83.7709 29.3055C84.3418 26.4667 84.3781 23.5464 83.8779 20.6943C83.6637 19.0419 83.3573 17.4028 82.9602 15.7845C82.8685 15.3869 81.5378 15.7845 81.6295 16.1363H81.5684Z" fill="#FCF4EA"/>
<path d="M76.0024 14.2548C76.4985 15.3555 76.8828 16.5033 77.1495 17.6809C77.8159 20.0536 77.8895 22.5536 77.3637 24.9614C77.2719 25.3744 78.5873 25.1755 78.6944 24.7626C79.4426 21.0863 78.9644 17.2661 77.3331 13.8877C77.1496 13.49 75.8036 13.8877 76.0024 14.2548Z" fill="#FCF4EA"/>
</g>
<defs>
<clipPath id="clip0_1705_6734">
<rect width="100" height="100" fill="white" transform="translate(0 0.351562)"/>
</clipPath>
</defs>
</svg>
