<svg width="586" height="182" viewBox="0 0 586 182" fill="none" xmlns="http://www.w3.org/2000/svg">
<path d="M495.475 0H90.5249C40.5294 0 0 40.5294 0 90.525C0 140.521 40.5294 181.05 90.5249 181.05H495.475C545.471 181.05 586 140.521 586 90.525C586 40.5294 545.471 0 495.475 0Z" fill="white"/>
<path d="M495.475 0H90.5249C40.5294 0 0 40.5294 0 90.525C0 140.521 40.5294 181.05 90.5249 181.05H495.475C545.471 181.05 586 140.521 586 90.525C586 40.5294 545.471 0 495.475 0Z" fill="#F9F8F3"/>
<path d="M159.71 57.0234C159.371 56.4759 159.263 55.8172 159.407 55.19C159.551 54.5629 159.937 54.0179 160.48 53.6731C166.1 48.799 170.661 42.8241 173.881 36.1176C174.137 35.4968 174.518 34.9356 175.001 34.4695C175.484 34.0034 176.059 33.6424 176.688 33.4094C177.318 33.1765 177.989 33.0764 178.659 33.1158C179.329 33.1552 179.984 33.3333 180.582 33.6384C181.142 33.7867 181.662 34.055 182.108 34.4249C182.553 34.7948 182.913 35.2569 183.162 35.7798C183.411 36.3027 183.542 36.8735 183.548 37.4525C183.554 38.0315 183.433 38.6052 183.195 39.133H188.489C189.362 38.2882 190.477 37.737 191.678 37.5568C192.879 37.3766 194.107 37.5762 195.189 38.1277C195.85 38.426 196.434 38.8726 196.895 39.4328C197.356 39.9929 197.681 40.6515 197.847 41.3578C198.012 42.0641 198.012 42.7989 197.848 43.5053C197.683 44.2117 197.358 44.8705 196.898 45.4311C195.893 46.9549 194.773 48.3998 193.547 49.7532H203.598C204.146 49.6886 204.702 49.7493 205.223 49.9302C205.744 50.1111 206.218 50.4075 206.608 50.7977C206.998 51.1878 207.295 51.6612 207.475 52.1824C207.656 52.7036 207.717 53.259 207.652 53.8069V71.6642C207.717 72.2121 207.656 72.7674 207.475 73.2886C207.295 73.8098 206.998 74.2833 206.608 74.6734C206.218 75.0635 205.744 75.3603 205.223 75.5413C204.702 75.7222 204.146 75.7825 203.598 75.7179H170.33C169.779 75.788 169.22 75.7316 168.695 75.5531C168.169 75.3747 167.691 75.0789 167.297 74.6881C166.903 74.2973 166.604 73.8221 166.421 73.298C166.238 72.774 166.177 72.2153 166.243 71.6642V56.1188C165.07 56.7553 163.897 57.3585 162.624 57.9281C162.115 58.1807 161.529 58.2274 160.986 58.059C160.443 57.8905 159.986 57.5199 159.71 57.0234ZM172.374 80.1406C171.373 83.5891 169.749 86.8251 167.583 89.6888C167.231 90.2328 166.761 90.6899 166.208 91.0261C165.654 91.3624 165.031 91.5689 164.387 91.6302C163.742 91.6915 163.092 91.6059 162.485 91.3799C161.878 91.1539 161.33 90.7932 160.882 90.3252C160.44 89.9296 160.094 89.4383 159.871 88.8885C159.648 88.3386 159.554 87.7446 159.596 87.1528C159.638 86.5609 159.815 85.9868 160.114 85.4739C160.412 84.9611 160.824 84.5233 161.318 84.1943C163.684 82.1847 165.839 79.9396 167.75 77.4937C168.124 76.9862 168.661 76.6225 169.271 76.4639C169.881 76.3053 170.527 76.3614 171.101 76.6226C171.424 76.7608 171.716 76.9622 171.961 77.2148C172.206 77.4673 172.397 77.7658 172.525 78.0932C172.653 78.4207 172.714 78.7707 172.706 79.1222C172.697 79.4737 172.618 79.8198 172.474 80.1406H172.374ZM187.249 44.5936H179.811C178.391 46.4793 176.81 48.2393 175.088 49.8538H185.875C186.628 48.43 187.299 46.9645 187.885 45.4647C188.087 44.9286 187.852 44.5936 187.35 44.5936H187.249ZM182.19 60.2731V55.08H177.064C176.964 55.0799 176.866 55.1002 176.774 55.1393C176.682 55.1784 176.6 55.2358 176.531 55.3078C176.462 55.3798 176.408 55.4652 176.373 55.5585C176.338 55.6518 176.323 55.7513 176.327 55.8509V60.2731H182.19ZM177.064 70.5919H182.19V65.265H176.461V69.8214C176.457 69.9182 176.471 70.0149 176.504 70.106C176.537 70.1972 176.588 70.2811 176.653 70.3526C176.718 70.4242 176.797 70.4821 176.885 70.5232C176.973 70.5643 177.068 70.5876 177.165 70.5919H177.064ZM186.579 86.1373C186.83 86.6644 186.95 87.2446 186.928 87.828C186.906 88.4114 186.743 88.9811 186.453 89.488C186.164 89.9949 185.756 90.424 185.264 90.7391C184.773 91.0541 184.212 91.2454 183.631 91.2969C180.682 92.0675 178.873 90.8612 178.438 88.1809C177.868 84.8306 177.399 81.4803 177.064 79.3696C176.97 78.7863 177.096 78.1887 177.418 77.6933C177.74 77.1978 178.235 76.8402 178.806 76.6897C179.36 76.4683 179.972 76.4404 180.544 76.6107C181.116 76.781 181.613 77.1395 181.956 77.6278C183.883 80.2537 185.47 83.1127 186.679 86.1373H186.579ZM199.612 85.1325C200 85.6264 200.258 86.2109 200.36 86.8313C200.461 87.4518 200.404 88.0876 200.193 88.6799C199.983 89.2722 199.625 89.8014 199.154 90.218C198.683 90.6346 198.115 90.9254 197.501 91.0625C196.956 91.3714 196.342 91.5397 195.715 91.5529C195.089 91.5661 194.468 91.4234 193.91 91.1378C193.353 90.8522 192.874 90.4327 192.519 89.9166C192.163 89.4005 191.941 88.804 191.872 88.1809C191.068 85.1992 190.264 82.1171 189.561 80.0064C189.354 79.4446 189.367 78.8254 189.597 78.2728C189.827 77.7201 190.257 77.2745 190.8 77.0246C191.326 76.6994 191.948 76.5684 192.56 76.6541C193.172 76.7397 193.735 77.0367 194.151 77.4937C196.296 79.8144 198.162 82.3782 199.712 85.1325H199.612ZM197.233 54.9798H191.805V60.1725H198.003V55.7503C197.982 55.5799 197.905 55.4214 197.784 55.3C197.662 55.1786 197.504 55.1011 197.333 55.08L197.233 54.9798ZM198.003 69.7208V65.1644H191.805V70.4917H197.233C197.334 70.5058 197.437 70.4995 197.536 70.4733C197.635 70.4471 197.728 70.4015 197.809 70.3391C197.89 70.2768 197.958 70.199 198.009 70.1101C198.059 70.0212 198.092 69.9229 198.104 69.8214L198.003 69.7208ZM212.678 90.4593C212.161 90.871 211.55 91.1477 210.899 91.2646C210.249 91.3814 209.579 91.3348 208.951 91.1288C208.323 90.9228 207.756 90.5641 207.302 90.0847C206.847 89.6052 206.518 89.0201 206.346 88.3821C205.173 85.5344 203.934 82.7873 202.727 80.107C202.422 79.5515 202.331 78.9026 202.473 78.2846C202.615 77.6666 202.98 77.1228 203.498 76.7567C203.971 76.3703 204.563 76.1592 205.173 76.1592C205.784 76.1592 206.376 76.3703 206.848 76.7567C209.317 78.8783 211.562 81.247 213.549 83.8258C214.058 84.2606 214.452 84.8135 214.697 85.4363C214.942 86.0591 215.03 86.7328 214.954 87.3978C214.878 88.0627 214.64 88.6986 214.26 89.25C213.881 89.8013 213.372 90.2513 212.778 90.5599L212.678 90.4593Z" fill="#594A39"/>
<path d="M283.235 85.4997C283.044 86.1996 282.698 86.8473 282.222 87.3948C281.746 87.9424 281.153 88.3757 280.487 88.6622C279.82 88.9488 279.097 89.0812 278.373 89.0499C277.648 89.0186 276.939 88.8244 276.3 88.4815C270.364 86.3588 265.03 82.8295 260.755 78.1958V87.7441C260.755 90.6923 258.946 92.0661 255.629 92.0661C252.312 92.0661 250.503 90.6923 250.503 87.7441V79.3352C244.925 84.2142 238.245 87.6636 231.038 89.3861C230.751 89.5083 230.442 89.5691 230.13 89.5652C229.818 89.5614 229.511 89.4928 229.227 89.3636C228.944 89.2344 228.69 89.0474 228.483 88.8148C228.275 88.5821 228.119 88.3089 228.023 88.0124C227.52 86.7058 228.023 85.7006 229.463 84.9635C235.499 82.5268 240.922 78.7857 245.343 74.008H231.942C231.571 74.0431 231.197 73.9931 230.848 73.8615C230.5 73.73 230.186 73.5204 229.93 73.2489C229.675 72.9774 229.485 72.6509 229.375 72.2948C229.265 71.9386 229.238 71.5621 229.296 71.1938C229.243 70.8281 229.275 70.4554 229.387 70.1035C229.5 69.7516 229.691 69.4296 229.945 69.1621C230.2 68.8945 230.512 68.6882 230.858 68.5584C231.204 68.4287 231.574 68.3792 231.942 68.4132H250.47V66.9054C250.404 65.8832 250.737 64.8757 251.399 64.0945C252.062 63.3133 253.002 62.8195 254.021 62.7175C253.783 62.3683 253.602 61.984 253.485 61.5785C252.714 59.4678 251.709 57.223 250.972 55.6149C250.853 55.3427 250.752 55.0629 250.671 54.7773C247.052 54.7773 243.3 54.7773 239.815 54.7773C242.161 56.1312 244.266 57.8632 246.047 59.9034C248.091 62.2151 248.057 64.2585 245.678 65.9672C245.226 66.3875 244.672 66.6828 244.071 66.8236C243.469 66.9643 242.842 66.9459 242.25 66.77C241.658 66.5941 241.122 66.2666 240.695 65.8204C240.268 65.3741 239.965 64.8246 239.815 64.2254C238.835 62.0667 237.716 59.974 236.465 57.9603C236.238 57.7444 236.057 57.4843 235.934 57.1964C235.81 56.9084 235.747 56.5985 235.747 56.2852C235.747 55.9718 235.81 55.6616 235.934 55.3736C236.057 55.0856 236.238 54.826 236.465 54.61C235.46 54.61 234.455 54.61 233.517 54.61C231.708 54.61 231.004 53.6717 231.004 52.231C231.004 50.7904 231.775 50.1203 233.517 50.0533C243.296 49.9026 253.045 48.9389 262.664 47.1721C261.931 46.8399 261.321 46.2868 260.918 45.5898C260.515 44.8927 260.341 44.0871 260.42 43.286H250.168V43.9895C250.168 47.0382 248.493 48.4117 245.411 48.4117C242.328 48.4117 240.687 47.0382 240.687 43.9895V43.286H230.636C230.26 43.3288 229.88 43.2859 229.523 43.1613C229.166 43.0367 228.842 42.8331 228.575 42.5658C228.308 42.2986 228.104 41.9747 227.979 41.6178C227.855 41.261 227.812 40.8806 227.855 40.505C227.81 40.1319 227.851 39.7536 227.976 39.3992C228.101 39.0447 228.306 38.7239 228.575 38.4614C228.844 38.1989 229.17 38.0017 229.527 37.8856C229.885 37.7694 230.264 37.7373 230.636 37.7915H240.687V37.4897C240.647 36.8722 240.744 36.2537 240.972 35.6783C241.2 35.103 241.552 34.5856 242.004 34.1627C242.455 33.7398 242.995 33.422 243.584 33.2327C244.173 33.0433 244.797 32.987 245.411 33.0675C248.493 33.0675 250.168 34.4409 250.168 37.4897V37.7915H260.654V37.5567C260.607 36.9257 260.703 36.2924 260.934 35.7033C261.165 35.1142 261.525 34.5847 261.988 34.1537C262.452 33.7226 263.006 33.401 263.61 33.2131C264.214 33.0251 264.853 32.9753 265.479 33.0675C268.595 33.0675 270.27 34.441 270.27 37.5567V37.7915H280.689C281.064 37.7596 281.441 37.8109 281.793 37.942C282.146 38.0731 282.465 38.2807 282.727 38.5497C282.99 38.8188 283.19 39.1427 283.312 39.4981C283.435 39.8536 283.477 40.2319 283.436 40.6056C283.468 40.9715 283.419 41.3397 283.291 41.6841C283.163 42.0284 282.961 42.3404 282.698 42.5969C282.435 42.8534 282.118 43.0483 281.771 43.1674C281.424 43.2866 281.054 43.3271 280.689 43.286H270.27C270.263 44.1159 270.056 44.9317 269.667 45.6646L272.782 44.7935C273.305 44.5666 273.869 44.4542 274.439 44.4639C275.008 44.4735 275.569 44.6047 276.083 44.8491C276.597 45.0935 277.053 45.4456 277.42 45.8809C277.787 46.3163 278.056 46.8251 278.21 47.3733C278.452 47.9131 278.562 48.5029 278.531 49.0938C278.5 49.6847 278.328 50.2595 278.03 50.7706C277.732 51.2817 277.316 51.7142 276.817 52.0323C276.318 52.3504 275.75 52.5449 275.161 52.5995C274.753 52.6603 274.35 52.7501 273.955 52.8678C274.358 52.9421 274.744 53.0897 275.094 53.3034C277.707 54.7105 277.774 57.2232 275.965 59.6019C273.824 62.3733 271.117 64.6574 268.025 66.3025C267.54 66.6879 266.93 66.8803 266.311 66.8432C265.693 66.8061 265.11 66.5419 264.675 66.1013C264.423 65.9078 264.215 65.6632 264.065 65.3836C263.915 65.1039 263.826 64.7955 263.804 64.4789C263.782 64.1623 263.827 63.8447 263.937 63.5469C264.046 63.249 264.218 62.9777 264.44 62.751C266.09 60.4532 267.483 57.9818 268.595 55.3805C268.959 54.5054 269.548 53.7423 270.303 53.1692C266.484 53.6718 261.927 54.0402 257.07 54.3082C258.184 55.3114 259.184 56.4351 260.051 57.6585C260.418 58.0665 260.686 58.5542 260.833 59.083C260.98 59.6117 261.002 60.1673 260.898 60.7062C260.794 61.245 260.567 61.7521 260.234 62.1883C259.901 62.6245 259.472 62.9778 258.979 63.2201C259.519 63.5893 259.954 64.0918 260.241 64.6789C260.529 65.266 260.66 65.9177 260.621 66.5704V68.0779H279.349C279.714 68.0492 280.081 68.1032 280.423 68.2353C280.764 68.3675 281.072 68.5745 281.323 68.8414C281.574 69.1084 281.761 69.428 281.872 69.7772C281.983 70.1263 282.013 70.4962 281.962 70.8589C281.962 72.7015 281.024 73.673 279.349 73.673H264.239C268.917 76.1892 273.924 78.0387 279.115 79.1675C282.867 80.2396 284.24 82.4844 283.235 85.4997Z" fill="#594A39"/>
<path d="M296.201 69.2504C296.153 68.8767 296.19 68.4967 296.311 68.1396C296.431 67.7825 296.631 67.4577 296.896 67.1896C297.161 66.9215 297.483 66.7172 297.839 66.5925C298.195 66.4677 298.574 66.4255 298.948 66.4694H308.999V52.3312H301.93C301.554 52.3695 301.174 52.3223 300.819 52.1934C300.464 52.0645 300.142 51.857 299.878 51.5865C299.614 51.316 299.414 50.9895 299.294 50.6311C299.173 50.2728 299.136 49.8921 299.183 49.5171C299.136 49.1421 299.173 48.761 299.294 48.4027C299.414 48.0443 299.614 47.7178 299.878 47.4473C300.142 47.1768 300.464 46.9693 300.819 46.8404C301.174 46.7115 301.554 46.6643 301.93 46.7026H308.999V37.7911C308.999 35.0438 310.742 33.5361 313.857 33.5361C316.973 33.5361 318.715 35.0438 318.715 37.7911V46.7026H329.604V37.7911C329.604 35.0438 331.346 33.5361 334.461 33.5361C337.577 33.5361 339.319 35.0438 339.319 37.7911V46.7026H346.59C346.966 46.6643 347.346 46.7115 347.701 46.8404C348.056 46.9693 348.378 47.1768 348.642 47.4473C348.906 47.7178 349.106 48.0443 349.226 48.4027C349.346 48.761 349.384 49.1421 349.337 49.5171C349.384 49.8921 349.346 50.2728 349.226 50.6311C349.106 50.9895 348.906 51.316 348.642 51.5865C348.378 51.857 348.056 52.0645 347.701 52.1934C347.346 52.3223 346.966 52.3695 346.59 52.3312H339.319V66.3356H349.37C349.743 66.2983 350.12 66.3448 350.473 66.4718C350.825 66.5989 351.145 66.8031 351.408 67.0697C351.671 67.3364 351.872 67.6583 351.995 68.0124C352.117 68.3665 352.159 68.7438 352.118 69.1162C352.165 69.4913 352.127 69.8719 352.007 70.2303C351.886 70.5886 351.687 70.9156 351.423 71.186C351.159 71.4565 350.837 71.6636 350.482 71.7926C350.126 71.9215 349.746 71.9686 349.37 71.9304H298.948C298.585 71.9654 298.218 71.9208 297.873 71.7995C297.528 71.6782 297.214 71.4829 296.953 71.2278C296.691 70.9726 296.489 70.6634 296.359 70.3219C296.229 69.9803 296.175 69.6149 296.201 69.2504ZM319.218 82.1154C313.484 86.6543 306.883 89.9722 299.82 91.8649C299.51 92.0013 299.176 92.0739 298.838 92.0784C298.5 92.0828 298.165 92.0189 297.852 91.8906C297.539 91.7624 297.256 91.5725 297.018 91.332C296.78 91.0915 296.594 90.8055 296.469 90.4911C296.322 90.1949 296.236 89.8721 296.215 89.5419C296.194 89.2118 296.24 88.8812 296.349 88.569C296.459 88.2568 296.629 87.9693 296.851 87.724C297.073 87.4788 297.342 87.2806 297.642 87.1408C303.006 83.7219 307.915 79.6353 312.249 74.9793C312.696 74.4112 313.263 73.9486 313.909 73.6243C314.556 73.3 315.265 73.1221 315.988 73.1029C316.711 73.0837 317.429 73.2239 318.091 73.5135C318.753 73.8031 319.344 74.2346 319.821 74.778C320.392 75.2301 320.843 75.8165 321.133 76.4847C321.423 77.1529 321.543 77.8821 321.484 78.6081C321.424 79.3341 321.186 80.0341 320.791 80.646C320.395 81.2578 319.855 81.7627 319.218 82.1154ZM318.715 66.4694H329.604V52.3312H318.715V66.4694ZM350.711 89.62C350.304 90.2666 349.75 90.8076 349.094 91.1982C348.438 91.5889 347.698 91.8179 346.936 91.8669C346.174 91.916 345.411 91.7837 344.71 91.4804C344.009 91.1772 343.39 90.7118 342.904 90.1227C338.783 86.3033 333.323 81.68 329.202 78.4972C328.878 78.3148 328.595 78.0677 328.37 77.7713C328.145 77.4749 327.984 77.1355 327.896 76.7742C327.808 76.413 327.795 76.0377 327.859 75.6712C327.922 75.3048 328.06 74.9552 328.264 74.6443C329.034 73.2037 330.207 72.9022 332.016 73.4383C338.134 75.4607 343.941 78.3244 349.27 81.9477C349.93 82.3021 350.502 82.8006 350.943 83.4061C351.384 84.0116 351.683 84.7088 351.819 85.4457C351.954 86.1826 351.921 86.9404 351.724 87.6631C351.526 88.3857 351.168 89.0545 350.677 89.62H350.711Z" fill="#594A39"/>
<path d="M420.396 86.202C420.433 86.6088 420.38 87.0189 420.239 87.4023C420.098 87.7858 419.873 88.133 419.581 88.4186C419.289 88.7043 418.937 88.921 418.551 89.0533C418.164 89.1857 417.753 89.2304 417.347 89.1838H368.466C368.058 89.2358 367.643 89.1956 367.252 89.0656C366.862 88.9357 366.505 88.7192 366.209 88.4329C365.913 88.1467 365.685 87.7975 365.543 87.4113C365.4 87.0251 365.346 86.6119 365.384 86.202C365.347 85.7908 365.401 85.3764 365.544 84.989C365.686 84.6015 365.914 84.2508 366.209 83.9621C366.504 83.6733 366.86 83.4541 367.25 83.32C367.641 83.1859 368.056 83.1402 368.466 83.1866H388.568V69.7855H375.435C375.043 69.8244 374.647 69.7742 374.276 69.6382C373.906 69.5023 373.571 69.2843 373.297 69.0007C373.024 68.717 372.817 68.3749 372.694 68.0003C372.571 67.6257 372.535 67.228 372.587 66.8372C372.54 66.449 372.581 66.0551 372.707 65.6847C372.832 65.3143 373.039 64.9772 373.312 64.6975C373.585 64.4177 373.918 64.2025 374.286 64.0685C374.653 63.9344 375.046 63.8845 375.435 63.9225H388.568V53.3023H379.187C376.862 57.8108 373.727 61.8534 369.94 65.2291C368.768 66.2342 367.629 66.4017 366.59 65.5976C366.337 65.4099 366.124 65.173 365.964 64.9011C365.804 64.6292 365.701 64.3281 365.66 64.0153C365.619 63.7025 365.642 63.3845 365.727 63.0808C365.812 62.777 365.957 62.4936 366.155 62.2473C369.998 55.3031 372.51 47.7015 373.559 39.834C373.568 39.1101 373.743 38.3977 374.071 37.7524C374.4 37.107 374.872 36.5459 375.451 36.112C376.031 35.6781 376.703 35.3833 377.414 35.2503C378.126 35.1172 378.859 35.1496 379.556 35.3448C382.906 35.8473 384.38 37.8907 383.509 41.7771C383.045 43.7715 382.44 45.7307 381.7 47.6401H388.401V37.5892C388.401 34.5404 390.277 32.832 393.761 32.832C397.245 32.832 399.122 34.5404 399.122 37.5892V47.3387H413.796C414.189 47.2885 414.589 47.3296 414.963 47.4589C415.338 47.5882 415.678 47.8023 415.957 48.0842C416.235 48.3661 416.445 48.7083 416.57 49.0846C416.695 49.4608 416.732 49.8608 416.677 50.2534C416.724 50.646 416.682 51.0442 416.555 51.4186C416.428 51.793 416.218 52.1341 415.942 52.4169C415.666 52.6997 415.329 52.917 414.958 53.0528C414.587 53.1886 414.189 53.2395 413.796 53.2017H399.122V63.8223H412.054C412.447 63.7721 412.846 63.8132 413.221 63.9425C413.596 64.0718 413.936 64.2855 414.214 64.5674C414.493 64.8493 414.703 65.1919 414.828 65.5682C414.953 65.9444 414.99 66.3444 414.935 66.737C414.982 67.1296 414.94 67.5277 414.813 67.9022C414.686 68.2766 414.476 68.6176 414.2 68.9005C413.923 69.1833 413.587 69.4006 413.216 69.5364C412.844 69.6722 412.447 69.7231 412.054 69.6853H399.122V83.0864H417.113C417.548 82.9941 418 83.0088 418.429 83.1298C418.857 83.2508 419.25 83.4743 419.573 83.7809C419.896 84.0875 420.14 84.4683 420.283 84.89C420.427 85.3118 420.465 85.762 420.396 86.202Z" fill="#594A39"/>
<path d="M204.871 145.435C204.38 145.167 204.112 144.866 204.067 144.531C204.105 143.9 204.301 143.289 204.637 142.755C205.039 141.917 205.709 140.61 206.614 138.868C207.136 137.91 207.584 136.913 207.954 135.887C208.155 135.393 208.29 134.875 208.356 134.346C208.356 134.044 208.356 133.843 208.356 133.776C208.311 133.682 208.288 133.579 208.288 133.474C208.288 133.37 208.311 133.267 208.356 133.173C208.49 132.988 208.677 132.848 208.892 132.771L209.863 132C210.347 131.658 210.748 131.212 211.036 130.694C211.304 130.124 211.572 129.521 211.907 128.885C212.242 128.248 212.644 127.511 213.18 126.573C213.716 125.635 214.42 124.395 215.324 122.888L217.335 119.537C218.105 118.298 218.842 117.192 219.613 116.187C219.885 115.825 220.213 115.508 220.584 115.249C220.842 115.067 221.142 114.952 221.455 114.914C222.102 114.923 222.736 115.095 223.298 115.416C223.909 115.709 224.464 116.106 224.94 116.589C225.346 116.983 225.676 117.448 225.911 117.963C226.089 118.409 226.147 118.894 226.079 119.37C226.079 120.107 226.079 120.978 225.911 122.017C225.744 123.055 225.71 124.161 225.61 125.367C225.509 126.573 225.409 127.88 225.241 129.454C225.074 131.029 224.906 132.804 224.739 134.346C224.571 135.887 224.471 137.696 224.404 139.304C224.303 140.676 224.303 142.053 224.404 143.425C224.437 143.658 224.437 143.895 224.404 144.129C224.39 144.318 224.39 144.508 224.404 144.698C224.073 144.902 223.683 144.985 223.298 144.933C222.74 144.901 222.189 144.8 221.656 144.631C221.12 144.631 220.819 144.262 220.785 144.028C220.773 143.95 220.773 143.871 220.785 143.794C220.745 143.527 220.745 143.256 220.785 142.99C220.785 142.487 220.785 141.582 220.785 140.276L220.986 133.843H220.45C219.993 133.817 219.534 133.817 219.077 133.843L216.933 134.078L214.822 134.379C214.357 134.429 213.897 134.518 213.448 134.647C213.106 134.701 212.796 134.88 212.577 135.15C212.174 135.528 211.835 135.97 211.572 136.456C211.448 136.903 211.244 137.323 210.969 137.696C210.762 137.939 210.614 138.225 210.533 138.533C210.269 138.765 210.043 139.036 209.863 139.337C209.788 139.767 209.652 140.185 209.461 140.577C209.199 141.319 208.898 142.046 208.557 142.755C208.241 143.48 207.859 144.175 207.418 144.832L206.279 146.44L204.871 145.435ZM214.922 130.995L216.497 130.727H217.636L219.278 130.359C219.635 130.334 219.993 130.334 220.35 130.359C220.571 130.319 220.798 130.319 221.02 130.359C221.12 130.512 221.277 130.62 221.455 130.66C221.543 130.377 221.6 130.085 221.623 129.789C221.623 129.253 221.824 128.583 221.925 127.813C222.025 127.042 222.159 126.205 222.259 125.367C222.36 124.529 222.461 123.692 222.561 122.954C222.662 122.217 222.561 121.648 222.561 121.213C222.618 120.51 222.618 119.804 222.561 119.102C222.561 119.102 222.092 119.403 221.623 120.006C221.04 120.778 220.503 121.584 220.015 122.419C219.412 123.39 218.842 124.462 218.239 125.769C218.024 126.207 217.766 126.622 217.469 127.009C217.234 127.344 217.033 127.478 216.899 127.478L216.464 128.114L215.693 129.387C215.425 129.856 215.224 130.258 215.023 130.66C214.822 131.062 214.822 130.928 214.922 130.995Z" fill="#B8C318"/>
<path d="M235.796 153.746C235.445 153.522 235.109 153.276 234.791 153.009C234.417 152.673 234.159 152.228 234.054 151.736C233.933 150.791 233.933 149.833 234.054 148.888C234.182 147.598 234.418 146.32 234.757 145.069C235.092 143.662 235.528 142.221 236.03 140.747C236.207 140.445 236.363 140.131 236.499 139.809C236.631 139.586 236.701 139.331 236.7 139.072C235.394 139.742 234.456 140.244 233.786 140.546C233.277 140.848 232.701 141.02 232.11 141.048C231.637 140.99 231.204 140.75 230.904 140.378C230.452 139.935 230.068 139.427 229.765 138.871C229.469 138.396 229.296 137.855 229.263 137.296C229.351 136.578 229.579 135.884 229.933 135.252C230.331 134.364 230.826 133.521 231.407 132.74C231.756 132.198 232.185 131.712 232.68 131.299C233.3 130.751 233.948 130.236 234.623 129.758C235.126 129.359 235.652 128.99 236.198 128.652L236.868 128.284L237.538 127.982C237.739 127.851 237.952 127.739 238.174 127.647C238.329 127.61 238.489 127.61 238.643 127.647C239.166 127.575 239.696 127.575 240.218 127.647C240.695 127.67 241.167 127.749 241.625 127.882C242.095 128.26 242.512 128.699 242.865 129.188C243.284 129.725 243.592 130.34 243.77 130.997C243.788 131.254 243.788 131.511 243.77 131.768C243.721 132.091 243.631 132.406 243.501 132.706L242.697 134.549C242.262 135.174 241.881 135.835 241.558 136.525C241.382 136.892 241.236 137.273 241.123 137.664C241.123 138.033 240.788 138.502 240.52 139.105L239.783 140.713C239.548 141.182 239.414 141.518 239.314 141.685C239.221 142.195 239.098 142.698 238.945 143.193C238.744 143.896 238.543 144.667 238.342 145.538C238.141 146.409 237.94 147.18 237.772 147.95C237.553 149.054 237.441 150.175 237.437 151.3C237.375 151.956 237.491 152.615 237.772 153.21C237.772 153.545 237.772 153.846 237.236 154.081C236.991 154.182 236.721 154.204 236.462 154.144C236.204 154.084 235.971 153.945 235.796 153.746ZM232.446 137.732C233.358 137.825 234.274 137.588 235.025 137.062C235.922 136.444 236.762 135.749 237.538 134.984C238.033 134.524 238.471 134.007 238.844 133.443C239.19 132.951 239.482 132.423 239.716 131.869C239.903 131.544 239.962 131.162 239.883 130.797C239.883 130.562 239.448 130.596 238.878 130.797C238.09 131.181 237.348 131.652 236.667 132.203C235.812 132.834 235.016 133.541 234.288 134.314C233.72 134.939 233.256 135.652 232.914 136.425L232.446 137.732Z" fill="#B8C318"/>
<path d="M257.069 143.962C256.766 143.634 256.538 143.246 256.398 142.823C256.22 142.309 256.052 141.74 255.896 141.114C255.861 140.87 255.861 140.622 255.896 140.377C255.917 140.154 255.917 139.93 255.896 139.707C255.787 139.959 255.664 140.206 255.527 140.444C255.381 140.691 255.2 140.917 254.991 141.114L254.221 141.784C253.859 142.083 253.466 142.342 253.048 142.555C252.332 143.061 251.48 143.341 250.603 143.359C250.23 143.329 249.869 143.217 249.545 143.032C249.221 142.847 248.941 142.592 248.726 142.287C248.272 141.913 247.906 141.444 247.654 140.913C247.358 140.285 247.299 139.571 247.487 138.903C247.519 137.931 247.654 136.965 247.889 136.022C248.255 134.739 248.714 133.485 249.262 132.269C249.865 131.13 250.301 130.226 250.636 129.589C250.803 129.198 250.993 128.818 251.206 128.45C251.71 128.315 252.242 128.315 252.747 128.45C253.383 128.45 253.718 128.885 253.785 129.287C253.961 129.798 253.961 130.352 253.785 130.862C253.536 131.769 253.188 132.645 252.747 133.475C252.378 134.447 252.01 135.352 251.641 136.256C251.36 136.983 251.146 137.734 251.005 138.501C251.005 139.137 251.005 139.506 251.507 139.64C251.682 139.715 251.87 139.753 252.06 139.753C252.25 139.753 252.438 139.715 252.613 139.64C253.317 139.302 253.919 138.781 254.355 138.132C255.234 136.899 255.955 135.559 256.499 134.146C256.706 133.657 256.874 133.153 257.001 132.638C257.108 132.164 257.175 131.682 257.203 131.197C257.168 130.83 257.262 130.463 257.471 130.159C257.7 129.822 257.997 129.537 258.342 129.321C258.476 129.163 258.634 129.027 258.811 128.919C259.012 128.919 259.112 128.919 259.179 128.919H259.849C259.849 128.919 260.084 128.919 260.218 129.254C260.34 129.46 260.487 129.651 260.653 129.824C260.955 130.058 261.089 130.594 261.089 131.432C260.954 132.667 260.602 133.87 260.05 134.983C259.658 135.824 259.311 136.684 259.012 137.563C258.823 138.126 258.711 138.712 258.677 139.305C258.62 139.727 258.62 140.155 258.677 140.578C258.809 141.001 259.066 141.375 259.414 141.65C259.576 141.755 259.71 141.899 259.804 142.069C259.898 142.238 259.948 142.428 259.95 142.622C259.982 143.023 259.982 143.427 259.95 143.828C259.95 144.096 259.682 144.263 259.28 144.364C258.881 144.433 258.473 144.433 258.074 144.364C257.712 144.309 257.368 144.171 257.069 143.962Z" fill="#B8C318"/>
<path d="M265.812 143.193C265.634 142.905 265.379 142.673 265.075 142.523C264.673 142.289 264.506 142.121 264.506 141.987C264.477 141.807 264.408 141.635 264.305 141.484C264.212 141.295 264.1 141.115 263.97 140.948C263.97 140.948 263.97 140.379 263.97 139.709C263.97 139.039 264.539 138.268 264.975 137.297C265.41 136.325 265.913 135.387 266.449 134.415C266.714 134.147 266.94 133.843 267.119 133.511C267.266 133.262 267.434 133.027 267.622 132.807C267.596 132.708 267.596 132.605 267.622 132.506C267.622 132.506 267.789 132.506 267.923 132.506L268.258 131.836C268.421 131.6 268.6 131.376 268.794 131.166C269.124 130.772 269.483 130.402 269.866 130.06L271.139 128.887C271.479 128.607 271.838 128.35 272.212 128.117C272.739 127.739 273.372 127.54 274.021 127.547C274.609 127.561 275.176 127.774 275.629 128.15L276.198 128.653L277.203 129.491L278.208 130.328L279.75 131.701L279.046 133.812C278.695 134.753 278.591 135.768 278.745 136.76C278.884 137.528 279.156 138.265 279.549 138.938C279.672 139.22 279.869 139.463 280.118 139.642C280.394 139.838 280.719 139.954 281.056 139.977C281.286 140.017 281.504 140.108 281.693 140.245C281.795 140.323 281.876 140.425 281.928 140.542C281.981 140.659 282.004 140.787 281.994 140.915C282.034 141.422 281.904 141.929 281.626 142.356C281.438 142.617 281.166 142.806 280.855 142.892C279.961 142.997 279.056 142.893 278.208 142.59C277.183 142.104 276.372 141.257 275.93 140.211C275.93 140.211 275.696 139.709 275.495 139.24C275.357 138.952 275.256 138.648 275.193 138.335L274.758 138.871L274.222 139.441C272.771 141.04 271.047 142.368 269.129 143.361C268.602 143.594 268.027 143.701 267.451 143.672C266.875 143.642 266.314 143.479 265.812 143.193ZM269.163 139.374C269.754 139.02 270.315 138.617 270.838 138.168L273.217 136.158C273.891 135.552 274.487 134.866 274.992 134.114L275.93 132.606C275.764 132.133 275.501 131.7 275.16 131.333C275.074 131.24 274.971 131.166 274.856 131.114C274.74 131.062 274.616 131.034 274.49 131.032C273.993 131.102 273.54 131.352 273.217 131.735C272.578 132.343 272.005 133.017 271.508 133.745C270.871 134.617 270.168 135.722 269.364 137.096C268.907 137.939 268.537 138.825 268.258 139.742C268.532 139.693 268.794 139.59 269.029 139.441L269.163 139.374Z" fill="#B8C318"/>
<path d="M283.972 153.848H283.671C283.558 153.856 283.445 153.828 283.348 153.768C283.252 153.707 283.177 153.618 283.135 153.512L282.632 152.675C282.435 152.134 282.435 151.541 282.632 151C282.784 150.541 282.896 150.071 282.967 149.593C283.003 149.247 283.003 148.899 282.967 148.554C282.951 148.331 282.951 148.107 282.967 147.884C282.988 147.661 282.988 147.437 282.967 147.214C283.149 146.931 283.263 146.61 283.302 146.276C283.347 145.931 283.347 145.582 283.302 145.237C283.313 145.054 283.364 144.875 283.451 144.713C283.538 144.551 283.658 144.41 283.805 144.299C283.77 144.021 283.77 143.74 283.805 143.461C283.835 143.239 283.835 143.014 283.805 142.792C283.805 142.423 284.073 141.72 284.374 140.714C284.676 139.709 285.044 138.604 285.48 137.364C285.915 136.125 286.318 134.885 286.753 133.679C287.189 132.473 287.557 131.468 287.892 130.63C288.227 129.792 288.495 129.089 288.73 128.419C288.894 127.964 289.006 127.492 289.065 127.012C289.031 126.926 289.031 126.83 289.065 126.744L289.433 126.274C289.588 126.141 289.771 126.044 289.968 125.992C290.165 125.94 290.372 125.933 290.572 125.973C290.979 126.035 291.367 126.184 291.712 126.409C291.919 126.722 292.088 127.06 292.214 127.414C292.297 127.857 292.297 128.311 292.214 128.754C292.218 129.165 292.114 129.569 291.913 129.927L291.41 130.764C291.243 130.965 291.176 131.066 291.243 131.032C292.248 130.365 293.395 129.941 294.593 129.792C295.462 129.704 296.337 129.879 297.106 130.295C297.775 130.697 298.32 131.277 298.68 131.97C299.042 132.663 299.226 133.434 299.216 134.215C299.191 134.689 299.077 135.155 298.881 135.588C298.662 136.115 298.416 136.629 298.144 137.13C297.954 137.486 297.729 137.822 297.474 138.135C297.474 138.135 297.24 138.134 297.139 138.403C297.007 138.591 296.895 138.794 296.804 139.006C296.481 139.381 296.096 139.699 295.665 139.944C295.181 140.294 294.651 140.576 294.09 140.781C293.554 141.005 293.186 141.072 292.985 140.982C292.917 141.018 292.859 141.071 292.818 141.135C292.777 141.2 292.753 141.274 292.75 141.351C292.75 141.351 292.549 141.351 292.181 141.686C291.724 141.877 291.253 142.034 290.773 142.155C290.294 142.293 289.798 142.372 289.299 142.39C288.854 142.427 288.412 142.295 288.06 142.021L287.859 142.289C287.83 142.387 287.83 142.492 287.859 142.59C287.833 142.867 287.765 143.139 287.658 143.395C287.547 143.733 287.401 144.058 287.222 144.366C287.222 144.668 286.921 144.802 286.753 144.802C286.704 144.87 286.678 144.952 286.678 145.036C286.678 145.121 286.704 145.202 286.753 145.271C286.78 145.719 286.7 146.167 286.519 146.577C286.555 146.911 286.555 147.249 286.519 147.583C286.478 147.933 286.376 148.273 286.217 148.588C286.268 148.909 286.268 149.237 286.217 149.559C286.217 149.894 286.117 150.062 285.915 150.062C285.915 150.062 285.714 150.263 285.681 150.564C285.647 150.866 285.681 151.134 285.681 151.268C285.669 151.94 285.433 152.588 285.011 153.11C284.775 153.483 284.402 153.748 283.972 153.848ZM289.366 139.14C289.776 139.091 290.18 139.001 290.572 138.872C291.176 138.671 291.779 138.403 292.415 138.135C292.952 137.894 293.458 137.59 293.923 137.23C294.575 136.673 295.15 136.03 295.631 135.321C295.842 135.021 295.955 134.664 295.955 134.298C295.955 133.933 295.842 133.576 295.631 133.277C295.533 133.087 295.375 132.934 295.181 132.843C294.987 132.752 294.768 132.728 294.559 132.774C293.974 132.876 293.423 133.117 292.951 133.478C292.3 133.907 291.694 134.401 291.142 134.952C290.787 135.344 290.473 135.77 290.204 136.225C289.947 136.666 289.723 137.125 289.534 137.598C289.364 137.947 289.251 138.32 289.199 138.704C289.065 139.006 289.165 139.14 289.366 139.14Z" fill="#B8C318"/>
<path d="M306.451 143.763C306.148 143.779 305.846 143.709 305.58 143.561L304.81 142.959C304.279 142.438 303.848 141.825 303.537 141.149C303.224 140.65 303.094 140.058 303.168 139.474C303.228 139.153 303.228 138.823 303.168 138.502C303.168 138.502 303.001 138.302 303.168 138.235C303.237 138.167 303.294 138.087 303.336 138C303.336 138 303.537 138 303.336 137.564C303.313 137.059 303.404 136.555 303.604 136.09C303.845 135.352 304.171 134.643 304.575 133.98L305.346 132.874C305.685 132.394 306.055 131.935 306.451 131.5C306.795 131.097 307.164 130.717 307.557 130.361C308.185 129.85 308.845 129.38 309.534 128.954C310.09 128.599 310.702 128.339 311.343 128.184C311.97 128.047 312.611 127.979 313.253 127.982C313.553 127.973 313.852 128.028 314.129 128.144C314.406 128.26 314.656 128.433 314.861 128.653C315.437 128.862 315.922 129.264 316.234 129.792C316.53 130.366 316.712 130.992 316.77 131.635C316.833 132.67 316.743 133.708 316.502 134.717C316.106 136.244 315.411 137.679 314.459 138.938C313.869 139.805 313.171 140.593 312.382 141.283C311.684 141.861 310.945 142.388 310.17 142.858C309.6 143.219 308.961 143.458 308.294 143.561L306.451 143.763ZM310.74 138.637C311.302 138.162 311.748 137.566 312.046 136.894C312.314 136.224 312.616 135.487 312.917 134.616C313.042 134.352 313.122 134.069 313.152 133.779C313.186 133.389 313.186 132.996 313.152 132.606C313.152 132.237 313.152 132.037 312.851 131.969C312.741 131.897 312.613 131.859 312.482 131.859C312.351 131.859 312.223 131.897 312.113 131.969C311.757 132.098 311.428 132.291 311.142 132.539C310.274 133.243 309.497 134.054 308.83 134.951C308.06 135.927 307.542 137.078 307.323 138.302C307.22 138.838 307.303 139.393 307.557 139.876C307.792 140.245 308.194 140.312 308.73 140.178C309.509 139.824 310.196 139.297 310.74 138.637Z" fill="#B8C318"/>
<path d="M335.298 143.057C334.765 143.016 334.243 142.879 333.757 142.655C333.284 142.361 332.928 141.911 332.752 141.382C332.703 140.914 332.703 140.442 332.752 139.975C332.718 139.495 332.718 139.013 332.752 138.534C332.78 138.132 332.78 137.729 332.752 137.328V136.557C332.752 136.122 332.752 135.854 332.417 135.753C332.082 135.653 332.015 135.753 331.647 135.753L329.737 136.859C329.067 137.328 328.33 137.864 327.593 138.467L325.315 140.377C324.816 140.888 324.357 141.437 323.941 142.018C323.64 142.454 323.338 142.655 323.036 142.655C322.93 142.716 322.808 142.749 322.685 142.749C322.561 142.749 322.44 142.716 322.333 142.655L321.529 142.085L320.825 141.214C320.645 140.997 320.487 140.761 320.356 140.51C320.32 140.109 320.32 139.706 320.356 139.304C320.442 138.917 320.553 138.537 320.691 138.165C320.691 137.797 321.026 137.328 321.261 136.825C321.375 136.631 321.475 136.43 321.562 136.222L321.931 135.519C322.061 135.059 322.229 134.611 322.433 134.179C322.634 133.665 322.835 133.196 323.036 132.771C323.238 132.347 323.472 131.71 323.74 130.862C323.74 130.326 324.042 129.756 324.176 129.153C324.176 129.153 324.176 129.153 324.176 128.885C324.198 128.837 324.23 128.793 324.271 128.759C324.311 128.724 324.359 128.699 324.41 128.684C324.766 128.551 325.159 128.551 325.516 128.684C325.958 128.749 326.381 128.909 326.755 129.153C327.042 129.392 327.268 129.696 327.414 130.04C327.559 130.384 327.621 130.757 327.593 131.13C327.466 132.338 327.028 133.493 326.32 134.48C326.153 134.909 325.951 135.324 325.717 135.72C325.566 135.954 325.464 136.216 325.415 136.49L326.554 135.619L327.358 135.049L328.263 134.279L329.804 133.073L331.178 132.102C331.55 131.848 331.942 131.623 332.35 131.431C332.624 131.271 332.916 131.147 333.221 131.063C333.585 131.086 333.94 131.188 334.26 131.364C334.659 131.567 335.04 131.802 335.399 132.068C335.676 132.24 335.888 132.499 336.002 132.805C336.011 132.95 336.011 133.096 336.002 133.241C336.002 133.408 336.002 133.576 336.002 133.71C335.968 134.245 335.968 134.782 336.002 135.318V137.227C336.072 137.783 336.072 138.346 336.002 138.902V139.171C336.002 139.171 336.002 139.17 336.002 139.439C336.059 139.632 336.126 139.822 336.203 140.008C336.27 140.229 336.36 140.442 336.471 140.645L336.84 141.549C336.782 141.97 336.566 142.353 336.237 142.621C335.956 142.827 335.637 142.975 335.298 143.057Z" fill="#B8C318"/>
<path d="M342.366 143.359C342.131 143.067 341.97 142.722 341.896 142.354C341.831 141.91 341.831 141.458 341.896 141.014C341.906 140.681 341.974 140.352 342.097 140.043C342.056 139.866 342.056 139.683 342.097 139.506C342.144 139.388 342.144 139.256 342.097 139.138C342.044 138.952 342.044 138.754 342.097 138.568C342.097 138.267 342.098 137.999 342.332 137.764C342.586 137.196 342.81 136.614 343.002 136.022C343.27 135.318 343.505 134.581 343.773 133.844L344.409 131.901C344.577 131.365 344.644 131.03 344.677 130.93C344.711 130.829 344.912 130.394 345.347 130.36C345.574 130.323 345.806 130.344 346.023 130.42C346.239 130.496 346.433 130.625 346.587 130.796C347.019 131.158 347.402 131.575 347.726 132.035C347.833 132.157 347.91 132.302 347.951 132.459C347.991 132.617 347.995 132.781 347.96 132.94C347.842 133.473 347.662 133.99 347.425 134.481C347.247 134.832 347.112 135.203 347.022 135.586C346.887 136.016 346.776 136.452 346.687 136.893C346.545 137.198 346.421 137.511 346.319 137.831C346.16 138.202 346.026 138.582 345.917 138.97C345.876 139.226 345.876 139.486 345.917 139.741C345.917 140.143 345.917 140.511 345.682 140.913C345.65 141.239 345.534 141.55 345.347 141.818C345.113 142.991 344.677 143.661 344.041 143.862C343.743 143.944 343.427 143.941 343.131 143.852C342.834 143.763 342.569 143.593 342.366 143.359ZM346.922 126.608C346.635 126.391 346.396 126.117 346.218 125.804C346.075 125.535 345.995 125.237 345.984 124.933C345.939 124.78 345.939 124.617 345.984 124.464C346.312 124.119 346.564 123.708 346.721 123.258C346.944 122.744 347.179 122.275 347.425 121.85L347.659 121.515C347.659 121.515 347.86 121.247 347.96 121.247C348.174 121.124 348.417 121.059 348.664 121.059C348.911 121.059 349.154 121.124 349.368 121.247C349.909 121.449 350.377 121.812 350.708 122.286C350.951 122.797 351.033 123.369 350.942 123.928C350.793 124.585 350.482 125.196 350.038 125.703C349.632 126.226 349.068 126.602 348.43 126.775C348.173 126.837 347.907 126.845 347.648 126.799C347.388 126.753 347.141 126.654 346.922 126.507V126.608Z" fill="#B8C318"/>
<path d="M357.678 144.23C356.869 144.366 356.04 144.297 355.265 144.029C354.491 143.764 353.807 143.288 353.289 142.655C352.747 142.022 352.46 141.21 352.484 140.377C352.424 139.366 352.503 138.351 352.719 137.362C352.964 136.154 353.335 134.975 353.825 133.844C354.256 132.777 354.831 131.774 355.533 130.862C356.057 130.217 356.616 129.602 357.208 129.02C357.651 128.567 358.159 128.183 358.716 127.881C359.18 127.693 359.663 127.558 360.157 127.479H361.363C361.869 127.614 362.362 127.793 362.837 128.014C363.407 128.282 363.675 128.584 363.675 128.919L363.876 129.12C363.876 129.12 364.244 129.321 364.445 129.723C364.661 130.158 364.819 130.62 364.914 131.097C365.073 131.495 365.073 131.938 364.914 132.336C364.799 132.901 364.571 133.436 364.244 133.911C363.943 134.413 363.675 134.648 363.44 134.648H363.138C363.138 134.648 362.971 134.648 362.971 134.883C362.971 135.117 362.971 135.083 362.535 135.083C362.225 135.093 361.917 135.036 361.631 134.916C361.502 134.886 361.382 134.824 361.283 134.736C361.184 134.648 361.107 134.538 361.061 134.413C361.034 134.236 361.034 134.055 361.061 133.877C361.061 133.643 361.061 133.274 361.329 132.738C361.483 132.225 361.483 131.677 361.329 131.164C361.329 130.896 360.827 130.862 360.291 131.164C359.638 131.522 359.049 131.986 358.548 132.537C358.037 133.184 357.63 133.908 357.342 134.681C357.007 135.619 356.639 136.893 356.203 138.568C356.055 139.059 356.055 139.584 356.203 140.075C356.203 140.444 356.438 140.645 356.505 140.645C356.934 140.747 357.382 140.747 357.812 140.645C358.208 140.602 358.594 140.489 358.951 140.31C359.373 140.099 359.777 139.853 360.157 139.573L361.296 138.702C361.47 138.586 361.61 138.423 361.698 138.233C361.737 138.112 361.803 138.002 361.89 137.909C361.977 137.817 362.083 137.744 362.2 137.697C362.286 137.546 362.407 137.419 362.553 137.326C362.699 137.232 362.865 137.176 363.038 137.161H364.077C364.349 137.214 364.596 137.355 364.78 137.563C365.017 137.741 365.212 137.97 365.35 138.233C365.35 138.434 365.35 138.568 365.35 138.668C365.35 138.769 365.182 138.668 365.149 138.869C365.115 139.07 365.149 139.238 364.78 139.64C364.452 140.088 364.082 140.503 363.675 140.88C363.276 141.298 362.851 141.69 362.401 142.052C362.155 142.279 361.855 142.44 361.53 142.521C361.262 142.521 361.128 142.521 361.128 142.789L360.525 143.191C360.069 143.44 359.599 143.664 359.118 143.861C358.65 144.028 358.168 144.152 357.678 144.23Z" fill="#B8C318"/>
<path d="M372.184 144.298C371.417 144.026 370.711 143.605 370.107 143.059C369.671 142.623 369.504 142.255 369.571 141.92C369.639 141.745 369.742 141.585 369.872 141.451C370.154 141.281 370.484 141.21 370.811 141.25C371.59 141.33 372.362 141.464 373.122 141.652H374.127H374.998C375.222 141.631 375.44 141.562 375.635 141.451C375.802 141.451 375.836 141.451 375.635 141.216C375.562 141.092 375.458 140.987 375.333 140.915C375.244 140.787 375.114 140.693 374.965 140.647C374.844 140.617 374.717 140.617 374.596 140.647C374.506 140.477 374.381 140.328 374.228 140.211L373.591 139.776L371.916 138.402C371.414 138.033 371.212 137.732 371.313 137.531V137.33C371.112 137.33 370.944 137.062 370.777 136.492C370.615 136.017 370.525 135.52 370.509 135.018C370.519 134.441 370.644 133.871 370.878 133.343C371.111 132.765 371.427 132.223 371.816 131.735C372.16 131.259 372.541 130.812 372.955 130.395C373.491 129.892 374.06 129.39 374.663 128.921C375.276 128.41 375.938 127.961 376.64 127.58C377.375 127.17 378.165 126.866 378.985 126.676C379.441 126.62 379.903 126.62 380.359 126.676C380.727 126.651 381.096 126.72 381.431 126.877C381.557 126.8 381.702 126.759 381.85 126.759C381.997 126.759 382.142 126.8 382.268 126.877C382.643 127.118 382.982 127.411 383.273 127.748C383.577 128.07 383.836 128.43 384.044 128.82C384.044 129.155 384.044 129.591 384.044 130.06C384.083 130.494 384.083 130.932 384.044 131.366C384.044 131.735 384.044 131.903 383.676 131.903C383.307 131.903 383.441 131.902 383.441 132.137C383.441 132.371 383.24 132.74 382.838 133.109C382.357 133.444 381.853 133.747 381.33 134.013C380.828 134.214 380.493 134.248 380.225 134.013L379.756 133.678C379.607 133.557 379.483 133.409 379.387 133.243C379.282 133.081 379.214 132.898 379.186 132.707C379.212 132.529 379.294 132.365 379.421 132.237C379.76 131.939 380.064 131.602 380.325 131.233C380.506 130.986 380.653 130.715 380.761 130.429C380.797 130.24 380.797 130.047 380.761 129.859C380.783 129.806 380.794 129.749 380.794 129.691C380.794 129.634 380.783 129.577 380.761 129.524H380.325C380.007 129.602 379.703 129.726 379.421 129.892C378.917 130.116 378.435 130.385 377.98 130.696C377.56 130.961 377.157 131.252 376.774 131.568L376.573 131.936C376.536 131.954 376.496 131.963 376.456 131.963C376.415 131.963 376.375 131.954 376.338 131.936C376.338 131.936 376.339 131.936 376.104 131.936L375.601 132.506L375.032 133.31L374.563 133.98C374.531 134.223 374.464 134.46 374.362 134.683C374.313 134.893 374.313 135.11 374.362 135.32C374.396 135.635 374.552 135.923 374.797 136.124C375.135 136.469 375.493 136.794 375.869 137.096C376.875 137.833 377.612 138.402 378.081 138.804C378.45 139.115 378.797 139.45 379.119 139.809C379.308 140.029 379.435 140.295 379.488 140.58C379.714 140.905 379.849 141.285 379.878 141.679C379.908 142.074 379.831 142.47 379.655 142.824C379.276 143.48 378.685 143.988 377.98 144.265C377.506 144.455 377.011 144.59 376.506 144.667C375.771 144.736 375.03 144.736 374.295 144.667C373.572 144.705 372.851 144.579 372.184 144.298Z" fill="#B8C318"/>
</svg>
