<svg width="671" height="207" viewBox="0 0 671 207" fill="none" xmlns="http://www.w3.org/2000/svg">
<g clip-path="url(#clip0_1933_990)">
<path d="M566.512 0H103.5C46.3385 0 0 46.3385 0 103.5C0 160.661 46.3385 207 103.5 207H566.512C623.673 207 670.012 160.661 670.012 103.5C670.012 46.3385 623.673 0 566.512 0Z" fill="#7BBE31"/>
<path d="M131.183 84.5306C131.183 86.3156 130.306 87.2534 128.702 87.2534H72.6713C71.0678 87.2534 70.1904 86.3156 70.1904 84.5306C70.1904 82.7456 71.0678 81.838 72.6713 81.838H87.6471C87.4859 81.6188 87.3442 81.386 87.2236 81.1422C85.7109 78.3285 84.1982 75.787 82.8973 73.6087C82.5313 73.1897 82.3295 72.6523 82.3295 72.096C82.3295 71.5397 82.5313 71.0022 82.8973 70.5833C83.3446 70.1897 83.92 69.9728 84.5158 69.9728C85.1116 69.9728 85.6871 70.1897 86.1344 70.5833C88.7039 72.4777 91.0758 74.6266 93.2139 76.9972C93.9368 77.5755 94.4114 78.4081 94.5408 79.3248C94.6701 80.2414 94.4444 81.1729 93.9098 81.9286H106.738C107.918 79.115 109.158 75.4846 110.187 72.5801C111.215 69.6757 113.424 69.2219 116.026 70.2505C116.536 70.4022 117.004 70.6698 117.394 71.0325C117.783 71.3953 118.083 71.8433 118.271 72.3414C118.458 72.8395 118.528 73.3742 118.475 73.9038C118.421 74.4333 118.246 74.9433 117.962 75.3938C116.467 77.7281 114.755 79.916 112.849 81.9286H128.581C130.306 81.8076 131.183 82.8061 131.183 84.5306ZM101.504 95.2406V127.582C101.504 134.329 96.5117 136.386 87.4959 133.633C87.2032 133.569 86.9262 133.447 86.6808 133.275C86.4354 133.103 86.2265 132.884 86.0662 132.631C85.9059 132.378 85.7972 132.096 85.7466 131.8C85.696 131.505 85.7045 131.202 85.7714 130.91C85.9832 129.67 86.8908 129.186 88.3127 129.246C92.6391 129.458 93.335 128.974 93.335 126.221V118.113H82.8367V131.032C82.8367 133.724 81.3845 134.965 78.6919 134.965C78.1521 135.049 77.5999 135.007 77.0793 134.841C76.5587 134.675 76.0841 134.389 75.6933 134.007C75.3025 133.625 75.0063 133.157 74.8283 132.641C74.6503 132.124 74.5955 131.573 74.6681 131.032V95.1196C74.5999 94.5816 74.6552 94.0351 74.8299 93.5216C75.0045 93.0082 75.2938 92.5412 75.6758 92.1563C76.0579 91.7713 76.5226 91.4785 77.0347 91.3C77.5468 91.1215 78.0929 91.062 78.6314 91.1261H97.6008C98.1449 91.0742 98.6936 91.1467 99.2054 91.3384C99.7172 91.5301 100.179 91.8358 100.555 92.2323C100.931 92.6289 101.212 93.1058 101.376 93.6271C101.541 94.1483 101.584 94.7 101.504 95.2406ZM82.8367 96.9651V102.229H93.335V96.9348C93.339 96.825 93.3209 96.7156 93.2817 96.613C93.2425 96.5103 93.183 96.4167 93.1067 96.3376C93.0305 96.2586 92.939 96.1956 92.8379 96.1526C92.7367 96.1097 92.628 96.0875 92.5181 96.0876H83.6536C83.5438 96.0875 83.4349 96.1097 83.3338 96.1526C83.2327 96.1956 83.1413 96.2586 83.065 96.3376C82.9888 96.4167 82.9292 96.5103 82.89 96.613C82.8508 96.7156 82.8326 96.825 82.8367 96.9348V96.9651ZM93.335 113.454V107.04H82.8367V113.454H93.335ZM109.763 123.891C107.343 123.891 105.981 122.651 105.981 120.442V96.0575C105.946 95.5611 106.021 95.0629 106.202 94.5991C106.382 94.1353 106.664 93.7174 107.026 93.3757C107.388 93.0341 107.821 92.7771 108.294 92.6234C108.768 92.4698 109.269 92.4235 109.763 92.4875C110.26 92.4193 110.766 92.4624 111.245 92.6137C111.723 92.7649 112.162 93.0205 112.53 93.3621C112.898 93.7037 113.185 94.1228 113.371 94.5889C113.557 95.0551 113.637 95.5567 113.605 96.0575V120.442C113.605 122.651 112.214 123.891 109.703 123.891H109.763ZM126.524 93.3043V126.917C126.524 134.39 121.018 137.143 110.368 132.968C109.796 132.804 109.307 132.428 109.003 131.916C108.7 131.404 108.603 130.795 108.734 130.215C109.007 129.035 109.884 128.551 111.397 128.702C117.599 129.246 118.355 128.702 118.355 125.676V93.3043C118.355 90.9142 119.929 89.6133 122.47 89.6133C125.011 89.6133 126.524 90.8839 126.524 93.3043Z" fill="#FDFDFB"/>
<path d="M160.197 102.653V131.032C160.197 133.785 158.684 135.086 155.931 135.086C153.178 135.086 151.604 133.785 151.604 131.032V110.912C150.252 112.015 148.826 113.026 147.339 113.938C145.977 114.755 144.737 114.755 143.98 113.666C143.64 113.133 143.513 112.49 143.625 111.868C143.737 111.245 144.08 110.688 144.585 110.307C150.027 104.815 154.47 98.4161 157.716 91.3983C157.905 90.8057 158.226 90.2638 158.655 89.8132C159.083 89.3625 159.608 89.0149 160.191 88.7965C160.773 88.5781 161.398 88.4945 162.017 88.5522C162.636 88.6098 163.234 88.8071 163.767 89.1292C166.399 90.4301 166.792 92.6387 165.219 95.3919C163.802 97.9806 162.119 100.414 160.197 102.653ZM144.192 93.3952C143.797 92.8928 143.617 92.2547 143.69 91.6199C143.764 90.9851 144.086 90.4052 144.585 90.0067C149.329 85.1221 153.188 79.4508 155.991 73.2457C156.204 72.6531 156.552 72.1184 157.008 71.6837C157.463 71.249 158.014 70.9263 158.616 70.7414C159.217 70.5564 159.854 70.5142 160.475 70.618C161.096 70.7219 161.684 70.969 162.193 71.3397C164.735 72.6406 165.219 74.9703 163.494 77.7235C159.319 84.1552 153.809 89.6135 147.339 93.7279C147.117 93.929 146.856 94.0811 146.572 94.1741C146.288 94.267 145.988 94.2989 145.691 94.2675C145.393 94.2361 145.106 94.142 144.848 93.9916C144.59 93.8413 144.366 93.6381 144.192 93.3952ZM204.852 130.215C204.886 130.582 204.837 130.952 204.71 131.299C204.583 131.645 204.38 131.958 204.116 132.216C203.852 132.474 203.535 132.67 203.186 132.789C202.837 132.909 202.465 132.949 202.099 132.907H164.856C164.495 132.959 164.128 132.928 163.781 132.818C163.434 132.707 163.116 132.52 162.852 132.27C162.587 132.02 162.382 131.714 162.253 131.373C162.123 131.033 162.072 130.668 162.103 130.305C162.056 129.929 162.094 129.546 162.215 129.186C162.335 128.826 162.535 128.498 162.799 128.225C163.063 127.952 163.385 127.742 163.741 127.61C164.097 127.478 164.478 127.427 164.856 127.462H178.803V109.309H167.942C167.588 109.338 167.231 109.288 166.899 109.163C166.566 109.039 166.265 108.842 166.016 108.588C165.768 108.334 165.579 108.028 165.462 107.693C165.345 107.357 165.303 107 165.34 106.647C165.304 106.292 165.346 105.933 165.462 105.597C165.579 105.26 165.768 104.952 166.016 104.696C166.263 104.44 166.564 104.241 166.897 104.112C167.229 103.984 167.586 103.93 167.942 103.954H178.803V89.4016H166.701C166.346 89.4254 165.989 89.3713 165.656 89.2431C165.324 89.1149 165.023 88.9156 164.775 88.6593C164.527 88.4029 164.339 88.0955 164.222 87.7587C164.105 87.4218 164.063 87.0636 164.099 86.7089C164.063 86.3555 164.104 85.9984 164.221 85.6628C164.338 85.3273 164.527 85.0215 164.776 84.7674C165.024 84.5133 165.325 84.317 165.658 84.1924C165.991 84.0678 166.347 84.018 166.701 84.0465H178.591V74.9702C178.554 74.3604 178.652 73.75 178.88 73.1831C179.108 72.6162 179.459 72.1072 179.908 71.6929C180.357 71.2786 180.893 70.9695 181.476 70.7881C182.059 70.6066 182.676 70.5574 183.281 70.6439C183.885 70.5507 184.503 70.5954 185.088 70.7748C185.672 70.9542 186.209 71.2636 186.657 71.6798C187.105 72.096 187.453 72.6081 187.676 73.1779C187.898 73.7478 187.988 74.3605 187.94 74.9702V84.0465H200.465C200.821 84.0124 201.179 84.0583 201.514 84.1809C201.85 84.3036 202.153 84.4998 202.403 84.7552C202.653 85.0106 202.842 85.3186 202.957 85.6567C203.072 85.9948 203.109 86.3543 203.067 86.7089C203.108 87.0647 203.07 87.4253 202.956 87.7646C202.841 88.1039 202.652 88.4135 202.403 88.6711C202.155 88.9287 201.852 89.1279 201.516 89.2542C201.181 89.3805 200.822 89.4309 200.465 89.4016H187.667V103.954H198.378C198.736 103.925 199.096 103.976 199.432 104.102C199.769 104.228 200.073 104.427 200.324 104.684C200.575 104.941 200.767 105.25 200.885 105.589C201.004 105.928 201.046 106.289 201.01 106.647C201.053 107.004 201.015 107.366 200.898 107.707C200.782 108.047 200.59 108.357 200.336 108.613C200.083 108.869 199.776 109.065 199.437 109.185C199.097 109.306 198.735 109.348 198.378 109.309H187.667V127.462H202.038C202.415 127.408 202.799 127.441 203.161 127.56C203.522 127.678 203.852 127.878 204.124 128.144C204.396 128.41 204.603 128.735 204.729 129.094C204.856 129.453 204.898 129.837 204.852 130.215Z" fill="#FDFDFB"/>
<path d="M279.126 77.8447C279.169 78.2259 279.126 78.6118 279 78.9741C278.874 79.3364 278.669 79.6659 278.399 79.9386C278.129 80.2112 277.802 80.4202 277.441 80.55C277.08 80.6797 276.694 80.7271 276.313 80.6886H251.898V92.4273C258.607 95.7756 265.024 99.6821 271.079 104.105C271.722 104.436 272.279 104.911 272.708 105.492C273.137 106.074 273.426 106.747 273.552 107.459C273.678 108.171 273.638 108.902 273.434 109.595C273.231 110.289 272.87 110.926 272.38 111.457C270.383 113.847 267.357 113.787 264.816 110.973C260.768 106.521 256.454 102.318 251.898 98.3873V130.669C251.898 133.482 250.264 134.935 247.238 134.935C244.213 134.935 242.489 133.482 242.489 130.669V80.6886H221.643C221.258 80.7311 220.868 80.687 220.502 80.5596C220.136 80.4321 219.804 80.2244 219.528 79.9519C219.253 79.6793 219.042 79.3488 218.91 78.9843C218.779 78.6197 218.731 78.2303 218.769 77.8447C218.707 77.4463 218.737 77.0389 218.857 76.6539C218.977 76.2689 219.183 75.9166 219.461 75.6242C219.739 75.3319 220.08 75.1073 220.458 74.9678C220.837 74.8282 221.242 74.7774 221.643 74.8193H276.101C276.514 74.7512 276.937 74.7824 277.335 74.9103C277.733 75.0383 278.095 75.2594 278.391 75.5552C278.686 75.8509 278.907 76.2129 279.035 76.611C279.163 77.0092 279.194 77.4321 279.126 77.8447Z" fill="#FDFDFB"/>
<path d="M292.862 99.2945C292.798 98.8014 292.848 98.3002 293.008 97.8293C293.167 97.3583 293.432 96.93 293.782 96.5769C294.133 96.2239 294.559 95.9554 295.028 95.7919C295.498 95.6285 295.998 95.5744 296.492 95.6337H348.167C348.659 95.5804 349.157 95.6386 349.624 95.8041C350.091 95.9697 350.514 96.2383 350.863 96.59C351.212 96.9417 351.477 97.3675 351.639 97.8357C351.8 98.3039 351.854 98.8025 351.797 99.2945C351.849 99.7841 351.792 100.279 351.628 100.744C351.464 101.208 351.198 101.63 350.85 101.978C350.502 102.326 350.08 102.592 349.616 102.756C349.151 102.92 348.656 102.977 348.167 102.925H296.492C296.001 102.983 295.504 102.93 295.037 102.768C294.569 102.606 294.145 102.34 293.796 101.991C293.446 101.641 293.181 101.217 293.019 100.75C292.857 100.283 292.803 99.7854 292.862 99.2945Z" fill="#FDFDFB"/>
<path d="M422.622 131.032C418.994 132.248 415.194 132.871 411.367 132.877C402.715 133.361 391.732 133.301 383.564 132.877C372.339 132.272 368.921 130.215 368.921 121.532V79.1757H367.68C367.336 79.2202 366.986 79.1852 366.657 79.0732C366.329 78.9612 366.03 78.7752 365.785 78.5297C365.539 78.2842 365.353 77.9858 365.241 77.6572C365.129 77.3286 365.094 76.9785 365.139 76.6342C365.1 76.2911 365.14 75.9439 365.254 75.6181C365.368 75.2922 365.554 74.9961 365.798 74.752C366.042 74.5079 366.338 74.3219 366.664 74.2078C366.99 74.0937 367.337 74.0545 367.68 74.093H422.138C422.482 74.0484 422.832 74.0835 423.161 74.1955C423.489 74.3074 423.788 74.4932 424.033 74.7387C424.279 74.9842 424.465 75.2828 424.577 75.6114C424.689 75.94 424.724 76.2899 424.679 76.6342C424.724 76.9785 424.689 77.3286 424.577 77.6572C424.465 77.9858 424.279 78.2842 424.033 78.5297C423.788 78.7752 423.489 78.9612 423.161 79.0732C422.832 79.1852 422.482 79.2202 422.138 79.1757H377.785V119.898C377.785 124.224 378.814 125.132 384.169 125.465C393.239 125.92 402.327 125.92 411.398 125.465C414.357 125.329 417.291 124.852 420.141 124.043C422.531 123.287 424.256 123.68 425.073 126.1C425.281 126.581 425.383 127.102 425.369 127.627C425.356 128.151 425.228 128.666 424.994 129.136C424.761 129.605 424.428 130.018 424.018 130.346C423.608 130.673 423.132 130.907 422.622 131.032ZM395.635 101.473C396.178 101.42 396.726 101.489 397.239 101.675C397.752 101.861 398.216 102.159 398.599 102.547C398.982 102.936 399.273 103.405 399.451 103.921C399.629 104.436 399.69 104.985 399.629 105.527V117.296C399.687 117.833 399.623 118.377 399.443 118.886C399.262 119.396 398.969 119.858 398.585 120.239C398.202 120.619 397.737 120.909 397.227 121.085C396.716 121.262 396.172 121.322 395.635 121.259H385.197C384.661 121.322 384.117 121.262 383.606 121.085C383.095 120.909 382.631 120.619 382.247 120.239C381.864 119.858 381.571 119.396 381.39 118.886C381.209 118.377 381.146 117.833 381.204 117.296V105.527C381.143 104.985 381.203 104.436 381.382 103.921C381.56 103.405 381.851 102.936 382.234 102.547C382.616 102.159 383.081 101.861 383.594 101.675C384.107 101.489 384.655 101.42 385.197 101.473H395.635ZM410.762 97.9031H390.764C390.226 97.9712 389.68 97.916 389.166 97.7413C388.653 97.5667 388.186 97.2773 387.801 96.8952C387.416 96.5132 387.123 96.0486 386.945 95.5365C386.766 95.0244 386.707 94.4783 386.771 93.9398V86.1038C386.708 85.5642 386.768 85.0174 386.946 84.5041C387.124 83.9909 387.417 83.5246 387.801 83.1405C388.185 82.7563 388.651 82.4641 389.164 82.2857C389.678 82.1073 390.225 82.0472 390.764 82.1102H410.762C411.304 82.0491 411.853 82.1099 412.369 82.2881C412.884 82.4662 413.353 82.7573 413.742 83.1401C414.131 83.5229 414.429 83.9877 414.615 84.5005C414.801 85.0132 414.869 85.561 414.816 86.1038V93.9095C414.875 94.4536 414.81 95.0041 414.627 95.5195C414.443 96.035 414.145 96.5021 413.755 96.8862C413.365 97.2703 412.893 97.5614 412.375 97.7375C411.857 97.9135 411.306 97.9701 410.762 97.9031ZM392.822 106.979C392.826 106.871 392.808 106.763 392.768 106.662C392.729 106.561 392.669 106.469 392.592 106.392C392.515 106.316 392.423 106.256 392.322 106.216C392.221 106.176 392.113 106.158 392.005 106.162H388.979C388.869 106.158 388.76 106.177 388.657 106.216C388.555 106.255 388.461 106.314 388.382 106.391C388.303 106.467 388.24 106.558 388.197 106.66C388.154 106.761 388.132 106.87 388.132 106.979V115.783C388.132 115.893 388.154 116.002 388.197 116.103C388.24 116.204 388.303 116.296 388.382 116.372C388.461 116.448 388.555 116.508 388.657 116.547C388.76 116.586 388.869 116.604 388.979 116.6H392.005C392.113 116.604 392.221 116.586 392.322 116.547C392.423 116.507 392.515 116.447 392.592 116.371C392.669 116.294 392.729 116.202 392.768 116.101C392.808 116 392.826 115.892 392.822 115.783V106.979ZM406.618 87.6166C406.622 87.5081 406.604 87.4002 406.564 87.2991C406.524 87.1981 406.464 87.1062 406.388 87.0295C406.311 86.9528 406.219 86.8927 406.118 86.8532C406.017 86.8136 405.909 86.7956 405.801 86.7998H395.786C395.677 86.7957 395.567 86.8138 395.465 86.853C395.362 86.8922 395.268 86.9518 395.189 87.0281C395.11 87.1043 395.047 87.1958 395.004 87.2969C394.961 87.398 394.939 87.5067 394.939 87.6166V92.4271C394.939 92.5369 394.961 92.6456 395.004 92.7467C395.047 92.8478 395.11 92.9393 395.189 93.0156C395.268 93.0918 395.362 93.1514 395.465 93.1906C395.567 93.2299 395.677 93.2481 395.786 93.244H405.801C405.909 93.2483 406.017 93.23 406.118 93.1904C406.219 93.1509 406.311 93.0908 406.388 93.0141C406.464 92.9374 406.524 92.8457 406.564 92.7447C406.604 92.6437 406.622 92.5355 406.618 92.4271V87.6166ZM402.715 117.296V105.527C402.652 104.98 402.714 104.425 402.895 103.904C403.077 103.384 403.373 102.911 403.763 102.521C404.153 102.132 404.626 101.835 405.146 101.653C405.666 101.472 406.221 101.41 406.769 101.473H417.358C417.9 101.419 418.447 101.488 418.958 101.674C419.47 101.86 419.933 102.158 420.314 102.548C420.694 102.937 420.982 103.407 421.157 103.923C421.331 104.438 421.387 104.987 421.321 105.527V117.296C421.378 117.831 421.315 118.371 421.136 118.878C420.957 119.385 420.667 119.845 420.287 120.225C419.907 120.606 419.447 120.896 418.94 121.075C418.433 121.254 417.892 121.317 417.358 121.259H406.769C406.228 121.326 405.68 121.269 405.164 121.095C404.649 120.921 404.179 120.632 403.789 120.252C403.4 119.871 403.101 119.408 402.915 118.896C402.729 118.385 402.661 117.838 402.715 117.296ZM409.582 115.783C409.578 115.892 409.596 116 409.636 116.101C409.676 116.202 409.736 116.294 409.812 116.371C409.889 116.447 409.981 116.507 410.082 116.547C410.183 116.586 410.291 116.604 410.399 116.6H413.697C413.807 116.604 413.916 116.586 414.019 116.547C414.122 116.508 414.215 116.448 414.294 116.372C414.373 116.296 414.436 116.204 414.479 116.103C414.522 116.002 414.544 115.893 414.544 115.783V106.979C414.544 106.87 414.522 106.761 414.479 106.66C414.436 106.558 414.373 106.467 414.294 106.391C414.215 106.314 414.122 106.255 414.019 106.216C413.916 106.177 413.807 106.158 413.697 106.162H410.399C410.291 106.158 410.183 106.176 410.082 106.216C409.981 106.256 409.889 106.316 409.812 106.392C409.736 106.469 409.676 106.561 409.636 106.662C409.596 106.763 409.578 106.871 409.582 106.979V115.783Z" fill="#FDFDFB"/>
<path d="M477.867 125.405C474.418 119.112 466.098 103.44 461.288 94.2123H460.864C461.127 96.533 461.268 98.8657 461.288 101.201V125.707C461.288 128.218 460.017 129.731 457.657 129.67C457.137 129.706 456.616 129.625 456.13 129.435C455.645 129.246 455.207 128.951 454.849 128.572C454.49 128.193 454.22 127.74 454.057 127.245C453.894 126.75 453.842 126.225 453.906 125.707V89.1599C453.812 88.4575 453.874 87.743 454.086 87.067C454.299 86.391 454.657 85.7699 455.136 85.2476C455.616 84.7253 456.203 84.3145 456.859 84.0444C457.514 83.7742 458.22 83.6511 458.928 83.6839C461.953 83.6839 463.617 85.2269 465.554 88.8575C469.85 96.6933 477.323 110.61 482.133 119.293H482.496C482.224 117.034 482.083 114.761 482.073 112.486V87.859C482.073 85.3176 483.343 83.8957 485.764 83.8957C488.184 83.8957 489.364 85.3176 489.364 87.859V124.164C489.469 124.879 489.409 125.608 489.19 126.296C488.971 126.983 488.598 127.612 488.099 128.135C487.6 128.657 486.989 129.058 486.312 129.309C485.634 129.559 484.909 129.652 484.19 129.58C482.84 129.593 481.517 129.202 480.391 128.458C479.264 127.715 478.386 126.651 477.867 125.405Z" fill="#FDFDFB"/>
<path d="M527.423 115.088H510.299C510.783 121.411 513.325 124.164 518.498 124.164C519.934 124.252 521.372 124.052 522.729 123.573C524.085 123.095 525.332 122.35 526.395 121.381C526.643 121.122 526.941 120.916 527.271 120.775C527.602 120.634 527.957 120.561 528.316 120.561C528.675 120.561 529.03 120.634 529.36 120.775C529.69 120.916 529.988 121.122 530.237 121.381C530.501 121.629 530.711 121.93 530.854 122.263C530.998 122.595 531.072 122.954 531.072 123.317C531.072 123.679 530.998 124.038 530.854 124.371C530.711 124.704 530.501 125.004 530.237 125.253C528.613 126.807 526.68 128.001 524.563 128.757C522.447 129.513 520.194 129.814 517.954 129.64C508.242 129.64 501.798 124.588 501.798 113.847C501.798 103.107 507.849 96.4208 517.712 96.4208C519.597 96.337 521.479 96.6424 523.24 97.318C525.002 97.9937 526.606 99.0251 527.951 100.348C529.297 101.671 530.355 103.256 531.061 105.006C531.766 106.756 532.104 108.633 532.052 110.519C532.173 113.635 530.66 115.088 527.423 115.088ZM524.398 109.037C524.51 108.104 524.422 107.159 524.139 106.263C523.856 105.368 523.385 104.543 522.758 103.844C522.131 103.145 521.361 102.589 520.501 102.211C519.642 101.833 518.711 101.644 517.772 101.655C513.537 101.655 511.086 104.68 510.36 109.642H523.793C523.87 109.67 523.953 109.68 524.035 109.671C524.117 109.662 524.196 109.635 524.266 109.591C524.336 109.548 524.395 109.489 524.439 109.419C524.483 109.349 524.51 109.27 524.519 109.188L524.398 109.037Z" fill="#FDFDFB"/>
<path d="M541.34 124.163C544.184 120.714 547.391 116.932 550.023 113.181L541.945 102.562C541.638 102.177 541.419 101.731 541.304 101.252C541.189 100.774 541.18 100.277 541.278 99.7947C541.376 99.3128 541.579 98.8583 541.872 98.4633C542.165 98.0684 542.541 97.7427 542.974 97.5092C543.35 97.1972 543.79 96.9712 544.263 96.8468C544.736 96.7225 545.23 96.7028 545.711 96.7892C546.192 96.8757 546.649 97.0661 547.049 97.3473C547.449 97.6284 547.782 97.9933 548.027 98.4168L555.469 108.068H555.711C557.92 105.043 560.34 101.775 562.458 98.4774C562.687 98.0492 563.006 97.6757 563.394 97.3829C563.782 97.0901 564.228 96.8848 564.703 96.7813C565.177 96.6778 565.669 96.6784 566.143 96.7831C566.617 96.8879 567.063 97.0945 567.45 97.3883C567.886 97.6206 568.264 97.9487 568.555 98.3481C568.846 98.7475 569.042 99.2079 569.129 99.6943C569.217 100.181 569.193 100.68 569.059 101.156C568.925 101.632 568.685 102.071 568.357 102.441C565.756 106.011 563.002 109.641 560.219 113.06L568.539 123.558C568.914 123.935 569.198 124.391 569.371 124.893C569.544 125.396 569.6 125.931 569.536 126.458C569.472 126.985 569.289 127.491 569.001 127.937C568.713 128.383 568.327 128.759 567.873 129.034C567.454 129.363 566.97 129.599 566.452 129.726C565.935 129.853 565.396 129.868 564.873 129.771C564.349 129.674 563.852 129.466 563.415 129.161C562.977 128.857 562.61 128.463 562.337 128.006L555.227 118.112H554.985C551.96 122.015 549.176 125.343 546.847 128.217C546.576 128.604 546.228 128.929 545.824 129.172C545.42 129.415 544.969 129.57 544.501 129.627C544.033 129.684 543.558 129.642 543.107 129.503C542.656 129.365 542.24 129.133 541.885 128.822C541.506 128.581 541.186 128.258 540.947 127.878C540.709 127.497 540.558 127.068 540.506 126.622C540.454 126.176 540.502 125.724 540.646 125.299C540.79 124.873 541.027 124.485 541.34 124.163Z" fill="#FDFDFB"/>
<path d="M599.822 125.706C599.822 128.52 595.556 129.246 592.409 129.246C586.359 129.246 583.605 126.221 583.605 119.716V103.136H579.945C579.579 103.158 579.213 103.098 578.873 102.961C578.533 102.824 578.228 102.613 577.979 102.344C577.73 102.075 577.544 101.754 577.434 101.405C577.324 101.055 577.293 100.686 577.343 100.323C577.288 99.9575 577.316 99.5846 577.423 99.2313C577.531 98.878 577.717 98.5532 577.966 98.2807C578.215 98.0082 578.522 97.7947 578.865 97.656C579.207 97.5173 579.576 97.4568 579.945 97.4789H583.605V92.729C583.547 92.1769 583.613 91.6187 583.8 91.096C583.987 90.5733 584.29 90.0996 584.685 89.71C585.081 89.3204 585.559 89.0248 586.084 88.8456C586.61 88.6664 587.169 88.6082 587.72 88.675C588.27 88.6072 588.828 88.665 589.352 88.8443C589.877 89.0236 590.353 89.3196 590.747 89.71C591.14 90.1003 591.44 90.5749 591.623 91.0979C591.806 91.6208 591.868 92.1785 591.804 92.729V97.4789H597.008C598.642 97.4789 599.519 98.5076 599.519 100.323C599.519 102.138 598.642 103.136 597.008 103.136H591.804V119.655C591.804 122.439 592.53 123.467 593.922 123.346C595.314 123.225 596.1 122.56 597.371 122.56C598.642 122.56 599.822 124.375 599.822 125.706Z" fill="#FDFDFB"/>
</g>
<defs>
<clipPath id="clip0_1933_990">
<rect width="670.012" height="207" fill="white"/>
</clipPath>
</defs>
</svg>
