<svg width="586" height="182" viewBox="0 0 586 182" fill="none" xmlns="http://www.w3.org/2000/svg">
<path d="M495.475 0H90.5249C40.5294 0 0 40.5294 0 90.525C0 140.521 40.5294 181.05 90.5249 181.05H495.475C545.471 181.05 586 140.521 586 90.525C586 40.5294 545.471 0 495.475 0Z" fill="white"/>
<path d="M495.475 0H90.5249C40.5294 0 0 40.5294 0 90.525C0 140.521 40.5294 181.05 90.5249 181.05H495.475C545.471 181.05 586 140.521 586 90.525C586 40.5294 545.471 0 495.475 0Z" fill="#F9F8F3"/>
<path d="M129.658 63.2213C131.434 60.6081 133.008 58.0286 134.348 55.5494C132.81 56.1688 131.232 56.6835 129.625 57.0904C129.037 57.3047 128.406 57.3712 127.787 57.2847C127.167 57.1981 126.579 56.9611 126.073 56.5939C125.567 56.2267 125.158 55.7407 124.884 55.1789C124.609 54.617 124.477 53.9965 124.499 53.3716C124.38 52.82 124.393 52.2481 124.537 51.7026C124.681 51.1571 124.952 50.6531 125.327 50.2319C125.703 49.8108 126.172 49.4845 126.698 49.279C127.223 49.0736 127.79 48.9948 128.351 49.0496C129.635 45.0336 130.598 40.9225 131.233 36.7543C131.34 36.1419 131.579 35.5599 131.932 35.0481C132.285 34.5362 132.744 34.1065 133.279 33.7884C133.813 33.4704 134.41 33.2712 135.028 33.2048C135.646 33.1384 136.272 33.2066 136.861 33.404C137.445 33.4774 138.004 33.6846 138.495 34.0097C138.985 34.3348 139.394 34.7687 139.689 35.2779C139.985 35.7871 140.158 36.3576 140.196 36.9449C140.234 37.5322 140.136 38.1206 139.91 38.6638C138.475 42.5318 136.476 46.1669 133.98 49.4516H137.33C138.134 47.6425 138.871 46.1016 139.508 44.2589C139.682 43.6925 139.979 43.1709 140.376 42.7314C140.774 42.2919 141.263 41.9451 141.809 41.7151C142.355 41.4851 142.945 41.3779 143.538 41.4006C144.13 41.4233 144.71 41.5753 145.237 41.8464C145.817 42.0095 146.35 42.3075 146.793 42.7163C147.236 43.125 147.577 43.6331 147.786 44.1984C147.995 44.7637 148.067 45.3702 147.997 45.9688C147.927 46.5675 147.716 47.1413 147.381 47.6427C144.256 53.2191 140.39 58.3467 135.89 62.8863C137.431 62.8863 138.938 62.6183 140.446 62.4508C140.446 62.0487 140.245 61.6133 140.111 61.2447C139.742 59.8041 140.111 58.8661 141.25 58.4306C142.389 57.9951 143.193 58.4304 143.997 59.5025C145.663 61.7967 147.026 64.2965 148.051 66.9401C148.295 67.3715 148.431 67.8557 148.448 68.351C148.465 68.8463 148.362 69.3382 148.148 69.7853C147.935 70.2324 147.616 70.6214 147.22 70.9194C146.824 71.2173 146.362 71.4155 145.873 71.4968C145.452 71.6734 144.995 71.747 144.539 71.7119C144.084 71.6769 143.643 71.5341 143.253 71.2952C142.864 71.0563 142.537 70.728 142.299 70.3378C142.062 69.9476 141.92 69.5064 141.887 69.0508L141.384 66.6722C137.619 68.6336 133.654 70.1837 129.557 71.2956C128.984 71.5621 128.354 71.6821 127.723 71.6449C127.092 71.6076 126.48 71.4142 125.942 71.0821C125.404 70.75 124.956 70.2898 124.64 69.7423C124.324 69.1949 124.149 68.5773 124.13 67.9453C123.976 67.3344 123.975 66.6953 124.126 66.0837C124.276 65.4721 124.575 64.9067 124.995 64.4372C125.415 63.9676 125.943 63.6084 126.534 63.3906C127.125 63.1728 127.761 63.103 128.385 63.1877L129.658 63.2213ZM131.534 75.0144C132.174 79.1922 132.398 83.4231 132.204 87.6451C132.204 90.5263 129.96 91.7659 127.145 90.9954C126.611 90.9336 126.099 90.744 125.653 90.4424C125.207 90.1409 124.84 89.7363 124.584 89.263C124.327 88.7896 124.189 88.2614 124.18 87.7232C124.171 87.185 124.292 86.6528 124.532 86.1711C125.805 82.4204 126.681 78.5461 127.145 74.6124C127.158 74.3247 127.228 74.0424 127.352 73.7826C127.476 73.5227 127.651 73.2903 127.867 73.0996C128.083 72.9088 128.335 72.7639 128.608 72.6726C128.881 72.5814 129.17 72.546 129.457 72.5687C130.663 72.6022 131.367 73.5403 131.534 75.0144ZM140.614 85.0653C141.049 87.511 140.178 88.8845 137.732 89.119C135.286 89.3535 133.779 88.3819 133.779 85.7687C133.8 81.861 133.577 77.9559 133.109 74.0762C133.109 72.6356 133.544 71.8315 134.717 71.597C135.89 71.3625 136.593 72.0325 137.096 73.2051C138.681 77.0471 139.86 81.0448 140.614 85.1323V85.0653ZM179.745 83.8927C179.339 84.3559 178.826 84.7138 178.252 84.936C177.677 85.1583 177.058 85.2383 176.445 85.1691C175.833 85.1 175.247 84.8841 174.736 84.5393C174.226 84.1945 173.806 83.7313 173.513 83.1893C171.805 81.0116 169.761 78.6999 167.65 76.4887V84.6632C167.65 92.3354 159.643 93.7089 150.698 89.5546C150.427 89.4475 150.179 89.288 149.97 89.0851C149.761 88.8821 149.594 88.6396 149.479 88.3718C149.364 88.104 149.302 87.8163 149.299 87.5248C149.295 87.2333 149.35 86.9438 149.458 86.6733C149.524 86.3902 149.647 86.1236 149.819 85.8893C149.992 85.6551 150.21 85.4584 150.461 85.3111C150.711 85.1638 150.989 85.069 151.278 85.0326C151.566 84.9961 151.859 85.0185 152.139 85.0988C157.331 85.6684 158.135 85.2998 158.135 82.1841V77.5942C156.318 79.2895 154.33 80.7937 152.205 82.0835C151.551 82.5834 150.751 82.8544 149.927 82.8544C149.104 82.8544 148.303 82.5834 147.649 82.0835C147.85 83.6246 147.08 84.5627 145.404 85.0653C145.008 85.2553 144.573 85.3479 144.134 85.3348C143.695 85.3217 143.265 85.2033 142.881 84.99C142.497 84.7767 142.17 84.4745 141.927 84.1087C141.684 83.7429 141.532 83.3241 141.485 82.8875C140.712 79.4862 139.75 76.1307 138.603 72.8366C138.491 72.6064 138.427 72.3562 138.413 72.1005C138.4 71.8447 138.438 71.5886 138.526 71.348C138.613 71.1073 138.748 70.8868 138.923 70.6993C139.097 70.5119 139.308 70.3617 139.541 70.2572C139.998 70.062 140.512 70.0428 140.982 70.2037C141.452 70.3645 141.846 70.6937 142.088 71.1279C143.721 73.1906 145.105 75.4399 146.208 77.8285C146.313 77.1271 146.624 76.4729 147.101 75.9481C147.578 75.4233 148.2 75.0514 148.889 74.8802C152.07 74.0599 155.167 72.938 158.135 71.5299V59.2682H147.783C147.438 59.3043 147.09 59.2634 146.763 59.1487C146.436 59.034 146.138 58.8483 145.891 58.6048C145.645 58.3613 145.455 58.0662 145.336 57.7407C145.217 57.4151 145.172 57.0671 145.203 56.7219C145.166 56.3741 145.208 56.0223 145.324 55.6925C145.441 55.3627 145.63 55.0634 145.877 54.8161C146.125 54.5688 146.424 54.3798 146.754 54.2632C147.084 54.1466 147.435 54.1052 147.783 54.1421H163.194L163.965 51.2945H156.661C156.203 52.238 155.414 52.9805 154.445 53.3818C153.476 53.7831 152.393 53.8155 151.401 53.4722C148.855 52.9697 148.051 51.3947 148.788 48.9825C150.028 44.3591 151.401 38.5296 152.139 35.5814C152.462 34.601 153.151 33.7829 154.062 33.2964C154.972 32.8099 156.035 32.6926 157.03 32.9684C159.342 33.337 160.715 34.7776 160.38 36.7543H166.277C166.861 35.9158 167.688 35.2764 168.646 34.9229C169.605 34.5694 170.649 34.5186 171.637 34.7773C172.262 34.8673 172.859 35.0961 173.383 35.4472C173.908 35.7983 174.347 36.2626 174.669 36.8058C174.99 37.3491 175.186 37.9577 175.241 38.5865C175.296 39.2153 175.209 39.8486 174.988 40.4395C174.385 43.4548 172.81 49.3847 171.369 54.1086H178.07C178.415 54.077 178.763 54.1225 179.089 54.2415C179.414 54.3605 179.709 54.5498 179.953 54.7965C180.196 55.0432 180.382 55.3409 180.497 55.668C180.611 55.9951 180.652 56.3436 180.616 56.6884C180.653 57.0318 180.613 57.3793 180.498 57.7051C180.383 58.0308 180.197 58.3266 179.952 58.5709C179.708 58.8151 179.412 59.0016 179.086 59.1164C178.761 59.2313 178.413 59.2717 178.07 59.2346H167.583V68.7829C168.963 66.7878 170.173 64.6809 171.202 62.4843C171.414 61.9779 171.738 61.5266 172.151 61.1642C172.563 60.8017 173.052 60.5377 173.582 60.3924C174.111 60.2472 174.667 60.2246 175.206 60.3258C175.746 60.427 176.255 60.6496 176.696 60.9768C177.174 61.229 177.584 61.5932 177.891 62.0381C178.198 62.4831 178.393 62.9956 178.459 63.5321C178.524 64.0686 178.459 64.6129 178.269 65.1189C178.079 65.6249 177.769 66.0776 177.366 66.4378C175.482 68.4637 173.369 70.2626 171.068 71.7982C173.942 73.3097 176.659 75.1054 179.175 77.1586C179.783 77.4701 180.302 77.9311 180.682 78.4984C181.062 79.0657 181.291 79.7204 181.348 80.401C181.405 81.0815 181.288 81.7655 181.007 82.3881C180.727 83.0108 180.292 83.5516 179.745 83.9598V83.8927ZM150.329 69.7211C149.598 67.674 148.748 65.6715 147.783 63.7239C147.483 63.2588 147.367 62.6978 147.46 62.1518C147.553 61.6059 147.848 61.1149 148.286 60.7756C148.721 60.4373 149.265 60.2707 149.815 60.3078C150.365 60.3448 150.882 60.5831 151.267 60.9768C153.224 62.4831 154.951 64.2662 156.393 66.2702C156.663 66.6468 156.851 67.0751 156.947 67.5282C157.042 67.9813 157.043 68.4494 156.948 68.9027C156.854 69.356 156.666 69.7847 156.398 70.1619C156.129 70.5392 155.786 70.8571 155.388 71.0948C154.986 71.3949 154.522 71.6008 154.03 71.6976C153.538 71.7945 153.031 71.7797 152.545 71.6543C152.06 71.5289 151.609 71.2959 151.225 70.9729C150.842 70.6499 150.535 70.2452 150.329 69.7881V69.7211ZM165.272 46.269C165.573 44.8284 165.875 43.5554 166.076 42.5838C166.11 42.4826 166.118 42.3741 166.1 42.2689C166.082 42.1636 166.037 42.0648 165.97 41.9814C165.903 41.8979 165.817 41.8327 165.718 41.7916C165.619 41.7505 165.512 41.7349 165.406 41.7462H159.275C158.895 43.265 158.493 44.7725 158.068 46.269H165.272Z" fill="#594A39"/>
<path d="M244.169 90.4567C238.987 90.9265 233.773 90.9265 228.59 90.4567C218.539 89.5521 211.068 87.4079 205.741 83.354C203.269 86.3862 200.273 88.9507 196.896 90.9257C196.664 91.1261 196.391 91.2736 196.096 91.3576C195.801 91.4417 195.491 91.4603 195.189 91.4124C194.886 91.3646 194.597 91.2516 194.342 91.0807C194.087 90.9099 193.873 90.6853 193.714 90.4231C193.507 90.1766 193.355 89.8887 193.27 89.5786C193.184 89.2684 193.166 88.9434 193.217 88.6257C193.268 88.3079 193.386 88.0049 193.564 87.737C193.743 87.4691 193.976 87.2425 194.25 87.0728C196.965 84.6254 199.233 81.7232 200.95 78.4963C198.258 74.6868 196.346 70.3829 195.322 65.8321C195.19 65.51 195.126 65.1641 195.135 64.8162C195.144 64.4683 195.225 64.1259 195.373 63.8109C195.521 63.496 195.733 63.2153 195.995 62.9864C196.257 62.7576 196.564 62.5857 196.896 62.4818C198.203 61.9792 199.242 62.7499 199.878 64.2911C200.871 66.9591 202.176 69.5005 203.764 71.8628C204.914 68.0497 205.688 64.1337 206.076 60.1703C206.097 60.06 206.092 59.9463 206.062 59.8382C206.032 59.7301 205.978 59.6302 205.904 59.5462C205.829 59.4622 205.737 59.3964 205.633 59.3536C205.53 59.3107 205.418 59.2922 205.306 59.2992H202.692C202.458 59.7645 202.134 60.1785 201.738 60.5171C201.343 60.8557 200.883 61.1117 200.387 61.2708C199.891 61.4299 199.369 61.4886 198.85 61.4434C198.331 61.3982 197.826 61.2503 197.365 61.0078C195.322 59.9357 194.819 58.1932 196.193 55.6135C198.689 51.2176 200.818 46.6234 202.558 41.8774C202.759 41.3748 202.558 41.0733 201.955 41.0733H196.26C195.908 41.1102 195.552 41.0681 195.218 40.9498C194.884 40.8315 194.581 40.64 194.331 40.3895C194.08 40.1391 193.889 39.8359 193.77 39.5021C193.652 39.1683 193.61 38.8122 193.647 38.46C193.61 38.1078 193.652 37.7522 193.77 37.4184C193.889 37.0846 194.08 36.7813 194.331 36.5309C194.581 36.2805 194.884 36.0889 195.218 35.9706C195.552 35.8523 195.908 35.8103 196.26 35.8471H208.388C209.04 35.6791 209.728 35.7118 210.362 35.9408C210.996 36.1697 211.545 36.5842 211.94 37.1305C212.334 37.6767 212.555 38.3292 212.572 39.0027C212.59 39.6762 212.405 40.3397 212.04 40.9061C210.415 45.4614 208.397 49.8667 206.009 54.0725H210.499C211.063 54.0143 211.633 54.0923 212.161 54.2995C212.689 54.5067 213.159 54.8374 213.533 55.2638C213.907 55.6903 214.174 56.1999 214.31 56.7505C214.447 57.301 214.449 57.8763 214.318 58.4281C213.858 65.0051 212.2 71.4426 209.426 77.424C213.983 80.2382 220.248 81.411 229.897 81.8466C234.506 81.9977 239.121 81.796 243.7 81.2433C247.218 80.8078 249.262 81.9807 249.463 85.2975C249.664 88.6143 247.72 90.1216 244.169 90.4567ZM224.067 45.9982V42.9832H217.635C217.304 43.0206 216.97 42.9829 216.656 42.8732C216.343 42.7635 216.058 42.5843 215.823 42.3493C215.588 42.1143 215.409 41.8296 215.299 41.5159C215.189 41.2021 215.152 40.8674 215.189 40.5372C215.157 40.2096 215.199 39.8791 215.311 39.5696C215.423 39.2601 215.603 38.9795 215.837 38.7483C216.071 38.5172 216.354 38.3413 216.665 38.2334C216.976 38.1256 217.308 38.0886 217.635 38.1251H223.632V36.919C223.632 34.3058 225.24 32.999 228.188 32.999C231.136 32.999 232.745 34.1048 232.745 36.919V38.1251H240.551C241.099 38.0605 241.654 38.1212 242.175 38.3022C242.696 38.4831 243.17 38.7795 243.56 39.1696C243.95 39.5597 244.247 40.0332 244.428 40.5544C244.609 41.0756 244.669 41.6313 244.605 42.1792V45.9982H247.151C247.488 45.9554 247.831 45.9898 248.153 46.0988C248.475 46.2078 248.768 46.3888 249.01 46.6276C249.252 46.8663 249.436 47.1569 249.549 47.4774C249.663 47.7979 249.702 48.14 249.664 48.4778C249.707 48.8182 249.672 49.1639 249.562 49.4888C249.451 49.8136 249.267 50.1086 249.025 50.3513C248.782 50.5939 248.487 50.7775 248.162 50.8883C247.837 50.999 247.491 51.0343 247.151 50.9905H244.605V55.1113C244.669 55.6592 244.609 56.2145 244.428 56.7357C244.247 57.2569 243.95 57.7304 243.56 58.1205C243.17 58.5106 242.696 58.8074 242.175 58.9883C241.654 59.1693 241.099 59.2295 240.551 59.165H233.18V62.0462H242.058C242.384 62.0088 242.714 62.0454 243.024 62.1534C243.334 62.2613 243.615 62.438 243.847 62.6699C244.079 62.9018 244.255 63.183 244.363 63.4928C244.471 63.8025 244.508 64.1325 244.471 64.4583C244.507 64.7855 244.47 65.1166 244.362 65.4276C244.254 65.7386 244.078 66.0218 243.847 66.2562C243.616 66.4905 243.336 66.6704 243.026 66.7825C242.717 66.8946 242.386 66.9363 242.058 66.9044H233.046V69.8523H245.208C245.544 69.816 245.883 69.8551 246.202 69.9664C246.521 70.0776 246.812 70.2587 247.052 70.496C247.293 70.7333 247.478 71.0209 247.593 71.3385C247.709 71.656 247.752 71.9955 247.72 72.3319C247.757 72.6709 247.718 73.0137 247.605 73.3355C247.492 73.6572 247.308 73.9495 247.067 74.1906C246.825 74.4318 246.533 74.6157 246.211 74.7288C245.89 74.842 245.547 74.8817 245.208 74.8446H233.046V77.3238C233.046 79.6355 231.471 81.2769 228.49 81.2769C225.508 81.2769 223.933 79.6355 223.933 77.3238V74.8446H214.854C214.519 74.8703 214.182 74.8224 213.868 74.7047C213.553 74.587 213.268 74.4024 213.032 74.1632C212.796 73.924 212.615 73.6362 212.501 73.3199C212.388 73.0036 212.345 72.6665 212.375 72.3319C212.344 71.9985 212.387 71.6623 212.5 71.3475C212.614 71.0326 212.795 70.7466 213.032 70.5099C213.269 70.2732 213.555 70.0915 213.87 69.9778C214.185 69.8642 214.521 69.8213 214.854 69.8523H223.933V66.9044H216.931C216.6 66.9485 216.262 66.9152 215.945 66.8079C215.629 66.7006 215.341 66.5217 215.104 66.2852C214.868 66.0487 214.689 65.7612 214.582 65.4444C214.474 65.1275 214.441 64.7899 214.485 64.4583C214.447 64.1293 214.484 63.7959 214.594 63.4833C214.704 63.1708 214.883 62.8878 215.119 62.6552C215.355 62.4226 215.641 62.2466 215.955 62.1411C216.269 62.0356 216.603 62.0032 216.931 62.0462H223.933V59.165H218.104C217.77 59.1989 217.432 59.1561 217.117 59.0403C216.802 58.9244 216.518 58.7385 216.285 58.4963C216.053 58.2542 215.879 57.9623 215.776 57.6428C215.673 57.3233 215.644 56.9846 215.691 56.6523C215.659 56.3291 215.7 56.0028 215.811 55.6973C215.921 55.3919 216.098 55.1148 216.329 54.8868C216.561 54.6587 216.84 54.4853 217.147 54.3792C217.454 54.2731 217.781 54.2372 218.104 54.2737H223.933V50.9234H213.882C213.545 50.9616 213.203 50.9226 212.882 50.8093C212.562 50.696 212.271 50.5115 212.032 50.2695C211.793 50.0275 211.613 49.7343 211.504 49.4123C211.395 49.0903 211.36 48.7479 211.403 48.4107C211.366 48.0761 211.404 47.7371 211.516 47.4194C211.627 47.1016 211.809 46.8133 212.047 46.5752C212.285 46.3372 212.574 46.1554 212.891 46.044C213.209 45.9326 213.548 45.8943 213.882 45.9315L224.067 45.9982ZM233.18 45.9982H236.865V43.7537C236.87 43.6513 236.854 43.5488 236.817 43.4532C236.779 43.3575 236.723 43.2709 236.65 43.1984C236.578 43.1258 236.491 43.0689 236.395 43.0319C236.3 42.9949 236.197 42.9785 236.095 42.9832H233.18V45.9982ZM233.18 54.2737H236.061C236.161 54.2782 236.26 54.2625 236.354 54.2275C236.447 54.1925 236.532 54.139 236.604 54.0701C236.676 54.0012 236.734 53.9184 236.773 53.8267C236.812 53.735 236.832 53.636 236.832 53.5363V50.9905H233.147L233.18 54.2737Z" fill="#594A39"/>
<path d="M317.61 86.94C316.672 90.0223 314.26 90.558 311.312 89.5864C304.979 87.5981 299.305 83.9276 294.895 78.9663V87.5763C294.895 90.4576 293.153 91.8984 289.903 91.8984C286.653 91.8984 284.911 90.4576 284.911 87.5763V79.9711C279.043 84.892 272.043 88.277 264.541 89.8212C263.034 90.1227 262.096 89.8209 261.727 88.3133C261.359 86.8057 261.928 86.2699 263.402 85.6333C269.305 83.4397 274.673 80.0133 279.149 75.5824H264.91C264.546 75.6324 264.176 75.5972 263.828 75.4802C263.48 75.3632 263.164 75.1672 262.904 74.9076C262.645 74.6481 262.449 74.3321 262.332 73.9842C262.215 73.6362 262.18 73.2657 262.23 72.902C262.18 72.5383 262.215 72.1683 262.332 71.8203C262.449 71.4724 262.645 71.156 262.904 70.8965C263.164 70.6369 263.48 70.4409 263.828 70.3239C264.176 70.2069 264.546 70.1721 264.91 70.2221H285.012V69.0827C285.012 68.5131 285.012 68.0778 285.012 67.6423L283.538 68.2116C283.324 68.3328 283.087 68.4048 282.842 68.4222C282.597 68.4395 282.352 68.4017 282.124 68.3117C281.896 68.2218 281.691 68.082 281.524 67.9024C281.357 67.7227 281.232 67.5079 281.159 67.2738C280.934 66.8538 280.871 66.3657 280.982 65.9025C281.093 65.4393 281.371 65.0331 281.762 64.7611C282.804 64.0345 283.749 63.1789 284.576 62.2148C279.265 64.7135 273.624 66.4393 267.825 67.3404C265.211 67.642 263.905 66.7041 263.57 64.2249C263.235 61.7457 264.441 60.2716 267.255 60.1041L271.208 59.8358V54.8439H266.686C265.212 54.8439 264.407 53.9061 264.407 52.231V51.9627C263.134 52.6663 262.096 52.6663 261.258 51.5942C261.056 51.3543 260.903 51.0762 260.81 50.7763C260.717 50.4763 260.685 50.1608 260.717 49.8483C260.748 49.5359 260.842 49.2327 260.992 48.9572C261.143 48.6816 261.347 48.439 261.593 48.2439C264.819 44.1823 267.427 39.6665 269.332 34.8427C269.537 34.2547 269.865 33.7174 270.295 33.267C270.725 32.8166 271.247 32.4637 271.824 32.2319C272.402 32.0001 273.023 31.895 273.645 31.9235C274.267 31.952 274.876 32.1135 275.43 32.3971C275.984 32.5528 276.495 32.834 276.923 33.2187C277.351 33.6035 277.685 34.0814 277.898 34.6158C278.112 35.1502 278.2 35.7265 278.156 36.3003C278.111 36.8741 277.935 37.4303 277.641 37.9252H288.362C288.705 37.8959 289.051 37.9448 289.372 38.0683C289.694 38.1918 289.983 38.3869 290.219 38.6384C290.454 38.89 290.63 39.1915 290.732 39.5206C290.834 39.8497 290.86 40.1975 290.808 40.5381C290.86 40.8787 290.834 41.2269 290.732 41.556C290.63 41.8851 290.454 42.1866 290.219 42.4382C289.983 42.6897 289.694 42.8847 289.372 43.0083C289.051 43.1318 288.705 43.1807 288.362 43.1514H282.867L283.437 43.7882C285.179 45.8319 284.308 47.775 281.997 48.7801C281.563 49.0634 281.062 49.2275 280.545 49.2557C280.028 49.284 279.512 49.1752 279.05 48.9408C278.588 48.7064 278.196 48.3545 277.914 47.9204C277.631 47.4864 277.467 46.9854 277.44 46.4682C277.2 45.3323 276.887 44.2131 276.502 43.1179H274.324C272.379 45.5634 270.127 47.7481 267.624 49.6177H284.375C284.693 49.5844 285.014 49.6238 285.314 49.7326C285.614 49.8414 285.886 50.0168 286.108 50.2458C286.331 50.4749 286.499 50.7512 286.599 51.0544C286.699 51.3576 286.729 51.6797 286.687 51.9962C286.687 53.8054 285.883 54.6096 284.375 54.6096H280.455V58.6633C281.862 58.6633 283.236 58.228 284.509 58.0605C285.782 57.893 286.05 58.0602 286.385 58.5962C286.86 56.6985 287.129 54.7555 287.189 52.8003C287.113 51.9821 287.312 51.162 287.755 50.47C288.198 49.7779 288.86 49.2537 289.635 48.9809C289.184 48.8696 288.783 48.6102 288.496 48.2439C287.558 47.1718 288.262 45.7314 289.066 44.6928C291.285 41.7494 293.13 38.5418 294.56 35.1442C294.753 34.5329 295.084 33.9744 295.527 33.5111C295.97 33.0479 296.513 32.6924 297.115 32.4724C297.717 32.2523 298.362 32.1734 298.999 32.2417C299.637 32.3099 300.25 32.5236 300.792 32.8662C301.252 33.0633 301.664 33.3562 302.002 33.7254C302.339 34.0947 302.595 34.5315 302.75 35.0072C302.905 35.4828 302.958 35.9862 302.903 36.4835C302.848 36.9809 302.688 37.461 302.433 37.8916H315.298C315.639 37.8677 315.981 37.9207 316.298 38.0466C316.615 38.1725 316.9 38.3679 317.132 38.6188C317.364 38.8697 317.536 39.1696 317.636 39.496C317.736 39.8225 317.762 40.1673 317.711 40.505C317.762 40.8426 317.736 41.1871 317.636 41.5135C317.536 41.8399 317.364 42.1398 317.132 42.3907C316.9 42.6416 316.615 42.8374 316.298 42.9633C315.981 43.0892 315.639 43.1418 315.298 43.1179H310.407C310.825 43.471 311.137 43.9337 311.307 44.454C311.478 44.9743 311.5 45.532 311.371 46.0641C311.242 46.5962 310.968 47.0819 310.579 47.4669C310.19 47.8519 309.701 48.121 309.167 48.2439C306.923 49.249 305.18 48.2439 304.343 45.7312C304.041 44.7931 303.807 43.9219 303.472 43.1179H298.614C296.696 45.158 294.509 46.9278 292.114 48.3781L291.377 48.7466H305.683C306.231 48.682 306.786 48.7423 307.308 48.9232C307.829 49.1041 308.302 49.4009 308.692 49.7911C309.082 50.1812 309.379 50.6546 309.56 51.1758C309.741 51.6971 309.801 52.2524 309.737 52.8003V58.9316C309.737 59.8027 310.038 60.1041 311.111 60.1041C312.183 60.1041 312.551 59.8026 312.551 56.7538C312.551 55.2127 313.288 54.509 314.394 54.509C314.662 54.486 314.933 54.5165 315.189 54.5985C315.446 54.6806 315.684 54.8127 315.89 54.987C316.095 55.1614 316.264 55.3749 316.387 55.6148C316.51 55.8548 316.584 56.1166 316.605 56.3853C318.146 64.0575 316.605 66.7376 311.412 66.7376C304.477 66.7376 302.165 66.3022 301.361 63.1194C300.963 63.6922 300.385 64.1164 299.719 64.3255C299.364 64.5049 298.971 64.5972 298.573 64.595C298.175 64.5929 297.784 64.496 297.43 64.3128C297.077 64.1296 296.772 63.8651 296.541 63.5411C296.31 63.2171 296.159 62.8429 296.101 62.4491C295.666 60.439 295.23 58.8308 294.929 57.3902C294.218 60.0518 292.652 62.4062 290.473 64.0908C291.076 64.0419 291.683 64.1277 292.249 64.3419C292.815 64.556 293.327 64.8931 293.747 65.3291C294.167 65.7651 294.484 66.289 294.677 66.8628C294.87 67.4366 294.933 68.046 294.862 68.6471V69.7865H315.164C315.528 69.7365 315.898 69.7713 316.246 69.8883C316.594 70.0054 316.91 70.2013 317.17 70.4609C317.429 70.7205 317.626 71.0368 317.743 71.3848C317.86 71.7327 317.894 72.1028 317.845 72.4665C317.894 72.8302 317.86 73.2007 317.743 73.5486C317.626 73.8966 317.429 74.2125 317.17 74.4721C316.91 74.7317 316.594 74.9276 316.246 75.0446C315.898 75.1617 315.528 75.1968 315.164 75.1469H299.719C304.344 77.2636 309.186 78.8698 314.159 79.9376C317.811 81.3782 318.682 83.5897 317.61 86.94ZM295.465 54.4084C295.5 54.574 295.5 54.7453 295.465 54.911H295.833C296.31 54.7079 296.844 54.6842 297.336 54.8443C297.829 55.0044 298.247 55.3376 298.513 55.7821C299.612 57.0975 300.514 58.5646 301.194 60.1376V54.7102C301.198 54.6121 301.183 54.5139 301.147 54.4223C301.112 54.3307 301.058 54.2475 300.988 54.1781C300.919 54.1087 300.836 54.0548 300.744 54.0194C300.653 53.9841 300.555 53.968 300.456 53.9728H296.369C295.833 53.8053 295.465 54.1403 295.465 54.4084Z" fill="#594A39"/>
<path d="M346.621 65.4641C346.621 65.4641 346.621 65.2297 346.621 65.0957V87.9445C346.621 90.5577 345.013 91.9315 341.998 91.9315C338.982 91.9315 337.374 90.5577 337.374 87.9445V70.8916C336.69 72.8511 335.767 74.7191 334.627 76.4532C334.498 76.7243 334.313 76.9646 334.085 77.1587C333.856 77.3527 333.588 77.4959 333.3 77.5783C333.011 77.6607 332.708 77.6806 332.411 77.6368C332.115 77.5929 331.831 77.4866 331.578 77.3243C330.406 76.6208 330.205 75.5819 330.774 74.1413C333.621 66.7468 335.534 59.0263 336.47 51.1583H332.818C332.477 51.1822 332.135 51.1292 331.818 51.0033C331.501 50.8774 331.216 50.6821 330.984 50.4312C330.753 50.1803 330.58 49.8804 330.48 49.5539C330.38 49.2275 330.354 48.8826 330.405 48.545C330.405 46.8363 331.277 45.8985 332.818 45.8985H337.374V37.3887C337.305 36.7733 337.378 36.1502 337.589 35.5679C337.8 34.9857 338.143 34.4599 338.59 34.0318C339.038 33.6038 339.578 33.285 340.169 33.1002C340.76 32.9153 341.386 32.8696 341.998 32.9664C345.013 32.9664 346.621 34.4069 346.621 37.3887V45.6973H348.799C350.373 45.6973 351.244 46.6355 351.244 48.3442C351.296 48.6848 351.27 49.0326 351.168 49.3617C351.066 49.6908 350.891 49.9927 350.655 50.2443C350.42 50.4958 350.131 50.6904 349.809 50.814C349.487 50.9375 349.142 50.9868 348.799 50.9575H346.621V54.3078C348.871 56.8715 350.858 59.655 352.551 62.6165C352.828 63.0024 353.012 63.447 353.089 63.9158C353.166 64.3845 353.133 64.8645 352.993 65.3185C352.854 65.7726 352.611 66.1883 352.285 66.5332C351.958 66.8781 351.556 67.1431 351.11 67.307C350.723 67.6143 350.261 67.8126 349.772 67.882C349.282 67.9513 348.783 67.8889 348.326 67.7012C347.868 67.5135 347.469 67.2074 347.17 66.8142C346.87 66.4209 346.681 65.9549 346.621 65.4641ZM350.809 89.1505C350.591 89.3101 350.342 89.4227 350.078 89.4806C349.814 89.5385 349.541 89.5407 349.276 89.4871C349.011 89.4335 348.761 89.3253 348.54 89.1694C348.319 89.0134 348.133 88.813 347.995 88.5813C347.668 88.1161 347.52 87.5496 347.575 86.9842C347.63 86.4189 347.886 85.892 348.296 85.4988C350.655 82.8467 352.619 79.8676 354.126 76.654C354.319 76.1414 354.627 75.6796 355.025 75.3032C355.423 74.9267 355.902 74.6453 356.424 74.4807C356.947 74.3162 357.5 74.2727 358.042 74.3531C358.584 74.4336 359.101 74.636 359.553 74.9453C360.054 75.1406 360.502 75.4537 360.856 75.8582C361.211 76.2626 361.463 76.7466 361.591 77.2691C361.719 77.7916 361.72 78.3377 361.592 78.8604C361.465 79.3831 361.214 79.8675 360.86 80.2726C358.248 84.0007 354.778 87.0454 350.742 89.1505H350.809ZM349.804 38.8961C349.778 38.5492 349.828 38.2008 349.951 37.8753C350.074 37.5499 350.266 37.2556 350.516 37.0128C350.765 36.77 351.064 36.585 351.393 36.4705C351.721 36.356 352.071 36.3146 352.417 36.3499H384.01C384.357 36.3038 384.71 36.336 385.043 36.4439C385.376 36.5519 385.68 36.733 385.934 36.974C386.188 37.2149 386.385 37.5097 386.51 37.8365C386.635 38.1633 386.685 38.5138 386.657 38.8626C386.683 39.2152 386.631 39.5693 386.507 39.9002C386.382 40.231 386.188 40.5311 385.936 40.7794C385.684 41.0278 385.382 41.2187 385.05 41.3389C384.717 41.4592 384.362 41.5059 384.01 41.4759H377.042V44.5919H380.828C381.378 44.5218 381.937 44.5778 382.463 44.7563C382.988 44.9347 383.466 45.2309 383.86 45.6217C384.254 46.0125 384.554 46.4878 384.737 47.0118C384.919 47.5358 384.98 48.0945 384.915 48.6456V55.8823C384.98 56.4334 384.919 56.9922 384.737 57.5162C384.554 58.0402 384.254 58.5155 383.86 58.9063C383.466 59.2971 382.988 59.5928 382.463 59.7713C381.937 59.9497 381.378 60.0061 380.828 59.9361H355.566C355.016 60.0061 354.456 59.9497 353.931 59.7713C353.405 59.5928 352.928 59.2971 352.534 58.9063C352.14 58.5155 351.84 58.0402 351.657 57.5162C351.474 56.9922 351.413 56.4334 351.479 55.8823V48.6456C351.413 48.0945 351.474 47.5358 351.657 47.0118C351.84 46.4878 352.14 46.0125 352.534 45.6217C352.928 45.2309 353.405 44.9347 353.931 44.7563C354.456 44.5778 355.016 44.5218 355.566 44.5919H359.352V41.4759H352.417C352.047 41.5284 351.67 41.493 351.316 41.3724C350.962 41.2519 350.641 41.0495 350.38 40.7819C350.119 40.5143 349.925 40.189 349.813 39.8323C349.701 39.4755 349.675 39.0976 349.737 38.7289L349.804 38.8961ZM372.653 74.0076V84.9291C372.653 91.6297 366.589 93.9753 358.045 90.2899C357.478 90.0977 357.006 89.6952 356.725 89.1657C356.445 88.6361 356.378 88.0193 356.538 87.4419C356.873 86.1688 357.744 85.6662 359.252 85.8002C362.233 86.0683 362.903 85.5657 362.903 83.6895V74.0076H352.551C352.206 74.0392 351.858 73.9936 351.532 73.8746C351.207 73.7557 350.912 73.566 350.668 73.3193C350.425 73.0726 350.239 72.7752 350.124 72.4481C350.01 72.121 349.969 71.7725 350.005 71.4278C349.968 71.0843 350.008 70.7368 350.123 70.4111C350.238 70.0853 350.424 69.7895 350.669 69.5453C350.913 69.301 351.209 69.1146 351.534 68.9997C351.86 68.8848 352.208 68.8445 352.551 68.8815H383.91C384.253 68.8445 384.601 68.8848 384.926 68.9997C385.252 69.1146 385.548 69.301 385.792 69.5453C386.037 69.7895 386.223 70.0853 386.338 70.4111C386.453 70.7368 386.493 71.0843 386.456 71.4278C386.492 71.7725 386.451 72.121 386.337 72.4481C386.222 72.7752 386.036 73.0726 385.793 73.3193C385.549 73.566 385.254 73.7557 384.928 73.8746C384.603 73.9936 384.255 74.0392 383.91 74.0076H372.653ZM380.66 61.7789C381.003 61.7419 381.351 61.7822 381.677 61.8971C382.002 62.012 382.298 62.1984 382.542 62.4427C382.787 62.6869 382.973 62.9827 383.088 63.3085C383.203 63.6342 383.243 63.9817 383.206 64.3252C383.243 64.6686 383.203 65.0157 383.088 65.3414C382.973 65.6672 382.787 65.9634 382.542 66.2076C382.298 66.4519 382.002 66.6384 381.677 66.7532C381.351 66.8681 381.003 66.9084 380.66 66.8714H356.672C356.328 66.9084 355.981 66.8681 355.655 66.7532C355.33 66.6384 355.034 66.4519 354.789 66.2076C354.545 65.9634 354.359 65.6672 354.244 65.3414C354.129 65.0157 354.089 64.6686 354.126 64.3252C354.089 63.9817 354.129 63.6342 354.244 63.3085C354.359 62.9827 354.545 62.6869 354.789 62.4427C355.034 62.1984 355.33 62.012 355.655 61.8971C355.981 61.7822 356.328 61.7419 356.672 61.7789H380.66ZM360.86 49.2824H359.62C359.521 49.2778 359.421 49.2936 359.328 49.3286C359.234 49.3636 359.149 49.4171 359.077 49.486C359.005 49.5549 358.948 49.6377 358.909 49.7294C358.87 49.8211 358.85 49.9197 358.85 50.0193V54.2072C358.85 54.3069 358.87 54.4055 358.909 54.4972C358.948 54.5888 359.005 54.6716 359.077 54.7405C359.149 54.8094 359.234 54.8629 359.328 54.898C359.421 54.933 359.521 54.9487 359.62 54.9442H360.86V49.2824ZM369.235 49.2824H367.091V54.9442H369.235V49.2824ZM369.235 41.4759H367.292V44.2905H369.235V41.4759ZM385.015 82.115C387.026 84.4937 387.227 87.0064 384.714 88.8156C382.201 90.6248 379.923 89.4859 378.65 86.5712C377.475 83.7923 376.074 81.1142 374.462 78.5639C374.256 78.3282 374.099 78.0532 374 77.7558C373.902 77.4584 373.864 77.1442 373.889 76.8319C373.914 76.5196 374.001 76.2155 374.146 75.9375C374.29 75.6595 374.489 75.4135 374.73 75.2136C375.137 74.8146 375.684 74.5912 376.254 74.5912C376.824 74.5912 377.372 74.8146 377.779 75.2136C380.438 77.1291 382.827 79.3942 384.881 81.9477L385.015 82.115ZM376.841 49.2824H375.534V54.9442H376.774C376.873 54.9487 376.973 54.933 377.066 54.898C377.159 54.8629 377.245 54.8094 377.317 54.7405C377.389 54.6716 377.446 54.5888 377.485 54.4972C377.524 54.4055 377.544 54.3069 377.544 54.2072V50.0193C377.571 49.9067 377.57 49.7895 377.543 49.677C377.516 49.5646 377.463 49.46 377.388 49.3719C377.313 49.2839 377.218 49.2146 377.111 49.1699C377.005 49.1252 376.889 49.1063 376.774 49.1147L376.841 49.2824Z" fill="#594A39"/>
<path d="M454.97 81.4462C455.012 81.7922 454.976 82.1435 454.864 82.4735C454.751 82.8035 454.566 83.1034 454.321 83.3516C454.076 83.5997 453.778 83.7894 453.449 83.9061C453.121 84.0228 452.77 84.0639 452.424 84.0259H432.322V87.6441C432.322 90.4919 430.58 91.9997 427.33 91.9997C424.08 91.9997 422.338 90.4919 422.338 87.6441V84.0259H402.236C401.89 84.0639 401.539 84.0228 401.21 83.9061C400.882 83.7894 400.584 83.5997 400.339 83.3516C400.094 83.1034 399.909 82.8035 399.796 82.4735C399.684 82.1435 399.648 81.7922 399.69 81.4462C399.653 81.1027 399.693 80.7552 399.808 80.4294C399.923 80.1037 400.11 79.8079 400.354 79.5637C400.598 79.3194 400.894 79.133 401.22 79.0181C401.545 78.9032 401.893 78.8629 402.236 78.8999H422.338V76.3872H411.047C410.497 76.4572 409.938 76.4008 409.412 76.2224C408.887 76.0439 408.409 75.7482 408.015 75.3574C407.621 74.9666 407.321 74.4913 407.138 73.9673C406.956 73.4433 406.895 72.8845 406.96 72.3335V61.5452C406.895 60.9941 406.956 60.4354 407.138 59.9114C407.321 59.3873 407.621 58.9121 408.015 58.5213C408.409 58.1305 408.887 57.8347 409.412 57.6563C409.938 57.4778 410.497 57.4214 411.047 57.4915H443.579C444.127 57.4269 444.682 57.4872 445.204 57.6681C445.725 57.8491 446.198 58.1459 446.588 58.536C446.978 58.9261 447.275 59.3995 447.456 59.9208C447.637 60.442 447.697 60.9973 447.633 61.5452V72.2664C447.702 72.8182 447.645 73.3784 447.467 73.9051C447.288 74.4319 446.993 74.9115 446.603 75.3079C446.213 75.7043 445.738 76.0072 445.215 76.1941C444.691 76.3811 444.132 76.4471 443.579 76.3872H432.322V78.8999H452.424C452.767 78.8629 453.114 78.9032 453.44 79.0181C453.766 79.133 454.062 79.3194 454.306 79.5637C454.55 79.8079 454.737 80.1037 454.852 80.4294C454.966 80.7552 455.007 81.1027 454.97 81.4462ZM400.729 52.2983C400.685 51.9448 400.723 51.5861 400.839 51.2493C400.955 50.9125 401.146 50.6068 401.398 50.3549C401.65 50.103 401.956 49.9118 402.293 49.7958C402.629 49.6799 402.988 49.6421 403.342 49.6854H414.699C414.096 48.3118 413.594 47.2395 412.79 45.7319C412.481 45.206 412.34 44.5979 412.388 43.9897H406.29C405.935 44.0319 405.575 43.9939 405.237 43.878C404.899 43.7622 404.592 43.5717 404.337 43.3206C404.083 43.0695 403.889 42.7644 403.769 42.4278C403.648 42.0913 403.606 41.7317 403.643 41.3764C403.6 41.0184 403.639 40.6555 403.757 40.3147C403.874 39.9739 404.068 39.6642 404.323 39.4092C404.578 39.1542 404.887 38.9609 405.228 38.8432C405.569 38.7255 405.932 38.6867 406.29 38.7299H422.003V36.9206C422.003 34.1064 423.812 32.3643 427.129 32.3643C430.446 32.3643 432.255 34.1064 432.255 36.9206V38.7299H448.236C448.591 38.6922 448.95 38.7349 449.287 38.855C449.623 38.9752 449.929 39.1696 450.18 39.4239C450.431 39.6782 450.621 39.986 450.737 40.3241C450.853 40.6621 450.891 41.0215 450.849 41.3764C450.886 41.7286 450.844 42.0846 450.725 42.4184C450.607 42.7522 450.416 43.0555 450.165 43.3059C449.915 43.5563 449.612 43.7479 449.278 43.8662C448.944 43.9845 448.588 44.0265 448.236 43.9897H441.535C441.849 44.6251 441.953 45.3436 441.833 46.0419C441.712 46.7402 441.373 47.3825 440.865 47.8761C440.296 48.5462 439.793 49.1159 439.224 49.6854H450.849C451.201 49.6486 451.557 49.6906 451.891 49.8089C452.225 49.9272 452.528 50.1188 452.778 50.3692C453.029 50.6196 453.22 50.9225 453.339 51.2563C453.457 51.5901 453.499 51.9461 453.462 52.2983C453.499 52.6506 453.457 53.0066 453.339 53.3404C453.22 53.6742 453.029 53.9775 452.778 54.2279C452.528 54.4783 452.225 54.6699 451.891 54.7882C451.557 54.9065 451.201 54.9485 450.849 54.9117H403.342C402.99 54.9485 402.634 54.9065 402.3 54.7882C401.966 54.6699 401.663 54.4783 401.412 54.2279C401.162 53.9775 400.971 53.6742 400.852 53.3404C400.734 53.0066 400.692 52.6506 400.729 52.2983ZM416.709 64.7282H437.615V62.8519C437.62 62.7523 437.604 62.6528 437.569 62.5594C437.534 62.4661 437.48 62.3812 437.412 62.3091C437.343 62.2371 437.26 62.1798 437.168 62.1407C437.077 62.1015 436.978 62.0812 436.878 62.0814H417.447C417.347 62.0812 417.248 62.1015 417.156 62.1407C417.065 62.1798 416.982 62.2371 416.913 62.3091C416.844 62.3812 416.791 62.4661 416.756 62.5594C416.721 62.6528 416.705 62.7523 416.709 62.8519V64.7282ZM436.811 71.6631C436.911 71.6632 437.01 71.6434 437.101 71.6043C437.193 71.5651 437.276 71.5078 437.345 71.4358C437.414 71.3637 437.467 71.2784 437.502 71.1851C437.537 71.0917 437.553 70.9922 437.548 70.8926V68.9832H416.643V70.8926C416.638 70.9922 416.654 71.0917 416.689 71.1851C416.724 71.2784 416.777 71.3637 416.846 71.4358C416.915 71.5078 416.998 71.5651 417.09 71.6043C417.181 71.6434 417.28 71.6632 417.38 71.6631H436.811ZM422.137 49.6854H432.489C433.126 48.2448 433.628 46.7369 434.265 44.7937C434.34 44.5167 434.441 44.2475 434.567 43.9897H418.519C419.399 44.7124 420.217 45.5084 420.964 46.3687C421.401 46.7974 421.738 47.3162 421.952 47.8892C422.166 48.4622 422.252 49.0756 422.204 49.6854H422.137Z" fill="#594A39"/>
<path d="M93.841 145.804C93.1231 145.239 92.5776 144.485 92.2664 143.626C91.9185 142.8 91.7474 141.91 91.7639 141.013C91.7339 139.396 91.8686 137.779 92.1659 136.189C92.4389 134.612 92.8196 133.056 93.3051 131.532C93.6401 130.627 93.975 129.723 94.3771 128.785C94.7791 127.847 95.1477 126.975 95.5497 126.138C95.8759 125.39 96.2684 124.672 96.7223 123.994C97.3621 122.776 98.1621 121.649 99.101 120.643C99.6646 120.049 100.294 119.521 100.977 119.069C101.768 118.672 102.616 118.401 103.49 118.265C104.44 118.064 105.421 118.064 106.371 118.265C107.041 118.463 107.691 118.721 108.314 119.035C108.93 119.351 109.495 119.758 109.989 120.241C110.257 120.461 110.474 120.735 110.626 121.045C110.785 121.295 110.866 121.587 110.861 121.883C110.856 122.095 110.806 122.304 110.713 122.494C110.621 122.685 110.488 122.854 110.325 122.989C110.015 123.338 109.606 123.583 109.152 123.692C108.99 123.767 108.808 123.787 108.633 123.751C108.458 123.715 108.3 123.624 108.18 123.491C107.916 123.064 107.601 122.67 107.242 122.319C106.961 122.081 106.645 121.889 106.304 121.749C105.954 121.562 105.562 121.47 105.165 121.481C104.665 121.484 104.168 121.564 103.691 121.716C103.134 121.901 102.622 122.197 102.183 122.587L101.48 123.223C101.145 123.527 100.842 123.864 100.575 124.228C100.258 124.615 99.9776 125.03 99.7376 125.468C99.0487 126.606 98.444 127.793 97.9284 129.019C97.4275 130.292 96.9915 131.589 96.6218 132.906C96.4543 133.509 96.2532 134.212 96.0522 135.05C95.8512 135.887 95.6837 136.725 95.5162 137.563C95.3634 138.28 95.2626 139.008 95.2147 139.74C95.0896 140.427 95.0896 141.131 95.2147 141.817C95.253 142.035 95.3431 142.239 95.4772 142.414C95.6113 142.589 95.7856 142.729 95.9853 142.822C96.5399 143.006 97.1392 143.006 97.6939 142.822C98.3886 142.669 99.0554 142.409 99.6706 142.052C100.376 141.682 101.03 141.22 101.614 140.678C102.278 140.082 102.853 139.393 103.322 138.634C103.733 137.885 104.102 137.113 104.428 136.323C104.676 135.783 104.834 135.205 104.897 134.614C104.897 134.212 104.696 134.011 104.227 134.045C103.402 134.121 102.572 134.121 101.748 134.045C101.495 134.023 101.251 133.942 101.036 133.808C100.82 133.674 100.639 133.491 100.508 133.274C100.173 133.274 100.006 132.939 99.9721 132.436C99.9768 132.197 100.044 131.962 100.168 131.756C100.291 131.551 100.466 131.381 100.676 131.264C101.241 131.033 101.841 130.897 102.451 130.862C103.22 130.778 103.995 130.778 104.763 130.862C105.431 130.9 106.082 131.083 106.673 131.398C107.212 131.641 107.633 132.086 107.845 132.638C108.043 133.187 108.156 133.763 108.18 134.346C108.233 134.914 108.233 135.486 108.18 136.055C107.947 136.931 107.633 137.783 107.242 138.601C106.821 139.51 106.292 140.364 105.668 141.147C105.219 141.752 104.702 142.303 104.126 142.789C103.483 143.361 102.8 143.887 102.083 144.364C101.441 144.781 100.769 145.15 100.073 145.469C99.0677 145.924 98.0096 146.25 96.9233 146.441C96.3941 146.564 95.8444 146.571 95.3122 146.461C94.78 146.351 94.278 146.127 93.841 145.804Z" fill="#B8C318"/>
<path d="M112.873 143.058C112.602 142.851 112.355 142.615 112.136 142.354C111.997 142.202 111.898 142.02 111.845 141.821C111.793 141.623 111.789 141.415 111.834 141.215C111.834 140.511 112.035 139.875 112.136 139.339C112.236 138.803 112.437 138.166 112.605 137.462C112.695 136.938 112.83 136.423 113.007 135.921C113.208 135.184 113.476 134.414 113.777 133.542C114.079 132.671 114.38 131.867 114.715 131.097C114.949 130.5 115.241 129.928 115.586 129.388C115.93 129.122 116.359 128.991 116.792 129.02C117.197 128.972 117.604 129.08 117.932 129.321C118.2 129.556 118.267 129.924 118.166 130.494C117.936 131.417 117.587 132.307 117.127 133.14C116.991 133.463 116.835 133.776 116.658 134.079C116.496 134.343 116.361 134.624 116.256 134.916C116.256 135.117 116.256 135.218 116.256 135.184C116.493 134.836 116.775 134.521 117.094 134.246L118.367 133.174L119.674 132.236L120.478 131.7C120.698 131.561 120.935 131.449 121.181 131.365L121.751 131.164C122.35 130.897 123.006 130.782 123.661 130.829C124.331 130.829 124.766 131.13 124.9 131.499C124.932 131.627 124.99 131.747 125.071 131.851C125.151 131.954 125.253 132.04 125.369 132.102C125.369 132.102 125.369 132.102 125.369 132.336C125.296 132.635 125.118 132.897 124.867 133.074C124.575 133.381 124.183 133.571 123.761 133.61C123.463 133.637 123.17 133.705 122.89 133.811L121.985 134.179L119.406 135.653C118.509 136.176 117.706 136.845 117.027 137.63L116.491 138.166C116.258 138.396 116.055 138.655 115.888 138.937C115.693 139.183 115.556 139.469 115.486 139.774C115.486 140.21 115.251 140.612 115.184 140.98C115.164 141.215 115.164 141.45 115.184 141.684C115.071 142.064 114.901 142.425 114.682 142.756C114.466 143.078 114.164 143.334 113.811 143.493C113.61 143.594 113.275 143.46 112.873 143.058Z" fill="#B8C318"/>
<path d="M134.885 143.326C134.153 143.736 133.342 143.987 132.507 144.063C131.707 144.132 130.902 144.005 130.161 143.694C129.459 143.45 128.842 143.008 128.386 142.421C128.055 141.94 127.806 141.408 127.649 140.847C127.435 139.887 127.435 138.892 127.649 137.932C127.822 136.764 128.184 135.633 128.721 134.582C129.266 133.442 129.965 132.382 130.798 131.432C131.545 130.598 132.49 129.965 133.545 129.59L134.617 129.321C135.096 129.268 135.579 129.268 136.058 129.321C136.591 129.386 137.111 129.533 137.599 129.757C137.967 129.924 138.297 130.164 138.571 130.461C138.919 130.79 139.194 131.19 139.375 131.633C139.436 131.999 139.436 132.373 139.375 132.739C139.189 133.66 138.825 134.537 138.303 135.319C137.71 136.25 136.844 136.975 135.823 137.396C135.346 137.601 134.835 137.714 134.316 137.731C133.517 137.782 132.716 137.715 131.937 137.53C131.334 137.53 130.932 137.53 130.731 137.697C130.513 138.156 130.431 138.668 130.496 139.172C130.531 139.591 130.645 140 130.831 140.378C130.921 140.554 131.048 140.71 131.205 140.831C131.361 140.953 131.543 141.038 131.736 141.081C132.145 141.168 132.567 141.168 132.976 141.081C133.298 140.971 133.612 140.837 133.914 140.679L134.517 140.277L135.086 139.808L135.555 139.473C135.663 139.381 135.788 139.313 135.924 139.272H136.292C136.61 139.321 136.897 139.489 137.096 139.741C137.323 139.968 137.495 140.243 137.599 140.545C137.548 140.857 137.409 141.148 137.197 141.383C136.914 141.796 136.589 142.178 136.225 142.522C135.799 142.822 135.351 143.09 134.885 143.326ZM134.416 134.917C134.685 134.756 134.943 134.577 135.187 134.38C135.513 134.105 135.816 133.802 136.091 133.476C136.324 133.294 136.48 133.031 136.527 132.739C136.527 132.471 136.326 132.236 135.991 132.035C135.524 131.875 135.017 131.875 134.55 132.035C134.289 132.133 134.05 132.281 133.847 132.471C133.551 132.709 133.271 132.967 133.009 133.241L132.306 134.079L131.87 134.682C132.03 134.849 132.243 134.956 132.473 134.984C132.806 135.034 133.145 135.034 133.478 134.984L134.416 134.917Z" fill="#B8C318"/>
<path d="M149.391 143.326C148.646 143.737 147.825 143.987 146.978 144.063C146.178 144.13 145.374 144.003 144.633 143.695C143.936 143.441 143.322 143.001 142.857 142.422C142.54 141.938 142.302 141.406 142.154 140.847C141.955 139.886 141.955 138.894 142.154 137.932C142.356 136.772 142.717 135.644 143.226 134.582C143.771 133.435 144.483 132.373 145.337 131.433C146.075 130.603 147.007 129.97 148.05 129.59L149.123 129.322C149.612 129.268 150.107 129.268 150.597 129.322C151.129 129.391 151.648 129.538 152.138 129.757C152.501 129.932 152.83 130.17 153.109 130.461C153.458 130.79 153.732 131.19 153.913 131.634C153.979 131.999 153.979 132.374 153.913 132.739C153.741 133.665 153.376 134.544 152.841 135.319C152.257 136.258 151.389 136.985 150.362 137.396C149.886 137.605 149.374 137.719 148.854 137.731C148.056 137.782 147.255 137.714 146.476 137.53C145.873 137.53 145.471 137.53 145.303 137.698C145.07 138.152 144.977 138.665 145.035 139.172C145.086 139.588 145.199 139.995 145.37 140.378C145.467 140.556 145.601 140.711 145.762 140.832C145.924 140.954 146.111 141.039 146.308 141.081C146.717 141.168 147.139 141.168 147.548 141.081C147.868 140.966 148.181 140.832 148.486 140.679L149.056 140.277L149.625 139.808L150.094 139.473L150.496 139.273H150.865C151.177 139.336 151.46 139.501 151.669 139.742C151.886 139.969 152.047 140.245 152.138 140.546C152.087 140.851 151.961 141.14 151.769 141.383C151.464 141.788 151.128 142.169 150.764 142.522C150.332 142.832 149.872 143.101 149.391 143.326ZM148.888 134.917C149.162 134.765 149.42 134.585 149.659 134.381C150.003 134.114 150.318 133.811 150.597 133.477C150.812 133.285 150.954 133.024 150.999 132.739C150.999 132.471 150.831 132.237 150.463 132.036C150.007 131.878 149.511 131.878 149.056 132.036C148.787 132.139 148.538 132.286 148.318 132.471C148.034 132.71 147.765 132.968 147.514 133.242C147.249 133.503 147.003 133.783 146.777 134.079L146.375 134.683C146.536 134.85 146.749 134.956 146.978 134.984C147.311 135.035 147.65 135.035 147.984 134.984L148.888 134.917Z" fill="#B8C318"/>
<path d="M169.525 143.159C169.046 143.136 168.577 143.01 168.151 142.79C167.729 142.533 167.418 142.127 167.28 141.651C167.227 141.228 167.227 140.801 167.28 140.378C167.246 139.954 167.246 139.529 167.28 139.105C167.28 138.703 167.28 138.335 167.28 138.033V137.329C167.28 136.927 167.28 136.693 167.012 136.626C166.901 136.577 166.781 136.552 166.66 136.552C166.539 136.552 166.419 136.577 166.309 136.626C165.773 136.894 165.203 137.229 164.566 137.631L162.657 139.071L160.613 140.78C160.169 141.245 159.755 141.737 159.373 142.254C159.105 142.656 158.837 142.824 158.569 142.824C158.473 142.88 158.363 142.909 158.251 142.909C158.14 142.909 158.03 142.88 157.933 142.824L157.196 142.288C157.028 142.087 156.827 141.852 156.593 141.517C156.424 141.334 156.278 141.132 156.157 140.914C156.119 140.547 156.119 140.176 156.157 139.808C156.201 139.448 156.303 139.098 156.459 138.77L156.961 137.564C157.07 137.396 157.16 137.216 157.229 137.028L157.564 136.391C157.686 135.981 157.832 135.578 158 135.185C158 134.749 158.368 134.314 158.536 133.912C158.785 133.357 158.998 132.786 159.172 132.204C159.338 131.701 159.461 131.185 159.541 130.662C159.515 130.598 159.515 130.526 159.541 130.461C159.548 130.41 159.571 130.363 159.608 130.327C159.644 130.29 159.691 130.267 159.742 130.26C159.896 130.195 160.061 130.161 160.228 130.161C160.395 130.161 160.56 130.195 160.714 130.26C161.121 130.319 161.51 130.468 161.853 130.696C162.103 130.915 162.3 131.19 162.428 131.498C162.556 131.806 162.611 132.139 162.59 132.471C162.44 133.508 162.05 134.494 161.451 135.353C161.299 135.734 161.12 136.103 160.915 136.458C160.769 136.667 160.676 136.909 160.647 137.162L161.652 136.391L162.355 135.855L163.193 135.185L164.6 134.079L165.806 133.242C166.133 133 166.481 132.787 166.845 132.606C167.1 132.465 167.369 132.352 167.649 132.27C167.977 132.294 168.296 132.385 168.587 132.538C168.938 132.723 169.274 132.936 169.592 133.175C169.841 133.331 170.03 133.568 170.128 133.845C170.143 133.968 170.143 134.091 170.128 134.214C170.128 134.381 170.128 134.549 170.128 134.649C170.094 135.14 170.094 135.632 170.128 136.123V137.798C170.184 138.31 170.184 138.827 170.128 139.34V139.574C170.128 139.574 170.128 139.574 170.128 139.808V140.311L170.363 140.914C170.363 141.115 170.597 141.383 170.731 141.718C170.662 142.099 170.46 142.443 170.162 142.69C169.979 142.883 169.764 143.042 169.525 143.159Z" fill="#B8C318"/>
<path d="M190.701 146.779C189.839 146.317 189.164 145.571 188.791 144.668C188.694 144.347 188.715 144.001 188.85 143.694C188.985 143.387 189.226 143.138 189.528 142.993C189.822 142.896 190.139 142.896 190.433 142.993C190.805 143.052 191.154 143.214 191.438 143.462C191.915 143.9 192.508 144.191 193.147 144.299C193.933 144.423 194.738 144.354 195.492 144.098C196.384 143.858 197.216 143.436 197.938 142.859C198.638 142.253 199.278 141.58 199.847 140.849C200.333 140.263 200.708 139.593 200.953 138.872C201.14 138.287 201.242 137.677 201.254 137.063C201.282 136.614 201.139 136.17 200.852 135.823C200.283 134.986 199.461 134.352 198.507 134.014C197.317 133.649 196.045 133.649 194.855 134.014H194.085L193.113 134.215H192.678C192.534 134.243 192.386 134.243 192.242 134.215C192.242 134.215 192.041 134.215 191.907 134.584C191.658 135.058 191.445 135.551 191.27 136.057L190.031 139.408C189.682 140.561 189.233 141.682 188.691 142.758C188.322 143.395 188.021 143.696 187.719 143.629C187.332 143.463 187.005 143.182 186.781 142.825L186.111 141.653C185.989 141.456 185.925 141.23 185.925 141C185.925 140.769 185.989 140.542 186.111 140.346C186.232 140.144 186.333 139.931 186.413 139.71C186.413 139.509 186.413 139.207 186.714 138.704C187.016 138.202 187.083 137.666 187.451 136.728L188.758 133.378L190.332 129.424L191.941 125.571C192.443 124.365 192.878 123.36 193.247 122.523C193.506 121.983 193.719 121.423 193.884 120.847C193.884 120.479 193.884 120.278 193.884 120.278C193.93 120.159 193.93 120.028 193.884 119.909C193.861 119.856 193.85 119.799 193.85 119.742C193.85 119.684 193.861 119.627 193.884 119.574C193.884 119.574 194.118 119.34 194.554 119.172L195.961 118.67C196.325 118.584 196.703 118.584 197.066 118.67H197.502C197.703 118.67 197.77 118.67 197.77 118.67H198.507C198.94 118.602 199.381 118.602 199.814 118.67C201.307 118.746 202.748 119.245 203.968 120.11C204.527 120.588 204.963 121.194 205.237 121.877C205.511 122.559 205.616 123.298 205.543 124.03C205.47 124.606 205.288 125.163 205.007 125.672C204.675 126.392 204.271 127.077 203.801 127.715C203.346 128.366 202.818 128.962 202.226 129.491L201.187 130.362L199.847 131.334L200.785 131.702C201.812 132.021 202.752 132.572 203.532 133.31C204.247 134.065 204.735 135.005 204.94 136.024C205.027 136.489 205.027 136.966 204.94 137.431C204.849 137.985 204.726 138.533 204.571 139.073C204.461 139.55 204.292 140.011 204.069 140.447C203.837 140.695 203.645 140.978 203.499 141.284L203.231 141.854L202.494 142.959C202.25 143.334 201.981 143.692 201.69 144.031L200.618 144.869C200.135 145.253 199.631 145.611 199.11 145.941C198.644 146.272 198.137 146.543 197.603 146.745C196.839 147.054 196.04 147.268 195.224 147.382C194.399 147.465 193.569 147.465 192.745 147.382C192.024 147.35 191.323 147.143 190.701 146.779ZM193.415 131.133L195.425 130.697C195.813 130.618 196.195 130.506 196.564 130.362L197.1 130.061C197.384 129.926 197.635 129.732 197.837 129.491C198.242 129.149 198.622 128.78 198.976 128.386C199.393 127.962 199.784 127.515 200.149 127.045C200.553 126.58 200.891 126.062 201.154 125.504C201.612 124.925 201.932 124.249 202.092 123.527C202.122 123.329 202.101 123.127 202.031 122.939C201.96 122.751 201.843 122.585 201.69 122.456C201.441 122.162 201.117 121.941 200.752 121.819C200.328 121.686 199.889 121.608 199.445 121.584C198.991 121.583 198.539 121.651 198.105 121.785C197.841 121.85 197.591 121.964 197.368 122.121C197.272 122.195 197.197 122.292 197.15 122.404C197.104 122.515 197.086 122.637 197.1 122.757C197.1 123.011 197.018 123.257 196.865 123.46C196.755 123.647 196.632 123.826 196.497 123.997C196.398 124.274 196.237 124.526 196.028 124.733C195.925 125.07 195.766 125.387 195.559 125.672C195.162 126.379 194.826 127.119 194.554 127.883C194.118 128.955 193.817 129.759 193.649 130.228C193.544 130.545 193.465 130.87 193.415 131.2V131.133Z" fill="#B8C318"/>
<path d="M217.367 143.995C217.084 143.698 216.866 143.344 216.731 142.956C216.731 142.521 216.463 142.018 216.295 141.415C216.259 141.194 216.259 140.967 216.295 140.745C216.312 140.544 216.312 140.343 216.295 140.142C216.295 140.142 216.094 140.544 215.927 140.812C215.811 141.042 215.652 141.247 215.458 141.415L214.788 142.018C214.446 142.276 214.088 142.511 213.716 142.722C213.066 143.177 212.297 143.433 211.504 143.459C211.171 143.43 210.848 143.328 210.558 143.16C210.269 142.992 210.02 142.762 209.829 142.487C209.417 142.152 209.085 141.728 208.858 141.248C208.593 140.683 208.534 140.043 208.69 139.438C208.753 138.569 208.888 137.706 209.092 136.859C209.399 135.705 209.814 134.584 210.332 133.508C210.868 132.459 211.27 131.655 211.538 131.096C211.675 130.73 211.855 130.382 212.074 130.058C212.522 129.925 212.999 129.925 213.448 130.058C214.017 130.058 214.319 130.426 214.352 130.795C214.531 131.247 214.531 131.75 214.352 132.202C214.171 133.025 213.866 133.816 213.448 134.547L212.442 137.06C212.172 137.702 211.991 138.378 211.906 139.07C211.906 139.639 211.906 139.975 212.308 140.109C212.468 140.175 212.638 140.209 212.811 140.209C212.983 140.209 213.154 140.175 213.314 140.109C213.947 139.792 214.489 139.32 214.888 138.735C215.687 137.634 216.33 136.428 216.798 135.15C216.983 134.714 217.14 134.267 217.267 133.81C217.377 133.382 217.444 132.945 217.468 132.503C217.42 132.172 217.504 131.835 217.702 131.565C217.898 131.263 218.162 131.011 218.473 130.828C218.582 130.681 218.719 130.556 218.875 130.46C219.076 130.46 219.176 130.46 219.243 130.46H219.846C219.846 130.46 220.048 130.46 220.182 130.761C220.268 130.943 220.394 131.104 220.55 131.23C220.715 131.435 220.833 131.672 220.897 131.927C220.96 132.181 220.968 132.447 220.919 132.704C220.829 133.868 220.522 135.004 220.014 136.055C219.644 136.8 219.33 137.573 219.076 138.367C218.913 138.877 218.812 139.406 218.775 139.941C218.735 140.32 218.735 140.701 218.775 141.08C218.912 141.464 219.156 141.801 219.478 142.052C219.62 142.149 219.737 142.278 219.819 142.43C219.901 142.582 219.945 142.751 219.947 142.923C219.981 143.279 219.981 143.638 219.947 143.995C219.947 144.229 219.713 144.397 219.378 144.464C219.014 144.549 218.635 144.549 218.272 144.464C217.934 144.391 217.622 144.229 217.367 143.995Z" fill="#B8C318"/>
<path d="M224.772 143.427C224.548 143.17 224.398 142.857 224.336 142.522C224.287 142.133 224.287 141.739 224.336 141.35C224.27 141.052 224.27 140.743 224.336 140.445C224.293 140.292 224.293 140.129 224.336 139.976C224.368 139.866 224.368 139.75 224.336 139.641C224.293 139.476 224.293 139.303 224.336 139.138C224.336 138.87 224.336 138.636 224.571 138.401C224.805 138.167 224.939 137.497 225.174 136.86L225.844 134.883C226.078 134.213 226.246 133.644 226.413 133.141C226.581 132.639 226.648 132.371 226.681 132.27C226.715 132.17 226.882 131.801 227.284 131.768C227.48 131.734 227.68 131.749 227.868 131.814C228.055 131.878 228.223 131.989 228.356 132.136C228.755 132.465 229.105 132.848 229.395 133.275C229.494 133.382 229.566 133.51 229.607 133.65C229.647 133.789 229.655 133.936 229.629 134.079C229.509 134.553 229.341 135.013 229.127 135.453C228.975 135.777 228.851 136.113 228.758 136.458C228.639 136.841 228.549 137.234 228.49 137.631C228.35 137.902 228.227 138.182 228.122 138.468C227.985 138.806 227.873 139.153 227.787 139.507C227.748 139.74 227.748 139.977 227.787 140.21C227.787 140.545 227.787 140.881 227.586 141.249C227.532 141.543 227.43 141.826 227.284 142.087C227.083 143.092 226.681 143.695 226.112 143.896C225.867 143.944 225.614 143.925 225.378 143.843C225.143 143.76 224.933 143.617 224.772 143.427ZM228.859 128.283C228.595 128.087 228.378 127.836 228.222 127.546C228.098 127.308 228.029 127.045 228.021 126.776C227.978 126.645 227.978 126.504 228.021 126.374C228.314 126.052 228.542 125.677 228.691 125.268C228.876 124.841 229.089 124.427 229.328 124.028L229.529 123.727C229.55 123.665 229.586 123.609 229.632 123.562C229.679 123.516 229.735 123.48 229.797 123.459C229.994 123.359 230.212 123.307 230.434 123.307C230.655 123.307 230.873 123.359 231.07 123.459C231.561 123.639 231.975 123.982 232.243 124.43C232.468 124.875 232.55 125.378 232.477 125.871C232.334 126.461 232.059 127.011 231.673 127.479C231.316 127.95 230.807 128.281 230.233 128.418C230.009 128.504 229.768 128.536 229.53 128.513C229.291 128.49 229.062 128.411 228.859 128.283Z" fill="#B8C318"/>
<path d="M235.526 144.598C235.297 144.648 235.059 144.637 234.836 144.567C234.612 144.496 234.412 144.368 234.253 144.196C233.836 143.696 233.558 143.095 233.449 142.454C233.285 141.624 233.285 140.771 233.449 139.941L233.75 139.07C233.775 138.836 233.775 138.6 233.75 138.366L234.052 137.261C234.052 136.758 234.353 136.256 234.554 135.72C234.755 135.184 234.89 134.715 235.057 134.313C235.148 134.047 235.26 133.789 235.392 133.542C235.392 133.542 235.392 133.542 235.627 133.274C235.669 133.098 235.669 132.914 235.627 132.738C235.582 132.517 235.582 132.289 235.627 132.068C235.666 131.868 235.759 131.683 235.895 131.532C235.867 131.388 235.867 131.24 235.895 131.096C235.918 130.963 235.918 130.827 235.895 130.694C235.866 130.596 235.866 130.491 235.895 130.393C235.91 130.293 235.91 130.191 235.895 130.091C236.177 129.589 236.412 129.062 236.598 128.516C236.9 127.813 237.201 127.009 237.536 126.138C237.871 125.267 238.206 124.396 238.508 123.524C238.809 122.653 239.044 121.95 239.245 121.347C239.386 121.002 239.487 120.642 239.546 120.275C239.551 120.068 239.622 119.869 239.747 119.705C239.815 119.63 239.897 119.57 239.99 119.53C240.082 119.489 240.183 119.469 240.283 119.471C240.431 119.34 240.622 119.269 240.819 119.27H241.389L241.992 119.873C242.206 120.049 242.398 120.252 242.562 120.476C242.66 120.578 242.738 120.699 242.79 120.831C242.841 120.963 242.867 121.104 242.863 121.247C242.898 121.569 242.898 121.895 242.863 122.218C242.863 122.519 242.595 122.922 242.394 123.424C242.193 123.927 241.791 124.697 241.322 125.702C240.853 126.707 240.92 126.674 240.686 127.143C240.529 127.39 240.416 127.662 240.351 127.947C240.382 128.091 240.382 128.239 240.351 128.383C240.233 128.633 240.132 128.89 240.049 129.153L239.647 130.024C239.647 130.426 239.278 130.828 239.111 131.297C238.936 131.658 238.779 132.027 238.642 132.403C238.555 132.585 238.487 132.776 238.441 132.973C238.457 133.072 238.457 133.174 238.441 133.274C238.474 133.372 238.474 133.478 238.441 133.575C238.441 133.575 238.273 133.575 238.273 133.977C238.146 134.667 237.943 135.342 237.67 135.988C237.268 137.362 236.9 138.635 236.531 139.774C236.24 140.686 236.071 141.632 236.029 142.588C236.052 143.061 235.96 143.532 235.76 143.962C235.726 144.187 235.646 144.404 235.526 144.598Z" fill="#B8C318"/>
<path d="M252.814 144.799C252.643 144.83 252.466 144.821 252.298 144.775C252.13 144.729 251.975 144.645 251.843 144.531C251.557 144.336 251.326 144.071 251.173 143.761C251.04 143.393 250.95 143.01 250.905 142.622C250.905 142.253 250.905 141.818 250.905 141.349V140.075L249.363 141.449C248.662 142.16 247.847 142.749 246.951 143.191C246.324 143.499 245.639 143.67 244.941 143.694C244.566 143.603 244.22 143.418 243.936 143.157C243.546 142.834 243.187 142.476 242.864 142.085C242.612 141.789 242.398 141.463 242.227 141.114C242.095 140.631 242.095 140.122 242.227 139.64C242.305 138.946 242.451 138.262 242.663 137.596C242.9 136.824 243.203 136.073 243.567 135.351C243.901 134.669 244.329 134.037 244.841 133.475C245.536 132.326 246.635 131.478 247.923 131.096C248.475 130.927 249.056 130.87 249.632 130.927C250.207 130.985 250.765 131.156 251.273 131.431C251.575 131.615 251.924 131.709 252.278 131.7C252.479 131.7 252.58 131.465 252.647 131.197C252.738 130.812 252.85 130.432 252.982 130.058C252.982 129.723 253.283 129.187 253.518 128.483C254.154 126.573 254.69 125.133 255.159 123.994C255.629 122.855 256.031 121.984 256.433 121.18C256.612 120.715 256.885 120.293 257.237 119.94C257.448 119.771 257.704 119.666 257.974 119.639C258.337 119.667 258.69 119.769 259.012 119.94C259.375 120.109 259.662 120.408 259.816 120.778C259.867 121.021 259.867 121.272 259.816 121.515C259.78 121.782 259.701 122.043 259.582 122.285C259.247 122.888 258.845 123.693 258.409 124.698C257.974 125.703 257.538 126.775 257.103 128.048C256.667 129.321 256.231 130.393 255.863 131.398C255.494 132.403 255.159 133.576 254.925 134.447C254.746 135.139 254.623 135.845 254.556 136.557C254.556 137.428 254.556 138.3 254.556 139.204C254.556 140.109 254.556 140.879 254.556 141.583C254.556 142.286 254.556 142.722 254.556 142.923C254.642 143.095 254.687 143.284 254.687 143.476C254.687 143.668 254.642 143.857 254.556 144.029C254.493 144.157 254.404 144.271 254.294 144.363C254.185 144.455 254.057 144.524 253.92 144.565L252.814 144.799ZM246.583 140.209C246.913 140.105 247.228 139.959 247.521 139.774C247.859 139.56 248.184 139.325 248.492 139.07C249.095 138.644 249.645 138.149 250.134 137.596C250.494 137.111 250.766 136.567 250.938 135.988C251.053 135.675 251.053 135.33 250.938 135.016C250.793 134.711 250.588 134.437 250.335 134.212C250.19 134.099 250.022 134.016 249.844 133.97C249.665 133.924 249.479 133.915 249.296 133.944C248.73 134.043 248.212 134.326 247.822 134.749C247.227 135.315 246.709 135.957 246.281 136.658C245.751 137.641 245.389 138.705 245.209 139.807C245.184 139.914 245.197 140.026 245.246 140.124C245.295 140.222 245.377 140.299 245.477 140.343C245.676 140.41 245.887 140.433 246.095 140.41C246.303 140.386 246.504 140.318 246.683 140.209H246.583Z" fill="#B8C318"/>
<path d="M259.715 143.427C259.491 143.17 259.341 142.857 259.279 142.522C259.23 142.133 259.23 141.739 259.279 141.35C259.267 141.039 259.324 140.73 259.446 140.445C259.404 140.292 259.404 140.129 259.446 139.976C259.478 139.866 259.478 139.75 259.446 139.641C259.404 139.476 259.404 139.303 259.446 139.138C259.446 138.87 259.614 138.636 259.681 138.401C259.748 138.167 260.05 137.497 260.284 136.86L260.954 134.883C261.189 134.213 261.356 133.644 261.524 133.141C261.691 132.639 261.758 132.371 261.792 132.27C261.825 132.17 261.993 131.801 262.395 131.768C262.59 131.734 262.791 131.749 262.978 131.814C263.166 131.878 263.334 131.989 263.467 132.136C263.865 132.465 264.215 132.848 264.505 133.275C264.604 133.382 264.677 133.51 264.717 133.65C264.758 133.789 264.766 133.936 264.74 134.079C264.619 134.553 264.451 135.013 264.237 135.453C264.085 135.777 263.962 136.113 263.869 136.458C263.75 136.841 263.66 137.234 263.601 137.631C263.461 137.902 263.338 138.182 263.232 138.468C263.095 138.806 262.983 139.153 262.897 139.507C262.859 139.74 262.859 139.977 262.897 140.21C262.897 140.545 262.897 140.881 262.696 141.249C262.643 141.543 262.541 141.826 262.395 142.087C262.194 143.092 261.792 143.695 261.222 143.896C260.953 143.977 260.665 143.976 260.396 143.893C260.128 143.809 259.89 143.647 259.715 143.427ZM263.802 128.283C263.538 128.087 263.321 127.836 263.165 127.546C263.041 127.308 262.972 127.045 262.964 126.776C262.921 126.645 262.921 126.504 262.964 126.374C263.257 126.052 263.485 125.677 263.634 125.268C263.819 124.841 264.032 124.427 264.271 124.028L264.472 123.727C264.493 123.665 264.529 123.609 264.575 123.562C264.622 123.516 264.678 123.48 264.74 123.459C264.937 123.359 265.155 123.307 265.377 123.307C265.598 123.307 265.816 123.359 266.013 123.459C266.504 123.639 266.918 123.982 267.186 124.43C267.411 124.875 267.493 125.378 267.42 125.871C267.277 126.461 267.002 127.011 266.616 127.479C266.259 127.95 265.75 128.281 265.176 128.418C264.952 128.504 264.711 128.536 264.473 128.513C264.234 128.49 264.005 128.411 263.802 128.283Z" fill="#B8C318"/>
<path d="M281.829 143.159C281.35 143.136 280.881 143.01 280.455 142.79C280.032 142.533 279.722 142.127 279.584 141.651C279.531 141.228 279.531 140.801 279.584 140.378C279.55 139.954 279.55 139.529 279.584 139.105C279.584 138.703 279.584 138.335 279.584 138.033V137.329C279.584 136.927 279.584 136.693 279.316 136.626C279.205 136.577 279.085 136.552 278.964 136.552C278.843 136.552 278.723 136.577 278.613 136.626C278.076 136.894 277.507 137.229 276.87 137.631L274.961 139.071L272.917 140.78C272.473 141.245 272.059 141.737 271.677 142.254C271.409 142.656 271.141 142.824 270.873 142.824C270.777 142.88 270.667 142.909 270.555 142.909C270.443 142.909 270.334 142.88 270.237 142.824L269.5 142.288C269.5 142.087 269.131 141.852 268.897 141.517C268.728 141.334 268.582 141.132 268.461 140.914C268.423 140.547 268.423 140.176 268.461 139.808C268.507 139.452 268.597 139.104 268.729 138.77C268.897 138.435 269.064 138.033 269.265 137.564C269.374 137.396 269.464 137.216 269.533 137.028L269.868 136.391C269.99 135.981 270.135 135.578 270.304 135.185C270.304 134.749 270.672 134.314 270.84 133.912C271.089 133.357 271.302 132.786 271.476 132.204C271.642 131.701 271.765 131.185 271.845 130.662C271.819 130.598 271.819 130.526 271.845 130.461C271.852 130.41 271.875 130.363 271.912 130.327C271.948 130.29 271.995 130.267 272.046 130.26C272.199 130.195 272.365 130.161 272.532 130.161C272.699 130.161 272.864 130.195 273.018 130.26C273.425 130.319 273.814 130.468 274.157 130.696C274.407 130.915 274.604 131.19 274.732 131.498C274.859 131.806 274.915 132.139 274.894 132.471C274.744 133.508 274.354 134.494 273.755 135.353C273.603 135.734 273.424 136.103 273.219 136.458C273.072 136.667 272.98 136.909 272.951 137.162L273.956 136.391L274.659 135.855L275.497 135.185L276.904 134.079L278.11 133.242C278.437 133 278.785 132.787 279.148 132.606C279.403 132.465 279.673 132.352 279.953 132.27C280.28 132.294 280.6 132.385 280.891 132.538C281.242 132.723 281.578 132.936 281.896 133.175C282.145 133.331 282.334 133.568 282.432 133.845C282.447 133.968 282.447 134.091 282.432 134.214C282.432 134.381 282.432 134.549 282.432 134.649C282.398 135.14 282.398 135.632 282.432 136.123V137.798C282.488 138.31 282.488 138.827 282.432 139.34V139.574C282.432 139.574 282.432 139.574 282.432 139.808C282.432 140.043 282.432 140.143 282.599 140.311L282.834 140.914C282.834 141.115 283.068 141.383 283.202 141.718C283.133 142.099 282.931 142.443 282.633 142.69C282.401 142.902 282.127 143.061 281.829 143.159Z" fill="#B8C318"/>
<path d="M292.413 151.601C292.066 151.758 291.689 151.84 291.307 151.84C290.926 151.84 290.549 151.758 290.202 151.601C289.396 151.212 288.712 150.61 288.225 149.859C288.047 149.604 287.89 149.335 287.756 149.055C287.54 148.643 287.35 148.218 287.187 147.782C287.014 147.402 286.868 147.01 286.751 146.609C286.751 146.308 286.751 146.107 286.751 146.073C286.798 145.931 286.888 145.807 287.008 145.718C287.127 145.628 287.272 145.577 287.421 145.571C287.774 145.488 288.141 145.488 288.493 145.571C288.612 145.581 288.727 145.615 288.831 145.673C288.935 145.731 289.025 145.81 289.096 145.906L289.297 146.476C289.385 146.65 289.486 146.818 289.599 146.978C289.683 147.133 289.784 147.279 289.9 147.413C290.13 147.779 290.439 148.088 290.805 148.318C290.919 148.393 291.053 148.433 291.19 148.433C291.327 148.433 291.461 148.393 291.575 148.318C291.986 148.022 292.319 147.631 292.547 147.179C292.876 146.427 293.156 145.655 293.384 144.867L294.088 142.455C294.289 141.785 294.524 141.148 294.758 140.545C294.822 140.28 294.911 140.022 295.026 139.775C295.113 139.602 295.226 139.444 295.361 139.306H295.562C295.074 139.622 294.614 139.98 294.189 140.378C293.724 140.766 293.205 141.082 292.648 141.316C292.309 141.538 291.913 141.654 291.508 141.651C290.929 141.688 290.348 141.609 289.8 141.417C289.498 141.248 289.217 141.046 288.962 140.813C288.744 140.599 288.563 140.35 288.426 140.076C288.426 139.808 288.158 139.473 287.991 139.071C287.818 138.469 287.818 137.831 287.991 137.229C288.103 136.355 288.328 135.499 288.661 134.682C289.022 133.957 289.46 133.272 289.967 132.639C290.532 131.925 291.16 131.263 291.843 130.662C292.333 130.15 292.944 129.77 293.619 129.556C293.952 129.4 294.3 129.276 294.658 129.188C295.131 129.071 295.625 129.071 296.098 129.188C296.438 129.228 296.767 129.33 297.07 129.489C297.463 129.735 297.832 130.015 298.175 130.327C298.51 130.662 298.913 131.064 299.382 131.6C299.764 131.974 300.071 132.417 300.286 132.907C300.421 133.297 300.421 133.722 300.286 134.113C300.195 134.532 300.025 134.93 299.784 135.285L299.046 136.257C298.767 136.672 298.573 137.139 298.477 137.631C298.322 138.5 298.087 139.352 297.773 140.177C297.438 141.029 297.158 141.902 296.936 142.79L296.333 145.135C295.919 146.798 295.216 148.374 294.256 149.792C293.764 150.509 293.139 151.123 292.413 151.601ZM291.609 138.636C292.044 138.677 292.481 138.677 292.915 138.636C293.305 138.52 293.661 138.314 293.954 138.033C294.384 137.595 294.766 137.112 295.093 136.592C295.477 136.082 295.782 135.517 295.998 134.917C296.176 134.366 296.233 133.783 296.165 133.208C296.186 133.061 296.166 132.912 296.106 132.776C296.047 132.64 295.952 132.523 295.83 132.438C295.581 132.348 295.309 132.348 295.06 132.438C294.578 132.519 294.127 132.727 293.753 133.041C293.272 133.478 292.834 133.96 292.447 134.481C292.043 135.033 291.727 135.643 291.508 136.29C291.279 136.866 291.165 137.481 291.173 138.1C291.207 138.267 291.374 138.535 291.609 138.636Z" fill="#B8C318"/>
<path d="M319.316 146.576L317.976 145.939C317.458 145.665 316.984 145.315 316.569 144.901C316.109 144.467 315.744 143.942 315.497 143.36C315.27 142.66 315.102 141.943 314.994 141.215C314.922 140.391 314.922 139.561 314.994 138.736C314.984 137.612 315.085 136.49 315.296 135.386C315.487 134.376 315.778 133.389 316.167 132.438C316.282 132.225 316.372 132.001 316.435 131.768L316.938 130.595L317.373 129.623C317.574 129.188 317.876 128.618 318.311 127.881C318.714 127.162 319.162 126.468 319.651 125.804C320.355 124.732 320.991 123.827 321.494 123.124C321.934 122.511 322.416 121.929 322.935 121.381C323.404 120.912 323.906 120.444 324.476 119.975C325.045 119.506 325.749 119.003 326.62 118.433C327.261 118.009 327.998 117.756 328.764 117.696C329.63 117.602 330.506 117.729 331.31 118.065C332.172 118.49 332.833 119.236 333.153 120.142C333.444 120.758 333.571 121.439 333.522 122.119C333.484 122.972 333.337 123.816 333.086 124.632C332.81 125.502 332.451 126.343 332.014 127.144C331.642 127.856 331.155 128.501 330.573 129.054C330.38 129.183 330.153 129.253 329.92 129.253C329.687 129.253 329.46 129.183 329.267 129.054C328.78 128.873 328.327 128.612 327.926 128.283C327.795 128.035 327.683 127.778 327.592 127.513L328.195 126.608C328.429 126.173 328.697 125.703 328.931 125.201C329.147 124.828 329.327 124.436 329.468 124.028L329.87 121.918C329.915 121.773 329.92 121.619 329.885 121.471C329.85 121.324 329.775 121.188 329.669 121.08C329.601 121.045 329.527 121.026 329.451 121.026C329.375 121.026 329.3 121.045 329.233 121.08C328.898 121.136 328.579 121.262 328.295 121.449C327.525 121.833 326.833 122.356 326.251 122.99C325.385 123.827 324.589 124.735 323.873 125.703C322.868 127.044 322.03 128.216 321.36 129.255C320.686 130.291 320.166 131.419 319.819 132.605C319.653 132.92 319.508 133.244 319.383 133.577C319.434 133.82 319.434 134.071 319.383 134.314C319.383 134.716 319.149 135.017 319.048 135.319C318.768 136.416 318.6 137.538 318.546 138.669C318.504 139.601 318.571 140.534 318.747 141.45C318.869 142.101 319.171 142.704 319.618 143.192C319.799 143.311 320.001 143.393 320.214 143.433C320.427 143.473 320.646 143.471 320.857 143.427C321.457 143.318 322.042 143.137 322.6 142.89L324.71 141.986C325.28 141.754 325.83 141.474 326.352 141.148C326.75 140.92 327.131 140.663 327.491 140.378C327.734 140.199 327.992 140.042 328.262 139.909C328.508 139.763 328.782 139.672 329.066 139.641C329.213 139.582 329.377 139.58 329.526 139.635C329.675 139.691 329.797 139.801 329.87 139.942C330.06 140.339 330.152 140.776 330.138 141.215C330.041 141.718 329.768 142.17 329.367 142.488C328.882 142.988 328.33 143.416 327.725 143.762C327.496 143.993 327.223 144.175 326.921 144.298C326.585 144.465 326.238 144.611 325.883 144.733C325.263 145.187 324.601 145.58 323.906 145.906C323.16 146.284 322.373 146.576 321.561 146.777C320.807 146.866 320.042 146.797 319.316 146.576Z" fill="#B8C318"/>
<path d="M341.933 143.326C341.186 143.732 340.366 143.982 339.52 144.063C338.72 144.132 337.916 144.005 337.175 143.694C336.473 143.45 335.856 143.008 335.4 142.421C335.069 141.94 334.82 141.408 334.663 140.847C334.467 139.885 334.467 138.894 334.663 137.932C334.836 136.764 335.198 135.633 335.735 134.582C336.28 133.434 336.991 132.373 337.845 131.432C338.569 130.587 339.506 129.951 340.559 129.59L341.631 129.321C342.11 129.268 342.593 129.268 343.072 129.321C343.605 129.386 344.125 129.533 344.613 129.757C344.988 129.928 345.329 130.167 345.618 130.461C345.955 130.793 346.217 131.193 346.389 131.633C346.506 131.99 346.563 132.364 346.556 132.739C346.37 133.66 346.006 134.537 345.484 135.319C344.891 136.25 344.025 136.975 343.005 137.396C342.528 137.601 342.016 137.714 341.497 137.731C340.699 137.782 339.897 137.715 339.118 137.53C338.515 137.53 338.113 137.53 337.912 137.697C337.694 138.156 337.613 138.668 337.678 139.172C337.713 139.591 337.826 140 338.013 140.378C338.102 140.554 338.23 140.71 338.386 140.831C338.543 140.953 338.724 141.038 338.917 141.081C339.326 141.168 339.748 141.168 340.157 141.081C340.479 140.971 340.793 140.837 341.095 140.679L341.698 140.277L342.268 139.808L342.737 139.473C342.844 139.381 342.97 139.313 343.105 139.272H343.273C343.59 139.321 343.878 139.489 344.077 139.741C344.303 139.968 344.475 140.243 344.579 140.545C344.529 140.857 344.389 141.148 344.177 141.383C343.895 141.796 343.569 142.178 343.206 142.522C342.801 142.82 342.376 143.089 341.933 143.326ZM341.43 134.917C341.699 134.756 341.957 134.577 342.201 134.38C342.53 134.096 342.843 133.795 343.139 133.476C343.355 133.285 343.497 133.024 343.541 132.739C343.541 132.471 343.373 132.236 343.005 132.035C342.538 131.875 342.031 131.875 341.564 132.035C341.303 132.133 341.064 132.281 340.861 132.471C340.565 132.709 340.285 132.967 340.023 133.241L339.319 134.079L338.884 134.682C339.044 134.849 339.257 134.956 339.487 134.984C339.82 135.034 340.159 135.034 340.492 134.984L341.43 134.917Z" fill="#B8C318"/>
<path d="M349.972 143.06C349.702 142.853 349.455 142.616 349.235 142.356C349.095 142.206 348.996 142.022 348.949 141.822C348.902 141.622 348.908 141.413 348.967 141.217C349.022 140.585 349.122 139.958 349.269 139.341C349.269 138.805 349.537 138.168 349.704 137.464C349.872 136.761 349.905 136.66 350.106 135.923C350.307 135.186 350.576 134.415 350.877 133.544C351.179 132.673 351.513 131.869 351.815 131.099C352.062 130.508 352.354 129.937 352.686 129.39C353.043 129.124 353.482 128.994 353.926 129.022C354.319 128.98 354.714 129.087 355.031 129.323C355.178 129.476 355.28 129.666 355.327 129.873C355.374 130.079 355.365 130.294 355.299 130.496C355.053 131.419 354.693 132.308 354.227 133.142C354.105 133.471 353.948 133.786 353.758 134.081L353.356 134.918C353.356 135.119 353.356 135.22 353.356 135.186C353.568 134.83 353.84 134.513 354.16 134.248C354.574 133.865 355.01 133.507 355.467 133.176C355.873 132.839 356.298 132.526 356.74 132.238C356.998 132.028 357.279 131.848 357.578 131.702C357.798 131.563 358.034 131.451 358.281 131.367L358.817 131.166C359.417 130.899 360.072 130.784 360.727 130.831C361.43 130.831 361.833 131.132 362 131.501C362.168 131.869 362 131.903 362.435 132.104C362.871 132.305 362.436 132.104 362.637 132.338C362.563 132.637 362.385 132.899 362.134 133.076C361.827 133.38 361.425 133.569 360.995 133.611C360.697 133.643 360.405 133.711 360.124 133.813L359.219 134.181L356.639 135.655C355.754 136.18 354.961 136.848 354.294 137.632C354.121 137.828 353.93 138.007 353.725 138.168C353.492 138.398 353.289 138.657 353.122 138.939C352.928 139.181 352.801 139.47 352.753 139.776C352.753 140.212 352.519 140.614 352.418 140.982C352.398 141.216 352.398 141.452 352.418 141.686C352.333 142.076 352.161 142.442 351.916 142.758C351.707 143.086 351.403 143.344 351.045 143.495C350.575 143.596 350.24 143.462 349.972 143.06Z" fill="#B8C318"/>
<path d="M367.258 144.096C366.914 144.022 366.599 143.847 366.354 143.593C366.038 143.293 365.747 142.969 365.483 142.622C365.259 142.343 365.088 142.025 364.98 141.684C364.932 141.572 364.864 141.47 364.779 141.382C364.779 141.382 364.779 140.98 364.779 140.377C364.779 139.774 364.779 139.138 364.779 138.401C364.829 137.814 364.919 137.232 365.047 136.658C365.209 136.102 365.399 135.554 365.617 135.017C365.851 134.347 366.052 133.71 366.253 133.174L367.258 130.963L365.751 130.561C365.58 130.504 365.429 130.399 365.315 130.259C365.288 130.138 365.288 130.012 365.315 129.891C365.349 129.576 365.464 129.276 365.65 129.02C365.885 128.651 366.053 128.45 366.153 128.45H367.862H368.465L368.766 128.215C368.878 128.123 368.95 127.991 368.967 127.847C369.061 127.609 369.185 127.384 369.336 127.177L369.738 126.507L370.173 125.669L370.709 124.731L371.145 124.095C371.286 123.854 371.468 123.638 371.681 123.458C372.018 123.219 372.41 123.069 372.82 123.023C373.057 122.975 373.301 122.983 373.534 123.047C373.767 123.111 373.981 123.229 374.16 123.391C374.337 123.589 374.454 123.833 374.495 124.095C374.501 124.412 374.394 124.72 374.194 124.966C374.007 125.373 373.771 125.755 373.49 126.105C373.21 126.473 372.963 126.865 372.753 127.277C372.351 127.813 372.284 128.148 372.518 128.215C373.218 128.327 373.93 128.327 374.629 128.215C374.899 128.146 375.181 128.131 375.457 128.172C375.733 128.212 375.998 128.307 376.237 128.45C376.547 128.73 376.749 129.109 376.807 129.522C376.807 130.125 376.807 130.494 376.606 130.594C376.046 130.783 375.452 130.852 374.864 130.795C374.351 130.836 373.835 130.836 373.323 130.795H371.748C371.593 130.769 371.434 130.769 371.279 130.795C371.117 130.838 370.968 130.919 370.843 131.03C370.74 131.177 370.65 131.334 370.575 131.499C370.382 131.744 370.225 132.014 370.106 132.303C369.887 132.785 369.64 133.255 369.369 133.71C369.015 134.699 368.714 135.705 368.465 136.725C368.219 137.686 368.018 138.657 367.862 139.64C367.752 139.966 367.752 140.319 367.862 140.645C367.862 140.879 368.297 141.013 368.833 141.047H370.039C370.481 141.029 370.919 140.961 371.346 140.846L372.217 140.444L373.055 140.009L374.093 139.405C374.093 139.204 374.395 139.405 374.629 139.405C374.859 139.642 375.031 139.929 375.132 140.243C375.124 140.609 375.056 140.971 374.931 141.315C374.931 141.717 374.361 142.153 373.557 142.622C372.545 143.283 371.402 143.717 370.207 143.895C369.245 144.144 368.245 144.212 367.258 144.096Z" fill="#B8C318"/>
<path d="M379.287 143.426C379.051 143.178 378.899 142.861 378.851 142.522C378.786 142.134 378.786 141.737 378.851 141.349C378.847 141.036 378.916 140.726 379.052 140.445C379.013 140.291 379.013 140.129 379.052 139.976C379.077 139.923 379.089 139.866 379.089 139.808C379.089 139.75 379.077 139.693 379.052 139.641C379.01 139.476 379.01 139.303 379.052 139.138C379.052 138.87 379.053 138.635 379.287 138.401C379.522 138.166 379.656 137.496 379.89 136.86C380.125 136.223 380.359 135.553 380.56 134.883C380.761 134.213 380.996 133.643 381.13 133.141C381.264 132.638 381.364 132.37 381.398 132.27C381.431 132.169 381.599 131.801 382.001 131.767C382.201 131.736 382.406 131.754 382.598 131.818C382.791 131.882 382.965 131.991 383.106 132.136C383.504 132.455 383.844 132.84 384.111 133.275C384.21 133.382 384.283 133.51 384.324 133.65C384.364 133.789 384.372 133.936 384.346 134.079C384.241 134.557 384.072 135.02 383.843 135.453C383.705 135.778 383.593 136.114 383.508 136.458C383.381 136.841 383.28 137.233 383.207 137.63L382.838 138.468C382.838 138.837 382.604 139.171 382.503 139.506C382.48 139.74 382.48 139.976 382.503 140.21C382.503 140.545 382.503 140.88 382.336 141.249C382.251 141.533 382.151 141.813 382.034 142.086C381.811 143.091 381.409 143.694 380.828 143.895C380.555 143.995 380.257 144.003 379.979 143.918C379.701 143.834 379.458 143.661 379.287 143.426ZM383.341 128.283C383.079 128.094 382.871 127.84 382.738 127.546C382.604 127.31 382.524 127.047 382.503 126.776C382.503 126.575 382.503 126.407 382.503 126.374C382.784 126.049 383.001 125.674 383.14 125.268C383.325 124.841 383.538 124.427 383.777 124.028L383.978 123.727C384.039 123.601 384.147 123.505 384.279 123.458C384.47 123.359 384.683 123.307 384.899 123.307C385.115 123.307 385.327 123.359 385.519 123.458C386.013 123.647 386.435 123.987 386.725 124.43C386.957 124.872 387.029 125.382 386.926 125.871C386.783 126.461 386.508 127.01 386.122 127.479C385.765 127.949 385.255 128.281 384.681 128.417C384.481 128.478 384.272 128.497 384.064 128.474C383.857 128.451 383.656 128.386 383.475 128.283H383.341Z" fill="#B8C318"/>
<path d="M389.807 148.619C389.48 148.593 389.167 148.477 388.902 148.284C388.521 148.065 388.171 147.795 387.864 147.48C387.666 147.256 387.497 147.009 387.361 146.743C387.233 146.518 387.164 146.265 387.16 146.006C387.124 145.605 387.124 145.201 387.16 144.8C387.182 144.477 387.182 144.152 387.16 143.828C387.13 143.438 387.13 143.046 387.16 142.656L387.462 140.914C387.462 140.344 387.663 139.875 387.696 139.573V139.239C387.696 138.803 387.897 138.401 387.998 138.066C388.091 137.725 388.158 137.378 388.199 137.027C388.433 136.022 388.601 135.285 388.668 134.816C388.762 134.362 388.885 133.915 389.036 133.476C389.105 133.256 389.195 133.043 389.304 132.839C389.38 132.643 389.469 132.453 389.572 132.27L389.941 131.566C390.443 130.159 390.879 129.054 391.18 128.216C391.477 127.473 391.812 126.746 392.185 126.038C392.445 125.322 392.782 124.637 393.191 123.995C393.635 123.272 394.139 122.589 394.698 121.951C395.301 121.281 395.971 120.611 396.708 119.941C397.22 119.679 397.746 119.444 398.283 119.237C398.751 119.044 399.251 118.942 399.757 118.936C400.235 118.939 400.705 119.054 401.131 119.27C401.503 119.461 401.842 119.71 402.136 120.008C402.448 120.275 402.699 120.606 402.873 120.979C403.018 121.225 403.11 121.499 403.141 121.783C403.007 122.268 402.804 122.73 402.538 123.157C402.253 123.662 401.928 124.144 401.566 124.598C401.275 124.995 400.962 125.375 400.628 125.737C400.327 126.038 400.126 126.206 400.025 126.206C399.916 126.208 399.81 126.173 399.725 126.106C399.639 126.038 399.579 125.944 399.556 125.837C399.556 125.603 399.556 125.335 399.288 125.067V124.765C399.228 124.661 399.149 124.57 399.054 124.497C399.084 124.264 399.152 124.038 399.255 123.827C399.296 123.55 399.296 123.267 399.255 122.99C399.285 122.835 399.285 122.676 399.255 122.521C399.233 122.493 399.205 122.47 399.173 122.455C399.141 122.439 399.106 122.431 399.07 122.431C399.035 122.431 399 122.439 398.968 122.455C398.936 122.47 398.908 122.493 398.886 122.521L398.249 122.956L397.714 123.392C397.511 123.57 397.331 123.773 397.178 123.995L396.507 124.866L396.206 125.301C396.115 125.428 396.037 125.562 395.971 125.703C395.858 125.886 395.758 126.077 395.67 126.273C395.661 126.418 395.661 126.563 395.67 126.708C395.681 126.809 395.681 126.91 395.67 127.01C395.67 127.01 395.67 127.01 395.67 127.378L395.234 128.317C395.136 128.557 395.024 128.792 394.899 129.02C394.789 129.207 394.666 129.386 394.531 129.556L393.995 130.863C393.91 131.035 393.843 131.214 393.794 131.399C393.794 131.399 394.028 131.399 394.464 131.399L395.938 131.131C396.361 131.096 396.787 131.096 397.211 131.131C397.388 131.095 397.57 131.095 397.747 131.131C397.895 131.181 398.032 131.261 398.149 131.365C398.392 131.578 398.567 131.858 398.652 132.169C398.756 132.506 398.812 132.855 398.819 133.208C398.819 133.409 398.618 133.576 398.249 133.71C397.684 133.936 397.102 134.116 396.507 134.247L394.799 134.615L393.66 134.883C393.387 134.936 393.126 135.038 392.889 135.184C392.734 135.269 392.598 135.383 392.487 135.52L392.286 136.056V136.29C392.286 136.29 392.286 136.592 392.119 136.893C391.951 137.195 392.119 137.496 391.884 137.865C391.65 138.233 391.884 138.635 391.616 139.037C391.348 139.439 391.616 139.775 391.381 140.143V140.813C391.372 140.969 391.372 141.126 391.381 141.282C391.223 141.561 391.12 141.868 391.08 142.187C390.962 142.556 390.894 142.939 390.879 143.326V143.661C390.879 143.661 390.879 144.063 390.879 144.565C390.846 145.101 390.846 145.638 390.879 146.173V147.279C390.897 147.603 390.897 147.927 390.879 148.251C390.41 148.496 390.053 148.619 389.807 148.619ZM401.03 143.828C400.811 143.823 400.597 143.766 400.404 143.661C400.212 143.556 400.047 143.407 399.925 143.225C399.541 142.768 399.349 142.179 399.389 141.584C399.336 141.082 399.336 140.577 399.389 140.076C399.389 139.607 399.657 139.004 399.824 138.267C399.992 137.53 400.193 137.295 400.394 136.625L401.064 134.615C401.265 133.945 401.432 133.375 401.6 132.873C401.674 132.589 401.764 132.31 401.868 132.035C401.874 131.976 401.892 131.919 401.921 131.867C401.949 131.815 401.988 131.77 402.035 131.734C402.178 131.695 402.328 131.695 402.471 131.734C402.788 131.757 403.091 131.874 403.342 132.069C403.672 132.303 403.966 132.586 404.213 132.906C404.455 133.181 404.617 133.518 404.682 133.878C404.7 134.079 404.7 134.28 404.682 134.481L404.448 135.051C404.448 135.285 404.213 135.687 404.046 136.19C403.878 136.692 403.644 137.429 403.376 138.367C403.107 139.306 402.806 140.579 402.437 142.187C402.325 142.663 402.133 143.116 401.868 143.527C401.637 143.731 401.338 143.838 401.03 143.828ZM402.974 127.077C403.004 126.667 403.118 126.268 403.308 125.904C403.527 125.391 403.808 124.907 404.146 124.464C404.481 124.028 404.783 123.794 405.084 123.794H405.52H405.922C406.196 123.909 406.444 124.078 406.651 124.291C406.858 124.504 407.02 124.756 407.128 125.033C407.381 125.656 407.381 126.353 407.128 126.976C406.805 127.764 406.194 128.399 405.419 128.752C405.321 128.783 405.216 128.783 405.118 128.752H404.816C404.409 128.774 404.007 128.656 403.677 128.417C403.416 128.179 403.2 127.895 403.041 127.58C402.986 127.383 402.964 127.18 402.974 126.976V127.077Z" fill="#B8C318"/>
<path d="M412.221 144.23C411.491 144.364 410.737 144.294 410.044 144.029C409.346 143.792 408.73 143.362 408.268 142.789C407.789 142.218 407.538 141.49 407.564 140.746C407.504 139.845 407.583 138.942 407.799 138.066C408.01 136.984 408.336 135.928 408.77 134.916C409.14 133.954 409.648 133.052 410.278 132.236C410.781 131.633 411.317 131.064 411.819 130.561C412.198 130.144 412.653 129.803 413.159 129.556C413.58 129.385 414.018 129.261 414.466 129.187C414.823 129.155 415.181 129.155 415.538 129.187C416 129.312 416.448 129.48 416.878 129.69C417.381 129.891 417.615 130.159 417.615 130.46L417.816 130.661C417.816 130.661 418.118 130.661 418.319 131.197C418.504 131.595 418.65 132.01 418.754 132.437C418.877 132.807 418.877 133.206 418.754 133.576C418.646 134.069 418.441 134.536 418.151 134.95C417.85 135.419 417.615 135.653 417.414 135.653H416.979C416.957 135.682 416.945 135.717 416.945 135.754C416.945 135.79 416.957 135.825 416.979 135.854C416.979 135.854 416.979 136.055 416.577 136.055C416.301 136.048 416.029 135.991 415.773 135.888C415.655 135.865 415.544 135.812 415.45 135.736C415.357 135.661 415.283 135.563 415.236 135.452C415.224 135.285 415.224 135.117 415.236 134.95C415.236 134.749 415.236 134.413 415.471 133.944C415.609 133.485 415.609 132.996 415.471 132.538C415.471 132.269 415.036 132.269 414.533 132.538C413.954 132.848 413.433 133.256 412.992 133.744C412.52 134.334 412.157 135.003 411.92 135.72C411.5 136.813 411.153 137.932 410.881 139.07C410.752 139.519 410.752 139.995 410.881 140.444C410.881 140.779 411.082 140.947 411.149 140.98C411.537 141.049 411.934 141.049 412.322 140.98C412.679 140.925 413.028 140.823 413.36 140.679C413.734 140.483 414.093 140.259 414.432 140.009L415.471 139.238C415.617 139.122 415.732 138.973 415.806 138.803C415.887 138.597 416.042 138.429 416.242 138.333C416.323 138.192 416.44 138.074 416.581 137.992C416.722 137.91 416.883 137.866 417.046 137.864H417.95C418.189 137.935 418.407 138.061 418.587 138.233C418.792 138.399 418.963 138.604 419.089 138.836C419.124 138.857 419.153 138.886 419.173 138.922C419.193 138.957 419.203 138.996 419.203 139.037C419.203 139.077 419.193 139.117 419.173 139.153C419.153 139.188 419.124 139.217 419.089 139.238C419.041 139.237 418.995 139.254 418.958 139.285C418.921 139.315 418.896 139.358 418.888 139.405C418.888 139.405 418.888 139.741 418.587 140.109C418.272 140.496 417.937 140.865 417.582 141.215C417.217 141.59 416.825 141.937 416.409 142.253C416.041 142.555 415.806 142.689 415.638 142.689C415.471 142.689 415.27 142.689 415.27 142.923C415.27 143.158 415.103 142.923 414.734 143.292L413.494 143.895C413.077 144.031 412.652 144.143 412.221 144.23Z" fill="#B8C318"/>
<path d="M424.182 143.293C424.016 143.035 423.785 142.827 423.511 142.69C423.176 142.489 423.009 142.321 423.009 142.221C423.037 142.066 423.037 141.907 423.009 141.752C422.922 141.579 422.809 141.421 422.674 141.283C422.674 141.283 422.674 140.747 422.674 140.177C422.931 139.433 423.232 138.706 423.578 137.999C423.98 137.128 424.416 136.257 424.885 135.386C425.11 135.149 425.312 134.891 425.488 134.615C425.621 134.377 425.779 134.152 425.957 133.945C425.929 133.858 425.929 133.764 425.957 133.677C425.999 133.657 426.044 133.646 426.091 133.646C426.137 133.646 426.183 133.657 426.225 133.677L426.527 133.074C426.668 132.862 426.824 132.66 426.996 132.471L427.967 131.466L429.106 130.428C429.404 130.159 429.73 129.923 430.078 129.724C430.55 129.372 431.131 129.194 431.72 129.222C432.246 129.236 432.753 129.424 433.16 129.757L433.663 130.193L434.567 130.964L435.472 131.701L436.879 132.974L436.209 134.85C435.908 135.698 435.828 136.609 435.974 137.497C436.085 138.183 436.324 138.842 436.678 139.44C436.779 139.697 436.954 139.918 437.181 140.076C437.437 140.256 437.739 140.361 438.052 140.378C438.248 140.406 438.433 140.488 438.588 140.613C438.683 140.679 438.759 140.77 438.806 140.876C438.853 140.983 438.871 141.1 438.856 141.215C438.893 141.672 438.788 142.128 438.554 142.522C438.382 142.756 438.133 142.922 437.851 142.991C437.048 143.108 436.229 143.015 435.472 142.723C434.541 142.297 433.809 141.53 433.428 140.579C433.268 140.313 433.133 140.033 433.026 139.742C433.026 139.306 432.792 139.038 432.758 138.937L432.356 139.406L431.887 139.909C430.576 141.297 429.02 142.433 427.297 143.259C426.819 143.517 426.286 143.654 425.743 143.66C425.201 143.666 424.665 143.54 424.182 143.293ZM427.096 139.942C427.617 139.611 428.12 139.254 428.604 138.87L430.714 137.028C431.323 136.481 431.864 135.862 432.323 135.185L433.16 133.845C433.015 133.425 432.787 133.037 432.49 132.706C432.327 132.549 432.113 132.454 431.887 132.438C431.428 132.489 431.008 132.718 430.714 133.074C430.131 133.614 429.614 134.221 429.173 134.883C428.604 135.654 427.967 136.659 427.264 137.832C426.858 138.593 426.522 139.389 426.259 140.21C426.541 140.169 426.807 140.053 427.029 139.875L427.096 139.942Z" fill="#B8C318"/>
<path d="M444.687 144.096C444.336 144.037 444.016 143.86 443.782 143.593C443.447 143.302 443.143 142.977 442.877 142.622C442.653 142.343 442.483 142.025 442.375 141.684C442.327 141.572 442.259 141.47 442.174 141.382C442.174 141.382 442.174 140.98 442.174 140.377C442.174 139.774 442.174 139.137 442.174 138.4C442.223 137.814 442.313 137.232 442.442 136.658C442.442 136.256 442.743 135.72 443.011 135.017C443.279 134.313 443.48 133.71 443.648 133.174L444.653 130.963L443.145 130.561C442.974 130.504 442.823 130.399 442.71 130.259C442.682 130.138 442.682 130.012 442.71 129.891C442.758 129.58 442.873 129.283 443.045 129.019C443.279 128.651 443.447 128.45 443.547 128.45H445.256H445.859L446.161 128.215C446.273 128.118 446.354 127.99 446.395 127.847C446.479 127.611 446.592 127.386 446.73 127.177C446.877 126.961 447.011 126.737 447.132 126.507C447.3 126.172 447.467 125.904 447.568 125.669L448.104 124.731L448.539 124.095C448.682 123.845 448.876 123.628 449.109 123.458C449.429 123.211 449.812 123.061 450.214 123.023C450.451 122.972 450.696 122.979 450.929 123.043C451.163 123.107 451.377 123.227 451.555 123.391C451.732 123.588 451.848 123.833 451.89 124.095C451.895 124.411 451.788 124.72 451.588 124.966C451.401 125.373 451.165 125.755 450.885 126.105C450.605 126.473 450.358 126.865 450.148 127.277C449.746 127.813 449.678 128.148 449.913 128.215C450.612 128.327 451.325 128.327 452.024 128.215C452.294 128.146 452.575 128.131 452.851 128.172C453.127 128.212 453.393 128.307 453.632 128.45C453.954 128.719 454.159 129.104 454.201 129.522C454.201 130.125 454.201 130.493 454 130.594C453.44 130.783 452.847 130.852 452.258 130.795C451.745 130.836 451.23 130.836 450.717 130.795H449.142C448.987 130.769 448.829 130.769 448.673 130.795C448.512 130.838 448.363 130.918 448.238 131.03L447.97 131.499C447.777 131.743 447.619 132.014 447.501 132.303C447.281 132.785 447.035 133.255 446.764 133.71C446.41 134.699 446.108 135.705 445.859 136.725C445.636 137.686 445.435 138.657 445.256 139.64C445.146 139.966 445.146 140.319 445.256 140.645C445.256 140.879 445.692 141.013 446.228 141.047H447.132C447.585 141.025 448.034 140.958 448.472 140.846L449.31 140.444C449.6 140.32 449.879 140.174 450.148 140.008L451.186 139.405C451.186 139.204 451.488 139.405 451.722 139.405C451.952 139.642 452.124 139.929 452.225 140.243C452.266 140.599 452.266 140.959 452.225 141.315C451.913 141.894 451.418 142.353 450.817 142.622C449.805 143.281 448.662 143.715 447.467 143.895C446.559 144.124 445.618 144.192 444.687 144.096Z" fill="#B8C318"/>
<path d="M456.681 143.426C456.444 143.178 456.292 142.861 456.245 142.522C456.18 142.134 456.18 141.737 456.245 141.349C456.257 141.038 456.325 140.732 456.446 140.445C456.422 140.289 456.422 140.131 456.446 139.976C456.47 139.923 456.483 139.866 456.483 139.808C456.483 139.75 456.47 139.693 456.446 139.641C456.404 139.476 456.404 139.303 456.446 139.138C456.446 138.87 456.614 138.635 456.681 138.401C456.748 138.166 457.049 137.496 457.284 136.86C457.518 136.223 457.753 135.553 457.954 134.883C458.155 134.213 458.389 133.643 458.523 133.141C458.657 132.638 458.758 132.37 458.791 132.27C458.825 132.169 458.992 131.801 459.394 131.767C459.595 131.736 459.8 131.754 459.992 131.818C460.184 131.882 460.358 131.991 460.5 132.136C460.898 132.455 461.238 132.84 461.505 133.275C461.611 133.377 461.689 133.504 461.73 133.645C461.771 133.787 461.774 133.936 461.74 134.079C461.651 134.562 461.481 135.026 461.237 135.453C461.099 135.778 460.987 136.114 460.902 136.458C460.902 136.927 460.668 137.329 460.601 137.63C460.474 137.904 460.362 138.183 460.265 138.468C460.118 138.805 459.995 139.152 459.897 139.506C459.818 139.735 459.761 139.97 459.729 140.21C459.729 140.545 459.729 140.88 459.729 141.249C459.645 141.533 459.544 141.813 459.428 142.086C459.204 143.091 458.803 143.694 458.222 143.895C457.949 143.995 457.651 144.003 457.373 143.918C457.095 143.834 456.852 143.661 456.681 143.426ZM460.735 128.283C460.472 128.094 460.264 127.84 460.131 127.546C459.997 127.31 459.917 127.047 459.897 126.776C459.897 126.575 459.897 126.407 459.897 126.374C460.178 126.049 460.394 125.674 460.533 125.268C460.719 124.841 460.931 124.427 461.17 124.028L461.371 123.727C461.433 123.601 461.541 123.505 461.673 123.458C461.864 123.359 462.077 123.307 462.292 123.307C462.508 123.307 462.721 123.359 462.912 123.458C463.411 123.639 463.836 123.981 464.118 124.43C464.351 124.872 464.422 125.382 464.319 125.871C464.176 126.461 463.901 127.01 463.515 127.479C463.164 127.956 462.653 128.289 462.075 128.417C461.856 128.498 461.621 128.527 461.389 128.504C461.157 128.481 460.933 128.405 460.735 128.283Z" fill="#B8C318"/>
<path d="M468.406 143.796C468.153 143.857 467.889 143.857 467.636 143.796L466.932 143.26C466.464 142.779 466.079 142.225 465.793 141.618C465.522 141.165 465.404 140.636 465.458 140.11C465.517 139.823 465.517 139.527 465.458 139.239C465.458 139.239 465.458 139.038 465.458 139.005C465.458 138.971 465.458 139.005 465.458 138.804C465.458 138.603 465.458 138.804 465.458 138.402C465.457 137.956 465.536 137.513 465.693 137.095C465.926 136.429 466.23 135.788 466.597 135.185C466.793 134.832 467.017 134.497 467.267 134.18C467.569 133.778 467.904 133.343 468.272 132.941C468.582 132.581 468.918 132.245 469.278 131.936C469.818 131.459 470.402 131.033 471.02 130.662C471.527 130.344 472.081 130.107 472.661 129.959C473.23 129.91 473.802 129.91 474.37 129.959C474.644 129.952 474.917 130.002 475.171 130.105C475.424 130.209 475.654 130.365 475.844 130.562C476.353 130.744 476.78 131.1 477.05 131.567C477.314 132.09 477.473 132.659 477.519 133.242C477.591 134.174 477.523 135.111 477.318 136.023C476.953 137.398 476.315 138.685 475.442 139.809C474.93 140.595 474.309 141.305 473.6 141.919C472.974 142.434 472.314 142.904 471.623 143.327C471.102 143.651 470.52 143.868 469.914 143.963L468.406 143.796ZM472.259 139.206C472.766 138.778 473.167 138.239 473.432 137.631C473.7 137.028 473.935 136.358 474.203 135.588C474.34 135.353 474.42 135.088 474.437 134.817C474.471 134.471 474.471 134.124 474.437 133.778C474.437 133.443 474.437 133.242 474.169 133.209C474.068 133.146 473.952 133.113 473.834 133.113C473.716 133.113 473.6 133.146 473.499 133.209C473.196 133.354 472.905 133.522 472.628 133.711C471.861 134.362 471.165 135.092 470.551 135.889C469.874 136.763 469.415 137.785 469.211 138.871C469.089 139.359 469.161 139.875 469.412 140.311C469.53 140.465 469.696 140.576 469.885 140.624C470.073 140.673 470.272 140.657 470.45 140.58C471.146 140.259 471.764 139.79 472.259 139.206Z" fill="#B8C318"/>
<path d="M494.338 143.156C493.859 143.133 493.39 143.008 492.964 142.788C492.533 142.532 492.211 142.127 492.059 141.649C492.006 141.226 492.006 140.799 492.059 140.376V139.103C492.09 138.746 492.09 138.387 492.059 138.031V137.327C492.059 136.925 492.06 136.69 491.792 136.623C491.524 136.556 491.423 136.623 491.088 136.623C490.498 136.923 489.928 137.259 489.379 137.629C488.743 138.064 488.106 138.533 487.436 139.069L485.392 140.778C484.948 141.242 484.534 141.735 484.153 142.252C483.885 142.654 483.617 142.821 483.349 142.821C483.252 142.877 483.142 142.907 483.031 142.907C482.919 142.907 482.809 142.877 482.712 142.821L482.009 142.286C481.774 142.048 481.561 141.79 481.372 141.515L480.937 140.912C480.899 140.544 480.899 140.174 480.937 139.806C481.011 139.453 481.111 139.106 481.238 138.768L481.741 137.562L482.042 137.025C482.121 136.804 482.223 136.591 482.344 136.389C482.465 135.979 482.611 135.576 482.779 135.183C482.98 134.747 483.148 134.312 483.315 133.91C483.574 133.355 483.798 132.784 483.985 132.201C484.135 131.694 484.258 131.18 484.354 130.66V130.459C484.354 130.459 484.354 130.459 484.588 130.258C484.748 130.191 484.918 130.157 485.091 130.157C485.263 130.157 485.434 130.191 485.593 130.258C485.99 130.316 486.369 130.465 486.699 130.693C486.954 130.912 487.155 131.185 487.289 131.493C487.422 131.8 487.484 132.134 487.47 132.469C487.32 133.505 486.93 134.492 486.331 135.35C486.13 135.752 485.962 136.121 485.761 136.456C485.63 136.672 485.539 136.911 485.493 137.16L486.498 136.389L487.235 135.853L488.073 135.183C488.475 134.814 488.944 134.479 489.446 134.077L490.652 133.24C490.992 132.998 491.35 132.786 491.724 132.603C491.969 132.465 492.227 132.353 492.495 132.268C492.823 132.291 493.142 132.383 493.433 132.536C493.785 132.721 494.121 132.934 494.438 133.173C494.695 133.329 494.894 133.564 495.008 133.843C495.008 133.843 495.008 134.077 495.008 134.211C494.993 134.356 494.993 134.502 495.008 134.647C495.008 135.049 495.008 135.551 495.008 136.121C495.008 136.69 495.008 137.26 495.008 137.796C495.009 138.314 494.953 138.831 494.84 139.337C494.866 139.413 494.866 139.496 494.84 139.572V139.806L495.041 140.309C495.096 140.518 495.174 140.721 495.276 140.912C495.276 141.113 495.477 141.381 495.611 141.716C495.556 142.094 495.365 142.44 495.075 142.688C494.863 142.892 494.612 143.051 494.338 143.156Z" fill="#B8C318"/>
</svg>
