<svg width="586" height="182" viewBox="0 0 586 182" fill="none" xmlns="http://www.w3.org/2000/svg">
<path d="M495.475 0H90.5249C40.5294 0 0 40.5294 0 90.5249C0 140.52 40.5294 181.05 90.5249 181.05H495.475C545.471 181.05 586 140.52 586 90.5249C586 40.5294 545.471 0 495.475 0Z" fill="white"/>
<path d="M495.475 0H90.5249C40.5294 0 0 40.5294 0 90.5249C0 140.52 40.5294 181.05 90.5249 181.05H495.475C545.471 181.05 586 140.52 586 90.5249C586 40.5294 545.471 0 495.475 0Z" fill="#F9F8F3"/>
<path d="M180.514 88.7812C180.136 89.4718 179.609 90.0691 178.97 90.5287C178.331 90.9883 177.597 91.2988 176.822 91.437C176.047 91.5753 175.251 91.5377 174.493 91.3274C173.734 91.1171 173.032 90.7395 172.439 90.222C164.935 85.096 157.33 72.2979 154.884 60.0693C153.941 63.9488 152.547 67.7043 150.73 71.2592C154.227 74.0666 157.386 77.2708 160.144 80.8074C160.599 81.3059 160.934 81.9029 161.121 82.5517C161.309 83.2005 161.343 83.8837 161.224 84.5483C161.104 85.2129 160.832 85.8409 160.43 86.3834C160.027 86.9258 159.505 87.368 158.904 87.6757C158.385 88.131 157.76 88.4494 157.086 88.6024C156.412 88.7554 155.711 88.738 155.046 88.5517C154.381 88.3655 153.772 88.0164 153.276 87.5358C152.78 87.0553 152.411 86.4583 152.204 85.7993C150.871 82.5094 149.349 79.299 147.647 76.184C142.749 83.1895 135.847 88.5499 127.847 91.5618C127.56 91.7423 127.236 91.8567 126.9 91.8963C126.563 91.9358 126.221 91.8995 125.9 91.7904C125.579 91.6812 125.287 91.5019 125.044 91.2652C124.801 91.0286 124.614 90.7408 124.497 90.4228C124.187 89.8449 124.119 89.1681 124.308 88.5403C124.496 87.9124 124.925 87.3846 125.502 87.0725C130.902 83.6126 135.492 79.0294 138.961 73.6353C142.43 68.2412 144.696 62.163 145.603 55.8144H128.551C126.674 55.8144 125.602 54.6083 125.602 52.4641C125.602 50.3199 126.674 49.1138 128.551 49.1138H146.173C146.408 43.9878 146.475 40.7379 146.475 37.6892C146.475 34.6404 148.485 32.8649 151.735 32.8649C152.402 32.7643 153.083 32.8175 153.726 33.0208C154.37 33.224 154.958 33.5714 155.446 34.037C155.934 34.5027 156.31 35.0739 156.543 35.7069C156.777 36.3399 156.862 37.018 156.794 37.6892C156.85 41.5031 156.693 45.3173 156.324 49.1138H176.426C178.302 49.1138 179.341 50.2864 179.341 52.4641C179.341 54.6418 178.302 55.8144 176.426 55.8144H158.435C161.924 66.2248 168.955 75.0812 178.302 80.841C179.016 81.1679 179.649 81.6467 180.159 82.2437C180.668 82.8408 181.041 83.5416 181.252 84.2976C181.462 85.0536 181.505 85.8466 181.378 86.621C181.25 87.3953 180.955 88.1325 180.514 88.7812Z" fill="#594A39"/>
<path d="M227.284 63.1532C226.976 63.9084 226.606 64.6368 226.178 65.331H243.968C244.524 65.2732 245.085 65.3435 245.609 65.5367C246.133 65.7299 246.605 66.0409 246.99 66.4454C247.375 66.8499 247.663 67.337 247.83 67.8699C247.997 68.4027 248.04 68.9669 247.955 69.5188C247.854 74.9188 247.462 80.3092 246.782 85.6671C245.844 92.3677 239.177 93.4735 231.371 89.6877C231.034 89.5931 230.723 89.4244 230.46 89.194C230.197 88.9637 229.989 88.6776 229.851 88.3565C229.713 88.0353 229.648 87.6871 229.662 87.3377C229.676 86.9884 229.768 86.6467 229.93 86.3374C230.433 85.0978 231.17 84.7291 232.745 84.9636C237.736 85.7677 238.407 85.2653 238.675 83.4562C239.11 80.3404 239.479 75.047 239.646 71.3617C239.646 70.9596 239.479 70.7248 239.177 70.6578C237.713 75.4636 235.09 79.8356 231.537 83.3879C227.985 86.9402 223.613 89.564 218.807 91.0279C217.166 91.5974 215.993 91.0276 215.457 89.8885C215.291 89.5922 215.191 89.2636 215.164 88.9249C215.138 88.5863 215.185 88.2457 215.303 87.9271C215.421 87.6084 215.606 87.319 215.847 87.0793C216.088 86.8395 216.378 86.6549 216.697 86.5382C223.604 83.4051 228.997 77.6748 231.706 70.5908H230.567C227.367 76.9555 221.978 81.9521 215.39 84.6622C213.849 85.2653 212.777 84.9635 212.04 83.5899C211.886 83.3111 211.794 83.0019 211.773 82.684C211.751 82.3662 211.8 82.0475 211.915 81.7504C212.03 81.4532 212.209 81.1848 212.439 80.9643C212.669 80.7438 212.944 80.5767 213.246 80.4744C217.479 78.1416 220.964 74.6566 223.297 70.4235H222.191C220.17 72.5055 217.8 74.2177 215.189 75.4825L214.821 75.6833C213.654 77.4398 211.867 78.6917 209.817 79.1886C207.768 79.6854 205.606 79.3908 203.765 78.3637V87.9119C203.765 90.2236 202.257 91.5972 199.443 91.5972C196.628 91.5972 195.154 90.2236 195.154 87.9119V37.8923C195.154 35.5135 196.628 34.2066 199.443 34.2066C200.195 34.1148 200.958 34.2357 201.644 34.5555C202.331 34.8752 202.915 35.3813 203.329 36.0159H207.751C208.486 35.289 209.422 34.8009 210.438 34.6156C211.455 34.4302 212.503 34.5561 213.447 34.9771C215.624 35.7812 216.797 37.8249 215.792 41.2757C214.231 46.0485 211.973 50.5644 209.091 54.6769C209.008 54.7393 208.941 54.8202 208.894 54.9132C208.848 55.0063 208.823 55.109 208.823 55.213C208.823 55.317 208.848 55.4198 208.894 55.5128C208.941 55.6058 209.008 55.6868 209.091 55.7492C212.651 59.3721 214.872 64.098 215.39 69.1504C216.949 67.2876 218.194 65.1828 219.075 62.9189H216.127C215.772 62.9566 215.412 62.9139 215.076 62.7937C214.739 62.6735 214.434 62.4787 214.183 62.2244C213.932 61.9701 213.742 61.6627 213.626 61.3247C213.51 60.9867 213.472 60.6268 213.514 60.272C213.477 59.9198 213.519 59.5637 213.638 59.2299C213.756 58.8961 213.947 58.5929 214.198 58.3425C214.448 58.0921 214.751 57.9009 215.085 57.7826C215.419 57.6643 215.775 57.6218 216.127 57.6587H246.816C247.168 57.6218 247.524 57.6643 247.858 57.7826C248.192 57.9009 248.495 58.0921 248.745 58.3425C248.996 58.5929 249.187 58.8961 249.305 59.2299C249.423 59.5637 249.466 59.9198 249.429 60.272C249.471 60.6268 249.433 60.9867 249.317 61.3247C249.201 61.6627 249.011 61.9701 248.76 62.2244C248.509 62.4787 248.204 62.6735 247.867 62.7937C247.531 62.9139 247.171 62.9566 246.816 62.9189L227.284 63.1532ZM208.455 70.457C208.363 66.2561 207.381 62.1225 205.574 58.329C205.119 57.5893 204.832 56.7586 204.734 55.896C204.636 55.0334 204.728 54.1601 205.004 53.3371C206.179 49.6802 207.075 45.9392 207.684 42.1468C207.706 42.0424 207.703 41.9344 207.675 41.8315C207.647 41.7285 207.595 41.6337 207.523 41.555C207.451 41.4764 207.361 41.4161 207.261 41.3791C207.161 41.3422 207.053 41.3298 206.947 41.3428H203.597V73.7067H204.133C207.316 74.0752 208.455 73.8073 208.455 70.457ZM217.802 51.7286V39.232C217.738 38.6841 217.798 38.1288 217.979 37.6076C218.16 37.0864 218.457 36.613 218.847 36.2228C219.237 35.8327 219.71 35.5359 220.232 35.355C220.753 35.1741 221.308 35.1138 221.856 35.1783H240.651C241.199 35.1138 241.755 35.1741 242.276 35.355C242.797 35.5359 243.27 35.8327 243.661 36.2228C244.051 36.613 244.347 37.0864 244.528 37.6076C244.709 38.1288 244.77 38.6841 244.705 39.232V51.7286C244.77 52.2765 244.709 52.8322 244.528 53.3534C244.347 53.8746 244.051 54.3481 243.661 54.7382C243.27 55.1283 242.797 55.4247 242.276 55.6056C241.755 55.7865 241.199 55.8472 240.651 55.7827H221.856C221.308 55.8472 220.753 55.7865 220.232 55.6056C219.71 55.4247 219.237 55.1283 218.847 54.7382C218.457 54.3481 218.16 53.8746 217.979 53.3534C217.798 52.8322 217.738 52.2765 217.802 51.7286ZM226.547 41.0413V43.0179H235.961V41.0413C235.965 40.9418 235.95 40.8423 235.915 40.7489C235.88 40.6556 235.826 40.5703 235.757 40.4982C235.688 40.4262 235.606 40.3688 235.514 40.3297C235.422 40.2906 235.323 40.2707 235.224 40.2708H227.284C227.112 40.3103 226.961 40.4097 226.857 40.551C226.752 40.6923 226.702 40.8661 226.714 41.0413H226.547ZM235.961 49.9197V47.9096H226.714V49.9197C226.709 50.0178 226.725 50.1156 226.76 50.2072C226.796 50.2988 226.85 50.3819 226.919 50.4514C226.989 50.5208 227.072 50.5751 227.163 50.6105C227.255 50.6458 227.353 50.6615 227.451 50.6567H235.391C235.56 50.6244 235.711 50.5315 235.815 50.3957C235.92 50.26 235.972 50.0909 235.961 49.9197Z" fill="#594A39"/>
<path d="M290.37 49.4153C290.725 49.8823 290.963 50.4273 291.065 51.005C291.167 51.5827 291.13 52.1762 290.956 52.7366C290.782 53.2969 290.478 53.8077 290.067 54.2264C289.656 54.6452 289.151 54.9598 288.594 55.1442C286.182 56.2833 284.473 55.4124 283.435 52.4642L283.033 51.3248C277.833 53.5035 272.351 54.936 266.75 55.5797C266.183 55.7491 265.584 55.7817 265.001 55.675C264.419 55.5684 263.87 55.3257 263.399 54.9663C262.929 54.6068 262.55 54.1411 262.294 53.6073C262.038 53.0734 261.912 52.4864 261.926 51.8945C261.926 49.2813 262.998 47.6395 266.181 47.6395H266.516C267.828 44.1527 268.947 40.5962 269.866 36.9858C269.922 36.2904 270.145 35.6183 270.516 35.0269C270.886 34.4354 271.393 33.9419 271.994 33.5873C272.594 33.2326 273.272 33.0272 273.968 32.989C274.665 32.9507 275.361 33.0805 275.997 33.3673C278.979 34.1043 279.816 36.3491 278.443 39.2973C277.042 42.2037 275.323 44.9456 273.317 47.4723C276.064 47.2713 278.811 47.1034 281.425 46.7014C281.123 45.7633 280.721 44.8589 280.352 43.9208C280.206 43.667 280.112 43.3864 280.077 43.0955C280.041 42.8046 280.065 42.5096 280.146 42.228C280.228 41.9465 280.365 41.6839 280.55 41.4567C280.735 41.2295 280.964 41.042 281.224 40.9054C281.731 40.613 282.326 40.51 282.902 40.6142C283.479 40.7185 284 41.0234 284.373 41.4751C286.794 43.7748 288.82 46.4574 290.37 49.4153ZM288.963 60.7728V84.4257C288.963 90.5568 283.736 92.5002 276.801 90.1215C275.193 89.5519 274.489 88.4798 274.791 87.1732C274.845 86.8933 274.957 86.6274 275.119 86.3925C275.281 86.1576 275.489 85.9585 275.731 85.8076C275.973 85.6568 276.243 85.5574 276.526 85.5156C276.808 85.4739 277.095 85.4908 277.371 85.5651C279.917 85.5651 280.252 85.2301 280.252 83.0524V78.7304H273.551V87.7094C273.551 90.2221 271.977 91.5283 269.096 91.5283C266.214 91.5283 264.673 90.2221 264.673 87.7094V60.907C264.609 60.3591 264.669 59.8034 264.85 59.2821C265.031 58.7609 265.328 58.2875 265.718 57.8974C266.108 57.5073 266.581 57.2109 267.102 57.0299C267.624 56.849 268.179 56.7883 268.727 56.8529H285.076C285.607 56.8024 286.142 56.8685 286.644 57.0467C287.146 57.2249 287.603 57.5108 287.983 57.8843C288.363 58.2578 288.656 58.71 288.843 59.2089C289.03 59.7079 289.105 60.2417 289.063 60.7728H288.963ZM273.384 62.448V65.3963H280.084V62.448C280.085 62.3483 280.064 62.2497 280.025 62.158C279.986 62.0664 279.929 61.9836 279.857 61.9147C279.785 61.8458 279.7 61.7922 279.606 61.7572C279.513 61.7222 279.413 61.7065 279.314 61.711H273.953C273.828 61.7844 273.729 61.8944 273.669 62.0263C273.609 62.1583 273.592 62.3056 273.618 62.448H273.384ZM280.084 73.8726V70.1203H273.384V73.8726H280.084ZM291.677 52.33V37.2202C291.677 34.741 293.251 33.4343 296.132 33.4343C299.014 33.4343 300.555 34.741 300.555 37.2202V42.2121C302.788 40.7929 304.915 39.214 306.92 37.4881C307.299 36.9947 307.786 36.5951 308.344 36.32C308.901 36.045 309.515 35.9021 310.137 35.9021C310.759 35.9021 311.372 36.045 311.93 36.32C312.487 36.5951 312.974 36.9947 313.353 37.4881C315.162 39.7663 314.793 42.0113 311.845 43.7535C308.32 45.7222 304.511 47.1348 300.555 47.9414V50.0517C300.555 52.1288 301.057 52.6316 303.001 52.7321C305.12 52.866 307.246 52.866 309.366 52.7321C311.276 52.7321 311.845 51.8608 311.845 48.3765C311.845 46.8689 312.683 46.1992 313.788 46.1992C314.076 46.1715 314.367 46.2034 314.642 46.2928C314.918 46.3822 315.171 46.5269 315.388 46.7185C315.605 46.9102 315.78 47.1447 315.903 47.4068C316.025 47.669 316.092 47.9535 316.1 48.2428C317.675 56.049 316.67 60.4378 310.84 60.7393C307.49 60.7393 303.737 60.7393 300.186 60.7393C293.72 60.4043 291.944 59.3992 291.944 52.33H291.677ZM311.979 90.6908C308.629 90.6908 304.039 90.6908 300.488 90.6908C293.787 90.2887 291.677 89.3175 291.677 82.2483V66.2674C291.677 63.7547 293.251 62.448 296.132 62.448C299.014 62.448 300.555 63.7547 300.555 66.2674V70.3211C303.034 68.7328 305.376 66.9398 307.557 64.9607C307.926 64.4748 308.402 64.0807 308.948 63.8095C309.495 63.5382 310.096 63.3972 310.706 63.3972C311.316 63.3972 311.918 63.5382 312.464 63.8095C313.01 64.0807 313.487 64.4748 313.855 64.9607C314.325 65.3951 314.677 65.9414 314.879 66.5488C315.08 67.1561 315.125 67.8046 315.008 68.4337C314.89 69.0628 314.616 69.6519 314.209 70.1461C313.803 70.6402 313.277 71.0231 312.683 71.2593C308.914 73.4768 304.822 75.0929 300.555 76.05V79.4003C300.555 81.444 301.057 81.9467 303.001 82.0807C305.467 82.2147 307.938 82.2147 310.405 82.0807C312.415 82.0807 312.85 81.0758 312.85 76.8209C312.85 75.2798 313.654 74.576 314.928 74.576C316.201 74.576 317.038 75.2794 317.34 76.8876C319.417 85.7323 318.177 90.3557 312.247 90.6908H311.979Z" fill="#594A39"/>
<path d="M355.164 84.7967C353.556 93.2394 345.113 93.943 337.24 88.147C336.786 87.8565 336.458 87.4052 336.321 86.8837C336.185 86.3621 336.25 85.8083 336.503 85.3325C336.591 85.0714 336.733 84.8317 336.919 84.6286C337.105 84.4255 337.331 84.2638 337.584 84.1534C337.836 84.043 338.109 83.9866 338.384 83.9878C338.66 83.9889 338.932 84.0474 339.183 84.1599C345.314 85.7011 346.42 85.3997 346.989 82.6525C347.359 80.6716 347.594 78.6679 347.693 76.6553C347.693 76.0858 347.492 75.8513 346.989 75.8513H342.936C342.83 76.3398 342.626 76.8021 342.337 77.2103C342.049 77.6184 341.681 77.9639 341.256 78.2266C340.83 78.4893 340.356 78.6636 339.862 78.739C339.368 78.8144 338.864 78.7894 338.379 78.6654C337.829 78.6966 337.279 78.5914 336.778 78.3591C336.278 78.1268 335.843 77.7746 335.512 77.3338C335.18 76.893 334.963 76.3775 334.879 75.8325C334.794 75.2874 334.846 74.73 335.029 74.2097C335.732 70.8594 336.268 67.5091 336.671 64.1588C336.905 61.8471 338.58 60.8085 341.093 60.8085C342.014 60.8711 342.898 61.1968 343.639 61.7467H347.324C347.424 61.7512 347.524 61.7355 347.617 61.7004C347.71 61.6654 347.795 61.6119 347.867 61.543C347.939 61.4741 347.997 61.3909 348.036 61.2992C348.075 61.2076 348.095 61.109 348.095 61.0093V56.8214C348.095 56.7217 348.075 56.6231 348.036 56.5315C347.997 56.4398 347.939 56.357 347.867 56.2881C347.795 56.2192 347.71 56.1657 347.617 56.1307C347.524 56.0957 347.424 56.0799 347.324 56.0845H346.755C342.655 59.1082 338.049 61.3772 333.153 62.785C332.86 62.9188 332.543 62.989 332.221 62.9912C331.899 62.9933 331.581 62.9275 331.286 62.7977C330.992 62.668 330.729 62.4772 330.513 62.2382C330.298 61.9993 330.136 61.7175 330.037 61.4113C329.893 61.0948 329.818 60.7513 329.817 60.4036C329.817 60.0559 329.89 59.7121 330.033 59.3951C330.176 59.078 330.384 58.7953 330.645 58.5653C330.906 58.3352 331.212 58.1632 331.544 58.061C335.305 56.2483 338.79 53.9137 341.897 51.1261C340.155 49.0154 338.279 47.0052 336.603 45.2631C336.378 45.0767 336.193 44.8463 336.06 44.5858C335.927 44.3254 335.849 44.0405 335.83 43.7486C335.811 43.4568 335.852 43.164 335.951 42.8886C336.049 42.6132 336.203 42.3609 336.402 42.1471C336.75 41.6889 337.259 41.3814 337.827 41.2879C338.394 41.1944 338.975 41.3223 339.451 41.6449C341.944 42.8139 344.275 44.3001 346.386 46.0671C347.513 44.613 348.458 43.0265 349.201 41.3431C349.469 40.8405 349.201 40.472 348.631 40.472H336.972C336.611 40.5086 336.246 40.4645 335.905 40.3427C335.563 40.221 335.252 40.0247 334.996 39.7681C334.739 39.5115 334.543 39.2012 334.421 38.8594C334.299 38.5175 334.255 38.153 334.292 37.792C334.25 37.4283 334.29 37.06 334.409 36.7139C334.528 36.3679 334.724 36.053 334.981 35.7925C335.238 35.5321 335.551 35.3325 335.896 35.2089C336.24 35.0853 336.608 35.0405 336.972 35.078H349.904C350.85 34.2805 352.023 33.8023 353.257 33.7121C354.49 33.6218 355.721 33.924 356.772 34.5754C357.929 35.3466 358.733 36.5442 359.009 37.9065C359.285 39.2687 359.011 40.685 358.246 41.8457C356.514 45.4435 354.256 48.7635 351.546 51.6958H352.048C352.589 51.6208 353.141 51.6703 353.66 51.841C354.179 52.0116 354.652 52.2987 355.043 52.6802C355.434 53.0616 355.733 53.5271 355.916 54.0416C356.1 54.5562 356.164 55.106 356.102 55.6489V62.8856C356.167 63.4336 356.106 63.9889 355.925 64.5101C355.744 65.0313 355.448 65.5047 355.058 65.8949C354.668 66.285 354.194 66.5818 353.673 66.7627C353.152 66.9436 352.596 67.0039 352.048 66.9394H344.376C344.376 68.045 344.041 69.2511 343.874 70.2897H352.216C352.78 70.2128 353.354 70.273 353.891 70.4647C354.427 70.6564 354.909 70.9743 355.297 71.3914C355.684 71.8086 355.966 72.3125 356.118 72.8613C356.27 73.4101 356.287 73.9875 356.169 74.5446C356.04 77.979 355.705 81.4027 355.164 84.7967ZM386.255 57.4582C385.981 58.0621 385.58 58.5994 385.079 59.0335C384.578 59.4677 383.989 59.7883 383.352 59.973C382.715 60.1576 382.046 60.2021 381.391 60.1034C380.735 60.0047 380.108 59.7651 379.554 59.4012L376.707 57.659V58.7649C376.707 60.641 376.706 61.3446 378.08 61.3446C379.017 61.3242 379.944 61.1545 380.827 60.842C381.137 60.7293 381.467 60.6839 381.795 60.7091C382.124 60.7343 382.443 60.8294 382.732 60.988C383.02 61.1466 383.272 61.3652 383.469 61.6289C383.667 61.8926 383.805 62.1955 383.876 62.5172C384.044 62.8496 384.138 63.2144 384.152 63.5866C384.166 63.9588 384.098 64.3295 383.955 64.6733C383.812 65.0171 383.596 65.3259 383.322 65.5783C383.048 65.8307 382.723 66.0206 382.369 66.1353C380.374 66.8594 378.256 67.1784 376.137 67.0735C370.341 67.0735 369.436 65.1302 369.436 60.6408V57.5919C369.436 57.3876 369.355 57.1917 369.211 57.0472C369.066 56.9027 368.87 56.8214 368.666 56.8214H366.924C366.818 56.8117 366.712 56.8246 366.613 56.8595C366.513 56.8943 366.422 56.9504 366.346 57.0234C366.269 57.0965 366.21 57.185 366.171 57.2831C366.132 57.3813 366.114 57.4864 366.12 57.5919C366.177 59.6696 365.687 61.726 364.699 63.5547C363.711 65.3834 362.26 66.9204 360.491 68.0117H376.874C377.529 67.9866 378.18 68.1367 378.758 68.4468C379.336 68.7569 379.82 69.2156 380.162 69.7756C380.503 70.3356 380.689 70.9765 380.7 71.6323C380.711 72.2881 380.547 72.9347 380.224 73.5058C379.032 76.3302 377.392 78.9438 375.366 81.2452C377.369 82.0348 379.416 82.706 381.497 83.2553C382.081 83.3715 382.63 83.6213 383.101 83.9853C383.572 84.3493 383.952 84.8174 384.212 85.3529C384.471 85.8885 384.603 86.4771 384.597 87.0722C384.592 87.6674 384.448 88.2531 384.178 88.7834C384.026 89.3486 383.753 89.8739 383.378 90.3227C383.002 90.7715 382.534 91.1331 382.004 91.382C381.474 91.6308 380.897 91.761 380.312 91.7635C379.727 91.7661 379.148 91.6409 378.616 91.3967C375.277 90.4213 372.175 88.7673 369.503 86.5385C365.879 89.0959 361.759 90.8651 357.409 91.7316C355.7 92.0332 354.829 91.4638 354.461 90.2242C354.092 88.9846 354.461 87.9792 356.102 87.4096C359.384 86.1293 362.422 84.2933 365.081 81.9822C363.042 79.4294 361.517 76.5055 360.592 73.3721H359.888C359.525 73.4034 359.16 73.3543 358.818 73.2285C358.477 73.1027 358.167 72.9032 357.911 72.6441C357.655 72.3851 357.46 72.0729 357.338 71.7297C357.217 71.3864 357.172 71.0205 357.208 70.6581C357.197 70.2796 357.265 69.9032 357.409 69.5527C357.013 69.6742 356.588 69.6613 356.2 69.5159C355.812 69.3704 355.483 69.1006 355.265 68.7487C355.108 68.5235 354.999 68.2693 354.943 68.0011C354.887 67.7328 354.886 67.456 354.939 67.1872C354.992 66.9184 355.099 66.6631 355.252 66.4363C355.406 66.2096 355.604 66.0162 355.834 65.8675C357.01 64.5016 357.867 62.8906 358.342 61.152C358.817 59.4134 358.899 57.5908 358.581 55.8166C358.496 55.2646 358.539 54.7004 358.706 54.1676C358.874 53.6348 359.161 53.1472 359.546 52.7427C359.931 52.3383 360.403 52.0276 360.927 51.8344C361.451 51.6412 362.013 51.571 362.568 51.6287H369.001C364.533 47.1858 361.211 41.7248 359.319 35.7148C359.215 35.4451 359.171 35.1564 359.19 34.8682C359.208 34.5801 359.289 34.2993 359.425 34.045C359.562 33.7907 359.752 33.5687 359.982 33.3943C360.212 33.2199 360.477 33.0972 360.759 33.0344C361.306 32.824 361.914 32.8359 362.452 33.0675C362.99 33.2992 363.417 33.7321 363.64 34.274C364.511 35.8151 365.316 37.1888 366.254 38.5289C366.89 37.6244 367.56 36.5858 368.465 35.1786C368.709 34.7395 369.049 34.3608 369.459 34.0707C369.87 33.7807 370.34 33.5867 370.835 33.5031C371.331 33.4194 371.839 33.4485 372.321 33.5877C372.804 33.727 373.249 33.9729 373.624 34.3075C374.124 34.5633 374.543 34.9522 374.836 35.431C375.129 35.9098 375.284 36.4602 375.284 37.0215C375.284 37.5827 375.129 38.1327 374.836 38.6116C374.543 39.0904 374.124 39.4792 373.624 39.735C372.303 40.8001 370.903 41.7632 369.436 42.6162C370.407 43.636 371.436 44.598 372.519 45.4974C373.878 44.0102 375.09 42.3947 376.137 40.6732C376.397 40.2375 376.753 39.8667 377.177 39.5886C377.602 39.3105 378.084 39.1325 378.587 39.068C379.091 39.0034 379.602 39.054 380.083 39.216C380.564 39.378 381.002 39.6469 381.363 40.0029C383.441 41.611 383.441 43.7218 381.129 45.4974C379.729 46.5346 378.237 47.4431 376.673 48.2113C378.684 49.3129 380.779 50.2538 382.938 51.0255C386.255 52.1646 387.528 54.4764 386.255 57.4582ZM370.844 73.2715H364.612C365.741 75.0663 367.195 76.6344 368.9 77.8949C369.816 76.7564 370.655 75.5591 371.413 74.3103C371.782 73.7072 371.547 73.2715 370.776 73.2715H370.844Z" fill="#594A39"/>
<path d="M405.287 56.5867C402.406 56.5867 400.798 55.2801 400.798 52.3988V46.7031C400.733 46.1552 400.793 45.5999 400.974 45.0787C401.155 44.5575 401.452 44.084 401.842 43.6939C402.232 43.3038 402.706 43.0074 403.227 42.8265C403.748 42.6456 404.303 42.5849 404.851 42.6494H422.139V40.2373H407.297C406.957 40.281 406.611 40.2462 406.286 40.1354C405.961 40.0246 405.666 39.8407 405.423 39.598C405.181 39.3554 404.997 39.0603 404.886 38.7355C404.775 38.4107 404.741 38.0649 404.784 37.7245C404.746 37.3868 404.785 37.0447 404.898 36.7242C405.012 36.4037 405.196 36.1131 405.438 35.8744C405.68 35.6356 405.973 35.4549 406.295 35.346C406.617 35.237 406.96 35.2026 407.297 35.2454H447.065C447.4 35.2081 447.739 35.2464 448.056 35.3578C448.374 35.4693 448.662 35.651 448.901 35.8891C449.139 36.1272 449.32 36.4155 449.432 36.7332C449.543 37.0509 449.582 37.3899 449.544 37.7245C449.587 38.0618 449.553 38.4041 449.444 38.7261C449.335 39.0481 449.154 39.3413 448.915 39.5833C448.677 39.8253 448.386 40.0099 448.065 40.1232C447.745 40.2364 447.403 40.2755 447.065 40.2373H432.257V42.6494H449.544C450.092 42.5849 450.648 42.6456 451.169 42.8265C451.69 43.0074 452.163 43.3038 452.554 43.6939C452.944 44.084 453.24 44.5575 453.421 45.0787C453.602 45.5999 453.663 46.1552 453.598 46.7031V52.3988C453.598 55.2801 451.99 56.5867 449.109 56.5867C446.227 56.5867 444.619 55.2801 444.619 52.3988V48.1439C444.624 48.0458 444.608 47.948 444.573 47.8564C444.538 47.7648 444.484 47.6817 444.414 47.6122C444.345 47.5428 444.262 47.4885 444.17 47.4532C444.078 47.4178 443.98 47.4022 443.882 47.4069H431.62V56.8211C431.62 59.3338 430.079 60.6404 427.198 60.6404C424.317 60.6404 422.775 59.3338 422.775 56.8211V47.4069H410.513C410.415 47.4022 410.317 47.4178 410.226 47.4532C410.134 47.4885 410.051 47.5428 409.981 47.6122C409.912 47.6817 409.858 47.7648 409.823 47.8564C409.787 47.948 409.772 48.0458 409.776 48.1439V52.3988C409.776 55.2801 408.168 56.5867 405.287 56.5867ZM448.439 90.0897C442.615 90.4583 436.774 90.4583 430.95 90.0897C424.25 89.6541 422.139 88.3477 422.139 81.4461V80.4743H409.776C409.225 80.5399 408.666 80.4788 408.142 80.296C407.618 80.1133 407.143 79.8136 406.752 79.4196C406.361 79.0256 406.065 78.5476 405.887 78.0221C405.709 77.4967 405.652 76.9376 405.722 76.3871V65.4651C405.658 64.9172 405.718 64.3614 405.899 63.8402C406.08 63.319 406.377 62.8456 406.767 62.4555C407.157 62.0653 407.63 61.7689 408.152 61.588C408.673 61.4071 409.228 61.3464 409.776 61.4109H444.05C444.598 61.3464 445.153 61.4071 445.674 61.588C446.196 61.7689 446.669 62.0653 447.059 62.4555C447.449 62.8456 447.746 63.319 447.927 63.8402C448.108 64.3614 448.168 64.9172 448.104 65.4651V76.3871C448.174 76.9376 448.117 77.4967 447.939 78.0221C447.76 78.5476 447.465 79.0256 447.074 79.4196C446.683 79.8136 446.208 80.1133 445.684 80.296C445.16 80.4788 444.601 80.5399 444.05 80.4743H431.888C431.888 82.2165 432.558 82.7189 434.568 82.8194C438.898 83.0679 443.238 83.0679 447.568 82.8194C449.176 82.8194 449.678 81.1443 449.745 77.057C449.745 75.4488 450.616 74.6449 451.856 74.6449C453.096 74.6449 453.866 75.2478 454.235 77.057C456.178 86.1698 454.536 89.7547 448.439 90.1232V90.0897ZM421.971 57.1229C421.998 57.4008 421.962 57.6809 421.867 57.9433C421.771 58.2057 421.619 58.4435 421.42 58.6393C421.221 58.8352 420.98 58.9841 420.717 59.0753C420.453 59.1665 420.172 59.1977 419.894 59.1665H411.284C411.005 59.2043 410.721 59.1776 410.455 59.0888C410.188 59 409.945 58.8513 409.744 58.6541C409.544 58.4568 409.391 58.2161 409.298 57.9506C409.205 57.6852 409.173 57.4022 409.207 57.1229C409.175 56.8423 409.206 56.5581 409.299 56.2914C409.392 56.0248 409.544 55.7828 409.744 55.5831C409.944 55.3834 410.186 55.2312 410.453 55.1381C410.719 55.0451 411.003 55.0136 411.284 55.0457H419.894C420.176 55.0191 420.461 55.0557 420.728 55.1529C420.994 55.25 421.235 55.4051 421.434 55.6072C421.633 55.8093 421.785 56.0534 421.878 56.3213C421.97 56.5892 422.003 56.8746 421.971 57.1564V57.1229ZM421.971 51.3601C421.997 51.6393 421.961 51.9208 421.866 52.1845C421.771 52.4483 421.618 52.6881 421.42 52.8863C421.222 53.0846 420.982 53.2364 420.719 53.3317C420.455 53.427 420.173 53.463 419.894 53.4372H412.825C412.547 53.4639 412.267 53.4284 412.004 53.3329C411.742 53.2375 411.504 53.0846 411.308 52.8855C411.113 52.6865 410.964 52.4464 410.873 52.1825C410.781 51.9186 410.75 51.6375 410.781 51.3601C410.749 51.0839 410.78 50.8043 410.871 50.5417C410.962 50.2791 411.112 50.0406 411.309 49.844C411.505 49.6474 411.744 49.4977 412.006 49.4064C412.269 49.3151 412.549 49.2842 412.825 49.3164H419.894C420.175 49.2843 420.459 49.3162 420.726 49.4093C420.992 49.5023 421.234 49.6541 421.434 49.8538C421.634 50.0535 421.786 50.2955 421.879 50.5622C421.972 50.8288 422.004 51.113 421.971 51.3936V51.3601ZM414.333 68.6812H422.005V66.1014H415.07C414.969 66.0961 414.868 66.1128 414.774 66.1501C414.679 66.1874 414.594 66.2446 414.524 66.3178C414.455 66.3909 414.401 66.4781 414.368 66.5738C414.335 66.6695 414.323 66.7712 414.333 66.8719V68.6812ZM422.005 75.918V73.0368H414.333V75.1475C414.328 75.2471 414.344 75.3462 414.379 75.4395C414.414 75.5328 414.467 75.6182 414.536 75.6902C414.605 75.7622 414.688 75.8196 414.78 75.8587C414.871 75.8978 414.97 75.9181 415.07 75.918H422.005ZM438.488 66.1014H431.788V68.6812H439.259V66.8719C439.268 66.6907 439.207 66.5128 439.089 66.3755C438.97 66.2381 438.803 66.152 438.622 66.135L438.488 66.1014ZM439.225 73.0368H431.754V75.918H438.455C438.555 75.9181 438.653 75.8978 438.745 75.8587C438.836 75.8196 438.919 75.7622 438.988 75.6902C439.057 75.6182 439.111 75.5328 439.146 75.4395C439.181 75.3462 439.196 75.2471 439.192 75.1475L439.225 73.0368ZM432.525 51.3601C432.498 51.0821 432.534 50.802 432.629 50.5397C432.725 50.2773 432.877 50.0394 433.076 49.8436C433.275 49.6478 433.516 49.4988 433.78 49.4076C434.044 49.3165 434.324 49.2852 434.602 49.3164H441.638C441.916 49.2787 442.2 49.3053 442.467 49.3941C442.734 49.483 442.977 49.6316 443.177 49.8289C443.378 50.0262 443.53 50.2669 443.624 50.5323C443.717 50.7977 443.748 51.0807 443.715 51.3601C443.747 51.6406 443.715 51.9249 443.622 52.1915C443.529 52.4581 443.377 52.7002 443.177 52.8998C442.978 53.0995 442.735 53.2518 442.469 53.3448C442.202 53.4378 441.918 53.4693 441.638 53.4372H434.602C434.328 53.4572 434.054 53.4184 433.797 53.3227C433.54 53.2271 433.306 53.077 433.112 52.8831C432.919 52.6892 432.769 52.4559 432.673 52.1989C432.578 51.9419 432.538 51.6671 432.558 51.3936L432.525 51.3601ZM432.525 57.1229C432.499 56.8437 432.535 56.5621 432.63 56.2984C432.726 56.0347 432.878 55.7949 433.076 55.5966C433.274 55.3983 433.514 55.2465 433.778 55.1512C434.041 55.056 434.323 55.0199 434.602 55.0457H442.978C443.256 55.019 443.536 55.0545 443.798 55.15C444.061 55.2455 444.299 55.3984 444.494 55.5974C444.69 55.7964 444.839 56.0365 444.93 56.3004C445.021 56.5643 445.052 56.8454 445.021 57.1229C445.053 57.399 445.023 57.6786 444.932 57.9412C444.84 58.2038 444.691 58.4423 444.494 58.6389C444.298 58.8355 444.059 58.9852 443.796 59.0765C443.534 59.1679 443.254 59.1987 442.978 59.1665H434.602C434.33 59.1917 434.056 59.1571 433.799 59.0655C433.542 58.9739 433.308 58.8271 433.113 58.6357C432.919 58.4443 432.768 58.2127 432.672 57.9572C432.576 57.7016 432.538 57.4286 432.558 57.1564L432.525 57.1229Z" fill="#594A39"/>
<path d="M110.662 146.778L108.987 146.275C109.027 146.222 109.049 146.157 109.049 146.091C109.049 146.024 109.027 145.959 108.987 145.907C108.82 145.763 108.603 145.691 108.383 145.705C107.914 145.355 107.476 144.962 107.077 144.533C106.654 144.033 106.262 143.507 105.904 142.958C105.649 142.586 105.425 142.194 105.234 141.785C105.033 141.383 105.067 141.115 105.234 141.015L106.038 140.646C106.352 140.439 106.69 140.27 107.043 140.144C107.379 140.144 107.68 140.144 107.881 140.68C108.284 141.378 108.876 141.947 109.59 142.322C110.393 142.802 111.302 143.078 112.236 143.126C113.268 143.22 114.306 143.047 115.252 142.623C115.529 142.529 115.776 142.36 115.965 142.136C116.154 141.912 116.278 141.64 116.324 141.35C116.348 140.657 116.122 139.98 115.687 139.44C115.624 139.236 115.508 139.051 115.352 138.904L114.682 138.335C114.244 138.007 113.83 137.649 113.442 137.263L112.27 136.693L111.164 136.157C110.643 135.875 110.14 135.562 109.657 135.219C109.106 134.817 108.59 134.369 108.115 133.879C107.682 133.465 107.31 132.991 107.01 132.472C106.543 132.002 106.248 131.388 106.172 130.73C106.04 129.942 106.04 129.138 106.172 128.351C106.297 127.553 106.557 126.782 106.943 126.073C107.197 125.536 107.512 125.031 107.881 124.565C108.349 123.881 108.852 123.221 109.389 122.588C109.891 121.956 110.428 121.352 110.997 120.779C111.369 120.367 111.785 119.996 112.236 119.674L113.309 118.602C113.324 118.543 113.358 118.491 113.407 118.454C113.456 118.417 113.516 118.399 113.576 118.4C113.877 118.24 114.191 118.106 114.515 117.998C115.087 117.72 115.609 117.347 116.056 116.893C117.587 116.12 119.192 115.503 120.847 115.05C121.866 114.784 122.91 114.627 123.962 114.581C124.678 114.612 125.377 114.807 126.006 115.151C126.654 115.488 127.243 115.93 127.748 116.457C128.217 116.957 128.521 117.589 128.619 118.267C128.789 119.082 128.683 119.93 128.318 120.679C127.949 121.638 127.429 122.532 126.777 123.326C126.218 124.063 125.524 124.688 124.733 125.168C124.422 125.306 124.085 125.377 123.745 125.377C123.404 125.377 123.068 125.306 122.756 125.168C122.521 125.077 122.321 124.916 122.183 124.706C122.045 124.495 121.976 124.247 121.986 123.996C121.993 123.712 122.074 123.435 122.22 123.192C122.574 122.593 123.002 122.041 123.493 121.55C124.157 120.722 124.636 119.763 124.9 118.735C124.925 118.622 124.924 118.505 124.899 118.392C124.874 118.279 124.825 118.173 124.755 118.081C124.685 117.988 124.596 117.912 124.494 117.858C124.392 117.803 124.279 117.771 124.163 117.764C123.843 117.699 123.512 117.699 123.192 117.764L121.651 118.099C121.169 118.184 120.697 118.318 120.243 118.501C119.808 118.501 119.607 118.735 119.607 118.769C119.607 118.802 119.607 119.004 119.607 119.004C119.414 119.06 119.232 119.151 119.071 119.272L117.898 119.942L116.592 120.813L115.453 121.583C115.267 121.707 115.099 121.853 114.95 122.019C114.95 122.321 114.581 122.589 113.978 122.857C113.396 123.222 112.903 123.714 112.538 124.297C111.999 125.048 111.507 125.832 111.064 126.642C110.603 127.267 110.262 127.971 110.059 128.72C109.854 129.294 109.854 129.921 110.059 130.495C110.283 131.045 110.684 131.504 111.198 131.802L113.777 133.443C114.704 133.947 115.599 134.506 116.458 135.118C117.223 135.621 117.941 136.193 118.602 136.827C119.066 137.195 119.453 137.65 119.741 138.167C120.073 138.657 120.28 139.221 120.344 139.809C120.411 140.399 120.411 140.995 120.344 141.585C120.293 142.06 120.203 142.531 120.076 142.992C119.841 143.511 119.536 143.995 119.172 144.432C118.769 144.924 118.401 145.158 118.066 145.136L117.362 145.438L116.86 145.739C116.404 145.916 115.933 146.05 115.453 146.141C114.749 146.141 113.945 146.409 113.074 146.509C112.279 146.669 111.472 146.759 110.662 146.778Z" fill="#B8C318"/>
<path d="M129.022 143.761C128.719 143.778 128.417 143.708 128.151 143.56L127.38 142.957C126.865 142.424 126.435 141.813 126.107 141.148C125.811 140.642 125.682 140.056 125.739 139.472C125.799 139.151 125.799 138.822 125.739 138.501C125.739 138.501 125.538 138.266 125.739 138.233C125.75 138.155 125.75 138.076 125.739 137.998C125.906 137.998 125.973 137.998 125.906 137.529C125.888 137.035 125.98 136.543 126.174 136.089C126.415 135.35 126.742 134.642 127.146 133.978C127.146 133.71 127.581 133.308 127.917 132.872C128.252 132.437 128.62 131.934 129.022 131.465C129.424 130.996 129.793 130.661 130.128 130.36C130.747 129.837 131.408 129.366 132.104 128.952C132.661 128.598 133.272 128.338 133.913 128.182C134.541 128.049 135.181 127.981 135.823 127.981C136.129 127.967 136.434 128.02 136.718 128.135C137.001 128.251 137.256 128.427 137.465 128.651C138.033 128.86 138.508 129.263 138.805 129.79C139.1 130.364 139.282 130.99 139.341 131.633C139.404 132.668 139.314 133.706 139.073 134.715C138.676 136.243 137.982 137.677 137.029 138.936C136.45 139.801 135.763 140.589 134.986 141.282C134.284 141.86 133.533 142.375 132.741 142.823C132.182 143.213 131.54 143.465 130.865 143.56L129.022 143.761ZM133.31 138.635C133.881 138.155 134.329 137.546 134.617 136.859C134.885 136.223 135.187 135.486 135.488 134.615C135.624 134.355 135.704 134.07 135.723 133.777C135.757 133.387 135.757 132.994 135.723 132.604C135.723 132.236 135.723 132.035 135.455 131.968C135.353 131.873 135.228 131.808 135.092 131.778C134.957 131.749 134.816 131.756 134.684 131.8C134.345 131.963 134.02 132.154 133.712 132.37C132.859 133.09 132.084 133.898 131.401 134.782C130.641 135.764 130.124 136.912 129.893 138.132C129.791 138.669 129.874 139.224 130.128 139.707C130.264 139.878 130.452 140 130.664 140.054C130.875 140.108 131.099 140.093 131.3 140.009C132.063 139.704 132.749 139.235 133.31 138.635Z" fill="#B8C318"/>
<path d="M145.235 144.531C144.975 144.594 144.702 144.584 144.448 144.501C144.193 144.418 143.967 144.266 143.794 144.062C143.321 143.525 143.018 142.861 142.923 142.152C142.724 141.225 142.724 140.265 142.923 139.338C143.059 139.023 143.171 138.698 143.258 138.366C143.296 138.111 143.296 137.851 143.258 137.596C143.258 137.294 143.425 136.892 143.593 136.356C143.76 135.82 143.928 135.25 144.129 134.647C144.33 134.044 144.531 133.542 144.699 133.073L145.067 132.202C145.067 132.202 145.268 132.202 145.369 131.934C145.4 131.734 145.4 131.53 145.369 131.33C145.383 131.066 145.44 130.806 145.536 130.56C145.6 130.353 145.703 130.16 145.838 129.991C145.812 129.824 145.812 129.655 145.838 129.488C145.865 129.344 145.865 129.196 145.838 129.053C145.802 128.944 145.802 128.826 145.838 128.718C145.871 128.608 145.871 128.491 145.838 128.382C146.039 128.014 146.273 127.444 146.608 126.64C146.943 125.836 147.278 124.965 147.647 123.994C148.015 123.022 148.384 122.05 148.719 121.079L149.556 118.667C149.7 118.277 149.801 117.872 149.858 117.461C149.857 117.347 149.881 117.234 149.927 117.13C149.974 117.026 150.041 116.933 150.126 116.857C150.19 116.765 150.275 116.69 150.374 116.637C150.473 116.585 150.583 116.557 150.696 116.556C150.867 116.421 151.08 116.35 151.299 116.355H151.902L152.572 117.025C152.82 117.235 153.045 117.47 153.242 117.728C153.445 117.973 153.552 118.282 153.543 118.6C153.594 118.944 153.594 119.294 153.543 119.638C153.398 120.108 153.219 120.568 153.007 121.012C152.773 121.581 152.371 122.419 151.835 123.558L151.131 125.133C150.947 125.405 150.822 125.713 150.763 126.037C150.788 126.204 150.788 126.373 150.763 126.54C150.641 126.811 150.54 127.091 150.461 127.377C150.286 127.692 150.129 128.016 149.992 128.349L149.389 129.722L148.853 130.996L148.652 131.599C148.67 131.71 148.67 131.823 148.652 131.934C148.649 131.998 148.632 132.061 148.603 132.119C148.574 132.176 148.534 132.227 148.484 132.269C148.484 132.269 148.283 132.269 148.25 132.738C148.125 133.512 147.9 134.267 147.58 134.983C147.144 136.524 146.742 137.931 146.34 139.204C146.015 140.213 145.824 141.261 145.771 142.32C145.794 142.85 145.69 143.378 145.469 143.861C145.431 144.096 145.351 144.323 145.235 144.531Z" fill="#B8C318"/>
<path d="M154.049 143.158C153.852 142.887 153.601 142.659 153.312 142.488C152.943 142.287 152.742 142.12 152.742 141.986C152.713 141.805 152.644 141.634 152.541 141.483C152.456 141.289 152.344 141.108 152.206 140.947C152.206 140.947 152.206 140.377 152.206 139.707C152.206 139.037 152.776 138.233 153.211 137.295C153.647 136.357 154.149 135.385 154.685 134.414C154.951 134.146 155.176 133.841 155.355 133.509C155.502 133.261 155.67 133.025 155.858 132.806C155.831 132.696 155.831 132.581 155.858 132.471C155.957 132.445 156.06 132.445 156.159 132.471L156.494 131.801C156.657 131.565 156.836 131.341 157.03 131.131C157.361 130.737 157.719 130.367 158.103 130.025L159.376 128.852C159.707 128.561 160.066 128.303 160.448 128.082C160.968 127.691 161.607 127.49 162.257 127.512C162.854 127.534 163.429 127.745 163.899 128.115L164.435 128.618L165.473 129.455C165.842 129.757 166.177 130.025 166.445 130.293L167.986 131.667L167.282 133.777C166.93 134.718 166.826 135.733 166.981 136.726C167.126 137.491 167.397 138.227 167.785 138.903C167.908 139.185 168.105 139.428 168.354 139.607C168.638 139.789 168.958 139.903 169.292 139.942C169.522 139.982 169.74 140.073 169.929 140.21C170.031 140.288 170.112 140.39 170.165 140.507C170.217 140.624 170.24 140.752 170.231 140.88C170.27 141.388 170.14 141.894 169.862 142.32C169.674 142.582 169.402 142.771 169.091 142.857C168.198 142.962 167.292 142.859 166.445 142.555C165.411 142.063 164.599 141.203 164.167 140.143C164.004 139.838 163.859 139.525 163.731 139.205L163.429 138.3L162.994 138.836L162.458 139.406C161.015 141.013 159.288 142.342 157.365 143.326C156.84 143.567 156.264 143.678 155.687 143.649C155.109 143.62 154.547 143.451 154.049 143.158ZM157.399 139.372C157.991 139.019 158.551 138.615 159.074 138.166L161.453 136.156C162.127 135.551 162.723 134.864 163.228 134.112L164.167 132.605C164.008 132.128 163.745 131.693 163.396 131.331C163.31 131.239 163.207 131.164 163.092 131.113C162.977 131.061 162.852 131.033 162.726 131.03C162.233 131.109 161.782 131.358 161.453 131.733C160.823 132.35 160.252 133.023 159.744 133.744C159.108 134.615 158.404 135.721 157.6 137.094C157.156 137.943 156.787 138.828 156.494 139.741C156.781 139.693 157.048 139.565 157.265 139.372H157.399Z" fill="#B8C318"/>
<path d="M174.653 142.923C174.352 142.702 174.082 142.443 173.848 142.152C173.695 141.976 173.585 141.765 173.527 141.539C173.469 141.312 173.464 141.075 173.513 140.846C173.513 140.075 173.714 139.372 173.848 138.769C173.982 138.166 174.15 137.495 174.351 136.691C174.552 135.887 174.552 135.787 174.787 134.983C175.021 134.179 175.323 133.307 175.658 132.336C175.993 131.364 176.361 130.493 176.696 129.622C176.978 128.965 177.302 128.327 177.668 127.712C178.062 127.417 178.55 127.274 179.042 127.31C179.483 127.257 179.927 127.377 180.281 127.645C180.594 127.891 180.694 128.327 180.583 128.952C180.313 129.968 179.919 130.947 179.41 131.867L178.874 132.939C178.699 133.237 178.553 133.551 178.439 133.877C178.439 134.111 178.439 134.212 178.439 134.179C178.698 133.778 179.013 133.416 179.376 133.106C179.823 132.689 180.293 132.298 180.784 131.934L182.224 130.862C182.519 130.645 182.833 130.454 183.162 130.292C183.402 130.137 183.661 130.013 183.933 129.924L184.536 129.689C185.193 129.377 185.923 129.25 186.647 129.321C187.417 129.321 187.886 129.655 188.054 130.057C188.087 130.198 188.148 130.33 188.234 130.446C188.321 130.561 188.431 130.657 188.556 130.728C188.556 130.728 188.757 130.728 188.791 130.996C188.824 131.264 188.59 131.465 188.221 131.833C187.89 132.172 187.452 132.385 186.982 132.436C186.648 132.445 186.319 132.513 186.01 132.637L185.005 133.039L182.124 134.681C181.135 135.253 180.251 135.99 179.51 136.859C179.315 137.087 179.103 137.3 178.874 137.495C178.601 137.731 178.374 138.015 178.204 138.333C177.994 138.611 177.845 138.931 177.768 139.271C177.768 139.74 177.534 140.209 177.433 140.645C177.415 140.901 177.415 141.158 177.433 141.415C177.322 141.833 177.141 142.23 176.897 142.588C176.653 142.961 176.303 143.252 175.892 143.426C175.49 143.526 175.088 143.358 174.653 142.923Z" fill="#B8C318"/>
<path d="M203.966 146.441C203.79 146.439 203.618 146.388 203.47 146.293C203.322 146.199 203.204 146.064 203.128 145.905C202.902 145.665 202.711 145.394 202.559 145.101C202.419 144.518 202.419 143.909 202.559 143.325C202.724 142.078 203.028 140.853 203.463 139.673C203.731 138.635 203.966 137.831 204.133 137.362C204.265 137.018 204.344 136.657 204.368 136.29C204.328 136.035 204.328 135.774 204.368 135.519C204.393 135.319 204.393 135.116 204.368 134.916C204.368 134.916 204.703 134.916 204.87 134.447C205.069 134.046 205.204 133.616 205.272 133.174C205.356 132.787 205.468 132.406 205.608 132.035C205.619 131.834 205.619 131.633 205.608 131.432C205.78 131.086 205.925 130.728 206.043 130.36C206.254 129.776 206.5 129.205 206.78 128.651C207.015 127.814 207.249 126.942 207.551 126.004C207.852 125.066 208.087 124.262 208.388 123.458C208.69 122.654 208.924 122.051 209.125 121.582C209.326 120.966 209.561 120.362 209.829 119.773C210.008 119.415 210.008 119.181 209.829 119.069C209.829 119.069 209.561 118.567 209.561 117.997C209.575 117.71 209.651 117.43 209.784 117.175C209.917 116.92 210.104 116.698 210.331 116.523C210.654 116.152 211.071 115.874 211.537 115.719C212.062 115.578 212.603 115.51 213.146 115.518C213.793 115.485 214.442 115.485 215.089 115.518H217.769L218.707 115.92L219.679 116.288C219.98 116.288 220.114 116.523 220.114 116.624C220.104 116.69 220.119 116.758 220.156 116.813C220.193 116.869 220.25 116.909 220.315 116.925H220.717C221.08 117.023 221.413 117.207 221.689 117.461C222.172 117.857 222.631 118.282 223.063 118.734C223.465 119.156 223.794 119.643 224.034 120.175C224.269 120.644 224.436 121.113 224.604 121.515C224.76 122.108 224.76 122.731 224.604 123.324C224.567 123.753 224.5 124.178 224.403 124.597C224.34 124.888 224.238 125.17 224.101 125.435C223.916 125.531 223.756 125.669 223.632 125.837C223.508 125.966 223.426 126.129 223.398 126.306C223.332 126.591 223.219 126.863 223.063 127.11C222.813 127.617 222.533 128.11 222.225 128.584C221.89 129.12 221.522 129.69 221.153 130.192C220.825 130.65 220.454 131.076 220.047 131.465C219.666 131.93 219.239 132.357 218.774 132.738L217.468 133.677C216.656 134.063 215.816 134.387 214.955 134.648C214.066 134.948 213.16 135.194 212.241 135.385C211.552 135.562 210.842 135.641 210.13 135.62C209.599 135.681 209.073 135.781 208.556 135.921C208.415 135.993 208.293 136.097 208.199 136.225C208.106 136.353 208.045 136.502 208.02 136.658C207.856 137.027 207.722 137.408 207.618 137.797C207.512 138.066 207.445 138.348 207.417 138.635C207.417 138.635 207.417 139.071 207.048 139.573L206.445 141.348C206.177 142.019 205.976 142.689 205.775 143.359C205.574 144.029 205.44 144.599 205.306 145.068C205.266 145.254 205.186 145.428 205.07 145.579C204.954 145.73 204.806 145.853 204.636 145.939C204.45 146.151 204.222 146.322 203.966 146.441ZM209.963 132.336C209.963 132.336 210.432 132.336 211.035 132.336C211.803 132.203 212.556 131.99 213.28 131.7L214.955 130.996C215.558 130.695 216.094 130.393 216.63 130.058C216.938 129.834 217.229 129.587 217.501 129.321C217.962 128.853 218.398 128.361 218.808 127.847C218.969 127.577 219.114 127.297 219.243 127.009C219.453 126.64 219.643 126.26 219.813 125.87C220.138 125.322 220.397 124.738 220.583 124.128C220.811 123.519 220.869 122.858 220.751 122.218C220.632 121.543 220.344 120.91 219.913 120.376C219.47 119.896 218.919 119.528 218.305 119.304L216.764 119.103C216.331 119.039 215.891 119.039 215.457 119.103C215.09 119.182 214.759 119.382 214.519 119.672C214.195 120.178 213.926 120.717 213.715 121.28C213.548 121.682 213.246 122.219 212.878 122.889C212.528 123.559 212.226 124.253 211.973 124.966C211.602 126.407 211.155 127.827 210.633 129.22C210.265 130.192 210.03 130.829 209.896 131.13C209.953 131.35 209.953 131.58 209.896 131.8C209.838 131.882 209.814 131.982 209.826 132.081C209.838 132.18 209.887 132.271 209.963 132.336Z" fill="#B8C318"/>
<path d="M226.717 143.759C226.413 143.776 226.111 143.706 225.846 143.558L225.075 142.955C224.559 142.422 224.13 141.812 223.802 141.146C223.489 140.647 223.359 140.055 223.434 139.471C223.491 139.15 223.491 138.821 223.434 138.499C223.434 138.499 223.434 138.265 223.434 138.231C223.445 138.154 223.445 138.074 223.434 137.997C223.601 137.997 223.635 137.997 223.601 137.528C223.583 137.034 223.675 136.542 223.869 136.087C224.11 135.348 224.436 134.64 224.841 133.976C224.841 133.708 225.276 133.307 225.611 132.871C225.946 132.435 226.315 131.933 226.717 131.464C227.119 130.995 227.487 130.66 227.822 130.358C228.442 129.836 229.103 129.365 229.799 128.951C230.356 128.596 230.967 128.336 231.608 128.181C232.236 128.044 232.876 127.976 233.518 127.979C233.819 127.961 234.121 128.012 234.4 128.128C234.679 128.244 234.927 128.423 235.126 128.65C235.708 128.848 236.197 129.254 236.5 129.789C236.795 130.363 236.977 130.988 237.036 131.631C237.099 132.666 237.008 133.705 236.768 134.713C236.371 136.241 235.676 137.676 234.724 138.935C234.134 139.802 233.436 140.59 232.647 141.28C231.957 141.858 231.217 142.374 230.436 142.821C229.874 143.206 229.233 143.458 228.559 143.558L226.717 143.759ZM230.972 138.633C231.561 138.164 232.022 137.553 232.312 136.858C232.58 136.221 232.848 135.484 233.183 134.613C233.303 134.348 233.383 134.065 233.417 133.776C233.452 133.386 233.452 132.993 233.417 132.603C233.417 132.234 233.417 132.033 233.116 131.966C233.022 131.871 232.902 131.805 232.772 131.775C232.641 131.746 232.505 131.754 232.379 131.799C232.036 131.954 231.711 132.145 231.407 132.368C230.551 133.097 229.766 133.904 229.062 134.781C228.326 135.773 227.822 136.918 227.588 138.131C227.468 138.667 227.552 139.228 227.822 139.705C227.959 139.876 228.147 139.998 228.358 140.053C228.57 140.107 228.793 140.091 228.995 140.007C229.739 139.704 230.404 139.234 230.938 138.633H230.972Z" fill="#B8C318"/>
<path d="M243.636 142.788C243.2 142.788 242.798 142.487 242.363 141.85C241.916 141.125 241.588 140.334 241.391 139.505C241.153 138.621 241.062 137.704 241.123 136.791C241.062 136.066 241.062 135.338 241.123 134.614C241.123 134.078 241.324 133.541 241.458 133.005C241.478 132.872 241.478 132.736 241.458 132.603C241.458 132.603 241.458 132.302 241.458 132.034C241.458 131.766 241.458 131.364 241.76 130.794C241.833 130.393 241.945 130 242.095 129.621C242.168 129.391 242.282 129.176 242.43 128.985C242.685 128.581 243.078 128.284 243.535 128.147C243.912 127.996 244.331 127.996 244.708 128.147C244.87 128.235 245.009 128.36 245.113 128.511C245.218 128.662 245.286 128.836 245.311 129.019C245.417 129.149 245.495 129.299 245.541 129.46C245.587 129.621 245.6 129.79 245.579 129.957C245.645 130.457 245.645 130.964 245.579 131.464C245.55 131.868 245.423 132.259 245.21 132.603C245.1 132.951 245.033 133.311 245.009 133.675L244.808 135.518C244.767 136.048 244.688 136.574 244.574 137.093C244.574 137.595 244.574 137.897 244.574 138.031C244.574 138.165 245.009 138.031 245.411 137.662C246.004 137.027 246.542 136.344 247.02 135.618C247.589 134.781 247.991 134.111 248.259 133.642C248.512 133.227 248.725 132.79 248.896 132.335L249.432 130.962C249.538 130.584 249.673 130.214 249.834 129.856C249.92 129.652 250.033 129.461 250.169 129.286C250.294 129.077 250.479 128.911 250.7 128.81C250.921 128.708 251.168 128.676 251.408 128.717C251.873 128.755 252.321 128.904 252.715 129.153C253.072 129.525 253.286 130.011 253.318 130.526C253.363 131.166 253.224 131.806 252.916 132.369C252.682 132.838 252.48 133.374 252.246 133.977C252.047 134.582 251.88 135.197 251.743 135.82C251.646 136.351 251.59 136.888 251.576 137.428C251.576 137.964 251.576 138.299 251.81 138.399C251.978 138.513 252.177 138.572 252.38 138.567C252.726 138.555 253.057 138.425 253.318 138.198C253.806 137.808 254.265 137.382 254.692 136.925C254.926 136.657 255.228 136.289 255.596 135.786C255.98 135.268 256.338 134.732 256.668 134.178C256.986 133.704 257.277 133.211 257.539 132.704C257.708 132.447 257.833 132.164 257.908 131.866C257.961 131.601 258.089 131.357 258.276 131.163L258.678 130.627L259.248 130.225C259.37 130.174 259.501 130.148 259.633 130.148C259.766 130.148 259.897 130.174 260.019 130.225C260.294 130.29 260.541 130.443 260.722 130.66C260.911 130.887 261.017 131.17 261.024 131.464C261.051 131.855 261.051 132.246 261.024 132.637L260.622 133.91C260.622 134.446 260.287 134.982 260.119 135.451C259.994 135.806 259.826 136.143 259.617 136.456L259.047 137.059C258.762 137.348 258.504 137.662 258.276 137.997C257.809 138.576 257.306 139.124 256.769 139.639L255.965 140.343C255.398 140.944 254.714 141.423 253.955 141.75C253.281 142.077 252.555 142.281 251.81 142.353C251.249 142.407 250.685 142.277 250.202 141.984C249.791 141.77 249.452 141.44 249.225 141.035C248.999 140.631 248.896 140.168 248.929 139.706C248.911 139.403 248.831 139.106 248.695 138.835H248.259C248.092 138.835 247.891 139.069 247.69 139.404C247.374 139.971 246.94 140.463 246.416 140.845C245.854 141.314 245.248 141.729 244.607 142.085C244.322 142.369 243.994 142.606 243.636 142.788Z" fill="#B8C318"/>
<path d="M272.616 143.225C271.792 143.688 270.877 143.962 269.935 144.029C269.048 144.097 268.156 143.972 267.322 143.661C266.545 143.368 265.862 142.87 265.345 142.22C264.987 141.685 264.716 141.098 264.541 140.478C264.299 139.374 264.299 138.231 264.541 137.128C264.731 135.776 265.139 134.463 265.747 133.241C266.362 132.025 267.14 130.898 268.059 129.891C268.876 128.951 269.928 128.245 271.108 127.847C271.483 127.685 271.877 127.573 272.28 127.512C272.826 127.445 273.377 127.445 273.922 127.512C274.514 127.572 275.091 127.73 275.631 127.981C276.048 128.16 276.424 128.423 276.736 128.752C277.126 129.112 277.425 129.56 277.607 130.058C277.743 130.445 277.8 130.856 277.775 131.265C277.584 132.311 277.173 133.304 276.569 134.179C275.919 135.22 274.958 136.029 273.822 136.491C273.284 136.695 272.72 136.819 272.146 136.859C271.256 136.897 270.365 136.807 269.5 136.592C268.83 136.592 268.394 136.591 268.193 136.826C267.923 137.328 267.817 137.902 267.892 138.467C267.949 138.919 268.074 139.359 268.26 139.774C268.369 139.969 268.518 140.138 268.697 140.271C268.876 140.404 269.081 140.497 269.299 140.545C269.749 140.662 270.222 140.662 270.672 140.545L271.744 140.109L272.381 139.64L273.018 139.138L273.52 138.769C273.646 138.659 273.795 138.579 273.956 138.535H274.358C274.71 138.587 275.031 138.766 275.262 139.037C275.505 139.283 275.688 139.581 275.798 139.908C275.748 140.261 275.61 140.595 275.396 140.88C275.055 141.327 274.673 141.741 274.257 142.12C273.754 142.55 273.203 142.921 272.616 143.225ZM272.046 133.844C272.364 133.701 272.658 133.509 272.917 133.275C273.285 132.94 273.621 132.638 273.956 132.27C274.188 132.059 274.342 131.775 274.391 131.465C274.391 131.175 274.19 130.907 273.788 130.661C273.282 130.465 272.72 130.465 272.214 130.661C271.92 130.769 271.648 130.928 271.409 131.131C271.091 131.403 270.789 131.694 270.505 132.002C270.218 132.286 269.95 132.588 269.701 132.906C269.529 133.13 269.372 133.365 269.232 133.61C269.424 133.775 269.654 133.89 269.902 133.945C270.281 133.983 270.662 133.983 271.041 133.945C271.379 133.952 271.716 133.918 272.046 133.844Z" fill="#B8C318"/>
<path d="M281.427 142.923C281.123 142.695 280.842 142.437 280.59 142.152C280.442 141.973 280.338 141.761 280.286 141.534C280.233 141.308 280.234 141.072 280.288 140.846C280.354 140.147 280.466 139.453 280.623 138.769C280.623 138.166 280.925 137.495 281.126 136.691C281.327 135.887 281.327 135.787 281.561 134.983C281.796 134.179 282.097 133.307 282.432 132.336C282.767 131.364 283.102 130.493 283.471 129.622C283.752 128.965 284.077 128.327 284.442 127.712C284.837 127.417 285.325 127.274 285.816 127.31C286.257 127.257 286.702 127.377 287.056 127.645C287.357 127.88 287.458 128.315 287.324 128.952C287.069 129.973 286.674 130.954 286.151 131.867C286.005 132.234 285.837 132.592 285.649 132.939C285.46 133.23 285.314 133.545 285.213 133.877C285.213 134.111 285.213 134.212 285.213 134.179C285.462 133.77 285.779 133.407 286.151 133.106C286.598 132.689 287.068 132.298 287.558 131.934L288.999 130.862C289.284 130.647 289.587 130.457 289.903 130.292C290.159 130.143 290.428 130.02 290.708 129.924L291.311 129.689C291.968 129.377 292.697 129.25 293.421 129.321C294.192 129.321 294.661 129.655 294.829 130.057C294.861 130.198 294.923 130.33 295.009 130.446C295.096 130.561 295.205 130.657 295.331 130.728C295.331 130.728 295.532 130.728 295.532 130.996C295.532 131.264 295.532 131.465 294.962 131.833C294.639 132.182 294.197 132.397 293.723 132.436C293.401 132.448 293.083 132.516 292.785 132.637L291.78 133.039L288.898 134.681C287.905 135.26 287.011 135.995 286.252 136.859C286.068 137.087 285.867 137.3 285.649 137.495C285.376 137.731 285.149 138.015 284.979 138.333C284.754 138.602 284.604 138.925 284.543 139.271C284.543 139.74 284.275 140.209 284.175 140.645C284.149 140.901 284.149 141.159 284.175 141.415C284.063 141.833 283.882 142.23 283.638 142.588C283.394 142.961 283.044 143.252 282.633 143.426C282.265 143.526 281.863 143.358 281.427 142.923Z" fill="#B8C318"/>
<path d="M312.582 145.972C311.767 145.367 311.158 144.525 310.84 143.56C310.435 142.643 310.24 141.647 310.271 140.645C310.236 138.848 310.382 137.053 310.706 135.285C310.988 133.533 311.414 131.807 311.979 130.125C312.348 129.12 312.75 128.082 313.152 127.043C313.554 126.005 314.023 125.033 314.459 124.095C314.829 123.268 315.266 122.472 315.765 121.716C316.486 120.42 317.376 119.226 318.412 118.165C319.042 117.504 319.738 116.909 320.489 116.389C321.381 115.959 322.328 115.654 323.303 115.485C324.408 115.247 325.55 115.247 326.654 115.485C327.4 115.675 328.12 115.957 328.798 116.322C329.493 116.663 330.127 117.116 330.674 117.662C330.956 117.911 331.194 118.206 331.377 118.533C331.548 118.829 331.64 119.164 331.646 119.505C331.634 119.737 331.575 119.964 331.471 120.171C331.367 120.379 331.221 120.563 331.043 120.711C330.695 121.101 330.24 121.38 329.736 121.515C329.555 121.594 329.354 121.613 329.162 121.571C328.969 121.529 328.795 121.427 328.664 121.281C328.373 120.803 328.024 120.365 327.625 119.974C327.311 119.697 326.947 119.481 326.553 119.338C326.179 119.116 325.748 119.011 325.313 119.036C324.756 119.049 324.204 119.139 323.672 119.304C323.057 119.503 322.488 119.822 321.997 120.242L321.193 120.979L320.188 122.085C319.837 122.527 319.523 122.998 319.249 123.492C318.484 124.742 317.823 126.053 317.273 127.412C316.686 128.83 316.194 130.284 315.799 131.767C315.598 132.404 315.397 133.208 315.196 134.146C314.994 135.084 314.76 135.988 314.559 136.927C314.397 137.734 314.285 138.551 314.224 139.372C314.099 140.138 314.099 140.919 314.224 141.684C314.274 141.928 314.383 142.155 314.541 142.348C314.698 142.54 314.9 142.692 315.129 142.79C315.741 142.968 316.392 142.968 317.005 142.79C317.778 142.602 318.522 142.309 319.216 141.918C319.989 141.492 320.709 140.975 321.36 140.377C322.091 139.715 322.733 138.96 323.27 138.133C323.772 137.195 324.174 136.323 324.509 135.519C324.76 134.931 324.929 134.311 325.012 133.677C325.012 133.208 324.777 132.973 324.275 133.007C323.362 133.104 322.441 133.104 321.528 133.007C321.242 132.996 320.963 132.914 320.717 132.767C320.471 132.621 320.266 132.415 320.121 132.169C319.752 132.169 319.551 131.801 319.551 131.265C319.541 130.996 319.609 130.73 319.745 130.498C319.882 130.267 320.082 130.08 320.322 129.958C320.94 129.665 321.614 129.505 322.298 129.489C323.156 129.406 324.02 129.406 324.878 129.489C325.614 129.55 326.331 129.754 326.989 130.092C327.281 130.226 327.544 130.416 327.762 130.652C327.98 130.888 328.15 131.164 328.262 131.466C328.514 132.071 328.65 132.719 328.664 133.375C328.735 133.999 328.735 134.628 328.664 135.251C328.43 136.244 328.093 137.21 327.659 138.133C327.168 139.113 326.585 140.045 325.917 140.914C325.402 141.597 324.818 142.226 324.174 142.79C323.452 143.418 322.691 143.999 321.896 144.532C321.172 144.988 320.423 145.402 319.651 145.771C318.583 146.266 317.458 146.626 316.301 146.843C315.658 147.021 314.98 147.034 314.331 146.882C313.681 146.73 313.08 146.417 312.582 145.972Z" fill="#B8C318"/>
<path d="M341.027 143.226C340.216 143.689 339.312 143.963 338.381 144.03C337.482 144.095 336.58 143.97 335.734 143.661C334.962 143.359 334.281 142.862 333.757 142.22C333.412 141.683 333.152 141.096 332.987 140.479C332.744 139.375 332.744 138.232 332.987 137.128C333.176 135.776 333.584 134.464 334.193 133.242C334.796 132.018 335.575 130.89 336.505 129.891C337.316 128.961 338.355 128.257 339.52 127.848C339.907 127.69 340.312 127.577 340.726 127.513C341.26 127.445 341.8 127.445 342.334 127.513C342.937 127.569 343.526 127.727 344.076 127.982C344.489 128.151 344.856 128.415 345.148 128.752C345.55 129.109 345.86 129.557 346.053 130.059C346.116 130.458 346.116 130.866 346.053 131.265C345.846 132.307 345.436 133.297 344.847 134.18C344.189 135.213 343.23 136.02 342.099 136.491C341.562 136.695 340.998 136.819 340.424 136.86C339.534 136.901 338.642 136.81 337.778 136.592C337.108 136.592 336.672 136.592 336.437 136.826C336.181 137.333 336.087 137.906 336.169 138.468C336.212 138.922 336.337 139.365 336.538 139.775C336.636 139.971 336.777 140.143 336.951 140.276C337.126 140.41 337.328 140.502 337.543 140.545C338.005 140.663 338.489 140.663 338.95 140.545L339.989 140.11L340.659 139.641L341.262 139.138L341.798 138.77C341.915 138.648 342.067 138.566 342.233 138.535H342.635C342.978 138.59 343.288 138.769 343.507 139.038C343.757 139.283 343.952 139.58 344.076 139.909C344.026 140.267 343.875 140.605 343.641 140.881C343.321 141.335 342.95 141.751 342.535 142.12C342.073 142.541 341.567 142.911 341.027 143.226ZM340.491 133.845C340.805 133.693 341.098 133.502 341.362 133.275C341.722 132.966 342.058 132.63 342.368 132.27C342.62 132.071 342.787 131.784 342.836 131.466C342.836 131.176 342.635 130.908 342.233 130.662C341.726 130.469 341.166 130.469 340.659 130.662C340.358 130.754 340.083 130.915 339.855 131.131C339.537 131.404 339.235 131.695 338.95 132.002C338.646 132.269 338.376 132.573 338.146 132.907C337.962 133.122 337.805 133.358 337.677 133.61C337.865 133.782 338.097 133.898 338.347 133.945C338.715 133.982 339.085 133.982 339.453 133.945C339.846 133.963 340.24 133.929 340.625 133.845H340.491Z" fill="#B8C318"/>
<path d="M363.442 143.056C362.92 143.011 362.409 142.875 361.934 142.654C361.468 142.352 361.114 141.905 360.929 141.381C360.861 140.903 360.861 140.418 360.929 139.941C360.896 139.472 360.896 139.002 360.929 138.533C360.957 138.132 360.957 137.729 360.929 137.327V136.523C360.929 136.121 360.762 135.853 360.594 135.753C360.427 135.652 360.192 135.753 359.824 135.753C359.153 136.059 358.514 136.43 357.914 136.858C357.21 137.327 356.507 137.863 355.77 138.466L353.492 140.376C352.993 140.888 352.534 141.436 352.118 142.018C351.816 142.42 351.515 142.654 351.213 142.654C351.108 142.719 350.986 142.754 350.862 142.754C350.737 142.754 350.616 142.719 350.51 142.654L349.706 142.085L349.002 141.214C348.817 141 348.659 140.763 348.533 140.51C348.497 140.109 348.497 139.705 348.533 139.304C348.603 138.913 348.715 138.531 348.868 138.165C348.868 137.763 349.203 137.327 349.438 136.825L349.739 136.222C349.739 135.987 349.974 135.786 350.108 135.518C350.235 135.061 350.391 134.614 350.577 134.178L351.213 132.737C351.479 132.124 351.714 131.498 351.917 130.861C352.09 130.302 352.224 129.731 352.319 129.153C352.291 129.066 352.291 128.972 352.319 128.884C352.341 128.836 352.374 128.793 352.414 128.758C352.455 128.724 352.502 128.698 352.553 128.684C352.909 128.547 353.303 128.547 353.659 128.684C354.099 128.756 354.521 128.915 354.899 129.153C355.181 129.395 355.404 129.7 355.549 130.043C355.695 130.386 355.759 130.757 355.736 131.129C355.604 132.336 355.166 133.489 354.463 134.48L353.86 135.686C353.708 135.931 353.605 136.204 353.558 136.49L354.698 135.619L355.468 135.049L356.406 134.278L357.947 133.072L359.288 132.101L360.46 131.431C360.736 131.252 361.043 131.127 361.365 131.062C361.728 131.09 362.082 131.193 362.403 131.364C362.795 131.547 363.165 131.772 363.509 132.034C363.789 132.211 364.011 132.468 364.146 132.771C364.159 132.916 364.159 133.062 364.146 133.206C364.131 133.374 364.131 133.542 364.146 133.709C364.146 134.145 364.146 134.681 364.146 135.317C364.146 135.954 364.146 136.59 364.146 137.227C364.145 137.789 364.088 138.35 363.978 138.902V139.17C363.978 139.17 363.978 139.17 363.978 139.404C363.963 139.605 363.963 139.807 363.978 140.008C364.057 140.229 364.158 140.442 364.279 140.644C364.279 140.879 364.514 141.18 364.648 141.549C364.59 141.97 364.375 142.353 364.045 142.621C363.865 142.792 363.662 142.939 363.442 143.056Z" fill="#B8C318"/>
<path d="M378.519 143.226C377.708 143.689 376.803 143.963 375.872 144.03C374.974 144.095 374.071 143.97 373.225 143.661C372.462 143.359 371.793 142.862 371.282 142.22C370.91 141.693 370.637 141.103 370.478 140.479C370.235 139.375 370.235 138.232 370.478 137.128C370.668 135.776 371.075 134.464 371.684 133.242C372.287 132.018 373.066 130.89 373.996 129.891C374.807 128.961 375.846 128.257 377.011 127.848C377.399 127.69 377.803 127.577 378.217 127.513C378.751 127.445 379.291 127.445 379.825 127.513C380.428 127.569 381.017 127.727 381.567 127.982C381.98 128.151 382.347 128.415 382.639 128.752C383.041 129.109 383.352 129.557 383.544 130.059C383.679 130.446 383.736 130.856 383.711 131.265C383.52 132.311 383.109 133.305 382.505 134.18C381.847 135.213 380.888 136.02 379.758 136.491C379.221 136.695 378.656 136.819 378.083 136.86C377.192 136.899 376.301 136.809 375.436 136.592C374.766 136.592 374.331 136.592 374.096 136.826C373.839 137.333 373.746 137.906 373.828 138.468C373.87 138.922 373.995 139.365 374.197 139.775C374.302 139.972 374.45 140.144 374.629 140.277C374.809 140.41 375.016 140.502 375.235 140.545C375.686 140.663 376.159 140.663 376.609 140.545L377.647 140.11L378.318 139.641L378.921 139.138L379.457 138.77C379.574 138.648 379.726 138.566 379.892 138.535H380.294C380.637 138.59 380.947 138.769 381.165 139.038C381.416 139.283 381.611 139.58 381.735 139.909C381.685 140.267 381.534 140.605 381.299 140.881C380.98 141.335 380.609 141.751 380.194 142.12C379.679 142.551 379.117 142.921 378.519 143.226ZM377.983 133.845C378.296 133.693 378.589 133.502 378.853 133.275C379.213 132.966 379.549 132.63 379.859 132.27C380.111 132.071 380.278 131.784 380.328 131.466C380.328 131.176 380.127 130.908 379.725 130.662C379.218 130.469 378.657 130.469 378.15 130.662C377.85 130.754 377.574 130.915 377.346 131.131C377.028 131.404 376.726 131.695 376.441 132.002C376.146 132.278 375.877 132.581 375.637 132.907C375.465 133.13 375.308 133.365 375.168 133.61C375.356 133.782 375.588 133.898 375.838 133.945C376.206 133.982 376.576 133.982 376.944 133.945C377.293 133.952 377.641 133.918 377.983 133.845Z" fill="#B8C318"/>
<path d="M387.327 142.924C387.042 142.686 386.774 142.429 386.523 142.154C386.368 141.978 386.26 141.767 386.207 141.539C386.154 141.311 386.159 141.073 386.222 140.847C386.271 140.146 386.383 139.451 386.557 138.77C386.557 138.167 386.858 137.497 387.059 136.693C387.164 136.114 387.31 135.543 387.495 134.984C387.729 134.18 388.031 133.309 388.366 132.337C388.701 131.366 389.036 130.494 389.405 129.623C389.672 128.96 389.997 128.321 390.376 127.714C390.757 127.418 391.235 127.275 391.716 127.312C391.935 127.283 392.157 127.298 392.37 127.356C392.582 127.413 392.782 127.512 392.956 127.647C393.291 127.881 393.358 128.317 393.258 128.953C393.003 129.974 392.608 130.955 392.085 131.868C391.94 132.242 391.761 132.601 391.549 132.94C391.388 133.246 391.242 133.558 391.113 133.878C391.113 134.124 391.113 134.225 391.113 134.18C391.359 133.779 391.664 133.417 392.018 133.108C392.487 132.706 392.956 132.304 393.459 131.935C393.92 131.554 394.401 131.196 394.899 130.863C395.184 130.649 395.487 130.458 395.804 130.294L396.574 129.925L397.211 129.69C397.868 129.379 398.598 129.252 399.322 129.322C400.092 129.322 400.561 129.657 400.729 130.059C400.761 130.199 400.823 130.332 400.909 130.447C400.996 130.562 401.106 130.658 401.231 130.729C401.231 130.729 401.231 130.729 401.432 130.997C401.633 131.265 401.231 131.466 400.863 131.835C400.535 132.178 400.095 132.392 399.623 132.438C399.29 132.45 398.962 132.517 398.652 132.639L397.646 133.041L394.765 134.682C393.788 135.271 392.907 136.006 392.152 136.86C391.957 137.089 391.744 137.302 391.515 137.497C391.262 137.75 391.037 138.031 390.845 138.334C390.648 138.616 390.512 138.935 390.443 139.272C390.443 139.741 390.175 140.21 390.075 140.646C390.049 140.902 390.049 141.16 390.075 141.416C389.954 141.837 389.761 142.234 389.505 142.589C389.273 142.96 388.934 143.252 388.534 143.427C388.165 143.527 387.797 143.36 387.327 142.924Z" fill="#B8C318"/>
<path d="M404.549 143.158C404.369 142.871 404.114 142.639 403.812 142.488C403.443 142.287 403.242 142.119 403.242 141.985C403.229 141.806 403.172 141.633 403.075 141.483C402.981 141.285 402.857 141.104 402.706 140.946C402.706 140.946 402.706 140.377 402.706 139.707C402.706 139.037 403.276 138.233 403.711 137.295C404.147 136.357 404.649 135.385 405.185 134.413C405.43 134.128 405.653 133.826 405.855 133.509C406.002 133.26 406.17 133.025 406.358 132.805C406.317 132.697 406.317 132.578 406.358 132.47C406.444 132.44 406.539 132.44 406.626 132.47L406.961 131.8C407.124 131.565 407.303 131.341 407.497 131.13L408.569 130.025L409.842 128.852C410.179 128.568 410.538 128.311 410.914 128.081C411.448 127.693 412.097 127.493 412.757 127.512C413.346 127.526 413.912 127.738 414.365 128.115L414.935 128.617L415.94 129.455C416.308 129.757 416.643 130.025 416.911 130.293L418.486 131.666L417.782 133.777C417.43 134.717 417.326 135.733 417.481 136.725C417.626 137.491 417.897 138.227 418.285 138.903C418.396 139.191 418.595 139.438 418.854 139.607C419.137 139.788 419.458 139.903 419.792 139.942C420.012 139.982 420.219 140.074 420.396 140.209C420.498 140.287 420.579 140.389 420.631 140.506C420.684 140.623 420.707 140.752 420.697 140.88C420.744 141.383 420.626 141.889 420.362 142.32C420.168 142.59 419.882 142.781 419.558 142.856C418.664 142.958 417.759 142.855 416.911 142.555C415.888 142.059 415.088 141.198 414.666 140.142C414.476 139.853 414.329 139.537 414.231 139.205C414.099 138.911 413.987 138.609 413.896 138.3L413.46 138.836L412.924 139.405C411.481 141.012 409.755 142.341 407.832 143.325C407.311 143.561 406.741 143.669 406.17 143.64C405.599 143.611 405.043 143.445 404.549 143.158ZM407.899 139.372C408.485 139.01 409.045 138.607 409.574 138.166L411.919 136.156C412.596 135.543 413.202 134.858 413.728 134.112L414.666 132.604C414.496 132.133 414.234 131.701 413.896 131.331C413.719 131.15 413.479 131.042 413.226 131.03C412.719 131.098 412.255 131.348 411.919 131.733C411.29 132.35 410.718 133.023 410.211 133.744C409.574 134.615 408.871 135.72 408.1 137.094C407.643 137.941 407.261 138.826 406.961 139.74C407.268 139.696 407.558 139.569 407.798 139.372H407.899Z" fill="#B8C318"/>
<path d="M427.365 144.094C426.98 144.011 426.63 143.812 426.36 143.524C425.983 143.197 425.645 142.826 425.355 142.419C425.118 142.113 424.926 141.774 424.785 141.414C424.785 141.414 424.785 141.414 424.584 141.079C424.426 140.721 424.357 140.33 424.383 139.94C424.383 139.303 424.383 138.566 424.383 137.762C424.383 136.958 424.585 136.288 424.685 135.819C424.786 135.35 425.054 134.78 425.322 134.01L426.025 131.933L427.164 129.487L425.489 129.018C425.297 128.968 425.13 128.849 425.02 128.683C424.913 128.573 424.842 128.433 424.819 128.281C424.863 127.932 424.989 127.599 425.187 127.309C425.455 126.874 425.623 126.673 425.757 126.673H427.734H428.404C428.53 126.618 428.644 126.538 428.739 126.438C428.87 126.323 428.963 126.171 429.007 126.002C429.101 125.754 429.225 125.518 429.375 125.299L429.844 124.562C429.844 124.194 430.179 123.858 430.314 123.624C430.448 123.389 430.649 123.021 430.917 122.585C431.185 122.15 431.218 122.15 431.386 121.848C431.552 121.576 431.768 121.337 432.022 121.145C432.375 120.861 432.809 120.697 433.262 120.676C433.522 120.621 433.791 120.629 434.047 120.699C434.304 120.768 434.54 120.899 434.736 121.078C434.94 121.292 435.079 121.559 435.138 121.848C435.115 122.202 434.986 122.54 434.769 122.82C434.573 123.278 434.314 123.707 433.999 124.093C433.697 124.507 433.428 124.944 433.195 125.4C432.726 126.003 432.659 126.338 432.927 126.438C433.716 126.547 434.516 126.547 435.305 126.438C435.596 126.352 435.901 126.328 436.202 126.369C436.502 126.409 436.79 126.513 437.048 126.673C437.404 126.981 437.631 127.411 437.684 127.879C437.684 128.549 437.617 128.951 437.483 129.085C436.853 129.273 436.195 129.341 435.54 129.286L433.831 129.487H432.759H432.056C431.889 129.462 431.72 129.462 431.553 129.487C431.319 129.487 431.151 129.487 431.084 129.755L430.749 130.291C430.55 130.562 430.381 130.854 430.246 131.162C430.012 131.631 429.744 132.167 429.409 132.737C429.007 133.909 428.705 135.015 428.437 136.087C428.169 137.159 427.935 138.265 427.734 139.437C427.604 139.817 427.604 140.23 427.734 140.61C427.734 140.844 428.203 140.978 428.806 141.045C429.251 141.093 429.7 141.093 430.146 141.045C430.645 141.03 431.141 140.951 431.62 140.811L432.592 140.375C432.907 140.246 433.209 140.089 433.496 139.906L434.635 139.236C434.769 139.013 434.97 139.013 435.238 139.236C435.495 139.503 435.689 139.823 435.808 140.174C435.796 140.583 435.729 140.989 435.607 141.38C435.607 141.849 434.937 142.318 434.032 142.821C432.904 143.574 431.622 144.066 430.28 144.262C429.305 144.348 428.323 144.292 427.365 144.094Z" fill="#B8C318"/>
<path d="M440.699 143.327C440.452 143.042 440.289 142.694 440.23 142.322C440.164 141.888 440.164 141.448 440.23 141.015C440.245 140.671 440.313 140.333 440.431 140.01C440.39 139.845 440.39 139.672 440.431 139.507C440.478 139.389 440.478 139.257 440.431 139.139C440.389 138.951 440.389 138.757 440.431 138.569C440.431 138.268 440.431 138 440.699 137.765C440.967 137.531 441.135 136.727 441.37 136.023L442.14 133.845L442.743 131.902L443.045 130.93C443.045 130.562 443.279 130.395 443.715 130.361C443.941 130.327 444.173 130.349 444.389 130.425C444.605 130.501 444.799 130.629 444.954 130.797C445.393 131.142 445.767 131.561 446.06 132.036C446.178 132.152 446.264 132.296 446.311 132.454C446.358 132.612 446.364 132.78 446.328 132.941C446.209 133.474 446.03 133.991 445.792 134.482C445.614 134.833 445.479 135.204 445.39 135.587C445.256 136.006 445.144 136.43 445.055 136.861L444.653 137.832C444.653 138.234 444.385 138.603 444.284 138.971C444.187 139.219 444.119 139.478 444.083 139.742C444.046 140.137 443.979 140.529 443.882 140.915C443.829 141.235 443.715 141.541 443.547 141.819C443.324 143.003 442.888 143.673 442.241 143.829C441.963 143.901 441.67 143.892 441.397 143.803C441.124 143.714 440.882 143.549 440.699 143.327ZM445.256 126.575C444.943 126.372 444.698 126.081 444.552 125.738C444.412 125.477 444.322 125.193 444.284 124.9C444.251 124.746 444.251 124.586 444.284 124.431C444.613 124.086 444.864 123.675 445.021 123.225C445.215 122.737 445.451 122.266 445.725 121.818L445.959 121.483C445.959 121.483 446.161 121.215 446.261 121.215C446.475 121.091 446.717 121.026 446.964 121.026C447.211 121.026 447.454 121.091 447.668 121.215C448.21 121.417 448.677 121.779 449.008 122.253C449.24 122.767 449.31 123.34 449.209 123.895C449.088 124.556 448.786 125.17 448.338 125.671C447.933 126.193 447.368 126.569 446.73 126.743C446.481 126.804 446.222 126.816 445.969 126.775C445.716 126.735 445.473 126.644 445.256 126.508V126.575Z" fill="#B8C318"/>
<path d="M453.765 143.761C453.462 143.774 453.161 143.704 452.894 143.56L452.124 142.957C451.608 142.424 451.178 141.813 450.851 141.148C450.554 140.642 450.425 140.056 450.482 139.472C450.56 139.153 450.56 138.82 450.482 138.501C450.482 138.501 450.281 138.266 450.482 138.233C450.683 138.199 450.482 138.233 450.65 137.998C450.817 137.764 450.884 137.998 450.65 137.529C450.632 137.035 450.723 136.543 450.917 136.089C451.156 135.343 451.494 134.633 451.923 133.978C452.148 133.597 452.395 133.228 452.66 132.872C452.995 132.403 453.363 131.934 453.765 131.465C454.167 131.03 454.569 130.661 454.904 130.36C455.506 129.831 456.157 129.359 456.848 128.952C457.404 128.598 458.015 128.338 458.657 128.182C459.285 128.049 459.925 127.981 460.566 127.981C460.872 127.967 461.177 128.02 461.461 128.135C461.744 128.251 461.999 128.427 462.208 128.651C462.776 128.86 463.251 129.263 463.548 129.79C463.844 130.364 464.025 130.99 464.084 131.633C464.147 132.668 464.057 133.706 463.816 134.715C463.419 136.243 462.725 137.677 461.772 138.936C461.193 139.801 460.506 140.589 459.729 141.282C459.027 141.86 458.276 142.375 457.484 142.823C456.926 143.213 456.283 143.465 455.608 143.56L453.765 143.761ZM458.054 138.635C458.624 138.155 459.072 137.546 459.36 136.859C459.628 136.223 459.93 135.486 460.231 134.615C460.367 134.355 460.447 134.07 460.466 133.777C460.5 133.387 460.5 132.994 460.466 132.604C460.466 132.236 460.466 132.035 460.198 131.968C460.096 131.873 459.971 131.808 459.836 131.778C459.7 131.749 459.559 131.756 459.427 131.8C459.089 131.963 458.763 132.154 458.456 132.37C457.602 133.09 456.827 133.898 456.144 134.782C455.398 135.772 454.883 136.917 454.636 138.132C454.534 138.669 454.617 139.224 454.871 139.707C455.007 139.878 455.195 140 455.407 140.054C455.618 140.108 455.842 140.093 456.044 140.009C456.811 139.712 457.499 139.242 458.054 138.635Z" fill="#B8C318"/>
<path d="M482.61 143.057C482.076 143.016 481.554 142.879 481.069 142.655C480.603 142.36 480.259 141.908 480.097 141.382C480.03 140.904 480.03 140.419 480.097 139.941V138.534C480.125 138.132 480.125 137.729 480.097 137.328V136.524C480.097 136.122 480.097 135.854 479.762 135.753C479.427 135.653 479.36 135.753 478.991 135.753C478.329 136.075 477.691 136.444 477.082 136.859L474.938 138.467L472.659 140.377C472.17 140.897 471.712 141.445 471.286 142.018C471.199 142.191 471.071 142.339 470.913 142.45C470.755 142.561 470.573 142.631 470.381 142.655C470.274 142.716 470.153 142.749 470.029 142.749C469.906 142.749 469.785 142.716 469.678 142.655L468.874 142.085L468.204 141.214C468.024 140.988 467.857 140.753 467.701 140.51C467.665 140.109 467.665 139.706 467.701 139.304C467.786 138.917 467.898 138.537 468.036 138.165L468.606 136.825C468.73 136.631 468.842 136.43 468.941 136.222L469.276 135.519C469.276 135.116 469.577 134.681 469.778 134.179L470.381 132.738C470.647 132.125 470.882 131.499 471.085 130.862C471.085 130.326 471.386 129.756 471.52 129.153C471.497 129.113 471.484 129.066 471.484 129.019C471.484 128.972 471.497 128.926 471.52 128.885C471.548 128.834 471.586 128.79 471.632 128.755C471.679 128.721 471.732 128.696 471.788 128.684C472.145 128.551 472.538 128.551 472.894 128.684C473.338 128.743 473.762 128.904 474.134 129.153C474.423 129.39 474.65 129.694 474.796 130.038C474.942 130.383 475.002 130.757 474.971 131.13C474.838 132.331 474.412 133.481 473.732 134.48C473.53 134.927 473.329 135.329 473.128 135.686C472.955 135.924 472.841 136.2 472.794 136.49L473.933 135.619L474.737 135.05L475.641 134.279L477.216 133.073L478.556 132.102L479.729 131.431C479.993 131.255 480.289 131.13 480.6 131.063C480.965 131.082 481.32 131.185 481.638 131.364C482.036 131.555 482.417 131.779 482.777 132.035C483.041 132.222 483.249 132.476 483.38 132.771C483.38 132.771 483.38 133.04 483.38 133.207C483.368 133.374 483.368 133.542 483.38 133.71C483.38 134.145 483.38 134.681 483.38 135.318V137.227C483.45 137.783 483.45 138.346 483.38 138.902V139.171C483.38 139.171 483.38 139.17 483.38 139.405L483.581 140.008C483.581 140.209 483.581 140.41 483.849 140.645C484.117 140.879 484.084 141.181 484.218 141.549C484.16 141.97 483.945 142.353 483.615 142.621C483.317 142.84 482.974 142.989 482.61 143.057Z" fill="#B8C318"/>
</svg>
