<svg width="560" height="420" viewBox="0 0 560 420" fill="none" xmlns="http://www.w3.org/2000/svg">
<path d="M429.769 31.5717C429.748 31.3715 429.748 31.1697 429.769 30.9695C429.769 30.3674 428.416 30.3072 428.045 30.3072H170.423C158.568 30.3072 146.669 30.0664 134.814 30.3072H134.268C133.002 30.3072 130.208 30.8692 130.208 32.3143V381.324C130.077 382.901 130.077 384.484 130.208 386.061C130.23 386.261 130.23 386.463 130.208 386.663C130.208 387.265 131.561 387.325 131.932 387.325H389.707C401.562 387.325 413.461 387.546 425.294 387.325C425.563 387.345 425.833 387.345 426.102 387.325C427.259 387.325 429.114 386.884 429.66 385.96V385.72C429.747 385.579 429.792 385.42 429.791 385.258V36.3084C429.915 34.7313 429.908 33.1478 429.769 31.5717Z" fill="#948775"/>
</svg>
