<svg width="560" height="420" viewBox="0 0 560 420" fill="none" xmlns="http://www.w3.org/2000/svg">
<path d="M531.377 66.4342C530.61 65.4162 529.585 64.5847 528.391 64.0114C527.197 63.438 525.869 63.1399 524.522 63.1426H95.3631C93.6665 63.1399 92.0093 63.613 90.6127 64.4988C89.2162 65.3846 88.1468 66.641 87.5472 68.1001L20.238 232.499C19.7628 233.66 19.602 234.91 19.7693 236.141C19.9367 237.372 20.4272 238.547 21.1986 239.564C21.9621 240.587 22.9856 241.423 24.1802 242.001C25.3748 242.578 26.7045 242.878 28.054 242.876H34.2762V370.506H461.121L524.435 193.703V92.6265L532.25 73.5191C532.738 72.3611 532.914 71.1119 532.761 69.878C532.609 68.6441 532.134 67.4625 531.377 66.4342Z" fill="#948775"/>
</svg>
