<svg width="586" height="182" viewBox="0 0 586 182" fill="none" xmlns="http://www.w3.org/2000/svg">
<g clip-path="url(#clip0_2062_7529)">
<path d="M90.5248 0.5H495.475C545.195 0.5 585.5 40.8055 585.5 90.5248C585.5 140.244 545.195 180.55 495.475 180.55H90.5248C40.8055 180.55 0.5 140.244 0.5 90.5248C0.5 40.8055 40.8055 0.5 90.5248 0.5Z" fill="#B8C318" stroke="#B8C318"/>
<path d="M165.033 101.007V98.3659C164.963 93.3029 166.874 88.413 170.358 84.7389L173.545 80.546C176.186 77.7888 177.684 74.1329 177.737 70.3151C177.83 69.2581 177.693 68.1938 177.337 67.1945C176.981 66.1951 176.413 65.2843 175.673 64.5242C174.933 63.7641 174.037 63.1728 173.048 62.7902C172.058 62.4075 170.998 62.2427 169.939 62.307C166.359 62.5411 162.976 64.0251 160.379 66.4999C159.895 67.0592 159.296 67.5078 158.623 67.8153C157.95 68.1228 157.219 68.2816 156.479 68.2816C155.74 68.2816 155.009 68.1228 154.336 67.8153C153.663 67.5078 153.064 67.0592 152.58 66.4999C152.049 65.9592 151.634 65.3157 151.36 64.6092C151.086 63.9027 150.959 63.1477 150.986 62.3904C151.014 61.6331 151.195 60.8892 151.52 60.2044C151.844 59.5196 152.305 58.9082 152.874 58.4074C157.599 53.6793 163.968 50.9599 170.651 50.818C184.278 50.3148 191.616 58.1136 191.868 67.5896C191.88 71.2896 191.053 74.9444 189.448 78.2781C187.843 81.6119 185.502 84.5379 182.601 86.8354C178.157 91.0283 176.144 93.7536 176.48 97.7788V100.169C176.773 103.229 174.509 105.075 170.945 105.284C167.381 105.494 165.243 104.068 165.033 101.007ZM162.559 118.785C162.559 117.666 162.782 116.558 163.217 115.527C163.651 114.496 164.288 113.561 165.089 112.78C165.89 111.998 166.839 111.385 167.881 110.976C168.923 110.567 170.036 110.371 171.155 110.399C172.267 110.358 173.376 110.547 174.412 110.954C175.448 111.361 176.389 111.977 177.176 112.764C177.963 113.551 178.579 114.492 178.986 115.528C179.393 116.564 179.582 117.673 179.54 118.785C179.54 121.009 178.657 123.142 177.084 124.715C175.512 126.287 173.379 127.171 171.155 127.171C168.936 127.129 166.819 126.234 165.242 124.673C163.665 123.112 162.749 121.003 162.685 118.785H162.559Z" fill="#FDFDFB"/>
<path d="M246.877 101.007V98.3659C246.789 93.2997 248.703 88.4031 252.202 84.7389L255.347 80.546C258.003 77.7982 259.503 74.1363 259.54 70.3151C259.632 69.2581 259.496 68.1938 259.139 67.1945C258.783 66.1951 258.215 65.2843 257.475 64.5242C256.735 63.7641 255.84 63.1728 254.85 62.7902C253.861 62.4075 252.8 62.2427 251.741 62.307C248.151 62.5489 244.757 64.0311 242.139 66.4999C241.655 67.0592 241.056 67.5078 240.384 67.8153C239.711 68.1228 238.98 68.2816 238.24 68.2816C237.5 68.2816 236.769 68.1228 236.096 67.8153C235.423 67.5078 234.825 67.0592 234.341 66.4999C233.815 65.9563 233.405 65.3121 233.134 64.6061C232.863 63.9002 232.738 63.1465 232.765 62.3909C232.793 61.6354 232.972 60.893 233.293 60.2085C233.615 59.524 234.071 58.9115 234.634 58.4074C239.364 53.6866 245.731 50.9686 252.412 50.818C266.039 50.3148 273.376 58.1136 273.628 67.5896C273.641 71.2896 272.813 74.9444 271.208 78.2781C269.603 81.6119 267.262 84.5379 264.362 86.8354C259.917 91.0283 257.947 93.7536 258.24 97.7788V100.169C258.534 103.229 256.269 105.075 252.705 105.284C249.142 105.494 247.003 104.068 246.877 101.007ZM244.404 118.785C244.403 117.666 244.627 116.558 245.061 115.527C245.496 114.496 246.132 113.561 246.933 112.78C247.734 111.998 248.684 111.385 249.726 110.976C250.767 110.567 251.88 110.371 252.999 110.399C254.111 110.358 255.22 110.547 256.256 110.954C257.292 111.361 258.233 111.977 259.02 112.764C259.807 113.551 260.423 114.492 260.83 115.528C261.237 116.564 261.426 117.673 261.385 118.785C261.385 121.009 260.501 123.142 258.929 124.715C257.356 126.287 255.223 127.171 252.999 127.171C250.758 127.161 248.609 126.281 247.006 124.716C245.402 123.152 244.469 121.025 244.404 118.785Z" fill="#FDFDFB"/>
<path d="M328.556 101.007V98.3659C328.486 93.3029 330.397 88.413 333.881 84.7389L337.068 80.546C339.709 77.7888 341.208 74.1329 341.261 70.3151C341.361 69.2566 341.229 68.1894 340.875 67.1868C340.522 66.1842 339.954 65.2701 339.212 64.5084C338.471 63.7467 337.572 63.1555 336.579 62.7753C335.586 62.3952 334.523 62.2355 333.462 62.307C329.883 62.5411 326.499 64.0251 323.902 66.4999C323.418 67.0592 322.819 67.5078 322.147 67.8153C321.474 68.1228 320.743 68.2816 320.003 68.2816C319.263 68.2816 318.532 68.1228 317.859 67.8153C317.186 67.5078 316.588 67.0592 316.103 66.4999C315.573 65.9592 315.157 65.3157 314.883 64.6092C314.609 63.9027 314.482 63.1477 314.51 62.3904C314.537 61.6331 314.719 60.8892 315.043 60.2044C315.368 59.5196 315.828 58.9082 316.397 58.4074C321.122 53.6793 327.492 50.9599 334.175 50.818C347.802 50.3148 355.139 58.1136 355.391 67.5896C355.404 71.2896 354.576 74.9444 352.971 78.2781C351.366 81.6119 349.025 84.5379 346.125 86.8354C341.68 91.0283 339.71 93.7536 340.003 97.7788V100.169C340.297 103.229 338.032 105.075 334.468 105.284C330.904 105.494 328.556 104.068 328.556 101.007ZM326.083 118.785C326.082 117.666 326.306 116.558 326.74 115.527C327.175 114.496 327.811 113.561 328.612 112.78C329.413 111.998 330.363 111.385 331.404 110.976C332.446 110.567 333.559 110.371 334.678 110.399C335.79 110.358 336.899 110.547 337.935 110.954C338.971 111.361 339.912 111.977 340.699 112.764C341.486 113.551 342.103 114.492 342.509 115.528C342.916 116.564 343.105 117.673 343.064 118.785C343.064 121.009 342.18 123.142 340.608 124.715C339.035 126.287 336.902 127.171 334.678 127.171C332.452 127.14 330.324 126.25 328.738 124.687C327.152 123.125 326.231 121.011 326.166 118.785H326.083Z" fill="#FDFDFB"/>
<path d="M410.36 101.007V98.3659C410.272 93.2997 412.185 88.4031 415.685 84.7389L418.829 80.546C421.485 77.7982 422.986 74.1363 423.022 70.3151C423.115 69.2581 422.978 68.1938 422.622 67.1945C422.266 66.1951 421.698 65.2843 420.958 64.5242C420.218 63.7641 419.322 63.1728 418.333 62.7902C417.343 62.4075 416.283 62.2427 415.224 62.307C411.634 62.5489 408.239 64.0311 405.622 66.4999C405.138 67.0592 404.539 67.5078 403.866 67.8153C403.193 68.1228 402.462 68.2816 401.722 68.2816C400.983 68.2816 400.252 68.1228 399.579 67.8153C398.906 67.5078 398.307 67.0592 397.823 66.4999C397.297 65.9563 396.887 65.3121 396.616 64.6061C396.346 63.9002 396.22 63.1465 396.248 62.3909C396.275 61.6354 396.455 60.893 396.776 60.2085C397.097 59.524 397.553 58.9115 398.117 58.4074C402.847 53.6866 409.213 50.9686 415.894 50.818C429.521 50.3148 436.859 58.1136 437.111 67.5896C437.446 75.9754 433.463 81.3846 427.844 86.8354C423.4 91.0283 421.429 93.7536 421.723 97.7788V100.169C422.016 103.229 419.752 105.075 416.188 105.284C412.624 105.494 410.486 104.068 410.36 101.007ZM407.928 118.785C407.928 116.561 408.811 114.428 410.384 112.856C411.957 111.283 414.09 110.399 416.314 110.399C417.426 110.358 418.535 110.547 419.571 110.954C420.607 111.361 421.548 111.977 422.335 112.764C423.122 113.551 423.738 114.492 424.145 115.528C424.552 116.564 424.741 117.673 424.7 118.785C424.7 121.009 423.816 123.142 422.243 124.715C420.671 126.287 418.538 127.171 416.314 127.171C414.106 127.118 412.004 126.217 410.443 124.656C408.882 123.095 407.981 120.993 407.928 118.785Z" fill="#FDFDFB"/>
</g>
<defs>
<clipPath id="clip0_2062_7529">
<rect width="586" height="181.05" fill="white"/>
</clipPath>
</defs>
</svg>
