<svg width="560" height="420" viewBox="0 0 560 420" fill="none" xmlns="http://www.w3.org/2000/svg">
<path d="M306.351 38.3958L287.51 18.6262C286.574 17.6418 285.419 16.8529 284.124 16.3123C282.828 15.7718 281.422 15.4922 280 15.4922C278.577 15.4922 277.171 15.7718 275.876 16.3123C274.581 16.8529 273.426 17.6418 272.489 18.6262L253.648 38.3958H135.906V385.961H424.093V38.3958H306.351ZM280 22.5199C280.632 22.5199 281.259 22.6348 281.843 22.8579C282.427 23.0811 282.958 23.4081 283.404 23.8202C283.85 24.2324 284.204 24.7215 284.444 25.2596C284.684 25.7976 284.806 26.3739 284.803 26.9555C284.803 28.1266 284.297 29.2497 283.396 30.0778C282.495 30.9058 281.274 31.3711 280 31.3711C278.726 31.3711 277.504 30.9058 276.604 30.0778C275.703 29.2497 275.197 28.1266 275.197 26.9555C275.194 26.3739 275.316 25.7976 275.556 25.2596C275.796 24.7215 276.149 24.2324 276.596 23.8202C277.042 23.4081 277.573 23.0811 278.157 22.8579C278.741 22.6348 279.367 22.5199 280 22.5199Z" fill="#948775"/>
</svg>
