<svg width="560" height="420" viewBox="0 0 560 420" fill="none" xmlns="http://www.w3.org/2000/svg">
<path d="M477.06 64.6676L345.76 63.2827C343.621 63.2822 341.51 63.7304 339.589 64.593C337.667 65.4555 335.984 66.7097 334.669 68.2602C334.102 66.4132 332.887 64.7902 331.213 63.6433C329.539 62.4964 327.5 61.8899 325.412 61.9179L194.833 60.834C188.414 60.834 183.414 64.6675 180.838 70.1468L125.275 197.877C124.537 199.407 124.258 201.091 124.467 202.754C123.29 204.068 122.32 205.527 121.585 207.089L64.9738 336.786C64.2676 338.133 63.9427 339.621 64.0293 341.113C64.116 342.605 64.6113 344.054 65.4694 345.323C66.3275 346.592 67.5204 347.642 68.9376 348.374C70.3548 349.106 71.9502 349.497 73.5758 349.511L208.784 353.385C212.706 353.467 216.532 352.257 219.569 349.973C220.438 351.195 221.623 352.201 223.017 352.901C224.411 353.601 225.971 353.974 227.559 353.987L362.003 358.001C365.469 358.066 368.87 357.133 371.732 355.334C374.593 353.535 376.771 350.959 377.963 347.966L430.36 215.379C430.529 214.945 430.667 214.503 430.775 214.054C432.267 212.594 433.425 210.874 434.181 208.996L486.12 76.6698C486.666 75.3249 486.85 73.8783 486.656 72.4538C486.462 71.0292 485.896 69.6691 485.005 68.4896C484.115 67.3101 482.927 66.3464 481.543 65.6808C480.16 65.0152 478.621 64.6676 477.06 64.6676Z" fill="#948775"/>
</svg>
