<svg width="671" height="207" viewBox="0 0 671 207" fill="none" xmlns="http://www.w3.org/2000/svg">
<path d="M566.512 0H103.5C46.3385 0 0 46.3385 0 103.5C0 160.661 46.3385 207 103.5 207H566.512C623.673 207 670.012 160.661 670.012 103.5C670.012 46.3385 623.673 0 566.512 0Z" fill="#B8C318"/>
<path d="M128.92 111.712H118.788V129.12C118.788 135.988 111.852 138.504 100.904 134.084C99.6802 133.608 99.2042 132.656 99.4762 131.432C99.7482 130.344 100.632 129.868 102.06 130.004C109.2 130.82 109.88 130.14 109.88 126.876V111.712H99.6802C97.0962 111.712 95.7362 110.284 95.7362 107.768V91.04C95.7362 88.524 97.0962 87.096 99.6802 87.096H108.724C109.2 84.92 109.608 82.812 109.88 80.568H92.6082C91.9282 80.568 91.5882 80.908 91.5882 81.384V96.752C91.5882 116.608 88.5282 127.76 81.8642 135.172C80.9802 136.192 79.6882 136.328 78.8042 135.512C77.8522 134.764 77.7842 133.812 78.3962 132.588C81.7282 126.06 83.0202 117.764 83.0202 97.908V79.412C83.0202 76.828 84.4482 75.468 86.9642 75.468H135.924C137.556 75.468 138.508 76.352 138.508 77.984C138.508 79.616 137.556 80.568 135.924 80.568H118.72C117.496 83.016 116.204 85.124 114.572 87.096H128.92C131.504 87.096 132.932 88.524 132.932 91.04V107.768C132.932 110.284 131.504 111.712 128.92 111.712ZM104.168 92.672V96.956H124.228V92.672C124.228 92.196 123.888 91.856 123.412 91.856H104.984C104.508 91.856 104.168 92.196 104.168 92.672ZM104.168 106.136C104.168 106.612 104.508 106.952 104.984 106.952H123.412C123.888 106.952 124.228 106.612 124.228 106.136V101.648H104.168V106.136ZM105.8 120.28C102.128 125.992 96.3482 130.888 91.1802 133.472C90.0242 134.016 88.9362 133.744 88.3922 132.792C87.7802 131.84 88.0522 130.82 89.0042 130.004C92.5402 126.876 96.2802 122.048 99.0002 116.2C100.02 113.956 102.128 113.276 104.508 114.568C106.82 115.792 107.228 118.036 105.8 120.28ZM137.624 125.924C139.46 127.964 139.596 130.48 137.284 132.316C134.972 134.084 132.524 133.404 131.164 131.092C128.512 126.808 124.976 121.98 121.78 118.104C120.896 117.016 120.964 115.928 121.848 115.044C122.596 114.16 123.616 114.092 124.704 114.908C129.124 117.696 134.02 121.912 137.624 125.924Z" fill="#FDFDFB"/>
<path d="M209.84 123.204C212.696 124.564 213.376 126.808 212.016 129.46C210.724 132.044 208.208 132.656 205.284 130.956C198.552 127.352 191.276 119.736 186.516 111.916V132.452C186.516 135.036 184.884 136.532 182.028 136.532C179.172 136.532 177.54 135.036 177.54 132.452V115.316C171.964 121.98 163.328 128.712 154.896 132.452C153.4 133.064 152.176 132.656 151.632 131.432C150.952 130.004 151.36 128.848 152.72 128.032C161.22 122.864 169.312 115.18 174.412 107.496C174.208 107.7 173.868 107.972 173.528 108.176C171.488 109.468 169.448 108.924 168.632 106.34C168.224 105.116 167.748 103.892 167.272 102.736C164.756 107.564 161.492 111.848 158.568 114.228C157.412 115.248 156.256 115.112 155.372 114.228C154.488 113.276 154.488 112.12 155.304 110.964C159.044 106.068 161.492 99.404 162.92 91.992C163.464 89 165.028 87.912 167.68 88.388C170.264 88.796 171.42 90.564 170.808 93.352C170.468 94.712 170.06 96.14 169.584 97.568C171.42 99.132 173.188 101.036 174.48 102.872C175.296 104.096 175.568 105.252 175.16 106.272C176.112 104.844 176.86 103.416 177.54 101.92V86.892H156.8C155.168 86.892 154.148 85.872 154.148 84.104C154.148 82.336 155.168 81.384 156.8 81.384H177.54V76.216C177.54 73.632 179.172 72.204 182.028 72.204C184.884 72.204 186.516 73.632 186.516 76.216V81.384H207.392C209.092 81.384 210.044 82.336 210.044 84.104C210.044 85.872 209.092 86.892 207.392 86.892H186.516V103.484C186.992 104.164 187.468 104.844 188.012 105.524C190.46 101.512 192.228 96.82 193.52 91.584C194.2 88.796 196.036 87.98 198.688 88.728C201.204 89.476 201.884 91.448 201.136 93.624C200.66 95.052 200.048 96.48 199.368 97.84C202.088 99.744 204.74 102.124 206.916 104.708C208.684 106.68 208.684 108.856 206.644 110.42C204.672 111.916 202.428 111.44 201.068 108.992C199.776 106.68 198.416 104.368 196.92 102.192C195.152 104.912 193.18 107.292 191.072 109.264C195.9 114.568 202.224 119.532 209.84 123.204Z" fill="#FDFDFB"/>
<path d="M254.448 120.076C256.896 121.98 257.372 124.428 255.536 126.74C253.7 129.052 251.184 129.12 248.94 126.808C247.716 125.516 246.424 124.224 245.064 122.932C240.984 128.576 235.68 132.928 228.88 135.92C227.52 136.532 226.568 136.328 225.956 135.172C225.276 134.152 225.548 133.132 226.772 132.248C232.552 128.168 236.7 123.612 239.692 118.308C238.196 117.084 236.7 115.928 235.204 114.84C235 115.384 234.864 115.928 234.728 116.472C233.98 119.124 232.212 120.144 229.696 119.464C227.316 118.852 226.364 117.288 227.044 114.5C228.676 108.108 230.376 100.152 231.94 91.176H227.724C226.092 91.176 225.14 90.156 225.14 88.524C225.14 86.96 226.092 86.144 227.724 86.144H232.756C233.368 82.744 233.912 79.14 234.456 75.536C234.864 72.952 236.496 71.932 239.012 72.272C241.664 72.612 242.956 73.972 242.548 76.828L241.12 86.144H250.436C253.36 86.144 255.196 87.776 254.992 90.904C254.38 100.764 252.408 109.264 249.008 116.336C250.912 117.56 252.748 118.784 254.448 120.076ZM278.996 80.568C281.58 80.568 283.008 81.996 283.008 84.512V129.46C283.008 132.248 281.512 133.472 278.792 133.472C276.004 133.472 274.508 132.248 274.508 129.46V127.012H266.416V130.684C266.416 133.404 264.92 134.628 262.268 134.628C259.548 134.628 258.052 133.404 258.052 130.684V84.512C258.052 81.996 259.48 80.568 261.996 80.568H278.996ZM266.416 122.048H274.508V86.348C274.508 85.872 274.168 85.532 273.692 85.532H267.232C266.756 85.532 266.416 85.872 266.416 86.348V122.048ZM236.36 110.08C238.332 110.828 240.372 111.712 242.344 112.732C244.588 106.816 245.88 100.016 246.696 92.06C246.764 91.448 246.492 91.176 245.948 91.176H240.236C239.012 98.18 237.72 104.572 236.36 110.08Z" fill="#FDFDFB"/>
<path d="M358.352 114.976C361.48 129.936 359.236 133.676 353.184 134.152C349.58 134.492 345.84 134.492 341.896 134.22C334.484 133.676 333.26 131.568 333.26 124.496V75.74C333.26 73.292 334.756 72 337.408 72C340.128 72 341.488 73.292 341.488 75.74V98.384C344.412 95.664 347.336 92.332 350.124 88.524C351.96 85.94 354.476 85.804 356.448 87.572C358.556 89.408 358.624 91.924 356.516 93.896C351.824 98.52 346.316 102.056 341.488 104.232V122.66C341.488 125.448 341.964 126.196 344.684 126.4C346.996 126.604 348.968 126.604 351.348 126.4C353.592 126.196 354.068 125.04 354.068 114.976C354.068 113.684 354.884 113.004 356.04 113.004C357.264 113.004 358.012 113.48 358.352 114.976ZM329.452 99.2H323.74V120.96C325.508 120.484 327.208 120.008 328.704 119.532C330.268 118.988 331.356 119.328 331.9 120.552C332.376 121.776 332.104 123 330.948 123.68C324.216 127.76 313.54 132.18 304.292 134.696C301.096 135.58 298.852 134.424 298.24 131.228C297.696 128.304 298.852 126.196 302.184 125.72L303.34 125.516V86.62C303.34 84.308 304.632 83.152 307.148 83.152C309.596 83.152 310.888 84.308 310.888 86.62V124.02C312.452 123.748 314.016 123.408 315.512 123V76.828C315.512 74.448 316.94 73.088 319.592 73.088C322.312 73.088 323.74 74.448 323.74 76.828V93.692H329.452C331.152 93.692 332.172 94.644 332.172 96.412C332.172 98.18 331.152 99.2 329.452 99.2Z" fill="#FDFDFB"/>
<path d="M409.316 131.16C406.324 131.16 404.624 129.732 404.624 126.74V83.764C404.624 80.908 406.324 79.276 409.316 79.276C412.308 79.276 414.076 80.908 414.076 83.764V126.74C414.076 129.664 412.376 131.16 409.316 131.16Z" fill="#FDFDFB"/>
<path d="M447.08 122.66C448.1 121.3 449.8 121.028 451.364 122.048C453.404 123.408 456.396 124.836 459.932 124.836C463.672 124.836 465.44 123.68 465.44 121.3C465.44 119.192 463.469 117.56 458.096 115.18C451.228 112.188 447.08 109.196 447.08 103.688C447.08 97.84 452.724 93.828 460.884 93.828C466.529 93.828 470.744 95.528 472.648 97.296C474.008 98.588 474.28 100.424 473.26 101.716C472.104 103.144 470.064 103.416 468.364 102.26C466.392 100.832 463.876 100.22 461.156 100.22C458.164 100.22 456.26 101.58 456.26 103.416C456.26 105.388 458.3 106.612 463.332 108.856C470.676 112.12 474.892 115.248 474.892 120.756C474.892 128.1 468.296 131.228 460.952 131.228C456.124 131.228 450.548 130.072 447.692 127.352C446.264 125.992 445.924 124.156 447.08 122.66Z" fill="#FDFDFB"/>
<path d="M520.185 109.672C520.185 113.072 518.485 114.84 514.813 114.84H495.501C496.045 121.98 499.037 124.972 504.749 125.04C508.421 125.108 511.277 124.088 513.657 121.912C515.153 120.688 516.785 120.688 518.009 121.912C519.301 123.136 519.369 124.836 518.145 126.264C515.901 129.12 510.733 131.228 504.273 131.228C493.325 131.228 486.049 125.516 486.049 113.412C486.049 101.24 492.849 93.76 504.001 93.76C514.813 93.76 520.253 101.988 520.185 109.672ZM510.869 108.72C511.345 108.72 511.549 108.448 511.549 108.04C511.549 103.144 508.761 99.744 504.069 99.744C499.309 99.744 496.521 103.212 495.705 108.72H510.869Z" fill="#FDFDFB"/>
<path d="M565.535 109.672C565.535 113.072 563.835 114.84 560.163 114.84H540.851C541.395 121.98 544.387 124.972 550.099 125.04C553.771 125.108 556.627 124.088 559.007 121.912C560.503 120.688 562.135 120.688 563.359 121.912C564.651 123.136 564.719 124.836 563.495 126.264C561.251 129.12 556.083 131.228 549.623 131.228C538.675 131.228 531.399 125.516 531.399 113.412C531.399 101.24 538.199 93.76 549.351 93.76C560.163 93.76 565.603 101.988 565.535 109.672ZM556.219 108.72C556.695 108.72 556.899 108.448 556.899 108.04C556.899 103.144 554.111 99.744 549.419 99.744C544.659 99.744 541.871 103.212 541.055 108.72H556.219Z" fill="#FDFDFB"/>
<path d="M585.59 115.384C583.414 115.384 581.986 114.16 581.85 111.984L580.15 84.92C579.878 81.18 581.918 79.14 585.59 79.14C589.33 79.14 591.37 81.18 591.098 84.92L589.33 111.984C589.194 114.16 587.834 115.384 585.59 115.384ZM585.59 131.16C582.258 131.16 579.606 128.508 579.606 125.244C579.606 122.116 582.258 119.532 585.59 119.532C588.786 119.532 591.506 122.116 591.506 125.244C591.506 128.508 588.786 131.16 585.59 131.16Z" fill="#FDFDFB"/>
</svg>
