<svg width="1188" height="1114" viewBox="0 0 1188 1114" fill="none" xmlns="http://www.w3.org/2000/svg">
<g filter="url(#filter0_d_1315_6430)">
<path d="M978.255 815.518L705.042 541.846L894.307 352.63L967.789 278.868C974.505 273.832 979.564 266.903 982.315 258.967C985.066 251.032 985.383 242.453 983.227 234.336C981.07 226.218 976.538 218.932 970.213 213.412C963.887 207.892 956.057 204.39 947.728 203.358C924.124 198.321 899.662 198.958 876.351 205.218C853.041 211.477 831.545 223.179 813.63 239.365L608.23 444.95L458.432 295.236L384.95 221.474C353.769 190.266 294.679 198.122 258.265 215.581C234.498 226.929 177.369 266.426 209.64 298.944L483.071 572.397C419.837 635.396 356.749 698.538 293.806 761.827L218.58 834.284C211.858 839.334 206.801 846.285 204.06 854.237C201.319 862.19 201.02 870.782 203.202 878.906C205.383 887.031 209.946 894.314 216.301 899.819C222.656 905.325 230.513 908.797 238.859 909.793C262.44 915.022 286.932 914.504 310.27 908.275C333.608 902.046 355.108 890.292 372.957 874.005L578.357 668.426L729.245 819.227C753.667 843.669 778.088 868.327 802.727 892.77C833.908 923.978 892.999 916.122 929.194 898.881C953.616 887.533 1010.74 847.817 978.255 815.518Z" fill="#EF9152"/>
</g>
<defs>
<filter id="filter0_d_1315_6430" x="0" y="0" width="1188" height="1114" filterUnits="userSpaceOnUse" color-interpolation-filters="sRGB">
<feFlood flood-opacity="0" result="BackgroundImageFix"/>
<feColorMatrix in="SourceAlpha" type="matrix" values="0 0 0 0 0 0 0 0 0 0 0 0 0 0 0 0 0 0 127 0" result="hardAlpha"/>
<feOffset/>
<feGaussianBlur stdDeviation="100"/>
<feComposite in2="hardAlpha" operator="out"/>
<feColorMatrix type="matrix" values="0 0 0 0 1 0 0 0 0 1 0 0 0 0 1 0 0 0 1 0"/>
<feBlend mode="normal" in2="BackgroundImageFix" result="effect1_dropShadow_1315_6430"/>
<feBlend mode="normal" in="SourceGraphic" in2="effect1_dropShadow_1315_6430" result="shape"/>
</filter>
</defs>
</svg>
