<svg width="560" height="420" viewBox="0 0 560 420" fill="none" xmlns="http://www.w3.org/2000/svg">
<path d="M180.838 70.2473L125.274 197.877C124.585 199.203 124.27 200.667 124.358 202.134C124.446 203.601 124.935 205.024 125.779 206.272C126.623 207.52 127.795 208.552 129.187 209.274C130.58 209.995 132.147 210.383 133.745 210.401L266.617 214.295C270.037 214.355 273.392 213.44 276.223 211.675C279.053 209.911 281.22 207.383 282.424 204.44L334.385 73.9805C334.977 72.6408 335.198 71.1872 335.03 69.7496C334.861 68.312 334.307 66.9353 333.419 65.7424C332.53 64.5495 331.333 63.5777 329.936 62.9138C328.539 62.2499 326.984 61.9147 325.412 61.938L194.832 60.8542C188.414 60.794 183.392 64.6877 180.838 70.2473Z" fill="#DADEE3"/>
<path d="M190.335 83.7946L145.579 187.661C145.207 188.395 145.045 189.205 145.108 190.013C145.172 190.821 145.459 191.6 145.942 192.278C146.425 192.955 147.089 193.508 147.87 193.884C148.65 194.259 149.523 194.446 150.404 194.424L255.788 197.515C258.583 197.596 261.337 196.887 263.679 195.484C266.022 194.08 267.84 192.05 268.888 189.668L311.832 85.1192C312.141 84.3759 312.243 83.5736 312.131 82.7847C312.018 81.9957 311.694 81.2449 311.187 80.5999C310.681 79.9548 310.007 79.4358 309.228 79.0895C308.449 78.7433 307.588 78.5806 306.723 78.6163L200.858 77.7132C198.656 77.699 196.495 78.264 194.631 79.3415C192.766 80.4189 191.276 81.964 190.335 83.7946Z" fill="#0DACD5"/>
<path d="M275.219 114.182L200.05 113.801C199.303 113.791 198.59 113.512 198.064 113.024C197.537 112.537 197.239 111.879 197.234 111.192C197.228 110.847 197.298 110.504 197.44 110.185C197.582 109.866 197.793 109.576 198.061 109.334C198.328 109.092 198.646 108.903 198.996 108.777C199.345 108.651 199.719 108.592 200.094 108.603L275.219 108.984C275.926 109.041 276.584 109.34 277.063 109.821C277.543 110.302 277.808 110.931 277.808 111.583C277.808 112.236 277.543 112.865 277.063 113.346C276.584 113.827 275.926 114.125 275.219 114.182Z" fill="#DBE6EF"/>
<path d="M257.884 150.269L182.737 149.888C182.345 149.92 181.95 149.876 181.577 149.76C181.204 149.644 180.862 149.457 180.572 149.213C180.281 148.969 180.049 148.671 179.891 148.34C179.732 148.009 179.65 147.651 179.65 147.289C179.65 146.927 179.732 146.569 179.891 146.238C180.049 145.907 180.281 145.609 180.572 145.365C180.862 145.12 181.204 144.934 181.577 144.818C181.95 144.702 182.345 144.658 182.737 144.69L257.862 145.071C258.569 145.128 259.227 145.427 259.707 145.908C260.186 146.389 260.452 147.018 260.452 147.67C260.452 148.323 260.186 148.951 259.707 149.433C259.227 149.914 258.569 150.212 257.862 150.269H257.884Z" fill="#DBE6EF"/>
<path d="M188.457 181.982C188.075 181.984 187.696 181.916 187.343 181.781C186.656 181.508 186.115 180.996 185.837 180.356C185.559 179.717 185.567 179.003 185.859 178.369L227.908 88.1716C228.237 87.5917 228.79 87.1465 229.459 86.9241C230.128 86.7017 230.864 86.7183 231.52 86.9708C232.176 87.2232 232.706 87.693 233.003 88.2871C233.3 88.8812 233.344 89.5563 233.126 90.1787L191.077 180.417C190.855 180.885 190.488 181.282 190.022 181.561C189.556 181.839 189.012 181.986 188.457 181.982Z" fill="#DBE6EF"/>
<path d="M226.62 183.325C226.159 183.325 225.705 183.221 225.298 183.023C224.89 182.825 224.541 182.538 224.281 182.188C224.021 181.839 223.858 181.436 223.805 181.015C223.752 180.594 223.811 180.168 223.978 179.773L262.141 89.4544C262.261 89.1174 262.454 88.8064 262.709 88.5403C262.964 88.2743 263.276 88.0588 263.624 87.9071C263.973 87.7554 264.352 87.6706 264.737 87.6579C265.123 87.6452 265.507 87.7049 265.866 87.8333C266.226 87.9617 266.553 88.1561 266.828 88.4047C267.103 88.6532 267.32 88.9507 267.466 89.279C267.612 89.6073 267.684 89.9595 267.676 90.314C267.669 90.6685 267.584 91.018 267.425 91.3411L229.24 181.659C229.032 182.145 228.672 182.562 228.205 182.859C227.739 183.155 227.187 183.318 226.62 183.325Z" fill="#DBE6EF"/>
<path d="M331.7 72.7161L276.158 202.192C275.466 203.535 275.15 205.015 275.239 206.499C275.328 207.982 275.819 209.421 276.667 210.686C277.516 211.95 278.695 213 280.096 213.739C281.498 214.478 283.079 214.883 284.695 214.917L418.331 219.152C421.783 219.216 425.17 218.282 428.014 216.482C430.858 214.681 433.015 212.105 434.181 209.117L486.12 76.7905C486.703 75.4371 486.915 73.973 486.738 72.5266C486.562 71.0802 486.001 69.6958 485.107 68.4949C484.212 67.294 483.011 66.3134 481.608 65.6391C480.204 64.9648 478.643 64.6175 477.06 64.6276L345.76 63.2227C339.297 63.2227 334.276 67.1766 331.7 72.7161Z" fill="#DADEE3"/>
<path d="M341.283 86.5863L296.549 191.857C296.181 192.598 296.023 193.413 296.089 194.225C296.155 195.037 296.443 195.821 296.926 196.504C297.41 197.186 298.073 197.746 298.854 198.13C299.635 198.514 300.51 198.711 301.395 198.701L407.413 202.073C410.23 202.137 413 201.4 415.344 199.964C417.689 198.527 419.494 196.46 420.513 194.045L463.413 88.0514C463.725 87.3004 463.829 86.4899 463.716 85.6929C463.602 84.8958 463.276 84.137 462.765 83.4846C462.255 82.8321 461.576 82.3063 460.79 81.9544C460.003 81.6025 459.135 81.4355 458.261 81.4682L351.763 80.3242C349.545 80.3287 347.377 80.9221 345.517 82.033C343.658 83.144 342.188 84.7251 341.283 86.5863Z" fill="#0DACD5"/>
<path d="M426.713 117.575L351.151 117.033C350.393 117.033 349.665 116.756 349.129 116.263C348.592 115.77 348.291 115.101 348.291 114.404C348.291 113.706 348.592 113.038 349.129 112.545C349.665 112.051 350.393 111.774 351.151 111.774L426.713 112.316C427.471 112.316 428.199 112.593 428.735 113.086C429.272 113.58 429.573 114.248 429.573 114.946C429.573 115.643 429.272 116.312 428.735 116.805C428.199 117.298 427.471 117.575 426.713 117.575Z" fill="#DBE6EF"/>
<path d="M409.378 154.163L333.816 153.601C333.44 153.601 333.067 153.533 332.72 153.399C332.373 153.265 332.058 153.07 331.794 152.823C331.529 152.576 331.321 152.284 331.181 151.963C331.041 151.642 330.972 151.298 330.978 150.952C330.995 150.258 331.305 149.597 331.843 149.11C332.381 148.623 333.105 148.348 333.86 148.343L409.422 148.905C410.18 148.905 410.908 149.182 411.444 149.675C411.98 150.168 412.282 150.837 412.282 151.534C412.282 152.231 411.98 152.9 411.444 153.393C410.908 153.886 410.18 154.163 409.422 154.163H409.378Z" fill="#DBE6EF"/>
<path d="M339.646 186.197C339.263 186.191 338.885 186.116 338.533 185.976C337.84 185.702 337.294 185.188 337.011 184.545C336.729 183.902 336.735 183.183 337.026 182.544L379.076 91.1219C379.382 90.501 379.939 90.0139 380.628 89.7632C381.318 89.5126 382.087 89.518 382.772 89.7784C383.458 90.0388 384.006 90.5337 384.302 91.1588C384.598 91.7839 384.619 92.4903 384.359 93.1289L342.288 184.651C342.059 185.117 341.687 185.512 341.218 185.786C340.748 186.061 340.202 186.203 339.646 186.197Z" fill="#DBE6EF"/>
<path d="M378.027 187.622C377.676 187.622 377.327 187.561 377.001 187.441C376.65 187.319 376.329 187.134 376.056 186.897C375.783 186.66 375.564 186.375 375.412 186.06C375.26 185.744 375.177 185.404 375.169 185.059C375.16 184.714 375.227 184.371 375.364 184.049L413.505 92.5268C413.615 92.1777 413.802 91.8535 414.056 91.5745C414.309 91.2955 414.622 91.0678 414.976 90.9057C415.33 90.7437 415.717 90.6508 416.111 90.633C416.506 90.6152 416.901 90.6729 417.27 90.8023C417.64 90.9317 417.976 91.1301 418.257 91.385C418.539 91.6399 418.76 91.9457 418.907 92.2831C419.054 92.6206 419.123 92.9823 419.11 93.3455C419.097 93.7087 419.002 94.0655 418.832 94.3933L380.691 185.936C380.484 186.431 380.118 186.857 379.643 187.158C379.168 187.459 378.604 187.621 378.027 187.622Z" fill="#DBE6EF"/>
<path d="M121.585 207.09L64.9738 336.787C64.2676 338.133 63.9427 339.621 64.0293 341.113C64.116 342.606 64.6113 344.054 65.4694 345.323C66.3275 346.593 67.5204 347.642 68.9376 348.374C70.3548 349.106 71.9502 349.498 73.5758 349.512L208.784 353.385C212.262 353.444 215.674 352.511 218.551 350.713C221.429 348.916 223.63 346.344 224.852 343.35L277.796 210.883C278.39 209.526 278.61 208.054 278.436 206.6C278.262 205.145 277.699 203.753 276.798 202.547C275.896 201.341 274.685 200.359 273.27 199.687C271.856 199.016 270.283 198.677 268.692 198.7L135.842 197.656C129.292 197.576 124.205 201.53 121.585 207.09Z" fill="#DADEE3"/>
<path d="M131.234 220.939L85.6263 326.411C85.2461 327.158 85.0801 327.982 85.1443 328.805C85.2085 329.629 85.5006 330.423 85.993 331.113C86.4853 331.803 87.1614 332.365 87.957 332.747C88.7527 333.129 89.6414 333.318 90.5386 333.295L197.779 336.366C200.63 336.446 203.438 335.719 205.825 334.283C208.211 332.847 210.059 330.771 211.119 328.337L254.783 222.163C255.097 221.409 255.2 220.595 255.085 219.794C254.97 218.994 254.639 218.232 254.124 217.579C253.608 216.925 252.923 216.4 252.131 216.051C251.339 215.702 250.465 215.54 249.587 215.58L141.91 214.757C139.674 214.742 137.48 215.316 135.588 216.412C133.696 217.508 132.185 219.078 131.234 220.939Z" fill="#0DACD5"/>
<path d="M217.58 251.747L141.167 251.406C140.403 251.406 139.67 251.127 139.129 250.63C138.589 250.133 138.285 249.459 138.285 248.757C138.285 248.054 138.589 247.38 139.129 246.883C139.67 246.387 140.403 246.107 141.167 246.107L217.58 246.449C218.345 246.449 219.078 246.728 219.618 247.225C220.159 247.721 220.462 248.395 220.462 249.098C220.462 249.801 220.159 250.474 219.618 250.971C219.078 251.468 218.345 251.747 217.58 251.747Z" fill="#DBE6EF"/>
<path d="M199.919 288.396L123.506 288.055C122.742 288.055 122.009 287.775 121.468 287.279C120.928 286.782 120.624 286.108 120.624 285.405C120.624 284.703 120.928 284.029 121.468 283.532C122.009 283.035 122.742 282.756 123.506 282.756L199.919 283.097C200.683 283.097 201.416 283.376 201.957 283.873C202.497 284.37 202.801 285.044 202.801 285.746C202.801 286.449 202.497 287.123 201.957 287.62C201.416 288.117 200.683 288.396 199.919 288.396Z" fill="#DBE6EF"/>
<path d="M129.27 320.63C128.881 320.632 128.495 320.563 128.135 320.429C127.438 320.143 126.89 319.618 126.608 318.965C126.327 318.313 126.334 317.585 126.628 316.937L169.485 225.354C169.592 224.991 169.782 224.653 170.042 224.362C170.303 224.071 170.627 223.835 170.995 223.669C171.362 223.503 171.764 223.41 172.173 223.398C172.582 223.386 172.989 223.454 173.368 223.597C173.746 223.741 174.087 223.957 174.367 224.232C174.648 224.506 174.861 224.832 174.994 225.188C175.127 225.544 175.175 225.922 175.136 226.297C175.097 226.672 174.972 227.035 174.769 227.361L131.934 319.125C131.69 319.582 131.31 319.966 130.839 320.232C130.368 320.498 129.823 320.636 129.27 320.63Z" fill="#DBE6EF"/>
<path d="M168.109 321.976C167.642 321.973 167.182 321.865 166.771 321.663C166.359 321.46 166.006 321.168 165.744 320.813C165.482 320.457 165.318 320.049 165.266 319.622C165.214 319.195 165.275 318.763 165.445 318.363L204.329 226.66C204.472 226.337 204.683 226.043 204.95 225.795C205.217 225.548 205.534 225.35 205.884 225.215C206.234 225.08 206.609 225.01 206.988 225.008C207.368 225.006 207.744 225.073 208.095 225.205C208.446 225.337 208.766 225.531 209.035 225.776C209.305 226.021 209.519 226.313 209.666 226.634C209.813 226.956 209.89 227.301 209.892 227.65C209.894 227.998 209.821 228.344 209.678 228.667L170.772 320.29C170.563 320.783 170.197 321.208 169.722 321.509C169.247 321.809 168.685 321.972 168.109 321.976Z" fill="#DBE6EF"/>
<path d="M275.087 211.586L219.021 341.324C218.322 342.672 218.003 344.159 218.093 345.65C218.183 347.141 218.678 348.588 219.535 349.856C220.391 351.125 221.581 352.176 222.994 352.912C224.407 353.648 225.999 354.046 227.623 354.069L362.067 358.083C365.532 358.144 368.932 357.21 371.793 355.412C374.653 353.613 376.832 351.038 378.026 348.047L430.424 215.46C431.012 214.104 431.228 212.636 431.052 211.185C430.877 209.734 430.315 208.346 429.418 207.142C428.52 205.938 427.314 204.955 425.905 204.281C424.497 203.607 422.93 203.262 421.342 203.277L289.234 202.013C282.663 202.073 277.619 206.027 275.087 211.586Z" fill="#DADEE3"/>
<path d="M284.651 225.453L239.48 330.945C239.108 331.693 238.948 332.515 239.015 333.334C239.081 334.154 239.372 334.945 239.859 335.634C240.347 336.323 241.017 336.887 241.805 337.275C242.594 337.662 243.477 337.86 244.371 337.85L351.022 341.201C353.862 341.286 356.661 340.559 359.034 339.122C361.407 337.684 363.238 335.606 364.274 333.173L407.589 226.959C407.9 226.205 408.003 225.392 407.889 224.593C407.775 223.793 407.446 223.032 406.934 222.378C406.421 221.724 405.74 221.197 404.951 220.844C404.163 220.491 403.291 220.323 402.415 220.356L295.262 219.332C293.04 219.306 290.857 219.87 288.975 220.955C287.093 222.041 285.592 223.603 284.651 225.453Z" fill="#0DACD5"/>
<path d="M370.56 256.422L294.539 255.941C293.821 255.883 293.153 255.58 292.666 255.091C292.178 254.603 291.908 253.964 291.908 253.301C291.908 252.639 292.178 252 292.666 251.511C293.153 251.023 293.821 250.72 294.539 250.662L370.582 251.144C371.3 251.201 371.968 251.504 372.456 251.993C372.943 252.482 373.213 253.12 373.213 253.783C373.213 254.446 372.943 255.085 372.456 255.573C371.968 256.062 371.3 256.365 370.582 256.422H370.56Z" fill="#DBE6EF"/>
<path d="M353.051 293.032L277.009 292.571C276.291 292.513 275.622 292.21 275.135 291.721C274.648 291.233 274.378 290.594 274.378 289.931C274.378 289.269 274.648 288.63 275.135 288.141C275.622 287.653 276.291 287.35 277.009 287.292L353.029 287.754C353.428 287.722 353.828 287.766 354.207 287.884C354.585 288.002 354.933 288.192 355.227 288.44C355.522 288.688 355.757 288.99 355.918 289.326C356.079 289.662 356.162 290.026 356.162 290.393C356.162 290.76 356.079 291.124 355.918 291.46C355.757 291.796 355.522 292.098 355.227 292.346C354.933 292.594 354.585 292.783 354.207 292.902C353.828 293.02 353.428 293.064 353.029 293.032H353.051Z" fill="#DBE6EF"/>
<path d="M282.882 325.147C282.493 325.149 282.107 325.08 281.747 324.946C281.399 324.811 281.083 324.613 280.818 324.365C280.554 324.116 280.346 323.822 280.205 323.499C280.065 323.176 279.996 322.831 280.002 322.483C280.008 322.136 280.089 321.793 280.24 321.474L322.661 229.871C322.963 229.228 323.53 228.721 324.238 228.462C324.946 228.202 325.737 228.211 326.438 228.486C326.785 228.62 327.1 228.816 327.365 229.062C327.629 229.309 327.837 229.601 327.978 229.922C328.118 230.244 328.187 230.587 328.181 230.934C328.175 231.28 328.095 231.621 327.944 231.938L285.524 323.541C285.302 324.017 284.934 324.422 284.464 324.708C283.995 324.993 283.445 325.146 282.882 325.147Z" fill="#DBE6EF"/>
<path d="M321.481 326.632C321.13 326.632 320.782 326.571 320.455 326.451C319.762 326.207 319.198 325.726 318.881 325.109C318.564 324.492 318.518 323.787 318.752 323.139L357.243 231.416C357.532 230.761 358.093 230.239 358.801 229.965C359.51 229.69 360.308 229.685 361.02 229.951C361.732 230.217 362.3 230.733 362.599 231.384C362.898 232.035 362.903 232.769 362.614 233.423L324.123 325.146C323.88 325.598 323.503 325.977 323.036 326.24C322.568 326.503 322.029 326.639 321.481 326.632Z" fill="#DBE6EF"/>
<path opacity="0.4" d="M408.484 270.934L392 312.601L213.128 60.9941L259.5 61.3755L408.484 270.934Z" fill="#FDFDFB"/>
<path d="M92.4172 21.7363L140.536 71.6924L105.364 79.1185L136.126 123.736L70.0391 69.8057L106.652 62.7007L92.4172 21.7363Z" fill="#F1E765"/>
<path d="M34.9531 102.119L84.5125 112.456L67.8108 129.877L105.101 143.686L43.5987 137.845L61.2611 120.062L34.9531 102.119Z" fill="#F1E765"/>
</svg>
