<svg width="560" height="420" viewBox="0 0 560 420" fill="none" xmlns="http://www.w3.org/2000/svg">
<path d="M209.088 42.9314V38.4757C209.111 36.0967 210.028 33.7982 211.683 31.9694C213.338 30.1406 215.63 28.8938 218.17 28.4403C232.558 25.8914 261.507 21.3955 286.331 21.3955V42.9314H209.088Z" fill="#9D9892"/>
<path d="M363.509 42.9314V38.4757C363.49 36.0957 362.574 33.7952 360.919 31.9656C359.263 30.136 356.969 28.8903 354.426 28.4403C340.039 25.8914 311.111 21.3955 286.266 21.3955V42.9314H363.509Z" fill="#9D9892"/>
<path d="M159.442 136.682H116.126C108.599 136.682 101.38 133.933 96.0571 129.04C90.7344 124.147 87.7441 117.51 87.7441 110.59V56.1982H105.21V110.61C105.21 113.272 106.36 115.824 108.407 117.706C110.455 119.588 113.231 120.645 116.126 120.645H159.442V136.682Z" fill="#B3AEA6"/>
<path d="M168.109 385.237L155.752 341.082C155.643 340.77 155.606 340.441 155.641 340.115C155.675 339.789 155.782 339.473 155.955 339.186C156.127 338.9 156.361 338.648 156.642 338.448C156.924 338.247 157.247 338.101 157.592 338.019C157.937 337.937 158.296 337.921 158.648 337.971C159 338.021 159.338 338.136 159.639 338.31C159.941 338.484 160.201 338.713 160.404 338.982C160.606 339.252 160.747 339.557 160.817 339.878L171.733 378.694L266.201 343.37C266.834 343.175 267.523 343.209 268.129 343.465C268.736 343.721 269.213 344.18 269.463 344.748C269.714 345.317 269.719 345.951 269.478 346.523C269.237 347.095 268.768 347.561 268.166 347.826L168.109 385.237Z" fill="#BAB3AD"/>
<path d="M167.847 393.567C167.374 393.566 166.904 393.505 166.45 393.386C165.113 393.044 163.979 392.229 163.295 391.119C162.612 390.009 162.435 388.695 162.804 387.465L174.135 349.933C174.299 349.304 174.6 348.711 175.019 348.19C175.438 347.67 175.967 347.232 176.574 346.904C177.181 346.576 177.854 346.363 178.553 346.28C179.251 346.196 179.961 346.243 180.639 346.417C181.318 346.591 181.951 346.889 182.501 347.293C183.052 347.698 183.508 348.2 183.842 348.77C184.176 349.34 184.382 349.966 184.447 350.61C184.513 351.255 184.436 351.905 184.221 352.522L172.89 390.035C172.585 391.049 171.927 391.944 171.016 392.582C170.105 393.22 168.992 393.566 167.847 393.567Z" fill="#A69E94"/>
<path d="M404.575 385.238L304.561 347.826C304.235 347.712 303.936 347.538 303.684 347.316C303.431 347.094 303.23 346.828 303.091 346.533C302.952 346.238 302.879 345.921 302.875 345.599C302.872 345.278 302.938 344.959 303.071 344.662C303.203 344.365 303.399 344.095 303.647 343.868C303.895 343.642 304.189 343.463 304.513 343.343C304.837 343.222 305.184 343.163 305.534 343.167C305.883 343.172 306.228 343.241 306.548 343.37L401.017 378.695L411.933 339.878C412.107 339.261 412.541 338.733 413.139 338.409C413.736 338.086 414.449 337.993 415.12 338.152C415.792 338.313 416.368 338.711 416.724 339.259C417.079 339.807 417.186 340.462 417.02 341.082L404.575 385.238Z" fill="#BAB3AD"/>
<path d="M404.816 393.567C403.672 393.562 402.56 393.215 401.65 392.577C400.74 391.94 400.081 391.047 399.772 390.034L388.442 352.522C388.068 351.29 388.242 349.972 388.926 348.858C389.61 347.743 390.747 346.925 392.088 346.581C393.428 346.238 394.862 346.398 396.074 347.027C397.286 347.655 398.176 348.701 398.55 349.933L409.859 387.465C410.045 388.074 410.097 388.711 410.014 389.338C409.931 389.966 409.714 390.573 409.376 391.123C409.037 391.673 408.583 392.156 408.04 392.545C407.497 392.933 406.876 393.219 406.213 393.386C405.759 393.505 405.288 393.566 404.816 393.567Z" fill="#A69E94"/>
<path d="M366.893 42.9307H205.748C171.432 42.9307 143.613 68.5048 143.613 100.052V302.766C143.613 334.314 171.432 359.888 205.748 359.888H366.893C401.209 359.888 429.028 334.314 429.028 302.766V100.052C429.028 68.5048 401.209 42.9307 366.893 42.9307Z" fill="#DDDAD6"/>
<path d="M368.771 356.859H215.814C212.32 356.859 208.805 356.859 205.334 356.859C189.98 356.283 175.492 350.168 165.01 339.839C154.654 329.656 148.84 316.266 148.723 302.326C148.723 300.159 148.723 297.991 148.723 295.844V101.158C148.544 93.2929 150.096 85.476 153.286 78.1766C158.985 65.549 169.761 55.4274 183.371 49.917C196.077 44.8994 210.028 45.9029 223.52 45.9029H347.266C361.872 45.9029 376.5 44.9997 390.101 51.0611C411.541 60.7151 423.963 80.7055 423.963 102.362V297.289C423.963 299.617 423.963 301.945 423.963 304.273C423.763 318.59 417.497 332.271 406.497 342.408C396.461 351.562 382.952 356.778 368.815 356.959C366.5 356.959 363.313 357.541 362.265 359.648C361.217 361.756 363.16 363.02 365.19 363.02C382.141 363.045 398.547 357.524 411.475 347.445C423.595 337.879 431.505 324.577 433.722 310.034C435.054 300.922 434.268 291.328 434.268 282.175V113.782C434.268 101.74 434.923 89.8778 430.164 78.4175C425.214 66.9373 416.59 57.1087 405.433 50.2314C394.276 43.3541 381.111 39.7521 367.679 39.9017H209.875C200.197 39.7449 190.571 41.2492 181.493 44.3374C166.449 49.6507 153.951 59.7103 146.234 72.7174C141.176 81.5225 138.566 91.341 138.636 101.298V279.406C138.636 287.334 138.636 295.282 138.636 303.21C138.576 317.967 144.473 332.22 155.185 343.211C166.134 354.126 181.022 361.016 197.081 362.599C201.707 362.943 206.35 363.057 210.989 362.94H365.06C367.352 362.94 370.539 362.338 371.609 360.23C372.679 358.123 370.78 356.859 368.771 356.859Z" fill="#DDDAD6"/>
<path d="M228.628 96.2191C228.628 84.0924 217.935 74.2617 204.744 74.2617C191.553 74.2617 180.859 84.0924 180.859 96.2191V318.542C180.859 330.669 191.553 340.5 204.744 340.5C217.935 340.5 228.628 330.669 228.628 318.542V96.2191Z" fill="#BAB6AE"/>
<path d="M176.689 94.8347H363.792C372.525 94.8347 381.149 94.9752 389.816 94.8347H390.187C392.697 94.8489 395.164 94.2386 397.327 93.0685C398.811 92.1854 398.855 91.2822 396.803 91.2822H209.721C200.988 91.2822 192.364 91.1417 183.697 91.2822H183.326C180.816 91.265 178.348 91.8755 176.187 93.0484C174.68 93.9315 174.637 94.8347 176.689 94.8347Z" fill="#FDFDFD"/>
<path d="M176.689 150.53H363.792C372.525 150.53 381.149 150.67 389.816 150.53H390.187C392.695 150.551 395.162 149.948 397.327 148.784C398.811 147.881 398.855 146.977 396.803 146.977H209.721C200.988 146.977 192.364 146.857 183.697 146.977C183.574 146.987 183.449 146.987 183.326 146.977C180.816 146.96 178.348 147.571 176.187 148.744C174.68 149.647 174.637 150.53 176.689 150.53Z" fill="#FDFDFD"/>
<path d="M176.689 163.918H363.792C372.525 163.918 381.149 164.058 389.816 163.918H390.187C392.697 163.932 395.164 163.322 397.327 162.151C398.811 161.268 398.855 160.365 396.803 160.365H209.721C200.988 160.365 192.364 160.225 183.697 160.365H183.326C180.816 160.348 178.348 160.958 176.187 162.131C174.68 163.015 174.637 163.918 176.689 163.918Z" fill="#FDFDFD"/>
<path d="M176.689 220.779H363.792C372.525 220.779 381.149 220.92 389.816 220.779H390.187C392.697 220.793 395.164 220.183 397.327 219.013C398.811 218.13 398.855 217.227 396.803 217.227H209.721C200.988 217.227 192.364 217.086 183.697 217.227H183.326C180.816 217.209 178.348 217.82 176.187 218.993C174.68 219.876 174.637 220.779 176.689 220.779Z" fill="#FDFDFD"/>
<path d="M176.689 234.044H363.792C372.525 234.044 381.149 234.184 389.816 234.044H390.187C392.697 234.058 395.164 233.448 397.327 232.277C398.811 231.394 398.855 230.491 396.803 230.491H209.721C200.988 230.491 192.364 230.351 183.697 230.491H183.326C180.816 230.474 178.348 231.084 176.187 232.257C174.68 233.14 174.637 234.044 176.689 234.044Z" fill="#FDFDFD"/>
<path d="M176.689 290.824H363.792C372.525 290.824 381.149 290.964 389.816 290.824H390.187C392.697 290.838 395.164 290.228 397.327 289.058C398.811 288.175 398.855 287.271 396.803 287.271H209.721C200.988 287.271 192.364 287.131 183.697 287.271H183.326C180.816 287.254 178.348 287.865 176.187 289.038C174.68 289.921 174.637 290.824 176.689 290.824Z" fill="#FDFDFD"/>
<path d="M176.689 304.173H363.792C372.525 304.173 381.149 304.314 389.816 304.173H390.187C392.695 304.195 395.162 303.591 397.327 302.427C398.811 301.524 398.855 300.621 396.803 300.621H209.721C200.988 300.621 192.364 300.5 183.697 300.621H183.326C180.816 300.604 178.348 301.214 176.187 302.387C174.68 303.29 174.637 304.173 176.689 304.173Z" fill="#FDFDFD"/>
<path d="M292.597 179.634C291.965 178.913 291.165 178.332 290.257 177.933C289.348 177.533 288.354 177.326 287.347 177.326C286.34 177.326 285.345 177.533 284.437 177.933C283.528 178.332 282.728 178.913 282.096 179.634C273.363 188.987 257.207 209.058 262.971 225.656C270.787 248.115 303.776 248.978 310.718 225.656C315.805 208.456 300.916 188.887 292.597 179.634Z" fill="#FDFDFB"/>
<path d="M287.444 247.934C280.707 247.85 274.176 245.786 268.806 242.045C263.436 238.304 259.509 233.081 257.6 227.141C251.05 208.395 267.468 187.14 277.816 176.141C278.994 174.857 280.466 173.827 282.128 173.127C283.789 172.426 285.598 172.072 287.425 172.089C289.253 172.107 291.053 172.495 292.699 173.227C294.344 173.959 295.793 175.015 296.942 176.322C306.57 187.02 321.874 207.813 316.176 226.94C312.464 239.424 301.439 247.673 288.099 247.914L287.444 247.934ZM287.313 182.464C287.125 182.476 286.942 182.525 286.776 182.608C286.61 182.691 286.466 182.806 286.353 182.945C279.279 190.472 263.342 209.539 268.363 223.97C269.519 227.897 272.06 231.361 275.589 233.817C279.118 236.272 283.434 237.581 287.859 237.538C296.33 237.377 302.836 232.38 305.325 224.191C309.844 209.057 294.933 190.311 288.296 182.945C288.187 182.812 288.049 182.7 287.892 182.617C287.734 182.535 287.559 182.482 287.379 182.464H287.313Z" fill="#FDFDFB"/>
<path d="M292.597 179.634C291.965 178.913 291.165 178.332 290.257 177.933C289.348 177.533 288.354 177.326 287.347 177.326C286.34 177.326 285.345 177.533 284.437 177.933C283.528 178.332 282.728 178.913 282.096 179.634C273.363 188.987 257.207 209.058 262.971 225.656C270.787 248.115 303.776 248.978 310.718 225.656C315.805 208.456 300.916 188.887 292.597 179.634Z" fill="#62B4D9"/>
<path d="M295.26 229.469C294.855 229.468 294.457 229.376 294.099 229.201C293.741 229.026 293.435 228.774 293.208 228.466C292.772 227.913 292.575 227.231 292.655 226.552C292.736 225.873 293.089 225.246 293.645 224.793C302.989 217.467 294.431 201.892 294.322 201.732C293.557 200.507 292.64 198.54 293.863 197.717C294.153 197.536 294.481 197.413 294.826 197.356C295.17 197.299 295.525 197.31 295.865 197.388C296.205 197.466 296.523 197.608 296.799 197.807C297.075 198.006 297.302 198.255 297.465 198.54C297.968 199.343 309.888 218.611 296.854 228.827C296.423 229.209 295.858 229.437 295.26 229.469Z" fill="#D0E9F9"/>
</svg>
