<svg width="560" height="420" viewBox="0 0 560 420" fill="none" xmlns="http://www.w3.org/2000/svg">
<path d="M451.799 238.22H28.0547L100.778 67.8193H524.501L451.799 238.22Z" fill="#BEE1F5"/>
<path d="M124.684 249.701C121.999 250.503 118.266 252.049 117.654 254.277C117.4 255.792 117.58 257.342 118.178 258.773C118.765 260.042 119.069 261.407 119.074 262.787C118.361 264.902 116.881 266.73 114.882 267.965C112.699 269.671 110.384 271.497 109.991 273.785C109.86 274.548 112.349 273.605 112.742 273.464C113.598 273.148 114.424 272.765 115.209 272.32C115.58 272.12 116.41 271.698 116.476 271.377C117.109 267.664 122.763 265.456 124.837 262.124C126.584 259.315 124.663 256.645 124.16 253.976C123.997 253.268 123.997 252.536 124.16 251.828C124.246 251.505 124.394 251.199 124.597 250.925C124.597 250.925 124.597 250.684 124.837 250.684L124.204 251.065C123.779 251.335 123.316 251.551 122.829 251.708C121.824 252.069 121.562 252.169 122.086 252.009C123.691 251.658 125.185 250.971 126.453 250.002C127.304 249.078 125.296 249.62 124.75 249.781L124.684 249.701Z" fill="#D8C381"/>
<path d="M119.947 259.374C115.921 261.014 112.229 263.275 109.031 266.057C108.528 266.499 108.266 267.242 109.031 267.523C109.445 267.611 109.878 267.601 110.287 267.492C110.696 267.383 111.068 267.179 111.367 266.9C112.703 265.693 114.165 264.611 115.733 263.669C117.351 262.706 119.053 261.867 120.82 261.16C121.562 260.859 122.305 260.157 122.043 259.575C121.781 258.992 120.733 259.093 120.056 259.374H119.947Z" fill="#D8C381"/>
<path d="M121.17 257.388C123.964 259.776 127.283 261.944 128.112 265.216C128.265 265.818 129.466 265.637 130.034 265.396C130.601 265.155 131.475 264.473 131.322 263.871C130.47 260.439 126.955 258.131 124.095 255.622C123.091 254.759 120.165 256.505 121.17 257.388Z" fill="#D8C381"/>
<path d="M105.887 217.809C105.887 217.809 80.1902 199.745 79.688 186.097C79.1859 172.449 94.2939 173.714 94.2939 173.714" fill="#94BF00"/>
<path d="M116.104 163.357C116.104 163.357 86.761 163.818 89.0534 180.356C90.5874 190.497 95.1183 200.057 102.153 207.994C107.462 218.327 109.721 229.762 108.703 241.151C108.703 241.151 106.803 256.706 123.789 253.876C140.774 251.046 134.705 243.84 134.028 227.422C133.351 211.004 144.944 207.552 152.018 190.713C159.092 173.874 133.002 152.538 116.104 163.357Z" fill="#B8D25F"/>
<path d="M120.58 194.063C120.58 195.81 120.275 216.904 120.449 218.67C121.497 229.348 120.144 237.396 119.685 248.094C119.489 252.489 127.392 250.101 127.545 246.789C128.025 235.59 124.488 188.444 123.397 177.264C123.222 175.538 119.947 176.1 120.58 194.063Z" fill="#F6F3EA"/>
<path d="M136.757 192.098C135.872 194.684 134.261 197.01 132.085 198.841C129.684 200.728 126.802 202.233 124.422 204.16C123.265 205.083 124.99 206.569 126.147 205.645C128.701 203.638 131.845 202.012 134.334 199.905C136.592 197.908 138.273 195.424 139.224 192.68C139.705 191.475 137.238 190.853 136.757 192.098Z" fill="#F6F3EA"/>
<path d="M115.711 183.506C115.663 185.318 116.295 187.09 117.502 188.524C118.833 189.929 120.602 191.033 121.868 192.538C122.479 193.22 120.798 194.344 120.187 193.642C118.79 192.137 116.847 190.972 115.515 189.407C114.291 187.849 113.648 185.969 113.681 184.048C113.659 183.065 115.668 182.643 115.711 183.506Z" fill="#F6F3EA"/>
<path d="M106.389 192.941L114.707 205.927C115.428 207.071 117.764 206.208 117.022 205.044L108.725 192.058C108.07 190.894 105.669 191.777 106.389 192.941Z" fill="#F6F3EA"/>
<path d="M134.946 179.471L129.313 187.5C128.811 188.222 126.541 187.279 127.13 186.556L133.352 179.251C133.767 178.628 135.426 178.749 134.946 179.471Z" fill="#F6F3EA"/>
<path d="M411.212 246.147C408.526 246.95 404.793 248.496 404.182 250.724C403.926 252.232 404.107 253.776 404.706 255.199C405.297 256.468 405.602 257.833 405.601 259.213C404.885 261.328 403.406 263.154 401.409 264.392C399.226 266.098 396.912 267.924 396.519 270.212C396.388 270.975 398.877 270.032 399.27 269.891C400.122 269.566 400.946 269.184 401.737 268.747C402.108 268.546 402.937 268.125 403.003 267.784C403.658 264.091 409.291 261.883 411.365 258.531C413.111 255.721 411.19 253.052 410.688 250.382C410.535 249.68 410.535 248.957 410.688 248.255C410.773 247.932 410.921 247.626 411.125 247.352C411.125 247.352 411.125 247.111 411.365 247.091C411.605 247.071 410.382 247.693 410.732 247.492C410.305 247.755 409.843 247.964 409.356 248.114C408.352 248.496 408.112 248.596 408.614 248.435C410.215 248.078 411.708 247.392 412.98 246.428C413.832 245.505 411.823 246.047 411.277 246.208L411.212 246.147Z" fill="#D8C381"/>
<path d="M406.475 255.822C402.444 257.455 398.751 259.716 395.559 262.506C395.078 262.947 394.794 263.69 395.559 263.971C395.973 264.059 396.406 264.049 396.815 263.94C397.224 263.831 397.596 263.627 397.895 263.349C399.236 262.147 400.698 261.065 402.261 260.117C403.869 259.138 405.572 258.299 407.348 257.608C408.068 257.307 408.811 256.605 408.549 256.023C408.287 255.441 407.239 255.541 406.562 255.822H406.475Z" fill="#D8C381"/>
<path d="M407.764 253.814C410.536 256.203 413.855 258.37 414.684 261.662C414.837 262.264 416.038 262.084 416.627 261.843C417.217 261.602 418.047 260.919 417.894 260.297C417.042 256.865 413.527 254.557 410.689 252.068C409.685 251.205 406.759 252.951 407.764 253.814Z" fill="#D8C381"/>
<path d="M392.327 214.235C392.327 214.235 366.631 196.171 366.128 182.543C365.626 168.915 380.734 170.14 380.734 170.14" fill="#94BF00"/>
<path d="M402.633 159.803C402.633 159.803 373.312 160.265 375.582 176.803C377.112 186.945 381.643 196.505 388.682 204.44C393.986 214.775 396.244 226.208 395.232 237.597C395.232 237.597 393.332 253.152 410.318 250.322C427.303 247.492 421.234 240.287 420.579 223.869C419.924 207.451 431.495 203.999 438.547 187.16C445.599 170.32 419.553 148.885 402.633 159.803Z" fill="#B8D25F"/>
<path d="M407.174 190.491C407.174 192.257 406.868 213.352 407.043 215.118C408.091 225.795 406.737 233.844 406.279 244.521C406.083 248.937 413.986 246.528 414.139 243.237C414.619 232.037 411.104 184.891 409.991 173.712C409.772 171.986 406.497 172.608 407.174 190.491Z" fill="#F6F3EA"/>
<path d="M423.286 188.525C422.391 191.127 420.755 193.463 418.549 195.289C416.125 197.175 413.243 198.681 410.864 200.587C409.706 201.511 411.431 203.016 412.588 202.073C415.143 200.066 418.287 198.44 420.797 196.353C423.074 194.366 424.777 191.89 425.753 189.147C426.234 187.903 423.766 187.301 423.286 188.525Z" fill="#F6F3EA"/>
<path d="M402.239 179.955C402.19 181.771 402.831 183.545 404.051 184.973C405.361 186.378 407.13 187.482 408.418 188.987C409.051 189.67 407.37 190.794 406.737 190.111C405.339 188.586 403.396 187.422 402.065 185.876C400.841 184.318 400.198 182.439 400.231 180.517C400.187 179.514 402.196 179.032 402.239 179.955Z" fill="#F6F3EA"/>
<path d="M392.939 189.368L401.235 202.374C401.977 203.518 404.292 202.635 403.549 201.491L395.253 188.505C394.511 187.341 392.197 188.224 392.939 189.368Z" fill="#F6F3EA"/>
<path d="M421.473 175.9L415.841 183.928C415.339 184.631 413.068 183.687 413.657 182.985L419.88 175.679C420.273 174.977 421.976 175.198 421.473 175.9Z" fill="#F6F3EA"/>
<path d="M196.884 260.338C194.7 261.02 191.447 262.345 190.923 264.211C190.704 265.496 190.855 266.81 191.36 268.025C191.862 269.117 192.122 270.291 192.124 271.477C191.514 273.27 190.26 274.82 188.566 275.872C186.627 277.056 185.163 278.79 184.396 280.81C184.286 281.472 186.426 280.669 186.754 280.529C187.513 280.273 188.245 279.95 188.937 279.565C189.242 279.405 189.963 279.043 190.007 278.762C190.552 275.611 195.355 273.745 197.124 270.895C198.608 268.506 196.971 266.238 196.534 263.97C196.403 263.374 196.403 262.76 196.534 262.164C196.617 261.888 196.742 261.624 196.906 261.381C196.906 261.381 196.906 261.181 197.124 261.181L196.578 261.502C196.213 261.73 195.817 261.912 195.399 262.044C194.548 262.365 194.351 262.445 194.788 262.304C196.139 261.981 197.388 261.369 198.434 260.518C199.176 259.735 197.473 260.197 196.993 260.338H196.884Z" fill="#D8C381"/>
<path d="M192.866 268.546C189.433 269.931 186.286 271.853 183.566 274.226C183.129 274.607 182.911 275.249 183.566 275.47C183.918 275.541 184.284 275.53 184.63 275.439C184.977 275.348 185.294 275.179 185.552 274.948C186.681 273.93 187.909 273.01 189.22 272.199C190.607 271.377 192.068 270.665 193.587 270.071C194.198 269.81 194.853 269.208 194.635 268.726C194.416 268.245 193.499 268.305 192.932 268.546H192.866Z" fill="#D8C381"/>
<path d="M193.958 266.941C196.316 268.949 199.154 270.815 199.853 273.585C199.984 274.107 200.988 273.946 201.49 273.745C201.992 273.545 202.713 272.963 202.582 272.441C201.84 269.531 198.914 267.564 196.447 265.436C195.596 264.714 193.107 266.199 193.958 266.941Z" fill="#D8C381"/>
<path d="M180.837 233.222C180.837 233.222 159.005 217.848 158.525 206.287C158.045 194.726 170.926 195.75 170.926 195.75" fill="#94BF00"/>
<path d="M189.614 186.959C189.614 186.959 164.681 187.36 166.625 201.41C167.899 210.023 171.729 218.148 177.694 224.893C182.187 233.651 184.1 243.341 183.239 252.992C183.239 252.992 181.645 266.198 196.055 263.81C210.464 261.421 205.355 255.3 204.788 241.331C204.22 227.361 214.066 224.451 220.07 210.121C226.074 195.79 203.98 177.686 189.614 186.959Z" fill="#B8D25F"/>
<path d="M193.391 213.05C193.391 214.555 193.151 232.458 193.391 233.964C194.286 243.035 193.129 249.88 192.736 258.952C192.561 262.705 199.285 260.658 199.416 257.848C199.831 248.334 196.818 208.273 195.901 198.78C195.661 197.314 192.867 197.776 193.391 213.05Z" fill="#F6F3EA"/>
<path d="M207.145 211.386C206.392 213.596 204.995 215.574 203.106 217.106C201.053 218.732 198.63 219.996 196.556 221.622C195.574 222.405 197.036 223.629 198.019 222.887C200.202 221.14 202.866 219.796 204.983 218.009C206.93 216.33 208.38 214.224 209.197 211.888C209.655 210.844 207.559 210.322 207.145 211.386Z" fill="#F6F3EA"/>
<path d="M189.264 204.079C189.232 205.622 189.77 207.129 190.793 208.354C191.928 209.538 193.434 210.481 194.526 211.685C195.05 212.268 193.609 213.211 193.085 212.629C191.906 211.344 190.269 210.361 189.133 209.036C188.088 207.714 187.536 206.115 187.561 204.48C187.518 203.697 189.242 203.296 189.264 204.079Z" fill="#F6F3EA"/>
<path d="M181.361 212.087L188.413 223.126C189.046 224.109 191.011 223.367 190.378 222.383L183.326 211.344C182.715 210.361 180.728 211.124 181.361 212.087Z" fill="#F6F3EA"/>
<path d="M205.617 200.708L200.835 207.532C200.399 208.134 198.477 207.331 198.892 206.729L204.197 200.527C204.612 199.865 206.031 200.045 205.617 200.708Z" fill="#F6F3EA"/>
<path d="M270.721 247.593C267.905 248.436 263.975 250.042 263.32 252.39C263.061 253.986 263.249 255.616 263.866 257.127C264.496 258.471 264.822 259.918 264.827 261.382C264.521 263.489 262.382 265.255 260.46 266.821C258.539 268.386 255.723 270.554 255.286 272.963C255.155 273.765 257.775 272.782 258.19 272.621C259.091 272.296 259.96 271.899 260.788 271.437C261.181 271.216 262.054 270.775 262.12 270.414C262.796 266.52 268.669 264.192 270.852 260.679C272.686 257.709 270.678 254.899 270.132 252.089C269.968 251.347 269.968 250.583 270.132 249.841C270.219 249.497 270.375 249.17 270.591 248.878C270.591 248.878 270.7 248.637 270.852 248.617C271.005 248.597 269.805 249.239 270.176 249.038C269.728 249.326 269.234 249.549 268.713 249.701C267.665 250.102 267.403 250.202 267.949 250.042C269.63 249.633 271.184 248.87 272.49 247.814C273.407 246.851 271.289 247.412 270.7 247.593H270.721Z" fill="#D8C381"/>
<path d="M265.744 257.768C261.481 259.487 257.574 261.87 254.194 264.813C253.67 265.275 253.387 266.058 254.194 266.359C254.633 266.447 255.089 266.432 255.52 266.317C255.951 266.201 256.343 265.988 256.661 265.696C258.064 264.431 259.591 263.289 261.224 262.284C262.927 261.27 264.716 260.384 266.573 259.635C267.338 259.334 268.123 258.591 267.861 257.989C267.6 257.387 266.464 257.467 265.678 257.768H265.744Z" fill="#D8C381"/>
<path d="M267.076 255.662C270.001 258.171 273.516 260.459 274.39 263.911C274.542 264.553 275.809 264.372 276.42 264.112C277.031 263.851 277.926 263.128 277.774 262.486C276.857 258.873 273.232 256.465 270.176 253.815C269.106 252.892 266.028 254.759 267.076 255.662Z" fill="#D8C381"/>
<path d="M250.831 213.974C250.831 213.974 223.781 194.927 223.17 180.637C222.558 166.346 238.452 167.591 238.452 167.591" fill="#94BF00"/>
<path d="M261.704 156.653C261.704 156.653 230.812 157.135 233.213 174.556C234.806 185.226 239.548 195.291 246.924 203.658C252.507 214.544 254.879 226.588 253.801 238.582C253.801 238.582 251.814 254.959 269.695 251.989C287.576 249.018 281.223 241.452 280.48 224.131C279.738 206.81 291.986 203.197 299.431 185.454C306.876 167.712 279.498 145.152 261.704 156.653Z" fill="#B8D25F"/>
<path d="M266.398 188.966C266.398 190.832 266.093 213.051 266.267 214.897C267.381 226.137 265.962 234.607 265.459 245.886C265.263 250.523 273.581 247.893 273.734 244.501C274.258 232.72 270.546 183.065 269.367 171.303C269.193 169.477 265.743 170.059 266.398 188.966Z" fill="#F6F3EA"/>
<path d="M283.449 186.899C282.479 189.645 280.722 192.099 278.362 194.004C275.808 196.011 272.773 197.597 270.262 199.604C269.062 200.587 270.874 202.153 272.096 201.17C274.782 199.002 278.078 197.336 280.829 195.148C283.235 193.063 285.03 190.454 286.047 187.562C286.549 186.257 283.951 185.595 283.449 186.899Z" fill="#F6F3EA"/>
<path d="M261.29 177.866C261.239 179.772 261.902 181.635 263.168 183.145C264.565 184.63 266.421 185.794 267.796 187.279C268.451 188.002 266.661 189.287 266.006 188.464C264.543 186.858 262.513 185.634 261.094 183.988C259.809 182.355 259.135 180.383 259.172 178.368C259.129 177.405 261.246 176.903 261.29 177.866Z" fill="#F6F3EA"/>
<path d="M251.465 187.801L260.198 201.47C260.962 202.694 263.408 201.771 262.644 200.546L253.911 186.858C253.147 185.654 250.701 186.657 251.465 187.801Z" fill="#F6F3EA"/>
<path d="M281.528 173.612L275.612 182.062C275.088 182.805 272.686 181.801 273.21 181.059L279.76 173.372C280.306 172.609 282.052 172.87 281.528 173.612Z" fill="#F6F3EA"/>
<path d="M341.13 262.385C338.772 263.087 335.497 264.392 334.973 266.399C334.721 267.75 334.88 269.139 335.432 270.413C335.939 271.54 336.206 272.746 336.218 273.966C335.59 275.816 334.297 277.416 332.55 278.502C330.672 280.007 328.598 281.593 328.184 283.6C328.184 284.282 330.367 283.439 330.607 283.319C331.366 283.046 332.097 282.71 332.79 282.315C333.096 282.134 333.838 281.773 333.882 281.472C334.449 278.241 339.405 276.314 341.217 273.444C342.746 270.975 341.065 268.647 340.628 266.299C340.486 265.683 340.486 265.047 340.628 264.432C340.714 264.151 340.839 263.881 340.999 263.629C340.999 263.629 340.999 263.429 341.217 263.408C341.436 263.388 340.366 263.93 340.672 263.77C340.289 263.994 339.878 264.176 339.449 264.312C338.576 264.633 338.357 264.733 338.816 264.593C340.213 264.253 341.505 263.621 342.593 262.746C343.335 261.923 341.589 262.405 341.108 262.545L341.13 262.385Z" fill="#D8C381"/>
<path d="M336.982 270.954C333.434 272.38 330.183 274.363 327.375 276.815C326.939 277.196 326.699 277.858 327.375 278.099C327.739 278.178 328.119 278.17 328.479 278.075C328.838 277.98 329.165 277.802 329.428 277.557C330.591 276.503 331.863 275.555 333.227 274.727C334.605 273.869 336.067 273.13 337.593 272.52C338.226 272.259 338.881 271.637 338.663 271.135C338.444 270.633 337.506 270.713 336.916 270.954H336.982Z" fill="#D8C381"/>
<path d="M338.095 269.108C340.519 271.115 343.444 273.122 344.165 275.972C344.296 276.494 345.344 276.354 345.868 276.133C346.392 275.912 347.112 275.31 346.981 274.788C346.217 271.778 343.204 269.75 340.65 267.563C339.776 266.82 337.222 268.346 338.095 269.108Z" fill="#D8C381"/>
<path d="M324.582 234.446C324.582 234.446 302.073 218.59 301.571 206.668C301.068 194.746 314.342 195.81 314.342 195.81" fill="#94BF00"/>
<path d="M333.62 186.759C333.62 186.759 307.924 187.16 309.91 201.631C311.239 210.513 315.188 218.891 321.329 225.857C325.98 234.907 327.953 244.924 327.049 254.899C327.049 254.899 325.389 268.527 340.148 266.038C354.907 263.549 349.754 257.287 349.143 242.877C348.532 228.466 358.706 225.475 364.884 210.763C371.063 196.052 348.423 177.185 333.62 186.759Z" fill="#B8D25F"/>
<path d="M337.528 213.633C337.528 215.179 337.266 233.704 337.528 235.209C338.445 244.562 337.266 251.607 336.851 260.98C336.676 264.834 343.619 262.726 343.728 259.836C344.165 250.021 341.086 208.716 340.104 198.941C339.864 197.416 336.982 197.898 337.528 213.633Z" fill="#F6F3EA"/>
<path d="M351.698 211.908C350.94 214.226 349.506 216.308 347.55 217.929C345.366 219.595 342.899 220.899 340.825 222.585C339.821 223.388 341.327 224.693 342.332 223.89C344.515 222.083 347.331 220.699 349.515 218.852C351.52 217.12 353.021 214.953 353.881 212.55C354.274 211.366 352.134 210.844 351.698 211.908Z" fill="#F6F3EA"/>
<path d="M333.271 204.4C333.219 205.99 333.775 207.545 334.843 208.796C336 210.02 337.55 210.984 338.686 212.228C339.231 212.83 337.747 213.814 337.201 213.212C335.978 211.887 334.275 210.863 333.118 209.498C332.044 208.134 331.477 206.486 331.503 204.802C331.481 203.999 333.228 203.598 333.271 204.4Z" fill="#F6F3EA"/>
<path d="M325.105 212.75L332.375 224.13C333.03 225.153 335.061 224.371 334.428 223.367L327.136 211.987C326.502 210.883 324.472 211.646 325.105 212.75Z" fill="#F6F3EA"/>
<path d="M350.104 200.869L345.191 207.894C344.755 208.516 342.746 207.673 343.183 207.051L348.641 200.668C349.078 200.046 350.54 200.247 350.104 200.869Z" fill="#F6F3EA"/>
<path d="M461.121 370.506L524.5 193.703V70.8301L429.66 247.633" fill="#7E645D"/>
<path d="M461.121 235.21H34.2549V370.507H461.121V235.21Z" fill="#6D4F47"/>
<path d="M95.3638 71.7939L28.0547 234.226H457.213L524.523 71.7939H95.3638ZM446.297 219.093H53.4894L105.887 87.0477H499.241L446.297 219.093Z" fill="#775B54"/>
<path d="M457.213 242.857H28.054C26.7052 242.856 25.3769 242.554 24.1829 241.977C22.9889 241.4 21.9648 240.566 21.1986 239.545C20.4271 238.524 19.9366 237.346 19.7693 236.112C19.602 234.878 19.7628 233.625 20.238 232.46L87.5472 68.0811C88.1459 66.6198 89.2145 65.3608 90.6107 64.4716C92.007 63.5824 93.6646 63.1052 95.3632 63.1035H524.522C525.871 63.1013 527.201 63.4018 528.396 63.9789C529.59 64.556 530.614 65.3923 531.377 66.4152C532.149 67.4366 532.639 68.6149 532.807 69.8489C532.974 71.0829 532.813 72.3359 532.338 73.5002L465.029 237.879C464.43 239.341 463.361 240.6 461.965 241.489C460.569 242.378 458.911 242.855 457.213 242.857ZM40.2147 227.483H451.493L512.492 78.4576H101.149L40.2147 227.483Z" fill="#A08D88"/>
<path d="M62.6151 291.026H384.73C399.532 291.026 414.378 291.287 429.159 291.026H429.77C430.678 291.069 431.586 290.934 432.433 290.63C433.28 290.325 434.047 289.858 434.682 289.259C435.555 287.955 433.94 287.594 432.783 287.594H110.668C95.8658 287.594 81.0198 287.333 66.2393 287.594C66.0357 287.604 65.8316 287.604 65.628 287.594C64.7197 287.55 63.8117 287.685 62.9646 287.99C62.1176 288.294 61.3508 288.761 60.7157 289.36C59.8424 290.664 61.458 291.026 62.6151 291.026Z" fill="#59372E"/>
<path d="M62.7471 329.822H384.862C399.686 329.822 414.488 329.822 429.312 329.822H429.924C430.851 329.897 431.784 329.752 432.632 329.401C433.481 329.049 434.217 328.503 434.771 327.815C435.535 326.43 434.116 325.407 432.587 325.407H110.538C95.714 325.407 80.9117 325.407 66.0875 325.407H65.4762C64.5487 325.33 63.6155 325.474 62.7665 325.826C61.9174 326.177 61.1813 326.724 60.6294 327.414C59.8653 328.799 61.2844 329.802 62.8126 329.802L62.7471 329.822Z" fill="#59372E"/>
<path d="M205.333 114.403C205.333 114.403 198.303 100.353 194.067 100.153C189.832 99.952 177.999 108.904 167.65 107.117C157.302 105.331 162.018 120.043 162.018 120.043" fill="#F9F1E5"/>
<path d="M174.768 139.713C174.768 139.713 159.638 143.386 159.201 148.223C158.765 153.06 163.044 161.189 163.044 161.189C163.044 161.189 172.06 158.68 180.815 146.637" fill="#F9F1E5"/>
<path d="M148.11 141.157C201.84 165.844 236.815 140.073 237.273 130.66C237.732 121.247 220.484 115.848 220.484 115.848C168.72 103.083 145.73 124.297 145.73 124.297C145.73 124.297 133.679 112.255 129.596 114.824C125.514 117.393 133.002 132.045 133.002 132.045C133.002 132.045 124.269 144.709 125.928 150.008C127.588 155.307 148.11 141.157 148.11 141.157Z" fill="#F4E5CE"/>
<path d="M207.451 147.782C205.508 162.173 198.718 168.134 198.718 168.134C198.718 168.134 190.902 162.614 188.937 158.098C186.973 153.582 198.718 144.049 198.718 144.049" fill="#F9F1E5"/>
<path d="M179.069 120.124C182.239 122.729 185.676 125.048 189.33 127.048C193.514 129.129 198.412 129.64 202.997 128.473C205.155 127.772 207.186 126.778 209.023 125.523C211.045 124.245 213.152 123.086 215.332 122.05C218.432 120.605 222.581 120.204 224.065 117.233C222.894 116.71 221.691 116.247 220.463 115.849C197.277 110.128 179.876 111.232 167.716 114.183C171.875 115.484 175.728 117.5 179.069 120.124Z" fill="#EBA342"/>
<path d="M182.91 136.018C177.409 131.543 170.095 130.8 163.414 128.673C160.57 128.476 157.734 129.139 155.336 130.559C154.164 131.402 153.365 132.607 153.088 133.951C152.811 135.295 153.074 136.686 153.83 137.865C154.565 138.91 155.526 139.805 156.653 140.495C157.779 141.186 159.047 141.657 160.379 141.879C162.922 142.473 165.504 142.915 168.108 143.204C172.5 143.781 176.976 143.445 181.208 142.22C182.729 141.934 184.068 141.113 184.941 139.932C185.683 138.487 183.958 136.881 182.91 136.018Z" fill="#EBA342"/>
<path d="M215.856 127.048C217.918 127.048 219.59 125.511 219.59 123.616C219.59 121.72 217.918 120.184 215.856 120.184C213.795 120.184 212.123 121.72 212.123 123.616C212.123 125.511 213.795 127.048 215.856 127.048Z" fill="#4A1D0E"/>
<path d="M223.781 134.475C223.307 134.269 222.769 134.226 222.263 134.355C221.758 134.484 221.321 134.776 221.03 135.177C220.477 136.039 220.156 137.009 220.091 138.007C219.9 138.715 219.465 139.348 218.851 139.81C218.238 140.273 217.478 140.542 216.686 140.576C215.659 140.576 215.659 142.082 216.686 142.042C217.608 142.009 218.505 141.758 219.29 141.311C220.074 140.864 220.719 140.237 221.161 139.493C221.538 138.672 221.788 137.808 221.904 136.924C221.954 136.571 222.122 136.242 222.384 135.98C222.481 135.897 222.591 135.83 222.711 135.779C222.711 135.779 222.973 135.779 222.842 135.779H222.973C223.158 135.87 223.372 135.894 223.575 135.846C223.777 135.797 223.952 135.681 224.065 135.519C224.124 135.434 224.163 135.339 224.18 135.239C224.198 135.14 224.193 135.038 224.166 134.941C224.14 134.843 224.092 134.752 224.026 134.671C223.96 134.591 223.876 134.524 223.781 134.475Z" fill="#EBA342"/>
<path d="M238.584 134.976C238.511 134.909 238.424 134.855 238.328 134.819C238.233 134.782 238.131 134.764 238.027 134.764C237.924 134.764 237.821 134.782 237.726 134.819C237.63 134.855 237.543 134.909 237.47 134.976C237.321 135.115 237.237 135.303 237.237 135.498C237.237 135.693 237.321 135.881 237.47 136.02C237.47 136.02 237.667 136.241 237.47 136.14C237.541 136.205 237.6 136.28 237.645 136.361C237.767 136.507 237.876 136.661 237.973 136.823C238.061 136.959 238.141 137.1 238.213 137.244L238.344 137.485C238.476 137.806 238.585 138.135 238.671 138.468C238.671 138.629 238.671 138.81 238.78 138.97C238.889 139.131 238.78 139.131 238.78 139.151C238.77 139.244 238.77 139.338 238.78 139.432C238.78 139.624 238.863 139.807 239.011 139.943C239.158 140.078 239.358 140.154 239.566 140.154C239.777 140.155 239.979 140.079 240.13 139.944C240.281 139.809 240.368 139.625 240.374 139.432C240.28 137.815 239.656 136.261 238.584 134.976Z" fill="#EBA342"/>
<path d="M236.638 130.974C237.332 126.464 235.127 122.448 231.713 122.004C228.299 121.56 224.969 124.856 224.275 129.367C223.581 133.877 225.786 137.893 229.2 138.337C232.614 138.781 235.944 135.484 236.638 130.974Z" fill="#DE706E"/>
<path d="M231.183 139.331C230.621 139.336 230.061 139.262 229.523 139.11C225.572 137.986 223.432 133.089 224.633 128.071C224.898 126.742 225.452 125.475 226.262 124.347C227.073 123.22 228.123 122.254 229.349 121.508C230.05 121.111 230.835 120.856 231.652 120.759C232.469 120.662 233.299 120.726 234.086 120.946C238.038 122.07 240.178 126.968 238.977 131.965C238.707 133.288 238.15 134.546 237.34 135.667C236.53 136.788 235.483 137.747 234.261 138.488C233.339 139.024 232.274 139.315 231.183 139.331ZM232.449 122.893C231.77 122.908 231.107 123.088 230.528 123.415C229.59 124.009 228.792 124.769 228.181 125.652C227.57 126.535 227.157 127.521 226.969 128.553C226.052 132.367 227.537 136.24 230.222 137.023C230.701 137.146 231.203 137.175 231.696 137.109C232.188 137.044 232.66 136.884 233.082 136.642C234.02 136.049 234.819 135.288 235.431 134.406C236.042 133.523 236.454 132.536 236.641 131.503C237.558 127.67 236.073 123.796 233.388 123.034C233.106 122.947 232.812 122.9 232.514 122.893H232.449Z" fill="#F3C376"/>
<path d="M204.133 123.778C201.71 128.414 201.208 134.676 204.33 139.132C205.928 141.281 208.121 142.999 210.683 144.109C211.251 144.37 213.368 143.567 212.561 143.206C210.51 142.338 208.72 141.024 207.347 139.376C205.974 137.729 205.058 135.799 204.679 133.753C204.267 130.87 204.611 127.938 205.683 125.203C205.885 124.605 206.133 124.022 206.426 123.456C206.644 122.995 204.439 123.175 204.133 123.778Z" fill="#C19546"/>
<path d="M143.307 127.991L137.587 123.676L136.779 123.054C136.255 122.653 134.596 123.355 135.426 123.917L141.146 128.232L141.953 128.854C142.477 129.256 144.028 128.553 143.307 127.991Z" fill="#E1C498"/>
<path d="M143.591 132.065L139.224 131.363H138.613C138.054 131.32 137.494 131.424 136.997 131.664C136.823 131.664 136.19 132.065 136.692 132.146L141.058 132.828L141.67 132.928C142.226 132.976 142.786 132.879 143.285 132.647C143.438 132.647 144.093 132.246 143.591 132.166V132.065Z" fill="#E1C498"/>
<path d="M143.46 135.558L136.67 139.291L135.71 139.813C135.426 139.994 135.055 140.315 135.317 140.656C135.472 140.791 135.671 140.876 135.884 140.898C136.097 140.92 136.312 140.877 136.496 140.776L143.264 137.043L144.224 136.501C144.53 136.341 144.901 136.02 144.639 135.678C144.484 135.543 144.285 135.458 144.072 135.436C143.859 135.414 143.644 135.457 143.46 135.558Z" fill="#E1C498"/>
<path d="M201.272 151.013L197.714 158.339L197.212 159.382C197.059 159.683 197.779 159.663 197.932 159.643C198.131 159.638 198.325 159.59 198.499 159.502C198.674 159.415 198.823 159.292 198.936 159.141L202.473 151.836L202.975 150.772C203.128 150.471 202.408 150.491 202.255 150.511C202.059 150.516 201.868 150.565 201.697 150.652C201.526 150.739 201.381 150.863 201.272 151.013Z" fill="#E1C498"/>
<path d="M197.278 149.186L193.697 153.441L193.195 154.063C192.955 154.324 193.392 154.384 193.61 154.364C194.032 154.363 194.441 154.228 194.767 153.982L198.348 149.707L198.85 149.105C199.09 148.824 198.653 148.784 198.435 148.804C198.013 148.805 197.604 148.94 197.278 149.186Z" fill="#E1C498"/>
<path d="M169.201 151.735L165.162 155.749L164.594 156.311C164.354 156.552 164.813 156.632 164.987 156.632C165.374 156.638 165.748 156.509 166.035 156.271L170.074 152.257L170.642 151.695C170.882 151.454 170.424 151.374 170.249 151.394C169.863 151.388 169.488 151.517 169.201 151.755V151.735Z" fill="#E1C498"/>
<path d="M167.148 149.487L163.829 151.494L163.349 151.775C163.109 151.915 162.912 152.276 163.349 152.437C163.519 152.525 163.71 152.571 163.905 152.571C164.101 152.571 164.292 152.525 164.462 152.437L167.781 150.43L168.261 150.149C168.501 150.008 168.698 149.647 168.261 149.487C168.091 149.399 167.899 149.353 167.704 149.353C167.509 149.353 167.318 149.399 167.148 149.487Z" fill="#E1C498"/>
<path d="M191.164 104.368C192.317 106.194 193.261 108.124 193.98 110.128L191.164 104.368Z" fill="#C8A15B"/>
<path d="M190.357 104.61C190.357 104.73 190.51 104.85 190.597 104.951L190.859 105.392L191.165 105.954C191.902 107.35 192.55 108.784 193.108 110.249C193.239 110.611 193.784 110.631 194.134 110.55C194.483 110.47 194.985 110.189 194.832 109.828C194.277 108.34 193.621 106.885 192.867 105.473C192.592 104.943 192.286 104.427 191.951 103.927C191.558 103.365 189.898 103.927 190.357 104.61Z" fill="#E1C498"/>
<path d="M183.698 107.359L184.702 109.366L184.855 109.647C184.886 109.717 184.933 109.781 184.994 109.833C185.054 109.885 185.126 109.924 185.204 109.948C185.418 110.008 185.646 110.008 185.859 109.948C186.078 109.904 186.277 109.799 186.427 109.647C186.536 109.647 186.667 109.366 186.58 109.225L185.576 107.218L185.423 106.937C185.395 106.865 185.348 106.8 185.288 106.748C185.227 106.695 185.153 106.657 185.073 106.636C184.86 106.576 184.632 106.576 184.418 106.636C184.2 106.679 184.001 106.785 183.851 106.937C183.785 106.987 183.736 107.053 183.709 107.128C183.682 107.202 183.678 107.282 183.698 107.359Z" fill="#E1C498"/>
<path d="M386.281 116.892C386.281 116.892 381.652 107.6 378.858 107.499C376.063 107.399 368.269 113.26 361.392 112.096C354.515 110.931 357.659 120.606 357.659 120.606" fill="#F9F1E5"/>
<path d="M366.128 133.611C366.128 133.611 356.172 136.04 355.867 139.211C355.561 142.382 358.399 147.761 358.399 147.761C358.399 147.761 364.36 146.115 370.123 138.187" fill="#F9F1E5"/>
<path d="M348.575 134.575C383.966 150.832 407.021 133.852 407.326 127.65C407.632 121.448 396.257 117.876 396.257 117.876C362.155 109.486 347.003 123.456 347.003 123.456C347.003 123.456 339.056 115.427 336.371 117.214C333.686 119 338.554 128.553 338.554 128.553C338.554 128.553 332.834 136.903 333.882 140.395C334.93 143.888 348.575 134.575 348.575 134.575Z" fill="#F4E5CE"/>
<path d="M387.678 138.93C386.389 148.403 381.892 152.337 381.892 152.337C381.892 152.337 376.74 148.704 375.451 145.754C374.163 142.803 381.892 136.501 381.892 136.501" fill="#F9F1E5"/>
<path d="M368.988 120.706C371.07 122.43 373.329 123.962 375.735 125.282C378.5 126.642 381.728 126.972 384.751 126.205C386.169 125.72 387.501 125.044 388.703 124.198C390.029 123.352 391.415 122.588 392.851 121.91C394.904 120.947 397.633 120.686 398.637 118.719C397.261 118.117 396.257 117.796 396.257 117.796C380.974 114.043 369.512 114.765 361.5 116.712C364.246 117.601 366.786 118.956 368.988 120.706Z" fill="#EBA342"/>
<path d="M371.499 131.182C367.875 128.232 363.072 127.75 358.662 126.345C356.786 126.213 354.914 126.65 353.335 127.59C352.56 128.14 352.032 128.932 351.851 129.816C351.67 130.701 351.848 131.615 352.352 132.387C352.84 133.079 353.481 133.669 354.234 134.118C354.986 134.568 355.832 134.867 356.719 134.996C358.392 135.384 360.091 135.672 361.806 135.859C364.732 136.256 367.718 136.036 370.539 135.217C371.539 135.02 372.42 134.482 373.006 133.711C373.333 132.748 372.241 131.744 371.499 131.182Z" fill="#EBA342"/>
<path d="M393.201 125.282C394.564 125.282 395.668 124.267 395.668 123.014C395.668 121.762 394.564 120.746 393.201 120.746C391.839 120.746 390.734 121.762 390.734 123.014C390.734 124.267 391.839 125.282 393.201 125.282Z" fill="#4A1D0E"/>
<path d="M398.441 130.2C398.126 130.08 397.777 130.06 397.448 130.144C397.12 130.227 396.832 130.41 396.629 130.661C396.266 131.231 396.049 131.869 395.996 132.528C395.87 132.986 395.592 133.396 395.201 133.702C394.81 134.008 394.324 134.194 393.812 134.234C393.135 134.234 393.135 135.217 393.812 135.197C394.42 135.173 395.01 135.005 395.526 134.709C396.043 134.414 396.467 134.001 396.76 133.511C397.006 132.973 397.168 132.405 397.24 131.825C397.276 131.586 397.391 131.362 397.567 131.183L397.764 131.063H397.939C398.061 131.122 398.204 131.137 398.338 131.103C398.472 131.07 398.586 130.991 398.659 130.882C398.697 130.825 398.721 130.761 398.73 130.694C398.74 130.628 398.734 130.561 398.714 130.496C398.693 130.432 398.658 130.373 398.611 130.322C398.564 130.27 398.506 130.229 398.441 130.2Z" fill="#EBA342"/>
<path d="M408.2 130.46C408.151 130.415 408.094 130.379 408.03 130.355C407.966 130.331 407.898 130.318 407.829 130.318C407.76 130.318 407.692 130.331 407.628 130.355C407.564 130.379 407.506 130.415 407.458 130.46C407.409 130.505 407.37 130.558 407.344 130.617C407.317 130.675 407.304 130.738 407.304 130.801C407.304 130.865 407.317 130.927 407.344 130.986C407.37 131.045 407.409 131.098 407.458 131.142V131.283C407.538 131.379 407.611 131.479 407.676 131.584C407.676 131.584 407.676 131.765 407.829 131.865V132.026C407.915 132.236 407.988 132.45 408.047 132.668V132.989V133.29C408.047 133.418 408.102 133.54 408.201 133.631C408.299 133.721 408.432 133.772 408.571 133.772C408.641 133.775 408.71 133.764 408.775 133.741C408.84 133.718 408.899 133.682 408.949 133.637C408.998 133.592 409.036 133.537 409.062 133.478C409.087 133.418 409.098 133.354 409.095 133.29C409.099 132.287 408.788 131.305 408.2 130.46Z" fill="#EBA342"/>
<path d="M407.806 127.757C408.254 124.782 406.797 122.138 404.551 121.852C402.306 121.566 400.122 123.747 399.674 126.723C399.226 129.698 400.684 132.342 402.929 132.628C405.174 132.913 407.358 130.733 407.806 127.757Z" fill="#DE706E"/>
<path d="M403.309 133.37C402.938 133.366 402.57 133.312 402.217 133.21C399.619 132.467 398.2 129.196 399.008 125.944C399.181 125.07 399.545 124.237 400.078 123.495C400.61 122.753 401.301 122.119 402.108 121.629C402.568 121.363 403.085 121.191 403.624 121.125C404.162 121.059 404.71 121.101 405.23 121.248C407.828 121.99 409.247 125.262 408.439 128.513C408.267 129.391 407.903 130.227 407.37 130.972C406.837 131.717 406.147 132.355 405.339 132.849C404.724 133.183 404.024 133.363 403.309 133.37ZM404.138 122.532C403.698 122.545 403.269 122.662 402.894 122.873C402.288 123.271 401.775 123.775 401.385 124.358C400.995 124.941 400.736 125.589 400.623 126.265C400.012 128.774 400.994 131.343 402.807 131.845C403.121 131.934 403.453 131.957 403.778 131.912C404.103 131.867 404.413 131.755 404.684 131.584C405.304 131.197 405.832 130.699 406.237 130.119C406.642 129.54 406.916 128.891 407.042 128.212C407.653 125.683 406.671 123.134 404.859 122.633C404.626 122.562 404.383 122.528 404.138 122.532Z" fill="#F3C376"/>
<path d="M385.494 123.114C384.632 124.671 384.193 126.397 384.212 128.144C384.231 129.891 384.708 131.608 385.603 133.149C386.656 134.588 388.111 135.739 389.817 136.481C390.166 136.641 391.563 136.12 391.039 135.879C389.687 135.305 388.507 134.436 387.601 133.349C386.696 132.261 386.092 130.987 385.843 129.637C385.578 127.742 385.802 125.817 386.498 124.017C386.643 123.621 386.81 123.232 387 122.853C387.153 122.552 385.69 122.672 385.494 123.074V123.114Z" fill="#C19546"/>
<path d="M345.41 125.903L341.677 123.053L341.153 122.631C340.803 122.37 339.777 122.832 340.258 123.193L344.013 126.063L344.559 126.465C344.908 126.726 345.934 126.264 345.454 125.903H345.41Z" fill="#E1C498"/>
<path d="M345.52 130.882L341.153 133.33L340.52 133.691C340.324 133.691 340.062 134.013 340.258 134.233C340.368 134.31 340.502 134.351 340.64 134.351C340.778 134.351 340.912 134.31 341.022 134.233L345.389 131.765L346.022 131.424C346.218 131.424 346.458 131.102 346.284 130.882C346.174 130.805 346.04 130.764 345.902 130.764C345.764 130.764 345.63 130.805 345.52 130.882Z" fill="#E1C498"/>
<path d="M383.594 141.057L381.258 145.874L380.975 146.516C380.975 146.717 381.346 146.697 381.455 146.697C381.564 146.697 382.001 146.576 382.11 146.356L384.446 141.539L384.773 140.856C384.883 140.636 384.402 140.656 384.293 140.676C384.165 140.68 384.039 140.712 383.926 140.767C383.812 140.823 383.714 140.901 383.638 140.997L383.594 141.057Z" fill="#E1C498"/>
<path d="M362.417 141.54L359.754 144.169L359.383 144.55C359.208 144.711 359.514 144.751 359.645 144.751C359.895 144.753 360.138 144.667 360.321 144.51L362.985 141.881L363.356 141.5C363.531 141.339 363.225 141.299 363.094 141.299C362.843 141.297 362.601 141.383 362.417 141.54Z" fill="#E1C498"/>
<path d="M376.936 110.248C377.698 111.456 378.32 112.734 378.791 114.061L376.936 110.248Z" fill="#C8A15B"/>
<path d="M376.411 110.491L376.564 110.712L376.739 111.013L376.935 111.374C377.428 112.292 377.858 113.237 378.223 114.204C378.223 114.445 378.66 114.445 378.9 114.405C379.14 114.364 379.446 114.164 379.359 113.923C378.997 112.942 378.567 111.983 378.071 111.053C377.874 110.712 377.678 110.35 377.459 110.029C377.241 109.708 376.106 110.029 376.411 110.491Z" fill="#E1C498"/>
<path d="M266.857 133.812C266.734 133.831 266.609 133.831 266.486 133.812C266.335 133.769 266.196 133.699 266.075 133.606C265.954 133.512 265.854 133.398 265.781 133.27C265.708 133.141 265.663 133 265.649 132.856C265.635 132.711 265.653 132.566 265.7 132.427C266.551 129.959 268.975 124.399 273.45 124.399H273.669C274.623 124.397 275.543 124.726 276.244 125.322C276.945 125.918 277.374 126.736 277.446 127.61C277.751 128.714 277.97 129.357 278.974 129.798C279.267 129.764 279.549 129.675 279.804 129.537C280.493 129.201 281.05 128.675 281.397 128.032C281.688 127.575 282.016 127.138 282.38 126.727L282.817 126.226C283.313 125.563 283.917 124.974 284.607 124.479C285.202 124.088 285.911 123.87 286.642 123.852C287.374 123.834 288.094 124.018 288.711 124.379C289.48 124.897 290.059 125.618 290.371 126.446C290.48 126.707 290.567 126.948 290.698 127.189C291.637 128.795 292.095 129.196 293.034 129.196C295.217 129.035 296.069 127.59 296.964 126.185C297.248 125.764 297.51 125.363 297.75 125.061C297.945 124.826 298.233 124.671 298.552 124.629C298.871 124.588 299.195 124.664 299.453 124.841C299.579 124.928 299.685 125.037 299.766 125.161C299.846 125.286 299.899 125.424 299.921 125.568C299.943 125.711 299.935 125.857 299.896 125.998C299.856 126.138 299.788 126.27 299.693 126.386C299.458 126.686 299.246 127.002 299.06 127.329C298.547 128.404 297.741 129.338 296.719 130.041C295.698 130.745 294.496 131.193 293.231 131.344C290.371 131.564 289.301 129.457 288.558 128.213C288.384 127.891 288.253 127.57 288.1 127.229C287.977 126.793 287.737 126.393 287.401 126.065C287.196 125.943 286.958 125.878 286.714 125.878C286.47 125.878 286.231 125.943 286.026 126.065C285.532 126.45 285.099 126.896 284.738 127.39L284.257 127.932C283.908 128.333 283.668 128.694 283.428 129.015C282.857 130.021 281.955 130.836 280.852 131.344C280.412 131.585 279.918 131.732 279.408 131.774C278.898 131.815 278.384 131.751 277.904 131.584C277.15 131.236 276.501 130.722 276.014 130.088C275.527 129.455 275.216 128.721 275.11 127.952C274.76 126.727 274.651 126.466 273.581 126.426H273.472C271.114 126.426 269.106 129.798 268.014 132.969C267.948 133.207 267.799 133.417 267.59 133.57C267.381 133.722 267.124 133.807 266.857 133.812Z" fill="#F6FBFE"/>
<path d="M298.513 117.032H298.23C298.112 116.998 298.003 116.943 297.909 116.87C297.814 116.797 297.736 116.707 297.68 116.607C297.623 116.506 297.588 116.396 297.578 116.283C297.567 116.17 297.581 116.056 297.618 115.948C298.273 114.062 300.129 109.747 303.578 109.747H303.753C304.493 109.718 305.216 109.952 305.773 110.401C306.33 110.849 306.677 111.477 306.744 112.155C306.984 112.998 307.159 113.5 307.923 113.841C308.147 113.814 308.362 113.745 308.556 113.64C309.081 113.382 309.507 112.983 309.779 112.496C309.999 112.134 310.254 111.791 310.543 111.473L310.87 111.091C311.253 110.588 311.717 110.141 312.246 109.767C312.706 109.469 313.255 109.309 313.818 109.309C314.381 109.309 314.93 109.469 315.39 109.767C316.003 110.193 316.448 110.792 316.656 111.473L316.918 112.035C317.638 113.279 317.988 113.62 318.708 113.54C320.324 113.419 321.044 112.316 321.721 111.232C321.939 110.911 322.136 110.61 322.332 110.369C322.484 110.189 322.706 110.071 322.951 110.041C323.197 110.011 323.445 110.071 323.642 110.208C323.739 110.275 323.82 110.359 323.881 110.455C323.941 110.551 323.981 110.657 323.997 110.767C324.014 110.877 324.006 110.989 323.975 111.096C323.944 111.203 323.89 111.304 323.817 111.392C323.642 111.625 323.482 111.866 323.337 112.115C322.944 112.945 322.326 113.668 321.543 114.216C320.759 114.764 319.836 115.119 318.861 115.246C316.678 115.406 315.826 113.801 315.281 112.837C315.15 112.597 315.04 112.336 314.931 112.095C314.838 111.755 314.65 111.444 314.385 111.192C314.23 111.098 314.047 111.049 313.861 111.049C313.675 111.049 313.493 111.098 313.338 111.192C312.954 111.482 312.616 111.82 312.333 112.195L311.984 112.617C311.754 112.885 311.542 113.167 311.351 113.46C310.903 114.223 310.209 114.84 309.364 115.226C309.037 115.401 308.673 115.51 308.296 115.544C307.919 115.579 307.539 115.539 307.181 115.427C306.597 115.16 306.093 114.767 305.712 114.281C305.332 113.795 305.086 113.23 304.998 112.637C304.736 111.693 304.648 111.493 303.819 111.473C302.007 111.473 300.478 114.042 299.627 116.49C299.552 116.694 299.394 116.864 299.187 116.965C298.98 117.066 298.739 117.09 298.513 117.032Z" fill="#F6FBFE"/>
</svg>
