<svg width="1286" height="1297" viewBox="0 0 1286 1297" fill="none" xmlns="http://www.w3.org/2000/svg">
<g filter="url(#filter0_d_1315_6395)">
<path d="M784.736 227.773C700.954 196.362 609.535 191.465 522.875 213.745C436.215 236.026 358.505 284.407 300.283 352.327C176.353 497.602 171.17 707.293 263.329 870.361C310.308 950.56 380.578 1014.58 464.811 1053.92C549.043 1093.27 643.255 1106.07 734.939 1090.64C935.255 1056.63 1083.74 871.485 1086 670.803C1086.26 575.22 1057.64 481.786 1003.88 402.735C950.128 323.684 873.746 262.703 784.736 227.773ZM383.654 520.575C383.654 521.926 383.654 522.377 383.654 520.575V520.575ZM924.439 720.578C919.29 735.924 913.271 750.963 906.413 765.625C905.286 768.328 903.934 770.807 902.582 773.51C901.23 776.213 900.104 778.014 899.878 778.69C894.696 787.024 889.288 795.36 883.655 803.468C874.407 816.497 864.321 828.909 853.461 840.629C844.754 850.801 834.842 859.876 823.943 867.656C811.397 877.507 798.225 886.534 784.511 894.683C772.03 902.754 758.644 909.333 744.628 914.281C685.631 937.92 620.723 942.568 558.958 927.571C543.059 923.512 527.471 918.314 512.316 912.026C510.513 910.9 502.852 907.296 500.599 906.17C491.811 901.665 483.248 896.712 474.911 891.532L460.941 882.299C460.941 882.299 449.675 873.736 447.421 871.708C440.887 866.078 434.578 860.227 428.494 854.371C422.41 848.515 416.101 841.079 414.523 839.953C405.683 829.024 397.483 817.592 389.963 805.717C386.162 800.072 382.701 794.205 379.598 788.148L372.613 773.285C366.827 759.73 361.934 745.808 357.967 731.615C357.967 730.038 354.812 717.425 354.361 714.497C352.559 704.361 351.207 694.229 350.08 684.094C350.08 680.94 350.08 665.849 350.08 666.299C350.08 659.392 350.08 652.412 350.08 645.354C350.08 638.297 350.981 629.283 352.784 618.322C352.784 611.34 356.84 594.001 356.84 593.775C358.417 587.919 365.628 565.169 370.36 553.007C373.064 546.025 375.993 539.044 379.147 532.287C382.302 525.53 383.203 523.727 385.456 519.673L387.484 516.071C419.063 459.537 467.728 414.436 526.511 387.234L539.129 381.828C547.241 378.45 555.578 375.749 563.915 373.047C580.846 367.643 598.174 363.575 615.741 360.883H618.219H620.247H631.964C640.977 360.883 650.216 360.883 659.454 360.883C668.693 360.883 675.227 360.884 683.113 362.01C691 363.137 693.479 362.012 698.436 363.363H702.266C720.975 366.574 739.37 371.394 757.246 377.776C759.95 377.776 776.624 385.66 776.174 385.21C784.06 389.039 791.946 393.094 798.706 397.373C805.466 401.653 815.606 407.733 823.943 412.913L825.971 414.491L836.111 422.371C842.645 428.002 849.18 433.633 855.263 439.714L865.628 450.074C865.628 450.074 869.008 453.452 871.036 455.48L872.839 457.734C876.669 462.464 880.5 467.417 884.105 472.372C887.71 477.327 894.02 486.566 898.526 493.773C903.033 500.981 912.722 522.374 905.962 506.157C909.793 515.391 914.299 524.18 917.904 533.415C921.51 542.649 924.664 552.329 927.819 561.789C927.819 561.789 927.819 563.143 927.819 564.494C927.819 565.845 930.748 578.461 930.748 578.01C932.325 587.019 933.677 595.802 934.804 604.811C934.804 609.992 934.804 615.171 936.156 620.126C936.156 621.477 936.156 627.332 936.156 630.035C936.046 646.156 934.917 662.258 932.776 678.237C931.66 693.097 928.475 707.727 923.312 721.706L924.439 720.578Z" fill="#7DBD36"/>
</g>
<defs>
<filter id="filter0_d_1315_6395" x="0" y="0" width="1286" height="1297" filterUnits="userSpaceOnUse" color-interpolation-filters="sRGB">
<feFlood flood-opacity="0" result="BackgroundImageFix"/>
<feColorMatrix in="SourceAlpha" type="matrix" values="0 0 0 0 0 0 0 0 0 0 0 0 0 0 0 0 0 0 127 0" result="hardAlpha"/>
<feOffset/>
<feGaussianBlur stdDeviation="100"/>
<feComposite in2="hardAlpha" operator="out"/>
<feColorMatrix type="matrix" values="0 0 0 0 1 0 0 0 0 1 0 0 0 0 1 0 0 0 1 0"/>
<feBlend mode="normal" in2="BackgroundImageFix" result="effect1_dropShadow_1315_6395"/>
<feBlend mode="normal" in="SourceGraphic" in2="effect1_dropShadow_1315_6395" result="shape"/>
</filter>
</defs>
</svg>
