<svg width="560" height="420" viewBox="0 0 560 420" fill="none" xmlns="http://www.w3.org/2000/svg">
<path d="M479.941 67.0371H80.0162C72.5525 67.0371 66.502 72.5994 66.502 79.4609V345.017C66.502 351.878 72.5525 357.44 80.0162 357.44H479.941C487.405 357.44 493.456 351.878 493.456 345.017V79.4609C493.456 72.5994 487.405 67.0371 479.941 67.0371Z" fill="#546273"/>
<path d="M471.295 93.3487C474.865 93.3487 477.758 90.6888 477.758 87.4077C477.758 84.1266 474.865 81.4668 471.295 81.4668C467.726 81.4668 464.833 84.1266 464.833 87.4077C464.833 90.6888 467.726 93.3487 471.295 93.3487Z" fill="#F3F4F5"/>
<path d="M471.295 342.969C474.865 342.969 477.758 340.309 477.758 337.028C477.758 333.747 474.865 331.087 471.295 331.087C467.726 331.087 464.833 333.747 464.833 337.028C464.833 340.309 467.726 342.969 471.295 342.969Z" fill="#F3F4F5"/>
<path d="M88.6831 93.3487C92.2521 93.3487 95.1454 90.6888 95.1454 87.4077C95.1454 84.1266 92.2521 81.4668 88.6831 81.4668C85.114 81.4668 82.2207 84.1266 82.2207 87.4077C82.2207 90.6888 85.114 93.3487 88.6831 93.3487Z" fill="#F3F4F5"/>
<path d="M88.6831 342.969C92.2521 342.969 95.1454 340.309 95.1454 337.028C95.1454 333.747 92.2521 331.087 88.6831 331.087C85.114 331.087 82.2207 333.747 82.2207 337.028C82.2207 340.309 85.114 342.969 88.6831 342.969Z" fill="#F3F4F5"/>
<path d="M153.045 291.908C153.074 296.559 151.577 301.109 148.75 304.966C145.922 308.822 141.895 311.805 137.195 313.524C132.376 315.068 127.155 315.195 122.253 313.89C117.352 312.585 113.014 309.911 109.839 306.239C106.619 302.536 104.679 298.031 104.271 293.305C103.862 288.579 105.003 283.849 107.546 279.725C110.073 275.683 113.933 272.485 118.569 270.594C123.205 268.703 128.375 268.218 133.33 269.208C138.892 270.453 143.844 273.367 147.402 277.489C150.961 281.611 152.923 286.706 152.979 291.968C152.979 293.755 157.04 293.092 157.04 291.607C157.003 286.34 155.195 281.213 151.865 276.926C148.536 272.64 143.846 269.405 138.439 267.663C132.863 265.94 126.855 265.784 121.181 267.214C115.508 268.644 110.427 271.595 106.586 275.691C102.888 279.743 100.652 284.751 100.187 290.022C99.7212 295.294 101.049 300.568 103.988 305.115C107.072 309.61 111.569 313.137 116.883 315.23C122.197 317.324 128.077 317.883 133.745 316.836C140.216 315.733 146.077 312.618 150.347 308.013C154.616 303.409 157.033 297.595 157.193 291.547C157.193 289.781 153.067 290.423 153.045 291.908Z" fill="#B8DA18"/>
<path d="M119.073 289.661C121.28 289.661 123.069 288.017 123.069 285.988C123.069 283.96 121.28 282.315 119.073 282.315C116.867 282.315 115.078 283.96 115.078 285.988C115.078 288.017 116.867 289.661 119.073 289.661Z" fill="#B8DA18"/>
<path d="M139.596 289.661C141.803 289.661 143.591 288.017 143.591 285.988C143.591 283.96 141.803 282.315 139.596 282.315C137.389 282.315 135.601 283.96 135.601 285.988C135.601 288.017 137.389 289.661 139.596 289.661Z" fill="#B8DA18"/>
<path d="M118.266 299.316C120.137 300.851 122.384 301.946 124.816 302.507C127.514 303.088 130.315 303.138 133.035 302.654C135.756 302.17 138.334 301.162 140.601 299.697C142.129 298.774 139.859 296.405 138.418 297.208C136.462 298.539 134.217 299.468 131.837 299.932C129.456 300.396 126.995 300.384 124.62 299.898C123.308 299.577 122.062 299.062 120.93 298.372C120.799 298.372 120.21 297.931 120.428 298.091L120.122 297.871L119.773 297.57C119.227 297.128 118.201 296.827 117.59 297.389C116.978 297.951 117.59 298.874 118.07 299.396L118.266 299.316Z" fill="#B8DA18"/>
<g opacity="0.5">
<path d="M153.045 212.388C153.074 217.039 151.577 221.589 148.75 225.446C145.922 229.302 141.895 232.285 137.195 234.005C132.376 235.548 127.155 235.676 122.253 234.37C117.352 233.065 113.014 230.391 109.839 226.719C106.619 223.016 104.679 218.511 104.271 213.785C103.862 209.059 105.003 204.329 107.546 200.205C110.078 196.165 113.937 192.966 118.569 191.065C123.201 189.165 128.368 188.662 133.33 189.628C138.892 190.873 143.844 193.787 147.402 197.909C150.961 202.031 152.923 207.126 152.979 212.388C152.979 214.175 157.04 213.512 157.04 212.047C157.004 206.777 155.197 201.647 151.868 197.357C148.538 193.067 143.848 189.828 138.439 188.083C132.863 186.36 126.855 186.204 121.181 187.634C115.508 189.064 110.427 192.015 106.586 196.111C102.888 200.163 100.652 205.171 100.187 210.442C99.7212 215.714 101.049 220.988 103.988 225.535C107.072 230.03 111.569 233.557 116.883 235.65C122.197 237.744 128.077 238.303 133.745 237.256C140.203 236.159 146.056 233.057 150.324 228.468C154.592 223.879 157.017 218.083 157.193 212.047C157.193 210.261 153.067 211.003 153.045 212.388Z" fill="#FFE718"/>
<path d="M119.073 210.14C121.28 210.14 123.069 208.495 123.069 206.467C123.069 204.438 121.28 202.794 119.073 202.794C116.867 202.794 115.078 204.438 115.078 206.467C115.078 208.495 116.867 210.14 119.073 210.14Z" fill="#FFE718"/>
<path d="M139.597 210.14C141.803 210.14 143.592 208.495 143.592 206.467C143.592 204.438 141.803 202.794 139.597 202.794C137.39 202.794 135.602 204.438 135.602 206.467C135.602 208.495 137.39 210.14 139.597 210.14Z" fill="#FFE718"/>
<path d="M119.423 220.176H139.945C142.129 220.176 140.906 217.467 139.269 217.467H118.746C116.563 217.467 117.786 220.176 119.423 220.176Z" fill="#FFE718"/>
</g>
<g opacity="0.5">
<path d="M153.045 132.868C153.074 137.519 151.577 142.069 148.749 145.925C145.922 149.782 141.895 152.764 137.195 154.484C132.376 156.027 127.155 156.155 122.253 154.85C117.352 153.545 113.014 150.871 109.839 147.199C106.619 143.496 104.679 138.991 104.271 134.265C103.862 129.539 105.003 124.809 107.546 120.685C110.078 116.645 113.937 113.445 118.569 111.545C123.201 109.645 128.368 109.142 133.33 110.108C138.89 111.356 143.84 114.271 147.398 118.392C150.956 122.513 152.92 127.607 152.979 132.868C152.979 134.654 157.04 133.992 157.04 132.527C156.991 127.278 155.185 122.171 151.869 117.898C148.553 113.625 143.887 110.393 138.505 108.643C132.928 106.925 126.921 106.772 121.249 108.201C115.577 109.631 110.496 112.579 106.651 116.671C102.954 120.723 100.718 125.731 100.252 131.002C99.7867 136.274 101.115 141.548 104.053 146.095C107.122 150.604 111.617 154.143 116.936 156.238C122.254 158.333 128.142 158.884 133.811 157.816C140.271 156.704 146.12 153.585 150.377 148.981C154.633 144.377 157.04 138.568 157.193 132.527C157.193 130.72 153.067 131.403 153.045 132.868Z" fill="#EA7A18"/>
<path d="M119.073 130.64C121.28 130.64 123.069 128.995 123.069 126.967C123.069 124.938 121.28 123.294 119.073 123.294C116.867 123.294 115.078 124.938 115.078 126.967C115.078 128.995 116.867 130.64 119.073 130.64Z" fill="#EA7A18"/>
<path d="M139.596 130.64C141.803 130.64 143.591 128.995 143.591 126.967C143.591 124.938 141.803 123.294 139.596 123.294C137.389 123.294 135.601 124.938 135.601 126.967C135.601 128.995 137.389 130.64 139.596 130.64Z" fill="#EA7A18"/>
<path d="M120.077 140.554C121.852 139.462 123.827 138.674 125.906 138.226C128.151 137.694 130.494 137.615 132.774 137.997C135.055 138.378 137.218 139.209 139.115 140.433C139.26 140.54 139.429 140.616 139.61 140.657C139.79 140.697 139.978 140.702 140.161 140.669C140.344 140.637 140.516 140.568 140.667 140.469C140.818 140.369 140.944 140.241 141.036 140.092C141.386 139.329 140.621 138.567 140.01 138.185C137.85 136.804 135.403 135.847 132.822 135.374C130.242 134.901 127.583 134.922 125.011 135.436C122.514 135.892 120.135 136.784 118.003 138.065C116.518 139.028 118.767 141.397 120.186 140.554H120.077Z" fill="#EA7A18"/>
</g>
<path d="M205.835 309.951H171.034V316.454H205.835V309.951Z" fill="#B8D818"/>
<path d="M205.835 284.702H171.034V291.205H205.835V284.702Z" fill="#737E8C"/>
<path d="M205.835 259.453H171.034V265.956H205.835V259.453Z" fill="#737E8C"/>
<path d="M205.835 234.206H171.034V240.709H205.835V234.206Z" fill="#737E8C"/>
<path d="M205.835 208.957H171.034V215.46H205.835V208.957Z" fill="#737E8C"/>
<path d="M205.835 183.728H171.034V190.23H205.835V183.728Z" fill="#737E8C"/>
<path d="M205.835 158.479H171.034V164.981H205.835V158.479Z" fill="#737E8C"/>
<path d="M205.835 133.229H171.034V139.732H205.835V133.229Z" fill="#737E8C"/>
<path d="M205.835 107.98H171.034V114.483H205.835V107.98Z" fill="#737E8C"/>
<path d="M254.806 172.869C253.537 172.909 252.274 172.701 251.099 172.258C249.925 171.815 248.866 171.148 247.994 170.3C246.029 168.262 245.018 165.594 245.178 162.874C245.032 160.128 246.067 157.439 248.059 155.388C248.938 154.517 250.007 153.827 251.196 153.364C252.385 152.9 253.667 152.673 254.958 152.698C256.122 152.693 257.274 152.914 258.339 153.347C259.404 153.779 260.357 154.413 261.137 155.207L258.954 157.656C258.459 157.163 257.863 156.765 257.199 156.486C256.536 156.207 255.819 156.052 255.089 156.03C254.317 156.017 253.553 156.171 252.858 156.482C252.164 156.792 251.559 157.25 251.094 157.816C249.971 159.241 249.409 160.976 249.5 162.733C249.397 164.493 249.926 166.235 251.007 167.691C251.456 168.276 252.056 168.75 252.753 169.069C253.451 169.387 254.224 169.542 255.002 169.517C255.845 169.496 256.673 169.305 257.427 168.958C258.181 168.611 258.844 168.117 259.369 167.51L261.552 169.939C260.744 170.867 259.717 171.614 258.548 172.122C257.378 172.629 256.099 172.885 254.806 172.869Z" fill="#FDFDFB"/>
<path d="M273.603 172.87C272.318 172.916 271.037 172.695 269.858 172.222C268.678 171.749 267.63 171.038 266.792 170.14C264.949 168.048 264.016 165.402 264.172 162.714C264.007 160.037 264.942 157.401 266.792 155.328C267.649 154.459 268.703 153.773 269.88 153.318C271.057 152.864 272.328 152.653 273.603 152.699C274.875 152.656 276.142 152.869 277.315 153.323C278.488 153.777 279.538 154.461 280.393 155.328C282.233 157.406 283.167 160.038 283.013 162.714C283.169 165.402 282.236 168.048 280.393 170.14C279.559 171.037 278.515 171.749 277.339 172.222C276.163 172.694 274.886 172.916 273.603 172.87ZM273.603 169.518C274.345 169.527 275.077 169.362 275.73 169.039C276.383 168.716 276.936 168.245 277.337 167.671C278.34 166.188 278.827 164.459 278.734 162.714C278.834 160.988 278.345 159.276 277.337 157.817C276.929 157.254 276.372 156.795 275.72 156.483C275.067 156.17 274.339 156.015 273.603 156.03C272.864 156.011 272.132 156.165 271.475 156.478C270.818 156.79 270.258 157.251 269.848 157.817C268.849 159.271 268.368 160.976 268.473 162.694C268.375 164.445 268.863 166.182 269.87 167.671C270.276 168.238 270.831 168.701 271.484 169.017C272.137 169.332 272.866 169.491 273.603 169.478V169.518Z" fill="#FDFDFB"/>
<path d="M296.723 172.568C296.025 172.568 295.195 172.568 294.256 172.568H286.833V170.862C288.542 169.518 290.113 168.033 291.527 166.426C292.476 165.447 293.064 164.218 293.208 162.913C293.251 162.322 293.039 161.738 292.619 161.288C292.412 161.088 292.16 160.933 291.881 160.832C291.602 160.731 291.302 160.688 291.003 160.706C290.471 160.749 289.955 160.894 289.489 161.133C289.022 161.372 288.616 161.698 288.296 162.091L286.702 160.625C287.329 160.005 288.067 159.489 288.885 159.1C289.684 158.73 290.568 158.544 291.462 158.558C292.078 158.535 292.694 158.626 293.271 158.826C293.849 159.026 294.377 159.331 294.824 159.722C295.257 160.117 295.595 160.59 295.817 161.112C296.039 161.634 296.139 162.193 296.112 162.753C296.112 164.76 294.474 167.349 291.2 170.3C291.997 170.208 292.798 170.154 293.601 170.139H295.217H296.811C296.841 170.54 296.841 170.942 296.811 171.343C296.81 171.753 296.78 172.162 296.723 172.568Z" fill="#FDFDFB"/>
<path d="M311.068 172.588C310.338 172.628 309.605 172.587 308.885 172.468C309.103 170.461 309.234 167.852 309.234 164.58V153.02H313.884L317.487 162.112C317.683 162.674 317.989 163.537 318.36 164.701L318.753 165.865H318.906L319.495 164.139C319.779 163.236 320.019 162.553 320.172 162.132L323.687 153.04H328.359V167.631C328.34 169.252 328.413 170.874 328.578 172.488C327.859 172.621 327.125 172.661 326.394 172.609C325.664 172.667 324.928 172.627 324.211 172.488C324.349 171.154 324.415 169.814 324.408 168.474V164.46C324.408 163.336 324.56 161.369 324.844 158.539C324.844 158.338 324.844 158.178 324.844 158.077L323.141 162.633L319.888 170.802H317.465L314.19 162.633L312.509 158.077H312.4C312.4 158.258 312.4 158.559 312.509 158.981C312.793 161.59 312.946 163.416 312.946 164.46V168.474C312.938 169.814 313.004 171.154 313.142 172.488C312.459 172.612 311.761 172.645 311.068 172.588Z" fill="#FDFDFB"/>
<path d="M341.239 172.868C340.249 172.887 339.265 172.719 338.349 172.373C337.432 172.028 336.603 171.513 335.912 170.861C335.125 170.108 334.513 169.217 334.111 168.241C333.71 167.265 333.528 166.224 333.576 165.181C333.522 164.132 333.701 163.083 334.103 162.1C334.504 161.116 335.12 160.218 335.912 159.461C336.598 158.803 337.426 158.284 338.344 157.938C339.262 157.593 340.248 157.428 341.239 157.454C342.226 157.434 343.207 157.602 344.12 157.948C345.033 158.293 345.858 158.808 346.544 159.461C347.333 160.22 347.947 161.119 348.348 162.102C348.749 163.085 348.931 164.132 348.88 165.181C348.928 166.224 348.746 167.265 348.345 168.241C347.943 169.217 347.331 170.108 346.544 170.861C345.856 171.511 345.03 172.024 344.118 172.369C343.205 172.715 342.225 172.884 341.239 172.868ZM341.239 169.717C341.734 169.728 342.223 169.621 342.659 169.407C343.095 169.192 343.464 168.877 343.728 168.493C344.371 167.486 344.683 166.328 344.623 165.161C344.689 164 344.377 162.847 343.728 161.849C343.471 161.456 343.105 161.132 342.668 160.91C342.231 160.688 341.738 160.576 341.239 160.585C340.736 160.57 340.237 160.68 339.796 160.902C339.354 161.124 338.986 161.451 338.728 161.849C338.079 162.847 337.768 164 337.833 165.161C337.774 166.328 338.085 167.486 338.728 168.493C339 168.873 339.374 169.182 339.814 169.389C340.254 169.597 340.745 169.696 341.239 169.677V169.717Z" fill="#FDFDFB"/>
<path d="M353.815 172.468V157.756H357.221L357.505 159.763H357.614C358.272 159.083 359.07 158.528 359.962 158.132C360.853 157.736 361.821 157.506 362.81 157.455C366.085 157.455 367.723 159.422 367.723 163.356V172.528H363.553V163.838C363.634 163.009 363.444 162.178 363.007 161.449C362.809 161.212 362.549 161.025 362.251 160.906C361.953 160.787 361.627 160.739 361.304 160.767C360.699 160.766 360.104 160.911 359.579 161.188C358.988 161.534 358.445 161.945 357.964 162.413V172.448L353.815 172.468Z" fill="#FDFDFB"/>
<path d="M375.516 155.388C374.861 155.404 374.223 155.197 373.726 154.806C373.497 154.616 373.314 154.383 373.19 154.124C373.066 153.865 373.003 153.584 373.005 153.3C373 153.014 373.061 152.729 373.186 152.466C373.31 152.203 373.494 151.967 373.726 151.775C374.223 151.384 374.861 151.176 375.516 151.193C376.165 151.171 376.798 151.38 377.284 151.775C377.519 151.964 377.704 152.199 377.825 152.463C377.946 152.728 378 153.014 377.983 153.3C377.985 153.579 377.924 153.855 377.804 154.111C377.683 154.366 377.507 154.596 377.284 154.786C376.805 155.194 376.169 155.41 375.516 155.388ZM373.333 172.468V157.756H377.699V172.468H373.333Z" fill="#FDFDFB"/>
<path d="M389.38 172.87C385.887 172.87 384.14 171.044 384.14 167.351V160.828H381.957V157.958L384.424 157.777L384.904 153.763H388.398V157.777H390.363C391.017 157.777 391.672 157.777 392.327 157.777C392.402 158.31 392.402 158.85 392.327 159.383C392.402 159.916 392.402 160.455 392.327 160.988C391.673 160.95 391.017 160.95 390.363 160.988H388.398V167.491C388.398 169.137 389.125 169.96 390.581 169.96C391.121 169.95 391.654 169.848 392.153 169.659L392.83 172.469C391.71 172.771 390.546 172.907 389.38 172.87Z" fill="#FDFDFB"/>
<path d="M403.048 172.87C402.058 172.889 401.074 172.72 400.158 172.375C399.241 172.03 398.412 171.515 397.721 170.863C396.938 170.107 396.329 169.215 395.927 168.24C395.526 167.264 395.342 166.225 395.385 165.183C395.336 164.134 395.517 163.087 395.919 162.104C396.32 161.121 396.933 160.223 397.721 159.462C398.409 158.806 399.237 158.289 400.155 157.943C401.072 157.598 402.057 157.432 403.048 157.455C404.039 157.433 405.024 157.6 405.941 157.945C406.857 158.291 407.686 158.807 408.375 159.462C409.16 160.224 409.771 161.123 410.172 162.105C410.573 163.088 410.756 164.134 410.711 165.183C410.754 166.225 410.57 167.264 410.168 168.24C409.767 169.215 409.157 170.107 408.375 170.863C407.684 171.515 406.855 172.03 405.938 172.375C405.022 172.72 404.038 172.889 403.048 172.87ZM403.048 169.719C403.546 169.733 404.04 169.628 404.48 169.413C404.921 169.199 405.292 168.882 405.559 168.494C406.195 167.485 406.498 166.327 406.432 165.163C406.504 164.003 406.2 162.851 405.559 161.851C405.298 161.456 404.929 161.131 404.488 160.909C404.047 160.687 403.55 160.576 403.048 160.586C402.545 160.572 402.046 160.681 401.605 160.903C401.163 161.126 400.795 161.453 400.537 161.851C399.896 162.851 399.592 164.003 399.664 165.163C399.598 166.327 399.901 167.485 400.537 168.494C400.809 168.874 401.183 169.183 401.623 169.391C402.063 169.598 402.554 169.697 403.048 169.678V169.719Z" fill="#FDFDFB"/>
<path d="M415.623 172.468V157.757H419.051L419.335 160.366H419.444C419.944 159.494 420.653 158.739 421.518 158.158C422.225 157.672 423.081 157.405 423.963 157.395C424.604 157.385 425.241 157.487 425.841 157.696L425.098 161.048C424.597 160.902 424.074 160.828 423.548 160.827C422.83 160.834 422.136 161.068 421.583 161.49C420.791 162.063 420.199 162.838 419.88 163.718V172.488L415.623 172.468Z" fill="#FDFDFB"/>
<path d="M416.998 246.95V236.613C417.007 235.461 416.948 234.308 416.823 233.161C416.823 233.161 416.823 233.161 416.998 233.161C417.725 233.196 418.454 233.196 419.181 233.161H421.364C425.163 233.161 427.084 234.546 427.084 237.316C427.123 237.947 426.999 238.578 426.722 239.157C426.445 239.736 426.023 240.247 425.491 240.648C424.319 241.423 422.893 241.806 421.452 241.731H419.268V246.95H416.998ZM419.356 239.985H421.364C422.305 240.05 423.243 239.824 424.028 239.343C424.327 239.089 424.561 238.778 424.712 238.43C424.863 238.083 424.928 237.709 424.901 237.336C424.935 236.976 424.869 236.613 424.709 236.283C424.548 235.953 424.299 235.666 423.984 235.449C423.151 235.05 422.214 234.869 421.277 234.927H419.334V240.005L419.356 239.985Z" fill="#C3C8CE"/>
<path d="M431.146 246.95V236.613C431.16 235.461 431.109 234.309 430.993 233.161C430.993 233.161 430.993 233.161 431.146 233.161C431.873 233.196 432.602 233.196 433.329 233.161H435.512C439.333 233.161 441.233 234.546 441.233 237.316C441.271 237.947 441.147 238.578 440.87 239.157C440.593 239.736 440.171 240.247 439.639 240.648C438.467 241.423 437.041 241.806 435.6 241.731H433.417V246.95H431.146ZM433.504 239.985H435.534C436.475 240.05 437.413 239.824 438.198 239.343C438.497 239.089 438.731 238.778 438.882 238.43C439.033 238.083 439.098 237.709 439.071 237.336C439.105 236.976 439.039 236.613 438.879 236.283C438.718 235.953 438.469 235.666 438.154 235.449C437.322 235.047 436.385 234.866 435.447 234.927H433.504V240.005V239.985Z" fill="#C3C8CE"/>
<path d="M446.363 247.131C445.938 247.161 445.51 247.127 445.097 247.03C445.228 245.465 445.293 243.598 445.293 241.41V233.081H448L450.729 240.046C450.86 240.367 451.035 240.868 451.275 241.551C451.515 242.233 451.625 242.554 451.734 242.835H451.93L452.389 241.511L452.891 240.046L455.598 233.081H458.327V243.417C458.313 244.57 458.364 245.722 458.48 246.87C458.067 246.97 457.639 247.004 457.214 246.97C456.796 247.005 456.374 246.971 455.969 246.87C456.086 245.736 456.137 244.597 456.122 243.458V240.046C456.122 239.283 456.122 238.039 456.406 236.031C456.415 235.938 456.415 235.844 456.406 235.75L455.205 238.942L452.607 245.525H451.144L448.393 239.102L447.214 235.911C447.214 236.092 447.214 236.373 447.214 236.754C447.345 238.4 447.411 239.544 447.411 240.186V243.598C447.396 244.737 447.447 245.876 447.564 247.01C447.175 247.118 446.768 247.159 446.363 247.131Z" fill="#C3C8CE"/>
<path d="M243.627 225.335V202.514L247.164 199.263L254.259 205.786V222.083L247.164 228.606L243.627 225.335ZM256.028 233.483L250.722 228.606L256.028 223.709H273.777L279.083 228.606L273.777 233.483H256.028ZM275.546 222.083V205.786L282.641 199.263L286.178 202.514V225.335L282.641 228.606L275.546 222.083ZM275.546 251.406V235.089L282.641 228.586L286.178 231.838V254.658L282.641 257.909L275.546 251.406Z" fill="#B8D818"/>
<path d="M300.174 225.333V202.513L303.711 199.261L310.806 205.784V222.082L303.711 228.605L300.174 225.333ZM312.575 204.139L305.479 197.636L309.038 194.364H333.839L337.398 197.636L330.302 204.139H312.575ZM309.038 262.826L305.479 259.554L312.575 253.051H330.302L337.398 259.554L333.839 262.826H309.038ZM312.575 233.482L307.247 228.605L312.575 223.708H330.302L335.63 228.605L330.302 233.482H312.575ZM332.071 222.082V205.784L339.166 199.261L342.703 202.513V225.333L339.166 228.605L332.071 222.082ZM332.071 251.405V235.088L339.166 228.585L342.703 231.836V254.657L339.166 257.908L332.071 251.405Z" fill="#B8D818"/>
<path d="M369.097 204.139L362.023 197.636L365.56 194.364H390.384L393.92 197.636L386.847 204.139H369.097ZM365.56 262.826L362.023 259.554L369.097 253.051H386.847L393.92 259.554L390.384 262.826H365.56ZM369.097 233.482L363.792 228.605L369.097 223.708H386.847L392.152 228.605L386.847 233.482H369.097ZM388.615 222.082V205.784L395.711 199.261L399.248 202.513V225.333L395.711 228.605L388.615 222.082ZM388.615 251.405V235.088L395.711 228.585L399.248 231.836V254.657L395.711 257.908L388.615 251.405Z" fill="#B8D818"/>
</svg>
