<svg width="671" height="207" viewBox="0 0 671 207" fill="none" xmlns="http://www.w3.org/2000/svg">
<path d="M566.512 0H103.5C46.3385 0 0 46.3385 0 103.5C0 160.661 46.3385 207 103.5 207H566.512C623.673 207 670.012 160.661 670.012 103.5C670.012 46.3385 623.673 0 566.512 0Z" fill="#7BBE31"/>
<path d="M109.25 114.464C110.71 114.464 111.536 115.298 111.536 116.773C111.536 118.184 110.71 119.018 109.25 119.018H101.25V129.602C101.25 131.783 99.9796 132.937 97.5667 132.937C95.2174 132.937 93.9474 131.783 93.9474 129.602V119.018H85.0579C83.5975 119.018 82.8356 118.184 82.8356 116.773C82.8356 115.298 83.5975 114.464 85.0579 114.464H93.9474V107.664H88.8042C87.8518 109.46 86.7723 111.192 85.5659 112.603C84.8674 113.566 83.9785 113.758 83.0896 113.181C82.6451 112.924 82.3276 112.539 82.2006 112.154V125.304C82.2006 131.783 76.6129 134.669 67.5964 130.115C66.517 129.602 66.0725 128.768 66.39 127.742C66.644 126.651 67.4059 126.202 68.6759 126.33C74.581 126.908 75.47 126.395 75.47 122.418V114.784H64.4851C63.9771 120.75 62.0722 126.908 57.6275 131.847C56.7385 132.937 55.7861 133.066 54.8336 132.36C53.8812 131.59 53.8177 130.628 54.3892 129.474C57.1195 124.406 57.945 119.018 57.945 107.985V94.5147L57.3735 94.9637C56.4211 95.7976 55.2781 95.8618 54.5797 95.0279C53.8177 94.194 53.8177 93.2318 54.5162 92.2055C57.7545 88.1644 60.3578 82.3273 61.7548 75.5921C62.3897 72.9622 64.1041 72.0641 66.644 72.6414C68.9299 73.1546 69.8188 75.1431 68.8029 77.9654H72.1047C73.2476 76.6826 75.343 76.3618 76.9939 77.0674C79.3433 78.0937 79.5972 80.5312 78.3908 82.7121C77.3114 84.7648 76.0414 86.4967 74.7715 87.972H78.5178C80.8672 87.972 82.2006 89.319 82.2006 91.6924V111C82.2641 110.872 82.2641 110.743 82.3276 110.615C83.8515 107.408 85.1214 103.303 85.6929 99.1331C86.0104 97.0164 87.2803 95.9259 89.3122 96.3749C91.3441 96.8881 92.1695 98.4276 91.5346 100.544L90.7726 103.11H93.9474V98.4917C93.9474 96.3108 95.2174 95.092 97.5667 95.092C99.9796 95.092 101.25 96.3108 101.25 98.4917V103.11H107.853C109.314 103.11 110.139 103.944 110.139 105.419C110.139 106.895 109.314 107.664 107.853 107.664H101.25V114.464H109.25ZM83.4705 93.296C87.9153 89.5756 89.3122 85.7269 89.8202 80.9802H85.0579C83.5975 80.9802 82.7721 80.0822 82.7721 78.6069C82.7721 77.2599 83.5975 76.426 85.0579 76.426H105.631C108.107 76.426 109.377 77.8372 109.25 80.4029C109.06 84.5723 108.806 87.7796 108.361 89.8322C107.409 95.0279 102.9 96.7598 96.0428 93.2318C95.0269 92.7187 94.6459 91.6924 94.9634 90.7944C95.2809 89.8963 96.1063 89.3832 97.3127 89.5756C100.805 90.2812 101.313 89.768 101.567 87.7796C101.821 86.4325 102.075 83.6102 102.075 81.75C102.075 81.2368 101.884 80.9802 101.377 80.9802H96.8048C95.7888 88.4851 91.9156 93.3601 85.4389 96.7598C84.296 97.4012 83.3435 97.2088 82.7086 96.1825C82.2006 95.2203 82.3276 94.3223 83.4705 93.296ZM71.4697 83.3536C71.5967 82.8404 71.3427 82.5197 70.8347 82.5197H66.8345C65.9455 84.5082 64.8661 86.3042 63.7231 87.972H69.6283C70.3903 86.5608 71.0252 84.9572 71.4697 83.3536ZM67.2789 99.0049V92.5263H65.0566C64.6121 92.5263 64.2946 92.847 64.2946 93.296V99.0049H67.2789ZM75.9145 93.296C75.9145 92.847 75.597 92.5263 75.1525 92.5263H72.8031V99.0049H75.9145V93.296ZM67.2789 110.294V103.495H64.2946V110.294H67.2789ZM72.8031 103.495V110.294H75.9145V103.495H72.8031Z" fill="#F9F8F3"/>
<path d="M128.299 91.8207C125.886 91.8207 124.426 90.6019 124.426 88.421V82.8404C124.426 80.3388 125.823 78.9276 128.426 78.9276H147.094V75.6562C147.094 73.2187 148.618 72 151.412 72C154.079 72 155.729 73.2187 155.729 75.6562V78.9276H174.524C177.001 78.9276 178.398 80.3388 178.398 82.8404V88.4851C178.398 90.6661 176.937 91.8848 174.524 91.8848C172.112 91.8848 170.778 90.6661 170.778 88.4851V84.1875C170.778 83.7385 170.461 83.4177 170.016 83.4177H132.807C132.363 83.4177 132.045 83.7385 132.045 84.1875V88.421C132.045 90.6019 130.712 91.8207 128.299 91.8207ZM146.268 83.6743C148.935 84.1875 152.11 85.3421 154.587 86.8174C156.555 87.972 156.745 89.6398 155.539 91.3075C154.333 93.0394 152.555 93.2318 150.904 91.8848C149.189 90.4095 146.713 88.5493 144.745 87.074C143.729 86.3684 143.538 85.4704 143.983 84.5723C144.364 83.6743 145.189 83.4177 146.268 83.6743ZM145.761 110.294C141.951 110.038 139.982 109.46 139.03 107.536C135.157 108.755 131.093 109.717 126.902 110.423C125.569 110.679 124.743 109.974 124.616 108.883C124.489 107.857 124.934 107.023 126.267 106.638C130.648 105.612 134.649 104.393 138.331 102.918V91.6282C138.331 89.3832 139.665 88.1644 142.078 88.1644C144.491 88.1644 145.824 89.3832 145.824 91.6282V99.4539C151.856 96.1825 156.745 92.1414 160.619 87.2664C162.333 85.1496 164.301 85.0855 166.079 86.4325C167.921 87.7154 168.175 89.768 166.397 91.8207C162.27 96.6315 156.047 100.801 148.554 104.072H148.745C152.936 104.265 157.444 104.265 161.254 103.944C163.539 103.752 163.857 103.046 163.857 98.7483C163.857 97.4012 164.619 96.7598 165.635 96.7598C166.714 96.7598 167.349 97.3371 167.603 98.62C169.318 105.932 168.302 109.653 163.032 110.102C157.571 110.551 151.666 110.615 145.761 110.294ZM132.49 90.9868C133.188 89.7039 134.204 89.3832 135.284 89.768C136.3 90.1529 136.681 91.0509 136.363 92.5263C135.601 96.6315 133.76 100.865 131.156 103.495C129.569 105.227 127.601 105.163 126.204 103.687C124.743 102.148 124.743 100.48 126.648 98.8124C128.997 96.6957 130.966 93.8733 132.49 90.9868ZM177.89 99.3256C179.287 101.25 179.16 102.982 177.509 104.265C175.794 105.676 173.699 105.548 172.492 103.238C170.905 100.352 169.381 97.9144 167.603 95.4128C167.032 94.5147 167.095 93.6167 167.857 92.847C168.556 92.0772 169.508 92.1414 170.397 92.7187C173.127 94.3223 175.921 96.8239 177.89 99.3256ZM170.461 113.117C173 113.117 174.461 114.335 174.461 116.645V129.281C174.461 131.654 173 132.809 170.461 132.809C167.921 132.809 166.587 131.654 166.587 129.281V128.447H136.3V129.409C136.3 131.719 134.966 132.937 132.363 132.937C129.823 132.937 128.426 131.719 128.426 129.409V116.773C128.426 114.528 129.823 113.181 132.363 113.181C134.966 113.181 136.3 114.528 136.3 116.773V123.893H147.284V115.105C147.284 112.668 148.745 111.385 151.412 111.385C154.079 111.385 155.539 112.732 155.539 115.105V123.893H166.587V116.645C166.587 114.335 167.921 113.117 170.461 113.117Z" fill="#F9F8F3"/>
<path d="M248.053 114.592C250.403 129.73 247.545 134.156 240.688 132.232C235.671 130.885 231.862 127.293 228.941 121.969C223.925 126.266 217.829 129.666 210.59 131.654C209.193 132.039 208.304 131.654 207.923 130.5C207.479 129.281 207.923 128.319 209.193 127.742C216.369 124.406 221.893 120.429 226.274 115.618C223.925 108.627 222.591 99.7104 222.147 89.5756H205.13C204.685 89.5756 204.368 89.8963 204.368 90.3453V97.722H215.797C218.21 97.722 219.607 99.069 219.543 101.699C219.48 108.434 219.289 112.668 218.845 116.516C218.273 121.776 212.559 124.021 204.685 120.237C203.733 119.724 203.415 118.89 203.669 117.735C203.923 116.709 204.685 116.26 205.955 116.452C210.463 117.029 211.352 116.773 211.543 114.784C211.86 111.962 211.924 108.306 211.987 103.367C211.987 102.854 211.67 102.597 211.225 102.597H204.368C204.177 116.388 201.764 126.202 194.907 131.975C193.891 132.809 192.811 133.001 191.859 132.039C190.97 131.205 190.97 130.243 191.605 129.089C195.161 122.867 196.304 117.799 196.304 100.737V88.7417C196.304 86.1759 197.764 84.5082 200.367 84.5082H222.02C221.956 81.8141 221.893 78.9276 221.893 76.0411C221.956 73.5395 223.417 72.3849 225.956 72.3849C228.496 72.3849 229.83 73.4753 229.83 76.0411C229.83 78.9276 229.83 81.9424 229.893 84.5082H239.164C238.656 84.1875 238.148 83.6743 237.767 82.9687C235.989 80.2746 234.274 77.5806 232.751 75.528C231.989 74.5658 232.116 73.6036 232.941 72.7697C233.703 72 234.655 72.1283 235.671 72.7056C238.275 74.3092 240.751 76.2977 243.1 78.7352C244.878 80.5312 244.815 82.648 242.974 84.1233L242.402 84.5082H246.212C247.736 84.5082 248.561 85.4704 248.561 87.0098C248.561 88.6134 247.736 89.5756 246.212 89.5756H230.084C230.401 96.3749 231.1 102.34 232.179 107.408C234.211 103.816 235.862 99.9029 237.322 95.541C238.148 93.0394 240.243 92.2697 242.656 93.2318C245.069 94.194 245.767 96.0542 244.751 98.6841C242.402 104.842 239.164 110.807 234.846 116.003C236.497 119.852 238.656 122.546 241.259 123.765C243.037 124.599 243.862 123.572 243.862 114.592C243.862 113.117 244.624 112.411 245.704 112.411C246.91 112.347 247.799 112.924 248.053 114.592Z" fill="#F9F8F3"/>
<path d="M311.169 87.074C313.518 87.074 314.915 88.4851 314.851 90.9868C314.407 108.178 313.708 118.505 313.074 125.048C312.439 132.103 305.454 134.22 293.707 129.217C292.564 128.768 292.247 127.742 292.564 126.715C292.818 125.625 293.644 125.24 294.914 125.432C303.867 126.587 304.883 125.946 305.2 122.802C305.771 116.58 306.343 106.766 306.66 92.4621C306.66 91.949 306.343 91.6924 305.898 91.6924H299.295C297.898 112.283 293.326 123.636 278.785 132.552C277.579 133.322 276.5 133.066 275.865 132.039C275.166 130.885 275.357 129.923 276.436 128.96C286.596 120.365 290.278 109.974 291.294 91.6924H283.611C282.087 91.6924 281.262 90.7944 281.262 89.3832C281.262 87.9078 282.087 87.074 283.611 87.074H291.548C291.612 83.7385 291.675 80.2105 291.675 76.3618C291.675 73.796 293.136 72.449 295.739 72.449C298.406 72.449 299.866 73.796 299.803 76.3618C299.739 80.1464 299.676 83.7385 299.549 87.074H311.169ZM286.913 107.664C287.484 108.627 287.23 109.781 286.151 110.551C280.881 114.271 273.388 118.184 265.197 120.878C262.911 121.648 260.499 120.814 259.864 117.799C259.356 115.105 260.562 113.245 263.102 112.796C265.324 112.347 267.547 111.898 269.705 111.385V84.8931H263.102C261.578 84.8931 260.752 84.0592 260.752 82.5197C260.752 81.0444 261.578 80.2105 263.102 80.2105H284.754C286.278 80.2105 287.104 81.0444 287.104 82.5197C287.104 84.0592 286.278 84.8931 284.754 84.8931H278.024V109.14C280.182 108.498 282.214 107.729 284.246 106.959C285.453 106.446 286.405 106.766 286.913 107.664Z" fill="#F9F8F3"/>
<path d="M339.044 118.184C340.059 116.773 341.901 116.516 343.361 117.607C346.028 119.659 348.949 121.584 353.648 121.584C358.283 121.584 361.204 119.403 361.267 115.747C361.331 112.539 359.68 109.974 352.251 105.997C343.044 100.993 338.79 97.2088 338.853 90.7302C339.044 83.546 345.203 78.9276 354.791 78.9276C360.505 78.9276 365.141 80.5954 367.363 82.648C368.887 83.995 369.204 85.9194 368.125 87.4588C367.045 88.9983 365.077 89.4473 363.363 88.0361C361.204 86.3684 358.537 85.0855 354.6 85.1496C350.536 85.1496 348.06 87.1381 347.997 90.0246C347.933 93.1677 349.52 95.4769 356.95 99.4539C366.728 104.65 370.474 108.434 370.474 114.656C370.474 122.995 364.252 127.934 353.965 127.934C347.489 127.934 342.282 125.881 339.615 123.123C338.091 121.648 337.964 119.724 339.044 118.184Z" fill="#F9F8F3"/>
<path d="M406.685 92.6545C409.415 92.6545 410.939 94.194 410.939 96.8881V124.085C410.939 126.523 409.542 127.934 407.066 127.934C404.59 127.934 403.193 126.523 403.129 124.15V122.161C401.224 125.881 397.478 127.87 392.843 127.87C385.16 127.87 380.779 123.38 380.779 115.49V96.9522C380.779 94.194 382.302 92.6545 385.096 92.6545C387.89 92.6545 389.478 94.194 389.478 96.9522V114.271C389.478 119.531 391.065 121.84 394.875 121.84C399.002 121.84 401.732 117.543 402.431 114.528V96.8881C402.431 94.194 403.955 92.6545 406.685 92.6545Z" fill="#F9F8F3"/>
<path d="M437.993 127.934C427.58 127.934 421.294 121.584 421.294 110.551C421.294 99.5822 427.834 92.6545 438.184 92.6545C444.089 92.6545 448.153 95.3486 449.677 97.3371C450.82 98.7483 450.756 100.416 449.613 101.571C448.216 102.789 446.438 102.789 445.168 101.442C443.771 99.967 441.549 98.7483 438.628 98.7483C433.358 98.7483 430.183 102.982 430.247 110.294C430.247 117.863 433.422 121.648 438.628 121.776C441.93 121.776 443.962 120.622 445.549 119.146C446.819 118.056 448.407 118.056 449.677 119.146C450.947 120.301 451.01 121.969 449.804 123.508C447.581 126.266 443.327 127.934 437.993 127.934Z" fill="#F9F8F3"/>
<path d="M474.452 127.934C464.038 127.934 457.752 121.584 457.752 110.551C457.752 99.5822 464.292 92.6545 474.642 92.6545C480.547 92.6545 484.611 95.3486 486.135 97.3371C487.278 98.7483 487.214 100.416 486.071 101.571C484.675 102.789 482.897 102.789 481.627 101.442C480.23 99.967 478.007 98.7483 475.087 98.7483C469.816 98.7483 466.642 102.982 466.705 110.294C466.705 117.863 469.88 121.648 475.087 121.776C478.388 121.776 480.42 120.622 482.008 119.146C483.278 118.056 484.865 118.056 486.135 119.146C487.405 120.301 487.468 121.969 486.262 123.508C484.04 126.266 479.785 127.934 474.452 127.934Z" fill="#F9F8F3"/>
<path d="M526.086 107.6C526.086 110.807 524.498 112.475 521.069 112.475H503.036C503.544 119.21 506.338 122.033 511.672 122.097C515.101 122.161 517.768 121.199 519.99 119.146C521.387 117.992 522.911 117.992 524.054 119.146C525.26 120.301 525.324 121.904 524.181 123.251C522.085 125.946 517.26 127.934 511.227 127.934C501.005 127.934 494.21 122.546 494.21 111.128C494.21 99.6463 500.56 92.5904 510.973 92.5904C521.069 92.5904 526.149 100.352 526.086 107.6ZM517.387 106.702C517.831 106.702 518.022 106.446 518.022 106.061C518.022 101.442 515.418 98.2351 511.037 98.2351C506.592 98.2351 503.989 101.506 503.227 106.702H517.387Z" fill="#F9F8F3"/>
<path d="M534.271 119.852C535.224 118.569 536.811 118.312 538.271 119.275C540.176 120.557 542.97 121.904 546.272 121.904C549.764 121.904 551.415 120.814 551.415 118.569C551.415 116.58 549.574 115.041 544.558 112.796C538.144 109.974 534.271 107.151 534.271 101.956C534.271 96.4391 539.541 92.6545 547.161 92.6545C552.431 92.6545 556.368 94.2582 558.146 95.9259C559.416 97.1447 559.67 98.8766 558.717 100.095C557.638 101.442 555.733 101.699 554.146 100.608C552.304 99.2614 549.955 98.6841 547.415 98.6841C544.621 98.6841 542.843 99.967 542.843 101.699C542.843 103.559 544.748 104.714 549.447 106.83C556.304 109.909 560.241 112.86 560.241 118.056C560.241 124.983 554.082 127.934 547.224 127.934C542.716 127.934 537.509 126.844 534.843 124.278C533.509 122.995 533.192 121.263 534.271 119.852Z" fill="#F9F8F3"/>
<path d="M568.373 119.852C569.326 118.569 570.913 118.312 572.374 119.275C574.278 120.557 577.072 121.904 580.374 121.904C583.866 121.904 585.517 120.814 585.517 118.569C585.517 116.58 583.676 115.041 578.66 112.796C572.247 109.974 568.373 107.151 568.373 101.956C568.373 96.4391 573.643 92.6545 581.263 92.6545C586.533 92.6545 590.47 94.2582 592.248 95.9259C593.518 97.1447 593.772 98.8766 592.819 100.095C591.74 101.442 589.835 101.699 588.248 100.608C586.406 99.2614 584.057 98.6841 581.517 98.6841C578.723 98.6841 576.945 99.967 576.945 101.699C576.945 103.559 578.85 104.714 583.549 106.83C590.406 109.909 594.343 112.86 594.343 118.056C594.343 124.983 588.184 127.934 581.327 127.934C576.818 127.934 571.612 126.844 568.945 124.278C567.611 122.995 567.294 121.263 568.373 119.852Z" fill="#F9F8F3"/>
<path d="M610.476 112.988C608.444 112.988 607.111 111.834 606.984 109.781L605.396 84.2516C605.142 80.7237 607.047 78.7993 610.476 78.7993C613.968 78.7993 615.873 80.7237 615.619 84.2516L613.968 109.781C613.841 111.834 612.571 112.988 610.476 112.988ZM610.476 127.87C607.364 127.87 604.888 125.368 604.888 122.289C604.888 119.339 607.364 116.901 610.476 116.901C613.46 116.901 616 119.339 616 122.289C616 125.368 613.46 127.87 610.476 127.87Z" fill="#F9F8F3"/>
</svg>
