<svg width="560" height="420" viewBox="0 0 560 420" fill="none" xmlns="http://www.w3.org/2000/svg">
<path d="M434.136 282.053V113.78C434.136 101.737 434.791 89.8553 430.032 78.415C425.082 66.9348 416.459 57.1063 405.302 50.229C394.145 43.3517 380.98 39.7496 367.548 39.8993H363.509V38.4542C363.498 36.0722 362.586 33.7678 360.929 31.9366C359.271 30.1055 356.972 28.8617 354.426 28.4189C340.039 25.8699 311.111 21.374 286.266 21.374C261.421 21.374 232.493 25.8699 218.105 28.4189C215.561 28.8653 213.264 30.11 211.608 31.9404C209.951 33.7708 209.038 36.0732 209.023 38.4542V39.8993C199.602 39.8166 190.243 41.3129 181.405 44.3148C166.363 49.6423 153.868 59.707 146.146 72.715C141.118 81.5273 138.538 91.3454 138.635 101.296V120.604H116.126C113.231 120.604 110.455 119.546 108.407 117.664C106.36 115.782 105.21 113.23 105.21 110.568V56.257H87.7441V110.588C87.7441 117.508 90.7344 124.145 96.0571 129.038C101.38 133.931 108.599 136.68 116.126 136.68H138.635V279.423C138.635 287.452 138.635 295.299 138.635 303.227C138.611 317.991 144.547 332.237 155.293 343.208L156.865 344.713L165.991 377.288L162.913 387.484C162.714 388.099 162.651 388.745 162.727 389.383C162.803 390.022 163.017 390.639 163.357 391.2C163.697 391.761 164.155 392.254 164.705 392.65C165.255 393.046 165.885 393.337 166.559 393.505C167.013 393.624 167.484 393.685 167.956 393.686C169.101 393.685 170.214 393.338 171.125 392.701C172.036 392.063 172.694 391.168 172.999 390.154L175.183 382.727L227.842 363.018H344.908L397.589 382.727L399.772 390.154C400.081 391.166 400.74 392.059 401.65 392.697C402.56 393.334 403.671 393.681 404.816 393.686C405.288 393.685 405.758 393.624 406.213 393.505C406.888 393.339 407.521 393.05 408.072 392.655C408.623 392.259 409.083 391.766 409.423 391.205C409.763 390.643 409.977 390.024 410.052 389.385C410.127 388.746 410.061 388.099 409.859 387.484L406.802 377.288L416.43 342.847C425.735 333.767 431.733 322.248 433.591 309.891C434.922 300.819 434.136 291.205 434.136 282.053ZM168.677 367.975L163.764 350.373C166.525 352.294 169.445 354.012 172.497 355.511L168.677 367.975ZM176.907 376.746L182.125 359.445C186.965 361.003 191.983 362.047 197.081 362.556C201.706 362.901 206.349 363.015 210.988 362.897H213.913L176.907 376.746ZM358.771 362.897H365.059C373.683 362.873 382.235 361.447 390.319 358.683L395.777 376.746L358.771 362.897ZM403.986 367.975L399.947 354.608C403.24 352.916 406.379 350.983 409.335 348.828L403.986 367.975Z" fill="#948775"/>
</svg>
