<svg width="142" height="284" viewBox="0 0 142 284" fill="none" xmlns="http://www.w3.org/2000/svg">
<g clip-path="url(#clip0_75_156)">
<path d="M0 284.021C18.7488 284.18 37.3435 280.625 54.7113 273.561C72.0791 266.497 87.8758 256.063 101.19 242.862C114.504 229.661 125.073 213.953 132.285 196.646C139.497 179.34 143.21 160.775 143.21 142.026C143.21 123.276 139.497 104.712 132.285 87.4055C125.073 70.0985 114.504 54.3913 101.19 41.19C87.8758 27.9886 72.0791 17.5546 54.7113 10.4903C37.3435 3.42601 18.7488 -0.128461 0 0.0312775V284.021Z" fill="#F2EEE4"/>
<path d="M91.341 165.603L74.2825 151.42L47.3197 129.013L45.99 127.91L60.2649 115.119L87.352 90.8461L93.5362 85.3111C95.0411 83.9711 94.0929 81.5904 93.1241 80.3639C91.5265 78.354 88.3827 76.8592 86.0224 76.148C80.9204 74.6019 73.891 73.654 69.5311 77.5295L52.5145 92.7837L25.4379 117.046L19.2537 122.571C18.866 123.007 18.6051 123.542 18.4997 124.116C18.3944 124.69 18.4484 125.282 18.6558 125.828C19.2382 127.18 20.2058 128.331 21.4384 129.137L38.4862 143.309L65.4597 165.727L71.7163 170.88C73.9324 172.725 77.6428 173.828 80.3948 174.333C83.1468 174.838 86.9501 175.106 89.733 174.199C91.4337 173.653 94.0722 172.694 94.268 170.56C94.4638 168.427 92.9179 166.912 91.341 165.603Z" fill="white"/>
<path d="M39.7647 211.191C39.7647 216.344 35.3636 218.251 29.3958 218.251C27.7511 218.28 26.1059 218.215 24.4688 218.055C22.8609 217.787 22.0676 217.024 22.0676 215.489V196.163C22.0392 195.839 22.078 195.512 22.1819 195.204C22.2857 194.895 22.4523 194.612 22.6711 194.371C22.8898 194.13 23.1561 193.936 23.4531 193.803C23.7502 193.67 24.0713 193.6 24.3968 193.597C25.8671 193.418 27.3476 193.339 28.8286 193.36C34.1986 193.36 38.7959 195.091 38.7959 199.657C38.8364 200.982 38.3796 202.274 37.5156 203.279C36.6516 204.284 35.4425 204.93 34.1266 205.089V205.326C36.961 205.687 39.7647 207.625 39.7647 211.191ZM26.6952 196.998V203.924H28.3651C32.2612 203.76 34.2297 202.894 34.2297 199.956C34.2297 197.297 31.9002 196.493 28.6947 196.493C28.1501 196.487 27.6057 196.522 27.0661 196.596C27.0142 196.595 26.9626 196.604 26.9147 196.624C26.8667 196.644 26.8236 196.674 26.7883 196.712C26.7531 196.75 26.7269 196.796 26.7108 196.845C26.6947 196.894 26.6893 196.946 26.6952 196.998ZM35.0954 210.892C35.0954 207.8 32.632 206.862 28.3958 206.769C27.798 206.769 27.2312 206.769 26.6952 206.769V214.572C26.6952 214.768 26.7982 214.902 27.0661 214.933C27.7174 215.033 28.3761 215.078 29.0349 215.066C32.426 215.087 35.0954 214.056 35.0954 210.892Z" fill="#B1AAA2"/>
<path d="M58.7185 206.718V216.345C58.7185 217.746 58.0899 218.509 56.719 218.509C56.4323 218.537 56.1431 218.5 55.873 218.399C55.603 218.299 55.3591 218.138 55.1604 217.93C54.9617 217.721 54.8132 217.47 54.7261 217.195C54.6389 216.92 54.6155 216.63 54.6576 216.345V215.448C54.0197 216.457 53.1231 217.276 52.0607 217.82C50.9983 218.364 49.8092 218.613 48.6178 218.54C45.1237 218.54 42.9902 216.479 42.9902 213.273C42.9902 209.377 46.6182 206.883 52.184 206.811C52.9219 206.775 53.6617 206.82 54.3899 206.945V206.615C54.3899 204.45 53.2872 203.245 51.2258 203.214C50.3576 203.229 49.5022 203.426 48.7155 203.794C47.9288 204.162 47.2282 204.691 46.6596 205.347C46.3743 205.689 45.966 205.906 45.5227 205.95C45.0794 205.994 44.6361 205.863 44.2887 205.584C44.1182 205.445 43.9783 205.273 43.877 205.078C43.7757 204.883 43.7153 204.669 43.6998 204.45C43.6844 204.231 43.714 204.011 43.7869 203.803C43.8599 203.596 43.9748 203.406 44.1241 203.244C45.0284 202.238 46.1444 201.444 47.3919 200.92C48.6393 200.396 49.9873 200.155 51.339 200.214C54.0704 200.214 56.0082 200.884 57.3068 202.214C58.3486 203.473 58.8551 205.09 58.7185 206.718ZM54.3587 209.717C53.6411 209.625 52.9177 209.591 52.1946 209.614C48.5562 209.748 47.2266 211.315 47.2575 212.943C47.2245 213.266 47.2642 213.591 47.3737 213.896C47.4832 214.2 47.6596 214.477 47.8901 214.704C48.1206 214.932 48.3988 215.105 48.7049 215.21C49.011 215.316 49.3374 215.351 49.6591 215.314C50.646 215.26 51.6009 214.946 52.4266 214.403C53.2523 213.86 53.9188 213.107 54.3587 212.222V209.717Z" fill="#B1AAA2"/>
<path d="M62.4805 209.49C62.4805 203.79 65.9229 200.214 71.3547 200.214C72.4749 200.167 73.5923 200.36 74.632 200.78C75.6718 201.199 76.6101 201.835 77.3844 202.646C77.5273 202.793 77.6391 202.968 77.713 203.159C77.787 203.35 77.8214 203.554 77.8147 203.759C77.808 203.964 77.7601 204.166 77.6738 204.352C77.5874 204.538 77.4642 204.705 77.3119 204.842C77.1611 204.996 76.9801 205.118 76.78 205.199C76.5799 205.28 76.3652 205.319 76.1494 205.313C75.9335 205.307 75.7213 205.257 75.5258 205.165C75.3304 205.073 75.1558 204.942 75.0135 204.78C74.5667 204.325 74.0319 203.967 73.4418 203.726C72.8516 203.485 72.219 203.366 71.5817 203.378C68.8194 203.378 67.1493 205.584 67.1493 209.377C67.1493 213.17 68.8503 215.273 71.5817 215.345C72.249 215.371 72.9149 215.264 73.5399 215.028C74.1649 214.793 74.736 214.434 75.2198 213.974C75.5137 213.7 75.9002 213.548 76.3019 213.548C76.7035 213.548 77.0906 213.7 77.3844 213.974C77.5432 214.115 77.6712 214.287 77.7608 214.48C77.8505 214.673 77.9 214.882 77.9058 215.094C77.9116 215.307 77.8736 215.518 77.7946 215.715C77.7155 215.912 77.5972 216.092 77.4463 216.242C76.2816 217.674 74.045 218.54 71.2621 218.54C65.7478 218.519 62.4805 215.221 62.4805 209.49Z" fill="#B1AAA2"/>
<path d="M81.6836 216.324V194.257C81.7225 193.678 81.9799 193.135 82.4038 192.739C82.8276 192.343 83.3862 192.122 83.9664 192.122C84.5467 192.122 85.1052 192.343 85.5291 192.739C85.953 193.135 86.2109 193.678 86.2498 194.257V207.089C88.3112 205.295 90.7127 203.265 93.207 200.905C93.3751 200.706 93.582 200.544 93.8155 200.428C94.049 200.313 94.3037 200.247 94.5639 200.234C94.824 200.222 95.0838 200.263 95.3273 200.355C95.5709 200.447 95.7931 200.589 95.9796 200.771C96.1803 200.952 96.3369 201.176 96.4376 201.427C96.5382 201.678 96.5802 201.948 96.5604 202.218C96.5405 202.487 96.4592 202.749 96.3228 202.982C96.1864 203.215 95.9983 203.414 95.7732 203.564L90.6197 207.903L96.3198 215.118C96.5181 215.315 96.6719 215.551 96.7707 215.813C96.8695 216.074 96.9106 216.353 96.892 216.631C96.8734 216.91 96.7956 217.181 96.663 217.427C96.5304 217.673 96.3462 217.887 96.1235 218.056C95.9007 218.251 95.6384 218.396 95.3545 218.481C95.0706 218.566 94.7718 218.588 94.4783 218.547C94.1848 218.506 93.9036 218.402 93.6539 218.243C93.4043 218.083 93.1919 217.872 93.0314 217.623L87.7339 210.026L86.2704 211.356V216.355C86.2315 216.934 85.9736 217.477 85.5497 217.873C85.1259 218.269 84.5674 218.489 83.9871 218.489C83.4068 218.489 82.8483 218.269 82.4244 217.873C82.0005 217.477 81.7432 216.934 81.7042 216.355L81.6836 216.324Z" fill="#B1AAA2"/>
</g>
<defs>
<clipPath id="clip0_75_156">
<rect width="142" height="284" fill="white"/>
</clipPath>
</defs>
</svg>
