<svg width="142" height="284" viewBox="0 0 142 284" fill="none" xmlns="http://www.w3.org/2000/svg">
<g clip-path="url(#clip0_1119_183)">
<path d="M142 284.021C123.251 284.18 104.656 280.625 87.2887 273.561C69.9209 266.497 54.1242 256.063 40.8099 242.862C27.4957 229.661 16.9272 213.953 9.71518 196.646C2.50319 179.339 -1.20987 160.775 -1.20987 142.026C-1.20987 123.276 2.50319 104.712 9.71518 87.4054C16.9272 70.0984 27.4957 54.3911 40.8099 41.1898C54.1242 27.9885 69.9209 17.5545 87.2887 10.4902C104.656 3.42588 123.251 -0.128583 142 0.0311554V284.021Z" fill="#F2EEE4"/>
<path d="M50.659 165.603L67.7175 151.421L94.6803 129.013L96.01 127.91L81.7351 115.119L54.648 90.8461L48.4638 85.3111C46.9589 83.9712 47.9071 81.5905 48.8759 80.364C50.4735 78.3541 53.6173 76.8592 55.9776 76.148C61.0796 74.602 68.109 73.6541 72.4689 77.5295L89.4855 92.7837L116.562 117.047L122.746 122.571C123.134 123.007 123.395 123.542 123.5 124.116C123.606 124.69 123.552 125.282 123.344 125.828C122.762 127.18 121.794 128.331 120.562 129.137L103.514 143.309L76.5403 165.727L70.2837 170.88C68.0676 172.725 64.3572 173.828 61.6052 174.333C58.8532 174.838 55.0499 175.106 52.267 174.199C50.5663 173.653 47.9278 172.694 47.732 170.561C47.5362 168.427 49.0821 166.912 50.659 165.603Z" fill="white"/>
<path d="M62.8106 211.191C62.8106 216.344 58.4095 218.251 52.4417 218.251C50.797 218.28 49.1518 218.215 47.5146 218.055C45.9068 217.787 45.1135 217.024 45.1135 215.489V196.163C45.0851 195.839 45.1239 195.512 45.2278 195.204C45.3316 194.895 45.4982 194.612 45.717 194.371C45.9357 194.13 46.202 193.936 46.499 193.803C46.7961 193.67 47.1172 193.6 47.4427 193.597C48.913 193.418 50.3935 193.339 51.8745 193.36C57.2445 193.36 61.8418 195.091 61.8418 199.657C61.8823 200.982 61.4255 202.274 60.5615 203.279C59.6975 204.284 58.4884 204.93 57.1725 205.089V205.326C60.0069 205.687 62.8106 207.625 62.8106 211.191ZM49.7411 196.998V203.924H51.411C55.307 203.76 57.2756 202.894 57.2756 199.956C57.2756 197.297 54.9461 196.493 51.7406 196.493C51.196 196.487 50.6516 196.522 50.112 196.596C50.0601 196.595 50.0085 196.604 49.9606 196.624C49.9126 196.644 49.8695 196.674 49.8342 196.712C49.799 196.75 49.7728 196.796 49.7567 196.845C49.7406 196.894 49.7352 196.946 49.7411 196.998ZM58.1413 210.892C58.1413 207.8 55.6779 206.862 51.4417 206.769C50.8439 206.769 50.2771 206.769 49.7411 206.769V214.572C49.7411 214.768 49.8441 214.902 50.112 214.933C50.7633 215.033 51.422 215.078 52.0808 215.066C55.4719 215.087 58.1413 214.056 58.1413 210.892Z" fill="#B1AAA2"/>
<path d="M81.7644 206.718V216.345C81.7644 217.746 81.1358 218.509 79.7649 218.509C79.4782 218.537 79.189 218.5 78.9189 218.399C78.6489 218.299 78.405 218.138 78.2063 217.93C78.0076 217.721 77.8591 217.47 77.772 217.195C77.6848 216.92 77.6614 216.63 77.7035 216.345V215.448C77.0656 216.457 76.169 217.276 75.1066 217.82C74.0442 218.364 72.8551 218.613 71.6637 218.54C68.1696 218.54 66.0361 216.479 66.0361 213.273C66.0361 209.377 69.6641 206.883 75.2299 206.811C75.9678 206.775 76.7076 206.82 77.4358 206.945V206.615C77.4358 204.45 76.3331 203.245 74.2717 203.214C73.4035 203.229 72.5481 203.426 71.7614 203.794C70.9747 204.162 70.2741 204.691 69.7055 205.347C69.4202 205.689 69.0119 205.906 68.5686 205.95C68.1253 205.994 67.682 205.863 67.3346 205.584C67.1641 205.445 67.0242 205.273 66.9229 205.078C66.8216 204.883 66.7612 204.669 66.7457 204.45C66.7303 204.231 66.7599 204.011 66.8328 203.803C66.9058 203.596 67.0207 203.406 67.17 203.244C68.0743 202.238 69.1903 201.444 70.4378 200.92C71.6852 200.396 73.0332 200.155 74.3849 200.214C77.1163 200.214 79.0541 200.884 80.3527 202.214C81.3945 203.473 81.901 205.09 81.7644 206.718ZM77.4046 209.717C76.687 209.625 75.9636 209.591 75.2405 209.614C71.6021 209.748 70.2725 211.315 70.3034 212.943C70.2704 213.266 70.3101 213.591 70.4196 213.896C70.5291 214.2 70.7055 214.477 70.936 214.704C71.1665 214.932 71.4447 215.105 71.7508 215.21C72.0569 215.316 72.3833 215.351 72.705 215.314C73.6919 215.26 74.6468 214.946 75.4725 214.403C76.2982 213.86 76.9647 213.107 77.4046 212.222V209.717Z" fill="#B1AAA2"/>
<path d="M85.5273 209.49C85.5273 203.79 88.9698 200.214 94.4016 200.214C95.5218 200.167 96.6391 200.36 97.6789 200.779C98.7186 201.199 99.657 201.835 100.431 202.646C100.574 202.793 100.686 202.968 100.76 203.159C100.834 203.35 100.868 203.554 100.862 203.759C100.855 203.964 100.807 204.166 100.721 204.352C100.634 204.538 100.511 204.704 100.359 204.842C100.208 204.996 100.027 205.118 99.8268 205.199C99.6268 205.28 99.4121 205.319 99.1962 205.313C98.9804 205.307 98.7681 205.257 98.5727 205.165C98.3772 205.073 98.2027 204.942 98.0604 204.78C97.6136 204.325 97.0788 203.967 96.4886 203.726C95.8985 203.485 95.2659 203.366 94.6285 203.378C91.8663 203.378 90.1962 205.584 90.1962 209.377C90.1962 213.17 91.8972 215.273 94.6285 215.345C95.2959 215.371 95.9618 215.264 96.5868 215.028C97.2118 214.793 97.7829 214.434 98.2667 213.974C98.5605 213.7 98.9471 213.547 99.3487 213.547C99.7504 213.547 100.137 213.7 100.431 213.974C100.59 214.115 100.718 214.287 100.808 214.48C100.897 214.673 100.947 214.882 100.953 215.094C100.958 215.307 100.92 215.518 100.841 215.715C100.762 215.912 100.644 216.092 100.493 216.242C99.3285 217.674 97.0919 218.54 94.309 218.54C88.7947 218.519 85.5273 215.221 85.5273 209.49Z" fill="#B1AAA2"/>
<path d="M104.729 216.324V194.257C104.767 193.678 105.025 193.135 105.449 192.739C105.873 192.343 106.431 192.122 107.011 192.122C107.592 192.122 108.15 192.343 108.574 192.739C108.998 193.135 109.256 193.678 109.295 194.257V207.089C111.356 205.295 113.758 203.265 116.252 200.905C116.42 200.706 116.627 200.544 116.86 200.428C117.094 200.313 117.349 200.247 117.609 200.234C117.869 200.222 118.129 200.263 118.372 200.355C118.616 200.447 118.838 200.589 119.024 200.771C119.225 200.952 119.382 201.176 119.482 201.427C119.583 201.678 119.625 201.948 119.605 202.218C119.585 202.487 119.504 202.749 119.368 202.982C119.231 203.215 119.043 203.414 118.818 203.564L113.665 207.903L119.365 215.118C119.563 215.314 119.717 215.551 119.816 215.812C119.914 216.074 119.956 216.353 119.937 216.631C119.918 216.91 119.841 217.181 119.708 217.427C119.575 217.673 119.391 217.887 119.168 218.056C118.946 218.251 118.683 218.396 118.399 218.481C118.116 218.566 117.817 218.588 117.523 218.547C117.23 218.506 116.949 218.402 116.699 218.243C116.449 218.083 116.237 217.872 116.076 217.623L110.779 210.026L109.315 211.356V216.355C109.276 216.934 109.019 217.477 108.595 217.873C108.171 218.269 107.612 218.489 107.032 218.489C106.452 218.489 105.893 218.269 105.469 217.873C105.045 217.477 104.788 216.934 104.749 216.355L104.729 216.324Z" fill="#B1AAA2"/>
</g>
<defs>
<clipPath id="clip0_1119_183">
<rect width="142" height="284" fill="white" transform="matrix(-1 0 0 1 142 0)"/>
</clipPath>
</defs>
</svg>
