<svg xmlns="http://www.w3.org/2000/svg" viewBox="0 0 1122.2 631.24"><defs><style>.cls-1,.cls-2{fill:#fdfdfb;}.cls-1{opacity:0.52;}.cls-3{fill:none;}.cls-4{opacity:0.4;}.cls-5{fill:#a39b91;}.cls-6{fill:#584938;}.cls-7{fill:#546273;}.cls-8{fill:#f3f4f5;}.cls-9{fill:#b8da18;}.cls-10{opacity:0.5;}.cls-11{fill:#ffe718;}.cls-12{fill:#ea7a18;}.cls-13{fill:#b8d818;}.cls-14{fill:#737e8c;}.cls-15{fill:#c3c8ce;}.cls-16{fill:#b0b7bf;}.cls-17{fill:#6d757e;}.cls-18{fill:#f0f1f2;}.cls-19{fill:#6cb3d5;}</style></defs><g id="綠"><path class="cls-1" d="M944.94,220.32c0,41.41-9.15,86.42-35.69,120.91C832.47,441,739.5,439.57,595.91,439.57c-87.21,0-216.47,8.51-290.36-18.11-110.4-39.76-148.29-90.09-148.29-163.09,0-60.85,44.6-144.9,109.42-179.62C331.7,43.92,417.11,20.46,526,20.46c134.46,0,260.65,18.34,339,69.89C913.46,122.19,944.94,173.79,944.94,220.32Z"/><path class="cls-2" d="M924.11,220.86c0,39.23-8.67,81.85-33.81,114.52-72.71,94.49-160.77,93.14-296.76,93.14-82.6,0-205,8.06-275-17.15C214,373.72,178.09,326,178.09,256.9c0-57.62,42.24-137.23,103.64-170.12,61.58-33,142.47-55.2,245.62-55.2,127.36,0,246.87,17.37,321.1,66.2C894.29,127.93,924.11,176.8,924.11,220.86Z"/><rect class="cls-3" width="1122.2" height="631.24"/><g class="cls-4"><path class="cls-5" d="M377.21,342.09l-.57-.27a3.19,3.19,0,0,1-.61-.45,1.86,1.86,0,0,1-.46-.67,4.55,4.55,0,0,1-.22-.92,7,7,0,0,1,0-1.06,7.94,7.94,0,0,1,.12-1.47,6.57,6.57,0,0,1,.39-1.27,2.66,2.66,0,0,0,.12-.28c.06-.16.13-.33.21-.52l.18-.42c.09-.18.22-.43.4-.74a10.61,10.61,0,0,1,.58-.9c.31-.46.58-.85.79-1.14a7.7,7.7,0,0,1,.63-.76,8.08,8.08,0,0,1,.67-.6c.24-.19.54-.42.91-.67a1.94,1.94,0,0,1,.92-.32,2.11,2.11,0,0,1,1.1.17,1.53,1.53,0,0,1,.79.89,1.58,1.58,0,0,1,.16.85,4.1,4.1,0,0,1-.19,1.09,6.46,6.46,0,0,1-.45,1.08,3.32,3.32,0,0,1-.62.81.5.5,0,0,1-.56.06,1.65,1.65,0,0,1-.58-.34,1.33,1.33,0,0,1-.15-.32s0-.06,0-.07a1.71,1.71,0,0,0,.26-.39c.11-.18.22-.38.33-.59a4.71,4.71,0,0,0,.23-.51c.08-.46.14-.76.17-.9a.38.38,0,0,0-.09-.37.24.24,0,0,0-.19,0,1.76,1.76,0,0,0-.4.16,3.27,3.27,0,0,0-.88.66,10.33,10.33,0,0,0-1,1.18c-.43.57-.79,1.08-1.09,1.53a5.68,5.68,0,0,0-.66,1.36l-.18.42a1,1,0,0,1-.05.32,2.72,2.72,0,0,1-.14.43,8.54,8.54,0,0,0-.22,1.44,4.44,4.44,0,0,0,.09,1.2,1.55,1.55,0,0,0,.37.75.71.71,0,0,0,.53.1,3,3,0,0,0,.75-.23c.28-.12.59-.24.91-.39a4.81,4.81,0,0,0,.72-.35,4.51,4.51,0,0,0,.48-.34,2,2,0,0,1,.34-.21.75.75,0,0,1,.34-.1.26.26,0,0,1,.35.13,1.19,1.19,0,0,1,.11.53.91.91,0,0,1-.33.56,3.46,3.46,0,0,1-.71.55,1.41,1.41,0,0,1-.35.23,3,3,0,0,1-.45.19,4.54,4.54,0,0,1-.84.5,5.2,5.2,0,0,1-1,.38A2.36,2.36,0,0,1,377.21,342.09Z"/><path class="cls-5" d="M385.05,341.58a5.79,5.79,0,0,1-.94-.82,1.25,1.25,0,0,1-.39-.74,4.25,4.25,0,0,1,0-.79c0-.34.06-.67.11-1s.08-.57.11-.73a.54.54,0,0,0,.07-.36.93.93,0,0,1,.11-.43,5.17,5.17,0,0,0,.24-.9,16.65,16.65,0,0,1,.63-1.63,10.52,10.52,0,0,1,.59-1.13c.2-.32.39-.6.59-.86a7.72,7.72,0,0,1,2.35-1.73,4.18,4.18,0,0,1,.6-.3.59.59,0,0,1,.46,0,3.17,3.17,0,0,1,1.54.8,3.1,3.1,0,0,1,.84,1.74,11,11,0,0,1,.14,1.29,4.28,4.28,0,0,1-.09,1.13,5.37,5.37,0,0,1-.41,1.23,16,16,0,0,1-.84,1.56,10.23,10.23,0,0,1-1.45,2.2,6.48,6.48,0,0,1-1.58,1.34,3.31,3.31,0,0,1-1.49.49A1.74,1.74,0,0,1,385.05,341.58Zm1.3-1.07a2.09,2.09,0,0,0,.61-.15,1.52,1.52,0,0,0,.5-.37c.17-.18.42-.45.73-.81l.71-.83a5.13,5.13,0,0,0,.48-.7,5.23,5.23,0,0,0,.39-.85c.13-.33.26-.76.42-1.28.08-.32.15-.56.18-.72a2.56,2.56,0,0,0,.08-.4,3.15,3.15,0,0,0,0-.44v-.87a2.86,2.86,0,0,0-.12-.63,1.33,1.33,0,0,0-.22-.49,1.43,1.43,0,0,0-.49-.31.81.81,0,0,0-.68,0,2.08,2.08,0,0,0-.49.34,4.73,4.73,0,0,0-.6.59c-.21.23-.4.45-.59.68a5.65,5.65,0,0,0-.44.62,1,1,0,0,0-.16.39.48.48,0,0,1-.08.24,2.68,2.68,0,0,0-.44.75,10,10,0,0,0-.42,1.18,13.49,13.49,0,0,0-.32,1.33,8.74,8.74,0,0,0-.17,1.21v.43a1.47,1.47,0,0,0,0,.32,1.94,1.94,0,0,0,.14.3,1.08,1.08,0,0,0,.4.33A.86.86,0,0,0,386.35,340.51Z"/><path class="cls-5" d="M393.14,340.91a1.12,1.12,0,0,1-.18-.14,3.27,3.27,0,0,1-.24-.27,1.05,1.05,0,0,1-.15-.23.29.29,0,0,1,0-.23c0-.11.06-.17.1-.17s.06,0,.1-.09a2,2,0,0,0,.13-.25.62.62,0,0,0,.07-.17.13.13,0,0,1,.07-.08l.11-.07a1.09,1.09,0,0,1,.18-.22,1.37,1.37,0,0,0,.17-.19l.38-.39.53-.53.48-.53a.83.83,0,0,0,.22-.31.76.76,0,0,1,.16-.13l.17-.13.19-.17a.72.72,0,0,1,.13-.24,2.61,2.61,0,0,1,.22-.27,3.46,3.46,0,0,0,.32-.62q0-.15,0-.18l-.35-.12a1,1,0,0,0-.59,0,2.16,2.16,0,0,0-.72.39,1.52,1.52,0,0,0-.34.1.5.5,0,0,1-.25.05.36.36,0,0,1-.12-.11,1.15,1.15,0,0,0-.14-.17l-.13-.56.4-.22a5.47,5.47,0,0,1,1-.52,1.36,1.36,0,0,1,.86-.05,1.55,1.55,0,0,1,.37.06.63.63,0,0,1,.31.1,2.61,2.61,0,0,1,.4.3,1,1,0,0,1,.28.37,1.1,1.1,0,0,1,.16.75,2.1,2.1,0,0,1-.38.92c0,.06-.14.16-.29.33l-.5.55c-.18.21-.35.39-.5.54s-.25.26-.3.3a1.44,1.44,0,0,0-.3.25l-.46.46-.4.44c-.11.13-.15.19-.14.19s0,0,.14,0l.27-.09a3.27,3.27,0,0,1,.46-.13l.54-.1.47,0q.21,0,.24,0s0,.05.07,0,.13-.07.33,0a3.76,3.76,0,0,1,.55.12.83.83,0,0,1,.23.1c.06.05.08.09.08.12a1.13,1.13,0,0,0,.15.21q.21.17,0,.36a.81.81,0,0,1-.72.11,3,3,0,0,0-.56,0l-.22,0h-.32a1.83,1.83,0,0,0-.47,0,4.81,4.81,0,0,0-.56.15l-.36.12-.54.16a4.33,4.33,0,0,1-.51.11A.92.92,0,0,1,393.14,340.91Z"/><path class="cls-5" d="M405.72,342.74a3.17,3.17,0,0,1-.75,0,7.46,7.46,0,0,1-.94-.19.84.84,0,0,1-.37-.19c-.07-.08-.19-.22-.35-.43a1.25,1.25,0,0,1-.2-.55.91.91,0,0,1,.08-.55.53.53,0,0,1,.41-.29.43.43,0,0,1,.32.05l.4.22.73.4a1.08,1.08,0,0,0,.71.15,3,3,0,0,1,.55-.05,6,6,0,0,0,.61-.06,1,1,0,0,0,.48-.18c.58-.39,1.15-.82,1.71-1.28a.26.26,0,0,1,.12-.11l.22-.09.31-.31.41-.43.25-.25.07-.23a.58.58,0,0,0,0-.19,2.37,2.37,0,0,0,.35-.54q.22-.42.45-.93a4.91,4.91,0,0,0,.32-.93,5.29,5.29,0,0,0,.15-1.63,3.49,3.49,0,0,0-.37-1.31,3.55,3.55,0,0,0-.83-1,2.77,2.77,0,0,0-.49-.32l-.63-.33a4.6,4.6,0,0,0-.58-.23.76.76,0,0,0-.3-.07s-.13.18-.25.5-.28.73-.46,1.23-.36,1-.56,1.6-.4,1.1-.58,1.61c-.06.21-.12.42-.2.65s-.15.42-.21.59a1.63,1.63,0,0,0-.08.34,3.85,3.85,0,0,0-.37.84,8.69,8.69,0,0,0-.33,1.62c-.09.37-.17.68-.21.92s-.09.36-.13.35a.82.82,0,0,1-.08.36c0,.06-.06.11-.19.13a.9.9,0,0,1-.46-.08,1.41,1.41,0,0,1-.49-.44,3.83,3.83,0,0,1-.07-.53,2.32,2.32,0,0,1,.11-.82c.05-.2.13-.47.22-.8s.21-.66.33-1l.33-1c.1-.29.18-.51.22-.65s.18-.53.33-1c.08-.28.17-.56.26-.84s.18-.54.27-.76l.18-.43c.05-.14.12-.37.2-.69a8.57,8.57,0,0,1,.38-1.1l.12-.53-.18-.08a.72.72,0,0,1-.3,0l-.14,0a.33.33,0,0,1-.25-.06,1.23,1.23,0,0,1-.28-.23.78.78,0,0,1-.15-.25.84.84,0,0,1-.05-.27c0-.07.1-.14.28-.21a5.12,5.12,0,0,1,.67-.2c.28-.06.57-.11.89-.15a5.1,5.1,0,0,1,.87,0,5.67,5.67,0,0,1,1,.19c.41.11.76.22,1.06.33a4.51,4.51,0,0,1,1.12.66,6.44,6.44,0,0,1,1.09,1.12,3.61,3.61,0,0,1,.66,1.37,5.19,5.19,0,0,1,.1.55q0,.36.06.69a.72.72,0,0,1-.08.43.66.66,0,0,0,0,.15.15.15,0,0,0,.06.13s-.05.15-.11.36L413,336a4.84,4.84,0,0,1-.22,1c-.13.37-.26.72-.41,1a6.91,6.91,0,0,1-.38.77l-.12,0s0,0,0,0a.68.68,0,0,1-.18.31,1.48,1.48,0,0,0-.21.24,1.64,1.64,0,0,1-.21.25.39.39,0,0,1-.1.19.29.29,0,0,1-.15.07s-.05,0-.05.06a3.2,3.2,0,0,1-.44.51q-.3.3-.69.63t-.78.6a3.4,3.4,0,0,1-.72.41,1.59,1.59,0,0,1-.34.18l-.34.16a1.23,1.23,0,0,1-.47.11c-.26,0-.53.06-.82.08A5.49,5.49,0,0,0,405.72,342.74Z"/><path class="cls-5" d="M414.63,340.67a.79.79,0,0,0-.28-.26c-.15-.08-.22-.15-.22-.19a.56.56,0,0,0-.08-.21.86.86,0,0,0-.13-.2c-.06-.06,0-.22,0-.48s.22-.56.39-.93.37-.74.57-1.12a1.6,1.6,0,0,0,.26-.34,1.47,1.47,0,0,1,.2-.28.16.16,0,0,1,.05-.12.14.14,0,0,1,.11-.06l.13-.26a2,2,0,0,1,.2-.26c.12-.13.25-.27.42-.43s.32-.3.49-.44a3.11,3.11,0,0,1,.42-.31,1.15,1.15,0,0,1,.7-.21,1,1,0,0,1,.63.22,1.7,1.7,0,0,0,.22.2l.39.32.38.33.6.53-.28.82a2.19,2.19,0,0,0-.11,1.13,2.59,2.59,0,0,0,.31.85.6.6,0,0,0,.22.27.73.73,0,0,0,.36.13.6.6,0,0,1,.25.1.32.32,0,0,1,.11.26.9.9,0,0,1-.14.56.52.52,0,0,1-.3.2,2.06,2.06,0,0,1-1-.11,1.78,1.78,0,0,1-.88-.93,2.08,2.08,0,0,1-.17-.36,2.87,2.87,0,0,1-.12-.35l-.17.2-.2.22a6.77,6.77,0,0,1-2,1.52A1.41,1.41,0,0,1,414.63,340.67Zm1.25-1.47a4.85,4.85,0,0,0,.65-.46l.91-.78a4.35,4.35,0,0,0,.7-.8l.36-.58a1.49,1.49,0,0,0-.3-.49.4.4,0,0,0-.26-.11.8.8,0,0,0-.5.27,6,6,0,0,0-.66.78c-.24.34-.51.76-.82,1.27a5.62,5.62,0,0,0-.44,1A.71.71,0,0,0,415.88,339.2Z"/><path class="cls-5" d="M423.16,341.11a2.46,2.46,0,0,1-.81-.48c-.17-.17-.23-.31-.2-.44a.42.42,0,0,1,.11-.18.54.54,0,0,1,.37-.08,5.06,5.06,0,0,1,.88.16l.36,0,.33-.05a1.15,1.15,0,0,0,.26-.08c.05,0,.07-.05,0-.09a.4.4,0,0,0-.11-.12.33.33,0,0,0-.15-.11l-.14,0a.4.4,0,0,0-.14-.16l-.25-.18-.65-.52c-.2-.15-.27-.27-.23-.34v-.08c-.07,0-.14-.11-.21-.32a2.14,2.14,0,0,1-.1-.58,1.64,1.64,0,0,1,.14-.64,2.57,2.57,0,0,1,.36-.62,3.88,3.88,0,0,1,.44-.52c.21-.2.43-.39.66-.58a5.14,5.14,0,0,1,.77-.51,4.11,4.11,0,0,1,.91-.36,2.7,2.7,0,0,1,.52-.05.73.73,0,0,1,.42.09c.09-.06.2,0,.33,0a1.9,1.9,0,0,1,.39.33,1.51,1.51,0,0,1,.29.42c0,.13,0,.29,0,.48a3.49,3.49,0,0,1,0,.5c0,.14-.07.21-.14.21a.08.08,0,0,0-.08.09.59.59,0,0,1-.25.38,4.56,4.56,0,0,1-.58.34c-.19.09-.33.09-.42,0l-.18-.12a.61.61,0,0,1-.15-.17.51.51,0,0,1-.08-.21.33.33,0,0,1,.1-.18,2.91,2.91,0,0,0,.35-.39,2,2,0,0,0,.17-.31.79.79,0,0,0,0-.22c0-.07,0-.11,0-.12a.29.29,0,0,0-.17,0,1.08,1.08,0,0,0-.35.13c-.17.09-.36.19-.56.32a3.3,3.3,0,0,0-.45.33.69.69,0,0,1-.09.15.12.12,0,0,1-.09,0s0,0-.08,0l-.19.22a3.55,3.55,0,0,0-.23.31l-.18.26a1.07,1.07,0,0,1-.07.27.36.36,0,0,0,0,.25.49.49,0,0,0,.16.31c.1.1.24.22.42.37.38.28.66.51.85.67a3,3,0,0,1,.4.39.67.67,0,0,1,.15.29.86.86,0,0,1,.06.87,1.39,1.39,0,0,1-.65.56,2.22,2.22,0,0,1-.57.15,4.64,4.64,0,0,1-.85.07A2,2,0,0,1,423.16,341.11Z"/><path class="cls-5" d="M429.42,340.4a.35.35,0,0,1-.25-.09c-.09-.07-.17-.14-.25-.19a1.69,1.69,0,0,1-.23-.34.88.88,0,0,1-.06-.33,3.73,3.73,0,0,1,0-.42c0-.17.12-.4.2-.7s.16-.6.27-.94a2.87,2.87,0,0,1,.12-.46c.06-.18.13-.35.19-.52s.11-.29.15-.38c.07-.27.15-.53.23-.78s.18-.54.3-.86.27-.74.44-1.24l.54-1.46c.12-.32.2-.56.26-.7a3.19,3.19,0,0,0,.11-.34c0-.08.06-.17.19-.25a.61.61,0,0,1,.33-.12.65.65,0,0,1,.44.27,1.4,1.4,0,0,1,.29.6.88.88,0,0,1-.11.67,12.83,12.83,0,0,0-.51,1.31c-.17.48-.34,1-.5,1.44s-.32.91-.49,1.31a1.2,1.2,0,0,1-.1.28,3.15,3.15,0,0,1-.16.32l-.18.36c0,.07,0,.16-.06.28a2.62,2.62,0,0,1-.1.3,1.31,1.31,0,0,1-.05.22,2,2,0,0,0,0,.26,1.5,1.5,0,0,1,.22-.24l.38-.35.45-.39c.13-.11.26-.2.39-.29l.49-.36.07-.11a.22.22,0,0,1,.09-.08l.11-.09.17-.12a1.78,1.78,0,0,1,.3-.17,2,2,0,0,1,.35-.09,1.32,1.32,0,0,1,.34,0,.64.64,0,0,1,.4.16,1.5,1.5,0,0,1,.39.43.93.93,0,0,1,.2.49,3.67,3.67,0,0,1,0,.76,2.85,2.85,0,0,1-.07.49c0,.23-.08.41-.11.53l-.14.55h.13a.89.89,0,0,1,.52,0l.15.11.14.1c.07.08.05.21,0,.37a.92.92,0,0,1-.29.34,2.13,2.13,0,0,1-.69.33.92.92,0,0,1-.63-.12,1,1,0,0,1-.41-.5,2.26,2.26,0,0,1-.09-.8c0-.47.07-.82.08-1s0-.31-.16-.31a1.22,1.22,0,0,0-.53.18,7.15,7.15,0,0,0-.74.51,10.11,10.11,0,0,0-.8.69,7.17,7.17,0,0,0-.71.78,6.14,6.14,0,0,1-.42.47A.82.82,0,0,1,429.42,340.4Z"/><path class="cls-5" d="M439.38,340.92a1.09,1.09,0,0,1-.51-.17,1,1,0,0,1-.29-.35.77.77,0,0,1-.15-.23.26.26,0,0,1,0-.15h.15a.08.08,0,0,0,.08-.05.08.08,0,0,1,.05-.07h.13a1.59,1.59,0,0,0,.75-.21,5.59,5.59,0,0,0,1-.64q.54-.42,1.08-.9c.28-.37.47-.64.59-.81a1.14,1.14,0,0,0,.18-.4.5.5,0,0,0-.08-.28c0-.09-.14-.13-.3-.13a1.54,1.54,0,0,0-.75.32,8,8,0,0,0-1.12.81,5.79,5.79,0,0,0-.78.85l-.29.35-.36.44s-.06.1-.19.16a.65.65,0,0,1-.31.1.67.67,0,0,1-.17-.12.37.37,0,0,1-.14-.23l-.25-.21a.41.41,0,0,1-.09-.3,1.39,1.39,0,0,1,0-.32,4.37,4.37,0,0,1,.12-.51c.06-.28.13-.57.21-.88s.15-.58.22-.8a1.09,1.09,0,0,1,.15-.36,1.23,1.23,0,0,0,.13-.49,1.13,1.13,0,0,1,.11-.34.55.55,0,0,0,.07-.21,1.36,1.36,0,0,0,.2-.39l.32-.9a2,2,0,0,1,.11-.31l.28-.64c.11-.24.22-.49.33-.76s.21-.5.29-.7a4.18,4.18,0,0,0,.33-.57.74.74,0,0,1,.25-.33.58.58,0,0,1,.29.07,2.28,2.28,0,0,1,.41.21.75.75,0,0,1,.29.26.35.35,0,0,1,.06.16.65.65,0,0,1-.07.27l-.28.6-.55,1.16c-.3.65-.54,1.19-.71,1.62s-.3.81-.4,1.12-.21.62-.32.9l-.08.36.42-.48c.11-.1.22-.21.34-.3l.39-.3a2.54,2.54,0,0,1,.35-.2l.43-.19a1.78,1.78,0,0,1,.31-.09l.33-.08a3.64,3.64,0,0,1,.56,0,.88.88,0,0,1,.63.25,2.7,2.7,0,0,1,.48.61,1.54,1.54,0,0,1,.13.87,2.22,2.22,0,0,1-.28.9.88.88,0,0,0-.16.17.26.26,0,0,0-.08.17,1.54,1.54,0,0,1-.29.46c-.19.23-.37.45-.56.66a5,5,0,0,1-.71.61,7.78,7.78,0,0,1-.84.53,4.35,4.35,0,0,1-.7.34l-.38,0A2.76,2.76,0,0,0,439.38,340.92Z"/><path class="cls-5" d="M446.41,340.9a.62.62,0,0,1-.33-.08l-.3-.23a3,3,0,0,1-.5-.7,1.11,1.11,0,0,1-.14-.65.79.79,0,0,0,0-.37c-.06-.05-.07-.09-.05-.11a.17.17,0,0,0,.06-.09c.07,0,.09-.05.07-.17a1.2,1.2,0,0,1,.1-.56,3.59,3.59,0,0,1,.38-.82c.07-.11.17-.26.3-.43a6.77,6.77,0,0,1,.43-.54,3.47,3.47,0,0,1,.43-.43,5.88,5.88,0,0,1,.75-.55,2.57,2.57,0,0,1,.71-.3,3.57,3.57,0,0,1,.74-.08.82.82,0,0,1,.62.26,1.08,1.08,0,0,1,.53.44,1.92,1.92,0,0,1,.2.72,4,4,0,0,1-.09,1.19,4.76,4.76,0,0,1-.8,1.63,4.38,4.38,0,0,1-.8.91,5.47,5.47,0,0,1-.86.6,1.64,1.64,0,0,1-.73.28Zm1.66-2a2,2,0,0,0,.51-.68c.1-.25.21-.54.33-.88A.89.89,0,0,0,449,337a2.17,2.17,0,0,0,0-.44c0-.15-.05-.23-.12-.25a.27.27,0,0,0-.29-.06,1.76,1.76,0,0,0-.37.22,5.67,5.67,0,0,0-.9.93,3.06,3.06,0,0,0-.58,1.29.92.92,0,0,0,.09.61.36.36,0,0,0,.45.12A2.09,2.09,0,0,0,448.07,338.92Z"/><path class="cls-5" d="M452.39,340.67a.84.84,0,0,0-.29-.26c-.14-.08-.22-.15-.22-.19a.5.5,0,0,0-.07-.21,1.33,1.33,0,0,0-.14-.2c-.05-.06,0-.22.05-.48s.22-.56.39-.93.36-.74.57-1.12a2.71,2.71,0,0,0,.26-.34,1.57,1.57,0,0,1,.19-.28.21.21,0,0,1,.05-.12.14.14,0,0,1,.11-.06l.13-.26a2.55,2.55,0,0,1,.21-.26c.11-.13.25-.27.41-.43l.5-.44a3.13,3.13,0,0,1,.41-.31,1.18,1.18,0,0,1,.71-.21,1,1,0,0,1,.62.22l.22.2.39.32a4.75,4.75,0,0,1,.38.33l.6.53-.27.82a2.32,2.32,0,0,0-.12,1.13,2.84,2.84,0,0,0,.31.85.67.67,0,0,0,.22.27.77.77,0,0,0,.37.13.56.56,0,0,1,.24.1.3.3,0,0,1,.12.26.9.9,0,0,1-.14.56.55.55,0,0,1-.3.2,2.11,2.11,0,0,1-1-.11,1.81,1.81,0,0,1-.87-.93,1.52,1.52,0,0,1-.17-.36l-.13-.35-.17.2a2.19,2.19,0,0,1-.2.22,6.88,6.88,0,0,1-2,1.52A1.4,1.4,0,0,1,452.39,340.67Zm1.25-1.47a4.85,4.85,0,0,0,.65-.46l.91-.78a4.33,4.33,0,0,0,.69-.8l.36-.58a1.71,1.71,0,0,0-.29-.49.42.42,0,0,0-.26-.11.8.8,0,0,0-.5.27,4.74,4.74,0,0,0-.66.78,15.07,15.07,0,0,0-.82,1.27,5.62,5.62,0,0,0-.44,1A.77.77,0,0,0,453.64,339.2Z"/><path class="cls-5" d="M460.36,340.58a4.12,4.12,0,0,1-.32-.3.58.58,0,0,1-.12-.5,7.05,7.05,0,0,1,.13-.8c.05-.24.12-.51.2-.81a4.54,4.54,0,0,1,.17-.66c.09-.32.2-.66.33-1s.26-.71.4-1a5.36,5.36,0,0,1,.38-.74.75.75,0,0,1,.53-.17.73.73,0,0,1,.48.13.55.55,0,0,1,.11.52,4.5,4.5,0,0,1-.46,1.12,3.9,3.9,0,0,1-.2.42,1.86,1.86,0,0,0-.17.36q0,.14,0,.12a2,2,0,0,1,.36-.42l.55-.46c.2-.15.38-.29.56-.41l.35-.22a1.38,1.38,0,0,1,.3-.14l.24-.09a1.5,1.5,0,0,1,.82-.14c.3,0,.48.12.54.29a.45.45,0,0,0,.2.26s.07,0,.08.09-.08.19-.22.33a.83.83,0,0,1-.48.23,1,1,0,0,0-.37.08l-.39.16-1.12.63a4.38,4.38,0,0,0-1,.85l-.24.24a1.24,1.24,0,0,0-.26.32,1,1,0,0,0-.17.36c0,.19-.1.36-.13.53a2.32,2.32,0,0,0-.06.3,1.83,1.83,0,0,1-.21.46.89.89,0,0,1-.38.32C460.68,340.81,460.53,340.75,460.36,340.58Z"/><path class="cls-5" d="M471.16,341.32a.51.51,0,0,1-.42-.1,1,1,0,0,1-.28-.34,1.84,1.84,0,0,1-.12-.49c0-.16,0-.34,0-.55l0-.55-.66.6a3.81,3.81,0,0,1-1,.74,2,2,0,0,1-.86.22,1,1,0,0,1-.43-.23,3.33,3.33,0,0,1-.46-.46,2.5,2.5,0,0,1-.28-.41,1.24,1.24,0,0,1-.06-.64,4.76,4.76,0,0,1,.19-.89,9.66,9.66,0,0,1,.39-1,3.72,3.72,0,0,1,.55-.81,2.24,2.24,0,0,1,1.33-1,1.87,1.87,0,0,1,1.41.13.75.75,0,0,0,.43.12.23.23,0,0,0,.16-.21,4.84,4.84,0,0,1,.14-.49c.06-.15.13-.38.23-.68.27-.83.51-1.47.71-1.94s.38-.87.54-1.21a1.45,1.45,0,0,1,.36-.52.43.43,0,0,1,.31-.13,1,1,0,0,1,.44.13.6.6,0,0,1,.35.35.66.66,0,0,1,.06.31.8.8,0,0,1-.11.34c-.14.26-.3.61-.49,1s-.38.9-.57,1.41-.36,1-.53,1.51-.3.94-.4,1.32a5.28,5.28,0,0,0-.16.9c0,.37-.06.75-.08,1.13s0,.73,0,1a3.57,3.57,0,0,0,.05.57.58.58,0,0,1,0,.49.49.49,0,0,1-.27.22A1.53,1.53,0,0,1,471.16,341.32Zm-2.68-2a1.87,1.87,0,0,0,.4-.2c.12-.07.26-.17.43-.29a4.2,4.2,0,0,0,.7-.65,1.9,1.9,0,0,0,.35-.68.56.56,0,0,0,0-.42.88.88,0,0,0-.25-.34.63.63,0,0,0-.46-.13,1.26,1.26,0,0,0-.63.35,3.55,3.55,0,0,0-.66.83,4.29,4.29,0,0,0-.46,1.35.2.2,0,0,0,.11.23A.72.72,0,0,0,468.48,339.36Z"/><path class="cls-6" d="M345.32,317a1.13,1.13,0,0,1,1.27-1.26h16.93a1.27,1.27,0,1,1,0,2.54H346.59A1.14,1.14,0,0,1,345.32,317Zm1.9-13a1.13,1.13,0,0,1,1.25-1.25h13.26a1.25,1.25,0,0,1,0,2.5H348.47A1.13,1.13,0,0,1,347.22,304Z"/><path class="cls-6" d="M385.32,320c-3.51-.06-3.57-5.86-3.57-11.69a.25.25,0,0,0-.26-.28H379c.63.43.74,1.1,0,1.79-.19.19-.4.39-.62.58h2.15a.84.84,0,1,1,0,1.68H377V313h2.78a.82.82,0,0,1,0,1.64H377v.88h4.13a.84.84,0,1,1,0,1.68H377v1.46c0,1.1-.6,1.59-1.7,1.59s-1.7-.49-1.7-1.59v-1.46h-4.24a.84.84,0,1,1,0-1.68h4.24v-.88h-2.91a.82.82,0,0,1,0-1.64h2.91v-.86h-3.68a.84.84,0,1,1,0-1.68h2.17l0-.11c-.22-.62-.56-1.25-.76-1.85a1,1,0,0,1,0-.41H371a.8.8,0,0,1-.88-.88,1.28,1.28,0,0,1,0-.3c-.36.28-.73.56-1.09.81a.67.67,0,0,1-1-.08.71.71,0,0,1,0-1,19.68,19.68,0,0,0,3-5.58,1.62,1.62,0,0,1,2.22-1.25,1.35,1.35,0,0,1,1,1.92h11a.88.88,0,0,1,0,1.76H373.29a14.6,14.6,0,0,1-2.5,2.87.42.42,0,0,1,.19,0h12.51a1.34,1.34,0,0,1,1.49,1.49c0,5.23.13,7.82.34,8.35.28.71.56,0,.61-1.8a.7.7,0,0,1,.71-.76c.38,0,.66.2.75.76C388,318,387,320.05,385.32,320Zm-8.05-12h-4.5a13,13,0,0,1,1.16,1.27,1,1,0,0,1,.3,1.1h1.86a16.62,16.62,0,0,0,.92-1.92A4.49,4.49,0,0,1,377.27,308.06Zm5.92-4a.84.84,0,1,1,0,1.68h-9.26a.84.84,0,1,1,0-1.68Z"/><path class="cls-6" d="M398.41,302.35a16.19,16.19,0,0,1-1.27,3.08v13.24c0,1-.58,1.51-1.66,1.51s-1.66-.49-1.66-1.51v-8.43a13.4,13.4,0,0,1-1.91,1.76.8.8,0,0,1-1.12-.06.87.87,0,0,1,0-1.17,26.6,26.6,0,0,0,4.29-9.43,1.6,1.6,0,0,1,2.17-1.29C398.37,300.27,398.8,301,398.41,302.35Zm8.87,17.27a33.77,33.77,0,0,1-4.93,0c-2.39-.15-3-.84-3-3.4V301.58c0-1,.6-1.51,1.68-1.51s1.68.5,1.68,1.51v6.33a28.26,28.26,0,0,0,3.38-3.45,1.54,1.54,0,0,1,2.36-.15,1.63,1.63,0,0,1-.1,2.65,19.86,19.86,0,0,1-5.64,3.36v5.17c0,.73.23,1,1,1.07a17.07,17.07,0,0,0,3,0c.93-.08,1-.47,1-4.05a.78.78,0,0,1,.76-.83c.49,0,.8.25.9.83C410.47,317.45,410,319.41,407.28,319.62Z"/><path class="cls-6" d="M418.93,316.48H417.2v1.35c0,.74-.45,1.15-1.25,1.15a1.08,1.08,0,0,1-1.24-1.15v-4.9l-.33.36c-.32.35-.6.43-.92.17a.69.69,0,0,1-.2-.94c1.14-2.24,1.7-5.71,1.88-9.48h-1a.88.88,0,0,1,0-1.76H420a.88.88,0,1,1,0,1.76h-1.85a24,24,0,0,1-.69,4.18h1.51a1.26,1.26,0,0,1,1.39,1.4v6.46A1.26,1.26,0,0,1,418.93,316.48Zm-1-7.28a.25.25,0,0,0-.26-.26h-.24a.25.25,0,0,0-.26.26v5.56h.5a.25.25,0,0,0,.26-.26Zm14.21,10.25a1.41,1.41,0,0,1-2.33,0,9.64,9.64,0,0,1-1.89-5.32,8,8,0,0,1-5.49,6c-.46.13-.8,0-1-.33a.68.68,0,0,1,.3-.94,8.47,8.47,0,0,0,3.21-4.16,1,1,0,0,1-1.34-.79c0-.13-.06-.26-.08-.41a8.5,8.5,0,0,1-3.28,6.33.74.74,0,0,1-1.05,0,.78.78,0,0,1,0-1.08c1.27-1.77,1.63-3.38,1.63-8.46v-2a1.29,1.29,0,0,1,1.4-1.48h9.45a.88.88,0,1,1,0,1.76H424a.23.23,0,0,0-.25.26v1.68a2.4,2.4,0,0,1,.3.24,6.52,6.52,0,0,1,1.44,2,16.21,16.21,0,0,0,.17-2.37,1.37,1.37,0,0,1,1.57-1.52c1,0,1.62.53,1.58,1.52,0,.61-.05,1.27-.11,1.88a5.3,5.3,0,0,0,.24.84,24.11,24.11,0,0,0,1.14-2.22,1.12,1.12,0,0,1,1.76-.52c.65.37.69,1.14.2,1.83a10.14,10.14,0,0,1-2.27,2.26.52.52,0,0,1-.19.11,9.87,9.87,0,0,0,2.35,2.71A1.44,1.44,0,0,1,432.17,319.45Zm-10.68-14.68v-2.65c0-.8.51-1.23,1.44-1.23s1.44.43,1.44,1.23v2.06a.25.25,0,0,0,.26.26h.65v-3.16c0-.84.54-1.32,1.53-1.32s1.52.48,1.52,1.32v3.16H429a.25.25,0,0,0,.26-.26v-2c0-.82.51-1.25,1.46-1.25s1.46.43,1.46,1.25v2.59a1.26,1.26,0,0,1-1.39,1.4h-7.86A1.26,1.26,0,0,1,421.49,304.77Z"/><path class="cls-6" d="M440.67,305.22v13.54c0,.93-.58,1.42-1.62,1.42s-1.61-.49-1.61-1.42v-7.88a6,6,0,0,1-.5.58.72.72,0,0,1-1.1.09.82.82,0,0,1-.08-1.08,31.94,31.94,0,0,0,2.71-9.26,1.54,1.54,0,0,1,2-1.42c1.09.2,1.44.78,1.14,2.22A20.64,20.64,0,0,1,440.67,305.22ZM453,320.07a4.22,4.22,0,0,1-2.74-1.68,9.67,9.67,0,0,1-2.65,1,.78.78,0,0,1-1-.47.75.75,0,0,1,.52-1,11.4,11.4,0,0,0,2.21-1.18,14.83,14.83,0,0,1-.88-3.15h-2.11v.88c.26,0,.52-.1.78-.15a.7.7,0,0,1,.86.46.69.69,0,0,1-.43.88,9.69,9.69,0,0,1-1.21.58v1.61c0,2.2-2.3,2.91-4.8,1.51a.75.75,0,0,1,.47-1.42c1.25.11,1.36-.09,1.36-.77v-.09q-.45.09-.9.15a1.11,1.11,0,0,1-1.49-1c-.13-.75.24-1.18,1.1-1.27.41,0,.84,0,1.29-.09v-1.29h-1.61a.88.88,0,0,1,0-1.76h1.61v-.52c-.43,0-.86,0-1.29,0a.65.65,0,0,1-.75-.56c-.07-.36.12-.64.55-.75a12.78,12.78,0,0,0,3.62-1.34c.73-.32,1.34-.23,1.68.33.45.73.15,1.38-.69,1.66a.42.42,0,0,1-.15,0v1.1h1.87c0-.54-.08-1.1-.1-1.68-.07-1.08.43-1.49,1.29-1.49s1.33.37,1.4,1.44l.13,1.73h3.23a.88.88,0,0,1,0,1.76h-3c.09.41.15.8.24,1.14a3.65,3.65,0,0,0,.35-.43,1.16,1.16,0,0,1,1.72-.38c.58.38.6,1.05.08,1.74a8.48,8.48,0,0,1-1.18,1.29,1.74,1.74,0,0,0,.3.26c.52.36,1,0,1.08-1,0-.48.23-.71.6-.73s.65.21.71.73C455.42,319.45,454.62,320.31,453,320.07Zm-11.09-16.75a.74.74,0,0,1,.84-.79h2.09s0,0,0,0c-.3-.49-.66-1.09-1.07-1.7a.68.68,0,0,1,.06-.94.7.7,0,0,1,.93,0,7.87,7.87,0,0,1,1.83,1.32,1,1,0,0,1,.3,1.42h1.89c.24-.61.43-1.27.63-1.85a1.26,1.26,0,0,1,1.89-.76,1.1,1.1,0,0,1,.39,1.87,5.27,5.27,0,0,1-.69.74h2.54c.54,0,.82.25.82.79a.74.74,0,0,1-.82.84h-4v.52h3.27c.56,0,.88.28.88.8s-.32.79-.88.79h-3.27v.58h4.52a.82.82,0,1,1,0,1.64H442a.76.76,0,0,1-.82-.84.74.74,0,0,1,.82-.8h4.22v-.58h-3c-.56,0-.86-.28-.86-.79s.3-.8.86-.8h3v-.52h-3.44A.76.76,0,0,1,441.94,303.32Zm12,6.48a.92.92,0,0,1,.17,1.55,1,1,0,0,1-1.61-.06c-.37-.41-.78-.9-1.27-1.53a.71.71,0,0,1-.07-.95.66.66,0,0,1,.91-.17A16.83,16.83,0,0,1,453.93,309.8Z"/><path class="cls-6" d="M477.39,319.3a1.57,1.57,0,0,1-2.58-.07c-1.89-2-2.73-5.51-2.95-9.1a10.2,10.2,0,0,1-1.12,1.65v4.81l1-.26a.72.72,0,0,1,1,.41c.18.43,0,.77-.43,1.07a14.15,14.15,0,0,1-4.84,2,1.32,1.32,0,0,1-1.75-1c-.15-.77.22-1.37,1.21-1.5l.9-.13v-2.89a11.32,11.32,0,0,1-1.42.76c-.41.17-.71.12-.9-.2l-.09.13a.61.61,0,0,1-.82.3.79.79,0,0,1-.25-.17v1c.47-.11.94-.24,1.42-.37a.67.67,0,0,1,.92.35.72.72,0,0,1-.34,1,17.13,17.13,0,0,1-6,2.54c-1,.21-1.68-.11-1.85-1a1.27,1.27,0,0,1,1.21-1.68c.51-.07,1-.13,1.5-.22V315.6a1.18,1.18,0,0,1-.56.28c-.73.17-1.18-.05-1.27-.89-.11-1-.26-2.15-.39-3-.06-.45.07-.69.44-.82a.69.69,0,0,1,.86.39,9.22,9.22,0,0,1,.92,2.18v-3.15h-1.63a.88.88,0,1,1,0-1.76h1.63v-1.6h-.77a1.45,1.45,0,0,1-.45-.08c-.18.13-.37.26-.54.36a.68.68,0,0,1-1-.06.73.73,0,0,1,.08-1,17.5,17.5,0,0,0,2.8-5.47,1.44,1.44,0,0,1,2.07-1c.92.3,1.16.88.82,1.81a10.19,10.19,0,0,1,2.3,1.68c.69.68.71,1.31.09,1.89a1.78,1.78,0,0,1-.67.39.81.81,0,0,1,.26.64.77.77,0,0,1-.86.84h-1v1.6h1.33a.88.88,0,1,1,0,1.76h-1.33v3.45c.17-.69.3-1.38.43-2.13a.87.87,0,0,1,1.22-.82c.59.15.84.64.63,1.33-.11.3-.22.63-.35.93a12.52,12.52,0,0,0,2.91-3.9H467.3a.79.79,0,0,1-.86-.88.76.76,0,0,1,.86-.84h3v-1.25H467.9a.84.84,0,0,1,0-1.68h2.43v-1.1h-2.75a.86.86,0,0,1,0-1.72h2.75v-.62c0-.93.56-1.43,1.6-1.43s1.59.5,1.59,1.43V302h3a.86.86,0,0,1,0,1.72h-3v1.1h2.54a.84.84,0,0,1,0,1.68h-2.54v1.25h3.4a.75.75,0,0,1,.84.84.77.77,0,0,1-.84.88h-3.66a15.8,15.8,0,0,0,.67,2.69c.32-.34.62-.73.92-1.12a1.28,1.28,0,0,1,2-.17,1.16,1.16,0,0,1-.06,1.9,10.51,10.51,0,0,1-2.09,1.2,10.7,10.7,0,0,0,2.32,2.78A1.62,1.62,0,0,1,477.39,319.3Zm-15.67-13.72h3.36a1.62,1.62,0,0,1-.43-.49c-.39-.63-.8-1.25-1.21-1.79A13.77,13.77,0,0,1,461.72,305.58Z"/><path class="cls-6" d="M500.13,319.13a1.68,1.68,0,0,1-2.65.6,11.33,11.33,0,0,1-2.58-2.5,13.07,13.07,0,0,1-5,2.93.66.66,0,0,1-.92-.41.78.78,0,0,1,.32-1,17.16,17.16,0,0,0,4.26-3.7,18.38,18.38,0,0,1-1.55-7.09h-.13c0,5-1,8.74-3.42,11.56a.79.79,0,0,1-1.14.15.81.81,0,0,1-.22-1.09,20.32,20.32,0,0,0,1.6-7.09c-.63.43-1.21.2-1.55-.6l-.33-.71v8.5a1.59,1.59,0,0,1-3.18,0v-6.2a11.87,11.87,0,0,1-1.31,2.29c-.35.38-.72.49-1.06.19a.76.76,0,0,1-.19-1.1,24.38,24.38,0,0,0,2.26-7.75H482a.84.84,0,0,1,0-1.68h1.68v-3c0-1,.58-1.51,1.59-1.51s1.59.47,1.59,1.51v3h1.08a.84.84,0,0,1,0,1.68h-1.08v1.06a16.81,16.81,0,0,1,2,2.21c0-.47,0-1,0-1.48V302.4c0-1,.54-1.4,1.53-1.4.77,0,1.29.26,1.46.86a31,31,0,0,0,5.23-1.85,1.44,1.44,0,0,1,2.13.9A1.47,1.47,0,0,1,498,303a44.11,44.11,0,0,1-6.1.62v2.54h5.93a1.52,1.52,0,0,1,1.63,2,16.92,16.92,0,0,1-2.62,6.83,11.31,11.31,0,0,0,2.3,1.66C500.32,317.25,500.67,318.09,500.13,319.13Zm-5.06-6.46a14.52,14.52,0,0,0,1.16-4.42c0-.19-.06-.3-.24-.3h-2.67A15.82,15.82,0,0,0,495.07,312.67Z"/></g><g class="cls-4"><rect class="cls-7" x="332.23" y="145.23" width="181.04" height="133.94" rx="5.73"/><circle class="cls-8" cx="503.87" cy="154.63" r="2.74"/><circle class="cls-8" cx="503.87" cy="269.77" r="2.74"/><circle class="cls-8" cx="341.63" cy="154.63" r="2.74"/><circle class="cls-8" cx="341.63" cy="269.77" r="2.74"/><path class="cls-9" d="M368.92,249a10.65,10.65,0,0,1-6.72,10,10.44,10.44,0,0,1-11.6-3.36,11,11,0,0,1-1-12.22,10.12,10.12,0,0,1,10.93-4.88A10.91,10.91,0,0,1,368.92,249c0,.83,1.73.52,1.72-.16a11.78,11.78,0,0,0-7.88-11,12.58,12.58,0,0,0-13.51,3.71,11.74,11.74,0,0,0-1.1,13.57,12.21,12.21,0,0,0,22.49-6.23C370.65,248,368.93,248.27,368.92,249Z"/><circle class="cls-9" cx="354.52" cy="246.22" r="1.7"/><circle class="cls-9" cx="363.22" cy="246.22" r="1.7"/><path class="cls-9" d="M354.17,252.32a6.83,6.83,0,0,0,2.8,1.48,8.26,8.26,0,0,0,6.69-1.3c.65-.42-.31-1.52-.87-1.15a7.24,7.24,0,0,1-5.86,1.24,5.22,5.22,0,0,1-1.56-.7l-.21-.14-.13-.1-.16-.13a.67.67,0,0,0-.9-.08c-.25.27,0,.68.2.88Z"/><g class="cls-10"><path class="cls-11" d="M368.92,212.28a10.67,10.67,0,0,1-6.72,10,10.44,10.44,0,0,1-11.6-3.37,10.94,10.94,0,0,1-1-12.22,10.13,10.13,0,0,1,10.93-4.88,10.91,10.91,0,0,1,8.36,10.5c0,.82,1.73.51,1.72-.16a11.79,11.79,0,0,0-7.88-11.06,12.58,12.58,0,0,0-13.51,3.72,11.74,11.74,0,0,0-1.1,13.57,12.21,12.21,0,0,0,22.49-6.23C370.65,211.3,368.93,211.6,368.92,212.28Z"/><circle class="cls-11" cx="354.52" cy="209.55" r="1.7"/><circle class="cls-11" cx="363.22" cy="209.55" r="1.7"/><path class="cls-11" d="M354.66,215.87h8.71c.91,0,.4-1.25-.29-1.25h-8.7c-.91,0-.41,1.25.28,1.25Z"/></g><g class="cls-10"><path class="cls-12" d="M368.92,175.6a10.65,10.65,0,0,1-6.72,10,10.44,10.44,0,0,1-11.6-3.36,11,11,0,0,1-1-12.23,10.13,10.13,0,0,1,10.93-4.87,10.91,10.91,0,0,1,8.36,10.49c0,.82,1.73.52,1.72-.16a11.77,11.77,0,0,0-7.88-11.05,12.56,12.56,0,0,0-13.51,3.71,11.74,11.74,0,0,0-1.1,13.57,12.21,12.21,0,0,0,22.49-6.23C370.65,174.62,368.93,174.92,368.92,175.6Z"/><circle class="cls-12" cx="354.52" cy="172.87" r="1.7"/><circle class="cls-12" cx="363.22" cy="172.87" r="1.7"/><path class="cls-12" d="M355,179.14a7.94,7.94,0,0,1,2.48-1.07,6.74,6.74,0,0,1,5.59,1,.55.55,0,0,0,.82-.16c.15-.35-.18-.7-.43-.87a8.1,8.1,0,0,0-6.37-1.28,8.49,8.49,0,0,0-3,1.22c-.63.44.33,1.53.88,1.14Z"/></g><rect class="cls-13" x="376.55" y="257.27" width="14.76" height="3"/><rect class="cls-14" x="376.55" y="245.63" width="14.76" height="3"/><rect class="cls-14" x="376.55" y="233.98" width="14.76" height="3"/><rect class="cls-14" x="376.55" y="222.34" width="14.76" height="3"/><rect class="cls-14" x="376.55" y="210.69" width="14.76" height="3"/><rect class="cls-14" x="376.55" y="199.05" width="14.76" height="3"/><rect class="cls-14" x="376.55" y="187.4" width="14.76" height="3"/><rect class="cls-14" x="376.55" y="175.76" width="14.76" height="3"/><rect class="cls-14" x="376.55" y="164.12" width="14.76" height="3"/><path class="cls-2" d="M412.07,194a3.81,3.81,0,0,1-2.89-1.18,4.76,4.76,0,0,1-1.2-3.43,4.83,4.83,0,0,1,1.23-3.46,3.87,3.87,0,0,1,2.92-1.23,3.48,3.48,0,0,1,2.62,1.15l-.94,1.14a2.32,2.32,0,0,0-1.64-.75,2.06,2.06,0,0,0-1.69.82,3.55,3.55,0,0,0-.67,2.27,3.73,3.73,0,0,0,.63,2.29,2,2,0,0,0,1.69.83,2.47,2.47,0,0,0,1.85-.88l.94,1.11A3.58,3.58,0,0,1,412.07,194Z"/><path class="cls-2" d="M420,194a3.6,3.6,0,0,1-2.88-1.26,5,5,0,0,1-1.12-3.43,4.89,4.89,0,0,1,1.12-3.4,4,4,0,0,1,5.76,0,5.81,5.81,0,0,1,0,6.83A3.6,3.6,0,0,1,420,194Zm0-1.55a1.82,1.82,0,0,0,1.58-.85,3.94,3.94,0,0,0,.59-2.29,3.84,3.84,0,0,0-.58-2.26,2,2,0,0,0-3.18,0,3.84,3.84,0,0,0-.58,2.26,3.93,3.93,0,0,0,.59,2.29A1.8,1.8,0,0,0,420,192.48Z"/><path class="cls-2" d="M429.84,193.91a10.26,10.26,0,0,0-1,0h-3.14v-.72a15.72,15.72,0,0,0,2-2,2.84,2.84,0,0,0,.71-1.63,1.08,1.08,0,0,0-.24-.74.88.88,0,0,0-.69-.28,1.62,1.62,0,0,0-1.15.65l-.68-.68a3.31,3.31,0,0,1,.89-.7,2.34,2.34,0,0,1,1.1-.25A2,2,0,0,1,429,188a1.84,1.84,0,0,1,.55,1.4c0,1-.7,2.12-2.08,3.48a8.54,8.54,0,0,1,1-.07h.69l.67,0a2.13,2.13,0,0,1,0,.56A2.44,2.44,0,0,1,429.84,193.91Z"/><path class="cls-2" d="M435.92,193.92a3.61,3.61,0,0,1-.94-.06,34.78,34.78,0,0,0,.15-3.63V184.9h2l1.52,4.19c.08.26.21.65.37,1.19.07.24.13.42.17.54h.06c.06-.18.14-.44.25-.8s.22-.73.29-.93l1.49-4.19h2v6.72c0,.9,0,1.65.09,2.24a3.09,3.09,0,0,1-.9.06,3,3,0,0,1-.91-.06,17,17,0,0,0,.09-1.86v-1.88c0-.52.06-1.43.19-2.73,0-.09,0-.17,0-.21h0l-.73,2.1-1.37,3.77h-1l-1.39-3.77-.71-2.1h-.05c0,.08,0,.23.05.42q.18,1.8.18,2.52V192a17,17,0,0,0,.09,1.86A3,3,0,0,1,435.92,193.92Z"/><path class="cls-2" d="M448.72,194a3.07,3.07,0,0,1-2.26-.93,4,4,0,0,1,0-5.26,3.2,3.2,0,0,1,4.51,0,3.63,3.63,0,0,1,1,2.64,3.57,3.57,0,0,1-1,2.62A3.06,3.06,0,0,1,448.72,194Zm0-1.45a1.22,1.22,0,0,0,1.06-.57,2.71,2.71,0,0,0,.37-1.53,2.76,2.76,0,0,0-.37-1.54,1.27,1.27,0,0,0-2.13,0,2.76,2.76,0,0,0-.37,1.54,2.71,2.71,0,0,0,.37,1.53A1.22,1.22,0,0,0,448.72,192.58Z"/><path class="cls-2" d="M454.05,193.86v-6.78h1.45l.12.9h.05a3.12,3.12,0,0,1,2.19-1.07c1.39,0,2.09.91,2.09,2.72v4.23h-1.77v-4a2,2,0,0,0-.23-1.09.81.81,0,0,0-.73-.32,1.41,1.41,0,0,0-.72.19,3.48,3.48,0,0,0-.69.57v4.66Z"/><path class="cls-2" d="M463.28,186a1.1,1.1,0,0,1-.76-.27.92.92,0,0,1-.3-.7.88.88,0,0,1,.3-.7,1.1,1.1,0,0,1,.76-.27,1.09,1.09,0,0,1,.76.27.9.9,0,0,1,.29.7.94.94,0,0,1-.29.69A1.05,1.05,0,0,1,463.28,186Zm-.89,7.87v-6.78h1.76v6.78Z"/><path class="cls-2" d="M469.13,194c-1.48,0-2.22-.85-2.22-2.54v-3h-1v-1.32l1-.08.2-1.82h1.49v1.82h.83a7.56,7.56,0,0,0,.83,0,6.87,6.87,0,0,1,0,1.48,8.15,8.15,0,0,0-.83,0h-.83v3c0,.76.3,1.14.92,1.14a1.73,1.73,0,0,0,.66-.15l.29,1.3A4.49,4.49,0,0,1,469.13,194Z"/><path class="cls-2" d="M474.93,194a3.07,3.07,0,0,1-2.26-.93,4,4,0,0,1,0-5.26,3.2,3.2,0,0,1,4.51,0,3.63,3.63,0,0,1,1,2.64,3.57,3.57,0,0,1-1,2.62A3,3,0,0,1,474.93,194Zm0-1.45A1.22,1.22,0,0,0,476,192a2.71,2.71,0,0,0,.37-1.53,2.76,2.76,0,0,0-.37-1.54,1.23,1.23,0,0,0-1.06-.58,1.2,1.2,0,0,0-1.06.58,2.76,2.76,0,0,0-.38,1.54,2.7,2.7,0,0,0,.38,1.53A1.2,1.2,0,0,0,474.93,192.58Z"/><path class="cls-2" d="M480.26,193.86v-6.78h1.45l.12,1.2h.05a2.86,2.86,0,0,1,.88-1,1.83,1.83,0,0,1,1-.35,2.14,2.14,0,0,1,.79.14l-.31,1.54a2.33,2.33,0,0,0-.7-.11,1.28,1.28,0,0,0-.83.31,2.21,2.21,0,0,0-.73,1v4Z"/><path class="cls-15" d="M480.84,228.22v-4.77a14,14,0,0,0-.07-1.59s0-.05.07-.05a8.44,8.44,0,0,0,1,.05h1c1.61,0,2.42.64,2.42,1.91a1.84,1.84,0,0,1-.67,1.54,2.71,2.71,0,0,1-1.72.5h-1v2.41Zm1-3.22h.86a1.75,1.75,0,0,0,1.13-.3,1.1,1.1,0,0,0,.37-.93,1,1,0,0,0-.39-.87,2.1,2.1,0,0,0-1.14-.24h-.83V225Z"/><path class="cls-15" d="M486.84,228.22v-4.77a14,14,0,0,0-.07-1.59s0-.05.07-.05a8.44,8.44,0,0,0,1,.05h1c1.61,0,2.42.64,2.42,1.91a1.84,1.84,0,0,1-.67,1.54,2.71,2.71,0,0,1-1.72.5h-1v2.41Zm1-3.22h.86a1.75,1.75,0,0,0,1.13-.3,1.1,1.1,0,0,0,.37-.93,1,1,0,0,0-.39-.87,2.1,2.1,0,0,0-1.14-.24h-.83V225Z"/><path class="cls-15" d="M493.29,228.26a2,2,0,0,1-.53,0c.05-.72.08-1.59.08-2.6v-3.76H494l1.16,3.21.22.69c.09.27.15.47.2.6h0c.05-.14.12-.34.2-.62s.17-.52.22-.67l1.14-3.21h1.16v4.77q0,.94.06,1.59a3.53,3.53,0,0,1-1.06,0c0-.42.07-.94.07-1.58v-1.57c0-.35,0-1,.12-1.85v-.12h0l-.51,1.47-1.1,3h-.62l-1.11-3-.5-1.47h0q0,.12,0,.39c.06.75.09,1.28.09,1.58v1.57a13.83,13.83,0,0,0,.07,1.58A1.91,1.91,0,0,1,493.29,228.26Z"/><path class="cls-13" d="M407.33,218.25V207.72l1.5-1.5,3,3v7.51l-3,3Zm5.26,3.76-2.25-2.26,2.25-2.25h7.52l2.26,2.25L420.11,222Zm8.27-5.27v-7.51l3-3,1.5,1.5v10.53l-1.5,1.5Zm0,13.54v-7.52l3-3,1.5,1.51v10.52l-1.5,1.5Z"/><path class="cls-13" d="M431.3,218.25V207.72l1.51-1.5,3,3v7.51l-3,3Zm5.26-9.77-3-3,1.5-1.51h10.53l1.5,1.51-3,3Zm-1.5,27.06-1.5-1.51,3-3h7.52l3,3-1.5,1.51Zm1.5-13.53-2.25-2.26,2.25-2.25h7.52l2.26,2.25L444.08,222Zm8.27-5.27v-7.51l3-3,1.5,1.5v10.53l-1.5,1.5Zm0,13.54v-7.52l3-3,1.5,1.51v10.52l-1.5,1.5Z"/><path class="cls-13" d="M460.54,208.48l-3-3L459,204h10.53l1.5,1.51-3,3ZM459,235.54l-1.5-1.51,3-3h7.51l3,3-1.5,1.51ZM460.54,222l-2.26-2.26,2.26-2.25h7.51l2.26,2.25L468.05,222Zm8.27-5.27v-7.51l3-3,1.51,1.5v10.53l-1.51,1.5Zm0,13.54v-7.52l3-3,1.51,1.51v10.52l-1.51,1.5Z"/></g><path class="cls-5" d="M606.6,341.65a2.16,2.16,0,0,1-1-.37l-.93-.62a2.33,2.33,0,0,1-.42-.6,3.76,3.76,0,0,1-.25-.83,2.78,2.78,0,0,1,0-.82,7.63,7.63,0,0,1,.22-1,4.88,4.88,0,0,1,.27-.8,10.25,10.25,0,0,1,.5-1c.2-.35.4-.68.6-1l.48-.77c.07-.08.11-.12.09-.13a1.33,1.33,0,0,1,.18-.42l.3-.59a1,1,0,0,0,.27-.42.28.28,0,0,0,0-.26s0-.14.14-.28a3.59,3.59,0,0,1,.48-.48,4.15,4.15,0,0,1,.68-.48,1.44,1.44,0,0,1,.76-.33c.24,0,.38,0,.43.15s.06,0,.18,0l.44-.08.45-.09a.64.64,0,0,1,.38-.16l.71-.1H612l.66,0c.08,0,.19,0,.34.13a1.32,1.32,0,0,1,.35.47.4.4,0,0,1-.2.5,2.18,2.18,0,0,1-1,.29l-.76.11-.57.1c-.2,0-.49.1-.87.18l-.68.13a1.14,1.14,0,0,0-.48.2,1.89,1.89,0,0,0-.44.52,1.17,1.17,0,0,0-.3.42l-.35.68-.68.93q-.21.3-.15.39l.52.09a1.36,1.36,0,0,1,.4-.11,2.62,2.62,0,0,0,.38-.07l1.48-.38.69-.17.36-.06a.33.33,0,0,1,.46,0,1.21,1.21,0,0,1,.34.48.61.61,0,0,1,0,.5.89.89,0,0,1-.5.3c-.25.07-.61.16-1.08.26l-1.75.45a8.13,8.13,0,0,1-1.45.31c-.37,0-.54-.06-.52-.28-.07,0-.16,0-.25.13a2,2,0,0,0-.25.51,5.85,5.85,0,0,0-.2.7,3.65,3.65,0,0,0-.11.69,1.45,1.45,0,0,0,.05.51,1.6,1.6,0,0,0,.41.64,2.06,2.06,0,0,0,.84.43l.63.05a1.44,1.44,0,0,0,.7-.13,5.68,5.68,0,0,0,1.33-.34,2.88,2.88,0,0,0,.46-.25.4.4,0,0,0,.17-.13.14.14,0,0,1,.12-.06q0,.07,0,0l.26-.23a1.64,1.64,0,0,1,.69-.36,1.31,1.31,0,0,1,.56,0c.15,0,.24.08.25.13s0,.28-.1.52a3.56,3.56,0,0,1-.59.73,4.51,4.51,0,0,1-.94.7,6.12,6.12,0,0,1-1.86.64A10.83,10.83,0,0,1,606.6,341.65Z"/><path class="cls-5" d="M619.4,340.62a1.54,1.54,0,0,1-.59-.15.85.85,0,0,1-.38-.5,1.6,1.6,0,0,1-.06-.54,4.91,4.91,0,0,1,0-.55,4.38,4.38,0,0,0,0-.47v-.3q0-.25-.12-.3c-.06,0-.16,0-.3,0a6,6,0,0,0-.74.43c-.26.18-.54.39-.83.62l-.88.74a6.31,6.31,0,0,0-.53.63.45.45,0,0,1-.35.24.25.25,0,0,1-.28,0,1.75,1.75,0,0,1-.57-.56,1.23,1.23,0,0,1-.19-.27,2.29,2.29,0,0,1,0-.47,3,3,0,0,1,.13-.44c.06-.15.13-.32.22-.52l.12-.23.14-.27a5,5,0,0,1,.19-.52l.23-.55c.12-.28.21-.53.28-.73a6,6,0,0,0,.16-.67s0-.05,0-.1a.14.14,0,0,1,.1-.08h0a.63.63,0,0,1,.43,0,1.07,1.07,0,0,1,.48.19.92.92,0,0,1,.32.76,2.69,2.69,0,0,1-.49,1.23,3.59,3.59,0,0,1-.23.48.87.87,0,0,0-.12.3l.44-.33.3-.22.36-.3.6-.46.52-.38a3.59,3.59,0,0,1,.46-.26,1,1,0,0,1,.34-.14,1.05,1.05,0,0,1,.4.11,3.12,3.12,0,0,1,.43.27.58.58,0,0,1,.24.28,1.28,1.28,0,0,1,0,.17,1.34,1.34,0,0,0,0,.19,6.17,6.17,0,0,0,0,.63c0,.24,0,.48,0,.73a2.59,2.59,0,0,1-.07.65l0,.1a.16.16,0,0,0,0,.1c0,.08,0,.15.07.23l.11.25.15.35a.66.66,0,0,1-.24.41A.92.92,0,0,1,619.4,340.62Z"/><path class="cls-5" d="M625.23,340.69a2.58,2.58,0,0,1-1,.32,2.48,2.48,0,0,1-1-.15,1.72,1.72,0,0,1-.76-.56,2.3,2.3,0,0,1-.31-.68,3.06,3.06,0,0,1-.05-1.25,5,5,0,0,1,.47-1.51,5.3,5.3,0,0,1,.9-1.35,2.71,2.71,0,0,1,1.17-.8,3.45,3.45,0,0,1,.46-.12,2.46,2.46,0,0,1,.62,0,2.63,2.63,0,0,1,.67.19,1.11,1.11,0,0,1,.42.3,1.2,1.2,0,0,1,.34.5,1.15,1.15,0,0,1,.07.47,3.13,3.13,0,0,1-.46,1.12,2.15,2.15,0,0,1-1.72,1,3.67,3.67,0,0,1-1-.09c-.26-.06-.43,0-.51.08a1.08,1.08,0,0,0-.11.63,1.46,1.46,0,0,0,.14.51.55.55,0,0,0,.4.3,1,1,0,0,0,.53,0,3.65,3.65,0,0,0,.41-.17,1.44,1.44,0,0,0,.25-.18l.25-.19a1,1,0,0,1,.2-.15.4.4,0,0,1,.16-.08l.16,0a.55.55,0,0,1,.34.2.85.85,0,0,1,.21.34.67.67,0,0,1-.16.36,3.08,3.08,0,0,1-.43.49A3.28,3.28,0,0,1,625.23,340.69Zm-.21-3.62a2,2,0,0,0,.33-.23,3.64,3.64,0,0,0,.4-.38.58.58,0,0,0,.18-.32c0-.12-.08-.22-.24-.31a.92.92,0,0,0-.61-.05,1.33,1.33,0,0,0-.31.18c-.11.1-.23.21-.35.34a4.6,4.6,0,0,0-.31.35,2,2,0,0,0-.18.27.42.42,0,0,0,.26.13,1.88,1.88,0,0,0,.43.05A2.25,2.25,0,0,0,625,337.07Z"/><path class="cls-5" d="M628.64,340.58a4.12,4.12,0,0,1-.32-.3.58.58,0,0,1-.12-.5,7.05,7.05,0,0,1,.13-.8c0-.24.12-.51.2-.81a4.54,4.54,0,0,1,.17-.66c.09-.32.2-.66.33-1s.26-.71.41-1a4.54,4.54,0,0,1,.37-.74.75.75,0,0,1,.53-.17.73.73,0,0,1,.48.13.55.55,0,0,1,.11.52,4.5,4.5,0,0,1-.46,1.12,3.9,3.9,0,0,1-.2.42,1.86,1.86,0,0,0-.17.36q0,.14,0,.12a2,2,0,0,1,.36-.42l.55-.46c.2-.15.38-.29.56-.41l.35-.22a1.38,1.38,0,0,1,.3-.14l.24-.09a1.5,1.5,0,0,1,.82-.14c.3,0,.48.12.54.29a.45.45,0,0,0,.2.26s.07,0,.08.09-.07.19-.22.33a.83.83,0,0,1-.48.23,1,1,0,0,0-.37.08l-.39.16-1.12.63a4.38,4.38,0,0,0-1,.85l-.24.24a1.24,1.24,0,0,0-.26.32,1,1,0,0,0-.17.36c0,.19-.1.36-.13.53a2.32,2.32,0,0,0-.06.3,1.83,1.83,0,0,1-.21.46.89.89,0,0,1-.38.32C629,340.81,628.81,340.75,628.64,340.58Z"/><path class="cls-5" d="M636.84,344.26a1.14,1.14,0,0,1-1-.06,2.18,2.18,0,0,1-.85-.73c0-.07-.11-.19-.2-.35s-.17-.35-.25-.55a4.52,4.52,0,0,1-.18-.5c0-.14,0-.22,0-.24a.36.36,0,0,1,.3-.22,1.14,1.14,0,0,1,.45,0c.15,0,.24.09.26.15l.1.24a1,1,0,0,0,.12.23,1.41,1.41,0,0,0,.14.18,1,1,0,0,0,.39.38c.14.07.25.08.32,0a1.42,1.42,0,0,0,.42-.5,8.64,8.64,0,0,0,.36-1l.31-1c.09-.3.18-.57.28-.82a1.27,1.27,0,0,1,.12-.33.69.69,0,0,1,.14-.2h.09a5.2,5.2,0,0,0-.6.45,2.27,2.27,0,0,1-.66.41.82.82,0,0,1-.48.14,2.28,2.28,0,0,1-.74-.09,2.37,2.37,0,0,1-.37-.27,1.21,1.21,0,0,1-.22-.32c-.06-.12-.12-.26-.19-.42a1.42,1.42,0,0,1,0-.8,5.12,5.12,0,0,1,.29-1.1,5,5,0,0,1,.57-.88,7.16,7.16,0,0,1,.79-.85,2.26,2.26,0,0,1,.77-.48,3.25,3.25,0,0,1,.45-.15,1.09,1.09,0,0,1,.62,0,1.05,1.05,0,0,1,.42.12,3.35,3.35,0,0,1,.47.37c.14.14.32.32.52.54a1.67,1.67,0,0,1,.39.56.79.79,0,0,1,0,.53,1.17,1.17,0,0,1-.23.49c-.09.14-.2.28-.31.43a1.66,1.66,0,0,0-.24.58,6,6,0,0,1-.31,1.1,11.15,11.15,0,0,0-.36,1.13l-.25,1a6.37,6.37,0,0,1-.9,2A3.1,3.1,0,0,1,636.84,344.26Zm-.34-5.59a2.84,2.84,0,0,0,.56-.07,1,1,0,0,0,.45-.26,3.35,3.35,0,0,0,.48-.62,2.58,2.58,0,0,0,.39-.72,1.57,1.57,0,0,0,.08-.73.43.43,0,0,0-.14-.34.53.53,0,0,0-.34-.05,1.19,1.19,0,0,0-.56.25,4.2,4.2,0,0,0-.56.63,2.88,2.88,0,0,0-.41.78,2.14,2.14,0,0,0-.14.78C636.33,338.51,636.39,338.63,636.5,338.67Z"/><path class="cls-5" d="M641.65,344.39a3.28,3.28,0,0,1-1.12,0,2.45,2.45,0,0,1-.9-.28.87.87,0,0,1-.45-.47.53.53,0,0,1,.1-.56.93.93,0,0,1,.46-.21c.18,0,.29,0,.35.07l.41.24a1,1,0,0,0,.71.08,1.33,1.33,0,0,0,.66-.35,4.07,4.07,0,0,0,.52-.59c.09-.13.24-.36.44-.7s.42-.7.64-1.11a11.75,11.75,0,0,0,.56-1.13c0-.08.07-.19.12-.31a.81.81,0,0,1,.16-.29c.07-.13.12-.25.17-.36a2.18,2.18,0,0,0,.09-.24,1.49,1.49,0,0,1,.15-.32l.24-.49q.07-.24.24-.72a5.19,5.19,0,0,1,.33-.76l.31-.61a.56.56,0,0,1,.27-.28.45.45,0,0,1,.28-.12.74.74,0,0,1,.31.1,2.47,2.47,0,0,1,.31.38.7.7,0,0,1,.1.46,2,2,0,0,1-.27.72,5.25,5.25,0,0,1-.28.71,1.73,1.73,0,0,1-.24.41c-.05.13-.11.27-.18.43s-.14.3-.19.43c-.19.43-.36.79-.5,1.06l-.38.74c-.1.23-.22.5-.34.8L644,342.3a8.9,8.9,0,0,1-.74,1l-.46.38c-.2.16-.41.3-.62.44A1.57,1.57,0,0,1,641.65,344.39Zm2-3.67a1,1,0,0,1-.53-.32,3,3,0,0,1-.47-.62.76.76,0,0,1-.16-.45v-.18c-.06,0-.11-.1-.15-.29a4.25,4.25,0,0,1-.08-.72c0-.29,0-.6,0-.91s0-.6,0-.86a2.32,2.32,0,0,0,.07-.61c0-.22,0-.4,0-.53a.63.63,0,0,1,.11-.42.82.82,0,0,1,.19-.21.6.6,0,0,1,.87.27,3.4,3.4,0,0,1,.2,1.71c0,.43,0,.85,0,1.24a3.79,3.79,0,0,0,.11,1,.94.94,0,0,0,.39.6c.07,0,.1.13.08.27a1.4,1.4,0,0,1-.15.45,2,2,0,0,1-.25.41C643.82,340.68,643.74,340.73,643.68,340.72Z"/><path class="cls-5" d="M653.94,342c0,.11-.19.16-.44.16a1.05,1.05,0,0,1-.65-.21,1.59,1.59,0,0,1-.25-.3q-.06-.11.06-.36c.07-.17.2-.46.39-.88a3.89,3.89,0,0,1,.22-.79c.11-.27.19-.45.25-.56s.13-.4.27-.76.29-.74.47-1.17l.51-1.23.36-.87.56-1.36c.2-.48.46-1.08.8-1.81a.36.36,0,0,0,0-.34.42.42,0,0,0-.39-.18.59.59,0,0,1-.18-.38.27.27,0,0,1,.16-.28l1.5-.5a4.84,4.84,0,0,1,1.57-.11,4,4,0,0,1,1.51.45,3.36,3.36,0,0,1,1.14,1,2.38,2.38,0,0,1,.4,1.12,2.22,2.22,0,0,1-.14,1,2.58,2.58,0,0,1-.49.75,9.52,9.52,0,0,1-.85.81,9.8,9.8,0,0,1-1,.74,6,6,0,0,1-.95.51c-.27.13-.57.26-.91.4s-.66.25-1,.35a2.83,2.83,0,0,1-.62.06,1.82,1.82,0,0,1-.54-.06l-.27.52c-.11.39-.3,1-.56,1.73S654.29,341.07,653.94,342Zm6.45.31a1.27,1.27,0,0,1-.43,0,1.45,1.45,0,0,1-.68-.26,11.2,11.2,0,0,1-1.43-1,15.62,15.62,0,0,1-1.6-1.63,3.35,3.35,0,0,1-.52-.81c-.11-.27-.25-.61-.43-1l-.22-.88.61-.41.72.59A6.88,6.88,0,0,0,657,338a10.5,10.5,0,0,0,.7.92c.2.23.46.5.8.82a12,12,0,0,0,1.07.92,7.63,7.63,0,0,0,1,.67c.07.05.09.16.06.31a2.13,2.13,0,0,1-.13.45C660.48,342.21,660.43,342.29,660.39,342.3Zm-4.1-6.37a3.05,3.05,0,0,0,.82-.2l.95-.38c.32-.16.63-.32.94-.5a6,6,0,0,0,.84-.59,2.58,2.58,0,0,0,.6-.7,1.32,1.32,0,0,0,.19-.8,1,1,0,0,0-.13-.47,2.21,2.21,0,0,0-.33-.47,1,1,0,0,0-.42-.27,6.83,6.83,0,0,0-1-.2.65.65,0,0,0-.49.1.83.83,0,0,0-.24.45,1,1,0,0,1-.13.31c-.08.18-.19.39-.31.66s-.25.55-.37.85l-.69,1.41a3.9,3.9,0,0,0-.26.59A.2.2,0,0,0,656.29,335.93Z"/><path class="cls-5" d="M665.58,340.69a2.53,2.53,0,0,1-1,.32,2.41,2.41,0,0,1-1-.15,1.75,1.75,0,0,1-.77-.56,2.33,2.33,0,0,1-.3-.68,2.9,2.9,0,0,1-.05-1.25,4.93,4.93,0,0,1,.46-1.51,5.3,5.3,0,0,1,.9-1.35,2.83,2.83,0,0,1,1.17-.8,3.9,3.9,0,0,1,.46-.12,2.54,2.54,0,0,1,.63,0,2.44,2.44,0,0,1,.66.19,1.16,1.16,0,0,1,.43.3,1.43,1.43,0,0,1,.34.5,1.32,1.32,0,0,1,.06.47,3,3,0,0,1-.46,1.12,2.33,2.33,0,0,1-1.06.9,2.49,2.49,0,0,1-.65.14,3.77,3.77,0,0,1-1-.09c-.26-.06-.43,0-.51.08a1,1,0,0,0-.1.63,1.47,1.47,0,0,0,.13.51.58.58,0,0,0,.4.3,1.09,1.09,0,0,0,.54,0,3.61,3.61,0,0,0,.4-.17,2,2,0,0,0,.26-.18l.24-.19a1.46,1.46,0,0,1,.2-.15.48.48,0,0,1,.16-.08l.17,0a.58.58,0,0,1,.34.2.85.85,0,0,1,.21.34.76.76,0,0,1-.16.36,3.68,3.68,0,0,1-.43.49A3.36,3.36,0,0,1,665.58,340.69Zm-.21-3.62a1.67,1.67,0,0,0,.33-.23,3.64,3.64,0,0,0,.4-.38.58.58,0,0,0,.18-.32c0-.12-.08-.22-.23-.31a.93.93,0,0,0-.61-.05,1.15,1.15,0,0,0-.31.18,3.75,3.75,0,0,0-.36.34,4.6,4.6,0,0,0-.31.35l-.18.27a.45.45,0,0,0,.26.13,2,2,0,0,0,.43.05A2.25,2.25,0,0,0,665.37,337.07Z"/><path class="cls-5" d="M670.65,341.08a1.84,1.84,0,0,1-.93-.08,1.75,1.75,0,0,1-.77-.53,1.35,1.35,0,0,1-.3-.89,4.11,4.11,0,0,1,.09-1.16,7,7,0,0,1,.42-1.35,4.9,4.9,0,0,1,.66-1.16c.22-.26.43-.49.65-.71a2,2,0,0,1,.59-.44,2.78,2.78,0,0,1,.56-.15,3,3,0,0,1,.46-.06,2.89,2.89,0,0,1,.57.21c.22.1.32.21.32.34l.08.08c.07,0,.14.08.22.24a2.07,2.07,0,0,1,.19.53.73.73,0,0,1,0,.48,1.77,1.77,0,0,1-.26.6c-.12.2-.23.3-.31.3h-.12s-.06,0-.06.08-.06.09-.17.09a1.15,1.15,0,0,1-.35-.07.38.38,0,0,1-.23-.19.69.69,0,0,1,0-.22c0-.08,0-.23.09-.43a1,1,0,0,0,0-.61c-.06-.11-.19-.11-.41,0a2.56,2.56,0,0,0-.66.53,2.73,2.73,0,0,0-.47.84,14.8,14.8,0,0,0-.44,1.49,1,1,0,0,0,0,.59c0,.14.09.21.13.22a1.13,1.13,0,0,0,.49,0,1.59,1.59,0,0,0,.45-.14,4,4,0,0,0,.46-.28l.45-.34a.39.39,0,0,0,.14-.18.45.45,0,0,1,.2-.21.4.4,0,0,1,.33-.2h.4a.71.71,0,0,1,.27.16,1,1,0,0,1,.22.26c0,.08,0,.13,0,.17s-.07,0-.08.08,0,.14-.14.29a5.57,5.57,0,0,1-.43.49,4.78,4.78,0,0,1-.5.44.63.63,0,0,1-.33.19c-.11,0-.16,0-.16.1s-.08.07-.24.16a5.26,5.26,0,0,1-.53.26A2.55,2.55,0,0,1,670.65,341.08Z"/><path class="cls-5" d="M676.51,340.9a.62.62,0,0,1-.33-.08l-.3-.23a3,3,0,0,1-.5-.7,1,1,0,0,1-.13-.65,1,1,0,0,0,0-.37c-.06-.05-.07-.09,0-.11a.17.17,0,0,0,.06-.09c.07,0,.09-.05.07-.17a1.35,1.35,0,0,1,.1-.56,4.78,4.78,0,0,1,.68-1.25,6.77,6.77,0,0,1,.43-.54,4.33,4.33,0,0,1,.43-.43,5.88,5.88,0,0,1,.75-.55,2.7,2.7,0,0,1,.71-.3,3.65,3.65,0,0,1,.74-.08.82.82,0,0,1,.62.26,1.08,1.08,0,0,1,.53.44,1.92,1.92,0,0,1,.21.72,4,4,0,0,1-.1,1.19,4.58,4.58,0,0,1-.8,1.63,4.37,4.37,0,0,1-.79.91,6,6,0,0,1-.86.6,1.68,1.68,0,0,1-.73.28Zm1.66-2a1.79,1.79,0,0,0,.51-.68c.1-.25.21-.54.33-.88a.62.62,0,0,0,.09-.33,2.17,2.17,0,0,0,0-.44c0-.15-.05-.23-.11-.25a.29.29,0,0,0-.3-.06,2.05,2.05,0,0,0-.37.22,6.63,6.63,0,0,0-.9.93,3.06,3.06,0,0,0-.58,1.29.92.92,0,0,0,.09.61.38.38,0,0,0,.46.12A2.07,2.07,0,0,0,678.17,338.92Z"/><path class="cls-5" d="M683.46,340.15a2,2,0,0,1-.3-.58c-.12-.33-.24-.7-.36-1.14s-.2-.83-.26-1.2-.09-.4-.14-.55l-.12-.38a.87.87,0,0,1,.05-.61.9.9,0,0,1,.34-.44.72.72,0,0,1,.3-.07.92.92,0,0,1,.28,0c.13,0,.25.24.36.59a10.3,10.3,0,0,1,.29,1.39c0,.33.08.58.11.74s0,.25,0,.3a1.14,1.14,0,0,1,.09.31q0,.19.15.06l.2-.23a4.65,4.65,0,0,0,.34-.42l.54-.75c.14-.2.29-.41.46-.63a3,3,0,0,1,.31-.36l.39-.36a.87.87,0,0,1,.33-.2.36.36,0,0,1,.48.28,1,1,0,0,1-.24.8,2.29,2.29,0,0,0-.2.37.84.84,0,0,1-.14.23,4.65,4.65,0,0,1-.41.66c-.18.27-.36.51-.53.73s-.3.37-.36.43a3.08,3.08,0,0,1-.28.25,2.28,2.28,0,0,0-.42.45,1.72,1.72,0,0,1-.75.46A.57.57,0,0,1,683.46,340.15Z"/><path class="cls-5" d="M691.5,340.69a2.53,2.53,0,0,1-1,.32,2.48,2.48,0,0,1-1-.15,1.78,1.78,0,0,1-.76-.56,2.3,2.3,0,0,1-.31-.68,3.25,3.25,0,0,1,0-1.25,5,5,0,0,1,.47-1.51,5.3,5.3,0,0,1,.9-1.35,2.83,2.83,0,0,1,1.17-.8,3.45,3.45,0,0,1,.46-.12,2.23,2.23,0,0,1,1.29.18,1,1,0,0,1,.42.3,1.2,1.2,0,0,1,.34.5,1.15,1.15,0,0,1,.07.47,3.13,3.13,0,0,1-.46,1.12,2.15,2.15,0,0,1-1.72,1,3.67,3.67,0,0,1-1-.09c-.26-.06-.43,0-.51.08a1.08,1.08,0,0,0-.11.63,1.46,1.46,0,0,0,.14.51.55.55,0,0,0,.4.3,1,1,0,0,0,.53,0,3.65,3.65,0,0,0,.41-.17,1.44,1.44,0,0,0,.25-.18l.25-.19a1,1,0,0,1,.2-.15.4.4,0,0,1,.16-.08l.16,0a.55.55,0,0,1,.34.2,1,1,0,0,1,.22.34.7.7,0,0,1-.17.36,2.64,2.64,0,0,1-.43.49A3.28,3.28,0,0,1,691.5,340.69Zm-.21-3.62a2,2,0,0,0,.33-.23,3.64,3.64,0,0,0,.4-.38.58.58,0,0,0,.18-.32c0-.12-.08-.22-.24-.31a.92.92,0,0,0-.61-.05,1.12,1.12,0,0,0-.3.18,3.75,3.75,0,0,0-.36.34,4.6,4.6,0,0,0-.31.35,2,2,0,0,0-.18.27.42.42,0,0,0,.26.13,1.88,1.88,0,0,0,.43.05A2.25,2.25,0,0,0,691.29,337.07Z"/><path class="cls-5" d="M694.91,340.58a4.12,4.12,0,0,1-.32-.3.58.58,0,0,1-.12-.5,7.05,7.05,0,0,1,.13-.8c.06-.24.12-.51.2-.81a6.47,6.47,0,0,1,.17-.66c.09-.32.2-.66.33-1s.27-.71.41-1a4.54,4.54,0,0,1,.37-.74.75.75,0,0,1,.53-.17.73.73,0,0,1,.48.13c.12.1.15.27.11.52a4.37,4.37,0,0,1-.45,1.12q-.09.19-.21.42a1.86,1.86,0,0,0-.17.36q0,.14,0,.12a2,2,0,0,1,.36-.42l.55-.46c.2-.15.38-.29.56-.41l.35-.22a1.38,1.38,0,0,1,.3-.14l.24-.09a1.5,1.5,0,0,1,.82-.14c.3,0,.48.12.54.29a.45.45,0,0,0,.2.26s.07,0,.08.09-.07.19-.22.33a.83.83,0,0,1-.48.23,1.06,1.06,0,0,0-.37.08l-.39.16-1.11.63a4.41,4.41,0,0,0-1,.85l-.24.24a1.24,1.24,0,0,0-.26.32,1,1,0,0,0-.17.36c0,.19-.1.36-.13.53a2.32,2.32,0,0,0-.06.3,1.83,1.83,0,0,1-.21.46.89.89,0,0,1-.38.32C695.23,340.81,695.08,340.75,694.91,340.58Z"/><path class="cls-5" d="M701,344.39a3.27,3.27,0,0,1-1.12,0,2.45,2.45,0,0,1-.9-.28,1,1,0,0,1-.45-.47.55.55,0,0,1,.1-.56,1,1,0,0,1,.46-.21c.18,0,.3,0,.35.07l.42.24a1,1,0,0,0,.7.08,1.36,1.36,0,0,0,.67-.35,4.78,4.78,0,0,0,.52-.59c.09-.13.23-.36.44-.7s.42-.7.64-1.11.41-.78.56-1.13l.11-.31a1,1,0,0,1,.17-.29l.17-.36a2.21,2.21,0,0,1,.09-.24,1.29,1.29,0,0,1,.14-.32l.25-.49q.07-.24.24-.72a6.72,6.72,0,0,1,.32-.76l.32-.61a.49.49,0,0,1,.27-.28.45.45,0,0,1,.27-.12.74.74,0,0,1,.31.1,2.58,2.58,0,0,1,.32.38.77.77,0,0,1,.1.46,2.18,2.18,0,0,1-.27.72,7,7,0,0,1-.28.71,2.94,2.94,0,0,1-.24.41l-.19.43c-.07.16-.13.3-.18.43-.2.43-.37.79-.51,1.06l-.37.74c-.11.23-.22.5-.34.8l-.72,1.14a10.3,10.3,0,0,1-.74,1c-.11.1-.27.22-.47.38s-.4.3-.61.44A1.61,1.61,0,0,1,701,344.39Zm2-3.67a1,1,0,0,1-.53-.32,3.38,3.38,0,0,1-.47-.62.8.8,0,0,1-.15-.45v-.18c-.07,0-.12-.1-.15-.29a5.39,5.39,0,0,1-.09-.72c0-.29,0-.6,0-.91s0-.6,0-.86a2.87,2.87,0,0,0,.06-.61c0-.22,0-.4,0-.53a.63.63,0,0,1,.1-.42,1.52,1.52,0,0,1,.19-.21.61.61,0,0,1,.88.27,3.42,3.42,0,0,1,.19,1.71c0,.43,0,.85,0,1.24a4.24,4.24,0,0,0,.11,1,1,1,0,0,0,.39.6q.12.06.09.27a1.7,1.7,0,0,1-.15.45,2.62,2.62,0,0,1-.25.41Q703.17,340.74,703.06,340.72Z"/><path class="cls-5" d="M715,342a.22.22,0,0,1-.11-.1,1.11,1.11,0,0,1-.06-.26.33.33,0,0,0-.1-.26,1.22,1.22,0,0,0-.38-.15,1.58,1.58,0,0,1-.29-.41,3.13,3.13,0,0,1-.18-.76c0-.35-.08-.88-.13-1.57,0-.38,0-.7.06-1s0-.5.06-.73,0-.47.07-.73.07-.58.12-1a3.33,3.33,0,0,1,0-.82,2.1,2.1,0,0,0,0-.69,3.89,3.89,0,0,0,.14-.82,3.64,3.64,0,0,1,.15-.82c0-.19.05-.36.07-.52a2.33,2.33,0,0,0,0-.41,1.81,1.81,0,0,1,.08-.68.79.79,0,0,1,.46-.52.91.91,0,0,1,.27,0,1,1,0,0,1,.27,0,.46.46,0,0,1,.3.36,2.09,2.09,0,0,1,0,.42,3.84,3.84,0,0,1,0,.61,8.16,8.16,0,0,1,0,1,6.91,6.91,0,0,1-.16,1c-.08.45-.15.9-.2,1.36s-.08.91-.1,1.35c0,.89-.09,1.63-.13,2.21a6.93,6.93,0,0,0,0,1.27.82.82,0,0,0,0,.14.26.26,0,0,0,0,.14.09.09,0,0,0,.08.06.14.14,0,0,0,.1-.1,1.58,1.58,0,0,0,.1-.24,3.45,3.45,0,0,1,.16-.37c.14-.27.28-.57.43-.89s.27-.62.38-.92a10.63,10.63,0,0,1,.58-1.17,9,9,0,0,0,.56-1.08,7.5,7.5,0,0,1,.34-.76l.48-.92c.19-.28.36-.55.53-.81a10.39,10.39,0,0,0,.59-1,7.12,7.12,0,0,1,.82-1.14.88.88,0,0,1,.6-.37,1,1,0,0,1,.3,0,.4.4,0,0,1,.23.19.86.86,0,0,1,.16.41,1.12,1.12,0,0,1-.1.58,4.82,4.82,0,0,1-.56,1q-.33.48-.72,1.14c-.27.43-.51.84-.73,1.22s-.39.67-.48.85a2.5,2.5,0,0,0-.15.38,1.24,1.24,0,0,1-.19.36,2.82,2.82,0,0,0-.44.69c-.19.36-.37.71-.54,1.06s-.35.81-.46,1.06l-.28.63-.2.47q-.11.22-.24.57a1.86,1.86,0,0,1-.22.47.78.78,0,0,0-.16.29,1.33,1.33,0,0,1-.4.37,2.39,2.39,0,0,1-.56.31A.57.57,0,0,1,715,342Z"/><path class="cls-5" d="M723.77,340.69a2.58,2.58,0,0,1-1,.32,2.43,2.43,0,0,1-1-.15,1.72,1.72,0,0,1-.76-.56,2.3,2.3,0,0,1-.31-.68,3.06,3.06,0,0,1,0-1.25,5.23,5.23,0,0,1,.46-1.51,5.88,5.88,0,0,1,.9-1.35,2.83,2.83,0,0,1,1.17-.8,4.05,4.05,0,0,1,.47-.12,2.44,2.44,0,0,1,.62,0,2.63,2.63,0,0,1,.67.19,1.2,1.2,0,0,1,.42.3,1.31,1.31,0,0,1,.34.5,1.34,1.34,0,0,1,.07.47,3,3,0,0,1-.47,1.12,2.28,2.28,0,0,1-1.06.9,2.32,2.32,0,0,1-.65.14,3.67,3.67,0,0,1-1-.09c-.26-.06-.43,0-.51.08a1,1,0,0,0-.11.63,1.46,1.46,0,0,0,.14.51.55.55,0,0,0,.4.3,1.05,1.05,0,0,0,.53,0,3.65,3.65,0,0,0,.41-.17,2,2,0,0,0,.25-.18l.24-.19a1.05,1.05,0,0,1,.21-.15.35.35,0,0,1,.16-.08l.16,0a.58.58,0,0,1,.34.2.85.85,0,0,1,.21.34.67.67,0,0,1-.16.36,3.08,3.08,0,0,1-.43.49A3.68,3.68,0,0,1,723.77,340.69Zm-.21-3.62a2.6,2.6,0,0,0,.33-.23,4.83,4.83,0,0,0,.4-.38.58.58,0,0,0,.18-.32c0-.12-.08-.22-.24-.31a.93.93,0,0,0-.61-.05,1.15,1.15,0,0,0-.31.18,2.79,2.79,0,0,0-.35.34,3.12,3.12,0,0,0-.31.35,2,2,0,0,0-.18.27.42.42,0,0,0,.26.13,1.88,1.88,0,0,0,.43.05A2.25,2.25,0,0,0,723.56,337.07Z"/><path class="cls-5" d="M732.44,340.62a1.54,1.54,0,0,1-.59-.15.9.9,0,0,1-.39-.5,1.91,1.91,0,0,1-.05-.54,4.91,4.91,0,0,1,0-.55,4.38,4.38,0,0,0,0-.47v-.3q0-.25-.12-.3c-.06,0-.16,0-.3,0a5.37,5.37,0,0,0-.74.43c-.27.18-.54.39-.83.62s-.58.48-.88.74a6.31,6.31,0,0,0-.53.63.45.45,0,0,1-.35.24.25.25,0,0,1-.28,0l-.31-.23c-.07-.08-.16-.19-.26-.33a1.23,1.23,0,0,1-.19-.27,2.29,2.29,0,0,1,0-.47,3,3,0,0,1,.13-.44c.06-.15.13-.32.22-.52l.12-.23.14-.27a5,5,0,0,1,.19-.52l.23-.55c.12-.28.21-.53.28-.73a6,6,0,0,0,.16-.67s0-.05,0-.1a.14.14,0,0,1,.09-.08h0a.63.63,0,0,1,.43,0,1.07,1.07,0,0,1,.48.19.92.92,0,0,1,.32.76,2.69,2.69,0,0,1-.49,1.23,3.59,3.59,0,0,1-.23.48.87.87,0,0,0-.12.3l.43-.33.31-.22.36-.3c.18-.15.38-.3.6-.46l.52-.38a3.59,3.59,0,0,1,.46-.26,1,1,0,0,1,.34-.14,1,1,0,0,1,.39.11,2.72,2.72,0,0,1,.44.27.58.58,0,0,1,.24.28,1.28,1.28,0,0,1,0,.17,1.34,1.34,0,0,0,0,.19,6.17,6.17,0,0,0,0,.63c0,.24,0,.48,0,.73a3.16,3.16,0,0,1-.07.65l0,.1a.16.16,0,0,0,0,.1c0,.08.05.15.07.23l.11.25c0,.09.09.21.14.35a.6.6,0,0,1-.23.41A.92.92,0,0,1,732.44,340.62Z"/><path class="cls-5" d="M736.13,341a.78.78,0,0,1-.39-.22,2.23,2.23,0,0,1-.39-.42,1.84,1.84,0,0,1-.22-.4s0-.06-.08-.13-.06-.18-.07-.43a6.49,6.49,0,0,1,0-.85,6.23,6.23,0,0,1,.11-.75c.06-.17.14-.41.25-.71s.2-.56.27-.8l.44-.94-.65-.18a.38.38,0,0,1-.18-.13.33.33,0,0,1-.08-.16.85.85,0,0,1,.15-.38q.15-.24.21-.24l.3,0,.43,0,.26,0a.51.51,0,0,0,.13-.09.4.4,0,0,0,.1-.17,2.4,2.4,0,0,1,.14-.28,1.91,1.91,0,0,0,.18-.29c.08-.14.14-.26.19-.36s.13-.23.24-.4.11-.17.17-.28a1.12,1.12,0,0,1,.25-.28,1,1,0,0,1,.48-.18.65.65,0,0,1,.57.15.48.48,0,0,1,0,.68,3,3,0,0,1-.3.5,4.61,4.61,0,0,0-.32.49c-.17.24-.2.38-.1.41a3.35,3.35,0,0,0,.91-.06.82.82,0,0,1,.69.09.67.67,0,0,1,.24.46c0,.26,0,.41-.08.47a2.07,2.07,0,0,1-.75.08,4.65,4.65,0,0,1-.66.07h-.41l-.28,0-.19,0a.32.32,0,0,0-.19.11.7.7,0,0,0-.12.2,1.41,1.41,0,0,0-.19.34q-.13.27-.33.6c-.15.45-.28.89-.38,1.31s-.19.83-.27,1.24a.77.77,0,0,0,0,.45c0,.09.18.15.41.17a4.92,4.92,0,0,0,.52,0,3.42,3.42,0,0,0,.57-.09l.37-.17a3,3,0,0,0,.36-.19L739,339c0-.08.13-.07.23,0a1,1,0,0,1,.22.37,1.78,1.78,0,0,1-.08.46c-.05.18-.25.37-.6.56a3.65,3.65,0,0,1-1.46.55A3.74,3.74,0,0,1,736.13,341Z"/><path class="cls-5" d="M741.29,340.74a.79.79,0,0,1-.19-.39,1.81,1.81,0,0,1,0-.51,1.15,1.15,0,0,1,.08-.39.54.54,0,0,1,0-.2.18.18,0,0,0,0-.14.5.5,0,0,1,0-.22c0-.11.07-.22.1-.31s.16-.4.26-.68.19-.55.29-.84.18-.54.24-.75.11-.34.12-.38.08-.2.26-.21.28,0,.47.16a2.22,2.22,0,0,1,.44.49.37.37,0,0,1,.09.34,2.4,2.4,0,0,1-.21.6,4.85,4.85,0,0,0-.27.93,2.64,2.64,0,0,0-.16.36q-.09.24-.15.45a1.32,1.32,0,0,0-.07.3c0,.14,0,.29-.08.45a.88.88,0,0,1-.13.35q-.15.68-.51.78A.57.57,0,0,1,741.29,340.74Zm1.75-6.51a.79.79,0,0,1-.26-.32.86.86,0,0,1-.1-.33c0-.1,0-.16,0-.18a1.89,1.89,0,0,0,.29-.47,4.54,4.54,0,0,1,.26-.54.56.56,0,0,0,.09-.14.2.2,0,0,1,.13-.1.57.57,0,0,1,.54,0,1.12,1.12,0,0,1,.51.41,1,1,0,0,1,.09.63,1.43,1.43,0,0,1-.35.68,1.06,1.06,0,0,1-.62.42A.74.74,0,0,1,743,334.23Z"/><path class="cls-5" d="M745.92,341.19a.51.51,0,0,1-.55-.17,1.42,1.42,0,0,1-.35-.74,2.67,2.67,0,0,1,0-1.08c.05-.13.09-.26.13-.39a1.33,1.33,0,0,0,0-.3,3.63,3.63,0,0,1,.13-.48c.06-.21.13-.43.21-.65s.15-.43.22-.61l.13-.34c.05,0,.08,0,.12-.11a.64.64,0,0,0,.05-.23.84.84,0,0,1,0-.29.79.79,0,0,1,.12-.23.49.49,0,0,1,.05-.18.79.79,0,0,0,0-.17.2.2,0,0,1,0-.13.38.38,0,0,0,0-.13c.07-.14.17-.37.3-.68s.26-.65.4-1,.29-.75.42-1.12.23-.68.31-.93a2.12,2.12,0,0,0,.13-.47.4.4,0,0,1,.09-.24.28.28,0,0,1,.23-.11s.11-.06.23-.08l.24,0c.09.09.18.17.26.26a2.06,2.06,0,0,1,.25.26.52.52,0,0,1,.12.34,1.4,1.4,0,0,1,0,.41c0,.13-.11.3-.2.52s-.25.55-.46,1c-.09.21-.18.42-.28.6a1.51,1.51,0,0,0-.14.35.53.53,0,0,1-.06.2,2.76,2.76,0,0,0-.12.32l-.18.39-.23.53c-.09.19-.15.35-.21.49a1.54,1.54,0,0,0-.08.23.53.53,0,0,1,0,.13.19.19,0,0,1-.07.13s-.07.06-.08.18a3.94,3.94,0,0,1-.26.86c-.17.6-.33,1.15-.48,1.64a4.38,4.38,0,0,0-.22,1.21,1.22,1.22,0,0,1-.12.6A.66.66,0,0,1,745.92,341.19Z"/><path class="cls-5" d="M749.33,340.67a.84.84,0,0,0-.29-.26c-.14-.08-.22-.15-.22-.19a.5.5,0,0,0-.07-.21.86.86,0,0,0-.14-.2c-.05-.06,0-.22,0-.48s.22-.56.39-.93.36-.74.57-1.12a2,2,0,0,0,.26-.34,2.43,2.43,0,0,1,.19-.28.21.21,0,0,1,0-.12.16.16,0,0,1,.12-.06l.13-.26a2,2,0,0,1,.2-.26c.11-.13.25-.27.41-.43l.5-.44a3.13,3.13,0,0,1,.41-.31,1.2,1.2,0,0,1,.71-.21,1,1,0,0,1,.62.22l.22.2.39.32.39.33.6.53-.28.82a2.19,2.19,0,0,0-.11,1.13,2.38,2.38,0,0,0,.31.85.58.58,0,0,0,.21.27.81.81,0,0,0,.37.13.51.51,0,0,1,.24.1.3.3,0,0,1,.12.26.9.9,0,0,1-.14.56.52.52,0,0,1-.3.2,2.06,2.06,0,0,1-1-.11,1.78,1.78,0,0,1-.88-.93,2.08,2.08,0,0,1-.17-.36,2.87,2.87,0,0,1-.12-.35l-.17.2c-.08.08-.14.16-.21.22a6.75,6.75,0,0,1-2,1.52A1.41,1.41,0,0,1,749.33,340.67Zm1.25-1.47a4.85,4.85,0,0,0,.65-.46l.91-.78a4.76,4.76,0,0,0,.7-.8l.35-.58a1.51,1.51,0,0,0-.29-.49.42.42,0,0,0-.26-.11.8.8,0,0,0-.5.27,4.74,4.74,0,0,0-.66.78c-.24.34-.52.76-.82,1.27a5.62,5.62,0,0,0-.44,1A.71.71,0,0,0,750.58,339.2Z"/><path class="cls-5" d="M758.15,341a.78.78,0,0,1-.39-.22,2.23,2.23,0,0,1-.39-.42,1.84,1.84,0,0,1-.22-.4s0-.06-.08-.13-.06-.18-.07-.43a6.49,6.49,0,0,1,0-.85,6.23,6.23,0,0,1,.11-.75c.06-.17.14-.41.25-.71s.2-.56.27-.8l.44-.94-.65-.18a.38.38,0,0,1-.18-.13.33.33,0,0,1-.08-.16.85.85,0,0,1,.15-.38q.15-.24.21-.24l.3,0,.43,0,.26,0a.51.51,0,0,0,.13-.09.4.4,0,0,0,.1-.17,2.4,2.4,0,0,1,.14-.28,1.91,1.91,0,0,0,.18-.29c.08-.14.14-.26.19-.36s.13-.23.24-.4.11-.17.17-.28a1.12,1.12,0,0,1,.25-.28,1,1,0,0,1,.48-.18.65.65,0,0,1,.57.15.48.48,0,0,1,0,.68,3,3,0,0,1-.3.5,4.61,4.61,0,0,0-.32.49c-.17.24-.2.38-.1.41a3.35,3.35,0,0,0,.91-.06.82.82,0,0,1,.69.09.67.67,0,0,1,.24.46c0,.26,0,.41-.08.47a2.07,2.07,0,0,1-.75.08,4.65,4.65,0,0,1-.66.07h-.41l-.28,0-.19,0a.32.32,0,0,0-.19.11.7.7,0,0,0-.12.2,1.41,1.41,0,0,0-.19.34q-.13.27-.33.6c-.15.45-.28.89-.38,1.31s-.19.83-.27,1.24a.77.77,0,0,0,0,.45c0,.09.18.15.41.17a4.92,4.92,0,0,0,.52,0,3.42,3.42,0,0,0,.57-.09l.37-.17a3,3,0,0,0,.36-.19L761,339c0-.08.13-.07.23,0a1,1,0,0,1,.22.37,1.78,1.78,0,0,1-.08.46c-.05.18-.25.37-.6.56a3.65,3.65,0,0,1-1.46.55A3.74,3.74,0,0,1,758.15,341Z"/><path class="cls-5" d="M763.31,340.74a.79.79,0,0,1-.19-.39,1.81,1.81,0,0,1,0-.51,1.15,1.15,0,0,1,.08-.39.54.54,0,0,1,0-.2.18.18,0,0,0,0-.14.5.5,0,0,1,0-.22c0-.11.07-.22.1-.31s.16-.4.26-.68.19-.55.29-.84.18-.54.24-.75.11-.34.12-.38.08-.2.26-.21.28,0,.47.16a2.22,2.22,0,0,1,.44.49.37.37,0,0,1,.09.34,2.4,2.4,0,0,1-.21.6,4.85,4.85,0,0,0-.27.93,2.64,2.64,0,0,0-.16.36q-.09.24-.15.45a1.32,1.32,0,0,0-.07.3c0,.14,0,.29-.08.45a.88.88,0,0,1-.13.35q-.15.68-.51.78A.57.57,0,0,1,763.31,340.74Zm1.75-6.51a.79.79,0,0,1-.26-.32.86.86,0,0,1-.1-.33c0-.1,0-.16,0-.18a1.89,1.89,0,0,0,.29-.47,4.54,4.54,0,0,1,.26-.54.56.56,0,0,0,.09-.14.2.2,0,0,1,.13-.1.57.57,0,0,1,.54,0,1.12,1.12,0,0,1,.51.41,1,1,0,0,1,.09.63,1.43,1.43,0,0,1-.35.68,1.06,1.06,0,0,1-.62.42A.74.74,0,0,1,765.06,334.23Z"/><path class="cls-5" d="M768.36,340.9a.62.62,0,0,1-.33-.08,3.5,3.5,0,0,1-.3-.23,3,3,0,0,1-.5-.7,1.11,1.11,0,0,1-.14-.65.79.79,0,0,0,0-.37c-.06-.05-.08-.09,0-.11a.17.17,0,0,0,.06-.09c.07,0,.09-.05.07-.17a1.2,1.2,0,0,1,.1-.56,3.59,3.59,0,0,1,.38-.82c.07-.11.17-.26.3-.43a6.77,6.77,0,0,1,.43-.54,3.47,3.47,0,0,1,.43-.43,5.88,5.88,0,0,1,.75-.55,2.57,2.57,0,0,1,.71-.3,3.57,3.57,0,0,1,.74-.08.82.82,0,0,1,.62.26,1.08,1.08,0,0,1,.53.44,1.92,1.92,0,0,1,.2.72,4,4,0,0,1-.09,1.19,4.76,4.76,0,0,1-.8,1.63,4.38,4.38,0,0,1-.8.91,5.47,5.47,0,0,1-.86.6,1.64,1.64,0,0,1-.73.28Zm1.66-2a2,2,0,0,0,.51-.68c.1-.25.21-.54.33-.88A.89.89,0,0,0,771,337a2.17,2.17,0,0,0,0-.44c0-.15-.05-.23-.12-.25a.27.27,0,0,0-.29-.06,1.76,1.76,0,0,0-.37.22,5.67,5.67,0,0,0-.9.93,3.06,3.06,0,0,0-.58,1.29.92.92,0,0,0,.09.61.36.36,0,0,0,.45.12A2.09,2.09,0,0,0,770,338.92Z"/><path class="cls-5" d="M779.52,340.62a1.65,1.65,0,0,1-.6-.15.93.93,0,0,1-.38-.5,2.35,2.35,0,0,1-.06-.54,4.89,4.89,0,0,1,0-.55,4.38,4.38,0,0,0,0-.47v-.3q0-.25-.12-.3c-.06,0-.16,0-.3,0a5.37,5.37,0,0,0-.74.43c-.27.18-.54.39-.83.62s-.58.48-.89.74a7.55,7.55,0,0,0-.52.63c-.12.16-.23.24-.35.24a.25.25,0,0,1-.28,0,2.74,2.74,0,0,1-.31-.23l-.27-.33a1.48,1.48,0,0,1-.18-.27,2.29,2.29,0,0,1,0-.47,2.15,2.15,0,0,1,.13-.44c.06-.15.13-.32.22-.52l.12-.23c0-.08.08-.17.14-.27a4.68,4.68,0,0,1,.18-.52c.08-.19.16-.38.24-.55a7,7,0,0,0,.27-.73,6,6,0,0,0,.17-.67.12.12,0,0,1,0-.1.19.19,0,0,1,.1-.08h0a.63.63,0,0,1,.43,0,1,1,0,0,1,.48.19.9.9,0,0,1,.33.76,2.81,2.81,0,0,1-.49,1.23c-.08.18-.15.34-.23.48a.77.77,0,0,0-.13.3l.44-.33a3.13,3.13,0,0,1,.31-.22l.36-.3c.18-.15.38-.3.6-.46l.52-.38a4.19,4.19,0,0,1,.45-.26,1.12,1.12,0,0,1,.34-.14,1.05,1.05,0,0,1,.4.11,3.23,3.23,0,0,1,.44.27.64.64,0,0,1,.24.28,1.28,1.28,0,0,1,0,.17,1.54,1.54,0,0,0,0,.19c0,.17,0,.38,0,.63s0,.48,0,.73a3.2,3.2,0,0,1-.06.65.93.93,0,0,1,.05.1.16.16,0,0,0,0,.1,2,2,0,0,0,.07.23,2.41,2.41,0,0,0,.11.25c0,.09.09.21.14.35a.64.64,0,0,1-.23.41A.92.92,0,0,1,779.52,340.62Z"/><path class="cls-6" d="M653.54,310a9.42,9.42,0,0,1-1.37-.78.93.93,0,0,1,0,.24.91.91,0,0,1-1,1h-3v2.37h4.18a.91.91,0,0,1,1,1,.92.92,0,0,1-1,1h-4.18v2.69h6.44a1,1,0,0,1,0,2H638a1,1,0,0,1,0-2h6.42v-2.69h-4.18a.91.91,0,0,1-1-1,.92.92,0,0,1,1-1h4.18v-2.45h-3a.87.87,0,0,1-1-1v0a17.24,17.24,0,0,1-2.8,1.24.78.78,0,0,1-1.12-.4.83.83,0,0,1,.43-1.12,14.27,14.27,0,0,0,6.27-6.49h-3.25a.95.95,0,1,1,0-1.89h6.73a1.65,1.65,0,0,1,1.6.93c1.4,2.34,3.38,3.85,6.71,5.12a1.62,1.62,0,0,1,1,2.45A1.67,1.67,0,0,1,653.54,310Zm-2.36-1.51a14.08,14.08,0,0,1-4.35-5.75,14.06,14.06,0,0,1-4.89,5.75Z"/><path class="cls-6" d="M672.38,311.05a.63.63,0,0,0-.11-.15,7.42,7.42,0,0,1-4.09,4.7.76.76,0,0,1-1.1-.26.78.78,0,0,1,.28-1.1,6.12,6.12,0,0,0,1.15-1.12,16.31,16.31,0,0,1-5.56,1.53c.47.21.56.54.43,1.2a10.26,10.26,0,0,1-1.38,3.71,1.43,1.43,0,0,1-2.34.26,1.39,1.39,0,0,1,0-2.24,11.47,11.47,0,0,0,2.11-2.54.61.61,0,0,1,.21-.26l-1.07.11c-.91.08-1.51-.28-1.58-1.15a1.18,1.18,0,0,1,1.32-1.42l2-.06v-1.1H660.6a.73.73,0,0,1-.79-.8.77.77,0,0,1,.79-.84h2.09v-.77c0-.71.58-1.21,1.64-1.21a2.56,2.56,0,0,1,.58.07,5.24,5.24,0,0,1,0-.58v-1h-1.12a4.37,4.37,0,0,1-3.66,3.45.77.77,0,0,1-1-.5c-.13-.43,0-.75.51-1a2.4,2.4,0,0,0,1.66-2h-.88a.74.74,0,0,1-.82-.81.72.72,0,0,1,.82-.8h2.37v-1H661a.8.8,0,1,1,0-1.6h1.81v-.58c0-.82.6-1.27,1.66-1.27s1.61.45,1.61,1.27v.58h1.7a.8.8,0,1,1,0,1.6h-1.7v1h2.15a.81.81,0,1,1,0,1.61h-.81v.5c0,.21,0,.39.32.39a3.87,3.87,0,0,0,.56-.07.75.75,0,0,1,.84.52.93.93,0,0,1-.48,1.23,5.33,5.33,0,0,1-2.19.25,3.32,3.32,0,0,1-.48,0v.75H668a.77.77,0,0,1,.8.84.74.74,0,0,1-.8.8H666V312c.76-.09,1.49-.2,2.2-.32a.69.69,0,0,1,.88.51.2.2,0,0,1,0,.11,10,10,0,0,0,1.07-4.07c-.3-.34-.6-.71-.9-1.08a.74.74,0,0,1-.07-1c.22-.3.56-.32,1-.1l.15.08c0-.3,0-.62,0-.94h-.49a.89.89,0,1,1,0-1.77h.51V301.3a1.45,1.45,0,0,1,2.89,0v2.11H675a1.28,1.28,0,0,1,1.4,1.44c0,3.62,0,6.87.41,7,.26.06.21-.5.26-2.18,0-.56.32-.79.73-.79s.69.23.77.75c.78,4.8-.64,5.77-2.06,5.36-1.19-.34-1.9-1.35-2.29-3.64l0,0C673.65,312,672.92,311.87,672.38,311.05ZM668,318.12c.43,1,.09,1.74-1,2a1.31,1.31,0,0,1-1.78-1.32,24,24,0,0,0-.46-3,.83.83,0,0,1,.52-1,.91.91,0,0,1,1.06.43A15.6,15.6,0,0,1,668,318.12Zm5-.2c.52,1.06.22,1.74-.77,2.07a1.34,1.34,0,0,1-1.92-1.19,21.67,21.67,0,0,0-.69-3.12c-.15-.49,0-.88.39-1.05a.88.88,0,0,1,1.12.3A13.81,13.81,0,0,1,673,317.92Zm1-8.83c-.07-1-.09-2.24-.09-3.64a.24.24,0,0,0-.26-.27h-.51c0,1-.11,1.95-.24,2.82A14.14,14.14,0,0,1,674,309.09Zm3.85,8.64a1.39,1.39,0,0,1-.62,2.26,1.42,1.42,0,0,1-2.11-1.1c-.28-1-.67-2.15-1-3.06a.83.83,0,0,1,.3-1.12.89.89,0,0,1,1.14.18A11.76,11.76,0,0,1,677.87,317.73Z"/><path class="cls-6" d="M701.1,318.72c-.35,1.2-1.14,1.57-2.41,1.29A17.1,17.1,0,0,1,692,316.8a17.75,17.75,0,0,1-9,3.42.81.81,0,0,1-1-.71c-.06-.47,0-.92.56-1.09a19.32,19.32,0,0,0,7.15-3.73,16.33,16.33,0,0,1-2.78-4.22.84.84,0,0,1-.06-.58,14.29,14.29,0,0,1-3.49,2,.79.79,0,0,1-1.06-.34.86.86,0,0,1,.28-1.16,15.74,15.74,0,0,0,4-4.55,2,2,0,0,1,.45-.54h-3.75c-.64,0-1-.4-1-1.12s.37-1.11,1-1.11h6.38v-1.79c0-.88.73-1.42,1.85-1.42s1.85.54,1.85,1.42v1.79h6.4c.64,0,1,.4,1,1.11s-.37,1.12-1,1.12h-4.7a22.6,22.6,0,0,1,5,3,1.68,1.68,0,0,1,.19,2.63,1.51,1.51,0,0,1-2.43-.05,32,32,0,0,0-4-4.3.78.78,0,0,1-.15-1.12.86.86,0,0,1,.13-.2h-4.87s0,0,.05,0a1.45,1.45,0,0,1,.34,2.34,12.58,12.58,0,0,1-1.51,1.49,1,1,0,0,1,.74.36,21.72,21.72,0,0,0,3,3.13,20.4,20.4,0,0,0,1.68-2.82,1.72,1.72,0,0,1,2.45-.74,1.63,1.63,0,0,1,.76,2.48,15.63,15.63,0,0,1-2,2.93,29,29,0,0,0,5.31,1.78A1.79,1.79,0,0,1,701.1,318.72Z"/><path class="cls-6" d="M709.88,310.58v7.36c0,2.22-2.43,2.84-5.06,1.66a.79.79,0,0,1-.49-1c.06-.43.38-.6.92-.56,1.19.09,1.44-.15,1.44-1v-4.56a2.12,2.12,0,0,0-.21.11,1.32,1.32,0,0,1-2-.73,1.3,1.3,0,0,1,.84-1.88c.5-.15,1-.28,1.4-.43v-3.92h-1.35a.83.83,0,0,1-.91-.92.81.81,0,0,1,.91-.88h1.35v-2.37c0-1,.56-1.53,1.6-1.53a1.38,1.38,0,0,1,1.59,1.53v2.37h.73a.82.82,0,0,1,.93.88v.08a12.34,12.34,0,0,0,2-3.79,1.44,1.44,0,0,1,2-1.05,1.27,1.27,0,0,1,.86,1.72H718a1.7,1.7,0,0,1,1.93-.34,1.36,1.36,0,0,1,.54,2.13,18.69,18.69,0,0,1-1.18,1.51h2a1.26,1.26,0,0,1,1.4,1.4v5.27c0,.77-.49,1.21-1.42,1.21s-1.42-.44-1.42-1.21v-.54a1,1,0,0,1-1.59,0c-.37-.51-.69-.92-1-1.31a7.61,7.61,0,0,1-2,1.64.69.69,0,0,1-.93-.11v.43c0,.77-.5,1.18-1.4,1.18s-1.4-.41-1.4-1.18V307a.61.61,0,0,1-.9-.22.74.74,0,0,1,.08-1l.09-.09a1,1,0,0,1-.24,0h-.73v2.67l.28-.13c.47-.21.86-.19,1.12.18s.24.73-.19,1.14A15.4,15.4,0,0,1,709.88,310.58Zm13.89,8.63a1.4,1.4,0,0,1-2,.82,8.78,8.78,0,0,1-4.07-3.64,8.57,8.57,0,0,1-6.78,3.81c-.49.05-.79-.1-.92-.54a.76.76,0,0,1,.56-1c2.32-.75,3.66-1.78,4.37-3.44h-3.49a.85.85,0,0,1-.93-.93.82.82,0,0,1,.93-.88h4a7.13,7.13,0,0,0,.11-.77c.09-.82.71-1.25,1.72-1.19s1.53.56,1.49,1.42a3.19,3.19,0,0,1-.05.54h4.22a.8.8,0,0,1,.91.88.83.83,0,0,1-.91.93h-4.19a9.79,9.79,0,0,0,4.07,2C723.79,317.49,724.05,318.27,723.77,319.21Zm-6.14-15.78h-2.19a10.74,10.74,0,0,1-1.32,1.62h3.06a6.26,6.26,0,0,0,.64-1.32C717.89,303.54,717.8,303.43,717.63,303.43Zm-1.53,3.88a1.25,1.25,0,0,1,.35-.58h-1.81a.24.24,0,0,0-.26.25v3.38l0,0A6.55,6.55,0,0,0,716.1,307.31Zm3.51-.58H718.1a1,1,0,0,1,.33,1.27c-.09.21-.17.41-.28.62a11.31,11.31,0,0,1,1.48.86,2.88,2.88,0,0,1,.24.19V307A.24.24,0,0,0,719.61,306.73Z"/><path class="cls-6" d="M742.52,319.41A5.62,5.62,0,0,1,741,318a15.88,15.88,0,0,1-5.15,2.09c-.52.1-.84-.05-1-.48s.09-.75.63-1a15.44,15.44,0,0,0,4.37-2.54,19.33,19.33,0,0,1-1.14-3.62h-1.77l-.13.8a8.61,8.61,0,0,1,1.79,1.27,1.1,1.1,0,0,1,.06,1.75,1,1,0,0,1-1.72-.26c-.19-.35-.39-.67-.58-1a9.8,9.8,0,0,1-2.69,4.35.76.76,0,0,1-1.14,0c-.3-.35-.24-.69,0-1.12a12.27,12.27,0,0,0,1.81-5.8h-.78a.9.9,0,0,1,0-1.8h.89v-.24c0-1,.53-1.42,1.35-1.42s1.27.43,1.25,1.44v.22h1.27c-.08-.52-.15-1.06-.21-1.6a1.76,1.76,0,0,1-.39.18.71.71,0,0,1-1-.65l0-.24a7.61,7.61,0,0,1-2.26.76,2.15,2.15,0,0,1-.46.06.93.93,0,0,1-.47,1.31c-.56.33-1,.13-1.29-.51-.07-.17-.11-.35-.17-.52v9.32c0,.95-.54,1.4-1.49,1.4s-1.48-.45-1.48-1.4V313a17.57,17.57,0,0,1-.84,1.89.77.77,0,0,1-1.08.41c-.45-.24-.47-.64-.28-1.14a31.66,31.66,0,0,0,2-7.86H728a.91.91,0,0,1,0-1.81h1.17v-3.2c0-.95.53-1.36,1.48-1.36s1.49.41,1.49,1.36v3.2h.45a.87.87,0,0,1,.64.24.79.79,0,0,1,.63-.45c.21-.88.45-2,.62-3.06a1,1,0,0,1,1.3-.86c.71.15,1,.64.68,1.38a15.4,15.4,0,0,1-1.2,2.49c.21,0,.43,0,.64,0,.13-.34.26-.69.37-1a.9.9,0,0,1,1.36-.56l.23.13v-1.53c0-.88.48-1.25,1.36-1.25s1.36.37,1.36,1.25v1.88c0,.45,0,.88,0,1.31a.84.84,0,0,1,.45-.3,20.5,20.5,0,0,0,.54-2.82,1,1,0,0,1,1.33-1,.92.92,0,0,1,.73,1.33,12.21,12.21,0,0,1-1.09,2.37c.19,0,.38,0,.62,0l.26-.75a1,1,0,0,1,1.48-.63c.67.3.91.84.37,1.68a17.8,17.8,0,0,1-1.18,1.79.18.18,0,0,1,.08-.05.61.61,0,0,1,.76.31,8.61,8.61,0,0,1,1,1.93.84.84,0,0,1-.58,1.25.79.79,0,0,1-1.1-.75c0-.11,0-.22,0-.32a7.62,7.62,0,0,1-1,.43,9.81,9.81,0,0,1,.84.92.75.75,0,0,1,.17.91h1.08a.9.9,0,0,1,0,1.8H741.4c.15.57.3,1.08.47,1.56.19-.24.39-.48.56-.74a1.23,1.23,0,0,1,1.9-.41c.71.52.73,1.17.08,2a14.07,14.07,0,0,1-1.27,1.4c.11.13.24.23.35.34.75.69,1.18.37,1.24-1.27,0-.49.28-.75.72-.75a.78.78,0,0,1,.83.75C746.87,319.64,745.4,321.06,742.52,319.41Zm-9.24-11.31c0-.47.37-.75,1-.79h.06c.33-.52.58-1,.82-1.45a7.55,7.55,0,0,1-.86.2c-.45.06-.73,0-.91-.28a.77.77,0,0,1-.79.47h-.45v.63A11.54,11.54,0,0,1,733.28,308.1Zm4.69-.82c-.06-.9-.1-1.87-.13-2.88a18.74,18.74,0,0,1-2.1,2.84l.79-.06-.06-.35a.56.56,0,0,1,.36-.73c.3-.11.56,0,.74.37S737.84,307,738,307.28Zm2.61-1.65c0,.79.06,1.57.13,2.28a.84.84,0,0,1,.75-.5,15.09,15.09,0,0,0,.95-1.72l-.82.26A.8.8,0,0,1,740.58,305.63Zm.45,5.06h1.55c-.19-.43-.39-.86-.54-1.23a.43.43,0,0,1-.06-.22l-.15.05a.77.77,0,0,1-1-.41C740.86,309.52,741,310.13,741,310.69Zm2-3.36,1-.09-.11-.49a.79.79,0,0,1,0-.37A8.63,8.63,0,0,1,743,307.33Z"/><rect class="cls-16" x="604.15" y="156.62" width="175.81" height="92.82" rx="5.48"/><circle class="cls-17" cx="732.12" cy="204.56" r="24.22"/><path class="cls-18" d="M753.43,204.88c-.06,9.22-5.47,17.86-14,21a19.45,19.45,0,0,1-5.87,1.09,21.31,21.31,0,0,1-6.78-1,22.56,22.56,0,0,1-10.86-7.48,23.33,23.33,0,0,1-2-26.1,21.66,21.66,0,0,1,9.2-8.57,18.64,18.64,0,0,1,5.87-1.67,20.16,20.16,0,0,1,6.51.33,23.18,23.18,0,0,1,17.93,22.32c0,1.32,1.47,1.53,2.55,1.42.89-.1,3.28-.8,3.27-2.07A25.7,25.7,0,0,0,741.9,180a28.81,28.81,0,0,0-30.79,8.52,25.6,25.6,0,0,0-2.42,29.69c5.91,9.77,17.73,13.9,28.65,11.65,12.15-2.5,21.82-13.06,21.91-25.66,0-1.32-1.48-1.53-2.55-1.41C755.79,202.92,753.44,203.61,753.43,204.88Z"/><circle class="cls-7" cx="732.12" cy="204.56" r="10.77"/><circle class="cls-17" cx="651.99" cy="204.56" r="24.22"/><path class="cls-18" d="M673.3,204.88c-.06,9.22-5.47,17.86-14,21a19.45,19.45,0,0,1-5.88,1.09,21.39,21.39,0,0,1-6.78-1,22.53,22.53,0,0,1-10.85-7.48,23.33,23.33,0,0,1-2-26.1,21.66,21.66,0,0,1,9.2-8.57,18.59,18.59,0,0,1,5.86-1.67,20.22,20.22,0,0,1,6.52.33,23.18,23.18,0,0,1,17.93,22.32c0,1.32,1.47,1.53,2.55,1.42.89-.1,3.27-.8,3.27-2.07A25.7,25.7,0,0,0,661.77,180,28.81,28.81,0,0,0,631,188.55a25.6,25.6,0,0,0-2.42,29.69c5.91,9.77,17.72,13.9,28.65,11.65,12.14-2.5,21.82-13.06,21.91-25.66,0-1.32-1.49-1.53-2.55-1.41S673.31,203.61,673.3,204.88Z"/><circle class="cls-8" cx="772.23" cy="164.36" r="2.74"/><circle class="cls-8" cx="611.88" cy="164.36" r="2.74"/><circle class="cls-8" cx="772.23" cy="241.71" r="2.74"/><circle class="cls-8" cx="611.88" cy="241.71" r="2.74"/><circle class="cls-7" cx="651.99" cy="204.56" r="10.77"/><path class="cls-12" d="M740.84,223.68c-.06-1.18-4.54.24-5.31.68a6.41,6.41,0,0,0-1.74,1.44,3,3,0,0,0-.88,1.57c-.36,12.41,2.69,21.73,9.2,34.66,4.08,8.1,14.51,20.6,22,26,.89.63,9,1.07,6.87-2.17C770.64,285.28,742.57,259.27,740.84,223.68Z"/><path class="cls-12" d="M728.82,241.68l8.75-17.14,1.25-2.46-6.14,2.53L747,233.23l2.05,1.23a4.19,4.19,0,0,0,5.55-1.48c1-1.56,1.67-4.54-.33-5.74L740,218.61l-2.05-1.23c-2.48-1.49-5,.26-6.14,2.52L723,237l-1.25,2.46c-.89,1.74-.31,4.6,1.8,5.14,2.33.6,4.26-1,5.26-3Z"/><path class="cls-19" d="M618.66,275.5c-.89.78,3,3.4,3.84,3.72a6.62,6.62,0,0,0,2.22.46,3.1,3.1,0,0,0,1.77-.29c9.92-7.49,15.28-15.68,21.31-28.85,3.77-8.24,7-24.2,6.51-33.43-.06-1.09-4.8-7.73-6-4C648.13,213.73,645.36,251.91,618.66,275.5Z"/><path class="cls-19" d="M640.22,273.63l-18.85,3.88-2.7.56,5.8,3.22-2.23-16.6-.32-2.37a4.2,4.2,0,0,0-4.63-3.41c-1.87.16-4.58,1.53-4.27,3.85l2.23,16.6.32,2.37c.39,2.86,3.32,3.73,5.81,3.22l18.85-3.89,2.7-.55c1.92-.4,3.78-2.63,2.89-4.62-1-2.19-3.45-2.7-5.6-2.26Z"/></g></svg>