<svg xmlns="http://www.w3.org/2000/svg" viewBox="0 0 1122.2 631.24"><defs><style>.cls-1{fill:none;}.cls-2,.cls-3{fill:#fdfdfb;}.cls-2{opacity:0.52;}.cls-4{fill:#546273;}.cls-5{fill:#c3c8ce;}.cls-6{fill:#b8d818;}.cls-7{fill:#f3f4f5;}.cls-8{fill:#b8da18;}.cls-9{opacity:0.5;}.cls-10{fill:#ffe718;}.cls-11{fill:#ea7a18;}.cls-12{fill:#737e8c;}</style></defs><g id="底"><rect class="cls-1" width="1122.2" height="631.24"/></g><g id="白底"><path class="cls-2" d="M944.94,220.32c0,41.41-9.15,86.42-35.69,120.91C832.47,441,739.5,439.57,595.91,439.57c-87.21,0-216.47,8.51-290.36-18.11-110.4-39.76-148.29-90.09-148.29-163.09,0-60.85,44.6-144.9,109.42-179.62C331.7,43.92,417.11,20.46,526,20.46c134.46,0,260.65,18.34,339,69.89C913.46,122.19,944.94,173.79,944.94,220.32Z"/><path class="cls-3" d="M924.11,220.86c0,39.23-8.67,81.85-33.81,114.52-72.71,94.49-160.77,93.14-296.76,93.14-82.6,0-205,8.06-275-17.15C214,373.72,178.09,326,178.09,256.9c0-57.62,42.24-137.23,103.64-170.12,61.58-33,142.47-55.2,245.62-55.2,127.36,0,246.87,17.37,321.1,66.2C894.29,127.93,924.11,176.8,924.11,220.86Z"/></g><g id="綠"><rect class="cls-4" x="415.3" y="136.23" width="271.6" height="200.94" rx="8.6"/><path class="cls-3" d="M535.08,178a5.73,5.73,0,0,1-4.34-1.79,7.13,7.13,0,0,1-1.8-5.13,7.24,7.24,0,0,1,1.85-5.19,5.8,5.8,0,0,1,4.38-1.85,5.25,5.25,0,0,1,3.93,1.72l-1.41,1.71a3.49,3.49,0,0,0-2.46-1.12,3.09,3.09,0,0,0-2.54,1.23,5.33,5.33,0,0,0-1,3.4,5.5,5.5,0,0,0,1,3.43,3,3,0,0,0,2.54,1.26,3.68,3.68,0,0,0,2.77-1.33l1.41,1.67A5.39,5.39,0,0,1,535.08,178Z"/><path class="cls-3" d="M547,178a5.44,5.44,0,0,1-4.33-1.89,7.57,7.57,0,0,1-1.66-5.15,7.43,7.43,0,0,1,1.66-5.11,6.08,6.08,0,0,1,8.66,0,7.47,7.47,0,0,1,1.66,5.12,7.56,7.56,0,0,1-1.66,5.14A5.44,5.44,0,0,1,547,178Zm0-2.33a2.77,2.77,0,0,0,2.37-1.27,5.94,5.94,0,0,0,.89-3.44,5.71,5.71,0,0,0-.88-3.39,2.93,2.93,0,0,0-4.76,0,5.7,5.7,0,0,0-.88,3.38,6,6,0,0,0,.89,3.45A2.74,2.74,0,0,0,547,175.62Z"/><path class="cls-3" d="M561.74,177.75c-.44,0-1-.06-1.58-.06h-4.71v-1.08a23.78,23.78,0,0,0,3-3.07,4.28,4.28,0,0,0,1.08-2.44,1.62,1.62,0,0,0-.38-1.12,1.33,1.33,0,0,0-1-.4,2.41,2.41,0,0,0-1.72,1l-1-1a5,5,0,0,1,1.33-1.06,3.71,3.71,0,0,1,1.65-.37,2.92,2.92,0,0,1,2.14.8,2.81,2.81,0,0,1,.81,2.1q0,2.15-3.11,5.22a14.36,14.36,0,0,1,1.52-.11h1c.24,0,.58,0,1-.05a5,5,0,0,1,0,.84A5.08,5.08,0,0,1,561.74,177.75Z"/><path class="cls-3" d="M570.86,177.78a5.41,5.41,0,0,1-1.41-.09c.14-1.37.21-3.19.21-5.45v-8h3l2.28,6.29c.14.39.32,1,.57,1.78.1.36.19.64.25.82h.09c.08-.27.21-.67.38-1.2s.33-1.1.44-1.4l2.22-6.29h3v10.09a31.27,31.27,0,0,0,.15,3.36,4.74,4.74,0,0,1-1.36.09,4.53,4.53,0,0,1-1.36-.09c.08-.81.13-1.74.13-2.8v-2.82c0-.77.09-2.13.29-4.08q0-.23,0-.33h-.07l-1.09,3.16-2.06,5.65H575l-2.08-5.65-1.07-3.16h-.07c0,.13,0,.34.07.63q.27,2.72.27,3.78v2.82a25.71,25.71,0,0,0,.13,2.8A4.44,4.44,0,0,1,570.86,177.78Z"/><path class="cls-3" d="M590.05,178a4.62,4.62,0,0,1-3.39-1.4,6,6,0,0,1,0-7.89,4.8,4.8,0,0,1,6.78,0,5.44,5.44,0,0,1,1.48,4,5.37,5.37,0,0,1-1.48,3.93A4.62,4.62,0,0,1,590.05,178Zm0-2.19a1.8,1.8,0,0,0,1.59-.85,5,5,0,0,0,0-4.6,1.8,1.8,0,0,0-1.59-.87,1.78,1.78,0,0,0-1.59.87,5,5,0,0,0,0,4.6A1.8,1.8,0,0,0,590.05,175.76Z"/><path class="cls-3" d="M598.05,177.69V167.51h2.18l.18,1.35h.07a4.74,4.74,0,0,1,3.29-1.6q3.13,0,3.14,4.09v6.34h-2.67v-6a3,3,0,0,0-.33-1.65,1.24,1.24,0,0,0-1.1-.48,2.19,2.19,0,0,0-1.08.29,6,6,0,0,0-1,.85v7Z"/><path class="cls-3" d="M611.9,165.88a1.64,1.64,0,0,1-1.14-.41,1.45,1.45,0,0,1,0-2.1,1.82,1.82,0,0,1,2.28,0,1.46,1.46,0,0,1,0,2.09A1.61,1.61,0,0,1,611.9,165.88Zm-1.34,11.81V167.51h2.65v10.18Z"/><path class="cls-3" d="M620.68,178c-2.22,0-3.33-1.28-3.33-3.82v-4.51h-1.43v-2l1.56-.13.31-2.72H620v2.72h1.25c.43,0,.84,0,1.25,0a4.15,4.15,0,0,1,.06,1.11,4.28,4.28,0,0,1-.06,1.11,10.06,10.06,0,0,0-1.25-.06H620v4.51q0,1.71,1.38,1.71a2.88,2.88,0,0,0,1-.22l.43,1.94A6.61,6.61,0,0,1,620.68,178Z"/><path class="cls-3" d="M629.37,178a4.61,4.61,0,0,1-3.38-1.4,6,6,0,0,1,0-7.89,4.79,4.79,0,0,1,6.77,0,5.44,5.44,0,0,1,1.48,4,5.37,5.37,0,0,1-1.48,3.93A4.62,4.62,0,0,1,629.37,178Zm0-2.19a1.83,1.83,0,0,0,1.6-.85,5,5,0,0,0,0-4.6,1.83,1.83,0,0,0-1.6-.87,1.8,1.8,0,0,0-1.59.87,5,5,0,0,0,0,4.6A1.83,1.83,0,0,0,629.37,175.76Z"/><path class="cls-3" d="M637.38,177.69V167.51h2.17l.18,1.8h.07a4.61,4.61,0,0,1,1.32-1.52,2.67,2.67,0,0,1,1.56-.53,3,3,0,0,1,1.2.22l-.47,2.3a3.71,3.71,0,0,0-1-.16,1.93,1.93,0,0,0-1.25.46,3.32,3.32,0,0,0-1.09,1.54v6.07Z"/><path class="cls-5" d="M638.25,229.23v-7.16a22.27,22.27,0,0,0-.11-2.38c0-.05,0-.07.11-.07a13.75,13.75,0,0,0,1.43.07h1.45q3.61,0,3.62,2.87a2.77,2.77,0,0,1-1,2.31,4.09,4.09,0,0,1-2.57.74h-1.44v3.62Zm1.49-4.83H641a2.63,2.63,0,0,0,1.69-.44,1.7,1.7,0,0,0,.55-1.4,1.48,1.48,0,0,0-.58-1.31,3.17,3.17,0,0,0-1.72-.36h-1.24v3.51Z"/><path class="cls-5" d="M647.25,229.23v-7.16a22.27,22.27,0,0,0-.11-2.38c0-.05,0-.07.11-.07a13.75,13.75,0,0,0,1.43.07h1.45q3.63,0,3.63,2.87a2.77,2.77,0,0,1-1,2.31,4.09,4.09,0,0,1-2.57.74h-1.44v3.62Zm1.49-4.83H650a2.63,2.63,0,0,0,1.69-.44,1.7,1.7,0,0,0,.55-1.4,1.48,1.48,0,0,0-.58-1.31,3.17,3.17,0,0,0-1.72-.36h-1.24v3.51Z"/><path class="cls-5" d="M656.92,229.29a2.67,2.67,0,0,1-.8-.06c.08-1.08.13-2.38.13-3.89v-5.65H658l1.74,4.82c.08.22.19.57.34,1s.22.69.29.89h.07c.07-.21.16-.51.29-.92s.25-.79.33-1l1.71-4.82h1.73v7.15a22.47,22.47,0,0,0,.11,2.39,5.36,5.36,0,0,1-1.6,0,21.94,21.94,0,0,0,.1-2.36v-2.36c0-.53.06-1.45.18-2.78a1.21,1.21,0,0,0,0-.18h0l-.76,2.21-1.65,4.55h-.93l-1.67-4.55-.75-2.21h-.05c0,.12,0,.32.05.59.09,1.13.13,1.92.13,2.37v2.36c0,.95,0,1.74.1,2.36A2.36,2.36,0,0,1,656.92,229.29Z"/><path class="cls-6" d="M528,214.27V198.48l2.26-2.25,4.51,4.51V212l-4.51,4.51Zm7.9,5.64-3.38-3.38,3.38-3.38h11.28l3.38,3.38-3.38,3.38Zm12.4-7.89V200.74l4.52-4.51,2.25,2.25v15.79l-2.25,2.26Zm0,20.3V221l4.52-4.51,2.25,2.26v15.78l-2.25,2.26Z"/><path class="cls-6" d="M563.93,214.27V198.48l2.25-2.25,4.51,4.51V212l-4.51,4.51Zm7.89-14.66-4.51-4.51,2.26-2.25h15.78l2.26,2.25-4.51,4.51Zm-2.25,40.6L567.31,238l4.51-4.51H583.1l4.51,4.51-2.26,2.25Zm2.25-20.3-3.38-3.38,3.38-3.38H583.1l3.38,3.38-3.38,3.38ZM584.23,212V200.74l4.51-4.51,2.25,2.25v15.79l-2.25,2.26Zm0,20.3V221l4.51-4.51,2.25,2.26v15.78l-2.25,2.26Z"/><path class="cls-6" d="M607.78,199.61l-4.51-4.51,2.26-2.25h15.79l2.25,2.25-4.51,4.51Zm-2.25,40.6L603.27,238l4.51-4.51h11.28l4.51,4.51-2.25,2.25Zm2.25-20.3-3.38-3.38,3.38-3.38h11.28l3.39,3.38-3.39,3.38ZM620.19,212V200.74l4.51-4.51,2.26,2.25v15.79l-2.26,2.26Zm0,20.3V221l4.51-4.51,2.26,2.26v15.78l-2.26,2.26Z"/><path class="cls-3" d="M532.28,271.34V260.12h-1.89c-.57,0-1.19,0-1.88.09a5.27,5.27,0,0,1-.06-1.22,7.18,7.18,0,0,1,.06-1.32,48.51,48.51,0,0,0,5.12.22h2.57c.86,0,1.71,0,2.56-.11a6.75,6.75,0,0,1,0,1.22,6.59,6.59,0,0,1,0,1.21,17,17,0,0,0-1.9-.09H535v11.22Z"/><path class="cls-3" d="M544.51,271.59a4.77,4.77,0,0,1-3.56-1.42,5.24,5.24,0,0,1-1.47-3.9,5.5,5.5,0,0,1,1.45-3.93,4.39,4.39,0,0,1,3.28-1.44,3.88,3.88,0,0,1,3.16,1.39,5.29,5.29,0,0,1,1.07,3.49,4.59,4.59,0,0,1-.12,1.21h-6.25a2.89,2.89,0,0,0,.92,1.89,2.7,2.7,0,0,0,1.89.66,4.26,4.26,0,0,0,2.28-.71l.9,1.64A6.1,6.1,0,0,1,544.51,271.59ZM542,265.23h4.13a2.57,2.57,0,0,0-.47-1.65,1.75,1.75,0,0,0-1.45-.6,2,2,0,0,0-1.43.56A2.84,2.84,0,0,0,542,265.23Z"/><path class="cls-3" d="M551.54,271.34V261.16h2.17l.18,1.36H554a6.8,6.8,0,0,1,1.37-1.14,3.46,3.46,0,0,1,1.74-.48,2.81,2.81,0,0,1,2.79,1.79,7.32,7.32,0,0,1,1.46-1.26,3.34,3.34,0,0,1,1.76-.53,2.79,2.79,0,0,1,2.39,1.1,5,5,0,0,1,.76,3v6.35h-2.66v-6a3.13,3.13,0,0,0-.34-1.65,1.21,1.21,0,0,0-1.07-.48,3,3,0,0,0-2,1.15v7h-2.66v-6a3.13,3.13,0,0,0-.34-1.65,1.21,1.21,0,0,0-1.07-.48,3,3,0,0,0-2,1.15v7Z"/><path class="cls-3" d="M569.9,275.24V261.16h2.17l.18,1h.07a4.73,4.73,0,0,1,3-1.31,3.48,3.48,0,0,1,2.93,1.42,6.14,6.14,0,0,1,1,3.76,6,6,0,0,1-1.32,4.06,3.76,3.76,0,0,1-3,1.45,3.72,3.72,0,0,1-2.52-1.11l.07,1.68v3.08Zm4.49-5.85a1.79,1.79,0,0,0,1.55-.8,4.23,4.23,0,0,0,.62-2.47c0-2-.67-3-2-3a3,3,0,0,0-2,1.06v4.47A2.8,2.8,0,0,0,574.39,269.39Z"/><path class="cls-5" d="M585.78,299.84a1.85,1.85,0,0,1-1.33-.53,2,2,0,0,1,0-2.8,1.95,1.95,0,0,1,2.67,0,1.88,1.88,0,0,1,.57,1.4,1.85,1.85,0,0,1-.57,1.4A1.82,1.82,0,0,1,585.78,299.84Zm0-.78a1,1,0,0,0,.77-.32,1.22,1.22,0,0,0,.29-.83,1.17,1.17,0,0,0-.3-.84,1,1,0,0,0-1.51,0,1.15,1.15,0,0,0-.29.83,1.19,1.19,0,0,0,.29.84A1,1,0,0,0,585.78,299.06Z"/><path class="cls-5" d="M593.87,306.13a3.86,3.86,0,0,1-3-1.29,5.19,5.19,0,0,1-1.22-3.63,5.29,5.29,0,0,1,1.24-3.65,4,4,0,0,1,3-1.32,3.62,3.62,0,0,1,1.58.36,3.7,3.7,0,0,1,1.12.84l-.81,1a2.52,2.52,0,0,0-1.86-.85,2.43,2.43,0,0,0-2,1,4.19,4.19,0,0,0-.77,2.64,4.37,4.37,0,0,0,.74,2.68,2.37,2.37,0,0,0,2,1,2.78,2.78,0,0,0,2.1-1l.8.94A3.73,3.73,0,0,1,593.87,306.13Z"/><path class="cls-6" d="M528,304.54V298.2l.9-.91,1.81,1.81v4.54l-1.81,1.81Zm3.17-14.05-1.81-1.81.9-.9h6.35l.9.9-1.81,1.81Zm-.91,16.32-.9-.91,1.81-1.81h4.53l1.81,1.81-.9.91Zm.91-8.16-1.36-1.36,1.36-1.36h4.53l1.36,1.36-1.36,1.36Zm5-3.17V291l1.81-1.81.91.9v6.35l-.91.9Z"/><path class="cls-6" d="M540.68,304.54V298.2l.9-.91,1.81,1.81v4.54l-1.81,1.81Zm3.17-14.05L542,288.68l.91-.9h6.34l.91.9-1.81,1.81Zm-.91,16.32-.91-.91,1.82-1.81h4.53l1.81,1.81-.91.91Zm.91-8.16-1.36-1.36,1.36-1.36h4.53l1.36,1.36-1.36,1.36Zm5-3.17V291l1.81-1.81.91.9v6.35l-.91.9Z"/><path class="cls-6" d="M558.37,306.81,557,305.45l1.36-1.36h.9l1.36,1.36-1.36,1.36Z"/><path class="cls-6" d="M566.09,296.39V290l.91-.9,1.81,1.81v4.53L567,297.29Zm0,8.15V298.2l.91-.91,1.81,1.81v4.54L567,305.45Zm3.17-14.05-1.81-1.81.91-.9h6.34l.91.9-1.81,1.81Zm-.9,16.32-.91-.91,1.81-1.81h4.54l1.81,1.81-.91.91Zm.9-8.16-1.35-1.36,1.35-1.36h4.54l1.36,1.36-1.36,1.36Zm5,5V299.1l1.81-1.81.91.91v6.34l-.91.91Z"/><path class="cls-3" d="M622.54,271.34V261.25c0-1.34,0-2.47-.14-3.36,0-.08.05-.11.14-.11a20.31,20.31,0,0,0,2.34.11h2.33c3.36,0,5,1.35,5,4.07a3.8,3.8,0,0,1-2.56,3.87l3.14,5.51h-3l-2.75-5.09h-1.87v5.09Zm2.68-7.22H627c1.77,0,2.66-.72,2.66-2.16a1.73,1.73,0,0,0-.69-1.53,3.63,3.63,0,0,0-2-.42h-1.74v4.11Z"/><path class="cls-3" d="M635.8,271.34V257.89h2.67v5.29h5.07v-5.29h2.67v13.45h-2.67v-5.82h-5.07v5.82Z"/><path class="cls-5" d="M655.22,302.28a1.94,1.94,0,0,1-1.62-.81,3.62,3.62,0,0,1-.6-2.22,3.72,3.72,0,0,1,.6-2.24,2,2,0,0,1,1.62-.77,1.92,1.92,0,0,1,1.61.77,3.66,3.66,0,0,1,.62,2.24,3.55,3.55,0,0,1-.62,2.22A1.88,1.88,0,0,1,655.22,302.28Zm0-.88a.9.9,0,0,0,.82-.54,4.14,4.14,0,0,0,0-3.24.91.91,0,0,0-.82-.5.92.92,0,0,0-.82.5,3.38,3.38,0,0,0-.32,1.63,3.27,3.27,0,0,0,.32,1.61A.91.91,0,0,0,655.22,301.4Zm.29,4.73,5.21-9.89h.94l-2.61,4.95-2.61,4.94Zm6.46,0a1.91,1.91,0,0,1-1.61-.79,4.32,4.32,0,0,1,0-4.46,2,2,0,0,1,3.21,0,4.32,4.32,0,0,1,0,4.46A1.91,1.91,0,0,1,662,306.13Zm0-.87a.92.92,0,0,0,.82-.53,4.26,4.26,0,0,0,0-3.24A.91.91,0,0,0,662,301a.93.93,0,0,0-.83.51,4.26,4.26,0,0,0,0,3.24A.93.93,0,0,0,662,305.26Z"/><path class="cls-6" d="M620.89,296.39V290l.91-.9,1.81,1.81v4.53l-1.81,1.81Zm3.18-5.9-1.82-1.81.91-.9h6.34l.91.9-1.81,1.81Zm5,5V291l1.81-1.81.91.9v6.35l-.91.9Zm0,8.16V299.1l1.81-1.81.91.91v6.34l-.91.91Z"/><path class="cls-6" d="M636.78,290.49,635,288.68l.91-.9h6.34l.91.9-1.81,1.81Zm-.91,16.32-.91-.91,1.82-1.81h4.53l1.81,1.81-.91.91Zm.91-8.16-1.36-1.36,1.36-1.36h4.53l1.36,1.36-1.36,1.36Zm5-3.17V291l1.81-1.81.91.9v6.35l-.91.9Zm0,8.16V299.1l1.81-1.81.91.91v6.34l-.91.91Z"/><circle class="cls-7" cx="672.79" cy="150.34" r="4.1"/><circle class="cls-7" cx="672.79" cy="323.06" r="4.1"/><circle class="cls-7" cx="429.41" cy="150.34" r="4.1"/><circle class="cls-7" cx="429.41" cy="323.06" r="4.1"/><path class="cls-8" d="M470.35,291.84a16,16,0,0,1-10.08,15,15.66,15.66,0,0,1-17.41-5.05,16.42,16.42,0,0,1-1.46-18.34,15.2,15.2,0,0,1,16.4-7.31,16.38,16.38,0,0,1,12.55,15.74c0,1.24,2.58.78,2.57-.24A17.66,17.66,0,0,0,461.09,275a18.83,18.83,0,0,0-20.25,5.57A17.62,17.62,0,0,0,439.19,301a18.31,18.31,0,0,0,33.73-9.35C472.94,290.37,470.36,290.82,470.35,291.84Z"/><circle class="cls-8" cx="448.74" cy="287.74" r="2.55"/><circle class="cls-8" cx="461.8" cy="287.74" r="2.55"/><path class="cls-8" d="M448.22,296.9a10.15,10.15,0,0,0,4.19,2.21,12.38,12.38,0,0,0,10-1.95c1-.63-.46-2.28-1.31-1.73-2.59,1.69-5.71,2.74-8.78,1.87a8.14,8.14,0,0,1-2.35-1.05l-.31-.21-.2-.15-.23-.19c-.34-.32-1-.52-1.35-.13s0,1,.3,1.33Z"/><g class="cls-9"><path class="cls-10" d="M470.35,236.82a16,16,0,0,1-10.08,15,15.64,15.64,0,0,1-17.41-5,16.42,16.42,0,0,1-1.46-18.34,15.22,15.22,0,0,1,16.4-7.32,16.39,16.39,0,0,1,12.55,15.75c0,1.23,2.58.78,2.57-.24A17.66,17.66,0,0,0,461.09,220a18.81,18.81,0,0,0-20.25,5.57,17.62,17.62,0,0,0-1.65,20.36,18.31,18.31,0,0,0,33.73-9.35C472.94,235.35,470.36,235.8,470.35,236.82Z"/><circle class="cls-10" cx="448.74" cy="232.72" r="2.55"/><circle class="cls-10" cx="461.8" cy="232.72" r="2.55"/><path class="cls-10" d="M449,242.21H462c1.37,0,.61-1.87-.43-1.87H448.53c-1.37,0-.61,1.87.43,1.87Z"/></g><g class="cls-9"><path class="cls-11" d="M470.35,181.8a16,16,0,0,1-10.08,14.95,15.66,15.66,0,0,1-17.41-5,16.43,16.43,0,0,1-1.46-18.34,15.21,15.21,0,0,1,16.4-7.32,16.39,16.39,0,0,1,12.55,15.75c0,1.23,2.58.78,2.57-.24A17.66,17.66,0,0,0,461.09,165a18.82,18.82,0,0,0-20.25,5.56,17.64,17.64,0,0,0-1.65,20.37,18.31,18.31,0,0,0,33.73-9.35C472.94,180.33,470.36,180.78,470.35,181.8Z"/><circle class="cls-11" cx="448.74" cy="177.7" r="2.55"/><circle class="cls-11" cx="461.8" cy="177.7" r="2.55"/><path class="cls-11" d="M449.4,187.11a11.44,11.44,0,0,1,3.71-1.6,10.15,10.15,0,0,1,8.4,1.52.84.84,0,0,0,1.23-.23c.22-.53-.27-1.06-.65-1.32a12.24,12.24,0,0,0-9.56-1.91,12.79,12.79,0,0,0-4.44,1.82c-1,.66.48,2.3,1.31,1.72Z"/></g><rect class="cls-6" x="481.79" y="304.32" width="22.14" height="4.49"/><rect class="cls-12" x="481.79" y="286.85" width="22.14" height="4.49"/><rect class="cls-12" x="481.79" y="269.38" width="22.14" height="4.49"/><rect class="cls-12" x="481.79" y="251.91" width="22.14" height="4.49"/><rect class="cls-12" x="481.79" y="234.44" width="22.14" height="4.49"/><rect class="cls-12" x="481.79" y="216.98" width="22.14" height="4.49"/><rect class="cls-12" x="481.79" y="199.51" width="22.14" height="4.49"/><rect class="cls-12" x="481.79" y="182.04" width="22.14" height="4.49"/><rect class="cls-12" x="481.79" y="164.57" width="22.14" height="4.49"/></g></svg>