<svg xmlns="http://www.w3.org/2000/svg" viewBox="0 0 1122.2 631.24"><defs><style>.cls-1{fill:none;}.cls-2,.cls-3{fill:#fdfdfb;}.cls-2{opacity:0.52;}.cls-4{fill:#b8c318;}.cls-5{fill:#584938;}.cls-6{fill:#dadee3;}.cls-7{fill:#578cae;}.cls-8{fill:#dbe6ef;}</style></defs><g id="底"><rect class="cls-1" width="1122.2" height="631.24"/></g><g id="白底"><path class="cls-2" d="M944.94,220.32c0,41.41-9.15,86.42-35.69,120.91C832.47,441,739.5,439.57,595.91,439.57c-87.21,0-216.47,8.51-290.36-18.11-110.4-39.76-148.29-90.09-148.29-163.09,0-60.85,44.6-144.9,109.42-179.62C331.7,43.92,417.11,20.46,526,20.46c134.46,0,260.65,18.34,339,69.89C913.46,122.19,944.94,173.79,944.94,220.32Z"/><path class="cls-3" d="M924.11,220.86c0,39.23-8.67,81.85-33.81,114.52-72.71,94.49-160.77,93.14-296.76,93.14-82.6,0-205,8.06-275-17.15C214,373.72,178.09,326,178.09,256.9c0-57.62,42.24-137.23,103.64-170.12,61.58-33,142.47-55.2,245.62-55.2,127.36,0,246.87,17.37,321.1,66.2C894.29,127.93,924.11,176.8,924.11,220.86Z"/><path class="cls-4" d="M582.91,222.86a1.36,1.36,0,0,1-1.07-.2.58.58,0,0,1-.21-.58.75.75,0,0,1,.28-.39,2.11,2.11,0,0,1,.83-.28l.55-.1.65-.12,1-.13.86-.1,1.12-.08,1.36-.09.4,0,.76.09a3,3,0,0,1,.6.14,1.48,1.48,0,0,1,.72.35,1.08,1.08,0,0,1,.34.58.51.51,0,0,1,0,.35.43.43,0,0,1-.21.21l-.72.22a.89.89,0,0,1-.56,0,1,1,0,0,0-.64-.3c-.2,0-.52-.06-.94-.09a8.78,8.78,0,0,1-1,.06c-.27,0-.41,0-.41.1l-1.14.06-1,.09-.54,0-.68.06A3.5,3.5,0,0,0,582.91,222.86Zm-.17,11.37a.6.6,0,0,1-.58-.33,1,1,0,0,1-.22-.58,5.29,5.29,0,0,1,.18-.89c.1-.38.22-.78.35-1.18s.24-.71.34-.94.1-.39.15-.56.07-.26.09-.32a1.77,1.77,0,0,0,.18-.4,5.84,5.84,0,0,0,.2-.64c0-.1.08-.3.17-.59s.18-.63.31-1,.24-.76.37-1.14l.31-1c.09-.29.15-.47.18-.56a2.4,2.4,0,0,0,.23-.45l.1-.29a.27.27,0,0,0,.13-.2.86.86,0,0,0,0-.21.21.21,0,0,1,.07-.15.19.19,0,0,0,.07-.14c.05,0,.08,0,.09,0s.06,0,.12,0l.1-.66,1.72,0c0,.15-.06.34-.12.57a4,4,0,0,1-.36.9,5.23,5.23,0,0,1-.23.7.84.84,0,0,0-.1.4,2.1,2.1,0,0,0-.17.39l-.29.85-.33,1c-.11.33-.2.63-.29.88s-.14.41-.16.47a7.72,7.72,0,0,0-.35.91c-.13.4-.32.94-.58,1.63a9.48,9.48,0,0,0-.38.92c-.15.42-.27.79-.36,1.13a6.75,6.75,0,0,1-.37,1.08.94.94,0,0,1-.3.4A1,1,0,0,1,582.74,234.23Z"/><path class="cls-4" d="M591.31,232.47a.39.39,0,0,1-.3-.1l-.3-.23a1.75,1.75,0,0,1-.27-.4,1,1,0,0,1-.08-.39,3.22,3.22,0,0,1,0-.5c.06-.21.14-.49.23-.83s.2-.73.33-1.13a3.6,3.6,0,0,1,.15-.55c.07-.21.14-.42.22-.62s.13-.35.17-.45c.09-.32.19-.63.28-.93s.22-.64.36-1,.32-.87.52-1.47c.29-.77.5-1.35.64-1.74l.31-.83a3.34,3.34,0,0,0,.14-.41c0-.1.07-.2.22-.3a.81.81,0,0,1,.39-.14.76.76,0,0,1,.53.32,1.75,1.75,0,0,1,.35.71,1.06,1.06,0,0,1-.14.81c-.21.46-.41,1-.61,1.55s-.4,1.15-.59,1.72-.39,1.09-.58,1.56a1.13,1.13,0,0,1-.13.33l-.18.39-.21.43c0,.07,0,.18-.08.32s-.08.27-.11.37,0,.15-.06.25a1.88,1.88,0,0,0-.06.31,3.21,3.21,0,0,1,.27-.28l.44-.41.55-.47c.15-.13.31-.24.46-.35l.58-.42a.85.85,0,0,0,.09-.14.2.2,0,0,1,.1-.09l.14-.11a1.25,1.25,0,0,0,.19-.15,2.58,2.58,0,0,1,.37-.19,1.76,1.76,0,0,1,.41-.11,1.87,1.87,0,0,1,.4,0,.85.85,0,0,1,.49.18,1.77,1.77,0,0,1,.46.51,1.23,1.23,0,0,1,.24.59,3.74,3.74,0,0,1,0,.9,4.13,4.13,0,0,1-.08.58l-.13.64-.17.66h.15a1.05,1.05,0,0,1,.62,0,.83.83,0,0,1,.18.13.77.77,0,0,0,.17.12c.08.1.06.25,0,.44a1,1,0,0,1-.35.41,2.4,2.4,0,0,1-.82.39,1.09,1.09,0,0,1-.75-.14,1.27,1.27,0,0,1-.49-.6,2.75,2.75,0,0,1-.11-.94c.06-.57.09-1,.1-1.23s-.05-.38-.19-.38a1.35,1.35,0,0,0-.63.22,6.92,6.92,0,0,0-.88.6c-.32.25-.64.53-1,.83a8.76,8.76,0,0,0-.84.92,6.8,6.8,0,0,1-.5.57A.93.93,0,0,1,591.31,232.47Z"/><path class="cls-4" d="M604.41,232.82a2.89,2.89,0,0,1-1.23.38A2.7,2.7,0,0,1,602,233a2.11,2.11,0,0,1-.91-.66,2.82,2.82,0,0,1-.37-.81,3.9,3.9,0,0,1-.06-1.5,6,6,0,0,1,.56-1.79,6.28,6.28,0,0,1,1.07-1.61,3.34,3.34,0,0,1,1.39-1,3.7,3.7,0,0,1,.55-.14,2.76,2.76,0,0,1,1.54.21,1.37,1.37,0,0,1,.5.36,1.43,1.43,0,0,1,.41.6,1.38,1.38,0,0,1,.08.56,3.66,3.66,0,0,1-.55,1.33,2.83,2.83,0,0,1-1.27,1.07,2.49,2.49,0,0,1-.77.17,4.16,4.16,0,0,1-1.22-.12c-.31-.06-.52,0-.61.1a1.28,1.28,0,0,0-.13.76,1.89,1.89,0,0,0,.17.61.67.67,0,0,0,.47.35,1.24,1.24,0,0,0,.64,0,3.86,3.86,0,0,0,.48-.2,2.28,2.28,0,0,0,.3-.21l.29-.23a2.09,2.09,0,0,1,.25-.18.5.5,0,0,1,.19-.1h.19a.64.64,0,0,1,.41.23,1,1,0,0,1,.25.4,1,1,0,0,1-.19.44,3.35,3.35,0,0,1-.52.58A4,4,0,0,1,604.41,232.82Zm-.25-4.31a2,2,0,0,0,.39-.27,5.27,5.27,0,0,0,.48-.46.69.69,0,0,0,.21-.38c0-.14-.09-.26-.28-.36a1,1,0,0,0-.73-.06,1,1,0,0,0-.37.21,5.16,5.16,0,0,0-.42.4l-.37.42c-.1.14-.17.25-.21.32a.52.52,0,0,0,.31.16,2,2,0,0,0,.51.06A3.08,3.08,0,0,0,604.16,228.51Z"/><path class="cls-4" d="M608.47,232.69a3.82,3.82,0,0,1-.38-.35.69.69,0,0,1-.14-.6q.06-.54.15-1c.07-.28.14-.6.23-1,0-.15.1-.42.21-.79s.24-.78.39-1.22.32-.85.49-1.25a6.43,6.43,0,0,1,.44-.88.9.9,0,0,1,.63-.19.81.81,0,0,1,.57.15.62.62,0,0,1,.14.61,5.54,5.54,0,0,1-.54,1.35c-.07.15-.15.32-.25.49a4.66,4.66,0,0,0-.2.43c0,.11,0,.15,0,.14a2,2,0,0,1,.43-.49c.2-.19.42-.37.65-.55s.45-.35.66-.49.35-.23.43-.27a1.5,1.5,0,0,1,.36-.16l.28-.11a1.75,1.75,0,0,1,1-.16c.36,0,.57.14.65.34a.47.47,0,0,0,.23.3c.05,0,.09,0,.1.12s-.09.22-.26.39a.89.89,0,0,1-.57.27,1.24,1.24,0,0,0-.45.1l-.46.19-1.33.75a5.26,5.26,0,0,0-1.21,1,2.65,2.65,0,0,1-.29.29,2,2,0,0,0-.31.39,1,1,0,0,0-.19.42c-.06.22-.12.43-.16.63a2.14,2.14,0,0,0-.07.36,1.83,1.83,0,0,1-.25.54,1.05,1.05,0,0,1-.46.39C608.85,233,608.68,232.89,608.47,232.69Z"/><path class="cls-4" d="M625.05,232.74a1.46,1.46,0,0,1-.42-.25,1.71,1.71,0,0,1-.52-.64,2.23,2.23,0,0,1-.2-1.1,3.37,3.37,0,0,1,.09-.82c0-.16,0-.25-.07-.26s-.19,0-.39.17a7.9,7.9,0,0,0-.75.62c-.31.28-.69.66-1.12,1.12a7,7,0,0,0-.52.48,2.05,2.05,0,0,1-.56.41.42.42,0,0,1-.49-.05l-.2-.18a1.09,1.09,0,0,1-.23-.31.53.53,0,0,1-.06-.33l.55-1.51c.15-.33.26-.58.32-.73a.88.88,0,0,0,.07-.29s0,0-.1,0a.77.77,0,0,0-.33.2,1.54,1.54,0,0,0-.29.3c-.05,0-.12.05-.21.16a3.27,3.27,0,0,1-.24.27l-.4.43-.62.67a7.49,7.49,0,0,0-.58.62c-.22.26-.42.49-.58.7s-.27.31-.31.31a1.09,1.09,0,0,1-.63-.24,1,1,0,0,1-.38-.52,1.35,1.35,0,0,1,0-.78c.07-.38.19-1,.37-1.83,0-.19.1-.36.14-.5l.15-.43.18-.48c.07-.18.17-.4.28-.66a1.18,1.18,0,0,0,.08-.51c0-.16,0-.3,0-.4a.58.58,0,0,1,.19-.46,1,1,0,0,1,.41-.25.84.84,0,0,1,.37,0,.88.88,0,0,1,.73.39,1.53,1.53,0,0,1,.22.64,1.24,1.24,0,0,1-.08.52c-.06.16-.12.29-.15.39l-.22.52-.28.65a2.09,2.09,0,0,0-.1.27v.13s.07,0,.17-.06l.38-.32.41-.36c.24-.19.48-.39.75-.59a7.17,7.17,0,0,1,.78-.53,2.78,2.78,0,0,1,.64-.31,1.19,1.19,0,0,1,.61.33,1.41,1.41,0,0,1,.36.46,1,1,0,0,1,0,.53c0,.15-.08.29-.11.42s0,.15-.08.29-.09.34-.17.58l.42-.4.39-.3a6.24,6.24,0,0,1,1.54-.93.79.79,0,0,1,1,.34,1,1,0,0,1,.3.58,6.29,6.29,0,0,1,.06,1c0,.17,0,.36,0,.56s0,.39.08.55a.89.89,0,0,0,.09.29.51.51,0,0,0,.21.14,2.12,2.12,0,0,0,.29.11.61.61,0,0,1,0,1,1.55,1.55,0,0,1-.61.22A3.52,3.52,0,0,1,625.05,232.74Z"/><path class="cls-4" d="M628.48,232.8a1,1,0,0,0-.34-.31c-.18-.1-.26-.18-.26-.23a.6.6,0,0,0-.09-.24.83.83,0,0,0-.17-.24q-.09-.12.06-.57a11.63,11.63,0,0,1,.47-1.12c.2-.44.43-.88.67-1.33a2,2,0,0,0,.31-.41,1.75,1.75,0,0,1,.24-.33.24.24,0,0,1,0-.14.17.17,0,0,1,.14-.07l.15-.31a2.92,2.92,0,0,1,.25-.31c.13-.15.3-.32.49-.51a7.23,7.23,0,0,1,.59-.53,4.17,4.17,0,0,1,.49-.37,1.33,1.33,0,0,1,.84-.25,1.23,1.23,0,0,1,.75.27l.26.23.47.39.45.38.72.64-.33,1a2.64,2.64,0,0,0-.14,1.35,3.17,3.17,0,0,0,.37,1,.78.78,0,0,0,.26.33.92.92,0,0,0,.44.15.81.81,0,0,1,.29.12.35.35,0,0,1,.13.31,1.08,1.08,0,0,1-.16.67.68.68,0,0,1-.36.24,2.51,2.51,0,0,1-1.22-.14,2.11,2.11,0,0,1-1-1.1,2.44,2.44,0,0,1-.21-.43,3.78,3.78,0,0,1-.14-.42l-.21.24a2.05,2.05,0,0,1-.24.26,8.11,8.11,0,0,1-2.35,1.81A1.64,1.64,0,0,1,628.48,232.8Zm1.49-1.75a6.28,6.28,0,0,0,.77-.55l1.08-.93a4.67,4.67,0,0,0,.83-.95l.43-.69a1.62,1.62,0,0,0-.35-.58.46.46,0,0,0-.31-.14,1,1,0,0,0-.6.32,5.88,5.88,0,0,0-.78.93c-.29.4-.62.91-1,1.52a7.25,7.25,0,0,0-.52,1.22A.86.86,0,0,0,630,231.05Z"/><path class="cls-4" d="M638.42,233.42a.64.64,0,0,1-.66-.2,1.76,1.76,0,0,1-.4-.88,3,3,0,0,1,0-1.3c.06-.15.11-.31.15-.45a1.48,1.48,0,0,0,.06-.36q0-.19.15-.57l.26-.79c.09-.27.17-.51.26-.72l.16-.4s.1,0,.14-.13a.65.65,0,0,0,0-.27,1.21,1.21,0,0,1,.07-.35.8.8,0,0,1,.15-.27.53.53,0,0,1,0-.23.58.58,0,0,0,0-.2.3.3,0,0,1,0-.15.25.25,0,0,0,0-.16c.09-.17.21-.43.36-.8s.31-.78.48-1.23.34-.9.5-1.34.28-.81.37-1.11a2.7,2.7,0,0,0,.15-.55.48.48,0,0,1,.11-.29.37.37,0,0,1,.28-.14.56.56,0,0,1,.27-.08l.29,0c.1.1.2.21.31.31a3,3,0,0,1,.3.31.63.63,0,0,1,.14.4,1.61,1.61,0,0,1-.07.49,4.62,4.62,0,0,1-.24.63c-.11.26-.3.65-.54,1.17a6,6,0,0,1-.33.72,1.76,1.76,0,0,0-.17.42.79.79,0,0,1-.07.23c0,.1-.09.23-.15.39l-.21.45-.28.64c-.1.23-.18.42-.24.58a1.33,1.33,0,0,0-.1.28.86.86,0,0,1,0,.16.22.22,0,0,1-.08.15c-.06,0-.09.07-.1.22a5.1,5.1,0,0,1-.31,1l-.57,1.95a5.23,5.23,0,0,0-.26,1.44,1.36,1.36,0,0,1-.15.71A.7.7,0,0,1,638.42,233.42Z"/><path class="cls-4" d="M650.36,234a2.43,2.43,0,0,1-1.2-.43c-.4-.27-.77-.51-1.1-.75a2.55,2.55,0,0,1-.51-.7,5.08,5.08,0,0,1-.29-1,3.11,3.11,0,0,1,0-1,9,9,0,0,1,.26-1.21,7.37,7.37,0,0,1,.32-1,11.78,11.78,0,0,1,.59-1.18c.24-.41.48-.81.72-1.19l.57-.92c.09-.09.13-.15.12-.16a1.54,1.54,0,0,1,.2-.49l.36-.71a1.24,1.24,0,0,0,.33-.5.39.39,0,0,0-.06-.31c0-.05,0-.16.16-.33a5.07,5.07,0,0,1,.57-.57,5.43,5.43,0,0,1,.82-.57,1.63,1.63,0,0,1,.9-.4c.29,0,.46,0,.51.19s.07,0,.22,0l.52-.1.54-.11a.73.73,0,0,1,.45-.18c.24,0,.52-.09.84-.13a3.43,3.43,0,0,0,.56,0c.21,0,.47,0,.8-.05.09,0,.22,0,.39.17a1.31,1.31,0,0,1,.42.55.48.48,0,0,1-.23.6A2.74,2.74,0,0,1,657,222l-.9.12-.68.12c-.24,0-.58.12-1,.22l-.81.16a1.21,1.21,0,0,0-.57.23,2.17,2.17,0,0,0-.53.62,1.48,1.48,0,0,0-.35.5l-.42.81-.81,1.12q-.25.36-.18.45a5.8,5.8,0,0,0,.62.12,1.45,1.45,0,0,1,.47-.14,3.29,3.29,0,0,0,.46-.08l1.77-.45.81-.2a2.86,2.86,0,0,1,.43-.08.41.41,0,0,1,.56,0,1.3,1.3,0,0,1,.39.57.69.69,0,0,1,0,.6,1,1,0,0,1-.59.35c-.3.09-.73.19-1.28.32s-1.26.3-2.09.53a10.29,10.29,0,0,1-1.73.37c-.43,0-.64-.07-.61-.33-.1,0-.2,0-.3.14a2,2,0,0,0-.3.61,6.71,6.71,0,0,0-.25.83,4.47,4.47,0,0,0-.12.84,1.35,1.35,0,0,0,.06.6,1.81,1.81,0,0,0,.49.76,2.46,2.46,0,0,0,1,.51l.75.06a1.75,1.75,0,0,0,.83-.15,7,7,0,0,0,1.59-.41,3.87,3.87,0,0,0,.54-.29.43.43,0,0,0,.2-.16.17.17,0,0,1,.15-.07c0,.06,0,.06,0,0a1.89,1.89,0,0,1,.31-.27,1.69,1.69,0,0,1,.81-.43,1.74,1.74,0,0,1,.68,0c.18.05.27.1.29.17s0,.33-.12.6a3.75,3.75,0,0,1-.71.88,5.39,5.39,0,0,1-1.11.84,7.77,7.77,0,0,1-2.22.76A12.94,12.94,0,0,1,650.36,234Z"/><path class="cls-4" d="M665.61,232.74a1.76,1.76,0,0,1-.71-.18,1.07,1.07,0,0,1-.46-.59,2.32,2.32,0,0,1-.06-.65,4.89,4.89,0,0,1,0-.66c0-.21,0-.39,0-.55v-.37c0-.19-.07-.31-.14-.35s-.19,0-.36,0a7.79,7.79,0,0,0-.88.51c-.31.21-.64.46-1,.73l-1.05.88c-.28.31-.49.57-.63.76a.54.54,0,0,1-.42.29.29.29,0,0,1-.32,0l-.37-.27c-.09-.1-.2-.24-.32-.4a1.82,1.82,0,0,1-.22-.32,2.48,2.48,0,0,1,0-.56,3,3,0,0,1,.15-.52c.07-.18.16-.39.26-.62l.15-.28c0-.1.1-.2.16-.32s.13-.39.22-.62L660,228a6.18,6.18,0,0,0,.33-.87,7.58,7.58,0,0,0,.2-.79s0-.06,0-.12a.14.14,0,0,1,.11-.09h0a.67.67,0,0,1,.51,0,1.21,1.21,0,0,1,.57.22,1.1,1.1,0,0,1,.39.91,3.33,3.33,0,0,1-.58,1.47,5,5,0,0,1-.28.57,1,1,0,0,0-.15.36l.53-.4.36-.26.43-.36.72-.55c.25-.19.46-.34.62-.44a3.21,3.21,0,0,1,.54-.32,1.61,1.61,0,0,1,.4-.17,1.19,1.19,0,0,1,.48.14,3.46,3.46,0,0,1,.52.32.69.69,0,0,1,.28.34,1.91,1.91,0,0,1,0,.2,2,2,0,0,0,0,.22c0,.21,0,.46,0,.75s0,.58,0,.87a3.12,3.12,0,0,1-.08.78.34.34,0,0,1,.06.12s0,.05,0,.11l.09.27a1.3,1.3,0,0,0,.13.3c0,.11.1.25.17.42a.76.76,0,0,1-.28.49A1.06,1.06,0,0,1,665.61,232.74Z"/><path class="cls-4" d="M672.55,232.82a2.81,2.81,0,0,1-1.23.38,2.72,2.72,0,0,1-1.21-.18,2.08,2.08,0,0,1-.9-.66,2.57,2.57,0,0,1-.37-.81,3.54,3.54,0,0,1-.06-1.5,5.94,5.94,0,0,1,.55-1.79,6.54,6.54,0,0,1,1.07-1.61,3.3,3.3,0,0,1,1.4-1,3.41,3.41,0,0,1,.55-.14,2.53,2.53,0,0,1,.74,0,2.68,2.68,0,0,1,.8.22,1.37,1.37,0,0,1,.5.36,1.53,1.53,0,0,1,.41.6,1.37,1.37,0,0,1,.07.56,3.34,3.34,0,0,1-.55,1.33,2.76,2.76,0,0,1-1.26,1.07,2.49,2.49,0,0,1-.78.17,4.19,4.19,0,0,1-1.22-.12c-.31-.06-.51,0-.61.1a1.3,1.3,0,0,0-.12.76,1.88,1.88,0,0,0,.16.61.69.69,0,0,0,.48.35,1.2,1.2,0,0,0,.63,0,3.91,3.91,0,0,0,.49-.2c.1-.06.2-.14.3-.21l.29-.23.24-.18a.58.58,0,0,1,.19-.1h.2a.62.62,0,0,1,.4.23,1.09,1.09,0,0,1,.26.4.9.9,0,0,1-.2.44,4,4,0,0,1-1.22,1.11Zm-.25-4.31a2.29,2.29,0,0,0,.4-.27,5.13,5.13,0,0,0,.47-.46.69.69,0,0,0,.21-.38c0-.14-.09-.26-.28-.36a.94.94,0,0,0-.72-.06.89.89,0,0,0-.37.21,5.16,5.16,0,0,0-.42.4,4.28,4.28,0,0,0-.37.42,2.69,2.69,0,0,0-.22.32.6.6,0,0,0,.31.16,2.12,2.12,0,0,0,.52.06A3.06,3.06,0,0,0,672.3,228.51Z"/><path class="cls-4" d="M676.62,232.69a3,3,0,0,1-.38-.35.66.66,0,0,1-.15-.6,7.37,7.37,0,0,1,.16-1c.06-.28.14-.6.23-1,0-.15.09-.42.2-.79s.25-.78.4-1.22.32-.85.48-1.25a6.28,6.28,0,0,1,.45-.88.9.9,0,0,1,.63-.19.83.83,0,0,1,.57.15.59.59,0,0,1,.13.61,5.54,5.54,0,0,1-.54,1.35,3.65,3.65,0,0,1-.24.49,3,3,0,0,0-.2.43c0,.11,0,.15,0,.14a1.71,1.71,0,0,1,.42-.49c.21-.19.43-.37.66-.55s.45-.35.66-.49a4.09,4.09,0,0,1,.42-.27,1.7,1.7,0,0,1,.36-.16,2,2,0,0,0,.28-.11,1.79,1.79,0,0,1,1-.16c.35,0,.57.14.65.34a.47.47,0,0,0,.23.3c.05,0,.08,0,.1.12s-.09.22-.27.39a.85.85,0,0,1-.57.27,1.23,1.23,0,0,0-.44.1l-.47.19-1.32.75a4.87,4.87,0,0,0-1.21,1,4,4,0,0,1-.29.29,1.66,1.66,0,0,0-.31.39.91.91,0,0,0-.19.42c-.07.22-.12.43-.17.63s-.07.32-.07.36a1.61,1.61,0,0,1-.25.54,1,1,0,0,1-.45.39C677,233,676.82,232.89,676.62,232.69Z"/><path class="cls-4" d="M686.39,237.08a1.39,1.39,0,0,1-1.14-.07,2.63,2.63,0,0,1-1-.88c0-.08-.13-.22-.23-.42a5.4,5.4,0,0,1-.3-.64c-.1-.24-.17-.44-.22-.6s0-.27,0-.29a.41.41,0,0,1,.35-.26,1.64,1.64,0,0,1,.54,0c.18.05.29.11.31.19l.12.28c0,.09.09.18.14.27l.17.22a1.34,1.34,0,0,0,.46.46c.17.08.3.09.39,0a1.59,1.59,0,0,0,.49-.58,10.19,10.19,0,0,0,.44-1.2c.14-.47.26-.88.37-1.23a10,10,0,0,1,.33-1,1.34,1.34,0,0,1,.14-.4.83.83,0,0,1,.17-.24H688a4.86,4.86,0,0,0-.71.54,3,3,0,0,1-.8.49c-.07.09-.27.14-.57.16a2.37,2.37,0,0,1-.88-.11,1.92,1.92,0,0,1-.43-.32,1.26,1.26,0,0,1-.27-.37,4.21,4.21,0,0,1-.23-.51,1.81,1.81,0,0,1,0-.94,6.45,6.45,0,0,1,.35-1.32,5.72,5.72,0,0,1,.68-1,7.74,7.74,0,0,1,.95-1,2.48,2.48,0,0,1,.91-.57,3.27,3.27,0,0,1,.54-.18,1.21,1.21,0,0,1,.73,0,1.25,1.25,0,0,1,.51.14,6.37,6.37,0,0,1,.56.44c.17.16.37.38.62.64a2.22,2.22,0,0,1,.46.67,1,1,0,0,1,.06.63,1.45,1.45,0,0,1-.27.59c-.12.17-.24.34-.37.5a1.82,1.82,0,0,0-.29.7,7,7,0,0,1-.37,1.31,11.85,11.85,0,0,0-.42,1.34l-.31,1.2a7.29,7.29,0,0,1-1.07,2.39A3.67,3.67,0,0,1,686.39,237.08Zm-.41-6.66a4,4,0,0,0,.67-.08,1.27,1.27,0,0,0,.53-.31,4.58,4.58,0,0,0,.58-.75,3.43,3.43,0,0,0,.46-.85,1.9,1.9,0,0,0,.1-.87.49.49,0,0,0-.17-.41.66.66,0,0,0-.41-.06,1.42,1.42,0,0,0-.66.3,4.86,4.86,0,0,0-.67.75,3.41,3.41,0,0,0-.49.93,2.38,2.38,0,0,0-.16.93C685.78,230.23,685.85,230.37,686,230.42Z"/><path class="cls-4" d="M692.11,237.23a4,4,0,0,1-1.33.05,2.92,2.92,0,0,1-1.08-.34,1.08,1.08,0,0,1-.53-.56.63.63,0,0,1,.12-.66,1,1,0,0,1,.55-.25c.21,0,.35,0,.42.08l.49.29a1.22,1.22,0,0,0,.84.1,1.66,1.66,0,0,0,.79-.43,4.51,4.51,0,0,0,.62-.7c.11-.15.28-.43.53-.83s.5-.84.76-1.32.49-.93.67-1.35c0-.1.08-.22.13-.37a1.22,1.22,0,0,1,.2-.34l.2-.44c.06-.13.09-.23.11-.28a2.09,2.09,0,0,1,.17-.39c.1-.19.2-.38.29-.58s.16-.47.29-.85a5.88,5.88,0,0,1,.39-.91l.38-.72a.6.6,0,0,1,.32-.34.53.53,0,0,1,.32-.14.76.76,0,0,1,.37.12,2.93,2.93,0,0,1,.38.45.8.8,0,0,1,.11.54,2.34,2.34,0,0,1-.31.87,8.6,8.6,0,0,1-.34.84,4.25,4.25,0,0,1-.28.49c-.07.16-.14.33-.23.51l-.22.52c-.23.51-.43.93-.6,1.25s-.32.62-.44.89-.27.59-.41.95l-.86,1.37a13.91,13.91,0,0,1-.88,1.21l-.55.45a9,9,0,0,1-.74.52A2.13,2.13,0,0,1,692.11,237.23Zm2.42-4.37a1.17,1.17,0,0,1-.63-.39,3.84,3.84,0,0,1-.56-.73q-.23-.39-.18-.54V231c-.08,0-.14-.11-.18-.34a5.52,5.52,0,0,1-.1-.86c0-.35,0-.71,0-1.08s0-.72,0-1A3.2,3.2,0,0,0,693,227c0-.27,0-.47,0-.63a.72.72,0,0,1,.13-.5,1.23,1.23,0,0,1,.22-.25.72.72,0,0,1,1,.32,4.15,4.15,0,0,1,.23,2c0,.51,0,1,0,1.48a4.73,4.73,0,0,0,.14,1.21,1.16,1.16,0,0,0,.46.71c.09,0,.12.16.1.33a2,2,0,0,1-.18.53,2.55,2.55,0,0,1-.3.49C694.7,232.81,694.61,232.87,694.53,232.86Z"/><path class="cls-5" d="M593.68,199.77a1,1,0,0,0-.13-.17,8.51,8.51,0,0,1-4.71,5.4.86.86,0,0,1-1.26-.29c-.28-.48-.18-.87.32-1.27a7.29,7.29,0,0,0,1.31-1.29,18.64,18.64,0,0,1-6.39,1.76c.54.25.64.62.49,1.39a11.89,11.89,0,0,1-1.58,4.27,1.66,1.66,0,0,1-2.71.29,1.61,1.61,0,0,1,0-2.58,12.73,12.73,0,0,0,2.43-2.92.73.73,0,0,1,.25-.3l-1.25.12c-1,.1-1.73-.32-1.8-1.31a1.36,1.36,0,0,1,1.51-1.64l2.33-.07v-1.27h-2.41a.84.84,0,0,1-.91-.91.88.88,0,0,1,.91-1h2.41v-.89c0-.82.67-1.39,1.88-1.39a2.76,2.76,0,0,1,.67.07c0-.19,0-.42,0-.67v-1.19h-1.29a5,5,0,0,1-4.22,4,.89.89,0,0,1-1.14-.57q-.23-.74.6-1.14a2.78,2.78,0,0,0,1.91-2.26h-1A.84.84,0,0,1,579,193a.83.83,0,0,1,.94-.92h2.73v-1.16h-2.09a.92.92,0,0,1,0-1.84h2.09v-.66c0-.95.69-1.47,1.91-1.47s1.86.52,1.86,1.47v.66h2a.92.92,0,0,1,0,1.84h-2v1.16h2.48a.93.93,0,1,1,0,1.86h-1v.58c0,.24,0,.44.38.44a5,5,0,0,0,.64-.07.86.86,0,0,1,1,.59,1.05,1.05,0,0,1-.55,1.41,6,6,0,0,1-2.53.3,2.84,2.84,0,0,1-.54-.05V198h2.38a.89.89,0,0,1,.92,1,.84.84,0,0,1-.92.91h-2.38v1c.86-.1,1.71-.23,2.53-.37a.79.79,0,0,1,1,.59.23.23,0,0,1,0,.12,11.52,11.52,0,0,0,1.24-4.68c-.35-.4-.7-.82-1-1.24a.84.84,0,0,1-.08-1.14c.25-.35.65-.37,1.09-.13l.18.1c0-.34,0-.72,0-1.09h-.57a1,1,0,1,1,0-2h.6v-2.43a1.66,1.66,0,0,1,3.32,0V191h2.11a1.47,1.47,0,0,1,1.61,1.66c0,4.17-.05,7.91.47,8,.3.08.25-.57.3-2.5,0-.64.37-.92.84-.92s.79.28.89.87c.89,5.53-.74,6.65-2.38,6.17-1.36-.39-2.18-1.56-2.63-4.19l0,0C595.14,200.81,594.3,200.71,593.68,199.77Zm-5,8.13c.5,1.19.1,2-1.09,2.29a1.52,1.52,0,0,1-2.06-1.52,26.34,26.34,0,0,0-.52-3.47.93.93,0,0,1,.6-1.19,1,1,0,0,1,1.21.5A17.34,17.34,0,0,1,588.64,207.9Zm5.73-.22c.6,1.22.25,2-.89,2.38a1.54,1.54,0,0,1-2.21-1.36,24.48,24.48,0,0,0-.79-3.6c-.18-.57-.05-1,.44-1.21a1,1,0,0,1,1.29.34A16.18,16.18,0,0,1,594.37,207.68Zm1.19-10.16c-.07-1.2-.1-2.58-.1-4.2a.28.28,0,0,0-.3-.32h-.59c-.05,1.19-.13,2.26-.27,3.25A16.78,16.78,0,0,1,595.56,197.52Zm4.44,9.94a1.61,1.61,0,0,1-.72,2.6,1.63,1.63,0,0,1-2.43-1.26c-.32-1.14-.77-2.48-1.14-3.52a1,1,0,0,1,.35-1.29,1,1,0,0,1,1.31.19A13.89,13.89,0,0,1,600,207.46Z"/><path class="cls-5" d="M615.94,193.45a1.46,1.46,0,0,1-.7,2.28c-1,.45-1.63.1-2-1.07l-.15-.44a24.35,24.35,0,0,1-6.47,1.68,1.48,1.48,0,0,1-1.91-1.46c-.08-1,.42-1.69,1.68-1.69h.13a41.06,41.06,0,0,0,1.34-4.24,1.73,1.73,0,0,1,2.43-1.43c1.19.29,1.51,1.19,1,2.35a15.92,15.92,0,0,1-2,3.25c1.09-.07,2.18-.15,3.22-.3-.12-.37-.27-.74-.42-1.11a.84.84,0,0,1,.35-1.19,1,1,0,0,1,1.24.22A12.05,12.05,0,0,1,615.94,193.45Zm-.55,4.51v9.4c0,2.43-2.08,3.2-4.83,2.26-.65-.23-.92-.65-.79-1.17s.44-.69,1-.64c1,.07,1.14-.13,1.14-1v-1.76h-2.73v3.57c0,1-.62,1.52-1.76,1.52s-1.76-.52-1.76-1.52V198a1.45,1.45,0,0,1,1.62-1.61h6.49A1.45,1.45,0,0,1,615.39,198Zm-6.2.67v1.17h2.73v-1.17a.29.29,0,0,0-.3-.3h-2.13A.29.29,0,0,0,609.19,198.63Zm2.73,4.54v-1.49h-2.73v1.49Zm4.61-8.56v-6c0-1,.62-1.51,1.76-1.51s1.77.52,1.77,1.51v2a20.2,20.2,0,0,0,2.52-1.89,1.62,1.62,0,0,1,2.56,0c.72.89.57,1.78-.6,2.48a15.53,15.53,0,0,1-4.48,1.66v.84c0,.82.19,1,1,1.07a21.36,21.36,0,0,0,2.53,0c.77,0,1-.35,1-1.74,0-.59.32-.87.77-.87a.85.85,0,0,1,.92.82c.62,3.1.22,4.84-2.08,5a37.48,37.48,0,0,1-4.24,0C617.23,197.81,616.53,197.42,616.53,194.61Zm8.06,15.23c-1.34.07-3.15.07-4.56,0-2.68-.15-3.5-.55-3.5-3.35v-6.35c0-1,.62-1.51,1.76-1.51s1.77.52,1.77,1.51v1.62a20.91,20.91,0,0,0,2.77-2.14,1.58,1.58,0,0,1,2.51,0,1.5,1.5,0,0,1-.48,2.5,16.85,16.85,0,0,1-4.8,1.91v1.37c0,.81.19,1,1,1.06a29,29,0,0,0,3,0c.8-.05,1-.4,1-2.08,0-.62.32-.89.82-.89s.84.27,1,.91C627.44,207.88,627,209.71,624.59,209.84Z"/><path class="cls-5" d="M639.94,201.46l0-.67a4.32,4.32,0,0,1,1.07-2.9l.82-1a3.91,3.91,0,0,0,1.19-2.61,1.66,1.66,0,0,0-1.66-1.63,3.87,3.87,0,0,0-2.31.94,1.66,1.66,0,0,1-2.23-2.46,6.84,6.84,0,0,1,4.73-1.91c3.6-.1,5.68,1.89,5.76,4.34a6.19,6.19,0,0,1-2.26,4.81l-.45.4a2.56,2.56,0,0,0-1.16,2.13l0,.47c.05.95-.49,1.44-1.68,1.49S640,202.4,639.94,201.46Zm-.8,5.18a2.43,2.43,0,1,1,2.46,2.41A2.46,2.46,0,0,1,639.14,206.64Z"/><path class="cls-4" d="M564.75,303c0,.12-.22.19-.52.19a1.27,1.27,0,0,1-.77-.25,1.71,1.71,0,0,1-.3-.36c0-.08,0-.23.07-.43l.46-1.05a4.31,4.31,0,0,1,.27-.94l.29-.67c0-.18.16-.48.32-.9s.35-.88.56-1.4l.61-1.46c.19-.46.34-.8.43-1,.22-.51.44-1,.67-1.62s.55-1.28.95-2.15a.42.42,0,0,0-.06-.4.49.49,0,0,0-.46-.22.72.72,0,0,1-.21-.45.3.3,0,0,1,.19-.34l1.78-.6a6.15,6.15,0,0,1,1.87-.13,4.8,4.8,0,0,1,1.81.54,3.93,3.93,0,0,1,1.35,1.2,2.78,2.78,0,0,1,.47,1.32,2.64,2.64,0,0,1-.16,1.21,2.9,2.9,0,0,1-.59.89,10.48,10.48,0,0,1-1,1,12.46,12.46,0,0,1-1.18.88,6.71,6.71,0,0,1-1.13.61c-.32.15-.68.31-1.08.47s-.79.3-1.16.42a3.21,3.21,0,0,1-.74.07,2.09,2.09,0,0,1-.64-.07l-.33.62c-.12.46-.35,1.15-.66,2.07S565.17,301.86,564.75,303Zm7.69.36a1.48,1.48,0,0,1-.52,0,1.59,1.59,0,0,1-.8-.31,11.44,11.44,0,0,1-1.7-1.22,17.45,17.45,0,0,1-1.92-1.93,4,4,0,0,1-.61-1c-.13-.32-.3-.73-.51-1.22l-.27-1,.73-.49.85.7a9.8,9.8,0,0,0,.73,1.3,11.68,11.68,0,0,0,.84,1.1,13.5,13.5,0,0,0,1,1c.4.38.83.74,1.28,1.09a7.07,7.07,0,0,0,1.22.79.4.4,0,0,1,.06.38,2.31,2.31,0,0,1-.15.53Q572.51,303.31,572.44,303.32Zm-4.88-7.58a4.1,4.1,0,0,0,1-.24l1.13-.46c.37-.18.74-.38,1.11-.59a7.52,7.52,0,0,0,1-.7,3.24,3.24,0,0,0,.71-.84,1.57,1.57,0,0,0,.23-.94,1.37,1.37,0,0,0-.16-.57,2.39,2.39,0,0,0-.4-.56,1.33,1.33,0,0,0-.49-.33,11.58,11.58,0,0,0-1.18-.23.83.83,0,0,0-.59.12,1,1,0,0,0-.28.54,1.6,1.6,0,0,1-.15.37c-.11.2-.23.46-.38.78s-.3.66-.44,1l-.82,1.67a5.76,5.76,0,0,0-.31.71A.26.26,0,0,0,567.56,295.74Z"/><path class="cls-4" d="M575.36,301.39a.8.8,0,0,0-.34-.31c-.18-.1-.26-.18-.26-.23a.63.63,0,0,0-.09-.25,1.09,1.09,0,0,0-.16-.24c-.07-.07,0-.26,0-.57s.26-.67.47-1.11.43-.88.67-1.34a1.68,1.68,0,0,0,.31-.4,1.75,1.75,0,0,1,.24-.33.24.24,0,0,1,.06-.15.16.16,0,0,1,.13-.06l.16-.31a1.4,1.4,0,0,1,.24-.31c.13-.16.3-.33.49-.52l.59-.53a4.17,4.17,0,0,1,.49-.37,1.45,1.45,0,0,1,.85-.25,1.33,1.33,0,0,1,.74.27l.26.24.47.38.45.39.72.64-.33,1a2.74,2.74,0,0,0-.14,1.35,3.26,3.26,0,0,0,.37,1,.7.7,0,0,0,.26.32,1,1,0,0,0,.44.16.56.56,0,0,1,.29.12.34.34,0,0,1,.13.31,1,1,0,0,1-.16.66.64.64,0,0,1-.36.25,2.64,2.64,0,0,1-1.22-.14,2.11,2.11,0,0,1-1-1.1,2.64,2.64,0,0,1-.21-.44,3.24,3.24,0,0,1-.14-.41l-.21.24-.24.26A8.11,8.11,0,0,1,577,301.4,1.67,1.67,0,0,1,575.36,301.39Zm1.49-1.75a7.62,7.62,0,0,0,.77-.55l1.08-.93a5,5,0,0,0,.84-1l.42-.7a1.72,1.72,0,0,0-.35-.58.45.45,0,0,0-.31-.13,1,1,0,0,0-.6.32,6.22,6.22,0,0,0-.78.92c-.29.41-.62.92-1,1.52a7.63,7.63,0,0,0-.52,1.22A.74.74,0,0,0,576.85,299.64Z"/><path class="cls-4" d="M589.79,302.16a.57.57,0,0,1-.49-.12,1.12,1.12,0,0,1-.34-.4,2.33,2.33,0,0,1-.15-.59c0-.19,0-.4,0-.65l0-.66-.8.72a4.75,4.75,0,0,1-1.23.88,2.56,2.56,0,0,1-1,.26,1.19,1.19,0,0,1-.51-.28,4,4,0,0,1-.55-.54,3,3,0,0,1-.33-.49,1.6,1.6,0,0,1-.07-.76,5.21,5.21,0,0,1,.23-1.06,8.62,8.62,0,0,1,.46-1.15,4.61,4.61,0,0,1,.65-1,2.69,2.69,0,0,1,1.59-1.21,2.23,2.23,0,0,1,1.68.16.88.88,0,0,0,.51.14.29.29,0,0,0,.19-.25c.05-.21.11-.4.17-.58s.16-.46.27-.82c.33-1,.61-1.74.85-2.3s.45-1,.64-1.45a2,2,0,0,1,.43-.62.46.46,0,0,1,.37-.15,1.3,1.3,0,0,1,.53.15.8.8,0,0,1,.42.43.74.74,0,0,1,.06.36,1,1,0,0,1-.12.41c-.17.31-.37.72-.59,1.23s-.45,1.07-.68,1.67-.44,1.21-.63,1.8-.35,1.12-.48,1.57a6.93,6.93,0,0,0-.19,1.08q-.06.66-.09,1.35c0,.46,0,.86,0,1.22a3.44,3.44,0,0,0,.06.68.81.81,0,0,1,0,.58.57.57,0,0,1-.33.26A1.74,1.74,0,0,1,589.79,302.16Zm-3.19-2.34a2.14,2.14,0,0,0,.48-.23l.5-.35a5.28,5.28,0,0,0,.85-.77,2.52,2.52,0,0,0,.41-.82.67.67,0,0,0,0-.5,1.23,1.23,0,0,0-.3-.41.74.74,0,0,0-.54-.14,1.37,1.37,0,0,0-.75.42,4.24,4.24,0,0,0-.8,1,5.36,5.36,0,0,0-.54,1.61.22.22,0,0,0,.14.27A.78.78,0,0,0,586.6,299.82Z"/><path class="cls-4" d="M593.29,301.47a.94.94,0,0,1-.22-.47,2.1,2.1,0,0,1-.05-.61,1.15,1.15,0,0,1,.1-.45.44.44,0,0,1,0-.25.23.23,0,0,0,0-.16.58.58,0,0,1,0-.27l.12-.37c.09-.2.19-.47.31-.8s.23-.66.35-1l.29-.89c.08-.25.12-.4.13-.45s.11-.24.31-.25.35,0,.56.19a2.39,2.39,0,0,1,.53.58.44.44,0,0,1,.11.41,2.9,2.9,0,0,1-.25.71,4.14,4.14,0,0,0-.18.52,5.69,5.69,0,0,0-.15.59,4.35,4.35,0,0,0-.18.43l-.19.53a2.26,2.26,0,0,0-.07.36c0,.17-.06.35-.1.53a1.52,1.52,0,0,1-.15.43c-.12.53-.32.84-.61.93A.7.7,0,0,1,593.29,301.47Zm2.09-7.76a1.05,1.05,0,0,1-.32-.38,1,1,0,0,1-.11-.4q0-.17,0-.21a2,2,0,0,0,.33-.56,6.36,6.36,0,0,1,.32-.64l.11-.16a.21.21,0,0,1,.15-.13.66.66,0,0,1,.64,0,1.31,1.31,0,0,1,.61.48,1.26,1.26,0,0,1,.11.76,1.76,1.76,0,0,1-.42.81,1.25,1.25,0,0,1-.73.49A.86.86,0,0,1,595.38,293.71Z"/><path class="cls-4" d="M598.46,301.39a.8.8,0,0,0-.34-.31c-.17-.1-.26-.18-.26-.23a.63.63,0,0,0-.09-.25,1.09,1.09,0,0,0-.16-.24c-.07-.07-.05-.26,0-.57s.26-.67.47-1.11.43-.88.68-1.34a2.43,2.43,0,0,0,.31-.4,1.85,1.85,0,0,1,.23-.33.24.24,0,0,1,.06-.15.16.16,0,0,1,.13-.06l.16-.31a1.4,1.4,0,0,1,.24-.31c.13-.16.3-.33.49-.52l.59-.53a4.13,4.13,0,0,1,.5-.37,1.4,1.4,0,0,1,.84-.25,1.3,1.3,0,0,1,.74.27l.26.24.47.38.45.39.72.64-.33,1a2.74,2.74,0,0,0-.14,1.35,3.26,3.26,0,0,0,.37,1,.77.77,0,0,0,.26.32,1,1,0,0,0,.44.16.56.56,0,0,1,.29.12.34.34,0,0,1,.13.31,1,1,0,0,1-.16.66.64.64,0,0,1-.36.25,2.65,2.65,0,0,1-1.22-.14,2.15,2.15,0,0,1-1-1.1,3.82,3.82,0,0,1-.21-.44,3.24,3.24,0,0,1-.14-.41l-.2.24-.25.26a8.11,8.11,0,0,1-2.35,1.81A1.67,1.67,0,0,1,598.46,301.39Zm1.49-1.75a7.62,7.62,0,0,0,.77-.55l1.09-.93a5.32,5.32,0,0,0,.83-1l.42-.7a1.93,1.93,0,0,0-.34-.58.49.49,0,0,0-.31-.13.93.93,0,0,0-.6.32,5.66,5.66,0,0,0-.79.92c-.29.41-.61.92-1,1.52a6.73,6.73,0,0,0-.53,1.22A.74.74,0,0,0,600,299.64Z"/><path class="cls-4" d="M614.23,301.33a2.16,2.16,0,0,1-.71-.18,1,1,0,0,1-.45-.59,2.36,2.36,0,0,1-.07-.65c0-.23,0-.45,0-.66s0-.4,0-.55v-.37a.55.55,0,0,0-.15-.36.47.47,0,0,0-.36,0,6.67,6.67,0,0,0-.88.52c-.31.21-.64.45-1,.73s-.7.57-1.06.88a8.5,8.5,0,0,0-.63.76.54.54,0,0,1-.41.29.33.33,0,0,1-.33,0l-.37-.27-.32-.4a2.3,2.3,0,0,1-.22-.32,3.15,3.15,0,0,1,0-.56,2.74,2.74,0,0,1,.15-.52c.07-.18.16-.39.26-.62s.1-.19.15-.28a3.18,3.18,0,0,1,.16-.32,4.92,4.92,0,0,1,.23-.62c.09-.23.19-.45.28-.66a9.11,9.11,0,0,0,.32-.87,6.08,6.08,0,0,0,.2-.79.14.14,0,0,1,0-.12.18.18,0,0,1,.11-.1h0a.78.78,0,0,1,.51,0,1.25,1.25,0,0,1,.58.23,1.06,1.06,0,0,1,.38.91,3.21,3.21,0,0,1-.58,1.47c-.09.2-.18.39-.28.57a.83.83,0,0,0-.14.36l.52-.4a2.86,2.86,0,0,1,.37-.26,3.39,3.39,0,0,1,.42-.36l.72-.55c.26-.2.46-.34.62-.45a4.06,4.06,0,0,1,.54-.32,1.32,1.32,0,0,1,.41-.16,1,1,0,0,1,.47.14,3,3,0,0,1,.52.31.72.72,0,0,1,.28.34.9.9,0,0,1,0,.21,1.8,1.8,0,0,0,0,.22c0,.21,0,.45,0,.74s0,.58,0,.87a3.81,3.81,0,0,1-.07.79.54.54,0,0,1,0,.11.23.23,0,0,0,0,.12l.09.27c0,.09.08.19.13.3s.11.25.17.42a.74.74,0,0,1-.28.49A1.14,1.14,0,0,1,614.23,301.33Z"/><path class="cls-4" d="M618.62,301.81a.91.91,0,0,1-.46-.26,3.14,3.14,0,0,1-.46-.5,2.11,2.11,0,0,1-.26-.47s0-.08-.1-.16-.08-.21-.08-.51a7.46,7.46,0,0,1,0-1,6.41,6.41,0,0,1,.13-.89c.06-.2.16-.48.29-.84s.24-.67.33-1l.52-1.12-.77-.21a.4.4,0,0,1-.22-.16.32.32,0,0,1-.09-.19,1.11,1.11,0,0,1,.17-.45c.12-.19.2-.29.25-.29a1.63,1.63,0,0,0,.36,0,4.18,4.18,0,0,0,.51,0l.31,0a.91.91,0,0,0,.16-.11.48.48,0,0,0,.12-.2,1.62,1.62,0,0,1,.17-.33l.21-.35c.09-.17.17-.31.22-.43s.16-.27.29-.48l.21-.33a1.15,1.15,0,0,1,.29-.33,1.09,1.09,0,0,1,.57-.22.79.79,0,0,1,.69.18.72.72,0,0,1,.17.37.81.81,0,0,1-.15.45,4.87,4.87,0,0,1-.36.59,3.74,3.74,0,0,0-.38.59c-.21.28-.24.44-.12.48a3.75,3.75,0,0,0,1.09-.08,1,1,0,0,1,.81.12.81.81,0,0,1,.29.54c0,.31,0,.5-.1.56a2.15,2.15,0,0,1-.89.1,5.13,5.13,0,0,1-.79.08h-.48l-.33,0-.23,0a.42.42,0,0,0-.23.13,2.21,2.21,0,0,0-.14.24,1.73,1.73,0,0,0-.23.41c-.11.22-.24.45-.39.71-.18.54-.33,1.06-.46,1.56s-.22,1-.32,1.48a1,1,0,0,0,0,.53c.06.11.23.18.5.21s.35,0,.62,0a3.46,3.46,0,0,0,.67-.11l.45-.2c.15-.08.3-.15.42-.23a5.51,5.51,0,0,0,.53-.31c.06-.1.15-.08.28.05a1.25,1.25,0,0,1,.26.44,1.79,1.79,0,0,1-.1.55c-.06.21-.3.43-.71.67a4.32,4.32,0,0,1-1.75.65A4.23,4.23,0,0,1,618.62,301.81Z"/><path class="cls-4" d="M633,302.55a2.45,2.45,0,0,1-1.2-.44l-1.11-.74a2.78,2.78,0,0,1-.5-.71,4.77,4.77,0,0,1-.29-1,3.11,3.11,0,0,1,0-1,9,9,0,0,1,.25-1.21,8.53,8.53,0,0,1,.33-1,12.86,12.86,0,0,1,.59-1.17q.36-.63.72-1.2l.57-.92c.09-.09.13-.14.11-.15a1.7,1.7,0,0,1,.21-.5c.13-.26.25-.5.36-.7a1.2,1.2,0,0,0,.32-.5.35.35,0,0,0-.05-.31c0-.06,0-.17.16-.33a5.07,5.07,0,0,1,.57-.57,5.19,5.19,0,0,1,.81-.58,1.68,1.68,0,0,1,.9-.39c.29,0,.47,0,.52.18s.07.05.22,0a4.64,4.64,0,0,0,.52-.1l.53-.1A.87.87,0,0,1,638,289l.84-.12h.56l.79-.05c.09,0,.23,0,.4.16a1.43,1.43,0,0,1,.42.56.46.46,0,0,1-.24.59,2.57,2.57,0,0,1-1.16.35l-.9.13-.67.11c-.24.05-.59.12-1,.23l-.81.15a1.33,1.33,0,0,0-.57.24,2.25,2.25,0,0,0-.53.61,1.69,1.69,0,0,0-.35.51l-.43.81-.8,1.11c-.17.24-.24.39-.18.46l.61.11a1.52,1.52,0,0,1,.48-.13c.19,0,.34-.05.45-.08l1.77-.45.82-.21a2.55,2.55,0,0,1,.43-.07.38.38,0,0,1,.55,0,1.45,1.45,0,0,1,.4.57.69.69,0,0,1,0,.6,1,1,0,0,1-.59.35c-.3.09-.73.2-1.29.32s-1.25.3-2.09.53a9.3,9.3,0,0,1-1.72.37c-.44,0-.64-.07-.62-.33q-.13-.08-.3.15a2.31,2.31,0,0,0-.3.61,8.2,8.2,0,0,0-.24.83,4.37,4.37,0,0,0-.12.83,1.5,1.5,0,0,0,.05.6,2,2,0,0,0,.5.77,2.41,2.41,0,0,0,1,.51c.26,0,.51,0,.76.06a1.79,1.79,0,0,0,.83-.16,7.07,7.07,0,0,0,1.59-.4,4.15,4.15,0,0,0,.54-.3.49.49,0,0,0,.2-.15.16.16,0,0,1,.15-.08c0,.07,0,.07,0,0l.3-.27a1.84,1.84,0,0,1,.82-.42,1.52,1.52,0,0,1,.67,0c.18,0,.28.1.29.16s0,.33-.11.61a4,4,0,0,1-.71.88,5,5,0,0,1-1.11.83,7.89,7.89,0,0,1-2.22.77A13.05,13.05,0,0,1,633,302.55Z"/><path class="cls-4" d="M648.2,301.33a2.1,2.1,0,0,1-.7-.18,1.11,1.11,0,0,1-.46-.59,2.35,2.35,0,0,1-.06-.65c0-.23,0-.45,0-.66a3.94,3.94,0,0,0,0-.55v-.37a.51.51,0,0,0-.14-.36.47.47,0,0,0-.36,0,6.09,6.09,0,0,0-.88.52,11.34,11.34,0,0,0-1,.73l-1.05.88a6,6,0,0,0-.63.76.57.57,0,0,1-.42.29.34.34,0,0,1-.33,0l-.36-.27-.32-.4a2.81,2.81,0,0,1-.23-.32,3.15,3.15,0,0,1,0-.56,3.84,3.84,0,0,1,.16-.52c.07-.18.16-.39.26-.62l.14-.28a3.37,3.37,0,0,1,.17-.32,4.73,4.73,0,0,1,.22-.62l.28-.66q.21-.51.33-.87a6.09,6.09,0,0,0,.19-.79.19.19,0,0,1,0-.12.23.23,0,0,1,.12-.1h0a.78.78,0,0,1,.51,0,1.26,1.26,0,0,1,.57.23,1.09,1.09,0,0,1,.39.91,3.33,3.33,0,0,1-.58,1.47c-.09.2-.19.39-.28.57a.89.89,0,0,0-.15.36l.53-.4a3.8,3.8,0,0,1,.36-.26,5,5,0,0,1,.43-.36l.71-.55c.26-.2.47-.34.62-.45a4.82,4.82,0,0,1,.54-.32,1.42,1.42,0,0,1,.41-.16,1,1,0,0,1,.47.14,3.07,3.07,0,0,1,.53.31.79.79,0,0,1,.28.34c0,.05,0,.12,0,.21a1.8,1.8,0,0,0,0,.22c0,.21,0,.45,0,.74s0,.58,0,.87a3.77,3.77,0,0,1-.08.79.3.3,0,0,1,.06.11.23.23,0,0,0,0,.12c0,.09,0,.18.09.27a3.11,3.11,0,0,0,.12.3l.18.42a.83.83,0,0,1-.28.49A1.22,1.22,0,0,1,648.2,301.33Z"/><path class="cls-4" d="M655.15,301.41a2.88,2.88,0,0,1-1.23.37,2.59,2.59,0,0,1-1.21-.17,2.13,2.13,0,0,1-.91-.67,2.42,2.42,0,0,1-.36-.8,3.56,3.56,0,0,1-.06-1.5,5.8,5.8,0,0,1,.55-1.8,6.74,6.74,0,0,1,1.07-1.61,3.28,3.28,0,0,1,1.4-.94,2.64,2.64,0,0,1,.55-.15,3.48,3.48,0,0,1,.74,0,2.94,2.94,0,0,1,.79.22,1.34,1.34,0,0,1,.51.36,1.84,1.84,0,0,1,.41.6,1.6,1.6,0,0,1,.07.56,3.53,3.53,0,0,1-.55,1.34,2.66,2.66,0,0,1-2,1.24,5,5,0,0,1-1.22-.12c-.31-.06-.51,0-.61.1a1.2,1.2,0,0,0-.12.75,1.82,1.82,0,0,0,.16.61.66.66,0,0,0,.47.36,1.52,1.52,0,0,0,.64,0l.49-.2.3-.22.29-.23a1.36,1.36,0,0,1,.24-.17.44.44,0,0,1,.19-.1l.19,0a.62.62,0,0,1,.41.23,1.16,1.16,0,0,1,.25.41.83.83,0,0,1-.19.43,3.75,3.75,0,0,1-.51.59A4.68,4.68,0,0,1,655.15,301.41Zm-.25-4.32a2.29,2.29,0,0,0,.4-.27,4,4,0,0,0,.47-.45A.69.69,0,0,0,656,296c0-.14-.09-.26-.28-.37a1.06,1.06,0,0,0-.72-.06,1,1,0,0,0-.37.22,5.06,5.06,0,0,0-.43.39,4.32,4.32,0,0,0-.36.43,1.68,1.68,0,0,0-.22.32.63.63,0,0,0,.31.15,2.1,2.1,0,0,0,.51.06A2.21,2.21,0,0,0,654.9,297.09Z"/><path class="cls-4" d="M659.21,301.27a2.88,2.88,0,0,1-.37-.35.66.66,0,0,1-.15-.6,6.93,6.93,0,0,1,.16-.95c.06-.28.14-.6.23-1a6.38,6.38,0,0,1,.2-.8c.11-.37.24-.78.4-1.21s.31-.86.48-1.25a5.31,5.31,0,0,1,.45-.88.89.89,0,0,1,.62-.2.86.86,0,0,1,.58.16.62.62,0,0,1,.13.61,5.36,5.36,0,0,1-.54,1.34c-.07.16-.15.32-.24.5a2.7,2.7,0,0,0-.21.42c0,.11,0,.16,0,.15a2.17,2.17,0,0,1,.43-.5c.21-.18.42-.37.66-.55s.45-.34.65-.48.35-.23.43-.27a1.5,1.5,0,0,1,.36-.17l.28-.1a1.89,1.89,0,0,1,1-.17c.35,0,.57.15.64.34a.51.51,0,0,0,.24.31q.08,0,.09.12c0,.09-.08.22-.26.38a.85.85,0,0,1-.57.27,1.78,1.78,0,0,0-.44.1l-.47.2-1.32.75a4.66,4.66,0,0,0-1.21,1l-.29.29a1.54,1.54,0,0,0-.31.38,1.14,1.14,0,0,0-.2.43c-.06.22-.12.43-.16.63a2.14,2.14,0,0,0-.07.36,2,2,0,0,1-.25.54,1.07,1.07,0,0,1-.45.38C659.6,301.56,659.42,301.48,659.21,301.27Z"/><path class="cls-4" d="M669,305.66a1.36,1.36,0,0,1-1.13-.06,2.63,2.63,0,0,1-1-.88,4.65,4.65,0,0,1-.24-.42c-.1-.2-.2-.42-.3-.65s-.16-.43-.21-.6-.05-.26,0-.29a.4.4,0,0,1,.35-.25,1.24,1.24,0,0,1,.54,0c.18,0,.29.11.31.18l.12.28a1.15,1.15,0,0,0,.14.27,2.29,2.29,0,0,0,.17.23,1.15,1.15,0,0,0,.46.45q.26.14.39,0a1.62,1.62,0,0,0,.49-.59,9.86,9.86,0,0,0,.44-1.19c.14-.48.26-.89.37-1.24s.21-.67.32-1a1.76,1.76,0,0,1,.15-.39,1.09,1.09,0,0,1,.16-.24h.12a5.62,5.62,0,0,0-.72.54,2.54,2.54,0,0,1-.79.48.88.88,0,0,1-.57.17,2.37,2.37,0,0,1-.88-.11,2,2,0,0,1-.44-.32,1.31,1.31,0,0,1-.27-.38c-.07-.14-.14-.31-.22-.5a1.84,1.84,0,0,1,0-.95A6.36,6.36,0,0,1,667,297a5.27,5.27,0,0,1,.68-1.05,8.26,8.26,0,0,1,.94-1,2.3,2.3,0,0,1,.91-.57,2.76,2.76,0,0,1,.55-.19,1.39,1.39,0,0,1,.73,0,1.29,1.29,0,0,1,.5.15,4.59,4.59,0,0,1,.57.43l.62.65a2.29,2.29,0,0,1,.46.67,1,1,0,0,1,.06.63,1.68,1.68,0,0,1-.27.59l-.37.5a1.68,1.68,0,0,0-.29.7,7.74,7.74,0,0,1-.37,1.3c-.18.49-.32.93-.43,1.35l-.3,1.2a7.62,7.62,0,0,1-1.07,2.39A3.76,3.76,0,0,1,669,305.66Zm-.4-6.65a2.92,2.92,0,0,0,.66-.09,1.15,1.15,0,0,0,.54-.31,5,5,0,0,0,.58-.74,3.62,3.62,0,0,0,.46-.85,2.25,2.25,0,0,0,.1-.88.45.45,0,0,0-.18-.4.51.51,0,0,0-.4-.06,1.33,1.33,0,0,0-.66.3,4.87,4.87,0,0,0-.68.75,3.46,3.46,0,0,0-.48.92,2.43,2.43,0,0,0-.16.93C668.37,298.81,668.45,299,668.58,299Z"/><path class="cls-4" d="M674.71,305.82a4,4,0,0,1-1.33.05,2.92,2.92,0,0,1-1.08-.34,1.12,1.12,0,0,1-.53-.56.61.61,0,0,1,.12-.66.93.93,0,0,1,.55-.25c.21,0,.35,0,.41.08l.5.29a1.21,1.21,0,0,0,.84.09,1.56,1.56,0,0,0,.79-.42,5.76,5.76,0,0,0,.62-.7c.1-.15.28-.43.52-.83s.5-.84.77-1.33.48-.93.67-1.34c0-.1.08-.23.13-.37a1.28,1.28,0,0,1,.19-.35c.08-.15.15-.3.21-.43a1.64,1.64,0,0,0,.1-.28,2.59,2.59,0,0,1,.18-.39c.1-.19.2-.39.29-.58s.16-.48.29-.85a5.48,5.48,0,0,1,.39-.91c.15-.3.28-.54.37-.73a.71.71,0,0,1,.32-.34.56.56,0,0,1,.33-.13.89.89,0,0,1,.37.11,3.68,3.68,0,0,1,.38.46.87.87,0,0,1,.11.54,2.37,2.37,0,0,1-.32.86,5.44,5.44,0,0,1-.34.84,2.64,2.64,0,0,1-.28.5c-.06.15-.13.32-.22.51s-.16.36-.22.51q-.35.78-.6,1.26c-.17.32-.32.62-.45.89s-.26.59-.4,1l-.86,1.36a11.41,11.41,0,0,1-.88,1.21c-.13.12-.32.27-.55.46s-.49.36-.74.52A2.13,2.13,0,0,1,674.71,305.82Zm2.42-4.37a1.23,1.23,0,0,1-.63-.39,3.9,3.9,0,0,1-.56-.74.83.83,0,0,1-.18-.54v-.21c-.08,0-.14-.11-.19-.34a5.69,5.69,0,0,1-.09-.86c0-.35,0-.71,0-1.08s0-.72,0-1a2.77,2.77,0,0,0,.08-.73c0-.26,0-.47,0-.62a.75.75,0,0,1,.13-.51,1.21,1.21,0,0,1,.22-.25.72.72,0,0,1,1,.33,4.08,4.08,0,0,1,.24,2c0,.52,0,1,0,1.48a4.72,4.72,0,0,0,.13,1.21,1.16,1.16,0,0,0,.47.72q.13.07.09.33a1.8,1.8,0,0,1-.17.53,2.19,2.19,0,0,1-.3.48C677.3,301.4,677.21,301.46,677.13,301.45Z"/><path class="cls-5" d="M569,260.89v1.34h.92a1.45,1.45,0,0,1,1.61,1.61v5.71a1.45,1.45,0,0,1-1.61,1.61H569v1.39h2a1,1,0,1,1,0,2h-2v2.75c0,1.05-.67,1.62-1.86,1.62s-1.86-.57-1.86-1.62v-2.75H562.9a1,1,0,1,1,0-2h2.35v-1.39h-.91a1.45,1.45,0,0,1-1.62-1.61v-5.71a1.45,1.45,0,0,1,1.62-1.61h.91v-1.34H563a1,1,0,0,1,0-2h2.23v-1.49c0-1,.67-1.61,1.86-1.61s1.86.57,1.86,1.61v1.49h2.09a1,1,0,0,1,0,2Zm-3,3.25h-.42a.29.29,0,0,0-.3.3v1.31H566Zm0,3.45h-.72v1.31a.29.29,0,0,0,.3.3H566Zm3-3.15a.29.29,0,0,0-.3-.3h-.42v1.61H569Zm0,3.15h-.72v1.61h.42a.28.28,0,0,0,.3-.3Zm3.13-9.45a.87.87,0,0,1,1-1h9.25a1,1,0,0,1,0,1.94h-9.25A.87.87,0,0,1,572.1,258.14Zm11.13,10.79v8.55c0,.89-.57,1.39-1.64,1.39s-1.63-.5-1.63-1.39v-.27h-4.54v.3c0,.89-.57,1.39-1.64,1.39s-1.63-.5-1.63-1.39v-8.58a1.45,1.45,0,0,1,1.61-1.61h7.86A1.45,1.45,0,0,1,583.23,268.93Zm-.89-7.17v2.9a1.45,1.45,0,0,1-1.61,1.61h-6a1.45,1.45,0,0,1-1.61-1.61v-2.9a1.45,1.45,0,0,1,1.61-1.61h6A1.45,1.45,0,0,1,582.34,261.76Zm-6,7.54h-.67a.28.28,0,0,0-.3.3v1.71h1Zm0,3.94h-1v2h1Zm2.8-10.91a.29.29,0,0,0-.3-.3h-2.36a.29.29,0,0,0-.29.3v1.76a.28.28,0,0,0,.29.3h2.36a.29.29,0,0,0,.3-.3Zm-.2,9h1V269.6a.29.29,0,0,0-.3-.3H579Zm1,4v-2h-1v2Z"/><path class="cls-5" d="M610.15,262.6a1,1,0,0,1-1.06,1.1H608v11.82c0,3.05-2.73,4.32-7,2.31a1,1,0,0,1-.59-1.19c.12-.52.5-.72,1.17-.65,2.52.33,2.9.08,2.9-1.06v-4.19c-.08.52-.45.89-1.19,1.09a1.37,1.37,0,0,1-1.86-1.36,22,22,0,0,0-.5-3.1,1.56,1.56,0,0,1-.35.86,20.83,20.83,0,0,1-1.83,2.31v5.53c0,2.65-2.75,3.59-6.1,2.08A1,1,0,0,1,592,277c.1-.52.49-.72,1.14-.67,1.93.15,2.21-.08,2.21-1.32v-1.46a26.28,26.28,0,0,1-6.18,3.32.87.87,0,0,1-1.29-.34.89.89,0,0,1,.47-1.24,24.37,24.37,0,0,0,6.5-4.52,23.72,23.72,0,0,1-4.86,2c-1.12.34-2,0-2.18-1.22s.3-1.78,1.51-1.86a1.23,1.23,0,0,0,.27,0v-9.6a1.45,1.45,0,0,1,1.62-1.61h1.28c.1-.6.18-1.22.28-2,.17-1,.91-1.21,2-1.07a1.26,1.26,0,0,1,1,1.91,9.72,9.72,0,0,1-.64,1.12h2a1.45,1.45,0,0,1,1.61,1.61v6a1.19,1.19,0,0,1,1.51.05,1.48,1.48,0,0,1,.47.5l-.15-.55a.84.84,0,0,1,.5-1.14.88.88,0,0,1,1.16.45,14.34,14.34,0,0,1,2.09,4.34,4.65,4.65,0,0,1,.15.59V263.7h-4.07a1.1,1.1,0,0,1,0-2.19h4.07v-4.43c0-1,.64-1.54,1.78-1.54s1.79.54,1.79,1.54v4.43h1.09A1,1,0,0,1,610.15,262.6ZM595,260.42h-1.84a.29.29,0,0,0-.29.3v1h2.43v-1A.29.29,0,0,0,595,260.42Zm-2.13,4.79h2.43V263.7H592.9Zm0,4a24.9,24.9,0,0,0,2.43-.55v-1.56H592.9Z"/><path class="cls-5" d="M625.23,262a1.48,1.48,0,0,1-.7,2.29c-1,.44-1.64.09-2.06-1.07l-.15-.45a23.88,23.88,0,0,1-6.47,1.69,1.49,1.49,0,0,1-1.91-1.46c-.07-1,.42-1.69,1.69-1.69h.12a40.19,40.19,0,0,0,1.34-4.24,1.74,1.74,0,0,1,2.43-1.44c1.19.3,1.51,1.19,1,2.36a16.2,16.2,0,0,1-2,3.25c1.09-.08,2.18-.15,3.22-.3-.12-.37-.27-.75-.42-1.12a.83.83,0,0,1,.35-1.19,1,1,0,0,1,1.23.23A11.67,11.67,0,0,1,625.23,262Zm-.55,4.52v9.39c0,2.43-2.08,3.2-4.84,2.26-.64-.22-.91-.64-.79-1.16a.83.83,0,0,1,1-.65c1,.08,1.14-.12,1.14-1v-1.76h-2.73v3.57c0,1-.62,1.51-1.76,1.51s-1.76-.52-1.76-1.51V266.55a1.45,1.45,0,0,1,1.61-1.61h6.5A1.45,1.45,0,0,1,624.68,266.55Zm-6.2.67v1.16h2.73v-1.16a.29.29,0,0,0-.3-.3h-2.13A.29.29,0,0,0,618.48,267.22Zm2.73,4.53v-1.48h-2.73v1.48Zm4.61-8.55v-6c0-1,.62-1.51,1.76-1.51s1.76.52,1.76,1.51v2a21.26,21.26,0,0,0,2.53-1.88,1.61,1.61,0,0,1,2.55,0c.72.9.57,1.79-.59,2.48a15.6,15.6,0,0,1-4.49,1.66v.85c0,.82.2,1,1,1.06a21.36,21.36,0,0,0,2.53,0c.77-.05,1-.34,1-1.73,0-.6.32-.87.77-.87s.79.2.92.82c.62,3.1.22,4.83-2.09,5-1.34.07-2.82.07-4.24,0C626.51,266.4,625.82,266,625.82,263.2Zm8.06,15.22a43.34,43.34,0,0,1-4.56,0c-2.68-.14-3.5-.54-3.5-3.34v-6.35c0-1,.62-1.51,1.76-1.51s1.76.52,1.76,1.51v1.61a20.23,20.23,0,0,0,2.78-2.13,1.58,1.58,0,0,1,2.5,0,1.5,1.5,0,0,1-.47,2.51,17,17,0,0,1-4.81,1.91V274c0,.82.2,1,1,1.07a29,29,0,0,0,3,0c.79-.05,1-.4,1-2.09,0-.62.32-.89.81-.89s.85.27,1,.92C636.73,276.47,636.23,278.3,633.88,278.42Z"/><path class="cls-5" d="M649.22,270l0-.67a4.36,4.36,0,0,1,1.06-2.9l.82-1a3.87,3.87,0,0,0,1.19-2.6,1.68,1.68,0,0,0-1.66-1.64,4,4,0,0,0-2.31.94,1.66,1.66,0,0,1-2.23-2.45,6.85,6.85,0,0,1,4.74-1.91c3.59-.1,5.68,1.88,5.75,4.34a6.23,6.23,0,0,1-2.25,4.81l-.45.4a2.54,2.54,0,0,0-1.17,2.13l0,.47c0,.94-.5,1.44-1.69,1.49S649.25,271,649.22,270Zm-.79,5.19a2.43,2.43,0,0,1,4.86,0,2.43,2.43,0,0,1-4.86,0Z"/><path class="cls-6" d="M388.72,160,359.4,234.33a5.12,5.12,0,0,0,4.51,7.31l70.54,2.43a8.7,8.7,0,0,0,8.36-5.72l27.41-76a5.1,5.1,0,0,0-4.77-7l-69.31-.8C392.73,154.56,390.09,156.82,388.72,160Z"/><path class="cls-7" d="M393.78,168,370.16,228.4a2.8,2.8,0,0,0,2.57,4l55.95,1.93a7.21,7.21,0,0,0,6.95-4.56l22.65-60.85a2.8,2.8,0,0,0-2.72-3.79l-56.21-.65A6.05,6.05,0,0,0,393.78,168Z"/><path class="cls-8" d="M438.87,185.76h0L399,185.44a1.51,1.51,0,0,1,0-3h0l39.88.31a1.51,1.51,0,0,1,0,3Z"/><path class="cls-8" d="M429.72,206.76h0l-39.88-.32a1.51,1.51,0,0,1,0-3h0l39.88.31a1.51,1.51,0,0,1,0,3Z"/><path class="cls-8" d="M392.92,225.15a1.52,1.52,0,0,1-.59-.12,1.5,1.5,0,0,1-.8-2l22.2-52.48a1.5,1.5,0,0,1,2-.8,1.52,1.52,0,0,1,.8,2l-22.2,52.48A1.5,1.5,0,0,1,392.92,225.15Z"/><path class="cls-8" d="M413.17,226a1.47,1.47,0,0,1-.54-.1,1.51,1.51,0,0,1-.87-2l20.14-52.55a1.51,1.51,0,1,1,2.81,1.08L414.58,225A1.51,1.51,0,0,1,413.17,226Z"/><path class="cls-6" d="M468.45,162.88l-29.32,74.33a5.12,5.12,0,0,0,4.51,7.31l70.53,2.42a8.7,8.7,0,0,0,8.37-5.72l27.41-76a5.12,5.12,0,0,0-4.78-7l-69.3-.8C472.46,157.43,469.81,159.69,468.45,162.88Z"/><path class="cls-7" d="M473.51,170.83l-23.62,60.45a2.79,2.79,0,0,0,2.57,3.95l55.94,1.93a7.2,7.2,0,0,0,7-4.56L538,171.75a2.79,2.79,0,0,0-2.71-3.79l-56.22-.65A6.06,6.06,0,0,0,473.51,170.83Z"/><path class="cls-8" d="M518.59,188.63h0l-39.88-.31a1.51,1.51,0,0,1,0-3h0l39.89.31a1.51,1.51,0,0,1,0,3Z"/><path class="cls-8" d="M509.44,209.63h0l-39.88-.31a1.51,1.51,0,0,1,0-3h0l39.88.32a1.51,1.51,0,1,1,0,3Z"/><path class="cls-8" d="M472.64,228a1.52,1.52,0,0,1-1.39-2.1l22.2-52.48a1.51,1.51,0,1,1,2.78,1.17L474,227.1A1.5,1.5,0,0,1,472.64,228Z"/><path class="cls-8" d="M492.9,228.85a1.66,1.66,0,0,1-.54-.1,1.51,1.51,0,0,1-.87-1.95l20.13-52.55a1.51,1.51,0,0,1,2.82,1.08l-20.13,52.55A1.52,1.52,0,0,1,492.9,228.85Z"/><path class="cls-6" d="M358.51,239.79l-29.32,74.33a5.12,5.12,0,0,0,4.51,7.31l70.53,2.43a8.72,8.72,0,0,0,8.37-5.73l27.41-76a5.1,5.1,0,0,0-4.78-7l-69.3-.8C362.52,234.34,359.87,236.61,358.51,239.79Z"/><path class="cls-7" d="M363.57,247.75,340,308.19a2.79,2.79,0,0,0,2.57,4l56,1.92a7.21,7.21,0,0,0,6.95-4.55l22.65-60.86a2.79,2.79,0,0,0-2.72-3.78l-56.22-.66A6.07,6.07,0,0,0,363.57,247.75Z"/><path class="cls-8" d="M408.66,265.55h0l-39.88-.32a1.51,1.51,0,0,1,0-3h0l39.88.32a1.51,1.51,0,0,1,0,3Z"/><path class="cls-8" d="M399.5,286.55h0l-39.88-.32a1.51,1.51,0,0,1,0-3h0l39.89.31a1.51,1.51,0,0,1,0,3Z"/><path class="cls-8" d="M362.71,304.94a1.51,1.51,0,0,1-1.39-2.1l22.2-52.48a1.49,1.49,0,0,1,2-.8,1.51,1.51,0,0,1,.81,2L364.1,304A1.53,1.53,0,0,1,362.71,304.94Z"/><path class="cls-8" d="M383,305.76a1.47,1.47,0,0,1-.54-.1,1.51,1.51,0,0,1-.87-2l20.13-52.55a1.51,1.51,0,1,1,2.82,1.08l-20.13,52.55A1.51,1.51,0,0,1,383,305.76Z"/><path class="cls-6" d="M438.23,242.67,408.91,317a5.13,5.13,0,0,0,4.52,7.31L484,326.73a8.7,8.7,0,0,0,8.37-5.72l27.4-76a5.1,5.1,0,0,0-4.77-7l-69.3-.8C442.24,237.22,439.6,239.48,438.23,242.67Z"/><path class="cls-7" d="M443.29,250.62l-23.61,60.45a2.78,2.78,0,0,0,2.56,3.95L478.19,317a7.21,7.21,0,0,0,6.95-4.56l22.65-60.85a2.8,2.8,0,0,0-2.72-3.79l-56.21-.65A6.08,6.08,0,0,0,443.29,250.62Z"/><path class="cls-8" d="M488.38,268.42h0l-39.88-.31a1.51,1.51,0,0,1,0-3h0l39.88.31a1.51,1.51,0,0,1,0,3Z"/><path class="cls-8" d="M479.23,289.42h0l-39.88-.31a1.51,1.51,0,0,1,0-3l39.88.31a1.51,1.51,0,0,1,0,3Z"/><path class="cls-8" d="M442.43,307.81a1.36,1.36,0,0,1-.59-.12,1.51,1.51,0,0,1-.8-2l22.2-52.49a1.51,1.51,0,0,1,2.78,1.18l-22.2,52.48A1.5,1.5,0,0,1,442.43,307.81Z"/><path class="cls-8" d="M462.68,308.64a1.49,1.49,0,0,1-.54-.11,1.5,1.5,0,0,1-.87-1.94L481.41,254a1.51,1.51,0,1,1,2.82,1.08l-20.14,52.56A1.51,1.51,0,0,1,462.68,308.64Z"/></g></svg>