<svg width="400" height="160" viewBox="0 0 400 160" fill="none" xmlns="http://www.w3.org/2000/svg">
<path d="M84.4158 43.1814C84.7458 43.1814 85.0758 43.1264 85.4058 43.1264C87.4958 40.4314 89.4208 37.4614 91.1258 34.4914C89.2008 35.1514 87.2208 35.7564 85.1858 36.1414C83.1508 36.5814 81.6658 35.5914 81.5008 33.5014C81.3358 31.4114 82.3808 30.2014 84.4708 30.3114H84.6908C86.3958 26.0214 87.4958 22.0064 88.2658 18.3764C88.7058 16.1214 90.4658 15.3514 92.5008 15.8464C94.3708 16.2314 95.2508 17.8264 94.6458 19.6964C93.6558 22.6664 91.0708 27.2314 88.7058 30.4214C90.1908 30.4214 91.7308 30.4214 93.2708 30.3664C94.0958 28.7164 94.8108 27.0664 95.4708 25.4714C96.2958 23.3814 98.0008 22.8314 99.8158 23.6014C101.686 24.4264 102.401 26.0764 101.246 28.1114C98.4958 33.1714 94.5358 38.5064 90.1358 42.7964C92.0608 42.5764 94.0408 42.3564 95.8558 42.0814L95.1958 40.0464C94.8658 39.0014 95.1408 38.3414 95.9108 37.9014C96.6808 37.5164 97.3408 37.7364 98.0008 38.5614C99.5958 40.4314 101.026 42.9614 102.126 45.4364C102.841 47.0864 102.236 48.4614 100.531 49.0114C98.8808 49.6164 97.7808 48.9014 97.3408 47.2514C97.1758 46.5364 96.9558 45.8764 96.7908 45.1614C93.1058 46.8664 89.0358 48.2414 85.2958 49.1764C83.1508 49.7264 81.6108 48.7914 81.3358 46.6464C81.0608 44.6114 81.9958 43.2364 84.4158 43.1814ZM129.626 55.0064C131.441 56.4364 131.771 58.3614 130.176 60.0114C128.581 61.6064 126.821 61.3864 125.281 59.5714C123.301 57.2064 120.991 54.7314 118.626 52.4764V61.3864C118.626 67.4914 112.686 69.1964 104.546 65.2914C103.611 64.8514 103.281 64.0814 103.556 63.1464C103.886 62.2114 104.491 61.8264 105.646 61.9914C111.146 62.7064 111.916 62.3764 111.916 59.6264V53.6864C109.991 55.6664 107.681 57.5914 105.316 59.0214C103.446 60.1214 101.851 59.6814 101.026 57.9214C100.201 56.0514 100.971 54.4564 102.841 53.7414C105.811 52.6414 108.781 51.3214 111.916 49.2864V38.6164H101.631C100.366 38.6164 99.7058 37.9014 99.7058 36.6914C99.7058 35.4814 100.366 34.7664 101.631 34.7664H116.041L116.866 31.6314H108.891C108.286 33.5014 106.856 34.2714 104.876 33.7764C103.006 33.3364 102.456 32.1814 103.006 30.3664C104.271 26.4064 105.481 21.3464 106.251 18.0464C106.581 16.3964 108.121 15.7364 109.826 15.9564C111.586 16.2864 112.521 17.4414 112.136 19.0914C112.081 19.2564 112.081 19.4214 112.026 19.5864H118.791C119.561 18.3214 121.101 17.7714 122.861 18.1564C124.786 18.5964 125.776 19.9714 125.171 22.6664C124.511 25.6914 123.136 30.8614 121.981 34.7664H128.691C129.956 34.7664 130.616 35.4814 130.616 36.6914C130.616 37.9014 129.956 38.6164 128.691 38.6164H118.626V48.1314C118.681 48.1314 118.681 48.1864 118.736 48.1864C120.331 46.2064 121.761 43.8414 123.026 41.4764C123.961 39.7714 125.611 39.2764 127.206 40.3764C128.911 41.4764 129.076 43.1264 127.701 44.6664C125.886 46.6464 123.741 48.4614 121.816 49.7264C124.676 51.3214 127.371 53.1364 129.626 55.0064ZM109.991 27.8914H117.801C118.186 26.4064 118.516 25.0314 118.736 24.0964C118.846 23.6564 118.571 23.3814 118.131 23.3814H111.146C110.816 24.8664 110.376 26.4064 109.991 27.8914ZM105.261 48.1864C104.326 46.2614 103.281 44.2814 102.346 42.6864C101.796 41.8064 101.906 41.0364 102.566 40.4314C103.226 39.8814 104.051 39.9914 104.821 40.5414C106.636 41.9164 108.341 43.6214 109.826 45.4364C110.871 46.8114 110.596 48.3514 109.166 49.2864C107.681 50.2764 105.976 49.8364 105.261 48.1864ZM96.3508 49.2314C98.0558 51.5414 99.8158 54.7864 100.861 57.7564C101.576 59.5714 101.026 60.7264 99.3208 61.3314C97.6708 61.8814 96.4608 61.2214 96.0758 59.5164C95.4158 56.3264 94.4808 53.1364 93.5458 50.5514C93.2158 49.5614 93.4908 48.8464 94.3158 48.4614C95.1408 48.1314 95.7458 48.4614 96.3508 49.2314ZM92.0058 50.9364C93.2158 54.1264 94.2608 58.1964 94.8658 61.5514C95.1958 63.4764 94.4258 64.5764 92.5008 64.7964C90.5758 65.0164 89.4758 64.1364 89.4758 62.1014C89.4758 58.6364 89.3108 54.6214 88.9808 51.5414C88.9258 50.5514 89.3108 49.8914 90.1908 49.7264C91.0708 49.5064 91.6758 50.0014 92.0058 50.9364ZM85.9008 50.2214C86.7808 50.2764 87.3308 50.9914 87.3858 52.2564C87.6058 56.3264 87.4958 60.5064 87.1108 63.9714C86.8908 66.1164 85.2408 67.0514 83.0958 66.4464C81.0608 65.8414 80.6208 64.3564 81.3358 62.4864C82.6008 59.2964 83.4258 55.7764 84.0858 51.7614C84.2508 50.6614 84.9658 50.1664 85.9008 50.2214Z" fill="#B8C318"/>
<path d="M193.261 51.2664C195.241 63.8614 193.371 65.4564 185.506 65.7314C176.376 66.0614 168.676 66.0614 160.591 65.7864C152.176 65.4564 150.251 63.9164 150.251 56.7664V37.7914C149.041 38.7264 147.831 39.5514 146.621 40.2664C145.521 40.9264 144.531 40.7614 143.926 39.7714C143.321 38.8364 143.486 37.9564 144.476 37.0764C150.636 31.7964 154.706 24.8114 157.291 17.9914C158.226 15.5714 160.261 15.0214 162.516 15.8464C164.771 16.7814 165.211 18.7614 164.056 21.1264L163.891 21.5114H172.416C173.791 20.1364 176.211 19.8614 177.916 20.8514C179.841 21.8414 180.611 23.9314 179.016 26.4614C177.861 28.2214 176.266 30.0364 174.781 31.5214H184.461C186.496 31.5214 187.651 32.6764 187.651 34.7114V45.8214C187.651 47.9664 186.661 49.0114 184.296 49.0114H157.236V54.7864C157.236 58.8564 158.006 59.2964 163.341 59.5164C169.666 59.7914 177.806 59.7914 184.076 59.4614C188.971 59.2414 189.411 58.5814 189.411 51.5414C189.411 50.2764 190.126 49.5064 191.171 49.5064C192.271 49.5064 193.041 50.0014 193.261 51.2664ZM161.416 25.8014C160.096 27.7814 158.611 29.7064 156.961 31.5214H169.446C170.436 29.8164 171.316 28.1664 171.976 26.5714C172.141 26.0764 171.921 25.8014 171.481 25.8014H161.416ZM165.981 44.7764V35.7564H157.896C157.511 35.7564 157.236 36.0314 157.236 36.4164V44.7764H165.981ZM180.996 36.4164C180.996 36.0314 180.721 35.7564 180.336 35.7564H172.636V44.7764H180.171C180.721 44.7764 180.996 44.5564 180.996 44.0064V36.4164Z" fill="#B8C318"/>
<path d="M256.071 63.0914C256.456 64.8514 256.016 65.9514 254.311 66.3914C252.606 66.8314 251.286 66.1164 250.956 64.4114L250.461 61.4414C246.501 63.4214 242.101 64.7414 237.481 65.5664C235.446 66.0064 234.016 65.2364 233.796 63.2564C233.521 61.3864 234.181 60.1214 236.436 59.9014C237.976 59.7364 239.571 59.5164 241.166 59.3514V48.6264H237.591C235.556 48.6264 234.401 47.4714 234.401 45.4364V29.8714C234.401 27.7814 235.556 26.6264 237.591 26.6264H241.111V19.1464C241.111 17.3314 242.156 16.3964 244.191 16.3964C246.171 16.3964 247.216 17.3314 247.216 19.1464V26.6264H250.846C252.936 26.6264 254.036 27.7814 254.036 29.8714V45.4364C254.036 47.4714 252.936 48.6264 250.846 48.6264H247.271V58.3614C248.096 58.1964 248.921 58.0864 249.746 57.9214C249.361 56.1614 248.976 54.4564 248.646 53.0814C248.371 51.9814 248.756 51.2114 249.636 50.8814C250.516 50.5514 251.396 50.8264 251.946 51.8164C253.651 54.8964 255.301 59.5714 256.071 63.0914ZM231.761 18.2114C233.081 18.2114 233.796 18.9264 233.796 20.1364C233.796 21.4564 233.081 22.1714 231.761 22.1714H209.651C208.331 22.1714 207.616 21.4014 207.616 20.1364C207.616 18.9264 208.331 18.2114 209.651 18.2114H231.761ZM227.801 35.7014H213.941C211.851 35.7014 210.751 34.5464 210.751 32.4564V27.3964C210.751 25.3614 211.851 24.2064 213.941 24.2064H227.801C229.891 24.2064 230.991 25.3614 230.991 27.3964V32.4564C230.991 34.5464 229.891 35.7014 227.801 35.7014ZM216.416 28.6064V31.3014C216.416 31.6864 216.691 31.9614 217.076 31.9614H224.721C225.106 31.9614 225.381 31.6864 225.381 31.3014V28.6064C225.381 28.2214 225.106 27.9464 224.721 27.9464H217.076C216.691 27.9464 216.416 28.2214 216.416 28.6064ZM239.956 44.6664H241.771V30.5864H239.956C239.571 30.5864 239.296 30.8614 239.296 31.2464V44.0064C239.296 44.3914 239.571 44.6664 239.956 44.6664ZM246.721 30.5864V44.6664H248.481C248.866 44.6664 249.141 44.3914 249.141 44.0064V31.2464C249.141 30.8614 248.866 30.5864 248.481 30.5864H246.721ZM230.056 37.6264C232.146 37.6264 233.246 38.7814 233.246 40.8164V62.4864C233.246 66.8314 228.406 67.8764 224.226 65.9514C223.181 65.5114 222.851 64.7414 223.071 63.8064C223.071 63.6964 223.126 63.5864 223.181 63.5314C222.686 64.0814 221.916 64.3564 220.926 64.3564C219.166 64.3564 218.121 63.4214 218.121 61.7164V53.7414H215.041C214.601 53.7414 214.216 53.6314 213.941 53.4664V64.3014C213.941 66.0064 213.006 66.9414 211.191 66.9414C209.376 66.9414 208.386 66.0064 208.386 64.3014V40.8164C208.386 38.7814 209.541 37.6264 211.631 37.6264H230.056ZM213.941 50.1664C214.216 50.0014 214.601 49.8914 215.041 49.8914H217.791C217.186 49.7814 216.691 49.3414 216.416 48.5164C215.811 46.9764 215.206 45.4914 214.711 44.0064C214.436 43.2364 214.656 42.6864 215.261 42.3014C215.921 41.9714 216.581 42.0814 217.131 42.6864C218.231 43.9514 219.276 45.3814 220.046 46.8664C220.706 48.0764 220.321 49.1214 219.111 49.6714C218.836 49.7814 218.616 49.8364 218.396 49.8914H221.146C221.806 47.9114 222.356 45.8214 222.851 43.7864C223.181 42.2464 224.281 41.8064 225.601 42.2464C226.976 42.6314 227.416 43.6764 226.921 44.9964C226.206 46.7564 225.381 48.4064 224.446 49.8914H226.701C227.141 49.8914 227.526 50.0014 227.801 50.1664V42.0814C227.801 41.6964 227.526 41.4214 227.141 41.4214H214.601C214.216 41.4214 213.941 41.6964 213.941 42.0814V50.1664ZM225.051 62.5964C227.416 62.8714 227.801 62.5964 227.801 61.0014V53.4664C227.526 53.6314 227.141 53.7414 226.701 53.7414H223.731V61.7164C223.731 62.2114 223.621 62.7064 223.456 63.0364C223.786 62.7064 224.336 62.5414 225.051 62.5964Z" fill="#B8C318"/>
<path d="M284.176 29.8714C283.571 29.1014 283.571 28.4414 284.176 27.5614C286.101 25.0864 287.696 21.6214 288.741 17.9364C289.291 16.0114 290.611 15.4064 292.481 15.9014C294.131 16.3964 294.736 17.5514 294.296 19.2014H309.641C310.796 18.1564 312.721 17.8264 314.206 18.8164C315.801 19.8614 316.186 21.7314 314.921 23.4914C313.216 25.9664 311.181 27.7264 309.751 28.7164C309.036 29.2114 308.266 29.3214 307.606 28.7164C306.946 28.1114 306.891 27.4514 307.386 26.6814C308.046 25.6914 308.651 24.6464 309.036 23.7664C309.201 23.3264 308.926 23.0514 308.486 23.0514H303.426C303.151 24.1514 302.711 25.1964 302.216 26.1864C305.461 29.4314 308.871 30.6964 314.811 31.5764C317.121 31.9614 317.671 33.2264 317.286 34.9864C316.901 36.8014 315.306 37.5164 313.381 37.0764C307.661 35.7564 303.206 33.1164 300.401 28.9914C297.046 33.1164 291.711 35.6464 285.221 36.2514C284.176 36.3064 283.461 35.8114 283.296 34.9314C283.186 33.9964 283.516 33.3914 284.616 33.1164C291.931 31.1914 295.011 28.2764 296.606 23.0514H292.591C290.996 25.9114 288.741 28.3864 286.541 29.9814C285.771 30.5864 284.781 30.5864 284.176 29.8714ZM272.461 19.5864C271.581 18.9814 271.471 18.1564 271.911 17.3314C272.351 16.5064 273.066 16.3414 274.056 16.5614C276.366 17.0564 279.336 17.9914 281.976 19.3664C283.956 20.3564 284.231 22.0614 283.076 23.6564C281.866 25.3614 280.271 25.5814 278.621 24.2064C276.531 22.4464 274.331 20.8514 272.461 19.5864ZM275.101 37.5714C273.286 38.8364 271.416 38.6714 270.481 36.9664C269.491 35.1514 269.986 33.6664 272.021 32.6764C275.321 30.9164 278.016 29.0464 280.326 27.0664C281.151 26.4614 282.031 26.4064 282.746 27.1214C283.406 27.7264 283.461 28.6614 282.911 29.5414C281.041 32.2364 278.346 35.2614 275.101 37.5714ZM314.976 60.8914C317.231 61.5514 318.166 63.2014 317.341 65.2364C316.516 67.3264 314.811 67.8764 312.666 66.8314C308.761 64.9614 303.206 62.9264 298.641 61.3864C297.541 60.8914 297.101 60.1214 297.376 59.0764C297.486 58.6364 297.651 58.3614 297.871 58.1414H289.951C290.171 58.3064 290.336 58.5264 290.501 58.7464C291.601 60.4514 290.941 62.3214 288.686 63.2564C283.681 65.4014 278.016 66.9414 272.131 67.3264C270.976 67.3814 270.261 66.9414 270.096 65.9514C269.876 64.9064 270.206 64.0264 271.416 63.6964C276.586 62.4314 281.316 60.3964 285.276 58.1414H279.776C277.686 58.1414 276.586 56.9864 276.586 54.8964V39.9914C276.586 37.9014 277.686 36.7464 279.776 36.7464H308.541C310.576 36.7464 311.731 37.9014 311.731 39.9914V54.8964C311.731 56.9864 310.576 58.1414 308.541 58.1414H302.436C306.561 58.6914 311.181 59.6814 314.976 60.8914ZM283.571 41.1464V42.7414H304.691V41.1464C304.691 40.7614 304.416 40.4864 304.031 40.4864H284.231C283.846 40.4864 283.571 40.7614 283.571 41.1464ZM283.571 46.2064V48.4614H304.691V46.2064H283.571ZM283.571 53.7414C283.571 54.1264 283.846 54.4014 284.231 54.4014H304.031C304.416 54.4014 304.691 54.1264 304.691 53.7414V51.9264H283.571V53.7414Z" fill="#B8C318"/>
<path d="M96.3508 97.1914C95.6358 100.711 94.5358 104.396 93.1058 107.971V141.411C93.1058 143.446 91.9508 144.381 89.8608 144.381C87.8258 144.381 86.6708 143.446 86.6708 141.411V120.016C85.8458 121.171 84.9658 122.216 84.0858 123.151C83.3708 123.976 82.3258 123.921 81.6658 123.316C81.0058 122.711 80.8958 121.886 81.4458 121.006C85.6808 114.076 88.1558 105.221 89.6408 95.5964C90.0258 93.1764 91.6208 92.4064 93.8758 92.7914C96.0758 93.1214 96.9558 94.7164 96.3508 97.1914ZM98.4958 98.7314C97.3958 98.7314 96.7358 98.0714 96.7358 96.9714C96.7358 95.8714 97.3958 95.2114 98.4958 95.2114H125.611C126.821 95.2114 127.426 95.8164 127.426 96.9164C127.426 98.1264 126.821 98.7314 125.611 98.7314H114.721C114.226 99.3914 113.731 99.9964 113.181 100.546H120.826C122.806 100.546 123.851 101.646 123.851 103.626V113.581H125.886C127.866 113.581 128.966 114.681 128.966 116.661V119.631C128.966 121.446 127.976 122.216 126.216 122.216C126.491 122.546 126.711 122.876 126.931 123.206C127.866 124.471 127.591 125.681 126.271 126.506C124.896 127.276 123.741 126.836 123.081 125.351C122.366 123.701 121.376 121.721 120.496 120.126C120.111 119.411 120.166 118.861 120.771 118.421C121.321 117.926 121.871 118.036 122.476 118.476L123.356 119.191V117.651C123.356 117.266 123.081 116.991 122.696 116.991H100.751C100.366 116.991 100.091 117.266 100.091 117.651V119.246C100.476 118.586 101.026 118.311 101.796 118.531C102.511 118.696 102.786 119.356 102.621 120.126C102.291 122.326 101.466 125.021 100.531 126.726C99.7608 128.046 98.5508 128.266 97.2858 127.496C96.0758 126.616 95.9658 125.351 96.9558 124.251C97.4508 123.701 97.8908 123.096 98.3308 122.491C98.0008 122.546 97.6708 122.601 97.2858 122.601C95.4708 122.601 94.4808 121.776 94.4808 119.961V116.661C94.4808 114.681 95.5808 113.581 97.5608 113.581H99.3208V103.626C99.3208 101.646 100.421 100.546 102.401 100.546H108.341C108.396 99.9414 108.506 99.3364 108.561 98.7314H98.4958ZM118.021 104.451C118.021 104.066 117.746 103.791 117.361 103.791H105.866C105.481 103.791 105.206 104.066 105.206 104.451V105.056H118.021V104.451ZM105.206 107.971V109.291H118.021V107.971H105.206ZM105.206 113.581H118.021V112.206H105.206V113.581ZM109.826 117.101C111.366 117.376 113.016 117.926 114.666 118.641C115.821 119.191 116.261 120.126 115.656 121.281C115.051 122.436 114.006 122.711 112.961 121.996C111.531 121.006 110.156 120.181 108.946 119.521C108.286 119.191 108.121 118.531 108.341 117.871C108.561 117.266 109.056 116.936 109.826 117.101ZM127.206 138.276C129.241 138.386 130.011 139.541 129.791 141.576C129.516 143.611 128.141 144.326 126.161 144.106C121.321 143.556 116.866 142.456 113.016 140.751C108.341 142.731 102.676 143.886 96.1308 144.381C95.0858 144.436 94.4258 143.996 94.2608 143.061C94.0958 141.961 94.5908 141.356 95.7458 141.191C100.696 140.421 104.711 139.431 108.066 138.111C106.251 136.956 104.656 135.636 103.281 134.151C101.521 135.361 99.4858 136.461 97.3958 137.286C96.4058 137.671 95.6358 137.396 95.2508 136.571C94.8108 135.746 95.0308 134.976 95.9658 134.371C100.036 131.841 102.841 129.256 104.876 126.011C103.776 125.461 103.281 124.526 103.281 122.876V119.576C103.281 118.146 104.106 117.321 105.591 117.321C106.966 117.321 107.846 118.091 107.846 119.576V121.336C107.846 122.436 108.231 122.876 109.936 122.931C112.191 123.096 113.841 123.096 115.491 122.931C116.811 122.766 117.141 122.326 117.141 120.236C117.141 119.301 117.636 118.861 118.461 118.861C119.231 118.861 119.781 119.356 119.946 120.291C120.716 124.856 119.506 126.341 116.646 126.616C114.831 126.781 112.521 126.836 110.321 126.781C110.101 127.166 109.826 127.606 109.496 128.046H120.606C123.906 128.046 125.006 130.631 123.136 133.051C121.981 134.646 120.551 136.076 119.011 137.286C121.541 137.781 124.291 138.056 127.206 138.276ZM105.866 132.116C108.066 133.656 110.376 134.811 112.906 135.691C114.391 134.701 115.711 133.546 116.756 132.281C117.086 131.841 116.866 131.456 116.316 131.456H106.581C106.306 131.676 106.086 131.896 105.866 132.116Z" fill="#B8C318"/>
<path d="M146.676 100.711C145.466 100.711 144.751 99.9964 144.751 98.7864C144.751 97.5214 145.466 96.8064 146.676 96.8064H165.156V95.6514C165.156 93.5614 166.366 92.5714 168.621 92.5714C170.931 92.5714 172.141 93.5614 172.141 95.6514V96.8064H190.786C191.996 96.8064 192.711 97.5214 192.711 98.7864C192.711 100.051 191.996 100.711 190.786 100.711H172.141V103.076H184.406C186.441 103.076 187.596 104.231 187.596 106.321V115.946C187.596 117.871 186.551 119.026 184.681 119.136C186.661 120.181 188.641 121.501 190.401 122.986C192.106 124.306 192.271 125.846 190.841 127.331C189.411 128.706 187.871 128.596 186.496 126.946C185.781 126.066 185.066 125.186 184.241 124.361C180.281 125.296 174.891 126.121 168.896 126.726C170.711 127.386 172.746 128.431 174.616 129.696C176.321 130.796 176.651 132.501 175.386 133.986C174.011 135.581 172.251 135.471 170.931 133.931C169.556 132.336 167.851 130.576 166.201 129.091C165.541 128.541 165.431 127.661 165.816 127.001C160.591 127.496 155.036 127.826 149.646 128.046C147.336 128.101 146.016 126.946 145.961 124.856C145.961 122.876 146.951 121.666 149.371 121.831C154.156 122.051 159.711 122.106 165.156 121.996V119.081H153.111C151.021 119.081 149.866 117.926 149.866 115.891V106.321C149.866 104.231 151.021 103.076 153.111 103.076H165.156V100.711H146.676ZM156.631 107.531V109.236H165.156V106.871H157.291C156.906 106.871 156.631 107.146 156.631 107.531ZM180.226 106.871H172.141V109.236H180.886V107.531C180.886 107.146 180.611 106.871 180.226 106.871ZM157.291 115.286H165.156V112.811H156.631V114.626C156.631 115.011 156.906 115.286 157.291 115.286ZM180.886 114.626V112.811H172.141V115.286H180.226C180.611 115.286 180.886 115.011 180.886 114.626ZM172.141 119.136V121.831C175.496 121.721 178.631 121.556 181.326 121.336C180.996 121.006 180.666 120.731 180.336 120.456C179.896 120.071 179.731 119.576 179.731 119.136H172.141ZM192.491 135.966C193.756 137.891 193.151 139.926 191.226 140.861C189.136 141.851 187.761 140.971 186.936 138.771C185.836 135.856 184.846 133.656 183.196 130.686C182.701 129.751 182.866 128.926 183.636 128.376C184.406 127.826 185.066 127.881 185.836 128.541C188.256 130.576 190.566 132.996 192.491 135.966ZM180.116 130.301C181.106 130.246 181.656 130.851 181.986 131.841C184.131 138.881 183.361 142.346 177.476 142.731C173.076 143.006 168.511 143.061 164.716 142.841C158.281 142.566 155.861 141.411 155.861 136.956V131.456C155.861 129.421 157.071 128.376 159.271 128.376C161.526 128.431 162.736 129.421 162.736 131.456V134.151C162.736 136.241 163.396 136.901 166.201 137.066C169.116 137.286 172.801 137.176 176.046 136.956C178.191 136.791 178.521 136.186 178.521 132.006C178.521 130.851 179.126 130.356 180.116 130.301ZM152.396 129.476C153.386 129.861 153.716 130.411 153.661 131.456C153.331 135.141 152.121 138.111 150.581 140.641C149.481 142.401 147.501 143.061 145.796 141.631C144.091 140.256 144.146 138.331 145.741 136.846C147.556 135.196 149.206 132.996 150.251 130.576C150.746 129.586 151.461 129.146 152.396 129.476Z" fill="#B8C318"/>
<path d="M208.826 109.181C207.726 109.511 207.011 109.291 206.626 108.411C206.241 107.586 206.516 106.761 207.451 106.266C212.071 103.626 216.361 99.3914 219.716 94.4964C221.091 92.5164 222.906 92.0214 224.886 93.1764C226.591 94.2214 226.756 96.2564 225.216 98.1264C224.171 99.3914 223.016 100.601 221.696 101.756V109.676C221.696 111.766 220.541 112.646 218.451 112.646C216.361 112.646 215.206 111.766 215.206 109.676V106.376C213.116 107.531 210.916 108.521 208.826 109.181ZM231.431 101.536C230.606 100.161 229.781 98.6764 229.121 97.0264C228.296 94.9364 228.736 93.7264 230.386 93.0114C231.981 92.2964 233.411 93.0664 234.346 94.8814C235.446 97.0264 236.656 98.8964 237.921 100.491C240.066 100.161 242.211 99.7764 244.356 99.4464C244.081 99.3364 243.751 99.2264 243.476 99.0064C241.826 97.8514 239.791 96.5864 238.306 95.6514C237.426 95.1014 237.151 94.3864 237.536 93.5064C237.866 92.7364 238.581 92.4614 239.571 92.6814C241.551 93.1764 244.026 94.0564 246.006 94.9364C247.656 95.6514 248.096 96.9714 247.161 98.3464C246.996 98.6764 246.776 98.8964 246.556 99.1164C247.931 98.8414 249.361 98.6214 250.791 98.4014C251.946 98.2364 252.716 98.7864 252.881 99.9414C253.046 101.151 252.496 101.866 251.341 102.031C247.876 102.581 244.411 103.131 240.946 103.736C243.201 105.606 245.621 106.816 248.426 107.421C250.241 107.861 251.231 107.531 251.286 104.231C251.341 103.076 251.781 102.581 252.661 102.526C253.486 102.471 254.201 103.021 254.366 104.121C255.521 110.776 254.641 114.131 248.261 113.141C242.761 112.316 237.756 109.566 233.796 104.891C230.881 105.386 227.911 105.826 224.996 106.321C223.841 106.486 223.071 105.991 222.906 104.781C222.741 103.626 223.291 102.856 224.446 102.691L231.431 101.536ZM252.881 138.276C255.026 138.936 255.851 140.476 255.026 142.456C254.201 144.436 252.551 144.986 250.516 144.106C245.951 141.906 240.506 139.596 235.831 138.111C234.731 137.781 234.346 136.956 234.566 136.021C234.731 135.526 234.951 135.196 235.336 135.031H227.471L227.856 135.526C229.011 137.176 228.571 138.826 226.371 139.761C221.366 142.071 215.041 143.611 209.486 144.161C208.441 144.271 207.781 143.941 207.616 143.006C207.396 142.126 207.891 141.466 208.881 141.191C214.106 139.871 218.946 137.561 222.851 135.086C222.906 135.086 222.906 135.031 222.961 135.031H217.076C215.041 135.031 213.886 133.876 213.886 131.841V116.606C213.886 114.571 215.041 113.416 217.076 113.416H245.841C247.931 113.416 249.031 114.571 249.031 116.606V131.841C249.031 133.876 247.931 135.031 245.841 135.031H237.701C242.651 135.581 248.426 136.791 252.881 138.276ZM220.871 117.651V119.356H242.101V117.651C242.101 117.266 241.826 116.991 241.441 116.991H221.531C221.146 116.991 220.871 117.266 220.871 117.651ZM220.871 122.876V125.241H242.101V122.876H220.871ZM220.871 130.686C220.871 131.071 221.146 131.346 221.531 131.346H241.441C241.826 131.346 242.101 131.071 242.101 130.686V128.706H220.871V130.686Z" fill="#B8C318"/>
<path d="M293.911 115.451C293.141 114.901 292.976 114.186 293.526 113.251C296.056 108.741 297.266 103.021 297.926 95.7614C298.091 93.5064 299.576 92.4614 301.941 92.7914C303.921 93.0664 304.911 94.4414 304.581 96.6964C304.251 98.6214 303.866 100.436 303.316 102.196H311.346C312.501 101.041 314.316 100.546 316.131 101.426C318.056 102.361 318.606 104.396 317.671 106.486C316.131 109.951 314.206 113.141 312.006 115.451C311.291 116.276 310.411 116.386 309.696 115.836C308.926 115.286 308.761 114.626 309.146 113.691C310.081 111.271 310.961 108.741 311.401 106.816C311.511 106.376 311.291 106.101 310.851 106.101H301.886C300.346 109.676 298.366 112.701 296.166 115.066C295.451 115.836 294.681 116.001 293.911 115.451ZM271.691 103.021C270.426 103.021 269.766 102.306 269.766 101.096C269.766 99.8314 270.426 99.1714 271.691 99.1714H279.501V95.8714C279.501 93.8364 280.711 92.7364 282.966 92.7364C285.166 92.7364 286.376 93.8364 286.376 95.8714V99.1714H294.186C295.451 99.1714 296.166 99.8314 296.166 101.096C296.166 102.361 295.451 103.021 294.186 103.021H286.376V107.146H292.206C293.416 107.146 294.131 107.806 294.131 109.016C294.131 110.281 293.416 110.996 292.206 110.996H273.561C272.296 110.996 271.636 110.281 271.636 109.016C271.636 107.861 272.296 107.146 273.561 107.146H279.501V103.021H271.691ZM317.561 137.176C319.431 138.991 319.486 141.136 317.561 142.896C315.911 144.491 313.601 144.436 311.841 142.126C308.156 137.726 306.066 129.146 305.846 121.666C304.636 131.841 299.796 139.431 291.821 143.941C290.666 144.546 289.786 144.381 289.181 143.556C288.576 142.621 288.796 141.796 289.731 140.971C291.766 139.266 293.471 137.451 294.901 135.416C294.626 135.746 294.186 136.076 293.691 136.351C291.986 137.286 290.336 136.626 289.841 134.866C289.291 132.721 288.576 130.411 287.751 128.321C287.421 127.386 287.696 126.671 288.411 126.176C289.071 125.791 289.841 125.791 290.611 126.506C292.151 128.046 293.966 130.521 294.956 132.336C295.506 133.326 295.561 134.261 295.121 135.031C298.861 129.531 300.401 122.766 300.401 114.296V111.821C300.401 109.786 301.666 108.631 303.921 108.631C306.176 108.631 307.496 109.786 307.496 111.821V115.286C308.376 124.361 311.511 131.511 317.561 137.176ZM274.331 113.856H291.161C292.371 113.856 293.086 114.516 293.086 115.726C293.086 116.991 292.371 117.706 291.161 117.706H274.331C273.066 117.706 272.406 116.991 272.406 115.726C272.406 114.516 273.066 113.856 274.331 113.856ZM293.911 124.526H286.266V138.496C286.266 143.721 280.711 145.591 274.331 142.621C273.341 142.126 273.121 141.356 273.396 140.476C273.616 139.651 274.221 139.321 275.211 139.431C279.171 139.816 279.666 139.596 279.666 137.726V124.526H271.636C270.371 124.526 269.656 123.756 269.656 122.491C269.656 121.336 270.371 120.621 271.636 120.621H293.911C295.176 120.621 295.891 121.336 295.891 122.491C295.891 123.811 295.176 124.526 293.911 124.526ZM276.201 126.011C278.181 126.506 278.566 128.046 278.071 129.531C276.806 133.491 274.221 137.561 271.856 139.761C271.141 140.476 270.261 140.641 269.546 140.036C268.666 139.431 268.556 138.661 269.106 137.671C270.481 135.361 271.801 131.841 272.571 128.046C272.956 126.176 274.386 125.516 276.201 126.011Z" fill="#B8C318"/>
</svg>
