<svg width="401" height="161" viewBox="0 0 401 161" fill="none" xmlns="http://www.w3.org/2000/svg">
<path d="M53.0914 43.2481C53.4214 43.2481 53.7514 43.1931 54.0814 43.1931C56.1714 40.4981 58.0964 37.5281 59.8014 34.5581C57.8764 35.2181 55.8964 35.8231 53.8614 36.2081C51.8264 36.6481 50.3414 35.6581 50.1764 33.5681C50.0114 31.4781 51.0564 30.2681 53.1464 30.3781H53.3664C55.0714 26.0881 56.1714 22.0731 56.9414 18.4431C57.3814 16.1881 59.1414 15.4181 61.1764 15.9131C63.0464 16.2981 63.9264 17.8931 63.3214 19.7631C62.3314 22.7331 59.7464 27.2981 57.3814 30.4881C58.8664 30.4881 60.4064 30.4881 61.9464 30.4331C62.7714 28.7831 63.4864 27.1331 64.1464 25.5381C64.9714 23.4481 66.6764 22.8981 68.4914 23.6681C70.3614 24.4931 71.0764 26.1431 69.9214 28.1781C67.1714 33.2381 63.2114 38.5731 58.8114 42.8631C60.7364 42.6431 62.7164 42.4231 64.5314 42.1481L63.8714 40.1131C63.5414 39.0681 63.8164 38.4081 64.5864 37.9681C65.3564 37.5831 66.0164 37.8031 66.6764 38.6281C68.2714 40.4981 69.7014 43.0281 70.8014 45.5031C71.5164 47.1531 70.9114 48.5281 69.2064 49.0781C67.5564 49.6831 66.4564 48.9681 66.0164 47.3181C65.8514 46.6031 65.6314 45.9431 65.4664 45.2281C61.7814 46.9331 57.7114 48.3081 53.9714 49.2431C51.8264 49.7931 50.2864 48.8581 50.0114 46.7131C49.7364 44.6781 50.6714 43.3031 53.0914 43.2481ZM98.3014 55.0731C100.116 56.5031 100.446 58.4281 98.8514 60.0781C97.2564 61.6731 95.4964 61.4531 93.9564 59.6381C91.9764 57.2731 89.6664 54.7981 87.3014 52.5431V61.4531C87.3014 67.5581 81.3614 69.2631 73.2214 65.3581C72.2864 64.9181 71.9564 64.1481 72.2314 63.2131C72.5614 62.2781 73.1664 61.8931 74.3214 62.0581C79.8214 62.7731 80.5914 62.4431 80.5914 59.6931V53.7531C78.6664 55.7331 76.3564 57.6581 73.9914 59.0881C72.1214 60.1881 70.5264 59.7481 69.7014 57.9881C68.8764 56.1181 69.6464 54.5231 71.5164 53.8081C74.4864 52.7081 77.4564 51.3881 80.5914 49.3531V38.6831H70.3064C69.0414 38.6831 68.3814 37.9681 68.3814 36.7581C68.3814 35.5481 69.0414 34.8331 70.3064 34.8331H84.7164L85.5414 31.6981H77.5664C76.9614 33.5681 75.5314 34.3381 73.5514 33.8431C71.6814 33.4031 71.1314 32.2481 71.6814 30.4331C72.9464 26.4731 74.1564 21.4131 74.9264 18.1131C75.2564 16.4631 76.7964 15.8031 78.5014 16.0231C80.2614 16.3531 81.1964 17.5081 80.8114 19.1581C80.7564 19.3231 80.7564 19.4881 80.7014 19.6531H87.4664C88.2364 18.3881 89.7764 17.8381 91.5364 18.2231C93.4614 18.6631 94.4514 20.0381 93.8464 22.7331C93.1864 25.7581 91.8114 30.9281 90.6564 34.8331H97.3664C98.6314 34.8331 99.2914 35.5481 99.2914 36.7581C99.2914 37.9681 98.6314 38.6831 97.3664 38.6831H87.3014V48.1981C87.3564 48.1981 87.3564 48.2531 87.4114 48.2531C89.0064 46.2731 90.4364 43.9081 91.7014 41.5431C92.6364 39.8381 94.2864 39.3431 95.8814 40.4431C97.5864 41.5431 97.7514 43.1931 96.3764 44.7331C94.5614 46.7131 92.4164 48.5281 90.4914 49.7931C93.3514 51.3881 96.0464 53.2031 98.3014 55.0731ZM78.6664 27.9581H86.4764C86.8614 26.4731 87.1914 25.0981 87.4114 24.1631C87.5214 23.7231 87.2464 23.4481 86.8064 23.4481H79.8214C79.4914 24.9331 79.0514 26.4731 78.6664 27.9581ZM73.9364 48.2531C73.0014 46.3281 71.9564 44.3481 71.0214 42.7531C70.4714 41.8731 70.5814 41.1031 71.2414 40.4981C71.9014 39.9481 72.7264 40.0581 73.4964 40.6081C75.3114 41.9831 77.0164 43.6881 78.5014 45.5031C79.5464 46.8781 79.2714 48.4181 77.8414 49.3531C76.3564 50.3431 74.6514 49.9031 73.9364 48.2531ZM65.0264 49.2981C66.7314 51.6081 68.4914 54.8531 69.5364 57.8231C70.2514 59.6381 69.7014 60.7931 67.9964 61.3981C66.3464 61.9481 65.1364 61.2881 64.7514 59.5831C64.0914 56.3931 63.1564 53.2031 62.2214 50.6181C61.8914 49.6281 62.1664 48.9131 62.9914 48.5281C63.8164 48.1981 64.4214 48.5281 65.0264 49.2981ZM60.6814 51.0031C61.8914 54.1931 62.9364 58.2631 63.5414 61.6181C63.8714 63.5431 63.1014 64.6431 61.1764 64.8631C59.2514 65.0831 58.1514 64.2031 58.1514 62.1681C58.1514 58.7031 57.9864 54.6881 57.6564 51.6081C57.6014 50.6181 57.9864 49.9581 58.8664 49.7931C59.7464 49.5731 60.3514 50.0681 60.6814 51.0031ZM54.5764 50.2881C55.4564 50.3431 56.0064 51.0581 56.0614 52.3231C56.2814 56.3931 56.1714 60.5731 55.7864 64.0381C55.5664 66.1831 53.9164 67.1181 51.7714 66.5131C49.7364 65.9081 49.2964 64.4231 50.0114 62.5531C51.2764 59.3631 52.1014 55.8431 52.7614 51.8281C52.9264 50.7281 53.6414 50.2331 54.5764 50.2881Z" fill="#B8C318"/>
<path d="M161.936 51.3331C163.916 63.9281 162.046 65.5231 154.181 65.7981C145.051 66.1281 137.351 66.1281 129.266 65.8531C120.851 65.5231 118.926 63.9831 118.926 56.8331V37.8581C117.716 38.7931 116.506 39.6181 115.296 40.3331C114.196 40.9931 113.206 40.8281 112.601 39.8381C111.996 38.9031 112.161 38.0231 113.151 37.1431C119.311 31.8631 123.381 24.8781 125.966 18.0581C126.901 15.6381 128.936 15.0881 131.191 15.9131C133.446 16.8481 133.886 18.8281 132.731 21.1931L132.566 21.5781H141.091C142.466 20.2031 144.886 19.9281 146.591 20.9181C148.516 21.9081 149.286 23.9981 147.691 26.5281C146.536 28.2881 144.941 30.1031 143.456 31.5881H153.136C155.171 31.5881 156.326 32.7431 156.326 34.7781V45.8881C156.326 48.0331 155.336 49.0781 152.971 49.0781H125.911V54.8531C125.911 58.9231 126.681 59.3631 132.016 59.5831C138.341 59.8581 146.481 59.8581 152.751 59.5281C157.646 59.3081 158.086 58.6481 158.086 51.6081C158.086 50.3431 158.801 49.5731 159.846 49.5731C160.946 49.5731 161.716 50.0681 161.936 51.3331ZM130.091 25.8681C128.771 27.8481 127.286 29.7731 125.636 31.5881H138.121C139.111 29.8831 139.991 28.2331 140.651 26.6381C140.816 26.1431 140.596 25.8681 140.156 25.8681H130.091ZM134.656 44.8431V35.8231H126.571C126.186 35.8231 125.911 36.0981 125.911 36.4831V44.8431H134.656ZM149.671 36.4831C149.671 36.0981 149.396 35.8231 149.011 35.8231H141.311V44.8431H148.846C149.396 44.8431 149.671 44.6231 149.671 44.0731V36.4831Z" fill="#B8C318"/>
<path d="M190.481 19.7631C189.876 22.5681 189.051 25.3731 188.061 28.0131V64.5881C188.061 66.5131 186.906 67.5581 184.761 67.5581C182.616 67.5581 181.406 66.5131 181.406 64.5881V40.9381C180.306 42.5331 179.206 43.9081 178.106 45.0631C177.281 45.9431 176.401 45.9431 175.686 45.2281C174.971 44.5681 174.971 43.7431 175.521 42.8631C179.151 36.8681 181.956 28.6731 183.441 18.6631C183.771 16.2431 185.421 15.4181 187.676 15.8031C189.821 16.1331 190.866 17.8381 190.481 19.7631ZM191.141 35.5481C189.931 35.5481 189.271 34.8881 189.271 33.6781C189.271 32.5231 189.931 31.8631 191.141 31.8631H203.351V29.6631H194.881C193.671 29.6631 193.011 29.0031 193.011 27.8481C193.011 26.6931 193.671 26.0331 194.881 26.0331H203.351V24.0531H193.066C191.856 24.0531 191.196 23.3931 191.196 22.1831C191.196 21.0281 191.856 20.3681 193.066 20.3681H203.351V18.8831C203.351 16.7931 204.616 15.7481 206.871 15.7481C209.071 15.7481 210.336 16.7931 210.336 18.8831V20.3681H220.786C221.996 20.3681 222.656 21.0281 222.656 22.1831C222.656 23.3931 221.996 24.0531 220.786 24.0531H210.336V26.0331H218.971C220.126 26.0331 220.786 26.6931 220.786 27.8481C220.786 29.0031 220.126 29.6631 218.971 29.6631H210.336V31.8631H222.876C224.086 31.8631 224.746 32.5231 224.746 33.6781C224.746 34.8881 224.086 35.5481 222.876 35.5481H191.141ZM223.261 61.5081C225.131 62.3331 225.516 63.9831 224.526 65.9081C223.591 67.6131 221.886 67.9431 220.236 66.8431C217.046 64.8081 213.581 62.8281 210.061 61.1781C209.071 60.6831 208.796 59.8031 209.126 58.9781C209.236 58.5931 209.456 58.3181 209.676 58.1531H204.121C204.286 58.2631 204.396 58.4281 204.561 58.5931C205.826 60.0781 205.496 61.8381 203.791 62.8281C200.381 64.9731 195.816 66.6231 191.911 67.4481C190.866 67.6131 190.151 67.1731 189.821 66.2381C189.546 65.3581 189.821 64.5331 190.921 64.0931C194.276 62.7181 197.246 61.0131 200.216 58.3181C200.271 58.2631 200.326 58.2081 200.436 58.1531H196.091C194.056 58.1531 192.901 57.0531 192.901 54.9631V40.9931C192.901 38.9581 194.056 37.8031 196.091 37.8031H217.596C219.631 37.8031 220.786 38.9581 220.786 40.9931V54.9631C220.786 57.0531 219.631 58.1531 217.596 58.1531H212.481C215.726 58.7581 219.851 59.9131 223.261 61.5081ZM199.446 42.2581V43.5231H214.186V42.2581C214.186 41.8731 213.911 41.5981 213.526 41.5981H200.106C199.721 41.5981 199.446 41.8731 199.446 42.2581ZM199.446 46.9331V48.9131H214.186V46.9331H199.446ZM199.446 53.7531C199.446 54.1381 199.721 54.4131 200.106 54.4131H213.526C213.911 54.4131 214.186 54.1381 214.186 53.7531V52.3231H199.446V53.7531Z" fill="#B8C318"/>
<path d="M284.916 47.4831C287.611 48.4181 288.546 49.9031 287.831 52.2681C287.006 54.7981 284.696 55.5681 282.386 54.3581C280.516 53.3681 278.646 52.1581 276.941 50.6731C276.556 56.0081 276.061 59.9681 275.621 62.4981C274.686 67.3931 269.901 69.2081 260.771 65.0281C259.836 64.6431 259.561 63.8731 259.836 62.9931C260.111 62.1131 260.826 61.6731 261.926 61.8381C268.251 62.7181 268.911 62.2231 269.351 59.5281C269.626 57.4381 270.066 53.5881 270.341 49.5181C270.341 49.0781 270.176 48.8031 269.736 48.8031H263.136C260.991 58.6481 253.181 65.4681 241.796 67.6131C240.641 67.8331 239.816 67.3381 239.541 66.3481C239.266 65.3581 239.706 64.6981 240.916 64.2031C250.431 60.6831 254.886 55.6231 256.261 48.8031H252.411C251.641 48.8031 251.036 48.5281 250.706 48.0881C247.736 50.5631 244.381 52.6531 240.531 54.2481C239.376 54.6881 238.496 54.3581 238.056 53.4231C237.616 52.4881 237.891 51.6081 238.991 50.8931C244.051 47.9231 248.066 44.2931 251.146 39.9481H241.026C239.761 39.9481 239.046 39.1781 239.046 37.8581C239.046 36.5381 239.761 35.8231 241.026 35.8231H253.621C254.226 34.6681 254.776 33.5131 255.271 32.3031H244.491C243.226 32.3031 242.511 31.5331 242.511 30.2681C242.511 29.0031 243.226 28.3431 244.491 28.3431H256.646C257.581 25.3181 258.241 22.0731 258.626 18.6081C258.846 16.5731 260.166 15.4181 262.751 15.5831C265.061 15.7481 266.161 17.1781 265.831 19.4881C265.391 22.5131 264.676 25.4831 263.741 28.3431H269.296L269.076 28.1781C268.361 27.5731 268.306 26.8031 268.801 25.8681C270.066 23.7781 271.221 21.4131 272.156 18.8281C273.036 16.5181 274.741 15.9131 276.831 16.9031C278.921 18.0031 279.141 20.0381 277.601 22.1281C275.511 24.9331 273.366 27.0231 271.441 28.2881L271.386 28.3431H280.901C282.166 28.3431 282.881 29.0031 282.881 30.2681C282.881 31.5881 282.166 32.3031 280.901 32.3031H262.256C261.761 33.5131 261.211 34.6681 260.606 35.8231H284.696C285.961 35.8231 286.676 36.5381 286.676 37.8581C286.676 39.1781 285.961 39.9481 284.696 39.9481H272.541C275.676 43.2481 279.911 45.7781 284.916 47.4831ZM249.056 26.2531C248.176 23.7781 247.131 21.5781 246.031 19.3781C245.481 18.3331 245.701 17.5631 246.526 16.9031C247.351 16.2981 248.286 16.4631 249.111 17.1781C250.926 18.6631 252.851 20.7531 254.391 23.1181C255.601 24.9331 255.216 26.4731 253.236 27.6281C251.531 28.6181 249.771 28.0681 249.056 26.2531ZM254.171 44.8431H271.606C270.506 43.3031 269.516 41.6531 268.746 39.9481H258.076C256.921 41.6531 255.601 43.3031 254.171 44.8431Z" fill="#B8C318"/>
<path d="M302.846 54.0281C301.471 54.0281 300.756 53.2581 300.756 51.8831C300.756 50.4531 301.471 49.7381 302.846 49.7381H305.486C305.266 41.5981 304.936 31.6431 304.441 23.2831C304.276 21.1381 305.431 20.0381 307.466 19.9281C308.401 19.8731 309.171 20.0381 309.666 20.4781C311.041 19.5431 312.306 18.4431 313.571 17.1781C315.001 15.8031 316.926 15.8581 318.081 17.3981C319.346 19.0481 318.961 20.6981 317.091 21.7431C315.056 22.8981 312.911 23.6681 310.821 24.1631C310.931 25.7031 310.986 27.4081 311.041 29.1131H315.166C316.431 29.1131 317.201 29.8281 317.201 31.0381C317.201 32.3031 316.431 33.0731 315.166 33.0731H311.206C311.261 34.8331 311.316 36.6481 311.426 38.4631H315.276C316.541 38.4631 317.256 39.1781 317.256 40.3881C317.256 41.6531 316.486 42.4231 315.276 42.4231H311.536L311.701 49.7381H317.476C318.026 46.1631 318.411 42.9181 318.686 39.2881C318.851 37.5281 319.951 36.8131 321.656 36.9231C323.416 37.0881 324.241 37.9681 324.076 39.6181C323.801 43.2481 323.361 46.4931 322.866 49.7381H326.111C326.606 45.0631 327.046 39.9481 327.266 35.6031C327.266 35.1631 327.101 34.9431 326.606 34.9431H321.656C319.511 34.9431 318.466 33.6781 318.741 31.4781C319.401 26.5281 319.841 21.9081 320.171 18.3881C320.336 16.4081 321.491 15.6381 323.416 15.8031C325.286 15.9131 326.111 16.8481 325.946 18.6081C325.836 19.8731 325.671 21.2481 325.561 22.6781H331.886C333.151 22.6781 333.866 23.3931 333.866 24.6031C333.866 25.8131 333.151 26.5281 331.886 26.5281H325.176C325.011 27.8481 324.846 29.1681 324.736 30.3781C324.681 30.8181 324.901 31.0931 325.341 31.0931H330.071C332.216 31.0931 333.261 32.2481 333.151 34.3931C332.876 39.6181 332.381 44.9531 331.831 49.7381H338.926C339.091 47.3731 339.311 45.0081 339.476 42.6431H335.846C334.581 42.6431 333.811 41.8731 333.811 40.6631C333.811 39.3981 334.581 38.6831 335.846 38.6831H339.751C339.861 36.8131 339.971 34.9431 340.136 33.0731H335.791C334.526 33.0731 333.811 32.3581 333.811 31.0931C333.811 29.8281 334.526 29.1131 335.791 29.1131H340.356C340.466 27.2431 340.521 25.3181 340.631 23.4481C340.631 23.0081 340.466 22.7881 340.026 22.7881H335.296C334.086 22.7881 333.316 22.0181 333.316 20.8081C333.316 19.5981 334.086 18.8281 335.296 18.8281H343.601C345.746 18.8281 346.846 19.9831 346.736 22.1281C346.351 31.3681 345.746 40.4981 345.086 49.7381H348.111C349.431 49.7381 350.146 50.4531 350.146 51.8831C350.146 53.2581 349.431 54.0281 348.111 54.0281H302.846ZM316.981 54.9081C318.356 53.6981 320.556 53.6981 321.931 55.4031C323.306 57.1081 322.976 59.1431 321.161 60.2981C315.606 63.8181 308.841 66.4031 302.956 67.6131C301.636 67.8331 300.976 67.3381 300.756 66.4031C300.481 65.4681 300.811 64.6431 302.021 64.2031C307.136 62.2231 312.361 58.9781 316.981 54.9081ZM347.946 60.4631C350.201 61.5631 350.971 63.4331 349.816 65.5781C348.606 67.8881 346.351 68.2181 344.206 66.6781C339.806 63.4331 334.801 60.6281 330.016 58.2081C328.916 57.6581 328.641 56.5581 329.081 55.5131C329.466 54.5231 330.291 54.1931 331.666 54.5231C336.891 55.7881 342.556 57.7131 347.946 60.4631Z" fill="#B8C318"/>
<path d="M97.7514 136.528C99.7864 137.848 100.501 139.883 99.1814 142.138C97.7514 144.448 95.4414 144.613 93.4614 143.238C86.6964 138.563 78.8314 126.958 76.5214 114.418C75.5864 118.653 74.2114 122.558 72.3964 126.078C72.5614 126.188 72.7264 126.298 72.8914 126.463C75.6414 128.773 78.6664 131.908 81.4164 135.703C82.7914 137.518 82.5714 139.608 80.4264 140.873C78.3914 142.083 76.3564 141.588 75.4764 139.388C73.9364 135.593 72.1214 131.963 70.5814 129.323C66.2914 135.978 60.2964 141.038 52.6514 144.173C51.4964 144.668 50.6164 144.393 50.1764 143.348C49.6814 142.413 50.0114 141.478 51.0014 140.818C61.2864 134.273 67.7764 125.308 69.8664 112.273H53.3664C51.9914 112.273 51.1664 111.393 51.1664 109.908C51.1664 108.368 51.9914 107.543 53.3664 107.543H70.4164C70.4714 107.048 70.4714 106.498 70.5264 106.003C70.6914 102.098 70.8014 98.9631 70.8014 96.2681C70.8014 93.9031 72.1764 92.7481 74.4864 92.7481C76.8514 92.7481 78.0614 93.9031 78.1164 96.2681C78.1164 99.5681 78.0064 103.088 77.6764 106.553C77.6764 106.883 77.6214 107.213 77.5664 107.543H96.1564C97.5864 107.543 98.3564 108.368 98.3564 109.908C98.3564 111.393 97.5864 112.273 96.1564 112.273H79.4364C82.5714 122.503 89.1714 130.808 97.7514 136.528Z" fill="#B8C318"/>
<path d="M160.176 118.653H142.741C142.301 119.588 141.861 120.468 141.366 121.348H157.206C159.241 121.348 160.396 122.503 160.341 124.648C160.286 129.598 159.846 135.923 159.296 139.333C158.471 144.613 152.806 145.768 146.041 142.358C144.941 141.808 144.611 140.983 145.051 139.938C145.381 139.058 145.986 138.728 147.196 138.948C152.201 139.773 153.026 139.443 153.301 137.628C153.741 134.603 154.126 129.543 154.236 125.968C154.236 125.528 153.961 125.308 153.576 125.308H152.971C150.276 134.218 143.346 140.763 134.711 143.788C133.501 144.173 132.621 143.843 132.236 142.908C131.796 141.973 132.016 141.038 133.226 140.433C139.276 137.353 144.831 132.348 147.306 125.308H145.491C142.796 131.303 137.186 136.143 131.686 138.343C130.586 138.783 129.761 138.563 129.321 137.573C128.936 136.693 129.046 135.868 130.146 135.263C134.216 132.898 137.791 129.543 139.881 125.308H138.451C136.581 127.453 134.381 129.213 132.071 130.423C131.576 130.698 131.136 130.753 130.751 130.643C128.881 133.943 124.426 134.053 121.071 132.018C121.071 132.018 121.016 132.018 121.016 131.963V141.753C121.016 143.513 119.916 144.558 117.881 144.558C115.846 144.558 114.746 143.513 114.746 141.753V96.9831C114.746 95.1681 115.846 94.1231 117.881 94.1231C119.311 94.1231 120.301 94.6731 120.741 95.6081H125.416C126.406 94.5081 128.111 94.0681 129.761 94.7281C131.466 95.3331 132.346 96.9831 131.576 99.6781C130.201 104.463 128.111 108.918 126.131 112.053C125.911 112.438 125.966 112.658 126.241 112.988C129.651 116.783 131.576 121.678 131.686 126.408C133.831 124.263 135.481 121.458 136.526 118.653H132.511C131.246 118.653 130.531 117.938 130.531 116.673C130.531 115.463 131.246 114.748 132.511 114.748H160.176C161.441 114.748 162.156 115.463 162.156 116.673C162.156 117.938 161.441 118.653 160.176 118.653ZM137.681 112.438C135.646 112.438 134.491 111.283 134.491 109.248V98.0281C134.491 95.9931 135.646 94.8381 137.681 94.8381H154.456C156.491 94.8381 157.646 95.9931 157.646 98.0281V109.248C157.646 111.283 156.491 112.438 154.456 112.438H137.681ZM141.476 98.6881C141.091 98.6881 140.816 98.9631 140.816 99.3481V101.768H151.321V99.3481C151.321 98.9631 151.046 98.6881 150.661 98.6881H141.476ZM126.241 126.023C126.296 122.943 125.471 118.433 123.381 114.583C122.611 113.098 122.501 112.163 122.941 110.678C124.041 107.158 124.976 103.638 125.471 100.173C125.526 99.7331 125.251 99.4581 124.811 99.4581H121.016V128.938C121.346 128.773 121.731 128.773 122.336 128.828C125.361 129.323 126.241 129.048 126.241 126.023ZM150.661 108.588C151.046 108.588 151.321 108.313 151.321 107.928V105.453H140.816V107.928C140.816 108.313 141.091 108.588 141.476 108.588H150.661Z" fill="#B8C318"/>
<path d="M195.266 100.118C197.411 102.318 199.391 105.123 200.766 107.983C201.701 109.908 201.261 111.393 199.336 112.218C197.521 113.098 196.146 112.383 195.431 110.238C195.266 109.688 195.046 109.138 194.826 108.533C190.481 110.348 184.651 111.778 179.426 112.328C177.281 112.603 175.906 111.668 175.741 109.578C175.576 107.543 176.566 106.278 178.876 106.278H179.976C181.406 103.033 182.781 99.0731 183.771 95.6081C184.486 93.0781 186.081 92.3631 188.446 93.0231C190.591 93.6281 191.141 95.3331 190.096 97.6981C188.831 100.503 186.906 103.528 184.871 106.058C187.896 105.893 190.866 105.563 193.616 105.178L192.296 101.933C191.856 100.888 192.076 100.173 192.901 99.6231C193.781 99.1281 194.496 99.3481 195.266 100.118ZM209.401 117.003C203.736 116.673 202.251 115.683 202.251 109.853V95.9931C202.251 94.1231 203.406 93.0781 205.496 93.0781C207.586 93.0781 208.741 94.1231 208.741 95.9931V102.043C211.216 100.668 213.691 98.9631 216.056 96.9831C217.761 95.4981 219.576 95.4431 220.951 97.0381C222.326 98.7431 222.051 100.448 219.851 101.768C216.716 103.693 212.756 105.178 208.741 106.168V108.588C208.741 110.623 209.181 111.173 211.216 111.283C213.141 111.393 215.891 111.393 217.651 111.283C219.851 111.173 220.181 110.348 220.181 106.168C220.181 104.958 220.786 104.408 221.666 104.408C222.656 104.408 223.261 104.903 223.481 106.058C224.911 113.373 223.976 116.728 218.916 117.003C216.001 117.168 212.481 117.168 209.401 117.003ZM196.091 113.758C198.126 113.758 199.281 114.858 199.281 116.948V138.618C199.281 143.623 194.661 145.383 188.171 142.908C187.016 142.468 186.576 141.753 186.851 140.763C187.071 139.828 187.676 139.498 188.831 139.553C192.406 139.828 192.791 139.388 192.791 137.133V132.458H184.541V141.258C184.541 143.183 183.386 144.173 181.296 144.173C179.206 144.173 178.106 143.183 178.106 141.258V116.948C178.106 114.858 179.206 113.758 181.296 113.758H196.091ZM185.201 117.498C184.816 117.498 184.541 117.773 184.541 118.158V121.238H192.791V118.158C192.791 117.773 192.516 117.498 192.131 117.498H185.201ZM224.306 131.193C225.956 139.663 224.911 143.183 219.796 143.458C216.881 143.623 212.646 143.623 209.621 143.458C203.901 143.128 202.251 142.138 202.251 136.308V121.678C202.251 119.753 203.406 118.763 205.496 118.763C207.586 118.763 208.741 119.753 208.741 121.678V126.848C211.326 125.418 213.911 123.603 216.441 121.348C218.201 119.808 220.016 119.698 221.391 121.348C222.821 122.998 222.601 124.868 220.456 126.188C217.101 128.278 213.031 129.983 208.741 130.973V134.768C208.741 136.748 209.181 137.298 211.216 137.408C213.141 137.518 216.606 137.518 218.366 137.408C220.566 137.298 220.841 136.418 220.841 131.248C220.841 130.038 221.446 129.433 222.436 129.433C223.481 129.433 224.086 130.038 224.306 131.193ZM184.541 128.773H192.791V124.923H184.541V128.773Z" fill="#B8C318"/>
<path d="M284.971 128.718C287.391 129.653 288.106 131.358 287.226 133.393C286.291 135.538 284.476 135.868 282.276 134.933C279.911 133.943 277.656 132.568 275.621 130.808V131.193C275.621 132.513 274.906 133.228 273.641 133.228H266.271V138.343H283.431C284.696 138.343 285.411 139.113 285.411 140.378C285.411 141.643 284.696 142.413 283.431 142.413H242.456C241.191 142.413 240.476 141.643 240.476 140.378C240.476 139.113 241.191 138.343 242.456 138.343H259.231V133.228H251.861C250.651 133.228 249.936 132.458 249.936 131.248C249.936 131.083 249.936 130.918 249.991 130.753C246.911 132.898 243.501 134.603 240.201 135.538C239.156 135.868 238.331 135.648 237.946 134.713C237.561 133.778 237.836 133.008 238.881 132.513C243.886 129.928 248.396 126.298 251.146 121.458H240.806C239.541 121.458 238.881 120.798 238.881 119.533C238.881 118.213 239.541 117.553 240.806 117.553H249.771V102.208H243.171C241.961 102.208 241.246 101.438 241.246 100.228C241.246 99.0731 241.961 98.3031 243.171 98.3031H249.771V95.5531C249.771 93.5181 250.926 92.5831 253.071 92.5831C255.161 92.5831 256.316 93.5181 256.316 95.5531V98.3031H269.076V95.4981C269.076 93.5181 270.231 92.5281 272.376 92.5281C274.466 92.5281 275.621 93.5181 275.621 95.4981V98.3031H282.331C283.541 98.3031 284.256 99.0731 284.256 100.228C284.256 101.493 283.541 102.208 282.331 102.208H275.621V117.553H284.861C286.126 117.553 286.786 118.268 286.786 119.533C286.786 120.798 286.126 121.458 284.861 121.458H272.266C275.676 124.483 279.911 126.958 284.971 128.718ZM256.316 102.208V104.848H269.076V102.208H256.316ZM256.316 108.533V111.173H269.076V108.533H256.316ZM256.316 114.803V117.553H269.076V114.803H256.316ZM273.861 129.268C271.496 127.013 269.461 124.318 267.866 121.458H258.681C257.031 124.373 254.666 127.013 251.916 129.268H259.231V126.243C259.231 124.043 260.496 122.998 262.751 122.998C265.006 122.998 266.271 124.043 266.271 126.243V129.268H273.861Z" fill="#B8C318"/>
<path d="M347.616 109.028C350.091 109.908 350.861 111.943 349.981 114.088C349.101 116.453 347.011 117.113 344.646 116.068C342.501 115.133 340.356 113.868 338.266 112.383C338.046 113.263 337.276 113.868 336.286 113.868H329.136V119.698H344.206C345.581 119.698 346.296 120.468 346.296 121.843C346.296 123.218 345.581 123.933 344.206 123.933H329.136V138.618H346.571C347.891 138.618 348.661 139.388 348.661 140.708C348.661 142.028 347.891 142.853 346.571 142.853H304.386C303.066 142.853 302.296 142.083 302.296 140.708C302.296 139.388 303.066 138.618 304.386 138.618H321.876V123.933H306.861C305.541 123.933 304.771 123.163 304.771 121.788C304.771 120.413 305.541 119.698 306.861 119.698H321.876V113.868H314.781C313.901 113.868 313.241 113.428 312.966 112.768C309.611 114.748 306.201 116.288 303.066 117.388C301.911 117.718 301.031 117.278 300.646 116.288C300.261 115.353 300.536 114.528 301.581 113.923C309.006 109.853 316.871 103.638 322.536 94.1231C323.581 92.3631 325.396 91.8131 327.486 92.9681C329.356 93.9031 330.071 95.8281 328.916 97.8631C333.976 102.648 340.246 106.388 347.616 109.028ZM317.421 109.798H334.911C331.721 107.158 328.861 104.078 326.716 100.998C324.076 104.298 320.831 107.268 317.421 109.798ZM317.146 137.298C315.166 138.398 313.296 137.848 312.471 135.868C311.316 133.063 309.886 130.093 308.566 127.563C308.016 126.463 308.236 125.693 309.061 125.033C309.886 124.373 310.876 124.373 311.756 125.198C314.011 127.233 316.651 130.203 318.191 132.623C319.456 134.548 318.961 136.198 317.146 137.298ZM336.616 126.573C337.386 124.648 339.256 124.208 341.071 125.143C342.886 126.078 343.546 127.948 342.556 129.488C340.521 132.733 338.101 135.373 335.626 137.408C334.746 138.123 333.536 138.068 332.766 137.353C332.051 136.638 331.831 135.813 332.436 134.823C333.866 132.513 335.296 129.598 336.616 126.573Z" fill="#B8C318"/>
</svg>
