<svg xmlns="http://www.w3.org/2000/svg" viewBox="0 0 1122.2 631.24"><defs><style>.cls-1{fill:none;}.cls-2,.cls-3{fill:#fdfdfb;}.cls-2{opacity:0.52;}.cls-4{fill:#74ba35;}.cls-5{fill:#0b8845;}.cls-6{fill:#b8c318;}</style></defs><g id="底"><rect class="cls-1" width="1122.2" height="631.24"/></g><g id="標章"><path class="cls-2" d="M944.94,220.32c0,41.41-9.15,86.42-35.69,120.91C832.47,441,739.5,439.57,595.91,439.57c-87.21,0-216.47,8.51-290.36-18.11-110.4-39.76-148.29-90.09-148.29-163.09,0-60.85,44.6-144.9,109.42-179.62C331.7,43.92,417.11,20.46,526,20.46c134.46,0,260.65,18.34,339,69.89C913.46,122.19,944.94,173.79,944.94,220.32Z"/><path class="cls-3" d="M924.11,220.86c0,39.23-8.67,81.85-33.81,114.52-72.71,94.49-160.77,93.14-296.76,93.14-82.6,0-205,8.06-275-17.15C214,373.72,178.09,326,178.09,256.9c0-57.62,42.24-137.23,103.64-170.12,61.58-33,142.47-55.2,245.62-55.2,127.36,0,246.87,17.37,321.1,66.2C894.29,127.93,924.11,176.8,924.11,220.86Z"/><path class="cls-4" d="M465.8,255.17s-5.12,16,13.75,28.15,30.71,30.71,12.8,44.15c0,0-31.35-12.48-30.39-56.62,0,0-9.28,39.66,25.27,59.82,0,0-24.63,7.67-34.55-15.68S457.16,265.41,465.8,255.17Z"/><path class="cls-5" d="M446,281.44s-.92-26.4,38.07-40.22a169.4,169.4,0,0,1,28.55-6.14c15.35-1.84,46-8.59,45.44-40.21,0,0-.38-17.45-17.23-26.11a34.86,34.86,0,0,0-34,.89,25.77,25.77,0,0,0-9.9,10.48s-2.4-11.55-17.21-13.7a28.68,28.68,0,0,0-15.25,2c-9.49,4-25.4,14.47-27.52,40.08C437,208.56,433.39,245.64,446,281.44Z"/><ellipse class="cls-4" cx="546.22" cy="146.78" rx="17.41" ry="15.51" transform="translate(291.76 651.91) rotate(-78.31)"/><ellipse class="cls-4" cx="514.88" cy="144.54" rx="13.64" ry="11.26" transform="translate(320.77 642.86) rotate(-84.4)"/><ellipse class="cls-4" cx="491.15" cy="147.75" rx="11.16" ry="9.13" transform="translate(246.91 598.75) rotate(-78.31)"/><ellipse class="cls-4" cx="471.25" cy="153.04" rx="8.71" ry="7.65" transform="translate(238.37 590.37) rotate(-79.96)"/><ellipse class="cls-4" cx="455.85" cy="160.44" rx="6.4" ry="5.89" transform="translate(240.89 593.26) rotate(-82.98)"/><path class="cls-6" d="M617.29,240l-.17-2.27c-.16-3.87,1.1-7.32,4.55-11.62l2.69-3.36c2.27-2.77,3.7-5.13,3.7-8.75-.08-4-2.52-7.07-6.65-6.81a13,13,0,0,0-8.16,3.7c-2,1.93-4.62,2.1-6.64,0s-1.68-4.88.25-6.9A22,22,0,0,1,622,197.47c11.61-.42,17.92,6.22,18.09,14.39.26,7.06-3.11,11.77-7.91,16.4-3.78,3.7-5.46,5.89-5.21,9.34l.16,2c.26,2.61-1.68,4.21-4.71,4.38C619.14,244.08,617.38,242.57,617.29,240Zm-2.1,15.14a7.11,7.11,0,0,1,7.32-7.07,6.92,6.92,0,0,1,7.15,7.07,7.2,7.2,0,0,1-7.15,7.15A7.34,7.34,0,0,1,615.19,255.1Z"/></g></svg>